<svg xmlns="http://www.w3.org/2000/svg" width="24" height="24" fill="none"><path fill="#003" d="M7.356 6.284c0 .396.324.716.716.716a.72.72 0 0 0 .716-.712V2.716A.72.72 0 0 0 8.072 2a.72.72 0 0 0-.716.716zM15.212 6.284a.717.717 0 0 0 1.432.004V2.716a.715.715 0 1 0-1.432 0zM2 22h20V10.572H2zm7.64-1.964H9c-.428 0-1.18-.18-1.608-.464-.252-.18-.284-.5-.108-.752.18-.252.5-.284.752-.108.144.108.644.252.964.252h.644c.608 0 1.108-.464 1.108-1.072s-.5-1.072-1.108-1.072H8.68a.55.55 0 0 1-.536-.536c0-.284.252-.536.536-.536h.964c.608 0 1.108-.464 1.108-1.072s-.5-1.072-1.108-1.072H9c-.32 0-.82.144-.964.252-.252.18-.572.144-.752-.108s-.144-.572.108-.752c.392-.284 1.18-.464 1.608-.464h.644c1.216 0 2.18.964 2.18 2.144 0 .644-.284 1.216-.752 1.608a2.1 2.1 0 0 1 .748 1.608c0 1.18-.964 2.144-2.18 2.144m6.112-.536a.55.55 0 0 1-.536.536.55.55 0 0 1-.536-.536V14l-.856.464a.502.502 0 0 1-.716-.216.502.502 0 0 1 .216-.716l1.644-.928a.48.48 0 0 1 .536 0c.18.108.252.284.252.464-.008.004-.008 6.432-.004 6.432"/><path fill="#003" d="M17.712 4.144h2.144c1.18 0 2.144.964 2.144 2.14V9.5H2V6.284c0-1.176.964-2.14 2.144-2.14h2.144v2.144c0 1 .784 1.784 1.784 1.784s1.784-.784 1.784-1.784V4.144h4.288v2.144c0 1 .784 1.784 1.784 1.784s1.784-.784 1.784-1.784z"/></svg>