<svg xmlns="http://www.w3.org/2000/svg" width="24" height="24" fill="none"><path fill="#00001E" d="M18.533 4.5a3.929 3.929 0 1 0 0 7.857 3.929 3.929 0 0 0 0-7.857m1.682 5.104a.356.356 0 0 1 0 .507.356.356 0 0 1-.508 0l-1.175-1.179-1.174 1.179a.356.356 0 0 1-.508 0 .36.36 0 0 1 0-.507l1.179-1.175-1.179-1.175a.359.359 0 0 1 .508-.508l1.174 1.179 1.175-1.179a.358.358 0 1 1 .508.508l-1.179 1.175z"/><path fill="#00001E" d="M13.89 8.429a4.643 4.643 0 0 1 4.642-4.643V2H9.766v6.25l-6.233-.007V22h15v-8.929A4.643 4.643 0 0 1 13.89 8.43m1.071 9.464h-7.5a.536.536 0 0 1 0-1.072h7.5a.536.536 0 0 1 0 1.072m0-3.572h-7.5a.536.536 0 1 1 0-1.071h7.5a.536.536 0 1 1 0 1.071"/><path fill="#00001E" d="M8.693 2.24 3.78 7.17l4.907.008z"/></svg>