<svg xmlns="http://www.w3.org/2000/svg" width="24" height="24" fill="none"><path fill="#00001E" d="M15.807 6.115c.037.075.075.188.037.264l-.226.641c-.15.377.075.83.453.98.075.039.188.039.264.039a.77.77 0 0 0 .716-.49l.264-.717c0-.038 0-.038.038-.076a2.08 2.08 0 0 0-.189-1.433L16.9 4.87a.37.37 0 0 1-.037-.34l.377-.64c.15-.378.038-.83-.34-1.019-.377-.226-.83-.113-1.018.264l-.415.717c0 .037-.037.037-.037.075-.264.566-.19 1.207.113 1.735zm-5.243 0c.037.075.075.15.037.264l-.264.641c-.15.377.038.83.415.98.114.039.227.039.302.039a.77.77 0 0 0 .717-.49l.264-.717c0-.038.037-.076.037-.076a2.08 2.08 0 0 0-.188-1.433l-.264-.453a.37.37 0 0 1-.038-.34l.377-.678c.189-.377.076-.83-.301-1.019-.378-.188-.83-.075-1.019.302l-.377.717s-.038.037-.038.075c-.264.566-.188 1.207.113 1.735zm2.64-.34c.075.151.113.302.075.453l-.301.792c-.151.377.037.83.452.98a.64.64 0 0 0 .264.039.77.77 0 0 0 .717-.49l.302-.83c0-.038 0-.038.038-.076a2.03 2.03 0 0 0-.227-1.622l-.34-.566c-.112-.15-.112-.377-.037-.566l.415-.792a.777.777 0 0 0-.302-1.018.776.776 0 0 0-1.018.302l-.415.83s0 .037-.038.037a2.24 2.24 0 0 0 .113 1.962zM5.962 9.17v1.509H4.831a2.27 2.27 0 0 0-2.264 2.263v3.395A2.27 2.27 0 0 0 4.831 18.6H6.3a5.26 5.26 0 0 0 4.942 3.394h4.903c2.904 0 5.28-2.376 5.28-5.28V9.17zm-1.131 7.921a.757.757 0 0 1-.755-.754v-3.395c0-.415.34-.754.755-.754h1.131v4.526c0 .113 0 .264.038.377z"/></svg>