<svg xmlns="http://www.w3.org/2000/svg" width="24" height="24" fill="none"><path fill="#00001E" d="M12.309 13.652c3.075 0 5.57-2.61 5.57-5.826S15.384 2 12.31 2s-5.57 2.61-5.57 5.826 2.495 5.826 5.57 5.826m7.108 1.09c.726 0 1.368.486 1.595 1.213a1.83 1.83 0 0 1-.789 2.083l-6.078 3.668a2 2 0 0 1-1.564.224l-3.837-.997H6.547a2.05 2.05 0 0 1-1.551.727h-1.39c-.384 0-.696-.326-.696-.727v-5.826c0-.401.312-.728.695-.728H7.96c.384 0 .736.094 1.043.28l.713.447h5.031c.758 0 1.395.508 1.636 1.212l2.192-1.337c.25-.154.544-.238.843-.238m-5.967 5.701 6.074-3.668c.129-.08.205-.238.16-.363a.29.29 0 0 0-.272-.215.25.25 0 0 0-.138.037l-3.445 2.102a1.68 1.68 0 0 1-1.087.41h-3.828c-.383 0-.695-.326-.695-.726 0-.401.312-.728.695-.728h3.828a.356.356 0 0 0 .347-.363c0-.2-.155-.364-.347-.364H9.327l-1.033-.648a.66.66 0 0 0-.34-.079h-.868v3.64h1.827l4.006 1.04c.183.046.37.023.53-.075M9.924 7.276c.246-1.347 1.378-2.368 2.737-2.368.45 0 .882.112 1.288.331a.56.56 0 0 1 .222.737.513.513 0 0 1-.704.233 1.7 1.7 0 0 0-.802-.205c-.775 0-1.43.54-1.653 1.272h1.653c.29 0 .522.242.522.545a.53.53 0 0 1-.522.546h-1.653c.223.736.873 1.272 1.653 1.272.28 0 .553-.07.802-.205a.51.51 0 0 1 .704.233.555.555 0 0 1-.222.737c-.402.219-.834.33-1.288.33-1.36 0-2.491-1.02-2.737-2.367h-.4a.53.53 0 0 1-.522-.546c0-.303.232-.545.521-.545z"/></svg>