<svg xmlns="http://www.w3.org/2000/svg" width="24" height="24" fill="none"><path fill="#00001E" d="M12.01 12.536c-.726 0-1.344.5-1.517 1.18h2.998c-.174-.716-.726-1.18-1.482-1.18"/><path fill="#00001E" d="m15.077 2.68 3.616 3.64c.413.428.726 1.144.722 1.752V22H4.635L4.6 4.32C4.6 3 5.499 2 6.668 2h6.892c.587 0 1.104.248 1.517.68m-8.235 17h10.342v-9.464c0-.68-.552-1.252-1.208-1.252H8.05c-.656 0-1.208.572-1.208 1.252z"/><path fill="#00001E" d="M8.046 10.036h7.926c.105 0 .17.072.17.18v8.392h-8.27v-8.392c0-.108.07-.18.174-.18m2.481 4.748h3.55c.275 0 .518-.248.525-.54 0-1.64-1.069-2.784-2.585-2.784-1.412 0-2.586 1.18-2.586 2.644v.216c0 .392.07.716.174 1.036.066.216.17.464.309.644a2.64 2.64 0 0 0 1.93 1.144h.273c.726 0 1.447-.284 1.964-.82a.53.53 0 0 0 0-.752.487.487 0 0 0-.725 0c-.344.356-.895.536-1.412.5a1.56 1.56 0 0 1-1.174-.68 1.1 1.1 0 0 1-.173-.356c-.018-.036-.026-.081-.035-.126s-.017-.09-.035-.126"/></svg>