<svg xmlns="http://www.w3.org/2000/svg" width="24" height="24" fill="none"><path fill="#00001E" d="M17.677 21.993h3.694V3.347l-3.694 3.695z"/><path fill="#00001E" d="M16.373 6.78c0-.173.087-.347.174-.477L20.893 2H7.898v8.475h4.78a1.54 1.54 0 0 1 1.522 1.521 1.54 1.54 0 0 1-1.521 1.522H7.898v8.475h8.475z"/><path fill="#00001E" d="M12.679 11.345H5.116L6.16 10.3a.63.63 0 0 0 0-.912.63.63 0 0 0-.913 0L2.64 11.997l2.65 2.65c.131.131.305.175.479.175a.65.65 0 0 0 .478-.174.63.63 0 0 0 0-.913l-1.043-1.043h7.476a.67.67 0 0 0 .652-.652c0-.348-.305-.695-.652-.695"/></svg>