<svg xmlns="http://www.w3.org/2000/svg" width="24" height="24" fill="none"><path fill="#003" d="M18.79 5.518a3.55 3.55 0 0 1-1.627 2.997c2.259.526 3.767 2.063 3.772 4.03v.014a2.98 2.98 0 0 0-2.322-1.123c-1.674 0-3.036 1.413-3.036 3.148 0 .593.156 1.138.43 1.612-.69.432-1.175 1.053-1.385 1.797l-.053-.038a2 2 0 0 0-.135-.094c.27-.47.43-1.015.43-1.603a3.18 3.18 0 0 0-1.317-2.594c-.438-1.261-1.44-2.27-2.816-2.883a4.3 4.3 0 0 0 .677-1.251c.603-.465 1.358-.816 2.222-1.015a3.54 3.54 0 0 1-1.628-2.997C12.002 3.58 13.53 2 15.4 2s3.392 1.579 3.392 3.518"/><path fill="#003" d="M7.714 20.52v1.461H2v-6.852c0-1.967 1.5-3.504 3.744-4.035a3.54 3.54 0 0 1-1.6-2.982c0-1.94 1.522-3.518 3.392-3.518s3.392 1.579 3.392 3.518c0 1.256-.64 2.361-1.6 2.982 1.44.342 2.57 1.09 3.195 2.106a2.8 2.8 0 0 0-.699-.09c-1.673 0-3.035 1.413-3.035 3.148 0 .593.155 1.138.43 1.612-.942.588-1.505 1.522-1.505 2.65M20.062 16.467a2.45 2.45 0 0 0 .868-1.873c0-1.328-1.042-2.41-2.322-2.41s-2.322 1.082-2.322 2.41c0 .758.343 1.436.873 1.877-1.102.346-1.81 1.105-1.92 2.106.439.535.69 1.194.69 1.944V22H22v-3.148c.005-1.143-.736-2.01-1.938-2.385"/><path fill="#003" d="M14.146 16.263c0 .754-.343 1.432-.868 1.873 1.197.374 1.938 1.242 1.938 2.385V22H8.432v-1.48c0-1.137.74-2 1.943-2.38a2.44 2.44 0 0 1-.873-1.877c0-1.328 1.042-2.409 2.322-2.409s2.322 1.081 2.322 2.409"/></svg>