<svg xmlns="http://www.w3.org/2000/svg" width="24" height="24" fill="none"><path fill="#003" d="m18.464 17.888 2.84 2.874a.714.714 0 0 1-.004 1.022.7.7 0 0 1-.503.216.7.7 0 0 1-.503-.216L2.687 3.964a.706.706 0 0 1 0-1.018.686.686 0 0 1 1.006 0l3.62 3.675V3.82c0-1.022.828-1.82 1.799-1.82 1.01 0 1.798.838 1.798 1.82v3.455c.29-.22.682-.365 1.078-.365.93 0 1.652.73 1.758 1.635.33-.22.686-.365 1.117-.365.864 0 1.62.654 1.728 1.491.328-.256.685-.4 1.117-.4.97 0 1.798.837 1.798 1.82v4.36c0 .108-.147 1.6-1.042 2.437m-12.94-4.982c0-1.054.791-2.545 1.798-2.726l10.243 10.365v1.451H8.938V19.96c-.614-.617-3.415-3.78-3.415-6.69z"/></svg>