<svg xmlns="http://www.w3.org/2000/svg" width="24" height="24" fill="none"><path fill="#00001E" d="M9.222 2.716v3.587a.707.707 0 0 1-.695.717.707.707 0 0 1-.694-.717V2.716c0-.395.311-.716.694-.716s.695.321.695.716m10.972 14.751c.325-.34.507-.79.507-1.267 0-.482-.182-.933-.516-1.277-.28-.29-.642-.46-1.029-.505a1.834 1.834 0 0 0-.2-2.283c-.28-.289-.642-.459-1.029-.505a1.834 1.834 0 0 0-.2-2.282 1.7 1.7 0 0 0-.989-.5l2.467-2.545a1.836 1.836 0 0 0 0-2.535 1.704 1.704 0 0 0-2.458 0L9.128 11.63 6.403 8.82a1.672 1.672 0 0 0-2.422 0 1.77 1.77 0 0 0-.503 1.249c0 .473.178.914.503 1.249l1.79 1.846a5.5 5.5 0 0 1 1.434 2.723l.254 1.236a6.2 6.2 0 0 0 1.62 3.081 5.88 5.88 0 0 0 3.901 1.791h.008l.02.001q.059.003.213.004c.69 0 2.693-.12 3.922-1.428q.088-.089.183-.17l.052-.047q.083-.073.162-.15zM6.929 6.157a.734.734 0 0 1 0 1.014.69.69 0 0 1-.49.211.67.67 0 0 1-.49-.21L3.514 4.658a.734.734 0 0 1 0-1.015.68.68 0 0 1 .984 0zm4.176 1.014 2.436-2.512a.734.734 0 0 0 0-1.015.68.68 0 0 0-.984 0l-2.436 2.512a.734.734 0 0 0 0 1.015.67.67 0 0 0 .49.211.7.7 0 0 0 .494-.21"/></svg>