<svg xmlns="http://www.w3.org/2000/svg" width="24" height="24" fill="none"><path fill="#00001E" d="M2 18h20V6H2zm12.779-3.599c1.228 0 2.223-1.08 2.223-2.401s-1-2.401-2.223-2.401h-1.11v4.802zM11.445 9v6c0 .333-.246.599-.555.599-.308 0-.554-.266-.554-.599v-2.6H7.372V15c0 .333-.246.599-.555.599-.308 0-.554-.266-.554-.599V9c0-.333.246-.599.554-.599s.555.266.555.599v2.201h2.964V9c0-.333.246-.599.554-.599s.555.266.555.599m3.334-.599c1.84 0 3.333 1.613 3.333 3.599s-1.494 3.599-3.333 3.599h-2.224V8.401z"/></svg>