<svg xmlns="http://www.w3.org/2000/svg" width="24" height="24" fill="none"><path fill="#003" d="M22 16.127v-.712h-1.787v-8.26c0-1.19-.965-2.155-2.144-2.155H5.927c-1.184 0-2.144.97-2.144 2.156v2.693h6.089l-.187-.188a1.26 1.26 0 0 1 0-1.78 1.245 1.245 0 0 1 1.769 0l3.204 3.223-3.204 3.222a1.243 1.243 0 0 1-1.765 0 1.26 1.26 0 0 1 0-1.78l.188-.187h-6.09v3.051H2v.717A2.866 2.866 0 0 0 4.857 19h14.286A2.866 2.866 0 0 0 22 16.127m-11.813-7.74a.533.533 0 0 1 .76 0l2.706 2.717-2.702 2.716a.53.53 0 0 1-.38.156.54.54 0 0 1-.38-.92l1.409-1.415H2.535A.534.534 0 0 1 2 11.105c0-.299.238-.538.535-.538h9.06L10.187 9.15a.54.54 0 0 1 0-.763"/></svg>