<svg xmlns="http://www.w3.org/2000/svg" width="24" height="24" fill="none"><path fill="#00001E" d="M8.847 2C6.975 2 5.443 3.504 5.35 5.388h13.31C18.566 3.504 17.035 2 15.162 2zM5.34 6.458v11.084h13.333V6.458zm3.363 9.067a.53.53 0 0 1-.525.535.53.53 0 0 1-.525-.535v-1.051c0-.297.233-.535.525-.535s.525.238.525.535zm2.04.535a.53.53 0 0 1-.526-.534v-2.817c0-.297.233-.535.525-.535s.526.238.526.535v2.816a.53.53 0 0 1-.526.535m3.085-.535a.53.53 0 0 1-.526.535.53.53 0 0 1-.525-.535V10.56c0-.298.233-.535.525-.535s.526.237.526.535zm1.508.005V8.41c0-.297.234-.534.526-.534s.525.237.525.535v7.119a.53.53 0 0 1-.525.535.53.53 0 0 1-.526-.535m3.324 3.082C18.565 20.496 17.034 22 15.16 22H8.847c-1.872 0-3.404-1.504-3.498-3.388z"/></svg>