<svg xmlns="http://www.w3.org/2000/svg" width="24" height="24" fill="none"><path fill="#00001E" d="M22 9.695c0-2.54-1.997-4.615-4.443-4.615s-4.442 2.075-4.442 4.615v7.695c0 1.654-1.481 3.076-3.146 3.076-1.63 0-2.962-1.384-2.962-3.076v-1.925c2.03-.387 3.51-2.232 3.51-4.423V5.845H8.852V2.77c0-.424-.332-.769-.74-.769-.409 0-.74.345-.74.77v3.075H5.145V2.77c0-.424-.332-.769-.74-.769-.409 0-.741.345-.741.77v3.075H2v5.193c0 2.19 1.48 4.04 3.518 4.423v1.925c0 2.54 1.997 4.614 4.443 4.614 2.517 0 4.63-2.116 4.63-4.614V9.695c0-1.692 1.333-3.076 2.962-3.076s2.962 1.384 2.962 3.076v7.308c0 .424.332.77.74.77.409 0 .741-.346.741-.77V9.695z"/></svg>