<svg xmlns="http://www.w3.org/2000/svg" width="24" height="24" fill="none"><path fill="#003" d="M18.673 5.393C18.571 3.5 17.026 2 15.166 2H8.851c-1.86 0-3.405 1.5-3.507 3.393zM12.532 21.996h2.634c1.86 0 3.405-1.5 3.507-3.393h-6.141z"/><path fill="#003" d="M5.34 17.535V6.465h13.333v11.07h-6.141V9.357l1.887 1.929c.11.108.248.144.39.144a.53.53 0 0 0 .388-.144.524.524 0 0 0 0-.752l-3.192-3.18-3.158 3.18a.524.524 0 0 0 0 .752.503.503 0 0 0 .74 0l1.895-1.929V22H8.847c-1.895 0-3.4-1.5-3.507-3.393h4.561c.28 0 .527-.252.527-.536a.55.55 0 0 0-.527-.536z"/></svg>