<svg xmlns="http://www.w3.org/2000/svg" width="24" height="24" fill="none"><path fill="#003" d="M21.168 17.382a.75.75 0 0 1 .82.617.686.686 0 0 1-.604.806l-3.805.581-.532-3.89c-.072-.401.212-.765.604-.839a.75.75 0 0 1 .82.618l.216 1.562a8.86 8.86 0 0 0 1.457-4.835c0-4.729-3.73-8.546-8.36-8.546S3.421 7.27 3.421 11.998s3.737 8.546 8.36 8.509c1.244 0 2.456-.254 3.557-.798a.754.754 0 0 1 .96.364c.14.364 0 .802-.356.982A9.7 9.7 0 0 1 11.78 22C6.374 22 2 17.529 2 12.002S6.382 2 11.784 2s9.78 4.475 9.777 9.998c0 2-.605 3.927-1.673 5.563z"/><path fill="#003" d="M11.072 5.453c0-.397.316-.724.708-.724.393 0 .713.327.713.728v6.246l2.633 2.692a.715.715 0 0 1 0 1.019.69.69 0 0 1-.496.22.7.7 0 0 1-.497-.22l-2.845-2.909a.72.72 0 0 1-.216-.507z"/></svg>