<svg xmlns="http://www.w3.org/2000/svg" width="24" height="24" fill="none"><path fill="#00001E" d="M16.982 16.922a.2.2 0 0 0 .013-.076c0-.01.005-.024.005-.033q-.001-.019-.01-.038c0-.014.005-.029 0-.038L15.388 8.96c-.247-1.186-1.029-2.134-2.043-2.59.59-.435.978-1.151.978-1.962C14.322 3.08 13.284 2 12 2c-1.28 0-2.322 1.081-2.322 2.409 0 .81.389 1.527.983 1.963A3.64 3.64 0 0 0 8.618 8.96l-1.609 7.78c-.004.015 0 .024 0 .038 0 .015-.009.024-.009.038 0 .015.005.024.005.034l.013.07q.008.035.023.062.016.03.037.057c.013.02.027.034.045.053q.028.022.055.037a.2.2 0 0 0 .064.029q.014.008.032.014c.014.005.028 0 .037 0 .013 0 .023.01.036.01h2.144V22h4.995v-4.813h2.14c.022 0 .05-.004.072-.01.014-.004.019-.009.032-.013l.064-.029q.028-.016.055-.038.026-.022.046-.052a.4.4 0 0 0 .036-.057.09.09 0 0 0 .05-.066"/></svg>