<svg width="24" height="24" viewBox="0 0 24 24" fill="none" xmlns="http://www.w3.org/2000/svg">
<path fill-rule="evenodd" clip-rule="evenodd" d="M24 12.0307C24 0.993739 14.848 0.0648833 12.4986 0.0102447C12.2254 0.00341491 11.9112 0 11.6039 0H11.3648C8.95731 0.0204895 0 0.846898 0 11.9624C0 23.0916 9.03927 23.9624 11.4502 23.9966C11.5731 24 11.6995 24 11.8224 24C12.0751 24 12.3312 23.9966 12.5498 23.9932C14.8412 23.9488 24 23.0916 24 12.0307ZM12.5293 22.9926C14.9846 22.9482 22.9994 22.0228 22.9994 12.0307C22.9994 7.70404 21.5174 4.5794 18.601 2.75242C16.2174 1.25669 13.5265 1.03472 12.4781 1.01081C12.2117 1.00398 11.9044 1.00057 11.6073 1.00057H11.3785C10.3369 1.01081 7.66306 1.18839 5.31702 2.66705C2.44849 4.4667 1.00057 7.59476 1.00057 11.9624C1.00057 16.3335 2.46215 19.4752 5.35458 21.2954C7.72453 22.7877 10.4155 22.9824 11.4639 22.9994C11.5834 23.0028 11.7029 23.0028 11.8224 23.0028C11.902 23.0017 11.9817 23.001 12.0602 23.0003H12.0604H12.0606C12.2245 22.9987 12.3839 22.9972 12.5293 22.9926ZM17.9795 11.4639C18.2561 11.4639 18.4781 11.6892 18.4781 11.9624C18.4781 12.2356 18.2527 12.461 17.9795 12.461H12.4952V17.959C12.4952 18.2356 12.2698 18.4576 11.9966 18.4576C11.7234 18.4576 11.498 18.2322 11.498 17.959V12.4644H6.02049C5.74388 12.4644 5.52191 12.239 5.52191 11.9659C5.52191 11.6927 5.7473 11.4673 6.02049 11.4673H11.4946V6.03756C11.4946 5.76096 11.72 5.53899 11.9932 5.53899C12.2664 5.53899 12.4917 5.76437 12.4917 6.03756V11.4639H17.9795Z" fill="#313235"/>
</svg>
