<svg width="24" height="24" viewBox="0 0 24 24" fill="none" xmlns="http://www.w3.org/2000/svg">
<path fill-rule="evenodd" clip-rule="evenodd" d="M8.9168 19.9848C9.25293 20.3182 9.59467 20.4863 9.93361 20.4863C10.2697 20.4863 10.6031 20.3266 10.9224 20.0045L16.0176 14.9288C16.0541 14.8896 16.1017 14.87 16.1521 14.8672C16.1773 14.8672 16.2249 14.8728 16.2613 14.9092L18.8244 17.4722L18.8328 17.4806C19.1213 17.7468 19.6199 17.8224 19.9924 17.6571C20.2978 17.5227 20.4686 17.2538 20.4658 16.9204L20.4714 4.25376C20.4882 4.04367 20.4238 3.8504 20.2893 3.71594C20.1549 3.58149 19.9644 3.51706 19.7515 3.53387H7.14649C6.76274 3.53387 6.46302 3.72155 6.32016 4.05208C6.1661 4.41062 6.23893 4.87841 6.49103 5.14171L6.49663 5.14732L9.26974 7.92042C9.33417 7.98205 9.32296 8.09409 9.25293 8.16412L4.01484 13.3322L4.01204 13.335L4.01189 13.3351C3.74012 13.6097 3.17182 14.1839 3.85518 14.9288L3.86358 14.9372L8.9168 19.9848ZM9.31456 19.5899L4.26414 14.5451C4.01484 14.2734 4.00644 14.1389 4.4126 13.7327L9.65069 8.56468C9.79075 8.42743 9.86918 8.24536 9.87478 8.05208C9.88039 7.8532 9.80756 7.66552 9.6703 7.52827L6.89999 4.75796C6.81316 4.66552 6.76554 4.44704 6.83837 4.27897C6.89159 4.15572 6.98963 4.0997 7.15209 4.0997H19.7683C19.7725 4.0997 19.7774 4.099 19.7823 4.0983C19.7872 4.0976 19.7922 4.0969 19.7964 4.0969C19.8412 4.09129 19.8804 4.0997 19.8972 4.1165C19.914 4.13331 19.9224 4.16972 19.9168 4.21734C19.914 4.22575 19.914 4.23695 19.914 4.24536L19.9084 16.926V16.9288C19.9084 17.0017 19.8916 17.0941 19.7655 17.1501C19.5975 17.2257 19.3426 17.1893 19.2165 17.0773L16.6563 14.5171C16.5162 14.3798 16.3314 14.307 16.1325 14.3126C15.9392 14.3182 15.7571 14.3994 15.6199 14.5367L10.5274 19.6067C10.0961 20.0381 9.75714 20.0325 9.31456 19.5899Z" fill="#313235"/>
</svg>
