<svg width="24" height="24" viewBox="0 0 24 24" fill="none" xmlns="http://www.w3.org/2000/svg">
<path fill-rule="evenodd" clip-rule="evenodd" d="M11.9362 21.883H11.939C12.1126 21.883 12.2835 21.7962 12.4544 21.6197L21.4124 12.7177C21.7877 12.3508 21.9081 11.9166 21.7429 11.5329C21.5692 11.1239 21.1014 10.8634 20.5776 10.8802L17.0594 10.9026C16.9782 10.9026 16.9138 10.8242 16.9138 10.7289L16.9166 3.82698V3.82138C16.9081 3.26676 16.7625 2.86339 16.474 2.58328C16.1603 2.28076 15.7065 2.14631 15.0482 2.15751H8.82972C8.25549 2.14071 7.7877 2.29197 7.47678 2.59729C7.17706 2.89141 7.0286 3.30317 7.037 3.82698V10.7261C7.037 10.8214 6.97258 10.8998 6.89134 10.8998L3.11263 10.9054C2.69807 10.8998 2.36753 11.1043 2.22468 11.4544C2.05941 11.8578 2.19947 12.3508 2.58042 12.7121L11.5104 21.6785C11.6392 21.813 11.7821 21.883 11.9362 21.883ZM2.7709 11.6757C2.81851 11.5581 2.93336 11.4936 3.09583 11.4936C3.09863 11.4936 3.10423 11.4936 3.10143 11.4964H3.10703L6.88854 11.4908C7.2947 11.4908 7.62524 11.1491 7.62524 10.7289V3.82138C7.61964 3.46564 7.70927 3.19673 7.88854 3.02026C8.13504 2.77936 8.5272 2.74015 8.81291 2.74855H15.0566C15.544 2.74015 15.8745 2.82418 16.065 3.00905C16.2359 3.17432 16.3227 3.44323 16.3283 3.82978L16.3255 10.7289C16.3255 11.1491 16.656 11.4908 17.0622 11.4908L20.586 11.4684H20.5944C20.8689 11.4572 21.1238 11.5805 21.2023 11.7626C21.2891 11.9642 21.1126 12.1827 20.9978 12.2948L12.037 21.2023L12.0342 21.2051C11.995 21.2471 11.9642 21.2696 11.9474 21.2808C11.9465 21.2799 11.9454 21.2791 11.9442 21.2781C11.9414 21.276 11.9381 21.2735 11.9362 21.2696L11.9306 21.264L2.99499 12.2892L2.98938 12.2836C2.74008 12.0483 2.71487 11.8102 2.7709 11.6757Z" fill="#313235"/>
</svg>
