<svg width="24" height="24" viewBox="0 0 24 24" fill="none" xmlns="http://www.w3.org/2000/svg">
<path fill-rule="evenodd" clip-rule="evenodd" d="M13.7417 6.14408C13.7417 5.34296 13.0946 4.6875 12.2235 4.6875C9.0358 4.6875 7.30471 6.04884 6.38034 7.33736L2.95457 7.34016C2.74168 7.34016 2.54 7.42419 2.39154 7.57546C2.24028 7.72672 2.15625 7.9312 2.15625 8.14688L2.16745 15.8556C2.16745 16.3009 2.526 16.6595 2.96577 16.6595L6.36633 16.6567C7.2879 17.9396 9.0246 19.2981 12.3103 19.2981C13.1002 19.2981 13.7417 18.6483 13.7417 17.85V6.14408ZM21.8369 12.1357C21.7921 8.04884 19.2151 5.65949 19.1058 5.55865C18.7837 5.26173 18.2739 5.28974 17.9742 5.61747C17.6801 5.948 17.7081 6.45781 18.0358 6.75753C18.0582 6.77714 20.2011 8.76593 20.2375 12.1805C20.2403 12.2141 20.3579 15.6035 18.0778 17.6623C17.7473 17.9592 17.7221 18.469 18.0134 18.8023C18.1731 18.9788 18.3915 19.0713 18.61 19.0713C18.8033 19.0713 18.991 19.004 19.1422 18.8668C21.9826 16.3009 21.8425 12.2813 21.8369 12.1357ZM16.3551 16.6539C18.2543 14.9396 18.1619 12.2617 18.1562 12.1749C18.1283 9.46186 16.4071 7.86824 16.33 7.79684L16.3299 7.79674C16.005 7.50263 15.5036 7.52784 15.2095 7.85557C14.9126 8.1861 14.935 8.6959 15.2599 8.99562C15.3131 9.04324 16.5372 10.2057 16.5568 12.2141C16.5596 12.2337 16.6156 14.2533 15.2907 15.4494C14.9602 15.7491 14.9322 16.2589 15.2263 16.5895C15.3859 16.7687 15.6044 16.8584 15.8229 16.8584C16.0134 16.8584 16.2039 16.7911 16.3551 16.6539ZM12.145 17.6847V6.30375C9.99939 6.33736 8.48118 7.04884 7.56241 8.42419C7.55266 8.45021 7.53346 8.46868 7.51414 8.48726C7.50018 8.50069 7.48615 8.51419 7.47558 8.53064C7.43076 8.61467 7.37474 8.6875 7.30191 8.74912C7.29771 8.75193 7.29421 8.75473 7.29071 8.75753C7.2872 8.76033 7.2837 8.76313 7.2795 8.76593C7.14224 8.87517 6.97698 8.95081 6.7893 8.95081L3.75009 8.95361L3.75849 15.0488L6.7809 15.046C7.08902 15.046 7.34953 15.2309 7.48398 15.4886C7.49013 15.4997 7.49951 15.508 7.50904 15.5166C7.52125 15.5274 7.53371 15.5386 7.54 15.5558C8.45037 16.9424 9.99659 17.6567 12.145 17.6847Z" fill="#313235"/>
</svg>
