<svg width="24" height="24" viewBox="0 0 24 24" fill="none" xmlns="http://www.w3.org/2000/svg">
<path fill-rule="evenodd" clip-rule="evenodd" d="M20.166 12.2418C22.4772 14.71 22.396 17.4415 19.9167 19.9209C18.6392 21.1985 17.2945 21.84 15.9526 21.84C14.6107 21.84 13.2716 21.2041 11.997 19.9265L11.8317 19.7668C11.7112 19.652 11.5908 19.5371 11.4899 19.4194L10.7812 18.7106C10.7764 18.7071 10.7712 18.704 10.7661 18.7011C10.7591 18.697 10.7524 18.6931 10.7475 18.6882L5.14745 13.0878C5.14355 13.0839 5.14086 13.0788 5.13797 13.0734C5.13463 13.067 5.13104 13.0602 5.12504 13.0542L4.55074 12.4799C4.45052 12.3964 4.33922 12.2796 4.22511 12.16L4.22297 12.1577L4.06609 11.9952C1.51117 9.44017 1.51117 6.62457 4.06609 4.06672C6.58459 1.54808 9.35802 1.51166 11.8793 3.95745L13.0587 5.13692C13.0615 5.13973 13.065 5.14183 13.0685 5.14393C13.072 5.14603 13.0755 5.14813 13.0783 5.15093L18.684 10.7485C18.6845 10.749 18.685 10.7496 18.6853 10.7503L18.6867 10.7532C18.6878 10.756 18.6892 10.7592 18.6924 10.7625L20.0007 12.0681L20.0288 12.096C20.0761 12.1429 20.124 12.1904 20.166 12.2418ZM4.66 11.4013L4.83089 11.5778C4.84991 11.5974 4.86882 11.6171 4.88771 11.6367L4.88777 11.6368L4.88783 11.6369L4.88789 11.6369L4.88802 11.6371L4.88802 11.6371L4.88803 11.6371L4.88803 11.6371L4.88804 11.6371L4.88804 11.6371L4.88805 11.6371L4.88805 11.6371C4.96363 11.7158 5.03885 11.7942 5.11944 11.8635L5.4472 12.1913L12.1931 5.4451L11.2966 4.54859C10.2153 3.50079 9.1227 2.97409 8.03294 2.97409C6.90676 2.97409 5.77777 3.53161 4.66 4.65225C2.42164 6.89352 2.42164 9.16281 4.66 11.4013ZM19.3284 19.3298C21.4995 17.1614 21.5695 14.9621 19.5441 12.7993C19.5117 12.7609 19.4823 12.7326 19.4547 12.7062L19.4391 12.6912L19.4236 12.676L19.334 12.5892L18.3843 11.6394L11.6412 18.3857L12.109 18.8507C12.2148 18.9731 12.3122 19.0652 12.4123 19.1597L12.4144 19.1617L12.5937 19.3354C14.8264 21.5683 17.0928 21.5655 19.3284 19.3298ZM11.0501 17.7917L6.04111 12.7825L12.7842 6.03624L17.7932 11.0455L11.0501 17.7917ZM12.3948 11.4629C12.1483 11.2136 11.7449 11.2136 11.4955 11.4629C11.249 11.7123 11.249 12.1129 11.4955 12.365C11.7421 12.6144 12.1455 12.6144 12.3948 12.365C12.6441 12.1157 12.6441 11.7123 12.3948 11.4629ZM10.9324 14.371C11.1818 14.1216 11.5824 14.1216 11.8317 14.371C12.081 14.6203 12.081 15.0237 11.8317 15.2703C11.5824 15.5196 11.179 15.5196 10.9324 15.2703C10.6831 15.0237 10.6831 14.6203 10.9324 14.371ZM15.3755 11.7291C15.6249 11.4797 15.6249 11.0763 15.3755 10.827C15.1262 10.5776 14.7256 10.5776 14.4763 10.827C14.2269 11.0763 14.2269 11.4797 14.4763 11.7291C14.7228 11.9784 15.1262 11.9784 15.3755 11.7291ZM8.64926 12.0653C8.89859 11.8159 9.30199 11.8159 9.54852 12.0653C9.79785 12.3146 9.79785 12.718 9.54852 12.9646C9.29919 13.2111 8.89578 13.2139 8.64926 12.9646C8.40273 12.718 8.40273 12.3146 8.64926 12.0653ZM13.0924 8.52125C12.8458 8.27191 12.4424 8.27191 12.1931 8.52125C11.9438 8.77059 11.9438 9.17402 12.1931 9.42056C12.4424 9.6699 12.843 9.6699 13.0924 9.42056C13.3417 9.17402 13.3417 8.77059 13.0924 8.52125Z" fill="#313235"/>
</svg>
