<svg width="24" height="24" viewBox="0 0 24 24" fill="none" xmlns="http://www.w3.org/2000/svg">
<path fill-rule="evenodd" clip-rule="evenodd" d="M16.9154 11.5741C17.3075 11.4565 17.7389 11.3864 18.2263 11.3864C20.5596 11.3864 21.8425 12.731 21.8425 15.168C21.8425 17.6049 20.5596 18.9467 18.2291 18.9467C15.8985 18.9467 14.6156 17.6049 14.6156 15.168C14.6156 13.6049 15.1506 12.5013 16.1422 11.9019L15.0414 9.66656L12.8677 14.0475C13.2039 14.3108 13.3915 14.7394 13.3915 15.2996C13.3915 16.0447 13.0694 16.5601 12.5036 16.7646L12.921 17.6385H13.4896C13.7249 17.6441 13.9126 17.8402 13.9069 18.0755C13.9126 18.308 13.7249 18.5041 13.4896 18.5097H12.6633C12.5064 18.5097 12.3607 18.4173 12.2907 18.2688L11.61 16.8402C10.935 16.7422 10.5092 16.294 10.4196 15.5853H9.35513C9.20947 17.7478 7.96017 18.9439 5.7697 18.9439C3.43916 18.9439 2.15625 17.6021 2.15625 15.1652C2.15625 12.7282 3.43916 11.3864 5.76409 11.392C6.19266 11.3892 6.61563 11.4481 7.0274 11.5657L8.42236 8.70858L7.48678 6.70577H6.58202C6.34673 6.70017 6.15905 6.50409 6.16465 6.2688C6.16185 6.0335 6.34673 5.84023 6.58202 5.83463H9.37474C9.61003 5.83743 9.79771 6.0335 9.7921 6.2688C9.79771 6.50129 9.61003 6.69737 9.37474 6.70297H8.41395L9.15345 8.28H14.6268V5.5209C14.624 5.32202 14.7585 5.14555 14.9518 5.09513C15.1058 5.05871 16.4616 4.7674 17.2487 5.42846C17.4896 5.63014 17.7753 6.00829 17.7753 6.66656C17.7781 6.90185 17.5932 7.09513 17.3579 7.10073C17.1226 7.09513 16.935 6.90185 16.9406 6.66656C16.9406 6.32762 16.8173 6.18757 16.7249 6.10914C16.4224 5.85423 15.8453 5.85143 15.456 5.89345V8.61054L16.9154 11.5741ZM11.8929 13.7338C11.8446 13.7338 11.801 13.7385 11.7574 13.7432C11.7429 13.7448 11.7284 13.7464 11.7137 13.7478L9.56241 9.14835H14.3551L12.075 13.7478C12.0586 13.7462 12.0425 13.7442 12.0262 13.7422H12.0262H12.0262C11.9841 13.737 11.9414 13.7318 11.8929 13.7338ZM18.2291 18.0727C16.3579 18.0727 15.4504 17.1203 15.4504 15.1652C15.4504 13.9467 15.8033 13.1203 16.5204 12.6666L17.8397 15.3472C17.9126 15.4985 18.061 15.5825 18.2095 15.5825C18.2767 15.5825 18.3411 15.5657 18.3999 15.5349C18.6072 15.4201 18.6857 15.1596 18.5792 14.9495L17.3075 12.3668C17.5876 12.3024 17.8845 12.2604 18.2291 12.2604C20.1002 12.2604 21.0106 13.2128 21.0106 15.168C21.0078 17.1203 20.0974 18.0727 18.2291 18.0727ZM11.2319 15.2968C11.2319 15.7982 11.4168 15.9915 11.8929 15.9915C12.3719 15.9915 12.5568 15.7982 12.5568 15.2968C12.5568 14.7982 12.3719 14.6021 11.8929 14.6021C11.4168 14.6021 11.2319 14.7982 11.2319 15.2968ZM5.7697 18.0727C3.89855 18.0727 2.99098 17.1203 2.99098 15.1652C2.99098 13.21 3.89855 12.2576 5.7697 12.2576C6.09182 12.2576 6.38034 12.2968 6.64645 12.3556L5.37754 14.9523C5.31031 15.0867 5.31871 15.2464 5.39435 15.378C5.46717 15.5069 5.60163 15.5853 5.75009 15.5853H8.526C8.39435 17.2492 7.49799 18.0727 5.7697 18.0727ZM6.43076 14.7142H8.5232C8.43916 13.7254 8.08622 13.0363 7.43916 12.647L6.43076 14.7142ZM8.88174 9.68617L10.921 14.0447C10.7081 14.2184 10.554 14.4509 10.4784 14.717H9.35233C9.25429 13.378 8.72768 12.4117 7.81171 11.8822L8.88174 9.68617Z" fill="#313235"/>
</svg>
