<svg width="24" height="24" viewBox="0 0 24 24" fill="none" xmlns="http://www.w3.org/2000/svg">
<path fill-rule="evenodd" clip-rule="evenodd" d="M10.6296 16.9182H17.1843C17.9378 16.9182 18.5736 16.6633 19.0806 16.1647C19.5708 15.6717 19.935 14.9574 20.1871 13.9826C20.3047 13.5288 20.6941 11.9658 21.0694 10.4532C21.1967 9.94402 21.3207 9.44661 21.4333 8.99476C21.5959 8.34287 21.7347 7.78582 21.8257 7.42516C21.8313 7.40275 21.8341 7.37754 21.8341 7.35513C21.8341 7.20107 21.7081 7.07502 21.554 7.07502H17.7361V3.85933C17.7361 2.71367 17.1843 2.15625 16.0526 2.15625H12.3019C11.1843 2.15625 10.6184 2.72768 10.6184 3.85933V7.07222H7.05136C6.80176 5.57965 6.59424 4.3476 6.5372 4.0274C6.44196 3.50079 6.13944 3.0218 5.68286 2.68006C5.23468 2.34112 4.66325 2.15625 4.07502 2.15625H2.43636C2.2823 2.15625 2.15625 2.2823 2.15625 2.43636C2.15625 2.59042 2.2823 2.71647 2.43636 2.71647H4.07502C4.5428 2.71647 4.99378 2.86213 5.34392 3.12824C5.68846 3.38594 5.91255 3.73888 5.98258 4.12544C6.14224 5.019 7.47838 13.0526 7.62124 13.9518C7.7753 14.9154 8.12824 15.6633 8.67446 16.1787C9.18706 16.6633 9.86493 16.9182 10.6296 16.9182ZM21.1955 7.63524H17.7361V11.3887C17.7333 12.5372 17.1843 13.0946 16.0526 13.0946H12.3019C11.1703 13.0946 10.6184 12.5372 10.6184 11.3915V7.63244H7.14498C7.57804 10.2257 8.09197 13.3264 8.17586 13.8649C8.42796 15.4728 9.30191 16.3607 10.6296 16.3607H17.1843C17.7921 16.3607 18.2823 16.1647 18.6829 15.7641C19.0974 15.3495 19.4196 14.7025 19.6436 13.8397C19.7178 13.5554 19.8989 12.8291 20.1173 11.9528C20.2453 11.4391 20.3862 10.8739 20.526 10.3159L20.5414 10.254C20.7935 9.24011 21.0335 8.27489 21.1955 7.63524ZM9.25709 20.4616C9.25709 21.3327 9.75849 21.8341 10.6296 21.8341C11.5036 21.8341 12.0022 21.3327 12.0022 20.4616C12.0022 19.5904 11.5008 19.089 10.6296 19.089C9.75849 19.089 9.25709 19.5904 9.25709 20.4616ZM10.6296 19.6492C10.0666 19.6492 9.81731 19.8985 9.81731 20.4616C9.81731 21.0246 10.0666 21.2739 10.6296 21.2739C11.1927 21.2739 11.442 21.0246 11.442 20.4616C11.442 19.8985 11.1927 19.6492 10.6296 19.6492ZM14.7193 20.4616C14.7193 21.3327 15.2207 21.8341 16.0918 21.8341C16.9658 21.8341 17.4644 21.3327 17.4644 20.4616C17.4644 19.5904 16.963 19.089 16.0918 19.089C15.2207 19.089 14.7193 19.5904 14.7193 20.4616ZM16.0918 19.6492C15.5288 19.6492 15.2795 19.8985 15.2795 20.4616C15.2795 21.0246 15.5288 21.2739 16.0918 21.2739C16.6548 21.2739 16.9041 21.0246 16.9041 20.4616C16.9041 19.8985 16.6548 19.6492 16.0918 19.6492ZM11.1787 3.85933C11.1787 3.0386 11.4952 2.71647 12.3019 2.71647H16.0526C16.8705 2.71647 17.1759 3.0246 17.1759 3.85933V11.3887C17.1759 11.8117 17.089 12.1058 16.921 12.2767C16.7529 12.4476 16.4672 12.5316 16.0526 12.5316H12.3019C11.8873 12.5316 11.6044 12.4504 11.4336 12.2767C11.2627 12.103 11.1787 11.8117 11.1787 11.3887V3.85933ZM13.5876 10.9126C13.5876 10.5092 13.8173 10.3215 14.1759 10.3215C14.5344 10.3215 14.7669 10.5092 14.7641 10.9126C14.7641 11.1086 14.7109 11.2515 14.6156 11.3495C14.512 11.456 14.3607 11.5064 14.1759 11.5064C13.991 11.5064 13.8397 11.456 13.7361 11.3495C13.6408 11.2515 13.5876 11.1058 13.5876 10.9126Z" fill="#313235"/>
</svg>
