<svg width="24" height="24" viewBox="0 0 24 24" fill="none" xmlns="http://www.w3.org/2000/svg">
<path fill-rule="evenodd" clip-rule="evenodd" d="M19.3439 20.1862H4.55121C3.22908 20.1862 2.15625 19.1106 2.15625 17.7913V6.19183C2.15625 4.8697 3.23188 3.79688 4.55121 3.79688H19.428C20.7501 3.79688 21.8229 4.87251 21.8229 6.19183V7.84941C21.8248 7.86243 21.8257 7.87575 21.8257 7.88931C21.8257 7.90273 21.8248 7.91591 21.8229 7.92879V17.7072C21.8229 19.0742 20.7109 20.1862 19.3439 20.1862ZM21.2711 8.16662V17.7072C21.2711 18.7689 20.4056 19.6344 19.3439 19.6344H4.55121C3.5344 19.6344 2.70807 18.8081 2.70807 17.7913V8.16662H21.2711ZM21.2711 7.612H2.70807V6.19183C2.70807 5.17503 3.5344 4.3487 4.55121 4.3487H19.428C20.4448 4.3487 21.2711 5.17503 21.2711 6.19183V7.612ZM10.2347 16.7184C10.2347 16.598 10.2571 16.486 10.3047 16.3851C10.3523 16.2843 10.4448 16.1498 10.582 15.9817L11.9462 14.3151C12.2935 13.8865 12.5372 13.5392 12.6745 13.2675C12.8145 12.9986 12.8817 12.7296 12.8817 12.4635C12.8817 12.105 12.7753 11.8473 12.5596 11.696C12.3467 11.542 12.0274 11.4663 11.6044 11.4663C11.1871 11.4663 10.7697 11.5112 10.3551 11.598V11.0322C10.7949 10.9229 11.2459 10.8669 11.7109 10.8669C12.3719 10.8669 12.8621 11.0126 13.1871 11.3011C13.4868 11.5672 13.638 11.9425 13.638 12.4299C13.638 12.6736 13.6044 12.8977 13.5344 13.1022C13.4644 13.3067 13.3495 13.528 13.1871 13.7661C13.0246 14.0042 12.7893 14.3039 12.484 14.668L11.0582 16.3459H13.7417V16.9201H10.2683C10.2459 16.8473 10.2347 16.7829 10.2347 16.7184ZM7.59042 6.52797C7.42236 6.52797 7.2851 6.47755 7.18986 6.37951C7.09743 6.28427 7.04981 6.14982 7.04981 5.98455C7.04981 5.64281 7.25149 5.43833 7.59323 5.43833C7.93496 5.43833 8.13664 5.64281 8.13664 5.98455C8.13664 6.14982 8.08902 6.28427 7.99659 6.37951C7.89575 6.47475 7.75849 6.52797 7.59042 6.52797ZM16.3439 6.52797C16.1759 6.52797 16.0386 6.47755 15.9434 6.37951C15.8509 6.28427 15.8033 6.14982 15.8033 5.98455C15.8033 5.64281 16.005 5.43833 16.3467 5.43833C16.5064 5.43833 16.6408 5.48595 16.7361 5.57559C16.8369 5.67363 16.8901 5.81088 16.8901 5.98455C16.8901 6.14982 16.8425 6.28427 16.7501 6.37951C16.6492 6.47475 16.512 6.52797 16.3439 6.52797Z" fill="#313235"/>
</svg>
