<svg width="24" height="24" viewBox="0 0 24 24" fill="none" xmlns="http://www.w3.org/2000/svg">
<path fill-rule="evenodd" clip-rule="evenodd" d="M14.8978 21.201C15.9685 21.627 16.9523 21.84 17.8072 21.84C18.5976 21.84 19.2759 21.6578 19.8057 21.2934L19.8197 21.2822L19.8421 21.2654C20.1953 21.0075 20.47 20.7805 20.6578 20.5843C22.2358 18.9334 22.233 17.2964 20.655 15.7156C20.3635 15.4185 20.0355 15.1606 19.6796 14.9476C18.0034 13.9077 16.5823 14.7598 15.6826 15.6567C15.5172 15.8193 15.3631 15.9931 15.2229 16.1753C14.8669 16.4752 14.1242 16.08 13.558 15.6932C12.6302 15.0569 11.5455 14.0058 10.8083 13.2686L10.7214 13.1817C9.98706 12.4474 8.93316 11.3598 8.2969 10.432C7.9101 9.86864 7.51489 9.12306 7.8148 8.76708C7.99699 8.62413 8.17077 8.47277 8.33334 8.3074C9.23308 7.41046 10.0852 5.98656 9.04248 4.3104C8.82945 3.95162 8.57159 3.62648 8.27448 3.33497C6.69363 1.75691 5.05673 1.75411 3.40581 3.33217C3.21241 3.51716 2.98257 3.79185 2.7275 4.14783L2.71068 4.17025C2.70788 4.17305 2.70228 4.17866 2.69947 4.18426C1.93708 5.28862 1.96791 7.03206 2.79197 9.09222C3.67489 11.3094 5.40149 13.7395 7.78397 16.122V16.1248L7.86525 16.2061L7.86805 16.2089C10.2505 18.5886 12.6807 20.3152 14.8978 21.201ZM15.1052 20.6796C12.9582 19.8247 10.5953 18.1401 8.26607 15.8137L8.22963 15.7716L8.22402 15.766L8.18198 15.724C5.85276 13.3975 4.171 11.0319 3.31331 8.88481C2.92931 7.9262 2.7275 7.04888 2.71349 6.27806C2.69947 5.5549 2.85083 4.96068 3.15915 4.50941C3.16476 4.49819 3.17317 4.48698 3.18438 4.47297C3.41982 4.14783 3.62444 3.89836 3.79541 3.73579C4.53258 3.03225 5.2221 2.6931 5.8976 2.70431C6.55068 2.71552 7.19816 3.05187 7.87366 3.72738C8.13713 3.98525 8.36697 4.27396 8.55477 4.59069L8.56037 4.5991C8.89392 5.13727 9.01725 5.67823 8.92756 6.21079C8.83226 6.77419 8.49591 7.34599 7.93252 7.90938C7.78116 8.06354 7.61859 8.20649 7.44481 8.33823C7.43436 8.3445 7.42702 8.35234 7.41932 8.36056C7.41669 8.36337 7.41403 8.36621 7.41118 8.36906C6.44417 9.42017 8.23804 11.4915 10.3234 13.5769L10.4103 13.6638C12.4957 15.7492 14.567 17.5431 15.6181 16.5761C15.6293 16.5649 15.6405 16.5537 15.649 16.5425C15.7807 16.3715 15.9236 16.2089 16.0778 16.0547C16.644 15.4885 17.213 15.155 17.7764 15.0597C18.3089 14.97 18.8527 15.0933 19.388 15.4269L19.3965 15.4325C19.7132 15.6231 20.0019 15.8501 20.2598 16.1136C20.9353 16.7891 21.2716 17.4366 21.2828 18.0897C21.294 18.7708 20.9577 19.4603 20.2542 20.1975C20.0916 20.3657 19.8449 20.5731 19.517 20.8085L19.4805 20.8338C19.0293 21.1449 18.4351 21.2934 17.7119 21.2794C16.9411 21.2626 16.0638 21.0636 15.1052 20.6796Z" fill="#313235"/>
</svg>
