<svg width="24" height="24" viewBox="0 0 24 24" fill="none" xmlns="http://www.w3.org/2000/svg">
<path fill-rule="evenodd" clip-rule="evenodd" d="M24 12.0034C24 3.82812 19.5777 0 11.9966 0C4.41548 0 0 3.82812 0 12.0034C0 20.1787 4.41548 24 11.9966 24C19.5777 24 24 20.1787 24 12.0034ZM11.9966 22.9994C19.2977 22.9994 22.9994 19.3011 22.9994 12.0034C22.9994 4.70233 19.2977 1.00057 11.9966 1.00057C4.69892 1.00057 1.00057 4.70233 1.00057 12.0034C1.00057 19.3011 4.69892 22.9994 11.9966 22.9994ZM16.8458 7.15083C17.0404 7.34548 17.0404 7.66306 16.8458 7.85771L12.7001 12.0034L16.8458 16.1525C17.037 16.3506 17.0336 16.6682 16.8321 16.8594C16.6374 17.0472 16.3301 17.0472 16.1389 16.8594L11.9932 12.7103L7.85771 16.8458C7.66306 17.0404 7.34548 17.0404 7.15083 16.8458C6.95618 16.6511 6.95618 16.3369 7.15083 16.1389L11.2863 12.0034L7.15083 7.87137C6.95618 7.67672 6.95618 7.36255 7.15083 7.16448C7.34548 6.96984 7.65965 6.96984 7.85771 7.16448L11.9932 11.2999L16.1423 7.15083C16.3369 6.95618 16.6511 6.95618 16.8458 7.15083Z" fill="#313235"/>
</svg>
