<svg width="24" height="24" viewBox="0 0 24 24" fill="none" xmlns="http://www.w3.org/2000/svg">
<path fill-rule="evenodd" clip-rule="evenodd" d="M19.3869 8.07502C19.3869 8.01619 19.3757 7.96297 19.3533 7.91255C19.3225 7.7893 19.2721 7.67446 19.1824 7.58482L13.8239 2.34953C13.6978 2.22628 13.5242 2.15625 13.3449 2.15625H5.84349C5.20763 2.15625 4.625 2.73048 4.625 3.36073V9.13104L4.66702 17.2739L4.625 20.638C4.625 21.2795 5.19363 21.8425 5.84349 21.8425H18.1684C18.8295 21.8425 19.3869 21.2907 19.3869 20.638V8.07502ZM18.1656 21.0162C18.3729 21.0162 18.5662 20.8313 18.5662 20.638V8.75849H16.0228C15.0508 8.75849 14.2132 8.44196 13.5998 7.84252C12.9835 7.24028 12.6586 6.41395 12.6586 5.45877V2.98538H5.84069C5.65861 2.98538 5.44013 3.18986 5.44013 3.36353V9.12544L5.48214 17.2739L5.44013 20.6408C5.44013 20.8229 5.64181 21.0134 5.84069 21.0134H18.1656V21.0162ZM18.3533 7.92936L13.4765 3.16465V5.45597C13.4765 6.18426 13.7146 6.80331 14.1684 7.24589C14.625 7.69126 15.2665 7.92936 16.02 7.92936H18.3533ZM14.7034 17.9574L15.597 18.2879L14.3421 15.5344C13.8603 15.9742 13.202 16.2207 12.3981 16.2935L13.709 19.1731L14.0424 18.2627C14.1432 17.9938 14.4401 17.8593 14.7034 17.9574ZM11.1516 16.2767L9.83228 19.1703L9.49895 18.2599C9.39811 17.9966 9.10119 17.8593 8.84069 17.9574L7.94433 18.2935L9.28326 15.3551C9.73144 15.8565 10.3561 16.1647 11.1516 16.2767ZM11.8939 10.0694C9.99195 10.0694 9.10399 10.9658 9.10399 12.8901C9.10399 14.8145 9.98915 15.7081 11.8939 15.7081C13.7987 15.7081 14.6838 14.8117 14.6838 12.8901C14.6838 10.9658 13.7987 10.0694 11.8939 10.0694ZM16.2553 18.2543L14.7819 15.0162C15.1208 14.4812 15.3001 13.7753 15.3001 12.8957C15.3001 10.554 14.048 9.45597 11.8967 9.45597C9.74545 9.45597 8.49335 10.5512 8.49335 12.8957C8.49335 13.652 8.63901 14.2655 8.88831 14.7669C8.88604 14.7703 8.88285 14.7737 8.87948 14.7773C8.87454 14.7826 8.86923 14.7882 8.8659 14.7949L7.28606 18.2599C7.20483 18.4392 7.23004 18.6464 7.35329 18.8033C7.47654 18.9574 7.66982 19.0302 7.90231 18.9714L8.95833 18.5792L9.3701 19.6857C9.46253 19.8537 9.6334 19.9602 9.82388 19.9602H9.83788C10.034 19.9518 10.2076 19.8369 10.2889 19.6576L11.7707 16.4056L13.2525 19.6549C13.3365 19.8369 13.5102 19.9518 13.7062 19.9574H13.7202C13.9079 19.9574 14.0816 19.8509 14.188 19.6436L14.583 18.5736L15.6782 18.977C15.8659 19.019 16.0648 18.9518 16.188 18.7977C16.3113 18.6436 16.3393 18.4364 16.2553 18.2543ZM11.3337 12.5148L10.7707 12.6044L11.2104 13.089C11.2805 13.1591 11.3141 13.2739 11.2973 13.3719L11.1936 14.0134L11.7454 13.7305C11.7903 13.7053 11.8435 13.6913 11.8967 13.6913C11.9303 13.6913 11.9639 13.6969 11.9947 13.7081L12.5886 14.033L12.4905 13.3719C12.4737 13.2739 12.5102 13.1591 12.5802 13.089L13.02 12.638L12.4065 12.512C12.3085 12.498 12.216 12.428 12.1712 12.3383L11.8967 11.7501L11.6138 12.3327C11.5662 12.4392 11.4541 12.5148 11.3337 12.5148ZM10.3309 13.075L10.667 13.4196L10.5886 13.9126C10.5494 14.1591 10.6474 14.3999 10.8463 14.54C10.9527 14.6156 11.0788 14.6549 11.202 14.6549C11.3029 14.6549 11.4065 14.6296 11.4989 14.5792L11.8995 14.3551L12.3001 14.5764C12.4989 14.6857 12.7567 14.6717 12.9499 14.5372C13.1488 14.3943 13.2468 14.1534 13.2076 13.9098L13.1264 13.4196L13.4625 13.0722C13.6306 12.8985 13.6866 12.6464 13.611 12.4168C13.5354 12.1899 13.3449 12.0274 13.1152 11.991L12.6614 11.9238L12.4541 11.4812C12.244 11.0358 11.5438 11.0386 11.3365 11.4812L11.132 11.921L10.6782 11.991C10.4457 12.0274 10.2553 12.1899 10.1824 12.4168C10.1068 12.6492 10.16 12.8985 10.3309 13.075Z" fill="#313235"/>
</svg>
