<svg width="24" height="24" viewBox="0 0 24 24" fill="none" xmlns="http://www.w3.org/2000/svg">
<path fill-rule="evenodd" clip-rule="evenodd" d="M20.3271 20.2055H11.7081C11.1899 20.2055 10.8929 19.9057 10.8929 19.3847V4.58642C10.8929 4.07661 11.1899 3.7853 11.7053 3.78249C12.1773 3.77993 16.3359 3.78206 17.071 3.78244L17.1815 3.78249C17.2571 3.78249 17.3271 3.81331 17.3803 3.86373L21.7501 8.23348C21.7714 8.25475 21.7886 8.27871 21.8016 8.30464C21.8224 8.34367 21.8341 8.38811 21.8341 8.43516C21.8341 8.44857 21.8332 8.46177 21.8313 8.47469V19.4099C21.8313 19.5892 21.8173 19.7965 21.6997 19.959C21.582 20.1214 21.3943 20.2055 21.1366 20.2055H20.3271ZM21.2711 8.71527V19.4099C21.2711 19.5668 21.2515 19.6172 21.2459 19.6312C21.2123 19.6424 21.1731 19.648 21.1366 19.6452H19.1562C18.484 19.6452 12.3663 19.6452 11.7109 19.648C11.5008 19.648 11.456 19.6004 11.456 19.3875V4.58922C11.456 4.40434 11.4896 4.34552 11.7081 4.34552H16.9041V6.25028C16.9041 7.77129 17.8481 8.71527 19.3691 8.71527H21.2711ZM20.8764 8.15504L17.4644 4.74074V6.25028C17.4644 7.46037 18.159 8.15504 19.3691 8.15504H20.8764ZM7.36633 7.92535C7.21227 7.92535 7.08622 7.7993 7.08622 7.64524C7.08622 7.56401 7.12264 7.48558 7.18426 7.43235C7.40057 7.24641 7.70299 6.98334 7.90173 6.80771H6.79771C6.07222 6.80771 5.5288 6.97857 5.17866 7.31471C4.81731 7.66205 4.63244 8.22227 4.63244 8.97577V9.8077C4.63524 9.96177 4.50919 10.0878 4.35513 10.0878C4.20107 10.0878 4.07502 9.96177 4.07502 9.8077V8.97577C4.07502 8.06541 4.31591 7.37073 4.7921 6.91135C5.24869 6.47157 5.92376 6.24748 6.79771 6.24748H7.90787C7.62006 5.9849 7.19098 5.61891 7.18426 5.61443C7.06661 5.51359 7.05261 5.33712 7.15345 5.21947C7.25429 5.10182 7.43076 5.08782 7.54841 5.18866C7.55274 5.19256 7.5724 5.20943 7.60343 5.23606L7.60362 5.23622L7.60374 5.23633C7.77338 5.38193 8.28095 5.81756 8.48678 6.02339C8.80891 6.34552 8.81171 6.71527 8.49238 7.03179C8.36914 7.15504 7.63244 7.7881 7.54841 7.85813C7.49799 7.90014 7.43356 7.92535 7.36633 7.92535ZM19.4027 11.424H13.3271C13.1731 11.424 13.047 11.2979 13.047 11.1438C13.047 10.9898 13.1731 10.8637 13.3271 10.8637H19.4027C19.5568 10.8637 19.6829 10.9898 19.6829 11.1438C19.6829 11.2979 19.5568 11.424 19.4027 11.424ZM19.4027 14.1606H13.3271C13.1731 14.1606 13.047 14.0346 13.047 13.8805C13.047 13.7265 13.1731 13.6004 13.3271 13.6004H19.4027C19.5568 13.6004 19.6829 13.7265 19.6829 13.8805C19.6829 14.0346 19.5568 14.1606 19.4027 14.1606ZM13.3271 16.9141H19.4027C19.5568 16.9141 19.6829 16.7881 19.6829 16.634C19.6829 16.48 19.5568 16.3539 19.4027 16.3539H13.3271C13.1731 16.3539 13.047 16.48 13.047 16.634C13.047 16.7881 13.1731 16.9141 13.3271 16.9141ZM5.48958 20.1859H2.72768C2.37474 20.1859 2.15625 19.9646 2.15625 19.6088V11.452C2.15625 11.1018 2.37474 10.8833 2.72768 10.8833H6.01619C6.05383 10.8833 6.08979 10.8909 6.12266 10.9045C6.15681 10.9185 6.1881 10.939 6.21507 10.9646L8.64364 13.3931C8.69687 13.4464 8.72488 13.5164 8.72488 13.592V19.6228C8.72488 19.9618 8.50639 20.1831 8.16465 20.1831L5.48958 20.1859ZM8.16465 13.8721V19.6256H2.71647V11.4464H5.73608V12.1354C5.73608 12.6957 5.88454 13.1326 6.18146 13.4268C6.47838 13.7209 6.91255 13.8721 7.47278 13.8721H8.16465ZM7.76689 13.3119L6.29631 11.8413V12.1354C6.29631 12.9478 6.66045 13.3119 7.47278 13.3119H7.76689ZM3.89855 15.578H6.99378C7.14785 15.578 7.2739 15.452 7.2739 15.2979C7.2739 15.1438 7.14785 15.0178 6.99378 15.0178H3.89855C3.74449 15.0178 3.61843 15.1438 3.61843 15.2979C3.61843 15.452 3.74449 15.578 3.89855 15.578ZM3.89855 17.0346H6.99378C7.14785 17.0346 7.2739 16.9085 7.2739 16.7545C7.2739 16.6004 7.14785 16.4744 6.99378 16.4744H3.89855C3.74449 16.4744 3.61843 16.6004 3.61843 16.7545C3.61843 16.9085 3.74449 17.0346 3.89855 17.0346ZM6.99378 18.4912H3.89855C3.74449 18.4912 3.61843 18.3651 3.61843 18.2111C3.61843 18.057 3.74449 17.931 3.89855 17.931H6.99378C7.14785 17.931 7.2739 18.057 7.2739 18.2111C7.2739 18.3651 7.14785 18.4912 6.99378 18.4912Z" fill="#313235"/>
</svg>
