<svg width="24" height="24" viewBox="0 0 24 24" fill="none" xmlns="http://www.w3.org/2000/svg">
<path fill-rule="evenodd" clip-rule="evenodd" d="M17.9266 3.61942C18.6829 3.61942 19.372 4.16003 19.372 4.75107V20.7147C19.372 21.3281 18.7109 21.8463 17.9294 21.8463H6.05268C5.27117 21.8463 4.61011 21.3281 4.61011 20.7147V4.75107C4.61011 4.16003 5.29918 3.61942 6.05268 3.61942H9.20395C9.62131 2.67264 10.5793 2.16003 11.9883 2.16003C13.7053 2.16003 14.4504 2.89953 14.7698 3.61942H17.9266ZM9.77537 4.75107C9.8314 3.52978 10.5345 2.96115 11.9883 2.96115C13.1591 2.96115 13.8482 3.34211 14.1003 4.12362C14.1675 4.35051 14.2039 4.583 14.2095 4.8183V4.94995C14.1983 5.29449 14.1815 5.76788 11.9911 5.76788C9.80058 5.76788 9.78378 5.29729 9.76977 4.90513L9.77537 4.75107ZM18.5597 4.75107V20.7147C18.5597 20.8239 18.2852 21.0452 17.9266 21.0452H6.04988C5.69414 21.0452 5.41963 20.8267 5.41963 20.7147V4.75107C5.41963 4.67264 5.68014 4.42054 6.04988 4.42054H8.99946C8.9957 4.44534 8.99154 4.46954 8.98741 4.49357C8.97614 4.55908 8.9651 4.62332 8.96305 4.69505L8.95745 4.78749V4.98076C9.00507 6.30009 10.2039 6.5718 11.9883 6.5718C13.7754 6.5718 14.9743 6.30009 15.0191 4.99757L15.0219 4.90513L15.0163 4.71466C15.0143 4.64288 15.0052 4.57395 14.9961 4.50482L14.9961 4.50472C14.9924 4.47675 14.9887 4.44876 14.9855 4.42054H17.9294C18.2964 4.42054 18.5597 4.66984 18.5597 4.75107ZM10.6801 4.69225C10.6829 4.91634 10.865 5.09281 11.0863 5.09281H12.8874C13.1115 5.09281 13.2936 4.91354 13.2936 4.69225C13.2936 4.47096 13.1115 4.29169 12.8874 4.29169H11.0863C10.8622 4.29169 10.6801 4.47096 10.6801 4.69225Z" fill="#313235"/>
</svg>
