<svg width="24" height="24" viewBox="0 0 24 24" fill="none" xmlns="http://www.w3.org/2000/svg">
<path d="M12.5686 12L17.8786 6.68143C18.034 6.5363 18.0408 6.29385 17.8957 6.13848C17.8905 6.13165 17.8837 6.12653 17.8786 6.1214C17.7335 5.96603 17.491 5.9592 17.3356 6.10433C17.3288 6.10945 17.3237 6.11628 17.3186 6.1214L12 11.4314L6.68143 6.1214C6.5363 5.96603 6.29385 5.9592 6.13848 6.10433C6.13165 6.10945 6.12653 6.11628 6.1214 6.1214C5.96603 6.26653 5.9592 6.50898 6.10433 6.66436C6.10945 6.67119 6.11628 6.67631 6.1214 6.68143L11.4314 12L6.1214 17.3186C5.96603 17.4637 5.9592 17.7061 6.10433 17.8615C6.10945 17.8684 6.11628 17.8735 6.1214 17.8786C6.19482 17.9554 6.29556 17.9998 6.40142 17.9981C6.50728 17.9998 6.60972 17.9554 6.68143 17.8786L12 12.5686L17.3186 17.8786C17.4637 18.034 17.7061 18.0408 17.8615 17.8957C17.8684 17.8905 17.8735 17.8837 17.8786 17.8786C18.034 17.7335 18.0408 17.491 17.8957 17.3356C17.8905 17.3288 17.8837 17.3237 17.8786 17.3186L12.5686 12Z" fill="#313235"/>
</svg>
