<svg width="24" height="24" viewBox="0 0 24 24" fill="none" xmlns="http://www.w3.org/2000/svg">
<path fill-rule="evenodd" clip-rule="evenodd" d="M13.596 6.29911C13.596 3.62684 15.0554 2.15625 17.7081 2.15625C20.3635 2.15625 21.8257 3.62964 21.8257 6.29631C21.8257 8.96297 20.3635 10.4336 17.7109 10.4336C17.1955 10.4336 16.7305 10.3635 16.3019 10.2543L12.4504 14.7193C12.3943 14.7837 12.3243 14.8257 12.2543 14.8677V19.2487L16.4252 21.0106C16.4812 21.0106 16.5372 21.0218 16.5904 21.0442C16.8005 21.1338 16.8985 21.3775 16.8089 21.5876C16.7193 21.7977 16.4756 21.8957 16.2655 21.8061L7.7697 21.8229C7.61283 21.8201 7.46717 21.7277 7.39995 21.5848C7.30191 21.3775 7.39154 21.131 7.59883 21.033L11.4336 19.2571V14.8845C11.4303 14.8827 11.427 14.8809 11.4237 14.879C11.3567 14.8416 11.2881 14.8032 11.2347 14.7445L4.96297 8.10583C4.73888 7.86773 4.67446 7.51479 4.80331 7.21227C4.92936 6.90975 5.22628 6.71087 5.55401 6.71087L7.07502 6.70247L5.47558 5.09463C5.39154 5.00779 5.2767 4.96017 5.15625 4.96017H2.56801C2.34112 4.96017 2.15625 4.7753 2.15625 4.54561C2.15625 4.31871 2.34112 4.13384 2.56801 4.13384H5.15065C5.48958 4.13384 5.81451 4.2711 6.05261 4.51199L8.16745 6.63804C8.17723 6.64945 8.18416 6.6618 8.19101 6.674C8.19593 6.68277 8.20081 6.69146 8.20667 6.69967L13.6128 6.67446C13.611 6.63416 13.6086 6.59417 13.6061 6.55398C13.6011 6.47125 13.596 6.38772 13.596 6.29911ZM17.7081 9.61003C17.4224 9.61003 17.1562 9.59042 16.907 9.55121L18.2011 8.04981C18.3411 7.90135 18.428 7.70247 18.428 7.48118C18.428 7.0246 18.0638 6.65485 17.61 6.65485H17.6016L14.4364 6.66886L14.4358 6.66111C14.4276 6.54056 14.4196 6.42246 14.4196 6.29631C14.4196 4.06661 15.4952 2.98258 17.7109 2.98258C19.9266 2.98258 21.005 4.06661 21.005 6.29631C21.005 8.5288 19.9266 9.61003 17.7081 9.61003ZM11.8285 14.1787L7.48398 9.57922H15.7893L15.7781 9.59603L11.8285 14.1787ZM11.8509 19.977L9.65205 20.9938C9.65205 20.9938 14.2347 20.9882 14.2375 20.9854L11.8509 19.977ZM17.6044 7.48118L16.5092 8.75009H6.97978C6.90415 8.75289 6.83132 8.7753 6.76689 8.81731L5.55681 7.5344C5.55681 7.5372 17.6044 7.48118 17.6044 7.48118Z" fill="#313235"/>
</svg>
