<svg width="24" height="24" viewBox="0 0 24 24" fill="none" xmlns="http://www.w3.org/2000/svg">
<path fill-rule="evenodd" clip-rule="evenodd" d="M9.92656 11.2683C8.50919 11.2683 7.39154 10.8845 6.60723 10.131C5.7893 9.34393 5.37474 8.19547 5.37474 6.71927C5.37474 5.24308 5.7893 4.09463 6.60443 3.30471C7.38874 2.5428 8.50919 2.15625 9.92656 2.15625C11.3439 2.15625 12.4644 2.5428 13.2515 3.29911C14.0722 4.08902 14.4868 5.24028 14.4868 6.71647C14.4868 8.19266 14.0722 9.34112 13.2487 10.1282C12.4644 10.8845 11.3467 11.2683 9.92656 11.2683ZM6.19266 6.71647C6.19266 5.46998 6.5232 4.5204 7.17306 3.89014C7.80051 3.2823 8.72768 2.97418 9.92656 2.97418C11.1282 2.97418 12.0554 3.2823 12.6857 3.89014C13.3411 4.51759 13.6717 5.47278 13.6717 6.71647C13.6717 7.96017 13.3411 8.91255 12.6857 9.5372C12.0554 10.1422 11.1282 10.4476 9.92656 10.4476C8.72768 10.4476 7.80051 10.1422 7.17306 9.5372C6.5232 8.91255 6.19266 7.96297 6.19266 6.71647ZM21.8229 21.4532C21.8341 21.2263 21.6605 21.0358 21.4336 21.0246H8.85933C8.63244 21.0246 8.45037 21.2067 8.45037 21.4336C8.45037 21.6605 8.63244 21.8425 8.85933 21.8425H21.4336C21.6436 21.8341 21.8145 21.6661 21.8229 21.4532ZM3.0358 18.7193C3.00219 18.7193 2.97418 18.6913 2.97418 18.6576L2.97698 17.2767C2.97698 16.0666 3.34953 15.0386 4.05261 14.3047C4.82012 13.5036 5.97698 13.0806 7.39995 13.0806H8.55121C8.48958 13.3047 8.45317 13.5512 8.45317 13.8285V18.089C8.45317 18.3019 8.47558 18.512 8.5204 18.7193H3.0358ZM10.5988 12.5232C10.1198 12.5232 9.7753 12.6296 9.56801 12.8369C9.51199 12.8957 9.46437 12.963 9.42796 13.0358V13.0806H9.40835C9.31872 13.2739 9.26829 13.5204 9.26829 13.8285V18.089C9.26829 18.5484 9.36914 18.8845 9.56801 19.0918C9.7725 19.3047 10.117 19.4112 10.5932 19.4112L19.6576 19.4056C20.1338 19.4056 20.4784 19.2991 20.6857 19.0862C20.8845 18.8789 20.9854 18.54 20.9854 18.0806V13.8257C20.9854 13.3691 20.8845 13.0358 20.6857 12.8341C20.4812 12.624 20.1366 12.5204 19.6576 12.5204C19.6633 12.5176 10.5988 12.5232 10.5988 12.5232ZM8.83972 19.5372V19.4728C8.85688 19.496 8.87331 19.5196 8.88954 19.5429C8.91835 19.5842 8.94652 19.6246 8.97698 19.6605C9.34392 20.0386 9.88734 20.2319 10.5932 20.2319L19.6576 20.2263C20.3663 20.2263 20.9098 20.033 21.2739 19.6549C21.624 19.2907 21.8033 18.7613 21.8033 18.0834V13.8229C21.8033 13.1478 21.6268 12.6184 21.2739 12.2599C20.9098 11.8873 20.3663 11.6997 19.6605 11.6997L10.596 11.7053C9.89014 11.7053 9.34673 11.8929 8.98258 12.2655H7.39435C5.74449 12.2655 4.38314 12.7753 3.45597 13.7417C2.60723 14.6296 2.15625 15.8537 2.15625 17.2795V18.6576C2.15625 19.1422 2.55121 19.5372 3.0386 19.5372H8.83972Z" fill="#313235"/>
</svg>
