<svg width="24" height="24" viewBox="0 0 24 24" fill="none" xmlns="http://www.w3.org/2000/svg">
<path fill-rule="evenodd" clip-rule="evenodd" d="M13.9623 5.69995H14.9988C15.307 5.69995 15.5591 5.95058 15.5563 6.2569V6.99485C15.7524 7.03662 15.9429 7.09788 16.1278 7.17307L16.6124 6.69131C16.8309 6.4741 17.1867 6.4741 17.4052 6.69131L18.142 7.42091C18.3605 7.63812 18.3605 7.99178 18.142 8.20899L17.6574 8.69074C17.733 8.87453 17.7918 9.06389 17.8367 9.25883H18.579C18.8872 9.25883 19.1393 9.50945 19.1393 9.81577V10.8461C19.1393 11.1524 18.8872 11.4031 18.579 11.4031H17.8367C17.7946 11.598 17.733 11.7874 17.6574 11.9711L18.142 12.4529C18.2424 12.5527 18.2966 12.6812 18.3048 12.8121H19.9714C21.0023 12.8121 21.8399 13.6448 21.8399 14.6695V16.6773C21.8399 17.7021 21.0023 18.5347 19.9714 18.5347H4.02846C2.99754 18.5347 2.15991 17.7021 2.15991 16.6773V14.6695C2.15991 13.6448 2.99754 12.8121 4.02846 12.8121H10.6589C10.6665 12.6803 10.7208 12.5506 10.8219 12.4501L11.3065 11.9684C11.2309 11.7846 11.1721 11.5952 11.1272 11.4003H10.3849C10.0767 11.4003 9.82458 11.1497 9.82458 10.8433V9.81299C9.82458 9.50667 10.0767 9.25604 10.3849 9.25604H11.1272C11.1693 9.06111 11.2309 8.87175 11.3065 8.68796L10.8219 8.2062C10.6034 7.98899 10.6034 7.63533 10.8219 7.41812L11.5531 6.69131C11.7716 6.4741 12.1274 6.4741 12.3459 6.69131L12.8305 7.17307C13.0154 7.09788 13.2059 7.0394 13.402 6.99485V6.2569C13.402 5.95058 13.6541 5.69995 13.9623 5.69995ZM17.408 13.9678L18.0127 13.3691H19.9714C20.6941 13.3691 21.2796 13.9511 21.2796 14.6695V16.6773C21.2796 17.3958 20.6941 17.9778 19.9714 17.9778H4.02846C3.30569 17.9778 2.7202 17.3958 2.7202 16.6773V14.6695C2.7202 13.9511 3.30569 13.3691 4.02846 13.3691H10.9536L11.5531 13.965C11.7716 14.1822 12.1274 14.1822 12.3459 13.965L12.8305 13.486C13.0154 13.5612 13.2059 13.6225 13.402 13.6643V14.4022C13.402 14.7085 13.6541 14.9592 13.9623 14.9592H14.9988C15.307 14.9592 15.5591 14.7085 15.5591 14.4022V13.6643C15.7552 13.6197 15.9457 13.5612 16.1306 13.486L16.6152 13.9678C16.8337 14.185 17.1895 14.185 17.408 13.9678ZM14.9988 6.2569V7.46546C15.4807 7.51837 15.8981 7.64369 16.2426 7.84976L17.013 7.08396L17.747 7.81077L16.9766 8.57657C17.1811 8.91074 17.3128 9.32287 17.3632 9.81299H18.579V10.8433H17.3632C17.31 11.3334 17.1783 11.7456 16.9766 12.0797L17.747 12.8455L17.013 13.5724L16.2426 12.8066C15.8981 13.0126 15.4835 13.1407 14.9988 13.1909V14.3994H13.9623V13.1909C13.4804 13.1379 13.063 13.0126 12.7185 12.8066L11.9481 13.5724L11.2169 12.8455L11.9873 12.0797C11.7828 11.7456 11.6511 11.3334 11.6007 10.8433H10.3849V9.81299H11.5979C11.6511 9.32287 11.7828 8.91074 11.9845 8.57657L11.2169 7.81077L11.9481 7.08396L12.7185 7.84976C13.063 7.64369 13.4776 7.51559 13.9623 7.46546V6.2569H14.9988ZM19.369 16.5743C19.369 16.9001 19.1029 17.1647 18.7751 17.1647H16.1194C15.7916 17.1647 15.5255 16.9001 15.5255 16.5743C15.5255 16.2485 15.7916 15.9839 16.1194 15.9839H18.7751C19.1029 15.9839 19.369 16.2485 19.369 16.5743ZM4.94663 16.9078C5.19882 16.9078 5.40326 16.7045 5.40326 16.4538C5.40326 16.2032 5.19882 15.9999 4.94663 15.9999C4.69444 15.9999 4.49 16.2032 4.49 16.4538C4.49 16.7045 4.69444 16.9078 4.94663 16.9078ZM7.09326 16.4538C7.09326 16.7045 6.88882 16.9078 6.63663 16.9078C6.38444 16.9078 6.18 16.7045 6.18 16.4538C6.18 16.2032 6.38444 15.9999 6.63663 15.9999C6.88882 15.9999 7.09326 16.2032 7.09326 16.4538ZM8.27663 16.9078C8.52882 16.9078 8.73326 16.7045 8.73326 16.4538C8.73326 16.2032 8.52882 15.9999 8.27663 15.9999C8.02444 15.9999 7.82 16.2032 7.82 16.4538C7.82 16.7045 8.02444 16.9078 8.27663 16.9078ZM14.4806 8.32594C13.8615 8.32594 13.3712 8.49581 13.0183 8.83276C12.6513 9.18364 12.4664 9.68767 12.4664 10.3282C12.4664 10.9686 12.6513 11.4699 13.0183 11.8236C13.3712 12.1605 13.8615 12.3304 14.4806 12.3304C15.0997 12.3304 15.59 12.1605 15.9401 11.8236C16.3071 11.4727 16.492 10.9686 16.492 10.3282C16.492 9.68767 16.3071 9.18642 15.9401 8.83276C15.5872 8.4986 15.0969 8.32594 14.4806 8.32594ZM14.4806 8.88289C15.4023 8.88289 15.9345 9.33958 15.9345 10.3282C15.9345 11.3167 15.4023 11.7734 14.4806 11.7734C13.5589 11.7734 13.0267 11.3167 13.0267 10.3282C13.0267 9.33958 13.5589 8.88289 14.4806 8.88289Z" fill="#313235"/>
</svg>
