<svg width="24" height="24" viewBox="0 0 24 24" fill="none" xmlns="http://www.w3.org/2000/svg">
<path fill-rule="evenodd" clip-rule="evenodd" d="M17.757 21.8341H10.5721C9.54692 21.8341 8.81022 21.5932 8.32283 21.1002C7.83543 20.6072 7.60294 19.8621 7.60294 18.8229V15.0134H7.38725C7.07913 15.0134 6.82703 14.7613 6.82703 14.4532V13.7109C6.63095 13.6689 6.44048 13.6072 6.2556 13.5316L5.77101 14.0162C5.55252 14.2347 5.19678 14.2347 4.97829 14.0162L4.2444 13.2851C4.02591 13.0666 4.02591 12.7109 4.2444 12.4924L4.72899 12.0078C4.65336 11.8229 4.59454 11.6324 4.54972 11.4364H3.81022C3.5021 11.4364 3.25 11.1843 3.25 10.8761V9.83972C3.25 9.5316 3.5021 9.2795 3.81022 9.2795H4.55252C4.59454 9.08342 4.65616 8.89294 4.73179 8.70807L4.2472 8.22348C4.02871 8.00499 4.02871 7.64925 4.2472 7.43076L4.98109 6.69687C5.19958 6.47838 5.55532 6.47838 5.77381 6.69687L6.2584 7.18146C6.44328 7.10583 6.63375 7.04701 6.82983 7.00219V6.25989C6.82983 5.95177 7.08193 5.69967 7.39006 5.69967H7.60294V5.16745C7.60294 3.11423 8.54692 2.15625 10.5721 2.15625H17.757C19.7542 2.15625 20.7262 3.14224 20.7262 5.16745V18.8229C20.7262 19.8621 20.4909 20.6072 20.0035 21.1002C19.5161 21.5932 18.7822 21.8341 17.757 21.8341ZM8.16317 18.8229V15.0134H8.42367C8.73179 15.0134 8.98389 14.7613 8.98389 14.4532V13.7109C9.17997 13.6661 9.37045 13.6072 9.55532 13.5316L10.0399 14.0162C10.2584 14.2347 10.6141 14.2347 10.8326 14.0162L11.5637 13.2851C11.7822 13.0666 11.7822 12.7109 11.5637 12.4924L11.0791 12.0078C11.1548 11.8229 11.2164 11.6324 11.2584 11.4364H12.0007C12.3088 11.4364 12.5609 11.1843 12.5609 10.8761V9.83972C12.5609 9.5316 12.3088 9.2795 12.0007 9.2795H11.2584C11.2136 9.08342 11.1548 8.89294 11.0791 8.70807L11.5637 8.22348C11.7822 8.00499 11.7822 7.64925 11.5637 7.43076L10.8326 6.69967C10.6141 6.48118 10.2584 6.48118 10.0399 6.69967L9.55532 7.18426C9.37045 7.10863 9.17997 7.04701 8.98389 7.00499V6.26269C8.98669 5.95177 8.73459 5.69967 8.42647 5.69967H8.16317V5.16745C8.16317 3.42516 8.86064 2.71647 10.5721 2.71647H17.757C19.4461 2.71647 20.166 3.45037 20.166 5.16745V18.8229C20.166 19.7081 19.9811 20.3243 19.6057 20.7081C19.2304 21.0918 18.6253 21.2767 17.757 21.2767H10.5721C9.70378 21.2767 9.10154 21.0918 8.72339 20.7081C8.34524 20.3243 8.16317 19.7081 8.16317 18.8229ZM8.42647 6.25989V7.47558C8.90826 7.5288 9.32563 7.65485 9.67017 7.86213L10.4405 7.09182L11.1716 7.82292L10.4013 8.59322C10.6057 8.92936 10.7374 9.34393 10.7878 9.83692H12.0035V10.8733H10.7878C10.7346 11.3663 10.6029 11.7809 10.4013 12.117L11.1716 12.8873L10.4405 13.6212L9.67017 12.8509C9.32563 13.0582 8.91106 13.1871 8.42647 13.2375V14.4532H7.39006V13.2375C6.90826 13.1843 6.4909 13.0582 6.14636 12.8509L5.37605 13.6212L4.64216 12.8873L5.41247 12.117C5.20798 11.7809 5.07913 11.3663 5.02591 10.8733H3.81022V9.83692H5.02591C5.07913 9.34393 5.21078 8.92936 5.41247 8.59322L4.64496 7.82292L5.37885 7.09182L6.14916 7.86213C6.4937 7.65485 6.90826 7.526 7.39286 7.47558V6.25989H8.42647ZM14.166 17.8257C14.6702 17.8257 14.9979 18.0918 14.9979 18.6605C14.9979 18.935 14.9223 19.1366 14.7878 19.2739C14.6422 19.4224 14.4293 19.4952 14.166 19.4952C13.9027 19.4952 13.6898 19.4224 13.5441 19.2739C13.4097 19.1366 13.334 18.9322 13.334 18.6605C13.334 18.0918 13.6618 17.8257 14.166 17.8257ZM7.90826 12.089C6.79062 12.089 6.17437 11.4728 6.17437 10.3551C6.17437 9.23748 6.79062 8.62124 7.90826 8.62124C9.02591 8.62124 9.64216 9.23748 9.64216 10.3551C9.64216 11.4728 9.02591 12.089 7.90826 12.089ZM7.90826 9.18146C7.10714 9.18146 6.73459 9.55401 6.73459 10.3551C6.73459 11.1562 7.10714 11.5288 7.90826 11.5288C8.70938 11.5288 9.08193 11.1562 9.08193 10.3551C9.08193 9.55401 8.70938 9.18146 7.90826 9.18146Z" fill="#313235"/>
</svg>
