<svg width="24" height="24" viewBox="0 0 24 24" fill="none" xmlns="http://www.w3.org/2000/svg">
<path fill-rule="evenodd" clip-rule="evenodd" d="M4.24028 7.85862C4.2907 8.03229 4.44196 8.14434 4.61003 8.14434C4.64365 8.14434 4.68006 8.13874 4.71087 8.12753L18.9714 4.02109C19.1759 3.96227 19.2963 3.74658 19.2375 3.5393C19.1787 3.33201 18.9658 3.21437 18.7641 3.27039L13.6184 4.74938C13.6184 4.74938 13.5792 4.5561 13.5344 4.40204C13.2851 3.5365 12.4952 2.66535 11.0778 3.07151C9.66325 3.48047 9.42796 4.65414 9.66045 5.53089L9.70527 5.69336C9.71927 5.73538 9.73888 5.7942 9.76689 5.86423L4.50639 7.37683C4.30191 7.43285 4.18426 7.65134 4.24028 7.85862ZM11.2907 3.82501C10.2543 4.12193 10.2907 4.89504 10.4055 5.32921L10.442 5.46367L10.4454 5.4739C10.4582 5.5126 10.4837 5.58962 10.5092 5.64574L12.9126 4.95386C12.9126 4.95386 12.8481 4.77179 12.8061 4.62053C12.6801 4.19756 12.3243 3.52529 11.2907 3.82501ZM21.8369 15.8474C21.8369 14.3488 20.8005 13.8026 19.9126 13.797H19.9098L19.6913 13.7858C19.6941 13.6934 19.6941 12.6934 19.6941 12.3908C19.7809 12.332 19.8537 12.2732 19.9126 12.2172C20.1394 11.9931 20.4083 11.5897 20.4083 10.909C20.4083 10.2312 20.1394 9.82501 19.9126 9.60372C19.7669 9.45806 19.5372 9.2956 19.2095 9.20596C19.131 8.5477 18.8509 8.13874 18.61 7.90064C18.2179 7.51409 17.6857 7.31801 17.0274 7.31801C16.3663 7.31801 15.8369 7.51689 15.442 7.90064C15.3579 7.99028 15.2795 8.08271 15.2095 8.18636C14.6885 8.20596 14.2515 8.35442 13.9041 8.62893C13.6773 8.5421 13.3999 8.48608 13.0666 8.48608C12.6829 8.48608 12.3775 8.5589 12.1338 8.66535L12.1288 8.65944L12.1288 8.6594C12.1 8.62527 12.0733 8.59379 12.0442 8.56731C11.8089 8.33482 11.3747 8.0575 10.6689 8.0575C9.96297 8.0575 9.5288 8.33762 9.2935 8.57011C9.2851 8.58131 9.2739 8.59252 9.26269 8.60372C9.15625 8.58692 9.04701 8.57851 8.93496 8.57851C8.30191 8.57851 7.91535 8.82781 7.69967 9.0407C7.65765 9.08271 7.62124 9.12193 7.58482 9.16675C7.14224 9.21157 6.83972 9.37963 6.64645 9.5449C6.61843 9.5421 6.59323 9.5421 6.57082 9.5421C6.0246 9.5421 5.67726 9.75498 5.47838 9.94266C4.92376 9.95106 4.57642 10.1752 4.38594 10.3656C4.18146 10.5645 3.94056 10.9315 3.94056 11.5365V11.9174C3.94056 12.1247 4.019 12.3264 4.16465 12.4721C4.17914 12.4882 4.19732 12.4987 4.21602 12.5096C4.22986 12.5176 4.24398 12.5258 4.25709 12.5365V13.6878C4.25709 13.7144 4.25779 13.7298 4.25849 13.7452C4.25919 13.7606 4.25989 13.776 4.25989 13.8026C4.19547 13.7942 4.14785 13.7942 4.08342 13.7942H4.08062C3.19266 13.7998 2.15625 14.3432 2.15625 15.8446C2.15625 17.3432 3.19827 17.8922 4.08902 17.9062L4.25149 17.9034C4.30751 17.9034 4.39435 17.8978 4.5344 17.8782L4.73048 17.867C5.31872 19.8306 6.56801 21.0015 9.07502 21.0015C9.25989 21.0015 9.43076 20.9931 9.57642 20.9819H14.3551C14.5232 20.9931 14.6941 21.0043 14.8761 21.0043C15.0582 21.0043 15.2291 20.9959 15.3747 20.9847H15.5988C15.6492 20.9847 15.6997 20.9735 15.7445 20.9511C17.7025 20.7074 18.7221 19.5953 19.2291 17.8698C19.3523 17.881 19.6857 17.9062 19.7389 17.9062L19.9013 17.909C20.7949 17.895 21.8369 17.346 21.8369 15.8474ZM18.6717 11.8978C18.977 11.8978 19.2151 11.8166 19.3803 11.6541C19.5512 11.4861 19.638 11.2368 19.638 10.9118C19.638 10.5897 19.5512 10.3404 19.3803 10.1695C19.2151 10.0071 18.977 9.92585 18.6717 9.92585C18.658 9.92585 18.6436 9.92613 18.6291 9.92641L18.6291 9.92641C18.5516 9.92792 18.4688 9.92954 18.4476 9.88944C18.4243 9.84451 18.4346 9.78871 18.4468 9.72263C18.4551 9.67746 18.4644 9.6275 18.4644 9.57291C18.4644 9.09392 18.3355 8.72137 18.0778 8.47207C17.8313 8.23117 17.4812 8.10792 17.0274 8.10792C16.5736 8.10792 16.2207 8.23117 15.9798 8.47207C15.8621 8.58692 15.7753 8.72977 15.7137 8.89504C15.7025 8.92865 15.6941 8.95106 15.6605 8.97347C15.5995 9.01223 15.5301 9.00113 15.4546 8.98904C15.4155 8.98279 15.3748 8.97627 15.3327 8.97627C14.8817 8.97627 14.5288 9.09672 14.2823 9.33762C14.2067 9.41045 14.145 9.50008 14.0918 9.59532C14.0806 9.61773 14.0778 9.62333 14.0554 9.62613C14.0358 9.62613 14.0274 9.62053 14.0106 9.60372C13.7921 9.38804 13.4728 9.27879 13.0666 9.27879C12.6605 9.27879 12.3439 9.38804 12.1226 9.60372C12.0833 9.6431 12.0531 9.69474 12.023 9.74617L12.023 9.74624L12.023 9.74629C12.0124 9.76433 12.0019 9.78235 11.991 9.7998C11.991 9.7998 11.9462 9.85862 11.8649 9.83622C11.8033 9.82221 11.7781 9.74938 11.7781 9.74938C11.7389 9.50288 11.6633 9.2872 11.512 9.14154C11.3159 8.95106 11.0302 8.85022 10.6689 8.85022C10.3047 8.85022 10.0218 8.95106 9.82572 9.14154C9.75849 9.20877 9.70527 9.29 9.66045 9.37963L9.65205 9.39924C9.65205 9.39924 9.61003 9.46087 9.54 9.48327C9.49238 9.50008 9.44196 9.49728 9.41115 9.48888C9.3753 9.47784 9.33978 9.46511 9.30372 9.45219L9.3037 9.45218C9.1933 9.41261 9.07785 9.37123 8.93216 9.37123C8.62964 9.37123 8.39154 9.45246 8.22908 9.61493C8.18918 9.65365 8.16403 9.69532 8.13922 9.73644C8.10479 9.79348 8.07101 9.84946 7.99939 9.89504C7.93776 9.93426 7.87894 9.95106 7.79491 9.95106C7.49238 9.95106 7.25709 10.0323 7.09182 10.1948L7.07506 10.2116C7.01929 10.2678 6.96373 10.3239 6.88734 10.3544C6.82157 10.3791 6.7751 10.369 6.71734 10.3565L6.71733 10.3565C6.6767 10.3476 6.63048 10.3376 6.56801 10.3376C6.31591 10.3376 6.11984 10.4048 5.98538 10.5393C5.95961 10.5651 5.94165 10.5941 5.9241 10.6226C5.89588 10.6683 5.86871 10.7123 5.81171 10.7382C5.75256 10.7669 5.68996 10.7577 5.61952 10.7474C5.57989 10.7415 5.53777 10.7354 5.49238 10.7354C5.24308 10.7354 5.04701 10.8054 4.91255 10.9399C4.7725 11.0799 4.69967 11.2816 4.69967 11.5477V11.9287L7.7921 11.909H10.0274C10.0418 11.909 10.0547 11.9061 10.0672 11.9032C10.0791 11.9005 10.0908 11.8978 10.103 11.8978H11.6633C11.6746 11.899 11.6846 11.901 11.6945 11.9031L11.6946 11.9031C11.7091 11.9061 11.7234 11.909 11.7417 11.909H13.949L15.3327 11.9034H18.6717V11.8978ZM19.8929 17.1275C20.3327 17.1219 21.0722 16.9455 21.0722 15.8502C21.0722 14.755 20.3439 14.5841 19.9098 14.5813L19.6773 14.5701C19.6464 15.4973 19.5708 16.346 19.4252 17.1023C19.5064 17.1107 19.7221 17.1275 19.7585 17.1275H19.8929ZM18.9238 12.7046C18.921 13.1359 18.921 13.769 18.921 13.839C18.8845 18.2144 17.9686 19.9343 15.5456 20.1892C15.5204 20.192 15.4952 20.1976 15.47 20.206H15.3495C15.0442 20.2284 14.7389 20.2256 14.3803 20.206H9.55121L9.46282 20.211H9.46278H9.46275H9.46271H9.46268C9.33777 20.2182 9.21146 20.2256 9.07782 20.2256C6.07222 20.2256 5.04981 18.5729 5.0302 13.6906V12.7046H18.9238ZM4.40275 17.1135L4.4363 17.1119C4.47274 17.1103 4.50611 17.1088 4.5428 17.1023C4.38594 16.3236 4.31031 15.5281 4.2795 14.5701C4.22628 14.5757 4.16185 14.5785 4.09182 14.5785C3.65765 14.5813 2.92936 14.7522 2.92936 15.8474C2.92936 16.9427 3.66605 17.1191 4.10583 17.1247H4.24308C4.2823 17.1247 4.33552 17.1219 4.40275 17.1135Z" fill="#313235"/>
</svg>
