<svg width="24" height="24" viewBox="0 0 24 24" fill="none" xmlns="http://www.w3.org/2000/svg">
<path fill-rule="evenodd" clip-rule="evenodd" d="M18.5635 10.0778C18.5635 8.43636 17.8829 7.26829 16.6448 6.73328C16.6756 6.62124 16.698 6.50919 16.698 6.38874V3.40275C16.698 2.71647 16.135 2.15625 15.4431 2.15625H8.48792C7.79604 2.15625 7.23302 2.71367 7.23302 3.40275V6.38874C7.23302 6.526 7.26103 6.65485 7.30305 6.7809C6.98652 6.92656 6.6952 7.10023 6.45431 7.32992C5.77924 7.97418 5.4375 8.89855 5.4375 10.0778V18.1647C5.4375 19.3439 5.77924 20.2683 6.4487 20.9126C7.09576 21.5316 7.99772 21.8453 9.13778 21.8453H14.8773C17.2134 21.8453 18.5551 20.5036 18.5551 18.1675L18.5635 10.0778ZM8.05655 3.40275V6.38874C8.05655 6.62684 8.24983 6.82012 8.49072 6.82012H15.4459C15.684 6.82012 15.8801 6.62684 15.8801 6.38874V3.40275C15.8801 3.16465 15.6868 2.97138 15.4459 2.97138H8.48792C8.24983 2.97138 8.05655 3.16465 8.05655 3.40275ZM6.30305 9.48118C6.39268 8.82012 6.63078 8.29351 7.02574 7.91535C7.24142 7.70807 7.51593 7.55681 7.82125 7.43916C8.01453 7.56241 8.24142 7.63524 8.48792 7.63524H15.4431C15.7064 7.63524 15.9529 7.55401 16.1546 7.41395C17.0453 7.73048 17.5636 8.42236 17.7008 9.48118H6.30305ZM17.7316 18.1647L17.74 10.2991H6.26103V18.1647C6.26103 18.2232 6.26611 18.2766 6.27115 18.3296C6.27528 18.373 6.27938 18.4162 6.28064 18.4616H17.712C17.7141 18.4234 17.7175 18.3864 17.7208 18.3496L17.7208 18.3495L17.7208 18.3495C17.7262 18.2891 17.7316 18.229 17.7316 18.1647ZM14.8773 21.0274C16.3283 21.0274 17.2414 20.4224 17.5804 19.2767H6.41789C6.54394 19.6969 6.73722 20.0526 7.02013 20.3243C7.50753 20.7893 8.21901 21.0274 9.13778 21.0274H14.8773ZM9.32546 6.25709C9.09856 6.25709 8.91369 6.07502 8.91369 5.84813V3.94336C8.91369 3.71647 9.09856 3.5344 9.32546 3.5344C9.55235 3.5344 9.73722 3.71647 9.73722 3.94336V5.84813C9.73722 6.07222 9.55235 6.25709 9.32546 6.25709ZM10.6756 5.84813C10.6756 6.07502 10.8605 6.25709 11.0874 6.25709C11.3143 6.25709 11.4963 6.07222 11.4991 5.84813V3.94336C11.4991 3.71647 11.3143 3.5344 11.0874 3.5344C10.8605 3.5344 10.6756 3.71647 10.6756 3.94336V5.84813ZM12.8465 6.25709C12.6196 6.25709 12.4347 6.07502 12.4347 5.84813V3.94336C12.4347 3.71647 12.6196 3.5344 12.8465 3.5344C13.0734 3.5344 13.2582 3.71647 13.2582 3.94336V5.84813C13.2554 6.07222 13.0734 6.25709 12.8465 6.25709ZM14.1938 5.84813C14.1938 6.07502 14.3787 6.25709 14.6056 6.25709C14.8325 6.25709 15.0173 6.07222 15.0173 5.84813V3.94336C15.0173 3.71647 14.8325 3.5344 14.6056 3.5344C14.3787 3.5344 14.1938 3.71647 14.1938 3.94336V5.84813ZM9.24702 13.6072V14.8397C9.24702 14.8397 9.28064 14.8621 9.33106 14.8621H11.261V16.7641C11.261 16.8145 11.2862 16.8453 11.2946 16.8537H12.5355C12.5355 16.8472 12.5393 16.8399 12.544 16.8309C12.5513 16.8166 12.5607 16.7982 12.5607 16.7725L12.5523 14.8537H14.4739C14.5159 14.8537 14.5551 14.8201 14.5635 14.8117L14.5551 13.5876C14.5551 13.5708 14.5131 13.5624 14.4823 13.5624H12.5523V11.6605C12.5523 11.6184 12.5271 11.5792 12.5103 11.5708L11.2778 11.5792C11.2778 11.582 11.275 11.5882 11.2713 11.5965C11.2638 11.6131 11.2526 11.638 11.2526 11.6605V13.5708H9.32826C9.28064 13.5736 9.25543 13.5988 9.24702 13.6072ZM8.42349 14.8397C8.42349 15.3047 8.83526 15.6801 9.32826 15.6801V15.6773H10.4403V16.7641C10.4403 17.2627 10.8185 17.6633 11.2778 17.6633L12.5355 17.6717C13.0033 17.6717 13.3815 17.2655 13.3815 16.7753L13.3731 15.6745H14.4739C14.9669 15.6745 15.3787 15.2907 15.3787 14.8425V13.5932C15.3787 13.1366 14.9669 12.7529 14.4823 12.7529H13.3731V11.6661C13.3731 11.1787 12.9837 10.7697 12.5327 10.7697H11.275C10.8157 10.7697 10.4291 11.1759 10.4291 11.6661V12.7585H9.32826C8.83526 12.7585 8.42349 13.1338 8.42349 13.5904V14.8397Z" fill="#313235"/>
</svg>
