<svg width="24" height="24" viewBox="0 0 24 24" fill="none" xmlns="http://www.w3.org/2000/svg">
<path fill-rule="evenodd" clip-rule="evenodd" d="M21.8425 5.05821C21.8425 4.01059 20.9966 3.22068 19.3215 2.71367C18.1198 2.35233 16.5428 2.15625 14.8817 2.15625C13.2319 2.15625 11.6549 2.35233 10.4532 2.71087C9.05821 3.13664 8.23468 3.76129 7.99659 4.56521V4.57362C7.95737 4.73048 7.93216 4.88734 7.93216 5.05821V9.59603C7.85933 9.65205 7.80331 9.72488 7.76689 9.80891L2.24589 20.6773C2.18146 20.7921 2.15625 20.9238 2.15625 21.0386C2.15625 21.2403 2.24028 21.4336 2.38874 21.5736C2.5344 21.7137 2.71647 21.7865 2.91255 21.7865L13.8817 21.8229H13.9069C13.9322 21.8313 13.963 21.8313 13.9882 21.8313C14.1534 21.8397 14.7193 21.8397 14.8845 21.8397C16.5344 21.8397 18.1142 21.6436 19.3215 21.2823C20.9966 20.7837 21.8425 19.9966 21.8425 18.9462V5.05821ZM10.6941 3.50079C9.61843 3.82852 8.96858 4.26269 8.80331 4.76409C8.80331 4.76872 8.80586 4.77335 8.80815 4.7775C8.81001 4.7809 8.81171 4.78398 8.81171 4.7865C8.98258 5.2879 9.63244 5.72208 10.6997 6.0414C11.8257 6.38594 13.3215 6.56521 14.8985 6.56521C16.4756 6.56521 17.9602 6.38594 19.0862 6.0414C20.131 5.73048 20.7781 5.31031 20.9658 4.82852C20.9658 4.81622 20.9703 4.81292 20.976 4.80874C20.9781 4.80721 20.9803 4.80556 20.9826 4.80331C20.8285 4.2711 20.1955 3.83412 19.0778 3.50079C17.9546 3.16465 16.4672 2.97698 14.8817 2.97698C13.3047 2.97698 11.8173 3.16465 10.6941 3.50079ZM21.0218 9.63524V6.019C20.61 6.34673 20.0442 6.61843 19.3271 6.83132C18.1282 7.19266 16.5596 7.38874 14.8985 7.38874C13.2375 7.38874 11.6689 7.19266 10.4616 6.83132C9.73888 6.61003 9.17306 6.33832 8.75289 6.01059V9.45597C8.75709 9.45597 8.76129 9.45807 8.76549 9.46017C8.7697 9.46227 8.7739 9.46437 8.7781 9.46437C8.93496 9.5372 9.05821 9.66045 9.13104 9.81731L9.36914 10.2935C9.37334 10.2935 9.37544 10.2956 9.37754 10.2977C9.37964 10.2998 9.38174 10.3019 9.38594 10.3019C9.73888 10.5232 10.1843 10.7193 10.7081 10.8761C11.8257 11.2123 13.3215 11.3999 14.8985 11.3999C16.4756 11.3999 17.9686 11.2123 19.089 10.8761C20.2067 10.54 20.8145 10.0302 21.0218 9.63524ZM8.40275 13.2907C8.17586 13.2907 7.99098 13.4756 7.99098 13.7025V17.6745C7.99098 17.9013 8.17586 18.0862 8.40275 18.0862C8.62964 18.0862 8.81451 17.9013 8.81451 17.6745V13.7025C8.81451 13.4756 8.62964 13.2907 8.40275 13.2907ZM8.80331 18.9742C8.80331 18.7529 8.62404 18.5764 8.40555 18.5764C8.18706 18.5764 8.00779 18.7557 8.00779 18.9742C8.00779 19.1927 8.18706 19.3719 8.40555 19.3719C8.62684 19.3719 8.80331 19.1927 8.80331 18.9742ZM21.0218 10.8341V14.4924C20.8145 14.8789 20.2067 15.3943 19.089 15.7305C17.9714 16.0666 16.4756 16.2543 14.8985 16.2543C13.9686 16.2543 13.075 16.1899 12.2431 16.0666L9.96017 11.4896C10.131 11.5512 10.2991 11.6072 10.47 11.6633C11.6689 12.0246 13.2375 12.2207 14.8985 12.2207C16.5596 12.2207 18.1282 12.0246 19.3271 11.6633C20.0106 11.4588 20.5876 11.1703 21.0218 10.8341ZM21.0218 18.9462V15.6913C20.5876 16.0274 20.0106 16.3159 19.3271 16.5204C18.1282 16.8733 16.5596 17.0778 14.8985 17.0778C14.1338 17.0778 13.3943 17.0386 12.6885 16.9462L14.5708 20.7277C14.6212 20.8173 14.6436 20.9238 14.6436 21.0218H14.8817C16.4588 21.0218 17.9462 20.8313 19.089 20.4952C20.3719 20.1114 21.0218 19.5876 21.0218 18.9462ZM13.7893 21.005L3.019 20.9658L8.45037 10.2851L13.7893 21.005Z" fill="#313235"/>
</svg>
