<svg width="24" height="24" viewBox="0 0 24 24" fill="none" xmlns="http://www.w3.org/2000/svg">
<path fill-rule="evenodd" clip-rule="evenodd" d="M20.3053 16.2716H19.4525C19.2773 17.3337 18.5396 17.9103 17.3305 17.9103C16.1213 17.9103 15.3835 17.3335 15.2085 16.2712C15.2035 16.2715 15.1984 16.2716 15.1933 16.2716H9.62185L9.62053 16.2716C9.44542 17.3337 8.70771 17.9103 7.4986 17.9103C6.28949 17.9103 5.55178 17.3337 5.37667 16.2716H5.0112C4.30532 16.2716 3.63866 15.605 3.63866 14.8991V13.5405H2.28011C2.12605 13.5405 2 13.4145 2 13.2604C2 13.1064 2.12605 12.9803 2.28011 12.9803H3.63866V10.8094H2.28011C2.12605 10.8094 2 10.6834 2 10.5293C2 10.3753 2.12605 10.2492 2.28011 10.2492H3.63866V8.07835H2.28011C2.12605 8.07835 2 7.9523 2 7.79824C2 7.64418 2.12605 7.51813 2.28011 7.51813H3.63866V6.7058C3.63866 5.99992 4.30532 5.33325 5.0112 5.33325H16.4818C16.986 5.33325 17.5154 5.59936 17.8011 5.99712C18.2353 6.59936 20.7451 9.93269 21.0728 10.3585C21.2997 10.6526 21.6779 11.1456 21.6779 11.6218V14.8991C21.6779 15.605 21.0112 16.2716 20.3053 16.2716ZM4.19888 7.79824V6.7058C4.19888 6.31084 4.61625 5.89348 5.0112 5.89348H16.4818C16.8039 5.89348 17.1681 6.07275 17.3473 6.32205C17.7815 6.92709 20.3025 10.2716 20.6303 10.7002C20.8011 10.9215 21.1176 11.3361 21.1176 11.6218V14.8991C21.1176 15.294 20.7003 15.7114 20.3053 15.7114H19.4928C19.4795 14.3395 18.7133 13.5854 17.3305 13.5854C15.9478 13.5854 15.1815 14.3395 15.1682 15.7114H9.66089C9.64761 14.3395 8.88137 13.5854 7.4986 13.5854C6.11583 13.5854 5.34959 14.3395 5.33631 15.7114H5.0112C4.61625 15.7114 4.19888 15.294 4.19888 14.8991V13.2604V10.5293V7.79824ZM7.4986 14.1456C6.96919 14.1456 6.56583 14.2744 6.30532 14.5265C6.03361 14.787 5.89636 15.1988 5.89636 15.7478C5.89636 16.2968 6.03361 16.7086 6.30532 16.9691C6.56863 17.2212 6.96919 17.3501 7.4986 17.3501C8.02801 17.3501 8.43137 17.2212 8.69188 16.9691C8.96359 16.7086 9.10084 16.2968 9.10084 15.7478C9.10084 15.1988 8.96359 14.787 8.69188 14.5265C8.43137 14.2716 8.02801 14.1456 7.4986 14.1456ZM17.3305 14.1456C16.8011 14.1456 16.3978 14.2744 16.1373 14.5265C15.8655 14.787 15.7283 15.1988 15.7283 15.7478C15.7283 16.2968 15.8655 16.7086 16.1373 16.9691C16.4006 17.2212 16.8011 17.3501 17.3305 17.3501C17.8599 17.3501 18.2633 17.2212 18.5238 16.9691C18.7955 16.7086 18.9328 16.2968 18.9328 15.7478C18.9328 15.1988 18.7955 14.787 18.5238 14.5265C18.2633 14.2716 17.8599 14.1456 17.3305 14.1456Z" fill="#313235"/>
</svg>
