<svg width="24" height="24" viewBox="0 0 24 24" fill="none" xmlns="http://www.w3.org/2000/svg">
<path fill-rule="evenodd" clip-rule="evenodd" d="M21.0871 14.4132C20.5633 14.9483 19.8014 15.22 18.8294 15.22H14.4764V16.0631H21.4148C21.6389 16.0631 21.821 16.2424 21.8238 16.4665C21.8238 16.6906 21.6417 16.8698 21.4148 16.8698H14.4764V18.1387C14.4764 18.3628 14.2944 18.5421 14.0675 18.5421C10.9336 18.5421 8.55603 19.7361 8.50784 19.7603L8.50725 19.7606C8.45403 19.783 8.39801 19.797 8.34198 19.7998C8.33778 19.7998 8.33358 19.8012 8.32938 19.8026C8.32518 19.804 8.32098 19.8054 8.31677 19.8054C8.24955 19.8054 8.18512 19.7914 8.1263 19.7606L8.12571 19.7603C8.0775 19.7361 5.69994 18.5421 2.56888 18.5421C2.34198 18.5421 2.15991 18.3656 2.15991 18.1415V10.0211C2.15991 9.80821 2.32518 9.63454 2.53806 9.61493C2.61089 9.60933 3.54086 9.5421 4.79857 9.69336V7.16675C4.79857 6.24798 5.05627 5.52529 5.56047 5.01549C6.08428 4.49168 6.84339 4.22557 7.81537 4.22557L18.8322 4.21997C19.8042 4.21997 20.5633 4.48888 21.0843 5.01269C21.5885 5.52249 21.8462 6.24518 21.8462 7.16395V12.2536C21.8462 13.1724 21.5913 13.8978 21.0871 14.4132ZM5.61649 7.16955C5.61649 6.46927 5.79577 5.93426 6.14591 5.58132C6.50725 5.21717 7.07028 5.0323 7.81537 5.0323L18.8322 5.02669C19.5773 5.02669 20.1375 5.21157 20.5016 5.57571C20.8518 5.92865 21.0311 6.46087 21.0311 7.16395V12.2536C21.0311 12.9567 20.8518 13.4945 20.5016 13.853C20.1375 14.2256 19.5773 14.4132 18.835 14.4132L14.482 14.416V10.0183C14.482 9.80821 14.3168 9.63454 14.1039 9.61773C13.975 9.60653 10.9526 9.39084 8.32238 10.6934C7.42322 10.2508 6.48204 9.98188 5.6221 9.82501L5.61649 7.16955ZM7.91061 11.388C6.01425 10.4665 3.83778 10.388 2.98064 10.4076V17.7438C4.67252 17.7998 6.33918 18.1499 7.91061 18.7802V11.388ZM8.72854 18.7802C9.61649 18.416 11.4176 17.811 13.6585 17.7438V10.4076C12.7958 10.3964 10.6249 10.4637 8.72854 11.3852V18.7802Z" fill="#313235"/>
</svg>
