<svg width="24" height="24" viewBox="0 0 24 24" fill="none" xmlns="http://www.w3.org/2000/svg">
<path fill-rule="evenodd" clip-rule="evenodd" d="M0 12.0034C0 3.82812 4.41548 0 11.9966 0C19.5777 0 24 3.82812 24 12.0034C24 20.1787 19.5777 24 11.9966 24C4.41548 24 0 20.1787 0 12.0034ZM11.9966 1.00057C15.4217 1.00057 18.0444 1.82356 19.8714 3.44223L3.44223 19.8714C1.82356 18.0444 1.00057 15.4217 1.00057 12C1.00057 4.70233 4.69892 1.00057 11.9966 1.00057ZM11.9966 22.9994C8.59192 22.9994 5.9761 22.1833 4.14912 20.5783L20.5783 4.14912C22.1833 5.97951 22.9994 8.59192 22.9994 12.0034C22.9994 19.3011 19.2977 22.9994 11.9966 22.9994Z" fill="#313235"/>
</svg>
