<svg width="24" height="24" viewBox="0 0 24 24" fill="none" xmlns="http://www.w3.org/2000/svg">
<path fill-rule="evenodd" clip-rule="evenodd" d="M20.8175 10.005C20.9155 10.0974 20.9772 10.2235 20.9968 10.3579C21.0052 10.3915 21.0136 10.4252 21.0136 10.456V20.7809C21.0136 21.3467 20.515 21.8425 19.9323 21.8425H9.73346C9.16203 21.8425 8.66063 21.3411 8.66063 20.7809V17.8677H4.02757C3.47855 17.8677 2.96875 17.3747 2.96875 16.8313V3.19266C2.96875 2.64364 3.47015 2.15625 4.02757 2.15625H13.8315C14.4057 2.15625 14.8903 2.63244 14.8903 3.19266V5.5316H15.9407C15.9716 5.5316 15.9968 5.5316 16.022 5.54C16.1592 5.55401 16.2853 5.61283 16.3833 5.71087L20.8175 10.005ZM8.66063 17.047V6.59042C8.66063 6.0386 9.16763 5.5288 9.73346 5.5288H14.0696V3.19266C14.0696 3.08342 13.9463 2.97698 13.8315 2.97698H4.02477C3.90993 2.97698 3.78668 3.10303 3.78668 3.19266V16.8341C3.78668 16.9154 3.91833 17.047 4.02477 17.047H8.66063ZM19.9295 21.019C20.0612 21.019 20.1928 20.8985 20.1928 20.7809V11.0918H18.162C17.3329 11.0918 16.627 10.8285 16.1032 10.3187C15.5794 9.81451 15.2993 9.11703 15.2993 8.31031V6.35233H9.73346C9.62141 6.35233 9.48136 6.50079 9.48136 6.59042V20.7809C9.48136 20.8789 9.6018 21.019 9.73346 21.019H19.9295ZM16.12 6.59883L16.1228 6.60153V8.31031C16.1228 8.88734 16.3189 9.38034 16.6802 9.73328C17.0388 10.0862 17.5542 10.2683 18.162 10.2683H19.9183L16.1228 6.60153V6.59883H16.12Z" fill="#313235"/>
</svg>
