<svg width="24" height="24" viewBox="0 0 24 24" fill="none" xmlns="http://www.w3.org/2000/svg">
<path fill-rule="evenodd" clip-rule="evenodd" d="M20.9069 6.99492H19.7025H19.6997V6.39548C19.6997 5.86887 19.2795 5.4375 18.7641 5.4375H17.5596C17.0442 5.4375 16.624 5.86607 16.624 6.39548V9.90809C16.6114 9.90683 16.5999 9.90328 16.5885 9.89977L16.5885 9.89977C16.5747 9.8955 16.561 9.89128 16.5456 9.89128H7.45317C7.43633 9.89128 7.422 9.89546 7.40744 9.89972C7.39535 9.90324 7.38311 9.90682 7.36914 9.90809V6.39548C7.36914 5.86887 6.94897 5.4375 6.43356 5.4375H5.22908C4.71367 5.4375 4.2935 5.86607 4.2935 6.39548V6.99492H3.09182C2.57362 6.99492 2.15625 7.42349 2.15625 7.9501V16.0509C2.15625 16.5804 2.57362 17.0061 3.09182 17.0061H4.2935V17.6056C4.2935 18.135 4.71367 18.5635 5.22908 18.5635H6.43356C6.94897 18.5635 7.36914 18.135 7.36914 17.6056V14.093C7.38311 14.0942 7.39535 14.0978 7.40744 14.1013C7.422 14.1056 7.43633 14.1098 7.45317 14.1098H16.5456C16.5616 14.1098 16.5766 14.1052 16.5913 14.1008C16.6024 14.0974 16.6132 14.0942 16.624 14.093V17.6056C16.624 18.135 17.0442 18.5635 17.5596 18.5635H18.7641C19.2795 18.5635 19.6997 18.135 19.6997 17.6056V17.0061H20.9069C21.4252 17.0061 21.8425 16.5776 21.8425 16.0509V7.95291C21.8425 7.42349 21.4252 6.99492 20.9069 6.99492ZM7.45317 13.1518H16.5456V10.8493H7.45317V13.1518ZM17.5625 17.6056H18.767V6.39551H17.5625V10.8493V13.1546V17.6056ZM4.30007 7.9503H3.09558V16.0483H4.30006L4.30007 7.9503ZM19.7026 16.051H20.907V7.95293H19.7026V16.051ZM5.20006 17.6099H6.40175V6.3999H5.20006V17.6099Z" fill="#313235"/>
</svg>
