<svg width="24" height="24" viewBox="0 0 24 24" fill="none" xmlns="http://www.w3.org/2000/svg">
<path fill-rule="evenodd" clip-rule="evenodd" d="M4.91605 19.4252C4.5295 19.4252 4.16255 19.2599 3.89364 18.9742C3.51549 18.5624 3.38384 17.9658 3.54911 17.4224L5.07292 12.5848C5.16255 12.3243 5.31381 12.0918 5.51829 11.9126C9.70877 7.95457 14.2102 3.64925 14.5211 3.32432C15.1457 2.60443 16.0253 2.18146 16.9553 2.15625C17.9273 2.16465 18.8516 2.58202 19.5211 3.31311C20.2102 4.04421 20.6079 5.019 20.6331 6.04421C20.6163 7.04981 20.2186 8.00779 19.5211 8.70527C18.9665 9.32992 10.4959 17.3495 10.4091 17.4308C10.2662 17.5708 10.0953 17.6745 9.90765 17.7305L5.37264 19.3383C5.22418 19.4028 5.07012 19.428 4.91605 19.4252ZM20.0729 20.6885C20.381 20.6885 20.6275 20.9462 20.6275 21.2683C20.6275 21.5876 20.3782 21.8481 20.0729 21.8481H3.96087C3.65275 21.8481 3.40625 21.5904 3.40625 21.2683C3.40625 20.949 3.65555 20.6885 3.96087 20.6885H20.0729ZM4.69477 18.1647C4.59393 18.0638 4.56031 17.9098 4.60513 17.7725L6.12614 12.9069C6.14575 12.8481 6.18216 12.7949 6.22698 12.7557C6.55171 12.4467 6.94939 12.0685 7.39499 11.6448C10.2012 8.97635 14.9081 4.50061 15.2634 4.11143C15.7088 3.61843 16.325 3.33552 16.9749 3.32432C17.6415 3.32992 18.2774 3.61283 18.7424 4.11143C19.2158 4.63524 19.4819 5.32432 19.4875 6.04421C19.4931 6.76129 19.2186 7.45037 18.7312 7.95457C18.255 8.46437 11.0645 15.3047 9.66395 16.6352C9.63034 16.6661 9.59392 16.6913 9.55191 16.7053L5.01689 18.2571C4.90205 18.2907 4.776 18.2543 4.69477 18.1647Z" fill="#313235"/>
</svg>
