<svg width="24" height="24" viewBox="0 0 24 24" fill="none" xmlns="http://www.w3.org/2000/svg">
<path fill-rule="evenodd" clip-rule="evenodd" d="M8.23954 2.1499C8.55887 2.1499 8.81937 2.40761 8.81937 2.72693V8.23954C8.81377 8.55606 8.55887 8.81377 8.24234 8.81937H2.72973C2.41041 8.81937 2.1499 8.56167 2.1499 8.24234C2.1499 7.92301 2.41041 7.66251 2.72973 7.66251H7.66251V2.72973C7.66251 2.40761 7.92021 2.1499 8.23954 2.1499ZM8.81937 15.7437C8.81937 15.4244 8.55887 15.1667 8.23954 15.1667C8.23954 15.1667 2.72973 15.1667 2.72973 15.1639C2.41041 15.1639 2.1499 15.4216 2.1499 15.7437C2.1499 16.0659 2.41041 16.3236 2.72973 16.3236H7.65971V21.2563C7.65971 21.5757 7.92021 21.8362 8.23954 21.8362C8.55887 21.8362 8.81937 21.5757 8.81937 21.2563V15.7437ZM21.8362 15.7465C21.8362 15.4272 21.5757 15.1667 21.2563 15.1667H15.7409C15.4216 15.1667 15.1639 15.4272 15.1639 15.7465V21.2591C15.1639 21.5785 15.4244 21.839 15.7437 21.839C16.0631 21.839 16.3236 21.5785 16.3236 21.2591V16.3264H21.2563C21.5757 16.3264 21.8362 16.0659 21.8362 15.7465ZM15.1667 8.24234C15.1667 8.56167 15.4272 8.81937 15.7465 8.81937V8.82217H21.2563C21.5757 8.82217 21.8362 8.56167 21.8362 8.24234C21.8362 7.92301 21.5757 7.66251 21.2563 7.66251H16.3236V2.72973C16.3236 2.41041 16.0659 2.1499 15.7465 2.1499C15.4272 2.1499 15.1667 2.41041 15.1667 2.72973V8.24234Z" fill="#313235"/>
</svg>
