<svg width="24" height="24" viewBox="0 0 24 24" fill="none" xmlns="http://www.w3.org/2000/svg">
<path fill-rule="evenodd" clip-rule="evenodd" d="M11.5008 15.779H21.4336C21.6605 15.7818 21.8425 15.961 21.8425 16.1795V16.1823C21.8397 16.4064 21.6577 16.5857 21.4336 16.5829H11.5008V18.933C11.5008 19.4064 11.0862 19.8042 10.596 19.8042H3.06101C2.57922 19.8042 2.15625 19.398 2.15625 18.933V8.68654C2.15625 8.22995 2.58762 7.81539 3.06101 7.81259H4.56241V6.91063C4.56241 6.05348 4.7921 5.38962 5.24869 4.93304C5.71928 4.46525 6.41675 4.22435 7.32992 4.22435L19.019 4.21875C19.9322 4.21875 20.6324 4.45685 21.103 4.92743C21.5596 5.38402 21.7893 6.04788 21.7893 6.90502V12.2944C21.7893 13.1543 21.5596 13.8238 21.1058 14.286C20.6324 14.765 19.9322 15.0087 19.0218 15.0087L11.5008 15.0115V15.779ZM5.83692 5.49606C5.5372 5.79578 5.38594 6.27477 5.38594 6.91343V7.81539H7.64645C7.79771 7.81259 7.94337 7.87141 8.05261 7.97505L11.3243 11.0787C11.3915 11.1459 11.4392 11.23 11.4644 11.3224C11.4868 11.37 11.498 11.426 11.498 11.4793V14.2103L19.019 14.2075C19.6997 14.2075 20.2011 14.0479 20.512 13.7314C20.8145 13.4232 20.9686 12.9414 20.9686 12.2972V6.90783C20.9686 6.26917 20.8173 5.79018 20.5176 5.49046C20.2067 5.17953 19.7053 5.02267 19.0218 5.02267L7.33552 5.02827C6.64925 5.02827 6.14505 5.18514 5.83692 5.49606ZM3.06101 19.0003H10.596C10.6408 19.0031 10.6829 18.9554 10.6829 18.9302V12.0395H9.2851C8.64925 12.0395 8.09743 11.8378 7.69407 11.454C7.2851 11.0675 7.06942 10.5381 7.06942 9.92743V8.61651H3.06101C3.0358 8.61931 2.98258 8.66133 2.97418 8.68934V18.933C2.97698 18.9526 3.0218 19.0003 3.06101 19.0003ZM7.88734 8.93584L10.3159 11.2384H9.2851C8.86493 11.2384 8.51199 11.1151 8.26269 10.877C8.019 10.6445 7.88734 10.3168 7.88734 9.92743V8.93584Z" fill="#313235"/>
</svg>
