<svg width="24" height="24" viewBox="0 0 24 24" fill="none" xmlns="http://www.w3.org/2000/svg">
<path fill-rule="evenodd" clip-rule="evenodd" d="M21.8061 7.90975C21.8257 7.96017 21.8397 8.01339 21.8397 8.07222V20.6352C21.8397 21.2879 21.2767 21.8397 20.61 21.8397H8.17306C7.51759 21.8397 6.94336 21.2767 6.94336 20.6352L6.97978 17.5988H4.42236C3.17306 17.5988 2.15625 16.582 2.15625 15.3299V11.1506C2.15625 9.89855 3.17306 8.88174 4.42236 8.88174H6.94336V3.36073C6.94336 2.73048 7.5288 2.15625 8.17306 2.15625H15.7445C15.9238 2.15625 16.0946 2.22628 16.2263 2.34953L21.6352 7.58762C21.7249 7.67446 21.7753 7.7893 21.8061 7.90975ZM21.0134 20.638V8.75849H18.4476C17.4672 8.75849 16.6212 8.44196 16.005 7.84252C15.3831 7.24028 15.0554 6.41395 15.0554 5.45877V2.98538H8.17026C7.98538 2.98538 7.76409 3.18986 7.76409 3.36353V8.88454H14.47C15.7193 8.88454 16.7361 9.90135 16.7361 11.1534V15.3327C16.7361 16.5848 15.7193 17.6016 14.47 17.6016H7.80331L7.76689 20.6436C7.76689 20.8257 7.97138 21.0162 8.17306 21.0162H20.61C20.8173 21.0162 21.0134 20.8313 21.0134 20.638ZM4.41956 16.7725H14.4728C15.2655 16.7725 15.9126 16.1254 15.9126 15.3299V11.1506C15.9126 10.3551 15.2683 9.71087 14.4728 9.71087H4.41956C3.62684 9.71087 2.97978 10.3579 2.97978 11.1506V15.3299C2.97978 16.1254 3.62404 16.7725 4.41956 16.7725ZM15.8789 5.45597V3.16465L20.7977 7.92936H18.4476C17.6885 7.92936 17.0414 7.69126 16.5792 7.24589C16.1198 6.80331 15.8789 6.18426 15.8789 5.45597ZM6.36073 11.5232H7.2879L8.61843 15.2067H7.71928L7.41115 14.2795H6.21507L5.92936 15.2067H5.12544L6.36073 11.5232ZM7.20667 13.6717L6.80331 12.4448H6.7921L6.40835 13.6717H7.20667ZM9.38314 11.5232H8.48398L9.76689 15.2067H10.6436L11.8677 11.5232H11.0498L10.2459 14.1955L9.38314 11.5232ZM12.3439 11.5232H13.1843V15.2067H12.3439V11.5232Z" fill="#313235"/>
</svg>
