<svg width="24" height="24" viewBox="0 0 24 24" fill="none" xmlns="http://www.w3.org/2000/svg">
<path fill-rule="evenodd" clip-rule="evenodd" d="M13.8239 2.34953L19.188 7.58762C19.3169 7.71647 19.3925 7.89294 19.3897 8.07502V20.6408C19.3897 21.2935 18.8295 21.8453 18.1712 21.8453H5.84349C5.19363 21.8453 4.625 21.2823 4.625 20.6408V3.36073C4.625 2.73048 5.20483 2.15625 5.84349 2.15625H13.3477C13.527 2.15625 13.695 2.22628 13.8239 2.34953ZM5.84349 21.019H18.174C18.3813 21.019 18.5774 20.8341 18.5746 20.6352V8.74729H16.0256C15.0536 8.74729 14.216 8.43356 13.6054 7.83412C12.9891 7.23188 12.6642 6.40835 12.6642 5.45037V2.97418H9.17682V4.01339H10.3141C10.5382 4.01339 10.7202 4.19827 10.7202 4.42516C10.7202 4.65205 10.541 4.83692 10.3141 4.83692H9.17682V6.80331H10.3141C10.5382 6.80331 10.7202 6.98818 10.7202 7.21507C10.7202 7.44196 10.541 7.62684 10.3141 7.62684H9.17682V9.59603H10.3141C10.5382 9.59603 10.7202 9.7809 10.7202 10.0078C10.7202 10.2347 10.541 10.4196 10.3141 10.4196H9.17682V12.3887H10.3141C10.5382 12.3887 10.7202 12.5736 10.7202 12.8005C10.7202 13.0274 10.541 13.2123 10.3141 13.2123H9.17682V14.1254H10.2889C10.513 14.1254 10.695 14.3103 10.695 14.5372V16.8509C10.695 17.0778 10.513 17.2627 10.2889 17.2627H7.20763C6.98354 17.2627 6.80147 17.0778 6.80147 16.8509V14.5372C6.80147 14.3103 6.98354 14.1254 7.20763 14.1254H8.36169V11.8173H7.19643C6.97234 11.8173 6.79027 11.6324 6.79027 11.4056C6.79027 11.1787 6.97234 10.9938 7.19643 10.9938H8.36169V9.0274H7.19643C6.97234 9.0274 6.79027 8.84252 6.79027 8.61563C6.79027 8.38874 6.97234 8.20387 7.19643 8.20387H8.36169V6.23748H7.19643C6.97234 6.23748 6.79027 6.05261 6.79027 5.82572C6.79027 5.59883 6.97234 5.41395 7.19643 5.41395H8.36169V2.97978H5.84349C5.65861 2.97978 5.44013 3.18706 5.44013 3.36073V20.638C5.44013 20.8285 5.64181 21.019 5.84349 21.019ZM9.8827 16.4392H7.6166V15.3999H9.8827V16.4392ZM18.3645 7.92936H16.0284C15.2721 7.92936 14.6306 7.69407 14.174 7.24589C13.7202 6.80331 13.4793 6.18426 13.4793 5.45317V3.15625L18.3645 7.92936Z" fill="#313235"/>
</svg>
