<svg width="24" height="24" viewBox="0 0 24 24" fill="none" xmlns="http://www.w3.org/2000/svg">
<path fill-rule="evenodd" clip-rule="evenodd" d="M20.5876 6.073C21.2795 6.073 21.8425 6.63883 21.8425 7.33631V18.9526C21.8425 19.65 21.2795 20.2159 20.5876 20.2159H3.41395C2.71928 20.2159 2.15625 19.65 2.15625 18.9526V5.07581C2.15625 4.37833 2.71928 3.8125 3.41395 3.8125H10.7305C11.4224 3.8125 11.9854 4.37833 11.9854 5.07581V6.07581C11.9882 6.073 20.5876 6.073 20.5876 6.073ZM21.0218 18.9526V7.33631C21.0218 7.09541 20.8285 6.89933 20.5876 6.89933H11.5764C11.3495 6.89933 11.1647 6.71446 11.1675 6.48757V5.07581C11.1675 4.83491 10.9742 4.63883 10.7333 4.63603H3.41395C3.17306 4.63603 2.97698 4.83211 2.97698 5.07581V18.9554C2.97698 19.1963 3.17306 19.3923 3.41395 19.3923H20.5876C20.8257 19.3923 21.0218 19.1935 21.0218 18.9526ZM3.94056 10.5184C3.94056 9.39513 4.2879 8.8069 5.20107 8.8069C6.11423 8.8069 6.46157 9.39233 6.46157 10.5184C6.46157 11.6444 6.11423 12.2243 5.20107 12.2243C4.2879 12.2243 3.94056 11.6444 3.94056 10.5184ZM8.7921 8.8069C7.87894 8.8069 7.5316 9.39513 7.5316 10.5184C7.5316 11.6444 7.87894 12.2243 8.7921 12.2243C9.70527 12.2243 10.0526 11.6444 10.0526 10.5184C10.0526 9.39233 9.70527 8.8069 8.7921 8.8069ZM8.7921 9.3111C9.18146 9.3111 9.33552 9.61082 9.33552 10.5184C9.33552 11.4259 9.18146 11.6724 8.7921 11.6724C8.40275 11.6724 8.24869 11.4287 8.24869 10.5184C8.24869 9.60802 8.40275 9.3111 8.7921 9.3111ZM5.20107 9.3111C5.59042 9.3111 5.74449 9.61082 5.74449 10.5184C5.74449 11.4259 5.59042 11.6724 5.20107 11.6724C4.81171 11.6724 4.65765 11.4287 4.65765 10.5184C4.65765 9.60802 4.81171 9.3111 5.20107 9.3111ZM16.6549 10.5184C16.6549 9.39513 17.0022 8.8069 17.9154 8.8069C18.8285 8.8069 19.1759 9.39233 19.1759 10.5184C19.1759 11.6444 18.8285 12.2243 17.9154 12.2243C17.0022 12.2243 16.6549 11.6444 16.6549 10.5184ZM17.9126 9.3111C18.3019 9.3111 18.456 9.61082 18.456 10.5184C18.456 11.4259 18.3019 11.6724 17.9126 11.6724C17.5232 11.6724 17.3691 11.4287 17.3691 10.5184C17.3691 9.60802 17.5232 9.3111 17.9126 9.3111ZM11.0694 11.7117H11.6212V9.42034H11.0918V8.96096C11.2851 8.93295 11.6128 8.90494 11.8453 8.90494C12.1815 8.90494 12.2963 8.98617 12.2963 9.22707V11.7145H12.7613V12.1991H11.0666V11.7117H11.0694ZM4.96017 17.1122H4.40835V17.5996H6.10303V17.115H5.63804V14.6276C5.63804 14.3867 5.5232 14.3055 5.18706 14.3055C4.95457 14.3055 4.62684 14.3335 4.43356 14.3615V14.8209H4.96017V17.1122ZM13.977 11.7117H14.5288V9.42034H14.0022V8.96096C14.1955 8.93295 14.5232 8.90494 14.7557 8.90494C15.0918 8.90494 15.2067 8.98617 15.2067 9.22707V11.7145H15.6717V12.1991H13.977V11.7117ZM8.7921 14.2103C7.87894 14.2103 7.5316 14.7985 7.5316 15.9217C7.5316 17.0478 7.87894 17.6276 8.7921 17.6276C9.70527 17.6276 10.0526 17.0478 10.0526 15.9217C10.0526 14.7957 9.70527 14.2103 8.7921 14.2103ZM9.33552 15.9217C9.33552 15.0142 9.18146 14.7145 8.7921 14.7145C8.40275 14.7145 8.24869 15.0114 8.24869 15.9217C8.24869 16.8321 8.40275 17.0758 8.7921 17.0758C9.18146 17.0758 9.33552 16.8293 9.33552 15.9217ZM17.9154 14.2103C17.0022 14.2103 16.6549 14.7985 16.6549 15.9217C16.6549 17.0478 17.0022 17.6276 17.9154 17.6276C18.8285 17.6276 19.1759 17.0478 19.1759 15.9217C19.1759 14.7957 18.8285 14.2103 17.9154 14.2103ZM18.456 15.9217C18.456 15.0142 18.3019 14.7145 17.9126 14.7145C17.5232 14.7145 17.3691 15.0114 17.3691 15.9217C17.3691 16.8321 17.5232 17.0758 17.9126 17.0758C18.3019 17.0758 18.456 16.8293 18.456 15.9217ZM11.6212 17.115H11.0694H11.0666V17.6024H12.7613V17.1178H12.2963V14.6304C12.2963 14.3895 12.1815 14.3083 11.8453 14.3083C11.6128 14.3083 11.2851 14.3363 11.0918 14.3643V14.8237H11.6212V17.115ZM13.977 17.115H14.5288V14.8237H14.0022V14.3643C14.1955 14.3363 14.5232 14.3083 14.7557 14.3083C15.0918 14.3083 15.2067 14.3895 15.2067 14.6304V17.1178H15.6717V17.6024H13.977V17.115Z" fill="#313235"/>
</svg>
