<svg width="24" height="24" viewBox="0 0 24 24" fill="none" xmlns="http://www.w3.org/2000/svg">
<path fill-rule="evenodd" clip-rule="evenodd" d="M9.16553 11.0403C9.8182 11.6789 10.765 12.0039 11.9779 12.0039C13.1907 12.0039 14.1375 11.6817 14.7958 11.0403C15.4793 10.3764 15.8266 9.39043 15.8266 8.10751C15.8266 6.8246 15.4793 5.83581 14.7958 5.16914C14.1375 4.52768 13.1879 4.19995 11.9779 4.19995C10.7678 4.19995 9.821 4.52768 9.16553 5.17194C8.48766 5.83581 8.14313 6.8274 8.14313 8.10751C8.14313 9.39043 8.48766 10.3764 9.16553 11.0403ZM8.92464 8.10751C8.92464 7.04869 9.18794 6.25317 9.70895 5.74337C10.2104 5.24757 10.9751 4.99827 11.9807 4.99827C12.9807 4.99827 13.7454 5.24757 14.2524 5.74337C14.7762 6.25597 15.0395 7.05149 15.0395 8.10751C15.0395 9.16354 14.7762 9.95625 14.2524 10.4661C13.7454 10.9591 12.9807 11.2084 11.9779 11.2084C10.9751 11.2084 10.2104 10.9591 9.70895 10.4661C9.18794 9.95905 8.92464 9.16354 8.92464 8.10751ZM5.26918 10.6873C5.05909 10.8918 4.95265 11.2364 4.95265 11.707C4.95265 12.1775 5.05909 12.5193 5.26638 12.7238C5.46806 12.9226 5.79859 13.0235 6.24397 13.0235C6.69215 13.0235 7.02268 12.9226 7.22716 12.7238C7.43724 12.5193 7.54369 12.1775 7.54369 11.7098C7.54369 11.2392 7.43724 10.8974 7.22716 10.6929C7.02268 10.4941 6.69215 10.3904 6.24397 10.3904C5.80139 10.3876 5.47366 10.4885 5.26918 10.6873ZM4.72296 13.298C5.0787 13.6425 5.59131 13.819 6.24677 13.819C6.90503 13.819 7.42044 13.6425 7.77338 13.2952C8.14313 12.9338 8.3308 12.3988 8.3308 11.7042C8.3308 11.0123 8.14313 10.4745 7.77338 10.1131C7.41764 9.76578 6.90503 9.58931 6.24677 9.58931C5.59131 9.58931 5.0787 9.76858 4.72296 10.1159C4.35601 10.4773 4.16834 11.0123 4.16834 11.707C4.16834 12.4016 4.35601 12.9366 4.72296 13.298ZM16.779 10.6733C16.5689 10.8778 16.4625 11.2224 16.4625 11.6929C16.4625 12.1607 16.5689 12.5025 16.779 12.707C16.9835 12.9058 17.314 13.0067 17.7622 13.0067C18.2104 13.0067 18.5381 12.9058 18.7426 12.707C18.9498 12.5025 19.0563 12.1607 19.0563 11.6929C19.0563 11.2224 18.9498 10.8806 18.7398 10.6733C18.5381 10.4745 18.2076 10.3736 17.7622 10.3736C17.314 10.3736 16.9835 10.4745 16.779 10.6733ZM15.6781 11.6929C15.6781 12.3876 15.8658 12.9226 16.2356 13.284C16.5913 13.6285 17.1039 13.805 17.7622 13.8022C18.4204 13.8022 18.933 13.6285 19.2888 13.2812C19.6585 12.9198 19.8434 12.3848 19.8434 11.6929C19.8434 10.9983 19.6557 10.4605 19.2888 10.0991C18.933 9.75177 18.4204 9.5753 17.7622 9.5753C17.1039 9.5753 16.5913 9.75177 16.2356 10.1019C15.8658 10.4633 15.6781 10.9983 15.6781 11.6929ZM21.0619 17.6257V17.0767C21.0619 16.5109 20.8966 16.0319 20.5745 15.6957C20.2216 15.3204 19.6865 15.1299 19.0283 15.1299H17.821C18.384 15.7826 18.7146 16.6369 18.7874 17.6257H21.0619ZM18.0171 18.0459V18.9871H5.94145V18.0459C5.94145 17.0151 6.24677 16.1467 6.8266 15.5333C7.46245 14.8638 8.42884 14.5053 9.63612 14.5053H14.314C15.5213 14.5053 16.4961 14.8638 17.1319 15.5333C17.7118 16.1495 18.0171 17.0179 18.0171 18.0459ZM5.17394 17.6425C5.24397 16.6537 5.5689 15.7994 6.13192 15.1467H4.97786C4.3196 15.1467 3.78458 15.34 3.43164 15.7126C3.11792 16.0459 2.94425 16.5249 2.94425 17.0907V17.6425H5.17394ZM21.8462 17.0767C21.8462 16.3036 21.6025 15.6341 21.1403 15.1467C20.6361 14.6117 19.9078 14.3344 19.0311 14.3316H16.8658C16.1683 13.917 15.3056 13.7098 14.3168 13.7098H9.63892C8.64173 13.7098 7.77058 13.9254 7.0731 14.3484H4.97786C4.09831 14.3484 3.37002 14.6285 2.86581 15.1523C2.40363 15.6481 2.15993 16.3176 2.15993 17.0907V17.7966C2.15713 18.1495 2.44285 18.4352 2.79579 18.438H5.15713V19.3484C5.15993 19.5921 5.35601 19.7882 5.59691 19.7882H18.3616C18.6053 19.7882 18.8014 19.5921 18.8014 19.3484V18.424H21.2188C21.5689 18.4184 21.849 18.1355 21.8462 17.7854V17.0767Z" fill="#313235"/>
</svg>
