<svg width="24" height="24" viewBox="0 0 24 24" fill="none" xmlns="http://www.w3.org/2000/svg">
<path fill-rule="evenodd" clip-rule="evenodd" d="M14.1092 17.3947C14.1877 17.6244 14.2269 17.8849 14.2269 18.1679C14.2269 19.4256 13.437 20.2043 12.1625 20.2043H5.16527C4.19608 20.2043 3.42017 19.9326 2.86555 19.3947C2.30812 18.8541 2 18.0166 2 17.0334V9.24629C2 8.46478 2.7423 8.12024 3.06162 7.97458C3.35995 7.83774 4.3268 7.36128 5.45792 6.80387L5.53782 6.7645C5.67697 6.69617 5.81865 6.62659 5.9623 6.55603C7.75032 5.6779 9.84439 4.64945 11.1849 4.0194C12.0364 3.61604 12.9244 3.7785 13.4454 4.42836C13.7115 4.75609 13.8431 5.15665 13.8431 5.56001C13.8431 5.98018 13.6975 6.40595 13.4118 6.7673C13.1204 7.13144 12.7171 7.43676 12.1401 7.7757L19.5266 7.7813H19.5686C20.916 7.86814 21.6863 8.64405 21.6863 9.91015C21.6863 11.2267 20.8571 12.0446 19.5238 12.0446H16.6218C16.6807 12.2519 16.7115 12.4816 16.7115 12.7281C16.7115 13.7309 16.2073 14.4312 15.3585 14.6721C15.4342 14.9046 15.4762 15.1651 15.4762 15.448C15.4762 16.4536 14.9664 17.1567 14.1092 17.3947ZM3.43978 18.8121C3.83754 19.1987 4.42017 19.3919 5.16807 19.3919L12.1597 19.3891C12.9832 19.3891 13.4006 18.9774 13.4006 18.1651C13.4006 17.9746 13.3753 17.7981 13.3249 17.6468C13.2549 17.434 13.2745 17.2043 13.381 17.0082C13.4874 16.8121 13.6695 16.6665 13.8852 16.6076C14.395 16.4648 14.6527 16.0726 14.6527 15.4424C14.6527 15.2491 14.6275 15.0726 14.577 14.9214C14.549 14.8345 14.535 14.7505 14.535 14.6637C14.5378 14.2995 14.7815 13.9802 15.1317 13.8821C15.6359 13.7393 15.8908 13.3471 15.8908 12.7197C15.8908 12.5488 15.8711 12.3919 15.8319 12.2547C15.8123 12.1847 15.8011 12.109 15.8011 12.0362C15.8039 11.5852 16.1709 11.2239 16.6218 11.2239H19.5238C20.4006 11.2239 20.8627 10.7673 20.8627 9.90455C20.8627 9.37514 20.7255 8.66646 19.5154 8.58803H12.1401C11.7703 8.58803 11.4454 8.34153 11.3473 7.98859C11.2493 7.63284 11.4034 7.25749 11.7199 7.07262C12.2465 6.7645 12.5602 6.5208 12.7675 6.26029C12.9328 6.05581 13.0224 5.80651 13.0224 5.55721C13.0224 5.32752 12.9468 5.10903 12.8039 4.93256C12.5266 4.58522 12.0392 4.518 11.5378 4.75329C10.0896 5.43116 7.76751 6.57402 5.90196 7.49279C4.78431 8.04461 3.72549 8.56281 3.40616 8.71127C2.98599 8.90455 2.82073 9.05581 2.82073 9.24629V17.0334C2.82073 17.7953 3.04202 18.4256 3.43978 18.8121Z" fill="#313235"/>
</svg>
