<svg width="24" height="24" viewBox="0 0 24 24" fill="none" xmlns="http://www.w3.org/2000/svg">
<path fill-rule="evenodd" clip-rule="evenodd" d="M5.75849 10.7249L11.652 16.6184C11.7081 16.6717 11.7697 16.7137 11.8397 16.7473C11.9798 16.8089 12.1394 16.8089 12.2795 16.7473C12.3495 16.7137 12.4168 16.6717 12.4756 16.6184L18.2655 10.8285C18.4644 10.6072 18.4644 10.2711 18.2655 10.0498C18.0526 9.81171 17.6829 9.7921 17.4448 10.0078L12.638 14.8145V2.73608C12.638 2.41675 12.3803 2.15625 12.0582 2.15625C11.7361 2.15625 11.4784 2.41675 11.4756 2.73608V14.8117L6.57642 9.90135C6.56895 9.89201 6.55899 9.88267 6.54903 9.87334C6.54405 9.86867 6.53907 9.864 6.5344 9.85933C6.29631 9.64364 5.92936 9.66605 5.71367 9.90415C5.49799 10.1422 5.5204 10.5092 5.75849 10.7249ZM21.8425 17.0582C21.8425 16.7417 21.582 16.4812 21.2627 16.4812C20.9434 16.4812 20.6857 16.7389 20.6885 17.061V20.6857H3.31591V17.061C3.31591 16.7417 3.05541 16.4812 2.73608 16.4812C2.41675 16.4812 2.15625 16.7417 2.15625 17.061V21.2655C2.15625 21.5848 2.41395 21.8425 2.73328 21.8425H21.2655C21.5848 21.8425 21.8425 21.582 21.8425 21.2627V17.0582Z" fill="#313235"/>
</svg>
