<svg width="24" height="24" viewBox="0 0 24 24" fill="none" xmlns="http://www.w3.org/2000/svg">
<path fill-rule="evenodd" clip-rule="evenodd" d="M21.8462 13.8798C21.8462 13.2383 21.6445 12.7762 21.412 12.4596C21.6445 12.1347 21.8462 11.6417 21.849 10.9218C21.849 9.40361 20.6669 8.79857 19.6305 8.74255H16.1375L13.807 8.67252C13.807 8.34488 13.808 7.84241 13.8091 7.26491C13.8107 6.48465 13.8126 5.56743 13.8126 4.75935L13.8182 4.6249L13.821 4.52966C13.821 3.02546 12.9694 2.15991 11.4876 2.15991C10.7145 2.15991 10.0899 2.39241 9.67812 2.83498C9.28596 3.25515 9.10389 3.85179 9.15431 4.55767L9.17392 4.79016C9.18792 4.89381 9.19633 4.99745 9.19913 5.10109C9.22434 6.24395 9.23834 7.68932 9.1263 8.85739C8.98624 10.3168 7.48204 11.1655 6.96103 11.4176C6.73694 11.2019 6.43442 11.0675 6.09829 11.0675H3.40361C2.71734 11.0675 2.15991 11.6277 2.15991 12.314V20.1207C2.15991 20.807 2.71734 21.3672 3.40361 21.3672H6.09829C6.42602 21.3672 6.73974 21.2383 6.97224 21.0058C7.05067 21.0395 7.1347 21.0563 7.22154 21.0591L10.0871 21.0955C10.2792 21.0955 10.5279 21.1654 10.8753 21.2632L10.8966 21.2692L11.1067 21.3308L11.1099 21.3317C11.8825 21.5585 12.8438 21.8406 15.1235 21.8406C18.8882 21.8406 19.6025 21.4456 20.1263 20.0143C20.2131 19.5016 20.2075 19.0871 20.1039 18.7229C20.8826 18.2916 21.3084 17.6389 21.3084 16.8574C21.3084 16.3084 21.1851 15.905 21.0339 15.6165C21.5605 15.1459 21.8462 14.5381 21.8462 13.8798ZM20.5689 12.1823C20.4148 12.3504 20.426 12.6081 20.5913 12.7622C20.8854 13.0311 21.0311 13.4064 21.0283 13.877C21.0283 14.5241 20.6081 14.9498 20.2551 15.1907L20.2448 15.1981C20.236 15.2043 20.2267 15.2108 20.2187 15.2187C20.0479 15.3672 20.0283 15.6221 20.1767 15.793C20.384 16.0311 20.4904 16.4008 20.4904 16.8574C20.4904 17.5577 19.9106 17.9442 19.4232 18.1487L19.3896 18.1655C19.1907 18.272 19.1151 18.5213 19.2215 18.7201C19.3756 19.0058 19.4064 19.3644 19.3392 19.8098C19.0395 20.6221 18.8882 21.0283 15.1207 21.0283C12.9582 21.0283 12.0955 20.7762 11.3336 20.5521L11.1095 20.4876C10.7117 20.3728 10.3924 20.2832 10.0899 20.2832L7.33638 20.2467V20.1711L7.33745 20.1648C7.33985 20.1507 7.34199 20.1382 7.34199 20.1235V12.314C7.34199 12.3056 7.34058 12.2979 7.33918 12.2902C7.33778 12.2825 7.33638 12.2748 7.33638 12.2664V12.1431C8.00865 11.8154 9.75655 10.7958 9.93582 8.93582C10.0507 7.70613 10.0339 6.19913 10.0087 5.02546C10.0073 5.01706 10.0066 5.00865 10.0059 5.00025C10.0052 4.99184 10.0045 4.98344 10.003 4.97504C9.99745 4.8742 9.99185 4.79297 9.98064 4.70613L9.96383 4.50165C9.92742 4.01705 10.0311 3.64451 10.2692 3.3896C10.5213 3.1179 10.9414 2.97504 11.482 2.97504C12.5185 2.97504 13.0002 3.47084 13.0002 4.60529L12.9946 4.72854V4.75095C12.9946 6.61369 12.9862 9.06747 12.9862 9.06747C12.9834 9.28876 13.1599 9.46804 13.3812 9.47644L16.1207 9.55767H19.6025C19.9386 9.57728 21.0283 9.72854 21.0283 10.9218C21.0283 11.4708 20.877 11.8994 20.5913 12.1599L20.5689 12.1823ZM5.49605 13.7481C5.49605 13.2944 5.17952 12.9806 4.72854 12.9806C4.27476 12.9806 3.96103 13.2972 3.96103 13.7481C3.96103 14.1991 4.27756 14.5157 4.72854 14.5157C5.18232 14.5157 5.49605 14.2019 5.49605 13.7481ZM6.09829 20.5549C6.32518 20.5549 6.51285 20.3756 6.52406 20.1459V12.2916C6.51285 12.0647 6.32518 11.8854 6.09829 11.8854H3.40361C3.16551 11.8854 2.97504 12.0787 2.97504 12.3168V20.1263C2.97504 20.3644 3.16832 20.5577 3.40361 20.5577L6.09829 20.5549Z" fill="#313235"/>
</svg>
