<svg width="24" height="24" viewBox="0 0 24 24" fill="none" xmlns="http://www.w3.org/2000/svg">
<path fill-rule="evenodd" clip-rule="evenodd" d="M21.8434 12.0059C21.8434 12.2327 21.6585 12.4176 21.4316 12.4176L18.6053 12.4148V14.0647H21.44C21.6557 14.0759 21.8266 14.2467 21.835 14.4596C21.8434 14.6893 21.6669 14.8798 21.44 14.891H18.6109V17.5381C18.6109 18.1095 18.0815 18.6109 17.4792 18.6109H14.8966V21.4316C14.8966 21.6585 14.7117 21.8434 14.4848 21.8434C14.258 21.8434 14.0731 21.6585 14.0731 21.4316V18.6109H12.4232V21.4316C12.4232 21.6585 12.2383 21.8434 12.0115 21.8434C11.7846 21.8434 11.5997 21.6585 11.5997 21.4316V18.6109H9.94983V21.4316C9.93862 21.6473 9.76776 21.8182 9.55487 21.8266C9.32518 21.835 9.1347 21.6585 9.1235 21.4316V18.6109H6.54086C5.93862 18.6109 5.40921 18.1095 5.40921 17.5381V14.891H2.57168C2.34479 14.891 2.15991 14.7061 2.15991 14.4792C2.15991 14.2523 2.34479 14.0675 2.57168 14.0675H5.40921V12.4176H2.57168C2.34479 12.4176 2.15991 12.2327 2.15991 12.0059C2.15991 11.779 2.34479 11.5941 2.57168 11.5941H5.40921V9.94423H2.57168C2.34479 9.94423 2.15991 9.75935 2.15991 9.53246C2.15991 9.30277 2.34479 9.1179 2.57168 9.1179H5.40641V6.49605C5.40641 5.93022 5.94703 5.41481 6.53806 5.41481H9.1207V2.57168C9.1207 2.34479 9.30557 2.15991 9.53246 2.15991C9.76215 2.15991 9.94703 2.34479 9.94703 2.57168V5.41481H11.5969V2.57168C11.5969 2.34479 11.7818 2.15991 12.0087 2.15991C12.2355 2.15991 12.4204 2.34479 12.4204 2.57168V5.41481H14.0703V2.57168C14.0703 2.34479 14.2552 2.15991 14.482 2.15991C14.7089 2.15991 14.8938 2.34479 14.891 2.57168V5.41762H17.4736C18.0675 5.41762 18.6053 5.93302 18.6053 6.49885V9.1207H21.4344C21.6613 9.1207 21.8462 9.30557 21.8462 9.53246C21.8462 9.75935 21.6613 9.94423 21.4344 9.94423H18.6053V11.5941H21.4316C21.6585 11.5941 21.8434 11.779 21.8434 12.0059ZM17.4736 17.7874C17.6277 17.7874 17.779 17.6473 17.779 17.5409V6.49885C17.779 6.39801 17.6165 6.24395 17.4736 6.24395H6.54086C6.39801 6.24395 6.23554 6.39801 6.23554 6.49885V17.5409C6.23554 17.6501 6.3784 17.7874 6.54086 17.7874H17.4736Z" fill="#313235"/>
</svg>
