<svg width="24" height="24" viewBox="0 0 24 24" fill="none" xmlns="http://www.w3.org/2000/svg">
<path fill-rule="evenodd" clip-rule="evenodd" d="M20.9442 3.08428C21.5521 3.69213 21.8462 4.56047 21.8462 5.73414V18.2916C21.8462 19.4736 21.5521 20.342 20.9358 20.9498C20.328 21.5577 19.4596 21.8546 18.286 21.8546H12.0115C10.8378 21.8546 9.97784 21.5577 9.36159 20.9526C8.82098 20.4204 8.52406 19.6725 8.45963 18.6865V18.1291C8.40643 18.1291 8.35534 18.1312 8.30424 18.1333L8.30417 18.1333C8.25305 18.1354 8.20193 18.1375 8.14871 18.1375C4.36719 18.1347 2.15991 16.2299 2.15991 12.1431C2.15991 8.06467 4.36719 6.15151 8.14871 6.15151C8.20302 6.15151 8.25515 6.1537 8.30621 6.15584C8.3552 6.1579 8.40322 6.15991 8.45123 6.15991V5.73134C8.45123 4.57448 8.74535 3.71173 9.36159 3.09549C9.97784 2.47364 10.8462 2.15991 12.0115 2.15991H18.286C19.468 2.16551 20.3364 2.46804 20.9442 3.08428ZM21.0255 5.73414V18.2916C21.0255 19.2411 20.8126 19.9218 20.3616 20.3644C19.9106 20.8182 19.2383 21.0311 18.286 21.0311H12.0115C11.0675 21.0311 10.3868 20.8154 9.94423 20.3644C9.54086 19.9806 9.32798 19.4036 9.28036 18.6501V18.0675C12.3644 17.7061 14.1375 15.793 14.1375 12.1431C14.1375 8.49325 12.3644 6.58008 9.27196 6.21874V5.73414C9.27196 4.80697 9.49325 4.1347 9.94423 3.67532C10.3952 3.21593 11.0759 2.98624 12.0115 2.98624H18.286C19.2383 2.98624 19.9106 3.20753 20.3616 3.65851C20.8126 4.10949 21.0255 4.79016 21.0255 5.73414ZM13.3168 12.1431C13.3168 15.6221 11.6249 17.314 8.14871 17.314C4.66972 17.314 2.98064 15.6221 2.98064 12.1431C2.98064 8.66411 4.66972 6.97224 8.14871 6.97224C11.6249 6.97224 13.3168 8.66411 13.3168 12.1431ZM10.3252 12.1459L6.80137 14.1823V10.1095L10.3252 12.1459ZM11.3532 11.7902C11.5493 11.905 11.6165 12.1543 11.5016 12.3504C11.4652 12.412 11.4148 12.4624 11.3532 12.4988L6.59689 15.2467C6.47084 15.3196 6.31397 15.3196 6.18792 15.2467C6.06187 15.1739 5.98344 15.0395 5.98344 14.891V9.40081C5.98344 9.17392 6.16832 8.99184 6.39241 8.99184C6.46523 8.99184 6.53526 9.01145 6.59689 9.04787C6.59689 9.04507 11.3532 11.7902 11.3532 11.7902ZM14.0871 18.1347C14.0871 18.4624 14.1795 18.7229 14.3644 18.9106C14.5521 19.1039 14.8238 19.2047 15.1515 19.2019C15.4792 19.2019 15.7509 19.1011 15.9386 18.9106C16.1235 18.7229 16.2159 18.4624 16.2159 18.1347C16.2159 17.468 15.8182 17.0675 15.1515 17.0675C14.4848 17.0675 14.0871 17.4652 14.0871 18.1347Z" fill="#313235"/>
</svg>
