<svg width="24" height="24" viewBox="0 0 24 24" fill="none" xmlns="http://www.w3.org/2000/svg">
<path fill-rule="evenodd" clip-rule="evenodd" d="M14.4168 6.31031L17.5428 9.5204C17.5624 9.5428 17.61 9.59042 17.6352 9.61563C17.7417 9.69967 17.8705 9.73888 17.9938 9.73888C18.1534 9.73888 18.3075 9.67166 18.3971 9.55401L21.5932 6.2823C21.7361 6.10583 21.7641 5.85653 21.6689 5.64925C21.5708 5.44477 21.3747 5.31591 21.1562 5.31591L19.7725 5.30471L19.7697 3.07502C19.7697 2.56801 19.3635 2.15625 18.8649 2.15625H17.1142C16.6156 2.15625 16.2095 2.56801 16.2095 3.07502L16.2123 5.30471L14.8313 5.31591C14.61 5.31591 14.4112 5.44196 14.3159 5.64645C14.2179 5.85093 14.2459 6.10023 14.4168 6.31031ZM2.90695 7.23188C2.90695 6.99659 3.09463 6.80611 3.32712 6.80611H3.92656C3.92274 6.75875 3.91829 6.71201 3.91385 6.66527C3.902 6.54063 3.89014 6.41599 3.89014 6.2795C3.89014 6.24168 3.89365 6.20597 3.89715 6.17026C3.90065 6.13454 3.90415 6.09883 3.90415 6.06101H3.32712C3.09463 6.06101 2.90695 5.87054 2.90695 5.63524C2.90695 5.39995 3.09463 5.20947 3.32712 5.20947H3.99098C4.34112 3.2907 5.68286 2.24028 7.86773 2.24028C8.65485 2.24028 9.34112 2.37474 9.90695 2.64084C10.117 2.74168 10.2095 2.99379 10.1114 3.20667C10.0134 3.41956 9.76409 3.51199 9.55401 3.41395C9.10023 3.20107 8.5316 3.09182 7.86773 3.09182C6.14785 3.09182 5.16185 3.79491 4.84813 5.20947H7.22908C7.46157 5.20947 7.64925 5.39995 7.64925 5.63524C7.64925 5.87054 7.46157 6.06101 7.22908 6.06101H4.74168C4.74048 6.09355 4.73772 6.12401 4.73496 6.15441V6.15442V6.15442V6.15442V6.15442V6.15443V6.15443V6.15443V6.15444V6.15444V6.15444V6.15444C4.73132 6.19469 4.72768 6.23482 4.72768 6.2795C4.72768 6.46445 4.744 6.63036 4.76056 6.79868L4.76129 6.80611H7.22908C7.46157 6.80611 7.64925 6.99659 7.64925 7.23188C7.64925 7.46717 7.46157 7.65765 7.22908 7.65765H4.91815C5.29911 8.86773 6.2739 9.46437 7.86773 9.46437C8.54 9.46437 9.11423 9.35233 9.57082 9.13384C9.7781 9.0358 10.0302 9.12264 10.1282 9.33832C10.2263 9.55121 10.1366 9.80331 9.92656 9.90415C9.35793 10.1759 8.66325 10.3159 7.86493 10.3159C5.80051 10.3159 4.50079 9.37474 4.06381 7.65765H3.32432C3.09463 7.65765 2.90695 7.46717 2.90695 7.23188ZM20.2291 20.7417C20.4588 20.6717 20.9994 20.4756 20.9994 20.2011V19.0134C20.8397 19.0974 20.6661 19.1731 20.4756 19.2319C19.8789 19.414 19.103 19.5148 18.2851 19.5148C17.47 19.5148 16.6913 19.414 16.0946 19.2319C15.8957 19.1703 15.7193 19.0974 15.5596 19.0162V20.1983C15.5596 20.4728 16.0974 20.6689 16.3299 20.7389C17.3747 21.0582 19.1815 21.0582 20.2291 20.7417ZM14.7165 20.2823C14.6184 20.428 14.3635 20.6156 13.949 20.7417C12.9154 21.0582 11.089 21.0582 10.0554 20.7389C9.61843 20.6072 9.36353 20.4252 9.2767 20.2907V18.9742C9.43636 19.0554 9.61003 19.1282 9.81171 19.1899C10.4084 19.3719 11.1871 19.4728 12.0022 19.4728C12.8173 19.4728 13.596 19.3719 14.1927 19.1899C14.3831 19.131 14.5568 19.0526 14.7165 18.9714V20.2823ZM7.66605 20.7417C8.08062 20.6156 8.33552 20.4308 8.43356 20.2823V18.991C8.2795 19.0694 8.10583 19.1394 7.90695 19.2011C7.31031 19.3831 6.5344 19.484 5.71647 19.484C4.90135 19.484 4.12264 19.3831 3.526 19.2011C3.32152 19.1394 3.14785 19.0666 2.99098 18.9882V20.2935C3.07222 20.4224 3.31031 20.6016 3.76689 20.7417C4.80611 21.0582 6.63244 21.0582 7.66605 20.7417ZM3.0414 17.977C3.11423 17.8761 3.29631 17.7221 3.76409 17.5792C4.80611 17.2627 6.62124 17.2627 7.66045 17.5764C7.85373 17.6352 8.25429 17.7809 8.38594 17.9882C8.32152 18.0834 8.14785 18.2375 7.66605 18.3859C6.62964 18.7025 4.81171 18.7025 3.7697 18.3859C3.2711 18.2347 3.10303 18.075 3.0414 17.977ZM10.047 15.2123C9.67726 15.3243 9.42516 15.47 9.32992 15.6156C9.39435 15.7165 9.57082 15.8705 10.0526 16.019C11.0946 16.3355 12.9069 16.3355 13.949 16.019C14.428 15.8705 14.6016 15.7165 14.6689 15.6184C14.5372 15.414 14.1366 15.2683 13.9434 15.2095C12.9098 14.8957 11.0834 14.8957 10.047 15.2123ZM15.6072 13.2851C15.6801 13.1843 15.8621 13.0302 16.3299 12.8873C17.3719 12.5708 19.1871 12.5708 20.2263 12.8873C20.4196 12.9462 20.8201 13.0918 20.9518 13.2963C20.8845 13.3943 20.7109 13.5512 20.2319 13.6969C19.1927 14.0134 17.3747 14.0134 16.3355 13.6969C15.8369 13.5428 15.6689 13.3831 15.6072 13.2851ZM15.5596 16.6492V17.9686C15.6464 18.1058 15.9013 18.2851 16.3355 18.4168C17.3775 18.7333 19.1955 18.7333 20.2319 18.4168C20.6436 18.2907 20.9013 18.103 20.9994 17.9574V16.6464C20.8397 16.7305 20.6661 16.8061 20.4756 16.8649C19.8789 17.047 19.1002 17.1478 18.2851 17.1478C17.47 17.1478 16.6913 17.047 16.0946 16.8649C15.8929 16.8061 15.7193 16.7305 15.5596 16.6492ZM15.5596 14.2991C15.7165 14.3775 15.8901 14.4504 16.0946 14.512C16.6885 14.6941 17.4672 14.7949 18.2823 14.7949C19.0974 14.7949 19.8761 14.6941 20.4728 14.512C20.6717 14.4504 20.8453 14.3803 20.9994 14.3019V15.5932C20.9013 15.7417 20.6464 15.9266 20.2347 16.0526C19.1927 16.3691 17.3775 16.3691 16.3355 16.0526C15.8789 15.9098 15.6408 15.7333 15.5596 15.6044V14.2991ZM9.2767 16.6212V17.9294C9.36073 18.0582 9.59883 18.2347 10.0554 18.3747C11.0946 18.6913 12.9126 18.6913 13.9518 18.3747C14.3635 18.2487 14.6212 18.061 14.7193 17.9154V16.6268C14.5652 16.7053 14.3943 16.7753 14.1955 16.8341C13.596 17.0162 12.8201 17.117 12.005 17.117C11.1899 17.117 10.414 17.0162 9.81451 16.8341C9.61003 16.7753 9.43356 16.7025 9.2767 16.6212ZM21.8397 13.4308C21.8397 13.0022 21.6016 12.4196 20.47 12.0722C19.2739 11.7081 17.2823 11.7081 16.0834 12.075C15.3383 12.3047 14.8901 12.6605 14.7557 13.1338C14.7305 13.2319 14.7165 13.3327 14.7165 13.4336V14.6184C14.5652 14.54 14.3971 14.4672 14.1871 14.4027C12.9966 14.0386 10.991 14.0386 9.80331 14.4027C9.05541 14.6268 8.61003 14.9854 8.47558 15.4588V15.4616C8.45037 15.5568 8.43636 15.6577 8.43636 15.7585V16.9826C8.2851 16.9041 8.11423 16.8313 7.90415 16.7669C6.71087 16.4027 4.71928 16.4027 3.5232 16.7669C2.7781 16.9966 2.32992 17.3523 2.19547 17.8257V17.8285C2.17026 17.9238 2.15625 18.0246 2.15625 18.1254V20.484C2.15625 20.6324 2.23188 20.7557 2.34393 20.8313C2.57642 21.1394 2.97418 21.3915 3.5288 21.5596C4.12264 21.7417 4.90135 21.8425 5.71928 21.8425C6.5372 21.8425 7.31591 21.7417 7.90975 21.5596C8.2935 21.442 8.60723 21.2683 8.84813 21.0638C9.08622 21.2627 9.40275 21.4364 9.81171 21.5596C10.4056 21.7417 11.1843 21.8425 12.0022 21.8425C12.8201 21.8425 13.596 21.7417 14.1927 21.5596C14.5764 21.442 14.8901 21.2683 15.131 21.0638C15.3383 21.2487 15.6436 21.4224 16.089 21.5596C16.6885 21.7389 17.4672 21.8397 18.2795 21.8397C19.0918 21.8397 19.8677 21.7389 20.47 21.5568C21.6016 21.2123 21.8397 20.6296 21.8397 20.2011V13.4308ZM16.4952 6.15065L15.4504 6.15905L17.9854 8.76409L20.5316 6.15905L19.5008 6.15065C19.1731 6.14224 18.9238 5.87054 18.9322 5.54841L18.9294 3.07222C18.9294 3.0358 18.9013 3.00499 18.8649 3.00499H17.1142C17.0778 3.00499 17.0498 3.0358 17.0498 3.07222L17.0526 5.55961C17.061 5.86773 16.8117 6.13944 16.4952 6.15065Z" fill="#313235"/>
</svg>
