<svg width="24" height="24" viewBox="0 0 24 24" fill="none" xmlns="http://www.w3.org/2000/svg">
<path fill-rule="evenodd" clip-rule="evenodd" d="M14.3231 6.23936C14.4155 6.44107 14.6144 6.56995 14.8358 6.57275L16.2226 6.58396L16.2254 8.81407C16.2226 9.31837 16.626 9.72741 17.1303 9.73301H18.8814C19.3801 9.73301 19.7863 9.32117 19.7863 8.81407L19.7835 6.58396L21.1647 6.57275C21.386 6.56995 21.585 6.44107 21.6774 6.23936C21.7727 6.03483 21.7474 5.78549 21.5765 5.57536L18.4499 2.36467C18.3294 2.20778 18.1361 2.12933 17.9428 2.15455C17.7915 2.17416 17.657 2.2498 17.5982 2.33385L14.3987 5.60618C14.2558 5.78549 14.2278 6.03203 14.3231 6.23936ZM2.90355 7.22834C2.90355 6.993 3.09126 6.80249 3.32379 6.80249H3.92335C3.9195 6.75474 3.91501 6.70762 3.91053 6.66056C3.89871 6.53642 3.88693 6.41266 3.88693 6.27858C3.88693 6.235 3.89125 6.19574 3.89557 6.15648C3.89903 6.12508 3.90249 6.09367 3.90374 6.06005H3.32379C3.09126 6.05725 2.90355 5.86674 2.90355 5.6342C2.90355 5.39886 3.09126 5.20835 3.32379 5.20835H3.98779C4.33799 3.28642 5.67718 2.2386 7.86527 2.2386C8.65253 2.2386 9.33894 2.37308 9.90487 2.63923C10.115 2.74009 10.2074 2.99224 10.1094 3.20517C10.0141 3.41529 9.76759 3.51055 9.55747 3.41529C9.55607 3.41529 9.55537 3.41459 9.55466 3.41389C9.55396 3.41319 9.55326 3.41249 9.55186 3.41249C9.098 3.19956 8.52926 3.0903 7.86527 3.0903C6.14506 3.0903 5.15887 3.79351 4.84509 5.20835H7.22649C7.45903 5.20835 7.64674 5.39886 7.64674 5.6342C7.64674 5.86954 7.45903 6.06005 7.22649 6.06005H4.74143C4.74025 6.09077 4.73757 6.1205 4.73487 6.15048C4.73117 6.1916 4.72742 6.23322 4.72742 6.27858C4.72742 6.46357 4.74375 6.62951 4.76031 6.79786L4.76104 6.80529H7.22929C7.46183 6.80529 7.64954 6.9958 7.64954 7.23114C7.64954 7.46648 7.46183 7.65699 7.22929 7.65699H4.91513C5.29896 8.87011 6.27393 9.46406 7.86527 9.46406C8.53767 9.46406 9.112 9.35199 9.56867 9.13346C9.7788 9.0354 10.0281 9.12786 10.1262 9.33798C10.2271 9.55091 10.1346 9.80305 9.92448 9.90391C9.35575 10.1785 8.66094 10.3158 7.86247 10.3158C5.79765 10.3158 4.49769 9.3744 4.06063 7.65699H3.32379C3.09126 7.65419 2.90355 7.46368 2.90355 7.22834ZM18.0072 3.12112L15.4633 5.72665L16.4916 5.73506C16.8137 5.74346 17.0687 6.01242 17.0603 6.33461V6.33741L17.0631 8.81407C17.0631 8.85049 17.0911 8.88131 17.1275 8.88131H18.8814C18.9178 8.88131 18.9458 8.8533 18.9458 8.81687L18.943 6.32621C18.9374 6.00962 19.1867 5.74626 19.5005 5.73506L20.5427 5.72665C20.5455 5.72665 18.0072 3.12112 18.0072 3.12112ZM20.229 20.7435C20.4587 20.6735 20.9994 20.4773 20.9994 20.2028V19.0149C20.8313 19.1045 20.6548 19.1774 20.4755 19.2334C19.8815 19.4155 19.1027 19.5164 18.2846 19.5164C17.4637 19.5164 16.6877 19.4155 16.0937 19.2334C15.9088 19.1774 15.7295 19.1045 15.5586 19.0177V20.2028C15.5586 20.4773 16.0993 20.6735 16.3291 20.7463C17.3741 21.0601 19.1783 21.0601 20.229 20.7435ZM14.7181 20.284C14.62 20.4297 14.3651 20.6174 13.9505 20.7435C12.9082 21.0601 11.0928 21.0601 10.0562 20.7435C9.6191 20.6118 9.36415 20.4325 9.2773 20.2952V18.9757C9.4482 19.0625 9.62751 19.1354 9.81242 19.1914C10.4064 19.3763 11.1852 19.4744 12.0033 19.4744C12.8214 19.4744 13.6002 19.3735 14.1942 19.1914C14.3735 19.1326 14.55 19.0625 14.7181 18.9729V20.284ZM7.66635 20.7435C8.0782 20.6174 8.33315 20.4325 8.434 20.284V18.9925C8.27991 19.0709 8.10621 19.141 7.90729 19.2026C7.31334 19.3847 6.53449 19.4856 5.7164 19.4856C4.89832 19.4856 4.11946 19.3847 3.52551 19.2026C3.3406 19.1466 3.1613 19.0737 2.9904 18.9869V20.2952C3.07165 20.4213 3.30979 20.6006 3.76926 20.7435C4.80867 21.0629 6.62414 21.0629 7.66635 20.7435ZM3.04643 17.9783C3.14729 17.8354 3.39664 17.6897 3.76085 17.5776C4.80307 17.2639 6.61854 17.2639 7.65795 17.5804C7.85126 17.6393 8.2519 17.7822 8.38357 17.9895C8.31914 18.0847 8.14543 18.2388 7.66355 18.3873C6.62974 18.7039 4.80307 18.7039 3.76645 18.3873C3.39384 18.2724 3.14169 18.124 3.04643 17.9783ZM10.045 15.213C9.67514 15.3251 9.42299 15.4736 9.32773 15.6193C9.39217 15.7173 9.56867 15.8742 10.0534 16.0227C11.0928 16.3393 12.9082 16.3393 13.9505 16.0227C14.4295 15.877 14.6032 15.7201 14.6733 15.6221C14.5416 15.4176 14.141 15.2719 13.9477 15.213C12.9026 14.8937 11.0844 14.8937 10.045 15.213ZM15.6118 13.2799C15.6847 13.179 15.8668 13.0278 16.3291 12.8849C17.3713 12.5683 19.1867 12.5683 20.229 12.8849C20.4223 12.9437 20.8229 13.0894 20.9546 13.2939C20.8873 13.392 20.7136 13.5461 20.2346 13.6945C19.1951 14.0111 17.3713 14.0111 16.3347 13.6945C15.9592 13.5797 15.7015 13.4284 15.6118 13.2799ZM15.5586 16.6503V17.9699C15.6455 18.1071 15.9004 18.2865 16.3375 18.4181C17.3741 18.7347 19.1979 18.7347 20.2346 18.4181C20.6492 18.2921 20.9042 18.1043 21.0022 17.9587V16.6475C20.8341 16.7371 20.6576 16.81 20.4783 16.866C19.8815 17.0481 19.1027 17.1462 18.2874 17.1462C17.4721 17.1462 16.6933 17.0481 16.0965 16.866C15.9088 16.81 15.7295 16.7371 15.5586 16.6503ZM15.5586 14.2941C15.7295 14.381 15.906 14.4538 16.0909 14.5098C16.6877 14.6919 17.4637 14.7928 18.2846 14.7956C19.1027 14.7956 19.8815 14.6947 20.4755 14.5126C20.6744 14.451 20.8425 14.381 20.9994 14.3025V15.5941C20.9013 15.7398 20.6464 15.9247 20.2346 16.0507C19.1895 16.3673 17.3769 16.3673 16.3347 16.0507C15.8752 15.9107 15.6398 15.7285 15.5586 15.6025V14.2941ZM9.2745 16.6223V17.9278C9.35575 18.0567 9.59389 18.236 10.0534 18.3761C11.09 18.6927 12.9138 18.6927 13.9505 18.3761C14.4127 18.236 14.6369 18.0399 14.7181 17.9194V16.6279C14.55 16.7119 14.3735 16.782 14.1914 16.838C13.5946 17.0201 12.8158 17.121 12.0005 17.121C11.1852 17.121 10.4092 17.0229 9.80962 16.838C9.62471 16.782 9.4454 16.7091 9.2745 16.6223ZM21.8399 13.4256C21.8399 12.9969 21.6018 12.417 20.4699 12.0696C19.2736 11.7054 17.2816 11.7054 16.0853 12.0668C15.3401 12.2965 14.8918 12.6523 14.7573 13.1258C14.7321 13.2239 14.7181 13.3219 14.7181 13.4256V14.6107C14.55 14.5238 14.3707 14.451 14.1886 14.395C12.9923 14.0307 10.9947 14.0307 9.80401 14.395C9.05597 14.6247 8.61051 14.9777 8.47603 15.454C8.44801 15.552 8.434 15.6501 8.434 15.7538V16.9781C8.27991 16.8996 8.11181 16.8268 7.90169 16.7624C6.70819 16.3981 4.71621 16.3981 3.51991 16.7624C2.77467 16.9921 2.32921 17.3479 2.19193 17.8186L2.18913 17.8242C2.16391 17.9194 2.1499 18.0203 2.1499 18.1212V20.4857C2.1499 20.6258 2.21994 20.7547 2.33761 20.8332C2.57015 21.1385 2.96798 21.3907 3.52551 21.5616C4.12226 21.7437 4.90112 21.8445 5.7164 21.8445C6.53168 21.8445 7.31054 21.7437 7.90729 21.5616C8.29112 21.4467 8.60491 21.2702 8.84585 21.0657C9.08399 21.2646 9.40057 21.4383 9.80962 21.5616C10.4092 21.7437 11.1852 21.8445 12.0005 21.8445C12.8158 21.8445 13.5918 21.7437 14.1914 21.5616C14.536 21.4607 14.8554 21.2926 15.1299 21.0657C15.3373 21.2506 15.6427 21.4243 16.0881 21.5616C16.6877 21.7409 17.4665 21.8417 18.279 21.8417C19.0915 21.8417 19.8675 21.7409 20.4699 21.5588C21.6018 21.2114 21.8399 20.6286 21.8399 20.2V13.4256Z" fill="#313235"/>
</svg>
