<svg width="24" height="24" viewBox="0 0 24 24" fill="none" xmlns="http://www.w3.org/2000/svg">
<path fill-rule="evenodd" clip-rule="evenodd" d="M20.7713 16.2935C20.931 16.2039 21.1299 16.2263 21.2643 16.3495C21.3988 16.47 21.4408 16.6661 21.3624 16.8285C19.2615 21.3607 14.3344 21.7921 12.8722 21.8173C12.6145 21.8257 12.2951 21.8257 11.9982 21.8257C3.00383 21.6745 2.55005 13.582 2.55005 11.963C2.55005 2.97138 9.72932 2.18426 11.931 2.15625L12.8274 2.16465C13.4296 2.17866 14.029 2.24308 14.6229 2.35233C14.819 2.38874 14.9646 2.55961 14.9674 2.75849C14.9702 2.95737 14.8302 3.13104 14.6341 3.17306C12.2923 3.67166 9.50243 5.2823 9.50243 10.1142C9.50243 16.6633 14.7321 17.2571 16.3344 17.2823H16.3344C16.5585 17.2823 16.805 17.2823 17.0066 17.2739C17.805 17.2543 19.3428 17.103 20.7713 16.2935ZM12.0066 20.9938C12.2867 20.9938 12.5977 20.9938 12.8526 20.9854C14.0655 20.963 17.8554 20.6436 19.973 17.5708C18.7909 17.9966 17.6789 18.0918 17.029 18.1086C16.8246 18.117 16.5669 18.117 16.326 18.117H16.326C15.0402 18.0974 8.65929 17.6156 8.65929 10.1142C8.65929 5.91255 10.6509 3.93216 12.5641 2.99939L11.9338 2.99379C9.9338 3.019 3.39038 3.73888 3.39038 11.9658C3.39038 20.2095 9.98422 20.9602 12.0066 20.9938Z" fill="#313235"/>
</svg>
