<svg width="24" height="24" viewBox="0 0 24 24" fill="none" xmlns="http://www.w3.org/2000/svg">
<path fill-rule="evenodd" clip-rule="evenodd" d="M5.16745 16.6408H15.2655V17.0218C15.2655 18.2431 15.8593 18.8369 17.0806 18.8369H20.019C21.2403 18.8369 21.8341 18.2431 21.8341 17.019V10.5288C21.8341 9.91815 21.6857 9.47278 21.3831 9.16745C21.0778 8.86213 20.6324 8.71367 20.019 8.71367H18.5484V8.42796C18.5484 7.38314 18.3047 6.57642 17.8285 6.0302C17.3215 5.45037 16.5512 5.15625 15.5372 5.15625H5.16745C4.15345 5.15625 3.38314 5.45037 2.87614 6.0302C2.39715 6.57642 2.15625 7.38314 2.15625 8.42796V13.3691C2.15625 14.414 2.39995 15.2207 2.87614 15.7669C3.38314 16.3467 4.15345 16.6408 5.16745 16.6408ZM5.16745 16.0806H15.2655V10.5316C15.2655 9.92936 15.414 9.48958 15.7193 9.17866C16.0274 8.86773 16.4728 8.71367 17.0806 8.71367H17.9882V8.42796C17.9882 6.57642 17.2095 5.71367 15.5372 5.71367H5.16745C3.49519 5.71367 2.71647 6.57642 2.71647 8.42796V13.3663C2.71647 15.2179 3.49519 16.0806 5.16745 16.0806ZM7.62404 18.8425H13.0862C13.2403 18.8425 13.3663 18.7165 13.3663 18.5624C13.3663 18.4083 13.2403 18.2823 13.0862 18.2823H7.62404C7.46998 18.2823 7.34392 18.4083 7.34392 18.5624C7.34392 18.7165 7.46998 18.8425 7.62404 18.8425ZM15.8257 10.5316C15.8257 9.64084 16.1899 9.2767 17.0806 9.2767H20.019C20.921 9.2767 21.2739 9.62684 21.2739 10.5316V17.0218C21.2739 17.9238 20.9238 18.2767 20.019 18.2767H17.0806C16.1787 18.2767 15.8257 17.9266 15.8257 17.0218V10.5316ZM18.0834 16.9322C18.0834 16.61 18.2683 16.4616 18.5512 16.4616C18.8341 16.4616 19.0162 16.61 19.019 16.9322C19.019 17.0862 18.977 17.1983 18.9013 17.2767C18.8173 17.3607 18.6997 17.3999 18.5512 17.3999C18.4027 17.3999 18.2823 17.3607 18.2011 17.2767C18.1254 17.2011 18.0834 17.0862 18.0834 16.9322Z" fill="#313235"/>
</svg>
