<svg width="24" height="24" viewBox="0 0 24 24" fill="none" xmlns="http://www.w3.org/2000/svg">
<path fill-rule="evenodd" clip-rule="evenodd" d="M4.0505 4.73254C4.3082 4.99864 4.69196 5.1387 5.15414 5.1387C5.61633 5.1387 6.00288 4.99584 6.25778 4.73254C6.51269 4.46923 6.64154 4.10508 6.64154 3.6429C6.64154 2.70733 6.08692 2.1499 5.15414 2.1499C4.22137 2.1499 3.66675 2.70733 3.66675 3.6429C3.66675 4.10508 3.7928 4.46643 4.0505 4.73254ZM4.22697 3.6429C4.22697 3.01545 4.52949 2.71013 5.15414 2.71013C5.77879 2.71013 6.08131 3.01545 6.08131 3.6429C6.08131 3.95382 6.01129 4.18352 5.85722 4.34038C5.70316 4.49724 5.46787 4.57567 5.15414 4.57567C4.84042 4.57567 4.59952 4.49444 4.45106 4.34038C4.3026 4.18632 4.22697 3.95382 4.22697 3.6429ZM8.70596 5.1387C8.24378 5.1387 7.86283 4.99864 7.60232 4.73254C7.34182 4.46643 7.21857 4.10508 7.21857 3.6429C7.21857 2.70733 7.77599 2.1499 8.70596 2.1499C9.63594 2.1499 10.1934 2.70733 10.1934 3.6429C10.1934 4.10508 10.0645 4.46923 9.80961 4.73254C9.5547 4.99584 9.16815 5.1387 8.70596 5.1387ZM7.77879 3.6429C7.77879 3.01545 8.08131 2.71013 8.70596 2.71013C9.33061 2.71013 9.63313 3.01545 9.63313 3.6429C9.63313 3.95382 9.56311 4.18352 9.40905 4.34038C9.25498 4.49724 9.01969 4.57567 8.70596 4.57567C8.39224 4.57567 8.15134 4.49444 8.00288 4.34038C7.85442 4.18632 7.77879 3.95382 7.77879 3.6429ZM12.255 5.1387C11.7928 5.1387 11.4118 4.99864 11.1513 4.73254C10.8908 4.46643 10.7676 4.10508 10.7676 3.6429C10.7676 2.70733 11.3222 2.1499 12.255 2.1499C13.1878 2.1499 13.7424 2.70733 13.7424 3.6429C13.7424 4.10508 13.6135 4.46923 13.3586 4.73254C13.1037 4.99584 12.7172 5.1387 12.255 5.1387ZM11.3278 3.6429C11.3278 3.01545 11.6303 2.71013 12.255 2.71013C12.8796 2.71013 13.1822 3.01545 13.1822 3.6429C13.1822 3.95382 13.1121 4.18352 12.9581 4.34038C12.804 4.49724 12.5687 4.57567 12.255 4.57567C11.9413 4.57567 11.7004 4.49444 11.5519 4.34038C11.4034 4.18632 11.3278 3.95382 11.3278 3.6429ZM5.15414 8.41601C4.69196 8.41601 4.3082 8.27595 4.0505 8.00985C3.7928 7.74374 3.66675 7.3824 3.66675 6.92021C3.66675 5.98464 4.22417 5.42721 5.15414 5.42721C6.08412 5.42721 6.64154 5.98464 6.64154 6.92021C6.64154 7.3824 6.51269 7.74654 6.25778 8.00985C6.00288 8.27315 5.61633 8.41601 5.15414 8.41601ZM4.22697 6.92021C4.22697 6.29276 4.52949 5.98744 5.15414 5.98744C5.77879 5.98744 6.08131 6.29276 6.08131 6.92021C6.08131 7.22833 6.01129 7.46083 5.85722 7.61769C5.70316 7.77455 5.46787 7.85298 5.15414 7.85298C4.84042 7.85298 4.59952 7.77175 4.45106 7.61769C4.3026 7.46363 4.22697 7.23113 4.22697 6.92021ZM8.70596 8.41601C8.24378 8.41601 7.86283 8.27595 7.60232 8.00985C7.34182 7.74374 7.21857 7.3824 7.21857 6.92021C7.21857 5.98464 7.77599 5.42721 8.70596 5.42721C9.63594 5.42721 10.1934 5.98464 10.1934 6.92021C10.1934 7.3824 10.0645 7.74654 9.80961 8.00985C9.5547 8.27315 9.16815 8.41601 8.70596 8.41601ZM7.77879 6.92021C7.77879 6.29276 8.08131 5.98744 8.70596 5.98744C9.33061 5.98744 9.63313 6.29276 9.63313 6.92021C9.63313 7.22833 9.56311 7.46083 9.40905 7.61769C9.25498 7.77455 9.01969 7.85298 8.70596 7.85298C8.39224 7.85298 8.15134 7.77175 8.00288 7.61769C7.85442 7.46363 7.77879 7.23113 7.77879 6.92021ZM11.7088 21.8278H18.1569C18.8936 21.8278 19.5183 21.6065 19.9104 21.2059C20.3026 20.8054 20.5015 20.2367 20.5015 19.514V13.5056C20.5015 12.6233 19.9777 12.0939 19.0953 12.0939C18.7564 12.0939 18.4679 12.1723 18.2438 12.3208C18.1822 11.5337 17.6695 11.0687 16.8432 11.0687C16.5015 11.0687 16.213 11.1471 15.9889 11.2956C15.9245 10.514 15.4118 10.0547 14.5883 10.0547C14.2522 10.0547 13.9665 10.1331 13.7424 10.2788V6.92301C13.7424 5.98744 13.1878 5.43001 12.255 5.43001C11.3614 5.43001 10.8348 5.95382 10.7732 6.9062V6.92301L10.7731 7.08751V7.08825C10.7727 8.1546 10.7706 14.0149 10.7732 14.3936C10.776 14.4328 10.7704 14.4692 10.7592 14.5056C10.7228 14.472 10.6639 14.4076 10.5911 14.2732C10.5323 14.1667 10.4763 14.0603 10.4203 13.9539L10.4202 13.9538C10.0757 13.3012 9.75078 12.6877 9.40344 12.4132C8.93005 12.0407 8.26059 12.0267 7.81241 12.3852C7.46787 12.6569 7.21857 13.2003 7.5519 13.9006C8.24938 15.3712 9.63874 18.374 10.3838 19.9874L10.5893 20.4316L10.5899 20.4329L10.5903 20.4337L10.5905 20.4342C10.7435 20.7649 10.8539 21.0036 10.9076 21.1191C11.0813 21.486 11.297 21.8278 11.7088 21.8278ZM8.15694 12.8222C8.27459 12.7297 8.41745 12.6793 8.56591 12.6821C8.74238 12.6849 8.91325 12.7437 9.0561 12.8558C9.30821 13.0547 9.62193 13.6457 9.92445 14.2171C9.95247 14.2704 9.98118 14.3243 10.0099 14.3782C10.0386 14.4321 10.0673 14.486 10.0953 14.5393C10.4006 15.1079 10.7312 15.1191 10.902 15.0771C11.1653 15.0098 11.3334 14.7409 11.3334 14.3908C11.331 14.045 11.3327 9.15992 11.3332 7.48244V7.48048L11.3334 6.93142C11.3782 6.27035 11.6555 5.98744 12.2578 5.98744C12.8824 5.98744 13.185 6.29276 13.185 6.92021V11.4664H13.7452C13.7452 10.895 14.0225 10.6149 14.5911 10.6149C15.1597 10.6149 15.4371 10.8922 15.4371 11.4664V12.4804H15.9973C15.9973 11.909 16.2746 11.6289 16.8432 11.6289C17.4118 11.6289 17.6892 11.9062 17.6892 12.4804V13.5056H18.2494C18.2494 12.9342 18.5267 12.6541 19.0953 12.6541C19.6639 12.6541 19.9413 12.9314 19.9413 13.5056V19.5056C19.9413 20.0771 19.7984 20.514 19.5099 20.8082C19.2214 21.1023 18.7396 21.2647 18.1541 21.2647H11.706C11.6752 21.2647 11.5939 21.2647 11.4146 20.881C11.3478 20.74 11.1936 20.4066 10.979 19.9427L10.9786 19.9419L10.9783 19.9411L10.9779 19.9403L10.8908 19.7521C10.1457 18.1387 8.75358 15.1331 8.0561 13.6597C7.88804 13.3124 7.92725 13.0042 8.15694 12.8222ZM5.15414 11.6933C4.69196 11.6933 4.3082 11.5533 4.0505 11.2872C3.7928 11.0211 3.66675 10.6597 3.66675 10.1975C3.66675 9.26195 4.22417 8.70172 5.15414 8.70172C6.08412 8.70172 6.64154 9.25915 6.64154 10.1947C6.64154 10.6569 6.51269 11.0211 6.25778 11.2844C6.00288 11.5477 5.61633 11.6933 5.15414 11.6933ZM4.22697 10.1975C4.22697 9.57007 4.52949 9.26475 5.15414 9.26475C5.77879 9.26475 6.08131 9.57007 6.08131 10.1975C6.08131 10.5084 6.01129 10.7381 5.85722 10.895C5.70316 11.0519 5.46787 11.1303 5.15414 11.1303C4.84042 11.1303 4.59952 11.0491 4.45106 10.895C4.3026 10.7409 4.22697 10.5056 4.22697 10.1975ZM8.70596 11.6933C8.24378 11.6933 7.86283 11.5533 7.60232 11.2872C7.34182 11.0211 7.21857 10.6597 7.21857 10.1975C7.21857 9.26195 7.77599 8.70452 8.70596 8.70452C9.63594 8.70452 10.1934 9.26195 10.1934 10.1975C10.1934 10.6597 10.0645 11.0239 9.80961 11.2872C9.5547 11.5505 9.16815 11.6933 8.70596 11.6933ZM8.70596 9.26475C8.08131 9.26475 7.77879 9.57007 7.77879 10.1975C7.77879 10.5056 7.85442 10.7409 8.00288 10.895C8.15134 11.0491 8.39224 11.1303 8.70596 11.1303C9.01969 11.1303 9.25498 11.0519 9.40905 10.895C9.56311 10.7381 9.63313 10.5084 9.63313 10.1975C9.63313 9.57007 9.33061 9.26475 8.70596 9.26475Z" fill="#313235"/>
</svg>
