<svg width="24" height="24" viewBox="0 0 24 24" fill="none" xmlns="http://www.w3.org/2000/svg">
<path fill-rule="evenodd" clip-rule="evenodd" d="M10.6278 20.3677C10.9813 21.0078 11.3443 21.6653 11.909 21.6653C12.4748 21.6653 12.8418 21.0014 13.1975 20.3516L13.1984 20.35C13.4112 19.9636 13.702 19.4355 13.9146 19.3796C14.1437 19.3181 14.6739 19.6385 15.063 19.8736L15.0659 19.8754C15.7101 20.2647 16.318 20.6317 16.7914 20.3572C17.2704 20.0799 17.2563 19.3628 17.2395 18.6037C17.2283 18.1555 17.2171 17.5393 17.3796 17.3768C17.5397 17.2167 18.1408 17.228 18.5871 17.2364L18.6065 17.2367L18.6108 17.2368C19.3683 17.2536 20.0832 17.2694 20.36 16.7886C20.6345 16.3152 20.2675 15.7073 19.8782 15.0631C19.6429 14.6765 19.3208 14.1443 19.3824 13.9118C19.4383 13.6992 19.9664 13.4084 20.3528 13.1956L20.3544 13.1947C20.9986 12.8418 21.6625 12.4748 21.6625 11.9062C21.6625 11.3376 20.9958 10.9706 20.3516 10.6177L20.35 10.6168C19.9636 10.404 19.4355 10.1132 19.3796 9.9006C19.3181 9.67148 19.6385 9.14135 19.8736 8.75226L19.8754 8.74934C20.2647 8.10508 20.6317 7.49724 20.3572 7.02385C20.0799 6.54486 19.3628 6.55887 18.6037 6.57567C18.1555 6.58688 17.5393 6.59808 17.3768 6.43562C17.2167 6.27548 17.228 5.67445 17.2364 5.22806L17.2367 5.20873L17.2368 5.2044C17.2536 4.4469 17.2694 3.73201 16.7886 3.45522C16.3152 3.18071 15.7073 3.54766 15.0631 3.93702C14.6765 4.17231 14.1443 4.49444 13.9118 4.43282C13.6992 4.37687 13.4084 3.84879 13.1956 3.46237L13.1947 3.46083L13.1927 3.4572C12.8404 2.81407 12.4766 2.1499 11.909 2.1499C11.3455 2.1499 10.9829 2.80451 10.6275 3.44599L10.6177 3.46363L10.6168 3.46518C10.404 3.8516 10.1132 4.37967 9.9006 4.43562C9.67148 4.49709 9.14135 4.17672 8.75226 3.94158L8.74934 3.93982C8.10508 3.55046 7.49724 3.18352 7.02385 3.45803C6.54486 3.73534 6.55887 4.45242 6.57567 5.21153C6.58688 5.65971 6.59808 6.27595 6.43562 6.43842C6.27548 6.59856 5.67445 6.58724 5.22807 6.57884L5.20873 6.57847L5.2044 6.57838C4.4469 6.5616 3.73201 6.54578 3.45522 7.02665C3.18071 7.50004 3.54766 8.10789 3.93702 8.75214C4.17231 9.1387 4.49444 9.67371 4.43282 9.9034C4.37687 10.116 3.84879 10.4068 3.46237 10.6196L3.46083 10.6205L3.45685 10.6227C2.81383 10.9777 2.1499 11.3443 2.1499 11.909C2.1499 12.4748 2.81657 12.8418 3.46083 13.1947L3.46237 13.1956C3.84879 13.4084 4.37687 13.6992 4.43282 13.9118C4.49429 14.1409 4.17392 14.6711 3.93878 15.0601L3.93702 15.0631L3.93242 15.0707C3.54756 15.7121 3.18461 16.3171 3.45803 16.7914C3.73534 17.2704 4.45242 17.2563 5.21153 17.2395C5.65971 17.2283 6.27595 17.2171 6.43842 17.3796C6.59856 17.5397 6.58724 18.1408 6.57884 18.5871L6.57847 18.6065L6.57838 18.6108C6.5616 19.3683 6.54578 20.0832 7.02665 20.36C7.50004 20.6345 8.10789 20.2675 8.75214 19.8782C9.1387 19.6429 9.67371 19.3208 9.9034 19.3824C10.116 19.4383 10.4068 19.9664 10.6196 20.3528L10.6205 20.3544L10.6278 20.3677ZM10.0491 18.8418C9.98183 18.825 9.91181 18.8166 9.84178 18.8166C9.42721 18.8166 8.95662 19.0995 8.46363 19.3964C8.07987 19.6289 7.49724 19.9818 7.30957 19.8726C7.11349 19.7605 7.12749 19.0715 7.1387 18.6149L7.1388 18.6101C7.15277 17.9424 7.16591 17.3144 6.83338 16.9818C6.50078 16.6492 5.86981 16.6624 5.20199 16.6764L5.19752 16.6765L5.18837 16.6767C4.73179 16.6851 4.05112 16.6976 3.93982 16.5056C3.83255 16.3214 4.17091 15.759 4.40329 15.3727L4.41601 15.3516C4.76615 14.7746 5.09668 14.2283 4.97343 13.7661C4.85612 13.3248 4.31271 13.0256 3.73475 12.7073L3.72973 12.7045C3.32357 12.4832 2.71013 12.1443 2.71013 11.909C2.71013 11.676 3.31183 11.344 3.71796 11.12L3.72973 11.1135L3.74803 11.1034C4.31833 10.7878 4.85703 10.4897 4.97343 10.0491C5.09668 9.58968 4.76615 9.04066 4.41601 8.46363C4.18352 8.07987 3.83057 7.49724 3.93982 7.30957C4.05186 7.11349 4.74094 7.12749 5.19752 7.1387L5.20268 7.13881C5.87301 7.15277 6.5009 7.16586 6.83338 6.83338C7.16597 6.50079 7.15276 5.86981 7.13879 5.202L7.1387 5.19752L7.13853 5.18837C7.13012 4.73178 7.11758 4.05112 7.30957 3.93982C7.49239 3.83179 8.06418 4.17573 8.45068 4.40822L8.46363 4.41601C9.04066 4.76615 9.58688 5.09668 10.0491 4.97343C10.4932 4.85612 10.7924 4.31269 11.1107 3.73472L11.1135 3.72973C11.3348 3.32357 11.6709 2.71573 11.9062 2.71573C12.1392 2.71573 12.4712 3.31743 12.6952 3.72356L12.7017 3.73534L12.7053 3.74183C13.0205 4.31648 13.3196 4.86183 13.7633 4.97903C14.2219 5.10207 14.7671 4.77288 15.3458 4.42341L15.3488 4.42161C15.7325 4.18912 16.3152 3.83618 16.5028 3.94542C16.695 4.05522 16.6827 4.71647 16.6742 5.1726L16.6737 5.20032L16.6736 5.20549C16.6596 5.87582 16.6466 6.5037 16.979 6.83618C17.3116 7.16877 17.9426 7.15557 18.6104 7.14159L18.6149 7.1415L18.624 7.14133C19.0806 7.13292 19.7613 7.12038 19.8726 7.31237C19.9806 7.49519 19.6367 8.06698 19.4042 8.45348L19.3964 8.46643C19.0463 9.04346 18.7157 9.58968 18.839 10.0519C18.9563 10.4932 19.4997 10.7924 20.0777 11.1107L20.0827 11.1135C20.4888 11.3348 21.1023 11.6737 21.1023 11.909C21.1023 12.142 20.5006 12.474 20.0945 12.698L20.0827 12.7045L20.0762 12.7081C19.5015 13.0233 18.9562 13.3224 18.839 13.7661C18.7159 14.2247 19.0451 14.7699 19.3946 15.3486L19.3964 15.3516C19.6289 15.7353 19.9818 16.318 19.8726 16.5056C19.7628 16.6978 19.0985 16.6855 18.6423 16.677L18.6149 16.6765L18.6104 16.6764C17.9426 16.6624 17.3116 16.6492 16.979 16.9818C16.6464 17.3144 16.6596 17.9454 16.6736 18.6132L16.6737 18.6177L16.6739 18.6269C16.6823 19.0834 16.6948 19.7641 16.5028 19.8754C16.3186 19.9827 15.7562 19.6443 15.3699 19.4119L15.3488 19.3992C14.7718 19.0491 14.2255 18.7185 13.7633 18.8418C13.322 18.9591 13.0228 19.5025 12.7045 20.0805L12.7017 20.0855C12.4804 20.4916 12.1415 21.1051 11.9062 21.1051C11.6732 21.1051 11.3412 20.5034 11.1172 20.0973L11.1107 20.0855L11.1071 20.079C10.7919 19.5043 10.4928 18.959 10.0491 18.8418Z" fill="#313235"/>
</svg>
