<svg width="24" height="24" viewBox="0 0 24 24" fill="none" xmlns="http://www.w3.org/2000/svg">
<path fill-rule="evenodd" clip-rule="evenodd" d="M21.8426 19.6156L21.8229 13.6717C21.8594 12.9966 21.6689 12.4168 21.2683 11.9938C20.963 11.6689 20.5456 11.456 20.0638 11.3747L20.0627 11.3734L20.0619 11.3721L20.061 11.3705L20.0597 11.3681L20.0582 11.3663L13.4812 4.80891C13.6465 4.54561 13.7445 4.23748 13.7445 3.90415C13.7445 2.94056 12.9602 2.15625 11.9994 2.15625C11.0358 2.15625 10.2543 2.94056 10.2543 3.90415C10.2543 4.22348 10.3468 4.5372 10.5148 4.80891L3.98261 11.3439C3.97571 11.3491 3.972 11.3564 3.9682 11.3639C3.96583 11.3685 3.96343 11.3732 3.9602 11.3775C3.52322 11.4588 3.11706 11.6717 2.80333 11.9882C2.38597 12.4056 2.15347 12.9714 2.15628 13.5596L2.17588 19.5036C2.13947 20.1787 2.32994 20.7585 2.7277 21.1815C3.12266 21.6016 3.70529 21.8369 4.36916 21.8425L19.6269 21.8397C20.2151 21.8397 20.7809 21.6044 21.1955 21.1871C21.6129 20.7697 21.8454 20.2039 21.8426 19.6156ZM11.1199 3.95177C11.0918 3.43916 11.4868 3.00219 11.9994 2.97418C12.4756 2.99939 12.8566 3.38034 12.879 3.85653C12.907 4.36914 12.512 4.80611 11.9994 4.83132C11.5232 4.80891 11.1451 4.42796 11.1199 3.95177ZM21.0246 19.6184C21.0246 19.9938 20.879 20.3439 20.6157 20.61C20.3496 20.8733 19.9994 21.019 19.6297 21.019L4.37756 21.0246C3.93499 21.0218 3.57084 20.8817 3.32714 20.624C3.08625 20.3663 2.9714 19.9966 2.99661 19.526L2.977 13.5596C2.977 13.1843 3.11986 12.8341 3.38597 12.568C3.64927 12.3019 4.00221 12.1562 4.37476 12.1562L19.6269 12.1534C20.0694 12.1562 20.4308 12.2935 20.6745 12.554C20.9154 12.8117 21.0302 13.1815 21.005 13.652L21.0246 19.6184ZM11.9994 5.64925C11.6661 5.64925 11.358 5.55121 11.0918 5.38594L5.14787 11.3355L18.8678 11.3327L12.907 5.38874C12.6409 5.55121 12.3327 5.64925 11.9994 5.64925ZM6.99661 17.5624C7.2207 17.5624 7.64087 17.5624 7.64087 16.4252C7.64087 15.2795 7.2235 15.2795 6.99661 15.2795C6.76972 15.2795 6.34955 15.2795 6.34955 16.4252C6.34955 17.5624 6.76972 17.5624 6.99661 17.5624ZM8.39437 16.4252C8.39437 14.7781 7.52042 14.5316 6.99661 14.5316C6.47 14.5316 5.59325 14.7781 5.59325 16.4252C5.59325 17.9854 6.35796 18.3131 6.99661 18.3131C7.63527 18.3131 8.39437 17.9882 8.39437 16.4252ZM10.6633 16.2207C10.7193 16.1562 10.7529 16.0666 10.7529 15.8257C10.7529 15.638 10.7165 15.4868 10.6493 15.4112C10.6269 15.3859 10.5456 15.3243 10.2879 15.3243H9.89857V16.3075H10.3439C10.5876 16.3047 10.6269 16.2627 10.6633 16.2207ZM11.2039 14.9013C11.0078 14.6913 10.7165 14.5904 10.3075 14.5904C10.3075 14.5904 9.4616 14.5904 9.45599 14.5876C9.28513 14.5876 9.14787 14.7277 9.14787 14.8957V17.9462C9.14787 18.117 9.28793 18.2543 9.45599 18.2543H9.59045C9.76132 18.2543 9.89857 18.1142 9.89857 17.9462V17.0386H10.4C10.7641 17.0386 11.0358 16.9294 11.2263 16.7081C11.4168 16.4952 11.5092 16.2039 11.5092 15.8145C11.5092 15.4224 11.4084 15.1142 11.2039 14.9013ZM14.0302 17.5176C14.1983 17.5176 14.3383 17.6549 14.3383 17.8257V17.9462C14.3383 18.1142 14.2011 18.2543 14.0302 18.2543H12.5288C12.3608 18.2543 12.2207 18.117 12.2207 17.9462V14.8957C12.2207 14.7277 12.358 14.5876 12.5288 14.5876H13.9854C14.1535 14.5876 14.2935 14.7249 14.2935 14.8929C14.2935 14.9154 14.2907 14.9378 14.2851 14.9602L14.2571 15.0806C14.2263 15.2207 14.1003 15.3215 13.9574 15.3215H12.9686V16.0274H13.7445C13.9126 16.0274 14.0526 16.1647 14.0526 16.3355V16.456C14.0526 16.624 13.9154 16.7641 13.7445 16.7641H12.9686V17.5176H14.0302ZM17.7473 14.8985C17.7473 14.7277 17.6101 14.5904 17.4392 14.5904C17.4392 14.5904 17.3159 14.5904 17.3187 14.5848C17.1479 14.5848 17.0106 14.7249 17.0106 14.8929V16.6549L15.7305 14.7249C15.6745 14.638 15.5792 14.5876 15.4756 14.5876H15.3776C15.2067 14.5876 15.0694 14.7277 15.0694 14.8957V17.9518C15.0694 18.1226 15.2095 18.2599 15.3776 18.2599H15.5036C15.6745 18.2599 15.8117 18.1198 15.8117 17.9518V16.1899L17.0834 18.1198C17.1395 18.2067 17.2347 18.2571 17.3383 18.2571H17.4392C17.6101 18.2571 17.7473 18.117 17.7473 17.949V14.8985Z" fill="#313235"/>
</svg>
