<svg width="24" height="24" viewBox="0 0 24 24" fill="none" xmlns="http://www.w3.org/2000/svg">
<path fill-rule="evenodd" clip-rule="evenodd" d="M11.9974 21.8378C5.56327 21.8378 2.15991 18.4372 2.15991 12.0002C2.15991 5.56327 5.56047 2.15991 11.9974 2.15991C15.1375 2.15991 17.5717 2.97224 19.2355 4.57728C20.961 6.24114 21.8378 8.73974 21.8378 12.0002C21.8406 18.4344 18.4372 21.8378 11.9974 21.8378ZM11.9974 2.72014C5.84339 2.72014 2.72014 5.84339 2.72014 12.0002C2.72014 18.1543 5.84058 21.2776 11.9974 21.2776C18.1571 21.2776 21.2776 18.1571 21.2776 12.0002C21.2804 5.84058 18.1571 2.72014 11.9974 2.72014ZM14.9974 16.4232C14.8434 16.4232 14.7173 16.2972 14.7173 16.1431V7.80977C14.7173 7.65571 14.8434 7.52966 14.9974 7.52966C15.1515 7.52966 15.2776 7.65571 15.2776 7.80977V16.1431C15.2776 16.2972 15.1515 16.4232 14.9974 16.4232ZM8.95263 16.4512C8.79857 16.4512 8.67252 16.3252 8.67252 16.1711V7.83778C8.67252 7.68372 8.79857 7.55767 8.95263 7.55767C9.10669 7.55767 9.23274 7.68372 9.23274 7.83778V16.1711C9.23274 16.3252 9.10669 16.4512 8.95263 16.4512Z" fill="#313235"/>
</svg>
