<svg width="24" height="24" viewBox="0 0 24 24" fill="none" xmlns="http://www.w3.org/2000/svg">
<path fill-rule="evenodd" clip-rule="evenodd" d="M7.82938 21.8742H19.9358C20.258 21.8742 20.5829 21.8742 20.9078 21.877C21.4736 21.877 21.7986 21.5493 21.7986 20.9834V7.79458C21.8041 7.7167 21.777 7.63696 21.7173 7.57728L16.3812 2.24114C16.3542 2.21557 16.3229 2.19503 16.2887 2.18101C16.2558 2.16742 16.2199 2.15991 16.1823 2.15991C13.2383 2.15991 8.47644 2.15991 7.82938 2.16551C7.24675 2.16551 6.91341 2.49885 6.91341 3.07588V3.9576C5.44906 4.00686 4.29935 4.42207 3.49885 5.19633C2.61089 6.05347 2.15991 7.33638 2.15991 9.00865C2.15991 10.6809 2.61089 11.9638 3.49885 12.821C4.29884 13.5921 5.44759 14.0096 6.91061 14.0596V20.9498C6.91061 21.5437 7.23834 21.8742 7.82938 21.8742ZM15.9022 2.72294C12.947 2.72294 8.45943 2.72294 7.82938 2.72574C7.55767 2.72574 7.47364 2.80697 7.47364 3.07588V3.95637C8.95669 3.99949 10.1198 4.41517 10.9274 5.19633C11.8154 6.05347 12.2664 7.33638 12.2664 9.00865C12.2664 10.6809 11.8154 11.9638 10.9274 12.821C10.1192 13.6 8.95752 14.0181 7.47084 14.061V20.9498C7.47084 21.2355 7.54927 21.314 7.82938 21.314H20.9078C21.1627 21.314 21.2383 21.2355 21.2411 20.9806V8.05907C19.5297 8.05907 18.5213 8.05907 18.2439 8.05627C17.5819 8.05373 17.0403 7.83902 16.6456 7.44353C16.1685 6.96738 15.9053 6.22794 15.9022 5.28036V2.72294ZM16.4624 3.1179L16.4624 5.28036C16.4652 6.10389 16.6977 7.48764 18.2411 7.49605C18.3245 7.49605 18.4725 7.49627 18.6848 7.49659C19.1268 7.49726 19.8471 7.49836 20.8405 7.49872L16.4624 3.1179ZM10.2327 18.0479H18.5129C18.6669 18.0479 18.793 17.9218 18.793 17.7678C18.793 17.6137 18.6669 17.4876 18.5129 17.4876H10.2327C10.0787 17.4876 9.95263 17.6137 9.95263 17.7678C9.95263 17.9218 10.0787 18.0479 10.2327 18.0479ZM18.5129 14.7706H11.3896C11.2355 14.7706 11.1095 14.6445 11.1095 14.4904C11.1095 14.3364 11.2355 14.2103 11.3896 14.2103H18.5157C18.6697 14.2103 18.7958 14.3364 18.7958 14.4904C18.7958 14.6445 18.6669 14.7706 18.5129 14.7706ZM13.1767 11.4932H18.5129C18.6669 11.4932 18.793 11.3672 18.793 11.2131C18.793 11.0591 18.6669 10.933 18.5129 10.933H13.1767C13.0227 10.933 12.8966 11.0591 12.8966 11.2131C12.8966 11.3672 13.0227 11.4932 13.1767 11.4932ZM7.21313 4.51285C5.75375 4.51285 4.6361 4.8798 3.8854 5.59969C3.10949 6.34759 2.71734 7.49325 2.71734 9.00865C2.71734 10.5241 3.10949 11.6697 3.8854 12.4176C4.6333 13.1403 5.75375 13.5044 7.21313 13.5044C8.67252 13.5044 9.79016 13.1403 10.5409 12.4176C11.314 11.6697 11.7089 10.5241 11.7089 9.00865C11.7089 7.49325 11.3168 6.34759 10.5409 5.59969C9.79296 4.877 8.67252 4.51285 7.21313 4.51285ZM7.45123 11.8091V12.328C7.45123 12.482 7.32518 12.6081 7.17112 12.6081C7.01706 12.6081 6.891 12.482 6.891 12.328V11.826C6.34273 11.791 5.81385 11.6096 5.35879 11.2944C5.24395 11.2131 5.18792 11.1123 5.18792 10.9806C5.19072 10.7874 5.34759 10.6333 5.54086 10.6361C5.6249 10.6389 5.70613 10.6641 5.77336 10.7117C6.14504 10.9595 6.51868 11.1039 6.891 11.1449V9.26163C5.59181 9.0772 5.31678 8.33635 5.31678 7.74255C5.31678 6.82703 5.92744 6.21441 6.891 6.13733V5.84619C6.891 5.69213 7.01706 5.56607 7.17112 5.56607C7.32518 5.56607 7.45123 5.69213 7.45123 5.84619V6.14802C7.85641 6.19231 8.23049 6.31323 8.52966 6.49885C8.66411 6.58008 8.73694 6.69773 8.73694 6.82378C8.73694 7.00865 8.58568 7.15991 8.40081 7.15991C8.32518 7.15711 8.25515 7.1347 8.18792 7.10109L8.18512 7.09829C7.93674 6.96092 7.6972 6.87412 7.45123 6.83194V8.63038C8.19415 8.73666 9.05067 9.09458 9.05067 10.1711C9.05565 11.0827 8.45161 11.6864 7.45123 11.8091ZM7.45123 9.3411V11.1306C8.01747 11.0366 8.35599 10.6979 8.35599 10.2019C8.35599 9.86288 8.24231 9.50064 7.45123 9.3411ZM6.891 6.81186C6.34393 6.87345 6.01145 7.20244 6.01145 7.70333C6.01145 8.01602 6.11758 8.38638 6.891 8.54851V6.81186Z" fill="#313235"/>
</svg>
