<svg width="24" height="24" viewBox="0 0 24 24" fill="none" xmlns="http://www.w3.org/2000/svg">
<path fill-rule="evenodd" clip-rule="evenodd" d="M21.8425 9.56889C21.8257 8.66133 21.1086 7.92743 20.2459 7.92743H19.4756L19.4784 7.93023H18.526C18.4027 6.96385 17.6072 6.21875 16.6464 6.21875H7.38594C4.01339 6.32799 2.15625 8.36441 2.15625 11.9526C2.15625 15.5353 4.01339 17.5773 7.39715 17.7033H16.6577C17.6352 17.7033 18.442 16.933 18.5456 15.947H20.2599C21.131 15.947 21.8425 15.2047 21.8425 14.2972V9.56889ZM17.7333 15.7286V15.5213H17.7193V8.19074C17.7193 7.56889 17.2375 7.06749 16.6436 7.06749H7.39715C4.46998 7.16273 2.97698 8.80699 2.97698 11.9526C2.97698 15.0955 4.46717 16.7454 7.41115 16.8546H16.6577C17.2515 16.8546 17.7333 16.3504 17.7333 15.7286ZM21.0218 9.57729V14.2972C21.0218 14.7398 20.6801 15.0983 20.2599 15.0983H18.5428V8.77897H20.3047C20.6969 8.80979 21.0134 9.15993 21.0218 9.57729ZM7.12264 12.1795C7.12264 11.5997 6.79771 11.3308 6.2935 11.3308C5.7921 11.3308 5.46157 11.5997 5.46157 12.1795C5.46157 12.4568 5.5372 12.6641 5.67166 12.8042C5.81451 12.9554 6.0302 13.0283 6.2907 13.0283C6.55401 13.0283 6.76689 12.9554 6.91255 12.8042C7.04701 12.6641 7.12264 12.4596 7.12264 12.1795Z" fill="#313235"/>
</svg>
