<svg width="24" height="24" viewBox="0 0 24 24" fill="none" xmlns="http://www.w3.org/2000/svg">
<path fill-rule="evenodd" clip-rule="evenodd" d="M15.7961 2.42882L21.5804 8.24114C21.7485 8.40921 21.8465 8.6361 21.8465 8.877C21.8465 9.09269 21.7625 9.29717 21.6112 9.45123C20.8437 10.2215 20.0202 10.6697 19.1435 10.8014L16.4292 13.5325C16.8185 15.5689 16.1098 17.5101 14.3199 19.3084C14.065 19.5633 13.8017 19.6753 13.5216 19.6753C13.2415 19.6753 12.9754 19.5633 12.7765 19.3616L9.03141 15.5885L2.88575 21.7229L2.88295 21.7257C2.71489 21.891 2.44878 21.8882 2.28351 21.7201C2.11825 21.5521 2.11825 21.2804 2.28631 21.1151L8.42357 14.9806L4.7541 11.286C4.55802 11.0871 4.44878 10.821 4.44878 10.5409C4.44878 10.2636 4.55802 9.99465 4.7569 9.79577L5.09024 10.0675L4.79052 9.76495C7.02021 7.52126 9.12105 7.32798 10.5552 7.59969L13.2695 4.8686C13.3928 3.99184 13.8269 3.17112 14.5664 2.42882C14.7541 2.24114 14.953 2.15991 15.1659 2.15991C15.4012 2.16271 15.6281 2.25795 15.7961 2.42882ZM18.6477 10.0871C18.7149 10.0171 18.8045 9.97504 18.9026 9.96383C19.6393 9.8854 20.3423 9.51565 20.995 8.86299L15.1967 3.03666C14.5272 3.68092 14.1687 4.3784 14.0986 5.11229C14.0874 5.21033 14.0454 5.30277 13.9754 5.3728L10.995 8.3756C10.8914 8.47924 10.7429 8.52126 10.5972 8.48764C8.81012 8.05627 7.05942 8.69213 5.39556 10.37L5.36475 10.4008C5.28351 10.4764 5.28351 10.6025 5.35914 10.6809L9.31433 14.6613C9.31713 14.6632 9.31993 14.6647 9.32273 14.6663C9.32833 14.6694 9.33393 14.6725 9.33954 14.6781C9.34234 14.6823 9.34444 14.6865 9.34654 14.6907C9.34864 14.6949 9.35074 14.6991 9.35354 14.7033L13.376 18.7565C13.4152 18.7958 13.4684 18.8182 13.5216 18.8182C13.5776 18.8182 13.6309 18.7958 13.6673 18.7565C15.3535 17.0563 15.9698 15.3028 15.5524 13.4876C15.5188 13.3448 15.5608 13.1935 15.6645 13.0871L18.6477 10.0871Z" fill="#313235"/>
</svg>
