<svg width="24" height="24" viewBox="0 0 24 24" fill="none" xmlns="http://www.w3.org/2000/svg">
<path fill-rule="evenodd" clip-rule="evenodd" d="M15.4151 3.71367H17.2638C17.9781 3.71367 18.5635 4.2739 18.5635 4.96577V6.89014C18.5635 6.92656 18.5579 6.96297 18.5495 6.99659C18.4431 8.7893 17.3339 9.76409 15.4151 9.76409C14.7232 9.76409 14.149 9.62404 13.6728 9.37474C13.191 10.2851 12.8689 11.2767 12.6672 12.0498H16.67C17.3871 12.0498 17.9697 12.61 17.9697 13.2963V14.7893C17.9697 15.4532 17.4207 15.9938 16.7372 16.0274L16.1882 20.8005C16.191 21.3551 15.684 21.8425 15.0593 21.8425H8.9333C8.31145 21.8425 7.80165 21.3551 7.80165 20.7557L7.25823 16.0274C6.57475 15.9938 6.02574 15.4532 6.02574 14.7893V13.2963C6.02574 12.61 6.60837 12.0498 7.32265 12.0498H11.2862C11.2862 12.047 11.2848 12.0442 11.2834 12.0414C11.282 12.0386 11.2806 12.0358 11.2806 12.033C11.1154 10.1787 10.74 8.82852 10.3058 7.84813C9.82405 8.09743 9.25543 8.22348 8.59156 8.22348C6.66159 8.22348 5.54954 7.23468 5.45151 5.43916C5.4431 5.40275 5.4375 5.36633 5.4375 5.33552V3.41395C5.4375 2.71928 6.02293 2.15625 6.74282 2.15625H8.59716C10.6308 2.15625 11.7512 3.23188 11.754 5.18706C11.754 5.99378 11.5495 6.66605 11.1406 7.18146C11.1322 7.18706 11.1266 7.19547 11.121 7.20387L11.0061 7.32992C11.4459 8.26269 11.8241 9.5204 12.0369 11.1675C12.275 10.3915 12.5832 9.59603 12.9865 8.86213L12.7708 8.59323C12.4291 8.07782 12.2666 7.46437 12.2666 6.73608C12.2666 4.81451 13.4123 3.71367 15.4151 3.71367ZM8.59436 7.40555C7.10977 7.40555 6.35907 6.73328 6.30025 5.36914C6.30025 5.33832 6.29744 5.30751 6.28904 5.2795V3.41395C6.28904 3.17026 6.49352 2.97138 6.74562 2.97138H8.59996C10.1518 2.97138 10.9053 3.69687 10.9053 5.18986C10.9053 5.73048 10.7876 6.17586 10.5664 6.5288C9.53834 4.88454 8.40389 4.56241 8.32265 4.5428C8.10137 4.48678 7.87728 4.61283 7.81005 4.82852C7.75123 5.04701 7.88008 5.2711 8.09856 5.32992H8.10417C8.12097 5.33272 9.06775 5.62964 9.9389 7.12544C9.58316 7.31031 9.13218 7.40555 8.59436 7.40555ZM17.712 6.83132C17.7064 6.85653 17.7008 6.88174 17.7008 6.90695C17.642 8.2823 16.8941 8.94897 15.4151 8.94897C14.8773 8.94897 14.4431 8.85093 14.0958 8.67166C14.6448 7.85653 15.3535 7.18426 16.2638 6.92936C16.4795 6.87334 16.6112 6.65485 16.5551 6.43636C16.5551 6.43356 16.5544 6.43146 16.5537 6.42936C16.553 6.42726 16.5523 6.42516 16.5523 6.42236C16.4823 6.20387 16.247 6.08062 16.0257 6.14505C14.9417 6.45037 14.107 7.18146 13.4571 8.10303C13.233 7.75289 13.1182 7.29631 13.1182 6.73608C13.1182 5.25149 13.8717 4.5288 15.4179 4.5288H17.2638C17.5075 4.5232 17.7092 4.71647 17.7148 4.96017L17.712 6.83132ZM17.1182 13.2963V14.7893C17.1182 15.0274 16.9165 15.2207 16.67 15.2207H7.32265C7.07896 15.2263 6.88008 15.033 6.87447 14.7921V13.2991C6.87447 13.061 7.07616 12.8677 7.32265 12.8677H16.67C16.9165 12.8649 17.1182 13.0582 17.1182 13.2963ZM15.0622 21.0274C15.2162 21.0274 15.3423 20.9041 15.3423 20.7557L15.8773 16.0358H8.10977L8.64758 20.7137C8.65039 20.9042 8.77644 21.0274 8.9333 21.0274H15.0622Z" fill="#313235"/>
</svg>
