<svg width="24" height="24" viewBox="0 0 24 24" fill="none" xmlns="http://www.w3.org/2000/svg">
<path fill-rule="evenodd" clip-rule="evenodd" d="M8.90501 5.73414L9.67812 6.51005L9.49885 7.61089C9.43162 8.02546 9.60249 8.42882 9.94423 8.66972C10.1235 8.79857 10.3364 8.86299 10.5493 8.86299C10.7201 8.86299 10.8938 8.82098 11.0535 8.73414L11.9862 8.22714L12.919 8.73414C13.2664 8.92182 13.7089 8.89661 14.0311 8.66972C14.3728 8.42882 14.5409 8.02546 14.4736 7.61089L14.2916 6.50725L15.0647 5.73134C15.356 5.44002 15.454 5.01705 15.3224 4.6277C15.1935 4.24395 14.8658 3.96944 14.4708 3.91061L13.4204 3.75375L12.9442 2.76495C12.7678 2.39241 12.398 2.15991 11.9862 2.15991C11.5717 2.15991 11.2047 2.39521 11.0255 2.76776L10.5521 3.75655L9.50165 3.91341C9.10669 3.97504 8.77896 4.24675 8.65011 4.6305C8.51846 5.01986 8.61649 5.44283 8.90501 5.73414ZM9.49885 5.15711C9.42882 5.08708 9.40641 4.98624 9.44002 4.891C9.46804 4.80417 9.53806 4.74255 9.6249 4.73134L10.8574 4.54647C11.0059 4.53246 11.1487 4.43162 11.2131 4.29997L11.779 3.1235C11.8574 2.95543 12.1067 2.95543 12.1879 3.1235L12.7566 4.30837C12.8154 4.42882 12.9442 4.52406 13.0787 4.54367L14.342 4.73134C14.4288 4.74255 14.4988 4.80697 14.5269 4.891C14.5577 4.98624 14.5353 5.08708 14.468 5.15711L13.5661 6.06187C13.4624 6.15711 13.4092 6.31958 13.4316 6.45683L13.6473 7.74815C13.6669 7.84899 13.6277 7.94423 13.5465 8.00025C13.4792 8.04507 13.3924 8.05067 13.3196 8.01145L12.2047 7.40921C12.1375 7.37 12.0619 7.35039 11.9834 7.35039C11.9134 7.35039 11.8406 7.3672 11.779 7.40081L10.6473 8.01145C10.5745 8.05347 10.4904 8.04787 10.4204 8.00025C10.3392 7.94423 10.3028 7.84899 10.3196 7.74815L10.5353 6.45683C10.5549 6.32518 10.5044 6.16832 10.412 6.07308L9.49885 5.15711ZM21.0115 20.9806V17.3C20.9946 17.2972 20.9778 17.2972 20.961 17.2972H15.6109C15.5941 17.2972 15.5773 17.2972 15.5633 17.3V20.9806C15.5699 20.9806 15.5772 20.9813 15.5848 20.9819L15.5849 20.9819C15.5933 20.9827 15.6021 20.9834 15.6109 20.9834H20.961C20.9778 20.9834 20.9946 20.9834 21.0115 20.9806ZM14.6781 21.003H9.32798L9.28036 21.0002V20.5437L9.32798 11.7145L14.7285 11.7173L14.6781 21.003ZM3.04507 20.9834H8.39521C8.41201 20.9834 8.42882 20.9806 8.44283 20.9778V14.8518C8.42882 14.8462 8.41201 14.8434 8.39521 14.8434H3.04507C3.02826 14.8434 3.01145 14.8462 2.99745 14.8518V20.9806C3.00865 20.9834 3.02826 20.9834 3.04507 20.9834ZM3.04507 21.849H15.6109V21.8434H20.9582C21.4792 21.8434 21.8462 21.5717 21.8462 21.2103V17.0619C21.8462 16.6585 21.4008 16.4484 20.961 16.4484H15.6109C15.6039 16.4484 15.5955 16.4498 15.5871 16.4512C15.5787 16.4526 15.5703 16.454 15.5633 16.454V11.7145C15.5633 11.2636 15.1487 10.8658 14.6781 10.8658H9.32798C8.85739 10.8658 8.44283 11.2636 8.44283 11.7145V14.0058C8.43614 14.0058 8.42882 14.0039 8.42116 14.0019C8.41278 13.9997 8.40399 13.9974 8.39521 13.9974H3.04507C2.61649 13.9974 2.15991 14.286 2.15991 14.7145V21.1123C2.15991 21.5073 2.55767 21.849 3.04507 21.849Z" fill="#313235"/>
</svg>
