<svg width="24" height="24" viewBox="0 0 24 24" fill="none" xmlns="http://www.w3.org/2000/svg">
<path fill-rule="evenodd" clip-rule="evenodd" d="M12.0002 2.15991C18.4428 2.15991 21.8462 5.56607 21.8462 12.0059C21.8462 18.4428 18.4428 21.8462 12.0002 21.8462C5.56327 21.8462 2.15991 18.4428 2.15991 12.0059C2.15991 5.56607 5.56327 2.15991 12.0002 2.15991ZM12.0002 21.0255C17.989 21.0255 21.0227 17.9918 21.0227 12.0059C21.0227 6.01706 17.9862 2.98344 12.0002 2.98344C6.01425 2.98344 2.98064 6.01706 2.98064 12.0059C2.98064 17.989 6.01705 21.0255 12.0002 21.0255ZM15.1207 17.1459C15.1207 17.0339 15.0283 16.9414 14.9162 16.9414V16.9386H9.60529C10.6641 15.9358 11.0339 15.1459 11.0339 13.989C11.0339 13.4148 10.947 12.8182 10.7678 12.2103H13.1879C13.3 12.2103 13.3924 12.1179 13.3924 12.0058V11.5969C13.3924 11.4848 13.3 11.3924 13.1879 11.3924H10.5101C10.3112 10.7594 10.1235 10.0255 10.1235 9.28876C10.1235 7.68652 10.9946 6.90781 12.7818 6.90781C13.328 6.90781 14.0199 6.98064 14.7285 7.11509C14.7902 7.1235 14.8518 7.10949 14.8994 7.07028C14.9442 7.03106 14.9722 6.97504 14.9722 6.91341V6.53806C14.9722 6.44843 14.9134 6.37 14.8294 6.34199C14.1095 6.1179 13.1879 6.03946 12.6193 6.03946C10.4204 6.03946 9.21033 7.19913 9.21033 9.30277C9.21033 10.1151 9.39801 10.8882 9.58848 11.4596L8.65291 11.5241C8.54367 11.5325 8.46243 11.6193 8.46243 11.7285V12.0058C8.46243 12.1179 8.55487 12.2103 8.66691 12.2103H9.83498C10.0423 12.8686 10.1375 13.4176 10.1375 13.975C10.1375 14.7678 9.94983 15.4428 9.01145 16.3476C8.55487 16.7902 8.36439 16.975 8.36439 17.342C8.36159 17.4568 8.384 17.5717 8.43442 17.6781C8.47084 17.7481 8.54086 17.7902 8.6193 17.7902H14.9162C15.0283 17.7902 15.1207 17.6977 15.1207 17.5857V17.1459Z" fill="#313235"/>
</svg>
