<svg width="24" height="24" viewBox="0 0 24 24" fill="none" xmlns="http://www.w3.org/2000/svg">
<path fill-rule="evenodd" clip-rule="evenodd" d="M11.9966 5.65535C16.2711 3.46767 21.2487 3.82621 21.4644 3.84582C21.6773 3.86263 21.8425 4.0363 21.8369 4.24918V17.7058C21.8369 17.9327 21.6549 18.1147 21.428 18.1147C16.3271 18.1147 12.4504 20.0335 12.2095 20.1539H12.2067L12.1871 20.1651C12.145 20.1848 12.0974 20.196 12.0498 20.1988C12.0426 20.2 12.0354 20.2027 12.0282 20.2055C12.0186 20.2091 12.009 20.2128 11.9994 20.2128C11.9322 20.2128 11.8677 20.1988 11.8089 20.168C11.8085 20.1678 11.8078 20.1674 11.8068 20.1669C11.6953 20.1105 7.757 18.1175 2.56521 18.1175C2.34112 18.1175 2.15625 17.9355 2.15625 17.7114V4.25198C2.15625 4.0391 2.32152 3.86263 2.5344 3.84862C2.74729 3.82902 7.72208 3.47047 11.9966 5.65535ZM21.0218 17.308C16.921 17.3836 13.6969 18.5993 12.4084 19.1651V6.35563C15.8117 4.63014 19.7921 4.60212 21.0218 4.63854V17.308ZM2.97698 4.64134C4.20107 4.60212 8.18706 4.63294 11.5904 6.35843V19.168C10.3047 18.6021 7.07782 17.3892 2.97698 17.3108V4.64134Z" fill="#313235"/>
</svg>
