<svg width="24" height="24" viewBox="0 0 24 24" fill="none" xmlns="http://www.w3.org/2000/svg">
<path fill-rule="evenodd" clip-rule="evenodd" d="M20.7923 6.20667C20.9295 6.33832 21.0136 6.51479 21.0136 6.69126V7.38314C21.0136 7.75009 20.683 8.0302 20.1928 8.13384C20.2237 8.22908 20.2545 8.32432 20.2545 8.42796V16.9069C20.2545 17.4644 19.7335 17.9126 19.0864 17.9126H12.3805V19.5764C12.8427 19.7025 13.2096 20.061 13.2096 20.6801C13.2096 21.4672 12.6186 21.8341 12.0444 21.8425H11.9435C11.3665 21.8341 10.7755 21.4756 10.7755 20.6801C10.7755 20.0414 11.1592 19.6801 11.613 19.5624V17.9154L4.94634 17.9069C4.50096 17.9378 4.20124 17.7613 4.04718 17.6212C3.8483 17.4392 3.73346 17.1843 3.73065 16.9154V8.43356C3.73065 8.32992 3.76147 8.22628 3.79228 8.13944C3.54578 8.08902 3.3385 8.00779 3.20124 7.87614C3.06119 7.75289 2.97715 7.57642 2.96875 7.39154L2.97715 6.69967C2.97715 6.23748 3.50096 5.90695 4.22365 5.90695H6.96595L10.8763 3.82572C10.8091 3.66605 10.7727 3.49238 10.7755 3.31871C10.7755 2.5232 11.3665 2.16465 11.9519 2.15625H12.0444C12.6214 2.17306 13.2096 2.54 13.2096 3.32432C13.2096 3.50079 13.1788 3.66325 13.1172 3.80331L16.7671 5.90695H19.7251C20.1928 5.89014 20.5598 5.99939 20.7923 6.20667ZM11.5402 3.31591C11.5402 3.19547 11.5402 2.88734 11.9491 2.88734C11.9491 2.88734 12.0192 2.88734 12.0164 2.89014C12.4393 2.89855 12.4393 3.20667 12.4393 3.32432C12.4393 3.43636 12.4393 3.74449 11.9631 3.75009C11.5402 3.74168 11.5402 3.43636 11.5402 3.31591ZM11.4337 4.36633L8.54578 5.90415H15.2825L12.585 4.35233C12.4169 4.43356 12.2237 4.47838 12.0388 4.48398H11.9547C11.7755 4.47838 11.599 4.43916 11.4337 4.36633ZM20.2601 7.31591C20.2601 7.31591 20.3301 7.30471 20.3301 7.0302C20.3301 6.7697 20.2377 6.69687 20.2377 6.69687C20.1956 6.66325 20.1004 6.64084 19.7867 6.64084H4.22085C4.18231 6.64084 4.14766 6.64057 4.11629 6.64031H4.11621H4.11613C3.9037 6.63861 3.84191 6.63811 3.74186 6.73328C3.73906 6.73328 3.67463 6.80331 3.67743 7.06101C3.68023 7.30191 3.79228 7.36914 3.79228 7.36914L3.7986 7.37375C3.85638 7.41605 3.8956 7.44477 4.19844 7.44477H19.7699C20.0612 7.44196 20.2377 7.35233 20.2601 7.31591ZM19.4842 16.9042V8.43636C19.487 8.36914 19.4617 8.30751 19.4141 8.25989C19.3609 8.20947 19.2629 8.19547 19.1452 8.17866H4.82029C4.64382 8.20947 4.49816 8.31031 4.49816 8.43636V16.9154C4.49816 16.9798 4.52057 17.0414 4.57659 17.0834C4.64662 17.1478 4.76987 17.1703 4.92953 17.1703L19.0892 17.1787C19.2937 17.1787 19.4842 17.0526 19.4842 16.9042ZM12.0164 20.2515C12.4393 20.2571 12.4393 20.5596 12.4393 20.6773C12.4393 20.7949 12.4393 21.0974 11.9519 21.103C11.5374 21.103 11.5374 20.7865 11.5374 20.6773C11.5374 20.5596 11.5374 20.2515 11.9463 20.2515H12.0164ZM15.8819 15.3607C15.8819 15.1619 15.7054 14.9938 15.4982 14.9938H8.3385L9.5962 13.1254L12.2012 14.0946C12.3553 14.1506 12.5318 14.1058 12.6382 13.977L14.5654 11.6605L14.6242 12.0414C14.6494 12.2179 14.8175 12.3495 15.0024 12.3495H15.0556C15.2713 12.3131 15.4169 12.1282 15.3777 11.9322L15.1928 10.7473C15.162 10.5708 14.9996 10.4392 14.8147 10.4392H13.4477C13.2321 10.4392 13.064 10.5988 13.064 10.8061V10.8145C13.0696 11.019 13.2433 11.1787 13.4477 11.1731H13.9772L12.2096 13.3047L9.57379 12.3271C9.40292 12.2599 9.20965 12.3215 9.11161 12.4756L7.81469 14.4112V10.456C7.80909 10.2487 7.63822 10.0862 7.43093 10.089C7.22365 10.089 7.04718 10.2571 7.04718 10.456V15.3607C7.05278 15.568 7.22365 15.7305 7.43093 15.7277H15.4982C15.7054 15.7333 15.8763 15.568 15.8819 15.3607Z" fill="#313235"/>
</svg>
