<svg width="24" height="24" viewBox="0 0 24 24" fill="none" xmlns="http://www.w3.org/2000/svg">
<path fill-rule="evenodd" clip-rule="evenodd" d="M20.7251 4.5C21.428 4.5 22 5.05492 22 5.73506V18.2649C22 18.9451 21.428 19.5 20.7251 19.5H3.2749C2.572 19.5028 2 18.9479 2 18.2678V5.7379C2 5.05492 2.572 4.50285 3.2749 4.50285C3.2749 4.5 20.7251 4.5 20.7251 4.5ZM2.83381 5.7379C2.83665 5.49886 3.03586 5.30819 3.2749 5.31104H20.7251C20.9641 5.30819 21.1633 5.49886 21.1662 5.7379V7.77831H2.83381V5.7379ZM21.1662 18.2649C21.1662 18.5011 20.967 18.6918 20.7251 18.6918L3.2749 18.6946C3.03301 18.6946 2.83381 18.504 2.83381 18.2678V8.58651H21.1662V18.2649ZM5.67672 6.60301C5.68241 6.91889 5.94138 7.17216 6.25726 7.16647C6.57883 7.16647 6.83779 6.9132 6.83779 6.60301C6.83779 6.28998 6.57883 6.03955 6.25726 6.03955C5.93569 6.03955 5.67672 6.29283 5.67672 6.60301ZM7.99886 7.16647C7.68298 7.17216 7.42402 6.92174 7.41833 6.60586V6.60301C7.41833 6.29283 7.67729 6.03955 7.99886 6.03955C8.32043 6.03955 8.5794 6.28998 8.5794 6.60301C8.5794 6.9132 8.32043 7.16647 7.99886 7.16647ZM3.93796 6.60301C3.94365 6.91889 4.20262 7.17216 4.5185 7.16647C4.84007 7.16647 5.09903 6.9132 5.09903 6.60301C5.09903 6.28998 4.84007 6.03955 4.5185 6.03955C4.19693 6.03955 3.93796 6.29283 3.93796 6.60301ZM13.0558 13.3731L13.6505 12.7868L12.8509 12.6702C12.6318 12.636 12.4411 12.4994 12.3386 12.3031L12 11.6087L11.6614 12.2974C11.5589 12.4994 11.3682 12.6389 11.1434 12.6702L10.3466 12.7868L10.9385 13.3702C11.0894 13.5182 11.1605 13.7459 11.1264 13.9508L10.9926 14.7447L11.6727 14.3833C11.8719 14.278 12.1081 14.2752 12.3102 14.3776L13.0017 14.7447L12.8651 13.9508C12.8367 13.7402 12.905 13.5267 13.0558 13.3731ZM14.4104 12.5364C14.3478 12.3486 14.1827 12.212 13.9863 12.1835L12.959 12.0327C12.9547 12.0327 12.952 12.0294 12.9497 12.0266L12.9476 12.0242L12.4838 11.0765C12.3927 10.8916 12.2106 10.7777 12.0057 10.7777C11.8008 10.7777 11.6158 10.8944 11.5276 11.0765L11.0637 12.0242L11.0617 12.0266C11.0594 12.0294 11.0567 12.0327 11.0524 12.0327L10.0165 12.1835C9.82015 12.212 9.65509 12.3486 9.59249 12.5364C9.52419 12.7299 9.57541 12.9462 9.72055 13.0885L10.469 13.8255C10.4718 13.8284 10.4747 13.8369 10.4747 13.8455L10.2982 14.887C10.2612 15.0919 10.3495 15.2968 10.5202 15.4135C10.6056 15.4761 10.7109 15.5074 10.819 15.5074C10.9072 15.5074 10.9926 15.4846 11.0694 15.4448L11.9972 14.9525L11.9972 14.9507L11.9975 14.95L11.9981 14.9497L12 14.9496C12.0014 14.9496 12.0021 14.9503 12.0028 14.951C12.0036 14.9517 12.0043 14.9525 12.0057 14.9525L12.9306 15.4448C13.1042 15.5387 13.3176 15.5273 13.4798 15.4135C13.6505 15.2968 13.7388 15.0919 13.7018 14.887L13.5253 13.8455C13.5253 13.8369 13.5282 13.8284 13.531 13.8255L14.2823 13.0885C14.4274 12.9434 14.4787 12.7299 14.4104 12.5364ZM18.8953 13.3731L19.49 12.7868L18.6904 12.6702C18.4713 12.636 18.2806 12.4994 18.1781 12.3031L17.8395 11.6087L17.5037 12.2974C17.4013 12.4994 17.2106 12.6389 16.9858 12.6702L16.189 12.7868L16.7809 13.3702C16.9317 13.5182 17.0057 13.7459 16.9687 13.9508L16.8349 14.7447L17.5151 14.3833C17.7143 14.278 17.9505 14.2752 18.1525 14.3776L18.8441 14.7447L18.7103 13.9508C18.679 13.7402 18.7473 13.5267 18.8953 13.3731ZM20.2527 12.5364C20.1873 12.3486 20.0222 12.212 19.8258 12.1835L18.8014 12.0327C18.797 12.0327 18.7943 12.0294 18.792 12.0266L18.79 12.0242L18.3261 11.0765C18.2351 10.8916 18.0529 10.7777 17.848 10.7777C17.6431 10.7777 17.4582 10.8944 17.3699 11.0765L16.9061 12.0242L16.904 12.0266C16.9017 12.0294 16.8991 12.0327 16.8947 12.0327L15.8589 12.1835C15.6625 12.212 15.4974 12.3486 15.4348 12.5364C15.3665 12.7299 15.4178 12.9462 15.5629 13.0885L16.3113 13.8255C16.3142 13.8284 16.317 13.8369 16.317 13.8455L16.1406 14.887C16.1036 15.0919 16.1918 15.2968 16.3625 15.4135C16.4479 15.4761 16.5532 15.5074 16.6614 15.5074C16.7496 15.5074 16.8349 15.4846 16.9118 15.4448L17.8367 14.9525C17.8367 14.951 17.8367 14.9503 17.837 14.95C17.8372 14.9498 17.8375 14.9497 17.8381 14.9496C17.8384 14.9496 17.8389 14.9496 17.8395 14.9496L17.8452 14.9525L18.7729 15.4448C18.9465 15.5387 19.1599 15.5273 19.3221 15.4135C19.4929 15.2968 19.5811 15.0919 19.5441 14.887L19.3677 13.8455C19.3677 13.8369 19.3705 13.8284 19.3734 13.8255L20.1246 13.0885C20.2698 12.9434 20.321 12.7299 20.2527 12.5364ZM7.21628 13.3731L7.81104 12.7868L7.01138 12.6702C6.79226 12.636 6.60159 12.4994 6.49915 12.3031L6.1605 11.6087L5.82186 12.2974C5.71941 12.4994 5.52874 12.6389 5.30393 12.6702L4.50711 12.7868L5.09903 13.3702C5.24986 13.5182 5.32385 13.7459 5.28685 13.9508L5.15026 14.7447L5.83039 14.3833C6.0296 14.278 6.26579 14.2752 6.46784 14.3776L7.15936 14.7447L7.02277 13.9508C6.99715 13.7402 7.06545 13.5267 7.21628 13.3731ZM8.57086 12.5364C8.50825 12.3486 8.3432 12.212 8.14684 12.1835C8.14684 12.1835 7.11098 12.0327 7.11668 12.0356C7.11233 12.0356 7.10964 12.0322 7.10735 12.0294C7.10664 12.0285 7.10597 12.0277 7.10529 12.027L6.64143 11.0794C6.55037 10.8944 6.36824 10.7806 6.16335 10.7806C5.95845 10.7806 5.77348 10.8973 5.68526 11.0794L5.2214 12.027C5.22073 12.0277 5.22006 12.0285 5.21935 12.0294C5.21705 12.0322 5.21437 12.0356 5.21002 12.0356L4.17416 12.1864C3.9778 12.2148 3.81275 12.3514 3.75014 12.5393C3.68184 12.7328 3.73307 12.949 3.8782 13.0913L4.62664 13.8284C4.62948 13.8312 4.63233 13.8398 4.63233 13.8483L4.45589 14.8899C4.42174 15.0947 4.50996 15.2996 4.68071 15.4163C4.76608 15.4789 4.87137 15.5102 4.97951 15.5102C5.06773 15.5102 5.1531 15.4875 5.22994 15.4476L6.15766 14.9553C6.15766 14.9539 6.15766 14.9532 6.15801 14.9528C6.15837 14.9525 6.15908 14.9525 6.1605 14.9525C6.16192 14.9525 6.16264 14.9532 6.16335 14.9539C6.16406 14.9546 6.16477 14.9553 6.16619 14.9553L7.09106 15.4476C7.26466 15.5415 7.47809 15.5301 7.6403 15.4163C7.81104 15.2996 7.89926 15.0947 7.86227 14.8899L7.68583 13.8483C7.68298 13.8398 7.68583 13.8312 7.69152 13.8284L8.4428 13.0885C8.58793 12.9434 8.63916 12.7299 8.57086 12.5364Z" fill="#313235"/>
</svg>
