<svg width="24" height="24" viewBox="0 0 24 24" fill="none" xmlns="http://www.w3.org/2000/svg">
<path d="M21.4962 2.19624C21.2777 2.10661 21.0228 2.14862 20.8491 2.30829L18.0312 4.98056C16.3029 3.65843 14.16 2.94694 11.9555 2.96375C6.99756 2.95535 2.81829 6.52117 2.22165 11.2663C1.62501 16.0114 4.80708 20.4371 9.62221 21.566C14.4373 22.6948 19.3701 20.1738 21.104 15.6948C21.2132 15.4091 21.0648 15.0898 20.7679 14.9806C20.625 14.9273 20.4625 14.9301 20.3225 14.9918C20.1824 15.0534 20.0704 15.1654 20.0172 15.3055C18.709 18.664 15.3141 20.8349 11.597 20.6892C7.87991 20.5436 4.67823 18.1122 3.66143 14.664C2.64182 11.213 4.03397 7.52117 7.11241 5.50997C10.1908 3.49876 14.2637 3.61641 17.2104 5.80689L14.611 8.28028C14.4401 8.43714 14.3869 8.68084 14.4766 8.89092C14.5662 9.101 14.7791 9.23826 15.0144 9.23826L20.9303 8.88252C21.2217 8.86571 21.4569 8.64162 21.4738 8.35871L21.8323 2.79008C21.8631 2.54078 21.7287 2.30268 21.4962 2.19624Z" fill="#313235"/>
</svg>
