<svg width="24" height="24" viewBox="0 0 24 24" fill="none" xmlns="http://www.w3.org/2000/svg">
<path fill-rule="evenodd" clip-rule="evenodd" d="M18.7045 2.1499C20.6709 2.1555 21.8418 3.33478 21.8362 5.30677C21.8306 7.31237 19.332 10.3068 18.979 10.6625C18.8166 10.825 18.5561 10.825 18.3936 10.6625C18.0407 10.3068 15.5505 7.30957 15.5589 5.28996C15.5617 4.32357 15.853 3.52525 16.3992 2.97903C16.9398 2.43842 17.7353 2.1499 18.6877 2.1499H18.7045ZM21.0071 5.30677C21.0014 6.60368 19.4776 8.80536 18.6849 9.74934C17.895 8.80256 16.3796 6.60088 16.3824 5.29276C16.3852 4.54206 16.5841 3.96503 16.979 3.57007C17.3712 3.18071 17.9454 2.98184 18.6877 2.98184H18.7017C20.2143 2.98744 21.0099 3.79136 21.0071 5.30677ZM6.68492 9.25354C9.51405 9.26195 11.2003 10.9622 11.1919 13.7998C11.1835 16.7409 7.47764 21.1863 6.94823 21.7157C6.78856 21.8782 6.52526 21.8782 6.36279 21.7185L6.35999 21.7157C5.50285 20.853 2.14431 16.514 2.14991 13.7718C2.15271 12.374 2.57288 11.2227 3.35439 10.4412C4.1359 9.66251 5.27876 9.25074 6.66251 9.25074L6.68492 9.25354ZM6.65411 20.8054C7.70733 19.5841 10.3544 16.0042 10.3628 13.7942C10.3684 12.6093 10.0491 11.6821 9.41882 11.0463C8.78856 10.4104 7.867 10.0855 6.68212 10.0827H6.66251C5.48885 10.0827 4.57288 10.3992 3.94263 11.0295C3.30957 11.6597 2.98464 12.5841 2.98184 13.7718C2.97344 15.8838 5.50285 19.4776 6.65411 20.8054ZM7.55327 13.5225C7.55327 14.1163 7.26476 14.4076 6.67092 14.4076C6.07708 14.4076 5.78856 14.1163 5.78856 13.5225C5.78856 12.9286 6.07708 12.6373 6.67092 12.6373C7.26476 12.6373 7.55327 12.9258 7.55327 13.5225ZM6.67092 11.8054C7.72694 11.8054 8.3824 12.4636 8.3824 13.5225C8.3824 14.5813 7.72694 15.2395 6.67092 15.2395C5.6149 15.2395 4.95943 14.5813 4.95943 13.5225C4.95943 12.4636 5.6149 11.8054 6.67092 11.8054ZM19.1443 5.12469C19.1443 5.44402 19.0127 5.57287 18.6961 5.57287C18.3768 5.57287 18.2479 5.44402 18.2479 5.12469C18.2479 4.80536 18.3796 4.67651 18.6961 4.67651C19.0155 4.67651 19.1443 4.80536 19.1443 5.12469ZM18.6961 3.84458C19.472 3.84458 19.9734 4.34598 19.9734 5.12469C19.9734 5.9034 19.472 6.4048 18.6961 6.4048C17.9202 6.4048 17.4188 5.9034 17.4188 5.12469C17.4188 4.34598 17.9202 3.84458 18.6961 3.84458ZM14.4384 11.1807C14.4384 11.4104 14.6233 11.5953 14.853 11.5981C14.8978 11.5981 14.9426 11.5925 14.9846 11.5785C15.2395 11.4916 15.4944 11.416 15.7381 11.3516C15.9482 11.29 16.0715 11.0743 16.0239 10.8614C15.9706 10.6373 15.7493 10.4972 15.5253 10.5477C15.262 10.6177 14.993 10.6961 14.7213 10.7886C14.5533 10.8474 14.4384 11.0042 14.4384 11.1807ZM15.7774 19.3572C15.9818 19.2507 16.2311 19.332 16.3376 19.5337C16.444 19.7381 16.3628 19.9874 16.1611 20.0939C16.1583 20.0953 16.1548 20.0967 16.1513 20.0981C16.1478 20.0995 16.1443 20.1009 16.1415 20.1023C15.895 20.2227 15.6317 20.3348 15.3572 20.4356C15.1443 20.5168 14.9034 20.4076 14.825 20.1919C14.7437 19.9762 14.853 19.7381 15.0659 19.6569C15.3152 19.5673 15.5533 19.4664 15.7774 19.3572ZM17.1107 16.9566C17.1863 17.0295 17.2872 17.0687 17.3936 17.0687C17.5057 17.0687 17.6149 17.0211 17.6961 16.9398C17.853 16.7718 17.8474 16.5084 17.6793 16.3516C17.4832 16.1667 17.2339 15.9958 16.9174 15.8306C16.7129 15.7241 16.4636 15.8026 16.3572 16.007C16.2507 16.2115 16.3292 16.4608 16.5337 16.5673C16.7437 16.6709 16.937 16.7998 17.1107 16.9566ZM17.2255 11.0407C16.9958 11.0379 16.8138 10.8474 16.8166 10.6177C16.8194 10.416 16.9678 10.2451 17.1695 10.2115C17.3348 10.1891 17.444 10.1751 17.4748 10.1751C17.7017 10.1611 17.8978 10.332 17.9118 10.5589V10.5673C17.9258 10.797 17.7522 10.993 17.5225 11.007C17.444 11.0154 17.3628 11.0267 17.2844 11.0379C17.2648 11.0407 17.2451 11.0407 17.2255 11.0407ZM18.1051 18.276C18.1863 18.0603 18.0799 17.8222 17.8642 17.7409C17.8614 17.7409 17.8586 17.7409 17.853 17.7381C17.6401 17.6625 17.4076 17.7718 17.3292 17.9846C17.2592 18.1695 17.1415 18.3516 16.9818 18.5253C16.9706 18.5365 16.9594 18.5477 16.951 18.5589C16.8054 18.7353 16.8278 18.9958 17.0043 19.1443C17.1807 19.29 17.4412 19.2675 17.5897 19.0911C17.811 18.8558 17.9874 18.5785 18.1051 18.276ZM15.2199 15.9958C15.1723 15.9958 15.1247 15.9874 15.0799 15.9706L14.9264 15.9148L14.9264 15.9147C14.7173 15.8387 14.5093 15.7631 14.3068 15.6821C14.0967 15.5869 14.0015 15.3404 14.0967 15.1303C14.1835 14.9342 14.4076 14.8362 14.6093 14.9062C14.8558 15.0042 15.1079 15.0967 15.3628 15.1863C15.5925 15.1835 15.7802 15.3684 15.783 15.5981C15.7858 15.8278 15.6009 16.0154 15.3712 16.0183C15.318 16.0239 15.2676 16.0154 15.2199 15.9958ZM11.6681 20.923C11.6345 20.6989 11.4244 20.5449 11.2003 20.5813C10.9386 20.6213 10.6845 20.6538 10.4331 20.6858L10.3964 20.6905H10.3936C10.1695 20.7185 10.0099 20.9258 10.0379 21.1527C10.0687 21.3796 10.2732 21.5421 10.5 21.514C10.7634 21.4832 11.0379 21.444 11.318 21.402H11.3208C11.5477 21.3684 11.7017 21.1583 11.6681 20.9314V20.923ZM13.5561 20.1247C13.7802 20.0687 14.0043 20.2059 14.0603 20.4272C14.1163 20.6513 13.979 20.8754 13.7578 20.9314C13.4916 20.9986 13.2199 21.0603 12.9482 21.1163C12.7241 21.1639 12.5029 21.0182 12.458 20.7942C12.4104 20.5701 12.5561 20.3488 12.7802 20.304C13.0379 20.2479 13.2984 20.1891 13.5561 20.1247ZM12.3516 12.388C12.3516 12.6177 12.5365 12.8054 12.7662 12.8082C12.8894 12.8082 13.0071 12.7549 13.0827 12.6597C13.2339 12.486 13.4104 12.3348 13.6065 12.2115C13.7802 12.0855 13.8278 11.8502 13.7213 11.6653C13.6065 11.4692 13.3516 11.402 13.1527 11.5168C12.8614 11.7073 12.6261 11.9118 12.4468 12.1247C12.3852 12.1975 12.3516 12.2928 12.3516 12.388ZM8.80257 20.8502C9.02946 20.8306 9.22834 21.0014 9.24795 21.2283V21.2311C9.26756 21.458 9.09669 21.6597 8.8698 21.6765H8.867C8.6149 21.6961 8.36279 21.7129 8.11069 21.7269H8.08548C7.8698 21.7269 7.65691 21.5617 7.64011 21.346C7.6205 21.1191 7.74935 20.9258 7.97344 20.9006L8.06307 20.895C8.17792 20.8922 8.43842 20.8782 8.80257 20.8502ZM12.7662 14.853C12.8418 14.9146 12.9342 14.9482 13.0295 14.9482C13.1555 14.9482 13.2732 14.8922 13.3488 14.7914C13.4944 14.6149 13.4664 14.3544 13.29 14.2087C13.1079 14.0575 12.979 13.9006 12.9034 13.7325C12.8082 13.5365 12.5757 13.4496 12.374 13.5337C12.1639 13.6233 12.0631 13.8642 12.1499 14.0771C12.2928 14.3796 12.5029 14.6457 12.7662 14.853Z" fill="#313235"/>
</svg>
