<svg width="24" height="24" viewBox="0 0 24 24" fill="none" xmlns="http://www.w3.org/2000/svg">
<path fill-rule="evenodd" clip-rule="evenodd" d="M13.458 6.74294C13.4332 4.3626 11.9235 2.92523 11.8605 2.86524L11.8586 2.86339C11.6905 2.70933 11.6793 2.45162 11.8306 2.28356C11.9818 2.11829 12.2395 2.10428 12.4076 2.25274C12.4832 2.31997 14.2479 3.94182 14.2788 6.71773C14.2844 6.82137 14.3796 9.54686 12.4356 11.2836C12.2675 11.4348 12.007 11.4208 11.8558 11.2499C11.7045 11.0819 11.7185 10.8214 11.8894 10.6701C13.5449 9.19672 13.4608 6.76815 13.458 6.74294ZM21.8362 17.1883C21.8362 16.2359 21.5841 15.4936 21.0911 14.981C20.5757 14.4488 19.8138 14.1799 18.8194 14.1799H7.86979V6.77095C7.86979 6.54686 7.68492 6.36199 7.46083 6.36199C7.23674 6.36199 7.05186 6.54406 7.05186 6.77095V14.1771H5.16391C4.17231 14.1771 3.41041 14.4488 2.895 14.981C2.3992 15.4936 2.1499 16.2359 2.1499 17.1883V18.827C2.1499 19.7794 2.3992 20.5217 2.895 21.0343C3.41041 21.5693 4.17231 21.8382 5.16391 21.8382H18.8222C19.8138 21.8382 20.5757 21.5693 21.0911 21.0343C21.5841 20.5217 21.8362 19.7794 21.8362 18.827V17.1883ZM21.0154 18.827V17.1883C21.0154 16.4544 20.8418 15.9054 20.5 15.5497C20.1471 15.1827 19.5841 14.9978 18.825 14.9978H5.16391C4.4048 14.9978 3.83898 15.1827 3.48884 15.5497C3.1471 15.9054 2.97343 16.4544 2.97343 17.1883V18.827C2.97343 19.5609 3.1471 20.1099 3.48884 20.4656C3.84178 20.8326 4.4048 21.0174 5.16391 21.0174H18.825C19.5841 21.0174 20.1471 20.8326 20.5 20.4656C20.8418 20.1099 21.0154 19.5609 21.0154 18.827ZM5.57847 18.009C5.57847 17.5553 5.31517 17.3452 4.90901 17.3452C4.50284 17.3452 4.23954 17.5553 4.23954 18.009C4.23954 18.2275 4.29836 18.39 4.40761 18.4992C4.52525 18.6197 4.69892 18.6757 4.90901 18.6757C5.12189 18.6757 5.29276 18.6169 5.41041 18.4992C5.51685 18.3872 5.57847 18.2275 5.57847 18.009ZM8.01545 18.009C8.01545 17.5553 7.75214 17.3452 7.34598 17.3452C6.93982 17.3452 6.67651 17.5553 6.67931 18.009C6.67931 18.2275 6.73814 18.39 6.84738 18.4992C6.96503 18.6197 7.1359 18.6757 7.34878 18.6757C7.55887 18.6757 7.72973 18.6169 7.84738 18.4992C7.95382 18.3872 8.01545 18.2275 8.01545 18.009ZM9.9103 4.42484C9.95001 4.46233 10.8533 5.3152 10.8698 6.77095C10.8698 6.7712 10.8698 6.77191 10.8698 6.77306C10.8714 6.83689 10.9053 8.26574 9.92861 9.1379C9.75775 9.28916 9.74374 9.54966 9.895 9.71773L9.8978 9.72053C10.0491 9.8886 10.3068 9.9026 10.4748 9.75134C11.7549 8.60288 11.6933 6.81017 11.6905 6.74854C11.6709 4.92781 10.5084 3.86059 10.458 3.81577C10.2956 3.68972 10.0659 3.70092 9.91741 3.84378C9.75494 4.00064 9.75214 4.26115 9.90901 4.42361C9.90915 4.42376 9.90959 4.42417 9.9103 4.42484Z" fill="#313235"/>
</svg>
