<svg width="24" height="24" viewBox="0 0 24 24" fill="none" xmlns="http://www.w3.org/2000/svg">
<path fill-rule="evenodd" clip-rule="evenodd" d="M9.96577 17.7722C5.65205 17.7722 2.15625 14.2764 2.15625 9.96266C2.15625 7.89263 2.97978 5.90664 4.44196 4.44165C7.47558 1.37722 12.4196 1.34921 15.4868 4.38003C18.5093 7.36663 18.5806 12.211 15.6792 15.2866L21.7641 21.3688C21.8733 21.4781 21.8733 21.6545 21.7669 21.7638C21.7137 21.817 21.6436 21.8478 21.568 21.8478C21.4924 21.8478 21.4224 21.817 21.3691 21.7638L15.2835 15.6808C13.843 17.0277 11.9414 17.7775 9.96577 17.7722ZM9.96577 2.71616C5.96297 2.71616 2.71647 5.95986 2.71647 9.96266C2.71647 11.8842 3.48118 13.7274 4.83972 15.0887C7.66886 17.9206 12.2599 17.9206 15.089 15.0887C17.9182 12.2568 17.921 7.66854 15.089 4.83941C13.7333 3.47526 11.8873 2.71056 9.96577 2.71616Z" fill="#313235"/>
</svg>
