<svg width="24" height="24" viewBox="0 0 24 24" fill="none" xmlns="http://www.w3.org/2000/svg">
<path fill-rule="evenodd" clip-rule="evenodd" d="M14.8945 2.15991C16.5555 2.15991 18.1298 2.35879 19.323 2.71734C20.9953 3.22154 21.8412 4.00865 21.844 5.05907V18.947C21.844 19.9946 20.9981 20.7818 19.3258 21.286C18.1185 21.6473 16.5471 21.8462 14.8973 21.8462C13.2502 21.8462 11.6788 21.6473 10.4715 21.2888C8.79922 20.7846 7.95328 19.9974 7.95328 18.947V17.4792C7.36505 17.3056 6.81603 17.0199 6.33423 16.6417L2.85524 20.1179C2.69838 20.272 2.44628 20.272 2.28661 20.1179C2.12135 19.961 2.11855 19.7005 2.27541 19.5381L5.73759 16.0787C4.95048 15.2159 4.46589 14.0731 4.46589 12.8154C4.46589 10.6137 5.93927 8.75095 7.95328 8.15431V5.05627C7.95328 4.89381 7.97569 4.72854 8.02051 4.57168V4.56888C8.253 3.75935 9.07653 3.1375 10.4687 2.71734C11.6648 2.35879 13.2362 2.15991 14.8945 2.15991ZM14.8945 2.98064C13.3174 2.98064 11.8272 3.16551 10.7068 3.50445C9.63675 3.82658 8.98689 4.26355 8.81603 4.76776C8.81743 4.77196 8.81953 4.77546 8.82163 4.77896C8.82373 4.78246 8.82583 4.78596 8.82723 4.79016C8.9953 5.29156 9.64796 5.72854 10.7152 6.05067C11.8384 6.3896 13.3258 6.57448 14.9029 6.57448C16.4799 6.57448 17.9673 6.3868 19.0905 6.05067C20.1298 5.73694 20.7796 5.31397 20.9645 4.82938C20.9672 4.82396 20.9706 4.81986 20.9736 4.81611C20.9769 4.8121 20.9798 4.80851 20.9813 4.80417C20.83 4.27476 20.1942 3.83778 19.0849 3.50445C17.9645 3.16551 16.4771 2.98064 14.8945 2.98064ZM8.77121 6.00865C9.18577 6.33638 9.7544 6.61369 10.4827 6.83498C11.6816 7.19353 13.253 7.39241 14.9057 7.39241C16.5611 7.39241 18.1326 7.19353 19.3314 6.83498C20.0569 6.61649 20.6115 6.35039 21.0205 6.03106V9.6417C20.8132 10.0283 20.211 10.5437 19.0961 10.8798C17.9729 11.2187 16.4855 11.4036 14.8973 11.4036C14.8662 11.4029 14.813 11.4026 14.7456 11.4021L14.7454 11.4021H14.7454H14.7454H14.7453C14.5455 11.4008 14.2207 11.3987 13.9757 11.384C13.3426 9.34759 11.4603 7.95823 9.32863 7.95543C9.14096 7.95543 8.95328 7.96944 8.77121 7.98904V6.00865ZM13.3734 12.8182C13.3706 10.5857 11.5611 8.77616 9.32863 8.77336C7.09614 8.77616 5.28661 10.5857 5.28381 12.8182C5.28661 15.0507 7.09614 16.8602 9.32863 16.863C11.5611 16.8602 13.3706 15.0507 13.3734 12.8182ZM14.8973 21.0255C16.4687 21.0255 17.9561 20.8406 19.0877 20.5016C20.3706 20.1151 21.0205 19.5941 21.0233 18.947V15.6921C20.5835 16.0283 20.0121 16.3168 19.3342 16.5185C18.1382 16.8798 16.5667 17.0759 14.9085 17.0759C13.9701 17.0759 13.0709 17.0143 12.2306 16.8938C12.1746 16.8854 12.1185 16.863 12.0709 16.8322C11.1101 17.4988 9.93647 17.7874 8.77401 17.6473V18.947C8.77401 19.5913 9.42667 20.1151 10.7096 20.5016C11.8384 20.8406 13.3286 21.0255 14.8973 21.0255ZM14.1942 12.8154C14.1942 12.6109 14.1774 12.4092 14.1522 12.2103C14.4491 12.2187 14.7684 12.2215 14.9001 12.2215H14.9113C16.5695 12.2215 18.1382 12.0227 19.337 11.6641C20.0149 11.4596 20.5891 11.1739 21.0261 10.8378V14.496C20.8188 14.8798 20.2138 15.398 19.1017 15.7313C17.9813 16.0675 16.4939 16.2551 14.9141 16.2551C14.2054 16.2551 13.5303 16.2075 12.8805 16.1375C13.7208 15.2383 14.1914 14.0507 14.1942 12.8154Z" fill="#313235"/>
</svg>
