<svg width="24" height="24" viewBox="0 0 24 24" fill="none" xmlns="http://www.w3.org/2000/svg">
<path fill-rule="evenodd" clip-rule="evenodd" d="M21.8425 13.852C21.8425 9.63629 18.5624 8.93041 17.145 8.82397C15.9686 5.21892 11.8845 5.03125 11.061 5.03125C10.0022 5.03125 4.7697 5.31696 4.65765 10.908C3.60723 11.289 2.15625 12.2721 2.15625 14.7932C2.15625 17.8772 4.34112 18.9752 6.38594 18.9752L16.6717 18.9192C17.5344 18.9192 21.8425 18.6755 21.8425 13.852ZM21.019 13.8492C21.019 17.796 17.6913 18.1013 16.6689 18.1013L6.37754 18.1573C5.35513 18.1573 2.97418 17.8296 2.97418 14.7904C2.97418 13.0845 3.71647 12.0088 5.18146 11.5943C5.36073 11.5467 5.48118 11.3842 5.48118 11.2021L5.47558 11.0901C5.47558 6.22453 9.74729 5.84638 11.0582 5.84638C11.7977 5.84638 15.5428 6.01444 16.4336 9.31977C16.4812 9.49343 16.638 9.61668 16.8201 9.62229C18.0834 9.6559 21.019 10.1405 21.019 13.8492ZM11.9994 13.6027C12.7641 13.6027 13.1198 13.2497 13.1198 12.4906C13.1198 11.7315 12.7641 11.3758 11.9994 11.3758C11.2347 11.3758 10.8789 11.7287 10.8789 12.4906C10.8789 13.2469 11.2347 13.6027 11.9994 13.6027ZM13.9406 12.4878C13.9406 11.2806 13.2151 10.5579 11.9994 10.5579C10.7837 10.5579 10.0582 11.2806 10.0582 12.4878C10.0582 13.6951 10.7837 14.4178 11.9994 14.4178C13.2151 14.4178 13.9406 13.6951 13.9406 12.4878ZM14.7837 12.7651H15.5204L15.498 12.1909L14.7837 12.2133C14.582 12.2133 14.4084 12.0677 14.3775 11.8688C14.3327 11.5999 14.2599 11.359 14.1562 11.1545C14.0778 10.9976 14.1086 10.8072 14.2347 10.6839L14.7809 10.1433L14.3439 9.73153L13.8201 10.2721C13.6969 10.3954 13.5064 10.4262 13.3467 10.3506C13.1254 10.2413 12.8957 10.1713 12.624 10.1293C12.4252 10.0985 12.2767 9.92761 12.2767 9.72593V8.99484L11.6997 9.01724L11.7193 9.72873C11.7193 9.93041 11.5736 10.1013 11.3719 10.1321C11.1002 10.1741 10.8593 10.2497 10.652 10.3506C10.4924 10.429 10.3047 10.3982 10.1787 10.2721L9.63244 9.73153L9.21787 10.1657L9.76129 10.6839C9.89294 10.8128 9.92096 11.0144 9.82852 11.1741C9.75009 11.317 9.66325 11.5971 9.61843 11.8744C9.58762 12.0733 9.41395 12.2161 9.21227 12.2161H8.47558L8.49519 12.7904L9.20947 12.7707C9.41115 12.7707 9.58482 12.9164 9.61563 13.1153C9.66045 13.3898 9.74449 13.6727 9.82572 13.8156C9.91535 13.9752 9.88734 14.1769 9.75849 14.3058L9.21507 14.8464L9.65205 15.2581L10.1731 14.7175C10.2515 14.6391 10.3579 14.5971 10.4644 14.5971C10.526 14.5971 10.5876 14.6111 10.6464 14.6391C10.8565 14.7427 11.0974 14.8184 11.3663 14.8604C11.5652 14.8912 11.7137 15.0621 11.7137 15.2637V15.9948L12.2711 15.9752V15.2553C12.2711 15.0537 12.4196 14.8828 12.6184 14.852C12.8901 14.81 13.1198 14.7371 13.3411 14.6307C13.498 14.5551 13.6885 14.5859 13.8145 14.7091L14.3607 15.2497L14.7753 14.8156L14.2291 14.2946C14.103 14.1713 14.0722 13.9808 14.1506 13.824C14.2543 13.6195 14.3271 13.3786 14.3719 13.1097C14.4084 12.9108 14.582 12.7651 14.7837 12.7651ZM16.3215 12.1909C16.3215 11.7511 15.963 11.3954 15.5204 11.3954V11.3898H15.117C15.0862 11.2777 15.0498 11.1657 15.0106 11.0593L15.3579 10.7147C15.5092 10.5635 15.5932 10.3618 15.5932 10.1489C15.5932 9.93601 15.512 9.73433 15.3579 9.58307L14.921 9.1489C14.6072 8.83517 14.0946 8.83517 13.7809 9.1489L13.4336 9.49343C13.3271 9.45142 13.2151 9.4178 13.1002 9.38699V8.98643C13.1002 8.54666 12.7417 8.19091 12.2991 8.19091H11.7025C11.2627 8.19091 10.9013 8.54666 10.9013 8.98643V9.38699C10.7865 9.415 10.6745 9.45142 10.568 9.49063L10.2207 9.1461C10.0694 8.99484 9.86773 8.9108 9.65205 8.9108H9.64925C9.43356 8.9108 9.22908 8.99484 9.07782 9.1461L8.64084 9.58027C8.48958 9.73153 8.40555 9.93321 8.40555 10.1461C8.40555 10.359 8.48958 10.5607 8.64084 10.7119L8.98538 11.0537C8.94336 11.1685 8.90975 11.2862 8.88454 11.3898H8.48118C8.0414 11.3898 7.68006 11.7455 7.68006 12.1853V12.7791C7.68006 13.2161 8.0386 13.5747 8.48118 13.5747H8.88454C8.90975 13.6811 8.94336 13.796 8.98538 13.9108L8.64364 14.2525C8.48958 14.4038 8.40555 14.6055 8.40555 14.8212C8.40555 15.0341 8.48958 15.2357 8.64084 15.387L9.07782 15.8212C9.23188 15.9752 9.43356 16.0565 9.64925 16.0565H9.65205C9.86773 16.0565 10.0694 15.9724 10.2207 15.8212L10.568 15.4766C10.6745 15.5158 10.7865 15.5495 10.9013 15.5803V15.9808C10.9013 16.4206 11.2599 16.7763 11.7025 16.7763H12.2991C12.7417 16.7763 13.1002 16.4206 13.1002 15.9808V15.5831C13.2151 15.5523 13.3271 15.5186 13.4336 15.4766L13.7809 15.8212C14.0946 16.1349 14.6072 16.1349 14.921 15.8212L15.3579 15.387C15.5092 15.2357 15.5932 15.0341 15.5932 14.8212C15.5932 14.6055 15.5092 14.4038 15.3579 14.2553L15.0106 13.9108C15.0526 13.8072 15.0862 13.6951 15.117 13.5803H15.5204C15.963 13.5803 16.3215 13.2245 16.3215 12.7848V12.1909Z" fill="#313235"/>
</svg>
