<svg width="24" height="24" viewBox="0 0 24 24" fill="none" xmlns="http://www.w3.org/2000/svg">
<path fill-rule="evenodd" clip-rule="evenodd" d="M20.5876 11.4084C21.2907 11.4756 21.8425 12.0582 21.8425 12.7725C21.8425 13.3047 21.5344 13.7613 21.0946 13.9798L21.0974 16.7809C21.0974 19.1002 18.7389 20.9406 16.4532 21.2767C16.3327 21.6016 16.0218 21.8397 15.652 21.8397C15.3047 21.8397 15.0078 21.6296 14.8733 21.3355H9.0274C8.89294 21.6324 8.59603 21.8397 8.24869 21.8397C7.87334 21.8397 7.56241 21.596 7.44757 21.2627C5.19266 20.8901 2.90135 19.0666 2.90135 16.7837V14.0386C2.90135 14.0285 2.90437 14.0184 2.9074 14.0084C2.90942 14.0016 2.91143 13.9949 2.91255 13.9882C2.46437 13.7585 2.15625 13.3019 2.15625 12.7669C2.15625 12.005 2.7781 11.3887 3.54561 11.3887H4.15345V5.0246C4.15345 3.44196 5.45037 2.15625 7.04701 2.15625C8.46998 2.15625 9.67166 3.20667 9.89294 4.57922C10.7389 4.74729 11.3747 5.48958 11.3747 6.37474V6.57362C11.3747 6.93216 11.0806 7.22628 10.7165 7.22628H8.34112C7.97978 7.22628 7.68286 6.93216 7.68286 6.57362V6.37474C7.68286 5.526 8.2711 4.81451 9.06381 4.61003C8.86493 3.68006 8.0302 2.97978 7.04701 2.97978C5.90695 2.97978 4.97978 3.90135 4.97978 5.0302V11.3943H12.7417C12.7753 10.9266 12.9798 10.638 13.1591 10.484C13.442 10.2459 13.7893 10.1703 14.0554 10.1534C14.1731 9.7837 14.3859 9.56521 14.5652 9.43916C14.9714 9.15345 15.4616 9.15345 15.7473 9.18426C16.145 8.84533 16.5708 8.68846 17.019 8.73328C17.6464 8.7865 18.1282 9.21507 18.3607 9.46998C19.019 9.43916 19.5512 9.61003 19.9462 9.96577C20.5092 10.4756 20.5792 11.2067 20.5876 11.4084ZM8.50919 6.40835V6.37754C8.50919 5.82012 8.96577 5.36633 9.5288 5.36633C10.0918 5.36633 10.5484 5.82012 10.5484 6.37754L8.50919 6.40835ZM14.3327 10.977C14.2263 10.9602 13.8789 10.9546 13.6997 11.1086C13.6689 11.1338 13.5932 11.2095 13.5708 11.3943H19.7613C19.7473 11.2487 19.6885 10.8397 19.3859 10.568C19.1282 10.3411 18.7361 10.2543 18.2235 10.3047C18.0722 10.3187 17.9266 10.2571 17.8425 10.1338C17.7333 9.98538 17.3607 9.58762 16.949 9.55401C16.7025 9.5316 16.442 9.64925 16.1787 9.91255C16.075 10.0162 15.9266 10.0554 15.7837 10.0218C15.6577 9.99098 15.2739 9.94617 15.0442 10.1114C14.9098 10.2067 14.8313 10.3719 14.8089 10.6128C14.7977 10.7249 14.7389 10.8257 14.6492 10.8957C14.5596 10.9658 14.4392 10.9938 14.3327 10.977ZM3.54561 12.2151H20.4504C20.7613 12.2151 21.0134 12.4672 21.0134 12.7725C21.0134 13.0778 20.7613 13.3327 20.4504 13.3327H3.54561C3.23468 13.3327 2.98258 13.0806 2.98258 12.7725C2.98258 12.4644 3.23748 12.2151 3.54561 12.2151ZM16.3131 20.4756C16.1562 20.2795 15.9238 20.1478 15.652 20.1478C15.3607 20.1478 15.1142 20.3019 14.9602 20.5232H8.94336C8.7865 20.3019 8.5428 20.1478 8.25149 20.1478C7.98538 20.1478 7.75569 20.2767 7.60163 20.4644C5.71087 20.1591 3.73328 18.6352 3.73328 16.7921V14.1534H20.2711L20.2739 16.7921C20.2683 18.6633 18.2291 20.2039 16.3131 20.4756Z" fill="#313235"/>
</svg>
