<svg width="24" height="24" viewBox="0 0 24 24" fill="none" xmlns="http://www.w3.org/2000/svg">
<path fill-rule="evenodd" clip-rule="evenodd" d="M21.7501 10.2144C21.935 9.7718 21.8369 9.2788 21.4952 8.92866L15.2543 2.5281C14.7697 2.0323 13.8509 2.0323 13.3663 2.5281L7.11703 8.93146C7.11375 8.93474 7.11143 8.93802 7.10951 8.94074L7.10951 8.94075L7.10771 8.94324L7.10583 8.94547H4.57642C3.7893 8.94547 3.20107 9.15555 2.7781 9.58692C2.36073 10.0099 2.15625 10.5953 2.15625 11.3768V19.4105C2.15625 20.2088 2.36353 20.8026 2.7837 21.2228C3.20107 21.6401 3.7865 21.8418 4.57642 21.8418H8.56801C9.35513 21.8418 9.94337 21.6401 10.3607 21.2228C10.7837 20.8026 10.9882 20.2088 10.9882 19.4105V17.867H18.8033C19.5148 17.867 20.0918 17.318 20.0918 16.6429V10.9875H20.5512C21.0834 10.9875 21.554 10.685 21.7501 10.2144ZM20.9882 9.89224C21.0218 9.81381 21.0526 9.66255 20.907 9.51129L14.6605 3.10793C14.484 2.92586 14.1282 2.92586 13.9518 3.10793L8.25709 8.94266H8.57082C9.36353 8.94266 9.95177 9.14715 10.3691 9.57012C10.7865 9.99308 10.9882 10.5813 10.9882 11.374V17.0351H18.8033C19.0582 17.0351 19.2655 16.8586 19.2655 16.6429V10.5729C19.2655 10.3432 19.4504 10.1584 19.6773 10.1584H20.5512C20.7949 10.1556 20.935 10.0183 20.9882 9.89224ZM10.1647 19.4076V11.374C10.1647 10.8138 10.0386 10.4161 9.7837 10.1555C9.5288 9.89785 9.13104 9.7718 8.57082 9.7718H4.57642C4.0218 9.7718 3.62684 9.90065 3.36633 10.164C3.10863 10.4273 2.98258 10.8222 2.98258 11.3712V19.4076C2.98258 19.9735 3.10863 20.374 3.36633 20.6317C3.62124 20.8838 4.01619 21.0099 4.57642 21.0099H8.57082C9.13104 21.0099 9.526 20.8866 9.7809 20.6317C10.0386 20.374 10.1647 19.9735 10.1647 19.4076ZM6.57362 19.0463C6.99939 19.0463 7.25149 19.3012 7.25149 19.7298C7.25149 19.9399 7.19266 20.1051 7.07502 20.2256C6.95737 20.3488 6.7837 20.4133 6.57362 20.4133C6.36633 20.4133 6.19266 20.3488 6.07502 20.2256C5.95737 20.1051 5.89855 19.9371 5.89855 19.7298C5.89575 19.304 6.14785 19.0463 6.57362 19.0463ZM14.6885 13.4301C14.6885 13.5281 14.6885 13.6289 14.4616 13.6345C14.2907 13.6317 14.2767 13.5477 14.2767 13.4273C14.2767 13.304 14.2907 13.2228 14.4532 13.2228H14.5008C14.6885 13.2256 14.6885 13.3348 14.6885 13.4301ZM14.5288 12.3936C15.0134 12.402 15.5148 12.727 15.5148 13.4301C15.5148 14.1303 15.0162 14.4553 14.5204 14.4637C13.9518 14.4581 13.4504 14.1331 13.4504 13.4245C13.4504 12.7158 13.9518 12.3936 14.4476 12.3908C14.4518 12.3922 14.47 12.3922 14.4882 12.3922C14.5064 12.3922 14.5246 12.3922 14.5288 12.3936ZM18.3607 9.06872C16.8173 7.32922 14.5288 7.44687 14.4476 7.45247C11.9826 7.47768 10.6633 8.91185 10.61 8.97348C10.456 9.14435 10.47 9.40485 10.638 9.55891C10.8061 9.71577 11.0666 9.70177 11.2207 9.5337L11.2211 9.53327C11.2717 9.47948 12.375 8.30675 14.4756 8.2844L14.478 8.28433C14.5577 8.28176 16.4947 8.21936 17.7445 9.62334C17.8257 9.71297 17.9406 9.76059 18.0526 9.76059C18.1506 9.76059 18.2487 9.72418 18.3271 9.65415C18.498 9.50289 18.512 9.23958 18.3607 9.06872ZM14.4504 9.09673L14.4603 9.0966C14.6219 9.09405 16.3767 9.06633 17.5148 10.346C17.6661 10.5169 17.652 10.7774 17.4812 10.9315C17.3131 11.0855 17.0498 11.0687 16.8985 10.8978C15.991 9.87544 14.4896 9.92306 14.4728 9.92586C12.9714 9.94266 12.075 10.9062 12.0666 10.9175C11.9854 11.0071 11.8733 11.0519 11.7613 11.0519C11.6633 11.0519 11.5624 11.0155 11.484 10.9455C11.3159 10.7914 11.3019 10.5309 11.4532 10.36L11.4555 10.3575C11.5273 10.2807 12.6125 9.11884 14.4504 9.09673ZM16.512 11.6205C15.7221 10.7326 14.4952 10.7746 14.4588 10.7802C13.2179 10.7942 12.484 11.5953 12.456 11.6289C12.3019 11.7998 12.3159 12.0603 12.484 12.2144C12.5624 12.2844 12.6633 12.3208 12.7613 12.3208C12.8733 12.3208 12.9854 12.276 13.0666 12.1864C13.0862 12.164 13.5988 11.6205 14.4812 11.6093C14.498 11.6009 15.3747 11.5869 15.8957 12.1724C16.047 12.3432 16.3103 12.3572 16.4784 12.206C16.6492 12.0519 16.6633 11.7914 16.512 11.6205Z" fill="#313235"/>
</svg>
