<svg width="24" height="24" viewBox="0 0 24 24" fill="none" xmlns="http://www.w3.org/2000/svg">
<path d="M20.489 12.3805H20.7944C21.0381 12.3805 21.2341 12.1844 21.2341 11.9407C21.2341 11.697 21.0381 11.5009 20.7944 11.5009H20.6067L21.7187 10.3889C21.8924 10.218 21.8924 9.93792 21.7187 9.76706C21.5479 9.59619 21.2678 9.59619 21.0969 9.76706L19.3602 11.5037H18.1949L18.7804 10.9183C18.9512 10.7474 18.9512 10.4673 18.7804 10.2965C18.6067 10.1256 18.3294 10.1256 18.1585 10.2965L16.9512 11.5037H13.1137L16.7916 7.82588H19.0577C19.3014 7.82588 19.4974 7.6298 19.4974 7.3861C19.4974 7.14241 19.3014 6.94633 19.0577 6.94633H17.6739L17.7664 6.85389C17.94 6.68022 17.94 6.40291 17.7664 6.23204C17.5955 6.05837 17.3154 6.05837 17.1445 6.23204L17.1249 6.25165V5.01355C17.1249 4.76986 16.9288 4.57378 16.6851 4.57378C16.4414 4.57378 16.2453 4.76986 16.2453 5.01355V7.134L12.4442 10.9239V7.15921L13.7327 5.8707C13.9036 5.69983 13.9036 5.41972 13.7327 5.24885C13.5619 5.07798 13.2818 5.07798 13.1109 5.24885L12.4442 5.91551V4.70543L14.2397 2.90991C14.4134 2.73904 14.4134 2.45893 14.2397 2.28806C14.0689 2.1172 13.7888 2.1172 13.6179 2.28806L12.447 3.45893V3.15361C12.447 2.90991 12.2509 2.71383 12.0073 2.71383C11.7636 2.71383 11.5675 2.90991 11.5675 3.15361V3.45893L10.3966 2.28806C10.2257 2.1172 9.94563 2.1172 9.77476 2.28806C9.60389 2.45893 9.60389 2.73904 9.77476 2.90991L11.5703 4.70543V5.79787L11.0213 5.24885C10.8504 5.07798 10.5703 5.07798 10.3994 5.24885C10.2285 5.42252 10.2285 5.69983 10.3994 5.8707L11.5703 7.04437V10.8819L7.89241 7.20403V5.01075C7.89241 4.76706 7.69633 4.57098 7.45263 4.57098C7.20893 4.57098 7.01285 4.76706 7.01285 5.01075V6.32168L6.92042 6.22924C6.74955 6.05557 6.46944 6.05557 6.29857 6.22924C6.1277 6.40011 6.1277 6.68022 6.29857 6.85109L6.391 6.94353H5.08008C4.83638 6.94353 4.6403 7.1396 4.6403 7.3833C4.6403 7.627 4.83638 7.82308 5.08008 7.82308H7.27336L10.9512 11.5009H7.17812L5.97084 10.2937C5.79717 10.1228 5.51986 10.1228 5.34899 10.2937C5.17532 10.4645 5.17532 10.7446 5.34899 10.9155L5.93442 11.5009H4.65151L2.91481 9.76425C2.74395 9.59339 2.46383 9.59339 2.29297 9.76425C2.1193 9.93792 2.1193 10.2152 2.29297 10.3861L3.40501 11.4981H3.21734C2.97364 11.4981 2.77756 11.6942 2.77756 11.9379C2.77756 12.1816 2.97364 12.3777 3.21734 12.3777H3.51986L2.29016 13.6074C2.11649 13.7811 2.11649 14.0584 2.29016 14.232C2.377 14.3189 2.48904 14.3609 2.60109 14.3609C2.71313 14.3609 2.82798 14.3189 2.91201 14.232L4.76635 12.3805H5.97644L5.34619 13.0108C5.17252 13.1816 5.17252 13.4617 5.34619 13.6326C5.43302 13.7194 5.54507 13.7615 5.65711 13.7615C5.76916 13.7615 5.884 13.7194 5.96804 13.6326L7.22014 12.3805H10.9848L7.18932 16.176H5.06888C4.82518 16.176 4.6291 16.3721 4.6291 16.6158C4.6291 16.8595 4.82518 17.0556 5.06888 17.0556H6.30697L6.28736 17.0752C6.11649 17.246 6.11649 17.5262 6.28736 17.697C6.3742 17.7839 6.48624 17.8259 6.59829 17.8259C6.71033 17.8259 6.82518 17.7839 6.90921 17.697L7.00165 17.6046V18.9883C7.00165 19.232 7.19773 19.4281 7.44142 19.4281C7.68512 19.4281 7.8812 19.232 7.8812 18.9883V16.7222L11.5591 13.0444V16.8819L10.3882 18.0528C10.2173 18.2264 10.2173 18.5037 10.3882 18.6746C10.5591 18.8483 10.8392 18.8483 11.0101 18.6746L11.5591 18.1256V19.2909L9.76355 21.0864C9.59269 21.2572 9.59269 21.5374 9.76355 21.7082C9.93442 21.8791 10.2145 21.8791 10.3854 21.7082L11.5563 20.5374V20.725C11.5563 20.9687 11.7523 21.1648 11.996 21.1648C12.2397 21.1648 12.4358 20.9687 12.4358 20.725V20.5374L13.6067 21.7082C13.6935 21.7923 13.8056 21.8371 13.9176 21.8371C14.0297 21.8371 14.1445 21.7951 14.2285 21.7082C14.4022 21.5346 14.4022 21.2572 14.2285 21.0864L12.433 19.2909V18.008L13.0997 18.6718C13.1865 18.7587 13.2986 18.8007 13.4106 18.8007C13.5227 18.8007 13.6347 18.7587 13.7215 18.6718C13.8924 18.5009 13.8924 18.2208 13.7215 18.05L12.433 16.7615V12.9967L16.2285 16.7923V18.9827C16.2285 19.2264 16.4246 19.4225 16.6683 19.4225C16.912 19.4225 17.1081 19.2264 17.1081 18.9827V17.6718L17.1277 17.6914C17.2145 17.7783 17.3266 17.8203 17.4386 17.8203C17.5507 17.8203 17.6655 17.7783 17.7495 17.6914C17.9232 17.5206 17.9232 17.2404 17.7495 17.0696L17.7299 17.05H19.0409C19.2846 17.05 19.4806 16.8539 19.4806 16.6102C19.4806 16.3665 19.2846 16.1704 19.0409 16.1704H16.8504L13.0689 12.3805H16.9064L18.1585 13.6326C18.2453 13.7194 18.3574 13.7615 18.4694 13.7615C18.5815 13.7615 18.6963 13.7194 18.7804 13.6326C18.9512 13.4617 18.9512 13.1816 18.7804 13.0108L18.1501 12.3805H19.2425L21.0941 14.2348C21.1809 14.3217 21.293 14.3637 21.405 14.3637C21.5171 14.3637 21.6319 14.3217 21.7159 14.2348C21.8896 14.0612 21.8896 13.7839 21.7159 13.6102L20.489 12.3805Z" fill="#313235"/>
</svg>
