<svg width="24" height="24" viewBox="0 0 24 24" fill="none" xmlns="http://www.w3.org/2000/svg">
<path fill-rule="evenodd" clip-rule="evenodd" d="M18.3317 3.91519C18.3317 2.94288 19.1191 2.1499 20.0858 2.1499C21.0553 2.1499 21.8427 2.94288 21.8399 3.91519C21.8399 4.8875 21.0553 5.67768 20.0858 5.67768C19.8981 5.67768 19.7215 5.64125 19.5506 5.58521L16.9167 10.0321C17.2305 10.3571 17.407 10.7914 17.4099 11.2453C17.4155 12.2177 16.6281 13.0106 15.6558 13.0134C14.6891 13.0134 13.9017 12.2205 13.9017 11.2481C13.9017 11.1445 13.9129 11.0408 13.9325 10.9399L9.39319 8.93646C9.07376 9.35677 8.57219 9.63417 8.00618 9.63417C7.84086 9.63417 7.68114 9.60895 7.52423 9.56412L5.09766 13.8765C5.45071 14.2071 5.65246 14.6666 5.65526 15.1514C5.66087 16.1237 4.87629 16.9167 3.90398 16.9223C2.93728 16.9223 2.1499 16.1293 2.1499 15.157C2.1499 14.1847 2.93728 13.3945 3.90398 13.3945C4.0665 13.3973 4.22902 13.4225 4.38313 13.4702L6.80971 9.15502C6.45945 8.82438 6.2493 8.36484 6.2493 7.87168C6.2493 6.89937 7.03387 6.10639 8.00338 6.10639C8.97009 6.10639 9.75746 6.89657 9.75746 7.86888C9.75746 7.97256 9.74625 8.07623 9.72664 8.17711L14.266 10.1806C14.5882 9.76026 15.087 9.48286 15.6558 9.48286C15.8491 9.48286 16.0396 9.51648 16.2218 9.58373L18.8445 5.1621C18.5279 4.83987 18.3317 4.39995 18.3317 3.91519ZM20.0886 4.85388C19.573 4.85388 19.1555 4.43357 19.1555 3.91799C19.1555 3.40242 19.573 2.97931 20.0886 2.97931C20.6042 2.97931 21.0217 3.39962 21.0217 3.91799C21.0217 4.43637 20.6014 4.85388 20.0886 4.85388ZM15.6586 12.184C15.143 12.1812 14.7255 11.7637 14.7255 11.2453C14.7255 10.7298 15.143 10.3095 15.6586 10.3095C16.1741 10.3095 16.5945 10.7298 16.5917 11.2453C16.5917 11.7609 16.1741 12.184 15.6586 12.184ZM7.0759 7.87448C7.0759 8.39006 7.49341 8.80757 8.00898 8.80757C8.52456 8.80476 8.94206 8.38446 8.93926 7.86888C8.94206 7.3533 8.52456 6.9358 8.00898 6.933C7.49341 6.933 7.0759 7.3533 7.0759 7.86888V7.87448ZM3.90679 16.0957C3.39121 16.0957 2.9737 15.6754 2.9737 15.1598C2.9737 14.6442 3.39121 14.2239 3.90679 14.2239C4.42236 14.2267 4.83987 14.6442 4.83987 15.1598C4.83707 15.6754 4.41956 16.0957 3.90679 16.0957Z" fill="#313235"/>
</svg>
