<svg width="24" height="24" viewBox="0 0 24 24" fill="none" xmlns="http://www.w3.org/2000/svg">
<path fill-rule="evenodd" clip-rule="evenodd" d="M14.6604 10.6464C14.6296 10.6464 14.5988 10.6436 14.568 10.638C14.173 10.568 14.173 10.2039 14.173 10.0834V8.72488H13.7837C13.0722 8.72488 12.5344 8.15065 12.5344 7.39154V3.48958C12.5344 2.75289 13.1338 2.15625 13.8677 2.15625H20.5008C21.2375 2.15625 21.8341 2.75289 21.8341 3.48958V7.39154C21.8341 8.12824 21.2375 8.72488 20.5008 8.72488H16.2431C15.9125 9.21787 15.2739 10.1759 15.2375 10.2347L15.2333 10.2409C15.1525 10.3623 14.9633 10.6464 14.6604 10.6464ZM13.8677 2.71647C13.4392 2.71647 13.0946 3.06381 13.0946 3.48958V7.39154C13.0946 7.84813 13.3775 8.16465 13.7837 8.16465H14.4532C14.6072 8.16465 14.7333 8.2907 14.7333 8.44477V9.97698C14.7382 9.96882 14.744 9.96066 14.7503 9.95195L14.7503 9.95195C14.7547 9.9457 14.7594 9.93918 14.7641 9.93216C14.8173 9.84813 15.8173 8.35233 15.8593 8.2907C15.9125 8.21227 15.9994 8.16465 16.0918 8.16745H20.5008C20.9265 8.16745 21.2739 7.82012 21.2739 7.39435V3.48958C21.2739 3.06381 20.9265 2.71647 20.5008 2.71647H13.8677ZM14.9994 6.2739C14.5428 6.2739 14.173 5.90415 14.173 5.44757C14.173 4.99098 14.5428 4.62123 14.9994 4.62123C15.4559 4.62123 15.8257 4.99098 15.8257 5.44757C15.8257 5.90415 15.4559 6.2739 14.9994 6.2739ZM14.9994 5.18146C14.8537 5.18146 14.7333 5.30191 14.7333 5.44757C14.7333 5.59322 14.8537 5.71367 14.9994 5.71367C15.145 5.71367 15.2655 5.59322 15.2655 5.44757C15.2655 5.30191 15.145 5.18146 14.9994 5.18146ZM16.3579 5.44757C16.3579 5.90415 16.7277 6.2739 17.1842 6.2739C17.6408 6.2739 18.0106 5.90415 18.0106 5.44757C18.0106 4.99098 17.6408 4.62123 17.1842 4.62123C16.7277 4.62123 16.3579 4.99098 16.3579 5.44757ZM16.9181 5.44757C16.9181 5.30191 17.0386 5.18146 17.1842 5.18146C17.3299 5.18146 17.4503 5.30191 17.4503 5.44757C17.4503 5.59322 17.3299 5.71367 17.1842 5.71367C17.0386 5.71367 16.9181 5.59322 16.9181 5.44757ZM19.3691 6.2739C18.9126 6.2739 18.5428 5.90415 18.5428 5.44757C18.5428 4.99098 18.9126 4.62123 19.3691 4.62123C19.8257 4.62123 20.1955 4.99098 20.1955 5.44757C20.1955 5.90415 19.8257 6.2739 19.3691 6.2739ZM19.3691 5.18146C19.2235 5.18146 19.103 5.30191 19.103 5.44757C19.103 5.59322 19.2235 5.71367 19.3691 5.71367C19.5148 5.71367 19.6352 5.59322 19.6352 5.44757C19.6352 5.30191 19.5148 5.18146 19.3691 5.18146ZM6.00779 14.6913C6.60723 15.3271 7.48678 15.6492 8.62124 15.6492C9.75569 15.6492 10.6352 15.3271 11.2347 14.6941C11.8005 14.0918 12.089 13.2487 12.089 12.1815C12.089 11.1142 11.8005 10.2683 11.2347 9.66885C10.6352 9.033 9.75569 8.71087 8.62124 8.71087C7.48678 8.71087 6.60723 9.033 6.00779 9.66885C5.44196 10.2711 5.15345 11.1142 5.15345 12.1815C5.15345 13.2487 5.43916 14.0918 6.00779 14.6913ZM8.62124 9.27109C6.21787 9.27109 5.71367 10.8537 5.71367 12.1815C5.71367 14.5848 7.29631 15.089 8.62124 15.089C11.0246 15.089 11.5288 13.5064 11.5288 12.1815C11.5288 10.8565 11.0246 9.27109 8.62124 9.27109ZM2.15625 21.554C2.15625 21.7081 2.2823 21.8341 2.43636 21.8341H14.8061C14.9602 21.8341 15.0862 21.7081 15.0862 21.5568V20.5148C15.0862 19.2459 14.7557 18.2767 14.1086 17.6212C13.4616 16.9658 12.4924 16.6352 11.2319 16.6352H6.01059C4.75009 16.6352 3.7837 16.9658 3.13384 17.6184C2.48398 18.2711 2.15625 19.2459 2.15625 20.512V21.554ZM14.526 21.2739V20.512C14.526 19.3971 14.2515 18.5568 13.7137 18.0134C13.1759 17.47 12.3383 17.1955 11.2319 17.1955H6.01059C4.90415 17.1955 4.06942 17.47 3.5288 18.0134C2.98818 18.5568 2.71647 19.3999 2.71647 20.512V21.2739H14.526Z" fill="#313235"/>
</svg>
