<svg width="24" height="24" viewBox="0 0 24 24" fill="none" xmlns="http://www.w3.org/2000/svg">
<path fill-rule="evenodd" clip-rule="evenodd" d="M21.842 4.05541C21.8392 3.00499 20.9877 2.15625 19.9372 2.15625H17.6991C17.1949 2.15625 16.7748 2.5204 16.7019 3.0246C16.6375 3.46157 16.251 3.7921 15.8084 3.7921C15.3658 3.7921 14.982 3.46157 14.9176 3.0246C14.8448 2.5204 14.4246 2.15625 13.9204 2.15625H11.6851C10.7328 2.15905 9.93163 2.86493 9.80558 3.80611C9.68513 3.84252 9.56468 3.87894 9.45544 3.94056L7.71875 4.91255C7.30418 5.14224 7.13051 5.63244 7.30138 6.07502C7.3462 6.13384 7.38261 6.19827 7.40782 6.26829C7.55628 6.65765 7.3602 7.09463 6.97085 7.24308C6.58149 7.39154 6.14452 7.19547 5.99606 6.80611C5.71034 6.43356 5.19213 6.32712 4.78317 6.55681L3.04368 7.5288C2.64031 7.75289 2.3434 8.13104 2.22015 8.57362C2.0969 9.01619 2.15292 9.49238 2.37981 9.89294L8.62351 20.9574C8.8504 21.3607 9.22295 21.652 9.67113 21.7781C10.1137 21.9042 10.5899 21.8453 10.9933 21.6184L12.7468 20.6352C12.9204 20.5372 13.0381 20.3803 13.1193 20.2011H13.94C14.4218 20.2011 14.8364 19.8593 14.9288 19.3859C15.0017 19.0302 15.279 18.7557 15.6319 18.6829C16.1193 18.5848 16.5955 18.8985 16.6935 19.3859C16.786 19.8593 17.2005 20.2011 17.6823 20.2011H19.9372C20.9877 20.2039 21.8392 19.3551 21.842 18.3047V4.05541ZM21.0101 4.05541V18.3047C21.0129 18.8957 20.5311 19.3747 19.9372 19.3719H17.6823C17.5983 19.3719 17.5227 19.3075 17.5059 19.2235C17.3658 18.5428 16.8364 18.0134 16.1557 17.8733C15.2173 17.6829 14.3042 18.2851 14.1109 19.2235C14.0969 19.3075 14.0241 19.3691 13.9372 19.3719H11.6823C11.0913 19.3719 10.6095 18.8929 10.6095 18.3019V4.05261C10.6095 3.46437 11.0913 2.98258 11.6823 2.98258H13.9204C14.0101 2.98538 14.0857 3.05261 14.0941 3.14224C14.2229 3.98818 14.9512 4.61563 15.8084 4.61843C16.6655 4.61563 17.3938 3.99098 17.5227 3.14224C17.5311 3.05261 17.6067 2.98538 17.6963 2.98538H19.9344C20.5283 2.98538 21.0101 3.46437 21.0101 4.05541ZM11.8252 20.2039L10.5843 20.8985C10.3714 21.0162 10.1249 21.0442 9.88961 20.977C9.65432 20.9098 9.46104 20.7585 9.34059 20.5484L3.1025 9.48398C2.98485 9.2739 2.95404 9.0274 3.02127 8.79491C3.08289 8.55961 3.23975 8.36353 3.44984 8.24589L5.18653 7.2739C5.23695 7.24589 5.30138 7.25989 5.33499 7.30751C5.81959 7.92656 6.68233 8.10303 7.37141 7.72208C8.05488 7.33552 8.3546 6.50639 8.07449 5.7725C8.04928 5.72208 8.07169 5.66045 8.12211 5.63244L9.77477 4.70527V7.48118L5.1165 10.0918C5.1165 10.0946 5.1137 10.0946 5.1137 10.0946C4.91482 10.2067 4.8476 10.4588 4.95964 10.6577L9.32659 18.4027C9.39942 18.5316 9.53947 18.6128 9.68793 18.6128C9.71721 18.6128 9.74377 18.6033 9.77045 18.5937C9.78206 18.5896 9.79369 18.5854 9.80558 18.582C9.94284 19.512 10.7412 20.2011 11.6823 20.2039H11.8252ZM5.88681 10.61L9.77757 17.5064V8.43076L5.88681 10.61ZM12.7131 15.7753H19.0241V6.62964H12.7131V15.7753ZM19.8532 6.21787C19.8532 5.98818 19.6683 5.80331 19.4386 5.80331V5.80051H12.2958C12.0661 5.80051 11.8812 5.98818 11.8812 6.21507V16.1899C11.8812 16.4196 12.0661 16.6044 12.2958 16.6044H19.4386C19.6655 16.6044 19.8532 16.4196 19.8532 16.1899V6.21787Z" fill="#313235"/>
</svg>
