<svg width="24" height="24" viewBox="0 0 24 24" fill="none" xmlns="http://www.w3.org/2000/svg">
<path fill-rule="evenodd" clip-rule="evenodd" d="M11.9921 2.1499C18.2118 2.1499 21.8399 5.29055 21.8399 11.9977C21.8399 18.7049 18.2118 21.8399 11.9921 21.8399C5.77244 21.8399 2.1499 18.7049 2.1499 11.9977C2.1499 5.29055 5.77244 2.1499 11.9921 2.1499ZM11.9921 21.019C17.982 21.019 21.019 17.9848 21.019 11.9977C21.019 6.00778 17.982 2.97079 11.9921 2.97079C6.00497 2.97079 2.97079 6.00778 2.97079 11.9977C2.97079 17.9848 6.00497 21.019 11.9921 21.019ZM15.3149 15.0067L12.4067 12.0958L12.4011 8.16505C12.4011 7.94091 12.2162 7.75601 11.9921 7.75601C11.768 7.75601 11.5831 7.93811 11.5831 8.16505V12.2667C11.5831 12.3759 11.6279 12.4796 11.7035 12.558L14.7349 15.5866C14.8918 15.7407 15.144 15.7407 15.3037 15.5866C15.4689 15.4297 15.4718 15.1692 15.3149 15.0067Z" fill="#313235"/>
</svg>
