<svg width="24" height="24" viewBox="0 0 24 24" fill="none" xmlns="http://www.w3.org/2000/svg">
<path fill-rule="evenodd" clip-rule="evenodd" d="M2.16992 14.4442C2.16992 14.4428 2.17062 14.4407 2.17132 14.4386C2.17202 14.4365 2.17272 14.4344 2.17272 14.433V11.4722C2.17272 11.4708 2.17202 11.4694 2.17132 11.468L2.17132 11.468C2.17062 11.4666 2.16992 11.4652 2.16992 11.4638V7.01839V5.0632C2.16992 4.93155 2.21194 4.8055 2.29037 4.71306C2.366 4.62063 2.46964 4.57021 2.57889 4.57021H13.1083L13.1148 4.57017C13.3113 4.56854 16.5341 4.54191 20.3016 9.08001C21.4136 10.4189 21.9178 11.7915 21.803 13.1612C21.6377 15.1164 20.2512 16.489 19.4416 17.1304C19.1307 17.3769 18.7722 17.5086 18.3996 17.5086H18.3856C17.324 17.4974 13.6601 17.4778 2.58169 17.4778C2.3548 17.4778 2.17272 17.2565 2.17272 16.9848V14.4526C2.17272 14.4526 2.16992 14.447 2.16992 14.4442ZM2.98785 5.5562H13.1223C13.1251 5.559 13.1391 5.559 13.1559 5.5562V11.545C13.1559 11.8195 13.338 12.038 13.5649 12.038H20.915C20.9907 12.3825 21.0215 12.7243 20.9907 13.0604C20.9626 13.3769 20.8842 13.671 20.7806 13.954C20.7778 13.954 20.775 13.9533 20.7722 13.9526C20.7694 13.9519 20.7666 13.9512 20.7638 13.9512H2.99065V11.9568H11.9178C12.1447 11.9568 12.3268 11.7383 12.3268 11.4638V7.01839C12.3268 6.74668 12.1447 6.52539 11.9178 6.52539H2.98785V5.5562ZM20.5635 11.0492L20.5649 11.052V11.0492H20.5635ZM20.5635 11.0492C20.3564 10.6299 20.0767 10.2051 19.7217 9.77749C17.282 6.83911 15.1167 5.94836 13.9738 5.67665V11.0492H20.5635ZM18.9879 16.3069C19.296 16.0632 19.8282 15.5814 20.2708 14.9344H2.99065V16.489C13.7554 16.489 17.3408 16.5114 18.3912 16.5198C18.5957 16.531 18.8086 16.4554 18.9879 16.3069ZM5.3744 10.9708H2.99065V7.51138H5.3744V10.9708ZM6.19233 10.9708H8.47244V7.51138H6.19233V10.9708ZM11.5089 10.9708H9.29037V7.51138H11.5089V10.9708ZM21.8562 18.9288C21.8562 18.657 21.6741 18.4358 21.4472 18.4358H2.57889C2.35199 18.4358 2.16992 18.657 2.16992 18.9288C2.16992 19.2005 2.35199 19.4217 2.57889 19.4217H21.4472C21.6741 19.4217 21.8562 19.2005 21.8562 18.9288Z" fill="#313235"/>
</svg>
