<svg width="24" height="24" viewBox="0 0 24 24" fill="none" xmlns="http://www.w3.org/2000/svg">
<path fill-rule="evenodd" clip-rule="evenodd" d="M16.6369 6.06901C17.1825 6.06901 17.68 6.62889 17.68 7.23966V19.8793C17.68 20.5042 17.1946 21.05 16.6369 21.05H15.5697C15.5697 21.0537 15.5698 21.0571 15.57 21.0604C15.5703 21.0646 15.5707 21.0686 15.5712 21.0726C15.5719 21.0797 15.5727 21.0867 15.5727 21.0952C15.5727 21.8134 14.9908 21.87 14.8431 21.87H14.7738C14.62 21.8672 14.0442 21.8106 14.0442 21.0896C14.0442 21.0811 14.045 21.0747 14.0457 21.0684C14.0465 21.062 14.0472 21.0556 14.0472 21.0471H9.87488C9.87488 21.0556 9.87639 21.0627 9.87789 21.0698C9.8794 21.0768 9.88091 21.0839 9.88091 21.0924C9.88091 21.8106 9.29605 21.8672 9.15135 21.8672H9.079C8.92525 21.8643 8.34944 21.8078 8.34944 21.0867C8.34944 21.0783 8.35019 21.0719 8.35094 21.0655C8.3517 21.0592 8.35245 21.0528 8.35245 21.0443H7.24304C6.68833 21.0443 6.19995 20.4958 6.19995 19.8737V7.24249C6.19995 6.62889 6.69738 6.07184 7.24304 6.07184H8.88002V2.69278C8.88002 2.32518 9.22069 2 9.6126 2H14.2643C14.6532 2 14.9969 2.32235 14.9969 2.69278V6.06901H16.6369ZM9.7362 6.06335V2.82851H14.1497V6.06335H9.7362ZM16.8298 7.23966V19.8793C16.8298 20.0801 16.6851 20.2215 16.6369 20.2186H7.24605C7.1948 20.2158 7.05311 20.0801 7.05311 19.8765V7.23684C7.05311 7.05586 7.1948 6.906 7.24605 6.89469H16.6308C16.6881 6.90883 16.8298 7.05869 16.8298 7.23966ZM14.2613 17.5493C14.2613 17.62 14.2492 17.6907 14.2251 17.7586H9.66385C9.64576 17.7105 9.62767 17.637 9.62767 17.5493V12.3379H14.2613V17.5493ZM9.66385 9.46786C9.63973 9.53573 9.62466 9.60642 9.62466 9.67711V11.5066H14.2552V9.67711C14.2552 9.59511 14.2372 9.51876 14.2161 9.46786H9.66385ZM15.1114 9.67994C15.1114 9.17096 14.8341 8.64218 14.3668 8.64218H9.51914C9.05186 8.64218 8.77451 9.16813 8.77451 9.67994V17.5493C8.77451 18.0527 9.03679 18.5871 9.51914 18.5871H14.3668C14.8491 18.5871 15.1114 18.0527 15.1114 17.5493V9.67994Z" fill="#313235"/>
</svg>
