<svg width="24" height="24" viewBox="0 0 24 24" fill="none" xmlns="http://www.w3.org/2000/svg">
<path fill-rule="evenodd" clip-rule="evenodd" d="M14.568 10.638C14.5988 10.6436 14.6296 10.6464 14.6605 10.6464C14.9675 10.6464 15.1578 10.3543 15.2367 10.2331L15.2375 10.2319C15.2739 10.1731 15.9126 9.21507 16.2431 8.72208H20.4616C21.2123 8.70807 21.8201 8.10023 21.8341 7.34953V3.526C21.8313 3.16465 21.6829 2.82012 21.4252 2.56521C21.1703 2.30751 20.8229 2.16185 20.4616 2.15625H13.4448C12.6829 2.15625 11.9882 2.81171 11.9882 3.5288V7.35233C12.0022 8.10303 12.61 8.71087 13.3607 8.72488H14.1731V10.0834C14.1731 10.2039 14.1731 10.568 14.568 10.638ZM8.62124 15.6492C7.48678 15.6492 6.60723 15.3271 6.00779 14.6913C5.43916 14.0918 5.15345 13.2487 5.15345 12.1815C5.15345 11.1142 5.44196 10.2711 6.00779 9.66885C6.60723 9.033 7.48678 8.71087 8.62124 8.71087C9.75569 8.71087 10.6352 9.033 11.2347 9.66885C11.8005 10.2683 12.089 11.1142 12.089 12.1815C12.089 13.2487 11.8005 14.0918 11.2347 14.6941C10.6352 15.3271 9.75569 15.6492 8.62124 15.6492ZM8.62124 9.2711C7.2935 9.2711 5.71367 9.7753 5.71367 12.1815C5.71367 13.5092 6.21787 15.089 8.62124 15.089C11.0246 15.089 11.5288 13.5064 11.5288 12.1815C11.5288 10.8565 11.0246 9.2711 8.62124 9.2711ZM2.15625 21.554C2.15625 21.7081 2.2823 21.8341 2.43636 21.8341H14.8061C14.9602 21.8341 15.0862 21.7081 15.0862 21.5568V20.5148C15.0862 19.2459 14.7557 18.2767 14.1086 17.6212C13.4616 16.9658 12.4924 16.6352 11.2319 16.6352H6.01059C4.75009 16.6352 3.7837 16.9658 3.13384 17.6184C2.48398 18.2711 2.15625 19.2459 2.15625 20.512V21.554ZM14.526 21.2739V20.512C14.526 19.3971 14.2515 18.5568 13.7137 18.0134C13.1759 17.47 12.3383 17.1955 11.2319 17.1955H6.01059C4.90415 17.1955 4.06942 17.47 3.5288 18.0134C2.98818 18.5568 2.71647 19.3999 2.71647 20.512V21.2739H14.526ZM13.4448 2.71647C12.991 2.71647 12.5484 3.11984 12.5484 3.5288V7.35233C12.5484 7.7781 12.935 8.16465 13.3607 8.16465H14.4532C14.6072 8.16465 14.7333 8.2907 14.7333 8.44477V9.97698C14.7382 9.96882 14.744 9.96066 14.7503 9.95195C14.7547 9.9457 14.7594 9.93918 14.7641 9.93216C14.8173 9.84813 15.8173 8.35233 15.8593 8.2907C15.9126 8.21227 15.9994 8.16465 16.0918 8.16745H20.4616C20.8873 8.16745 21.2739 7.7809 21.2739 7.35513V3.5288C21.2739 3.10303 20.8873 2.71647 20.4616 2.71647H13.4448ZM16.8985 6.68006C16.7193 6.68006 16.5764 6.5344 16.5764 6.35793V5.83692C16.5764 5.48958 16.8761 5.25429 17.0946 5.08342C17.1098 5.07111 17.1249 5.05913 17.1395 5.04757L17.1396 5.04754C17.1682 5.02491 17.1947 5.00392 17.2151 4.98538L17.2375 4.96577C17.4364 4.7893 17.5316 4.69687 17.5316 4.47558C17.5316 4.11143 17.1955 3.85653 16.8957 3.85653C16.5316 3.85653 16.2599 4.12264 16.2599 4.47558C16.2515 4.65485 16.103 4.7921 15.9238 4.7837C15.7557 4.7781 15.6212 4.64364 15.6156 4.47558C15.6156 3.76689 16.1787 3.21227 16.8957 3.21227C17.5904 3.21227 18.1759 3.7921 18.1759 4.47558C18.1759 4.99939 17.8789 5.25989 17.6605 5.45037L17.638 5.46998C17.6073 5.49706 17.5755 5.52298 17.5432 5.54923C17.5254 5.56371 17.5075 5.57829 17.4896 5.59322C17.4084 5.65485 17.2459 5.7865 17.2179 5.84813V6.35793C17.2235 6.5372 17.0778 6.68006 16.8985 6.68006ZM17.2403 7.2767C17.2403 7.36353 17.2067 7.44477 17.145 7.50359C17.0834 7.56802 16.9966 7.60443 16.9069 7.60163C16.8173 7.60443 16.7333 7.56802 16.6717 7.50639C16.61 7.44757 16.5736 7.36633 16.5736 7.2795C16.5736 7.10023 16.7193 6.95177 16.8985 6.95177H16.9069C16.9966 6.94897 17.0834 6.98258 17.145 7.04701C17.2067 7.10863 17.2403 7.18986 17.2403 7.2767Z" fill="#313235"/>
</svg>
