<svg width="24" height="24" viewBox="0 0 24 24" fill="none" xmlns="http://www.w3.org/2000/svg">
<path fill-rule="evenodd" clip-rule="evenodd" d="M21.9952 6.69109C21.9952 6.69109 22.2883 3 18.2985 3C14.3086 3 5.66864 3.00559 5.66864 3.00559C5.66864 3.00559 5.59465 3 5.46658 3C4.70105 3 2.0032 3.2403 2.0032 6.66874V17.3089C2.0032 17.3089 1.75277 20.9832 5.68002 20.9832H18.3013C18.3013 20.9832 18.4208 21 18.62 21C19.5165 21 21.998 20.6926 21.998 17.2894L21.9952 6.69109ZM6.2435 20.1506L6.19227 3.83825C6.9684 3.83825 8.532 3.83726 10.345 3.83612L10.3455 3.83612C12.8468 3.83454 15.8226 3.83266 17.8602 3.83266L17.9114 20.1506H6.2435ZM3.89568 4.25179C3.20699 4.68767 2.85695 5.48122 2.84273 6.59888H5.36983L5.35844 3.83825C5.04256 3.84663 4.43355 3.9109 3.89568 4.25179ZM3.53142 19.4017C2.87917 18.7112 2.83449 17.7016 2.83419 17.4346H5.40398L5.41251 20.1338C4.59291 20.0891 3.95545 19.8488 3.53142 19.4017ZM21.1557 17.4319C21.0988 19.5945 19.8551 20.1226 18.7481 20.159L18.7396 17.4319H21.1557ZM20.4926 4.59826C21.2012 5.35548 21.1727 6.47873 21.1671 6.60168H18.7054L18.6969 3.8606C19.4766 3.92487 20.0856 4.16517 20.4926 4.59826ZM18.7282 14.1012L18.7339 16.5992H21.1642V14.0984C21.1642 14.1012 18.7282 14.1012 18.7282 14.1012ZM18.7054 7.43434H21.1614L21.1642 9.93511H18.7139L18.7054 7.43434ZM18.7168 10.7678L18.7253 13.2685H21.1642V10.7678H18.7168ZM2.83703 16.5992H5.39828L5.38975 14.0984H2.83703V16.5992ZM5.36983 7.43434L5.37836 9.93511H2.83419V7.43434H5.36983ZM2.83703 10.7678V13.2685H5.38975L5.38121 10.7678H2.83703ZM9.50482 14.9367L14.5932 12L9.50482 9.06333V14.9367ZM15.7827 12.2152C15.9051 12.014 15.8368 11.7569 15.6348 11.6396L9.29708 7.98199C9.16901 7.90655 9.00965 7.90655 8.88159 7.98199C8.75352 8.05744 8.67384 8.19435 8.67384 8.34244V15.6604C8.67384 15.8084 8.75352 15.9454 8.88159 16.0208C9.00965 16.0962 9.16901 16.0962 9.29708 16.0208L15.6348 12.3604C15.6945 12.3241 15.7457 12.2738 15.7827 12.2152Z" fill="#313235"/>
</svg>
