<?xml version="1.0" encoding="utf-8"?>
<!-- Generator: Adobe Illustrator 24.2.0, SVG Export Plug-In . SVG Version: 6.00 Build 0)  -->
<svg version="1.1" id="Capa_1" xmlns="http://www.w3.org/2000/svg" xmlns:xlink="http://www.w3.org/1999/xlink" x="0px" y="0px"
	 viewBox="0 0 476 100" style="enable-background:new 0 0 476 100;" xml:space="preserve">
<style type="text/css">
	.st0{fill:#003245;}
	.st1{fill:#00EDFF;}
	.st2{fill:url(#SVGID_1_);}
	.st3{fill:#FFFFFF;}
	.st4{fill:url(#SVGID_2_);}
	.st5{fill:url(#SVGID_3_);}
	.st6{fill:#192C3D;}
	.st7{fill:#00EDED;}
	.st8{fill:url(#SVGID_4_);}
	.st9{fill:url(#SVGID_5_);}
	.st10{fill:#FF00CC;}
	.st11{fill:url(#SVGID_6_);}
	.st12{fill:url(#SVGID_7_);}
	.st13{fill:#980098;}
	.st14{fill:url(#SVGID_8_);}
	.st15{fill:#FF7B00;}
	.st16{fill:url(#SVGID_9_);}
	.st17{fill:#FFFF00;}
	.st18{fill:url(#SVGID_10_);}
	.st19{fill:#00FF99;}
	.st20{fill:url(#SVGID_11_);}
	.st21{fill:url(#SVGID_12_);}
	.st22{fill:url(#SVGID_13_);}
	.st23{fill:url(#SVGID_14_);}
	.st24{fill:none;stroke:#003245;stroke-width:24;stroke-miterlimit:10;}
	.st25{fill:url(#SVGID_15_);}
	.st26{fill:none;stroke:#C4C4C4;stroke-width:4;stroke-miterlimit:10;}
	.st27{fill:none;stroke:#FF2424;stroke-width:20;stroke-miterlimit:10;}
	.st28{fill:none;stroke:#33CC00;stroke-width:20;stroke-miterlimit:10;}
	.st29{fill:url(#SVGID_16_);}
	.st30{fill:url(#SVGID_17_);}
	.st31{fill:url(#SVGID_18_);}
	.st32{fill:url(#SVGID_19_);}
	.st33{fill:url(#SVGID_20_);}
	.st34{fill:url(#SVGID_21_);}
	.st35{fill:url(#SVGID_22_);}
</style>
<g>
	<g>
		<g>
			<path class="st0" d="M59.38,38.62L46.27,74.64c-3.44,9.45-13.89,14.32-23.34,10.88l0,0c-9.45-3.44-14.32-13.89-10.88-23.34
				l13.11-36.02c3.44-9.45,13.89-14.32,23.34-10.88l0,0C57.95,18.72,62.82,29.17,59.38,38.62z"/>
			<path class="st1" d="M64.2,47.4c0,0,9.66-2.36,13.57,7.49l0.6,1.65l6.59,18.1c3.44,9.45,13.89,14.32,23.34,10.88h0
				c9.45-3.44,14.32-13.89,10.88-23.34l-13.11-36.02c-3.44-9.45-13.89-14.32-23.34-10.88l0,0c-5.41,1.97-9.32,6.24-11.03,11.31
				L64.2,47.4z"/>
			<g>
				<path class="st1" d="M84.96,74.64l-6.59-18.1l-0.6-1.65C73.86,45.04,64.2,47.4,64.2,47.4l-5.38,14.79
					c-3.44,9.45,1.43,19.9,10.88,23.34h0c6.96,2.53,14.45,0.56,19.3-4.43C87.26,79.3,85.87,77.13,84.96,74.64z"/>
			</g>
			<g>
				<linearGradient id="SVGID_1_" gradientUnits="userSpaceOnUse" x1="60.7076" y1="89.6724" x2="93.2019" y2="37.6815">
					<stop  offset="0" style="stop-color:#003245;stop-opacity:0"/>
					<stop  offset="1" style="stop-color:#003245"/>
				</linearGradient>
				<path class="st2" d="M84.96,74.64l-6.59-18.1l-0.6-1.65C73.86,45.04,64.2,47.4,64.2,47.4l-5.38,14.79
					c-3.44,9.45,1.43,19.9,10.88,23.34h0c6.96,2.53,14.45,0.56,19.3-4.43C87.26,79.3,85.87,77.13,84.96,74.64z"/>
			</g>
		</g>
		<g>
			<path class="st0" d="M165.34,68.36V53.64c0-3.62-1.9-6.91-5.63-6.91c-3.68,0-5.85,3.29-5.85,6.91v14.72h-6.8V40.81h6.3l0.5,3.35
				c1.45-2.79,4.63-3.79,7.25-3.79c3.29,0,6.58,1.34,8.14,5.13c2.45-3.9,5.63-5.02,9.2-5.02c7.81,0,11.65,4.8,11.65,13.05v14.83
				h-6.8V53.53c0-3.62-1.51-6.69-5.19-6.69s-5.97,3.18-5.97,6.8v14.72H165.34z"/>
			<path class="st0" d="M196.04,68.36V41.82h7.14v26.54H196.04z M205.86,29.44h-7.3l-2.34,7.92v0.33h5.52l4.13-7.97V29.44z"/>
			<path class="st0" d="M226.43,48.17c-1.95-1.84-4.18-2.45-6.8-2.45c-3.23,0-5.02,1-5.02,2.73c0,1.78,1.62,2.79,5.13,3.01
				c5.19,0.33,11.76,1.51,11.76,8.81c0,4.85-3.96,9.03-11.82,9.03c-4.35,0-8.7-0.73-12.71-4.91l3.35-4.85
				c1.95,2.17,6.41,3.79,9.48,3.85c2.56,0.06,4.96-1.28,4.96-3.29c0-1.9-1.56-2.68-5.46-2.9c-5.19-0.39-11.37-2.29-11.37-8.53
				c0-6.36,6.58-8.59,11.6-8.59c4.29,0,7.53,0.84,10.71,3.62L226.43,48.17z"/>
			<path class="st0" d="M244.94,33.12v7.81h7.58v5.85h-7.64v11.88c0,2.62,1.45,3.9,3.57,3.9c1.06,0,2.29-0.33,3.29-0.84l1.9,5.8
				c-1.95,0.78-3.57,1.11-5.63,1.17c-5.97,0.22-9.87-3.18-9.87-10.04V46.78H233v-5.85h5.13v-7.08L244.94,33.12z"/>
			<path class="st0" d="M292.66,64.84c-3.18,3.12-6.52,4.35-10.59,4.35c-7.97,0-14.61-4.8-14.61-14.55s6.64-14.55,14.61-14.55
				c3.9,0,6.91,1.12,9.92,4.07l-4.29,4.52c-1.62-1.45-3.62-2.17-5.52-2.17c-4.57,0-7.92,3.35-7.92,8.14c0,5.24,3.57,8.03,7.81,8.03
				c2.17,0,4.35-0.61,6.02-2.29L292.66,64.84z"/>
			<path class="st0" d="M316.43,40.87h6.52v27.49h-6.41l-0.33-4.01c-1.56,3.23-5.85,4.8-8.92,4.85
				c-8.14,0.06-14.16-4.96-14.16-14.61c0-9.48,6.3-14.44,14.33-14.39c3.68,0,7.19,1.73,8.75,4.46L316.43,40.87z M299.93,54.58
				c0,5.24,3.62,8.36,8.14,8.36c10.71,0,10.71-16.67,0-16.67C303.55,46.28,299.93,49.34,299.93,54.58z"/>
			<g>
				<path class="st0" d="M256.69,40.76v27.6h6.8v-27.6H256.69z"/>
				<path class="st0" d="M264.15,33.1c0,5.51-8.35,5.51-8.35,0C255.8,27.6,264.15,27.6,264.15,33.1z"/>
			</g>
		</g>
	</g>
</g>
<g>
	<path class="st0" d="M333.48,34.03c-0.49-0.49-0.73-1.09-0.73-1.8c0-0.71,0.24-1.3,0.73-1.78c0.49-0.47,1.09-0.71,1.8-0.71
		c0.75,0,1.37,0.24,1.86,0.71c0.49,0.47,0.73,1.06,0.73,1.78c0,0.75-0.24,1.36-0.73,1.83c-0.49,0.47-1.11,0.71-1.86,0.71
		C334.57,34.76,333.97,34.52,333.48,34.03z M333.71,40.79h3.21v27.85h-3.21V40.79z"/>
	<path class="st0" d="M350.05,67.37c-2.22-1.22-3.95-2.93-5.19-5.13c-1.24-2.2-1.86-4.71-1.86-7.52c0-2.86,0.62-5.38,1.86-7.58
		c1.24-2.2,2.96-3.9,5.16-5.1c2.2-1.2,4.69-1.8,7.47-1.8c3.83,0,7.18,1.39,10.03,4.17l-2.03,2.14c-1.05-1.09-2.27-1.91-3.66-2.45
		c-1.39-0.54-2.86-0.82-4.4-0.82c-2.07,0-3.96,0.46-5.67,1.38c-1.71,0.92-3.06,2.25-4.06,3.97c-1,1.73-1.49,3.76-1.49,6.09
		c0,2.29,0.5,4.3,1.49,6.03c1,1.73,2.35,3.06,4.06,4c1.71,0.94,3.62,1.41,5.72,1.41c1.58,0,3.08-0.28,4.51-0.85
		c1.43-0.56,2.69-1.41,3.78-2.54l2.03,2.25c-2.82,2.78-6.26,4.17-10.32,4.17C354.75,69.2,352.27,68.59,350.05,67.37z"/>
	<path class="st0" d="M377.33,67.34c-2.18-1.24-3.88-2.97-5.1-5.19c-1.22-2.22-1.83-4.7-1.83-7.44s0.61-5.22,1.83-7.44
		c1.22-2.22,2.92-3.95,5.1-5.19c2.18-1.24,4.66-1.86,7.44-1.86c2.78,0,5.26,0.63,7.44,1.89c2.18,1.26,3.88,2.99,5.1,5.19
		c1.22,2.2,1.83,4.67,1.83,7.41s-0.61,5.21-1.83,7.41c-1.22,2.2-2.92,3.93-5.1,5.19c-2.18,1.26-4.66,1.89-7.44,1.89
		C381.99,69.2,379.51,68.58,377.33,67.34z M390.52,64.67c1.69-1,3.02-2.37,3.97-4.12c0.96-1.75,1.44-3.69,1.44-5.83
		c0-2.14-0.48-4.09-1.44-5.83c-0.96-1.75-2.28-3.12-3.97-4.11s-3.61-1.49-5.75-1.49c-2.14,0-4.07,0.5-5.78,1.49
		c-1.71,1-3.04,2.37-3.97,4.11c-0.94,1.75-1.41,3.69-1.41,5.83c0,2.14,0.47,4.09,1.41,5.83c0.94,1.75,2.26,3.12,3.97,4.12
		c1.71,1,3.64,1.49,5.78,1.49C386.91,66.16,388.83,65.66,390.52,64.67z"/>
	<path class="st0" d="M427.6,43.67c2.09,2.18,3.13,5.21,3.13,9.08v15.9h-3.21V52.91c0-3.08-0.77-5.44-2.31-7.07
		c-1.54-1.63-3.74-2.45-6.6-2.45c-1.95,0-3.7,0.43-5.24,1.3c-1.54,0.87-2.73,2.06-3.58,3.58c-0.85,1.52-1.27,3.22-1.27,5.1v15.28
		h-3.21V40.79h2.93l0.06,5.02c1.09-1.69,2.57-3.02,4.45-3.97c1.88-0.96,3.95-1.44,6.2-1.44C422.63,40.4,425.51,41.49,427.6,43.67z"
		/>
	<path class="st0" d="M441.25,67.88c-2.14-0.85-3.93-2-5.36-3.47l1.8-2.31c1.16,1.28,2.68,2.28,4.54,3.02
		c1.86,0.73,3.84,1.1,5.95,1.1c2.52,0,4.53-0.47,6.03-1.41c1.5-0.94,2.25-2.18,2.25-3.72c0-0.98-0.26-1.78-0.79-2.4
		c-0.53-0.62-1.41-1.16-2.65-1.61c-1.24-0.45-3.01-0.88-5.3-1.3c-3.95-0.64-6.75-1.55-8.4-2.73c-1.65-1.18-2.48-2.87-2.48-5.04
		c0-2.33,1.03-4.2,3.1-5.61c2.07-1.41,4.85-2.11,8.34-2.11c2.18,0,4.13,0.29,5.86,0.87c1.73,0.58,3.36,1.48,4.9,2.68l-1.69,2.31
		c-1.32-1.01-2.69-1.77-4.11-2.25c-1.43-0.49-3.04-0.73-4.85-0.73c-2.71,0-4.78,0.42-6.23,1.27c-1.45,0.85-2.17,2.04-2.17,3.58
		c0,0.9,0.24,1.65,0.73,2.25c0.49,0.6,1.32,1.1,2.48,1.49c1.16,0.39,2.8,0.78,4.9,1.16c4.21,0.71,7.18,1.69,8.91,2.93
		c1.73,1.24,2.59,3.01,2.59,5.3c0,2.41-1.05,4.34-3.16,5.81c-2.11,1.47-4.89,2.2-8.34,2.2C445.68,69.15,443.39,68.72,441.25,67.88z"
		/>
</g>
</svg>
