<svg width="24" height="24" fill="none" xmlns="http://www.w3.org/2000/svg"><path d="M20.691 7.556a3.703 3.703 0 0 1-3.699 3.702 3.703 3.703 0 0 1-.369-7.386v-.018a1.11 1.11 0 0 0-1.108-1.11H5.152c-.616 0-1.113.498-1.113 1.11V21.26h12.949a.37.37 0 0 1 0 .739H3.3V3.854C3.3 2.834 4.13 2 5.152 2h10.363c1.018 0 1.851.83 1.851 1.854v.018a3.71 3.71 0 0 1 3.325 3.684Zm-3.33 5.186v4.447a.37.37 0 0 1-.738 0v-4.447a.37.37 0 0 1 .739 0Zm-.369 7.404a.74.74 0 0 0 0-1.479.74.74 0 0 0 0 1.48Zm0-15.553a2.963 2.963 0 0 0 0 5.926 2.963 2.963 0 0 0 0-5.926Zm1.848 2.593h-1.478V5.707a.37.37 0 0 0-.74 0v1.48h-1.477a.37.37 0 0 0 0 .739h1.478v1.479a.37.37 0 0 0 .739 0v-1.48h1.478a.37.37 0 0 0 0-.739ZM9.67 18.298h3.344a.37.37 0 0 1 0 .74H8.387a.37.37 0 0 1 0-.74.731.731 0 0 0 .739-.74v-1.853h-.37a.37.37 0 0 1 0-.74h.37v-1.669a2.04 2.04 0 0 1 2.036-2.038c.464 0 .919.161 1.279.455a.37.37 0 1 1-.464.578 1.295 1.295 0 0 0-2.108 1.005v1.67h1.852a.37.37 0 0 1 0 .739H9.869v1.853c0 .27-.07.521-.199.74Z" fill="#003"/></svg>