<svg width="24" height="24" viewBox="0 0 24 24" fill="none" xmlns="http://www.w3.org/2000/svg">
<path fill-rule="evenodd" clip-rule="evenodd" d="M18.283 22C18.4806 22 18.6415 21.8309 18.6415 21.6232C18.6415 21.4155 18.4806 21.2464 18.283 21.2464H11.1037V15.5845H6.79251V21.2464H5.71701V2.75362H17.9245V17.0966C17.9245 17.3043 18.0854 17.4734 18.283 17.4734C18.4806 17.4734 18.6415 17.3043 18.6415 17.0966V2.37681C18.6415 2.16908 18.4806 2 18.283 2H5.3585C5.16087 2 5 2.16908 5 2.37681V22H7.51412V16.3382H10.3867V22H18.283ZM17.566 19.3575C17.566 18.942 17.8877 18.6039 18.283 18.6039C18.6829 18.6039 19 18.942 19 19.3575C19 19.7729 18.6783 20.1111 18.283 20.1111C17.8877 20.1111 17.566 19.7729 17.566 19.3575ZM6.79251 9.92271H11.1037V12.942H6.79251V9.92271ZM10.3821 12.1884H7.50952V10.6812H10.3821V12.1884ZM16.849 12.942H12.5378V9.92271H16.849V12.942ZM13.2594 10.6812H16.132V12.1884H13.2594V10.6812ZM12.5378 15.5845H16.849V18.6039H12.5378V15.5845ZM16.1274 17.8502H13.2548V16.343H16.1274V17.8502ZM11.1037 7.657H6.79251V4.64251H11.1037V7.657ZM7.51412 5.39614H10.3867V6.90338H7.51412V5.39614ZM16.849 7.657H12.5378V4.64251H16.849V7.657ZM13.2594 5.39614H16.132V6.90338H13.2594V5.39614Z" fill="#000033"/>
</svg>
