<svg xmlns="http://www.w3.org/2000/svg" width="24" height="24" fill="none"><path fill="#003" d="M18.283 22c.198 0 .358-.17.358-.377a.37.37 0 0 0-.358-.377h-7.18v-5.661h-4.31v5.661H5.717V2.754h12.208v14.343c0 .207.16.376.358.376s.358-.169.358-.376V2.377A.37.37 0 0 0 18.284 2H5.358A.37.37 0 0 0 5 2.377V22h2.514v-5.662h2.873V22zm-.717-2.642c0-.416.322-.754.717-.754.4 0 .717.338.717.754 0 .415-.322.753-.717.753s-.717-.338-.717-.753M6.793 9.923h4.31v3.019h-4.31zm3.59 2.265v-1.507H7.51v1.507zm6.466.754h-4.311v-3.02h4.311zm-3.59-2.26v1.506h2.873v-1.507zm-.721 4.903h4.311v3.019h-4.311zm3.59 2.265v-1.507h-2.873v1.507zM11.103 7.657H6.793V4.643h4.31zm-3.59-2.26v1.506h2.873V5.396zm9.335 2.26h-4.311V4.643h4.311zm-3.59-2.26v1.506h2.873V5.396z"/></svg>