<svg xmlns="http://www.w3.org/2000/svg" width="24" height="24" fill="none"><path fill="#003" d="M12.808 22h6.555l.004-6.644c0-.436-.28-.832-.707-1.02-.44-.184-.908-.104-1.21.204l-1.243 1.264-8.425-8.576-1.733 1.764c-.118.12-.303.104-.437.048-.13-.056-.279-.176-.279-.356v-5.96h5.844c.173 0 .295.156.35.284s.07.324-.047.444L9.747 5.216l6.924 7.04a.35.35 0 0 0 .495 0 .367.367 0 0 0 0-.504l-6.421-6.536 1.242-1.264c.294-.308.377-.796.2-1.232-.18-.436-.574-.72-1.002-.72H4.63v6.664c0 .436.279.832.707 1.02.44.184.908.104 1.21-.204l1.25-1.264 8.434 8.56 1.733-1.764c.118-.12.303-.104.436-.048.13.056.28.176.28.356v5.956h-5.856c-.173 0-.295-.156-.35-.284s-.07-.324.047-.444l1.717-1.764-4.456-4.536a.35.35 0 0 0-.495 0 .367.367 0 0 0 0 .504l3.961 4.032-1.242 1.264c-.295.308-.377.796-.2 1.232.18.436.574.72 1.002.72"/><path fill="#003" d="M8.14 13.78c.38 0 .699-.316.699-.712a.707.707 0 0 0-.7-.712c-.38 0-.7.316-.7.712 0 .388.311.712.7.712"/></svg>