<svg width="24" height="24" viewBox="0 0 24 24" fill="none" xmlns="http://www.w3.org/2000/svg">
<path fill-rule="evenodd" clip-rule="evenodd" d="M8.65267 20.072C8.72066 20.144 8.81666 20.18 8.90865 20.18C9.00465 20.18 9.09665 20.148 9.16864 20.076L15.8203 13.428L18.8962 16.504C19.4241 17.032 20.1841 17.184 20.8761 16.896C21.568 16.608 22 15.964 22 15.216V2H8.78866C8.0407 2 7.39673 2.432 7.10874 3.124C6.82076 3.816 6.97275 4.576 7.50072 5.104L10.5766 8.18L2.10499 16.652C1.965 16.796 1.965 17.028 2.10499 17.168C2.24899 17.312 2.47698 17.312 2.62097 17.168L11.6045 8.184L8.0127 4.592C7.63272 4.212 7.64072 3.728 7.77671 3.404C7.9127 3.076 8.24869 2.728 8.78466 2.728H21.276V15.208C21.276 15.744 20.9241 16.08 20.6001 16.216C20.2761 16.352 19.7921 16.36 19.4121 15.98L15.8203 12.388L8.65267 19.556C8.51267 19.7 8.51267 19.928 8.65267 20.072ZM7.45273 22C7.85271 22 8.18069 21.672 8.18069 21.272C8.18069 20.872 7.85671 20.544 7.45273 20.544C7.05275 20.544 6.72476 20.872 6.72476 21.272C6.72476 21.672 7.05275 22 7.45273 22Z" fill="#000033"/>
</svg>
