<svg width="24" height="24" fill="none" xmlns="http://www.w3.org/2000/svg"><path fill-rule="evenodd" clip-rule="evenodd" d="M6.549 18.685c.2.209.484.315.784.315.172 0 .356-.033.532-.115.444-.192.728-.581.728-1.02V16.06h3.425a.361.361 0 0 0 .356-.365c0-.2-.16-.364-.356-.364h-4.12v2.543c0 .156-.149.283-.285.34-.172.074-.408.09-.536-.04l-4.065-4.31 4.053-4.35c.132-.131.368-.123.536-.049.14.057.284.184.284.34v2.593h7.526v1.806c0 .439.276.828.728 1.02.48.197.996.115 1.32-.217L22 10.193 17.451 5.32c-.324-.332-.844-.41-1.32-.21-.444.193-.728.582-.728 1.02v1.864H9.485a.361.361 0 0 0-.356.365c0 .2.16.365.357.365h6.633V6.13c0-.156.156-.283.292-.34.16-.074.404-.082.524.04L21 10.19l-4.057 4.301c-.132.131-.376.115-.536.05-.148-.058-.292-.185-.292-.34v-2.536H8.589V9.8c0-.438-.276-.828-.728-1.02-.48-.197-.996-.115-1.32.217L2 13.863l4.549 4.822Zm7.601-2.253c.398 0 .72-.33.72-.738a.729.729 0 0 0-.72-.737c-.397 0-.72.33-.72.737 0 .408.323.738.72.738Z" fill="#003"/></svg>