<svg width="24" height="24" viewBox="0 0 24 24" fill="none" xmlns="http://www.w3.org/2000/svg">
<path fill-rule="evenodd" clip-rule="evenodd" d="M7.45309 3.45396C7.85435 3.45396 8.17964 3.12848 8.17964 2.72698C8.17964 2.32548 7.85435 2 7.45309 2C7.05183 2 6.72655 2.32548 6.72655 2.72698C6.72655 3.12848 7.05183 3.45396 7.45309 3.45396ZM8.78243 22H21.992H22V8.71859C22 7.98362 21.5808 7.36449 20.9102 7.08089C20.2156 6.79728 19.4251 6.96105 18.8942 7.49231L15.8164 10.572L9.16966 3.92131C9.02595 3.77751 8.7984 3.77751 8.65469 3.92131C8.51098 4.06511 8.51098 4.29279 8.65469 4.43659L15.6048 11.4068L15.6687 11.4308C15.7263 11.4565 15.7691 11.4757 15.8127 11.4779C15.9384 11.4845 16.0713 11.3515 16.5868 10.8356L19.4012 8.0036C19.7964 7.60815 20.2954 7.61614 20.6267 7.75195C21.018 7.91971 21.2615 8.2832 21.2615 8.71859V21.269H8.78643C8.3513 21.269 7.99601 21.0254 7.82834 20.6139C7.65269 20.1706 7.7485 19.6713 8.07984 19.3397L11.4012 16.0164L11.4251 15.9525C11.4393 15.918 11.4512 15.8889 11.4558 15.8586C11.4806 15.6924 11.2809 15.4926 9.98403 14.1949L2.62275 6.82924C2.47904 6.68544 2.2515 6.68544 2.10778 6.82924C1.96407 6.97304 1.96407 7.20072 2.10778 7.34452L10.5709 15.8127L7.55689 18.8284C7.01796 19.3677 6.85429 20.1825 7.15369 20.8935C7.43713 21.5806 8.05589 22 8.78243 22Z" fill="#000033"/>
</svg>
