<svg width="24" height="24" viewBox="0 0 24 24" fill="none" xmlns="http://www.w3.org/2000/svg">
<path fill-rule="evenodd" clip-rule="evenodd" d="M10.8542 21.8518C11.0862 21.9506 11.3301 22 11.5741 22C12.03 22 12.4659 21.8147 12.8058 21.4648L22 11.992L12.8058 2.52737C12.2899 2.00453 11.5421 1.85221 10.8462 2.15273C10.1384 2.45326 9.68646 3.13666 9.68646 3.89416V8.31564H2.35593C2.16397 8.31564 2 8.48443 2 8.68204C2 8.87964 2.15997 9.04843 2.35593 9.04843H10.4063V3.89416C10.4063 3.33838 10.7702 2.98434 11.1182 2.83613C11.4421 2.69616 11.93 2.67969 12.2939 3.05432L20.9882 12.0002L12.2939 20.9461C11.93 21.3207 11.4501 21.3043 11.1182 21.1643C10.7782 21.0243 10.4063 20.6661 10.4063 20.1063V14.952H4.67946C4.4875 14.952 4.32354 15.1167 4.32354 15.3184C4.32354 15.516 4.4835 15.6848 4.67946 15.6848H9.69446V20.1104C9.69446 20.8679 10.1504 21.5513 10.8542 21.8518ZM2.71186 16.0429C3.10501 16.0429 3.42372 15.7149 3.42372 15.3101C3.42372 14.9054 3.10501 14.5773 2.71186 14.5773C2.31871 14.5773 2 14.9054 2 15.3101C2 15.7149 2.31871 16.0429 2.71186 16.0429Z" fill="#000033"/>
</svg>
