<svg width="24" height="24" fill="none" xmlns="http://www.w3.org/2000/svg"><path fill-rule="evenodd" clip-rule="evenodd" d="M8.653 20.072a.354.354 0 0 0 .256.108.36.36 0 0 0 .26-.104l6.651-6.648 3.076 3.076c.528.528 1.288.68 1.98.392A1.795 1.795 0 0 0 22 15.216V2H8.789c-.748 0-1.392.432-1.68 1.124a1.788 1.788 0 0 0 .392 1.98l3.076 3.076-8.472 8.472a.37.37 0 0 0 0 .516.362.362 0 0 0 .516 0l8.983-8.984-3.591-3.592a1.073 1.073 0 0 1-.236-1.188 1.077 1.077 0 0 1 1.008-.676h12.491v12.48c0 .536-.352.872-.676 1.008a1.073 1.073 0 0 1-1.188-.236l-3.592-3.592-7.167 7.168a.37.37 0 0 0 0 .516ZM7.453 22a.728.728 0 1 0 0-1.456.728.728 0 0 0 0 1.456Z" fill="#003"/></svg>