<svg width="24" height="24" fill="none" xmlns="http://www.w3.org/2000/svg"><path fill-rule="evenodd" clip-rule="evenodd" d="M8.319 21.626c0 .206.165.374.367.374a.352.352 0 0 0 .354-.37v-8.456H3.884c-.56 0-.91-.382-1.06-.748-.14-.34-.156-.853.22-1.235l8.955-9.128 8.944 9.132c.376.387.36.887.219 1.236-.14.357-.499.747-1.06.747h-5.155v5.823c0 .205.164.373.366.373a.371.371 0 0 0 .367-.373v-5.07h4.423c.758 0 1.442-.48 1.743-1.22.301-.73.153-1.52-.375-2.058L12 1l-9.471 9.653a1.887 1.887 0 0 0-.375 2.059c.3.744.985 1.218 1.743 1.218H8.32v7.696Zm6.994.374a.74.74 0 0 0 .734-.748.74.74 0 0 0-.734-.747.74.74 0 0 0-.733.747.74.74 0 0 0 .733.748Z" fill="#003"/></svg>