<svg width="24" height="24" viewBox="0 0 24 24" fill="none" xmlns="http://www.w3.org/2000/svg">
<path fill-rule="evenodd" clip-rule="evenodd" d="M20.8206 17.924H4.05828C5.2598 16.076 5.9116 13.852 5.9116 11.628V9.036C5.9116 5.556 8.67586 2.74 12.0919 2.74C15.508 2.74 18.2723 5.556 18.2723 9.036V11.628C18.2723 12.444 18.3822 13.256 18.5275 14.108C18.5628 14.292 18.7474 14.44 18.9633 14.404C19.144 14.368 19.2892 14.144 19.2539 13.96C19.0733 13.144 18.9987 12.368 18.9987 11.628V9.036C19.0026 5.148 15.9124 2 12.0919 2C8.27143 2 5.18519 5.148 5.18519 9.036V11.628C5.18519 13.924 4.42345 16.22 3.07665 18.072C3.00205 18.184 2.96671 18.332 3.04131 18.444C3.11592 18.556 3.22193 18.668 3.36721 18.668H9.65749C9.58289 18.928 9.54755 19.148 9.54755 19.408C9.54755 20.852 10.6745 22 12.0919 22C13.5094 22 14.6363 20.852 14.6363 19.408C14.6363 19.148 14.601 18.928 14.5264 18.668H20.8167C21.0365 18.668 21.1818 18.52 21.1818 18.296C21.1818 18.072 21.0365 17.924 20.8206 17.924ZM13.9099 19.408C13.9099 20.444 13.1089 21.26 12.0919 21.26C11.0749 21.26 10.2739 20.444 10.2739 19.408C10.2739 19.148 10.3485 18.888 10.4192 18.668H13.7293C13.8392 18.888 13.9099 19.148 13.9099 19.408ZM19.729 16.816C20.1302 16.816 20.4554 16.4847 20.4554 16.076C20.4554 15.6673 20.1302 15.336 19.729 15.336C19.3278 15.336 19.0026 15.6673 19.0026 16.076C19.0026 16.4847 19.3278 16.816 19.729 16.816Z" fill="#000033"/>
</svg>
