<svg width="24" height="24" viewBox="0 0 24 24" fill="none" xmlns="http://www.w3.org/2000/svg">
<path fill-rule="evenodd" clip-rule="evenodd" d="M19.4708 21.6434C19.4708 21.84 19.3164 22 19.1267 22H5V3.78743C5 2.80457 5.77183 2 6.72449 2H17.7507C18.6989 2 19.4752 2.8 19.4752 3.78743V17.36C19.4752 17.5566 19.3208 17.7166 19.1311 17.7166C18.9415 17.7166 18.7871 17.5566 18.7871 17.36V3.78743C18.7871 3.19771 18.324 2.71771 17.7551 2.71771H6.7289C6.15995 2.71771 5.69685 3.19771 5.69685 3.78743V21.2869H19.1356C19.3208 21.2869 19.4708 21.4469 19.4708 21.6434ZM19.1267 18.7863C18.7474 18.7863 18.4387 19.1063 18.4387 19.4994C18.4387 19.8926 18.7474 20.2126 19.1267 20.2126C19.506 20.2126 19.8148 19.8926 19.8148 19.4994C19.8192 19.1063 19.5104 18.7863 19.1267 18.7863ZM8.44458 17.0034H16.0262C16.2158 17.0034 16.3702 17.1634 16.3702 17.36C16.3702 17.5566 16.2158 17.7166 16.0262 17.7166H8.44458C8.25493 17.7166 8.10056 17.5566 8.10056 17.36C8.10056 17.1634 8.25493 17.0034 8.44458 17.0034ZM16.0262 13.4286H8.44458C8.25493 13.4286 8.10056 13.5886 8.10056 13.7851C8.10056 13.9817 8.25493 14.1417 8.44458 14.1417H16.0262C16.2158 14.1417 16.3702 13.9817 16.3702 13.7851C16.3702 13.5886 16.2158 13.4286 16.0262 13.4286ZM14.0723 9.14514H16.0262C16.2158 9.14514 16.3658 9.30514 16.3658 9.50171C16.3658 9.69829 16.2114 9.85829 16.0218 9.85829H13.0932C12.9036 9.85829 12.7492 9.69829 12.7492 9.50171C12.7492 9.30514 12.9036 9.14514 13.0932 9.14514C13.2873 9.14514 13.4372 8.98971 13.4372 8.78857V7.71886H13.2652C13.0756 7.71886 12.9212 7.55886 12.9212 7.36229C12.9212 7.16571 13.0756 7.00571 13.2652 7.00571H13.4372V5.936C13.4372 5.14971 14.0547 4.50971 14.8133 4.50971C15.1926 4.50971 15.5587 4.66971 15.8189 4.95771C15.9512 5.09943 15.9424 5.32343 15.8057 5.46057C15.6689 5.59771 15.4528 5.59314 15.3205 5.44686C15.1882 5.30057 15.0118 5.22286 14.8177 5.22286C14.4384 5.22286 14.1297 5.54286 14.1297 5.936V7.00571H15.1617C15.3514 7.00571 15.5057 7.16571 15.5057 7.36229C15.5057 7.55886 15.3514 7.71886 15.1617 7.71886H14.1297V8.78857C14.1297 8.912 14.112 9.03543 14.0723 9.14514Z" fill="#313235"/>
</svg>
