<svg width="24" height="24" fill="none" xmlns="http://www.w3.org/2000/svg"><path d="M6.623 15.508a1.71 1.71 0 0 1-1.704-1.714c0-.932.743-1.715 1.704-1.715.962 0 1.705.747 1.705 1.715 0 .967-.743 1.714-1.705 1.714Zm0-.715a.994.994 0 0 0 .993-1c0-.535-.425-.999-.993-.999a.972.972 0 0 0-.993 1c0 .571.425.999.993.999Z" fill="#003"/><path d="m14.073 18.143 6.56-3.958c.178-.072.393-.036.385.184.111.18.072.396-.103.5l-7.096 4.281s-.104.036-.175.036c-.042 0-.083-.012-.116-.023-.024-.007-.044-.013-.06-.013l-2.482-1.427c-.18-.108-.247-.324-.143-.5.107-.18.321-.247.496-.144l1.951 1.108V10.8L6.905 6.947v2.957a4.142 4.142 0 0 1 3.795 4.138c0 .999-.743 2.782-2.233 5.28a34.635 34.635 0 0 1-1.598 2.534c-.067.072-.174.144-.282.144a.327.327 0 0 1-.282-.144l-.006-.01c-.221-.326-3.824-5.655-3.824-7.804a4.144 4.144 0 0 1 3.794-4.138V6.3c0-.104 0-.216.175-.32l7.096-3.925a.317.317 0 0 1 .354 0l7.096 3.925c.14.104.175.176.175.32v3.925c0 .212-.14.356-.354.356-.21 0-.353-.14-.353-.356V6.943l-6.385 3.853v7.347Zm-6.179.827c1.423-2.318 2.166-4.069 2.166-4.924 0-1.931-1.526-3.462-3.441-3.462-1.915 0-3.44 1.57-3.44 3.462 0 1.463 2.268 5.172 3.436 6.959.286-.428.783-1.18 1.28-2.035ZM7.334 6.3l2.837 1.71 6.524-3.6-2.98-1.644L7.335 6.3Zm3.544 2.138 2.837 1.715L20.096 6.3l-2.694-1.463-6.524 3.601Z" fill="#003"/><path d="M20.811 13.082c.393 0 .712-.32.712-.715a.713.713 0 0 0-.712-.716.713.713 0 0 0-.71.716c0 .395.318.715.71.715Z" fill="#003"/></svg>