<svg width="24" height="24" viewBox="0 0 24 24" fill="none" xmlns="http://www.w3.org/2000/svg">
<path fill-rule="evenodd" clip-rule="evenodd" d="M20.076 4.77015C21.156 4.77015 22 5.64276 22 6.75V18.625C22 19.7364 21.152 20.6049 20.076 20.6049C19.848 20.6049 19.692 20.4443 19.692 20.2097C19.692 19.9751 19.844 19.8146 20.076 19.8146C20.732 19.8146 21.232 19.2959 21.232 18.625V11.5H2.768V18.6209C2.768 19.2959 3.272 19.8104 3.924 19.8104H15.464C15.692 19.8104 15.848 19.971 15.848 20.2056C15.848 20.4402 15.696 20.6007 15.464 20.6007H3.924C2.844 20.6007 2 19.7281 2 18.6209V6.75C2 5.63865 2.844 4.77015 3.924 4.77015H8.576C8.768 3.2266 10.228 2 12 2C13.772 2 15.192 3.2266 15.424 4.77015H20.076ZM14.656 4.77426C14.424 3.66291 13.348 2.79441 12 2.79441C10.652 2.79441 9.576 3.66291 9.344 4.77426H14.656ZM2.768 10.7056V6.74588C2.768 6.07496 3.268 5.55633 3.924 5.55633H20.08C20.732 5.55633 21.236 6.07084 21.236 6.74588V10.7056H2.768ZM17.768 21C18.1944 21 18.54 20.6443 18.54 20.2056C18.54 19.7668 18.1944 19.4112 17.768 19.4112C17.3416 19.4112 16.996 19.7668 16.996 20.2056C16.996 20.6443 17.3416 21 17.768 21Z" fill="#000033"/>
</svg>
