<svg xmlns="http://www.w3.org/2000/svg" width="24" height="24" fill="none"><path fill="#003" d="M15.808 5.667h3.885C20.96 5.667 22 6.737 22 8.042v11.083c0 1.305-1.04 2.375-2.307 2.375H4.307C3.04 21.5 2 20.43 2 19.125V8.042c0-1.305 1.04-2.375 2.307-2.375h3.885C8.384 3.887 10.038 2.5 12 2.5s3.575 1.388 3.808 3.167m-1.54.004c-.23-.912-1.152-1.585-2.268-1.585s-2.039.673-2.271 1.585zm5.425 1.578H4.307c-.425 0-.77.36-.77.793v3.167h16.926V8.042a.785.785 0 0 0-.77-.793M3.537 19.126c0 .437.349.792.77.792h15.386c.425 0 .77-.355.766-.797v-6.33H3.537z"/></svg>