<svg width="24" height="24" viewBox="0 0 24 24" fill="none" xmlns="http://www.w3.org/2000/svg">
<path fill-rule="evenodd" clip-rule="evenodd" d="M18 5.91314V5.92229C18 5.92457 17.9988 5.92571 17.9977 5.92686C17.9965 5.928 17.9954 5.92914 17.9954 5.93143V18.7863C17.9954 20.56 16.5396 22 14.7465 22H8.24884C6.45574 22 5 20.56 5 18.7863V5.21371C5 3.44 6.45574 2 8.24884 2H14.7512C16.5443 2 18 3.44 18 5.21371V5.91314ZM14.7465 2.71314H8.24884C6.85318 2.71314 5.72094 3.83314 5.72094 5.21371V5.56571H17.2744V5.21371C17.2744 3.83314 16.1422 2.71314 14.7465 2.71314ZM14.7465 21.2823H8.24884C6.85318 21.2823 5.72094 20.1623 5.72094 18.7817V18.4251H13.3047C13.5034 18.4251 13.6651 18.2651 13.6651 18.0686C13.6651 17.872 13.5034 17.712 13.3047 17.712H5.72094V6.27886H17.2744V18.7817C17.2744 20.1623 16.1422 21.2823 14.7465 21.2823ZM15.4721 18.7817C15.8695 18.7817 16.193 18.4617 16.193 18.0686C16.193 17.6754 15.8695 17.3554 15.4721 17.3554C15.0747 17.3554 14.7512 17.6754 14.7512 18.0686C14.7512 18.4617 15.0747 18.7817 15.4721 18.7817ZM13.2584 8.61029C13.1614 8.43657 12.9442 8.37257 12.7686 8.46857C12.593 8.56457 12.5283 8.77943 12.6253 8.95314L13.5172 10.5669H9.48276L10.3747 8.95314C10.4717 8.77943 10.407 8.56457 10.2314 8.46857C10.0558 8.37257 9.83861 8.43657 9.74156 8.61029L8.66477 10.5669H6.70992L7.8514 15.1337C7.97618 15.5863 8.46143 15.9246 8.9744 15.9246H14.0302C14.5432 15.9246 15.0284 15.5863 15.1578 15.1246L16.2993 10.5669H14.3445L13.2584 8.61029ZM14.0256 15.2114C14.2105 15.2114 14.4184 15.0834 14.4554 14.9463L15.3658 11.2846H7.62496L8.54461 14.9554C8.58159 15.0834 8.78955 15.2114 8.96978 15.2114H14.0256Z" fill="#000033"/>
</svg>
