<svg width="24" height="24" viewBox="0 0 24 24" fill="none" xmlns="http://www.w3.org/2000/svg">
<path fill-rule="evenodd" clip-rule="evenodd" d="M11.998 2C6.4871 2 2 6.488 2 12C2 17.512 6.4871 22 11.998 22C13.8936 22 15.7293 21.464 17.3289 20.456C17.5009 20.352 17.5489 20.132 17.4409 19.96C17.3369 19.796 17.117 19.74 16.945 19.848C15.4653 20.784 13.7497 21.28 11.994 21.28C6.87503 21.28 2.71186 17.116 2.71186 11.996C2.71186 6.876 6.87902 2.708 11.998 2.708C17.117 2.708 21.2801 6.872 21.2801 11.992C21.2801 13.748 20.7842 15.464 19.8484 16.944C19.7445 17.116 19.7924 17.336 19.9604 17.44C20.1324 17.544 20.3523 17.496 20.4563 17.328C21.4641 15.736 22 13.888 22 11.996C21.996 6.488 17.5129 2 11.998 2ZM16.5371 7.464C16.3971 7.324 16.1732 7.324 16.0332 7.464L11.998 11.496L7.96681 7.464C7.82683 7.324 7.60288 7.324 7.46291 7.464C7.32294 7.604 7.32294 7.828 7.46291 7.968L11.4941 12L7.46291 16.032C7.32294 16.172 7.32294 16.396 7.46291 16.536C7.53489 16.608 7.62687 16.64 7.71486 16.64C7.80284 16.64 7.89482 16.608 7.96681 16.536L11.998 12.504L16.0292 16.536C16.1012 16.608 16.1932 16.64 16.2811 16.64C16.3691 16.64 16.4611 16.608 16.5331 16.536C16.6731 16.396 16.6731 16.172 16.5331 16.032L12.5059 12L16.5371 7.968C16.6731 7.828 16.6731 7.6 16.5371 7.464ZM18.7886 19.504C19.184 19.504 19.5045 19.1834 19.5045 18.788C19.5045 18.3926 19.184 18.072 18.7886 18.072C18.3933 18.072 18.0728 18.3926 18.0728 18.788C18.0728 19.1834 18.3933 19.504 18.7886 19.504Z" fill="#000033"/>
</svg>
