<svg xmlns="http://www.w3.org/2000/svg" width="24" height="24" fill="none"><path fill="#003" d="M11.998 2C6.488 2 2 6.488 2 12s4.487 10 9.998 10a9.97 9.97 0 0 0 5.33-1.544.353.353 0 0 0 .113-.496.36.36 0 0 0-.496-.112 9.26 9.26 0 0 1-4.951 1.432c-5.119 0-9.282-4.164-9.282-9.284s4.167-9.288 9.286-9.288 9.282 4.164 9.282 9.284a9.26 9.26 0 0 1-1.432 4.952.36.36 0 0 0 .608.384A9.97 9.97 0 0 0 22 11.996C21.996 6.488 17.513 2 11.998 2"/><path fill="#003" d="M16.537 7.464a.355.355 0 0 0-.504 0l-4.035 4.032-4.031-4.032a.355.355 0 0 0-.504 0 .355.355 0 0 0 0 .504L11.494 12l-4.031 4.032a.355.355 0 0 0 .252.608c.088 0 .18-.032.252-.104l4.031-4.032 4.031 4.032a.354.354 0 0 0 .504 0 .355.355 0 0 0 0-.504L12.506 12l4.031-4.032a.36.36 0 0 0 0-.504M18.789 19.504a.716.716 0 1 0 0-1.432.716.716 0 0 0 0 1.432"/></svg>