<svg width="24" height="24" viewBox="0 0 24 24" fill="none" xmlns="http://www.w3.org/2000/svg">
<path fill-rule="evenodd" clip-rule="evenodd" d="M5 21.964L19.3008 22C19.5117 22 19.6484 21.856 19.6484 21.644C19.6484 21.432 19.5117 21.288 19.3008 21.288H5.69922V3.824C5.69922 3.216 6.1875 2.716 6.74609 2.716H14.0703C14.3477 2.716 14.6602 2.856 14.8711 3.036L18.6016 6.856C18.8086 7.072 18.9492 7.356 18.9492 7.608V17.356C18.9492 17.568 19.0859 17.712 19.2969 17.712C19.5039 17.712 19.6445 17.572 19.6445 17.356V7.572C19.6445 7.14 19.4336 6.676 19.0859 6.32L15.3555 2.536C15.043 2.216 14.5195 2 14.0664 2H6.74219C5.76562 2 5 2.82 5 3.82V21.964ZM7.79297 19.144H16.8594H16.8633V10.824C16.8633 10.252 16.3047 9.86 15.8164 9.86H8.83984C8.35156 9.86 7.79297 10.252 7.79297 10.824V19.144ZM16.1602 18.428H8.49219V10.82C8.49219 10.712 8.66406 10.568 8.83984 10.568H15.8125C15.9844 10.568 16.1602 10.712 16.1602 10.82V18.428ZM20 19.5C20 19.8954 19.6869 20.216 19.3008 20.216C18.9146 20.216 18.6016 19.8954 18.6016 19.5C18.6016 19.1046 18.9146 18.784 19.3008 18.784C19.6869 18.784 20 19.1046 20 19.5Z" fill="#000033"/>
</svg>
