<svg xmlns="http://www.w3.org/2000/svg" width="24" height="24" fill="none"><path fill="#003" d="M16.856 7V5.572a3.573 3.573 0 0 0-7.144 0V7H6.856v3.928l.002.035.002.029-5.98 1.564a.345.345 0 0 0-.264.292.348.348 0 0 0 .168.356l2.284 1.372-1.784 1.784c-.012.008-.024.02-.036.032l-.968.968 2.292 2.292.932-.936a.259.259 0 0 0 .036-.032l1.82-1.82 1.372 2.284a.359.359 0 0 0 .308.172c.02 0 .032 0 .056.004a.367.367 0 0 0 .292-.264l2.144-8.216a.354.354 0 0 0-.436-.436l-1.524.396V7.708H19v12.148a1.07 1.07 0 0 1-1.068 1.068H9.36a.357.357 0 0 0 0 .712h8.572c.984 0 1.784-.8 1.788-1.784V7zm-8.172 4.252-1.772 6.804-1.172-1.952a.353.353 0 0 0-.26-.168.365.365 0 0 0-.296.1l-2.112 2.112c-.012.008-.024.02-.036.032l-.46.456-1.28-1.28.424-.424c.012-.008.024-.02.036-.032L3.9 14.756a.352.352 0 0 0 .1-.296.349.349 0 0 0-.168-.26L1.88 13.028zM10.428 7V5.572a2.858 2.858 0 0 1 2.856-2.856 2.858 2.858 0 0 1 2.856 2.856V7z"/><path fill="#003" d="M7.928 21.288a.712.712 0 1 1-1.424 0 .712.712 0 0 1 1.424 0"/></svg>