<svg xmlns="http://www.w3.org/2000/svg" width="24" height="24" fill="none"><path fill="#003" d="M14.223 21.03c.617.645 1.428.97 2.24.97.81 0 1.622-.325 2.24-.97 1.234-1.29 1.234-3.39 0-4.68L8.301 5.484a1.708 1.708 0 0 0-2.487 0 1.9 1.9 0 0 0 0 2.599l9.409 9.821a.339.339 0 0 0 .495 0 .372.372 0 0 0 0-.518L6.315 7.56a1.14 1.14 0 0 1 0-1.558 1.042 1.042 0 0 1 1.491 0l10.396 10.87c.96 1.004.96 2.637 0 3.64a2.392 2.392 0 0 1-3.483 0L4.319 9.646a4.106 4.106 0 0 1-1.136-2.863c0-1.082.405-2.1 1.136-2.862a3.76 3.76 0 0 1 2.74-1.187 3.77 3.77 0 0 1 2.739 1.187l9.368 9.788a.339.339 0 0 0 .496 0 .372.372 0 0 0 0-.518l-9.368-9.788C9.429 2.499 8.279 2 7.058 2c-1.22 0-2.37.5-3.235 1.403a4.861 4.861 0 0 0-1.343 3.38c0 1.276.478 2.477 1.343 3.38l10.4 10.867ZM20.825 15.649c.387 0 .703-.33.703-.735 0-.405-.316-.734-.703-.734-.388 0-.703.33-.703.734 0 .405.315.735.703.735Z"/></svg>