<svg width="24" height="24" fill="none" xmlns="http://www.w3.org/2000/svg"><path d="M20.656 17.473a.862.862 0 0 1-.843.625h-.938c-.188 0-.313-.125-.313-.313s.125-.313.313-.313h.938c.156 0 .25-.125.25-.218a.398.398 0 0 0-.125-.469L12 10.972l-7.937 5.813c-.157.125-.188.344-.125.469 0 .093.093.218.25.218h10.937c.188 0 .313.125.313.313s-.126.313-.313.313H4.188c-.407 0-.72-.25-.844-.625a1.07 1.07 0 0 1 .344-1.188l8-5.844V9.035c0-.188.124-.313.312-.313.688 0 1.25-.562 1.25-1.25 0-.687-.563-1.25-1.25-1.25-.688 0-1.25.563-1.25 1.25 0 .188-.125.313-.313.313-.187 0-.312-.125-.312-.313A1.88 1.88 0 0 1 12 5.598a1.88 1.88 0 0 1 1.875 1.875 1.88 1.88 0 0 1-1.563 1.844v1.125l8 5.844c.344.25.5.75.344 1.188ZM17 17.16a.627.627 0 0 0-.625.625c0 .344.281.625.625.625a.627.627 0 0 0 .625-.625.627.627 0 0 0-.625-.625Z" fill="#003"/></svg>