<svg width="24" height="24" viewBox="0 0 24 24" fill="none" xmlns="http://www.w3.org/2000/svg">
<path fill-rule="evenodd" clip-rule="evenodd" d="M18.9202 5.46055L12.3807 12.0007L17.5737 17.1942C17.6801 17.3006 17.6801 17.4686 17.5737 17.5749C17.5205 17.6281 17.4533 17.6533 17.3833 17.6533C17.3133 17.6533 17.2462 17.6281 17.193 17.5749L12 12.3815L5.46051 18.9216C5.40732 18.9748 5.34013 19 5.27015 19C5.20016 19 5.13297 18.9748 5.07978 18.9216C4.97341 18.8152 4.97341 18.6472 5.07978 18.5408L11.6193 12.0007L5.07978 5.46055C4.97341 5.35416 4.97341 5.18618 5.07978 5.07979C5.18616 4.9734 5.35413 4.9734 5.46051 5.07979L12 11.6199L18.5395 5.07979C18.6459 4.9734 18.8138 4.9734 18.9202 5.07979C19.0266 5.18618 19.0266 5.35416 18.9202 5.46055ZM18.4611 19C18.758 19 18.9986 18.7593 18.9986 18.4625C18.9986 18.1656 18.758 17.9249 18.4611 17.9249C18.1643 17.9249 17.9236 18.1656 17.9236 18.4625C17.9236 18.7593 18.1643 19 18.4611 19Z" fill="#000033"/>
</svg>
