<svg width="24" height="24" fill="none" xmlns="http://www.w3.org/2000/svg"><path d="M19.188 17.777a.625.625 0 1 0 0-1.25.625.625 0 0 0 0 1.25Z" fill="#003"/><path d="M15.438 6.965c.093.156.124.313.062.438l-.219.593c-.062.157.031.344.188.407.031 0 .062.03.094.03a.3.3 0 0 0 .28-.218l.22-.594c.093-.312.03-.656-.125-.968l-.188-.407a.595.595 0 0 1-.031-.562l.312-.563c.094-.156.032-.343-.125-.437-.156-.063-.344-.031-.437.125l-.344.594v.03a1.36 1.36 0 0 0 .063 1.157l.25.375Zm-4.376 0c.094.125.094.313.063.469l-.219.562c-.062.157.031.344.188.407.031 0 .062.03.125.03.125 0 .25-.062.281-.187l.219-.593V7.62c.094-.312.031-.656-.125-.937l-.219-.438c-.094-.187-.125-.406-.031-.562l.312-.594c.094-.156.031-.344-.125-.437-.156-.032-.344 0-.437.156l-.313.594a1.36 1.36 0 0 0 .063 1.156l.219.406Zm2.22-.281a.736.736 0 0 1 .093.625l-.25.687c-.063.157.031.344.188.407.03 0 .062.03.124.03.126 0 .25-.062.282-.187l.25-.687v-.031a1.47 1.47 0 0 0-.156-1.094l-.282-.531a.897.897 0 0 1-.062-.75l.344-.688c.093-.125.062-.312-.094-.406-.156-.063-.344-.031-.438.125l-.375.687c-.187.438-.156.938.094 1.313l.281.5ZM7 9.34v1.25H5.75c-.875 0-1.563.688-1.563 1.563v3.437c0 .875.688 1.563 1.563 1.563h1.438a4.083 4.083 0 0 0 3.875 2.812h4.687c1 0 1.969-.375 2.719-1.031a.335.335 0 0 0 .031-.438.335.335 0 0 0-.438-.031 3.55 3.55 0 0 1-2.312.875h-4.688a3.428 3.428 0 0 1-3.437-3.438V9.965h11.563v5.313c0 .187.125.312.312.312.188 0 .313-.125.313-.313V9.34H7Zm.063 7.188H5.75a.92.92 0 0 1-.938-.938v-3.438a.92.92 0 0 1 .938-.937H7v4.688c0 .218.031.406.063.624Z" fill="#003"/></svg>