<svg width="24" height="24" fill="none" xmlns="http://www.w3.org/2000/svg"><path d="M18.563 12.625c.343 0 .625.281.625.625a.627.627 0 0 1-.625.625.627.627 0 0 1-.625-.625c0-.344.28-.625.625-.625Zm1.875-7.188h-8.125V3.875c0-.188-.126-.313-.313-.313-.188 0-.313.126-.313.313v1.563H3.563c-.188 0-.313.125-.313.312 0 .188.125.313.313.313h1.562v9.375h6.125l-4.469 4.468a.302.302 0 0 0 0 .438.338.338 0 0 0 .219.093.338.338 0 0 0 .219-.093l4.468-4.469v4.25c0 .188.126.313.313.313.188 0 .313-.125.313-.313v-4.25l4.468 4.469a.338.338 0 0 0 .219.093.338.338 0 0 0 .219-.093.302.302 0 0 0 0-.438l-4.469-4.468h5.813c.187 0 .312-.126.312-.313 0-.188-.125-.313-.313-.313H5.75v-8.75h12.5v5.313c0 .188.125.313.313.313.187 0 .312-.126.312-.313V6.062h1.563c.187 0 .312-.125.312-.312 0-.188-.125-.313-.313-.313ZM16.155 7.72 12 11.875 10.125 10l-2.719 2.719a.302.302 0 0 0 0 .437.337.337 0 0 0 .219.094.337.337 0 0 0 .219-.094l2.281-2.281L12 12.75l4.594-4.594a.302.302 0 0 0 0-.437.302.302 0 0 0-.438 0Z" fill="#003"/></svg>