<svg width="24" height="24" fill="none" xmlns="http://www.w3.org/2000/svg"><path fill-rule="evenodd" clip-rule="evenodd" d="M20.034 6.95h.344c.309 0 .516.24.622.544v1.324a.505.505 0 0 1-.516.508h-.345a4.402 4.402 0 0 1-.344.817l.243.239c.066.07.137.204.137.338 0 .1-.036.24-.137.34l-.967.915a.504.504 0 0 1-.723 0l-.243-.238c-.278.17-.556.269-.83.338v.34a.512.512 0 0 1-.137.373c-.106.065-.242.134-.38.134h-1.345a.504.504 0 0 1-.517-.508v-.339a4.557 4.557 0 0 1-.83-.338l-.242.239a.504.504 0 0 1-.724 0l-.966-.952c-.102-.069-.137-.204-.137-.338 0-.135.035-.24.137-.339l.242-.239a2.863 2.863 0 0 1-.344-.816h-.309a.504.504 0 0 1-.516-.508V7.459c0-.304.243-.508.516-.508h.345c.101-.304.207-.573.344-.812l-.243-.24c-.101-.069-.137-.203-.137-.338 0-.035 0-.1.036-.17h-7.38v12.217h7.243c.207 0 .344.135.344.339 0 .204-.137.339-.344.339H4.724a2.4 2.4 0 0 0 2.379 2.037h6.205c1.346 0 2.414-1.052 2.414-2.376v-3.73c0-.205.136-.34.344-.34.207 0 .344.135.344.34v3.73c0 1.698-1.377 3.053-3.102 3.053H7.103C5.377 21 4 19.645 4 17.947V5.053C4 3.355 5.377 2 7.103 2h6.205c1.032 0 1.999.508 2.55 1.325h.83c.31 0 .517.234.517.508v.338c.313.1.587.205.83.34l.242-.24a.504.504 0 0 1 .724 0l.931.951c.066.07.137.205.137.34 0 .099-.035.238-.137.338l-.243.239c.172.269.274.543.345.812Zm-6.726-4.273H7.103a2.4 2.4 0 0 0-2.38 2.037h7.958l.415-.443a.504.504 0 0 1 .724 0l.242.24c.278-.17.556-.27.83-.34v-.304c0-.169.07-.308.207-.408a2.408 2.408 0 0 0-1.791-.782Zm6.898 5.937h-.689l-.07.27c-.102.408-.243.781-.45 1.085l-.137.239.48.473-.688.678-.48-.473-.244.134c-.38.239-.759.374-1.103.443l-.274.035v.712h-.966v-.677l-.274-.07c-.415-.1-.794-.239-1.103-.443l-.243-.134-.48.473-.69-.678.482-.473-.137-.239a3.176 3.176 0 0 1-.45-1.086l-.07-.304h-.69v-.95h.69l.07-.27c.101-.408.242-.782.45-1.086l.137-.238-.481-.474.688-.677.481.473.243-.135c.38-.238.759-.373 1.103-.443l.274-.07v-.677h.966v.678l.274.07c.415.1.794.238 1.103.442l.243.135.481-.473.689.677-.481.474.136.238c.243.374.38.747.45 1.086l.071.27h.689v.985Zm-6.898-.508c0-1.12.657-2.137 1.69-2.58a2.77 2.77 0 0 1 3.032.582c.794.812 1.002 2.002.587 3.053a2.72 2.72 0 0 1-2.551 1.729c-1.518 0-2.758-1.255-2.758-2.784Zm4.656.812a2.045 2.045 0 0 1-1.898 1.29c-1.139 0-2.07-.951-2.07-2.102 0-.847.516-1.629 1.275-1.967.76-.339 1.655-.135 2.242.443.623.642.795 1.559.45 2.336Zm-3.275 9.025a.684.684 0 0 0-.688-.678.681.681 0 0 0-.689.678c0 .373.309.677.689.677.38 0 .688-.304.688-.677Z" fill="#003"/></svg>