<svg width="24" height="24" fill="none" xmlns="http://www.w3.org/2000/svg"><path fill-rule="evenodd" clip-rule="evenodd" d="M19.937 7.211h.363c.325 0 .543.252.655.572v1.394c0 .32-.256.535-.544.535h-.362a4.627 4.627 0 0 1-.363.86l.256.25a.56.56 0 0 1 .144.357.513.513 0 0 1-.144.357l-1.017.965a.531.531 0 0 1-.762 0l-.256-.252a3.115 3.115 0 0 1-.873.357v.356a.539.539 0 0 1-.144.393c-.112.069-.256.142-.4.142h-1.417a.531.531 0 0 1-.543-.535v-.356a4.786 4.786 0 0 1-.873-.357l-.256.252a.53.53 0 0 1-.762 0l-1.017-1.002c-.107-.073-.144-.214-.144-.356s.037-.252.144-.357l.255-.251a3.015 3.015 0 0 1-.362-.86h-.325a.531.531 0 0 1-.544-.534V7.746c0-.32.256-.535.544-.535h.362c.107-.32.218-.603.363-.854l-.256-.252c-.107-.073-.144-.215-.144-.356 0-.037 0-.106.037-.179H3.785v12.86h7.623c.218 0 .362.141.362.356s-.144.357-.362.357H3.822a2.527 2.527 0 0 0 2.504 2.144h6.532c1.416 0 2.54-1.106 2.54-2.5v-3.928c0-.214.145-.356.363-.356s.362.142.362.356v3.927c0 1.788-1.45 3.214-3.266 3.214h-6.53c-1.817 0-3.266-1.426-3.266-3.214V5.214C3.06 3.426 4.51 2 6.326 2h6.532c1.087 0 2.104.535 2.685 1.394h.873c.325 0 .543.247.543.535v.357c.33.105.618.215.874.356l.255-.251a.53.53 0 0 1 .762 0l.98 1.001a.56.56 0 0 1 .145.357.513.513 0 0 1-.145.356l-.255.252c.181.283.288.571.362.854Zm-7.08-4.498h-6.53a2.527 2.527 0 0 0-2.504 2.144h8.376l.436-.466a.53.53 0 0 1 .762 0l.256.251c.293-.178.585-.283.873-.356v-.32a.51.51 0 0 1 .219-.43 2.535 2.535 0 0 0-1.886-.823Zm7.262 6.25h-.725l-.074.283c-.107.43-.256.823-.474 1.143l-.144.251.506.498-.725.713-.506-.498-.256.142a3.47 3.47 0 0 1-1.161.466l-.288.037v.75h-1.017v-.714l-.288-.073c-.437-.105-.837-.251-1.162-.466l-.255-.142-.507.498-.724-.713.506-.498-.144-.251a3.345 3.345 0 0 1-.474-1.143l-.074-.32h-.725V7.925h.725l.074-.284c.107-.43.256-.823.474-1.143l.144-.251-.506-.498.724-.714.507.499.255-.142a3.46 3.46 0 0 1 1.162-.466l.288-.073v-.714h1.017v.714l.288.073c.437.105.836.251 1.161.466l.256.142.506-.499.725.714-.506.498.144.251c.255.393.4.787.474 1.143l.074.284h.725v1.037Zm-7.261-.536c0-1.179.692-2.249 1.779-2.715a2.915 2.915 0 0 1 3.191.613c.837.854 1.055 2.107.618 3.213a2.863 2.863 0 0 1-2.685 1.82c-1.598 0-2.903-1.321-2.903-2.93Zm4.9.855a2.152 2.152 0 0 1-1.997 1.358c-1.199 0-2.179-1.001-2.179-2.213 0-.891.544-1.714 1.343-2.07.799-.357 1.742-.142 2.36.466.655.676.836 1.641.474 2.46Zm-3.446 9.5a.72.72 0 0 0-.725-.713.717.717 0 0 0-.725.713.72.72 0 0 0 .725.713c.4 0 .725-.32.725-.713Z" fill="#003"/></svg>