<svg width="24" height="24" fill="none" xmlns="http://www.w3.org/2000/svg"><path fill-rule="evenodd" clip-rule="evenodd" d="M21.176 14.98a.371.371 0 0 0-.52-.088.372.372 0 0 0-.087.52 3.708 3.708 0 0 1-.404 4.76c-.056-.736-.568-1.336-1.352-1.644.356-.34.576-.808.576-1.336 0-1.02-.836-1.856-1.855-1.856-1.02 0-1.855.836-1.855 1.856 0 .528.227 1.004.583 1.344-.775.308-1.28.916-1.327 1.66a3.69 3.69 0 0 1-1.1-2.632c0-2.04 1.66-3.7 3.699-3.7.204 0 .372-.16.372-.372a.364.364 0 0 0-.372-.372c-.268 0-.536.024-.792.072a.113.113 0 0 1-.009-.028.114.114 0 0 0-.007-.028l-1.895-3.28A4.445 4.445 0 0 0 11.98 2C9.545 2 7.554 3.992 7.554 6.444c0 1.368.624 2.592 1.595 3.408l-1.895 3.28a.092.092 0 0 0-.009.028l-.007.028A4.436 4.436 0 0 0 2 17.556 4.444 4.444 0 0 0 6.446 22a4.452 4.452 0 0 0 4.427-4.072h2.259A4.44 4.44 0 0 0 17.558 22 4.446 4.446 0 0 0 22 17.556a4.477 4.477 0 0 0-.824-2.576ZM10.888 6.072a1.11 1.11 0 0 1 1.108-1.108c.608 0 1.108.504 1.108 1.108a1.11 1.11 0 0 1-1.108 1.108 1.103 1.103 0 0 1-1.108-1.108Zm1.108 4.084c.688 0 1.335-.196 1.887-.528V9.2c0-.736-.795-1.272-1.887-1.272-1.08 0-1.863.536-1.863 1.272v.444a3.637 3.637 0 0 0 1.863.512ZM8.297 6.444c0-2.04 1.66-3.7 3.699-3.7a3.703 3.703 0 0 1 2.615 6.316c-.056-.736-.568-1.336-1.352-1.644.356-.34.576-.808.576-1.336 0-1.02-.835-1.856-1.855-1.856s-1.855.836-1.855 1.856c0 .528.228 1.004.584 1.344-.76.3-1.264.908-1.312 1.652a3.707 3.707 0 0 1-1.1-2.632ZM12 10.892c-.82 0-1.587-.228-2.243-.616l-1.791 3.108a4.42 4.42 0 0 1 2.907 3.796h2.259a4.452 4.452 0 0 1 2.906-3.796l-1.795-3.108a4.43 4.43 0 0 1-2.243.616Zm-7.425 9.86v-.444c0-.736.784-1.272 1.863-1.272 1.092 0 1.887.536 1.887 1.272v.428a3.655 3.655 0 0 1-1.887.528 3.761 3.761 0 0 1-1.863-.512Zm1.867-4.676a1.11 1.11 0 0 0-1.107 1.108c0 .612.503 1.108 1.107 1.108s1.108-.504 1.108-1.108c0-.604-.504-1.108-1.108-1.108Zm2.627 4.096c-.056-.736-.568-1.336-1.351-1.644.356-.34.575-.808.575-1.336 0-1.02-.835-1.856-1.855-1.856a1.846 1.846 0 0 0-1.263 3.192c-.776.308-1.28.916-1.328 1.66a3.69 3.69 0 0 1-1.1-2.632c0-2.04 1.66-3.7 3.7-3.7a3.704 3.704 0 0 1 2.622 6.316Zm8.48-4.096a1.11 1.11 0 0 0-1.107 1.108c0 .612.504 1.108 1.108 1.108.604 0 1.107-.504 1.107-1.108 0-.604-.503-1.108-1.107-1.108Zm-1.858 4.676v-.444c0-.736.783-1.272 1.863-1.272 1.091 0 1.887.536 1.887 1.272v.428a3.66 3.66 0 0 1-1.887.528 3.693 3.693 0 0 1-1.863-.512Z" fill="#003"/><path d="M19.405 14.592a.736.736 0 1 0 0-1.472.736.736 0 0 0 0 1.472Z" fill="#003"/></svg>