<svg xmlns="http://www.w3.org/2000/svg" width="24" height="24" fill="none"><path fill="#003" d="M21.176 14.98a.371.371 0 0 0-.52-.088.372.372 0 0 0-.087.52c.443.632.68 1.368.68 2.144 0 1.02-.412 1.944-1.084 2.616-.056-.736-.568-1.336-1.352-1.644.356-.34.576-.808.576-1.336 0-1.02-.836-1.856-1.855-1.856-1.02 0-1.855.836-1.855 1.856 0 .528.227 1.004.583 1.344-.775.308-1.28.916-1.327 1.66a3.69 3.69 0 0 1-1.1-2.632c0-2.04 1.66-3.7 3.699-3.7.204 0 .372-.16.372-.372a.364.364 0 0 0-.372-.372c-.268 0-.536.024-.792.072a.113.113 0 0 1-.009-.028c-.001-.008-.003-.018-.007-.028l-1.895-3.28A4.445 4.445 0 0 0 11.98 2C9.545 2 7.554 3.992 7.554 6.444c0 1.368.624 2.592 1.595 3.408l-1.895 3.28c-.005.009-.007.018-.009.028l-.007.028A4.436 4.436 0 0 0 2 17.556 4.444 4.444 0 0 0 6.446 22a4.452 4.452 0 0 0 4.427-4.072h2.259A4.44 4.44 0 0 0 17.558 22 4.446 4.446 0 0 0 22 17.556a4.477 4.477 0 0 0-.824-2.576ZM10.888 6.072a1.11 1.11 0 0 1 1.108-1.108c.608 0 1.108.504 1.108 1.108a1.11 1.11 0 0 1-1.108 1.108 1.103 1.103 0 0 1-1.108-1.108Zm1.108 4.084c-.68 0-1.32-.188-1.863-.512V9.2c0-.736.783-1.272 1.863-1.272 1.092 0 1.887.536 1.887 1.272v.428c-.551.332-1.2.528-1.887.528ZM8.297 6.444c0-2.04 1.66-3.7 3.699-3.7 2.04 0 3.698 1.66 3.698 3.7 0 1.02-.411 1.944-1.083 2.616-.056-.736-.568-1.336-1.352-1.644.356-.34.576-.808.576-1.336 0-1.02-.835-1.856-1.855-1.856s-1.855.836-1.855 1.856c0 .528.228 1.004.584 1.344-.76.3-1.264.908-1.312 1.652a3.707 3.707 0 0 1-1.1-2.632ZM12 10.892a4.43 4.43 0 0 0 2.243-.616l1.795 3.108a4.452 4.452 0 0 0-2.906 3.796h-2.26a4.42 4.42 0 0 0-2.906-3.796l1.79-3.108a4.396 4.396 0 0 0 2.244.616Zm-7.425 9.86v-.444c0-.736.784-1.272 1.863-1.272 1.092 0 1.887.536 1.887 1.272v.428c-.551.332-1.199.528-1.887.528a3.761 3.761 0 0 1-1.863-.512Zm1.867-4.676c.604 0 1.108.504 1.108 1.108 0 .604-.504 1.108-1.108 1.108a1.113 1.113 0 0 1-1.107-1.108 1.11 1.11 0 0 1 1.107-1.108Zm2.627 4.096c-.056-.736-.568-1.336-1.351-1.644.356-.34.575-.808.575-1.336 0-1.02-.835-1.856-1.855-1.856a1.846 1.846 0 0 0-1.263 3.192c-.776.308-1.28.916-1.328 1.66a3.69 3.69 0 0 1-1.1-2.632c0-2.04 1.66-3.7 3.7-3.7a3.704 3.704 0 0 1 2.622 6.316Zm8.48-4.096c.605 0 1.108.504 1.108 1.108 0 .604-.503 1.108-1.107 1.108a1.113 1.113 0 0 1-1.108-1.108 1.11 1.11 0 0 1 1.108-1.108Zm-1.858 4.676v-.444c0-.736.783-1.272 1.863-1.272 1.091 0 1.887.536 1.887 1.272v.428c-.552.332-1.2.528-1.887.528a3.693 3.693 0 0 1-1.863-.512Z"/><path fill="#003" d="M19.405 14.592a.736.736 0 1 0 0-1.472.736.736 0 0 0 0 1.472Z"/></svg>