<svg xmlns="http://www.w3.org/2000/svg" width="24" height="24" fill="none"><path fill="#003" d="M3.789 5h16.406c.989 0 1.789.843 1.805 1.888v9.856c0 1.045-.8 1.888-1.789 1.888a.363.363 0 0 1-.356-.367c0-.203.16-.368.356-.368.593 0 1.069-.517 1.069-1.153V9.785H2.72v6.963c0 .636.476 1.153 1.069 1.153h12.137c.196 0 .356.165.356.368s-.16.367-.356.367H3.789C2.8 18.636 2 17.793 2 16.748v-9.86C2 5.843 2.8 5 3.789 5M2.712 6.884V9.05h18.552V6.884c0-.636-.476-1.153-1.069-1.153H3.781c-.593 0-1.069.517-1.069 1.153"/><path fill="#003" d="M18.77 18.265a.724.724 0 0 1-.712.735.724.724 0 0 1-.712-.735c0-.407.319-.736.712-.736.394 0 .713.33.713.736M4.145 12.868c0-.276.16-.5.356-.5h4.998c.196 0 .356.224.356.5 0 .275-.16.5-.356.5H4.501c-.196 0-.356-.225-.356-.5M11.28 12.868c0-.276.16-.5.356-.5h2.5c.197 0 .357.224.357.5 0 .275-.16.5-.356.5h-2.501c-.196 0-.356-.225-.356-.5M19.483 12.368H16.27c-.196 0-.356.224-.356.5 0 .275.16.5.356.5h3.213c.196 0 .356-.225.356-.5 0-.276-.152-.5-.356-.5"/></svg>