<svg width="24" height="24" fill="none" xmlns="http://www.w3.org/2000/svg"><path fill-rule="evenodd" clip-rule="evenodd" d="m21.42 5.231-2.465 2.593a.337.337 0 0 1-.248.109H16.38l-3.39 3.56c.591.739.953 1.691.953 2.734 0 2.346-1.82 4.256-4.055 4.256-2.235 0-4.054-1.91-4.054-4.256s1.82-4.256 4.054-4.256c.993 0 1.9.374 2.605 1l1.874-1.967c-1.233-1.166-2.808-1.81-4.479-1.81-3.693 0-6.7 3.156-6.7 7.033 0 3.877 3.007 7.034 6.7 7.034 1.25 0 2.474-.365 3.53-1.057a.343.343 0 0 1 .488.118.38.38 0 0 1-.113.512A7.13 7.13 0 0 1 9.89 22c-4.086 0-7.409-3.488-7.409-7.778 0-4.289 3.323-7.777 7.409-7.777 1.856 0 3.612.72 4.976 2.028l1.02-1.07V4.96c0-.1.036-.194.104-.26l2.47-2.593a.343.343 0 0 1 .383-.08c.131.056.217.194.217.34v2.224h2.117c.145 0 .271.09.326.227a.39.39 0 0 1-.082.412Zm-5.54 13.807c0 .407-.316.74-.704.74-.388 0-.704-.333-.704-.74 0-.408.316-.74.704-.74.388 0 .704.332.704.74Zm-5.743-4.55 2.353-2.47c.465.602.745 1.37.75 2.214 0 1.938-1.504 3.517-3.351 3.517s-3.35-1.579-3.35-3.517c0-1.939 1.503-3.517 3.35-3.517a3.25 3.25 0 0 1 2.104.782l-2.352 2.47a.376.376 0 0 0 0 .52.344.344 0 0 0 .248.11c.09 0 .18-.038.248-.11ZM20.323 5.34h-1.968V3.274l-1.766 1.853v2.067h1.969l1.765-1.853Zm-4.52 5.583a.382.382 0 0 1 .145-.503.344.344 0 0 1 .479.157 8.084 8.084 0 0 1 .867 3.654c0 1.08-.208 2.128-.619 3.109a.352.352 0 0 1-.325.223.303.303 0 0 1-.14-.033.38.38 0 0 1-.18-.489 7.383 7.383 0 0 0 .555-2.815 7.298 7.298 0 0 0-.781-3.303Z" fill="#003"/></svg>