<svg xmlns="http://www.w3.org/2000/svg" width="24" height="24" fill="none"><path fill="#003" d="M7.274 7.754c.395.231.736.566.97.975a.397.397 0 0 0 .527.148.39.39 0 0 0 .136-.527 3.44 3.44 0 0 0-1.15-1.192l.004-.05.005-.049c.346-2.443 2.453-4.286 4.901-4.286a4.94 4.94 0 0 1 4.067 2.143.38.38 0 0 0 .531.094.39.39 0 0 0 .093-.537A5.72 5.72 0 0 0 12.667 2c-2.78 0-5.174 2.06-5.632 4.813a3.5 3.5 0 0 0-1.127-.197c-1.892 0-3.428 1.551-3.428 3.463 0 1.911 1.536 3.463 3.428 3.463.21 0 .38-.172.38-.384a.383.383 0 0 0-.38-.385c-1.473 0-2.667-1.207-2.667-2.694 0-1.488 1.194-2.695 2.667-2.695.415 0 .82.099 1.18.276a.37.37 0 0 0 .186.094M17.339 6.61c0-.424.341-.769.76-.769.42 0 .761.345.761.769a.766.766 0 0 1-.76.768c-.42 0-.761-.34-.761-.768m4.188 5.373v.006s0 .005-.004.005v6.542c0 .148-.083.28-.21.345l-6.096 3.079q-.007.003-.011.002-.005 0-.008.002a.4.4 0 0 1-.151.035.4.4 0 0 1-.151-.035q-.008-.002-.012-.002t-.008-.002L8.78 18.88a.39.39 0 0 1-.21-.344v-6.552q0-.007.003-.012l.003-.012q0-.038.01-.074l.007-.018a.2.2 0 0 1 .022-.044l.014-.027a.1.1 0 0 1 .025-.034q.016-.022.039-.045l.017-.015.017-.014.012-.01.012-.01q.01-.01.02-.011h.002l.007-.004a.1.1 0 0 1 .02-.015l6.096-2.694a.37.37 0 0 1 .307 0l6.095 2.694.01.008.01.007.03.015q.006.004.011.01l.013.01q.02.015.034.03l.02.021q.007.011.019.023.017.017.024.034.014.02.02.04l.01.02q.007.012.014.034l.005.034q.001.016.005.035 0 .008.002.014v.003zm-1.277.036-5.198-2.296-5.199 2.296 5.199 2.625zm-10.914.6v5.685l5.335 2.69v-5.68zm11.43 5.685v-5.684l-5.334 2.694V21z"/></svg>