<svg width="24" height="24" viewBox="0 0 24 24" fill="none" xmlns="http://www.w3.org/2000/svg">
<path fill-rule="evenodd" clip-rule="evenodd" d="M19.2901 21.2869H4.71445V14.8594H18.9352V17.36C18.9352 17.5749 19.0762 17.7166 19.2901 17.7166C19.504 17.7166 19.6451 17.5749 19.6451 17.36V3.78743C19.6451 2.78629 18.8623 2 17.8658 2H4V8.42743V14.4983V22H19.2856C19.4994 22 19.6405 21.8583 19.6405 21.6434C19.6405 21.4286 19.504 21.2869 19.2901 21.2869ZM4.71445 14.1463V8.78857H18.9352V14.1463H4.71445ZM18.9306 3.78743C18.9306 3.184 18.471 2.71771 17.8658 2.71771H4.71445V8.07543H18.9306V3.78743ZM6.13424 4.86171H8.97838C9.19226 4.86171 9.33333 4.72 9.33333 4.50514C9.33333 4.29029 9.19226 4.14857 8.97838 4.14857H6.13424C5.92036 4.14857 5.77929 4.29029 5.77929 4.50514C5.77929 4.72 5.92036 4.86171 6.13424 4.86171ZM6.13424 10.2149H8.97838C9.19226 10.2149 9.33333 10.3566 9.33333 10.5714C9.33333 10.7863 9.19226 10.928 8.97838 10.928H6.13424C5.92036 10.928 5.77929 10.7863 5.77929 10.5714C5.77929 10.3566 5.92036 10.2149 6.13424 10.2149ZM6.13424 16.2903C5.92036 16.2903 5.77929 16.432 5.77929 16.6469C5.77929 16.8617 5.92036 17.0034 6.13424 17.0034H8.97838C9.19226 17.0034 9.33333 16.8617 9.33333 16.6469C9.33333 16.432 9.19226 16.2903 8.97838 16.2903H6.13424ZM18.5802 19.4994C18.5802 19.1063 18.8987 18.7863 19.2901 18.7863C19.6815 18.7863 20 19.1063 20 19.4994C20 19.8926 19.6815 20.2126 19.2901 20.2126C18.8987 20.2126 18.5802 19.8926 18.5802 19.4994Z" fill="#000033"/>
</svg>
