<svg width="24" height="24" viewBox="0 0 24 24" fill="none" xmlns="http://www.w3.org/2000/svg">
<path fill-rule="evenodd" clip-rule="evenodd" d="M11.7867 2.05401C11.9289 1.982 12.0711 1.982 12.1777 2.05401C12.4266 2.19402 18.0039 5.80638 18 12.351C18 14.6753 17.293 16.5675 15.9184 17.9996C15.7762 18.1436 15.5668 18.1436 15.4246 17.9996C15.2824 17.8556 15.2824 17.6436 15.4246 17.4995C16.657 16.2114 17.293 14.4592 17.293 12.351C17.293 6.84248 12.9519 3.45015 12 2.77008C11.0481 3.45015 6.70704 6.84648 6.70704 12.351C6.70704 17.4595 10.3805 18.9957 11.6485 19.3917V6.9905C11.6485 6.77848 11.7867 6.63446 12 6.63446C12.2093 6.63446 12.3515 6.77448 12.3515 6.9905V21.644C12.3515 21.856 12.2133 22 12 22C11.7907 22 11.6485 21.86 11.6485 21.644V20.1398C10.4477 19.7838 6 18.1356 6 12.347C6 5.89223 11.4319 2.28936 11.7757 2.06131C11.7803 2.05828 11.784 2.05584 11.7867 2.05401ZM14.1211 19.8558C14.5116 19.8558 14.8282 19.5352 14.8282 19.1397C14.8282 18.7442 14.5116 18.4236 14.1211 18.4236C13.7306 18.4236 13.4141 18.7442 13.4141 19.1397C13.4141 19.5352 13.7306 19.8558 14.1211 19.8558Z" fill="#000033"/>
</svg>
