<svg xmlns="http://www.w3.org/2000/svg" width="24" height="24" fill="none"><path fill="#003" d="M11.787 2.054c.142-.072.284-.072.39 0 .25.14 5.827 3.752 5.823 10.297 0 2.324-.707 4.216-2.082 5.649a.336.336 0 0 1-.493 0 .346.346 0 0 1 0-.5c1.232-1.289 1.868-3.04 1.868-5.149 0-5.509-4.341-8.9-5.293-9.58-.952.68-5.293 4.075-5.293 9.58 0 5.108 3.673 6.645 4.942 7.04v-12.4c0-.213.138-.357.351-.357.21 0 .351.14.351.356v14.654c0 .212-.138.356-.351.356-.21 0-.351-.14-.351-.356V20.14C10.448 19.784 6 18.136 6 12.347c0-6.455 5.432-10.058 5.776-10.286z"/><path fill="#003" d="M14.121 19.856c.39 0 .707-.32.707-.716a.71.71 0 0 0-.707-.716c-.39 0-.707.32-.707.716s.317.716.707.716"/></svg>