<svg width="24" height="24" viewBox="0 0 24 24" fill="none" xmlns="http://www.w3.org/2000/svg">
<path fill-rule="evenodd" clip-rule="evenodd" d="M2.72626 6.44879V18.2233H21.2737C21.4739 18.2233 21.6369 18.3976 21.6369 18.6117C21.6369 18.8257 21.4739 19 21.2737 19H2.36313C2.16294 19 2 18.8257 2 18.6117V5.38834C2 5.17425 2.16294 5 2.36313 5H21.2737C21.4739 5 21.6369 5.17425 21.6369 5.38834V13.9467C21.6369 14.1607 21.4739 14.335 21.2737 14.335C21.0736 14.335 20.9106 14.1607 20.9106 13.9467V6.45377L12 11.9502C11.9441 11.9851 11.879 12 11.8184 12C11.7579 12 11.6927 11.9851 11.6369 11.9502L2.72626 6.44879ZM3.08939 5.77667L11.8184 11.1636L20.5475 5.77667H3.08939Z" fill="#000033"/>
<ellipse cx="21.2737" cy="16.2767" rx="0.726257" ry="0.776671" fill="#000033"/>
</svg>
