<svg width="24" height="24" fill="none" xmlns="http://www.w3.org/2000/svg"><path d="m17.626 17.094-2.594 2.593V6.5l2.5-2.5v9.563c0 .187.125.312.313.312s.313-.125.313-.313V3.25H8.47v6.875H6.72l1.031-1.031a.302.302 0 0 0 0-.438.302.302 0 0 0-.437 0l-1.782 1.781 1.782 1.782a.338.338 0 0 0 .218.094.338.338 0 0 0 .22-.094.302.302 0 0 0 0-.438L6.72 10.75h6.125c.188 0 .313-.125.313-.313 0-.187-.125-.312-.313-.312h-3.75v-6.25h7.687l-2.28 2.281a.284.284 0 0 0-.095.219V17H9.096v-5c0-.188-.125-.313-.313-.313-.187 0-.312.126-.312.313v5.625h5.938v2.813c0 .125.062.25.187.28.031.032.094.032.125.032a.283.283 0 0 0 .219-.094l3.125-3.125a.302.302 0 0 0 0-.437.302.302 0 0 0-.438 0Z" fill="#003"/><path d="M17.845 16.063a.625.625 0 1 0 0-1.25.625.625 0 0 0 0 1.25Z" fill="#003"/></svg>