<svg width="24" height="24" viewBox="0 0 24 24" fill="none" xmlns="http://www.w3.org/2000/svg">
<path fill-rule="evenodd" clip-rule="evenodd" d="M2.027 12.154C3.80313 16.3215 7.7194 19 12.0357 19C16.28 19 20.1603 16.4016 21.9724 12.31C22.0444 12.1202 21.9724 11.8882 21.7924 11.8123C21.6124 11.7364 21.3924 11.8123 21.3204 12.0021C19.6162 15.79 15.988 18.2365 12.0357 18.2365C8.04743 18.2365 4.41917 15.79 2.75105 12.0021C3.4391 10.4709 4.45517 9.09581 5.69126 8.05815C7.50339 6.56493 9.67954 5.76348 11.9997 5.76348C14.6119 5.76348 17.0801 6.79693 19.0002 8.66978C19.1442 8.82163 19.3642 8.82163 19.5082 8.66978C19.6522 8.51793 19.6522 8.28593 19.5082 8.13408C17.4761 6.10937 14.8279 5 12.0357 5C9.57153 5 7.25137 5.83941 5.29123 7.44652C3.87513 8.59385 2.75105 10.125 2.027 11.846C1.991 11.9262 1.991 12.0401 2.027 12.154ZM7.6474 12.0021C7.6474 14.5246 9.60754 16.5914 11.9997 16.5914C14.3919 16.5914 16.352 14.5246 16.352 12.0021C16.352 9.47966 14.3919 7.41278 11.9997 7.41278C9.60754 7.41278 7.6474 9.47966 7.6474 12.0021ZM8.37145 12.0021C8.37145 9.89726 10.0036 8.17626 11.9997 8.17626C13.9958 8.17626 15.628 9.89726 15.628 12.0021C15.628 14.107 13.9958 15.828 11.9997 15.828C10.0036 15.828 8.37145 14.107 8.37145 12.0021ZM21.4284 10.0913C21.4284 10.513 21.1042 10.8548 20.7043 10.8548C20.3044 10.8548 19.9803 10.513 19.9803 10.0913C19.9803 9.66963 20.3044 9.32781 20.7043 9.32781C21.1042 9.32781 21.4284 9.66963 21.4284 10.0913Z" fill="#000033"/>
</svg>
