<svg xmlns="http://www.w3.org/2000/svg" width="24" height="24" fill="none"><path fill="#003" d="M2.027 12.154C3.803 16.322 7.719 19 12.036 19c4.244 0 8.124-2.598 9.936-6.69.072-.19 0-.422-.18-.498-.18-.076-.4 0-.472.19-1.704 3.788-5.332 6.234-9.284 6.234-3.989 0-7.617-2.446-9.285-6.234.688-1.531 1.704-2.906 2.94-3.944C7.503 6.565 9.68 5.763 12 5.763c2.612 0 5.08 1.034 7 2.907a.34.34 0 0 0 .508 0 .386.386 0 0 0 0-.536C17.476 6.11 14.828 5 12.036 5 9.572 5 7.25 5.84 5.29 7.447c-1.416 1.147-2.54 2.678-3.264 4.399a.45.45 0 0 0 0 .308"/><path fill="#003" d="M7.647 12.002c0 2.523 1.96 4.59 4.353 4.59 2.392 0 4.352-2.067 4.352-4.59 0-2.522-1.96-4.59-4.352-4.59-2.392 0-4.353 2.068-4.353 4.59m.724 0c0-2.105 1.633-3.826 3.629-3.826s3.628 1.721 3.628 3.826-1.632 3.826-3.628 3.826c-1.996 0-3.629-1.721-3.629-3.826M21.428 10.091c0 .422-.324.764-.724.764-.4 0-.724-.342-.724-.764 0-.421.324-.763.724-.763.4 0 .724.342.724.763"/></svg>