<svg xmlns="http://www.w3.org/2000/svg" width="24" height="24" fill="none"><path fill="#003" d="M8.597 9.932a.716.716 0 1 0 0-1.432.716.716 0 0 0 0 1.432M15.284 9.932a.716.716 0 1 0 0-1.432.716.716 0 0 0 0 1.432M8.813 13.193a.35.35 0 0 0-.626.314c.214.426.539.79.893 1.105.613.544 1.568 1.088 2.92 1.088s2.307-.544 2.92-1.088c.354-.315.68-.68.893-1.105a.35.35 0 0 0-.592-.368 3.9 3.9 0 0 1-.766.95c-.512.455-1.307.911-2.455.911s-1.943-.456-2.455-.912c-.287-.254-.555-.552-.732-.895"/><path fill="#003" d="M22 12c0 5.523-4.477 10-10 10S2 17.523 2 12 6.477 2 12 2s10 4.477 10 10m-.7 0a9.3 9.3 0 1 0-18.6 0 9.3 9.3 0 0 0 18.6 0"/></svg>