<svg width="24" height="24" viewBox="0 0 24 24" fill="none" xmlns="http://www.w3.org/2000/svg">
<path fill-rule="evenodd" clip-rule="evenodd" d="M2 12C2 17.5165 6.48812 22 12 22C13.8921 22 15.734 21.4653 17.3336 20.4552C17.4982 20.3501 17.5484 20.1261 17.4433 19.9616C17.3382 19.7971 17.1188 19.7468 16.9497 19.8519C15.4689 20.7888 13.755 21.2824 12 21.2824C6.88117 21.2824 2.71755 17.1188 2.71755 12C2.71755 6.88117 6.88117 2.71755 12 2.71755C17.1188 2.71755 21.2824 6.88117 21.287 11.9954C21.287 13.7505 20.7934 15.4644 19.8565 16.9452C19.7514 17.1143 19.8016 17.3336 19.9662 17.4388C20.1353 17.5439 20.3547 17.4936 20.4598 17.3291C21.4653 15.734 22 13.8921 22 12C22 6.48812 17.5119 2 12 2C6.48812 2 2 6.48355 2 12ZM18.787 18.0695C19.1801 18.0695 19.5 18.3894 19.5 18.7824C19.5 19.1801 19.1801 19.4954 18.787 19.4954C18.394 19.4954 18.074 19.1755 18.074 18.7824C18.074 18.3894 18.394 18.0695 18.787 18.0695ZM7.61243 16.8949L12.2559 12.2514C12.3976 12.1097 12.3976 11.8857 12.2559 11.7486L7.61243 7.10512C7.47075 6.96344 7.2468 6.96344 7.10969 7.10512C6.97258 7.2468 6.96801 7.47075 7.10969 7.60786L11.4973 11.9954L7.10969 16.383C6.96801 16.5247 6.96801 16.7486 7.10969 16.8857C7.17825 16.9543 7.26965 16.9909 7.36106 16.9909C7.45247 16.9909 7.53931 16.9634 7.61243 16.8949ZM18.3254 12.2514L13.6819 16.8949C13.6088 16.9634 13.5219 16.9909 13.4305 16.9909C13.3391 16.9909 13.2477 16.9543 13.1792 16.8857C13.0375 16.7486 13.0375 16.5247 13.1792 16.383L17.5667 11.9954L13.1792 7.60786C13.0375 7.47075 13.042 7.2468 13.1792 7.10512C13.3163 6.96344 13.5402 6.96344 13.6819 7.10512L18.3254 11.7486C18.4671 11.8857 18.4671 12.1097 18.3254 12.2514Z" fill="#000033"/>
</svg>
