<svg xmlns="http://www.w3.org/2000/svg" width="24" height="24" fill="none"><path fill="#003" d="M2 12c0 5.517 4.488 10 10 10a9.97 9.97 0 0 0 5.334-1.545.36.36 0 0 0 .11-.493.36.36 0 0 0-.494-.11 9.25 9.25 0 0 1-4.95 1.43c-5.119 0-9.282-4.163-9.282-9.282S6.88 2.718 12 2.718s9.282 4.163 9.287 9.277a9.25 9.25 0 0 1-1.43 4.95.36.36 0 0 0 .11.494.36.36 0 0 0 .493-.11A10 10 0 0 0 22 12c0-5.512-4.488-10-10-10S2 6.484 2 12m16.787 6.07a.714.714 0 0 1 0 1.425.714.714 0 0 1 0-1.425M7.612 16.895l4.644-4.644a.35.35 0 0 0 0-.502L7.612 7.105a.35.35 0 0 0-.502 0 .354.354 0 0 0 0 .503l4.387 4.387-4.387 4.388a.35.35 0 0 0 0 .503c.068.068.16.105.251.105a.36.36 0 0 0 .251-.096m10.713-4.644-4.643 4.644a.36.36 0 0 1-.252.096.36.36 0 0 1-.25-.105.35.35 0 0 1 0-.503l4.387-4.388-4.388-4.387a.354.354 0 0 1 0-.503.35.35 0 0 1 .503 0l4.643 4.644a.35.35 0 0 1 0 .502"/></svg>