<svg width="24" height="24" viewBox="0 0 24 24" fill="none" xmlns="http://www.w3.org/2000/svg">
<path fill-rule="evenodd" clip-rule="evenodd" d="M18.4996 14.4275H18.9292V14.4133H21.6481V16.7926C21.6481 17.0163 21.5065 17.1638 21.2917 17.1638C21.0769 17.1638 20.9353 17.0163 20.9353 16.7926V15.1556H18.9337H15.5796V18.8722H16.6489H18.9337C19.1485 18.8722 19.3267 19.0197 19.3267 19.2434C19.3267 19.467 19.1851 19.6145 18.9703 19.6145H16.6489H14.8621H7.36321C7.14844 19.6145 7.00678 19.467 7.00678 19.2434C7.00678 19.1339 7.11188 18.8722 7.11188 18.8722C7.185 18.501 7.25354 17.8681 7.14844 17.3494C7.07532 16.9782 6.8971 16.6784 6.68233 16.3453C6.43099 15.9741 6.17966 15.5268 6.038 14.932C5.93289 14.4085 5.89634 13.7042 5.89634 13.1094C5.57646 13.7042 5.22002 14.4846 5.00524 15.3793C4.61225 17.2019 5.18346 18.3535 5.18346 18.3535C5.21545 18.4677 5.22002 18.6485 5.11035 18.7627C5.00067 18.8769 4.85901 18.915 4.71735 18.8389C4.60768 18.8008 2.10805 17.6873 2.00294 14.4133C1.93921 12.5815 2.92239 11.1364 3.80643 9.83702C3.87317 9.73891 3.93935 9.64164 4.00448 9.5451C4.64881 8.7266 5.22002 7.9081 5.39824 7.16574C5.82779 5.34791 5.57646 4.49134 5.57646 4.49134C5.5399 4.34382 5.57646 4.19154 5.71812 4.08209C5.85978 3.97264 6.04257 3.97264 6.14767 4.08209C6.28933 4.19154 9.1454 6.53283 9.1454 9.58317C9.1454 10.5873 9.03573 11.4058 8.93063 11.9245C9.09243 11.8276 9.22201 11.727 9.34788 11.6292L9.39674 11.5913C9.75774 11.2582 9.86285 10.6253 9.86285 10.6253C9.8994 10.4778 10.0091 10.3636 10.1142 10.3303C10.2193 10.297 10.3655 10.3303 10.4706 10.4064L10.4769 10.4129C10.5991 10.5381 11.8666 11.8376 11.9695 14.4228H14.8621H17.8233V10.7062H12.7189C12.5041 10.7062 12.3625 10.5587 12.3625 10.335C12.3625 10.1114 12.5041 9.96386 12.7189 9.96386H18.4996V14.4275ZM20.5742 19.2576C20.5742 18.8484 20.8941 18.5153 21.2871 18.5153C21.6801 18.5153 22 18.8484 22 19.2576C22 19.6669 21.6801 20 21.2871 20C20.8941 20 20.5742 19.6669 20.5742 19.2576ZM7.86131 17.14C7.75621 16.6546 7.54143 16.2834 7.32666 15.9123C7.07532 15.5792 6.86055 15.2413 6.75544 14.7607C6.54067 13.7946 6.65034 11.8626 6.65034 11.8626C6.65034 11.7151 6.57722 11.5676 6.43556 11.4914C6.36245 11.4533 6.33046 11.4533 6.2939 11.4533C6.1888 11.4533 6.07913 11.4914 6.01058 11.6009C6.00629 11.6098 5.9858 11.6387 5.95223 11.686C5.69989 12.0419 4.70831 13.4401 4.29694 15.246C4.08216 16.2501 4.11872 17.1067 4.22382 17.7015C3.57949 17.1448 2.76152 16.1407 2.6884 14.4275C2.61528 12.7144 3.61605 11.3439 4.58026 10.04C5.25658 9.15012 5.86435 8.29355 6.07913 7.3656C6.2939 6.50903 6.33046 5.84281 6.33046 5.31935C7.18957 6.17592 8.4371 7.77485 8.4371 9.59268C8.4371 11.3772 8.11722 12.4574 8.11722 12.4574C8.08066 12.605 8.11722 12.7525 8.19033 12.8286C8.29544 12.9381 8.44167 12.9761 8.54677 12.9048C8.58333 12.9048 9.40588 12.6097 9.90397 12.1243C10.1188 11.9387 10.2604 11.677 10.3701 11.4533C10.7631 12.0482 11.2977 13.1617 11.2977 14.7987C11.2977 17.4731 8.93976 18.4439 7.87045 18.7389C7.93443 18.2916 8.00297 17.6587 7.86131 17.14ZM9.46528 18.8865H14.8575V15.1699H11.9649C11.8233 17.14 10.6077 18.2536 9.46528 18.8865Z" fill="#000033"/>
</svg>
