<svg xmlns="http://www.w3.org/2000/svg" width="24" height="24" fill="none"><path fill="#003" d="M18.5 14.428h.43v-.015h2.718v2.38c0 .223-.142.37-.356.37-.215 0-.357-.147-.357-.37v-1.637H15.58v3.716h3.354c.214 0 .393.148.393.371 0 .224-.142.372-.357.372H7.363c-.215 0-.356-.148-.356-.372 0-.11.105-.37.105-.37.073-.372.142-1.005.036-1.524-.073-.37-.25-.67-.466-1.004a4.189 4.189 0 0 1-.644-1.413c-.105-.524-.142-1.228-.142-1.823a9.543 9.543 0 0 0-.89 2.27c-.394 1.823.177 2.975.177 2.975.032.114.037.294-.073.409-.11.114-.251.152-.393.076-.11-.038-2.609-1.152-2.714-4.426-.064-1.832.92-3.277 1.803-4.576l.198-.292c.645-.818 1.216-1.637 1.394-2.38.43-1.817.178-2.674.178-2.674a.38.38 0 0 1 .142-.409c.142-.11.325-.11.43 0 .141.11 2.997 2.45 2.997 5.501 0 1.004-.11 1.823-.214 2.341a4.05 4.05 0 0 0 .417-.295l.049-.038c.36-.333.466-.966.466-.966a.418.418 0 0 1 .251-.295c.105-.033.252 0 .357.076l.006.007c.122.125 1.39 1.425 1.492 4.01h5.854v-3.717H12.72c-.215 0-.356-.147-.356-.371s.141-.371.356-.371h5.78v4.463Zm2.074 4.83c0-.41.32-.743.713-.743.393 0 .713.333.713.743 0 .409-.32.742-.713.742-.393 0-.713-.333-.713-.742ZM7.861 17.14c.142.519.073 1.152.01 1.599 1.069-.295 3.427-1.266 3.427-3.94 0-1.637-.535-2.75-.928-3.346-.11.224-.251.486-.466.671-.498.486-1.32.78-1.357.78-.105.072-.252.034-.357-.075-.073-.077-.11-.224-.073-.372 0 0 .32-1.08.32-2.864 0-1.818-1.247-3.417-2.107-4.274 0 .524-.036 1.19-.25 2.047-.216.928-.823 1.784-1.5 2.674-.964 1.304-1.965 2.674-1.892 4.388.074 1.713.891 2.717 1.536 3.273-.105-.594-.142-1.45.073-2.455.411-1.806 1.403-3.204 1.655-3.56a1.28 1.28 0 0 0 .059-.085.32.32 0 0 1 .283-.148c.036 0 .068 0 .142.038a.417.417 0 0 1 .214.372s-.11 1.932.105 2.898c.106.48.32.818.572 1.151.214.371.43.743.534 1.228Zm1.604 1.747h5.393V15.17h-2.893c-.142 1.97-1.357 3.084-2.5 3.717Z"/></svg>