<svg width="24" height="24" fill="none" xmlns="http://www.w3.org/2000/svg"><path d="M20.125 15.438a.625.625 0 1 0 0-1.25.625.625 0 0 0 0 1.25ZM17 11.25V3.875H3.25v16.25H17v-5.313c0-.187-.125-.312-.313-.312-.187 0-.312.125-.312.313V19.5h-12.5v-8.125h1.563c.187 0 .312-.125.312-.313 0-.187-.125-.312-.313-.312H3.875V4.5h6.563v6.25H8.874c-.188 0-.313.125-.313.313 0 .187.126.312.313.312h2.188V4.5h5.312v6.875c0 .031 0 .094.031.125.032.031.032.063.063.094l2.187 2.187a.337.337 0 0 0 .219.094.337.337 0 0 0 .219-.094.302.302 0 0 0 0-.437L17 11.25Z" fill="#003"/></svg>