<svg width="24" height="24" fill="none" xmlns="http://www.w3.org/2000/svg"><path d="M21.286 15.93a.714.714 0 1 0 0-1.43.714.714 0 0 0 0 1.43Zm-3.572-4.786V2.715H2v18.571h15.714v-6.071c0-.214-.143-.357-.357-.357S17 15 17 15.215v5.357H2.714v-9.286H4.5c.214 0 .357-.142.357-.357 0-.214-.143-.357-.357-.357H2.714V3.43h7.5v7.143H8.43c-.215 0-.358.143-.358.357 0 .215.143.357.358.357h2.5V3.43H17v7.857c0 .036 0 .108.036.143.035.036.035.072.071.107l2.5 2.5a.386.386 0 0 0 .25.108.385.385 0 0 0 .25-.108.345.345 0 0 0 0-.5l-2.393-2.392Z" fill="#003"/></svg>