<svg width="24" height="24" fill="none" xmlns="http://www.w3.org/2000/svg"><path fill-rule="evenodd" clip-rule="evenodd" d="M2 21h19.26c.22 0 .372-.19.372-.427 0-.236-.148-.393-.372-.393H2.74V4.923c0-.668.484-1.175 1.112-1.175h3.852c.296 0 .552.114.776.35l1.744 1.834c.332.393.816.588 1.296.588h8.252c.632 0 1.112.511 1.112 1.174v8.253c0 .236.148.392.372.392s.372-.156.372-.392V7.732c0-1.094-.816-1.956-1.852-1.956H11.48c-.296 0-.552-.114-.776-.35l-1.74-1.839A1.689 1.689 0 0 0 7.668 3H3.852C2.816 3 2 3.862 2 4.956V21Zm19.26-1.96c.409 0 .74-.35.74-.782 0-.432-.331-.782-.74-.782s-.74.35-.74.782c0 .431.331.781.74.781Z" fill="#003"/></svg>