<svg width="24" height="24" viewBox="0 0 24 24" fill="none" xmlns="http://www.w3.org/2000/svg">
<path fill-rule="evenodd" clip-rule="evenodd" d="M21.9589 11.152C21.968 11.1931 21.9726 11.2297 21.968 11.2663C21.9863 11.5086 22 11.7509 22 11.9977C22 13.8949 21.4651 15.7371 20.4594 17.3326C20.3543 17.4971 20.1349 17.5474 19.9657 17.4423C19.8011 17.3371 19.7509 17.1131 19.856 16.9486C20.112 16.5463 20.3314 16.1257 20.5189 15.6914L19.5223 13.4149L16.8343 12.9943L13.1726 16.6697L13.4011 19.4446L15.6869 20.5143C15.6882 20.5143 15.6892 20.5147 15.6899 20.5152L15.6914 20.5166C15.6926 20.5177 15.6937 20.5189 15.696 20.5189C16.1257 20.3314 16.5463 20.112 16.9486 19.8606C17.1177 19.7554 17.3371 19.8011 17.4423 19.9703C17.5474 20.1394 17.5017 20.3589 17.3326 20.464C15.7371 21.4697 13.8949 22 12.0023 22C11.7966 22 11.5909 21.9909 11.3897 21.9771L11.3815 21.979L11.374 21.981L11.3665 21.9832L11.3663 21.9832C11.3531 21.9871 11.3403 21.9909 11.3257 21.9909C11.28 21.9909 11.2343 21.9817 11.1931 21.9634C6.05486 21.5474 2 17.2411 2 11.9977C2 8.464 3.84229 5.35543 6.61714 3.57714C6.66743 3.52229 6.72229 3.48114 6.79543 3.46286C8.30857 2.53486 10.0914 2 11.9977 2C12.7703 2 13.5246 2.08686 14.2469 2.256C14.2926 2.256 14.3383 2.26971 14.384 2.288C18.4846 3.29371 21.5977 6.83657 21.9589 11.152ZM19.696 12.72L21.2411 11.1109C21.008 8.67429 19.8286 6.512 18.0823 4.98971L15.728 5.44686L14.5897 7.68686L16.944 12.2903L19.696 12.72ZM15.8286 4.69714C15.8149 4.68343 15.8011 4.67429 15.7874 4.66514L14.9783 3.20229C15.824 3.49029 16.6149 3.89714 17.3326 4.4L15.8286 4.69714ZM15.152 4.99429L14.0137 2.93257C13.3646 2.79086 12.688 2.71314 11.9931 2.71314C10.2423 2.71314 8.60571 3.19771 7.20686 4.04343L6.93257 6.27429L8.84343 8.176L13.9497 7.36229L15.152 4.99429ZM6.42514 4.57371L6.23314 6.11886L4.55543 6.44343C5.09029 5.73486 5.71657 5.10857 6.42514 4.57371ZM6.45714 6.80457L4.00229 7.28C3.184 8.66514 2.71314 10.2743 2.71314 11.9977C2.71314 12.7154 2.8 13.4194 2.95543 14.0914L5.04457 15.0651L7.54057 13.7897L8.34057 8.68343L6.45714 6.80457ZM4.41829 17.3509C3.91086 16.6331 3.504 15.8469 3.21143 15.0011L4.624 15.6594L4.41829 17.3509ZM5.33714 15.7189L5.04 18.1371C6.576 19.8789 8.752 21.0354 11.1886 21.2411L12.6926 19.632L12.4549 16.7566L7.86057 14.4251L5.33714 15.7189ZM12.144 21.2777L13.2091 20.1394L14.7543 20.8617C13.9131 21.1223 13.0354 21.264 12.144 21.2777ZM8.25829 13.8263L12.7291 16.0937L16.272 12.5463L13.9863 8.08L9.03543 8.87086L8.25829 13.8263ZM20.2126 13.2137L21.2823 12.1029C21.2731 12.9989 21.1314 13.8811 20.8754 14.7269L20.2126 13.2137ZM18.7817 19.4949C19.1756 19.4949 19.4949 19.1756 19.4949 18.7817C19.4949 18.3879 19.1756 18.0686 18.7817 18.0686C18.3879 18.0686 18.0686 18.3879 18.0686 18.7817C18.0686 19.1756 18.3879 19.4949 18.7817 19.4949Z" fill="#000033"/>
</svg>
