<svg xmlns="http://www.w3.org/2000/svg" width="24" height="24" fill="none"><path fill="#003" d="M21.959 11.152q.015.06.009.114c.018.243.032.485.032.732 0 1.897-.535 3.74-1.54 5.335a.36.36 0 0 1-.494.11.36.36 0 0 1-.11-.494 9 9 0 0 0 .663-1.258l-.997-2.276-2.688-.42-3.661 3.675.228 2.775 2.286 1.07h.003l.001.002.005.002q.647-.282 1.253-.658a.355.355 0 0 1 .493.11c.105.168.06.388-.11.493A10 10 0 0 1 12.003 22q-.309-.002-.612-.023l-.008.002-.008.002-.008.002q-.02.007-.04.008a.3.3 0 0 1-.133-.028C6.055 21.547 2 17.241 2 11.998a10 10 0 0 1 4.617-8.42.36.36 0 0 1 .178-.115A9.9 9.9 0 0 1 11.998 2c.772 0 1.527.087 2.249.256.046 0 .091.014.137.032 4.1 1.006 7.214 4.549 7.575 8.864m-2.263 1.568 1.545-1.61a9.3 9.3 0 0 0-3.159-6.12l-2.354.457-1.138 2.24 2.354 4.603zm-3.867-8.023 1.504-.297a9.4 9.4 0 0 0-2.355-1.198l.81 1.463q.02.013.04.032m-.677.297-1.138-2.061a9.5 9.5 0 0 0-2.02-.22c-1.752 0-3.388.485-4.787 1.33l-.274 2.231 1.91 1.902 5.107-.814zm-8.727-.42a9.5 9.5 0 0 0-1.87 1.87l1.678-.325zm.032 2.23-2.455.476a9.24 9.24 0 0 0-1.047 6.811l2.09.974L7.54 13.79l.8-5.107zM4.418 17.352l.206-1.692-1.413-.658c.293.846.7 1.632 1.207 2.35m.92-1.632-.298 2.418a9.23 9.23 0 0 0 6.149 3.104l1.504-1.609-.238-2.875-4.594-2.332zm6.806 5.559a9.3 9.3 0 0 0 2.61-.416l-1.545-.723zm-3.886-7.452 4.471 2.268 3.543-3.548-2.286-4.466-4.95.79zm11.955-.612.662 1.513a9.4 9.4 0 0 0 .407-2.624z"/><path fill="#003" d="M18.782 19.495a.713.713 0 1 0 0-1.426.713.713 0 0 0 0 1.426"/></svg>