<svg width="24" height="24" fill="none" xmlns="http://www.w3.org/2000/svg"><path d="M11.818 2.254c-5.014 0-9.092 4.204-9.092 9.374v5.02a3.137 3.137 0 0 1 2.547-1.271h1.452v7.118H5.273C3.406 22.495 2 20.964 2 18.934l.002-.077c.001-.025.003-.05.003-.077l-.002-.013a.09.09 0 0 1-.003-.02v-7.124C2 6.041 6.404 1.5 11.818 1.5c4.805 0 8.976 3.686 9.702 8.578a.37.37 0 0 1-.302.427.361.361 0 0 1-.415-.312c-.675-4.527-4.534-7.94-8.985-7.94ZM5.273 16.126c-1.453 0-2.547 1.21-2.547 2.812 0 1.604 1.094 2.813 2.547 2.813h.726v-5.625h-.726ZM22 12.377a.738.738 0 0 1-.726.749.738.738 0 0 1-.727-.75c0-.413.326-.748.727-.748.4 0 .726.335.726.749ZM20.91 14.628a.37.37 0 0 1 .364-.374c.2 0 .363.168.363.374v4.31c0 2.03-1.406 3.562-3.273 3.562h-1.453v-7.123h1.453c1.052 0 1.955.485 2.547 1.272v-2.021Zm-3.272 7.123h.726c1.453 0 2.547-1.21 2.547-2.813 0-1.603-1.094-2.812-2.547-2.812h-.726v5.625Z" fill="#003"/></svg>