<svg width="24" height="24" fill="none" xmlns="http://www.w3.org/2000/svg"><path fill-rule="evenodd" clip-rule="evenodd" d="M11.818 1.754c4.451 0 8.31 3.412 8.986 7.939a.361.361 0 0 0 .414.312.37.37 0 0 0 .302-.427C20.794 4.686 16.623 1 11.818 1 6.404 1 2 5.54 2 11.123v7.123a.09.09 0 0 0 .003.02l.002.014c0 .026-.002.052-.003.077L2 18.434c0 2.03 1.406 3.561 3.273 3.561h1.452v-7.118H5.273a3.137 3.137 0 0 0-2.547 1.272v-5.021c0-5.17 4.078-9.374 9.092-9.374ZM5.273 15.626h.726v5.625h-.726c-1.453 0-2.547-1.21-2.547-2.813 0-1.603 1.094-2.812 2.547-2.812ZM22 11.876a.738.738 0 0 1-.726.75.738.738 0 0 1-.727-.75c0-.413.326-.748.727-.748.4 0 .726.335.726.749Zm-1.09 2.252a.37.37 0 0 1 .364-.374c.2 0 .363.168.363.374v4.31c0 2.03-1.406 3.562-3.273 3.562h-1.453v-7.123h1.453c1.052 0 1.955.485 2.547 1.272v-2.021Zm-3.272 7.123h.726c1.453 0 2.547-1.21 2.547-2.813 0-1.603-1.094-2.812-2.547-2.812h-.726v5.625Z" fill="#003"/></svg>