<svg width="24" height="24" fill="none" xmlns="http://www.w3.org/2000/svg"><path d="M11.74 21.878c.068.08.164.122.26.122a.31.31 0 0 0 .24-.11.382.382 0 0 0 .02-.528c-3.101-3.495-9.548-10.77-9.548-15.59 0-2.769 1.893-4.029 3.654-4.029 1.728 0 3.093.601 5.346 3.751a.353.353 0 0 0 .288.151c.116 0 .22-.054.288-.151 2.289-3.209 3.445-3.75 5.17-3.75 1.9 0 3.826 1.385 3.826 4.031 0 2.121-1.273 4.994-3.786 8.535l-2.653 3.444a.391.391 0 0 0 .052.529c.156.13.38.105.504-.055l2.657-3.448.004-.006.004-.006C20.716 11.038 22 8.098 22 5.78 22 2.642 19.715 1 17.458 1c-2.093 0-3.41.865-5.458 3.654C9.987 1.932 8.527 1 6.37 1c-1.17 0-2.245.437-3.037 1.226C2.46 3.096 2 4.326 2 5.78c0 2.23 1.188 5.031 3.637 8.563 2.057 2.974 4.59 5.83 6.103 7.535Z" fill="#003"/><path d="M13.78 20.5c.397 0 .717-.34.717-.751 0-.412-.32-.748-.716-.752-.396 0-.717.336-.717.752s.32.752.717.752Z" fill="#003"/></svg>