<svg width="24" height="24" fill="none" xmlns="http://www.w3.org/2000/svg"><path d="m12.01 2 9.43 10.284c.1.108.103.252.065.392-.038.144-.171.216-.308.216h-1.7v4.464c0 .212-.134.356-.34.356-.202 0-.339-.14-.339-.356v-5.18h1.631L12.01 3.072l-8.404 9.104H5.21v9.108h4.083v-6.428h5.439v6.432h4.421c.203 0 .34.144.34.356s-.134.356-.34.356H14.05v-6.428H9.967V22H4.524v-9.104h-1.7c-.137 0-.24-.072-.308-.216a.34.34 0 0 1 .068-.396L12.01 2Z" fill="#003"/><path d="M19.161 20.212c.377 0 .682-.32.682-.716 0-.395-.305-.716-.682-.716-.377 0-.682.32-.682.716 0 .395.305.716.682.716Z" fill="#003"/></svg>