<svg xmlns="http://www.w3.org/2000/svg" width="24" height="24" fill="none"><path fill="#003" d="M2 12c0 5.5 4.5 10 10 10a10.14 10.14 0 0 0 5.356-1.536c.18-.108.216-.32.108-.5s-.32-.216-.5-.108A9.43 9.43 0 0 1 12 21.284c-5.108 0-9.284-4.176-9.284-9.284S6.896 2.716 12 2.716s9.284 4.176 9.284 9.248c0 1.784-.5 3.5-1.428 4.964-.108.18-.072.392.108.5s.392.072.5-.108A9.93 9.93 0 0 0 22 12c0-5.5-4.5-10-10-10S2 6.5 2 12"/><path fill="#003" d="M18.784 19.5a.716.716 0 1 0 0-1.432.716.716 0 0 0 0 1.432M12 17.356c-.216 0-.356-.144-.356-.356V9.5c0-.216.144-.356.356-.356.216 0 .356.144.356.356V17c0 .216-.14.356-.356.356M12 7.716a.536.536 0 1 0 0-1.072.536.536 0 0 0 0 1.072"/></svg>