<svg width="24" height="24" fill="none" xmlns="http://www.w3.org/2000/svg"><path d="M18.883 17.48a.357.357 0 0 1 0 .504.34.34 0 0 1-.49 0l-.428-.44a2.049 2.049 0 0 0-2.95 0l-3.478 3.619a2.742 2.742 0 0 1-3.943 0c-.99-1.016-1.074-2.616-.254-3.737-.989-.032-1.84-.38-2.486-1.034L3.79 15.308c-.606-.618-.65-1.592-.093-2.168l1.595-1.656c.557-.576 1.501-.544 2.111.073l1.114 1.134c.753.764 2.38.197 3.872-1.349.766-.796 1.3-1.647 1.51-2.397.13-.471.196-1.13-.245-1.578l-1.114-1.134c-.606-.618-.65-1.588-.094-2.164l1.595-1.656c.277-.283.65-.43 1.056-.411.392.018.767.192 1.056.484l1.065 1.084c2.063 2.1.971 6.194-2.66 9.963-1.777 1.844-3.64 3.097-5.381 3.627-.281.083-.553.147-.816.193l-.003.005c-.002.002-.003.004-.006.004l-.263.26c-.81.833-.81 2.192.005 3.029a2.05 2.05 0 0 0 2.954 0l3.47-3.619a2.73 2.73 0 0 1 3.938 0l.428.449Zm1.813 1.68a.705.705 0 0 1-.695.713.705.705 0 0 1-.695-.714c0-.393.312-.713.695-.713.383 0 .695.32.695.713ZM8.98 16.482c1.631-.494 3.386-1.683 5.084-3.444 3.341-3.467 4.437-7.15 2.664-8.952l-1.065-1.084a.905.905 0 0 0-.601-.279.666.666 0 0 0-.526.202L12.94 4.58c-.285.298-.245.815.09 1.158l1.113 1.134c.53.54.681 1.35.423 2.283-.24.878-.824 1.816-1.684 2.707-1.83 1.899-3.782 2.443-4.856 1.354l-1.114-1.134a.892.892 0 0 0-.637-.279.663.663 0 0 0-.49.201L4.19 13.661c-.285.298-.245.814.09 1.158l1.069 1.07c1.06 1.08 2.561.92 3.63.595Z" fill="#003"/></svg>