<svg xmlns="http://www.w3.org/2000/svg" width="24" height="24" fill="none"><path fill="#003" d="M11.66 3.783V2.357c0-.197.153-.357.34-.357.187 0 .34.16.34.357v1.426a.349.349 0 0 1-.34.357.349.349 0 0 1-.34-.357m8.5 6.79h-1.357c-.187 0-.34.16-.34.357 0 .197.152.357.34.357h1.357c.188 0 .34-.16.34-.357a.349.349 0 0 0-.34-.357m-16.32 0h1.362c.187 0 .335.16.335.357a.349.349 0 0 1-.34.357H3.84a.349.349 0 0 1-.339-.357c0-.197.152-.357.34-.357m2.567-3.04a.366.366 0 0 0-.126-.49l-1.18-.713a.33.33 0 0 0-.465.133.366.366 0 0 0 .126.489l1.18.713a.333.333 0 0 0 .466-.133M8.601 5.1a.337.337 0 0 1-.296-.178l-.683-1.24a.373.373 0 0 1 .126-.489.336.336 0 0 1 .466.133l.683 1.24a.373.373 0 0 1-.126.488.327.327 0 0 1-.17.046m6.628-.05a.327.327 0 0 0 .17.046c.118 0 .23-.064.296-.179l.679-1.239a.366.366 0 0 0-.126-.49.33.33 0 0 0-.466.133l-.679 1.24a.372.372 0 0 0 .126.489m3.665 1.28a.337.337 0 0 1 .466.133c.096.169.039.388-.127.489l-1.179.713a.337.337 0 0 1-.466-.133.373.373 0 0 1 .127-.489zm-1.114 4.6c0 1.427-.462 2.766-1.288 3.827h-.005a.33.33 0 0 1-.257.133.349.349 0 0 1-.34-.357c0-.087.036-.165.084-.228l-.005-.005a5.493 5.493 0 0 0 1.127-3.365c0-2.954-2.289-5.36-5.1-5.36-2.812 0-5.101 2.406-5.101 5.36 0 1.888.918 3.603 2.454 4.581.005.005.01.01.014.01.718.484 1.144 1.298 1.153 2.194h3.351c.657 0 1.188.558 1.188 1.249 0 .351-.139.667-.357.891.222.229.357.544.357.892 0 .69-.53 1.248-1.188 1.248H10.13c-.658 0-1.189-.558-1.189-1.248 0-.352.14-.668.357-.892a1.275 1.275 0 0 1-.357-.892c0-.585.383-1.074.901-1.207v-.018c0-.663-.322-1.271-.857-1.623-1.732-1.116-2.764-3.05-2.764-5.18 0-3.348 2.594-6.073 5.78-6.073 3.186 0 5.78 2.711 5.78 6.063m-3.909 9.287H10.13a.52.52 0 0 0-.51.535.52.52 0 0 0 .51.535h3.742c.279 0 .51-.238.51-.535a.52.52 0 0 0-.51-.535m-3.742-1.788a.52.52 0 0 0-.51.535.52.52 0 0 0 .51.535h3.742a.52.52 0 0 0 .51-.535.52.52 0 0 0-.51-.535zm4.252-2.145c0-.393.304-.713.679-.713.374 0 .679.32.679.713 0 .394-.305.714-.68.714-.374 0-.678-.32-.678-.714"/></svg>