<svg width="24" height="24" viewBox="0 0 24 24" fill="none" xmlns="http://www.w3.org/2000/svg">
<path fill-rule="evenodd" clip-rule="evenodd" d="M11.1605 3.78326V2.35665C11.1605 2.16004 11.3129 2 11.5 2C11.6871 2 11.8395 2.16004 11.8395 2.35665V3.78326C11.8395 3.97988 11.6871 4.13992 11.5 4.13992C11.3129 4.13992 11.1605 3.97988 11.1605 3.78326ZM19.6605 10.5734H18.3026C18.1155 10.5734 17.9631 10.7334 17.9631 10.93C17.9631 11.1267 18.1155 11.2867 18.3026 11.2867H19.6605C19.8477 11.2867 20 11.1267 20 10.93C20 10.7334 19.8477 10.5734 19.6605 10.5734ZM3.33948 10.5734H4.70174C4.88889 10.5734 5.03687 10.7334 5.03687 10.93C5.03687 11.1267 4.88454 11.2867 4.69739 11.2867H3.33948C3.15233 11.2867 3 11.1267 3 10.93C3 10.7334 3.15233 10.5734 3.33948 10.5734ZM5.90732 7.53269C6.00307 7.36351 5.94649 7.14403 5.78111 7.04344L4.60164 6.33013C4.43625 6.22954 4.23169 6.28898 4.13594 6.46273C4.04019 6.63192 4.09677 6.85139 4.26216 6.95199L5.44163 7.66529C5.49386 7.6973 5.55479 7.71102 5.61137 7.71102C5.72888 7.71102 5.84204 7.65158 5.90732 7.53269ZM8.10087 5.10014C7.98336 5.10014 7.86585 5.03612 7.80492 4.92181L7.12161 3.68267C7.03021 3.50892 7.08679 3.29401 7.24782 3.19342C7.41321 3.09739 7.61777 3.15684 7.71352 3.32602L8.39683 4.56516C8.48822 4.73891 8.43164 4.95382 8.27061 5.05441C8.21838 5.08642 8.15745 5.10014 8.10087 5.10014ZM14.7294 5.04984C14.7816 5.08185 14.8426 5.09556 14.8991 5.09556C15.0166 5.09556 15.1298 5.03155 15.1951 4.91724L15.874 3.6781C15.9698 3.50892 15.9132 3.28944 15.7478 3.18884C15.5824 3.08825 15.3779 3.14769 15.2821 3.32144L14.6032 4.56059C14.5118 4.73434 14.5684 4.95382 14.7294 5.04984ZM18.394 6.33013C18.555 6.23411 18.764 6.29355 18.8597 6.46273C18.9555 6.63192 18.8989 6.85139 18.7335 6.95199L17.554 7.66529C17.5018 7.6973 17.4409 7.71102 17.3843 7.71102C17.2668 7.71102 17.1493 7.64701 17.0883 7.53269C16.9969 7.35894 17.0535 7.14403 17.2145 7.04344L18.394 6.33013ZM17.2798 10.93C17.2798 12.3567 16.8185 13.6964 15.9916 14.7572H15.9872C15.9263 14.8349 15.8349 14.8898 15.7304 14.8898C15.5433 14.8898 15.3909 14.7298 15.3909 14.5331C15.3909 14.4463 15.4258 14.3685 15.4736 14.3045L15.4693 14.3C16.1918 13.3626 16.5965 12.1875 16.5965 10.9346C16.5965 7.9808 14.3072 5.57567 11.4956 5.57567C8.68408 5.57567 6.39478 7.9808 6.39478 10.9346C6.39478 12.823 7.31311 14.5377 8.84946 15.5162C8.85381 15.5208 8.85817 15.5254 8.86252 15.5254C9.58065 16.0101 10.0072 16.824 10.0159 17.7202H13.3671C14.0243 17.7202 14.5553 18.278 14.5553 18.9685C14.5553 19.3205 14.416 19.636 14.1984 19.8601C14.4204 20.0887 14.5553 20.4042 14.5553 20.7517C14.5553 21.4422 14.0243 22 13.3671 22H9.62852C8.97133 22 8.44035 21.4422 8.44035 20.7517C8.44035 20.3996 8.57962 20.0841 8.79724 19.8601C8.57527 19.6315 8.44035 19.316 8.44035 18.9685C8.44035 18.3832 8.82335 17.8939 9.34127 17.7613V17.743C9.34127 17.08 9.0192 16.4719 8.48387 16.1198C6.75166 15.0041 5.72017 13.07 5.72017 10.9392C5.72017 7.59214 8.31413 4.86694 11.5 4.86694C14.6859 4.86694 17.2798 7.57842 17.2798 10.93ZM13.3715 20.2167C13.6544 20.2167 13.8807 20.4545 13.8807 20.7517C13.8807 21.0489 13.65 21.2867 13.3715 21.2867H9.62852C9.34562 21.2867 9.1193 21.0489 9.1193 20.7517C9.1193 20.4545 9.34562 20.2167 9.62852 20.2167H13.3715ZM9.62852 18.4289C9.34562 18.4289 9.1193 18.6667 9.1193 18.9639C9.1193 19.2611 9.34562 19.4989 9.62852 19.4989H13.3715C13.6544 19.4989 13.8807 19.2611 13.8807 18.9639C13.8807 18.6667 13.6544 18.4289 13.3715 18.4289H9.62852ZM13.8807 16.2844C13.8807 15.8912 14.1854 15.5711 14.5597 15.5711C14.9339 15.5711 15.2386 15.8912 15.2386 16.2844C15.2386 16.6776 14.9339 16.9977 14.5597 16.9977C14.1854 16.9977 13.8807 16.6776 13.8807 16.2844Z" fill="#000033"/>
</svg>
