<svg width="24" height="24" viewBox="0 0 24 24" fill="none" xmlns="http://www.w3.org/2000/svg">
<path fill-rule="evenodd" clip-rule="evenodd" d="M22 10.4122C22 11.1 21.6136 11.6895 21.0549 12.003C21.4134 12.3351 21.6369 12.8077 21.6462 13.3223C21.6462 14.3329 20.8268 15.1517 19.8259 15.1517H19.8166C20.0447 15.4558 20.189 15.8348 20.189 16.2465C20.189 17.2571 19.3696 18.0758 18.3687 18.0758H18.3594C18.5875 18.38 18.7318 18.7589 18.7318 19.1706C18.7318 20.1812 17.9125 21 16.9115 21H10.7291C9.95158 21 9.17412 20.6865 8.6527 20.1625C8.27095 19.7789 7.67505 19.5403 7.09311 19.5403H4.90968C4.7095 19.5403 4.54655 19.3765 4.54655 19.1753C4.54655 18.9741 4.7095 18.8104 4.90968 18.8104H7.09311C7.87058 18.8104 8.64804 19.1239 9.16946 19.6479C9.55121 20.0315 10.1471 20.2701 10.7291 20.2701H16.9115C17.5121 20.2701 18.0009 19.7789 18.0009 19.1753C18.0009 18.5718 17.5121 18.0805 16.9115 18.0805C16.7114 18.0805 16.5484 17.9168 16.5484 17.7156C16.5484 17.5144 16.7114 17.3507 16.9115 17.3507H18.3641C18.9646 17.3507 19.4534 16.8594 19.4534 16.2558C19.4534 15.6523 18.9646 15.161 18.3641 15.161H18.0009C17.8007 15.161 17.6378 14.9973 17.6378 14.7961C17.6378 14.5949 17.8007 14.4312 18.0009 14.4312H19.8166C20.4171 14.4312 20.906 13.9399 20.906 13.3364C20.906 12.7328 20.4171 12.2416 19.8166 12.2416H18.3641C18.1639 12.2416 18.0009 12.0778 18.0009 11.8766C18.0009 11.6754 18.1639 11.5117 18.3641 11.5117H20.1844C20.7849 11.5117 21.2737 11.0204 21.2737 10.4169C21.2737 9.81335 20.7849 9.32209 20.1844 9.32209H12.9125C12.7123 9.32209 12.5493 9.15834 12.5493 8.95715C12.5493 8.75597 12.7123 8.59222 12.9125 8.59222H13.6434C13.6434 8.55479 13.648 8.51736 13.6574 8.47993L14.7328 5.05984V4.02118C14.7328 3.31938 14.1974 2.74391 13.541 2.74391C12.9637 2.74391 12.4842 3.07141 12.3538 3.56735L11.8091 5.75228C11.7905 5.8131 11.7579 5.87392 11.7114 5.92071L7.77281 9.87885C7.42831 10.2204 6.97207 10.4122 6.4879 10.4122H2.72626C2.52607 10.4122 2.36313 10.2485 2.36313 10.0473C2.36313 9.8461 2.52607 9.68234 2.72626 9.68234H6.4879C6.78119 9.68234 7.05587 9.56538 7.26071 9.35952L11.1294 5.47156L11.6508 3.37552C11.8696 2.5474 12.6285 2 13.541 2C14.5978 2 15.459 2.90298 15.459 4.01182V5.10662C15.459 5.14405 15.4497 5.18148 15.4404 5.2189L15.4404 5.21891L14.3836 8.58286H20.1797C21.1853 8.58286 22 9.4063 22 10.4122ZM2.72626 19.9099C3.12663 19.9099 3.45251 19.5824 3.45251 19.18C3.45251 18.7776 3.12663 18.4501 2.72626 18.4501C2.32588 18.4501 2 18.7776 2 19.18C2 19.5824 2.32588 19.9099 2.72626 19.9099Z" fill="#000033"/>
</svg>
