<svg xmlns="http://www.w3.org/2000/svg" width="24" height="24" fill="none"><path fill="#003" d="M4.182 6.886A2.19 2.19 0 0 1 2 4.693C2 3.482 2.977 2.5 4.182 2.5c1.206 0 2.183.982 2.183 2.193a2.188 2.188 0 0 1-2.183 2.193ZM2 12.002a2.19 2.19 0 0 0 2.182 2.193 2.188 2.188 0 0 0 2.183-2.193A2.188 2.188 0 0 0 4.182 9.81 2.188 2.188 0 0 0 2 12.002Zm.73 0a1.451 1.451 0 1 1 2.904 0c0 .805-.651 1.46-1.452 1.46-.8 0-1.451-.655-1.451-1.46ZM4.183 21.5A2.19 2.19 0 0 1 2 19.307c0-1.211.977-2.193 2.182-2.193 1.206 0 2.183.982 2.183 2.193A2.188 2.188 0 0 1 4.182 21.5Zm-1.451-2.193c0 .804.651 1.459 1.451 1.459s1.452-.655 1.452-1.46c0-.803-.647-1.458-1.452-1.458-.8 0-1.451.655-1.451 1.459Zm0-14.614c0 .805.651 1.46 1.451 1.46s1.452-.655 1.452-1.46c0-.804-.647-1.459-1.452-1.459-.8 0-1.451.655-1.451 1.46ZM22 4.328a.364.364 0 0 0-.363-.364H7.821a.364.364 0 0 0 0 .73h13.816c.2.004.363-.16.363-.366Zm-.363 7.31a.364.364 0 0 1 0 .73H7.821a.364.364 0 0 1 0-.73h13.816Zm-2.182 8.038a.364.364 0 0 0-.363-.364H7.822a.364.364 0 0 0 0 .729h11.27c.2 0 .363-.164.363-.365Zm1.814.73a.729.729 0 0 1-.725-.73.726.726 0 1 1 1.451 0c0 .402-.325.73-.726.73Z"/></svg>