<svg width="24" height="24" viewBox="0 0 24 24" fill="none" xmlns="http://www.w3.org/2000/svg">
<path fill-rule="evenodd" clip-rule="evenodd" d="M4.18241 7.38641C2.98185 7.38641 2 6.40438 2 5.19321C2 3.98203 2.9772 3 4.18241 3C5.38762 3 6.36482 3.98203 6.36482 5.19321C6.36482 6.40438 5.38762 7.38641 4.18241 7.38641ZM2 12.5023C2 13.7135 2.98185 14.6955 4.18241 14.6955C5.38762 14.6955 6.36482 13.7135 6.36482 12.5023C6.36482 11.2912 5.38762 10.3091 4.18241 10.3091C2.9772 10.3091 2 11.2912 2 12.5023ZM2.73057 12.5023C2.73057 11.698 3.38204 11.0433 4.18241 11.0433C4.98744 11.0433 5.6389 11.698 5.63425 12.5023C5.63425 13.3067 4.98278 13.9614 4.18241 13.9614C3.38204 13.9614 2.73057 13.3067 2.73057 12.5023ZM4.18241 22C2.98185 22 2 21.018 2 19.8068C2 18.5956 2.9772 17.6136 4.18241 17.6136C5.38762 17.6136 6.36482 18.5956 6.36482 19.8068C6.36482 21.018 5.38762 22 4.18241 22ZM2.73057 19.8068C2.73057 19.0025 3.38204 18.3478 4.18241 18.3478C4.98744 18.3478 5.63425 19.0025 5.63425 19.8068C5.63425 20.6111 4.98278 21.2658 4.18241 21.2658C3.38204 21.2658 2.73057 20.6111 2.73057 19.8068ZM2.73057 5.19321C2.73057 4.38888 3.38204 3.73419 4.18241 3.73419C4.98744 3.73419 5.63425 4.38888 5.63425 5.19321C5.63425 5.99754 4.98278 6.65223 4.18241 6.65223C3.38204 6.65223 2.73057 5.99754 2.73057 5.19321ZM22 4.82845C22 4.62737 21.8371 4.4637 21.637 4.4637H7.82131C7.62122 4.4637 7.45835 4.62737 7.45835 4.82845C7.45835 5.02953 7.62122 5.19321 7.82131 5.19321H21.637C21.8371 5.19788 22 5.03421 22 4.82845ZM21.637 12.1376C21.8371 12.1376 22 12.3013 22 12.5023C22 12.7034 21.8371 12.8671 21.637 12.8671H7.82131C7.62122 12.8671 7.45835 12.7034 7.45835 12.5023C7.45835 12.3013 7.62122 12.1376 7.82131 12.1376H21.637ZM19.4546 20.1762C19.4546 19.9751 19.2918 19.8115 19.0917 19.8115H7.82131C7.62122 19.8115 7.45835 19.9751 7.45835 20.1762C7.45835 20.3773 7.62122 20.541 7.82131 20.541H19.0917C19.2918 20.541 19.4546 20.3773 19.4546 20.1762ZM21.2694 20.9057C20.8692 20.9057 20.5435 20.5784 20.5435 20.1762C20.5435 19.7694 20.8692 19.4467 21.2694 19.4467C21.6696 19.4467 21.9953 19.7741 21.9953 20.1762C21.9953 20.5784 21.6696 20.9057 21.2694 20.9057Z" fill="#000033"/>
</svg>
