<svg width="24" height="24" viewBox="0 0 24 24" fill="none" xmlns="http://www.w3.org/2000/svg">
<path fill-rule="evenodd" clip-rule="evenodd" d="M18.3006 9.856H17.9608V7.712C17.957 4.572 15.5053 2 12.5038 2C10.5944 2 8.78436 3.072 7.82968 4.784C7.72657 4.964 7.79531 5.18 7.93278 5.284C8.10463 5.392 8.31084 5.32 8.41013 5.176C9.26552 3.64 10.835 2.712 12.5038 2.712C15.1311 2.712 17.2772 4.964 17.2772 7.712V9.856H6.70315C5.74847 9.856 5 10.64 5 11.64V20.216C5 21.216 5.74847 22 6.70315 22H18.2968C19.2515 22 20 21.216 20 20.216V11.644C20.0038 10.644 19.2553 9.856 18.3006 9.856ZM19.3241 20.216C19.3241 20.824 18.8811 21.288 18.3006 21.288H6.70315C6.12271 21.288 5.67973 20.824 5.67973 20.216V11.644C5.67973 11.036 6.12271 10.572 6.70315 10.572H18.2968C18.8773 10.572 19.3202 11.036 19.3202 11.644V20.216H19.3241ZM7.38671 7.712C7.76422 7.712 8.07026 7.39144 8.07026 6.996C8.07026 6.60056 7.76422 6.28 7.38671 6.28C7.00919 6.28 6.70315 6.60056 6.70315 6.996C6.70315 7.39144 7.00919 7.712 7.38671 7.712Z" fill="#000033"/>
</svg>
