<svg width="24" height="24" viewBox="0 0 24 24" fill="none" xmlns="http://www.w3.org/2000/svg">
<path fill-rule="evenodd" clip-rule="evenodd" d="M20.952 15.7271C20.952 15.9202 21.108 16.0771 21.3 16.0771C21.492 16.0771 21.648 15.9202 21.648 15.7271V12.5216C21.648 10.5749 20.132 9.05864 17.856 8.53577C18.868 7.92041 19.548 6.79826 19.548 5.52329C19.548 4.95216 19.412 4.40919 19.168 3.93057L21.388 3.33129C21.576 3.28302 21.684 3.08997 21.636 2.90093C21.588 2.7119 21.396 2.6033 21.208 2.65157L18.768 3.30715C18.128 2.5108 17.148 2 16.052 2C14.124 2 12.552 3.57663 12.552 5.51926C12.552 6.79424 13.232 7.91638 14.248 8.53175C13.424 8.72079 12.68 9.04255 12.08 9.48095C11.924 9.59356 11.888 9.81478 12 9.97163C12.112 10.1285 12.332 10.1647 12.488 10.0521C13.384 9.40051 14.652 9.03853 16.052 9.03853C18.892 9.03853 20.952 10.5025 20.952 12.5176V15.7271ZM16.052 2.70787C16.812 2.70787 17.504 3.01757 18.012 3.51228L13.356 4.76715C13.688 3.58065 14.768 2.70787 16.052 2.70787ZM18.476 4.1196L13.252 5.52329C13.252 7.07578 14.508 8.3387 16.052 8.3387C17.596 8.3387 18.852 7.07578 18.852 5.52329C18.852 5.01249 18.716 4.53387 18.476 4.1196ZM11.156 7.63082C11.156 8.9058 10.476 10.0279 9.464 10.6433C11.736 11.1662 13.252 12.6744 13.244 14.605V20.6501C13.244 20.8431 13.088 21 12.896 21C12.704 21 12.548 20.8431 12.548 20.6501V14.605C12.548 12.602 10.488 11.1501 7.648 11.1501C6.24 11.1501 4.972 11.5121 4.076 12.1636C3.212 12.7951 2.752 13.6397 2.752 14.605V20.4731C2.752 20.6662 2.596 20.823 2.404 20.823C2.212 20.823 2.056 20.6662 2.056 20.4731V14.605C2.056 12.6704 3.572 11.1622 5.848 10.6433C4.984 10.1164 4.364 9.22354 4.2 8.18184C3.992 8.25826 3.792 8.29848 3.596 8.29848C3.456 8.29848 3.316 8.27837 3.184 8.23815C2.52 8.03705 2.232 7.40559 2.22 7.37743L2 6.88273H2.54C2.64 6.88273 2.716 6.86262 2.748 6.82642C2.78 6.7862 2.788 6.7138 2.784 6.6776L2.78 6.64945L2.784 6.63336V4.37299C2.784 3.41575 3.564 2.63548 4.516 2.63548C5.468 2.63548 6.244 3.41575 6.244 4.37299V4.41321C6.676 4.22015 7.152 4.11156 7.656 4.11156C9.588 4.11156 11.156 5.69221 11.156 7.63082ZM3.128 7.42168C3.2 7.48201 3.288 7.53429 3.392 7.56647C3.612 7.63082 3.872 7.58256 4.164 7.4257C4.228 6.36791 4.752 5.4348 5.544 4.8315V4.37299C5.544 3.80186 5.084 3.33933 4.516 3.33933C3.948 3.33933 3.488 3.80186 3.488 4.37299V6.6213C3.496 6.72185 3.5 7.03556 3.28 7.28895C3.24 7.33319 3.192 7.37743 3.128 7.42168ZM7.656 4.81943C8.476 4.81943 9.212 5.17337 9.724 5.74047L8.916 5.94158L8.896 5.9456C6.804 6.59716 5.732 7.87214 5.184 8.95809C4.972 8.56393 4.852 8.10944 4.852 7.63082C4.856 6.08235 6.112 4.81943 7.656 4.81943ZM9.096 6.6213C7.02 7.26884 6.084 8.59208 5.66 9.60563C6.168 10.1245 6.876 10.4503 7.652 10.4503C9.196 10.4503 10.452 9.18734 10.452 7.63484C10.452 7.17633 10.344 6.74196 10.148 6.35986L9.096 6.6213ZM21.3 18.5385C21.6866 18.5385 22 18.2234 22 17.8347C22 17.4459 21.6866 17.1308 21.3 17.1308C20.9134 17.1308 20.6 17.4459 20.6 17.8347C20.6 18.2234 20.9134 18.5385 21.3 18.5385Z" fill="#000033"/>
</svg>
