<svg xmlns="http://www.w3.org/2000/svg" width="24" height="24" fill="none"><path fill="#003" d="M22 7.573v6.65c0 1.518-.992 2.843-2.41 3.221a.356.356 0 0 1-.433-.264.37.37 0 0 1 .256-.45c1.101-.293 1.874-1.324 1.874-2.507v-6.65c0-1.897-1.38-3.326-3.214-3.326H5.927c-1.833 0-3.214 1.429-3.214 3.326v5.912c0 1.897 1.38 3.326 3.214 3.326.196 0 .356.165.356.369v2.062l2.25-2.327a.355.355 0 0 1 .251-.109h6.427c.197 0 .357.165.357.369s-.16.369-.357.369h-6.28L6.177 20.39a.35.35 0 0 1-.388.08.37.37 0 0 1-.22-.34v-2.606C3.513 17.35 2 15.67 2 13.475V7.564C2 5.245 3.687 3.5 5.927 3.5h12.142C20.309 3.505 22 5.255 22 7.573m-4.645 8.869a.727.727 0 0 0-.713.738c0 .406.32.737.713.737a.727.727 0 0 0 .714-.738.727.727 0 0 0-.714-.737m-1.886-4.068c0 .203-.16.369-.356.369a.36.36 0 0 1-.357-.37v-2.128l-1.11 2.294c-.124.25-.522.25-.64 0l-1.112-2.294v2.129c0 .203-.16.369-.356.369a.363.363 0 0 1-.357-.37V8.68c0-.17.114-.321.274-.359a.356.356 0 0 1 .403.194l1.467 3.037 1.468-3.037a.36.36 0 0 1 .402-.194c.16.038.274.19.274.36zm1.111-.473q.232.104.553.104c.197 0 .65-.057.65-.601 0-.246-.174-.36-.6-.577l-.054-.028-.01-.006c-.4-.208-1.06-.554-1.06-1.272 0-.71.585-1.22 1.39-1.22.105 0 .37.01.653.09a.37.37 0 0 1 .247.454.36.36 0 0 1-.439.255 1.8 1.8 0 0 0-.461-.061c-.339 0-.677.151-.677.482 0 .223.26.398.677.615l.063.033c.42.217.988.511.988 1.235 0 .785-.558 1.334-1.362 1.334-.316 0-.585-.052-.837-.16a.37.37 0 0 1-.187-.483.35.35 0 0 1 .466-.194"/><path fill="#003" d="M10.112 12.743a.363.363 0 0 0 .357-.37V8.68a.37.37 0 0 0-.274-.36.36.36 0 0 0-.403.195L8.325 11.55 6.858 8.514a.356.356 0 0 0-.403-.194.37.37 0 0 0-.274.36v3.694c0 .203.16.368.357.368a.363.363 0 0 0 .356-.369v-2.128l1.11 2.294c.12.25.518.25.641 0l1.11-2.294v2.129a.36.36 0 0 0 .357.368"/></svg>