<svg width="24" height="24" fill="none" xmlns="http://www.w3.org/2000/svg"><path fill-rule="evenodd" clip-rule="evenodd" d="M18.996 5.875a.195.195 0 0 1 .004.048c0 .016 0 .032-.004.048v12.814c0 1.775-1.46 3.215-3.25 3.215H9.25C7.455 22 6 20.556 6 18.785V5.215C6 3.44 7.46 2 9.25 2h6.496c1.795 0 3.25 1.444 3.25 3.215v.66Zm-3.25-3.16H9.25c-1.39 0-2.526 1.12-2.526 2.5v.352h11.548v-.352c0-1.38-1.131-2.5-2.526-2.5Zm.004 18.565h-6.5c-1.395 0-2.526-1.12-2.526-2.5v-.355h7.579c.198 0 .36-.16.36-.356a.359.359 0 0 0-.36-.356h-7.58V6.283h11.55v12.502c.003 1.375-1.133 2.495-2.523 2.495Zm.72-2.495c.4 0 .723-.32.723-.716a.72.72 0 0 0-.724-.716.72.72 0 0 0-.723.716.72.72 0 0 0 .723.716Z" fill="#003"/></svg>