<svg width="24" height="24" fill="none" xmlns="http://www.w3.org/2000/svg"><path d="M14.473 2h5.29c.988 0 1.765.786 1.765 1.787v10.352c0 1-.777 1.787-1.765 1.787h-5.29c-.989 0-1.765-.786-1.765-1.787V7.356h-9.52v11.787h8.816c.212 0 .352.142.352.357s-.14.357-.352.357H3.189v.356c0 .603.455 1.07 1.056 1.07h10.584c.596 0 1.056-.462 1.056-1.07v-2.857c0-.214.14-.356.353-.356.212 0 .352.142.352.357v2.856c0 1-.777 1.787-1.765 1.787H4.245c-.989 0-1.765-.786-1.765-1.787V6.287c0-1 .776-1.787 1.765-1.787h8.463v-.713c0-1 .776-1.787 1.765-1.787Zm6.35 3.218h-7.406v7.5h7.406v-7.5Zm-6.35-2.5c-.6 0-1.056.461-1.056 1.069V4.5h7.402v-.713c0-.603-.456-1.07-1.056-1.07h-5.29ZM3.189 6.287v.357h9.519V5.218H4.245c-.596 0-1.056.461-1.056 1.069Zm16.574 8.926c.6 0 1.056-.462 1.06-1.07v-.713h-7.406v.713c0 .604.455 1.07 1.056 1.07h5.29Zm-5.642 5a.71.71 0 0 1-.704-.713.71.71 0 0 1 .704-.713.71.71 0 0 1 .704.713.71.71 0 0 1-.704.713Z" fill="#003"/></svg>