<svg width="24" height="24" viewBox="0 0 24 24" fill="none" xmlns="http://www.w3.org/2000/svg">
<path fill-rule="evenodd" clip-rule="evenodd" d="M14.5924 2H20.1469C21.1848 2 22 2.82541 22 3.87637V14.7459C22 15.7968 21.1848 16.6223 20.1469 16.6223H14.5924C13.5545 16.6223 12.7393 15.7968 12.7393 14.7459V7.62431H2.74408V20.0007H12C12.2227 20.0007 12.3697 20.1495 12.3697 20.375C12.3697 20.6005 12.2227 20.7493 12 20.7493H2.74408V21.1236C2.74408 21.7571 3.22275 22.2466 3.85308 22.2466H14.9668C15.5924 22.2466 16.0758 21.7619 16.0758 21.1236V18.1243C16.0758 17.8988 16.2227 17.75 16.4455 17.75C16.6682 17.75 16.8152 17.8988 16.8152 18.1243V21.1236C16.8152 22.1746 16 23 14.9621 23H3.85308C2.81517 23 2 22.1746 2 21.1236V6.50137C2 5.45041 2.81517 4.625 3.85308 4.625H12.7393V3.87637C12.7393 2.82541 13.5545 2 14.5924 2ZM21.2607 5.37843H13.4834V13.2534H21.2607V5.37843ZM14.5924 2.75343H20.1469C20.7773 2.75343 21.2559 3.24292 21.2559 3.87637V4.625H13.4834V3.87637C13.4834 3.23812 13.9621 2.75343 14.5924 2.75343ZM2.74408 6.50137V6.87569H12.7393V5.37843H3.85308C3.22749 5.37843 2.74408 5.86312 2.74408 6.50137ZM20.1469 15.8736H14.5924C13.9621 15.8736 13.4834 15.3841 13.4834 14.7507V14.0021H21.2607V14.7507C21.2559 15.3889 20.7773 15.8736 20.1469 15.8736ZM14.2227 21.1236C13.8152 21.1236 13.4834 20.7877 13.4834 20.375C13.4834 19.9623 13.8152 19.6264 14.2227 19.6264C14.6303 19.6264 14.9621 19.9623 14.9621 20.375C14.9621 20.7877 14.6303 21.1236 14.2227 21.1236Z" fill="#000033"/>
</svg>
