<svg width="24" height="24" fill="none" xmlns="http://www.w3.org/2000/svg"><path fill-rule="evenodd" clip-rule="evenodd" d="M22 2.365c0-.22-.144-.365-.363-.365-.22 0-.364.145-.364.365v10.44a3.632 3.632 0 0 0-2.914-1.466c-2.005 0-3.642 1.65-3.642 3.662s1.641 3.662 3.642 3.662c2 0 3.641-1.65 3.641-3.662V2.365Zm-3.641 15.568c-1.606 0-2.915-1.322-2.915-2.932 0-1.61 1.313-2.93 2.915-2.93 1.6 0 2.914 1.32 2.914 2.93s-1.317 2.932-2.914 2.932Zm-.947-14.76c.18-.073.4.072.436.256.035.185-.076.402-.224.474L9.283 6.176v12.162C9.283 20.35 7.642 22 5.64 22 3.641 22 2 20.35 2 18.338s1.637-3.662 3.641-3.662c1.202 0 2.26.586 2.915 1.466V5.882c0-.18.112-.329.256-.365l8.6-2.345ZM5.606 21.232c-1.606 0-2.915-1.32-2.915-2.931 0-1.61 1.313-2.931 2.915-2.931 1.6 0 2.914 1.32 2.914 2.93 0 1.611-1.31 2.932-2.914 2.932ZM19.52 3.574a.729.729 0 0 0 .727-.73.729.729 0 0 0-.727-.732.729.729 0 0 0-.726.731c0 .404.325.731.726.731Z" fill="#003"/></svg>