<svg width="24" height="24" viewBox="0 0 24 24" fill="none" xmlns="http://www.w3.org/2000/svg">
<path fill-rule="evenodd" clip-rule="evenodd" d="M22 2.36539C22 2.14455 21.8563 2 21.6367 2C21.417 2 21.2733 2.14455 21.2733 2.36539V12.8051C20.6185 11.9257 19.5604 11.3395 18.3586 11.3395C16.3542 11.3395 14.7171 12.9898 14.7171 15.0014C14.7171 17.0131 16.3582 18.6633 18.3586 18.6633C20.359 18.6633 22 17.0131 22 15.0014V2.36539ZM18.3586 17.9325C16.7534 17.9325 15.4438 16.6115 15.4438 15.0014C15.4438 13.3913 16.7574 12.0703 18.3586 12.0703C19.9597 12.0703 21.2733 13.3913 21.2733 15.0014C21.2733 16.6115 19.9557 17.9325 18.3586 17.9325ZM17.4123 3.17246C17.5919 3.10018 17.8115 3.24473 17.8475 3.42943C17.8834 3.61413 17.7716 3.83096 17.6239 3.90323L9.28289 6.17587V18.3381C9.28289 20.3497 7.64184 22 5.64145 22C3.64105 22 2 20.3497 2 18.3381C2 16.3264 3.63705 14.6762 5.64145 14.6762C6.84328 14.6762 7.90138 15.2624 8.5562 16.1417V5.88275C8.5562 5.70207 8.668 5.5535 8.81174 5.51737L17.4123 3.17246ZM5.60551 21.2331C4.0004 21.2331 2.69076 19.9121 2.69076 18.3019C2.69076 16.6918 4.00439 15.3708 5.60551 15.3708C7.20663 15.3708 8.52026 16.6918 8.52026 18.3019C8.52026 19.9121 7.21062 21.2331 5.60551 21.2331ZM19.5205 3.57398C19.9218 3.57398 20.2472 3.2468 20.2472 2.8432C20.2472 2.43961 19.9218 2.11243 19.5205 2.11243C19.1191 2.11243 18.7938 2.43961 18.7938 2.8432C18.7938 3.2468 19.1191 3.57398 19.5205 3.57398Z" fill="#000033"/>
</svg>
