<svg width="24" height="24" fill="none" xmlns="http://www.w3.org/2000/svg"><path d="M15.53 15.182V2.372a.378.378 0 0 0-.175-.322.336.336 0 0 0-.353 0l-7.51 4.59c-.012.007-.02.017-.03.026a.076.076 0 0 1-.02.02l-4.36-4.575a.335.335 0 0 0-.497 0 .38.38 0 0 0 0 .522l12.242 12.853v5.5l-9.171-5.6a.333.333 0 0 0-.177-.052H3.184V8.668h2.294a.378.378 0 0 0 .177-.047l.555-.337a.387.387 0 0 0 .131-.507.35.35 0 0 0-.483-.138l-.47.285H2.832a.362.362 0 0 0-.352.37v7.405c0 .204.158.37.352.37h2.552l9.618 5.874a.34.34 0 0 0 .352.005.378.378 0 0 0 .177-.323v-5.404l3.454 3.627a.344.344 0 0 0 .249.109c.09 0 .18-.038.248-.11a.376.376 0 0 0 0-.52l-3.951-4.145ZM7.945 7.218l6.882-4.201v11.426L7.944 7.218ZM20.824 22c.387 0 .704-.332.704-.74 0-.407-.316-.74-.705-.74-.388 0-.704.333-.704.74 0 .408.316.74.704.74Z" fill="#003"/></svg>