<svg xmlns="http://www.w3.org/2000/svg" width="24" height="24" fill="none"><path fill="#003" d="M5.592 21.256h12.822c.202 0 .37.17.37.374s-.164.37-.365.37H4.86V2h13.92v15.184c0 .203-.164.37-.366.37a.368.368 0 0 1-.366-.37v-7.78H5.592v11.852Zm0-16.293v3.702h12.456V4.963H5.592ZM18.048 2.74H5.592v1.479h12.456v-1.48Z"/><path fill="#003" d="M18.414 20.142a.736.736 0 0 0 .732-.74.736.736 0 0 0-.732-.74.736.736 0 0 0-.732.74c0 .409.328.74.732.74ZM6.694 10.888v3.703h4.029v-3.703h-4.03Zm.727 2.963v-2.223h2.565v2.223H7.421ZM12.186 12.367h4.399c.202 0 .366.166.366.37s-.164.37-.366.37h-4.4a.368.368 0 0 1-.365-.37c0-.204.164-.37.366-.37ZM10.718 19.777H6.689v-3.703h4.029v3.703Zm-.732-2.963H7.421v2.223h2.565v-2.223ZM12.186 17.553h4.399c.202 0 .366.166.366.37s-.164.37-.366.37h-4.4a.368.368 0 0 1-.365-.37c0-.204.164-.37.366-.37Z"/></svg>