<svg width="24" height="24" fill="none" xmlns="http://www.w3.org/2000/svg"><path fill-rule="evenodd" clip-rule="evenodd" d="m14.24 18.403-1.914 3.405a.373.373 0 0 1-.652 0L9.76 18.403l-3.55 1.628a.364.364 0 0 1-.373-.038.373.373 0 0 1-.154-.346l.451-3.885-3.828-.774a.374.374 0 0 1-.201-.62l2.643-2.876L2.1 8.616a.374.374 0 0 1-.081-.37.384.384 0 0 1 .283-.25l3.827-.773-.45-3.885a.378.378 0 0 1 .527-.385l3.55 1.628 1.913-3.405c.134-.235.518-.235.652 0l1.914 3.405 3.55-1.628a.372.372 0 0 1 .378.039c.11.077.168.211.154.346l-.451 3.885 3.828.773a.374.374 0 0 1 .201.62l-2.643 2.876 2.648 2.886c.09.101.125.24.081.37a.384.384 0 0 1-.283.25l-1.841.37a.375.375 0 0 1-.15-.735l1.19-.24-2.427-2.642a.372.372 0 0 1 0-.508L20.897 8.6l-3.51-.706a.376.376 0 0 1-.298-.413l.413-3.563-3.257 1.493a.379.379 0 0 1-.485-.158L12 2.127l-1.755 3.117a.374.374 0 0 1-.485.159L6.503 3.909l.413 3.564a.373.373 0 0 1-.298.413l-3.51.705 2.426 2.642a.372.372 0 0 1 0 .509l-2.427 2.641 3.511.706a.376.376 0 0 1 .298.413l-.413 3.564 3.257-1.494a.379.379 0 0 1 .485.159L12 20.857l1.755-3.122a.374.374 0 0 1 .485-.158l3.257 1.493-.135-1.162a.377.377 0 0 1 .749-.086l.21 1.825a.378.378 0 0 1-.532.384l-3.55-1.628Zm4.13-2.785a.75.75 0 0 0-.749-.75.75.75 0 0 0 0 1.499.75.75 0 0 0 .749-.75Z" fill="#003"/></svg>