<svg xmlns="http://www.w3.org/2000/svg" width="24" height="24" fill="none"><path fill="#003" d="m14.137 18.574-1.823 3.243a.355.355 0 0 1-.621 0l-1.822-3.243-3.38 1.55a.35.35 0 0 1-.357-.036.36.36 0 0 1-.146-.33l.43-3.7-3.646-.736a.356.356 0 0 1-.192-.59l2.517-2.74-2.522-2.74a.36.36 0 0 1-.077-.351.37.37 0 0 1 .27-.238l3.645-.737-.43-3.7a.36.36 0 0 1 .503-.366l3.38 1.55 1.823-3.242c.127-.224.493-.224.62 0l1.824 3.243 3.38-1.55a.35.35 0 0 1 .36.036c.106.073.16.201.147.33l-.43 3.7 3.646.736a.356.356 0 0 1 .192.59l-2.517 2.74 2.521 2.748a.36.36 0 0 1 .078.353.37.37 0 0 1-.27.237l-1.754.353a.357.357 0 0 1-.141-.7l1.133-.229-2.312-2.515a.354.354 0 0 1 0-.485l2.311-2.516-3.343-.672a.36.36 0 0 1-.284-.394l.393-3.393-3.101 1.422a.36.36 0 0 1-.462-.15l-1.676-2.978-1.672 2.968a.356.356 0 0 1-.461.151L6.769 4.771l.393 3.393a.355.355 0 0 1-.284.394l-3.343.672 2.311 2.516a.354.354 0 0 1 0 .484l-2.311 2.516 3.343.672c.183.037.307.21.284.394l-.393 3.393 3.102-1.422a.36.36 0 0 1 .46.15l1.673 2.978 1.672-2.972a.356.356 0 0 1 .461-.151l3.102 1.422-.128-1.107a.36.36 0 0 1 .712-.082l.201 1.738a.36.36 0 0 1-.507.366zm3.933-2.653a.714.714 0 0 0-.712-.713.714.714 0 0 0 0 1.427c.392 0 .712-.32.712-.714"/></svg>