<svg width="24" height="24" viewBox="0 0 24 24" fill="none" xmlns="http://www.w3.org/2000/svg">
<path fill-rule="evenodd" clip-rule="evenodd" d="M19.2522 12.4922L21.895 9.61552C21.9861 9.51466 22.0197 9.37539 21.9765 9.24573C21.9334 9.11606 21.8279 9.02001 21.6936 8.996L17.866 8.2228L18.3169 4.3376C18.3313 4.20313 18.2737 4.06866 18.1634 3.99182C18.0531 3.91018 17.9092 3.89578 17.7845 3.9534L14.2351 5.58144L12.3214 2.17649C12.1871 1.94117 11.8033 1.94117 11.669 2.17649L9.75528 5.58144L6.20593 3.9534C6.08122 3.89578 5.93733 3.91018 5.83181 3.99182C5.72149 4.07347 5.66394 4.20313 5.67833 4.3376L6.12919 8.2228L2.30165 8.996C2.16735 9.02481 2.06183 9.12086 2.01866 9.24573C1.97549 9.37539 2.00907 9.51466 2.1002 9.61552L4.74782 12.4922L2.105 15.3689C2.01387 15.4697 1.98029 15.609 2.02346 15.7387C2.06663 15.8683 2.17215 15.9644 2.30645 15.9884L6.13399 16.7616L5.68312 20.6468C5.66873 20.7813 5.72629 20.9157 5.83661 20.9926C5.94693 21.0742 6.09082 21.0886 6.21073 21.031L9.76007 19.403L11.6738 22.8079C11.741 22.928 11.8657 23 12 23C12.1343 23 12.259 22.928 12.3262 22.8079L14.2399 19.403L17.7893 21.031C17.914 21.0886 18.0579 21.0742 18.1682 20.9926C18.2785 20.9109 18.3361 20.7813 18.3217 20.6468L18.1106 18.8219C18.0866 18.6153 17.9044 18.4665 17.6933 18.4905C17.4871 18.5145 17.3384 18.7018 17.3624 18.9083L17.4967 20.0705L14.2399 18.5769C14.0625 18.4953 13.8514 18.5625 13.7555 18.7354L12 21.857L10.2445 18.7306C10.1486 18.5625 9.93754 18.4905 9.76007 18.5721L6.50331 20.0657L6.9158 16.5023C6.93978 16.3102 6.81028 16.1277 6.61842 16.0892L3.10745 15.3833L5.53443 12.7419C5.66873 12.5978 5.66873 12.3769 5.53443 12.2329L3.10745 9.5915L6.61842 8.88554C6.81028 8.84712 6.93978 8.66943 6.9158 8.47253L6.50331 4.9091L9.76007 6.40266C9.93754 6.48431 10.1486 6.41707 10.2445 6.24418L12 3.12738L13.7603 6.25379C13.8562 6.42187 14.0673 6.49391 14.2447 6.41227L17.5015 4.9187L17.089 8.48213C17.065 8.67423 17.1945 8.85673 17.3864 8.89515L20.8973 9.60111L18.4704 12.2425C18.3361 12.3865 18.3361 12.6075 18.4704 12.7515L20.8973 15.3929L19.7078 15.633C19.5064 15.6762 19.3721 15.8731 19.4153 16.0748C19.4584 16.2765 19.6551 16.411 19.8565 16.3678L21.6983 15.998C21.8326 15.9692 21.9382 15.8731 21.9813 15.7483C22.0245 15.6186 21.9909 15.4793 21.8998 15.3785L19.2522 12.4922ZM17.6214 15.8683C18.0339 15.8683 18.3696 16.2045 18.3696 16.6175C18.3696 17.0305 18.0339 17.3667 17.6214 17.3667C17.2089 17.3667 16.8732 17.0305 16.8732 16.6175C16.8732 16.2045 17.2089 15.8683 17.6214 15.8683ZM9.28523 16.0556C9.28523 15.8491 9.4531 15.681 9.65935 15.681C10.0766 15.681 10.4076 15.3497 10.4076 14.9319V13.0541H10.0335C9.82722 13.0541 9.65935 12.886 9.65935 12.6795C9.65935 12.473 9.82722 12.3049 10.0335 12.3049H10.4076V10.6144C10.4076 9.47624 11.3333 8.54937 12.47 8.54937C12.9401 8.54937 13.4006 8.71265 13.7651 9.01041C13.9282 9.14007 13.9521 9.37539 13.8226 9.53868C13.6931 9.70196 13.4533 9.72597 13.295 9.59631C13.06 9.40421 12.7722 9.30336 12.47 9.30336C11.7506 9.30336 11.1606 9.88926 11.1606 10.6144V12.3049H13.036C13.2423 12.3049 13.4101 12.473 13.4101 12.6795C13.4101 12.886 13.2423 13.0541 13.036 13.0541H11.1606V14.9319C11.1606 15.2056 11.0887 15.4601 10.9592 15.681H14.3454C14.5517 15.681 14.7196 15.8491 14.7196 16.0556C14.7196 16.2621 14.5517 16.4302 14.3454 16.4302H9.65935C9.4531 16.4302 9.28523 16.2621 9.28523 16.0556Z" fill="#000033"/>
</svg>
