<svg xmlns="http://www.w3.org/2000/svg" width="24" height="24" fill="none"><path fill="#003" d="M19.8 21.994a.456.456 0 0 0 .446-.464c0-.256-.2-.465-.445-.465h-8.919V14.09H5.527v6.976H4.19V2.93h15.164v13.023c0 .256.2.465.446.465a.456.456 0 0 0 .445-.465V2.464c0-.256-.2-.464-.445-.464H3.745a.456.456 0 0 0-.445.464V22h3.123v-6.976h3.569v6.97H19.8Zm-.89-3.256c0-.512.4-.928.89-.928.497 0 .891.416.891.928s-.4.929-.89.929c-.491 0-.891-.417-.891-.929Zm-6.246-4.649h5.355v3.72h-5.355v-3.72Zm4.459 2.792v-1.857h-3.569v1.857h3.569ZM5.527 8.976v-3.72h5.355v3.72H5.527Zm4.459-.928V6.19H6.417v1.857h3.569Zm8.033.928h-5.355v-3.72h5.355v3.72ZM13.56 6.185v1.857h3.569V6.185H13.56Z"/></svg>