<svg xmlns="http://www.w3.org/2000/svg" width="24" height="24" fill="none"><path fill="#003" d="M20.383 6.342a1.623 1.623 0 0 0-1.451 2.328l-4.782 4.832-1.388-1.402 6.934-7.008c.211.102.445.162.692.162.888 0 1.612-.731 1.612-1.63a1.62 1.62 0 0 0-1.617-1.62 1.623 1.623 0 0 0-1.451 2.329l-6.93 7.003-1.387-1.403L15.4 5.097c.211.101.445.161.692.161.889 0 1.612-.73 1.612-1.629 0-.898-.724-1.629-1.612-1.629a1.623 1.623 0 0 0-1.452 2.328L9.854 9.165l-.146-.148a1.365 1.365 0 0 0-1.946 0L2 14.863 9.685 22l5.358-5.628a1.405 1.405 0 0 0 0-1.967l-.132-.135 4.785-4.837c.211.102.445.162.692.162.888 0 1.612-.73 1.612-1.629 0-.898-.728-1.624-1.617-1.624m0-3.254a.54.54 0 0 1 .536.541.54.54 0 0 1-.536.542.542.542 0 0 1 0-1.083m-3.755.541a.54.54 0 0 1-.536.542.54.54 0 0 1-.536-.542.54.54 0 0 1 .536-.541.54.54 0 0 1 .536.541M9.62 19.977l-5.556-5.16 4.672-4.74 5.253 5.313zM19.848 7.971c0-.296.242-.542.535-.542a.542.542 0 0 1 0 1.083.54.54 0 0 1-.535-.541"/></svg>