<svg width="24" height="24" fill="none" xmlns="http://www.w3.org/2000/svg"><path d="M16.08 20.856c.203 0 .369.171.369.382 0 .21-.166.38-.375.386H3.854C2.83 21.624 2 20.764 2 19.713V2.91C2 1.855 2.834 1 3.854 1h16.293C21.17 1 22 1.86 22 2.91v16.803c0 .865-.569 1.627-1.389 1.842a.367.367 0 0 1-.45-.273.38.38 0 0 1 .265-.465c.493-.132.835-.581.835-1.104V2.91c0-.63-.498-1.144-1.11-1.144H3.854c-.612 0-1.11.513-1.11 1.144v16.802c0 .63.498 1.143 1.11 1.143h12.225ZM18.297 22c.407 0 .74-.342.74-.762a.752.752 0 0 0-.74-.763.752.752 0 0 0-.74.763c0 .42.332.762.74.762Zm-8.889-4.58v-4.965h3.333c2.043 0 3.702-1.71 3.702-3.816 0-2.107-1.659-3.817-3.702-3.817H8.67V17.42c0 .21.166.381.37.381.203 0 .37-.171.37-.381Zm3.333-11.836c1.635 0 2.963 1.369 2.963 3.055 0 1.686-1.328 3.054-2.963 3.054H9.409V5.584h3.333Z" fill="#003"/></svg>