<svg width="24" height="24" viewBox="0 0 24 24" fill="none" xmlns="http://www.w3.org/2000/svg">
<path fill-rule="evenodd" clip-rule="evenodd" d="M16.0792 20.8564C16.283 20.8564 16.4489 21.0275 16.4489 21.2376C16.4489 21.4478 16.283 21.6188 16.0744 21.6237H3.85352C2.82958 21.6237 2 20.7636 2 19.7128V2.91087C2 1.85525 2.83432 1 3.85352 1H20.1465C21.1704 1 22 1.86013 22 2.91087V19.7128C22 20.5778 21.4311 21.3402 20.611 21.5553C20.4119 21.609 20.2128 21.4869 20.1607 21.2816C20.1086 21.0763 20.2271 20.8711 20.4262 20.8173C20.9192 20.6854 21.2605 20.2357 21.2605 19.7128V2.91087C21.2605 2.28043 20.7627 1.76728 20.1512 1.76728H3.85352C3.242 1.76728 2.74425 2.28043 2.74425 2.91087V19.7128C2.74425 20.3433 3.242 20.8564 3.85352 20.8564H16.0792ZM18.2977 22C18.7054 22 19.0372 21.6579 19.0372 21.2376C19.0372 20.8173 18.7054 20.4752 18.2977 20.4752C17.89 20.4752 17.5582 20.8173 17.5582 21.2376C17.5582 21.6579 17.89 22 18.2977 22ZM9.40934 17.4208V12.4554H12.7419C14.785 12.4554 16.4442 10.7449 16.4442 8.63859C16.4442 6.53223 14.785 4.82174 12.7419 4.82174H8.66983V17.4208C8.66983 17.6309 8.83574 17.802 9.03958 17.802C9.24342 17.802 9.40934 17.6309 9.40934 17.4208ZM12.7419 5.58413H9.40934V11.693H12.7419C14.3773 11.693 15.7047 10.3246 15.7047 8.63859C15.7047 6.95253 14.3773 5.58413 12.7419 5.58413Z" fill="#000033"/>
</svg>
