<svg width="24" height="24" fill="none" xmlns="http://www.w3.org/2000/svg"><path fill-rule="evenodd" clip-rule="evenodd" d="M5.692 21.287h13.43c.195 0 .345.16.345.356a.35.35 0 0 1-.344.357H5V7.211l4.925-5.106.101-.105h9.445v15.36a.35.35 0 0 1-.344.357.35.35 0 0 1-.344-.357V2.718h-8.267v4.996H5.692v13.573ZM9.824 3.22 6.177 7h3.647v-3.78Zm9.99 16.283a.702.702 0 0 1-.687.713.702.702 0 0 1-.688-.713c0-.393.309-.713.688-.713.38 0 .688.315.688.713Zm-8.438-5.362v1.787c0 .402-.305.718-.693.713a.35.35 0 0 0-.344.357.35.35 0 0 0 .344.356h4.313a.35.35 0 0 0 .343-.356.35.35 0 0 0-.343-.357h-3.113c.119-.21.185-.452.185-.713v-1.787h1.724a.35.35 0 0 0 .344-.357.35.35 0 0 0-.344-.356h-1.724v-1.61c0-.685.538-1.248 1.204-1.248.282 0 .542.096.758.28a.34.34 0 0 0 .485-.056.365.365 0 0 0-.053-.502 1.848 1.848 0 0 0-1.19-.44c-1.045 0-1.896.883-1.896 1.966v1.61h-.344a.35.35 0 0 0-.344.356.35.35 0 0 0 .344.357h.344Z" fill="#003"/></svg>