<svg width="24" height="24" fill="none" xmlns="http://www.w3.org/2000/svg"><path d="M16.154 2.052a3.315 3.315 0 0 1 4.845 0c1.335 1.402 1.335 3.684 0 5.086l-9.572 10.05a.365.365 0 0 1-.257.11.349.349 0 0 1-.256-.11.392.392 0 0 1 0-.535l8.597-9.019-3.826-4.016L4.458 15.407l4.082 4.282a.404.404 0 0 1 .092.366.378.378 0 0 1-.257.27l-5.922 1.662a.352.352 0 0 1-.349-.097.404.404 0 0 1-.092-.366l1.587-6.218V15.3a.306.306 0 0 1 .008-.02.291.291 0 0 0 .009-.022v-.004a.152.152 0 0 1 .016-.038s.004-.004.004-.008a.074.074 0 0 0 .01-.015l.01-.015.008-.008a.204.204 0 0 1 .028-.034L16.154 2.052ZM4.133 16.139 2.87 21.086l4.71-1.326-3.448-3.62Zm16.356-9.536c1.055-1.107 1.055-2.91 0-4.017a2.618 2.618 0 0 0-3.825 0l-.465.489 3.825 4.016.465-.488Z" fill="#003"/><path d="M9.727 19.196c.398 0 .721-.34.721-.758s-.323-.758-.721-.758c-.399 0-.722.34-.722.758 0 .419.323.758.722.758Z" fill="#003"/></svg>