<svg width="24" height="24" viewBox="0 0 24 24" fill="none" xmlns="http://www.w3.org/2000/svg">
<path fill-rule="evenodd" clip-rule="evenodd" d="M21.1763 14.98C21.0564 14.808 20.8285 14.776 20.6565 14.892C20.4846 15.012 20.4526 15.24 20.5686 15.412C21.0124 16.044 21.2483 16.78 21.2483 17.556C21.2483 18.576 20.8365 19.5 20.1647 20.172C20.1088 19.436 19.597 18.836 18.8133 18.528C19.1691 18.188 19.389 17.72 19.389 17.192C19.389 16.172 18.5534 15.336 17.5338 15.336C16.5142 15.336 15.6785 16.172 15.6785 17.192C15.6785 17.72 15.9064 18.196 16.2623 18.536C15.4866 18.844 14.9828 19.452 14.9348 20.196C14.2551 19.524 13.8353 18.592 13.8353 17.564C13.8353 15.524 15.4946 13.864 17.5338 13.864C17.7377 13.864 17.9056 13.704 17.9056 13.492C17.9056 13.28 17.7457 13.12 17.5338 13.12C17.2659 13.12 16.998 13.144 16.7421 13.192C16.7376 13.183 16.7356 13.174 16.7334 13.1636C16.7316 13.1555 16.7296 13.1465 16.7261 13.136L14.8309 9.856C15.8025 9.04 16.4262 7.816 16.4262 6.448C16.4262 3.992 14.435 2 11.98 2C9.54498 2 7.55378 3.992 7.55378 6.444C7.55378 7.812 8.17753 9.036 9.14914 9.852L7.2539 13.132C7.24941 13.141 7.24744 13.15 7.24516 13.1604C7.24338 13.1685 7.24141 13.1775 7.23791 13.188C6.97801 13.14 6.71811 13.116 6.44622 13.116C3.9912 13.108 2 15.1 2 17.556C2 20.012 3.9912 22 6.44622 22C8.76929 22 10.6805 20.204 10.8725 17.928H13.1315C13.3155 20.204 15.2267 22 17.5578 22C20.0088 22 22 20.008 22 17.556C21.992 16.624 21.7121 15.732 21.1763 14.98ZM10.8884 6.072C10.8884 5.456 11.3922 4.964 11.996 4.964C12.6038 4.964 13.1036 5.468 13.1036 6.072C13.1036 6.676 12.6118 7.18 11.996 7.18C11.3802 7.18 10.8884 6.688 10.8884 6.072ZM11.996 10.156C12.6837 10.156 13.3315 9.96 13.8832 9.628V9.2C13.8832 8.464 13.0876 7.928 11.996 7.928C10.9164 7.928 10.1327 8.464 10.1327 9.2V9.644C10.6765 9.968 11.3163 10.156 11.996 10.156ZM8.29748 6.444C8.29748 4.404 9.95682 2.744 11.996 2.744C14.0352 2.744 15.6945 4.404 15.6945 6.444C15.6945 7.464 15.2827 8.388 14.611 9.06C14.555 8.324 14.0432 7.724 13.2595 7.416C13.6154 7.076 13.8353 6.608 13.8353 6.08C13.8353 5.06 12.9996 4.224 11.98 4.224C10.9604 4.224 10.1248 5.06 10.1248 6.08C10.1248 6.608 10.3527 7.084 10.7085 7.424C9.94882 7.724 9.44502 8.332 9.39704 9.076C8.72131 8.404 8.29748 7.472 8.29748 6.444ZM12 10.892C11.1803 10.892 10.4126 10.664 9.7569 10.276L7.96561 13.384C9.56098 13.956 10.7285 15.424 10.8725 17.18H13.1315C13.2795 15.432 14.443 13.968 16.0384 13.384L14.2431 10.276C13.5794 10.664 12.8157 10.892 12 10.892ZM4.57497 20.752V20.308C4.57497 19.572 5.35866 19.036 6.43822 19.036C7.52979 19.036 8.32547 19.572 8.32547 20.308V20.736C7.77369 21.068 7.12595 21.264 6.43822 21.264C5.76649 21.264 5.12675 21.068 4.57497 20.752ZM6.44222 16.076C5.83846 16.076 5.33467 16.568 5.33467 17.184C5.33467 17.796 5.83846 18.292 6.44222 18.292C7.04598 18.292 7.54978 17.788 7.54978 17.184C7.54978 16.58 7.04598 16.076 6.44222 16.076ZM9.06917 20.172C9.01319 19.436 8.5014 18.836 7.71771 18.528C8.07357 18.188 8.29348 17.72 8.29348 17.192C8.29348 16.172 7.45782 15.336 6.43822 15.336C5.41863 15.336 4.59096 16.16 4.59096 17.184C4.59096 17.712 4.81887 18.188 5.17473 18.528C4.39904 18.836 3.89524 19.444 3.84726 20.188C3.16753 19.516 2.7477 18.584 2.7477 17.556C2.7477 15.516 4.40704 13.856 6.44622 13.856C8.48541 13.856 10.1447 15.516 10.1447 17.556C10.1447 18.576 9.73291 19.496 9.06917 20.172ZM17.5498 16.076C16.946 16.076 16.4422 16.568 16.4422 17.184C16.4422 17.796 16.946 18.292 17.5498 18.292C18.1535 18.292 18.6573 17.788 18.6573 17.184C18.6573 16.58 18.1535 16.076 17.5498 16.076ZM15.6905 20.752V20.308C15.6905 19.572 16.4742 19.036 17.5538 19.036C18.6453 19.036 19.441 19.572 19.441 20.308V20.736C18.8892 21.068 18.2415 21.264 17.5538 21.264C16.8701 21.264 16.2303 21.068 15.6905 20.752ZM19.405 14.592C19.8114 14.592 20.1407 14.2625 20.1407 13.856C20.1407 13.4495 19.8114 13.12 19.405 13.12C18.9987 13.12 18.6693 13.4495 18.6693 13.856C18.6693 14.2625 18.9987 14.592 19.405 14.592Z" fill="#000033"/>
</svg>
