<svg width="24" height="24" fill="none" xmlns="http://www.w3.org/2000/svg"><path fill-rule="evenodd" clip-rule="evenodd" d="M8.786 17.626H2V3h20v14.626h-6.786l.714 2.89c0 .11 0 .258-.073.335a.319.319 0 0 1-.284.149H8.356c-.105 0-.21-.072-.284-.149-.073-.11-.11-.225-.073-.336l.787-2.89Zm6.328 2.625-.608-2.625H9.503l-.676 2.625h6.287ZM21.29 3.754v13.123H2.718v-2.251h14.645c.215 0 .357-.15.357-.375s-.142-.374-.357-.374H2.718V3.754H21.29Zm-1.07 10.497c0 .413-.32.749-.713.749-.393 0-.713-.336-.713-.749s.32-.749.713-.749c.393 0 .713.336.713.75Z" fill="#003"/></svg>