<svg width="24" height="24" fill="none" xmlns="http://www.w3.org/2000/svg"><path d="m8.662 5.295.735-.423-.735-.422a.382.382 0 0 1-.137-.514c.1-.177.327-.24.507-.139l.745.427v-.85c0-.206.166-.374.37-.374.203 0 .37.168.37.374v.855l.744-.427a.375.375 0 0 1 .507.14c.1.177.038.407-.137.513l-.735.422.735.423c.175.1.237.331.137.514a.37.37 0 0 1-.322.187.38.38 0 0 1-.185-.048l-.745-.428v.855a.373.373 0 0 1-.37.375.373.373 0 0 1-.37-.375v-.855l-.744.428a.375.375 0 0 1-.507-.14.39.39 0 0 1 .137-.518Zm2.594 14.207a.745.745 0 0 0-.74.749c0 .413.332.749.74.749s.74-.336.74-.749a.745.745 0 0 0-.74-.749Zm.35-9.535a1.46 1.46 0 0 1 .76-.216c.815 0 1.484.672 1.47 1.502v4.504c0 .235-.057.576-.18.807l-.968 1.983a.367.367 0 0 1-.332.206.4.4 0 0 1-.166-.038.381.381 0 0 1-.166-.505l.977-1.997c.057-.105.1-.307.1-.46v-4.504a.745.745 0 0 0-.74-.75.745.745 0 0 0-.74.75v1.498a.373.373 0 0 1-.37.374.373.373 0 0 1-.37-.374v-2.622a.745.745 0 0 0-.74-.749.745.745 0 0 0-.739.75v1.497a.373.373 0 0 1-.37.375.373.373 0 0 1-.37-.375V9.751a.745.745 0 0 0-.74-.75.745.745 0 0 0-.74.75v1.872a.373.373 0 0 1-.37.375.373.373 0 0 1-.369-.375V5.622a.745.745 0 0 0-.74-.75.745.745 0 0 0-.74.75v9.367a.373.373 0 0 1-.37.374.373.373 0 0 1-.37-.374v-2.622a.745.745 0 0 0-.739-.749.745.745 0 0 0-.74.75v3.75c0 .158.043.35.105.45l2.062 3.486a.378.378 0 0 1-.128.514.377.377 0 0 1-.19.053.379.379 0 0 1-.317-.183l-2.063-3.485A1.75 1.75 0 0 1 2 16.117v-3.75a1.49 1.49 0 0 1 1.48-1.498c.27 0 .521.077.74.207v-5.46A1.49 1.49 0 0 1 5.698 4.12a1.49 1.49 0 0 1 1.479 1.498V8.45a1.49 1.49 0 0 1 .74-.206c.54 0 1.01.302 1.27.74a1.46 1.46 0 0 1 .954-.36c.763 0 1.384.59 1.465 1.344Zm5.34-6.03a.369.369 0 0 0-.507-.14l-.745.427v-.85a.373.373 0 0 0-.37-.374.373.373 0 0 0-.37.374v.855l-.744-.427a.374.374 0 0 0-.507.14.385.385 0 0 0 .137.513l.735.422-.735.423a.378.378 0 0 0-.137.514.37.37 0 0 0 .322.187.38.38 0 0 0 .185-.048l.745-.428v.855c0 .207.166.375.37.375.203 0 .37-.168.37-.375v-.855l.744.428a.375.375 0 0 0 .507-.14.385.385 0 0 0-.137-.513l-.735-.423.735-.422a.384.384 0 0 0 .137-.519Zm4.13.935.735.423a.387.387 0 0 1 .142.514.375.375 0 0 1-.507.139l-.744-.427v.854a.373.373 0 0 1-.37.375.373.373 0 0 1-.37-.375v-.854l-.744.427a.38.38 0 0 1-.185.048.37.37 0 0 1-.323-.187.378.378 0 0 1 .138-.514l.735-.423-.74-.417a.385.385 0 0 1-.138-.514.375.375 0 0 1 .508-.14l.744.428v-.855c0-.206.166-.374.37-.374s.37.168.37.374v.85l.744-.427a.366.366 0 0 1 .508.14.378.378 0 0 1-.138.513l-.735.422Z" fill="#003"/></svg>