<svg xmlns="http://www.w3.org/2000/svg" width="24" height="24" fill="none"><path fill="#003" d="m9.2 5.038-.439.261a.576.576 0 0 0-.203.77.537.537 0 0 0 .738.209l.452-.266v.527c0 .309.24.556.54.556s.54-.247.54-.556v-.527l.451.266a.54.54 0 0 0 .738-.21.57.57 0 0 0-.203-.76l-.438-.26.438-.262a.564.564 0 0 0 .203-.76.53.53 0 0 0-.738-.209l-.452.266v-.527a.546.546 0 0 0-.54-.556c-.299 0-.539.247-.539.556v.518l-.452-.266a.535.535 0 0 0-.738.209.57.57 0 0 0 .203.76zm2.767 4.532c.156-.043.313-.076.484-.076.996 0 1.803.831 1.785 1.853v4.456c0 .27-.06.67-.222.979l-2.029 3.833a.713.713 0 0 1-.978.295.757.757 0 0 1-.286-1.007l2.03-3.834a.9.9 0 0 0 .046-.266v-4.456a.366.366 0 0 0-.36-.37.366.366 0 0 0-.36.37v1.482a.73.73 0 0 1-.72.741.73.73 0 0 1-.719-.741v-2.594a.366.366 0 0 0-.36-.37.366.366 0 0 0-.36.37v1.482a.73.73 0 0 1-.719.741.73.73 0 0 1-.72-.74V9.864a.366.366 0 0 0-.359-.37.366.366 0 0 0-.36.37v1.852a.73.73 0 0 1-.72.741.73.73 0 0 1-.719-.74V5.778a.366.366 0 0 0-.36-.37.366.366 0 0 0-.359.37v9.283a.73.73 0 0 1-.72.74.73.73 0 0 1-.719-.74v-2.594a.366.366 0 0 0-.36-.37.366.366 0 0 0-.36.37v3.71c0 .095.033.214.051.252l2.007 3.449a.755.755 0 0 1-.25 1.016.713.713 0 0 1-.987-.256L2.259 17.19A2.1 2.1 0 0 1 2 16.173v-3.71c0-1.026.812-1.857 1.803-1.857q.188.001.36.038V5.779c0-1.026.807-1.857 1.803-1.857.997 0 1.804.836 1.804 1.857v2.266q.173-.037.36-.038c.52 0 .986.233 1.314.599.253-.143.535-.228.844-.228.765 0 1.416.498 1.679 1.192m5.096-5.549a.535.535 0 0 0-.738-.209l-.452.266v-.522a.546.546 0 0 0-.54-.556c-.3 0-.54.247-.54.556v.527l-.451-.266a.53.53 0 0 0-.738.21.564.564 0 0 0 .203.76l.438.26-.438.262a.57.57 0 0 0-.203.76.537.537 0 0 0 .738.209l.452-.266v.527c0 .309.24.556.54.556s.539-.247.539-.556v-.527l.452.266a.54.54 0 0 0 .738-.21.564.564 0 0 0-.203-.76l-.438-.26.438-.262a.57.57 0 0 0 .203-.765m4.225 1.017.438.261c.262.152.35.49.203.77a.537.537 0 0 1-.738.209l-.452-.266v.527c0 .309-.24.556-.54.556s-.54-.247-.54-.556v-.527l-.451.266a.54.54 0 0 1-.738-.21.57.57 0 0 1 .203-.76l.438-.26-.439-.262a.564.564 0 0 1-.202-.76.53.53 0 0 1 .738-.209l.452.266v-.527c0-.309.24-.556.54-.556.299 0 .539.247.539.556v.518l.452-.266a.535.535 0 0 1 .738.209.57.57 0 0 1-.203.76z"/></svg>