<svg width="24" height="24" viewBox="0 0 24 24" fill="none" xmlns="http://www.w3.org/2000/svg">
<path fill-rule="evenodd" clip-rule="evenodd" d="M11.998 2C6.4991 2 2 6.5 2 12C2 17.5 6.4991 22 11.998 22C13.8896 22 15.7493 21.464 17.3169 20.464C17.4969 20.356 17.5329 20.14 17.4249 19.964C17.3169 19.784 17.101 19.748 16.925 19.856C15.4613 20.784 13.7457 21.284 11.962 21.284C6.89102 21.284 2.71586 17.108 2.71586 12C2.71586 6.892 6.89102 2.716 11.998 2.716C17.105 2.716 21.2841 6.892 21.2841 12C21.2841 13.752 20.7842 15.464 19.8564 16.964C19.7484 17.144 19.7844 17.36 19.9644 17.464C20.1444 17.568 20.3603 17.536 20.4643 17.356C21.4641 15.748 22 13.892 22 12C21.996 6.5 17.4969 2 11.998 2ZM19.4965 18.784C19.4965 19.1794 19.176 19.5 18.7806 19.5C18.3853 19.5 18.0648 19.1794 18.0648 18.784C18.0648 18.3886 18.3853 18.068 18.7806 18.068C19.176 18.068 19.4965 18.3886 19.4965 18.784ZM9.25055 15.212C9.25055 15 9.39052 14.856 9.60648 14.856C10.0344 14.856 10.3903 14.5 10.3543 14.036V12.144H9.63847C9.42651 12.144 9.28254 12.004 9.28254 11.788C9.28254 11.576 9.42252 11.432 9.63847 11.432H10.3583V9.648C10.3583 8.508 11.1782 7.684 12.3219 7.684C12.8938 7.684 13.2897 7.824 13.6457 8.148C13.7896 8.292 13.8256 8.504 13.6817 8.648C13.5377 8.792 13.3257 8.828 13.1818 8.684C12.9658 8.504 12.7538 8.432 12.3579 8.432C11.6061 8.432 11.1062 8.932 11.1062 9.684V11.468H12.8898C13.1018 11.468 13.2458 11.608 13.2458 11.824C13.2458 12.036 13.1058 12.18 12.8898 12.18H11.1062V14.072C11.1062 14.356 11.0342 14.64 10.8902 14.856H14.3175C14.5295 14.856 14.6735 14.996 14.6735 15.212C14.6735 15.424 14.5335 15.568 14.3175 15.568H9.60648C9.39452 15.568 9.25055 15.428 9.25055 15.212Z" fill="#000033"/>
</svg>
