<svg width="24" height="24" viewBox="0 0 24 24" fill="none" xmlns="http://www.w3.org/2000/svg">
<path fill-rule="evenodd" clip-rule="evenodd" d="M12.0021 13.1518C11.7576 13.1518 11.5945 12.9844 11.5945 12.7333V1.41842C11.5945 1.16737 11.7576 1 12.0021 1C12.2467 1 12.4098 1.16737 12.4098 1.41842V12.7333C12.4098 12.9844 12.2467 13.1518 12.0021 13.1518ZM19.3482 19.8553C19.3482 20.3174 18.9832 20.6921 18.5329 20.6921C18.0827 20.6921 17.7177 20.3174 17.7177 19.8553C17.7177 19.3931 18.0827 19.0184 18.5329 19.0184C18.9832 19.0184 19.3482 19.3931 19.3482 19.8553ZM20.1249 18.3886C20.0433 18.3886 19.9618 18.3886 19.9189 18.3049C19.7129 18.1816 19.6743 17.9261 19.7988 17.7191C20.6956 16.2084 21.189 14.4907 21.189 12.7333C21.189 8.46106 18.3699 4.69089 14.3278 3.5986C14.1219 3.55896 14.0017 3.34755 14.0403 3.0965C14.079 2.88509 14.3278 2.71772 14.5295 2.8014C18.9363 3.98178 22 8.08669 22 12.7377C22 14.6669 21.4679 16.552 20.4896 18.186C20.4124 18.3049 20.245 18.3886 20.1249 18.3886ZM12.0021 23C6.4926 23 2 18.393 2 12.7333C2 8.08228 5.05943 3.97738 9.42759 2.8014C9.67217 2.76176 9.87385 2.88509 9.95967 3.0965C9.99828 3.30791 9.87814 3.55455 9.67217 3.5986C5.63441 4.68649 2.81528 8.46106 2.81528 12.7333C2.81528 17.9305 6.93885 22.1632 12.0021 22.1632C13.5512 22.1632 15.0616 21.7844 16.3703 21.0312C16.5763 20.9079 16.8166 20.9916 16.941 21.1986C17.0611 21.41 16.9796 21.6567 16.7779 21.7844C15.3062 22.5816 13.6756 23 12.0021 23Z" fill="#000033"/>
</svg>
