<svg width="24" height="24" fill="none" xmlns="http://www.w3.org/2000/svg"><path d="M18 5.922v-.708C18 3.44 16.544 2 14.751 2H8.25C6.456 2 5 3.44 5 5.214v13.572C5 20.56 6.456 22 8.249 22h6.497c1.794 0 3.25-1.44 3.25-3.214V5.931l.002-.004S18 5.925 18 5.922ZM8.249 2.713h6.497c1.396 0 2.528 1.12 2.528 2.5v.353H5.721v-.352c0-1.38 1.132-2.5 2.528-2.5Zm0 18.57c-1.396 0-2.528-1.12-2.528-2.501v-.357h7.584c.198 0 .36-.16.36-.356a.359.359 0 0 0-.36-.357H5.72V6.279h11.553v12.503c0 1.38-1.132 2.5-2.528 2.5H8.25Zm7.944-3.214a.718.718 0 0 1-.72.713.718.718 0 0 1-.722-.713c0-.394.324-.714.721-.714.398 0 .721.32.721.714Zm-2.435-2.501a.36.36 0 0 0 .36-.357.359.359 0 0 0-.36-.356h-3.263c.125-.21.194-.453.194-.713v-1.788h1.807c.199 0 .36-.16.36-.356a.359.359 0 0 0-.36-.357h-1.807v-1.609c0-.686.564-1.248 1.262-1.248.295 0 .568.096.794.279a.367.367 0 0 0 .509-.055.354.354 0 0 0-.056-.503 1.993 1.993 0 0 0-1.247-.439c-1.096 0-1.988.883-1.988 1.966v1.61h-.36c-.199 0-.36.16-.36.356 0 .196.161.356.36.356h.36v1.788a.71.71 0 0 1-.72.713c-.2 0-.361.16-.361.356a.36.36 0 0 0 .36.357h4.516Z" fill="#003"/></svg>