<svg width="24" height="24" viewBox="0 0 24 24" fill="none" xmlns="http://www.w3.org/2000/svg">
<path fill-rule="evenodd" clip-rule="evenodd" d="M12.716 6.65101C12.5 6.65101 12.36 6.50366 12.36 6.28673V3.36428C12.36 3.14326 12.504 3 12.716 3C12.932 3 13.072 3.14735 13.072 3.36428V6.28673C13.072 6.50776 12.928 6.65101 12.716 6.65101ZM12.716 22C12.5 22 12.36 21.8526 12.36 21.6357V18.7133C12.36 18.4922 12.504 18.349 12.716 18.349C12.932 18.349 13.072 18.4963 13.072 18.7133V21.6357C13.072 21.8567 12.928 22 12.716 22ZM15.824 21.0872C15.86 21.2346 16 21.3083 16.144 21.3083C16.18 21.3083 16.216 21.3083 16.288 21.2714C16.468 21.1978 16.54 20.9808 16.468 20.7966L15.36 18.0911C15.288 17.9069 15.076 17.8333 14.896 17.9069C14.716 17.9806 14.644 18.1975 14.716 18.3817L15.824 21.0872ZM19.036 19.3354C18.928 19.3354 18.856 19.2986 18.784 19.2249L16.748 17.1415C16.604 16.9942 16.604 16.7773 16.748 16.6299C16.892 16.4826 17.104 16.4826 17.248 16.6299L19.284 18.7133C19.428 18.8606 19.428 19.0776 19.284 19.2249C19.216 19.2986 19.108 19.3354 19.036 19.3354ZM20.82 16.3352C20.856 16.372 20.928 16.372 20.964 16.372C21.108 16.372 21.252 16.2656 21.284 16.151C21.388 15.9668 21.284 15.7499 21.104 15.6762L18.46 14.5424C18.28 14.436 18.068 14.5424 17.996 14.7266C17.892 14.9108 17.996 15.1277 18.176 15.2014L20.82 16.3352ZM7.108 10.4903C7.072 10.4903 7 10.4903 6.964 10.4535L4.32 9.31969C4.14 9.24602 4.036 9.02908 4.14 8.84489C4.212 8.66071 4.424 8.55429 4.604 8.66071L7.248 9.79449C7.428 9.86816 7.532 10.0851 7.428 10.2693C7.356 10.4166 7.252 10.4903 7.108 10.4903ZM18.788 12.8643H21.644C21.856 12.8643 22 12.721 22 12.5C22 12.2831 21.86 12.1357 21.644 12.1357H18.788C18.576 12.1357 18.432 12.2831 18.432 12.5C18.432 12.7169 18.572 12.8643 18.788 12.8643ZM6.644 12.8643H3.784C3.568 12.8643 3.428 12.7169 3.428 12.5C3.428 12.2831 3.572 12.1357 3.784 12.1357H6.64C6.856 12.1357 6.996 12.2831 6.996 12.5C7 12.721 6.82 12.8643 6.644 12.8643ZM18 10.2693C18.036 10.4166 18.176 10.4903 18.32 10.4903C18.356 10.4903 18.428 10.4903 18.464 10.4535L21.108 9.31969C21.288 9.24601 21.36 9.02908 21.288 8.84489C21.216 8.66071 21.004 8.58703 20.824 8.66071L18.18 9.79449C18 9.86816 17.928 10.0851 18 10.2693ZM4.464 16.372C4.32 16.372 4.18 16.2984 4.144 16.151C4.072 15.9668 4.144 15.7499 4.324 15.6762L6.968 14.5424C7.148 14.4688 7.36 14.5424 7.432 14.7266C7.504 14.9108 7.432 15.1277 7.252 15.2014L4.608 16.3352C4.59194 16.337 4.5687 16.3446 4.5447 16.3523C4.51491 16.362 4.48394 16.372 4.464 16.372ZM16.748 8.3701C16.82 8.44377 16.892 8.48061 17 8.48061C17.108 8.48061 17.18 8.44377 17.248 8.3701L19.284 6.28673C19.428 6.13938 19.428 5.92245 19.284 5.7751C19.14 5.62775 18.928 5.62775 18.784 5.7751L16.748 7.85847C16.604 8.00582 16.604 8.22275 16.748 8.3701ZM6.392 19.3354C6.284 19.3354 6.212 19.2986 6.144 19.2249C6 19.0776 6 18.8606 6.144 18.7133L8.144 16.6667C8.288 16.5194 8.5 16.5194 8.644 16.6667C8.788 16.8141 8.788 17.031 8.644 17.1784L6.644 19.2249C6.572 19.2986 6.5 19.3354 6.392 19.3354ZM14.892 7.08897C14.928 7.12581 15 7.12581 15.036 7.12581C15.18 7.12581 15.32 7.05623 15.356 6.90478L16.464 4.19927C16.568 4.01508 16.464 3.79815 16.284 3.72447C16.072 3.65489 15.892 3.72447 15.82 3.90866L14.712 6.61417C14.608 6.79836 14.712 7.0153 14.892 7.08897ZM9.284 21.3083C9.248 21.3083 9.176 21.3083 9.14 21.2714C8.96 21.1978 8.856 20.9808 8.96 20.7966L10.068 18.0911C10.14 17.9069 10.352 17.8005 10.532 17.9069C10.712 17.9806 10.816 18.1975 10.712 18.3817L9.604 21.0872C9.572 21.2346 9.428 21.3083 9.284 21.3083ZM2.716 8.84899C3.11144 8.84899 3.432 8.52097 3.432 8.11633C3.432 7.71169 3.11144 7.38367 2.716 7.38367C2.32056 7.38367 2 7.71169 2 8.11633C2 8.52097 2.32056 8.84899 2.716 8.84899Z" fill="#000033"/>
</svg>
