<svg width="24" height="24" fill="none" xmlns="http://www.w3.org/2000/svg"><path d="M2 12c0 5.5 4.5 10 10 10a10.14 10.14 0 0 0 5.356-1.536c.18-.108.216-.32.108-.5s-.32-.216-.5-.108A9.43 9.43 0 0 1 12 21.284c-5.108 0-9.284-4.176-9.284-9.284 0-5.108 4.18-9.284 9.284-9.284 5.104 0 9.284 4.176 9.284 9.248 0 1.784-.5 3.5-1.428 4.964-.108.18-.072.392.108.5.18.108.392.072.5-.108A9.925 9.925 0 0 0 22 12c0-5.5-4.5-10-10-10S2 6.5 2 12Z" fill="#003"/><path d="M18.784 19.5a.716.716 0 1 0 0-1.432.716.716 0 0 0 0 1.432Zm-6.248-2.68a.536.536 0 1 1-1.072 0 .536.536 0 0 1 1.072 0Zm-.892-2.32c0 .212.14.356.356.356.216 0 .356-.14.352-.352 0-.892.356-1.748.928-2.392l1.036-1.036c.86-.824.716-2.324.108-3.144a2.866 2.866 0 0 0-2.248-1.108h-.18c-.964 0-1.856.5-2.32 1.32-.072.18-.036.392.144.5.18.072.392.036.5-.144.36-.608 1-.964 1.68-.964h.18c.68 0 1.324.32 1.716.856.428.572.5 1.68-.036 2.216l-1.036 1.036a4.041 4.041 0 0 0-1.18 2.856Z" fill="#003"/></svg>