<svg width="24" height="24" viewBox="0 0 24 24" fill="none" xmlns="http://www.w3.org/2000/svg">
<path fill-rule="evenodd" clip-rule="evenodd" d="M2 12C2 17.5 6.5 22 12 22C13.892 22 15.752 21.464 17.356 20.464C17.536 20.356 17.572 20.144 17.464 19.964C17.356 19.784 17.144 19.748 16.964 19.856C15.464 20.784 13.752 21.284 12 21.284C6.892 21.284 2.716 17.108 2.716 12C2.716 6.892 6.896 2.716 12 2.716C17.104 2.716 21.284 6.892 21.284 11.964C21.284 13.748 20.784 15.464 19.856 16.928C19.748 17.108 19.784 17.32 19.964 17.428C20.144 17.536 20.356 17.5 20.464 17.32C21.464 15.752 22 13.892 22 12C22 6.5 17.5 2 12 2C6.5 2 2 6.5 2 12ZM18.784 19.5C19.1794 19.5 19.5 19.1794 19.5 18.784C19.5 18.3886 19.1794 18.068 18.784 18.068C18.3886 18.068 18.068 18.3886 18.068 18.784C18.068 19.1794 18.3886 19.5 18.784 19.5ZM12.536 16.82C12.536 17.116 12.296 17.356 12 17.356C11.704 17.356 11.464 17.116 11.464 16.82C11.464 16.524 11.704 16.284 12 16.284C12.296 16.284 12.536 16.524 12.536 16.82ZM11.644 14.5C11.644 14.712 11.784 14.856 12 14.856C12.216 14.856 12.356 14.716 12.352 14.504C12.352 13.612 12.708 12.756 13.28 12.112L14.316 11.076C15.176 10.252 15.032 8.752 14.424 7.932C13.892 7.252 13.068 6.824 12.176 6.824H11.996C11.032 6.824 10.14 7.324 9.676 8.144C9.604 8.324 9.64 8.536 9.82 8.644C10 8.716 10.212 8.68 10.32 8.5C10.68 7.892 11.32 7.536 12 7.536H12.18C12.86 7.536 13.504 7.856 13.896 8.392C14.324 8.964 14.396 10.072 13.86 10.608L12.824 11.644C12.072 12.392 11.644 13.428 11.644 14.5Z" fill="#000033"/>
</svg>
