<svg width="24" height="24" viewBox="0 0 24 24" fill="none" xmlns="http://www.w3.org/2000/svg">
<path fill-rule="evenodd" clip-rule="evenodd" d="M21.6916 18.7053C21.8902 18.6715 22.0241 18.4831 21.9964 18.2754C21.9687 18.0676 21.7839 17.9227 21.5853 17.9565L19.4332 18.2802C20.8048 16.5072 21.553 14.314 21.553 12C21.553 6.48792 17.2672 2 11.9931 2C10.1781 2 8.41387 2.5314 6.88982 3.54589C6.72356 3.657 6.67276 3.89372 6.77898 4.06763C6.8852 4.24155 7.10688 4.29469 7.27776 4.18357C8.68635 3.24638 10.3212 2.75362 11.9977 2.75362C16.87 2.75362 20.8372 6.90338 20.8372 12C20.8372 14.2077 20.0982 16.2947 18.7497 17.9614L18.4033 15.4589C18.371 15.256 18.1909 15.1111 17.9923 15.1401C17.7937 15.1739 17.6598 15.3623 17.6875 15.57L18.1909 19.2319L21.6916 18.7053ZM15.9602 8.22705V7.4686C15.9602 6.42995 15.152 5.57971 14.1545 5.57971H9.82246C8.82952 5.57971 8.01669 6.42512 8.01669 7.4686V8.22222V16.5217C8.01669 17.5604 8.8249 18.4106 9.82246 18.4106H14.1545C15.1474 18.4106 15.9602 17.5652 15.9602 16.5217V8.22705ZM15.2398 7.4686C15.2398 6.84541 14.7548 6.33816 14.1591 6.33816H9.82708C9.23131 6.33816 8.74639 6.84541 8.74639 7.4686V7.84541H15.2398V7.4686ZM15.2398 16.5314C15.2398 17.1546 14.7548 17.6618 14.1591 17.6618H9.82708C9.23131 17.6618 8.74639 17.1546 8.74639 16.5314V16.1546H15.2398V16.5314ZM8.74639 15.3961V8.60386H15.2398V15.3961H8.74639ZM17.4058 20.3043C17.4058 20.7198 17.0825 21.058 16.6853 21.058C16.2881 21.058 15.9648 20.7198 15.9648 20.3043C15.9648 19.8889 16.2881 19.5507 16.6853 19.5507C17.0825 19.5507 17.4058 19.8841 17.4058 20.3043ZM14.8703 21.5411C15.0596 21.4783 15.1659 21.2657 15.1058 21.0676C15.0458 20.8696 14.8426 20.7585 14.6532 20.8213C13.7942 21.1014 12.9029 21.2464 11.9931 21.2464C7.12074 21.2464 3.15359 17.0966 3.15359 12C3.15359 9.78744 3.89252 7.69565 5.25493 6.02899L5.6013 8.5314C5.6244 8.71981 5.78142 8.85507 5.95692 8.85507H5.95692C5.97077 8.85507 5.98925 8.85507 6.00772 8.85024C6.20631 8.82126 6.34024 8.63285 6.31253 8.42512L5.80913 4.76328L2.30844 5.28986C2.10985 5.31884 1.97592 5.50725 2.00363 5.71498C2.03134 5.92271 2.21607 6.0628 2.41004 6.03382L4.56218 5.71014C3.1813 7.48309 2.43313 9.68116 2.43313 12C2.43313 17.5121 6.71894 22 11.9931 22C12.9768 22 13.942 21.8454 14.8703 21.5411Z" fill="#000033"/>
</svg>
