<svg width="24" height="24" viewBox="0 0 24 24" fill="none" xmlns="http://www.w3.org/2000/svg">
<path fill-rule="evenodd" clip-rule="evenodd" d="M13.2291 12.3589H14.9626V19.1429C14.9626 19.3394 15.1177 19.4994 15.3084 19.4994C15.499 19.4994 15.6542 19.3394 15.6542 19.1429V2.35657C15.6542 2.16 15.499 2 15.3084 2C13.9695 2 12.8833 3.12 12.8833 4.50057V12.0023C12.8833 12.1989 13.0384 12.3589 13.2291 12.3589ZM11.1542 8.432V3.07429C11.1542 2.87771 10.9946 2.71771 10.8039 2.71771C10.6133 2.71771 10.4581 2.87771 10.4581 3.07429V8.432C10.4581 9.01714 9.99704 9.49714 9.42956 9.50171V3.07429C9.42956 2.87771 9.27438 2.71771 9.08374 2.71771C8.8931 2.71771 8.73793 2.87771 8.73793 3.07429V9.50171H8.72906C8.15714 9.50171 7.69163 9.02171 7.69163 8.432V3.07429C7.69163 2.87771 7.53645 2.71771 7.34581 2.71771C7.15517 2.71771 7 2.87771 7 3.07429V8.42743C7 9.41486 7.7803 10.2149 8.7335 10.2149H8.74236V21.6434C8.74236 21.84 8.89754 22 9.08818 22C9.27882 22 9.43399 21.84 9.43399 21.6434V10.2149C10.3828 10.2103 11.1542 9.41486 11.1542 8.432ZM14.9626 11.6457V2.75429C14.1734 2.91886 13.5793 3.64114 13.5793 4.50514V11.6457H14.9626ZM14.6167 21.2869C14.6167 20.8937 14.9271 20.5737 15.3084 20.5737C15.6941 20.5737 16 20.8937 16 21.2869C16 21.68 15.6897 22 15.3084 22C14.9271 22 14.6167 21.68 14.6167 21.2869Z" fill="#000033"/>
</svg>
