<svg width="24" height="24" viewBox="0 0 24 24" fill="none" xmlns="http://www.w3.org/2000/svg">
<path fill-rule="evenodd" clip-rule="evenodd" d="M2 12C2 17.5165 6.48812 22 12 22C13.8921 22 15.734 21.4653 17.3336 20.4552C17.4982 20.3501 17.5484 20.1261 17.4433 19.9616C17.3382 19.7971 17.1188 19.7468 16.9497 19.8519C15.4689 20.7888 13.755 21.2824 12 21.2824C6.88117 21.2824 2.71755 17.1188 2.71755 12C2.71755 6.88117 6.88117 2.71755 12 2.71755C17.1188 2.71755 21.2824 6.88117 21.287 11.9954C21.287 13.7505 20.7934 15.4644 19.8565 16.9452C19.7514 17.1143 19.8016 17.3336 19.9662 17.4388C20.1353 17.5439 20.3547 17.4936 20.4598 17.3291C21.4653 15.734 22 13.8921 22 12C22 6.48812 17.5119 2 12 2C6.48812 2 2 6.48355 2 12ZM18.787 18.0695C19.1801 18.0695 19.5 18.3894 19.5 18.7824C19.5 19.1801 19.1801 19.4954 18.787 19.4954C18.394 19.4954 18.074 19.1755 18.074 18.7824C18.074 18.3894 18.394 18.0695 18.787 18.0695ZM16.5384 16.8949C16.6801 16.7532 16.6801 16.5293 16.5384 16.3921L12.1508 12.0046L16.5384 7.617C16.6801 7.47532 16.6801 7.25137 16.5384 7.11426C16.3967 6.97715 16.1728 6.97258 16.0356 7.11426L11.3921 11.7486C11.2505 11.8903 11.2505 12.1143 11.3921 12.2514L16.0356 16.8949C16.1042 16.9634 16.1956 17 16.287 17C16.3784 17 16.4653 16.9634 16.5384 16.8949ZM10.4689 16.3921C10.6106 16.5293 10.6106 16.7532 10.4689 16.8949C10.3958 16.9634 10.309 17 10.2176 17C10.1261 17 10.0347 16.9634 9.96618 16.8949L5.32267 12.2514C5.18099 12.1143 5.18099 11.8903 5.32267 11.7486L9.96618 7.11426C10.1033 6.97258 10.3272 6.97715 10.4689 7.11426C10.6106 7.25137 10.6106 7.47532 10.4689 7.617L6.08135 12.0046L10.4689 16.3921Z" fill="#000033"/>
</svg>
