<svg width="24" height="24" fill="none" xmlns="http://www.w3.org/2000/svg"><path d="M21.368 2.11a.363.363 0 0 1 .522 0 .364.364 0 0 1 0 .522l-.863.863a3.518 3.518 0 0 1-.251 4.694l-2.92 2.91a.364.364 0 0 1-.522 0 .364.364 0 0 1 0-.52l2.93-2.917a2.78 2.78 0 0 0 .085-3.835l-.085-.086a2.774 2.774 0 0 0-1.963-.81 2.76 2.76 0 0 0-1.963.81L5.486 14.594l3.92 3.921 4.841-4.85a.368.368 0 0 1 .522 0 .368.368 0 0 1 0 .521l-.346.346 1.322 4.993-2.45 2.451-3.149-3.153-.74.745-4.968-4.97.744-.744-3.148-3.148 2.447-2.451 4.978 1.318 6.353-6.353a3.49 3.49 0 0 1 2.484-1.03c.816 0 1.584.276 2.21.783l.862-.863ZM18.851 7a1.853 1.853 0 1 0-3.708 0 1.853 1.853 0 0 0 3.708 0ZM17 8.113a1.11 1.11 0 0 1-1.109-1.11 1.11 1.11 0 0 1 2.219 0A1.11 1.11 0 0 1 17 8.113Zm-3.18 7.022-3.149 3.157 2.622 2.632 1.627-1.627-1.1-4.162ZM3.082 10.706l2.622 2.622 3.148-3.148-4.148-1.1-1.622 1.626Zm2.883 7.852L2.632 21.89a.37.37 0 0 1-.262.11.37.37 0 0 1-.26-.11.364.364 0 0 1 0-.52l3.332-3.334a.363.363 0 0 1 .522 0 .368.368 0 0 1 0 .522Zm-3.855-.892a.364.364 0 0 0 0 .522.37.37 0 0 0 .261.109.37.37 0 0 0 .26-.109l1.48-1.48a.368.368 0 0 0 0-.52.363.363 0 0 0-.522 0L2.11 17.665Zm5.708 2.224a.364.364 0 0 1 0 .522L6.34 21.89a.37.37 0 0 1-.26.109.37.37 0 0 1-.261-.11.364.364 0 0 1 0-.52l1.479-1.48a.363.363 0 0 1 .521 0Zm8.78-6.993a.741.741 0 1 0-1.048-1.048.741.741 0 0 0 1.049 1.048Z" fill="#003"/></svg>