<svg width="24" height="24" viewBox="0 0 24 24" fill="none" xmlns="http://www.w3.org/2000/svg">
<path fill-rule="evenodd" clip-rule="evenodd" d="M21.3683 2.11024C21.5105 1.96325 21.7428 1.96325 21.8898 2.11024C22.0367 2.25247 22.0367 2.4848 21.8898 2.63178L21.0269 3.4947C22.141 4.86967 22.0604 6.90369 20.7756 8.18859L17.8552 11.0997C17.7129 11.2467 17.4759 11.2467 17.3336 11.0997C17.1867 10.9575 17.1867 10.7204 17.3336 10.5782L20.2636 7.6623C21.3161 6.60973 21.3446 4.91235 20.3489 3.82659L20.2636 3.74124C19.7373 3.2197 19.0404 2.93048 18.3008 2.93048C17.5565 2.93048 16.8595 3.2197 16.338 3.74124L5.48584 14.5941L9.40666 18.5151L14.2472 13.6648C14.3895 13.5226 14.6218 13.5178 14.7688 13.6648C14.911 13.807 14.9157 14.0394 14.7688 14.1863L14.4227 14.5324L15.7454 19.525L13.2943 21.9763L10.1463 18.8233L9.40666 19.5677L4.43807 14.5988L5.18241 13.8544L2.03437 10.7062L4.48074 8.25496L9.45881 9.57305L15.8118 3.2197C16.4755 2.55592 17.3574 2.19084 18.2961 2.19084C19.1115 2.19084 19.8796 2.46583 20.5054 2.97315L21.3683 2.11024ZM18.8508 6.99852C18.8508 5.97914 18.0211 5.14467 16.997 5.14467C15.973 5.14467 15.1433 5.9744 15.1433 6.99852C15.1433 8.02264 15.973 8.85237 16.997 8.85237C18.0211 8.85237 18.8508 8.02264 18.8508 6.99852ZM17.0018 8.11272C16.3902 8.11272 15.8924 7.61489 15.8924 7.00326C15.8924 6.39163 16.3902 5.89379 17.0018 5.89379C17.6134 5.89379 18.1112 6.39163 18.1112 7.00326C18.1112 7.61489 17.6134 8.11272 17.0018 8.11272ZM13.8206 15.1346L14.9205 19.2975L13.2943 20.9237L10.6725 18.2923L13.8206 15.1346ZM3.08214 10.7062L5.70392 13.3282L8.85196 10.1799L4.70357 9.07995L3.08214 10.7062ZM5.96468 18.5578L2.63174 21.8909C2.56063 21.9621 2.46581 22 2.37098 22C2.27616 22 2.18134 21.9621 2.11023 21.8909C1.96326 21.744 1.96326 21.5116 2.11023 21.3694L5.44317 18.0363C5.59014 17.8893 5.82245 17.8893 5.96468 18.0363C6.10691 18.1833 6.11165 18.4156 5.96468 18.5578ZM2.11023 17.6664C1.96326 17.8087 1.96326 18.041 2.11023 18.188C2.18134 18.2591 2.27616 18.297 2.37098 18.297C2.46581 18.297 2.56063 18.2591 2.63174 18.188L4.11094 16.7087C4.25791 16.5665 4.25317 16.3341 4.11094 16.1872C3.96871 16.0402 3.7364 16.0402 3.58943 16.1872L2.11023 17.6664ZM7.81842 19.8901C7.96539 20.0371 7.96539 20.2694 7.81842 20.4117L6.33922 21.8909C6.26811 21.9621 6.17328 22 6.07846 22C5.98364 22 5.88882 21.9621 5.81771 21.8909C5.67074 21.744 5.67074 21.5116 5.81771 21.3694L7.29691 19.8901C7.43914 19.7431 7.67145 19.7431 7.81842 19.8901ZM16.5988 12.8967C16.888 12.6075 16.888 12.1381 16.5988 11.8489C16.3096 11.5597 15.8402 11.5597 15.551 11.8489C15.2618 12.1381 15.2618 12.6075 15.551 12.8967C15.8402 13.1859 16.3096 13.1859 16.5988 12.8967Z" fill="#000033"/>
</svg>
