<svg xmlns="http://www.w3.org/2000/svg" width="24" height="24" fill="none"><path fill="#003" d="M4.14 18.069c0 .786.64 1.426 1.426 1.426.786 0 1.426-.64 1.426-1.426 0-.787-.64-1.427-1.426-1.427-.787 0-1.427.64-1.427 1.427Zm2.143 0a.714.714 0 0 1-1.426 0 .714.714 0 0 1 1.426 0Zm9.642-13.034c1.348 0 2.66.576 3.597 1.578a.355.355 0 0 1-.018.502.354.354 0 0 1-.503-.018A4.18 4.18 0 0 0 15.93 5.75c-1.166 0-2.263.48-3.072 1.348a.355.355 0 0 1-.503.018.355.355 0 0 1-.018-.502 4.903 4.903 0 0 1 3.589-1.578Zm-5.733-.077a.355.355 0 0 1-.01-.503A7.903 7.903 0 0 1 15.93 2a7.91 7.91 0 0 1 5.746 2.455.354.354 0 0 1-.009.503.35.35 0 0 1-.247.1.346.346 0 0 1-.256-.11 7.199 7.199 0 0 0-5.23-2.235 7.199 7.199 0 0 0-5.229 2.236.366.366 0 0 1-.512.009ZM22 18.068a3.217 3.217 0 0 1-2.811 3.187.356.356 0 0 1-.398-.311.356.356 0 0 1 .31-.398 2.498 2.498 0 0 0 2.186-2.477c0-1.381-1.12-2.501-2.5-2.501H5.213a2.501 2.501 0 0 0 0 5.001h9.64a.357.357 0 0 1 0 .713h-9.64A3.215 3.215 0 0 1 2 18.07a3.215 3.215 0 0 1 3.214-3.214h10.359V9.497a.357.357 0 0 1 .713 0v5.358h2.5A3.221 3.221 0 0 1 22 18.069Zm-4.288 2.858a.714.714 0 0 1-1.426 0 .714.714 0 0 1 1.426 0Z"/></svg>