<svg xmlns="http://www.w3.org/2000/svg" width="24" height="24" fill="none"><path fill="#003" d="M21.896 21.392c.14.136.14.364-.005.504a.357.357 0 0 1-.503 0l-6.852-6.852A7.43 7.43 0 0 1 9.5 17C5.364 17 2 13.636 2 9.5S5.364 2 9.5 2s7.5 3.364 7.496 7.5c0 .392-.036.788-.108 1.22a.355.355 0 0 1-.412.292.355.355 0 0 1-.292-.412c.068-.388.1-.748.1-1.1A6.79 6.79 0 0 0 9.5 2.716 6.793 6.793 0 0 0 2.716 9.5 6.793 6.793 0 0 0 9.5 16.284a6.73 6.73 0 0 0 4.792-1.996c.14-.14.364-.14.504 0z"/><path fill="#003" d="M15.928 13.432a.716.716 0 1 0 0-1.432.716.716 0 0 0 0 1.432"/></svg>