<svg width="24" height="24" fill="none" xmlns="http://www.w3.org/2000/svg"><path fill-rule="evenodd" clip-rule="evenodd" d="m11.668 15.31-2.51-1.462c.163-.42.25-.873.25-1.348 0-.588-.137-1.147-.374-1.642l6.135-3.104a3.686 3.686 0 0 0 3.127 1.747c2.04 0 3.704-1.684 3.704-3.75C22 3.684 20.337 2 18.296 2c-2.04 0-3.704 1.684-3.704 3.75 0 .471.087.92.24 1.332L8.64 10.219a3.688 3.688 0 0 0-2.936-1.47C3.664 8.75 2 10.434 2 12.5s1.663 3.75 3.704 3.75c1.306 0 2.46-.692 3.119-1.73l2.476 1.44a.363.363 0 0 0 .502-.138.371.371 0 0 0-.133-.512Zm2.924 3.94c0-2.067 1.664-3.751 3.704-3.751S22 17.183 22 19.249C22 21.316 20.337 23 18.296 23c-2.04 0-3.704-1.684-3.704-3.75Zm.743 0c0 1.654 1.327 2.998 2.961 2.998s2.962-1.344 2.962-2.999c0-1.654-1.328-2.998-2.962-2.998-1.634 0-2.961 1.344-2.961 2.998Zm5.923-13.5c0-1.654-1.328-2.998-2.962-2.998-1.634 0-2.961 1.344-2.961 2.999 0 1.654 1.327 2.998 2.961 2.998s2.962-1.344 2.962-2.998ZM5.704 15.5c-1.634 0-2.962-1.344-2.962-2.999S4.07 9.501 5.704 9.501c1.634 0 2.961 1.344 2.961 2.999s-1.327 2.999-2.961 2.999Zm7.777 1.877c.41 0 .742-.336.742-.752a.747.747 0 0 0-.742-.751.747.747 0 0 0-.743.751c0 .416.333.752.743.752Z" fill="#003"/></svg>