<svg width="24" height="24" viewBox="0 0 24 24" fill="none" xmlns="http://www.w3.org/2000/svg">
<path fill-rule="evenodd" clip-rule="evenodd" d="M11.8976 21.9821C11.9317 21.9955 11.9659 22 12 22C12.0341 22 12.0683 21.9955 12.1024 21.9866C16.7434 20.4243 19 18.1478 19 15.0276V6.30988C19 6.11794 18.8507 5.96171 18.6673 5.96171C15.0457 5.96171 12.2602 3.12722 12.2346 3.10043C12.1024 2.96652 11.8934 2.96652 11.7654 3.10043L11.7573 3.1083C11.5883 3.27467 8.85884 5.96171 5.33272 5.96171C5.1493 5.96171 5 6.11794 5 6.30988V15.0231C5 18.1433 7.25655 20.4198 11.8976 21.9821ZM5.66971 15.0276V6.64912C8.82206 6.51521 11.2535 4.51098 12 3.8191C12.7465 4.50652 15.1779 6.51521 18.3303 6.64912V15.0276C18.3303 17.7817 16.2614 19.8306 12 21.2858C7.74284 19.8351 5.66971 17.7862 5.66971 15.0276ZM14.4016 11.7423C14.5296 11.6039 14.5296 11.3852 14.3973 11.2513C14.2651 11.1174 14.0561 11.1174 13.9281 11.2557L10.3321 15.0589L8.40402 13.0412C8.27179 12.9029 8.06277 12.9029 7.9348 13.0412C7.80683 13.1796 7.80256 13.3983 7.9348 13.5322L10.3364 16.0453L14.4016 11.7423ZM15.6642 10.8406C15.2974 10.8406 14.9988 10.5281 14.9988 10.1442C14.9988 9.76037 15.2974 9.4479 15.6642 9.4479C16.0311 9.4479 16.3297 9.76037 16.3297 10.1442C16.3297 10.5281 16.0311 10.8406 15.6642 10.8406Z" fill="#000033"/>
</svg>
