<svg width="24" height="24" fill="none" xmlns="http://www.w3.org/2000/svg"><path d="M20 5.133v9.588c0 2.169-1.078 3.978-3.229 5.374a.33.33 0 0 1-.467-.114.364.364 0 0 1 .11-.49c1.963-1.278 2.918-2.838 2.918-4.77v-3.023H12.84v9.947a.348.348 0 0 1-.34.355c-.105 0-.34-.096-.34-.096C8.774 20.745 5 18.867 5 14.721V5.133h.34c3.827 0 6.802-2.788 6.941-2.92l.005-.004L12.5 2l.214.21.005.004c.14.13 3.114 2.919 6.94 2.919H20Zm-4.773 15.73c0 .391-.306.71-.68.71-.376 0-.681-.319-.681-.71 0-.39.305-.709.68-.709.376 0 .68.318.68.71Zm-9.542-9.16v3.018c0 3.61 3.368 5.347 6.475 6.433v-9.452H5.685ZM12.16 3.24c-1.065.855-3.469 2.478-6.475 2.592v5.155h6.475V3.241Zm.68-.027v7.779h6.484V5.828h.004c-3.04-.114-5.45-1.768-6.488-2.614Z" fill="#003"/></svg>