<svg xmlns="http://www.w3.org/2000/svg" width="24" height="24" fill="none"><path fill="#003" d="M11.89 21.981a.29.29 0 0 0 .108.019.424.424 0 0 0 .108-.014c4.885-1.645 7.26-4.041 7.26-7.325V5.484a.36.36 0 0 0-.35-.366c-3.812 0-6.744-2.984-6.77-3.012a.341.341 0 0 0-.495 0l-.008.008c-.178.175-3.051 3.004-6.763 3.004a.36.36 0 0 0-.35.366v9.172c0 3.284 2.375 5.68 7.26 7.325m-6.555-7.32V5.84c3.318-.14 5.878-2.25 6.663-2.979.786.724 3.346 2.838 6.664 2.98v8.819c0 2.899-2.178 5.055-6.664 6.587-4.48-1.527-6.663-3.684-6.663-6.587m9.191-3.459a.377.377 0 0 0-.004-.517.338.338 0 0 0-.494.005l-3.785 4.004-2.03-2.124a.334.334 0 0 0-.494 0 .377.377 0 0 0 0 .517l2.528 2.645zm1.33-.949c-.387 0-.701-.329-.701-.733 0-.404.314-.733.7-.733.387 0 .701.33.701.733 0 .404-.314.733-.7.733"/></svg>