<svg xmlns="http://www.w3.org/2000/svg" width="24" height="24" fill="none"><path fill="#003" d="M22 7.573v6.65c0 1.518-.992 2.843-2.41 3.221a.356.356 0 0 1-.433-.264.368.368 0 0 1 .256-.45c1.101-.293 1.874-1.324 1.874-2.507v-6.65c0-1.897-1.38-3.326-3.214-3.326H5.927c-1.833 0-3.214 1.429-3.214 3.326v5.912c0 1.897 1.38 3.326 3.214 3.326.196 0 .356.165.356.369v2.062l2.25-2.327a.355.355 0 0 1 .251-.109h6.427c.197 0 .357.165.357.369 0 .203-.16.369-.357.369h-6.28L6.177 20.39a.35.35 0 0 1-.388.08.372.372 0 0 1-.22-.34v-2.606C3.513 17.35 2 15.67 2 13.475V7.564C2 5.245 3.687 3.5 5.927 3.5h12.142C20.309 3.505 22 5.255 22 7.573Zm-4.645 8.869a.727.727 0 0 0-.713.738c0 .406.32.737.713.737a.727.727 0 0 0 .714-.738.727.727 0 0 0-.714-.737Zm-3.213-4.068c0 .203-.16.369-.357.369a.358.358 0 0 1-.356-.37v-2.128l-1.111 2.294c-.124.25-.521.25-.64 0l-1.111-2.294v2.129c0 .203-.16.369-.357.369a.363.363 0 0 1-.356-.37V8.68c0-.17.114-.321.274-.359a.356.356 0 0 1 .402.194l1.468 3.037 1.467-3.037a.358.358 0 0 1 .402-.194c.16.038.275.19.275.36v3.694Zm-6.268-.37a1.32 1.32 0 0 1-.553-.103.35.35 0 0 0-.466.194c-.078.189.009.406.187.482.252.109.521.16.837.16.804 0 1.362-.548 1.362-1.333 0-.724-.569-1.018-.988-1.235l-.063-.033c-.416-.217-.677-.392-.677-.615 0-.33.338-.482.677-.482.06 0 .26.005.461.061a.358.358 0 0 0 .44-.255.368.368 0 0 0-.248-.454 2.513 2.513 0 0 0-.653-.09c-.805 0-1.39.51-1.39 1.22 0 .718.66 1.063 1.06 1.272l.01.006.055.028c.425.217.598.331.598.577 0 .544-.457.6-.649.6Zm7.379-.103c.155.07.338.104.553.104.196 0 .649-.057.649-.601 0-.246-.174-.36-.599-.577l-.055-.028-.01-.006c-.4-.208-1.06-.554-1.06-1.272 0-.71.586-1.22 1.39-1.22.105 0 .37.01.654.09a.368.368 0 0 1 .247.454.358.358 0 0 1-.44.255 1.824 1.824 0 0 0-.46-.061c-.34 0-.677.151-.677.482 0 .223.26.398.676.615l.063.033c.42.217.989.511.989 1.235 0 .785-.558 1.334-1.363 1.334-.315 0-.585-.052-.836-.16a.372.372 0 0 1-.188-.483.35.35 0 0 1 .467-.194Z"/></svg>