<svg width="24" height="24" viewBox="0 0 24 24" fill="none" xmlns="http://www.w3.org/2000/svg">
<path fill-rule="evenodd" clip-rule="evenodd" d="M20.2353 21.2169C20.4461 21.2169 20.6176 21.3926 20.6176 21.6084C20.6176 21.8243 20.4461 22 20.2353 22H16.0196V2H20.6176V16.8996C20.6176 17.1155 20.4461 17.2912 20.2353 17.2912C20.0245 17.2912 19.8529 17.1155 19.8529 16.8996V2.78313H16.7892V21.2169H20.2353ZM20.2353 20.0371C20.6569 20.0371 21 19.6857 21 19.254C21 18.8223 20.6569 18.4709 20.2353 18.4709C19.8137 18.4709 19.4706 18.8223 19.4706 19.254C19.4706 19.6857 19.8137 20.0371 20.2353 20.0371ZM14.1078 8.66667H9.5098V22H14.1078V8.66667ZM13.3382 9.4498H10.2745V21.2169H13.3382V9.4498ZM7.59804 14.5502H3V22H7.59804V14.5502ZM6.82843 15.3333H3.76471V21.2169H6.82843V15.3333Z" fill="#000033"/>
</svg>
