<svg xmlns="http://www.w3.org/2000/svg" width="24" height="24" fill="none"><path fill="#003" d="M20 20.213V3.787C20 2.804 19.22 2 18.26 2H5.74C4.78 2 4 2.804 4 3.787v16.426C4 21.2 4.784 22 5.74 22h12.52c.96 0 1.74-.804 1.74-1.787m-2.435-1.787a.705.705 0 0 0-.695.713c0 .398.312.713.695.713.383 0 .694-.32.694-.713a.705.705 0 0 0-.694-.713M4.699 4.5v-.713c0-.59.467-1.07 1.042-1.07h12.518c.575 0 1.042.48 1.042 1.07V4.5zm-.005.718h14.603v14.995c0 .59-.468 1.07-1.042 1.07H5.736c-.574 0-1.042-.48-1.042-1.07V19.5h10.783c.191 0 .347-.16.347-.357a.353.353 0 0 0-.347-.356H4.694z"/></svg>