<svg xmlns="http://www.w3.org/2000/svg" width="24" height="24" fill="none"><path fill="#003" d="m20.574 3.926 1.322-1.323a.35.35 0 0 0 0-.499.357.357 0 0 0-.504 0L20.07 3.426h-9.387c-.485 0-.943.19-1.285.532L2.532 10.82c-.342.342-.532.8-.532 1.285 0 .486.19.943.532 1.286l8.077 8.073c.356.356.819.536 1.281.536.449 0 .897-.166 1.253-.504a.373.373 0 0 0 .014-.527.37.37 0 0 0-.527-.014 1.066 1.066 0 0 1-1.494-.018l-8.073-8.074a1.06 1.06 0 0 1-.314-.758c0-.287.111-.555.314-.758L9.925 4.48c.199-.2.476-.315.758-.315h8.647l-1.905 1.905a.353.353 0 0 0 .25.606c.087 0 .18-.032.25-.102l1.904-1.905v8.642c0 .287-.11.555-.314.758l-3.824 3.824a.37.37 0 0 0 0 .527.37.37 0 0 0 .527 0l3.824-3.824c.342-.342.532-.8.532-1.285zm-6.876 15.762a.722.722 0 0 1 1.443 0 .722.722 0 0 1-1.443 0m3.07-7.042c-2.658 0-4.517 1.785-4.517 4.337a.361.361 0 0 1-.721 0c0-2.552-1.86-4.337-4.518-4.337a.361.361 0 0 1 0-.721c2.534 0 4.518-2.062 4.518-4.698a.361.361 0 0 1 .72 0c0 2.631 1.984 4.698 4.518 4.698a.361.361 0 0 1 0 .721M11.89 9.243a5.2 5.2 0 0 1-2.894 3.015c1.35.485 2.381 1.475 2.894 2.77.513-1.295 1.544-2.285 2.895-2.77-1.332-.546-2.372-1.637-2.895-3.015"/></svg>