<svg width="24" height="24" fill="none" xmlns="http://www.w3.org/2000/svg"><path d="M21.887 4.893a.41.41 0 0 0 .086-.433.368.368 0 0 0-.342-.239h-2.223V1.887a.391.391 0 0 0-.228-.358.36.36 0 0 0-.403.085l-2.593 2.722a.381.381 0 0 0-.109.273v2.563l-1.071 1.125c-1.432-1.374-3.276-2.13-5.224-2.13C5.49 6.167 2 9.83 2 14.334 2 18.837 5.49 22.5 9.78 22.5a7.486 7.486 0 0 0 4.1-1.224.4.4 0 0 0 .119-.538.36.36 0 0 0-.512-.124 6.757 6.757 0 0 1-3.707 1.11c-3.878 0-7.036-3.315-7.036-7.386 0-4.07 3.158-7.385 7.036-7.385 1.754 0 3.408.677 4.702 1.901l-1.967 2.066a4.098 4.098 0 0 0-2.736-1.05c-2.346 0-4.257 2.005-4.257 4.469 0 2.463 1.91 4.468 4.258 4.468 2.346 0 4.257-2.005 4.257-4.468 0-1.095-.38-2.096-1-2.872l3.56-3.737h2.441c.1 0 .19-.04.26-.115l2.59-2.722ZM16.07 19.39c0 .428-.331.776-.74.776-.407 0-.739-.348-.739-.776 0-.428.332-.777.74-.777s.74.349.74.777Zm-6.03-4.778 2.47-2.592c.488.632.782 1.438.787 2.324 0 2.035-1.579 3.692-3.518 3.692-1.938 0-3.517-1.657-3.517-3.693 0-2.035 1.579-3.692 3.518-3.692.834 0 1.602.309 2.209.821l-2.47 2.593a.395.395 0 0 0 0 .547.361.361 0 0 0 .26.115c.095 0 .19-.04.261-.115Zm10.695-9.604-1.853 1.945h-2.067v-2.17l1.853-1.945v2.17h2.067ZM15.99 10.87a.402.402 0 0 1 .152-.528.36.36 0 0 1 .502.165 8.487 8.487 0 0 1 .91 3.837 8.41 8.41 0 0 1-.65 3.264.37.37 0 0 1-.34.234c-.048 0-.1-.01-.148-.035a.399.399 0 0 1-.19-.512c.385-.936.584-1.931.584-2.957 0-1.209-.28-2.408-.82-3.468Z" fill="#003"/></svg>