<svg width="24" height="24" viewBox="0 0 24 24" fill="none" xmlns="http://www.w3.org/2000/svg">
<path fill-rule="evenodd" clip-rule="evenodd" d="M21.8873 4.39307L19.2988 7.11523C19.2277 7.18988 19.1376 7.22969 19.0381 7.22969H16.5966L13.0364 10.9671C13.6574 11.7434 14.0366 12.7437 14.0366 13.8385C14.0366 16.3019 12.1261 18.3074 9.7795 18.3074C7.43285 18.3074 5.52234 16.3019 5.52234 13.8385C5.52234 11.3751 7.43285 9.36959 9.7795 9.36959C10.8225 9.36959 11.7753 9.76274 12.5149 10.4196L14.4823 8.35438C13.1881 7.13016 11.5336 6.45335 9.7795 6.45335C5.9016 6.45335 2.74429 9.76772 2.74429 13.8385C2.74429 17.9093 5.9016 21.2237 9.7795 21.2237C11.0927 21.2237 12.3774 20.8405 13.4867 20.1139C13.6621 19.9994 13.8897 20.0542 13.9987 20.2383C14.1078 20.4224 14.0556 20.6613 13.8802 20.7758C12.6524 21.577 11.2349 22 9.7795 22C5.48916 22 2 18.3373 2 13.8335C2 9.32978 5.48916 5.66706 9.7795 5.66706C11.7279 5.66706 13.5721 6.42349 15.0038 7.79701L16.0752 6.67232V4.10941C16.0752 4.00491 16.1131 3.90538 16.1842 3.8357L18.7774 1.11355C18.8816 1.00407 19.0428 0.96923 19.1803 1.02895C19.3178 1.08867 19.4079 1.23299 19.4079 1.38726V3.72124H21.6313C21.783 3.72124 21.9157 3.8158 21.9726 3.96012C22.0295 4.11439 21.9963 4.28359 21.8873 4.39307ZM16.0704 18.8897C16.0704 19.3177 15.7386 19.666 15.3309 19.666C14.9232 19.666 14.5913 19.3177 14.5913 18.8897C14.5913 18.4617 14.9232 18.1133 15.3309 18.1133C15.7386 18.1133 16.0704 18.4617 16.0704 18.8897ZM10.0402 14.1122L12.5101 11.5195C12.9984 12.1515 13.2924 12.9577 13.2971 13.8435C13.2971 15.8789 11.7184 17.5361 9.7795 17.5361C7.84055 17.5361 6.26189 15.8789 6.26189 13.8435C6.26189 11.8081 7.84055 10.1509 9.7795 10.1509C10.6139 10.1509 11.3819 10.4595 11.9887 10.972L9.51876 13.5648C9.3718 13.7141 9.3718 13.9579 9.51876 14.1122C9.58987 14.1869 9.68468 14.2267 9.7795 14.2267C9.87431 14.2267 9.96912 14.1869 10.0402 14.1122ZM20.7353 4.50753H19.4079H19.0381H18.6683V4.11937V3.7312V2.33777L16.8147 4.28359V6.45335H18.8816L20.7353 4.50753ZM15.9898 10.3699C15.895 10.1808 15.9614 9.94189 16.1415 9.84236C16.3264 9.74283 16.5492 9.8125 16.644 10.0066C17.2414 11.181 17.5543 12.5048 17.5543 13.8435C17.5543 14.9781 17.3362 16.0779 16.9048 17.1081C16.8431 17.2574 16.7057 17.342 16.5634 17.342C16.516 17.342 16.4639 17.332 16.4165 17.3071C16.2316 17.2225 16.1463 16.9936 16.2269 16.7946C16.6109 15.859 16.81 14.8637 16.81 13.8385C16.81 12.6292 16.5303 11.4299 15.9898 10.3699Z" fill="#000033"/>
</svg>
