<svg width="24" height="24" fill="none" xmlns="http://www.w3.org/2000/svg"><path d="M20.91 15.028c0 .205.164.371.364.371.2 0 .363-.166.363-.37v-2.873c0-1.155-.754-2.059-1.95-2.463a2.625 2.625 0 0 0 1.042-2.092C20.73 6.165 19.59 5 18.183 5c-1.405 0-2.546 1.165-2.546 2.601a2.6 2.6 0 0 0 1.029 2.083c-.554.176-1.029.451-1.373.813a.374.374 0 0 0 .01.523.356.356 0 0 0 .511-.01c.48-.508 1.364-.813 2.365-.813 1.606 0 2.727.804 2.727 1.954v2.877h.005Zm-4.542-7.427c0-1.022.815-1.86 1.82-1.86 1 0 1.82.833 1.82 1.86 0 1.027-.815 1.86-1.82 1.86-1.005-.006-1.82-.838-1.82-1.86ZM6.97 9.688c.56.176 1.03.452 1.374.813a.37.37 0 0 1-.014.524.356.356 0 0 1-.512-.01c-.484-.509-1.364-.813-2.364-.813-1.606 0-2.728.803-2.728 1.954v5.473a.367.367 0 0 1-.363.371.367.367 0 0 1-.363-.37v-5.47c0-1.155.754-2.058 1.95-2.462a2.598 2.598 0 0 1-1.042-2.092c0-1.436 1.14-2.601 2.546-2.601C6.859 5.005 8 6.17 8 7.605a2.61 2.61 0 0 1-1.03 2.083ZM5.459 5.742c-1.005 0-1.82.837-1.82 1.859s.815 1.854 1.82 1.86c1.006 0 1.82-.833 1.82-1.86 0-1.027-.82-1.86-1.82-1.86Zm7.889 5.42a2.622 2.622 0 0 0 1.019-2.073c0-1.436-1.14-2.6-2.546-2.6s-2.546 1.164-2.546 2.6c0 .847.4 1.598 1.02 2.073-1.28.39-2.11 1.275-2.11 2.383v4.084c0 .205.164.371.364.371.2 0 .363-.166.363-.37v-4.085c0-1.075 1.224-1.86 2.909-1.86 1.685 0 2.909.78 2.909 1.86v4.084c0 .205.163.371.363.371.2 0 .363-.166.363-.37v-4.085c0-1.113-.829-1.993-2.108-2.383ZM10 9.084c0-1.022.815-1.859 1.82-1.859 1 0 1.82.832 1.82 1.86 0 1.027-.815 1.859-1.82 1.859-1 0-1.82-.832-1.82-1.86ZM21.274 18a.734.734 0 0 0 .726-.742.734.734 0 0 0-.726-.741.734.734 0 0 0-.726.741c0 .41.325.742.726.742Z" fill="#003"/></svg>