<svg xmlns="http://www.w3.org/2000/svg" width="24" height="24" fill="none"><path fill="#003" d="M7.544 13.107c3.056 0 5.544-2.494 5.544-5.556A5.55 5.55 0 0 0 7.544 2a5.554 5.554 0 0 0 0 11.107m.374-.834V7.92h1.655c-.08 2.29-.851 3.949-1.655 4.352m0-9.439c.804.403 1.575 2.062 1.655 4.352H7.918zm-.743 0v4.352H5.52c.08-2.29.852-3.953 1.656-4.352m0 9.443c-.804-.403-1.575-2.062-1.656-4.351h1.656zm1.992-.199c.652-.934 1.088-2.422 1.14-4.157h2.024a4.81 4.81 0 0 1-3.164 4.157m1.14-4.897c-.057-1.73-.488-3.223-1.14-4.157A4.82 4.82 0 0 1 12.33 7.18zM5.927 3.03c-.654.934-1.084 2.422-1.14 4.157H2.761A4.81 4.81 0 0 1 5.926 3.03m-1.14 4.897c.056 1.73.486 3.223 1.14 4.157a4.82 4.82 0 0 1-3.165-4.157zm16.234 5.247a3.32 3.32 0 0 1-3.212.858.37.37 0 0 1-.26-.455.37.37 0 0 1 .454-.26 2.57 2.57 0 0 0 2.493-.669 2.59 2.59 0 0 0 .719-2.29l-1.24 1.247a1.11 1.11 0 0 1-1.546.024l-.54-.507a1.1 1.1 0 0 1-.345-.792 1.09 1.09 0 0 1 .326-.801l1.259-1.261a2.592 2.592 0 0 0-2.952 3.224l.057.208-4.523 4.518-.208-.057a2.59 2.59 0 0 0-3.217 2.958l1.245-1.247a1.104 1.104 0 0 1 1.547-.024l.539.508c.217.208.34.488.345.791s-.109.588-.326.801l-1.258 1.261a2.591 2.591 0 0 0 2.952-3.224l-.057-.208 1.23-1.232a.36.36 0 0 1 .52 0 .37.37 0 0 1 0 .521l-.937.939a3.34 3.34 0 0 1-.908 3.005c-.63.65-1.476.991-2.337.991-.44 0-.88-.085-1.3-.265l-.507-.214 2.082-2.086a.373.373 0 0 0-.005-.53l-.54-.508a.37.37 0 0 0-.515.01l-2.067 2.071-.213-.507a3.34 3.34 0 0 1 .71-3.66 3.32 3.32 0 0 1 2.999-.91l3.926-3.934a3.34 3.34 0 0 1 .908-3.006 3.32 3.32 0 0 1 3.652-.71l.506.212-2.081 2.086a.373.373 0 0 0 .004.531l.54.508a.365.365 0 0 0 .515-.01l2.067-2.072.213.508a3.33 3.33 0 0 1-.714 3.66m-4.603 2.897a.74.74 0 0 0 0-1.48.74.74 0 0 0 0 1.48"/></svg>