<svg width="24" height="24" fill="none" xmlns="http://www.w3.org/2000/svg"><path d="M9.007 22.888a.342.342 0 0 0 .512-.005.387.387 0 0 0 0-.537l-2.27-2.382a1.865 1.865 0 0 0-.229-2.24 1.66 1.66 0 0 0-2.135-.24l-2.014-2.108L14.742 2.924l2.014 2.113a1.865 1.865 0 0 0 .228 2.24 1.654 1.654 0 0 0 2.135.24l2.01 2.113-9.052 9.5a.387.387 0 0 0 0 .536.354.354 0 0 0 .516 0l9.299-9.777a.387.387 0 0 0 0-.537l-2.498-2.62a.345.345 0 0 0-.512 0c-.381.4-1.01.4-1.39 0a1.074 1.074 0 0 1 0-1.46.39.39 0 0 0 0-.537l-2.499-2.622a.345.345 0 0 0-.511 0L2.108 15.112a.387.387 0 0 0 0 .537l2.498 2.621a.34.34 0 0 0 .256.112.354.354 0 0 0 .256-.112.956.956 0 0 1 1.39 0c.382.4.382 1.06 0 1.46a.387.387 0 0 0 0 .537l2.499 2.62Zm1.088-1.855c0-.42.326-.762.726-.762.405 0 .726.342.726.762s-.326.761-.726.761c-.4 0-.726-.341-.726-.761Zm.637-4.588 1.522-1.675 2.149.503a.35.35 0 0 0 .367-.141.405.405 0 0 0 .033-.41l-1.066-2.085 1.14-1.928a.393.393 0 0 0-.01-.415.352.352 0 0 0-.367-.156l-2.19.44-1.424-1.753a.348.348 0 0 0-.381-.117.38.38 0 0 0-.256.322l-.256 2.29-2.056.907a.384.384 0 0 0-.224.347.381.381 0 0 0 .214.351l1.968.938.219 2.357a.377.377 0 0 0 .242.322.33.33 0 0 0 .12.02.326.326 0 0 0 .256-.117Zm-.046-4.818.186-1.64 1.023 1.26a.361.361 0 0 0 .345.126l1.586-.317-.814 1.376a.384.384 0 0 0-.01.381l.791 1.547-1.577-.37a.352.352 0 0 0-.344.107l-1.112 1.225-.162-1.747a.39.39 0 0 0-.21-.313l-1.41-.669 1.49-.659a.376.376 0 0 0 .218-.307Z" fill="#003"/></svg>