<svg width="24" height="24" viewBox="0 0 24 24" fill="none" xmlns="http://www.w3.org/2000/svg">
<path fill-rule="evenodd" clip-rule="evenodd" d="M9.00663 22.8877C9.0764 22.961 9.16944 23 9.26247 23C9.35551 23 9.44854 22.961 9.51832 22.8829C9.66252 22.7364 9.66252 22.4972 9.51832 22.3459L7.24828 19.9639C7.67624 19.2659 7.59716 18.3287 7.02035 17.7235C6.43889 17.1182 5.54576 17.0401 4.88522 17.4843L2.87103 15.3756L14.7422 2.92376L16.7564 5.03731C16.3284 5.73043 16.4075 6.6725 16.9843 7.27776C17.5658 7.88303 18.4589 7.96601 19.1194 7.51694L21.129 9.63048L12.0768 19.1292C11.9325 19.2757 11.9325 19.5148 12.0768 19.6662C12.221 19.8175 12.4489 19.8126 12.5931 19.6662L21.8918 9.88919C22.0361 9.74275 22.0361 9.50357 21.8918 9.35226L19.3939 6.73107C19.2543 6.57975 19.0264 6.57975 18.8822 6.73107C18.5008 7.13133 17.8728 7.13133 17.4913 6.73107C17.1099 6.33082 17.1099 5.67186 17.4913 5.2716C17.5611 5.20327 17.5983 5.10076 17.5983 5.00314C17.5983 4.90551 17.5611 4.80789 17.4913 4.73467L14.9934 2.11349C14.8538 1.96217 14.6259 1.96217 14.4817 2.11349L2.10815 15.112C1.96395 15.2585 1.96395 15.4976 2.10815 15.649L4.60612 18.2701C4.67124 18.3434 4.76427 18.3824 4.86196 18.3824C4.95499 18.3824 5.04803 18.3434 5.1178 18.2701C5.49924 17.8699 6.12722 17.8699 6.50866 18.2701C6.8901 18.6704 6.8901 19.3294 6.50866 19.7296C6.36446 19.8761 6.36446 20.1152 6.50866 20.2665L9.00663 22.8877ZM10.0951 21.0329C10.0951 20.6131 10.4207 20.2714 10.8208 20.2714C11.2255 20.2714 11.5465 20.6131 11.5465 21.0329C11.5465 21.4527 11.2208 21.7944 10.8208 21.7944C10.4207 21.7944 10.0951 21.4527 10.0951 21.0329ZM10.7324 16.4446L12.2535 14.7704L14.4026 15.2731C14.5422 15.3073 14.6864 15.2487 14.7701 15.1316C14.8538 15.0144 14.8678 14.8533 14.8027 14.7215L13.7374 12.6373L14.8771 10.7092C14.9515 10.5823 14.9515 10.4164 14.8678 10.2943C14.784 10.1674 14.6398 10.1088 14.5003 10.1381L12.3093 10.5774L10.8859 8.82509C10.7929 8.70794 10.644 8.66401 10.5045 8.70794C10.3649 8.75187 10.2672 8.87878 10.2486 9.0301L9.99279 11.3194L7.93674 12.2273C7.80184 12.2858 7.71811 12.4225 7.71346 12.5738C7.7088 12.7251 7.79719 12.8618 7.92743 12.9253L9.8951 13.8625L10.1137 16.2201C10.1277 16.3665 10.2207 16.4934 10.3556 16.5422C10.3928 16.5569 10.4347 16.5617 10.4766 16.5617C10.5696 16.5666 10.6626 16.5227 10.7324 16.4446ZM10.6859 11.6269C10.6719 11.7636 10.5882 11.8807 10.4673 11.9344L8.97872 12.5934L10.3882 13.2621C10.5045 13.3206 10.5836 13.4378 10.5975 13.5745L10.7603 15.3219L11.8721 14.0968C11.9605 13.9991 12.0907 13.9601 12.2163 13.9894L13.7932 14.3603L13.0024 12.813C12.9373 12.6959 12.942 12.5494 13.0117 12.4323L13.8258 11.0558L12.2396 11.3731C12.114 11.3975 11.9791 11.3487 11.8953 11.2462L10.872 9.98681L10.6859 11.6269Z" fill="#000033"/>
</svg>
