<svg width="24" height="24" fill="none" xmlns="http://www.w3.org/2000/svg"><path d="M21.63 4.126h-6.667v-.752c0-1.05-.814-1.874-1.851-1.874h-2.224c-1.037 0-1.85.823-1.85 1.874v.752H2.368c-.224 0-.369.15-.369.373s.15.374.37.374h1.85v15.753c0 1.05.813 1.874 1.85 1.874h11.855c1.038 0 1.85-.823 1.85-1.874V9.003c0-.227-.148-.374-.368-.374-.224 0-.37.151-.37.374V20.63c0 .638-.481 1.125-1.112 1.125H6.071c-.631 0-1.112-.487-1.112-1.125V4.877H21.63c.224 0 .369-.15.369-.373s-.145-.378-.37-.378ZM9.777 3.374c0-.639.481-1.126 1.112-1.126h2.224c.63 0 1.112.487 1.112 1.126v.752H9.776v-.752Z" fill="#003"/><path d="M20.154 6.751a.747.747 0 0 1-.743.752.747.747 0 0 1-.743-.752c0-.415.333-.752.743-.752s.742.337.742.752ZM9.037 18.753V7.877c0-.227.15-.374.37-.374s.369.147.369.374v10.876c0 .223-.15.374-.37.374s-.369-.147-.369-.374ZM14.224 18.753V7.877c0-.227.15-.374.37-.374s.369.147.369.374v10.876c0 .223-.15.374-.37.374s-.369-.147-.369-.374Z" fill="#003"/></svg>