<svg width="24" height="24" fill="none" xmlns="http://www.w3.org/2000/svg"><path d="M21.176 4.5h-6.35v-.716c0-1-.775-1.784-1.763-1.784h-2.118c-.988 0-1.763.784-1.763 1.784V4.5h-6.35c-.214 0-.352.145-.352.357s.142.356.352.356h1.762v15.003c0 1 .775 1.784 1.763 1.784h11.29c.988 0 1.762-.784 1.762-1.784V9.146c0-.217-.142-.357-.351-.357-.214 0-.352.144-.352.356V20.22c0 .608-.458 1.072-1.06 1.072H6.357c-.6 0-1.058-.464-1.058-1.072V5.217h15.878c.213 0 .352-.144.352-.356s-.139-.36-.352-.36Zm-11.29-.716c0-.608.458-1.072 1.059-1.072h2.118c.6 0 1.059.464 1.059 1.072V4.5H9.886v-.716Z" fill="#003"/><path d="M19.77 7.001a.712.712 0 0 1-.708.716.712.712 0 0 1-.708-.716c0-.396.317-.716.708-.716.39 0 .707.32.707.716ZM9.182 18.431V8.073c0-.216.142-.356.352-.356s.352.14.352.356v10.358c0 .212-.143.356-.352.356-.21 0-.352-.14-.352-.356Zm4.94 0V8.073c0-.216.142-.356.352-.356s.351.14.351.356v10.358c0 .212-.142.356-.351.356-.21 0-.352-.14-.352-.356Z" fill="#003"/></svg>