<svg xmlns="http://www.w3.org/2000/svg" width="24" height="24" fill="none"><path fill="#003" d="M22 13.124 15.004 6H12V4.908C12 3.303 10.72 2 9.144 2H2.356A.36.36 0 0 0 2 2.363c0 .2.16.362.356.362H9.14c1.18 0 2.144.978 2.144 2.183V18.73H4.856a.36.36 0 0 0-.356.363c0 .2.16.362.356.362h8.568a.463.463 0 0 0 .07-.007l.01-.001C13.828 20.908 15.108 22 16.64 22c1.528 0 2.808-1.092 3.132-2.546H22v-6.33Zm-5.356 8.15c-1.38 0-2.5-1.14-2.5-2.545s1.12-2.546 2.5-2.546 2.5 1.14 2.5 2.546c0 1.405-1.124 2.546-2.5 2.546Zm3.212-2.545c0-1.804-1.44-3.275-3.216-3.275-1.776 0-3.216 1.467-3.216 3.275H12V6.725h2.708l6.576 6.697v5.307h-1.428Z"/><path fill="#003" d="M5.572 10.363H2.356A.36.36 0 0 1 2 10c0-.2.16-.363.356-.363h3.216a.36.36 0 0 1 .356.363c0 .2-.16.363-.356.363ZM8.784 14H2.356A.36.36 0 0 1 2 13.637c0-.2.16-.362.356-.362h6.428a.36.36 0 0 1 .356.362c0 .2-.16.363-.356.363ZM2.716 19.82a.723.723 0 0 0 .716-.728c0-.403-.32-.73-.716-.73a.723.723 0 0 0-.716.73c0 .402.32.729.716.729Z"/></svg>