<svg width="24" height="24" viewBox="0 0 24 24" fill="none" xmlns="http://www.w3.org/2000/svg">
<path fill-rule="evenodd" clip-rule="evenodd" d="M2 12C2 17.5165 6.48812 22 12 22C13.8921 22 15.734 21.4653 17.3336 20.4552C17.4982 20.3501 17.5484 20.1261 17.4433 19.9616C17.3382 19.7971 17.1188 19.7468 16.9497 19.8519C15.4689 20.7888 13.755 21.2824 12 21.2824C6.88117 21.2824 2.71755 17.1188 2.71755 12C2.71755 6.88117 6.88117 2.71755 12 2.71755C17.1188 2.71755 21.2824 6.88117 21.287 11.9954C21.287 13.7505 20.7934 15.4644 19.8565 16.9452C19.7514 17.1143 19.8016 17.3336 19.9662 17.4388C20.1353 17.5439 20.3547 17.4936 20.4598 17.3291C21.4653 15.734 22 13.8921 22 12C22 6.48812 17.5119 2 12 2C6.48812 2 2 6.48355 2 12ZM18.787 18.0695C19.1801 18.0695 19.5 18.3894 19.5 18.7824C19.5 19.1801 19.1801 19.4954 18.787 19.4954C18.394 19.4954 18.074 19.1755 18.074 18.7824C18.074 18.3894 18.394 18.0695 18.787 18.0695ZM8.96526 17.4845L17.8912 12.3062C18.0009 12.2422 18.0695 12.1234 18.0695 11.9954C18.0695 11.8675 18.0009 11.7486 17.8912 11.6846L8.96526 6.51554C8.85558 6.45155 8.71846 6.45155 8.60878 6.51554C8.49909 6.57952 8.43053 6.69835 8.43053 6.82633V17.1828C8.43053 17.3108 8.49909 17.4296 8.60878 17.4936C8.66362 17.5256 8.7276 17.5393 8.78702 17.5393C8.84644 17.5347 8.91042 17.5165 8.96526 17.4845ZM9.14351 16.5567L17 12L9.14351 7.44333V16.5567Z" fill="#000033"/>
</svg>
