<svg xmlns="http://www.w3.org/2000/svg" width="24" height="24" fill="none"><path fill="#003" d="M2 12c0 5.517 4.488 10 10 10a9.97 9.97 0 0 0 5.334-1.545.36.36 0 0 0 .11-.493.36.36 0 0 0-.494-.11 9.25 9.25 0 0 1-4.95 1.43c-5.119 0-9.282-4.163-9.282-9.282S6.88 2.718 12 2.718s9.282 4.163 9.287 9.277a9.25 9.25 0 0 1-1.43 4.95.36.36 0 0 0 .11.494.36.36 0 0 0 .493-.11A10 10 0 0 0 22 12c0-5.512-4.488-10-10-10S2 6.484 2 12m16.787 6.07a.714.714 0 0 1 0 1.425.714.714 0 0 1 0-1.425m-9.822-.585 8.926-5.179a.36.36 0 0 0 0-.621l-8.926-5.17a.355.355 0 0 0-.534.311v10.357a.36.36 0 0 0 .178.31.36.36 0 0 0 .178.046.4.4 0 0 0 .178-.055m.179-.928V7.443L17 12z"/></svg>