<svg xmlns="http://www.w3.org/2000/svg" width="24" height="24" fill="none"><path fill="#003" d="M20.927 6.368a.34.34 0 0 1 .384-.08.36.36 0 0 1 .212.34v10.75a.37.37 0 0 1-.217.34.4.4 0 0 1-.135.03.34.34 0 0 1-.248-.11l-5.054-5.306v3.21l3.613 3.793c.14.143.14.375 0 .522a.34.34 0 0 1-.248.109.34.34 0 0 1-.249-.11l-3.111-3.266v.598c0 .199-.154.36-.344.36H2.832a.35.35 0 0 1-.344-.36V6.814c0-.2.154-.36.344-.36h2.465c.19 0 .344.16.344.36s-.154.36-.344.36H3.17v9.653h12.022v-.958L2.583 2.633a.38.38 0 0 1 0-.522.335.335 0 0 1 .497 0l4.141 4.343h8.31c.19 0 .343.161.343.36v4.86zm-5.74.806H7.903l7.284 7.648zm5.636 9.302V7.525L16.56 12zm0 5.524c.389 0 .705-.332.705-.74 0-.407-.316-.74-.705-.74s-.704.333-.704.74c0 .408.316.74.704.74"/></svg>