<svg width="24" height="24" fill="none" xmlns="http://www.w3.org/2000/svg"><path d="M17.235 12c0-1.656-.656-2.656-1.75-2.656-1.094 0-1.75 1-1.75 2.656 0 1.625.688 2.656 1.75 2.656 1.063 0 1.75-1.031 1.75-2.656Zm-2.875 0c0-.625.125-2.031 1.125-2.031 1.063 0 1.125 1.562 1.125 2.031 0 .938-.281 2.031-1.125 2.031-1.031 0-1.125-1.562-1.125-2.031Zm-5.563 0c.344.281.594.688.594 1.188a1.5 1.5 0 0 1-1.5 1.5c-1.094 0-1.531-.407-1.562-.438a.302.302 0 0 1 0-.438.302.302 0 0 1 .437 0s.313.282 1.125.282a.894.894 0 0 0 .875-.875.873.873 0 0 0-.875-.875H7.08c-.188 0-.313-.125-.313-.313 0-.187.125-.312.313-.312h.812a.873.873 0 0 0 .875-.875.894.894 0 0 0-.875-.875c-.812 0-1.125.281-1.125.281-.125.125-.312.094-.437 0a.302.302 0 0 1 0-.438c.031-.03.468-.437 1.562-.437a1.5 1.5 0 0 1 1.5 1.5A1.61 1.61 0 0 1 8.797 12Zm2.5-1.938c.5-.218 1.125.126 1.125.126.157.093.344.03.438-.126.094-.156.031-.343-.125-.437-.031-.031-.875-.469-1.656-.156-.469.187-.813.625-1.032 1.281-.28.938-.093 2.219-.093 2.25.031.906.75 1.625 1.625 1.625.906 0 1.625-.75 1.625-1.656 0-.906-.719-1.656-1.625-1.656-.407 0-.782.156-1.063.406.031-.25.063-.531.125-.781.156-.47.375-.75.656-.876Zm.282 1.876c.562 0 1 .468 1 1.03 0 .563-.438 1.032-1 1.032-.563 0-1-.469-1-1.031 0-.563.437-1.031 1-1.031Zm4.968 7.343a.656.656 0 0 1-.718.532c-.344-.032-.563-.375-.532-.72.032-.343.375-.562.72-.53.343.03.593.375.53.718Zm4.032-1.906c.031.156-.094.344-.25.344l-3.094.468-.469-3.093c-.031-.156.094-.344.25-.344.157-.031.344.094.344.25l.313 2.188a7.6 7.6 0 0 0 2-5.188c0-4.313-3.5-7.813-7.813-7.813A7.815 7.815 0 0 0 4.047 12c0 4.313 3.5 7.813 7.813 7.813.75 0 1.5-.094 2.219-.313a.277.277 0 0 1 .375.219.277.277 0 0 1-.219.375 8.73 8.73 0 0 1-2.375.343c-4.656 0-8.438-3.78-8.438-8.437 0-4.656 3.782-8.438 8.438-8.438 4.656 0 8.438 3.782 8.438 8.438 0 2-.688 3.875-1.938 5.375l1.875-.281c.156 0 .313.093.344.281Z" fill="#003"/></svg>