<svg xmlns="http://www.w3.org/2000/svg" width="24" height="24" fill="none"><path fill="#003" d="M15.703 2.368V21.63a.374.374 0 0 1-.185.323.363.363 0 0 1-.37-.005l-1.384-.811a.372.372 0 0 1 .375-.64l.83.483V3.012l-9.636 5.6a.363.363 0 0 1-.185.053H2.74v6.668h2.408c.067 0 .128.018.185.052l4.993 2.892a.37.37 0 1 1-.374.64l-4.908-2.845H2.37a.37.37 0 0 1-.37-.37V8.295a.37.37 0 0 1 .37-.37h2.679l10.1-5.875a.368.368 0 0 1 .37 0 .361.361 0 0 1 .184.318M12 19.036a.74.74 0 0 0 0 1.48.74.74 0 0 0 0-1.48m7.776-7.407h1.854a.37.37 0 0 1 0 .74h-1.854v1.854a.37.37 0 0 1-.74 0v-1.854h-1.853a.37.37 0 0 1 0-.74h1.854V9.775a.37.37 0 0 1 .74 0z"/></svg>