<svg width="24" height="24" fill="none" xmlns="http://www.w3.org/2000/svg"><path fill-rule="evenodd" clip-rule="evenodd" d="M2 12C2 6.5 6.5 2 12 2c1.892 0 3.752.536 5.356 1.536.18.108.216.32.108.5s-.32.216-.5.108A9.43 9.43 0 0 0 12 2.716c-5.108 0-9.284 4.176-9.284 9.284 0 5.108 4.18 9.284 9.284 9.284 5.104 0 9.284-4.176 9.284-9.248 0-1.784-.5-3.5-1.428-4.964-.108-.18-.072-.392.108-.5.18-.108.392-.072.5.108A9.925 9.925 0 0 1 22 12c0 5.5-4.5 10-10 10S2 17.5 2 12Zm16.784-7.5a.716.716 0 1 1 0 1.432.716.716 0 0 1 0-1.432ZM12 6.644c-.216 0-.356.144-.356.356v7.5c0 .216.144.356.356.356.216 0 .356-.144.356-.356V7c0-.216-.14-.356-.356-.356Zm0 9.64a.536.536 0 1 1 0 1.072.536.536 0 0 1 0-1.072Z" fill="#003"/></svg>