<svg xmlns="http://www.w3.org/2000/svg" width="24" height="24" fill="none"><path fill="#003" d="M5 13.72c0 3.332 2.679 6.045 5.969 6.045s5.968-2.713 5.968-6.049q.001-1.391-.611-2.667l-2.989-5.23a.35.35 0 0 0-.48-.127.36.36 0 0 0-.127.487l2.976 5.207c.35.732.53 1.515.53 2.335 0 2.94-2.364 5.334-5.267 5.334S5.7 16.661 5.7 13.721c0-.82.175-1.603.517-2.313l5.052-8.875a.364.364 0 0 0-.13-.487.354.354 0 0 0-.482.132l-5.056 8.898A6 6 0 0 0 5 13.721m7.155-8.606a.707.707 0 0 0 .701-.71.707.707 0 0 0-.7-.71.707.707 0 0 0-.702.71c0 .39.314.71.701.71M18.65 17.38h-1.402c-.211 0-.35.141-.35.355s.139.355.35.355h1.402c.212 0 .351-.14.351-.355s-.14-.355-.35-.355m-2.21 1.53a.336.336 0 0 0-.49 0 .347.347 0 0 0 0 .496l.984.996a.37.37 0 0 0 .247.105.4.4 0 0 0 .247-.105.347.347 0 0 0 0-.496zm-2 1.315c0-.214.139-.355.35-.355s.35.14.35.355v1.42c0 .214-.139.355-.35.355s-.35-.141-.35-.355z"/></svg>