<svg width="24" height="24" viewBox="0 0 24 24" fill="none" xmlns="http://www.w3.org/2000/svg">
<path fill-rule="evenodd" clip-rule="evenodd" d="M5 13.7206C5 17.0524 7.67865 19.7652 10.9685 19.7652C14.2584 19.7652 16.9371 17.0524 16.9371 13.7161C16.9371 12.7875 16.7348 11.9 16.3258 11.0488L13.3371 5.81901C13.2382 5.6506 13.0225 5.59143 12.8562 5.69156C12.6899 5.7917 12.6315 6.01018 12.7303 6.17859L15.7056 11.3856C16.0562 12.1184 16.236 12.9013 16.236 13.7206C16.236 16.661 13.8719 19.0551 10.9685 19.0551C8.06517 19.0551 5.70112 16.661 5.70112 13.7206C5.70112 12.9013 5.8764 12.1184 6.21798 11.4084L11.2697 2.53274C11.364 2.35978 11.3056 2.14585 11.1393 2.04572C10.9685 1.95014 10.7573 2.00931 10.6584 2.17772L5.60225 11.0761C5.20225 11.9045 5 12.7921 5 13.7206ZM12.1551 5.11351C12.5416 5.11351 12.8562 4.79489 12.8562 4.40346C12.8562 4.01202 12.5416 3.6934 12.1551 3.6934C11.7685 3.6934 11.4539 4.01202 11.4539 4.40346C11.4539 4.79489 11.7685 5.11351 12.1551 5.11351ZM18.6494 17.3801H17.2472C17.036 17.3801 16.8966 17.5212 16.8966 17.7351C16.8966 17.9491 17.036 18.0902 17.2472 18.0902H18.6494C18.8607 18.0902 19 17.9491 19 17.7351C19 17.5212 18.8607 17.3801 18.6494 17.3801ZM16.4382 18.9095C16.2989 18.7684 16.0876 18.7684 15.9483 18.9095C15.809 19.0506 15.809 19.2645 15.9483 19.4056L16.9326 20.4024C17.0045 20.4752 17.1079 20.5071 17.1798 20.5071C17.2517 20.5071 17.3551 20.4707 17.427 20.4024C17.5663 20.2613 17.5663 20.0474 17.427 19.9063L16.4382 18.9095ZM14.4382 20.2249C14.4382 20.0109 14.5775 19.8698 14.7888 19.8698C15 19.8698 15.1393 20.0109 15.1393 20.2249V21.645C15.1393 21.8589 15 22 14.7888 22C14.5775 22 14.4382 21.8589 14.4382 21.645V20.2249Z" fill="#000033"/>
</svg>
