<svg width="24" height="24" viewBox="0 0 24 24" fill="none" xmlns="http://www.w3.org/2000/svg">
<path d="M20.7152 5.90158C19.9066 5.55289 18.974 5.75034 18.3416 6.4015L15.5718 9.30863L7.86281 1.2174C7.58663 0.927532 7.13434 0.927532 6.85015 1.2174C6.57397 1.50728 6.57397 1.982 6.85015 2.28027L15.1676 11.0101L15.2956 11.0689C15.7319 11.2663 15.864 11.1277 16.5845 10.3715L19.3463 7.47277C19.6145 7.1913 19.9387 7.1997 20.1548 7.29632C20.2749 7.34674 20.5591 7.51898 20.5591 7.94329V20.5044H8.66333C8.26707 20.5044 8.10297 20.1978 8.05494 20.0633C7.95887 19.8155 7.95087 19.4416 8.21504 19.1643L11.5292 15.6858L11.5852 15.5514C11.7293 15.1775 11.7533 15.1019 10.9208 14.2071L10.1443 13.3878L3.21979 6.08642C2.94361 5.79655 2.49132 5.79655 2.20713 6.08642C1.93096 6.37629 1.93096 6.85101 2.20713 7.14929L9.91615 15.2405L7.20238 18.0888C6.56997 18.7526 6.38585 19.7566 6.72607 20.6305C7.05829 21.4707 7.79477 22 8.65533 22H22V7.93068C22 7.02326 21.5077 6.24186 20.7152 5.90158Z" fill="#000033"/>
</svg>
