<svg width="24" height="24" viewBox="0 0 24 24" fill="none" xmlns="http://www.w3.org/2000/svg">
<path d="M8.84866 23C9.25646 23 9.59129 22.6436 9.59129 22.2124V12.9812H4.21255C3.84338 12.9812 3.62016 12.6688 3.54718 12.3916C3.50855 12.2728 3.39694 11.8812 3.65879 11.604L11.9995 3.1604L20.3402 11.604C20.6021 11.8812 20.5291 12.2728 20.4518 12.3916C20.3402 12.6292 20.117 12.9812 19.7864 12.9812H14.4077V22.2124C14.4077 22.648 14.7425 23 15.1503 23C15.5581 23 15.893 22.6436 15.893 22.2124V14.552H19.7864C20.675 14.552 21.4906 13.9228 21.8255 13.0208C22.1603 12.1584 22.0144 11.1728 21.379 10.5436L11.9995 1L2.61996 10.5084C1.98893 11.1772 1.83869 12.1188 2.17352 13.0208C2.54269 13.9272 3.32396 14.552 4.21255 14.552H8.10602V22.2124C8.10602 22.6436 8.44085 23 8.84866 23Z" fill="#000033"/>
</svg>
