<svg width="24" height="24" viewBox="0 0 24 24" fill="none" xmlns="http://www.w3.org/2000/svg">
<path fill-rule="evenodd" clip-rule="evenodd" d="M11.4781 21.7609C11.6141 21.9119 11.802 22 12.002 22C12.202 21.9958 12.3899 21.9119 12.5219 21.7567C13.2577 20.9303 14.3655 19.676 15.4813 18.3252C15.4833 18.321 15.4863 18.3179 15.4893 18.3147C15.4923 18.3116 15.4953 18.3084 15.4973 18.3042L18.1248 14.8979C18.1268 14.8937 18.1298 14.8895 18.1328 14.8853C18.1358 14.8811 18.1388 14.8769 18.1408 14.8728C20.7363 11.2105 22 8.30344 22 5.98781C22 4.47763 21.4841 3.19397 20.5043 2.27107C19.6325 1.45306 18.4807 1 17.2529 1C16.0932 1 15.1894 1.27267 14.3215 1.87675C13.6097 2.37175 12.8778 3.12685 11.998 4.28046C10.1424 1.87675 8.65867 1 6.57908 1C5.35933 1 4.22755 1.45725 3.39972 2.28785C2.4839 3.19816 2 4.48182 2 5.98781C2 8.22373 3.16777 10.9966 5.56729 14.4658C7.57089 17.3562 10.0144 20.1123 11.4781 21.7609ZM3.42771 5.98781C3.42771 3.5799 5.0114 2.5018 6.57908 2.5018C8.16277 2.5018 9.34653 3.03456 11.4341 5.96264C11.5701 6.15142 11.782 6.26468 12.006 6.26468C12.23 6.26468 12.4419 6.15142 12.5779 5.96264C14.6895 3.00519 15.7293 2.50599 17.2609 2.50599C18.8566 2.50599 20.5763 3.59668 20.5763 5.99201C20.5763 7.94267 19.3765 10.6274 17.009 13.9708L14.3975 17.3562C13.5377 18.3923 12.6819 19.374 12.002 20.1458C10.5463 18.5014 8.45471 16.0809 6.72705 13.5849C4.53549 10.4261 3.42771 7.86716 3.42771 5.98781Z" fill="#000033"/>
</svg>
