<svg width="24" height="24" viewBox="0 0 24 24" fill="none" xmlns="http://www.w3.org/2000/svg">
<path fill-rule="evenodd" clip-rule="evenodd" d="M18.7039 8.53138C19.3879 7.841 19.8159 6.87029 19.8159 5.79916C19.8159 5.42259 19.7639 5.05439 19.6639 4.7113L21.4879 4.20084C21.8559 4.09623 22.0759 3.69874 21.9759 3.31381C21.8759 2.92887 21.4959 2.69874 21.1279 2.80335L18.9959 3.40167C18.3279 2.54812 17.3159 2 16.1799 2C14.1759 2 12.5479 3.70293 12.5479 5.79916C12.5479 6.89958 12.9959 7.89121 13.7159 8.58577C13.5879 8.6318 13.4639 8.68201 13.3439 8.7364C12.9919 8.8954 12.8319 9.31799 12.9799 9.68619C13.1319 10.0544 13.5359 10.2218 13.8879 10.0669C14.5719 9.76151 15.4039 9.59833 16.2879 9.59833C18.7959 9.59833 20.6119 10.8954 20.6119 12.682V18.7406C20.6119 19.1423 20.9199 19.4644 21.3039 19.4644C21.6879 19.4644 21.9959 19.1423 21.9959 18.7406V12.682C21.9999 10.7531 20.7039 9.21339 18.7039 8.53138ZM18.4319 5.79916C18.4319 7.09623 17.4239 8.15063 16.1839 8.15063C15.1079 8.15063 14.2079 7.35565 13.9879 6.30126L18.3279 5.08368C18.3959 5.30962 18.4319 5.54812 18.4319 5.79916ZM17.4279 3.841C17.0719 3.59414 16.6439 3.4477 16.1839 3.4477C15.3039 3.4477 14.5399 3.97908 14.1719 4.75314L17.4279 3.841ZM10.8359 11.0962C11.5399 10.4017 11.9799 9.41841 11.9799 8.33054C11.9799 6.23431 10.3519 4.53138 8.34796 4.53138C7.91196 4.53138 7.49196 4.61088 7.10396 4.76151C7.07596 3.60251 6.16397 2.66946 5.04798 2.66946C3.91599 2.66946 2.99199 3.63598 2.99199 4.82008V7.03766H2L2.476 8.07531C2.512 8.159 2.86399 8.88285 3.65599 9.12134C3.79199 9.16318 3.95599 9.19247 4.14798 9.19247C4.33598 9.19247 4.55198 9.16318 4.79198 9.08368C4.93998 9.86611 5.32398 10.5649 5.85597 11.0921C3.89599 11.7866 2.628 13.3138 2.628 15.2218V21.2218C2.628 21.6234 2.93599 21.9456 3.31999 21.9456C3.70399 21.9456 4.01199 21.6234 4.01199 21.2218V15.2176C4.01199 14.1548 4.62398 13.4644 5.13198 13.0753C5.91997 12.4686 7.05996 12.1339 8.33196 12.1339C10.8399 12.1339 12.6559 13.431 12.6559 15.2176V21.2762C12.6559 21.6778 12.9639 22 13.3479 22C13.7319 22 14.0399 21.6778 14.0399 21.2762V15.2176C14.0399 13.318 12.7839 11.795 10.8359 11.0962ZM10.5959 8.33473C10.5959 7.96234 10.5159 7.61506 10.3679 7.30126L9.67195 7.48117C8.29596 7.92887 7.29196 8.75314 6.69197 9.92469C7.10396 10.3933 7.69596 10.6862 8.34796 10.6862C9.58795 10.6862 10.5959 9.6318 10.5959 8.33473ZM9.15195 6.13389C7.68796 6.63598 6.72797 7.45607 6.09997 8.25523C6.13597 6.99163 7.13196 5.9749 8.34796 5.9749C8.63195 5.97908 8.90395 6.03347 9.15195 6.13389ZM4.37998 7.11297C4.38398 7.23431 4.38398 7.4728 4.28398 7.72385C4.43198 7.69038 4.57998 7.60669 4.69998 7.5272L4.69999 7.52719C4.73599 7.50627 4.77198 7.48535 4.81198 7.46862C4.96398 6.78243 5.29598 6.16736 5.75197 5.67782C5.73597 5.61088 5.72397 5.53975 5.72397 5.46862V4.8159C5.72397 4.42678 5.42398 4.11297 5.05198 4.11297C4.67998 4.11297 4.37998 4.42678 4.37998 4.8159V7.11297Z" fill="#000033"/>
</svg>
