<svg width="24" height="24" viewBox="0 0 24 24" fill="none" xmlns="http://www.w3.org/2000/svg">
<path fill-rule="evenodd" clip-rule="evenodd" d="M19.7725 2H14.5877C13.3649 2 12.3649 3.01257 12.3649 4.25069V4.625H4.22275C3 4.625 2 5.63757 2 6.87569V20.7493C2 21.9874 3 23 4.22275 23H14.5924C15.8152 23 16.8152 21.9874 16.8152 20.7493V17.0014H19.7773C21 17.0014 22 15.9888 22 14.7507V4.25069C21.9953 3.01257 20.9953 2 19.7725 2ZM13.8483 5.75274H20.5118V13.2486H13.8483V5.75274ZM19.7725 3.50206H14.5877C14.1801 3.50206 13.8483 3.83798 13.8483 4.25069V4.625H20.5118V4.25069C20.5118 3.83798 20.1801 3.50206 19.7725 3.50206ZM4.22275 6.12706H12.3697V7.25H3.47867V6.87569C3.47867 6.50137 3.84834 6.12706 4.22275 6.12706ZM4.22275 21.4979H14.5877C14.9573 21.4979 15.327 21.1236 15.3318 20.7493V20.375H3.48341V20.7493C3.48341 21.1236 3.85308 21.4979 4.22275 21.4979ZM15.327 19.2473H3.47867V8.37774H12.3649V14.7507C12.3649 15.9888 13.3649 17.0014 14.5877 17.0014H15.327V19.2473ZM14.5877 15.4993H19.7725C20.1801 15.4993 20.5118 15.1634 20.5118 14.7507V14.3764H13.8483V14.7507C13.8483 15.1634 14.1801 15.4993 14.5877 15.4993Z" fill="#000033"/>
</svg>
