<svg width="24" height="24" viewBox="0 0 24 24" fill="none" xmlns="http://www.w3.org/2000/svg">
<path fill-rule="evenodd" clip-rule="evenodd" d="M20.3833 6.34159C19.4948 6.34159 18.7712 7.0729 18.7712 7.97084C18.7712 8.22078 18.8308 8.45684 18.9315 8.66975L14.1502 13.502L12.7625 12.0995L19.6964 5.09188C19.907 5.19371 20.1406 5.25388 20.3879 5.25388C21.2764 5.25388 22 4.52256 22 3.62462C22 2.72668 21.2718 2.00463 20.3833 2.00463C19.4948 2.00463 18.7712 2.73594 18.7712 3.63388C18.7712 3.88382 18.8308 4.11988 18.9315 4.33279L12.0023 11.3358L10.6146 9.93335L15.4005 5.09651C15.6112 5.19833 15.8447 5.2585 16.0921 5.2585C16.9805 5.2585 17.7041 4.52719 17.7041 3.62925C17.7041 2.73131 16.9805 2 16.0921 2C15.2036 2 14.48 2.73131 14.48 3.62925C14.48 3.87919 14.5395 4.11525 14.6403 4.32816L9.85436 9.16501L9.70781 9.01689C9.44676 8.75307 9.10327 8.60958 8.73689 8.60958C8.37051 8.60958 8.02244 8.75307 7.76139 9.01689L2 14.8628L9.68491 22L15.0433 16.3717C15.5791 15.8301 15.5791 14.9461 15.0433 14.4045L14.9105 14.2703L19.6964 9.43346C19.907 9.53529 20.1406 9.59546 20.3879 9.59546C21.2764 9.59546 22 8.86415 22 7.96621C22 7.06827 21.2718 6.34159 20.3833 6.34159ZM20.3833 3.08771C20.681 3.08771 20.9192 3.33302 20.9192 3.62925C20.9192 3.92548 20.681 4.17079 20.3833 4.17079C20.0856 4.17079 19.8475 3.92548 19.8475 3.62925C19.8475 3.33302 20.0902 3.08771 20.3833 3.08771ZM16.6279 3.62925C16.6279 3.33302 16.3897 3.08771 16.0921 3.08771C15.7944 3.08771 15.5562 3.33302 15.5562 3.62925C15.5562 3.92548 15.7944 4.17079 16.0921 4.17079C16.3897 4.17079 16.6279 3.92548 16.6279 3.62925ZM9.62079 19.9773L4.06549 14.8165L8.73689 10.0768L13.9899 15.3904L9.62079 19.9773ZM19.8475 7.97084C19.8475 8.26707 20.0856 8.51238 20.3833 8.51238C20.681 8.51238 20.9192 8.26707 20.9192 7.97084C20.9192 7.67461 20.6764 7.4293 20.3833 7.4293C20.0902 7.4293 19.8475 7.67461 19.8475 7.97084Z" fill="#000033"/>
</svg>
