<svg width="24" height="24" viewBox="0 0 24 24" fill="none" xmlns="http://www.w3.org/2000/svg">
<path fill-rule="evenodd" clip-rule="evenodd" d="M17.5529 5.07373C19.9964 5.07373 21.996 7.15057 21.996 9.68847L22 16.9948C22 17.4143 21.6681 17.7632 21.2601 17.7632C20.8562 17.7632 20.5203 17.4185 20.5203 16.9948V9.68847C20.5203 7.99377 19.1886 6.61059 17.5569 6.61059C15.9252 6.61059 14.5935 7.99792 14.5935 9.68847V17.3853C14.5935 19.8858 12.4819 22 9.96241 22C7.5189 22 5.5193 19.9232 5.5193 17.3853V15.4621C3.4837 15.0758 2 13.2316 2 11.0384V5.84631H3.66367V2.76843C3.66367 2.34476 4.0036 2 4.40752 2C4.81144 2 5.14737 2.34476 5.14737 2.76843V5.84631H7.37093V2.76843C7.37093 2.34476 7.70286 2 8.11478 2C8.5187 2 8.85463 2.34476 8.85463 2.76843V5.84216H10.5183V11.0343C10.5183 13.2274 9.03459 15.0717 6.999 15.4579V17.3811C6.999 19.0758 8.33473 20.459 9.96241 20.459C11.6261 20.459 13.1098 19.0343 13.1098 17.3811V9.68847C13.1098 7.15057 15.1094 5.07373 17.5529 5.07373ZM3.4837 7.37902V11.0343C3.4837 12.6127 4.74745 13.9169 6.26315 13.9169C7.77884 13.9169 9.03859 12.6127 9.03859 11.0343V7.37902H3.4837Z" fill="#000033"/>
</svg>
