<svg width="24" height="24" viewBox="0 0 24 24" fill="none" xmlns="http://www.w3.org/2000/svg">
<path fill-rule="evenodd" clip-rule="evenodd" d="M18.4769 6.53003H15.8231V5.96328C15.8231 3.7721 14.1115 2 12.0038 2C9.89615 2 8.18462 3.77609 8.18462 5.96328V6.53003H5.53077L4 19.6611V19.737C4 21.094 4.72692 22 5.81538 22H18.1846C19.2769 22 20 21.094 20 19.737L18.4769 6.53003ZM9.63846 5.96328C9.63846 4.60627 10.6923 3.50868 12.0038 3.50868C13.3154 3.50868 14.3692 4.60227 14.3692 5.96328V6.53003H9.63846V5.96328ZM5.81923 20.4913H18.1846C18.5115 20.4913 18.55 20.0004 18.5538 19.7769L17.2077 8.04271H6.84231L5.45769 19.7769C5.45769 20.0004 5.49231 20.4913 5.81923 20.4913Z" fill="#000033"/>
</svg>
