<svg width="24" height="24" viewBox="0 0 24 24" fill="none" xmlns="http://www.w3.org/2000/svg">
<path fill-rule="evenodd" clip-rule="evenodd" d="M17.972 17.364C18.004 17.36 18.04 17.36 18.076 17.36C19.352 17.36 20.388 18.388 20.388 19.656C20.388 20.924 19.356 21.948 18.072 21.948C16.796 21.948 15.756 20.924 15.756 19.656C15.756 19.344 15.82 19.044 15.936 18.772H9.932C10.048 19.044 10.112 19.344 10.112 19.656C10.112 20.92 9.072 21.948 7.796 21.948C6.52 21.948 5.48 20.924 5.48 19.656C5.48 18.62 6.168 17.748 7.12 17.46L3.708 4.132C3.628 3.82 3.348 3.6 3.028 3.6H2.704C2.316 3.6 2 3.284 2 2.896C2 2.508 2.316 2.192 2.704 2.192H3.028C3.996 2.192 4.84 2.848 5.08 3.788L5.212 4.312H22L19.348 14.888H7.916L8.548 17.36H17.92C17.928 17.36 17.937 17.361 17.946 17.362L17.946 17.362L17.946 17.362C17.955 17.363 17.964 17.364 17.972 17.364ZM18.248 13.484L20.188 5.72H5.572L7.556 13.484H18.248ZM8.444 20.268C8.272 20.44 8.044 20.536 7.8 20.536C7.3 20.536 6.892 20.14 6.892 19.656C6.892 19.42 6.984 19.204 7.152 19.036C7.32 18.864 7.548 18.768 7.796 18.768C8.296 18.768 8.704 19.164 8.704 19.648C8.704 19.884 8.616 20.104 8.444 20.268ZM18.076 20.536C18.324 20.536 18.552 20.44 18.72 20.268C18.892 20.104 18.984 19.884 18.98 19.648C18.98 19.164 18.572 18.768 18.072 18.768C17.824 18.768 17.596 18.864 17.428 19.036C17.26 19.204 17.168 19.42 17.168 19.656C17.168 20.14 17.576 20.536 18.076 20.536Z" fill="#000033"/>
</svg>
