<svg width="24" height="24" viewBox="0 0 24 24" fill="none" xmlns="http://www.w3.org/2000/svg">
<path fill-rule="evenodd" clip-rule="evenodd" d="M20 9.92897C20 5.56089 16.4191 2 12.0047 2C7.59022 2 4 5.55627 4 9.92897V21.1006C4 21.4972 4.32596 21.8201 4.72643 21.8201C5.12689 21.8201 5.45285 21.4972 5.45285 21.1006V9.92897C5.45285 6.35424 8.39115 3.44373 12 3.44373C15.6088 3.44373 18.5471 6.35424 18.5471 9.92897V21.1006C18.5471 21.4972 18.8731 21.8201 19.2736 21.8201C19.674 21.8201 20 21.4972 20 21.1006V9.92897ZM17.4761 21.8432C17.6903 21.631 17.6903 21.2897 17.4761 21.0775L15.4831 19.1079C16.4889 19.0018 17.2712 18.1577 17.2712 17.1384V8.84963C17.2712 7.75646 16.3725 6.86624 15.2689 6.86624H8.72177C7.61816 6.86624 6.71944 7.75646 6.71944 8.84963V17.1338C6.71944 18.1531 7.5064 18.9972 8.50757 19.1033L6.51455 21.0775C6.30035 21.2897 6.30035 21.631 6.51455 21.8432C6.62165 21.9493 6.76135 22 6.90105 22C7.04075 22 7.18044 21.9493 7.28754 21.8432L10.0396 19.1172H13.9511L16.7031 21.8432C16.8102 21.9493 16.9499 22 17.0896 22C17.2293 22 17.369 21.9493 17.4761 21.8432ZM16.177 15.8745C16.177 15.6762 16.014 15.5148 15.8137 15.5148C15.6135 15.5148 15.4505 15.6762 15.4505 15.8745C15.4505 16.0729 15.6135 16.2343 15.8137 16.2343C16.014 16.2343 16.177 16.0729 16.177 15.8745ZM7.81374 12.2721V8.84963C7.81374 8.35148 8.21886 7.95018 8.72177 7.95018H15.2736C15.7718 7.95018 16.1816 8.35148 16.1816 8.84963V12.2721H7.81374ZM8.72177 18.0378H15.2689C15.7253 18.0378 16.0978 17.7057 16.163 17.2721C16.0512 17.2998 15.9348 17.3183 15.8137 17.3183C15.0128 17.3183 14.3609 16.6725 14.3609 15.8792C14.3609 15.0858 15.0128 14.44 15.8137 14.44C15.9395 14.44 16.0605 14.4631 16.1769 14.4908V13.3607H7.81374V14.4908C7.93015 14.4585 8.05122 14.44 8.17695 14.44C8.97788 14.44 9.6298 15.0858 9.6298 15.8792C9.6298 16.6725 8.97788 17.3183 8.17695 17.3183C8.05588 17.3183 7.93946 17.2998 7.82771 17.2721C7.8929 17.7057 8.26542 18.0378 8.72177 18.0378ZM8.54016 15.8745C8.54016 16.0729 8.37718 16.2343 8.17695 16.2343C7.97672 16.2343 7.81374 16.0729 7.81374 15.8745C7.81374 15.6762 7.97672 15.5148 8.17695 15.5148C8.37718 15.5148 8.54016 15.6762 8.54016 15.8745Z" fill="#000033"/>
</svg>
