<svg xmlns="http://www.w3.org/2000/svg" width="40" height="40" viewBox="0 0 40 40">
    <path d="M20 0c11.046 0 20 8.955 20 20 0 11.046-8.954 20-20 20S0 31.046 0 20C0 8.955 8.954 0 20 0zm0 10.25l-.143.007c-.567.057-1.093.45-1.3.977l-1.996 5.062h-4.772c-.609 0-1.2.42-1.43 1.002l-.048.145c-.153.54-.012 1.167.366 1.564l3.713 3.886-1.844 4.674c-.22.56-.082 1.263.34 1.705l.104.1c.436.375 1.083.488 1.604.262l5.403-2.416 5.401 2.413c.573.248 1.285.095 1.718-.362l.1-.115c.341-.44.44-1.074.239-1.587l-1.846-4.674 3.713-3.886c.413-.433.543-1.138.319-1.707l-.06-.132c-.261-.514-.808-.872-1.37-.872h-4.773l-1.996-5.064c-.225-.57-.822-.982-1.442-.982zm0 1.5l.047.033 2.183 5.538c.113.287.39.475.698.475h5.283c-.02 0 .026.033.035.054.012.03-.004.117-.009.122l-4.044 4.232c-.202.212-.263.521-.155.794l2.022 5.12c.005.013-.012.098-.03.116l-.03.015c-.004.003-.004.006.002.009l-5.699-2.546c-.195-.087-.417-.087-.612 0l-5.701 2.55c.027-.012-.014-.021-.018-.025-.02-.021-.037-.106-.031-.12l2.022-5.12c.107-.272.047-.581-.156-.793l-4.045-4.233c-.004-.004-.02-.09-.008-.12.009-.022.055-.055.035-.055h5.283c.308 0 .585-.188.698-.475l2.184-5.539.046-.032z"/>
</svg>
