<svg xmlns="http://www.w3.org/2000/svg" width="40" height="40" viewBox="0 0 40 40">
    <path d="M20 0c12.667 0 20 6.346 20 20s-7.333 20-20 20S0 33.654 0 20 7.333 0 20 0zm-8.677 10.892l-.225.21-.134.138-.135.153c-.186.22-.454.58-.39.508-1.798 2.595.094 7.473 4.774 12.26l.354.357c4.875 4.876 9.888 6.876 12.456 5.103l.104-.087c-.067.067.254-.172.48-.364l.152-.134.184-.18c1.762-1.844 1.726-3.757-.01-5.493-.346-.346-.702-.626-1.069-.84-1.49-.928-3.097-.655-4.535.781l-.11.112c-.07.072-.13.138-.192.211l-.147.178.022-.012c-.209.192-1.478-.656-3.326-2.448l-.503-.496-.211-.213c-1.797-1.825-2.717-3.125-2.677-3.48l.007-.035.072-.057c.17-.14.283-.242.433-.393 1.435-1.437 1.708-3.044.767-4.555-.2-.346-.48-.702-.826-1.048-1.68-1.682-3.526-1.77-5.315-.176zm4.254 1.236c.259.259.458.512.6.759.567.91.423 1.758-.542 2.725l-.157.15c-.076.07-.158.138-.288.24l-.085.08c-1.095 1.185-.15 2.71 2.455 5.37l.535.54c2.938 2.939 4.57 4.06 5.824 2.903l.081-.088c.16-.203.234-.287.389-.442.967-.965 1.815-1.11 2.703-.556.269.157.523.357.78.614 1.117 1.117 1.179 2.067.125 3.248l-.164.175-.124.117-.132.112-.405.314c-1.74 1.199-5.947-.44-10.274-4.664l-.356-.353-.268-.27c-4.135-4.236-5.792-8.357-4.732-10.161l.068-.11c.037-.052.248-.332.361-.465l.064-.073.145-.152c1.252-1.195 2.234-1.177 3.397-.013z"/>
</svg>
