<svg xmlns="http://www.w3.org/2000/svg" width="40" height="40" viewBox="0 0 40 40">
    <path d="M20 0c11.046 0 20 8.955 20 20 0 11.046-8.954 20-20 20S0 31.046 0 20C0 8.955 8.954 0 20 0zm5.44 9.336c-2.914-.007-5.281 2.348-5.288 5.261l.009.325c.006.107.015.214.028.32l.029.203-9.995 9.996c-.13.13-.299.34-.465.619-.655 1.1-.686 2.347.313 3.465l.16.17c1.19 1.19 2.523 1.208 3.688.518.16-.094.301-.194.43-.297l.118-.099.054-.028c.007-.005-.001-.004-.034.007l.05-.042 9.956-9.957.101.02c.27.043.544.067.815.068 2.915.007 5.283-2.348 5.29-5.26.002-.767-.161-1.525-.47-2.205l-.049-.09c-.25-.4-.82-.476-1.165-.13l-1.993 1.996-1.036-.149-.119-.991 2.01-2.013c.367-.368.257-.989-.213-1.209-.691-.323-1.448-.495-2.224-.498zm-.005 1.5l.238.008.118.01.138.016-1.38 1.386c-.162.162-.241.39-.214.618l.23 1.923c.04.337.302.605.638.654l1.977.284.117.007c.194-.002.381-.08.52-.22l1.355-1.357.02.22c.005.078.007.156.007.235-.005 2.085-1.7 3.77-3.784 3.765-.319-.001-.65-.047-.969-.132-.258-.07-.534.005-.724.194L13.477 28.693l-.15.1c-.104.074-.175.131-.172.13-.586.347-1.139.361-1.742-.174l-.133-.127c-.6-.608-.6-1.18-.233-1.795.097-.163.191-.28.24-.327L21.56 16.225c.185-.186.26-.454.198-.709-.072-.295-.108-.6-.107-.915.005-2.02 1.595-3.664 3.59-3.76l.193-.005z"/>
</svg>
