<svg xmlns="http://www.w3.org/2000/svg" width="24" height="24" viewBox="0 0 24 24">
    <path d="M18.914 2.5c.326 0 .614.21.714.52l1.764 5.486c.025.074.037.151.037.229 0 1.12-.751 2.07-1.776 2.369v6.608c0 2.067-1.684 3.75-3.75 3.75l-3.76.001c-.072.023-.15.036-.229.036-.08 0-.157-.013-.229-.036l-3.784-.001c-2.067 0-3.75-1.683-3.75-3.75v-6.686C3.243 10.662 2.6 9.772 2.6 8.735c0-.069.009-.139.028-.206l1.564-5.485c.093-.323.387-.544.722-.544h14zm-8.637 7.984c-.446.443-1.06.718-1.737.718s-1.291-.275-1.737-.718c-.314.31-.71.539-1.151.647v6.58c0 1.24 1.01 2.25 2.25 2.25h3.262v-8.91c-.336-.125-.637-.32-.887-.567zm3.475 0c-.298.296-.672.517-1.09.631v8.846h3.24c1.24 0 2.25-1.01 2.25-2.25v-6.646c-.352-.123-.667-.323-.926-.58-.447.442-1.061.717-1.738.717s-1.291-.275-1.736-.718zm-4.838 3c.285 0 .516.23.516.515v1.5c0 .286-.231.516-.516.516-.285 0-.516-.23-.516-.516V14c0-.285.231-.515.516-.515zm6 0c.285 0 .516.23.516.515v1.5c0 .286-.231.516-.516.516-.285 0-.516-.23-.516-.516V14c0-.285.231-.515.516-.515zM18.367 4H5.48L4.103 8.825c.046.491.46.877.962.877.534 0 .967-.434.967-.967 0-.414.336-.75.75-.75s.792.336.792.75c0 .533.434.967.966.967s.966-.434.966-.967c0-.414.336-.75.75-.75s.792.336.792.75c0 .533.433.967.967.967.532 0 .965-.434.965-.967 0-.414.336-.75.75-.75s.792.336.792.75c0 .533.434.967.966.967.533 0 .967-.434.967-.967 0-.414.336-.75.75-.75h.041c.414 0 .75.336.75.75 0 .533.434.967.967.967.498 0 .91-.38.961-.865L18.367 4z"/>
</svg>
