<svg xmlns="http://www.w3.org/2000/svg" width="24" height="24" viewBox="0 0 24 24">
    <path d="M9.232 14.849c2.766 0 4.796.726 6.032 2.159 1.514 1.754 1.216 3.892 1.204 3.982-.055.368-.37.64-.742.64H2.778c-.371 0-.685-.27-.742-.635-.013-.091-.326-2.231 1.179-3.987 1.228-1.433 3.252-2.16 6.018-2.16zm0 1.5c-2.296 0-3.934.545-4.866 1.62-.635.734-.814 1.59-.855 2.16h11.475c-.046-.568-.232-1.423-.872-2.156-.94-1.077-2.583-1.624-4.882-1.624zm6.104-7.333c2.227 0 3.888.611 4.937 1.812 1.4 1.602 1.14 3.642 1.13 3.728-.044.322-.32.562-.645.562H15.42c-.36 0-.65-.29-.65-.65 0-.36.29-.65.65-.65h4.699c-.037-.557-.203-1.429-.834-2.145-.794-.9-2.121-1.356-3.949-1.356-.359 0-.65-.29-.65-.65 0-.36.291-.65.65-.65zM9.25 5.505c2.67 0 4.203 1.532 4.203 4.203 0 2.67-1.532 4.203-4.203 4.203-2.671 0-4.203-1.532-4.203-4.203 0-2.671 1.532-4.203 4.203-4.203zm0 1.5c-1.87 0-2.703.834-2.703 2.703 0 1.869.834 2.703 2.703 2.703 1.869 0 2.703-.834 2.703-2.703 0-1.87-.834-2.703-2.703-2.703zM16.75 2c1.949 0 3.067 1.118 3.067 3.068 0 1.949-1.118 3.067-3.067 3.067-1.95 0-3.067-1.118-3.067-3.067C13.683 3.118 14.8 2 16.75 2zm0 1.3c-1.238 0-1.767.529-1.767 1.768 0 1.238.529 1.766 1.767 1.766s1.767-.528 1.767-1.766c0-1.24-.53-1.767-1.767-1.767z"/>
</svg>
