<svg xmlns="http://www.w3.org/2000/svg" width="40" height="40" viewBox="0 0 40 40">
    <path d="M19.995 0C31.038 0 39.99 8.952 39.99 19.995c0 11.043-8.952 19.995-19.995 19.995C8.952 39.99 0 31.038 0 19.995 0 8.952 8.952 0 19.995 0zm.049 26.987c-1.104 0-2 .896-2 2s.896 2 2 2 2-.896 2-2-.896-2-2-2zm.029-7.196c-1.3 0-2.56.26-3.741.772-1.091.472-2.074 1.141-2.917 1.987-.293.293-.292.768.001 1.06.294.293.768.292 1.061-.001.71-.711 1.534-1.273 2.45-1.67.994-.43 2.051-.648 3.146-.648 1.069 0 2.104.21 3.078.623.906.381 1.72.92 2.427 1.607.297.289.772.282 1.06-.015.29-.297.283-.772-.014-1.06-.84-.817-1.813-1.461-2.889-1.914-1.158-.491-2.392-.74-3.662-.74zm.006-5.736c-1.946 0-3.837.385-5.616 1.142-1.68.718-3.194 1.74-4.497 3.034l-.114.136c-.23.345-.136.81.208 1.04.282.188.645.16.894-.045l.394-.379c1.092-1.013 2.336-1.822 3.704-2.406 1.591-.678 3.283-1.022 5.027-1.022 1.724 0 3.396.337 4.974 1.002 1.492.627 2.834 1.52 3.993 2.657.296.29.77.285 1.06-.01.29-.296.286-.771-.01-1.061-1.294-1.269-2.795-2.268-4.46-2.969-1.764-.742-3.634-1.119-5.557-1.119zm.005-5.735c-2.597 0-5.12.51-7.491 1.515-2.279.966-4.327 2.343-6.09 4.095l-.026.026-.072.084c-.218.294-.194.71.072.977.293.293.768.293 1.06 0l.378-.366c1.544-1.454 3.31-2.608 5.263-3.435 2.186-.926 4.51-1.396 6.906-1.396 2.38 0 4.69.464 6.87 1.379 2.082.877 3.952 2.123 5.559 3.707.295.29.77.287 1.06-.008.291-.295.288-.77-.007-1.06-1.743-1.718-3.772-3.071-6.032-4.022-2.363-.992-4.87-1.496-7.45-1.496z"/>
</svg>
