<svg xmlns="http://www.w3.org/2000/svg" width="24" height="24" viewBox="0 0 24 24">
    <path d="M12 0c6.627 0 12 5.373 12 12 0 6.628-5.373 12-12 12S0 18.628 0 12C0 5.373 5.373 0 12 0zM16.879 5.2H7.121l-.182.004c-1.432.066-2.297.92-2.297 2.39v8.81l.004.18c.072 1.418.996 2.214 2.475 2.214h9.758l.182-.004c1.431-.066 2.297-.92 2.297-2.39v-8.81l-.004-.18c-.072-1.419-.997-2.214-2.475-2.214zm0 1.3c.845 0 1.179.307 1.179 1.094v8.81l-.004.142c-.04.682-.383.952-1.175.952H7.121l-.153-.004c-.733-.036-1.026-.352-1.026-1.09v-8.81l.004-.142c.04-.683.382-.952 1.175-.952zm-8.972 7.842c-.425 0-.67.203-.67.638 0 .437.245.639.67.639.424 0 .67-.202.67-.639 0-.435-.246-.638-.67-.638zm8.385-.075h-5.834l-.096.007c-.313.046-.554.316-.554.643 0 .359.291.65.65.65h5.834l.096-.007c.313-.047.554-.317.554-.643 0-.36-.291-.65-.65-.65zm0-2.922h-5.834l-.096.007c-.313.046-.554.317-.554.643 0 .359.291.65.65.65h5.834l.096-.007c.313-.046.554-.317.554-.643 0-.359-.291-.65-.65-.65zm-8.385.015c-.425 0-.67.204-.67.638 0 .438.245.64.67.64.424 0 .67-.202.67-.64 0-.434-.246-.638-.67-.638zm8.385-2.935h-5.834l-.096.007c-.313.046-.554.317-.554.643 0 .359.291.65.65.65h5.834l.096-.007c.313-.046.554-.317.554-.643 0-.359-.291-.65-.65-.65zm-8.385-.012c-.425 0-.67.203-.67.64 0 .435.245.638.67.638.424 0 .67-.203.67-.639s-.246-.639-.67-.639z"/>
</svg>
