<svg xmlns="http://www.w3.org/2000/svg" width="40" height="40" viewBox="0 0 40 40">
    <path d="M19.995 0C31.038 0 39.99 8.952 39.99 19.995c0 11.043-8.952 19.995-19.995 19.995C8.952 39.99 0 31.038 0 19.995 0 8.952 8.952 0 19.995 0zm8.53 8.248h-17l-.167.006c-1.44.086-2.583 1.283-2.583 2.745v2.25h-.25l-.167.005c-1.44.086-2.583 1.283-2.583 2.745v13l.005.167c.087 1.44 1.283 2.583 2.745 2.583h7l.168-.005c1.44-.087 2.582-1.283 2.582-2.745v-2.25h7v2.25l.005.167c.087 1.44 1.283 2.583 2.745 2.583h4l.168-.005c1.44-.087 2.582-1.283 2.582-2.745v-10l-.005-.168c-.087-1.44-1.283-2.582-2.745-2.582h-.75v-5.25l-.005-.168c-.087-1.44-1.283-2.582-2.745-2.582zm-13 6.5c.69 0 1.25.56 1.25 1.25v13l-.006.128c-.064.63-.597 1.123-1.244 1.123h-7l-.128-.007c-.63-.064-1.122-.597-1.122-1.243v-13l.007-.128c.064-.63.596-1.122 1.243-1.122zm16.5 3c.69 0 1.25.56 1.25 1.25v10l-.006.128c-.064.63-.597 1.123-1.244 1.123h-4l-.128-.007c-.63-.064-1.122-.597-1.122-1.243v-10l.007-.128c.064-.63.596-1.122 1.243-1.122zm-9.51 10.468h-2.032l-.102.007c-.366.05-.648.363-.648.743 0 .414.336.75.75.75h2.031l.102-.007c.366-.05.648-.363.648-.743 0-.414-.336-.75-.75-.75zm-10.49-3.201c-.553 0-1 .448-1 1s.447 1 1 1c.553 0 1-.448 1-1s-.447-1-1-1zm18 0c-.553 0-1 .448-1 1s.447 1 1 1c.553 0 1-.448 1-1s-.447-1-1-1zm-1.5-15.267l.128.007c.63.064 1.122.597 1.122 1.243v5.25h-1.75l-.167.006c-1.44.086-2.583 1.283-2.583 2.745v6.25h-7v-9.25l-.005-.168c-.087-1.44-1.283-2.582-2.745-2.582h-5.25v-2.25l.007-.128c.064-.63.596-1.123 1.243-1.123h17z"/>
</svg>
