<svg xmlns="http://www.w3.org/2000/svg" width="24" height="24" viewBox="0 0 24 24">
    <path d="M12 0c6.627 0 12 5.373 12 12 0 6.628-5.373 12-12 12S0 18.628 0 12C0 5.373 5.373 0 12 0zm5.994 11.291c-.345 0-.625.28-.625.625v2.783l-.007.132c-.067.695-.658 1.241-1.378 1.241H8.602l.001-1.3c0-.191-.224-.291-.367-.166l-2.128 1.896c-.098.087-.099.239-.002.327l2.128 1.942c.142.129.37.029.37-.164l-.002-1.286 7.382.001.166-.005c1.377-.086 2.469-1.225 2.469-2.618v-2.783l-.007-.092c-.045-.302-.304-.533-.618-.533zm-4.51-1.525H10.49l-.092.007c-.302.045-.533.305-.533.618 0 .346.28.625.625.625h.86v2.84l.007.092c.045.301.305.533.619.533.345 0 .625-.28.625-.625v-2.84h.881l.093-.006c.3-.045.532-.305.532-.619 0-.345-.28-.625-.625-.625zm2.31-4.307c-.141-.129-.368-.029-.368.164v1.284l-7.38.001-.167.005C6.502 7 5.411 8.138 5.411 9.531v2.335l.006.092c.045.302.305.533.619.533.345 0 .625-.28.625-.625V9.531l.006-.132c.067-.695.658-1.241 1.379-1.241h7.38v1.3c0 .191.224.291.367.166l2.128-1.896c.098-.087.099-.239.002-.327z"/>
</svg>
