<svg xmlns="http://www.w3.org/2000/svg" width="40" height="40" viewBox="0 0 40 40">
    <path d="M20 0c12.667 0 20 6.346 20 20s-7.333 20-20 20S0 33.654 0 20 7.333 0 20 0zm6.58 10.957H13.45l-.205.004c-1.883.074-3.007 1.172-3.007 3.093v11.854l.005.203c.08 1.862 1.27 2.894 3.206 2.894H26.58l.205-.004c1.882-.073 3.006-1.172 3.006-3.093V14.054l-.004-.202c-.08-1.862-1.27-2.895-3.207-2.895zm0 1.5c1.204 0 1.711.466 1.711 1.597v11.854l-.003.157c-.047 1.018-.561 1.44-1.708 1.44H13.45l-.168-.003c-1.084-.043-1.544-.516-1.544-1.594V14.054l.004-.157c.046-1.018.56-1.44 1.707-1.44zM14.507 23.132c-.571 0-.901.274-.901.86 0 .587.33.86.9.86.572 0 .902-.273.902-.86 0-.585-.33-.86-.901-.86zm11.283.025h-7.851l-.102.007c-.366.05-.648.364-.648.743 0 .414.336.75.75.75h7.851l.102-.007c.366-.05.648-.363.648-.743 0-.414-.336-.75-.75-.75zm-11.283-4.036c-.571 0-.901.274-.901.86 0 .587.33.86.9.86.572 0 .902-.273.902-.86 0-.586-.33-.86-.901-.86zm11.283.106h-7.851l-.102.006c-.366.05-.648.364-.648.744 0 .414.336.75.75.75h7.851l.102-.007c.366-.05.648-.364.648-.743 0-.415-.336-.75-.75-.75zm-11.283-4.071c-.571 0-.901.273-.901.86s.33.859.9.859c.572 0 .902-.272.902-.859s-.33-.86-.901-.86zm11.283.14h-7.851l-.102.008c-.366.05-.648.363-.648.743 0 .414.336.75.75.75h7.851l.102-.007c.366-.05.648-.363.648-.743 0-.414-.336-.75-.75-.75z"/>
</svg>
