<svg xmlns="http://www.w3.org/2000/svg" width="24" height="24" viewBox="0 0 24 24">
    <path d="M12 2c5.522 0 10 4.478 10 10s-4.478 10-10 10S2 17.522 2 12 6.478 2 12 2zm0 1.5c-4.687 0-8.5 3.813-8.5 8.5 0 4.687 3.813 8.5 8.5 8.5 4.687 0 8.5-3.813 8.5-8.5 0-4.687-3.813-8.5-8.5-8.5zM8.258 7.664c.298 0 .545.217.592.502l.008.098-.001 2.056h1.397c.331 0 .6.269.6.6 0 .298-.218.546-.503.592l-.097.008H8.857v3.529c0 .471.175.704.619.738l.138.004c.233-.003.494-.04.758-.1l.251-.066.107-.033c.313-.109.655.057.763.37.108.314-.058.655-.371.764l-.152.048c-.09.027-.2.056-.327.085-.257.06-.515.102-.768.12l-.282.012c-1.171 0-1.867-.725-1.93-1.781l-.005-.161-.001-3.53-.735.001c-.331 0-.6-.269-.6-.6 0-.298.217-.546.503-.592l.097-.008h.735V8.264c0-.332.27-.6.6-.6zm4.675-.625c.298 0 .545.217.592.502l.008.098-.001 5.279 2.985-3.002c.234-.235.613-.236.848-.003.21.208.233.531.072.766l-.07.083-2.067 2.079 2.142 3.215c.183.276.109.648-.167.832-.248.165-.575.121-.771-.09l-.061-.077-2.006-3.012-.905.91v1.769c0 .331-.268.6-.6.6-.298 0-.545-.218-.592-.503l-.007-.097v-1.954c-.004-.038-.005-.077-.001-.115V7.64c0-.332.27-.6.6-.6z"/>
</svg>
