<svg xmlns="http://www.w3.org/2000/svg" width="24" height="24" viewBox="0 0 24 24">
    <path d="M12 0c6.627 0 12 5.373 12 12 0 6.628-5.373 12-12 12S0 18.628 0 12C0 5.373 5.373 0 12 0zM8.043 2.272c-.208-.182-.524-.16-.706.048-.181.208-.16.524.048.705.072.063.167.15.271.248l.216.21.132.139.193.217c.023.024.039.036.046.033v.012l-.12.79c-.07.527-.044.817.21 1.068.27.267 3.056 1.72 3.408 1.827l.05.014c.127.034.225.034.491-.006l.66-.11c.157-.022.255-.03.301-.025.916.217 4.067 2.507 4.16 2.765l.047.095.03.073c.146.528-.324 2.613-.693 3.058-.122.147-.2.198-.46.324l-.144.073c-.272.146-.445.292-.625.563-.058.087-.108.18-.15.276-.054.121-.095.245-.13.381l-.046.203-.296.013-.106.012c-.259.036-.434.107-.54.37-.069.167-.061.218.002.493l.117.465-.115.016c-.232.045-.398.165-.496.437-.046.124-.05.198-.016.47l.25 1.71c.03.216.053.405.071.57l.003.033-.234-.109c-.367-.172-.524-.279-.54-.32l-.015-.045c-.005-.015-.01-.033-.016-.06l-.573-3.593c-.265-1.664-.403-2.358-.564-2.598-.078-.116-.19-.245-.387-.443l-1.192-1.157-.214-.217c-.024-.056-.039-.205-.034-.427l.017-.388c.003-.064.076-.275.207-.578l.27-.613c.12-.285.152-.386.114-.572-.056-.265-.126-.346-.695-.628l-.742-.357-2.603-1.2c-.684-.324-1.173-.568-1.347-.663l-.07-.042c.018.03.037-.182.105-.446.027-.103.059-.212.095-.326l.083-.246.104-.276c.104-.256-.02-.547-.275-.65-.256-.105-.548.019-.651.274-.055.134-.134.346-.213.593l-.059.193-.052.186c-.14.542-.173.915.006 1.213.152.253.558.493 1.754 1.054l2.528 1.162.613.29.333.169-.289.66c-.136.33-.206.556-.215.757l-.015.328-.004.255c.004.272.036.486.118.677.06.138.128.233.397.502l.915.882c.336.324.51.505.568.591.032.049.187.848.378 2.024l.43 2.746.125.753c.038.21.069.359.097.462l.031.103c.12.321.332.509.746.726l.308.151.34.159c.202.098.33.17.433.248.409.308.806.028.892-.359.03-.132.034-.294.024-.509-.012-.223-.04-.5-.086-.85l-.063-.456-.188-1.267.133-.005c.217-.023.401-.105.505-.347.077-.18.075-.315.002-.639l-.09-.364.183-.013c.124-.015.202-.043.303-.102.227-.132.288-.28.356-.59l.082-.353c.006-.022.013-.04.02-.057l.059-.127.036-.06c.077-.115.136-.169.278-.243l.245-.123c.279-.144.44-.266.643-.51l.083-.11c.605-.893 1.133-3.436.655-4.19l-.036-.053c-.585-.792-3.655-2.983-4.847-3.262-.255-.03-.462-.007-.854.06l-.507.085c-.019.005-.025.008-.017.01-.212-.064-2.858-1.445-2.997-1.581.064.063.062-.123.1-.372l.096-.6c.012-.095.016-.154.013-.213l-.009-.093c-.03-.258-.194-.484-.5-.813-.048-.052-.1-.105-.153-.16l-.121-.12c-.08-.078-.157-.151-.228-.217z"/>
</svg>
