<svg xmlns="http://www.w3.org/2000/svg" width="40" height="40" viewBox="0 0 40 40">
    <path d="M20 0l.395.002C33.107.14 40 6.917 40 20c0 13.218-7.036 20-20 20S0 33.218 0 20C0 6.917 6.893.14 19.605.002L20 0zm0 1.446l-.387.002C7.688 1.578 1.446 7.725 1.446 20c0 12.407 6.377 18.554 18.554 18.554S38.554 32.407 38.554 20c0-12.275-6.242-18.423-18.167-18.552L20 1.446zm9.78 9.86c.414-.001.75.335.75.749 0 .38-.281.693-.647.743l-.102.007-18.802.014-.007.005 8.079 7.61c.485.46 1.21.546 1.785.227l.13-.08 7.6-5.277c.767-.506 1.78 0 1.863.887l.005.118v9.625c0 1.53-1.195 2.78-2.703 2.866l-.169.005H12.348c-1.529 0-2.779-1.195-2.866-2.702l-.005-.169V12.991l-.004-.045c-.056-.772.495-1.549 1.372-1.621l.134-.006 18.8-.014zm-18.803 3.589v11.04c0 .712.544 1.298 1.24 1.364l.131.006h15.214c.713 0 1.3-.544 1.366-1.239l.006-.132v-9.06l-7.113 4.939c-1.123.778-2.621.704-3.656-.16l-.145-.129-7.043-6.629z"/>
</svg>
