<svg xmlns="http://www.w3.org/2000/svg" width="41" height="41" viewBox="0 0 41 41">
    <path d="M20.994 1c11.043 0 19.995 8.952 19.995 19.995 0 11.043-8.952 19.995-19.995 19.995C9.951 40.99 1 32.038 1 20.995 1 9.952 9.951 1 20.994 1zm.185 8C13.211 9 9 13.21 9 21.177c0 7.968 4.211 12.179 12.179 12.179s12.179-4.211 12.179-12.179C33.358 13.21 29.147 9 21.179 9zm0 1.5c7.086 0 10.679 3.592 10.679 10.677 0 7.086-3.593 10.679-10.679 10.679S10.5 28.263 10.5 21.177c0-7.085 3.593-10.677 10.679-10.677zm0 15.362c-.604 0-.996.316-.996.996 0 .326.091.568.252.733.174.176.431.262.744.262s.569-.086.744-.262c.16-.165.251-.407.251-.733 0-.68-.391-.996-.995-.996zm0-11.149c-2.034 0-3.689 1.655-3.689 3.688 0 .36.291.651.65.651.359 0 .65-.29.65-.65 0-1.317 1.072-2.388 2.389-2.388 1.316 0 2.388 1.071 2.388 2.387 0 .612-.231 1.194-.576 1.572l-1.817 1.418-.132.124c-.334.343-.523.805-.523 1.29v1.578l.007.096c.046.314.317.554.643.554.36 0 .651-.29.651-.65v-1.579l.008-.095c.021-.126.083-.239.165-.309l1.87-1.468.156-.176c.548-.662.848-1.488.848-2.355 0-2.033-1.655-3.688-3.688-3.688z"/>
</svg>
