<svg xmlns="http://www.w3.org/2000/svg" width="24" height="24" viewBox="0 0 24 24">
    <path d="M12 0c6.627 0 12 5.372 12 12 0 6.627-5.373 12-12 12S0 18.627 0 12C0 5.372 5.373 0 12 0zM5.5 4.85c-.359 0-.65.291-.65.65v13l.007.096c.046.314.317.554.643.554.359 0 .65-.29.65-.65v-13l-.007-.096c-.046-.313-.317-.554-.643-.554zm13 0c-.359 0-.65.291-.65.65v13l.007.096c.046.314.317.554.643.554.359 0 .65-.29.65-.65v-13l-.007-.096c-.046-.313-.317-.554-.643-.554zm-3.45 11.42h-6.1l-.13.005c-.683.066-1.22.644-1.22 1.344v.881l.007.096c.046.314.317.554.643.554.359 0 .65-.29.65-.65v-.88l.007-.025c.01-.015.026-.026.043-.026h6.1l.025.007c.014.01.025.026.025.043v.881l.007.096c.046.314.317.554.643.554.359 0 .65-.29.65-.65v-.88l-.006-.13c-.066-.684-.644-1.22-1.344-1.22zm0-7.508h-6.1l-.13.007c-.683.065-1.22.643-1.22 1.344v3.633l.006.13c.066.683.644 1.22 1.344 1.22h6.1l.13-.007c.683-.065 1.22-.643 1.22-1.344v-3.632l-.006-.13c-.066-.684-.644-1.22-1.344-1.22zm0 1.3c.026 0 .05.024.05.05v3.633l-.007.025c-.01.015-.026.026-.043.026h-6.1l-.024-.008c-.015-.009-.026-.025-.026-.043v-3.632l.007-.025c.01-.015.026-.025.043-.025zm.7-5.212c-.359 0-.65.291-.65.65v.717l-.007.025c-.01.015-.026.025-.043.025h-6.1l-.025-.007c-.014-.009-.025-.025-.025-.043V5.5l-.007-.096c-.046-.313-.317-.554-.643-.554-.359 0-.65.291-.65.65v.717l.006.13c.066.683.644 1.22 1.344 1.22h6.1l.13-.006c.683-.066 1.22-.644 1.22-1.344V5.5l-.007-.096c-.046-.313-.317-.554-.643-.554z"/>
</svg>
