<svg xmlns="http://www.w3.org/2000/svg" width="64" height="64" viewBox="0 0 64 64">
    <path d="M32 4c15.464 0 28 12.536 28 28S47.464 60 32 60 4 47.464 4 32 16.536 4 32 4zM19.59 16.038c-.348 0-.678.138-.927.387l-2.339 2.346c-.244.245-.38.567-.386.91-.006.35.126.678.372.924l1.298 1.302c.24.242.523.43.841.558l1.858.608c.313.103.605.282.844.522l7.235 7.26-5.753 5.771c-.107.108-.394.227-.549.227-.118-.007-.38-.024-.734-.024-1.278 0-3.006.205-3.978 1.18-1.395 1.4-1.424 4.142-1.423 4.451.003.652.437.993.864.993.18 0 .451-.058.727-.336l1.202-1.204c.068-.068.271-.152.42-.152l1.751.25c.036.008.1.071.11.108l.244 1.726c.017.118-.065.367-.149.451L19.916 45.5c-.31.312-.413.704-.272 1.047.141.343.487.55.928.55.313 0 3.054-.04 4.438-1.428 1.423-1.427 1.166-4.465 1.133-4.807.002-.086.123-.379.23-.486l3.203-3.213c.05.054.1.107.151.158l9.325 9.291c.942.946 1.924 1.426 2.916 1.426 1.028-.018 1.991-.499 2.917-1.428l1.63-1.633c.926-.929 1.404-1.895 1.422-2.87.02-1.014-.46-2.017-1.422-2.983l-9.325-9.29c-.05-.053-.104-.104-.156-.152l3.058-3.068c.108-.108.395-.227.55-.227.125.008.413.027.795.027 1.264 0 2.973-.202 3.932-1.165 1.396-1.399 1.425-4.144 1.424-4.452-.002-.652-.436-.993-.864-.993-.179 0-.45.058-.727.336l-1.2 1.204c-.07.07-.273.152-.422.152l-1.752-.248c-.035-.009-.098-.073-.107-.11l-.246-1.726c-.017-.117.066-.366.15-.45l1.201-1.205c.311-.313.414-.703.272-1.046-.14-.343-.487-.549-.928-.55-.312 0-3.053.04-4.438 1.428-1.423 1.427-1.159 4.43-1.125 4.766-.003.083-.123.377-.23.484l-5.67 5.687-7.244-7.268c-.239-.24-.42-.534-.52-.852l-.58-1.802c-.145-.364-.332-.65-.575-.893l-1.296-1.3c-.24-.24-.56-.373-.902-.373z"/>
</svg>
