<svg xmlns="http://www.w3.org/2000/svg" width="40" height="40" viewBox="0 0 40 40">
    <path d="M20 0c12.667 0 20 6.346 20 20s-7.333 20-20 20S0 33.654 0 20 7.333 0 20 0zm6.04 10.02H13.868l-.156.006c-1.131.08-2.03 1.03-2.03 2.181l.033 17.051.007.102c.045.332.309.595.641.64l.116.007.114-.009.11-.025c.073-.023.142-.057.205-.1l2.07-1.445 2.072 1.444.098.058c.103.05.217.077.337.077l.114-.009.11-.025c.073-.023.142-.057.205-.1l2.07-1.445 2.072 1.444.098.058c.103.05.217.077.337.077l.114-.009.11-.025c.073-.023.142-.057.205-.1l2.071-1.445 2.063 1.437.09.053c.485.25 1.089-.099 1.089-.67l-.007-17.041-.006-.156c-.08-1.132-1.029-2.031-2.18-2.031zm0 1.5l.1.008.096.021c.282.086.49.35.49.658l.005 15.605-1.312-.914-.1-.058-.106-.042c-.217-.068-.458-.034-.651.1l-2.075 1.446-2.073-1.445-.1-.06-.107-.041c-.217-.068-.458-.034-.651.1l-2.075 1.446-2.073-1.445-.1-.06-.107-.041c-.217-.068-.458-.034-.651.1l-1.339.933-.03-15.625.008-.1c.05-.329.338-.586.679-.586H26.04zm-6.064 2.244c-.359 0-.65.291-.65.65v.535c-1.39.22-2.256 1.181-2.256 2.573 0 .924.403 2.066 2.257 2.43l.001 2.562c-.44-.097-.88-.293-1.32-.585-.483-.322-1.139.019-1.14.541 0 .25.11.454.328.608.62.433 1.373.717 2.133.812v.524l.007.096c.046.314.316.554.643.554.359 0 .65-.291.65-.65v-.543c1.534-.231 2.457-1.198 2.457-2.638 0-.965-.434-2.164-2.458-2.493v-2.418c.3.07.601.19.915.36.093.047.234.108.396.108.371 0 .671-.301.671-.67 0-.145-.05-.422-.39-.631-.448-.277-.998-.463-1.593-.542v-.533l-.007-.096c-.047-.314-.317-.554-.644-.554zm.653 6.395c.936.233 1.08.672 1.08 1.121 0 .623-.4 1.063-1.08 1.23zm-1.302-3.839l-.002 2.19c-.757-.243-.877-.656-.877-1.046 0-.58.32-.983.88-1.144z"/>
</svg>
