<svg xmlns="http://www.w3.org/2000/svg" width="40" height="40" viewBox="0 0 40 40">
    <path d="M20 0c11.046 0 20 8.954 20 20s-8.954 20-20 20S0 31.046 0 20 8.954 0 20 0zm-.032 16.014h-2.98l-.11.006c-.508.055-.904.485-.904 1.008l.006.11c.055.509.486.904 1.008.904h1.967l.005 8.991-1.966.001-.117.007c-.497.057-.883.48-.883.993 0 .552.448 1 1 1H23l.117-.007c.497-.057.883-.48.883-.993 0-.552-.448-1-1-1h-2.012l-.006-10.007-.006-.11c-.055-.508-.485-.903-1.008-.903zm-.468-5c-.828 0-1.5.67-1.5 1.5 0 .828.672 1.5 1.5 1.5s1.5-.672 1.5-1.5c0-.83-.672-1.5-1.5-1.5z"/>
</svg>
