<svg width="24" height="24" viewBox="0 0 24 24" fill="none" xmlns="http://www.w3.org/2000/svg">
<path fill-rule="evenodd" clip-rule="evenodd" d="M21.6863 5.93143C21.6863 5.15552 21.0308 4.52527 20.2241 4.52527H3.46218C2.65546 4.52527 2 5.15552 2 5.93143V17.881C2 18.6569 2.65546 19.2872 3.46218 19.2872H20.2241C21.0308 19.2872 21.6863 18.6569 21.6863 17.881V5.93143ZM20.4538 5.92863V7.65692H3.23529V5.92863C3.23529 5.80818 3.33613 5.71014 3.46218 5.71014H20.2269C20.3529 5.71014 20.4538 5.80818 20.4538 5.92863ZM20.4538 8.8446V11.895C20.2605 11.9314 20.0812 12.0155 19.9328 12.1499L19.563 12.5057C19.4622 12.472 19.3613 12.4412 19.2577 12.4132V12.0155C19.2577 11.4945 18.8151 11.0687 18.2745 11.0687H17.5882C17.0448 11.0687 16.605 11.4945 16.605 12.0155V12.4132C16.5014 12.4412 16.3978 12.472 16.2997 12.5057L15.93 12.1499C15.5434 11.7774 14.916 11.7802 14.5322 12.1499L14.0308 12.6317C13.8459 12.8138 13.7423 13.0519 13.7423 13.3068C13.7423 13.5617 13.8459 13.7998 14.0308 13.979L14.4006 14.3348C14.3641 14.4356 14.3305 14.5365 14.3053 14.6317H13.8908C13.3473 14.6317 12.9076 15.0575 12.9076 15.5785V16.2396C12.9076 16.7634 13.3501 17.1863 13.8908 17.1863H14.3053C14.3333 17.2816 14.3641 17.3824 14.4006 17.4833L14.0308 17.8362C13.9524 17.9118 13.8964 18.0043 13.8487 18.0995H3.45938C3.33333 18.0995 3.23249 18.0015 3.23249 17.881V8.8446H20.4538ZM20.4538 17.881V13.1135L20.07 13.4833C19.9076 13.6373 19.6611 13.6793 19.4566 13.5813C19.2073 13.4636 18.9496 13.388 18.6415 13.3404C18.3838 13.3012 18.1905 13.0855 18.1905 12.8306V12.0995H17.6779V12.8306C17.6779 13.0827 17.4874 13.2984 17.2297 13.3404C16.9216 13.388 16.6499 13.4692 16.4202 13.5813C16.2157 13.6793 15.9664 13.6429 15.8039 13.4833L15.2353 12.937L14.8487 13.3096L15.4174 13.8558C15.5854 14.0211 15.6218 14.2732 15.5042 14.472C15.4174 14.6205 15.3221 14.9342 15.2717 15.2312C15.2297 15.4805 15.0056 15.6625 14.7451 15.6625H13.986V16.1555H14.7451C15.0056 16.1555 15.2325 16.3404 15.2717 16.5869C15.3221 16.8838 15.4174 17.1975 15.5042 17.346C15.6247 17.5477 15.5882 17.7998 15.4174 17.965L15.2745 18.1023H20.2269C20.3501 18.0995 20.4538 18.0015 20.4538 17.881ZM6.15966 6.12751C6.47619 6.12751 6.73109 6.37401 6.73109 6.67653C6.73109 6.97905 6.47619 7.22835 6.15966 7.22835C5.84314 7.22835 5.58824 6.97905 5.58824 6.67653C5.58824 6.37401 5.84314 6.12751 6.15966 6.12751ZM8.44818 6.67653C8.44818 6.37401 8.19328 6.12751 7.87675 6.12751C7.55742 6.12751 7.30252 6.37401 7.30532 6.67653C7.30532 6.97905 7.56022 7.22835 7.87675 7.22835C8.19328 7.22835 8.44818 6.97905 8.44818 6.67653ZM4.44538 6.12751C4.7619 6.12751 5.01681 6.37401 5.01681 6.67653C5.01681 6.97905 4.7619 7.22835 4.44538 7.22835C4.12885 7.22835 3.87395 6.97905 3.87395 6.67653C3.87395 6.37401 4.12885 6.12751 4.44538 6.12751ZM18.9216 15.8866C18.9216 16.5253 18.6387 16.797 17.9748 16.797C17.3109 16.797 17.028 16.5253 17.028 15.8866C17.028 15.2452 17.3109 14.9734 17.9748 14.9734C18.6387 14.9734 18.9216 15.248 18.9216 15.8866ZM17.9748 13.9426C19.2185 13.9426 19.9916 14.6877 19.9916 15.8838C19.9916 17.0799 19.2185 17.825 17.9748 17.825C16.7311 17.825 15.958 17.0799 15.958 15.8838C15.958 14.6877 16.7311 13.9426 17.9748 13.9426ZM6.2521 11.0827H5.34454L4.13725 14.6933H4.92157L5.20168 13.7858H6.37255L6.67227 14.6933H7.55462L6.2521 11.0827ZM5.77871 11.9847L6.17367 13.1891H5.39216L5.76751 11.9847H5.77871ZM7.97759 11.0827H9.21569C9.78151 11.0827 10.1401 11.1611 10.3725 11.3796C10.5686 11.5589 10.6639 11.839 10.6639 12.2255C10.6639 12.6121 10.5742 12.9006 10.395 13.1023C10.1849 13.3404 9.85714 13.4496 9.38095 13.4496H8.80112V14.6961H7.97759V11.0827ZM9.68347 12.6933C9.57983 12.7942 9.46779 12.8306 9.20448 12.8306H8.79552V11.6793H9.18207C9.43697 11.6793 9.58823 11.7157 9.68908 11.8054C9.78431 11.895 9.82633 12.0379 9.82633 12.234C9.82633 12.444 9.77871 12.5981 9.68347 12.6933ZM11.2549 11.0827H12.0784V14.6933H11.2549V11.0827Z" fill="#313235"/>
</svg>
