<svg width="24" height="24" viewBox="0 0 24 24" fill="none" xmlns="http://www.w3.org/2000/svg">
<path d="M16.4891 8.39508L16.4271 16.9637C16.4482 17.3421 16.7687 17.6337 17.1487 17.6144C17.5158 17.5952 17.8023 17.2926 17.799 16.9254L17.8155 6.76588C17.8139 6.7224 17.7961 6.68215 17.7881 6.63867C17.78 6.59841 17.7768 6.55654 17.7607 6.5179C17.7252 6.43738 17.6769 6.3633 17.6141 6.30048C17.548 6.23767 17.4756 6.19095 17.3951 6.15551C17.3548 6.13779 17.3129 6.13456 17.2711 6.1281C17.2308 6.12004 17.1922 6.10071 17.1487 6.09909L7.17501 6.05361C6.79661 6.04225 6.48108 6.33844 6.4699 6.71684C6.4699 6.71684 6.46829 6.71845 6.4699 6.72006C6.45873 7.09846 6.7583 7.41413 7.1367 7.4255L15.5195 7.4255L6.30013 16.6448C6.0329 16.9121 6.03301 17.3468 6.30198 17.6158C6.56934 17.8832 7.0041 17.8833 7.26972 17.6144L16.4891 8.39508Z" fill="#313235"/>
</svg>
