<svg width="24" height="24" viewBox="0 0 24 24" fill="none" xmlns="http://www.w3.org/2000/svg">
<path fill-rule="evenodd" clip-rule="evenodd" d="M19.6162 20.6443C19.6442 20.6471 19.6694 20.6471 19.6946 20.6471C19.9439 20.6471 20.168 20.5574 20.3333 20.3894C20.5182 20.2045 20.6078 19.9524 20.5882 19.6723V7.58546C20.591 7.10927 20.3445 6.71992 19.9299 6.54065C19.4846 6.35017 18.9215 6.44261 18.591 6.75913L18.5826 6.76754L16.0028 9.34736L11.1905 4.23253L11.1765 4.21852C10.958 4.00003 10.6891 3.77034 10.3529 3.69751C9.98318 3.61908 9.62184 3.73953 9.2745 4.05886L9.25769 4.07566L4.2325 9.12327C3.4958 9.85997 3.4874 10.7003 4.21569 11.4286L4.22129 11.4342L9.12324 16.2241L6.7451 18.6022C6.74229 18.6078 6.73669 18.6135 6.73109 18.6191C6.40336 18.9776 6.31092 19.5686 6.5154 20.0252C6.68907 20.409 7.03921 20.6387 7.45938 20.6387H7.47058L19.6162 20.6443ZM19.5126 19.5686L7.49019 19.563C7.47619 19.5014 7.49019 19.3922 7.521 19.3529L9.96918 16.9048C10.3445 16.5294 10.3361 15.9132 9.95237 15.5294L9.94677 15.5238L4.97479 10.6667C4.86835 10.563 4.7451 10.4118 4.7479 10.2857C4.7507 10.1849 4.83754 10.042 4.9944 9.88518L10.0112 4.84877C10.0812 4.78715 10.1232 4.76474 10.14 4.75634C10.1681 4.76754 10.2437 4.80956 10.4146 4.97762L15.2941 10.1625L15.3053 10.1737C15.6891 10.5602 16.3053 10.5686 16.6806 10.1933L19.3305 7.54344C19.3697 7.51823 19.4706 7.51543 19.507 7.53504C19.5098 7.54344 19.5126 7.56025 19.5126 7.58546V7.58826V19.5686Z" fill="#313235"/>
</svg>
