<svg width="24" height="24" viewBox="0 0 24 24" fill="none" xmlns="http://www.w3.org/2000/svg">
<path fill-rule="evenodd" clip-rule="evenodd" d="M9.57143 7.4958C9.57143 11.0364 11.5154 12.986 15.0448 12.986C18.5742 12.986 20.521 11.0364 20.521 7.493C20.521 3.95238 18.577 2 15.0448 2C11.5126 2 9.56863 3.94958 9.57143 7.4958ZM15.0448 3.20728C12.1709 3.20728 10.7759 4.61064 10.7759 7.493C10.7759 10.3753 12.1709 11.7759 15.0448 11.7759C17.9216 11.7759 19.3193 10.3753 19.3193 7.493C19.3165 4.61064 17.9188 3.20728 15.0448 3.20728ZM21.4398 15.6331C21.7283 16.1821 22.0084 17.2101 20.7563 18C19.3834 18.8679 15.4403 20.8531 14.5607 21.2959L14.5599 21.2963L14.5586 21.297L14.5584 21.2971L14.5546 21.2989C14.4668 21.3432 14.4107 21.3714 14.3922 21.381C13.944 21.5826 13.4202 21.6891 12.8347 21.6891C12.1289 21.6891 11.5266 21.5434 11.0448 21.2605L7 19.3109V19.6975C7 20.4874 6.36695 21.1317 5.57143 21.1317H3.42857C2.64146 21.1317 2 20.4874 2 19.6975V13.0896C2 12.3025 2.63866 11.6639 3.42857 11.6639H5.57143C6.10924 11.6639 6.56583 11.9636 6.81513 12.3978C9.91317 12.4482 10.9076 13.0168 11.084 13.1373C12.3277 13.9188 13.7087 13.888 14.4566 13.8711H14.7675C15.2241 13.8767 15.6583 14.07 15.972 14.4034C16.2773 14.7255 16.4622 15.1765 16.4622 15.6667L19.1681 14.7255C20.0364 14.4286 20.9664 14.7815 21.4006 15.563C21.3978 15.5602 21.4398 15.6331 21.4398 15.6331ZM5.79552 13.0896V19.6975C5.79552 19.8207 5.69468 19.9216 5.57143 19.9244H3.42857C3.30532 19.9216 3.20728 19.8207 3.20448 19.6975V13.0896C3.20728 12.9664 3.30812 12.8711 3.42857 12.8711H5.57703C5.69748 12.8711 5.79552 12.9692 5.79552 13.0896ZM20.381 16.1961C20.5574 16.5434 20.549 16.7031 20.1148 16.9776C18.8318 17.7914 15.0586 19.6904 14.1001 20.1728L14.0998 20.1729L14.098 20.1739C13.9591 20.2437 13.88 20.2836 13.8768 20.2857C13.5966 20.4146 13.2521 20.479 12.8347 20.479C12.3473 20.479 11.944 20.3894 11.6078 20.1961L6.9944 17.972V13.5994C9.59384 13.6639 10.4062 14.1289 10.4146 14.1373C11.9908 15.1248 13.6587 15.0899 14.4664 15.073L14.4762 15.0728H14.7507C15.0784 15.0728 15.2577 15.3725 15.2577 15.6611C15.2577 15.9776 14.93 16.3053 14.6162 16.3053H9.76751C9.43137 16.3053 9.16527 16.5826 9.16527 16.9104V16.9132C9.16527 17.2465 9.43417 17.5154 9.76751 17.5154H14.6162C14.9496 17.5154 15.2745 17.4202 15.5574 17.2437C15.6611 17.1989 15.7647 17.1569 15.8711 17.1176L19.5602 15.8655C19.8655 15.7619 20.2017 15.8824 20.381 16.1961ZM5.19328 14.2465C5.19328 13.8179 4.90476 13.5294 4.47899 13.5294C4.06162 13.5294 3.76471 13.8207 3.76471 14.2465C3.76471 14.6639 4.06162 14.9552 4.47899 14.9552C4.90476 14.9552 5.19328 14.6639 5.19328 14.2465ZM12.7283 7.77591H14.1597C14.493 7.77591 14.7619 8.04482 14.7619 8.37815L14.7647 9.81513H15.3277V8.37815C15.3277 8.04482 15.5966 7.77311 15.93 7.77311H17.3613V7.20728H15.93C15.5966 7.20728 15.3277 6.93557 15.3277 6.60224V5.16807H14.7619L14.7647 6.60504C14.7647 6.93838 14.4958 7.20728 14.1653 7.21008H12.7283V7.77591ZM12.437 8.98319H13.5602L13.563 10.1064C13.563 10.6022 13.9496 11.0196 14.409 11.0196H15.6807C16.1401 11.0196 16.5266 10.6022 16.5266 10.1064V8.97759H17.6499C18.1429 8.97759 18.5602 8.58824 18.5602 8.12885V6.84874C18.5602 6.38936 18.1429 6 17.6499 6H16.5266V4.87675C16.5266 4.37815 16.1401 3.96078 15.6807 3.96078H14.4034C13.9468 3.96078 13.5574 4.37815 13.5574 4.87395V6.0028H12.437C11.944 6.0028 11.5266 6.39216 11.5266 6.85434V8.13445C11.5266 8.59384 11.944 8.98319 12.437 8.98319Z" fill="#313235"/>
</svg>
