<svg width="24" height="24" viewBox="0 0 24 24" fill="none" xmlns="http://www.w3.org/2000/svg">
<path fill-rule="evenodd" clip-rule="evenodd" d="M21.6219 13.4454C21.6219 11.028 20.958 9.16249 19.6499 7.89919C18.7815 7.05605 17.6359 6.50983 16.2493 6.25213C15.9216 5.29694 15.423 4.48742 14.7535 3.84316C13.4958 2.62748 11.6807 2.01123 9.35857 2.01123C7.03644 2.01123 5.22412 2.62748 3.97201 3.84316C2.67229 5.10367 2.01123 6.96921 2.01123 9.38938C2.01123 11.8096 2.66949 13.6723 3.97201 14.9272C4.83756 15.7675 5.98602 16.311 7.37818 16.5687C7.70591 17.5266 8.20171 18.339 8.87117 18.9832C10.1205 20.1905 11.9328 20.8039 14.2577 20.8039C16.5799 20.8039 18.395 20.1933 19.6499 18.986C20.958 17.7283 21.6219 15.8656 21.6219 13.4454ZM5.23252 4.38658C6.10927 3.72272 7.29134 3.34736 8.74792 3.26893H8.75073V4.65549C7.77314 4.73392 6.95521 5.00563 6.31095 5.46501L5.23252 4.38658ZM4.36417 5.26613C3.71151 6.14849 3.33896 7.32496 3.26053 8.78154H4.64708C4.72552 7.80395 4.98322 6.98042 5.4342 6.33616L4.36417 5.26613ZM3.26349 10.0224L3.26333 10.0196V10.0224H3.26349ZM4.65269 10.0224H3.26349C3.34784 11.4749 3.72034 12.6476 4.37818 13.5238L5.45101 12.451C4.99722 11.8096 4.73392 10.9944 4.65269 10.0224ZM14.2605 16.972C13.3138 16.972 12.5659 16.7787 12.0084 16.4202C12.5883 16.2605 13.1233 16.0476 13.6051 15.7759C14.0252 15.5378 14.409 15.2577 14.7507 14.9328C15.3866 14.3194 15.8684 13.5631 16.1961 12.6723C16.4286 12.0392 16.5799 11.3334 16.6583 10.5659C16.6839 10.5851 16.7107 10.6037 16.7376 10.6223L16.7376 10.6224L16.7376 10.6224C16.7932 10.6609 16.8492 10.6998 16.8964 10.7451C17.4902 11.3194 17.7927 12.2297 17.7927 13.4454C17.7927 14.6611 17.4902 15.5687 16.8964 16.1401C16.3194 16.6919 15.4342 16.972 14.2605 16.972ZM19.2493 17.5743C19.9104 16.6975 20.2857 15.5266 20.367 14.0757H18.9804C18.8964 15.0476 18.6331 15.8628 18.1765 16.5014L19.2493 17.5743ZM14.8824 19.549C16.3278 19.4678 17.5014 19.1009 18.3754 18.4482L17.2997 17.3698C16.6583 17.818 15.8488 18.0813 14.8824 18.1625V19.549ZM13.6471 19.549V18.1625C12.6807 18.0841 11.8684 17.8208 11.2269 17.3726L10.1485 18.451C11.028 19.1037 12.2017 19.4706 13.6471 19.549ZM10.1317 16.7255L9.27734 17.5799C9.08406 17.3194 8.91039 17.042 8.76473 16.7311L8.87762 16.7362L8.87771 16.7362H8.87774C9.03362 16.7435 9.19057 16.7507 9.35297 16.7507C9.61907 16.7507 9.87678 16.7395 10.1317 16.7255ZM7.04765 15.2325C7.4482 15.3418 7.88518 15.4174 8.34736 15.4622C8.38979 15.4658 8.43221 15.4697 8.47472 15.4736L8.47479 15.4736L8.47485 15.4736L8.47491 15.4737L8.47497 15.4737L8.47504 15.4737L8.4751 15.4737L8.47516 15.4737L8.47523 15.4737C8.56449 15.4819 8.65416 15.4901 8.74512 15.4958V14.1093C8.68169 14.1033 8.61518 14.1004 8.54889 14.0975C8.46003 14.0936 8.37155 14.0897 8.29134 14.0785C8.26636 14.074 8.24369 14.0681 8.22131 14.0622L8.22128 14.0622L8.22126 14.0622C8.201 14.0569 8.18098 14.0516 8.15969 14.0476C7.71711 13.972 7.32215 13.8404 6.95801 13.6751C6.944 13.6695 6.9272 13.6611 6.91599 13.6555C6.70591 13.5603 6.50983 13.4482 6.32496 13.3222L5.24652 14.4006C5.75073 14.7703 6.35577 15.0476 7.04765 15.2325ZM9.35857 5.84877C8.1877 5.84877 7.30255 6.12888 6.72832 6.6835C6.13728 7.25773 5.83476 8.16809 5.83476 9.38378C5.83476 10.6023 6.13448 11.5098 6.72552 12.0785C6.77265 12.1238 6.82683 12.1609 6.88121 12.1981L6.88123 12.1982C6.91087 12.2185 6.94056 12.2388 6.96921 12.2605C7.29134 12.5014 7.6891 12.6723 8.15969 12.7787C8.19318 12.7858 8.22521 12.7933 8.25709 12.8008L8.25711 12.8008L8.25713 12.8008C8.31323 12.8139 8.3689 12.8268 8.4314 12.8376C8.71711 12.8824 9.01963 12.9104 9.35577 12.9104C9.39405 12.9104 9.4278 12.9068 9.46165 12.9031L9.46168 12.9031C9.48727 12.9004 9.51292 12.8976 9.54064 12.8964C9.80115 12.888 10.0504 12.8712 10.2829 12.8348C10.4594 12.8067 10.6247 12.7703 10.7843 12.7227C11.2717 12.5855 11.6807 12.3726 11.9916 12.0757C12.465 11.6191 12.7423 10.9468 12.8404 10.0841C12.8656 9.85997 12.8852 9.63028 12.8852 9.38098C12.8852 9.23455 12.873 9.09876 12.861 8.96465L12.861 8.96462L12.861 8.96456L12.861 8.9645L12.861 8.96444L12.861 8.96438L12.861 8.96436L12.861 8.96434C12.8567 8.9164 12.8525 8.86868 12.8488 8.82075C12.8011 8.29414 12.6863 7.84036 12.507 7.45661C12.367 7.15969 12.2017 6.89358 11.9888 6.6807C11.874 6.57145 11.7423 6.48182 11.6051 6.39498C11.0476 6.03924 10.3025 5.84877 9.35857 5.84877ZM9.98042 4.65549V3.26893C11.4342 3.35017 12.6135 3.72552 13.493 4.39218L12.4174 5.46781C11.7731 5.00843 10.958 4.73672 9.98042 4.65549ZM13.4734 14.3922L12.3978 13.3138C12.2605 13.409 12.1205 13.5014 11.9664 13.5771C11.6107 13.7619 11.2101 13.8992 10.7731 13.9916C10.7057 14.0068 10.6331 14.0159 10.5604 14.025L10.5603 14.025C10.5123 14.031 10.4642 14.037 10.4174 14.0448C10.3446 14.056 10.2717 14.0673 10.1961 14.0757C10.1609 14.0797 10.127 14.0851 10.0929 14.0905L10.0928 14.0905L10.0928 14.0905C10.0563 14.0963 10.0195 14.1021 9.98042 14.1065V15.493C10.3782 15.4678 10.7535 15.423 11.1093 15.3558C11.7395 15.2381 12.3025 15.0532 12.7983 14.8011C13.0392 14.6779 13.2661 14.5462 13.4734 14.3922ZM13.7423 12.9104L13.2773 12.4454C13.5855 12.0112 13.8039 11.4958 13.9412 10.9048C14.0056 10.6247 14.0532 10.3306 14.0785 10.0168H15.465V10.0392C15.4342 10.5743 15.3642 11.0701 15.2549 11.5294C15.1373 12.0224 14.9664 12.465 14.7563 12.8656C14.6359 13.0981 14.5014 13.3166 14.3502 13.5182L13.7423 12.9104ZM14.3586 5.27173L13.5378 6.09246L13.2913 6.33896C13.4286 6.53784 13.5434 6.75633 13.6471 6.98322C13.6654 7.02168 13.6849 7.05881 13.7045 7.09587C13.7419 7.1668 13.7792 7.23744 13.8067 7.31655C13.9496 7.72271 14.0252 8.1877 14.0729 8.6807C14.1008 8.67948 14.1272 8.67668 14.1534 8.6739L14.1534 8.6739L14.1534 8.6739L14.1534 8.6739L14.1534 8.6739L14.1535 8.6739C14.1876 8.67028 14.2213 8.66669 14.2577 8.66669C14.4146 8.66669 14.5614 8.68114 14.7074 8.6955C14.7647 8.70114 14.8219 8.70677 14.8796 8.71151L14.955 8.71778C15.1291 8.73216 15.3035 8.74656 15.465 8.77594V8.78154H15.4902C15.4818 8.77874 15.4734 8.77594 15.465 8.77594C15.437 8.27173 15.3754 7.79554 15.2773 7.35857C15.1793 6.9244 15.0504 6.52384 14.8824 6.15689V6.13728H14.8768L14.8724 6.12806L14.869 6.12048C14.864 6.10927 14.859 6.09807 14.8516 6.08686C14.7115 5.78994 14.5434 5.52103 14.3586 5.27173ZM16.5799 7.59386C17.2773 7.78154 17.888 8.06445 18.395 8.4482L17.3194 9.52384C17.1317 9.38938 16.93 9.27454 16.7143 9.1737C16.7031 8.61627 16.6611 8.08686 16.5799 7.59386ZM20.367 12.8404C20.2885 11.3866 19.916 10.2101 19.2605 9.32776L18.1933 10.3978C18.6471 11.042 18.9048 11.8628 18.9832 12.8404H20.367ZM8.06165 8.08126C7.91879 8.20171 7.96641 8.48182 7.99442 8.59947C8.00639 8.65076 8.02671 8.70415 8.0471 8.75771L8.0471 8.75771L8.04711 8.75773C8.06012 8.79191 8.07315 8.82615 8.08406 8.85997C8.1849 9.15969 8.31935 9.46221 8.52103 9.77594C8.60787 9.91599 8.6919 10.0308 8.77594 10.1429C8.89638 10.2997 9.02244 10.4454 9.1961 10.6247C9.21851 10.6499 9.28854 10.7227 9.34737 10.7675L9.36697 10.7815H9.36977C9.4398 10.7227 9.51263 10.6471 9.53224 10.6247C9.73112 10.4146 9.87117 10.2549 10.0056 10.0701L10.0208 10.049C10.0806 9.96588 10.1428 9.87945 10.2073 9.77874C10.3922 9.49022 10.5182 9.21011 10.6191 8.9356C10.6315 8.90008 10.6451 8.86457 10.6586 8.82914C10.6877 8.7528 10.7167 8.67688 10.7339 8.60227C10.7647 8.46501 10.7983 8.21851 10.6751 8.09806C10.674 8.09698 10.6734 8.09507 10.6726 8.09296C10.6715 8.08961 10.6701 8.08578 10.6667 8.08406C10.6051 8.03084 10.507 7.99722 10.4006 7.99162C10.2521 7.98042 10.1065 8.02524 9.96081 8.10367C9.9244 8.12328 9.88798 8.14568 9.85157 8.16809C9.80395 8.1933 9.75913 8.21851 9.71151 8.24933L9.56305 8.33896L9.21571 8.34456L9.09526 8.28854L9.05605 8.27173C8.9272 8.1961 8.84596 8.14849 8.76753 8.10647C8.75713 8.10053 8.74673 8.09695 8.73592 8.09322C8.72634 8.08993 8.71643 8.08652 8.70591 8.08126C8.59106 8.02804 8.47061 7.99442 8.35857 7.99442H8.32496C8.22131 7.99442 8.12047 8.02804 8.06165 8.08126ZM7.25773 7.14008C6.79554 7.54064 6.62468 8.1737 6.79274 8.88518C6.90199 9.34176 7.11207 9.80955 7.38658 10.2745C7.40152 10.2994 7.41425 10.3243 7.42697 10.3492C7.44288 10.3804 7.45879 10.4115 7.47902 10.4426C7.73952 10.8488 7.95521 11.1205 8.30535 11.479L8.33056 11.5042C8.38938 11.5631 8.51263 11.6807 8.62748 11.7675C8.77874 11.874 8.9468 11.9496 9.10087 11.9804C9.15969 11.9972 9.22692 12.0084 9.27734 12.0112L9.36697 12.014L9.4286 12.0112C9.49582 12.0084 9.56025 11.9972 9.60507 11.986C9.61534 11.9835 9.6256 11.9797 9.63614 11.9759C9.6486 11.9713 9.66144 11.9666 9.6751 11.9636C9.82355 11.9216 9.96921 11.86 10.0981 11.7675C10.2241 11.6751 10.3726 11.5294 10.423 11.4734C10.7255 11.1569 10.93 10.9104 11.1485 10.5827L11.1485 10.5826C11.1793 10.5378 11.2101 10.493 11.2437 10.4426C11.367 10.2521 11.4622 10.0588 11.5546 9.87117C11.6751 9.63308 11.7675 9.39498 11.8404 9.15969C11.8519 9.12176 11.8662 9.08383 11.8804 9.04609C11.9009 8.99186 11.9212 8.93804 11.9328 8.88518C12.0448 8.41179 11.9944 7.98322 11.8208 7.62187C11.7339 7.4426 11.6247 7.27454 11.4706 7.14008C11.2241 6.93 10.8964 6.80675 10.549 6.77033C10.535 6.76893 10.521 6.76543 10.507 6.76193C10.493 6.75843 10.479 6.75493 10.465 6.75353C10.0925 6.73392 9.71151 6.82636 9.36417 7.01963C9.01683 6.82636 8.64428 6.73392 8.26333 6.75353C7.88238 6.77314 7.52664 6.91039 7.25773 7.14008Z" fill="#313235"/>
</svg>
