<svg width="24" height="24" viewBox="0 0 24 24" fill="none" xmlns="http://www.w3.org/2000/svg">
<path fill-rule="evenodd" clip-rule="evenodd" d="M19.9076 20.6582H11.5574C10.8824 20.6582 10.4622 20.2353 10.4622 19.5574V4.75908C10.4622 4.09242 10.8824 3.67785 11.5546 3.67505H16.7647C16.9132 3.67505 17.056 3.73387 17.1597 3.84031L21.5294 8.21006C21.6359 8.3137 21.6947 8.45656 21.6947 8.60502V8.60782V19.5826C21.6947 19.7927 21.6751 20.0644 21.5126 20.2913C21.395 20.4566 21.1625 20.6554 20.7199 20.6554C20.4512 20.6582 20.1796 20.6582 19.9081 20.6582H19.9076ZM20.5742 9.16805V19.5378H18.7367H11.5826V4.7983H16.2045V6.42295C16.2045 7.24368 16.4594 7.93555 16.9468 8.42295C17.4342 8.91034 18.1261 9.16805 18.9496 9.16805H20.5742ZM19.7815 8.0476L17.3249 5.59101V6.42295C17.3249 6.94116 17.4678 7.35852 17.7395 7.63023C18.0112 7.90194 18.4286 8.0476 18.9496 8.0476H19.7815ZM7.4902 8.23807C7.2577 8.23807 7.07003 8.0504 7.07003 7.81791C7.07003 7.69466 7.12325 7.57981 7.21569 7.49858C7.36122 7.37414 7.51508 7.24136 7.65427 7.12043H6.92437C6.2381 7.12043 5.72549 7.27729 5.40336 7.58821C5.07003 7.91034 4.89916 8.43415 4.89916 9.14844V9.98037C4.89916 10.2129 4.71148 10.4005 4.47899 10.4005C4.2465 10.4005 4.05882 10.2129 4.05882 9.98037V9.14844C4.05882 8.19886 4.31373 7.46777 4.82073 6.98317C5.30532 6.51819 6.0112 6.28009 6.92437 6.28009H7.66569C7.49288 6.12863 7.32641 5.98607 7.25496 5.92488L7.25495 5.92487L7.25494 5.92486L7.21849 5.89354C7.04202 5.74228 7.01961 5.47897 7.17087 5.3025C7.32213 5.12603 7.58543 5.10362 7.7619 5.25488C7.76619 5.25873 7.78545 5.27528 7.8159 5.30144L7.81614 5.30164L7.81615 5.30164C7.98522 5.44686 8.49758 5.88692 8.70868 6.09802C9.08123 6.47337 9.08403 6.93555 8.71429 7.3053C8.61613 7.40345 8.17661 7.78353 7.92338 8.00252L7.92333 8.00256C7.85137 8.06479 7.79446 8.114 7.76471 8.14004C7.68627 8.20166 7.59104 8.23807 7.4902 8.23807ZM18.9832 11.8767H13.1737C12.8655 11.8767 12.6134 11.6246 12.6134 11.3165C12.6134 11.0084 12.8655 10.7563 13.1737 10.7563H18.9832C19.2913 10.7563 19.5434 11.0084 19.5434 11.3165C19.5434 11.6246 19.2913 11.8767 18.9832 11.8767ZM18.9832 14.6134H13.1737C12.8655 14.6134 12.6134 14.3613 12.6134 14.0532C12.6134 13.7451 12.8655 13.493 13.1737 13.493H18.9832C19.2913 13.493 19.5434 13.7451 19.5434 14.0532C19.5434 14.3613 19.2913 14.6134 18.9832 14.6134ZM13.1737 17.3669H18.9832C19.2913 17.3669 19.5434 17.1148 19.5434 16.8067C19.5434 16.4986 19.2913 16.2465 18.9832 16.2465H13.1737C12.8655 16.2465 12.6134 16.4986 12.6134 16.8067C12.6134 17.1148 12.8655 17.3669 13.1737 17.3669ZM5.61625 20.6386H2.85154C2.34174 20.6386 2 20.2941 2 19.7815V11.6246C2 11.126 2.35014 10.7759 2.85154 10.7759H6.14006C6.28852 10.7759 6.43137 10.8347 6.53782 10.9384L8.96639 13.3669C9.07283 13.4706 9.13165 13.6134 9.13165 13.7619V19.7927C9.13165 20.2885 8.78711 20.633 8.29132 20.633L5.61625 20.6386ZM8.0084 19.5182H3.12045V11.8963H5.41457V12.6162C5.41457 13.2157 5.57983 13.6835 5.90196 14.0056C6.22409 14.3277 6.69188 14.493 7.29132 14.493H8.0084V19.5182ZM7.66387 13.6526L6.2549 12.2437V12.6162C6.2549 13.3529 6.55462 13.6526 7.29132 13.6526H7.66387ZM4.02241 15.8907H7.11765C7.35014 15.8907 7.53782 15.7031 7.53782 15.4706C7.53782 15.2381 7.35014 15.0504 7.11765 15.0504H4.02241C3.78992 15.0504 3.60224 15.2381 3.60224 15.4706C3.60224 15.7031 3.78992 15.8907 4.02241 15.8907ZM4.02241 17.3473H7.11765C7.35014 17.3473 7.53782 17.1596 7.53782 16.9271C7.53782 16.6947 7.35014 16.507 7.11765 16.507H4.02241C3.78992 16.507 3.60224 16.6947 3.60224 16.9271C3.60224 17.1596 3.78992 17.3473 4.02241 17.3473ZM7.11765 18.8039H4.02241C3.78992 18.8039 3.60224 18.6162 3.60224 18.3837C3.60224 18.1512 3.78992 17.9636 4.02241 17.9636H7.11765C7.35014 17.9636 7.53782 18.1512 7.53782 18.3837C7.53782 18.6162 7.35014 18.8039 7.11765 18.8039Z" fill="#313235"/>
</svg>
