<svg width="24" height="24" viewBox="0 0 24 24" fill="none" xmlns="http://www.w3.org/2000/svg">
<path fill-rule="evenodd" clip-rule="evenodd" d="M11.9969 23C8.50157 23 5.7837 22.0879 3.9185 20.2888C1.98119 18.4238 1 15.6374 1 12.0047C1 8.37199 1.98119 5.58242 3.9185 3.71435C5.7837 1.91523 8.5047 1 11.9969 1C15.4922 1 18.21 1.9121 20.0784 3.71121C22.0188 5.57928 23 8.36886 23 12.0016C23 15.6343 22.0157 18.4207 20.0784 20.2888C18.21 22.0879 15.4922 23 11.9969 23ZM11.9969 2.21926C5.50784 2.21926 2.2163 5.51033 2.2163 12.0047C2.2163 18.4928 5.50784 21.7839 11.9969 21.7839C18.489 21.7839 21.7837 18.4928 21.7837 12.0047C21.7837 5.51346 18.489 2.21926 11.9969 2.21926ZM9.94671 16.6404C10.0564 16.7783 10.2226 16.8567 10.3981 16.8567H10.4107C10.5893 16.8535 10.7555 16.7689 10.8621 16.6247L17.3135 7.98647C17.5047 7.73258 17.4514 7.37213 17.1975 7.18094C16.9436 6.98974 16.5831 7.04303 16.3918 7.29691L10.3824 15.3396L7.89342 12.2116C7.69592 11.964 7.33229 11.9232 7.08464 12.1207C6.83699 12.3181 6.79624 12.6817 6.99373 12.9293L9.94671 16.6404Z" fill="#313235"/>
</svg>
