<svg width="24" height="24" viewBox="0 0 24 24" fill="none" xmlns="http://www.w3.org/2000/svg">
<path fill-rule="evenodd" clip-rule="evenodd" d="M16.818 21.6751H7.54068C7.05888 21.6751 6.38101 21.5686 5.89362 21.0532C5.53227 20.6695 5.3418 20.1261 5.3418 19.4762V6.10364C5.3418 5.94678 5.40622 5.79832 5.52107 5.69188L9.3418 2.14846C9.44544 2.05322 9.58269 2 9.72275 2H16.818C17.2998 2 17.9777 2.10644 18.465 2.62185C18.8264 3.0056 19.0169 3.54902 19.0169 4.19888V19.4762C19.0169 20.1261 18.8264 20.6695 18.465 21.0532C18.1961 21.3361 17.6919 21.6751 16.818 21.6751ZM6.46225 6.34734V19.4762C6.46225 20.2213 6.79558 20.5546 7.54068 20.5546H16.818C17.5631 20.5546 17.8964 20.2213 17.8964 19.4762V4.19888C17.8964 3.45378 17.5631 3.12045 16.818 3.12045H9.94404L6.46225 6.34734ZM10.8068 19.2269H8.08129C7.77317 19.2269 7.52107 18.9748 7.52107 18.6667V15.9356V12.7871V10.056C7.52107 9.7479 7.77317 9.4958 8.08129 9.4958H10.8068H13.5379H16.2746C16.5827 9.4958 16.8348 9.7479 16.8348 10.056V12.7871V15.9356V18.6667C16.8348 18.9748 16.5855 19.2269 16.2746 19.2269H13.5379H10.8068ZM10.8068 15.3753H8.64152V13.3473H10.8068H13.5379H15.7143V15.3753H13.5379H10.8068ZM10.2466 16.4958H8.64152V18.1064H10.2466V16.4958ZM11.367 18.1064V16.4958H12.9777V18.1064H11.367ZM14.0981 18.1064V16.4958H15.7143V18.1064H14.0981ZM10.2466 12.2269H8.64152V10.6162H10.2466V12.2269ZM12.9777 12.2269H11.367V10.6162H12.9777V12.2269ZM15.7143 12.2269H14.0981V10.6162H15.7143V12.2269Z" fill="#313235"/>
</svg>
