<svg width="24" height="24" viewBox="0 0 24 24" fill="none" xmlns="http://www.w3.org/2000/svg">
<path fill-rule="evenodd" clip-rule="evenodd" d="M17.7725 3.59141C18.6268 3.59141 19.3747 4.20205 19.3747 4.89673V20.541C19.3747 21.2497 18.6408 21.8463 17.7725 21.8463H6.21223C5.34388 21.8463 4.60999 21.2469 4.60999 20.541V4.89393C4.60999 4.19925 5.36069 3.58861 6.21223 3.58861H9.16741C9.638 2.67544 10.61 2.16003 11.9937 2.16003C13.68 2.16003 14.4615 2.86872 14.8229 3.59141H17.7725ZM10.0358 4.90793C10.0694 4.17684 10.3215 3.33931 11.9937 3.33931C13.541 3.33931 13.7775 4.0911 13.8562 4.34126L13.8565 4.34211C13.9181 4.54659 13.9489 4.75667 13.9545 4.96956V5.0872L13.9545 5.08821C13.9461 5.31801 13.9321 5.70065 11.9937 5.70065C10.0573 5.70065 10.0414 5.31878 10.0302 5.04997L10.0302 5.04799L10.0358 4.90793ZM18.1982 20.4962C18.173 20.541 18.0049 20.667 17.7725 20.667H6.21223C6.02263 20.667 5.87588 20.5832 5.81906 20.5508C5.80621 20.5434 5.79796 20.5387 5.79486 20.5382L5.78365 4.94995C5.81447 4.89673 5.99654 4.76508 6.21223 4.76508H8.86209C8.86105 4.77235 8.85962 4.77885 8.85824 4.78515L8.85824 4.78516C8.8559 4.79585 8.85368 4.80596 8.85368 4.8183L8.84808 4.91914L8.84528 5.04519V5.12642C8.9013 6.66143 10.3915 6.87432 11.9937 6.87432C13.596 6.87432 15.089 6.66143 15.1394 5.15163L15.1422 5.04519L15.1394 4.93034L15.1366 4.85191C15.1351 4.83554 15.1328 4.82076 15.1306 4.80629C15.1286 4.79352 15.1267 4.78101 15.1254 4.76788H17.7725C17.9392 4.76788 18.0889 4.84697 18.1546 4.88169C18.1772 4.89362 18.1898 4.90031 18.1898 4.89673L18.1982 20.4962ZM10.7444 4.74267C10.7444 5.04519 10.9909 5.29169 11.2963 5.29169H12.6884C12.9937 5.29169 13.243 5.04519 13.243 4.74267C13.243 4.44015 12.9937 4.19365 12.6884 4.19365H11.2963C10.9909 4.19365 10.7444 4.44015 10.7444 4.74267Z" fill="#313235"/>
</svg>
