<svg width="24" height="24" viewBox="0 0 24 24" fill="none" xmlns="http://www.w3.org/2000/svg">
<path fill-rule="evenodd" clip-rule="evenodd" d="M4.48184 7.79549C4.68072 2.28291 9.89358 2 10.958 2C11.7787 2 15.8123 2.17927 17.0616 5.70587C19.3865 5.92435 21.7115 7.35292 21.7115 10.8123C21.7115 14.6134 18.8711 15.9579 16.4398 15.9579L16.2773 15.9663V19.5882C16.2773 20.14 15.9748 20.8935 14.493 21.3389C13.7255 21.5657 12.7339 21.6862 11.7031 21.6862C10.6611 21.6862 9.66949 21.5657 8.91039 21.3389C7.42861 20.8935 7.11768 20.14 7.11768 19.5882V16.0139H6.38099C4.27736 16.0139 2.02527 14.8851 2.02527 11.7254C2.02527 9.24647 3.40902 8.21566 4.48184 7.79549ZM16.2801 11.2297V14.7478L16.4454 14.7394C17.395 14.7394 20.4874 14.4565 20.4874 10.8095C20.4874 7.37253 17.7619 6.92715 16.591 6.89354C16.3109 6.88513 16.0812 6.70026 16.0084 6.43976C15.1821 3.36694 11.6527 3.21288 10.958 3.21288C9.72272 3.21288 5.70312 3.56022 5.70312 8.11482L5.71153 8.22126C5.71153 8.49577 5.53226 8.73106 5.26895 8.80389C3.93562 9.18484 3.25496 10.1652 3.25496 11.7226C3.25496 14.4957 5.43982 14.7955 6.38099 14.7955H7.11768V11.2297C7.11768 11.0924 7.13449 10.9635 7.17651 10.8403C7.35018 10.2241 7.93841 9.77028 8.90479 9.47896C10.437 9.02518 12.9748 9.02518 14.4958 9.47896C15.9776 9.91593 16.2801 10.6694 16.2801 11.2297ZM11.7031 10.3473C10.7787 10.3473 9.91039 10.4537 9.26333 10.647C8.80675 10.7787 8.55185 10.9299 8.4286 11.0644C8.54345 11.1848 8.80395 11.3473 9.27174 11.4846C10.5658 11.8739 12.8488 11.8739 14.1429 11.4846C14.6022 11.3473 14.8543 11.1904 14.9776 11.07C14.8403 10.9159 14.5518 10.7703 14.1429 10.6386C13.4874 10.4537 12.6191 10.3473 11.7031 10.3473ZM15.0504 13.8739C14.9524 14.0112 14.6807 14.2296 14.1401 14.3865C12.846 14.7759 10.563 14.7759 9.26894 14.3865C8.69471 14.2156 8.44261 14.014 8.34177 13.8907V12.4313C8.51264 12.5126 8.70311 12.5854 8.90759 12.6498C9.66669 12.8683 10.6583 12.9972 11.7003 12.9972C12.7395 12.9972 13.7283 12.8767 14.4902 12.6498C14.7031 12.5854 14.8852 12.5126 15.0476 12.4397V13.8739H15.0504ZM14.1401 17.2997C14.6807 17.1456 14.9524 16.9271 15.0504 16.7899V15.3389C14.8768 15.4201 14.6975 15.4929 14.5014 15.549C13.7367 15.7759 12.7395 15.8963 11.7087 15.8963C10.6583 15.8963 9.66949 15.7759 8.916 15.549C8.70311 15.4845 8.51264 15.4117 8.34177 15.3389V16.8067C8.43421 16.9271 8.69471 17.1288 9.26894 17.2997C10.563 17.689 12.846 17.689 14.1401 17.2997ZM15.0504 19.5882C15.0504 19.7814 14.7059 20.0027 14.1401 20.1708C12.8319 20.5601 10.563 20.5601 9.26053 20.1708C8.69751 19.9999 8.34457 19.7814 8.34457 19.5882V18.2604C8.51544 18.3333 8.70591 18.4061 8.9188 18.4705C9.6723 18.6974 10.6611 18.8179 11.7115 18.8179C12.7423 18.8179 13.7395 18.6974 14.5042 18.4705C14.7003 18.4145 14.8796 18.3389 15.0532 18.2604V19.5882H15.0504Z" fill="#313235"/>
</svg>
