<svg width="24" height="24" viewBox="0 0 24 24" fill="none" xmlns="http://www.w3.org/2000/svg">
<path fill-rule="evenodd" clip-rule="evenodd" d="M9.44537 4.15397C9.56862 4.66097 9.80111 5.17918 10.1372 5.69739C10.3977 6.09794 10.6162 6.36685 10.9664 6.72539C11.0084 6.76741 11.1597 6.91587 11.2885 7.00831C11.4398 7.11755 11.6162 7.19318 11.7815 7.2296L12.0504 7.26041L12.2969 7.2324C12.4762 7.19318 12.6526 7.11755 12.8067 7.00831C12.9356 6.91867 13.084 6.77021 13.1372 6.71699C13.4874 6.35845 13.7003 6.09234 13.958 5.69739C14.2913 5.17918 14.5238 4.66097 14.647 4.15397C14.8179 3.44249 14.647 2.79823 14.1708 2.39487C13.8935 2.16238 13.5266 2.02232 13.14 2.00272C12.7759 1.98311 12.3893 2.06994 12.0448 2.25482C11.7003 2.06994 11.3137 1.98311 10.9552 2.00272C10.5658 2.02232 10.1989 2.16238 9.92156 2.39487C9.44817 2.79823 9.2745 3.44249 9.44537 4.15397ZM10.7423 3.84865C10.7199 3.74501 10.6723 3.49571 10.7927 3.39767C10.8459 3.35285 10.93 3.32484 11.0224 3.32204H11.0532C11.1765 3.32204 11.3025 3.35846 11.4314 3.42568C11.5098 3.4677 11.5882 3.51252 11.6975 3.57694L11.8767 3.66658L12.2577 3.65817L12.4146 3.56574C12.5014 3.51532 12.5798 3.4705 12.661 3.42568C12.8011 3.35005 12.9384 3.31084 13.07 3.32204C13.1624 3.32764 13.2493 3.35565 13.2997 3.40047C13.4202 3.49851 13.3725 3.74781 13.3501 3.85145C13.2605 4.2128 13.0896 4.59095 12.8347 4.9859C12.6274 5.30523 12.4678 5.50411 12.1737 5.80383L12.1615 5.81614L12.1615 5.81615L12.1615 5.81618C12.1366 5.84148 12.0921 5.8868 12.0476 5.92428C11.9944 5.88226 11.9384 5.82344 11.9216 5.80383C11.6302 5.50691 11.4678 5.30803 11.2549 4.9831C11.0028 4.58814 10.8291 4.20999 10.7423 3.84865ZM5.7423 8.72819C5.5014 8.96068 5.38095 9.36124 5.38095 9.92147C5.38095 10.4789 5.5014 10.8822 5.7423 11.1119C5.97479 11.3332 6.37255 11.4481 6.91876 11.4481C7.46498 11.4481 7.86274 11.3332 8.09803 11.1091C8.33893 10.8794 8.46218 10.4789 8.46218 9.92147C8.46218 9.36124 8.33893 8.96068 8.09523 8.72819C7.85714 8.5013 7.46218 8.38646 6.91596 8.38646C6.37535 8.38646 5.97759 8.5013 5.7423 8.72819ZM4.89076 11.9915C5.35854 12.4453 6.04201 12.6722 6.91876 12.6722C7.79271 12.6722 8.47618 12.4425 8.94957 11.9915C9.44257 11.5209 9.69187 10.8234 9.69187 9.92147C9.69187 9.01671 9.44257 8.31923 8.94957 7.84864C8.47618 7.39486 7.79271 7.16517 6.91876 7.16517C6.04201 7.16517 5.35854 7.39486 4.88796 7.84864C4.39776 8.31923 4.15126 9.01671 4.15126 9.92147C4.15126 10.8234 4.40056 11.5209 4.89076 11.9915ZM15.5854 8.72819C15.3445 8.96068 15.2241 9.36124 15.2241 9.92147C15.2241 10.4789 15.3445 10.8822 15.5854 11.1119C15.8179 11.3332 16.2157 11.4481 16.7619 11.4481C17.3081 11.4481 17.7059 11.3332 17.9411 11.1091C18.182 10.8794 18.3053 10.4789 18.3053 9.92147C18.3053 9.36124 18.182 8.96068 17.9383 8.72819C17.7003 8.5013 17.3053 8.38646 16.7591 8.38646C16.2185 8.38646 15.8207 8.5013 15.5854 8.72819ZM13.9916 9.92147C13.9916 10.8234 14.2409 11.5209 14.7311 11.9915C15.2017 12.4425 15.8851 12.6722 16.7591 12.6722C17.633 12.6722 18.3165 12.4425 18.7899 11.9915C19.2829 11.5209 19.5322 10.8234 19.5322 9.92147C19.5322 9.01671 19.2829 8.31923 18.7899 7.84864C18.3165 7.39486 17.633 7.16517 16.7591 7.16517C15.8823 7.16517 15.1989 7.39486 14.7283 7.84864C14.2381 8.31923 13.9916 9.01671 13.9916 9.92147ZM12.3389 12.7618C12.3893 12.7114 12.4454 12.5629 12.4454 12.2912C12.4454 12.0167 12.3893 11.8654 12.3361 11.815C12.2829 11.7618 12.1288 11.7086 11.8599 11.7086C11.591 11.7086 11.4398 11.7618 11.3893 11.8122C11.3361 11.8626 11.2801 12.0139 11.2801 12.2884C11.2801 12.5629 11.3333 12.7114 11.3865 12.7618C11.437 12.8122 11.591 12.8654 11.8599 12.8654C12.1316 12.8654 12.2857 12.8122 12.3389 12.7618ZM13.1905 10.9355C12.8795 10.6386 12.4314 10.4873 11.8599 10.4873C11.2885 10.4873 10.8431 10.6386 10.5322 10.9355C10.2129 11.2436 10.0504 11.6974 10.0504 12.2912C10.0504 12.8822 10.2101 13.336 10.5322 13.6441C10.8431 13.9383 11.2885 14.0895 11.8599 14.0895C12.4314 14.0895 12.8795 13.9383 13.1905 13.6441C13.5126 13.336 13.6779 12.8822 13.6779 12.2912C13.6779 11.7002 13.5126 11.2436 13.1905 10.9355ZM20.4566 20.4649V17.1988C20.4566 16.8122 20.3753 16.2716 20 15.885C19.5854 15.4537 18.9271 15.3612 18.451 15.3612H15.0728C14.8263 15.3612 14.5322 15.3892 14.2493 15.4733C14.3613 15.5461 14.4678 15.6301 14.563 15.7282C14.9047 16.0811 15.084 16.5685 15.084 17.1427V20.4649H20.4566ZM13.8515 17.1399V20.4649H13.8487V20.4789H9.87114V17.1399C9.87114 16.9635 9.90195 16.7226 10.0476 16.5713C10.1344 16.4789 10.2857 16.4313 10.465 16.3976L10.5033 16.3905C10.582 16.3758 10.6595 16.3612 10.7535 16.3612H12.9636C13.0364 16.3612 13.0977 16.3727 13.1601 16.3843H13.1601H13.1601L13.1602 16.3844C13.1794 16.3879 13.1987 16.3915 13.2185 16.3948C13.4117 16.4257 13.5798 16.4761 13.6723 16.5741C13.8207 16.7254 13.8515 16.9663 13.8515 17.1399ZM9.16246 15.7282C9.25209 15.6357 9.35293 15.5573 9.46218 15.4845C9.16806 15.392 8.86274 15.3612 8.60784 15.3612H5.22969C4.7535 15.3612 4.09804 15.4537 3.68348 15.8822C3.31093 16.2688 3.2325 16.8122 3.2325 17.1988V20.4649H8.64705V17.1399C8.64425 16.5685 8.82072 16.0783 9.16246 15.7282ZM2.31653 21.6861H14.9243V21.6889H21.3697C21.5434 21.6889 21.6862 21.5489 21.6862 21.3752V17.2016C21.6862 16.3248 21.4089 15.5797 20.8851 15.0391C20.3193 14.4509 19.4762 14.1399 18.4482 14.1399H15.07C14.0448 14.1399 13.2017 14.4509 12.6358 15.0391C12.6205 15.056 12.6069 15.0753 12.5931 15.0949C12.5816 15.1111 12.5701 15.1275 12.5574 15.1427H11.126C11.1148 15.1293 11.1045 15.115 11.0942 15.1006C11.0788 15.0791 11.0633 15.0576 11.0448 15.0391C10.479 14.4509 9.63584 14.1399 8.60784 14.1399H5.22969C4.20448 14.1399 3.36135 14.4509 2.79552 15.0391C2.27732 15.5769 2.00281 16.322 2.00281 17.1988V21.3724C2.00281 21.5461 2.14286 21.6861 2.31653 21.6861Z" fill="#313235"/>
</svg>
