<svg width="24" height="24" viewBox="0 0 24 24" fill="none" xmlns="http://www.w3.org/2000/svg">
<path fill-rule="evenodd" clip-rule="evenodd" d="M21.7584 14.0097C21.7668 13.9761 21.7668 13.8529 21.75 13.682V6.48594C21.75 5.69322 21.103 5.04616 20.3103 5.04616H12.117V4.28426C12.117 3.48874 11.4699 2.84448 10.6772 2.84448H3.53155C2.72763 2.84448 2.08337 3.48874 2.08337 4.28426V17.7885C2.08337 18.5812 2.73043 19.2282 3.53155 19.2282H11.9237C11.9713 19.5252 12.0946 19.9229 12.4139 20.259C12.6744 20.5476 13.1758 20.8809 14.0414 20.8809H19.568C19.666 20.8921 20.54 20.9313 21.1702 20.3431C21.4391 20.0882 21.7668 19.6232 21.7584 18.8361V14.0097ZM11.8957 13.9509C11.8957 13.1582 12.2234 12.6904 12.4923 12.4383C12.8117 12.1442 13.1954 12.0125 13.4979 11.9649V11.4243C13.4979 8.94532 15.2486 8.05457 16.7444 8.03776H17.0217C18.526 8.07978 20.2851 8.98734 20.2851 11.4411V12.0041C20.3663 12.021 20.4475 12.0378 20.5231 12.0686V6.48314C20.5231 6.36829 20.4335 6.27025 20.3103 6.27025H11.5035C11.1674 6.27025 10.8901 5.99294 10.8901 5.65681V4.28146C10.8901 4.15821 10.8005 4.06857 10.6772 4.06857H3.53155C3.4083 4.06857 3.31026 4.15821 3.31026 4.28146V17.7857C3.31026 17.9089 3.4083 17.9985 3.53155 17.9985H11.8957V15.8977C11.8814 15.9006 11.8683 15.9044 11.8554 15.9082C11.8304 15.9156 11.8057 15.9229 11.7724 15.9229H10.75C10.5203 15.9229 10.3411 15.7352 10.3411 15.514V15.4075C10.3411 15.1778 10.5203 14.9985 10.75 14.9985H10.8313V13.2086H10.7809C10.5512 13.2086 10.3719 13.0266 10.3719 12.7997V12.71C10.3719 12.4971 10.5344 12.3263 10.7388 12.3011C10.9265 12.2843 11.0974 12.2759 11.1646 12.2759C11.736 12.2759 11.7696 12.7352 11.7696 12.8249V15.0013C11.8117 15.0013 11.8509 15.0097 11.8929 15.0266V13.9509H11.8957ZM5.44192 7.33748C6.02455 7.33748 6.71923 7.65961 6.71923 9.20303C6.71923 10.7436 6.02455 11.0658 5.44192 11.0658C4.85648 11.0658 4.16181 10.7408 4.16181 9.20303C4.16181 7.65961 4.85648 7.33748 5.44192 7.33748ZM5.77525 9.20303C5.77525 10.1302 5.56517 10.1302 5.44192 10.1302C5.30746 10.1302 5.10578 10.1302 5.10578 9.20303C5.10578 8.27305 5.31587 8.27305 5.44192 8.27305C5.56797 8.27305 5.77525 8.27305 5.77525 9.20303ZM16.8985 14.668C17.8481 14.6904 18.8005 15.3095 18.8005 16.6428C18.8005 17.9789 17.8481 18.5952 16.9013 18.612H16.7668C15.8117 18.598 14.8565 17.9817 14.8565 16.6344C14.8565 15.2871 15.8089 14.6736 16.75 14.6652L16.8985 14.668ZM16.8789 17.3851C17.5736 17.3711 17.5736 16.8417 17.5736 16.6428C17.5736 16.4411 17.5736 15.9117 16.8705 15.8949H16.7612C16.0834 15.9005 16.0834 16.4355 16.0834 16.6372C16.0834 16.8389 16.0834 17.3767 16.7753 17.3879L16.8789 17.3851ZM8.68562 9.20303C8.68562 10.1302 8.47553 10.1302 8.35228 10.1302C8.21783 10.1302 8.01615 10.1302 8.01615 9.20303C8.01615 8.27305 8.22623 8.27305 8.35228 8.27305C8.47833 8.27305 8.68562 8.27305 8.68562 9.20303ZM8.35228 7.33748C8.93491 7.33748 9.62959 7.65961 9.62959 9.20303C9.62959 10.7436 8.93491 11.0658 8.35228 11.0658C7.76685 11.0658 7.07217 10.7408 7.07217 9.20303C7.07217 7.65961 7.76685 7.33748 8.35228 7.33748ZM6.36629 15.4047C6.36629 15.1778 6.18421 14.9957 5.95732 14.9957L5.95452 12.8221C5.95452 12.7324 5.92371 12.2787 5.35228 12.2787C5.28505 12.2787 5.11419 12.2871 4.92931 12.3039C4.71923 12.3235 4.55956 12.4999 4.55956 12.71V12.7997C4.55956 13.0266 4.74164 13.2086 4.96853 13.2086H5.01895V14.9957H4.93491C4.70802 14.9957 4.52595 15.1778 4.52595 15.4047V15.5111C4.52595 15.738 4.70802 15.9201 4.93491 15.9201H5.95732C6.18421 15.9201 6.36629 15.738 6.36629 15.5111V15.4047ZM8.35228 15.0406C8.47553 15.0406 8.68562 15.0406 8.68562 14.1134C8.68562 13.1834 8.47833 13.1834 8.35228 13.1834C8.22623 13.1834 8.01615 13.1834 8.01615 14.1134C8.01615 15.0406 8.21783 15.0406 8.35228 15.0406ZM9.62959 14.1134C9.62959 12.57 8.93491 12.2478 8.35228 12.2478C7.76685 12.2478 7.07217 12.5728 7.07217 14.1134C7.07217 15.6512 7.76685 15.9761 8.35228 15.9761C8.93491 15.9761 9.62959 15.654 9.62959 14.1134ZM20.5316 18.8361V16.5784C20.5316 16.5703 20.5296 16.5648 20.5276 16.5591C20.5254 16.5529 20.5231 16.5465 20.5231 16.5364V13.7801C20.5147 13.6568 20.4727 13.5027 20.3523 13.3711C20.2122 13.2254 19.9601 13.1442 19.6156 13.1442L14.1114 13.1526H14.0302C14.0234 13.1526 14.0161 13.1518 14.0081 13.151H14.0081C13.9897 13.1491 13.9679 13.1467 13.9405 13.1526C13.8033 13.1526 13.4979 13.1862 13.3187 13.3487C13.1898 13.4803 13.1226 13.6736 13.1226 13.9537V18.8529L13.1225 18.8602C13.1215 18.9197 13.1161 19.2305 13.3103 19.4327C13.4587 19.5812 13.694 19.654 14.0386 19.654H19.6156C19.7781 19.6624 20.131 19.6372 20.3355 19.4411C20.4755 19.3095 20.5316 19.1134 20.5316 18.8361ZM16.9965 9.26465C17.7668 9.28986 19.0582 9.59238 19.0582 11.4411H19.0554V11.9145L14.722 11.9229V11.4243C14.722 9.55877 15.9965 9.27305 16.75 9.26465H16.9965Z" fill="#313235"/>
</svg>
