<svg width="24" height="24" viewBox="0 0 24 24" fill="none" xmlns="http://www.w3.org/2000/svg">
<path fill-rule="evenodd" clip-rule="evenodd" d="M21.6386 7.78703C21.6694 7.85986 21.6862 7.94109 21.6862 8.02512V20.3304C21.6862 21.0811 21.0419 21.7141 20.28 21.7141H8.09801C7.34732 21.7141 6.68906 21.0671 6.68906 20.3304L6.72267 17.5601H4.42016C3.08683 17.5601 2 16.4705 2 15.1343V11.0391C2 9.70299 3.08683 8.61335 4.42016 8.61335H6.68625V3.40889C6.68625 2.68341 7.35572 2.02515 8.09521 2.02515H15.5097C15.7394 2.02515 15.9551 2.11198 16.1204 2.26884L21.4201 7.40047C21.5321 7.50972 21.5966 7.64417 21.6386 7.78703ZM20.28 20.4985C20.3781 20.4985 20.4733 20.4032 20.4733 20.3304V8.89627H18.1624C17.1484 8.89627 16.2716 8.56573 15.6274 7.94389C14.9775 7.31364 14.633 6.4565 14.633 5.46211V3.24363H8.09801C8.02518 3.24363 7.91034 3.35287 7.90474 3.4117V8.61335H14.9187C16.252 8.61335 17.3389 9.70299 17.3389 11.0391V15.1343C17.3389 16.4705 16.252 17.5601 14.9187 17.5601H7.94115L7.90754 20.3388C7.90754 20.3892 8.00838 20.4985 8.10081 20.4985H20.28ZM3.21288 15.1343C3.21288 15.801 3.75349 16.3444 4.42016 16.3444H14.9131C15.5798 16.3444 16.1204 15.801 16.1204 15.1343V11.0391C16.1204 10.3725 15.5798 9.82904 14.9131 9.82904H4.42016C3.75349 9.82904 3.21288 10.3725 3.21288 11.0391V15.1343ZM19.9606 7.67778L19.9635 7.68058V7.67778H19.9606ZM19.9606 7.67778L15.8487 3.69461V5.45931C15.8487 6.11757 16.0644 6.67219 16.4705 7.06714C16.8851 7.4677 17.4677 7.67778 18.1624 7.67778H19.9606ZM3.84593 11.5797H4.55181V12.8402H5.64144V11.5797H6.34732V14.675H5.64144V13.3724H4.55181V14.675H3.84593V11.5797ZM7.70586 12.0895H6.74788V11.5797H9.40333L9.35011 12.0895H8.41454V14.6722H7.70866V12.0895H7.70586ZM10.3277 11.5797H9.77028V14.675H10.3641V12.8738L11.0252 13.9691H11.5686L12.21 12.8934V14.675H12.8571V11.5797H12.3137L11.3053 13.308L10.3277 11.5797ZM13.5266 11.5797H14.2324V14.1623H15.6022V14.675H13.5266V11.5797Z" fill="#313235"/>
</svg>
