<svg width="24" height="24" viewBox="0 0 24 24" fill="none" xmlns="http://www.w3.org/2000/svg">
<path fill-rule="evenodd" clip-rule="evenodd" d="M21.6386 7.78714C21.6694 7.85997 21.6862 7.9412 21.6862 8.02524V20.3305C21.6862 21.0812 21.0419 21.7143 20.2772 21.7143H8.09522C7.34452 21.7143 6.68906 21.0672 6.68906 20.3305L6.72268 17.5574H4.42297C3.08964 17.5574 2.00281 16.4678 2.00281 15.1316V11.0364C2.00281 9.7003 3.08964 8.61067 4.42297 8.61067H6.68906V3.40621C6.68906 2.68352 7.35853 2.02246 8.09522 2.02246H15.5098C15.7422 2.02246 15.9607 2.1093 16.1232 2.27176L21.4201 7.39779C21.5321 7.50703 21.5966 7.64429 21.6386 7.78714ZM20.2772 20.4986C20.3753 20.4986 20.4705 20.4033 20.4705 20.3305V8.89638H18.1568C17.1428 8.89638 16.2661 8.56585 15.6218 7.944C14.9719 7.31376 14.6274 6.45662 14.6274 5.46222V3.24374H8.09242C8.01959 3.24374 7.90474 3.35299 7.89914 3.41181V8.61347H14.2633C15.5994 8.61347 16.6834 9.7031 16.6834 11.0392V15.1344C16.6834 16.4706 15.5966 17.5602 14.2633 17.5602H7.93275L7.89914 20.3389C7.89914 20.3893 7.99998 20.4986 8.09242 20.4986H20.2772ZM3.21289 15.1345C3.21289 15.8011 3.7535 16.3445 4.42016 16.3445H14.2661C14.9327 16.3445 15.4733 15.8011 15.4733 15.1345V11.0392C15.4733 10.3726 14.9327 9.82915 14.2661 9.82915H4.42016C3.7535 9.82915 3.21289 10.3726 3.21289 11.0392V15.1345ZM15.8459 3.69752L19.9607 7.6807H18.1596C17.4649 7.6807 16.8823 7.47062 16.4677 7.07006C16.0616 6.6751 15.8459 6.12048 15.8459 5.46222V3.69752ZM13.4425 14.0896H11.8235C11.8123 14.0532 11.8011 13.972 11.8011 13.902C11.8011 13.7507 11.8291 13.5798 11.9131 13.3417L12.6778 11.2521H13.4201L12.591 13.5126H13.4425V12.6359H14.2128V13.5126H14.6442V14.0896H14.2128V14.9356H13.4425V14.0896ZM4.18207 11.2549H4.84313L6.00559 13.3109L7.20727 11.2549H7.85432V14.9356H7.08402V12.8151L6.31932 14.0952H5.67226L4.88515 12.7927V14.9356H4.18207V11.2549ZM8.65544 11.2549H9.91874C10.4958 11.2549 10.8599 11.3361 11.098 11.5574C11.2969 11.7395 11.3949 12.0252 11.3949 12.4174C11.3949 12.8095 11.3025 13.1064 11.1204 13.3109C10.9047 13.5518 10.5714 13.6667 10.0868 13.6667H9.49577V14.9356H8.65544V11.2549ZM10.3949 12.8964C10.2857 13 10.1736 13.0364 9.90474 13.0364H9.49297V11.8628H9.88513C10.1428 11.8628 10.2997 11.8992 10.4005 11.9916C10.4986 12.084 10.5406 12.2297 10.5406 12.4286C10.5406 12.6443 10.493 12.7983 10.3949 12.8964Z" fill="#313235"/>
</svg>
