<svg width="24" height="24" viewBox="0 0 24 24" fill="none" xmlns="http://www.w3.org/2000/svg">
<path fill-rule="evenodd" clip-rule="evenodd" d="M17.4847 7.27725C17.4203 7.33887 17.4231 7.43971 17.4875 7.50694L20.5855 10.6022C20.9385 11.056 20.9917 11.5826 20.7676 12.0336C20.5435 12.4845 20.0897 12.7646 19.5855 12.7646H4.83764V21.1344C4.83764 21.4509 4.57714 21.7086 4.25781 21.7086C3.93848 21.7086 3.67798 21.4509 3.67798 21.1344V3.33327C3.67798 2.61338 4.26901 2.02515 4.99451 2.02515H19.5855C20.0925 2.02515 20.5435 2.30526 20.7676 2.75624C20.9917 3.20722 20.9385 3.73383 20.6332 4.13159L17.4847 7.27725ZM19.5855 11.6162C19.6724 11.6162 19.7116 11.5602 19.7284 11.5265C19.748 11.4873 19.762 11.4257 19.7116 11.3613L16.6612 8.31646C16.1542 7.79826 16.157 6.97193 16.664 6.46492L19.7648 3.37809C19.7648 3.36968 19.7508 3.31086 19.7312 3.26884C19.7144 3.23523 19.6752 3.17921 19.5883 3.17921H4.99731C4.90767 3.17921 4.83764 3.24924 4.83764 3.33607V11.6162H19.5855Z" fill="#313235"/>
</svg>
