<svg width="24" height="24" viewBox="0 0 24 24" fill="none" xmlns="http://www.w3.org/2000/svg">
<path fill-rule="evenodd" clip-rule="evenodd" d="M21.7101 15.4676L21.7087 15.4565L21.7089 15.4526L21.7094 15.4491C21.71 15.4454 21.7104 15.4423 21.7087 15.4369L21.6947 15.3165C21.6925 15.3022 21.6911 15.2879 21.6898 15.2738V15.2737C21.6878 15.2519 21.6858 15.2304 21.6806 15.21L20.1905 3.38375C20.042 2.57703 19.4146 2.01401 18.6667 2.01401L5.07568 2C4.28016 2 3.6303 2.65266 3.63591 3.36694L2.03367 15.3725C2.03203 15.3823 2.03327 15.3922 2.03458 15.4026C2.03551 15.4099 2.03647 15.4176 2.03647 15.4257C2.03535 15.438 2.03334 15.4504 2.03132 15.4627C2.02829 15.4812 2.02527 15.4997 2.02527 15.5182V20.2408C2.02527 21.0391 2.67513 21.689 3.47064 21.689H20.2689C21.0672 21.689 21.7143 21.0391 21.7143 20.2408V15.5182C21.7143 15.4996 21.7123 15.4849 21.7101 15.4676ZM4.87119 3.44817L3.45664 14.07C3.45944 14.07 3.46154 14.0693 3.46364 14.0686C3.46574 14.0679 3.46784 14.0672 3.47064 14.0672H20.2689C20.2717 14.0672 20.2745 14.0679 20.2773 14.0686L20.2773 14.0686C20.2801 14.0693 20.2829 14.07 20.2857 14.07L18.9636 3.57702C18.9328 3.40896 18.8039 3.2605 18.6667 3.2605L5.07568 3.24649C4.96363 3.24369 4.8712 3.33613 4.87119 3.44817ZM20.2689 20.4425C20.3809 20.4425 20.4706 20.3501 20.4706 20.238V15.5546L20.4622 15.4985C20.4538 15.3949 20.3725 15.3109 20.2661 15.3109H3.46784C3.3558 15.3109 3.26616 15.4033 3.26616 15.5153V20.238C3.26616 20.3501 3.3586 20.4425 3.46784 20.4425H20.2689ZM11.8712 7.94955C10.9776 7.94955 10.9776 8.3221 10.9776 8.48177C10.9776 8.64143 10.9776 9.01118 11.8712 9.01118C12.7647 9.01118 12.7647 8.64143 12.7647 8.48177C12.7647 8.3221 12.7647 7.94955 11.8712 7.94955ZM10.1513 8.48177C10.1513 8.89073 10.3194 9.8403 11.8712 9.8403C13.423 9.8403 13.591 8.89073 13.5938 8.48177C13.5938 8.0728 13.4258 7.12043 11.8712 7.12043C10.3194 7.12043 10.1513 8.0728 10.1513 8.48177ZM17.9244 18.7086C18.4286 18.7086 18.6274 18.5125 18.6274 18.0027C18.6274 17.4957 18.4286 17.2997 17.9244 17.2997C17.4202 17.2997 17.2213 17.4985 17.2213 18.0027C17.2213 18.5125 17.4174 18.7086 17.9244 18.7086ZM19.4538 18.0027C19.4538 17.0448 18.8823 16.4705 17.9244 16.4705C16.9664 16.4705 16.3922 17.0448 16.395 18.0027C16.395 18.9635 16.9664 19.5377 17.9244 19.5377C18.8823 19.5377 19.4538 18.9635 19.4538 18.0027ZM6.07007 4.76469C5.59668 4.76469 5.32217 4.59103 5.32217 4.22408C5.32217 3.85433 5.59668 3.68347 6.07007 3.68347C6.54066 3.68347 6.81797 3.85714 6.81797 4.22408C6.81797 4.59383 6.54346 4.76469 6.07007 4.76469ZM16.5434 4.22408C16.5434 4.59103 16.8179 4.76469 17.2913 4.76469C17.7619 4.76469 18.0392 4.59383 18.0392 4.22408C18.0392 3.85714 17.7619 3.68347 17.2913 3.68347C16.8179 3.68347 16.5434 3.85433 16.5434 4.22408ZM18.8935 13.605C18.4202 13.605 18.1456 13.4313 18.1456 13.0644C18.1456 12.6946 18.4202 12.5238 18.8935 12.5238C19.3669 12.5238 19.6414 12.6946 19.6414 13.0644C19.6414 13.4341 19.3669 13.605 18.8935 13.605ZM4.888 12.3893C4.8824 12.3053 4.95523 12.1876 5.08968 12.0644C5.888 11.3333 7.94401 9.92434 8.43701 9.92434C8.45101 9.92434 8.46502 9.92434 8.47622 9.92714C8.54345 10.2941 7.37819 11.7311 6.37539 12.6498C5.92721 13.0588 5.47623 12.9131 5.17932 12.7198C5.00565 12.605 4.8964 12.4817 4.888 12.3893ZM7.35578 8.48177C7.35578 8.8291 7.409 9.14563 7.49023 9.43414C8.07846 9.16804 8.61908 9.05319 8.95801 9.27448C9.15969 9.40613 9.28294 9.61341 9.30255 9.86271C9.32776 10.1904 9.14849 10.605 8.87678 11.0308L8.89639 11.0392C9.63308 11.3921 10.6359 11.5714 11.8684 11.5714C16.3838 11.5714 16.3838 9.24367 16.3838 8.48177C16.3838 7.71706 16.3838 5.38654 11.8684 5.38654C7.35578 5.38934 7.35578 7.71706 7.35578 8.48177ZM4.06448 12.4593C4.08688 12.7114 4.21854 13.084 4.73114 13.4173C5.06727 13.6358 5.41741 13.7422 5.75915 13.7394C6.17931 13.7394 6.58547 13.577 6.93281 13.2577C6.98043 13.2156 7.55746 12.6834 8.12888 12.0196C8.13888 12.0276 8.14781 12.0363 8.15668 12.0449C8.17268 12.0605 8.1885 12.076 8.21012 12.0868L8.35857 12.1596C9.26613 12.5966 10.4482 12.8151 11.8684 12.8151C16.8795 12.8151 17.6274 10.098 17.6274 8.47896C17.6274 6.85712 16.8795 4.14005 11.8684 4.14005C6.86278 4.14005 6.11489 6.85712 6.11489 8.47896C6.11489 9.05039 6.20452 9.5798 6.37539 10.0504C6.37539 10.0518 6.37609 10.0525 6.37679 10.0532C6.37749 10.0539 6.37819 10.0546 6.37819 10.056C5.44341 10.6649 4.62832 11.3681 4.53994 11.4443C4.53563 11.4481 4.53304 11.4503 4.53226 11.4509C4.10929 11.8403 4.04487 12.2128 4.06448 12.4593Z" fill="#313235"/>
</svg>
