<svg width="24" height="24" viewBox="0 0 24 24" fill="none" xmlns="http://www.w3.org/2000/svg">
<path fill-rule="evenodd" clip-rule="evenodd" d="M11.1611 4.05042C11.1639 4.39216 11.444 4.66947 11.7858 4.66667C12.1303 4.66667 12.4076 4.39216 12.4104 4.05322V2.61625C12.4104 2.27451 12.1303 2 11.7858 2C11.4412 2 11.1611 2.27451 11.1611 2.61625V4.05042ZM17.4777 10.8571C17.4777 5.71989 13.1695 5.28571 12.0631 5.26331C11.8922 5.2549 11.6989 5.2549 11.5253 5.2549C10.3908 5.26331 6.17233 5.64986 6.17233 10.8263C6.17233 13.4398 7.25916 14.8403 8.47765 15.5798L8.48605 16.6947C8.48605 17.2073 8.63732 17.605 8.93704 17.8683C9.22275 18.1261 9.65972 18.2577 10.8278 18.2577H12.825C14.0211 18.2577 14.4552 18.1261 14.741 17.8683C15.0351 17.605 15.1807 17.2073 15.1807 16.6947L15.1723 15.5742C16.3908 14.8291 17.4777 13.4398 17.4777 10.8571ZM16.2284 10.8571C16.2284 12.619 15.6681 13.8207 14.5141 14.5266C14.5141 14.5266 13.9202 14.888 13.9286 14.888L13.9314 15.5798L13.9398 16.6919C13.9398 16.7759 13.9314 16.8599 13.909 16.9412C13.8194 16.9692 13.5505 17.0224 12.8306 17.0224H10.8334C10.1107 17.0224 9.853 16.9636 9.77177 16.9384C9.76056 16.9104 9.73816 16.8347 9.73816 16.6835L9.72975 15.5714L9.72415 14.888L9.13311 14.5322C7.99586 13.8431 7.42163 12.5966 7.42163 10.8291C7.42163 7.07283 9.99586 6.4986 11.5309 6.4902H11.5673C11.7157 6.4902 11.8782 6.4902 12.0351 6.4958C15.8194 6.57703 16.2284 9.57423 16.2284 10.8571ZM11.4524 7.13165C13.36 7.17367 15.4636 8.2381 15.6149 11.1036C15.6317 11.4454 15.3656 11.7339 15.0239 11.7507H14.9903C14.6597 11.7535 14.388 11.4958 14.3684 11.1681C14.2396 8.69188 12.2592 8.38095 11.416 8.36415C11.3681 8.36295 11.3196 8.36329 11.2708 8.36363H11.2708H11.2708H11.2708H11.2708H11.2708H11.2708H11.2708C11.2056 8.36409 11.14 8.36455 11.0743 8.36134C10.7326 8.36415 10.4524 8.08683 10.4496 7.7451C10.4496 7.40336 10.7298 7.12885 11.0743 7.12885C11.1975 7.12885 11.3348 7.12885 11.4524 7.13165ZM15.1751 19.3697C15.1751 19.0308 14.895 18.7535 14.5505 18.7535H9.25636C8.91183 18.7535 8.63171 19.028 8.63171 19.3697C8.63451 19.7115 8.91463 19.9888 9.25636 19.986H14.5505C14.895 19.986 15.1751 19.7115 15.1751 19.3697ZM13.8362 20.4538C14.1807 20.4538 14.4608 20.7311 14.4608 21.07C14.4608 21.4118 14.1807 21.6863 13.8362 21.6863H9.81098C9.46925 21.6891 9.18914 21.4118 9.18633 21.07C9.18633 20.7283 9.46645 20.4538 9.81098 20.4538H13.8362ZM16.8894 6.31653C16.7241 6.31653 16.5673 6.2521 16.4496 6.13725C16.2087 5.90196 16.2059 5.51541 16.4412 5.27451L16.4496 5.26611L17.4748 4.2493C17.7185 4.0084 18.1135 4.0084 18.3572 4.2493C18.5981 4.48739 18.6009 4.87395 18.3628 5.11485L18.3572 5.12045L17.3292 6.13445C17.2143 6.2521 17.0547 6.31653 16.8894 6.31653ZM6.16112 6.31373C6.40482 6.55462 6.79978 6.55462 7.04348 6.31373L7.04908 6.30812C7.28717 6.06723 7.28437 5.68067 7.04348 5.44258L6.01827 4.42577C5.77177 4.18487 5.37961 4.18487 5.13591 4.42577L5.12751 4.43417C4.89222 4.67507 4.89502 5.06443 5.13591 5.29972L6.16112 6.31373ZM4.91743 9.95238C5.26196 9.95238 5.54208 10.2297 5.54208 10.5686C5.54208 10.9104 5.26196 11.1849 4.91743 11.1849H3.46645C3.12471 11.1877 2.8446 10.9104 2.8418 10.5686C2.8418 10.2269 3.12191 9.95238 3.46645 9.95238H4.91743ZM20.8866 10.4958C20.8866 10.1541 20.6065 9.87955 20.262 9.87955H18.811C18.4664 9.87955 18.1863 10.1541 18.1863 10.4958C18.1891 10.8375 18.4692 11.1148 18.811 11.112H20.262C20.6065 11.112 20.8866 10.8375 20.8866 10.4958Z" fill="#313235"/>
</svg>
