<svg width="24" height="24" viewBox="0 0 24 24" fill="none" xmlns="http://www.w3.org/2000/svg">
<path fill-rule="evenodd" clip-rule="evenodd" d="M21.8462 13.8406C21.8462 13.2355 21.6781 12.7818 21.4652 12.4484C21.6753 12.1011 21.8462 11.6165 21.849 10.947C21.849 9.41762 20.6697 8.66411 19.4652 8.59969H16.0535L13.9834 8.53806C13.9862 7.71173 13.989 6.18232 13.989 4.92462L13.9946 4.79297L13.9974 4.69493C13.9974 3.10669 13.0619 2.15991 11.4988 2.15991C10.6809 2.15991 10.0143 2.41201 9.57168 2.8882C9.27756 3.20753 8.93582 3.78736 9.00305 4.73694L9.02266 4.96663C9.0232 4.97183 9.02373 4.97701 9.02427 4.98217C9.03211 5.05766 9.03964 5.13013 9.04226 5.22714L9.04507 5.26916C9.07028 6.3812 9.08428 7.78456 8.97504 8.90781C8.85739 10.1403 7.6389 10.9022 7.08988 11.1823C6.84339 10.9918 6.53806 10.8742 6.20473 10.8742H3.61369C2.81257 10.8742 2.15991 11.5269 2.15991 12.3308V19.9274C2.15991 20.7313 2.80977 21.384 3.61369 21.384H6.20473C6.54367 21.3812 6.8714 21.2608 7.1319 21.0423C7.15182 21.0466 7.17148 21.052 7.19111 21.0574C7.23497 21.0695 7.27874 21.0815 7.32518 21.0815L10.1291 21.1179C10.2888 21.1179 10.5437 21.1907 10.8602 21.2832L11.0675 21.342C11.8378 21.5689 12.7958 21.849 15.0535 21.849C18.6669 21.849 19.5661 21.5185 20.1291 19.9918C20.1431 19.9582 20.1543 19.919 20.1599 19.8826C20.2355 19.426 20.2411 19.0339 20.1711 18.6865C20.9078 18.2243 21.3196 17.5437 21.3196 16.7566C21.3196 16.2664 21.2243 15.8826 21.0983 15.5885C21.5829 15.1039 21.8462 14.496 21.8462 13.8406ZM20.2243 12.0283C19.9918 12.2776 20.0058 12.6697 20.2551 12.9022C20.496 13.1263 20.6193 13.44 20.6193 13.8406C20.6193 14.272 20.3952 14.6445 19.9526 14.9414C19.8098 15.0423 19.7145 15.1991 19.6921 15.37C19.6697 15.5409 19.7229 15.7173 19.835 15.849C20.0002 16.0451 20.0899 16.356 20.0899 16.7509C20.0899 17.314 19.5941 17.6417 19.1795 17.8126C19.1599 17.821 19.1431 17.8294 19.1235 17.8406C18.8266 18.003 18.7145 18.3756 18.877 18.6753C18.961 18.8266 19.0423 19.0703 18.9582 19.6165C18.7117 20.2804 18.496 20.6137 15.0563 20.6137C12.9855 20.6137 12.1571 20.3724 11.4287 20.1603L11.4176 20.1571L11.2019 20.0955C10.793 19.9778 10.468 19.8854 10.1403 19.8854L7.66411 19.8518V12.3308C7.66411 12.3224 7.66271 12.3147 7.66131 12.307C7.65991 12.2993 7.65851 12.2916 7.65851 12.2832V12.2748C8.41762 11.8854 10.0255 10.8462 10.1991 9.02546C10.314 7.81537 10.2972 6.33078 10.272 5.17392C10.272 5.15152 10.2692 5.12912 10.2664 5.10671L10.2664 5.10669C10.2611 5.01444 10.2533 4.93708 10.2454 4.85825L10.2439 4.84339L10.2271 4.65291C10.1991 4.24114 10.2804 3.93022 10.4708 3.72574C10.7285 3.44563 11.1711 3.3896 11.4988 3.3896C12.3896 3.3896 12.7706 3.77896 12.7678 4.75375L12.7622 4.8742V4.90781C12.7622 6.73134 12.7537 9.1291 12.7537 9.1291C12.7509 9.46523 13.0171 9.73974 13.3504 9.74815L16.0339 9.82658H19.426C19.7846 9.84619 20.6165 9.99465 20.6165 10.9442C20.6165 11.4176 20.4904 11.7818 20.258 11.9946L20.2243 12.0283ZM5.65011 13.7117C5.65011 13.2636 5.33638 12.9498 4.8882 12.9498C4.43722 12.9498 4.1263 13.2608 4.1263 13.7117C4.1263 14.1599 4.44002 14.4736 4.8882 14.4736C5.33638 14.4736 5.65011 14.1599 5.65011 13.7117ZM6.20473 20.1515C6.32518 20.1515 6.42322 20.0563 6.42882 19.9358V12.3168C6.42322 12.1963 6.32518 12.1011 6.20473 12.1011H3.61369C3.48764 12.1011 3.3868 12.2047 3.3868 12.3308V19.9246C3.3868 20.0507 3.49044 20.1515 3.61369 20.1515H6.20473Z" fill="#313235"/>
</svg>
