<svg width="24" height="24" viewBox="0 0 24 24" fill="none" xmlns="http://www.w3.org/2000/svg">
<path fill-rule="evenodd" clip-rule="evenodd" d="M21.7172 7.93058C22.101 6.44318 21.636 5.06783 20.2971 3.72049C17.4007 0.80733 14.72 2.30873 11.5884 5.46279C10.9805 6.07344 10.4875 6.61405 10.0758 7.11825C9.85729 7.38156 9.8965 7.77372 10.1598 7.9922C10.4231 8.21069 10.8125 8.17147 11.031 7.90817C11.4175 7.43478 11.8853 6.92218 12.4623 6.33954C15.748 3.03142 17.4427 2.61125 19.4203 4.60285C21.4007 6.59725 20.9805 8.29753 17.692 11.6056C14.4035 14.911 12.7144 15.3339 10.7312 13.3423C10.0282 12.6337 9.6444 11.9614 9.56317 11.2919C9.52115 10.9502 9.21023 10.7177 8.87409 10.7513C8.53516 10.7905 8.29426 11.1014 8.33628 11.4432C8.45673 12.4012 8.95253 13.3087 9.86009 14.2191C10.9441 15.3087 11.9973 15.7821 13.0534 15.7821C14.8237 15.7821 16.608 14.4544 18.5688 12.4824C20.4147 10.6253 21.3839 9.2219 21.7172 7.93058ZM13.8573 16.0538C13.5996 15.8269 13.2102 15.8577 12.9861 16.1183C12.6276 16.5356 11.9805 17.2331 11.5492 17.6673C9.8909 19.3367 8.6332 20.2387 7.58838 20.5104C6.54356 20.7821 5.61919 20.4432 4.58838 19.4068C3.55757 18.3704 3.21863 17.4404 3.49034 16.3872C3.75925 15.3367 4.65561 14.0734 6.31387 12.404C7.97213 10.7345 9.22984 9.83254 10.2747 9.56083C11.3223 9.29192 12.2466 9.63086 13.2747 10.6673C14.0057 11.4012 14.3895 12.0986 14.4511 12.7961C14.4791 13.1379 14.7873 13.3816 15.1206 13.362C15.4595 13.3311 15.7116 13.0286 15.6808 12.6869C15.594 11.6869 15.0898 10.7401 14.1458 9.78772C11.2522 6.87456 8.57157 8.37596 5.43992 11.5244C2.30827 14.6757 0.815271 17.3704 3.71163 20.2835C4.75085 21.3283 5.80407 21.8437 6.91611 21.8437C7.23824 21.8437 7.56317 21.8017 7.8965 21.7149C9.17942 21.3816 10.5744 20.404 12.4203 18.5496C12.8797 18.0874 13.5408 17.376 13.9217 16.9306C14.143 16.6701 14.115 16.2779 13.8573 16.0538Z" fill="#313235"/>
</svg>
