<svg width="24" height="24" viewBox="0 0 24 24" fill="none" xmlns="http://www.w3.org/2000/svg">
<path fill-rule="evenodd" clip-rule="evenodd" d="M16.8235 21.5H8.6635C6.6395 21.5 4.9935 19.854 4.9935 17.83C4.9935 17.416 5.3295 17.08 5.7435 17.08C6.1575 17.08 6.4935 17.416 6.4935 17.83C6.4935 19.026 7.4675 20 8.6635 20H16.8235C18.0195 20 18.9935 19.026 18.9935 17.83V5.67C18.9935 4.474 18.0195 3.5 16.8235 3.5H8.6635C7.4675 3.5 6.4935 4.474 6.4935 5.67C6.4935 6.084 6.1575 6.42 5.7435 6.42C5.3295 6.42 4.9935 6.084 4.9935 5.67C4.9935 3.646 6.6395 2 8.6635 2H16.8235C18.8465 2 20.4935 3.646 20.4935 5.67V17.83C20.4935 19.854 18.8465 21.5 16.8235 21.5ZM4.5438 11L6.265 9.2788C6.558 8.9858 6.558 8.5108 6.265 8.2178C5.972 7.9248 5.497 7.9248 5.204 8.2178L2.22 11.2018C2.078 11.3428 2 11.5348 2 11.7348C2 11.9338 2.08 12.1248 2.223 12.2658L5.236 15.2488C5.381 15.3938 5.573 15.4658 5.763 15.4658C5.956 15.4658 6.15 15.3918 6.296 15.2428C6.587 14.9488 6.585 14.4748 6.29 14.1828L4.59142 12.5H11.7435C12.1575 12.5 12.4935 12.164 12.4935 11.75C12.4935 11.336 12.1575 11 11.7435 11H4.5438Z" fill="#313235"/>
</svg>
