<svg width="24" height="24" viewBox="0 0 24 24" fill="none" xmlns="http://www.w3.org/2000/svg">
<path fill-rule="evenodd" clip-rule="evenodd" d="M20.8882 3.1179C21.5381 3.75375 21.8462 4.65291 21.8462 5.84899V18.1487C21.8462 19.37 21.5297 20.272 20.8798 20.905C20.2383 21.5325 19.3364 21.8462 18.1207 21.8462H11.9134C10.6949 21.8462 9.79577 21.5325 9.14591 20.905C8.56888 20.3336 8.26075 19.5633 8.19633 18.5521V18.0059H8.08148C4.34479 18.003 2.15991 16.1319 2.15991 12.1347C2.15991 8.1403 4.34479 6.26916 8.08428 6.26916H8.19072V5.84899C8.19072 4.66691 8.49885 3.77616 9.14591 3.1319C9.79577 2.48204 10.6977 2.15991 11.9134 2.15991H18.1207C19.3392 2.15991 20.2467 2.47364 20.8882 3.1179ZM20.6277 18.1487V5.84899C20.6277 4.98064 20.4344 4.36159 20.0283 3.96944C19.6221 3.56047 18.9974 3.36439 18.1207 3.36439H11.9134C11.0451 3.36439 10.4204 3.56607 10.0059 3.97504C9.59969 4.384 9.40641 4.99745 9.40641 5.84899V6.35599C12.3364 6.75655 14.0143 8.6305 14.0143 12.1347C14.0143 15.6305 12.342 17.5044 9.41201 17.9134V18.5073C9.45403 19.1823 9.64731 19.6977 10.003 20.0423C10.4092 20.4428 11.0339 20.6389 11.9106 20.6389H18.1179C18.9946 20.6389 19.6193 20.4456 20.0255 20.0423C20.4344 19.6501 20.6277 19.0339 20.6277 18.1487ZM9.94983 10.3532C9.94983 9.70613 9.73694 9.24955 9.28036 8.91902C8.93022 8.65571 8.45403 8.52126 7.86299 8.52406C7.36439 8.52406 6.77616 8.6221 6.49605 8.75375C6.32798 8.83218 6.23554 9.01145 6.26916 9.19353L6.30837 9.39241C6.30837 9.39381 6.30907 9.39591 6.30977 9.39801C6.31047 9.40011 6.31117 9.40221 6.31117 9.40361C6.36439 9.6221 6.58568 9.75935 6.80697 9.70613C7.14591 9.6193 7.42882 9.58288 7.74535 9.58288C8.30557 9.58288 8.49605 9.67812 8.59969 9.76215C8.78176 9.90781 8.85179 10.0703 8.85179 10.3448C8.85179 10.7313 8.74255 10.9582 7.90781 11.9358L7.80977 12.0507C7.28876 12.6697 7.04226 13.0843 7.04226 13.765C7.03946 13.8994 7.05347 14.0339 7.07868 14.1655C7.1179 14.356 7.28316 14.4904 7.47644 14.4904H7.73694C7.96103 14.4904 8.14311 14.3112 8.14311 14.0899C8.14311 13.7708 8.14311 13.582 8.1961 13.4095C8.2729 13.1594 8.46102 12.9436 8.92182 12.4148C9.6221 11.5941 9.94983 11.1235 9.94983 10.3532ZM8.30557 15.412C8.30557 15.0311 8.02546 14.7537 7.6221 14.7537C7.23554 14.7537 6.95543 15.0311 6.95543 15.4148V15.4512C6.95543 15.835 7.22994 16.1011 7.6389 16.1011C8.03106 16.1011 8.30557 15.8322 8.30557 15.412ZM12.7986 12.1375C12.7986 15.3196 11.2972 16.7986 8.08428 16.7986C4.877 16.7986 3.3784 15.3196 3.3784 12.1375C3.3784 8.95543 4.8798 7.47644 8.08428 7.47644C11.2972 7.47644 12.7986 8.95543 12.7986 12.1375ZM16.0703 18.003C16.0703 17.3448 15.6781 16.9582 15.0143 16.9582C14.356 16.9582 13.9666 17.3448 13.9694 18.003C13.9694 18.3224 14.0563 18.5801 14.2355 18.7565C14.4232 18.9498 14.6893 19.0451 15.0143 19.0451C15.3364 19.0451 15.6053 18.9498 15.793 18.7565C15.9806 18.5801 16.0703 18.3224 16.0703 18.003Z" fill="#313235"/>
</svg>
