<svg width="24" height="24" viewBox="0 0 24 24" fill="none" xmlns="http://www.w3.org/2000/svg">
<path fill-rule="evenodd" clip-rule="evenodd" d="M14.7203 16.0843V10.8154C14.7203 9.46523 15.4654 8.72014 16.8155 8.72014H17.7119V8.71173C17.7119 7.877 17.541 7.25515 17.1993 6.86579C16.8547 6.47084 16.3113 6.27756 15.541 6.27756H5.45135C4.68104 6.27756 4.13763 6.47084 3.79309 6.86579C3.45415 7.25515 3.28048 7.877 3.28048 8.71173V13.6501C3.28048 14.4848 3.45135 15.1067 3.79309 15.496C4.13763 15.891 4.68104 16.0843 5.45135 16.0843H14.7203ZM14.7203 17.2019H5.45135C4.35331 17.2019 3.51017 16.8742 2.94715 16.2327C2.42334 15.6333 2.16003 14.765 2.16003 13.6501V8.71173C2.16003 7.59689 2.42614 6.72854 2.94715 6.1291C3.51017 5.48484 4.35051 5.15991 5.45135 5.15991H15.541C16.639 5.15991 17.4822 5.48764 18.0452 6.1291C18.569 6.72854 18.8323 7.59689 18.8323 8.71173V8.72014H19.7539C21.1236 8.72014 21.8491 9.44563 21.8491 10.8154V17.3056C21.8463 18.6753 21.1236 19.4008 19.7511 19.4008H16.8155C15.4457 19.4008 14.7203 18.6753 14.7203 17.3056V17.2019ZM7.90233 19.4036H12.8183C13.1292 19.4036 13.3785 19.1515 13.3785 18.8434C13.3785 18.5353 13.1264 18.2832 12.8183 18.2832H7.90233C7.59421 18.2832 7.34211 18.5353 7.34211 18.8434C7.34211 19.1515 7.59421 19.4036 7.90233 19.4036ZM18.2833 17.5997C17.9976 17.5997 17.8267 17.4876 17.7343 17.3924C17.6446 17.3 17.5354 17.1319 17.5354 16.8518C17.5354 16.3952 17.8295 16.1011 18.2833 16.1011C18.7371 16.1011 19.0312 16.3952 19.0312 16.8518C19.0312 17.1319 18.9247 17.3 18.8323 17.3924C18.7399 17.4848 18.569 17.5997 18.2833 17.5997ZM16.8155 9.83778C16.0872 9.83778 15.8407 10.0843 15.8407 10.8126V17.3028C15.8407 17.6781 15.9107 17.9386 16.048 18.0759C16.1852 18.2103 16.4429 18.2804 16.8183 18.2804H19.7567C20.132 18.2804 20.3897 18.2131 20.527 18.0759C20.6642 17.9414 20.7343 17.6809 20.7343 17.3028V10.8154C20.7343 10.0675 20.5074 9.84058 19.7595 9.84058H16.8155V9.83778Z" fill="#313235"/>
</svg>
