<svg width="24" height="24" viewBox="0 0 24 24" fill="none" xmlns="http://www.w3.org/2000/svg">
<path fill-rule="evenodd" clip-rule="evenodd" d="M16.944 3.98744C19.9776 4.21153 21.0448 6.73814 21.0448 8.91741C21.0448 9.48324 20.9608 10.8362 20.2437 11.9958C20.9636 13.1583 21.0476 14.5056 21.0476 15.0687C21.0476 17.2619 19.9636 19.8138 16.944 20.007C16.4678 21.1919 15.4538 21.8362 14.0448 21.8362C13.1148 21.8362 12.465 21.3684 12.0364 20.825C11.6331 21.3264 10.9832 21.8362 10.0056 21.8362C8.59104 21.8362 7.57423 21.1891 7.10084 19.9986C4.06723 19.7746 3 17.2451 3 15.0659C3 14.5028 3.08403 13.1499 3.80392 11.9902C3.08403 10.8278 3 9.48043 3 8.91741C3 6.72133 4.08403 4.16951 7.10364 3.97903C7.58263 2.80817 8.61625 2.1499 10.0028 2.1499C10.9328 2.1499 11.5798 2.61769 12.0084 3.16111C12.4146 2.65971 13.0644 2.1499 14.042 2.1499C15.4538 2.1499 16.4706 2.79976 16.944 3.98744ZM10.0028 20.6317C9.2493 20.6317 8.71989 20.3768 8.40056 19.8586C8.58263 19.7886 8.76471 19.7017 8.94678 19.5869C9.22409 19.4132 9.30812 19.0435 9.13445 18.7661C9.13305 18.7633 9.13165 18.7612 9.13025 18.7591C9.12885 18.757 9.12745 18.7549 9.12605 18.7521C8.93557 18.472 8.55742 18.3964 8.27171 18.5785C8.01961 18.7409 7.79832 18.8138 7.58543 18.811C7.56812 18.8094 7.55257 18.8122 7.53731 18.815C7.5254 18.8172 7.51367 18.8194 7.5014 18.8194C7.4972 18.8194 7.4937 18.8187 7.4902 18.818C7.48669 18.8173 7.48319 18.8166 7.47899 18.8166C4.47059 18.8166 4.23529 15.9482 4.23529 15.0687C4.23529 14.7521 4.28011 13.8138 4.68347 12.9538C4.72269 13.5813 5.16247 14.0295 5.69188 14.2311L5.70563 14.236C5.73385 14.246 5.7944 14.2675 5.80112 14.2675C5.86275 14.2872 5.92437 14.2984 5.9888 14.2984C6.23249 14.2984 6.44538 14.1331 6.53782 13.8894C6.65266 13.5813 6.45378 13.2255 6.14006 13.1051C6.06443 13.0827 6 13.0323 5.95518 12.9678C6.35574 12.951 6.72269 12.8614 7.02801 12.6821C7.31092 12.5168 7.40896 12.1527 7.2437 11.8698L7.23529 11.853C7.05322 11.5673 6.67787 11.4776 6.38936 11.6513C6.21289 11.7549 5.97199 11.7942 5.66387 11.7689C5.37255 11.7437 5.14846 11.6653 4.9916 11.5449C4.29692 10.5869 4.2381 9.29836 4.2381 8.91461C4.2381 8.03786 4.47339 5.16671 7.56022 5.16671C7.77031 5.17511 7.95238 5.20592 8.11204 5.29836C8.40336 5.46923 8.77871 5.37679 8.95798 5.09108C9.12885 4.81097 9.03922 4.44402 8.7591 4.27035C8.7563 4.26895 8.7542 4.26755 8.7521 4.26615C8.75 4.26475 8.7479 4.26335 8.7451 4.26195C8.63866 4.20032 8.52941 4.1499 8.41457 4.10508C8.73669 3.60088 9.2605 3.34878 10.0056 3.34878C10.9552 3.34878 11.3249 4.31797 11.409 4.57847C11.4062 4.79976 11.4034 5.37679 11.409 5.51685V6.28436H10.2885C10.0728 5.94262 9.69468 5.73814 9.29132 5.73814C8.64146 5.73814 8.11485 6.25354 8.11485 6.8894C8.11485 7.52245 8.64146 8.03786 9.29132 8.03786C9.69468 8.03786 10.07 7.83338 10.2885 7.49164H11.409V8.70172H7.15686C6.94118 8.35999 6.56303 8.1555 6.15966 8.1555C5.5098 8.1555 4.98039 8.67091 4.98039 9.30677C4.98039 9.93982 5.507 10.4552 6.15966 10.4552C6.58263 10.4552 6.94958 10.2367 7.15686 9.90901H11.4034V10.9286H9.31092C8.97479 10.9258 8.69748 11.1947 8.69188 11.5309V13.3852C8.34734 13.5897 8.13445 13.9594 8.13165 14.36C8.13165 14.993 8.66106 15.5084 9.30812 15.5084C9.95518 15.5084 10.4846 14.993 10.4846 14.36C10.4846 13.9454 10.2605 13.5869 9.92437 13.3852V12.1331H11.4006V16.9566H6.88235V16.811C6.88235 16.8096 6.88165 16.8075 6.88095 16.8054C6.88025 16.8033 6.87955 16.8012 6.87955 16.7998C7.22969 16.5981 7.44818 16.2227 7.45098 15.8194C7.45098 15.1835 6.92157 14.6681 6.27451 14.6681C5.62745 14.6681 5.09804 15.1835 5.09804 15.8194C5.09804 16.2311 5.32213 16.5897 5.65546 16.7914C5.65546 16.7984 5.65406 16.804 5.65266 16.8096C5.65126 16.8152 5.64986 16.8208 5.64986 16.8278L5.66106 17.5701C5.66947 17.9034 5.94398 18.1667 6.27731 18.1639H11.409V18.458C11.409 18.6345 11.4034 19.2788 11.4006 19.5365C11.2829 19.8054 10.8627 20.6317 10.0028 20.6317ZM16.563 18.8082C16.3641 18.811 16.1289 18.7381 15.8824 18.5785C15.8291 18.5449 15.7787 18.5084 15.7311 18.472C15.4622 18.2647 15.0812 18.3068 14.8627 18.5673C14.6555 18.8222 14.6919 19.1947 14.9468 19.402C14.9496 19.4034 14.9517 19.4055 14.9538 19.4076C14.9559 19.4097 14.958 19.4118 14.9608 19.4132C15.0308 19.4692 15.112 19.5253 15.2017 19.5841C15.3557 19.6821 15.5098 19.7577 15.6611 19.8222C15.3445 20.36 14.8151 20.6289 14.0448 20.6289C13.0952 20.6289 12.7255 19.6597 12.6443 19.3992C12.6471 19.1779 12.6499 18.6009 12.6443 18.4608V17.3012H13.8796C14.0868 17.6289 14.4538 17.8474 14.8768 17.8474C15.5266 17.8474 16.0532 17.332 16.0532 16.6961C16.0532 16.0603 15.5238 15.5449 14.8768 15.5449C14.4538 15.5449 14.0868 15.7661 13.8796 16.0911H12.6415V9.92021H13.5154V11.8754C13.2213 12.0855 13.0252 12.4244 13.0252 12.8054C13.0252 13.4384 13.5546 13.9566 14.2017 13.9566C14.6218 13.9566 14.9888 13.7381 15.1961 13.4132L17.4426 13.4076V14.6569C17.1064 14.8586 16.8796 15.2199 16.8796 15.6317C16.8796 16.2647 17.4062 16.783 18.0588 16.783C18.7059 16.783 19.2353 16.2675 19.2353 15.6317C19.2353 15.2227 19.0112 14.8642 18.6779 14.6597V12.8026C18.6779 12.6429 18.6134 12.4888 18.4986 12.3768C18.381 12.2647 18.2241 12.2003 18.0616 12.2003L15.2045 12.2059C15.0924 12.0295 14.9356 11.8866 14.7507 11.7942V9.92021H16.9356C17.2773 9.92021 17.5518 9.6513 17.5518 9.31797V7.84178C17.888 7.6401 18.1148 7.28156 18.1148 6.86699C18.1148 6.23113 17.5854 5.71573 16.9384 5.71573C16.2913 5.71573 15.7619 6.23113 15.7619 6.86699C15.7619 7.27595 15.986 7.6373 16.3193 7.83898V8.71293H12.6387V5.52525C12.6387 5.34878 12.6443 4.70452 12.6471 4.44682C12.7591 4.18632 13.1793 3.35719 14.042 3.35719C14.8095 3.35719 15.3417 3.62609 15.6583 4.16391C14.9692 4.46083 14.5098 5.05747 14.2969 5.6457L14.2325 5.83338C14.1317 6.1527 14.3165 6.48884 14.6415 6.58688C14.9636 6.68772 15.3081 6.51125 15.4118 6.18912L15.4622 6.04066C15.5574 5.77735 15.8768 5.1471 16.563 5.16951H16.5658C19.5742 5.16951 19.8095 8.03786 19.8095 8.91741C19.8095 9.23954 19.7647 10.2115 19.3361 11.0827C18.8095 10.7381 18.2073 10.5281 17.5798 10.4664C17.2465 10.4272 16.9412 10.6625 16.8992 10.9986C16.8627 11.332 17.1064 11.6289 17.437 11.6653H17.4426C18.1036 11.7353 18.6303 11.9762 19.014 12.3768C19.7507 13.3376 19.8095 14.6765 19.8095 15.0659C19.8123 15.9398 19.577 18.7605 16.5686 18.8082H16.563Z" fill="#313235"/>
</svg>
