<svg width="24" height="24" viewBox="0 0 24 24" fill="none" xmlns="http://www.w3.org/2000/svg">
<path fill-rule="evenodd" clip-rule="evenodd" d="M12.4036 2.17112C13.9778 2.20753 21.8462 2.86019 21.8462 12.0283C21.8462 21.2019 14.0087 21.8126 12.4372 21.8406C12.2692 21.8434 12.0787 21.8462 11.8854 21.8462H11.8852C11.7788 21.8462 11.6752 21.8462 11.5717 21.8434C10.0002 21.821 2.15991 21.2383 2.15991 11.9722C2.15991 10.3476 2.61089 2.23834 11.5073 2.15991C11.8042 2.15991 12.1319 2.16551 12.4036 2.17112ZM12.4148 20.6389C14.3448 20.6025 20.6417 19.877 20.6417 12.0311C20.6417 4.18512 14.314 3.42322 12.3756 3.3784C12.1123 3.37 11.7986 3.36439 11.5213 3.37C9.60809 3.3868 3.3672 4.05907 3.3672 11.9778C3.3672 19.9106 9.66131 20.6165 11.5913 20.6445C11.8658 20.6473 12.1683 20.6445 12.4148 20.6389ZM10.2551 12.3084C10.2551 14.7061 9.42042 15.0283 8.60529 15.0283C7.78456 15.0283 6.94703 14.7061 6.94703 12.3084C6.94703 9.89661 7.78456 9.57168 8.60529 9.57168C9.3728 9.57168 10.2551 9.8826 10.2551 12.3084ZM8.60529 8.47924C9.86299 8.47924 11.3672 9.14311 11.3672 12.3084C11.3672 15.4652 9.86579 16.1291 8.60529 16.1291C7.34198 16.1291 5.83498 15.468 5.83498 12.3084C5.83498 9.14311 7.34198 8.47924 8.60529 8.47924ZM17.3476 9.00585C17.3476 8.78456 17.1683 8.60529 16.947 8.60529H16.6781C16.4568 8.60529 16.2776 8.78456 16.2776 9.00585V13.6809L13.0367 8.78456C12.961 8.67252 12.835 8.60529 12.7005 8.60529H12.4876C12.2664 8.60529 12.0871 8.78456 12.0871 9.00585V15.5913C12.0871 15.8126 12.2664 15.9918 12.4876 15.9918H12.7566C12.9778 15.9918 13.1571 15.8126 13.1571 15.5913V10.919L16.3896 15.8126C16.4652 15.9246 16.5913 15.9918 16.7257 15.9918H16.947C17.1683 15.9918 17.3476 15.8126 17.3476 15.5913V9.00585Z" fill="#313235"/>
</svg>
