<svg width="24" height="24" viewBox="0 0 24 24" fill="none" xmlns="http://www.w3.org/2000/svg">
<path fill-rule="evenodd" clip-rule="evenodd" d="M17.3179 7.2661H16.71V3.59944C16.71 2.71709 15.9902 2 15.1078 2C14.2255 2 13.5056 2.71989 13.5056 3.59944V7.26329L11.0042 7.26049V3.59944C11.0042 2.71709 10.2843 2 9.40194 2C8.51959 2 7.7997 2.71989 7.7997 3.59944V7.26049H7.34032C6.70166 7.26049 6.17786 7.7815 6.17786 8.46497C6.17786 11.2409 7.34592 12.7255 8.43555 13.5042V14.6442C8.43555 15.5098 8.7913 16.0028 9.08261 16.2577C9.43835 16.5854 9.92575 16.7591 10.5196 16.7899V20.7395C10.5196 21.2605 10.9454 21.6862 11.4692 21.6862H13.1974C13.7185 21.6862 14.1442 21.2633 14.1442 20.7395V16.7899C14.7437 16.7619 15.2367 16.5882 15.5924 16.2577C15.8809 15.9972 16.2255 15.5042 16.2255 14.6442V13.4986C17.3151 12.7143 18.4832 11.2353 18.4832 8.49578V8.42576C18.4776 7.7871 17.9565 7.2661 17.3179 7.2661ZM17.2563 8.49578C17.2563 10.4398 16.5952 11.8403 15.2871 12.6526C15.1078 12.7647 14.9986 12.9608 14.9986 13.1708V14.6414C14.9986 14.972 14.9201 15.2129 14.7633 15.3557C14.5644 15.5378 14.2255 15.577 13.9762 15.577H10.6961C10.3319 15.577 10.063 15.5014 9.89213 15.3445C9.73247 15.2045 9.65124 14.9692 9.65124 14.6414V13.1764C9.65124 12.9636 9.542 12.7675 9.35992 12.6554C8.06581 11.8543 7.40474 10.465 7.39074 8.47898L17.2479 8.48458V8.49578H17.2563ZM12.9174 20.465H11.7382V16.804H12.9174V20.465ZM9.02087 3.59934C9.02087 3.39486 9.19454 3.22119 9.40183 3.22119C9.60631 3.22119 9.77998 3.39486 9.77998 3.59934V7.2604H9.02087V3.59934ZM15.1079 3.22119C14.9006 3.22119 14.7269 3.39486 14.7269 3.59934V7.266H15.486V3.59934C15.486 3.39486 15.3124 3.22119 15.1079 3.22119Z" fill="#313235"/>
</svg>
