<svg width="24" height="24" viewBox="0 0 24 24" fill="none" xmlns="http://www.w3.org/2000/svg">
<path fill-rule="evenodd" clip-rule="evenodd" d="M12.0004 2.15991C18.4401 2.15991 21.8463 5.56327 21.8463 12.0059C21.8463 18.4428 18.4429 21.8462 12.0004 21.8462C5.5634 21.8462 2.16003 18.4428 2.16003 12.0059C2.16003 5.56327 5.5634 2.15991 12.0004 2.15991ZM12.0004 20.6389C17.7315 20.6389 20.639 17.7341 20.639 12.0059C20.639 6.27476 17.7343 3.3672 12.0004 3.3672C6.27208 3.3672 3.36732 6.27476 3.36732 12.0059C3.36732 17.7341 6.27208 20.6389 12.0004 20.6389ZM12.6502 4.80697C12.6502 4.47364 12.3785 4.20193 12.0452 4.20193C11.7119 4.20193 11.4429 4.47364 11.4401 4.80697V7.83218C11.4401 8.16832 11.7091 8.43722 12.0452 8.43722C12.3813 8.43722 12.6502 8.16551 12.6502 7.83218V4.80697ZM8.43454 11.961C8.43454 12.2944 8.16284 12.5661 7.8295 12.5661H4.80429C4.47096 12.5661 4.19925 12.2972 4.19925 11.961C4.19925 11.6249 4.46816 11.356 4.80429 11.356H7.8295C8.16564 11.3588 8.43454 11.6277 8.43454 11.961ZM9.45135 14.496C9.21606 14.2608 8.8323 14.2608 8.59701 14.496L6.45975 16.6333C6.22446 16.8686 6.22446 17.2523 6.45975 17.4876L6.46256 17.4904C6.69785 17.7229 7.0788 17.7229 7.3141 17.4876L9.45135 15.3504C9.68665 15.1151 9.68665 14.7313 9.45135 14.496ZM11.9612 15.5717C12.2945 15.5717 12.5634 15.8434 12.5634 16.1767V19.1991C12.5522 19.5325 12.2721 19.793 11.9387 19.779C11.6222 19.7678 11.3701 19.5129 11.3589 19.1991V16.1767C11.3589 15.8434 11.6278 15.5717 11.9612 15.5717ZM17.4878 16.6949L15.3505 14.5577C15.3449 14.5521 15.3393 14.5458 15.3337 14.5395L15.3255 14.5304C15.3227 14.5272 15.3198 14.5241 15.3169 14.5213C15.0704 14.2944 14.6894 14.3084 14.4626 14.5549C14.2357 14.8014 14.2497 15.1823 14.4962 15.4092L16.6362 17.5493C16.8659 17.7622 17.2217 17.7622 17.4542 17.5493C17.6978 17.3224 17.7147 16.9414 17.4878 16.6949ZM19.1992 11.4428C19.5326 11.454 19.7931 11.7341 19.7791 12.0675C19.7679 12.384 19.513 12.6361 19.1992 12.6473H16.174C15.8407 12.6361 15.5802 12.356 15.5942 12.0227C15.6054 11.7061 15.8603 11.454 16.174 11.4428H19.1992ZM14.3785 9.08428C14.3813 9.41762 14.6502 9.68652 14.9836 9.68652C15.1432 9.68652 15.2973 9.6221 15.4093 9.51005L17.5466 7.37C17.7819 7.1319 17.7819 6.75095 17.5466 6.51565C17.3113 6.28036 16.9275 6.28036 16.6922 6.51565L14.555 8.65571C14.4429 8.76776 14.3785 8.92462 14.3785 9.08428Z" fill="#313235"/>
</svg>
