<svg width="24" height="24" viewBox="0 0 24 24" fill="none" xmlns="http://www.w3.org/2000/svg">
<path d="M14.5813 8.78089C14.6765 8.98257 14.881 9.10862 15.1023 9.10582H15.1359L20.9454 8.76969C21.2283 8.75849 21.458 8.5372 21.4804 8.25428L21.8333 2.73609C21.8474 2.50639 21.7129 2.29071 21.5 2.19827C21.2843 2.10583 21.035 2.14785 20.8642 2.30751L18.2927 4.75569C16.5168 3.37754 14.3292 2.63244 12.0827 2.63524C6.60368 2.63524 2.1499 6.94056 2.1499 12.2347C2.1499 17.5288 6.60368 21.8341 12.0799 21.8341C16.2031 21.8341 19.9426 19.3243 21.3852 15.5876C21.5448 15.1646 21.3291 14.6941 20.9062 14.5344L20.881 14.526C20.444 14.3635 19.9566 14.5792 19.7801 15.0106C18.5869 18.103 15.4916 20.1814 12.0799 20.1814C7.54765 20.1842 3.86138 16.6184 3.86138 12.2347C3.86138 7.85092 7.54765 4.2851 12.0799 4.2851C13.8978 4.2851 15.6401 4.85933 17.0686 5.91535L14.6989 8.16465C14.5308 8.32151 14.4832 8.57081 14.5813 8.78089Z" fill="#313235"/>
</svg>
