<svg width="24" height="24" viewBox="0 0 24 24" fill="none" xmlns="http://www.w3.org/2000/svg">
<path fill-rule="evenodd" clip-rule="evenodd" d="M4.76334 19.4244C6.43561 21.035 8.86978 21.853 11.9986 21.853C15.1275 21.853 17.5616 21.0378 19.2367 19.4272C20.9734 17.7549 21.853 15.2563 21.853 12.0042C21.853 8.74933 20.9734 6.25354 19.2367 4.57847C17.5616 2.96783 15.1275 2.1499 11.9986 2.1499C8.86978 2.1499 6.43561 2.96783 4.76334 4.57567C3.02945 6.25074 2.1499 8.74933 2.1499 12.0014C2.1499 15.2563 3.02945 17.7521 4.76334 19.4244ZM3.23954 12.0042C3.23954 6.18911 6.18631 3.23954 11.9986 3.23954C17.8137 3.23954 20.7605 6.18911 20.7633 12.0042C20.7633 17.8165 17.8137 20.7633 11.9986 20.7633C6.18631 20.7633 3.23954 17.8165 3.23954 12.0042ZM10.7269 15.1583C10.8138 15.2115 10.9146 15.2367 11.0126 15.2367C11.1079 15.2367 11.2031 15.2143 11.2899 15.1639C11.4636 15.063 11.5729 14.8782 11.5729 14.6765V12.0827C11.6112 12.1262 11.6564 12.1642 11.7073 12.1947L16.6961 15.1639C16.7829 15.2171 16.8838 15.2423 16.9818 15.2423C17.0771 15.2423 17.1723 15.2171 17.2591 15.1695C17.4328 15.0687 17.542 14.8838 17.542 14.6821V8.71572C17.542 8.51404 17.4328 8.32636 17.2563 8.22832C17.0827 8.13029 16.867 8.13309 16.6933 8.23673L11.7045 11.2339C11.6546 11.2639 11.6104 11.3012 11.5729 11.3441V8.71012C11.5729 8.50844 11.4636 8.32076 11.2871 8.22272C11.1135 8.12468 10.8978 8.12748 10.7241 8.23113L5.73533 11.2283C5.56726 11.3292 5.46362 11.514 5.46362 11.7101C5.46362 11.9062 5.57007 12.0883 5.73813 12.1891L10.7269 15.1583ZM10.4524 13.6933L7.11628 11.7045L10.4524 9.70171V13.6933ZM13.0827 11.7101L16.4216 13.6961V9.70451L13.0827 11.7101Z" fill="#313235"/>
</svg>
