<svg width="24" height="24" viewBox="0 0 24 24" fill="none" xmlns="http://www.w3.org/2000/svg">
<path fill-rule="evenodd" clip-rule="evenodd" d="M14.8379 2.15991C16.4822 2.15991 18.0424 2.35599 19.2329 2.71453C20.964 3.23554 21.8435 4.07028 21.8435 5.19353V18.8014C21.8435 19.9274 20.964 20.765 19.2329 21.286C18.0312 21.6445 16.471 21.8406 14.8379 21.8406C13.2049 21.8406 11.6446 21.6445 10.4457 21.286C8.71466 20.7622 7.8351 19.9274 7.8351 18.8014V17.5101C7.34211 17.3476 6.88272 17.1095 6.47096 16.807L3.18805 20.0955C3.0704 20.2131 2.91634 20.272 2.76228 20.272C2.60821 20.272 2.45415 20.2131 2.3365 20.0955C2.10121 19.8602 2.10121 19.4792 2.3365 19.2439L5.58861 15.9918C4.86031 15.1263 4.42054 14.0143 4.42054 12.7986C4.42054 10.6025 5.85751 8.73694 7.83791 8.08428V5.19633C7.83791 5.01986 7.86312 4.84058 7.91073 4.66972V4.66691C8.15723 3.80417 9.01157 3.14591 10.4457 2.71453C11.6362 2.35879 13.1936 2.15991 14.8379 2.15991ZM14.8379 3.36159C13.3085 3.36159 11.8715 3.54086 10.7931 3.86579C9.87712 4.14311 9.29169 4.51005 9.10961 4.89941C9.26928 5.30837 9.86312 5.68652 10.8043 5.97224C11.8855 6.29717 13.3225 6.47644 14.8491 6.47644C16.3729 6.47644 17.8099 6.29717 18.8939 5.97224C19.8127 5.69493 20.4065 5.32518 20.5802 4.92742C20.3673 4.41481 19.5718 4.07308 18.8855 3.86579C17.8043 3.54086 16.3673 3.36159 14.8379 3.36159ZM9.03959 6.51565C9.42334 6.75375 9.89393 6.96103 10.457 7.1291C11.6502 7.48764 13.2105 7.68372 14.8491 7.68372C16.4878 7.68372 18.048 7.48764 19.2413 7.1291C19.8015 6.96103 20.2609 6.76215 20.639 6.53246V9.6361C20.4401 9.96103 19.8883 10.4092 18.8967 10.7089C17.8155 11.0339 16.3785 11.2131 14.8519 11.2131C14.7511 11.2187 14.3897 11.2131 14.0816 11.1991C13.4149 9.24395 11.5634 7.83218 9.38412 7.83218C9.26916 7.83218 9.15955 7.84021 9.04745 7.84841L9.04743 7.84841L9.03959 7.84899V6.51565ZM13.146 12.7958C13.146 10.7229 11.457 9.03666 9.38412 9.03666C7.31129 9.03666 5.62222 10.7257 5.62222 12.7958C5.62222 14.8686 7.31129 16.5549 9.38412 16.5549C11.4598 16.5549 13.146 14.8686 13.146 12.7958ZM14.8379 20.6361C16.3589 20.6361 17.7959 20.4568 18.8855 20.1319C19.6838 19.8938 20.639 19.4652 20.639 18.8014V15.9918C20.2413 16.2383 19.7735 16.4512 19.2413 16.6109C18.0536 16.9694 16.4934 17.1655 14.8519 17.1655C13.9219 17.1655 13.0312 17.1039 12.1993 16.9834C12.1739 16.9798 12.152 16.9703 12.1306 16.961C12.119 16.956 12.1075 16.951 12.0956 16.947C11.3141 17.4596 10.3841 17.7594 9.38412 17.7594C9.26914 17.7594 9.15951 17.7513 9.04738 17.7431L9.03959 17.7425V18.8014C9.03959 19.4652 9.99477 19.891 10.7931 20.1319C11.8827 20.4568 13.3197 20.6361 14.8379 20.6361ZM14.3505 12.7986C14.3505 12.6697 14.3421 12.5409 14.3309 12.412C14.5634 12.4176 14.7763 12.4176 14.8519 12.4176C16.4906 12.4176 18.0508 12.2187 19.2413 11.8602C19.7735 11.7005 20.2413 11.4876 20.639 11.2411V14.3896C20.4401 14.7145 19.8883 15.1627 18.8967 15.4624C17.8155 15.7874 16.3813 15.9666 14.8519 15.9666C14.3029 15.9666 13.7763 15.9358 13.2637 15.891C13.9415 15.0395 14.3505 13.9666 14.3505 12.7986Z" fill="#313235"/>
</svg>
