<svg width="24" height="24" viewBox="0 0 24 24" fill="none" xmlns="http://www.w3.org/2000/svg">
<path fill-rule="evenodd" clip-rule="evenodd" d="M21.6862 11.8459C21.6862 5.14005 18.0588 2 11.8403 2C5.62184 2 2 5.14005 2 11.8459C2 18.5518 5.62184 21.6862 11.8403 21.6862C18.0588 21.6862 21.6862 18.5518 21.6862 11.8459ZM11.8403 20.4565C17.6358 20.4565 20.4565 17.6386 20.4565 11.8459C20.4565 6.05041 17.6386 3.23249 11.8403 3.23249C6.04761 3.23249 3.22969 6.05041 3.22969 11.8459C3.22969 17.6386 6.04761 20.4565 11.8403 20.4565ZM17 13.6134C17.2269 13.3613 17.6162 13.3417 17.8683 13.5714C18.1176 13.7983 18.14 14.1848 17.9131 14.4369C17.8207 14.5378 15.6442 16.9103 11.9103 16.9523C11.9063 16.9523 11.8991 16.9526 11.8888 16.9529C11.8631 16.9537 11.8182 16.9552 11.7563 16.9552C11.0196 16.9552 7.86273 16.8123 5.7731 14.4734C5.54621 14.2185 5.56862 13.8319 5.82072 13.605C6.07562 13.3781 6.46218 13.4005 6.68907 13.6554C8.60747 15.7995 11.7348 15.7287 11.8723 15.7256L11.8767 15.7255C15.0202 15.6869 16.9172 13.7001 16.9975 13.616L17 13.6134ZM8.85713 10.3921C8.50139 10.3921 8.20447 10.2801 7.99719 10.07C7.79271 9.86273 7.69186 9.57701 7.69186 9.22407C7.69186 8.50139 8.14004 8.05321 8.85713 8.05321C9.57701 8.05321 10.0224 8.50139 10.0224 9.22407C10.0224 9.57982 9.91875 9.86273 9.71707 10.07C9.50979 10.2773 9.21287 10.3921 8.85713 10.3921ZM13.9692 10.07C14.1764 10.2801 14.4734 10.3921 14.8291 10.3921C15.1848 10.3921 15.4818 10.2773 15.6862 10.07C15.8879 9.86273 15.9916 9.57701 15.9916 9.22407C15.9916 8.50139 15.5462 8.05321 14.8263 8.05321C14.1092 8.05321 13.661 8.50139 13.661 9.22407C13.661 9.57701 13.7647 9.86273 13.9692 10.07Z" fill="#313235"/>
</svg>
