<svg width="24" height="24" viewBox="0 0 24 24" fill="none" xmlns="http://www.w3.org/2000/svg">
<path fill-rule="evenodd" clip-rule="evenodd" d="M17.8346 6.45803C17.8374 5.38801 18.7058 4.52246 19.7758 4.52246C20.8458 4.52246 21.7142 5.39081 21.717 6.45803C21.7142 7.52806 20.8486 8.3936 19.7786 8.3936C19.6302 8.3936 19.4929 8.374 19.3557 8.34318L16.9579 12.3572C17.224 12.6905 17.3893 13.1051 17.3893 13.5617V13.5645C17.3893 14.6345 16.5181 15.5028 15.4481 15.5028C14.3781 15.5028 13.5097 14.6317 13.5097 13.5617C13.5097 13.5302 13.5141 13.5006 13.5185 13.4712C13.5219 13.4482 13.5253 13.4254 13.5265 13.402L9.40049 11.5953C9.04474 11.9818 8.54054 12.2255 7.97752 12.2255C7.85975 12.2255 7.74733 12.2041 7.63242 12.1822L7.62458 12.1807L5.4145 16.0771C5.71982 16.4188 5.9103 16.8614 5.9103 17.3544C5.90749 18.4244 5.03915 19.2899 3.96912 19.2899C2.89629 19.2899 2.02795 18.4216 2.02515 17.3544C2.02795 16.2843 2.89629 15.4188 3.96632 15.4188C4.08677 15.4188 4.20722 15.4328 4.32486 15.4552L6.53214 11.5645C6.22402 11.2171 6.03635 10.769 6.03635 10.29C6.03915 9.21993 6.90749 8.35439 7.97752 8.35439C9.04755 8.35439 9.91589 9.22273 9.91589 10.29C9.91589 10.3273 9.91091 10.3622 9.90593 10.397C9.90344 10.4145 9.90095 10.4319 9.89908 10.4496L14.0251 12.2563C14.3809 11.8698 14.8851 11.6261 15.4481 11.6261C15.5994 11.6261 15.7478 11.6457 15.8963 11.6821L18.2856 7.68212C18.0083 7.34879 17.8346 6.92582 17.8346 6.45803ZM19.7758 7.1415C19.3977 7.1415 19.0895 6.83618 19.0895 6.45803C19.0895 6.07988 19.3949 5.77176 19.773 5.77176C20.1512 5.77176 20.4593 6.07708 20.4593 6.45523C20.4593 6.83618 20.154 7.1415 19.7758 7.1415ZM7.97472 10.9734C7.59657 10.9594 7.30245 10.6429 7.31365 10.2647C7.32486 9.90621 7.61337 9.61769 7.97472 9.60369C8.35287 9.58968 8.66939 9.8866 8.6834 10.2647C8.69741 10.6429 8.40049 10.9594 8.02234 10.9734C8.00833 10.9762 7.99152 10.9762 7.97472 10.9734Z" fill="#313235"/>
</svg>
