<svg width="24" height="24" viewBox="0 0 24 24" fill="none" xmlns="http://www.w3.org/2000/svg">
<path fill-rule="evenodd" clip-rule="evenodd" d="M9.52244 2.99304C9.30115 2.99024 9.12468 2.79976 9.12748 2.56447C9.13028 2.33478 9.30956 2.1499 9.52804 2.1499H9.89779C10.3068 2.1499 10.6541 2.43842 10.7661 2.86979C10.8026 3.01265 10.853 3.26755 10.909 3.56447H13.7773C13.9034 3.56447 14.021 3.62609 14.0967 3.73253C14.1723 3.83898 14.1975 3.97343 14.1611 4.10228C14.1611 4.10228 13.881 5.13589 13.7269 5.67651C13.5813 6.20592 13.2255 6.52525 12.7829 6.52525H11.4104C10.8278 6.52525 10.4888 5.97343 10.4188 5.46642L10.3974 5.33543C10.3465 5.0227 10.2664 4.53096 10.1863 4.07707C10.1848 4.07253 10.1841 4.06799 10.1833 4.06301L10.1833 4.06299L10.1833 4.06298C10.1827 4.05875 10.182 4.0542 10.1807 4.04906C10.1079 3.63169 10.035 3.25634 9.99303 3.09108C9.96782 2.99864 9.90899 2.99304 9.89499 2.99304C9.69611 2.99584 9.52244 2.99304 9.52244 2.99304ZM11.0575 4.4104H13.2451C13.1527 4.74374 13.0378 5.1611 12.9622 5.44121C12.9286 5.55326 12.8754 5.68491 12.7857 5.68491H11.4132C11.2899 5.68491 11.2199 5.3992 11.2115 5.33757C11.2059 5.30116 11.1387 4.8922 11.0575 4.4104ZM12.1331 14.1331C11.5392 14.1331 11.0715 13.9706 10.7521 13.6429C10.4188 13.3067 10.2507 12.8053 10.2507 12.1527C10.2507 11.5028 10.4188 10.9986 10.7521 10.6625C11.0715 10.3348 11.5392 10.1695 12.1331 10.1695C12.7269 10.1695 13.1919 10.3348 13.514 10.6625C13.8502 11.0014 14.0182 11.5028 14.0182 12.1527C14.0182 12.8053 13.8474 13.3067 13.514 13.6429C13.1919 13.9678 12.7269 14.1331 12.1331 14.1331ZM11.5869 11.5673C11.5 11.6541 11.4524 11.867 11.4524 12.1499C11.4524 12.4328 11.5 12.6429 11.5869 12.7325C11.6709 12.8166 11.8698 12.867 12.1331 12.867C12.3964 12.867 12.5953 12.8166 12.6821 12.7297C12.7689 12.6429 12.8166 12.4328 12.8166 12.1499C12.8166 11.867 12.7661 11.6569 12.6793 11.5701C12.5925 11.4804 12.3936 11.4328 12.1331 11.4328C11.8726 11.4328 11.6709 11.4804 11.5869 11.5673ZM11.4944 6.89499H11.4664V6.89219H11.4608C11.3852 6.89499 11.0967 6.923 11.0967 7.29835C11.0967 7.67651 11.3852 7.70452 11.4636 7.70732H11.4972C11.5701 7.70732 11.8642 7.67651 11.8642 7.30116C11.8642 6.92861 11.5701 6.89779 11.4944 6.89499ZM12.6989 6.89499H12.7269C12.8025 6.89779 13.0967 6.92861 13.0967 7.30116C13.0967 7.67651 12.8025 7.70732 12.7297 7.70732H12.6933C12.6149 7.70452 12.3264 7.67651 12.3264 7.29835C12.3264 6.923 12.6149 6.89499 12.6933 6.89219H12.6989V6.89499ZM20.6345 20.5224H18.6457V12.7829H20.6345V20.5224ZM9.74933 20.5532L14.4832 20.5364V16.3572H9.74933V20.5532ZM6.76054 20.5644V9.27034C6.78575 9.25914 6.81656 9.24793 6.85018 9.24793H17.3572C17.388 9.24793 17.4216 9.25914 17.4468 9.27034V19.8249V20.5252L15.6849 20.5308V15.7241C15.6849 15.374 15.4132 15.0911 15.0827 15.0911H9.14709C8.81376 15.0911 8.54485 15.374 8.54485 15.7241V20.5588L6.76054 20.5644ZM3.35158 20.5224H5.34037V12.7829H3.35158V20.5224ZM21.8361 12.1499C21.8361 11.7997 21.5672 11.5168 21.2339 11.5168V11.5196H18.6485V9.14709C18.6485 8.52804 18.0462 7.98463 17.3572 7.98463H6.85018C6.1639 7.98463 5.55886 8.52524 5.55886 9.14429V11.5168H2.75214C2.41881 11.5168 2.1499 11.7997 2.1499 12.1499V21.1555C2.1499 21.5028 2.42441 21.8361 2.75494 21.8361H21.2311C21.5616 21.8361 21.8361 21.5028 21.8361 21.1555V12.1499Z" fill="#313235"/>
</svg>
