<svg width="24" height="24" viewBox="0 0 24 24" fill="none" xmlns="http://www.w3.org/2000/svg">
<path fill-rule="evenodd" clip-rule="evenodd" d="M11.4196 21.8418H18.6044C20.7921 21.8418 21.8537 20.7661 21.8537 18.5504V5.44121C21.8537 3.25634 20.7613 2.1499 18.6044 2.1499H11.4196C10.3131 2.1499 9.50922 2.42161 8.96581 2.98183C8.43079 3.53085 8.17029 4.33477 8.17029 5.44121V10.1938L5.47632 12.8894C5.38388 12.881 5.28864 12.8754 5.19621 12.8754C3.81806 12.8754 2.61358 13.8082 2.26624 15.1415C2.13739 15.6457 2.13739 16.1779 2.27184 16.6821C2.39229 17.1303 2.85167 17.3964 3.29985 17.276C3.44271 17.2367 3.57156 17.1639 3.678 17.0575L4.33346 16.4076L4.64439 16.4524L4.6892 16.7634L4.03374 17.4188C3.70601 17.7465 3.70601 18.2788 4.03374 18.6065C4.13738 18.7101 4.26904 18.7858 4.41189 18.825C6.02534 19.2563 7.6836 18.2984 8.11777 16.6849C8.13834 16.6076 8.15585 16.5298 8.17029 16.4516V18.5504C8.17029 20.7661 9.23191 21.8418 11.4196 21.8418ZM8.17029 14.4755L7.30825 15.3376C7.62197 16.5028 6.9301 17.7017 5.76483 18.0155C5.39508 18.1163 5.00293 18.1163 4.63318 18.0155L5.58556 17.0631L5.39228 15.7101L4.03934 15.5169L3.08696 16.4692C2.77324 15.304 3.46512 14.1051 4.63038 13.7942C5.00013 13.6933 5.39228 13.6933 5.76203 13.7942L11.0141 8.53927C10.7004 7.37401 11.3923 6.17513 12.5575 5.86421C12.7452 5.81379 12.9357 5.78858 13.1262 5.78858C13.3166 5.78858 13.5071 5.81379 13.692 5.86141L12.7396 6.81379L12.9329 8.16673L14.2858 8.36L15.2382 7.40762C15.5519 8.57289 14.8601 9.77176 13.6948 10.0827C13.325 10.1835 12.9329 10.1835 12.5631 10.0827L8.19622 14.4496H8.17029V14.4755ZM9.29073 14.54L12.8461 10.9846C12.9385 10.9931 13.0337 10.9987 13.1262 10.9987C14.5043 10.9987 15.7088 10.0687 16.0533 8.73255C16.1822 8.22835 16.1822 7.69614 16.0477 7.19194C15.9273 6.74376 15.4679 6.47765 15.0197 6.5981C14.8769 6.63732 14.748 6.71014 14.6416 6.81659L13.9861 7.47205L13.6752 7.42723L13.6304 7.11631L14.2858 6.46084C14.6136 6.13311 14.6164 5.6009 14.2886 5.27317C14.185 5.16673 14.0533 5.0911 13.9077 5.05468C13.6528 4.98186 13.3895 4.94824 13.1262 4.94824C11.748 4.94824 10.5435 5.88101 10.1962 7.21435C10.1094 7.55328 10.0814 7.90342 10.1122 8.25076L9.29073 9.07268V5.44121C9.29073 4.6429 9.4448 4.09388 9.76692 3.76335C10.0891 3.43281 10.6297 3.27035 11.4196 3.27035H18.6044C20.1367 3.27035 20.7333 3.87819 20.7333 5.44121V18.5504C20.7333 19.3572 20.5764 19.9118 20.2543 20.2367C19.9322 20.5616 19.3944 20.7213 18.6044 20.7213H11.4196C10.6297 20.7213 10.0919 20.5644 9.76973 20.2367C9.4476 19.909 9.29073 19.3572 9.29073 18.5504V14.54ZM15.0218 17.458C15.5988 17.458 15.977 17.7633 15.977 18.416C15.977 18.7297 15.8902 18.9622 15.7361 19.1219C15.568 19.2927 15.3243 19.374 15.0218 19.374C14.7193 19.374 14.4756 19.2927 14.3075 19.1219C14.1535 18.965 14.0666 18.7297 14.0666 18.416C14.0694 17.7605 14.4448 17.458 15.0218 17.458Z" fill="#313235"/>
</svg>
