<svg width="24" height="24" viewBox="0 0 24 24" fill="none" xmlns="http://www.w3.org/2000/svg">
<path fill-rule="evenodd" clip-rule="evenodd" d="M19.8445 15.9554C20.2983 16.3756 20.528 16.9162 20.5476 17.6529C20.5476 17.6837 20.542 17.8014 20.5308 17.8714C20.5224 17.9498 20.4888 18.1403 20.4888 18.1403L19.8389 20.5969C19.8356 20.6136 19.8272 20.6284 19.8187 20.6435C19.8129 20.6537 19.807 20.664 19.8025 20.6753C19.8007 20.6816 19.7995 20.688 19.7983 20.6942L19.7983 20.6942C19.7957 20.7073 19.7933 20.72 19.7857 20.7313C19.783 20.735 19.7799 20.7384 19.7769 20.7417C19.7709 20.7484 19.7652 20.7546 19.7633 20.7622C19.7437 20.7902 19.7269 20.8126 19.7017 20.8378C19.612 20.9806 19.5168 21.1235 19.3936 21.2383C18.965 21.6333 18.3767 21.835 17.6401 21.835C16.9062 21.835 16.3123 21.6333 15.8866 21.2383C15.6064 20.9806 15.4216 20.6501 15.3151 20.2636C14.3207 20.8098 13.0854 21.0815 11.5756 21.0815C11.5658 21.0815 11.5581 21.0808 11.5504 21.0801C11.5427 21.0794 11.535 21.0787 11.5252 21.0787C11.5216 21.0787 11.5181 21.0788 11.5147 21.079C11.5104 21.0793 11.5063 21.0796 11.502 21.08C11.4936 21.0807 11.485 21.0815 11.4748 21.0815C9.96218 21.0815 8.72969 20.8098 7.73249 20.2636C7.62605 20.6501 7.44398 20.9806 7.16387 21.2383C6.73249 21.6333 6.14426 21.835 5.41036 21.835C4.67647 21.835 4.08543 21.6333 3.65686 21.2383C3.53081 21.1235 3.43838 20.9834 3.34594 20.8378C3.3394 20.8294 3.33256 20.8213 3.32571 20.8132C3.31202 20.797 3.29832 20.7808 3.28711 20.7622C3.28431 20.7566 3.27941 20.7516 3.27451 20.7467C3.26961 20.7418 3.26471 20.7369 3.2619 20.7313C3.25785 20.7219 3.25575 20.7124 3.25373 20.7033C3.25155 20.6935 3.24945 20.684 3.2451 20.6753C3.24028 20.6633 3.23443 20.6523 3.22866 20.6414C3.221 20.627 3.21347 20.6129 3.20868 20.5969L2.56162 18.1403C2.56162 18.1403 2.52521 17.9526 2.51681 17.8714C2.5056 17.8014 2.5 17.6865 2.5 17.6529C2.52241 16.9162 2.7493 16.3756 3.20308 15.9554C3.261 15.9025 3.32572 15.8587 3.38908 15.8158L3.41036 15.8014C2.4944 14.8406 2.02381 13.3 3.43277 11.7117C4.03782 11.0283 5.34594 10.2551 6.07143 10.1487C6.09845 10.1444 6.11754 10.1373 6.13747 10.1298C6.1568 10.1226 6.17693 10.115 6.20588 10.1095L6.19748 10.0871C5.92857 9.3896 5.78291 8.59128 5.78291 7.68652C5.78291 7.33358 5.81933 7.01145 5.86134 6.68932C5.85154 6.68372 5.84034 6.68232 5.82913 6.68092C5.81793 6.67952 5.80672 6.67812 5.79692 6.67252C5.64846 6.58008 5.56723 6.52126 5.51681 6.47924L5.37675 6.3672C4.56723 5.68372 4.02941 4.42602 5.17787 3.1319C6.31793 1.84619 7.67367 2.14591 8.5 2.79577C9.34034 2.3868 10.3403 2.15991 11.5224 2.15991C12.7045 2.15991 13.7045 2.3868 14.5448 2.79577C15.3711 2.14591 16.7269 1.84619 17.8641 3.1319C19.0098 4.42602 18.4748 5.68372 17.6653 6.3672L17.528 6.47924C17.4748 6.52126 17.3936 6.58008 17.2451 6.67252C17.2341 6.67883 17.2221 6.6807 17.2098 6.68262C17.2003 6.68412 17.1905 6.68565 17.1807 6.68932C17.2199 7.01145 17.2591 7.33358 17.2591 7.68652C17.2591 8.59409 17.1162 9.3896 16.8473 10.0871L16.8389 10.1095C16.8659 10.1149 16.885 10.1222 16.9036 10.1293C16.9236 10.137 16.9429 10.1443 16.9706 10.1487C17.6989 10.2551 19.007 11.0283 19.612 11.7117C21.0182 13.3 20.5476 14.8406 19.6317 15.8014C19.6504 15.8144 19.6694 15.827 19.6883 15.8396L19.6884 15.8396C19.7428 15.8759 19.7967 15.9118 19.8445 15.9554ZM8.2619 4.45963C9.0014 3.76776 10.0994 3.42042 11.528 3.42042C12.9566 3.42042 14.0546 3.77056 14.7941 4.45963C15.5588 5.17112 15.9454 6.25795 15.9454 7.68652C15.9454 9.11509 15.5588 10.1963 14.7941 10.905C14.1751 11.4792 13.2871 11.8014 12.1779 11.8938V8.76215C12.3319 8.69773 12.472 8.6165 12.5896 8.50725C12.7437 8.36439 12.8305 8.23274 12.9034 8.02266C12.9034 8.02266 12.9454 7.8686 12.9454 7.75655C12.9454 7.65851 12.8894 7.51846 12.8894 7.51846C12.8165 7.37 12.7409 7.26075 12.6204 7.15151C12.3515 6.90221 11.9818 6.77336 11.5252 6.76495C11.0714 6.77336 10.7017 6.90221 10.43 7.15151C10.3123 7.26355 10.2367 7.37 10.1639 7.51846C10.1639 7.51846 10.1078 7.65851 10.1078 7.75655C10.1078 7.8714 10.1527 8.02266 10.1527 8.02266C10.2255 8.22994 10.3123 8.36439 10.4664 8.50725C10.584 8.6165 10.7241 8.69773 10.8782 8.76215V11.8938C9.76611 11.8014 8.88095 11.4792 8.2619 10.905C7.4972 10.1963 7.10784 9.11509 7.10784 7.68652C7.10784 6.25795 7.4972 5.17112 8.2619 4.45963ZM6.18067 5.33078C6.43557 4.6417 6.81933 4.05347 7.32913 3.57448C6.93417 3.41762 6.54762 3.53806 6.18347 3.94983C5.7437 4.44843 5.7493 4.91341 6.18067 5.33078ZM8.18067 7.23834C8.06303 7.1291 8.007 6.97224 8.007 6.76495C8.007 6.55487 8.06303 6.39521 8.18067 6.28596C8.29272 6.18232 8.45518 6.1291 8.66247 6.1291C8.86975 6.1291 9.03221 6.18232 9.14426 6.28596C9.2591 6.39521 9.32073 6.55487 9.32073 6.76215C9.32073 6.96944 9.2591 7.1291 9.14426 7.23554C9.03221 7.33918 8.86695 7.39241 8.66247 7.39241C8.45518 7.39521 8.29552 7.34199 8.18067 7.23834ZM19.2367 17.7509C19.2843 17.3532 19.1303 17.0479 18.9314 16.8658C18.7325 16.6809 18.4132 16.5857 17.9818 16.5857C17.5504 16.5857 17.2311 16.6809 17.0294 16.8686C16.8221 17.0619 16.7157 17.3756 16.7157 17.8042C16.7157 17.8109 16.7138 17.8175 16.7118 17.8245C16.7096 17.8322 16.7073 17.8402 16.7073 17.849L16.5308 19.5241C16.5336 19.8938 16.6232 20.1655 16.8025 20.3308C16.9762 20.4904 17.2619 20.5745 17.6457 20.5745C18.0266 20.5745 18.3095 20.4932 18.486 20.3308C18.528 20.2888 18.5616 20.2383 18.5952 20.1879C18.5948 20.1875 18.6076 20.1454 18.6298 20.072C18.7539 19.6625 19.1726 18.2807 19.2367 17.7509ZM16.1162 15.9554C15.7941 16.2523 15.5896 16.6389 15.486 17.0983C15.4818 17.1118 15.4765 17.1241 15.4714 17.1362C15.4626 17.1566 15.4541 17.1762 15.4524 17.1991L15.4496 17.2271C15.4468 17.2453 15.4447 17.2649 15.4426 17.2845L15.4426 17.2846C15.4405 17.3042 15.4384 17.3238 15.4356 17.342L15.2899 18.7257C14.43 19.4512 13.2199 19.8182 11.5784 19.8182C11.5686 19.8182 11.5609 19.8175 11.5532 19.8168C11.5455 19.8161 11.5378 19.8154 11.528 19.8154C11.5196 19.8154 11.5112 19.8161 11.5028 19.8168L11.5027 19.8168C11.4944 19.8175 11.486 19.8182 11.4776 19.8182C9.83333 19.8182 8.62605 19.454 7.76331 18.7257L7.61765 17.342L7.61667 17.3291L7.61667 17.3291L7.61666 17.3291L7.61666 17.3291C7.61415 17.2959 7.61139 17.2593 7.60644 17.2271L7.60364 17.1991C7.60177 17.1749 7.59244 17.1531 7.5831 17.1313C7.57843 17.1204 7.57376 17.1095 7.57003 17.0983C7.46639 16.6389 7.2591 16.2523 6.93978 15.9554C6.7409 15.7734 6.5056 15.6361 6.2451 15.5325C6.21989 15.2776 6.19468 15.0199 6.19468 14.7425C6.19468 13.3952 6.5056 12.3168 7.07983 11.496C7.11307 11.5343 7.14413 11.574 7.17511 11.6136L7.17512 11.6137L7.17513 11.6137C7.23029 11.6842 7.28517 11.7544 7.35154 11.8154C8.34034 12.7341 9.7493 13.1991 11.528 13.1991C13.3095 13.1991 14.7157 12.7341 15.7073 11.8154C15.7702 11.7576 15.8217 11.6905 15.8732 11.6236L15.8732 11.6235C15.9065 11.5801 15.9398 11.5368 15.9762 11.496C16.5532 12.3168 16.8613 13.398 16.8613 14.7425C16.8613 15.0199 16.8361 15.2776 16.8109 15.5325C16.5504 15.6361 16.3151 15.7706 16.1162 15.9554ZM6.2563 20.3308C6.43557 20.1655 6.52241 19.8938 6.52801 19.5241L6.35154 17.849C6.35154 17.842 6.34874 17.8343 6.34594 17.8266C6.34314 17.8189 6.34034 17.8112 6.34034 17.8042C6.34034 17.3756 6.23389 17.0591 6.02941 16.8686C5.82493 16.6809 5.5056 16.5857 5.07423 16.5857C4.64286 16.5857 4.32353 16.6809 4.12465 16.8658C3.92577 17.0507 3.77451 17.3532 3.81933 17.7509C3.89496 18.3756 4.46359 20.1851 4.46359 20.1851C4.4944 20.2383 4.52801 20.2888 4.57283 20.328C4.7493 20.4876 5.02941 20.5717 5.41317 20.5717C5.79972 20.5745 6.08263 20.4904 6.2563 20.3308ZM4.57283 15.1235C4.05462 14.6865 3.34874 13.7678 4.44118 12.5325C4.68767 12.258 5.08543 11.975 5.45238 11.7622C5.08543 12.6165 4.87815 13.5997 4.87815 14.7397C4.87815 14.8692 4.88907 14.9898 4.9 15.1106L4.9 15.1107C4.90658 15.1833 4.91316 15.2561 4.91737 15.3308C4.89496 15.3308 4.86975 15.3336 4.84734 15.3364L4.81369 15.3135L4.81364 15.3134L4.81357 15.3134L4.81353 15.3133C4.78492 15.294 4.75517 15.2739 4.73529 15.258L4.57283 15.1235ZM16.8725 3.94703C16.5084 3.53526 16.1218 3.41762 15.7269 3.57168C16.2367 4.05067 16.6232 4.6389 16.8782 5.32798C17.3067 4.91341 17.3151 4.44843 16.8725 3.94703ZM17.6036 11.765C17.9734 11.9778 18.3711 12.258 18.6148 12.5325C19.7073 13.7678 19.0014 14.6837 18.4832 15.1263L18.3179 15.2608C18.2927 15.2804 18.2451 15.314 18.2059 15.3392C18.1835 15.3364 18.1583 15.3336 18.1359 15.3336C18.1402 15.2712 18.1457 15.21 18.1512 15.149L18.1512 15.1489C18.1632 15.0153 18.1751 14.8829 18.1751 14.7425C18.1751 13.6025 17.9706 12.6193 17.6036 11.765ZM13.9118 7.23554C14.0238 7.33918 14.1863 7.39241 14.3936 7.39241C14.6008 7.39241 14.7633 7.34199 14.8753 7.23554C14.993 7.1291 15.049 6.96944 15.049 6.76215C15.049 6.55207 14.993 6.39241 14.8753 6.28596C14.7633 6.17952 14.6008 6.1263 14.3936 6.1263C14.1891 6.1263 14.0238 6.17952 13.9118 6.28596C13.7941 6.39241 13.7353 6.55207 13.7353 6.75935C13.7353 6.96944 13.7941 7.1291 13.9118 7.23554Z" fill="#313235"/>
</svg>
