<svg width="24" height="24" viewBox="0 0 24 24" fill="none" xmlns="http://www.w3.org/2000/svg">
<path fill-rule="evenodd" clip-rule="evenodd" d="M21.8338 9.95266C21.8338 9.71737 21.7022 9.50168 21.4921 9.39804C21.282 9.2944 21.0299 9.31681 20.8422 9.45686C19.873 10.1964 18.0271 10.1067 17.1223 9.75938C16.2232 9.41485 14.7162 8.07311 14.5621 7.06751C14.5257 6.82381 14.3436 6.62493 14.1027 6.56331C13.8618 6.50449 13.6097 6.59132 13.4613 6.7902C13.4417 6.81261 13.1363 7.22157 12.7274 7.84902C11.9823 5.96387 11.1896 4.86583 11.1447 4.80421C11.0075 4.61653 10.7806 4.5213 10.5509 4.55771C10.324 4.59412 10.1335 4.75379 10.0607 4.97228C9.60413 6.35042 8.25399 7.07591 7.20358 7.44006C6.58733 7.65574 4.7666 7.7818 3.07473 6.81261C2.88425 6.70337 2.65176 6.70337 2.46129 6.81261C2.27081 6.92185 2.15316 7.12353 2.15036 7.34202C2.14756 7.49048 2.13075 11.0031 3.07473 13.5185C4.08593 16.2048 5.66296 17.5325 7.86744 17.5325C8.45848 17.5325 9.09433 17.4372 9.775 17.2496C10.2344 17.1207 10.663 16.9779 11.0579 16.8154C11.6181 17.6249 12.4669 18.258 13.6826 18.723C14.6377 19.0871 15.5089 19.3168 16.3128 19.3168C17.9234 19.3168 19.2568 18.3868 20.4136 15.7482C21.8002 12.5801 21.8338 10.0591 21.8338 9.95266ZM9.44167 16.0647C12.1223 15.3196 13.1812 14.3896 12.3688 10.849C11.9095 8.84902 11.1952 7.32521 10.6994 6.43166C10.0523 7.37843 9.00189 8.12073 7.60694 8.60532C6.81702 8.87983 5.11394 8.98627 3.40806 8.33361C3.46689 9.52129 3.65176 11.5521 4.22879 13.0871C5.28481 15.8966 6.84503 16.7874 9.44167 16.0647ZM9.22878 11.1431C8.61814 11.1431 8.34643 10.7874 8.2568 10.6361C8.11674 10.3952 8.0159 9.99748 8.32402 9.45406C8.90665 8.43165 9.69097 8.27759 10.1055 8.27759C10.5929 8.27759 10.9655 8.47367 11.1167 8.56611C11.5453 8.7986 11.663 9.14594 11.6938 9.33641C11.775 9.82941 11.4753 10.1739 11.3828 10.2692C11.3548 10.2972 11.324 10.3224 11.296 10.3448C11.2512 10.3784 10.8282 10.6894 10.3128 10.8938C10.0271 11.0087 9.60693 11.1431 9.22878 11.1431ZM9.22878 10.3252C8.97108 10.3252 8.84503 10.202 9.03831 9.86022C9.38284 9.25798 9.7834 9.10112 10.1083 9.10392C10.4529 9.10392 10.7078 9.28039 10.7078 9.28039C11.0467 9.44566 10.803 9.68936 10.803 9.68936C10.803 9.68936 10.4361 9.96386 10.0103 10.1347C9.73298 10.244 9.43887 10.3252 9.22878 10.3252ZM7.08873 11.8518C7.03551 11.8714 6.55652 12.0423 6.02431 12.1011C5.85064 12.1207 5.68257 12.1319 5.52851 12.1319C4.80582 12.1319 4.34644 11.8966 4.17277 11.4345C4.09714 11.2412 3.98509 10.7314 4.56212 10.216C5.04952 9.78179 5.56492 9.5605 6.09433 9.5605C6.67977 9.5605 7.16156 9.84902 7.41926 10.1151C7.67696 10.3532 7.80582 10.6697 7.7694 10.9919C7.72458 11.3952 7.44167 11.6781 7.18957 11.8098C7.15316 11.8266 7.12234 11.8406 7.08873 11.8518ZM5.93187 11.286C5.79461 11.3028 5.65456 11.3112 5.52571 11.3112C5.04672 11.3112 4.70498 11.1908 5.10834 10.8266C5.48929 10.4877 5.81982 10.3812 6.09153 10.3812C6.55932 10.3812 6.83943 10.7034 6.83943 10.7034C7.10554 10.9246 6.80582 11.0815 6.80582 11.0815C6.80582 11.0815 6.38005 11.2356 5.93187 11.286ZM11.9795 12.1711C11.9907 12.2048 12.212 12.9947 11.7526 13.8182C11.3688 14.5045 10.6461 15.0003 9.60133 15.2916C9.13074 15.4232 8.71058 15.4793 8.33803 15.4793C6.37445 15.4793 5.73859 13.9415 5.73299 13.9246C5.67977 13.7902 5.70218 13.6361 5.79181 13.5213C5.88145 13.4064 6.02431 13.342 6.16996 13.3672C9.54251 13.8098 11.2708 12.0255 11.2876 12.0059C11.3884 11.8994 11.5397 11.8574 11.6826 11.8882C11.8254 11.9218 11.9403 12.0311 11.9795 12.1711ZM11.0327 13.4204C11.0831 13.3308 11.1195 13.2412 11.1503 13.1543C10.3772 13.6585 9.0159 14.328 7.0243 14.2552C7.45288 14.5773 8.18957 14.8322 9.38004 14.5017C10.2064 14.272 10.761 13.9078 11.0327 13.4204ZM20.5033 10.9975C20.3688 11.9639 20.0467 13.5101 19.282 15.2552C17.9038 18.398 16.5761 18.5101 14.1223 17.5717C13.2176 17.2244 12.5817 16.7846 12.1588 16.2468C12.2932 16.1599 12.4165 16.0647 12.5369 15.9667C15.2316 15.8686 16.4221 17.4288 16.4697 17.4961C16.5453 17.6053 16.6713 17.6697 16.803 17.6697C16.8198 17.6697 16.8366 17.6697 16.8534 17.6669C17.0047 17.6501 17.1307 17.5521 17.1868 17.412C17.2008 17.3812 17.5005 16.6053 17.1307 15.7678C16.8506 15.1375 16.282 14.6501 15.4361 14.328C14.7638 14.0703 14.1896 14.0367 13.7022 14.1151C13.8058 13.7118 13.8646 13.2664 13.859 12.7538C14.2568 12.9527 14.6293 13.0703 14.6742 13.0843L14.7086 13.0923C14.7304 13.0975 14.7546 13.1032 14.7722 13.1067C14.7722 13.1067 14.8506 13.1207 14.9655 13.1207C15.3016 13.1207 15.6041 12.9807 15.7946 12.7314C15.9038 12.5913 16.0635 12.3 15.9711 11.877C15.8814 11.286 15.3436 10.272 13.8478 10.272C13.772 10.272 13.6936 10.2772 13.6126 10.2826L13.6041 10.2832C13.5852 10.2846 13.5678 10.2876 13.5508 10.2905C13.535 10.2932 13.5195 10.2958 13.5033 10.2972C13.4221 9.96947 13.338 9.65014 13.2456 9.34762C13.4473 9.01149 13.6433 8.70336 13.8142 8.44286C14.5089 9.56611 15.789 10.5689 16.6826 10.9106C17.5957 11.2608 19.1783 11.4345 20.5033 10.9975ZM13.2741 15.1328L13.2741 15.1328C13.2825 15.1176 13.2913 15.1016 13.3016 15.0871C13.6994 14.8714 14.296 14.7678 15.1447 15.0955C16.0439 15.4372 16.366 15.9302 16.4641 16.3448C15.8506 15.849 14.803 15.2552 13.2652 15.1487L13.2741 15.1328ZM13.7806 11.7538C13.873 11.8182 13.9683 11.8798 14.0691 11.9359C14.4697 12.1627 14.9094 12.2944 14.9094 12.2944C14.9094 12.2944 14.9319 12.2972 14.9655 12.2972C15.0579 12.2972 15.226 12.2664 15.1615 12.0227C15.1615 12.0227 15.0691 11.0899 13.8478 11.0899C13.7943 11.0899 13.7409 11.0925 13.6849 11.0951L13.677 11.0955C13.719 11.3252 13.7526 11.5465 13.7806 11.7538ZM18.7694 13.0843C18.7694 13.0843 18.5537 12.5829 17.887 12.5829C17.719 12.5829 17.5257 12.6137 17.2988 12.6922C16.7358 12.8882 17.2876 13.1347 17.845 13.2636C18.2344 13.3504 18.6293 13.356 18.6293 13.356C18.6293 13.356 18.9234 13.3252 18.7694 13.0843ZM17.887 11.765C17.6153 11.765 17.3268 11.8154 17.0299 11.919C16.2624 12.1823 16.2344 12.7566 16.2428 12.9302C16.2874 13.75 17.2756 13.9786 17.6549 14.0663L17.6601 14.0675C18.1223 14.1711 18.5705 14.1795 18.6209 14.1795H18.6293C18.6573 14.1795 18.6882 14.1795 18.7162 14.1767C19.0859 14.1347 19.3968 13.9274 19.5453 13.6165C19.6826 13.3252 19.6629 12.9947 19.4949 12.6978C19.3044 12.3224 18.7862 11.765 17.887 11.765Z" fill="#313235"/>
</svg>
