<svg width="24" height="24" viewBox="0 0 24 24" fill="none" xmlns="http://www.w3.org/2000/svg">
<path fill-rule="evenodd" clip-rule="evenodd" d="M11.9902 2.1499C18.2087 2.1499 21.8362 5.28996 21.8362 11.9958C21.8362 18.7017 18.2087 21.8362 11.9902 21.8362C5.77175 21.8362 2.1499 18.7017 2.1499 11.9958C2.1499 5.28996 5.77175 2.1499 11.9902 2.1499ZM11.9902 20.6065C17.7886 20.6065 20.6065 17.7886 20.6065 11.9958C20.6065 6.19752 17.7886 3.37959 11.9902 3.37959C6.19752 3.37959 3.37959 6.19752 3.37959 11.9958C3.37959 17.7886 6.19752 20.6065 11.9902 20.6065ZM15.458 14.8614L12.6093 12.0098L12.6121 8.16391C12.6121 7.82217 12.3376 7.54766 11.9958 7.54766C11.6541 7.54766 11.3796 7.82497 11.3796 8.16391V12.2647C11.3796 12.4272 11.444 12.5841 11.5589 12.6989L14.5897 15.7297L14.6205 15.7605C14.867 15.993 15.2563 15.979 15.4888 15.7297C15.7213 15.4832 15.7073 15.0939 15.458 14.8614Z" fill="#313235"/>
</svg>
