<svg width="24" height="24" viewBox="0 0 24 24" fill="none" xmlns="http://www.w3.org/2000/svg">
<path fill-rule="evenodd" clip-rule="evenodd" d="M2.34657 16.9742C2.23449 16.8443 2.17004 16.6669 2.17004 16.4831V7.48223V5.26764C2.17004 4.88429 2.43904 4.57064 2.77247 4.57064H13.1091L13.1092 4.57063C13.2262 4.56741 16.5008 4.47709 20.313 8.88258C21.4478 10.1942 21.9634 11.5502 21.8429 12.9094C21.672 14.8452 20.2598 16.1853 19.436 16.8126C19.0969 17.0693 18.7047 17.2055 18.304 17.2055H18.2872C17.2784 17.196 13.7479 17.177 2.77247 17.177C2.61276 17.177 2.46145 17.1041 2.34657 16.9742ZM3.37491 5.96148H12.955V11.3665C12.955 11.753 13.2239 12.0635 13.5574 12.0635H20.6156C20.6577 12.3011 20.6661 12.5387 20.6465 12.77C20.6268 12.9886 20.5764 13.1945 20.5092 13.3973H3.37491V11.9843H11.6548C11.9883 11.9843 12.2573 11.6706 12.2573 11.2873V7.48223C12.2573 7.09571 11.9883 6.78522 11.6548 6.78522H3.37491V5.96148ZM19.464 9.8679C19.6966 10.1372 19.8899 10.4033 20.0552 10.6695H14.1626V6.1294C15.2974 6.43672 17.2588 7.32382 19.464 9.8679ZM18.7747 15.6499C18.9989 15.482 19.3519 15.181 19.691 14.785H3.37491V15.7861C13.8824 15.7861 17.3065 15.8051 18.2956 15.8146H18.304C18.4721 15.8146 18.6318 15.7608 18.7747 15.6499ZM5.11775 8.17924V10.5934H3.37491V8.17924H5.11775ZM6.32261 10.5934H8.19435V8.17924H6.32261V10.5934ZM11.0524 10.5934H9.39921V8.17924H11.0524V10.5934ZM21.8597 18.7231C21.8597 18.3365 21.5907 18.0261 21.2573 18.0261H2.77247C2.43904 18.0261 2.17004 18.3365 2.17004 18.7231C2.17004 19.1096 2.43904 19.4201 2.77247 19.4201H21.2573C21.5907 19.4201 21.8597 19.1096 21.8597 18.7231Z" fill="#313235"/>
</svg>
