<svg width="24" height="24" viewBox="0 0 24 24" fill="none" xmlns="http://www.w3.org/2000/svg">
<path fill-rule="evenodd" clip-rule="evenodd" d="M18.1485 7.74521C18.5182 8.27462 20.7031 11.3026 20.9776 11.6696C21.2269 11.9945 21.6863 12.6136 21.6835 13.339V16.3082C21.6835 16.8432 21.4594 17.3811 21.0728 17.79C20.6807 18.2018 20.1569 18.4343 19.6499 18.4343H18.7815C18.5882 19.9749 17.5266 20.9021 15.9272 20.9021C14.3193 20.9021 13.2577 19.9749 13.0644 18.4343H9.13445C8.94118 19.9749 7.87955 20.9021 6.28011 20.9021C4.67227 20.9021 3.60784 19.9749 3.40896 18.4343C2.62745 18.4203 2 17.7592 2 16.9469V5.16817C2 4.34745 2.64146 3.67798 3.43137 3.67798L14.0532 3.68638C14.8403 3.68638 15.4846 4.34745 15.4846 5.16817V6.78442L16.3053 6.77602H16.3137C17.0224 6.77602 17.7395 7.15977 18.1485 7.74521ZM9.11765 17.1822H13.0812C13.2353 16.3362 13.6443 15.692 14.2801 15.297V5.16817C14.2801 5.04212 14.1737 4.94128 14.0532 4.94128L3.43137 4.93288C3.30532 4.93568 3.20448 5.04212 3.20728 5.16817V16.9497C3.21008 17.0757 3.30812 17.1766 3.43417 17.1822C3.69188 15.7368 4.72829 14.8741 6.28011 14.8741C7.82353 14.8741 8.85994 15.7368 9.11765 17.1822ZM20.4818 16.311C20.4818 16.5127 20.3838 16.7396 20.2241 16.9049C20.056 17.0813 19.8375 17.1794 19.6527 17.1794H18.7675C18.5098 15.734 17.4734 14.8713 15.93 14.8713C15.7759 14.8713 15.6331 14.8797 15.4874 14.8965V8.03652L16.3137 8.02812C16.6275 8.02812 16.9916 8.2214 17.1681 8.4707C17.563 9.03092 19.7507 12.0505 20.0308 12.4287C20.1989 12.6556 20.4818 13.0393 20.4818 13.3502V16.311ZM15.9272 19.65C14.8011 19.65 14.2297 19.0561 14.2297 17.8937C14.2297 16.72 14.8011 16.1262 15.9272 16.1262C17.0448 16.1262 17.6162 16.72 17.6162 17.8909C17.6162 19.0561 17.0448 19.65 15.9272 19.65ZM6.27731 19.65C5.15126 19.65 4.57983 19.0561 4.57983 17.8937C4.57983 16.7228 5.15126 16.129 6.27731 16.129C7.39496 16.129 7.96639 16.7228 7.96639 17.8937C7.96639 19.0561 7.39496 19.65 6.27731 19.65Z" fill="#313235"/>
</svg>
