<svg xmlns="http://www.w3.org/2000/svg" width="24" height="24" fill="none"><path fill="#0B2739" d="M4.982 19.093A9.86 9.86 0 0 0 12.001 22a9.86 9.86 0 0 0 7.018-2.907 9.86 9.86 0 0 0 2.907-7.018 9.915 9.915 0 0 0-6.039-9.135.528.528 0 1 0-.414.971 8.861 8.861 0 0 1 5.397 8.164c0 4.891-3.979 8.87-8.87 8.87-4.89 0-8.869-3.979-8.869-8.87a8.861 8.861 0 0 1 5.397-8.164.528.528 0 1 0-.414-.97 9.915 9.915 0 0 0-6.039 9.134 9.86 9.86 0 0 0 2.907 7.018Z"/><path fill="#0B2739" d="M7.825 16.14c1.519 0 2.818-1.021 2.818-2.599 0-1.554-1.241-2.389-2.633-2.389h-.95V9.459h2.995a.554.554 0 0 0 .558-.552.542.542 0 0 0-.557-.55H6.48a.626.626 0 0 0-.626.626v2.87c0 .195.159.354.355.354h1.408c1.136 0 1.763.488 1.763 1.358 0 .87-.673 1.45-1.59 1.45-.742 0-1.229-.372-1.623-.847a.569.569 0 0 0-.43-.21.585.585 0 0 0-.568.57c0 .115.047.231.105.324.533.754 1.403 1.288 2.552 1.288ZM18.108 9.504a.598.598 0 0 1 .162.482.58.58 0 0 1-.248.425l-.01.01a.594.594 0 0 1-.426.117.583.583 0 0 1-.39-.198 2.608 2.608 0 0 0-2.002-.876c-.75 0-1.39.265-1.92.795a2.623 2.623 0 0 0-.796 1.926c0 .753.265 1.395.796 1.926.53.527 1.17.79 1.92.79a2.63 2.63 0 0 0 1.769-.653c.503-.433.799-.914.887-1.445h-2.53a.595.595 0 0 1-.435-.182.586.586 0 0 1-.177-.43v-.011a.604.604 0 0 1 .613-.613h3.218c.169 0 .314.059.436.177a.623.623 0 0 1 .182.436v.005c0 1.091-.387 2.024-1.16 2.797-.777.774-1.712 1.161-2.803 1.161s-2.024-.387-2.797-1.16c-.774-.774-1.16-1.707-1.16-2.798s.386-2.024 1.16-2.797c.773-.774 1.706-1.16 2.797-1.16 1.159 0 2.13.425 2.914 1.276ZM12 2a.678.678 0 1 1 0 1.356A.678.678 0 0 1 12 2Z"/></svg>