<svg width="24" height="24" fill="none" xmlns="http://www.w3.org/2000/svg"><path d="M23 12.028C23 1.914 14.617 1.063 12.457 1.01a35.08 35.08 0 0 0-.82-.009h-.22C9.208 1.019 1 1.776 1 11.966c0 10.201 8.286 11 10.496 11.03.119.004.238.004.357.004.228 0 .454-.003.651-.006C14.601 22.953 23 22.167 23 12.028ZM12.476 21.62c-.32.007-.639.007-.958.004-2.749-.038-9.14-1.058-9.14-9.657 0-8.587 6.329-9.567 9.052-9.592h.207c.263 0 .526.003.789.01 2.764.065 9.196 1.14 9.196 9.644 0 8.505-6.395 9.541-9.146 9.591Zm5.004-10.34a.689.689 0 0 1 0 1.377h-4.799v4.808a.689.689 0 0 1-1.377 0v-4.81h-4.79a.689.689 0 0 1 0-1.378h4.79V6.534a.689.689 0 0 1 1.377 0v4.746h4.8Z" fill="#313235"/></svg>