<svg width="24" height="24" fill="none" xmlns="http://www.w3.org/2000/svg"><path fill-rule="evenodd" clip-rule="evenodd" d="M23 12.028C23 1.914 14.617 1.063 12.457 1.01c-.247-.006-.538-.009-.82-.009h-.22C9.208 1.019 1 1.776 1 11.966c0 10.201 8.286 11 10.496 11.03.119.004.238.004.357.004.228 0 .454-.003.651-.006C14.601 22.953 23 22.167 23 12.028ZM12.476 21.62c2.751-.05 9.146-1.086 9.146-9.59 0-8.506-6.432-9.58-9.196-9.645a33.14 33.14 0 0 0-.79-.01h-.206C8.707 2.4 2.377 3.38 2.377 11.966c0 8.599 6.392 9.62 9.14 9.657.32.003.64.003.959-.004ZM17.48 11.28a.689.689 0 0 1 0 1.377h-4.799v4.808a.689.689 0 0 1-1.377 0v-4.81h-4.79a.689.689 0 0 1 0-1.378h4.79V6.534a.689.689 0 0 1 1.377 0v4.746h4.8Z" fill="#313235"/></svg>