<svg width="24" height="24" viewBox="0 0 24 24" fill="none" xmlns="http://www.w3.org/2000/svg">
<path fill-rule="evenodd" clip-rule="evenodd" d="M19.9696 4.04796C21.2021 5.27765 21.8547 7.07597 21.8463 9.26365C21.8379 13.8743 15.9163 20.8435 15.0788 21.6698C14.964 21.7847 14.8071 21.8463 14.6474 21.8463C14.485 21.8491 14.3281 21.7847 14.2161 21.6698C13.7931 21.2608 12.8463 20.16 11.7455 18.6334C10.4738 20.2496 8.39253 20.4345 7.70905 20.4401C7.61101 20.4485 7.49617 20.4485 7.38973 20.4485H7.21886C6.15723 20.4317 2.16003 20.0536 2.16003 15.202C2.16003 10.3645 6.11522 10.0031 7.17404 9.99474H7.54099C7.50457 9.73703 7.48777 9.47653 7.49057 9.21603C7.49057 7.03956 8.15163 5.23844 9.39813 4.01715C10.6474 2.79586 12.4878 2.16841 14.6922 2.16C16.9051 2.16841 18.7315 2.81827 19.9696 4.04796ZM20.6222 9.25524C20.6138 12.7678 16.3085 18.4737 14.6446 20.3533C13.8435 19.4233 13.0928 18.4541 12.3925 17.4429C12.6194 16.8407 12.7595 16.1096 12.7595 15.2328C12.7595 11.5466 10.3785 10.4541 8.80429 10.132C8.74827 9.81266 8.70625 9.49894 8.71466 9.22443C8.71466 7.34208 9.23847 5.87989 10.2665 4.87709C11.2945 3.87149 12.8015 3.36449 14.6866 3.36449C16.5942 3.37569 18.0788 3.88829 19.0956 4.9023C20.1152 5.91351 20.6306 7.37569 20.6222 9.25524ZM11.5382 15.2356C11.5382 18.6586 9.11522 19.2132 7.68104 19.2356C7.61381 19.2419 7.53712 19.2435 7.46043 19.2451C7.43488 19.2456 7.40933 19.2461 7.38412 19.2468H7.23006C5.79589 19.2216 3.38132 18.6754 3.38132 15.2048C3.38132 11.751 5.76228 11.2188 7.19085 11.202H7.64743C9.10121 11.2412 11.5382 11.8127 11.5382 15.2356ZM13.2049 8.82387C13.2049 7.85468 13.6838 7.38129 14.6698 7.38129C15.653 7.38129 16.1348 7.85468 16.1348 8.82387C16.1348 9.79306 15.6558 10.2664 14.6698 10.2664C13.6838 10.2664 13.2049 9.79306 13.2049 8.82387ZM14.6698 11.4765C13.0116 11.4765 11.9808 10.4597 11.9808 8.82667C11.9808 7.19362 13.0116 6.17681 14.6698 6.17681C16.3281 6.17681 17.3589 7.19362 17.3589 8.82667C17.3561 10.4597 16.3281 11.4765 14.6698 11.4765ZM10.7119 15.2048C10.7091 14.8687 10.4373 14.5998 10.1012 14.6026V14.6054H8.0676V12.6278C8.0648 12.2917 7.79309 12.0227 7.45695 12.0255C7.12082 12.0227 6.84911 12.2917 6.84631 12.6278V14.6054H4.8183C4.48496 14.6026 4.21045 14.8715 4.20765 15.2076C4.21045 15.5438 4.48216 15.8127 4.8183 15.8099H6.84911V17.8183C6.85191 18.1544 7.12362 18.4233 7.45975 18.4205C7.79589 18.4233 8.0676 18.1544 8.0704 17.8183V15.8071H10.1012C10.4373 15.8099 10.7091 15.541 10.7119 15.2048Z" fill="#313235"/>
</svg>
