<svg xmlns="http://www.w3.org/2000/svg" width="24" height="24" fill="none"><path fill="#0B2739" d="M23 12.028C23 1.914 14.617 1.063 12.457 1.01c-.247-.006-.538-.009-.82-.009h-.22C9.208 1.019 1 1.776 1 11.966c0 10.201 8.286 11 10.496 11.03q.178.005.357.004c.228 0 .454-.003.651-.006C14.601 22.953 23 22.167 23 12.028M12.476 21.62q-.48.01-.958.004c-2.749-.038-9.14-1.058-9.14-9.657 0-8.587 6.329-9.567 9.052-9.592h.207q.394 0 .789.01c2.764.065 9.196 1.14 9.196 9.644 0 8.505-6.395 9.541-9.146 9.591M17.48 11.28a.689.689 0 0 1 0 1.377h-4.799v4.808a.689.689 0 0 1-1.377 0v-4.81h-4.79a.689.689 0 0 1 0-1.378h4.79V6.534a.689.689 0 0 1 1.377 0v4.746z"/></svg>