<svg width="24" height="24" viewBox="0 0 24 24" fill="none" xmlns="http://www.w3.org/2000/svg">
<path fill-rule="evenodd" clip-rule="evenodd" d="M13.2199 7.38249C14.909 8.43851 16.5224 9.72983 16.5224 11.9931C16.5224 14.2564 14.909 15.5478 13.2171 16.601C14.9062 17.657 16.5196 18.9483 16.5196 21.2116C16.5196 21.5562 16.2311 21.8335 15.8753 21.8335C15.5196 21.8335 15.2311 21.5534 15.2311 21.2116C15.2311 19.3741 13.7717 18.3909 12.0098 17.3349C10.2507 18.3909 8.78852 19.3713 8.78852 21.2116C8.78852 21.5562 8.5 21.8335 8.14426 21.8335C7.78852 21.8335 7.5 21.5534 7.5 21.2116C7.5 18.9483 9.11345 17.657 10.8025 16.601C10.0462 16.1304 9.30952 15.6066 8.72129 14.9735C8.66246 14.9287 8.61204 14.8755 8.57283 14.8139C7.93137 14.0632 7.5028 13.1584 7.5028 11.9931C7.5028 9.73263 9.11625 8.43851 10.8053 7.38249C9.11625 6.32646 7.5028 5.03515 7.5028 2.77184C7.5028 2.4273 7.79132 2.14999 8.14706 2.14999C8.5028 2.14999 8.79132 2.43011 8.79132 2.77184C8.79132 4.61218 10.2507 5.59257 12.0126 6.64859C13.7745 5.59537 15.2339 4.61218 15.2339 2.77184C15.2339 2.4273 15.5224 2.14999 15.8782 2.14999C16.2339 2.14999 16.5224 2.43011 16.5224 2.77184C16.5224 5.03515 14.909 6.32646 13.2199 7.38249ZM12.0098 8.11358C11.5756 8.37408 11.1667 8.63459 10.7857 8.89789H13.2367C12.8557 8.63179 12.444 8.37408 12.0098 8.11358ZM9.43557 13.8727C9.15266 13.5057 8.95378 13.0968 8.85854 12.629H15.1639C15.0686 13.0968 14.8669 13.5029 14.5868 13.8727H9.43557ZM13.1975 15.1164C12.8277 15.3713 12.43 15.6206 12.0098 15.8727C11.5924 15.6206 11.1919 15.3713 10.8249 15.1164H13.1975ZM14.6092 10.1416C14.8866 10.5085 15.0742 10.9203 15.1667 11.3853H8.85574C8.94818 10.9203 9.13585 10.5085 9.41317 10.1416H14.6092Z" fill="#313235"/>
</svg>
