<svg width="24" height="24" viewBox="0 0 24 24" fill="none" xmlns="http://www.w3.org/2000/svg">
<path fill-rule="evenodd" clip-rule="evenodd" d="M11.43 4.23123C11.43 4.56736 11.7017 4.83907 12.0351 4.83907C12.3712 4.83627 12.6401 4.56456 12.6401 4.23123V2.75784C12.6401 2.4217 12.3684 2.14999 12.0351 2.14999C11.7017 2.14999 11.43 2.4217 11.43 2.75784V4.23123ZM18.5449 17.4273C19.2844 17.4273 19.9286 17.9735 19.9286 18.5954V20.6654C19.9286 21.29 19.2816 21.8363 18.5449 21.8363H5.52525C4.77455 21.8363 4.1415 21.3013 4.1415 20.6654V18.5954C4.1415 17.9623 4.77455 17.4273 5.52525 17.4273H5.67651V11.7018C5.67651 7.58417 7.93422 5.31526 12.0323 5.31526C16.1331 5.31526 18.3908 7.58417 18.3908 11.7018V17.4273H18.5449ZM6.8866 17.4049V11.7018C6.8866 8.22282 8.57007 6.53095 12.0323 6.53095C15.5 6.53095 17.1835 8.22282 17.1835 11.7018V17.4049H6.8866ZM18.7185 18.6934V20.5674C18.6681 20.601 18.6065 20.6206 18.5449 20.6206H5.52525C5.46363 20.6206 5.4048 20.6066 5.35158 20.5758V18.6878C5.4048 18.657 5.46363 18.6402 5.52525 18.6402H18.5449C18.6065 18.6402 18.6653 18.6598 18.7185 18.6934ZM4.82497 9.56176C4.82497 9.89509 4.55606 10.1668 4.21993 10.1696H2.75494C2.41881 10.1668 2.1499 9.89509 2.1499 9.56176C2.1499 9.22562 2.42161 8.95392 2.75494 8.95392H4.22273C4.55606 8.95392 4.82777 9.22562 4.82497 9.56176ZM21.8362 9.58977C21.8362 9.25363 21.5645 8.98193 21.2311 8.98193H19.7633C19.43 8.98193 19.1583 9.25363 19.1583 9.58977C19.1583 9.9259 19.43 10.1976 19.7633 10.1976H21.2311C21.5673 10.1976 21.8362 9.9231 21.8362 9.58977ZM5.66531 5.95672L4.62889 4.9147C4.3908 4.6766 4.3908 4.29285 4.62889 4.05476C4.86419 3.81946 5.24514 3.81666 5.48043 4.05195L5.48324 4.05476L6.51965 5.09677C6.75494 5.33767 6.75494 5.72142 6.51405 5.95952C6.402 6.07156 6.25074 6.13319 6.09108 6.13599C5.93142 6.13319 5.77735 6.06876 5.66531 5.95672ZM16.5869 5.39929C16.5841 5.73543 16.853 6.00994 17.1891 6.01274C17.3488 6.01274 17.5028 5.94831 17.6177 5.83347L18.6541 4.79145C18.8894 4.55616 18.8894 4.1724 18.6541 3.93431L18.6513 3.93151C18.416 3.69621 18.0351 3.69901 17.7998 3.93431L16.7633 4.97632C16.6513 5.08837 16.5869 5.23963 16.5869 5.39929ZM14.3544 12.4889V11.7943H12.8754C12.5869 11.7943 12.3516 11.5562 12.3516 11.2676V9.78585H11.6597V11.2676C11.6597 11.559 11.4244 11.7943 11.1359 11.7943H9.65971V12.4889H11.1359C11.4244 12.4889 11.6597 12.7242 11.6597 13.0155V14.4973H12.3516V13.0155C12.3516 12.7242 12.5869 12.4889 12.8754 12.4889H14.3544ZM15.4048 11.5085C15.4048 11.094 15.0239 10.741 14.5757 10.741C14.5757 10.741 13.3992 10.741 13.402 10.7354V9.55896C13.402 9.10798 13.0491 8.72702 12.6345 8.72702H11.3796C10.965 8.72702 10.6121 9.11078 10.6121 9.56176V10.741H9.44122C8.99304 10.741 8.61209 11.0912 8.61209 11.5085V12.7718C8.61209 13.1892 8.99304 13.5422 9.44122 13.5422H10.6149V14.7186C10.6149 15.1696 10.9678 15.5506 11.3824 15.5506H12.6373C13.0547 15.5506 13.4048 15.1696 13.4048 14.7186V13.5393H14.5757C15.0239 13.5393 15.4048 13.1864 15.4048 12.7718V11.5085Z" fill="#313235"/>
</svg>
