<svg width="24" height="24" fill="none" xmlns="http://www.w3.org/2000/svg"><path d="M22.182 23H1.817a.81.81 0 0 1-.702-.372.82.82 0 0 1-.025-.794L11.2 1.456c.144-.287.401-.456.69-.456.288 0 .545.169.689.453l10.325 20.378s0 .003.003.003a.804.804 0 0 1-.022.794.817.817 0 0 1-.702.372ZM11.4 16.946a.614.614 0 0 0 1.228 0V8.339a.614.614 0 0 0-1.228 0v8.607Zm-.007 2.363c0 .394.23.619.62.619.393 0 .621-.225.621-.62 0-.393-.225-.618-.62-.618s-.62.225-.62.619ZM21.5 21.775l-9.604-18.96-9.404 18.96h19.008Z" fill="#313235"/></svg>