<svg width="24" height="24" viewBox="0 0 24 24" fill="none" xmlns="http://www.w3.org/2000/svg">
<path fill-rule="evenodd" clip-rule="evenodd" d="M21.7087 7.73109C21.7087 7.73109 21.9972 4.13445 18.0701 4.13445V4.13725H16.9244V2.61064C16.9244 2.27171 16.6499 2 16.3082 2C15.9664 2 15.6919 2.27451 15.6919 2.61064V4.13445L8.05888 4.14006V2.61064C8.05888 2.27171 7.78437 2 7.44263 2C7.10089 2 6.82638 2.27451 6.82638 2.61064V4.13725L5.63591 4.14006C5.63591 4.14006 5.56588 4.13445 5.43983 4.13445C4.68633 4.13445 2.03086 4.37255 2.03086 7.71148V18.084C2.03086 18.084 1.78436 21.6695 5.64991 21.6695H18.0729C18.0729 21.6695 18.1933 21.6863 18.3866 21.6863C19.269 21.6863 21.7115 21.3866 21.7115 18.0672L21.7087 7.73109ZM4.1121 5.70028C3.90201 5.83193 3.26056 6.23529 3.26056 7.71429V9.34174H20.479V7.73389C20.479 7.70308 20.479 7.66947 20.4818 7.63866C20.4818 7.63866 20.5351 6.61345 19.9216 5.96639C19.5351 5.56022 18.9132 5.35574 18.0673 5.35574H16.9188V5.53501C16.9188 5.87115 16.6443 6.14286 16.3026 6.14286C15.9636 6.14286 15.6891 5.87115 15.6863 5.53501V5.35574L8.05607 5.36134V5.53782C8.05607 5.87395 7.78156 6.14566 7.43983 6.14566C7.10089 6.14566 6.82638 5.87395 6.82358 5.53782V5.36134C6.08408 5.36134 5.6331 5.36415 5.6331 5.36415C5.59669 5.36415 5.56028 5.36134 5.52386 5.35854L5.51899 5.35828C5.50763 5.35758 5.47783 5.35574 5.43703 5.35574C5.20733 5.35294 4.6107 5.38655 4.1121 5.70028ZM20.4818 18.0672C20.4818 18.6611 20.4818 20.4678 18.3866 20.4678C18.3204 20.4678 18.2679 20.4647 18.2405 20.4631C18.2308 20.4626 18.2243 20.4622 18.2213 20.4622C18.1709 20.4538 18.1205 20.451 18.0701 20.451H5.64711C4.82918 20.451 4.21574 20.2493 3.83479 19.8515C3.21294 19.2045 3.25775 18.1681 3.25775 18.1681C3.26056 18.1401 3.26056 18.112 3.26056 18.084V10.5602H20.4818V18.0672ZM14.7648 13.7227C15.3614 13.7227 15.8656 14.1877 15.8656 14.7423V16.1457C15.8656 16.6975 15.3614 17.1653 14.7648 17.1653H13.6079L13.6107 18.3109C13.6107 18.902 13.1401 19.3978 12.5799 19.3978H11.1597C10.6023 19.3978 10.1317 18.902 10.1317 18.3109V17.1653H8.97484C8.3698 17.1653 7.8768 16.7087 7.8768 16.1457V14.7451C7.8768 14.1933 8.3782 13.7255 8.97484 13.7255H10.1345V12.577C10.1345 11.986 10.6051 11.4874 11.1653 11.4874H12.5799C13.1373 11.4874 13.6079 11.986 13.6079 12.577V13.7227H14.7648ZM14.6359 15.9468V14.9412H12.9916C12.6527 14.9412 12.3782 14.6695 12.3754 14.3305V12.7059H11.3642V14.3333C11.3642 14.6695 11.0897 14.944 10.748 14.944H9.10649V15.944H10.748C11.0869 15.944 11.3642 16.2185 11.3642 16.5546V18.1793H12.381L12.3754 16.5574C12.3782 16.2185 12.6527 15.9468 12.9916 15.9468H14.6359Z" fill="#313235"/>
</svg>
