<svg width="24" height="24" viewBox="0 0 24 24" fill="none" xmlns="http://www.w3.org/2000/svg">
<path fill-rule="evenodd" clip-rule="evenodd" d="M21.7086 7.73109C21.7086 7.73109 21.9971 4.13445 18.07 4.13445V4.13725H16.9243V2.61064C16.9243 2.27171 16.6498 2 16.3081 2C15.9663 2 15.6918 2.27451 15.6918 2.61064V4.13445L8.05875 4.14006V2.61064C8.05875 2.27171 7.78424 2 7.44251 2C7.10077 2 6.82626 2.27451 6.82626 2.61064V4.13725L5.63578 4.14006C5.63578 4.14006 5.56576 4.13445 5.43971 4.13445C4.6862 4.13445 2.03074 4.37255 2.03074 7.71148V18.084C2.03074 18.084 1.78424 21.6695 5.64979 21.6695H18.0728C18.0728 21.6695 18.1932 21.6863 18.3865 21.6863C19.2688 21.6863 21.7114 21.3866 21.7114 18.0672L21.7086 7.73109ZM4.11197 5.70028C3.90189 5.83193 3.26043 6.23529 3.26043 7.71429V9.34174H20.4789V7.73389C20.4789 7.70308 20.4789 7.66947 20.4817 7.63866C20.4817 7.63866 20.5349 6.61345 19.9215 5.96639C19.5349 5.56022 18.9131 5.35574 18.0672 5.35574H16.9187V5.53501C16.9187 5.87115 16.6442 6.14286 16.3025 6.14286C15.9635 6.14286 15.689 5.87115 15.6862 5.53501V5.35574L8.05595 5.36134V5.53782C8.05595 5.87395 7.78144 6.14566 7.4397 6.14566C7.10077 6.14566 6.82626 5.87395 6.82346 5.53782V5.36134C6.08396 5.36134 5.63298 5.36415 5.63298 5.36415C5.59657 5.36415 5.56015 5.36134 5.52374 5.35854L5.51887 5.35828C5.5075 5.35758 5.47771 5.35574 5.4369 5.35574C5.20721 5.35294 4.61057 5.38655 4.11197 5.70028ZM20.4817 18.0672C20.4817 18.6611 20.4817 20.4678 18.3865 20.4678C18.3203 20.4678 18.2678 20.4647 18.2404 20.4631C18.2307 20.4626 18.2241 20.4622 18.2212 20.4622C18.1708 20.4538 18.1204 20.451 18.07 20.451H5.64699C4.82906 20.451 4.21562 20.2493 3.83466 19.8515C3.21281 19.2045 3.25763 18.1681 3.25763 18.1681C3.26043 18.1401 3.26043 18.112 3.26043 18.084V10.5602H20.4817V18.0672ZM14.7646 13.7227C15.3613 13.7227 15.8655 14.1877 15.8655 14.7423V16.1457C15.8655 16.6975 15.3613 17.1653 14.7646 17.1653H13.6078L13.6106 18.3109C13.6106 18.902 13.14 19.3978 12.5798 19.3978H11.1596C10.6022 19.3978 10.1316 18.902 10.1316 18.3109V17.1653H8.97472C8.36968 17.1653 7.87668 16.7087 7.87668 16.1457V14.7451C7.87668 14.1933 8.37808 13.7255 8.97472 13.7255H10.1344V12.577C10.1344 11.986 10.605 11.4874 11.1652 11.4874H12.5798C13.1372 11.4874 13.6078 11.986 13.6078 12.577V13.7227H14.7646ZM14.6358 15.9468V14.9412H12.9915C12.6526 14.9412 12.3781 14.6695 12.3753 14.3305V12.7059H11.3641V14.3333C11.3641 14.6695 11.0896 14.944 10.7478 14.944H9.10637V15.944H10.7478C11.0868 15.944 11.3641 16.2185 11.3641 16.5546V18.1793H12.3809L12.3753 16.5574C12.3781 16.2185 12.6526 15.9468 12.9915 15.9468H14.6358Z" fill="#313235"/>
</svg>
