<svg width="24" height="24" viewBox="0 0 24 24" fill="none" xmlns="http://www.w3.org/2000/svg">
<path fill-rule="evenodd" clip-rule="evenodd" d="M11.4538 21.605C11.5938 21.661 11.7423 21.689 11.8935 21.689C12.2689 21.689 12.6554 21.5182 12.9608 21.1988L21.4369 12.4958C21.661 12.2801 21.7114 12.0532 21.7114 11.9019C21.7142 11.5406 21.4649 11.2941 21.3781 11.2101L12.7199 2.4986C12.2969 2.06443 11.8151 1.91037 11.3977 2.07843C11.154 2.17647 10.7451 2.46779 10.7395 3.32493V3.33053L10.7423 6.89075C10.6891 6.91876 10.6246 6.94117 10.5854 6.94397L3.87394 6.94117H3.86554C3.44817 6.94677 2.84873 7.0056 2.43977 7.42856C2.03361 7.85153 1.99719 8.45377 2.0056 8.87394V14.9131C1.98879 15.5294 2.13165 15.9832 2.44817 16.3053C2.7647 16.6274 3.21568 16.7815 3.83192 16.7731L10.7143 16.7927C10.7311 16.8095 10.7451 16.8319 10.7535 16.8487L10.7591 20.4986C10.7535 21.0056 11.0196 21.4285 11.4538 21.605ZM10.7899 15.7031L3.83192 15.6835C3.82912 15.6835 3.82632 15.6835 3.82352 15.6863C3.61624 15.6891 3.34733 15.6666 3.22688 15.5462C3.10924 15.4229 3.09243 15.1512 3.09803 14.944V8.85993C3.08963 8.5182 3.13445 8.28571 3.22688 8.19047C3.31932 8.09523 3.54621 8.04201 3.88234 8.03641L10.591 8.03921C11.028 8.03921 11.8375 7.69747 11.8375 7.04481L11.8319 3.33333C11.8319 3.26611 11.8375 3.21288 11.8431 3.17087C11.8711 3.19328 11.9047 3.22129 11.9412 3.2605L11.9468 3.26611L20.5154 11.8851L12.1792 20.4397L12.1736 20.4453C12.0168 20.6106 11.8851 20.6078 11.8655 20.5938C11.8627 20.5882 11.8515 20.563 11.8515 20.5098V20.5014L11.8459 16.8235C11.8459 16.3165 11.3753 15.7031 10.7899 15.7031Z" fill="#313235"/>
</svg>
