<svg xmlns="http://www.w3.org/2000/svg" width="24" height="24" fill="none"><path fill="#000" d="M16.52 13.588q.165.075.34.075a.78.78 0 0 0 .534-.21l4.21-4.148a.757.757 0 0 0 0-1.132l-4.21-4.179q-.017-.02-.04-.036a.79.79 0 0 0-.831-.101.75.75 0 0 0-.437.683l-.014 1.824-2.905.003c-.664 0-1.201.537-1.201 1.201v2.32c0 .663.537 1.201 1.201 1.201l2.902-.005.014 1.823a.76.76 0 0 0 .437.68m.67-2.883a.77.77 0 0 0-.768-.745q-.007 0-.011-.002l-3.24.005a.08.08 0 0 1-.082-.081v-2.32c0-.044.036-.08.081-.08l3.252-.003c.412 0 .754-.331.768-.746v-.01l.01-1.35 3.385 3.358L17.2 12.07l-.011-1.353zM7.136 20.21a.77.77 0 0 1-.535-.213l-4.207-4.174a.754.754 0 0 1 0-1.129l4.21-4.154.042-.036a.79.79 0 0 1 .832-.098c.27.129.434.39.437.68l.014 1.821 2.902-.005c.664 0 1.202.537 1.202 1.201v2.32c0 .663-.538 1.201-1.202 1.201l-2.907.006-.014 1.823a.75.75 0 0 1-.437.684.8.8 0 0 1-.337.073m-.341-1.597.01-1.347v-.011a.77.77 0 0 1 .78-.746l3.238-.002a.08.08 0 0 0 .081-.082v-2.319a.08.08 0 0 0-.081-.081l-3.238.005a.77.77 0 0 1-.78-.745v-.01l-.01-1.351-3.378 3.336z"/></svg>