<svg width="24" height="24" viewBox="0 0 24 24" fill="none" xmlns="http://www.w3.org/2000/svg">
<path fill-rule="evenodd" clip-rule="evenodd" d="M9.77591 11.9104H7.45939C6.79553 11.9104 6.25771 11.3726 6.25771 10.7087L6.25491 7.80676L4.43139 7.79275C4.13727 7.79275 3.87677 7.62469 3.74792 7.35578C3.61906 7.08407 3.65828 6.75634 3.84876 6.52385C3.85996 6.50984 3.87117 6.49584 3.88517 6.48463L8.05883 2.27736C8.18208 2.1373 8.35015 2.05047 8.53502 2.02806C8.7339 2.00565 8.93278 2.05887 9.08964 2.18492C9.12606 2.21293 9.15687 2.24375 9.18768 2.27736L13.3417 6.48463C13.3557 6.49864 13.3669 6.51264 13.3781 6.52665C13.5658 6.75914 13.605 7.08687 13.4762 7.35858C13.3473 7.62749 13.0868 7.79275 12.7955 7.79556L10.9748 7.80956L10.9776 10.7087C10.9776 11.3698 10.4398 11.9104 9.77591 11.9104ZM14.6863 21.5798C14.8263 21.6891 14.9916 21.7423 15.1541 21.7423C15.3641 21.7423 15.5714 21.6555 15.7199 21.4874L19.8963 17.2773C19.9103 17.2661 19.9216 17.2521 19.9328 17.2381C20.1232 17.0056 20.1624 16.6779 20.0336 16.4062C19.9047 16.1373 19.6442 15.9692 19.3501 15.9692L17.5238 15.9552L17.521 13.0504C17.521 12.3866 16.9832 11.8488 16.3193 11.8488H14C13.3361 11.8488 12.7983 12.3866 12.7983 13.0504L12.8011 15.9468L10.9776 15.9636C10.6863 15.9664 10.4258 16.1317 10.2969 16.4006C10.1681 16.6723 10.2073 17 10.395 17.2325L10.395 17.2325C10.4062 17.2465 10.4174 17.2605 10.4314 17.2745L14.5882 21.4874C14.619 21.521 14.6499 21.5518 14.6863 21.5798ZM15.1541 20.465L11.8151 17.0812L13.1681 17.07H13.1793C13.5994 17.0588 13.93 16.7087 13.9244 16.2913L13.9188 13.0504C13.9188 13.0056 13.9552 12.9692 14 12.9692H16.3193C16.3641 12.9692 16.4005 13.0056 16.4005 13.0504L16.4034 16.2913C16.3977 16.7115 16.7311 17.0588 17.1512 17.07H17.1625L18.5126 17.0812L15.1541 20.465ZM7.37816 10.7059L7.37536 7.46782C7.38096 7.05046 7.05043 6.70032 6.63026 6.68911H6.61906L5.27172 6.67791L8.62466 3.29697L11.9608 6.67791L10.6106 6.68911H10.5994C10.1793 6.70032 9.84874 7.05046 9.85435 7.46782L9.85715 10.7059C9.85715 10.7507 9.82073 10.7871 9.77591 10.7871H7.45939C7.41457 10.7871 7.37816 10.7507 7.37816 10.7059Z" fill="#313235"/>
</svg>
