<svg width="24" height="24" viewBox="0 0 24 24" fill="none" xmlns="http://www.w3.org/2000/svg">
<path fill-rule="evenodd" clip-rule="evenodd" d="M16.3803 13.4728C16.4895 13.5232 16.6044 13.5484 16.7192 13.5484C16.8957 13.5484 17.0722 13.4896 17.2122 13.3748L17.2122 13.3748C17.2262 13.3635 17.2402 13.3523 17.2542 13.3383L21.4643 9.18989C21.4979 9.15908 21.5288 9.12827 21.5568 9.09185C21.8061 8.77533 21.7612 8.32155 21.4643 8.05824L17.2542 3.87898C17.243 3.86498 17.229 3.85378 17.215 3.84258L17.215 3.84257L17.215 3.84256C16.9825 3.65209 16.6548 3.61287 16.3831 3.74172C16.1142 3.87057 15.9461 4.13108 15.9461 4.42519L15.9321 6.24872L13.0274 6.25152C12.3635 6.25152 11.8257 6.78934 11.8257 7.4532V9.77252C11.8257 10.4364 12.3635 10.9742 13.0274 10.9742L15.9293 10.9686L15.9433 12.7921C15.9461 13.0834 16.1114 13.3439 16.3803 13.4728ZM17.0498 10.5904C17.0358 10.1759 16.694 9.84535 16.2823 9.84535C16.2767 9.84535 16.2739 9.84535 16.2711 9.84255L13.0302 9.84815C12.9853 9.84815 12.9489 9.81174 12.9489 9.76692V7.4476C12.9489 7.40278 12.9853 7.36636 13.0302 7.36636L16.2711 7.36356H16.2823C16.694 7.36356 17.0358 7.03303 17.0498 6.61847V6.60726L17.061 5.25712L20.4447 8.61566L17.061 11.9546L17.0498 10.6017V10.5904ZM6.99656 20.0946C6.81729 20.0946 6.64362 20.0358 6.50076 19.9182C6.48676 19.907 6.47275 19.8958 6.46155 19.8818L2.25427 15.7081C1.95735 15.4448 1.91254 14.991 2.16184 14.6773C2.18985 14.6409 2.22066 14.6072 2.25427 14.5792L6.46435 10.4252C6.47836 10.4112 6.49236 10.4 6.50637 10.3888C6.73886 10.2011 7.06659 10.1619 7.3383 10.2907C7.60721 10.4196 7.77247 10.6801 7.77527 10.9714L7.78928 12.7921L10.6912 12.7865C11.3551 12.7865 11.8929 13.3243 11.8929 13.9882V16.3075C11.8929 16.9714 11.3551 17.5092 10.6912 17.5092L7.78368 17.5148L7.76967 19.3383C7.76967 19.6325 7.6016 19.893 7.3327 20.0218C7.22625 20.0694 7.11141 20.0946 6.99656 20.0946ZM6.65483 18.498L3.27668 15.1451L6.65483 11.8089L6.66603 13.1591V13.1703C6.67724 13.5904 7.02737 13.921 7.44474 13.9154L10.6828 13.9098C10.7276 13.9098 10.7641 13.9462 10.7641 13.991V16.3103C10.7641 16.3551 10.7276 16.3916 10.6828 16.3916L7.44474 16.3944C7.02737 16.3888 6.68004 16.7193 6.66603 17.1395V17.1507L6.65483 18.498Z" fill="#313235"/>
</svg>
