<svg width="24" height="24" viewBox="0 0 24 24" fill="none" xmlns="http://www.w3.org/2000/svg">
<path fill-rule="evenodd" clip-rule="evenodd" d="M13.9271 20.6386C14 20.6526 14.07 20.661 14.1428 20.661C14.4341 20.661 14.7254 20.5322 15.0028 20.2773L15.0196 20.2605L20.0448 15.2129C20.4117 14.8487 20.5994 14.465 20.605 14.07C20.6106 13.6638 20.4285 13.2745 20.0616 12.9075L20.056 12.9019L15.1512 8.11204L17.535 5.73669C17.5378 5.73109 17.5434 5.72549 17.549 5.71988C17.8767 5.36134 17.9691 4.77031 17.7647 4.31372C17.591 3.92437 17.2352 3.69748 16.8095 3.70028L4.66385 3.69468C4.38373 3.67227 4.13163 3.7619 3.94676 3.94678C3.76189 4.13165 3.67225 4.38375 3.69186 4.66386V16.7507C3.68906 17.2269 3.93556 17.6162 4.35012 17.7955C4.7955 17.986 5.35852 17.8935 5.68905 17.577L5.69746 17.5686L8.27728 14.9888L13.0896 20.1036L13.1036 20.1176C13.3221 20.3361 13.591 20.5658 13.9271 20.6386ZM14.14 19.5826C14.112 19.5714 14.0364 19.5294 13.8655 19.3613L8.98877 14.1708L8.97756 14.1596C8.79549 13.9776 8.55739 13.8739 8.30249 13.8655C8.04199 13.8571 7.78429 13.958 7.60221 14.14L4.94956 16.7927C4.91034 16.8179 4.8095 16.8207 4.77309 16.8011C4.77029 16.7927 4.76749 16.7759 4.76749 16.7507V4.7647L16.7899 4.77031C16.8039 4.83473 16.7899 4.94117 16.7591 4.98319L14.3109 7.43136C13.9355 7.80671 13.9439 8.42296 14.3277 8.80671L14.3333 8.81231L19.3053 13.6694C19.4117 13.7731 19.535 13.9243 19.5322 14.0504C19.5294 14.1512 19.4425 14.2941 19.2857 14.451L14.2689 19.4902C14.1988 19.5518 14.1568 19.5742 14.14 19.5826Z" fill="#313235"/>
</svg>
