<svg xmlns="http://www.w3.org/2000/svg" width="24" height="24" fill="none"><path fill="#313235" d="M8.963 19.895c.373.373.77.557 1.166.557.39 0 .779-.179 1.137-.54l.006-.006 4.79-4.904 2.375 2.38a.075.075 0 0 1 .017.014c.358.328.95.42 1.406.216.39-.174.616-.53.613-.955L20.48 4.51a.89.89 0 0 0-.252-.717.902.902 0 0 0-.717-.255H7.423c-.476-.002-.866.244-1.045.659-.19.445-.098 1.008.219 1.338l2.588 2.589-5.115 4.812-.014.014c-.219.218-.448.487-.521.824-.079.37.042.73.361 1.078l.017.017 5.05 5.025Zm.76-.762-5.04-5.017a.55.55 0 0 1-.092-.126c.011-.028.053-.103.221-.274l5.185-4.88.011-.011a.995.995 0 0 0 .294-.675.95.95 0 0 0-.274-.7L7.375 4.797a.241.241 0 0 1-.008-.176.175.175 0 0 1 .05-.006h11.989L19.4 16.637c-.064.014-.17 0-.212-.03l-2.449-2.449a.973.973 0 0 0-1.375.017l-.006.006-4.854 4.972c-.104.103-.252.227-.378.227h-.003c-.1-.003-.244-.09-.4-.247Z"/></svg>