<svg width="24" height="24" viewBox="0 0 24 24" fill="none" xmlns="http://www.w3.org/2000/svg">
<path d="M19.3147 11.3747H6.27661L12.1616 5.1474C12.4143 4.86496 12.3939 4.43219 12.1116 4.17709C11.8384 3.93109 11.4217 3.94248 11.1645 4.20442L4.18668 11.5888C4.15709 11.6207 4.14115 11.6617 4.11611 11.6982C4.09334 11.7323 4.06602 11.7642 4.05009 11.8029C4.01821 11.8849 4 11.9715 4 12.0603V12.0649C4.00228 12.1514 4.02049 12.2357 4.05236 12.3177C4.0683 12.3587 4.09562 12.3906 4.12066 12.4248C4.14343 12.4589 4.15709 12.4999 4.18668 12.5318L11.0393 19.7841C11.2988 20.0597 11.7314 20.0734 12.0068 19.8138C12.0068 19.8138 12.0091 19.8138 12.0091 19.8115C12.2846 19.5518 12.296 19.1168 12.0364 18.8412L6.27661 12.7459H19.3147C19.6927 12.7459 20 12.4384 20 12.0581C20 11.68 19.6927 11.3725 19.3147 11.3747Z" fill="#313235"/>
</svg>
