<svg width="24" height="24" viewBox="0 0 24 24" fill="none" xmlns="http://www.w3.org/2000/svg">
<path fill-rule="evenodd" clip-rule="evenodd" d="M11.8094 21.7338H11.815C12.1708 21.7338 12.4135 21.4911 12.5048 21.3998L12.5069 21.3977L21.2183 12.7395C21.6525 12.3165 21.8066 11.8347 21.6385 11.4173C21.5405 11.1736 21.2492 10.7647 20.392 10.7591H20.3864L16.8234 10.7647C16.7954 10.7115 16.773 10.647 16.7702 10.6078L16.773 3.89635V3.88795C16.7646 3.47058 16.7086 2.87114 16.2856 2.46218C15.8654 2.05602 15.2604 2.0168 14.8402 2.0252H8.7982C8.18196 2.0084 7.72818 2.15125 7.40605 2.46778C7.08392 2.78431 6.92986 3.23809 6.93826 3.85433L6.91866 10.7367C6.90185 10.7535 6.87944 10.7675 6.86263 10.7759L3.21278 10.7787H3.19598C2.69738 10.7787 2.28281 11.042 2.10634 11.4734C1.90466 11.9636 2.06432 12.5546 2.5125 12.9804L11.2156 21.4593C11.4313 21.6834 11.6581 21.7338 11.8094 21.7338ZM3.11474 11.8851C3.12034 11.8823 3.14275 11.8711 3.19317 11.8711C3.19598 11.8711 3.19878 11.8711 3.19878 11.8683H3.20718L6.88504 11.8655C7.39204 11.8655 8.00549 11.3949 8.00549 10.8095L8.0251 3.85433V3.84593C8.0223 3.63865 8.0447 3.36974 8.16515 3.24929C8.2884 3.13165 8.56011 3.11484 8.76739 3.12044H14.8514C15.1959 3.11204 15.4284 3.15686 15.5237 3.24929C15.6189 3.34173 15.6721 3.56862 15.6777 3.90475L15.6749 10.6134C15.6749 11.0504 16.0167 11.8599 16.6693 11.8599L20.3808 11.8543C20.4452 11.8543 20.4985 11.8599 20.5405 11.8655C20.5181 11.8935 20.4901 11.9271 20.4508 11.9636L20.4452 11.9692L11.8262 20.535L3.2688 12.1989L3.2632 12.1933C3.09794 12.0364 3.10074 11.9047 3.11474 11.8851Z" fill="#313235"/>
</svg>
