<svg width="24" height="24" viewBox="0 0 24 24" fill="none" xmlns="http://www.w3.org/2000/svg">
<path fill-rule="evenodd" clip-rule="evenodd" d="M11.4539 21.6049C11.5939 21.661 11.7424 21.689 11.8937 21.689C12.269 21.689 12.6556 21.5181 12.9609 21.1988L21.4371 12.4957C21.6611 12.28 21.7116 12.0531 21.7116 11.9019C21.7144 11.5405 21.4651 11.294 21.3782 11.21L12.72 2.49854C12.297 2.06437 11.8152 1.9103 11.3979 2.07837C11.1542 2.17641 10.7452 2.46773 10.7396 3.32487V3.33047L10.7424 6.89069C10.6892 6.9187 10.6248 6.94111 10.5855 6.94391L3.87406 6.94111H3.86566C3.44829 6.94671 2.84886 7.00553 2.43989 7.4285C2.03373 7.85147 1.99732 8.45371 2.00572 8.87388V14.9131C1.98891 15.5293 2.13177 15.9831 2.4483 16.3052C2.76482 16.6274 3.2158 16.7814 3.83205 16.773L10.7144 16.7926C10.7312 16.8094 10.7452 16.8318 10.7536 16.8487L10.7592 20.4985C10.7536 21.0055 11.0197 21.4285 11.4539 21.6049ZM10.79 15.703L3.83205 15.6834C3.82925 15.6834 3.82644 15.6834 3.82364 15.6862C3.61636 15.689 3.34745 15.6666 3.22701 15.5461C3.10936 15.4229 3.09255 15.1512 3.09815 14.9439V8.85987C3.08975 8.51814 3.13457 8.28564 3.22701 8.19041C3.31944 8.09517 3.54633 8.04195 3.88247 8.03635L10.5911 8.03915C11.0281 8.03915 11.8376 7.69741 11.8376 7.04475L11.832 3.33327C11.832 3.26604 11.8376 3.21282 11.8432 3.17081C11.8712 3.19322 11.9049 3.22123 11.9413 3.26044L11.9469 3.26604L20.5155 11.8851L12.1794 20.4397L12.1738 20.4453C12.0169 20.6106 11.8853 20.6078 11.8656 20.5937C11.8628 20.5881 11.8516 20.5629 11.8516 20.5097V20.5013L11.846 16.8234C11.846 16.3164 11.3755 15.703 10.79 15.703Z" fill="#313235"/>
</svg>
