<svg xmlns="http://www.w3.org/2000/svg" width="24" height="24" fill="none"><path fill="#0B2739" d="M11.95 21.859h.005c.356 0 .598-.243.69-.334l.002-.002 8.711-8.658c.434-.424.588-.905.42-1.323-.098-.243-.389-.652-1.246-.658h-.006l-3.563.006a.5.5 0 0 1-.053-.157l.003-6.72c-.009-.417-.065-1.017-.488-1.426-.42-.406-1.025-.445-1.445-.437H8.938c-.616-.017-1.07.126-1.392.443-.322.316-.476.77-.468 1.386l-.02 6.883a.2.2 0 0 1-.055.039l-3.667.003c-.499 0-.913.263-1.09.694-.201.49-.042 1.082.406 1.507l8.703 8.48a.82.82 0 0 0 .594.274M3.254 12.01a.2.2 0 0 1 .078-.014q.005 0 .006-.003l3.686-.002c.507 0 1.12-.471 1.12-1.056l.02-6.956v-.008c-.003-.207.02-.476.14-.597.123-.117.395-.134.602-.129h6.084c.345-.008.577.037.673.13.095.092.148.319.154.655l-.003 6.708c0 .437.342 1.247.994 1.247l3.712-.006q.096.001.16.012a1 1 0 0 1-.09.098l-.006.005-8.619 8.566-8.557-8.336-.006-.006c-.165-.157-.162-.288-.148-.308"/></svg>