<svg width="24" height="24" viewBox="0 0 24 24" fill="none" xmlns="http://www.w3.org/2000/svg">
<path fill-rule="evenodd" clip-rule="evenodd" d="M12.0672 5C12.9384 5 13.5854 5.65546 13.5854 6.45658V18.1625C13.5854 18.9608 12.944 19.6106 12.1541 19.6106C8.86835 19.6106 7.13165 18.2521 6.21008 16.9692L2.80952 16.972C2.36975 16.972 2.0112 16.6134 2.0112 16.1681L2 8.45938C2 8.2437 2.08403 8.03922 2.23529 7.88796C2.38375 7.73669 2.58543 7.65266 2.79832 7.65266L6.22409 7.64986C7.14846 6.36134 8.87955 5 12.0672 5ZM12.2726 18.5391V6.14797C9.99782 6.18361 8.11572 6.87602 7.14167 8.33412C7.13133 8.3617 7.11098 8.38127 7.0905 8.40097C7.0757 8.41521 7.06083 8.42952 7.04962 8.44696C7.0021 8.53605 6.94271 8.61326 6.8655 8.67859C6.86104 8.68156 6.85733 8.68453 6.85362 8.6875C6.84991 8.69047 6.8462 8.69344 6.84174 8.69641C6.69623 8.81223 6.52102 8.87357 6.32206 8.87357H3.18515L3.19406 15.8356H6.31315C6.63981 15.8356 6.91598 15.9371 7.05853 16.2103C7.06504 16.222 7.07498 16.2309 7.0851 16.2399C7.09803 16.2514 7.11125 16.2632 7.11792 16.2816C8.08305 17.7515 9.99485 18.5094 12.2726 18.5391ZM18.78 6.05485C19.1486 6.39504 19.6336 6.96365 20.1242 7.79227C20.8682 9.04918 21.3405 10.4826 21.4195 12.0795L21.4307 12.4509C21.4522 13.0135 21.3937 13.8535 21.1573 14.8484C20.7719 16.4706 20.0227 17.9058 18.8184 18.9938C18.7166 19.0861 18.5904 19.1338 18.4538 19.1338C18.3009 19.1338 18.1514 19.0675 18.0425 18.9471C17.8424 18.7181 17.8616 18.3647 18.0886 18.1608C19.13 17.2205 19.7721 15.9597 20.1011 14.5305C20.1837 14.1717 20.2421 13.8126 20.2801 13.4916L20.3162 13.127C20.3385 12.8426 20.342 12.6115 20.3304 12.4722C20.3148 10.949 19.8891 9.57324 19.1908 8.38198C18.7678 7.66035 18.2999 7.10562 18.0442 6.88188C17.821 6.67774 17.8018 6.32413 18.0047 6.09616C18.1872 5.89668 18.4849 5.85984 18.7026 5.99585L18.78 6.05485ZM16.0038 8.29268C16.2444 8.51547 16.5525 8.87404 16.8715 9.40395C17.3616 10.2179 17.6768 11.1451 17.739 12.1772L17.75 12.49C17.8295 13.7282 17.3945 15.5504 16.0314 16.7808C15.9303 16.8725 15.8016 16.9209 15.6667 16.9209C15.5115 16.9209 15.3638 16.8559 15.2567 16.7357C15.0538 16.5076 15.0736 16.1546 15.3024 15.9471C16.3698 14.9835 16.7612 13.2836 16.648 12.4913C16.6349 10.9258 15.9434 9.72402 15.2703 9.12181C15.049 8.91764 15.0334 8.56419 15.2392 8.33513C15.4182 8.13572 15.7088 8.09953 15.9276 8.23551L16.0038 8.29268Z" fill="#313235"/>
</svg>
