<svg width="24" height="24" viewBox="0 0 24 24" fill="none" xmlns="http://www.w3.org/2000/svg">
<path fill-rule="evenodd" clip-rule="evenodd" d="M18.1533 21.8418H5.85644C5.26821 21.8418 4.75 21.3236 4.75 20.7354V3.25643C4.75 2.68781 5.28781 2.14999 5.85644 2.14999H13.2374C13.3802 2.14999 13.5203 2.20602 13.6239 2.30406L19.0861 7.48612C19.1982 7.59256 19.2598 7.73822 19.2598 7.89228V20.7354C19.2598 21.3236 18.7416 21.8418 18.1533 21.8418ZM5.88445 20.7214H18.1337L18.1393 20.7158V8.99872H15.6884C14.7332 8.99872 13.9097 8.6822 13.313 8.08276C12.7164 7.48332 12.397 6.66259 12.397 5.70741V3.27044H5.89286C5.88445 3.27604 5.87605 3.28445 5.87045 3.29285V20.7102C5.87325 20.713 5.87885 20.7186 5.88445 20.7214ZM13.5175 3.74874V5.70741C13.5175 6.36007 13.722 6.90629 14.1057 7.29004C14.4895 7.6738 15.0385 7.87828 15.6884 7.87828H17.8706L13.5175 3.74874ZM7.59593 19.0687C7.59593 19.3769 7.84803 19.629 8.15616 19.629C8.46428 19.629 8.71638 19.3769 8.71638 19.0687V7.64298C8.71638 7.33486 8.46428 7.08276 8.15616 7.08276C7.84803 7.08276 7.59593 7.33486 7.59593 7.64298V19.0687ZM14.4923 19.4049C14.4923 19.6374 14.68 19.825 14.9125 19.825C15.1449 19.825 15.3326 19.6374 15.3326 19.4049V19.1004C15.7316 19.0397 16.0688 18.8955 16.3242 18.671C16.6603 18.3797 16.8396 17.9679 16.8396 17.4805C16.8396 16.8921 16.5745 16.1592 15.3326 15.958V14.4692C15.5185 14.5118 15.7025 14.5838 15.8928 14.6878L15.8984 14.6906C15.9741 14.7326 16.0553 14.755 16.1393 14.7578C16.3634 14.7578 16.5455 14.5757 16.5455 14.3517C16.5455 14.262 16.5147 14.094 16.3074 13.9679C16.0332 13.7981 15.6963 13.6851 15.3326 13.6365V13.3405C15.3326 13.108 15.1449 12.9203 14.9125 12.9203C14.68 12.9203 14.4923 13.108 14.4923 13.3405V13.646C13.6697 13.7936 13.159 14.3765 13.159 15.2116C13.159 15.7677 13.3976 16.4564 14.4923 16.6873V18.2652C14.2368 18.2033 13.9802 18.0872 13.7248 17.9175C13.6463 17.8643 13.5511 17.8334 13.4559 17.8306C13.2262 17.8306 13.0385 18.0155 13.0357 18.2452C13.0357 18.3993 13.1029 18.5225 13.2346 18.615C13.6121 18.8747 14.0424 19.0409 14.4923 19.1042V19.4049ZM15.9993 17.5141C15.9993 17.8985 15.7518 18.17 15.3326 18.2727V16.8213C15.9111 16.9641 15.9993 17.236 15.9993 17.5141ZM13.9965 15.1724C13.9965 14.8305 14.1754 14.5892 14.4923 14.4827V15.8032C14.0661 15.6511 13.9965 15.4051 13.9965 15.1724ZM10.9153 19.643C10.6071 19.643 10.355 19.3909 10.355 19.0827V12.0267C10.355 11.7186 10.6071 11.4665 10.9153 11.4665C11.2234 11.4665 11.4755 11.7186 11.4755 12.0267V19.0827C11.4755 19.3937 11.2262 19.643 10.9153 19.643Z" fill="#313235"/>
</svg>
