<svg width="24" height="24" viewBox="0 0 24 24" fill="none" xmlns="http://www.w3.org/2000/svg">
<path fill-rule="evenodd" clip-rule="evenodd" d="M21.6222 17.8741C21.8239 18.0337 21.8967 18.2998 21.8071 18.5407C21.7259 18.7844 21.4962 18.9441 21.2413 18.9413H16.0144C15.9808 19.4903 15.8295 20.3026 15.2553 20.9357C14.7203 21.5379 13.9443 21.8433 12.9556 21.8433C11.9668 21.8433 11.1908 21.5379 10.6558 20.9357C10.0816 20.2998 9.93594 19.4875 9.90233 18.9413H4.67824C4.42334 18.9441 4.19365 18.7816 4.11242 18.5407C4.02278 18.2998 4.09841 18.0309 4.30009 17.8741C4.71185 17.5351 5.05359 17.0954 5.3337 16.5715C3.30009 15.9021 2.16003 14.2214 2.16003 11.4231C2.16003 8.09536 3.77908 6.35026 6.60261 6.01132C8.10961 2.05334 12.527 2.14298 12.9556 2.16819C13.3197 2.14298 15.9584 2.07015 17.8743 3.84886C19.1544 5.03093 19.8015 6.73681 19.8015 8.93009V12.734C19.7959 12.8068 19.6166 16.241 21.6222 17.8741ZM6.04519 17.7368H19.8743C18.4261 15.6444 18.5802 12.8405 18.5886 12.6948V8.93009C18.5886 7.08976 18.0704 5.68079 17.0508 4.73121C15.5456 3.33278 13.3625 3.36034 13.0427 3.36438C13.0185 3.36469 13.0049 3.36486 13.0032 3.36427C12.9911 3.37031 12.979 3.36766 12.97 3.36569C12.9665 3.36493 12.9635 3.36427 12.9612 3.36427C12.9554 3.36427 12.9501 3.36524 12.9448 3.36619C12.9345 3.36804 12.9246 3.36981 12.9135 3.36427C12.7679 3.35586 9.37572 3.17099 7.96115 5.9553C11.2721 6.04214 13.1964 7.79564 13.1964 11.4231C13.1964 15.1626 11.1572 16.9077 7.67544 16.9077C7.27768 16.9077 6.90513 16.8769 6.55219 16.8349C6.40933 17.1486 6.23847 17.4511 6.04519 17.7368ZM14.3477 20.1346C14.6698 19.7788 14.7679 19.297 14.7987 18.9441H11.118C11.1432 19.297 11.2385 19.7816 11.5634 20.143C11.8715 20.4735 12.3253 20.6416 12.9556 20.6416C13.5858 20.6388 14.0396 20.4707 14.3477 20.1346ZM7.67824 15.7004C4.74267 15.7004 3.37292 14.3419 3.37292 11.4231C3.37292 8.50432 4.74267 7.14578 7.67824 7.14578C10.6166 7.14578 11.9864 8.50432 11.9836 11.4231C11.9836 14.3419 10.6138 15.7004 7.67824 15.7004ZM7.24967 12.0001L8.94715 13.6864C8.95155 13.6908 8.95623 13.6955 8.96118 13.7005C9.08559 13.8254 9.38191 14.123 9.67824 14.115C10.0116 14.1066 10.3029 13.9469 10.3029 13.5659C10.3029 13.2326 9.80709 12.8321 9.80709 12.8321L8.28608 11.3222V9.28863C8.28608 8.9553 8.01157 8.68639 7.67824 8.68639C7.34211 8.68639 7.0704 8.9553 7.0704 9.28863V11.5743C7.0704 11.734 7.13482 11.8881 7.24967 12.0001Z" fill="#313235"/>
</svg>
