<svg width="24" height="24" viewBox="0 0 24 24" fill="none" xmlns="http://www.w3.org/2000/svg">
<path fill-rule="evenodd" clip-rule="evenodd" d="M11.843 5.44817C16.0531 3.35293 20.899 3.69747 21.1091 3.71428C21.4341 3.73949 21.6862 4.00839 21.689 4.33052V17.423C21.689 17.7675 21.4088 18.0448 21.0615 18.0448C16.1932 18.0448 12.4985 19.8347 12.1708 19.9972C12.1595 20.0056 12.1427 20.014 12.1399 20.014C12.0699 20.0504 11.9971 20.0588 11.9215 20.0672C11.9082 20.0685 11.8962 20.073 11.8845 20.0774C11.8716 20.0822 11.8591 20.0868 11.8458 20.0868C11.745 20.0868 11.6469 20.0644 11.5545 20.0168L11.5529 20.016C11.4543 19.9663 7.64871 18.0476 2.63014 18.0476C2.2828 18.0476 2.00269 17.7675 2.00269 17.4258V4.33332C2.00269 4.00839 2.25199 3.73949 2.57972 3.71428C2.7898 3.69747 7.63574 3.35013 11.843 5.44817ZM20.4313 16.8123C16.7954 16.9188 13.8822 17.9132 12.4705 18.4986V6.5182C15.5377 5.014 19.0643 4.90475 20.4313 4.92996V16.8123ZM3.25479 4.92996C4.62173 4.91316 8.13994 5.01119 11.2156 6.5182V18.4986C9.80661 17.916 6.89064 16.9188 3.25479 16.8123V4.92996Z" fill="#313235"/>
</svg>
