<svg width="24" height="24" fill="none" xmlns="http://www.w3.org/2000/svg"><path fill-rule="evenodd" clip-rule="evenodd" d="M11.843 5.448c4.21-2.095 9.056-1.75 9.266-1.734a.627.627 0 0 1 .58.617v13.092c0 .345-.28.622-.628.622-4.868 0-8.563 1.79-8.89 1.952a.596.596 0 0 1-.25.07.144.144 0 0 0-.037.01.112.112 0 0 1-.038.01.63.63 0 0 1-.291-.07l-.002-.001c-.099-.05-3.904-1.968-8.923-1.968a.625.625 0 0 1-.627-.622V4.333a.62.62 0 0 1 .577-.619c.21-.017 5.056-.364 9.263 1.734Zm8.588 11.364c-3.636.107-6.549 1.101-7.96 1.687V6.519c3.067-1.505 6.593-1.614 7.96-1.589v11.882ZM3.255 4.93c1.367-.017 4.885.081 7.96 1.588v11.98a23.117 23.117 0 0 0-7.96-1.686V4.93Z" fill="#313235"/></svg>