<svg width="24" height="24" viewBox="0 0 24 24" fill="none" xmlns="http://www.w3.org/2000/svg">
<path fill-rule="evenodd" clip-rule="evenodd" d="M16.933 7.18241H20.3924C21.1991 7.18241 21.8462 7.83507 21.8462 8.6446V20.3757C21.8462 21.188 21.1963 21.8463 20.3924 21.8463H3.6193C2.81537 21.8463 2.15991 21.1852 2.15991 20.3757V8.6446C2.15991 7.83507 2.81537 7.18241 3.6193 7.18241H7.07308V6.82667C7.07308 4.25804 9.24675 2.16 11.9134 2.16H12.1011C14.7678 2.16 16.933 4.25804 16.933 6.82667V7.18241ZM8.30277 6.82667C8.30277 4.94432 9.92742 3.3981 11.9134 3.3981H12.1011C14.0871 3.3981 15.7033 4.94432 15.7033 6.82667V7.18241H8.30277V6.82667ZM20.6165 12.2889C18.9526 13.5101 16.3112 14.0648 12.0787 14.0648C7.73974 14.0648 5.04787 13.4793 3.39241 12.174V8.6474C3.39241 8.52415 3.49885 8.42331 3.6221 8.42331H20.3952C20.5185 8.42331 20.6165 8.52415 20.6165 8.6474V12.2889ZM11.4204 16.4345H12.5941V15.3029H11.4204V16.4345ZM20.3952 20.6054C20.5185 20.6054 20.6165 20.5073 20.6165 20.3757H20.6137V13.7538C19.0227 14.6642 16.8798 15.1432 13.821 15.2664V16.6558C13.821 17.0031 13.6669 17.2917 13.3868 17.4737C13.1823 17.6054 12.9274 17.6726 12.5997 17.6726H11.4036C11.0843 17.6726 10.821 17.6054 10.6165 17.4737C10.3448 17.2917 10.1879 17.0031 10.1879 16.6558V15.2608C7.11229 15.1208 4.97224 14.6166 3.3896 13.6754V20.3757C3.3896 20.5073 3.49605 20.6054 3.6193 20.6054H20.3952Z" fill="#313235"/>
</svg>
