<svg width="24" height="24" fill="none" xmlns="http://www.w3.org/2000/svg"><path d="M11.773 10.804a.564.564 0 0 0 .953.4c1.053-1.022 1.588-2.537 1.588-4.504 0-1.974-.538-3.493-1.6-4.515a.559.559 0 0 0-.792.014.559.559 0 0 0 .014.793c.832.804 1.255 2.05 1.255 3.708 0 1.653-.42 2.897-1.247 3.7a.559.559 0 0 0-.17.404ZM10.087 9.964a.562.562 0 0 1-.56-.56c0-.152.061-.298.17-.401.508-.493.765-1.266.765-2.3 0-1.034-.258-1.815-.77-2.305a.561.561 0 0 1 .779-.807c.736.706 1.109 1.754 1.109 3.11 0 1.35-.373 2.394-1.104 3.106a.57.57 0 0 1-.39.157ZM8.008 18.818c-.29 0-.532-.09-.7-.258-.168-.168-.25-.397-.25-.686 0-.583.365-.944.95-.944.586 0 .95.361.95.944 0 .289-.084.518-.25.686-.165.168-.411.258-.7.258ZM4.566 18.56c.168.168.409.258.7.258s.535-.09.7-.258c.166-.168.25-.397.25-.686 0-.583-.364-.944-.95-.944-.585 0-.95.361-.95.944 0 .289.082.518.25.686Z" fill="#313235"/><path fill-rule="evenodd" clip-rule="evenodd" d="M7.76 13.762h10.643c1.07 0 1.9.3 2.468.888.546.566.824 1.375.824 2.403v1.373c0 1.028-.278 1.835-.824 2.403-.569.591-1.4.888-2.468.888H5.291c-1.07 0-1.899-.3-2.467-.888C2.277 20.26 2 19.454 2 18.426v-1.373c0-1.028.277-1.835.824-2.403.568-.591 1.397-.888 2.467-.888H6.64V6.7c0-.308.252-.56.56-.56.308 0 .56.252.56.56v7.062Zm-2.469 1.12c-.753 0-1.31.185-1.66.547-.34.35-.51.896-.51 1.624v1.373c0 .728.17 1.274.51 1.624.35.362.907.547 1.66.547h13.112c.754 0 1.311-.185 1.661-.547.34-.35.51-.896.51-1.624v-1.373c0-.728-.17-1.274-.51-1.624-.35-.362-.907-.547-1.66-.547H5.29Z" fill="#313235"/></svg>