<svg width="24" height="24" viewBox="0 0 24 24" fill="none" xmlns="http://www.w3.org/2000/svg">
<path fill-rule="evenodd" clip-rule="evenodd" d="M16.7339 17.0392H10.4762C9.63868 17.0392 8.89638 16.7563 8.32776 16.2241C7.73672 15.6667 7.35297 14.8627 7.1905 13.8347C7.06165 13.014 5.73952 5.34173 5.55465 4.30812C5.4342 3.63585 4.73392 3.13165 3.92159 3.13165H2.57145C2.26333 3.13165 2.01123 2.87955 2.01123 2.57142C2.01123 2.2633 2.26333 2.0112 2.57145 2.0112H3.9244C5.29134 2.0112 6.4426 2.89355 6.66109 4.11204C6.70981 4.38452 6.88262 5.37946 7.09931 6.63305H10.3474V5.44257C10.3466 5.42171 10.3474 5.40114 10.3495 5.38098C10.383 4.93307 10.8021 4.58348 11.5995 4.34453C12.2521 4.14845 13.1149 4.03921 14.0224 4.03921C14.93 4.03921 15.7927 4.14845 16.4454 4.34453C17.1979 4.57004 17.6136 4.8941 17.686 5.30636C17.6987 5.3494 17.7048 5.39523 17.7031 5.44257V6.63585H21.1037C21.4118 6.63585 21.6639 6.88795 21.6639 7.19607C21.6639 7.24369 21.6583 7.28851 21.6471 7.33333C21.5484 7.72468 21.3932 8.34612 21.2127 9.06937L21.2122 9.07148L21.2115 9.07415L21.2113 9.07515C21.1105 9.47881 21.0019 9.91402 20.8908 10.3585C20.7776 10.8112 20.6637 11.2684 20.5564 11.6992L20.5556 11.702L20.5539 11.709L20.5527 11.714L20.5526 11.7143C20.3029 12.7162 20.0896 13.5724 20.0056 13.8908C19.7395 14.916 19.353 15.6695 18.8236 16.1989C18.2661 16.7563 17.5631 17.0392 16.7339 17.0392ZM17.7031 7.7563H20.3866C20.2624 8.24874 20.1094 8.86322 19.946 9.51931L19.9453 9.52229L19.9447 9.52453L19.9443 9.52604L19.8039 10.0896C19.6727 10.6138 19.5403 11.1441 19.4186 11.6319C19.1898 12.5491 18.9984 13.3162 18.9216 13.6106C18.3866 15.6835 17.4174 15.9216 16.7339 15.9216H10.479C9.9244 15.9216 9.45941 15.7479 9.10087 15.409C8.6919 15.0224 8.4258 14.437 8.30255 13.6611C8.21878 13.1371 7.72085 10.2351 7.29278 7.7535H10.3474V8.01628C10.347 8.02664 10.347 8.03709 10.3474 8.04761V10.6213C10.347 10.6317 10.347 10.6421 10.3474 10.6527V13.2577C10.3474 13.7339 10.7675 14.1036 11.5995 14.3529C12.2549 14.549 13.1149 14.6583 14.0252 14.6583C14.9356 14.6583 15.7983 14.5518 16.451 14.3529C17.2829 14.1036 17.7031 13.7339 17.7031 13.2577V10.6527C17.7035 10.6421 17.7035 10.6317 17.7031 10.6213V8.04761C17.7035 8.03709 17.7035 8.02664 17.7031 8.01628V7.7563ZM16.8628 10.619C16.8292 10.6583 16.6555 10.8291 16.0364 10.9888C15.4818 11.1316 14.7675 11.2101 14.0252 11.2101C13.2829 11.2101 12.5687 11.1316 12.014 10.9888C11.395 10.8291 11.2213 10.6611 11.1877 10.619L11.1905 8.99669L16.451 9.14285L16.4522 9.14248C16.6026 9.0974 16.7394 9.04837 16.8628 8.99549V10.619ZM11.1933 6.39005L11.1877 8.014L11.1877 8.01401C11.2213 8.05605 11.395 8.2241 12.014 8.38375C12.5687 8.52661 13.2829 8.60504 14.0252 8.60504C14.7675 8.60504 15.4818 8.52661 16.0364 8.38375C16.6555 8.22408 16.8292 8.05322 16.8628 8.014V6.38935C16.7283 6.44537 16.5911 6.49579 16.451 6.53781C15.7983 6.73389 14.9356 6.84313 14.028 6.84313C13.1205 6.84313 12.2577 6.73389 11.6051 6.53781C11.5465 6.52025 11.4885 6.50122 11.4309 6.48093C11.3469 6.45204 11.2676 6.42174 11.1933 6.39005ZM16.8319 5.43973C16.7562 5.37249 16.5489 5.23526 16.0364 5.10084C15.4818 4.95798 14.7675 4.87955 14.0252 4.87955C13.2829 4.87955 12.5687 4.95798 12.014 5.10084C11.5014 5.23529 11.2941 5.37254 11.2185 5.43977C11.2749 5.48992 11.4046 5.58059 11.6796 5.67807C11.7733 5.71116 11.8838 5.74512 12.014 5.77871C12.5687 5.92156 13.2829 6 14.0252 6C14.7675 6 15.4818 5.92156 16.0364 5.77871C16.5501 5.64623 16.7571 5.50603 16.8319 5.43973ZM10.4762 21.6751C9.97482 21.6751 9.57426 21.5322 9.28294 21.2521C8.97762 20.958 8.82356 20.5462 8.82356 20.0224C8.82356 19.4986 8.97762 19.0868 9.28294 18.7927C9.57426 18.5126 9.97762 18.3697 10.4762 18.3697C10.9748 18.3697 11.3782 18.5126 11.6695 18.7927C11.9748 19.0868 12.1289 19.4986 12.1289 20.0224C12.1289 20.5462 11.9748 20.958 11.6695 21.2521C11.381 21.5322 10.9776 21.6751 10.4762 21.6751ZM9.944 20.0224C9.944 19.6134 10.0673 19.4902 10.4762 19.4902C10.8852 19.4902 11.0084 19.6134 11.0084 20.0224C11.0084 20.4314 10.8852 20.5546 10.4762 20.5546C10.0673 20.5546 9.944 20.4314 9.944 20.0224ZM15.9384 21.6751C15.437 21.6751 15.0364 21.5322 14.7451 21.2521C14.4398 20.958 14.2857 20.5462 14.2857 20.0224C14.2857 19.4986 14.4398 19.0868 14.7451 18.7927C15.0364 18.5126 15.4398 18.3697 15.9384 18.3697C16.437 18.3697 16.8404 18.5126 17.1317 18.7927C17.4342 19.0868 17.5911 19.4986 17.5911 20.0224C17.5911 20.5462 17.437 20.958 17.1317 21.2521C16.8432 21.5322 16.4398 21.6751 15.9384 21.6751ZM15.4062 20.0224C15.4062 19.6134 15.5294 19.4902 15.9384 19.4902C16.3474 19.4902 16.4706 19.6134 16.4706 20.0224C16.4706 20.4314 16.3474 20.5546 15.9384 20.5546C15.5294 20.5546 15.4062 20.4314 15.4062 20.0224ZM11.1877 13.2297C11.2241 13.2717 11.4006 13.4398 12.014 13.5994C12.5687 13.7423 13.2829 13.8207 14.0252 13.8207C14.7675 13.8207 15.4818 13.7423 16.0364 13.5994C16.6499 13.4426 16.8264 13.2745 16.8628 13.2297V11.6022C16.7283 11.6583 16.5911 11.7087 16.451 11.7507C15.7983 11.9468 14.9356 12.056 14.028 12.056C13.1205 12.056 12.2577 11.9468 11.6023 11.7507C11.4622 11.7087 11.325 11.6583 11.1905 11.6022L11.1877 13.2297Z" fill="#313235"/>
</svg>
