<svg width="24" height="24" fill="none" xmlns="http://www.w3.org/2000/svg"><path d="M11.311 7.616h4.37a.42.42 0 1 0 0-.84h-4.37a.42.42 0 1 0 0 .84ZM11.311 9.53h4.37a.42.42 0 1 0 0-.84h-4.37a.42.42 0 1 0 0 .84ZM15.68 11.44h-4.369a.42.42 0 1 1 0-.84h4.37a.42.42 0 1 1 0 .84Z" fill="#313235"/><path fill-rule="evenodd" clip-rule="evenodd" d="M10.476 17.042h6.27c.828 0 1.531-.283 2.089-.84.532-.53.916-1.286 1.182-2.311.117-.457.507-2.02.882-3.533l.412-1.648v-.002l.345-1.375a.562.562 0 0 0-.543-.697h-3.39V5.45a.42.42 0 0 0-.123-.297l-3.012-3.011a.42.42 0 0 0-.297-.123h-4c-.479 0-.787.308-.787.784V6.65a.556.556 0 0 0-.126-.014H7.1a724.256 724.256 0 0 0-.44-2.535C6.438 2.882 5.288 2 3.921 2H2.574a.562.562 0 0 0-.56.56c0 .308.252.56.56.56h1.35c.813 0 1.513.505 1.633 1.177.18 1.017 1.502 8.689 1.634 9.54.162 1.029.546 1.832 1.137 2.39.568.532 1.31.815 2.148.815Zm6.41-11.168v6.905h-6.533V2.863h3.521V4.08c.003.532.106.936.316 1.236.18.252.533.554 1.194.557h1.501Zm3.509 1.882h-2.672v5.087c0 .468-.303.773-.773.773l-.502.003h-6.154c-.487 0-.79-.303-.79-.793V7.742a.557.557 0 0 1-.126.014H7.292c.43 2.496.928 5.402 1.008 5.908.123.776.39 1.361.798 1.748.359.339.824.51 1.378.51h6.266c.684 0 1.653-.239 2.188-2.311.077-.295.268-1.062.497-1.98l.385-1.541c.216-.869.423-1.7.583-2.334Zm-5.68-4.3v.622c.002.88.319.956.672.956h.901l-1.574-1.577ZM9.283 21.255c.291.28.692.423 1.193.423.502 0 .905-.143 1.193-.423.306-.294.46-.706.46-1.23s-.154-.935-.46-1.23c-.29-.28-.694-.423-1.193-.423-.498 0-.902.143-1.193.424-.305.294-.46.705-.46 1.23 0 .523.155.935.46 1.229Zm1.193-1.762c-.409 0-.532.123-.532.532 0 .41.123.532.532.532.41 0 .532-.123.532-.532 0-.409-.123-.532-.532-.532ZM14.745 21.255c.291.28.692.423 1.193.423.502 0 .905-.143 1.194-.423.305-.294.46-.706.46-1.23s-.158-.935-.46-1.23c-.292-.28-.695-.423-1.194-.423-.498 0-.902.143-1.193.424-.305.294-.46.705-.46 1.23 0 .523.155.935.46 1.229Zm1.193-1.762c-.409 0-.532.123-.532.532 0 .41.123.532.532.532.41 0 .533-.123.533-.532 0-.409-.124-.532-.533-.532Z" fill="#313235"/></svg>