<svg width="24" height="24" viewBox="0 0 24 24" fill="none" xmlns="http://www.w3.org/2000/svg">
<path fill-rule="evenodd" clip-rule="evenodd" d="M10.4761 17.042H16.745C17.5741 17.042 18.2772 16.7591 18.8346 16.2017C19.3669 15.6723 19.7506 14.916 20.0167 13.8908C20.1344 13.4342 20.5237 11.8711 20.8991 10.3585C21.0447 9.77741 21.186 9.21102 21.3109 8.7103L21.3111 8.70971L21.3116 8.70772L21.3116 8.70765C21.4531 8.14033 21.5736 7.6575 21.6554 7.33333C21.6666 7.28852 21.6722 7.2437 21.6722 7.19608C21.6722 6.88796 21.4201 6.63585 21.112 6.63585H17.7226V5.45098C17.7226 5.33894 17.6778 5.23249 17.5993 5.15406L14.5909 2.14566L14.5881 2.14286C14.5097 2.06443 14.4033 2.01961 14.2912 2.01961H10.2912C9.81224 2.01961 9.50411 2.32773 9.50411 2.80392V6.65025C9.46356 6.64083 9.42137 6.63585 9.37806 6.63585H7.09892C6.88705 5.40939 6.71566 4.42274 6.65817 4.10084C6.43969 2.88235 5.28843 2 3.92148 2H2.57414C2.26602 2 2.01392 2.2521 2.01392 2.56022C2.01392 2.86835 2.26602 3.12045 2.57414 3.12045H3.92428C4.73661 3.12045 5.43689 3.62465 5.55733 4.29692C5.73661 5.31373 7.05873 12.986 7.19039 13.8375C7.35285 14.8655 7.73661 15.6695 8.32764 16.2269C8.89627 16.7591 9.63857 17.042 10.4761 17.042ZM16.8851 5.87395V12.7787H15.7478H10.3529V2.86275H13.8739V4.08123C13.8767 4.61345 13.9803 5.01681 14.1904 5.31653C14.3697 5.56863 14.7226 5.87115 15.3837 5.87395H15.731H16.8851ZM20.3949 7.7563H17.7226V12.8431C17.7226 13.3109 17.4201 13.6162 16.9495 13.6162L16.4481 13.619H10.294C9.80663 13.619 9.50411 13.3165 9.50411 12.8263V7.74191C9.46356 7.75132 9.42137 7.7563 9.37806 7.7563H7.29225C7.72241 10.2523 8.21997 13.1577 8.29963 13.6639C8.42288 14.4398 8.68899 15.0252 9.09795 15.4118C9.45649 15.7507 9.92148 15.9216 10.4761 15.9216H16.7422C17.4257 15.9216 18.3949 15.6835 18.9299 13.6106C19.0067 13.3162 19.1981 12.5491 19.4269 11.6319C19.5486 11.1441 19.6809 10.6138 19.8122 10.0896C20.0279 9.22129 20.2352 8.38936 20.3949 7.7563ZM9.28282 21.2549C9.57414 21.535 9.9747 21.6779 10.4761 21.6779C10.9775 21.6779 11.3809 21.535 11.6694 21.2549C11.9747 20.9608 12.1288 20.549 12.1288 20.0252C12.1288 19.5014 11.9747 19.0896 11.6694 18.7955C11.3781 18.5154 10.9747 18.3725 10.4761 18.3725C9.9775 18.3725 9.57414 18.5154 9.28282 18.7955C8.9775 19.0896 8.82344 19.5014 8.82344 20.0252C8.82344 20.549 8.9775 20.9608 9.28282 21.2549ZM10.4761 19.493C10.0671 19.493 9.94389 19.6162 9.94389 20.0252C9.94389 20.4342 10.0671 20.5574 10.4761 20.5574C10.8851 20.5574 11.0083 20.4342 11.0083 20.0252C11.0083 19.6162 10.8851 19.493 10.4761 19.493ZM14.745 21.2549C15.0363 21.535 15.4369 21.6779 15.9383 21.6779C16.4397 21.6779 16.843 21.535 17.1316 21.2549C17.4369 20.9608 17.5909 20.549 17.5909 20.0252C17.5909 19.5014 17.4341 19.0896 17.1316 18.7955C16.8402 18.5154 16.4369 18.3725 15.9383 18.3725C15.4397 18.3725 15.0363 18.5154 14.745 18.7955C14.4397 19.0896 14.2856 19.5014 14.2856 20.0252C14.2856 20.549 14.4397 20.9608 14.745 21.2549ZM15.9383 19.493C15.5293 19.493 15.4061 19.6162 15.4061 20.0252C15.4061 20.4342 15.5293 20.5574 15.9383 20.5574C16.3472 20.5574 16.4705 20.4342 16.4705 20.0252C16.4705 19.6162 16.3472 19.493 15.9383 19.493ZM11.3108 7.61625H15.6806C15.9103 7.61625 16.1008 7.42857 16.1008 7.19608C16.1008 6.96359 15.9131 6.77591 15.6806 6.77591H11.3108C11.0783 6.77591 10.8907 6.96359 10.8907 7.19608C10.8907 7.42857 11.0783 7.61625 11.3108 7.61625ZM11.3108 9.52941H15.6806C15.9103 9.52941 16.1008 9.34174 16.1008 9.10924C16.1008 8.87675 15.9131 8.68908 15.6806 8.68908H11.3108C11.0783 8.68908 10.8907 8.87675 10.8907 9.10924C10.8907 9.34174 11.0783 9.52941 11.3108 9.52941ZM15.6806 11.4398H11.3108C11.0783 11.4398 10.8907 11.2521 10.8907 11.0196C10.8907 10.7871 11.0783 10.5994 11.3108 10.5994H15.6806C15.9131 10.5994 16.1008 10.7871 16.1008 11.0196C16.1008 11.2521 15.9103 11.4398 15.6806 11.4398ZM14.7142 3.45658V4.07843C14.717 4.95798 15.0335 5.03361 15.3865 5.03361H16.2884L14.7142 3.45658Z" fill="#313235"/>
</svg>
