<svg width="24" height="24" viewBox="0 0 24 24" fill="none" xmlns="http://www.w3.org/2000/svg">
<path fill-rule="evenodd" clip-rule="evenodd" d="M7.45378 5.62465C7.45378 5.41456 7.37255 5.28851 7.21849 5.06162C7.05322 4.82633 6.84874 4.53221 6.84594 4.10924C6.84319 3.68588 7.04819 3.40282 7.20144 3.19121L7.21008 3.17927C7.35854 2.97759 7.45658 2.84313 7.45378 2.56022C7.45098 2.2661 7.69468 2.02801 8 2.02521H8.0056C8.30812 2.02521 8.55462 2.2605 8.55742 2.54902C8.56303 3.17367 8.29132 3.54622 8.10924 3.79271C7.98599 3.95798 7.94678 4.01961 7.94958 4.10084C7.94958 4.20168 8.01401 4.29692 8.13445 4.47059L8.13582 4.47255C8.31498 4.73008 8.56022 5.08261 8.55742 5.62465C8.55742 5.91877 8.31092 6.15406 8.0056 6.15406C7.70028 6.15686 7.45378 5.91877 7.45378 5.62465ZM16.8824 18.5182C18.1681 18.423 21.6863 17.7619 21.6863 13.395C21.6863 9.10084 18.2717 8.37535 16.9356 8.2605V7.2493C16.9356 6.91036 16.6499 6.63585 16.2997 6.63585H2.63585C2.28571 6.63585 2 6.91036 2 7.2493V17.8067C2 19.0952 2.34174 20.0504 3.04762 20.7227C3.7479 21.3894 4.73109 21.7143 6.05882 21.7143H12.874C14.2017 21.7143 15.1849 21.3894 15.8852 20.7227C16.451 20.1821 16.7731 19.4482 16.8824 18.5182ZM15.6639 17.8039V7.85714H3.27171V17.8039C3.27171 18.7479 3.493 19.4174 3.94398 19.8515C4.39216 20.2801 5.08403 20.4874 6.05882 20.4874H12.8768C13.8515 20.4874 14.5434 20.2801 14.9916 19.8515C15.4426 19.4202 15.6639 18.7507 15.6639 17.8039ZM16.9356 17.2885C18.2241 17.1737 20.4174 16.521 20.4174 13.395C20.4174 10.2829 18.2353 9.61064 16.9356 9.48459V17.2885ZM10 5.34454C10.0588 5.43417 10.1709 5.60504 10.1877 5.67227C10.2101 5.94678 10.451 6.15686 10.7339 6.16246C10.7409 6.16246 10.7472 6.16176 10.7535 6.16106C10.7598 6.16036 10.7661 6.15966 10.7731 6.15966C11.0784 6.14005 11.3053 5.88795 11.2857 5.59383C11.2666 5.29277 11.0869 5.01844 10.9402 4.79438L10.93 4.77871C10.9048 4.74229 10.8824 4.70868 10.8627 4.67787C10.8908 4.63585 10.9216 4.59103 10.9468 4.55462L10.951 4.54857C11.1099 4.31996 11.3052 4.03909 11.2885 3.70868C11.2745 3.41456 11.0028 3.18487 10.7143 3.17647C10.4118 3.19047 10.1793 3.41176 10.1933 3.70588C10.1815 3.74841 10.1138 3.84675 10.061 3.92356C10.0512 3.93781 10.0419 3.95131 10.0336 3.96358L10.0317 3.96636C9.88367 4.17858 9.71433 4.42141 9.72549 4.70588C9.73096 4.93299 9.85671 5.12535 9.99047 5.32996L10 5.34454Z" fill="#313235"/>
</svg>
