<svg width="24" height="24" fill="none" xmlns="http://www.w3.org/2000/svg"><path fill-rule="evenodd" clip-rule="evenodd" d="M18.98 20.098H4.602a2.597 2.597 0 0 1-2.594-2.594V6.274a2.597 2.597 0 0 1 2.594-2.593h14.46a2.597 2.597 0 0 1 2.593 2.593v11.149a2.68 2.68 0 0 1-2.675 2.675ZM4.602 4.756a1.52 1.52 0 0 0-1.518 1.518v1.258H20.58V6.274a1.52 1.52 0 0 0-1.518-1.518H4.602ZM20.58 8.605v8.818a1.6 1.6 0 0 1-1.6 1.6H4.602a1.52 1.52 0 0 1-1.518-1.519V8.605H20.58ZM9.888 16.538c0-.18.025-.34.078-.48.054-.14.143-.282.27-.433l1.153-1.406c.359-.435.605-.765.737-.995.135-.23.199-.46.199-.689 0-.255-.079-.445-.235-.574-.174-.152-.474-.227-.902-.227-.37 0-.76.036-1.163.112v-.922c.185-.047.404-.084.656-.117.252-.031.493-.048.725-.048.815 0 1.41.185 1.779.555.283.283.426.67.426 1.154 0 .364-.093.714-.278 1.047-.184.334-.515.76-.988 1.28l-1.034 1.13h2.398v.884H9.922a.822.822 0 0 1-.034-.271Zm-3.02-9.793c.101.104.289.23.594.23a.801.801 0 0 0 .594-.23c.1-.1.219-.286.219-.583 0-.487-.328-.815-.813-.815-.484 0-.812.328-.812.815 0 .297.12.482.218.583Zm8.754 0a.8.8 0 0 0 .594.23c.305 0 .493-.126.593-.233.101-.1.219-.285.219-.582a.797.797 0 0 0-.238-.603.81.81 0 0 0-.574-.21c-.485 0-.813.328-.813.815 0 .297.12.482.219.583Z" fill="#313235"/></svg>