<svg xmlns="http://www.w3.org/2000/svg" width="24" height="24" fill="none"><path fill="#000" d="M7.033 6.855c.101.104.289.23.594.23a.8.8 0 0 0 .594-.23c.1-.1.219-.286.219-.583 0-.487-.328-.815-.813-.815s-.812.328-.812.815c0 .297.12.482.218.583M15.787 6.855a.8.8 0 0 0 .594.23c.305 0 .493-.126.594-.233.1-.1.218-.285.218-.582a.8.8 0 0 0-.238-.603.8.8 0 0 0-.574-.21c-.485 0-.813.328-.813.815 0 .297.12.482.219.583M10.053 16.648q0-.27.078-.48.08-.208.27-.433l1.153-1.406q.539-.651.737-.995.2-.345.199-.689 0-.382-.235-.574-.26-.228-.902-.227-.557-.001-1.163.112v-.922q.278-.069.656-.117.377-.047.725-.048 1.224 0 1.779.555.425.426.426 1.154 0 .547-.278 1.047-.277.5-.988 1.28l-1.034 1.13h2.398v.884h-3.787a.8.8 0 0 1-.034-.271"/><path fill="#000" d="M19.146 20.208H4.766a2.597 2.597 0 0 1-2.594-2.594V6.384a2.597 2.597 0 0 1 2.594-2.593h14.46a2.597 2.597 0 0 1 2.593 2.593v11.149a2.68 2.68 0 0 1-2.675 2.675M4.766 4.866A1.52 1.52 0 0 0 3.25 6.384v1.258h17.496V6.384a1.52 1.52 0 0 0-1.518-1.518zm15.978 3.849H3.249v8.9c0 .837.68 1.517 1.518 1.517h14.378a1.6 1.6 0 0 0 1.6-1.6z"/></svg>