<svg xmlns="http://www.w3.org/2000/svg" width="24" height="24" fill="none"><path fill="#0B2739" d="M14.702 21.19c1.068.426 2.06.639 2.925.639.823 0 1.538-.194 2.104-.577a.154.154 0 0 1 .025-.02l.017-.011a6.357 6.357 0 0 0 .832-.695c.831-.868 1.243-1.756 1.226-2.633-.017-.849-.431-1.684-1.235-2.487a5.017 5.017 0 0 0-1-.788c-.695-.43-1.412-.588-2.132-.465-.72.124-1.423.524-2.095 1.197-.16.157-.305.322-.442.495-.118.065-.49.026-1.25-.495-.88-.605-1.918-1.611-2.624-2.317l-.085-.084c-.705-.706-1.714-1.745-2.316-2.625-.521-.762-.56-1.131-.496-1.249.174-.137.34-.286.496-.442.672-.673 1.073-1.376 1.196-2.096.123-.72-.034-1.437-.465-2.131a4.958 4.958 0 0 0-.787-1c-.804-.804-1.641-1.219-2.487-1.236-.877-.014-1.765.398-2.633 1.227-.292.279-.572.662-.681.813l-.014.02-.028.041c-.796 1.151-.776 2.936.053 5.025.871 2.183 2.566 4.572 4.902 6.908l.006.005.075.073.006.006c2.336 2.336 4.725 4.03 6.907 4.902m.412-1.04c-2.042-.814-4.3-2.422-6.526-4.65l-.09-.089c-2.227-2.227-3.835-4.484-4.65-6.526-.675-1.698-.742-3.143-.182-3.967l.025-.033c.219-.303.406-.53.558-.675 1.277-1.222 2.341-1.225 3.554-.012.238.23.443.493.614.776l.008.017c.289.465.392.908.317 1.359-.082.484-.378.986-.883 1.49a4 4 0 0 1-.448.395.423.423 0 0 0-.064.059c-.219.238-.446.666-.275 1.344.095.384.311.815.656 1.317.655.958 1.711 2.047 2.448 2.784l.084.084c.737.737 1.826 1.793 2.781 2.448.502.345.933.558 1.317.656.678.173 1.106-.054 1.344-.275l.06-.064c.12-.16.251-.308.394-.448.504-.505 1.006-.802 1.49-.883.449-.075.894.028 1.359.317l.017.008a3.9 3.9 0 0 1 .776.613c1.215 1.213 1.213 2.278-.009 3.555a5.234 5.234 0 0 1-.675.558l-.033.022c-.824.56-2.27.496-3.967-.18"/></svg>