<svg width="24" height="24" viewBox="0 0 24 24" fill="none" xmlns="http://www.w3.org/2000/svg">
<path fill-rule="evenodd" clip-rule="evenodd" d="M14.6824 21.17C15.7496 21.5957 16.7412 21.8086 17.6068 21.8086C18.4303 21.8086 19.1446 21.6154 19.7104 21.2316C19.7188 21.2232 19.7272 21.2176 19.7356 21.212L19.7524 21.2008C19.7583 21.1965 19.7647 21.1919 19.7716 21.1869C19.9221 21.0773 20.3058 20.7981 20.5844 20.5061C21.4163 19.6378 21.8281 18.7498 21.8113 17.8731C21.7945 17.0243 21.3799 16.1896 20.576 15.3857C20.2763 15.0803 19.9401 14.817 19.576 14.5985C18.8813 14.1672 18.1642 14.0103 17.4443 14.1336C16.7244 14.2568 16.0214 14.6574 15.3491 15.3296C15.1894 15.4865 15.0438 15.6518 14.9065 15.8254C14.7889 15.8899 14.4163 15.8506 13.6572 15.3296C12.7777 14.7246 11.7384 13.719 11.0326 13.0131L10.9485 12.9291C10.2426 12.2232 9.23424 11.184 8.632 10.3044C8.11099 9.54253 8.07178 9.17278 8.1362 9.05513C8.30987 8.91788 8.47514 8.76942 8.632 8.61256C9.30427 7.94029 9.70483 7.2372 9.82808 6.51732C9.95133 5.79743 9.79447 5.08034 9.36309 4.38566C9.14461 4.01872 8.8785 3.68258 8.57598 3.38566C7.77206 2.58174 6.93452 2.16718 6.08858 2.15037C5.21183 2.13636 4.32388 2.54813 3.45553 3.37726C3.16353 3.65587 2.88434 4.03952 2.77477 4.19008C2.76977 4.19695 2.76513 4.20333 2.76085 4.20919L2.74965 4.226L2.73284 4.25121C1.93732 5.40247 1.95693 7.18678 2.78606 9.27642C3.65721 11.4585 5.35189 13.8478 7.68802 16.184L7.69363 16.1896L7.76926 16.2624L7.77486 16.268C10.111 18.6042 12.5003 20.2988 14.6824 21.17ZM15.0942 20.1308C13.0522 19.3156 10.7945 17.7078 8.56758 15.4809L8.52836 15.4417L8.51716 15.4305L8.47794 15.3913C6.25105 13.1644 4.64321 10.9067 3.82808 8.86466C3.15301 7.16718 3.08578 5.7218 3.64601 4.89827L3.67122 4.86466C3.8897 4.56213 4.07738 4.33524 4.22864 4.18959C5.50595 2.9683 6.57038 2.9655 7.78326 4.17838C8.02136 4.40807 8.22584 4.67138 8.39671 4.95429L8.40511 4.9711C8.69363 5.43608 8.79727 5.87866 8.72164 6.32964C8.6404 6.81424 8.34349 7.31564 7.83928 7.81984C7.69923 7.96269 7.55077 8.09435 7.3911 8.2148C7.3687 8.2316 7.34629 8.25121 7.32668 8.27362C7.10819 8.51171 6.8813 8.94029 7.05217 9.61816C7.14741 10.0019 7.36309 10.4333 7.70763 10.9347C8.36309 11.8927 9.41912 12.9823 10.1558 13.719L10.2398 13.803C10.9765 14.5397 12.0662 15.5957 13.0214 16.2512C13.5228 16.5957 13.9541 16.8086 14.3379 16.9067C15.0158 17.0803 15.4443 16.8535 15.6824 16.6322C15.702 16.6126 15.7216 16.5901 15.7412 16.5677C15.8617 16.4081 15.9933 16.2596 16.1362 16.1196C16.6404 15.6154 17.1418 15.3184 17.6264 15.2372C18.0746 15.1616 18.52 15.2652 18.9849 15.5537L19.0017 15.5621C19.2847 15.733 19.5452 15.9375 19.7777 16.1756C20.9933 17.3885 20.9905 18.4529 19.7693 19.7302C19.6236 19.8815 19.3967 20.0691 19.0942 20.2876L19.0606 20.31C18.237 20.8703 16.7917 20.8058 15.0942 20.1308Z" fill="#313235"/>
</svg>
