<svg width="24" height="24" viewBox="0 0 24 24" fill="none" xmlns="http://www.w3.org/2000/svg">
<path fill-rule="evenodd" clip-rule="evenodd" d="M8.39064 21.6918H20.6875C21.2757 21.6918 21.7939 21.1736 21.7939 20.5854V7.74227C21.7939 7.58821 21.7323 7.44255 21.6203 7.33611L16.1581 2.15406C16.0545 2.05602 15.9144 2 15.7716 2H8.39064C7.82202 2 7.2842 2.53781 7.2842 3.10644V4.60993C6.86681 4.35079 6.43964 4.21611 6.0069 4.20727C5.29822 4.19327 4.58674 4.521 3.89206 5.18486C3.64836 5.41735 3.41867 5.73388 3.34304 5.84032L3.33464 5.85152C3.33184 5.85572 3.32904 5.85922 3.32624 5.86272L3.32624 5.86273C3.32344 5.86623 3.32063 5.86973 3.31783 5.87393C2.67918 6.7955 2.69039 8.21006 3.34584 9.85711C4.02091 11.5518 5.33183 13.4005 7.13855 15.2072L7.14415 15.2128L7.20017 15.2689L7.20577 15.2745C7.25226 15.3209 7.29878 15.3671 7.34532 15.4129C7.30627 15.4892 7.2842 15.5755 7.2842 15.6666V20.5854C7.2842 21.1736 7.80241 21.6918 8.39064 21.6918ZM8.40465 16.3959C9.82009 17.6293 11.2348 18.5437 12.5559 19.07C13.3934 19.4033 14.1693 19.5714 14.8528 19.5714C15.5139 19.5714 16.0881 19.4145 16.5447 19.1008L16.5671 19.084L16.5783 19.0756L16.5911 19.0662L16.5912 19.0662C16.7063 18.9823 17.0102 18.7609 17.2337 18.5265C17.8948 17.8347 18.2253 17.1204 18.2113 16.4117C18.2001 15.7254 17.8668 15.0532 17.2253 14.4117C16.99 14.1708 16.7239 13.9607 16.4326 13.7871C15.3066 13.0924 14.0993 13.2969 13.0293 14.3697C12.9144 14.4845 12.8052 14.605 12.7043 14.731C12.6399 14.7338 12.3626 14.703 11.7184 14.2268C11.0881 13.7619 10.3766 13.0672 9.89764 12.5882L9.83321 12.5238C9.35142 12.0448 8.65955 11.3333 8.19456 10.703C7.71837 10.0588 7.68756 9.78148 7.69036 9.71705C7.81641 9.61621 7.93686 9.50697 8.05171 9.39213C9.12173 8.3193 9.32901 7.11202 8.63154 5.98598C8.56168 5.86992 8.48593 5.75704 8.40465 5.64824V3.14285C8.41025 3.13445 8.41865 3.12605 8.42706 3.12044H14.9312V5.55741C14.9312 6.51259 15.2506 7.33331 15.8472 7.93275C16.4438 8.53219 17.2674 8.84871 18.2225 8.84871H20.6735V20.5657L20.6679 20.5714H8.41585C8.415 20.5705 8.4139 20.5697 8.41269 20.5687C8.40991 20.5666 8.4066 20.5641 8.40465 20.5601V16.3959ZM20.4048 7.72827L16.0517 3.59874V5.55741C16.0517 6.21007 16.2562 6.75628 16.6399 7.14003C17.0237 7.52379 17.5727 7.72827 18.2225 7.72827H20.4048ZM12.9733 18.0307C11.0125 17.2492 9.18896 15.6722 8.00409 14.4873L7.97328 14.4565L7.96207 14.4453L7.93126 14.4173C6.74639 13.2296 5.16937 11.4061 4.38786 9.44535C3.88646 8.18205 3.83044 7.11763 4.2338 6.52099L4.2506 6.49578C4.45508 6.21287 4.58954 6.06721 4.66517 5.99438C5.59513 5.10643 6.33183 5.10363 7.21418 5.98598C7.38784 6.15404 7.5391 6.34732 7.66515 6.5546L7.67356 6.57141C7.93966 6.99718 8.18336 7.67224 7.25619 8.59941C7.15255 8.70585 7.04051 8.80389 6.92286 8.89353C6.90045 8.91034 6.87804 8.92994 6.85843 8.95235C6.66796 9.15963 6.47188 9.52938 6.61754 10.1064C6.69597 10.4173 6.86684 10.7619 7.14135 11.1596C7.5363 11.7339 8.11893 12.3977 9.0377 13.3165L9.10212 13.3809C10.0209 14.2997 10.6847 14.8851 11.259 15.2773C11.6567 15.5518 12.0013 15.7226 12.3122 15.8011C12.8892 15.9495 13.259 15.7506 13.4662 15.5602C13.4859 15.5406 13.5055 15.5182 13.5251 15.4958L13.5251 15.4957C13.6147 15.3781 13.7127 15.2661 13.8192 15.1624C14.7464 14.2324 15.4214 14.4789 15.8472 14.745L15.864 14.7534C16.0713 14.8795 16.2618 15.0308 16.4326 15.2044C17.315 16.084 17.3122 16.8235 16.4242 17.7534C16.3514 17.8319 16.2029 17.9663 15.9228 18.168L15.8976 18.1848C15.2982 18.591 14.2338 18.5349 12.9733 18.0307Z" fill="#313235"/>
</svg>
