<svg width="24" height="24" viewBox="0 0 24 24" fill="none" xmlns="http://www.w3.org/2000/svg">
<path fill-rule="evenodd" clip-rule="evenodd" d="M8.39076 21.6918H20.6876C21.2759 21.6918 21.7941 21.1736 21.7941 20.5854V7.74227C21.7941 7.58821 21.7324 7.44255 21.6204 7.33611L16.1582 2.15406C16.0546 2.05602 15.9145 2 15.7717 2H8.39076C7.82214 2 7.28433 2.53781 7.28433 3.10644V4.60993C6.86694 4.35079 6.43976 4.21611 6.00702 4.20727C5.29834 4.19327 4.58686 4.521 3.89218 5.18486C3.64849 5.41735 3.4188 5.73388 3.34317 5.84032L3.33476 5.85152C3.33196 5.85572 3.32916 5.85922 3.32636 5.86272L3.32636 5.86273C3.32356 5.86623 3.32076 5.86973 3.31796 5.87393C2.6793 6.7955 2.69051 8.21006 3.34597 9.85711C4.02103 11.5518 5.33195 13.4005 7.13867 15.2072L7.14427 15.2128L7.20029 15.2689L7.20589 15.2745C7.25238 15.3209 7.2989 15.3671 7.34544 15.4129C7.30639 15.4892 7.28433 15.5755 7.28433 15.6666V20.5854C7.28433 21.1736 7.80253 21.6918 8.39076 21.6918ZM8.40477 16.3959C9.82021 17.6293 11.2349 18.5437 12.556 19.07C13.3935 19.4033 14.1694 19.5714 14.8529 19.5714C15.514 19.5714 16.0882 19.4145 16.5448 19.1008L16.5672 19.084L16.5784 19.0756L16.5913 19.0662L16.5913 19.0662C16.7064 18.9823 17.0103 18.7609 17.2339 18.5265C17.8949 17.8347 18.2255 17.1204 18.2115 16.4117C18.2002 15.7254 17.8669 15.0532 17.2255 14.4117C16.9902 14.1708 16.7241 13.9607 16.4327 13.7871C15.3067 13.0924 14.0994 13.2969 13.0294 14.3697C12.9146 14.4845 12.8053 14.605 12.7045 14.731C12.64 14.7338 12.3627 14.703 11.7185 14.2268C11.0882 13.7619 10.3767 13.0672 9.89776 12.5882L9.83333 12.5238C9.35154 12.0448 8.65967 11.3333 8.19469 10.703C7.7185 10.0588 7.68769 9.78148 7.69049 9.71705C7.81654 9.61621 7.93698 9.50697 8.05183 9.39213C9.12185 8.3193 9.32913 7.11202 8.63166 5.98598C8.5618 5.86992 8.48605 5.75704 8.40477 5.64824V3.14285C8.41037 3.13445 8.41877 3.12605 8.42718 3.12044H14.9314V5.55741C14.9314 6.51259 15.2507 7.33331 15.8473 7.93275C16.444 8.53219 17.2675 8.84871 18.2227 8.84871H20.6736V20.5657L20.668 20.5714H8.41597C8.41512 20.5705 8.41402 20.5697 8.41281 20.5687C8.41004 20.5666 8.40672 20.5641 8.40477 20.5601V16.3959ZM20.4049 7.72827L16.0518 3.59874V5.55741C16.0518 6.21007 16.2563 6.75628 16.64 7.14003C17.0238 7.52379 17.5728 7.72827 18.2227 7.72827H20.4049ZM12.9734 18.0307C11.0126 17.2492 9.18908 15.6722 8.00421 14.4873L7.9734 14.4565L7.96219 14.4453L7.93138 14.4173C6.74651 13.2296 5.16949 11.4061 4.38798 9.44535C3.88658 8.18205 3.83056 7.11763 4.23392 6.52099L4.25072 6.49578C4.45521 6.21287 4.58966 6.06721 4.66529 5.99438C5.59526 5.10643 6.33195 5.10363 7.2143 5.98598C7.38797 6.15404 7.53923 6.34732 7.66528 6.5546L7.67368 6.57141C7.93979 6.99718 8.18348 7.67224 7.25631 8.59941C7.15267 8.70585 7.04063 8.80389 6.92298 8.89353C6.90057 8.91034 6.87816 8.92994 6.85856 8.95235C6.66808 9.15963 6.472 9.52938 6.61766 10.1064C6.69609 10.4173 6.86696 10.7619 7.14147 11.1596C7.53643 11.7339 8.11906 12.3977 9.03782 13.3165L9.10224 13.3809C10.021 14.2997 10.6849 14.8851 11.2591 15.2773C11.6569 15.5518 12.0014 15.7226 12.3123 15.8011C12.8893 15.9495 13.2591 15.7506 13.4664 15.5602C13.486 15.5406 13.5056 15.5182 13.5252 15.4958L13.5252 15.4957C13.6148 15.3781 13.7129 15.2661 13.8193 15.1624C14.7465 14.2324 15.4215 14.4789 15.8473 14.745L15.8641 14.7534C16.0714 14.8795 16.2619 15.0308 16.4327 15.2044C17.3151 16.084 17.3123 16.8235 16.4243 17.7534C16.3515 17.8319 16.2031 17.9663 15.9229 18.168L15.8977 18.1848C15.2983 18.591 14.2339 18.5349 12.9734 18.0307Z" fill="#313235"/>
</svg>
