<svg width="24" height="24" fill="none" xmlns="http://www.w3.org/2000/svg"><path d="M17.472 9.547c.753.112 2.66.574 3.767 2.434 1.398 2.342-.064 3.614-.129 3.67a.607.607 0 0 1-.4.145h-2.381c-.23 1.213-1.166 1.944-2.566 1.944s-2.342-.73-2.569-1.944h-3.42c-.232 1.208-1.168 1.936-2.566 1.936-1.395 0-2.333-.728-2.563-1.936H2.928a.612.612 0 0 1-.6-.466c-.027-.123-.236-1.051-.153-2.413-.011-1.062.67-2.843 2.21-4.345 1.084-1.059 2.966-2.32 5.781-2.32 4.465 0 6.692 2.477 7.306 3.295Zm.857 5.056h2.095c.177-.272.409-.924-.25-2.028-1.033-1.734-3.005-1.871-3.089-1.874a.62.62 0 0 1-.493-.289c-.073-.117-1.916-2.969-6.428-2.969-2.393 0-3.992 1.068-4.91 1.967-1.228 1.196-1.86 2.683-1.855 3.535a9 9 0 0 0 .047 1.658h1.19c.225-1.221 1.166-1.96 2.572-1.96 1.406 0 2.348.739 2.572 1.96h3.412c.224-1.219 1.165-1.952 2.568-1.952s2.342.733 2.569 1.952Zm-3.964.591c0 .91.454 1.353 1.395 1.353.938 0 1.395-.443 1.395-1.353 0-.91-.457-1.353-1.395-1.353s-1.395.443-1.395 1.353Zm-7.157 1.347c.939 0 1.395-.442 1.398-1.353 0-.913-.46-1.355-1.398-1.355s-1.395.442-1.395 1.355c0 .91.454 1.353 1.395 1.353Z" fill="#313235"/></svg>