<svg width="24" height="24" viewBox="0 0 24 24" fill="none" xmlns="http://www.w3.org/2000/svg">
<path fill-rule="evenodd" clip-rule="evenodd" d="M21.1429 11.8656C22.1877 13.5826 21.4958 14.7423 20.9832 15.1149C20.8796 15.1905 20.7563 15.2297 20.6303 15.2297H18.6162C18.3978 16.2465 17.6162 16.8628 16.4566 16.8628C15.2969 16.8628 14.5154 16.2493 14.2969 15.2297H11.6807C11.4594 16.2437 10.6779 16.8544 9.52381 16.8544C8.36695 16.8544 7.58543 16.2437 7.36695 15.2297H6.05602C5.77871 15.2297 5.53782 15.042 5.47339 14.7731C5.46499 14.7395 5.27171 13.9244 5.34174 12.7087C5.33333 11.8039 5.89356 10.2801 7.16247 8.99721C8.05322 8.09525 9.60504 7.01962 11.9216 7.01962C15.5266 7.01962 17.3585 9.05884 17.902 9.79273C18.5742 9.90198 20.2017 10.3221 21.1429 11.8656ZM20.3754 14.028C20.5014 13.8263 20.6471 13.3502 20.1232 12.4902C19.2929 11.1318 17.6371 10.9639 17.5292 10.953L17.5238 10.9524C17.3277 10.9384 17.1513 10.8319 17.0476 10.6611C16.9888 10.563 15.5182 8.2185 11.9216 8.2185C10.4538 8.2017 9.04202 8.78713 8.01401 9.83755C7.03922 10.8207 6.53501 12.0392 6.54062 12.7339C6.51541 13.1653 6.52381 13.5967 6.56863 14.0252H7.36415C7.57983 13 8.36415 12.381 9.52661 12.381C10.6919 12.381 11.4734 13 11.6891 14.0252H14.2969C14.5126 13.0056 15.2969 12.3866 16.4594 12.3866C17.6218 12.3866 18.4034 13.0028 18.6218 14.0252L20.3754 14.028ZM16.4566 15.6611C17.1597 15.6611 17.4874 15.3333 17.4874 14.6275C17.4874 13.9216 17.1597 13.5911 16.4566 13.5911C15.7535 13.5911 15.4258 13.9188 15.4258 14.6275C15.4258 15.3333 15.7535 15.6611 16.4566 15.6611ZM10.5546 14.6191C10.5546 15.3277 10.2269 15.6555 9.52381 15.6555C8.82073 15.6555 8.493 15.3249 8.493 14.6191C8.493 13.9132 8.82073 13.5854 9.52381 13.5854C10.2269 13.5854 10.5546 13.9132 10.5546 14.6191ZM4.92997 13.4818C4.92997 13.1513 4.66106 12.8824 4.33053 12.8824H3.02521C2.69188 12.8824 2.42577 13.1513 2.42577 13.4818C2.42577 13.8123 2.69468 14.0812 3.02521 14.0812H4.33053C4.66106 14.0812 4.92997 13.8123 4.92997 13.4818ZM4.58263 10.8824C4.91317 10.8824 5.18207 11.1513 5.18207 11.4818C5.18207 11.8123 4.91317 12.0812 4.58263 12.0812H2.59944C2.26891 12.084 2 11.8151 2 11.4818C2 11.1485 2.26891 10.8824 2.59944 10.8824H4.58263ZM5.21289 10.1093C5.54342 10.1093 5.81233 9.84035 5.81233 9.50982C5.81233 9.17649 5.54342 8.90758 5.21289 8.91038H3.67227C3.34174 8.91038 3.07283 9.17929 3.07283 9.50982C3.07283 9.84035 3.34174 10.1093 3.67227 10.1093H5.21289Z" fill="#313235"/>
</svg>
