<svg width="24" height="24" fill="none" xmlns="http://www.w3.org/2000/svg"><path fill-rule="evenodd" clip-rule="evenodd" d="M21.247 15.634a5.272 5.272 0 0 0-1.014-1.358c1.073-1.193 1.619-2.89 1.622-5.045 0-4.552-2.493-7.064-7.02-7.064-4.518 0-7.011 2.512-7.011 7.064 0 .098 0 .205.008.303-1.431.453-2.493 1.277-3.204 2.002-1.692 1.712-2.451 3.869-2.443 5.112-.084 1.592.144 2.654.154 2.7a.619.619 0 0 0 .597.488H4.65c.23 1.252 1.168 2.009 2.566 2.009s2.336-.757 2.566-2.009h3.414c.222 1.26 1.16 2.017 2.558 2.017s2.336-.756 2.566-2.017h2.378a.62.62 0 0 0 .425-.174h.002c.075-.076 1.47-1.466.122-4.028Zm-12.2-6.406v.031c.351-.056.73-.081 1.119-.081 4.487 0 6.717 2.798 7.322 3.711a5.534 5.534 0 0 1 1.748.636c.924-.972 1.389-2.414 1.389-4.297 0-3.868-1.952-5.829-5.793-5.829C11 3.4 9.048 5.357 9.048 9.23Zm7.02.995a.614.614 0 0 0 .868 0 .624.624 0 0 0 0-.874l-1.548-1.56V5.688a.614.614 0 1 0-1.227 0v2.358c0 .165.064.322.18.437l1.727 1.74Zm4.093 5.989c.68 1.282.426 2.064.238 2.386H18.32c-.213-1.269-1.16-2.025-2.566-2.025-1.403 0-2.345.756-2.558 2.025H9.79c-.221-1.269-1.168-2.034-2.574-2.034s-2.353.765-2.574 2.034H3.465a10.97 10.97 0 0 1-.056-1.927c-.008-1.037.72-2.888 2.084-4.272.9-.905 2.434-1.983 4.673-1.983 4.501 0 6.341 3.218 6.414 3.35a.61.61 0 0 0 .507.322c.017 0 2.028.14 3.073 2.124Zm-3.006 3.002v-.008c0-.947-.456-1.398-1.397-1.398-.942 0-1.39.454-1.39 1.398v.008c0 .939.448 1.4 1.39 1.4.94 0 1.397-.461 1.397-1.4Zm-8.54-.017v.017c-.009.939-.465 1.392-1.398 1.392-.941 0-1.398-.462-1.398-1.409 0-.944.46-1.397 1.398-1.397.941 0 1.398.45 1.398 1.397Z" fill="#313235"/></svg>