<svg width="24" height="24" fill="none" xmlns="http://www.w3.org/2000/svg"><path fill-rule="evenodd" clip-rule="evenodd" d="M17.128 10.02c-.392 2.272-4.476 4.274-4.938 4.498a.596.596 0 0 1-.515 0c-.465-.22-4.544-2.224-4.933-4.498-.286-1.648-.283-5.401-.283-5.698v-.014c0-.187.087-.36.233-.479a.61.61 0 0 1 .515-.112c.867.131 1.32-.17 1.952-.59l.009-.006c.638-.429 1.434-.961 2.759-.961h.005c1.323.003 2.117.533 2.755.958l.005.003.013.009c.629.418 1.088.724 1.981.582a.622.622 0 0 1 .714.596c.006.163.014 4.028-.271 5.712Zm-1.187-.21c-.205 1.18-2.462 2.697-4.006 3.479-1.543-.782-3.8-2.297-4-3.482-.207-1.185-.252-3.667-.263-4.849.964-.02 1.597-.442 2.168-.826l.015-.01c.601-.4 1.125-.746 2.08-.746h.003c.96.002 1.487.353 2.092.759.564.378 1.188.793 2.169.818-.009 1.176-.054 3.67-.258 4.857Zm5.675 5.717c.011-.14.258-3.395.227-4.53-.02-.812-.476-1.305-1.325-1.352a1.396 1.396 0 0 0-1.37 1.106l-.305 1.493c-.574-.19-1.202.014-1.524.54l-.1.177-.002.002c-.216.384-.616 1.097-1.357 1.483-.11.047-.507.271-1.13 1.084a9.232 9.232 0 0 0-1.178 2.045l-.423 1.014a1.436 1.436 0 0 0-.524 1.106v.712c0 .798.638 1.442 1.428 1.442h3.457c.79 0 1.431-.647 1.431-1.442v-.712c0-.283-.087-.549-.227-.77l1.48-1.266c.129-.113.266-.216.406-.321l.016-.013c.244-.185.465-.442.656-.762.204-.344.325-.686.364-1.036Zm-1.199-.118.005-.064c.033-.464.242-3.33.216-4.317a.544.544 0 0 0-.02-.157l-.011-.001c-.016-.002-.044-.007-.086-.007-.101.003-.177.053-.194.135l-.518 2.526a.155.155 0 0 1-.017.043l-.014.03a1.335 1.335 0 0 1-.176.675l-.003.003v.003l-1.538 2.602a.599.599 0 0 1-.826.213.613.613 0 0 1-.21-.835l1.538-2.605s.003 0 .003-.003v-.003c.033-.056-.003-.199-.06-.235 0 0-.117-.067-.162.008l-.078.135-.001.001c-.258.46-.793 1.414-1.882 1.977 0 0-.252.15-.703.736a7.915 7.915 0 0 0-1.02 1.773l-.086.208h2.913c.021 0 .043.003.064.005l.048.006 1.793-1.532c.154-.132.316-.255.479-.378.12-.09.235-.23.344-.415.118-.19.185-.37.202-.527Zm-2.7 4.995v-.709c0-.123-.101-.224-.224-.224h-3.457c-.123 0-.224.1-.224.224v.712c0 .123.1.224.224.224h3.457c.123 0 .224-.101.224-.227Zm-7.521 0v-.709c0-.123-.101-.224-.222-.224H6.518c-.123 0-.224.1-.224.224v.712c0 .123.1.224.224.224h3.456c.12 0 .222-.101.222-.227Zm-3.793-2.14L4.61 16.73a8.164 8.164 0 0 0-.473-.375 1.4 1.4 0 0 1-.347-.415 1.438 1.438 0 0 1-.2-.51c-.002-.033-.251-3.33-.223-4.403a1.255 1.255 0 0 1 .01-.148.628.628 0 0 1 .14-.02.172.172 0 0 1 .16.138l.519 2.526c.003.016.01.03.017.043l.014.03c.002.232.056.468.176.675h.003v.003l1.538 2.605a.6.6 0 0 0 .518.3.61.61 0 0 0 .515-.922L5.44 13.653l-.002-.003v-.003c-.034-.056.002-.199.058-.232 0-.003.118-.07.163.006l.078.137c.255.46.79 1.414 1.877 1.977.003 0 .255.152.706.737.409.535.75 1.132 1.02 1.773l.086.207H6.512c-.022 0-.043.004-.065.007a.722.722 0 0 1-.044.005Zm4.048-.69.425 1.015c.317.263.524.658.524 1.106v.712a1.44 1.44 0 0 1-1.428 1.442H6.515c-.79 0-1.428-.647-1.428-1.442v-.712c0-.286.084-.549.224-.77l-1.48-1.266a8.513 8.513 0 0 0-.38-.301l-.04-.03a2.663 2.663 0 0 1-.658-.765 2.55 2.55 0 0 1-.361-1.016c-.014-.16-.258-3.415-.23-4.552.02-.813.48-1.303 1.252-1.348.726.009 1.306.443 1.443 1.104l.308 1.493c.574-.19 1.199.014 1.521.538l.1.176.002.002c.216.384.616 1.097 1.38 1.494.084.04.482.263 1.103 1.073a9.086 9.086 0 0 1 1.18 2.048ZM14.736 6.28a.597.597 0 0 0-.851 0l-2.863 2.883-1.045-1.059a.597.597 0 0 0-.851 0 .612.612 0 0 0 0 .86l1.473 1.487a.602.602 0 0 0 .854 0l3.283-3.31a.612.612 0 0 0 0-.86Z" fill="#313235"/></svg>