<svg xmlns="http://www.w3.org/2000/svg" width="24" height="24" fill="none" viewBox="0 0 24 24"><path fill="#000" d="M16 17a1 1 0 1 1 0 2 1 1 0 0 1 0-2m-4-9.75a.75.75 0 0 1 .6.3l3 4c.2.266.2.633 0 .9l-3 4a.75.75 0 0 1-1.2 0l-3-4a.75.75 0 0 1 0-.9l3-4 .057-.068A.75.75 0 0 1 12 7.25M9.937 12 12 14.75 14.063 12 12 9.249zM8 5a1 1 0 1 1 0 2 1 1 0 0 1 0-2"/><path fill="#000" d="M17 2.25A2.75 2.75 0 0 1 19.75 5v14A2.75 2.75 0 0 1 17 21.75H7A2.75 2.75 0 0 1 4.25 19V5A2.75 2.75 0 0 1 7 2.25zM7 3.75A1.25 1.25 0 0 0 5.75 5v14l.006.124A1.25 1.25 0 0 0 7 20.25h10A1.25 1.25 0 0 0 18.25 19V5A1.25 1.25 0 0 0 17 3.75z"/></svg>