<svg width="24" height="24" viewBox="0 0 24 24" fill="none" xmlns="http://www.w3.org/2000/svg">
<path fill-rule="evenodd" clip-rule="evenodd" d="M19.9076 20.6583H11.5574C10.8824 20.6583 10.4622 20.2353 10.4622 19.5574V4.75911C10.4622 4.09245 10.8824 3.67788 11.5546 3.67508H16.7647C16.9132 3.67508 17.056 3.7339 17.1597 3.84035L21.5294 8.21009C21.6359 8.31374 21.6947 8.45659 21.6947 8.60505V8.60785V19.5826C21.6947 19.7927 21.6751 20.0644 21.5126 20.2913C21.395 20.4566 21.1625 20.6555 20.7199 20.6555C20.4512 20.6583 20.1796 20.6583 19.9081 20.6583H19.9076ZM20.5742 9.16808V19.5378H18.7367H11.5826V4.79833H16.2045V6.42298C16.2045 7.24371 16.4594 7.93558 16.9468 8.42298C17.4342 8.91037 18.1261 9.16808 18.9496 9.16808H20.5742ZM19.7815 8.04763L17.3249 5.59104V6.42298C17.3249 6.94119 17.4678 7.35855 17.7395 7.63026C18.0112 7.90197 18.4286 8.04763 18.9496 8.04763H19.7815ZM7.4902 8.2381C7.2577 8.2381 7.07003 8.05043 7.07003 7.81794C7.07003 7.69469 7.12325 7.57984 7.21569 7.49861C7.36122 7.37417 7.51508 7.24139 7.65427 7.12046H6.92437C6.2381 7.12046 5.72549 7.27732 5.40336 7.58824C5.07003 7.91037 4.89916 8.43418 4.89916 9.14847V9.9804C4.89916 10.2129 4.71148 10.4006 4.47899 10.4006C4.2465 10.4006 4.05882 10.2129 4.05882 9.9804V9.14847C4.05882 8.19889 4.31373 7.4678 4.82073 6.9832C5.30532 6.51822 6.0112 6.28012 6.92437 6.28012H7.66569C7.49288 6.12866 7.32641 5.9861 7.25496 5.92492L7.25495 5.9249L7.25494 5.92489L7.21849 5.89357C7.04202 5.74231 7.01961 5.479 7.17087 5.30253C7.32213 5.12606 7.58543 5.10365 7.7619 5.25491C7.76619 5.25876 7.78545 5.27531 7.8159 5.30147L7.81614 5.30167L7.81615 5.30167C7.98522 5.44689 8.49758 5.88695 8.70868 6.09805C9.08123 6.4734 9.08403 6.93558 8.71429 7.30533C8.61613 7.40348 8.17661 7.78356 7.92338 8.00255L7.92333 8.00259C7.85137 8.06482 7.79446 8.11403 7.76471 8.14007C7.68627 8.20169 7.59104 8.2381 7.4902 8.2381ZM18.9832 11.8768H13.1737C12.8655 11.8768 12.6134 11.6247 12.6134 11.3165C12.6134 11.0084 12.8655 10.7563 13.1737 10.7563H18.9832C19.2913 10.7563 19.5434 11.0084 19.5434 11.3165C19.5434 11.6247 19.2913 11.8768 18.9832 11.8768ZM18.9832 14.6135H13.1737C12.8655 14.6135 12.6134 14.3614 12.6134 14.0532C12.6134 13.7451 12.8655 13.493 13.1737 13.493H18.9832C19.2913 13.493 19.5434 13.7451 19.5434 14.0532C19.5434 14.3614 19.2913 14.6135 18.9832 14.6135ZM13.1737 17.367H18.9832C19.2913 17.367 19.5434 17.1149 19.5434 16.8067C19.5434 16.4986 19.2913 16.2465 18.9832 16.2465H13.1737C12.8655 16.2465 12.6134 16.4986 12.6134 16.8067C12.6134 17.1149 12.8655 17.367 13.1737 17.367ZM5.61625 20.6387H2.85154C2.34174 20.6387 2 20.2941 2 19.7815V11.6247C2 11.1261 2.35014 10.7759 2.85154 10.7759H6.14006C6.28852 10.7759 6.43137 10.8347 6.53782 10.9384L8.96639 13.367C9.07283 13.4706 9.13165 13.6135 9.13165 13.7619V19.7927C9.13165 20.2885 8.78711 20.6331 8.29132 20.6331L5.61625 20.6387ZM8.0084 19.5182H3.12045V11.8964H5.41457V12.6163C5.41457 13.2157 5.57983 13.6835 5.90196 14.0056C6.22409 14.3277 6.69188 14.493 7.29132 14.493H8.0084V19.5182ZM7.66387 13.6527L6.2549 12.2437V12.6163C6.2549 13.353 6.55462 13.6527 7.29132 13.6527H7.66387ZM4.02241 15.8908H7.11765C7.35014 15.8908 7.53782 15.7031 7.53782 15.4706C7.53782 15.2381 7.35014 15.0504 7.11765 15.0504H4.02241C3.78992 15.0504 3.60224 15.2381 3.60224 15.4706C3.60224 15.7031 3.78992 15.8908 4.02241 15.8908ZM4.02241 17.3473H7.11765C7.35014 17.3473 7.53782 17.1597 7.53782 16.9272C7.53782 16.6947 7.35014 16.507 7.11765 16.507H4.02241C3.78992 16.507 3.60224 16.6947 3.60224 16.9272C3.60224 17.1597 3.78992 17.3473 4.02241 17.3473ZM7.11765 18.8039H4.02241C3.78992 18.8039 3.60224 18.6163 3.60224 18.3838C3.60224 18.1513 3.78992 17.9636 4.02241 17.9636H7.11765C7.35014 17.9636 7.53782 18.1513 7.53782 18.3838C7.53782 18.6163 7.35014 18.8039 7.11765 18.8039Z" fill="#313235"/>
</svg>
