<svg width="24" height="24" viewBox="0 0 24 24" fill="none" xmlns="http://www.w3.org/2000/svg">
<path fill-rule="evenodd" clip-rule="evenodd" d="M6.86687 9.21543C6.27688 9.33825 5.78942 9.58352 5.41029 9.94958C4.81925 10.5182 4.51953 11.3529 4.51953 12.4314V12.4678C4.51953 12.4741 4.51975 12.4834 4.52007 12.4968L4.52007 12.4968L4.52007 12.4968C4.52088 12.5315 4.52233 12.5934 4.52233 12.7003L4.51953 18.3501C4.51953 19.4258 4.81925 20.2633 5.41029 20.8319C5.97891 21.3809 6.79404 21.6583 7.82765 21.6583H15.4019C16.4355 21.6583 17.2478 21.3809 17.8193 20.8319C18.4103 20.2661 18.7156 19.4314 18.7296 18.3557V12.423C18.7184 11.3473 18.4103 10.5154 17.8193 9.94678C17.2478 9.40056 16.4355 9.12325 15.4019 9.12325H7.90328V6.49019C7.90328 4.60224 9.53354 3.06442 11.5335 3.06442H11.7184C13.7212 3.06442 15.3487 4.60224 15.3487 6.49019V6.52381C15.3571 6.80952 15.598 7.03361 15.8837 7.02521C16.1694 7.0168 16.3935 6.77591 16.3851 6.49019C16.3851 4.02801 14.2926 2.02521 11.7184 2.02521H11.5335C8.95931 2.02521 6.86687 4.02801 6.86687 6.49019V9.21543ZM11.626 18.0196C11.2198 18.0196 10.9565 18.2297 10.9565 18.6835C10.9565 18.902 11.0181 19.0644 11.1246 19.1737C11.2422 19.2913 11.4131 19.3501 11.626 19.3501C11.8389 19.3501 12.0097 19.2941 12.1274 19.1737C12.2366 19.0644 12.2954 18.902 12.2954 18.6835C12.2954 18.2297 12.0321 18.0196 11.626 18.0196ZM5.55875 12.4622V12.409C5.56435 10.8739 6.28424 10.1597 7.82765 10.1569H15.4047C16.9481 10.1569 17.6764 10.8795 17.696 12.4314V18.3445C17.6764 19.8964 16.9481 20.619 15.4047 20.619H7.82765C6.27863 20.619 5.55875 19.8992 5.55875 18.3501L5.56155 12.6947V12.6919C5.55875 12.5686 5.55875 12.5014 5.55875 12.4622ZM6.91169 14.9076C6.91169 15.1933 7.14418 15.4258 7.4299 15.4258C7.56995 15.4258 7.70441 15.3669 7.80244 15.2661C8.63158 14.4034 9.92009 13.9664 11.6288 13.9664C13.3319 13.9664 14.6176 14.4006 15.4495 15.2577C15.6484 15.4622 15.9789 15.4678 16.1834 15.2689C16.3879 15.07 16.3935 14.7395 16.1946 14.535C15.161 13.4706 13.626 12.93 11.6316 12.93C9.63158 12.93 8.09096 13.4734 7.05735 14.5462C6.96491 14.6443 6.91169 14.7731 6.91169 14.9076ZM8.34306 17.1653C8.34306 17.451 8.57555 17.6835 8.86127 17.6835C9.00132 17.6835 9.13578 17.6246 9.23382 17.5238C9.74642 16.9916 10.5559 16.7227 11.6288 16.7227C12.7016 16.7227 13.5055 16.9916 14.0181 17.521C14.217 17.7255 14.5475 17.7311 14.752 17.5322C14.9565 17.3333 14.9621 17.0028 14.7632 16.7983C14.0461 16.0616 12.9929 15.6863 11.6288 15.6863C10.2618 15.6863 9.20581 16.0644 8.48872 16.8067C8.39628 16.902 8.34306 17.0308 8.34306 17.1653Z" fill="#313235"/>
</svg>
