<svg width="24" height="24" viewBox="0 0 24 24" fill="none" xmlns="http://www.w3.org/2000/svg">
<path fill-rule="evenodd" clip-rule="evenodd" d="M5.22692 21.4327C4.6807 21.4327 4.19891 20.9678 4.19891 20.4383V18.1022C2.9356 17.8445 2.01123 16.7185 2.01123 15.3291V5.68204C2.01123 4.12181 3.28854 2.85291 4.85717 2.85291H18.8404C20.409 2.85291 21.6835 4.12181 21.6835 5.68204V15.3319C21.6835 16.8921 20.409 18.161 18.8404 18.161H8.29694L6.09526 20.979C5.75353 21.4327 5.35577 21.4327 5.22692 21.4327ZM4.85437 3.97335C3.90479 3.97335 3.13168 4.74086 3.13168 5.68204V15.3319C3.13168 16.3067 3.83196 17.0406 4.75913 17.0406C5.06725 17.0406 5.31935 17.2927 5.31935 17.6008V20.1526L7.58266 17.2591C7.6891 17.1246 7.85157 17.0434 8.02524 17.0434H18.8376C19.7871 17.0434 20.5603 16.2759 20.5603 15.3347V5.68204C20.5603 4.73806 19.7871 3.97335 18.8376 3.97335H4.85437ZM17.8095 8.90893H5.87678C5.56865 8.90893 5.31655 8.65683 5.31655 8.3487C5.31655 8.04058 5.56865 7.78848 5.87678 7.78848H17.8095C18.1177 7.78848 18.3698 8.04058 18.3698 8.3487C18.3698 8.65683 18.1177 8.90893 17.8095 8.90893ZM13.986 13.2787H5.87678C5.56865 13.2787 5.31655 13.0266 5.31655 12.7185C5.31655 12.4103 5.56865 12.1582 5.87678 12.1582H13.986C14.2941 12.1582 14.5462 12.4103 14.5462 12.7185C14.5462 13.0266 14.2941 13.2787 13.986 13.2787Z" fill="#313235"/>
</svg>
