<svg width="24" height="24" viewBox="0 0 24 24" fill="none" xmlns="http://www.w3.org/2000/svg">
<path d="M4 8.83868C4 8.6038 4.10472 8.37991 4.28457 8.22186C4.64882 7.90796 5.20429 7.92991 5.54122 8.27015L12.059 14.9212L18.4515 8.27454C18.7861 7.93211 19.3416 7.90796 19.7081 8.21967C20.0633 8.52039 20.0997 9.04062 19.7878 9.38305C19.781 9.38964 19.7764 9.39623 19.7696 9.40281L12.7237 16.7256C12.5552 16.9012 12.3185 17 12.0703 17C11.8222 17.0022 11.5832 16.9056 11.4124 16.7322L4.23676 9.4072C4.08451 9.25438 3.99965 9.05059 4 8.83868Z" fill="#313235"/>
</svg>
