<svg width="24" height="24" viewBox="0 0 24 24" fill="none" xmlns="http://www.w3.org/2000/svg">
<path d="M16.0682 20C15.8365 20 15.6121 19.918 15.4414 19.7701L7.30762 12.7193C6.91739 12.38 6.89544 11.8109 7.25884 11.4466C7.27104 11.4329 7.28567 11.4216 7.3003 11.4079L15.4365 4.23644C15.8023 3.91088 16.3828 3.92226 16.734 4.26603C16.7413 4.27286 16.7486 4.27969 16.7535 4.28652C17.1023 4.65079 17.0779 5.20629 16.6998 5.54324L9.30996 12.059L16.695 18.4519C17.0754 18.782 17.1023 19.3443 16.7559 19.7086C16.5828 19.8907 16.3316 19.9977 16.0682 20Z" fill="#313235"/>
</svg>
