<svg width="24" height="24" viewBox="0 0 24 24" fill="none" xmlns="http://www.w3.org/2000/svg">
<path fill-rule="evenodd" clip-rule="evenodd" d="M21.8463 14.3113C21.8463 12.7314 20.7175 12.16 19.7483 12.1516L19.7455 11.9359L19.7483 10.1852C19.7449 10.1457 19.7406 10.1112 19.7365 10.0783C19.7304 10.0294 19.7247 9.98384 19.7231 9.93031C19.5858 7.79586 18.95 4.16561 15.7399 3.72023C15.667 3.70902 15.6026 3.70062 15.527 3.69222L15.3477 3.68101C15.006 3.6586 14.5942 3.6586 14.3337 3.67821H12.9471C13.0088 3.53535 13.048 3.37289 13.048 3.17961C13.048 2.84628 12.9528 2.58858 12.7707 2.4121C12.5942 2.24404 12.3393 2.16 12.0144 2.16C11.6894 2.16 11.4345 2.24404 11.2581 2.4121C11.076 2.58577 10.9836 2.84628 10.9836 3.17961C10.9836 3.37569 11.0256 3.53535 11.0872 3.67821H9.67544C9.50457 3.66421 9.3309 3.6558 9.14603 3.6558C5.25527 3.6558 4.42334 6.38129 4.25527 9.49894H2.75387C2.42614 9.49894 2.16003 9.75944 2.16003 10.0844C2.16003 10.4065 2.42614 10.6698 2.75387 10.6698H4.22726L4.22166 12.1516C3.26368 12.174 2.16003 12.7482 2.16003 14.3085C2.16003 15.8883 3.29449 16.4653 4.26648 16.4793H4.43174C4.49057 16.4793 4.5746 16.4737 4.67544 16.4625C5.22726 18.5017 6.44575 20.1992 9.14603 20.1992C9.3309 20.1992 9.50457 20.1908 9.63622 20.1796H14.2973L14.3902 20.1844L14.3902 20.1844C14.5285 20.1918 14.6697 20.1992 14.8183 20.1992C15.0004 20.1992 15.174 20.1908 15.3057 20.1796H15.5214C15.5942 20.1796 15.6642 20.1656 15.7287 20.1404C17.8463 19.8519 18.8295 18.1768 19.2945 16.4569L19.2985 16.4591C19.3018 16.461 19.3044 16.4625 19.3085 16.4625C19.4177 16.4765 19.5074 16.4821 19.5718 16.4821H19.7371C20.7119 16.4681 21.8463 15.8911 21.8463 14.3113ZM5.44575 9.50174C5.64183 6.02555 6.62502 4.82947 9.14603 4.82947L9.39533 4.83787C9.76508 4.83787 10.1068 4.87709 10.4429 4.91631C10.2441 5.06196 10.0536 5.21322 9.87712 5.38129C8.8351 6.37849 8.23566 7.76505 8.0732 9.50174H5.44575ZM18.5578 11.9275V11.0788C18.5522 11.0452 18.5466 11.0115 18.5466 10.9751C18.5452 10.9212 18.5423 10.8709 18.5395 10.8209C18.5367 10.7722 18.534 10.7238 18.5326 10.6726H5.41213L5.40373 12.7791C5.41213 12.8127 5.41494 12.8463 5.41494 12.8799C5.52978 17.188 6.64743 19.0284 9.14603 19.0284C9.30289 19.0284 9.45135 19.0199 9.59421 19.0115L14.3337 19.0087C14.6978 19.0312 14.9752 19.0312 15.2665 19.0115H15.3673C15.3953 19.0059 15.4233 19.0003 15.4514 18.9975C16.7147 18.8715 18.4093 18.0984 18.5466 12.8827C18.5466 12.8463 18.5494 12.8127 18.5578 12.7791V11.9275ZM20.6586 14.3141C20.6586 14.9667 20.3421 15.3029 19.7203 15.3113L19.5886 15.3085C19.5824 15.3085 19.5757 15.3079 19.5682 15.3073L19.5682 15.3073C19.5587 15.3065 19.5479 15.3057 19.5354 15.3057C19.6166 14.8127 19.6614 14.3393 19.6866 13.9247C19.688 13.8799 19.6915 13.84 19.695 13.8001C19.6986 13.7601 19.7021 13.7202 19.7035 13.6754L19.7427 13.3281C20.3505 13.3393 20.6586 13.667 20.6586 14.3141ZM13.8687 16.4429C13.639 16.2132 13.2637 16.2132 13.0312 16.4429C12.6922 16.7791 12.3561 16.9527 12.0312 16.9583C11.7035 16.9583 11.3533 16.7903 11.0004 16.4401C10.7707 16.2104 10.3953 16.2104 10.1628 16.4401C9.93034 16.6698 9.93034 17.0396 10.1628 17.2692C10.7399 17.8407 11.3645 18.1292 12.0144 18.1292H12.0508C12.6922 18.1208 13.3029 17.8295 13.8687 17.272C14.1012 17.0452 14.1012 16.6726 13.8687 16.4429ZM12.1404 5.33647C11.5914 5.56056 11.0984 5.84348 10.7007 6.22163C9.89113 6.99754 9.41494 8.09838 9.26368 9.49894H15.0144C14.8631 8.09838 14.3869 6.99474 13.5774 6.22163C13.1824 5.84348 12.6894 5.56056 12.1404 5.33647ZM13.9484 4.90327C14.2429 4.86832 14.523 4.83507 14.8519 4.83507H14.8827C15.0144 4.83507 15.146 4.83787 15.3029 4.84908L15.4485 4.86309C16.5802 4.97793 18.0536 5.61939 18.4485 9.50174H16.2049C16.0452 7.76505 15.4429 6.37849 14.4009 5.38129C14.2273 5.21322 14.0368 5.06196 13.8379 4.91631L13.9484 4.90327ZM4.41214 15.3113C4.41494 15.3113 4.41844 15.3106 4.42194 15.3099L4.42196 15.3099C4.42545 15.3092 4.42895 15.3085 4.43174 15.3085C4.36171 14.8491 4.31129 14.3897 4.28048 13.9359C4.28048 13.8879 4.27622 13.8492 4.27198 13.8108C4.26781 13.7729 4.26368 13.7353 4.26368 13.6894L4.22166 13.3337C3.64743 13.3589 3.34771 13.6838 3.34771 14.3141C3.34771 14.9667 3.66143 15.3029 4.28608 15.3113H4.41214ZM10.2077 14.2833C10.2077 14.6082 9.94155 14.8687 9.61382 14.8687C9.28608 14.8687 9.01998 14.6054 9.01998 14.2833V12.4513C9.01998 12.1264 9.28608 11.8659 9.61382 11.8659C9.94155 11.8659 10.2077 12.1292 10.2077 12.4513V14.2833ZM14.9359 12.4513C14.9359 12.1292 14.6698 11.8659 14.3421 11.8659C14.0144 11.8659 13.7483 12.1292 13.7483 12.4513V14.2833C13.7483 14.6054 14.0144 14.8687 14.3421 14.8687C14.6698 14.8687 14.9359 14.6082 14.9359 14.2833V12.4513Z" fill="#313235"/>
</svg>
