<svg xmlns="http://www.w3.org/2000/svg" width="24" height="24" fill="none"><path fill="#0B2739" d="M7.901 19.387a.56.56 0 0 1-.56-.56v-8.611c0-.308.252-.56.56-.56h8.194c.308 0 .56.252.56.56v8.61a.56.56 0 0 1-.56.56zm.56-3.852h7.073v-2.028H8.462zm1.606 1.12H8.462v1.611h1.605zm1.12 1.611h1.61v-1.61h-1.61zm2.731 0h1.616v-1.61h-1.616zm-3.851-5.88v-1.61H8.462v1.61zm2.73 0v-1.61h-1.61v1.61zm2.737 0v-1.61h-1.616v1.61z"/><path fill="#0B2739" d="M16.638 21.835H7.361c-.482 0-1.16-.106-1.647-.622-.362-.384-.552-.927-.552-1.577V6.264a.56.56 0 0 1 .18-.412l3.82-3.544a.57.57 0 0 1 .38-.148h7.096c.482 0 1.16.106 1.647.622.361.384.552.927.552 1.577v15.277c0 .65-.19 1.194-.552 1.577-.269.283-.773.622-1.647.622M6.282 6.507v13.13c0 .744.334 1.078 1.079 1.078h9.277c.745 0 1.078-.334 1.078-1.079V4.36c0-.745-.333-1.079-1.078-1.079H9.764z"/></svg>