<svg width="24" height="24" fill="none" xmlns="http://www.w3.org/2000/svg"><path fill-rule="evenodd" clip-rule="evenodd" d="M16.818 21.675H7.541c-.482 0-1.16-.106-1.647-.622-.362-.384-.552-.927-.552-1.577V6.104a.56.56 0 0 1 .18-.412l3.82-3.544A.566.566 0 0 1 9.722 2h7.096c.482 0 1.16.106 1.647.622.361.384.552.927.552 1.577v15.277c0 .65-.19 1.194-.552 1.577-.269.283-.773.622-1.647.622ZM6.462 6.347v13.13c0 .744.334 1.078 1.079 1.078h9.277c.745 0 1.078-.334 1.078-1.079V4.2c0-.745-.333-1.079-1.078-1.079H9.944L6.462 6.347Zm4.345 12.88H8.08a.562.562 0 0 1-.56-.56v-8.611c0-.308.252-.56.56-.56H16.275c.308 0 .56.252.56.56v8.61a.56.56 0 0 1-.56.56h-5.468Zm0-3.852H8.642v-2.028H15.714v2.028h-4.907Zm-.56 1.12H8.642v1.611h1.605v-1.61Zm1.12 1.611v-1.61h1.61v1.61h-1.61Zm2.731 0v-1.61h1.616v1.61h-1.616Zm-3.851-5.88H8.642v-1.61h1.605v1.61Zm2.73 0h-1.61v-1.61h1.61v1.61Zm2.737 0h-1.616v-1.61h1.616v1.61Z" fill="#313235"/></svg>