<svg width="24" height="24" viewBox="0 0 24 24" fill="none" xmlns="http://www.w3.org/2000/svg">
<path fill-rule="evenodd" clip-rule="evenodd" d="M14.1148 21.6919H6.92996C4.74229 21.6919 3.68066 20.6162 3.68066 18.4006V5.29132C3.68066 3.10644 4.7731 2 6.92996 2H14.1148C15.2213 2 16.0252 2.27171 16.5686 2.83193C17.1036 3.38095 17.3641 4.18487 17.3641 5.29132V6.51261H19.07C19.7647 6.51261 20.2129 6.96078 20.2129 7.65546V14.6723C20.2101 15.3641 19.7619 15.8123 19.07 15.8123H17.3641V18.4006C17.3641 20.6162 16.2997 21.6919 14.1148 21.6919ZM16.2437 5.29132V6.51261H15.9664C15.8767 6.51261 15.7871 6.54342 15.7143 6.59664L13.5294 8.22969C13.423 8.30812 13.3613 8.43417 13.3613 8.56583V14.6695C13.3613 15.3641 13.8095 15.8123 14.5042 15.8123H16.2437V18.4006C16.2437 19.2073 16.0868 19.7619 15.7647 20.0868C15.4426 20.4118 14.9048 20.5714 14.1148 20.5714H6.92996C6.14005 20.5714 5.60223 20.4146 5.2801 20.0868C4.95797 19.7591 4.80111 19.2073 4.80111 18.4006V5.29132C4.80111 3.72829 5.39775 3.12045 6.92996 3.12045H14.1148C14.9048 3.12045 15.4482 3.28571 15.7675 3.61345C16.0868 3.94118 16.2437 4.493 16.2437 5.29132ZM10.5126 17.3081C9.93557 17.3081 9.55741 17.6134 9.55741 18.2661C9.55741 18.5798 9.64425 18.8123 9.79831 18.972C9.96638 19.1429 10.2101 19.2241 10.5126 19.2241C10.8151 19.2241 11.0588 19.1429 11.2269 18.972C11.3809 18.8151 11.4678 18.5798 11.4678 18.2661C11.465 17.6106 11.0896 17.3081 10.5126 17.3081ZM14.2017 14.6695V8.77591L16.1064 7.35294H19.07C19.3053 7.35294 19.3725 7.42017 19.3725 7.65546V14.6695C19.3725 14.9048 19.3053 14.972 19.07 14.972H14.5042C14.2689 14.972 14.2017 14.9048 14.2017 14.6695ZM18.4846 14.2941H17.3557H16.2325H15.1092C14.9552 14.2941 14.8291 14.1681 14.8291 14.014V12.8908V11.5938V10.4706C14.8291 10.3165 14.9552 10.1905 15.1092 10.1905H16.2325H17.3557H18.4846C18.6386 10.1905 18.7647 10.3165 18.7647 10.4706V11.5938V12.8908V14.014C18.7647 14.1709 18.6386 14.2941 18.4846 14.2941ZM18.2045 13.1709V13.7339H17.6358V13.1709H18.2045ZM18.2045 12.6106H17.3557H16.2325H15.3911L15.3904 11.874H16.2325H17.3557H18.2045V12.6106ZM18.2045 11.3137H17.6358V10.7507H18.2045V11.3137ZM17.0756 11.3137V10.7507H16.5126V11.3137H17.0756ZM15.9524 11.3137V10.7507H15.3893L15.3899 11.3137H15.9524ZM15.3916 13.1709L15.3921 13.7339H15.9524V13.1709H15.3916ZM16.5126 13.1709V13.7339H17.0756V13.1709H16.5126Z" fill="#313235"/>
</svg>
