<svg width="24" height="24" fill="none" xmlns="http://www.w3.org/2000/svg"><path d="M8.081 19.227a.562.562 0 0 1-.56-.56v-8.611c0-.308.252-.56.56-.56h8.194c.308 0 .56.252.56.56v8.61a.56.56 0 0 1-.56.56H8.08Zm.56-3.852h7.073v-2.028H8.642v2.028Zm1.606 1.12H8.642v1.611h1.605v-1.61Zm1.12 1.611h1.61v-1.61h-1.61v1.61Zm2.731 0h1.616v-1.61h-1.616v1.61Zm-3.851-5.88v-1.61H8.642v1.61h1.605Zm2.73 0v-1.61h-1.61v1.61h1.61Zm2.737 0v-1.61h-1.616v1.61h1.616Z" fill="#313235"/><path d="M16.818 21.675H7.541c-.482 0-1.16-.106-1.647-.622-.362-.384-.552-.927-.552-1.577V6.104a.56.56 0 0 1 .18-.412l3.82-3.544A.566.566 0 0 1 9.722 2h7.096c.482 0 1.16.106 1.647.622.361.384.552.927.552 1.577v15.277c0 .65-.19 1.194-.552 1.577-.269.283-.773.622-1.647.622ZM6.462 6.347v13.13c0 .744.334 1.078 1.079 1.078h9.277c.745 0 1.078-.334 1.078-1.079V4.2c0-.745-.333-1.079-1.078-1.079H9.944L6.462 6.347Z" fill="#313235"/></svg>