<svg width="24" height="24" viewBox="0 0 24 24" fill="none" xmlns="http://www.w3.org/2000/svg">
<path d="M12.3627 21.8363C9.49997 21.8363 7.85571 20.2732 7.85571 17.545V5.30406C7.85571 3.30125 9.063 2.14999 11.1666 2.14999C13.2703 2.14999 14.4776 3.29845 14.4776 5.30406L14.5028 16.3573C14.5028 17.5225 13.7437 18.2452 12.5224 18.2452C11.3011 18.2452 10.542 17.5225 10.542 16.3601V6.27885C10.542 5.93991 10.8305 5.6682 11.1834 5.6682C11.5392 5.6682 11.8249 5.94271 11.8249 6.27885V16.3573C11.8249 16.8531 12.0014 17.0183 12.5196 17.0183C13.0406 17.0183 13.2143 16.8531 13.2143 16.3573L13.1862 5.30406C13.1862 3.98753 12.542 3.37408 11.161 3.37408C9.78008 3.37408 9.13582 3.98753 9.13582 5.30406V17.545C9.13582 19.6094 10.189 20.6122 12.3571 20.6122C14.5252 20.6122 15.5784 19.6094 15.5784 17.545L15.5896 6.22562C15.5896 5.88669 15.8781 5.61498 16.2311 5.61498C16.5868 5.61498 16.8725 5.88949 16.8725 6.22843L16.8613 17.5478C16.8697 20.2732 15.2255 21.8363 12.3627 21.8363Z" fill="#313235"/>
</svg>
