<svg xmlns="http://www.w3.org/2000/svg" width="24" height="24" fill="none"><path fill="#0B2739" d="M6.208 18.966h10.42c2.874 0 5.219-2.334 5.219-5.21A5.22 5.22 0 0 0 16.63 8.54h-.059a6.22 6.22 0 0 0-5.594-3.51c-1.658 0-3.165.636-4.238 1.793-1.005 1.08-1.58 2.563-1.633 4.19a4.24 4.24 0 0 0-2.045 1.395 3.95 3.95 0 0 0-.907 2.504 4.06 4.06 0 0 0 4.053 4.054M9.048 6.53a4.8 4.8 0 0 1 1.928-.383 5.1 5.1 0 0 1 4.647 3.008l.002.008c.185.468.56.507.712.502q.03-.002.061-.003l.062-.003a4.1 4.1 0 0 1 4.263 4.09 4.1 4.1 0 0 1-4.095 4.095H6.208a2.937 2.937 0 0 1-2.933-2.933c0-.815.359-1.431.656-1.8.409-.505.96-.875 1.552-1.043.61-.17.739-.535.739-.812 0-1.44.473-2.742 1.336-3.672.418-.451.925-.81 1.49-1.054"/></svg>