<svg xmlns="http://www.w3.org/2000/svg" width="24" height="24" fill="none"><path fill="#0B2739" d="M20.056 15.275v1.852c1.28.255 1.77 1.308 1.787 2.227v.182c-.017 1.061-.655 2.302-2.417 2.302s-2.392-1.232-2.4-2.285a1 1 0 0 1-.002-.138l.001-.058c.017-.913.516-1.975 1.788-2.23v-1.232H5.19v1.224c1.28.263 1.778 1.316 1.795 2.238v.182C6.97 20.6 6.322 21.84 4.57 21.84c-1.762 0-2.392-1.232-2.41-2.286v-.195c.026-.914.516-1.967 1.788-2.23l-.008-1.843c0-.163.067-.32.182-.443a.61.61 0 0 1 .44-.182h6.803q-.004-.02-.01-.04a.3.3 0 0 1-.015-.092v-.921l-3.571.017c-1.67 0-3.614-.93-3.614-3.56 0-2 1.082-2.863 1.961-3.233.177-3.446 2.933-4.678 5.308-4.678.664 0 3.919.154 4.983 2.975 1.886.204 3.754 1.39 3.754 4.201 0 3.143-2.345 4.253-4.345 4.253l-3.232.016v.928a.3.3 0 0 1-.016.092l-.01.04h6.877c.34 0 .622.28.622.615m-12.3-2.885 8.054-.042c.938 0 3.106-.294 3.106-3.017 0-2.532-1.88-2.969-2.991-3a.63.63 0 0 1-.591-.453c-.625-2.311-3.157-2.49-3.914-2.49-.955 0-4.07.28-4.07 3.79l.009.089a.61.61 0 0 1-.457.591c-1.014.289-1.504 1.014-1.504 2.205 0 2.033 1.476 2.327 2.359 2.327m-2.02 7.13v-.14c-.007-.494-.223-1.085-1.162-1.085-.946 0-1.154.6-1.17 1.092v.149c.008.706.397 1.067 1.162 1.067s1.154-.37 1.17-1.084m13.69 1.083c.765 0 1.163-.37 1.17-1.084h.004v-.14c-.009-.485-.216-1.059-1.124-1.076l-.02.005q-.01.004-.022.004t-.02-.004a.1.1 0 0 0-.022-.005c-.904.014-1.112.6-1.12 1.084v.149c0 .706.39 1.067 1.154 1.067"/></svg>