<svg width="24" height="24" viewBox="0 0 24 24" fill="none" xmlns="http://www.w3.org/2000/svg">
<path fill-rule="evenodd" clip-rule="evenodd" d="M20.0464 15.2705V17.122C21.3265 17.3769 21.8167 18.4301 21.8335 19.3489V19.531C21.8167 20.5926 21.178 21.8335 19.4161 21.8335C17.6542 21.8335 17.024 20.601 17.0155 19.5478C17.0098 19.5037 17.0119 19.4545 17.0138 19.4098C17.0147 19.3891 17.0155 19.3694 17.0155 19.3517C17.0324 18.4385 17.531 17.3769 18.8027 17.122V15.8895H5.18083V17.1136C6.46094 17.3769 6.95954 18.4301 6.97635 19.3517V19.5338C6.95954 20.5954 6.31248 21.8363 4.55898 21.8363C2.79708 21.8363 2.16683 20.6038 2.15002 19.5506V19.3545C2.17523 18.4413 2.66543 17.3881 3.93714 17.1248L3.92873 15.2817C3.92873 15.1192 3.99596 14.9623 4.11081 14.8391C4.22565 14.7214 4.38532 14.657 4.55058 14.657H11.3545C11.3518 14.6437 11.3483 14.6307 11.3448 14.6176C11.3371 14.5891 11.3293 14.5598 11.3293 14.5254V13.6038L7.75786 13.6206C6.08839 13.6206 4.14442 12.6906 4.14442 10.0604C4.14442 8.06038 5.22565 7.19764 6.1052 6.82789C6.28167 3.38252 9.03797 2.15002 11.4133 2.15002C12.0772 2.15002 15.3321 2.30409 16.3965 5.12481C18.2817 5.32929 20.15 6.51416 20.15 9.32648C20.15 12.4693 17.8055 13.5786 15.8055 13.5786L12.573 13.5954V14.5226C12.573 14.557 12.5651 14.5863 12.5575 14.6148C12.5539 14.6279 12.5504 14.6409 12.5478 14.6542H19.4245C19.7634 14.6542 20.0464 14.9343 20.0464 15.2705ZM7.74665 12.3853C6.8643 12.3853 5.38811 12.0912 5.38811 10.0576C5.38811 8.8671 5.87831 8.14161 6.89231 7.8531C7.16682 7.78027 7.3489 7.53937 7.3489 7.26206L7.34049 7.17243C7.34049 3.66263 10.4553 3.38252 11.4105 3.38252C12.1668 3.38252 14.699 3.56179 15.3237 5.87271C15.3993 6.13601 15.6402 6.31809 15.9147 6.32649C17.0268 6.3573 18.9063 6.79428 18.9063 9.32648C18.9063 12.0492 16.7382 12.3433 15.7999 12.3433L7.74665 12.3853ZM5.72705 19.5141V19.3741C5.71865 18.8811 5.50296 18.2901 4.56459 18.2901C3.61781 18.2901 3.41053 18.8895 3.39372 19.3825V19.531C3.40212 20.2368 3.79148 20.5982 4.55618 20.5982C5.32089 20.5982 5.71024 20.2284 5.72705 19.5141ZM19.4161 20.5982C20.1808 20.5982 20.5786 20.2284 20.587 19.5141H20.5898V19.3741C20.5814 18.8895 20.3741 18.3153 19.4665 18.2985C19.4581 18.2985 19.4518 18.3006 19.4455 18.3027C19.4392 18.3048 19.4329 18.3069 19.4245 18.3069C19.4161 18.3069 19.4098 18.3048 19.4035 18.3027C19.3972 18.3006 19.3909 18.2985 19.3825 18.2985C18.4777 18.3125 18.2705 18.8979 18.262 19.3825V19.531C18.262 20.2368 18.6514 20.5982 19.4161 20.5982Z" fill="#313235"/>
</svg>
