<svg width="24" height="24" fill="none" xmlns="http://www.w3.org/2000/svg"><path d="M20.046 15.27v1.852c1.28.255 1.77 1.308 1.787 2.227v.182c-.016 1.062-.655 2.302-2.417 2.302-1.762 0-2.392-1.232-2.4-2.285a.835.835 0 0 1-.002-.138l.001-.058c.017-.913.516-1.975 1.787-2.23V15.89H5.181v1.224c1.28.263 1.778 1.316 1.795 2.238v.182c-.017 1.061-.664 2.302-2.417 2.302-1.762 0-2.392-1.232-2.41-2.285v-.196c.026-.914.516-1.967 1.788-2.23l-.008-1.843c0-.163.067-.32.182-.443a.614.614 0 0 1 .44-.182h6.803c-.002-.013-.006-.026-.01-.04a.34.34 0 0 1-.015-.092v-.921l-3.571.017c-1.67 0-3.614-.93-3.614-3.56 0-2 1.082-2.863 1.961-3.233.177-3.446 2.933-4.678 5.308-4.678.664 0 3.919.154 4.983 2.975 1.886.204 3.754 1.39 3.754 4.201 0 3.143-2.345 4.252-4.345 4.252l-3.232.017v.928a.34.34 0 0 1-.016.092l-.01.04h6.877c.34 0 .622.28.622.615Zm-12.3-2.885 8.054-.042c.938 0 3.106-.294 3.106-3.017 0-2.532-1.88-2.969-2.991-3a.633.633 0 0 1-.591-.453c-.625-2.311-3.157-2.49-3.914-2.49-.955 0-4.07.28-4.07 3.79l.009.089a.607.607 0 0 1-.457.591c-1.014.289-1.504 1.014-1.504 2.204 0 2.034 1.476 2.328 2.359 2.328Zm-2.02 7.13v-.14c-.007-.494-.223-1.085-1.162-1.085-.946 0-1.154.6-1.17 1.093v.148c.008.706.397 1.067 1.162 1.067.765 0 1.154-.37 1.17-1.084Zm13.69 1.083c.765 0 1.162-.37 1.17-1.084h.004v-.14c-.009-.484-.216-1.059-1.124-1.076a.062.062 0 0 0-.02.005c-.007.002-.013.004-.022.004a.062.062 0 0 1-.02-.004.062.062 0 0 0-.022-.005c-.904.014-1.112.6-1.12 1.085v.148c0 .706.39 1.067 1.154 1.067Z" fill="#313235"/></svg>