<svg width="24" height="24" viewBox="0 0 24 24" fill="none" xmlns="http://www.w3.org/2000/svg">
<path fill-rule="evenodd" clip-rule="evenodd" d="M20.0462 15.2704V17.122C21.3263 17.3769 21.8165 18.4301 21.8333 19.3488V19.5309C21.8165 20.5925 21.1779 21.8334 19.416 21.8334C17.6541 21.8334 17.0238 20.6009 17.0154 19.5477C17.0097 19.5037 17.0118 19.4544 17.0137 19.4098C17.0146 19.3891 17.0154 19.3694 17.0154 19.3517C17.0322 18.4385 17.5308 17.3769 18.8025 17.122V15.8895H5.18071V17.1136C6.46082 17.3769 6.95942 18.4301 6.97623 19.3517V19.5337C6.95942 20.5953 6.31236 21.8362 4.55886 21.8362C2.79696 21.8362 2.16671 20.6037 2.1499 19.5505V19.3545C2.17511 18.4413 2.66531 17.3881 3.93701 17.1248L3.92861 15.2816C3.92861 15.1192 3.99584 14.9623 4.11068 14.8391C4.22553 14.7214 4.38519 14.657 4.55046 14.657H11.3544C11.3517 14.6437 11.3482 14.6307 11.3447 14.6175C11.337 14.5891 11.3292 14.5598 11.3292 14.5253V13.6038L7.75774 13.6206C6.08827 13.6206 4.1443 12.6906 4.1443 10.0603C4.1443 8.06035 5.22553 7.19761 6.10508 6.82786C6.28155 3.38249 9.03785 2.14999 11.4132 2.14999C12.0771 2.14999 15.332 2.30406 16.3964 5.12478C18.2815 5.32926 20.1499 6.51413 20.1499 9.32645C20.1499 12.4693 17.8053 13.5785 15.8053 13.5785L12.5729 13.5954V14.5225C12.5729 14.557 12.565 14.5863 12.5573 14.6147C12.5538 14.6279 12.5503 14.6409 12.5476 14.6542H19.4244C19.7633 14.6542 20.0462 14.9343 20.0462 15.2704ZM7.74653 12.3853C6.86418 12.3853 5.38799 12.0912 5.38799 10.0575C5.38799 8.86707 5.87819 8.14158 6.89219 7.85307C7.1667 7.78024 7.34877 7.53934 7.34877 7.26203L7.34037 7.1724C7.34037 3.6626 10.4552 3.38249 11.4104 3.38249C12.1667 3.38249 14.6989 3.56176 15.3236 5.87268C15.3992 6.13598 15.6401 6.31806 15.9146 6.32646C17.0266 6.35727 18.9062 6.79425 18.9062 9.32645C18.9062 12.0491 16.7381 12.3433 15.7997 12.3433L7.74653 12.3853ZM5.72693 19.5141V19.3741C5.71852 18.8811 5.50284 18.29 4.56446 18.29C3.61769 18.29 3.4104 18.8895 3.3936 19.3825V19.5309C3.402 20.2368 3.79136 20.5981 4.55606 20.5981C5.32077 20.5981 5.71012 20.2284 5.72693 19.5141ZM19.416 20.5981C20.1807 20.5981 20.5784 20.2284 20.5869 19.5141H20.5897V19.3741C20.5812 18.8895 20.374 18.3152 19.4664 18.2984C19.458 18.2984 19.4517 18.3005 19.4454 18.3026C19.4391 18.3047 19.4328 18.3068 19.4244 18.3068C19.416 18.3068 19.4097 18.3047 19.4034 18.3026C19.3971 18.3005 19.3908 18.2984 19.3824 18.2984C18.4776 18.3124 18.2703 18.8979 18.2619 19.3825V19.5309C18.2619 20.2368 18.6513 20.5981 19.416 20.5981Z" fill="#313235"/>
</svg>
