<svg width="24" height="24" fill="none" xmlns="http://www.w3.org/2000/svg"><path fill-rule="evenodd" clip-rule="evenodd" d="M20.892 21.838c-1.648 0-3.53-.76-5.213-2.11l-.065-.056a11.725 11.725 0 0 1-2.899-3.417c-.062.53-.17 1.025-.353 1.428-.633 1.426-1.63 2.337-2.728 2.5-.11.016-.224.024-.35.024-.569 0-1.297-.199-2.042-.947-1.306-.176-1.902-.809-2.174-1.324-.499-.947-.297-2.25.557-3.569.477-.745 1.418-1.476 2.41-2.098-.183.005-.365.011-.544.011-1.003 0-1.98-.103-2.695-.395-1.493-.605-2.45-1.554-2.619-2.602-.092-.569.009-1.412.967-2.28.187-1.244.851-1.81 1.392-2.07.994-.476 2.358-.28 3.745.532.784.454 1.546 1.35 2.199 2.294-.042-1.129.039-2.28.4-3.084.636-1.426 1.63-2.336 2.728-2.499.597-.09 1.485.009 2.393.925 1.308.18 1.902.812 2.173 1.328.499.946.294 2.249-.56 3.568-.476.745-1.414 1.476-2.406 2.095 1.182-.039 2.39.04 3.235.384 1.499.605 2.454 1.555 2.622 2.602.093.57-.011 1.412-.966 2.28-.188 1.244-.852 1.813-1.392 2.07-.359.171-.765.255-1.202.255-.779 0-1.658-.266-2.543-.787a4.339 4.339 0 0 1-.653-.481 10.476 10.476 0 0 0 2.123 2.325l.07.053c1.485 1.193 3.129 1.863 4.462 1.823a.666.666 0 0 1 .779.258.59.59 0 0 1-.185.815.91.91 0 0 1-.442.143 5.635 5.635 0 0 1-.224.006ZM13.802 3.38c-.63.095-1.3.773-1.745 1.773-.56 1.25-.25 3.908.005 5.213 1.266-.557 3.72-1.854 4.46-3.011.6-.927.792-1.84.507-2.387-.208-.392-.678-.624-1.4-.686l-.261-.022-.168-.188c-.418-.468-.835-.703-1.244-.703-.05 0-.104.005-.154.011Zm-8.504 7.38c-1.048-.422-1.76-1.06-1.858-1.663-.07-.434.174-.882.723-1.33l.199-.163.022-.246c.065-.69.309-1.138.72-1.334.174-.084.387-.126.622-.126.538 0 1.205.21 1.88.608 1.213.706 2.574 3.045 3.157 4.252-1.365.244-4.154.538-5.465.003Zm5.885 6.446c-.446 1-1.115 1.678-1.745 1.77-.454.065-.93-.165-1.4-.691l-.169-.188-.26-.022c-.723-.062-1.194-.292-1.401-.687-.286-.546-.092-1.459.507-2.383.742-1.157 3.196-2.454 4.462-3.012.258 1.303.569 3.964.006 5.213Zm6.759-5.61c1.047.423 1.762 1.061 1.857 1.664.07.437-.174.885-.726 1.333l-.198.16-.026.249c-.064.686-.305 1.134-.72 1.333-.568.272-1.529.09-2.5-.484-1.214-.706-2.575-3.045-3.158-4.255 1.373-.238 4.163-.535 5.47 0Z" fill="#313235"/></svg>