<svg width="24" height="24" fill="none" xmlns="http://www.w3.org/2000/svg"><path d="M13.221 6.224 8.04 6.25 6.17 4.367a1.454 1.454 0 0 0-1.029-.426H2.605a.607.607 0 0 0 0 1.216H5.14a.25.25 0 0 1 .174.07l1.022 1.03-.807.004A1.214 1.214 0 0 0 4.423 7c-.188.445-.095.96.235 1.314l6.151 6.512c.082.087.183.157.286.216v3.798l-3.641 1.687a.608.608 0 0 0 .25 1.16l8.33-.018a.61.61 0 0 0 .233-1.168L12.3 18.824v-3.799c.112-.064.21-.145.294-.24l3.764-4.362c.34.062.7.098 1.09.098 2.731 0 4.235-1.513 4.235-4.26C21.686 3.515 20.183 2 17.451 2c-2.717 0-4.216 1.501-4.23 4.224Zm4.166 3.081-.06-.002.905-1.05c.202-.22.328-.51.328-.83a1.21 1.21 0 0 0-1.204-1.216h-.014l-2.913.014c.014-2.047.972-3.005 3.022-3.005 2.036 0 3.028.997 3.028 3.047 0 2.076-.964 3.045-3.028 3.045a.88.88 0 0 1-.064-.003Zm-5.704 4.681L7.617 9.681h7.782l-3.714 4.305Zm.026 5.908 1.339.565-2.575.006 1.236-.571ZM17.35 7.423l-.916 1.056c-.01-.001-.021-.004-.032-.007a.158.158 0 0 0-.04-.007H6.467l-.936-.989c0 .003 11.818-.053 11.818-.053Z" fill="#313235"/></svg>