<svg width="24" height="24" viewBox="0 0 24 24" fill="none" xmlns="http://www.w3.org/2000/svg">
<path fill-rule="evenodd" clip-rule="evenodd" d="M21.6863 5.92863C21.6863 5.15552 21.0336 4.52527 20.2297 4.52527H3.45938C2.65266 4.52527 2 5.15552 2 5.92863V17.8866C2 18.6597 2.65546 19.29 3.45938 19.29H20.2297C21.0336 19.29 21.6863 18.6597 21.6863 17.8866V5.92863ZM3.45938 5.70734C3.33333 5.70734 3.23249 5.80538 3.23249 5.92583V7.65692H20.4594V5.92583C20.4594 5.80538 20.3585 5.70734 20.2325 5.70734H3.45938ZM20.2297 18.1051C20.3557 18.1051 20.4566 18.0071 20.4566 17.8866V8.84179H3.22969V17.8838C3.22969 18.0043 3.33333 18.1023 3.45658 18.1023H20.2297V18.1051ZM6.15686 7.14992C5.84034 7.14992 5.58824 6.90342 5.58824 6.6009C5.58824 6.29558 5.84314 6.05188 6.15686 6.05188C6.47339 6.05188 6.72549 6.29838 6.72549 6.6009C6.72549 6.90342 6.47339 7.14992 6.15686 7.14992ZM7.29692 6.6009C7.29692 6.90342 7.54902 7.14992 7.86555 7.14992C8.18207 7.14992 8.43698 6.90342 8.43417 6.6009C8.43417 6.29838 8.18207 6.05188 7.86555 6.05188C7.55182 6.05188 7.29692 6.29558 7.29692 6.6009ZM4.44538 7.14992C4.12885 7.14992 3.87675 6.90342 3.87675 6.6009C3.87675 6.29558 4.12885 6.05188 4.44538 6.05188C4.7619 6.05188 5.01401 6.29838 5.01401 6.6009C5.01681 6.90342 4.7619 7.14992 4.44538 7.14992ZM8.84314 11.9202C9.07843 11.7129 9.09524 11.3656 8.88235 11.1387C8.66947 10.9118 8.30532 10.895 8.07283 11.1023L5.73389 13.1471C5.61625 13.2508 5.54622 13.3964 5.54622 13.5533C5.54622 13.7073 5.61345 13.8558 5.73109 13.9594L8.07003 16.0407C8.17927 16.1415 8.32213 16.1891 8.45938 16.1891C8.61345 16.1891 8.76751 16.1303 8.87955 16.0127C9.09524 15.7886 9.08123 15.4384 8.84874 15.2312L6.96919 13.5589L8.84314 11.9202ZM15.5266 11.0995L17.8655 13.1443C17.9832 13.248 18.0532 13.3964 18.0532 13.5505C18.0532 13.7073 17.986 13.853 17.8683 13.9594L15.5294 16.0407C15.4174 16.1387 15.2773 16.1863 15.1401 16.1863C14.986 16.1863 14.8319 16.1275 14.7199 16.0099C14.5042 15.7858 14.5182 15.4356 14.7507 15.2283L16.6303 13.5561L14.7563 11.9174C14.521 11.7129 14.5042 11.3628 14.7171 11.1359C14.9272 10.9118 15.2913 10.895 15.5266 11.0995ZM13.2717 11.7606C13.4034 11.4805 13.2717 11.1555 12.9832 11.0295C12.6919 10.9034 12.3529 11.0295 12.2241 11.3124L10.3277 15.3908C10.1961 15.6681 10.3277 15.9931 10.6162 16.1191C10.6919 16.1499 10.7731 16.1667 10.8515 16.1667C11.07 16.1667 11.2801 16.0435 11.3754 15.839L13.2717 11.7606Z" fill="#313235"/>
</svg>
