<svg xmlns="http://www.w3.org/2000/svg" width="24" height="24" fill="none"><path fill="#000" d="m18.402 17.462-12.804-.008c-1.12 0-1.99-.311-2.58-.927-.574-.591-.863-1.437-.863-2.513V7.737c0-2.202 1.221-3.412 3.44-3.412l12.807.008c2.218 0 3.44 1.213 3.44 3.412v6.278c0 1.075-.29 1.921-.86 2.512-.594.616-1.463.927-2.58.927M5.594 5.445c-.807 0-1.406.194-1.779.575-.358.367-.54.944-.54 1.717v6.277c0 1.583.736 2.32 2.319 2.32l12.804.008c1.582 0 2.32-.737 2.32-2.32V7.746c0-.773-.183-1.35-.544-1.717-.373-.38-.97-.574-1.78-.574zm-2.88 14.222 18.566.008c.308 0 .56-.252.56-.56a.56.56 0 0 0-.56-.56l-18.566-.009a.56.56 0 0 0-.56.56c0 .309.252.56.56.56"/></svg>