<svg width="24" height="24" viewBox="0 0 24 24" fill="none" xmlns="http://www.w3.org/2000/svg">
<path fill-rule="evenodd" clip-rule="evenodd" d="M9.43698 10.8011C9.43698 11.1092 9.68908 11.3613 9.9972 11.3613C10.1429 11.3613 10.2829 11.3053 10.3894 11.2045C11.4426 10.182 11.9776 8.66664 11.9776 6.70026C11.9776 4.72547 11.4398 3.20726 10.3782 2.18485C10.1541 1.96916 9.80112 1.97477 9.58543 2.19886C9.36975 2.42295 9.37535 2.77589 9.59944 2.99157C10.4314 3.79549 10.8543 5.04199 10.8543 6.70026C10.8543 8.35292 10.4342 9.59661 9.60784 10.4005C9.4986 10.5042 9.43698 10.6498 9.43698 10.8011ZM7.7507 9.96356C7.44258 9.96356 7.19048 9.71146 7.19048 9.40334C7.19048 9.25208 7.2521 9.10642 7.36134 9.00278C7.86835 8.50978 8.12605 7.73667 8.12605 6.70306C8.12605 5.66944 7.86835 4.88793 7.35574 4.39774C7.13165 4.18205 7.12605 3.82911 7.34174 3.60502C7.55742 3.38093 7.91036 3.37533 8.13445 3.59101C8.87115 4.3025 9.2465 5.35012 9.2465 6.70306C9.2465 8.0532 8.87395 9.09802 8.14286 9.8095C8.03641 9.90754 7.89636 9.96356 7.7507 9.96356ZM6.12045 13.7619H12.8824L13.1625 13.4818C13.112 13.3529 13.07 13.2185 13.0364 13.084H12.409C12.0224 13.084 11.7087 12.7703 11.7087 12.3837V11.3473C11.7087 10.9608 12.0224 10.647 12.409 10.647H13.0392C13.0728 10.5126 13.1148 10.3781 13.1653 10.2493L12.7451 9.82911C12.4706 9.5546 12.4706 9.11202 12.7451 8.83751L13.4762 8.10642C13.7507 7.83191 14.1933 7.83191 14.4678 8.10642L14.888 8.52659C15.0168 8.47617 15.1513 8.43415 15.2857 8.40054V7.77028C15.2857 7.38373 15.5994 7.07 15.986 7.07H17.0224C17.4062 7.07 17.7199 7.38373 17.7199 7.77028V8.40054C17.8543 8.43415 17.9888 8.47617 18.1176 8.52659L18.5378 8.10642C18.8123 7.83191 19.2549 7.83191 19.5294 8.10642L20.2633 8.83471C20.5378 9.10922 20.5378 9.5518 20.2633 9.82631L19.8431 10.2465C19.8936 10.3781 19.9356 10.5098 19.9692 10.6442H20.5994C20.986 10.6442 21.2997 10.958 21.2997 11.3445V12.3809C21.2997 12.7675 20.986 13.0812 20.5994 13.0812H19.9692C19.9356 13.2157 19.8936 13.3501 19.8431 13.479L20.2633 13.8991C20.3773 14.0131 20.4439 14.156 20.4633 14.3039C21.0609 14.709 21.6975 15.5063 21.6975 17.0504V18.4229C21.6975 19.451 21.4202 20.2577 20.8739 20.8263C20.3025 21.4201 19.4706 21.7171 18.4034 21.7171H5.29132C4.22129 21.7171 3.39216 21.4173 2.82353 20.8291C2.27731 20.2605 2 19.4538 2 18.4257V17.0532C2 16.0252 2.27731 15.2185 2.82353 14.6498C3.33945 14.1136 4.06982 13.8195 5 13.7695V6.70026C5 6.39213 5.2521 6.14003 5.56022 6.14003C5.86835 6.14003 6.12045 6.39213 6.12045 6.70026V13.7619ZM13.479 14.3221C13.479 14.413 13.4571 14.499 13.4182 14.5751L13.972 15.1288L14.7423 14.3585C15.0868 14.5658 15.5042 14.6919 15.986 14.7451V15.9608H17.0224V14.7451C17.507 14.6947 17.9216 14.5658 18.2661 14.3585L19.0364 15.1288L19.4474 14.7179C19.4408 14.6149 19.4623 14.5089 19.5154 14.4117C19.5468 14.3543 19.5869 14.3046 19.6331 14.2633L18.9972 13.6274C19.1989 13.2913 19.3305 12.8767 19.3838 12.3837H20.5994V11.3473H19.3866C19.3361 10.8543 19.2045 10.4398 19 10.1036L19.7703 9.33331L19.0364 8.60222L18.2661 9.37253C17.9216 9.16524 17.5042 9.03919 17.0224 8.98597V7.77028H15.986V8.98597C15.5014 9.03639 15.0868 9.16524 14.7423 9.37253L13.972 8.60222L13.2409 9.33331L14.0112 10.1036C13.8095 10.4398 13.6779 10.8543 13.6246 11.3473H12.409V12.3837H13.6246C13.6751 12.8767 13.8067 13.2913 14.0112 13.6274L13.4602 14.1784C13.4725 14.2243 13.479 14.2725 13.479 14.3221ZM5.29132 14.8823H12.7313L12.7423 14.8935L13.4734 15.6246C13.7479 15.8991 14.1905 15.8991 14.465 15.6246L14.8852 15.2045C15.014 15.2549 15.1485 15.2969 15.2829 15.3305V15.9608C15.2829 16.3473 15.5966 16.661 15.9832 16.661H17.0196C17.4062 16.661 17.7199 16.3473 17.7199 15.9608V15.3277C17.8543 15.2941 17.9888 15.2521 18.1176 15.2017L18.5378 15.6218C18.8123 15.8963 19.2549 15.8963 19.5294 15.6218L19.8831 15.2695C20.3474 15.6133 20.5742 16.2001 20.5742 17.0532V18.4257C20.5742 19.154 20.4034 19.7003 20.0644 20.0504C19.7143 20.4117 19.1569 20.5966 18.4034 20.5966H5.29132C4.53782 20.5966 3.98039 20.4117 3.63025 20.0504C3.29132 19.7003 3.12045 19.154 3.12045 18.4257V17.0532C3.12045 16.3249 3.29132 15.7787 3.63025 15.4285C3.98039 15.0672 4.53782 14.8823 5.29132 14.8823ZM8.0084 18.8179C7.71709 18.8179 7.47619 18.7283 7.30812 18.5602C7.14006 18.3921 7.05882 18.1624 7.05882 17.8739C7.05882 17.2913 7.42297 16.9299 8.0084 16.9299C8.59384 16.9299 8.95798 17.2913 8.95798 17.8739C8.95798 18.1624 8.87395 18.3921 8.70868 18.5602C8.54342 18.7283 8.29692 18.8179 8.0084 18.8179ZM4.56583 18.5602C4.73389 18.7283 4.97479 18.8179 5.26611 18.8179C5.55742 18.8179 5.80112 18.7283 5.96639 18.5602C6.13165 18.3921 6.21569 18.1624 6.21569 17.8739C6.21569 17.2913 5.85154 16.9299 5.26611 16.9299C4.68067 16.9299 4.31653 17.2913 4.31653 17.8739C4.31653 18.1624 4.39776 18.3921 4.56583 18.5602ZM16.5042 13.6694C15.944 13.6694 15.4986 13.5182 15.1877 13.2185C14.8627 12.9075 14.7003 12.451 14.7003 11.8655C14.7003 11.2801 14.8655 10.8263 15.1877 10.5126C15.4986 10.2129 15.9412 10.0616 16.5042 10.0616C17.0672 10.0616 17.507 10.2129 17.8207 10.5126C18.1457 10.8235 18.3081 11.2801 18.3081 11.8655C18.3081 12.451 18.1429 12.9047 17.8207 13.2185C17.507 13.5182 17.0644 13.6694 16.5042 13.6694ZM16.5042 10.7619C15.7395 10.7619 15.4006 11.1008 15.4006 11.8655C15.4006 12.6302 15.7395 12.9692 16.5042 12.9692C17.2689 12.9692 17.6078 12.6302 17.6078 11.8655C17.6078 11.1008 17.2661 10.7619 16.5042 10.7619Z" fill="#313235"/>
</svg>
