<svg xmlns="http://www.w3.org/2000/svg" width="24" height="24" fill="none"><path fill="#0B2739" d="M19.063 6.222h-2.546v-.588a.64.64 0 0 0-.168-.434l-.474-.51c.258-.47.218-1.078-.16-1.482l-.647-.694a1.11 1.11 0 0 0-.81-.359c-.302 0-.593.129-.809.359l-.378.406a1.296 1.296 0 0 0 0 1.736l.647.695c.216.233.507.361.81.361.19 0 .372-.056.537-.15l.303.327v.333H8.634V5.89l.305-.328c.166.095.35.154.541.154.303 0 .594-.129.81-.361l.647-.695a1.29 1.29 0 0 0 0-1.736l-.378-.407a1.11 1.11 0 0 0-.81-.358c-.303 0-.594.129-.81.358l-.647.695c-.375.403-.417 1.008-.16 1.479l-.475.513a.64.64 0 0 0-.168.434v.588H4.942c-.633 0-1.145.552-1.145 1.23v1.087c0 .68.512 1.23 1.145 1.23h.381v.96c0 .68.513 1.23 1.146 1.23h1.154v6.574H6.491c-.633 0-1.145.552-1.145 1.23v.851c0 .678.512 1.23 1.145 1.23h11.023c.633 0 1.145-.552 1.145-1.23v-.851c0-.678-.512-1.23-1.145-1.23h-1.132v-6.574h1.154c.633 0 1.146-.55 1.146-1.23v-.96h.38c.634 0 1.146-.55 1.146-1.23V7.455c-.002-.681-.515-1.233-1.145-1.233m0 2.317h-1.48l-.022-.003-.022-.003H6.472q-.01 0-.02.003l-.025.003H4.945V7.452h14.118zm-3.779 2.187-.024-.003-.02-.002H8.768l-.02.002-.025.003H6.469v-.96h11.067v.96zM8.769 18.53v-6.574h6.47v6.574zM6.49 20.612v-.852h2.202l.026.004q.022.003.047.004h6.47a.3.3 0 0 0 .053-.005l.008-.001.012-.002h2.202v.852zM9.755 3.385l.378.406-.647.695-.378-.407zm4.504 0 .647.694-.378.407-.647-.695z"/></svg>