<svg width="24" height="24" viewBox="0 0 24 24" fill="none" xmlns="http://www.w3.org/2000/svg">
<path fill-rule="evenodd" clip-rule="evenodd" d="M9.43698 10.8011C9.43698 11.1093 9.68908 11.3614 9.9972 11.3614C10.1429 11.3614 10.2829 11.3053 10.3894 11.2045C11.4426 10.1821 11.9776 8.66667 11.9776 6.70029C11.9776 4.7255 11.4398 3.20729 10.3782 2.18488C10.1541 1.96919 9.80112 1.9748 9.58543 2.19889C9.36975 2.42298 9.37535 2.77592 9.59944 2.9916C10.4314 3.79553 10.8543 5.04202 10.8543 6.70029C10.8543 8.35295 10.4342 9.59665 9.60784 10.4006C9.4986 10.5042 9.43698 10.6499 9.43698 10.8011ZM7.7507 9.96359C7.44258 9.96359 7.19048 9.71149 7.19048 9.40337C7.19048 9.25211 7.2521 9.10645 7.36134 9.00281C7.86835 8.50981 8.12605 7.7367 8.12605 6.70309C8.12605 5.66948 7.86835 4.88796 7.35574 4.39777C7.13165 4.18208 7.12605 3.82914 7.34174 3.60505C7.55742 3.38096 7.91036 3.37536 8.13445 3.59104C8.87115 4.30253 9.2465 5.35015 9.2465 6.70309C9.2465 8.05323 8.87395 9.09805 8.14286 9.80953C8.03641 9.90757 7.89636 9.96359 7.7507 9.96359ZM6.12045 13.7619H12.8824L13.1625 13.4818C13.112 13.3529 13.07 13.2185 13.0364 13.084H12.409C12.0224 13.084 11.7087 12.7703 11.7087 12.3838V11.3473C11.7087 10.9608 12.0224 10.6471 12.409 10.6471H13.0392C13.0728 10.5126 13.1148 10.3782 13.1653 10.2493L12.7451 9.82914C12.4706 9.55463 12.4706 9.11205 12.7451 8.83754L13.4762 8.10645C13.7507 7.83194 14.1933 7.83194 14.4678 8.10645L14.888 8.52662C15.0168 8.4762 15.1513 8.43418 15.2857 8.40057V7.77032C15.2857 7.38376 15.5994 7.07003 15.986 7.07003H17.0224C17.4062 7.07003 17.7199 7.38376 17.7199 7.77032V8.40057C17.8543 8.43418 17.9888 8.4762 18.1176 8.52662L18.5378 8.10645C18.8123 7.83194 19.2549 7.83194 19.5294 8.10645L20.2633 8.83474C20.5378 9.10925 20.5378 9.55183 20.2633 9.82634L19.8431 10.2465C19.8936 10.3782 19.9356 10.5098 19.9692 10.6443H20.5994C20.986 10.6443 21.2997 10.958 21.2997 11.3445V12.381C21.2997 12.7675 20.986 13.0812 20.5994 13.0812H19.9692C19.9356 13.2157 19.8936 13.3501 19.8431 13.479L20.2633 13.8992C20.3773 14.0131 20.4439 14.156 20.4633 14.3039C21.0609 14.7091 21.6975 15.5063 21.6975 17.0504V18.423C21.6975 19.451 21.4202 20.2577 20.8739 20.8263C20.3025 21.4202 19.4706 21.7171 18.4034 21.7171H5.29132C4.22129 21.7171 3.39216 21.4174 2.82353 20.8291C2.27731 20.2605 2 19.4538 2 18.4258V17.0532C2 16.0252 2.27731 15.2185 2.82353 14.6499C3.33945 14.1136 4.06982 13.8195 5 13.7696V6.70029C5 6.39216 5.2521 6.14006 5.56022 6.14006C5.86835 6.14006 6.12045 6.39216 6.12045 6.70029V13.7619ZM13.479 14.3221C13.479 14.413 13.4571 14.499 13.4182 14.5751L13.972 15.1289L14.7423 14.3586C15.0868 14.5658 15.5042 14.6919 15.986 14.7451V15.9608H17.0224V14.7451C17.507 14.6947 17.9216 14.5658 18.2661 14.3586L19.0364 15.1289L19.4474 14.7179C19.4408 14.6149 19.4623 14.5089 19.5154 14.4118C19.5468 14.3543 19.5869 14.3046 19.6331 14.2633L18.9972 13.6275C19.1989 13.2913 19.3305 12.8768 19.3838 12.3838H20.5994V11.3473H19.3866C19.3361 10.8543 19.2045 10.4398 19 10.1036L19.7703 9.33334L19.0364 8.60225L18.2661 9.37256C17.9216 9.16527 17.5042 9.03922 17.0224 8.986V7.77032H15.986V8.986C15.5014 9.03642 15.0868 9.16527 14.7423 9.37256L13.972 8.60225L13.2409 9.33334L14.0112 10.1036C13.8095 10.4398 13.6779 10.8543 13.6246 11.3473H12.409V12.3838H13.6246C13.6751 12.8768 13.8067 13.2913 14.0112 13.6275L13.4602 14.1785C13.4725 14.2244 13.479 14.2725 13.479 14.3221ZM5.29132 14.8824H12.7313L12.7423 14.8936L13.4734 15.6247C13.7479 15.8992 14.1905 15.8992 14.465 15.6247L14.8852 15.2045C15.014 15.2549 15.1485 15.2969 15.2829 15.3305V15.9608C15.2829 16.3473 15.5966 16.6611 15.9832 16.6611H17.0196C17.4062 16.6611 17.7199 16.3473 17.7199 15.9608V15.3277C17.8543 15.2941 17.9888 15.2521 18.1176 15.2017L18.5378 15.6219C18.8123 15.8964 19.2549 15.8964 19.5294 15.6219L19.8831 15.2695C20.3474 15.6133 20.5742 16.2002 20.5742 17.0532V18.4258C20.5742 19.1541 20.4034 19.7003 20.0644 20.0504C19.7143 20.4118 19.1569 20.5966 18.4034 20.5966H5.29132C4.53782 20.5966 3.98039 20.4118 3.63025 20.0504C3.29132 19.7003 3.12045 19.1541 3.12045 18.4258V17.0532C3.12045 16.3249 3.29132 15.7787 3.63025 15.4286C3.98039 15.0672 4.53782 14.8824 5.29132 14.8824ZM8.0084 18.8179C7.71709 18.8179 7.47619 18.7283 7.30812 18.5602C7.14006 18.3922 7.05882 18.1625 7.05882 17.874C7.05882 17.2913 7.42297 16.93 8.0084 16.93C8.59384 16.93 8.95798 17.2913 8.95798 17.874C8.95798 18.1625 8.87395 18.3922 8.70868 18.5602C8.54342 18.7283 8.29692 18.8179 8.0084 18.8179ZM4.56583 18.5602C4.73389 18.7283 4.97479 18.8179 5.26611 18.8179C5.55742 18.8179 5.80112 18.7283 5.96639 18.5602C6.13165 18.3922 6.21569 18.1625 6.21569 17.874C6.21569 17.2913 5.85154 16.93 5.26611 16.93C4.68067 16.93 4.31653 17.2913 4.31653 17.874C4.31653 18.1625 4.39776 18.3922 4.56583 18.5602ZM16.5042 13.6695C15.944 13.6695 15.4986 13.5182 15.1877 13.2185C14.8627 12.9076 14.7003 12.451 14.7003 11.8656C14.7003 11.2801 14.8655 10.8263 15.1877 10.5126C15.4986 10.2129 15.9412 10.0616 16.5042 10.0616C17.0672 10.0616 17.507 10.2129 17.8207 10.5126C18.1457 10.8235 18.3081 11.2801 18.3081 11.8656C18.3081 12.451 18.1429 12.9048 17.8207 13.2185C17.507 13.5182 17.0644 13.6695 16.5042 13.6695ZM16.5042 10.7619C15.7395 10.7619 15.4006 11.1008 15.4006 11.8656C15.4006 12.6303 15.7395 12.9692 16.5042 12.9692C17.2689 12.9692 17.6078 12.6303 17.6078 11.8656C17.6078 11.1008 17.2661 10.7619 16.5042 10.7619Z" fill="#313235"/>
</svg>
