<svg width="24" height="24" viewBox="0 0 24 24" fill="none" xmlns="http://www.w3.org/2000/svg">
<path fill-rule="evenodd" clip-rule="evenodd" d="M15.4762 12.7843C16.1373 12.2353 16.9748 11.8908 17.8992 11.8908C20.0057 11.8936 21.7115 13.5995 21.7115 15.7059C21.7087 17.8123 20.0001 19.5182 17.8964 19.5182C16.748 19.5182 15.7283 18.9972 15.0309 18.1933L13.2269 19.0224C13.2437 19.1345 13.2606 19.2465 13.2606 19.3642C13.2606 20.6387 12.2269 21.6695 10.9552 21.6695C9.68072 21.6695 8.64991 20.6359 8.64711 19.3642C8.64991 18.0897 9.68072 17.0588 10.9552 17.0588C11.6275 17.0616 12.2634 17.3558 12.6975 17.8684L14.3586 17.1037C14.1849 16.6695 14.0841 16.2017 14.0841 15.7059C14.0841 14.9888 14.2942 14.3222 14.6415 13.7507L13.0449 12.3474C11.7648 13.2325 10.0645 13.2213 8.79837 12.3166L7.32778 13.7535C7.48184 14.0981 7.57428 14.4818 7.57428 14.8852C7.57428 16.4174 6.33058 17.6611 4.79837 17.6611C3.26616 17.6583 2.02526 16.4174 2.02246 14.8852C2.02526 13.3558 3.26896 12.1149 4.79837 12.1149C5.43703 12.1149 6.05327 12.339 6.54347 12.7451L7.90201 11.4174C7.47624 10.8123 7.22134 10.0785 7.22134 9.28574C7.22414 8.74512 7.34459 8.21011 7.57988 7.71991L5.91322 6.29134C5.58268 6.47621 5.20733 6.59106 4.80117 6.59106C3.53226 6.59106 2.49585 5.55745 2.49585 4.28574C2.51826 3.04484 3.51826 2.04484 4.75916 2.02243C6.03367 1.99722 7.08689 3.01123 7.1121 4.28294C7.1121 4.6863 6.99725 5.05885 6.81518 5.38938L8.30537 6.66669C9.00005 5.96361 9.94963 5.56865 10.9412 5.56865C12.4062 5.57145 13.7339 6.4342 14.3306 7.77313L16.6723 7.08126C16.6723 7.06968 16.6708 7.05885 16.6694 7.04838C16.668 7.03858 16.6667 7.02911 16.6667 7.01963C16.7003 5.70871 17.7536 4.65549 19.0645 4.62187C20.423 4.58826 21.5519 5.66109 21.5883 7.01963C21.5883 8.37537 20.4874 9.47902 19.1289 9.47902C18.2718 9.47621 17.479 9.02804 17.0365 8.29694L14.6359 9.00563C14.6383 9.04499 14.6437 9.08384 14.6492 9.12283C14.6565 9.17541 14.6639 9.22825 14.6639 9.28294C14.6639 10.0616 14.4146 10.818 13.9552 11.4482L15.4762 12.7843ZM3.76756 4.28574C3.77036 4.85717 4.23254 5.32215 4.80397 5.32215C5.3754 5.32215 5.84319 4.85717 5.84319 4.28574C5.84319 3.71431 5.3782 3.24932 4.80677 3.24932C4.23254 3.24932 3.76756 3.71151 3.76756 4.28574ZM8.49305 9.28294C8.49585 7.93 9.59109 6.83756 10.944 6.83476C12.297 6.83476 13.3922 7.93 13.395 9.28294C13.3922 10.6359 12.297 11.7311 10.944 11.7311C9.59109 11.7311 8.49305 10.6359 8.49305 9.28294ZM17.8992 18.2465C16.4958 18.2465 15.3558 17.1065 15.3558 15.7031C15.3558 14.2997 16.4987 13.1597 17.8992 13.1597C19.3026 13.1597 20.4454 14.2997 20.4454 15.7031C20.4454 17.1037 19.3026 18.2465 17.8992 18.2465ZM3.29697 14.8824C3.29697 15.7143 3.96924 16.3894 4.80117 16.3894C5.63311 16.3894 6.30818 15.7171 6.30818 14.8824C6.28297 14.0897 5.64431 13.451 4.85159 13.4258C4.01966 13.3978 3.32498 14.0504 3.29697 14.8824ZM10.9552 20.3978C10.3838 20.3978 9.91882 19.9328 9.91882 19.3614C9.91882 18.7871 10.3838 18.325 10.958 18.325C11.5295 18.325 11.9944 18.7899 11.9944 19.3614C11.9944 19.9328 11.5295 20.3978 10.9552 20.3978ZM19.1289 5.82916C19.7872 5.82916 20.3194 6.36417 20.3194 7.01963C20.3194 7.6779 19.7844 8.21011 19.1289 8.21011C18.4706 8.21011 17.9384 7.6779 17.9384 7.01963C17.9384 6.36137 18.4706 5.82916 19.1289 5.82916Z" fill="#313235"/>
</svg>
