<svg width="24" height="24" fill="none" xmlns="http://www.w3.org/2000/svg"><path d="M2.025 5.783c.003.33.275.594.602.59h1.048l.002.021a.283.283 0 0 0 .006.042c.18.767.656 1.428 1.328 1.84a3.02 3.02 0 0 0 2.266.38 2.967 2.967 0 0 0 1.88-1.299c.193-.3.328-.63.398-.98h11.501a.597.597 0 0 0 .602-.591.599.599 0 0 0-.602-.591H9.552L9.55 5.17a.15.15 0 0 0-.004-.037 2.912 2.912 0 0 0-1.328-1.84 3.022 3.022 0 0 0-2.266-.381 2.996 2.996 0 0 0-1.88 1.3 2.891 2.891 0 0 0-.394.983h-1.05a.595.595 0 0 0-.603.588Zm2.832.392a1.734 1.734 0 0 1 .233-1.333 1.823 1.823 0 0 1 2.487-.552c.403.246.69.644.796 1.104.106.462.022.935-.233 1.333-.26.4-.658.678-1.129.781a1.8 1.8 0 0 1-1.358-.23 1.762 1.762 0 0 1-.796-1.103Zm12.151 7.69c-.994 0-1.803-.796-1.803-1.768 0-.975.809-1.768 1.803-1.768.995 0 1.804.793 1.804 1.768 0 .974-.81 1.767-1.804 1.767Zm4.628-1.768a.595.595 0 0 0-.602-.591v-.003H19.95c-.278-1.342-1.494-2.356-2.944-2.356-1.451 0-2.664 1.014-2.944 2.356H2.602a.597.597 0 0 0-.602.59.598.598 0 0 0 .602.592h11.462c.28 1.342 1.493 2.356 2.944 2.356 1.451 0 2.667-1.014 2.944-2.356h1.082a.595.595 0 0 0 .602-.588Zm-12.33 8.061c-.995 0-1.805-.793-1.805-1.767 0-.975.81-1.768 1.804-1.768.995 0 1.804.793 1.804 1.768s-.81 1.767-1.804 1.767Zm12.327-1.765a.595.595 0 0 0-.602-.59l-8.782.002c-.28-1.341-1.493-2.355-2.944-2.355-1.45 0-2.664 1.014-2.944 2.355H2.602a.595.595 0 0 0-.602.588.599.599 0 0 0 .602.592h3.76c.28 1.341 1.492 2.355 2.943 2.355s2.664-1.014 2.944-2.355h8.782a.597.597 0 0 0 .602-.591Z" fill="#313235"/></svg>