<svg width="24" height="24" viewBox="0 0 24 24" fill="none" xmlns="http://www.w3.org/2000/svg">
<path fill-rule="evenodd" clip-rule="evenodd" d="M2.02521 5.7829C2.02801 6.11343 2.29972 6.37674 2.62745 6.37393H3.67507C3.67594 6.38095 3.67655 6.38768 3.67713 6.39423C3.67842 6.40861 3.67962 6.42209 3.68347 6.43556C3.86274 7.20306 4.33893 7.86413 5.0112 8.27589C5.68627 8.69606 6.50139 8.83331 7.2773 8.65684C8.06161 8.48598 8.72828 8.02379 9.15685 7.35713C9.35012 7.05741 9.48458 6.72688 9.55461 6.37674H21.056C21.3893 6.37674 21.6582 6.11063 21.6582 5.7857C21.6582 5.46077 21.3865 5.19467 21.056 5.19467H9.5518C9.55068 5.1868 9.55046 5.17849 9.55023 5.17008C9.5499 5.15753 9.54956 5.14479 9.5462 5.13304C9.36973 4.36554 8.89915 3.71008 8.21847 3.29271C7.54341 2.87254 6.72828 2.73529 5.95237 2.91176C5.17927 3.07982 4.5014 3.54761 4.07282 4.21147C3.87675 4.5196 3.7479 4.85013 3.67787 5.19467H2.62745C2.29412 5.19467 2.02521 5.45797 2.02521 5.7829ZM4.85714 6.17506C4.75069 5.71847 4.83473 5.23668 5.08963 4.84173C5.34733 4.44117 5.75349 4.16105 6.21848 4.06021C6.68346 3.95657 7.17086 4.03781 7.57702 4.28991C7.98038 4.5364 8.26609 4.93416 8.37254 5.39354C8.47898 5.85573 8.39494 6.32912 8.14004 6.72688C7.87954 7.12743 7.48178 7.40475 7.01119 7.50839C6.54621 7.61483 6.06162 7.5336 5.65265 7.2787C5.24649 7.02659 4.96358 6.63444 4.85714 6.17506ZM17.0084 13.8641C18.0028 13.8641 18.8123 13.0714 18.8123 12.0966C18.8123 11.1218 18.0028 10.3291 17.0084 10.3291C16.014 10.3291 15.2045 11.1218 15.2045 12.0966C15.2045 13.0686 16.014 13.8641 17.0084 13.8641ZM21.6358 12.0966C21.6358 11.7689 21.3669 11.5056 21.0336 11.5056V11.5028H19.9495C19.6722 10.161 18.4565 9.14704 17.0056 9.14704C15.5546 9.14704 14.3417 10.161 14.0616 11.5028H2.60224C2.26891 11.5028 2 11.7689 2 12.0938C2.0028 12.4243 2.27451 12.6876 2.60224 12.6848H14.0644C14.3445 14.0266 15.5574 15.0406 17.0084 15.0406C18.4593 15.0406 19.675 14.0266 19.9523 12.6848H21.0336C21.3669 12.6848 21.6358 12.4215 21.6358 12.0966ZM9.30531 20.1582C10.2997 20.1582 11.1092 19.3655 11.1092 18.3907C11.1092 17.4159 10.2997 16.6232 9.30531 16.6232C8.31091 16.6232 7.50139 17.4159 7.50139 18.3907C7.50139 19.3655 8.31091 20.1582 9.30531 20.1582ZM21.633 18.3935C21.633 18.0658 21.3641 17.8025 21.0308 17.8025L12.2493 17.8053C11.9692 16.4635 10.7563 15.4495 9.30531 15.4495C7.85433 15.4495 6.64145 16.4635 6.36134 17.8053H2.60224C2.26891 17.8053 2 18.0686 2 18.3935C2.0028 18.724 2.27451 18.9874 2.60224 18.9846H6.36134C6.64145 20.3263 7.85433 21.3403 9.30531 21.3403C10.7563 21.3403 11.9692 20.3263 12.2493 18.9846H21.0308C21.3641 18.9846 21.633 18.7184 21.633 18.3935Z" fill="#313235"/>
</svg>
