<svg width="24" height="24" fill="none" xmlns="http://www.w3.org/2000/svg"><path d="M8.727 9.467c0 1.569.902 2.47 2.47 2.47 1.576 0 2.477-.901 2.477-2.47 0-1.575-.901-2.476-2.476-2.476-1.57 0-2.471.9-2.471 2.476Zm1.113 0c0-.956.409-1.364 1.358-1.364.956 0 1.364.408 1.364 1.364 0 .952-.408 1.358-1.364 1.358-.952 0-1.358-.408-1.358-1.358Zm-1.726 7.022h6.185a.522.522 0 0 0 .52-.517v-.904c0-1.55-.95-2.551-2.417-2.551h-2.388c-1.47 0-2.417 1-2.417 2.55v.905c0 .285.232.517.517.517Zm5.669-1.034H8.627v-.387c0-.57.18-1.52 1.384-1.52h2.388c1.204 0 1.384.95 1.384 1.52v.387Z" fill="#313235"/><path d="M16.479 22H7.617a2.97 2.97 0 0 1-2.967-2.967V4.696c0-.719.28-1.395.788-1.906A2.667 2.667 0 0 1 7.343 2h9.136a2.792 2.792 0 0 1 2.788 2.788v14.428A2.79 2.79 0 0 1 16.479 22ZM7.343 3.164c-.407 0-.793.16-1.081.448a1.523 1.523 0 0 0-.448 1.084v14.337c0 .995.81 1.806 1.806 1.806h8.87V3.164H7.342Zm10.762 16.052v-3.661h-.45v4.782c.278-.291.45-.686.45-1.12Zm0-4.825V9.61h-.45v4.78h.45Zm0-9.603c0-.435-.172-.83-.45-1.122v4.782h.45v-3.66Z" fill="#313235"/></svg>