<svg width="24" height="24" viewBox="0 0 24 24" fill="none" xmlns="http://www.w3.org/2000/svg">
<path fill-rule="evenodd" clip-rule="evenodd" d="M7.3429 3.164C6.9359 3.164 6.5499 3.324 6.2619 3.612C5.9739 3.9 5.8139 4.285 5.8139 4.696V19.033C5.8139 20.028 6.6239 20.839 7.6199 20.839H16.4819L16.4904 20.839V3.16402L16.4819 3.164H7.3429ZM18.1049 19.216C18.1049 19.6505 17.9333 20.0456 17.6544 20.3372V15.5546H18.1049V19.216ZM18.1049 14.3906V9.6117H17.6544V14.3906H18.1049ZM18.1049 4.788V8.4477H17.6544V3.66595C17.9333 3.95767 18.1049 4.35304 18.1049 4.788ZM16.4789 22H7.6169C5.9799 22 4.6499 20.668 4.6499 19.033V4.696C4.6499 3.977 4.9299 3.301 5.4379 2.79C5.9459 2.28 6.6209 2 7.3429 2H16.4789C18.0139 2 19.2669 3.249 19.2669 4.788V19.216C19.2669 20.75 18.0169 22 16.4789 22ZM9.8397 9.4666C9.8397 8.5106 10.2487 8.1026 11.1977 8.1026C12.1537 8.1026 12.5617 8.5106 12.5617 9.4666C12.5617 10.4186 12.1537 10.8246 11.1977 10.8246C10.2457 10.8246 9.8397 10.4166 9.8397 9.4666ZM8.7267 9.4666C8.7267 11.0356 9.6287 11.9376 11.1977 11.9376C12.7727 11.9376 13.6737 11.0356 13.6737 9.4666C13.6737 7.8916 12.7727 6.9906 11.1977 6.9906C9.6287 6.9906 8.7267 7.8916 8.7267 9.4666ZM13.7827 15.4546H8.6297H8.6267V15.0676C8.6267 14.4986 8.8067 13.5486 10.0107 13.5486H12.3987C13.6027 13.5486 13.7827 14.4986 13.7827 15.0676V15.4546ZM8.1137 16.4886H14.2987C14.5837 16.4886 14.8157 16.2566 14.8187 15.9716V15.0676C14.8187 13.5176 13.8687 12.5166 12.4017 12.5166H10.0137C8.5437 12.5166 7.5967 13.5176 7.5967 15.0676V15.9716C7.5967 16.2566 7.8287 16.4886 8.1137 16.4886Z" fill="#313235"/>
</svg>
