<svg width="24" height="24" viewBox="0 0 24 24" fill="none" xmlns="http://www.w3.org/2000/svg">
<path fill-rule="evenodd" clip-rule="evenodd" d="M16.0812 7.60224H20.2269C21.0308 7.60224 21.6863 8.2577 21.6835 9.06162V20.2269C21.6835 21.0308 21.0308 21.6863 20.2241 21.6863H9.06162C8.2577 21.6863 7.60224 21.0308 7.60224 20.2269V16.084H3.5098C2.67787 16.084 2 15.4062 2 14.5742V3.5098C2 2.67507 2.67507 2 3.507 2H14.5714C15.4034 2 16.0812 2.67507 16.0812 3.5098V7.60224ZM3.27451 14.5742V3.5098C3.27451 3.38095 3.38095 3.27451 3.5098 3.27451H14.5714C14.7003 3.27451 14.8067 3.38095 14.8067 3.5098V14.5742C14.8067 14.7031 14.7003 14.8095 14.5714 14.8095H3.507C3.37815 14.8067 3.27451 14.7031 3.27451 14.5742ZM20.4118 20.2269C20.4118 20.3305 20.3277 20.4118 20.2269 20.4118H9.06443C8.96078 20.4118 8.87955 20.3277 8.87955 20.2269V16.0812H14.5742C15.4062 16.0812 16.084 15.4034 16.084 14.5714V8.87675H20.2269C20.3305 8.87675 20.4118 8.95798 20.4118 9.06162V20.2269Z" fill="#313235"/>
</svg>
