<svg width="24" height="24" fill="none" xmlns="http://www.w3.org/2000/svg"><path d="M16.081 7.602h4.146c.804 0 1.46.656 1.456 1.46v11.165a1.46 1.46 0 0 1-1.459 1.46H9.062c-.804 0-1.46-.656-1.46-1.46v-4.143H3.51c-.832 0-1.51-.678-1.51-1.51V3.51C2 2.675 2.675 2 3.507 2h11.064c.832 0 1.51.675 1.51 1.51v4.092ZM3.275 14.574c0 .13.103.233.232.236h11.064a.237.237 0 0 0 .236-.236V3.51a.237.237 0 0 0-.236-.235H3.51a.237.237 0 0 0-.235.235v11.064Zm17.137 5.653V9.062a.183.183 0 0 0-.185-.185h-4.143v5.694c0 .832-.678 1.51-1.51 1.51H8.88v4.146c0 .1.08.185.184.185h11.163c.1 0 .185-.081.185-.185Z" fill="#313235"/></svg>