<svg width="24" height="24" viewBox="0 0 24 24" fill="none" xmlns="http://www.w3.org/2000/svg">
<path fill-rule="evenodd" clip-rule="evenodd" d="M21.6863 8.55463V11.5462C21.6863 11.5636 21.6818 11.5793 21.6774 11.5946L21.6774 11.5947C21.674 11.6065 21.6707 11.6181 21.6695 11.6303V17.902C21.6695 18.6779 21.0308 19.3081 20.2409 19.3081H3.43978C2.65266 19.3081 2.0112 18.6779 2.0112 17.902V11.5938C2.0102 11.5888 2.00847 11.5834 2.00667 11.5778C2.00345 11.5678 2 11.557 2 11.5462V8.55463C2 8.54455 2.00303 8.53446 2.00605 8.52438L2.00605 8.52438C2.00807 8.51765 2.01008 8.51093 2.0112 8.50421V6.76751C2.0112 5.9916 2.64986 5.35855 3.43978 5.35855H20.2409C21.028 5.35855 21.6695 5.9888 21.6695 6.76471V8.4706C21.6707 8.48276 21.674 8.4944 21.6774 8.5062L21.6774 8.50623C21.6818 8.52159 21.6863 8.53721 21.6863 8.55463ZM3.43978 6.54623C3.31653 6.54623 3.21569 6.64427 3.21569 6.76751V7.96079H20.465V6.76751C20.465 6.64427 20.3669 6.54623 20.2437 6.54623H3.43978ZM20.2409 18.1205C20.3613 18.1205 20.4622 18.0224 20.4622 17.902V12.1401H3.21569V17.902C3.21569 18.0252 3.31653 18.1233 3.43978 18.1205H20.2409ZM20.465 10.9524H3.21569V9.14847H20.465V10.9524ZM18.479 15.2045C18.479 16.1541 17.8683 16.3642 17.3557 16.3726H17.2185C17.1036 16.3726 16.7703 16.3445 16.5014 16.1541C16.6078 15.8852 16.6751 15.5742 16.6751 15.2045C16.6751 14.8291 16.605 14.5126 16.493 14.2409C16.7563 14.0532 17.084 14.028 17.2045 14.028H17.3445C17.8627 14.0392 18.479 14.2549 18.479 15.2045ZM14.507 16.3726C15.0196 16.3642 15.6303 16.1541 15.6303 15.2045C15.6303 14.2549 15.014 14.0392 14.4958 14.028H14.3501C13.8459 14.0308 13.2465 14.2353 13.2465 15.1961C13.2465 16.1569 13.8571 16.367 14.3669 16.3754C14.3641 16.3726 14.507 16.3726 14.507 16.3726ZM19.5238 15.2073C19.5238 13.6163 18.3641 13.0252 17.3753 13.0028C17.3193 13 17.2521 12.9972 17.1905 13.0028C16.9748 13.0028 16.3613 13.0476 15.8403 13.4314C15.4538 13.1597 14.9944 13.0112 14.521 13.0028C14.4594 13 14.3978 13 14.3361 13C13.3501 13.0084 12.1961 13.5882 12.1961 15.1961C12.1961 16.8039 13.3557 17.3894 14.3473 17.4034H14.521C15 17.4006 15.465 17.2493 15.8543 16.9748C16.3529 17.3417 16.9328 17.4006 17.1989 17.4034H17.3725C18.3641 17.3866 19.5238 16.8011 19.5238 15.2073Z" fill="#313235"/>
</svg>
