<svg width="24" height="24" viewBox="0 0 24 24" fill="none" xmlns="http://www.w3.org/2000/svg">
<path fill-rule="evenodd" clip-rule="evenodd" d="M21.7143 13.0951V9.32764C21.7143 9.31023 21.7098 9.2946 21.7054 9.27925C21.7021 9.26744 21.6987 9.25579 21.6975 9.24361V6.79263C21.6975 5.98591 21.0308 5.33325 20.2129 5.33325H3.52387C2.70314 5.33325 2.03647 5.98591 2.03647 6.79263V9.28003C2.03532 9.28694 2.03322 9.29338 2.03114 9.29974C2.02818 9.30883 2.02527 9.31775 2.02527 9.32764V13.0951C2.02527 13.105 2.02818 13.114 2.03114 13.123L2.03114 13.123C2.03322 13.1294 2.03532 13.1358 2.03647 13.1428V17.8206C2.03647 18.6245 2.70314 19.28 3.52387 19.28H20.2129C21.0308 19.28 21.6975 18.6245 21.6975 17.8206V13.1792C21.6988 13.1652 21.7024 13.153 21.7059 13.1409C21.7101 13.1263 21.7143 13.112 21.7143 13.0951ZM20.4454 17.8178C20.4426 17.9439 20.339 18.0447 20.2129 18.0447C20.2129 18.0447 3.52387 18.0447 3.52387 18.0475C3.39782 18.0503 3.29137 17.9467 3.29137 17.8206V13.7114H20.4454V17.8178ZM3.52387 6.56574C3.39782 6.56294 3.29137 6.66658 3.29137 6.79263V8.7114H20.4426V6.79263C20.4426 6.66658 20.339 6.56574 20.2101 6.56574H3.52387ZM20.4426 12.4789H3.29137V9.94389H20.4426V12.4789Z" fill="#313235"/>
</svg>
