<svg width="24" height="24" viewBox="0 0 24 24" fill="none" xmlns="http://www.w3.org/2000/svg">
<path fill-rule="evenodd" clip-rule="evenodd" d="M12.3305 2C13.9607 2 15.5125 2.19608 16.6974 2.55462C18.4285 3.07843 19.3052 3.92156 19.3024 5.06161V18.6302C19.3024 19.7646 18.4229 20.6078 16.6946 21.1316C15.5013 21.4901 13.9523 21.6862 12.3277 21.6862C10.7058 21.6862 9.15682 21.4901 7.96635 21.1316C6.23527 20.605 5.35852 19.7646 5.35852 18.6274V5.05881C5.35852 4.87394 5.38373 4.69467 5.43415 4.521C5.68345 3.64985 6.53499 2.98879 7.96635 2.55462C9.15122 2.19888 10.703 2 12.3305 2ZM8.3277 3.7591C9.40052 3.43417 10.8207 3.2549 12.3305 3.2549C13.8431 3.2549 15.2632 3.43417 16.3361 3.7563C17.0055 3.95797 17.7786 4.29411 17.9943 4.7899C17.8207 5.17646 17.2436 5.5378 16.3445 5.80951C15.2744 6.13164 13.8543 6.31091 12.3417 6.31091C10.8291 6.31091 9.40892 6.13164 8.3389 5.80951C7.43134 5.535 6.85431 5.16805 6.68625 4.7787C6.86552 4.39215 7.42854 4.0308 8.3277 3.7591ZM18.0559 9.47616C17.8599 9.79549 17.3193 10.2325 16.3473 10.5294C15.2772 10.8543 13.8543 11.0308 12.3445 11.0308C10.8347 11.0308 9.41173 10.8543 8.3417 10.5294C7.3221 10.2185 6.78989 9.80389 6.61062 9.49577V6.42575C6.98596 6.65544 7.43974 6.85152 7.98316 7.01398C9.16523 7.37253 10.7142 7.5686 12.3445 7.5686C13.9747 7.5686 15.5237 7.36973 16.7058 7.01398C17.2408 6.85152 17.689 6.66104 18.0587 6.43976V9.47616H18.0559ZM18.0559 14.2044C17.8683 14.5238 17.3333 14.9691 16.3473 15.2689C15.2772 15.5938 13.8543 15.7703 12.3445 15.7703C10.8347 15.7703 9.41173 15.591 8.3417 15.2661C7.3193 14.9579 6.78709 14.5434 6.61062 14.2324V11.1372C6.99717 11.3669 7.45655 11.5686 7.98316 11.7283C9.16803 12.0868 10.717 12.2829 12.3473 12.2829C13.9775 12.2829 15.5265 12.0868 16.7086 11.7283C17.2212 11.5742 17.6722 11.3697 18.0587 11.1344V14.2044H18.0559ZM16.3389 19.9271C17.1204 19.689 18.0559 19.2716 18.0559 18.6274V15.8795C17.6694 16.1148 17.2156 16.3193 16.7058 16.4733C15.5237 16.8319 13.9747 17.0279 12.3445 17.0279C10.7142 17.0279 9.16523 16.8291 7.98036 16.4705C7.45375 16.3137 6.99437 16.112 6.60781 15.8823V18.6302C6.60781 19.2744 7.54339 19.6918 8.3277 19.9299C9.40332 20.252 10.8263 20.4313 12.3305 20.4313C13.8375 20.4313 15.2604 20.252 16.3389 19.9271Z" fill="#313235"/>
</svg>
