<svg xmlns="http://www.w3.org/2000/svg" width="24" height="24" fill="none"><path fill="#0B2739" d="M15.178 2.155c1.557 0 3.039.188 4.17.527 1.656.498 2.496 1.297 2.49 2.383v12.843c0 1.079-.837 1.877-2.492 2.376-1.14.339-2.62.526-4.171.526-1.434 0-2.796-.168-3.897-.459a21.112 21.112 0 0 1-2.526 1.437.597.597 0 0 1-.515-.003c-.541-.255-5.298-2.563-5.751-5.151-.336-1.902-.331-6.217-.33-6.606v-.021a.604.604 0 0 1 .75-.583c1.064.169 1.64-.213 2.368-.696l.024-.016H5.3c.78-.516 1.663-1.098 3.191-1.098h.02V5.06c0-.177.025-.35.073-.513.238-.826 1.053-1.454 2.423-1.865 1.134-.34 2.613-.527 4.17-.527Zm0 1.202c-1.44 0-2.799.17-3.821.476-.855.258-1.39.597-1.56.958.162.367.708.711 1.571.97 1.022.307 2.378.475 3.82.475 1.443 0 2.799-.168 3.821-.473.852-.258 1.4-.597 1.569-.958-.207-.465-.941-.782-1.577-.972-1.022-.308-2.381-.476-3.824-.476ZM9.72 6.362l.003.002V7.76c.829.205 1.425.591 1.969.95.74.49 1.325.874 2.423.703a.651.651 0 0 1 .496.134.605.605 0 0 1 .224.454c0 .042 0 .303-.003.692 1.532.033 3.073-.135 4.18-.468.94-.283 1.445-.7 1.624-1.003V6.376a5.79 5.79 0 0 1-1.28.535c-1.132.34-2.614.527-4.168.527-1.558 0-3.037-.188-4.168-.527a5.637 5.637 0 0 1-1.297-.547v-.002H9.72ZM5.966 9.716c-.677.448-1.43.946-2.587.946v-.003h-.011c.006.75.025 2.028.084 3.26h4.395V8.873c-.784.129-1.322.476-1.88.843Zm-2.29 6.708c.241 1.37 2.6 2.938 4.171 3.804v-5.104H3.525c.04.499.09.947.151 1.3Zm15.325 2.7c.745-.224 1.636-.616 1.633-1.221v-2.591a5.406 5.406 0 0 1-1.277.557c-1.132.34-2.614.527-4.168.527-.216 0-.429-.009-.642-.017a4.824 4.824 0 0 1-.04.252c-.173.997-.985 1.947-1.946 2.76.799.13 1.687.21 2.617.21 1.436 0 2.795-.171 3.823-.477Zm-4.185-7.227c-.02.998-.059 2.224-.143 3.28l.127.005c.129.005.258.01.389.01 1.442 0 2.798-.171 3.82-.477.939-.283 1.446-.703 1.625-1.003v-2.89a5.527 5.527 0 0 1-1.277.557c-1.132.339-2.614.527-4.168.527a8.247 8.247 0 0 1-.373-.009Zm-3.793-2.182c-.58-.38-1.134-.742-1.969-.857h-.003v5.062h4.488c.059-1.236.078-2.524.084-3.27h-.003c-1.18 0-1.927-.492-2.597-.935ZM9.054 20.278c1.572-.857 4.023-2.456 4.266-3.854.062-.353.11-.801.149-1.3H9.054v5.154Z"/></svg>