<svg width="24" height="24" fill="none" xmlns="http://www.w3.org/2000/svg"><path d="M12.33 2c1.63 0 3.182.196 4.367.555 1.731.523 2.608 1.367 2.605 2.507V18.63c0 1.135-.88 1.978-2.607 2.502-1.194.358-2.743.554-4.367.554-1.622 0-3.171-.196-4.362-.554-1.73-.527-2.608-1.367-2.608-2.505V5.06c0-.185.026-.364.076-.538.25-.871 1.1-1.532 2.532-1.966C9.151 2.199 10.703 2 12.33 2ZM8.328 3.76c-.9.27-1.463.632-1.642 1.019.168.39.745.756 1.653 1.03 1.07.323 2.49.502 4.003.502 1.512 0 2.932-.18 4.002-.501.9-.272 1.476-.634 1.65-1.02-.215-.496-.989-.832-1.658-1.034-1.073-.322-2.493-.501-4.006-.501-1.51 0-2.93.18-4.002.504Zm9.728 5.716h.003V6.44a6.06 6.06 0 0 1-1.353.574c-1.182.356-2.731.555-4.362.555-1.63 0-3.179-.196-4.361-.555a5.807 5.807 0 0 1-1.373-.588v3.07c.18.308.712.723 1.732 1.033 1.07.325 2.493.502 4.002.502 1.51 0 2.933-.177 4.003-.502.972-.296 1.513-.734 1.709-1.053Zm0 4.728h.003v-3.07a5.81 5.81 0 0 1-1.35.594c-1.183.359-2.732.555-4.362.555s-3.18-.196-4.364-.555a6.226 6.226 0 0 1-1.373-.59v3.094c.177.311.71.726 1.732 1.034 1.07.325 2.493.504 4.002.504 1.51 0 2.933-.176 4.003-.501.986-.3 1.521-.745 1.709-1.065Zm-1.717 5.723c.781-.238 1.717-.655 1.717-1.3V15.88c-.387.235-.84.44-1.35.593-1.182.359-2.731.555-4.362.555-1.63 0-3.179-.199-4.364-.557a6.092 6.092 0 0 1-1.372-.589v2.748c0 .644.935 1.062 1.72 1.3 1.075.322 2.498.501 4.002.501 1.507 0 2.93-.179 4.009-.504Z" fill="#313235"/></svg>