<svg width="24" height="24" viewBox="0 0 24 24" fill="none" xmlns="http://www.w3.org/2000/svg">
<path fill-rule="evenodd" clip-rule="evenodd" d="M21.7143 4.92997C21.7143 3.85154 20.874 3.05322 19.2185 2.55462C18.0868 2.21569 16.6051 2.02801 15.0392 2.01401C13.4818 2.01401 12 2.20168 10.8684 2.54062C9.49862 2.95238 8.68349 3.57983 8.44539 4.40616C8.39777 4.57143 8.37256 4.7423 8.37256 4.91877V7.47619H8.36136C6.83304 7.47619 5.95086 8.05799 5.16976 8.57312L5.16808 8.57423L5.16111 8.57888C4.42494 9.06967 3.84538 9.45605 2.77593 9.28572C2.59665 9.2409 2.40338 9.28011 2.25772 9.39496C2.11206 9.50981 2.02523 9.68348 2.02523 9.86835C2.02523 9.87305 2.02522 9.88037 2.02521 9.8902C2.02475 10.2788 2.01972 14.5943 2.35576 16.4958C2.80954 19.0868 7.56864 21.395 8.10926 21.6499C8.19049 21.6891 8.28013 21.7087 8.36696 21.7087C8.4538 21.7087 8.54343 21.6919 8.62467 21.6527C8.86836 21.5378 9.972 21.0028 11.1513 20.2157C12.2493 20.5098 13.6107 20.6751 15.0448 20.6751C16.5995 20.6751 18.0812 20.4874 19.2185 20.1485C20.874 19.6527 21.7143 18.8515 21.7143 17.7731V4.92997ZM9.66388 4.66387C9.83475 4.29972 10.3698 3.96359 11.2241 3.70588C12.2437 3.40056 13.6023 3.2325 15.0448 3.22969C16.4902 3.22969 17.8488 3.39776 18.8684 3.70308C19.5042 3.89636 20.2409 4.21289 20.4454 4.67507C20.2773 5.03922 19.7283 5.37815 18.8768 5.63306C17.8544 5.93838 16.4986 6.10644 15.056 6.10644C13.6163 6.10644 12.2577 5.93838 11.2353 5.63306C10.3698 5.37535 9.82635 5.03081 9.66388 4.66387ZM9.58825 6.2409V7.63305C10.4202 7.83754 11.0224 8.22689 11.5658 8.58544C12.3053 9.07563 12.8908 9.46219 13.9916 9.28852C14.1681 9.26331 14.3558 9.30813 14.4874 9.42297C14.6219 9.53782 14.7087 9.70028 14.7115 9.87675C14.7115 9.91877 14.7115 10.1793 14.7087 10.5658C14.7482 10.5668 14.7874 10.568 14.8265 10.5693L14.8267 10.5693L14.8269 10.5693L14.8269 10.5693C14.9041 10.5718 14.9808 10.5742 15.0588 10.5742C16.5014 10.5742 17.8572 10.4062 18.8796 10.098C19.8207 9.81513 20.3249 9.39776 20.507 9.09524V6.2493C20.1569 6.45378 19.7311 6.63306 19.2269 6.78432C18.0953 7.12325 16.6135 7.31093 15.0588 7.31093C13.5014 7.31093 12.0224 7.12605 10.888 6.78712C10.3726 6.63306 9.93839 6.45098 9.58825 6.2409ZM13.1933 16.2969C12.916 17.874 9.82915 19.7143 8.36696 20.4426C6.90758 19.7143 3.82354 17.874 3.54623 16.2941C3.29693 14.874 3.24651 11.8599 3.23811 10.5322C4.37817 10.5266 5.15968 10.0364 5.84035 9.58544L5.84939 9.57951C6.54633 9.1223 7.20671 8.68908 8.36696 8.68908H8.36976C9.53783 8.69188 10.1961 9.12605 10.8964 9.58824L10.9027 9.59243C11.5734 10.0339 12.3175 10.5238 13.4958 10.5238H13.4986C13.4902 11.8487 13.4398 14.8712 13.1933 16.2969ZM10.5854 12.1989C10.8207 11.9636 11.2045 11.9636 11.4398 12.1989C11.6751 12.4342 11.6751 12.8151 11.4398 13.0504L7.79273 16.6835C7.68069 16.7955 7.52663 16.8599 7.36696 16.8599C7.2073 16.8599 7.05324 16.7955 6.94119 16.6835L5.30254 15.0504C5.06724 14.8151 5.06724 14.4342 5.30254 14.1989C5.54063 13.9636 5.92158 13.9636 6.15688 14.1989L7.36696 15.4062L10.5854 12.1989ZM18.8712 18.9972C19.6163 18.7731 20.5042 18.3782 20.5042 17.7731V15.1821C20.1373 15.4034 19.7087 15.5938 19.2241 15.7395C18.0953 16.0784 16.6135 16.2661 15.056 16.2661C14.8839 16.2661 14.717 16.259 14.5499 16.2518L14.5498 16.2518L14.423 16.2465C14.4169 16.2843 14.4113 16.3222 14.4058 16.3596L14.4058 16.3597L14.4058 16.3597C14.3987 16.408 14.3917 16.4556 14.3838 16.5014V16.5042C14.2101 17.5014 13.3978 18.451 12.4342 19.2633C13.2297 19.3978 14.1149 19.4734 15.0448 19.4734C16.4846 19.4734 17.8432 19.3053 18.8712 18.9972ZM14.6919 11.7703C14.6723 12.7675 14.6331 13.9916 14.5518 15.0476C14.5933 15.049 14.6348 15.0506 14.6763 15.0521L14.6767 15.0521L14.6768 15.0521C14.8033 15.0569 14.9303 15.0616 15.0588 15.0616C16.5042 15.0616 17.86 14.8936 18.8796 14.5882C19.8179 14.3053 20.3249 13.888 20.507 13.5854V10.6947C20.1401 10.916 19.7115 11.1064 19.2269 11.2521C18.0953 11.591 16.6135 11.7787 15.0588 11.7787C14.9951 11.7787 14.9328 11.7766 14.8712 11.7744C14.811 11.7724 14.7514 11.7703 14.6919 11.7703Z" fill="#313235"/>
</svg>
