<svg width="24" height="24" viewBox="0 0 24 24" fill="none" xmlns="http://www.w3.org/2000/svg">
<path fill-rule="evenodd" clip-rule="evenodd" d="M15.0476 2C16.605 2 18.0868 2.18767 19.2184 2.52661C20.8739 3.02521 21.7142 3.82352 21.7086 4.91035V17.7534C21.7086 18.8319 20.8711 19.6302 19.2156 20.1288C18.0756 20.4677 16.5966 20.6554 15.0448 20.6554C13.6106 20.6554 12.2493 20.4873 11.1484 20.196C9.96917 20.9831 8.86553 21.5181 8.62184 21.633C8.5406 21.6694 8.45377 21.689 8.36413 21.689C8.2773 21.689 8.18766 21.6694 8.10643 21.6302C7.56582 21.3753 2.80954 19.0672 2.35576 16.4789C2.01972 14.5775 2.02475 10.2619 2.02521 9.87336C2.02522 9.86353 2.02523 9.85621 2.02523 9.85151C2.02523 9.66663 2.11206 9.49297 2.25772 9.37812C2.40618 9.26327 2.59665 9.22406 2.77592 9.26888C3.84002 9.43791 4.41615 9.05593 5.14436 8.57312L5.16807 8.5574L5.16975 8.55629C5.95084 8.04116 6.83302 7.45936 8.36133 7.45936H8.38094V4.90475C8.38094 4.72828 8.40615 4.55461 8.45377 4.39215C8.69186 3.56582 9.50699 2.93837 10.8767 2.52661C12.0112 2.18767 13.4902 2 15.0476 2ZM15.0476 3.20168C13.6078 3.20168 12.2493 3.37254 11.2269 3.67786C10.3725 3.93557 9.83752 4.2745 9.66665 4.63584C9.82911 5.00279 10.3753 5.34732 11.2381 5.60503C12.2605 5.91315 13.6162 6.08122 15.0588 6.08122C16.5014 6.08122 17.8571 5.91315 18.8795 5.60783C19.731 5.35013 20.2801 5.01119 20.4481 4.64985C20.2408 4.18486 19.5069 3.86834 18.8711 3.67786C17.8487 3.36974 16.4902 3.20168 15.0476 3.20168ZM9.59102 6.20727L9.59382 6.20894V7.60502C10.4229 7.8095 11.0196 8.19605 11.563 8.55459C12.3025 9.04479 12.8879 9.42854 13.986 9.25767C14.1624 9.23526 14.3473 9.28008 14.4818 9.39213C14.6162 9.50697 14.7058 9.66944 14.7058 9.84591C14.7058 9.88792 14.7058 10.1484 14.703 10.5378C16.2352 10.5714 17.7759 10.4033 18.8823 10.07C19.8235 9.78708 20.3277 9.36972 20.5069 9.0672V6.22127C20.1596 6.42575 19.7338 6.60502 19.2268 6.75628C18.0952 7.09522 16.6134 7.28289 15.0588 7.28289C13.5014 7.28289 12.0224 7.09522 10.8907 6.75628C10.3795 6.60542 9.94902 6.42112 9.59382 6.20894V6.20727H9.59102ZM5.83643 9.56092C5.15884 10.0089 4.40554 10.507 3.24931 10.507V10.5042H3.23811C3.24371 11.2549 3.26332 12.5322 3.32214 13.7647H7.71708V8.71706C6.93277 8.84591 6.39496 9.19325 5.83753 9.56019L5.83643 9.56092ZM3.54623 16.2688C3.4846 15.9159 3.43418 15.4677 3.39497 14.9691H7.71708V20.0728C6.14566 19.2072 3.78712 17.6386 3.54623 16.2688ZM18.8711 18.9691C17.8431 19.2744 16.4845 19.4453 15.0476 19.4453C14.1176 19.4453 13.2297 19.3669 12.4313 19.2352C13.3921 18.4229 14.2044 17.4733 14.3781 16.4761C14.3864 16.4298 14.3937 16.3805 14.4012 16.33C14.4063 16.2951 14.4116 16.2596 14.4173 16.224L14.4174 16.224C14.6303 16.2324 14.8431 16.2408 15.0588 16.2408C16.6134 16.2408 18.0952 16.0532 19.2268 15.7142C19.7114 15.5686 20.14 15.3809 20.5041 15.1568V17.7478C20.5069 18.3529 19.6162 18.745 18.8711 18.9691ZM14.6862 11.7423C14.7269 11.7432 14.7676 11.7444 14.8084 11.7456C14.8911 11.7481 14.9743 11.7507 15.0588 11.7507C16.6134 11.7507 18.0952 11.563 19.2268 11.2241C19.7114 11.0784 20.14 10.8879 20.5041 10.6666V13.5574C20.3249 13.8571 19.8179 14.2773 18.8795 14.5602C17.8571 14.8655 16.5014 15.0364 15.0588 15.0364C14.9282 15.0364 14.7991 15.0316 14.6705 15.0269L14.6704 15.0269L14.67 15.0268C14.6277 15.0253 14.5856 15.0237 14.5434 15.0224C14.6274 13.9663 14.6666 12.7395 14.6862 11.7423ZM10.8935 9.56019C10.3137 9.17924 9.75909 8.8179 8.92436 8.70305H8.92156V13.7647H13.4089C13.4678 12.5294 13.4874 11.2409 13.493 10.4958H13.4902C12.3109 10.4958 11.563 10.0028 10.8935 9.56019ZM8.92436 20.1232V14.9691H13.3389C13.2997 15.4677 13.2521 15.9159 13.1904 16.2688C12.9467 17.6666 10.4958 19.266 8.92436 20.1232Z" fill="#313235"/>
</svg>
