<svg width="24" height="24" viewBox="0 0 24 24" fill="none" xmlns="http://www.w3.org/2000/svg">
<path fill-rule="evenodd" clip-rule="evenodd" d="M21.7141 5.03918C21.7141 3.91313 20.8178 3.0756 19.0559 2.55459C17.843 2.19605 16.2548 1.99998 14.5881 2.00278C12.9187 2.00278 11.3304 2.19885 10.1175 2.5574C8.65537 2.98877 7.78703 3.64703 7.53493 4.50977C7.48451 4.67783 7.4593 4.85711 7.4593 5.03918V8.77025C7.4593 8.78893 7.46428 8.8076 7.46926 8.82628C7.47175 8.83561 7.47424 8.84495 7.4761 8.85429V9.47053C7.24361 9.52655 7.01952 9.59378 6.80944 9.67501L6.18479 9.05877C5.68339 8.56857 4.86827 8.56857 4.36967 9.05877L3.63298 9.78426C3.38929 10.0195 3.25483 10.3361 3.25483 10.675C3.25483 11.0139 3.38929 11.3305 3.63018 11.5686L4.24923 12.1764C4.16239 12.4033 4.09517 12.6358 4.04475 12.8375H3.29965C2.59657 12.8375 2.02515 13.4005 2.02515 14.0896V15.084C2.02515 15.773 2.59657 16.336 3.29965 16.336H4.04475C4.09517 16.5349 4.16239 16.7702 4.24923 16.9943L3.63298 17.6021C3.38929 17.8402 3.25483 18.1568 3.25483 18.4957C3.25483 18.8318 3.38929 19.1484 3.63018 19.3865L4.36967 20.1119C4.85707 20.5881 5.7002 20.5881 6.18479 20.1119L6.80944 19.4985C7.02232 19.5769 7.24361 19.647 7.4761 19.703V20.4341C7.4761 21.1259 8.04753 21.6862 8.75061 21.6862H9.75901C10.1344 21.6862 10.4677 21.5237 10.7002 21.2688C11.8262 21.5321 13.1764 21.6806 14.5825 21.6806C16.2492 21.6806 17.8374 21.4845 19.0559 21.1259C20.8206 20.6049 21.7141 19.7674 21.7141 18.6414V5.03918ZM10.4677 3.71145C9.52932 3.98876 8.94108 4.35851 8.76181 4.75907C8.93268 5.16243 9.53212 5.53497 10.4789 5.81789C11.5797 6.14281 13.0391 6.32209 14.5937 6.32209C16.1483 6.32209 17.6105 6.14281 18.7085 5.81789C19.6441 5.54058 20.2436 5.17083 20.4228 4.77307C20.2043 4.26047 19.3976 3.91873 18.7001 3.71145C17.5993 3.38652 16.1371 3.20725 14.5825 3.20725C13.0307 3.20725 11.5685 3.38652 10.4677 3.71145ZM20.4845 6.37531V9.47333C20.2828 9.79826 19.7226 10.2464 18.7142 10.5518C17.7562 10.8347 16.5125 10.9971 15.1988 11.0392C15.2324 10.9243 15.2548 10.8067 15.2548 10.6834C15.2548 10.3445 15.1203 10.028 14.8794 9.79266L14.1399 9.06437C13.6385 8.57418 12.8262 8.57418 12.3248 9.06437L11.7002 9.67781C11.4873 9.59378 11.2688 9.52655 11.0363 9.47053V8.73944C11.0363 8.04757 10.4649 7.48735 9.76181 7.48735H8.75061C8.73047 7.48735 8.7126 7.48961 8.69292 7.4921H8.69291H8.69291H8.6929L8.68618 7.49295V6.3585C9.07554 6.59659 9.55173 6.80388 10.126 6.97194C11.336 7.33048 12.9243 7.52656 14.5937 7.52656C16.266 7.52656 17.8514 7.33048 19.0643 6.97194C19.6329 6.80388 20.1007 6.605 20.4845 6.37531ZM9.25481 11.4397C11.2604 11.4397 12.4593 12.6162 12.4593 14.5882C12.4593 16.5601 11.2604 17.7366 9.25481 17.7366C7.24921 17.7366 6.05034 16.5601 6.05034 14.5882C6.05034 12.6162 7.24921 11.4397 9.25481 11.4397ZM9.25481 16.5265C10.5825 16.5265 11.2296 15.8907 11.2296 14.5854C11.2296 13.28 10.5825 12.6442 9.25481 12.6442C7.92708 12.6442 7.28003 13.28 7.28003 14.5854C7.28003 15.8935 7.92708 16.5265 9.25481 16.5265ZM20.4845 14.2268V11.084C20.0839 11.3305 19.6077 11.5434 19.0671 11.703C17.8514 12.0616 16.2632 12.2576 14.5965 12.2576C14.5433 12.2576 14.4901 12.2569 14.4369 12.2562L14.4366 12.2562C14.3835 12.2555 14.3303 12.2548 14.2772 12.2548C14.3472 12.4425 14.4116 12.6358 14.4621 12.8375H15.2072C15.9102 12.8375 16.4817 13.3977 16.4817 14.0896V15.084C16.4817 15.3164 16.4116 15.5321 16.2996 15.7198C17.196 15.6386 18.0279 15.5013 18.7142 15.2968C19.7226 14.9999 20.2828 14.5517 20.4845 14.2268ZM20.4845 15.8375V18.6414C20.4845 19.3024 19.5153 19.7282 18.7029 19.9719C17.5965 20.2968 16.1315 20.4761 14.5825 20.4761C14.1876 20.4761 13.7982 20.4621 13.4145 20.4369C13.6806 20.4005 13.9411 20.3052 14.1399 20.1119L14.8794 19.3865C15.1203 19.1512 15.2548 18.8318 15.2548 18.4957C15.2548 18.1568 15.1203 17.8402 14.8794 17.605L14.2716 17.0055C14.3262 17.0055 14.3801 17.0069 14.4341 17.0083C14.488 17.0097 14.5419 17.0111 14.5965 17.0111C16.266 17.0111 17.8514 16.815 19.0671 16.4565C19.6077 16.2968 20.0811 16.0839 20.4845 15.8375ZM12.2744 18.3528L13.196 19.2576L14.0111 18.5321L13.0895 17.5517C12.9019 17.3697 12.8542 17.0867 12.9719 16.8571C13.1511 16.5041 13.28 16.0924 13.3556 15.6358C13.4032 15.3445 13.661 15.1288 13.9635 15.1288H15.21L15.2548 14.0896L13.9635 14.0447C13.661 14.0447 13.4032 13.8291 13.3556 13.5377C13.28 13.0812 13.1511 12.6694 12.9719 12.3165C12.8542 12.084 12.9019 11.8039 13.0895 11.6218L14.0111 10.717L13.2716 9.91591L12.2744 10.8207C12.0895 11.0027 11.8038 11.0476 11.5713 10.9355C11.1904 10.7534 10.7926 10.633 10.3248 10.5574C10.0251 10.5097 9.80663 10.2576 9.80663 9.96073V8.73664L8.75061 8.69182L8.70579 9.95792C8.70579 10.2548 8.4873 10.5069 8.18759 10.5546C7.7254 10.6274 7.30804 10.7534 6.94389 10.9299C6.7086 11.0448 6.42289 10.9971 6.23521 10.8151L5.31365 9.91031L4.49853 10.6358L5.41729 11.6134C5.61337 11.8039 5.65258 12.1008 5.51813 12.3361C5.35566 12.619 5.21841 13.14 5.15399 13.5321C5.10356 13.8235 4.84866 14.0391 4.54614 14.0391H3.29965L3.25483 15.0784L4.54614 15.1232C4.84586 15.1232 5.10356 15.3361 5.15399 15.6302C5.21841 16.0251 5.35847 16.5461 5.51813 16.8262C5.65258 17.0615 5.61337 17.3585 5.41729 17.5489L4.49853 18.4537L5.23802 19.2548L6.23521 18.35C6.35286 18.2352 6.50972 18.1736 6.66938 18.1736C6.76182 18.1736 6.85706 18.1932 6.94109 18.2352C7.30244 18.4117 7.7198 18.5377 8.18478 18.6105C8.4817 18.6582 8.70019 18.9103 8.70019 19.2072V20.4313L9.75621 20.4761C9.77862 20.4761 9.80102 20.4565 9.80102 20.4313V19.2072C9.80102 18.9103 10.0195 18.6582 10.3192 18.6105C10.787 18.5377 11.182 18.4145 11.5657 18.2324C11.8038 18.1232 12.0895 18.1708 12.2744 18.3528ZM12.745 20.378C12.1315 20.3164 11.5573 20.2268 11.0363 20.1063H11.0391V19.7058C11.2688 19.6498 11.4873 19.5825 11.703 19.4985L12.3276 20.1119C12.4481 20.2296 12.5909 20.3192 12.745 20.378Z" fill="#313235"/>
</svg>
