<svg width="24" height="24" viewBox="0 0 24 24" fill="none" xmlns="http://www.w3.org/2000/svg">
<path fill-rule="evenodd" clip-rule="evenodd" d="M19.9271 16.9579C21.2073 17.2156 21.6974 18.2744 21.7115 19.1988C21.7143 19.2464 21.7143 19.3165 21.7115 19.3837C21.6974 20.4481 21.0532 21.689 19.2941 21.689C17.5322 21.689 16.8963 20.4537 16.8879 19.3949V19.21C16.9104 18.2828 17.4061 17.224 18.6779 16.9607V15.6666H5.05046L5.05606 16.9579C6.33617 17.2128 6.82636 18.2744 6.84597 19.1988V19.3837C6.83196 20.4481 6.19051 21.689 4.42861 21.689C2.66952 21.689 2.03367 20.4537 2.02246 19.3949C2.02246 19.3305 2.02246 19.2604 2.02526 19.1988C2.04767 18.28 2.54067 17.224 3.80957 16.9607L3.80116 15.0504C3.80116 14.8851 3.86559 14.7282 3.98324 14.6106C4.10088 14.4929 4.26055 14.4285 4.42581 14.4285H11.2185C11.2172 14.4159 11.2142 14.4043 11.2114 14.3932C11.2079 14.3797 11.2045 14.3667 11.2045 14.3529V13.4229C10.5014 13.3837 9.84316 13.2829 9.31095 13.1232C7.9412 12.7142 7.65269 12 7.65269 11.4762V3.95798C7.65269 3.82913 7.6723 3.70308 7.70591 3.58543C7.87398 3.0084 8.41179 2.57983 9.31095 2.31093C10.6919 1.89916 12.9832 1.89916 14.3641 2.31093C15.7311 2.71989 16.0196 3.43417 16.0196 3.95798V11.4762C16.0196 12 15.7311 12.7142 14.3641 13.1232C13.8263 13.2829 13.1625 13.3837 12.4538 13.4229V14.3529C12.4538 14.3688 12.4493 14.3828 12.4449 14.3966C12.4415 14.4072 12.4382 14.4176 12.437 14.4285H19.3053C19.647 14.4285 19.9271 14.7058 19.9271 15.0476V16.9579ZM9.66949 3.4958C10.2465 3.32213 11.014 3.22969 11.8347 3.22969C12.6555 3.22969 13.4286 3.32493 14.0028 3.4958C14.3417 3.59664 14.549 3.71148 14.6667 3.80952C14.5686 3.89075 14.3782 4.0028 14.0084 4.11204C12.86 4.45658 10.8263 4.45658 9.67789 4.11204C9.31655 4.0056 9.12047 3.89075 9.01403 3.80112C9.12047 3.71428 9.31375 3.60224 9.66949 3.4958ZM8.89918 10.3809V11.4734C8.89918 11.5854 9.14008 11.7787 9.67229 11.9299C10.8263 12.2745 12.8487 12.2745 14.0056 11.9299C14.5322 11.7731 14.7731 11.5826 14.7731 11.4706V10.3837L14.7521 10.3927L14.752 10.3927C14.6277 10.4457 14.5048 10.498 14.3669 10.5378C13.6807 10.7423 12.7843 10.8571 11.8431 10.8571C10.902 10.8571 10.0056 10.7451 9.31655 10.5378C9.19469 10.4994 9.08555 10.4556 8.97743 10.4122L8.89918 10.3809ZM5.60508 19.2212V19.3669C5.59387 20.0868 5.20172 20.4509 4.43422 20.4509C3.66951 20.4509 3.28016 20.0924 3.27456 19.3837V19.3809L3.27736 19.2352C3.28856 18.7338 3.50145 18.1372 4.44542 18.1372C5.38659 18.1344 5.59387 18.7254 5.60508 19.2212ZM19.2969 20.4481C18.535 20.4481 18.1456 20.0896 18.1372 19.3837V19.2296C18.1484 18.7366 18.3585 18.1568 19.2633 18.1372C19.2703 18.1372 19.2766 18.1393 19.2829 18.1414L19.2829 18.1414L19.2829 18.1414C19.2892 18.1435 19.2955 18.1456 19.3025 18.1456C19.3095 18.1456 19.3165 18.1435 19.3235 18.1414C19.3305 18.1393 19.3375 18.1372 19.3445 18.1372C20.2521 18.154 20.4566 18.731 20.465 19.2296V19.3641C20.4566 20.084 20.0644 20.4481 19.2969 20.4481ZM8.9679 7.78371L8.89918 7.75628V8.94956C8.98602 9.04479 9.2045 9.21006 9.67789 9.35292C10.8263 9.69745 12.86 9.69745 14.0084 9.35292C14.4286 9.22687 14.6695 9.0532 14.7731 8.93555V7.75628L14.7521 7.76525L14.752 7.76526C14.6276 7.81825 14.5048 7.87057 14.3669 7.91034C13.6807 8.11483 12.7843 8.22967 11.8431 8.22967C10.902 8.22967 10.0056 8.11763 9.31655 7.91034C9.19111 7.87318 9.07915 7.8283 8.9679 7.78371L8.9679 7.78371ZM9.31655 5.29691C10.0056 5.50419 10.902 5.61624 11.8431 5.61624C12.7843 5.61624 13.6807 5.50139 14.3669 5.29691C14.5094 5.25469 14.6296 5.20501 14.7507 5.1549L14.7731 5.14565V6.30811C14.6723 6.42576 14.4258 6.59943 14.0084 6.72548C12.86 7.07001 10.8291 7.07001 9.67789 6.72548C9.2017 6.58542 8.98602 6.41735 8.90198 6.32492V5.14005L8.92233 5.14871C9.04699 5.20182 9.17043 5.2544 9.31655 5.29691Z" fill="#313235"/>
</svg>
