<svg width="24" height="24" viewBox="0 0 24 24" fill="none" xmlns="http://www.w3.org/2000/svg">
<path fill-rule="evenodd" clip-rule="evenodd" d="M21.7144 5.07282C21.7144 3.94117 20.8376 3.10363 19.0981 2.58262C17.9076 2.22968 16.339 2.028 14.692 2.0224C13.0505 2.0224 11.4903 2.22128 10.2914 2.57702C8.85722 3.0112 8.00568 3.66946 7.75638 4.5294V4.53781C7.70877 4.71428 7.68356 4.89075 7.68356 5.06722V9.44817C7.62753 9.50419 7.57711 9.56021 7.5379 9.62464L2.12893 20.2801C2.0561 20.4174 2.01689 20.5714 2.02529 20.7311C2.0337 21.2437 2.45106 21.6555 2.94966 21.6555H2.96647L13.7032 21.6947H13.7452C13.7591 21.6947 13.7721 21.6972 13.7838 21.6995C13.7934 21.7014 13.8021 21.7031 13.8096 21.7031C13.9805 21.7115 14.5351 21.7115 14.6948 21.7115C16.3306 21.7115 17.8992 21.5182 19.0981 21.1569C20.8376 20.6358 21.7144 19.8011 21.7144 18.6751V5.07282ZM10.6499 3.73949C9.72557 4.0196 9.14574 4.39215 8.96927 4.7843C9.13734 5.19327 9.72557 5.57142 10.6583 5.84313C11.7452 6.17366 13.185 6.35013 14.706 6.35013C16.2354 6.35013 17.6752 6.17366 18.762 5.84313C19.6808 5.57142 20.2746 5.20167 20.4511 4.79831C20.2326 4.29131 19.4371 3.94677 18.7536 3.73669C17.6667 3.41456 16.227 3.22968 14.6976 3.22968C13.1681 3.23248 11.7256 3.41736 10.6499 3.73949ZM20.5071 9.5098V6.40895C20.1289 6.63304 19.6695 6.83472 19.1065 7.00279C17.9076 7.36414 16.3474 7.55741 14.7032 7.55741C13.0617 7.55741 11.4987 7.36414 10.3082 7.00279C9.74518 6.83192 9.26899 6.62464 8.89084 6.39215V9.2689C9.0365 9.35853 9.15694 9.48458 9.23818 9.63865L9.43986 10.0476C9.76199 10.2493 10.1794 10.4342 10.6555 10.577C11.7424 10.9076 13.1822 11.084 14.7116 11.084C16.241 11.084 17.6724 10.9076 18.7592 10.577C19.7592 10.2801 20.3054 9.82912 20.5071 9.5098ZM7.74238 17.535C7.74238 17.8683 8.01129 18.1372 8.34462 18.1372C8.67795 18.1372 8.94966 17.8655 8.94686 17.535V13.6442C8.94686 13.3109 8.67515 13.042 8.34462 13.042C8.01409 13.042 7.74238 13.3109 7.74238 13.6442V17.535ZM8.95807 19.0868C8.95807 18.7479 8.68356 18.4734 8.34462 18.4734C8.00568 18.4734 7.73117 18.7479 7.73117 19.0868C7.73117 19.4258 8.00568 19.7003 8.34462 19.7003C8.68356 19.7003 8.95807 19.4258 8.95807 19.0868ZM20.5071 11.1148V14.2577C20.3054 14.5882 19.7592 15.0392 18.7592 15.3305C17.6723 15.6527 16.241 15.8375 14.7116 15.8375C13.86 15.8375 13.0057 15.7731 12.241 15.6611L10.2774 11.7171C10.2803 11.7215 10.2863 11.7236 10.2925 11.7257C10.2982 11.7278 10.3042 11.7299 10.3082 11.7339C11.5015 12.0868 13.0701 12.2885 14.7116 12.2885C16.353 12.2885 17.9132 12.0868 19.1065 11.7339C19.6387 11.5742 20.1121 11.3557 20.5071 11.1148ZM20.5071 18.6779V15.8655C20.1121 16.1148 19.6387 16.3249 19.1065 16.4846C17.9132 16.8459 16.353 17.0476 14.7116 17.0476C14.0757 17.0476 13.4735 17.0056 12.8768 16.9524L14.5659 20.3361C14.5856 20.3719 14.5927 20.4111 14.5996 20.4493C14.6036 20.471 14.6074 20.4923 14.6135 20.5126H14.692C16.213 20.5126 17.6555 20.3361 18.748 20.0084C19.5491 19.7619 20.5071 19.3361 20.5071 18.6779ZM3.40624 20.4538L8.38664 10.633L13.297 20.493L3.40624 20.4538Z" fill="#313235"/>
</svg>
