<svg width="24" height="24" fill="none" xmlns="http://www.w3.org/2000/svg"><path d="M15.047 2c1.558 0 3.04.188 4.171.527 1.656.498 2.496 1.297 2.49 2.383v12.843c0 1.079-.837 1.877-2.492 2.376-1.14.339-2.62.526-4.171.526-1.434 0-2.796-.168-3.897-.459a21.131 21.131 0 0 1-2.526 1.437.597.597 0 0 1-.515-.003c-.541-.255-5.298-2.563-5.751-5.151-.336-1.901-.331-6.217-.33-6.606v-.021a.604.604 0 0 1 .75-.583c1.064.169 1.64-.213 2.368-.696l.024-.016h.002c.78-.516 1.663-1.098 3.191-1.098h.02V4.905c0-.177.025-.35.073-.513.238-.826 1.053-1.454 2.423-1.865C12.01 2.187 13.49 2 15.047 2Zm0 1.202c-1.44 0-2.798.17-3.82.476-.855.258-1.39.596-1.56.958.162.367.708.711 1.57.969 1.023.308 2.38.476 3.822.476 1.442 0 2.798-.168 3.82-.473.852-.258 1.4-.597 1.569-.958-.207-.465-.941-.782-1.577-.972-1.022-.308-2.381-.476-3.823-.476ZM9.591 6.207l.003.002v1.396c.829.204 1.426.591 1.969.95.74.49 1.325.874 2.423.703a.651.651 0 0 1 .496.134.605.605 0 0 1 .224.454c0 .042 0 .302-.003.692 1.532.033 3.073-.135 4.18-.468.94-.283 1.445-.7 1.624-1.003V6.221a5.79 5.79 0 0 1-1.28.535c-1.132.34-2.614.527-4.168.527-1.558 0-3.037-.188-4.168-.527a5.637 5.637 0 0 1-1.297-.547v-.002H9.59ZM5.836 9.561c-.677.448-1.43.946-2.587.946v-.003h-.011c.006.75.025 2.028.084 3.26h4.395V8.718c-.784.129-1.322.476-1.88.843Zm-2.29 6.708c.241 1.37 2.6 2.938 4.171 3.804v-5.104H3.395c.04.499.09.947.151 1.3Zm15.325 2.7c.745-.224 1.636-.616 1.633-1.221v-2.591a5.401 5.401 0 0 1-1.277.557c-1.132.34-2.614.527-4.168.527-.216 0-.429-.009-.642-.017a4.726 4.726 0 0 1-.04.252c-.173.997-.985 1.947-1.946 2.76a16.2 16.2 0 0 0 2.617.21c1.436 0 2.795-.172 3.823-.477Zm-4.185-7.227c-.02.997-.059 2.224-.143 3.28l.127.005c.129.005.258.01.389.01 1.442 0 2.798-.171 3.82-.477.939-.283 1.446-.703 1.625-1.003v-2.89a5.522 5.522 0 0 1-1.277.557c-1.132.339-2.614.527-4.168.527-.085 0-.168-.003-.25-.005l-.123-.004ZM10.893 9.56c-.58-.38-1.134-.742-1.969-.857h-.003v5.062h4.488c.059-1.236.078-2.524.084-3.27h-.003c-1.18 0-1.927-.492-2.597-.935ZM8.924 20.123c1.572-.857 4.023-2.456 4.266-3.854.062-.353.11-.801.149-1.3H8.924v5.154Z" fill="#313235"/></svg>