<svg width="24" height="24" fill="none" xmlns="http://www.w3.org/2000/svg"><path d="m21.685 8.269-.002.005a.555.555 0 0 1-.067.255l-.012.026a.371.371 0 0 1-.033.061l-9.232 12.82-.003.004a.628.628 0 0 1-.244.19.627.627 0 0 1-.249.059.613.613 0 0 1-.246-.059l-.028-.014-.029-.014a.626.626 0 0 1-.19-.162l-.003-.003-9.232-12.82a.378.378 0 0 1-.033-.062.813.813 0 0 0-.034-.07.65.65 0 0 1-.043-.208v-.005a.022.022 0 0 1-.002-.006l.002-.017a.578.578 0 0 1 .036-.185.778.778 0 0 1 .031-.076c.003-.006.005-.012.01-.019L5.33 2.31a.049.049 0 0 1 .019-.021.081.081 0 0 0 .01-.008.58.58 0 0 1 .165-.165.318.318 0 0 1 .066-.039l.012-.006c.01-.005.02-.01.03-.017a.169.169 0 0 1 .043-.022.357.357 0 0 1 .099-.013l.033-.001a.068.068 0 0 0 .024-.007.078.078 0 0 1 .029-.007h11.969c.011 0 .021.003.031.007a.127.127 0 0 0 .025.007l.032.001c.031.001.063.002.097.013a.213.213 0 0 1 .05.025l.023.014.078.045a.547.547 0 0 1 .165.165.072.072 0 0 0 .014.013.04.04 0 0 1 .014.015l3.25 5.661a.09.09 0 0 1 .012.027.23.23 0 0 0 .005.012.688.688 0 0 1 .056.224c0 .006 0 .011.002.016l.003.015-.001.006ZM7.907 6.952l2.78-3.748H6.694l1.212 3.748Zm8.922.71h3.199l-2.045-3.567-1.154 3.566Zm-.39 1.204-2.823 8.717 6.28-8.717H16.44Zm-6.37 8.717L7.247 8.866H3.793l6.277 8.717Zm6.922-14.379H13l2.778 3.748 1.213-3.748ZM8.893 7.661h5.9l-2.95-3.978-2.95 3.978Zm2.95 11.448 3.316-10.243H8.526l3.317 10.243ZM5.703 4.095 3.655 7.661h3.202L5.703 4.095Z" fill="#313235"/></svg>