<svg width="24" height="24" fill="none" xmlns="http://www.w3.org/2000/svg"><path d="m21.845 8.424-.002.006c0 .072-.017.14-.044.21a.63.63 0 0 0-.034.07c-.01.02-.02.042-.034.061L12.5 21.591l-.003.004a.624.624 0 0 1-.244.19.626.626 0 0 1-.249.059.613.613 0 0 1-.274-.073l-.028-.014a.625.625 0 0 1-.191-.162l-.003-.003-9.232-12.82a.377.377 0 0 1-.033-.062l-.012-.026-.014-.028a.65.65 0 0 1-.053-.235l.003-.017a.578.578 0 0 1 .036-.185l.011-.028a.778.778 0 0 1 .011-.028c.005-.005.007-.012.01-.02a.087.087 0 0 1 .007-.019l3.25-5.66c.003-.01.01-.016.018-.021a.082.082 0 0 0 .01-.008.58.58 0 0 1 .165-.165c.021-.017.043-.028.066-.039l.012-.006c.01-.005.02-.01.03-.017.013-.009.027-.017.043-.022.034-.01.066-.012.099-.013l.033-.001a.068.068 0 0 0 .024-.007.078.078 0 0 1 .029-.007h11.969c.011 0 .021.003.031.007.009.003.017.006.025.007l.032.001c.031.001.063.002.097.013.019.006.034.015.05.025l.023.014.078.045a.547.547 0 0 1 .165.165.072.072 0 0 0 .014.013c.006.005.011.009.014.015l3.25 5.661c.006.008.009.017.012.027l.005.012a.688.688 0 0 1 .059.24l.002.015-.001.006ZM8.067 7.107l2.78-3.747H6.854l1.212 3.747Zm8.922.71h3.199L18.143 4.25l-1.154 3.566Zm-.39 1.204-2.823 8.717 6.28-8.717H16.6Zm-6.37 8.717L7.407 9.02H3.953l6.277 8.717ZM17.152 3.36H13.16l2.779 3.747L17.15 3.36ZM9.053 7.816h5.9l-2.95-3.978-2.95 3.978Zm2.95 11.448 3.316-10.243H8.686l3.317 10.243ZM5.863 4.25 3.815 7.816h3.202L5.863 4.25Z" fill="#313235"/></svg>