<svg width="24" height="24" viewBox="0 0 24 24" fill="none" xmlns="http://www.w3.org/2000/svg">
<path fill-rule="evenodd" clip-rule="evenodd" d="M20.8908 14.6067C20.3361 15.1977 19.5434 15.4975 18.535 15.4975L14.4678 15.5003V16.2762H21.084C21.4174 16.2762 21.6863 16.5535 21.6863 16.8952C21.6863 17.237 21.4174 17.5143 21.084 17.5143H14.4678V18.2846C14.4678 18.6263 14.1989 18.9036 13.8655 18.9036C10.8691 18.9036 8.61193 20.0788 8.51564 20.1289C8.514 20.1298 8.51298 20.1303 8.51261 20.1305C8.43978 20.1697 8.35854 20.1837 8.27731 20.1893C8.27167 20.1905 8.26602 20.193 8.26019 20.1955C8.25156 20.1994 8.24252 20.2034 8.23249 20.2034C8.13725 20.2034 8.04202 20.1809 7.95518 20.1333C7.95483 20.1331 7.95392 20.1327 7.95245 20.1319C7.86045 20.0843 5.58551 18.9064 2.60224 18.9064C2.26891 18.9064 2 18.6291 2 18.2874V9.95685C2 9.63472 2.2437 9.36301 2.55462 9.3378C2.62185 9.3322 3.44538 9.27058 4.58543 9.39383V7.03248C4.58543 6.03248 4.85714 5.24256 5.38936 4.67954C5.94118 4.09971 6.73109 3.80559 7.7423 3.80559L18.5322 3.79999C19.5434 3.79999 20.3333 4.09411 20.8852 4.67394C21.4174 5.23416 21.6891 6.02408 21.6891 7.02408V12.2482C21.6891 13.2454 21.4202 14.0409 20.8908 14.6067ZM5.78992 7.02968C5.78992 6.36581 5.94678 5.86721 6.2521 5.54509C6.56863 5.21455 7.07003 5.04369 7.7423 5.04369L18.5322 5.03808C19.2045 5.03808 19.7087 5.20615 20.0224 5.53948C20.3277 5.86161 20.4818 6.36021 20.4818 7.02408V12.2482C20.4818 12.9148 20.3277 13.419 20.0196 13.7468C19.7031 14.0857 19.2017 14.2566 18.5322 14.2566L14.4678 14.2594V9.95405C14.4678 9.63192 14.2269 9.36021 13.9132 9.335L13.9058 9.33451C13.6991 9.32052 10.7998 9.12424 8.23249 10.4134C7.42017 10.0045 6.57423 9.74397 5.78992 9.5815V7.02968ZM7.63585 11.4863C5.96919 10.6739 4.11204 10.5591 3.20728 10.5563V17.6767C5.13165 17.7664 6.71148 18.2678 7.63585 18.6347V11.4863ZM8.83753 18.6347C9.7619 18.2678 11.3417 17.7664 13.2661 17.6767V10.5563C12.3613 10.5591 10.4986 10.6767 8.83753 11.4863V18.6347Z" fill="#313235"/>
</svg>
