<svg width="24" height="24" viewBox="0 0 24 24" fill="none" xmlns="http://www.w3.org/2000/svg">
<path fill-rule="evenodd" clip-rule="evenodd" d="M0 12.0034C0 3.82812 4.41548 0 11.9966 0C19.5777 0 24 3.82812 24 12.0034C24 20.1787 19.5777 24 11.9966 24C4.41548 24 0 20.1787 0 12.0034ZM11.9966 1.49915C15.1793 1.49915 17.6175 2.20262 19.3455 3.61298L3.61298 19.3489C2.20262 17.6209 1.49915 15.1827 1.49915 12.0034C1.49915 4.93455 4.93455 1.49915 11.9966 1.49915ZM11.9966 22.5009C8.83096 22.5009 6.39954 21.8042 4.67501 20.4075L20.4041 4.67843C21.8042 6.40296 22.5009 8.83779 22.5009 12.0068C22.5009 19.0655 19.062 22.5009 11.9966 22.5009Z" fill="#313235"/>
</svg>
