<svg width="24" height="24" viewBox="0 0 24 24" fill="none" xmlns="http://www.w3.org/2000/svg">
<path fill-rule="evenodd" clip-rule="evenodd" d="M1 12.0031C1 4.50911 5.04752 1 11.9969 1C18.9462 1 23 4.50911 23 12.0031C23 19.4972 18.9462 23 11.9969 23C5.04752 23 1 19.4972 1 12.0031ZM11.997 2.37422C14.9145 2.37422 17.1495 3.01907 18.7335 4.31189L4.31201 18.7365C3.01918 17.1525 2.37433 14.9175 2.37433 12.0031C2.37433 5.52333 5.52345 2.37422 11.997 2.37422ZM11.9969 21.6258C9.09508 21.6258 6.86628 20.9872 5.28546 19.7069L19.7038 5.28854C20.9872 6.86936 21.6258 9.10129 21.6258 12.0062C21.6258 18.4766 18.4736 21.6258 11.9969 21.6258Z" fill="#313235"/>
</svg>
