<svg width="24" height="24" fill="none" xmlns="http://www.w3.org/2000/svg"><path d="M11.104 21.333a.947.947 0 0 0 .725.336c.28 0 .546-.123.728-.336l8.863-9.143a1.008 1.008 0 0 0 .16-1.112.962.962 0 0 0-.874-.56h-3.96l.002-6.596a1.903 1.903 0 0 0-1.905-1.905h-6.03a1.906 1.906 0 0 0-1.905 1.905v6.596H2.975a.958.958 0 0 0-.871.56 1.01 1.01 0 0 0 .129 1.079l.015.017.015.016 8.84 9.143Zm.728-.812-8.62-8.913v-.003h3.816A.987.987 0 0 0 8 10.608V3.922c0-.449.364-.816.815-.816h6.03c.452 0 .816.367.816.818l-.003 6.687c0 .549.437.997.972.997h3.843l-8.641 8.913Z" fill="#313235"/></svg>