<svg width="24" height="24" viewBox="0 0 24 24" fill="none" xmlns="http://www.w3.org/2000/svg">
<path fill-rule="evenodd" clip-rule="evenodd" d="M11.1037 21.3333C11.2829 21.5462 11.549 21.6694 11.8291 21.6694C12.1093 21.6694 12.3754 21.5462 12.5574 21.3333L21.4201 12.1905L21.4202 12.1904C21.4314 12.1792 21.4426 12.1681 21.451 12.1569C21.7003 11.8543 21.7507 11.4314 21.5798 11.0784C21.4229 10.7367 21.0812 10.5182 20.7059 10.5182H16.7451L16.7479 3.9216C16.7479 2.86838 15.8964 2.01685 14.8431 2.01685H8.81235C7.76194 2.01685 6.9076 2.87118 6.9076 3.9216V10.5182H2.97484C2.59949 10.5182 2.26056 10.7367 2.1037 11.0784C1.93283 11.4314 1.98325 11.8515 2.23255 12.1569C2.23815 12.1625 2.24305 12.1681 2.24796 12.1737C2.25286 12.1793 2.25776 12.1849 2.26336 12.1905L11.1037 21.3333ZM11.8319 20.521L3.21294 11.6078V11.605H7.02805C7.56306 11.605 8.00003 11.1569 8.00003 10.6078V3.9216C8.00003 3.47342 8.36418 3.10648 8.81516 3.10648H14.8459C15.2969 3.10648 15.6611 3.47342 15.6611 3.9244L15.6583 10.6106C15.6583 11.1597 16.0952 11.6078 16.6302 11.6078H20.4734L11.8319 20.521Z" fill="#313235"/>
</svg>
