<svg width="24" height="24" viewBox="0 0 24 24" fill="none" xmlns="http://www.w3.org/2000/svg">
<path fill-rule="evenodd" clip-rule="evenodd" d="M19.3388 6.78711H20.4341C21.1399 6.78711 21.7142 7.38654 21.7142 8.12324V15.6722C21.7142 16.4089 21.1399 17.0084 20.4341 17.0084H19.3388V17.1204C19.3388 17.8571 18.7646 18.4566 18.0587 18.4566H16.9607C16.252 18.4566 15.6806 17.8599 15.6806 17.1204V14.3081H8.06714V17.1204C8.06714 17.8571 7.49291 18.4566 6.78703 18.4566H5.68899C4.98311 18.4566 4.40888 17.8599 4.40888 17.1204V17.0056C4.40772 17.0056 4.40656 17.0061 4.4052 17.0066C4.40328 17.0074 4.40096 17.0084 4.39768 17.0084H3.29964C2.59096 17.0084 2.01953 16.4117 2.01953 15.6722V8.12324C2.01953 7.38654 2.59376 6.78711 3.29964 6.78711H4.39768C4.39884 6.78711 4.4 6.78759 4.40136 6.78815C4.40328 6.78895 4.4056 6.78991 4.40888 6.78991V6.67506C4.40888 5.93837 4.98311 5.33893 5.68899 5.33893H6.78703C7.49291 5.33893 8.06714 5.93557 8.06714 6.67506V9.49018H15.6806V6.67506C15.6806 5.93837 16.2548 5.33893 16.9607 5.33893H18.0587C18.7646 5.33893 19.3388 5.93557 19.3388 6.67506V6.78711ZM20.4369 15.6722H19.3416V8.12324H20.4369V15.6722ZM16.9635 17.1232V12.9916C16.9635 12.9874 16.9642 12.9846 16.9649 12.9818C16.9656 12.979 16.9663 12.9762 16.9663 12.972V10.8263C16.9663 10.8221 16.9656 10.8193 16.9649 10.8165C16.9642 10.8137 16.9635 10.8109 16.9635 10.8067V6.67506H18.0615V8.10083C18.0615 8.10472 18.0609 8.10801 18.0603 8.11154L18.0603 8.11156V8.11157C18.0595 8.11565 18.0587 8.12004 18.0587 8.12604V15.675C18.0587 15.6792 18.0594 15.6834 18.0601 15.6876L18.0601 15.6877C18.0608 15.6919 18.0615 15.6961 18.0615 15.7003V17.126H16.9635V17.1232ZM15.6862 12.972H8.07274V10.8263H15.6862V12.972ZM5.6946 17.1204V6.67506H6.79263V10.6779C6.79115 10.6912 6.78947 10.7044 6.7878 10.7174L6.7878 10.7175C6.78317 10.7537 6.77863 10.7893 6.77863 10.8263V12.972C6.77863 13.011 6.78367 13.0501 6.78855 13.0879L6.79263 13.1204V17.1204H5.6946ZM4.40608 15.6722H3.30804V8.12324H4.40608V15.6722Z" fill="#313235"/>
</svg>
