<svg xmlns="http://www.w3.org/2000/svg" width="24" height="24" fill="none"><path fill="#0B2739" d="M2.184 4.89v2.52h1.075l-1.072.003c0 2.902 1.602 4.844 4.515 4.844 1.229 0 2.225-.285 2.965-.833.197.424.372.882.525 1.374.675 2.16.807 4.504.894 6.053l.002.037c.035.604.063 1.082.115 1.406a.54.54 0 0 0 .526.453h.01a.542.542 0 0 0 .531-.453c.13-.804.527-3.244 1.499-5.569.118-.282.24-.551.365-.808.757.65 1.825.99 3.173.99 2.8 0 4.39-1.466 4.508-4.137a.535.535 0 0 0 .007-.087V7.61c0-.896-.736-1.624-1.641-1.624h-2.876c-2.909 0-4.51 1.586-4.51 4.462 0 1.022.202 1.88.593 2.562-.216.405-.421.839-.613 1.3a21.048 21.048 0 0 0-.776 2.217c-.187-1.858-.578-4.063-1.532-5.936.492-.725.747-1.676.747-2.835 0-2.905-1.602-4.504-4.512-4.504v1.075c2.314 0 3.437 1.12 3.437 3.426 0 .697-.103 1.286-.31 1.768-.77-1.108-1.807-2.02-3.205-2.555a.54.54 0 0 0-.387 1.008c1.185.454 2.159 1.286 2.91 2.486-.567.481-1.38.719-2.445.719-2.314 0-3.44-1.464-3.44-3.769H3.26V4.893a.57.57 0 0 1 .566-.566H6.7V3.252H3.825c-.902 0-1.638.734-1.641 1.638m15.124 2.166h2.876c.313 0 .568.249.568.554v2.866c-.01 2.256-1.139 3.355-3.445 3.355-1.194 0-2.071-.293-2.642-.89.989-1.622 2.174-2.568 3.535-2.815a.538.538 0 1 0-.193-1.062c-1.204.219-2.294.868-3.24 1.927a9.102 9.102 0 0 0-.704.903c-.133-.415-.199-.898-.199-1.449 0-2.28 1.127-3.39 3.443-3.39z"/></svg>