<svg width="24" height="24" fill="none" xmlns="http://www.w3.org/2000/svg"><path d="M19.415 12.408h1.658c.341.002.616.28.619.619a.62.62 0 0 1-.614.619h-2.271c-.266.49-.552.983-.866 1.473-1.047 1.647-1.885 2.712-3.305 4.199l-.034.036c-.14.146-.627.647-1.042.947-.356.26-.759.443-1.16.53-.12.027-.243.047-.366.053h-.014l-.053.001-.057.002h-.033c-.037 0-.073 0-.107-.003h-.016a2.318 2.318 0 0 1-.367-.053 3.079 3.079 0 0 1-1.16-.53c-.415-.302-.902-.801-1.042-.947-1.443-1.507-2.283-2.574-3.34-4.235a24.483 24.483 0 0 1-.915-1.557H2.613a.616.616 0 0 1-.613-.62.617.617 0 0 1 .613-.621h1.71c-.516-1.123-.917-2.238-1.175-3.33-.51-2.163-.09-3.962 1.183-5.062.733-.64 1.739-1.023 2.823-1.079.095-.005.19-.008.286-.008 1.053 0 2.134.294 3.14.86.372.21.759.434 1.176.686a.276.276 0 0 0 .272 0c.39-.235.781-.462 1.18-.686 1.005-.566 2.083-.86 3.136-.86.096 0 .194.003.289.008 1.084.056 2.087.44 2.824 1.079 1.266 1.1 1.686 2.899 1.176 5.061-.263 1.118-.68 2.264-1.218 3.418ZM4.339 8.702c.277 1.182.742 2.389 1.344 3.619h.412l1.852-6.056a.596.596 0 0 1 .619-.437.614.614 0 0 1 .568.498l1.563 7.922.424-1.4a.61.61 0 0 1 .585-.44h1.022l1.031-3.57a.614.614 0 0 1 .572-.444.58.58 0 0 1 .593.414l1.247 3.6h1.874c.633-1.258 1.109-2.502 1.392-3.706.232-.975.437-2.776-.782-3.832-.532-.462-1.274-.74-2.09-.782a5.98 5.98 0 0 0-.223-.005c-.843 0-1.723.243-2.544.703-.364.207-.74.425-1.148.672a1.498 1.498 0 0 1-1.502.011c-.428-.26-.803-.479-1.168-.683-.818-.46-1.697-.703-2.543-.703-.073 0-.143.002-.216.005h-.008c-.815.042-1.558.32-2.09.782C3.905 5.926 4.11 7.724 4.34 8.702Zm12.566 5.745c.127-.195.238-.39.349-.586l.121-.213H15.74a.612.612 0 0 1-.577-.414l-.759-2.196-.627 2.165a.613.613 0 0 1-.588.445h-1.026l-1 3.317a.612.612 0 0 1-.585.44h-.03a.614.614 0 0 1-.572-.499L8.409 8.965l-1.272 4.16a.613.613 0 0 1-.585.437h-.199l.138.24c.123.215.246.43.383.645 1.008 1.585 1.812 2.605 3.182 4.042.238.25.61.608.877.8.21.155.448.267.703.326.059.011.118.022.176.025h.011l.045.003.037-.003h.067a.767.767 0 0 0 .14-.02c.263-.058.51-.17.726-.33.257-.185.613-.527.854-.776l.017-.02.042-.042c1.358-1.42 2.154-2.431 3.154-4.005Z" fill="#313235"/></svg>