<svg width="24" height="24" viewBox="0 0 24 24" fill="none" xmlns="http://www.w3.org/2000/svg">
<path fill-rule="evenodd" clip-rule="evenodd" d="M21.8432 7.07044L21.8292 16.8463C21.8572 17.062 21.8908 17.7343 21.4371 18.2833C21.1906 18.5774 20.7088 18.936 19.818 18.95C19.2998 18.9612 17.3502 18.964 14.9833 18.964C11.4393 18.964 6.96042 18.9556 4.94289 18.9518C4.35639 18.9507 3.9779 18.95 3.89084 18.95C3.84322 18.964 3.22977 18.9472 2.73957 18.471C2.35582 18.0985 2.16254 17.5634 2.16254 16.8828V7.08445C2.15694 7.01722 2.11773 6.10685 2.68915 5.50741C2.99168 5.18809 3.40904 5.02002 3.89084 5.02002L20.1373 5.02282C20.6191 4.99481 21.7984 5.35896 21.8432 7.07044ZM3.88803 6.2161L20.1513 6.2189C20.1653 6.2189 20.4931 6.2301 20.6023 6.77072L12.776 11.4878C11.8096 12.1181 10.9413 11.527 10.8768 11.4794L3.38663 6.77072C3.41184 6.60825 3.46507 6.42898 3.56591 6.32254C3.61633 6.27492 3.69756 6.2161 3.88803 6.2161ZM20.5015 17.527C20.3474 17.7091 20.0309 17.7511 19.7956 17.7567C18.6604 17.7756 10.3521 17.7646 6.20997 17.7591H6.20988L6.20734 17.7591C4.83149 17.7572 3.91595 17.756 3.87683 17.7567C3.76478 17.7427 3.66114 17.6951 3.57991 17.6195C3.40064 17.4458 3.36422 17.1237 3.36422 16.8856V8.17408L10.1962 12.4682C10.2382 12.499 10.9188 12.9808 11.8572 12.9808C12.3278 12.9808 12.8656 12.8576 13.4202 12.4962L20.6359 8.14887L20.6247 16.8856L20.6331 16.9808C20.6328 16.9811 20.6331 16.9856 20.6337 16.9936C20.6382 17.0574 20.6583 17.3453 20.5015 17.527Z" fill="#313235"/>
</svg>
