<svg width="24" height="24" viewBox="0 0 24 24" fill="none" xmlns="http://www.w3.org/2000/svg">
<path fill-rule="evenodd" clip-rule="evenodd" d="M21.8433 7.07044L21.8293 16.8463C21.8573 17.062 21.891 17.7343 21.4372 18.2833C21.1907 18.5774 20.7089 18.936 19.8181 18.95C19.2999 18.9612 17.3503 18.964 14.9834 18.964C11.4394 18.964 6.96054 18.9556 4.94301 18.9518C4.35652 18.9507 3.97802 18.95 3.89096 18.95C3.84334 18.964 3.22989 18.9472 2.7397 18.471C2.35594 18.0985 2.16267 17.5634 2.16267 16.8828V7.08445C2.15706 7.01722 2.11785 6.10685 2.68928 5.50741C2.9918 5.18809 3.40916 5.02002 3.89096 5.02002L20.1375 5.02282C20.6192 4.99481 21.7985 5.35896 21.8433 7.07044ZM3.88816 6.2161L20.1515 6.2189C20.1655 6.2189 20.4932 6.2301 20.6024 6.77072L12.7761 11.4878C11.8097 12.1181 10.9414 11.527 10.877 11.4794L3.38676 6.77072C3.41197 6.60825 3.46519 6.42898 3.56603 6.32254C3.61645 6.27492 3.69768 6.2161 3.88816 6.2161ZM20.5016 17.527C20.3475 17.7091 20.031 17.7511 19.7957 17.7567C18.6606 17.7756 10.3522 17.7646 6.21009 17.7591H6.21L6.20747 17.7591C4.83161 17.7572 3.91607 17.756 3.87695 17.7567C3.76491 17.7427 3.66127 17.6951 3.58003 17.6195C3.40076 17.4458 3.36435 17.1237 3.36435 16.8856V8.17408L10.1963 12.4682C10.2383 12.499 10.919 12.9808 11.8573 12.9808C12.3279 12.9808 12.8657 12.8576 13.4204 12.4962L20.6361 8.14887L20.6249 16.8856L20.6333 16.9808C20.6329 16.9811 20.6333 16.9856 20.6338 16.9936C20.6383 17.0574 20.6584 17.3453 20.5016 17.527Z" fill="#313235"/>
</svg>
