<svg width="24" height="24" fill="none" xmlns="http://www.w3.org/2000/svg"><path fill-rule="evenodd" clip-rule="evenodd" d="m21.843 7.07-.014 9.776c.028.216.062.888-.392 1.437-.246.294-.728.653-1.619.667-.518.011-2.468.014-4.835.014a5865.162 5865.162 0 0 1-11.092-.014c-.048.014-.661-.003-1.151-.479-.384-.372-.577-.908-.577-1.588V7.084c-.006-.067-.045-.977.526-1.577.303-.319.72-.487 1.202-.487l16.247.003c.481-.028 1.66.336 1.705 2.047ZM3.888 6.216l16.264.003c.014 0 .341.011.45.552l-7.826 4.717c-.966.63-1.835.039-1.899-.009l-7.49-4.708c.025-.163.078-.342.179-.448.05-.048.132-.107.322-.107Zm16.614 11.311c-.154.182-.471.224-.706.23-1.135.019-9.444.008-13.586.002h-.003a1205.98 1205.98 0 0 0-2.33-.002.53.53 0 0 1-.297-.138c-.18-.173-.216-.495-.216-.733V8.174l6.832 4.294c.042.031.723.513 1.661.513.47 0 1.009-.123 1.563-.485l7.216-4.347-.011 8.737.008.095v.013c.005.063.025.351-.131.533Z" fill="#313235"/></svg>