<svg xmlns="http://www.w3.org/2000/svg" width="24" height="24" fill="none"><path fill="#000" d="m15.397 8.595 4.86-.003c.829 0 1.582.658 1.582 1.384v4.045c0 .722-.756 1.38-1.582 1.38l-4.858.003.003 4.86c0 .857-.633 1.583-1.38 1.583H9.975c-.747 0-1.38-.726-1.38-1.583l-.003-4.857-4.86.003c-.86 0-1.583-.633-1.583-1.381l.003-4.045c0-.748.725-1.38 1.583-1.38L8.59 8.6l-.003-4.86c0-.829.658-1.582 1.381-1.582h4.045c.723 0 1.38.756 1.38 1.582zm-.6 5.6 5.46-.004c.187 0 .358-.142.383-.207l-.003-4.017a.55.55 0 0 0-.378-.176l-5.465.003a.605.605 0 0 1-.602-.603l-.003-5.456c0-.188-.14-.359-.201-.378L9.97 3.36a.55.55 0 0 0-.177.378L9.797 9.2a.6.6 0 0 1-.602.602l-5.457.003c-.207 0-.361.134-.378.188v4.033c.014.04.168.174.376.174l5.462-.003a.605.605 0 0 1 .602.602l.003 5.46c0 .21.131.361.187.378h4.031c.042-.017.177-.168.177-.378l-.003-5.462a.605.605 0 0 1 .602-.603"/></svg>