<svg width="24" height="24" viewBox="0 0 24 24" fill="none" xmlns="http://www.w3.org/2000/svg">
<path d="M18.6667 18.8459C17.5826 19.3838 16.2241 19.6555 14.6331 19.6555C10.8207 19.6555 8.507 18.1625 7.61345 15.1289H13.1317C13.6471 15.1289 14.0672 14.6891 14.0672 14.1429C14.0672 13.5994 13.6499 13.1569 13.1317 13.1569H7.26611C7.22689 12.7227 7.18487 12.2941 7.18487 11.8151C7.18487 11.6078 7.21289 11.4286 7.22129 11.2269H13.1317C13.6471 11.2269 14.0672 10.7871 14.0672 10.2409C14.0672 9.69468 13.6499 9.2549 13.1317 9.2549H7.45098C8.17367 5.72549 10.5238 3.96919 14.6331 3.96919C16.2073 3.96919 17.549 4.23529 18.6275 4.7591C19.098 4.9888 19.6527 4.77311 19.8711 4.28011C20.0868 3.78711 19.8852 3.20168 19.4146 2.97199C18.0896 2.32493 16.479 2 14.6331 2C9.4902 2 6.33333 4.55742 5.52661 9.2549H3.93557C3.42017 9.2549 3 9.69468 3 10.2409C3 10.7871 3.42017 11.2269 3.93557 11.2269H5.33333C5.32773 11.423 5.31373 11.6134 5.31373 11.8151C5.31373 12.2801 5.33613 12.7227 5.37255 13.1569H3.93557C3.42017 13.1569 3 13.5966 3 14.1429C3 14.6863 3.42017 15.1289 3.93557 15.1289H5.67227C6.67787 19.3445 9.77031 21.6246 14.6303 21.6246C16.5014 21.6246 18.1261 21.2885 19.4622 20.6275C19.93 20.395 20.1317 19.8095 19.9104 19.3165C19.6919 18.8235 19.1373 18.6106 18.6667 18.8459Z" fill="#313235"/>
</svg>
