<svg width="24" height="24" viewBox="0 0 24 24" fill="none" xmlns="http://www.w3.org/2000/svg">
<path fill-rule="evenodd" clip-rule="evenodd" d="M8.34609 2.1499C8.81108 2.1499 9.18923 2.52805 9.18923 2.99304V8.34597C9.18923 8.81096 8.81108 9.18911 8.34609 9.18911H2.99316C2.52818 9.18911 2.15002 8.81096 2.15002 8.34317C2.15002 7.87819 2.52818 7.50003 2.99316 7.50003H7.50016V2.99304C7.50016 2.52805 7.87831 2.1499 8.34609 2.1499ZM9.18923 15.6401C9.18923 15.1751 8.81108 14.7969 8.34609 14.7969H2.99316C2.55058 14.8137 2.19764 15.1695 2.18084 15.6093C2.16123 16.0743 2.52537 16.4664 2.99316 16.4832H7.50296V20.993C7.52817 21.4244 7.8699 21.7689 8.30128 21.7913C8.76626 21.8165 9.16402 21.458 9.18923 20.993V15.6401ZM21.8027 15.6737C21.8195 15.2059 21.4553 14.8137 20.9903 14.7969H15.6374C15.1724 14.7969 14.7943 15.1723 14.7943 15.6401V20.9958C14.7943 21.4608 15.1724 21.8389 15.6374 21.8389C16.1052 21.8389 16.4833 21.4608 16.4833 20.9958V16.486H20.9903C21.4329 16.4692 21.7859 16.1135 21.8027 15.6737ZM14.7971 8.34597C14.7971 8.81096 15.1752 9.18911 15.6402 9.18911H20.9931C21.4357 9.1723 21.7887 8.81656 21.8055 8.37678C21.8223 7.909 21.4581 7.51684 20.9931 7.50003H16.4833V2.99304C16.4581 2.56167 16.1164 2.21713 15.685 2.19472C15.22 2.16951 14.8223 2.52805 14.7971 2.99304V8.34597Z" fill="#313235"/>
</svg>
