<svg width="24" height="24" viewBox="0 0 24 24" fill="none" xmlns="http://www.w3.org/2000/svg">
<path fill-rule="evenodd" clip-rule="evenodd" d="M21.7146 12.7045C21.5213 12.9426 16.8855 18.4776 12.0367 18.4776C7.18799 18.4776 2.50171 12.9426 2.30563 12.7073C2.12076 12.4888 2.12076 12.1694 2.30283 11.9482L2.30558 11.9449C2.54086 11.6664 7.18036 6.17505 12.0115 6.17505C16.8631 6.17505 21.5185 11.7129 21.7146 11.9482C21.8967 12.1666 21.8967 12.486 21.7146 12.7045ZM12.0367 17.2843C15.639 17.2843 19.3364 13.5476 20.4457 12.3291C19.3308 11.1106 15.611 7.36833 12.0115 7.36833C8.40928 7.36833 4.69219 11.105 3.57734 12.3263C4.70059 13.5448 8.43729 17.2843 12.0367 17.2843ZM14.4933 12.4103C14.4933 10.1582 12.5998 9.96777 12.1124 9.95656C12.0423 9.95376 11.9555 9.95376 11.8799 9.95376C11.3785 9.95656 9.52692 10.1246 9.52692 12.3963C9.52692 14.6708 11.3981 14.8473 11.8967 14.8557C11.9723 14.8557 12.0479 14.8557 12.1236 14.8529C12.597 14.8445 14.4933 14.668 14.4933 12.4103Z" fill="#313235"/>
</svg>
