<svg width="24" height="24" fill="none" xmlns="http://www.w3.org/2000/svg"><path d="M9.445 4.154c.123.507.356 1.025.692 1.543.26.401.48.67.83 1.028.041.042.192.19.321.283.152.11.328.185.493.222l.27.03.246-.028c.18-.039.355-.114.51-.224.128-.09.277-.238.33-.29.35-.36.563-.626.82-1.02a5.109 5.109 0 0 0 .69-1.544c.17-.711 0-1.356-.476-1.76a1.749 1.749 0 0 0-1.031-.391c-.364-.02-.75.067-1.095.252a2.097 2.097 0 0 0-1.09-.252c-.39.02-.756.16-1.034.392-.473.403-.647 1.048-.476 1.759Zm1.297-.305c-.022-.104-.07-.353.05-.451a.381.381 0 0 1 .23-.076h.031a.82.82 0 0 1 .378.104c.079.042.157.087.266.151l.18.09.38-.009.157-.092.247-.14a.736.736 0 0 1 .409-.104c.092.006.18.034.23.079.12.098.072.347.05.45-.09.362-.26.74-.515 1.135a4.63 4.63 0 0 1-.662.818l-.012.012c-.024.026-.069.07-.114.108a1.1 1.1 0 0 1-.126-.12 4.76 4.76 0 0 1-.666-.82c-.252-.396-.426-.774-.513-1.135Zm-5 4.88c.235-.228.633-.342 1.174-.342.546 0 .941.114 1.18.341.243.233.366.633.366 1.194 0 .557-.123.957-.364 1.187-.235.224-.633.34-1.18.34-.546 0-.943-.116-1.176-.337-.24-.23-.361-.633-.361-1.19 0-.56.12-.961.361-1.194Zm-.851 3.263c.467.453 1.15.68 2.028.68.874 0 1.557-.23 2.03-.68.493-.471.743-1.169.743-2.07 0-.905-.25-1.603-.743-2.073-.473-.454-1.156-.684-2.03-.684-.877 0-1.56.23-2.031.684-.49.47-.737 1.168-.737 2.073 0 .901.25 1.599.74 2.07Zm10.694-3.264c.236-.227.633-.341 1.174-.341.546 0 .941.114 1.18.341.243.233.366.633.366 1.194 0 .557-.123.957-.364 1.187-.235.224-.633.34-1.18.34-.546 0-.943-.116-1.176-.337-.24-.23-.361-.633-.361-1.19 0-.56.12-.961.361-1.194Zm-1.594 1.194c0 .901.25 1.599.74 2.07.47.45 1.154.68 2.028.68.874 0 1.557-.23 2.03-.68.494-.471.743-1.169.743-2.07 0-.905-.25-1.603-.742-2.073-.474-.454-1.157-.684-2.031-.684-.877 0-1.56.23-2.03.684-.491.47-.737 1.168-.737 2.073Zm-1.652 2.84c-.053.05-.207.104-.48.104-.268 0-.422-.054-.473-.104-.053-.05-.106-.199-.106-.473 0-.275.056-.426.11-.477.05-.05.2-.103.47-.103.269 0 .423.053.476.106.053.05.11.202.11.476 0 .272-.057.42-.107.47Zm.851-1.827c-.31-.296-.759-.448-1.33-.448-.572 0-1.017.152-1.328.448-.32.309-.482.762-.482 1.356 0 .591.16 1.045.482 1.353.311.294.756.446 1.328.446.571 0 1.02-.152 1.33-.446.322-.308.488-.762.488-1.353 0-.59-.166-1.047-.488-1.356Zm7.266 9.53h-5.372v-3.322c0-.574-.18-1.062-.521-1.415a1.82 1.82 0 0 0-.314-.255c.283-.084.577-.112.824-.112h3.378c.476 0 1.134.093 1.549.524.375.387.456.927.456 1.314v3.266Zm-6.605-3.325v3.325h-.002v.014H9.87V17.14c0-.177.03-.417.176-.569.087-.092.239-.14.418-.173l.038-.007c.079-.015.156-.03.25-.03h2.21c.073 0 .135.012.197.023.02.004.039.008.058.01.194.032.362.082.454.18.149.151.18.392.18.566Zm-4.689-1.412c-.341.35-.518.84-.515 1.412v3.325H3.232v-3.266c0-.387.079-.93.451-1.317.415-.428 1.07-.52 1.547-.52h3.378c.255 0 .56.03.854.123-.11.072-.21.15-.3.243Zm-6.846 5.958h12.608v.003h6.446c.173 0 .316-.14.316-.314v-4.173c0-.877-.277-1.622-.801-2.163-.566-.588-1.409-.899-2.437-.899H15.07c-1.025 0-1.869.31-2.434.9-.016.016-.03.035-.043.055-.011.016-.023.033-.036.048h-1.431l-.032-.042c-.015-.022-.03-.043-.05-.062-.565-.588-1.408-.899-2.436-.899H5.23c-1.026 0-1.869.31-2.435.9-.518.537-.792 1.282-.792 2.159v4.173c0 .174.14.314.313.314Z" fill="#313235"/></svg>