<svg xmlns="http://www.w3.org/2000/svg" width="24" height="24" fill="none"><path fill="#0B2739" d="M12.001 2.155c-6.44 0-9.846 3.403-9.846 9.846 0 6.437 3.403 9.84 9.846 9.84 6.437 0 9.84-3.403 9.84-9.84 0-6.443-3.403-9.846-9.84-9.846m0 18.476c-5.731 0-8.636-2.904-8.636-8.63 0-5.731 2.905-8.636 8.636-8.636 5.728 0 8.63 2.905 8.63 8.636 0 5.726-2.904 8.63-8.63 8.63M7.659 9.805v3.79s3.168-1.885 3.171-1.885zm9.093 1.899L13.58 9.799v3.79zM6.446 8.734c0-.218.118-.42.308-.526a.61.61 0 0 1 .611.009l4.953 2.974c.014.008.022.02.031.03.007.01.014.019.024.027V8.729a.605.605 0 0 1 .916-.518l4.953 2.98a.604.604 0 0 1-.003 1.037l-4.952 2.947a.606.606 0 0 1-.913-.521v-2.482a.147.147 0 0 0-.026.027.118.118 0 0 1-.033.032l-4.953 2.946a.609.609 0 0 1-.916-.52z"/></svg>