<svg width="24" height="24" viewBox="0 0 24 24" fill="none" xmlns="http://www.w3.org/2000/svg">
<path fill-rule="evenodd" clip-rule="evenodd" d="M21.6386 7.78709C21.6694 7.85992 21.6862 7.94115 21.6862 8.02518V20.3305C21.6862 21.0812 21.0419 21.7142 20.2772 21.7142H8.09521C7.34452 21.7142 6.68625 21.0671 6.68625 20.3305L6.71987 17.5602H4.42016C3.08683 17.5602 2 16.4705 2 15.1344V11.0392C2 9.70305 3.08683 8.61342 4.42016 8.61342H6.68625V3.40896C6.68625 2.68347 7.35852 2.02521 8.09521 2.02521H15.5097C15.7394 2.02521 15.9551 2.11204 16.1204 2.2689L21.4201 7.40054C21.5293 7.50698 21.5938 7.64423 21.6386 7.78709ZM20.2772 20.4985C20.3753 20.4985 20.4705 20.4033 20.4705 20.3305V8.89633H18.1596C17.1456 8.89633 16.2688 8.5658 15.6246 7.94395C14.9747 7.3165 14.6302 6.45656 14.6302 5.46217V3.24369H8.09521C8.02238 3.24369 7.90754 3.35293 7.90194 3.41176V8.61341H14.2661C15.6022 8.61341 16.6862 9.70305 16.6862 11.0392V15.1344C16.6862 16.4705 15.5994 17.5602 14.2661 17.5602H7.93555L7.90194 20.3389C7.90194 20.3893 8.00278 20.4985 8.09521 20.4985H20.2772ZM3.21288 15.1344C3.21288 15.8011 3.75349 16.3445 4.42016 16.3445H14.2661C14.9327 16.3445 15.4733 15.8011 15.4733 15.1344V11.0392C15.4733 10.3725 14.9327 9.8291 14.2661 9.8291H4.42016C3.75349 9.8291 3.21288 10.3725 3.21288 11.0392V15.1344ZM19.9578 7.67785L19.9607 7.68065V7.67785H19.9578ZM19.9578 7.67785L15.8459 3.69467V5.45937C15.8459 6.11763 16.0616 6.67225 16.4677 7.0672C16.8823 7.46776 17.4649 7.67785 18.1596 7.67785H19.9578ZM5.93276 11.2969H4.66105V14.9999H5.50139V13.7226H6.09802C6.58541 13.7226 6.92155 13.6078 7.13723 13.3641C7.32211 13.1596 7.41454 12.8599 7.41454 12.4649C7.41454 12.07 7.31931 11.7843 7.11763 11.5994C6.87953 11.3781 6.51259 11.2969 5.93276 11.2969ZM6.41455 12.9495C6.3053 13.0504 6.19326 13.0896 5.92155 13.0896V13.0924H5.50419V11.9103H5.89914C6.15965 11.9103 6.31651 11.9467 6.42015 12.0392C6.51819 12.1316 6.5602 12.2801 6.5602 12.4789C6.5602 12.6946 6.51259 12.8515 6.41455 12.9495ZM8.01678 11.2969H9.15963C9.86271 11.2969 10.3305 11.4061 10.6386 11.7142C10.9355 12.0056 11.0896 12.4677 11.0896 13.1344C11.0896 13.8067 10.9439 14.2717 10.6386 14.5854C10.3613 14.8683 9.93554 15.0027 9.27448 15.0027H8.01678V11.2969ZM10.014 14.056C9.86831 14.2717 9.59661 14.3865 9.21846 14.3865H8.85991V11.9159H9.12042C9.53218 11.9159 9.78148 11.9803 9.94955 12.1596C10.1288 12.3529 10.21 12.6022 10.21 13.1344C10.21 13.591 10.1596 13.8403 10.014 14.056ZM11.7339 11.2969H14.1764L14.112 11.9075H12.5798V12.8067H13.7927V13.4397H12.5798V14.9999H11.7339V11.2969Z" fill="#313235"/>
</svg>
