<svg width="24" height="24" viewBox="0 0 24 24" fill="none" xmlns="http://www.w3.org/2000/svg">
<path fill-rule="evenodd" clip-rule="evenodd" d="M21.7583 14.0098C21.7667 13.9762 21.7667 13.8529 21.7499 13.6821V6.486C21.7499 5.69328 21.1029 5.04622 20.3101 5.04622H12.1169V4.28432C12.1169 3.4888 11.4698 2.84454 10.6771 2.84454H3.53143C2.72751 2.84454 2.08325 3.4888 2.08325 4.28432V17.7885C2.08325 18.5812 2.73031 19.2283 3.53143 19.2283H11.9236C11.9712 19.5252 12.0945 19.923 12.4138 20.2591C12.6743 20.5476 13.1757 20.881 14.0412 20.881H19.5678C19.6659 20.8922 20.5398 20.9314 21.1701 20.3431C21.439 20.0882 21.7667 19.6233 21.7583 18.8361V14.0098ZM11.8956 13.951C11.8956 13.1583 12.2233 12.6905 12.4922 12.4384C12.8115 12.1443 13.1953 12.0126 13.4978 11.965V11.4244C13.4978 8.94538 15.2485 8.05463 16.7443 8.03782H17.0216C18.5258 8.07984 20.2849 8.9874 20.2849 11.4412V12.0042C20.3662 12.021 20.4474 12.0378 20.523 12.0686V6.4832C20.523 6.36835 20.4334 6.27031 20.3101 6.27031H11.5034C11.1673 6.27031 10.89 5.993 10.89 5.65687V4.28152C10.89 4.15827 10.8003 4.06863 10.6771 4.06863H3.53143C3.40818 4.06863 3.31014 4.15827 3.31014 4.28152V17.7857C3.31014 17.909 3.40818 17.9986 3.53143 17.9986H11.8956V15.8978C11.8812 15.9006 11.8682 15.9045 11.8552 15.9083C11.8302 15.9157 11.8055 15.923 11.7723 15.923H10.7499C10.5202 15.923 10.341 15.7353 10.341 15.514V15.4076C10.341 15.1779 10.5202 14.9986 10.7499 14.9986H10.8312V13.2087H10.7807C10.551 13.2087 10.3718 13.0266 10.3718 12.7997V12.7101C10.3718 12.4972 10.5342 12.3263 10.7387 12.3011C10.9264 12.2843 11.0973 12.2759 11.1645 12.2759C11.7359 12.2759 11.7695 12.7353 11.7695 12.8249V15.0014C11.8115 15.0014 11.8508 15.0098 11.8928 15.0266V13.951H11.8956ZM5.4418 7.33754C6.02443 7.33754 6.71911 7.65967 6.71911 9.20309C6.71911 10.7437 6.02443 11.0658 5.4418 11.0658C4.85636 11.0658 4.16168 10.7409 4.16168 9.20309C4.16168 7.65967 4.85636 7.33754 5.4418 7.33754ZM5.77513 9.20309C5.77513 10.1303 5.56504 10.1303 5.4418 10.1303C5.30734 10.1303 5.10566 10.1303 5.10566 9.20309C5.10566 8.27311 5.31574 8.27311 5.4418 8.27311C5.56785 8.27311 5.77513 8.27311 5.77513 9.20309ZM16.8984 14.6681C17.848 14.6905 18.8003 15.3095 18.8003 16.6429C18.8003 17.979 17.848 18.5952 16.9012 18.6121H16.7667C15.8115 18.598 14.8564 17.9818 14.8564 16.6345C14.8564 15.2871 15.8087 14.6737 16.7499 14.6653L16.8984 14.6681ZM16.8788 17.3852C17.5734 17.3712 17.5734 16.8417 17.5734 16.6429C17.5734 16.4412 17.5734 15.9118 16.8704 15.895H16.7611C16.0833 15.9006 16.0833 16.4356 16.0833 16.6373C16.0833 16.8389 16.0833 17.3768 16.7751 17.388L16.8788 17.3852ZM8.68549 9.20309C8.68549 10.1303 8.47541 10.1303 8.35216 10.1303C8.21771 10.1303 8.01603 10.1303 8.01603 9.20309C8.01603 8.27311 8.22611 8.27311 8.35216 8.27311C8.47821 8.27311 8.68549 8.27311 8.68549 9.20309ZM8.35216 7.33754C8.93479 7.33754 9.62947 7.65967 9.62947 9.20309C9.62947 10.7437 8.93479 11.0658 8.35216 11.0658C7.76673 11.0658 7.07205 10.7409 7.07205 9.20309C7.07205 7.65967 7.76673 7.33754 8.35216 7.33754ZM6.36617 15.4048C6.36617 15.1779 6.18409 14.9958 5.9572 14.9958L5.9544 12.8221C5.9544 12.7325 5.92359 12.2787 5.35216 12.2787C5.28493 12.2787 5.11406 12.2871 4.92919 12.3039C4.71911 12.3235 4.55944 12.5 4.55944 12.7101V12.7997C4.55944 13.0266 4.74152 13.2087 4.96841 13.2087H5.01883V14.9958H4.93479C4.7079 14.9958 4.52583 15.1779 4.52583 15.4048V15.5112C4.52583 15.7381 4.7079 15.9202 4.93479 15.9202H5.9572C6.18409 15.9202 6.36617 15.7381 6.36617 15.5112V15.4048ZM8.35216 15.0406C8.47541 15.0406 8.68549 15.0406 8.68549 14.1135C8.68549 13.1835 8.47821 13.1835 8.35216 13.1835C8.22611 13.1835 8.01603 13.1835 8.01603 14.1135C8.01603 15.0406 8.21771 15.0406 8.35216 15.0406ZM9.62947 14.1135C9.62947 12.57 8.93479 12.2479 8.35216 12.2479C7.76673 12.2479 7.07205 12.5728 7.07205 14.1135C7.07205 15.6513 7.76673 15.9762 8.35216 15.9762C8.93479 15.9762 9.62947 15.6541 9.62947 14.1135ZM20.5314 18.8361V16.5784C20.5314 16.5704 20.5295 16.5649 20.5275 16.5592C20.5253 16.553 20.523 16.5466 20.523 16.5364V13.7801C20.5146 13.6569 20.4726 13.5028 20.3522 13.3712C20.2121 13.2255 19.96 13.1443 19.6155 13.1443L14.1113 13.1527H14.03C14.0232 13.1527 14.0159 13.1519 14.008 13.1511H14.008C13.9896 13.1491 13.9677 13.1468 13.9404 13.1527C13.8031 13.1527 13.4978 13.1863 13.3185 13.3487C13.1897 13.4804 13.1225 13.6737 13.1225 13.9538V18.8529L13.1224 18.8602C13.1213 18.9198 13.1159 19.2306 13.3101 19.4328C13.4586 19.5812 13.6939 19.6541 14.0384 19.6541H19.6155C19.7779 19.6625 20.1309 19.6373 20.3354 19.4412C20.4754 19.3095 20.5314 19.1135 20.5314 18.8361ZM16.9964 9.26471C17.7667 9.28992 19.058 9.59244 19.058 11.4412H19.0552V11.9146L14.7219 11.923V11.4244C14.7219 9.55883 15.9964 9.27311 16.7499 9.26471H16.9964Z" fill="#313235"/>
</svg>
