<svg width="24" height="24" fill="none" xmlns="http://www.w3.org/2000/svg"><path fill-rule="evenodd" clip-rule="evenodd" d="M19.242 7.76c.031.075.045.153.045.234V20.3a1.4 1.4 0 0 1-1.386 1.383H5.909c-.74 0-1.387-.647-1.387-1.383V3.38c0-.722.662-1.38 1.387-1.38h7.3c.227 0 .442.087.605.247l5.213 5.126a.887.887 0 0 1 .215.386Zm-1.148 12.542c0 .073-.093.169-.19.169H5.908c-.092 0-.19-.11-.19-.169V3.384c.005-.056.12-.168.19-.168h6.437v2.218c0 .995.339 1.852.977 2.482.634.622 1.493.952 2.493.952h2.278v11.434ZM13.539 3.67l4.05 3.984h-1.77c-.683 0-1.257-.213-1.664-.611-.403-.395-.616-.95-.616-1.608V3.67Zm1.992 9.05h-.838l.34-.988.498.989Zm-1.171.97-.924 2.714 1.94-2.714H14.36Zm-5.919 0h1.05l.942 2.76-1.992-2.76ZM10 12.216l.963-1.23h-1.38c-.004.003.417 1.23.417 1.23Zm4.277-1.227-.423 1.232-.978-1.232h1.4Zm-3.448 1.73h2.19l-1.1-1.388-1.09 1.389Zm-.325.97h2.846l-1.423 4.165-1.423-4.165Zm-1.686-1.975-.524 1.006h.865l-.341-1.006Zm7.977 1.49a.49.49 0 0 0-.052-.212c0-.003-.001-.005-.007-.009l-1.364-2.692-.003-.01a.026.026 0 0 0-.008-.01l-.003-.002a.471.471 0 0 0-.14-.157l-.028-.017-.028-.017a.131.131 0 0 1-.025-.015.13.13 0 0 0-.031-.018.356.356 0 0 0-.11-.019h-.019c-.005 0-.01-.003-.015-.005-.005-.002-.01-.004-.016-.004H8.906a.038.038 0 0 0-.018.006.063.063 0 0 1-.013.005l-.02.001c-.036.002-.07.004-.106.016-.01.004-.018.01-.026.017-.009.006-.017.012-.027.016a.46.46 0 0 0-.193.18l-.01.009c-.004.003-.008.006-.01.01L7.074 12.98l-.001.009c0 .003 0 .005-.002.008a.493.493 0 0 0-.049.218l.002.012c0 .01.003.02.006.03a.163.163 0 0 1 .005.02.375.375 0 0 0 .064.18c.003.004.004.01.005.015 0 .007.002.015.007.02l4.425 6.135h.003c.04.054.09.096.149.13l.042.019c.059.03.126.045.193.047h.003a.504.504 0 0 0 .193-.047l.042-.02a.438.438 0 0 0 .149-.129s.002 0 .002-.002l4.39-6.135c.004-.005.005-.012.007-.018.001-.006.003-.013.007-.018a.477.477 0 0 0 .061-.174.185.185 0 0 1 .006-.023.122.122 0 0 0 .005-.033c.003-.008.006-.014.006-.02Z" fill="#313235"/></svg>