<svg width="24" height="24" viewBox="0 0 24 24" fill="none" xmlns="http://www.w3.org/2000/svg">
<path fill-rule="evenodd" clip-rule="evenodd" d="M21.6666 7.78703C21.6975 7.85986 21.7143 7.94109 21.7143 8.02512V20.3304C21.7143 21.0811 21.07 21.7141 20.3053 21.7141H8.12328C7.37258 21.7141 6.71432 21.0671 6.71432 20.3304L6.74794 17.5573H4.44543C3.1121 17.5573 2.02527 16.4677 2.02527 15.1315V11.0391C2.02527 9.70299 3.1121 8.61335 4.44543 8.61335H6.71152V3.40889C6.71152 2.68341 7.38099 2.02515 8.12048 2.02515H15.535C15.7675 2.02515 15.986 2.11198 16.1485 2.27445L21.4454 7.40047C21.5602 7.50972 21.6246 7.64417 21.6666 7.78703ZM20.3053 20.4985C20.4033 20.4985 20.4986 20.4032 20.4986 20.3304V8.89627H18.1849C17.1709 8.89627 16.2941 8.56573 15.6527 7.94389C15.0028 7.31364 14.6583 6.4565 14.6583 5.46211V3.24363H8.12328C8.05045 3.24363 7.93561 3.35287 7.93001 3.4117V8.61335H14.2941C15.6303 8.61335 16.7143 9.70299 16.7143 11.0391V15.1315C16.7143 16.4677 15.6275 17.5573 14.2941 17.5573H7.96362L7.93001 20.336C7.93001 20.3864 8.03085 20.4957 8.12328 20.4957H20.3053V20.4985ZM3.24095 15.1343C3.24095 15.801 3.78156 16.3444 4.44823 16.3444H14.2941C14.9608 16.3444 15.5014 15.801 15.5014 15.1343V11.0419C15.5014 10.3753 14.9608 9.83184 14.2941 9.83184H4.44823C3.78156 9.83184 3.24095 10.3753 3.24095 11.0419V15.1343ZM19.9859 7.67778L19.9888 7.68058V7.67778H19.9859ZM19.9859 7.67778L15.874 3.69461V5.45931C15.874 6.11477 16.0896 6.67219 16.4958 7.06714C16.9104 7.4677 17.493 7.67778 18.1849 7.67778H19.9859ZM6.01125 11.3332H4.71713V15.1035H5.57707V13.8038H6.18211C6.67791 13.8038 7.01965 13.689 7.24093 13.4397C7.42861 13.2296 7.52104 12.9271 7.52104 12.5237C7.52104 12.1203 7.42301 11.829 7.21852 11.6414C6.97483 11.4145 6.60228 11.3332 6.01125 11.3332ZM6.50144 13.0139C6.3922 13.1175 6.27455 13.1568 6.00004 13.1568V13.1596H5.57427V11.9579H5.97763C6.24374 11.9579 6.4034 11.9971 6.50704 12.0895C6.60508 12.182 6.6499 12.3304 6.6499 12.5349C6.6499 12.7562 6.59948 12.9159 6.50144 13.0139ZM8.13169 11.3332H9.4258C10.0168 11.3332 10.3894 11.4145 10.6331 11.6414C10.8376 11.829 10.9356 12.1203 10.9356 12.5237C10.9356 12.9271 10.8432 13.2296 10.6555 13.4397C10.4342 13.689 10.0925 13.8038 9.59667 13.8038H8.99163V15.1035H8.13169V11.3332ZM9.91599 13.0139C9.80675 13.1175 9.6891 13.1568 9.41459 13.1568V13.1596H8.98882V11.9579H9.39218C9.65829 11.9579 9.81795 11.9971 9.92159 12.0895C10.0196 12.182 10.0645 12.3304 10.0645 12.5349C10.0645 12.7562 10.014 12.9159 9.91599 13.0139ZM12.381 11.9551H11.2129V11.3332H14.4482L14.381 11.9551H13.2409V15.1035H12.381V11.9551Z" fill="#313235"/>
</svg>
