<svg width="24" height="24" viewBox="0 0 24 24" fill="none" xmlns="http://www.w3.org/2000/svg">
<path fill-rule="evenodd" clip-rule="evenodd" d="M21.7045 12.9677C21.7031 12.9761 21.7017 12.9845 21.7031 12.9943C21.7042 13.0068 21.706 13.0197 21.7079 13.0329C21.711 13.0554 21.7143 13.0789 21.7143 13.1035V20.2324C21.7143 21.0363 21.0645 21.689 20.2634 21.689H3.47625C2.67513 21.689 2.02527 21.0363 2.02527 20.2324V13.1035C2.02527 13.0676 2.03037 13.033 2.03541 12.9988C2.03784 12.9823 2.04025 12.9659 2.04208 12.9495C2.04208 12.9394 2.04118 12.9293 2.04028 12.9192C2.03894 12.9041 2.03759 12.889 2.03927 12.8738L3.63311 3.39764C3.66392 2.62173 4.30258 2.00269 5.08129 2.00269L18.6611 2.01669C19.4146 2.01669 20.0421 2.58252 20.1905 3.39204L21.7059 12.9411C21.7073 12.9509 21.7059 12.9593 21.7045 12.9677ZM4.87961 3.55731C4.88521 3.52089 4.88801 3.48728 4.88801 3.45367C4.88801 3.34722 4.97485 3.26039 5.08129 3.26039L18.6611 3.27439C18.7928 3.27439 18.9188 3.42005 18.9552 3.60213L20.2326 11.6497H14.0925C13.7452 11.6497 13.465 11.9327 13.465 12.28V13.1455C13.465 13.9691 12.7956 14.6357 11.9692 14.6357H11.776C10.9524 14.6357 10.283 13.9663 10.283 13.1455V12.28C10.283 11.9327 10.0029 11.6497 9.65552 11.6497H3.52107L4.87961 3.55731ZM20.2634 20.4285H3.48185C3.37821 20.4285 3.28577 20.336 3.28577 20.2324V13.1035C3.28577 13.0027 3.37821 12.913 3.48185 12.913H9.02807V13.1511C9.02807 14.6666 10.2606 15.9018 11.776 15.9018H11.9692C13.4847 15.9018 14.7199 14.6694 14.7199 13.1511V12.913H20.2662C20.3782 12.913 20.4426 12.9943 20.4566 13.0503L20.4622 20.2352C20.4594 20.3388 20.3726 20.4285 20.2634 20.4285Z" fill="#313235"/>
</svg>
