<svg width="24" height="24" viewBox="0 0 24 24" fill="none" xmlns="http://www.w3.org/2000/svg">
<path fill-rule="evenodd" clip-rule="evenodd" d="M21.6665 7.78709C21.6973 7.85992 21.7141 7.94115 21.7141 8.02518V20.3305C21.7141 21.0812 21.0699 21.7142 20.3052 21.7142H8.12316C7.37246 21.7142 6.7142 21.0671 6.7142 20.3305L6.74782 17.5574H4.4453C3.11198 17.5574 2.02515 16.4677 2.02515 15.1316V11.0392C2.02515 9.70305 3.11198 8.61342 4.4453 8.61342H6.7114V3.40896C6.7114 2.68347 7.38087 2.02521 8.12036 2.02521H15.5349C15.7674 2.02521 15.9859 2.11204 16.1483 2.27451L21.4452 7.40054C21.5601 7.50978 21.6245 7.64423 21.6665 7.78709ZM20.3052 20.4985C20.4032 20.4985 20.4985 20.4033 20.4985 20.3305V8.89633H18.1847C17.1707 8.89633 16.294 8.5658 15.6525 7.94395C15.0027 7.3137 14.6581 6.45656 14.6581 5.46217V3.24369H8.12316C8.05033 3.24369 7.93549 3.35293 7.92988 3.41176V8.61341H14.294C15.6301 8.61341 16.7142 9.70305 16.7142 11.0392V15.1316C16.7142 16.4677 15.6273 17.5574 14.294 17.5574H7.9635L7.92988 20.3361C7.92988 20.3865 8.03072 20.4957 8.12316 20.4957H20.3052V20.4985ZM3.24083 15.1344C3.24083 15.8011 3.78144 16.3445 4.44811 16.3445H14.294C14.9607 16.3445 15.5013 15.8011 15.5013 15.1344V11.042C15.5013 10.3753 14.9607 9.8319 14.294 9.8319H4.44811C3.78144 9.8319 3.24083 10.3753 3.24083 11.042V15.1344ZM19.9858 7.67785L19.9887 7.68065V7.67785H19.9858ZM19.9858 7.67785L15.8738 3.69467V5.45937C15.8738 6.11483 16.0895 6.67225 16.4957 7.0672C16.9102 7.46776 17.4929 7.67785 18.1847 7.67785H19.9858ZM6.01112 11.3333H4.71701V15.1036H5.57695V13.8039H6.18199C6.67779 13.8039 7.01952 13.689 7.24081 13.4397C7.42848 13.2296 7.52092 12.9271 7.52092 12.5238C7.52092 12.1204 7.42288 11.8291 7.2184 11.6414C6.97471 11.4145 6.60216 11.3333 6.01112 11.3333ZM6.50132 13.014C6.39207 13.1176 6.27443 13.1568 5.99992 13.1568V13.1596H5.57415V11.9579H5.97751C6.24362 11.9579 6.40328 11.9972 6.50692 12.0896C6.60496 12.182 6.64978 12.3305 6.64978 12.535C6.64978 12.7563 6.59936 12.9159 6.50132 13.014ZM8.13156 11.3333H9.42568C10.0167 11.3333 10.3893 11.4145 10.633 11.6414C10.8374 11.8291 10.9355 12.1204 10.9355 12.5238C10.9355 12.9271 10.843 13.2296 10.6554 13.4397C10.4341 13.689 10.0923 13.8039 9.59654 13.8039H8.9915V15.1036H8.13156V11.3333ZM9.91587 13.014C9.80663 13.1176 9.68898 13.1568 9.41447 13.1568V13.1596H8.9887V11.9579H9.39206C9.65817 11.9579 9.81783 11.9972 9.92147 12.0896C10.0195 12.182 10.0643 12.3305 10.0643 12.535C10.0643 12.7563 10.0139 12.9159 9.91587 13.014ZM12.3808 11.9551H11.2128V11.3333H14.4481L14.3808 11.9551H13.2408V15.1036H12.3808V11.9551Z" fill="#313235"/>
</svg>
