<svg width="24" height="24" viewBox="0 0 24 24" fill="none" xmlns="http://www.w3.org/2000/svg">
<path fill-rule="evenodd" clip-rule="evenodd" d="M21.6385 7.78708C21.6693 7.85991 21.6861 7.94114 21.6861 8.02518V20.3304C21.6861 21.0811 21.0418 21.7142 20.2771 21.7142H8.0951C7.3444 21.7142 6.68894 21.0671 6.68894 20.3304L6.72255 17.5573H4.42284C3.08952 17.5573 2.00269 16.4677 2.00269 15.1316V11.0364C2.00269 9.70024 3.08952 8.61061 4.42284 8.61061H6.68894V3.40615C6.68894 2.68346 7.35841 2.0224 8.0951 2.0224H15.5096C15.7421 2.0224 15.9606 2.10923 16.1231 2.2717L21.42 7.39773C21.532 7.50697 21.5964 7.64422 21.6385 7.78708ZM20.2771 20.4985C20.3752 20.4985 20.4704 20.4033 20.4704 20.3304V8.89632H18.1567C17.1427 8.89632 16.2659 8.56579 15.6217 7.94394C14.9718 7.31369 14.6273 6.45655 14.6273 5.46216V3.24368H8.0923C8.01947 3.24368 7.90462 3.35293 7.89902 3.41175V8.61341H14.2631C15.5993 8.61341 16.6833 9.70304 16.6833 11.0392V15.1344C16.6833 16.4705 15.5965 17.5601 14.2631 17.5601H7.93263L7.89902 20.3388C7.89902 20.3893 7.99986 20.4985 8.0923 20.4985H20.2771ZM3.21276 15.1344C3.21276 15.8011 3.75338 16.3445 4.42004 16.3445H14.2659C14.9326 16.3445 15.4732 15.8011 15.4732 15.1344V11.0392C15.4732 10.3725 14.9326 9.82909 14.2659 9.82909H4.42004C3.75338 9.82909 3.21276 10.3725 3.21276 11.0392V15.1344ZM15.8458 3.69746L19.9606 7.68064H18.1595C17.4648 7.68064 16.8822 7.47056 16.4676 7.07C16.0615 6.67504 15.8458 6.12042 15.8458 5.46216V3.69746ZM13.4424 14.0896H11.8234C11.8122 14.0532 11.801 13.9719 11.801 13.9019C11.801 13.7506 11.829 13.5798 11.913 13.3417L12.6777 11.2521H13.42L12.5909 13.5125H13.4424V12.6358H14.2127V13.5125H14.6441V14.0896H14.2127V14.9355H13.4424V14.0896ZM4.18195 11.2549H4.84301L6.00547 13.3109L7.20715 11.2549H7.8542V14.9355H7.0839V12.8151L6.31919 14.0952H5.67214L4.88503 12.7927V14.9355H4.18195V11.2549ZM8.65532 11.2549H9.91862C10.4956 11.2549 10.8598 11.3361 11.0979 11.5574C11.2968 11.7394 11.3948 12.0252 11.3948 12.4173C11.3948 12.8095 11.3024 13.1064 11.1203 13.3109C10.9046 13.5518 10.5713 13.6666 10.0867 13.6666H9.49565V14.9355H8.65532V11.2549ZM10.3948 12.8963C10.2856 12.9999 10.1735 13.0364 9.90461 13.0364H9.49285V11.8627H9.885C10.1427 11.8627 10.2996 11.8991 10.4004 11.9915C10.4984 12.084 10.5405 12.2296 10.5405 12.4285C10.5405 12.6442 10.4928 12.7983 10.3948 12.8963Z" fill="#313235"/>
</svg>
