<svg width="24" height="24" viewBox="0 0 24 24" fill="none" xmlns="http://www.w3.org/2000/svg">
<path fill-rule="evenodd" clip-rule="evenodd" d="M21.6385 7.78709C21.6693 7.85992 21.6861 7.94115 21.6861 8.02518V20.3305C21.6861 21.0812 21.0418 21.7142 20.2771 21.7142H8.0951C7.3444 21.7142 6.68894 21.0671 6.68894 20.3305L6.72255 17.5574H4.42284C3.08952 17.5574 2.00269 16.4677 2.00269 15.1316V11.0392C2.00269 9.70305 3.08952 8.61342 4.42284 8.61342H6.68894V3.40896C6.68894 2.68347 7.35841 2.02521 8.0951 2.02521H15.5096C15.7393 2.02521 15.9662 2.11764 16.1287 2.27731L21.42 7.40054C21.532 7.50978 21.5964 7.64423 21.6385 7.78709ZM20.2771 20.4985C20.3752 20.4985 20.4704 20.4033 20.4704 20.3305V8.89633H18.1567C17.1427 8.89633 16.2659 8.5658 15.6217 7.94395C14.9718 7.3137 14.6273 6.45656 14.6273 5.46217V3.24369H8.0923C8.01947 3.24369 7.90462 3.35293 7.89902 3.41176V8.61341H14.2631C15.5993 8.61341 16.6833 9.70305 16.6833 11.0392V15.1316C16.6833 16.4677 15.5965 17.5574 14.2631 17.5574H7.93263L7.89902 20.3361C7.89902 20.3865 7.99986 20.4957 8.0923 20.4957H20.2771V20.4985ZM3.21276 15.1344C3.21276 15.8011 3.75338 16.3445 4.42004 16.3445H14.2659C14.9326 16.3445 15.4732 15.8011 15.4732 15.1344V11.042C15.4732 10.3753 14.9326 9.8319 14.2659 9.8319H4.42004C3.75338 9.8319 3.21276 10.3753 3.21276 11.042V15.1344ZM15.8458 3.69747L19.9606 7.68065H18.1595C17.4648 7.68065 16.8822 7.47056 16.4676 7.07C16.0615 6.67505 15.8458 6.12043 15.8458 5.46217V3.69747ZM12.1791 14.9943V14.4117C12.3948 14.4509 12.6497 14.4761 12.9186 14.4761C13.2211 14.4761 13.4004 14.4369 13.5292 14.3529C13.6581 14.2661 13.7281 14.126 13.7281 13.9271C13.7281 13.7338 13.6581 13.6022 13.5433 13.521C13.4088 13.4229 13.2015 13.3921 12.8234 13.3921H12.7197V12.8515H12.8486C13.1875 12.8515 13.3612 12.8095 13.4928 12.6946C13.5797 12.619 13.6385 12.4958 13.6385 12.3165C13.6385 12.1764 13.5993 12.056 13.5152 11.9803C13.406 11.8823 13.2239 11.8403 12.9326 11.8403C12.6945 11.8403 12.4256 11.8627 12.2099 11.8935V11.3221C12.4592 11.2689 12.7729 11.2409 13.0587 11.2409C13.5236 11.2409 13.9186 11.3501 14.1455 11.577C14.3024 11.7339 14.4004 11.9495 14.4004 12.2577C14.4004 12.6414 14.2323 12.9103 13.9102 13.0728C14.2996 13.2128 14.532 13.5042 14.532 13.9859C14.532 14.2717 14.4452 14.521 14.2715 14.7002C14.0278 14.9551 13.6329 15.084 13.0727 15.084C12.7505 15.0812 12.4256 15.0476 12.1791 14.9943ZM4.26878 11.3109H4.93265L6.10071 13.3753L7.30518 11.3109H7.95224V15.0055H7.18194V12.8767L6.41443 14.1624H5.76738L4.97746 12.8543V15.0055H4.26878V11.3109ZM8.75616 11.3109H10.0251C10.6021 11.3109 10.969 11.3921 11.2071 11.6134C11.406 11.7983 11.504 12.084 11.504 12.4789C11.504 12.8739 11.4116 13.1708 11.2295 13.3753C11.0139 13.619 10.6777 13.731 10.1931 13.731H9.59929V15.0055H8.75616V11.3109ZM10.5069 12.9579C10.4004 13.0588 10.2856 13.098 10.0167 13.098V13.1008H9.59929V11.9215H9.99425C10.252 11.9215 10.4088 11.9579 10.5125 12.0504C10.6105 12.1428 10.6525 12.2885 10.6525 12.4873C10.6525 12.703 10.6049 12.8599 10.5069 12.9579Z" fill="#313235"/>
</svg>
