<svg width="24" height="24" viewBox="0 0 24 24" fill="none" xmlns="http://www.w3.org/2000/svg">
<path fill-rule="evenodd" clip-rule="evenodd" d="M21.6386 7.78709C21.6694 7.85992 21.6862 7.94115 21.6862 8.02518V20.3305C21.6862 21.0812 21.0419 21.7142 20.2772 21.7142H8.09521C7.34452 21.7142 6.68625 21.0671 6.68625 20.3305L6.71987 17.5602H4.42016C3.08683 17.5602 2 16.4705 2 15.1344V11.0392C2 9.70305 3.08683 8.61342 4.42016 8.61342H6.68625V3.40896C6.68625 2.68347 7.35572 2.02521 8.09521 2.02521H15.5097C15.7394 2.02521 15.9551 2.11204 16.1204 2.2689L21.4201 7.40054C21.5321 7.50978 21.5966 7.64423 21.6386 7.78709ZM20.2772 20.4985C20.3753 20.4985 20.4705 20.4033 20.4705 20.3305V8.89633H18.1596C17.1456 8.89633 16.2688 8.5658 15.6246 7.94395C14.9747 7.3137 14.6302 6.45656 14.6302 5.46217V3.24369H8.09521C8.02238 3.24369 7.90754 3.35293 7.90194 3.41176V8.61341H14.5994C15.9355 8.61341 17.0223 9.70305 17.0223 11.0392V15.1344C17.0223 16.4705 15.9355 17.5602 14.5994 17.5602H7.93275L7.89913 20.3389C7.89913 20.3893 7.99997 20.4985 8.09241 20.4985H20.2772ZM3.21288 15.1344C3.21288 15.8011 3.75349 16.3445 4.42016 16.3445H14.5994C15.2661 16.3445 15.8067 15.8011 15.8067 15.1344V11.0392C15.8067 10.3725 15.2661 9.8291 14.5994 9.8291H4.42016C3.75349 9.8291 3.21288 10.3725 3.21288 11.0392V15.1344ZM19.9606 7.67785L19.9635 7.68065V7.67785H19.9606ZM19.9606 7.67785L15.8487 3.69467V5.45937C15.8487 6.11763 16.0644 6.67225 16.4705 7.0672C16.8851 7.46776 17.4677 7.67785 18.1624 7.67785H19.9606ZM3.7675 11.4846H5.96637L5.91035 12.0224H4.50979V12.8123H5.63024V13.3697H4.50979V14.2016H5.99158V14.7394H3.7675V11.4846ZM6.5434 11.4846H7.08961L8.63303 13.5714V11.4846H9.28568V14.7422H8.68905L7.19326 12.7647V14.7422H6.5406V11.4846H6.5434ZM12.1932 11.4846H9.99436V14.7394H12.2184V14.2016H10.7367V13.3697H11.8571V12.8123H10.7367V12.0224H12.1372L12.1932 11.4846ZM13.5658 13.1176L12.5714 11.4846H13.3473L13.9943 12.5602L14.5854 11.4846H15.3753L14.3081 13.0784L15.3473 14.7394H14.5238L13.8767 13.6358L13.2913 14.7394H12.4874L13.5658 13.1176Z" fill="#313235"/>
</svg>
