<svg width="24" height="24" viewBox="0 0 24 24" fill="none" xmlns="http://www.w3.org/2000/svg">
<path fill-rule="evenodd" clip-rule="evenodd" d="M19.287 7.99717C19.287 7.91314 19.2702 7.83191 19.2394 7.75908C19.2001 7.61902 19.1357 7.48177 19.0265 7.37533L13.8136 2.2493C13.6512 2.08683 13.4355 2 13.2086 2H5.90889C5.1834 2 4.52234 2.65826 4.52234 3.38375V20.3024C4.52234 21.0391 5.16939 21.6862 5.90889 21.6862H17.9004C18.6511 21.6862 19.287 21.0531 19.287 20.3024V7.99717ZM18.0937 20.3024V8.86832H15.8164C14.8164 8.86832 13.9565 8.53779 13.3234 7.91594C12.6848 7.28569 12.3458 6.42855 12.3458 5.43416V3.21568H5.91169C5.83886 3.21568 5.72682 3.32492 5.72121 3.38375V20.3024C5.72121 20.3613 5.81925 20.4705 5.91169 20.4705H17.9032C17.9985 20.4705 18.0937 20.3753 18.0937 20.3024ZM13.5391 3.66946V5.43416C13.5391 6.09242 13.752 6.64704 14.1525 7.042C14.5587 7.43975 15.1329 7.65264 15.8164 7.65264H17.5895L13.5391 3.66946ZM14.7296 12.3193V11.7086L10.9873 10.6778V11.2885L14.7296 12.3193ZM14.7296 17.5742C14.7296 18.1176 14.4691 18.3977 13.9565 18.4089V18.4117H13.8528C13.3402 18.4033 13.0825 18.1204 13.0825 17.5686C13.0825 17.3641 13.0825 16.7422 13.8388 16.7338H13.9509C14.4663 16.745 14.7296 17.0307 14.7296 17.5742ZM9.18899 16.4005C9.69038 16.3893 9.95089 16.1092 9.95089 15.5658C9.95089 15.0196 9.68758 14.7366 9.16938 14.7226H9.06013C8.30384 14.7282 8.30384 15.3529 8.30384 15.5546C8.30384 16.1064 8.56154 16.3893 9.07414 16.3977H9.18899V16.4005ZM15.766 11.4565C15.766 11.084 15.4915 10.7731 15.1357 10.7283L10.7996 9.52938L10.6652 9.50977C10.2674 9.50977 9.94529 9.8403 9.94529 10.2437V13.8347C9.70159 13.731 9.44109 13.6722 9.18899 13.6666H9.04613C8.2226 13.675 7.26182 14.1736 7.26182 15.5546C7.26182 16.9355 8.22821 17.4397 9.05173 17.4509H9.19459C9.9901 17.4341 10.9033 16.9579 10.9705 15.7058L10.9845 12.3753L14.7268 13.4089V15.8459C14.4831 15.7422 14.2226 15.6834 13.9705 15.6778L13.8276 15.675C13.0069 15.6806 12.0433 16.182 12.0433 17.563C12.0433 18.9439 13.0097 19.4481 13.8332 19.4593H13.9761C14.8024 19.4453 15.766 18.9411 15.766 17.5714V11.4565Z" fill="#313235"/>
</svg>
