<svg width="24" height="24" viewBox="0 0 24 24" fill="none" xmlns="http://www.w3.org/2000/svg">
<path fill-rule="evenodd" clip-rule="evenodd" d="M21.4229 7.40328C21.5938 7.57134 21.6862 7.79263 21.6862 8.02512V20.3304C21.6862 21.0811 21.0419 21.7141 20.2772 21.7141H8.09521C7.34452 21.7141 6.68625 21.0671 6.68625 20.3304L6.71987 17.5573H4.42016C3.08683 17.5573 2 16.4677 2 15.1315V11.0363C2 9.70018 3.08683 8.61055 4.42016 8.61055H6.68625V3.40889C6.68625 2.68341 7.35852 2.02515 8.09521 2.02515H15.5097C15.7394 2.02515 15.9551 2.11198 16.1204 2.26884L21.4229 7.40328ZM20.2772 20.4985C20.3753 20.4985 20.4705 20.4032 20.4705 20.3304V8.89627H18.1596C17.1456 8.89627 16.2688 8.56573 15.6246 7.94389C14.9747 7.31644 14.633 6.4565 14.633 5.46211V3.24363H8.09801C8.02518 3.24363 7.91034 3.35287 7.90474 3.4117V8.61335H14.2689C15.605 8.61335 16.689 9.70299 16.689 11.0391V15.1343C16.689 16.4705 15.6022 17.5601 14.2689 17.5601H7.93835L7.90474 20.3388C7.90474 20.3892 8.00558 20.4985 8.09801 20.4985H20.2772ZM3.21288 15.1343C3.21288 15.801 3.75349 16.3444 4.42016 16.3444H14.2661C14.9327 16.3444 15.4733 15.801 15.4733 15.1343V11.0391C15.4733 10.3725 14.9327 9.82904 14.2661 9.82904H4.42016C3.75349 9.82904 3.21288 10.3725 3.21288 11.0391V15.1343ZM15.8487 3.69741L19.9635 7.68058H18.1624C17.4677 7.68058 16.8851 7.4705 16.4705 7.06994C16.0644 6.67499 15.8487 6.12037 15.8487 5.46211V3.69741ZM8.78709 11.2828H9.63302V14.9859H8.78709V11.2828ZM5.32772 14.4901L7.12603 11.9075H5.38094V11.2856H8.16524V11.8038L6.39494 14.364H8.17644V14.9859H5.32772V14.4901ZM11.7142 11.2828H10.4425H10.4369V14.9859H11.2829V13.7086H11.8795C12.3669 13.7086 12.703 13.5937 12.9187 13.35C13.1036 13.1427 13.196 12.8458 13.196 12.4509C13.196 12.0559 13.1008 11.7702 12.8991 11.5853C12.661 11.364 12.2941 11.2828 11.7142 11.2828ZM11.7058 13.0755C11.9775 13.0755 12.0896 13.0363 12.1988 12.9355C12.2969 12.8374 12.3445 12.6806 12.3445 12.4649C12.3445 12.266 12.3025 12.1175 12.2044 12.0251C12.1008 11.9327 11.9439 11.8963 11.6834 11.8963H11.2885V13.0783H11.7058V13.0755Z" fill="#313235"/>
</svg>
