<svg width="24" height="24" fill="none" xmlns="http://www.w3.org/2000/svg"><path fill-rule="evenodd" clip-rule="evenodd" d="M21.704 12.968c-.001.008-.002.017-.001.026l.005.04a.494.494 0 0 1 .006.07v7.129c0 .803-.65 1.456-1.45 1.456H3.475a1.454 1.454 0 0 1-1.45-1.456v-7.13c0-.035.004-.07.01-.104l.006-.05c0-.01 0-.02-.002-.03-.001-.015-.003-.03 0-.045l1.593-9.476c.03-.776.67-1.395 1.448-1.395l13.58.014c.753 0 1.381.566 1.53 1.375l1.515 9.55c.001.009 0 .017-.002.026ZM4.88 3.558a.674.674 0 0 0 .009-.104c0-.107.087-.193.193-.193l13.58.014c.132 0 .258.145.294.327l1.277 8.048h-6.14a.629.629 0 0 0-.627.63v.866c0 .823-.67 1.49-1.496 1.49h-.193c-.824 0-1.493-.67-1.493-1.49v-.866c0-.347-.28-.63-.628-.63H3.521l1.358-8.093Zm15.384 16.87H3.482a.202.202 0 0 1-.196-.195v-7.13a.2.2 0 0 1 .196-.19h5.546v.238a2.753 2.753 0 0 0 2.748 2.751h.193a2.754 2.754 0 0 0 2.75-2.75v-.239h5.547c.112 0 .177.081.19.137l.006 7.185a.2.2 0 0 1-.199.194Z" fill="#313235"/></svg>