<svg width="24" height="24" fill="none" xmlns="http://www.w3.org/2000/svg"><path fill-rule="evenodd" clip-rule="evenodd" d="M9.022 11.193h-.955L6.79 14.997h.829l.294-.955h1.235l.317.955h.93l-1.373-3.804Zm-.498.95.417 1.269h-.823l.395-1.27h.01Z" fill="#313235"/><path d="M10.849 11.193h.868v3.804h-.868v-3.804Z" fill="#313235"/><path fill-rule="evenodd" clip-rule="evenodd" d="M21.639 7.787c.03.073.047.154.047.238v12.306c0 .75-.644 1.383-1.409 1.383H8.095c-.75 0-1.409-.647-1.409-1.383l.034-2.774h-2.3A2.427 2.427 0 0 1 2 15.132v-4.093a2.427 2.427 0 0 1 2.42-2.426h2.266V3.41c0-.726.673-1.384 1.41-1.384h7.414c.232 0 .448.09.616.25L21.423 7.4c.11.109.174.243.216.386ZM20.277 20.5c.098 0 .194-.096.194-.168V8.896H18.16c-1.014 0-1.891-.33-2.535-.952-.65-.628-.992-1.487-.992-2.482V3.244H8.098c-.073 0-.188.109-.193.168v5.201h6.364c1.336 0 2.42 1.09 2.42 2.426v4.093a2.427 2.427 0 0 1-2.42 2.425h-6.33l-.034 2.78c0 .05.1.159.193.159h12.18v.003ZM3.213 15.133c0 .667.54 1.21 1.207 1.21h9.846a1.21 1.21 0 0 0 1.207-1.21v-4.092c0-.667-.54-1.21-1.207-1.21H4.42a1.21 1.21 0 0 0-1.207 1.21v4.092ZM15.849 3.697l4.114 3.984h-1.8c-.695 0-1.278-.21-1.692-.611-.407-.395-.622-.95-.622-1.608V3.697Z" fill="#313235"/></svg>