<svg width="24" height="24" viewBox="0 0 24 24" fill="none" xmlns="http://www.w3.org/2000/svg">
<path fill-rule="evenodd" clip-rule="evenodd" d="M21.6665 7.78709C21.6973 7.85992 21.7141 7.94115 21.7141 8.02518V20.3305C21.7141 21.0812 21.0699 21.7142 20.3052 21.7142H8.12316C7.37246 21.7142 6.7142 21.0671 6.7142 20.3305L6.74782 17.5574H4.4453C3.11198 17.5574 2.02515 16.4705 2.02515 15.1344V11.0392C2.02515 9.70305 3.11198 8.61342 4.4453 8.61342H6.7114V3.40896C6.7114 2.68347 7.38087 2.02521 8.12036 2.02521H15.5349C15.7674 2.02521 15.9859 2.11204 16.1483 2.27451L21.4452 7.40054C21.5601 7.50978 21.6245 7.64423 21.6665 7.78709ZM20.3052 20.4985C20.4032 20.4985 20.4985 20.4033 20.4985 20.3305V8.89633H18.1847C17.1707 8.89633 16.294 8.5658 15.6525 7.94395C15.0027 7.3137 14.6581 6.45656 14.6581 5.46217V3.24369H8.12316C8.05033 3.24369 7.93549 3.35293 7.92988 3.41176V8.61341H14.294C15.6301 8.61341 16.7142 9.70305 16.7142 11.0392V15.1344C16.7142 16.4705 15.6273 17.5574 14.294 17.5574H7.9635L7.92988 20.3361C7.92988 20.3865 8.03072 20.4957 8.12316 20.4957H20.3052V20.4985ZM3.24083 15.1344C3.24083 15.8011 3.78144 16.3417 4.44811 16.3417H14.294C14.9607 16.3417 15.5013 15.7983 15.5013 15.1344V11.0392C15.5013 10.3725 14.9607 9.8291 14.294 9.8291H4.44811C3.78144 9.8291 3.24083 10.3725 3.24083 11.0392V15.1344ZM19.9858 7.67785L19.9887 7.68065V7.67785H19.9858ZM19.9858 7.67785L15.8738 3.69467V5.45937C15.8738 6.11483 16.0895 6.67225 16.4957 7.0672C16.9102 7.46776 17.4929 7.67785 18.1847 7.67785H19.9858ZM11.4145 13.1932C11.4145 12.042 12.0223 11.2633 13.2744 11.2633C13.6385 11.2633 14.0755 11.3389 14.3108 11.4397L14.2044 12.0532C13.9411 11.9775 13.6245 11.9187 13.3332 11.9187C12.5909 11.9187 12.2856 12.3585 12.2856 13.1596C12.2856 13.5742 12.3388 13.9131 12.5013 14.1372C12.6357 14.3249 12.857 14.4341 13.21 14.4341C13.3444 14.4341 13.5265 14.4173 13.6553 14.3977V13.6246H13.1399V13.0224H14.4901V14.8991C14.1399 15.0055 13.5825 15.0868 13.1792 15.0868C11.8598 15.084 11.4145 14.3585 11.4145 13.1932ZM4.35007 11.3333H5.61337C6.18759 11.3333 6.55454 11.4145 6.78983 11.633C6.98871 11.8151 7.08675 12.1008 7.08675 12.493C7.08675 12.8851 6.99431 13.182 6.81224 13.3865C6.59656 13.6274 6.26322 13.7422 5.78143 13.7422H5.1904V15.0111H4.35007V11.3333ZM5.60216 13.112C5.87107 13.112 5.98311 13.0756 6.09236 12.9719C6.19039 12.8739 6.23801 12.7198 6.23801 12.5042C6.23801 12.3053 6.196 12.1596 6.09796 12.07C5.99712 11.9775 5.84026 11.9411 5.58255 11.9411H5.1904V13.112H5.60216ZM8.29683 11.3333H7.67778V15.0083H8.41448V12.7787L10.1035 15.0083H10.7758V11.3333H10.0391V13.6862L8.29683 11.3333Z" fill="#313235"/>
</svg>
