<svg width="24" height="24" viewBox="0 0 24 24" fill="none" xmlns="http://www.w3.org/2000/svg">
<path fill-rule="evenodd" clip-rule="evenodd" d="M19.1524 6.53763C19.2291 6.6486 19.3536 6.71725 19.4901 6.71725C19.5723 6.71725 19.6522 6.69171 19.7232 6.64301C19.91 6.50969 19.9555 6.25423 19.8278 6.06343C18.7006 4.40773 16.8606 3.0482 14.8985 2.42631C11.9712 1.50106 8.79892 2.0974 6.20136 4.06445C5.47733 4.61848 4.80998 5.24596 4.20569 5.93011C4.05482 6.10335 4.06599 6.3644 4.23682 6.51847L4.24481 6.52646C4.41244 6.67095 4.66789 6.65498 4.81557 6.48734C5.38314 5.8423 6.01377 5.25474 6.69549 4.73184C9.07752 2.92286 11.9824 2.37202 14.6542 3.22143C16.4463 3.78664 18.1275 5.02802 19.1524 6.53763ZM13.4847 21.9579C13.4528 21.9579 13.4193 21.9547 13.3874 21.9459C11.7812 21.5516 10.1312 20.691 8.73985 19.5182C5.64417 16.9085 3.16874 10.8565 6.15905 6.9328C7.82583 4.74621 10.7874 3.70681 13.5159 4.34546C13.5271 4.34546 17.7435 5.00407 18.9106 9.90333C18.9249 9.95123 19.3512 11.4928 18.5585 12.5753C18.09 13.2108 17.3236 13.5381 16.2811 13.5492C16.2986 13.5516 15.5634 13.6402 14.8793 13.083C14.2599 12.5833 13.8903 11.7403 13.7801 10.5819C13.7402 10.1732 13.5726 9.84905 13.2804 9.61913C12.894 9.32056 12.3033 9.2048 11.695 9.30938C11.5114 9.32615 10.1791 9.49379 10.0626 11.0186C9.92687 12.8028 11.3063 15.8324 14.6941 16.6675C14.9128 16.7353 15.035 16.9708 14.9671 17.1896C14.9041 17.3883 14.7053 17.5073 14.5009 17.473C10.6565 16.5198 9.09508 13.0176 9.25074 10.9507C9.38724 9.13615 10.8465 8.53981 11.5992 8.48073C12.4023 8.33863 13.2093 8.51187 13.7833 8.95413C14.2567 9.32375 14.5409 9.85463 14.6007 10.4965C14.6853 11.4026 14.9552 12.0668 15.3814 12.4188C15.6169 12.62 15.9235 12.7286 16.2332 12.7142C17.0506 12.703 17.599 12.4899 17.9064 12.0724C18.4508 11.3315 18.1275 10.1213 18.1243 10.1109C17.0793 5.73373 13.4081 5.16134 13.3714 5.15814C10.9032 4.58415 8.28563 5.49823 6.81124 7.43494C4.157 10.9196 6.49432 16.5389 9.2675 18.882C10.5623 19.9725 12.0958 20.7764 13.5813 21.1396C13.8025 21.1963 13.9358 21.4182 13.8847 21.6394C13.8424 21.8246 13.6747 21.9579 13.4847 21.9579ZM14.0523 19.7937C14.089 19.8048 14.1258 19.8104 14.1633 19.8104C14.3485 19.8072 14.5097 19.6827 14.5544 19.5063C14.6175 19.2883 14.4898 19.0584 14.271 18.9961C11.9002 18.3288 9.75365 16.5964 8.67439 14.4777C7.85138 12.8707 7.71487 11.175 8.28244 9.56485C8.83883 7.8788 10.6876 6.82982 12.5763 7.1204C14.5129 7.42137 16.02 9.07947 16.0065 10.8908C16.0033 11.1208 16.1845 11.3092 16.4128 11.3116H16.4144C16.6427 11.3092 16.8239 11.124 16.8239 10.8964C16.8439 8.68191 15.0294 6.66297 12.6977 6.29894C10.4242 5.94129 8.18346 7.23376 7.50413 9.29501C6.85993 11.1208 7.0132 13.0439 7.94158 14.8609C9.12621 17.1752 11.4683 19.0664 14.0523 19.7937ZM13.2373 14.6685C14.0387 15.3271 15.0406 15.656 16.23 15.656C16.665 15.6536 17.0993 15.6137 17.5336 15.537C17.5356 15.5365 17.5378 15.536 17.5402 15.5357L17.5469 15.5347C17.5526 15.534 17.5586 15.5332 17.5647 15.5315C17.789 15.4828 17.9343 15.2616 17.8856 15.0373C17.8377 14.8122 17.6158 14.6685 17.3915 14.7164C15.87 14.983 14.643 14.7475 13.757 14.0234C12.2977 12.8276 12.1892 10.6577 12.1892 10.6354C12.1788 10.4087 11.9904 10.2322 11.7637 10.2378C11.537 10.2498 11.3606 10.443 11.3693 10.6697L11.3695 10.6727C11.3769 10.8145 11.5031 13.243 13.2373 14.6685Z" fill="#313235"/>
</svg>
