<svg width="24" height="24" viewBox="0 0 24 24" fill="none" xmlns="http://www.w3.org/2000/svg">
<path fill-rule="evenodd" clip-rule="evenodd" d="M19.1523 6.53763C19.229 6.6486 19.3535 6.71725 19.49 6.71725C19.5722 6.71725 19.652 6.69171 19.7231 6.64301C19.9099 6.50969 19.9554 6.25423 19.8277 6.06343C18.7005 4.40773 16.8605 3.0482 14.8984 2.42631C11.9711 1.50106 8.7988 2.0974 6.20124 4.06445C5.47721 4.61848 4.80986 5.24596 4.20557 5.93011C4.0547 6.10335 4.06587 6.3644 4.2367 6.51847L4.24468 6.52646C4.41232 6.67095 4.66777 6.65498 4.81545 6.48734C5.38301 5.8423 6.01364 5.25474 6.69536 4.73184C9.07739 2.92286 11.9823 2.37202 14.6541 3.22143C16.4462 3.78664 18.1273 5.02802 19.1523 6.53763ZM13.4846 21.9579C13.4527 21.9579 13.4192 21.9547 13.3872 21.9459C11.7811 21.5516 10.1311 20.691 8.73973 19.5182C5.64405 16.9085 3.16862 10.8565 6.15893 6.9328C7.82571 4.74621 10.7873 3.70681 13.5158 4.34546C13.5269 4.34546 17.7434 5.00407 18.9104 9.90333C18.9248 9.95123 19.3511 11.4928 18.5584 12.5753C18.0898 13.2108 17.3235 13.5381 16.281 13.5492C16.2985 13.5516 15.5633 13.6402 14.8792 13.083C14.2597 12.5833 13.8901 11.7403 13.78 10.5819C13.7401 10.1732 13.5724 9.84905 13.2803 9.61913C12.8939 9.32056 12.3032 9.2048 11.6949 9.30938C11.5113 9.32615 10.179 9.49379 10.0625 11.0186C9.92675 12.8028 11.3062 15.8324 14.694 16.6675C14.9127 16.7353 15.0349 16.9708 14.967 17.1896C14.9039 17.3883 14.7052 17.5073 14.5008 17.473C10.6564 16.5198 9.09496 13.0176 9.25062 10.9507C9.38712 9.13615 10.8464 8.53981 11.5991 8.48073C12.4022 8.33863 13.2092 8.51187 13.7832 8.95413C14.2566 9.32375 14.5407 9.85463 14.6006 10.4965C14.6852 11.4026 14.955 12.0668 15.3813 12.4188C15.6168 12.62 15.9233 12.7286 16.2331 12.7142C17.0505 12.703 17.5989 12.4899 17.9062 12.0724C18.4506 11.3315 18.1273 10.1213 18.1242 10.1109C17.0792 5.73373 13.408 5.16134 13.3713 5.15814C10.903 4.58415 8.28551 5.49823 6.81111 7.43494C4.15687 10.9196 6.4942 16.5389 9.26738 18.882C10.5622 19.9725 12.0956 20.7764 13.5812 21.1396C13.8023 21.1963 13.9356 21.4182 13.8846 21.6394C13.8422 21.8246 13.6746 21.9579 13.4846 21.9579ZM14.0522 19.7937C14.0889 19.8048 14.1256 19.8104 14.1632 19.8104C14.3484 19.8072 14.5096 19.6827 14.5543 19.5063C14.6174 19.2883 14.4896 19.0584 14.2709 18.9961C11.9001 18.3288 9.75353 16.5964 8.67427 14.4777C7.85126 12.8707 7.71475 11.175 8.28232 9.56485C8.83871 7.8788 10.6875 6.82982 12.5762 7.1204C14.5128 7.42137 16.0199 9.07947 16.0064 10.8908C16.0032 11.1208 16.1844 11.3092 16.4127 11.3116H16.4143C16.6426 11.3092 16.8238 11.124 16.8238 10.8964C16.8437 8.68191 15.0293 6.66297 12.6975 6.29894C10.4241 5.94129 8.18333 7.23376 7.50401 9.29501C6.85981 11.1208 7.01307 13.0439 7.94146 14.8609C9.12609 17.1752 11.4682 19.0664 14.0522 19.7937ZM13.2372 14.6685C14.0386 15.3271 15.0404 15.656 16.2299 15.656C16.6649 15.6536 17.0992 15.6137 17.5334 15.537C17.5355 15.5365 17.5377 15.536 17.54 15.5357L17.5468 15.5347C17.5525 15.534 17.5585 15.5332 17.5646 15.5315C17.7889 15.4828 17.9342 15.2616 17.8855 15.0373C17.8376 14.8122 17.6157 14.6685 17.3913 14.7164C15.8698 14.983 14.6429 14.7475 13.7568 14.0234C12.2976 12.8276 12.189 10.6577 12.189 10.6354C12.1787 10.4087 11.9903 10.2322 11.7636 10.2378C11.5369 10.2498 11.3604 10.443 11.3692 10.6697L11.3694 10.6727C11.3767 10.8145 11.503 13.243 13.2372 14.6685Z" fill="#313235"/>
</svg>
