<svg width="24" height="24" viewBox="0 0 24 24" fill="none" xmlns="http://www.w3.org/2000/svg">
<path fill-rule="evenodd" clip-rule="evenodd" d="M5.31924 2H20.3276C21.0531 2 21.7142 2.7563 21.7142 3.58543V19.8375C21.7142 20.6974 21.0783 21.4229 20.3276 21.4229H9.29682C9.21839 21.4229 9.14556 21.4061 9.07553 21.3781C8.69178 21.5098 8.42007 21.5546 8.39767 21.5574C8.01951 21.6442 7.63016 21.6862 7.24361 21.6862C7.21734 21.6862 7.19038 21.6842 7.16309 21.6821C7.13508 21.68 7.10671 21.6778 7.07834 21.6778C7.07134 21.6778 7.06503 21.6785 7.05873 21.6792C7.05243 21.6799 7.04613 21.6806 7.03912 21.6806C7.02232 21.6806 7.00481 21.6778 6.9873 21.675C6.9698 21.6722 6.95229 21.6694 6.93548 21.6694C5.42848 21.5826 3.9579 20.8767 3.02793 19.6918C1.14558 17.2913 2.18479 13.8067 3.93269 11.6947V3.58543C3.93269 2.7563 4.59375 2 5.31924 2ZM20.4985 7.56581V3.58543C20.4985 3.40616 20.3612 3.24369 20.3052 3.22129H17.1203V7.55741L20.4985 7.56581ZM5.32204 3.22409H8.28562V7.5378L5.15397 7.5294V3.58263C5.15117 3.40616 5.28843 3.24089 5.32204 3.22409ZM5.63577 11.7003C3.81784 13.1905 2.26883 16.7479 3.98311 18.9327C4.14277 19.1372 4.33045 19.3137 4.53493 19.4762C4.49011 18.8851 4.66938 18.2773 5.08675 17.7983C5.2212 17.6442 5.37526 17.4986 5.54053 17.3725C6.32204 16.7619 6.02512 15.9215 5.98871 15.8263C5.90467 15.6134 5.94669 15.3669 6.09795 15.1961C6.24921 15.0224 6.4789 14.9468 6.70299 15.0056C7.27162 15.1512 7.85425 15.4678 8.33884 15.8935C9.2436 16.6918 9.97189 18.3697 9.58254 19.7675C9.7366 19.6666 9.89066 19.5518 10.0419 19.4117C10.5937 18.9047 10.9131 18.2241 10.9411 17.493C10.9663 16.7647 10.7002 16.0588 10.1848 15.5098C9.96909 15.2801 9.72259 15.0644 9.45369 14.8739C7.67498 13.577 7.35285 11.8459 7.49851 10.5742C6.84305 10.8487 6.20719 11.2325 5.63577 11.7003ZM17.1175 20.1988H20.3276C20.3696 20.1848 20.4985 20.0364 20.4957 19.8403V15.3613L17.1175 15.3445V20.1988ZM13.2688 14.098V8.84032C13.2688 8.82629 13.2653 8.81486 13.2618 8.80313C13.2589 8.7938 13.256 8.78427 13.2548 8.7731L20.4985 8.7899V14.1316L13.2688 14.098ZM15.9019 20.1988V15.3361L11.5629 15.3165C11.9747 15.9832 12.182 16.7507 12.154 17.5406C12.1175 18.549 11.689 19.4818 10.9663 20.1988H15.9019ZM9.5013 7.5406V3.22409H15.9019V7.55741L9.5013 7.5406ZM8.21839 9.05321C8.44248 8.99999 8.67778 9.07842 8.82624 9.25769C8.97189 9.43696 9.00551 9.68346 8.91867 9.89914C8.87666 9.99158 7.94108 12.2577 10.1652 13.8795C10.2504 13.9385 10.3305 14.0044 10.4108 14.0703L10.4108 14.0703C10.4335 14.0889 10.4561 14.1076 10.4789 14.126C10.5405 14.1036 10.6049 14.0868 10.675 14.0868H10.6778L12.0531 14.0924V8.84312C12.0531 8.82897 12.0567 8.81658 12.0602 8.80398C12.0631 8.79413 12.0659 8.78415 12.0671 8.77309L5.15397 8.75629V10.5434C6.09235 9.83472 7.16517 9.30531 8.21839 9.05321ZM7.10915 20.4509C6.96349 20.4565 6.81503 20.4453 6.66377 20.4089C6.66097 20.4089 6.33324 20.3473 6.04193 20.056C5.65537 19.6722 5.63296 19.0252 5.99431 18.6106C6.07274 18.521 6.16518 18.4341 6.27722 18.3473C6.93828 17.8319 7.20159 17.1876 7.26601 16.6078C7.35845 16.6722 7.44809 16.7451 7.53492 16.8179C8.24921 17.4481 8.85425 19.0028 8.224 19.8655C7.96909 20.2156 7.56293 20.4257 7.12036 20.4509H7.10915Z" fill="#313235"/>
</svg>
