<svg width="24" height="24" viewBox="0 0 24 24" fill="none" xmlns="http://www.w3.org/2000/svg">
<path fill-rule="evenodd" clip-rule="evenodd" d="M5.31936 2H20.3277C21.0532 2 21.7143 2.7563 21.7143 3.58543V19.8375C21.7143 20.6974 21.0784 21.4229 20.3277 21.4229H9.29694C9.21851 21.4229 9.14568 21.4061 9.07566 21.3781C8.6919 21.5098 8.4202 21.5546 8.39779 21.5574C8.01964 21.6442 7.63028 21.6862 7.24373 21.6862C7.21746 21.6862 7.19051 21.6842 7.16321 21.6821C7.1352 21.68 7.10683 21.6778 7.07846 21.6778C7.07146 21.6778 7.06516 21.6785 7.05885 21.6792C7.05255 21.6799 7.04625 21.6806 7.03925 21.6806C7.02244 21.6806 7.00493 21.6778 6.98743 21.675C6.96992 21.6722 6.95241 21.6694 6.93561 21.6694C5.42861 21.5826 3.95802 20.8767 3.02805 19.6918C1.1457 17.2913 2.18491 13.8067 3.93281 11.6947V3.58543C3.93281 2.7563 4.59387 2 5.31936 2ZM20.4986 7.56581V3.58543C20.4986 3.40616 20.3613 3.24369 20.3053 3.22129H17.1205V7.55741L20.4986 7.56581ZM5.32216 3.22409H8.28574V7.5378L5.1541 7.5294V3.58263C5.1513 3.40616 5.28855 3.24089 5.32216 3.22409ZM5.63589 11.7003C3.81796 13.1905 2.26895 16.7479 3.98323 18.9327C4.14289 19.1372 4.33057 19.3137 4.53505 19.4762C4.49023 18.8851 4.6695 18.2773 5.08687 17.7983C5.22132 17.6442 5.37538 17.4986 5.54065 17.3725C6.32216 16.7619 6.02524 15.9215 5.98883 15.8263C5.90479 15.6134 5.94681 15.3669 6.09807 15.1961C6.24933 15.0224 6.47902 14.9468 6.70311 15.0056C7.27174 15.1512 7.85437 15.4678 8.33896 15.8935C9.24372 16.6918 9.97201 18.3697 9.58266 19.7675C9.73672 19.6666 9.89078 19.5518 10.042 19.4117C10.5939 18.9047 10.9132 18.2241 10.9412 17.493C10.9664 16.7647 10.7003 16.0588 10.1849 15.5098C9.96921 15.2801 9.72271 15.0644 9.45381 14.8739C7.6751 13.577 7.35297 11.8459 7.49863 10.5742C6.84317 10.8487 6.20732 11.2325 5.63589 11.7003ZM17.1177 20.1988H20.3277C20.3698 20.1848 20.4986 20.0364 20.4958 19.8403V15.3613L17.1177 15.3445V20.1988ZM13.2689 14.098V8.84032C13.2689 8.82629 13.2655 8.81486 13.2619 8.80313C13.2591 8.7938 13.2562 8.78427 13.2549 8.7731L20.4986 8.7899V14.1316L13.2689 14.098ZM15.902 20.1988V15.3361L11.563 15.3165C11.9748 15.9832 12.1821 16.7507 12.1541 17.5406C12.1177 18.549 11.6891 19.4818 10.9664 20.1988H15.902ZM9.50143 7.5406V3.22409H15.902V7.55741L9.50143 7.5406ZM8.21852 9.05321C8.44261 8.99999 8.6779 9.07842 8.82636 9.25769C8.97202 9.43696 9.00563 9.68346 8.91879 9.89914C8.87678 9.99158 7.94121 12.2577 10.1653 13.8795C10.2505 13.9385 10.3306 14.0044 10.4109 14.0703L10.411 14.0703C10.4336 14.0889 10.4562 14.1076 10.479 14.126C10.5406 14.1036 10.6051 14.0868 10.6751 14.0868H10.6779L12.0532 14.0924V8.84312C12.0532 8.82897 12.0568 8.81658 12.0604 8.80398C12.0632 8.79413 12.066 8.78415 12.0672 8.77309L5.1541 8.75629V10.5434C6.09247 9.83472 7.1653 9.30531 8.21852 9.05321ZM7.10927 20.4509C6.96362 20.4565 6.81516 20.4453 6.6639 20.4089C6.6611 20.4089 6.33337 20.3473 6.04205 20.056C5.6555 19.6722 5.63309 19.0252 5.99443 18.6106C6.07286 18.521 6.1653 18.4341 6.27734 18.3473C6.93841 17.8319 7.20171 17.1876 7.26614 16.6078C7.35857 16.6722 7.44821 16.7451 7.53504 16.8179C8.24933 17.4481 8.85437 19.0028 8.22412 19.8655C7.96922 20.2156 7.56305 20.4257 7.12048 20.4509H7.10927Z" fill="#313235"/>
</svg>
