<svg width="24" height="24" fill="none" xmlns="http://www.w3.org/2000/svg"><path fill-rule="evenodd" clip-rule="evenodd" d="M16.905 6.807c2.325-.656 4.098.358 4.748 2.722.647 2.37-.356 4.18-2.684 4.838-.31.081-.63.123-.952.126.342.283.642.585.857.91v.003c.661.995.916 2.025.74 2.975-.177.955-.787 1.812-1.762 2.485-.787.546-1.577.815-2.325.815-1.149 0-2.202-.63-3.023-1.86a4.238 4.238 0 0 1-.462-1.003 4.386 4.386 0 0 1-.47 1.02c-.661.991-1.504 1.613-2.44 1.792-.19.04-.387.056-.583.056-.762 0-1.554-.274-2.325-.812C4.233 19.5 3.85 17.462 5.202 15.42a4.31 4.31 0 0 1 .843-.905 3.889 3.889 0 0 1-1.014-.134c-2.325-.658-3.325-2.468-2.678-4.838.314-1.156.922-2.02 1.75-2.495.83-.474 1.866-.552 2.998-.227.457.131.919.392 1.373.714-.196-.557-.322-1.11-.32-1.616C8.154 3.468 9.597 2 12.011 2h.003c2.412.011 3.846 1.485 3.838 3.944 0 .49-.126 1.028-.317 1.574.454-.322.916-.582 1.37-.711Zm-2.277-.869c.005-1.753-.9-2.683-2.62-2.691-1.72 0-2.63.927-2.63 2.677-.005.81.51 2.068 1.42 3.499a.226.226 0 0 1 .045-.012l.023-.005c.14-.045.286-.078.442-.106l.054-.009.053-.008a3.948 3.948 0 0 1 1.165-.003c.045.006.09.014.134.023.132.022.264.053.393.092a.416.416 0 0 0 .037.008.304.304 0 0 1 .052.014c.916-1.434 1.432-2.686 1.432-3.479Zm.319 6.765c.03-.342.022-.683-.022-1.022l-.014-.084a3.423 3.423 0 0 0-.09-.42l-.016-.057a3.044 3.044 0 0 0-.14-.375 2.224 2.224 0 0 0-.177-.322l-.05-.081c-.008-.01-.014-.02-.021-.032-.01-.015-.019-.031-.03-.044 1.084-1.232 2.103-2.045 2.843-2.255 1.658-.473 2.779.171 3.24 1.855.463 1.689-.17 2.832-1.828 3.305-.751.21-2.081.042-3.695-.468Zm3.465 5.445c-.118.63-.538 1.197-1.246 1.687-1.42.983-2.681.736-3.648-.715-.465-.697-.73-2.103-.745-3.899a.313.313 0 0 0 .042-.012c.011-.004.022-.008.034-.01.146-.031.288-.073.429-.126l.074-.031c.024-.01.049-.021.074-.03.12-.054.235-.116.342-.183.02-.014.04-.026.06-.037l.049-.03c.134-.098.258-.205.37-.325.013-.015.025-.032.037-.048a2.72 2.72 0 0 0 .257-.36c.007-.012.015-.022.022-.032l.023-.03c1.633.677 2.812 1.445 3.28 2.142.479.723.664 1.41.546 2.04Zm-9.507 2.258c.62-.12 1.177-.546 1.658-1.269.462-.697.729-2.1.74-3.899a.545.545 0 0 1-.06-.017l-.06-.017a2.63 2.63 0 0 1-.894-.341l-.058-.032c-.02-.011-.039-.021-.057-.033a2.25 2.25 0 0 1-.373-.316.957.957 0 0 1-.043-.052 2.609 2.609 0 0 1-.265-.354c-.007-.013-.016-.024-.025-.035-.01-.012-.018-.023-.025-.035-1.614.675-2.776 1.434-3.23 2.117-.963 1.454-.723 2.74.698 3.72.708.493 1.375.678 1.994.563Zm-3.546-7.224c-.827-.235-1.4-.636-1.709-1.193-.308-.558-.347-1.266-.118-2.11.23-.84.625-1.428 1.171-1.742.328-.182.7-.274 1.076-.266.305 0 .636.05.992.154.739.213 1.753 1.023 2.829 2.252a2.54 2.54 0 0 0-.317.603c-.005.015-.01.031-.017.047a3.693 3.693 0 0 0-.148.54l-.02.104a4.51 4.51 0 0 0-.036 1.149c-1.61.51-2.941.683-3.703.462Zm6.784.857c-.048 0-.092.003-.14.009h-.076c-1.156-.026-1.448-.591-1.565-1.014a.435.435 0 0 0-.023-.065 1.505 1.505 0 0 1-.029-.156l-.007-.048-.01-.06a.85.85 0 0 1-.013-.066 4.157 4.157 0 0 1-.02-.376c0-.694.18-1.185.533-1.462l.052-.033c.014-.007.03-.017.049-.029.274-.17.647-.257 1.106-.257.462 0 .83.084 1.098.25.014.01.079.052.095.06.362.272.547.765.547 1.471.005.247-.023.49-.084.731v.003c-.12.465-.404 1-1.513 1.042Z" fill="#313235"/></svg>