<svg width="24" height="24" viewBox="0 0 24 24" fill="none" xmlns="http://www.w3.org/2000/svg">
<path fill-rule="evenodd" clip-rule="evenodd" d="M20.2213 5.94328C21.028 5.94328 21.6863 6.59874 21.6863 7.40546V18.6912C21.6863 19.4979 21.0308 20.1534 20.2213 20.1534H3.46218C2.65546 20.1534 2 19.4979 2 18.6912V5.21218C2 4.40546 2.65546 3.75 3.46218 3.75H10.605C11.4118 3.75 12.0672 4.40546 12.0672 5.21218V5.94608H20.2213V5.94328ZM20.4118 18.6912V7.40826C20.4118 7.30182 20.3305 7.22059 20.2241 7.22059H11.4314C11.0784 7.22059 10.7927 6.93487 10.7927 6.58193V5.21218C10.7927 5.10574 10.7115 5.02451 10.605 5.02451H3.46218C3.35574 5.02451 3.27451 5.10574 3.27451 5.21218V18.6912C3.27451 18.7976 3.35574 18.8789 3.46218 18.8789H20.2213C20.3277 18.8789 20.4118 18.7976 20.4118 18.6912ZM9.02801 8.7444C8.11485 8.7444 7.76751 9.32983 7.76751 10.4559C7.76751 11.5819 8.11485 12.1618 9.02801 12.1618C9.94118 12.1618 10.2885 11.5819 10.2885 10.4559C10.2885 9.32983 9.94118 8.7444 9.02801 8.7444ZM9.57143 10.4559C9.57143 9.54832 9.41737 9.2486 9.02801 9.2486C8.63866 9.2486 8.48459 9.54552 8.48459 10.4559C8.48459 11.3634 8.63866 11.6099 9.02801 11.6099C9.41737 11.6099 9.57143 11.3634 9.57143 10.4559ZM5.43697 8.7444C4.52381 8.7444 4.17647 9.32983 4.17647 10.4559C4.17647 11.5819 4.52381 12.1618 5.43697 12.1618C6.35014 12.1618 6.69748 11.5819 6.69748 10.4559C6.69748 9.32983 6.35014 8.7444 5.43697 8.7444ZM5.98039 10.4559C5.98039 9.54832 5.82633 9.2486 5.43697 9.2486C5.04762 9.2486 4.89356 9.54552 4.89356 10.4559C4.89356 11.3634 5.04762 11.6099 5.43697 11.6099C5.82633 11.6099 5.98039 11.3634 5.98039 10.4559ZM18.1513 8.7444C17.2381 8.7444 16.8908 9.32983 16.8908 10.4559C16.8908 11.5819 17.2353 12.1618 18.1513 12.1618C19.0644 12.1618 19.4118 11.5819 19.4118 10.4559C19.4118 9.32983 19.0644 8.7444 18.1513 8.7444ZM18.6919 10.4559C18.6919 9.54832 18.5378 9.2486 18.1485 9.2486C17.7591 9.2486 17.605 9.54552 17.605 10.4559C17.605 11.3634 17.7591 11.6099 18.1485 11.6099C18.5378 11.6099 18.6919 11.3634 18.6919 10.4559ZM11.8571 11.6492H11.3053H11.3025V12.1366H12.9972V11.652H12.5322V9.16457C12.5322 8.92367 12.4174 8.84244 12.0812 8.84244C11.8487 8.84244 11.521 8.87045 11.3277 8.89846V9.35784H11.8571V11.6492ZM4.64426 17.0497H5.19608V14.7584H4.66947V14.299C4.86275 14.271 5.19048 14.243 5.42297 14.243C5.7591 14.243 5.87395 14.3242 5.87395 14.5651V17.0525H6.33894V17.5371H4.64426V17.0497ZM14.7647 11.6492H14.2129V12.1366H15.9076V11.652H15.4426V9.16457C15.4426 8.92367 15.3277 8.84244 14.9916 8.84244C14.7591 8.84244 14.4314 8.87045 14.2381 8.89846V9.35784H14.7647V11.6492ZM7.76751 15.8592C7.76751 14.7332 8.11485 14.1478 9.02801 14.1478C9.94118 14.1478 10.2885 14.7332 10.2885 15.8592C10.2885 16.9853 9.94118 17.5651 9.02801 17.5651C8.11485 17.5651 7.76751 16.9853 7.76751 15.8592ZM9.02801 14.652C9.41737 14.652 9.57143 14.9517 9.57143 15.8592C9.57143 16.7668 9.41737 17.0133 9.02801 17.0133C8.63866 17.0133 8.48459 16.7696 8.48459 15.8592C8.48459 14.9489 8.63866 14.652 9.02801 14.652ZM16.8908 15.8592C16.8908 14.7332 17.2381 14.1478 18.1513 14.1478C19.0644 14.1478 19.4118 14.7332 19.4118 15.8592C19.4118 16.9853 19.0644 17.5651 18.1513 17.5651C17.2353 17.5651 16.8908 16.9853 16.8908 15.8592ZM18.1485 14.652C18.5378 14.652 18.6919 14.9517 18.6919 15.8592C18.6919 16.7668 18.5378 17.0133 18.1485 17.0133C17.7591 17.0133 17.605 16.7696 17.605 15.8592C17.605 14.9489 17.7591 14.652 18.1485 14.652ZM11.3053 17.0525H11.8571V14.7612H11.3277V14.3018C11.521 14.2738 11.8487 14.2458 12.0812 14.2458C12.4174 14.2458 12.5322 14.327 12.5322 14.5679V17.0553H12.9972V17.5399H11.3025V17.0525H11.3053ZM14.7647 17.0525H14.2129V17.5399H15.9076V17.0553H15.4426V14.5679C15.4426 14.327 15.3277 14.2458 14.9916 14.2458C14.7591 14.2458 14.4314 14.2738 14.2381 14.3018V14.7612H14.7647V17.0525Z" fill="#313235"/>
</svg>
