<svg width="24" height="24" fill="none" xmlns="http://www.w3.org/2000/svg"><path fill-rule="evenodd" clip-rule="evenodd" d="M3.465 20.237h16.76c.806 0 1.461-.656 1.461-1.462V7.489c0-.807-.655-1.462-1.462-1.462H12.07v-.732c0-.806-.658-1.462-1.465-1.462h-7.14C2.655 3.833 2 4.49 2 5.295v13.477c0 .81.658 1.465 1.465 1.465ZM3.277 5.296c0-.107.082-.188.188-.188h7.14c.106 0 .188.081.188.188v1.37c0 .352.285.638.638.638h8.793c.107 0 .188.081.188.188v11.283a.188.188 0 0 1-.188.187H3.465a.184.184 0 0 1-.188-.188V5.296Z" fill="#313235"/></svg>