<svg width="24" height="24" fill="none" xmlns="http://www.w3.org/2000/svg"><path d="M20.206 13.92c0 2.442-.905 4.374-2.624 5.646.182.238.294.535.294.857 0 .785-.636 1.423-1.418 1.423H7.582c-.782 0-1.42-.638-1.42-1.423 0-.333.12-.636.31-.88C4.742 18.256 3.8 16.295 3.8 13.92c0-3.574 2.182-5.748 4.871-6.7V4.266c0-1.162.941-2.106 2.095-2.106h2.13c1.156 0 2.095.944 2.095 2.106V7.09c3.277.994 5.215 3.513 5.215 6.83ZM9.87 6.88c.703-.151 1.42-.227 2.132-.227.61 0 1.207.07 1.792.17V4.267a.9.9 0 0 0-.899-.902h-2.129a.9.9 0 0 0-.896.902V6.88Zm-4.868 7.04c0 2.288.983 4.041 2.843 5.077h8.403c1.804-1.014 2.762-2.764 2.762-5.078 0-4.151-3.333-5.434-4.77-5.795h-.003a9.356 9.356 0 0 0-2.235-.27 8.9 8.9 0 0 0-2.496.356c-.004.002-.008.002-.013.003a.082.082 0 0 0-.012.003C7.04 8.947 5 10.796 5 13.919Zm11.456 6.722a.22.22 0 0 0 .219-.221.22.22 0 0 0-.219-.222H7.582c-.12 0-.222.101-.222.221s.098.222.222.222h8.876Zm-7.532-5.21c0 .395.32.717.714.717h4.482a.716.716 0 0 0 .714-.717v-2.846a.716.716 0 0 0-.714-.717H9.64a.716.716 0 0 0-.714.717v2.846Zm.714 1.918a1.917 1.917 0 0 1-1.913-1.918v-2.846a1.92 1.92 0 0 1 1.913-1.922h4.482c1.053 0 1.913.863 1.913 1.922v2.846a1.917 1.917 0 0 1-1.913 1.918H9.64Zm2.762-11.983c.174 0 .317-.157.317-.347 0-.19-.143-.35-.317-.35-.173 0-.316.157-.316.35 0 .19.143.347.316.347Zm1.115-.347c0 .633-.501 1.151-1.115 1.151-.616 0-1.115-.518-1.115-1.151 0-.636.502-1.151 1.115-1.151.617-.003 1.115.515 1.115 1.15Zm2.252-.947a.592.592 0 0 0 .849-.003l.712-.714a.602.602 0 0 0-.85-.851l-.71.717a.602.602 0 0 0 0 .851Zm.603.782a.6.6 0 0 1 .599-.603h1.305a.6.6 0 0 1 .6.603.6.6 0 0 1-.6.602h-1.305a.602.602 0 0 1-.6-.602Zm.296.784a.598.598 0 0 0-.848 0 .604.604 0 0 0 .002.852l.754.756a.594.594 0 0 0 .846 0 .602.602 0 0 0 0-.852l-.754-.756Zm-5.644 7.924a.4.4 0 1 1 0-.8h1.672a.4.4 0 1 1 0 .8h-1.672Zm-1.03 1.19c0 .222.179.401.4.401h2.927a.4.4 0 0 0 0-.8h-2.927a.4.4 0 0 0-.4.4Z" fill="#313235"/></svg>