<svg width="24" height="24" viewBox="0 0 24 24" fill="none" xmlns="http://www.w3.org/2000/svg">
<path fill-rule="evenodd" clip-rule="evenodd" d="M2.16003 8.35599C2.16003 8.82098 2.53819 9.19913 3.00317 9.19913C3.46816 9.19913 3.84631 8.82098 3.84631 8.35879V3.84899H8.35891C8.80149 3.83218 9.15443 3.47644 9.17124 3.03666C9.18805 2.56888 8.8239 2.17672 8.35891 2.15991H3.00317C2.53819 2.15991 2.16003 2.53806 2.16003 3.00305V8.35599ZM9.17964 21.0367C9.19645 20.5689 8.8323 20.1767 8.36732 20.1599H3.85191V15.6501C3.85191 15.1851 3.47376 14.807 3.00877 14.807C2.54379 14.807 2.16564 15.1851 2.16564 15.6501V21.0058C2.16564 21.4708 2.54379 21.849 3.00877 21.849H8.36732C8.80989 21.8322 9.16284 21.4764 9.17964 21.0367ZM20.9976 14.793C21.4626 14.793 21.8407 15.1711 21.8407 15.6361V20.989C21.8407 21.454 21.4626 21.8322 20.9976 21.8322H15.639C15.174 21.807 14.8155 21.4092 14.8407 20.9442C14.8631 20.5129 15.2077 20.1711 15.639 20.1459H20.1516V15.6361C20.1544 15.1711 20.5298 14.793 20.9976 14.793ZM21.8463 3.02546C21.8463 2.55767 21.4682 2.18232 21.0032 2.18232V2.18512H15.6446C15.1796 2.18512 14.8015 2.56327 14.8015 3.02826C14.8015 3.49325 15.1796 3.8714 15.6446 3.8714H20.1572V8.3784C20.174 8.82098 20.5298 9.17392 20.9696 9.19072C21.4373 9.20753 21.8295 8.84339 21.8463 8.3784V3.02546Z" fill="#313235"/>
</svg>
