<svg width="24" height="24" viewBox="0 0 24 24" fill="none" xmlns="http://www.w3.org/2000/svg">
<path fill-rule="evenodd" clip-rule="evenodd" d="M21.2381 10.4455L13.1345 2.5043C12.451 1.83483 11.2913 1.83483 10.6078 2.5043L2.50142 10.4483C2.04203 10.8992 1.90478 11.5379 2.14007 12.1177C2.39778 12.748 3.03643 13.1569 3.76472 13.1569H4.17929V20.0841C4.17929 20.9693 4.958 21.6891 5.91598 21.6891H7.35855C7.36135 21.6891 7.36345 21.6884 7.36555 21.6877C7.36766 21.687 7.36976 21.6863 7.37256 21.6863C7.37396 21.6863 7.37536 21.687 7.37676 21.6877C7.37816 21.6884 7.37956 21.6891 7.38096 21.6891H16.3025C16.3109 21.6891 16.3165 21.6863 16.3221 21.6863C16.3236 21.6863 16.325 21.6864 16.3264 21.6866C16.3292 21.6868 16.332 21.6873 16.3347 21.6877C16.3374 21.6882 16.34 21.6886 16.3426 21.6889C16.3442 21.689 16.3458 21.6891 16.3473 21.6891H17.7031C18.6611 21.6891 19.4398 20.9693 19.4398 20.0841V13.1569H19.9692C20.6975 13.1569 21.3361 12.7508 21.5938 12.1177C21.8375 11.5351 21.6975 10.8964 21.2381 10.4455ZM20.4846 11.6583C20.4314 11.7928 20.2633 11.9469 19.9748 11.9469H18.8431C18.5098 11.9469 18.2409 12.2158 18.2409 12.5491V20.0785C18.2409 20.297 17.9972 20.4791 17.7087 20.4791H16.9552V12.6331C16.9552 12.2998 16.6863 12.0309 16.3529 12.0309H7.36135C7.02802 12.0309 6.75911 12.2998 6.75911 12.6331V20.4791H5.91878C5.63026 20.4791 5.38657 20.297 5.38657 20.0785V12.5491C5.38657 12.2158 5.11766 11.9469 4.78433 11.9469H3.76752C3.47621 11.9469 3.31094 11.79 3.25772 11.6583C3.2045 11.5323 3.23531 11.4146 3.34735 11.3054L11.451 3.36144C11.6667 3.14855 12.0756 3.14855 12.2913 3.36144L20.3949 11.3054C20.507 11.4146 20.535 11.5351 20.4846 11.6583ZM15.7506 14.8572H7.9635V13.2382H15.7506V14.8572ZM15.7506 20.4791H7.9635V18.8712H15.7506V20.4791ZM7.9635 17.6695H15.7506V16.0616H7.9635V17.6695Z" fill="#313235"/>
</svg>
