<svg width="24" height="24" viewBox="0 0 24 24" fill="none" xmlns="http://www.w3.org/2000/svg">
<path fill-rule="evenodd" clip-rule="evenodd" d="M21.7059 8.61895L21.7143 18.9046C21.7143 20.9411 20.2549 21.6918 19.0028 21.717H18.86C17.5322 21.7002 16.0701 20.9495 16.0701 18.8934V15.0223C16.0673 14.1736 15.3782 13.4873 14.5294 13.4873H14.0477V20.3416C14.0477 21.0755 13.3894 21.7198 12.6387 21.7198H3.43423C2.68353 21.7198 2.02527 21.0755 2.02527 20.3416V3.42288C2.02807 2.70299 2.70034 2.04753 3.43703 2.04753H12.6415C13.3782 2.04753 14.0505 2.70579 14.0505 3.42568V12.2772H14.5323C16.0477 12.2772 17.2773 13.5041 17.2801 15.0195L17.2829 18.8906C17.2829 20.28 18.2353 20.5013 18.804 20.5097H18.986C19.5547 20.4985 20.5098 20.2772 20.5098 18.9046L20.5042 10.8094C20.1037 11.0111 19.6611 11.1203 19.2101 11.1315L19.042 11.1343H18.972C18.4426 11.1259 16.465 10.9355 16.465 8.5041C16.465 6.42847 17.8964 5.9971 18.6387 5.91307L15.8124 3.05593C15.5771 2.81783 15.5799 2.43688 15.818 2.20159C16.0561 1.9663 16.437 1.9691 16.6723 2.20719L21.0056 6.58534C21.0139 6.59364 21.0225 6.60194 21.0313 6.61035C21.049 6.62746 21.0672 6.64498 21.0841 6.66377L21.0897 6.67217L21.0925 6.67777C21.451 7.06713 21.7115 7.64696 21.7115 8.5153C21.7115 8.54739 21.7093 8.57512 21.7069 8.60617L21.7059 8.61895ZM12.6415 3.25481C12.7171 3.25481 12.8348 3.36685 12.8404 3.42568V20.336C12.8404 20.3976 12.7395 20.5097 12.6415 20.5097H3.43703C3.33899 20.5097 3.23815 20.4004 3.23815 20.3388V3.42848C3.24375 3.36685 3.3614 3.25481 3.43703 3.25481H12.6415ZM20.4986 8.71698C20.4734 9.16796 20.3138 9.90466 19.1877 9.92426L19.0336 9.92146H18.9804C17.6667 9.90466 17.6667 8.88225 17.6667 8.4985C17.6667 8.11755 17.6667 7.10354 18.958 7.09234H19.0028L19.1681 7.09514C19.6471 7.10634 19.9524 7.2464 20.1485 7.43687L20.1989 7.48729C20.5014 7.82063 20.5042 8.28561 20.5042 8.5153V8.54892C20.5042 8.55312 20.5028 8.55732 20.5014 8.56152C20.5 8.56572 20.4986 8.56993 20.4986 8.57413V8.71698ZM10.4342 5.78141L10.4286 8.78141L5.77036 8.77861L5.77876 5.78141H10.4342ZM10.6051 4.57694C11.1597 4.57694 11.6443 5.11755 11.6443 5.7366V8.82623C11.6443 9.45368 11.1681 9.98589 10.6051 9.98589H5.60509C5.04207 9.98589 4.56308 9.45368 4.56308 8.82623V5.7366C4.56308 5.11755 5.05047 4.57694 5.60509 4.57694H10.6051Z" fill="#313235"/>
</svg>
