<svg width="24" height="24" viewBox="0 0 24 24" fill="none" xmlns="http://www.w3.org/2000/svg">
<path fill-rule="evenodd" clip-rule="evenodd" d="M17.7397 6.95497H20.3784C21.1459 6.95497 21.8434 7.73088 21.8434 8.58522V11.5124C21.8434 12.3331 21.2663 13.025 20.5492 13.1258V20.2127C20.5492 21.0978 19.877 21.8457 19.0843 21.8457H4.85739C4.06467 21.8457 3.3924 21.0978 3.3924 20.2127V13.1202C2.70613 12.9914 2.15991 12.3107 2.15991 11.5152V8.58802C2.15991 7.73368 2.85739 6.95497 3.6249 6.95497H6.20192C5.83218 6.58242 5.57447 6.15945 5.47363 5.69727C5.32237 5.00539 5.49884 4.2603 5.98063 3.53761C6.96383 2.06702 8.51284 1.74769 10.0254 2.70568C10.8518 3.22668 11.5212 4.40035 11.9722 5.42276C12.426 4.40035 13.0927 3.22949 13.919 2.70568C15.4316 1.74769 16.9806 2.06702 17.9638 3.53761C18.4456 4.2603 18.6221 5.00539 18.4708 5.69727C18.37 6.15945 18.1123 6.58242 17.7397 6.95497ZM14.6165 3.74769C15.5296 3.17066 16.2943 3.32752 16.8882 4.21548C17.1851 4.66086 17.2971 5.06982 17.2159 5.43677C17.1375 5.80091 16.863 6.13424 16.4064 6.42276C15.6837 6.87934 13.8714 6.89054 12.7845 6.80371C13.1459 5.79811 13.8882 4.20988 14.6165 3.74769ZM8.31677 3.40876C7.83778 3.40876 7.41481 3.67766 7.05346 4.21828C6.75654 4.66086 6.6445 5.07262 6.72573 5.44237C6.80416 5.80651 7.07867 6.13985 7.53525 6.42836C8.25514 6.88494 10.0675 6.89615 11.1543 6.80931C10.7958 5.80091 10.0535 4.20988 9.32517 3.75049C8.96663 3.5236 8.62769 3.40876 8.31677 3.40876ZM3.44002 8.58522C3.44002 8.39194 3.58848 8.21827 3.6249 8.19867H11.3084V11.8989H3.6361C3.57728 11.8765 3.44282 11.7225 3.44282 11.5124V8.58522H3.44002ZM20.5604 11.5152C20.5604 11.7281 20.4204 11.8877 20.3756 11.9017H12.5857V8.20147L20.3476 8.19867C20.4092 8.22108 20.5604 8.39474 20.5604 8.58802V11.5152ZM19.0843 20.5992H12.5885V13.1454H19.2691V20.2127C19.2663 20.4255 19.1263 20.5852 19.0843 20.5992ZM4.67251 13.1454V20.2127C4.67251 20.4255 4.81257 20.5824 4.87139 20.5992H11.3056V13.1454H4.67251Z" fill="#313235"/>
</svg>
