<svg width="24" height="24" viewBox="0 0 24 24" fill="none" xmlns="http://www.w3.org/2000/svg">
<path fill-rule="evenodd" clip-rule="evenodd" d="M9.23566 11.0403C9.87152 11.6789 10.7931 12.0039 11.978 12.0039C13.16 12.0039 14.0816 11.6789 14.7259 11.0403C15.3925 10.3736 15.7287 9.38763 15.7287 8.10751C15.7287 6.8274 15.3897 5.83861 14.7259 5.16914C14.0872 4.52768 13.1628 4.19995 11.9808 4.19995C10.7959 4.19995 9.87432 4.52488 9.23566 5.16914C8.5746 5.83861 8.23847 6.8246 8.23847 8.10751C8.23847 9.38763 8.5718 10.3764 9.23566 11.0403ZM9.49337 8.10751C9.49337 7.19435 9.69785 6.52208 10.1068 6.11032C10.5046 5.71256 11.132 5.51088 11.9752 5.51088C12.8211 5.51088 13.4514 5.71256 13.8491 6.11312C14.2609 6.52488 14.4682 7.19435 14.4682 8.10751C14.4682 9.01788 14.2609 9.68735 13.8519 10.0963C13.4542 10.4913 12.8211 10.6929 11.9752 10.6929C11.1292 10.6929 10.499 10.4941 10.104 10.0963C9.70065 9.68735 9.49337 9.01788 9.49337 8.10751ZM5.66984 10.2896C5.51858 10.4408 5.49617 10.7938 5.49617 10.9899C5.49617 11.1831 5.51858 11.5333 5.66704 11.6845C5.77908 11.7966 6.01157 11.8554 6.3281 11.8554C6.64463 11.8554 6.87992 11.7938 6.99197 11.6817C7.14323 11.5305 7.16564 11.1803 7.16564 10.9871C7.16564 10.791 7.14323 10.4408 6.98917 10.2868C6.87712 10.1747 6.64183 10.1131 6.3281 10.1131C6.01157 10.1159 5.77908 10.1775 5.66984 10.2896ZM4.79589 12.6285C5.15163 12.9871 5.66704 13.1663 6.3281 13.1663C6.98636 13.1663 7.50457 12.9871 7.86312 12.6341C8.23566 12.2588 8.42334 11.707 8.42334 10.9927C8.42334 10.2756 8.23566 9.72376 7.86312 9.34841C7.50457 8.98987 6.98917 8.80779 6.3281 8.80779C5.66704 8.80779 5.15163 8.98987 4.79589 9.34841C4.42614 9.72096 4.23847 10.2728 4.23847 10.9899C4.23847 11.7042 4.42614 12.256 4.79589 12.6285ZM17.0088 10.3428C16.8631 10.4885 16.8435 10.8246 16.8435 11.0123C16.8435 11.1971 16.8659 11.5333 17.0088 11.6761C17.1124 11.7798 17.3449 11.8414 17.6474 11.8414C17.9471 11.8414 18.1768 11.7826 18.2805 11.6789C18.3841 11.5753 18.4429 11.3316 18.4429 11.0123C18.4429 10.8246 18.4205 10.4857 18.2777 10.34C18.174 10.2364 17.9471 10.1775 17.6474 10.1775C17.3393 10.1747 17.1152 10.2336 17.0088 10.3428ZM15.583 11.0123C15.583 11.7154 15.7679 12.2588 16.1348 12.6229C16.4878 12.9731 16.9948 13.1523 17.6418 13.1523C18.2917 13.1523 18.7987 12.9759 19.1488 12.6229C19.513 12.2588 19.6978 11.7154 19.6978 11.0123C19.6978 10.3092 19.513 9.76578 19.1516 9.39883C18.8015 9.04589 18.2917 8.86662 17.6446 8.86662C16.992 8.86662 16.485 9.04589 16.1348 9.39883C15.7679 9.76578 15.583 10.3064 15.583 11.0123ZM20.5886 17.3624V17.0767C20.5886 16.5781 20.4485 16.1607 20.1824 15.8694C19.8883 15.5501 19.4289 15.382 18.8547 15.382L18.0312 15.3792C18.3449 15.9479 18.5242 16.6229 18.5914 17.3624H20.5886ZM17.3729 17.9394V18.4745C17.3729 18.4745 6.58861 18.4745 6.58861 18.4717V17.9366C6.58861 16.9507 6.84631 16.1327 7.3337 15.5697C7.99197 14.8134 8.97796 14.6537 9.69225 14.6537H14.2581C14.9724 14.6537 15.9612 14.8134 16.6222 15.5725C17.1124 16.1383 17.3729 16.9563 17.3729 17.9394ZM5.37012 17.3792C5.43454 16.6397 5.61101 15.9647 5.92194 15.3932L5.15443 15.396C4.5774 15.396 4.11802 15.5641 3.8267 15.8834C3.56059 16.1719 3.41774 16.5893 3.41774 17.0879V17.3764C3.41774 17.3792 5.37012 17.3792 5.37012 17.3792ZM21.8463 17.0767C21.8463 16.2308 21.5858 15.4997 21.09 14.9619C20.555 14.3792 19.7819 14.0711 18.8519 14.0683H16.8379C16.1376 13.5949 15.2665 13.3428 14.2553 13.3428H9.69225C8.67264 13.3428 7.79029 13.6005 7.0872 14.0851H5.15443C4.22446 14.0851 3.45135 14.396 2.91634 14.9787C2.42054 15.5165 2.16003 16.2448 2.16003 17.0907V17.7938C2.16003 18.2868 2.54659 18.6901 3.01998 18.6901H5.3309V19.3148C5.3309 19.5753 5.52138 19.7854 5.75667 19.7854H18.2049C18.4401 19.7854 18.6306 19.5753 18.6306 19.3148V18.6733H20.9864C21.4598 18.6733 21.8463 18.2728 21.8463 17.7798V17.0767Z" fill="#313235"/>
</svg>
