<svg width="24" height="24" viewBox="0 0 24 24" fill="none" xmlns="http://www.w3.org/2000/svg">
<path fill-rule="evenodd" clip-rule="evenodd" d="M17.3935 9.737C17.626 9.65857 17.8837 9.61936 18.1666 9.61936C19.4215 9.61936 20.203 10.4093 20.2058 11.681V18.6782C20.2058 19.6502 19.9341 20.4233 19.3963 20.9807C18.8557 21.5381 18.0182 21.8462 17.035 21.8462H9.24785C8.46634 21.8462 8.1218 21.104 7.97614 20.7874C7.8393 20.4891 7.36283 19.5222 6.80542 18.3911L6.76606 18.3112C5.84449 16.4401 4.69883 14.1124 4.01816 12.6642C3.6176 11.8098 3.77726 10.9219 4.42712 10.4009C4.75766 10.1348 5.15542 10.0031 5.55878 10.0031C5.97895 10.0031 6.40752 10.1488 6.76606 10.4345C7.13301 10.7258 7.43833 11.1292 7.77726 11.7062C7.77488 9.81003 7.77656 5.96745 7.77711 4.71585C7.7772 4.4994 7.77726 4.36044 7.77726 4.32244V4.27762C7.8641 2.93028 8.64001 2.15997 9.90612 2.15997C11.2226 2.15997 12.0406 2.9891 12.0406 4.32244V7.2244C12.2479 7.16558 12.4775 7.13476 12.724 7.13476C13.7268 7.13476 14.4271 7.63616 14.668 8.4877C14.8977 8.40927 15.161 8.37006 15.4439 8.37006C16.4523 8.37006 17.1554 8.87986 17.3935 9.737ZM18.5224 20.118C18.8333 19.7958 18.9845 19.3252 18.9845 18.6782H18.993V11.6726C18.993 11.0843 18.7549 10.8434 18.175 10.8434C18.0266 10.8434 17.8949 10.8631 17.7857 10.8995C17.6596 10.9415 17.5308 10.9611 17.4019 10.9611C17.203 10.9611 17.007 10.9135 16.8277 10.8154C16.5336 10.6586 16.3151 10.3869 16.2254 10.0619C16.1834 9.90787 16.0938 9.59415 15.4523 9.59415C15.3011 9.59415 15.1694 9.61375 15.0574 9.65017C14.9313 9.69219 14.8025 9.71179 14.6736 9.71179C14.4747 9.71179 14.2815 9.66417 14.1022 9.56894C13.8081 9.41207 13.5924 9.14317 13.5 8.82104L13.4999 8.82078C13.4606 8.68337 13.3679 8.35885 12.7296 8.35885C12.5952 8.35885 12.4775 8.37566 12.3739 8.40367C12.2647 8.43448 12.1554 8.45129 12.0434 8.45129C11.7801 8.45129 11.5196 8.36445 11.3067 8.20199C11.0014 7.9695 10.8221 7.60255 10.8221 7.2188V4.31684C10.8221 3.66417 10.5476 3.38686 9.90612 3.38686C9.37951 3.38686 9.04617 3.54653 8.99575 4.35045V11.7006C8.99575 12.2552 8.62881 12.7398 8.09939 12.8883C7.99295 12.9191 7.88371 12.9331 7.77726 12.9331C7.3451 12.9328 6.94541 12.7037 6.72684 12.3308C6.44393 11.849 6.22825 11.5689 6.00976 11.3953C5.87811 11.2888 5.71564 11.23 5.55878 11.23C5.46074 11.23 5.31788 11.2524 5.18623 11.3589C4.90612 11.5829 5.04897 11.9723 5.1218 12.1292C5.78847 13.5549 6.92012 15.8547 7.83049 17.7034L7.8585 17.7594C8.48315 19.0311 8.93693 19.9555 9.07979 20.2636C9.1106 20.3336 9.20303 20.5353 9.27867 20.611H17.0322C17.6764 20.611 18.217 20.4317 18.5224 20.118Z" fill="#313235"/>
</svg>
