<svg width="24" height="24" fill="none" xmlns="http://www.w3.org/2000/svg"><path fill-rule="evenodd" clip-rule="evenodd" d="M17.393 9.737c.233-.078.49-.118.774-.118 1.255 0 2.036.79 2.039 2.062v6.997c0 .972-.272 1.745-.81 2.303-.54.557-1.378.865-2.361.865H9.248c-.782 0-1.126-.742-1.272-1.059a179.32 179.32 0 0 0-1.17-2.396l-.04-.08a415.003 415.003 0 0 1-2.748-5.647c-.4-.854-.24-1.742.41-2.263.33-.266.727-.398 1.13-.398.421 0 .85.146 1.208.431.367.292.672.695 1.011 1.272-.002-1.896 0-5.739 0-6.99v-.438c.087-1.348.863-2.118 2.13-2.118 1.316 0 2.134.83 2.134 2.162v2.902c.207-.058.436-.09.683-.09 1.003 0 1.703.502 1.944 1.354.23-.079.493-.118.776-.118 1.008 0 1.711.51 1.95 1.367Zm1.13 10.381c.31-.322.462-.793.462-1.44h.008v-7.005c0-.589-.238-.83-.818-.83-.148 0-.28.02-.39.056a1.21 1.21 0 0 1-.957-.084 1.222 1.222 0 0 1-.603-.753c-.042-.154-.131-.468-.773-.468-.15 0-.283.02-.395.056a1.209 1.209 0 0 1-.955-.081 1.228 1.228 0 0 1-.602-.748c-.04-.137-.132-.462-.77-.462-.135 0-.253.017-.356.045a1.209 1.209 0 0 1-1.067-.202 1.24 1.24 0 0 1-.485-.983V4.317c0-.653-.274-.93-.916-.93-.526 0-.86.16-.91.963v7.35a1.231 1.231 0 0 1-1.219 1.233c-.432 0-.832-.23-1.05-.602-.283-.482-.499-.762-.717-.936a.728.728 0 0 0-.451-.165.586.586 0 0 0-.373.129c-.28.224-.137.613-.064.77.666 1.426 1.798 3.726 2.708 5.574l.029.056a222.597 222.597 0 0 1 1.22 2.505c.032.07.124.271.2.347h7.753c.644 0 1.185-.18 1.49-.493Z" fill="#313235"/></svg>