<svg width="24" height="24" fill="none" xmlns="http://www.w3.org/2000/svg"><path d="M14.27 17.393c.078.233.117.49.117.774 0 1.255-.79 2.036-2.062 2.039H5.328c-.972 0-1.745-.272-2.303-.81-.557-.54-.865-1.378-.865-2.361V9.248c0-.782.742-1.126 1.059-1.272.298-.137 1.265-.613 2.396-1.17l.08-.04a415.267 415.267 0 0 1 5.647-2.748c.854-.4 1.742-.24 2.263.41.266.33.398.727.398 1.13 0 .42-.146.85-.431 1.208-.292.367-.695.672-1.272 1.011 1.896-.002 5.739 0 6.99 0h.438c1.348.087 2.118.863 2.118 2.13 0 1.316-.829 2.133-2.162 2.133h-2.902c.059.208.09.438.09.684 0 1.003-.502 1.703-1.354 1.944.079.23.118.493.118.776 0 1.008-.51 1.711-1.367 1.95Zm-10.382 1.13c.32.31.793.462 1.44.462v.008h7c.588 0 .83-.238.83-.818 0-.149-.02-.28-.057-.39a1.209 1.209 0 0 1 .084-.957c.157-.294.429-.513.754-.603.154-.042.467-.131.467-.773 0-.151-.02-.283-.056-.395a1.209 1.209 0 0 1 .082-.955c.156-.294.425-.51.748-.602.137-.04.462-.132.462-.77 0-.135-.017-.253-.045-.356a1.217 1.217 0 0 1 .202-1.067c.232-.306.599-.485.983-.485h2.907c.653 0 .93-.274.93-.916 0-.527-.16-.86-.963-.91h-7.35a1.231 1.231 0 0 1-1.233-1.219c0-.432.23-.832.602-1.05.482-.283.762-.499.936-.717a.728.728 0 0 0 .165-.451.586.586 0 0 0-.129-.373c-.224-.28-.613-.137-.77-.064-1.426.666-3.725 1.798-5.574 2.708l-.056.028A222.245 222.245 0 0 1 3.743 9.08c-.07.03-.272.123-.348.199v7.753c0 .644.18 1.185.493 1.49Z" fill="#313235"/></svg>