<svg width="24" height="24" viewBox="0 0 24 24" fill="none" xmlns="http://www.w3.org/2000/svg">
<path fill-rule="evenodd" clip-rule="evenodd" d="M9.73694 17.3935C9.65851 17.6259 9.6193 17.8836 9.6193 18.1666C9.6193 19.4215 10.4092 20.203 11.6809 20.2058H18.6781C19.6501 20.2058 20.4232 19.9341 20.9806 19.3963C21.5381 18.8556 21.8462 18.0181 21.8462 17.0349V9.24779C21.8462 8.46628 21.1039 8.12174 20.7874 7.97608C20.489 7.83924 19.5222 7.36277 18.3911 6.80536L18.3112 6.766C16.44 5.84443 14.1123 4.69877 12.6641 4.0181C11.8098 3.61754 10.9218 3.7772 10.4008 4.42706C10.1347 4.7576 10.003 5.15536 10.003 5.55872C10.003 5.97888 10.1487 6.40746 10.4344 6.766C10.7257 7.13295 11.1291 7.43827 11.7061 7.7772C9.80997 7.77482 5.96739 7.7765 4.71579 7.77705C4.49934 7.77714 4.36037 7.7772 4.32238 7.7772H4.27756C2.93022 7.86404 2.15991 8.63995 2.15991 9.90606C2.15991 11.2226 2.98904 12.0405 4.32238 12.0405H7.22434C7.16551 12.2478 7.1347 12.4775 7.1347 12.724C7.1347 13.7268 7.6361 14.4271 8.48764 14.668C8.40921 14.8977 8.37 15.161 8.37 15.4439C8.37 16.4523 8.8798 17.1554 9.73694 17.3935ZM20.1179 18.5223C19.7986 18.8332 19.3252 18.9845 18.6781 18.9845V18.9929H11.6725C11.0843 18.9929 10.8434 18.7548 10.8434 18.175C10.8434 18.0265 10.863 17.8949 10.8994 17.7856C10.9414 17.6596 10.961 17.5307 10.961 17.4019C10.961 17.203 10.9134 17.0069 10.8154 16.8276C10.6585 16.5335 10.3868 16.315 10.0619 16.2254C9.90781 16.1834 9.59409 16.0937 9.59409 15.4523C9.59409 15.301 9.61369 15.1694 9.65011 15.0573C9.69212 14.9313 9.71173 14.8024 9.71173 14.6736C9.71173 14.4747 9.66411 14.2814 9.56888 14.1021C9.41201 13.808 9.14311 13.5923 8.82098 13.4999L8.82072 13.4998C8.68331 13.4606 8.35879 13.3678 8.35879 12.7296C8.35879 12.5951 8.3756 12.4775 8.40361 12.3738C8.43442 12.2646 8.45123 12.1526 8.45123 12.0433C8.45123 11.78 8.36439 11.5195 8.20193 11.3066C7.96944 11.0013 7.60249 10.822 7.21874 10.822H4.31677C3.66411 10.822 3.3868 10.5475 3.3868 9.90605C3.3868 9.37944 3.54647 9.04611 4.35039 8.99569H11.7005C12.2551 8.99569 12.7397 8.62874 12.8882 8.09933C12.919 7.99289 12.933 7.88365 12.933 7.7772C12.9328 7.34504 12.7036 6.94535 12.3308 6.72678C11.849 6.44387 11.5689 6.22818 11.3952 6.0097C11.2888 5.87804 11.2299 5.71558 11.2299 5.55872C11.2299 5.46068 11.2523 5.31782 11.3588 5.18617C11.5829 4.90606 11.9722 5.04891 12.1291 5.12174C13.5549 5.78841 15.8546 6.92006 17.7033 7.83042L17.7594 7.85844C19.0311 8.48309 19.9554 8.93687 20.2636 9.07972C20.3336 9.11054 20.5353 9.20297 20.6109 9.2786V17.0321C20.6109 17.6764 20.4316 18.217 20.1179 18.5223Z" fill="#313235"/>
</svg>
