<svg width="24" height="24" viewBox="0 0 24 24" fill="none" xmlns="http://www.w3.org/2000/svg">
<path fill-rule="evenodd" clip-rule="evenodd" d="M17.3935 9.73694C17.626 9.65851 17.8837 9.6193 18.1666 9.6193C19.4215 9.6193 20.203 10.4092 20.2058 11.6809V18.6781C20.2058 19.6501 19.9341 20.4232 19.3963 20.9806C18.8557 21.5381 18.0182 21.8462 17.035 21.8462H9.24785C8.46634 21.8462 8.1218 21.1039 7.97614 20.7874C7.8393 20.489 7.36283 19.5222 6.80542 18.3911L6.76606 18.3112C5.84449 16.44 4.69883 14.1123 4.01816 12.6641C3.6176 11.8098 3.77726 10.9218 4.42712 10.4008C4.75766 10.1347 5.15542 10.003 5.55878 10.003C5.97895 10.003 6.40752 10.1487 6.76606 10.4344C7.13301 10.7257 7.43833 11.1291 7.77726 11.7061C7.77488 9.80997 7.77656 5.96739 7.77711 4.71579C7.7772 4.49934 7.77726 4.36037 7.77726 4.32238V4.27756C7.8641 2.93022 8.64001 2.15991 9.90612 2.15991C11.2226 2.15991 12.0406 2.98904 12.0406 4.32238V7.22434C12.2479 7.16551 12.4775 7.1347 12.724 7.1347C13.7268 7.1347 14.4271 7.6361 14.668 8.48764C14.8977 8.40921 15.161 8.37 15.4439 8.37C16.4523 8.37 17.1554 8.8798 17.3935 9.73694ZM18.5224 20.1179C18.8333 19.7958 18.9845 19.3252 18.9845 18.6781H18.993V11.6725C18.993 11.0843 18.7549 10.8434 18.175 10.8434C18.0266 10.8434 17.8949 10.863 17.7857 10.8994C17.6596 10.9414 17.5308 10.961 17.4019 10.961C17.203 10.961 17.007 10.9134 16.8277 10.8154C16.5336 10.6585 16.3151 10.3868 16.2254 10.0619C16.1834 9.90781 16.0938 9.59409 15.4523 9.59409C15.3011 9.59409 15.1694 9.61369 15.0574 9.65011C14.9313 9.69212 14.8025 9.71173 14.6736 9.71173C14.4747 9.71173 14.2815 9.66411 14.1022 9.56888C13.8081 9.41201 13.5924 9.14311 13.5 8.82098L13.4999 8.82072C13.4606 8.68331 13.3679 8.35879 12.7296 8.35879C12.5952 8.35879 12.4775 8.3756 12.3739 8.40361C12.2647 8.43442 12.1554 8.45123 12.0434 8.45123C11.7801 8.45123 11.5196 8.36439 11.3067 8.20193C11.0014 7.96944 10.8221 7.60249 10.8221 7.21874V4.31677C10.8221 3.66411 10.5476 3.3868 9.90612 3.3868C9.37951 3.3868 9.04617 3.54647 8.99575 4.35039V11.7005C8.99575 12.2551 8.62881 12.7397 8.09939 12.8882C7.99295 12.919 7.88371 12.933 7.77726 12.933C7.3451 12.9328 6.94541 12.7036 6.72684 12.3308C6.44393 11.849 6.22825 11.5689 6.00976 11.3952C5.87811 11.2888 5.71564 11.2299 5.55878 11.2299C5.46074 11.2299 5.31788 11.2523 5.18623 11.3588C4.90612 11.5829 5.04897 11.9722 5.1218 12.1291C5.78847 13.5549 6.92012 15.8546 7.83049 17.7033L7.8585 17.7594C8.48315 19.0311 8.93693 19.9554 9.07979 20.2636C9.1106 20.3336 9.20303 20.5353 9.27867 20.6109H17.0322C17.6764 20.6109 18.217 20.4316 18.5224 20.1179Z" fill="#313235"/>
</svg>
