<svg xmlns="http://www.w3.org/2000/svg" width="24" height="24" fill="none"><path fill="#0B2739" d="M11.895 2.155c5.075 0 7.89 3.196 7.98 9 1.263.656 1.966 2.02 1.97 4 0 2.745-1.331 4.32-3.738 4.431l-.274.009h-.126a.37.37 0 0 1-.11-.017c-1.21.888-2.775 1.44-4.655 1.636-.05.104-.1.204-.176.28-.241.233-.577.35-.986.35h-.067c-.443-.008-.793-.162-1.029-.417-.232-.255-.341-.614-.324-1.056.025-.92.568-1.415 1.445-1.39.686.017 1.137.359 1.288.93 1.222-.162 2.267-.479 3.135-.963-.667-.742-.843-2.082-.843-3.793 0-2.625.392-4.38 2.339-4.448.092-.009.187-.009.283 0 .036 0 .084 0 .134.008.102.005.196.02.29.034.061.01.123.018.186.025-.193-4.868-2.44-7.339-6.72-7.339-4.28 0-6.53 2.48-6.714 7.364.235-.047.473-.075.712-.086.016-.009.067-.009.117-.009.098-.008.2-.008.3 0 1.907.067 2.308 1.824 2.308 4.448 0 2.617-.4 4.373-2.342 4.44H6.17l-.277-.008c-2.41-.11-3.737-1.687-3.737-4.432 0-1.865.62-3.17 1.765-3.87.047-5.886 2.874-9.127 7.975-9.127M5.942 11.99c-1.087.042-2.532.425-2.532 3.162 0 2.726 1.445 3.11 2.53 3.163h.231c.543-.02 1.191-.043 1.191-3.163 0-3.13-.65-3.154-1.126-3.17H6.06L6 11.985zm12.104 6.325c1.087-.053 2.54-.437 2.546-3.163 0-2.736-1.454-3.117-2.54-3.162l-.11-.009h-.114c-.543.02-1.191.043-1.191 3.171 0 2.499.417 3.011.826 3.13.05 0 .101.008.149.024.05.009.1.009.15.009z"/></svg>