<svg width="24" height="24" viewBox="0 0 24 24" fill="none" xmlns="http://www.w3.org/2000/svg">
<path fill-rule="evenodd" clip-rule="evenodd" d="M12.0196 21.7787H12.0364C12.0784 21.7787 12.1176 21.7787 12.1596 21.7731H12.1765C12.3109 21.7675 12.4454 21.7479 12.577 21.7171C13.0364 21.6163 13.4734 21.4202 13.8543 21.1429C14.3109 20.8152 14.8459 20.2745 15 20.1149C15.014 20.1009 15.0252 20.0869 15.0364 20.0729L15.0364 20.0729C16.6022 18.4566 17.5238 17.2998 18.6751 15.5098C20.1316 13.2493 21.1288 11.0084 21.6442 8.84598C22.2045 6.49304 21.7423 4.53785 20.3473 3.34177C19.5378 2.6471 18.4342 2.22973 17.2381 2.16811C15.9804 2.10368 14.6751 2.42301 13.4678 3.09247C13.0532 3.32217 12.6274 3.56586 12.1681 3.84037C12.0728 3.89079 11.9608 3.89079 11.8683 3.84037C11.4061 3.56867 10.9832 3.32217 10.5714 3.09528C9.36133 2.42301 8.05601 2.10368 6.7983 2.16811C5.60503 2.22973 4.49858 2.6471 3.68906 3.33897C2.2941 4.53785 1.83192 6.49023 2.39214 8.84317C2.90755 11.0084 3.90755 13.2521 5.36133 15.5098C6.52379 17.3138 7.45096 18.4762 9.0392 20.1149C9.19326 20.2717 9.73108 20.8152 10.1877 21.1457C10.5686 21.423 11.0056 21.6163 11.465 21.7199C11.5966 21.7507 11.7311 21.7675 11.8655 21.7759H11.8823C11.9244 21.7787 11.9692 21.7787 12.0196 21.7787ZM12.1064 20.6583H12.0196V20.6611H11.9328C11.8627 20.6555 11.7899 20.6471 11.7199 20.6303L11.7031 20.6275C11.3921 20.5575 11.098 20.423 10.8403 20.2353C10.5378 20.0168 10.112 19.6163 9.84312 19.3362C8.2941 17.7367 7.43416 16.6611 6.3025 14.9048C4.91595 12.7507 3.96917 10.6247 3.48178 8.58547C3.25208 7.62189 3.21847 6.75074 3.37813 6.00004C3.5378 5.25494 3.88794 4.6471 4.42015 4.19051C5.042 3.6555 5.90755 3.33337 6.85713 3.28575C7.90475 3.23253 9.00278 3.50424 10.0252 4.07567C10.4286 4.29696 10.8431 4.53785 11.2969 4.80676L11.3025 4.80956C11.7423 5.06166 12.2801 5.06166 12.7199 4.81516L12.7311 4.80956C13.1849 4.54065 13.6022 4.29976 14.0084 4.07567C15.0336 3.50424 16.1316 3.23253 17.1849 3.28295C18.1316 3.33337 18.9972 3.6527 19.6218 4.18771C20.1512 4.6443 20.5014 5.25214 20.661 5.99724C20.8207 6.74794 20.7843 7.61909 20.5546 8.58267C20.0672 10.6191 19.1176 12.7451 17.7311 14.902C16.5994 16.6583 15.7395 17.7367 14.1905 19.3334C14.1793 19.3446 14.1681 19.3586 14.1569 19.3726L14.1568 19.3726C13.8851 19.6499 13.4874 20.0252 13.1989 20.2325C12.9412 20.423 12.647 20.5547 12.3361 20.6247L12.3193 20.6275C12.2493 20.6443 12.1793 20.6555 12.1064 20.6583Z" fill="#313235"/>
</svg>
