<svg width="24" height="24" viewBox="0 0 24 24" fill="none" xmlns="http://www.w3.org/2000/svg">
<path fill-rule="evenodd" clip-rule="evenodd" d="M14.7871 21.6863H17.6638C18.633 21.6863 19.4229 20.9636 19.4229 20.0757V13.1429H19.9271C20.6498 13.1429 21.2941 12.7451 21.5602 12.1289C21.8151 11.5463 21.6806 10.8992 21.2128 10.4398L13.1316 2.49023C12.4677 1.83757 11.2184 1.83757 10.5574 2.49023L2.47614 10.4426C2.00555 10.8992 1.8739 11.5491 2.1288 12.1317C2.39491 12.7479 3.03917 13.1457 3.76186 13.1457H4.14841V20.0785C4.14841 20.9636 4.93833 21.6863 5.90751 21.6863H8.95233C9.29127 21.6919 9.57138 21.4202 9.57698 21.0813V17.3222H14.1624V21.0813C14.168 21.423 14.4481 21.6919 14.7871 21.6863ZM17.6638 20.4762H15.4145V16.7171C15.4089 16.3754 15.1288 16.1065 14.7899 16.1121H8.95233C8.6106 16.1065 8.33048 16.3782 8.32488 16.7171V20.479H5.90751C5.6302 20.479 5.40331 20.2998 5.40331 20.0785V12.5406C5.39771 12.1989 5.1176 11.93 4.77866 11.9356H3.76186C3.49575 11.9356 3.33889 11.7956 3.28286 11.6639C3.24085 11.5687 3.22124 11.4286 3.3669 11.2857L11.4481 3.33617C11.6442 3.14289 12.0392 3.14289 12.2352 3.33617L20.3193 11.2801C20.4649 11.4258 20.4453 11.5631 20.4061 11.6583C20.3501 11.7927 20.1932 11.9328 19.9271 11.9328H18.7983C18.4565 11.9272 18.1764 12.1989 18.1708 12.5378V20.0757C18.1708 20.297 17.9439 20.4762 17.6638 20.4762Z" fill="#313235"/>
</svg>
