<svg width="24" height="24" viewBox="0 0 24 24" fill="none" xmlns="http://www.w3.org/2000/svg">
<path fill-rule="evenodd" clip-rule="evenodd" d="M14.7871 21.6862H17.6638C18.633 21.6862 19.4229 20.9636 19.4229 20.0756V13.1428H19.9271C20.6498 13.1428 21.2941 12.7451 21.5602 12.1288C21.8151 11.5462 21.6806 10.8991 21.2128 10.4397L13.1316 2.49017C12.4677 1.83751 11.2184 1.83751 10.5574 2.49017L2.47614 10.4425C2.00555 10.8991 1.8739 11.549 2.1288 12.1316C2.39491 12.7479 3.03917 13.1456 3.76186 13.1456H4.14841V20.0784C4.14841 20.9636 4.93833 21.6862 5.90751 21.6862H8.95233C9.29127 21.6918 9.57138 21.4201 9.57698 21.0812V17.3221H14.1624V21.0812C14.168 21.4229 14.4481 21.6918 14.7871 21.6862ZM17.6638 20.4762H15.4145V16.7171C15.4089 16.3753 15.1288 16.1064 14.7899 16.112H8.95233C8.6106 16.1064 8.33048 16.3781 8.32488 16.7171V20.479H5.90751C5.6302 20.479 5.40331 20.2997 5.40331 20.0784V12.5406C5.39771 12.1989 5.1176 11.9299 4.77866 11.9355H3.76186C3.49575 11.9355 3.33889 11.7955 3.28286 11.6638C3.24085 11.5686 3.22124 11.4285 3.3669 11.2857L11.4481 3.33611C11.6442 3.14283 12.0392 3.14283 12.2352 3.33611L20.3193 11.2801C20.4649 11.4257 20.4453 11.563 20.4061 11.6582C20.3501 11.7927 20.1932 11.9327 19.9271 11.9327H18.7983C18.4565 11.9271 18.1764 12.1989 18.1708 12.5378V20.0756C18.1708 20.2969 17.9439 20.4762 17.6638 20.4762Z" fill="#313235"/>
</svg>
