<svg width="24" height="24" viewBox="0 0 24 24" fill="none" xmlns="http://www.w3.org/2000/svg">
<path fill-rule="evenodd" clip-rule="evenodd" d="M21.6861 6.23522C21.6861 5.44811 21.3948 4.98032 20.9074 4.98032L18.6357 4.97752V3.4033C18.6357 2.68061 18.0083 2.02515 17.3164 2.02515H6.37803C5.68615 2.02515 5.0587 2.68061 5.0587 3.4033V4.97752H2.77859C2.294 4.97752 2.00269 5.44811 2.00269 6.23242V20.4593C2.00269 21.2464 2.2912 21.7142 2.77859 21.7142H20.9074C21.3948 21.7142 21.6861 21.2436 21.6861 20.4593V6.23522ZM6.25478 20.5097V3.4061C6.25478 3.33887 6.34161 3.24363 6.37243 3.23523H17.2996C17.3444 3.24643 17.4312 3.34167 17.4312 3.4089V20.5097H14.8654V13.9635C14.8654 13.6302 14.5965 13.3613 14.266 13.3613H9.42004C9.08951 13.3613 8.8206 13.6302 8.8206 13.9635V20.5097H6.25478ZM20.4872 20.4593V6.23242V6.182H18.6329V20.5069H20.4872V20.4593ZM10.0223 20.5097H13.6693V14.5657H10.0223V20.5097ZM3.19876 20.4593V20.5097H5.0531V19.7114C5.0531 19.7081 5.05214 19.7058 5.05134 19.7039C5.05078 19.7025 5.0503 19.7013 5.0503 19.7002V6.23522V6.1848H3.19596V20.4593H3.19876ZM8.92144 7.35287V8.49292H10.6721C11.0027 8.49292 11.2716 8.76183 11.2716 9.09516V10.8543H12.4144L12.4088 9.09796C12.4088 8.9383 12.4705 8.78424 12.5853 8.67219C12.6973 8.55735 12.8514 8.49572 13.0111 8.49572H14.7674V7.34727H13.0111C12.6805 7.34727 12.4116 7.07836 12.4116 6.74503V4.98593H11.2716V6.75063C11.2716 7.08396 11.0027 7.35287 10.6721 7.35287H8.92144ZM7.72256 8.66379C7.72256 9.23522 8.21556 9.7002 8.8234 9.7002H10.0727V10.9551C10.0727 11.5545 10.5433 12.0615 11.1035 12.0615H12.5853C13.1427 12.0615 13.6161 11.5545 13.6161 10.9523L13.6133 9.7002H14.8626C15.462 9.7002 15.969 9.22401 15.969 8.66379V7.1764C15.969 6.61337 15.462 6.13999 14.8626 6.13999H13.6105V4.89069C13.6105 4.28845 13.1399 3.77864 12.5797 3.77864H11.1035C10.5461 3.77864 10.0727 4.28845 10.0727 4.89069V6.14559H8.8234C8.22677 6.14559 7.72256 6.62178 7.72256 7.182V8.66379Z" fill="#313235"/>
</svg>
