<svg width="24" height="24" viewBox="0 0 24 24" fill="none" xmlns="http://www.w3.org/2000/svg">
<path fill-rule="evenodd" clip-rule="evenodd" d="M21.6862 6.23528C21.6862 5.44817 21.3949 4.98038 20.9075 4.98038L18.6358 4.97758V3.40336C18.6358 2.68067 18.0084 2.02521 17.3165 2.02521H6.37815C5.68628 2.02521 5.05883 2.68067 5.05883 3.40336V4.97758H2.77872C2.29412 4.97758 2.00281 5.44817 2.00281 6.23248V20.4594C2.00281 21.2465 2.29132 21.7143 2.77872 21.7143H20.9075C21.3949 21.7143 21.6862 21.2437 21.6862 20.4594V6.23528ZM6.2549 20.5098V3.40616C6.2549 3.33893 6.34174 3.24369 6.37255 3.23529H17.2997C17.3445 3.24649 17.4314 3.34173 17.4314 3.40896V20.5098H14.8655V13.9636C14.8655 13.6302 14.5966 13.3613 14.2661 13.3613H9.42016C9.08963 13.3613 8.82072 13.6302 8.82072 13.9636V20.5098H6.2549ZM20.4874 20.4594V6.23248V6.18206H18.633V20.507H20.4874V20.4594ZM10.0224 20.5098H13.6695V14.5658H10.0224V20.5098ZM3.19888 20.4594V20.5098H5.05322V19.7115C5.05322 19.7082 5.05226 19.7058 5.05147 19.7039C5.0509 19.7026 5.05042 19.7014 5.05042 19.7002V6.23528V6.18486H3.19608V20.4594H3.19888ZM8.92156 7.35293V8.49298H10.6723C11.0028 8.49298 11.2717 8.76189 11.2717 9.09522V10.8543H12.4146L12.409 9.09803C12.409 8.93836 12.4706 8.7843 12.5854 8.67226C12.6975 8.55741 12.8515 8.49578 13.0112 8.49578H14.7675V7.34733H13.0112C12.6807 7.34733 12.4118 7.07842 12.4118 6.74509V4.98599H11.2717V6.75069C11.2717 7.08402 11.0028 7.35293 10.6723 7.35293H8.92156ZM7.72269 8.66385C7.72269 9.23528 8.21568 9.70026 8.82352 9.70026H10.0728V10.9552C10.0728 11.5546 10.5434 12.0616 11.1036 12.0616H12.5854C13.1428 12.0616 13.6162 11.5546 13.6162 10.9524L13.6134 9.70026H14.8627C15.4622 9.70026 15.9692 9.22408 15.9692 8.66385V7.17646C15.9692 6.61344 15.4622 6.14005 14.8627 6.14005H13.6106V4.89075C13.6106 4.28851 13.14 3.77871 12.5798 3.77871H11.1036C10.5462 3.77871 10.0728 4.28851 10.0728 4.89075V6.14565H8.82352C8.22689 6.14565 7.72269 6.62184 7.72269 7.18206V8.66385Z" fill="#313235"/>
</svg>
