<svg xmlns="http://www.w3.org/2000/svg" width="24" height="24" fill="none"><path fill="#313235" d="M12.41 2.166a20.49 20.49 0 0 0-.737-.011h-.196c-1.975.017-9.322.698-9.322 9.812 0 9.13 7.417 9.844 9.395 9.874.1.003.204.003.308.003.196 0 .395-.003.591-.006 1.877-.036 9.392-.739 9.392-9.812 0-9.053-7.504-9.815-9.431-9.86Zm-.922 1.219h.185c.236 0 .47.003.706.008 2.476.062 8.23 1.02 8.233 8.63 0 7.611-5.723 8.538-8.182 8.583-.174.003-.37.006-.572.006-.098 0-.196 0-.291-.003-2.46-.034-8.18-.947-8.18-8.642 0-7.68 5.664-8.56 8.101-8.582Zm4.34 2.815c.588 0 1.067.476 1.067 1.067v9.465c0 .588-.477 1.067-1.068 1.067h-2.16a1.067 1.067 0 0 1-1.067-1.067v-2.921h-1.204v2.918c0 .588-.48 1.068-1.067 1.065h-2.16a1.067 1.067 0 0 1-1.067-1.068V7.267c0-.588.476-1.067 1.067-1.067h2.16c.588 0 1.067.476 1.067 1.064v2.799h1.202V7.267c0-.588.476-1.067 1.067-1.067h2.162Zm-2.16 1.067v3.86h-3.34v-3.86H8.17v9.465h2.16v-3.986h3.339v3.986h2.16V7.267h-2.16Z"/></svg>