<svg width="24" height="24" viewBox="0 0 24 24" fill="none" xmlns="http://www.w3.org/2000/svg">
<path fill-rule="evenodd" clip-rule="evenodd" d="M20.2451 4.5224C21.077 4.5224 21.8361 5.18626 21.8361 5.91455V17.8949C21.8361 18.6232 21.077 19.2871 20.2451 19.2871H3.74094C2.87819 19.2871 2.1499 18.6484 2.1499 17.8949V5.91455C2.1499 5.16105 2.87819 4.5224 3.74094 4.5224H20.2451ZM20.2451 18.0798C20.4384 18.0798 20.6121 17.9341 20.6345 17.8725L20.6317 5.91736C20.6121 5.88094 20.4384 5.73528 20.2479 5.73528H3.74094C3.53085 5.73528 3.37679 5.86694 3.35438 5.92576V17.8977C3.36839 17.9425 3.52525 18.0798 3.74094 18.0798H20.2451ZM6.14709 8.96777C6.14709 8.41315 6.59807 7.96217 7.14989 7.96217C7.70451 7.96217 8.15269 8.41315 8.15269 8.96777C8.15269 9.52239 7.70171 9.97337 7.14989 9.97337C6.59807 9.97337 6.14709 9.52239 6.14709 8.96777ZM7.14989 11.1835C5.93141 11.1835 4.93981 10.1891 4.93981 8.96777C4.93981 7.74648 5.93141 6.75209 7.14989 6.75209C8.36838 6.75209 9.35717 7.74648 9.35717 8.96777C9.35717 10.1891 8.36838 11.1835 7.14989 11.1835ZM19.57 12.5196L16.3908 10.0798C16.1695 9.91175 15.8642 9.91455 15.6485 10.0854L12.0126 12.9846L11.1331 12.1554C10.9118 11.9454 10.5673 11.9342 10.3348 12.1302L5.1667 16.4467C4.9118 16.6596 4.87539 17.0406 5.08827 17.2983C5.20872 17.4439 5.37959 17.5168 5.55326 17.5168C5.68771 17.5168 5.82497 17.472 5.93701 17.3767L10.6961 13.4019L14.0042 16.5252C14.2451 16.7549 14.6289 16.7465 14.8558 16.5C15.0855 16.2563 15.0715 15.8725 14.8306 15.6456L12.8978 13.8221L16.0294 11.3263L18.8361 13.4804C19.1023 13.6848 19.4804 13.6316 19.6821 13.3683C19.8838 13.1022 19.8333 12.7241 19.57 12.5196Z" fill="#313235"/>
</svg>
