<svg width="24" height="24" viewBox="0 0 24 24" fill="none" xmlns="http://www.w3.org/2000/svg">
<path fill-rule="evenodd" clip-rule="evenodd" d="M5.58543 10.8011L11.3053 16.5294C11.465 16.6862 11.6779 16.7759 11.9047 16.7759C12.126 16.7731 12.3417 16.6862 12.5014 16.5294L18.1484 10.8739C18.1513 10.871 18.1543 10.8684 18.1571 10.866C18.1623 10.8613 18.1672 10.857 18.1708 10.8515C18.493 10.5154 18.4846 9.98318 18.1484 9.65825C17.8123 9.33612 17.2801 9.34452 16.9552 9.68066L12.7479 13.8935V2.84314C12.7479 2.37815 12.3697 2 11.9047 2C11.437 2 11.0588 2.37815 11.0588 2.84314V13.8935L6.7787 9.60783C6.44817 9.2801 5.91316 9.2773 5.58543 9.60783C5.2577 9.93836 5.2549 10.4706 5.58543 10.8011ZM21.6862 16.7563C21.6862 16.2913 21.3081 15.9131 20.8431 15.9131C20.3781 15.9131 20 16.2885 20.0028 16.7563V20H3.68907V16.7563C3.67227 16.3137 3.31652 15.9608 2.87675 15.9439C2.40896 15.9271 2.01681 16.2913 2 16.7563V20.8431C2 21.3081 2.37815 21.6862 2.84314 21.6862H20.8431C21.3081 21.6862 21.6862 21.3081 21.6862 20.8431V16.7563Z" fill="#313235"/>
</svg>
