<svg width="24" height="24" fill="none" xmlns="http://www.w3.org/2000/svg"><path fill-rule="evenodd" clip-rule="evenodd" d="m5.585 10.801 5.72 5.728c.16.157.373.247.6.247a.869.869 0 0 0 .596-.247l5.647-5.655a.152.152 0 0 1 .01-.008c.004-.005.01-.009.013-.014a.844.844 0 0 0-1.216-1.171l-4.207 4.213V2.843a.844.844 0 0 0-1.69 0v11.05l-4.28-4.286A.844.844 0 0 0 5.586 10.8Zm16.101 5.955a.844.844 0 0 0-.843-.843.838.838 0 0 0-.84.843V20H3.689v-3.244a.846.846 0 0 0-1.689 0v4.087c0 .465.378.843.843.843h18a.844.844 0 0 0 .843-.843v-4.087Z" fill="#313235"/></svg>