<svg width="24" height="24" viewBox="0 0 24 24" fill="none" xmlns="http://www.w3.org/2000/svg">
<path fill-rule="evenodd" clip-rule="evenodd" d="M17.8515 7.83325C19.0252 7.83885 20 8.21981 20.6695 8.93689C21.3389 9.65398 21.6891 10.6932 21.6863 11.9453C21.6807 14.5083 20.2465 16.0349 17.8487 16.0349H17.8319C15.7983 16.0293 12.9524 13.78 11.8431 12.7968C10.7339 13.7828 7.88796 16.0293 5.85435 16.0349H5.83755C3.44259 16.0349 2.00842 14.5055 2.00002 11.9453C1.99722 10.6932 2.34736 9.65398 3.01402 8.93689C3.68349 8.21981 4.65828 7.83605 5.83194 7.83325H5.84035C7.87956 7.83325 10.7339 10.0853 11.8431 11.0713C12.9524 10.0853 15.8095 7.83325 17.8431 7.83325H17.8515ZM17.8487 14.7352H17.8347C16.3725 14.7296 13.916 12.9425 12.7619 11.9341C13.9188 10.9229 16.3809 9.13017 17.8459 9.13017H17.8515C18.7059 9.13297 19.3641 9.37387 19.8067 9.85006C20.2493 10.3262 20.4706 11.0293 20.4706 11.9397C20.4622 13.7716 19.5574 14.7352 17.8487 14.7352ZM5.85155 14.7352H5.83755C4.12886 14.7352 3.2241 13.7688 3.2185 11.9425C3.2157 11.0293 3.43979 10.3262 3.88237 9.85286C4.32494 9.37667 4.9804 9.13577 5.83755 9.13297H5.84315C7.31093 9.13297 9.77311 10.9257 10.9272 11.9369C9.77311 12.9425 7.31653 14.7296 5.85155 14.7352Z" fill="#313235"/>
</svg>
