<svg width="24" height="24" viewBox="0 0 24 24" fill="none" xmlns="http://www.w3.org/2000/svg">
<path fill-rule="evenodd" clip-rule="evenodd" d="M4.63028 19.3024C6.30535 20.9158 8.74232 21.7338 11.874 21.7338C15.0084 21.7338 17.4454 20.9158 19.1177 19.2996C20.8543 17.6273 21.7367 15.1259 21.7367 11.871C21.7367 8.61613 20.8571 6.11474 19.1177 4.43967C17.4426 2.82623 15.0056 2.0083 11.874 2.0083C8.74232 2.0083 6.30815 2.82903 4.63308 4.44247C2.89639 6.11754 2.01404 8.61893 2.01404 11.8738C2.01404 15.1287 2.89359 17.6273 4.63028 19.3024ZM3.68752 8.05031C4.49154 5.66212 6.17013 4.13721 8.7095 3.48842C8.29186 3.92194 7.90899 4.44609 7.56585 5.05591C7.07252 5.93339 6.68556 6.94838 6.41683 8.05031H3.68752ZM11.2633 8.05031V3.23048C10.2556 3.42171 9.30369 4.24705 8.54064 5.60493C8.13568 6.32607 7.80992 7.15228 7.57091 8.05031H11.2633ZM11.2633 9.17075H7.32438C7.17347 10.026 7.09526 10.9286 7.09526 11.8542C7.09526 13.0064 7.21643 14.1228 7.44815 15.1567H11.2633V9.17075ZM11.2633 16.2772H7.75312C7.96694 16.9376 8.23057 17.5514 8.54064 18.1035C9.30128 19.459 10.255 20.2862 11.2633 20.4779V16.2772ZM12.3838 16.2772H15.6811C15.4673 16.9376 15.2036 17.5514 14.8936 18.1035C14.1845 19.3654 13.3123 20.1674 12.3838 20.4279V16.2772ZM15.9861 15.1567H12.3838V9.17075H16.1098C16.2607 10.026 16.3389 10.9286 16.3389 11.8542C16.3389 13.0064 16.2178 14.1228 15.9861 15.1567ZM16.8513 16.2772C16.5976 17.1412 16.2678 17.942 15.8684 18.6525C15.4879 19.3286 15.0587 19.8994 14.5873 20.3581C17.1605 19.8256 18.9171 18.461 19.8443 16.2772H16.8513ZM20.228 15.1567H17.1302C17.3465 14.1108 17.4594 12.9965 17.4594 11.8542C17.4594 10.9343 17.3862 10.0329 17.2447 9.17075H20.366C20.5346 9.98942 20.6191 10.8906 20.6191 11.8738C20.6191 13.0952 20.4884 14.1897 20.228 15.1567ZM6.30415 15.1567C6.08776 14.1109 5.97482 12.9968 5.97482 11.8542C5.97482 10.9346 6.04798 10.0331 6.18936 9.17075H3.38735C3.21891 9.98935 3.13448 10.8905 3.13448 11.8738C3.13448 13.0952 3.26498 14.1897 3.52517 15.1567H6.30415ZM3.90862 16.2772C4.7847 18.3425 6.40228 19.6751 8.75057 20.2641C8.31551 19.8222 7.91877 19.2832 7.56585 18.6525C7.16655 17.9412 6.83694 17.1407 6.5833 16.2772H3.90862ZM12.3838 8.05031H15.8633C15.6243 7.15228 15.2985 6.32607 14.8936 5.60493C14.1845 4.34306 13.3123 3.54109 12.3838 3.28052V8.05031ZM15.8684 5.05591C16.3615 5.93445 16.7484 6.94911 17.0171 8.05031H20.0655C19.2188 5.53749 17.403 3.97969 14.633 3.39352C15.0879 3.84471 15.5018 4.4009 15.8684 5.05591Z" fill="#313235"/>
</svg>
