<svg xmlns="http://www.w3.org/2000/svg" width="24" height="24" fill="none"><path fill="#000" d="M4.76 19.428c1.675 1.613 4.112 2.43 7.244 2.43 3.134 0 5.571-.817 7.243-2.433 1.737-1.673 2.62-4.174 2.62-7.429s-.88-5.756-2.62-7.431c-1.675-1.614-4.112-2.432-7.243-2.432s-5.566.821-7.241 2.435c-1.737 1.675-2.62 4.176-2.62 7.431s.88 5.753 2.617 7.428M3.817 8.174C4.621 5.787 6.3 4.262 8.84 3.614q-.627.65-1.143 1.567c-.494.878-.88 1.893-1.15 2.994zm7.576 0H7.701c.239-.898.564-1.724.97-2.445.762-1.358 1.714-2.183 2.722-2.374zm0 1.12v5.987H7.578a15.2 15.2 0 0 1-.353-3.303c0-.925.078-1.828.23-2.683zm0 7.107v4.201c-1.008-.192-1.962-1.019-2.723-2.374a10 10 0 0 1-.787-1.827zm1.12 0h3.298a10 10 0 0 1-.788 1.827c-.709 1.262-1.58 2.064-2.51 2.324zm3.603-1.12h-3.602V9.296h3.726c.15.855.229 1.758.229 2.683 0 1.153-.122 2.269-.353 3.303m.865 1.12h2.993c-.927 2.184-2.684 3.549-5.257 4.081a7.5 7.5 0 0 0 1.281-1.705c.4-.71.73-1.512.983-2.376m3.377-1.12H17.26c.216-1.046.33-2.16.33-3.303 0-.92-.074-1.82-.215-2.683h3.12q.255 1.229.254 2.703 0 1.832-.391 3.283m-13.924 0h-2.78q-.39-1.451-.39-3.283 0-1.475.253-2.703H6.32a16.6 16.6 0 0 0-.214 2.683c0 1.143.113 2.257.329 3.303m-2.396 1.12h2.675c.254.864.583 1.664.983 2.376.353.63.75 1.17 1.184 1.611-2.348-.589-3.966-1.921-4.842-3.987m8.476-8.227v-4.77c.928.261 1.8 1.063 2.51 2.325.404.721.73 1.547.97 2.445zm3.484-2.994a7.5 7.5 0 0 0-1.235-1.662c2.77.586 4.586 2.144 5.432 4.656h-3.048c-.269-1.1-.656-2.115-1.149-2.994"/></svg>