<svg width="24" height="24" viewBox="0 0 24 24" fill="none" xmlns="http://www.w3.org/2000/svg">
<path fill-rule="evenodd" clip-rule="evenodd" d="M19.3641 14.2157C18.3025 14.2157 17.4146 13.5098 17.1428 12.5546H12.7115V13.5966H15.5686C15.9048 13.5966 16.1765 13.8627 16.1849 14.1905L16.2269 18.6274H17.1484C17.4202 17.6722 18.3081 16.9664 19.3697 16.9664C20.6526 16.9664 21.6891 17.986 21.6891 19.2297C21.6891 20.4734 20.6526 21.4846 19.3697 21.4846C18.3081 21.4846 17.4202 20.7871 17.1484 19.8319H15.6162C15.2801 19.8319 15 19.5658 15 19.2381L14.9524 14.8011H12.7143V21.0812C12.7143 21.4117 12.4454 21.6834 12.098 21.6834C8.06443 21.6834 5.20169 20.4089 3.57984 17.9524C3.57545 17.945 3.56876 17.9415 3.56098 17.9375C3.55387 17.9338 3.54585 17.9296 3.53783 17.9215C3.52127 17.9068 3.51196 17.8837 3.50276 17.8608C3.49795 17.8488 3.49318 17.8369 3.48741 17.8263C2.52382 16.3025 2.02242 14.3361 2.00562 11.9356V11.8375C2.00562 5.40336 5.49581 2 12.0952 2C12.4398 2 12.7115 2.26611 12.7115 2.60224V9.04481H14.9496L14.9972 4.61344C14.9972 4.27731 15.2773 4.0112 15.6134 4.0112H17.1428C17.4146 3.06442 18.3025 2.35854 19.3641 2.35854C20.647 2.35854 21.6835 3.36975 21.6835 4.61344C21.6835 5.86554 20.647 6.87674 19.3641 6.87674C18.3025 6.87674 17.4146 6.17086 17.1428 5.21568H16.2213L16.1793 9.65545C16.1709 9.98318 15.8991 10.2493 15.563 10.2493H12.7059V11.3501H17.1428C17.4146 10.3949 18.3025 9.68906 19.3641 9.68906C20.647 9.68906 21.6835 10.7087 21.6835 11.9524C21.6835 13.1961 20.647 14.2157 19.3641 14.2157ZM11.4734 3.29131V7.7787C10.7983 7.73949 9.58824 7.63304 8.26331 7.33893C8.95518 5.17927 10.1148 3.65266 11.4734 3.29131ZM7.07844 7.0168C7.54062 5.59383 8.19048 4.40616 8.9888 3.54061C7.20168 3.96638 5.83474 4.79271 4.88236 6.028C5.55743 6.45377 6.31373 6.7675 7.07844 7.0168ZM4.2297 7.05601C5.01962 7.54621 5.89356 7.90755 6.75631 8.17926C6.54342 9.15965 6.40337 10.2101 6.36975 11.3165H3.25211C3.30813 9.63864 3.63867 8.21848 4.2297 7.05601ZM6.38096 12.521H3.26052C3.32494 14.1428 3.66388 15.5238 4.24931 16.647C5.02242 16.1652 5.89636 15.8011 6.76751 15.5294C6.55463 14.591 6.42298 13.5798 6.38096 12.521ZM11.4734 15.9243C10.7983 15.9664 9.57983 16.0784 8.26331 16.3753C8.95518 18.5182 10.1232 20.0336 11.4734 20.3865V15.9243ZM20.4538 19.2297C20.4538 18.6442 19.9664 18.1708 19.3669 18.1708C18.7731 18.1708 18.2885 18.6442 18.2885 19.2297C18.2885 19.8067 18.7731 20.2801 19.3669 20.2801C19.9692 20.2801 20.4538 19.8067 20.4538 19.2297ZM4.89917 17.6722C5.55743 17.2549 6.31373 16.9412 7.07844 16.6919C7.54062 18.0952 8.19048 19.2773 8.98039 20.1428C7.21009 19.7199 5.85155 18.8935 4.89917 17.6722ZM7.94118 8.49859C7.7535 9.37534 7.63866 10.3305 7.60505 11.3165H11.4706V8.98038C10.7479 8.94957 9.41457 8.84313 7.94118 8.49859ZM11.4734 12.521V14.7199C10.7479 14.7619 9.41457 14.8795 7.95238 15.2101C7.76191 14.3753 7.64706 13.4678 7.61625 12.521H11.4734ZM20.4538 4.61344C20.4538 4.03641 19.9664 3.56302 19.3669 3.56302C18.7731 3.56302 18.2885 4.03921 18.2885 4.61344C18.2885 5.19887 18.7731 5.67226 19.3669 5.67226C19.9692 5.67226 20.4538 5.19887 20.4538 4.61344ZM19.3669 10.8935C19.9664 10.8935 20.4538 11.3669 20.4538 11.9524C20.4538 12.5378 19.9692 13.0112 19.3669 13.0112C18.7731 13.0112 18.2885 12.5378 18.2885 11.9524C18.2885 11.3669 18.7731 10.8935 19.3669 10.8935Z" fill="#313235"/>
</svg>
