<svg width="24" height="24" fill="none" xmlns="http://www.w3.org/2000/svg"><path d="M19.364 14.216a2.303 2.303 0 0 1-2.221-1.661H12.71v1.042h2.858c.336 0 .607.266.616.594l.042 4.436h.921a2.303 2.303 0 0 1 2.222-1.66c1.283 0 2.32 1.019 2.32 2.263 0 1.243-1.037 2.255-2.32 2.255a2.296 2.296 0 0 1-2.222-1.653h-1.532a.608.608 0 0 1-.616-.594l-.048-4.437h-2.238v6.28c0 .33-.269.602-.616.602-4.034 0-6.896-1.274-8.518-3.73-.005-.008-.011-.011-.019-.015a.085.085 0 0 1-.023-.016.158.158 0 0 1-.035-.061.329.329 0 0 0-.016-.035c-.963-1.524-1.465-3.49-1.481-5.89v-.098C2.006 5.403 5.496 2 12.096 2c.344 0 .615.266.615.602v6.443h2.239l.047-4.432a.61.61 0 0 1 .616-.602h1.53a2.306 2.306 0 0 1 2.221-1.652c1.283 0 2.32 1.01 2.32 2.254 0 1.253-1.037 2.264-2.32 2.264a2.303 2.303 0 0 1-2.221-1.661h-.922l-.042 4.44a.614.614 0 0 1-.616.593h-2.857v1.101h4.437a2.303 2.303 0 0 1 2.221-1.66c1.283 0 2.32 1.019 2.32 2.262 0 1.244-1.037 2.264-2.32 2.264ZM11.474 3.29c-1.36.362-2.519 1.888-3.21 4.048a20.8 20.8 0 0 0 3.21.44V3.29ZM7.077 7.017c.463-1.423 1.112-2.61 1.91-3.476-1.786.425-3.153 1.252-4.106 2.487.675.426 1.432.74 2.196.989Zm-2.848.039c-.591 1.162-.922 2.583-.978 4.26H6.37c.033-1.106.173-2.156.386-3.137-.862-.271-1.736-.633-2.526-1.123Zm2.151 5.465H3.26c.064 1.622.403 3.003.988 4.126.773-.482 1.647-.846 2.519-1.118a16.618 16.618 0 0 1-.387-3.008Zm5.092 3.403c-.675.042-1.893.154-3.21.451.692 2.143 1.86 3.659 3.21 4.012v-4.463Zm8.98 3.306c0-.586-.487-1.06-1.086-1.06a1.07 1.07 0 0 0-1.079 1.06c0 .577.485 1.05 1.079 1.05.602 0 1.087-.473 1.087-1.05ZM4.9 17.672c.953 1.221 2.311 2.048 4.081 2.47-.79-.865-1.44-2.047-1.902-3.45-.764.25-1.52.563-2.179.98ZM7.941 8.5a16.201 16.201 0 0 0-.336 2.817h3.866V8.98A19.695 19.695 0 0 1 7.94 8.5Zm3.532 4.022H7.616c.031.947.146 1.854.336 2.69a22.296 22.296 0 0 1 3.521-.491V12.52Zm8.98-7.908c0-.577-.487-1.05-1.086-1.05-.594 0-1.079.476-1.079 1.05a1.07 1.07 0 0 0 1.079 1.06c.602 0 1.087-.474 1.087-1.06Zm-1.086 6.28a1.07 1.07 0 0 0-1.079 1.06 1.07 1.07 0 0 0 1.079 1.058c.602 0 1.087-.473 1.087-1.059 0-.585-.488-1.059-1.087-1.059Z" fill="#313235"/></svg>