<svg xmlns="http://www.w3.org/2000/svg" width="24" height="24" fill="none"><path fill="#000" d="M19.514 14.376a2.3 2.3 0 0 1-2.221-1.661h-4.431v1.042h2.857c.336 0 .607.266.616.593l.042 4.437h.922a2.3 2.3 0 0 1 2.22-1.66c1.284 0 2.32 1.019 2.32 2.263s-1.036 2.255-2.32 2.255a2.296 2.296 0 0 1-2.22-1.653h-1.533a.61.61 0 0 1-.616-.594l-.048-4.437h-2.238v6.28c0 .33-.269.602-.616.602-4.034 0-6.896-1.274-8.518-3.73q-.007-.01-.019-.016a.1.1 0 0 1-.023-.016c-.017-.014-.026-.037-.035-.06l-.016-.035c-.963-1.524-1.465-3.49-1.481-5.89v-.098c0-6.435 3.49-9.838 10.09-9.838.344 0 .615.266.615.602v6.443H15.1l.047-4.432a.61.61 0 0 1 .617-.602h1.529a2.31 2.31 0 0 1 2.221-1.652c1.283 0 2.32 1.01 2.32 2.254 0 1.253-1.037 2.264-2.32 2.264a2.3 2.3 0 0 1-2.221-1.661h-.922l-.042 4.44a.614.614 0 0 1-.616.593h-2.857v1.101h4.437a2.3 2.3 0 0 1 2.221-1.661c1.283 0 2.32 1.02 2.32 2.263 0 1.244-1.037 2.264-2.32 2.264M11.624 3.45c-1.36.362-2.519 1.888-3.21 4.048a21 21 0 0 0 3.21.44zM7.227 7.177c.463-1.423 1.113-2.61 1.91-3.476q-2.678.636-4.106 2.487c.675.426 1.432.74 2.196.989m-2.848.039c-.591 1.162-.922 2.583-.978 4.26H6.52c.033-1.106.173-2.156.386-3.137-.862-.271-1.736-.633-2.526-1.123m2.151 5.465h-3.12c.064 1.622.403 3.003.988 4.126.773-.482 1.647-.846 2.519-1.118a16.6 16.6 0 0 1-.387-3.008m5.092 3.403a21 21 0 0 0-3.21.451c.692 2.143 1.86 3.659 3.21 4.012zm8.98 3.306c0-.586-.487-1.06-1.086-1.06a1.07 1.07 0 0 0-1.078 1.06c0 .577.484 1.05 1.078 1.05.602 0 1.087-.473 1.087-1.05M5.05 17.832c.953 1.221 2.311 2.048 4.081 2.47-.79-.865-1.44-2.047-1.902-3.45-.764.25-1.52.563-2.179.98M8.091 8.66a16 16 0 0 0-.336 2.817h3.866V9.14a19.7 19.7 0 0 1-3.53-.481m3.532 4.022H7.766c.031.947.146 1.854.336 2.689a22.3 22.3 0 0 1 3.521-.49zm8.98-7.908c0-.577-.487-1.05-1.086-1.05-.594 0-1.078.476-1.078 1.05a1.07 1.07 0 0 0 1.078 1.06c.602 0 1.087-.474 1.087-1.06m-1.086 6.28a1.07 1.07 0 0 0-1.078 1.06 1.07 1.07 0 0 0 1.078 1.058c.602 0 1.087-.473 1.087-1.059 0-.585-.488-1.059-1.087-1.059"/></svg>