<svg width="24" height="24" viewBox="0 0 24 24" fill="none" xmlns="http://www.w3.org/2000/svg">
<path fill-rule="evenodd" clip-rule="evenodd" d="M5.29131 16.556H18.4005C19.4986 16.556 20.3417 16.2283 20.9047 15.584C21.4257 14.9846 21.6918 14.1162 21.6918 13.0014V8.06304C21.6918 6.94819 21.4285 6.07985 20.9047 5.48041C20.3417 4.83615 19.4986 4.50842 18.4005 4.50842H5.29131C4.19047 4.50842 3.35014 4.83615 2.78711 5.48041C2.26611 6.07985 2 6.94819 2 8.06304V13.0014C2 14.1162 2.26611 14.9846 2.78711 15.5868C3.35014 16.2283 4.19327 16.556 5.29131 16.556ZM3.63305 6.2199C3.97759 5.82495 4.5182 5.63167 5.29131 5.63167L18.4005 5.62887C19.1708 5.62887 19.7142 5.82215 20.0588 6.2171C20.3977 6.60646 20.5714 7.22831 20.5714 8.06304V13.0014C20.5714 13.8361 20.3977 14.458 20.0588 14.8473C19.7142 15.2423 19.1708 15.4356 18.4005 15.4356H5.29131C4.521 15.4356 3.97759 15.2423 3.63305 14.8473C3.29411 14.458 3.12045 13.8361 3.12045 13.0014V8.06304C3.12045 7.22831 3.29411 6.60646 3.63305 6.2199ZM21.098 18.7409H2.59384C2.28571 18.7409 2.03361 18.4888 2.03361 18.1807C2.03361 17.8725 2.28571 17.6204 2.59384 17.6204H21.098C21.4061 17.6204 21.6582 17.8725 21.6582 18.1807C21.6582 18.4888 21.4061 18.7409 21.098 18.7409ZM9.61343 14.4972H11.9215H14.0868C14.4622 14.4972 14.7255 14.2339 14.7255 13.8585V8.86976C14.7255 8.75771 14.6806 8.65127 14.6022 8.57284L12.7115 6.67929C12.633 6.60086 12.5266 6.55604 12.4145 6.55604H9.61343C9.22688 6.55604 8.96637 6.81374 8.96637 7.20029V13.8473C8.96637 14.2367 9.22688 14.4972 9.61343 14.4972ZM13.8851 13.6569H9.80671V7.39637H12.042V8.07144C12.042 8.79413 12.4257 9.24231 13.0448 9.24231H13.8851V13.6569ZM12.6022 8.07144V7.76052L13.5238 8.68208H13.0448C12.7507 8.68208 12.6022 8.4748 12.6022 8.07144ZM13.1708 10.4356H10.5238C10.3697 10.4356 10.2437 10.3095 10.2437 10.1555C10.2437 10.0014 10.3697 9.87536 10.5238 9.87536H13.1736C13.3277 9.87536 13.4538 10.0014 13.4538 10.1555C13.4538 10.3095 13.3249 10.4356 13.1708 10.4356ZM13.1708 11.5728H10.5238C10.3697 11.5728 10.2437 11.4468 10.2437 11.2927C10.2437 11.1387 10.3697 11.0126 10.5238 11.0126H13.1736C13.3277 11.0126 13.4538 11.1387 13.4538 11.2927C13.4538 11.4468 13.3249 11.5728 13.1708 11.5728ZM10.5238 12.7073H13.1708C13.3249 12.7073 13.4538 12.5812 13.4538 12.4272C13.4538 12.2731 13.3277 12.1471 13.1736 12.1471H10.5238C10.3697 12.1471 10.2437 12.2731 10.2437 12.4272C10.2437 12.5812 10.3697 12.7073 10.5238 12.7073Z" fill="#313235"/>
</svg>
