<svg width="24" height="24" fill="none" xmlns="http://www.w3.org/2000/svg"><path d="M15.31 12.672H8.209a.562.562 0 0 1-.56-.56c0-.308.252-.56.56-.56h7.1a.561.561 0 0 1 0 1.12Zm-7.101 3.006h7.1c.309 0 .56-.252.56-.56a.562.562 0 0 0-.56-.56h-7.1a.562.562 0 0 0-.56.56c0 .308.252.56.56.56Zm0 3.002h7.1c.309 0 .56-.252.56-.56a.562.562 0 0 0-.56-.56h-7.1a.562.562 0 0 0-.56.56c0 .308.252.56.56.56Z" fill="#313235"/><path d="M5.618 21.692h12.297c.588 0 1.106-.518 1.106-1.107V7.742c0-.154-.062-.3-.174-.406l-5.462-5.182A.567.567 0 0 0 13 2H5.618c-.569 0-1.107.538-1.107 1.106v17.48c0 .588.518 1.106 1.107 1.106Zm12.277-1.12H5.645a.061.061 0 0 1-.013-.012V3.143a.085.085 0 0 1 .022-.023h6.504v2.437c0 .956.32 1.776.916 2.376.597.6 1.42.916 2.376.916h2.45v11.717l-.005.005ZM13.279 5.556V3.6l4.353 4.13H15.45c-.65 0-1.2-.205-1.583-.589-.384-.384-.588-.93-.588-1.583Z" fill="#313235"/></svg>