<svg xmlns="http://www.w3.org/2000/svg" width="24" height="24" fill="none"><path fill="#313235" d="M15.545 12.827H8.444a.562.562 0 0 1-.56-.56c0-.308.252-.56.56-.56h7.1c.309 0 .56.252.56.56 0 .308-.251.56-.56.56ZM8.444 15.833h7.1c.309 0 .56-.252.56-.56a.562.562 0 0 0-.56-.56h-7.1a.562.562 0 0 0-.56.56c0 .308.252.56.56.56ZM8.444 18.836h7.1c.309 0 .56-.252.56-.56a.562.562 0 0 0-.56-.56h-7.1a.562.562 0 0 0-.56.56c0 .308.252.56.56.56Z"/><path fill="#313235" d="M5.853 21.847H18.15c.588 0 1.106-.518 1.106-1.107V7.897c0-.154-.061-.3-.174-.406L13.62 2.31a.567.567 0 0 0-.386-.154H5.853c-.569 0-1.107.538-1.107 1.106v17.48c0 .588.519 1.106 1.107 1.106Zm12.277-1.12H5.88a.061.061 0 0 1-.013-.012V3.298a.085.085 0 0 1 .022-.023h6.504v2.437c0 .956.32 1.776.916 2.376.597.6 1.42.916 2.376.916h2.45V20.72l-.005.005ZM13.514 5.711V3.754l4.353 4.13h-2.182c-.65 0-1.2-.205-1.583-.589-.384-.384-.588-.93-.588-1.583Z"/></svg>