<svg width="24" height="24" viewBox="0 0 24 24" fill="none" xmlns="http://www.w3.org/2000/svg">
<path fill-rule="evenodd" clip-rule="evenodd" d="M5.29131 16.5559H18.4005C19.4986 16.5559 20.3417 16.2282 20.9047 15.5839C21.4257 14.9845 21.6918 14.1161 21.6918 13.0013V8.06292C21.6918 6.94807 21.4285 6.07973 20.9047 5.48029C20.3417 4.83603 19.4986 4.5083 18.4005 4.5083H5.29131C4.19047 4.5083 3.35014 4.83603 2.78711 5.48029C2.26611 6.07973 2 6.94807 2 8.06292V13.0013C2 14.1161 2.26611 14.9845 2.78711 15.5867C3.35014 16.2282 4.19327 16.5559 5.29131 16.5559ZM3.63305 6.21978C3.97759 5.82482 4.5182 5.63155 5.29131 5.63155L18.4005 5.62875C19.1708 5.62875 19.7142 5.82202 20.0588 6.21698C20.3977 6.60634 20.5714 7.22818 20.5714 8.06292V13.0013C20.5714 13.836 20.3977 14.4579 20.0588 14.8472C19.7142 15.2422 19.1708 15.4354 18.4005 15.4354H5.29131C4.521 15.4354 3.97759 15.2422 3.63305 14.8472C3.29411 14.4579 3.12045 13.836 3.12045 13.0013V8.06292C3.12045 7.22818 3.29411 6.60634 3.63305 6.21978ZM21.098 18.7408H2.59384C2.28571 18.7408 2.03361 18.4887 2.03361 18.1805C2.03361 17.8724 2.28571 17.6203 2.59384 17.6203H21.098C21.4061 17.6203 21.6582 17.8724 21.6582 18.1805C21.6582 18.4887 21.4061 18.7408 21.098 18.7408ZM9.61343 14.4971H11.9215H14.0868C14.4622 14.4971 14.7255 14.2338 14.7255 13.8584V8.86964C14.7255 8.75759 14.6806 8.65115 14.6022 8.57272L12.7115 6.67916C12.633 6.60073 12.5266 6.55592 12.4145 6.55592H9.61343C9.22688 6.55592 8.96637 6.81362 8.96637 7.20017V13.8472C8.96637 14.2366 9.22688 14.4971 9.61343 14.4971ZM13.8851 13.6567H9.80671V7.39625H12.042V8.07132C12.042 8.79401 12.4257 9.24218 13.0448 9.24218H13.8851V13.6567ZM12.6022 8.07132V7.7604L13.5238 8.68196H13.0448C12.7507 8.68196 12.6022 8.47468 12.6022 8.07132ZM13.1708 10.4355H10.5238C10.3697 10.4355 10.2437 10.3094 10.2437 10.1553C10.2437 10.0013 10.3697 9.87524 10.5238 9.87524H13.1736C13.3277 9.87524 13.4538 10.0013 13.4538 10.1553C13.4538 10.3094 13.3249 10.4355 13.1708 10.4355ZM13.1708 11.5727H10.5238C10.3697 11.5727 10.2437 11.4467 10.2437 11.2926C10.2437 11.1385 10.3697 11.0125 10.5238 11.0125H13.1736C13.3277 11.0125 13.4538 11.1385 13.4538 11.2926C13.4538 11.4467 13.3249 11.5727 13.1708 11.5727ZM10.5238 12.7072H13.1708C13.3249 12.7072 13.4538 12.5811 13.4538 12.4271C13.4538 12.273 13.3277 12.1469 13.1736 12.1469H10.5238C10.3697 12.1469 10.2437 12.273 10.2437 12.4271C10.2437 12.5811 10.3697 12.7072 10.5238 12.7072Z" fill="#313235"/>
</svg>
