<svg width="24" height="24" viewBox="0 0 24 24" fill="none" xmlns="http://www.w3.org/2000/svg">
<path fill-rule="evenodd" clip-rule="evenodd" d="M21.849 11.956C21.8462 11.7908 21.7762 11.6339 21.6529 11.5219L19.7145 9.76277C19.6025 9.66193 19.4512 9.60311 19.2972 9.60311H9.97784C9.46804 8.75997 8.43722 7.90002 6.36159 7.90002C3.65291 7.90002 2.15991 9.35661 2.15991 12.0009C2.15991 14.6451 3.65291 16.1017 6.36159 16.1017C8.6277 16.1017 9.59128 15.1493 10.003 14.351C10.0044 14.3468 10.0066 14.3433 10.0087 14.3398C10.0108 14.3363 10.0129 14.3328 10.0143 14.3286H14.4344C14.6361 14.3286 14.8238 14.2334 14.9386 14.0709L15.5633 13.1941L16.2748 14.0933C16.398 14.2502 16.5829 14.3426 16.7902 14.3258C16.989 14.3146 17.1739 14.2109 17.2804 14.0429L17.8602 13.1353L18.8994 14.1493C19.1347 14.379 19.5157 14.3846 19.7565 14.1605L21.6585 12.393C21.779 12.2782 21.849 12.1213 21.849 11.956ZM19.3448 12.8916L20.342 11.9644L19.0591 10.7964H9.60809C9.36719 10.7964 9.14591 10.6563 9.04787 10.4406C8.6361 9.53308 7.75655 9.0933 6.36439 9.0933C4.33638 9.0933 3.3896 10.0149 3.3896 11.9981C3.3896 13.9785 4.33638 14.9028 6.36439 14.9028C7.68092 14.9028 8.53806 14.5359 8.91061 13.8104C8.94983 13.7348 9.03946 13.5107 9.03946 13.5079C9.1319 13.2782 9.35879 13.1297 9.60809 13.1297H14.1123L15.0311 11.8384C15.1431 11.6815 15.3252 11.5863 15.5185 11.5807C15.7005 11.5751 15.8994 11.6619 16.0199 11.8132L16.7033 12.6787L17.2243 11.8608C17.3224 11.7067 17.4904 11.6031 17.6753 11.5835C17.8602 11.5639 18.0451 11.6255 18.1767 11.7544L19.3448 12.8916ZM7.82378 11.9981C7.82378 10.8804 7.1403 10.2137 5.99745 10.2137C4.85459 10.2137 4.17112 10.8804 4.16832 11.9981C4.16832 13.0989 4.8686 13.7824 5.99745 13.7824C7.1235 13.7824 7.82378 13.0989 7.82378 11.9981ZM6.59969 12.0009C6.59969 12.449 6.45683 12.5863 5.99745 12.5863C5.53806 12.5863 5.39521 12.4462 5.39521 12.0009C5.39521 11.5499 5.53526 11.4126 5.99745 11.4126C6.45963 11.4126 6.59969 11.5499 6.59969 12.0009Z" fill="#313235"/>
</svg>
