<svg width="24" height="24" fill="none" xmlns="http://www.w3.org/2000/svg"><path fill-rule="evenodd" clip-rule="evenodd" d="M21.849 11.956a.599.599 0 0 0-.196-.434l-1.938-1.76a.63.63 0 0 0-.418-.159h-9.32C9.469 8.76 8.438 7.9 6.363 7.9 3.652 7.9 2.16 9.357 2.16 12c0 2.645 1.493 4.102 4.202 4.102 2.266 0 3.23-.953 3.641-1.751.001-.004.004-.008.006-.011l.005-.011h4.42c.202 0 .39-.096.505-.258l.624-.877.712.9c.123.156.308.249.515.232a.621.621 0 0 0 .49-.283l.58-.908 1.04 1.014c.235.23.616.236.857.012l1.901-1.768a.604.604 0 0 0 .191-.437Zm-2.504.936.997-.928-1.283-1.168H9.61a.616.616 0 0 1-.561-.355c-.412-.908-1.291-1.348-2.684-1.348-2.028 0-2.974.922-2.974 2.905 0 1.98.946 2.905 2.974 2.905 1.317 0 2.174-.367 2.547-1.093.039-.075.128-.3.128-.302a.611.611 0 0 1 .57-.378h4.503l.92-1.292a.622.622 0 0 1 .988-.025l.683.866.521-.818a.622.622 0 0 1 .952-.106l1.169 1.137Zm-11.521-.894c0-1.118-.684-1.784-1.827-1.784-1.142 0-1.826.666-1.829 1.784 0 1.1.7 1.784 1.83 1.784 1.125 0 1.826-.683 1.826-1.784Zm-1.224.003c0 .448-.143.585-.603.585-.459 0-.602-.14-.602-.585 0-.451.14-.588.602-.588.463 0 .603.137.603.588Z" fill="#313235"/></svg>