<svg width="24" height="24" viewBox="0 0 24 24" fill="none" xmlns="http://www.w3.org/2000/svg">
<path fill-rule="evenodd" clip-rule="evenodd" d="M20.93 10.6008C21.4118 10.8473 21.7143 11.3431 21.7143 11.8866C21.7143 12.4272 21.409 12.923 20.9188 13.1639L20.2381 13.5112L20.9244 13.8613C21.4062 14.1078 21.7087 14.6036 21.7087 15.1471C21.7087 15.6905 21.4034 16.1863 20.9216 16.43L12.437 20.7325C12.2353 20.8361 12.0141 20.8866 11.7928 20.8866C11.5687 20.8866 11.3446 20.8361 11.1401 20.7297L2.80117 16.4272C2.32218 16.1807 2.02246 15.6877 2.02246 15.1499C2.02246 14.612 2.31938 14.1162 2.79557 13.8697L3.47904 13.514L2.80117 13.1639C2.32218 12.9174 2.02246 12.4272 2.02246 11.8866C2.02246 11.3459 2.31938 10.8529 2.79557 10.6064L3.47904 10.2507L2.80117 9.90056C2.32218 9.65406 2.02246 9.16106 2.02246 8.62325C2.02246 8.08543 2.31938 7.58963 2.79557 7.34314L11.1345 3.0042C11.3418 2.89496 11.5659 2.84174 11.7928 2.84174C12.0169 2.84174 12.2381 2.89496 12.4426 2.9986L20.9272 7.33753C21.409 7.58403 21.7115 8.07983 21.7115 8.62325C21.7115 9.16667 21.4062 9.66246 20.9244 9.90616L20.2437 10.2507L20.93 10.6008ZM11.7984 4.28151L20.283 8.62045L11.7984 12.9258L3.45944 8.62045L11.7984 4.28151ZM3.45944 11.8838L11.7984 16.1863L20.283 11.8866L18.6611 11.0546L12.4426 14.2087C12.2409 14.3095 12.0197 14.3627 11.7984 14.3627C11.5743 14.3627 11.3502 14.3095 11.1457 14.2031L5.04767 11.0546L3.45944 11.8838ZM11.7984 19.4468L20.283 15.1443L18.6611 14.3151L12.4426 17.4692C12.2409 17.57 12.0197 17.6232 11.7984 17.6232C11.5743 17.6232 11.3502 17.57 11.1457 17.4636L5.04767 14.3179L3.45944 15.1443L11.7984 19.4468Z" fill="#313235"/>
</svg>
