<svg width="24" height="24" fill="none" xmlns="http://www.w3.org/2000/svg"><path d="M11.161 4.05a.622.622 0 0 0 .625.617.621.621 0 0 0 .624-.614V2.616A.62.62 0 0 0 11.786 2a.62.62 0 0 0-.625.616V4.05Zm6.317 6.807c0-5.137-4.309-5.571-5.415-5.594-.17-.008-.364-.008-.538-.008-1.134.008-5.353.395-5.353 5.571 0 2.614 1.087 4.014 2.306 4.754l.008 1.115c0 .512.151.91.451 1.173.286.258.723.39 1.89.39h1.998c1.196 0 1.63-.132 1.916-.39.294-.263.44-.66.44-1.173l-.009-1.12c1.219-.746 2.306-2.135 2.306-4.718Zm-1.25 0c0 1.762-.56 2.964-1.714 3.67 0 0-.594.361-.585.361l.002.692.009 1.112a.936.936 0 0 1-.031.25c-.09.027-.359.08-1.078.08h-1.998c-.722 0-.98-.058-1.061-.084a.716.716 0 0 1-.034-.255l-.014-1.795-.59-.356c-1.138-.689-1.712-1.935-1.712-3.703 0-3.756 2.574-4.33 4.109-4.339h.036c.149 0 .311 0 .468.006 3.784.081 4.193 3.078 4.193 4.361Zm-4.776-3.725c1.908.042 4.012 1.106 4.163 3.972a.62.62 0 0 1-.591.647h-.034a.618.618 0 0 1-.622-.583c-.128-2.476-2.109-2.787-2.952-2.804h-.145c-.065 0-.131 0-.197-.003a.622.622 0 0 1-.624-.616.62.62 0 0 1 .624-.616c.123 0 .26 0 .378.003Zm3.723 12.238a.622.622 0 0 0-.625-.617H9.256a.62.62 0 0 0-.624.617c.003.341.283.619.624.616h5.294a.62.62 0 0 0 .625-.616Zm-1.339 1.084c.345 0 .625.277.625.616a.62.62 0 0 1-.625.616H9.811a.622.622 0 0 1-.625-.616.62.62 0 0 1 .625-.616h4.025ZM16.89 6.317a.628.628 0 0 1-.44-.18.61.61 0 0 1-.008-.862l.009-.009 1.025-1.017a.629.629 0 0 1 .882 0c.241.238.244.625.006.866l-.006.005-1.028 1.014a.614.614 0 0 1-.44.183ZM6.161 6.314c.244.24.639.24.882 0l.006-.006a.611.611 0 0 0-.006-.865L6.018 4.426a.629.629 0 0 0-.882 0l-.008.008a.614.614 0 0 0 .008.866L6.16 6.314ZM4.917 9.952c.345 0 .625.278.625.617a.62.62 0 0 1-.625.616h-1.45a.622.622 0 0 1-.625-.616.62.62 0 0 1 .624-.617h1.451Zm15.97.544a.62.62 0 0 0-.625-.616h-1.451a.62.62 0 0 0-.625.616.622.622 0 0 0 .625.616h1.451a.62.62 0 0 0 .625-.616Z" fill="#313235"/></svg>