<svg width="24" height="24" viewBox="0 0 24 24" fill="none" xmlns="http://www.w3.org/2000/svg">
<path fill-rule="evenodd" clip-rule="evenodd" d="M17.6871 11.023C17.8972 11.0762 18.0624 11.2387 18.1212 11.4516C18.1801 11.6645 18.1212 11.8942 17.97 12.051L8.68429 21.67C8.56664 21.7877 8.41538 21.8493 8.26132 21.8493C8.14927 21.8493 8.03723 21.8157 7.93639 21.7485C7.69829 21.5916 7.60306 21.2835 7.7067 21.0118L10.407 13.9614L6.29493 12.9446C6.08765 12.8942 5.92239 12.7317 5.86356 12.5216C5.80474 12.3115 5.85796 12.0818 6.00642 11.925L14.9224 2.35355C15.1213 2.14066 15.435 2.10425 15.6759 2.26391C15.9168 2.42358 16.012 2.7373 15.9056 3.00901L13.1857 9.91376L17.6871 11.023ZM11.7683 13.7541L9.87476 18.6981L16.379 11.9586L12.2333 10.9362C12.0652 10.8942 11.9224 10.7793 11.8439 10.6196C11.7655 10.4628 11.7571 10.2751 11.8215 10.1098L13.6367 5.50481L7.58625 12.0006L11.3538 12.9334C11.5218 12.9754 11.6647 13.0902 11.7431 13.2471C11.8215 13.404 11.8299 13.5888 11.7683 13.7541Z" fill="#313235"/>
</svg>
