<svg xmlns="http://www.w3.org/2000/svg" width="24" height="24" fill="none"><path fill="#0B2739" d="M4.46 6.957c0-.613-.515-1.112-1.15-1.112-.64 0-1.155.499-1.155 1.112 0 .614.515 1.11 1.154 1.112.636 0 1.151-.498 1.151-1.112m.98-.003c0 .41.36.74.8.74h14.803c.443 0 .798-.33.798-.74 0-.409-.358-.74-.798-.74H6.239c-.443 0-.798.331-.798.74m15.603 4.303c.44 0 .798.33.798.74 0 .408-.355.739-.798.739H6.239c-.44 0-.798-.33-.798-.74 0-.409.355-.74.798-.74zm-16.583.74c0-.614-.515-1.113-1.15-1.113-.64 0-1.155.499-1.155 1.112 0 .614.515 1.112 1.154 1.112.636 0 1.151-.498 1.151-1.112m16.583 4.302c.44 0 .798.33.798.74 0 .406-.355.739-.798.739H6.239c-.44 0-.798-.333-.798-.74 0-.406.355-.74.798-.74zm-16.583.74c0-.614-.515-1.113-1.15-1.113-.64 0-1.155.496-1.155 1.112 0 .611.515 1.11 1.154 1.112.636 0 1.151-.501 1.151-1.112"/></svg>