<svg xmlns="http://www.w3.org/2000/svg" width="24" height="24" fill="none"><path fill="#313235" d="M19.385 3.746c0-.832-.664-1.591-1.392-1.591H6.013c-.729 0-1.393.76-1.393 1.591V20.25c0 .863.636 1.591 1.392 1.591h11.98c.754 0 1.393-.728 1.393-1.59V3.745Zm-1.21 16.504c0 .219-.137.373-.182.387H6.018c-.059-.023-.19-.182-.19-.387V3.746c0-.193.145-.367.184-.387l11.956-.002c.061.022.207.196.207.389V20.25ZM7.413 7.953a.805.805 0 0 0 1.608 0 .802.802 0 0 0-.804-.8.802.802 0 0 0-.804.8Zm1.613 4.081a.802.802 0 0 0-.804-.8.802.802 0 1 0 0 1.602.802.802 0 0 0 .804-.802Zm1.922-3.428a.604.604 0 0 1-.605-.602c0-.334.271-.603.605-.603h5.563a.604.604 0 1 1 0 1.204h-5.563Zm6.25 3.428a.604.604 0 0 0-.606-.602H11.03a.604.604 0 0 0-.605.602c0 .334.272.603.605.603h5.563a.604.604 0 0 0 .605-.603Zm-8.976 3.21a.802.802 0 1 1 0 1.603.802.802 0 1 1 0-1.602Zm8.975.802a.604.604 0 0 0-.605-.602H11.03a.604.604 0 0 0-.605.602c0 .333.272.602.605.602h5.563a.604.604 0 0 0 .605-.602Z"/></svg>