<svg width="24" height="24" viewBox="0 0 24 24" fill="none" xmlns="http://www.w3.org/2000/svg">
<path fill-rule="evenodd" clip-rule="evenodd" d="M19.3848 3.75095C19.3848 2.91902 18.721 2.15991 17.9927 2.15991H6.01227C5.28398 2.15991 4.62012 2.91902 4.62012 3.75095V20.2551C4.62012 21.1179 5.25597 21.8462 6.01227 21.8462H17.9927C18.7462 21.8462 19.3848 21.1179 19.3848 20.2551V3.75095ZM18.1747 20.2551V3.75095C18.1747 3.55767 18.0291 3.384 17.9675 3.36159L6.01227 3.36439C5.97306 3.384 5.8274 3.55767 5.8274 3.75095V20.2551C5.8274 20.4596 5.95905 20.6193 6.01788 20.6417H17.9927C18.0375 20.6277 18.1747 20.4736 18.1747 20.2551ZM7.41283 7.95823C7.41283 8.40081 7.77138 8.75935 8.21676 8.75935C8.65933 8.75935 9.02068 8.39801 9.02068 7.95823C9.02068 7.51565 8.66213 7.15711 8.21676 7.15711C7.77138 7.15711 7.41283 7.51565 7.41283 7.95823ZM9.02628 12.0395C9.02628 11.5969 8.66774 11.2383 8.22236 11.2383C7.77698 11.2383 7.41844 11.5969 7.41844 12.0395C7.41844 12.482 7.77698 12.8406 8.22236 12.8406C8.66774 12.8406 9.02628 12.482 9.02628 12.0395ZM10.9478 8.61089C10.6145 8.61089 10.3428 8.34198 10.3428 8.00865C10.3428 7.67532 10.6145 7.40641 10.9478 7.40641H16.5109C16.8442 7.40641 17.1159 7.67532 17.1159 8.00865C17.1159 8.34198 16.8442 8.61089 16.5109 8.61089H10.9478ZM17.1971 12.0395C17.1971 11.7061 16.9254 11.4372 16.5921 11.4372H11.0291C10.6957 11.4372 10.424 11.7061 10.424 12.0395C10.424 12.3728 10.6957 12.6417 11.0291 12.6417H16.5921C16.9254 12.6417 17.1971 12.3728 17.1971 12.0395ZM8.22236 15.2495C8.66774 15.2495 9.02628 15.6081 9.02628 16.0507C9.02628 16.4932 8.66774 16.8518 8.22236 16.8518C7.77698 16.8518 7.41844 16.4932 7.41844 16.0507C7.41844 15.6081 7.77698 15.2495 8.22236 15.2495ZM17.1971 16.0507C17.1971 15.7173 16.9254 15.4484 16.5921 15.4484H11.0291C10.6957 15.4484 10.424 15.7173 10.424 16.0507C10.424 16.384 10.6957 16.6529 11.0291 16.6529H16.5921C16.9254 16.6529 17.1971 16.384 17.1971 16.0507Z" fill="#313235"/>
</svg>
