<svg width="24" height="24" fill="none" xmlns="http://www.w3.org/2000/svg"><path fill-rule="evenodd" clip-rule="evenodd" d="M21.631 21.682a.606.606 0 0 0 .182-.619l-2.291-8.02a.594.594 0 0 0-.336-.386.608.608 0 0 0-.513.011l-2.695 1.345-.168-.053c1.166-1.9 2.174-4.056 2.18-5.813.01-3.745-2.216-5.986-5.958-5.997h-.028c-3.729 0-5.958 2.227-5.97 5.96-.005 1.687.964 3.83 2.107 5.749l-.322.092-2.244-1.269a.601.601 0 0 0-.871.342l-2.527 8.025a.61.61 0 0 0 .171.63.61.61 0 0 0 .644.104l4.23-1.838 4.429 1.816c.028.01.058.02.09.028l.111.025a.58.58 0 0 0 .364-.025l4.606-1.846 4.168 1.837a.604.604 0 0 0 .641-.098ZM7.239 8.108c.011-3.07 1.7-4.76 4.762-4.76h.025c3.076.01 4.765 1.71 4.756 4.788-.008 2.84-3.395 7.429-4.795 9.064-1.521-1.764-4.757-6.378-4.748-9.092ZM20.3 20.156l-2.938-1.294-.667-3.869 1.863-.93 1.742 6.093Zm-16.577-.009 1.908-6.056 1.468.83-.457 3.957-2.919 1.27Zm7.687-1.792c-.555-.594-1.586-1.88-2.605-3.438l-.516.152-.437 3.829 3.544 1.454.014-1.997Zm1.204-.048-.014 2.028 3.55-1.42-.65-3.793-.365-.115c-1.025 1.527-2.045 2.77-2.52 3.3Zm-1.7-10.527c0 .748.347 1.096 1.095 1.096s1.098-.348 1.098-1.096c0-.748-.35-1.098-1.098-1.098-.745 0-1.095.348-1.095 1.098Zm1.098 2.303c1.42 0 2.303-.883 2.303-2.303s-.883-2.302-2.303-2.302-2.303.882-2.303 2.302.883 2.303 2.303 2.303Z" fill="#313235"/></svg>