<svg width="24" height="24" fill="none" xmlns="http://www.w3.org/2000/svg"><path d="M11.627 21.811a.6.6 0 0 0 .854 0c.83-.842 6.664-7.921 6.676-12.603C19.17 4.708 16.53 2.014 12.1 2h-.032C7.657 2 5.014 4.677 5 9.165c-.014 4.363 5.276 11.275 6.627 12.646ZM6.206 9.168c.011-3.834 2.094-5.945 5.862-5.945h.029c3.789.014 5.868 2.136 5.856 5.982-.011 3.57-4.263 9.36-5.902 11.272-1.8-2.088-5.856-7.902-5.845-11.31Zm5.874-1.869c.97.003 1.445.48 1.445 1.468 0 .984-.473 1.465-1.445 1.465-.973 0-1.445-.481-1.445-1.468 0-.984.475-1.465 1.445-1.465ZM9.429 8.767c0 1.658 1.015 2.69 2.65 2.69 1.636 0 2.652-1.032 2.652-2.69s-1.016-2.691-2.651-2.691c-1.636 0-2.651 1.033-2.651 2.69Z" fill="#313235"/></svg>