<svg xmlns="http://www.w3.org/2000/svg" width="24" height="24" fill="none"><path fill="#313235" d="M21.636 21.692a.606.606 0 0 0 .182-.619l-2.291-8.02a.594.594 0 0 0-.337-.386.608.608 0 0 0-.512.011l-2.695 1.345-.168-.053c1.165-1.9 2.174-4.056 2.18-5.813.01-3.745-2.216-5.986-5.959-5.997h-.028C8.28 2.16 6.05 4.387 6.04 8.12c-.005 1.687.964 3.83 2.107 5.749l-.322.092-2.244-1.269a.601.601 0 0 0-.871.342l-2.527 8.025a.61.61 0 0 0 .171.63.61.61 0 0 0 .644.104l4.23-1.837 4.428 1.815c.029.01.06.02.09.028l.112.025a.58.58 0 0 0 .364-.025l4.605-1.846 4.168 1.837a.604.604 0 0 0 .642-.098ZM7.244 8.118c.011-3.07 1.7-4.76 4.762-4.76h.025c3.075.01 4.765 1.71 4.756 4.788-.008 2.84-3.395 7.429-4.795 9.064-1.521-1.764-4.757-6.378-4.748-9.092Zm13.061 12.048-2.938-1.294-.667-3.869 1.863-.93 1.742 6.093Zm-16.577-.009 1.908-6.056 1.468.83-.457 3.957-2.919 1.27Zm7.687-1.793-.014 1.998-3.544-1.454.437-3.83.516-.15c1.02 1.557 2.05 2.843 2.605 3.436Zm1.204-.047c.476-.53 1.496-1.773 2.521-3.3l.364.115.65 3.793-3.549 1.42.014-2.028ZM10.92 7.79c0-.75.35-1.098 1.095-1.098.748 0 1.098.35 1.098 1.098 0 .748-.35 1.096-1.098 1.096-.748 0-1.095-.348-1.095-1.096Zm1.098 2.303c1.42 0 2.302-.883 2.302-2.303s-.882-2.302-2.302-2.302-2.303.882-2.303 2.302.883 2.303 2.303 2.303Z"/></svg>