<svg width="24" height="24" viewBox="0 0 24 24" fill="none" xmlns="http://www.w3.org/2000/svg">
<path fill-rule="evenodd" clip-rule="evenodd" d="M19.2858 13.9949V13.9923C19.2858 12.3845 19.2858 11.0952 19.2844 11.0952L19.2847 11.0907C19.2902 10.9966 19.3557 9.89041 18.5953 9.05322C18.0603 8.46499 17.2788 8.16807 16.2732 8.16807C14.1724 8.16807 9.75781 8.17367 8.13316 8.17647V7.0112C8.13316 3.60504 10.6122 3.21289 11.6766 3.20448H11.6766C11.8082 3.20448 11.9511 3.20448 12.0715 3.20728C12.7494 3.22409 14.9987 3.45938 15.5449 5.81793C15.6234 6.14286 15.9455 6.34174 16.262 6.26611C16.5813 6.19048 16.7802 5.86555 16.7046 5.54062C16.1164 3 13.9399 2.04762 12.1023 2.0028C12.0365 2.0028 11.9659 2.00213 11.8939 2.00144C11.8189 2.00073 11.7425 2 11.6682 2C9.38526 2.02241 6.94549 3.35014 6.94549 7.01401V8.20448C6.4861 8.26331 5.85305 8.43417 5.34605 8.90756C4.80263 9.41457 4.52532 10.1317 4.52532 11.0364L4.52812 18.7759L4.52806 18.7769C4.52447 18.8373 4.45719 19.9687 5.2312 20.8123C5.76341 21.3922 6.53372 21.6863 7.51972 21.6863L16.2368 21.6807L16.2396 21.6808C16.3243 21.6855 17.5932 21.7562 18.4749 20.9216C19.0155 20.4118 19.2872 19.7003 19.2872 18.8039C19.2858 17.5309 19.2858 15.6038 19.2858 13.9949ZM18.0968 11.0434L18.0967 11.0448C18.0967 11.0448 18.0939 16.2465 18.0995 18.8067C18.0995 19.3585 17.9595 19.7619 17.671 20.0392C17.1857 20.5032 16.4085 20.4823 16.2938 20.4793L16.2816 20.479L7.52252 20.4846C6.88386 20.4846 6.41047 20.3221 6.11355 20.0028C5.68498 19.5434 5.71579 18.8683 5.7186 18.8235V11.0392C5.7186 10.4874 5.86425 10.07 6.14997 9.80112C6.55893 9.41737 7.16958 9.38095 7.38806 9.38095C7.42639 9.38095 7.45382 9.38277 7.46454 9.38348L7.4693 9.38375C7.4833 9.38655 7.50011 9.38655 7.51411 9.38655H7.54212L8.73835 9.38517L8.73908 9.38517L8.74315 9.38516C10.6688 9.38277 14.3985 9.37815 16.2788 9.37815C16.9315 9.37815 17.4161 9.54062 17.7158 9.86555C18.1354 10.3185 18.1001 10.9809 18.0968 11.0434ZM11.8671 16.2633C13.2228 16.2381 13.2228 15.1877 13.2228 14.7927C13.2228 14.4342 13.2228 13.3417 11.8474 13.3081C11.8212 13.3081 11.7935 13.3074 11.7656 13.3067H11.7655C11.7368 13.306 11.7077 13.3053 11.6794 13.3053H11.6374C10.3068 13.3193 10.3068 14.3782 10.3068 14.7759C10.3068 15.1765 10.3068 16.2465 11.6626 16.2633H11.8671ZM14.4133 14.7927C14.4133 12.3249 12.3937 12.1176 11.8755 12.1036C11.8138 12.1008 11.7438 12.1008 11.6738 12.1008H11.6206C11.0883 12.1036 9.11075 12.2913 9.11075 14.7759C9.11075 17.2689 11.108 17.4622 11.6402 17.4706H11.8839C12.3909 17.4594 14.4133 17.2689 14.4133 14.7927Z" fill="#313235"/>
</svg>
