<svg xmlns="http://www.w3.org/2000/svg" width="24" height="24" fill="none"><path fill="#000" d="M14 16.31c0 1.845-1.526 1.987-1.908 1.995h-.183c-.402-.007-1.91-.15-1.91-2.007 0-1.85 1.493-1.99 1.894-1.993h.04q.081 0 .152.002c.392.01 1.915.165 1.915 2.003m-1.92 1.096c1.022-.019 1.022-.802 1.022-1.096 0-.267 0-1.08-1.037-1.105l-.062-.002h-.097c-1.004.01-1.004.799-1.004 1.095 0 .298 0 1.095 1.023 1.108z"/><path fill="#000" d="M17.142 6.602C17.024 4.017 14.758 1.975 12 1.975c-2.833 0-5.147 2.154-5.147 4.837v1.533c-.455.07-1.042.252-1.52.7-.552.514-.834 1.243-.834 2.162l.003 7.863c-.003.056-.074 1.21.715 2.07.54.59 1.323.887 2.325.887l8.857-.006h.002c.078.005 1.373.08 2.272-.77.55-.519.825-1.24.825-2.152l-.001-4.883v-.003c0-1.635 0-2.946-.002-2.946v-.004c.006-.094.073-1.219-.7-2.07-.41-.452-.964-.735-1.65-.847V6.812zm-1.33 1.69c-2.278.001-6.103.006-7.623.009V6.812l.005-.185C8.3 4.788 9.955 3.31 12.002 3.31c2.115 0 3.81 1.579 3.81 3.502zm2.091 1.725c.427.462.39 1.139.386 1.198 0 0-.003 5.285.003 7.887 0 .56-.142.97-.435 1.252-.493.472-1.284.45-1.399.447h-.012l-8.9.006c-.649 0-1.13-.166-1.432-.49-.435-.467-.404-1.153-.4-1.198v-7.91c-.001-.56.147-.984.438-1.257.415-.39 1.035-.427 1.257-.427.04 0 .069.001.079.002h.003a.2.2 0 0 0 .046.003h.029L8.78 9.53c1.955-.003 5.75-.007 7.663-.007.663 0 1.155.165 1.46.495"/></svg>