<svg width="24" height="24" viewBox="0 0 24 24" fill="none" xmlns="http://www.w3.org/2000/svg">
<path fill-rule="evenodd" clip-rule="evenodd" d="M19.2857 13.9949V13.9923C19.2857 12.3845 19.2857 11.0952 19.2843 11.0952L19.2846 11.0907C19.2901 10.9966 19.3556 9.89041 18.5952 9.05322C18.0602 8.46499 17.2787 8.16807 16.2731 8.16807C14.1723 8.16807 9.75769 8.17367 8.13304 8.17647V7.0112C8.13304 3.60504 10.612 3.21289 11.6765 3.20448H11.6765C11.8081 3.20448 11.951 3.20448 12.0714 3.20728C12.7493 3.22409 14.9986 3.45938 15.5448 5.81793C15.6232 6.14286 15.9454 6.34174 16.2619 6.26611C16.5812 6.19048 16.7801 5.86555 16.7045 5.54062C16.1162 3 13.9398 2.04762 12.1022 2.0028C12.0363 2.0028 11.9658 2.00213 11.8938 2.00144C11.8188 2.00073 11.7423 2 11.6681 2C9.38514 2.02241 6.94536 3.35014 6.94536 7.01401V8.20448C6.48598 8.26331 5.85293 8.43417 5.34592 8.90756C4.80251 9.41457 4.5252 10.1317 4.5252 11.0364L4.528 18.7759L4.52794 18.7769C4.52435 18.8373 4.45707 19.9687 5.23108 20.8123C5.76329 21.3922 6.5336 21.6863 7.51959 21.6863L16.2367 21.6807L16.2395 21.6808C16.3242 21.6855 17.5931 21.7562 18.4748 20.9216C19.0154 20.4118 19.2871 19.7003 19.2871 18.8039C19.2857 17.5309 19.2857 15.6038 19.2857 13.9949ZM18.0967 11.0434L18.0966 11.0448C18.0966 11.0448 18.0938 16.2465 18.0994 18.8067C18.0994 19.3585 17.9594 19.7619 17.6709 20.0392C17.1856 20.5032 16.4083 20.4823 16.2937 20.4793L16.2815 20.479L7.52239 20.4846C6.88374 20.4846 6.41035 20.3221 6.11343 20.0028C5.68486 19.5434 5.71567 18.8683 5.71847 18.8235V11.0392C5.71847 10.4874 5.86413 10.07 6.14985 9.80112C6.55881 9.41737 7.16945 9.38095 7.38794 9.38095C7.42626 9.38095 7.4537 9.38277 7.46441 9.38348L7.46917 9.38375C7.48318 9.38655 7.49999 9.38655 7.51399 9.38655H7.542L8.73823 9.38517L8.73895 9.38517L8.74303 9.38516C10.6686 9.38277 14.3984 9.37815 16.2787 9.37815C16.9314 9.37815 17.416 9.54062 17.7157 9.86555C18.1353 10.3185 18.1 10.9809 18.0967 11.0434ZM11.8669 16.2633C13.2227 16.2381 13.2227 15.1877 13.2227 14.7927C13.2227 14.4342 13.2227 13.3417 11.8473 13.3081C11.8211 13.3081 11.7934 13.3074 11.7654 13.3067H11.7654C11.7367 13.306 11.7076 13.3053 11.6793 13.3053H11.6372C10.3067 13.3193 10.3067 14.3782 10.3067 14.7759C10.3067 15.1765 10.3067 16.2465 11.6625 16.2633H11.8669ZM14.4132 14.7927C14.4132 12.3249 12.3935 12.1176 11.8753 12.1036C11.8137 12.1008 11.7437 12.1008 11.6737 12.1008H11.6204C11.0882 12.1036 9.11063 12.2913 9.11063 14.7759C9.11063 17.2689 11.1078 17.4622 11.64 17.4706H11.8837C12.3907 17.4594 14.4132 17.2689 14.4132 14.7927Z" fill="#313235"/>
</svg>
