<svg width="24" height="24" viewBox="0 0 24 24" fill="none" xmlns="http://www.w3.org/2000/svg">
<path fill-rule="evenodd" clip-rule="evenodd" d="M17.1415 6.59676C17.0242 4.01224 14.7581 1.96997 12.0008 1.96997C9.16818 1.96997 6.85432 4.12395 6.85432 6.80747V8.33986C6.39919 8.41092 5.81248 8.59219 5.33408 9.03907C4.78208 9.55407 4.50008 10.2831 4.50008 11.2021L4.50308 19.0651L4.50305 19.0656C4.49959 19.1219 4.42876 20.275 5.21808 21.1351C5.75808 21.7241 6.54108 22.0221 7.54308 22.0221L16.4001 22.0161L16.4021 22.0162C16.4796 22.0207 17.7753 22.0964 18.6741 21.2451C19.2231 20.7271 19.4991 20.0051 19.4991 19.0941C19.4976 17.8015 19.4976 15.8453 19.4976 14.2114V14.2076C19.4976 12.5732 19.4976 11.2621 19.4961 11.2621L19.4963 11.2579C19.5019 11.1644 19.5695 10.039 18.7961 9.18707C18.3854 8.73559 17.8321 8.45282 17.1463 8.34137V6.80747L17.1415 6.59676ZM15.8113 8.28721V6.80747C15.8113 4.88358 14.1158 3.30497 12.0008 3.30497C9.95322 3.30497 8.29916 4.78326 8.19457 6.6224L8.18932 6.80747V8.29603C9.70872 8.29329 13.5339 8.28812 15.8113 8.28721ZM17.9031 10.0121C17.5981 9.68207 17.1061 9.51707 16.4431 9.51707C14.5297 9.51707 10.7348 9.52148 8.78031 9.52375L7.56608 9.52507H7.53708C7.52308 9.52507 7.50608 9.52507 7.49108 9.52207L7.48755 9.52192C7.47777 9.52145 7.44895 9.52007 7.40908 9.52007C7.18708 9.52007 6.56708 9.55707 6.15208 9.94707C5.86108 10.2201 5.71308 10.6441 5.71308 11.2041V19.1141C5.71008 19.1591 5.67908 19.8451 6.11408 20.3121C6.41608 20.6361 6.89708 20.8021 7.54608 20.8021L16.4461 20.7961L16.458 20.7963C16.5725 20.7994 17.3636 20.8206 17.8571 20.3491C18.1501 20.0671 18.2921 19.6571 18.2921 19.0971C18.2861 16.4951 18.2891 11.2101 18.2891 11.2101L18.2891 11.2093C18.2924 11.1498 18.3301 10.4739 17.9031 10.0121ZM14 16.3051C14 18.1497 12.4744 18.2919 12.0921 18.3H11.9087C11.5071 18.2934 10 18.1497 10 16.2926C10 14.4422 11.4922 14.3022 11.8931 14.3H11.9339C11.9859 14.3 12.0394 14.3 12.0854 14.3022C12.4766 14.3124 14 14.4671 14 16.3051ZM12.0794 17.4011C13.1017 17.3821 13.1017 16.5991 13.1017 16.3051C13.1017 16.0382 13.1017 15.2245 12.0646 15.1995C12.0448 15.1995 12.024 15.199 12.0028 15.1985C11.9811 15.1979 11.9591 15.1973 11.9376 15.1973H11.9065C10.902 15.2076 10.902 15.9965 10.902 16.2926C10.902 16.591 10.902 17.3879 11.925 17.4011H12.0794Z" fill="#313235"/>
</svg>
