<svg xmlns="http://www.w3.org/2000/svg" width="24" height="24" fill="none"><path fill="#0B2739" d="M17.578 21.75h-8.16a3.674 3.674 0 0 1-3.67-3.67.75.75 0 0 1 1.5 0c0 1.196.974 2.17 2.17 2.17h8.16c1.196 0 2.17-.974 2.17-2.17V5.92c0-1.196-.974-2.17-2.17-2.17h-8.16c-1.196 0-2.17.974-2.17 2.17a.75.75 0 0 1-1.5 0 3.674 3.674 0 0 1 3.67-3.67h8.16a3.674 3.674 0 0 1 3.67 3.67v12.16a3.674 3.674 0 0 1-3.67 3.67Z"/><path fill="#0B2739" d="m5.299 11.25 1.72-1.721a.75.75 0 1 0-1.06-1.061l-2.984 2.984a.75.75 0 0 0 .003 1.064l3.013 2.983a.744.744 0 0 0 .527.217.749.749 0 0 0 .527-1.283L5.346 12.75h7.152a.75.75 0 0 0 0-1.5h-7.2Z"/></svg>