<svg width="24" height="24" fill="none" xmlns="http://www.w3.org/2000/svg"><path fill-rule="evenodd" clip-rule="evenodd" d="M16.823 21.5h-8.16a3.674 3.674 0 0 1-3.67-3.67.75.75 0 0 1 1.5 0c0 1.196.974 2.17 2.17 2.17h8.16c1.197 0 2.17-.974 2.17-2.17V5.67c0-1.196-.973-2.17-2.17-2.17h-8.16c-1.196 0-2.17.974-2.17 2.17a.75.75 0 0 1-1.5 0A3.674 3.674 0 0 1 8.663 2h8.16a3.674 3.674 0 0 1 3.67 3.67v12.16a3.674 3.674 0 0 1-3.67 3.67ZM4.543 11l1.722-1.721a.75.75 0 1 0-1.061-1.061L2.22 11.202a.75.75 0 0 0 .003 1.064l3.013 2.983a.744.744 0 0 0 .527.217.749.749 0 0 0 .527-1.283L4.591 12.5h7.152a.75.75 0 0 0 0-1.5h-7.2Z" fill="#313235"/></svg>