<svg width="24" height="24" fill="none" xmlns="http://www.w3.org/2000/svg"><path fill-rule="evenodd" clip-rule="evenodd" d="M11.859 21.914a.532.532 0 0 1-.533-.532v-18.6a.532.532 0 0 1 .618-.525 2.959 2.959 0 0 1 .193.003c5.346.086 9.654 4.451 9.649 9.816a9.809 9.809 0 0 1-5.986 9.028 9.767 9.767 0 0 1-3.74.77.533.533 0 0 1-.201.04Zm.532-13.876V3.366c.361.08.718.268 1.064.56.499.42.955 1.033 1.35 1.82.293.58.54 1.229.738 1.928a16.44 16.44 0 0 1-3.152.364Zm0 3.514v-2.45a17.78 17.78 0 0 0 3.402-.392c.181.896.288 1.854.316 2.842h-3.718Zm0 1.065v2.637c1.171.025 2.305.156 3.356.383.207-.946.33-1.965.361-3.02h-3.717Zm4.782 0a17.684 17.684 0 0 1-.393 3.28c.917.268 1.752.615 2.47 1.03a8.688 8.688 0 0 0 1.457-4.31h-3.534Zm3.536-1.065a8.747 8.747 0 0 0-1.354-4.184c-.73.436-1.585.8-2.53 1.078.202.981.32 2.028.349 3.107h3.535Zm-8.318 9.213v-4.446c1.074.024 2.11.142 3.09.351a10.713 10.713 0 0 1-.676 1.714c-.395.788-.848 1.401-1.35 1.821-.346.291-.703.479-1.064.56ZM18.726 6.5c-.614.356-1.344.663-2.152.907a11.987 11.987 0 0 0-.816-2.141 7.851 7.851 0 0 0-.95-1.48A8.692 8.692 0 0 1 18.726 6.5Zm-.129 11.283a10.442 10.442 0 0 0-2.083-.852c-.207.695-.46 1.344-.756 1.931a7.853 7.853 0 0 1-.95 1.48 8.756 8.756 0 0 0 3.79-2.56ZM6.82 21.424c-.316 0-.663-.056-.784-.076l-.014-.003-.025-.005c-1.087-.2-2.065-1.194-2.756-2.802-.712-1.658-1.09-3.87-1.09-6.403V12.046c0-2.533.375-4.746 1.09-6.407.691-1.607 1.669-2.602 2.756-2.8l.025-.004.014-.002.026-.004c.147-.024.504-.08.814-.072 1.872.042 2.858 1.036 2.858 2.868a3.93 3.93 0 0 1-.118.99c-.149.632-.465 1.122-.938 1.459-.474.336-1.087.504-1.835.504-.163 0-.328-.009-.49-.028-.042.033-.225.224-.348 1.028-.12.773-.134 1.778-.134 2.465v.09c0 .688.014 1.691.134 2.464.126.804.306.995.348 1.028.162-.02.325-.028.49-.028.745 0 1.364.168 1.835.505.47.336.79.829.938 1.459.081.322.12.655.118.989 0 1.834-.99 2.826-2.858 2.868l-.056.006Zm-.638-1.132.03.006c.275.044.49.064.645.061.652-.014 1.129-.17 1.412-.465.274-.285.406-.722.406-1.339a2.864 2.864 0 0 0-.084-.722c-.003-.006-.003-.012-.003-.017-.115-.493-.42-1.149-1.737-1.149-.148 0-.294.009-.442.028a.422.422 0 0 1-.084.003c-.275-.011-.664-.129-.961-.627-.163-.27-.283-.63-.37-1.098-.126-.678-.182-1.552-.182-2.838v-.09c0-1.285.056-2.162.182-2.837.087-.468.207-.83.37-1.098.297-.499.686-.616.96-.628a.84.84 0 0 1 .085.003c.145.02.294.028.442.028 1.32 0 1.625-.655 1.737-1.148l.001-.009.002-.008a2.85 2.85 0 0 0 .084-.723c0-.619-.135-1.056-.406-1.339-.286-.294-.762-.45-1.415-.467a3.787 3.787 0 0 0-.644.061l-.031.006c-.712.137-1.423.927-1.96 2.174-.457 1.064-1.004 2.966-1.004 5.98v.095c0 3.014.547 4.916 1.003 5.98.535 1.247 1.25 2.037 1.958 2.174l.006.003Z" fill="#313235"/></svg>