<svg width="24" height="24" viewBox="0 0 24 24" fill="none" xmlns="http://www.w3.org/2000/svg">
<path fill-rule="evenodd" clip-rule="evenodd" d="M17.4629 21.8518C18.5693 21.8518 19.376 21.5857 19.9279 21.0395C20.4825 20.4876 20.7542 19.6753 20.7542 18.5605V5.45123C20.7542 4.34759 20.4881 3.54367 19.9335 2.98624C19.3788 2.42882 18.5721 2.15991 17.4629 2.15991H10.9083C9.81022 2.15991 9.0035 2.43722 8.44047 3.00305C7.93383 3.51737 7.6656 4.22804 7.62299 5.17563C6.3303 5.26398 5.30391 5.66806 4.56653 6.3784C3.69258 7.22154 3.25 8.46804 3.25 10.0871C3.25 11.7061 3.69258 12.9526 4.56653 13.7958C5.30276 14.505 6.3271 14.9089 7.61694 14.9981V18.5605C7.61694 19.6753 7.88585 20.4876 8.44327 21.0395C8.99509 21.5857 9.80182 21.8518 10.9083 21.8518H17.4629ZM8.73739 14.9985V18.5605C8.73739 20.1431 9.32563 20.7313 10.9083 20.7313H17.4629C19.0455 20.7313 19.6338 20.1431 19.6338 18.5605V5.45123C19.6338 4.65851 19.4713 4.10949 19.1408 3.77616C18.8102 3.44283 18.2584 3.28036 17.4629 3.28036H10.9083C9.46278 3.28036 8.8187 3.83517 8.74467 5.17616C10.0337 5.26559 11.0575 5.66947 11.7934 6.3784C12.6674 7.22154 13.1099 8.46804 13.1099 10.0871C13.1099 11.7061 12.6674 12.9526 11.7934 13.7958C11.0561 14.506 10.0299 14.9101 8.73739 14.9985ZM5.34524 7.18512C5.96989 6.58288 6.92227 6.27756 8.17997 6.27756C9.43767 6.27756 10.3901 6.58288 11.0147 7.18512C11.6618 7.80697 11.9895 8.78456 11.9895 10.0871C11.9895 11.3896 11.6618 12.3672 11.0147 12.989C10.3901 13.5913 9.43487 13.8966 8.17997 13.8966C6.92507 13.8966 5.96989 13.5913 5.34524 12.989C4.69818 12.3672 4.37045 11.3896 4.37045 10.0871C4.37045 8.78456 4.69818 7.80697 5.34524 7.18512ZM7.4965 11.4904C7.4993 11.7145 7.67857 11.8938 7.89986 11.8938C8.12115 11.8938 8.30042 11.7145 8.30322 11.4904V10.9778C8.30596 10.8739 8.65614 10.5882 8.80031 10.4705L8.80031 10.4705L8.81023 10.4624L8.86836 10.4146C8.93099 10.3632 8.99409 10.3114 9.05392 10.258L9.05732 10.2549C9.25808 10.0768 9.72121 9.66592 9.82983 8.99745C9.91107 8.49885 9.78222 8.01986 9.47129 7.65291C9.10995 7.22994 8.55252 6.99745 7.89706 6.99745C7.32283 6.99745 6.82983 7.19633 6.47409 7.57168C6.14356 7.92182 5.96149 8.40641 5.96149 8.93302V9.04227C5.96149 9.26636 6.14076 9.44563 6.36485 9.44563C6.58894 9.44563 6.76821 9.26355 6.76821 9.04227V8.93302C6.76821 8.61089 6.87185 8.32238 7.06233 8.1235C7.26121 7.91341 7.55252 7.80137 7.89986 7.80137C8.31443 7.80137 8.65616 7.93302 8.86065 8.17392C9.02031 8.36159 9.08193 8.60249 9.03712 8.8686C8.97292 9.25378 8.66954 9.52214 8.52327 9.65153L8.52171 9.65291C8.46184 9.7053 8.3953 9.75991 8.32606 9.81674L8.32604 9.81675L8.32601 9.81678L8.30042 9.83778L8.29749 9.84017C7.92284 10.1449 7.4965 10.4917 7.4965 10.9778V11.4904ZM7.44049 12.7762C7.44049 13.0283 7.64497 13.2355 7.89987 13.2355C8.15478 13.2355 8.35926 13.0311 8.35926 12.7762C8.35926 12.5213 8.15478 12.3168 7.89987 12.3168C7.64777 12.3168 7.44049 12.5213 7.44049 12.7762ZM14.1856 19.5185C13.8438 19.5185 13.5581 19.412 13.3648 19.2131C13.1716 19.0143 13.0763 18.7425 13.0763 18.4036C13.0763 17.7061 13.4909 17.2888 14.1884 17.2888C14.8858 17.2888 15.3004 17.7061 15.3004 18.4036C15.3004 18.7453 15.2024 19.0171 15.0119 19.2131C14.8214 19.4092 14.5301 19.5185 14.1856 19.5185Z" fill="#313235"/>
</svg>
