<svg width="24" height="24" viewBox="0 0 24 24" fill="none" xmlns="http://www.w3.org/2000/svg">
<path fill-rule="evenodd" clip-rule="evenodd" d="M17.4629 21.8519C18.5693 21.8519 19.376 21.5857 19.9279 21.0395C20.4825 20.4877 20.7542 19.6754 20.7542 18.5605V5.45129C20.7542 4.34765 20.4881 3.54373 19.9335 2.9863C19.3788 2.42888 18.5721 2.15997 17.4629 2.15997H10.9083C9.81022 2.15997 9.0035 2.43728 8.44047 3.00311C7.93383 3.51743 7.6656 4.2281 7.62299 5.17569C6.3303 5.26404 5.30391 5.66812 4.56653 6.37846C3.69258 7.2216 3.25 8.4681 3.25 10.0871C3.25 11.7062 3.69258 12.9527 4.56653 13.7958C5.30276 14.5051 6.3271 14.909 7.61694 14.9982V18.5605C7.61694 19.6754 7.88585 20.4877 8.44327 21.0395C8.99509 21.5857 9.80182 21.8519 10.9083 21.8519H17.4629ZM8.73739 14.9986V18.5605C8.73739 20.1432 9.32563 20.7314 10.9083 20.7314H17.4629C19.0455 20.7314 19.6338 20.1432 19.6338 18.5605V5.45129C19.6338 4.65857 19.4713 4.10955 19.1408 3.77622C18.8102 3.44289 18.2584 3.28042 17.4629 3.28042H10.9083C9.46278 3.28042 8.8187 3.83524 8.74467 5.17622C10.0337 5.26565 11.0575 5.66953 11.7934 6.37846C12.6674 7.2216 13.1099 8.4681 13.1099 10.0871C13.1099 11.7062 12.6674 12.9527 11.7934 13.7958C11.0561 14.5061 10.0299 14.9102 8.73739 14.9986ZM5.34524 7.18518C5.96989 6.58294 6.92227 6.27762 8.17997 6.27762C9.43767 6.27762 10.3901 6.58294 11.0147 7.18518C11.6618 7.80703 11.9895 8.78462 11.9895 10.0871C11.9895 11.3897 11.6618 12.3673 11.0147 12.9891C10.3901 13.5913 9.43487 13.8967 8.17997 13.8967C6.92507 13.8967 5.96989 13.5913 5.34524 12.9891C4.69818 12.3673 4.37045 11.3897 4.37045 10.0871C4.37045 8.78462 4.69818 7.80703 5.34524 7.18518ZM7.4965 11.4905C7.4993 11.7146 7.67857 11.8939 7.89986 11.8939C8.12115 11.8939 8.30042 11.7146 8.30322 11.4905V10.9779C8.30596 10.8739 8.65614 10.5882 8.80031 10.4706L8.80031 10.4706L8.81023 10.4625L8.86836 10.4146C8.93099 10.3632 8.99409 10.3114 9.05392 10.258L9.05732 10.255C9.25808 10.0769 9.72121 9.66598 9.82983 8.99751C9.91107 8.49891 9.78222 8.01992 9.47129 7.65297C9.10995 7.23 8.55252 6.99751 7.89706 6.99751C7.32283 6.99751 6.82983 7.19639 6.47409 7.57174C6.14356 7.92188 5.96149 8.40647 5.96149 8.93308V9.04233C5.96149 9.26642 6.14076 9.44569 6.36485 9.44569C6.58894 9.44569 6.76821 9.26362 6.76821 9.04233V8.93308C6.76821 8.61095 6.87185 8.32244 7.06233 8.12356C7.26121 7.91348 7.55252 7.80143 7.89986 7.80143C8.31443 7.80143 8.65616 7.93308 8.86065 8.17398C9.02031 8.36165 9.08193 8.60255 9.03712 8.86866C8.97292 9.25384 8.66954 9.5222 8.52327 9.65159L8.52171 9.65297C8.46184 9.70536 8.3953 9.75997 8.32606 9.8168L8.32604 9.81681L8.32601 9.81684L8.30042 9.83784L8.29749 9.84023C7.92284 10.145 7.4965 10.4918 7.4965 10.9779V11.4905ZM7.44049 12.7762C7.44049 13.0283 7.64497 13.2356 7.89987 13.2356C8.15478 13.2356 8.35926 13.0311 8.35926 12.7762C8.35926 12.5213 8.15478 12.3168 7.89987 12.3168C7.64777 12.3168 7.44049 12.5213 7.44049 12.7762ZM14.1856 19.5185C13.8438 19.5185 13.5581 19.4121 13.3648 19.2132C13.1716 19.0143 13.0763 18.7426 13.0763 18.4037C13.0763 17.7062 13.4909 17.2888 14.1884 17.2888C14.8858 17.2888 15.3004 17.7062 15.3004 18.4037C15.3004 18.7454 15.2024 19.0171 15.0119 19.2132C14.8214 19.4093 14.5301 19.5185 14.1856 19.5185Z" fill="#313235"/>
</svg>
