<svg width="24" height="24" viewBox="0 0 24 24" fill="none" xmlns="http://www.w3.org/2000/svg">
<path fill-rule="evenodd" clip-rule="evenodd" d="M16.8462 2.16838L21.3224 2.90507C21.6249 2.95549 21.849 3.216 21.849 3.52412V20.4793C21.849 20.6642 21.7678 20.8378 21.6277 20.9583C21.4848 21.0759 21.3 21.1264 21.1179 21.0983L16.7902 20.3841L12.1935 21.8154C12.1319 21.8322 12.0675 21.8434 12.0059 21.8434C11.9414 21.8434 11.8742 21.8322 11.8126 21.8126L7.40921 20.3841L2.8882 21.0983C2.70613 21.1264 2.52126 21.0759 2.3812 20.9555C2.24114 20.8378 2.15991 20.6642 2.15991 20.4793V3.52692C2.15991 3.2188 2.384 2.95269 2.68932 2.90507L7.35879 2.16838C7.36739 2.16694 7.37526 2.16844 7.38276 2.16987C7.38993 2.17124 7.39677 2.17255 7.40361 2.17118C7.40996 2.17012 7.41631 2.16826 7.42281 2.16636C7.43352 2.16323 7.44463 2.15997 7.45683 2.15997C7.48631 2.15997 7.51215 2.16724 7.53833 2.17461C7.55197 2.17844 7.5657 2.18231 7.58008 2.18518C7.59155 2.18773 7.60243 2.18738 7.61327 2.18703C7.62625 2.18662 7.63916 2.1862 7.65291 2.19079L12.0087 3.60255L16.5577 2.18798C16.5699 2.1834 16.583 2.18382 16.596 2.18423C16.6068 2.18458 16.6175 2.18493 16.6277 2.18238C16.6391 2.17994 16.6502 2.17703 16.6614 2.17412C16.6885 2.16702 16.7155 2.15997 16.7453 2.15997C16.7569 2.15997 16.7675 2.1629 16.7783 2.16587C16.7858 2.16794 16.7933 2.17003 16.8014 2.17118C16.8069 2.17118 16.8128 2.17031 16.8189 2.16943C16.8282 2.16807 16.8377 2.16668 16.8462 2.16838ZM3.42042 4.06193L6.83218 3.52412V19.2076L3.42042 19.7482V4.06193ZM20.5913 19.7398L17.3728 19.2104V3.52972L20.5913 4.05913V19.7398ZM16.1151 3.64177L12.6333 4.7258V20.3673L16.1151 19.2832V3.64177ZM8.08708 3.65297L11.3784 4.7202V20.3532L8.08708 19.286V3.65297Z" fill="#313235"/>
</svg>
