<svg width="24" height="24" fill="none" xmlns="http://www.w3.org/2000/svg"><path d="m16.841 2.168 4.477.737c.302.05.526.311.526.62v16.954a.631.631 0 0 1-.22.48.646.646 0 0 1-.51.14l-4.329-.715-4.596 1.431a.65.65 0 0 1-.381-.003l-4.403-1.428-4.521.714a.628.628 0 0 1-.729-.619V3.527a.63.63 0 0 1 .53-.622l4.67-.737c.008-.001.016 0 .023.002.007.001.014.003.021.001.006 0 .013-.003.02-.005.01-.003.021-.006.033-.006.03 0 .056.007.082.015l.041.01a.13.13 0 0 0 .034.002c.013 0 .026 0 .04.004l4.355 1.412 4.549-1.415c.012-.005.025-.004.038-.004.011 0 .022 0 .032-.002a.756.756 0 0 0 .034-.008c.027-.007.054-.014.084-.014.011 0 .022.003.033.006a.186.186 0 0 0 .023.005c.005 0 .011 0 .017-.002a.083.083 0 0 1 .027 0ZM3.416 4.062v15.686l3.412-.54V3.524l-3.412.538Zm17.17 15.678V4.06l-3.218-.53v15.68l3.219.53ZM16.11 3.642 12.63 4.726v15.641l3.481-1.084V3.642Zm-8.028.011v15.633l3.292 1.067V4.72L8.082 3.653Z" fill="#313235"/></svg>