<svg xmlns="http://www.w3.org/2000/svg" width="24" height="24" fill="none"><path fill="#0B2739" d="M19.38 4.892c0-.695-.748-1.306-1.602-1.306h-2.953c-.361-.722-1.143-1.431-2.829-1.431-1.384 0-2.356.515-2.826 1.429H6.215c-.852 0-1.6.61-1.6 1.305v15.647c0 .706.734 1.305 1.602 1.305h11.56c.869 0 1.603-.596 1.603-1.305zm-7.384-1.558c1.55 0 1.787.754 1.863 1.003q.09.308.098.628v.117c-.006.227-.02.614-1.96.614-1.937 0-1.953-.382-1.964-.651v-.002l.005-.14c.034-.731.286-1.569 1.958-1.569m5.782 17.328H6.215a.8.8 0 0 1-.394-.116q-.018-.012-.024-.013L5.786 4.945c.03-.053.213-.185.429-.185h2.65l-.003.027-.003.026-.009.101-.002.126.002.079c.056 1.537 1.547 1.75 3.149 1.75s3.092-.213 3.146-1.722l.002-.107-.008-.193q0-.026-.005-.052l-.004-.032h2.648c.163 0 .308.076.376.111q.031.017.038.018l.009 15.6c-.023.047-.191.17-.423.17M11.3 5.287a.553.553 0 0 1-.554-.55c0-.302.246-.548.554-.548h1.393a.55.55 0 0 1 .551.549.55.55 0 0 1-.551.549zm6.297 8.963a.55.55 0 0 0-.551-.549s-1.564 0-1.56-.005l-.757-2.14a.555.555 0 0 0-1.053.028l-.625 2.114h-.53a.55.55 0 0 0-.504.325l-.35.776-.96-4.77a.55.55 0 0 0-.513-.44.544.544 0 0 0-.557.387l-1.143 3.67h-1.55a.55.55 0 0 0-.554.548c.003.305.25.55.555.55H8.9a.55.55 0 0 0 .53-.387l.618-1.99.874 4.337a.554.554 0 0 0 1.048.118l.91-2.023h.586c.244 0 .46-.16.529-.395l.258-.868.316.896a.55.55 0 0 0 .521.367h1.956a.55.55 0 0 0 .551-.549"/></svg>