<svg width="24" height="24" fill="none" xmlns="http://www.w3.org/2000/svg"><path fill-rule="evenodd" clip-rule="evenodd" d="M19.29 4.737c0-.695-.748-1.306-1.602-1.306h-2.953C14.374 2.71 13.592 2 11.906 2c-1.384 0-2.356.515-2.826 1.429H6.125c-.852 0-1.6.61-1.6 1.305V20.38c0 .706.734 1.305 1.602 1.305h11.56c.869 0 1.603-.596 1.603-1.305V4.737Zm-7.384-1.558c-1.672 0-1.924.838-1.958 1.569l-.005.14v.002c.01.269.027.65 1.963.65 1.941 0 1.955-.386 1.96-.613V4.81a2.38 2.38 0 0 0-.097-.628c-.076-.25-.314-1.003-1.863-1.003Zm5.782 17.328c.232 0 .4-.123.423-.17l-.009-15.6a.172.172 0 0 1-.038-.018.832.832 0 0 0-.376-.111H15.04a.83.83 0 0 0 .003.032c.003.018.005.034.005.052l.008.193-.002.107C15 6.502 13.51 6.714 11.909 6.714c-1.602 0-3.093-.213-3.149-1.75l-.002-.079.002-.126.009-.1c0-.01.001-.018.003-.027l.002-.027h-2.65c-.215 0-.397.132-.428.185l.011 15.588c.003 0 .012.005.024.013.057.032.204.116.394.116h11.563ZM11.21 5.132a.553.553 0 0 1-.554-.55c0-.302.246-.548.554-.548h1.393a.55.55 0 0 1 .551.549.55.55 0 0 1-.551.549H11.21Zm6.297 8.963a.55.55 0 0 0-.552-.549s-1.563 0-1.56-.005l-.756-2.14a.555.555 0 0 0-1.053.028l-.625 2.114h-.53a.55.55 0 0 0-.504.325l-.35.776-.96-4.77a.549.549 0 0 0-.513-.44.544.544 0 0 0-.557.387l-1.143 3.67h-1.55a.551.551 0 0 0-.554.548c.003.306.25.55.555.55H8.81a.554.554 0 0 0 .53-.387l.618-1.99.874 4.337a.554.554 0 0 0 1.048.118l.91-2.023h.586c.244 0 .46-.16.53-.395l.257-.868.316.896a.55.55 0 0 0 .521.367h1.955a.55.55 0 0 0 .552-.549Z" fill="#313235"/></svg>