<svg width="24" height="24" viewBox="0 0 24 24" fill="none" xmlns="http://www.w3.org/2000/svg">
<path fill-rule="evenodd" clip-rule="evenodd" d="M3.00305 6.24155C2.54367 6.24716 2.16832 5.88021 2.15991 5.42083C2.15991 4.96985 2.53806 4.6001 3.00305 4.6001H21.0002C21.4652 4.6001 21.8434 4.96704 21.8434 5.42083C21.835 5.88021 21.4596 6.24716 21.0002 6.24155H3.00305ZM21.003 11.1631C21.468 11.1631 21.8462 11.5301 21.8462 11.9839C21.8406 12.4432 21.4624 12.8102 21.003 12.8046H3.00305C2.54367 12.8102 2.16551 12.4432 2.15991 11.9839C2.15991 11.5301 2.53806 11.1631 3.00305 11.1631H21.003ZM21.8462 18.5469C21.8462 18.0931 21.468 17.7261 21.003 17.7261H3.00305C2.53806 17.7261 2.15991 18.0931 2.15991 18.5469C2.16551 19.0063 2.54367 19.3732 3.00305 19.3676H21.003C21.4624 19.3732 21.8406 19.0063 21.8462 18.5469Z" fill="#313235"/>
</svg>
