<svg width="24" height="24" viewBox="0 0 24 24" fill="none" xmlns="http://www.w3.org/2000/svg">
<path fill-rule="evenodd" clip-rule="evenodd" d="M3.00317 6.24143C2.54379 6.24703 2.16844 5.88009 2.16003 5.4207C2.16003 4.96972 2.53819 4.59998 3.00317 4.59998H21.0004C21.4654 4.59998 21.8435 4.96692 21.8435 5.4207C21.8351 5.88009 21.4598 6.24703 21.0004 6.24143H3.00317ZM21.0032 11.163C21.4682 11.163 21.8463 11.5299 21.8463 11.9837C21.8407 12.4431 21.4626 12.8101 21.0032 12.8045H3.00317C2.54379 12.8101 2.16564 12.4431 2.16003 11.9837C2.16003 11.5299 2.53819 11.163 3.00317 11.163H21.0032ZM21.8463 18.5468C21.8463 18.093 21.4682 17.726 21.0032 17.726H3.00317C2.53819 17.726 2.16003 18.093 2.16003 18.5468C2.16564 19.0061 2.54379 19.3731 3.00317 19.3675H21.0032C21.4626 19.3731 21.8407 19.0061 21.8463 18.5468Z" fill="#313235"/>
</svg>
