<svg xmlns="http://www.w3.org/2000/svg" width="24" height="24" fill="none"><path fill="#0B2739" d="M11.998 2.155c2.921 0 4.53 1.61 4.53 4.532v6.72c0 2.922-1.609 4.532-4.53 4.532-2.922 0-4.53-1.61-4.53-4.532v-6.72c0-2.921 1.608-4.532 4.53-4.532Zm3.308 11.252v-6.72c0-2.227-1.081-3.31-3.308-3.31S8.69 4.456 8.69 6.686v6.72c0 2.227 1.08 3.311 3.308 3.311 2.227 0 3.308-1.084 3.308-3.31Zm-2.33 7.48a.957.957 0 0 0-.956-.959.957.957 0 0 0 0 1.913.956.956 0 0 0 .955-.955Zm2.372-1.914a.956.956 0 1 1-.003 1.913.956.956 0 0 1 .003-1.913Zm3.627-1.325a.956.956 0 0 0-1.91 0 .956.956 0 0 0 1.91 0Zm0-4.21a.814.814 0 1 1 0 1.63.814.814 0 1 1 0-1.63Zm-9.372 6.49a.956.956 0 1 0-1.913.002.956.956 0 0 0 1.913-.002Zm-3.628-3.235a.956.956 0 0 1 0 1.91.956.956 0 0 1 0-1.91ZM5.02 15.07a.814.814 0 0 0 .815-.815.814.814 0 1 0-.815.815Z"/></svg>