<svg width="24" height="24" viewBox="0 0 24 24" fill="none" xmlns="http://www.w3.org/2000/svg">
<path fill-rule="evenodd" clip-rule="evenodd" d="M11.9927 2.15997C14.9142 2.15997 16.5221 3.77062 16.5221 6.69219V13.4121C16.5221 16.3336 14.9142 17.9443 11.9927 17.9443C9.0711 17.9443 7.46326 16.3336 7.46326 13.4121V6.69219C7.46326 3.77062 9.0711 2.15997 11.9927 2.15997ZM15.3008 13.4121V6.69219C15.3008 4.4653 14.2196 3.38126 11.9927 3.38126C9.76578 3.38126 8.68455 4.46249 8.68455 6.69219V13.4121C8.68455 15.639 9.76578 16.723 11.9927 16.723C14.2196 16.723 15.3008 15.639 15.3008 13.4121ZM12.9703 20.8911C12.9703 20.3617 12.5417 19.9331 12.0151 19.9331C11.4885 19.9331 11.0599 20.3617 11.0599 20.8911C11.0599 21.4177 11.4885 21.8462 12.0151 21.8462C12.5417 21.8462 12.9703 21.4177 12.9703 20.8911ZM15.3428 18.9779C15.8694 18.9779 16.298 19.4065 16.298 19.9331C16.298 20.4625 15.8694 20.8911 15.3428 20.8911C14.8162 20.8911 14.3876 20.4625 14.3876 19.9331C14.3876 19.4065 14.8162 18.9779 15.3428 18.9779ZM18.9703 17.653C18.9703 17.1264 18.5417 16.6978 18.0151 16.6978C17.4885 16.6978 17.0599 17.1264 17.0599 17.653C17.0599 18.1796 17.4885 18.6082 18.0151 18.6082C18.5417 18.6082 18.9703 18.1824 18.9703 17.653ZM18.9703 13.4429C19.4212 13.4429 19.7854 13.807 19.7854 14.258C19.7854 14.709 19.4212 15.0731 18.9703 15.0731C18.5193 15.0731 18.1551 14.709 18.1551 14.258C18.1551 13.8098 18.5193 13.4429 18.9703 13.4429ZM9.59771 19.9331C9.59771 19.4065 9.16914 18.9779 8.64253 18.9779C8.11592 18.9779 7.68455 19.4065 7.68735 19.9331C7.68735 20.4625 8.11592 20.8911 8.64253 20.8911C9.16914 20.8911 9.59771 20.4625 9.59771 19.9331ZM5.97026 16.6978C6.49687 16.6978 6.92544 17.1264 6.92544 17.653C6.92544 18.1824 6.49687 18.6082 5.97026 18.6082C5.44365 18.6082 5.01508 18.1796 5.01508 17.653C5.01508 17.1264 5.44365 16.6978 5.97026 16.6978ZM5.01508 15.0759C5.46606 15.0759 5.8302 14.7118 5.8302 14.2608C5.8302 13.8098 5.46606 13.4429 5.01508 13.4457C4.5641 13.4457 4.19995 13.8098 4.19995 14.2608C4.19995 14.7118 4.5641 15.0759 5.01508 15.0759Z" fill="#313235"/>
</svg>
