<svg width="24" height="24" viewBox="0 0 24 24" fill="none" xmlns="http://www.w3.org/2000/svg">
<path fill-rule="evenodd" clip-rule="evenodd" d="M21.8434 12.0059C21.8434 12.3392 21.5717 12.6109 21.2383 12.6109H18.6697V13.8238H21.2383C21.5717 13.8238 21.8434 14.0955 21.8434 14.4288C21.8434 14.7622 21.5717 15.0339 21.2383 15.0339H18.6697V17.426C18.6697 18.0927 18.0591 18.6781 17.3616 18.6781H15.0339V21.2383C15.0339 21.5717 14.7622 21.8434 14.4288 21.8434C14.0955 21.8434 13.8238 21.5717 13.8238 21.2383V18.6781H12.6109V21.2383C12.6109 21.5717 12.3392 21.8434 12.0059 21.8434C11.6725 21.8434 11.4008 21.5717 11.4008 21.2383V18.6781H10.1879V21.2383C10.1879 21.5717 9.91621 21.8434 9.58288 21.8434C9.24955 21.8434 8.97784 21.5717 8.97784 21.2383V18.6781H6.65011C5.94142 18.6781 5.34198 18.1067 5.34198 17.426V15.0339H2.76495C2.43162 15.0339 2.15991 14.7622 2.15991 14.4288C2.15991 14.0955 2.43162 13.8238 2.76495 13.8238H5.34198V12.6109H2.76495C2.43162 12.6109 2.15991 12.3392 2.15991 12.0059C2.15991 11.6725 2.43162 11.4008 2.76495 11.4008H5.34198V10.1879H2.76495C2.43162 10.1879 2.15991 9.91621 2.15991 9.58288C2.15991 9.24955 2.43162 8.97784 2.76495 8.97784H5.34198V6.61089C5.34198 5.93862 5.95263 5.35039 6.65011 5.35039H8.97784V2.76495C8.97784 2.43162 9.24955 2.15991 9.58288 2.15991C9.91621 2.15991 10.1879 2.43162 10.1879 2.76495V5.35039H11.4008V2.76495C11.4008 2.43162 11.6725 2.15991 12.0059 2.15991C12.3392 2.15991 12.6109 2.43162 12.6109 2.76495V5.35039H13.8238V2.76495C13.8238 2.43162 14.0955 2.15991 14.4288 2.15991C14.7622 2.15991 15.0339 2.43162 15.0339 2.76495V5.35039H17.3616C18.0591 5.35039 18.6697 5.93862 18.6697 6.61089V8.97784H21.2383C21.5717 8.97784 21.8434 9.24955 21.8434 9.58288C21.8434 9.91621 21.5717 10.1879 21.2383 10.1879H18.6697V11.4008H21.2383C21.5717 11.4008 21.8434 11.6725 21.8434 12.0059ZM6.64731 17.468H17.3588C17.398 17.468 17.4484 17.4288 17.4596 17.4092V14.4456C17.4596 14.4442 17.4589 14.4421 17.4582 14.44C17.4575 14.4379 17.4568 14.4358 17.4568 14.4344C17.4568 14.4311 17.4578 14.4288 17.4586 14.4269C17.4592 14.4255 17.4596 14.4244 17.4596 14.4232V12.0171C17.4596 12.0157 17.4589 12.0143 17.4582 12.0129C17.4575 12.0115 17.4568 12.0101 17.4568 12.0087C17.4568 12.0073 17.4575 12.0058 17.4582 12.0044C17.4589 12.003 17.4596 12.0016 17.4596 12.0002V6.6361C17.4428 6.60529 17.3896 6.56888 17.3616 6.56607H6.65011C6.6193 6.56607 6.56047 6.61089 6.54927 6.6417V9.57168C6.54927 9.57448 6.54997 9.57658 6.55067 9.57868C6.55137 9.58078 6.55207 9.58288 6.55207 9.58568C6.55207 9.58848 6.55137 9.59058 6.55067 9.59269C6.54997 9.59479 6.54927 9.59689 6.54927 9.59969L6.55207 11.9974C6.55207 11.9988 6.55277 12.0002 6.55347 12.0016C6.55417 12.003 6.55487 12.0044 6.55487 12.0058C6.55487 12.0091 6.55391 12.0115 6.55311 12.0134C6.55255 12.0147 6.55207 12.0159 6.55207 12.0171V14.4288V14.4344V17.426C6.553 17.4265 6.555 17.4279 6.5579 17.4301C6.57252 17.4407 6.60991 17.468 6.64731 17.468Z" fill="#313235"/>
</svg>
