<svg width="24" height="24" viewBox="0 0 24 24" fill="none" xmlns="http://www.w3.org/2000/svg">
<path fill-rule="evenodd" clip-rule="evenodd" d="M18.7235 5.83151C18.9952 5.59061 19.0176 5.18445 18.7767 4.91835C16.091 1.97985 12.1109 2.15601 11.9154 2.16466L11.9112 2.16484C7.58345 2.21246 5.26693 4.65504 5.17169 4.75868C4.92519 5.02199 4.9476 5.43095 5.21651 5.66905C5.48542 5.90434 5.90278 5.88753 6.14928 5.62423C6.16609 5.60462 8.16609 3.49538 11.9532 3.45336C11.9896 3.44496 15.519 3.28809 17.7935 5.77829C17.9224 5.92115 18.1017 5.99398 18.2837 5.99398C18.4406 5.99398 18.5975 5.94075 18.7235 5.83151ZM11.97 10.7475C12.8664 10.7475 13.5666 10.98 14.054 11.4366C14.5582 11.9099 14.8159 12.6158 14.8159 13.5262C14.8159 14.4394 14.5582 15.1424 14.054 15.6158C13.5694 16.0696 12.8692 16.3021 11.9728 16.3021C11.0737 16.3021 10.3762 16.0696 9.89158 15.6158C9.38738 15.1424 9.13247 14.4394 9.13247 13.5262C9.13247 12.6158 9.38738 11.9099 9.89158 11.4366C10.3734 10.9772 11.0708 10.7475 11.97 10.7475ZM13.1409 14.6859C13.3762 14.4646 13.4966 14.0752 13.4966 13.5262C13.4966 12.98 13.379 12.5878 13.1381 12.3637C12.9056 12.1424 12.5134 12.0332 11.97 12.0332C11.4266 12.0332 11.0344 12.1424 10.8047 12.3609C10.5666 12.585 10.449 12.9772 10.449 13.5262C10.449 14.0752 10.5694 14.4646 10.8047 14.6887C11.0905 14.9576 11.5947 15.0136 11.97 15.0136C12.3454 15.0136 12.8524 14.9576 13.1409 14.6859ZM15.7011 20.557H8.24732C8.25292 20.1817 8.33976 19.6775 8.6955 19.3161C9.10446 18.8959 9.76273 18.8091 10.2389 18.8091H13.7011C14.1801 18.8091 14.8384 18.8959 15.2529 19.3189C15.6087 19.6803 15.6955 20.1817 15.7011 20.557ZM13.7011 17.5206C14.7543 17.5206 15.6199 17.8315 16.2025 18.4253C16.7375 18.9688 17.0204 19.7223 17.0204 20.6074V21.5318C17.0204 21.7055 16.8748 21.8455 16.6983 21.8455H7.25292C7.07365 21.8455 6.93079 21.7055 6.93079 21.5318V20.6074C6.93079 19.7223 7.21091 18.966 7.74592 18.4253C8.32575 17.8315 9.1885 17.5206 10.2417 17.5206H13.7011ZM11.914 4.99678C12.0316 4.99118 15.2333 4.88193 17.2809 7.12003C17.5218 7.38613 17.4994 7.7923 17.2277 8.03039C16.9532 8.26849 16.5386 8.24608 16.2949 7.97997C14.703 6.23379 12.0657 6.28309 11.9512 6.28523L11.9476 6.28529C9.26413 6.3133 7.65908 7.99678 7.64508 8.01358C7.51343 8.15364 7.33415 8.22367 7.15488 8.22367C6.99522 8.22367 6.83836 8.16765 6.71231 8.0584C6.4434 7.82031 6.42099 7.41414 6.66469 7.15084C6.74592 7.064 8.65348 5.03039 11.914 4.99678ZM14.5274 10.1704C14.7711 10.4366 15.1857 10.459 15.4602 10.2209C15.7319 9.98557 15.7515 9.57661 15.5106 9.3105C14.201 7.87773 12.1873 7.88905 11.9542 7.89036C11.9435 7.89042 11.9365 7.89046 11.9336 7.89033C9.76833 7.91274 8.49382 9.27129 8.4406 9.33011C8.1969 9.59342 8.21931 9.99678 8.48542 10.2377C8.61147 10.3469 8.77113 10.4029 8.92799 10.4029C9.10726 10.4029 9.28654 10.3329 9.41539 10.1957C9.41602 10.195 9.41689 10.1941 9.418 10.193C9.48472 10.1256 10.402 9.19814 11.9672 9.17885C11.9675 9.17885 11.9682 9.17884 11.9692 9.17883C12.0354 9.17799 13.6006 9.1581 14.5274 10.1704Z" fill="#313235"/>
</svg>
