<svg width="24" height="24" fill="none" xmlns="http://www.w3.org/2000/svg"><path d="M18.724 5.832a.64.64 0 0 0 .053-.914C16.09 1.98 12.11 2.156 11.915 2.165h-.004c-4.328.047-6.644 2.49-6.74 2.594a.633.633 0 0 0 .046.91.676.676 0 0 0 .932-.045c.017-.02 2.017-2.129 5.804-2.17.037-.009 3.566-.166 5.84 2.324a.669.669 0 0 0 .93.053Zm-6.754 4.916c.896 0 1.597.232 2.084.689.504.473.762 1.179.762 2.09 0 .912-.258 1.615-.762 2.089-.485.454-1.185.686-2.081.686-.9 0-1.597-.232-2.081-.686-.505-.474-.76-1.177-.76-2.09 0-.91.255-1.616.76-2.09.481-.459 1.179-.688 2.078-.688Zm1.17 3.938c.236-.221.357-.61.357-1.16 0-.546-.118-.938-.359-1.162-.232-.222-.625-.33-1.168-.33-.543 0-.936.108-1.165.327-.238.224-.356.616-.356 1.165 0 .55.12.939.356 1.163.286.269.79.325 1.165.325s.882-.056 1.17-.328Zm2.561 5.871c-.006-.375-.092-.877-.448-1.238-.415-.423-1.073-.51-1.552-.51H10.24c-.476 0-1.135.087-1.544.507-.355.361-.442.866-.448 1.241h7.454Zm-2-3.036c1.053 0 1.919.31 2.502.904.535.544.817 1.297.817 2.182v.925a.319.319 0 0 1-.322.314H7.253a.317.317 0 0 1-.322-.314v-.925c0-.885.28-1.641.815-2.182.58-.594 1.442-.904 2.496-.904h3.46ZM11.914 4.997c.118-.006 3.32-.115 5.367 2.123a.636.636 0 0 1-.053.91.67.67 0 0 1-.933-.05c-1.592-1.746-4.23-1.697-4.344-1.695h-.003c-2.684.028-4.289 1.712-4.303 1.729a.673.673 0 0 1-.933.045.633.633 0 0 1-.047-.908c.08-.087 1.988-2.12 5.249-2.154Zm2.613 5.173a.67.67 0 0 0 .933.05.636.636 0 0 0 .05-.91c-1.309-1.432-3.323-1.421-3.556-1.42h-.02c-2.166.023-3.44 1.381-3.493 1.44a.635.635 0 0 0 .044.908.679.679 0 0 0 .93-.042l.003-.003c.067-.067.984-.995 2.55-1.014h.001c.066-.001 1.632-.02 2.558.991Z" fill="#313235"/></svg>