<svg width="24" height="24" fill="none" xmlns="http://www.w3.org/2000/svg"><path d="M20.891 3.112c.642.639.955 1.535.955 2.737v12.305c0 1.216-.314 2.118-.963 2.754-.645.63-1.55.938-2.765.938H11.91c-1.219 0-2.12-.308-2.762-.938-.577-.566-.888-1.34-.953-2.359V18l-.054.002-.058.001c-3.742.003-5.924-1.868-5.924-5.865 0-4 2.182-5.872 5.924-5.872a1.212 1.212 0 0 1 .101.003v-.417c0-1.185.314-2.076.955-2.72.653-.655 1.558-.972 2.77-.972h6.21c1.22 0 2.127.31 2.771.952Zm-.263 2.74c0-.869-.196-1.488-.6-1.888-.406-.403-1.03-.597-1.91-.597H11.91c-.869 0-1.493.2-1.905.61-.406.41-.605 1.02-.605 1.875v.501c2.933.41 4.61 2.283 4.61 5.785 0 3.501-1.672 5.37-4.602 5.781v.594c.045.675.238 1.19.594 1.538.4.395 1.025.588 1.905.588h6.21c.88 0 1.501-.193 1.905-.588.409-.398.605-1.02.605-1.897V5.852Zm-7.835 6.283c0-3.182-1.496-4.667-4.709-4.667-3.21 0-4.706 1.482-4.706 4.667 0 3.182 1.496 4.664 4.706 4.664 3.213 0 4.709-1.482 4.709-4.664Zm3.272 5.87c0-.655-.393-1.047-1.05-1.047-.659 0-1.051.392-1.057 1.048 0 .32.093.574.275.759.185.188.454.286.778.286.325 0 .594-.098.78-.286.181-.182.274-.44.274-.76ZM6.264 9.304c.336 0 .607.269.607.602v4.712a.607.607 0 0 1-1.215 0v-4.71a.61.61 0 0 1 .608-.604Zm4.058.585a.606.606 0 0 0-.607-.602.607.607 0 0 0-.608.605V14.6a.608.608 0 0 0 1.215 0V9.888Z" fill="#313235"/></svg>