<svg width="24" height="24" viewBox="0 0 24 24" fill="none" xmlns="http://www.w3.org/2000/svg">
<path fill-rule="evenodd" clip-rule="evenodd" d="M15.238 2H8.471C6.2888 2 5 3.24271 5 5.472V18.848C5 21.0774 6.28898 22.321 8.471 22.321H15.238C17.42 22.321 18.709 21.0774 18.709 18.848V5.472C18.709 3.24271 17.4202 2 15.238 2ZM8.471 3.5H15.238C16.6038 3.5 17.209 4.0836 17.209 5.472V18.848C17.209 20.2367 16.6034 20.821 15.238 20.821H8.471C7.10561 20.821 6.5 20.2367 6.5 18.848V5.472C6.5 4.0836 7.10525 3.5 8.471 3.5ZM10.8475 17.1605C10.8475 16.4775 11.2445 16.1605 11.8545 16.1605C12.4645 16.1605 12.8615 16.4775 12.8615 17.1605C12.8615 17.4875 12.7695 17.7315 12.6075 17.8955C12.4305 18.0745 12.1715 18.1605 11.8545 18.1605C11.5375 18.1605 11.2785 18.0745 11.1015 17.8955C10.9395 17.7315 10.8475 17.4875 10.8475 17.1605Z" fill="#313235"/>
</svg>
