<svg width="24" height="24" viewBox="0 0 24 24" fill="none" xmlns="http://www.w3.org/2000/svg">
<path fill-rule="evenodd" clip-rule="evenodd" d="M14.1219 6.44969C14.2507 6.7242 14.514 6.89506 14.8081 6.89506L15.9566 6.90627L15.9594 8.88386C15.9594 9.4945 16.4496 9.9903 17.0518 9.9903H18.7689C19.3712 9.9903 19.8614 9.4945 19.8614 8.88106L19.8586 6.90347L21.0042 6.89506C21.3011 6.89506 21.5644 6.7242 21.6933 6.44969C21.8221 6.17518 21.7829 5.84465 21.556 5.56733L18.5056 2.43569C18.4776 2.40207 18.4244 2.34885 18.3908 2.32084C18.2339 2.19199 18.035 2.13037 17.8306 2.15558C17.6289 2.17798 17.4468 2.28163 17.3656 2.39087L14.2227 5.60655C14.0322 5.84465 13.993 6.17238 14.1219 6.44969ZM2.8866 7.45529C2.8866 7.11075 3.16391 6.83064 3.50284 6.83064H3.87819C3.87497 6.77485 3.8697 6.7207 3.86442 6.66647C3.85591 6.57911 3.84738 6.49152 3.84738 6.39647C3.84738 6.37546 3.84948 6.35585 3.85158 6.33624C3.85368 6.31663 3.85578 6.29703 3.85578 6.27602H3.50004C3.1583 6.27602 2.88379 5.99591 2.88379 5.65137C2.88379 5.30683 3.16111 5.02672 3.50004 5.02672H4.01545C4.45242 3.2228 5.79976 2.23401 7.94821 2.23401C8.75213 2.23401 9.45241 2.37126 10.0322 2.64577C10.3404 2.79143 10.4748 3.16398 10.332 3.4777C10.1891 3.79143 9.81656 3.92868 9.51404 3.78302C9.09667 3.58695 8.57006 3.48611 7.94821 3.48611C6.51964 3.48611 5.6541 3.9847 5.28715 5.02672H7.32356C7.6653 5.02672 7.93981 5.30683 7.93981 5.65137C7.93981 5.99591 7.6625 6.27602 7.32356 6.27602H5.08827C5.08827 6.29703 5.08617 6.31663 5.08407 6.33624C5.08197 6.35585 5.07987 6.37546 5.07987 6.39647C5.07987 6.50002 5.08746 6.59597 5.09499 6.69114L5.095 6.69118C5.09867 6.73759 5.10233 6.78381 5.10508 6.83064H7.32356C7.6653 6.83064 7.93981 7.11075 7.93981 7.45529C7.93981 7.79982 7.6625 8.07994 7.32356 8.07994H5.42441C5.84738 8.90346 6.6709 9.30683 7.94821 9.30683C8.57846 9.30683 9.10788 9.20599 9.52804 9.0043C9.83617 8.85585 10.2031 8.9931 10.3488 9.30402C10.4944 9.61775 10.3628 9.9903 10.0547 10.1388C9.46922 10.4189 8.76054 10.5617 7.94821 10.5617C5.92581 10.5617 4.60368 9.69058 4.09108 8.08554H3.50004C3.16111 8.07994 2.8866 7.79982 2.8866 7.45529ZM17.9146 3.60375L15.9118 5.65417L16.4328 5.65977C16.6541 5.66537 16.8446 5.75221 16.9874 5.90627C17.1303 6.06033 17.2031 6.25921 17.1947 6.46929L17.1975 8.741H18.6289L18.6261 6.44689C18.6205 6.25641 18.6933 6.05753 18.8362 5.90627C18.979 5.75221 19.1695 5.66537 19.374 5.65977L19.9118 5.65417L17.9146 3.60375ZM19.9958 20.3516C20.5252 20.192 20.6037 20.0267 20.6037 20.0267V19.1752C20.5848 19.183 20.566 19.191 20.5472 19.1989L20.5472 19.199C20.4853 19.2253 20.4231 19.2517 20.3544 19.2732C19.7493 19.4581 18.9678 19.5589 18.1499 19.5589C17.332 19.5589 16.5504 19.4581 15.9454 19.2732C15.8775 19.2526 15.8171 19.2275 15.7565 19.2023L15.7565 19.2023C15.7347 19.1932 15.7128 19.1841 15.6905 19.1752V20.0295C15.7017 20.0519 15.7941 20.2004 16.2955 20.3544C17.2731 20.6513 19.0098 20.6513 19.9958 20.3516ZM14.4496 20.0407C14.36 20.1275 14.1667 20.2564 13.8474 20.3544C12.8726 20.6513 11.1303 20.6513 10.1471 20.3572C9.79415 20.248 9.61208 20.1219 9.53365 20.0491V19.1359C9.56258 19.1471 9.59058 19.159 9.61858 19.1708L9.61859 19.1708L9.61861 19.1708C9.67463 19.1945 9.73066 19.2181 9.79415 19.2368C10.3992 19.4217 11.1807 19.5225 11.9986 19.5225C12.8166 19.5225 13.6009 19.4217 14.2031 19.2368C14.2607 19.2188 14.3124 19.1974 14.3636 19.1761L14.3637 19.1761C14.3922 19.1643 14.4206 19.1526 14.4496 19.1415V20.0407ZM7.69611 20.3544C8.03785 20.2508 8.21712 20.1163 8.30115 20.0351V19.1499C8.26903 19.1617 8.23854 19.1743 8.20797 19.187L8.20794 19.187L8.20788 19.187C8.15851 19.2074 8.10892 19.2279 8.05186 19.2452C7.44962 19.4301 6.6653 19.5309 5.84738 19.5309C5.02945 19.5309 4.24514 19.4301 3.6429 19.2452C3.57941 19.2265 3.52338 19.2029 3.46736 19.1792C3.43935 19.1674 3.41134 19.1556 3.38239 19.1443V20.0435C3.45802 20.1191 3.6401 20.2424 3.99864 20.3516C4.97903 20.6541 6.72132 20.6513 7.69611 20.3544ZM3.53645 17.8502C3.62889 17.7914 3.76335 17.7242 3.99304 17.6542C4.97343 17.3544 6.71292 17.3544 7.69331 17.6542C7.9258 17.727 8.06306 17.797 8.15269 17.853C8.05746 17.9119 7.9118 17.9791 7.69611 18.0463C6.71572 18.346 4.97903 18.3432 3.99864 18.0463C3.77455 17.9791 3.62889 17.9091 3.53645 17.8502ZM10.1443 15.3348C9.9258 15.4021 9.78294 15.4721 9.69051 15.5281C9.78014 15.5869 9.9146 15.657 10.1499 15.727C11.1303 16.0239 12.8726 16.0239 13.8474 15.727C14.0659 15.6598 14.2087 15.5925 14.3039 15.5337C14.2143 15.4749 14.0799 15.4049 13.8446 15.3348C12.867 15.0379 11.1247 15.0379 10.1443 15.3348ZM15.839 13.2536C15.9314 13.1948 16.0715 13.1275 16.2927 13.0603C17.2759 12.7578 19.0126 12.7606 19.9958 13.0603C20.2283 13.1332 20.3656 13.2004 20.4552 13.2592C20.36 13.318 20.2171 13.3853 19.9986 13.4525C19.0182 13.7522 17.2787 13.7494 16.3011 13.4525C16.0658 13.3825 15.9286 13.3124 15.839 13.2536ZM15.6877 16.8586V17.7718C15.7661 17.8474 15.951 17.9707 16.2983 18.0743C17.2815 18.374 19.0154 18.374 19.9986 18.0743C20.3235 17.9735 20.5168 17.8418 20.6037 17.755V16.8586C20.5778 16.869 20.5528 16.8796 20.5279 16.8901L20.5279 16.8901C20.4718 16.9138 20.4164 16.9373 20.3544 16.9567C19.7549 17.1387 18.9706 17.2424 18.1499 17.2424C17.3292 17.2424 16.5476 17.1415 15.9454 16.9567C15.8855 16.9391 15.8323 16.917 15.7801 16.8954L15.7801 16.8954L15.7801 16.8954C15.7493 16.8827 15.7189 16.8701 15.6877 16.8586ZM15.7671 14.5854C15.8231 14.609 15.8791 14.6327 15.9426 14.6514C16.5476 14.8334 17.3292 14.9343 18.1471 14.9343C18.965 14.9343 19.7465 14.8334 20.3516 14.6486C20.4206 14.6276 20.4787 14.6036 20.5388 14.5787L20.5388 14.5787L20.5388 14.5787C20.5591 14.5703 20.5796 14.5618 20.6009 14.5533V15.4385C20.5196 15.5197 20.3376 15.6542 19.9958 15.7578C19.0182 16.0575 17.2787 16.0575 16.2983 15.7578C15.9398 15.6486 15.7605 15.5253 15.6821 15.4497V14.5505C15.711 14.5617 15.7391 14.5735 15.7671 14.5854ZM9.53365 17.727C9.61208 17.8026 9.79415 17.9259 10.1499 18.0351C11.1331 18.332 12.867 18.3348 13.8474 18.0351C14.1863 17.9315 14.3656 17.8026 14.4468 17.7186V16.8306C14.4177 16.8417 14.3893 16.8534 14.3608 16.8652C14.3096 16.8864 14.2578 16.9079 14.2003 16.9259C13.6009 17.1107 12.8166 17.2116 11.9958 17.2116C11.1751 17.2116 10.3936 17.1107 9.79135 16.9259C9.72786 16.9053 9.67184 16.8823 9.61581 16.8593L9.6157 16.8592C9.58773 16.8477 9.55975 16.8362 9.53084 16.825V17.727H9.53365ZM21.8361 13.3909C21.8361 12.9007 21.5784 12.2368 20.3488 11.8614C19.1443 11.4917 17.1443 11.4917 15.937 11.867C15.1359 12.1107 14.6541 12.5057 14.5 13.0407C14.4664 13.1528 14.4496 13.2732 14.4496 13.3937V14.234C14.3684 14.2004 14.2927 14.1696 14.2003 14.1416C12.9986 13.7718 10.993 13.7718 9.78855 14.1416C8.98743 14.3852 8.50283 14.7802 8.35157 15.3152C8.31796 15.4273 8.30115 15.5449 8.30115 15.6682V16.5505C8.28002 16.5425 8.25908 16.5343 8.23804 16.526C8.17817 16.5026 8.11745 16.4788 8.04905 16.4581C6.84457 16.0911 4.84178 16.0911 3.6373 16.4581C2.83618 16.7018 2.35158 17.0967 2.19752 17.6317V17.6345C2.16671 17.7466 2.1499 17.867 2.1499 17.9847V20.2956C2.1499 20.4945 2.24514 20.6626 2.388 20.7774C2.6429 21.1079 3.06587 21.374 3.6429 21.5505C4.24234 21.7354 5.02665 21.8362 5.84738 21.8362C6.6681 21.8362 7.45242 21.7354 8.05185 21.5505C8.38519 21.4469 8.6737 21.304 8.9118 21.1331C9.14709 21.3012 9.44121 21.4441 9.79415 21.5505C10.3964 21.7354 11.1779 21.8362 11.9986 21.8362C12.8194 21.8362 13.6037 21.7354 14.2031 21.5505C14.5364 21.4469 14.8278 21.304 15.0659 21.1331C15.2815 21.29 15.5588 21.4357 15.937 21.5505C16.542 21.7354 17.3235 21.8362 18.1415 21.8362C18.9594 21.8362 19.7437 21.7354 20.3488 21.5505C21.5784 21.1752 21.8361 20.5113 21.8361 20.0211V13.3909Z" fill="#313235"/>
</svg>
