<svg width="24" height="24" viewBox="0 0 24 24" fill="none" xmlns="http://www.w3.org/2000/svg">
<path fill-rule="evenodd" clip-rule="evenodd" d="M14.1373 6.43698L17.1877 9.57703C17.2157 9.61064 17.269 9.66387 17.3026 9.68908C17.4398 9.80112 17.6051 9.85994 17.7788 9.85994C17.8068 9.85994 17.8376 9.85714 17.8656 9.85434C18.0673 9.83193 18.2494 9.72829 18.3306 9.61905L21.4762 6.39216C21.6639 6.15686 21.7031 5.82353 21.5743 5.54902C21.4482 5.27451 21.1821 5.10364 20.8908 5.10364L19.7368 5.09244L19.734 3.10924C19.734 2.4986 19.2438 2 18.6415 2H16.9244C16.3222 2 15.832 2.4986 15.832 3.11204L15.8348 5.09524L14.6891 5.10364C14.3922 5.10364 14.1289 5.27451 14.0001 5.54902C13.8712 5.82353 13.9076 6.15686 14.1373 6.43698ZM2.76476 7.26611C2.76476 6.91877 3.04208 6.63866 3.38101 6.63866H3.75636C3.75293 6.59407 3.74871 6.55053 3.74451 6.50715L3.74451 6.50715C3.73499 6.40884 3.72555 6.31138 3.72555 6.20448C3.72555 6.18347 3.72765 6.16457 3.72975 6.14566C3.73185 6.12675 3.73395 6.10784 3.73395 6.08683H3.38101C3.03927 6.08683 2.76476 5.80672 2.76476 5.45938C2.76476 5.11204 3.04208 4.83193 3.38101 4.83193H3.89642C4.33339 3.02241 5.68073 2.03081 7.82919 2.03081C8.63031 2.03081 9.33059 2.17087 9.91322 2.44258C10.2213 2.58824 10.3586 2.96078 10.2157 3.27451C10.0729 3.59104 9.70594 3.72829 9.39782 3.58263C8.98045 3.38655 8.45104 3.28571 7.83199 3.28571C6.40342 3.28571 5.53507 3.78711 5.17093 4.83193H7.21014C7.55188 4.83193 7.82639 5.11204 7.82639 5.45938C7.82639 5.80672 7.54908 6.08683 7.21014 6.08683H4.97205C4.97205 6.10784 4.96995 6.12675 4.96785 6.14566C4.96574 6.16457 4.96364 6.18347 4.96364 6.20448C4.96364 6.31122 4.97143 6.40888 4.97905 6.50451L4.97905 6.50455L4.97905 6.50456C4.98263 6.54946 4.98617 6.59391 4.98885 6.63866H7.20734C7.54908 6.63866 7.82359 6.91877 7.82359 7.26611C7.82359 7.61345 7.54628 7.89356 7.20734 7.89356H5.30818C5.73395 8.71989 6.55748 9.12045 7.83199 9.12045C8.46224 9.12045 8.99446 9.01961 9.41182 8.81793C9.72275 8.66947 10.0869 8.80672 10.2326 9.11765C10.3782 9.43137 10.2466 9.80672 9.93843 9.95238C9.353 10.2325 8.64432 10.3753 7.82919 10.3753C5.80678 10.3753 4.48745 9.5014 3.97205 7.89076H3.38101C3.03927 7.89356 2.76476 7.61064 2.76476 7.26611ZM19.8712 20.1989C20.4006 20.0364 20.479 19.874 20.479 19.874V19.0224C20.4601 19.0302 20.4414 19.0382 20.4226 19.0462L20.4226 19.0462L20.4226 19.0462L20.4225 19.0462L20.4225 19.0462L20.4225 19.0462L20.4225 19.0463L20.4224 19.0463L20.4224 19.0463L20.4224 19.0463L20.4223 19.0463L20.4223 19.0463C20.3605 19.0726 20.2984 19.099 20.2297 19.1204C19.6303 19.3053 18.846 19.4062 18.0253 19.4062C17.2045 19.4062 16.4202 19.3053 15.818 19.1204C15.7501 19.0999 15.6897 19.0747 15.6291 19.0495L15.6291 19.0495L15.6288 19.0494C15.607 19.0403 15.5852 19.0313 15.5631 19.0224V19.8796C15.5715 19.8992 15.6639 20.0504 16.1681 20.2045C17.1597 20.4986 18.8852 20.4986 19.8712 20.1989ZM14.3306 19.8824C14.2382 19.972 14.0477 20.1008 13.7283 20.1989C12.7452 20.4986 11.0113 20.4986 10.0281 20.1961C9.67513 20.0868 9.49306 19.9636 9.41462 19.888V18.972C9.44357 18.9832 9.47158 18.995 9.49959 19.0068C9.55561 19.0305 9.61164 19.0542 9.67513 19.0728C10.2746 19.2577 11.0589 19.3585 11.8796 19.3585C12.7003 19.3585 13.4847 19.2577 14.0841 19.0728C14.1423 19.0565 14.1946 19.0342 14.2463 19.0121C14.2743 19.0002 14.3021 18.9884 14.3306 18.9776V19.8824ZM7.57709 20.1989C7.91602 20.0952 8.0981 19.9608 8.17933 19.8796V18.9916C8.14717 19.0034 8.11666 19.016 8.08606 19.0286L8.08603 19.0287L8.08601 19.0287C8.03666 19.0491 7.98708 19.0695 7.93003 19.0868C7.32779 19.2717 6.54628 19.3725 5.72555 19.3725C4.90482 19.3725 4.12051 19.2717 3.52107 19.0868C3.45884 19.0685 3.40499 19.0455 3.35092 19.0223L3.3508 19.0222C3.32215 19.0099 3.29343 18.9976 3.26336 18.986V19.8908C3.3418 19.9664 3.52387 20.0896 3.87961 20.1989C4.86 20.4986 6.59109 20.4986 7.57709 20.1989ZM3.41743 17.6891C3.50706 17.6303 3.64152 17.563 3.87121 17.493C4.8516 17.1933 6.58829 17.1933 7.57149 17.4902C7.80678 17.563 7.94123 17.6303 8.03087 17.6891C7.94123 17.7479 7.80678 17.8151 7.57709 17.8852C6.5967 18.1849 4.8544 18.1877 3.87681 17.8852C3.65552 17.8179 3.50986 17.7479 3.41743 17.6891ZM10.0225 15.1681C9.79558 15.2381 9.66112 15.3053 9.56869 15.3641C9.65832 15.423 9.79278 15.4902 10.0281 15.563C11.0085 15.8627 12.7452 15.8627 13.7255 15.563C13.944 15.4958 14.0869 15.4286 14.1821 15.3697C14.0925 15.3109 13.958 15.2409 13.7227 15.1709C12.7452 14.8683 11.0029 14.8683 10.0225 15.1681ZM15.7171 13.0784C15.8096 13.0224 15.944 12.9552 16.1709 12.8852C17.1541 12.5826 18.8908 12.5854 19.8712 12.8852C20.1037 12.9552 20.241 13.0252 20.3306 13.084C20.2354 13.1401 20.0925 13.2101 19.874 13.2773C18.8964 13.577 17.1541 13.577 16.1765 13.2773C15.9412 13.2045 15.8068 13.1373 15.7171 13.0784ZM15.5659 16.6947V17.6106C15.6443 17.6863 15.8292 17.8095 16.1765 17.916C17.1541 18.2157 18.8964 18.2157 19.874 17.916C20.1961 17.8151 20.3894 17.6863 20.479 17.5966V16.6947C20.4601 16.7025 20.4414 16.7105 20.4226 16.7185C20.3607 16.7448 20.2985 16.7712 20.2297 16.7927C19.6247 16.9776 18.8432 17.0784 18.0253 17.0784C17.2073 17.0784 16.423 16.9776 15.8208 16.7927C15.7529 16.7721 15.6925 16.747 15.6319 16.7218L15.6317 16.7217L15.6316 16.7217C15.6099 16.7126 15.5881 16.7036 15.5659 16.6947ZM15.6506 14.4144C15.7047 14.4376 15.7586 14.4607 15.8208 14.479C16.423 14.6639 17.2045 14.7647 18.0281 14.7647C18.8488 14.7647 19.6331 14.6639 20.2326 14.479C20.2896 14.4617 20.3392 14.4412 20.3886 14.4208C20.4192 14.4082 20.4497 14.3955 20.4819 14.3838V15.2717C20.4006 15.3529 20.2185 15.4874 19.8768 15.591C18.8964 15.8908 17.1569 15.8908 16.1793 15.591C15.8236 15.479 15.6415 15.3557 15.5631 15.2801V14.3782C15.5932 14.3898 15.6219 14.4021 15.6506 14.4144L15.6506 14.4144L15.6506 14.4144L15.6506 14.4144ZM9.41462 17.5658C9.49306 17.6415 9.67513 17.7647 10.0309 17.8739C11.0085 18.1737 12.7508 18.1737 13.7283 17.8739C14.0673 17.7703 14.2466 17.6387 14.3306 17.5574V16.6667C14.3015 16.6777 14.2732 16.6894 14.2446 16.7013L14.2446 16.7013L14.2446 16.7013L14.2446 16.7013C14.1934 16.7225 14.1416 16.7439 14.0841 16.7619C13.4819 16.9468 12.6975 17.0476 11.8796 17.0476C11.0617 17.0476 10.2774 16.9468 9.67513 16.7619C9.61164 16.7414 9.55562 16.7183 9.4996 16.6953C9.47158 16.6838 9.44357 16.6723 9.41462 16.6611V17.5658ZM21.7143 13.2157C21.7143 12.7227 21.4566 12.056 20.2269 11.6807C19.0225 11.3165 17.0281 11.3137 15.8096 11.6863C15.0057 11.93 14.5239 12.3305 14.3698 12.8655V12.8711C14.339 12.9832 14.3222 13.1008 14.3222 13.2185V14.0616C14.241 14.028 14.1653 13.9972 14.0729 13.9692C12.8712 13.5994 10.8656 13.5994 9.66112 13.9692C8.8572 14.2129 8.37541 14.6106 8.22135 15.1485V15.1513C8.19053 15.2633 8.17373 15.381 8.17373 15.5014V16.3866C8.15265 16.3786 8.13176 16.3704 8.11077 16.3622L8.11061 16.3621L8.11059 16.3621L8.11058 16.3621C8.05072 16.3386 7.99001 16.3148 7.92163 16.2941C6.71434 15.9272 4.71715 15.9244 3.50986 16.2941C2.71154 16.5406 2.22695 16.9384 2.07289 17.4734V17.4762C2.04208 17.5882 2.02527 17.7087 2.02527 17.8263V20.1457C2.02527 20.3417 2.12331 20.5126 2.26336 20.6275C2.52107 20.9608 2.94404 21.2269 3.52107 21.4034C4.12331 21.5882 4.90762 21.6891 5.72555 21.6891C6.54348 21.6891 7.32499 21.5882 7.93003 21.4034C8.26336 21.3025 8.55188 21.1597 8.78997 20.986C9.02527 21.1541 9.31939 21.2969 9.67233 21.4034C10.2746 21.5882 11.0589 21.6891 11.8768 21.6891C12.6947 21.6891 13.4762 21.5882 14.0813 21.4034C14.4146 21.3025 14.7059 21.1597 14.944 20.986C15.1597 21.1429 15.437 21.2885 15.8152 21.4034C16.423 21.5882 17.2045 21.6891 18.0197 21.6891C18.8376 21.6891 19.6191 21.5882 20.2269 21.4034C21.4566 21.0252 21.7143 20.3613 21.7143 19.8683V13.2157ZM16.3222 6.34454L15.7844 6.35014L17.7816 8.40616L19.7844 6.35014L19.2634 6.34454C19.0449 6.33894 18.8544 6.2521 18.7143 6.09804C18.5715 5.94678 18.4987 5.7479 18.5043 5.53782L18.5015 3.2549H17.0701L17.0729 5.55462C17.0813 5.7423 17.0057 5.94118 16.8656 6.09524C16.7199 6.2521 16.5295 6.33894 16.3222 6.34454Z" fill="#313235"/>
</svg>
