<svg width="24" height="24" fill="none" xmlns="http://www.w3.org/2000/svg"><path d="M2.55 11.818c0 7.16 4.88 9.79 9.457 9.868.294 0 .608 0 .86-.003 1.459-.025 6.386-.456 8.493-5.008a.617.617 0 0 0-.866-.793c-1.361.774-2.83.92-3.594.936-.196.005-.434.005-.647.005-1.518-.025-6.484-.585-6.484-6.817 0-4.6 2.644-6.13 4.862-6.603a.616.616 0 0 0-.02-1.207 11.241 11.241 0 0 0-1.795-.188L11.936 2C7.4 2.059 2.55 4.667 2.55 11.818Zm1.238 0c0-7.647 5.896-8.518 7.983-8.583-1.686 1.062-3.238 3.05-3.235 6.768 0 5.846 3.978 7.989 7.711 8.047.239 0 .496 0 .692-.008a9.608 9.608 0 0 0 2.323-.339c-2.068 2.457-5.331 2.726-6.42 2.745-.253.009-.553.009-.821.009-1.933-.031-8.233-.751-8.233-8.64Z" fill="#313235"/></svg>