<svg width="24" height="24" viewBox="0 0 24 24" fill="none" xmlns="http://www.w3.org/2000/svg">
<path fill-rule="evenodd" clip-rule="evenodd" d="M12.0828 6.41736V6.05633C12.0828 6.03672 12.0716 5.7482 11.9259 5.4793C11.7523 5.15717 11.4637 5.00871 11.0156 5.00871H9.0968C8.20044 5.00871 7.43294 4.80983 6.87832 4.43448C6.27327 4.02272 5.93994 3.40927 5.93994 2.70899C5.93994 2.40647 6.18644 2.15997 6.48896 2.15997C6.79148 2.15997 7.03798 2.40647 7.03798 2.70899C7.03798 3.59695 8.1024 3.91347 9.0996 3.91347H11.0184C11.8867 3.91347 12.5618 4.30283 12.9175 5.00871C13.1724 5.51011 13.178 5.9975 13.178 6.05352V6.42068C14.6818 6.51161 15.8721 6.96646 16.7214 7.77341C17.7186 8.72019 18.2228 10.1291 18.2228 11.9583V16.2692C18.2228 18.1656 17.7831 19.5325 16.8755 20.4429C15.9539 21.3756 14.5562 21.8294 12.601 21.8294C10.8223 21.8294 9.43573 21.3672 8.48055 20.4597C7.48336 19.5129 6.97916 18.1039 6.97916 16.2748V11.9611C6.97916 10.132 7.48336 8.72299 8.48055 7.77621C9.34327 6.95638 10.5536 6.50002 12.0828 6.41736ZM12.052 11.7286C12.052 12.0311 12.2985 12.2776 12.601 12.2776C12.9035 12.2776 13.15 12.0311 13.15 11.7286V8.85184C13.15 8.54932 12.9035 8.30282 12.601 8.30282C12.2985 8.30282 12.052 8.54932 12.052 8.85184V11.7286ZM8.07439 12.499V11.9639C8.07439 8.96108 9.55338 7.5017 12.601 7.5017C15.6486 7.5017 17.1304 8.95828 17.1276 11.9611V12.499C15.6471 12.6819 14.1447 12.7734 12.6514 12.7734H12.5506C11.0598 12.7734 9.55538 12.6819 8.07439 12.499ZM8.07439 13.6009V16.2748C8.07439 19.2748 9.55618 20.7342 12.601 20.7342C14.2481 20.7342 15.3937 20.3868 16.0996 19.6754C16.7915 18.9779 17.1276 17.8658 17.1276 16.272V13.601C15.6466 13.7782 14.1429 13.8686 12.6542 13.8686H12.5478C11.0589 13.8686 9.55703 13.7781 8.07439 13.6009Z" fill="#313235"/>
</svg>
