<svg xmlns="http://www.w3.org/2000/svg" width="24" height="24" fill="none"><path fill="#000" d="M12.411 20.135c.125.076.27.115.411.115h-.002a.804.804 0 0 0 .805-.814V5.315a.81.81 0 0 0-.394-.702.79.79 0 0 0-.797-.01l-7.199 4.09h-2.19a.8.8 0 0 0-.795.806v5.753a.8.8 0 0 0 .794.806h2.191zm-7.109-5.15H3.305V9.771h1.997c.136 0 .27-.036.389-.104l6.873-3.908v13.234l-6.873-3.905a.8.8 0 0 0-.389-.105M22.631 9.75l-2.588 2.625 2.588 2.626a.56.56 0 0 1 0 .784.534.534 0 0 1-.772 0l-2.588-2.626-2.589 2.625a.534.534 0 0 1-.772 0 .56.56 0 0 1 0-.783l2.589-2.626L15.91 9.75a.56.56 0 0 1 0-.784.54.54 0 0 1 .772 0l2.589 2.626 2.588-2.626a.54.54 0 0 1 .772 0 .56.56 0 0 1 0 .784"/></svg>