<svg width="24" height="24" viewBox="0 0 24 24" fill="none" xmlns="http://www.w3.org/2000/svg">
<path fill-rule="evenodd" clip-rule="evenodd" d="M16.944 3.98756C19.9776 4.21165 21.0448 6.73826 21.0448 8.91753C21.0448 9.48336 20.9608 10.8363 20.2437 11.996C20.9636 13.1584 21.0476 14.5058 21.0476 15.0688C21.0476 17.2621 19.9636 19.8139 16.944 20.0072C16.4678 21.192 15.4538 21.8363 14.0448 21.8363C13.1148 21.8363 12.465 21.3685 12.0364 20.8251C11.6331 21.3265 10.9832 21.8363 10.0056 21.8363C8.59104 21.8363 7.57423 21.1892 7.10084 19.9988C4.06723 19.7747 3 17.2453 3 15.066C3 14.503 3.08403 13.15 3.80392 11.9904C3.08403 10.8279 3 9.48056 3 8.91753C3 6.72145 4.08403 4.16963 7.10364 3.97916C7.58263 2.80829 8.61625 2.15002 10.0028 2.15002C10.9328 2.15002 11.5798 2.61781 12.0084 3.16123C12.4146 2.65983 13.0644 2.15002 14.042 2.15002C15.4538 2.15002 16.4706 2.79988 16.944 3.98756ZM10.0028 20.6318C9.2493 20.6318 8.71989 20.3769 8.40056 19.8587C8.58263 19.7887 8.76471 19.7018 8.94678 19.587C9.22409 19.4133 9.30812 19.0436 9.13445 18.7663C9.13305 18.7635 9.13165 18.7614 9.13025 18.7593C9.12885 18.7572 9.12745 18.7551 9.12605 18.7523C8.93557 18.4722 8.55742 18.3965 8.27171 18.5786C8.01961 18.7411 7.79832 18.8139 7.58543 18.8111C7.56812 18.8095 7.55257 18.8124 7.53731 18.8152C7.5254 18.8173 7.51367 18.8195 7.5014 18.8195C7.4972 18.8195 7.4937 18.8188 7.4902 18.8181C7.48669 18.8174 7.48319 18.8167 7.47899 18.8167C4.47059 18.8167 4.23529 15.9483 4.23529 15.0688C4.23529 14.7523 4.28011 13.8139 4.68347 12.9539C4.72269 13.5814 5.16247 14.0296 5.69188 14.2313L5.70563 14.2361C5.73385 14.2461 5.7944 14.2677 5.80112 14.2677C5.86275 14.2873 5.92437 14.2985 5.9888 14.2985C6.23249 14.2985 6.44538 14.1332 6.53782 13.8895C6.65266 13.5814 6.45378 13.2257 6.14006 13.1052C6.06443 13.0828 6 13.0324 5.95518 12.968C6.35574 12.9511 6.72269 12.8615 7.02801 12.6822C7.31092 12.517 7.40896 12.1528 7.2437 11.8699L7.23529 11.8531C7.05322 11.5674 6.67787 11.4778 6.38936 11.6514C6.21289 11.7551 5.97199 11.7943 5.66387 11.7691C5.37255 11.7439 5.14846 11.6654 4.9916 11.545C4.29692 10.587 4.2381 9.29848 4.2381 8.91473C4.2381 8.03798 4.47339 5.16683 7.56022 5.16683C7.77031 5.17523 7.95238 5.20605 8.11204 5.29848C8.40336 5.46935 8.77871 5.37692 8.95798 5.0912C9.12885 4.81109 9.03922 4.44414 8.7591 4.27047C8.7563 4.26907 8.7542 4.26767 8.7521 4.26627C8.75 4.26487 8.7479 4.26347 8.7451 4.26207C8.63866 4.20044 8.52941 4.15002 8.41457 4.10521C8.73669 3.601 9.2605 3.3489 10.0056 3.3489C10.9552 3.3489 11.3249 4.31809 11.409 4.5786C11.4062 4.79988 11.4034 5.37692 11.409 5.51697V6.28448H10.2885C10.0728 5.94274 9.69468 5.73826 9.29132 5.73826C8.64146 5.73826 8.11485 6.25367 8.11485 6.88952C8.11485 7.52257 8.64146 8.03798 9.29132 8.03798C9.69468 8.03798 10.07 7.8335 10.2885 7.49176H11.409V8.70185H7.15686C6.94118 8.36011 6.56303 8.15563 6.15966 8.15563C5.5098 8.15563 4.98039 8.67103 4.98039 9.30689C4.98039 9.93994 5.507 10.4553 6.15966 10.4553C6.58263 10.4553 6.94958 10.2369 7.15686 9.90913H11.4034V10.9287H9.31092C8.97479 10.9259 8.69748 11.1948 8.69188 11.531V13.3853C8.34734 13.5898 8.13445 13.9595 8.13165 14.3601C8.13165 14.9932 8.66106 15.5086 9.30812 15.5086C9.95518 15.5086 10.4846 14.9932 10.4846 14.3601C10.4846 13.9455 10.2605 13.587 9.92437 13.3853V12.1332H11.4006V16.9567H6.88235V16.8111C6.88235 16.8097 6.88165 16.8076 6.88095 16.8055C6.88025 16.8034 6.87955 16.8013 6.87955 16.7999C7.22969 16.5982 7.44818 16.2229 7.45098 15.8195C7.45098 15.1836 6.92157 14.6682 6.27451 14.6682C5.62745 14.6682 5.09804 15.1836 5.09804 15.8195C5.09804 16.2313 5.32213 16.5898 5.65546 16.7915C5.65546 16.7985 5.65406 16.8041 5.65266 16.8097C5.65126 16.8153 5.64986 16.8209 5.64986 16.8279L5.66106 17.5702C5.66947 17.9035 5.94398 18.1668 6.27731 18.164H11.409V18.4581C11.409 18.6346 11.4034 19.2789 11.4006 19.5366C11.2829 19.8055 10.8627 20.6318 10.0028 20.6318ZM16.563 18.8083C16.3641 18.8111 16.1289 18.7383 15.8824 18.5786C15.8291 18.545 15.7787 18.5086 15.7311 18.4722C15.4622 18.2649 15.0812 18.3069 14.8627 18.5674C14.6555 18.8223 14.6919 19.1948 14.9468 19.4021C14.9496 19.4035 14.9517 19.4056 14.9538 19.4077C14.9559 19.4098 14.958 19.4119 14.9608 19.4133C15.0308 19.4694 15.112 19.5254 15.2017 19.5842C15.3557 19.6822 15.5098 19.7579 15.6611 19.8223C15.3445 20.3601 14.8151 20.629 14.0448 20.629C13.0952 20.629 12.7255 19.6598 12.6443 19.3993C12.6471 19.178 12.6499 18.601 12.6443 18.4609V17.3013H13.8796C14.0868 17.629 14.4538 17.8475 14.8768 17.8475C15.5266 17.8475 16.0532 17.3321 16.0532 16.6962C16.0532 16.0604 15.5238 15.545 14.8768 15.545C14.4538 15.545 14.0868 15.7663 13.8796 16.0912H12.6415V9.92033H13.5154V11.8755C13.2213 12.0856 13.0252 12.4245 13.0252 12.8055C13.0252 13.4385 13.5546 13.9567 14.2017 13.9567C14.6218 13.9567 14.9888 13.7383 15.1961 13.4133L17.4426 13.4077V14.657C17.1064 14.8587 16.8796 15.2201 16.8796 15.6318C16.8796 16.2649 17.4062 16.7831 18.0588 16.7831C18.7059 16.7831 19.2353 16.2677 19.2353 15.6318C19.2353 15.2229 19.0112 14.8643 18.6779 14.6598V12.8027C18.6779 12.643 18.6134 12.489 18.4986 12.3769C18.381 12.2649 18.2241 12.2004 18.0616 12.2004L15.2045 12.206C15.0924 12.0296 14.9356 11.8867 14.7507 11.7943V9.92033H16.9356C17.2773 9.92033 17.5518 9.65142 17.5518 9.31809V7.8419C17.888 7.64022 18.1148 7.28168 18.1148 6.86711C18.1148 6.23126 17.5854 5.71585 16.9384 5.71585C16.2913 5.71585 15.7619 6.23126 15.7619 6.86711C15.7619 7.27607 15.986 7.63742 16.3193 7.8391V8.71305H12.6387V5.52537C12.6387 5.3489 12.6443 4.70465 12.6471 4.44694C12.7591 4.18644 13.1793 3.35731 14.042 3.35731C14.8095 3.35731 15.3417 3.62621 15.6583 4.16403C14.9692 4.46095 14.5098 5.05759 14.2969 5.64582L14.2325 5.8335C14.1317 6.15283 14.3165 6.48896 14.6415 6.587C14.9636 6.68784 15.3081 6.51137 15.4118 6.18924L15.4622 6.04078C15.5574 5.77748 15.8768 5.14722 16.563 5.16963H16.5658C19.5742 5.16963 19.8095 8.03798 19.8095 8.91753C19.8095 9.23966 19.7647 10.2116 19.3361 11.0828C18.8095 10.7383 18.2073 10.5282 17.5798 10.4666C17.2465 10.4273 16.9412 10.6626 16.8992 10.9988C16.8627 11.3321 17.1064 11.629 17.437 11.6654H17.4426C18.1036 11.7355 18.6303 11.9764 19.014 12.3769C19.7507 13.3377 19.8095 14.6766 19.8095 15.066C19.8123 15.9399 19.577 18.7607 16.5686 18.8083H16.563Z" fill="#313235"/>
</svg>
