<svg width="24" height="24" viewBox="0 0 24 24" fill="none" xmlns="http://www.w3.org/2000/svg">
<path fill-rule="evenodd" clip-rule="evenodd" d="M20.4958 14.7663C21.3642 15.6346 21.8151 16.559 21.832 17.5198C21.8516 18.5085 21.4062 19.4861 20.5126 20.4217C20.2045 20.7438 19.7899 21.0464 19.6555 21.1444L19.6331 21.1584C19.6316 21.1599 19.63 21.1613 19.6283 21.1627C19.6271 21.1637 19.6259 21.1646 19.6247 21.1655L19.6191 21.1696L19.619 21.1696L19.6113 21.1753C19.6091 21.177 19.607 21.1789 19.6051 21.1808C18.9748 21.615 18.1933 21.8363 17.2829 21.8363C16.381 21.8363 15.3838 21.6178 14.3082 21.192C12.1793 20.3433 9.86558 18.7046 7.61069 16.4497L7.54906 16.3853C7.54533 16.3834 7.54159 16.3791 7.53786 16.3747C7.53599 16.3725 7.53412 16.3704 7.53225 16.3685C5.28016 14.1192 3.6415 11.8027 2.79277 9.67382C1.93282 7.51696 1.93562 5.63741 2.80117 4.38251L2.81776 4.35968C2.95901 4.16522 3.24553 3.77075 3.56307 3.46935C4.49865 2.57299 5.46223 2.15563 6.46503 2.15002C7.42301 2.16683 8.35018 2.61781 9.21853 3.48616C9.56026 3.82789 9.84318 4.18644 10.0533 4.55058C10.5294 5.31809 10.7031 6.13321 10.5631 6.95674C10.4286 7.75786 9.99444 8.52817 9.27175 9.25085C9.18771 9.33489 9.10088 9.41892 9.01124 9.49735C9.06166 9.615 9.1569 9.79987 9.34178 10.0744C9.87959 10.8587 10.804 11.8083 11.451 12.4553L11.5294 12.5338C12.1765 13.178 13.1261 14.1024 13.9132 14.643C14.1849 14.8279 14.3698 14.9231 14.4874 14.9735C14.5631 14.8867 14.6387 14.8083 14.7367 14.713C15.4566 13.9931 16.2297 13.5562 17.0308 13.4217C17.8572 13.2817 18.6723 13.4581 19.4538 13.9399C19.7983 14.1444 20.1569 14.4245 20.4958 14.7663ZM19.6415 19.5898C20.3081 18.8923 20.6387 18.2032 20.6275 17.5422C20.6163 16.9063 20.2829 16.2592 19.6443 15.6206C19.4006 15.3713 19.1261 15.1556 18.8264 14.9763C18.2885 14.643 17.7535 14.5254 17.2269 14.6122C16.6779 14.7046 16.1261 15.0268 15.5827 15.5674C15.451 15.699 15.3278 15.8363 15.2129 15.9819C15.1653 16.0408 15.1037 16.0912 15.0364 16.1304C14.6275 16.3629 14.0533 16.2032 13.2241 15.6374C12.3558 15.0408 11.3502 14.0688 10.6723 13.3881L10.5939 13.3097C9.9132 12.629 8.93841 11.6262 8.34458 10.7579C7.77875 9.93153 7.61909 9.3573 7.84878 8.94833C7.88519 8.88111 7.93562 8.81948 7.99724 8.77186C8.16811 8.63461 8.26895 8.54497 8.41461 8.40212C8.95522 7.8615 9.27735 7.30968 9.36979 6.75786C9.45942 6.23125 9.33897 5.69624 9.01404 5.17243C8.83757 4.86711 8.61909 4.587 8.36419 4.3405C7.72273 3.70184 7.07567 3.36851 6.43982 3.35731C5.75915 3.3405 5.08968 3.67663 4.3922 4.3433C4.17932 4.55898 3.98604 4.79148 3.81237 5.04078C3.15971 5.98475 3.20173 7.46094 3.90761 9.23125C4.69472 11.2032 6.23814 13.3741 8.36699 15.5085L8.3894 15.5282L8.45942 15.5982C10.5995 17.7382 12.7759 19.2873 14.7535 20.0744C16.5042 20.7718 18.0112 20.8139 18.9132 20.192C18.93 20.1752 18.9496 20.1612 18.9692 20.15C19.1149 20.0464 19.4258 19.8139 19.6415 19.5898ZM13.1457 7.23965C13.1457 4.72985 14.2633 3.61221 16.7703 3.61221C19.2801 3.60941 20.4006 4.72985 20.3978 7.23965C20.3978 9.74665 19.2801 10.8643 16.7703 10.8643C14.2633 10.8643 13.1457 9.74665 13.1457 7.23965ZM16.7703 12.0716C13.7171 12.0716 11.9384 10.531 11.9384 7.23965C11.9384 3.94554 13.7171 2.40493 16.7703 2.40493C19.8236 2.40493 21.6079 3.94834 21.6079 7.23965C21.6079 10.531 19.8236 12.0716 16.7703 12.0716ZM14.7003 8.45534C14.465 8.69063 14.465 9.07158 14.7003 9.30688C14.9356 9.54217 15.3166 9.54217 15.5547 9.30688L16.7703 8.09119L17.986 9.31528C18.2241 9.55057 18.6051 9.55057 18.8404 9.31528C19.0757 9.07719 19.0757 8.69623 18.8404 8.46094L17.6191 7.23965L18.8404 6.01837C19.0757 5.78307 19.0757 5.40212 18.8404 5.16683C18.6051 4.93153 18.2241 4.93153 17.9888 5.16683L16.7675 6.38811L15.5519 5.17243C15.3166 4.93714 14.9356 4.93714 14.7003 5.17243C14.465 5.40772 14.465 5.78867 14.7003 6.02397L15.916 7.23965L14.7003 8.45534Z" fill="#313235"/>
</svg>
