<svg width="24" height="24" fill="none" xmlns="http://www.w3.org/2000/svg"><path d="M19.395 8.157a.866.866 0 0 0-.26-.619L13.917 2.41a.834.834 0 0 0-.602-.249H6.008c-.72 0-1.378.661-1.378 1.378v16.93c0 .731.641 1.378 1.378 1.378h12c.754 0 1.387-.627 1.387-1.378V8.158Zm-1.188 12.311c0 .073-.095.168-.199.171h-12c-.095 0-.19-.115-.19-.17V3.538c.008-.057.12-.169.19-.169h6.446v2.224c0 .992.341 1.854.974 2.476.642.628 1.496.958 2.496.958h2.283v11.44Zm-.49-12.65v.003h-1.79c-.68 0-1.26-.218-1.664-.613-.406-.395-.619-.961-.619-1.614V3.813l4.073 4.005Zm-1.849 5.645c-.148.145-1.815 1.652-4.457 4.03l-1.988.692.65-1.966c.389-.345 4.246-3.813 4.501-4.07.238-.241.493-.291.675-.275a.93.93 0 0 1 .62.283.97.97 0 0 1 .276.67c0 .24-.095.45-.277.636Zm1.468-.636c0-.558-.233-1.13-.628-1.533-.728-.742-2.036-.944-2.972-.005a1.025 1.025 0 0 1-.03.028 5.12 5.12 0 0 0-.152.148H7.588a.604.604 0 0 0-.594.605c0 .34.27.605.594.605h4.636c-.17.15-.345.309-.528.474-.21.19-.43.389-.66.59H7.588a.598.598 0 0 0-.594.606c0 .33.27.605.594.605h2.1l-.428.386a1.11 1.11 0 0 0-.302.46l-.07.21h-1.3a.598.598 0 0 0-.594.605c0 .33.27.605.594.605h.905l-.286.88a.736.736 0 0 0-.04.176h-.579a.604.604 0 0 0-.594.605c0 .33.27.605.594.605h1.465c.017 0 .03 0 .048-.008a.277.277 0 0 0 .086.008c.104 0 .216-.014.325-.047l2.26-.765a.998.998 0 0 0 .365-.21l.07-.065c1.933-1.74 4.28-3.86 4.493-4.07.415-.409.636-.927.636-1.498Z" fill="#313235"/></svg>