<svg width="24" height="24" viewBox="0 0 24 24" fill="none" xmlns="http://www.w3.org/2000/svg">
<path fill-rule="evenodd" clip-rule="evenodd" d="M19.3947 8.15711C19.3947 7.92462 19.2995 7.69773 19.1342 7.53806L13.9185 2.40921C13.7589 2.24675 13.546 2.15991 13.3163 2.15991H6.00816C5.28827 2.15991 4.63 2.82098 4.63 3.53806V20.468C4.63 21.1991 5.27146 21.8462 6.00816 21.8462H18.0082C18.7617 21.8462 19.3947 21.2187 19.3947 20.468V8.15711ZM18.207 20.468V9.02826H15.9241C14.9241 9.02826 14.0698 8.69773 13.4283 8.07028C12.7953 7.44843 12.4535 6.58568 12.4535 5.59409V3.37H6.00816C5.93813 3.37 5.82608 3.48204 5.81768 3.53806V20.468C5.81768 20.5241 5.91292 20.6389 6.00816 20.6389H18.0082C18.1118 20.6361 18.207 20.5409 18.207 20.468ZM17.7168 7.81818L13.644 3.81257V5.59409C13.644 6.24675 13.8569 6.81257 14.2631 7.20753C14.6664 7.60249 15.2463 7.82098 15.9269 7.82098H17.7168V7.81818ZM15.8681 13.4624C16.0502 13.2776 16.1454 13.0675 16.1454 12.8266C16.1454 12.5857 16.0418 12.328 15.8681 12.1571C15.7028 11.989 15.4787 11.8826 15.2491 11.8742C15.067 11.8574 14.8121 11.9078 14.574 12.1487C14.3191 12.4064 10.4619 15.8742 10.0726 16.2187L9.42272 18.1851L11.4115 17.4932C14.053 15.1151 15.7196 13.6081 15.8681 13.4624ZM17.3359 12.8266C17.3359 12.2692 17.1034 11.6977 16.7084 11.2944C15.9801 10.5521 14.672 10.3504 13.7364 11.2888C13.73 11.2952 13.72 11.3046 13.7067 11.3169C13.6742 11.3471 13.622 11.3956 13.5544 11.4652H7.58799C7.26306 11.4652 6.99415 11.7397 6.99415 12.0703C6.99415 12.4092 7.26306 12.6753 7.58799 12.6753H12.2238C12.0545 12.8251 11.8785 12.984 11.6956 13.1491C11.4851 13.3391 11.2655 13.5374 11.0362 13.7397H7.58799C7.26306 13.7397 6.99415 14.0059 6.99415 14.3448C6.99415 14.6753 7.26306 14.9498 7.58799 14.9498H9.68883L9.26026 15.3364C9.123 15.4568 9.02216 15.6193 8.95774 15.7958L8.88771 16.0059H7.58799C7.26306 16.0059 6.99415 16.272 6.99415 16.6109C6.99415 16.9414 7.26306 17.2159 7.58799 17.2159H8.49275L8.20704 18.0955C8.18632 18.1473 8.17757 18.2062 8.16973 18.2591C8.16909 18.2634 8.16845 18.2677 8.16782 18.272H7.58799C7.26306 18.272 6.99415 18.5465 6.99415 18.877C6.99415 19.2075 7.26306 19.482 7.58799 19.482H9.05297C9.06978 19.482 9.08379 19.482 9.10059 19.4736C9.123 19.482 9.15662 19.482 9.18743 19.482C9.29107 19.482 9.40311 19.468 9.51236 19.4344L11.7729 18.6697C11.9073 18.6277 12.025 18.5577 12.137 18.4596L12.207 18.3952C14.1398 16.6557 16.4871 14.5353 16.7 14.3252C17.1146 13.9162 17.3359 13.398 17.3359 12.8266Z" fill="#313235"/>
</svg>
