<svg width="24" height="24" viewBox="0 0 24 24" fill="none" xmlns="http://www.w3.org/2000/svg">
<path fill-rule="evenodd" clip-rule="evenodd" d="M12.4037 2.17118C13.978 2.20759 21.8463 2.86025 21.8463 12.0283C21.8463 21.202 14.0088 21.8126 12.4373 21.8406C12.2693 21.8434 12.0788 21.8462 11.8855 21.8462H11.8853C11.7789 21.8462 11.6754 21.8462 11.5718 21.8434C10.0004 21.821 2.16003 21.2384 2.16003 11.9723C2.16003 10.3476 2.61101 2.2384 11.5074 2.15997C11.8043 2.15997 12.132 2.16558 12.4037 2.17118ZM12.4149 20.639C14.3449 20.6026 20.6418 19.8771 20.6418 12.0311C20.6418 4.18518 14.3141 3.42328 12.3757 3.37846C12.1124 3.37006 11.7987 3.36445 11.5214 3.37006C9.60821 3.38686 3.36732 4.05913 3.36732 11.9779C3.36732 19.9107 9.66143 20.6166 11.5914 20.6446C11.8659 20.6474 12.1684 20.6446 12.4149 20.639ZM10.2553 12.3084C10.2553 14.7062 9.42054 15.0283 8.60541 15.0283C7.78468 15.0283 6.94715 14.7062 6.94715 12.3084C6.94715 9.89667 7.78468 9.57174 8.60541 9.57174C9.37292 9.57174 10.2553 9.88266 10.2553 12.3084ZM8.60541 8.4793C9.86312 8.4793 11.3673 9.14317 11.3673 12.3084C11.3673 15.4653 9.86592 16.1292 8.60541 16.1292C7.34211 16.1292 5.8351 15.4681 5.8351 12.3084C5.8351 9.14317 7.34211 8.4793 8.60541 8.4793ZM17.3477 9.00591C17.3477 8.78462 17.1684 8.60535 16.9471 8.60535H16.6782C16.457 8.60535 16.2777 8.78462 16.2777 9.00591V13.681L13.0368 8.78462C12.9612 8.67258 12.8351 8.60535 12.7007 8.60535H12.4878C12.2665 8.60535 12.0872 8.78462 12.0872 9.00591V15.5913C12.0872 15.8126 12.2665 15.9919 12.4878 15.9919H12.7567C12.978 15.9919 13.1572 15.8126 13.1572 15.5913V10.9191L16.3897 15.8126C16.4654 15.9247 16.5914 15.9919 16.7259 15.9919H16.9471C17.1684 15.9919 17.3477 15.8126 17.3477 15.5913V9.00591Z" fill="#313235"/>
</svg>
