<svg width="24" height="24" fill="none" xmlns="http://www.w3.org/2000/svg"><path fill-rule="evenodd" clip-rule="evenodd" d="M5.441 16.948h13.11c1.098 0 1.94-.328 2.504-.972.52-.6.787-1.468.787-2.583V8.455c0-1.115-.263-1.984-.787-2.583-.563-.644-1.406-.972-2.504-.972H5.44c-1.1 0-1.94.328-2.504.972-.52.6-.787 1.468-.787 2.583v4.938c0 1.115.266 1.983.787 2.585.563.642 1.406.97 2.504.97ZM3.783 6.612c.345-.395.885-.589 1.658-.589l13.11-.003c.77 0 1.313.194 1.658.589.339.39.512 1.01.512 1.846v4.938c0 .835-.173 1.457-.512 1.846-.345.395-.888.588-1.658.588H5.44c-.77 0-1.313-.193-1.658-.588-.339-.39-.513-1.011-.513-1.846V8.455c0-.835.174-1.457.513-1.843Zm17.465 12.52H2.744a.562.562 0 0 1-.56-.56c0-.308.252-.56.56-.56h18.504c.308 0 .56.252.56.56 0 .308-.252.56-.56.56Zm-10.443-4.66c.407.092.821.137 1.236.134 2.395 0 3.714-1.289 3.711-3.63 0-.733-.126-1.362-.376-1.883l.032.009.235.064a.422.422 0 0 0 .224-.812l-.235-.065-.235-.064c-.321-.089-.526-.145-.645-.168-.484-.098-.854.143-.958.627a5.9 5.9 0 0 0-.075.474l-.014.103a6.22 6.22 0 0 1-.076.505.42.42 0 0 0 .412.507.412.412 0 0 0 .406-.325c.036-.166.064-.373.09-.575l.007-.057c.246.429.37.985.37 1.66 0 1.876-.94 2.79-2.873 2.79a4.492 4.492 0 0 1-1.04-.113.42.42 0 1 0-.195.818Zm-2.203-1.748c-.25-.52-.376-1.15-.376-1.883 0-2.342 1.319-3.63 3.714-3.63a5.33 5.33 0 0 1 1.246.137.422.422 0 1 1-.196.818 4.57 4.57 0 0 0-1.05-.112c-1.933 0-2.874.913-2.874 2.79 0 .67.123 1.224.366 1.651l.007-.052c.025-.201.053-.409.09-.574a.423.423 0 0 1 .495-.328.423.423 0 0 1 .328.496c0 .003 0 .006-.003.006-.028.129-.053.32-.076.504l-.014.103c-.023.17-.045.339-.075.474-.093.423-.373.658-.754.658-.07 0-.137-.008-.207-.022-.122-.024-.335-.082-.67-.175l-.207-.058-.235-.064a.422.422 0 0 1 .224-.812l.235.064.032.009Z" fill="#313235"/></svg>