<svg width="24" height="24" viewBox="0 0 24 24" fill="none" xmlns="http://www.w3.org/2000/svg">
<path fill-rule="evenodd" clip-rule="evenodd" d="M5.44134 16.9476H18.5506C19.6486 16.9476 20.4917 16.6199 21.0548 15.9756C21.5758 15.3762 21.8419 14.5079 21.8419 13.393V8.45464C21.8419 7.3398 21.5786 6.47145 21.0548 5.87201C20.4917 5.22776 19.6486 4.90002 18.5506 4.90002H5.44134C4.3405 4.90002 3.50016 5.22776 2.93714 5.87201C2.41613 6.47145 2.15002 7.3398 2.15002 8.45464V13.393C2.15002 14.5079 2.41613 15.3762 2.93714 15.9784C3.50016 16.6199 4.3433 16.9476 5.44134 16.9476ZM3.78308 6.61151C4.12761 6.21655 4.66823 6.02327 5.44134 6.02327L18.5506 6.02047C19.3209 6.02047 19.8643 6.21375 20.2088 6.60871C20.5478 6.99806 20.7214 7.61991 20.7214 8.45464V13.393C20.7214 14.2277 20.5478 14.8496 20.2088 15.2389C19.8643 15.6339 19.3209 15.8272 18.5506 15.8272H5.44134C4.67103 15.8272 4.12761 15.6339 3.78308 15.2389C3.44414 14.8496 3.27047 14.2277 3.27047 13.393V8.45464C3.27047 7.61991 3.44414 6.99806 3.78308 6.61151ZM21.248 19.1325H2.74386C2.43574 19.1325 2.18364 18.8804 2.18364 18.5723C2.18364 18.2642 2.43574 18.0121 2.74386 18.0121H21.248C21.5562 18.0121 21.8083 18.2642 21.8083 18.5723C21.8083 18.8804 21.5562 19.1325 21.248 19.1325ZM10.8055 14.4714C11.2116 14.5639 11.6262 14.6087 12.0408 14.6059C14.4357 14.6059 15.755 13.3174 15.7522 10.9756C15.7522 10.243 15.6262 9.61361 15.3756 9.09279L15.4077 9.1017L15.643 9.16612C15.8671 9.22775 16.0996 9.0961 16.1612 8.87201C16.2228 8.64792 16.0912 8.41543 15.8671 8.3538L15.6318 8.28938L15.3967 8.22466C15.0758 8.13617 14.8711 8.07974 14.7522 8.05688C14.2677 7.95884 13.8979 8.19974 13.7943 8.68433C13.764 8.81948 13.7414 8.98758 13.7186 9.15799L13.7186 9.15802L13.7186 9.15806L13.7046 9.26136C13.6822 9.44624 13.657 9.63671 13.629 9.76556C13.6234 9.79357 13.6206 9.82159 13.6206 9.8524C13.6206 10.0849 13.8083 10.2726 14.0408 10.2726C14.2396 10.2726 14.4077 10.1353 14.4469 9.94764C14.4833 9.78237 14.5114 9.57509 14.5366 9.37341L14.5441 9.31583C14.7901 9.74475 14.9147 10.3008 14.9147 10.9756C14.9147 12.8524 13.9735 13.7656 12.0408 13.7656C11.6934 13.7684 11.3433 13.7319 11.0016 13.6535C10.7747 13.6003 10.5478 13.7375 10.4945 13.9644C10.4413 14.1913 10.5786 14.4182 10.8055 14.4714ZM8.6023 12.724C8.35165 12.2032 8.22565 11.5738 8.22565 10.8412C8.22565 8.49946 9.54497 7.21095 11.9399 7.21095C12.3601 7.20814 12.7775 7.25296 13.1864 7.3482C13.4133 7.39582 13.559 7.61991 13.5114 7.8468C13.4637 8.07369 13.2396 8.21935 13.0128 8.17173C13.0086 8.17033 13.0051 8.16963 13.0015 8.16893C12.998 8.16823 12.9945 8.16753 12.9903 8.16613C12.6458 8.08769 12.2929 8.05128 11.9399 8.05408C10.0072 8.05408 9.06598 8.96725 9.06598 10.844C9.06598 11.5144 9.18894 12.0676 9.43178 12.4953C9.43405 12.478 9.43631 12.4607 9.43853 12.4434C9.46374 12.2418 9.49175 12.0345 9.52817 11.8692C9.57578 11.6423 9.79707 11.4967 10.024 11.5415C10.2509 11.5891 10.3965 11.8104 10.3517 12.0373C10.3517 12.0401 10.3517 12.0429 10.3489 12.0429C10.3209 12.1717 10.2957 12.3622 10.2733 12.5471C10.2686 12.5814 10.2639 12.616 10.2593 12.6504C10.2365 12.8208 10.2139 12.9889 10.1836 13.1241C10.0912 13.5471 9.81108 13.7824 9.43013 13.7824C9.3601 13.7824 9.29287 13.774 9.22284 13.76C9.10066 13.7365 8.88782 13.6775 8.55291 13.5847C8.48855 13.5669 8.41969 13.5478 8.34609 13.5275L8.1108 13.463C7.88671 13.4014 7.75506 13.1689 7.81668 12.9448C7.87831 12.7207 8.1108 12.5891 8.33489 12.6507L8.57018 12.7151C8.58097 12.7181 8.59167 12.7211 8.6023 12.724Z" fill="#313235"/>
</svg>
