<svg width="24" height="24" viewBox="0 0 24 24" fill="none" xmlns="http://www.w3.org/2000/svg">
<path fill-rule="evenodd" clip-rule="evenodd" d="M9.97341 6.11213V5.7255C9.97341 5.34735 9.97341 4.64707 8.34876 4.64707H7.24512C6.28153 4.64707 5.65408 4.50421 5.21431 4.18768C4.74092 3.84314 4.50842 3.31373 4.50842 2.56303C4.50842 2.25491 4.76052 2.00281 5.06865 2.00281C5.37677 2.00281 5.62887 2.25491 5.62887 2.56303C5.62887 3.10365 5.62887 3.52942 7.24232 3.52942H8.34596C9.27033 3.52942 9.9454 3.7227 10.4132 4.11765C10.8614 4.4958 11.0911 5.03922 11.0911 5.7283V6.1101C12.6407 6.19719 13.8681 6.66689 14.7409 7.50701C15.7521 8.479 16.2647 9.92718 16.2647 11.8095V12.8001C16.2681 12.8358 16.268 12.8711 16.2647 12.9057V13.6229C16.3661 13.7464 16.4468 13.8929 16.5196 14.0252C16.5504 14.0812 16.5953 14.1625 16.6345 14.2241C16.6793 14.1998 16.7316 14.1693 16.7789 14.1417C16.8025 14.1279 16.8249 14.1149 16.8446 14.1036L16.8505 14.1001C17.1436 13.9242 17.5052 13.7072 17.853 13.9076C18.2031 14.1093 18.1947 14.5406 18.1863 14.888C18.1863 14.9092 18.186 14.9332 18.1857 14.9584C18.1851 15.0133 18.1844 15.0743 18.1863 15.1261C18.2381 15.128 18.299 15.1273 18.3539 15.1266H18.3539C18.3792 15.1263 18.4032 15.1261 18.4244 15.1261C18.7689 15.1177 19.2003 15.1093 19.4048 15.4594C19.6066 15.8049 19.391 16.1641 19.2157 16.4562L19.2087 16.4678C19.1723 16.5266 19.1219 16.6107 19.0883 16.6779C19.1499 16.7171 19.2311 16.7619 19.2871 16.7927C19.5925 16.9608 19.9734 17.1709 19.9734 17.5798C19.9734 17.9888 19.5925 18.1989 19.2871 18.367C19.2311 18.3978 19.1499 18.4426 19.0883 18.4818C19.1125 18.5266 19.143 18.5789 19.1706 18.6262L19.1708 18.6265C19.1845 18.65 19.1975 18.6723 19.2087 18.6919L19.2123 18.6978C19.3881 18.9909 19.6051 19.3525 19.4048 19.7003C19.2031 20.0504 18.7717 20.042 18.4244 20.0336C18.4032 20.0336 18.3792 20.0333 18.3539 20.033C18.299 20.0324 18.2381 20.0317 18.1863 20.0336C18.1844 20.0854 18.1851 20.1464 18.1857 20.2012L18.1858 20.2089C18.1861 20.2314 18.1863 20.2527 18.1863 20.2717C18.1947 20.6163 18.2031 21.0476 17.853 21.2521C17.5074 21.4539 17.1482 21.2383 16.8562 21.063L16.8446 21.056C16.7857 21.0196 16.7017 20.9692 16.6345 20.9356C16.5953 20.9972 16.5504 21.0784 16.5196 21.1345C16.3516 21.4398 16.1415 21.8207 15.7325 21.8207C15.3235 21.8207 15.1135 21.4398 14.9454 21.1345C14.9146 21.0784 14.8698 20.9972 14.8306 20.9356C14.7857 20.9599 14.7334 20.9904 14.6861 21.018C14.6625 21.0318 14.6401 21.0448 14.6205 21.056L14.6145 21.0596C14.3454 21.2211 14.0184 21.4173 13.6975 21.2931C12.8439 21.7382 11.7864 21.9608 10.5504 21.9608C8.74092 21.9608 7.33195 21.4846 6.35996 20.549C5.34876 19.5742 4.83615 18.1261 4.83615 16.2465V12.8744C4.83576 12.8625 4.83576 12.8505 4.83615 12.8384V11.8095C4.83615 9.92998 5.34876 8.4818 6.35996 7.50701C7.22594 6.67098 8.44098 6.20404 9.97341 6.11213ZM15.7045 14.2689C15.6882 14.2689 15.672 14.2682 15.656 14.2668C15.5491 14.3236 15.457 14.4907 15.3658 14.6563L15.3658 14.6563C15.2663 14.8371 15.1677 15.016 15.0518 15.0476C14.9302 15.0797 14.7498 14.9708 14.5704 14.8624C14.374 14.7438 14.1787 14.6259 14.063 14.6947C13.9476 14.7634 13.9518 14.992 13.9561 15.221C13.9599 15.431 13.9638 15.6412 13.8754 15.7283C13.7878 15.8145 13.5802 15.8103 13.3723 15.806C13.1411 15.8013 12.9096 15.7965 12.8418 15.916C12.7745 16.0345 12.8929 16.2302 13.0113 16.426L13.0114 16.426C13.1197 16.6051 13.2281 16.7843 13.1947 16.9048C13.1631 17.0207 12.9841 17.1192 12.8034 17.2188C12.5996 17.331 12.3936 17.4444 12.3936 17.5854C12.3936 17.7264 12.5996 17.8399 12.8034 17.9521C12.9841 18.0517 13.1631 18.1502 13.1947 18.2661C13.2268 18.3878 13.1179 18.5681 13.0095 18.7475C12.8909 18.944 12.7729 19.1392 12.8418 19.2549C12.9104 19.3703 13.1391 19.3661 13.3681 19.3619C13.5781 19.358 13.7883 19.3541 13.8754 19.4426C13.9616 19.5301 13.9574 19.7377 13.9531 19.9457C13.9513 20.0355 13.9494 20.1253 13.9549 20.2056C14.0273 20.252 14.09 20.3158 14.1359 20.395C14.1544 20.4267 14.1695 20.4594 14.1812 20.4928C14.2924 20.4761 14.4314 20.3918 14.5709 20.3073C14.7501 20.1987 14.9298 20.0897 15.0518 20.1233C15.168 20.1536 15.2667 20.3331 15.3664 20.5146C15.4784 20.7183 15.5918 20.9244 15.7325 20.9244C15.8735 20.9244 15.987 20.7183 16.0992 20.5146C16.1987 20.3338 16.2973 20.1549 16.4132 20.1233C16.5348 20.0912 16.7152 20.2001 16.8946 20.3084C17.091 20.4271 17.2863 20.545 17.402 20.4762C17.5174 20.4075 17.5132 20.1788 17.509 19.9499C17.5051 19.7399 17.5012 19.5297 17.5897 19.4426C17.6775 19.3561 17.8861 19.36 18.0947 19.3639C18.3251 19.3682 18.5556 19.3725 18.6233 19.2549C18.6903 19.1382 18.573 18.9442 18.4549 18.7489C18.3461 18.5691 18.2368 18.3883 18.2703 18.2661C18.3007 18.15 18.4802 18.0513 18.6616 17.9515C18.8653 17.8395 19.0714 17.7262 19.0714 17.5854C19.0714 17.4447 18.8653 17.3314 18.6616 17.2194C18.4802 17.1196 18.3007 17.0209 18.2703 16.9048C18.2382 16.7831 18.3472 16.6027 18.4555 16.4234C18.5742 16.2269 18.6921 16.0316 18.6233 15.916C18.5546 15.8006 18.3259 15.8048 18.097 15.809C17.887 15.8129 17.6768 15.8167 17.5897 15.7283C17.5034 15.6407 17.5077 15.4331 17.5119 15.2252C17.5167 14.9941 17.5214 14.7625 17.402 14.6947C17.2837 14.6275 17.0893 14.7453 16.8941 14.8636C16.715 14.9722 16.5352 15.0811 16.4132 15.0476C16.2973 15.016 16.1987 14.8371 16.0992 14.6563C16.0047 14.4848 15.9094 14.3116 15.7975 14.2611C15.7672 14.2663 15.7361 14.2689 15.7045 14.2689ZM15.1443 13.4932V13.6961C15.0683 13.802 15.0043 13.9182 14.9454 14.0252C14.9146 14.0812 14.8698 14.1625 14.8306 14.2241C14.7633 14.1905 14.6793 14.1401 14.6205 14.1036L14.6089 14.0967C14.3168 13.9214 13.9576 13.7058 13.6121 13.9076C13.2619 14.1121 13.2703 14.5434 13.2787 14.888C13.2787 14.9092 13.279 14.9332 13.2793 14.9584V14.9585C13.2799 15.0134 13.2806 15.0743 13.2787 15.1261C13.227 15.128 13.166 15.1273 13.1112 15.1266H13.1111C13.0858 15.1263 13.0618 15.1261 13.0406 15.1261C12.6933 15.1177 12.2619 15.1093 12.0602 15.4594C11.8599 15.8072 12.0769 16.1688 12.2528 16.4619L12.2563 16.4678C12.2675 16.4874 12.2806 16.5098 12.2944 16.5335L12.2944 16.5335L12.2945 16.5336C12.322 16.5809 12.3525 16.6331 12.3768 16.6779C12.3151 16.7171 12.2339 16.7619 12.1779 16.7927C11.8726 16.9608 11.4916 17.1709 11.4916 17.5798C11.4916 17.9888 11.8726 18.1989 12.1779 18.367C12.2339 18.3978 12.3151 18.4426 12.3768 18.4818C12.3432 18.549 12.2927 18.6331 12.2563 18.6919L12.2494 18.7035C12.074 18.9956 11.8584 19.3547 12.0602 19.7003C12.2647 20.0504 12.6933 20.042 13.0406 20.0336C13.0618 20.0336 13.0858 20.0333 13.1111 20.033C13.166 20.0324 13.227 20.0317 13.2787 20.0336C13.2806 20.0854 13.2799 20.1463 13.2793 20.2012V20.2012L13.2788 20.2466C12.5733 20.64 11.6556 20.8403 10.5504 20.8403C9.04064 20.8403 7.89218 20.4706 7.13587 19.7423C6.35436 18.986 5.9566 17.8123 5.9566 16.2465V13.4922C7.48068 13.6776 9.01448 13.77 10.5504 13.7675C12.0858 13.77 13.6189 13.6798 15.1443 13.4932ZM5.9566 12.3631C7.48144 12.5536 9.01479 12.6496 10.5504 12.6471C12.0852 12.6496 13.6199 12.556 15.1443 12.3641V11.8095C15.1443 10.2437 14.7465 9.07003 13.965 8.31373C13.2087 7.58544 12.0602 7.21569 10.5504 7.21569C9.04064 7.21569 7.89218 7.58544 7.13587 8.31373C6.35436 9.07003 5.9566 10.2437 5.9566 11.8095V12.3631ZM9.99022 11.3305C9.99022 11.6387 10.2423 11.8908 10.5504 11.8908C10.8586 11.8908 11.1107 11.6387 11.1107 11.3305V8.84594C11.1107 8.53782 10.8586 8.28572 10.5504 8.28572C10.2423 8.28572 9.99022 8.53782 9.99022 8.84594V11.3305ZM14.0462 16.4902C14.0462 16.9412 14.3264 17.2213 14.7773 17.2213C15.2283 17.2213 15.5084 16.9412 15.5084 16.4902C15.5084 16.0392 15.2283 15.7591 14.7773 15.7591C14.3264 15.7591 14.0462 16.0392 14.0462 16.4902ZM14.2927 19.0672C14.2927 19.2213 14.4188 19.3473 14.5728 19.3473C14.6597 19.3473 14.7409 19.3081 14.7913 19.2381L17.1107 16.2745C17.2059 16.1541 17.1835 15.9776 17.063 15.8824C16.9426 15.7871 16.7661 15.8095 16.6709 15.93L14.3516 18.8936C14.3123 18.944 14.2927 19.0056 14.2927 19.0672ZM14.7773 16.3221C14.6373 16.3221 14.6065 16.3501 14.6065 16.493C14.6065 16.6359 14.6345 16.6639 14.7773 16.6639C14.9202 16.6639 14.9482 16.6359 14.9482 16.493C14.9482 16.3501 14.9174 16.3221 14.7773 16.3221ZM15.9342 18.6527C15.9342 19.1036 16.2143 19.3838 16.6653 19.3838C17.1135 19.3838 17.3964 19.1036 17.3964 18.6527C17.3964 18.2017 17.1163 17.9216 16.6653 17.9216C16.2143 17.9216 15.9342 18.2017 15.9342 18.6527ZM16.6653 18.4846C16.5252 18.4846 16.4944 18.5126 16.4944 18.6555C16.4944 18.7983 16.5224 18.8263 16.6653 18.8263C16.8081 18.8263 16.8362 18.7983 16.8362 18.6555C16.8362 18.5126 16.8053 18.4846 16.6653 18.4846Z" fill="#313235"/>
</svg>
