<svg width="24" height="24" viewBox="0 0 24 24" fill="none" xmlns="http://www.w3.org/2000/svg">
<path fill-rule="evenodd" clip-rule="evenodd" d="M9.97329 6.11201V5.72537C9.97329 5.34722 9.97329 4.64694 8.34864 4.64694H7.245C6.28141 4.64694 5.65396 4.50409 5.21418 4.18756C4.74079 3.84302 4.5083 3.31361 4.5083 2.56291C4.5083 2.25479 4.7604 2.00269 5.06852 2.00269C5.37665 2.00269 5.62875 2.25479 5.62875 2.56291C5.62875 3.10353 5.62875 3.5293 7.24219 3.5293H8.34584C9.27021 3.5293 9.94528 3.72257 10.4131 4.11753C10.8612 4.49568 11.0909 5.0391 11.0909 5.72818V6.10997C12.6405 6.19707 13.868 6.66677 14.7408 7.50689C15.752 8.47888 16.2646 9.92706 16.2646 11.8094V12.8C16.268 12.8356 16.2679 12.871 16.2646 12.9056V13.6227C16.366 13.7463 16.4467 13.8928 16.5195 14.0251C16.5503 14.0811 16.5951 14.1623 16.6344 14.224C16.6792 14.1997 16.7315 14.1692 16.7788 14.1416C16.8024 14.1278 16.8248 14.1147 16.8444 14.1035L16.8504 14.1C17.1434 13.9241 17.505 13.7071 17.8528 13.9074C18.203 14.1091 18.1946 14.5405 18.1862 14.8878C18.1862 14.909 18.1859 14.933 18.1856 14.9583C18.185 15.0132 18.1843 15.0742 18.1862 15.1259C18.2379 15.1279 18.2989 15.1271 18.3537 15.1265H18.3538C18.3791 15.1262 18.4031 15.1259 18.4243 15.1259C18.7688 15.1175 19.2002 15.1091 19.4047 15.4593C19.6065 15.8048 19.3909 16.164 19.2155 16.4561L19.2086 16.4677C19.1722 16.5265 19.1217 16.6105 19.0881 16.6778C19.1498 16.717 19.231 16.7618 19.287 16.7926C19.5923 16.9607 19.9733 17.1708 19.9733 17.5797C19.9733 17.9887 19.5923 18.1988 19.287 18.3668C19.231 18.3976 19.1498 18.4425 19.0881 18.4817C19.1124 18.5265 19.1429 18.5788 19.1705 18.6261L19.1707 18.6263C19.1844 18.6499 19.1974 18.6722 19.2086 18.6918L19.2121 18.6977C19.388 18.9908 19.605 19.3524 19.4047 19.7002C19.203 20.0503 18.7716 20.0419 18.4243 20.0335C18.4031 20.0335 18.3791 20.0332 18.3538 20.0329C18.2989 20.0323 18.238 20.0316 18.1862 20.0335C18.1843 20.0853 18.185 20.1462 18.1856 20.2011L18.1857 20.2088C18.1859 20.2313 18.1862 20.2525 18.1862 20.2716C18.1946 20.6161 18.203 21.0475 17.8528 21.252C17.5073 21.4538 17.1481 21.2382 16.856 21.0629L16.8444 21.0559C16.7856 21.0195 16.7016 20.9691 16.6344 20.9355C16.5951 20.9971 16.5503 21.0783 16.5195 21.1343C16.3514 21.4397 16.1414 21.8206 15.7324 21.8206C15.3234 21.8206 15.1133 21.4397 14.9453 21.1343C14.9145 21.0783 14.8696 20.9971 14.8304 20.9355C14.7856 20.9597 14.7333 20.9902 14.686 21.0178C14.6624 21.0316 14.64 21.0447 14.6203 21.0559L14.6144 21.0595C14.3453 21.221 14.0183 21.4172 13.6973 21.293C12.8437 21.7381 11.7863 21.9607 10.5503 21.9607C8.74079 21.9607 7.33183 21.4845 6.35984 20.5489C5.34864 19.5741 4.83603 18.1259 4.83603 16.2464V12.8743C4.83564 12.8624 4.83564 12.8504 4.83603 12.8383V11.8094C4.83603 9.92986 5.34864 8.48168 6.35984 7.50689C7.22581 6.67086 8.44086 6.20392 9.97329 6.11201ZM15.7044 14.2688C15.6881 14.2688 15.6719 14.2681 15.6559 14.2667C15.5489 14.3235 15.4569 14.4906 15.3657 14.6562L15.3657 14.6562C15.2662 14.8369 15.1676 15.0159 15.0517 15.0475C14.9301 15.0796 14.7497 14.9707 14.5703 14.8623C14.3739 14.7437 14.1786 14.6257 14.0629 14.6946C13.9475 14.7632 13.9517 14.9919 13.9559 15.2209C13.9598 15.4309 13.9637 15.6411 13.8752 15.7282C13.7877 15.8144 13.5801 15.8102 13.3721 15.8059C13.141 15.8012 12.9095 15.7964 12.8416 15.9159C12.7743 16.0344 12.8927 16.2301 13.0112 16.4259L13.0112 16.4259C13.1196 16.605 13.228 16.7842 13.1946 16.9046C13.163 17.0205 12.984 17.1191 12.8033 17.2186C12.5995 17.3308 12.3935 17.4443 12.3935 17.5853C12.3935 17.7263 12.5995 17.8398 12.8033 17.952C12.984 18.0516 13.163 18.1501 13.1946 18.266C13.2267 18.3876 13.1177 18.568 13.0094 18.7474C12.8907 18.9438 12.7728 19.1391 12.8416 19.2548C12.9103 19.3702 13.139 19.366 13.3679 19.3618C13.5779 19.3579 13.7881 19.354 13.8752 19.4425C13.9615 19.53 13.9572 19.7376 13.953 19.9456C13.9511 20.0353 13.9493 20.1252 13.9547 20.2054C14.0272 20.2519 14.0899 20.3157 14.1358 20.3948C14.1543 20.4265 14.1694 20.4593 14.181 20.4927C14.2922 20.476 14.4313 20.3917 14.5708 20.3071C14.7499 20.1986 14.9297 20.0896 15.0517 20.1231C15.1678 20.1535 15.2666 20.333 15.3663 20.5144C15.4783 20.7182 15.5916 20.9243 15.7324 20.9243C15.8734 20.9243 15.9869 20.7182 16.0991 20.5145C16.1986 20.3337 16.2972 20.1547 16.4131 20.1231C16.5347 20.091 16.7151 20.2 16.8945 20.3083C17.0909 20.427 17.2862 20.5449 17.4019 20.4761C17.5173 20.4074 17.5131 20.1787 17.5088 19.9498C17.505 19.7398 17.5011 19.5296 17.5895 19.4425C17.6774 19.356 17.8859 19.3599 18.0945 19.3638C18.325 19.3681 18.5555 19.3724 18.6231 19.2548C18.6902 19.1381 18.5728 18.944 18.4547 18.7488C18.346 18.569 18.2366 18.3882 18.2702 18.266C18.3006 18.1499 18.4801 18.0512 18.6615 17.9514C18.8652 17.8394 19.0713 17.7261 19.0713 17.5853C19.0713 17.4446 18.8652 17.3312 18.6615 17.2192C18.4801 17.1195 18.3006 17.0208 18.2702 16.9046C18.2381 16.783 18.347 16.6026 18.4554 16.4233C18.574 16.2268 18.692 16.0315 18.6231 15.9159C18.5545 15.8004 18.3258 15.8047 18.0969 15.8089C17.8869 15.8127 17.6766 15.8166 17.5895 15.7282C17.5033 15.6406 17.5075 15.433 17.5118 15.2251C17.5165 14.994 17.5213 14.7624 17.4019 14.6946C17.2836 14.6274 17.0891 14.7452 16.894 14.8635C16.7148 14.9721 16.5351 15.081 16.4131 15.0475C16.2972 15.0159 16.1986 14.8369 16.0991 14.6562C16.0046 14.4847 15.9093 14.3115 15.7973 14.261C15.7671 14.2661 15.736 14.2688 15.7044 14.2688ZM15.1442 13.4931V13.696C15.0682 13.8019 15.0042 13.9181 14.9453 14.0251C14.9145 14.0811 14.8696 14.1623 14.8304 14.224C14.7632 14.1904 14.6792 14.1399 14.6203 14.1035L14.6087 14.0966C14.3167 13.9213 13.9575 13.7056 13.6119 13.9074C13.2618 14.1119 13.2702 14.5433 13.2786 14.8878C13.2786 14.909 13.2789 14.933 13.2792 14.9583V14.9584C13.2798 15.0132 13.2805 15.0742 13.2786 15.1259C13.2268 15.1279 13.1659 15.1271 13.111 15.1265H13.111C13.0857 15.1262 13.0617 15.1259 13.0405 15.1259C12.6932 15.1175 12.2618 15.1091 12.0601 15.4593C11.8598 15.8071 12.0768 16.1687 12.2526 16.4618L12.2562 16.4677C12.2674 16.4873 12.2805 16.5097 12.2943 16.5333L12.2943 16.5334L12.2943 16.5335C12.3219 16.5807 12.3524 16.633 12.3766 16.6778C12.315 16.717 12.2338 16.7618 12.1778 16.7926C11.8724 16.9607 11.4915 17.1708 11.4915 17.5797C11.4915 17.9887 11.8724 18.1988 12.1778 18.3668C12.2338 18.3976 12.315 18.4425 12.3766 18.4817C12.343 18.5489 12.2926 18.6329 12.2562 18.6918L12.2492 18.7034C12.0739 18.9954 11.8583 19.3546 12.0601 19.7002C12.2646 20.0503 12.6932 20.0419 13.0405 20.0335C13.0617 20.0335 13.0857 20.0332 13.111 20.0329C13.1659 20.0323 13.2268 20.0316 13.2786 20.0335C13.2805 20.0853 13.2798 20.1462 13.2792 20.2011V20.2011L13.2787 20.2465C12.5732 20.6398 11.6555 20.8402 10.5503 20.8402C9.04051 20.8402 7.89205 20.4705 7.13575 19.7422C6.35424 18.9859 5.95648 17.8122 5.95648 16.2464V13.4921C7.48056 13.6774 9.01436 13.7698 10.5503 13.7674C12.0856 13.7698 13.6188 13.6797 15.1442 13.4931ZM5.95648 12.363C7.48132 12.5534 9.01467 12.6495 10.5503 12.6469C12.085 12.6495 13.6198 12.5558 15.1442 12.364V11.8094C15.1442 10.2436 14.7464 9.06991 13.9649 8.31361C13.2086 7.58532 12.0601 7.21557 10.5503 7.21557C9.04051 7.21557 7.89205 7.58532 7.13575 8.31361C6.35424 9.06991 5.95648 10.2436 5.95648 11.8094V12.363ZM9.99009 11.3304C9.99009 11.6385 10.2422 11.8906 10.5503 11.8906C10.8584 11.8906 11.1105 11.6385 11.1105 11.3304V8.84582C11.1105 8.5377 10.8584 8.2856 10.5503 8.2856C10.2422 8.2856 9.99009 8.5377 9.99009 8.84582V11.3304ZM14.0461 16.4901C14.0461 16.9411 14.3262 17.2212 14.7772 17.2212C15.2282 17.2212 15.5083 16.9411 15.5083 16.4901C15.5083 16.0391 15.2282 15.759 14.7772 15.759C14.3262 15.759 14.0461 16.0391 14.0461 16.4901ZM14.2926 19.0671C14.2926 19.2212 14.4187 19.3472 14.5727 19.3472C14.6596 19.3472 14.7408 19.308 14.7912 19.238L17.1105 16.2744C17.2058 16.1539 17.1834 15.9775 17.0629 15.8822C16.9425 15.787 16.766 15.8094 16.6708 15.9299L14.3514 18.8934C14.3122 18.9439 14.2926 19.0055 14.2926 19.0671ZM14.7772 16.322C14.6372 16.322 14.6063 16.35 14.6063 16.4929C14.6063 16.6357 14.6344 16.6638 14.7772 16.6638C14.9201 16.6638 14.9481 16.6357 14.9481 16.4929C14.9481 16.35 14.9173 16.322 14.7772 16.322ZM15.9341 18.6525C15.9341 19.1035 16.2142 19.3836 16.6652 19.3836C17.1133 19.3836 17.3963 19.1035 17.3963 18.6525C17.3963 18.2016 17.1161 17.9215 16.6652 17.9215C16.2142 17.9215 15.9341 18.2016 15.9341 18.6525ZM16.6652 18.4845C16.5251 18.4845 16.4943 18.5125 16.4943 18.6553C16.4943 18.7982 16.5223 18.8262 16.6652 18.8262C16.808 18.8262 16.836 18.7982 16.836 18.6553C16.836 18.5125 16.8052 18.4845 16.6652 18.4845Z" fill="#313235"/>
</svg>
