<svg width="24" height="24" viewBox="0 0 24 24" fill="none" xmlns="http://www.w3.org/2000/svg">
<path fill-rule="evenodd" clip-rule="evenodd" d="M19.5602 8.58396H20.3669C21.1092 8.58396 21.7142 9.1918 21.7114 9.9369C21.7114 9.97331 21.7086 10.0125 21.7002 10.0489L20.252 17.9957C20.2184 18.71 19.6274 19.2842 18.9075 19.2842H4.13719C3.39489 19.2842 2.78985 18.6764 2.78985 17.9285C2.78985 17.9197 2.79138 17.9117 2.79284 17.904C2.79418 17.897 2.79545 17.8904 2.79545 17.8837L2.02515 5.9341C2.02515 5.13578 2.6582 4.51953 3.43971 4.51953H9.56856C10.3501 4.51953 10.9859 5.13858 10.9859 5.89488V6.29824H18.0896C18.8711 6.29824 19.5069 6.91729 19.5069 7.67359L19.5714 8.48592C19.5731 8.50674 19.5695 8.52649 19.5658 8.5465C19.5635 8.55878 19.5612 8.57117 19.5602 8.58396ZM3.44251 5.77443H9.57137C9.67781 5.77443 9.75064 5.83886 9.75064 5.89768V6.92569C9.75064 7.27023 10.0279 7.55034 10.3697 7.55034H18.0924C18.1988 7.55034 18.2716 7.61477 18.2744 7.72401L18.3389 8.58396V8.58676H5.61898C4.8991 8.58676 4.30806 9.15819 4.27445 9.87527L3.71702 12.8949L3.26604 5.90048C3.26324 5.83886 3.33607 5.77443 3.44251 5.77443ZM19.0307 17.8193C19.0223 17.8557 19.0195 17.8949 19.0195 17.9313C19.0195 17.9901 18.9719 18.0349 18.9103 18.0349H4.13999C4.09237 18.0349 4.05036 18.0041 4.03635 17.9621L5.49854 10.0517L5.49959 10.0444L5.49959 10.0444C5.50482 10.0079 5.50974 9.97365 5.50974 9.9369C5.50974 9.87807 5.55736 9.83326 5.61898 9.83326H20.3697C20.4201 9.83326 20.4593 9.86407 20.4733 9.90609L19.0307 17.8193Z" fill="#313235"/>
</svg>
