<svg width="24" height="24" viewBox="0 0 24 24" fill="none" xmlns="http://www.w3.org/2000/svg">
<path fill-rule="evenodd" clip-rule="evenodd" d="M19.5602 8.58402H20.3669C21.1092 8.58402 21.7142 9.19186 21.7114 9.93696C21.7114 9.97337 21.7086 10.0126 21.7002 10.049L20.252 17.9958C20.2184 18.7101 19.6274 19.2843 18.9075 19.2843H4.13719C3.39489 19.2843 2.78985 18.6765 2.78985 17.9286C2.78985 17.9198 2.79138 17.9117 2.79284 17.9041C2.79418 17.8971 2.79545 17.8904 2.79545 17.8837L2.02515 5.93416C2.02515 5.13584 2.6582 4.51959 3.43971 4.51959H9.56856C10.3501 4.51959 10.9859 5.13864 10.9859 5.89494V6.2983H18.0896C18.8711 6.2983 19.5069 6.91735 19.5069 7.67365L19.5714 8.48598C19.5731 8.5068 19.5695 8.52655 19.5658 8.54656C19.5635 8.55884 19.5612 8.57123 19.5602 8.58402ZM3.44251 5.77449H9.57137C9.67781 5.77449 9.75064 5.83892 9.75064 5.89774V6.92575C9.75064 7.27029 10.0279 7.5504 10.3697 7.5504H18.0924C18.1988 7.5504 18.2716 7.61483 18.2744 7.72407L18.3389 8.58402V8.58682H5.61898C4.8991 8.58682 4.30806 9.15825 4.27445 9.87533L3.71702 12.8949L3.26604 5.90054C3.26324 5.83892 3.33607 5.77449 3.44251 5.77449ZM19.0307 17.8193C19.0223 17.8557 19.0195 17.8949 19.0195 17.9314C19.0195 17.9902 18.9719 18.035 18.9103 18.035H4.13999C4.09237 18.035 4.05036 18.0042 4.03635 17.9622L5.49854 10.0518L5.49959 10.0445L5.49959 10.0445C5.50482 10.008 5.50974 9.97371 5.50974 9.93696C5.50974 9.87814 5.55736 9.83332 5.61898 9.83332H20.3697C20.4201 9.83332 20.4593 9.86413 20.4733 9.90615L19.0307 17.8193Z" fill="#313235"/>
</svg>
