<svg width="24" height="24" viewBox="0 0 24 24" fill="none" xmlns="http://www.w3.org/2000/svg">
<path fill-rule="evenodd" clip-rule="evenodd" d="M21.6863 19.3333L21.6667 13.521C21.7059 12.8011 21.4986 12.1821 21.0728 11.7283C20.7563 11.3922 20.3305 11.1653 19.8431 11.07L13.5462 4.78991C13.6751 4.53221 13.7535 4.2465 13.7535 3.93837C13.7535 2.88235 12.8964 2.02521 11.8431 2.02521C10.7899 2.02521 9.93277 2.88235 9.93277 3.93837C9.93277 4.2465 10.014 4.53221 10.1429 4.78991L3.85434 11.0812C3.41737 11.1793 3.01681 11.395 2.69468 11.7171C2.2465 12.1653 2 12.7619 2 13.3978L2.01961 19.2101C1.98039 19.9272 2.18768 20.5462 2.61345 21.0028C3.03641 21.4566 3.65826 21.7087 4.36695 21.7143L19.3137 21.7115C19.9468 21.7087 20.5434 21.4622 20.9916 21.014C21.4398 20.5658 21.6863 19.9692 21.6863 19.3333ZM11.1345 3.93837C11.1345 3.54622 11.451 3.22969 11.8431 3.22969C12.2353 3.22969 12.5518 3.54902 12.5518 3.93837C12.5518 4.33053 12.2353 4.64706 11.8431 4.64706C11.451 4.64706 11.1345 4.32773 11.1345 3.93837ZM20.4818 19.3361C20.4818 19.6471 20.3613 19.944 20.1401 20.1653C19.9216 20.3866 19.6247 20.507 19.3109 20.5098L4.36975 20.5126C3.9944 20.5098 3.68908 20.395 3.4874 20.1821C3.29132 19.972 3.19608 19.6583 3.21849 19.2437L3.19888 13.3978C3.19888 13.0868 3.31933 12.7927 3.54062 12.5686C3.7619 12.3473 4.05602 12.2241 4.36975 12.2241L19.3109 12.2213C19.6891 12.2241 19.9916 12.3389 20.1933 12.5518C20.3894 12.7619 20.4846 13.0728 20.4622 13.4902L20.4818 19.3361ZM11.8431 5.85154C11.535 5.85154 11.2493 5.77311 10.9916 5.64426L5.61625 11.0224L18.0896 11.0196L12.6947 5.64145C12.437 5.77031 12.1513 5.85154 11.8431 5.85154ZM6.94118 17.2213C7.14006 17.2213 7.47059 17.2213 7.47059 16.2073C7.47059 15.1849 7.12605 15.1849 6.94118 15.1849C6.7423 15.1849 6.40896 15.1849 6.40896 16.2073C6.40896 17.2213 6.7423 17.2213 6.94118 17.2213ZM8.41176 16.2073C8.41176 14.507 7.4902 14.2521 6.94118 14.2521C6.38936 14.2521 5.46779 14.507 5.46779 16.2073C5.46779 17.9076 6.38936 18.1597 6.94118 18.1597C7.4902 18.1597 8.41176 17.9048 8.41176 16.2073ZM10.4594 15.9412C10.4902 15.9048 10.5238 15.8459 10.5238 15.619C10.5238 15.4342 10.4846 15.3221 10.4454 15.2773C10.4454 15.2773 10.3922 15.2297 10.1681 15.2297H9.88796V15.9916H10.2241C10.4146 15.9888 10.4398 15.9636 10.4594 15.9412ZM11.1373 14.6443C10.9244 14.4174 10.6106 14.3081 10.1849 14.3081V14.3109H9.35574C9.13445 14.3109 8.95518 14.4902 8.95518 14.7115V17.6975C8.95518 17.9188 9.13445 18.098 9.35574 18.098H9.48739C9.70868 18.098 9.88796 17.9188 9.88796 17.6975V16.9104H10.2773C10.6611 16.9104 10.958 16.7871 11.1625 16.5518C11.3669 16.3221 11.465 16.014 11.465 15.6078C11.465 15.1989 11.3529 14.8739 11.1373 14.6443ZM13.8319 17.1765C14.0532 17.1765 14.2325 17.3557 14.2325 17.577V17.6947C14.2325 17.916 14.0532 18.0952 13.8319 18.0952H12.3613C12.1401 18.0952 11.9608 17.916 11.9608 17.6947V14.7087C11.9608 14.4874 12.1401 14.3081 12.3613 14.3081H13.7871C13.9104 14.3081 14.0224 14.3613 14.1008 14.4566C14.1765 14.5518 14.2045 14.6751 14.1793 14.7955L14.1541 14.9132C14.1148 15.098 13.9496 15.2269 13.7619 15.2269H12.8908V15.7199H13.5518C13.7731 15.7199 13.9524 15.8992 13.9524 16.1204V16.2381C13.9524 16.4594 13.7731 16.6387 13.5518 16.6387H12.8908V17.1793H13.8319V17.1765ZM17.5714 14.7087C17.5714 14.4874 17.3922 14.3081 17.1709 14.3081H17.0476C16.8263 14.3081 16.6471 14.4874 16.6471 14.7087V16.1008L15.5798 14.4874C15.507 14.3753 15.381 14.3081 15.2465 14.3081H15.1513C14.93 14.3081 14.7507 14.4874 14.7507 14.7087V17.6975C14.7507 17.9188 14.93 18.098 15.1513 18.098H15.2717C15.493 18.098 15.6723 17.9188 15.6723 17.6975V16.3053L16.7367 17.9188C16.8095 18.0308 16.9356 18.098 17.07 18.098H17.1709C17.3922 18.098 17.5714 17.9188 17.5714 17.6975V14.7087Z" fill="#313235"/>
</svg>
