<svg xmlns="http://www.w3.org/2000/svg" width="24" height="24" fill="none"><path fill="#0B2739" d="M5.609 20.114a7.4 7.4 0 0 1-.838-.696c-1.736-1.675-2.616-4.17-2.616-7.417s.88-5.742 2.616-7.417c1.673-1.611 4.107-2.429 7.23-2.429s5.557.818 7.23 2.429c1.736 1.672 2.616 4.168 2.616 7.417 0 3.25-.88 5.742-2.616 7.417-1.673 1.61-4.107 2.429-7.23 2.429-2.47 0-4.509-.512-6.08-1.522a.56.56 0 0 1-.312-.211m.418-1.087 2.683-2.648-.603-.61-.605-.611-2.668 2.63a6.3 6.3 0 0 0 1.193 1.239m.962.627c1.326.712 3.004 1.072 5.012 1.072 2.824 0 4.994-.711 6.45-2.114 1.51-1.454 2.275-3.678 2.275-6.611s-.764-5.154-2.274-6.61C16.995 3.986 14.824 3.274 12 3.274c-2.824 0-4.994.712-6.451 2.115C4.04 6.844 3.275 9.068 3.275 12c0 1.906.323 3.51.963 4.8l2.875-2.836a.56.56 0 0 1 .793.006l.193.196c.675-1.341 1.375-3.322 1.566-5.952a1.35 1.35 0 0 1-.457-.317Q8.8 7.471 8.8 6.788q.001-.68.41-1.11a1.45 1.45 0 0 1 1.066-.436c.423 0 .793.151 1.068.437q.41.43.409 1.11c0 .45-.138.823-.41 1.108a1.36 1.36 0 0 1-.56.356c-.15 2.129-.616 3.868-1.15 5.216l4.86-4.801a1.36 1.36 0 0 1-.116-.594q.017-.589.505-1.07.487-.48 1.075-.493c.398-.011.768.14 1.067.437.3.297.457.666.446 1.064q-.018.589-.505 1.07-.487.478-1.075.493a1.4 1.4 0 0 1-.605-.117l-4.768 4.705c1.33-.51 3.023-.952 5.079-1.098a1.4 1.4 0 0 1 .355-.56c.283-.272.656-.409 1.11-.409q.683.002 1.109.412c.283.272.437.644.437 1.067s-.151.793-.437 1.07-.655.41-1.11.41c-.453 0-.823-.14-1.109-.41a1.4 1.4 0 0 1-.316-.456c-2.639.19-4.622.896-5.966 1.574l.224.227a.56.56 0 0 1-.006.792zm9.656-6.062c.003.143.048.204.093.246.025.026.103.099.333.099s.308-.073.333-.098c.045-.045.093-.11.093-.261s-.048-.216-.093-.26c-.025-.026-.103-.099-.333-.099s-.308.073-.333.099c-.045.044-.093.109-.093.257v.011q-.005.005 0 .006m-.781-5.132c.036 0 .148-.002.316-.17.16-.161.168-.26.17-.298l.001-.005c.003-.059-.011-.135-.112-.235-.1-.101-.185-.118-.25-.115-.036 0-.148.003-.316.17-.16.161-.168.26-.17.298v.005c-.004.056.008.132.109.233.109.106.187.12.252.117M10.28 7.214c.149 0 .213-.048.258-.093.025-.025.098-.1.098-.333 0-.232-.073-.308-.098-.333-.045-.045-.11-.093-.26-.093-.152 0-.216.048-.261.093-.025.025-.098.1-.098.333s.073.308.098.333c.042.045.103.09.246.093z"/></svg>