<svg xmlns="http://www.w3.org/2000/svg" width="24" height="24" fill="none"><path fill="#0B2739" d="M19.385 8.595c0-2.13-.558-3.731-1.656-4.762-.641-.61-1.487-1.05-2.518-1.311-.975-.241-2.23-.367-3.73-.367H5.213a.6.6 0 0 0-.594.602V21.24c-.003.33.263.6.594.602h4.162a.6.6 0 0 0 .594-.602v-5.773h2.34c1.268 0 2.363-.157 3.257-.465.933-.32 1.709-.832 2.305-1.518 1.003-1.138 1.513-2.782 1.513-4.888m-1.19 0c0 1.8-.407 3.176-1.213 4.087-.46.529-1.065.924-1.799 1.176-.767.266-1.734.4-2.874.4H9.376a.6.6 0 0 0-.596.603v5.776H5.808V3.359h5.672c1.403 0 2.563.115 3.445.334.83.21 1.5.552 1.992 1.02.849.795 1.277 2.103 1.277 3.882m-4.76 1.977a1.5 1.5 0 0 1-.66.4c-.2.06-.597.127-1.345.127H9.97V6.413h1.353c.586 0 1.07.044 1.434.131.306.073.547.194.712.348.342.33.513.921.513 1.753 0 .913-.185 1.56-.547 1.927m.849-4.554q-.485-.459-1.252-.645c-.454-.109-1.028-.165-1.712-.165H9.374a.6.6 0 0 0-.594.602v5.891c-.003.33.263.6.594.602h2.053c.723 0 1.269-.056 1.67-.17a2.7 2.7 0 0 0 1.179-.706c.593-.603.893-1.535.893-2.779 0-1.17-.297-2.053-.885-2.63"/></svg>