<svg xmlns="http://www.w3.org/2000/svg" width="24" height="24" fill="none"><path fill="#0B2739" d="M6.5 2C5.1 2 4 3.162 4 4.55v14.4c0 1.388 1.1 2.55 2.5 2.55S9 20.338 9 18.95V4.55C9 3.162 7.9 2 6.5 2m-1 2.55c0-.6.467-1.05 1-1.05.533 0 1 .45 1 1.05v14.4c0 .6-.467 1.05-1 1.05-.533 0-1-.45-1-1.05zM17 2c-1.4 0-2.5 1.162-2.5 2.55v14.4c0 1.388 1.1 2.55 2.5 2.55s2.5-1.162 2.5-2.55V4.55C19.5 3.162 18.4 2 17 2m-1 2.55c0-.6.467-1.05 1-1.05.533 0 1 .45 1 1.05v14.4c0 .6-.467 1.05-1 1.05-.533 0-1-.45-1-1.05z"/></svg>