<svg xmlns="http://www.w3.org/2000/svg" width="24" height="24" fill="none"><path fill="#313235" stroke="#313235" stroke-width=".5" d="M7.25 4C6.573 4 6 4.569 6 5.3v14.4c0 .731.573 1.3 1.25 1.3s1.25-.569 1.25-1.3V5.3c0-.731-.573-1.3-1.25-1.3ZM5 5.3C5 4.043 5.994 3 7.25 3S9.5 4.043 9.5 5.3v14.4c0 1.257-.994 2.3-2.25 2.3S5 20.957 5 19.7V5.3ZM17.75 4c-.677 0-1.25.569-1.25 1.3v14.4c0 .731.573 1.3 1.25 1.3S19 20.431 19 19.7V5.3c0-.731-.573-1.3-1.25-1.3ZM15.5 5.3c0-1.257.994-2.3 2.25-2.3S20 4.043 20 5.3v14.4c0 1.257-.994 2.3-2.25 2.3s-2.25-1.043-2.25-2.3V5.3Z"/></svg>