<svg width="24" height="24" viewBox="0 0 24 24" fill="none" xmlns="http://www.w3.org/2000/svg">
<path fill-rule="evenodd" clip-rule="evenodd" d="M11.9862 21.821C8.86299 21.821 6.43442 21.0059 4.76776 19.3981C3.03666 17.7314 2.15991 15.2412 2.15991 11.9947C2.15991 8.74821 3.03666 6.25521 4.76776 4.58574C6.43442 2.9779 8.86579 2.15997 11.9862 2.15997C15.1095 2.15997 17.5381 2.9751 19.2075 4.58294C20.9414 6.25241 21.8182 8.74541 21.8182 11.9919C21.8182 15.2384 20.9386 17.7286 19.2075 19.3981C17.5381 21.0059 15.1095 21.821 11.9862 21.821ZM11.9862 3.24961C6.18792 3.24961 3.24675 6.19079 3.24675 11.9947C3.24675 17.793 6.18792 20.7342 11.9862 20.7342C17.7874 20.7342 20.7313 17.793 20.7313 11.9947C20.7313 6.19359 17.7874 3.24961 11.9862 3.24961ZM9.25795 16.3757C8.94983 16.3757 8.69773 16.1236 8.69773 15.8154V8.16838C8.69773 7.86025 8.94983 7.60815 9.25795 7.60815C9.56607 7.60815 9.81818 7.86025 9.81818 8.16838V15.8154C9.81818 16.1236 9.56607 16.3757 9.25795 16.3757ZM14.7201 16.3757C14.412 16.3757 14.1599 16.1236 14.1599 15.8154V8.16838C14.1599 7.86025 14.412 7.60815 14.7201 7.60815C15.0283 7.60815 15.2804 7.86025 15.2804 8.16838V15.8154C15.2804 16.1236 15.0283 16.3757 14.7201 16.3757Z" fill="#313235"/>
</svg>
