<svg width="24" height="24" fill="none" xmlns="http://www.w3.org/2000/svg"><path d="M10.63 18.33h8.194a.56.56 0 1 0 0-1.12H10.63a.562.562 0 0 0-.56.56c0 .309.252.56.56.56Zm8.194-3.277h-7.101a.562.562 0 0 1-.56-.56c0-.308.252-.56.56-.56h7.1a.56.56 0 1 1 0 1.12Zm-4.916-3.823h4.916a.56.56 0 1 0 0-1.12h-4.916a.562.562 0 0 0-.56.56c0 .308.252.56.56.56Zm-6.135.708v.37a.42.42 0 1 1-.84 0v-.364a2.874 2.874 0 0 1-1.235-.484.427.427 0 0 1-.196-.365.415.415 0 0 1 .417-.411c.095.003.188.03.266.084.248.165.499.28.748.34v-1.54c-1.075-.23-1.31-.905-1.31-1.45 0-.823.501-1.396 1.31-1.54v-.471a.42.42 0 1 1 .84 0v.463c.353.049.68.16.947.324.205.126.235.291.235.378a.405.405 0 0 1-.403.403.54.54 0 0 1-.238-.064l-.006-.003a2.067 2.067 0 0 0-.535-.21v1.455c1.208.201 1.468.92 1.468 1.497 0 .48-.176.886-.507 1.174-.245.212-.572.353-.96.414Zm0-2.234v1.412c.404-.102.642-.365.642-.737 0-.27-.087-.534-.642-.675Zm-.84-2.295a.67.67 0 0 0-.485.673c0 .153 0 .442.485.615V7.41Z" fill="#313235"/><path d="M7.972 21.874h6.538c2.933 0 5.815 0 6.193.003.712-.003 1.154-.445 1.154-1.157V7.94a.56.56 0 0 0-.162-.395l-5.205-5.22a.562.562 0 0 0-.397-.165c-2.76 0-7.404 0-8.124.006-.725 0-1.176.448-1.176 1.17v.783c-1.373.09-2.465.516-3.247 1.27-.918.889-1.386 2.205-1.386 3.908 0 1.703.468 3.02 1.386 3.908.782.754 1.874 1.181 3.247 1.27v6.212c0 .366.106.655.314.868.207.213.498.32.865.32ZM7.913 3.336l.002-.03.001-.02c.014-.003.034-.003.056-.003.67-.002 4.773-.003 7.56-.003v2.202c.003.857.2 1.558.583 2.079.451.613 1.143.938 2 .938h2.62v12.258H7.974a.493.493 0 0 1-.059-.003c-.003-.023-.003-.042-.003-.065v-6.213c1.375-.09 2.466-.517 3.25-1.271.918-.888 1.386-2.202 1.386-3.908 0-1.753-.425-3.03-1.3-3.902-.777-.775-1.872-1.195-3.336-1.278v-.78Zm8.74.74 3.288 3.3h-1.826c-.501 0-.86-.163-1.098-.482-.238-.32-.364-.81-.364-1.418v-1.4Zm-6.196 2.112c.652.653.969 1.67.969 3.11 0 2.742-1.333 4.075-4.073 4.075S3.28 12.04 3.28 9.297c0-2.724 1.316-4.058 4.019-4.075a.56.56 0 0 0 .109 0c1.408.008 2.404.322 3.049.966Z" fill="#313235"/></svg>