<svg width="24" height="24" fill="none" xmlns="http://www.w3.org/2000/svg"><path fill-rule="evenodd" clip-rule="evenodd" d="M7.972 21.874h6.538c2.933 0 5.815 0 6.193.003.712-.003 1.154-.445 1.154-1.157V7.94a.56.56 0 0 0-.162-.395L16.49 2.325a.562.562 0 0 0-.397-.165c-2.76 0-7.404 0-8.124.006-.725 0-1.176.448-1.176 1.17v.783c-1.373.09-2.465.516-3.247 1.27-.918.889-1.386 2.205-1.386 3.908 0 1.703.468 3.02 1.386 3.908.782.754 1.874 1.181 3.247 1.27v6.212c0 .366.106.655.314.868.207.213.498.32.865.32ZM7.913 3.336v.78c1.464.084 2.559.504 3.336 1.28.874.87 1.3 2.148 1.3 3.901 0 1.706-.467 3.02-1.386 3.908-.784.754-1.875 1.181-3.25 1.27v6.214c0 .023 0 .042.003.065h.021c.011.002.024.003.038.003h12.76V8.499h-2.62c-.857 0-1.549-.325-2-.938-.384-.521-.58-1.222-.582-2.079V3.28c-2.788 0-6.89 0-7.56.003-.023 0-.043 0-.057.003v.02c-.002.008-.003.018-.003.03Zm8.78.78-.04-.04v1.4c0 .608.126 1.099.364 1.418.238.32.597.482 1.098.482h1.826l-3.249-3.26Zm-6.236 2.072c-.645-.644-1.641-.958-3.05-.966a.561.561 0 0 1-.108 0C4.596 5.239 3.28 6.573 3.28 9.297c0 2.742 1.334 4.076 4.073 4.076 2.74 0 4.073-1.333 4.073-4.076 0-1.44-.316-2.456-.97-3.109Zm.173 12.143h8.194a.56.56 0 1 0 0-1.12H10.63a.562.562 0 0 0-.56.56c0 .308.252.56.56.56Zm8.194-3.277h-7.101a.562.562 0 0 1-.56-.56c0-.309.252-.56.56-.56h7.1a.56.56 0 1 1 0 1.12Zm-4.916-3.824h4.916a.56.56 0 1 0 0-1.12h-4.916a.562.562 0 0 0-.56.56c0 .308.252.56.56.56Zm-6.135.708v.37a.42.42 0 1 1-.84 0v-.364a2.874 2.874 0 0 1-1.235-.484.427.427 0 0 1-.196-.365.415.415 0 0 1 .417-.411c.095.003.188.03.266.084.248.165.499.28.748.34v-1.54c-1.075-.23-1.31-.905-1.31-1.45 0-.823.501-1.396 1.31-1.54v-.471a.42.42 0 1 1 .84 0v.463c.353.049.68.16.947.324.205.126.235.291.235.378a.405.405 0 0 1-.403.403.54.54 0 0 1-.238-.064l-.006-.003c-.182-.1-.357-.169-.535-.21v1.455c1.208.201 1.468.92 1.468 1.497 0 .48-.176.886-.507 1.174-.245.212-.572.353-.96.414Zm0-2.234v1.412c.404-.102.642-.365.642-.737 0-.27-.087-.534-.642-.675Zm-.84-2.295a.67.67 0 0 0-.485.673c0 .153 0 .442.485.615V7.41Z" fill="#313235"/></svg>