<svg width="24" height="24" viewBox="0 0 24 24" fill="none" xmlns="http://www.w3.org/2000/svg">
<path fill-rule="evenodd" clip-rule="evenodd" d="M20.3466 3.2437C20.4307 3.32494 20.5147 3.40897 20.5959 3.493C21.9349 4.88236 22.6071 7.11485 20.4811 9.22409L9.2374 20.4005C9.2346 20.4033 9.2311 20.4061 9.2276 20.4089C9.2241 20.4117 9.2206 20.4145 9.21779 20.4173C9.21639 20.4187 9.21499 20.4208 9.21359 20.4229C9.21219 20.425 9.21079 20.4271 9.20939 20.4285C9.19201 20.4459 9.17063 20.458 9.14893 20.4702C9.13916 20.4757 9.12932 20.4813 9.11976 20.4874C9.11169 20.4906 9.10456 20.4957 9.09782 20.5005C9.09285 20.504 9.0881 20.5074 9.08334 20.5098C8.9909 20.5686 8.88726 20.6022 8.77802 20.605C8.77242 20.605 8.76752 20.6036 8.76261 20.6022C8.75771 20.6008 8.75281 20.5994 8.74721 20.5994L2.87887 21.6778C2.68839 21.7115 2.48951 21.6526 2.34666 21.5182C2.2038 21.3837 2.13657 21.1877 2.16739 20.9944L3.10856 14.8935C3.11192 14.8767 3.11831 14.8599 3.1247 14.8431C3.12895 14.8319 3.13321 14.8207 3.13657 14.8095L3.13658 14.8095C3.14218 14.7871 3.14778 14.7647 3.15618 14.7423C3.18419 14.6751 3.22621 14.6134 3.27943 14.563L14.5875 3.37255C16.7416 1.24091 18.9741 1.91037 20.3466 3.2437ZM18.9489 9.03641L19.6155 8.37255C21.4643 6.54342 20.3018 4.93278 19.7192 4.32493C19.652 4.25492 19.5708 4.17371 19.4979 4.10089L19.4979 4.10085C18.8985 3.52101 17.313 2.37536 15.4503 4.22129L14.7668 4.89916L18.9489 9.03641ZM4.64357 20.1288L3.67719 19.1708L3.49512 20.3389L4.64357 20.1288ZM6.25421 16.6554L4.56794 14.9888L13.9069 5.7507L15.5903 7.41737L6.25421 16.6554ZM3.90408 17.6947L6.09455 19.8627C6.09455 19.8627 7.51192 19.6022 7.50911 19.6022L4.12537 16.2549L3.90408 17.6947ZM8.77522 19.1512L7.11136 17.507L16.4475 8.26891L18.0861 9.89075C18.0889 9.89075 8.77522 19.1512 8.77522 19.1512Z" fill="#313235"/>
</svg>
