<svg width="24" height="24" fill="none" xmlns="http://www.w3.org/2000/svg"><path fill-rule="evenodd" clip-rule="evenodd" d="M20.346 3.244c.084.08.169.165.25.249 1.339 1.39 2.011 3.622-.115 5.731L9.237 20.401l-.01.008-.01.008c0 .002-.002.004-.004.006a.268.268 0 0 1-.065.047.618.618 0 0 0-.028.017l-.022.014-.015.009a.594.594 0 0 1-.305.095.055.055 0 0 1-.016-.003.055.055 0 0 0-.015-.003L2.88 21.678a.622.622 0 0 1-.532-.16.592.592 0 0 1-.18-.524l.941-6.1c.004-.017.01-.034.017-.05l.011-.034a.608.608 0 0 1 .02-.068.527.527 0 0 1 .123-.179l11.308-11.19c2.154-2.132 4.387-1.463 5.76-.13ZM18.95 9.036l.666-.663c1.85-1.83.687-3.44.104-4.048-.067-.07-.148-.151-.221-.224-.6-.58-2.185-1.726-4.048.12l-.683.678 4.182 4.137ZM4.643 20.13l-.966-.958-.182 1.168 1.148-.21Zm1.611-3.474L4.568 14.99l9.339-9.238 1.683 1.666-9.336 9.238Zm-2.35 1.04 2.19 2.168 1.415-.26-3.384-3.348-.221 1.44Zm4.871 1.456-1.664-1.644 9.336-9.238 1.639 1.622c.003 0-9.31 9.26-9.31 9.26Z" fill="#313235"/></svg>