<svg width="24" height="24" viewBox="0 0 24 24" fill="none" xmlns="http://www.w3.org/2000/svg">
<path fill-rule="evenodd" clip-rule="evenodd" d="M21.8462 9.64854C21.8266 8.66535 21.0339 7.86703 20.0815 7.86703H19.2411V7.86983H18.5633C18.3588 6.92865 17.5353 6.21997 16.5521 6.21997H7.47644C4.04787 6.32921 2.15991 8.36563 2.15991 11.9539C2.15991 15.5365 4.04787 17.5785 7.49605 17.7046H16.5661C17.5633 17.7046 18.398 16.9735 18.5857 16.0099H20.0955C21.0619 16.0099 21.8462 15.2032 21.8462 14.2144V9.64854ZM16.5661 16.4777C17.0367 16.4777 17.4176 16.0827 17.4176 15.5981V15.3992H17.4036V8.32921C17.4036 7.84462 17.0227 7.44966 16.5521 7.44966H7.49605C4.76215 7.5365 3.3672 9.0547 3.3672 11.9567C3.3672 14.8586 4.76215 16.3796 7.51565 16.4777H16.5661ZM20.6389 9.66535V14.2172C20.6389 14.5281 20.3952 14.783 20.0955 14.7858H18.6137V9.09952H20.1291C20.4092 9.12473 20.6333 9.37403 20.6389 9.66535ZM7.43722 12.0659C7.43722 11.4329 7.07588 11.1387 6.51846 11.1387C5.96383 11.1387 5.59969 11.4329 5.59969 12.0659C5.59969 12.3712 5.68372 12.5953 5.83218 12.7494C5.99184 12.9146 6.22994 12.9959 6.51846 12.9959C6.80697 12.9959 7.04226 12.9146 7.20473 12.7494C7.35319 12.5953 7.43722 12.3712 7.43722 12.0659Z" fill="#313235"/>
</svg>
