<svg width="24" height="24" fill="none" xmlns="http://www.w3.org/2000/svg"><path fill-rule="evenodd" clip-rule="evenodd" d="M11.84 6.426c-.697 0-1.24-.182-1.616-.546-.392-.379-.588-.936-.588-1.664 0-.726.196-1.289.588-1.664.373-.367.919-.552 1.616-.552.698 0 1.244.185 1.622.549.392.378.591.941.591 1.667 0 .725-.199 1.285-.59 1.664-.379.364-.925.546-1.623.546Zm-.75-2.978c-.171.165-.208.51-.208.768 0 .21.026.588.208.762.176.17.546.196.75.196.205 0 .577-.026.757-.2.17-.164.207-.503.207-.758 0-.258-.037-.6-.21-.768-.171-.165-.504-.199-.756-.199-.202.003-.57.028-.748.2Zm-1.902 6.14c.028-.21.103-.437.266-.608.266-.277.711-.333 1.042-.333h2.692c.33 0 .778.056 1.044.336.166.171.239.395.27.605H9.187Zm-1.02 1.252a.25.25 0 0 1-.25-.252v-.736c0-.704.22-1.306.634-1.737.45-.474 1.123-.72 1.941-.72h2.692c.82 0 1.49.25 1.944.72.417.431.639 1.033.639 1.737v.736a.252.252 0 0 1-.25.252h-7.35Zm-3.204 4.224c0-.257.036-.602.207-.767.18-.174.546-.199.75-.199.25 0 .583.034.754.199.174.168.21.51.21.767 0 .255-.036.594-.207.76-.18.173-.552.198-.756.198-.205 0-.575-.025-.751-.196-.171-.165-.207-.504-.207-.762Zm.958 2.208c-.698 0-1.241-.185-1.617-.546-.392-.376-.588-.936-.588-1.664 0-.726.196-1.289.588-1.667.378-.364.922-.55 1.62-.55.697 0 1.243.186 1.621.55.392.38.591.941.591 1.667 0 .725-.199 1.285-.594 1.664-.378.364-.924.546-1.621.546Zm2.658 3.162H3.266c.03-.21.104-.437.269-.608.266-.277.711-.336 1.04-.336h2.691c.328 0 .776.056 1.045.336.165.174.238.398.269.608Zm-1.311-2.193c.818 0 1.49.25 1.944.72.417.434.636 1.036.636 1.74v.733a.25.25 0 0 1-.25.252H2.252A.253.253 0 0 1 2 21.434v-.737c0-.703.218-1.305.63-1.736.451-.47 1.123-.723 1.941-.723l2.698.003Zm9.535-3.185c0-.258.036-.6.207-.767.177-.171.544-.197.75-.2.25 0 .584.034.754.2.174.168.21.51.21.767 0 .255-.036.594-.207.76-.18.173-.552.198-.756.198-.205 0-.574-.025-.75-.196-.183-.174-.208-.552-.208-.762Zm-.664 1.664c-.392-.378-.588-.936-.588-1.664 0-.728.196-1.288.588-1.664.375-.367.922-.552 1.62-.552.697 0 1.243.185 1.62.55.393.377.592.94.592 1.666s-.199 1.286-.594 1.664c-.375.364-.921.546-1.619.546-.697 0-1.24-.185-1.619-.546Zm4.28 3.709h-5.314c.028-.21.101-.437.267-.608.266-.278.711-.336 1.039-.336h2.694c.328 0 .776.056 1.045.336.166.173.238.397.27.607Zm.63-1.474c.418.434.636 1.037.636 1.737v.736a.252.252 0 0 1-.25.253h-7.35a.25.25 0 0 1-.248-.253v-.736c0-.703.218-1.303.63-1.737.45-.47 1.123-.72 1.94-.72h2.696c.823 0 1.493.25 1.946.72Zm-7.411-2.409a.626.626 0 1 0 .65-1.067l-1.844-1.129v-2.14a.625.625 0 0 0-1.249 0v2.14L9.353 15.48a.627.627 0 0 0-.205.863c.18.291.563.384.858.204l1.817-1.112 1.816 1.112Z" fill="#313235"/></svg>