<svg xmlns="http://www.w3.org/2000/svg" width="24" height="24" fill="none"><path fill="#000" d="M9.258 4.637c0 1.549.936 2.476 2.499 2.476 1.568 0 2.5-.924 2.498-2.476 0-.793-.232-1.415-.686-1.849-.437-.42-1.048-.633-1.815-.633-.765 0-1.376.213-1.813.633-.453.437-.683 1.056-.683 1.849m1.532-.98c.202-.197.527-.295.967-.295s.767.098.972.294c.207.202.313.533.313.984 0 .888-.383 1.269-1.285 1.269-.897 0-1.28-.381-1.28-1.27 0-.453.106-.784.313-.983m5.415 12.246a1.517 1.517 0 0 0 1.078-1.857L16.14 9.88a1 1 0 0 0-.059-.188c-.285-1.291-1.456-2.224-2.798-2.224H10.72c-1.342 0-2.515.933-2.801 2.227a1 1 0 0 0-.048.145l-1.15 4.21a1.52 1.52 0 0 0 1.072 1.852c.392.11.804.059 1.162-.143l.02-.012.02-.013v4.594c0 .851.621 1.493 1.445 1.493.82 0 1.415-.628 1.415-1.493v-4.454h.28v4.454c0 .862.616 1.515 1.434 1.515.82 0 1.44-.653 1.44-1.515v-4.594q.01.007.022.013l.017.01a1.5 1.5 0 0 0 1.157.145m-.098-1.546a.313.313 0 0 1-.224.384c-.103.027-.186-.005-.236-.025h-.002c-.043-.026-.115-.08-.132-.135l-.518-2.838a.616.616 0 0 0-.653-.493.605.605 0 0 0-.552.6v8.481c0 .07-.017.309-.224.309-.202 0-.218-.236-.218-.309v-5.055a.604.604 0 0 0-.608-.603h-1.496a.604.604 0 0 0-.608.602v5.056c0 .289-.143.289-.199.289-.19 0-.23-.157-.23-.289V11.85c0-.311-.24-.572-.554-.6a.6.6 0 0 0-.653.493l-.507 2.787a.3.3 0 0 1-.143.183.3.3 0 0 1-.238.028.31.31 0 0 1-.218-.379l1.151-4.21a.7.7 0 0 0 .056-.176 1.654 1.654 0 0 1 1.62-1.303h2.562c.782 0 1.46.55 1.616 1.303l.006.02.006.022a.6.6 0 0 0 .047.14z"/></svg>