<svg width="24" height="24" viewBox="0 0 24 24" fill="none" xmlns="http://www.w3.org/2000/svg">
<path fill-rule="evenodd" clip-rule="evenodd" d="M2.17124 13.2675C2.17124 14.8585 3.0872 15.7689 4.68384 15.7689L6.79368 15.7676L6.24539 16.3416L2.70905 16.3431C2.40653 16.3431 2.16003 16.5896 2.16003 16.8922C2.16003 17.1947 2.40653 17.4412 2.70905 17.4412L15.8183 17.4356C16.1208 17.4356 16.3673 17.1891 16.3673 16.8866C16.3673 16.584 16.1208 16.3375 15.8183 16.3375L12.1973 16.3391L11.6403 15.7647L13.8435 15.7633C15.4401 15.7633 16.3561 14.8501 16.3561 13.2619V8.98179C16.3561 8.20588 16.1432 7.59524 15.7203 7.16667C15.2861 6.72409 14.653 6.5 13.8435 6.5L4.68384 6.5056C3.87432 6.5056 3.24127 6.72969 2.80709 7.17227C2.38412 7.60084 2.17124 8.21148 2.17124 8.9874V13.2675ZM10.1124 15.7656L8.31237 15.7667L7.76381 16.341L10.6692 16.3397L10.1124 15.7656ZM4.68384 7.58123L13.8435 7.57563C14.8519 7.57563 15.2805 7.9958 15.2805 8.98179V13.2619C15.2805 14.2619 14.8519 14.6877 13.8435 14.6877L4.68384 14.6933C3.67824 14.6933 3.24687 14.2675 3.24687 13.2675V8.9874C3.24687 8.0014 3.67544 7.58123 4.68384 7.58123ZM18.3673 17.4188H20.3645C20.7987 17.4188 21.8127 17.2227 21.8127 15.402L21.8099 8.52241C21.8099 6.70168 20.7959 6.5056 20.3617 6.5056H18.3645C17.8911 6.5056 17.4934 6.72409 17.2441 7.11625C17.0284 7.45518 16.9247 7.91457 16.9247 8.52241L16.9303 15.402C16.9303 16.0098 17.034 16.4692 17.2469 16.8081C17.4962 17.2031 17.8939 17.4188 18.3673 17.4188ZM18.3645 7.56723C18.2385 7.56723 18.188 7.60644 18.1432 7.68207C18.0844 7.77451 17.9892 8.0042 17.9892 8.52241L17.992 15.402C17.992 15.9202 18.0872 16.1499 18.146 16.2423C18.1936 16.3179 18.2413 16.3571 18.3673 16.3571H20.3645C20.4934 16.3571 20.5438 16.3151 20.5942 16.2395C20.653 16.1471 20.7511 15.9174 20.7511 15.4048L20.7483 8.52521C20.7483 8.0098 20.6502 7.78011 20.5914 7.68768C20.5438 7.61204 20.4906 7.57003 20.3617 7.57003H18.3645V7.56723Z" fill="#313235"/>
</svg>
