<svg width="24" height="24" fill="none" xmlns="http://www.w3.org/2000/svg"><path d="M2.186 13.297c0 1.592.916 2.502 2.513 2.502l2.11-.001-.549.574-3.536.001a.55.55 0 0 0 0 1.098l13.11-.005a.55.55 0 0 0 0-1.098l-3.622.001-.557-.574 2.204-.002c1.596 0 2.512-.913 2.512-2.501v-4.28c0-.776-.213-1.387-.636-1.815-.434-.443-1.067-.667-1.877-.667l-9.16.006c-.809 0-1.442.224-1.876.666-.423.429-.636 1.04-.636 1.815v4.28Zm7.941 2.499h-1.8l-.548.575 2.905-.001-.557-.574ZM4.7 7.61l9.16-.005c1.008 0 1.437.42 1.437 1.406v4.28c0 1-.43 1.426-1.438 1.426l-9.16.005c-1.005 0-1.436-.426-1.436-1.426v-4.28c0-.986.428-1.406 1.437-1.406ZM18.382 17.449h1.997c.435 0 1.449-.196 1.449-2.017l-.003-6.88c0-1.82-1.014-2.016-1.448-2.016H18.38c-.474 0-.872.218-1.12.61-.217.34-.32.799-.32 1.406l.005 6.88c0 .608.104 1.067.317 1.406.25.395.647.61 1.12.61Zm-.003-9.852V7.6h1.998c.129 0 .182.042.23.118.058.092.156.322.156.837l.003 6.88c0 .512-.098.742-.157.835-.05.075-.1.117-.23.117h-1.997c-.126 0-.173-.039-.221-.115-.059-.092-.154-.322-.154-.84l-.003-6.88c0-.518.095-.747.154-.84.045-.076.095-.115.221-.115Z" fill="#313235"/></svg>