<svg width="24" height="24" viewBox="0 0 24 24" fill="none" xmlns="http://www.w3.org/2000/svg">
<path fill-rule="evenodd" clip-rule="evenodd" d="M21.307 18.8631C21.842 18.2973 21.8056 17.4793 21.8 17.4289H21.7972V8.54097C21.7972 7.78186 21.5031 7.33648 21.2566 7.09559C20.8162 6.66761 20.263 6.62644 20.1057 6.61473C20.0859 6.61325 20.0724 6.61225 20.0661 6.61099L14.8308 6.60539L14.0185 5.21604C13.8056 4.85189 13.4107 4.625 12.9905 4.625H10.8084C10.3518 4.625 9.94288 4.8799 9.7412 5.28887L9.09414 6.60539C6.67398 6.60539 4.66557 6.60819 4.14456 6.61099C3.31823 6.6138 2.85325 6.94153 2.60675 7.21324C2.09414 7.78747 2.15577 8.51856 2.16137 8.53817L2.18658 17.4457C2.2342 19.0452 3.35745 19.3561 3.81963 19.3561L20.0689 19.3589C20.7048 19.3589 21.0941 19.09 21.307 18.8631ZM20.4275 18.048C20.5871 17.8771 20.6011 17.5326 20.5955 17.4681L20.5927 8.54097C20.5927 8.26366 20.5339 8.06478 20.4135 7.94993C20.279 7.81828 20.0801 7.80707 20.0773 7.80707L14.4863 7.80427C14.2706 7.80427 14.0717 7.68943 13.9653 7.50735L12.9765 5.81828L10.8084 5.82388L10.0101 7.47094C9.90927 7.67542 9.69919 7.80707 9.46949 7.80707C6.88686 7.80707 4.69919 7.80707 4.15017 7.81267C3.83924 7.81548 3.62076 7.8827 3.50311 8.01716C3.34344 8.19643 3.35745 8.47654 3.36025 8.47934L3.38826 17.4345C3.4091 18.117 3.74001 18.16 3.79528 18.1671C3.79944 18.1677 3.80204 18.168 3.80283 18.1684L20.0689 18.1712C20.2902 18.1656 20.3799 18.0984 20.4275 18.048ZM14.9149 12.9919C14.9149 10.2525 12.6768 10.0228 12.1025 10.0088C12.0353 10.006 11.9569 10.006 11.8813 10.0116H11.8224C11.2342 10.0172 9.04092 10.2216 9.04092 12.9779C9.04092 15.7398 11.2538 15.9555 11.842 15.9639H11.9373C11.9674 15.9639 11.9983 15.9632 12.0283 15.9625L12.0284 15.9625C12.0571 15.9618 12.085 15.9611 12.111 15.9611C12.674 15.9499 14.9149 15.737 14.9149 12.9919ZM13.7132 12.9919C13.7132 13.4233 13.7132 14.7342 12.0913 14.7651L11.9373 14.7679H11.8617C10.2454 14.7426 10.2454 13.4121 10.2454 12.9751C10.2454 12.541 10.2454 11.216 11.8364 11.202H11.8841C11.9485 11.202 12.0157 11.202 12.0745 11.2048C13.7132 11.244 13.7132 12.5606 13.7132 12.9919Z" fill="#313235"/>
</svg>
