<svg width="24" height="24" viewBox="0 0 24 24" fill="none" xmlns="http://www.w3.org/2000/svg">
<path fill-rule="evenodd" clip-rule="evenodd" d="M15.8048 2.1609C17.183 2.13288 18.5892 2.78835 19.9057 4.10487C22.4603 6.65669 22.4995 9.47182 20.0149 12.032L12.085 19.9648C12.0233 20.032 11.9617 20.0937 11.8945 20.1497C10.6872 21.2785 9.4183 21.8444 8.14379 21.8444C6.77964 21.8444 5.40989 21.1945 4.11017 19.8948C2.79084 18.5783 2.13818 17.2001 2.16059 15.7996C2.1858 14.4522 2.83846 13.1273 4.10457 11.8612L4.25023 11.7099C4.37068 11.5839 4.48832 11.4634 4.61157 11.357L11.3875 4.57826C11.4654 4.48362 11.5849 4.36961 11.7073 4.25273L11.7096 4.25053L11.8637 4.10487C13.1298 2.84157 14.4547 2.18611 15.8048 2.1609ZM19.1438 11.1721L15.9309 14.385C15.9185 14.3872 15.9062 14.3877 15.8936 14.3881C15.8749 14.3888 15.8558 14.3895 15.8357 14.3962C14.3567 14.8696 12.7096 13.6287 11.5864 12.5054C9.9197 10.8388 9.32586 9.36538 9.77124 7.99843C9.77599 7.98259 9.77716 7.96675 9.77829 7.95142C9.77916 7.93964 9.78001 7.92815 9.78244 7.9172L12.2894 5.4102C12.3735 5.31496 12.4659 5.22532 12.5584 5.13849L12.732 4.97042C13.7656 3.93681 14.8077 3.40179 15.8301 3.38498H15.8861C16.9253 3.38498 17.9869 3.92 19.0401 4.97322C21.1298 7.06005 21.1606 9.09087 19.1438 11.1721ZM11.281 19.0348L11.197 19.1217L11.1949 19.124C11.1649 19.1567 11.1369 19.1873 11.0822 19.2365C9.03174 21.1581 7.03734 21.0881 4.97852 19.032C3.90569 17.9592 3.37068 16.8808 3.39028 15.8248C3.40709 14.8052 3.9421 13.7631 4.97572 12.7295L5.14379 12.5559C5.23342 12.4606 5.32306 12.3682 5.44911 12.2561L8.4295 9.27574C8.54435 10.5979 9.29505 11.9508 10.7208 13.3766C12.0934 14.7491 13.4015 15.525 14.6228 15.6959L11.281 19.0348Z" fill="#313235"/>
</svg>
