<svg width="24" height="24" viewBox="0 0 24 24" fill="none" xmlns="http://www.w3.org/2000/svg">
<path fill-rule="evenodd" clip-rule="evenodd" d="M15.8047 2.16077C17.1829 2.13276 18.589 2.78822 19.9056 4.10475C22.4602 6.65657 22.4994 9.4717 20.0148 12.0319L12.0848 19.9647C12.0232 20.0319 11.9616 20.0935 11.8944 20.1496C10.6871 21.2784 9.41817 21.8442 8.14366 21.8442C6.77952 21.8442 5.40977 21.1944 4.11005 19.8947C2.79072 18.5781 2.13806 17.2 2.16047 15.7994C2.18568 14.4521 2.83834 13.1272 4.10445 11.8611L4.25011 11.7098C4.37055 11.5837 4.4882 11.4633 4.61145 11.3569L11.3874 4.57814C11.4653 4.4835 11.5847 4.36949 11.7072 4.25261L11.7095 4.25041L11.8636 4.10475C13.1297 2.84145 14.4546 2.18598 15.8047 2.16077ZM19.1437 11.172L15.9308 14.3849C15.9184 14.3871 15.906 14.3876 15.8935 14.388C15.8748 14.3887 15.8557 14.3894 15.8355 14.3961C14.3565 14.8695 12.7095 13.6286 11.5862 12.5053C9.91957 10.8386 9.32574 9.36525 9.77111 7.99831C9.77587 7.98247 9.77704 7.96663 9.77817 7.9513C9.77904 7.93951 9.77988 7.92803 9.78232 7.91708L12.2893 5.41007C12.3734 5.31483 12.4658 5.2252 12.5582 5.13836L12.7319 4.9703C13.7655 3.93668 14.8075 3.40167 15.8299 3.38486H15.886C16.9252 3.38486 17.9868 3.91988 19.04 4.9731C21.1297 7.05993 21.1605 9.09074 19.1437 11.172ZM11.2809 19.0347L11.1969 19.1216L11.1948 19.1238C11.1648 19.1566 11.1368 19.1871 11.082 19.2364C9.03162 21.158 7.03722 21.0879 4.9784 19.0319C3.90557 17.9591 3.37055 16.8807 3.39016 15.8246C3.40697 14.805 3.94198 13.763 4.9756 12.7294L5.14366 12.5557C5.2333 12.4605 5.32294 12.3681 5.44899 12.256L8.42938 9.27562C8.54422 10.5977 9.29492 11.9507 10.7207 13.3765C12.0932 14.749 13.4014 15.5249 14.6227 15.6958L11.2809 19.0347Z" fill="#313235"/>
</svg>
