<svg width="24" height="24" fill="none" xmlns="http://www.w3.org/2000/svg"><path fill-rule="evenodd" clip-rule="evenodd" d="m15.862 2.478 5.661 5.69c.21.21.323.481.325.77a.995.995 0 0 1-.29.708c-.763.768-1.586 1.222-2.463 1.37l-2.532 2.552c.347 2.025-.376 3.952-2.143 5.734a1.33 1.33 0 0 1-.947.412 1.2 1.2 0 0 1-.86-.359L9.095 15.81l-5.868 5.857a.626.626 0 0 1-.886-.003.634.634 0 0 1 .003-.89l5.866-5.855-3.443-3.468a1.24 1.24 0 0 1-.361-.876c0-.334.126-.645.361-.88l.031-.034c2.19-2.204 4.263-2.448 5.72-2.196l2.53-2.549c.137-.876.58-1.694 1.316-2.437a1.041 1.041 0 0 1 1.498 0Zm2.496 7.499a.62.62 0 0 1 .376-.182c.627-.065 1.207-.353 1.77-.877l-5.387-5.414c-.52.577-.798 1.16-.857 1.764a.622.622 0 0 1-.18.384L11.163 8.59a.61.61 0 0 1-.585.168c-1.673-.397-3.32.202-4.894 1.788l-.028.03 3.84 3.863.02.013c.01.005.02.01.028.018a.109.109 0 0 1 .018.027.136.136 0 0 0 .013.02l3.921 3.945c1.586-1.608 2.169-3.258 1.78-4.961a.627.627 0 0 1 .165-.586l2.918-2.938Z" fill="#313235"/></svg>