<svg width="24" height="24" viewBox="0 0 24 24" fill="none" xmlns="http://www.w3.org/2000/svg">
<path fill-rule="evenodd" clip-rule="evenodd" d="M11.9862 21.8211C8.86299 21.8211 6.43442 21.006 4.76776 19.3981C3.03666 17.7315 2.15991 15.2413 2.15991 11.9948C2.15991 8.74827 3.03666 6.25527 4.76776 4.5858C6.43442 2.97796 8.86579 2.16003 11.9862 2.16003C15.1095 2.16003 17.5381 2.97516 19.2075 4.583C20.9414 6.25247 21.8182 8.74547 21.8182 11.992C21.8182 15.2385 20.9386 17.7287 19.2075 19.3981C17.5381 21.006 15.1095 21.8211 11.9862 21.8211ZM11.9862 3.24967C6.18792 3.24967 3.24675 6.19085 3.24675 11.9948C3.24675 17.7931 6.18792 20.7343 11.9862 20.7343C17.7874 20.7343 20.7313 17.7931 20.7313 11.9948C20.7313 6.19365 17.7874 3.24967 11.9862 3.24967ZM9.18792 16.3001C9.10389 16.3001 9.01986 16.2777 8.94423 16.2357C8.79296 16.1488 8.70053 15.9892 8.70053 15.8155V8.13202C8.70053 7.95835 8.79296 7.79869 8.94423 7.71185C9.09549 7.62502 9.28036 7.62502 9.42882 7.71185L16.0815 11.5522C16.2327 11.639 16.3252 11.7987 16.3252 11.9724C16.3252 12.146 16.2327 12.3057 16.0815 12.3925L9.42882 16.2357C9.35319 16.2777 9.26916 16.3001 9.18792 16.3001ZM9.67252 14.9724L14.8686 11.9724L9.67252 8.97236V14.9724Z" fill="#313235"/>
</svg>
