<svg width="24" height="24" viewBox="0 0 24 24" fill="none" xmlns="http://www.w3.org/2000/svg">
<path fill-rule="evenodd" clip-rule="evenodd" d="M8.82378 6.05919L9.50725 6.75387L9.34759 7.74267C9.26916 8.23006 9.46523 8.70905 9.86579 8.99477C10.0815 9.14603 10.328 9.22446 10.5801 9.22446C10.7818 9.22446 10.9862 9.17404 11.1711 9.0704L11.9862 8.62502L12.8042 9.0732C13.2131 9.29729 13.7285 9.26648 14.1095 8.99757C14.5073 8.71466 14.7061 8.23566 14.6277 7.74547L14.4652 6.75387L15.1487 6.05919C15.4876 5.71466 15.6025 5.21326 15.4512 4.75107C15.3 4.29729 14.9162 3.97236 14.4512 3.90233L13.5297 3.76508L13.1095 2.87992C12.8994 2.43454 12.468 2.16003 11.9862 2.16003C11.5016 2.16003 11.0703 2.43735 10.8602 2.87992L10.4428 3.76228L9.52126 3.90233C9.05627 3.97236 8.67252 4.29729 8.52406 4.75107C8.37 5.21326 8.48484 5.71466 8.82378 6.05919ZM13.3924 8.00037L13.3896 7.99757L12.3056 7.40093C12.2103 7.34491 12.0955 7.3141 11.9834 7.3141C11.8798 7.3141 11.7762 7.33931 11.6837 7.38973L10.5549 7.94435L10.765 6.66143C10.7986 6.46816 10.7285 6.24407 10.5913 6.10401L9.70333 5.11802L10.8994 4.93594C11.1179 4.91634 11.3224 4.77068 11.4148 4.5746L12.0002 3.40653L12.5577 4.58861C12.6473 4.76788 12.8294 4.90233 13.0283 4.93314L14.272 5.19925L13.3952 6.09001C13.2439 6.23006 13.1683 6.46255 13.2019 6.66424L13.3952 7.99757C13.3952 8.00037 13.3924 8.00037 13.3924 8.00037ZM15.6921 20.5998H20.6193V17.4345H15.6921V20.5998ZM3.3868 20.5998V15.0564H8.31117V20.5998H3.3868ZM14.4652 12.02H9.53806V14.7063C9.53806 14.7084 9.53825 14.7102 9.53852 14.7118C9.53878 14.7133 9.53912 14.7147 9.53946 14.7161C9.54016 14.7189 9.54086 14.7217 9.54086 14.7259V20.6194H14.4652V12.02ZM3.23274 21.8491H14.6221V21.8463H20.7734C21.4036 21.8463 21.8462 21.499 21.8462 21.0284V17.0032C21.8462 16.541 21.398 16.2049 20.7762 16.2049H15.6949V11.8183C15.6949 11.2693 15.1935 10.7903 14.6221 10.7903H9.384C8.81537 10.7903 8.31397 11.2721 8.31397 11.8183V13.8267H3.23274C2.71734 13.8267 2.15991 14.1712 2.15991 14.7259V20.9303C2.15991 21.4261 2.6417 21.8491 3.23274 21.8491Z" fill="#313235"/>
</svg>
