<svg width="24" height="24" fill="none" xmlns="http://www.w3.org/2000/svg"><path fill-rule="evenodd" clip-rule="evenodd" d="m8.824 6.06.683.694-.16.989c-.078.487.118.966.519 1.252.216.151.462.23.714.23.202 0 .406-.051.591-.155l.815-.445.818.448c.41.224.925.193 1.306-.075a1.28 1.28 0 0 0 .518-1.253l-.163-.991.684-.695c.339-.344.454-.846.302-1.308a1.25 1.25 0 0 0-1-.849l-.921-.137-.42-.885a1.235 1.235 0 0 0-1.124-.72 1.24 1.24 0 0 0-1.126.72l-.417.882-.922.14c-.465.07-.848.395-.997.85a1.28 1.28 0 0 0 .3 1.307ZM13.392 8l-.002-.002-1.084-.597a.646.646 0 0 0-.622-.011l-1.13.554.211-1.283a.669.669 0 0 0-.174-.557l-.888-.986 1.196-.182a.65.65 0 0 0 .516-.361L12 3.407l.558 1.182a.65.65 0 0 0 .47.344l1.244.266-.877.891a.664.664 0 0 0-.193.574l.193 1.334c0 .002-.003.002-.003.002Zm2.3 12.6h4.927v-3.166h-4.927V20.6Zm-12.305 0v-5.544H8.31V20.6H3.387Zm11.078-8.58H9.538v2.692l.001.004.002.01v5.893h4.924V12.02ZM3.233 21.85h11.39v-.004h6.15c.63 0 1.073-.347 1.073-.818v-4.025c0-.462-.448-.798-1.07-.798h-5.081v-4.387c0-.549-.502-1.028-1.073-1.028H9.384c-.569 0-1.07.482-1.07 1.028v2.009H3.233c-.516 0-1.073.344-1.073.899v6.204c0 .496.482.92 1.073.92Z" fill="#313235"/></svg>