<svg width="24" height="24" viewBox="0 0 24 24" fill="none" xmlns="http://www.w3.org/2000/svg">
<path fill-rule="evenodd" clip-rule="evenodd" d="M16.6331 6.56011C17.818 7.14274 18.4622 8.32762 18.4622 9.95787L18.4538 17.8822C18.4538 20.2632 17.0449 21.6862 14.6891 21.6862H9.1233C7.96364 21.6862 7.04207 21.3612 6.3782 20.717C5.68913 20.0475 5.33899 19.0951 5.33899 17.8822V9.95787C5.33899 8.74498 5.68913 7.7926 6.38661 7.12313C6.59669 6.91865 6.84319 6.75619 7.1065 6.61613C7.08969 6.5293 7.07849 6.43966 7.07849 6.34722V3.42285C7.07849 2.63854 7.71434 2.00269 8.49585 2.00269H15.2381C16.0197 2.00269 16.6555 2.64134 16.6555 3.42285V6.34722C16.6555 6.42005 16.6443 6.49008 16.6331 6.56011ZM8.27176 6.34442V3.42005C8.27176 3.2996 8.3726 3.19876 8.49305 3.19876H15.2353C15.3586 3.19876 15.4566 3.2968 15.4566 3.42005V6.34442C15.4566 6.46767 15.3586 6.56851 15.2353 6.56851H8.49305C8.3698 6.56851 8.27176 6.46767 8.27176 6.34442ZM17.0281 19.1736C16.6695 20.0391 15.8936 20.4873 14.6891 20.4873V20.4901H9.1205C8.28297 20.4901 7.64151 20.2772 7.20734 19.857C7.01966 19.6722 6.8768 19.4397 6.76756 19.1736H17.0281ZM17.1905 9.17636C17.0337 8.38084 16.6163 7.84302 15.9412 7.57411C15.7339 7.69456 15.4931 7.77019 15.2353 7.77019H8.49305C8.25496 7.77019 8.03087 7.70577 7.83479 7.59932C7.59949 7.70016 7.38381 7.82341 7.21014 7.98868C6.90762 8.28 6.71434 8.68616 6.6135 9.17636H17.1905ZM6.53498 17.9264C6.53361 17.9117 6.53227 17.8973 6.53227 17.8822V10.378H17.2662L17.2578 17.885C17.2578 17.9004 17.2564 17.9151 17.255 17.9299L17.255 17.9299C17.2536 17.9446 17.2522 17.9593 17.2522 17.9747H6.53787C6.53787 17.9575 6.53641 17.9418 6.53498 17.9264ZM8.70874 5.41445C8.70874 5.74498 8.97484 6.01389 9.30538 6.01389C9.63591 6.01389 9.90482 5.74498 9.90201 5.41445V4.37243C9.90201 4.0419 9.63311 3.77299 9.30538 3.77299C8.97764 3.77299 8.70874 4.0419 8.70874 4.37243V5.41445ZM11.0141 6.01389C10.6835 6.01389 10.4174 5.74498 10.4174 5.41445V4.37243C10.4174 4.0419 10.6863 3.77299 11.0141 3.77299C11.3446 3.77299 11.6107 4.0419 11.6107 4.37243V5.41445C11.6107 5.74498 11.3446 6.01389 11.0141 6.01389ZM12.1233 5.41445C12.1233 5.74498 12.3894 6.01389 12.7199 6.01389C13.0505 6.01389 13.3194 5.74498 13.3166 5.41445V4.37243C13.3166 4.0419 13.0477 3.77299 12.7199 3.77299C12.3922 3.77299 12.1233 4.0419 12.1233 4.37243V5.41445ZM14.4258 6.01389C14.0953 6.01389 13.8292 5.74498 13.8292 5.41445V4.37243C13.8292 4.0419 14.0981 3.77299 14.4258 3.77299C14.7564 3.77299 15.0225 4.0419 15.0225 4.37243V5.41445C15.0253 5.74498 14.7564 6.01389 14.4258 6.01389ZM14.3558 13.9187C14.3558 14.899 14.0253 15.6021 13.3754 16.0055L13.1877 16.1203V16.5545C13.1877 16.6553 13.1737 16.7926 13.0953 16.8626C13.0085 16.9411 12.8572 16.9579 12.7424 16.9579H11.0477C10.8852 16.9579 10.762 16.9271 10.6891 16.8598C10.6247 16.8038 10.5939 16.703 10.5939 16.5545V16.1231L10.4034 16.0055C9.75636 15.6049 9.42582 14.899 9.42582 13.9018C9.42582 11.689 11.0449 11.4397 11.7395 11.4369H11.7536C11.8348 11.4369 11.9216 11.4369 12.0029 11.4397C12.7087 11.4565 14.3558 11.731 14.3558 13.9187ZM12.0281 10.6413C12.5435 10.6525 15.1541 10.8654 15.1541 13.9187C15.1541 15.35 14.5575 16.1343 13.986 16.5573C13.986 17.0391 13.7928 17.3136 13.6303 17.4565C13.4118 17.6553 13.1121 17.759 12.7424 17.759H11.0477C10.6751 17.759 10.3754 17.6553 10.1569 17.4537C9.99725 17.3136 9.79837 17.0363 9.79837 16.5601C9.22694 16.1399 8.63031 15.3528 8.63031 13.9046C8.63031 10.8122 11.2185 10.6413 11.7367 10.6385C11.8172 10.6228 11.8826 10.6291 11.9463 10.6353H11.9463H11.9463H11.9463C11.9735 10.6379 12.0004 10.6405 12.0281 10.6413ZM11.1933 14.7926C11.297 14.7926 11.3978 14.7534 11.4762 14.675C11.6331 14.5181 11.6331 14.266 11.4762 14.1091L11.2438 13.8766L11.4762 13.6441C11.6303 13.4873 11.6303 13.2352 11.4762 13.0783C11.3222 12.9215 11.0673 12.9215 10.9132 13.0783L10.6807 13.3108L10.4482 13.0783C10.2942 12.9215 10.0393 12.9215 9.88521 13.0783C9.73115 13.2352 9.73115 13.4873 9.88521 13.6441L10.1177 13.8766L9.88521 14.1091C9.73115 14.266 9.73115 14.5181 9.88521 14.675C9.96084 14.7534 10.0645 14.7926 10.1653 14.7926C10.269 14.7926 10.3698 14.7534 10.4482 14.675L10.6807 14.4425L10.9132 14.675C10.9888 14.7534 11.0925 14.7926 11.1933 14.7926ZM13.6947 13.8766L13.9272 14.1091C14.0813 14.266 14.0813 14.5181 13.9272 14.675C13.8488 14.7534 13.748 14.7926 13.6443 14.7926C13.5435 14.7926 13.4398 14.7534 13.3642 14.675L13.1317 14.4425L12.8992 14.675C12.8208 14.7534 12.7199 14.7926 12.6163 14.7926C12.5155 14.7926 12.4118 14.7534 12.3362 14.675C12.1821 14.5181 12.1821 14.266 12.3362 14.1091L12.5687 13.8766L12.3362 13.6441C12.1821 13.4873 12.1821 13.2352 12.3362 13.0783C12.4903 12.9215 12.7452 12.9215 12.8992 13.0783L13.1317 13.3108L13.3642 13.0783C13.5183 12.9215 13.7732 12.9215 13.9272 13.0783C14.0813 13.2352 14.0813 13.4873 13.9272 13.6441L13.6947 13.8766ZM12.5855 15.5321L12.465 15.2492C12.381 15.0475 12.1457 14.9495 11.9468 15.0363C11.9258 15.0447 11.9095 15.0578 11.8933 15.071C11.8878 15.0753 11.8824 15.0797 11.8768 15.0839C11.8712 15.0797 11.8658 15.0753 11.8603 15.071C11.8441 15.0578 11.8278 15.0447 11.8068 15.0363C11.6079 14.9495 11.3698 15.0447 11.2858 15.2492L11.1653 15.5321C11.0785 15.7338 11.1737 15.9691 11.3754 16.0559C11.423 16.0755 11.479 16.0867 11.5295 16.0867C11.6723 16.0867 11.804 16.0027 11.874 15.8682C11.944 16.0027 12.0757 16.0867 12.2185 16.0867C12.2718 16.0867 12.325 16.0783 12.3754 16.0559C12.5771 15.9691 12.6723 15.7366 12.5855 15.5321Z" fill="#313235"/>
</svg>
