<svg width="24" height="24" fill="none" xmlns="http://www.w3.org/2000/svg"><path fill-rule="evenodd" clip-rule="evenodd" d="M16.733 6.72c1.185.583 1.83 1.768 1.83 3.398l-.01 7.924c0 2.381-1.408 3.804-3.764 3.804H9.223c-1.16 0-2.081-.325-2.745-.969-.689-.67-1.039-1.622-1.039-2.835v-7.924c0-1.213.35-2.165 1.048-2.835.21-.204.456-.367.72-.507a1.412 1.412 0 0 1-.029-.269V3.583c0-.784.636-1.42 1.418-1.42h6.742c.782 0 1.418.639 1.418 1.42v2.924c0 .073-.012.143-.023.213Zm-8.361-.215V3.58c0-.12.1-.221.221-.221h6.742a.22.22 0 0 1 .222.221v2.925a.222.222 0 0 1-.222.224H8.593a.222.222 0 0 1-.221-.224Zm8.756 12.829c-.358.865-1.134 1.313-2.339 1.313v.003H9.22c-.837 0-1.479-.213-1.913-.633a2.023 2.023 0 0 1-.44-.683h10.261Zm.163-9.997c-.157-.796-.575-1.334-1.25-1.603-.207.12-.448.196-.706.196H8.593c-.238 0-.462-.064-.658-.17-.236.1-.451.224-.625.389-.302.291-.496.697-.597 1.188h10.578Zm-10.656 8.75a.47.47 0 0 1-.003-.045v-7.504h10.734l-.008 7.507c0 .016-.002.03-.003.045l-.003.045H6.638a.506.506 0 0 0-.003-.048ZM8.809 5.575a.598.598 0 1 0 1.193 0V4.533a.6.6 0 0 0-.597-.6.6.6 0 0 0-.596.6v1.042Zm2.305.6a.598.598 0 0 1-.597-.6V4.533a.598.598 0 1 1 1.193 0v1.042c0 .33-.265.6-.596.6Zm1.11-.6a.598.598 0 1 0 1.193 0V4.533a.6.6 0 0 0-.597-.6.6.6 0 0 0-.597.6v1.042Zm2.302.6a.598.598 0 0 1-.597-.6V4.533a.6.6 0 0 1 .597-.6c.33 0 .596.27.596.6v1.042c.003.33-.266.6-.596.6Zm-.07 7.904c0 .98-.33 1.683-.98 2.087l-.188.114v.435c0 .1-.014.238-.093.308-.087.078-.238.095-.353.095h-1.694c-.163 0-.286-.03-.359-.098-.064-.056-.095-.157-.095-.305v-.432l-.19-.117c-.648-.4-.978-1.107-.978-2.104 0-2.213 1.619-2.462 2.313-2.465h.014c.082 0 .169 0 .25.003.706.017 2.353.291 2.353 2.479Zm-2.328-3.277c.515.01 3.126.224 3.126 3.277 0 1.431-.596 2.215-1.168 2.639 0 .481-.193.756-.356.899-.218.198-.518.302-.888.302h-1.694c-.373 0-.673-.104-.891-.305-.16-.14-.359-.418-.359-.894-.571-.42-1.168-1.207-1.168-2.655 0-3.093 2.588-3.263 3.107-3.266.08-.016.146-.01.21-.004.026.003.053.006.081.007Zm-.835 4.15a.399.399 0 0 0 .283-.684l-.232-.231.232-.233a.404.404 0 0 0 0-.566.396.396 0 0 0-.563 0l-.232.233-.233-.232a.396.396 0 0 0-.563 0 .404.404 0 0 0 0 .565l.233.233-.233.232a.404.404 0 0 0 0 .566.397.397 0 0 0 .563 0l.233-.232.232.232a.39.39 0 0 0 .28.118Zm2.502-.915.232.232a.404.404 0 0 1 0 .566.397.397 0 0 1-.563 0l-.232-.232-.233.232a.397.397 0 0 1-.563 0 .404.404 0 0 1 0-.566l.233-.232-.233-.233a.404.404 0 0 1 0-.566.396.396 0 0 1 .563 0l.233.233.232-.232a.396.396 0 0 1 .563 0 .404.404 0 0 1 0 .565l-.232.233Zm-1.11 1.655-.12-.283a.395.395 0 0 0-.518-.213.21.21 0 0 0-.054.035l-.016.013a.524.524 0 0 1-.017-.013c-.016-.013-.032-.026-.053-.034a.396.396 0 0 0-.521.212l-.12.283a.4.4 0 0 0 .363.555.392.392 0 0 0 .345-.219.392.392 0 0 0 .501.188.4.4 0 0 0 .21-.524Z" fill="#313235"/></svg>