<svg width="24" height="24" viewBox="0 0 24 24" fill="none" xmlns="http://www.w3.org/2000/svg">
<path fill-rule="evenodd" clip-rule="evenodd" d="M16.633 6.56023C17.8179 7.14286 18.4621 8.32774 18.4621 9.95799L18.4537 17.8824C18.4537 20.2633 17.0447 21.6863 14.689 21.6863H9.12318C7.96352 21.6863 7.04195 21.3614 6.37808 20.7171C5.68901 20.0476 5.33887 19.0952 5.33887 17.8824V9.95799C5.33887 8.7451 5.68901 7.79272 6.38649 7.12326C6.59657 6.91877 6.84307 6.75631 7.10637 6.61625C7.08957 6.52942 7.07836 6.43978 7.07836 6.34735V3.42298C7.07836 2.63866 7.71422 2.00281 8.49573 2.00281H15.238C16.0195 2.00281 16.6554 2.64146 16.6554 3.42298V6.34735C16.6554 6.42017 16.6442 6.4902 16.633 6.56023ZM8.27164 6.34454V3.42017C8.27164 3.29973 8.37248 3.19889 8.49293 3.19889H15.2352C15.3585 3.19889 15.4565 3.29693 15.4565 3.42017V6.34454C15.4565 6.46779 15.3585 6.56863 15.2352 6.56863H8.49293C8.36968 6.56863 8.27164 6.46779 8.27164 6.34454ZM17.0279 19.1737C16.6694 20.0392 15.8935 20.4874 14.689 20.4874V20.4902H9.12038C8.28285 20.4902 7.64139 20.2773 7.20721 19.8571C7.01954 19.6723 6.87668 19.4398 6.76744 19.1737H17.0279ZM17.1904 9.17648C17.0335 8.38096 16.6162 7.84314 15.9411 7.57424C15.7338 7.69468 15.4929 7.77031 15.2352 7.77031H8.49293C8.25483 7.77031 8.03074 7.70589 7.83467 7.59945C7.59937 7.70029 7.38369 7.82354 7.21002 7.9888C6.90749 8.28012 6.71422 8.68628 6.61338 9.17648H17.1904ZM6.53485 17.9265C6.53348 17.9118 6.53214 17.8974 6.53214 17.8824V10.3782H17.266L17.2576 17.8852C17.2576 17.9006 17.2562 17.9153 17.2548 17.93L17.2548 17.93C17.2534 17.9447 17.252 17.9594 17.252 17.9748H6.53775C6.53775 17.9576 6.53628 17.9419 6.53485 17.9265ZM8.70862 5.41457C8.70862 5.7451 8.97472 6.01401 9.30525 6.01401C9.63579 6.01401 9.90469 5.7451 9.90189 5.41457V4.37256C9.90189 4.04202 9.63298 3.77312 9.30525 3.77312C8.97752 3.77312 8.70862 4.04202 8.70862 4.37256V5.41457ZM11.0139 6.01401C10.6834 6.01401 10.4173 5.7451 10.4173 5.41457V4.37256C10.4173 4.04202 10.6862 3.77312 11.0139 3.77312C11.3445 3.77312 11.6106 4.04202 11.6106 4.37256V5.41457C11.6106 5.7451 11.3445 6.01401 11.0139 6.01401ZM12.1232 5.41457C12.1232 5.7451 12.3893 6.01401 12.7198 6.01401C13.0504 6.01401 13.3193 5.7451 13.3165 5.41457V4.37256C13.3165 4.04202 13.0476 3.77312 12.7198 3.77312C12.3921 3.77312 12.1232 4.04202 12.1232 4.37256V5.41457ZM14.4257 6.01401C14.0952 6.01401 13.8291 5.7451 13.8291 5.41457V4.37256C13.8291 4.04202 14.098 3.77312 14.4257 3.77312C14.7562 3.77312 15.0223 4.04202 15.0223 4.37256V5.41457C15.0251 5.7451 14.7562 6.01401 14.4257 6.01401ZM14.3557 13.9188C14.3557 14.8992 14.0251 15.6022 13.3753 16.0056L13.1876 16.1205V16.5546C13.1876 16.6555 13.1736 16.7927 13.0952 16.8628C13.0083 16.9412 12.8571 16.958 12.7422 16.958H11.0476C10.8851 16.958 10.7618 16.9272 10.689 16.86C10.6246 16.8039 10.5938 16.7031 10.5938 16.5546V16.1233L10.4033 16.0056C9.75623 15.605 9.4257 14.8992 9.4257 13.902C9.4257 11.6891 11.0447 11.4398 11.7394 11.437H11.7534C11.8347 11.437 11.9215 11.437 12.0027 11.4398C12.7086 11.4566 14.3557 11.7311 14.3557 13.9188ZM12.0279 10.6415C12.5433 10.6527 15.154 10.8656 15.154 13.9188C15.154 15.3501 14.5574 16.1345 13.9859 16.5574C13.9859 17.0392 13.7926 17.3137 13.6302 17.4566C13.4117 17.6555 13.112 17.7591 12.7422 17.7591H11.0476C10.675 17.7591 10.3753 17.6555 10.1568 17.4538C9.99713 17.3137 9.79825 17.0364 9.79825 16.5602C9.22682 16.1401 8.63018 15.3529 8.63018 13.9048C8.63018 10.8123 11.2184 10.6415 11.7366 10.6387C11.8171 10.623 11.8824 10.6293 11.9461 10.6354H11.9461H11.9462H11.9462C11.9734 10.638 12.0003 10.6406 12.0279 10.6415ZM11.1932 14.7927C11.2969 14.7927 11.3977 14.7535 11.4761 14.6751C11.633 14.5182 11.633 14.2661 11.4761 14.1093L11.2436 13.8768L11.4761 13.6443C11.6302 13.4874 11.6302 13.2353 11.4761 13.0784C11.3221 12.9216 11.0672 12.9216 10.9131 13.0784L10.6806 13.3109L10.4481 13.0784C10.294 12.9216 10.0391 12.9216 9.88509 13.0784C9.73102 13.2353 9.73102 13.4874 9.88509 13.6443L10.1176 13.8768L9.88509 14.1093C9.73102 14.2661 9.73102 14.5182 9.88509 14.6751C9.96072 14.7535 10.0644 14.7927 10.1652 14.7927C10.2688 14.7927 10.3697 14.7535 10.4481 14.6751L10.6806 14.4426L10.9131 14.6751C10.9887 14.7535 11.0924 14.7927 11.1932 14.7927ZM13.6946 13.8768L13.9271 14.1093C14.0812 14.2661 14.0812 14.5182 13.9271 14.6751C13.8487 14.7535 13.7478 14.7927 13.6442 14.7927C13.5433 14.7927 13.4397 14.7535 13.3641 14.6751L13.1316 14.4426L12.8991 14.6751C12.8207 14.7535 12.7198 14.7927 12.6162 14.7927C12.5153 14.7927 12.4117 14.7535 12.3361 14.6751C12.182 14.5182 12.182 14.2661 12.3361 14.1093L12.5686 13.8768L12.3361 13.6443C12.182 13.4874 12.182 13.2353 12.3361 13.0784C12.4901 12.9216 12.745 12.9216 12.8991 13.0784L13.1316 13.3109L13.3641 13.0784C13.5181 12.9216 13.773 12.9216 13.9271 13.0784C14.0812 13.2353 14.0812 13.4874 13.9271 13.6443L13.6946 13.8768ZM12.5854 15.5322L12.4649 15.2493C12.3809 15.0476 12.1456 14.9496 11.9467 15.0364C11.9257 15.0448 11.9094 15.058 11.8931 15.0711C11.8877 15.0755 11.8823 15.0798 11.8767 15.084C11.8711 15.0798 11.8657 15.0755 11.8602 15.0711C11.8439 15.058 11.8277 15.0448 11.8067 15.0364C11.6078 14.9496 11.3697 15.0448 11.2856 15.2493L11.1652 15.5322C11.0784 15.7339 11.1736 15.9692 11.3753 16.056C11.4229 16.0756 11.4789 16.0868 11.5293 16.0868C11.6722 16.0868 11.8039 16.0028 11.8739 15.8684C11.9439 16.0028 12.0756 16.0868 12.2184 16.0868C12.2716 16.0868 12.3249 16.0784 12.3753 16.056C12.577 15.9692 12.6722 15.7367 12.5854 15.5322Z" fill="#313235"/>
</svg>
