<svg xmlns="http://www.w3.org/2000/svg" width="24" height="24" fill="none" viewBox="0 0 24 24"><path fill="#000" d="M14.818 2.603a.75.75 0 0 1 1.06 0 5.5 5.5 0 0 1 .876 6.64 5.5 5.5 0 0 1 4.54 2.408 5.5 5.5 0 0 1 .946 2.874v.217a.75.75 0 0 1-1.5 0v-.195a4 4 0 0 0-6.078-3.22c.055.219.088.444.088.673 0 .73-.29 1.429-.806 1.945a2.75 2.75 0 0 1-1.197.699 4 4 0 0 0 3.998 4.101.75.75 0 1 1 0 1.5 5.5 5.5 0 0 1-4.748-2.727 5.5 5.5 0 0 1-4.535 2.727h-.217a.75.75 0 0 1 0-1.5h.183a4 4 0 0 0 3.812-3.802l.005-.193v-.108A2.75 2.75 0 0 1 9.25 12c0-.226.031-.449.085-.665a4 4 0 0 0-3.813-.2 4 4 0 0 0-2.277 3.61.75.75 0 0 1-1.5 0 5.5 5.5 0 0 1 3.131-4.964 5.5 5.5 0 0 1 2.356-.533 5.5 5.5 0 0 1-.57-4.117 5.5 5.5 0 0 1 1.25-2.329l.012-.015.164-.172a.75.75 0 0 1 1.086 1.036l-.15.157-.159.185a4 4 0 0 0 1.234 6.023A2.75 2.75 0 0 1 12 9.25a2.75 2.75 0 0 1 1.895.761 4 4 0 0 0 2.008-2.683 4 4 0 0 0-1.084-3.665.75.75 0 0 1 0-1.06M12 10.75a1.25 1.25 0 0 0-.884 2.134c.22.22.514.347.824.362q.027-.002.055-.004h.06l.04.002A1.25 1.25 0 0 0 13.25 12c0-.236-.069-.466-.192-.663l-.032-.049A1.25 1.25 0 0 0 12 10.75"/></svg>