<svg xmlns="http://www.w3.org/2000/svg" width="24" height="24" fill="none"><path fill="#313235" d="M11.995 2.155c6.44 0 9.846 3.403 9.846 9.846 0 6.437-3.403 9.84-9.846 9.84-6.44 0-9.84-3.403-9.84-9.84 0-6.443 3.403-9.846 9.84-9.846Zm0 18.479c5.732 0 8.639-2.905 8.639-8.633 0-5.731-2.905-8.639-8.639-8.639-5.728 0-8.633 2.908-8.633 8.639 0 5.728 2.905 8.633 8.633 8.633Zm3.247-3.69a.405.405 0 0 0-.404-.402h-4.72c.819-.872 1.115-1.628 1.115-2.69 0-.498-.067-1.014-.198-1.54h2.109c.224 0 .403-.18.403-.403v-.398a.404.404 0 0 0-.403-.404h-2.476c-.171-.574-.325-1.218-.325-1.86 0-1.456.764-2.134 2.403-2.134.524 0 1.188.073 1.871.202a.402.402 0 0 0 .476-.398V6.55a.406.406 0 0 0-.283-.387c-.728-.224-1.652-.305-2.224-.305-2.249 0-3.54 1.241-3.54 3.4 0 .71.14 1.387.302 1.93l-.66.045a.406.406 0 0 0-.376.404v.271c0 .225.18.404.403.404h.997c.169.563.244 1.045.244 1.527 0 .745-.168 1.341-1.04 2.182-.464.445-.697.672-.697 1.117 0 .163.031.303.093.423a.4.4 0 0 0 .358.219h6.168c.225 0 .404-.18.404-.404v-.431Z"/></svg>