<svg width="24" height="24" viewBox="0 0 24 24" fill="none" xmlns="http://www.w3.org/2000/svg">
<path fill-rule="evenodd" clip-rule="evenodd" d="M12.0002 2.16003C18.44 2.16003 21.8462 5.5634 21.8462 12.006C21.8462 18.4429 18.4428 21.8463 12.0002 21.8463C5.56327 21.8463 2.15991 18.4429 2.15991 12.006C2.15991 5.5634 5.56327 2.16003 12.0002 2.16003ZM12.0002 20.639C17.7313 20.639 20.6389 17.7343 20.6389 12.006C20.6389 6.27488 17.7341 3.36732 12.0002 3.36732C6.27196 3.36732 3.3672 6.27488 3.3672 12.006C3.3672 17.7343 6.27196 20.639 12.0002 20.639ZM12.6501 4.80709C12.6501 4.47376 12.3784 4.20205 12.0451 4.20205C11.7117 4.20205 11.4428 4.47376 11.44 4.80709V7.8323C11.44 8.16844 11.7089 8.43735 12.0451 8.43735C12.3812 8.43735 12.6501 8.16564 12.6501 7.8323V4.80709ZM8.43442 11.9612C8.43442 12.2945 8.16271 12.5662 7.82938 12.5662H4.80417C4.47084 12.5662 4.19913 12.2973 4.19913 11.9612C4.19913 11.625 4.46804 11.3561 4.80417 11.3561H7.82938C8.16551 11.3589 8.43442 11.6278 8.43442 11.9612ZM9.45123 14.4962C9.21593 14.2609 8.83218 14.2609 8.59689 14.4962L6.45963 16.6334C6.22434 16.8687 6.22434 17.2525 6.45963 17.4878L6.46243 17.4906C6.69773 17.7231 7.07868 17.7231 7.31397 17.4878L9.45123 15.3505C9.68652 15.1152 9.68652 14.7315 9.45123 14.4962ZM11.961 15.5718C12.2944 15.5718 12.5633 15.8435 12.5633 16.1768V19.1992C12.5521 19.5326 12.272 19.7931 11.9386 19.7791C11.6221 19.7679 11.37 19.513 11.3588 19.1992V16.1768C11.3588 15.8435 11.6277 15.5718 11.961 15.5718ZM17.4876 16.695L15.3504 14.5578C15.3448 14.5522 15.3392 14.5459 15.3336 14.5396L15.3254 14.5305C15.3225 14.5273 15.3197 14.5243 15.3168 14.5214C15.0703 14.2945 14.6893 14.3085 14.4624 14.555C14.2355 14.8015 14.2495 15.1824 14.496 15.4093L16.6361 17.5494C16.8658 17.7623 17.2215 17.7623 17.454 17.5494C17.6977 17.3225 17.7145 16.9415 17.4876 16.695ZM19.1991 11.4429C19.5325 11.4542 19.793 11.7343 19.779 12.0676C19.7678 12.3841 19.5129 12.6362 19.1991 12.6474H16.1739C15.8406 12.6362 15.5801 12.3561 15.5941 12.0228C15.6053 11.7063 15.8602 11.4542 16.1739 11.4429H19.1991ZM14.3784 9.0844C14.3812 9.41774 14.6501 9.68664 14.9834 9.68664C15.1431 9.68664 15.2972 9.62222 15.4092 9.51017L17.5465 7.37012C17.7818 7.13202 17.7818 6.75107 17.5465 6.51578C17.3112 6.28048 16.9274 6.28048 16.6921 6.51578L14.5549 8.65583C14.4428 8.76788 14.3784 8.92474 14.3784 9.0844Z" fill="#313235"/>
</svg>
