<svg width="24" height="24" viewBox="0 0 24 24" fill="none" xmlns="http://www.w3.org/2000/svg">
<path fill-rule="evenodd" clip-rule="evenodd" d="M3.61369 21.4156H16.1823C16.9806 21.4156 17.6305 20.7461 17.6305 19.9226V17.7069C17.8182 17.7293 17.9666 17.7349 18.0506 17.7377C18.1683 17.7377 18.2887 17.7349 18.3336 17.7293C19.9526 17.7069 21.8462 16.7153 21.8462 13.9954C21.8462 11.3063 20.031 10.2951 18.3336 10.2447H18.0338C17.9386 10.2447 17.7985 10.2475 17.6305 10.2671V8.35956C17.6305 7.53884 16.9834 6.86937 16.1851 6.86937H13.5212C13.5408 6.6873 13.5521 6.49682 13.5521 6.30074C13.5521 3.60607 11.7341 2.59767 10.0198 2.55005H9.72853C8.04226 2.57246 6.23834 3.56405 6.23834 6.28394C6.23834 6.48562 6.24954 6.6817 6.26915 6.87217H3.61369C2.81257 6.87217 2.15991 7.53884 2.15991 8.36237V10.903C2.15991 11.0851 2.23274 11.2559 2.36439 11.3764C2.49324 11.494 2.66131 11.5528 2.84338 11.5332C2.94135 11.5213 3.02504 11.5175 3.08231 11.5149C3.09217 11.5144 3.10126 11.514 3.10949 11.5136H3.3756L3.38395 11.514C3.50386 11.52 3.83854 11.5365 4.21593 11.6705C5.19912 11.9786 5.69492 12.7629 5.69492 13.9982C5.69492 15.2307 5.19632 16.0122 4.20473 16.3287C3.84338 16.452 3.52686 16.466 3.34759 16.4688C3.29717 16.4744 3.23834 16.4744 3.18512 16.4744H3.14871C3.07588 16.4716 2.97224 16.4632 2.85179 16.4492C2.67252 16.424 2.49885 16.4828 2.36719 16.6032C2.23554 16.7265 2.15991 16.8974 2.15991 17.0794V19.9254C2.15991 20.7461 2.81257 21.4156 3.61369 21.4156ZM3.39801 19.9226V17.7321C3.40361 17.7321 3.40641 17.7321 3.41481 17.7377C3.6361 17.7377 4.08428 17.7125 4.58568 17.5416C5.46243 17.2615 6.93582 16.4296 6.93582 14.001C6.93582 11.564 5.46243 10.7377 4.60529 10.466C4.06747 10.2755 3.58848 10.2531 3.40641 10.2475L3.40081 8.36237C3.40081 8.23912 3.49604 8.13828 3.61649 8.13828H7.03105C7.22713 8.13828 7.41201 8.04024 7.52965 7.87777C7.6445 7.71531 7.67811 7.50522 7.61929 7.31195C7.52405 7.00663 7.47643 6.66209 7.47643 6.28114C7.47643 4.16349 8.8966 3.82736 9.73693 3.81615H10.003C10.8658 3.83856 12.314 4.1943 12.314 6.30074C12.314 6.67329 12.2663 7.00382 12.1711 7.31195C12.1095 7.50522 12.1431 7.71531 12.2607 7.87777C12.3756 8.04304 12.5605 8.13828 12.7593 8.13828H16.1823C16.2971 8.13828 16.3896 8.23912 16.3896 8.36237V11.0486C16.3896 11.2531 16.482 11.4436 16.6417 11.5612C16.8041 11.6817 17.0114 11.7153 17.1963 11.6537C17.5717 11.5304 17.905 11.5164 18.031 11.5164H18.3055C19.1683 11.5416 20.6081 11.903 20.6081 13.9982C20.6081 16.1943 19.003 16.4548 18.2607 16.4688C18.1991 16.4744 18.1235 16.4744 18.0703 16.4744C17.8602 16.466 17.5436 16.4408 17.2075 16.3231C17.017 16.2587 16.8098 16.2867 16.6473 16.4072C16.4848 16.5248 16.3896 16.7181 16.3896 16.9226V19.9226C16.3896 20.043 16.2971 20.1439 16.1823 20.1439H3.61369C3.49324 20.1439 3.39801 20.0458 3.39801 19.9226Z" fill="#313235"/>
</svg>
