<svg xmlns="http://www.w3.org/2000/svg" width="24" height="24" fill="none"><path fill="#313235" d="M23 12.028C23 1.782 14.21 1.053 12.448 1.012c-.307-.01-.673-.016-.999-.01C9.702 1.019 1 1.613 1 11.969c0 10.355 8.762 11.006 10.518 11.028a41.152 41.152 0 0 0 .964-.003C14.242 22.962 23 22.283 23 12.028Zm-1.345 0c0 8.772-7.037 9.58-9.194 9.62a22.31 22.31 0 0 1-.923.006c-2.157-.031-9.191-.82-9.191-9.685 0-8.856 6.974-9.6 9.112-9.623.316-.003.664.003.958.01 2.166.053 9.238.904 9.238 9.672Zm-10.147 5.058c.592 0 .977.388.977.946 0 .622-.379.995-.942.995-.601 0-.977-.373-.977-.923v-.072c.003-.558.388-.946.942-.946ZM15.61 8.34c0-1.127-.366-1.92-1.146-2.495-.607-.46-1.446-.692-2.497-.689-1 0-2.035.207-2.458.407a.448.448 0 0 0-.247.488l.072.382.003.014.003.015a.45.45 0 0 0 .545.322 7.188 7.188 0 0 1 1.862-.244c1.155 0 1.578.222 1.82.413.419.335.597.742.597 1.365 0 .876-.297 1.396-1.869 3.255l-.181.22c-.955 1.148-1.38 1.865-1.38 3.077a3.55 3.55 0 0 0 .062.707.452.452 0 0 0 .441.363h.495c.247 0 .447-.2.447-.447 0-1.616.06-1.684 1.556-3.416 1.306-1.54 1.875-2.36 1.875-3.737Z"/></svg>