<svg width="24" height="24" viewBox="0 0 24 24" fill="none" xmlns="http://www.w3.org/2000/svg">
<path fill-rule="evenodd" clip-rule="evenodd" d="M20.2297 4.52246C21.0336 4.52246 21.6863 5.15271 21.6863 5.92582V17.8838C21.6863 18.6569 21.0336 19.2872 20.2297 19.2872H3.45658C2.65266 19.2872 2 18.6569 2 17.8838V5.92582C2 5.15271 2.65266 4.52246 3.45658 4.52246H20.2297ZM3.22969 5.92582C3.22969 5.80537 3.33053 5.70733 3.45658 5.70733H20.2297C20.3557 5.70733 20.4566 5.80537 20.4566 5.92582V7.65691H3.22969V5.92582ZM20.4566 17.8866C20.4566 18.0071 20.3557 18.1051 20.2297 18.1051V18.1023H3.45658C3.33053 18.1023 3.22969 18.0043 3.22969 17.8838V8.84179H20.4566V17.8866ZM5.60224 6.60089C5.60224 6.90341 5.85714 7.14991 6.17087 7.14991C6.48739 7.14991 6.7395 6.90341 6.7395 6.60089C6.7395 6.29837 6.48739 6.05187 6.17087 6.05187C5.85714 6.05187 5.60224 6.29837 5.60224 6.60089ZM7.88235 7.14991C7.56583 7.14991 7.31373 6.90341 7.31373 6.60089C7.31373 6.29837 7.56863 6.05187 7.88235 6.05187C8.19888 6.05187 8.45098 6.29837 8.45098 6.60089C8.45098 6.90341 8.19608 7.14991 7.88235 7.14991ZM3.89356 6.60089C3.89356 6.90341 4.14566 7.14991 4.46218 7.14991C4.77591 7.14991 5.03081 6.90341 5.03081 6.60089C5.03081 6.29837 4.77871 6.05187 4.46218 6.05187C4.14846 6.05187 3.89356 6.29837 3.89356 6.60089ZM12.7927 13.1303L13.2073 12.7241L12.6611 12.6457C12.4062 12.6065 12.1765 12.444 12.0644 12.2199L11.8431 11.7662L11.6218 12.2143C11.5098 12.4412 11.2773 12.6093 11.0196 12.6457L10.479 12.7241L10.8936 13.1275C11.07 13.2984 11.1541 13.5617 11.112 13.797L11.0196 14.332L11.465 14.0995C11.5798 14.0379 11.7115 14.0043 11.8431 14.0043C11.9692 14.0043 12.0952 14.0351 12.2045 14.0911L12.6667 14.3348L12.5742 13.7998C12.535 13.5617 12.619 13.3012 12.7927 13.1303ZM14.2129 12.3964C14.1485 12.2115 13.9888 12.0799 13.7955 12.0519L12.7731 11.9034C12.7688 11.9034 12.7662 11.9001 12.7639 11.8974L12.7619 11.895L12.3081 10.9706C12.2213 10.7914 12.042 10.6793 11.8403 10.6793C11.6387 10.6793 11.4594 10.7914 11.3725 10.9706L10.916 11.895C10.9132 11.8978 10.9076 11.9034 10.9048 11.9034L9.88796 12.0519C9.69468 12.0799 9.53501 12.2115 9.47059 12.3964C9.40336 12.5897 9.45098 12.7942 9.59664 12.937L10.3333 13.6569C10.3389 13.6625 10.3417 13.6681 10.3389 13.6765L10.1653 14.6933C10.1317 14.895 10.2129 15.0939 10.3838 15.2087C10.4734 15.2676 10.577 15.2984 10.6807 15.2984C10.7647 15.2984 10.8515 15.2788 10.9272 15.2395L11.8375 14.7606C11.8391 14.7589 11.8398 14.7583 11.8407 14.758C11.8413 14.7578 11.8419 14.7578 11.8431 14.7578C11.8445 14.7578 11.8452 14.7585 11.8459 14.7592C11.8466 14.7599 11.8473 14.7606 11.8487 14.7606L12.7591 15.2395C12.8375 15.2788 12.9216 15.2984 13.0056 15.2984C13.1092 15.2984 13.2101 15.2704 13.2997 15.2087C13.4678 15.0911 13.5518 14.895 13.5182 14.6933L13.3445 13.6765C13.3417 13.6709 13.3445 13.6625 13.3501 13.6569L14.0868 12.937C14.2297 12.7942 14.2773 12.5869 14.2129 12.3964ZM18.4006 13.1303L18.8151 12.7241L18.2689 12.6457C18.0084 12.6065 17.7787 12.4384 17.6667 12.2087L17.4482 11.7662L17.2269 12.2143C17.1148 12.4412 16.8824 12.6093 16.6247 12.6457L16.084 12.7241L16.4986 13.1275C16.6723 13.2984 16.7591 13.5617 16.7171 13.797L16.6247 14.332L17.07 14.0995C17.1849 14.0379 17.3193 14.0043 17.4482 14.0043C17.5714 14.0043 17.7003 14.0351 17.8123 14.0911L18.2745 14.3348L18.1821 13.7998C18.1429 13.5617 18.2269 13.3012 18.4006 13.1303ZM19.8207 12.3964C19.7563 12.2115 19.5966 12.0799 19.4034 12.0519L18.3838 11.9034C18.3795 11.9034 18.3768 11.9001 18.3746 11.8974L18.3725 11.895L17.9188 10.9706C17.8291 10.7914 17.6499 10.6793 17.4482 10.6793C17.2493 10.6793 17.0672 10.7914 16.9804 10.9706L16.5266 11.895L16.5266 11.895C16.5238 11.8978 16.5182 11.9034 16.5154 11.9034L15.4986 12.0519C15.3053 12.0799 15.1457 12.2115 15.0812 12.3964C15.014 12.5897 15.0644 12.7942 15.2073 12.937L15.944 13.6569C15.9496 13.6625 15.9524 13.6681 15.9496 13.6765L15.7759 14.6933C15.7423 14.895 15.8235 15.0939 15.9944 15.2087C16.084 15.2676 16.1877 15.2984 16.2913 15.2984C16.3754 15.2984 16.4594 15.2788 16.5378 15.2395L17.4482 14.7606C17.4482 14.7578 17.4482 14.7578 17.451 14.7578C17.4524 14.7578 17.4531 14.7585 17.4538 14.7592C17.4545 14.7599 17.4552 14.7606 17.4566 14.7606L18.3669 15.2395C18.4454 15.2788 18.5294 15.2984 18.6134 15.2984C18.7171 15.2984 18.8179 15.2704 18.9076 15.2087C19.0756 15.0911 19.1597 14.895 19.1261 14.6933L18.9524 13.6765C18.9496 13.6709 18.9524 13.6625 18.958 13.6569L19.6947 12.937C19.8375 12.7942 19.8852 12.5869 19.8207 12.3964ZM7.18487 13.1303L7.59944 12.7241L7.05322 12.6457C6.79832 12.6065 6.56863 12.444 6.45658 12.2199L6.23529 11.7662L6.01401 12.2143C5.90196 12.4412 5.66947 12.6093 5.41176 12.6457L4.86835 12.7241L5.28291 13.1275C5.45658 13.2984 5.54342 13.5617 5.5014 13.797L5.41176 14.332L5.85714 14.0995C5.97199 14.0379 6.10644 14.0043 6.23529 14.0043C6.36134 14.0043 6.48739 14.0351 6.59944 14.0911L7.06162 14.3348L6.96919 13.7998C6.92717 13.5617 7.0112 13.3012 7.18487 13.1303ZM8.60504 12.3964C8.54062 12.2115 8.38095 12.0799 8.18768 12.0519L7.16247 11.9034C7.15819 11.9034 7.15554 11.9001 7.15328 11.8974C7.15258 11.8965 7.15192 11.8957 7.15126 11.895L6.69748 10.9706C6.60784 10.7914 6.42857 10.6793 6.22689 10.6793C6.02801 10.6793 5.84594 10.7914 5.7591 10.9706L5.30532 11.895C5.30252 11.8978 5.29692 11.9034 5.29412 11.9034L4.27731 12.0519C4.08403 12.0799 3.92437 12.2115 3.85994 12.3964C3.79272 12.5897 3.84314 12.7942 3.98599 12.937L4.72269 13.6569C4.72829 13.6625 4.72829 13.6681 4.72829 13.6765L4.55462 14.6933C4.52101 14.895 4.60224 15.0939 4.77311 15.2087C4.86275 15.2676 4.96639 15.2984 5.07003 15.2984C5.15406 15.2984 5.2409 15.2788 5.31653 15.2395L6.22689 14.7606C6.22689 14.7592 6.22689 14.7585 6.22724 14.7581C6.22759 14.7578 6.22829 14.7578 6.22969 14.7578C6.23109 14.7578 6.23179 14.7585 6.23249 14.7592C6.23319 14.7599 6.23389 14.7606 6.23529 14.7606L7.14566 15.2395C7.22409 15.2788 7.30812 15.2984 7.39216 15.2984C7.4958 15.2984 7.59944 15.2704 7.68627 15.2087C7.85714 15.0911 7.94118 14.895 7.90756 14.6933L7.73389 13.6765C7.73109 13.6709 7.73389 13.6625 7.7395 13.6569L8.47619 12.937C8.62185 12.7942 8.66947 12.5869 8.60504 12.3964Z" fill="#313235"/>
</svg>
