<svg width="24" height="24" fill="none" xmlns="http://www.w3.org/2000/svg"><path d="M20.385 4.622c.804 0 1.456.63 1.456 1.404v11.958c0 .773-.652 1.403-1.456 1.403H3.612c-.804 0-1.457-.63-1.457-1.403V6.026c0-.773.653-1.404 1.457-1.404h16.773Zm-17 1.404v1.73h17.227v-1.73c0-.12-.101-.219-.227-.219H3.612a.222.222 0 0 0-.227.219Zm17.227 11.96V8.943H3.385v9.042c0 .12.1.218.227.218h16.773v.003a.222.222 0 0 0 .227-.218ZM5.757 6.702a.56.56 0 0 0 .569.549.558.558 0 0 0 .569-.55.558.558 0 0 0-.57-.548.56.56 0 0 0-.568.549Zm2.28.549a.558.558 0 0 1-.568-.55.56.56 0 0 1 .568-.548c.317 0 .569.246.569.549a.56.56 0 0 1-.569.549ZM4.05 6.7c0 .303.252.55.568.55a.56.56 0 0 0 .569-.55.558.558 0 0 0-.569-.548.56.56 0 0 0-.568.549Zm8.899 6.53a.782.782 0 0 0-.219.67l.093.535-.462-.244a.798.798 0 0 0-.74.008l-.445.233.092-.535a.769.769 0 0 0-.218-.67l-.415-.403.54-.078a.808.808 0 0 0 .603-.432l.221-.448.222.454a.81.81 0 0 0 .596.426l.546.078-.414.406Zm1.42-.734a.52.52 0 0 0-.418-.344l-1.022-.149c-.004 0-.007-.003-.009-.006l-.002-.002-.454-.924a.516.516 0 0 0-.468-.292.515.515 0 0 0-.467.292l-.457.924c-.003.003-.008.008-.011.008l-1.017.149a.52.52 0 0 0-.291.885l.736.72c.006.005.009.011.006.02l-.174 1.016c-.033.202.048.4.219.516a.543.543 0 0 0 .543.03l.91-.479.004-.002h.002l.003.001s.001.002.003.002l.91.478a.55.55 0 0 0 .247.06.519.519 0 0 0 .513-.605l-.174-1.017c-.003-.006 0-.014.005-.02l.737-.72a.523.523 0 0 0 .126-.54Zm4.188.734a.782.782 0 0 0-.219.67l.093.535-.463-.244a.813.813 0 0 0-.742.008l-.445.233.092-.535a.777.777 0 0 0-.218-.67l-.415-.403.54-.078a.808.808 0 0 0 .603-.432l.221-.448.219.443a.81.81 0 0 0 .602.437l.546.078-.414.406Zm1.42-.734a.52.52 0 0 0-.418-.344l-1.02-.149c-.003 0-.006-.003-.008-.006l-.002-.002-.454-.924a.523.523 0 0 0-.939 0l-.453.924c-.003.003-.009.008-.012.008l-1.016.149a.52.52 0 0 0-.292.885l.737.72c.006.005.008.011.006.02l-.174 1.016c-.034.202.048.4.218.516a.543.543 0 0 0 .544.03l.91-.479c0-.002 0-.002.003-.002l.003.001s.001.002.003.002l.91.478a.55.55 0 0 0 .247.06.519.519 0 0 0 .513-.605l-.175-1.017c-.002-.006 0-.014.006-.02l.737-.72a.523.523 0 0 0 .126-.54ZM7.34 13.23a.772.772 0 0 0-.216.67l.093.535-.463-.244a.813.813 0 0 0-.742.008l-.445.233.09-.535a.777.777 0 0 0-.22-.67l-.414-.403.544-.078a.808.808 0 0 0 .602-.432l.221-.448.222.454a.81.81 0 0 0 .596.426l.546.078-.414.406Zm1.42-.734a.52.52 0 0 0-.417-.344l-1.026-.149c-.004 0-.006-.003-.009-.006l-.002-.002-.453-.924a.523.523 0 0 0-.939 0l-.454.924c-.002.003-.008.008-.01.008l-1.018.149a.52.52 0 0 0-.291.885l.737.72c.005.005.005.011.005.02l-.173 1.016c-.034.202.047.4.218.516a.543.543 0 0 0 .544.03l.91-.479v-.002h.003l.003.001s0 .002.002.002l.91.478a.55.55 0 0 0 .247.06.516.516 0 0 0 .515-.605l-.173-1.017c-.003-.006 0-.014.006-.02l.736-.72a.518.518 0 0 0 .13-.54Z" fill="#313235"/></svg>