<svg width="24" height="24" viewBox="0 0 24 24" fill="none" xmlns="http://www.w3.org/2000/svg">
<path fill-rule="evenodd" clip-rule="evenodd" d="M18.8854 20.7318H12.7453C11.8238 20.7318 11.0983 20.4825 10.5857 19.9895C10.0535 19.4769 9.78455 18.729 9.78455 17.771V6.21078C9.78455 5.2528 10.0535 4.5049 10.5857 3.9923C11.0955 3.4993 11.8238 3.25 12.7453 3.25H18.8882C19.8097 3.25 20.5352 3.4993 21.0478 3.9923C21.5801 4.5049 21.849 5.25 21.849 6.21078V17.771C21.849 18.729 21.5801 19.4769 21.0478 19.9895C20.5352 20.4825 19.8069 20.7318 18.8854 20.7318ZM12.7453 4.37045C11.4736 4.37045 10.905 4.93907 10.905 6.21078V17.771C10.905 19.0427 11.4736 19.6113 12.7453 19.6113H18.8882C20.1599 19.6113 20.7285 19.0427 20.7285 17.771V6.21078C20.7285 4.93907 20.1599 4.37045 18.8882 4.37045H12.7453ZM3.93022 20.7066H6.94982C8.05626 20.7066 8.71733 20.0427 8.72013 18.9363V12.9447C8.72013 11.8354 8.05906 11.1744 6.94982 11.1744H3.93022C2.82098 11.1744 2.15991 11.8354 2.15991 12.9447V18.9363C2.15991 20.0455 2.82098 20.7066 3.93022 20.7066ZM15.1683 18.0287C15.1683 17.6001 15.4176 17.4012 15.8013 17.4012C16.1851 17.4012 16.4344 17.6001 16.4344 18.0287C16.4344 18.236 16.3756 18.3872 16.2747 18.4909C16.1627 18.6029 16.0002 18.6561 15.8013 18.6561C15.6025 18.6561 15.44 18.6029 15.328 18.4909C15.2243 18.3872 15.1683 18.2332 15.1683 18.0287ZM3.93022 12.2948C3.44562 12.2948 3.28036 12.4601 3.28036 12.9447V18.9363C3.28036 19.4208 3.44282 19.5861 3.93022 19.5861H6.94982C7.43441 19.5861 7.59968 19.4208 7.59968 18.9363V12.9447C7.59968 12.4573 7.43441 12.2948 6.94982 12.2948H3.93022ZM6.61929 7.59173C6.61929 7.86344 6.83778 8.08193 7.10948 8.08193C7.22713 8.08193 7.33918 8.03991 7.42601 7.95868C7.56327 7.84103 8.25514 7.24719 8.38119 7.12114C8.78175 6.72058 8.77895 6.22198 8.37559 5.81582C8.16434 5.60457 7.64939 5.16203 7.48007 5.01652C7.44957 4.99031 7.43029 4.97373 7.42601 4.96989C7.21873 4.79342 6.91061 4.81863 6.73414 5.02591C6.55766 5.23319 6.58287 5.54131 6.79016 5.71778C6.86009 5.77756 6.97816 5.87912 7.10798 5.99229H7.01145C6.07867 5.99229 5.34478 6.24159 4.83218 6.73739C4.29996 7.2528 4.02826 8.00349 4.02826 8.97548V9.61414C4.02826 9.88584 4.24674 10.1043 4.51845 10.1043C4.79016 10.1043 5.00865 9.88584 5.00865 9.61414V8.97548C5.00865 7.60854 5.6445 6.97268 7.01145 6.97268H7.07615C6.98181 7.05425 6.88446 7.13813 6.79016 7.21918C6.68091 7.31162 6.61929 7.44887 6.61929 7.59173ZM5.17952 18.5749C5.17952 18.32 5.32517 18.2024 5.55487 18.2024C5.78456 18.2024 5.93302 18.32 5.93302 18.5749C5.93302 18.6954 5.8994 18.7878 5.83778 18.8494C5.77335 18.9138 5.67811 18.9475 5.55767 18.9475C5.43722 18.9475 5.33918 18.9166 5.27475 18.8494C5.21313 18.7878 5.17952 18.6982 5.17952 18.5749Z" fill="#313235"/>
</svg>
