<svg width="24" height="24" viewBox="0 0 24 24" fill="none" xmlns="http://www.w3.org/2000/svg">
<path fill-rule="evenodd" clip-rule="evenodd" d="M18.8855 20.7318H12.7455C11.8239 20.7318 11.0984 20.4825 10.5858 19.9895C10.0536 19.4769 9.78467 18.729 9.78467 17.771V6.21078C9.78467 5.2528 10.0536 4.5049 10.5858 3.9923C11.0956 3.4993 11.8239 3.25 12.7455 3.25H18.8883C19.8099 3.25 20.5354 3.4993 21.048 3.9923C21.5802 4.5049 21.8491 5.25 21.8491 6.21078V17.771C21.8491 18.729 21.5802 19.4769 21.048 19.9895C20.5354 20.4825 19.8071 20.7318 18.8855 20.7318ZM12.7455 4.37045C11.4737 4.37045 10.9051 4.93907 10.9051 6.21078V17.771C10.9051 19.0427 11.4737 19.6113 12.7455 19.6113H18.8883C20.16 19.6113 20.7286 19.0427 20.7286 17.771V6.21078C20.7286 4.93907 20.16 4.37045 18.8883 4.37045H12.7455ZM3.93034 20.7066H6.94994C8.05638 20.7066 8.71745 20.0427 8.72025 18.9363V12.9447C8.72025 11.8354 8.05919 11.1744 6.94994 11.1744H3.93034C2.8211 11.1744 2.16003 11.8354 2.16003 12.9447V18.9363C2.16003 20.0455 2.8211 20.7066 3.93034 20.7066ZM15.1684 18.0287C15.1684 17.6001 15.4177 17.4012 15.8015 17.4012C16.1852 17.4012 16.4345 17.6001 16.4345 18.0287C16.4345 18.236 16.3757 18.3872 16.2749 18.4909C16.1628 18.6029 16.0003 18.6561 15.8015 18.6561C15.6026 18.6561 15.4401 18.6029 15.3281 18.4909C15.2244 18.3872 15.1684 18.2332 15.1684 18.0287ZM3.93034 12.2948C3.44575 12.2948 3.28048 12.4601 3.28048 12.9447V18.9363C3.28048 19.4208 3.44295 19.5861 3.93034 19.5861H6.94994C7.43454 19.5861 7.5998 19.4208 7.5998 18.9363V12.9447C7.5998 12.4573 7.43454 12.2948 6.94994 12.2948H3.93034ZM6.61941 7.59173C6.61941 7.86344 6.8379 8.08193 7.10961 8.08193C7.22725 8.08193 7.3393 8.03991 7.42613 7.95868C7.56339 7.84103 8.25526 7.24719 8.38131 7.12114C8.78187 6.72058 8.77907 6.22198 8.37571 5.81582C8.16446 5.60457 7.64951 5.16203 7.48019 5.01652C7.44969 4.99031 7.43041 4.97373 7.42613 4.96989C7.21885 4.79342 6.91073 4.81863 6.73426 5.02591C6.55779 5.23319 6.583 5.54131 6.79028 5.71778C6.86021 5.77756 6.97828 5.87912 7.1081 5.99229H7.01157C6.0788 5.99229 5.3449 6.24159 4.8323 6.73739C4.30009 7.2528 4.02838 8.00349 4.02838 8.97548V9.61414C4.02838 9.88584 4.24687 10.1043 4.51857 10.1043C4.79028 10.1043 5.00877 9.88584 5.00877 9.61414V8.97548C5.00877 7.60854 5.64462 6.97268 7.01157 6.97268H7.07627C6.98193 7.05425 6.88459 7.13813 6.79028 7.21918C6.68104 7.31162 6.61941 7.44887 6.61941 7.59173ZM5.17964 18.5749C5.17964 18.32 5.3253 18.2024 5.55499 18.2024C5.78468 18.2024 5.93314 18.32 5.93314 18.5749C5.93314 18.6954 5.89952 18.7878 5.8379 18.8494C5.77347 18.9138 5.67824 18.9475 5.55779 18.9475C5.43734 18.9475 5.3393 18.9166 5.27488 18.8494C5.21325 18.7878 5.17964 18.6982 5.17964 18.5749Z" fill="#313235"/>
</svg>
