<svg xmlns="http://www.w3.org/2000/svg" width="24" height="24" fill="none"><path fill="#0B2739" d="M10.75 2.76a.6.6 0 0 0-.593-.602.6.6 0 0 0-.594.602l-.005 4.532h-.922V2.757a.6.6 0 0 0-.594-.602.6.6 0 0 0-.594.602v4.535h-.82V2.757a.583.583 0 0 0-.594-.582c-.328 0-.594.291-.594.621v7.359c0 .614.358 1.073.835 1.073l.386-.003a465 465 0 0 0-1.028 8.106c0 1.827 1.283 2.496 2.373 2.51h.199c1.095-.02 2.375-.686 2.372-2.557l-.008-.085c-.065-.627-.469-4.595-.95-7.971h.3c.473 0 .832-.46.832-1.073zm-2.38 7.672a.6.6 0 0 0-.017.33c.463 3.12.876 7.014 1.002 8.21l.04.365c0 1.053-.658 1.286-1.207 1.297h-.154c-.552-.008-1.21-.24-1.213-1.235l.03-.24c.136-1.133.724-5.98 1.088-8.444.047-.32-.2-.627-.516-.686a1 1 0 0 0-.106-.008H6.63V8.49h2.928v1.532h-.63a.59.59 0 0 0-.558.41m7.846 10.208h-.149c-.529-.006-1.162-.23-1.168-1.188 0 0 .4-3.373.773-6.177l.006-.112a.6.6 0 0 0-.594-.602h-.263V6.088c0-1.289.89-2.367 2.081-2.642v9.219a.6.6 0 0 0-.235.479v.02q0 .068.014.131c.33 2.564.597 5.111.676 5.868l.024.224c0 1.017-.636 1.241-1.165 1.253m2.347-1.312c-.006-.063-.282-2.828-.65-5.742a.6.6 0 0 0 .174-.423V2.78a.6.6 0 0 0-.594-.603c-2.129 0-3.863 1.754-3.863 3.91v7.076c0 .334.266.603.594.603h.185a397 397 0 0 0-.695 5.613c0 1.796 1.258 2.448 2.334 2.462h.187c1.076-.022 2.33-.678 2.328-2.513"/></svg>