<svg width="24" height="24" viewBox="0 0 24 24" fill="none" xmlns="http://www.w3.org/2000/svg">
<path fill-rule="evenodd" clip-rule="evenodd" d="M10.7109 2.75507C10.7109 2.42173 10.4448 2.15283 10.1171 2.15283C9.78937 2.15283 9.52327 2.42173 9.52327 2.75507L9.51767 7.28727H8.5961V2.75226C8.5961 2.41893 8.32999 2.15002 8.00226 2.15002C7.67453 2.15002 7.40842 2.42173 7.40842 2.75226V7.28727H6.5877V2.75226C6.5877 2.42173 6.32159 2.16963 5.99386 2.16963C5.66613 2.16963 5.40002 2.46095 5.40002 2.79148V10.15C5.40002 10.7635 5.75857 11.2228 6.23476 11.2228L6.62131 11.22C6.20394 14.1892 5.60451 19.206 5.5933 19.3265C5.5933 21.1528 6.87621 21.8223 7.96585 21.8363H8.16473C9.25996 21.8167 10.5401 21.15 10.5373 19.2789L10.5285 19.1939C10.4646 18.5669 10.0601 14.599 9.57929 11.2228H9.87901C10.3524 11.2228 10.7109 10.7635 10.7109 10.15V2.75507ZM8.32999 10.4273C8.29078 10.5366 8.28798 10.6514 8.31319 10.7579C8.77642 13.8765 9.18885 17.7709 9.31545 18.9664L9.31546 18.9665L9.31547 18.9666C9.34043 19.2023 9.35428 19.333 9.3552 19.3321C9.3552 20.3853 8.69694 20.6178 8.14792 20.629H7.99386C7.44204 20.6206 6.78378 20.3881 6.78097 19.3937C6.78195 19.3869 6.7922 19.3022 6.81021 19.1536C6.9474 18.0212 7.53464 13.1739 7.89862 10.7102C7.94624 10.3909 7.69974 10.0828 7.38321 10.024C7.3468 10.0184 7.31039 10.0156 7.27677 10.0156H6.5905V8.48615H9.51767V10.0184H8.88741C8.63251 10.0184 8.41122 10.1836 8.32999 10.4273ZM16.1759 20.6346C16.7053 20.6234 17.3412 20.3993 17.3412 19.3825C17.3407 19.3825 17.3325 19.3033 17.3172 19.1577L17.3172 19.1573C17.2381 18.4008 16.972 15.8543 16.6409 13.2901C16.6325 13.248 16.6269 13.2032 16.6269 13.1584V13.1388C16.6269 12.9427 16.7193 12.7691 16.8622 12.6598V3.44134C15.6717 3.71585 14.781 4.79428 14.781 6.08279V12.5562H15.0443C15.372 12.5562 15.6381 12.8251 15.6381 13.1584C15.6381 13.1836 15.6353 13.2424 15.6325 13.2705C15.26 16.0744 14.8594 19.4469 14.8594 19.4469C14.865 20.4049 15.498 20.629 16.0275 20.6346H16.1759ZM18.5232 19.3228C18.5169 19.2597 18.2408 16.4952 17.8734 13.5814C17.9798 13.4721 18.0471 13.3237 18.0471 13.1584V2.77467C18.0471 2.44134 17.781 2.17243 17.4532 2.17243C15.3244 2.17243 13.5905 3.92593 13.5905 6.08279V13.1584C13.5905 13.4917 13.8566 13.7607 14.1843 13.7607H14.3692C14.0219 16.4189 13.6773 19.3069 13.6745 19.3741C13.6745 21.1696 14.9322 21.8223 16.0079 21.8363H16.1955C17.2712 21.8139 18.5261 21.1584 18.5233 19.3237L18.5232 19.3228Z" fill="#313235"/>
</svg>
