<svg width="24" height="24" fill="none" xmlns="http://www.w3.org/2000/svg"><path fill-rule="evenodd" clip-rule="evenodd" d="M10.727 15.158a.55.55 0 0 0 .286.079.565.565 0 0 0 .56-.56v-2.594a.568.568 0 0 0 .134.112l4.99 2.969a.55.55 0 0 0 .285.078c.095 0 .19-.025.277-.072a.565.565 0 0 0 .283-.488V8.716a.558.558 0 0 0-.849-.48l-4.989 2.998a.553.553 0 0 0-.131.11V8.71a.558.558 0 0 0-.849-.479l-4.989 2.997a.564.564 0 0 0-.271.482c0 .196.106.378.274.48l4.989 2.968Zm-.275-1.465-3.336-1.988 3.336-2.003v3.991Zm2.63-1.983 3.34 1.986V9.705l-3.34 2.005Z" fill="#313235"/><path fill-rule="evenodd" clip-rule="evenodd" d="M4.763 19.424c1.673 1.611 4.107 2.43 7.236 2.43 3.128 0 5.563-.816 7.238-2.427 1.736-1.672 2.616-4.17 2.616-7.423 0-3.255-.88-5.75-2.616-7.425-1.675-1.611-4.11-2.429-7.238-2.429-3.13 0-5.563.818-7.236 2.426C3.03 6.25 2.15 8.749 2.15 12.002c0 3.254.88 5.75 2.613 7.422Zm-1.523-7.42c0-5.815 2.946-8.764 8.759-8.764 5.815 0 8.761 2.95 8.764 8.764 0 5.813-2.95 8.76-8.764 8.76-5.813 0-8.76-2.947-8.76-8.76Z" fill="#313235"/></svg>