<svg width="24" height="24" viewBox="0 0 24 24" fill="none" xmlns="http://www.w3.org/2000/svg">
<path fill-rule="evenodd" clip-rule="evenodd" d="M4.76334 19.4245C6.43561 21.0352 8.86978 21.8531 11.9986 21.8531C15.1275 21.8531 17.5616 21.038 19.2367 19.4273C20.9734 17.755 21.853 15.2564 21.853 12.0044C21.853 8.74945 20.9734 6.25366 19.2367 4.57859C17.5616 2.96795 15.1275 2.15002 11.9986 2.15002C8.86978 2.15002 6.43561 2.96795 4.76334 4.57579C3.02945 6.25086 2.1499 8.74945 2.1499 12.0016C2.1499 15.2564 3.02945 17.7522 4.76334 19.4245ZM3.23954 12.0044C3.23954 6.18923 6.18631 3.23966 11.9986 3.23966C17.8137 3.23966 20.7605 6.18923 20.7633 12.0044C20.7633 17.8167 17.8137 20.7634 11.9986 20.7634C6.18631 20.7634 3.23954 17.8167 3.23954 12.0044ZM10.7269 15.1584C10.8138 15.2116 10.9146 15.2368 11.0126 15.2368C11.1079 15.2368 11.2031 15.2144 11.2899 15.164C11.4636 15.0632 11.5729 14.8783 11.5729 14.6766V12.0828C11.6112 12.1263 11.6564 12.1643 11.7073 12.1948L16.6961 15.164C16.7829 15.2172 16.8838 15.2424 16.9818 15.2424C17.0771 15.2424 17.1723 15.2172 17.2591 15.1696C17.4328 15.0688 17.542 14.8839 17.542 14.6822V8.71584C17.542 8.51416 17.4328 8.32649 17.2563 8.22845C17.0827 8.13041 16.867 8.13321 16.6933 8.23685L11.7045 11.234C11.6546 11.264 11.6104 11.3013 11.5729 11.3442V8.71024C11.5729 8.50856 11.4636 8.32088 11.2871 8.22285C11.1135 8.12481 10.8978 8.12761 10.7241 8.23125L5.73533 11.2284C5.56726 11.3293 5.46362 11.5142 5.46362 11.7102C5.46362 11.9063 5.57007 12.0884 5.73813 12.1892L10.7269 15.1584ZM10.4524 13.6934L7.11628 11.7046L10.4524 9.70183V13.6934ZM13.0827 11.7102L16.4216 13.6962V9.70464L13.0827 11.7102Z" fill="#313235"/>
</svg>
