<svg width="24" height="24" viewBox="0 0 24 24" fill="none" xmlns="http://www.w3.org/2000/svg">
<path fill-rule="evenodd" clip-rule="evenodd" d="M17.8431 12.9034H13.8991V13.6569H19.7759C20.4734 13.6569 21.0392 14.2059 21.0392 14.881V20.6205C21.0392 21.2955 20.4734 21.8446 19.7759 21.8446H4.2633C3.56583 21.8446 3 21.2983 3 20.6205V14.881C3 14.2059 3.56583 13.6569 4.2633 13.6569H10.14V12.9034H6.19607C5.4986 12.9034 4.93277 12.3572 4.93277 11.6793V10.9902H4.26891C3.57143 10.9902 3.0056 10.444 3.0056 9.76614V6.87539C3.0056 6.20032 3.57143 5.6513 4.26891 5.6513H4.93277V4.66811C4.93277 3.99304 5.4986 3.44402 6.19607 3.44402H11.5154V3.17511C11.4258 3.06587 11.3641 2.93421 11.3641 2.78576C11.3641 2.43562 11.6583 2.1499 12.0196 2.1499C12.3809 2.1499 12.6751 2.43562 12.6751 2.78576C12.6751 2.93421 12.6134 3.06587 12.5238 3.17511V3.44402H17.8431C18.5406 3.44402 19.1064 3.99024 19.1064 4.66811V5.6625H19.7815C20.479 5.6625 21.0448 6.20872 21.0448 6.88659V9.77734C21.0448 10.4524 20.479 11.0014 19.7815 11.0014H19.1064V11.6793C19.1064 12.3544 18.5406 12.9034 17.8431 12.9034ZM17.8431 11.6793H13.2997C13.2951 11.6793 13.291 11.6784 13.287 11.6775L13.287 11.6775C13.2812 11.6761 13.2755 11.6748 13.2689 11.6765H10.7703C10.7647 11.6765 10.7598 11.6779 10.7549 11.6793C10.75 11.6807 10.7451 11.6821 10.7395 11.6821H6.19607V9.85297C6.19701 9.84364 6.19825 9.8343 6.1995 9.82496C6.20199 9.80629 6.20448 9.78761 6.20448 9.76894V6.87819C6.20448 6.85951 6.20199 6.84084 6.1995 6.82216C6.19825 6.81283 6.19701 6.80349 6.19607 6.79415V4.67091H17.8431V11.6793ZM12.6358 13.6541H11.4005V12.9006H12.6358V13.6541ZM19.7759 14.8782H13.2857C13.2846 14.8782 13.2834 14.8784 13.2822 14.8788C13.2808 14.8792 13.2794 14.8799 13.2779 14.8805L13.2779 14.8806C13.2745 14.8821 13.2707 14.8838 13.2661 14.8838H10.7675C10.765 14.8838 10.7625 14.8826 10.7597 14.8814C10.7563 14.8799 10.7525 14.8782 10.7479 14.8782H4.2633V20.6177H6.09523C6.09523 20.6121 6.09453 20.6065 6.09383 20.6009C6.09313 20.5953 6.09243 20.5897 6.09243 20.584V16.9062C6.09243 16.2311 6.65546 15.6821 7.35574 15.6821H16.6863C17.3837 15.6821 17.9496 16.2283 17.9496 16.9062V20.584C17.9496 20.5897 17.9489 20.5953 17.9482 20.6009C17.9475 20.6065 17.9468 20.6121 17.9468 20.6177H19.7787V14.8782H19.7759ZM16.6863 20.584H7.35574V16.9062H16.6863V20.584ZM4.26891 9.76614H4.93277V6.87539H4.26891V9.76614ZM19.7815 9.77734H19.1092V6.88659H19.7815V9.77734ZM10.0952 7.13309C10.0952 7.37959 9.88795 7.58127 9.63304 7.58127C9.37534 7.58127 9.17086 7.38239 9.17086 7.13309C9.17086 6.88659 9.37814 6.68771 9.63304 6.68771C9.88795 6.68771 10.0952 6.88659 10.0952 7.13309ZM11.2717 7.13589C11.2717 8.01264 10.535 8.72412 9.63024 8.72412C8.72548 8.72412 7.98879 8.01264 7.98879 7.13589C7.98879 6.26194 8.72548 5.54766 9.63024 5.54766C10.535 5.54766 11.2717 6.26194 11.2717 7.13589ZM14.8683 7.11908C14.8683 7.36558 14.661 7.56446 14.4061 7.56446C14.1512 7.56446 13.944 7.36278 13.944 7.11908C13.944 6.87258 14.1512 6.67371 14.4061 6.67371C14.661 6.67371 14.8683 6.87258 14.8683 7.11908ZM14.4061 5.53085C15.3109 5.53085 16.0448 6.24233 16.0448 7.11908C16.0448 7.99303 15.3081 8.70732 14.4061 8.70732C13.5042 8.70732 12.7647 7.99583 12.7647 7.11908C12.7675 6.24233 13.5042 5.53085 14.4061 5.53085ZM14.2717 10.0378C14.2717 9.70171 13.9888 9.4272 13.6414 9.4272H10.4005C10.0532 9.4272 9.7703 9.70171 9.7703 10.0378C9.7703 10.374 10.0532 10.6485 10.4005 10.6485H13.6414C13.9888 10.6485 14.2717 10.3768 14.2717 10.0378Z" fill="#313235"/>
</svg>
