<svg xmlns="http://www.w3.org/2000/svg" width="24" height="24" fill="none"><path fill="#0B2739" d="M17.88 14.492c.072-.068.145-.138.219-.214 3.398-3.417 3.905-8.966 3.706-10.602a1.715 1.715 0 0 0-1.485-1.482c-1.933-.221-7.26.434-10.554 3.748-.066.066-.137.141-.209.218l-.077.082a3.8 3.8 0 0 0-2.356-.558C5.718 5.82 4.376 6.71 3.152 8.306c-.32.378-.297.743-.252.925.165.706 1.009 1.064 2.177 1.557.285.12.568.247.851.375l-.288.578c-.398.882-.773 1.969-.174 2.52l4.32 4.345c.204.204.476.308.823.308.437 0 .997-.162 1.7-.49l.555-.272c.148.32.291.647.425.972l.009.02c.488 1.163.841 2.004 1.54 2.168a1.016 1.016 0 0 0 .894-.235c1.614-1.252 2.499-2.603 2.63-4.014a3.86 3.86 0 0 0-.607-2.451c.04-.04.082-.08.125-.12m2.292-11.068a.476.476 0 0 1 .412.406c.092.748-.006 2.527-.563 4.488L15.718 3.99c1.927-.552 3.678-.653 4.454-.566m-2.944 9.98c-.16.16-.303.303-.457.44l-.622.538c-1.187 1.03-2.529 1.972-3.683 2.585l-.686.334c-.745.35-1.096.38-1.177.372L6.39 13.438c0-.107.034-.44.362-1.168l.333-.672c.633-1.183 1.594-2.575 2.569-3.71l.537-.604c.14-.163.303-.325.443-.465 1.09-1.098 2.434-1.86 3.779-2.387l5.168 5.196c-.518 1.345-1.272 2.69-2.353 3.776m-2.706-6.143c1.26 0 2.014.76 2.014 2.026 0 1.269-.754 2.025-2.014 2.025-1.26 0-2.014-.756-2.014-2.025 0-1.266.754-2.026 2.014-2.026m0 2.816c.58 0 .784-.208.784-.788 0-.582-.204-.787-.784-.787-.577 0-.784.208-.784.787 0 .58.207.788.784.788m-8.227 7.602c-.244-.247-.462-.37-.678-.37-.218 0-.434.123-.68.37-.502.504-1.295 1.496-1.5 2.871 1.432-.219 2.452-1.095 2.858-1.504.49-.493.49-.874 0-1.367m-2.23-.874c.972-.975 2.132-.978 3.101 0 .97.977.97 2.143 0 3.117-.574.578-2.151 1.92-4.395 1.92a.619.619 0 0 1-.616-.62c0-2.173 1.196-3.7 1.91-4.417m13.068.165c-.104 1.014-.782 2.028-2.054 3.048-.19-.266-.448-.882-.637-1.333l-.018-.043c-.151-.36-.311-.73-.485-1.098a23.91 23.91 0 0 0 2.877-2.109c.177.314.387.852.317 1.535M6.536 10.082c-.328-.154-.658-.3-.983-.437-.451-.19-1.095-.465-1.37-.658.994-1.266 2.014-1.964 3.03-2.067.611-.06 1.099.109 1.421.269a23.63 23.63 0 0 0-2.098 2.893"/></svg>