<svg width="24" height="24" viewBox="0 0 24 24" fill="none" xmlns="http://www.w3.org/2000/svg">
<path fill-rule="evenodd" clip-rule="evenodd" d="M16.3096 17.9834H17.0883C17.4301 17.9834 17.7074 18.258 17.7018 18.6025V21.2355C17.7018 21.5773 17.4273 21.8518 17.0855 21.8518H6.83622C6.49728 21.8518 6.21997 21.5745 6.21997 21.2355V18.6025C6.21997 18.2608 6.49448 17.9862 6.83622 17.9862H7.61493V16.3084C7.61493 15.9666 7.88944 15.6921 8.23118 15.6921H8.77459L9.52809 9.15991H9.33762C8.99868 9.15991 8.72137 8.8826 8.72137 8.54367V6.98064H7.63454C7.2956 6.98064 7.01829 6.70333 7.01829 6.36439V2.77616C7.01829 2.43442 7.2928 2.15991 7.63454 2.15991H9.44406C9.783 2.15991 10.0603 2.43722 10.0603 2.77616V3.70053H10.5225V2.77616C10.5225 2.43442 10.797 2.15991 11.1387 2.15991H12.7074C13.0463 2.15991 13.3236 2.43722 13.3236 2.77616V3.77056L13.8166 3.76215V2.77616C13.8166 2.43442 14.0911 2.15991 14.4329 2.15991H16.318C16.6569 2.15991 16.9343 2.43722 16.9343 2.77616V6.36159C16.9343 6.70333 16.6597 6.97784 16.318 6.97784H15.2956V8.54086C15.2956 8.8826 15.0211 9.15711 14.6794 9.15711H14.4889L15.2424 15.6893H15.6934C16.0323 15.6893 16.3096 15.9666 16.3096 16.3056V17.9834ZM16.4721 20.6137H7.45807V19.2131H16.4721V20.6137ZM8.85302 17.9834H15.0771V16.9218H8.85302V17.9834ZM13.248 9.15711H10.7746L10.0211 15.6893H13.9987L13.248 9.15711ZM9.95667 7.92742H14.0631V6.98064H9.95667V7.92742ZM8.82781 3.39241H8.25358H8.25078V5.75095H15.7018V3.39241H15.0519V4.3672C15.0519 4.70333 14.7802 4.97784 14.4441 4.98344L12.7186 5.00865C12.5533 5.01145 12.3936 4.94703 12.276 4.83218C12.1583 4.71734 12.0911 4.56047 12.0911 4.39521V3.39241H11.755V4.31677C11.755 4.65851 11.4805 4.93302 11.1387 4.93302H9.44406C9.10512 4.93302 8.82781 4.65571 8.82781 4.31677V3.39241Z" fill="#313235"/>
</svg>
