<svg width="24" height="24" viewBox="0 0 24 24" fill="none" xmlns="http://www.w3.org/2000/svg">
<path fill-rule="evenodd" clip-rule="evenodd" d="M13.2535 6.90539C13.2283 4.60007 11.7353 3.22192 11.7185 3.20792C11.4692 2.98383 11.4496 2.60288 11.6737 2.35358L11.6765 2.35078C11.9062 2.10148 12.2899 2.08187 12.5448 2.30596C12.6233 2.37599 14.4524 4.03705 14.4832 6.87458C14.4888 6.97262 14.5869 9.76533 12.5701 11.5468C12.458 11.6477 12.3096 11.7009 12.1611 11.7009C11.9874 11.7009 11.8194 11.6281 11.7017 11.4992C11.4776 11.2527 11.4972 10.869 11.7437 10.6449C11.7448 10.6438 11.7459 10.6432 11.7468 10.6426C11.7483 10.6417 11.7493 10.641 11.7493 10.6393C13.3376 9.23592 13.2563 6.9306 13.2535 6.90539ZM21.8361 17.2359C21.8361 16.2947 21.584 15.558 21.0911 15.051C20.5756 14.5216 19.8137 14.2555 18.8249 14.2555H8.07987V6.9222C8.07987 6.58606 7.80256 6.31155 7.46362 6.31155C7.12188 6.31155 6.84737 6.58606 6.84737 6.9222V14.2527H5.1639C4.17231 14.2527 3.4104 14.5188 2.895 15.0482C2.3992 15.558 2.1499 16.2919 2.1499 17.2331V18.855C2.1499 19.7961 2.3992 20.5328 2.895 21.0426C3.4104 21.572 4.17231 21.8381 5.1639 21.8381H18.8221C19.8137 21.8381 20.5756 21.572 21.0911 21.0426C21.584 20.5356 21.8361 19.7989 21.8361 18.8578V17.2359ZM20.6037 18.855V17.2331C20.6037 16.6169 20.4692 16.1659 20.2031 15.8942C19.9286 15.6141 19.4636 15.4712 18.8221 15.4712H5.1639C4.51965 15.4712 4.05746 15.6141 3.78295 15.8942C3.51685 16.1659 3.38239 16.6169 3.38239 17.2331V18.855C3.38239 19.4712 3.51685 19.9222 3.78295 20.1939C4.05746 20.474 4.51965 20.6169 5.1639 20.6169H18.8249C19.4692 20.6169 19.9314 20.474 20.2059 20.1939C20.4692 19.9222 20.6065 19.4712 20.6037 18.855ZM5.94542 18.1463C5.94542 17.6281 5.64009 17.3872 5.16951 17.3872C4.69892 17.3872 4.3964 17.6281 4.3936 18.1491C4.3936 18.3984 4.46362 18.5832 4.58967 18.7093C4.72693 18.8438 4.92581 18.9054 5.16951 18.9054C5.4132 18.9054 5.61488 18.8409 5.74934 18.7065C5.87539 18.5804 5.94542 18.3956 5.94542 18.1463ZM8.76894 18.1463C8.76894 17.6281 8.46362 17.3872 7.99303 17.3872C7.52244 17.3872 7.21712 17.6281 7.21712 18.1463C7.21712 18.3956 7.28715 18.5804 7.4132 18.7065C7.55046 18.8409 7.74933 18.9054 7.99303 18.9054C8.23953 18.9054 8.43841 18.8409 8.57286 18.7065C8.69891 18.5804 8.76894 18.3956 8.76894 18.1463ZM9.76894 4.74853C9.78014 4.75693 10.6485 5.56926 10.6653 6.9278C10.6653 6.92802 10.6653 6.9286 10.6653 6.92951C10.6663 6.98554 10.6899 8.32165 9.79135 9.11267L9.78575 9.11827C9.53645 9.34236 9.51684 9.72331 9.74093 9.97261C9.96782 10.2247 10.3544 10.2443 10.6093 10.023C11.965 8.82696 11.8978 6.95581 11.895 6.89979C11.8726 5.00623 10.6457 3.89139 10.5925 3.84377C10.3404 3.61968 9.95381 3.63929 9.72412 3.88859C9.72412 3.89139 9.72132 3.89419 9.71852 3.89699C9.49723 4.14629 9.51964 4.52724 9.76894 4.74853Z" fill="#313235"/>
</svg>
