<svg width="24" height="24" viewBox="0 0 24 24" fill="none" xmlns="http://www.w3.org/2000/svg">
<path fill-rule="evenodd" clip-rule="evenodd" d="M21.4071 18.2917C21.9869 17.709 21.9869 16.7651 21.4071 16.1824L7.82167 2.59701C7.23904 2.01438 6.29506 2.01438 5.71243 2.59701L2.59479 5.71465C2.01495 6.29728 2.01495 7.24126 2.59479 7.82389L16.1802 21.4093C16.4743 21.7006 16.8553 21.8463 17.2362 21.8463C17.6172 21.8463 17.9981 21.7006 18.2894 21.4093L21.4071 18.2917ZM20.5191 17.0704C20.6088 17.1628 20.6088 17.3113 20.5191 17.4009C20.5191 17.4009 17.3987 20.5214 17.3987 20.5186C17.3119 20.6082 17.1606 20.6082 17.071 20.5186L3.48274 6.93314C3.3931 6.8435 3.3931 6.69504 3.48274 6.60541L6.60318 3.48496C6.69282 3.39533 6.83848 3.39533 6.93091 3.48496L8.11298 4.66423L7.04576 5.71465C6.79646 5.95835 6.79366 6.35891 7.03736 6.60541L7.04016 6.60821C7.28105 6.85471 7.67881 6.85751 7.92531 6.61381L9.00654 5.55499L10.183 6.73146L7.87769 9.03958C7.63119 9.28607 7.63119 9.68383 7.87769 9.93033L7.88049 9.93313C8.12699 10.1768 8.52195 10.1768 8.76565 9.93033L11.071 7.62221L12.2474 8.79868L11.099 9.93033C10.8497 10.174 10.8469 10.5718 11.0906 10.8183L11.0934 10.8211C11.3371 11.0648 11.732 11.0676 11.9785 10.8239L13.1354 9.68663L14.3147 10.8631L12.2502 12.9275C12.0037 13.174 12.0037 13.5718 12.2502 13.8183L12.253 13.8211C12.4967 14.0648 12.8945 14.0648 13.1382 13.8183L15.2054 11.7567L16.3819 12.9331L15.0682 14.2244C14.8217 14.4653 14.8161 14.8659 15.0598 15.1124C15.3035 15.3589 15.7012 15.3645 15.9505 15.1208L17.2698 13.8211L20.5191 17.0704ZM17.7684 17.5298C17.8805 17.3365 17.8161 17.0872 17.6228 16.9723C17.6228 16.9723 17.62 16.9723 17.62 16.9695C17.4239 16.8547 17.1746 16.9219 17.0598 17.118C16.9449 17.3141 17.0121 17.5634 17.2082 17.6782C17.3034 17.7342 17.4183 17.7482 17.5247 17.7202C17.6256 17.6922 17.7152 17.625 17.7684 17.5298ZM18.5023 17.9387C18.8413 17.3421 18.6368 16.5858 18.0401 16.244C17.7516 16.076 17.4155 16.034 17.0934 16.118C16.7712 16.2048 16.5023 16.4121 16.3343 16.7006C15.9897 17.2973 16.1942 18.062 16.7908 18.4065C16.7936 18.4065 16.7936 18.4093 16.7964 18.4093C17.3931 18.7538 18.155 18.5466 18.4967 17.9499C18.4978 17.9478 18.4985 17.9461 18.499 17.9446C18.4999 17.9422 18.5006 17.9405 18.5023 17.9387Z" fill="#313235"/>
</svg>
