<svg width="24" height="24" fill="none" xmlns="http://www.w3.org/2000/svg"><path d="M21.407 18.292c.58-.583.58-1.527 0-2.11L7.822 2.597a1.491 1.491 0 0 0-2.11 0L2.595 5.715a1.496 1.496 0 0 0 0 2.109L16.18 21.409c.294.292.675.437 1.056.437s.762-.145 1.053-.437l3.118-3.117Zm-.888-1.222c.09.093.09.241 0 .33 0 0-3.12 3.121-3.12 3.119a.233.233 0 0 1-.328 0L3.483 6.933a.233.233 0 0 1 0-.328l3.12-3.12c.09-.09.235-.09.328 0l1.182 1.18-1.067 1.05a.629.629 0 0 0-.009.89l.003.003c.241.247.639.25.885.006l1.082-1.059 1.176 1.176L7.878 9.04a.629.629 0 0 0 0 .89l.002.003a.625.625 0 0 0 .886-.003l2.305-2.308L12.247 8.8 11.1 9.93a.626.626 0 0 0-.008.888l.002.003a.627.627 0 0 0 .886.003l1.156-1.137 1.18 1.176-2.065 2.065a.629.629 0 0 0 0 .89l.003.003a.625.625 0 0 0 .885-.003l2.067-2.061 1.177 1.176-1.314 1.291a.628.628 0 1 0 .883.897l1.319-1.3 3.25 3.25Zm-2.75.46a.403.403 0 0 1-.56.148.409.409 0 0 1-.15-.56.409.409 0 0 1 .564-.146.41.41 0 0 1 .145.558Zm.733.409a1.242 1.242 0 0 0-.462-1.695 1.244 1.244 0 0 0-1.706.457 1.25 1.25 0 0 0 .457 1.706c.003 0 .003.002.005.002a1.243 1.243 0 0 0 1.7-.46l.003-.004c0-.003.002-.005.003-.006Z" fill="#313235"/></svg>