<svg width="24" height="24" viewBox="0 0 24 24" fill="none" xmlns="http://www.w3.org/2000/svg">
<path fill-rule="evenodd" clip-rule="evenodd" d="M2.02515 9.75916C2.02515 14.0925 5.53775 17.6051 9.87108 17.6051C11.7654 17.6102 13.5901 16.9238 15.0093 15.6873L20.7058 21.3838C20.8095 21.4902 20.9523 21.5491 21.1008 21.5491C21.2492 21.5491 21.3893 21.4902 21.4985 21.3838C21.717 21.1653 21.717 20.8096 21.4985 20.5911L15.7947 14.8872C18.3582 11.8351 18.2324 7.2955 15.4173 4.38941C12.4033 1.27736 7.43691 1.19613 4.32207 4.21014C2.85148 5.68353 2.02515 7.67792 2.02515 9.75916ZM3.14559 9.75916C3.14559 6.04487 6.1568 3.03367 9.87108 3.03367C11.6554 3.02806 13.3669 3.73675 14.6274 5.00565C17.2296 7.6275 17.2296 11.8572 14.6274 14.479C12.0111 17.1149 7.75064 17.1317 5.11478 14.5155C3.85428 13.2522 3.14559 11.5435 3.14559 9.75916ZM9.647 13.6555C9.647 13.8628 9.81506 14.0337 10.0251 14.0337C10.2352 14.0337 10.4033 13.8656 10.4061 13.6555V13.1083C10.9636 13.0372 11.4316 12.8479 11.773 12.5519C12.2128 12.1709 12.4453 11.6331 12.4453 11.0001C12.4453 10.2218 12.0889 9.25187 10.4061 9.00733V6.98935C10.6824 7.04263 10.9537 7.14373 11.2352 7.29697L11.2436 7.29977C11.3389 7.35019 11.4425 7.381 11.549 7.38381C11.8319 7.38381 12.0616 7.15411 12.0616 6.8712C12.0616 6.75916 12.0223 6.54907 11.759 6.38661C11.3815 6.15362 10.9126 6.00039 10.4061 5.94225V5.66672C10.4061 5.45663 10.2352 5.28577 10.0251 5.28577C9.81786 5.28577 9.647 5.45663 9.647 5.66672V5.92889C8.41937 6.03772 7.64139 6.82881 7.64139 8.00285C7.64139 8.76753 7.99253 9.72398 9.647 9.96775V12.0976C9.21781 12.0418 8.78492 11.8701 8.35568 11.5855C8.25484 11.5183 8.13719 11.479 8.01394 11.4762C7.72263 11.4734 7.48453 11.7059 7.48173 11.9973C7.48173 12.1877 7.56576 12.3446 7.73383 12.4622C8.30069 12.8535 8.96187 13.0831 9.647 13.1308V13.6555ZM10.4061 12.0773C11.026 11.9581 11.3949 11.5815 11.3949 11.0365C11.3949 10.6481 11.2666 10.2663 10.4061 10.08V12.0773ZM9.647 8.89194V6.96197C9.04504 7.04391 8.69461 7.40268 8.69461 7.95804C8.69461 8.31932 8.81703 8.70464 9.647 8.89194Z" fill="#313235"/>
</svg>
