<svg width="24" height="24" viewBox="0 0 24 24" fill="none" xmlns="http://www.w3.org/2000/svg">
<path fill-rule="evenodd" clip-rule="evenodd" d="M12.5939 21.6751H11.0897C10.549 21.6751 10.1093 21.2353 10.1093 20.6947V18.8404C9.32775 18.7143 8.61907 18.4958 8.00002 18.1877L6.63027 19.5574C6.24092 19.944 5.61346 19.944 5.22411 19.5574L4.12607 18.4566C3.73952 18.0672 3.73952 17.4398 4.12607 17.0504L5.49302 15.6835C5.17649 15.1233 4.9496 14.2185 4.84316 13.5714H2.98882C2.4482 13.5714 2.00842 13.1317 2.00842 12.5911V11.0869C2.00842 10.5462 2.4482 10.1065 2.98882 10.1065H4.84316C4.9496 9.4566 5.17649 8.55464 5.49302 7.99442L4.12607 6.62747C3.73952 6.23811 3.73952 5.61066 4.12607 5.22131L5.22411 4.12327C5.61346 3.73671 6.24092 3.73671 6.63027 4.12327L8.00002 5.49302C8.61907 5.18489 9.32775 4.96641 10.1093 4.84036V2.98882C10.1093 2.4482 10.549 2.00842 11.0897 2.00842H12.5939C13.1345 2.00842 13.5742 2.4482 13.5742 2.98882V4.84316C14.3586 4.96921 15.0308 5.17649 15.6835 5.49582L17.0532 4.12607C17.4426 3.73952 18.07 3.73952 18.4594 4.12607L19.5574 5.22411C19.944 5.61346 19.944 6.24092 19.5574 6.63027L18.1905 8.00002C18.4986 8.61907 18.7171 9.32775 18.8432 10.1093H20.6975C21.2381 10.1093 21.6779 10.549 21.6779 11.0897V12.5939C21.6779 13.1345 21.2381 13.5742 20.6975 13.5742H18.8432C18.7171 14.3558 18.4986 15.0644 18.1905 15.6835L19.5602 17.0532C19.9468 17.4426 19.9468 18.07 19.5602 18.4594L18.4622 19.5574C18.0728 19.944 17.4454 19.944 17.056 19.5574L15.6835 18.1877C15.0308 18.507 14.3586 18.7143 13.5742 18.8404V20.6947C13.5742 21.2381 13.1373 21.6751 12.5939 21.6751ZM11.2297 20.5546H12.4538V18.7423V18.7311C12.4538 18.2381 12.8292 17.8207 13.3474 17.7423H13.3502C14.056 17.6331 14.6499 17.451 15.2213 17.1681C15.6387 16.9608 16.1065 17.0252 16.4146 17.3334L16.423 17.3418L17.7591 18.6779L18.6807 17.7563L17.3446 16.4202L17.3362 16.4118C17.028 16.1037 16.9636 15.6219 17.1737 15.2129C17.4454 14.6751 17.6359 14.0476 17.7451 13.3446C17.8235 12.8263 18.2409 12.451 18.7339 12.451H20.5574V11.2269H18.7339C18.2409 11.2269 17.8235 10.8516 17.7451 10.3334C17.6359 9.63027 17.4454 9.00282 17.1737 8.46781C16.9636 8.05884 17.028 7.57705 17.3362 7.26893L17.3446 7.26052L18.6807 5.92439L17.7591 5.00282L16.423 6.34176L16.4146 6.35016C16.1065 6.65828 15.6387 6.72271 15.2213 6.51543C14.6499 6.23251 14.056 6.05044 13.3502 5.9412H13.3474C12.8292 5.86276 12.4538 5.4454 12.4538 4.9524V3.12887H11.2297V4.9524C11.2297 5.4454 10.8544 5.86276 10.3362 5.9412C9.63307 6.05044 9.00562 6.24092 8.47061 6.51262C8.06164 6.72551 7.57985 6.65828 7.27173 6.35016L7.26332 6.34176L5.92719 5.00562L5.00562 5.92719L6.34176 7.26332L6.35016 7.27173C6.71711 7.63867 6.6975 8.17369 6.49022 8.50982C6.28573 8.84316 6.05324 9.61346 5.9412 10.339C5.86276 10.846 5.43699 11.2297 4.9524 11.2297H3.12887V12.4538H4.9524C5.43699 12.4538 5.86276 12.8376 5.9412 13.3446C6.05324 14.07 6.28573 14.8404 6.49022 15.1737C6.6975 15.5126 6.71711 16.0448 6.35016 16.4118L6.34176 16.4202L5.00562 17.7563L5.92719 18.6779L7.26332 17.3418L7.27173 17.3334C7.57985 17.0252 8.06164 16.9608 8.47061 17.1709C9.00842 17.4426 9.63587 17.6331 10.339 17.7423C10.8572 17.8207 11.2325 18.2381 11.2325 18.7311L11.2297 20.5546ZM11.8432 15.6947C9.35856 15.6947 7.99162 14.3278 7.99162 11.8432C7.99162 9.35856 9.35856 7.99162 11.8432 7.99162C14.3278 7.99162 15.6947 9.35856 15.6947 11.8432C15.6947 14.3278 14.3249 15.6947 11.8432 15.6947ZM11.8432 9.11206C9.98041 9.11206 9.11206 9.98041 9.11206 11.8432C9.11206 13.7059 9.98041 14.5742 11.8432 14.5742C13.7059 14.5742 14.5742 13.7059 14.5742 11.8432C14.5742 9.98041 13.7059 9.11206 11.8432 9.11206Z" fill="#313235"/>
</svg>
