<svg width="24" height="24" viewBox="0 0 24 24" fill="none" xmlns="http://www.w3.org/2000/svg">
<path fill-rule="evenodd" clip-rule="evenodd" d="M21.6694 14.098C21.6694 10.6638 19.3444 9.24644 17.0223 9.03356C15.7786 5.52656 11.745 5.34448 10.9215 5.34448C9.86266 5.34448 4.65817 5.6274 4.4649 11.1064C3.39487 11.5266 2.01392 12.5462 2.01392 15.0111C2.01392 18.1484 4.25481 19.2661 6.35285 19.2661L16.4117 19.21C18.8374 19.21 21.6694 17.8711 21.6694 14.098ZM20.4649 14.098C20.4649 17.7394 17.3641 18.0224 16.4089 18.0224L6.35005 18.0756C5.40887 18.0756 3.2212 17.7759 3.2212 15.0083C3.2212 13.4537 3.89907 12.4761 5.2352 12.1008C5.50131 12.028 5.68058 11.7871 5.67498 11.5182L5.66938 11.4229C5.66938 6.8879 9.69179 6.53496 10.9271 6.53496C11.6246 6.53496 15.154 6.68902 15.9887 9.75625C16.0587 10.0083 16.2884 10.1876 16.5545 10.196C17.731 10.2296 20.4649 10.675 20.4649 14.098ZM11.843 13.8151C12.5629 13.8151 12.8991 13.4845 12.8991 12.7759C12.8991 12.0672 12.5657 11.7366 11.843 11.7366C11.1232 11.7366 10.787 12.0672 10.787 12.7759C10.787 13.4845 11.1232 13.8151 11.843 13.8151ZM13.7842 12.7759C13.7842 11.5798 13.0587 10.8655 11.843 10.8655C10.6274 10.8655 9.90467 11.5798 9.90467 12.7759C9.90467 13.9719 10.6274 14.6862 11.843 14.6862C13.0587 14.6862 13.7842 13.9719 13.7842 12.7759ZM15.1848 12.9635V12.5854H14.5657C14.3304 12.5854 14.1288 12.4173 14.0895 12.1876C14.0475 11.9327 13.9747 11.7058 13.8795 11.5125C13.787 11.3305 13.8234 11.1092 13.9691 10.9663L14.4341 10.5069L14.1428 10.2212L13.6778 10.6778C13.5237 10.8319 13.2884 10.8627 13.1007 10.7562C12.9691 10.6834 12.6974 10.605 12.4397 10.563C12.2044 10.5238 12.0335 10.3277 12.0335 10.0924V9.48174H11.6498V10.0924C11.6498 10.3249 11.4789 10.5238 11.2436 10.563C10.9859 10.6022 10.7114 10.6834 10.5825 10.7562C10.3949 10.8627 10.1568 10.8319 10.0055 10.6778L9.54053 10.2212L9.24921 10.5069L9.7142 10.9663C9.85985 11.112 9.89627 11.3305 9.80383 11.5125C9.70579 11.7086 9.63576 11.9327 9.59655 12.1848C9.55733 12.4145 9.35565 12.5854 9.12036 12.5854H8.50131V12.9635H9.12036C9.35565 12.9635 9.56013 13.1316 9.59655 13.3641C9.63857 13.619 9.70579 13.8347 9.80663 14.0392C9.89627 14.2212 9.85985 14.4397 9.7142 14.5826L9.24921 15.042L9.54053 15.3277L10.0055 14.8683C10.154 14.7254 10.3753 14.689 10.5629 14.7787C10.759 14.8739 10.9859 14.9439 11.2436 14.9859C11.4789 15.0224 11.6498 15.2212 11.6498 15.4565V16.0672H12.0335V15.4565C12.0335 15.224 12.2044 15.0252 12.4397 14.9859C12.6946 14.9467 12.9243 14.8767 13.1232 14.7787C13.308 14.689 13.5321 14.7226 13.6806 14.8683L14.1456 15.3277L14.4369 15.042L13.9719 14.5826C13.8262 14.4397 13.7898 14.2212 13.8795 14.0392C13.9803 13.8319 14.0475 13.6162 14.0895 13.3641C14.1288 13.1344 14.3304 12.9635 14.5657 12.9635H15.1848ZM16.1484 12.4873C16.1484 12.0168 15.7618 11.6358 15.2856 11.6358V11.633H14.9607C14.9383 11.5546 14.9131 11.4817 14.8879 11.4089L15.1904 11.112C15.3557 10.9495 15.4453 10.7366 15.4453 10.5069C15.4453 10.2773 15.3557 10.0644 15.1904 9.90191L14.7646 9.48174C14.4369 9.15961 13.8627 9.15961 13.5349 9.48174L13.2324 9.77866C13.154 9.75345 13.0755 9.73104 13.0027 9.71143V9.3837C13.0027 8.91311 12.6162 8.53216 12.14 8.53216H11.5545C11.0783 8.53216 10.6918 8.91311 10.6918 9.3837V9.71143C10.6162 9.73104 10.5405 9.75345 10.4621 9.77866L10.1596 9.48174C9.83184 9.15961 9.25761 9.15961 8.92988 9.48174L8.50131 9.90191C8.33604 10.0616 8.24641 10.2773 8.24641 10.5069C8.24641 10.7366 8.33604 10.9523 8.49851 11.112L8.80383 11.4117C8.77582 11.4873 8.75341 11.5602 8.731 11.6358H8.39767C7.92148 11.6358 7.53492 12.0168 7.53492 12.4873V13.0644C7.53492 13.535 7.92148 13.9159 8.39767 13.9159H8.731C8.75341 13.9943 8.77862 14.0672 8.80382 14.14L8.80383 14.14L8.50131 14.4397C8.16238 14.7731 8.16238 15.3165 8.50131 15.6498L8.92988 16.07C9.25761 16.3921 9.83184 16.3921 10.1596 16.07L10.4621 15.7703C10.5349 15.7955 10.6106 15.8179 10.689 15.8403V16.168C10.689 16.6386 11.0755 17.0196 11.5517 17.0196H12.1372C12.6134 17.0196 12.9999 16.6386 12.9999 16.168V15.8403C13.0783 15.8207 13.154 15.7955 13.2268 15.7703L13.5321 16.07C13.8599 16.3921 14.4341 16.3921 14.7618 16.07L15.1876 15.6498C15.5265 15.3165 15.5265 14.7731 15.1876 14.4397L14.8823 14.14C14.9103 14.0672 14.9327 13.9916 14.9551 13.9159L14.9551 13.9159H15.2856C15.7618 13.9159 16.1484 13.535 16.1484 13.0644V12.4873Z" fill="#313235"/>
</svg>
