<svg width="24" height="24" viewBox="0 0 24 24" fill="none" xmlns="http://www.w3.org/2000/svg">
<path fill-rule="evenodd" clip-rule="evenodd" d="M12.5937 21.675H11.0895C10.5489 21.675 10.1091 21.2352 10.1091 20.6946V18.8402C9.32763 18.7142 8.61895 18.4957 7.9999 18.1876L6.63015 19.5573C6.24079 19.9439 5.61334 19.9439 5.22399 19.5573L4.12595 18.4565C3.73939 18.0671 3.73939 17.4397 4.12595 17.0503L5.49289 15.6834C5.17637 15.1231 4.94948 14.2184 4.84303 13.5713H2.98869C2.44808 13.5713 2.0083 13.1315 2.0083 12.5909V11.0867C2.0083 10.5461 2.44808 10.1063 2.98869 10.1063H4.84303C4.94948 9.45648 5.17637 8.55452 5.49289 7.9943L4.12595 6.62735C3.73939 6.23799 3.73939 5.61054 4.12595 5.22119L5.22399 4.12315C5.61334 3.73659 6.24079 3.73659 6.63015 4.12315L7.9999 5.49289C8.61895 5.18477 9.32763 4.96628 10.1091 4.84023V2.98869C10.1091 2.44808 10.5489 2.0083 11.0895 2.0083H12.5937C13.1344 2.0083 13.5741 2.44808 13.5741 2.98869V4.84303C14.3584 4.96909 15.0307 5.17637 15.6834 5.4957L17.0531 4.12595C17.4425 3.73939 18.0699 3.73939 18.4593 4.12595L19.5573 5.22399C19.9439 5.61334 19.9439 6.24079 19.5573 6.63015L18.1904 7.9999C18.4985 8.61895 18.717 9.32763 18.843 10.1091H20.6974C21.238 10.1091 21.6778 10.5489 21.6778 11.0895V12.5937C21.6778 13.1344 21.238 13.5741 20.6974 13.5741H18.843C18.717 14.3556 18.4985 15.0643 18.1904 15.6834L19.5601 17.0531C19.9467 17.4425 19.9467 18.0699 19.5601 18.4593L18.4621 19.5573C18.0727 19.9439 17.4453 19.9439 17.0559 19.5573L15.6834 18.1876C15.0307 18.5069 14.3584 18.7142 13.5741 18.8402V20.6946C13.5741 21.238 13.1372 21.675 12.5937 21.675ZM11.2296 20.5545H12.4537V18.7422V18.731C12.4537 18.238 12.829 17.8206 13.3472 17.7422H13.35C14.0559 17.633 14.6498 17.4509 15.2212 17.168C15.6386 16.9607 16.1063 17.0251 16.4145 17.3332L16.4229 17.3416L17.759 18.6778L18.6806 17.7562L17.3444 16.4201L17.336 16.4117C17.0279 16.1035 16.9635 15.6217 17.1736 15.2128C17.4453 14.675 17.6358 14.0475 17.745 13.3444C17.8234 12.8262 18.2408 12.4509 18.7338 12.4509H20.5573V11.2268H18.7338C18.2408 11.2268 17.8234 10.8514 17.745 10.3332C17.6358 9.63015 17.4453 9.0027 17.1736 8.46768C16.9635 8.05872 17.0279 7.57693 17.336 7.26881L17.3444 7.2604L18.6806 5.92427L17.759 5.0027L16.4229 6.34163L16.4145 6.35004C16.1063 6.65816 15.6386 6.72259 15.2212 6.5153C14.6498 6.23239 14.0559 6.05032 13.35 5.94107H13.3472C12.829 5.86264 12.4537 5.44528 12.4537 4.95228V3.12875H11.2296V4.95228C11.2296 5.44528 10.8542 5.86264 10.336 5.94107C9.63295 6.05032 9.0055 6.24079 8.47049 6.5125C8.06152 6.72539 7.57973 6.65816 7.27161 6.35004L7.2632 6.34163L5.92707 5.0055L5.0055 5.92707L6.34163 7.2632L6.35004 7.27161C6.71698 7.63855 6.69738 8.17357 6.49009 8.5097C6.28561 8.84303 6.05312 9.61334 5.94107 10.3388C5.86264 10.8458 5.43687 11.2296 4.95228 11.2296H3.12875V12.4537H4.95228C5.43687 12.4537 5.86264 12.8374 5.94107 13.3444C6.05312 14.0699 6.28561 14.8402 6.49009 15.1736C6.69738 15.5125 6.71698 16.0447 6.35004 16.4117L6.34163 16.4201L5.0055 17.7562L5.92707 18.6778L7.2632 17.3416L7.27161 17.3332C7.57973 17.0251 8.06152 16.9607 8.47049 17.1708C9.0083 17.4425 9.63575 17.633 10.3388 17.7422C10.857 17.8206 11.2324 18.238 11.2324 18.731L11.2296 20.5545ZM11.843 15.6946C9.35844 15.6946 7.99149 14.3276 7.99149 11.843C7.99149 9.35844 9.35844 7.99149 11.843 7.99149C14.3276 7.99149 15.6946 9.35844 15.6946 11.843C15.6946 14.3276 14.3248 15.6946 11.843 15.6946ZM11.843 9.11194C9.98029 9.11194 9.11194 9.98029 9.11194 11.843C9.11194 13.7058 9.98029 14.5741 11.843 14.5741C13.7058 14.5741 14.5741 13.7058 14.5741 11.843C14.5741 9.98029 13.7058 9.11194 11.843 9.11194Z" fill="#313235"/>
</svg>
