<svg width="24" height="24" fill="none" xmlns="http://www.w3.org/2000/svg"><path fill-rule="evenodd" clip-rule="evenodd" d="M21.67 14.098c0-3.434-2.325-4.852-4.648-5.064-1.243-3.507-5.277-3.69-6.1-3.69-1.06 0-6.264.283-6.457 5.762-1.07.42-2.451 1.44-2.451 3.905 0 3.137 2.24 4.255 4.339 4.255l10.059-.056c2.426 0 5.258-1.339 5.258-5.112Zm-1.205 0c0 3.641-3.1 3.924-4.056 3.924l-10.059.054c-.941 0-3.129-.3-3.129-3.068 0-1.554.678-2.532 2.014-2.907a.593.593 0 0 0 .44-.583l-.005-.095c0-4.535 4.022-4.888 5.257-4.888.698 0 4.227.154 5.062 3.221.07.252.3.432.566.44 1.176.034 3.91.479 3.91 3.902Zm-8.622-.283c.72 0 1.056-.33 1.056-1.04 0-.708-.333-1.038-1.056-1.038-.72 0-1.056.33-1.056 1.039 0 .709.336 1.04 1.056 1.04Zm1.941-1.04c0-1.195-.725-1.91-1.94-1.91-1.216 0-1.94.715-1.94 1.91 0 1.197.723 1.911 1.94 1.911 1.215 0 1.94-.714 1.94-1.91Zm1.4.188v-.378h-.618a.482.482 0 0 1-.476-.397 2.42 2.42 0 0 0-.21-.676.468.468 0 0 1 .09-.546l.464-.46-.291-.285-.465.457a.48.48 0 0 1-.577.078c-.132-.073-.404-.151-.661-.193a.478.478 0 0 1-.406-.47v-.611h-.384v.61a.48.48 0 0 1-.406.471c-.258.04-.533.12-.661.193a.479.479 0 0 1-.577-.078l-.465-.457-.292.286.465.46a.47.47 0 0 1 .09.545 2.28 2.28 0 0 0-.207.673c-.04.23-.241.4-.477.4h-.619v.378h.62a.48.48 0 0 1 .476.401c.042.255.109.47.21.675a.47.47 0 0 1-.093.544l-.465.459.292.286.465-.46a.495.495 0 0 1 .557-.09c.196.096.423.166.68.208a.476.476 0 0 1 .407.47v.611h.384v-.61a.48.48 0 0 1 .406-.471c.255-.04.484-.11.683-.207a.49.49 0 0 1 .558.09l.465.459.291-.286-.465-.46a.47.47 0 0 1-.092-.543c.1-.207.168-.423.21-.675.039-.23.24-.4.476-.4h.619Zm.964-.476a.857.857 0 0 0-.862-.851v-.003h-.325a4.213 4.213 0 0 0-.073-.224l.303-.297a.839.839 0 0 0 .254-.605c0-.23-.09-.443-.255-.605l-.425-.42a.903.903 0 0 0-1.23 0l-.303.297a4.984 4.984 0 0 0-.23-.068v-.327a.857.857 0 0 0-.862-.852h-.585a.857.857 0 0 0-.863.852v.327c-.076.02-.151.042-.23.068l-.302-.297a.903.903 0 0 0-1.23 0l-.429.42a.834.834 0 0 0-.254.605c0 .23.09.445.252.605l.305.3c-.028.075-.05.148-.073.224h-.333a.857.857 0 0 0-.863.851v.577c0 .471.387.852.863.852h.333c.023.078.048.151.073.224l-.303.3a.847.847 0 0 0 0 1.21l.429.42a.903.903 0 0 0 1.23 0l.302-.3c.073.026.149.048.227.07v.328c0 .47.387.852.863.852h.585a.857.857 0 0 0 .863-.852v-.328c.079-.02.154-.044.227-.07l.305.3a.903.903 0 0 0 1.23 0l.426-.42a.847.847 0 0 0 0-1.21l-.306-.3c.028-.073.05-.148.073-.224h.33c.477 0 .863-.381.863-.852v-.577Z" fill="#313235"/></svg>