<svg width="24" height="24" fill="none" xmlns="http://www.w3.org/2000/svg"><path fill-rule="evenodd" clip-rule="evenodd" d="M15.048 12.908c-.712 0-1.309.21-1.723.605a2.012 2.012 0 0 0-.23.26l-2.644-1.322c.036-.19.053-.392.053-.608 0-.213-.017-.414-.053-.602l2.647-1.325c.053.073.112.14.174.204.42.432 1.033.659 1.776.659.742 0 1.355-.227 1.776-.659.414-.422.624-1.014.624-1.75 0-.77-.227-1.378-.675-1.804-.417-.395-1.014-.605-1.723-.605-.711 0-1.308.21-1.722.605-.448.426-.675 1.033-.675 1.804 0 .176.01.342.036.501l-2.692 1.345a2.003 2.003 0 0 0-.165-.18c-.417-.395-1.014-.605-1.723-.605-.708 0-1.308.21-1.722.605-.449.426-.675 1.034-.675 1.804 0 .74.21 1.328.624 1.751.42.431 1.034.658 1.776.658s1.356-.227 1.776-.658c.029-.029.055-.06.081-.09l.028-.033 2.695 1.347a3.497 3.497 0 0 0-.037.496c0 .74.21 1.328.625 1.75.42.432 1.034.659 1.776.659s1.356-.227 1.776-.658c.415-.423.625-1.014.625-1.751 0-.77-.227-1.378-.675-1.804-.426-.39-1.023-.6-1.734-.6Zm0-5.824c.874 0 1.28.409 1.28 1.289 0 .434-.104.761-.306.969-.207.213-.535.32-.974.32-.44 0-.768-.107-.975-.32-.202-.208-.306-.532-.306-.97 0-.879.407-1.288 1.28-1.288Zm-7.922 5.728c.207.213.535.32.975.32.44 0 .767-.107.975-.32a.925.925 0 0 0 .199-.313c.07-.18.106-.398.106-.656 0-.246-.03-.454-.095-.627a.43.43 0 0 1-.04-.09c-.184-.386-.56-.571-1.145-.571-.874 0-1.28.409-1.28 1.288 0 .437.103.762.305.97Zm8.896 3.474c-.207.213-.535.32-.974.32-.44 0-.768-.107-.975-.32-.202-.208-.306-.533-.306-.97 0-.879.407-1.288 1.28-1.288.875 0 1.28.409 1.28 1.289 0 .437-.103.761-.305.969Z" fill="#313235"/><path fill-rule="evenodd" clip-rule="evenodd" d="M11.843 21.672c-3.131 0-5.563-.812-7.227-2.414-1.725-1.664-2.602-4.157-2.602-7.415 0-3.255.874-5.75 2.602-7.414 1.661-1.603 4.093-2.415 7.227-2.415 3.135 0 5.563.812 7.227 2.415 1.726 1.663 2.602 4.156 2.602 7.414s-.876 5.75-2.602 7.415c-1.664 1.602-4.095 2.414-7.227 2.414Zm0-18.535c-2.832 0-5.003.706-6.448 2.101-1.499 1.443-2.258 3.667-2.258 6.608s.76 5.162 2.258 6.608c1.445 1.395 3.616 2.1 6.448 2.1 2.832 0 5.003-.705 6.448-2.1 1.499-1.443 2.258-3.667 2.258-6.608s-.76-5.162-2.258-6.608c-1.445-1.395-3.616-2.1-6.448-2.1Z" fill="#313235"/></svg>