<svg width="24" height="24" viewBox="0 0 24 24" fill="none" xmlns="http://www.w3.org/2000/svg">
<path fill-rule="evenodd" clip-rule="evenodd" d="M8.58825 17.0601H4.1821C3.46782 17.0601 2.94121 16.8808 2.57147 16.5167C2.19892 16.1441 2.01685 15.6147 2.01685 14.8948V6.6876C2.01685 5.27023 2.76474 4.52234 4.1821 4.52234H8.58545C9.9804 4.52234 10.7507 5.28984 10.7507 6.6876V8.62721L11.9804 8.62596L11.972 8.05174C11.9692 7.89767 12.0224 7.75762 12.1204 7.65958C12.2129 7.56714 12.3361 7.51672 12.465 7.51672C12.5798 7.51672 12.6947 7.55594 12.7955 7.63437L13.3069 8.01724C13.6635 7.51328 14.2658 7.25902 15.098 7.25902H19.5014C20.2156 7.25902 20.7423 7.43829 21.112 7.80244C21.4846 8.17218 21.6666 8.70159 21.6666 9.42148V17.6315C21.6666 19.0489 20.9187 19.7968 19.5014 19.7968H15.098C13.7031 19.7968 12.9328 19.0293 12.9328 17.6315V15.7436C12.9328 15.712 12.9354 15.6809 12.9405 15.6507L11.7507 15.6567L11.7395 16.2786C11.7339 16.5755 11.521 16.8024 11.2409 16.8024C11.1261 16.8024 11.0112 16.7632 10.9104 16.6876L10.3859 16.2969C10.3825 16.302 10.379 16.3071 10.3754 16.3122C10.0112 16.8136 9.42578 17.0601 8.58825 17.0601ZM9.48868 15.6286C9.48049 15.6385 9.47259 15.6489 9.46499 15.6595C9.41457 15.7296 9.26051 15.9425 8.58825 15.9425H4.1849C3.38379 15.9425 3.14009 15.6988 3.14009 14.8976V6.6876C3.14009 6.28984 3.21292 6.01533 3.36138 5.86687C3.50984 5.71841 3.78435 5.64278 4.1821 5.64278H8.58545C9.36695 5.64278 9.63026 5.90609 9.63026 6.6876V8.62834L9.21569 8.62876C9.01402 8.60916 8.81794 8.68198 8.67788 8.82764C8.55183 8.95649 8.4818 9.13016 8.48461 9.30383L8.4818 10.6428C8.4678 10.8276 8.52662 11.0069 8.64707 11.1442C8.77312 11.287 8.95239 11.3682 9.13726 11.3682H9.16808L9.63026 11.3706V12.4243C9.63026 12.5515 9.67325 12.6692 9.74542 12.7635L8.30533 13.8416C8.15688 13.9509 8.07284 14.1189 8.07284 14.2954C8.07284 14.4719 8.15968 14.6399 8.30814 14.7492L9.48868 15.6286ZM10.7507 12.0109L10.8908 11.9061C10.9916 11.8304 11.1064 11.7912 11.2213 11.7912C11.3529 11.7912 11.4762 11.8416 11.5658 11.9341C11.6639 12.0321 11.7171 12.1722 11.7143 12.3262L11.7059 12.9033L12.9328 12.9045V12.2971L12.7731 12.4159C12.6751 12.4887 12.5602 12.5279 12.4454 12.5279C12.1653 12.5279 11.9496 12.301 11.9468 12.0041L11.9356 11.3823L10.7507 11.3763V12.0109ZM14.0532 12.9056L14.4706 12.9061C14.6723 12.8893 14.8655 12.9621 15.0084 13.1049C15.1344 13.2338 15.2045 13.4075 15.2017 13.5811L15.2045 14.9201C15.2185 15.1049 15.1596 15.2842 15.0392 15.4215C14.9075 15.5699 14.7171 15.6539 14.5182 15.6427L14.0445 15.6451C14.0502 15.6771 14.0532 15.71 14.0532 15.7436V17.6315C14.0532 18.413 14.3165 18.6763 15.098 18.6763H19.5014C19.8991 18.6763 20.1736 18.6007 20.3221 18.4523C20.4705 18.3038 20.5434 18.0293 20.5434 17.6315V9.42148C20.5434 8.62036 20.2997 8.37666 19.4986 8.37666H15.098C14.4211 8.37666 14.263 8.59131 14.2038 8.68868L15.3809 9.56994C15.5294 9.68198 15.6134 9.84725 15.6134 10.0237C15.6134 10.2002 15.5266 10.3655 15.3781 10.4775L13.9635 11.5301C14.0202 11.6176 14.0532 11.7218 14.0532 11.8332V12.9056ZM6.87117 14.9593C6.87117 14.6259 6.68069 14.4691 6.38377 14.4691C6.08966 14.4691 5.89638 14.6259 5.89638 14.9593C5.89638 15.1217 5.9412 15.2394 6.01963 15.3206C6.10366 15.4074 6.22971 15.4495 6.38377 15.4495C6.53784 15.4495 6.66389 15.4074 6.74792 15.3206C6.82635 15.2394 6.87117 15.1189 6.87117 14.9593ZM17.7871 17.6819C17.7871 17.3486 17.5966 17.1918 17.2997 17.1918C17.0056 17.1918 16.8123 17.3458 16.8123 17.6819C16.8123 17.8444 16.8571 17.9621 16.9356 18.0433C17.0196 18.1301 17.1456 18.1721 17.2997 18.1721C17.4538 18.1721 17.5798 18.1301 17.6638 18.0433C17.7423 17.9621 17.7871 17.8416 17.7871 17.6819ZM12.1569 10.5447L9.32214 10.5307L9.32774 9.4719L12.2129 9.4691C12.3781 9.4691 12.535 9.40467 12.6499 9.28702C12.7647 9.16938 12.8291 9.01252 12.8263 8.84725L12.8235 8.70159L14.5854 10.0209L12.7759 11.3682L12.7731 11.1582C12.7703 10.822 12.493 10.5475 12.1569 10.5447ZM9.10085 14.2954L10.9104 15.6427L10.9132 15.4299C10.9188 15.0965 11.1933 14.822 11.5266 14.8192L14.3613 14.8052L14.3585 13.7464L11.4734 13.7436C11.3081 13.7436 11.1541 13.6792 11.0364 13.5615C10.9216 13.4439 10.8571 13.287 10.8599 13.1217L10.8627 12.9761L9.10085 14.2954Z" fill="#313235"/>
</svg>
