<svg width="24" height="24" viewBox="0 0 24 24" fill="none" xmlns="http://www.w3.org/2000/svg">
<path fill-rule="evenodd" clip-rule="evenodd" d="M11.8432 21.6723C8.71152 21.6723 6.28014 20.86 4.61628 19.2577C2.89079 17.5939 2.01404 15.1009 2.01404 11.8432C2.01404 8.58827 2.88799 6.09247 4.61628 4.4286C6.27734 2.82636 8.70872 2.01404 11.8432 2.01404C14.9776 2.01404 17.4062 2.82636 19.0701 4.4286C20.7956 6.09247 21.6723 8.58547 21.6723 11.8432C21.6723 15.1009 20.7956 17.5939 19.0701 19.2577C17.4062 20.86 14.9748 21.6723 11.8432 21.6723ZM11.8432 3.13729C9.01124 3.13729 6.84037 3.84317 5.39499 5.23813C3.89639 6.6807 3.13729 8.90479 3.13729 11.846C3.13729 14.7871 3.89639 17.0084 5.39499 18.4538C6.84037 19.8488 9.01124 20.5547 11.8432 20.5547C14.6751 20.5547 16.846 19.8488 18.2913 18.4538C19.7899 17.0112 20.5491 14.7871 20.5491 11.846C20.5491 8.90479 19.7899 6.68351 18.2913 5.23813C16.846 3.84317 14.6751 3.13729 11.8432 3.13729ZM15.0477 12.9076C14.3362 12.9076 13.7395 13.1177 13.325 13.5126C13.2409 13.5939 13.1625 13.6807 13.0953 13.7731L10.451 12.451C10.4874 12.2605 10.5042 12.0589 10.5042 11.8432C10.5042 11.6303 10.4874 11.4286 10.451 11.2409L13.0981 9.916C13.1513 9.98883 13.2101 10.0561 13.2717 10.1205C13.6919 10.5519 14.3054 10.7787 15.0477 10.7787C15.7899 10.7787 16.4034 10.5519 16.8236 10.1205C17.2381 9.69751 17.4482 9.10648 17.4482 8.36978C17.4482 7.59947 17.2213 6.99163 16.7731 6.56586C16.3558 6.1709 15.7591 5.96082 15.0505 5.96082C14.339 5.96082 13.7423 6.1709 13.3278 6.56586C12.8796 6.99163 12.6527 7.59947 12.6527 8.36978C12.6527 8.54625 12.6639 8.71152 12.6891 8.87118L9.99723 10.2157C9.94681 10.1541 9.89079 10.0925 9.83197 10.0364C9.4146 9.64149 8.81796 9.43141 8.10928 9.43141C7.40059 9.43141 6.80115 9.64149 6.38659 10.0364C5.93841 10.4622 5.71152 11.0701 5.71152 11.8404C5.71152 12.5799 5.9216 13.1681 6.33617 13.5911C6.75634 14.0224 7.36978 14.2493 8.11208 14.2493C8.85437 14.2493 9.46782 14.0224 9.88799 13.5911C9.91702 13.562 9.94298 13.5315 9.96927 13.5005L9.99723 13.4678L12.6919 14.8152C12.6695 14.972 12.6555 15.1373 12.6555 15.311C12.6555 16.0505 12.8656 16.6387 13.2801 17.0617C13.7003 17.493 14.3138 17.7199 15.0561 17.7199C15.7984 17.7199 16.4118 17.493 16.832 17.0617C17.2465 16.6387 17.4566 16.0477 17.4566 15.311C17.4566 14.5406 17.2297 13.9328 16.7815 13.507C16.3558 13.1177 15.7591 12.9076 15.0477 12.9076ZM15.0477 7.08407C15.9216 7.08407 16.3278 7.49303 16.3278 8.37258C16.3278 8.80676 16.2241 9.13449 16.0224 9.34177C15.8152 9.55465 15.4874 9.6611 15.0477 9.6611C14.6079 9.6611 14.2801 9.55465 14.0729 9.34177C13.8712 9.13449 13.7675 8.80956 13.7675 8.37258C13.7675 7.49303 14.1737 7.08407 15.0477 7.08407ZM7.12608 12.8124C7.33337 13.0252 7.6611 13.1317 8.10087 13.1317C8.54065 13.1317 8.86838 13.0252 9.07566 12.8124C9.14849 12.7395 9.20451 12.6499 9.25213 12.5491C9.25774 12.5322 9.26614 12.5154 9.27454 12.4986C9.34457 12.3194 9.38099 12.1009 9.38099 11.8432C9.38099 11.5967 9.35017 11.3894 9.28575 11.2157C9.28295 11.2129 9.28014 11.2073 9.27734 11.2017C9.26334 11.1765 9.25493 11.1513 9.24653 11.1261C9.06166 10.7395 8.68631 10.5547 8.10087 10.5547C7.22692 10.5547 6.82076 10.9636 6.82076 11.8432C6.82076 12.2801 6.9244 12.6051 7.12608 12.8124ZM16.0224 16.2857C15.8152 16.4986 15.4874 16.6051 15.0477 16.6051C14.6079 16.6051 14.2801 16.4986 14.0729 16.2857C13.8712 16.0785 13.7675 15.7535 13.7675 15.3166C13.7675 14.437 14.1737 14.028 15.0477 14.028C15.9216 14.028 16.3278 14.437 16.3278 15.3166C16.3278 15.7535 16.2241 16.0785 16.0224 16.2857Z" fill="#313235"/>
</svg>
