<svg width="24" height="24" viewBox="0 0 24 24" fill="none" xmlns="http://www.w3.org/2000/svg">
<path fill-rule="evenodd" clip-rule="evenodd" d="M11.843 21.6722C8.7114 21.6722 6.28002 20.8599 4.61616 19.2576C2.89067 17.5937 2.01392 15.1008 2.01392 11.843C2.01392 8.58815 2.88787 6.09235 4.61616 4.42848C6.27722 2.82624 8.70859 2.01392 11.843 2.01392C14.9775 2.01392 17.4061 2.82624 19.0699 4.42848C20.7954 6.09235 21.6722 8.58535 21.6722 11.843C21.6722 15.1008 20.7954 17.5937 19.0699 19.2576C17.4061 20.8599 14.9747 21.6722 11.843 21.6722ZM11.843 3.13717C9.01111 3.13717 6.84025 3.84305 5.39487 5.23801C3.89627 6.68058 3.13717 8.90467 3.13717 11.8458C3.13717 14.787 3.89627 17.0083 5.39487 18.4537C6.84025 19.8486 9.01111 20.5545 11.843 20.5545C14.675 20.5545 16.8458 19.8486 18.2912 18.4537C19.7898 17.0111 20.5489 14.787 20.5489 11.8458C20.5489 8.90467 19.7898 6.68338 18.2912 5.23801C16.8458 3.84305 14.675 3.13717 11.843 3.13717ZM15.0475 12.9075C14.336 12.9075 13.7394 13.1176 13.3248 13.5125C13.2408 13.5937 13.1624 13.6806 13.0951 13.773L10.4509 12.4509C10.4873 12.2604 10.5041 12.0587 10.5041 11.843C10.5041 11.6302 10.4873 11.4285 10.4509 11.2408L13.0979 9.91588C13.1512 9.98871 13.21 10.0559 13.2716 10.1204C13.6918 10.5517 14.3052 10.7786 15.0475 10.7786C15.7898 10.7786 16.4033 10.5517 16.8234 10.1204C17.238 9.69739 17.4481 9.10635 17.4481 8.36966C17.4481 7.59935 17.2212 6.99151 16.773 6.56574C16.3557 6.17078 15.759 5.96069 15.0503 5.96069C14.3388 5.96069 13.7422 6.17078 13.3276 6.56574C12.8795 6.99151 12.6526 7.59935 12.6526 8.36966C12.6526 8.54613 12.6638 8.7114 12.689 8.87106L9.99711 10.2156C9.94669 10.154 9.89067 10.0923 9.83184 10.0363C9.41448 9.64137 8.81784 9.43128 8.10915 9.43128C7.40047 9.43128 6.80103 9.64137 6.38647 10.0363C5.93829 10.4621 5.7114 11.0699 5.7114 11.8402C5.7114 12.5797 5.92148 13.168 6.33604 13.5909C6.75621 14.0223 7.36966 14.2492 8.11196 14.2492C8.85425 14.2492 9.4677 14.0223 9.88787 13.5909C9.91689 13.5619 9.94285 13.5314 9.96915 13.5004L9.99711 13.4677L12.6918 14.815C12.6694 14.9719 12.6554 15.1372 12.6554 15.3108C12.6554 16.0503 12.8655 16.6386 13.28 17.0615C13.7002 17.4929 14.3136 17.7198 15.0559 17.7198C15.7982 17.7198 16.4117 17.4929 16.8318 17.0615C17.2464 16.6386 17.4565 16.0475 17.4565 15.3108C17.4565 14.5405 17.2296 13.9327 16.7814 13.5069C16.3557 13.1176 15.759 12.9075 15.0475 12.9075ZM15.0475 7.08394C15.9215 7.08394 16.3276 7.49291 16.3276 8.37246C16.3276 8.80663 16.224 9.13436 16.0223 9.34165C15.815 9.55453 15.4873 9.66097 15.0475 9.66097C14.6078 9.66097 14.28 9.55453 14.0727 9.34165C13.8711 9.13436 13.7674 8.80943 13.7674 8.37246C13.7674 7.49291 14.1736 7.08394 15.0475 7.08394ZM7.12596 12.8122C7.33324 13.0251 7.66097 13.1316 8.10075 13.1316C8.54053 13.1316 8.86826 13.0251 9.07554 12.8122C9.14837 12.7394 9.20439 12.6498 9.25201 12.5489C9.25761 12.5321 9.26602 12.5153 9.27442 12.4985C9.34445 12.3192 9.38086 12.1008 9.38086 11.843C9.38086 11.5965 9.35005 11.3893 9.28562 11.2156C9.28282 11.2128 9.28002 11.2072 9.27722 11.2016C9.26322 11.1764 9.25481 11.1512 9.24641 11.126C9.06153 10.7394 8.68618 10.5545 8.10075 10.5545C7.2268 10.5545 6.82064 10.9635 6.82064 11.843C6.82064 12.28 6.92428 12.605 7.12596 12.8122ZM16.0223 16.2856C15.815 16.4985 15.4873 16.605 15.0475 16.605C14.6078 16.605 14.28 16.4985 14.0727 16.2856C13.8711 16.0783 13.7674 15.7534 13.7674 15.3164C13.7674 14.4369 14.1736 14.0279 15.0475 14.0279C15.9215 14.0279 16.3276 14.4369 16.3276 15.3164C16.3276 15.7534 16.224 16.0783 16.0223 16.2856Z" fill="#313235"/>
</svg>
