<svg width="24" height="24" viewBox="0 0 24 24" fill="none" xmlns="http://www.w3.org/2000/svg">
<path fill-rule="evenodd" clip-rule="evenodd" d="M20.6748 4.68907C20.8093 4.80392 20.9045 4.96918 20.9045 5.14845C20.9045 5.15448 20.9045 5.16355 20.9046 5.17557C20.905 5.69968 20.9107 11.8177 20.448 14.4958C19.8373 18.0476 13.2883 21.2689 12.5432 21.6246C12.5418 21.626 12.5397 21.626 12.5376 21.626C12.5355 21.626 12.5334 21.626 12.532 21.6274C12.4564 21.661 12.3723 21.6834 12.2855 21.6834C12.1959 21.6834 12.1118 21.6638 12.0362 21.6274C12.0348 21.626 12.0334 21.626 12.032 21.626C12.0306 21.626 12.0292 21.626 12.0278 21.6246C11.2827 21.2689 4.7421 18.0476 4.13146 14.4958C3.66868 11.8177 3.67437 5.69696 3.67486 5.17277C3.67487 5.16075 3.67488 5.15168 3.67488 5.14565C3.67768 4.95798 3.76451 4.78151 3.91017 4.66386C4.05863 4.54901 4.25191 4.5098 4.43118 4.55462C6.03342 4.80672 6.88215 4.23809 7.95778 3.5154C9.0194 2.80392 10.2211 2 12.2855 2H12.2939C14.3583 2 15.56 2.80392 16.6188 3.5154C17.6945 4.23809 18.5488 4.80672 20.1706 4.55182C20.3443 4.5238 20.5404 4.57422 20.6748 4.68907ZM11.6861 3.2577C10.3499 3.38935 9.5124 3.94958 8.63285 4.54061C7.62165 5.21848 6.57123 5.92156 4.89336 5.83473C4.90177 6.88795 4.92418 8.98878 5.02502 10.9552H11.6861V3.2577ZM5.33034 14.2885C5.2323 13.7283 5.15667 12.9916 5.09784 12.1849H11.6833V20.0728C9.48159 18.8879 5.70289 16.4481 5.33034 14.2885ZM12.8989 20.0728V12.1849H19.4872C19.4283 12.9916 19.3555 13.7283 19.2603 14.2885C18.8877 16.4481 15.1034 18.8879 12.8989 20.0728ZM19.6889 5.83473C19.6832 6.88795 19.6608 8.98878 19.56 10.9552H12.8989V3.2577C14.2242 3.38855 15.0596 3.94553 15.936 4.52986L15.9522 4.54061L15.9654 4.54953C16.9697 5.22466 18.01 5.92397 19.6889 5.83473Z" fill="#313235"/>
</svg>
