<svg xmlns="http://www.w3.org/2000/svg" width="24" height="24" fill="none"><path fill="#313235" d="M10.63 17.197h6.009c.829 0 1.532-.283 2.092-.843.53-.53.916-1.283 1.182-2.308.2-.77 1.44-4.983 1.902-6.535a.56.56 0 0 0-.538-.72H7.252a365.03 365.03 0 0 0-.44-2.535c-.218-1.219-1.37-2.101-2.736-2.101H2.723a.562.562 0 0 0-.56.56c0 .308.252.56.56.56h1.353c.812 0 1.512.505 1.633 1.177.182 1.017 1.501 8.689 1.636 9.54.162 1.029.546 1.832 1.137 2.39.569.532 1.31.815 2.148.815Zm-2.179-3.378c-.078-.507-.577-3.412-1.005-5.908h13.08c-.52 1.76-1.512 5.132-1.7 5.855-.535 2.072-1.504 2.31-2.187 2.31H10.63c-.557 0-1.02-.17-1.38-.51-.41-.386-.676-.971-.799-1.747Zm2.18 8.022c-.502 0-.903-.143-1.194-.423-.305-.294-.46-.706-.46-1.23 0-.523.155-.935.46-1.229.291-.28.695-.423 1.193-.423.499 0 .902.143 1.194.423.305.294.459.706.459 1.23 0 .523-.154.935-.46 1.23-.29.28-.691.422-1.193.422Zm-.533-1.652c0 .409.123.532.532.532.41 0 .533-.123.533-.532 0-.41-.127-.533-.533-.533-.409 0-.532.124-.532.533Zm5.995 1.652c-.502 0-.902-.143-1.194-.423-.305-.294-.46-.706-.46-1.23 0-.523.155-.935.46-1.229.292-.28.695-.423 1.194-.423.498 0 .901.143 1.193.423.302.294.46.706.46 1.23 0 .523-.155.935-.46 1.23-.292.28-.692.422-1.193.422Zm-.533-1.652c0 .409.124.532.533.532.409 0 .532-.123.532-.532 0-.41-.126-.533-.532-.533-.41 0-.533.124-.533.533Z"/></svg>