<svg width="24" height="24" viewBox="0 0 24 24" fill="none" xmlns="http://www.w3.org/2000/svg">
<path fill-rule="evenodd" clip-rule="evenodd" d="M21.7298 10.3222C21.9427 9.81236 21.8307 9.24373 21.4385 8.84317L15.3209 2.57427C14.7719 2.00845 13.7354 2.00845 13.1836 2.57427L7.1108 8.79835H4.72145C3.89512 8.79835 3.27047 9.02244 2.81669 9.48463C2.36851 9.94121 2.15002 10.5631 2.15002 11.3838V19.2521C2.15002 20.0925 2.36851 20.7199 2.82229 21.1709C3.27047 21.6191 3.89232 21.8347 4.72145 21.8347H8.63461C9.46374 21.8347 10.0856 21.6191 10.531 21.1709C10.9847 20.7171 11.206 20.0897 11.206 19.2493V17.9412H18.6598C19.4665 17.9412 20.122 17.3109 20.122 16.5378V11.2045H20.3713C20.9707 11.2045 21.5057 10.8572 21.7298 10.3222ZM20.6094 9.85157C20.6318 9.79555 20.6234 9.75073 20.573 9.70031L14.4553 3.42861C14.3573 3.32777 14.1472 3.32777 14.052 3.42861L8.79987 8.81236C9.54777 8.84037 10.122 9.05325 10.5422 9.47622C10.9903 9.93 11.2088 10.5547 11.2088 11.3866V16.7255H18.6626C18.8111 16.7255 18.9119 16.6303 18.9119 16.5434V10.5995C18.9119 10.2633 19.1836 9.98883 19.5197 9.98883H20.3741C20.5422 9.98603 20.5982 9.88238 20.6094 9.85157ZM9.99315 19.2493V11.381C9.99315 10.888 9.88951 10.5434 9.67943 10.3306C9.46934 10.1177 9.12761 10.014 8.63461 10.014H4.72145C4.23686 10.014 3.89512 10.1205 3.67943 10.339C3.46655 10.5547 3.36291 10.8964 3.36291 11.3782V19.2465C3.36291 19.7451 3.46655 20.0897 3.67663 20.2997C3.88672 20.5098 4.22845 20.6107 4.72145 20.6107H8.63461C9.12761 20.6107 9.46934 20.5098 9.67662 20.2997C9.88951 20.0925 9.99315 19.7479 9.99315 19.2493ZM6.67663 18.437C7.09119 18.437 7.34049 18.6891 7.34049 19.1065C7.34049 19.3109 7.28167 19.4734 7.16682 19.5939C7.05198 19.7143 6.88111 19.7759 6.67663 19.7759C6.47215 19.7759 6.30408 19.7115 6.18643 19.5939C6.07159 19.4762 6.01276 19.3109 6.01276 19.1065C6.01557 18.6863 6.26206 18.437 6.67663 18.437ZM14.6262 13.2409C14.6262 13.339 14.6262 13.4398 14.4021 13.4426C14.2368 13.4426 14.2228 13.3586 14.2256 13.2353C14.2256 13.1177 14.2368 13.0364 14.3965 13.0364H14.4413C14.6262 13.042 14.6262 13.1429 14.6262 13.2409ZM14.4525 12.2269C14.9483 12.2409 15.4357 12.5603 15.4357 13.2437C15.4357 13.93 14.9483 14.2465 14.4637 14.2577C13.9091 14.2521 13.4161 13.9356 13.4161 13.2409C13.4161 12.5462 13.9063 12.2297 14.3909 12.2269H14.4525ZM18.22 8.96922C16.7102 7.26894 14.4637 7.38379 14.3881 7.38939C12.0121 7.41423 10.7236 8.77665 10.6296 8.87597L10.6262 8.87958C10.4777 9.04485 10.4889 9.29975 10.6542 9.45101C10.8195 9.60507 11.0744 9.59107 11.2256 9.4258C11.2677 9.37818 12.3489 8.22412 14.4133 8.20171L14.4158 8.20164C14.4942 8.19916 16.3928 8.13901 17.615 9.51264C17.6962 9.60227 17.8083 9.64709 17.9175 9.64709C18.0127 9.64709 18.1108 9.61348 18.1864 9.54345C18.3545 9.39499 18.3685 9.13729 18.22 8.96922ZM14.3937 9.00003L14.4042 8.9999C14.5691 8.99728 16.2839 8.97004 17.3937 10.2213C17.5422 10.3894 17.5282 10.6443 17.3601 10.7955C17.1948 10.944 16.9371 10.93 16.7887 10.7619C15.8951 9.75914 14.4329 9.80115 14.4133 9.81236C12.9663 9.82889 12.0943 10.7431 12.0586 10.7804L12.0576 10.7815C11.9791 10.8712 11.8671 10.9132 11.7579 10.9132C11.6598 10.9132 11.5646 10.8768 11.4861 10.8096C11.3209 10.6583 11.3069 10.4034 11.4553 10.2381L11.4627 10.2305C11.5701 10.1188 12.6269 9.01903 14.3937 9.00003ZM16.4133 11.4706C15.643 10.5995 14.4385 10.6415 14.4049 10.6471C13.1864 10.6611 12.4665 11.4454 12.4385 11.4818C12.2901 11.6471 12.3013 11.902 12.4665 12.0532C12.545 12.1205 12.6402 12.1569 12.7382 12.1569C12.8475 12.1569 12.9567 12.1121 13.038 12.0252C13.0385 12.0247 13.0394 12.0238 13.0406 12.0225C13.086 11.9759 13.581 11.4676 14.4245 11.4594C14.4301 11.4482 15.2957 11.437 15.8083 12.0112C15.9567 12.1793 16.2144 12.1933 16.3797 12.0448C16.5478 11.8936 16.5618 11.6387 16.4133 11.4706Z" fill="#313235"/>
</svg>
