<svg width="24" height="24" viewBox="0 0 24 24" fill="none" xmlns="http://www.w3.org/2000/svg">
<path fill-rule="evenodd" clip-rule="evenodd" d="M19.7618 11.4594H21.1091C21.4453 11.4594 21.7142 11.7283 21.7142 12.0616C21.7142 12.3949 21.4425 12.6638 21.1091 12.6638H19.7338C19.2884 18.7507 14.1372 19.521 12.5265 19.6078V21.084C12.5265 21.4173 12.2548 21.6862 11.9215 21.6862C11.5882 21.6862 11.3164 21.4173 11.3164 21.084V19.6106C9.70581 19.5322 4.57136 18.7759 4.10918 12.6638H2.63019C2.29685 12.6638 2.02515 12.3949 2.02515 12.0616C2.02515 11.7283 2.29685 11.4594 2.63019 11.4594H4.07836C4.25203 4.74509 9.73662 4.04201 11.3164 3.98039V2.60224C11.3164 2.26891 11.5882 2 11.9215 2C12.2548 2 12.5265 2.26891 12.5265 2.60224V3.99439C14.2184 4.10084 19.5629 4.96638 19.7618 11.4594ZM12.5265 16.2689V18.4033C14.168 18.3109 18.1176 17.5658 18.5321 12.6638H16.2744C15.9411 12.6638 15.6694 12.3949 15.6694 12.0616C15.6694 11.7283 15.9411 11.4594 16.2744 11.4594H18.5545C18.3725 6.15686 14.2548 5.31372 12.5293 5.19887V7.41736C12.5293 7.75069 12.2576 8.0196 11.9243 8.0196C11.591 8.0196 11.3192 7.75069 11.3192 7.41736V5.18487C9.67499 5.24929 5.45091 5.96358 5.28845 11.4594H7.46771C7.80105 11.4594 8.07276 11.7283 8.07276 12.0616C8.07276 12.3949 7.80105 12.6638 7.46771 12.6638H5.31646C5.74223 17.591 9.6806 18.3221 11.3164 18.4061V16.2689C11.3164 15.9356 11.5882 15.6666 11.9215 15.6666C12.2548 15.6666 12.5265 15.9356 12.5265 16.2689Z" fill="#313235"/>
</svg>
