<svg width="24" height="24" fill="none" xmlns="http://www.w3.org/2000/svg"><path d="M15.577 21.398a2.086 2.086 0 0 0 2.218-.126 2.223 2.223 0 0 0 .9-2.19l-.712-4.329a.097.097 0 0 1 .025-.086l3.014-3.062a2.24 2.24 0 0 0 .524-2.291 2.152 2.152 0 0 0-1.714-1.468l-4.165-.63a.062.062 0 0 1-.045-.034c-.003-.003-.003-.003-.003-.006l-1.863-3.935a2.121 2.121 0 0 0-1.924-1.238c-.824 0-1.563.473-1.922 1.24L8.048 7.18l-.003.003v.003A.062.062 0 0 1 8 7.218l-4.165.63c-.796.121-1.454.681-1.715 1.466a2.234 2.234 0 0 0 .521 2.291l3.014 3.062c.02.022.031.053.026.087l-.712 4.324a2.213 2.213 0 0 0 .9 2.19 2.08 2.08 0 0 0 2.215.13l3.728-2.042a.042.042 0 0 1 .037 0l3.728 2.042Zm-3.202-2.995a1.12 1.12 0 0 0-1.084 0l-3.728 2.042a.98.98 0 0 1-1.064-.061 1.139 1.139 0 0 1-.454-1.126l.711-4.325a1.191 1.191 0 0 0-.32-1.025l-.002-.003L3.42 10.84a1.162 1.162 0 0 1-.266-1.185c.132-.4.448-.675.843-.733l4.168-.63h.006c.378-.062.697-.303.86-.65l1.862-3.933c.183-.387.533-.617.939-.617.406 0 .759.23.941.617l1.863 3.932c.16.348.482.589.86.65h.005l4.168.633c.395.06.71.334.843.734.11.33.099.815-.266 1.185l-3.016 3.065-.003.002c-.264.27-.381.653-.32 1.023l.712 4.325c.087.532-.177.93-.454 1.126a.981.981 0 0 1-1.064.061l-3.726-2.042Z" fill="#313235"/></svg>