<svg width="24" height="24" viewBox="0 0 24 24" fill="none" xmlns="http://www.w3.org/2000/svg">
<path fill-rule="evenodd" clip-rule="evenodd" d="M15.5771 21.3977C15.8936 21.5714 16.2381 21.6582 16.5827 21.6582C17.0084 21.6582 17.4314 21.5294 17.7956 21.2717C18.4902 20.7787 18.8348 19.9383 18.6947 19.0812L17.9832 14.7535C17.9776 14.7199 17.986 14.6891 18.0084 14.6666L21.0224 11.605C21.6163 11.0028 21.8152 10.126 21.5463 9.31372C21.2857 8.5294 20.6275 7.96638 19.832 7.84593L15.6667 7.21568C15.6471 7.21288 15.6303 7.19887 15.6219 7.18207C15.6191 7.17927 15.6191 7.17927 15.6191 7.17647L13.7564 3.2409C13.395 2.4762 12.6555 2.00281 11.832 2.00281C11.0085 2.00281 10.269 2.4762 9.91042 3.2437L8.04768 7.17927C8.04607 7.18088 8.04539 7.18156 8.04509 7.18239C8.04488 7.18299 8.04488 7.18368 8.04488 7.18487C8.03648 7.20168 8.01967 7.21568 8.00006 7.21848L3.8348 7.84873C3.03929 7.96918 2.38103 8.5294 2.12052 9.31372C1.84881 10.126 2.04769 11.0028 2.64153 11.605L5.65553 14.6666C5.67514 14.6891 5.68634 14.7199 5.68074 14.7535L4.96926 19.0784C4.8264 19.9355 5.17094 20.7759 5.86841 21.2689C6.52668 21.7367 7.37821 21.7843 8.0841 21.3977L11.8124 19.3557C11.8236 19.3501 11.8376 19.3501 11.8488 19.3557L15.5771 21.3977ZM12.3754 18.4033C12.2045 18.3109 12.0197 18.2633 11.832 18.2633C11.6443 18.2633 11.4594 18.3109 11.2914 18.4033L7.56309 20.4453C7.06449 20.7171 6.65273 20.493 6.49866 20.3837C6.22135 20.1876 5.95805 19.7871 6.04488 19.2577L6.75637 14.9328C6.81799 14.5602 6.70034 14.1765 6.43704 13.9075L6.43424 13.9047L3.42024 10.8403C3.05609 10.4706 3.04489 9.98598 3.15413 9.65545C3.28579 9.25489 3.60231 8.98038 3.99727 8.92156L8.16533 8.29131H8.17093C8.54908 8.22969 8.86841 7.98879 9.03087 7.64145L10.8936 3.70869C11.0757 3.32213 11.4258 3.09244 11.832 3.09244C12.2381 3.09244 12.5911 3.32213 12.7732 3.70869L14.6359 7.64145C14.7956 7.98879 15.1177 8.22969 15.4958 8.29131H15.5014L19.6695 8.92436C20.0645 8.98319 20.3782 9.25769 20.5126 9.65825C20.6219 9.98879 20.6107 10.4734 20.2465 10.8431L17.2297 13.9075L17.2269 13.9103C16.9636 14.1793 16.846 14.563 16.9076 14.9328L17.6191 19.2577C17.7059 19.7899 17.4426 20.1876 17.1653 20.3837C17.0112 20.493 16.5967 20.7171 16.1009 20.4453L12.3754 18.4033Z" fill="#313235"/>
</svg>
