<svg width="24" height="24" viewBox="0 0 24 24" fill="none" xmlns="http://www.w3.org/2000/svg">
<path fill-rule="evenodd" clip-rule="evenodd" d="M17.8348 6.45803C17.8376 5.38801 18.7059 4.52246 19.7759 4.52246C20.846 4.52246 21.7143 5.39081 21.7171 6.45803C21.7143 7.52806 20.8488 8.3936 19.7787 8.3936C19.6303 8.3936 19.493 8.374 19.3558 8.34318L16.958 12.3572C17.2241 12.6905 17.3894 13.1051 17.3894 13.5617V13.5645C17.3894 14.6345 16.5182 15.5028 15.4482 15.5028C14.3782 15.5028 13.5098 14.6317 13.5098 13.5617C13.5098 13.5302 13.5143 13.5006 13.5186 13.4712C13.522 13.4482 13.5254 13.4254 13.5267 13.402L9.40061 11.5953C9.04487 11.9818 8.54067 12.2255 7.97764 12.2255C7.85987 12.2255 7.74746 12.2041 7.63254 12.1822L7.6247 12.1807L5.41462 16.0771C5.71994 16.4188 5.91042 16.8614 5.91042 17.3544C5.90762 18.4244 5.03927 19.2899 3.96924 19.2899C2.89642 19.2899 2.02807 18.4216 2.02527 17.3544C2.02807 16.2843 2.89642 15.4188 3.96644 15.4188C4.08689 15.4188 4.20734 15.4328 4.32499 15.4552L6.53226 11.5645C6.22414 11.2171 6.03647 10.769 6.03647 10.29C6.03927 9.21993 6.90761 8.35439 7.97764 8.35439C9.04767 8.35439 9.91601 9.22273 9.91601 10.29C9.91601 10.3273 9.91103 10.3622 9.90605 10.397C9.90356 10.4145 9.90107 10.4319 9.89921 10.4496L14.0253 12.2563C14.381 11.8698 14.8852 11.6261 15.4482 11.6261C15.5995 11.6261 15.7479 11.6457 15.8964 11.6821L18.2857 7.68212C18.0084 7.34879 17.8348 6.92582 17.8348 6.45803ZM19.7759 7.1415C19.3978 7.1415 19.0897 6.83618 19.0897 6.45803C19.0897 6.07988 19.395 5.77176 19.7731 5.77176C20.1513 5.77176 20.4594 6.07708 20.4594 6.45523C20.4594 6.83618 20.1541 7.1415 19.7759 7.1415ZM7.97484 10.9734C7.59669 10.9594 7.30257 10.6429 7.31378 10.2647C7.32498 9.90621 7.6135 9.61769 7.97484 9.60369C8.35299 9.58968 8.66952 9.8866 8.68352 10.2647C8.69753 10.6429 8.40061 10.9594 8.02246 10.9734C8.00845 10.9762 7.99165 10.9762 7.97484 10.9734Z" fill="#313235"/>
</svg>
