<svg width="24" height="24" viewBox="0 0 24 24" fill="none" xmlns="http://www.w3.org/2000/svg">
<path fill-rule="evenodd" clip-rule="evenodd" d="M18.7465 11.3348H21.2143C21.5532 11.3348 21.8361 11.6149 21.8361 11.9482C21.8361 12.2871 21.5532 12.5673 21.2143 12.5673H18.7465C18.7219 12.5673 18.6994 12.5606 18.6757 12.5536C18.6617 12.5494 18.6473 12.5452 18.6317 12.542C18.5644 14.2815 18.0855 15.5532 17.4048 16.4692C17.4172 16.4772 17.4299 16.4843 17.4425 16.4914C17.4698 16.5068 17.4967 16.5219 17.5196 16.5448L19.077 18.0967C19.3263 18.3348 19.3263 18.7325 19.077 18.9706C18.9622 19.0967 18.8053 19.1527 18.6401 19.1527C18.4832 19.1527 18.3235 19.0939 18.2003 18.9706L16.6429 17.4188C16.6268 17.4028 16.6176 17.3844 16.6087 17.3668C16.6036 17.3566 16.5986 17.3467 16.5925 17.3376C15.2087 18.5084 13.486 18.7745 12.6065 18.8221C12.6065 18.8263 12.6086 18.8284 12.6107 18.8306C12.6128 18.8327 12.6149 18.8348 12.6149 18.839V21.2143C12.6149 21.5616 12.332 21.8333 11.993 21.8333C11.6457 21.8333 11.3712 21.5616 11.3712 21.2143V18.8221C10.4608 18.7661 8.80255 18.4916 7.46922 17.346C7.45242 17.3646 7.44308 17.3808 7.43374 17.397C7.42907 17.4051 7.4244 17.4132 7.4188 17.4216L5.85298 18.9734C5.78575 19.0462 5.69612 19.0883 5.60368 19.1219C5.50564 19.1863 5.38799 19.2283 5.27315 19.2283C5.10788 19.2283 4.94822 19.1695 4.83337 19.0462C4.58407 18.8081 4.58407 18.4188 4.83337 18.1723L6.53925 16.472C6.55313 16.4581 6.56701 16.4493 6.57949 16.4414C6.58967 16.435 6.59892 16.4291 6.60648 16.4216C5.95102 15.5168 5.50564 14.2619 5.43001 12.5532C5.41494 12.5532 5.3992 12.5573 5.38311 12.5614C5.36632 12.5657 5.34914 12.5701 5.33197 12.5701H2.77175C2.43282 12.5701 2.1499 12.2899 2.1499 11.951C2.1499 11.6121 2.43282 11.332 2.77175 11.332H5.33197C5.35664 11.332 5.37909 11.3386 5.40281 11.3456C5.4168 11.3498 5.43123 11.3541 5.44682 11.3572C5.56166 9.65689 6.07707 8.43561 6.77174 7.57006C6.75494 7.55326 6.73813 7.54392 6.72132 7.53458C6.71292 7.52991 6.70452 7.52524 6.69611 7.51964L4.97343 5.80256C4.73253 5.55606 4.73253 5.1667 4.97343 4.92861C5.21432 4.68211 5.61208 4.68211 5.85298 4.92861L7.57566 6.64569C7.591 6.65421 7.60012 6.66999 7.60869 6.68483C7.61421 6.69438 7.6195 6.70354 7.62608 6.71012C8.94261 5.68771 10.5084 5.44962 11.3712 5.3992V2.76895C11.3712 2.43001 11.6457 2.1499 11.993 2.1499C12.332 2.1499 12.6149 2.43001 12.6149 2.76895V5.4104C13.4608 5.46923 15.0518 5.72413 16.3852 6.76334C16.3918 6.7534 16.3971 6.74345 16.4022 6.73402C16.4099 6.71955 16.417 6.70629 16.4272 6.69611L18.2003 4.93141C18.4496 4.68491 18.839 4.68491 19.0798 4.93141C19.3291 5.17231 19.3291 5.55886 19.0798 5.80536L17.3067 7.57286C17.2944 7.58517 17.2821 7.59297 17.2665 7.60286C17.2608 7.60648 17.2547 7.61038 17.2479 7.61488C17.9594 8.48043 18.4832 9.68491 18.6149 11.36C18.6261 11.3576 18.6375 11.3545 18.6493 11.3513C18.6788 11.3433 18.7105 11.3348 18.7465 11.3348ZM11.7437 17.6065H12.3068C13.8418 17.5728 17.4104 16.9874 17.4104 12.1359C17.4104 7.28435 13.8138 6.67371 12.2731 6.63169H11.6849C7.13869 6.67371 6.6485 10.4692 6.6485 12.0939C6.6485 13.7297 7.14429 17.542 11.7437 17.6065Z" fill="#313235"/>
</svg>
