<svg width="24" height="24" fill="none" xmlns="http://www.w3.org/2000/svg"><path d="M19.282 5.608s.005 8.507.005 12.431c0 3.426-2.675 3.644-3.358 3.644-.101 0-.157-.002-.157-.002s-3.757.002-7.714.002c-3.958 0-3.521-3.641-3.521-3.641V5.622C4.539 2.193 7.293 2 7.915 2c.078 0 .123.003.123.003L15.788 2c3.81.003 3.494 3.608 3.494 3.608ZM5.73 5.622v11.157H18.1c0-4.236-.006-11.168-.006-11.168 0-.034.002-.068.005-.105V5.5s.062-1.014-.512-1.653c-.37-.406-.975-.614-1.796-.614h-7.75a.761.761 0 0 1-.082-.002h-.042c-.176 0-.79.025-1.308.35-.218.134-.88.546-.88 2.042Zm12.37 12.42v-.034H5.73v.034c0 .05-.003.1-.009.151 0 0-.092.989.457 1.62.37.422 1.003.638 1.882.638l7.715-.003c.03 0 .061 0 .095.003l.062.006c.988 0 2.167-.42 2.167-2.415Zm-5.463 1.221c0-.476-.274-.759-.73-.759-.457 0-.732.283-.732.76 0 .232.065.417.19.551.13.137.314.207.541.207.227 0 .412-.072.54-.207.127-.134.191-.32.191-.552Z" fill="#313235"/></svg>