<svg width="24" height="24" viewBox="0 0 24 24" fill="none" xmlns="http://www.w3.org/2000/svg">
<path fill-rule="evenodd" clip-rule="evenodd" d="M19.2815 5.60784C19.2815 5.60784 19.2871 14.1148 19.2871 18.0392C19.2871 21.465 16.612 21.6834 15.9285 21.6834C15.8277 21.6834 15.7717 21.6806 15.7717 21.6806C15.7717 21.6806 12.0154 21.6834 8.05739 21.6834C4.09942 21.6834 4.53639 18.042 4.53639 18.042V5.62184C4.53919 2.19328 7.29269 2 7.91454 2C7.99297 2 8.03779 2.0028 8.03779 2.0028L15.7885 2C19.598 2.0028 19.2815 5.60784 19.2815 5.60784ZM5.72967 5.62184C5.72967 4.12605 6.39073 3.71428 6.60922 3.57983C7.12742 3.2549 7.74087 3.22969 7.91734 3.22969H7.95935C7.97336 3.22969 7.98666 3.23039 7.99997 3.23109L7.99998 3.23109C8.01328 3.23179 8.02658 3.23249 8.04059 3.23249H15.7913C16.612 3.23249 17.217 3.43977 17.5868 3.84594C18.161 4.48459 18.0994 5.49859 18.0994 5.49859L18.0988 5.50637C18.0962 5.54265 18.0938 5.57664 18.0938 5.61064C18.0938 5.61064 18.0994 12.5434 18.0994 16.7787H5.72967V5.62184ZM18.0994 18.042C18.0994 20.0364 16.9201 20.4566 15.9313 20.4566L15.8697 20.451C15.8361 20.4482 15.8053 20.4482 15.7745 20.4482L8.06019 20.451C7.18064 20.451 6.54759 20.2353 6.17784 19.8123C5.62883 19.182 5.72126 18.1933 5.72126 18.1933C5.72686 18.1428 5.72967 18.0924 5.72967 18.042V18.0084H18.0994V18.042ZM12.6372 19.2633C12.6372 18.7871 12.3627 18.5042 11.9061 18.5042C11.4495 18.5042 11.175 18.7871 11.175 19.2633C11.175 19.4958 11.2395 19.6806 11.3655 19.8151C11.4944 19.9524 11.6792 20.0224 11.9061 20.0224C12.133 20.0224 12.3179 19.9496 12.4467 19.8151C12.5728 19.6806 12.6372 19.4958 12.6372 19.2633Z" fill="#313235"/>
</svg>
