<svg width="24" height="24" viewBox="0 0 24 24" fill="none" xmlns="http://www.w3.org/2000/svg">
<path fill-rule="evenodd" clip-rule="evenodd" d="M11.9734 5.34448C18.4048 5.34448 21.8026 8.67782 21.8026 14.9831C21.8026 16.4005 21.6261 17.6862 21.2732 18.8067C21.2647 18.8375 21.2507 18.8655 21.2367 18.8935L21.2171 18.9355C21.1135 19.14 20.9062 19.2661 20.6765 19.2661H3.26475C3.00424 19.2689 2.76895 19.1008 2.68772 18.8515C2.33198 17.7198 2.1499 16.4201 2.1499 14.9831C2.1499 8.67782 5.54766 5.34448 11.9734 5.34448ZM20.2311 18.084C20.4748 17.1652 20.5981 16.1232 20.5981 14.9831C20.5981 9.37249 17.6961 6.52656 11.9762 6.52656C6.25634 6.52656 3.35719 9.36969 3.35719 14.9831C3.35719 16.126 3.48043 17.168 3.72133 18.084H20.2311ZM12.8558 15.14C12.6289 14.9215 12.3208 14.7843 11.9762 14.7843C11.2844 14.7871 10.7241 15.3361 10.7269 16.014C10.7269 16.6946 11.2872 17.2436 11.979 17.2436C12.5645 17.2464 13.0743 16.8431 13.2031 16.2717L19.5673 14.4425C19.5687 14.4425 19.5701 14.4418 19.5715 14.4411L19.5736 14.4401C19.5743 14.4399 19.575 14.4397 19.5757 14.4397C19.8866 14.3473 20.0659 14.0196 19.9762 13.7086C19.8838 13.3949 19.5505 13.2156 19.2283 13.3081L12.8558 15.14ZM11.9622 9.79266C11.6317 9.79546 11.3628 9.53216 11.36 9.20163V8.40331C11.36 8.07838 11.6289 7.81227 11.9622 7.81227C12.2956 7.81227 12.5645 8.07838 12.5645 8.40331V9.20163C12.5645 9.52936 12.2956 9.79266 11.9622 9.79266ZM7.96223 10.154L7.3852 9.58818C7.1471 9.35849 6.76895 9.35849 6.53085 9.58818L6.51965 9.59938C6.29556 9.82908 6.30116 10.1988 6.53085 10.4229L7.11069 10.9915C7.22553 11.1036 7.37679 11.1652 7.53646 11.1652C7.69612 11.1652 7.84738 11.1036 7.96223 10.9915L7.97623 10.9775C8.19752 10.745 8.19192 10.3781 7.96223 10.154ZM5.94542 13.745C6.27875 13.745 6.54766 14.0083 6.54766 14.3361C6.54766 14.661 6.27875 14.9271 5.94542 14.9271H5.13029C4.80256 14.9299 4.53085 14.6666 4.52805 14.3361C4.52805 14.0083 4.79696 13.745 5.13029 13.745H5.94542ZM15.9566 10.9887C16.0687 11.1008 16.2227 11.1624 16.3824 11.1624C16.5421 11.1624 16.6961 11.1008 16.8082 10.9859L17.3852 10.4201L17.3964 10.4089C17.6205 10.1792 17.6149 9.80947 17.3852 9.58538C17.1499 9.35569 16.7718 9.35569 16.5337 9.58538L15.9566 10.1512L15.9426 10.1652C15.7213 10.3977 15.7269 10.7647 15.9566 10.9887Z" fill="#313235"/>
</svg>
