<svg width="24" height="24" fill="none" xmlns="http://www.w3.org/2000/svg"><path fill-rule="evenodd" clip-rule="evenodd" d="m21.68 11.31.006-7.775A1.54 1.54 0 0 0 20.151 2l-8.061.003c-.017 0-.107.008-.126.014-.412.075-.821.3-1.157.636l-8.149 8.143a2.26 2.26 0 0 0-.63 1.156c-.09.496.04.961.353 1.275l8.076 8.073c.26.26.605.386.974.386.493 0 1.028-.227 1.463-.66l8.148-8.144c.336-.325.557-.75.636-1.213.003-.028.008-.12.008-.148l-.005-.21Zm-1.257.203c-.022.148-.126.325-.277.476L12 20.132c-.283.285-.594.316-.65.274l-8.075-8.073c-.034-.05-.012-.353.28-.644L11.7 3.546c.149-.151.334-.257.443-.283h8.008a.27.27 0 0 1 .272.27l-.008 7.795.008.185Zm-2.79-3.751c.625-.625.62-1.238-.017-1.877-.322-.322-.638-.484-.952-.484-.308 0-.616.156-.925.465-.624.624-.619 1.238.017 1.876.636.639 1.25.647 1.877.02Zm.874-2.768c-1.134-1.137-2.54-1.142-3.664-.02-1.126 1.124-1.117 2.53.02 3.667.571.572 1.207.858 1.846.858.63 0 1.257-.28 1.818-.84 1.123-1.124 1.117-2.527-.02-3.665Z" fill="#313235"/></svg>