<svg xmlns="http://www.w3.org/2000/svg" width="24" height="24" fill="none"><path fill="#0B2739" d="m21.836 11.466.005-7.776a1.54 1.54 0 0 0-1.535-1.535l-8.061.003c-.017 0-.107.008-.126.014-.412.075-.821.3-1.157.636L2.813 10.95c-.33.33-.551.742-.63 1.156-.09.496.04.961.353 1.275l8.076 8.073c.26.26.605.386.974.386.493 0 1.028-.227 1.463-.66l8.148-8.144c.336-.325.558-.75.636-1.213.003-.028.008-.12.008-.148l-.005-.21Zm-1.258.202c-.022.148-.126.325-.277.476l-8.146 8.143c-.283.285-.594.316-.65.274L3.43 12.488c-.034-.05-.012-.353.28-.644l8.145-8.143c.149-.151.334-.257.443-.283h8.008a.27.27 0 0 1 .272.27l-.008 7.795.008.185Zm-2.79-3.751c-.627.627-1.24.619-1.877-.02-.636-.638-.641-1.252-.016-1.876.308-.309.616-.465.924-.465.314 0 .63.162.952.484.636.639.642 1.252.017 1.877Zm.874-2.768c-1.134-1.137-2.54-1.142-3.664-.02-1.126 1.124-1.117 2.53.02 3.667.571.572 1.207.858 1.846.858.63 0 1.258-.28 1.818-.84 1.123-1.124 1.117-2.527-.02-3.665Z"/></svg>