<svg width="24" height="24" viewBox="0 0 24 24" fill="none" xmlns="http://www.w3.org/2000/svg">
<path fill-rule="evenodd" clip-rule="evenodd" d="M14.5994 11.5826C14.563 11.5826 14.5238 11.5798 14.4874 11.5742C14.0728 11.5126 13.7367 11.112 13.7367 10.6863V9.12604H13.6274C12.7563 9.12604 12.098 8.43136 12.098 7.5126V3.61344C12.098 2.72269 12.8207 2 13.7115 2H20.0784C20.9692 2 21.6918 2.72269 21.6918 3.61344V7.5154C21.6918 8.40615 20.9692 9.12884 20.0784 9.12884H16.7899C16.4762 9.62464 15.8123 10.6695 15.6806 10.8683C15.3893 11.3137 14.9748 11.5826 14.5994 11.5826ZM13.7115 3.12045C13.4398 3.12045 13.2185 3.34174 13.2185 3.61344V7.5154C13.2185 7.76189 13.3445 8.00839 13.6274 8.00839H14.2969C14.605 8.00839 14.8571 8.26049 14.8571 8.56861V10.0784C15.1848 9.56861 16 8.2829 16.0084 8.2689C16.112 8.10643 16.2885 8.00839 16.4818 8.00839H20.0784C20.3501 8.00839 20.5714 7.78711 20.5714 7.5154V3.61344C20.5714 3.34174 20.3501 3.12045 20.0784 3.12045H13.7115ZM5.75349 14.084C6.40895 14.7787 7.35573 15.1288 8.57141 15.1288C9.7843 15.1288 10.7339 14.7787 11.3893 14.0812C12.0056 13.4286 12.3193 12.5182 12.3193 11.3781C12.3193 10.2381 12.0056 9.32772 11.3893 8.67506C10.7339 7.98318 9.78711 7.63024 8.57141 7.63024C7.35573 7.63024 6.40895 7.98318 5.75349 8.67786C5.13725 9.33052 4.82353 10.2409 4.82353 11.3809C4.82353 12.521 5.13445 13.4314 5.75349 14.084ZM8.57141 8.75069C6.82632 8.75069 5.94397 9.63584 5.94397 11.3781C5.94397 13.1204 6.82912 14.0056 8.57141 14.0056C10.3137 14.0056 11.1989 13.1204 11.1989 11.3781C11.1989 9.63584 10.3137 8.75069 8.57141 8.75069ZM2.56023 21.6834H14.5798C14.8907 21.6834 15.14 21.4341 15.14 21.1232V20.084C15.14 18.7395 14.7843 17.7031 14.0812 16.9944C13.3781 16.2857 12.3445 15.9271 11.0056 15.9271H6.13445C4.79831 15.9271 3.7619 16.2885 3.05882 16.9944C2.35574 17.7003 2 18.7395 2 20.084V21.1232C2 21.4313 2.25211 21.6834 2.56023 21.6834ZM3.12045 20.563H14.0196V20.084C14.0196 19.0476 13.7731 18.2717 13.2885 17.7843C12.8039 17.2969 12.0364 17.0476 11.0084 17.0476H6.13445C5.10643 17.0476 4.33893 17.2941 3.85434 17.7843C3.36975 18.2745 3.12045 19.0476 3.12045 20.084V20.563ZM14.7086 6.38374C14.2521 6.38374 13.8823 6.014 13.8823 5.55742C13.8823 5.10083 14.2521 4.73109 14.7086 4.73109C15.1652 4.73109 15.535 5.10083 15.535 5.55742C15.535 6.014 15.1652 6.38374 14.7086 6.38374ZM14.7086 5.29131C14.563 5.29131 14.4426 5.41176 14.4426 5.55742C14.4426 5.70308 14.563 5.82352 14.7086 5.82352C14.8543 5.82352 14.9748 5.70308 14.9748 5.55742C14.9748 5.41176 14.8571 5.29131 14.7086 5.29131ZM16.8935 6.38374C16.437 6.38374 16.0672 6.014 16.0672 5.55742C16.0672 5.10083 16.437 4.73109 16.8935 4.73109C17.3501 4.73109 17.7199 5.10083 17.7199 5.55742C17.7199 6.014 17.3501 6.38374 16.8935 6.38374ZM16.8935 5.29131C16.7479 5.29131 16.6274 5.41176 16.6274 5.55742C16.6274 5.70308 16.7479 5.82352 16.8935 5.82352C17.0392 5.82352 17.1596 5.70308 17.1596 5.55742C17.1596 5.41176 17.042 5.29131 16.8935 5.29131ZM18.2521 5.55742C18.2521 6.014 18.6218 6.38374 19.0784 6.38374C19.535 6.38374 19.9047 6.014 19.9047 5.55742C19.9047 5.10083 19.535 4.73109 19.0784 4.73109C18.6218 4.73109 18.2521 5.10083 18.2521 5.55742ZM18.8123 5.55742C18.8123 5.41176 18.9327 5.29131 19.0784 5.29131C19.2269 5.29131 19.3445 5.41176 19.3445 5.55742C19.3445 5.70308 19.2241 5.82352 19.0784 5.82352C18.9327 5.82352 18.8123 5.70308 18.8123 5.55742Z" fill="#313235"/>
</svg>
