<svg width="24" height="24" fill="none" xmlns="http://www.w3.org/2000/svg"><path fill-rule="evenodd" clip-rule="evenodd" d="M11.773 6.604a.605.605 0 0 1-.613-.6l.014-2.571a.606.606 0 0 1 .616-.591h.003a.605.605 0 0 1 .613.6l-.014 2.57a.606.606 0 0 1-.616.592h-.003Zm-7.375 5.134c.392.361.958.546 1.683.546.726 0 1.292-.185 1.686-.546.41-.378.617-.936.617-1.661 0-.726-.208-1.286-.617-1.664-.392-.364-.96-.546-1.686-.546-.725 0-1.291.185-1.683.549-.406.378-.614.938-.614 1.664 0 .725.208 1.283.614 1.658Zm10.907-1.653c0 .726.208 1.283.617 1.659.392.361.957.546 1.686.549.728 0 1.294-.185 1.686-.547.403-.375.61-.932.61-1.658 0-.725-.204-1.286-.61-1.664-.395-.367-.958-.549-1.686-.549-.726 0-1.294.182-1.687.546-.408.379-.616.939-.616 1.664Zm1.233 0c0-.269.039-.624.235-.806.196-.18.56-.213.832-.213.272 0 .636.033.83.213.192.182.234.537.234.806 0 .27-.039.622-.232.801-.19.177-.555.213-.83.213-.274 0-.64-.036-.834-.215-.196-.177-.235-.533-.235-.799ZM5.252 9.27c-.193.182-.235.538-.235.807 0 .266.042.622.232.801.19.177.558.213.83.213.271 0 .638-.036.834-.216.193-.179.235-.532.235-.798s-.042-.625-.235-.807c-.196-.179-.56-.215-.832-.215-.271 0-.638.036-.829.215ZM7.938 6.07l1.157 1.128a.63.63 0 0 0 .874.006c.241-.232.241-.61.003-.843L8.815 5.23a.634.634 0 0 0-.871-.003.579.579 0 0 0-.006.84Zm6.087 1.305a.631.631 0 0 1-.434-.171.579.579 0 0 1-.006-.84l1.157-1.13a.635.635 0 0 1 .874-.005c.241.23.244.608.003.84l-1.157 1.13a.617.617 0 0 1-.437.176Zm6.426 8.336-.04 3.986h-1.039v-2.728a.606.606 0 0 0-.616-.594.605.605 0 0 0-.616.594v2.728h-3.426l.028-2.602.014-1.255c0-.076-.014-.317-.064-.429a1.43 1.43 0 0 0-.196-.285l-.61-.77-1.41-1.785v-1.42l2 2.594s.224.305.308.397c.076.084.272.222.378.258.132.048.359.05.507.048.07-.002.138-.001.206 0H16.084c.027-.002.056-.002.083 0h2.839c.355 0 .84.059 1.131.353.26.26.314.638.314.91Zm-9.24-3.149v-1.42l-2 2.597s-.225.305-.31.398a1.194 1.194 0 0 1-.377.258c-.132.047-.362.05-.507.047H7.81c-.068 0-.134.002-.197 0H4.681c-.356 0-.838.062-1.132.356-.258.26-.314.638-.314.91l.04 3.986h1.039v-2.728c0-.328.277-.594.616-.594.339 0 .616.266.616.594v2.728h3.426l-.025-2.605-.017-1.255c0-.075.017-.316.064-.428.054-.124.196-.286.196-.286l.611-.77 1.41-1.787Zm10.475 3.152c0-.706-.227-1.305-.658-1.737-.47-.47-1.168-.72-2.022-.717h-2.802c-.187 0-.367.014-.537.04l-3.309-4.295-.002-.003-.006-.005a.078.078 0 0 0-.02-.021.178.178 0 0 1-.01-.01.573.573 0 0 0-.104-.098.136.136 0 0 0-.03-.016 1.14 1.14 0 0 1-.054-.028c-.025-.014-.05-.028-.079-.037-.001-.002-.003-.002-.005-.002l-.006-.001c-.008 0-.011 0-.02-.003 0 0 0-.003-.002-.003h-.006a.632.632 0 0 0-.146-.022c-.007 0-.013-.002-.02-.003a.088.088 0 0 0-.019-.003.656.656 0 0 0-.165.025c-.009 0-.014 0-.023.003-.001.002-.003.002-.005.002l-.006.001a.542.542 0 0 0-.103.05l-.009.006-.017.008c-.01.005-.022.01-.033.017a.49.49 0 0 0-.104.098.14.14 0 0 1-.011.01c-.007.006-.014.011-.02.018l-.005.009-.003.003-3.308 4.29a3.673 3.673 0 0 0-.538-.041H4.678c-.852 0-1.55.25-2.02.72C2.227 14.402 2 15 2 15.704l.05 4.928c0 .137.115.249.26.249h7.645c.146 0 .264-.11.264-.25l-.051-4.784 1.672-2.117 1.678 2.123-.047 4.784c0 .137.117.25.26.25h7.644c.143 0 .26-.113.26-.25l.051-4.924Z" fill="#313235"/></svg>