<svg width="24" height="24" fill="none" xmlns="http://www.w3.org/2000/svg"><path fill-rule="evenodd" clip-rule="evenodd" d="M15.25 7.11c-.293 0-.551.053-.77.154-.341.16-.647.468-.907.916-.107.18-.196.367-.272.563l-.008.009-3.779 1.761h-.011a3.64 3.64 0 0 0-1.118-.198c-.291 0-.552.053-.77.154-.342.16-.647.467-.908.916-.109.187-.204.38-.28.585a.672.672 0 0 0 .067.622.617.617 0 0 0 .51.26.713.713 0 0 0 .311-.072l.493-.23.314.168-.073.35-.493.23a.663.663 0 0 0-.403.619c.008.26.185.484.45.582.06.023.583.208 1.14.208.292 0 .553-.054.771-.154.339-.166.644-.474.908-.922.106-.18.196-.367.271-.563l.009-.008 3.781-1.762h.011c.118.042.603.199 1.118.199.294 0 .552-.054.77-.154.342-.16.647-.468.908-.916.11-.188.204-.381.28-.586a.672.672 0 0 0-.067-.622.617.617 0 0 0-.51-.26.713.713 0 0 0-.31.073l-.494.23-.314-.169.073-.35.493-.23c.258-.12.412-.358.4-.619-.01-.26-.181-.481-.45-.582l-.029-.01c-.13-.04-.604-.192-1.111-.192Zm0 .56c.477 0 .948.174.948.174.111.042.114.115.008.165l-.552.258a.49.49 0 0 0-.24.302l-.13.611c-.02.126.037.25.146.314l.549.294c.064.03.137.048.207.045a.437.437 0 0 0 .18-.037l.551-.257a.166.166 0 0 1 .073-.02c.056 0 .079.05.05.132 0 0-.33.916-.896 1.182-.16.075-.347.1-.535.1-.476 0-.947-.173-.947-.173a.525.525 0 0 0-.173-.028.627.627 0 0 0-.227.042l-3.82 1.787a.597.597 0 0 0-.27.294s-.33.916-.896 1.182c-.16.076-.347.101-.535.101-.476 0-.947-.174-.947-.174-.112-.042-.115-.114-.008-.168l.552-.257a.49.49 0 0 0 .24-.303l.13-.61a.31.31 0 0 0-.146-.314l-.55-.294a.446.446 0 0 0-.207-.045.436.436 0 0 0-.179.036l-.552.258a.166.166 0 0 1-.073.02c-.056 0-.078-.05-.05-.132 0 0 .33-.916.896-1.182.16-.076.348-.101.535-.101.477 0 .947.174.947.174.056.02.115.028.174.028a.627.627 0 0 0 .227-.042l3.82-1.785a.598.598 0 0 0 .27-.294s.33-.916.896-1.182c.16-.073.347-.1.535-.1Z" fill="#313235"/><path fill-rule="evenodd" clip-rule="evenodd" d="M5.441 16.948h13.11c1.098 0 1.94-.328 2.504-.972.52-.6.787-1.468.787-2.583V8.455c0-1.115-.264-1.984-.787-2.583-.563-.644-1.407-.972-2.505-.972H5.441c-1.1 0-1.941.328-2.504.972-.521.6-.787 1.468-.787 2.583v4.938c0 1.115.266 1.983.787 2.585.563.642 1.406.97 2.504.97ZM3.783 6.612c.344-.395.885-.589 1.658-.589l13.11-.003c.77 0 1.313.194 1.658.589.339.39.512 1.01.512 1.846v4.938c0 .835-.173 1.457-.512 1.846-.345.395-.888.588-1.659.588H5.441c-.77 0-1.314-.193-1.658-.588-.339-.39-.513-1.011-.513-1.846V8.455c0-.835.174-1.457.513-1.843Z" fill="#313235"/><path d="M21.248 19.133H2.744a.562.562 0 0 1-.56-.56c0-.309.252-.56.56-.56h18.504c.308 0 .56.251.56.56 0 .307-.252.56-.56.56Z" fill="#313235"/></svg>