<svg width="24" height="24" viewBox="0 0 24 24" fill="none" xmlns="http://www.w3.org/2000/svg">
<path fill-rule="evenodd" clip-rule="evenodd" d="M5.44134 16.9475H18.5506C19.6486 16.9475 20.4917 16.6198 21.0548 15.9755C21.5758 15.3761 21.8419 14.5077 21.8419 13.3929V8.45452C21.8419 7.33967 21.5786 6.47133 21.0548 5.87189C20.4917 5.22763 19.6486 4.8999 18.5506 4.8999H5.44134C4.3405 4.8999 3.50016 5.22763 2.93714 5.87189C2.41613 6.47133 2.15002 7.33967 2.15002 8.45452V13.3929C2.15002 14.5077 2.41613 15.3761 2.93714 15.9783C3.50016 16.6198 4.3433 16.9475 5.44134 16.9475ZM3.78308 6.61138C4.12761 6.21643 4.66823 6.02315 5.44134 6.02315L18.5506 6.02035C19.3209 6.02035 19.8643 6.21363 20.2088 6.60858C20.5478 6.99794 20.7214 7.61979 20.7214 8.45452V13.3929C20.7214 14.2276 20.5478 14.8495 20.2088 15.2388C19.8643 15.6338 19.3209 15.8271 18.5506 15.8271H5.44134C4.67103 15.8271 4.12761 15.6338 3.78308 15.2388C3.44414 14.8495 3.27047 14.2276 3.27047 13.3929V8.45452C3.27047 7.61979 3.44414 6.99794 3.78308 6.61138ZM15.0015 19.1324H8.99315C8.68503 19.1324 8.43293 18.8803 8.43293 18.5722C8.43293 18.264 8.68503 18.0119 8.99315 18.0119H15.0015C15.3097 18.0119 15.5618 18.264 15.5618 18.5722C15.5618 18.8803 15.3097 19.1324 15.0015 19.1324ZM15.2508 7.10998C14.9567 7.10998 14.699 7.1632 14.4805 7.26404C14.1388 7.42371 13.8335 7.73183 13.573 8.18001C13.4665 8.35928 13.3769 8.54696 13.3013 8.74303L13.2929 8.75144L9.51416 10.5133H9.50295C9.38531 10.4713 8.90071 10.3145 8.38531 10.3145C8.09399 10.3145 7.83349 10.3677 7.615 10.4685C7.27327 10.6282 6.96794 10.9363 6.70744 11.3845C6.5982 11.5722 6.50296 11.7654 6.42733 11.9699C6.3489 12.1912 6.37131 12.4181 6.49456 12.5918C6.6122 12.757 6.80268 12.8551 7.00436 12.8523C7.1108 12.8523 7.21724 12.8271 7.31528 12.7794L7.80828 12.5498L8.122 12.7178L8.04918 13.068L7.55618 13.2976C7.29848 13.4181 7.14441 13.6562 7.15282 13.9139C7.16122 14.1716 7.33769 14.3985 7.6038 14.4965C7.66262 14.5189 8.18643 14.7038 8.74385 14.7038C9.03517 14.7038 9.29567 14.6506 9.51416 14.5497C9.85309 14.3873 10.1584 14.0792 10.4217 13.631C10.5282 13.4517 10.6178 13.264 10.6934 13.068L10.7018 13.0596L14.4833 11.2977H14.4945C14.6122 11.3397 15.0968 11.4965 15.6122 11.4965C15.9063 11.4965 16.164 11.4433 16.3825 11.3425C16.7242 11.1828 17.0296 10.8747 17.2901 10.4265C17.3993 10.2388 17.4945 10.0456 17.5702 9.84107C17.6486 9.61978 17.6262 9.39289 17.5029 9.21922C17.3853 9.05396 17.1948 8.95592 16.9931 8.95872C16.8867 8.95872 16.7803 8.98393 16.6822 9.03155L16.1892 9.26124L15.8755 9.09317L15.9483 8.74303L16.4413 8.51334C16.699 8.39289 16.8531 8.1548 16.8419 7.8943C16.8307 7.63379 16.6598 7.4097 16.3909 7.31166C16.3853 7.31007 16.3756 7.30697 16.3621 7.30267C16.233 7.2615 15.758 7.10998 15.2508 7.10998ZM15.2508 7.67021C15.727 7.67021 16.1976 7.84388 16.1976 7.84388C16.3097 7.88589 16.3125 7.95872 16.206 8.00914L15.6542 8.26684C15.5366 8.33127 15.4469 8.44051 15.4133 8.56936L15.2845 9.18001C15.2649 9.30606 15.3209 9.42931 15.4301 9.49373L15.9791 9.78785C16.0436 9.81866 16.1164 9.83547 16.1864 9.83267C16.248 9.83267 16.3097 9.82146 16.3657 9.79625L16.9175 9.53855C16.9399 9.52735 16.9651 9.51894 16.9903 9.51894C17.0464 9.51894 17.0688 9.56936 17.0408 9.6506C17.0408 9.6506 16.7102 10.5666 16.1444 10.8327C15.9847 10.9083 15.7971 10.9335 15.6094 10.9335C15.1332 10.9335 14.6626 10.7598 14.6626 10.7598C14.6066 10.7402 14.5478 10.7318 14.4889 10.7318C14.4105 10.7318 14.3349 10.7458 14.2621 10.7738L10.4413 12.561C10.3209 12.6254 10.2256 12.729 10.1724 12.8551C10.1724 12.8551 9.84189 13.771 9.27606 14.0371C9.1164 14.1128 8.92873 14.138 8.74105 14.138C8.26486 14.138 7.79427 13.9643 7.79427 13.9643C7.68223 13.9223 7.67943 13.8495 7.78587 13.7962L8.33769 13.5385C8.45534 13.4741 8.54497 13.3649 8.57859 13.236L8.70744 12.6254C8.72705 12.4993 8.66822 12.3761 8.56178 12.3117L8.01276 12.0175C7.94834 11.9867 7.87551 11.9699 7.80548 11.9727C7.74385 11.9727 7.68223 11.9839 7.62621 12.0091L7.07439 12.2668C7.05198 12.278 7.02677 12.2864 7.00156 12.2864C6.94554 12.2864 6.92313 12.236 6.95114 12.1548C6.95114 12.1548 7.28167 11.2388 7.8475 10.9727C8.00716 10.8971 8.19483 10.8719 8.38251 10.8719C8.8587 10.8719 9.32929 11.0456 9.32929 11.0456C9.38531 11.0652 9.44413 11.0736 9.50295 11.0736C9.58139 11.0736 9.65702 11.0596 9.72985 11.0315L13.5506 9.24724C13.671 9.18281 13.7663 9.07917 13.8195 8.95312C13.8195 8.95312 14.15 8.03715 14.7158 7.77105C14.8755 7.69822 15.0632 7.67021 15.2508 7.67021Z" fill="#313235"/>
</svg>
