<svg width="24" height="24" fill="none" xmlns="http://www.w3.org/2000/svg"><path d="M20.456 2.16H12.87a1.401 1.401 0 0 0-.991 2.392l.697.698-6.221 6.22a1.402 1.402 0 0 0 0 1.981l4.196 4.2a1.401 1.401 0 0 0 1.98 0l6.222-6.225.708.712c.26.263.617.411.99.411.772 0 1.4-.627 1.402-1.4V3.56c0-.774-.624-1.401-1.397-1.401Zm0 1.12a.28.28 0 0 1 .28.28v7.586a.28.28 0 0 1-.28.28h-.003a.274.274 0 0 1-.196-.084L18.76 9.846c-.07.062-.14.124-.204.194l-6.816 6.818a.279.279 0 0 1-.394 0l-4.2-4.2a.279.279 0 0 1 0-.394l6.816-6.815a.279.279 0 0 0 0-.395L12.67 3.762a.279.279 0 0 1 .2-.476h7.585V3.28ZM2.156 21.29a.56.56 0 0 0 .955.395l4.65-4.647a.561.561 0 0 0-.807-.779l-4.633 4.633a.562.562 0 0 0-.165.398Zm5.597.563a.562.562 0 0 1-.56-.56.55.55 0 0 1 .165-.395c.933-.934 2.018-2.063 2.243-2.298l.042-.044a.562.562 0 0 1 .821.765l-.008.01c-.011.015-1.252 1.309-2.303 2.36a.583.583 0 0 1-.4.162Zm-5.547-5.546a.562.562 0 0 0 .958.397 163.972 163.972 0 0 0 2.311-2.37.562.562 0 0 0-.82-.764l-.043.044c-.225.235-1.31 1.364-2.243 2.298a.56.56 0 0 0-.163.395Z" fill="#313235"/></svg>