<svg width="24" height="24" viewBox="0 0 24 24" fill="none" xmlns="http://www.w3.org/2000/svg">
<path fill-rule="evenodd" clip-rule="evenodd" d="M21.8463 10.1656C21.8463 10.7707 21.6782 11.2245 21.4654 11.5578C21.6754 11.9051 21.8463 12.3897 21.8491 13.0592C21.8491 14.5886 20.6698 15.3421 19.4654 15.4065H16.0536L13.9836 15.4682C13.9864 16.2945 13.9892 17.8239 13.9892 19.0816L13.9948 19.2133L13.9976 19.3113C13.9976 20.8995 13.062 21.8463 11.499 21.8463C10.681 21.8463 10.0144 21.5942 9.5718 21.118C9.27768 20.7987 8.93594 20.2189 9.00317 19.2693L9.02278 19.0396L9.02439 19.024C9.03224 18.9486 9.03977 18.8761 9.04239 18.7791L9.04519 18.7371C9.0704 17.625 9.0844 16.2217 8.97516 15.0984C8.85751 13.8659 7.63903 13.104 7.09001 12.8239C6.84351 13.0144 6.53819 13.132 6.20485 13.132H3.61382C2.8127 13.132 2.16003 12.4794 2.16003 11.6754V4.0816C2.16003 3.27768 2.8127 2.62502 3.61382 2.62502H6.20485C6.54379 2.62782 6.87152 2.74827 7.13202 2.96676C7.15194 2.96243 7.1716 2.95702 7.19123 2.95163C7.2351 2.93957 7.27886 2.92754 7.3253 2.92754L10.1292 2.89113C10.2889 2.89113 10.5438 2.8183 10.8603 2.72586L11.0676 2.66704C11.8379 2.44015 12.7959 2.16003 15.0536 2.16003C18.667 2.16003 19.5662 2.49057 20.1292 4.01438C20.1432 4.04799 20.1544 4.0872 20.16 4.12362C20.2357 4.5802 20.2413 4.97236 20.1712 5.3197C20.9079 5.78188 21.3197 6.46255 21.3197 7.24967C21.3197 7.73987 21.2245 8.12362 21.0984 8.41774C21.583 8.90233 21.8463 9.51017 21.8463 10.1656ZM20.2245 11.978C19.992 11.7287 20.006 11.3365 20.2553 11.104C20.4962 10.8799 20.6194 10.5662 20.6138 10.1684C20.6138 9.73987 20.3897 9.36732 19.95 9.0648C19.8071 8.96396 19.7119 8.80709 19.6894 8.63622C19.667 8.46536 19.7203 8.28889 19.8323 8.15723C19.9976 7.96115 20.0872 7.65023 20.0872 7.25527C20.0872 6.69225 19.5914 6.36452 19.1768 6.19365C19.1572 6.18524 19.1404 6.17684 19.1208 6.16564C18.8239 6.00317 18.7119 5.63062 18.8743 5.3309C18.9584 5.17964 19.0396 4.93594 18.9556 4.38973C18.7091 3.72586 18.4934 3.39253 15.0536 3.39253C12.9828 3.39253 12.1544 3.63378 11.426 3.8459L11.4149 3.84911L11.1992 3.91073C10.7903 4.02838 10.4654 4.12082 10.1376 4.12082L7.66143 4.15443V11.6754C7.66143 11.6838 7.66003 11.6915 7.65863 11.6992C7.65723 11.707 7.65583 11.7147 7.65583 11.7231V11.7315C8.41494 12.1208 10.0228 13.16 10.1964 14.9808C10.3113 16.1908 10.2945 17.6754 10.2693 18.8323C10.2693 18.8547 10.2665 18.8771 10.2637 18.8995C10.2584 18.9918 10.2507 19.0692 10.2428 19.148L10.2427 19.1481L10.2413 19.1628L10.2245 19.3533C10.1964 19.7651 10.2777 20.076 10.4682 20.2805C10.7259 20.5606 11.1684 20.6166 11.4962 20.6166C12.3869 20.6166 12.7679 20.2273 12.7651 19.2525L12.7595 19.132C12.7539 17.7147 12.7511 16.2945 12.7511 14.8771C12.7483 14.541 13.0144 14.2665 13.3477 14.2581L16.034 14.1796H19.4261C19.7847 14.16 20.6166 14.0116 20.6166 13.062C20.6166 12.5886 20.4906 12.2245 20.2581 12.0116L20.2245 11.978ZM5.65023 10.2945C5.65023 10.7427 5.3365 11.0564 4.88833 11.0564C4.43735 11.0564 4.12642 10.7455 4.12642 10.2945C4.12642 9.84631 4.44015 9.53258 4.88833 9.53258C5.3365 9.53258 5.65023 9.84631 5.65023 10.2945ZM6.20485 3.85471C6.3253 3.85471 6.42054 3.95275 6.42894 4.0704V11.6894C6.42334 11.8099 6.3253 11.9051 6.20485 11.9051H3.61382C3.48777 11.9051 3.38692 11.8015 3.38692 11.6754V4.0844C3.38692 3.95835 3.49057 3.85751 3.61382 3.85751L6.20485 3.85471Z" fill="#313235"/>
</svg>
