<svg width="24" height="24" fill="none" xmlns="http://www.w3.org/2000/svg"><path fill-rule="evenodd" clip-rule="evenodd" d="M11.99 2.15c6.219 0 9.846 3.14 9.846 9.846 0 6.706-3.627 9.84-9.846 9.84-6.218 0-9.84-3.134-9.84-9.84 0-6.706 3.622-9.846 9.84-9.846Zm0 18.457c5.799 0 8.617-2.818 8.617-8.611 0-5.798-2.818-8.616-8.617-8.616-5.792 0-8.61 2.818-8.61 8.616 0 5.793 2.818 8.61 8.61 8.61Zm3.468-5.745-2.849-2.852.003-3.846a.616.616 0 1 0-1.232 0v4.1c0 .163.064.32.179.435l3.062 3.062a.612.612 0 0 0 .868-.031.613.613 0 0 0-.031-.869Z" fill="#313235"/></svg>