<svg width="24" height="24" viewBox="0 0 24 24" fill="none" xmlns="http://www.w3.org/2000/svg">
<path fill-rule="evenodd" clip-rule="evenodd" d="M20.7129 4.08109C20.8978 3.80377 21.2815 3.72534 21.5672 3.91022C21.8502 4.09509 21.9314 4.47044 21.7437 4.74495C20.9286 5.95503 19.8446 6.89621 18.5308 7.59089C18.5329 7.59805 18.5353 7.60484 18.5377 7.61153C18.5418 7.62315 18.5459 7.63447 18.5476 7.64691C18.6149 8.45363 18.6485 9.33599 18.6485 10.35C18.6485 16.2632 17.5224 20.2015 12.0182 20.2015C6.51403 20.2015 5.38517 16.2632 5.38517 10.35C5.38517 9.31358 5.42159 8.41162 5.49162 7.59649C4.16949 6.89901 3.07985 5.95503 2.26193 4.73655C2.07425 4.45924 2.15268 4.08109 2.4384 3.89901C2.72411 3.71694 3.10506 3.79257 3.29274 4.07268C4.9454 6.54047 7.87817 7.79257 12.007 7.79257C16.1303 7.79257 19.0602 6.54327 20.7129 4.08109ZM12.0154 18.9971C16.0518 18.9971 17.4132 16.815 17.4132 10.3556C17.4132 9.53207 17.3908 8.80097 17.3432 8.13151C15.979 8.64691 14.402 8.92982 12.6121 8.98305L12.6513 16.0307C12.6541 16.364 12.3796 16.6357 12.0378 16.6385H12.035C11.6961 16.6385 11.4216 16.3696 11.4188 16.0363L11.3796 8.98025C9.60646 8.92702 8.04064 8.64411 6.68489 8.13711C6.64008 8.80377 6.61767 9.53207 6.61767 10.3556C6.61767 16.815 7.97901 18.9971 12.0154 18.9971Z" fill="#313235"/>
</svg>
