<svg width="24" height="24" fill="none" xmlns="http://www.w3.org/2000/svg"><path d="M2.332 16.98a.757.757 0 0 1-.177-.492V5.273c0-.384.269-.697.602-.697h10.337c.117-.004 3.392-.094 7.204 4.311 1.135 1.312 1.65 2.668 1.53 4.027-.171 1.936-1.583 3.276-2.407 3.903-.34.257-.731.393-1.132.393h-.017c-1.009-.01-4.54-.028-15.515-.028a.568.568 0 0 1-.425-.203ZM3.36 5.965v.824h8.28c.333 0 .602.31.602.697v3.805c0 .383-.269.697-.602.697H3.36v1.413h17.134a2.76 2.76 0 0 0 .137-.627c.02-.231.012-.469-.03-.707h-7.059c-.333 0-.602-.31-.602-.697V5.966H3.36Zm16.089 3.907c-2.205-2.544-4.167-3.431-5.301-3.739v4.54h5.892a6.332 6.332 0 0 0-.591-.801Zm-.69 5.782c.225-.168.578-.47.917-.865H3.36v1.001c10.507 0 13.931.019 14.92.028h.009a.755.755 0 0 0 .47-.164ZM5.104 8.185H3.36v2.413h1.743V8.184Zm1.205 2.413h1.871V8.184H6.308v2.414Zm4.73 0V8.184H9.383v2.414h1.653Zm10.807 8.13c0-.387-.27-.697-.603-.697H2.757c-.333 0-.602.31-.602.697 0 .386.269.697.602.697h18.485c.334 0 .603-.31.603-.697Z" fill="#313235"/></svg>