<svg width="24" height="24" viewBox="0 0 24 24" fill="none" xmlns="http://www.w3.org/2000/svg">
<path fill-rule="evenodd" clip-rule="evenodd" d="M2.34645 16.9741C2.23437 16.8442 2.16992 16.6668 2.16992 16.483V7.48211V5.26752C2.16992 4.88417 2.43891 4.57052 2.77235 4.57052H13.1089L13.1091 4.57051C13.226 4.56729 16.5007 4.47696 20.3129 8.88246C21.4477 10.1941 21.9633 11.5501 21.8428 12.9093C21.6719 14.845 20.2597 16.1852 19.4359 16.8125C19.0968 17.0691 18.7045 17.2054 18.3039 17.2054H18.287C17.2783 17.1959 13.7478 17.1768 2.77235 17.1768C2.61264 17.1768 2.46133 17.104 2.34645 16.9741ZM3.37478 5.96136H12.9548V11.3663C12.9548 11.7529 13.2238 12.0633 13.5573 12.0633H20.6155C20.6575 12.301 20.6659 12.5386 20.6463 12.7699C20.6267 12.9885 20.5763 13.1944 20.509 13.3972H3.37478V11.9841H11.6547C11.9881 11.9841 12.2571 11.6705 12.2571 11.2871V7.48211C12.2571 7.09558 11.9881 6.7851 11.6547 6.7851H3.37478V5.96136ZM19.4639 9.86777C19.6965 10.1371 19.8898 10.4032 20.0551 10.6693H14.1625V6.12928C15.2973 6.43659 17.2587 7.3237 19.4639 9.86777ZM18.7746 15.6498C18.9988 15.4819 19.3518 15.1809 19.6909 14.7848H3.37478V15.786C13.8823 15.786 17.3063 15.805 18.2955 15.8145H18.3039C18.472 15.8145 18.6317 15.7607 18.7746 15.6498ZM5.11763 8.17911V10.5933H3.37478V8.17911H5.11763ZM6.32249 10.5933H8.19423V8.17911H6.32249V10.5933ZM11.0523 10.5933H9.39909V8.17911H11.0523V10.5933ZM21.8596 18.7229C21.8596 18.3364 21.5906 18.0259 21.2572 18.0259H2.77235C2.43891 18.0259 2.16992 18.3364 2.16992 18.7229C2.16992 19.1095 2.43891 19.4199 2.77235 19.4199H21.2572C21.5906 19.4199 21.8596 19.1095 21.8596 18.7229Z" fill="#313235"/>
</svg>
