<svg width="24" height="24" viewBox="0 0 24 24" fill="none" xmlns="http://www.w3.org/2000/svg">
<path fill-rule="evenodd" clip-rule="evenodd" d="M14.979 7.89022C15.1779 7.89862 19.1947 8.13392 21.0463 11.9322C23.1219 16.1899 20.5757 17.8846 19.486 18.6073L19.4132 18.6549C19.0743 18.879 18.6821 18.9995 18.2816 18.9995H18.2647L17.6401 18.9967C17.5477 19.9911 16.8642 20.6241 15.8334 20.6241C14.797 20.6241 14.1135 19.9855 14.0239 18.9855L11.4524 18.9799C11.3656 19.9799 10.6793 20.6213 9.6429 20.6213C8.60368 20.6213 7.92021 19.9771 7.83338 18.9743H7.37679C7.29276 19.9799 6.60648 20.6213 5.56727 20.6213C4.52805 20.6213 3.84178 19.9771 3.75775 18.9743H2.75214C2.41881 18.9743 2.1499 18.7025 2.1499 18.3636V8.50086C2.1499 8.3384 2.21433 8.18434 2.32637 8.06949C2.43842 7.95465 2.59248 7.89022 2.75214 7.89022H8.04626L9.07987 6.8426C8.85578 6.75577 8.69612 6.53448 8.69612 6.27678V4.62131H2.75214C2.41881 4.62131 2.1499 4.3496 2.1499 4.01067C2.1499 3.67453 2.41881 3.40002 2.75214 3.40002H21.0995C21.4328 3.40002 21.7017 3.67173 21.7017 4.01067C21.7017 4.3468 21.4328 4.62131 21.0995 4.62131H15.1555V6.27678C15.1555 6.61291 14.8866 6.88742 14.5533 6.88742H13.1583L12.1695 7.89022H14.979ZM18.7521 17.6353L18.8278 17.5849L18.8323 17.5819C19.3132 17.2603 19.8989 16.8687 20.2675 16.2572H3.35719V17.7586H3.99584C4.29556 17.232 4.84738 16.921 5.57007 16.921C6.29276 16.921 6.84458 17.232 7.1443 17.7586H8.07147C8.37119 17.2292 8.92301 16.9182 9.6457 16.9182C10.3684 16.9182 10.9202 17.2292 11.2199 17.7586L14.2563 17.7642C14.5533 17.2348 15.1079 16.9182 15.8334 16.9182C16.5645 16.9182 17.1191 17.2376 17.416 17.7754L18.2732 17.781C18.4412 17.809 18.6065 17.7334 18.7521 17.6353ZM15.8334 19.4C15.388 19.4 15.2115 19.2236 15.2115 18.7698C15.2115 18.316 15.3852 18.1395 15.8334 18.1395C16.2816 18.1395 16.4552 18.316 16.4552 18.7698C16.4552 19.2236 16.2816 19.4 15.8334 19.4ZM9.02105 18.7698C9.02105 19.2236 9.19752 19.4 9.6429 19.4C10.0911 19.4 10.2647 19.2236 10.2647 18.7698C10.2647 18.316 10.0911 18.1395 9.6429 18.1395C9.19472 18.1395 9.02105 18.316 9.02105 18.7698ZM5.56727 19.4C5.11909 19.4 4.94542 19.2236 4.94542 18.7698C4.94542 18.316 5.11909 18.1395 5.56727 18.1395C6.01545 18.1395 6.18912 18.316 6.18912 18.7698C6.18912 19.2236 6.01545 19.4 5.56727 19.4ZM5.51405 13.1843H3.35719V11.0611H5.51405V13.1843ZM6.71853 13.1843H8.6541V11.0611H6.71853V13.1843ZM11.8334 13.1843H9.85859V11.0611H11.8334V13.1843ZM13.8222 9.11431V13.865C13.8222 14.2039 14.0911 14.4757 14.4244 14.4757H20.6037C20.6261 14.6745 20.6317 14.8594 20.6233 15.0331C20.6191 15.0331 20.6156 15.0317 20.6121 15.0303C20.6086 15.0289 20.6051 15.0275 20.6009 15.0275H3.35438V14.4084H12.4356C12.7689 14.4084 13.0379 14.1339 13.0379 13.7978V10.4532C13.0379 10.1143 12.7689 9.8426 12.4356 9.8426H3.35438V9.11711L13.8222 9.11431ZM11.4552 6.88742H10.7381L9.74934 7.89022H10.4664L11.4552 6.88742ZM9.9006 5.66613H13.951V4.62131H9.9006V5.66613ZM20.2956 13.2516C20.2031 13.0079 20.0995 12.7502 19.965 12.4757C18.5421 9.55689 15.5561 9.16753 15.0295 9.11991V13.2516H20.2956Z" fill="#313235"/>
</svg>
