<svg width="24" height="24" viewBox="0 0 24 24" fill="none" xmlns="http://www.w3.org/2000/svg">
<path fill-rule="evenodd" clip-rule="evenodd" d="M10.9216 2C11.7451 2 15.7843 2.18767 17.0308 5.77591C19.3585 5.9916 21.6863 7.44258 21.6863 10.9552C21.6863 14.8375 18.8487 16.2157 16.4202 16.2157L12.381 16.2409V21.0784C12.381 21.4118 12.1092 21.6863 11.7759 21.6863C11.4426 21.6863 11.1709 21.4146 11.1709 21.0784V16.2437H6.34174C4.2437 16.2437 2 15.098 2 11.888C2 9.36975 3.38375 8.32493 4.45378 7.89356C4.64706 2.28852 9.85994 2 10.9216 2ZM12.381 15.0252L16.4202 15C17.3725 15 20.479 14.7087 20.4762 10.958C20.4762 7.45378 17.7367 7 16.5574 6.96639C16.2913 6.95798 16.0588 6.77311 15.9916 6.51541C15.1541 3.37815 11.619 3.21849 10.9188 3.21849C9.68347 3.21849 5.65546 3.57703 5.65546 8.21849L5.66106 8.31653C5.66667 8.59104 5.4874 8.83753 5.22129 8.91317C3.88515 9.29412 3.20728 10.2969 3.20728 11.888C3.20728 14.7199 5.40056 15.0252 6.34174 15.0252H11.1681V14.7283L8.77031 12.3025C8.53501 12.0644 8.53501 11.6807 8.77311 11.4426L8.77871 11.437C9.01681 11.2045 9.39776 11.2073 9.63025 11.4454L11.1681 13.0028V9.42857C11.1681 9.09524 11.4398 8.82353 11.7731 8.82073C12.1092 8.82073 12.3782 9.09244 12.3782 9.42857V10.4622L13.5714 8.83473L13.5742 8.83193C13.7731 8.56583 14.1513 8.5098 14.4174 8.70868C14.6863 8.91036 14.7451 9.28852 14.5462 9.56022L12.4034 12.4818C12.4006 12.486 12.3964 12.4888 12.3922 12.4916C12.388 12.4944 12.3838 12.4972 12.381 12.5014V15.0252Z" fill="#313235"/>
</svg>
