<svg width="24" height="24" viewBox="0 0 24 24" fill="none" xmlns="http://www.w3.org/2000/svg">
<path d="M21.8416 14.7785L21.413 18.2603C21.3626 18.6552 21.0237 18.9493 20.6259 18.9465H17.1357C16.7015 18.9493 16.3486 18.602 16.343 18.1678C16.343 17.7393 16.7015 17.3891 17.1357 17.3891H19.0181L14.0321 10.4395L7.23935 13.3667C6.864 13.5236 6.42983 13.3807 6.22255 13.0334L2.26176 6.16783C2.04888 5.79248 2.18053 5.31909 2.55588 5.10621C2.55868 5.10341 2.56148 5.10341 2.56428 5.10061C2.94524 4.89052 3.42423 5.01937 3.64271 5.39472L7.25336 11.6496L13.9845 8.75607C14.329 8.60481 14.7323 8.71405 14.9536 9.01937L20.0713 16.165L20.2618 14.5908C20.3234 14.1594 20.7155 13.8541 21.1497 13.9045C21.5783 13.9521 21.8892 14.3415 21.8416 14.7701V14.7785Z" fill="#313235"/>
</svg>
