<svg width="24" height="24" fill="none" xmlns="http://www.w3.org/2000/svg"><path fill-rule="evenodd" clip-rule="evenodd" d="M18.148 7.745c.37.53 2.555 3.558 2.83 3.924.249.325.708.944.705 1.67v2.97c0 .534-.224 1.072-.61 1.48-.392.413-.916.645-1.423.645h-.868c-.194 1.54-1.255 2.468-2.855 2.468-1.608 0-2.67-.927-2.863-2.468h-3.93c-.193 1.54-1.254 2.468-2.854 2.468-1.608 0-2.672-.927-2.871-2.468C2.627 18.42 2 17.76 2 16.947V5.168c0-.82.641-1.49 1.431-1.49l10.622.008c.787 0 1.432.661 1.432 1.482v1.616l.82-.008h.009c.708 0 1.425.384 1.834.97Zm-9.03 9.437h3.963c.154-.846.563-1.49 1.2-1.885V5.168a.23.23 0 0 0-.228-.227L3.431 4.933a.23.23 0 0 0-.224.235V16.95c.003.126.101.227.227.232.258-1.445 1.294-2.308 2.846-2.308 1.544 0 2.58.863 2.838 2.308Zm11.364-.871a.897.897 0 0 1-.258.594c-.168.176-.387.274-.571.274h-.886c-.257-1.445-1.294-2.308-2.837-2.308a3.8 3.8 0 0 0-.443.025v-6.86l.827-.008c.314 0 .678.193.854.443.395.56 2.583 3.58 2.863 3.958.168.226.45.61.45.921v2.96Zm-4.555 3.339c-1.126 0-1.697-.594-1.697-1.756 0-1.174.571-1.768 1.697-1.768 1.118 0 1.69.594 1.69 1.765 0 1.165-.572 1.759-1.69 1.759Zm-9.65 0c-1.126 0-1.697-.594-1.697-1.756 0-1.171.571-1.765 1.697-1.765 1.118 0 1.69.594 1.69 1.764 0 1.163-.572 1.757-1.69 1.757Z" fill="#313235"/></svg>