<svg width="24" height="24" fill="none" xmlns="http://www.w3.org/2000/svg"><path d="M18.148 7.745c.37.53 2.555 3.558 2.83 3.924.249.325.708.944.705 1.67v2.97c0 .534-.224 1.072-.61 1.48-.392.413-.916.645-1.423.645h-.868c-.194 1.54-1.255 2.468-2.855 2.468-1.608 0-2.67-.927-2.863-2.468h-3.93c-.193 1.54-1.254 2.468-2.854 2.468-1.608 0-2.672-.927-2.871-2.468C2.627 18.42 2 17.76 2 16.947V5.168c0-.82.641-1.49 1.431-1.49l10.622.008c.787 0 1.432.661 1.432 1.482v1.616l.82-.008h.009c.708 0 1.425.384 1.834.97Zm-9.03 9.437h3.963c.154-.846.563-1.49 1.2-1.885V5.168a.23.23 0 0 0-.228-.227L3.431 4.933a.23.23 0 0 0-.224.235V16.95c.003.126.101.227.227.232.258-1.445 1.294-2.308 2.846-2.308 1.544 0 2.58.863 2.838 2.308Zm11.364-.871v-2.96c0-.312-.283-.696-.451-.922-.28-.379-2.468-3.398-2.863-3.958a1.138 1.138 0 0 0-.854-.443l-.827.008v6.86a3.8 3.8 0 0 1 .443-.025c1.543 0 2.58.863 2.837 2.308h.886c.184 0 .403-.098.571-.274a.897.897 0 0 0 .258-.594Zm-4.555 3.339c1.118 0 1.69-.594 1.69-1.76 0-1.17-.572-1.764-1.69-1.764-1.126 0-1.697.594-1.697 1.767 0 1.163.571 1.757 1.697 1.757Zm-9.65 0c1.118 0 1.69-.594 1.69-1.756 0-1.171-.572-1.765-1.69-1.765-1.126 0-1.697.594-1.697 1.764 0 1.163.571 1.757 1.697 1.757Z" fill="#313235"/></svg>