<svg width="24" height="24" viewBox="0 0 24 24" fill="none" xmlns="http://www.w3.org/2000/svg">
<path fill-rule="evenodd" clip-rule="evenodd" d="M15.4145 2.11199L21.3977 5.73664C21.647 5.8879 21.7535 6.20443 21.6442 6.47613L19.9327 10.7871C19.8711 10.9411 19.7507 11.0616 19.5966 11.1232C19.4453 11.182 19.2717 11.1764 19.1232 11.1036L17.8571 10.4901L17.8907 21.1036C17.8907 21.2632 17.8291 21.4173 17.717 21.5322C17.605 21.6442 17.4537 21.7086 17.2941 21.7086H6.65262C6.49296 21.7086 6.3417 21.647 6.22965 21.5322C6.11761 21.4173 6.05598 21.2632 6.05598 21.1036L6.08679 10.4845L4.78987 11.1036C4.64702 11.1736 4.48175 11.182 4.33049 11.126C4.17923 11.07 4.05878 10.9579 3.99156 10.8095L2.05598 6.49854C1.92993 6.21563 2.03637 5.8795 2.30248 5.72543L8.53497 2.10078C8.71705 1.99434 8.94394 1.99714 9.12881 2.10359C9.31368 2.21283 9.42573 2.41171 9.42573 2.62739C9.42573 4.3893 10.2353 5.21003 11.9719 5.21003C13.7086 5.21003 14.5182 4.3893 14.5182 2.62739C14.5182 2.62459 14.5189 2.62249 14.5196 2.62039C14.5203 2.61829 14.521 2.61619 14.521 2.61339C14.5238 2.54896 14.5378 2.48734 14.5602 2.42291C14.5623 2.41768 14.564 2.41244 14.5657 2.40706C14.5687 2.39804 14.5717 2.38862 14.577 2.37809C14.5788 2.37277 14.5803 2.36689 14.5818 2.36072C14.5852 2.34738 14.5889 2.33267 14.5966 2.31927C14.6097 2.29686 14.6277 2.27943 14.6458 2.262C14.6548 2.25329 14.6638 2.24457 14.6722 2.23524C14.6834 2.21843 14.6974 2.20443 14.7114 2.19042C14.7535 2.1512 14.7983 2.12319 14.8459 2.09798C14.8516 2.09514 14.8571 2.09229 14.8625 2.08949C14.8785 2.08127 14.8936 2.07344 14.9103 2.06717C14.9579 2.05036 15.0056 2.04196 15.0532 2.03636C15.0644 2.03636 15.0742 2.03356 15.084 2.03076C15.0938 2.02795 15.1036 2.02515 15.1148 2.02515C15.1246 2.02515 15.133 2.02789 15.141 2.0305C15.1445 2.03162 15.1478 2.03271 15.1512 2.03356C15.1876 2.03636 15.2212 2.04196 15.2549 2.05317C15.3053 2.06717 15.3473 2.08118 15.3921 2.10359C15.398 2.10752 15.4025 2.10869 15.4076 2.11001C15.4098 2.11057 15.412 2.11115 15.4145 2.11199ZM17.5154 8.98874L19.0644 9.74224L20.3473 6.50975L15.6106 3.6358C15.2689 5.41451 13.9916 6.42011 11.9719 6.42011C9.91032 6.42011 8.64142 5.43692 8.31649 3.62459L3.3613 6.50134L4.82069 9.75345L6.42573 8.98594C6.6106 8.8963 6.82909 8.91031 6.99996 9.02235C7.17363 9.1344 7.27727 9.32767 7.27727 9.53496L7.24366 20.5041H16.6946L16.661 9.53496C16.661 9.32767 16.7647 9.1344 16.9383 9.02235C17.112 8.91311 17.3277 8.8991 17.5154 8.98874Z" fill="#313235"/>
</svg>
