<svg width="24" height="24" viewBox="0 0 24 24" fill="none" xmlns="http://www.w3.org/2000/svg">
<path fill-rule="evenodd" clip-rule="evenodd" d="M15.4145 2.11211L21.3977 5.73676C21.647 5.88802 21.7535 6.20455 21.6442 6.47626L19.9327 10.7872C19.8711 10.9412 19.7507 11.0617 19.5966 11.1233C19.4453 11.1821 19.2717 11.1765 19.1232 11.1037L17.8571 10.4903L17.8907 21.1037C17.8907 21.2634 17.8291 21.4174 17.717 21.5323C17.605 21.6443 17.4537 21.7087 17.2941 21.7087H6.65262C6.49296 21.7087 6.3417 21.6471 6.22965 21.5323C6.11761 21.4174 6.05598 21.2634 6.05598 21.1037L6.08679 10.4847L4.78987 11.1037C4.64702 11.1737 4.48175 11.1821 4.33049 11.1261C4.17923 11.0701 4.05878 10.958 3.99156 10.8096L2.05598 6.49867C1.92993 6.21575 2.03637 5.87962 2.30248 5.72556L8.53497 2.10091C8.71705 1.99446 8.94394 1.99726 9.12881 2.10371C9.31368 2.21295 9.42573 2.41183 9.42573 2.62752C9.42573 4.38942 10.2353 5.21015 11.9719 5.21015C13.7086 5.21015 14.5182 4.38942 14.5182 2.62752C14.5182 2.62472 14.5189 2.62261 14.5196 2.62051C14.5203 2.61841 14.521 2.61631 14.521 2.61351C14.5238 2.54909 14.5378 2.48746 14.5602 2.42303C14.5623 2.4178 14.564 2.41256 14.5657 2.40718C14.5687 2.39817 14.5717 2.38874 14.577 2.37822C14.5788 2.3729 14.5803 2.36701 14.5818 2.36084C14.5852 2.3475 14.5889 2.33279 14.5966 2.31939C14.6097 2.29698 14.6277 2.27955 14.6458 2.26213C14.6548 2.25341 14.6638 2.2447 14.6722 2.23536C14.6834 2.21855 14.6974 2.20455 14.7114 2.19054C14.7535 2.15133 14.7983 2.12332 14.8459 2.09811C14.8516 2.09526 14.8571 2.09241 14.8625 2.08961C14.8785 2.08139 14.8936 2.07356 14.9103 2.06729C14.9579 2.05049 15.0056 2.04208 15.0532 2.03648C15.0644 2.03648 15.0742 2.03368 15.084 2.03088C15.0938 2.02808 15.1036 2.02528 15.1148 2.02528C15.1246 2.02528 15.133 2.02802 15.141 2.03062C15.1445 2.03174 15.1478 2.03284 15.1512 2.03368C15.1876 2.03648 15.2212 2.04208 15.2549 2.05329C15.3053 2.06729 15.3473 2.0813 15.3921 2.10371C15.398 2.10764 15.4025 2.10881 15.4076 2.11013C15.4098 2.11069 15.412 2.11127 15.4145 2.11211ZM17.5154 8.98886L19.0644 9.74236L20.3473 6.50987L15.6106 3.63592C15.2689 5.41463 13.9916 6.42023 11.9719 6.42023C9.91032 6.42023 8.64142 5.43704 8.31649 3.62472L3.3613 6.50147L4.82069 9.75357L6.42573 8.98606C6.6106 8.89642 6.82909 8.91043 6.99996 9.02247C7.17363 9.13452 7.27727 9.3278 7.27727 9.53508L7.24366 20.5043H16.6946L16.661 9.53508C16.661 9.3278 16.7647 9.13452 16.9383 9.02247C17.112 8.91323 17.3277 8.89923 17.5154 8.98886Z" fill="#313235"/>
</svg>
