<svg width="24" height="24" viewBox="0 0 24 24" fill="none" xmlns="http://www.w3.org/2000/svg">
<path fill-rule="evenodd" clip-rule="evenodd" d="M18.3964 17.3684L5.59248 17.36C4.47203 17.36 3.60368 17.049 3.01265 16.4328C2.43842 15.8418 2.1499 14.9958 2.1499 13.9202V7.923C2.1499 5.72131 3.37119 4.51123 5.58968 4.51123L18.3964 4.51963C20.6149 4.51963 21.8362 5.73252 21.8362 7.9314V13.9286C21.8362 15.0042 21.5477 15.8502 20.9762 16.4412C20.3824 17.0574 19.514 17.3684 18.3964 17.3684ZM5.58968 5.63168C4.78296 5.63168 4.18352 5.82496 3.81097 6.20591C3.45242 6.57286 3.27035 7.14989 3.27035 7.923V13.9202C3.27035 15.5028 4.00705 16.2395 5.58968 16.2395L18.3936 16.2479C19.9762 16.2479 20.7129 15.5112 20.7129 13.9286V7.9314C20.7129 7.15829 20.5309 6.58126 20.1695 6.21431C19.797 5.83336 19.2003 5.64008 18.3908 5.64008L5.58968 5.63168ZM9.53085 19.5729L14.4468 19.5813C14.7549 19.5813 15.007 19.3292 15.007 19.021C15.007 18.7129 14.7549 18.4608 14.4468 18.4608L9.53085 18.4524C9.22273 18.4524 8.97063 18.7045 8.97063 19.0126C8.97063 19.3208 9.22273 19.5729 9.53085 19.5729Z" fill="#313235"/>
</svg>
