<svg width="24" height="24" viewBox="0 0 24 24" fill="none" xmlns="http://www.w3.org/2000/svg">
<path fill-rule="evenodd" clip-rule="evenodd" d="M14.5994 11.5826C14.563 11.5826 14.5238 11.5798 14.4874 11.5742C14.0728 11.5126 13.7367 11.112 13.7367 10.6863V9.12605H13.6274C12.7563 9.12605 12.098 8.43137 12.098 7.51261V3.61345C12.098 2.72269 12.8207 2 13.7115 2H20.0784C20.9692 2 21.6919 2.72269 21.6919 3.61345V7.51541C21.6919 8.40616 20.9692 9.12885 20.0784 9.12885H16.7899C16.4762 9.62465 15.8123 10.6695 15.6807 10.8683C15.3893 11.3137 14.9748 11.5826 14.5994 11.5826ZM13.7115 3.12045C13.4398 3.12045 13.2185 3.34174 13.2185 3.61345V7.51541C13.2185 7.7619 13.3445 8.0084 13.6274 8.0084H14.2969C14.605 8.0084 14.8571 8.2605 14.8571 8.56863V10.0784C15.1849 9.56863 16 8.28291 16.0084 8.26891C16.112 8.10644 16.2885 8.0084 16.4818 8.0084H20.0784C20.3501 8.0084 20.5714 7.78712 20.5714 7.51541V3.61345C20.5714 3.34174 20.3501 3.12045 20.0784 3.12045H13.7115ZM16.6106 6.08963C16.6078 6.32213 16.7955 6.5126 17.028 6.5126C17.0308 6.5126 17.0336 6.5126 17.0392 6.5098C17.2689 6.507 17.4538 6.31372 17.4482 6.08123V5.91036C17.4482 5.75759 17.5995 5.62644 17.7043 5.5357L17.7043 5.5357L17.7043 5.53569C17.7301 5.5133 17.7531 5.49337 17.7703 5.47619C17.8001 5.44597 17.8311 5.4167 17.8622 5.38727C18.0445 5.21486 18.2325 5.03701 18.2325 4.63025C18.2325 4.07283 17.7507 3.47339 17.0308 3.47339C16.2633 3.47339 15.7759 3.92717 15.7759 4.62745C15.7759 4.85714 15.9636 5.04482 16.1933 5.04482C16.423 5.04482 16.6106 4.85714 16.6106 4.62745C16.6106 4.493 16.7507 4.26891 17.028 4.26891C17.3053 4.26891 17.3725 4.51821 17.3725 4.63305C17.3725 4.77926 17.244 4.88821 17.154 4.96445L17.154 4.96445L17.154 4.96447C17.1337 4.9817 17.1153 4.99726 17.1008 5.0112L17.0712 5.03991C16.8765 5.22783 16.6106 5.48442 16.6106 5.91316V6.08963ZM8.57143 15.1289C7.35574 15.1289 6.40896 14.7787 5.7535 14.084C5.13445 13.4314 4.82353 12.521 4.82353 11.381C4.82353 10.2409 5.13725 9.33053 5.7535 8.67787C6.40896 7.98319 7.35574 7.63025 8.57143 7.63025C9.78712 7.63025 10.7339 7.98319 11.3894 8.67507C12.0056 9.32773 12.3193 10.2381 12.3193 11.3782C12.3193 12.5182 12.0056 13.4286 11.3894 14.0812C10.7339 14.7787 9.78431 15.1289 8.57143 15.1289ZM8.57143 8.7507C6.82633 8.7507 5.94398 9.63585 5.94398 11.3782C5.94398 13.1204 6.82913 14.0056 8.57143 14.0056C10.3137 14.0056 11.1989 13.1204 11.1989 11.3782C11.1989 9.63585 10.3137 8.7507 8.57143 8.7507ZM2.56022 21.6835H14.5798C14.8908 21.6835 15.1401 21.4342 15.1401 21.1232V20.084C15.1401 18.7395 14.7843 17.7031 14.0812 16.9944C13.3782 16.2857 12.3445 15.9272 11.0056 15.9272H6.13445C4.79832 15.9272 3.7619 16.2885 3.05882 16.9944C2.35574 17.7003 2 18.7395 2 20.084V21.1232C2 21.4314 2.2521 21.6835 2.56022 21.6835ZM3.12045 20.563H14.0196V20.084C14.0196 19.0476 13.7731 18.2717 13.2885 17.7843C12.8039 17.2969 12.0364 17.0476 11.0084 17.0476H6.13445C5.10644 17.0476 4.33894 17.2941 3.85434 17.7843C3.36975 18.2745 3.12045 19.0476 3.12045 20.084V20.563ZM17.4796 7.23976C17.4796 7.48265 17.2827 7.67954 17.0398 7.67954C16.7969 7.67954 16.6 7.48265 16.6 7.23976C16.6 6.99688 16.7969 6.79999 17.0398 6.79999C17.2827 6.79999 17.4796 6.99688 17.4796 7.23976Z" fill="#313235"/>
</svg>
