<svg xmlns="http://www.w3.org/2000/svg" width="24" height="24" fill="none"><path fill="#0B2739" d="M21.834 6.677s.288-3.7-3.639-3.7c-3.927 0-12.437.005-12.437.005s-.07-.005-.196-.005c-.754 0-3.41.244-3.41 3.68 0 4.003.004 10.664.004 10.664s-.247 3.687 3.619 3.687h12.423s.12.016.314.016c.882 0 3.324-.31 3.324-3.722zM6.458 19.753V4.235l4.167-.003h.002l6.907-.003v15.524zM4.237 4.585c.333-.216.706-.297.992-.33V6.39h-1.83c.073-1.294.64-1.68.838-1.806m16.361 13.067c-.039.74-.288 1.977-1.834 2.1v-2.1zM3.962 19.137c-.43-.463-.54-1.113-.568-1.468h1.835v2.047c-.55-.075-.972-.266-1.267-.58M20.047 4.859c.453.488.54 1.182.557 1.518H18.76V4.268c.56.079.991.275 1.286.591M18.764 16.4v-2.086h1.843V16.4zm1.84-6.68h-1.84V7.63h1.84zm-1.84 3.339v-2.09h1.84v2.09zM3.385 16.417V14.33H5.23v2.087zm1.844-6.69H3.385v-2.08H5.23zM3.385 10.98H5.23v2.095H3.385zm6.359 3.602V9.417l4.392 2.582zm6.238-2.583a.63.63 0 0 0-.308-.543L9.436 7.789a.607.607 0 0 0-.616 0 .63.63 0 0 0-.309.544v7.333a.63.63 0 0 0 .309.543.607.607 0 0 0 .616 0l6.238-3.666a.63.63 0 0 0 .308-.544"/></svg>