<svg width="24" height="24" viewBox="0 0 24 24" fill="none" xmlns="http://www.w3.org/2000/svg">
<path fill-rule="evenodd" clip-rule="evenodd" d="M20.2548 10.8964C21.0447 10.8964 21.6862 11.5547 21.6862 12.367V15.2549C21.6862 16.0645 21.0419 16.7255 20.2548 16.7255H20.168L20.1708 18.325C20.1708 19.0028 19.9159 19.6415 19.4481 20.1205C18.9803 20.6023 18.3585 20.8656 17.6974 20.8656L4.4733 20.8684C3.7282 20.8628 3.07274 20.5883 2.62736 20.1009C2.18198 19.6135 1.9663 18.9552 2.00551 18.1933V5.41461C2.00551 4.73673 2.26322 4.09808 2.7282 3.61909C3.19599 3.13729 3.81784 2.87399 4.4789 2.87399L16.815 2.00284C16.9943 1.99724 17.1484 2.05046 17.2688 2.16811C17.3921 2.28575 17.4593 2.44822 17.4593 2.62189V4.01685C18.1484 4.17371 18.6442 4.77035 18.6442 5.48463V6.92721C18.9859 7.05606 19.2884 7.24934 19.5293 7.50984C19.9747 7.99724 20.1876 8.6583 20.1484 9.42861L20.1512 10.8964H20.2548ZM3.2128 5.41461V5.44822C3.2128 5.76475 3.32764 6.06447 3.53212 6.30256C3.56013 5.49304 4.2156 4.84038 5.02512 4.84038L16.252 4.03365V3.28856L4.51812 4.11489C4.13997 4.11769 3.82064 4.25214 3.58254 4.49584C3.34445 4.74234 3.2128 5.06727 3.2128 5.41461ZM18.9579 16.7255L18.9607 18.325C18.9607 18.6723 18.829 19 18.5909 19.2465C18.3529 19.493 18.0363 19.6275 17.6974 19.6275L4.4789 19.6303C4.06994 19.6275 3.7254 19.4958 3.50691 19.2549C3.29123 19.0224 3.19039 18.6779 3.2128 18.2297V7.62469C3.59375 7.85718 4.02512 7.99164 4.4789 7.99164V8.00004L17.6974 7.99724C18.1036 8.00004 18.4341 8.12609 18.6498 8.36419C18.8627 8.59948 18.9635 8.94402 18.9411 9.4006L18.9439 10.8992H12.2856C10.7758 10.8992 9.54893 12.1569 9.54893 13.7059V13.9188C9.54893 15.465 10.7786 16.7255 12.2856 16.7255H18.9579ZM20.4789 12.367V15.2549C20.4789 15.381 20.3781 15.4846 20.2548 15.4818H12.2856C11.4453 15.4818 10.759 14.7788 10.759 13.916V13.7031C10.759 12.8404 11.4425 12.1373 12.2856 12.1373H20.2548C20.3781 12.1373 20.4789 12.2381 20.4789 12.367ZM5.06714 6.08127L16.8543 5.23533H16.8571L17.1428 5.21573C17.3024 5.21573 17.4341 5.33898 17.4341 5.48743V6.75354L4.7226 6.75074C4.72372 6.7429 4.72574 6.73505 4.72775 6.72721C4.73078 6.71545 4.7338 6.70368 4.7338 6.69192V6.35298C4.7338 6.20452 4.86546 6.08407 5.06714 6.08127ZM13.4509 13.8936C13.4509 13.3418 13.0139 12.8936 12.4761 12.8936C11.9383 12.8936 11.5041 13.3418 11.5041 13.8936C11.5041 14.4454 11.9383 14.8936 12.4761 14.8936C13.0139 14.8936 13.4509 14.4454 13.4509 13.8936Z" fill="#313235"/>
</svg>
