<svg xmlns="http://www.w3.org/2000/svg" width="24" height="24" fill="none"><path fill="#000" d="M20.41 11.461c.79 0 1.431.659 1.431 1.47v2.889c0 .81-.644 1.47-1.431 1.47h-.087l.003 1.6c0 .678-.255 1.316-.723 1.795a2.42 2.42 0 0 1-1.75.745l-13.225.003c-.745-.005-1.4-.28-1.846-.767-.445-.488-.66-1.146-.621-1.908V5.98c0-.678.257-1.317.722-1.796a2.42 2.42 0 0 1 1.75-.745l12.337-.871a.6.6 0 0 1 .454.165c.123.118.19.28.19.454v1.395c.69.157 1.185.753 1.185 1.468v1.442c.342.129.645.322.885.583.446.487.659 1.148.62 1.919l.002 1.467zM3.368 5.98v.033c0 .317.115.616.32.854A1.505 1.505 0 0 1 5.18 5.406L16.407 4.6v-.746L4.673 4.68a1.28 1.28 0 0 0-.935.38c-.239.247-.37.572-.37.92m15.745 11.31H12.44c-1.507 0-2.737-1.26-2.737-2.806v-.213c0-1.55 1.227-2.807 2.737-2.807h6.658l-.003-1.498c.023-.457-.078-.802-.291-1.037-.216-.238-.546-.364-.953-.367l-13.218.003v-.008c-.454 0-.885-.135-1.266-.367v10.605c-.023.448.078.792.294 1.025.218.24.563.372.972.375l13.218-.003c.34 0 .656-.134.894-.38a1.32 1.32 0 0 0 .37-.922zm1.52-4.358c0-.129-.1-.23-.223-.23h-7.97c-.842 0-1.526.703-1.526 1.566v.213c0 .863.686 1.566 1.527 1.566h7.969c.123.003.224-.101.224-.227zM5.224 6.646c-.203.003-.334.123-.334.272v.339a.1.1 0 0 1-.006.035l-.005.024 12.711.002V6.052c0-.148-.131-.271-.291-.271l-.286.02h-.003zm8.383 7.813c0-.552-.437-1-.975-1s-.972.448-.972 1c0 .551.434 1 .972 1a.99.99 0 0 0 .975-1"/></svg>