<svg width="24" height="24" viewBox="0 0 24 24" fill="none" xmlns="http://www.w3.org/2000/svg">
<path fill-rule="evenodd" clip-rule="evenodd" d="M20.2549 10.8964C21.0448 10.8964 21.6863 11.5547 21.6863 12.367V15.2549C21.6863 16.0645 21.042 16.7255 20.2549 16.7255H20.1681L20.1709 18.325C20.1709 19.0028 19.916 19.6415 19.4482 20.1205C18.9804 20.6023 18.3586 20.8656 17.6975 20.8656L4.47342 20.8684C3.72832 20.8628 3.07286 20.5883 2.62748 20.1009C2.18211 19.6135 1.96642 18.9552 2.00564 18.1933V5.41461C2.00564 4.73673 2.26334 4.09808 2.72832 3.61909C3.19611 3.13729 3.81796 2.87399 4.47902 2.87399L16.8152 2.00284C16.9944 1.99724 17.1485 2.05046 17.2689 2.16811C17.3922 2.28575 17.4594 2.44822 17.4594 2.62189V4.01685C18.1485 4.17371 18.6443 4.77035 18.6443 5.48463V6.92721C18.986 7.05606 19.2885 7.24934 19.5294 7.50984C19.9748 7.99724 20.1877 8.6583 20.1485 9.42861L20.1513 10.8964H20.2549ZM3.21292 5.41461V5.44822C3.21292 5.76475 3.32776 6.06447 3.53225 6.30256C3.56026 5.49304 4.21572 4.84038 5.02524 4.84038L16.2521 4.03365V3.28856L4.51824 4.11489C4.14009 4.11769 3.82076 4.25214 3.58267 4.49584C3.34457 4.74234 3.21292 5.06727 3.21292 5.41461ZM18.958 16.7255L18.9608 18.325C18.9608 18.6723 18.8292 19 18.5911 19.2465C18.353 19.493 18.0364 19.6275 17.6975 19.6275L4.47902 19.6303C4.07006 19.6275 3.72552 19.4958 3.50704 19.2549C3.29135 19.0224 3.19051 18.6779 3.21292 18.2297V7.62469C3.59387 7.85718 4.02524 7.99164 4.47902 7.99164V8.00004L17.6975 7.99724C18.1037 8.00004 18.4342 8.12609 18.6499 8.36419C18.8628 8.59948 18.9636 8.94402 18.9412 9.4006L18.944 10.8992H12.2857C10.7759 10.8992 9.54905 12.1569 9.54905 13.7059V13.9188C9.54905 15.465 10.7787 16.7255 12.2857 16.7255H18.958ZM20.479 12.367V15.2549C20.479 15.381 20.3782 15.4846 20.2549 15.4818H12.2857C11.4454 15.4818 10.7591 14.7788 10.7591 13.916V13.7031C10.7591 12.8404 11.4426 12.1373 12.2857 12.1373H20.2549C20.3782 12.1373 20.479 12.2381 20.479 12.367ZM5.06726 6.08127L16.8544 5.23533H16.8572L17.1429 5.21573C17.3026 5.21573 17.4342 5.33898 17.4342 5.48743V6.75354L4.72272 6.75074C4.72384 6.7429 4.72586 6.73505 4.72788 6.72721C4.7309 6.71545 4.73393 6.70368 4.73393 6.69192V6.35298C4.73393 6.20452 4.86558 6.08407 5.06726 6.08127ZM13.451 13.8936C13.451 13.3418 13.014 12.8936 12.4762 12.8936C11.9384 12.8936 11.5042 13.3418 11.5042 13.8936C11.5042 14.4454 11.9384 14.8936 12.4762 14.8936C13.014 14.8936 13.451 14.4454 13.451 13.8936Z" fill="#313235"/>
</svg>
