<svg width="24" height="24" fill="none" xmlns="http://www.w3.org/2000/svg"><path d="M9.408 10.12c-.166.142-.392.213-.675.213-.283 0-.509-.071-.675-.214-.171-.147-.258-.356-.258-.619s.087-.471.258-.62c.166-.141.393-.213.675-.213.283 0 .51.072.675.214.173.148.259.356.259.62 0 .262-.086.47-.259.618ZM9.408 12.62c-.166.142-.392.213-.675.213-.283 0-.509-.071-.675-.214-.171-.147-.258-.356-.258-.619s.087-.472.258-.62c.166-.141.393-.213.675-.213.283 0 .51.072.675.214.173.147.259.356.259.62 0 .262-.086.47-.259.618ZM8.733 15.333c.283 0 .51-.071.675-.214.173-.147.259-.356.259-.619s-.086-.472-.259-.62c-.166-.141-.392-.213-.675-.213-.283 0-.509.072-.675.214-.171.147-.258.356-.258.62 0 .262.087.47.258.618.166.143.393.214.675.214ZM12.208 15.12c-.165.142-.392.213-.675.213-.282 0-.509-.071-.675-.214-.171-.147-.258-.356-.258-.619s.087-.472.258-.62c.166-.141.393-.213.675-.213.283 0 .51.072.675.214.173.147.259.356.259.62 0 .262-.086.47-.259.618ZM12.208 12.62c-.165.142-.392.213-.675.213-.282 0-.509-.071-.675-.214-.171-.147-.258-.356-.258-.619s.087-.472.258-.62c.166-.141.393-.213.675-.213.283 0 .51.072.675.214.173.147.259.356.259.62 0 .262-.086.47-.259.618ZM12.208 10.12c-.165.142-.392.213-.675.213-.282 0-.509-.071-.675-.214-.171-.147-.258-.356-.258-.619s.087-.471.258-.62c.166-.141.393-.213.675-.213.283 0 .51.072.675.214.173.148.259.356.259.62 0 .262-.086.47-.259.618ZM15.008 15.12c-.165.142-.392.213-.675.213-.283 0-.509-.071-.675-.214-.171-.147-.258-.356-.258-.619s.086-.472.258-.62c.166-.141.393-.213.675-.213.283 0 .51.072.675.214.173.147.259.356.259.62 0 .262-.086.47-.259.618ZM15.008 12.62c-.165.142-.392.213-.675.213-.283 0-.509-.071-.675-.214-.171-.147-.258-.356-.258-.619s.086-.472.258-.62c.166-.141.393-.213.675-.213.283 0 .51.072.675.214.173.147.259.356.259.62 0 .262-.086.47-.259.618ZM15.008 10.12c-.165.142-.392.213-.675.213-.283 0-.509-.071-.675-.214-.171-.147-.258-.356-.258-.619s.086-.471.258-.62c.166-.141.393-.213.675-.213.283 0 .51.072.675.214.173.148.259.356.259.62 0 .262-.086.47-.259.618Z" fill="#313235"/><path fill-rule="evenodd" clip-rule="evenodd" d="M18.067 7.686c0-1.088-.864-2.004-2.036-2.273l-.314-1.403C15.455 2.84 14.306 2 12.97 2h-2.876c-1.334 0-2.483.841-2.745 2.01l-.315 1.403C5.863 5.682 5 6.598 5 7.686v8.628c0 1.088.863 2.005 2.035 2.273l.315 1.403C7.612 21.16 8.76 22 10.095 22h2.876c1.335 0 2.484-.841 2.746-2.01l.314-1.403c1.172-.268 2.036-1.185 2.036-2.273v-.21c.23-.069.416-.191.561-.36.25-.289.372-.72.372-1.244 0-.523-.122-.95-.372-1.245a1.161 1.161 0 0 0-.561-.359v-1.792c.23-.069.416-.191.561-.36.25-.289.372-.72.372-1.244 0-.523-.122-.95-.372-1.245a1.161 1.161 0 0 0-.561-.359v-.21Zm-9.619-3.48-.253 1.127h6.676l-.252-1.127C14.46 3.505 13.772 3 12.97 3h-2.876c-.8 0-1.49.505-1.647 1.206Zm6.872 2.069H7.747c-.91 0-1.648.632-1.648 1.411v8.628c0 .78.738 1.412 1.648 1.412h7.573c.91 0 1.648-.633 1.648-1.412V7.686c0-.78-.738-1.411-1.648-1.411ZM8.196 18.667l.252 1.127c.157.701.847 1.206 1.647 1.206h2.876c.801 0 1.49-.505 1.648-1.206l.252-1.127H8.196Z" fill="#313235"/></svg>