<svg xmlns="http://www.w3.org/2000/svg" width="24" height="24" fill="none"><path fill="#0B2739" d="M9.408 10.12q-.25.213-.675.213t-.675-.214C7.887 9.972 7.8 9.763 7.8 9.5q0-.395.258-.62.25-.212.675-.213.426 0 .675.214.26.223.259.62 0 .395-.259.618M9.408 12.62q-.25.213-.675.213t-.675-.214Q7.801 12.396 7.8 12q0-.396.258-.62.25-.212.675-.213.426 0 .675.214.26.222.259.62 0 .395-.259.618M8.733 15.333q.426 0 .675-.214.26-.223.259-.619 0-.396-.259-.62-.25-.212-.675-.213-.425 0-.675.214-.257.222-.258.62 0 .395.258.618.25.214.675.214M12.208 15.12q-.249.213-.675.213-.424 0-.675-.214-.257-.223-.258-.619 0-.396.258-.62.25-.212.675-.213.426 0 .675.214.26.222.259.62 0 .395-.259.618M12.208 12.62q-.249.213-.675.213-.424 0-.675-.214-.257-.223-.258-.619 0-.396.258-.62.25-.212.675-.213.426 0 .675.214.26.222.259.62 0 .395-.259.618M12.208 10.12q-.249.213-.675.213-.424 0-.675-.214c-.171-.147-.258-.356-.258-.619q0-.395.258-.62.25-.212.675-.213.426 0 .675.214.26.223.259.62 0 .395-.259.618M15.008 15.12q-.249.213-.675.213-.425 0-.675-.214-.257-.223-.258-.619 0-.396.258-.62.25-.212.675-.213.426 0 .675.214.26.222.259.62 0 .395-.259.618M15.008 12.62q-.249.213-.675.213-.425 0-.675-.214-.257-.223-.258-.619 0-.396.258-.62.25-.212.675-.213.426 0 .675.214.26.222.259.62 0 .395-.259.618M15.008 10.12q-.249.213-.675.213-.425 0-.675-.214c-.171-.147-.258-.356-.258-.619q0-.395.258-.62.25-.212.675-.213.426 0 .675.214.26.223.259.62 0 .395-.259.618"/><path fill="#0B2739" d="M18.067 7.686c0-1.088-.864-2.004-2.036-2.273l-.314-1.403C15.455 2.84 14.306 2 12.97 2h-2.876c-1.334 0-2.483.841-2.745 2.01l-.315 1.403C5.863 5.682 5 6.598 5 7.686v8.628c0 1.088.863 2.005 2.035 2.273l.315 1.403C7.612 21.16 8.76 22 10.096 22h2.875c1.335 0 2.484-.841 2.746-2.01l.314-1.403c1.172-.268 2.036-1.185 2.036-2.273v-.21q.344-.105.561-.36c.25-.289.372-.72.372-1.244 0-.523-.122-.95-.372-1.245a1.16 1.16 0 0 0-.561-.359v-1.792q.344-.105.561-.36c.25-.289.372-.72.372-1.244 0-.523-.122-.95-.372-1.245a1.16 1.16 0 0 0-.561-.359zm-9.619-3.48C8.605 3.505 9.295 3 10.095 3h2.876c.801 0 1.49.505 1.648 1.206l.252 1.127H8.195zm6.872 2.069c.91 0 1.648.632 1.648 1.411v8.628c0 .78-.738 1.412-1.648 1.412H7.747c-.91 0-1.648-.633-1.648-1.412V7.686c0-.78.738-1.411 1.648-1.411zM8.196 18.667h6.675l-.252 1.127C14.46 20.495 13.772 21 12.97 21h-2.876c-.8 0-1.49-.505-1.647-1.206z"/></svg>