<svg width="24" height="24" fill="none" xmlns="http://www.w3.org/2000/svg"><path d="M20.23 4.525c.804 0 1.456.63 1.456 1.404v11.955c0 .776-.655 1.403-1.456 1.403H3.46c-.805 0-1.46-.63-1.46-1.403V5.929c0-.776.655-1.404 1.46-1.404h16.77Zm.227 1.404a.227.227 0 0 0-.227-.222H3.46a.225.225 0 0 0-.23.222v1.73h17.227V5.93Zm0 2.913H3.23v9.042c0 .12.103.218.23.218h16.77a.222.222 0 0 0 .227-.218V8.842ZM5.776 15.45a.579.579 0 0 0-.034.837c.12.126.286.19.448.19.149 0 .3-.05.418-.156l2.779-2.474a.577.577 0 0 0-.003-.874l-2.779-2.428a.628.628 0 0 0-.868.04.576.576 0 0 0 .042.837l2.283 1.994-2.286 2.034Zm5.129-1.423a.606.606 0 0 1-.616-.591c0-.328.274-.591.616-.591h6.588c.339 0 .616.266.616.59a.602.602 0 0 1-.616.592h-6.588ZM6.787 6.654a.56.56 0 0 0-.569-.549.556.556 0 0 0-.568.55c0 .302.252.548.568.548a.56.56 0 0 0 .57-.549Zm1.14-.549c.317 0 .569.247.569.55a.56.56 0 0 1-.569.548.56.56 0 0 1-.568-.549c0-.305.254-.549.568-.549Zm-2.851.55a.558.558 0 0 0-.569-.55.558.558 0 0 0-.569.55c0 .302.252.548.569.548a.56.56 0 0 0 .569-.549Z" fill="#313235"/></svg>