<svg width="24" height="24" fill="none" xmlns="http://www.w3.org/2000/svg"><path d="M2.585 8.672a.561.561 0 0 1-.395-.955l.017-.02a13.775 13.775 0 0 1 4.348-2.924 13.624 13.624 0 0 1 5.347-1.081c1.84 0 3.63.358 5.316 1.067a13.642 13.642 0 0 1 4.306 2.871.559.559 0 0 1 .005.793.559.559 0 0 1-.792.006 12.56 12.56 0 0 0-8.835-3.616c-1.706 0-3.356.333-4.91.99A12.622 12.622 0 0 0 2.997 8.49l-.017.017a.558.558 0 0 1-.395.165Z" fill="#313235"/><path d="M4.664 11.574a.558.558 0 0 0 .79-.005l.011-.012a9.136 9.136 0 0 1 2.863-1.93 9.046 9.046 0 0 1 3.571-.725c1.224 0 2.415.238 3.535.711a9.048 9.048 0 0 1 2.835 1.888.561.561 0 0 0 .784-.8A10.189 10.189 0 0 0 11.9 7.781c-1.392 0-2.742.274-4.011.815a10.256 10.256 0 0 0-3.21 2.165l-.02.02a.559.559 0 0 0 .006.792ZM7.132 14.627a.558.558 0 0 0 .792-.002 5.576 5.576 0 0 1 3.97-1.645c.756 0 1.493.149 2.184.443a5.55 5.55 0 0 1 1.72 1.14.561.561 0 0 0 .782-.804 6.724 6.724 0 0 0-4.686-1.896c-.928 0-1.83.185-2.676.552a6.663 6.663 0 0 0-2.086 1.42.561.561 0 0 0 0 .792ZM11.857 20.056c-.67 0-1.201-.185-1.582-.552-.395-.38-.597-.93-.597-1.627 0-.698.202-1.247.596-1.628.382-.367.914-.551 1.583-.551.67 0 1.202.184 1.583.551.395.381.596.93.596 1.628 0 .697-.201 1.246-.596 1.627-.378.367-.91.552-1.583.552Zm0-3.238c-.75 0-1.059.308-1.059 1.059 0 .75.308 1.059 1.06 1.059.75 0 1.058-.308 1.058-1.06 0-.383-.084-.658-.255-.82-.162-.16-.431-.238-.804-.238Z" fill="#313235"/></svg>