<svg width="24" height="24" viewBox="0 0 24 24" fill="none" xmlns="http://www.w3.org/2000/svg">
<path fill-rule="evenodd" clip-rule="evenodd" d="M2.58543 8.67229C2.44258 8.67229 2.29972 8.61907 2.19048 8.50982C1.97199 8.29133 1.97199 7.93559 2.19048 7.7171L2.20728 7.6975C3.46779 6.4454 4.92997 5.4622 6.55462 4.77313C8.2465 4.05604 10.0448 3.69189 11.902 3.69189C13.7423 3.69189 15.5322 4.05044 17.2185 4.75912C18.8291 5.43699 20.2801 6.40338 21.5238 7.63027C21.7451 7.84876 21.7479 8.2017 21.5294 8.42299C21.3109 8.64428 20.958 8.64708 20.7367 8.42859C19.5938 7.30254 18.2633 6.41458 16.7843 5.79273C15.2353 5.14287 13.591 4.81234 11.902 4.81234C10.1961 4.81234 8.54622 5.14568 6.9916 5.80394C5.4986 6.43699 4.15406 7.33895 2.9972 8.49021L2.98039 8.50702C2.87115 8.61626 2.72829 8.67229 2.58543 8.67229ZM4.66387 11.5742C4.77311 11.6807 4.91317 11.7339 5.05602 11.7339C5.20168 11.7339 5.34454 11.6779 5.45378 11.5686L5.46499 11.5574C6.29412 10.7339 7.2577 10.0841 8.32773 9.62747C9.45658 9.14568 10.6583 8.90198 11.8992 8.90198C13.1232 8.90198 14.3137 9.14007 15.4342 9.61346C16.493 10.0588 17.4454 10.6947 18.2689 11.5014C18.4902 11.7171 18.8459 11.7143 19.0616 11.493C19.2773 11.2717 19.2745 10.916 19.0532 10.7003C18.1289 9.79274 17.0588 9.08125 15.8683 8.57985C14.6078 8.05044 13.2745 7.78153 11.8992 7.78153C10.507 7.78153 9.15686 8.05604 7.88796 8.59666C6.68908 9.10926 5.60784 9.83755 4.67787 10.7619L4.65826 10.7815C4.43978 11.0028 4.44258 11.3586 4.66387 11.5742ZM7.13165 14.6275C7.2409 14.7367 7.38375 14.7927 7.52661 14.7927C7.67227 14.7927 7.81513 14.7395 7.92437 14.6247C8.42857 14.1205 9.01401 13.7199 9.66387 13.4398C10.3669 13.1345 11.1176 12.9804 11.8936 12.9804C12.6499 12.9804 13.3866 13.1289 14.0784 13.423C14.7171 13.6919 15.2969 14.0756 15.7983 14.563C16.0196 14.7787 16.3753 14.7731 16.591 14.5518C16.8067 14.3306 16.8011 13.9748 16.5798 13.7591C15.9776 13.1765 15.2829 12.7143 14.5154 12.3922C13.6835 12.042 12.8011 11.8628 11.8936 11.8628C10.9664 11.8628 10.0644 12.0476 9.21849 12.4146C8.43698 12.7507 7.7367 13.2297 7.13165 13.8348C6.91317 14.0532 6.91317 14.409 7.13165 14.6275ZM11.8571 20.056C11.1877 20.056 10.6555 19.8712 10.2745 19.5042C9.87955 19.1233 9.67787 18.5742 9.67787 17.8768C9.67787 17.1793 9.87955 16.6303 10.2745 16.2493C10.6555 15.8824 11.1877 15.6975 11.8571 15.6975C12.5266 15.6975 13.0588 15.8824 13.4398 16.2493C13.8347 16.6303 14.0364 17.1793 14.0364 17.8768C14.0364 18.5742 13.8347 19.1233 13.4398 19.5042C13.0616 19.8712 12.5294 20.056 11.8571 20.056ZM11.8571 16.8179C11.1064 16.8179 10.7983 17.1261 10.7983 17.8768C10.7983 18.6275 11.1064 18.9356 11.8571 18.9356C12.6078 18.9356 12.916 18.6275 12.916 17.8768C12.916 17.493 12.8319 17.2185 12.6611 17.056C12.4986 16.8964 12.2297 16.8179 11.8571 16.8179Z" fill="#313235"/>
</svg>
