<svg xmlns="http://www.w3.org/2000/svg" width="24" height="24" fill="none"><path fill="#0B2739" d="M20.384 19.661c.246-.302.297-.708.134-1.061l-2.801-6.07c.622-.997.952-2.305.952-3.939 0-4.38-2.372-6.431-6.437-6.431-4.064 0-6.434 2.05-6.434 6.431 0 1.395.244 2.555.703 3.485l-.014.018q-.013.014-.022.032l-2.986 6.48c-.163.35-.112.756.132 1.058.246.3.63.434 1.086.328l1.958-.72.765 2.034c.177.333.518.537.894.537h.03c.387-.01.729-.235.891-.588l2.762-5.994 2.765 5.994c.16.35.501.575.89.586h.029c.378 0 .72-.208.927-.61l.73-1.962 2.037.743a1.01 1.01 0 0 0 1.009-.35M12.235 3.395c3.544 0 5.194 1.647 5.194 5.19 0 3.541-1.65 5.188-5.194 5.188-3.54 0-5.19-1.647-5.19-5.187s1.65-5.19 5.19-5.19m-1.448 11.521-2.445 5.306-.6-1.608a1.023 1.023 0 0 0-1.297-.591l-1.602.594 2.473-5.367c.84.904 2.009 1.46 3.471 1.666m8.367 3.692-1.6-.588a1.024 1.024 0 0 0-1.3.597l-.596 1.607-2.426-5.26c1.485-.137 2.698-.597 3.597-1.395zM11.277 7.92a.66.66 0 0 0 .47-.358l.46-1.09.507 1.07a.65.65 0 0 0 .49.378l1.135.165-.832.846a.68.68 0 0 0-.18.563l.2 1.171-.986-.54a.63.63 0 0 0-.608 0l-.983.568.196-1.187a.68.68 0 0 0-.177-.572l-.854-.837zM9.25 8.956l.622.633-.146.902a1.226 1.226 0 0 0 1.197 1.437c.198 0 .397-.048.58-.149l.736-.403.742.406a1.218 1.218 0 0 0 1.773-1.289l-.148-.902.622-.633c.328-.333.44-.818.291-1.269a1.22 1.22 0 0 0-.972-.823l-.832-.126-.38-.801a1.2 1.2 0 0 0-1.096-.698c-.47 0-.89.266-1.095.698l-.378.798-.835.126c-.454.07-.826.384-.972.824a1.24 1.24 0 0 0 .291 1.269"/></svg>