<svg width="24" height="24" viewBox="0 0 24 24" fill="none" xmlns="http://www.w3.org/2000/svg">
<path fill-rule="evenodd" clip-rule="evenodd" d="M20.3788 19.6614C20.6253 19.3589 20.6757 18.9528 20.5132 18.5998L17.7121 12.5298C18.3339 11.5326 18.6645 10.2245 18.6645 8.59141C18.6645 4.21045 16.2919 2.16003 12.2275 2.16003C8.16307 2.16003 5.79332 4.21045 5.79332 8.59141C5.79332 9.98636 6.03702 11.146 6.4964 12.076C6.49217 12.0823 6.48714 12.0883 6.48207 12.0943C6.4737 12.1042 6.46522 12.1142 6.45999 12.1264L3.47399 18.6054C3.31153 18.9556 3.36195 19.3617 3.60564 19.6642C3.85214 19.964 4.2359 20.0984 4.69248 19.992L6.65046 19.2721L7.41517 21.3057C7.59164 21.639 7.93338 21.8435 8.30873 21.8435H8.33954C8.72609 21.8323 9.06783 21.6082 9.23029 21.2553L11.9922 15.2609L14.7569 21.2553C14.9166 21.6054 15.2583 21.8295 15.6477 21.8407H15.6757C16.0538 21.8407 16.3956 21.6334 16.6028 21.2301L17.3339 19.2693L19.3703 20.0116C19.7485 20.0956 20.1351 19.9612 20.3788 19.6614ZM12.2303 3.39533C8.68968 3.39533 7.03982 5.04519 7.03982 8.5858C7.03982 12.1264 8.68968 13.7735 12.2303 13.7735C15.7737 13.7735 17.4236 12.1264 17.4236 8.5858C17.4236 5.04239 15.7737 3.39533 12.2303 3.39533ZM10.7821 14.9163L8.33674 20.2217L7.7373 18.6138C7.53842 18.0984 6.95578 17.8351 6.44038 18.0228L4.83814 18.6166L7.31153 13.2497C8.15186 14.1544 9.31993 14.7091 10.7821 14.9163ZM19.1491 18.6082L17.5496 18.02C17.0314 17.8323 16.4516 18.0956 16.2499 18.6166L15.6533 20.2245L13.2275 14.964C14.7121 14.8267 15.925 14.3673 16.8241 13.569L19.1491 18.6082ZM11.2723 7.91914L10.1098 8.09561L10.9642 8.93314C11.107 9.076 11.1743 9.30569 11.1407 9.50457L10.9446 10.6922L11.9278 10.1236C12.1154 10.0172 12.3479 10.0228 12.5356 10.1236L13.5216 10.6642L13.3227 9.49337C13.2891 9.29729 13.3619 9.0732 13.502 8.93034L14.3339 8.0844L13.1995 7.91914C12.9866 7.88833 12.7961 7.73707 12.7093 7.54099L12.2023 6.47096L11.7429 7.56059C11.6589 7.74267 11.474 7.88272 11.2723 7.91914ZM9.2443 8.95555L9.86615 9.58861L9.72049 10.4906C9.64206 10.9668 9.83534 11.4317 10.2219 11.7035C10.432 11.8519 10.6729 11.9275 10.9166 11.9275C11.1154 11.9275 11.3143 11.8799 11.4964 11.7791L12.2331 11.3757L12.9754 11.7819C13.3732 11.9976 13.8746 11.9696 14.2471 11.7063C14.6365 11.4317 14.8269 10.9668 14.7485 10.4934L14.6 9.59141L15.2219 8.95835C15.5496 8.62502 15.6617 8.14043 15.5132 7.68945C15.3647 7.24967 14.9922 6.93314 14.5412 6.86592L13.7093 6.73987L13.3283 5.93875C13.1239 5.50737 12.7037 5.24127 12.2331 5.24127C11.7625 5.24127 11.3423 5.50737 11.1379 5.93875L10.7597 6.73707L9.92497 6.86312C9.47119 6.93314 9.09864 7.24687 8.95298 7.68664C8.80452 8.13482 8.91377 8.61942 9.2443 8.95555Z" fill="#313235"/>
</svg>
