<svg width="24" height="24" fill="none" xmlns="http://www.w3.org/2000/svg"><path fill-rule="evenodd" clip-rule="evenodd" d="M9.896 4.482c0 1.552.916 2.476 2.448 2.476 1.536 0 2.454-.924 2.454-2.476 0-.793-.23-1.415-.675-1.852-.431-.417-1.028-.63-1.778-.63-.751 0-1.348.213-1.78.633-.445.437-.669 1.059-.669 1.849Zm1.196 0c0-.451.104-.782.306-.98.199-.197.518-.295.95-.292.43 0 .75.098.949.291.204.2.308.53.308.98 0 .889-.375 1.267-1.258 1.267-.88 0-1.255-.378-1.255-1.266Zm5.359 9.759a.34.34 0 0 0 .017-.241l-1.524-4.378a1.533 1.533 0 0 1-.042-.098 1.64 1.64 0 0 0-1.507-1.009h-2.098A1.64 1.64 0 0 0 9.75 9.622l-1.524 4.386a.314.314 0 0 0 .017.236c.02.042.067.114.165.148.11.04.193.011.232-.008a.311.311 0 0 0 .157-.177l.79-2.386a.594.594 0 0 1 .75-.39.6.6 0 0 1 .388.76l-.365 1.14-.658 2.476h.216a.6.6 0 0 1 .596.602l.017 3.75c0 .076.017.314.23.32.073-.008.095-.017.1-.022.04-.04.076-.143.076-.292l-.02-3.75c0-.16.062-.314.174-.429a.59.59 0 0 1 .423-.18h1.673a.601.601 0 0 1 .597.608l-.018 3.754s.003.308.16.314a.421.421 0 0 0 .16-.028c.02-.02.059-.107.059-.289l.02-3.756a.602.602 0 0 1 .596-.602h.213l-.664-2.493-.359-1.123a.6.6 0 0 1 .386-.76c.312-.103.65.073.752.39l.792 2.392c.037.1.112.151.157.174.042.02.123.047.219.01a.296.296 0 0 0 .193-.156Zm1.073.535c.176-.364.204-.779.073-1.171l-1.513-4.367a1.209 1.209 0 0 0-.076-.193 2.833 2.833 0 0 0-2.605-1.74h-2.098a2.824 2.824 0 0 0-2.594 1.712c-.039.075-.064.14-.084.201l-1.526 4.393c-.132.386-.104.798.075 1.165.177.358.48.627.84.75.163.06.331.09.502.09h.003l-.168.633a.604.604 0 0 0 .104.524.585.585 0 0 0 .473.238h.4l.015 3.149c0 .848.599 1.504 1.397 1.523h.037c.364 0 .683-.126.927-.366.283-.278.437-.69.437-1.16l-.017-3.146h.47l-.013 3.149c0 .868.56 1.51 1.33 1.523h.037c.498 0 .81-.198.983-.372.274-.272.417-.67.417-1.148l.017-3.152h.4a.604.604 0 0 0 .577-.762l-.168-.63c.171.014.337-.028.493-.087.376-.126.678-.395.855-.756Z" fill="#313235"/></svg>