<svg width="24" height="24" fill="none" xmlns="http://www.w3.org/2000/svg"><path d="M9.896 4.482c0 1.552.916 2.476 2.448 2.476 1.536 0 2.454-.924 2.454-2.476 0-.793-.23-1.415-.675-1.852-.431-.417-1.028-.63-1.778-.63-.751 0-1.348.213-1.78.633-.445.437-.669 1.059-.669 1.849Zm1.196 0c0-.451.104-.782.306-.98.199-.197.518-.295.95-.292.43 0 .75.098.949.291.204.2.308.53.308.98 0 .889-.375 1.267-1.258 1.267-.88 0-1.255-.378-1.255-1.266Zm5.359 9.759a.296.296 0 0 1-.193.157.276.276 0 0 1-.219-.011.314.314 0 0 1-.157-.174l-.792-2.392a.596.596 0 0 0-1.166.185c0 .061.009.123.028.184l.359 1.124.664 2.493h-.213a.602.602 0 0 0-.597.602l-.02 3.756c0 .182-.039.27-.058.289a.421.421 0 0 1-.16.028c-.157-.006-.16-.314-.16-.314l.017-3.753a.601.601 0 0 0-.596-.608h-1.673a.59.59 0 0 0-.423.179.613.613 0 0 0-.173.429l.02 3.75c0 .149-.037.252-.076.292-.006.005-.028.014-.101.022-.213-.006-.23-.244-.23-.32l-.017-3.75a.6.6 0 0 0-.596-.602h-.216l.658-2.476.364-1.14a.6.6 0 0 0-.387-.76.594.594 0 0 0-.75.39l-.79 2.386a.311.311 0 0 1-.157.177.293.293 0 0 1-.232.008.284.284 0 0 1-.165-.148.314.314 0 0 1-.017-.236L9.75 9.622a1.64 1.64 0 0 1 1.546-1.106h2.098a1.64 1.64 0 0 1 1.528 1.057l.021.049L16.468 14a.34.34 0 0 1-.017.24Zm1.073.535c.176-.364.204-.779.073-1.171l-1.513-4.367a1.209 1.209 0 0 0-.076-.193 2.833 2.833 0 0 0-2.605-1.74h-2.098a2.824 2.824 0 0 0-2.594 1.712 1.3 1.3 0 0 0-.084.201l-1.526 4.393a1.516 1.516 0 0 0 .915 1.915c.163.06.331.09.502.09h.003l-.168.633a.604.604 0 0 0 .104.524.585.585 0 0 0 .473.238h.4l.015 3.149c0 .848.599 1.504 1.397 1.523h.037c.364 0 .683-.126.927-.366.283-.278.437-.69.437-1.16l-.017-3.146h.47l-.013 3.149c0 .868.56 1.51 1.33 1.523h.037c.498 0 .81-.198.983-.372.274-.272.417-.67.417-1.148l.017-3.152h.4a.604.604 0 0 0 .577-.762l-.168-.63c.171.014.337-.028.493-.087.376-.126.678-.395.855-.756Z" fill="#313235"/></svg>