<svg width="24" height="24" viewBox="0 0 24 24" fill="none" xmlns="http://www.w3.org/2000/svg">
<path fill-rule="evenodd" clip-rule="evenodd" d="M15.3171 2.4946C14.9177 2.4946 14.5842 2.16293 14.5842 1.7473C14.5842 1.33167 14.9177 1 15.3171 1C15.7165 1 16.05 1.33167 16.05 1.7473C16.05 2.15454 15.7247 2.4946 15.3171 2.4946ZM2.53264 12.5412L11.9985 22L21.4726 12.5412C21.9955 12.0038 22.1478 11.2145 21.8472 10.484C21.5467 9.7451 20.8632 9.27069 20.1056 9.27069H15.6877V4.0102C15.6877 3.80448 15.523 3.63655 15.3212 3.63655C15.1195 3.63655 14.9548 3.80448 14.9548 4.0102V10.018H20.1221C20.682 10.018 21.032 10.4 21.1802 10.7653C21.3202 11.1138 21.3367 11.6134 20.962 11.9954L12.0108 20.942L3.05966 12.0038C2.68498 11.6218 2.70145 11.1138 2.84144 10.7653C2.98143 10.4084 3.33964 10.018 3.8996 10.018H9.04221V1.37785C9.04221 1.17213 8.87751 1.0042 8.67576 1.0042C8.47401 1.0042 8.30931 1.17213 8.30931 1.37785V9.27069H3.89137C3.13377 9.27069 2.45029 9.7451 2.14972 10.484C1.85739 11.2145 1.99738 11.9954 2.53264 12.5412Z" fill="#000033"/>
</svg>
