<svg width="24" height="24" viewBox="0 0 24 24" fill="none" xmlns="http://www.w3.org/2000/svg">
<path fill-rule="evenodd" clip-rule="evenodd" d="M20.1296 15.6675L12.6732 20.0021V11.7022L19.9608 7.62702V11.8473C19.9608 12.0363 20.1162 12.1902 20.3072 12.1902C20.4982 12.1902 20.6536 12.0363 20.6536 11.8473V6.84012L16.4835 4.41786C16.4768 4.41115 16.4674 4.40699 16.4594 4.40345L16.4525 4.40028L12.3268 2L4 6.84012V16.1599L12.3268 21L20.4804 16.261C20.6447 16.1643 20.7025 15.9533 20.6048 15.7906C20.5071 15.628 20.2939 15.5708 20.1296 15.6675ZM19.61 7.02915L12.3268 11.1043L8.99164 9.236L16.2659 5.08168L19.61 7.02915ZM8.28997 8.84475L15.5776 4.68602L12.3268 2.7957L5.04363 7.02915L8.28997 8.84475ZM4.69279 7.62263L8.09013 9.52175C8.10789 9.53494 8.12565 9.54373 8.14786 9.55252L11.9804 11.6978V19.9977L4.69279 15.7686V7.62263ZM20.3072 14.5905C20.6898 14.5905 21 14.2834 21 13.9047C21 13.5259 20.6898 13.2189 20.3072 13.2189C19.9246 13.2189 19.6144 13.5259 19.6144 13.9047C19.6144 14.2834 19.9246 14.5905 20.3072 14.5905Z" fill="#000033"/>
</svg>
