<svg width="24" height="24" viewBox="0 0 24 24" fill="none" xmlns="http://www.w3.org/2000/svg">
<path fill-rule="evenodd" clip-rule="evenodd" d="M20.9062 10.8768C20.9062 10.6704 21.0691 10.5024 21.2693 10.5024C21.4694 10.5024 21.6323 10.6656 21.6323 10.872C21.6323 12.6096 20.357 14.04 18.7233 14.2272V16.4976C18.7233 16.6464 18.6349 16.7856 18.4999 16.8432C18.4533 16.8624 18.4068 16.872 18.3603 16.872C18.2672 16.872 18.1741 16.8336 18.1043 16.7616L15.6653 14.2464H11.8162C10.0102 14.2464 8.5441 12.7344 8.5441 10.872V7.872H5.27205C3.86642 7.872 2.72609 9.048 2.72609 10.4976V15C2.72609 16.4496 3.86642 17.6256 5.27205 17.6256C5.47219 17.6256 5.63509 17.7936 5.63509 18V19.7184L7.55737 17.736C7.58995 17.7024 7.62718 17.6736 7.67373 17.6544C7.72027 17.6352 7.76681 17.6256 7.81336 17.6256H11.8115C12.868 17.6256 13.8222 16.9392 14.1946 15.9216C14.269 15.7248 14.4785 15.6288 14.6646 15.7008C14.8555 15.7776 14.9486 15.9936 14.8788 16.1856C14.404 17.496 13.1752 18.3744 11.8162 18.3744H7.96695L5.52804 20.8896C5.45823 20.9616 5.36514 21 5.27205 21C5.22551 21 5.17896 20.9904 5.13242 20.9712C4.99744 20.9136 4.90901 20.7792 4.90901 20.6256V18.3552C3.27531 18.1632 2 16.7328 2 15V10.4976C2 8.6352 3.46614 7.1232 5.27205 7.1232H8.5441V6.3744C8.5441 4.512 10.0102 3 11.8162 3H18.3603C20.1662 3 21.6323 4.512 21.6323 6.3744C21.6323 6.5808 21.4694 6.7488 21.2693 6.7488C21.0691 6.7488 20.9062 6.5808 20.9062 6.3744C20.9062 4.9248 19.7659 3.7488 18.3603 3.7488H11.8162C10.4105 3.7488 9.27019 4.9248 9.27019 6.3744V10.8768C9.27019 12.3264 10.4105 13.5024 11.8162 13.5024H15.8143C15.8608 13.5024 15.9074 13.512 15.9539 13.5312C16.0005 13.5504 16.0424 13.5792 16.0749 13.6128L17.9972 15.5952V13.8768C17.9972 13.6704 18.1601 13.5024 18.3603 13.5024C19.7659 13.5024 20.9062 12.3264 20.9062 10.8768ZM21.2739 9.3744C21.6742 9.3744 22 9.0384 22 8.6256C22 8.2128 21.6742 7.8768 21.2739 7.8768C20.8736 7.8768 20.5478 8.2128 20.5478 8.6256C20.5478 9.0384 20.8736 9.3744 21.2739 9.3744Z" fill="#000033"/>
</svg>
