<svg width="24" height="24" viewBox="0 0 24 24" fill="none" xmlns="http://www.w3.org/2000/svg">
<path fill-rule="evenodd" clip-rule="evenodd" d="M4.86106 6.89346C4.86106 6.24939 5.32724 5.76029 5.93053 5.76029H18.0695C18.6773 5.76029 19.1389 6.25424 19.1389 6.89346V11.8136C19.1389 12.0412 19.2806 12.1913 19.4954 12.1913C19.7102 12.1913 19.8519 12.0412 19.8519 11.8136V6.89346C19.8519 5.83293 19.0658 5 18.0649 5H5.93053C4.92962 5 4.14351 5.83293 4.14351 6.89346V15.9734H2V16.3511C2 17.6005 2.89122 19 4.14351 19H19.8565C21.1042 19 22 17.6005 22 16.3511V15.9734H4.86106V6.89346ZM19.8565 18.2446H4.14351C3.43053 18.2446 2.8958 17.4891 2.74954 16.7337H21.2459C21.1042 17.4843 20.5695 18.2446 19.8565 18.2446ZM19.4954 14.8354C19.1024 14.8354 18.7824 14.4964 18.7824 14.0799C18.7824 13.6634 19.1024 13.3245 19.4954 13.3245C19.8885 13.3245 20.2084 13.6634 20.2084 14.0799C20.2084 14.4964 19.8885 14.8354 19.4954 14.8354Z" fill="#000033"/>
</svg>
