<svg width="24" height="24" viewBox="0 0 24 24" fill="none" xmlns="http://www.w3.org/2000/svg">
<path fill-rule="evenodd" clip-rule="evenodd" d="M11.998 2C6.4991 2 2 6.5 2 12C2 17.5 6.4991 22 11.998 22C13.8896 22 15.7493 21.464 17.3169 20.464C17.4969 20.356 17.5329 20.14 17.4249 19.964C17.3169 19.784 17.101 19.748 16.925 19.856C15.4613 20.784 13.7457 21.284 11.962 21.284C6.89102 21.284 2.71586 17.108 2.71586 12C2.71586 6.892 6.89102 2.716 11.998 2.716C17.105 2.716 21.2841 6.892 21.2841 12C21.2841 13.752 20.7842 15.464 19.8564 16.964C19.7484 17.144 19.7844 17.36 19.9644 17.464C20.1444 17.572 20.3603 17.536 20.4643 17.356C21.4641 15.748 22 13.892 22 12C21.996 6.5 17.4969 2 11.998 2ZM19.4965 18.784C19.4965 19.1794 19.176 19.5 18.7806 19.5C18.3853 19.5 18.0648 19.1794 18.0648 18.784C18.0648 18.3886 18.3853 18.068 18.7806 18.068C19.176 18.068 19.4965 18.3886 19.4965 18.784ZM7.53489 13.428C7.32294 13.428 7.17896 13.288 7.17896 13.072C7.17896 12.856 7.31894 12.716 7.56689 12.672H8.35073C8.31474 12.456 8.27874 12.204 8.27874 11.956C8.27874 11.704 8.31474 11.456 8.35073 11.24H7.56689C7.35493 11.24 7.21096 11.1 7.21096 10.884C7.21096 10.672 7.35093 10.528 7.56689 10.528H8.53069C9.13857 8.852 10.7103 7.672 12.5659 7.672C13.3177 7.672 14.0656 7.848 14.7095 8.244C14.8894 8.348 14.9614 8.564 14.8534 8.744C14.7494 8.924 14.5335 8.996 14.3535 8.888C13.8216 8.568 13.1778 8.388 12.5699 8.388C11.1102 8.388 9.82244 9.28 9.28654 10.532H12.5699C12.7818 10.532 12.9258 10.672 12.9258 10.888C12.9258 11.1 12.7858 11.244 12.5699 11.244H9.07059C9.06648 11.2727 9.06238 11.301 9.05833 11.3289C9.02686 11.5457 8.9986 11.7403 8.9986 11.96C8.9986 12.212 9.03459 12.46 9.07059 12.676H12.5699C12.7818 12.676 12.9258 12.816 12.9258 13.032C12.9258 13.244 12.7858 13.388 12.5699 13.388H9.28654C9.82643 14.636 11.0742 15.532 12.5379 15.532C13.1778 15.532 13.7856 15.392 14.3215 15.068C14.4975 14.996 14.7135 15.032 14.8214 15.212C14.8934 15.388 14.8574 15.604 14.6775 15.712C14.0336 16.068 13.2857 16.284 12.5339 16.284C10.6783 16.284 9.10658 15.072 8.4987 13.428H7.53489Z" fill="#000033"/>
</svg>
