<svg width="24" height="24" viewBox="0 0 24 24" fill="none" xmlns="http://www.w3.org/2000/svg">
<path fill-rule="evenodd" clip-rule="evenodd" d="M14.0937 15.4076V20.327C14.0937 21.2464 13.382 22 12.5026 22C11.6231 22 10.9069 21.2512 10.9069 20.3318V15.4313L4.04365 2.5545C3.98472 2.43602 3.98472 2.29858 4.04818 2.18483C4.11165 2.07109 4.22497 2 4.3519 2H20.6441C20.7711 2 20.8889 2.07109 20.9524 2.18483C21.0159 2.29858 21.0159 2.44076 20.9524 2.5545L16.9632 9.83886C16.8635 10.0142 16.6504 10.0758 16.4782 9.9763C16.3104 9.87204 16.2515 9.64455 16.3467 9.46919L20.0322 2.73934H4.95482L11.5733 15.1469C11.605 15.2038 11.6186 15.2654 11.6186 15.327V20.3318C11.6186 20.8389 12.013 21.2559 12.5026 21.2559C12.9876 21.2559 13.3865 20.8436 13.3865 20.3318V15.3318C13.3865 15.2796 13.3956 15.2275 13.4183 15.1801L14.2161 13.327C14.2932 13.1422 14.5062 13.0569 14.683 13.1422C14.8598 13.2227 14.9414 13.4455 14.8598 13.6303L14.0937 15.4076ZM15.6848 12.3649C16.0747 12.3649 16.392 12.0332 16.392 11.6256C16.392 11.218 16.0747 10.8863 15.6848 10.8863C15.295 10.8863 14.9777 11.218 14.9777 11.6256C14.9777 12.0332 15.295 12.3649 15.6848 12.3649Z" fill="#000033"/>
</svg>
