<svg width="24" height="24" viewBox="0 0 24 24" fill="none" xmlns="http://www.w3.org/2000/svg">
<path fill-rule="evenodd" clip-rule="evenodd" d="M11.8196 19.5551L6.10822 13.7388C5.70741 13.3306 5.5992 12.7388 5.81563 12.2204C5.99599 11.7388 6.43287 11.4408 6.90581 11.4408H9.45491V2.37143C9.45491 2.15102 9.5992 2 9.81964 2C10.0361 2 10.1844 2.14694 10.1844 2.37143V12.1837H6.90982C6.65331 12.1837 6.54509 12.3673 6.50902 12.4816C6.43687 12.702 6.43687 13 6.61723 13.2204L11.8196 18.5184L17.018 13.2245C17.2345 13.0041 17.2345 12.7061 17.1263 12.4857C17.0902 12.3755 16.982 12.1878 16.7255 12.1878H13.4509V2.37143C13.4509 2.15102 13.5952 2 13.8156 2C14.0321 2 14.1804 2.14694 14.1804 2.37143V11.4449H16.7255C17.1984 11.4449 17.5992 11.7429 17.8156 12.2245C18.0321 12.7429 17.9238 13.3714 17.523 13.7429L11.8196 19.5551ZM22 12.3714C22 12.7794 21.6752 13.1102 21.2745 13.1102C20.8739 13.1102 20.5491 12.7794 20.5491 12.3714C20.5491 11.9634 20.8739 11.6327 21.2745 11.6327C21.6752 11.6327 22 11.9634 22 12.3714ZM3.81964 22H19.8196C20.8377 22 21.6353 21.1837 21.6393 20.1469V14.5918C21.6393 14.3673 21.491 14.2204 21.2745 14.2204C21.0541 14.2204 20.9098 14.3714 20.9098 14.5918V20.1469C20.9098 20.7755 20.4369 21.2571 19.8196 21.2571H3.81964C3.2024 21.2571 2.72946 20.7755 2.72946 20.1469V12C2.72946 11.7755 2.58517 11.6286 2.36473 11.6286C2.14429 11.6286 2 11.7796 2 12V20.1469C2 21.1837 2.8016 22 3.81964 22Z" fill="#000033"/>
</svg>
