<svg width="24" height="24" viewBox="0 0 24 24" fill="none" xmlns="http://www.w3.org/2000/svg">
<path fill-rule="evenodd" clip-rule="evenodd" d="M5.73164 21.2557H18.5541C18.7557 21.2557 18.9246 21.4264 18.9246 21.6302C18.9246 21.8341 18.7604 22 18.5588 22H5V2H18.9199V5.7023V9.4046V17.1837C18.9199 17.3875 18.7557 17.5534 18.5541 17.5534C18.3524 17.5534 18.1883 17.3875 18.1883 17.1837V9.4046H5.73164V21.2557ZM5.73164 4.96279V8.66509H18.1883V5.7023V4.96279H5.73164ZM18.1883 2.73951V4.21854H5.73164V2.73951H18.1883ZM18.5541 20.1417C18.9581 20.1417 19.2857 19.8106 19.2857 19.4022C19.2857 18.9938 18.9581 18.6627 18.5541 18.6627C18.15 18.6627 17.8224 18.9938 17.8224 19.4022C17.8224 19.8106 18.15 20.1417 18.5541 20.1417ZM6.83379 10.8884H10.8625V14.5907H6.83379V10.8884ZM7.56074 13.8511H10.1262V11.6279H7.56074V13.8511ZM12.3258 12.3674H16.725C16.9266 12.3674 17.0908 12.5333 17.0908 12.7371C17.0908 12.941 16.9266 13.1069 16.725 13.1069H12.3258C12.1241 13.1069 11.9599 12.941 11.9599 12.7371C11.9599 12.5333 12.1241 12.3674 12.3258 12.3674ZM10.8578 19.7767H6.8291V16.0744H10.8578V19.7767ZM10.1262 16.8139H7.56074V19.0372H10.1262V16.8139ZM12.3258 17.5534H16.725C16.9266 17.5534 17.0908 17.7194 17.0908 17.9232C17.0908 18.127 16.9266 18.293 16.725 18.293H12.3258C12.1241 18.293 11.9599 18.127 11.9599 17.9232C11.9599 17.7194 12.1241 17.5534 12.3258 17.5534Z" fill="#313235"/>
</svg>
