<svg width="24" height="24" viewBox="0 0 24 24" fill="none" xmlns="http://www.w3.org/2000/svg">
<path fill-rule="evenodd" clip-rule="evenodd" d="M14.2399 18.403L12.3262 21.8079C12.259 21.9232 12.1343 22 12 22C11.8657 22 11.741 21.928 11.6738 21.8079L9.76007 18.403L6.21073 20.031C6.09082 20.0886 5.94693 20.0742 5.83661 19.9926C5.72629 19.9157 5.66873 19.7813 5.68312 19.6468L6.13399 15.7616L2.30645 14.9884C2.17215 14.9644 2.06663 14.8683 2.02346 14.7387C1.98029 14.609 2.01387 14.4697 2.105 14.3689L4.74782 11.4922L2.1002 8.61552C2.00907 8.51466 1.97549 8.37539 2.01866 8.24573C2.06183 8.12086 2.16735 8.02481 2.30165 7.996L6.12919 7.2228L5.67833 3.3376C5.66394 3.20313 5.72149 3.07347 5.83181 2.99182C5.93733 2.91018 6.08122 2.89578 6.20593 2.9534L9.75528 4.58144L11.669 1.17649C11.8033 0.94117 12.1871 0.94117 12.3214 1.17649L14.2351 4.58144L17.7845 2.9534C17.9092 2.89578 18.0531 2.91018 18.1634 2.99182C18.2737 3.06866 18.3313 3.20313 18.3169 3.3376L17.866 7.2228L21.6936 7.996C21.8279 8.02001 21.9334 8.11606 21.9765 8.24573C22.0197 8.37539 21.9861 8.51466 21.895 8.61552L19.2522 11.4922L21.8998 14.3785C21.9909 14.4793 22.0245 14.6186 21.9813 14.7483C21.9382 14.8731 21.8326 14.9692 21.6983 14.998L19.8565 15.3678C19.6551 15.411 19.4584 15.2765 19.4153 15.0748C19.3721 14.8731 19.5064 14.6762 19.7078 14.633L20.8973 14.3929L18.4704 11.7515C18.3361 11.6075 18.3361 11.3865 18.4704 11.2425L20.8973 8.60111L17.3864 7.89515C17.1945 7.85673 17.065 7.67423 17.089 7.48213L17.5015 3.9187L14.2447 5.41227C14.0673 5.49391 13.8562 5.42187 13.7603 5.25379L12 2.12738L10.2445 5.24418C10.1486 5.41707 9.93754 5.48431 9.76007 5.40266L6.50331 3.9091L6.9158 7.47253C6.93978 7.66943 6.81028 7.84712 6.61842 7.88554L3.10745 8.5915L5.53443 11.2329C5.66873 11.3769 5.66873 11.5978 5.53443 11.7419L3.10745 14.3833L6.61842 15.0892C6.81028 15.1277 6.93978 15.3102 6.9158 15.5023L6.50331 19.0657L9.76007 17.5721C9.93754 17.4905 10.1486 17.5625 10.2445 17.7306L12 20.857L13.7555 17.7354C13.8514 17.5625 14.0625 17.4953 14.2399 17.5769L17.4967 19.0705L17.3624 17.9083C17.3384 17.7018 17.4871 17.5145 17.6933 17.4905C17.9044 17.4665 18.0866 17.6153 18.1106 17.8219L18.3217 19.6468C18.3361 19.7813 18.2785 19.9109 18.1682 19.9926C18.0579 20.0742 17.914 20.0886 17.7893 20.031L14.2399 18.403ZM18.3696 15.6175C18.3696 15.2045 18.0339 14.8683 17.6214 14.8683C17.2089 14.8683 16.8732 15.2045 16.8732 15.6175C16.8732 16.0305 17.2089 16.3667 17.6214 16.3667C18.0339 16.3667 18.3696 16.0305 18.3696 15.6175Z" fill="#000033"/>
</svg>
