<svg width="24" height="24" viewBox="0 0 24 24" fill="none" xmlns="http://www.w3.org/2000/svg">
<path fill-rule="evenodd" clip-rule="evenodd" d="M4.81811 21.7481C5.1249 21.928 5.43169 22 5.77256 22C6.07936 22 6.42023 21.928 6.69294 21.7841L16.9723 15.5674C17.1427 15.4595 17.2109 15.2436 17.1086 15.0637C17.0064 14.8838 16.8019 14.8118 16.6314 14.9198L6.35206 21.1764C5.97709 21.3563 5.53395 21.3563 5.15898 21.1405C4.85219 20.9606 4.68176 20.6367 4.68176 20.3129V3.78572C4.68176 3.42592 4.88628 3.10209 5.22716 2.8862C5.60213 2.67032 6.01118 2.63434 6.35206 2.85022L19.8281 11.0738C20.1008 11.2537 20.2712 11.5416 20.3053 11.8654C20.3394 12.2252 20.2372 12.549 19.9985 12.7649C19.8622 12.9089 19.8281 13.1247 19.9644 13.2687C20.1008 13.4126 20.3053 13.4486 20.4417 13.3046C20.8507 12.9129 21.0553 12.3731 20.9871 11.7974C20.953 11.2577 20.6462 10.754 20.169 10.4662L6.65506 2.23855C6.11344 1.91472 5.43169 1.91472 4.85219 2.27453C4.34088 2.59436 4 3.17005 4 3.78173V20.3129C4 20.8846 4.30679 21.4243 4.81811 21.7481ZM18.6388 14.7439C19.0153 14.7439 19.3206 14.4217 19.3206 14.0243C19.3206 13.6268 19.0153 13.3046 18.6388 13.3046C18.2623 13.3046 17.9571 13.6268 17.9571 14.0243C17.9571 14.4217 18.2623 14.7439 18.6388 14.7439Z" fill="#000033"/>
</svg>
