<svg width="24" height="24" viewBox="0 0 24 24" fill="none" xmlns="http://www.w3.org/2000/svg">
<path fill-rule="evenodd" clip-rule="evenodd" d="M3.45522 6.70833H12.0187C14.8265 6.70833 17.1213 9.10815 17.1213 12.0445C17.1213 13.5663 16.5009 15.015 15.4095 16.0052C15.2649 16.1564 15.2649 16.3856 15.3722 16.5368C15.4468 16.6149 15.5541 16.649 15.6287 16.649C15.7034 16.649 15.8106 16.61 15.8853 16.5368C17.1259 15.3955 17.8535 13.7566 17.8535 12.0396C17.8535 8.68379 15.2323 5.94253 12.0233 5.94253H3.45522L4.62127 4.64507C4.76586 4.49386 4.76586 4.26461 4.62127 4.11341C4.47668 3.9622 4.25746 3.9622 4.11287 4.11341L2 6.32299L4.11287 8.45942C4.1875 8.53746 4.29478 8.5716 4.3694 8.5716C4.44403 8.5716 4.55131 8.53258 4.62593 8.45942C4.77052 8.30821 4.77052 8.07896 4.62593 7.92775L3.45522 6.70833ZM19.416 15.5906C19.2715 15.7418 19.2715 15.971 19.416 16.1222L20.6194 17.3807H12.0187C9.21082 17.3807 6.91604 14.9809 6.91604 12.0445C6.91604 11.4738 6.99067 10.9031 7.17257 10.3276C7.2472 10.1373 7.13526 9.90809 6.95336 9.83004C6.77146 9.752 6.55224 9.86906 6.47761 10.0593C6.29571 10.708 6.18377 11.3568 6.18377 12.0396C6.18377 15.3955 8.80504 18.1367 12.014 18.1367H20.5774L19.4114 19.3561C19.2668 19.5074 19.2668 19.7366 19.4114 19.8878C19.486 19.9659 19.5933 20 19.6679 20C19.7425 20 19.8498 19.961 19.9244 19.8878L22 17.7172L19.9244 15.5467C19.8172 15.4345 19.5606 15.4345 19.416 15.5906ZM8.55784 8.23017C8.55784 7.81069 8.23134 7.46925 7.83022 7.46925C7.42444 7.46925 7.10261 7.81069 7.10261 8.23017C7.10261 8.64965 7.4291 8.99108 7.83022 8.99108C8.23134 8.99108 8.55784 8.64965 8.55784 8.23017Z" fill="#313235"/>
</svg>
