<svg width="24" height="24" viewBox="0 0 24 24" fill="none" xmlns="http://www.w3.org/2000/svg">
<path fill-rule="evenodd" clip-rule="evenodd" d="M21.8947 9.24571L20.4538 7.70971H18.6931C18.621 7.53143 18.5175 7.35314 18.3779 7.21143L15.3518 4.07086C15.2798 2.928 14.3296 2 13.1724 2C12.3978 2 11.6954 2.39314 11.3081 3.10629L6.27371 11.8926C5.39561 12.3223 4.76069 13.2503 4.76069 14.32V18.7863C3.77452 18.7863 3 19.5726 3 20.5737V22H11.7944V20.5737C11.7944 19.5726 11.0199 18.7863 10.0337 18.7863V14.32C10.0337 12.8571 8.83593 11.6411 7.39496 11.6411H7.25537L11.9385 3.42629C12.1862 2.99657 12.677 2.71314 13.1679 2.71314C13.9784 2.71314 14.6448 3.38971 14.6448 4.21257C14.6448 4.464 14.5728 4.71086 14.4332 4.92571L11.7989 9.712C11.6954 9.89029 11.7629 10.1051 11.9385 10.2103C12.1141 10.3154 12.3258 10.2469 12.4294 10.0686L14.2216 6.89143L16.4731 9.17714C16.5586 9.264 16.6217 9.328 16.7207 9.36457V11.8194L18.2698 12.9989C18.3328 13.0491 18.4049 13.072 18.4814 13.072C18.5895 13.072 18.6931 13.0217 18.7651 12.9303C18.8822 12.7749 18.8507 12.5509 18.6931 12.432L17.4277 11.4674V9.61143C18.0942 9.61143 18.6571 9.11314 18.7651 8.432H20.1386L21.4039 9.75314C21.476 9.82629 21.5795 9.85829 21.6516 9.85829C21.7236 9.85829 21.8272 9.82171 21.8992 9.75314C22.0343 9.60686 22.0343 9.392 21.8947 9.24571ZM10.0382 19.4994C10.6371 19.4994 11.092 19.9657 11.092 20.5691V21.2823H3.70698V20.5691C3.70698 19.9611 4.16629 19.4994 4.76069 19.4994H5.11192H9.68701H10.0382ZM9.33577 14.32C9.33577 13.2457 8.45318 12.3543 7.39947 12.3543C6.34575 12.3543 5.46316 13.2457 5.46316 14.32V18.7863H9.33577V14.32ZM17.3917 8.88914C17.2161 8.88914 17.0405 8.816 16.9009 8.67429L14.5413 6.28343L15.1042 5.31886C15.1762 5.21371 15.2077 5.104 15.2438 4.96229L17.8825 7.71429C18.0221 7.856 18.0942 8.03429 18.0942 8.21257C18.0942 8.56914 17.779 8.88914 17.3917 8.88914ZM11.0965 12.3543C11.4837 12.3543 11.7989 12.0343 11.7989 11.6411C11.7989 11.248 11.4837 10.928 11.0965 10.928C10.7092 10.928 10.394 11.248 10.394 11.6411C10.394 12.0343 10.7092 12.3543 11.0965 12.3543Z" fill="#000033"/>
</svg>
