<svg width="24" height="24" viewBox="0 0 24 24" fill="none" xmlns="http://www.w3.org/2000/svg">
<path fill-rule="evenodd" clip-rule="evenodd" d="M11.6682 15.3098L9.15886 13.8482C9.32061 13.4282 9.40771 12.9746 9.40771 12.5C9.40771 11.912 9.27084 11.3534 9.03443 10.8578L15.1688 7.754C15.8241 8.804 16.9813 9.5012 18.2961 9.5012C20.3368 9.5012 22 7.817 22 5.7506C22 3.6842 20.3368 2 18.2961 2C16.2555 2 14.5923 3.6842 14.5923 5.7506C14.5923 6.221 14.6794 6.6704 14.8328 7.082L8.6404 10.2194C7.96433 9.329 6.89838 8.7494 5.70386 8.7494C3.66321 8.7494 2 10.4336 2 12.5C2 14.5664 3.66321 16.2506 5.70386 16.2506C7.01037 16.2506 8.16342 15.5576 8.8229 14.5202L11.299 15.9608C11.3571 15.9944 11.4193 16.0112 11.4815 16.0112C11.6101 16.0112 11.7346 15.944 11.8009 15.8222C11.9088 15.6416 11.8465 15.4148 11.6682 15.3098ZM14.5923 19.2494C14.5923 17.183 16.2555 15.4988 18.2961 15.4988C20.3368 15.4988 22 17.183 22 19.2494C22 21.3158 20.3368 23 18.2961 23C16.2555 23 14.5923 21.3158 14.5923 19.2494ZM15.3347 19.2494C15.3347 20.9042 16.662 22.2482 18.2961 22.2482C19.9303 22.2482 21.2576 20.9042 21.2576 19.2494C21.2576 17.5946 19.9303 16.2506 18.2961 16.2506C16.662 16.2506 15.3347 17.5946 15.3347 19.2494ZM21.2576 5.7506C21.2576 4.0958 19.9303 2.7518 18.2961 2.7518C16.662 2.7518 15.3347 4.0958 15.3347 5.7506C15.3347 7.4054 16.662 8.7494 18.2961 8.7494C19.9303 8.7494 21.2576 7.4054 21.2576 5.7506ZM5.70386 15.4988C4.06968 15.4988 2.74243 14.1548 2.74243 12.5C2.74243 10.8452 4.06968 9.5012 5.70386 9.5012C7.33803 9.5012 8.66528 10.8452 8.66528 12.5C8.66528 14.1548 7.33803 15.4988 5.70386 15.4988ZM13.4807 17.3762C13.8907 17.3762 14.2231 17.0396 14.2231 16.6244C14.2231 16.2092 13.8907 15.8726 13.4807 15.8726C13.0707 15.8726 12.7383 16.2092 12.7383 16.6244C12.7383 17.0396 13.0707 17.3762 13.4807 17.3762Z" fill="#000033"/>
</svg>
