<svg width="24" height="24" viewBox="0 0 24 24" fill="none" xmlns="http://www.w3.org/2000/svg">
<path fill-rule="evenodd" clip-rule="evenodd" d="M21.6323 16.3784C21.6323 16.5848 21.4694 16.7529 21.2693 16.7529H13.636V18.251H16.182C16.3821 18.251 16.545 18.419 16.545 18.6255C16.545 18.8319 16.3821 19 16.182 19H13.636H10.0009H7.45497C7.25483 19 7.09192 18.8319 7.09192 18.6255C7.09192 18.419 7.25483 18.251 7.45497 18.251H10.0009V16.7529H2V4H21.637V11.8793C21.637 12.0858 21.4741 12.2538 21.2739 12.2538C21.0738 12.2538 20.9109 12.0858 20.9109 11.8793V4.74904H2.72609V16.0038H9.99628H13.6314H21.2693C21.4694 16.0038 21.6323 16.1671 21.6323 16.3784ZM22 14.1264C22 14.5394 21.6742 14.8755 21.2739 14.8755C20.8736 14.8755 20.5478 14.5394 20.5478 14.1264C20.5478 13.7135 20.8736 13.3774 21.2739 13.3774C21.6742 13.3774 22 13.7135 22 14.1264ZM10.7224 16.7529H12.9053V18.251H10.7224V16.7529Z" fill="#000033"/>
</svg>
