<svg width="24" height="24" viewBox="0 0 24 24" fill="none" xmlns="http://www.w3.org/2000/svg">
<path fill-rule="evenodd" clip-rule="evenodd" d="M21.5867 17.9615L19.3753 18.3011C20.7789 16.5254 21.5507 14.3404 21.5507 12.0368C21.5507 6.48854 17.1599 2 11.7733 2C6.38681 2 2 6.48854 2 12C2 17.5115 6.39081 22 11.7773 22C12.7731 22 13.7688 21.8486 14.6886 21.5458C14.8725 21.4681 14.9845 21.284 14.9445 21.0548C14.8685 20.8666 14.6886 20.752 14.4646 20.793C13.5809 21.0548 12.6931 21.2103 11.7733 21.2103C6.7947 21.2103 2.7358 17.0573 2.7358 11.9632C2.7358 6.86907 6.7947 2.71604 11.7773 2.71604C16.76 2.71604 20.8149 6.86907 20.8149 11.9632C20.8149 14.1522 20.0751 16.2635 18.6755 17.9247L18.3076 15.4329C18.2716 15.2447 18.0876 15.0933 17.8997 15.1301C17.7157 15.1669 17.5678 15.3552 17.6038 15.5475L18.1196 19.2095L21.6987 18.6817C21.8826 18.6448 22.0306 18.4566 21.9946 18.2643C21.9546 18.0761 21.7666 17.9206 21.5867 17.9615ZM12.1412 11.8445V4.82733C12.1412 4.60229 11.9933 4.4509 11.7733 4.4509C11.5534 4.4509 11.4054 4.60229 11.4054 4.82733V12C11.4054 12.1146 11.4414 12.1882 11.5174 12.2619L14.6526 15.4697C14.7285 15.5475 14.8365 15.5843 14.9085 15.5843C14.9805 15.5843 15.0924 15.5475 15.1644 15.4697C15.3124 15.3183 15.3124 15.0933 15.1644 14.9419L12.1412 11.8445ZM17.2981 20.4189C17.3651 20.0064 17.0922 19.619 16.6887 19.5535C16.2851 19.488 15.9037 19.7693 15.8368 20.1817C15.7698 20.5941 16.0427 20.9815 16.4463 21.047C16.8498 21.1125 17.2312 20.8313 17.2981 20.4189Z" fill="#313235"/>
</svg>
