<svg xmlns="http://www.w3.org/2000/svg" width="24" height="24" fill="none"><path fill="#003" d="M12.432 22H19v-7.036c0-.572-.332-1.108-.867-1.356-.466-.18-1.134-.18-1.466.18l-1 1.072L8.333 7 6.466 9c-.064.072-.133 0-.133-.072v-5.5h5.132c.065 0 .104.108.065.144-.435.5-1.867 2-1.867 2l5.835 6.248 1-1.072-4.83-5.176 1-1.072c.333-.356.333-1.072.168-1.572C12.6 2.356 12.1 2 11.57 2H5v7.036c0 .572.332 1.108.867 1.356.466.18 1.134.18 1.466-.18l1-1.072L15.667 17l1.868-2c.065-.072.133 0 .133.072v5.5h-5.132c-.065 0-.104-.108-.065-.144l1.867-2-5.835-6.252-1 1.072 4.834 5.18-1 1.072c-.333.356-.333 1.072-.168 1.572.232.572.733.928 1.264.928"/></svg>