<svg xmlns="http://www.w3.org/2000/svg" width="24" height="24" fill="none"><path fill="#003" d="M15.94 3.074h1.796c1.185 0 2.154.965 2.154 2.144V22H4.1V5.214c0-1.18.97-2.144 2.154-2.144H8.05V2h7.89zM7.87 8.075h8.249c.29 0 .542.252.542.535a.55.55 0 0 1-.537.535H7.87a.55.55 0 0 1-.538-.535c0-.283.253-.535.538-.535m8.249 2.858H7.871a.55.55 0 0 0-.538.534c0 .284.253.535.538.535h8.253a.55.55 0 0 0 .537-.535.553.553 0 0 0-.542-.534m0 2.857H7.871a.55.55 0 0 0-.538.535c0 .283.253.534.538.534h8.253a.55.55 0 0 0 .537-.534.553.553 0 0 0-.542-.535m0 2.857H7.871a.55.55 0 0 0-.538.535c0 .283.253.535.538.535h8.253a.55.55 0 0 0 .537-.535.553.553 0 0 0-.542-.535M9.088 3.074v1.788h5.777V3.074zm-3.55 17.5h12.914V5.214a.716.716 0 0 0-.716-.713h-1.792v1.43H8.05V4.505H6.254a.716.716 0 0 0-.716.713z"/></svg>