<svg xmlns="http://www.w3.org/2000/svg" width="24" height="24" fill="none"><path fill="#00001E" d="m15.067 2.68 3.616 3.64c.413.428.726 1.144.722 1.752V22H4.625L4.59 4.32C4.59 3 5.49 2 6.658 2h6.893c.586 0 1.103.248 1.516.68M6.002 20.572h12.033v-12.5c0-.216-.135-.572-.309-.752l-3.62-3.644c-.173-.176-.343-.248-.551-.248H6.662c-.482 0-.69.464-.69.892z"/><path fill="#00001E" d="M9.587 15.536c-.104-.32-.139-.644-.173-1.036 0 0 0-.036-.008-.068v-.144c0-1.464 1.173-2.644 2.586-2.644 1.516 0 2.585 1.14 2.585 2.784 0 .284-.243.536-.517.536h-3.55c.017.036.026.081.034.126.01.045.018.09.035.126.035.104.104.248.174.356.243.396.69.644 1.173.68.517.072 1.034-.144 1.412-.5a.487.487 0 0 1 .726 0 .53.53 0 0 1 0 .752c-.482.536-1.239.82-1.964.82h-.274a2.64 2.64 0 0 1-1.93-1.144 3 3 0 0 1-.309-.644m3.894-1.64c-.174-.716-.725-1.18-1.482-1.18-.721 0-1.343.5-1.516 1.18z"/><path fill="#00001E" d="M8.553 9.68h6.892c.757 0 1.378.64 1.378 1.428v8.212H7.176v-8.212c0-.784.62-1.428 1.377-1.428m0 8.212h6.892v-6.784H8.553z"/></svg>