<svg xmlns="http://www.w3.org/2000/svg" width="24" height="24" fill="none"><path fill="#003" d="M11.982 7.208c-2.577 0-4.653 2.137-4.653 4.79s2.076 4.79 4.653 4.79 4.653-2.138 4.653-4.79-2.077-4.79-4.653-4.79m0 8.106c-1.788 0-3.22-1.475-3.22-3.316s1.432-3.316 3.22-3.316 3.22 1.475 3.22 3.316-1.432 3.316-3.22 3.316"/><path fill="#003" d="M22 12.146v-.37q0-.022-.003-.034c-.004-.01-.012-.02-.033-.04v-.038C20.104 7.504 16.383 5 11.982 5S3.86 7.504 2.036 11.701v.037q0 .022-.003.034c-.004.01-.012.02-.033.04v.445q0 .022.003.034c.004.01.012.02.033.04v.038C3.86 16.496 7.581 19 11.982 19s8.122-2.504 9.946-6.706v-.037q0-.021.003-.033c.004-.01.012-.02.033-.04 0 0 0-.038.036-.038m-10.018 5.375c-3.72 0-6.87-2.063-8.514-5.523 1.645-3.464 4.793-5.523 8.514-5.523s6.87 2.059 8.514 5.523c-1.645 3.464-4.793 5.523-8.514 5.523"/></svg>