<svg xmlns="http://www.w3.org/2000/svg" width="24" height="24" fill="none"><path fill="#00001E" d="M6.287 4.694c0-1.207-.96-2.194-2.143-2.194C2.96 2.5 2 3.482 2 4.694s.96 2.193 2.144 2.193c1.183 0 2.143-.986 2.143-2.193m14.995.365H7.713A.72.72 0 0 1 7 4.329c0-.402.32-.73.713-.73h13.57c.392 0 .712.328.712.73a.72.72 0 0 1-.713.73M22 12c0-.402-.32-.73-.713-.73H7.713A.72.72 0 0 0 7 12c0 .402.32.73.713.73h13.57A.723.723 0 0 0 22 12m-.713 6.946c.393 0 .713.327.713.73s-.32.73-.718.73H7.713a.72.72 0 0 1-.713-.73c0-.402.32-.73.713-.73zM6.287 12c0-1.207-.96-2.194-2.143-2.194C2.96 9.806 2 10.79 2 12s.96 2.194 2.144 2.194c1.183 0 2.143-.987 2.143-2.194m-2.139.73a.72.72 0 0 1-.713-.73c0-.402.32-.73.713-.73s.713.328.713.73-.32.73-.713.73m2.139 6.576c0-1.207-.96-2.193-2.143-2.193-1.184 0-2.144.982-2.144 2.193S2.96 21.5 4.144 21.5c1.183 0 2.143-.982 2.143-2.194m-2.139.73a.72.72 0 0 1-.713-.73c0-.402.32-.73.713-.73s.713.328.713.73-.32.73-.713.73m0-14.613a.72.72 0 0 1-.713-.73c0-.402.32-.729.713-.729a.72.72 0 0 1 .713.73c0 .402-.32.73-.713.73"/></svg>