<svg xmlns="http://www.w3.org/2000/svg" width="24" height="24" fill="none"><path fill="#003" d="M17.553 5.074c2.443 0 4.443 2.077 4.443 4.614L22 16.995c0 .42-.332.768-.74.768-.404 0-.74-.344-.74-.768V9.688c0-1.694-1.331-3.077-2.963-3.077s-2.963 1.387-2.963 3.077v7.697c0 2.5-2.112 4.615-4.632 4.615-2.443 0-4.443-2.077-4.443-4.615v-1.923C3.484 15.076 2 13.232 2 11.038V5.846h1.664V2.768c0-.423.34-.768.744-.768s.74.345.74.768v3.078H7.37V2.768c0-.423.332-.768.744-.768.404 0 .74.345.74.768v3.074h1.663v5.192c0 2.193-1.483 4.038-3.519 4.424v1.923c0 1.695 1.336 3.078 2.963 3.078 1.664 0 3.148-1.425 3.148-3.078V9.688c0-2.537 2-4.614 4.443-4.614M3.483 7.379v3.655c0 1.579 1.264 2.883 2.78 2.883s2.776-1.304 2.776-2.883V7.38z"/></svg>