<svg xmlns="http://www.w3.org/2000/svg" width="24" height="24" fill="none"><path fill="#00001E" d="M17 21.282c0 .393-.31.713-.689.713a.7.7 0 0 1-.688-.713v-8.571h-1.378a.7.7 0 0 1-.689-.713v-7.14C13.556 3.28 14.793 2 16.316 2c.375-.005.684.315.684.713zM12.514 3.07a.706.706 0 0 0-.693-.713c-.38 0-.688.32-.688.713v5.357a.704.704 0 0 1-.68.714V3.07a.7.7 0 0 0-.69-.713c-.379 0-.688.32-.688.713v6.07h-.009a.7.7 0 0 1-.689-.713V3.07a.7.7 0 0 0-.688-.713c-.38 0-.689.32-.689.713v5.357c0 1.184.932 2.144 2.07 2.144h.01v10.716c0 .393.309.713.688.713.38 0 .689-.32.689-.713V10.57c1.135-.009 2.057-.964 2.057-2.144zm2.415 1.787v6.428h.69V3.618a1.44 1.44 0 0 0-.69 1.24"/></svg>