<svg xmlns="http://www.w3.org/2000/svg" width="24" height="24" fill="none"><path fill="#00001E" d="M21.241 11.429c.247-.36.393-.801.393-1.28 0-1.024-.672-1.887-1.581-2.143a2.3 2.3 0 0 0 .155-.82c0-1.024-.671-1.887-1.58-2.143.095-.256.154-.53.154-.82C18.782 3 17.822 2 16.64 2h-6.07c-.854 0-1.713.36-2.29.958-.31.322-.8.521-1.279.521H2.713a.73.73 0 0 0-.713.74c0 .407.32.739.713.739H7A3.24 3.24 0 0 0 9.29 4c.31-.322.8-.521 1.28-.521h6.069c.393 0 .713.332.713.74 0 .407-.32.739-.713.739a.73.73 0 0 0-.713.74c0 .407.32.74.713.74h1.426c.393 0 .713.33.713.739 0 .407-.32.74-.713.74h-.357a.73.73 0 0 0-.713.739c0 .407.32.74.713.74h1.787c.393 0 .713.33.713.739 0 .407-.32.74-.713.74H18.07a.73.73 0 0 0-.713.739c0 .407.32.74.713.74h1.787c.393 0 .713.331.713.739 0 .407-.32.74-.713.74h-7.149a.73.73 0 0 0-.713.739c0 .407.32.74.713.74h.435l.991 3.26v1.025c0 .512-.365.924-.813.924-.334 0-.718-.175-.818-.564l-.53-2.21a.75.75 0 0 0-.188-.345l-3.866-4.01a2.08 2.08 0 0 0-1.513-.65H2.713a.73.73 0 0 0-.713.74c0 .407.32.739.713.739h3.693c.192 0 .37.076.507.218l3.725 3.863.49 2.025C11.387 21.332 12.27 22 13.33 22c1.234 0 2.24-1.08 2.24-2.408v-1.11a.7.7 0 0 0-.033-.222l-.89-2.925h5.21c1.179 0 2.143-.996 2.143-2.223a2.26 2.26 0 0 0-.759-1.683"/></svg>