<svg xmlns="http://www.w3.org/2000/svg" width="24" height="24" fill="none"><path fill="#00001E" d="M9.015 21.79c.126.137.3.21.479.21a.68.68 0 0 0 .483-.21l11.35-11.924a.735.735 0 0 0 0-1.005l-2.294-2.41a.673.673 0 0 0-.962 0 .55.55 0 0 1-.784 0 .6.6 0 0 1 0-.822.74.74 0 0 0 0-1.01L14.993 2.21a.65.65 0 0 0-.958 0L2.68 14.14a.735.735 0 0 0 0 1.005l2.295 2.409a.66.66 0 0 0 .962 0 .534.534 0 0 1 .784 0c.104.11.16.256.16.411a.6.6 0 0 1-.16.412.736.736 0 0 0 0 1.006zm.479-1.513-1.42-1.49c.114-.256.17-.54.17-.827 0-.535-.2-1.042-.561-1.422a1.86 1.86 0 0 0-2.138-.41l-1.42-1.49 10.393-10.91 1.415 1.485a2.08 2.08 0 0 0 .392 2.244 1.86 1.86 0 0 0 2.142.416l1.42 1.49zm1.106-4.36a.5.5 0 0 1-.166-.028.53.53 0 0 1-.34-.452l-.187-2.057-1.71-.818a.55.55 0 0 1-.301-.493.53.53 0 0 1 .314-.485l1.789-.79.222-1.993a.53.53 0 0 1 .357-.448.495.495 0 0 1 .536.164l1.24 1.518 1.907-.384c.2-.041.4.046.518.224a.55.55 0 0 1 .013.585l-.992 1.677.931 1.82a.55.55 0 0 1-.043.575.5.5 0 0 1-.518.197l-1.872-.44-1.328 1.459a.5.5 0 0 1-.37.169m-.005-3.387a.54.54 0 0 1 .296.434l.11 1.198.752-.832a.49.49 0 0 1 .48-.15l1.066.25-.54-1.06a.56.56 0 0 1 .018-.534l.53-.905-1.057.214a.49.49 0 0 1-.483-.178l-.675-.832-.122 1.084a.53.53 0 0 1-.31.43l-.988.442z"/></svg>