<svg xmlns="http://www.w3.org/2000/svg" width="24" height="24" fill="none"><path fill="#00001E" d="M12.563 3.638H18.6v1.785l-.565-.496c-.227-.19-.604-.19-.792.04-.189.228-.189.607.038.797l1.889 1.673 1.888-1.673a.55.55 0 0 0 .039-.798.543.543 0 0 0-.792-.039l-.565.496V2.5h-8.307v6.08H9.167v6.84h5.66V8.58h-2.264zm-.565 12.925-1.889 1.673a.55.55 0 0 0-.039.798.543.543 0 0 0 .793.039l.565-.497v1.786H5.39V15.42h2.266V8.58H2v6.84h2.265v6.08h8.303v-2.928l.565.496c.11.078.227.15.376.15.15 0 .3-.077.416-.19.188-.228.188-.607-.039-.797zM16.34 8.58H22v6.84h-2.265v5.166c0 .301-.266.569-.565.569a.584.584 0 0 1-.565-.57V15.42H16.34zm1.506 5.322h2.642v-3.799h-2.642zM6.15 10.098v3.8H3.507v-3.8zm4.525 3.804v-3.799h2.642v3.8z"/></svg>