<svg width="24" height="25" viewBox="0 0 24 25" xmlns="http://www.w3.org/2000/svg"><path d="M15.51 3.025c.232 0 .448.09.616.25L21.423 8.4c.11.109.174.243.216.386.03.073.047.154.047.238V21.33c0 .751-.644 1.384-1.409 1.384H8.095c-.75 0-1.409-.647-1.409-1.384l.034-2.773h-2.3A2.427 2.427 0 012 16.132v-4.093a2.427 2.427 0 012.42-2.426h2.266V4.41c0-.726.673-1.384 1.41-1.384h7.414zm-1.244 7.807H4.42a1.21 1.21 0 00-1.207 1.21v4.092c0 .667.54 1.21 1.207 1.21h9.846a1.21 1.21 0 001.207-1.21v-4.092c0-.667-.54-1.21-1.207-1.21zm-5.244 1.361l1.373 3.804h-.93l-.317-.955H7.913l-.294.955h-.83l1.278-3.804h.955zm2.695 0v3.804h-.868v-3.804h.868zm-3.193.95h-.011l-.395 1.269h.823l-.417-1.27zm7.325-8.446v1.765c0 .658.215 1.213.622 1.608.414.4.997.61 1.691.61h1.802l-4.115-3.983z" fill="#313235" fill-rule="nonzero"/></svg>