<svg width="24" height="24" xmlns="http://www.w3.org/2000/svg"><path d="M18.938 5.433c.11.1 2.7 2.518 2.745 6.641.006.137.146 4.2-2.708 6.796a1.05 1.05 0 0 1-.703.274c-.292 0-.58-.123-.787-.358a1.088 1.088 0 0 1 .084-1.516c2.12-1.927 2.01-5.106 2.008-5.137-.036-3.188-1.97-5.034-2.053-5.112a1.087 1.087 0 0 1-.067-1.513 1.045 1.045 0 0 1 1.481-.075Zm-.829 6.678c.003.08.098 2.832-1.843 4.593a1.038 1.038 0 0 1-1.49-.084 1.086 1.086 0 0 1 .084-1.515c1.185-1.078 1.143-2.919 1.14-2.938-.02-1.852-1.154-2.942-1.168-2.953a1.088 1.088 0 0 1-.078-1.515 1.042 1.042 0 0 1 1.487-.081c.078.072 1.837 1.714 1.868 4.493Zm-6.4 5.098V6.659c-1.843.085-3.115.715-3.925 1.92a1.03 1.03 0 0 1-.96.663c-.006 0-.012-.005-.014-.005-.009 0-.014.005-.023.005H4.112l.008 5.395 2.659-.003c.395 0 .728.233.91.56.017.034.059.051.073.085.79 1.204 2.118 1.851 3.947 1.93Zm.355-12.703c1 0 1.754.767 1.754 1.708v11.448c0 .939-.748 1.7-1.67 1.7-3.207 0-4.963-1.305-5.921-2.582l-3.16.003c-.58 0-1.053-.48-1.053-1.07l-.008-7.54c0-.284.109-.555.308-.757.199-.202.465-.317.745-.317l3.182-.002c.96-1.278 2.706-2.591 5.823-2.591Z" fill="#313235" fill-rule="nonzero"/></svg>