<svg width="24" height="24" xmlns="http://www.w3.org/2000/svg"><path d="M20.617 12.289c-1.664 1.221-4.306 1.776-8.538 1.776-4.34 0-7.031-.586-8.687-1.891V8.647a.23.23 0 0 1 .23-.224h16.773c.124 0 .222.101.222.224v3.642Zm-9.196 4.146h1.173v-1.132h-1.173v1.132Zm9.196 3.94c0 .132-.098.23-.222.23H3.62a.229.229 0 0 1-.23-.23v-6.7c1.583.942 3.723 1.446 6.799 1.586v1.395c0 .347.157.636.429.818.204.131.467.199.787.199H12.6c.328 0 .582-.068.787-.2a.94.94 0 0 0 .434-.817v-1.39c3.059-.123 5.202-.602 6.793-1.512v6.622h.003ZM8.303 6.828c0-1.883 1.625-3.429 3.61-3.429h.188c1.986 0 3.602 1.546 3.602 3.429v.355h-7.4v-.355Zm12.09.355h-3.46v-.355c0-2.569-2.165-4.667-4.832-4.667h-.187c-2.667 0-4.84 2.098-4.84 4.667v.355H3.618A1.46 1.46 0 0 0 2.16 8.645v11.73c0 .81.655 1.471 1.46 1.471h16.772c.804 0 1.454-.658 1.454-1.47V8.645c0-.81-.647-1.463-1.454-1.463Z" fill="#313235" fill-rule="nonzero"/></svg>