<svg width="24" height="24" xmlns="http://www.w3.org/2000/svg"><path d="M19.062 3.68a2.597 2.597 0 0 1 2.593 2.595v11.148a2.68 2.68 0 0 1-2.675 2.675H4.602a2.597 2.597 0 0 1-2.594-2.594V6.274a2.597 2.597 0 0 1 2.594-2.593h14.46Zm1.517 4.925H3.083l.001 8.9c0 .837.68 1.517 1.518 1.517H18.98a1.6 1.6 0 0 0 1.6-1.599V8.605Zm-9.173 2.154c.815 0 1.41.185 1.779.555.283.283.426.67.426 1.154 0 .364-.093.714-.278 1.047-.185.334-.515.76-.988 1.28l-1.034 1.13h2.398v.885H9.922a.823.823 0 0 1-.034-.272c0-.18.025-.34.078-.48.054-.14.143-.282.27-.433l1.153-1.407c.359-.434.605-.764.737-.994.135-.23.199-.46.199-.689 0-.255-.079-.445-.235-.574-.174-.151-.474-.227-.902-.227-.37 0-.76.036-1.163.112v-.922c.185-.047.404-.084.656-.117.252-.031.493-.048.725-.048Zm7.656-6.003H4.602a1.52 1.52 0 0 0-1.518 1.519v1.257h17.495V6.275a1.52 1.52 0 0 0-1.517-1.519Zm-11.6.591c.485 0 .813.328.813.815 0 .297-.118.482-.219.583a.801.801 0 0 1-.594.23.801.801 0 0 1-.594-.23.81.81 0 0 1-.218-.583c0-.487.328-.815.812-.815Zm8.754 0a.81.81 0 0 1 .574.21c.11.104.238.292.238.603 0 .297-.118.481-.218.582-.101.107-.289.233-.594.233a.801.801 0 0 1-.594-.23.81.81 0 0 1-.219-.583c0-.487.328-.815.813-.815Z" fill="#313235" fill-rule="nonzero"/></svg>