<svg width="24" height="24" viewBox="0 0 24 24" xmlns="http://www.w3.org/2000/svg" style="background:#ffb4b4"><g fill="none" fill-rule="evenodd"><path fill="#FFB4B4" d="M0 0h24v24H0z"/><path d="M21.243 18.504a.75.75 0 01.102 1.493l-.102.007H3.3a.75.75 0 01-.101-1.493l.101-.007h17.943zM18.22 3.5c2.1 0 3.802 1.702 3.802 3.801v5.897c0 2.1-1.702 3.802-3.802 3.802H6.302A3.802 3.802 0 012.5 13.198V7.301c0-2.099 1.702-3.8 3.802-3.8zm0 1.5H6.302A2.301 2.301 0 004 7.301v5.897A2.302 2.302 0 006.302 15.5h11.917a2.302 2.302 0 002.302-2.302V7.301c0-1.27-1.03-2.3-2.302-2.3z" fill="#313235" fill-rule="nonzero"/></g></svg>