<svg width="24" height="24" xmlns="http://www.w3.org/2000/svg"><path d="M16.479 2a2.792 2.792 0 0 1 2.788 2.788v14.428A2.79 2.79 0 0 1 16.479 22H7.617a2.97 2.97 0 0 1-2.967-2.967V4.696c0-.719.28-1.395.788-1.906A2.667 2.667 0 0 1 7.343 2h9.136Zm.011 1.164H7.343c-.407 0-.793.16-1.081.448a1.523 1.523 0 0 0-.448 1.084v14.337c0 .995.81 1.806 1.806 1.806h8.87V3.164Zm1.615 12.39h-.451v4.783c.28-.292.451-.687.451-1.12v-3.663Zm-5.703-3.037c1.467 0 2.417 1 2.417 2.55v.905a.522.522 0 0 1-.52.517H8.114a.518.518 0 0 1-.517-.517v-.904c0-1.55.947-2.551 2.417-2.551h2.388Zm-.003 1.032H10.01c-1.204 0-1.384.95-1.384 1.519v.387h5.156v-.387c0-.57-.18-1.52-1.384-1.52Zm5.706-3.938h-.451v4.78h.451V9.61Zm-6.907-2.62c1.575 0 2.476.9 2.476 2.476 0 1.569-.901 2.47-2.476 2.47-1.57 0-2.471-.901-2.471-2.47 0-1.575.902-2.476 2.47-2.476Zm0 1.112c-.95 0-1.358.408-1.358 1.364 0 .95.406 1.358 1.358 1.358.956 0 1.364-.406 1.364-1.358 0-.956-.408-1.364-1.364-1.364Zm6.457-4.437-.001 4.781h.451V4.788c0-.435-.171-.83-.45-1.122Z" fill="#313235" fill-rule="nonzero"/></svg>