<svg width="24" height="24" xmlns="http://www.w3.org/2000/svg"><path d="M20.473 20.266V8.876l-2.61-.008c-.964-.008-1.748-.305-2.33-.893-.978-1.006-.964-2.47-.964-2.535l-.026-2.205H8.12c-.09 0-.162.031-.226.096a.325.325 0 0 0-.098.224l.008 2.568.235-.46a.966.966 0 0 1 1.303-.442c.201.096.355.25.454.443l5.84 11.678a.965.965 0 0 1-.415 1.297.91.91 0 0 1-.462.12h-.025l-6.922-.022v1.4c-.008.112 0 .224.056.289.048.05.138.081.252.081l12.124-.017c.131 0 .23-.103.23-.224zM3.36 17.513l3.817.008 7.208.03L8.916 6.614l-5.557 10.9zm16.565-9.84L15.76 3.654l.025 1.796c0 .022 0 1.053.622 1.689.347.347.826.515 1.465.524l2.053.008zm1.463-.275c.193.201.3.45.3.714v12.154c0 .787-.648 1.431-1.432 1.431l-12.132.017c-.454 0-.857-.168-1.131-.46-.283-.296-.412-.691-.387-1.15v-1.376l-3.625-.017h-.016a.972.972 0 0 1-.852-1.425l4.482-8.79-.009-4.941c0-.412.163-.787.454-1.079a1.528 1.528 0 0 1 1.084-.45h7.02a1.57 1.57 0 0 1 1.173.481l5.07 4.89zM8.938 14.812a.606.606 0 0 1-.607-.602V9.835c0-.334.271-.603.607-.603.336 0 .608.272.608.603v4.375a.608.608 0 0 1-.608.602zm.006.314c.35 0 .633.283.633.63 0 .348-.283.63-.633.63a.63.63 0 1 1 0-1.26z" fill="#313235" fill-rule="nonzero"/></svg>