<svg width="24" height="24" xmlns="http://www.w3.org/2000/svg"><path d="M19.728 11.527a.153.153 0 0 1-.143.09H4.838v-8.28c0-.088.07-.158.16-.158h14.59c.087 0 .126.056.143.09.02.042.034.1.034.11l-3.101 3.086a1.317 1.317 0 0 0-.003 1.852l3.05 3.044c.05.065.037.126.017.166zm-2.24-4.02c-.065-.067-.068-.168-.003-.23l3.148-3.145c.305-.398.359-.925.135-1.376a1.31 1.31 0 0 0-1.183-.73H4.995c-.726 0-1.317.587-1.317 1.307v17.801c0 .317.26.575.58.575.319 0 .58-.258.58-.575v-8.37h14.747c.505 0 .958-.28 1.183-.73.224-.451.17-.978-.183-1.432l-3.098-3.095z" fill="#313235" fill-rule="nonzero"/></svg>