<svg width="24" height="24" xmlns="http://www.w3.org/2000/svg"><path d="M20.45 14.755V6.007c0-1.087-.918-1.972-2.05-1.972H5.287c-1.132 0-2.05.885-2.05 1.972v8.75c0 .956.64 1.749 1.557 1.93.288.057.496.3.496.586v2.118c0 .151.176.302.347.302.073 0 .185 0 .32-.173l2.072-2.566a.634.634 0 0 1 .487-.23h9.888c1.13 0 2.048-.882 2.048-1.97ZM18.4 2.842c1.81 0 3.286 1.42 3.286 3.165v8.75c0 1.746-1.473 3.163-3.285 3.163H8.815l-1.88 2.325a1.608 1.608 0 0 1-1.3.642c-.86 0-1.582-.687-1.582-1.5v-1.671A3.124 3.124 0 0 1 2 14.755V6.007c0-1.745 1.476-3.165 3.286-3.165H18.4Zm-4.165 6.313c.048-.187.13-.644-.09-.826a.763.763 0 0 0-.434-.143l-.058-.003c-.227 0-.47.068-.703.194-.146.078-.297.162-.46.255l-.017.01-.02.01c-.198.106-.422.159-.65.159a1.37 1.37 0 0 1-.663-.171c-.188-.106-.336-.19-.482-.266a1.498 1.498 0 0 0-.706-.193l-.056.002a.763.763 0 0 0-.434.143c-.221.182-.137.642-.092.827.162.658.484 1.353.958 2.064.395.591.694.955 1.238 1.496.092.09.185.17.24.218.051-.039.127-.106.208-.185l.003-.005.042-.04a8.703 8.703 0 0 0 1.224-1.481c.468-.712.793-1.406.952-2.065Zm-.46-2.162c.45.022.87.174 1.175.429.529.44.703 1.15.49 2.01-.196.79-.572 1.609-1.123 2.435a9.874 9.874 0 0 1-1.376 1.667l-.014.014c-.059.058-.26.257-.434.375a1.36 1.36 0 0 1-.482.21 1.236 1.236 0 0 1-.151.02h-.112a1.236 1.236 0 0 1-.151-.02 1.339 1.339 0 0 1-.482-.21c-.171-.12-.376-.32-.434-.375a9.703 9.703 0 0 1-1.39-1.684c-.549-.823-.927-1.644-1.12-2.434-.213-.86-.037-1.574.49-2.011.305-.255.723-.406 1.177-.429.042 0 .08-.003.12-.003.44 0 .885.115 1.305.34.157.083.317.173.49.271a.098.098 0 0 0 .057.014c.022 0 .039-.006.056-.014.173-.1.333-.19.49-.274.42-.225.868-.34 1.305-.34a.737.737 0 0 0 .115.009Z" fill="#313235" fill-rule="nonzero"/></svg>