<svg width="24" height="24" xmlns="http://www.w3.org/2000/svg"><path d="M11.874 2.008c3.132 0 5.569.818 7.244 2.432 1.74 1.675 2.619 4.176 2.619 7.431s-.883 5.756-2.62 7.429c-1.672 1.616-4.109 2.434-7.243 2.434-3.132 0-5.569-.818-7.244-2.432-1.736-1.675-2.616-4.173-2.616-7.428s.882-5.756 2.619-7.431c1.675-1.614 4.11-2.435 7.24-2.435zm-.611 14.268-3.51.002c.214.66.478 1.274.788 1.826.76 1.355 1.714 2.182 2.722 2.374v-4.202zm4.418.002-3.298-.002v4.152c.93-.26 1.801-1.063 2.51-2.324.31-.552.574-1.166.788-1.826zm4.163 0H16.85a11.418 11.418 0 0 1-.983 2.375 7.486 7.486 0 0 1-1.282 1.707c2.573-.534 4.33-1.898 5.258-4.082zm-13.26 0H3.908c.876 2.065 2.494 3.398 4.843 3.987a7.475 7.475 0 0 1-1.186-1.612c-.4-.712-.729-1.512-.983-2.375zM6.188 9.17H3.387c-.168.819-.253 1.72-.253 2.704 0 1.221.131 2.316.391 3.283h2.78a16.361 16.361 0 0 1-.33-3.303c0-.92.073-1.821.214-2.684zm5.074 0H7.324a15.49 15.49 0 0 0-.229 2.684c0 1.153.121 2.27.353 3.304l3.815-.002V9.17zm4.847 0h-3.727v5.986l3.603.002c.232-1.035.353-2.151.353-3.304 0-.926-.078-1.828-.23-2.684zm4.256 0h-3.121c.141.863.214 1.764.214 2.684 0 1.143-.113 2.257-.329 3.303h3.098c.26-.967.391-2.062.391-3.283 0-.984-.085-1.885-.253-2.704zM8.709 3.49l-.168.044c-2.446.673-4.068 2.183-4.854 4.518h2.73c.269-1.103.656-2.118 1.149-2.995a7.668 7.668 0 0 1 1.143-1.567zm3.675-.208-.001 4.77h3.48a10.542 10.542 0 0 0-.97-2.446c-.709-1.262-1.58-2.064-2.51-2.324zm2.247.112.094.094c.419.434.802.958 1.143 1.569.493.879.88 1.893 1.149 2.994l3.049.001c-.847-2.514-2.664-4.072-5.435-4.658zm-6.09 2.212c-.405.721-.731 1.547-.97 2.445h3.692V3.23c-1.007.192-1.96 1.017-2.722 2.375z" fill="#313235" fill-rule="nonzero"/></svg>