<svg width="24" height="24" xmlns="http://www.w3.org/2000/svg"><path d="M14.69 20.487c1.204 0 1.98-.448 2.338-1.313H6.768c.109.266.252.498.44.683.433.42 1.075.633 1.912.633h5.57v-.003zM8.271 3.42v2.925c0 .123.098.224.221.224h6.742c.124 0 .222-.101.222-.224V3.42a.22.22 0 0 0-.222-.221H8.493c-.12 0-.221.1-.221.221zm8.918 5.756c-.156-.795-.574-1.333-1.249-1.602-.207.12-.448.196-.706.196H8.493c-.238 0-.462-.064-.658-.17-.236.1-.451.224-.625.389-.302.291-.496.697-.597 1.187H17.19zM6.532 17.882c0 .031.006.06.006.093h10.714c0-.031.006-.059.006-.09l.008-7.507H6.532v7.504zM16.633 6.56c1.185.583 1.83 1.768 1.83 3.398l-.01 7.924c0 2.381-1.408 3.804-3.764 3.804H9.123c-1.16 0-2.081-.325-2.745-.969-.689-.67-1.04-1.622-1.04-2.835V9.958c0-1.213.351-2.165 1.049-2.835.21-.204.456-.367.72-.507a1.412 1.412 0 0 1-.029-.269V3.423c0-.784.636-1.42 1.418-1.42h6.742c.782 0 1.417.638 1.417 1.42v2.924c0 .073-.01.143-.022.213zm-7.328-.546a.598.598 0 0 1-.596-.6V4.374a.6.6 0 0 1 .596-.6.6.6 0 0 1 .597.6v1.042c.003.33-.266.599-.597.599zm1.709 0a.598.598 0 0 1-.597-.6V4.374a.598.598 0 1 1 1.193 0v1.042c0 .33-.265.599-.596.599zm1.706 0a.598.598 0 0 1-.597-.6V4.374a.6.6 0 0 1 .597-.6.6.6 0 0 1 .597.6v1.042c.002.33-.267.599-.597.599zm1.706 0a.598.598 0 0 1-.597-.6V4.374a.598.598 0 1 1 1.193 0v1.042c.003.33-.266.599-.596.599zm-1.05 9.992c.65-.404.98-1.107.98-2.087 0-2.188-1.647-2.462-2.353-2.48-.081-.002-.168-.002-.25-.002h-.014c-.694.003-2.313.252-2.313 2.465 0 .997.33 1.703.977 2.104l.19.117v.432c0 .148.032.249.096.305.073.067.196.098.359.098h1.694c.115 0 .266-.017.353-.095.079-.07.093-.208.093-.308v-.435l.187-.114zm-1.348-5.365c.515.012 3.126.225 3.126 3.278 0 1.431-.597 2.215-1.168 2.638 0 .482-.193.757-.356.9-.218.198-.518.302-.888.302h-1.694c-.373 0-.673-.104-.891-.305-.16-.14-.359-.418-.359-.894-.571-.42-1.168-1.207-1.168-2.655 0-3.093 2.588-3.264 3.107-3.266.115-.023.199 0 .291.002zm-.552 4.034a.396.396 0 0 1-.563 0l-.232-.232-.233.232a.396.396 0 0 1-.563 0 .404.404 0 0 1 0-.566l.233-.232-.233-.233a.404.404 0 0 1 0-.566.396.396 0 0 1 .563 0l.233.233.232-.233a.396.396 0 0 1 .563 0 .404.404 0 0 1 0 .566l-.232.233.232.232a.399.399 0 0 1 0 .566zm2.219-.798.232.232a.404.404 0 0 1 0 .566.396.396 0 0 1-.563 0l-.232-.232-.233.232a.396.396 0 0 1-.563 0 .404.404 0 0 1 0-.566l.233-.232-.233-.233a.404.404 0 0 1 0-.566.396.396 0 0 1 .563 0l.233.233.232-.233a.396.396 0 0 1 .563 0 .404.404 0 0 1 0 .566l-.232.233zm-1.23 1.372.12.283a.4.4 0 0 1-.367.555.392.392 0 0 1-.344-.219.392.392 0 0 1-.345.219.4.4 0 0 1-.364-.555l.12-.283a.396.396 0 0 1 .522-.213c.028.012.047.031.07.048.022-.017.042-.036.07-.048a.395.395 0 0 1 .518.213z" fill="#313235" fill-rule="nonzero"/></svg>