<svg width="24" height="24" xmlns="http://www.w3.org/2000/svg"><path d="M20.493 18.017V4.062a.85.85 0 0 0-.849-.846h-2.19c-.107.902-.913 1.6-1.852 1.6a1.908 1.908 0 0 1-1.88-1.62l-2.162.02a.85.85 0 0 0-.849.846v3.885c.003.033 0 .064 0 .098v9.969c0 .468.381.846.85.846h2.21c.145-.863.926-1.507 1.831-1.507.905 0 1.686.641 1.863 1.527l2.18-.02a.843.843 0 0 0 .848-.843zM10.387 20.38l.666-.375a2.058 2.058 0 0 1-1.56-1.992v-.059a.581.581 0 0 1-.188-.19l-3.977-7.05a.606.606 0 0 1 .23-.827h.002l3.933-2.202V5.045l-1.247.7a1.762 1.762 0 0 1-.806 2.087 1.777 1.777 0 0 1-2.208-.398L3.6 8.347a.686.686 0 0 0-.266.933v.003L9.445 20.12c.19.328.608.446.942.26zm-.894-4.762V9.081l-2.801 1.572 2.801 4.966zM19.644 2c1.14 0 2.067.922 2.07 2.062v13.955a2.069 2.069 0 0 1-2.07 2.061h-2.21a1.193 1.193 0 0 1-1.168-.963.678.678 0 0 0-1.328 0c-.109.557-.6.96-1.168.963h-.664a1.073 1.073 0 0 1-.406.401l-1.717.96c-.442.25-.963.312-1.45.174a1.89 1.89 0 0 1-1.15-.902L2.273 9.88c-.25-.44-.311-.961-.171-1.446.134-.487.46-.899.902-1.145l1.703-.953c.49-.28 1.11-.151 1.448.3.16.204.462.266.69.137a.546.546 0 0 0 .24-.658 1.115 1.115 0 0 1 .496-1.387l1.703-.952c.078-.045.168-.064.252-.098A2.062 2.062 0 0 1 11.56 2h2.193a1.18 1.18 0 0 1 1.177 1.022.68.68 0 0 0 1.345 0A1.185 1.185 0 0 1 17.453 2h2.19zm-6.87 13.339h5.772V6.787h-5.773v8.552zm6.383-9.768a.61.61 0 0 1 .61.608v9.768a.61.61 0 0 1-.61.608h-6.992a.61.61 0 0 1-.61-.608V6.179a.61.61 0 0 1 .61-.608h6.992z" fill="#313235" fill-rule="nonzero"/></svg>