<svg width="24" height="24" xmlns="http://www.w3.org/2000/svg"><path d="M20.479 15.255v-2.888c0-.129-.1-.23-.224-.23h-7.97c-.842 0-1.526.703-1.526 1.566v.213c0 .863.686 1.566 1.527 1.566h7.969c.123.003.224-.101.224-.227Zm-1.518 3.07-.003-1.6h-6.672c-1.507 0-2.737-1.26-2.737-2.806v-.213c0-1.55 1.227-2.807 2.737-2.807h6.658l-.003-1.498c.023-.457-.078-.802-.291-1.037-.216-.238-.546-.364-.953-.367L4.48 8v-.008c-.454 0-.885-.135-1.266-.367V18.23c-.023.448.078.792.294 1.025.218.24.563.372.972.375l13.218-.003c.34 0 .656-.134.894-.38a1.32 1.32 0 0 0 .37-.922ZM3.213 5.415v.033c0 .317.115.616.32.855A1.505 1.505 0 0 1 5.024 4.84l11.227-.806v-.745l-11.734.826a1.284 1.284 0 0 0-.935.38c-.238.247-.37.572-.37.92Zm13.641-.18-11.787.846c-.201.003-.333.123-.333.272v.339c0 .02-.009.04-.011.059l12.711.003V5.487c0-.148-.131-.271-.291-.271l-.286.02h-.003Zm3.4 5.661c.79 0 1.432.659 1.432 1.47v2.889c0 .81-.644 1.47-1.431 1.47h-.087l.003 1.6c0 .678-.255 1.316-.723 1.795a2.422 2.422 0 0 1-1.75.746l-13.225.002c-.745-.005-1.4-.28-1.846-.767-.445-.488-.66-1.146-.621-1.908V5.415c0-.678.257-1.317.722-1.796a2.422 2.422 0 0 1 1.751-.745l12.336-.871a.597.597 0 0 1 .454.165c.123.118.19.28.19.454v1.395c.69.157 1.185.753 1.185 1.468v1.442c.342.129.645.322.885.583.446.487.659 1.148.62 1.919l.002 1.467h.104Zm-7.778 1.998c.538 0 .975.448.975 1 0 .551-.437 1-.975 1s-.972-.449-.972-1c0-.552.434-1 .972-1Z" fill="#313235" fill-rule="nonzero"/></svg>