<svg xmlns="http://www.w3.org/2000/svg" width="41" height="41" viewBox="0 0 41 41">
    <path d="M20.994 1c11.043 0 19.995 8.952 19.995 19.995 0 11.043-8.952 19.995-19.995 19.995C9.951 40.99 1 32.038 1 20.995 1 9.952 9.951 1 20.994 1zm-2.364 9.266h-1.387c-1.587.02-3.604.431-3.604 3.379V28.06c0 2.448 1.256 3.689 3.733 3.689l7.303.015c2.477 0 3.734-1.242 3.734-3.689l.002-14.107c0-2.447-1.257-3.688-3.736-3.688-1.034 0-2.35-.005-3.661-.008l-2.384-.007zm-1.256 1.498c1.022 0 2.327.005 3.635.009 1.313.004 2.63.008 3.666.008 1.65 0 2.236.571 2.236 2.188l-.002 14.107c0 1.616-.585 2.189-2.232 2.189l-7.303-.015c-1.65 0-2.235-.573-2.235-2.19V13.646c0-1.3.322-1.88 2.235-1.88zm3.65 15.27c-.604 0-.995.314-.995.994 0 .326.091.568.251.733.175.177.431.263.744.263s.57-.086.744-.263c.161-.165.252-.407.252-.733 0-.68-.392-.995-.996-.995z"/>
</svg>
