<svg xmlns="http://www.w3.org/2000/svg" width="48" height="40" viewBox="0 0 48 40">
    <g fill="#00A9E0" fill-rule="nonzero">
        <path d="M38.126 36.7c3.97 0 7.174-3.128 7.174-6.97V10.27c0-3.842-3.205-6.97-7.174-6.97H9.871C5.903 3.3 2.7 6.427 2.7 10.27v19.46c0 3.843 3.203 6.97 7.171 6.97h28.255zm0 2.6H9.871C4.481 39.3.1 35.023.1 29.73V10.27C.1 4.978 4.481.7 9.871.7h28.255c5.391 0 9.774 4.277 9.774 9.57v19.46c0 5.293-4.383 9.57-9.774 9.57z"/>
        <path d="M11.1 10a1.3 1.3 0 1 1 2.6 0v13a1.3 1.3 0 0 1-2.6 0V10z"/>
        <path d="M8.7 26.5c0-2.39 1.462-3.8 3.798-3.8 2.338 0 3.802 1.41 3.802 3.8 0 2.391-1.464 3.8-3.802 3.8-2.337 0-3.798-1.409-3.798-3.8zm2.6 0c0 .934.276 1.2 1.198 1.2.924 0 1.202-.267 1.202-1.2 0-.931-.279-1.2-1.202-1.2-.92 0-1.198.268-1.198 1.2zM23.112 16a1.3 1.3 0 1 1 2.6 0v14a1.3 1.3 0 0 1-2.6 0V16z"/>
        <path d="M20.5 12.5c0-2.391 1.461-3.8 3.798-3.8 2.338 0 3.802 1.409 3.802 3.8s-1.464 3.8-3.802 3.8c-2.337 0-3.798-1.409-3.798-3.8zm2.6 0c0 .934.276 1.2 1.198 1.2.924 0 1.202-.267 1.202-1.2 0-.933-.278-1.2-1.202-1.2-.922 0-1.198.266-1.198 1.2zM34.5 24a1.3 1.3 0 0 1 2.6 0v6a1.3 1.3 0 1 1-2.6 0v-6zM34.5 10a1.3 1.3 0 0 1 2.6 0v8a1.3 1.3 0 1 1-2.6 0v-8z"/>
        <path d="M32 20.5c0-2.391 1.461-3.8 3.798-3.8 2.338 0 3.802 1.409 3.802 3.8s-1.464 3.8-3.802 3.8C33.46 24.3 32 22.891 32 20.5zm2.6 0c0 .934.276 1.2 1.198 1.2.924 0 1.202-.267 1.202-1.2 0-.933-.278-1.2-1.202-1.2-.922 0-1.198.266-1.198 1.2z"/>
    </g>
</svg>
