<svg xmlns="http://www.w3.org/2000/svg" width="40" height="40" viewBox="0 0 40 40">
    <path d="M19.995 0C31.038 0 39.99 8.952 39.99 19.995c0 11.043-8.952 19.995-19.995 19.995C8.952 39.99.001 31.038.001 19.995 0 8.952 8.952 0 19.995 0zm1.923 10.221h-8.177c-1.91 0-3.467 1.557-3.467 3.471l.02 12.56c0 1.912 1.554 3.47 3.466 3.47h12.548c1.912 0 3.466-1.558 3.466-3.472l-.015-8.472c0-1.282-.545-2.514-1.493-3.38l-3.25-2.973c-.848-.777-1.948-1.204-3.098-1.204zm-.704 1.5l.036 3.144c0 1.44 1.17 2.61 2.61 2.61h4.384c.01.1.015.203.015.305l.015 8.471c0 1.086-.882 1.97-1.966 1.97H13.76c-1.085 0-1.967-.884-1.967-1.97l-.019-12.56c0-1.086.883-1.97 1.967-1.97h7.473zm-4.127 11.643c-.603 0-.995.316-.995.996 0 .326.091.568.252.732.174.177.43.263.743.263.314 0 .57-.086.744-.263.161-.164.252-.406.252-.732 0-.68-.392-.996-.996-.996zm9.152.245h-6.257c-.414 0-.75.336-.75.75s.336.75.75.75h6.257c.414 0 .75-.336.75-.75s-.336-.75-.75-.75zm-3.523-11.783c.476.127.919.367 1.29.705l3.25 2.974c.155.143.295.3.417.47H23.86c-.612 0-1.11-.498-1.11-1.118z"/>
</svg>
