<?xml version="1.0" encoding="UTF-8"?>
<svg width="24px" height="24px" viewBox="0 0 24 24" version="1.1" xmlns="http://www.w3.org/2000/svg" xmlns:xlink="http://www.w3.org/1999/xlink">
    <!-- Generator: sketchtool 54.1 (76490) - https://sketchapp.com -->
    <title>7443BB9E-E3CB-46FD-8BFE-A5C5FCDF5818</title>
    <desc>Created with sketchtool.</desc>
    <g id="Symbols" stroke="none" stroke-width="1" fill="none" fill-rule="evenodd">
        <rect id="Rectangle-Copy-244" fill="#FFEFEF" x="-24" y="-28" width="72" height="80"></rect>
        <g id="Assets/24/Gb" fill="#2A2A3C" fill-rule="nonzero">
            <g id="icn_Gb">
                <g id="-----ICON-LAYERS-----" transform="translate(1.000000, 1.000000)">
                    <path d="M11,0 C17.075,0 22,4.925 22,11 C22,17.075 17.075,22 11,22 C4.925,22 0,17.075 0,11 C0,4.925 4.925,0 11,0 Z M11,1.5 C5.762,1.5 1.5,5.762 1.5,11 C1.5,16.238 5.762,20.5 11,20.5 C16.238,20.5 20.5,16.238 20.5,11 C20.5,5.762 16.238,1.5 11,1.5 Z M10.8186774,11.8356737 L10.8186774,13.2409439 C10.8186774,13.4276474 10.8003407,13.5768412 10.7636668,13.6885299 C10.7269929,13.8002186 10.6594806,13.9010704 10.5611279,13.9910881 C10.4627751,14.0811059 10.3369189,14.1677883 10.1835553,14.2511381 C9.74013449,14.4911854 9.31339005,14.6662173 8.90330916,14.776239 C8.49322828,14.8862607 8.04648019,14.9412708 7.5630515,14.9412708 C6.99960704,14.9412708 6.48618013,14.8545883 6.02275539,14.6812208 C5.55933065,14.5078533 5.16425865,14.2561407 4.83752754,13.9260756 C4.51079643,13.5960105 4.25991737,13.1959376 4.08488285,12.7258449 C3.90984832,12.2557521 3.82233237,11.7306565 3.82233237,11.150542 C3.82233237,10.5804296 3.90734787,10.0586678 4.0773814,9.58524111 C4.24741494,9.11181439 4.49746051,8.71007451 4.82752562,8.38000941 C5.15759072,8.0499443 5.5593306,7.79739828 6.03275731,7.62236376 C6.50618403,7.44732923 7.04294852,7.35981328 7.64306689,7.35981328 C8.13649755,7.35981328 8.57324381,7.42565861 8.95331878,7.55735126 C9.33339374,7.6890439 9.64178328,7.85490746 9.87849664,8.05494692 C10.11521,8.25498637 10.2935758,8.46669162 10.4135995,8.69006902 C10.5336232,8.91344641 10.5936341,9.11181589 10.5936341,9.28518342 C10.5936341,9.47188692 10.5244548,9.63108259 10.3860942,9.76277524 C10.2477336,9.89446788 10.08187,9.96031321 9.88849856,9.96031321 C9.78181085,9.96031321 9.67929216,9.93530866 9.58093943,9.88529879 C9.4825867,9.83528893 9.40007166,9.76527617 9.33339184,9.67525841 C9.15002234,9.38853519 8.99499409,9.17182903 8.86830243,9.02513343 C8.74161078,8.87843783 8.5707463,8.75508201 8.35570389,8.65506229 C8.14066147,8.55504256 7.86644483,8.50503344 7.53304574,8.50503344 C7.18964467,8.50503344 6.8829221,8.56421089 6.61286884,8.68256757 C6.34281557,8.80092425 6.11194016,8.97262221 5.92023568,9.1976666 C5.7285312,9.42271099 5.5818378,9.6985946 5.48015108,10.0253257 C5.37846436,10.3520568 5.32762176,10.7137894 5.32762176,11.1105343 C5.32762176,11.970704 5.52515776,12.6324913 5.92023568,13.095916 C6.31531361,13.5593408 6.86624735,13.7910496 7.57305343,13.7910496 C7.91645449,13.7910496 8.23901328,13.7460414 8.54073946,13.6560237 C8.84246564,13.5660059 9.14835472,13.4376492 9.45841588,13.2709497 L9.45841588,12.0807208 L8.30819475,12.0807208 C8.03147351,12.0807208 7.82226871,12.0390466 7.6805741,11.9556968 C7.53887948,11.872347 7.46803324,11.7306546 7.46803324,11.5306151 C7.46803324,11.3672495 7.52721069,11.2322249 7.64556737,11.1255372 C7.76392405,11.0188495 7.9247867,10.9655065 8.12816014,10.9655065 L9.81348414,10.9655065 C10.0201916,10.9655065 10.1952235,10.9838431 10.3385851,11.020517 C10.4819467,11.0571909 10.5978011,11.1388725 10.6861519,11.2655641 C10.7745027,11.3922558 10.8186774,11.5822904 10.8186774,11.8356737 Z M14.9036627,14.8162467 L12.663232,14.8162467 C12.3398349,14.8162467 12.1089595,14.7437335 11.9705988,14.5987049 C11.8322382,14.4536763 11.7630589,14.2228009 11.7630589,13.9060718 L11.7630589,8.39501229 C11.7630589,8.07161517 11.8339052,7.83907279 11.9755998,7.69737818 C12.1172944,7.55568356 12.3465029,7.48483732 12.663232,7.48483732 L15.0386887,7.48483732 C15.3887577,7.48483732 15.6921463,7.50650793 15.9488636,7.54984981 C16.2055809,7.5931917 16.4356229,7.67654022 16.6389963,7.79989788 C16.8123638,7.9032516 16.9657251,8.03410879 17.0990848,8.19247336 C17.2324444,8.35083793 17.3341296,8.52586982 17.4041434,8.7175743 C17.4741572,8.90927878 17.5091636,9.11181569 17.5091636,9.32519111 C17.5091636,10.0586691 17.1424301,10.5954336 16.4089521,10.9355007 C17.3724755,11.2422279 17.8542299,11.8390033 17.8542299,12.7258449 C17.8542299,13.1359258 17.7492108,13.5051597 17.5391694,13.8335578 C17.3291279,14.1619559 17.045743,14.4045001 16.6890059,14.5611977 C16.4656285,14.6545495 16.2089151,14.7203948 15.9188579,14.7587357 C15.6288007,14.7970766 15.2904057,14.8162467 14.9036627,14.8162467 Z M14.7936416,11.5606209 L13.2483445,11.5606209 L13.2483445,13.7010323 L14.8436512,13.7010323 C15.8471824,13.7010323 16.3489406,13.3392998 16.3489406,12.6158237 C16.3489406,12.2457507 16.2189169,11.9773685 15.9588656,11.8106689 C15.6988143,11.6439694 15.3104102,11.5606209 14.7936416,11.5606209 Z M13.2483445,8.60005171 L13.2483445,10.4954161 L14.608606,10.4954161 C14.978679,10.4954161 15.2645644,10.4604097 15.4662709,10.3903959 C15.6679773,10.3203821 15.8221721,10.1870244 15.9288598,9.99031898 C16.0122096,9.85029136 16.0538838,9.69359614 16.0538838,9.52022861 C16.0538838,9.15015561 15.9221932,8.90427747 15.6588079,8.7825868 C15.3954226,8.66089613 14.9936827,8.60005171 14.4535762,8.60005171 L13.2483445,8.60005171 Z" id="Combined-Shape"></path>
                </g>
            </g>
        </g>
    </g>
</svg>