<svg xmlns="http://www.w3.org/2000/svg" width="40" height="40" viewBox="0 0 40 40">
    <path d="M20 0c11.046 0 20 8.954 20 20s-8.954 20-20 20S0 31.046 0 20 8.954 0 20 0zm0 8.104c-7.718 0-11.964 4.093-11.964 11.964 0 4.607 1.453 7.919 4.205 9.875.019.028.04.055.066.08.077.079.172.128.272.147 1.91 1.236 4.4 1.863 7.421 1.863 7.719 0 11.964-4.092 11.964-11.965 0-7.872-4.245-11.964-11.964-11.964zm0 1.07c7.136 0 10.893 3.623 10.893 10.894 0 7.273-3.757 10.894-10.893 10.894-2.594 0-4.742-.479-6.425-1.438l3.727-3.68.063-.073c.146-.208.127-.497-.058-.684l-.425-.43c2.479-1.298 5.637-2.17 8.865-2.142l-.448.003c.084.368.264.688.538.95.388.374.908.557 1.53.557s1.143-.184 1.533-.56c.392-.375.59-.873.59-1.454 0-.582-.198-1.08-.591-1.456-.39-.375-.911-.56-1.532-.56s-1.142.185-1.533.561l-.123.13c-.191.22-.324.475-.398.76-2.78.042-5.482.7-7.775 1.709l6.563-6.48c.305.18.642.267 1.002.258.531-.014 1.02-.247 1.453-.675.435-.428.673-.914.687-1.443.015-.533-.192-1.015-.597-1.415-.405-.399-.889-.6-1.424-.585-.53.013-1.019.246-1.452.674-.435.429-.673.915-.686 1.444-.01.354.078.686.258.987l-6.688 6.604c.967-2.17 1.585-4.714 1.725-7.62l-.016.276-.005.094c.346-.064.66-.207.916-.425l.122-.116c.369-.384.548-.894.548-1.503 0-.608-.179-1.117-.546-1.5-.371-.387-.859-.582-1.43-.582-.57 0-1.056.195-1.426.58-.369.385-.548.894-.548 1.502 0 .609.18 1.12.548 1.502l.123.118c.185.161.394.28.625.355-.19 3.04-.931 5.64-2.05 7.788l-.39-.395-.074-.062c-.207-.146-.496-.127-.683.057l-3.69 3.643c-.86-1.632-1.296-3.688-1.296-6.168 0-7.271 3.758-10.893 10.893-10.893zm-5.536 14.557l1.704 1.727-3.507 3.464c-.65-.493-1.211-1.075-1.685-1.747l3.488-3.444zm12.903-2.665c.358 0 .612.09.79.261.177.17.263.385.263.684 0 .298-.087.514-.262.682-.178.172-.432.261-.79.261-.36 0-.613-.089-.79-.26-.172-.163-.257-.37-.263-.657l.007-.169c.024-.227.108-.4.254-.539.18-.173.433-.263.791-.263zm-2.116-7.18c.237-.008.441.078.643.277.2.197.285.395.278.622-.006.234-.12.466-.367.71-.251.248-.489.361-.73.367-.237.007-.441-.079-.642-.277-.2-.197-.285-.395-.278-.624.005-.233.119-.465.367-.71.25-.247.487-.36.73-.366zm-7.282-1.667c.287 0 .493.083.656.251.163.171.248.414.248.76 0 .347-.085.59-.248.76l-.084.074c-.122.09-.28.15-.467.17l-.133.005-.134-.009c-.206-.025-.362-.104-.493-.24-.163-.17-.249-.413-.249-.76 0-.346.086-.589.25-.76.161-.169.367-.251.654-.251z"/>
</svg>
