<svg xmlns="http://www.w3.org/2000/svg" width="40" height="40" viewBox="0 0 40 40">
    <path d="M20 0c11.046 0 20 8.954 20 20s-8.954 20-20 20S0 31.046 0 20 8.954 0 20 0zm.55 8c-.365 0-.734 0-1.099.007C17.16 8.048 8 8.908 8 19.966c0 11.036 9.149 11.966 11.501 12.021.278.009.598.013.906.013h.228C23.043 31.98 32 31.153 32 20.037 32 8.908 22.961 8.034 20.55 8zm-.547 1.5l.524.002c3.001.041 9.974 1.154 9.974 10.535 0 9.364-6.908 10.436-9.88 10.463 0 0-.214 0-.214-.003-.297 0-.605-.004-.872-.01-3.018-.072-10.036-1.243-10.036-10.521 0-9.275 6.977-10.405 9.979-10.46.349-.007.7-.007 1.049-.004zm.004 7.515c-.413 0-.751.339-.751.752v7.799c0 .417.338.752.751.752.417 0 .751-.338.751-.752v-7.799c0-.417-.338-.752-.751-.752zm.007-2.588c-.42.014-.755.352-.775.771-.014.441.331.81.771.827h.059c.444-.014.789-.386.771-.827-.014-.444-.386-.789-.826-.771z"/>
</svg>
