<svg xmlns="http://www.w3.org/2000/svg" width="40" height="40" viewBox="0 0 40 40">
    <path d="M20 0c12.667 0 20 6.346 20 20s-7.333 20-20 20S0 33.654 0 20 7.333 0 20 0zm0 9.75C13.418 9.75 9.75 13.285 9.75 20S13.418 30.25 20 30.25 30.25 26.715 30.25 20 26.582 9.75 20 9.75zm0 1.5c5.766 0 8.75 2.876 8.75 8.75 0 5.874-2.984 8.75-8.75 8.75s-8.75-2.876-8.75-8.75c0-5.874 2.984-8.75 8.75-8.75zm-.001 1.632c-.414 0-.75.336-.75.75v.767c-1.757.254-2.854 1.45-2.854 3.193 0 1.148.507 2.572 2.854 3.01l.003 3.46c-.604-.117-1.212-.378-1.814-.779-.564-.379-1.301.02-1.301.61 0 .29.123.518.376.695.794.556 1.765.916 2.738 1.026v.754l.007.102c.05.366.363.648.743.648.414 0 .75-.336.75-.75v-.776c1.942-.271 3.112-1.474 3.112-3.275 0-1.2-.546-2.694-3.112-3.09l-.002-3.28c.427.089.849.25 1.292.49.127.063.28.126.458.126.419 0 .759-.34.759-.759 0-.165-.06-.479-.453-.72-.574-.356-1.285-.592-2.055-.687l-.001-.765-.007-.102c-.05-.366-.363-.648-.743-.648zm.752 7.95c1.346.303 1.55.917 1.55 1.546 0 .873-.577 1.48-1.55 1.682zM19.25 15.94v3.035c-1.12-.321-1.293-.907-1.293-1.46 0-.823.471-1.382 1.293-1.575z"/>
</svg>
