<svg xmlns="http://www.w3.org/2000/svg" width="24" height="24" viewBox="0 0 24 24">
    <path d="M16.655 4.3c.68 0 1.322.314 1.738.85l4.344 5.584c.3.387.463.863.463 1.353v3.132c0 1.217-.986 2.204-2.203 2.204h-.404c-.257 1.394-1.27 2.178-2.865 2.178-1.594 0-2.606-.784-2.864-2.178h-4.53c-.257 1.394-1.27 2.178-2.865 2.178-1.594 0-2.606-.784-2.863-2.178h-.042c-1.217 0-2.203-.987-2.203-2.204V13.79H1.45c-.414 0-.75-.335-.75-.75 0-.379.282-.693.648-.742l.102-.007.911-.001v-1.406H1.45c-.414 0-.75-.335-.75-.75 0-.38.282-.693.648-.743l.102-.007h.911V7.979H1.45c-.414 0-.75-.336-.75-.75 0-.38.282-.693.648-.743l.102-.007h.912C2.374 5.275 3.355 4.3 4.564 4.3zM7.47 15.243c-.452 0-.783.077-1.011.25-.292.22-.417.6-.417 1.18 0 1.031.396 1.428 1.428 1.428 1.033 0 1.43-.397 1.43-1.428l-.003-.157c-.036-.815-.363-1.187-1.122-1.26l-.148-.01zm10.26 0l-.158.003c-.762.034-1.137.323-1.24.985l-.018.137c-.01.094-.014.196-.014.305 0 1.031.397 1.428 1.43 1.428 1.032 0 1.43-.397 1.43-1.428 0-.382-.055-.677-.176-.897-.206-.375-.604-.533-1.255-.533zM16.654 5.8H4.565c-.389 0-.704.315-.704.703v8.716c0 .39.315.704.703.704h.04l.037-.17c.021-.09.046-.176.074-.26l.03-.087.03-.078.03-.072.034-.076.037-.074.033-.062.053-.091.035-.058.046-.068c.016-.023.032-.046.05-.068.02-.029.042-.057.065-.084l.021-.026c.025-.03.05-.057.076-.085l.044-.045c.11-.111.231-.211.364-.3l.08-.05.056-.034.062-.034c.034-.019.069-.036.104-.053l.03-.014c.038-.018.077-.035.117-.051l.049-.02c.042-.016.086-.032.13-.046l.03-.01c.045-.014.091-.028.138-.04l.041-.011c.044-.011.088-.022.133-.031l.059-.012c.04-.008.08-.015.122-.021l.066-.01.089-.011c.098-.012.2-.02.304-.024l-.172.01c.119-.01.241-.014.368-.014.116 0 .229.004.339.012.071.006.14.013.21.021l.024.004.106.016c.03.004.058.01.087.015l.076.015.092.02.105.029c.02.005.04.01.06.017l.075.023.11.04.035.013c.033.012.065.026.097.04.026.01.052.023.078.035.027.012.053.025.078.038l.063.034.08.045.048.03.087.058.054.04c.02.014.04.028.058.043l.065.054c.022.018.044.037.065.057l.04.038c.028.026.054.053.08.08l.03.033c.093.103.177.215.252.335l.03.051c.1.168.18.352.244.55.022.073.043.148.061.224l.036.17h4.53c.023-.124.05-.238.083-.347l.027-.084.03-.086.016-.041c.057-.149.125-.288.203-.417l.025-.04c.022-.034.045-.069.069-.102l.023-.032c.026-.035.052-.07.08-.103l.019-.022c.243-.288.554-.511.927-.664l.058-.023c.04-.016.081-.03.123-.044l.04-.013c.04-.013.082-.025.125-.037l.05-.012c.04-.011.083-.021.126-.03l.063-.013.126-.022.045-.007.036-.005.076-.01c.096-.01.196-.018.298-.022l-.17.01c.118-.01.24-.014.366-.014.119 0 .234.004.345.013.07.005.137.012.203.02l.026.004.105.016c.03.004.059.01.088.015l.05.01.138.031.019.005c.045.011.088.023.13.036l.059.019c.088.028.172.06.253.095l.078.036c.027.012.053.025.078.038l.063.034.08.045.048.031c.03.018.058.037.087.057l.05.036.08.061c.01.01.022.019.033.028l.092.08.025.025.075.075.04.043.05.059.049.06.055.071.04.057.054.084.028.046.055.097.023.045.042.086c.031.069.06.14.088.214.014.038.027.076.039.115.023.072.043.147.062.224l.035.168.404.001c.356 0 .65-.265.697-.608l.006-.096v-3.132c0-.157-.052-.31-.148-.433L17.21 6.071c-.133-.171-.337-.271-.554-.271z"/>
</svg>
