<svg xmlns="http://www.w3.org/2000/svg" width="24" height="24" viewBox="0 0 24 24">
    <path d="M12 0c6.628 0 12 5.373 12 12 0 6.628-5.372 12-12 12-6.627 0-12-5.372-12-12C0 5.373 5.373 0 12 0zm-.58 7.129l-.197.005C9.259 7.23 7.67 8.758 7.48 10.696l-.011.144-.13.039c-1.168.38-2.004 1.471-2.004 2.753 0 1.606 1.303 2.907 2.908 2.907l6.845.02c1.97 0 3.566-1.596 3.566-3.564l-.005-.19c-.099-1.88-1.655-3.374-3.56-3.374L15 9.432l-.058-.121c-.66-1.315-2.004-2.182-3.521-2.182zm0 1.14c1.225 0 2.293.796 2.668 1.955.087.267.355.431.633.387l.25-.035c.044-.003.081-.005.118-.005 1.34 0 2.425 1.085 2.425 2.424 0 1.338-1.086 2.424-2.425 2.424l-6.844-.02c-.978 0-1.77-.791-1.77-1.767 0-.918.708-1.675 1.625-1.751.31-.026.543-.295.522-.606l-.006-.065-.015-.121c0-1.557 1.262-2.82 2.82-2.82z"/>
</svg>
