<svg xmlns="http://www.w3.org/2000/svg" width="24" height="24" viewBox="0 0 24 24">
    <path d="M12.828 4.87c.165 0 .3.134.3.3v.9c0 .166-.135.3-.3.3H6.87c-1.242 0-2.25 1.007-2.25 2.25v8.5c0 1.243 1.008 2.25 2.25 2.25h8.5c1.242 0 2.25-1.007 2.25-2.25v-5.972c0-.165.135-.299.3-.299h.9c.165 0 .3.134.3.299v5.972c0 2.071-1.679 3.75-3.75 3.75h-8.5c-2.071 0-3.75-1.679-3.75-3.75v-8.5c0-2.071 1.679-3.75 3.75-3.75h5.958zm4.792-1.75c2.065 0 3.25 1.185 3.25 3.25s-1.185 3.25-3.25 3.25-3.25-1.185-3.25-3.25 1.185-3.25 3.25-3.25zm0 1.5c-1.227 0-1.75.523-1.75 1.75 0 1.227.523 1.75 1.75 1.75 1.227 0 1.75-.523 1.75-1.75 0-1.227-.523-1.75-1.75-1.75z"/>
</svg>
