<svg xmlns="http://www.w3.org/2000/svg" width="40" height="40" viewBox="0 0 40 40">
    <path d="M20 0c11.046 0 20 8.954 20 20s-8.954 20-20 20S0 31.046 0 20 8.954 0 20 0zm-8.845 17.346C9.689 17.346 8.5 18.534 8.5 20s1.189 2.654 2.655 2.654c1.465 0 2.653-1.188 2.653-2.654s-1.188-2.654-2.653-2.654zm8.845 0c-1.466 0-2.655 1.188-2.655 2.654s1.19 2.654 2.655 2.654c1.466 0 2.654-1.188 2.654-2.654S21.466 17.346 20 17.346zm8.846 0c-1.465 0-2.654 1.188-2.654 2.654s1.189 2.654 2.654 2.654c1.466 0 2.654-1.188 2.654-2.654s-1.188-2.654-2.654-2.654z"/>
</svg>
