<svg xmlns="http://www.w3.org/2000/svg" width="40" height="40" viewBox="0 0 40 40">
    <path fill-rule="evenodd" d="M20 0c11.046 0 20 8.954 20 20s-8.954 20-20 20S0 31.046 0 20 8.954 0 20 0zm.464 16.483h-.908l-.165.005c-1.42.086-2.547 1.266-2.547 2.707v6.213l.005.166c.085 1.42 1.265 2.545 2.707 2.545h.908l.165-.005c1.42-.085 2.546-1.264 2.546-2.706v-6.213l-.005-.165c-.086-1.42-1.265-2.547-2.706-2.547zm8.64-4.598h-.696l-.165.005c-1.42.085-2.547 1.264-2.547 2.706v10.809l.005.165c.086 1.42 1.265 2.546 2.707 2.546h.695l.165-.005c1.42-.085 2.546-1.264 2.546-2.706v-10.81l-.005-.164c-.085-1.42-1.264-2.546-2.706-2.546zM11.672 21.1h-.83l-.166.005c-1.378.086-2.47 1.23-2.47 2.63v1.736l.006.166c.086 1.379 1.231 2.47 2.63 2.47h.83l.166-.006c1.378-.086 2.47-1.23 2.47-2.63v-1.735l-.005-.167c-.087-1.378-1.232-2.47-2.631-2.47zm8.79-3.117c.67 0 1.212.543 1.212 1.212v6.213l-.007.124c-.062.61-.577 1.087-1.204 1.087h-.908l-.124-.006c-.611-.062-1.088-.578-1.088-1.205v-6.213l.006-.123c.062-.611.579-1.089 1.206-1.089zm8.64-4.598c.669 0 1.211.542 1.211 1.21v10.81l-.006.124c-.062.61-.578 1.087-1.205 1.087h-.695l-.124-.006c-.61-.063-1.088-.579-1.088-1.205v-10.81l.006-.123c.063-.61.579-1.087 1.206-1.087zM11.673 22.6c.627 0 1.136.508 1.136 1.136v1.735l-.007.123c-.062.57-.544 1.013-1.13 1.013h-.828l-.124-.007c-.57-.062-1.012-.544-1.012-1.13v-1.734l.006-.124c.062-.57.544-1.012 1.13-1.012z"/>
</svg>
