<svg xmlns="http://www.w3.org/2000/svg" width="40" height="40" viewBox="0 0 40 40">
    <path d="M20 0c11.046 0 20 8.954 20 20s-8.954 20-20 20S0 31.046 0 20 8.954 0 20 0zm0 7C12.82 7 7 12.82 7 20s5.82 13 13 13 13-5.82 13-13c0-2.469-.69-4.837-1.97-6.883-.267-.425-.826-.554-1.25-.288-.425.267-.554.826-.288 1.251 1.102 1.76 1.694 3.794 1.694 5.92 0 6.178-5.008 11.186-11.186 11.186S8.813 26.178 8.813 20c0-6.179 5.01-11.187 11.187-11.187 2.5 0 4.872.822 6.813 2.315.397.305.967.23 1.272-.166.305-.398.231-.967-.166-1.273C25.663 7.955 22.903 7 20 7zm-5.145 10.006h-1.721v3.618l.004.21c.027.683.194 1.148.54 1.534l.118.114c.374.325.918.497 1.587.497.685 0 1.314-.235 1.672-.621.375-.383.548-.95.548-1.777v-3.575h-1.591v3.63l-.003.135c-.01.252-.055.409-.14.504-.048.055-.15.13-.436.13-.205 0-.356-.047-.436-.142-.096-.11-.142-.313-.142-.64v-3.617zm9.289 0h-1.767v5.874h1.917l.221-.004c.791-.035 1.348-.26 1.748-.702.435-.505.647-1.24.647-2.254 0-1.016-.213-1.74-.652-2.214-.44-.49-1.075-.7-2.114-.7zm-2.529 0h-3.55v1.43h2.045l-1.563 4.427h1.755l1.38-4.365.049-.156c.057-.211.084-.438.084-.7 0-.215-.035-.377-.102-.484l-.098-.152zm2.483 1.53c.5 0 .679.09.792.224.155.18.25.434.25 1.147 0 .605-.05.89-.194 1.122-.046.075-.185.306-.728.306l-.12.004z"/>
</svg>
