<svg xmlns="http://www.w3.org/2000/svg" width="40" height="40" viewBox="0 0 40 40">
    <g fill="none" fill-rule="evenodd">
        <path fill="#000" fill-rule="nonzero" d="M19.995 0C31.038 0 39.99 8.952 39.99 19.995c0 11.043-8.952 19.995-19.995 19.995C8.952 39.99 0 31.038 0 19.995 0 8.952 8.952 0 19.995 0zm.625 10h-7.496l-.115.007c-.534.066-1.01.577-1.01 1.117v17.752l.008.118c.063.548.56 1.006 1.117 1.006h12.49l.118-.007c.547-.064 1.005-.559 1.005-1.117V15.832l-.008-.092c-.02-.122-.078-.234-.168-.32l-5.548-5.264-.068-.054c-.095-.066-.208-.102-.325-.102zm-.853 1.138v2.475l.007.24c.049.867.367 1.615.923 2.173.606.608 1.443.93 2.413.93h2.489v11.9l-.006.006h-12.44l-.009-.005-.006-.006V11.16l.01-.012.013-.011h6.606zm3.2 14.666h-7.212l-.092.007c-.269.045-.476.28-.476.562 0 .313.256.569.568.569h7.212l.092-.008c.27-.044.477-.28.477-.561 0-.313-.256-.57-.57-.57zm0-3.05h-7.212l-.092.007c-.269.045-.476.28-.476.562 0 .313.256.569.568.569h7.212l.092-.007c.27-.045.477-.28.477-.562 0-.313-.256-.569-.57-.569zm0-3.053h-7.212l-.092.008c-.269.044-.476.28-.476.561 0 .313.256.57.568.57h7.212l.092-.008c.27-.045.477-.28.477-.562 0-.313-.256-.569-.57-.569zm-2.062-8.077l4.42 4.194H23.11l-.217-.008c-.566-.04-1.045-.243-1.391-.59-.39-.39-.597-.944-.597-1.607v-1.99z"/>
    </g>
</svg>
