<svg xmlns="http://www.w3.org/2000/svg" width="40" height="40" viewBox="0 0 40 40">
    <path d="M20 0c11.046 0 20 8.954 20 20s-8.954 20-20 20S0 31.046 0 20 8.954 0 20 0zm-5.376 9.777c-2.047-1.955-4.244-2.05-6.42-.185l-.265.237-.104.103-.105.11-.107.117-.059.068c-.223.258-.495.608-.43.54l-.068.083-.107.156c-1.953 3.012.438 8.73 6.203 14.356l.399.384.315.298c5.988 5.6 12.038 7.851 15.102 5.832l.127-.105-.05.052.012-.008.145-.102c.168-.12.33-.242.485-.368.087-.07.168-.14.244-.208l.168-.159.18-.185c1.975-2.102 1.874-4.257-.192-6.233-.424-.404-.86-.732-1.306-.979-1.792-1.067-3.703-.757-5.448.91l-.134.13-.119.122c-.077.081-.15.164-.235.263l-.082.096.022-.016-.036.027c-.451.246-1.99-.731-4.244-2.8l-.236-.218-.551-.519-.28-.269-.233-.227c-2.295-2.253-3.392-3.796-3.164-4.2l.005-.01.105-.08c.157-.122.274-.22.403-.339l.134-.126c1.76-1.68 2.092-3.553.942-5.315-.245-.409-.59-.828-1.016-1.233zm-5.437.947c1.58-1.356 2.912-1.284 4.402.138.333.317.594.634.78.944.747 1.146.556 2.229-.708 3.435l-.208.192-.077.065c-.08.065-.168.135-.29.226l-.087.078-.09.097c-1.182 1.374.14 3.253 3.497 6.487l.291.28.07.065.488.462.248.232c3.115 2.89 4.96 3.954 6.29 2.783l.082-.085.114-.136c.138-.162.233-.261.39-.411 1.278-1.221 2.458-1.413 3.666-.694.349.193.682.444 1.016.763 1.47 1.405 1.544 2.625.142 4.113l-.192.196-.077.072-.087.076-.169.137-.522.388-.003-.004-.129.08c-2.375 1.366-7.689-.672-13.11-5.742l-.41-.388-.297-.287-.29-.286c-5.08-5.064-7.095-9.962-5.72-12.154l.096-.138.272-.34.065-.078c.042-.05.081-.097.114-.134l.159-.17.114-.111zm16.81-1.725c-.186 0-.337.122-.392.289l-.62 1.888-.037.09c-.103.2-.31.328-.54.328H22.425l-.075.007c-.195.036-.342.206-.342.41 0 .135.066.249.165.325l1.614 1.185c.212.154.297.426.217.675l-.607 1.873-.022.071-.008.077c0 .232.187.418.418.418.094 0 .176-.036.245-.09l1.61-1.16.083-.05c.2-.1.443-.084.63.05l1.618 1.17.072.043c.05.024.105.04.165.04.23 0 .418-.187.418-.418 0-.051-.013-.1-.03-.144l-.607-1.88-.022-.094c-.034-.222.057-.449.242-.583l1.602-1.171.06-.05c.073-.074.12-.171.12-.284 0-.227-.182-.41-.406-.415l-2-.004-.097-.008c-.221-.036-.408-.192-.48-.41l-.619-1.883-.028-.07c-.07-.133-.204-.225-.364-.225z"/>
</svg>
