<svg xmlns="http://www.w3.org/2000/svg" width="24" height="24" viewBox="0 0 24 24">
    <path d="M12 0c6.627 0 12 5.373 12 12s-5.373 12-12 12S0 18.627 0 12 5.373 0 12 0zm-.387 11.005H8.835l-.142.006c-.844.073-1.508.781-1.508 1.644v6.786l.006.143c.073.845.781 1.507 1.644 1.507h2.778l.143-.006c.844-.072 1.507-.78 1.507-1.644v-6.786l-.006-.142c-.072-.844-.78-1.508-1.644-1.508zm.35 6.556v1.88l-.007.071c-.032.16-.173.28-.343.28H8.835l-.07-.008c-.16-.032-.28-.173-.28-.343v-1.88h3.478zm4.937-1.61c-.254-.182-.61-.16-.838.069-.254.254-.254.665 0 .92l1.977 1.975.08.069c.255.182.61.16.84-.069.253-.254.253-.665-.001-.92l-1.977-1.975zm-5.287-3.646l.07.008c.16.032.28.174.28.342v3.606H8.485v-3.606l.007-.07c.033-.16.174-.28.343-.28h2.778zM4 9.961c-.829 0-1.5.67-1.5 1.5 0 .828.671 1.5 1.5 1.5.828 0 1.5-.672 1.5-1.5 0-.83-.672-1.5-1.5-1.5zm11.884-6.806c-.621-.566-1.58-.58-2.218-.006l-2.061 1.865-.113.113c-.567.622-.58 1.583-.002 2.22l4.55 5.031.112.113c.62.566 1.581.578 2.218.004l2.061-1.863.113-.113c.567-.62.579-1.583.003-2.218l-4.55-5.033zm2.437 4.623l1.262 1.395.047.066c.077.139.051.318-.071.428l-2.06 1.863-.067.047c-.139.077-.317.052-.428-.07l-1.262-1.396 2.579-2.333zm-3.718-3.71c.116-.064.26-.057.37.02l.06.052 2.416 2.674-2.578 2.333-2.418-2.674-.047-.065c-.077-.14-.052-.318.072-.43l2.06-1.864zm-8.212-.09c-.217-.17-.531-.133-.702.085-.733.935-.57 2.287.364 3.02.934.735 2.287.572 3.021-.362.17-.217.133-.532-.085-.702-.217-.17-.531-.133-.702.084-.392.5-1.117.587-1.616.194-.5-.393-.588-1.117-.195-1.617.17-.218.133-.532-.085-.702z"/>
</svg>
