<svg xmlns="http://www.w3.org/2000/svg" width="41" height="41" viewBox="0 0 41 41">
    <g fill="none" fill-rule="evenodd">
        <path fill="#000" fill-rule="nonzero" d="M19.994 0c11.043 0 19.995 8.952 19.995 19.995 0 11.043-8.952 19.995-19.995 19.995C8.951 39.99 0 31.038 0 19.995 0 8.952 8.951 0 19.994 0zm0 8C12.146 8 8 12.147 8 19.994c0 7.847 4.147 11.994 11.993 11.994 7.847 0 11.994-4.147 11.994-11.994C31.987 12.147 27.84 8 19.993 8zm0 1.5c6.963 0 10.493 3.53 10.493 10.494s-3.53 10.494-10.494 10.494c-2.459 0-4.48-.449-6.079-1.326l3.476-3.433c.236-.232.24-.612.005-.848l-.358-.364c1.647-.926 3.854-1.957 7.157-2.028.093.348.27.653.528.9.393.38.918.571 1.558.571.642 0 1.166-.193 1.557-.57.396-.378.605-.89.605-1.485 0-.602-.203-1.102-.603-1.485-.394-.378-.918-.57-1.559-.57-.64 0-1.163.192-1.558.57-.25.241-.417.53-.512.868-2.614.052-4.618.667-6.174 1.375l5.211-5.177c.294.17.613.265.952.265h.051c.535-.016 1.032-.246 1.477-.686.45-.44.684-.935.7-1.47.013-.539-.198-1.039-.61-1.446-.412-.405-.927-.632-1.455-.599-.535.015-1.032.246-1.477.685-.449.441-.684.936-.699 1.471-.008.325.075.633.225.918l-5.369 5.335c.685-1.503 1.218-3.278 1.392-5.742.394-.084.743-.266 1.004-.54.368-.387.555-.9.555-1.527 0-.626-.187-1.14-.555-1.526-.743-.78-2.164-.779-2.905 0-.367.385-.554.9-.554 1.526 0 .627.187 1.141.554 1.526.201.211.44.361.704.46-.212 3.021-.978 4.882-1.937 6.621l-.322-.326c-.112-.114-.296-.173-.426-.177-.159 0-.31.061-.422.172l-3.438 3.394C9.905 24.261 9.5 22.325 9.5 19.994 9.5 13.03 13.03 9.5 19.993 9.5zm-5.448 14.202l1.574 1.595-3.243 3.202c-.597-.459-1.109-1.004-1.548-1.62l3.217-3.177zm12.462-2.416c.1.097.235.265.235.62 0 .352-.134.52-.237.62-.326.316-1.12.317-1.453-.003-.156-.148-.23-.336-.235-.593v-.025c0-.269.074-.466.235-.619.33-.319 1.125-.319 1.455 0zm-2.593-6.536c.205 0 .384.081.558.253.234.231.256.43.253.558-.005.217-.118.43-.34.65-.227.221-.446.333-.668.34-.21.006-.399-.076-.578-.253-.235-.232-.257-.43-.254-.559.005-.217.118-.429.34-.648.227-.223.446-.334.668-.34h.021zm-6.429-1.522c.332 0 .492.128.583.224.152.158.225.387.225.698 0 .312-.073.54-.225.698-.129.136-.332.214-.575.223l-.038-.002c-.242-.005-.413-.073-.554-.22-.15-.158-.223-.386-.223-.699 0-.312.073-.54.223-.698.091-.096.251-.224.584-.224z" transform="translate(1 1)"/>
    </g>
</svg>
