<svg xmlns="http://www.w3.org/2000/svg" width="24" height="24" viewBox="0 0 24 24">
    <path fill-rule="evenodd" d="M12 0c6.627 0 12 5.372 12 12 0 6.627-5.373 12-12 12S0 18.627 0 12C0 5.372 5.373 0 12 0zm1.876 18.788h-3.821l-.095.007c-.342.046-.605.34-.605.693 0 .387.313.7.7.7h3.821l.095-.006c.342-.046.605-.34.605-.694 0-.386-.313-.7-.7-.7zm3.063-13.944H7.06l-.177.005C5.238 4.941 3.93 6.305 3.93 7.974v6.643l.005.178c.093 1.646 1.456 2.953 3.125 2.953h9.878l.177-.005c1.646-.092 2.953-1.456 2.953-3.126V7.974l-.005-.178c-.093-1.645-1.457-2.952-3.125-2.952zm0 1.4c.955 0 1.73.775 1.73 1.73v6.643l-.007.15c-.076.886-.818 1.581-1.723 1.581H7.06l-.149-.006c-.885-.076-1.58-.819-1.58-1.725V7.974l.006-.15c.076-.885.818-1.58 1.723-1.58zM15.3 7.834c-.757-.64-1.942-.7-2.974-.136l-.33.184-.327-.184c-1.032-.564-2.218-.504-2.975.136-.656.554-.845 1.427-.609 2.398.2.833.586 1.682 1.139 2.526.443.68.796 1.113 1.391 1.72.15.153.331.315.474.417.186.132.4.228.62.275.072.016.142.025.215.028l.033.001.178-.006c.057-.005.105-.013.152-.023.217-.046.43-.142.618-.275l.114-.087c.118-.096.248-.215.366-.338l.205-.212c.474-.499.792-.905 1.18-1.5.553-.846.938-1.694 1.14-2.526.235-.972.047-1.844-.61-2.399zm-2.38.953c.603-.33 1.234-.298 1.58-.006.254.214.338.605.204 1.16-.166.686-.493 1.406-.972 2.139l-.145.218c-.331.487-.62.83-1.093 1.31l-.08.081c-.084.08-.172.156-.227.195-.052.037-.11.063-.169.075h-.047l-.056-.017c-.035-.013-.072-.033-.106-.057-.075-.053-.205-.17-.31-.276-.539-.55-.84-.92-1.237-1.529-.479-.732-.806-1.452-.972-2.14-.134-.553-.05-.945.204-1.16.346-.291.978-.323 1.58.006.147.08.297.166.451.257.15.084.309.126.473.126.16 0 .319-.041.457-.118l.167-.097z"/>
</svg>
