<svg xmlns="http://www.w3.org/2000/svg" width="24" height="24" viewBox="0 0 24 24">
    <g fill="#86888C" fill-rule="evenodd">
        <path d="M1.627 3.253c-.19 0-.345.154-.345.345v4.929c0 .192.155.345.345.345h4.93c.19 0 .345-.153.345-.345v-4.93c0-.19-.154-.344-.345-.344h-4.93zm4.93 6.902h-4.93C.73 10.155 0 9.425 0 8.527v-4.93C0 2.7.73 1.97 1.627 1.97h4.93c.897 0 1.627.73 1.627 1.628v4.929c0 .898-.73 1.628-1.627 1.628zM1.627 13.098c-.19 0-.345.154-.345.345v4.93c0 .19.155.345.345.345h4.93c.19 0 .345-.154.345-.345v-4.93c0-.191-.154-.345-.345-.345h-4.93zM6.557 20h-4.93C.73 20 0 19.27 0 18.373v-4.93c0-.898.73-1.627 1.627-1.627h4.93c.897 0 1.627.729 1.627 1.627v4.93c0 .898-.73 1.627-1.627 1.627zM11.487 13.098c-.19 0-.345.154-.345.345v4.93c0 .19.155.345.345.345h4.93c.191 0 .345-.154.345-.345v-4.93c0-.191-.154-.345-.345-.345h-4.93zM16.417 20h-4.93c-.897 0-1.627-.73-1.627-1.627v-4.93c0-.898.73-1.627 1.627-1.627h4.93c.897 0 1.627.729 1.627 1.627v4.93c0 .898-.73 1.627-1.627 1.627zM16.417 10.155h-4.93c-.897 0-1.627-.73-1.627-1.628v-4.93c0-.897.73-1.628 1.627-1.628h.864c.354 0 .64.288.64.642 0 .355-.286.642-.64.642h-.864c-.19 0-.345.154-.345.344v4.93c0 .191.155.345.345.345h4.93c.19 0 .345-.154.345-.345v-.839c0-.354.287-.64.641-.64.354 0 .641.286.641.64v.84c0 .897-.73 1.627-1.627 1.627M19.379 1.972h-1.331V.642c0-.355-.287-.642-.641-.642-.354 0-.641.287-.641.642v1.33h-1.331c-.354 0-.641.287-.641.642 0 .354.287.64.64.64h1.332v1.332c0 .354.287.64.64.64.355 0 .642-.286.642-.64V3.255h1.33c.355 0 .642-.287.642-.641 0-.355-.287-.642-.641-.642" transform="translate(2 2)"/>
    </g>
</svg>
