<svg xmlns="http://www.w3.org/2000/svg" width="40" height="40" viewBox="0 0 40 40">
    <g fill="none" fill-rule="evenodd">
        <path fill="#FFEFFA" d="M-49-94h552v890c0 2.21-1.79 4-4 4H-45c-2.21 0-4-1.79-4-4V-94z"/>
        <path fill="#000" fill-rule="nonzero" d="M19.994 0c11.043 0 19.995 8.952 19.995 19.995 0 11.043-8.952 19.995-19.995 19.995C8.952 39.99 0 31.038 0 19.995 0 8.952 8.952 0 19.994 0zM9.9 15.684c-.497 0-.9.403-.9.9v10.303c0 .497.403.9.9.9s.9-.403.9-.9V16.584c0-.497-.403-.9-.9-.9zm10 4.485c-.497 0-.9.403-.9.9v5.818c0 .497.403.9.9.9s.9-.403.9-.9v-5.818c0-.497-.403-.9-.9-.9zM29.9 12c-.497 0-.9.403-.9.9v13.987c0 .497.403.9.9.9s.9-.403.9-.9V12.9c0-.497-.403-.9-.9-.9z"/>
    </g>
</svg>
