<svg xmlns="http://www.w3.org/2000/svg" width="40" height="40" viewBox="0 0 40 40">
    <path d="M20 0c11.046 0 20 8.954 20 20s-8.954 20-20 20S0 31.046 0 20 8.954 0 20 0zm9.78 11.25l-18.801.014-.134.005c-.877.073-1.428.85-1.372 1.622l.004.044v12.944l.005.169c.087 1.507 1.337 2.702 2.866 2.702h15.214l.17-.005c1.507-.087 2.702-1.337 2.702-2.866v-9.625l-.005-.118c-.083-.888-1.096-1.394-1.864-.887l-7.6 5.276-.13.08c-.575.32-1.3.235-1.785-.225l-8.078-7.612.007-.004 18.802-.014.102-.007c.366-.05.648-.364.647-.744 0-.414-.336-.75-.75-.749zm-18.803 3.589l7.043 6.631.145.129c1.036.863 2.533.937 3.656.158l7.113-4.938v9.06l-.006.132c-.066.696-.652 1.239-1.366 1.239H12.348l-.132-.006c-.696-.067-1.239-.652-1.239-1.365v-11.04z"/>
</svg>
