<svg xmlns="http://www.w3.org/2000/svg" width="24" height="24" viewBox="0 0 24 24">
    <path d="M12 0c6.437 0 11.69 5.07 11.986 11.434.008.187.014.376.014.566 0 6.628-5.372 12-12 12-6.627 0-12-5.372-12-12C0 7.45 2.532 3.492 6.264 1.458 7.968.528 9.922 0 12 0zm0 5.5c-.327 0-.59.27-.59.602v.708c-1.64.207-2.676 1.318-2.676 2.96 0 1.076.49 2.4 2.677 2.79v3.218c-.576-.099-1.156-.345-1.732-.737-.508-.347-1.179.016-1.179.564 0 .27.111.48.34.645.745.531 1.66.855 2.572.944v.704c0 .333.265.602.59.602.325 0 .589-.27.589-.602v-.712c1.81-.228 2.909-1.345 2.909-3.04 0-1.124-.516-2.522-2.911-2.869v-3.04c.416.077.827.222 1.259.462.108.055.252.118.416.118.38 0 .686-.315.686-.703 0-.152-.052-.442-.41-.668-.542-.343-1.221-.56-1.952-.641v-.703c0-.332-.265-.602-.589-.602zm.59 7.255c1.292.275 1.494.852 1.494 1.448 0 .833-.562 1.398-1.494 1.567v-3.015zm-1.18-4.527v2.843c-1.087-.291-1.26-.846-1.26-1.371 0-.792.464-1.313 1.26-1.472z"/>
</svg>
