<svg xmlns="http://www.w3.org/2000/svg" width="24" height="24" viewBox="0 0 24 24">
    <path d="M18.75 3c1.517 0 2.75 1.233 2.75 2.75v10c0 1.517-1.233 2.75-2.75 2.75H9.923l-2.806 2.205c-.135.106-.299.16-.464.16-.112 0-.224-.025-.329-.076-.259-.126-.422-.39-.421-.677L5.91 18.5H4.75C3.233 18.5 2 17.267 2 15.75v-10C2 4.233 3.233 3 4.75 3h14zm0 1.5h-14c-.689 0-1.25.561-1.25 1.25v10c0 .689.561 1.25 1.25 1.25h1.913c.199 0 .391.079.531.221.141.141.22.333.219.532l-.003.814 1.789-1.407c.133-.103.296-.16.464-.16h9.087c.689 0 1.25-.561 1.25-1.25v-10c0-.689-.561-1.25-1.25-1.25zm-6.098 6.88c.414 0 .75.337.75.75 0 .415-.336.75-.75.75H5.608c-.414 0-.75-.335-.75-.75 0-.413.336-.75.75-.75h7.044zm4.996-3.047c.413 0 .75.336.75.75s-.337.75-.75.75H5.608c-.413 0-.75-.336-.75-.75s.337-.75.75-.75h12.04z"/>
</svg>
