<svg xmlns="http://www.w3.org/2000/svg" width="24" height="24" viewBox="0 0 24 24">
    <path fill-rule="evenodd" d="M12 0c6.627 0 12 5.372 12 12s-5.373 12-12 12S0 18.628 0 12 5.373 0 12 0zm3.85 5.113H8.074l-.106.004c-.147.012-.314.055-.484.152-.155.088-.284.208-.38.357-.382-.26-.815-.4-1.295-.3-1.163.24-1.416 1.216-.969 3.304.162.753.481 1.374.91 1.872.395.457.796.727 1.087.852.254.11.548-.007.657-.261.11-.254-.007-.548-.26-.657-.163-.07-.441-.257-.726-.588-.323-.373-.564-.844-.69-1.428-.346-1.615-.24-2.025.194-2.115.225-.047.551.132.798.366.023.022.047.042.073.058l-.01.26c-.023 1.022.104 1.773.575 2.61l.119.198c.537.847 1.393 1.552 2.614 2.092l.262.11v2.293l-.123.04-.286.1c-.285.108-.568.238-.838.392-.497.285-.913.63-1.217 1.045H7.72l-.117.007c-.497.058-.883.48-.883.993v1.018l.007.117c.058.497.48.883.993.883h8.48l.116-.007c.497-.057.883-.48.883-.993V16.87l-.007-.116c-.057-.498-.48-.884-.993-.884h-.253c-.304-.416-.72-.76-1.217-1.045l-.274-.146c-.277-.138-.563-.253-.85-.346l-.123-.039v-2.294l.262-.11c1.315-.581 2.207-1.355 2.734-2.29.512-.907.618-1.712.567-2.87l-.004-.072c.248-.23.567-.398.785-.353.395.083.518.432.272 1.721l-.08.395c-.125.584-.366 1.055-.689 1.429-.285.33-.563.518-.725.587-.254.11-.37.404-.26.658.109.253.403.37.656.26.291-.125.692-.395 1.086-.852.43-.498.748-1.12.91-1.873.448-2.087.195-3.061-.967-3.304-.45-.093-.864.028-1.232.26-.094-.13-.214-.236-.355-.316-.212-.12-.42-.158-.59-.156zm.348 11.756v1.018H7.72V16.87h8.48zm-.333-10.757l.049.012.034.015c.052.03.084.085.084.26v.066l.02.548c.02.855-.082 1.45-.446 2.096-.479.85-1.368 1.555-2.797 2.079-.197.072-.328.26-.328.47v3.02l.008.086c.035.2.188.361.392.403.076.016.222.053.413.115.321.105.642.241.938.41.099.057.193.116.281.177H9.411c.088-.061.182-.12.28-.177.296-.169.617-.305.938-.41.191-.062.337-.1.413-.115.233-.048.4-.252.4-.49v-3.02l-.008-.088c-.03-.173-.151-.32-.32-.381-1.429-.523-2.317-1.23-2.795-2.08-.397-.704-.482-1.348-.439-2.335l.008-.178.008-.274c.008-.115.037-.158.081-.182l.034-.015.047-.012h7.807z"/>
</svg>
