<svg xmlns="http://www.w3.org/2000/svg" width="24" height="24" viewBox="0 0 24 24">
    <path fill="#86888C" d="M9.064 2l6.833.014c2.287 0 3.443 1.16 3.443 3.444l-.005 13.638c-.074 2.148-1.226 3.218-3.44 3.218L9.064 22.3c-2.002 0-3.136-.877-3.389-2.634-.708.3-1.457.33-1.74.33-.561-.002-1.036-.308-1.238-.799-.115-.28-.126-.58-.04-.859-.121.037-.248.056-.376.056-.715 0-1.278-.585-1.281-1.333-.001-.283.037-1.742.892-2.597.518-.518 1.323-.782 2.39-.782l.103.001 1.269-1.269c-.035-.08-.053-.167-.053-.259l.02-7.005C5.62 2.95 6.736 2 9.064 2zm-.186 1.302c-1.503.032-1.957.472-1.957 1.85l-.017 6.011 3.187-3.188c-.019-.589.047-1.618.641-2.338l.136-.149c.827-.828 2.193-.892 2.592-.892.567.002 1.04.31 1.243.8.115.28.125.58.039.86.122-.039.249-.058.377-.058.716 0 1.279.586 1.28 1.333.002.284-.036 1.742-.89 2.597-.515.515-1.313.776-2.37.776h-.132l-5.695 5.695c.015.512-.033 1.358-.429 2.043.025.067.038.139.038.214 0 1.578.57 2.144 2.144 2.144l6.832.014c1.572 0 2.142-.565 2.142-2.144l-.002-13.595c-.045-1.429-.635-1.96-2.14-1.96zM12.48 17.49c.73 0 1.2.447 1.2 1.204 0 .358-.104.657-.314.873-.22.224-.525.33-.886.33-.36 0-.667-.106-.885-.33-.21-.215-.315-.514-.315-.873 0-.757.471-1.204 1.2-1.204zm.98-11.694h-.019c-.156.003-1.22.037-1.724.54-.545.545-.41 1.853-.41 1.853 0 .146-.083.351-.188.455l-6.06 6.061c-.103.104-.307.188-.453.188-.015 0-.14-.01-.324-.01-.426 0-1.168.056-1.542.43-.481.48-.534 1.47-.54 1.697v.046c0 .09.032.138.08.138.033 0 .07-.019.11-.059l.529-.53c.092-.09.26-.155.398-.155.019 0 .038.001.055.004l.76.11c.145.02.28.155.302.301l.108.76c.02.144-.047.348-.15.452l-.531.53c-.103.103-.068.19.079.19h.018c.158-.003 1.221-.036 1.726-.54.545-.546.413-1.872.413-1.872-.001-.147.084-.35.187-.456l6.049-6.05c.104-.103.308-.187.454-.187l.02.001c.043.003.166.011.332.011.43 0 1.154-.058 1.52-.424.546-.545.54-1.745.54-1.745 0-.089-.031-.137-.08-.137-.031 0-.068.02-.108.06l-.53.53c-.091.09-.26.154-.398.154-.018 0-.037-.002-.055-.004l-.76-.108c-.145-.02-.281-.157-.301-.303l-.11-.759c-.02-.145.048-.349.153-.453l.529-.529c.104-.104.068-.189-.078-.19z"/>
</svg>
