<svg xmlns="http://www.w3.org/2000/svg" width="41" height="41" viewBox="0 0 41 41">
    <path d="M20.994 1c11.043 0 19.995 8.952 19.995 19.995 0 11.043-8.952 19.995-19.995 19.995C9.951 40.99 1 32.038 1 20.995 1 9.952 9.951 1 20.994 1zm-1.299 10C14.9 11 11 14.917 11 19.73c0 4.813 3.9 8.729 8.695 8.729 2.14 0 4.098-.784 5.615-2.075l4.642 4.636c.147.148.339.22.53.22.193 0 .384-.072.531-.22.293-.293.293-.768 0-1.06l-4.648-4.64c1.263-1.515 2.026-3.465 2.026-5.59 0-4.814-3.901-8.73-8.696-8.73zm0 1.5c3.968 0 7.196 3.243 7.196 7.23 0 3.985-3.228 7.229-7.196 7.229-3.967 0-7.195-3.244-7.195-7.23s3.228-7.228 7.195-7.228z"/>
</svg>
