<svg xmlns="http://www.w3.org/2000/svg" width="41" height="41" viewBox="0 0 41 41">
    <path d="M20.994 1c11.043 0 19.995 8.952 19.995 19.995 0 11.043-8.952 19.995-19.995 19.995C9.951 40.99 1 32.038 1 20.995 1 9.952 9.951 1 20.994 1zm2.657 12H13.467C11.556 13 10 14.557 10 16.471l.009 8.559c0 1.913 1.555 3.47 3.466 3.47H28.03c1.912 0 3.467-1.557 3.467-3.471l-.006-4.473c-.002-1.281-.545-2.513-1.492-3.379l-3.251-2.973C25.9 13.427 24.8 13 23.65 13zm0 1.5c.773 0 1.514.288 2.086.81l3.25 2.974c.636.583 1.002 1.412 1.004 2.275l.006 4.471c0 1.086-.882 1.97-1.967 1.97H13.475c-1.084 0-1.966-.884-1.966-1.971l-.01-8.559c0-1.086.883-1.97 1.968-1.97z"/>
</svg>
