<svg xmlns="http://www.w3.org/2000/svg" width="24" height="24" viewBox="0 0 24 24">
    <path d="M17.087 16.422c-1.43 0-2.635-.396-3.6-1.188-2.102-1.728-2.239-4.682-2.246-4.808-.01-.273.202-.505.475-.52.272-.006.499.206.511.478 0 .027.13 2.636 1.886 4.075 1.065.87 2.54 1.153 4.37.833.27-.058.537.115.594.386.06.27-.116.535-.385.594-.014.004-.027.004-.038.007-.522.092-1.044.14-1.567.143M14.6 21.418c-.045 0-.089-.007-.133-.02-3.107-.875-5.924-3.15-7.348-5.932-1.117-2.185-1.301-4.498-.527-6.694.817-2.478 3.512-4.032 6.246-3.602 2.804.437 4.986 2.865 4.962 5.528 0 .274-.218.497-.493.5h-.002c-.274-.003-.492-.23-.488-.506.016-2.179-1.796-4.173-4.125-4.535-2.271-.349-4.495.912-5.164 2.94-.682 1.936-.518 3.975.472 5.908 1.298 2.548 3.879 4.63 6.73 5.433.263.075.416.352.34.614-.053.212-.247.362-.47.366M13.785 24c-.038 0-.078-.004-.117-.014-1.931-.475-3.915-1.51-5.589-2.92C4.357 17.928 1.38 10.65 4.976 5.932c2.004-2.63 5.566-3.88 8.847-3.112.013 0 5.084.792 6.487 6.684.017.058.53 1.911-.423 3.213-.564.764-1.485 1.158-2.739 1.171.021.003-.863.11-1.686-.56-.745-.601-1.189-1.615-1.321-3.008-.048-.492-.25-.881-.601-1.158-.465-.359-1.175-.498-1.907-.372-.22.02-1.823.222-1.963 2.055-.163 2.146 1.496 5.789 5.57 6.793.263.082.41.365.328.628-.076.239-.315.382-.56.34-4.624-1.146-6.501-5.357-6.314-7.842.164-2.183 1.919-2.9 2.824-2.97.966-.172 1.936.037 2.626.569.57.444.911 1.082.983 1.854.102 1.09.427 1.889.94 2.312.282.242.651.372 1.023.355.983-.013 1.643-.27 2.012-.772.655-.89.266-2.346.263-2.358-1.257-5.264-5.672-5.952-5.716-5.956-2.968-.69-6.116.409-7.889 2.738-3.192 4.19-.38 10.948 2.954 13.765 1.557 1.311 3.401 2.278 5.187 2.715.266.068.427.335.365.601-.05.223-.252.383-.48.383m7.221-18.327c-.164 0-.314-.083-.406-.216-1.233-1.816-3.254-3.309-5.41-3.988-3.212-1.022-6.705-.36-9.57 1.816-.82.629-1.578 1.335-2.26 2.111-.178.202-.485.221-.687.047l-.01-.01c-.205-.185-.218-.499-.037-.707.727-.823 1.53-1.577 2.4-2.243C8.15.117 11.965-.6 15.485.513c2.36.747 4.573 2.382 5.928 4.373.154.23.099.537-.126.697-.085.059-.181.09-.28.09"/>
</svg>
