<svg xmlns="http://www.w3.org/2000/svg" width="40" height="40" viewBox="0 0 40 40">
    <path d="M20 0c11.046 0 20 8.954 20 20s-8.954 20-20 20S0 31.046 0 20 8.954 0 20 0zm-8.988 26.013c-1.104 0-2 .896-2 2s.896 2 2 2c.842 0 1.564-.522 1.858-1.26h17.116l.102-.007c.366-.05.648-.363.648-.743 0-.414-.335-.75-.75-.75l-17.124-.001c-.3-.727-1.016-1.24-1.85-1.24zm7.967-8.762h-1.057l-.168.006c-.779.059-1.476.52-1.832 1.223l-.182.36-.054.089c-.138.198-.364.318-.609.318h-2.216c-.3-.726-1.015-1.237-1.85-1.237-1.103 0-2 .896-2 2s.897 2 2 2c.844 0 1.566-.523 1.86-1.262h2.206l.168-.007c.779-.059 1.476-.52 1.832-1.223l.183-.359.053-.09c.138-.198.364-.318.61-.318h1.056l.113.009c.258.039.478.21.576.457l1.246 3.124.07.156c.375.765 1.153 1.256 2.013 1.256.918 0 1.743-.56 2.084-1.413l1.24-3.119.05-.1c.132-.225.374-.367.641-.367h2.986l.102-.007c.366-.05.648-.363.648-.743 0-.414-.336-.75-.75-.75h-2.986l-.171.007c-.85.064-1.594.606-1.913 1.406l-1.24 3.118-.05.101c-.132.225-.375.367-.64.367-.304 0-.577-.185-.69-.468l-1.246-3.123-.07-.156c-.372-.763-1.151-1.255-2.013-1.255zm-7.967-7.246c-1.104 0-2 .896-2 2s.896 2 2 2c.842 0 1.563-.522 1.858-1.26h17.116l.102-.007c.366-.05.648-.363.648-.743 0-.414-.335-.75-.75-.75H12.862c-.3-.728-1.015-1.24-1.85-1.24z"/>
</svg>
