<svg xmlns="http://www.w3.org/2000/svg" width="40" height="40" viewBox="0 0 40 40">
    <path d="M19.994 0c11.043 0 19.995 8.952 19.995 19.995 0 11.043-8.952 19.995-19.995 19.995C8.951 39.99 0 31.038 0 19.995 0 8.952 8.951 0 19.994 0zm.556 8c-.365 0-.734 0-1.1.007C17.16 8.048 8 8.908 8 19.967c0 11.035 9.149 11.965 11.5 12.02.279.01.599.013.907.013h.228C23.043 31.98 32 31.153 32 20.037 32 8.908 22.96 8.034 20.55 8zm-.548 1.5l.525.002c3 .041 9.974 1.154 9.974 10.535 0 9.364-6.908 10.436-9.88 10.463 0 0-.214 0-.214-.003-.297 0-.605-.004-.872-.01-3.018-.072-10.036-1.243-10.036-10.52 0-9.276 6.977-10.406 9.979-10.46.349-.008.7-.008 1.049-.005zm.005 7.515c-.413 0-.751.34-.751.752v7.8c0 .416.338.751.75.751.418 0 .752-.338.752-.752v-7.799c0-.417-.338-.752-.751-.752zm.007-2.588c-.42.014-.755.352-.775.771-.014.441.33.81.77.827h.06c.444-.014.789-.386.77-.827-.013-.444-.385-.789-.825-.77z"/>
</svg>
