<svg xmlns="http://www.w3.org/2000/svg" width="40" height="40" viewBox="0 0 40 40">
    <path d="M20 0c11.046 0 20 8.954 20 20s-8.954 20-20 20S0 31.046 0 20 8.954 0 20 0zm.01 8.999c-6.042 0-10.961 4.889-10.964 10.897 0 1.922.505 3.795 1.463 5.447L8.954 30.99l5.812-1.516c1.602.869 3.404 1.326 5.24 1.326h.004c6.043 0 10.96-4.888 10.963-10.896 0-2.913-1.138-5.65-3.208-7.71C25.708 10.142 22.917 8.99 20.01 9zm.003 1.84c2.433 0 4.722.945 6.443 2.658 1.71 1.693 2.672 4 2.665 6.408-.001 4.993-4.09 9.055-9.111 9.055h-.004c-1.631 0-3.231-.434-4.638-1.261l-.333-.196-3.448.898.92-3.342-.216-.342c-.913-1.442-1.396-3.114-1.393-4.821 0-4.993 4.089-9.056 9.115-9.056zm-3.884 4.025c-.28.006-.546.129-.731.339-.251.273-.96.932-.96 2.272 0 1.34.983 2.636 1.119 2.817.137.183 1.932 2.932 4.68 4.112.653.28 1.165.449 1.56.574.658.206 1.254.178 1.729.108.525-.08 1.619-.66 1.846-1.295.23-.636.23-1.181.16-1.295-.067-.113-.25-.181-.524-.318-.274-.136-1.621-.796-1.872-.886-.251-.091-.434-.135-.616.136-.274.367-.564.724-.867 1.066-.16.183-.321.206-.593.07-.275-.136-1.157-.423-2.204-1.351-.6-.55-1.113-1.185-1.525-1.886-.16-.274-.016-.421.12-.557.124-.121.276-.318.412-.477.136-.158.183-.271.275-.454.09-.181.046-.34-.024-.477-.068-.135-.617-1.476-.845-2.021-.22-.532-.448-.46-.615-.468-.174-.007-.35-.01-.525-.01z"/>
</svg>
