<svg xmlns="http://www.w3.org/2000/svg" width="40" height="40" viewBox="0 0 40 40">
    <path d="M20 0c11.046 0 20 8.954 20 20s-8.954 20-20 20S0 31.046 0 20 8.954 0 20 0zm-9.692 9.6l-.06.059c-.091.091-.184.193-.278.304l-.215.267c-.142.18-.257.34-.215.294-1.932 2.786.141 8.12 5.281 13.376l.378.38c5.251 5.252 10.63 7.454 13.438 5.722l.196-.128c.11-.079.4-.298.59-.46l.163-.143.199-.194c1.894-1.983 1.856-4.01-.01-5.877-.371-.372-.757-.675-1.153-.905-1.593-.993-3.3-.703-4.844.84l-.12.123c-.112.116-.203.22-.313.355l-.065.081.022-.014c-.321.296-1.758-.656-3.885-2.724l-.544-.538-.561-.569-.396-.415c-1.647-1.76-2.415-2.973-2.236-3.315l.01-.014.212-.173c.119-.102.22-.196.346-.323 1.546-1.546 1.835-3.253.83-4.865-.215-.375-.518-.76-.894-1.134-1.865-1.866-3.893-1.904-5.876-.01zm4.901.986c.295.293.523.583.687.867.66 1.06.489 2.069-.622 3.18-.171.171-.271.259-.504.443l-.079.073c-1.111 1.206-.072 2.88 2.62 5.65l.68.688.69.68c2.745 2.66 4.364 3.626 5.556 2.526l.074-.08.183-.225c.08-.095.154-.173.26-.28 1.11-1.108 2.118-1.279 3.158-.631.306.178.597.407.887.697 1.293 1.293 1.36 2.429.13 3.797l-.173.186c-.064.064-.14.133-.227.207l-.133.109c-.202.16-.47.36-.466.355-1.924 1.322-6.644-.521-11.483-5.252l-.367-.365c-4.836-4.836-6.796-9.61-5.54-11.711l.097-.15c.065-.089.223-.298.338-.439l.046-.055c.048-.057.095-.11.139-.157l.1-.102c1.438-1.373 2.61-1.351 3.95-.011z"/>
</svg>
