<svg xmlns="http://www.w3.org/2000/svg" width="24" height="24" viewBox="0 0 24 24">
    <path d="M9.45 1.063c.348.152.523.536.422.891l-.034.096-.4.912c.884-.26 1.808-.395 2.75-.395 5.352 0 9.69 4.338 9.69 9.688 0 5.351-4.338 9.689-9.69 9.689-5.35 0-9.687-4.338-9.687-9.689 0-1.975.592-3.863 1.683-5.46.233-.342.7-.43 1.042-.196.342.233.43.7.196 1.042-.921 1.35-1.421 2.943-1.421 4.614 0 4.523 3.666 8.189 8.188 8.189 4.523 0 8.189-3.666 8.189-8.189 0-4.522-3.666-8.188-8.19-8.188-.835 0-1.651.125-2.429.365l.974.518c.366.195.505.649.31 1.015-.178.335-.574.48-.92.351l-.094-.041-2.366-1.258-.024-.015-.023-.012-.019-.012.066.039c-.041-.022-.08-.048-.116-.076l-.033-.028-.038-.037-.036-.04-.032-.04-.026-.04c-.011-.017-.021-.034-.03-.052-.007-.012-.014-.025-.02-.039-.026-.06-.045-.121-.056-.185l-.008-.054-.002-.041-.001-.02v-.037l.004-.053.007-.049c.003-.019.007-.037.012-.056l.005-.019.008-.027.019-.05.008-.019 1.135-2.604c.165-.38.607-.553.987-.388zm7.133 8.63c.266.265.29.682.072.976l-.072.084-4.384 4.384c-.267.266-.683.29-.977.072l-.084-.072-2.534-2.535c-.293-.293-.293-.768 0-1.06.266-.267.683-.291.977-.073l.084.072 2.003 2.004 3.854-3.853c.293-.293.768-.293 1.06 0z"/>
</svg>
