<svg xmlns="http://www.w3.org/2000/svg" width="24" height="24" viewBox="0 0 24 24">
  <g fill="#86888C" transform="translate(1 1)">
    <path d="M10.3281895 11.5295789L10.3281895 13.0406316C10.3281895 13.3720024 10.5968186 13.6406316 10.9281895 13.6406316 11.2595603 13.6406316 11.5281895 13.3720024 11.5281895 13.0406316L11.5281895 11.5295789C11.5281895 11.4910577 11.5507626 11.4563731 11.5847857 11.4399802 11.6008059 11.4344273 11.6169569 11.4281974 11.6332276 11.4212664 13.0201503 10.8304625 14.0273474 9.76695293 14.0273474 8.41273684 14.0273474 6.70075809 12.6405315 5.31357895 10.9281895 5.31357895 9.21639242 5.31357895 7.82808421 6.70116048 7.82808421 8.41273684 7.82808421 8.74410769 8.09671336 9.01273684 8.42808421 9.01273684 8.75945506 9.01273684 9.02808421 8.74410769 9.02808421 8.41273684 9.02808421 7.36404287 9.87899352 6.51357895 10.9281895 6.51357895 11.9777194 6.51357895 12.8273474 7.36342945 12.8273474 8.41273684 12.8273474 9.17998806 12.1645766 9.88492689 11.1827426 10.3087684 10.6743272 10.4941553 10.3281895 10.9788687 10.3281895 11.5295789zM10.9286632 14.8576526C11.0915622 14.8576526 11.2502624 14.8974763 11.3926015 14.9710181 11.4220413 14.9862287 11.4496907 15.0035379 11.4754612 15.0226682L11.5 15.044 11.5273813 15.0581073 11.6133134 15.1239929C11.820527 15.3145341 11.9417158 15.5839792 11.9417158 15.8716526 11.9417158 16.4309802 11.4877616 16.8856526 10.9286632 16.8856526 10.3689765 16.8856526 9.91466316 16.4313393 9.91466316 15.8716526 9.91466316 15.311966 10.3689765 14.8576526 10.9286632 14.8576526z"/>
    <path d="M11,21.6 C16.8542183,21.6 21.6,16.8542183 21.6,11 C21.6,5.14578165 16.8542183,0.4 11,0.4 C5.14578165,0.4 0.4,5.14578165 0.4,11 C0.4,16.8542183 5.14578165,21.6 11,21.6 Z M11,20.4 C5.80852335,20.4 1.6,16.1914766 1.6,11 C1.6,5.80852335 5.80852335,1.6 11,1.6 C16.1914766,1.6 20.4,5.80852335 20.4,11 C20.4,16.1914766 16.1914766,20.4 11,20.4 Z"/>
  </g>
</svg>
