<svg xmlns="http://www.w3.org/2000/svg" width="40" height="40" viewBox="0 0 40 40">
    <path d="M20 0c11.046 0 20 8.954 20 20s-8.954 20-20 20S0 31.046 0 20 8.954 0 20 0zm-5.302 9.803c-1.89-1.888-3.896-1.982-5.906-.18l-.248.232-.096.099c-.064.068-.13.142-.195.22l-.286.357-.046.06c-.103.134-.171.23-.14.197-2.01 2.902.214 8.617 5.75 14.272l.387.39.298.294c5.666 5.546 11.378 7.771 14.223 5.81l.09-.078-.006.008c.01.007.35-.248.588-.45.08-.068.155-.135.225-.201l.153-.152.175-.188c1.8-2.01 1.706-4.016-.183-5.906-.393-.394-.797-.712-1.21-.95-1.65-1.028-3.397-.732-5.01.88-.224.225-.352.37-.58.66-.464.418-2.252-.809-4.956-3.514l-.06-.058-.708-.722-.213-.223c-2.093-2.208-2.997-3.652-2.574-4.112.233-.174.378-.303.598-.524 1.613-1.611 1.909-3.36.871-5.025-.228-.398-.547-.803-.941-1.196zm-5.19.616c1.579-1.42 2.944-1.346 4.433.142.33.33.59.66.78.989.77 1.236.566 2.442-.71 3.718-.19.19-.304.29-.566.497-1.19 1.281.035 3.138 3.186 6.318l.82.815.236.23c2.881 2.795 4.614 3.846 5.777 2.774l.267-.32.093-.105c.06-.066.12-.128.194-.202 1.276-1.276 2.482-1.48 3.702-.72.343.198.674.459 1.004.79 1.488 1.488 1.562 2.853.143 4.433l-.19.202-.165.155-.16.137-.25.197-.269.206-.002-.003-.128.082c-2.35 1.42-7.495-.644-12.726-5.764l-.394-.39-.287-.29c-5.12-5.232-7.184-10.377-5.764-12.727l.083-.131.027-.038c.084-.114.298-.395.427-.547l.158-.178.116-.118zm16.49-1.42c-.187 0-.338.122-.393.289l-.62 1.888-.037.09c-.103.2-.31.328-.54.328H22.425l-.075.007c-.195.036-.342.206-.342.41 0 .135.066.249.165.325l1.614 1.185c.212.154.297.426.217.675l-.607 1.873-.022.071-.008.077c0 .232.187.418.418.418.094 0 .176-.036.245-.09l1.61-1.16.083-.05c.2-.1.443-.084.63.05l1.618 1.17.072.043c.05.024.105.04.165.04.23 0 .418-.187.418-.418 0-.051-.013-.1-.03-.144l-.607-1.88-.022-.094c-.034-.222.057-.449.242-.583l1.602-1.171.06-.05c.073-.074.12-.171.12-.284 0-.227-.182-.41-.406-.415l-2-.004-.097-.008c-.221-.036-.408-.192-.48-.41l-.619-1.883-.028-.07c-.07-.133-.204-.225-.364-.225z"/>
</svg>
