<svg xmlns="http://www.w3.org/2000/svg" width="24" height="24" viewBox="0 0 24 24">
    <path d="M11.997 1.25c7.052 0 10.753 3.7 10.753 10.753 0 7.048-3.7 10.747-10.753 10.747-7.048 0-10.747-3.7-10.747-10.747 0-7.052 3.7-10.753 10.747-10.753zm0 1.5c-6.22 0-9.247 3.03-9.247 9.253 0 6.22 3.028 9.247 9.247 9.247 6.224 0 9.253-3.027 9.253-9.247 0-6.224-3.03-9.253-9.253-9.253zm-1.792 6.445l.084.072 1.742 1.742 1.742-1.742c.293-.292.768-.292 1.061 0 .266.267.29.683.073.977l-.073.084-1.742 1.742 1.742 1.742c.293.293.293.768 0 1.061-.266.266-.683.29-.977.073l-.084-.073-1.742-1.742-1.742 1.742c-.293.293-.768.293-1.06 0-.267-.266-.291-.683-.073-.976l.072-.085 1.742-1.742-1.742-1.742c-.293-.293-.293-.768 0-1.06.267-.267.683-.291.977-.073z"/>
</svg>
