<svg xmlns="http://www.w3.org/2000/svg" width="24" height="24" viewBox="0 0 24 24">
    <path d="M10.154 2.174c1.327-.25 2.692-.231 4.015.064l.368.09c1.098.287 2.137.76 3.073 1.396 1.05.71 1.945 1.606 2.647 2.637.868 1.267 1.433 2.719 1.646 4.26.169 1.204.118 2.428-.157 3.616-.244 1.068-.662 2.083-1.234 3.009-.787 1.281-1.843 2.353-3.09 3.156-1.285.83-2.749 1.358-4.295 1.532l-.01.003c-.995.112-2.001.075-2.984-.113l-.368-.077c-1.15-.263-2.242-.73-3.227-1.372-1.044-.68-1.94-1.54-2.66-2.54-.957-1.332-1.575-2.88-1.79-4.528-.153-1.148-.106-2.315.143-3.45.254-1.156.71-2.254 1.346-3.246.812-1.272 1.892-2.33 3.16-3.114C7.782 2.85 8.94 2.4 10.154 2.174zm3.68 1.565c-1.118-.25-2.272-.266-3.397-.053-1.029.19-2.006.571-2.89 1.119-1.074.664-1.986 1.558-2.674 2.635-.539.84-.925 1.769-1.14 2.747-.21.96-.25 1.946-.121 2.92.183 1.394.705 2.703 1.516 3.83.608.846 1.366 1.574 2.25 2.15.834.544 1.757.938 2.731 1.16.93.215 1.889.268 2.836.162l.365-.05c1.06-.166 2.066-.528 2.978-1.064l.3-.186c1.056-.679 1.948-1.585 2.615-2.67.484-.784.838-1.643 1.044-2.546.232-1.005.276-2.04.133-3.06-.18-1.305-.658-2.532-1.393-3.605-.594-.873-1.35-1.63-2.24-2.23-.881-.6-1.867-1.027-2.914-1.259zM12 10.957c.553 0 1 .478 1 1.066v3.201c0 .588-.447 1.066-1 1.066-.552 0-1-.478-1-1.066v-3.2c0-.589.448-1.067 1-1.067zm0-3.334c.553 0 1 .448 1 1 0 .553-.447 1-1 1-.552 0-1-.447-1-1 0-.552.448-1 1-1z"/>
</svg>
