<svg xmlns="http://www.w3.org/2000/svg" width="24" height="24" viewBox="0 0 24 24">
    <path d="M11.997 1.25c7.052 0 10.753 3.7 10.753 10.752 0 7.049-3.701 10.748-10.753 10.748-7.048 0-10.747-3.7-10.747-10.748C1.25 4.951 4.949 1.25 11.997 1.25zm0 1.5c-6.22 0-9.247 3.029-9.247 9.252 0 6.22 3.027 9.248 9.247 9.248 6.224 0 9.253-3.028 9.253-9.248 0-6.223-3.03-9.252-9.253-9.252zm5.154 4.91c.296.233.37.644.189.961l-.063.093-6.216 7.905c-.277.352-.792.38-1.106.08l-.073-.081-2.472-3.155c-.256-.326-.199-.798.127-1.053.297-.233.713-.206.979.045l.074.082 1.883 2.402 5.625-7.153c.256-.325.728-.382 1.053-.126z"/>
</svg>
