<svg xmlns="http://www.w3.org/2000/svg" width="24" height="24" viewBox="0 0 24 24">
    <path d="M16.479 2c1.535 0 2.788 1.25 2.788 2.788v14.428c0 1.534-1.25 2.784-2.788 2.784H7.617C5.98 22 4.65 20.668 4.65 19.033V4.696c0-.719.28-1.395.788-1.906C5.946 2.28 6.621 2 7.343 2h9.136zm.011 1.164H7.343c-.407 0-.793.16-1.081.448-.288.288-.448.673-.448 1.084v14.337c0 .995.81 1.806 1.806 1.806h8.87V3.164zm1.615 12.39h-.451v4.783c.28-.292.451-.687.451-1.12v-3.663zm-5.703-3.037c1.467 0 2.417 1 2.417 2.55v.905c-.003.285-.235.517-.52.517H8.114c-.285 0-.517-.232-.517-.517v-.904c0-1.55.947-2.551 2.417-2.551h2.388zm-.003 1.032H10.01c-1.204 0-1.384.95-1.384 1.519v.387h5.156v-.387c0-.57-.18-1.52-1.384-1.52zm5.706-3.938h-.451v4.78h.451V9.61zm-6.907-2.62c1.575 0 2.476.9 2.476 2.476 0 1.569-.901 2.47-2.476 2.47-1.57 0-2.471-.901-2.471-2.47 0-1.575.902-2.476 2.47-2.476zm0 1.112c-.95 0-1.358.408-1.358 1.364 0 .95.406 1.358 1.358 1.358.956 0 1.364-.406 1.364-1.358 0-.956-.408-1.364-1.364-1.364zm6.457-4.437l-.001 4.781h.451V4.788c0-.435-.171-.83-.45-1.122z"/>
</svg>
