<svg xmlns="http://www.w3.org/2000/svg" width="40" height="40" viewBox="0 0 40 40">
    <path d="M20 0l.395.002C33.107.14 40 6.917 40 20c0 13.218-7.036 20-20 20S0 33.218 0 20C0 6.917 6.893.14 19.605.002L20 0zm0 1.446l-.387.002C7.688 1.578 1.446 7.725 1.446 20c0 12.407 6.377 18.554 18.554 18.554S38.554 32.407 38.554 20c0-12.275-6.242-18.423-18.167-18.552L20 1.446zm9.335 10.997c.515 0 .929.393.985.887l.007.116.002 4.394-.55.153c-.816.227-1.4.998-1.4 1.891 0 .838.513 1.568 1.25 1.842l.15.049.55.152-.002 5.01c0 .508-.377.938-.875.997l-.117.006H10.667c-.515 0-.93-.393-.986-.888l-.007-.116v-5.009l.55-.152c.815-.227 1.398-.997 1.398-1.89 0-.839-.513-1.568-1.25-1.842l-.15-.049-.551-.152.003-4.396c0-.51.378-.937.876-.996l.117-.007h18.668zm-.508 1.5H11.173l-.003 2.811.146.074c.974.524 1.65 1.51 1.782 2.647l.019.215.005.194c0 1.233-.638 2.34-1.625 2.953l-.178.103-.145.072v3.428h17.653l.002-3.427-.145-.072c-.973-.525-1.649-1.511-1.781-2.647l-.019-.215-.005-.195c0-1.232.64-2.34 1.627-2.953l.178-.103.145-.075-.002-2.81zm-6.148 9.478c.415 0 .75.336.75.75 0 .38-.282.693-.648.743l-.101.007h-6.701c-.415 0-.75-.336-.75-.75 0-.38.282-.694.648-.743l.101-.007h6.702zm1.336-3.995c.414 0 .75.336.75.75 0 .38-.283.693-.649.743l-.101.007h-8.037c-.414 0-.75-.336-.75-.75 0-.38.283-.694.649-.743l.101-.007h8.037zm-1.335-4.002c.414 0 .75.336.75.75 0 .38-.283.693-.649.743l-.101.007h-6.701c-.415 0-.75-.336-.75-.75 0-.38.282-.694.648-.743l.101-.007h6.702z"/>
</svg>
