<svg xmlns="http://www.w3.org/2000/svg" width="40" height="40" viewBox="0 0 40 40">
    <path d="M20 0l.395.002C33.107.14 40 6.917 40 20c0 13.218-7.036 20-20 20S0 33.218 0 20C0 6.917 6.893.14 19.605.002L20 0zm0 1.446l-.387.002C7.688 1.578 1.446 7.725 1.446 20c0 12.407 6.377 18.554 18.554 18.554S38.554 32.407 38.554 20c0-12.275-6.242-18.423-18.167-18.552L20 1.446zm6.58 9.511c2.006 0 3.211 1.108 3.211 3.097v11.854c0 1.99-1.205 3.097-3.21 3.097H13.448c-2.006 0-3.21-1.107-3.21-3.097V14.054c0-1.99 1.204-3.097 3.21-3.097zm0 1.5H13.45c-1.205 0-1.712.466-1.712 1.597v11.854c0 1.132.507 1.597 1.711 1.597H26.58c1.204 0 1.711-.466 1.711-1.597V14.054c0-1.13-.507-1.597-1.71-1.597zM14.507 23.132c.57 0 .9.274.9.86 0 .587-.33.86-.9.86-.571 0-.901-.273-.901-.86 0-.585.33-.86.9-.86zm11.283.025c.414 0 .75.336.75.75 0 .38-.282.694-.648.743l-.102.007h-7.851c-.414 0-.75-.336-.75-.75 0-.38.282-.693.648-.743l.102-.007h7.851zm-11.283-4.036c.57 0 .9.274.9.86 0 .587-.33.86-.9.86-.571 0-.901-.273-.901-.86 0-.586.33-.86.9-.86zm11.283.106c.414 0 .75.335.75.75 0 .38-.282.693-.648.743l-.102.007h-7.851c-.414 0-.75-.336-.75-.75 0-.38.282-.694.648-.744l.102-.006h7.851zm-11.283-4.071c.57 0 .9.273.9.86s-.33.859-.9.859c-.571 0-.901-.272-.901-.859s.33-.86.9-.86zm11.283.14c.414 0 .75.337.75.75 0 .38-.282.694-.648.744l-.102.007h-7.851c-.414 0-.75-.336-.75-.75 0-.38.282-.694.648-.743l.102-.007h7.851z"/>
</svg>
