<svg xmlns="http://www.w3.org/2000/svg" width="24" height="24" viewBox="0 0 24 24">
    <path d="M11.978 2.3c4.027 0 7.303 3.25 7.303 7.244 0 3.756-5.852 11.399-5.91 11.475-.332.43-.83.644-1.315.655l-.055.001c-.524 0-1.021-.242-1.342-.657-.058-.075-5.909-7.718-5.909-11.474C4.75 5.55 7.978 2.3 11.947 2.3h.031zm0 1.5h-.031C8.805 3.8 6.25 6.377 6.25 9.544c0 2.283 3.339 7.649 5.595 10.555.043.056.098.072.138.075l.044-.001c.018-.001.035-.001.051.001.027 0 .055-.008.106-.074 2.258-2.907 5.597-8.273 5.597-10.556 0-3.167-2.604-5.744-5.803-5.744zm.068 2.563c1.784 0 3.235 1.45 3.235 3.233 0 1.785-1.451 3.236-3.235 3.236-1.783 0-3.233-1.45-3.233-3.236 0-1.783 1.45-3.234 3.233-3.234zm0 1.5c-.956 0-1.733.777-1.733 1.733 0 .957.777 1.736 1.733 1.736.957 0 1.735-.779 1.735-1.736 0-.956-.778-1.734-1.735-1.734z"/>
</svg>
