<svg xmlns="http://www.w3.org/2000/svg" width="40" height="40" viewBox="0 0 40 40">
    <g fill="none" fill-rule="evenodd">
        <path fill="#1E1210" d="M20 0c12.667 0 20 6.346 20 20s-7.333 20-20 20S0 33.654 0 20 7.333 0 20 0"/>
        <path fill="#FFF" fill-rule="nonzero" d="M29.335 12.443c.555 0 .992.455.992 1.003l.002 4.394-.55.153c-.816.227-1.4.998-1.4 1.891 0 .894.584 1.665 1.4 1.89l.55.153-.002 5.01c0 .547-.437 1.003-.992 1.003H10.667c-.555 0-.993-.455-.993-1.004v-5.009l.55-.152c.815-.227 1.398-.997 1.398-1.89 0-.895-.583-1.665-1.4-1.89l-.551-.153.003-4.396c0-.548.438-1.003.993-1.003zm-.508 1.5H11.173l-.003 2.811.146.074c1.035.557 1.733 1.635 1.8 2.862l.006.194c0 1.305-.716 2.469-1.803 3.056l-.145.072v3.428h17.653l.002-3.427-.145-.072c-1.034-.558-1.732-1.636-1.8-2.862l-.005-.195c0-1.305.717-2.469 1.805-3.056l.145-.075-.002-2.81zm-6.148 9.478c.415 0 .75.336.75.75 0 .38-.282.693-.648.743l-.101.007h-6.701c-.415 0-.75-.336-.75-.75 0-.38.282-.694.648-.743l.101-.007h6.702zm1.336-3.995c.414 0 .75.336.75.75 0 .38-.283.693-.649.743l-.101.007h-8.037c-.414 0-.75-.336-.75-.75 0-.38.283-.694.649-.743l.101-.007h8.037zm-1.335-4.002c.414 0 .75.336.75.75 0 .38-.283.693-.649.743l-.101.007h-6.701c-.415 0-.75-.336-.75-.75 0-.38.282-.694.648-.743l.101-.007h6.702z"/>
    </g>
</svg>
