<svg xmlns="http://www.w3.org/2000/svg" width="40" height="40" viewBox="0 0 40 40">
    <path d="M20 0c11.046 0 20 8.954 20 20s-8.954 20-20 20S0 31.046 0 20 8.954 0 20 0zm3.266 14.947c-.661 1.382-1.19 2.802-1.51 3.527-.326.734-.804 1.186-1.538 1.262-.9.092-1.673-.546-2.24-1.455-.494-.794-1.473-2.304-1.996-2.812-.493-.476-1.056-1.073-2.227-1.055-.925.015-2.633.463-3.413 3.58-.34 1.358-.473 2.775-.181 4.462.269 1.555.743 2.897 1.065 3.635.108.257.28.523.413.685.38.471 1.013.441 1.279.313.29-.14.623-.478.503-1.247-.058-.372-.227-.917-.322-1.22-.29-.928-.677-2.048-.71-2.845-.044-1.069.385-1.208.67-1.269.48-.103.883.413 1.265 1.06.456.771 1.24 2.138 1.876 3.184.577.943 1.64 1.952 3.347 1.883 1.74-.07 3.023-.72 3.685-2.767.494-1.53.83-2.675 1.373-3.846.625-1.346 1.457-2.067 2.157-1.848.65.205.812.827.82 1.743.007.808-.09 1.7-.162 2.354-.028.24-.077.717-.057.983.039.522.27 1.045.87 1.128.64.09 1.156-.412 1.359-1.018.082-.238.15-.603.189-.862.187-1.308.236-2.188.152-3.525-.1-1.563-.412-2.99-.96-4.225-.521-1.18-1.36-1.936-2.435-2.004-1.19-.074-2.555.7-3.272 2.2z"/>
</svg>
