<svg xmlns="http://www.w3.org/2000/svg" width="64" height="64" viewBox="0 0 64 64">
    <path d="M32 3c17.733 0 28 8.923 28 28.125C60 50.327 49.733 59.25 32 59.25S4 50.327 4 31.125C4 11.923 14.267 3 32 3zm5.543 11.71H26.458c-3.451 0-5.458 1.935-5.458 5.46V42.08c0 3.525 2.007 5.46 5.458 5.46h11.085c3.45 0 5.457-1.935 5.457-5.46V20.17c0-3.524-2.007-5.459-5.457-5.459zm0 2c2.362 0 3.457 1.056 3.457 3.46V42.08c0 2.404-1.095 3.46-3.457 3.46H26.458c-2.363 0-3.458-1.056-3.458-3.46V20.17c0-2.403 1.095-3.459 3.458-3.459h11.085zm-5.56 21.775c-.91 0-1.5.473-1.5 1.49 0 .489.136.85.378 1.096.262.266.648.393 1.121.393s.858-.127 1.121-.393c.242-.245.38-.607.38-1.096 0-1.017-.592-1.49-1.5-1.49z"/>
</svg>
