<svg xmlns="http://www.w3.org/2000/svg" width="40" height="40" viewBox="0 0 40 40">
    <path d="M20 0c11.046 0 20 8.954 20 20s-8.954 20-20 20S0 31.046 0 20 8.954 0 20 0zm-.397 10.407c-.25-.246-.648-.28-.937-.063-.318.239-.382.69-.143 1.007l6.429 8.56-6.43 8.562-.057.09c-.167.307-.088.7.2.916.318.239.77.175 1.008-.143l6.541-8.71.076.005h6.3l.098-.006c.35-.048.621-.349.621-.713 0-.397-.322-.719-.719-.719h-6.3l-.076.005-6.541-8.71zm-6.287.019c-.25-.246-.648-.279-.936-.062-.317.24-.38.69-.142 1.007l5.894 7.818-10.713.004-.098.007c-.35.047-.621.348-.621.712 0 .397.322.72.72.72l10.719-.005-5.895 7.84-.058.089c-.167.308-.088.7.2.917.318.239.768.175 1.007-.142l6.759-8.986c.188-.255.196-.605 0-.865l-6.765-8.974z"/>
</svg>
