<svg xmlns="http://www.w3.org/2000/svg" width="24" height="24" viewBox="0 0 24 24">
    <path d="M4.68 16.876l1.277-2.815c.243-.536.373-1.129.374-1.717l.006-2.871c0-3.128 2.545-5.673 5.673-5.673s5.673 2.545 5.673 5.672l-.003 2.864c0 .598.124 1.179.371 1.727l1.277 2.813H4.68zm7.33 3.424c-1.338 0-2.534-.776-3.13-1.924h6.261c-.594 1.15-1.786 1.924-3.13 1.924zm8.872-3.623l-1.464-3.232c-.159-.351-.239-.723-.238-1.106l.003-2.866c0-3.955-3.218-7.173-7.173-7.173S4.838 5.517 4.837 9.471l-.006 2.869c0 .377-.084.757-.239 1.1l-1.434 3.166c-.21.363-.21.815-.002 1.179.21.364.6.591 1.021.591H7.26C7.944 20.385 9.85 21.8 12.01 21.8c2.17 0 4.07-1.411 4.753-3.424h3.066c.42 0 .81-.226 1.02-.588.21-.363.21-.813.033-1.111z"/>
</svg>
