<svg xmlns="http://www.w3.org/2000/svg" width="40" height="40" viewBox="0 0 40 40">
    <path d="M20 0c11.046 0 20 8.954 20 20s-8.954 20-20 20S0 31.046 0 20 8.954 0 20 0zm.559 9.42c-.277-.28-.725-.32-1.05-.077-.353.265-.424.767-.158 1.12l7.155 9.526-7.155 9.528-.06.09c-.192.345-.105.786.219 1.03.353.265.854.194 1.12-.16l7.28-9.693.084.006h7.011l.1-.006c.395-.05.7-.386.7-.794 0-.442-.358-.8-.8-.8h-7.01l-.085.005-7.28-9.693zm-6.994.021c-.278-.28-.726-.319-1.05-.075-.352.266-.423.768-.157 1.12l6.558 8.7-11.922.004-.1.006c-.395.05-.7.387-.7.794 0 .442.359.8.8.8l11.93-.005-6.56 8.724-.059.091c-.192.344-.106.786.218 1.03.353.265.855.194 1.12-.159l7.521-10 .06-.091.02-.04.024-.053c.007-.018.014-.037.019-.056l.013-.044c.006-.02.01-.04.012-.06l.007-.043c.003-.025.005-.05.005-.076V19.94l-.004-.034-.003-.024c-.003-.025-.008-.05-.014-.073l-.012-.05-.019-.053-.02-.049c-.008-.017-.016-.034-.026-.05l-.03-.05.015.023-.026-.041-.029-.04-7.52-9.975z"/>
</svg>
