<svg xmlns="http://www.w3.org/2000/svg" width="40" height="40" viewBox="0 0 40 40">
    <path d="M20 0c11.046 0 20 8.954 20 20s-8.954 20-20 20S0 31.046 0 20 8.954 0 20 0zm-.002 7.25c-3.988 0-7.137 1.06-9.331 3.171-2.275 2.194-3.417 5.433-3.417 9.583s1.14 7.385 3.413 9.578c2.191 2.11 5.343 3.168 9.335 3.168 3.997 0 7.15-1.059 9.335-3.172 2.275-2.189 3.417-5.427 3.417-9.578 0-4.153-1.14-7.39-3.418-9.582-2.19-2.11-5.341-3.168-9.334-3.168zM9.735 25.586h3.725c.563 1.88 1.45 3.46 2.662 4.723.224.234.46.456.706.666-2.12-.399-3.831-1.229-5.124-2.473-.829-.8-1.486-1.772-1.969-2.916zm20.527 0c-.483 1.143-1.141 2.115-1.97 2.912-1.266 1.224-2.939 2.047-5.005 2.454.243-.208.476-.429.698-.66 1.21-1.255 2.099-2.83 2.664-4.705zm-9.499 0l4.31.001c-.498 1.46-1.224 2.685-2.169 3.665-.618.644-1.331 1.184-2.14 1.62l-.001-5.286zm-1.5 0v5.261c-.774-.428-1.461-.954-2.06-1.577-.946-.986-1.67-2.216-2.169-3.683l4.229-.001zM12.972 16.6c-.166 1.06-.25 2.196-.25 3.403 0 1.47.123 2.833.369 4.084H9.229c-.318-1.211-.479-2.573-.479-4.083 0-1.234.108-2.37.32-3.404zm12.644 0c.181 1.047.272 2.187.272 3.416 0 1.49-.134 2.848-.4 4.071l-4.725-.001V16.6zm5.315 0c.212 1.033.319 2.167.319 3.4 0 1.511-.161 2.875-.48 4.087h-3.75c.245-1.247.368-2.606.368-4.07 0-1.213-.084-2.353-.252-3.417zm-16.44 0h4.772v7.486h-4.641c-.265-1.226-.4-2.588-.4-4.083 0-1.223.09-2.358.27-3.403zm4.772-7.442V15.1h-4.438c.495-1.773 1.293-3.231 2.382-4.366.598-.623 1.283-1.148 2.056-1.576zm1.5.002c.807.434 1.521.974 2.141 1.617 1.085 1.124 1.88 2.568 2.375 4.323h-4.516zm-3.926-.138c-.248.212-.485.437-.712.673-1.354 1.41-2.305 3.222-2.85 5.404H9.476c.495-1.443 1.241-2.644 2.23-3.597 1.235-1.189 2.85-2 4.833-2.419zm6.402.016c2.086.404 3.774 1.23 5.053 2.46.991.955 1.738 2.157 2.233 3.601H26.83c-.547-2.165-1.496-3.962-2.847-5.363-.171-.178-.349-.349-.532-.513z"/>
</svg>
