<svg xmlns="http://www.w3.org/2000/svg" width="40" height="40" viewBox="0 0 40 40">
    <path d="M20 0c11.046 0 20 8.954 20 20s-8.954 20-20 20S0 31.046 0 20 8.954 0 20 0zm.503 16.245h-.986l-.17.005c-1.512.088-2.711 1.342-2.711 2.876v6.748l.004.17c.088 1.512 1.342 2.711 2.877 2.711h.986l.169-.005c1.512-.087 2.71-1.341 2.71-2.876v-6.748l-.004-.17c-.088-1.512-1.341-2.71-2.875-2.71zm9.385-4.996h-.755l-.17.005c-1.512.088-2.711 1.342-2.711 2.876v11.74l.005.17c.087 1.512 1.341 2.711 2.876 2.711h.755l.17-.005c1.511-.088 2.71-1.342 2.71-2.876V14.13l-.004-.17c-.088-1.512-1.342-2.711-2.876-2.711zm-18.935 10.01h-.9l-.17.005c-1.467.088-2.628 1.305-2.628 2.794v1.885l.005.17c.088 1.466 1.305 2.628 2.793 2.628h.9l.17-.005c1.467-.088 2.629-1.305 2.629-2.793v-1.885l-.005-.17c-.089-1.467-1.305-2.63-2.794-2.63zm9.55-3.514c.762 0 1.38.618 1.38 1.381v6.748l-.007.133c-.067.7-.656 1.248-1.373 1.248h-.986l-.133-.006c-.7-.067-1.248-.657-1.248-1.375v-6.748l.006-.133c.067-.7.657-1.248 1.375-1.248zm9.385-4.996c.763 0 1.38.618 1.38 1.381v11.74l-.006.133c-.066.7-.656 1.248-1.374 1.248h-.755L29 27.245c-.7-.067-1.248-.657-1.248-1.375V14.13l.006-.133c.067-.7.657-1.248 1.375-1.248zm-18.935 10.01c.717 0 1.299.581 1.299 1.299v1.885l-.007.133c-.066.654-.62 1.165-1.292 1.165h-.9l-.133-.007c-.654-.066-1.165-.62-1.165-1.291v-1.885l.006-.133c.067-.655.62-1.166 1.292-1.166z"/>
</svg>
