<svg width="24" height="24" viewBox="0 0 24 24" fill="none" xmlns="http://www.w3.org/2000/svg">
<path fill-rule="evenodd" clip-rule="evenodd" d="M21.8425 5.05541C21.8425 4.00499 20.9966 3.21787 19.3271 2.71647C18.1338 2.35513 16.5652 2.15625 14.9098 2.15625C13.2571 2.15625 11.6913 2.35513 10.4952 2.71928C9.10583 3.13664 8.2823 3.76129 8.04981 4.57082L8.04701 4.57362C8.00219 4.72768 7.97978 4.89014 7.97978 5.05541V7.75289H7.83132C6.62964 7.76409 2.15625 8.17586 2.15625 13.7417C2.15625 19.3131 6.66885 19.7501 7.87614 19.7669H8.19266C8.54 20.4224 9.2907 20.921 10.4952 21.2851C11.6997 21.6436 13.2655 21.8425 14.9098 21.8425C16.5568 21.8425 18.1254 21.6436 19.3299 21.2823C20.9966 20.7809 21.8425 19.9938 21.8425 18.9434V5.05541ZM10.7305 3.50079C9.66045 3.82292 9.01339 4.25989 8.84813 4.76689C8.84917 4.76898 8.8506 4.77107 8.85213 4.7733C8.85471 4.77706 8.85757 4.78123 8.85933 4.7865C9.0246 5.2879 9.67726 5.72208 10.7417 6.04421C11.8621 6.38034 13.3467 6.56801 14.921 6.56801C16.4952 6.56801 17.9798 6.38034 19.1002 6.04421C20.1366 5.73048 20.7837 5.31031 20.9686 4.82292C20.9703 4.81785 20.974 4.8138 20.9779 4.80954C20.9805 4.80674 20.9832 4.80384 20.9854 4.80051C20.8341 4.2711 20.2011 3.83412 19.0918 3.50079C17.9714 3.16465 16.4868 2.97698 14.9098 2.97698C13.3355 2.97698 11.8509 3.16465 10.7305 3.50079ZM8.06381 18.9462H7.88734C6.41115 18.9238 2.97698 18.3747 2.97978 13.7417C2.97978 9.11703 6.38034 8.59042 7.84252 8.57642H7.94617C8.09463 8.57642 8.24869 8.57922 8.38034 8.58202C9.86493 8.61563 13.3215 9.19547 13.3215 13.7781C13.3215 14.9686 12.9658 18.8593 8.40835 18.9434C8.30471 18.9462 8.18426 18.9462 8.06381 18.9462ZM8.55681 16.7473C8.55681 16.9742 8.37194 17.1562 8.14785 17.1562C7.92376 17.1562 7.73888 16.9714 7.73888 16.7473V14.1562H5.16465C4.93776 14.1562 4.75289 13.9714 4.75289 13.7445C4.75289 13.5176 4.93776 13.3327 5.16465 13.3327H7.73888V10.7753C7.73888 10.5484 7.92376 10.3663 8.14785 10.3663C8.37194 10.3663 8.55681 10.5512 8.55681 10.7753V13.3327H11.1366C11.3635 13.3327 11.5484 13.5176 11.5484 13.7445C11.5484 13.9714 11.3635 14.1562 11.1366 14.1562H8.55681V16.7473ZM19.0918 20.4952C20.3719 20.1086 21.0218 19.5876 21.0218 18.9434V15.6885C20.582 16.0246 20.0134 16.3103 19.3383 16.5148C18.1422 16.8761 16.5736 17.0722 14.9238 17.0722C14.4224 17.0722 13.9182 17.0526 13.4224 17.0162C12.3579 18.991 10.3747 19.5512 9.17026 19.7053C9.48958 20.0106 10.0162 20.2795 10.7333 20.4952C11.8621 20.8313 13.3467 21.019 14.9126 21.019C16.4784 21.0218 17.963 20.8341 19.0918 20.4952ZM14.1422 13.7753C14.1422 13.1871 14.0806 12.6689 13.9854 12.1899C14.2879 12.2123 14.638 12.2207 14.9238 12.2179C16.5736 12.2179 18.1394 12.0218 19.3383 11.6605C20.0134 11.456 20.5848 11.1703 21.0218 10.8341V14.4924C20.8145 14.8789 20.2123 15.3943 19.103 15.7277C17.7025 16.1478 15.7025 16.3299 13.7641 16.2123C13.9966 15.5344 14.1422 14.7361 14.1422 13.7753ZM8.80051 6.00779V7.7809C10.0694 7.88734 12.7725 8.46437 13.7641 11.3439C13.7646 11.3439 13.7653 11.3438 13.766 11.3437C13.7664 11.3436 13.7668 11.3435 13.7673 11.3434C13.77 11.3427 13.7733 11.342 13.7753 11.3439C13.9882 11.3803 14.3943 11.3999 14.9238 11.3999C16.4952 11.3999 17.9798 11.2123 19.103 10.8761C20.2151 10.54 20.8145 10.0274 21.0218 9.64084V6.0246C20.61 6.34673 20.0498 6.61843 19.3355 6.83412C18.1422 7.19547 16.5736 7.39154 14.921 7.39154C13.2683 7.39154 11.6997 7.19266 10.5064 6.83412C9.7809 6.61283 9.21507 6.33832 8.80051 6.00779Z" fill="#313235"/>
</svg>
