<svg width="24" height="24" viewBox="0 0 24 24" fill="none" xmlns="http://www.w3.org/2000/svg">
<path d="M16.852 7.68501L16.8908 17.0409C16.8602 17.2968 17.0453 17.5302 17.3012 17.5608C17.4139 17.5737 17.5298 17.5447 17.6232 17.4803C17.7761 17.3757 17.8534 17.1921 17.8244 17.0119L17.76 6.56456C17.7648 6.5372 17.76 6.50983 17.7471 6.48408C17.731 6.46476 17.7133 6.44705 17.694 6.43096C17.6473 6.31667 17.5555 6.22492 17.4413 6.17824C17.4252 6.15893 17.4075 6.14122 17.3881 6.12512C17.3608 6.11386 17.3318 6.10742 17.3012 6.10581L7.0487 6.08818C6.9167 6.08175 6.78631 6.13166 6.69454 6.22986C6.51102 6.40373 6.50295 6.69509 6.67679 6.87859C6.76532 6.97356 6.88927 7.02346 7.01966 7.02184L16.1888 7.02184L6.28172 16.9289C6.09819 17.1125 6.09656 17.4103 6.28006 17.5938C6.46195 17.7756 6.76137 17.7756 6.94489 17.5921L16.852 7.68501Z" fill="#313235"/>
</svg>
