<svg width="24" height="24" viewBox="0 0 24 24" fill="none" xmlns="http://www.w3.org/2000/svg">
<path fill-rule="evenodd" clip-rule="evenodd" d="M11.4544 21.7469C11.5665 21.7917 11.6841 21.8141 11.8046 21.8141C12.1183 21.8141 12.446 21.6657 12.7065 21.3912L21.6813 12.4612C21.8158 12.3324 21.8858 12.1895 21.8858 12.0354C21.8886 11.8618 21.8018 11.6909 21.6225 11.5172L12.7177 2.55924C12.3508 2.18389 11.9166 2.06344 11.5329 2.22871C11.1239 2.40238 10.8634 2.87017 10.8802 3.39398L10.9026 6.91218C10.9026 6.99342 10.8242 7.05784 10.7289 7.05784L3.82698 7.05504H3.82138C3.26676 7.06344 2.86339 7.2091 2.58328 7.49762C2.28076 7.81134 2.14631 8.26232 2.15751 8.92339V15.1419C2.14071 15.7161 2.29197 16.1839 2.59729 16.4948C2.89141 16.7945 3.30317 16.943 3.82698 16.9346H10.7261C10.8214 16.9346 10.8998 16.999 10.8998 17.0803L10.9054 20.859C10.8998 21.2735 11.1043 21.6041 11.4544 21.7469ZM10.7261 16.3436H3.82418C3.8231 16.3436 3.82243 16.3436 3.82202 16.3439C3.82138 16.3444 3.82138 16.3457 3.82138 16.3492C3.46564 16.3548 3.19673 16.2651 3.02026 16.0859C2.77936 15.8394 2.74015 15.4472 2.74855 15.1615V8.91779C2.74015 8.43039 2.82418 8.09986 3.00905 7.90938C3.17432 7.73851 3.44323 7.65168 3.82978 7.64608L10.7289 7.64888C11.1491 7.64888 11.4908 7.31835 11.4908 6.91218L11.4684 3.38837V3.37997C11.4572 3.10546 11.5805 2.85056 11.7626 2.77213C11.9642 2.68529 12.1827 2.86176 12.2948 2.97661L21.2023 11.9374L21.2051 11.9402C21.2471 11.9794 21.2696 12.0102 21.2808 12.027C21.278 12.0298 21.2752 12.0354 21.2696 12.0382L21.264 12.0438L12.2892 20.9794C12.2874 20.9794 12.2868 20.9805 12.2859 20.982C12.2853 20.9829 12.2846 20.9839 12.2836 20.985C12.0483 21.2343 11.8102 21.2567 11.6757 21.2035C11.5553 21.1559 11.4908 21.0354 11.4936 20.8674V20.8618L11.488 17.0802C11.488 16.6741 11.1463 16.3436 10.7261 16.3436Z" fill="#313235"/>
</svg>
