<svg width="24" height="24" viewBox="0 0 24 24" fill="none" xmlns="http://www.w3.org/2000/svg">
<path fill-rule="evenodd" clip-rule="evenodd" d="M7.20597 2.15625H16.9091C17.6261 2.15625 18.2088 2.73328 18.2144 3.43636V20.5512C18.2144 21.0442 17.9371 21.4868 17.4889 21.7053C17.3012 21.7949 17.1051 21.8397 16.9091 21.8397C16.6289 21.8397 16.3516 21.7501 16.1191 21.5736L12.388 17.9013C12.2144 17.7305 11.9259 17.7305 11.7438 17.9069L8.0407 21.54C7.60373 21.8761 7.07992 21.9266 6.63174 21.7081C6.18356 21.4896 5.90625 21.047 5.90625 20.554V3.43916C5.90625 2.73328 6.48888 2.15625 7.20597 2.15625ZM17.1051 20.9546C17.2648 20.8761 17.36 20.7277 17.36 20.554H17.3628V3.44196C17.3628 3.19547 17.1612 2.99659 16.9119 2.99659H7.20877C6.95947 2.99659 6.75779 3.19547 6.75779 3.44196V20.5568C6.75779 20.7305 6.85023 20.8789 7.00989 20.9574C7.16675 21.033 7.34322 21.0162 7.48328 20.9126L11.1471 17.3103C11.402 17.061 11.7382 16.9378 12.0687 16.9378C12.4048 16.9378 12.7354 17.0638 12.9875 17.3103L16.6738 20.9462C16.769 21.0134 16.9483 21.033 17.1051 20.9546Z" fill="#313235"/>
</svg>
