<svg width="24" height="24" viewBox="0 0 24 24" fill="none" xmlns="http://www.w3.org/2000/svg">
<path fill-rule="evenodd" clip-rule="evenodd" d="M17.2813 9.61651C17.9536 9.70334 20.0404 10.1291 21.2141 12.0395C22.6429 14.3681 21.1997 15.5368 21.1092 15.6102C21.1067 15.6122 21.1052 15.6133 21.1048 15.6137C21.0348 15.6641 20.9508 15.6921 20.864 15.6921H18.0768C17.9144 16.9442 17.0292 17.7061 15.6707 17.7061C14.3121 17.7061 13.4242 16.9442 13.2645 15.6921H9.45219C9.28692 16.9386 8.40177 17.6977 7.04603 17.6977C5.69028 17.6977 4.80513 16.9386 4.63986 15.6921H2.7295C2.53902 15.6921 2.37376 15.5633 2.32894 15.3784C2.31773 15.3364 2.09084 14.3784 2.17488 12.9274C2.16647 11.8938 2.84154 10.0647 4.34294 8.56049C5.40737 7.49046 7.25891 6.21875 10.0292 6.21875C14.5838 6.21875 16.7687 8.88822 17.2813 9.61651ZM18.074 14.8686H20.7015C20.9088 14.6389 21.3822 13.8938 20.5082 12.468C19.3748 10.6221 17.1227 10.4243 17.0187 10.4151L17.0152 10.4148C16.8808 10.4064 16.7575 10.3308 16.6875 10.2159C16.6091 10.0871 14.7043 7.03948 10.0264 7.03948C7.54182 7.03948 5.88356 8.18234 4.92838 9.14032C3.65107 10.4176 2.99 12.0227 2.99841 12.947C2.95639 13.5885 2.9816 14.2328 3.07124 14.8686H4.63986C4.79392 13.6081 5.68188 12.8378 7.04603 12.8378C8.41017 12.8378 9.29813 13.6081 9.45219 14.8686H13.2617C13.4186 13.6137 14.3065 12.8462 15.6679 12.8462C17.032 12.8462 17.9172 13.6137 18.074 14.8686ZM14.0544 15.2748C14.0544 16.3252 14.6119 16.8826 15.6679 16.8826C16.7239 16.8826 17.2813 16.3252 17.2813 15.2748C17.2813 14.2244 16.7239 13.6669 15.6679 13.6669C14.6119 13.6669 14.0544 14.2244 14.0544 15.2748ZM7.04603 16.8742C5.99 16.8742 5.42978 16.3196 5.42978 15.2664C5.42978 14.2159 5.99 13.6585 7.04603 13.6585C8.10205 13.6585 8.65947 14.2159 8.65947 15.2664C8.65947 16.3196 8.10205 16.8742 7.04603 16.8742Z" fill="#313235"/>
</svg>
