<svg width="24" height="24" viewBox="0 0 24 24" fill="none" xmlns="http://www.w3.org/2000/svg">
<path fill-rule="evenodd" clip-rule="evenodd" d="M17.9264 3.61942C18.6827 3.61942 19.3718 4.16003 19.3718 4.75107V20.7147C19.3718 21.3281 18.7107 21.8463 17.9292 21.8463H6.05244C5.27093 21.8463 4.60986 21.3281 4.60986 20.7147V4.75107C4.60986 4.16003 5.29894 3.61942 6.05244 3.61942H9.2037C9.62107 2.67264 10.5791 2.16003 11.988 2.16003C13.7051 2.16003 14.4502 2.89953 14.7695 3.61942H17.9264ZM9.77513 4.75107C9.83115 3.52978 10.5342 2.96115 11.988 2.96115C13.1589 2.96115 13.848 3.34211 14.1001 4.12362C14.1673 4.35051 14.2037 4.583 14.2093 4.8183V4.94995C14.1981 5.29449 14.1813 5.76788 11.9908 5.76788C9.80034 5.76788 9.78353 5.29729 9.76953 4.90513L9.77513 4.75107ZM18.5594 4.75107V20.7147C18.5594 20.8239 18.2849 21.0452 17.9264 21.0452H6.04964C5.6939 21.0452 5.41939 20.8267 5.41939 20.7147V4.75107C5.41939 4.67264 5.67989 4.42054 6.04964 4.42054H8.99922C8.99546 4.44534 8.9913 4.46954 8.98717 4.49357C8.9759 4.55908 8.96485 4.62332 8.9628 4.69505L8.9572 4.78749V4.98076C9.00482 6.30009 10.2037 6.5718 11.988 6.5718C13.7751 6.5718 14.974 6.30009 15.0188 4.99757L15.0216 4.90513L15.016 4.71466C15.014 4.64288 15.0049 4.57395 14.9958 4.50482L14.9958 4.50472C14.9921 4.47675 14.9884 4.44876 14.9852 4.42054H17.9292C18.2961 4.42054 18.5594 4.66984 18.5594 4.75107ZM10.6799 4.69225C10.6827 4.91634 10.8648 5.09281 11.0861 5.09281H12.8872C13.1113 5.09281 13.2933 4.91354 13.2933 4.69225C13.2933 4.47096 13.1113 4.29169 12.8872 4.29169H11.0861C10.862 4.29169 10.6799 4.47096 10.6799 4.69225Z" fill="#313235"/>
</svg>
