<svg width="24" height="24" viewBox="0 0 24 24" fill="none" xmlns="http://www.w3.org/2000/svg">
<path fill-rule="evenodd" clip-rule="evenodd" d="M21.5977 13.1264V9.31734C21.6005 9.28988 21.6005 9.25967 21.595 9.22946V6.71938C21.595 6.39258 21.4604 6.08225 21.227 5.85431C20.9936 5.62637 20.6777 5.4973 20.3509 5.50004H3.53837C2.86004 5.4973 2.30804 6.04106 2.2998 6.71938V17.9543C2.30804 18.6299 2.85455 19.1737 3.53013 19.1737H20.3509C20.6832 19.1737 20.9991 19.0446 21.2352 18.8139C21.4687 18.5805 21.6005 18.2646 21.5977 17.9378V13.2143C21.6005 13.1841 21.6005 13.1566 21.5977 13.1264ZM3.10446 12.7364V9.72378H20.7958V12.7364H3.10446ZM3.53837 6.30744C3.42302 6.3047 3.31317 6.34864 3.23079 6.42828C3.1484 6.50792 3.10171 6.61502 3.10171 6.73037V8.93012H20.7794V6.73037C20.7794 6.49693 20.5871 6.30744 20.3537 6.30744H3.53837ZM20.6668 18.2509C20.5816 18.3306 20.469 18.3745 20.3537 18.369H3.54111C3.42577 18.3717 3.31592 18.3278 3.23353 18.2482C3.15114 18.1685 3.10446 18.0587 3.10446 17.9461V13.5328H20.7958V17.9461C20.7958 18.0614 20.7492 18.1713 20.6668 18.2509Z" fill="#313235"/>
</svg>
