<svg width="24" height="24" viewBox="0 0 24 24" fill="none" xmlns="http://www.w3.org/2000/svg">
<path fill-rule="evenodd" clip-rule="evenodd" d="M21.8303 13.19C21.8294 13.1963 21.8285 13.2027 21.8285 13.2095C21.8313 13.2347 21.8369 13.2627 21.8425 13.2851V20.5848C21.8425 21.2795 21.2795 21.8425 20.5904 21.8425H3.41115C2.71928 21.8425 2.15625 21.2795 2.15625 20.5848V13.2851C2.15625 13.2616 2.15928 13.238 2.1623 13.2145C2.16432 13.1988 2.16633 13.1831 2.16745 13.1675C2.16745 13.158 2.16627 13.1485 2.16509 13.1391C2.16312 13.1233 2.16115 13.1076 2.16465 13.0918L3.80331 3.34393C3.79771 2.71928 4.36073 2.15625 5.04981 2.15625L18.949 2.17306C19.6044 2.17306 20.1534 2.67166 20.2851 3.38874L21.8145 13.0358V13.0386V13.047L21.8313 13.1619C21.833 13.1718 21.8317 13.1808 21.8303 13.19ZM4.61283 3.41115C4.61283 3.17306 4.80611 2.97698 5.04421 2.97698L18.9434 2.99379C19.1955 2.99379 19.4168 3.21787 19.47 3.526L20.8257 12.0778C20.8054 12.0736 20.7853 12.0689 20.7651 12.0642C20.7047 12.05 20.6443 12.0358 20.5792 12.0358H14.2627C14.0358 12.0358 13.8537 12.2179 13.8537 12.4476V13.3355C13.8537 14.3047 13.0638 15.0946 12.0918 15.0946H11.8957C10.9238 15.0946 10.1338 14.3047 10.1338 13.3355V12.4476C10.1338 12.2207 9.94897 12.0358 9.72488 12.0358H3.40555C3.32152 12.0358 3.24308 12.0442 3.16465 12.061L4.61283 3.41115ZM21.0162 20.5848C21.0162 20.8257 20.8229 21.0218 20.582 21.0218H3.40555C3.17026 21.0218 2.97138 20.8229 2.97138 20.5848V13.2851C2.97138 13.0526 3.17026 12.8565 3.40555 12.8565H9.31591V13.3327C9.31591 14.7557 10.4728 15.9126 11.8957 15.9126H12.0918C13.5148 15.9126 14.6745 14.7557 14.6745 13.3327V12.8565H20.5848C20.7893 12.8565 20.963 12.9966 21.005 13.1815L21.0106 13.2151C21.0115 13.2222 21.0126 13.2292 21.0138 13.2364C21.0164 13.2519 21.019 13.2679 21.019 13.2851V20.5848H21.0162Z" fill="#313235"/>
</svg>
