<svg width="24" height="24" viewBox="0 0 24 24" fill="none" xmlns="http://www.w3.org/2000/svg">
<path fill-rule="evenodd" clip-rule="evenodd" d="M20.2062 13.7983C20.2062 16.3053 19.2398 18.2661 17.4135 19.5238C17.66 19.7507 17.8169 20.0756 17.8169 20.437C17.8169 21.1261 17.2566 21.6863 16.5676 21.6863H7.46952C6.78044 21.6863 6.22022 21.1261 6.22022 20.437C6.22022 20.0672 6.38548 19.7395 6.64038 19.5098C5.22862 18.5406 3.80005 16.8151 3.80005 13.7983C3.80005 10.1961 6.04935 8.02801 8.79165 7.10644V3.94398C8.79165 2.87115 9.6656 2 10.7356 2H12.9177C13.9905 2 14.8617 2.87115 14.8617 3.94398V6.98039C18.2146 7.93837 20.2062 10.4622 20.2062 13.7983ZM9.61237 6.86835V3.94398C9.61237 3.32493 10.1166 2.81793 10.7356 2.81793H12.9177C13.5395 2.81793 14.0437 3.32213 14.0437 3.94398V6.79832C13.3827 6.66947 12.702 6.58543 12.0017 6.58543C11.2062 6.58543 10.3967 6.68067 9.61237 6.86835ZM16.4079 19.1877C18.3575 18.1176 19.3883 16.2577 19.3883 13.7983C19.3883 9.41176 15.8589 8.06162 14.3407 7.68627C13.5928 7.5014 12.8085 7.40616 12.0017 7.40616C11.1194 7.40616 10.223 7.52941 9.37148 7.78151C9.36447 7.78431 9.35677 7.78641 9.34907 7.78852C9.34137 7.79062 9.33366 7.79272 9.32666 7.79552C6.76083 8.56863 4.62078 10.5154 4.62078 13.7983C4.62078 16.2213 5.6712 18.0784 7.65719 19.1737C7.66279 19.1793 7.6684 19.1849 7.674 19.1877H16.4079ZM16.5704 20.8683C16.8057 20.8683 16.9989 20.6751 16.9989 20.437C16.9989 20.1989 16.8057 20.0084 16.5704 20.0084H7.46952C7.23142 20.0084 7.04095 20.2017 7.04095 20.437C7.04095 20.6751 7.23422 20.8683 7.46952 20.8683H16.5704ZM15.111 12.437V15.3417C15.111 15.8599 14.6908 16.2801 14.1754 16.2801H9.58156C9.06615 16.2801 8.64599 15.8599 8.64599 15.3417V12.437C8.64599 11.9216 9.06615 11.5014 9.58156 11.5014H14.1754C14.6908 11.5014 15.111 11.9216 15.111 12.437ZM14.1754 10.6807C15.1446 10.6807 15.9317 11.4678 15.9317 12.4342V15.3389C15.9317 16.3081 15.1446 17.0952 14.1754 17.0952H9.58156C8.61237 17.0952 7.82526 16.3081 7.82526 15.3389V12.4342C7.82526 11.465 8.61237 10.6807 9.58156 10.6807H14.1754ZM12.5003 5.33894C12.2454 5.33894 12.0353 5.13165 12.0353 4.87395C12.0353 4.61905 12.2454 4.40896 12.5003 4.40896C12.7552 4.40896 12.9653 4.61625 12.9653 4.87395C12.9653 5.12885 12.758 5.33894 12.5003 5.33894ZM13.786 4.87395C13.786 5.58263 13.209 6.15966 12.5003 6.15966C11.7916 6.15966 11.2174 5.58263 11.2174 4.87395C11.2174 4.16527 11.7944 3.58824 12.5003 3.58824C13.2118 3.59104 13.786 4.16527 13.786 4.87395ZM16.0073 4.21849C16.0858 4.29972 16.1922 4.33894 16.2958 4.33894C16.4023 4.33894 16.5059 4.29972 16.5872 4.21849L17.4051 3.40056C17.5648 3.2409 17.5648 2.98039 17.4051 2.82073C17.2426 2.66106 16.9849 2.66106 16.8253 2.82073L16.0073 3.63866C15.8477 3.79832 15.8477 4.05882 16.0073 4.21849ZM16.209 4.85154C16.209 4.62465 16.3911 4.44258 16.618 4.44258H18.1138C18.3407 4.44258 18.5227 4.62465 18.5227 4.85154C18.5227 5.07843 18.3407 5.2605 18.1138 5.2605H16.618C16.3939 5.2605 16.209 5.07843 16.209 4.85154ZM16.6348 5.52941C16.4751 5.36975 16.2146 5.36975 16.055 5.52941C15.8953 5.68908 15.8953 5.94958 16.0578 6.10924L16.9205 6.97479C16.9989 7.05602 17.1054 7.09524 17.209 7.09524C17.3127 7.09524 17.4163 7.05322 17.4975 6.97479C17.6572 6.81233 17.6572 6.55462 17.4975 6.39496L16.6348 5.52941ZM10.5648 13.437C10.3379 13.437 10.1558 13.2521 10.1558 13.028C10.1558 12.8039 10.3379 12.619 10.5648 12.619H13.1894C13.4163 12.619 13.5984 12.8011 13.5984 13.028C13.5984 13.2549 13.4163 13.437 13.1894 13.437H10.5648ZM14.5872 14.6499C14.5872 14.423 14.4051 14.2409 14.1782 14.2409H9.57876C9.35187 14.2409 9.1698 14.423 9.1698 14.6499C9.1698 14.8768 9.35187 15.0588 9.57876 15.0588H14.1782C14.4051 15.0588 14.5872 14.8768 14.5872 14.6499Z" fill="#313235"/>
</svg>
