<svg width="24" height="24" viewBox="0 0 24 24" fill="none" xmlns="http://www.w3.org/2000/svg">
<path fill-rule="evenodd" clip-rule="evenodd" d="M17.3907 9.73694C17.6204 9.65851 17.8809 9.6193 18.1638 9.6193C19.4215 9.6193 20.2002 10.4092 20.203 11.6837V18.6837C20.203 19.6529 19.9313 20.4288 19.3935 20.9834C18.8529 21.5409 18.0154 21.849 17.0322 21.849H9.24505C8.46354 21.849 8.119 21.1039 7.97334 20.7874C7.8365 20.489 7.36005 19.5222 6.80266 18.3911L6.76326 18.3112C6.69494 18.172 6.62538 18.0304 6.55484 17.8868C5.67669 16.0987 4.64822 14.0046 4.01816 12.6641C3.6176 11.8098 3.77726 10.9218 4.42712 10.4008C4.75486 10.1347 5.15542 10.003 5.55878 10.003C5.99855 10.0059 6.42432 10.1571 6.76606 10.4344C7.13021 10.7257 7.43553 11.1291 7.77446 11.7061L7.77726 4.31958V4.27756C7.8641 2.93022 8.64001 2.15991 9.90612 2.15991C11.2226 2.15991 12.0406 2.98624 12.0406 4.31958V7.22434C12.2479 7.16551 12.4775 7.1347 12.724 7.1347C13.7268 7.1347 14.4271 7.6389 14.668 8.48764C14.9005 8.41201 15.161 8.37 15.4439 8.37C16.4495 8.37 17.1526 8.8798 17.3907 9.73694ZM18.8081 20.4064C19.1946 20.0087 19.3879 19.426 19.3879 18.6781L19.3851 11.6865C19.3851 10.863 18.9733 10.4456 18.161 10.4456C17.9705 10.4456 17.7941 10.4708 17.6428 10.5213C17.4299 10.5913 17.2002 10.5717 17.0042 10.4652C16.8081 10.3588 16.6624 10.1767 16.6036 9.96103C16.4607 9.45123 16.0686 9.19353 15.4383 9.19353C15.2451 9.19353 15.0686 9.21874 14.9173 9.26916C14.8333 9.29717 14.7465 9.31117 14.6596 9.31117C14.2955 9.30837 13.9761 9.06467 13.8781 8.71453C13.7352 8.21033 13.3431 7.95543 12.7156 7.95543C12.5448 7.95543 12.3879 7.97504 12.2507 8.01425C12.1806 8.03386 12.105 8.04507 12.0322 8.04507C11.5812 8.04226 11.2198 7.67532 11.2198 7.22434V4.32238C11.2198 3.44563 10.7633 2.98344 9.90051 2.98344C9.3711 2.98344 8.66242 3.1207 8.58399 4.33078V11.7061C8.58399 12.0759 8.33749 12.4008 7.98455 12.4988C7.62881 12.5969 7.25346 12.4428 7.06858 12.1263C6.76046 11.5997 6.51676 11.286 6.25626 11.0787C6.05177 10.9134 5.80247 10.8238 5.55318 10.8238C5.32348 10.8238 5.105 10.8994 4.92853 11.0423C4.58119 11.3196 4.51396 11.807 4.74925 12.3084C5.42712 13.7566 6.56998 16.0787 7.48875 17.9442C8.04057 19.0619 8.55878 20.1207 8.70724 20.44C8.90051 20.8602 9.05177 21.0255 9.24225 21.0255H17.0294C17.7913 21.0255 18.4215 20.8042 18.8081 20.4064Z" fill="#313235"/>
</svg>
