<svg width="24" height="24" viewBox="0 0 24 24" fill="none" xmlns="http://www.w3.org/2000/svg">
<path fill-rule="evenodd" clip-rule="evenodd" d="M21.8425 6.24589C21.8425 5.99378 21.8005 5.17026 21.2543 5.17026H18.7277V3.35793C18.7277 2.72768 18.1843 2.15625 17.5848 2.15625H6.41956C5.82012 2.15625 5.2767 2.72768 5.2767 3.35793V5.17026H2.74449C2.19827 5.17026 2.15625 5.99378 2.15625 6.24589V20.7697C2.15625 21.0946 2.21227 21.8453 2.74449 21.8453H21.2543C21.7865 21.8453 21.8425 21.0946 21.8425 20.7697V6.24589ZM17.9098 21.0218V3.36073C17.9098 3.17586 17.7193 2.97978 17.582 2.97978H6.41675C6.2823 2.97978 6.09182 3.17866 6.09182 3.36073V21.0246H9.11984V14.1366C9.11984 13.9098 9.30191 13.7277 9.5288 13.7277H14.4756C14.6997 13.7277 14.8845 13.9126 14.8845 14.1366V21.0246H17.9098V21.0218ZM21.0274 20.7669V6.24308C21.0274 6.14505 21.019 6.05821 21.005 5.98818H18.7445C18.7333 6.05821 18.7249 6.14505 18.7249 6.24308V21.0218H21.0078L21.0085 21.0165L21.0085 21.0165L21.0085 21.0164L21.0085 21.0164C21.0168 20.95 21.0274 20.8651 21.0274 20.7669ZM14.0666 21.0218H9.93496V14.5428H14.0666V21.0218ZM2.97138 20.7669C2.97138 20.8677 2.97978 20.9546 2.99098 21.0218H5.2739V20.0022C5.2739 19.9989 5.27294 19.9966 5.27214 19.9947C5.27158 19.9933 5.2711 19.9921 5.2711 19.991V6.24589C5.2711 6.14785 5.26269 6.06101 5.25149 5.99098H2.99098C2.97978 6.06101 2.96857 6.14785 2.96857 6.24589V20.7669H2.97138ZM15.0806 8.75849C15.1366 8.75849 15.1871 8.71927 15.1955 8.69967L15.1927 7.22628C15.1759 7.20667 15.1338 7.17586 15.0834 7.17586H13.1927C12.9686 7.17586 12.7837 6.99378 12.7837 6.76689V4.87334C12.7837 4.81731 12.7445 4.76689 12.7277 4.75849L11.2459 4.76129C11.2468 4.76305 11.2441 4.76894 11.2399 4.77792L11.2399 4.77793C11.2309 4.7976 11.2151 4.83209 11.2151 4.87054V6.76689C11.2151 6.99378 11.033 7.17586 10.8061 7.17586H8.91815C8.85933 7.17586 8.81731 7.21227 8.81171 7.22628L8.81451 8.72208C8.81586 8.72208 8.81931 8.72386 8.82455 8.72656C8.84111 8.7351 8.87559 8.75289 8.91815 8.75289H10.8061C11.0302 8.75289 11.2151 8.93776 11.2151 9.16185V11.0582C11.2151 11.117 11.2515 11.1591 11.2655 11.1647L12.7585 11.1619C12.7577 11.1611 12.7598 11.1576 12.7631 11.1518C12.7724 11.1356 12.7921 11.1014 12.7921 11.0582L12.7865 9.16185C12.7865 9.05261 12.8285 8.94897 12.9069 8.87054C12.9854 8.79491 13.089 8.75009 13.1955 8.75009H15.0806V8.75849ZM16.005 7.20667C16.005 6.75569 15.5736 6.35513 15.0806 6.35513H13.5988V4.87334C13.5988 4.37754 13.2011 3.94336 12.7501 3.94336H11.2459C10.7837 3.94336 10.3971 4.36914 10.3971 4.87334V6.35793H8.91815C8.41956 6.35793 7.99659 6.74729 7.99659 7.20947V8.72208C7.99659 9.18426 8.41956 9.57362 8.91815 9.57362H10.3971V11.061C10.3971 11.5624 10.7865 11.9854 11.2459 11.9854H12.7557C13.2151 11.9854 13.6044 11.5624 13.6044 11.061L13.6016 9.57642H15.0806C15.5736 9.57642 16.005 9.17866 16.005 8.72488V7.20667Z" fill="#313235"/>
</svg>
