<svg width="24" height="24" viewBox="0 0 24 24" fill="none" xmlns="http://www.w3.org/2000/svg">
<path fill-rule="evenodd" clip-rule="evenodd" d="M5.71696 21.8341H18.28C18.7198 21.8341 19.1063 21.4476 19.1063 21.0078V7.89929C19.1063 7.89904 19.1063 7.89879 19.1063 7.89855C19.1063 7.82292 19.0783 7.75289 19.0251 7.69967L13.5629 2.23748C13.5359 2.21193 13.5046 2.19141 13.4705 2.17739C13.4376 2.16377 13.4017 2.15625 13.364 2.15625H5.71696C5.29959 2.15625 4.89062 2.56521 4.89062 2.98258V21.0078C4.89062 21.4392 5.28558 21.8341 5.71696 21.8341ZM13.0839 2.71647H5.71696C5.61051 2.71647 5.45085 2.87614 5.45085 2.98258V21.0078C5.45085 21.1282 5.59651 21.2739 5.71696 21.2739H18.28C18.4088 21.2739 18.5461 21.1366 18.5461 21.0078V8.17866H16.0951C15.2156 8.17866 14.4621 7.89014 13.9158 7.34673C13.3696 6.80331 13.0839 6.04981 13.0839 5.16745V2.71647ZM13.6441 3.11143V5.16745C13.6441 6.65485 14.6077 7.61843 16.0951 7.61843H18.1511L13.6441 3.11143ZM7.90183 12.5484H16.0951C16.252 12.5484 16.3752 12.4224 16.3752 12.2683C16.3752 12.1142 16.2492 11.9882 16.0951 11.9882H7.90183C7.74777 11.9882 7.62172 12.1142 7.62172 12.2683C7.62172 12.4224 7.74777 12.5484 7.90183 12.5484ZM16.0951 15.554H7.90183C7.74777 15.554 7.62172 15.428 7.62172 15.2739C7.62172 15.1198 7.74777 14.9938 7.90183 14.9938H16.0951C16.2492 14.9938 16.3752 15.1198 16.3752 15.2739C16.3752 15.428 16.252 15.554 16.0951 15.554ZM16.0951 18.5568H7.90183C7.74777 18.5568 7.62172 18.4308 7.62172 18.2767C7.62172 18.1226 7.74777 17.9966 7.90183 17.9966H16.0951C16.2492 17.9966 16.3752 18.1226 16.3752 18.2767C16.3752 18.4308 16.252 18.5568 16.0951 18.5568Z" fill="#313235"/>
</svg>
