<svg width="24" height="24" viewBox="0 0 24 24" fill="none" xmlns="http://www.w3.org/2000/svg">
<path fill-rule="evenodd" clip-rule="evenodd" d="M11.6548 2.15625C11.9126 2.15625 12.1787 2.16185 12.4112 2.16745C14.3383 2.21227 21.8425 2.97418 21.8453 12.0274C21.8453 21.1002 14.3299 21.8061 12.4504 21.8397C12.1478 21.8453 11.8481 21.8453 11.5484 21.8425C9.57082 21.8145 2.15625 21.0974 2.15625 11.9686C2.15625 2.85093 9.50359 2.17306 11.4784 2.15625H11.6548ZM11.6548 2.97698H11.4868C11.1534 2.97978 10.6184 3.00499 9.97698 3.10303L10.6212 6.22908C10.9742 6.17026 11.3299 6.13664 11.6857 6.13104H11.7949C11.9462 6.13104 12.103 6.13384 12.2403 6.13664C12.6184 6.15065 12.9938 6.19266 13.3635 6.26269L14.005 3.15625C13.3187 3.0358 12.7389 2.99379 12.3887 2.98538C12.1647 2.97978 11.9041 2.97698 11.6548 2.97698ZM6.51479 4.34392C7.39995 3.7865 8.33552 3.46157 9.17866 3.26549L9.83132 6.41395C8.5232 6.80891 7.00219 7.74168 6.40275 9.90695L3.25429 9.25709C3.72768 7.06661 4.81171 5.41675 6.51479 4.34392ZM6.23188 10.7081L3.11703 10.0638C3.033 10.6661 2.97698 11.2935 2.97978 11.9658C2.97978 12.6661 3.0358 13.3663 3.14785 14.0582L6.26269 13.414C6.18706 12.9742 6.13104 12.5092 6.13104 11.9798C6.13104 11.5176 6.17306 11.103 6.23188 10.7081ZM14.1394 17.5624L14.7893 20.7053C16.9966 20.1675 19.7837 18.7165 20.7053 14.8621L17.5512 14.2123C16.9182 16.2599 15.4224 17.1675 14.1394 17.5624ZM11.5624 21.0218C11.8537 21.0246 12.145 21.0246 12.4364 21.019C12.8145 21.0106 13.3579 20.977 13.991 20.8761L13.3467 17.7557C12.991 17.8201 12.6324 17.8593 12.2711 17.8677C12.2199 17.8677 12.1648 17.8684 12.1077 17.8691L12.1075 17.8691H12.1074H12.1074H12.1074H12.1074H12.1074H12.1073H12.1073H12.1073C12.0458 17.8698 11.982 17.8705 11.9182 17.8705C11.4952 17.8705 11.075 17.8341 10.6577 17.7613L10.0134 20.8789C10.526 20.963 11.0442 21.0106 11.5624 21.0218ZM3.30191 14.8621L6.43636 14.2151C6.99939 16.0498 8.24589 16.9714 9.41956 17.4252C9.56801 17.4812 9.71087 17.5232 9.85653 17.5652L9.20667 20.7137C8.36633 20.5092 7.43076 20.1815 6.54841 19.624C4.87614 18.5708 3.80051 16.9686 3.30191 14.8621ZM12.2515 17.0442C12.1506 17.047 12.033 17.047 11.9154 17.047H11.7445C11.0526 17.0358 10.3663 16.9041 9.71928 16.6605C7.88454 15.949 6.95177 14.3747 6.95177 11.9798C6.95177 7.47838 10.2711 6.96017 11.6997 6.94897H11.8033C11.8783 6.94897 11.9549 6.94971 12.029 6.95043H12.0291H12.0291H12.0291H12.0292H12.0292H12.0293C12.099 6.95111 12.1667 6.95177 12.2291 6.95177C13.6801 6.98818 17.0526 7.55121 17.0526 12.0134C17.047 16.4756 13.6941 17.019 12.2515 17.0442ZM17.5792 9.90975L20.7193 9.26269C20.2291 7.11984 19.131 5.48958 17.4112 4.41675C16.5428 3.87334 15.6324 3.5428 14.8061 3.33272L14.1591 6.46157C15.4616 6.87334 16.9686 7.81171 17.5792 9.90975ZM17.7585 10.7109L20.8677 10.0666C20.9602 10.6857 21.0218 11.3299 21.0218 12.0246C21.0218 12.7697 20.9518 13.4308 20.8509 14.0582L17.7417 13.4168C17.8257 12.9546 17.8677 12.484 17.8677 12.0162C17.8677 11.5372 17.8229 11.1114 17.7585 10.7109Z" fill="#313235"/>
</svg>
