<svg width="24" height="24" viewBox="0 0 24 24" fill="none" xmlns="http://www.w3.org/2000/svg">
<path fill-rule="evenodd" clip-rule="evenodd" d="M19.3896 19.103C19.3868 16.5008 19.3896 11.2179 19.3896 11.2179L19.3898 11.2147C19.3949 11.1348 19.4615 10.0868 18.7398 9.2907C18.23 8.73608 17.4793 8.45317 16.5045 8.45317C14.2496 8.45317 9.40645 8.45877 7.93306 8.46157V7.06661C7.93306 3.30471 10.877 2.98538 11.7818 2.97698C11.9106 2.97418 12.0647 2.97698 12.1908 2.97978C12.9219 2.99659 15.356 3.25429 15.9527 5.80331C15.9555 5.80611 15.9555 5.80891 15.9555 5.81171C16.0087 6.0274 16.2244 6.16185 16.4429 6.10863C16.6614 6.05541 16.7986 5.83412 16.7454 5.61563C16.0143 2.49238 13.0899 2.18146 12.2104 2.15905C12.1417 2.15765 12.0682 2.15765 11.9936 2.15765C11.9191 2.15765 11.8434 2.15765 11.7706 2.15625C10.9947 2.16465 7.11793 2.43356 7.11513 7.06942V8.47278C6.67255 8.50639 5.96387 8.64084 5.40645 9.15625C4.88824 9.63244 4.62774 10.3131 4.62774 11.1787V19.0918C4.62494 19.1366 4.55771 20.2151 5.2972 21.0162C5.80421 21.5624 6.5465 21.8425 7.50169 21.8425L16.4737 21.8369C16.5213 21.8425 17.765 21.921 18.6193 21.117C19.1319 20.638 19.3896 19.9574 19.3896 19.103ZM18.1319 9.84252C18.6249 10.3803 18.5773 11.145 18.5745 11.1843C18.5745 11.1843 18.5717 16.4924 18.5745 19.103C18.5745 19.7193 18.4036 20.1927 18.0675 20.512C17.5162 21.0321 16.6702 21.0186 16.5228 21.0163C16.5115 21.0161 16.5043 21.016 16.5017 21.0162L7.50169 21.0218C6.7874 21.0218 6.24678 20.8341 5.90225 20.4644C5.40365 19.9294 5.44286 19.1591 5.44566 19.1226V11.1759C5.44566 10.554 5.61653 10.0778 5.95267 9.76409C6.42325 9.32432 7.10953 9.2823 7.36163 9.2823C7.41242 9.2823 7.44419 9.2842 7.45535 9.28487L7.45967 9.2851H7.52409L8.7532 9.28372H8.75352C10.7308 9.28133 14.5679 9.2767 16.5017 9.2767C17.2356 9.2767 17.7846 9.46437 18.1319 9.84252ZM11.9779 16.9238C12.7958 16.9098 13.7734 16.5652 13.7734 15.0134C13.7734 13.456 12.7874 13.1086 11.9611 13.0862L11.7762 13.0834H11.7286C10.9219 13.0918 9.95547 13.428 9.95547 14.9938C9.95547 16.568 10.9303 16.9126 11.751 16.9238H11.9779ZM14.5857 15.0106C14.5857 12.4924 12.5101 12.2795 11.9779 12.2655C11.9163 12.2627 11.8462 12.2627 11.7734 12.2627H11.7202C11.174 12.2655 9.14034 12.456 9.14034 14.9938C9.14034 17.5372 11.1936 17.7361 11.7398 17.7445H11.8294C11.8854 17.7445 11.9387 17.7445 11.9891 17.7417C12.5073 17.7333 14.5857 17.5372 14.5857 15.0106Z" fill="#313235"/>
</svg>
