<svg width="24" height="24" viewBox="0 0 24 24" fill="none" xmlns="http://www.w3.org/2000/svg">
<path fill-rule="evenodd" clip-rule="evenodd" d="M19.3856 18.0087H21.3772C21.6069 18.0087 21.7946 18.1963 21.7946 18.4288V21.4316C21.7946 21.6641 21.6097 21.8518 21.3772 21.8518H2.63212C2.40243 21.8518 2.21476 21.6641 2.21476 21.4316V18.4288C2.21476 18.1963 2.39963 18.0087 2.63212 18.0087H4.65733V9.56888H2.5789C2.39403 9.56888 2.23437 9.45123 2.17834 9.27476C2.12512 9.09829 2.18955 8.90781 2.34081 8.80417L11.7666 2.23554C11.9094 2.1347 12.0999 2.1347 12.2428 2.23554L21.6685 8.80417C21.817 8.90781 21.8814 9.09829 21.8282 9.27476C21.775 9.45123 21.6125 9.56888 21.4304 9.56888H19.3856V18.0087ZM20.9571 21.0115H3.04949V18.849H20.9571V21.0115ZM5.49207 18.0087H7.10831V9.56888H5.49207V18.0087ZM20.0943 8.72854L12.0047 3.09269L3.91224 8.72854H5.0663C5.0677 8.72854 5.0691 8.72784 5.0705 8.72714C5.0719 8.72644 5.0733 8.72574 5.0747 8.72574C5.0761 8.72574 5.0775 8.72644 5.0789 8.72714C5.0803 8.72784 5.0817 8.72854 5.0831 8.72854H7.51728C7.51868 8.72854 7.52008 8.72784 7.52148 8.72714C7.52288 8.72644 7.52428 8.72574 7.52568 8.72574C7.52708 8.72574 7.52848 8.72644 7.52988 8.72714C7.53128 8.72784 7.53268 8.72854 7.53409 8.72854H10.7862C10.7876 8.72854 10.789 8.72784 10.7904 8.72714C10.7918 8.72644 10.7932 8.72574 10.7946 8.72574C10.796 8.72574 10.7974 8.72644 10.7988 8.72714C10.8002 8.72784 10.8016 8.72854 10.803 8.72854H13.2372C13.2386 8.72854 13.24 8.72784 13.2414 8.72714C13.2428 8.72644 13.2442 8.72574 13.2456 8.72574C13.247 8.72574 13.2484 8.72644 13.2498 8.72714C13.2512 8.72784 13.2526 8.72854 13.254 8.72854H16.5061C16.5075 8.72854 16.5089 8.72784 16.5103 8.72714L16.5124 8.72615L16.5138 8.72579L16.5145 8.72574C16.5159 8.72574 16.5173 8.72644 16.5187 8.72714C16.5201 8.72784 16.5215 8.72854 16.5229 8.72854H18.9571C18.9585 8.72854 18.9599 8.72784 18.9613 8.72714C18.9627 8.72644 18.9641 8.72574 18.9655 8.72574C18.9669 8.72574 18.9683 8.72644 18.9697 8.72714C18.9711 8.72784 18.9725 8.72854 18.9739 8.72854H20.0943ZM13.6657 18.0087H16.0999V9.56888H13.6657V18.0087ZM12.831 18.0087H11.2148V9.56888H12.831V18.0087ZM7.94305 18.0087H10.3772V9.56888H7.94305V18.0087ZM18.5509 18.0087H16.9346V9.56888H18.5509V18.0087Z" fill="#313235"/>
</svg>
