<svg width="24" height="24" viewBox="0 0 24 24" fill="none" xmlns="http://www.w3.org/2000/svg">
<path fill-rule="evenodd" clip-rule="evenodd" d="M11.5007 2.15991H12.411C13.9881 2.21033 21.8452 2.79016 21.8452 12.003C21.8452 21.2159 14.0189 21.8462 12.4446 21.8462H11.5679C2.60992 21.7313 2.15894 13.6445 2.15894 12.003C2.15894 10.3616 2.60992 2.24114 11.5007 2.15991ZM11.5903 21.0255H12.411H12.4362C14.4643 21.0255 21.0245 20.2047 21.0245 12.003C21.0245 3.80137 14.4615 3.03666 12.3942 2.98064H11.5091C9.53989 2.98064 2.97686 3.73414 2.97686 12.003C2.97686 20.272 9.53989 21.0255 11.5903 21.0255ZM6.26258 12.003C6.26258 8.8686 7.71356 8.20473 8.96006 8.20473C10.1982 8.20473 11.708 8.8686 11.708 12.003C11.708 15.1375 10.2318 15.8014 8.99367 15.8014C7.18134 15.8014 6.26258 14.5213 6.26258 12.003ZM7.16454 12.0199C7.16454 14.5717 8.13933 14.8994 8.96006 14.8994C9.78639 14.8994 10.7472 14.5969 10.7472 12.0199C10.7472 9.44283 9.79759 9.11509 8.96006 9.11509C8.12532 9.11509 7.16454 9.46804 7.16454 12.0199ZM17.201 8.33638H17.4811H17.5007C17.6631 8.33918 17.792 8.47644 17.7864 8.6389V15.3756C17.7864 15.5437 17.6519 15.6781 17.4839 15.6781H17.2542C17.1505 15.6781 17.0553 15.6249 16.9993 15.5381L13.5119 10.2551V15.3644C13.5119 15.5353 13.3718 15.6753 13.201 15.6753H12.9208C12.7528 15.6725 12.6183 15.5325 12.6183 15.3644V8.6389C12.6183 8.47364 12.7528 8.33638 12.9208 8.33638H13.1421C13.243 8.33638 13.3382 8.384 13.397 8.46804L16.9208 13.7566V8.6389C16.9208 8.48204 17.0441 8.35039 17.201 8.33638Z" fill="#313235"/>
</svg>
