<svg width="24" height="24" viewBox="0 0 24 24" fill="none" xmlns="http://www.w3.org/2000/svg">
<path fill-rule="evenodd" clip-rule="evenodd" d="M11.9921 2.1499C18.2118 2.1499 21.8399 5.29055 21.8399 11.9977C21.8399 18.7049 18.2118 21.8399 11.9921 21.8399C5.77244 21.8399 2.1499 18.7049 2.1499 11.9977C2.1499 5.29055 5.77244 2.1499 11.9921 2.1499ZM11.9921 21.019C17.982 21.019 21.019 17.9848 21.019 11.9977C21.019 6.00778 17.982 2.97079 11.9921 2.97079C6.00497 2.97079 2.97079 6.00778 2.97079 11.9977C2.97079 17.9848 6.00497 21.019 11.9921 21.019ZM15.1552 14.8554C15.1552 15.4858 14.9506 15.6903 14.3175 15.6903C13.6843 15.6903 13.4826 15.4886 13.4826 14.8554C13.4826 14.2222 13.6843 14.0177 14.3175 14.0177C14.9506 14.0177 15.1552 14.2222 15.1552 14.8554ZM14.3175 13.1996C15.3625 13.1996 15.976 13.7291 15.976 14.8582C15.976 15.9845 15.3653 16.514 14.3175 16.514C13.2725 16.514 12.6617 15.9845 12.6617 14.8582C12.6617 13.7319 13.2697 13.1996 14.3175 13.1996ZM8.83744 9.31092C8.83744 8.67775 9.04196 8.47323 9.67233 8.47323C10.3027 8.47323 10.5072 8.67495 10.51 9.31092C10.51 9.94409 10.3055 10.1458 9.67233 10.1458C9.04196 10.1458 8.83744 9.94129 8.83744 9.31092ZM9.67233 10.9639C8.62732 10.9639 8.01656 10.4372 8.01656 9.30812C8.01656 8.17905 8.62732 7.64954 9.67233 7.64954C10.7174 7.64954 11.3309 8.17905 11.3309 9.30812C11.3309 10.4372 10.7174 10.9639 9.67233 10.9639ZM15.7967 7.78122C15.934 7.60191 15.9032 7.34416 15.7239 7.20688L15.7183 7.20128C15.539 7.064 15.284 7.09762 15.1468 7.27692L8.20427 16.2114C8.06699 16.3879 8.09781 16.6456 8.27711 16.7857C8.45362 16.923 8.71137 16.8922 8.85145 16.7129L15.7967 7.78122Z" fill="#313235"/>
</svg>
