<svg width="24" height="24" viewBox="0 0 24 24" fill="none" xmlns="http://www.w3.org/2000/svg">
<path fill-rule="evenodd" clip-rule="evenodd" d="M18.7151 3.95508C20.9224 6.16797 21.0877 8.59654 19.2081 10.8402C20.9924 11.7338 21.8468 13.5181 21.8496 16.0167C21.8496 19.6946 19.998 21.843 16.0401 21.843C13.421 21.843 11.7319 20.8991 10.8832 19.1988C9.84399 20.0979 8.75995 20.5517 7.67312 20.5517C6.41822 20.5517 5.15771 19.9523 3.96163 18.7506C2.74315 17.5293 2.1381 16.2604 2.16051 14.9719C2.18292 13.7338 2.78796 12.5097 3.95603 11.336L4.10169 11.1876C4.20813 11.0727 4.31738 10.9635 4.42942 10.8654L10.8636 4.40606C10.9448 4.31362 11.0541 4.20718 11.1661 4.10074L11.3146 3.95508C13.7011 1.56292 16.3286 1.56012 18.7151 3.95508ZM11.7459 4.70859C11.6535 4.79542 11.5611 4.88226 11.4798 4.97749L8.90001 7.56292C8.89907 7.57138 8.89876 7.57983 8.89845 7.58839C8.89783 7.60536 8.89719 7.62274 8.8916 7.64135C8.52466 8.82903 9.14371 10.2352 10.7291 11.829C10.8944 11.9915 11.0513 12.1344 11.2109 12.2772C12.1353 10.9299 13.7235 10.1932 16.0401 10.1932C16.9224 10.1932 17.6927 10.3052 18.3678 10.5125C20.1661 8.53211 20.0961 6.52651 18.1241 4.54892C16.0625 2.48169 13.9728 2.48169 11.9084 4.54892L11.7459 4.70858L11.7459 4.70859ZM4.55267 18.1596C3.50225 17.1063 2.97844 16.0391 2.99805 14.9887C3.01485 13.9747 3.53586 12.9439 4.54707 11.9299L4.70673 11.7646L4.70674 11.7646C4.79357 11.6722 4.88041 11.5797 4.99805 11.4789L7.96163 8.5069C8.02606 9.71979 8.75155 11.0307 10.1381 12.4229C10.3594 12.6414 10.5723 12.8402 10.788 13.0251C10.4154 13.8598 10.2333 14.8626 10.2333 16.0195C10.2333 16.8963 10.3398 17.6806 10.5527 18.3752C8.56387 20.2296 6.54707 20.1596 4.55267 18.1596ZM16.0373 21.0055C13.6367 21.0055 12.1353 20.1484 11.4714 18.4341C11.4658 18.3416 11.4322 18.2548 11.365 18.182C11.1969 17.661 11.1157 17.0503 11.0877 16.3809C11.1493 16.4145 11.2137 16.4397 11.2894 16.4397H20.7852C20.8608 16.4397 20.9252 16.4145 20.984 16.3809C20.8664 19.4817 19.2558 21.0055 16.0373 21.0055ZM20.9868 15.6582C20.9252 15.6245 20.8608 15.5993 20.788 15.5993H11.2922C11.2165 15.5993 11.1521 15.6245 11.0905 15.6582C11.2109 12.5573 12.8216 11.0335 16.0373 11.0335C19.2558 11.0335 20.8664 12.5601 20.9868 15.6582Z" fill="#313235"/>
</svg>
