<svg width="24" height="24" viewBox="0 0 24 24" fill="none" xmlns="http://www.w3.org/2000/svg">
<path fill-rule="evenodd" clip-rule="evenodd" d="M12.003 2.15991C18.4176 2.15991 21.8462 5.55487 21.8462 12.003C21.8462 18.4512 18.4512 21.8462 12.003 21.8462C5.55487 21.8462 2.15991 18.4512 2.15991 12.003C2.15991 5.55487 5.55487 2.15991 12.003 2.15991ZM12.003 21.0255C17.9666 21.0255 21.0255 17.9918 21.0255 12.003C21.0255 6.01425 18.0002 2.98064 12.003 2.98064C6.00585 2.98064 2.98064 6.03946 2.98064 12.003C2.98064 17.9666 6.00585 21.0255 12.003 21.0255ZM12.412 4.6221C12.3952 4.40641 12.2187 4.24395 12.003 4.24395C11.7762 4.24395 11.5941 4.42602 11.5941 4.65291V7.73974C11.5941 7.96383 11.7762 8.14871 12.003 8.14871C12.2271 8.14591 12.4064 7.96383 12.412 7.73974V4.6221ZM8.14871 11.947C8.14871 12.1739 7.96383 12.356 7.73974 12.356H4.6193C4.39241 12.356 4.21033 12.1711 4.21033 11.947C4.21033 11.7201 4.39521 11.5381 4.6193 11.5381H7.73694C7.96383 11.5353 8.14871 11.7201 8.14871 11.947ZM9.23554 14.7061C9.08428 14.5381 8.82378 14.5269 8.65571 14.6781C8.65571 14.6781 6.48204 16.8602 6.48484 16.8602C6.41201 16.933 6.37 17.0339 6.3672 17.1403C6.36439 17.3644 6.54367 17.5521 6.77056 17.5549C6.8882 17.5633 7.00305 17.5185 7.08148 17.4316L9.23834 15.2832L9.25515 15.2664C9.40361 15.1067 9.39801 14.8574 9.23834 14.7089L9.23554 14.7061ZM11.947 15.835C12.1739 15.835 12.356 16.0199 12.356 16.2439V19.3196C12.356 19.5465 12.1711 19.7285 11.947 19.7285C11.7201 19.7285 11.5381 19.5437 11.5381 19.3196V16.2439C11.5353 16.0171 11.7201 15.835 11.947 15.835ZM17.4652 16.9162L15.2832 14.7341C15.1235 14.5773 14.8686 14.5773 14.7089 14.7341L14.7061 14.7369C14.5465 14.8966 14.5493 15.1571 14.7089 15.3168L16.8938 17.4988C16.9694 17.5745 17.0731 17.6137 17.1795 17.6137C17.286 17.6137 17.3868 17.5717 17.4652 17.4988L17.468 17.496C17.6277 17.3364 17.6249 17.0759 17.4652 16.9162ZM19.3196 11.6249C19.5465 11.6249 19.7285 11.8098 19.7285 12.0339C19.7285 12.2608 19.5437 12.4428 19.3196 12.4428H16.2439C16.0171 12.4428 15.835 12.258 15.835 12.0339C15.835 11.807 16.0199 11.6249 16.2439 11.6249H19.3196ZM14.7369 9.30557C14.8154 9.3784 14.9218 9.42042 15.0311 9.42042C15.1235 9.40921 15.2131 9.37 15.286 9.30557L17.5016 7.1235C17.6333 6.96944 17.6361 6.74255 17.5044 6.58848C17.3588 6.41761 17.1011 6.39521 16.9274 6.54086L14.7369 8.72294C14.5801 8.8854 14.5801 9.14311 14.7369 9.30557Z" fill="#313235"/>
</svg>
