<svg width="24" height="24" viewBox="0 0 24 24" fill="none" xmlns="http://www.w3.org/2000/svg">
<path fill-rule="evenodd" clip-rule="evenodd" d="M18.07 12.9734H13.7199V13.6765H20.2045C20.6667 13.6765 21.0448 14.0463 21.0448 14.5V21.0126C21.0448 21.4664 20.6695 21.8362 20.2045 21.8362H3.84034C3.37815 21.8362 3 21.4664 3 21.0126V14.5C3 14.0463 3.37535 13.6765 3.84034 13.6765H10.3249V12.9734H5.98599C5.52381 12.9734 5.14566 12.6037 5.14566 12.1499V11.0351H3.84034C3.37815 11.0351 3 10.6653 3 10.2115V7.03786C3 6.58408 3.37535 6.21433 3.84034 6.21433H5.14566V4.31517C5.14566 3.85859 5.52101 3.49164 5.98599 3.49164H11.6022V3.11629C11.5014 3.01265 11.4398 2.87539 11.4398 2.72133C11.4398 2.4048 11.7031 2.1499 12.0224 2.1499C12.3445 2.1499 12.6078 2.40761 12.6078 2.72133C12.6078 2.87539 12.5462 3.01265 12.4426 3.11629V3.49164H18.0728C18.535 3.49164 18.9132 3.85859 18.9132 4.31517V6.22553H20.2073C20.6695 6.22553 21.0476 6.59248 21.0476 7.04906V10.2227C21.0476 10.6765 20.6695 11.0463 20.2073 11.0463H18.9132V12.1499C18.9104 12.6037 18.5322 12.9734 18.07 12.9734ZM5.98599 12.1499V10.2115V4.31517H18.07V12.1499H5.98599ZM5.14566 10.2115H3.84034V7.03786H5.14566V10.2115ZM12.8796 13.6737V12.9846H11.1653V13.6737H12.8796ZM20.2045 14.4972V21.0098H17.7731C17.774 21.0065 17.775 21.0031 17.7762 20.9997C17.7788 20.9917 17.7815 20.9832 17.7815 20.9734V16.7998C17.7815 16.3432 17.4034 15.9762 16.9412 15.9762H7.10084C6.63585 15.9762 6.2605 16.3432 6.2605 16.7998V20.9734C6.2605 20.9808 6.26285 20.9874 6.26506 20.9937C6.26703 20.9993 6.26891 21.0046 6.26891 21.0098H3.84034V14.4972H20.2045ZM7.10084 20.9734H16.9412V16.7998H7.10084V20.9734ZM20.2045 10.2227H18.9104V7.04906H20.2045V10.2227ZM10.1989 7.34878C10.1989 7.71853 9.89076 8.02105 9.51261 8.02105C9.13445 8.02105 8.82633 7.72133 8.82633 7.34878C8.82633 6.97623 9.13445 6.67371 9.51261 6.67371C9.89076 6.67371 10.1989 6.97623 10.1989 7.34878ZM11.0392 7.34878C11.0392 8.17511 10.3557 8.84458 9.5126 8.84458C8.66947 8.84458 7.98599 8.17231 7.98599 7.34878C7.98599 6.52245 8.66947 5.85298 9.5126 5.85298C10.3557 5.85018 11.0392 6.52245 11.0392 7.34878ZM15.2297 7.32917C15.2297 7.69892 14.9216 8.00144 14.5434 8.00144C14.1653 8.00144 13.8571 7.69892 13.8571 7.32917C13.8571 6.95663 14.1653 6.6541 14.5434 6.6541C14.9216 6.6541 15.2297 6.95663 15.2297 7.32917ZM14.5434 5.83057C15.3866 5.83057 16.07 6.50284 16.07 7.32917C16.07 8.1555 15.3866 8.82497 14.5434 8.82497C13.7003 8.82497 13.0168 8.1527 13.0168 7.32917C13.0168 6.50564 13.7003 5.83057 14.5434 5.83057ZM14.2045 10.1387C14.2045 9.91181 14.0168 9.72693 13.7843 9.72693H10.2717C10.0392 9.72693 9.85154 9.91181 9.85154 10.1387C9.85154 10.3656 10.0392 10.5505 10.2717 10.5505H13.7843C14.0168 10.5505 14.2045 10.3656 14.2045 10.1387Z" fill="#313235"/>
</svg>
