<svg width="24" height="24" viewBox="0 0 24 24" fill="none" xmlns="http://www.w3.org/2000/svg">
<path fill-rule="evenodd" clip-rule="evenodd" d="M10.8705 21.8278H18.0554C19.0806 21.8278 19.8145 21.5869 20.3019 21.0939C20.7893 20.6009 21.0246 19.8558 21.0246 18.8166V5.16111C21.0246 3.1359 20.0526 2.1499 18.0554 2.1499H10.8705C8.84529 2.1499 7.90131 3.10789 7.90131 5.16111V10.5561L5.27667 13.1807C5.15061 13.1639 5.02176 13.1555 4.89571 13.1527C3.64361 13.1527 2.55118 13.9986 2.23745 15.2087C2.1198 15.6681 2.1198 16.1499 2.24305 16.6065C2.32148 16.9062 2.62961 17.0827 2.92933 17.0042C3.02456 16.979 3.1114 16.9286 3.18143 16.8586L3.93493 16.1051L4.59319 16.2003L4.68563 16.8586L3.93213 17.6121C3.71364 17.8306 3.71364 18.1863 3.93213 18.4048C4.00216 18.4748 4.08899 18.5253 4.18423 18.5505C4.41672 18.6121 4.65482 18.6429 4.89571 18.6429C6.14781 18.6429 7.24025 17.797 7.55398 16.5869C7.64361 16.2367 7.66322 15.8754 7.6156 15.5168L7.89851 15.2339V18.8166C7.89851 19.8558 8.13381 20.6009 8.6212 21.0939C9.1086 21.5869 9.84529 21.8278 10.8705 21.8278ZM8.45874 14.6737L12.4447 10.6877C12.5708 10.7045 12.6996 10.7129 12.8257 10.7157C14.0778 10.7157 15.1702 9.86979 15.4839 8.65971C15.6016 8.20032 15.6016 7.71853 15.4783 7.26195C15.3999 6.96223 15.0918 6.78576 14.7921 6.86419C14.6968 6.8894 14.61 6.93982 14.54 7.00985L13.7865 7.76335L13.1282 7.67091L13.0358 7.01265L13.7893 6.25915C14.0078 6.04066 14.0078 5.68492 13.7893 5.46643C13.7192 5.3964 13.6324 5.34598 13.5372 5.32077C13.3019 5.25634 13.0638 5.22553 12.8257 5.22553C11.5736 5.22553 10.4811 6.07147 10.1674 7.28156C10.0778 7.63169 10.0582 7.99304 10.1058 8.35158L8.46154 9.99584V5.16111C8.46154 3.41881 9.15902 2.71013 10.8705 2.71013H18.0526C19.7417 2.71013 20.4615 3.44402 20.4615 5.16111V18.8166C20.4615 19.7017 20.2767 20.318 19.9013 20.7017C19.526 21.0855 18.9209 21.2704 18.0526 21.2704H10.8677C9.99935 21.2704 9.39711 21.0855 9.01896 20.7017C8.64081 20.318 8.45874 19.7017 8.45874 18.8166V14.6737ZM13.3915 5.85859C13.2066 5.81097 13.0162 5.78576 12.8257 5.78576C12.6324 5.78576 12.4419 5.81097 12.2571 5.86139C11.0918 6.17231 10.3999 7.37119 10.7136 8.53646L5.45874 13.7914C5.08899 13.6905 4.69683 13.6905 4.32709 13.7914C3.16182 14.1051 2.46994 15.304 2.78367 16.4692L3.73605 15.5168L5.08899 15.7101L5.28227 17.0603L4.32989 18.0126C4.69963 18.1135 5.09179 18.1135 5.46154 18.0126C6.62681 17.6989 7.31868 16.5 7.00496 15.3348L12.2627 10.0827C12.6324 10.1835 13.0246 10.1835 13.3943 10.0827C14.5596 9.76895 15.2515 8.57007 14.9377 7.4048L13.9853 8.35719L12.6324 8.16391L12.4391 6.81097L13.3915 5.85859ZM15.2935 18.6541C15.2935 18.0855 14.9657 17.8194 14.4615 17.8194C13.9601 17.8194 13.6324 18.0855 13.6296 18.6541C13.6296 18.9258 13.7052 19.1303 13.8397 19.2675C13.9853 19.416 14.1982 19.4888 14.4615 19.4888C14.7248 19.4888 14.9377 19.416 15.0834 19.2675C15.2178 19.1303 15.2935 18.9286 15.2935 18.6541Z" fill="#313235"/>
</svg>
