<svg width="24" height="24" fill="none" xmlns="http://www.w3.org/2000/svg"><path d="m10.213 7.617 6.834-3.891-2.935-1.672a.301.301 0 0 0-.345 0L7.213 5.802c.035 0 3.001 1.815 3.001 1.815ZM20.667 5.802l-2.552-1.464-6.9 3.923 2.727 1.716 6.725-4.175ZM14.456 18.856v-7.99l6.726-4.176v7.779a.38.38 0 0 1-.17.32l-6.556 4.067ZM7.038 9.617c2.587 0 4.726 2.176 4.726 4.888 0 .856-.379 1.82-.932 2.82l2.587 1.571v-8.03L6.694 6.69v2.963c.052 0 .114-.009.175-.018.06-.009.119-.018.169-.018Z" fill="#003"/><path d="M7.038 10.333C4.829 10.333 3 12.19 3 14.51c0 2.212 3.59 7.139 3.763 7.347.07.072.17.144.275.144.1 0 .209-.072.274-.144 0 0 .758-1.104 1.551-2.532.065-.115.129-.223.192-.33.074-.126.148-.25.222-.386l.02-.035c.89-1.519 1.74-2.969 1.74-4.068.039-2.28-1.79-4.172-4-4.172Zm0 5.244c-.723 0-1.311-.604-1.311-1.356 0-.748.584-1.356 1.31-1.356.728 0 1.312.604 1.312 1.356 0 .752-.588 1.356-1.311 1.356Z" fill="#003"/></svg>