<svg width="24" height="24" fill="none" xmlns="http://www.w3.org/2000/svg"><path d="M6.533 10.2a21.06 21.06 0 0 0-.072 1.258H2C2.26 6.576 5.98 2.6 10.726 2c-1.433.6-2.649 2.21-3.405 4.414a1.985 1.985 0 0 0-.788 3.786ZM13.274 22c2.38-1.004 4.137-4.773 4.257-9.462H22c-.26 4.874-3.98 8.85-8.726 9.462ZM6.46 12.538H2c.26 4.882 3.973 8.85 8.726 9.458C8.337 21 6.589 17.235 6.46 12.538ZM12.53 11.45V2.879c2.097.548 3.797 4.209 3.925 8.57H12.53Z" fill="#003"/><path d="M17.531 11.458h4.461c-.26-4.882-3.973-8.85-8.726-9.458 2.389 1.004 4.137 4.761 4.265 9.458ZM11.462 12.538v8.58c-2.097-.55-3.797-4.21-3.925-8.58h3.925ZM12.53 12.538h3.925c-.128 4.37-1.828 8.03-3.925 8.571v-8.57ZM7.537 11.458c.008-.375.032-.742.064-1.1a1.98 1.98 0 0 0 .768-3.653c.72-2.056 1.837-3.5 3.093-3.826v8.579H7.537Z" fill="#003"/><path d="M7.35 9.293a.896.896 0 0 0 .891-.9c0-.496-.4-.898-.892-.898a.896.896 0 0 0-.892.899c0 .496.4.899.892.899Z" fill="#003"/></svg>