<svg width="24" height="24" fill="none" xmlns="http://www.w3.org/2000/svg"><path d="M21.8 9.998 19.5 12.5l2.3 2.502a.747.747 0 0 1 .164.741.756.756 0 0 1-.567.506l-3.328.669.389 3.378a.739.739 0 0 1-.303.692.759.759 0 0 1-.754.078l-3.083-1.415-1.667 2.964a.747.747 0 0 1-1.307 0l-1.666-2.964-3.084 1.415a.757.757 0 0 1-.754-.078.76.76 0 0 1-.302-.692l.393-3.378-3.328-.67a.74.74 0 0 1-.567-.505.76.76 0 0 1 .163-.74L4.5 12.5 2.2 9.998a.747.747 0 0 1-.164-.741.756.756 0 0 1 .567-.506l3.328-.669-.393-3.378a.739.739 0 0 1 .302-.693.747.747 0 0 1 .754-.077L9.678 5.35l1.666-2.964a.747.747 0 0 1 1.307 0l1.667 2.964L17.4 3.934a.749.749 0 0 1 1.057.77l-.39 3.378 3.33.67a.741.741 0 0 1 .566.505.76.76 0 0 1-.163.74ZM9.65 16.634h4.693a.568.568 0 0 0 .566-.568.56.56 0 0 0-.562-.563h-3.098a1.69 1.69 0 0 0 .096-.563v-1.694h1.691a.56.56 0 0 0 .562-.563.56.56 0 0 0-.562-.563h-1.69v-1.502c0-.62.504-1.126 1.123-1.126.26 0 .505.087.706.25a.563.563 0 1 0 .711-.875 2.263 2.263 0 0 0-1.417-.5 2.258 2.258 0 0 0-2.252 2.256v1.502h-.188a.56.56 0 0 0-.562.563c0 .313.25.563.562.563h.183v1.694a.554.554 0 0 1-.562.563.56.56 0 0 0-.562.563c0 .312.25.563.562.563Z" fill="#003"/></svg>