<svg width="24" height="24" fill="none" xmlns="http://www.w3.org/2000/svg"><path d="M5.009 5.387H17.99C17.9 3.504 16.406 1.995 14.58 2H8.421C6.594 2 5.1 3.504 5.009 5.387ZM14.579 22H8.421c-1.827 0-3.32-1.509-3.412-3.387H17.99C17.9 20.496 16.406 22 14.58 22ZM18 6.457v11.081H5V6.458h13Zm-4.275 8.398H10.9c.057-.17.088-.348.088-.535v-1.61h1.541a.522.522 0 0 0 .513-.534.522.522 0 0 0-.513-.535h-1.541v-1.426c0-.59.46-1.07 1.024-1.07.237 0 .46.082.644.238a.5.5 0 0 0 .723-.078.553.553 0 0 0-.074-.754 2.013 2.013 0 0 0-1.293-.476c-1.13 0-2.054.96-2.054 2.144v1.427h-.17a.522.522 0 0 0-.513.535c0 .297.228.534.512.534h.171v1.61a.516.516 0 0 1-.512.534.522.522 0 0 0-.513.535c0 .297.228.535.513.535h4.28a.529.529 0 0 0 .511-.54.522.522 0 0 0-.512-.534Z" fill="#003"/></svg>