<svg width="24" height="24" fill="none" xmlns="http://www.w3.org/2000/svg"><path d="M18 5.214v.179H5v-.179C5 3.44 6.456 2 8.25 2h6.5C16.544 2 18 3.44 18 5.214ZM5 6.463h13v11.074H5V6.463Zm13 12.144v.179C18 20.56 16.544 22 14.75 22h-6.5C6.456 22 5 20.56 5 18.786v-.179h13ZM6.9 11.314l1.993 1.733-.546 2.684a.535.535 0 0 0 .532.64.557.557 0 0 0 .268-.068l2.358-1.317 2.353 1.317a.538.538 0 0 0 .795-.572l-.546-2.688L16.1 11.31a.534.534 0 0 0 .157-.567.542.542 0 0 0-.458-.37l-2.723-.284L12 7.647a.54.54 0 0 0-.989 0l-1.077 2.442-2.723.283a.555.555 0 0 0-.467.375.537.537 0 0 0 .157.567Zm3.116 1.642-.374 1.842 1.59-.891a.557.557 0 0 1 .536 0l1.59.891-.374-1.842a.531.531 0 0 1 .176-.508l1.299-1.13-1.808-.187a.536.536 0 0 1-.44-.32L11.5 9.206l-.707 1.605a.544.544 0 0 1-.44.32l-1.807.188 1.299 1.13a.54.54 0 0 1 .171.507Z" fill="#003"/></svg>