<svg width="24" height="24" fill="none" xmlns="http://www.w3.org/2000/svg"><path d="M21.992 17.992a.7.7 0 0 0-.79-.615l-1.252.191A10.255 10.255 0 0 0 21.57 12c0-5.517-4.298-10-9.576-10a9.153 9.153 0 0 0-4.097.959.74.74 0 0 0-.33.968c.165.363.58.517.927.345a7.797 7.797 0 0 1 3.5-.82c4.511 0 8.185 3.837 8.185 8.548 0 1.75-.509 3.422-1.44 4.832l-.214-1.55a.7.7 0 0 0-.79-.614c-.378.056-.646.428-.588.824l.535 3.887 3.723-.559a.728.728 0 0 0 .588-.828Zm-5.528 2.053a.746.746 0 0 1-.325.973 9.15 9.15 0 0 1-4.142.982c-5.282 0-9.575-4.488-9.575-10 0-2.007.57-3.939 1.627-5.577l-1.253.19c-.379.061-.736-.218-.79-.614-.053-.396.21-.768.59-.824l3.722-.559.535 3.888c.053.395-.21.768-.589.824l-.012.001c-.03.004-.058.008-.086.008a.705.705 0 0 1-.686-.624l-.223-1.56a8.771 8.771 0 0 0-1.45 4.842c0 4.712 3.674 8.548 8.186 8.548a7.86 7.86 0 0 0 3.54-.838.687.687 0 0 1 .931.34Zm-.637-5.322H8.163V9.267h7.664v5.457Zm-7.664 1.64c0 1 .78 1.82 1.743 1.82h4.182c.959 0 1.743-.815 1.743-1.82v-.55H8.163v.55Zm1.739-10.55h4.182c.958 0 1.738.815 1.738 1.82v.545H8.16v-.545c0-1.005.785-1.82 1.743-1.82Z" fill="#003"/></svg>