<svg width="24" height="24" fill="none" xmlns="http://www.w3.org/2000/svg"><path d="M4.325 10.356a.536.536 0 0 1 .536-.535h2.764L5.704 7.903a1.246 1.246 0 0 1 0-1.768l.214-.218H4.143A2.143 2.143 0 0 0 2 8.06v10.893a2.143 2.143 0 0 0 2.143 2.143h15.714A2.143 2.143 0 0 0 22 18.953v-8.06H4.857a.535.535 0 0 1-.532-.537Zm15.532-4.439h-2.903l3.907 3.904H22V8.06a2.143 2.143 0 0 0-2.143-2.143ZM9.143 9.846h1.578a1.807 1.807 0 0 0-2.625-2.479.357.357 0 1 1-.503-.503 2.521 2.521 0 0 1 2.771-.54 1.548 1.548 0 0 1-.035-.357 1.707 1.707 0 0 1 1.71-1.71 1.71 1.71 0 1 1-.357 3.385 2.544 2.544 0 0 1-.103 2.19h1.85l-.093-.09a.364.364 0 0 1 .009-.512.363.363 0 0 1 .512.009l.532.532c.016.02.03.042.043.064h1.61l-1.453-1.45a.357.357 0 1 1 .507-.504l1.893 1.893c.016.02.03.042.043.065h2.314l-7.782-7.786a.18.18 0 0 0-.253 0l-4.85 4.85a.179.179 0 0 0 0 .253l2.682 2.69Zm3.603-3.157a.998.998 0 0 0 0-1.429 1.004 1.004 0 1 0 0 1.429Z" fill="#003"/></svg>