<svg width="24" height="24" viewBox="0 0 24 24" xmlns="http://www.w3.org/2000/svg"><path d="M11.83 2c3.122 0 5.551.815 7.22 2.423 1.734 1.67 2.611 4.162 2.611 7.409 0 3.246-.88 5.737-2.61 7.406-1.67 1.608-4.099 2.423-7.222 2.423s-5.552-.815-7.218-2.423c-1.731-1.667-2.608-4.157-2.608-7.403 0-3.247.877-5.74 2.608-7.41C6.277 2.819 8.709 2 11.829 2zm0 1.09c-5.8 0-8.74 2.94-8.74 8.745 0 5.798 2.94 8.74 8.74 8.74 5.8 0 8.744-2.942 8.744-8.74 0-5.801-2.944-8.745-8.745-8.745zm4.646 4.434c.227.17.275.493.104.72l-5.765 7.72a.51.51 0 01-.403.207H10.4a.514.514 0 01-.404-.193L7.36 12.66a.515.515 0 01.803-.641l2.225 2.795 5.37-7.188a.514.514 0 01.72-.103z" fill="#313235" fill-rule="nonzero"/></svg>