<svg width="24" height="24" viewBox="0 0 24 24" xmlns="http://www.w3.org/2000/svg"><path d="M12.272 20.448c2.462-.045 8.185-.972 8.185-8.58 0-7.61-5.757-8.571-8.233-8.63a29.517 29.517 0 00-.723-.008h-.17c-2.437.022-8.104.902-8.104 8.58 0 7.694 5.72 8.607 8.18 8.641l.288.003c.204 0 .403-.003.577-.006zm-.017-18.437c1.93.045 9.431.807 9.431 9.86 0 9.073-7.515 9.776-9.392 9.812-.18.003-.386.006-.594.006-.103 0-.207-.003-.308-.003C9.417 21.656 2 20.941 2 11.812 2 2.695 9.347 2.017 11.322 2h.18c.257 0 .523.003.753.011zM11.84 15.34a.616.616 0 01-.616-.616V6.224a.616.616 0 011.233 0v8.499a.62.62 0 01-.617.616zm0 .837c.387 0 .7.314.703.7 0 .387-.313.701-.7.704h-.003a.701.701 0 010-1.404z" fill="#313235" fill-rule="nonzero"/></svg>