<?xml version="1.0" encoding="UTF-8"?>
<svg width="24px" height="24px" viewBox="0 0 24 24" version="1.1" xmlns="http://www.w3.org/2000/svg" xmlns:xlink="http://www.w3.org/1999/xlink">
    <title>1. Light/Acreditación_1Light</title>
    <g id="Symbols" stroke="none" stroke-width="1" fill="none" fill-rule="evenodd">
        <g id="1.-Light/Acreditación_1Light" fill="#5CB615" fill-rule="nonzero">
            <path d="M22.638798,19.1680672 L22.638798,4.60672269 C22.6453782,4.31428571 22.4134454,4.06890756 22.1176471,4.06218487 L1.50588235,4.06218487 C1.21008403,4.06890756 0.978151261,4.31092437 0.984731429,4.60672269 L0.984731429,19.1680672 C0.984731429,19.4705882 1.22016807,19.712605 1.50588235,19.712605 L22.1176471,19.712605 C22.410084,19.7058824 22.6453782,19.4605042 22.638798,19.1680672 Z M22.1176471,3.02689076 C22.9478992,3.02689076 23.6235294,3.73613445 23.6235294,4.60672269 L23.6235294,19.1680672 C23.6235294,20.0386555 22.9478992,20.7478992 22.1176471,20.7478992 L1.5092437,20.7478992 C0.675630252,20.7478992 0,20.0386555 0,19.1680672 L0,4.60672269 C0,3.73613445 0.675630252,3.02689076 1.50588235,3.02689076 L22.1176471,3.02689076 Z M10.6084034,13.5579832 C10.8806723,13.5579832 11.0991597,13.789916 11.0991597,14.0756303 C11.0991597,14.3613445 10.8806723,14.5932773 10.6084034,14.5932773 L2.61176471,14.5932773 C2.33277311,14.5865546 2.11092437,14.3546218 2.11764706,14.0756303 C2.11764706,13.789916 2.33613445,13.5579832 2.60840336,13.5579832 L10.6084034,13.5579832 Z M2.61176471,10.4554622 C2.33277311,10.4487395 2.11428571,10.2168067 2.1210084,9.93781513 C2.1210084,9.65210084 2.34285714,9.42016807 2.61176471,9.42016807 L8.03697479,9.42016807 C8.3092437,9.42016807 8.52773109,9.65210084 8.52773109,9.93781513 C8.52773109,10.2235294 8.3092437,10.4554622 8.03697479,10.4554622 L2.61176471,10.4554622 Z M16.4638655,8.74453782 C16.2756303,8.9394958 16.2352941,9.30252101 16.2352941,9.57478992 C16.2352941,9.84369748 16.2756303,10.2067227 16.4638655,10.3983193 C16.6487395,10.5831933 16.9848739,10.6235294 17.2369748,10.6235294 C17.4890756,10.6235294 17.8285714,10.5831933 18.0134454,10.3983193 C18.1647059,10.2436975 18.2453782,9.96806723 18.2453782,9.57478992 C18.2453782,9.18151261 18.1680672,8.90252101 18.0134454,8.74789916 C17.8252101,8.55630252 17.4890756,8.51596639 17.2369748,8.51596639 C16.9848739,8.51596639 16.6487395,8.55630252 16.4638655,8.74453782 L16.4638655,8.74453782 Z M17.2336134,11.6554622 C16.605042,11.6554622 16.1142857,11.4806723 15.7781513,11.1378151 C15.4252101,10.7848739 15.2470588,10.2571429 15.2470588,9.57142857 C15.2470588,8.88571429 15.4252101,8.35462185 15.7781513,7.99831933 C16.1142857,7.65546218 16.6084034,7.48067227 17.2336134,7.48067227 C17.8621849,7.48067227 18.3529412,7.65546218 18.692437,7.99831933 C19.0453782,8.35462185 19.2268908,8.88571429 19.2268908,9.57142857 C19.2268908,10.2571429 19.0487395,10.7848739 18.692437,11.1378151 C18.3529412,11.4840336 17.8621849,11.6554622 17.2336134,11.6554622 Z M14.692437,14.7882353 L19.7815126,14.7882353 C19.7680672,14.5260504 19.7042017,14.2033613 19.4857143,13.9680672 C19.210084,13.6689076 18.7697479,13.6084034 18.4470588,13.6084034 L16.0201681,13.6084034 C15.697479,13.6084034 15.2537815,13.6722689 14.9848739,13.9680672 C14.7731092,14.2 14.7058824,14.5260504 14.692437,14.7882353 L14.692437,14.7882353 Z M18.4470588,12.5697479 C19.1831933,12.5697479 19.7882353,12.805042 20.194958,13.2487395 C20.5714286,13.6588235 20.7697479,14.2235294 20.7697479,14.8890756 L20.7697479,15.5815126 C20.7731092,15.7092437 20.6722689,15.8168067 20.5445378,15.8201681 L13.9294118,15.8201681 C13.8016807,15.8168067 13.7008403,15.7092437 13.7042017,15.5815126 L13.7042017,14.8890756 C13.7042017,14.2235294 13.902521,13.6588235 14.2756303,13.2487395 C14.6823529,12.8016807 15.287395,12.5697479 16.0235294,12.5697479 L18.4470588,12.5697479 L18.4470588,12.5697479 Z" id="Acreditación_1Light"></path>
        </g>
    </g>
</svg>