<?xml version="1.0" encoding="UTF-8"?>
<svg width="24px" height="24px" viewBox="0 0 24 24" version="1.1" xmlns="http://www.w3.org/2000/svg" xmlns:xlink="http://www.w3.org/1999/xlink">
    <title>1. Light/Calendario_1Light</title>
    <defs>
        <filter id="filter-1">
            <feColorMatrix in="SourceGraphic" type="matrix" values="0 0 0 0 0.360784 0 0 0 0 0.713725 0 0 0 0 0.082353 0 0 0 1.000000 0"></feColorMatrix>
        </filter>
    </defs>
    <g id="Symbols" stroke="none" stroke-width="1" fill="none" fill-rule="evenodd">
        <g id="Calendario_1Light" filter="url(#filter-1)">
            <g transform="translate(0.000000, 2.000000)">
                <path d="M20.7260504,4.95603558e-13 C22.312605,4.95603558e-13 23.6,1.2907563 23.6,2.87394958 L23.6020801,4.88125912 C23.6029284,4.89102759 23.6033613,4.90092186 23.6033613,4.91092437 L23.6,4.939 L23.6,16.692437 C23.6,18.3327731 22.2655462,19.6672269 20.6252101,19.6672269 L2.87394958,19.6672269 C1.28739496,19.6672269 4.19088764e-10,18.3764706 4.19088764e-10,16.7932773 L4.19088764e-10,2.87394958 C4.19088764e-10,1.28739496 1.2907563,4.95603558e-13 2.87394958,4.95603558e-13 L20.7260504,4.95603558e-13 Z M22.937,5.243 L0.662,5.243 L0.662184874,16.7932773 C0.662184874,18.0134454 1.65378151,19.005042 2.87394958,19.005042 L20.6252101,19.005042 C21.8991597,19.005042 22.9378151,17.9663866 22.9378151,16.692437 L22.937,5.243 Z M11.4655462,8.48403361 C12.2588235,8.48403361 12.8470588,8.65882353 13.2369748,9.00504202 C13.5966387,9.32436975 13.7781513,9.77478992 13.7781513,10.3596639 C13.7781513,10.6521008 13.7378151,10.9210084 13.6537815,11.1663866 C13.5697479,11.4117647 13.4319328,11.6773109 13.2369748,11.9630252 C13.0420168,12.2487395 12.7596639,12.6084034 12.3932773,13.0453782 L10.6823529,15.0588235 L13.902521,15.0588235 L13.902521,15.7478992 L9.73445378,15.7478992 C9.70756303,15.6605042 9.69411765,15.5831933 9.69411765,15.5058824 C9.69411765,15.3613445 9.7210084,15.2268908 9.77815126,15.1058824 C9.83529412,14.9848739 9.94621849,14.8235294 10.1109244,14.6218487 L11.7478992,12.6218487 C12.1647059,12.107563 12.4571429,11.6907563 12.6218487,11.3647059 C12.789916,11.0420168 12.8705882,10.7193277 12.8705882,10.4 C12.8705882,9.9697479 12.7428571,9.6605042 12.4840336,9.4789916 C12.2285714,9.29411765 11.8453782,9.20336134 11.3378151,9.20336134 C10.8369748,9.20336134 10.3361345,9.25714286 9.83865546,9.36134454 L9.83865546,8.68235294 C10.3663866,8.5512605 10.907563,8.48403361 11.4655462,8.48403361 Z M20.7260504,0.662184874 L2.87394958,0.662184874 C1.65378151,0.662184874 0.662184874,1.65378151 0.662184874,2.87394958 L0.662,4.578 L22.937,4.578 L22.9378151,2.87394958 C22.9378151,1.65378151 21.9462185,0.662184874 20.7260504,0.662184874 Z M6.52436975,1.9697479 C6.93445378,1.9697479 7.17647059,2.21512605 7.17647059,2.62521008 C7.17647059,2.82352941 7.11932773,2.98487395 7.00840336,3.09915966 C6.88739496,3.21344538 6.72268908,3.27731092 6.5210084,3.27731092 C6.31932773,3.27731092 6.15462185,3.21680672 6.04033613,3.09915966 C5.92941177,2.98487395 5.87226891,2.82352941 5.87226891,2.62521008 C5.87226891,2.21512605 6.11428571,1.9697479 6.52436975,1.9697479 Z M17.0285714,1.9697479 C17.2201681,1.9697479 17.3815126,2.02689076 17.4957983,2.13445378 C17.6168067,2.25210084 17.6806723,2.41680672 17.6806723,2.62521008 C17.6806723,2.82352941 17.6235294,2.98487395 17.512605,3.09915966 C17.3915966,3.21344538 17.2268908,3.27731092 17.0252101,3.27731092 C16.8235294,3.27731092 16.6588235,3.21680672 16.5445378,3.09915966 C16.4336134,2.98487395 16.3764706,2.82352941 16.3764706,2.62521008 C16.3764706,2.21512605 16.6184874,1.9697479 17.0285714,1.9697479 Z" fill="#313235" fill-rule="nonzero"></path>
            </g>
        </g>
    </g>
</svg>