<?xml version="1.0" encoding="UTF-8"?>
<svg width="24px" height="24px" viewBox="0 0 24 24" version="1.1" xmlns="http://www.w3.org/2000/svg" xmlns:xlink="http://www.w3.org/1999/xlink">
    <title>1. Light/Enviar _1Light</title>
    <g id="Symbols" stroke="none" stroke-width="1" fill="none" fill-rule="evenodd">
        <g id="1.-Light/Enviar-_1Light" fill="#5CB615" fill-rule="nonzero">
            <path d="M0.978151261,0 C0.440336134,0 0,0.43697479 0,0.974789916 C0,1.04537815 0.00672268908,1.11596639 0.0235294118,1.18319328 L2.26218487,11.7310924 L0.0605042017,22.4470588 C-0.0168067227,22.8134454 0.124369748,23.1932773 0.423529412,23.4218487 C0.722689076,23.6504202 1.12268908,23.687395 1.45882353,23.5193277 L23.0823529,12.6285714 C23.5663866,12.3831933 23.7579832,11.794958 23.5159664,11.3109244 C23.4218487,11.1226891 23.2672269,10.9714286 23.0789916,10.8773109 L1.41512605,0.100840336 C1.28067227,0.0336134454 1.12941176,0 0.978151261,0 M0.978151261,0.978151261 L22.6420168,11.7512605 L1.01848739,22.6420168 L3.26386555,11.7243697 L0.978151261,0.978151261" id="Enviar-_1Light"></path>
        </g>
    </g>
</svg>