<?xml version="1.0" encoding="UTF-8"?>
<svg width="24px" height="24px" viewBox="0 0 24 24" version="1.1" xmlns="http://www.w3.org/2000/svg" xmlns:xlink="http://www.w3.org/1999/xlink">
    <title>1. Light/Otros _1Light</title>
    <g id="Symbols" stroke="none" stroke-width="1" fill="none" fill-rule="evenodd">
        <g id="1.-Light/Otros-_1Light" fill="#5CB615" fill-rule="nonzero">
            <path d="M19.7294118,22.1747899 L19.7294118,7.92605042 L16.6739496,7.92605042 C15.5042017,7.92605042 14.502521,7.5394958 13.7663866,6.82352941 C13.0302521,6.09747899 12.6369748,5.11596639 12.6369748,3.96302521 L12.6369748,0.994957983 L4.45882353,0.994957983 C4.24369748,0.994957983 3.97815126,1.24369748 3.97815126,1.45210084 L3.97815126,8.36302521 L4.02857143,18.1445378 L3.97815126,22.1848739 C3.97815126,22.4033613 4.22352941,22.6319328 4.45882353,22.6319328 L19.2487395,22.6319328 C19.4941176,22.6319328 19.7294118,22.4134454 19.7294118,22.1747899 L19.7294118,22.1747899 Z M13.6218487,1.21008403 L13.6218487,3.95966387 C13.6218487,4.83361345 13.907563,5.57983193 14.4588235,6.10420168 C15,6.63865546 15.7764706,6.92773109 16.6773109,6.92773109 L19.4638655,6.92773109 L13.6218487,1.21008403 Z M20.6739496,6.90084034 C20.6941176,6.97142857 20.7142857,7.02857143 20.7142857,7.09915966 L20.7142857,22.1714286 C20.7142857,22.9546218 20.0352941,23.6201681 19.2521008,23.6201681 L4.46218487,23.6201681 C3.68571429,23.6201681 3,22.9445378 3,22.1714286 L3.05042017,18.1411765 L3,8.3697479 L3,1.4487395 C3,0.692436975 3.69915966,0 4.46218487,0 L13.4672269,0 C13.6756303,0 13.8907563,0.0907563025 14.0352941,0.238655462 L20.4689076,6.51428571 C20.5731092,6.62184874 20.6336134,6.76302521 20.6739496,6.90084034 Z M15.712605,15.9663866 C15.712605,16.4941176 15.3394958,16.8705882 14.8386555,16.8705882 C14.3176471,16.8705882 13.9445378,16.4941176 13.9445378,15.9865546 L13.9445378,15.9663866 C13.9445378,15.4689076 14.3277311,15.0722689 14.8184874,15.0722689 C15.3294118,15.0756303 15.712605,15.4722689 15.712605,15.9663866 L15.712605,15.9663866 Z M12.4218487,15.9663866 C12.4218487,16.4941176 12.0386555,16.8705882 11.5378151,16.8705882 C11.0268908,16.8705882 10.6436975,16.4941176 10.6436975,15.9865546 L10.6436975,15.9663866 C10.6436975,15.4689076 11.0268908,15.0722689 11.5277311,15.0722689 C12.0319328,15.0756303 12.4218487,15.4722689 12.4218487,15.9663866 L12.4218487,15.9663866 Z M9.12436975,15.9663866 C9.12436975,16.4941176 8.74117647,16.8705882 8.24033613,16.8705882 C7.72941176,16.8705882 7.34621849,16.4941176 7.34621849,15.9865546 L7.34621849,15.9663866 C7.34621849,15.4689076 7.7394958,15.0722689 8.2302521,15.0722689 C8.74117647,15.0756303 9.12436975,15.4722689 9.12436975,15.9663866 L9.12436975,15.9663866 Z" id="Otros-_1Light"></path>
        </g>
    </g>
</svg>