<?xml version="1.0" encoding="UTF-8"?>
<svg width="24px" height="24px" viewBox="0 0 24 24" version="1.1" xmlns="http://www.w3.org/2000/svg" xmlns:xlink="http://www.w3.org/1999/xlink">
    <title>1. Light/Pastilla _1Light</title>
    <g id="Symbols" stroke="none" stroke-width="1" fill="none" fill-rule="evenodd">
        <g id="1.-Light/Pastilla-_1Light" fill="#5CB615" fill-rule="nonzero">
            <path d="M16.7764706,14.9714286 C16.7226891,14.9680672 16.6689076,14.9747899 16.6151261,14.9882353 C15.0621849,15.4823529 13.2235294,14.6857143 11.1495798,12.6084034 C9.08571429,10.5445378 8.35294118,8.27226891 8.83697479,6.72605042 C8.8605042,6.64537815 9.91596639,5.58991597 12,3.55966387 C12.107563,3.43529412 12.2285714,3.32436975 12.3495798,3.20672269 L12.5546218,3.00504202 C13.8991597,1.66386555 15.2504202,0.991596639 16.6016807,0.991596639 C17.9529412,0.991596639 19.3042017,1.66386555 20.6453782,3.00504202 C23.2907563,5.65042017 23.3310924,8.32941176 20.7731092,10.9714286 L16.7764706,14.9714286 L16.7764706,14.9714286 Z M11.1294118,20.6184874 L11.0319328,20.7159664 C10.9848739,20.7697479 10.9310924,20.8201681 10.8773109,20.8672269 C8.28235294,23.297479 5.64705882,23.2134454 3.04201681,20.6117647 C0.356302521,17.9260504 0.352941176,15.2067227 3.03193277,12.5277311 L3.23697479,12.312605 C3.3512605,12.1915966 3.46218487,12.0739496 3.61008403,11.9462185 L7.63697479,7.91932773 C7.57310924,9.57647059 8.49747899,11.3848739 10.4336134,13.3210084 C12.2789916,15.1697479 14.0168067,16.107563 15.610084,16.1344538 L11.1294118,20.6184874 Z M11.8453782,2.29915966 L11.6537815,2.48067227 C11.5092437,2.62184874 11.3647059,2.75630252 11.2638655,2.87731092 L2.93781513,11.2067227 C2.79663866,11.3310924 2.65882353,11.4722689 2.51764706,11.6201681 L2.32605042,11.8151261 C-0.736134454,14.8773109 -0.732773109,18.2521008 2.33277311,21.3176471 C3.86890756,22.8571429 5.48907563,23.6235294 7.10252101,23.6235294 C8.61176471,23.6235294 10.1142857,22.9546218 11.5428571,21.6168067 C11.6201681,21.5529412 11.687395,21.4823529 11.7579832,21.405042 L21.4857143,11.6773109 C24.4201681,8.6487395 24.3731092,5.31764706 21.3512605,2.30252101 C18.2890756,-0.766386555 14.9142857,-0.766386555 11.8453782,2.29915966 L11.8453782,2.29915966 Z" id="Pastilla-_1Light"></path>
        </g>
    </g>
</svg>