<?xml version="1.0" encoding="UTF-8"?>
<svg width="24px" height="24px" viewBox="0 0 24 24" version="1.1" xmlns="http://www.w3.org/2000/svg" xmlns:xlink="http://www.w3.org/1999/xlink">
    <title>1. Light/Tanto por ciento % _1light</title>
    <g id="Symbols" stroke="none" stroke-width="1" fill="none" fill-rule="evenodd">
        <g id="1.-Light/Tanto-por-ciento-%-_1light" fill="#5CB615" fill-rule="nonzero">
            <path d="M11.8084034,22.6386555 C18.994958,22.6386555 22.6386555,18.9983193 22.6386555,11.8151261 C22.6386555,4.62857143 18.994958,0.98487395 11.8084034,0.98487395 C4.62521008,0.98487395 0.98487395,4.62857143 0.98487395,11.8151261 C0.98487395,18.9983193 4.62521008,22.6386555 11.8084034,22.6386555 Z M11.8084034,0 C19.2705882,0 23.6235294,3.76806723 23.6235294,11.8151261 C23.6235294,19.8621849 19.2705882,23.6235294 11.8084034,23.6235294 C4.34621849,23.6235294 0,19.8621849 0,11.8151261 C0,3.76806723 4.34621849,0 11.8084034,0 Z M14.5983193,16.2453782 C15.3579832,16.2453782 15.6033613,16 15.6033613,15.2436975 C15.6033613,14.4840336 15.3579832,14.2386555 14.5983193,14.2386555 C13.8386555,14.2386555 13.5966387,14.4840336 13.5966387,15.2436975 C13.5966387,16.0033613 13.8386555,16.2453782 14.5983193,16.2453782 Z M14.5983193,13.2571429 C15.8521008,13.2571429 16.5882353,13.892437 16.5882353,15.2470588 C16.5882353,16.5983193 15.8554622,17.2336134 14.5983193,17.2336134 C13.3445378,17.2336134 12.6117647,16.5983193 12.6117647,15.2470588 C12.6117647,13.8957983 13.3411765,13.2571429 14.5983193,13.2571429 L14.5983193,13.2571429 Z M9.02521008,7.58655462 C8.26890756,7.58655462 8.02352941,7.83193277 8.02352941,8.59159664 C8.02352941,9.34789916 8.26890756,9.59327731 9.02521008,9.59327731 C9.78487395,9.59327731 10.0302521,9.3512605 10.0302521,8.59159664 C10.0268908,7.82857143 9.78151261,7.58655462 9.02521008,7.58655462 L9.02521008,7.58655462 Z M9.02521008,10.5747899 C7.77142857,10.5747899 7.03865546,9.94285714 7.03865546,8.58823529 C7.03865546,7.23361345 7.77142857,6.59831933 9.02521008,6.59831933 C10.2789916,6.59831933 11.0151261,7.23361345 11.0151261,8.58823529 C11.0151261,9.94285714 10.2789916,10.5747899 9.02521008,10.5747899 Z M16.2857143,6.06722689 C16.5008403,6.23193277 16.5378151,6.54117647 16.3731092,6.75630252 L8.04033613,17.4722689 C7.87226891,17.687395 7.56302521,17.7243697 7.3512605,17.5596639 C7.13613445,17.3915966 7.09915966,17.0823529 7.26386555,16.8705882 L15.5932773,6.1512605 C15.7579832,5.93613445 16.0638655,5.89579832 16.2789916,6.0605042 L16.2857143,6.06722689 L16.2857143,6.06722689 Z" id="Tanto-por-ciento-%-_1light"></path>
        </g>
    </g>
</svg>