<svg width="24" height="24" fill="none" xmlns="http://www.w3.org/2000/svg"><path d="M5.682 2h12.632c.38 0 .682.31.686.694V21h-8.877v-5.181h-1.71v5.177H5V2.69c0-.38.306-.69.682-.69Zm5.804 17.616h6.146V3.384H6.364v16.232h.682v-5.18h4.44v5.18Zm-4.44-7.082h4.44V9.427h-4.44v3.107Zm3.413-2.068V11.5H8.07v-1.034h2.39Zm2.05 2.068h4.441V9.427h-4.44v3.107Zm3.414-2.068V11.5h-2.391v-1.034h2.39Zm-3.414 7.077h4.441v-3.108h-4.44v3.108Zm3.414-2.073v1.034h-2.391V15.47h2.39ZM7.046 7.703h4.44V4.59h-4.44v3.112Zm3.413-2.074v1.035H8.07V5.629h2.39Zm2.05 2.074h4.441V4.59h-4.44v3.112Zm3.414-2.074v1.035h-2.391V5.629h2.39Z" fill="#003"/></svg>