<svg width="24" height="24" fill="none" xmlns="http://www.w3.org/2000/svg"><path d="M16.248 4.02h1.706c1.125 0 2.046.917 2.046 2.037V22H5V6.053c0-1.12.92-2.037 2.046-2.037h1.706V3h7.496v1.02ZM8.582 8.773h7.836c.275 0 .515.239.515.508s-.24.508-.51.508H8.581a.525.525 0 0 1-.51-.508c0-.27.24-.508.51-.508Zm7.836 2.714H8.582c-.27 0-.51.239-.51.508 0 .27.24.508.51.508h7.84c.27 0 .51-.239.51-.508 0-.27-.24-.508-.514-.508Zm0 2.714H8.582c-.27 0-.51.24-.51.508 0 .27.24.508.51.508h7.84c.27 0 .51-.238.51-.508 0-.269-.24-.508-.514-.508Zm0 2.715H8.582c-.27 0-.51.238-.51.508 0 .269.24.508.51.508h7.84c.27 0 .51-.24.51-.508 0-.27-.24-.508-.514-.508ZM9.738 4.02v1.698h5.489V4.02H9.738ZM6.366 20.645h12.268V6.053a.68.68 0 0 0-.68-.677h-1.702v1.359h-7.5V5.38H7.046a.68.68 0 0 0-.68.677v14.588Z" fill="#003"/></svg>