<svg width="24" height="24" fill="none" xmlns="http://www.w3.org/2000/svg"><path d="M5 2v20h13.793V2H5Zm6.532 12.963H7.174v-4.072h4.358v4.072ZM10.445 12h-2.18v1.854h2.18V12Zm5.988.74a.547.547 0 0 1-.543.554h-2.904a.547.547 0 0 1-.544-.554c0-.309.242-.555.544-.555h2.903c.298 0 .544.251.544.555Zm-4.901 7.04H7.174v-4.072h4.358v4.073Zm-3.266-2.963v1.854h2.179v-1.854h-2.18Zm7.623 1.665a.547.547 0 0 0 .544-.555.55.55 0 0 0-.543-.555h-2.904a.547.547 0 0 0-.544.555c0 .308.242.555.544.555h2.903ZM6.45 9.037V5.518h10.89v3.519H6.449Zm10.89-5.558v.925H6.449v-.925h10.89Zm0 17.042H6.449V10.146h10.89v10.375Z" fill="#003"/></svg>