<svg width="24" height="24" fill="none" xmlns="http://www.w3.org/2000/svg"><path d="M15.393 16.92a3.692 3.692 0 0 1 2.903-1.424c2.04 0 3.704 1.688 3.704 3.754S20.337 23 18.296 23c-2.04 0-3.704-1.684-3.704-3.75 0-.344.046-.672.129-.987l-6.114-3.439a3.692 3.692 0 0 1-2.903 1.424c-2.04 0-3.704-1.684-3.704-3.75s1.663-3.75 3.704-3.75c1.058 0 2.011.454 2.688 1.176L14.72 6.72a3.72 3.72 0 0 1-.129-.97c0-2.066 1.664-3.75 3.704-3.75S22 3.675 22 5.741s-1.663 3.75-3.704 3.75a3.683 3.683 0 0 1-2.912-1.436L9.18 11.196c.149.408.228.844.228 1.298 0 .344-.046.672-.129.986l6.114 3.44Zm5.126-11.17c0-1.243-1-2.25-2.223-2.25-1.228 0-2.223 1.007-2.223 2.25S17.068 8 18.296 8c1.228 0 2.223-1.007 2.223-2.25ZM5.704 14.749c1.228 0 2.223-1.012 2.223-2.251 0-1.243-.995-2.25-2.223-2.25-1.228 0-2.223 1.011-2.223 2.25 0 1.243 1 2.25 2.223 2.25Zm10.369 4.497c0 1.243 1 2.25 2.223 2.25 1.224 0 2.223-1.007 2.223-2.25s-.995-2.25-2.223-2.25c-1.228 0-2.223 1.007-2.223 2.25Z" fill="#003"/></svg>