<svg width="24" height="24" fill="none" xmlns="http://www.w3.org/2000/svg"><path d="M20.788 1.218a.687.687 0 0 1 1.005 0 .768.768 0 0 1-.005 1.055l-1.213 1.273v9.513c0 .597-.218 1.155-.622 1.58l-6.39 6.707A2.073 2.073 0 0 1 12.06 22c-.545 0-1.09-.22-1.504-.654l-7.933-8.33A2.28 2.28 0 0 1 2 11.438c0-.596.218-1.154.623-1.579l6.393-6.712c.4-.42.936-.654 1.504-.654h9.055l1.213-1.274Zm-1.84 12.366a.759.759 0 0 0 .21-.53V5.04l-.919.963a.682.682 0 0 1-1 0 .773.773 0 0 1 0-1.054l.914-.968h-7.638a.696.696 0 0 0-.5.219l-6.388 6.708a.767.767 0 0 0 0 1.054l7.929 8.33a.686.686 0 0 0 1.004 0l6.388-6.708Zm-2.094-2.519c-2.39 0-4.262-2.046-4.262-4.66a.543.543 0 0 0-.532-.559.543.543 0 0 0-.532.558c0 2.615-1.872 4.661-4.262 4.661a.543.543 0 0 0-.531.558c0 .31.236.559.531.559 2.508 0 4.262 1.76 4.262 4.284 0 .31.237.558.532.558a.543.543 0 0 0 .531-.558c0-2.524 1.754-4.284 4.263-4.284a.543.543 0 0 0 .531-.559c0-.31-.24-.558-.531-.558Zm-7.189.52c1.045-.558 1.886-1.479 2.395-2.619.509 1.14 1.35 2.061 2.394 2.62a4.997 4.997 0 0 0-2.394 2.409 4.996 4.996 0 0 0-2.395-2.41Z" fill="#003"/></svg>