<svg width="24" height="24" fill="none" xmlns="http://www.w3.org/2000/svg"><path d="M21.959 4.051a.547.547 0 0 0-.508-.355h-2.02v-2.12a.583.583 0 0 0-.338-.532.539.539 0 0 0-.601.123l-2.57 2.697a.593.593 0 0 0-.16.41v2.455l-1.009 1.06a7.552 7.552 0 0 0-2.804-1.627 7.334 7.334 0 0 0-5.872.606C4.26 7.784 2.93 9.485 2.333 11.551c-1.235 4.27 1.071 8.797 5.134 10.094a7.395 7.395 0 0 0 2.25.355c1.25 0 2.49-.32 3.622-.957 1.818-1.015 3.147-2.716 3.744-4.783a8.444 8.444 0 0 0-.4-5.789c-.173-.384-.61-.552-.976-.37a.788.788 0 0 0-.353 1.026c.658 1.47.77 3.131.324 4.685-.484 1.671-1.56 3.047-3.03 3.875a5.943 5.943 0 0 1-4.753.489C4.602 19.12 2.737 15.456 3.733 12c.484-1.671 1.56-3.047 3.03-3.876a5.942 5.942 0 0 1 4.754-.488A6.075 6.075 0 0 1 13.7 8.89L12.4 10.255a4.24 4.24 0 0 0-2.697-.977c-2.428 0-4.406 2.076-4.406 4.625 0 2.55 1.978 4.626 4.406 4.626 2.429 0 4.406-2.076 4.406-4.626a4.734 4.734 0 0 0-.93-2.83l3.359-3.525h2.34c.145 0 .286-.06.389-.168l2.57-2.697a.6.6 0 0 0 .122-.631Zm-9.32 9.852c0 1.702-1.315 3.082-2.936 3.082-1.62 0-2.935-1.38-2.935-3.082 0-1.7 1.315-3.081 2.935-3.081.611 0 1.18.197 1.65.532l-2.04 2.14a.598.598 0 0 0 0 .819.534.534 0 0 0 .78 0l2.039-2.14c.32.493.507 1.09.507 1.73Zm4.223-7.514V4.51l1.466-1.538v1.301c0 .32.244.577.55.577h1.24L18.651 6.39h-1.79Z" fill="#003"/></svg>