<svg width="24" height="24" fill="none" xmlns="http://www.w3.org/2000/svg"><path d="M18.658 8.274a6.297 6.297 0 0 1-2.838 5.273c3.644.996 6.18 3.602 6.18 6.737a.71.71 0 0 1-.703.716.71.71 0 0 1-.702-.716c0-3.162-3.631-5.737-8.095-5.737s-8.095 2.575-8.095 5.737a.71.71 0 0 1-.702.716.71.71 0 0 1-.703-.716c0-3.134 2.536-5.741 6.18-6.737a6.297 6.297 0 0 1-2.838-5.273C6.342 4.814 9.104 2 12.5 2c3.396 0 6.158 2.813 6.158 6.274ZM12.5 3.432c-2.622 0-4.752 2.17-4.752 4.842 0 2.666 2.13 4.837 4.752 4.837s4.752-2.166 4.752-4.837-2.13-4.842-4.752-4.842Z" fill="#003"/></svg>