<svg width="24" height="24" fill="none" xmlns="http://www.w3.org/2000/svg"><path d="M16.38 13.473c.11.05.224.075.34.075a.779.779 0 0 0 .534-.21l4.21-4.148a.757.757 0 0 0 0-1.132l-4.21-4.179c-.011-.014-.025-.025-.039-.036a.788.788 0 0 0-.832-.101.754.754 0 0 0-.437.683l-.014 1.824-2.905.003c-.663 0-1.201.537-1.201 1.201v2.32c0 .663.537 1.201 1.201 1.201l2.902-.005.014 1.823a.758.758 0 0 0 .437.68Zm.67-2.883a.772.772 0 0 0-.768-.745c-.005 0-.008 0-.01-.002l-3.242.005a.081.081 0 0 1-.081-.081v-2.32c0-.044.036-.08.081-.08l3.252-.003c.412 0 .754-.331.768-.746v-.01l.011-1.35 3.384 3.358-3.384 3.339-.011-1.353v-.012ZM6.997 20.095a.774.774 0 0 1-.496-.177c-.014-.011-.028-.022-.04-.036l-4.207-4.174a.754.754 0 0 1 0-1.129l4.21-4.154a.793.793 0 0 1 .874-.135c.27.13.434.39.437.681l.014 1.821 2.902-.005c.664 0 1.202.537 1.202 1.201v2.32c0 .663-.538 1.201-1.202 1.201l-2.907.006-.014 1.823a.754.754 0 0 1-.437.684.825.825 0 0 1-.336.073Zm-.342-1.597.011-1.347v-.011a.77.77 0 0 1 .779-.746l3.238-.002a.081.081 0 0 0 .081-.082v-2.319a.081.081 0 0 0-.081-.081l-3.238.005a.768.768 0 0 1-.779-.745v-.01l-.011-1.351-3.378 3.336 3.378 3.353Z" fill="#313235"/></svg>