<svg width="24" height="24" fill="none" xmlns="http://www.w3.org/2000/svg"><path d="M12.067 5c.871 0 1.518.655 1.518 1.457v11.706c0 .798-.641 1.448-1.43 1.448-3.287 0-5.023-1.359-5.945-2.642l-3.4.003a.801.801 0 0 1-.799-.804L2 8.46a.805.805 0 0 1 .798-.806l3.426-.003C7.148 6.36 8.88 5 12.067 5Zm.206 13.54V6.147c-2.275.036-4.157.728-5.131 2.186-.01.028-.031.047-.052.067a.263.263 0 0 0-.04.046.775.775 0 0 1-.184.232l-.012.008-.012.01a.816.816 0 0 1-.52.177H3.185l.01 6.962h3.118c.327 0 .603.101.746.374.006.012.016.02.026.03a.104.104 0 0 1 .033.042c.965 1.47 2.877 2.227 5.155 2.257ZM18.78 6.055c.369.34.854.909 1.344 1.737a9.231 9.231 0 0 1 1.296 4.287l.01.372c.022.563-.036 1.402-.273 2.397-.385 1.623-1.134 3.058-2.339 4.146a.534.534 0 0 1-.364.14.556.556 0 0 1-.365-.973c1.041-.94 1.683-2.201 2.012-3.63.083-.36.141-.718.18-1.04l.035-.364c.023-.284.026-.516.014-.655a8.183 8.183 0 0 0-1.14-4.09c-.422-.722-.89-1.276-1.146-1.5a.563.563 0 0 1-.04-.786c.183-.2.48-.236.699-.1l.077.059ZM16.004 8.293c.24.222.548.581.867 1.111a6.03 6.03 0 0 1 .868 2.773l.011.313c.08 1.238-.355 3.06-1.719 4.29a.546.546 0 0 1-.775-.045.562.562 0 0 1 .046-.788c1.068-.963 1.46-2.663 1.346-3.456-.013-1.565-.705-2.767-1.378-3.37a.563.563 0 0 1-.03-.786.54.54 0 0 1 .688-.1l.076.058Z" fill="#313235"/></svg>