<svg width="24" height="24" fill="none" xmlns="http://www.w3.org/2000/svg"><path d="M17.8 7.544c0-1.053-.275-1.832-.84-2.384-.566-.555-1.373-.824-2.46-.824h-.188V3.67c0-.474-.134-.849-.406-1.112-.269-.266-.655-.398-1.146-.398h-2.224c-.487 0-.874.134-1.142.406-.27.263-.407.636-.407 1.104v.666H8.8c-1.079 0-1.883.275-2.457.84-.568.558-.843 1.331-.843 2.368v11.092c0 1.065.277 1.849.849 2.398.566.546 1.367.812 2.448.812h5.706c1.081 0 1.882-.266 2.448-.812.571-.55.849-1.333.849-2.398V7.544ZM9.853 3.67c0-.359.118-.474.157-.51.039-.04.157-.154.53-.154h2.223c.379 0 .493.112.53.148v.001c.038.037.151.15.151.515v.666H9.853V3.67Zm7.078 14.966c-.002.826-.196 1.415-.59 1.796-.396.38-.998.566-1.838.566H8.797c-.843 0-1.443-.185-1.838-.566-.397-.381-.59-.97-.59-1.796V7.544c0-.804.193-1.381.59-1.773.404-.395 1.003-.589 1.838-.589h5.706c.843 0 1.445.188 1.84.575.395.383.588.969.588 1.787v11.092ZM15.211 18c0 .661-.554 1.2-1.232 1.2H9.318c-.68 0-1.233-.539-1.233-1.2V7.463h7.126V18Zm.869-10.96a.427.427 0 0 0-.434-.423H7.648a.429.429 0 0 0-.434.423V18c0 1.13.944 2.045 2.104 2.045h4.658c1.163 0 2.104-.916 2.104-2.045V7.04Z" fill="#313235"/></svg>