<svg width="24" height="24" fill="none" xmlns="http://www.w3.org/2000/svg"><path d="M21.642 8.055a.533.533 0 0 1 .012.23c.016.09.03.18.033.28v11.447c0 .925-.818 1.678-1.826 1.678H3.829c-1.008 0-1.826-.753-1.826-1.678V8.565c0-.162.03-.316.078-.465.002-.007.002-.013.002-.02v-.019l1.334-4.739c.048-.734.77-1.32 1.653-1.32h13.547c.88 0 1.6.583 1.653 1.317l1.372 4.736Zm-2.82-4.652c0-.098-.093-.173-.207-.176H13.95l.462 3.655h5.398l-.967-3.333a.428.428 0 0 1-.022-.146Zm-13.96 0a.502.502 0 0 1-.02.143l-.94 3.339h5.041L9.33 3.23H5.07c-.115 0-.208.078-.208.173Zm14.993 17.052c.202 0 .378-.21.378-.448V8.56c0-.238-.176-.449-.378-.449h-5.36l.002 2.462c0 .34-.325.614-.725.614H9.593c-.4 0-.725-.275-.725-.614V8.111H3.823c-.201 0-.375.21-.375.449v11.447c0 .238.174.448.375.448h16.032ZM13.05 8.11h-2.73v1.846h2.73V8.111Zm-.092-1.23-.465-3.649H10.78l-.387 3.65h2.563Z" fill="#313235"/></svg>