<svg width="24" height="24" fill="none" xmlns="http://www.w3.org/2000/svg"><path d="M16.933 7.182h3.46c.806 0 1.453.653 1.453 1.463v11.73c0 .813-.65 1.471-1.454 1.471H3.62c-.804 0-1.46-.66-1.46-1.47V8.645c0-.81.656-1.463 1.46-1.463h3.454v-.355c0-2.569 2.174-4.667 4.84-4.667h.188c2.667 0 4.832 2.098 4.832 4.667v.355Zm-8.63-.355v.355h7.4v-.355c0-1.883-1.616-3.429-3.602-3.429h-.188c-1.986 0-3.61 1.546-3.61 3.429Zm12.313 5.462V8.647a.222.222 0 0 0-.22-.224H3.621a.23.23 0 0 0-.23.224v3.527c1.656 1.305 4.348 1.89 8.687 1.89 4.232 0 6.874-.554 8.537-1.775Zm-9.196 4.146h1.174v-1.132H11.42v1.131Zm8.975 4.17a.222.222 0 0 0 .221-.23h-.002v-6.621c-1.591.91-3.734 1.39-6.793 1.512v1.39a.94.94 0 0 1-.434.818c-.205.131-.46.199-.787.199h-1.196c-.32 0-.583-.068-.787-.2a.955.955 0 0 1-.43-.817V15.26c-3.075-.14-5.215-.644-6.797-1.586v6.7c0 .132.106.23.23.23h16.775Z" fill="#313235"/></svg>