<svg width="24" height="24" fill="none" xmlns="http://www.w3.org/2000/svg"><path d="M21.686 5.929c0-.774-.652-1.404-1.456-1.404H3.46c-.807 0-1.46.63-1.46 1.404v11.958c0 .773.655 1.403 1.46 1.403h16.77c.804 0 1.456-.63 1.456-1.403V5.929ZM3.46 5.707h16.774c.125 0 .226.098.226.219v1.73H3.232v-1.73c0-.12.101-.219.227-.219Zm16.77 12.398v-.003H3.458a.224.224 0 0 1-.227-.218V8.842h17.227v9.045c0 .12-.101.218-.227.218ZM6.158 7.15a.558.558 0 0 1-.569-.55c0-.304.255-.548.569-.548.316 0 .568.246.568.549a.558.558 0 0 1-.568.549Zm1.14-.55c0 .303.252.55.569.55a.556.556 0 0 0 .568-.55.558.558 0 0 0-.568-.548.558.558 0 0 0-.57.549Zm-2.852.55a.558.558 0 0 1-.568-.55c0-.304.252-.548.568-.548.317 0 .569.246.569.549a.556.556 0 0 1-.569.549Zm4.398 4.77a.54.54 0 0 0 .04-.781.585.585 0 0 0-.81-.037l-2.34 2.045a.54.54 0 0 0-.187.406c0 .154.067.303.185.406l2.339 2.082c.11.1.252.148.39.148a.579.579 0 0 0 .42-.176.539.539 0 0 0-.031-.782l-1.88-1.672 1.874-1.639Zm6.684-.82 2.339 2.044a.545.545 0 0 1 .187.406.549.549 0 0 1-.185.41l-2.339 2.08a.59.59 0 0 1-.81-.03.539.539 0 0 1 .032-.782l1.88-1.672-1.875-1.639a.539.539 0 0 1-.039-.781.59.59 0 0 1 .81-.037Zm-2.255.66a.544.544 0 0 0-.289-.73.58.58 0 0 0-.759.282l-1.896 4.079a.542.542 0 0 0 .288.728.63.63 0 0 0 .236.048.578.578 0 0 0 .523-.328l1.897-4.079Z" fill="#313235"/></svg>