<svg width="24" height="24" fill="none" xmlns="http://www.w3.org/2000/svg"><path d="M18.462 9.958c0-1.63-.644-2.815-1.829-3.398a.899.899 0 0 0 .017-.213V3.423c0-.784-.636-1.423-1.417-1.423H8.49c-.781 0-1.417.639-1.417 1.423v2.924c0 .093.011.182.028.27-.263.14-.51.302-.72.506-.695.67-1.045 1.622-1.045 2.835v7.924c0 1.213.35 2.166 1.04 2.835.663.644 1.588.97 2.747.97h5.566c2.356 0 3.765-1.424 3.765-3.805l.008-7.924ZM8.272 3.423c0-.123.1-.224.221-.221h6.742c.12 0 .222.098.222.221v2.924a.22.22 0 0 1-.222.222H8.493a.222.222 0 0 1-.221-.222V3.423Zm6.417 17.064v.003H9.126c-.84 0-1.482-.213-1.916-.633a2.023 2.023 0 0 1-.44-.683h10.258c-.358.865-1.134 1.313-2.339 1.313Zm1.252-12.913c.672.27 1.093.807 1.25 1.602H6.613c.101-.49.295-.896.597-1.187.174-.165.39-.289.625-.39.196.107.42.171.658.171h6.742c.26 0 .499-.075.706-.196ZM6.532 17.882h.003v-7.507h10.731l-.008 7.507c0 .016-.002.03-.003.045l-.003.045H6.538l-.003-.045-.003-.045ZM9.305 6.031a.598.598 0 0 1-.596-.6V4.314a.6.6 0 0 1 .596-.6.6.6 0 0 1 .597.6V5.43c.003.33-.266.6-.597.6Zm1.112-.6a.598.598 0 1 0 1.194 0V4.314a.6.6 0 0 0-.597-.6.6.6 0 0 0-.597.6V5.43Zm2.303.6a.598.598 0 0 1-.597-.6V4.314a.6.6 0 0 1 .597-.6.6.6 0 0 1 .597.6V5.43c0 .33-.267.6-.597.6Zm1.11-.6a.598.598 0 1 0 1.192 0V4.314c0-.33-.266-.6-.596-.6a.6.6 0 0 0-.597.6V5.43Zm.27 9.185-1.795.006v1.804h-.862l-.003-1.804H9.644v-.866l1.796-.002V11.95h.863v1.804H14.1v.862Zm1.037-.994c0-.493-.44-.908-.96-.908l-.84.003v-.84c0-.521-.415-.964-.906-.964h-1.128c-.49 0-.905.443-.905.964v.84h-.835c-.53 0-.96.409-.96.908v1.131c0 .502.43.908.96.908h.838v.837c0 .533.406.964.904.964h1.13c.498 0 .904-.431.904-.964v-.843h.838c.52 0 .96-.414.96-.904v-1.132Z" fill="#313235"/></svg>