<svg width="24" height="24" fill="none" xmlns="http://www.w3.org/2000/svg"><path d="M21.714 5.073c0-1.132-.876-1.97-2.616-2.49-1.19-.353-2.759-.555-4.406-.56-1.642 0-3.202.198-4.4.554-1.435.434-2.286 1.092-2.536 1.952v.009a2.027 2.027 0 0 0-.072.53v4.38a.956.956 0 0 0-.146.177L2.128 20.28a.864.864 0 0 0-.103.451.936.936 0 0 0 .925.924h.016l10.737.04h.042c.014 0 .027.002.039.005l.026.003c.17.009.725.009.885.009 1.636 0 3.204-.194 4.403-.555 1.74-.521 2.616-1.356 2.616-2.482V5.073ZM10.65 3.739c1.076-.322 2.518-.507 4.048-.51 1.529 0 2.969.186 4.056.508.683.21 1.479.554 1.697 1.061-.176.404-.77.773-1.689 1.045-1.087.33-2.527.507-4.056.507-1.521 0-2.96-.176-4.048-.507-.932-.272-1.52-.65-1.689-1.059.177-.392.757-.764 1.68-1.045Zm9.857 5.77c-.202.32-.748.771-1.748 1.068-1.087.33-2.518.507-4.047.507-1.53 0-2.97-.176-4.056-.507a5.074 5.074 0 0 1-1.216-.53l-.202-.408a.959.959 0 0 0-.347-.37V6.392c.378.233.854.44 1.417.61 1.19.362 2.754.555 4.395.555 1.644 0 3.205-.193 4.404-.554a6.226 6.226 0 0 0 1.4-.594v3.1ZM7.742 17.536a.601.601 0 1 0 1.205 0v-3.89a.603.603 0 0 0-1.205 0v3.89Zm1.216 1.552a.613.613 0 1 0-1.226 0 .613.613 0 0 0 1.226 0Zm11.55-7.972v3.143c-.203.33-.749.781-1.749 1.073-1.087.322-2.518.507-4.047.507-.852 0-1.706-.065-2.471-.177l-1.964-3.944c.003.005.01.007.016.009.005.002.011.004.015.008 1.194.353 2.762.555 4.404.555 1.641 0 3.201-.202 4.395-.555a6.037 6.037 0 0 0 1.4-.62Zm0 7.563c0 .658-.959 1.084-1.76 1.33-1.093.328-2.535.505-4.056.505h-.079c-.006-.02-.01-.042-.013-.064a.361.361 0 0 0-.034-.113l-1.69-3.384c.598.054 1.2.096 1.836.096 1.641 0 3.201-.202 4.395-.563a5.703 5.703 0 0 0 1.4-.62v2.813ZM3.405 20.454l4.98-9.821 4.911 9.86-9.89-.04Z" fill="#313235"/></svg>