<svg width="24" height="24" fill="none" xmlns="http://www.w3.org/2000/svg"><path d="M21.325 4.972a.62.62 0 0 0-.241-.843l-3.675-2.05a.624.624 0 0 0-.555-.026.609.609 0 0 0-.355.423l-.608 2.546H6.459c-.806 0-1.462.653-1.459 1.53L6.63 20.23a1.46 1.46 0 0 0 1.462 1.456h8.227c.81 0 1.463-.652 1.46-1.384L19.417 6.48c0-.804-.658-1.457-1.465-1.457h-.781l.35-1.456 2.955 1.647.003.001a.618.618 0 0 0 .846-.24v-.002ZM6.459 6.266h9.13l-.578 2.4H6.507l-.26-2.187c0-.118.095-.213.212-.213Zm10.415 0h1.081c.118 0 .216.095.222.14l-.27 2.26h-1.61l.577-2.4Zm.885 3.642L16.535 20.23a.209.209 0 0 1-.213.21h-8.23c-.117 0-.215-.096-.218-.286L6.653 9.908h8.059l-2.157 8.991a.625.625 0 0 0 1.215.291l2.227-9.282h1.762Zm-7.58 3.588c-.302.302-.594.403-.84.406-.392 0-.684-.25-.787-.35l-.079-.079c-.156-.168-.725-.862.05-1.636.3-.296.586-.394.836-.394.397 0 .697.252.798.347l.075.076c.166.168.729.851-.053 1.63Zm.588.585c.978-.975.737-2.106.062-2.795-.02-.023-.044-.046-.066-.067l-.03-.029c-.181-.173-.677-.58-1.374-.58-.356 0-.894.113-1.423.64-.967.963-.729 2.095-.065 2.792l.098.098c.18.176.672.585 1.37.585.356 0 .893-.109 1.428-.644Zm.603 3.4c-.171.169-.33.228-.468.228a.656.656 0 0 1-.468-.227l-.014-.014c-.087-.093-.403-.48.028-.908.168-.165.328-.221.465-.221.221 0 .387.14.443.193l.042.042c.092.095.406.474-.028.908ZM11.997 16l-.064-.065c-.135-.126-.499-.425-1.02-.422-.269 0-.67.08-1.053.462-.712.708-.518 1.566-.042 2.067l.064.064c.28.272.653.432 1.02.432.269 0 .667-.081 1.056-.468.717-.714.524-1.574.04-2.07Z" fill="#313235"/></svg>