<svg width="24" height="24" fill="none" xmlns="http://www.w3.org/2000/svg"><path d="M4.221 18.748c.311.333.743.526 1.182.526.182 0 .359-.03.527-.095l4.373-1.557c.215-.076.411-.196.576-.359.082-.075 8.247-7.86 8.799-8.448a3.987 3.987 0 0 0 1.106-2.765 4.25 4.25 0 0 0-1.092-2.843c-.7-.753-1.672-1.187-2.664-1.187-.972 0-1.896.423-2.608 1.19-.291.314-4.678 4.507-8.653 8.291a1.741 1.741 0 0 0-.47.76l-1.465 4.703a1.823 1.823 0 0 0 .39 1.784Zm2.625-6.003c.336-.32 8.252-7.851 8.734-8.367.409-.442.913-.678 1.45-.678.575.011 1.121.255 1.51.678a2.54 2.54 0 0 1 .64 1.672 2.27 2.27 0 0 1-.645 1.594c-.42.446-6.639 6.387-8.75 8.395l-4.373 1.558h-.006l-.045-.115 1.485-4.737Zm13.17 7.188c.443 0 .805.375.805.837 0 .465-.362.84-.804.84H4.482c-.443 0-.804-.375-.804-.84 0-.462.361-.837.804-.837h15.535Z" fill="#313235"/></svg>