<svg width="24" height="24" fill="none" xmlns="http://www.w3.org/2000/svg"><path d="M5.492 8.724a.842.842 0 0 0 1.437.59l4.277-4.282v11.05a.846.846 0 0 0 1.689 0V5.032l4.21 4.213a.155.155 0 0 1 .008.008c.005.005.009.01.015.014a.845.845 0 0 0 1.17-1.216l-5.65-5.655a.847.847 0 0 0-1.193 0L5.738 8.124a.858.858 0 0 0-.246.6Zm16.344 8.182a.844.844 0 0 0-.843-.843.84.84 0 0 0-.84.843v3.243H3.839v-3.243a.845.845 0 0 0-1.69 0v4.086c0 .465.379.844.844.844h18a.844.844 0 0 0 .843-.844v-4.086Z" fill="#313235"/></svg>