<svg width="24" height="24" fill="none" xmlns="http://www.w3.org/2000/svg"><path d="M21.758 14.01a1.493 1.493 0 0 0-.008-.328V6.486c0-.793-.647-1.44-1.44-1.44h-8.193v-.762c0-.795-.647-1.44-1.44-1.44H3.531c-.803 0-1.448.645-1.448 1.44v13.504c0 .793.647 1.44 1.448 1.44h8.393c.047.297.17.695.49 1.031.26.289.762.622 1.627.622h5.527c.098.011.972.05 1.602-.538.269-.255.597-.72.588-1.507V14.01Zm-9.862-.059h-.003v1.076A.324.324 0 0 0 11.77 15v-2.176c0-.09-.034-.55-.605-.55a6 6 0 0 0-.426.026.415.415 0 0 0-.367.41v.089c0 .227.179.409.409.409h.05v1.79h-.081c-.23 0-.409.179-.409.409v.106c0 .221.18.409.409.409h1.022a.272.272 0 0 0 .083-.015l.04-.01v2.1H3.532c-.123 0-.22-.089-.22-.212V4.282c0-.124.097-.213.22-.213h7.146c.123 0 .213.09.213.213v1.375c0 .336.277.613.613.613h8.807c.123 0 .213.098.213.213v5.586a1.355 1.355 0 0 0-.238-.065v-.563c0-2.454-1.76-3.361-3.263-3.403h-.278c-1.495.017-3.246.907-3.246 3.386v.541c-.303.048-.686.18-1.006.473-.269.252-.596.72-.596 1.513ZM5.442 7.338c.582 0 1.277.322 1.277 1.865 0 1.54-.695 1.863-1.277 1.863-.586 0-1.28-.325-1.28-1.863 0-1.543.694-1.865 1.28-1.865Zm.333 1.865c0-.93-.207-.93-.333-.93-.126 0-.336 0-.336.93 0 .927.201.927.336.927.123 0 .333 0 .333-.927Zm11.123 5.465c.95.023 1.902.642 1.902 1.975 0 1.336-.952 1.952-1.899 1.97h-.134c-.955-.015-1.91-.631-1.91-1.979 0-1.347.952-1.96 1.893-1.969l.148.003Zm-.02 2.717-.103.003c-.692-.011-.692-.55-.692-.75 0-.202 0-.737.678-.743h.11c.702.017.702.546.702.748 0 .199 0 .728-.694.742ZM8.686 9.203c0-.93-.207-.93-.333-.93-.126 0-.336 0-.336.93 0 .927.202.927.336.927.123 0 .333 0 .333-.927Zm-.333-1.865c.583 0 1.277.322 1.277 1.865 0 1.54-.694 1.863-1.277 1.863-.585 0-1.28-.325-1.28-1.863 0-1.543.695-1.865 1.28-1.865Zm-1.986 8.067a.408.408 0 0 0-.409-.41l-.003-2.173c0-.09-.03-.543-.602-.543-.067 0-.238.008-.423.025a.408.408 0 0 0-.37.406v.09c0 .227.183.409.41.409h.05v1.787h-.084a.408.408 0 0 0-.41.409v.106c0 .227.183.41.41.41h1.022a.408.408 0 0 0 .41-.41v-.106Zm1.986-.364c-.134 0-.336 0-.336-.928 0-.93.21-.93.336-.93.126 0 .333 0 .333.93 0 .928-.21.928-.333.928Zm1.277-.928c0-1.543-.694-1.865-1.277-1.865-.585 0-1.28.325-1.28 1.866 0 1.537.695 1.862 1.28 1.862.583 0 1.277-.322 1.277-1.863Zm10.902 4.723c0 .277-.056.474-.196.605-.204.196-.557.222-.72.213h-5.577c-.344 0-.58-.073-.728-.221-.194-.202-.189-.513-.188-.573v-4.907c0-.28.068-.473.197-.604.179-.163.484-.196.621-.196a.198.198 0 0 1 .068-.002l.022.002h.081l5.505-.009c.344 0 .596.082.736.227.12.132.163.286.171.41v2.755c0 .01.002.017.005.023a.053.053 0 0 1 .003.02v2.257Zm-3.535-9.571c.77.025 2.062.327 2.062 2.176h-.003v.474l-4.333.008v-.499c0-1.865 1.274-2.15 2.028-2.16h.246Z" fill="#313235"/></svg>