<svg width="24" height="24" fill="none" xmlns="http://www.w3.org/2000/svg"><path d="M16.699 9.756c.51.364.98.776 1.409 1.233a6.026 6.026 0 0 1 1.647 4.367 6.004 6.004 0 0 1-1.96 4.218c-1.752 1.616-3.684 1.9-3.766 1.91a8.051 8.051 0 0 1-1.809.202c-.042 0-.084-.003-.126-.006l-.084-.005c-.013 0-.025.002-.038.003a.842.842 0 0 1-.083.005c-.182 0-.364-.02-.549-.044-2.19-.23-4.277-1.306-5.624-3.028-3.404-4.35-.6-11.042 2.907-13.925 1.572-1.288 3.437-2.238 5.252-2.67a.597.597 0 0 1 .6.202c.146.177.18.42.087.63-.07.166-1.712 4.096 2.137 6.908Zm.288 8.925a4.804 4.804 0 0 0 1.572-3.373 4.836 4.836 0 0 0-1.325-3.49 8.159 8.159 0 0 0-1.233-1.079c-3.29-2.408-3.204-5.582-2.862-7.254a12.556 12.556 0 0 0-3.757 2.134C6.33 8.126 3.75 14.137 6.657 17.854a6.524 6.524 0 0 0 1.762 1.538 3.317 3.317 0 0 1 .594-3.35c.201-.233.428-.445.678-.636 1.512-1.185.881-2.867.852-2.944v-.003a.6.6 0 0 1 .7-.815c.86.222 1.742.7 2.481 1.353 1.6 1.41 2.869 4.628 1.49 6.846.65-.288 1.25-.68 1.774-1.162Zm-5.77 1.706.03.005a8.322 8.322 0 0 1 .188.027c.106.015.212.03.32.037.067.003.134.006.199.003a.756.756 0 0 0 .112 0 2.733 2.733 0 0 0 2.04-1.103c1.178-1.617.078-4.35-1.169-5.449a5.345 5.345 0 0 0-1.045-.722c.045.983-.255 2.227-1.47 3.182-.19.146-.362.305-.51.476-.726.835-.686 2.095.095 2.866.572.566 1.205.678 1.21.678Z" fill="#313235"/></svg>