<svg width="24" height="24" fill="none" xmlns="http://www.w3.org/2000/svg"><path d="M21.686 7.983c0-.795-.652-1.44-1.456-1.44h-3.647V4.88c0-.673-.642-1.202-1.46-1.202H8.557c-.818 0-1.456.53-1.456 1.202v1.66H3.457A1.45 1.45 0 0 0 2 7.98v11.488c0 .793.653 1.437 1.457 1.437H20.23c.804 0 1.456-.645 1.456-1.437V7.983ZM8.333 4.947a.43.43 0 0 1 .227-.053h6.569a.459.459 0 0 1 .227.053v1.596H8.333V4.947Zm12.124 14.518a.226.226 0 0 1-.23.224H3.457a.225.225 0 0 1-.227-.224V7.98c0-.126.1-.227.227-.227H20.23c.126 0 .227.101.227.227v11.485Zm-5.113-5.12-2.254.002a.615.615 0 0 0-.614.608l.003 2.224-1.266-.003-.003-2.224a.61.61 0 0 0-.616-.605l-2.255.003v-1.246l2.255-.003a.612.612 0 0 0 .613-.608v-2.224h1.266v2.224c.006.336.28.608.617.605h2.255v1.246Zm1.233-1.51c0-.507-.493-.95-1.05-.95h-1.824v-1.793c0-.551-.448-1.036-.96-1.036H10.94c-.512 0-.96.485-.96 1.036v1.796H8.161c-.568 0-1.05.434-1.05.95v1.778c0 .516.482.95 1.053.95h1.821v1.792c0 .56.44 1.037.96 1.037h1.802c.52 0 .96-.473.96-1.037v-1.795h1.819c.557 0 1.05-.445 1.05-.95v-1.778Z" fill="#313235"/></svg>