<svg width="24" height="24" fill="none" xmlns="http://www.w3.org/2000/svg"><path d="M16.905 6.807c2.325-.656 4.098.358 4.748 2.722.647 2.37-.356 4.18-2.684 4.838-.31.081-.63.123-.952.126.342.283.641.585.857.91v.003c.661.995.916 2.025.74 2.975-.177.955-.788 1.812-1.762 2.485-.788.546-1.577.815-2.325.815-1.149 0-2.202-.63-3.023-1.86a4.239 4.239 0 0 1-.462-1.003 4.378 4.378 0 0 1-.47 1.02c-.661.991-1.505 1.613-2.44 1.792-.19.04-.387.056-.583.056-.762 0-1.554-.274-2.325-.812C4.233 19.5 3.85 17.462 5.202 15.42c.213-.322.507-.624.843-.905a3.889 3.889 0 0 1-1.014-.134c-2.325-.658-3.325-2.468-2.678-4.838.314-1.156.922-2.02 1.75-2.495.83-.474 1.866-.552 2.998-.227.457.131.919.392 1.373.714-.197-.557-.323-1.11-.32-1.616C8.154 3.468 9.597 2 12.011 2h.003c2.412.011 3.846 1.485 3.838 3.944 0 .49-.126 1.028-.317 1.574.454-.322.916-.582 1.37-.711Zm-2.277-.869c.005-1.753-.9-2.683-2.62-2.691-1.72 0-2.63.927-2.63 2.677-.005.81.51 2.068 1.42 3.499.014-.006.03-.009.045-.012l.023-.005c.14-.045.285-.078.442-.106l.107-.017a3.947 3.947 0 0 1 1.165-.003c.045.006.09.014.134.023.132.022.264.053.393.092a.416.416 0 0 0 .036.008c.018.004.037.008.053.014.916-1.434 1.432-2.686 1.432-3.479Zm.319 6.765c1.613.51 2.944.678 3.695.468 1.658-.473 2.29-1.616 1.829-3.305-.462-1.684-1.583-2.328-3.241-1.855-.74.21-1.76 1.023-2.843 2.255.011.013.02.029.03.044a.364.364 0 0 0 .02.032l.05.081c.068.1.127.21.177.322a3.044 3.044 0 0 1 .14.375l.017.057a3.395 3.395 0 0 1 .09.42l.014.084c.044.339.053.68.022 1.022Zm3.465 5.445c.117-.63-.067-1.316-.546-2.039-.468-.697-1.647-1.465-3.28-2.143l-.023.031a.348.348 0 0 0-.022.031 2.697 2.697 0 0 1-.257.36c-.012.017-.024.034-.037.049-.112.12-.236.227-.37.325a.966.966 0 0 1-.049.03 2.642 2.642 0 0 1-.477.25c-.024.01-.048.021-.074.03a2.9 2.9 0 0 1-.428.127c-.012.002-.023.006-.034.01a.31.31 0 0 1-.042.012c.014 1.796.28 3.202.745 3.9.967 1.45 2.227 1.697 3.647.714.71-.49 1.13-1.056 1.247-1.687Zm-9.507 2.258c.619-.12 1.176-.546 1.658-1.269.462-.697.728-2.1.74-3.899a.543.543 0 0 1-.06-.017l-.06-.017a2.63 2.63 0 0 1-.894-.341 1.115 1.115 0 0 0-.058-.032c-.02-.011-.039-.021-.057-.033a2.247 2.247 0 0 1-.373-.316.967.967 0 0 1-.043-.052 2.609 2.609 0 0 1-.265-.354c-.007-.013-.016-.024-.025-.035-.01-.012-.018-.023-.025-.035-1.614.675-2.776 1.434-3.23 2.117-.964 1.454-.723 2.74.697 3.72.71.493 1.376.678 1.995.563Zm-3.546-7.224c.762.221 2.092.048 3.703-.462a4.673 4.673 0 0 1 .036-1.149l.02-.103.017-.084c.033-.154.078-.308.131-.457l.017-.047a2.54 2.54 0 0 1 .316-.602c-1.075-1.23-2.09-2.04-2.829-2.253a3.555 3.555 0 0 0-.991-.154 2.121 2.121 0 0 0-1.076.266c-.546.314-.941.902-1.17 1.743-.23.843-.191 1.551.117 2.109.308.557.882.958 1.709 1.193Zm6.784.857c1.11-.042 1.392-.577 1.513-1.042v-.003c.061-.24.09-.484.084-.73 0-.707-.185-1.2-.547-1.471a1.108 1.108 0 0 1-.095-.062c-.269-.165-.636-.25-1.098-.25-.46 0-.832.088-1.106.258l-.05.03c-.021.012-.037.022-.051.032-.353.277-.532.768-.532 1.462 0 .126.008.252.02.376a.897.897 0 0 0 .011.066c.004.02.008.04.01.06l.008.048c.008.054.016.107.03.156.008.02.016.042.021.065.118.423.41.988 1.566 1.014h.076c.047-.006.092-.009.14-.009Z" fill="#313235"/></svg>