<svg width="24" height="24" fill="none" xmlns="http://www.w3.org/2000/svg"><path d="M16.31 17.984h.778a.61.61 0 0 1 .614.619v2.633a.614.614 0 0 1-.617.616H6.836a.618.618 0 0 1-.616-.616v-2.633c0-.342.274-.617.616-.617h.779v-1.678c0-.341.274-.616.616-.616h.544l.753-6.532h-.19a.618.618 0 0 1-.617-.616V6.98H7.635a.618.618 0 0 1-.617-.616V2.776c0-.341.275-.616.617-.616h1.81c.338 0 .615.277.615.616v.925h.463v-.925c0-.341.274-.616.616-.616h1.568c.34 0 .617.277.617.616v.995l.493-.009v-.986c0-.341.274-.616.616-.616h1.885c.339 0 .616.277.616.616v3.586a.615.615 0 0 1-.616.616h-1.022v1.563a.614.614 0 0 1-.617.616h-.19l.753 6.532h.451c.34 0 .617.278.617.617v1.678Zm.162 2.63v-1.4H7.458v1.4h9.014Zm-7.619-2.63h6.224v-1.062H8.853v1.062Zm4.395-8.827h-2.473l-.754 6.532H14l-.751-6.532Zm-3.291-1.23h4.106v-.946H9.957v.947Zm-1.13-4.534h-.576V5.75h7.45V3.393h-.65v.974c0 .336-.27.611-.607.617l-1.725.025a.62.62 0 0 1-.628-.614V3.393h-.336v.924a.614.614 0 0 1-.616.616H9.444a.618.618 0 0 1-.616-.616v-.924Z" fill="#313235"/></svg>