<svg width="24" height="24" fill="none" xmlns="http://www.w3.org/2000/svg"><path d="M21.686 5.929c0-.773-.652-1.404-1.456-1.404H3.46c-.807 0-1.46.63-1.46 1.404v11.958c0 .773.655 1.403 1.46 1.403h16.77c.804 0 1.456-.63 1.456-1.403V5.929ZM3.46 5.707v.003h16.774c.125 0 .226.098.226.219v1.728H3.232V5.926c0-.12.101-.219.227-.219Zm.99 1.477a.558.558 0 0 1-.57-.55c0-.305.255-.549.57-.549a.56.56 0 0 1 .568.55.56.56 0 0 1-.569.549Zm1.14-.55c0 .303.251.55.568.55a.558.558 0 0 0 .568-.55.558.558 0 0 0-.568-.549.558.558 0 0 0-.569.55Zm1.708 0c0 .303.252.55.569.55a.556.556 0 0 0 .568-.55.558.558 0 0 0-.568-.549.558.558 0 0 0-.57.55Zm5.305 6.858c0-.583-.258-.832-.863-.832s-.862.249-.862.832c0 .58.26.829.862.829.605 0 .863-.25.863-.83Zm-.863-1.78c1.14 0 1.846.682 1.846 1.78 0 1.095-.705 1.776-1.846 1.776-1.14 0-1.845-.681-1.845-1.776 0-1.098.708-1.78 1.845-1.78Zm3.41 1.59h-.634a.484.484 0 0 1-.484-.399 2.26 2.26 0 0 0-.213-.669.466.466 0 0 1 .092-.546l.474-.457-.297-.286-.476.457a.509.509 0 0 1-.563.09 2.532 2.532 0 0 0-.698-.208.48.48 0 0 1-.414-.467v-.608h-.393v.608a.478.478 0 0 1-.411.467c-.264.042-.496.11-.698.205a.503.503 0 0 1-.566-.09l-.476-.456-.297.285.474.457a.46.46 0 0 1 .08.569c-.075.126-.156.392-.198.65a.487.487 0 0 1-.487.397H8.33v.376h.633a.49.49 0 0 1 .487.397c.042.255.123.521.199.647a.46.46 0 0 1-.081.569l-.474.457.297.285.476-.456a.514.514 0 0 1 .566-.09c.202.095.434.165.695.204a.48.48 0 0 1 .414.468v.608h.393v-.608a.48.48 0 0 1 .414-.468c.263-.041.485-.106.698-.207a.513.513 0 0 1 .563.09l.476.456.297-.285-.474-.457a.461.461 0 0 1-.092-.546c.1-.196.17-.42.213-.67a.486.486 0 0 1 .484-.397h.633V13.3Zm.1-.948c.488 0 .88.381.88.846v.575c0 .467-.395.845-.88.845h-.339a2.56 2.56 0 0 1-.072.222l.31.297a.83.83 0 0 1 .003 1.207l-.437.42a.9.9 0 0 1-.627.25h-.003a.905.905 0 0 1-.627-.25l-.309-.297c-.075.025-.15.05-.23.07v.325c0 .468-.394.846-.879.846h-.596c-.485 0-.88-.38-.88-.846v-.325a3.082 3.082 0 0 1-.23-.07l-.31.3a.912.912 0 0 1-1.253 0l-.437-.42a.827.827 0 0 1 0-1.205l.306-.297a2.556 2.556 0 0 1-.07-.224h-.34c-.484 0-.879-.38-.879-.846v-.574c0-.468.395-.846.88-.846h.339c.02-.073.044-.148.07-.224l-.306-.297a.827.827 0 0 1 0-1.204l.437-.42a.909.909 0 0 1 1.252 0l.311.296c.076-.025.152-.047.23-.07v-.327c0-.468.395-.846.88-.846h.596c.488 0 .88.38.88.846v.327c.078.02.157.045.23.07l.31-.3a.893.893 0 0 1 .625-.249h.003c.238 0 .46.09.627.25l.434.42a.832.832 0 0 1 .003 1.204l-.313.3c.028.073.05.146.072.221h.34Zm5.208 5.533c0 .12-.101.218-.227.218H3.457a.224.224 0 0 1-.227-.218V8.845h17.227v9.042Z" fill="#313235"/></svg>