<svg width="24" height="24" fill="none" xmlns="http://www.w3.org/2000/svg"><path d="M21.67 14.098c0-3.434-2.325-4.852-4.648-5.064-1.243-3.507-5.277-3.69-6.1-3.69-1.06 0-6.264.283-6.457 5.762-1.07.42-2.451 1.44-2.451 3.905 0 3.137 2.24 4.255 4.339 4.255l10.059-.056c2.426 0 5.258-1.339 5.258-5.112Zm-1.205 0c0 3.641-3.1 3.924-4.056 3.924l-10.059.054c-.941 0-3.129-.3-3.129-3.068 0-1.554.678-2.532 2.014-2.907a.593.593 0 0 0 .44-.583l-.005-.095c0-4.535 4.022-4.888 5.257-4.888.698 0 4.227.154 5.062 3.221.07.252.3.432.566.44 1.176.034 3.91.479 3.91 3.902Zm-8.622-.283c-.72 0-1.056-.33-1.056-1.04 0-.708.336-1.038 1.056-1.038.723 0 1.056.33 1.056 1.039 0 .709-.336 1.04-1.056 1.04Zm1.941-1.04c0-1.195-.725-1.91-1.94-1.91-1.216 0-1.94.715-1.94 1.91 0 1.197.723 1.911 1.94 1.911 1.215 0 1.94-.714 1.94-1.91Zm1.4.188h-.618a.484.484 0 0 0-.476.401 2.41 2.41 0 0 1-.21.675.47.47 0 0 0 .092.544l.465.459-.291.286-.465-.46a.49.49 0 0 0-.558-.09 2.355 2.355 0 0 1-.683.208.48.48 0 0 0-.406.47v.611h-.384v-.61a.476.476 0 0 0-.406-.471 2.458 2.458 0 0 1-.68-.207.495.495 0 0 0-.558.09l-.465.459-.292-.286.465-.46a.47.47 0 0 0 .093-.543c-.101-.204-.168-.42-.21-.675a.48.48 0 0 0-.477-.4h-.619v-.379h.62c.235 0 .436-.17.476-.4.039-.252.109-.476.207-.673a.47.47 0 0 0-.09-.546l-.465-.46.292-.285.465.457c.15.154.389.185.577.078.128-.073.403-.154.66-.193a.48.48 0 0 0 .407-.47v-.611h.384v.61c0 .236.17.432.406.471.258.042.53.12.66.193a.48.48 0 0 0 .578-.078l.465-.457.291.286-.465.46a.468.468 0 0 0-.09.545c.096.194.169.42.21.676.04.23.242.397.477.397h.619v.378Zm.964-.476a.857.857 0 0 0-.862-.851v-.003h-.325a4.213 4.213 0 0 0-.073-.224l.303-.297a.839.839 0 0 0 .254-.605c0-.23-.09-.443-.255-.605l-.425-.42a.903.903 0 0 0-1.23 0l-.303.297a4.984 4.984 0 0 0-.23-.068v-.327a.857.857 0 0 0-.862-.852h-.585a.857.857 0 0 0-.863.852v.327c-.076.02-.151.042-.23.068l-.302-.297a.903.903 0 0 0-1.23 0l-.429.42a.834.834 0 0 0-.254.605c0 .23.09.445.252.605l.305.3c-.028.075-.05.148-.073.224h-.333a.857.857 0 0 0-.863.851v.577c0 .471.387.852.863.852h.333c.023.078.048.151.073.224l-.303.3a.847.847 0 0 0 0 1.21l.429.42a.903.903 0 0 0 1.23 0l.302-.3c.073.026.149.048.227.07v.328c0 .47.387.852.863.852h.585a.857.857 0 0 0 .863-.852v-.328c.079-.02.154-.044.227-.07l.305.3a.903.903 0 0 0 1.23 0l.426-.42a.847.847 0 0 0 0-1.21l-.306-.3c.028-.073.05-.148.073-.224h.33c.477 0 .863-.381.863-.852v-.577Z" fill="#313235"/></svg>