<svg width="24" height="24" fill="none" xmlns="http://www.w3.org/2000/svg"><path d="M18.747 11.335h2.467c.34 0 .622.28.622.613 0 .34-.283.62-.622.62h-2.467c-.025 0-.048-.007-.071-.014-.014-.004-.029-.009-.044-.012-.068 1.74-.547 3.011-1.227 3.927a.73.73 0 0 0 .037.023c.028.015.055.03.078.053l1.557 1.552c.25.238.25.636 0 .874a.575.575 0 0 1-.437.182.619.619 0 0 1-.44-.182l-1.557-1.552c-.016-.016-.025-.034-.034-.052a.284.284 0 0 0-.017-.03c-1.383 1.172-3.106 1.438-3.985 1.485 0 .005.002.007.004.009.002.002.004.004.004.008v2.375a.62.62 0 0 1-.622.62.615.615 0 0 1-.622-.62v-2.392c-.91-.056-2.568-.33-3.902-1.476a.273.273 0 0 0-.035.051.432.432 0 0 1-.015.025l-1.566 1.552a.61.61 0 0 1-.25.148.592.592 0 0 1-.77-.076.604.604 0 0 1 0-.874l1.706-1.7a.22.22 0 0 1 .04-.03c.01-.007.02-.013.027-.02-.655-.905-1.1-2.16-1.176-3.869a.196.196 0 0 0-.047.008c-.017.005-.034.01-.051.01h-2.56a.625.625 0 0 1-.622-.62c0-.339.283-.619.622-.619h2.56c.025 0 .047.007.07.014l.045.011c.115-1.7.63-2.921 1.325-3.787-.017-.017-.034-.026-.05-.035a.353.353 0 0 1-.026-.015L4.973 5.803a.619.619 0 0 1 0-.874.615.615 0 0 1 .88 0l1.723 1.717a.096.096 0 0 1 .033.039c.005.01.01.019.017.025 1.317-1.022 2.882-1.26 3.745-1.31V2.77a.62.62 0 0 1 .622-.62c.339 0 .622.28.622.62v2.64c.846.06 2.437.314 3.77 1.353l.017-.029a.155.155 0 0 1 .025-.038L18.2 4.932a.615.615 0 0 1 .88 0c.25.24.25.627 0 .873l-1.773 1.768a.215.215 0 0 1-.04.03 1.148 1.148 0 0 0-.02.012c.712.866 1.236 2.07 1.368 3.745.011-.002.023-.005.034-.009.03-.008.061-.016.098-.016Zm-7.003 6.272h.563c1.535-.034 5.103-.62 5.103-5.471 0-4.852-3.596-5.462-5.137-5.504h-.588c-4.546.042-5.037 3.837-5.037 5.462 0 1.636.496 5.448 5.096 5.513Z" fill="#313235"/></svg>