<svg width="24" height="24" fill="none" xmlns="http://www.w3.org/2000/svg"><path d="M21.723 11.866a.602.602 0 0 0-.58-.625l-1.546.003c-.295-6.241-5.398-7.149-7.126-7.27V2.572a.6.6 0 0 0-.569-.568.598.598 0 0 0-.633.568v1.381c-1.46.042-6.983.656-7.26 7.289h-1.41a.602.602 0 0 0 0 1.204h1.423c.373 6.384 5.723 7.079 7.25 7.14v1.53a.6.6 0 0 0 .568.568.598.598 0 0 0 .633-.568v-1.538c1.69-.104 6.774-.955 7.118-7.132h1.552a.6.6 0 0 0 .58-.58Zm-3.33.58c-.323 5.005-4.228 5.817-5.92 5.926v-.465a.6.6 0 0 0-.568-.568.598.598 0 0 0-.633.569v.476c-1.603-.067-5.703-.765-6.05-5.936h.588a.602.602 0 0 0 0-1.204h-.597c.258-5.395 4.493-6.04 6.059-6.087v.624a.6.6 0 0 0 .568.57.598.598 0 0 0 .633-.57V5.18c1.731.126 5.65.995 5.925 6.062h-.462a.602.602 0 0 0 0 1.204h.456Zm-7.424-3.648c.202-.196.563-.238.832-.238s.636.042.838.238c.168.16.252.446.252.852 0 .403-.084.689-.25.849-.204.193-.568.235-.84.235-.269 0-.633-.042-.835-.235-.204-.197-.246-.57-.246-.85 0-.276.045-.652.25-.85Zm-.725 2.454c.361.347.885.524 1.557.524.672 0 1.199-.177 1.563-.524.381-.364.572-.902.572-1.602 0-.698-.194-1.238-.572-1.602-.367-.35-.89-.53-1.563-.53-.67 0-1.196.18-1.557.53-.378.364-.569.902-.569 1.602 0 .7.19 1.238.569 1.602ZM9.07 14.98c.011-.269.081-.61.32-.857.296-.308.77-.372 1.117-.372h2.594c.347 0 .823.067 1.12.375.238.247.308.585.32.854H9.07Zm5.902-1.58c-.437-.453-1.084-.691-1.874-.691l-2.594-.003c-.787 0-1.434.24-1.87.694-.399.418-.609.995-.609 1.673v.708c0 .132.107.241.241.241h7.079a.24.24 0 0 0 .24-.24v-.71c0-.677-.212-1.254-.613-1.671Z" fill="#313235"/></svg>