<svg width="24" height="24" fill="none" xmlns="http://www.w3.org/2000/svg"><path d="M21.709 6.542s.288-3.7-3.639-3.7c-3.927 0-12.437.005-12.437.005s-.07-.005-.196-.005c-.754 0-3.41.243-3.41 3.68 0 4.003.004 10.664.004 10.664s-.247 3.687 3.619 3.687h12.423s.12.016.314.016c.882 0 3.324-.31 3.324-3.722L21.71 6.542ZM6.333 19.618V4.1l4.167-.003h.002l6.907-.003v15.524H6.333ZM4.112 4.45c.333-.216.706-.297.992-.33v2.136h-1.83c.073-1.294.64-1.68.838-1.806Zm16.361 13.067c-.039.74-.288 1.977-1.834 2.1v-2.1h1.834ZM3.837 19.002c-.43-.463-.54-1.113-.568-1.468h1.835v2.047c-.55-.075-.972-.266-1.267-.58ZM19.922 4.723c.453.488.54 1.182.557 1.518h-1.843V4.133c.56.079.991.275 1.286.591Zm-1.283 11.54v-2.086h1.843v2.087h-1.843Zm1.84-6.68h-1.84v-2.09h1.84v2.09Zm-1.84 3.339v-2.09h1.84v2.09h-1.84ZM3.26 16.282v-2.087h1.844v2.087H3.26Zm1.844-6.69H3.26v-2.08h1.844v2.08ZM3.26 10.845h1.844v2.095H3.26v-2.095Zm6.359 3.602V9.282l4.392 2.582-4.392 2.583Zm6.238-2.583a.63.63 0 0 0-.308-.543L9.31 7.654a.607.607 0 0 0-.616 0 .63.63 0 0 0-.309.544v7.333a.63.63 0 0 0 .309.543.607.607 0 0 0 .616 0l6.238-3.666a.63.63 0 0 0 .308-.544Z" fill="#313235"/></svg>