<svg width="24" height="24" xmlns="http://www.w3.org/2000/svg"><path d="M12 1c.17 0 .32.103.41.282l10.528 21a.499.499 0 0 1-.006.492c-.085.145-.245.226-.436.226H1.507a.499.499 0 0 1-.44-.226.499.499 0 0 1-.005-.491l10.53-21.001C11.68 1.103 11.831 1 12 1Zm.003.805L1.676 22.398h20.648L12.004 1.805Zm0 17.504c.213 0 .339.126.339.339 0 .213-.122.338-.339.338-.216 0-.339-.125-.339-.338 0-.213.126-.339.34-.339Zm.022-11.592c.173 0 .314.141.314.313v9.174a.314.314 0 0 1-.627 0V8.03c0-.172.14-.313.313-.313Z" fill="#313235" fill-rule="nonzero"/></svg>