<svg width="24" height="24" xmlns="http://www.w3.org/2000/svg"><path d="M19.831 20.474c-.022 0-.045 0-.07-.003l-12.667-.005h-.01a.772.772 0 0 1-.73-.474c-.164-.372-.089-.87.177-1.16l.009-.008 2.563-2.563a.155.155 0 0 0 .042-.109.195.195 0 0 0-.062-.134l-5.067-5.096c-.325-.325-.487-.663-.485-1.005.006-.34.168-.667.502-.997L9.08 3.864l.009-.009c.745-.683 1.32-.115 1.594.157l.002.003 5.168 5.238a.191.191 0 0 0 .135.059.143.143 0 0 0 .11-.042l2.772-2.773.006-.006c.263-.252.731-.325 1.09-.17.33.142.52.445.518.828v12.6a.669.669 0 0 1-.182.538.638.638 0 0 1-.471.187Zm-12.737-.566 12.681.006c.008 0 .02 0 .028.003.048.005.084-.003.1-.02.018-.017.026-.056.02-.1l-.002-.029V7.152c0-.162-.056-.26-.18-.314-.168-.072-.386-.025-.479.06l-2.77 2.77a.707.707 0 0 1-.524.204.744.744 0 0 1-.512-.224L10.288 4.41c-.407-.404-.541-.395-.816-.146l-5.044 5.05c-.222.222-.334.426-.337.611-.002.188.101.384.32.602l5.073 5.093c.137.137.218.32.224.512a.711.711 0 0 1-.205.524l-2.56 2.56c-.112.127-.148.381-.073.55.056.126.146.142.222.142h.002Z" fill="#313235" fill-rule="nonzero"/></svg>