<svg width="24" height="24" xmlns="http://www.w3.org/2000/svg"><path d="M19.283 18.202c1.09-1.048 1.672-2.698 1.737-4.913l-18.023-.02.255 5.602c.006.084.048.516.373.516H16.33c.034-.006 1.647.067 2.953-1.185zM5.109 9.667c-.112.003-.148.025-.151.025l.003 2.675 11.762-.017c-.068-.792-.334-1.42-.796-1.868-.88-.857-2.196-.815-2.213-.815-.025.02-3.493-.006-6.025-.006-1.277 0-2.322 0-2.58.006zm1.936-4.224h3.305v-.801H7.045v.8zm0 3.386h3.305V6.27H7.045v2.56zm14.39 3.63a.41.41 0 0 1 .408.415c0 2.67-.675 4.667-2.008 5.938a5.094 5.094 0 0 1-3.42 1.404c-.062 0-.099-.003-.11-.003H3.625c-.897 0-1.171-.854-1.19-1.305l-.278-6.034a.41.41 0 0 1 .386-.431h.023l1.574.003.022-2.732a.752.752 0 0 1 .171-.551c.115-.143.342-.314.762-.32.151-.002.566-.002 1.132-.002V4.227c0-.23.185-.415.409-.415h4.126a.41.41 0 0 1 .409.415v4.608l2.526.003c.045.003 1.656-.06 2.79 1.042.647.627.99 1.501 1.045 2.577l3.902.003zM6.517 15.9a.414.414 0 0 0-.412.418c0 .23.185.417.412.417a.418.418 0 0 0 0-.835zm0 1.664a1.243 1.243 0 0 1-1.232-1.246 1.24 1.24 0 0 1 1.232-1.247c.68 0 1.233.56 1.233 1.247 0 .686-.555 1.246-1.233 1.246zm4.118-1.666a.418.418 0 0 0 0 .834.418.418 0 0 0 0-.834zm0 1.666a1.24 1.24 0 0 1-1.233-1.246c0-.687.555-1.247 1.233-1.247s1.232.56 1.232 1.247a1.24 1.24 0 0 1-1.232 1.246zm4.12-1.666a.416.416 0 0 0-.414.417c0 .23.185.417.414.417a.415.415 0 0 0 .412-.417.415.415 0 0 0-.412-.417zm0 1.666a1.243 1.243 0 0 1-1.232-1.246 1.24 1.24 0 0 1 1.232-1.247c.678 0 1.233.56 1.233 1.247 0 .686-.555 1.246-1.233 1.246z" fill="#313235" fill-rule="nonzero"/></svg>