<svg width="24" height="24" xmlns="http://www.w3.org/2000/svg"><path d="M17.36 20.554a.44.44 0 0 1-.255.4c-.157.079-.336.06-.431-.008l-3.687-3.636a1.309 1.309 0 0 0-.918-.372c-.33 0-.667.123-.922.372l-3.664 3.603a.452.452 0 0 1-.473.044.437.437 0 0 1-.252-.4V3.442c0-.247.201-.445.45-.445h9.704c.25 0 .45.198.45.445v17.112h-.002zm-.45-18.398H7.205c-.717 0-1.3.577-1.3 1.283v17.115c0 .493.278.936.726 1.154.448.219.972.168 1.409-.168l3.703-3.633a.464.464 0 0 1 .644-.006l3.731 3.673a1.304 1.304 0 0 0 1.37.131c.448-.218.725-.66.725-1.154V3.436a1.302 1.302 0 0 0-1.305-1.28z" fill="#313235" fill-rule="nonzero"/></svg>