<svg width="24" height="24" viewBox="0 0 24 24" xmlns="http://www.w3.org/2000/svg"><path d="M12.569 12l5.31-5.319a.384.384 0 00.017-.543l-.017-.017a.384.384 0 00-.543-.017c-.007.005-.012.012-.017.017L12 11.431l-5.319-5.31a.384.384 0 00-.543-.017l-.017.017a.384.384 0 00-.017.543c.005.007.012.012.017.017L11.431 12l-5.31 5.319a.384.384 0 00-.017.543l.017.017a.38.38 0 00.28.12.377.377 0 00.28-.12L12 12.569l5.319 5.31a.384.384 0 00.543.017l.017-.017a.384.384 0 00.017-.543c-.005-.007-.012-.012-.017-.017L12.569 12z" fill="#313235" fill-rule="nonzero"/></svg>