<svg width="24" height="24" xmlns="http://www.w3.org/2000/svg"><path d="M16.761 18.881H6.033a3.882 3.882 0 0 1-3.877-3.876c0-.863.3-1.69.869-2.393a4.053 4.053 0 0 1 2.03-1.358.623.623 0 0 0 .138-.05c.016-3.524 2.431-6.079 5.75-6.079a6.11 6.11 0 0 1 5.569 3.61l.006.012.033-.003a5.079 5.079 0 0 1 5.286 5.067 5.077 5.077 0 0 1-5.076 5.07ZM10.943 5.685c-1.467 0-2.792.558-3.736 1.572C6.263 8.27 5.75 9.682 5.75 11.24c0 .398-.409.515-.543.552a3.49 3.49 0 0 0-1.748 1.173 3.22 3.22 0 0 0-.743 2.04 3.32 3.32 0 0 0 3.317 3.316h10.728a4.519 4.519 0 0 0 4.513-4.513 4.516 4.516 0 0 0-4.51-4.512c-.062 0-.12.003-.188.005l-.12.006c-.207.006-.359-.104-.448-.328-.003-.005-.003-.01-.006-.016a5.555 5.555 0 0 0-5.059-3.278Z" fill="#313235" fill-rule="nonzero"/></svg>