<svg width="24" height="24" xmlns="http://www.w3.org/2000/svg"><path d="M18.58 19.03c.531 0 .739-.21.739-.75 0-.538-.208-.751-.74-.751s-.74.21-.74.75c-.002.541.205.751.74.751Zm0-2.339c.982 0 1.57.594 1.57 1.591 0 .995-.585 1.591-1.57 1.591-.984 0-1.57-.594-1.57-1.59-.002-.995.583-1.592 1.57-1.592Zm0-3.94c.531 0 .739-.211.739-.752 0-.537-.208-.75-.74-.75s-.74.21-.74.75c-.002.541.205.751.74.751Zm0-2.343c.982 0 1.57.594 1.57 1.591 0 .995-.585 1.591-1.57 1.591-.984 0-1.57-.593-1.57-1.59-.002-.995.583-1.592 1.57-1.592Zm.016-5.44c-.532 0-.74.21-.74.751 0 .538.208.748.74.748s.742-.21.742-.748c0-.535-.215-.75-.742-.75Zm0 2.34c-.983 0-1.569-.594-1.569-1.589 0-.994.586-1.59 1.569-1.59s1.571.593 1.571 1.59c0 .995-.588 1.589-1.571 1.589Zm2.412 13.252.005-4.558a.442.442 0 0 0-.437-.442H3.431a.437.437 0 0 0-.437.442l-.009 4.558a.44.44 0 0 0 .437.442h17.146c.244 0 .44-.199.44-.442ZM2.99 3.44l-.006 4.557a.44.44 0 0 0 .437.442h17.146c.244 0 .44-.199.437-.442l.006-4.558a.44.44 0 0 0-.437-.442H3.43a.441.441 0 0 0-.44.442Zm.431 11.282h17.146a.439.439 0 0 0 .437-.443l.006-4.557a.44.44 0 0 0-.437-.443H3.43a.439.439 0 0 0-.437.443l-.006 4.557a.438.438 0 0 0 .434.443Zm18.42-5-.005 4.557c0 .331-.129.63-.333.86.207.227.339.533.339.866l-.006 4.555c0 .705-.569 1.283-1.269 1.283H3.422a1.277 1.277 0 0 1-1.266-1.283l.006-4.558c0-.33.129-.63.333-.857a1.295 1.295 0 0 1-.339-.868l.006-4.558c0-.333.129-.63.333-.86a1.275 1.275 0 0 1-.339-.862l.006-4.558c0-.706.569-1.283 1.269-1.283h17.145c.698 0 1.267.577 1.267 1.283l-.006 4.558c0 .33-.129.63-.333.86.207.226.339.529.339.865ZM4.79 6.137a.417.417 0 0 1-.414-.42c0-.233.185-.42.414-.42h5.757c.23 0 .414.187.414.42a.417.417 0 0 1-.414.42H4.789Zm5.757 5.442a.42.42 0 0 1 0 .84H4.789a.416.416 0 0 1-.414-.417c0-.232.185-.42.414-.42 0-.003 5.757-.003 5.757-.003Zm0 6.322a.42.42 0 0 1 0 .84H4.789a.416.416 0 0 1-.414-.417c0-.232.185-.42.414-.42h5.757v-.003Z" fill="#313235" fill-rule="nonzero"/></svg>