<svg width="24" height="24" xmlns="http://www.w3.org/2000/svg"><path d="M11.997 21.022c5.988 0 9.022-3.034 9.022-9.02 0-5.989-3.034-9.022-9.022-9.022-5.986 0-9.02 3.036-9.02 9.022 0 5.986 3.036 9.02 9.02 9.02zm0-18.866c6.442 0 9.846 3.406 9.846 9.846 0 6.437-3.404 9.84-9.846 9.84-6.437 0-9.84-3.403-9.84-9.84 0-6.44 3.403-9.846 9.84-9.846zm3.988 14.426a.408.408 0 0 1 .535.224.41.41 0 0 1-.184.518c-.85.4-1.891.605-3.096.605-3.199 0-5.151-1.4-5.74-4.064H6.199a.412.412 0 0 1 0-.824h1.174c-.04-.347-.059-.694-.062-1.044 0-.196.009-.387.02-.572H6.198a.412.412 0 0 1 0-.823h1.219C7.885 7.66 9.913 6.06 13.24 6.06c1.188 0 2.219.199 3.065.591a.408.408 0 0 1 .168.557.407.407 0 0 1-.513.188c-.737-.342-1.652-.515-2.72-.515-2.885 0-4.546 1.257-4.98 3.717h3.994a.412.412 0 0 1 0 .823H8.167c-.01.19-.039.37-.039.572 0 .37.031.714.07 1.045h4.05a.412.412 0 0 1 0 .823H8.367c.56 2.143 2.182 3.244 4.871 3.244 1.085.003 2.006-.174 2.748-.524z" fill="#313235" fill-rule="nonzero"/></svg>