<svg width="24" height="24" xmlns="http://www.w3.org/2000/svg"><path d="M21.256 15.167a.581.581 0 0 1 0 1.16h-4.932v4.932a.581.581 0 0 1-1.16 0v-5.512c0-.32.258-.58.577-.58h5.515Zm-13.016 0c.319 0 .58.258.58.577v5.512a.581.581 0 0 1-1.16 0v-4.932H2.73a.58.58 0 1 1 0-1.16c0 .003 5.51.003 5.51.003Zm0-13.017c.319 0 .58.258.58.577V8.24a.59.59 0 0 1-.578.58H2.73a.579.579 0 1 1 0-1.157h4.933V2.73c0-.322.257-.58.577-.58Zm7.507 6.67a.579.579 0 0 1-.58-.578V2.73a.579.579 0 1 1 1.157 0v4.933h4.932a.581.581 0 0 1 0 1.16h-5.51v-.004Z" fill="#313235" fill-rule="nonzero"/></svg>