<svg width="24" height="24" xmlns="http://www.w3.org/2000/svg"><path d="m13.023 2.505.121.107 8.272 8.107c.409.403.535.969.325 1.481-.215.523-.723.876-1.32.927l-.15.006h-.746v7.277c0 .746-.627 1.363-1.426 1.429l-.142.006h-1.384l-.022-.006-.012.001-.01.002H7.421l-.012-.003-.007.001-.007.002H5.923c-.817 0-1.49-.575-1.562-1.304l-.007-.13v-7.275h-.63c-.66 0-1.235-.367-1.468-.933a1.328 1.328 0 0 1 .229-1.378l.096-.103 8.272-8.107c.58-.57 1.54-.605 2.17-.107zm-1.508.62-.088.073-8.274 8.112c-.233.227-.188.465-.137.582.07.172.263.373.582.415l.126.008H4.77a.41.41 0 0 1 .4.326l.009.083v7.684c0 .308.278.563.638.606l.11.007h1.062v-8.213a.41.41 0 0 1 .326-.4l.082-.009h9.177a.41.41 0 0 1 .4.326l.009.083v8.213h.975c.374 0 .686-.23.74-.525l.008-.091V12.72c0-.198.139-.362.326-.4l.083-.009h1.156c.398 0 .63-.23.712-.423a.497.497 0 0 0-.07-.508l-.067-.077-8.272-8.106c-.273-.268-.749-.292-1.058-.073zm4.646 15.843H7.805v2.05h8.356v-2.05zm0-2.868H7.805v2.05h8.356V16.1zm0-2.883H7.805v2.062h8.356v-2.062z" fill="#313235" fill-rule="nonzero"/></svg>