<svg width="24" height="24" xmlns="http://www.w3.org/2000/svg"><path d="M15.433 21.018h2.513c.403 0 .73-.274.73-.613V12.71a.42.42 0 0 1 .427-.412h1.154c.375 0 .6-.21.686-.406a.52.52 0 0 0-.132-.608l-8.257-8.112c-.28-.274-.83-.274-1.107 0l-8.26 8.115a.528.528 0 0 0-.132.608c.087.196.311.406.686.406h1.037a.42.42 0 0 1 .426.412v7.695c0 .339.327.613.728.613h2.683v-4.048a.42.42 0 0 1 .426-.411h5.964a.42.42 0 0 1 .425.411l.003 4.045zm2.513.824h-2.939a.417.417 0 0 1-.425-.412v-4.042H9.47v4.045a.42.42 0 0 1-.426.412h-3.11c-.873 0-1.582-.645-1.582-1.437v-7.283h-.61c-.653 0-1.23-.356-1.474-.908a1.326 1.326 0 0 1 .31-1.501l8.259-8.12c.596-.586 1.728-.586 2.325 0l8.26 8.114c.415.41.535.983.308 1.502-.24.551-.818.91-1.473.91h-.726v7.283c0 .793-.711 1.437-1.585 1.437z" fill="#313235" fill-rule="nonzero"/></svg>