<svg width="24" height="24" xmlns="http://www.w3.org/2000/svg"><path d="M18.13 20.555c2.622-1.65 3.953-4.517 3.953-8.518 0-4.007-1.343-6.887-3.991-8.556-2.173-1.368-4.643-1.55-5.604-1.562a33.858 33.858 0 0 0-.976.003c-2.251.041-9.595.89-9.595 10.05 0 3.966 1.356 6.83 4.032 8.505 2.185 1.371 4.655 1.571 5.613 1.596.247.007.532.01.807.01h.204c.955-.01 3.406-.176 5.556-1.528ZM12.5 1.002c2.21.031 10.5.83 10.5 11.035C23 22.224 14.79 22.981 12.582 23h-.21c-.281 0-.575-.003-.829-.01C9.386 22.938 1 22.087 1 11.972 1 1.831 9.396 1.043 11.496 1.005c.335-.006.67-.006 1.005-.003Zm-.494 8.493c.254 0 .457.207.457.457v7.15a.458.458 0 0 1-.914 0V9.955a.456.456 0 0 1 .457-.46ZM12 6.897a.713.713 0 1 1 0 1.427.713.713 0 0 1 0-1.427Z" fill="#313235" fill-rule="nonzero"/></svg>