<svg width="24" height="24" xmlns="http://www.w3.org/2000/svg"><path d="m11.924 16.585-8.765-4.543 2.216-1.16 6.09 3.157a.985.985 0 0 0 .91.003l6.207-3.162 2.258 1.162-8.916 4.543Zm8.916-1.098-8.916 4.544-8.765-4.544 2.216-1.16 6.09 3.16c.145.076.3.112.459.112.154 0 .31-.036.45-.106l6.208-3.165 2.258 1.16ZM11.924 4.014l8.916 4.583-8.916 4.546-8.765-4.546 8.765-4.583Zm9.919 8.03c0-.38-.213-.733-.55-.904l-1.602-.823 1.6-.816a1.019 1.019 0 0 0 .003-1.81L12.378 3.11a1.003 1.003 0 0 0-.916.006L2.7 7.697A1.015 1.015 0 0 0 2.702 9.5l1.577.818-1.58.826a1.017 1.017 0 0 0 .003 1.801l1.577.818-1.58.826a1.019 1.019 0 0 0 .003 1.801l8.762 4.544a.983.983 0 0 0 .91.003l8.917-4.544a1.02 1.02 0 0 0 .003-1.81l-1.603-.823 1.6-.815c.339-.17.552-.518.552-.9Z" fill="#313235" fill-rule="nonzero"/></svg>