<svg width="24" height="24" xmlns="http://www.w3.org/2000/svg"><path d="M18.569 20.425V3.576c0-.327-.263-.599-.398-.599H5.841c-.135 0-.398.272-.398.6v16.845c0 .342.24.6.398.6l12.33.003c.157-.003.398-.258.398-.6Zm-.403-18.269c.638 0 1.224.678 1.224 1.42v16.85c0 .755-.572 1.417-1.224 1.417L5.849 21.84c-.653 0-1.224-.661-1.224-1.418V3.576c-.003-.742.583-1.42 1.221-1.42h12.32ZM7.746 8.72a.82.82 0 1 1-.002-1.64.82.82 0 0 1 .001 1.64Zm0 2.46a.82.82 0 1 1 0 1.64.82.82 0 0 1 0-1.64Zm2.876-2.46a.412.412 0 0 1-.414-.409.41.41 0 0 1 .414-.409h5.731c.23 0 .415.185.415.41a.412.412 0 0 1-.415.408h-5.73ZM16.353 12c.23 0 .415.185.415.41a.412.412 0 0 1-.415.408h-5.73a.412.412 0 0 1-.415-.409.41.41 0 0 1 .414-.409h5.731Zm-8.608 3.283a.82.82 0 1 1 .002 1.64.82.82 0 0 1-.002-1.64Zm8.608.818c.23 0 .415.185.415.41a.41.41 0 0 1-.415.408h-5.73a.412.412 0 0 1-.415-.409.41.41 0 0 1 .414-.409h5.731Z" fill="#313235" fill-rule="nonzero"/></svg>