<svg width="24" height="24" xmlns="http://www.w3.org/2000/svg"><path d="M17.779 17.541c0 .106-.151.246-.305.246H6.54c-.163 0-.305-.137-.305-.246V6.499c0-.1.162-.255.305-.255h10.933c.143 0 .305.154.305.255V17.54Zm3.653-5.123a.412.412 0 0 0 0-.824h-2.827v-1.65h2.83a.412.412 0 0 0 0-.823h-2.83V6.499c0-.566-.537-1.081-1.131-1.081H14.89V2.572a.408.408 0 0 0-.409-.412.412.412 0 0 0-.412.412v2.843h-1.65V2.572a.412.412 0 0 0-.823 0v2.843h-1.65V2.572a.413.413 0 0 0-.826 0v2.843H6.538c-.59 0-1.132.515-1.132 1.081v2.622H2.572a.413.413 0 0 0 0 .826h2.837v1.65H2.572a.412.412 0 0 0 0 .824h2.837v1.65H2.572a.412.412 0 0 0 0 .823h2.837v2.647c0 .572.53 1.073 1.132 1.073h2.583v2.82a.414.414 0 0 0 .826 0v-2.82h1.65v2.82a.412.412 0 0 0 .823 0v-2.82h1.65v2.82a.412.412 0 0 0 .824 0v-2.82h2.582c.603 0 1.132-.501 1.132-1.073v-2.647h2.83a.414.414 0 0 0 0-.826h-2.836v-1.65l2.827.003Z" fill="#313235" fill-rule="nonzero"/></svg>