<svg width="24" height="24" xmlns="http://www.w3.org/2000/svg"><path d="M15.503 13.322V6.535c0-2.355-1.183-3.549-3.51-3.549-2.328 0-3.51 1.194-3.51 3.55v6.79c0 2.352 1.182 3.548 3.51 3.548 2.327 0 3.51-1.196 3.51-3.552zM11.993 2.16c2.79 0 4.325 1.555 4.325 4.375v6.79c0 2.821-1.535 4.376-4.328 4.376-2.79 0-4.325-1.555-4.325-4.376v-6.79c0-2.82 1.538-4.375 4.328-4.375zm.022 17.754a.96.96 0 0 1 .955.966.962.962 0 0 1-.955.966.962.962 0 0 1-.955-.966.96.96 0 0 1 .955-.966zm3.328-.967a.96.96 0 0 1 .955.967.962.962 0 0 1-.955.966.96.96 0 0 1-.955-.966.96.96 0 0 1 .955-.967zm2.672-2.302a.96.96 0 0 1 .955.966.962.962 0 0 1-.955.966.962.962 0 0 1-.955-.966.96.96 0 0 1 .955-.966zm.955-3.289a.82.82 0 0 1 .815.824.82.82 0 0 1-.815.826.82.82 0 0 1-.815-.826.818.818 0 0 1 .815-.824zM8.64 18.947a.96.96 0 0 1 .955.967.962.962 0 0 1-.955.966.96.96 0 0 1-.955-.966.96.96 0 0 1 .955-.967zm-2.67-2.302a.96.96 0 0 1 .956.966.962.962 0 0 1-.956.966.962.962 0 0 1-.955-.966c0-.532.429-.966.955-.966zm-.14-2.465a.82.82 0 0 1-.815.826.82.82 0 0 1-.815-.826.818.818 0 0 1 .815-.824c.454.003.818.37.815.824z" fill="#313235" fill-rule="nonzero"/></svg>