<svg width="24" height="24" xmlns="http://www.w3.org/2000/svg"><path d="M11.994 2.156c3.14 0 5.574.813 7.238 2.418 1.725 1.663 2.602 4.162 2.602 7.423 0 6.437-3.403 9.837-9.84 9.837-6.434 0-9.838-3.4-9.838-9.835 0-6.434 3.404-9.843 9.838-9.843Zm0 .56c-2.989 0-5.294.762-6.849 2.261-1.61 1.555-2.429 3.916-2.429 7.02 0 3.103.818 5.467 2.429 7.02 1.555 1.498 3.86 2.257 6.849 2.257 2.989 0 5.294-.76 6.851-2.258C20.46 17.462 21.277 15.1 21.277 12c0-3.1-.818-5.465-2.432-7.02-1.557-1.5-3.862-2.263-6.851-2.263Zm0 3.009a.28.28 0 0 1 .28.28v1.01c.893.049 1.651.302 2.188.634.184.115.271.258.271.4 0 .21-.168.385-.38.385h-.003a.642.642 0 0 1-.286-.087c-.561-.305-1.142-.507-1.79-.558v3.75l.196.026c1.924.241 2.838 1.154 2.838 2.608 0 1.541-1.034 2.666-3.03 2.795l-.001 1.023a.28.28 0 0 1-.28.28.28.28 0 0 1-.28-.28v-1.016l-.105-.002a5.303 5.303 0 0 1-2.708-.929c-.143-.1-.213-.213-.213-.384a.412.412 0 0 1 .412-.397c.106.005.21.039.3.1.586.39 1.387.779 2.314.843l-.002-3.909h-.004c-1.896-.242-2.779-1.155-2.779-2.567 0-1.601 1.086-2.623 2.781-2.715v-1.01a.28.28 0 0 1 .28-.28Zm.283 6.642v3.838c1.38-.095 2.213-.865 2.213-1.97 0-.95-.519-1.624-2.213-1.868Zm-2.53-2.71c0 .933.536 1.554 1.967 1.805l-.001-3.68c-1.266.08-1.966.838-1.966 1.876Z" fill="#313235" fill-rule="nonzero"/></svg>