<svg width="24" height="24" xmlns="http://www.w3.org/2000/svg"><path d="M18.629 3.8c1.084 1.024 1.639 2.615 1.622 4.725a7.095 7.095 0 0 1-1.507 4.854 5.264 5.264 0 0 1-2.283 1.493 10.294 10.294 0 0 1-3.26.46h-2.609v6.1a.408.408 0 0 1-.409.41H5.91a.41.41 0 0 1-.409-.41V2.572a.41.41 0 0 1 .409-.409h6.437c1.26-.025 2.518.098 3.748.37.941.193 1.815.63 2.535 1.266Zm-.474 9.021a6.353 6.353 0 0 0 1.297-4.305c0-1.863-.465-3.28-1.378-4.1a4.765 4.765 0 0 0-2.143-1.09 15.415 15.415 0 0 0-3.585-.345h-6.03v18.045H9.78v-6.112c0-.227.182-.41.406-.41H13.2a9.381 9.381 0 0 0 3.014-.416 4.402 4.402 0 0 0 1.941-1.267Zm-4.26-7.38c.454.09.874.3 1.221.607.605.698.9 1.614.815 2.535a3.696 3.696 0 0 1-.888 2.69c-.31.316-.697.548-1.123.672a6.646 6.646 0 0 1-1.63.165h-2.104a.405.405 0 0 1-.406-.409V5.687c0-.227.182-.409.406-.409h1.997a7.642 7.642 0 0 1 1.712.163Zm.571 5.249a2.925 2.925 0 0 0 .645-2.084 2.631 2.631 0 0 0-.586-1.936 1.708 1.708 0 0 0-.815-.409 7.152 7.152 0 0 0-1.524-.165h-1.588v5.193h1.658c.485.014.97-.03 1.443-.14.294-.081.557-.24.767-.46Z" fill="#313235" fill-rule="nonzero"/></svg>