<svg width="24" height="24" xmlns="http://www.w3.org/2000/svg"><path d="M9.44 4.891a.252.252 0 0 0 .059.266l.913.916a.482.482 0 0 1 .123.384l-.215 1.291c-.017.101.02.196.1.252.07.048.155.054.227.012L11.78 7.4a.436.436 0 0 1 .426.008l1.115.603A.22.22 0 0 0 13.547 8a.244.244 0 0 0 .1-.252l-.215-1.291a.462.462 0 0 1 .134-.395l.902-.905c.067-.07.09-.17.059-.266a.23.23 0 0 0-.185-.16l-1.263-.187a.444.444 0 0 1-.322-.236l-.569-1.184c-.081-.168-.33-.168-.409 0L11.213 4.3a.459.459 0 0 1-.356.247l-1.232.184a.226.226 0 0 0-.185.16Zm.238 1.62-.773-.777a1.072 1.072 0 0 1-.255-1.103c.129-.384.457-.656.852-.717l1.05-.157.474-.99a1.06 1.06 0 0 1 1.918-.002l.477.989 1.05.157c.395.059.723.333.851.717.132.39.034.812-.257 1.103l-.773.776.182 1.104c.067.415-.101.818-.443 1.059a1.074 1.074 0 0 1-1.112.064l-.933-.507-.932.507a1.036 1.036 0 0 1-1.11-.064A1.073 1.073 0 0 1 9.5 7.61l.18-1.1Zm11.334 14.47V17.3c-.017-.004-.034-.004-.05-.004H15.61c-.017 0-.034 0-.048.003v3.68c.014 0 .031.004.048.004h5.35c.017 0 .034 0 .05-.003Zm-11.684.022h5.35l.05-9.286-5.4-.002-.048 8.829V21l.048.003Zm-6.283-.02h5.35a.247.247 0 0 0 .048-.005v-6.126a.13.13 0 0 0-.048-.009h-5.35a.13.13 0 0 0-.047.009v6.129c.01.003.03.003.047.003Zm12.566.866H3.045c-.487 0-.885-.342-.885-.737v-6.397c0-.429.457-.717.885-.717h5.35c.017 0 .034.008.048.008v-2.291c0-.451.414-.85.885-.85h5.35c.47 0 .885.399.885.85v4.74c.014 0 .034-.006.048-.006h5.35c.44 0 .885.21.885.613v4.148c0 .362-.367.633-.888.633h-5.347v.006Z" fill="#313235" fill-rule="nonzero"/></svg>