<svg width="24" height="24" xmlns="http://www.w3.org/2000/svg"><path d="M11.988 2.15c3.14 0 5.574.812 7.238 2.417 1.725 1.664 2.602 4.163 2.602 7.423.003 6.435-3.4 9.838-9.84 9.838-6.435 0-9.838-3.4-9.838-9.838 0-6.437 3.4-9.84 9.838-9.84Zm0 .56c-6.155 0-9.278 3.123-9.278 9.28 0 6.154 3.12 9.278 9.278 9.278 6.16 0 9.28-3.12 9.28-9.278.002-6.16-3.12-9.28-9.28-9.28Zm1.574 3.374.064.004c1.42.26 2.518.886 3.263 1.86.762.998 1.149 2.359 1.149 4.048 0 1.997-.54 3.53-1.602 4.555-.968.922-2.35 1.42-4.111 1.476l-.335.005c-1.921 0-3.417-.501-4.44-1.487-1.061-1.025-1.602-2.557-1.602-4.555 0-1.664.376-3.01 1.115-4.005.726-.972 1.793-1.605 3.18-1.88l.064-.005.062.009a.281.281 0 0 1-.017.548c-2.55.507-3.843 2.303-3.843 5.336 0 3.639 1.843 5.482 5.481 5.482 3.639 0 5.485-1.843 5.485-5.482 0-3.073-1.33-4.877-3.95-5.356a.28.28 0 0 1 .037-.553ZM11.99 4.579a.28.28 0 0 1 .28.28v4.098a.281.281 0 0 1-.216.272l-.064.008a.28.28 0 0 1-.28-.28V4.859a.28.28 0 0 1 .28-.28Z" fill="#313235" fill-rule="nonzero"/></svg>