<svg width="24" height="24" xmlns="http://www.w3.org/2000/svg"><path d="M20.26 7.316s.07-.011.07-.286c0-.26-.092-.333-.092-.333-.042-.034-.138-.056-.451-.056H4.22c-.3 0-.364-.017-.48.092-.002 0-.066.07-.064.328.003.24.115.308.115.308.062.045.093.076.406.076H19.77c.291-.003.468-.093.49-.13Zm-.776 9.588V8.436a.232.232 0 0 0-.07-.176c-.053-.05-.151-.065-.269-.081H4.82c-.176.03-.322.131-.322.257v8.48c0 .064.023.125.079.167.07.065.193.087.353.087l14.16.009c.204 0 .394-.126.394-.275Zm-7.045 3.773c0-.117 0-.42-.423-.426h-.07c-.409 0-.409.309-.409.426 0 .11 0 .426.415.426.487-.006.487-.308.487-.426Zm-1.005-16.31L8.546 5.903h6.736l-2.697-1.552a1.373 1.373 0 0 1-.546.132h-.084a1.398 1.398 0 0 1-.521-.118Zm.515-1.48c-.409 0-.409.308-.409.429 0 .12 0 .426.423.434.476-.006.476-.314.476-.426 0-.117 0-.425-.423-.434.003-.003-.067-.003-.067-.003Zm8.843 3.32a.686.686 0 0 1 .222.484v.692c0 .367-.331.647-.821.75a.95.95 0 0 1 .061.295v8.479c0 .557-.52 1.006-1.168 1.006h-6.705v1.663c.462.126.829.485.829 1.104 0 .787-.591 1.154-1.166 1.163h-.1c-.577-.009-1.169-.367-1.169-1.163 0-.639.384-1 .838-1.118v-1.647l-6.667-.008c-.445.03-.745-.146-.899-.286a.97.97 0 0 1-.316-.706V8.434c0-.104.03-.208.061-.295-.246-.05-.454-.131-.59-.263a.69.69 0 0 1-.233-.484l.008-.692c0-.463.524-.793 1.247-.793h2.742l3.91-2.081a1.26 1.26 0 0 1-.1-.507c0-.796.59-1.154 1.176-1.163h.092c.577.017 1.166.384 1.166 1.168 0 .177-.031.34-.093.48l3.65 2.103h2.958c.468-.017.835.092 1.067.3Zm-5.294 8.787c.207 0 .384.168.384.367a.375.375 0 0 1-.384.367H7.431a.377.377 0 0 1-.384-.367v-4.905c0-.199.177-.367.384-.367a.377.377 0 0 1 .384.367v3.955l1.297-1.935a.38.38 0 0 1 .462-.149l2.636.978 1.767-2.132h-.53a.372.372 0 0 1-.383-.358v-.009a.37.37 0 0 1 .384-.367h1.367c.185 0 .347.132.378.308l.185 1.185c.039.196-.107.381-.322.418h-.054c-.185 0-.353-.132-.378-.309l-.059-.38-1.927 2.316a.393.393 0 0 1-.437.118l-2.605-.97-1.258 1.869h7.16Z" fill="#313235" fill-rule="nonzero"/></svg>