<svg width="24" height="24" xmlns="http://www.w3.org/2000/svg"><path d="M11.99 21.016c5.99 0 9.023-3.034 9.023-9.02 0-5.989-3.037-9.022-9.023-9.022S2.97 6.01 2.97 11.996c0 5.986 3.037 9.02 9.02 9.02Zm0-18.866c6.443 0 9.846 3.406 9.846 9.846 0 6.437-3.403 9.84-9.846 9.84-6.437 0-9.84-3.403-9.84-9.84 0-6.44 3.403-9.846 9.84-9.846Zm1.768 10.345 2.689-2.6-2.69-2.608v.983c0 .227-.246.463-.47.463H9.248a.142.142 0 0 0-.1.042.133.133 0 0 0-.043.1v8.048h2.137v-5.456a.41.41 0 0 1 .41-.41h1.63c.12.009.235.062.319.146a.504.504 0 0 1 .151.317c.006 0 .006.975.006.975Zm.255-6.101 3.123 3.028a.642.642 0 0 1-.022.963L14.04 13.36c-.233.19-.502.221-.731.115a.648.648 0 0 1-.376-.586v-1.01h-.868v5.453a.41.41 0 0 1-.409.409H8.693a.41.41 0 0 1-.409-.409v-8.46c0-.257.101-.498.283-.68a.956.956 0 0 1 .681-.283l3.69.003v-1.02a.64.64 0 0 1 .372-.582.657.657 0 0 1 .703.084Z" fill="#313235" fill-rule="nonzero"/></svg>