<svg width="24" height="24" viewBox="0 0 24 24" xmlns="http://www.w3.org/2000/svg" style="background:#ffb4b4"><g fill="none" fill-rule="evenodd"><path fill="#FFB4B4" d="M0 0h24v24H0z"/><path d="M20.208 12.178c1.422 0 2.622-.726 2.622-1.584 0-.342-.199-.615-.364-.786l-.003-.003c-.218-.23-.42-.82-.988-2.878a26.277 26.277 0 00-.252-.89l-1.513-4.8a.098.098 0 00-.09-.064l-15.238.043a.095.095 0 00-.09.06c-.205.653-.511 1.641-.84 2.7-.935 3.015-1.607 5.173-1.735 5.472-.08.178-.175.346-.282.508-.165.262-.26.417-.26.632 0 .86 1.2 1.583 2.623 1.583.954 0 1.838-.326 2.305-.847l.148-.165.293-.033c.168 0 .326.07.44.198.467.524 1.351.847 2.306.847.945 0 1.825-.32 2.296-.837l.148-.161.289-.03c.165 0 .32.07.43.19.47.519 1.351.838 2.296.838.944 0 1.825-.32 2.296-.837l.144-.158.286-.034h.003c.162 0 .32.068.43.189.474.524 1.355.843 2.3.847zm1.143 9.875v-9.035a5.07 5.07 0 01-1.147.141c-1.065 0-2.053-.326-2.73-.88-.675.557-1.666.88-2.732.88-1.065 0-2.054-.323-2.73-.88-.672.557-1.663.88-2.732.88-1.072 0-2.07-.33-2.746-.894-.676.565-1.67.894-2.746.894-.404 0-.784-.057-1.147-.141v9.032c0 .427.377.776.837.776h5.388v-5.993c0-.702.592-1.274 1.318-1.274h3.65c.73 0 1.322.572 1.322 1.274v5.993h5.36c.461 0 .838-.346.835-.773zm-7.18.773v-5.993c0-.161-.152-.292-.336-.292H10.19c-.185 0-.336.13-.336.292v5.993h4.316zm9.64-12.235c0 .867-.578 1.614-1.476 2.077v9.385c0 .968-.816 1.758-1.818 1.758H3.482c-1.005 0-1.822-.79-1.822-1.758v-9.385c-.894-.46-1.472-1.21-1.472-2.077 0-.51.228-.87.41-1.16.074-.117.15-.235.208-.37.118-.272 1.032-3.22 1.697-5.374.33-1.066.636-2.05.844-2.713.148-.443.558-.74 1.025-.743l15.24-.043c.458-.007.891.299 1.033.75l1.512 4.803c.06.188.155.527.262.927.199.716.605 2.195.767 2.474.41.427.625.925.625 1.45z" fill="#313235" fill-rule="nonzero"/></g></svg>