<svg width="24" height="24" viewBox="0 0 24 24" xmlns="http://www.w3.org/2000/svg"><path d="M11.992 21.02c5.99 0 9.027-3.035 9.027-9.022 0-5.99-3.037-9.027-9.027-9.027-5.987 0-9.021 3.037-9.021 9.027 0 5.987 3.034 9.021 9.021 9.021zm0-18.87c6.22 0 9.848 3.14 9.848 9.848 0 6.707-3.628 9.842-9.848 9.842-6.22 0-9.842-3.135-9.842-9.842 0-6.707 3.623-9.848 9.842-9.848zm.415 9.946l2.908 2.91a.408.408 0 01-.011.58.408.408 0 01-.569 0l-3.031-3.028a.421.421 0 01-.12-.291V8.165a.41.41 0 01.817 0l.006 3.93z" fill="#313235" fill-rule="nonzero"/></svg>