<svg width="24" height="24" xmlns="http://www.w3.org/2000/svg"><path d="m20.994 9.44-.373 1.462a.33.33 0 0 1-.4.243l-.006-.002-.955-.244.538-2.115.955.244c.176.05.286.23.24.411zm-2.863 2.495a.442.442 0 0 1-.535.322h-.006L4.994 9.047a.434.434 0 0 1-.272-.204.436.436 0 0 1-.05-.333l1.316-5.177a.445.445 0 0 1 .538-.322l12.6 3.204a.441.441 0 0 1 .319.538c.003.003-1.314 5.182-1.314 5.182zM4.955 20.563a.444.444 0 0 1-.443.442H3.439a.444.444 0 0 1-.442-.445v-5.431c0-.244.198-.443.442-.443h1.076c.243 0 .442.199.442.443v5.434h-.002zM21.677 8.759a1.158 1.158 0 0 0-.72-.538l-.955-.244.258-1.014a1.286 1.286 0 0 0-.927-1.56l-12.6-3.207a1.283 1.283 0 0 0-1.557.927l-1.317 5.18c-.084.33-.033.677.14.971.177.294.454.502.788.586l6.282 1.6-2.282 6.467H5.82c-.011 0-.017.005-.028.005V15.13c0-.706-.574-1.283-1.28-1.283H3.439c-.709 0-1.283.577-1.283 1.283v5.43c0 .707.574 1.281 1.283 1.281h1.076c.706 0 1.28-.574 1.28-1.28v-1.798c.011 0 .017.005.028.005h3.263c.18 0 .336-.112.395-.28l2.406-6.82 5.499 1.4a1.282 1.282 0 0 0 1.557-.927l.107-.423.955.24c.622.163 1.26-.21 1.423-.834 0-.006.003-.008.003-.014l.372-1.462a1.146 1.146 0 0 0-.126-.888z" fill="#313235" fill-rule="nonzero"/></svg>