<svg width="24" height="24" xmlns="http://www.w3.org/2000/svg"><path d="M21.018 15.9v-2.952a.439.439 0 0 0-.434-.445H12.45c-.972 0-1.765.812-1.765 1.815v.218c0 1 .79 1.813 1.765 1.813h8.137a.443.443 0 0 0 .431-.449Zm-1.546 3.138-.003-1.846h-7.02c-1.425 0-2.588-1.194-2.588-2.659v-.218c0-1.468 1.16-2.661 2.589-2.661h7.002l-.002-1.745c.025-.516-.096-.922-.356-1.205-.26-.285-.647-.437-1.12-.442l-13.496.005V8.26c-.558 0-1.079-.21-1.496-.58v11.255c-.025.507.098.91.356 1.193.263.286.666.446 1.14.451l13.498-.005c.824.005 1.496-.687 1.496-1.535ZM2.982 5.842v.033c0 .412.154.798.44 1.09.086.09.187.165.294.23v-.393A1.33 1.33 0 0 1 5.04 5.47l11.666-.838V3.444l-12.199.86c-.428 0-.804.162-1.086.45-.286.29-.44.676-.44 1.088Zm14.933.07a.5.5 0 0 0-.505-.49l-.291.022h-.003L5.07 6.309c-.306 0-.533.222-.533.49v.617l13.379.005v-1.51Zm2.672 5.745c.692 0 1.255.58 1.255 1.291V15.9c0 .712-.563 1.292-1.255 1.292h-.294l.003 1.846c0 1.316-1.04 2.386-2.32 2.386l-13.501.006c-.703-.006-1.317-.26-1.737-.717-.414-.454-.616-1.076-.577-1.796V5.842c0-.636.24-1.236.678-1.687.44-.45 1.02-.7 1.641-.7l12.611-.89a.403.403 0 0 1 .308.111.43.43 0 0 1 .132.308v1.608c.686.07 1.21.633 1.21 1.32v1.633c.375.114.706.305.958.582.414.454.613 1.079.577 1.804l.003 1.723h.308v.003Zm-7.941 3.582a.804.804 0 0 0 .792-.815.804.804 0 0 0-.792-.815.806.806 0 0 0-.793.815c0 .448.356.815.793.815Zm0-2.476c.89 0 1.613.745 1.613 1.661s-.725 1.661-1.613 1.661c-.891 0-1.617-.745-1.617-1.66 0-.917.726-1.662 1.617-1.662Z" fill="#313235" fill-rule="nonzero"/></svg>