<svg width="24" height="24" xmlns="http://www.w3.org/2000/svg"><path d="M14.143 20.661c-.073 0-.143-.008-.216-.022-.336-.073-.605-.303-.823-.521l-.014-.014-4.813-5.115-2.58 2.58-.008.008c-.33.317-.893.409-1.339.218-.414-.179-.66-.568-.658-1.044V4.664a.901.901 0 0 1 .255-.717.89.89 0 0 1 .717-.252l12.145.005c.426-.003.782.224.956.614.204.456.112 1.047-.216 1.406a.074.074 0 0 0-.014.017l-2.384 2.375 4.905 4.79.006.006c.367.366.549.756.543 1.162-.006.395-.193.779-.56 1.143L15.02 20.26l-.017.017c-.278.255-.569.384-.86.384zm-.277-1.3c.17.168.246.21.274.222a.604.604 0 0 0 .129-.093l5.017-5.039c.157-.157.243-.3.246-.4.003-.127-.12-.278-.227-.382l-4.972-4.857-.005-.005a.973.973 0 0 1-.017-1.376l2.448-2.448c.03-.042.045-.148.03-.213L4.769 4.765V16.75c0 .025.002.042.005.05.037.02.137.017.177-.008l2.652-2.653a.954.954 0 0 1 .7-.274.995.995 0 0 1 .676.294l.01.01 4.878 5.191z" fill="#313235" fill-rule="nonzero"/></svg>