<svg width="24" height="24" xmlns="http://www.w3.org/2000/svg"><path d="M11.83 21.67a.949.949 0 0 1-.726-.337l-8.84-9.143c-.012-.01-.02-.022-.032-.033a1.01 1.01 0 0 1-.128-1.079.958.958 0 0 1 .87-.56h3.934V3.922c0-1.05.854-1.905 1.904-1.905h6.031c1.053 0 1.905.851 1.905 1.905l-.003 6.596h3.96c.376 0 .718.219.875.56.17.353.12.776-.13 1.079-.008.011-.019.022-.03.033l-8.863 9.143a.959.959 0 0 1-.728.336zM3.212 11.607l8.619 8.913 8.641-8.913H16.63c-.535 0-.972-.448-.972-.997l.003-6.687a.816.816 0 0 0-.815-.818h-6.03A.816.816 0 0 0 8 3.922v6.686c0 .549-.437.997-.972.997H3.213v.003z" fill="#313235" fill-rule="nonzero"/></svg>