<svg width="24" height="24" xmlns="http://www.w3.org/2000/svg"><path d="M11.798 16.186 3.46 11.884l1.589-.83 6.098 3.15a1.413 1.413 0 0 0 1.297.005l6.218-3.154 1.622.832-8.485 4.3zm8.485-1.042-8.485 4.303-8.339-4.303 1.589-.826 6.098 3.146a1.413 1.413 0 0 0 1.297.005l6.218-3.154 1.622.83zM11.798 4.282l8.485 4.338-8.485 4.306L3.46 8.62l8.34-4.338zm9.916 7.605c0-.544-.302-1.04-.784-1.286l-.686-.35.68-.345a1.442 1.442 0 0 0 .003-2.569L12.443 3a1.434 1.434 0 0 0-.65-.157c-.227 0-.451.053-.659.162l-8.338 4.34A1.44 1.44 0 0 0 2.8 9.9l.678.35-.683.355c-.477.247-.774.74-.774 1.28 0 .541.3 1.031.78 1.278l.677.35-.683.356a1.44 1.44 0 0 0 .005 2.557l8.34 4.303c.204.106.428.157.652.157.221 0 .442-.05.644-.155l8.485-4.302a1.442 1.442 0 0 0 .003-2.569l-.687-.35.68-.347c.491-.241.796-.737.796-1.277z" fill="#313235" fill-rule="nonzero"/></svg>