<svg width="24" height="24" viewBox="0 0 24 24" xmlns="http://www.w3.org/2000/svg"><path d="M21.608 20.678L12.38 2.412c-.129-.255-.361-.406-.622-.406-.26 0-.493.154-.619.409L2.11 20.678a.718.718 0 00.022.706.738.738 0 00.633.336h18.193a.733.733 0 00.633-.333.717.717 0 00.017-.71zm-9.748-1.709c-.35 0-.555-.201-.555-.554 0-.353.202-.555.555-.555.353 0 .555.202.555.555 0 .353-.205.554-.555.554zm.563-2.672a.551.551 0 11-1.104 0V8.583a.551.551 0 111.104 0v7.714z" fill="#313235" fill-rule="nonzero"/></svg>