<svg width="24" height="25" viewBox="0 0 24 25" xmlns="http://www.w3.org/2000/svg"><path d="M20.224 5.522c.807 0 1.462.63 1.462 1.41V18.88c0 .776-.655 1.406-1.462 1.406H3.462C2.655 20.29 2 19.657 2 18.881V6.931c0-.776.655-1.409 1.462-1.409h16.762zm.23 4.323H3.232v9.036c0 .12.101.218.227.218h10.39a.862.862 0 01.185-.263l.37-.356a3.66 3.66 0 01-.096-.297h-.414c-.541 0-.984-.425-.984-.946v-.661c0-.521.44-.944.984-.944h.414c.025-.096.056-.196.095-.297l-.37-.353a.93.93 0 01-.027-1.317c.008-.01.02-.02.028-.028l.501-.484a1.014 1.014 0 011.398 0l.37.358c.098-.033.198-.064.305-.092v-.398c0-.524.44-.947.983-.947h.686c.54 0 .984.423.984.947v.398c.103.028.204.059.305.095l.37-.356a.95.95 0 01.518-.263v-3.05zm-2.569 5.14c-1.162 0-1.882.694-1.882 1.812s.72 1.812 1.882 1.812c1.163 0 1.883-.694 1.883-1.812s-.723-1.812-1.883-1.812zm-8.67-2.902c.567 0 .925.078 1.158.297.196.179.29.459.29.845 0 .387-.089.676-.268.877-.21.238-.538.348-1.014.348h-.58v1.246h-.823v-3.613h1.238zm-2.963 0l1.303 3.61h-.883l-.3-.907h-1.17l-.28.907h-.785l1.208-3.61h.907zm5.826 0v3.61h-.823v-3.61h.823zm-6.3.902h-.01l-.376 1.204h.782l-.395-1.204zm3.404-.306h-.386v1.152h.408c.264 0 .376-.037.48-.138.095-.095.142-.249.142-.46 0-.195-.042-.338-.137-.428-.1-.09-.252-.126-.507-.126zM4.445 7.127a.56.56 0 00-.571.55.56.56 0 00.571.548.562.562 0 00.572-.549.56.56 0 00-.572-.549zm1.715 0a.56.56 0 00-.572.55.56.56 0 00.572.548.562.562 0 00.571-.549.56.56 0 00-.571-.549zm1.714 0a.56.56 0 00-.571.55.56.56 0 00.57.548.562.562 0 00.572-.549.56.56 0 00-.571-.549z" fill="#313235" fill-rule="nonzero"/></svg>