<svg width="24" height="24" viewBox="0 0 24 24" xmlns="http://www.w3.org/2000/svg"><path d="M15.154 21.742a.749.749 0 01-.563-.255l-4.16-4.212c-.01-.015-.025-.026-.036-.04a.782.782 0 01-.098-.832.753.753 0 01.683-.437l1.824-.014-.006-2.902c0-.663.538-1.201 1.202-1.204h2.32c.663 0 1.201.538 1.201 1.202l.003 2.904 1.826.014c.294 0 .56.171.684.437a.787.787 0 01-.098.832c-.012.014-.023.028-.037.04l-4.182 4.215a.756.756 0 01-.563.252zm-5.378-9.834H7.459a1.201 1.201 0 01-1.201-1.202l-.003-2.902L4.43 7.79a.749.749 0 01-.68-.437.788.788 0 01.137-.871l4.174-4.207a.756.756 0 011.126 0l4.154 4.21c.01.014.025.025.036.039.19.235.23.557.098.829a.753.753 0 01-.683.437l-1.821.014.003 2.902a1.197 1.197 0 01-1.2 1.202z" fill="#313235" fill-rule="nonzero"/></svg>