<svg width="24" height="24" viewBox="0 0 24 24" xmlns="http://www.w3.org/2000/svg"><path d="M14.255 18.05c0-.283-.04-.54-.118-.773.857-.238 1.367-.94 1.367-1.95 0-.282-.042-.543-.117-.775.848-.241 1.352-.941 1.352-1.944 0-.247-.03-.476-.09-.684h2.903c1.333 0 2.162-.818 2.162-2.134 0-1.266-.77-2.042-2.117-2.129h-7.429c.577-.339.98-.644 1.272-1.008.288-.359.431-.787.431-1.208 0-.403-.132-.8-.398-1.131-.52-.65-1.409-.81-2.263-.41-1.448.681-3.776 1.827-5.647 2.749-1.165.574-2.174 1.07-2.476 1.21-.32.145-1.062.49-1.062 1.271v7.788c0 .983.308 1.82.866 2.36.554.539 1.33.81 2.302.81h6.997c1.275-.005 2.065-.784 2.065-2.042z" fill="#313235" fill-rule="nonzero"/></svg>