<svg width="24" height="24" viewBox="0 0 24 24" xmlns="http://www.w3.org/2000/svg"><path d="M14.641 2H6.857c-.983 0-1.823.308-2.364.866-.538.554-.81 1.33-.81 2.3v6.996c0 1.272.782 2.062 2.037 2.062.283 0 .54-.04.773-.118.238.858.941 1.367 1.947 1.367a2.4 2.4 0 00.776-.117c.243.848.94 1.353 1.944 1.353.246 0 .476-.031.683-.09v2.902c0 1.333.818 2.162 2.135 2.162 1.266 0 2.042-.773 2.128-2.117l.003-.045v-7.384c.34.577.642.98 1.009 1.272.358.286.787.431 1.207.431.403 0 .801-.131 1.132-.397.65-.521.81-1.41.409-2.26a430.283 430.283 0 00-2.746-5.648c-.574-1.165-1.07-2.17-1.21-2.476C15.767 2.742 15.423 2 14.641 2" fill="#313235" fill-rule="nonzero"/></svg>