<svg width="24" height="24" viewBox="0 0 24 24" xmlns="http://www.w3.org/2000/svg"><path d="M19.746 7.118l.009-.365c-.104-.022-.21-.028-.317-.022L4.242 6.723a.794.794 0 00-.28.045v.364c.062.014.165.028.308.022h.519c.044 0 .084-.008.12-.008l13.849.008c.053-.008.098.006.143.006h.565a.791.791 0 00.28-.042zm-7.921 13.621c.353-.008.353-.187.353-.31 0-.118 0-.314-.3-.32h-.059c-.263 0-.285.151-.285.311-.003.126-.003.314.29.32zm-.423-16.282L9.203 5.633l5.193.008-2.044-1.201a1.31 1.31 0 01-.451.081h-.084c-.135 0-.278-.022-.415-.064zm.415-1.513c-.264.008-.286.151-.286.314 0 .16.022.319.294.319.353-.008.353-.188.353-.31 0-.119 0-.315-.3-.32l-.061-.003zm8.781 3.048c.18.16.277.378.286.602l-.009.689c0 .395-.294.714-.759.865.009.05.023.11.023.166l-.009 8.383c0 .645-.594 1.177-1.33 1.177l-6.378-.008v1.403c.414.168.736.546.736 1.157 0 .848-.63 1.243-1.255 1.257h-.098c-.616-.008-1.249-.4-1.249-1.266 0-.619.322-.988.74-1.157v-1.394h-6.34c-.52.02-.834-.177-1.016-.342a1.09 1.09 0 01-.362-.82V8.316c0-.05.009-.101.014-.152a1.272 1.272 0 01-.481-.263.833.833 0 01-.278-.61v-.69c0-.56.594-.966 1.406-.966h2.64l3.725-1.992a1.496 1.496 0 01-.054-.386c0-.857.63-1.25 1.255-1.258v.008h.098c.617.006 1.25.407 1.25 1.258 0 .132-.014.247-.045.35l3.479 2.025h2.835c.504-.02.918.11 1.176.35zm-5.314 8.781H8.346l1.165-1.767 2.527.946a.45.45 0 00.473-.123l1.827-2.224.044.289c.031.196.21.341.406.341.023 0 .045-.008.068-.008a.413.413 0 00.347-.46l-.18-1.162a.413.413 0 00-.414-.333h-1.333a.407.407 0 00-.415.392c0 .224.188.398.415.398h.442l-1.663 2.03-2.558-.952a.41.41 0 00-.496.154l-1.196 1.818v-3.79a.402.402 0 00-.411-.398H7.39a.4.4 0 00-.415.387v4.86c0 .218.18.4.415.4h7.89a.41.41 0 00.415-.4.404.404 0 00-.412-.398z" fill="#313235" fill-rule="nonzero"/></svg>