<svg width="24" height="24" viewBox="0 0 24 24" xmlns="http://www.w3.org/2000/svg"><path d="M7.43 6.501a.423.423 0 01-.426-.42v-3.66c0-.23.19-.421.426-.421h1.877c.235 0 .425.188.425.42v1.151h.905v-1.15c0-.23.19-.421.426-.421h1.627c.236 0 .426.188.426.42v1.227l.939-.014V2.42c0-.23.19-.42.425-.42h1.953c.235 0 .426.188.426.42v3.664c0 .233-.19.42-.426.42h-.289V6.5h-8.16v.005H7.43v-.003zm.196 9.737c0-.232.19-.42.426-.42h.781a.515.515 0 01-.014-.149l.813-6.94h-.437a.423.423 0 01-.426-.42V7.164h6.392v1.143c0 .23-.19.42-.426.42h-.437l.813 6.941c.005.05 0 .101-.014.149h.689c.235 0 .425.188.425.42v2.09H7.623v-2.09h.003zm9.608 2.76c.235 0 .426.187.426.42v1.848c0 .233-.19.42-.426.42H6.604a.423.423 0 01-.426-.42v-1.849c0-.23.19-.42.426-.42h10.63z" fill="#313235" fill-rule="nonzero"/></svg>