<svg width="24" height="24" viewBox="0 0 24 24" xmlns="http://www.w3.org/2000/svg"><path d="M18.387 17.89a1.17 1.17 0 00-.426-1.596 1.174 1.174 0 00-1.597.429 1.171 1.171 0 001.011 1.753 1.174 1.174 0 001.011-.585zm-2.76-3.506a.424.424 0 00.605.005l1.303-1.28-.605-.605-1.297 1.275a.429.429 0 00-.006.605zm-2.52-1.067l2.319-2.323-.605-.605-2.32 2.322a.426.426 0 000 .606.426.426 0 00.605 0zm-1.415-3.009c.11 0 .216-.042.3-.123l1.322-1.3-.605-.605-1.317 1.294a.429.429 0 00.3.734zM8.824 9.151l2.378-2.38-.605-.606-2.379 2.381a.426.426 0 000 .605.426.426 0 00.606 0zM7.409 6.143c.11 0 .216-.04.3-.123l1.383-1.362-.605-.605L7.11 5.41a.429.429 0 00.3.734zM21.42 16.434c.168.224.266.496.266.782 0 .35-.137.68-.384.927l-3.184 3.188c-.247.249-.577.383-.928.383-.35 0-.677-.134-.924-.383L2.384 7.44a1.315 1.315 0 010-1.855L5.57 2.398c.493-.496 1.359-.496 1.852 0l.218.218.012-.008 13.795 13.8-.028.026z" fill="#313235" fill-rule="nonzero"/></svg>