<svg width="24" height="24" viewBox="0 0 24 24" xmlns="http://www.w3.org/2000/svg"><path d="M18.482 2h-7.185c-1.107 0-1.91.272-2.454.832-.535.549-.795 1.353-.795 2.46v4.733L5.33 12.742a3.026 3.026 0 00-3.202 3.793.839.839 0 001.406.375l.655-.652.311.045.045.31-.655.656a.84.84 0 00.378 1.406 3.017 3.017 0 003.776-2.499v2.225c0 2.215 1.061 3.29 3.25 3.29h7.184c2.188 0 3.25-1.075 3.25-3.29V5.29C21.73 3.106 20.638 2 18.481 2zm-6.065 7.933L8.05 14.3h-.002v.003l-.886.885a2.182 2.182 0 01-2.675 2.675l.953-.953-.194-1.353-1.352-.193-.953.953a2.182 2.182 0 012.675-2.676l5.252-5.254a2.186 2.186 0 012.675-2.678l-.952.952.193 1.353 1.353.193.953-.952a2.182 2.182 0 01-1.544 2.675c-.367.104-.759.104-1.129.003zm3.196 9.039c-.168.17-.411.252-.714.252-.302 0-.546-.081-.714-.252-.154-.157-.241-.392-.241-.706 0-.655.375-.958.955-.958s.955.305.955.958c0 .317-.087.55-.24.706z" fill="#313235" fill-rule="nonzero"/></svg>