<svg width="24" height="24" viewBox="0 0 24 24" xmlns="http://www.w3.org/2000/svg"><path d="M5.885 2c.86 0 1.717.415 2.535 1.235.305.297.569.633.787 1 .432.695.586 1.41.465 2.126-.12.717-.524 1.42-1.193 2.093a5.01 5.01 0 01-.499.445c-.09.151.026.591.496 1.275.19.278.421.572.67.865l4.442-4.442c.011-.317.045-.628.101-.939.157-.857.468-1.524.922-1.977.45-.449 1.106-.757 1.946-.913a6.44 6.44 0 011.087-.11c.552 0 1.014.294 1.208.765.193.47.072 1.006-.314 1.392l-.527.527.04.271.268.037.53-.527c.26-.263.594-.406.932-.406.42 0 .813.221 1.031.583.13.215.196.462.194.711-.006.356-.04.714-.104 1.065-.154.857-.465 1.523-.919 1.977-.45.451-1.103.76-1.947.916a6.58 6.58 0 01-.966.107l-4.445 4.45c.173.147.337.28.493.401.924.714 1.37.82 1.554.82a.202.202 0 00.12-.027 5.04 5.04 0 01.446-.502c.818-.817 1.68-1.235 2.56-1.235.56 0 1.118.171 1.659.504a4.86 4.86 0 011 .787c.803.804 1.218 1.64 1.232 2.485.017.877-.395 1.762-1.227 2.63-.291.306-.697.597-.832.695l-.017.014-.025.017c-.56.386-1.266.582-2.1.582-1.28 0-2.821-.473-4.457-1.366-1.178-.644-2.375-1.483-3.577-2.507a6.14 6.14 0 01-.093.803c-.157.855-.467 1.521-.921 1.975-.451.451-1.104.76-1.947.916a6.443 6.443 0 01-1.09.11c-.551 0-1.014-.295-1.207-.765-.193-.47-.073-1.006.314-1.392l.526-.53-.039-.272-.272-.039-.526.527c-.26.263-.594.406-.933.406-.423 0-.815-.221-1.034-.583a1.34 1.34 0 01-.19-.708c.006-.356.04-.715.104-1.065.154-.857.465-1.524.918-1.977.449-.449 1.104-.757 1.944-.913a6.66 6.66 0 01.97-.107l-.12.007c-1.474-1.74-2.57-3.473-3.217-5.091-.834-2.09-.854-3.874-.058-5.028l.016-.025.014-.017c.096-.134.39-.54.695-.832C4.157 2.412 5.025 2 5.885 2zm11.762 1.779c-.053 0-1.555.008-2.244.694-.633.634-.689 1.958-.694 2.204v.04a.951.951 0 01-.241.586l-7.785 7.781a.967.967 0 01-.585.24c-.053 0-1.555.007-2.244.696-.633.633-.689 1.957-.694 2.203v.04c0 .115.042.177.103.177.04 0 .09-.025.14-.076l.684-.68a.794.794 0 01.512-.2.59.59 0 01.07.006l.978.14a.49.49 0 01.39.39l.14.977a.767.767 0 01-.194.583l-.68.68c-.135.132-.087.244.1.244.05 0 1.552-.005 2.241-.695.634-.633.69-1.957.694-2.203v-.04c0-.188.107-.451.242-.586L16.367 9.2a.953.953 0 01.583-.241h.059c.286-.008 1.564-.075 2.184-.695.634-.633.69-1.957.694-2.203v-.04c0-.115-.041-.177-.103-.177-.039 0-.09.023-.14.076l-.68.68a.794.794 0 01-.513.2.59.59 0 01-.07-.006l-.978-.14a.49.49 0 01-.389-.39l-.14-.977a.767.767 0 01.193-.583l.68-.68c.135-.135.088-.244-.1-.244z" fill="#313235" fill-rule="nonzero"/></svg>