<svg width="24" height="24" fill="none" xmlns="http://www.w3.org/2000/svg"><path fill-rule="evenodd" clip-rule="evenodd" d="M14.82 3.783h1.054c1.17 0 2.118.96 2.126 2.143v13.93C18 21.04 17.052 22 15.882 22H8.118C6.948 22 6 21.04 6 19.857V5.93c0-1.183.948-2.143 2.118-2.143h1.055V2h5.646v1.783Zm-3.035 13.111 2.43-4.274a.53.53 0 0 0-.004-.536.553.553 0 0 0-.463-.268h-2.643l1.98-3.483a.536.536 0 0 0-.194-.731.523.523 0 0 0-.723.196l-2.43 4.286a.54.54 0 0 0 0 .536.544.544 0 0 0 .462.268h2.64l-1.976 3.47a.54.54 0 0 0 .194.732.529.529 0 0 0 .727-.196Z" fill="#003"/></svg>