<svg width="24" height="24" fill="none" xmlns="http://www.w3.org/2000/svg"><path fill-rule="evenodd" clip-rule="evenodd" d="M7.356 6.284c0 .396.324.716.716.716a.72.72 0 0 0 .716-.712V2.716A.718.718 0 0 0 8.072 2a.718.718 0 0 0-.716.716v3.568Zm7.856 0a.717.717 0 0 0 1.432.004V2.716a.715.715 0 1 0-1.432 0v3.568ZM2 22h20V10.572H2V22Zm7.64-1.964c1.216 0 2.18-.964 2.18-2.144a2.1 2.1 0 0 0-.748-1.608c.468-.392.752-.964.752-1.608 0-1.18-.964-2.144-2.18-2.144H9c-.428 0-1.216.18-1.608.464-.252.18-.288.5-.108.752s.5.288.752.108c.144-.108.644-.252.964-.252h.644c.608 0 1.108.464 1.108 1.072 0 .608-.5 1.072-1.108 1.072H8.68a.552.552 0 0 0-.536.536c0 .284.252.536.536.536h.964c.608 0 1.108.464 1.108 1.072 0 .608-.5 1.072-1.108 1.072H9c-.32 0-.82-.144-.964-.252-.252-.176-.572-.144-.752.108-.176.252-.144.572.108.752.428.284 1.18.464 1.608.464h.64Zm6.112-.536a.552.552 0 0 1-.536.536.552.552 0 0 1-.536-.536V14l-.856.464a.502.502 0 0 1-.716-.216.502.502 0 0 1 .216-.716l1.644-.928a.484.484 0 0 1 .536 0c.18.108.252.284.252.464-.008.004-.008 6.432-.004 6.432Zm1.96-15.356h2.144c1.18 0 2.144.964 2.144 2.14V9.5H2V6.284c0-1.176.964-2.14 2.144-2.14h2.144v2.144c0 1 .784 1.784 1.784 1.784s1.784-.784 1.784-1.784V4.144h4.288v2.144c0 1 .784 1.784 1.784 1.784s1.784-.784 1.784-1.784V4.144Z" fill="#003"/></svg>