<svg width="24" height="24" fill="none" xmlns="http://www.w3.org/2000/svg"><path fill-rule="evenodd" clip-rule="evenodd" d="M15.692 4.144h1.298l-.143-.284-.037-.073A3.519 3.519 0 0 0 13.743 2H7.502a3.475 3.475 0 0 0-3.428 2.856h10.934c-.036-.388.287-.712.684-.712ZM7.502 22h6.352a3.475 3.475 0 0 0 3.427-2.857H4.07A3.488 3.488 0 0 0 7.502 22Zm7.47-7.5c0 .393.323.713.72.713v.018h1.663v2.962H4V6.053h8.301l-.36.357a.67.67 0 0 0-.217.499c0 .141.037.32.217.498l.18.178a4.51 4.51 0 0 0-.286.713h-.254c-.398 0-.72.32-.72.713v1.463c0 .393.322.713.72.713h.217c.043.086.08.178.12.273.057.14.118.29.203.44l-.18.178a.67.67 0 0 0-.217.498c0 .142.037.32.217.498l1.081 1.07a.753.753 0 0 0 1.049 0l.18-.179c.217.105.466.21.72.284v.251Zm5.81-5.644h-.613c-.074-.43-.255-.823-.504-1.216l.434-.43c.074-.073.074-.178 0-.215l-.938-.927c-.037-.037-.074-.037-.106-.037-.037 0-.074 0-.106.037l-.434.43a4.552 4.552 0 0 0-1.23-.499v-.608c0-.105-.073-.178-.18-.178h-1.334c-.107 0-.18.073-.18.178V6c-.435.073-.832.251-1.23.498l-.434-.43c-.037-.036-.073-.036-.106-.036-.037 0-.074 0-.106.037l-.9.927c-.038.037-.038.074-.038.106 0 .036 0 .073.037.105l.434.43a4.448 4.448 0 0 0-.503 1.215h-.615a.171.171 0 0 0-.18.178v1.321c0 .105.074.178.18.178h.615c.074.43.254.823.503 1.216l-.434.43c-.037.036-.037.073-.037.105 0 .036 0 .073.037.105l.938.928c.037.036.074.036.106.036.037 0 .074 0 .106-.036l.435-.43c.36.215.794.393 1.228.498v.608c0 .105.074.178.18.178h1.336c.106 0 .18-.073.18-.178v-.608c.434-.073.831-.251 1.229-.498l.434.43c.037.036.074.036.106.036.037 0 .074 0 .106-.036l.938-.928c.074-.073.074-.178 0-.215l-.434-.43c.217-.356.397-.786.503-1.215h.615c.106 0 .18-.073.18-.178V9.024c-.037-.096-.11-.17-.217-.17ZM16.45 12a2.36 2.36 0 0 0 2.166-1.426c.36-.86.18-1.86-.508-2.541-.688-.64-1.7-.855-2.564-.498a2.342 2.342 0 0 0-1.441 2.143A2.332 2.332 0 0 0 16.45 12Z" fill="#003"/></svg>