<svg width="24" height="24" fill="none" xmlns="http://www.w3.org/2000/svg"><path fill-rule="evenodd" clip-rule="evenodd" d="M17.393 13.252c-.18 0-.397 0-.573.037l-1.575-2.884c.898-.898 1.43-2.137 1.43-3.527C16.675 4.175 14.6 2 12.024 2 9.448 2 7.369 4.175 7.369 6.874c0 1.39.573 2.624 1.43 3.527l-1.61 2.888c-.145-.037-.357-.037-.538-.037C4.075 13.252 2 15.425 2 18.125 2 20.826 4.071 23 6.647 23c2.328 0 4.26-1.801 4.58-4.127h1.542C13.126 21.2 15.025 23 17.35 23 19.925 23 22 20.825 22 18.126c0-2.7-2.031-4.875-4.607-4.875Zm-5.369-9.753c1.79 0 3.221 1.499 3.221 3.375 0 .752-.252 1.465-.645 2.024a2.213 2.213 0 0 0-1.037-1.125c.284-.34.428-.79.428-1.277 0-1.125-.897-2.065-1.971-2.065s-1.971.94-1.971 2.065c0 .487.18.94.429 1.314-.501.265-.858.639-1.038 1.126a3.764 3.764 0 0 1-.645-2.066c.004-1.868 1.434-3.371 3.229-3.371Zm-.004 8.254c-.713 0-1.43-.19-2.04-.487l-1.325 2.477c1.358.676 2.36 2.027 2.612 3.64h1.538c.249-1.617 1.254-2.964 2.613-3.64l-1.359-2.477a4.723 4.723 0 0 1-2.039.487Zm-2.792 8.4a2.212 2.212 0 0 0-1.038-1.125c.284-.34.429-.789.429-1.276 0-1.125-.898-2.065-1.972-2.065-1.073 0-1.967.94-1.967 2.065 0 .487.18.94.429 1.314-.5.265-.857.638-1.038 1.125-.396-.6-.645-1.314-.645-2.061 0-1.877 1.43-3.375 3.221-3.375 1.791 0 3.222 1.498 3.222 3.375a3.512 3.512 0 0 1-.641 2.024Zm9.703-1.125c.5.26.857.676 1.038 1.126a3.542 3.542 0 0 0 .637-2.028c0-1.877-1.43-3.376-3.221-3.376-1.791 0-3.222 1.5-3.222 3.376 0 .751.249 1.465.646 2.065.18-.487.536-.86 1.037-1.125-.248-.373-.428-.827-.428-1.314 0-1.125.897-2.065 1.97-2.065 1.074 0 1.972.94 1.972 2.065 0 .487-.145.936-.429 1.276Z" fill="#003"/></svg>