<svg width="24" height="24" fill="none" xmlns="http://www.w3.org/2000/svg"><path fill-rule="evenodd" clip-rule="evenodd" d="M18 5.214v.179H5v-.179C5 3.44 6.456 2 8.25 2h6.5C16.544 2 18 3.44 18 5.214ZM5 6.463h13v11.074H5V6.463Zm13 12.144v.179C18 20.56 16.544 22 14.75 22h-6.5C6.456 22 5 20.56 5 18.786v-.179h13ZM6.9 11.314a.537.537 0 0 1-.157-.567.555.555 0 0 1 .467-.375l2.723-.283 1.077-2.442a.543.543 0 0 1 .99 0l1.076 2.442 2.723.283a.534.534 0 0 1 .3.937l-1.992 1.733.546 2.69a.538.538 0 0 1-.795.572l-2.353-1.318-2.358 1.317a.557.557 0 0 1-.587-.032.535.535 0 0 1-.213-.54l.546-2.684L6.9 11.314Zm3.116 1.642-.374 1.842 1.59-.891a.557.557 0 0 1 .536 0l1.59.891-.374-1.842a.531.531 0 0 1 .176-.508l1.299-1.13-1.808-.187a.536.536 0 0 1-.44-.32L11.5 9.206l-.707 1.605a.544.544 0 0 1-.44.32l-1.807.188 1.299 1.13a.54.54 0 0 1 .171.507Z" fill="#003"/></svg>