<svg width="24" height="24" fill="none" xmlns="http://www.w3.org/2000/svg"><path fill-rule="evenodd" clip-rule="evenodd" d="M12 2C6.465 2 2 6.465 2 12s4.465 10 10 10 10-4.465 10-10S17.535 2 12 2Zm-1.07 13.748a.55.55 0 0 1-.534.534.55.55 0 0 1-.535-.534v-.86L7.22 17.53a.544.544 0 0 1-.393.142.55.55 0 0 1-.393-.142.517.517 0 0 1 0-.75l2.642-2.641h-.86a.55.55 0 0 1-.534-.535.55.55 0 0 1 .535-.534h2.715v2.678Zm-.539-4.822a.544.544 0 0 0 .393-.142.6.6 0 0 0-.036-.786L8.106 7.356h.86a.55.55 0 0 0 .534-.534.55.55 0 0 0-.535-.535H6.287v2.678a.55.55 0 0 0 .535.535.55.55 0 0 0 .534-.535v-.859l2.642 2.678a.55.55 0 0 0 .393.142Zm7.322 6.787h-2.678a.55.55 0 0 1-.535-.535.55.55 0 0 1 .535-.535h.859l-2.642-2.641a.516.516 0 0 1 0-.75.516.516 0 0 1 .75 0l2.641 2.642v-.86a.55.55 0 0 1 .535-.534.55.55 0 0 1 .535.535v2.678Zm-2.82-7.857 2.678-2.641c.178-.215.178-.571-.04-.745a.517.517 0 0 0-.75 0l-2.642 2.642v-.86a.55.55 0 0 0-.535-.534.55.55 0 0 0-.534.534v2.674h2.678a.55.55 0 0 0 .534-.535.55.55 0 0 0-.534-.535h-.855Z" fill="#003"/></svg>