<svg width="24" height="24" fill="none" xmlns="http://www.w3.org/2000/svg"><path fill-rule="evenodd" clip-rule="evenodd" d="M21.709 7.734s.288-3.6-3.639-3.6c0 0-1.14 0-1.146.003V2.611A.613.613 0 0 0 16.308 2a.613.613 0 0 0-.616.61v1.527l-7.63.003V2.61A.613.613 0 0 0 7.446 2a.613.613 0 0 0-.617.61v1.53H5.64s-.073-.006-.2-.006c-.753 0-3.408.239-3.408 3.58v10.373s-.247 3.585 3.619 3.585h12.423s.118.014.314.014c.882 0 3.325-.3 3.325-3.619l-.003-10.333Zm-3.322 12.734c2.095 0 2.095-1.807 2.095-2.4l-.003-7.508H3.261v7.527c0 .028 0 .056-.003.084 0 0-.045 1.036.577 1.683.38.398.994.6 1.812.6h12.42c.05 0 .101.002.152.01l.054.001c.029.001.067.003.114.003Zm-3.622-6.583c.476 0 .896.381.896.815v1.406c0 .443-.409.816-.896.816H13.4l.002 1.35c0 .479-.378.882-.823.882h-1.42c-.448 0-.824-.403-.824-.882v-1.353H8.972c-.482 0-.89-.373-.89-.815v-1.401c0-.443.408-.815.89-.815h1.364v-1.35c0-.482.378-.888.824-.888h1.414c.449 0 .824.406.824.888v1.347h1.367Z" fill="#313235"/></svg>