<svg width="24" height="24" fill="none" xmlns="http://www.w3.org/2000/svg"><path fill-rule="evenodd" clip-rule="evenodd" d="M21.067 6.431c.58.583.925 1.418.922 2.233-.003.818-.325 1.569-.936 2.168-.126.126-.733.675-1.61 1.457v5.271c0 1.23-.345 2.224-1.028 2.953-.728.778-1.762 1.173-3.064 1.173H6.392c-1.305 0-2.333-.395-3.061-1.173-.686-.729-1.03-1.723-1.03-2.953V6.176C2.3 3.6 3.868 2 6.391 2h8.959c2.302 0 3.809 1.361 4.044 3.569a3.2 3.2 0 0 1 1.672.862ZM12.83 16.555c4.44-3.933 7.132-6.334 7.381-6.58.376-.37.575-.824.575-1.317a1.973 1.973 0 0 0-.569-1.375 1.954 1.954 0 0 0-1.367-.569c-.46 0-.93.171-1.328.569-.325.325-4.916 4.392-7.397 6.585a.635.635 0 0 0-.168.25l-1.244 3.347a.78.78 0 0 1-.005.012c-.025.071-.106.3.036.445.14.14.38.07.461.047.007-.003.013-.004.018-.005l3.417-1.255.19-.154Z" fill="#313235"/></svg>