<svg width="24" height="24" fill="none" xmlns="http://www.w3.org/2000/svg"><path fill-rule="evenodd" clip-rule="evenodd" d="M11.75 6.56c-5.75 0-8.548 2.855-8.548 8.731a.607.607 0 0 1-.6.614A.607.607 0 0 1 2 15.29c0-6.515 3.373-9.958 9.75-9.958a.607.607 0 0 1 .603.614.607.607 0 0 1-.602.613Zm.583 2.703a.607.607 0 0 1-.6.614c-3.59 0-5.335 1.784-5.335 5.45a.605.605 0 0 1-.6.614h-.002a.607.607 0 0 1-.603-.613v-.003c0-4.37 2.26-6.678 6.54-6.678a.615.615 0 0 1 .6.616Zm8.152 4.603v2.94c0 .085-.062.152-.138.152h-.736v-3.241h.747c.07.014.124.076.127.149Zm-.149-1.376c.728 0 1.333.61 1.35 1.364v2.953c0 .759-.602 1.378-1.339 1.378h-.804a1.542 1.542 0 0 1-1.462 1.092H12.23c-2.3-.084-3.62-1.518-3.62-3.93 0-2.417 1.32-3.846 3.623-3.921h5.84c.672 0 1.244.445 1.454 1.064h.81Zm-9.414 2.89c0-.512.29-.75.74-.75.447 0 .739.238.739.75 0 .247-.068.43-.188.553-.129.134-.32.199-.552.199-.232 0-.423-.065-.552-.2-.12-.123-.187-.305-.187-.551Z" fill="#313235"/></svg>