<svg width="24" height="24" fill="none" xmlns="http://www.w3.org/2000/svg"><path fill-rule="evenodd" clip-rule="evenodd" d="M21.677 13.926c.005.018.01.034.01.052 0 .918-.256 1.641-.757 2.15-.429.432-1.006.676-1.717.726a65.006 65.006 0 0 1-2.011.006c-.751-.037-1.356-.28-1.804-.728-.493-.496-.745-1.2-.76-2.082-.002-.005-.002-.01-.002-.016l-.002-.03-.001-.024c0-.023.006-.043.011-.064l.008-.037a.26.26 0 0 0 .004-.04c0-.018 0-.036.005-.055l2.224-7.367c-.916-.002-2.185-.002-3.258-.002V18.35h1.446c.792 0 1.425.235 1.882.698.476.479.717 1.157.717 2.02a.632.632 0 0 1-.619.643.113.113 0 0 1-.034-.006.153.153 0 0 0-.022-.005.224.224 0 0 0-.02.005c-.012.003-.023.007-.033.007H6.754c-.012 0-.021-.003-.031-.006A.157.157 0 0 0 6.7 21.7l-.02.005c-.011.003-.023.007-.033.007a.632.632 0 0 1-.62-.645c0-.86.242-1.54.715-2.02.457-.462 1.087-.697 1.88-.697h1.445V6.415c-1.073.002-2.342.002-3.255.002l2.221 7.367c.007.02.008.04.009.058 0 .013 0 .025.003.037l.008.037c.006.02.011.041.011.064l-.001.025a.35.35 0 0 0-.001.029c-.003.005-.003.01-.003.016-.014.883-.266 1.586-.76 2.082-.448.448-1.055.691-1.806.728a64.991 64.991 0 0 1-2.011-.006c-.712-.05-1.289-.294-1.717-.725-.505-.507-.762-1.23-.762-2.149v-.002c0-.016.004-.031.008-.047a.224.224 0 0 0 .008-.037v-.003c.006-.055.012-.113.034-.165l2.952-7.169a1.108 1.108 0 0 0-.35.219.603.603 0 0 1-.874-.02.667.667 0 0 1 .02-.913c.437-.437 1.034-.678 1.768-.714.058-.006 3.333-.006 5.235-.006a1.342 1.342 0 0 1-.207-.165c-.286-.286-.429-.709-.429-1.255 0-.552.146-.975.429-1.26.271-.278.663-.418 1.17-.418h.146v.003c.003-.003.008-.003.014-.003.504 0 .9.14 1.17.418.284.285.427.708.427 1.26 0 .546-.143.97-.426 1.255a1.444 1.444 0 0 1-.207.165c1.899 0 5.173.003 5.232.006.737.036 1.33.277 1.768.714a.67.67 0 0 1 .016.913.596.596 0 0 1-.871.02 1.122 1.122 0 0 0-.353-.219l2.953 7.168c.018.043.023.087.029.132l.004.037.008.032ZM7.6 13.333H3.557l2.334-5.666 1.708 5.666Zm10.196-5.666 2.334 5.666h-4.042l1.708-5.666Z" fill="#313235"/></svg>