<svg width="24" height="24" fill="none" xmlns="http://www.w3.org/2000/svg"><path fill-rule="evenodd" clip-rule="evenodd" d="M19.29 4.737c0-.695-.748-1.306-1.602-1.306h-2.953C14.374 2.71 13.592 2 11.906 2c-1.384 0-2.356.515-2.826 1.429H6.125c-.852 0-1.6.61-1.6 1.305V20.38c0 .706.734 1.305 1.602 1.305h11.56c.869 0 1.603-.596 1.603-1.305V4.737Zm-7.384-1.56c1.55 0 1.787.753 1.866 1.002.058.205.092.418.095.63v.362c-.006.227-.02.613-1.96.613-1.937 0-1.953-.384-1.964-.65v-.002l.005-.387c.034-.731.286-1.569 1.958-1.569Zm5.05 10.366h-1.563l-.756-2.14a.555.555 0 0 0-1.053.028l-.625 2.115h-.53a.55.55 0 0 0-.503.325l-.35.776-.958-4.773a.552.552 0 0 0-.516-.44.537.537 0 0 0-.557.387l-1.143 3.672h-1.55a.553.553 0 0 0-.554.549c0 .303.247.549.555.549h1.955c.24 0 .457-.157.53-.386l.619-1.99.873 4.337a.555.555 0 0 0 1.048.117l.91-2.022h.586c.244 0 .46-.16.53-.395l.257-.868.316.896a.554.554 0 0 0 .521.367h1.956a.55.55 0 0 0 .552-.549.555.555 0 0 0-.55-.555Zm-6.3-8.958c.004.306.25.55.555.55h1.393a.55.55 0 0 0 .551-.55.55.55 0 0 0-.551-.549H11.21a.551.551 0 0 0-.554.55Z" fill="#313235"/></svg>