<svg width="24" height="24" fill="none" xmlns="http://www.w3.org/2000/svg"><path fill-rule="evenodd" clip-rule="evenodd" d="M12.406 2.17c1.575.036 9.44.688 9.44 9.86 0 9.176-7.835 9.783-9.403 9.811-.171.003-.364.006-.563.006-.104 0-.213 0-.314-.003-8.952-.129-9.406-8.246-9.406-9.871s.45-9.737 9.339-9.812c.3-.003.63.003.907.008Zm-1.053 10.145c0 3.224-1.532 3.899-2.818 3.899-1.291 0-2.829-.678-2.829-3.9 0-3.232 1.538-3.91 2.83-3.91 1.285 0 2.817.678 2.817 3.91Zm6.11-3.373v6.723a.413.413 0 0 1-.415.412h-.227a.41.41 0 0 1-.342-.185l-3.3-4.995v4.765a.41.41 0 0 1-.408.41h-.275a.41.41 0 0 1-.409-.41V8.94c0-.224.185-.409.409-.409h.218a.41.41 0 0 1 .342.185l3.314 5V8.942a.41.41 0 0 1 .409-.409h.274a.41.41 0 0 1 .41.41Zm-7.244 3.373c0-2.476-.9-2.796-1.684-2.796-.837 0-1.694.33-1.694 2.796 0 2.445.857 2.776 1.694 2.776.832 0 1.684-.33 1.684-2.776Z" fill="#313235"/></svg>