<svg width="24" height="24" fill="none" xmlns="http://www.w3.org/2000/svg"><path fill-rule="evenodd" clip-rule="evenodd" d="M11 20.843c-2.802 0-4.98-.733-6.474-2.179-1.549-1.498-2.336-3.74-2.336-6.66 0-2.922.787-5.166 2.336-6.665C6.02 3.894 8.198 3.16 11 3.16c2.802 0 4.98.734 6.474 2.18 1.549 1.498 2.336 3.74 2.336 6.662v.001m-8.81 8.84c1.902 0 3.527-.338 4.835-1.008L11 20.843Zm4.835-1.008a.56.56 0 0 0 .241-.754l-.24.754Zm.241-.754a.559.559 0 0 0-.753-.243l.753.243Zm-.753-.243c-1.146.588-2.6.888-4.322.888l4.322-.888ZM11 19.726c-2.502 0-4.418-.628-5.695-1.863l5.694 1.863Zm-5.695-1.863c-1.322-1.283-1.995-3.252-1.995-5.86l1.995 5.86Zm-1.995-5.86c0-2.608.673-4.58 1.995-5.86l-1.995 5.86Zm1.995-5.86C6.582 4.908 8.498 4.28 10.999 4.28L5.305 6.143Zm5.694-1.863c2.502 0 4.418.628 5.695 1.863L11 4.28Zm5.695 1.863c1.322 1.283 1.995 3.252 1.995 5.86l-1.995-5.86Zm1.995 5.86c0 .308.252.56.56.56l-.56-.56Zm.56.56c.308 0 .56-.251.56-.56l-.56.56Zm-.171 2.378c-.345 0-.686-.16-1.003-.476-.216-.216-.605-.668-1.244-1.409l-.075-.086-.345-.401a.56.56 0 1 1 .849-.731l.345.4c.441.513.78.906 1.012 1.165.047-.446.072-.915.072-1.403 0-.308.252-.56.56-.56.308 0 .56.252.56.56v.002m-.044 1.163c.103-.119.21-.243.314-.366l.03-.034.026-.03c.285-.335.578-.678.825-.925a.561.561 0 0 1 .793.792c-.224.225-.513.564-.79.891l-.068.08c-.275.322-.554.648-.792.884-.328.322-.678.484-1.025.484m.731-2.937c0 .399-.015.786-.044 1.16l.044-1.16Zm-6.773-6.586c.79 0 1.266.333 1.53.61.243.26.534.723.537 1.457v8.498c0 .734-.291 1.197-.535 1.457-.263.28-.742.61-1.53.61H8.348c-.79 0-1.266-.333-1.53-.61-.243-.26-.535-.723-.535-1.457V8.745c0-.294.115-.577.322-.787l2.174-2.207c.21-.213.499-.333.798-.333h3.46Zm-4.269 8.227V12.56h3.81v1.085h-3.81ZM11.677 12h.9v-1.103h-.9V12Zm-.563 0h-.896v-1.103h.896V12Zm-2.35 0h.894v-1.103h-.894V12Zm.003 2.205h.894v1.075h-.894v-1.075Zm2.347 0h-.896v1.075h.896v-1.075Zm.56 0h.9v1.075h-.9v-1.075Z" fill="#313235"/></svg>