<svg width="24" height="24" fill="none" xmlns="http://www.w3.org/2000/svg"><path fill-rule="evenodd" clip-rule="evenodd" d="M21.846 12.006c0-6.443-3.406-9.846-9.845-9.846-6.437 0-9.84 3.403-9.84 9.846 0 6.437 3.4 9.84 9.84 9.84 6.442 0 9.845-3.403 9.845-9.84Zm-11.714 4.54h4.712c.22 0 .403.18.406.407v.431a.404.404 0 0 1-.404.403H8.678a.4.4 0 0 1-.358-.218.922.922 0 0 1-.093-.423c0-.445.233-.672.698-1.118.868-.84 1.04-1.437 1.04-2.182 0-.482-.077-.963-.245-1.526h-.997a.402.402 0 0 1-.403-.404v-.271c0-.213.165-.39.375-.404l.661-.045c-.16-.543-.302-1.22-.302-1.93 0-2.162 1.288-3.4 3.54-3.4.572 0 1.496.081 2.224.305.168.053.283.21.283.387v.364a.402.402 0 0 1-.476.398c-.683-.13-1.347-.202-1.871-.202-1.639 0-2.403.678-2.403 2.134 0 .642.154 1.289.324 1.86h2.482c.224 0 .404.182.404.404v.398c0 .223-.18.403-.404.403h-2.109a6.34 6.34 0 0 1 .199 1.54c0 1.062-.297 1.818-1.115 2.69Z" fill="#313235"/></svg>