<svg width="24" height="24" fill="none" xmlns="http://www.w3.org/2000/svg"><path fill-rule="evenodd" clip-rule="evenodd" d="M17.463 2.16c1.11 0 1.919.269 2.473.826.552.555.818 1.362.818 2.462v13.11c0 1.115-.269 1.927-.826 2.479-.552.546-1.359.812-2.465.812h-6.555c-1.106 0-1.913-.266-2.465-.812-.554-.552-.826-1.364-.826-2.48v-3.562c-1.289-.09-2.314-.493-3.05-1.202-.874-.843-1.317-2.09-1.317-3.709 0-1.619.443-2.865 1.317-3.708.736-.712 1.764-1.112 3.056-1.202.042-.947.31-1.658.817-2.17.563-.567 1.37-.844 2.468-.844h6.555ZM8.18 13.897c1.255 0 2.21-.306 2.835-.908.647-.622.974-1.6.974-2.902s-.327-2.28-.974-2.902c-.625-.602-1.58-.907-2.835-.907s-2.21.305-2.835.907c-.647.622-.975 1.6-.975 2.902 0 1.303.328 2.28.975 2.902.625.602 1.58.908 2.835.908Zm6.83 5.316c-.197.2-.48.305-.822.305-.341 0-.624-.106-.82-.305-.196-.199-.289-.47-.289-.81 0-.697.415-1.114 1.112-1.114.698 0 1.112.417 1.112 1.115-.005.339-.103.61-.294.81ZM8.53 8.224v1.454c1.25.188 1.518.916 1.516 1.502 0 .479-.177.885-.507 1.17-.255.222-.6.365-1.009.42v.328a.35.35 0 0 1-.7 0v-.319a2.88 2.88 0 0 1-1.32-.493.426.426 0 0 1-.196-.364.415.415 0 0 1 .418-.41c.095.004.187.032.266.085.274.185.555.303.832.359v-1.538c-1.146-.21-1.395-.905-1.395-1.465 0-.852.538-1.434 1.395-1.552V7.09a.35.35 0 0 1 .7 0v.31c.373.046.717.16.995.331.204.126.235.292.235.379a.403.403 0 0 1-.404.403.538.538 0 0 1-.235-.065l-.005-.002c-.185-.101-.381-.177-.586-.222Zm-1.269.692c0 .163 0 .474.569.642v-1.34c-.362.09-.569.337-.569.698Zm1.27 3.04v-1.43c.599.138.688.407.688.684 0 .384-.255.653-.689.745Z" fill="#313235"/></svg>