<svg width="24" height="24" fill="none" xmlns="http://www.w3.org/2000/svg"><path fill-rule="evenodd" clip-rule="evenodd" d="m12.299 2.158.095.002c1.577.037 9.442.69 9.44 9.86 0 9.177-7.838 9.785-9.41 9.813-.173.002-.375.005-.58.005-.092 0-.19 0-.282-.003-1.572-.022-9.412-.605-9.412-9.87 0-9.264 7.787-9.8 9.35-9.813.259-.005.546.001.799.006Zm1.243 9.904c-1.339 1.55-1.39 1.61-1.39 3.056a.4.4 0 0 1-.4.4h-.442a.395.395 0 0 1-.393-.324 3.132 3.132 0 0 1-.056-.633c0-1.084.381-1.726 1.236-2.754l.162-.196c1.406-1.664 1.672-2.126 1.672-2.913 0-.557-.16-.921-.535-1.221-.215-.171-.594-.37-1.627-.37-.56 0-1.059.064-1.667.219a.4.4 0 0 1-.49-.317l-.064-.345a.4.4 0 0 1 .22-.436c.38-.18 1.303-.365 2.197-.365.941 0 1.692.21 2.235.62.698.512 1.026 1.223 1.026 2.232-.003 1.232-.516 1.966-1.684 3.347Zm-1.955 6.216c-.535 0-.874-.333-.874-.826v-.065c0-.496.347-.843.843-.843.53 0 .874.347.874.843 0 .56-.339.89-.843.89Z" fill="#313235"/></svg>