<svg width="24" height="24" fill="none" xmlns="http://www.w3.org/2000/svg"><path fill-rule="evenodd" clip-rule="evenodd" d="M11.999 2.15c3.131 0 5.565.818 7.238 2.429 1.736 1.675 2.616 4.173 2.616 7.425s-.88 5.751-2.616 7.423c-1.673 1.611-4.11 2.429-7.238 2.429-3.13 0-5.563-.818-7.236-2.429C3.03 17.755 2.15 15.26 2.15 12.004s.88-5.75 2.616-7.425C6.436 2.968 8.867 2.15 12 2.15Zm5.042 13.092a.56.56 0 0 0 .56-.56V8.716a.56.56 0 0 0-.849-.479l-4.989 2.997a.57.57 0 0 0-.213.232V8.71a.56.56 0 0 0-.849-.479l-4.988 2.997a.56.56 0 0 0 .003.96l4.989 2.97a.56.56 0 0 0 .846-.482V11.96c.047.098.123.179.215.235l4.989 2.969a.57.57 0 0 0 .286.078Z" fill="#313235"/></svg>