<svg width="24" height="24" fill="none" xmlns="http://www.w3.org/2000/svg"><path fill-rule="evenodd" clip-rule="evenodd" d="M13.256 6.905c-.025-2.33-1.518-3.683-1.535-3.694a.603.603 0 0 1-.044-.86.62.62 0 0 1 .868-.045c.078.07 1.907 1.731 1.938 4.569.006.098.104 2.89-1.913 4.672a.616.616 0 0 1-.868-.05.604.604 0 0 1 .044-.855l.006-.005c1.55-1.368 1.506-3.635 1.504-3.729v-.003Zm-2.59.026c-.017-1.34-.859-2.149-.893-2.181l-.001-.001a.606.606 0 0 1-.05-.855l.005-.005a.62.62 0 0 1 .868-.045c.053.047 1.283 1.162 1.303 3.053.003.059.07 1.927-1.286 3.123a.609.609 0 0 1-.409.154.611.611 0 0 1-.46-.204.603.603 0 0 1 .043-.852c.003-.003.005-.005.008-.005.892-.79.872-2.128.871-2.18V6.93ZM8.017 18.045c0 .216-.061.376-.17.485-.118.115-.292.174-.5.174-.21 0-.383-.056-.5-.174-.107-.11-.169-.269-.169-.485 0-.45.264-.658.67-.658s.67.21.67.658Zm-2.608.485c.107-.11.168-.269.168-.485 0-.448-.263-.658-.669-.658s-.67.207-.67.658c0 .216.062.376.169.485.117.118.29.174.501.174.21 0 .384-.06.501-.174Zm16.426-1.294c0-.944-.252-1.675-.745-2.185-.513-.53-1.277-.796-2.263-.798H8.083v-7.33a.613.613 0 0 0-.617-.609.61.61 0 0 0-.616.608v7.33H5.164c-.992 0-1.754.27-2.269.796-.496.51-.745 1.244-.745 2.185v1.622c0 .941.25 1.678.745 2.188.515.526 1.277.795 2.269.795h13.658c.992 0 1.754-.269 2.27-.795.492-.507.744-1.244.744-2.185v-1.622Z" fill="#313235"/></svg>