<svg width="24" height="24" fill="none" xmlns="http://www.w3.org/2000/svg"><path fill-rule="evenodd" clip-rule="evenodd" d="M21.845 17.35c0-.286-.098-.558-.266-.782l.028-.025L7.81 2.742l-.01.008-.22-.218c-.492-.496-1.358-.496-1.85 0L2.542 5.72a1.315 1.315 0 0 0 0 1.854l13.882 13.89c.246.25.574.384.924.384.35 0 .68-.134.927-.383l3.185-3.188c.247-.247.384-.577.384-.927ZM7.568 6.277c.109 0 .215-.04.3-.123L9.25 4.792l-.605-.605-1.378 1.356a.429.429 0 0 0 .3.734Zm3.792.627L8.982 9.285a.426.426 0 0 1-.605 0 .426.426 0 0 1 0-.605l2.378-2.38.605.604Zm.49 3.538c.11 0 .216-.042.3-.123l1.322-1.3-.605-.605-1.316 1.294a.429.429 0 0 0 .3.734Zm3.735.687-2.32 2.322a.426.426 0 0 1-.605 0 .426.426 0 0 1 0-.605l2.32-2.322.604.605Zm.201 3.389a.424.424 0 0 0 .605.005l1.303-1.28-.605-.605-1.297 1.275a.429.429 0 0 0-.006.605Zm2.76 3.507a1.17 1.17 0 0 0-.427-1.597 1.174 1.174 0 0 0-1.596.429 1.171 1.171 0 0 0 1.011 1.753 1.174 1.174 0 0 0 1.011-.585Z" fill="#313235"/></svg>