<svg width="24" height="24" fill="none" xmlns="http://www.w3.org/2000/svg"><path fill-rule="evenodd" clip-rule="evenodd" d="M16.549 6.137h4.535c.333 0 .602.272.605.602a.603.603 0 0 1-.602.603H19.63v11.114c0 1.009-.305 1.813-.907 2.39-.855.818-2.02.871-2.311.871a.644.644 0 0 1-.065-.003H7.305c-1.036 0-1.854-.313-2.428-.927-.89-.95-.82-2.272-.816-2.356v-.003L4.06 7.342H2.602a.601.601 0 1 1 0-1.205h4.532V4.325c0-.784.23-1.39.681-1.798.62-.563 1.398-.507 1.485-.493l5.128-.006c.804 0 1.283.333 1.544.613.63.675.585 1.628.577 1.734v1.762Zm-8.213 0h7.011v-1.8c.009-.189-.022-.628-.257-.878-.146-.154-.362-.227-.662-.227l-5.187.003h-.003c-.066-.003-.395-.02-.625.19-.184.172-.277.477-.277.9v1.812Zm5.56 11.476a.601.601 0 0 0 .603-.602V10.85a.603.603 0 0 0-1.205 0v6.162c0 .334.272.602.602.602Zm-3.507-.602a.601.601 0 1 1-1.204 0V10.85a.601.601 0 1 1 1.204 0v6.162Z" fill="#313235"/></svg>