<svg xmlns="http://www.w3.org/2000/svg" width="24" height="24" fill="none"><path fill="#000" d="M12.654 11.321h5.254a.679.679 0 0 1 0 1.357h-5.254v5.254a.679.679 0 1 1-1.357 0v-5.254H6.044a.678.678 0 1 1 0-1.357h5.253V6.068a.679.679 0 0 1 1.357 0v5.253Z"/><path fill="#000" d="M1.976 12c0 5.327 4.673 10 10 10s10-4.673 10-10-4.673-10-10-10-10 4.673-10 10Zm1.358 0c0-4.604 4.038-8.643 8.642-8.643 4.604 0 8.642 4.039 8.642 8.643 0 4.604-4.038 8.642-8.642 8.642-4.604 0-8.642-4.038-8.642-8.642Z"/></svg>