<svg xmlns="http://www.w3.org/2000/svg" width="24" height="24" fill="none"><path fill="#000" d="M8.595 22a.716.716 0 0 0 .714-.714V12.89H4.13c-.357 0-.571-.286-.643-.537-.037-.108-.142-.465.109-.714l8.035-7.675 8.035 7.678c.251.251.18.608.108.714-.108.214-.323.537-.643.537h-5.18v8.392c0 .394.322.714.713.714a.718.718 0 0 0 .714-.714v-6.967h3.75c.858 0 1.643-.57 1.966-1.394.323-.785.18-1.68-.429-2.25L11.631 2l-9.035 8.643c-.608.609-.751 1.465-.428 2.285.357.823 1.108 1.394 1.965 1.394h3.75v6.964a.714.714 0 0 0 .712.714Z"/></svg>