<svg xmlns="http://www.w3.org/2000/svg" width="24" height="24" fill="none"><path fill="#000" d="M7.482 18.88h9.93v-8.511c0-.78-.639-1.419-1.42-1.419H8.902c-.78 0-1.419.639-1.419 1.419v8.51Zm8.51-1.419H8.902v-7.092h7.092v7.092Z"/><path fill="#000" d="M5 21.858h14.894V7.922c0-.567-.237-1.1-.61-1.49l-3.621-3.794A1.855 1.855 0 0 0 14.24 2H7.03C5.914 2 5 2.957 5 4.128v17.73Zm13.54-1.418H6.354V4.128c0-.39.305-.71.677-.71h7.21c.203 0 .372.071.508.213l3.588 3.795c.135.141.203.319.203.496V20.44Z"/></svg>