<svg width="24" height="24" fill="none" xmlns="http://www.w3.org/2000/svg"><path d="M11.68 11.676a4.04 4.04 0 0 0-3.004 1.34l1.012.904a2.682 2.682 0 0 1 1.992-.888c.76 0 1.484.324 1.992.888l1.012-.904a4.04 4.04 0 0 0-3.004-1.34Z" fill="#000"/><path d="m7.704 12.22-.988-.928A6.776 6.776 0 0 1 11.68 9.16a6.86 6.86 0 0 1 4.964 2.132l-.988.928a5.433 5.433 0 0 0-3.976-1.708c-1.52 0-2.932.608-3.976 1.708Z" fill="#000"/><path d="m5.036 9.556.996.92A7.742 7.742 0 0 1 11.68 8.02c2.136 0 4.196.896 5.648 2.456l.996-.92a9.104 9.104 0 0 0-6.644-2.888 9.11 9.11 0 0 0-6.644 2.888ZM10.48 15.824a1.2 1.2 0 0 1 2.4 0 1.2 1.2 0 0 1-2.4 0Z" fill="#000"/><path d="M14.508 2H8.852L3 4.916v9.048c0 4.384 8.076 7.784 8.42 7.928l.26.108.26-.108c.344-.144 8.42-3.544 8.42-7.928V4.916L14.508 2ZM19 13.964c0 2.78-5.056 5.576-7.32 6.564-2.264-.992-7.32-3.784-7.32-6.564V5.752l4.812-2.396h5.012L19 5.752v8.212Z" fill="#000"/></svg>