<svg width="24" height="24" fill="none" xmlns="http://www.w3.org/2000/svg"><mask id="a" style="mask-type:alpha" maskUnits="userSpaceOnUse" x="2" y="2" width="20" height="20"><path fill-rule="evenodd" clip-rule="evenodd" d="M2 2h19.976v20H2V2Z" fill="#fff"/></mask><g mask="url(#a)" fill-rule="evenodd" clip-rule="evenodd" fill="#1E6CA7"><path d="M12.4 16.008a3.983 3.983 0 0 1-3.469-2.032h4.74v-1.358H8.467a3.984 3.984 0 0 1-.049-.592c0-.202.02-.399.049-.592h5.204v-1.358H8.932a3.98 3.98 0 0 1 6.52-.607l1.04-.872a5.328 5.328 0 0 0-4.092-1.91 5.344 5.344 0 0 0-4.966 3.389h-1.39v1.358h1.051a5.517 5.517 0 0 0-.035.592c0 .2.014.397.035.592H6.044v1.358h1.39a5.344 5.344 0 0 0 4.966 3.39c1.605 0 3.11-.714 4.129-1.956l-1.049-.86a3.97 3.97 0 0 1-3.08 1.458Z"/><path d="M11.976 20.642c-4.604 0-8.642-4.038-8.642-8.642 0-4.604 4.038-8.643 8.642-8.643 4.604 0 8.642 4.039 8.642 8.643 0 4.604-4.038 8.642-8.642 8.642Zm0-18.642c-5.327 0-10 4.673-10 10s4.673 10 10 10 10-4.673 10-10-4.673-10-10-10Z"/></g></svg>