<svg xmlns="http://www.w3.org/2000/svg" width="24" height="24" fill="none"><path fill="#00001E" d="M12 2c5.52 0 10 4.48 10 9.998 0 5.52-4.48 10-10 10s-10-4.48-10-10C2 6.48 6.48 2 12 2m0 1.333c-4.784 0-8.667 3.883-8.667 8.665 0 4.784 3.883 8.667 8.667 8.667s8.667-3.883 8.667-8.667c0-4.782-3.884-8.665-8.667-8.665M7.998 8.532a1.335 1.335 0 1 1-.002 2.669 1.335 1.335 0 0 1 .002-2.67m8.004 0A1.334 1.334 0 1 1 16 11.2a1.334 1.334 0 0 1 .002-2.668m-7.006 6.33a.667.667 0 0 1-1.136-.697s1-1.762 4.149-1.75c3.106.012 4.126 1.74 4.126 1.74a.667.667 0 1 1-1.126.714s-.78-1.112-3.005-1.119c-2.242-.01-3.008 1.111-3.008 1.111"/></svg>