<svg xmlns="http://www.w3.org/2000/svg" width="24" height="24" fill="none"><path fill="#000" d="M12.001 2c5.52 0 10 4.48 10 10s-4.48 10-10 10S2 17.52 2 12 6.482 2 12.001 2m0 1.334c-4.783 0-8.666 3.882-8.666 8.666S7.218 20.666 12 20.666s8.666-3.882 8.666-8.666-3.883-8.666-8.666-8.666m4.006 5.204a1.335 1.335 0 1 1-.001 2.67 1.335 1.335 0 0 1 0-2.67m-8.011 0a1.336 1.336 0 1 1-.003 2.672 1.336 1.336 0 0 1 .003-2.672m9.565 4.572s-.14 5.399-5.6 5.428c-5.476.029-5.52-5.44-5.52-5.44a.666.666 0 0 1 .667-.673h9.787a.668.668 0 0 1 .666.685m-1.425.651H7.85c.21 1.17 1.019 3.46 4.103 3.443 3.082-.017 3.944-2.275 4.183-3.443"/></svg>