<svg width="24" height="24" fill="none" xmlns="http://www.w3.org/2000/svg"><path d="M5.358 20.642V3.358h8.68V7.66h4.302v12.982H5.358ZM15.396 4.317l1.985 1.985h-1.985V4.317ZM14.998 2H4v20h15.698V6.7l-4.7-4.7Zm-2.79 15.058a3.263 3.263 0 0 1-2.75-1.511h3.825V14.19H8.97a3.25 3.25 0 0 1-.026-.397c0-.135.01-.267.026-.397h4.314v-1.358H9.458a3.263 3.263 0 0 1 5.253-.342l1.04-.872a4.616 4.616 0 0 0-3.543-1.654 4.628 4.628 0 0 0-4.275 2.868H6.83v1.358h.775a4.64 4.64 0 0 0-.02.397c0 .134.009.265.02.397H6.83v1.357h1.103a4.628 4.628 0 0 0 4.275 2.868c1.389 0 2.692-.617 3.574-1.692l-1.05-.861a3.255 3.255 0 0 1-2.524 1.196Z" fill="#000"/></svg>