<svg xmlns="http://www.w3.org/2000/svg" width="24" height="24" fill="none"><path fill="#000" d="M17.21 16.699h1.98v1.98h-1.98v-1.98Z"/><path fill="#000" d="M19.655 8.048h.8a1.544 1.544 0 0 1 1.543 1.563v9.864a1.552 1.552 0 0 1-1.547 1.548h-4.508a1.548 1.548 0 0 1-1.544-1.544v-2.244H2.548L2 16.139l2-2.676V3h15.655v5.048Zm-1.352-3.68H5.376v8.66h9.023V9.61a1.543 1.543 0 0 1 1.56-1.563h2.344v-3.68ZM5.032 14.375l-1.116 1.492h10.483v-1.492H5.032Zm15.546 5.219a.18.18 0 0 0 .053-.127V9.61a.176.176 0 0 0-.177-.176H15.96a.18.18 0 0 0-.18.176v9.86a.18.18 0 0 0 .18.176h4.492a.18.18 0 0 0 .127-.053Z"/></svg>