<svg width="24" height="24" fill="none" xmlns="http://www.w3.org/2000/svg"><path d="M18.078 5.418h-.211V5h.21c.606 0 1.099.445 1.099 1.051v3.973h1.379c.371 0 .676.301.676.677v5.028c0 .371-.301.676-.676.676h-2.641v2.149a.939.939 0 0 1-.934.934h-1.59a.936.936 0 0 1-.934-.934V15.19c0-.516.422-.934.934-.934h1.59c.498 0 .906.394.932.883h2.854v-3.856h-4.321v2.969h-.446V10.7c0-.37.301-.675.676-.675h2.055V6.07c0-.348-.3-.653-.652-.653ZM14.92 18.597a.48.48 0 0 0 .469.422h1.59a.47.47 0 0 0 .466-.422h-2.525Zm2.528-2.993h-2.524v2.547h2.524v-2.547Zm.465.332h2.64c.142 0 .235-.117.235-.234v-.118h-2.875v.352Zm-2.993-.797h2.524a.48.48 0 0 0-.47-.422h-1.59a.466.466 0 0 0-.464.422Zm1.543-4.321h4.321l.028-.117a.235.235 0 0 0-.235-.235h-3.88a.235.235 0 0 0-.234.235v.117Z" fill="#000"/><path d="M11.744 10.56v.934h4.251v.445h-1.61v1.286h.864a.21.21 0 0 1 .21.21.21.21 0 0 1-.21.211h-3.505v1.587h1.172v.187c0 .746-.605 1.356-1.355 1.356H3.356A1.356 1.356 0 0 1 2 15.42v-.187h1.145V10.56c0-.535.441-.98.98-.98h3.318V6.097C7.443 5.492 7.935 5 8.54 5h9.327v.422H8.54c-.347 0-.652.3-.652.652V9.58h2.876c.535 0 .98.442.98.98Zm0 2.665h.47v-1.286h-.47v1.286Zm.91 0h1.31v-1.286h-1.31v1.286Zm-1.3 2.008V10.56a.58.58 0 0 0-.586-.586H4.128a.58.58 0 0 0-.586.586v4.673h7.81Zm-8.955.398c.093.446.492.77.957.77h8.177c.493 0 .887-.324.958-.77H2.399Z" fill="#000"/></svg>