<svg xmlns="http://www.w3.org/2000/svg" width="24" height="24" fill="none"><path fill="#000" d="M12 15.214a.716.716 0 0 1-.714-.714c0-1.179.464-2.286 1.285-3.143l1.036-1.036c.393-.392.322-1.285 0-1.714a1.81 1.81 0 0 0-1.428-.714H12c-.571 0-1.107.321-1.393.786-.214.357-.643.464-.964.25-.357-.215-.464-.643-.25-.965A3.014 3.014 0 0 1 12 6.464h.179c1 0 1.928.465 2.535 1.25.715.929.822 2.643-.107 3.607l-1.036 1.036c-.535.607-.857 1.357-.857 2.143a.716.716 0 0 1-.714.714ZM12 17.607a.786.786 0 1 0 0-1.571.786.786 0 0 0 0 1.571Z"/><path fill="#000" d="M2 12c0 5.5 4.5 10 10 10s10-4.5 10-10S17.5 2 12 2 2 6.5 2 12Zm1.429 0c0-4.714 3.857-8.571 8.571-8.571 4.714 0 8.571 3.857 8.571 8.571 0 4.714-3.857 8.571-8.571 8.571-4.714 0-8.571-3.857-8.571-8.571Z"/></svg>