<svg width="24" height="24" fill="none" xmlns="http://www.w3.org/2000/svg"><mask id="a" style="mask-type:alpha" maskUnits="userSpaceOnUse" x="2" y="2" width="20" height="20"><path fill-rule="evenodd" clip-rule="evenodd" d="M2 2h19.976v20H2V2Z" fill="#fff"/></mask><g mask="url(#a)"><path fill-rule="evenodd" clip-rule="evenodd" d="M10.192 17.07a6.86 6.86 0 0 1-6.853-6.854 6.86 6.86 0 0 1 6.853-6.853 6.861 6.861 0 0 1 6.854 6.853 6.862 6.862 0 0 1-6.854 6.853Zm11.784 3.966-5.518-5.518a8.174 8.174 0 0 0 1.95-5.302c0-4.53-3.685-8.216-8.216-8.216-4.53 0-8.216 3.686-8.216 8.216 0 4.53 3.686 8.216 8.216 8.216a8.17 8.17 0 0 0 5.302-1.95L21.012 22l.964-.964Z" fill="#1E6CA7"/></g><path fill-rule="evenodd" clip-rule="evenodd" d="M9.292 5.712a.68.68 0 1 0 .43 1.293 3.09 3.09 0 0 1 3.903 1.953.682.682 0 0 0 1.293-.43 4.454 4.454 0 0 0-5.626-2.816Z" fill="#1E6CA7"/></svg>