<svg xmlns="http://www.w3.org/2000/svg" width="24" height="24" fill="none"><path fill="#003" d="m12.344 10.034 6.87-4.103-6.53-3.828a.611.611 0 0 0-.68 0L5.439 5.931l6.905 4.103ZM12.854 10.931v8.138l6.633-3.897c.204-.138.34-.344.34-.586V6.724l-6.973 4.207Z"/><path fill="#003" d="M18.126 17.517c-.374 0-.68.31-.68.69 0 .38.306.69.68.69h.987c-1.599 1.069-4.048 1.724-6.77 1.724-4.693 0-8.502-2.104-8.502-4.655 0-.863.442-1.587 1.02-2.173v.793c0 .242.136.483.34.586l6.633 3.863V10.93L4.86 6.793v5.241c-1.565 1.104-2.381 2.449-2.381 3.931C2.48 19.346 6.8 22 12.344 22c3.163 0 5.986-.828 7.823-2.172v1.137c0 .38.306.69.68.69.374 0 .68-.31.68-.69v-3.448h-3.4Z"/></svg>