<svg width="24" height="24" fill="none" xmlns="http://www.w3.org/2000/svg"><path d="m12.357 9.936 7.214-4.308-6.857-4.02a.641.641 0 0 0-.714 0l-6.893 4.02 7.25 4.308ZM12.893 10.878v8.544l6.964-4.091c.214-.145.357-.362.357-.615V6.46l-7.321 4.418Z" fill="#003"/><path d="M18.429 17.793a.721.721 0 0 0-.715.724c0 .399.322.724.715.724h1.035c-1.678 1.123-4.25 1.81-7.107 1.81-4.928 0-8.928-2.208-8.928-4.887 0-.905.464-1.666 1.071-2.281v.833c0 .253.143.506.357.615l6.964 4.055v-8.508L4.5 6.533v5.503C2.857 13.195 2 14.606 2 16.164 2 19.712 6.536 22.5 12.357 22.5c3.322 0 6.286-.869 8.214-2.281v1.195c0 .398.322.724.715.724a.721.721 0 0 0 .714-.724v-3.62h-3.571Z" fill="#003"/></svg>