<svg xmlns="http://www.w3.org/2000/svg" width="24" height="24" fill="none"><path fill="#003" d="M12 2C6.5 2 2 6.5 2 12s4.5 10 10 10 10-4.5 10-10S17.5 2 12 2ZM8.068 15.392H6.64a.552.552 0 0 1-.536-.536c0-.284.252-.536.536-.536h1.428c.608 0 .928-.536.928-1.036 0-.536-.356-1.108-.928-1.108H6.104V8.604h3.392c.284 0 .536.252.536.536a.552.552 0 0 1-.536.536H7.172v1.428h.896c1.108 0 2 .964 2 2.18.004 1.216-.852 2.108-2 2.108ZM11.108 12c0-1.856 1.536-3.392 3.392-3.392.896 0 1.752.356 2.392.964a.517.517 0 0 1 0 .752.517.517 0 0 1-.752 0c-.428-.428-1-.68-1.644-.68a2.32 2.32 0 0 0-2.324 2.324 2.318 2.318 0 0 0 2.324 2.324c1.108 0 2-.752 2.252-1.784h-1.68a.552.552 0 0 1-.536-.536c0-.284.252-.536.536-.536h2.284c.284 0 .536.252.536.536.004 1.884-1.532 3.42-3.388 3.42-1.856 0-3.392-1.536-3.392-3.392Z"/></svg>