<svg width="24" height="24" fill="none" xmlns="http://www.w3.org/2000/svg"><path fill-rule="evenodd" clip-rule="evenodd" d="m17.927 16.67 3.857 4.05a.755.755 0 0 1 .004 1.053.686.686 0 0 1-.5.227.687.687 0 0 1-.5-.227L2.212 2.273a.753.753 0 0 1 0-1.05.67.67 0 0 1 1 0l4.14 4.31c1.429-.714 3.001-1.088 4.645-1.088 4.285 0 8.145 2.663 9.894 6.749a.862.862 0 0 1 0 .6c-.893 2.025-2.249 3.713-3.965 4.877Zm-5.929.374c.82 0 1.608-.109 2.393-.336l1.18 1.201a10.584 10.584 0 0 1-3.573.639c-4.248 0-8.145-2.663-9.893-6.753a.862.862 0 0 1 0-.601c.68-1.688 1.752-3.074 3.072-4.2l1 1.088c-1.072.903-2 2.066-2.644 3.414 1.572 3.373 4.857 5.548 8.465 5.548Zm3.5-2.96c.5-.752.785-1.651.785-2.588 0-2.473-1.929-4.498-4.285-4.498a4.01 4.01 0 0 0-2.464.824L8.462 6.696a8.867 8.867 0 0 1 3.572-.752c3.609 0 6.893 2.176 8.465 5.548a9.612 9.612 0 0 1-3.536 4.086l-1.464-1.495Zm-2.036 1.646c-.464.15-.928.264-1.464.264-2.356 0-4.284-2.024-4.288-4.498 0-.562.108-1.05.252-1.537l5.5 5.77Z" fill="#003"/></svg>