<svg width="24" height="24" viewBox="0 0 24 24" fill="none" xmlns="http://www.w3.org/2000/svg">
<path fill-rule="evenodd" clip-rule="evenodd" d="M7 3H17L22 12L17 21H7L2 12L7 3ZM12.7052 12.7335H15.5307C15.9241 12.7335 16.236 12.4044 16.236 12C16.236 11.5956 15.9195 11.2665 15.5307 11.2665H12.7052V8.32759C12.7052 7.9232 12.3888 7.59404 12 7.59404C11.6112 7.59404 11.2948 7.9232 11.2948 8.32759V11.2665H8.46926C8.08047 11.2665 7.76401 11.5956 7.76401 12C7.76401 12.4044 8.08047 12.7335 8.46926 12.7335H11.2948V15.6724C11.2948 16.0768 11.6112 16.406 12 16.406C12.3888 16.406 12.7052 16.0768 12.7052 15.6724V12.7335Z" fill="#313235"/>
</svg>
