<svg xmlns="http://www.w3.org/2000/svg" width="24" height="24" fill="none"><path fill="#003" d="M21.892 19.877 12.656 3.375A.804.804 0 0 0 12 3c-.256 0-.545.149-.656.374L2.108 19.877a.702.702 0 0 0 0 .75c.145.225.363.374.62.374h18.545a.702.702 0 0 0 .619-.375c.144-.22.144-.484 0-.748M11.455 9.227c0-.297.256-.561.545-.561.289 0 .545.264.545.561v5.776c0 .298-.256.562-.545.562-.289 0-.545-.264-.545-.562zm-.363 8.44c0-.522.4-.935.908-.935.507 0 .908.413.908.936 0 .523-.4.936-.908.936-.507 0-.908-.413-.908-.936"/></svg>