<svg width="24" height="24" viewBox="0 0 24 24" fill="none" xmlns="http://www.w3.org/2000/svg">
<path fill-rule="evenodd" clip-rule="evenodd" d="M3.92477 2H9.31092C10.3633 2 11.2277 2.86435 11.2317 3.92477V9.29892C11.2317 10.3593 10.3673 11.2237 9.30692 11.2237H3.92477C2.86435 11.2237 2 10.3593 2 9.30692V3.92477C2 2.86435 2.86435 2 3.92477 2ZM14.6931 2H20.0792C21.1317 2 21.996 2.86435 22 3.92477V9.30692C22 10.3673 21.1357 11.2317 20.0752 11.2317H14.6931C13.6327 11.2317 12.7683 10.3673 12.7683 9.30692V3.92477C12.7683 2.86435 13.6327 2 14.6931 2ZM9.31092 12.7683H3.92477C2.86435 12.7683 2 13.6327 2 14.6931V20.0752C2 21.1277 2.86435 21.992 3.92477 21.992H9.30692C10.3673 21.992 11.2317 21.1277 11.2317 20.0672V14.6851C11.2277 13.6327 10.3633 12.7683 9.31092 12.7683ZM14.6931 12.7683H20.0792C21.1317 12.7683 21.996 13.6327 22 14.6931V20.0752C22 21.1357 21.1357 22 20.0752 22H14.6931C13.6327 22 12.7683 21.1357 12.7683 20.0752V14.6931C12.7683 13.6327 13.6327 12.7683 14.6931 12.7683Z" fill="#000033"/>
</svg>
