<svg width="24" height="24" viewBox="0 0 24 24" fill="none" xmlns="http://www.w3.org/2000/svg">
<path fill-rule="evenodd" clip-rule="evenodd" d="M14.8723 2.04979C14.9837 1.9834 15.1229 1.9834 15.2343 2.04979C15.3457 2.11618 15.4154 2.23948 15.4154 2.37226V21.6301C15.4154 21.7629 15.3457 21.8862 15.2343 21.9526C15.1786 21.9858 15.1136 22 15.0533 22C14.993 22 14.928 21.981 14.8723 21.9478L4.9848 16.0723H2.36208C2.16247 16.0723 2 15.9063 2 15.7024V8.2952C2 8.09129 2.16247 7.92531 2.36208 7.92531H4.9848L14.8723 2.04979ZM20.1084 16.8595C19.9645 17.0113 19.7742 17.0919 19.5839 17.0919C19.4028 17.0919 19.2265 17.0255 19.0826 16.888C18.7901 16.6082 18.7808 16.1387 19.0547 15.84C21.074 13.6633 21.0322 10.3011 18.9619 8.18139C18.6787 7.89212 18.6787 7.42264 18.9619 7.13337C19.245 6.8441 19.7046 6.8441 19.9877 7.13337C22.6244 9.82691 22.6755 14.0948 20.1084 16.8595ZM18.2888 8.87374C18.0056 8.58447 17.5461 8.58447 17.2629 8.87374C16.9797 9.16301 16.9797 9.63248 17.2629 9.92175C18.3863 11.0694 18.4234 12.9093 17.3511 14.1091C17.0819 14.4126 17.1004 14.8773 17.3975 15.1571C17.5368 15.2899 17.7132 15.3515 17.8896 15.3515C18.0845 15.3515 18.2795 15.2709 18.4234 15.1097C20.0202 13.3266 19.9599 10.5857 18.2888 8.87374Z" fill="#000033"/>
</svg>
