<svg width="24" height="24" viewBox="0 0 24 24" fill="none" xmlns="http://www.w3.org/2000/svg">
<path fill-rule="evenodd" clip-rule="evenodd" d="M14.8192 3.78329H15.8742C17.0438 3.78329 17.9921 4.7429 18 5.92643V19.8569C18 21.0404 17.0517 22 15.8821 22H8.11788C6.9483 22 6 21.0404 6 19.8569V5.93043C6 4.7469 6.9483 3.78729 8.11788 3.78729H9.17287V2H14.8192V3.78329ZM11.7847 16.894L14.2147 12.6198C14.3095 12.4518 14.3095 12.2519 14.2107 12.084C14.108 11.92 13.9341 11.8161 13.7484 11.8161H11.105L13.0846 8.33347C13.2348 8.07757 13.1439 7.7497 12.891 7.60176C12.6381 7.44982 12.3141 7.54178 12.1679 7.79768L9.7379 12.084C9.64307 12.2559 9.64307 12.4558 9.7379 12.6198C9.84063 12.7877 10.0145 12.8876 10.2002 12.8876H12.8396L10.864 16.3583C10.7178 16.6142 10.8047 16.942 11.0576 17.09C11.1406 17.1379 11.2315 17.1619 11.3224 17.1619C11.5081 17.1619 11.6859 17.066 11.7847 16.894Z" fill="#000033"/>
</svg>
