<svg width="24" height="24" fill="none" xmlns="http://www.w3.org/2000/svg"><path d="M6.713 2h10.584c1.165 0 2.117.965 2.113 2.144V22H4.595V4.144C4.595 2.96 5.548 2 6.713 2Zm1.413 15.895h7.757a.533.533 0 0 0 .533-.535.53.53 0 0 0-.528-.535H8.126a.53.53 0 0 0-.528.535.53.53 0 0 0 .528.535Zm7.757-3.57a.533.533 0 0 0 .533-.535.53.53 0 0 0-.528-.535H8.126a.53.53 0 0 0-.528.535.53.53 0 0 0 .528.535h7.757Zm-2.998-3.932h2.998a.533.533 0 0 0 .529-.54.53.53 0 0 0-.529-.534H14.11a1.19 1.19 0 0 0 .013-.178v-.892h.88a.53.53 0 0 0 .53-.535.53.53 0 0 0-.53-.535h-.88v-.891c0-.293.235-.535.529-.535.144 0 .284.06.383.17a.528.528 0 0 0 .75.022.544.544 0 0 0 .022-.759 1.569 1.569 0 0 0-1.155-.507c-.876 0-1.59.722-1.59 1.609v.896a.53.53 0 0 0-.528.535.53.53 0 0 0 .528.535v.891c0 .1-.077.178-.176.178a.53.53 0 0 0-.528.535.53.53 0 0 0 .528.535Z" fill="#003"/></svg>