<svg width="24" height="24" fill="none" xmlns="http://www.w3.org/2000/svg"><path d="M12.28 7.56c0 2.556 2.057 4.632 4.578 4.632.122 0 .244-.01.366-.019V22H3.31V3.854C3.31 2.83 4.135 2 5.142 2h10.25c.674 0 1.26.38 1.579.934a.887.887 0 0 1-.056-.002l-.057-.003c-2.526 0-4.578 2.076-4.578 4.632ZM7.977 19.972h4.58a.56.56 0 0 0 .547-.564.55.55 0 0 0-.548-.555H9.533c.061-.175.094-.36.094-.554v-1.669h1.65a.55.55 0 0 0 .548-.555.55.55 0 0 0-.548-.554h-1.65v-1.48c0-.61.492-1.108 1.097-1.108.253 0 .492.085.689.246a.546.546 0 0 0 .773-.08.56.56 0 0 0-.08-.783 2.194 2.194 0 0 0-1.382-.493c-1.214 0-2.198 1-2.198 2.224v1.483h-.183a.55.55 0 0 0-.548.555.55.55 0 0 0 .548.555h.183v1.668a.543.543 0 0 1-.549.555.55.55 0 0 0-.548.554.55.55 0 0 0 .548.555Zm8.881-8.519c-2.118 0-3.843-1.744-3.843-3.887 0-2.142 1.725-3.887 3.843-3.887 2.119 0 3.843 1.745 3.843 3.887 0 2.143-1.724 3.887-3.843 3.887Zm-2.746-3.887c0 1.531 1.232 2.778 2.746 2.778s2.747-1.247 2.747-2.778c0-1.53-1.233-2.778-2.747-2.778-1.514 0-2.746 1.247-2.746 2.778Zm2.643 2.404a.55.55 0 0 1-.548-.555.55.55 0 1 1 1.096 0 .552.552 0 0 1-.548.555Zm-.553-1.934a.55.55 0 0 0 .548.554.542.542 0 0 0 .544-.554c0-.166.066-.323.183-.441l.323-.327c.427-.432.38-1.166.066-1.579a1.333 1.333 0 0 0-1.06-.53h-.06c-.45 0-.872.246-1.101.644a.56.56 0 0 0 .201.758.548.548 0 0 0 .75-.204.175.175 0 0 1 .154-.09h.061c.07 0 .146.034.188.09a.4.4 0 0 1 .028.124l-.323.327a1.735 1.735 0 0 0-.502 1.228Z" fill="#003"/></svg>