<svg width="24" height="24" viewBox="0 0 24 24" fill="none" xmlns="http://www.w3.org/2000/svg">
<path fill-rule="evenodd" clip-rule="evenodd" d="M22 10.9073V7.54029C22 6.23549 20.96 5.16529 19.692 5.16529H15.808C15.576 3.38302 13.964 2 12 2C10.036 2 8.384 3.38713 8.192 5.16529H4.308C3.04 5.16529 2 6.23549 2 7.54029V10.9032L22 10.9073ZM2 12.0927V18.625C2 19.9298 3.04 21 4.308 21H19.692C20.96 21 22 19.9298 22 18.625V12.0927H2ZM14.268 5.16941C14.04 4.25975 13.112 3.58471 12 3.58471C10.884 3.58471 9.96 4.25975 9.728 5.16941H14.268Z" fill="#000033"/>
</svg>
