<svg width="24" height="24" viewBox="0 0 24 24" fill="none" xmlns="http://www.w3.org/2000/svg">
<path fill-rule="evenodd" clip-rule="evenodd" d="M5.00876 5.3882C5.10074 3.50434 6.59434 2 8.42082 2H14.5792C16.4057 2 17.8993 3.50434 17.9912 5.3882H5.00876ZM5.00876 18.6118C5.10074 20.4957 6.59434 22 8.42082 22H14.5792C16.4057 22 17.8993 20.4957 17.9912 18.6118H5.00876ZM9.10411 15.0361C8.99461 15.0361 8.87635 14.9447 8.86759 14.9127L8.04852 11.4604H14.9515L14.1368 14.8989C14.1237 14.9447 14.0054 15.0361 13.8959 15.0361H9.10411ZM18 6.45816V17.5418H5V6.45816H18ZM14.2945 10.3905H16.2611L15.1311 15.1687C14.9865 15.7083 14.4565 16.1061 13.8959 16.1061H9.10411C8.53908 16.1061 8.01348 15.7083 7.87332 15.1824L6.73888 10.3905H8.70553L9.6779 8.52492C9.81368 8.26429 10.1247 8.16827 10.3743 8.31001C10.624 8.45176 10.716 8.77641 10.5802 9.03704L9.875 10.3859H13.125L12.4198 9.03704C12.284 8.77641 12.376 8.45176 12.6257 8.31001C12.8753 8.16827 13.1863 8.26429 13.3221 8.52492L14.2945 10.3905Z" fill="#000033"/>
</svg>
