<svg width="24" height="24" fill="none" xmlns="http://www.w3.org/2000/svg"><path fill-rule="evenodd" clip-rule="evenodd" d="M5.009 5.388C5.1 3.504 6.594 2 8.42 2h6.158c1.827 0 3.32 1.504 3.412 3.388H5.01Zm0 13.224C5.1 20.496 6.594 22 8.42 22h6.158c1.827 0 3.32-1.504 3.412-3.388H5.01Zm4.095-3.576c-.11 0-.228-.091-.236-.123l-.82-3.453h6.903l-.814 3.439c-.013.046-.132.137-.241.137H9.104ZM18 6.458v11.084H5V6.458h13Zm-3.706 3.932h1.967l-1.13 4.779c-.145.54-.675.937-1.235.937H9.104c-.565 0-1.09-.398-1.23-.924L6.738 10.39h1.967l.972-1.865a.502.502 0 0 1 .696-.215c.25.142.342.466.206.727l-.705 1.349h3.25l-.705-1.349a.547.547 0 0 1 .206-.727.502.502 0 0 1 .696.215l.973 1.865Z" fill="#003"/></svg>