<svg width="24" height="24" viewBox="0 0 24 24" fill="none" xmlns="http://www.w3.org/2000/svg">
<path fill-rule="evenodd" clip-rule="evenodd" d="M7.356 6.284C7.356 6.68 7.68 7 8.072 7C8.464 7 8.784 6.68 8.788 6.288V2.716C8.788 2.32 8.464 2 8.072 2C7.68 2 7.356 2.32 7.356 2.716V6.284ZM15.212 6.284C15.212 6.68 15.536 7 15.928 7C16.32 7 16.644 6.68 16.644 6.288V2.716C16.644 2.32 16.324 2 15.928 2C15.532 2 15.212 2.324 15.212 2.716V6.284ZM2 22H22V10.572H2V22ZM9.64 20.036C10.856 20.036 11.82 19.072 11.82 17.892C11.82 17.252 11.536 16.68 11.072 16.284C11.54 15.892 11.824 15.32 11.824 14.676C11.824 13.496 10.86 12.532 9.644 12.532H9C8.572 12.532 7.784 12.712 7.392 12.996C7.14 13.176 7.104 13.496 7.284 13.748C7.464 14 7.784 14.036 8.036 13.856C8.18 13.748 8.68 13.604 9 13.604H9.644C10.252 13.604 10.752 14.068 10.752 14.676C10.752 15.284 10.252 15.748 9.644 15.748H8.68C8.396 15.748 8.144 16 8.144 16.284C8.144 16.568 8.396 16.82 8.68 16.82H9.644C10.252 16.82 10.752 17.284 10.752 17.892C10.752 18.5 10.252 18.964 9.644 18.964H9C8.68 18.964 8.18 18.82 8.036 18.712C7.784 18.536 7.464 18.568 7.284 18.82C7.108 19.072 7.14 19.392 7.392 19.572C7.82 19.856 8.572 20.036 9 20.036H9.64ZM15.752 19.5C15.752 19.784 15.5 20.036 15.216 20.036C14.932 20.036 14.68 19.784 14.68 19.5V14L13.824 14.464C13.572 14.608 13.252 14.536 13.108 14.248C12.964 13.996 13.036 13.676 13.324 13.532L14.968 12.604C15.148 12.496 15.324 12.496 15.504 12.604C15.684 12.712 15.756 12.888 15.756 13.068C15.748 13.072 15.748 19.5 15.752 19.5ZM17.712 4.144H19.856C21.036 4.144 22 5.108 22 6.284V9.5H2V6.284C2 5.108 2.964 4.144 4.144 4.144H6.288V6.288C6.288 7.288 7.072 8.072 8.072 8.072C9.072 8.072 9.856 7.288 9.856 6.288V4.144H14.144V6.288C14.144 7.288 14.928 8.072 15.928 8.072C16.928 8.072 17.712 7.288 17.712 6.288V4.144Z" fill="#000033"/>
</svg>
