<svg width="24" height="24" fill="none" xmlns="http://www.w3.org/2000/svg"><path d="M8.787 6.283v-3.57a.714.714 0 0 0-1.426 0v3.57a.714.714 0 0 0 1.426 0Zm11.07-2.144A2.145 2.145 0 0 1 22 6.283v3.214H2V6.283C2 5.1 2.96 4.14 4.144 4.14h2.143v2.144a1.787 1.787 0 1 0 3.574 0V4.14h4.287v2.144a1.787 1.787 0 1 0 3.574 0V4.14h2.134Zm-3.213-1.426v3.57a.714.714 0 0 1-1.426 0v-3.57a.714.714 0 0 1 1.425 0ZM22 10.571V22H2V10.571h20Zm-7.77 8.394h-2.948c.06-.17.092-.348.092-.535v-1.61h1.609a.533.533 0 0 0 .534-.534.537.537 0 0 0-.534-.54h-1.61V14.32a1.07 1.07 0 0 1 1.742-.832.537.537 0 0 0 .677-.832 2.147 2.147 0 0 0-3.492 1.669v1.421h-.174a.533.533 0 0 0-.535.535c0 .297.238.535.535.535h.178v1.61a.527.527 0 0 1-.534.534.533.533 0 0 0-.535.535c0 .297.238.535.535.535h4.465a.533.533 0 0 0-.005-1.065Z" fill="#003"/></svg>