<svg width="24" height="24" viewBox="0 0 24 24" fill="none" xmlns="http://www.w3.org/2000/svg">
<path d="M20.5532 4.06305L19.1706 2.68791C18.2729 1.8059 16.8662 1.76581 16.0366 2.60372L13.9567 4.69249C13.5759 5.08137 13.3635 5.60256 13.3635 6.16385C13.3635 6.77324 13.624 7.38263 14.0769 7.82764L15.5317 9.25891C15.7681 9.49545 15.8883 9.82019 15.8964 10.2171C15.9044 11.2394 15.1509 12.6226 13.8885 13.8895C12.6221 15.1484 11.2475 15.8981 10.2256 15.8981H10.2175C9.81277 15.8981 9.49617 15.7778 9.25972 15.5332L7.82899 14.0779C7.38414 13.6249 6.783 13.3643 6.16582 13.3643H6.15781C5.59674 13.3643 5.08376 13.5768 4.70304 13.9576L2.60304 16.0424C1.76545 16.8723 1.80552 18.2755 2.69121 19.1776L4.06583 20.5687C4.98357 21.4948 6.24197 21.992 7.69674 22H7.7288C10.5221 22 13.9166 20.2199 17.0546 17.1008L17.1026 17.0527C20.2286 13.9015 22.008 10.4857 22 7.69133C21.9839 6.24403 21.487 4.98115 20.5532 4.06305Z" fill="#000033"/>
</svg>
