<svg width="24" height="24" fill="none" xmlns="http://www.w3.org/2000/svg"><path d="M16.848 5.438a3.438 3.438 0 1 0 0 6.875 3.438 3.438 0 0 0 0-6.876Zm1.471 4.465a.313.313 0 1 1-.443.444l-1.029-1.031-1.028 1.03a.312.312 0 0 1-.512-.1.312.312 0 0 1 .069-.343l1.03-1.028-1.03-1.028a.314.314 0 1 1 .443-.444l1.028 1.031 1.029-1.03a.314.314 0 1 1 .443.443l-1.03 1.028 1.03 1.028Z" fill="#003"/><path d="M12.785 8.875a4.062 4.062 0 0 1 4.063-4.063V3.25H9.175v5.469l-5.453-.006V20.75h13.125v-7.813a4.062 4.062 0 0 1-4.063-4.062Zm.938 8.281H7.16a.469.469 0 1 1 0-.937h6.563a.469.469 0 1 1 0 .937Zm0-3.125H7.16a.469.469 0 1 1 0-.937h6.563a.469.469 0 1 1 0 .937Z" fill="#003"/><path d="m8.238 3.46-4.3 4.315 4.294.006.006-4.322Z" fill="#003"/></svg>