<svg width="24" height="24" viewBox="0 0 24 24" fill="none" xmlns="http://www.w3.org/2000/svg">
<path fill-rule="evenodd" clip-rule="evenodd" d="M2 12C2 6.484 6.484 2 12 2C17.516 2 22 6.484 22 12C22 17.516 17.516 22 12 22C6.484 22 2 17.516 2 12ZM16.664 16.672C16.876 16.464 16.876 16.124 16.664 15.912L12.768 12L16.68 8.088C16.892 7.88 16.892 7.54 16.68 7.328C16.472 7.116 16.132 7.116 15.92 7.328L12.008 11.24L8.096 7.328C7.888 7.116 7.548 7.116 7.336 7.328C7.124 7.536 7.124 7.876 7.336 8.088L11.232 12L7.32 15.912C7.108 16.12 7.108 16.46 7.32 16.672C7.424 16.776 7.564 16.824 7.7 16.824C7.836 16.824 7.976 16.776 8.08 16.672L11.992 12.76L15.904 16.672C16.008 16.776 16.148 16.824 16.284 16.824C16.42 16.824 16.56 16.776 16.664 16.672Z" fill="#000033"/>
</svg>
