<svg width="24" height="24" viewBox="0 0 24 24" fill="none" xmlns="http://www.w3.org/2000/svg">
<path fill-rule="evenodd" clip-rule="evenodd" d="M12 3H18.6667C20.5064 3 22 4.512 22 6.3744V10.8768C22 12.6096 20.7008 14.064 19.0365 14.2512V16.5024C19.0365 16.6512 18.9464 16.7904 18.8089 16.848C18.7615 16.8672 18.7141 16.8768 18.6667 16.8768C18.5718 16.8768 18.477 16.8384 18.4059 16.7664L15.8881 14.2512H12C10.1603 14.2512 8.66667 12.7392 8.66667 10.8768V6.3744C8.66667 4.512 10.1603 3 12 3ZM12.3698 18.3744C14.0341 18.1872 15.3333 17.1072 15.3333 15.3744H12.0047C9.55334 15.3744 7.55714 13.3536 7.55714 10.872V7.1232H5.33333C3.4936 7.1232 2 8.6352 2 10.4976V15C2 16.7328 3.29919 18.1872 4.96349 18.3744V20.6256C4.96349 20.7744 5.05358 20.9136 5.19109 20.9712C5.2385 20.9904 5.28592 21 5.33333 21C5.42816 21 5.523 20.9616 5.59412 20.8896L8.1119 18.3744H11.6302H12.3698Z" fill="#000033"/>
</svg>
