<svg width="24" height="24" fill="none" xmlns="http://www.w3.org/2000/svg"><path d="M15.591 4.861h-.284v-.005h-6.89V2h7.174v2.861Zm1.08-1.787h1.074c1.185 0 2.154.964 2.154 2.144V22H4.11V5.218c0-1.18.97-2.144 2.155-2.144h1.074v2.857h9.333V3.074Zm-.542 14.996c.29 0 .542-.252.542-.535a.552.552 0 0 0-.538-.535H7.88a.552.552 0 0 0-.537.535c0 .283.253.535.537.535h8.249ZM7.88 15.213h8.249c.29 0 .542-.251.542-.535a.552.552 0 0 0-.538-.535H7.88a.552.552 0 0 0-.537.535c0 .284.253.535.537.535Zm8.249-2.856c.29 0 .542-.252.542-.535a.552.552 0 0 0-.538-.535H7.88a.552.552 0 0 0-.537.535c0 .283.253.535.537.535h8.249ZM7.88 9.5h8.249c.29 0 .542-.251.542-.535a.552.552 0 0 0-.538-.534H7.88a.552.552 0 0 0-.537.534c0 .284.253.535.537.535Z" fill="#003"/></svg>