<svg xmlns="http://www.w3.org/2000/svg" width="24" height="24" fill="none"><path fill="#003" d="M21.938 18.547a.989.989 0 0 1-.968.717H3.04c-.466 0-.825-.287-.968-.717-.18-.503 0-1.04.394-1.363l9-6.562V8.865c0-.287.252-.538.538-.538a1.27 1.27 0 0 0 1.255-1.255 1.27 1.27 0 0 0-1.255-1.255 1.27 1.27 0 0 0-1.255 1.255.551.551 0 0 1-.537.538.551.551 0 0 1-.538-.538c0-1.29 1.04-2.33 2.33-2.33 1.291 0 2.331 1.04 2.331 2.33 0 1.112-.753 2.008-1.793 2.259v1.255l9 6.562c.395.323.574.896.395 1.399"/></svg>