<svg width="24" height="24" fill="none" xmlns="http://www.w3.org/2000/svg"><path d="m20.688 15.068-.285-.91a1.485 1.485 0 0 0-1.184-.977l-6.906-1.753L9.134 8.24H3.25v3.75h1.875a.625.625 0 0 1 0 1.25H3.25v.625h4.063a.625.625 0 1 1 0 1.25H3.25v3.75h7.547a2.98 2.98 0 1 1 5.531 0h3.438l.862-2.753c.148-.329.17-.7.06-1.044Z" fill="#003"/><path d="M13.563 16.053a1.732 1.732 0 1 0 0 3.463 1.732 1.732 0 0 0 0-3.463Zm-.938-5.813h-.06a.625.625 0 0 1-.537-.597 2.112 2.112 0 0 0-2.25-2.028.625.625 0 0 1-.062-1.25 3.39 3.39 0 0 1 2.437.875 3.35 3.35 0 0 1 1.097 2.35.625.625 0 0 1-.16.447.625.625 0 0 1-.43.2l-.035.003Z" fill="#003"/><path d="M14.188 10.021a.625.625 0 0 1-.625-.59 3.708 3.708 0 0 0-4.029-3.69.625.625 0 0 1-.5-1.045.625.625 0 0 1 .429-.2 4.925 4.925 0 0 1 3.728 1.272 4.965 4.965 0 0 1 1.622 3.616.625.625 0 0 1-.594.625l-.031.012Z" fill="#003"/></svg>