<svg width="24" height="24" fill="none" xmlns="http://www.w3.org/2000/svg"><path d="M5.994 2c-1.882 0-3.42 1.504-3.515 3.388h13.372C15.756 3.504 14.218 2 12.337 2H5.994Zm0 20c-1.882 0-3.42-1.504-3.515-3.388h13.372C15.756 20.496 14.218 22 12.337 22H5.994Zm13.687-5.318a6.75 6.75 0 0 0-.117-9.378.699.699 0 0 0-.997 0 .722.722 0 0 0 0 1.01 5.31 5.31 0 0 1 .09 7.385.722.722 0 0 0 .027 1.01.692.692 0 0 0 .487.197.71.71 0 0 0 .51-.224Zm-1.777-7.7a4.382 4.382 0 0 1 .126 6.013.681.681 0 0 1-.519.233.688.688 0 0 1-.478-.187.726.726 0 0 1-.04-1.01 2.947 2.947 0 0 0-.086-4.038.722.722 0 0 1 0-1.01.699.699 0 0 1 .997 0Zm-2.04-2.524v11.084H2.47V6.458h13.394Zm-8.583 4.998c.252-1.317 1.396-2.314 2.768-2.314.492 0 .98.133 1.408.384.253.147.577.06.722-.196a.54.54 0 0 0-.194-.732 3.835 3.835 0 0 0-1.94-.53c-1.958 0-3.578 1.481-3.835 3.393h-.568a.53.53 0 0 0-.528.534.53.53 0 0 0 .528.535h.568c.257 1.912 1.877 3.393 3.835 3.393a3.84 3.84 0 0 0 1.94-.53.54.54 0 0 0 .194-.732.526.526 0 0 0-.722-.196 2.786 2.786 0 0 1-1.408.384c-1.376 0-2.521-1.002-2.77-2.323h2.946a.53.53 0 0 0 .528-.535.53.53 0 0 0-.528-.535H7.281Z" fill="#003"/></svg>