<svg xmlns="http://www.w3.org/2000/svg" width="24" height="24" fill="none"><path fill="#003" d="M7.994 2c-1.882 0-3.42 1.504-3.515 3.388h13.372C17.756 3.504 16.218 2 14.337 2zm0 20c-1.882 0-3.42-1.504-3.515-3.388h13.372C17.756 20.496 16.218 22 14.337 22zm13.687-5.318a6.75 6.75 0 0 0-.117-9.378.699.699 0 0 0-.997 0 .722.722 0 0 0 0 1.01 5.31 5.31 0 0 1 .09 7.385.722.722 0 0 0 .027 1.01.692.692 0 0 0 .487.197c.185 0 .37-.078.51-.224m-1.777-7.7a4.382 4.382 0 0 1 .126 6.013.681.681 0 0 1-.519.233.688.688 0 0 1-.478-.187.726.726 0 0 1-.04-1.01 2.947 2.947 0 0 0-.086-4.038.722.722 0 0 1 0-1.01.699.699 0 0 1 .997 0m-2.04-2.524v11.084H4.47V6.458zm-4.407 8.4h-2.91c.059-.17.09-.348.09-.535v-1.61h1.588a.53.53 0 0 0 .528-.535.53.53 0 0 0-.528-.535h-1.588v-1.426c0-.59.474-1.07 1.056-1.07.244 0 .474.082.663.237.226.188.56.151.745-.077a.542.542 0 0 0-.077-.755 2.11 2.11 0 0 0-1.331-.475c-1.164 0-2.116.96-2.116 2.144v1.427h-.176a.53.53 0 0 0-.528.535.53.53 0 0 0 .528.535h.176v1.61c0 .301-.23.534-.528.534a.53.53 0 0 0-.528.535.53.53 0 0 0 .528.535h4.408a.536.536 0 0 0 .528-.54.53.53 0 0 0-.528-.534"/></svg>