<svg width="24" height="24" fill="none" xmlns="http://www.w3.org/2000/svg"><path fill-rule="evenodd" clip-rule="evenodd" d="M21.992 8.97V6.938c0-1.073-.8-1.938-1.788-1.938H3.788C2.8 5 2 5.865 2 6.938V8.97h19.992ZM2 10.102v6.96C2 18.135 2.8 19 3.788 19h16.424C21.2 19 22 18.135 22 17.062v-6.96H2Zm2.5 3.406h4.993c.3 0 .537-.25.545-.569 0-.31-.236-.568-.537-.568h-5c-.293 0-.537.25-.537.568 0 .31.236.569.536.569Zm9.642 0h-2.504c-.3 0-.536-.259-.536-.569 0-.318.244-.568.536-.568h2.5c.3 0 .537.259.537.568 0 .319-.245.569-.533.569Zm2.137 0h3.212c.3 0 .533-.25.537-.569 0-.31-.236-.568-.537-.568H16.28c-.292 0-.536.25-.536.568 0 .31.236.569.536.569Z" fill="#003"/></svg>