<svg width="24" height="24" viewBox="0 0 24 24" fill="none" xmlns="http://www.w3.org/2000/svg">
<path fill-rule="evenodd" clip-rule="evenodd" d="M21.992 8.96971V6.9382C21.992 5.86519 21.1918 5 20.2036 5H3.78836C2.80016 5 2 5.86519 2 6.9382V8.96971H21.992ZM2 10.1021V17.0618C2 18.1348 2.80016 19 3.78836 19H20.2116C21.1998 19 22 18.1348 22 17.0618V10.1021H2ZM4.5005 13.5077H9.4935C9.79356 13.5077 10.0296 13.2575 10.0376 12.9394C10.0376 12.6298 9.80156 12.3711 9.5015 12.3711H4.5005C4.20844 12.3711 3.96439 12.6213 3.96439 12.9394C3.96439 13.249 4.20044 13.5077 4.5005 13.5077ZM14.1424 13.5077H11.6379C11.3379 13.5077 11.1018 13.249 11.1018 12.9394C11.1018 12.6213 11.3459 12.3711 11.6379 12.3711H14.1384C14.4385 12.3711 14.6745 12.6298 14.6745 12.9394C14.6745 13.2575 14.4305 13.5077 14.1424 13.5077ZM16.2789 13.5077H19.4915C19.7916 13.5077 20.0236 13.2575 20.0276 12.9394C20.0276 12.6298 19.7916 12.3711 19.4915 12.3711H16.2789C15.9868 12.3711 15.7427 12.6213 15.7427 12.9394C15.7427 13.249 15.9788 13.5077 16.2789 13.5077Z" fill="#000033"/>
</svg>
