<svg width="24" height="24" fill="none" xmlns="http://www.w3.org/2000/svg"><path fill-rule="evenodd" clip-rule="evenodd" d="m21.84 5.507-2.57 2.57a.55.55 0 0 1-.39.16h-2.338l-6.444 6.449a.547.547 0 0 1-.39.16.55.55 0 0 1-.39-.94l6.444-6.445v-2.34a.55.55 0 0 1 .16-.39l2.569-2.569a.541.541 0 0 1 .601-.117.547.547 0 0 1 .338.507v2.02h2.02c.22 0 .423.136.507.338a.542.542 0 0 1-.117.597Zm-4.425 8.784a7.678 7.678 0 0 0-1.32-4.307l-2.414 2.414c.273.573.433 1.217.433 1.893a4.412 4.412 0 0 1-4.406 4.407 4.412 4.412 0 0 1-4.406-4.407 4.412 4.412 0 0 1 4.406-4.406c.676 0 1.32.155 1.893.432l2.414-2.414a7.664 7.664 0 0 0-4.307-1.32C5.457 6.583 2 10.04 2 14.29 2 18.543 5.457 22 9.708 22c4.25 0 7.707-3.457 7.707-7.709ZM8.67 15.33a1.466 1.466 0 0 0 2.076.005l2.09-2.095a3.304 3.304 0 0 1-3.128 4.355 3.304 3.304 0 0 1-3.302-3.303 3.304 3.304 0 0 1 4.354-3.128l-2.09 2.09a1.469 1.469 0 0 0 0 2.076Zm10.21-9.658h1.24l-1.465 1.466h-1.79v-1.79l1.466-1.466v1.24c0 .306.245.55.55.55Z" fill="#003"/></svg>