<svg width="24" height="24" fill="none" xmlns="http://www.w3.org/2000/svg"><path d="M7.987 9.118a.778.778 0 0 0 1.074.292.808.808 0 0 0 .282-1.098 3.916 3.916 0 0 0-1.285-1.355c.592-2.254 2.61-3.855 4.918-3.855 2.284 0 4.306 1.575 4.914 3.824a.782.782 0 0 0 .963.56.804.804 0 0 0 .547-.986c-.793-2.942-3.433-5-6.424-5-2.96 0-5.56 2.017-6.389 4.877a3.634 3.634 0 0 0-.667-.067C3.757 6.31 2 8.106 2 10.319c0 2.212 1.757 4.009 3.92 4.009.431 0 .783-.36.783-.8 0-.442-.352-.802-.783-.802-1.3 0-2.354-1.078-2.354-2.407 0-1.33 1.059-2.408 2.354-2.408.858 0 1.646.462 2.067 1.207Zm7.187.036a.378.378 0 0 1 .317 0l5.867 2.628-6.028 3.085-6.028-3.085 5.872-2.628ZM8.67 19.143c0 .154.085.293.216.36l5.862 2.997v-6.596L8.67 12.798v6.345Zm7.252-3.24L22 12.799v6.345a.403.403 0 0 1-.216.36L15.922 22.5v-6.596Z" fill="#003"/></svg>