<svg width="24" height="24" fill="none" xmlns="http://www.w3.org/2000/svg"><path d="M20.52 10.877c0 .412.332.748.74.748a.742.742 0 0 0 .74-.748C22 5.7 17.85 1.5 12.74 1.5a.745.745 0 0 0-.74.749c0 .413.332.749.74.749 4.3 0 7.78 3.529 7.78 7.878Zm-3.703 0c0 .412.332.748.74.748s.74-.336.745-.744c0-3.116-2.485-5.627-5.558-5.627a.745.745 0 0 0-.74.75c0 .412.333.748.74.748 2.257 0 4.073 1.834 4.073 4.125Zm-3.594-1.878c-2.207 0-3.978-1.395-4.368-1.702-.048-.038-.075-.06-.08-.06L8.075 6.6l-.484.413-.185.187c-.004 0-.03.022-.079.06C6.937 7.573 5.17 9 2.958 9H2v7.576c0 3.49 3.186 4.989 5.595 5.776l.517.149.517-.149c2.408-.749 5.595-2.252 5.595-5.737V8.999h-1Zm-6.78 9.04-2.257-2.29a.547.547 0 0 1 0-.787.531.531 0 0 1 .777 0l1.447 1.465 4.41-4.465a.531.531 0 0 1 .777 0c.256.225.256.6.071.825L6.443 18.04Z" fill="#003"/></svg>