<svg width="24" height="24" viewBox="0 0 24 24" fill="none" xmlns="http://www.w3.org/2000/svg">
<path fill-rule="evenodd" clip-rule="evenodd" d="M7.98745 8.6177C8.20828 9.00269 8.68507 9.13102 9.06148 8.91029C9.43789 8.68956 9.56336 8.19677 9.34253 7.81178C9.02635 7.25226 8.57967 6.7954 8.05772 6.45661C8.64994 4.20313 10.6675 2.60156 12.9762 2.60156C15.2597 2.60156 17.2823 4.17746 17.8896 6.42581C18.005 6.85187 18.4366 7.1034 18.8532 6.98533C19.2698 6.86727 19.5157 6.42581 19.4003 5.99976C18.6073 3.05842 15.9674 1 12.9762 1C10.0151 1 7.41531 3.01736 6.5872 5.87656C6.36637 5.83549 6.14555 5.80983 5.9197 5.80983C3.75659 5.80983 2 7.60645 2 9.81887C2 12.0313 3.75659 13.8279 5.9197 13.8279C6.35132 13.8279 6.70263 13.4686 6.70263 13.0271C6.70263 12.5857 6.35132 12.2264 5.9197 12.2264C4.61982 12.2264 3.56587 11.1484 3.56587 9.81887C3.56587 8.48937 4.62484 7.41139 5.9197 7.41139C6.77792 7.41139 7.56587 7.87338 7.98745 8.6177ZM15.1744 8.65363C15.2748 8.60743 15.3902 8.60743 15.4906 8.65363L21.3576 11.2818L15.33 14.3669L9.30238 11.2818L15.1744 8.65363ZM8.67001 18.6429C8.67001 18.7969 8.75533 18.9355 8.88582 19.0022L14.7478 22V21.8511V15.4038L8.67001 12.2982V18.6429ZM15.9222 21.8511V15.4038L22 12.2982V18.6429C22 18.7969 21.9147 18.9355 21.7842 19.0022L15.9222 22V21.8511Z" fill="#000033"/>
</svg>
