<svg width="24" height="24" fill="none" xmlns="http://www.w3.org/2000/svg"><path fill-rule="evenodd" clip-rule="evenodd" d="M7.987 8.618a.778.778 0 0 0 1.074.292.808.808 0 0 0 .282-1.098 3.916 3.916 0 0 0-1.285-1.355c.592-2.254 2.61-3.855 4.918-3.855 2.284 0 4.306 1.575 4.914 3.824a.782.782 0 0 0 .963.56A.804.804 0 0 0 19.4 6c-.793-2.942-3.433-5-6.424-5-2.96 0-5.56 2.017-6.389 4.877a3.634 3.634 0 0 0-.667-.067C3.757 5.81 2 7.606 2 9.819c0 2.212 1.757 4.009 3.92 4.009.431 0 .783-.36.783-.8 0-.442-.352-.802-.783-.802-1.3 0-2.354-1.078-2.354-2.407 0-1.33 1.059-2.408 2.354-2.408.858 0 1.646.462 2.067 1.207Zm7.187.036a.378.378 0 0 1 .317 0l5.867 2.628-6.028 3.085-6.028-3.085 5.872-2.628ZM8.67 18.643c0 .154.085.293.216.36L14.748 22v-6.596L8.67 12.298v6.345Zm7.252 3.208v-6.447L22 12.298v6.345a.403.403 0 0 1-.216.36L15.922 22v-.149Z" fill="#003"/></svg>