<svg width="24" height="24" viewBox="0 0 24 24" fill="none" xmlns="http://www.w3.org/2000/svg">
<path fill-rule="evenodd" clip-rule="evenodd" d="M20.5205 10.3765C20.5205 10.7894 20.8524 11.1255 21.2602 11.1255C21.668 11.1255 22.0046 10.7894 21.9999 10.3765C21.9999 5.20096 17.851 1 12.7396 1C12.3319 1 12 1.33608 12 1.74897C12 2.16187 12.3319 2.49794 12.7396 2.49794C17.0402 2.49794 20.5205 6.02675 20.5205 10.3765ZM16.8174 10.3765C16.8174 10.7894 17.1493 11.1255 17.5571 11.1255C17.9648 11.1255 18.2967 10.7894 18.3015 10.3813C18.3015 7.26543 15.8169 4.75446 12.7444 4.75446C12.3366 4.75446 12.0047 5.09054 12.0047 5.50343C12.0047 5.91632 12.3366 6.2524 12.7444 6.2524C15.0014 6.2524 16.8174 8.08642 16.8174 10.3765ZM13.2233 8.49931C11.0164 8.49931 9.2451 7.10384 8.85518 6.79665L8.85518 6.79665C8.80696 6.75866 8.77987 6.73731 8.77569 6.73731L8.07394 6.09877L7.5903 6.51166L7.40538 6.6989C7.40121 6.6989 7.37421 6.72068 7.32616 6.75944C6.93727 7.07312 5.16914 8.49931 2.9578 8.49931H2V16.0754C2 19.5658 5.18633 21.0638 7.59504 21.8512L8.11187 22L8.6287 21.8512C11.0374 21.1022 14.2237 19.5995 14.2237 16.1139V8.49931H13.2233ZM6.44284 17.5398L11.668 12.2874C11.853 12.0617 11.853 11.6872 11.5969 11.4616C11.3741 11.2359 11.0422 11.2359 10.8193 11.4616L6.40965 15.9266L4.96348 14.4623C4.74062 14.2366 4.40871 14.2366 4.18586 14.4623C3.96301 14.6879 3.96301 15.024 4.18586 15.2497L6.44284 17.5398Z" fill="#000033"/>
</svg>
