<svg width="24" height="24" viewBox="0 0 24 24" fill="none" xmlns="http://www.w3.org/2000/svg">
<path fill-rule="evenodd" clip-rule="evenodd" d="M11.8679 2C13.7494 2 15.288 3.50434 15.3828 5.3882H2.00902C2.10378 3.50434 3.64239 2 5.52392 2H11.8679ZM18.6991 16.9063C18.5232 16.9063 18.3517 16.8422 18.2118 16.7096C17.9276 16.4399 17.9186 15.9872 18.1848 15.6991C20.1475 13.6004 20.1069 10.3585 18.0945 8.31459C17.8193 8.03567 17.8193 7.58299 18.0945 7.30407C18.3698 7.02515 18.8165 7.02515 19.0917 7.30407C21.6545 9.90123 21.7042 14.0165 19.209 16.6822C19.0736 16.8285 18.8886 16.9063 18.6991 16.9063ZM17.5621 14.995C19.1188 13.2711 19.0646 10.6328 17.4358 8.98217C17.1605 8.70325 16.7138 8.70325 16.4386 8.98217C16.1634 9.26109 16.1634 9.71376 16.4386 9.99268C17.5305 11.0992 17.5666 12.8733 16.5243 14.0302C16.2626 14.3228 16.2807 14.7709 16.5649 15.0407C16.7003 15.1687 16.8718 15.2282 17.0432 15.2282C17.2372 15.2282 17.4267 15.1504 17.5621 14.995ZM2 6.45816V17.5418H15.3963V6.45816H2ZM5.52392 22C3.64239 22 2.10378 20.4957 2.00902 18.6118H15.3828C15.288 20.4957 13.7494 22 11.8679 22H5.52392Z" fill="#313235"/>
</svg>
