<svg width="24" height="24" fill="none" xmlns="http://www.w3.org/2000/svg"><path d="M12 5.284C13.853 2.801 15.203 2 17.237 2 19.602 2 22.005 3.715 22 7c0 2.292-1.276 5.195-3.892 8.86l-2.654 3.436v.039a73.4 73.4 0 0 1-2.947 3.435c-.107.152-.325.23-.507.23a.702.702 0 0 1-.508-.23C8.402 19.296 2 12.077 2 7c0-3.436 2.36-5 4.581-5 2.072 0 3.566.875 5.419 3.284Zm.55 7.404h3.817c.288 0 .544-.269.544-.572 0-.303-.256-.571-.544-.571h-3.818V7.537c0-.303-.256-.572-.544-.572-.289 0-.545.27-.545.572v4.008H7.642c-.288 0-.544.268-.544.571 0 .303.256.572.544.572h3.818v4.008c0 .303.256.571.545.571.288 0 .544-.268.544-.571v-4.008Z" fill="#003"/></svg>