<svg width="24" height="24" viewBox="0 0 24 24" fill="none" xmlns="http://www.w3.org/2000/svg">
<path fill-rule="evenodd" clip-rule="evenodd" d="M12 5.28415C13.8529 2.80149 15.203 2 17.2374 2C19.6024 2 22.0046 3.71538 22 6.99953C22 9.2916 20.7244 12.1946 18.108 15.8599L15.4544 19.2956V19.3347C14.4348 20.5955 13.4525 21.7391 12.5074 22.7703C12.4004 22.9218 12.1816 23 12 23C11.8184 23 11.6369 22.9218 11.4925 22.7703C8.4013 19.2956 2 12.0773 2 6.99953C2 3.56388 4.36033 2 6.581 2C8.6527 2 10.1471 2.8748 12 5.28415ZM12.5493 12.6882H16.3668C16.6555 12.6882 16.9115 12.4194 16.9115 12.1164C16.9115 11.8134 16.6555 11.5446 16.3668 11.5446H12.5493V7.53712C12.5493 7.23412 12.2933 6.96532 12.0046 6.96532C11.716 6.96532 11.46 7.23412 11.46 7.53712V11.5446H7.64245C7.35381 11.5446 7.09776 11.8134 7.09776 12.1164C7.09776 12.4194 7.35381 12.6882 7.64245 12.6882H11.46V16.6956C11.46 16.9986 11.716 17.2674 12.0046 17.2674C12.2933 17.2674 12.5493 16.9986 12.5493 16.6956V12.6882Z" fill="#000033"/>
</svg>
