<svg width="24" height="24" viewBox="0 0 24 24" fill="none" xmlns="http://www.w3.org/2000/svg">
<path fill-rule="evenodd" clip-rule="evenodd" d="M18.7908 5.51825C18.7908 6.78426 18.1371 7.89379 17.1634 8.51494C19.4217 9.04125 20.9303 10.5775 20.9348 12.5453V12.5595C20.3771 11.872 19.5451 11.4358 18.6126 11.4358C16.9394 11.4358 15.5771 12.8487 15.5771 14.5842C15.5771 15.1769 15.7326 15.7221 16.0068 16.1963C15.3166 16.6278 14.832 17.2489 14.6217 17.9934C14.6044 17.9809 14.587 17.9681 14.5695 17.9551L14.5695 17.955C14.5268 17.9234 14.4828 17.8908 14.4343 17.8606C14.704 17.3912 14.864 16.8459 14.864 16.2579C14.864 15.1816 14.3428 14.2333 13.5474 13.6643C13.1086 12.403 12.1074 11.3931 10.7314 10.7814C11.0194 10.4116 11.2526 9.98957 11.408 9.52963C12.0114 9.06496 12.7657 8.71408 13.6297 8.51494C12.656 7.89853 12.0023 6.789 12.0023 5.51825C12.0023 3.57895 13.5291 2 15.3988 2C17.2686 2 18.7908 3.57895 18.7908 5.51825ZM7.71428 20.5206V21.6302V21.981H2V15.1294C2 13.1617 3.49943 11.6254 5.744 11.0944C4.784 10.4732 4.144 9.36842 4.144 8.1119C4.144 6.17259 5.66628 4.59365 7.53599 4.59365C9.40571 4.59365 10.928 6.17259 10.928 8.1119C10.928 9.36842 10.288 10.4732 9.32799 11.0944C10.768 11.4358 11.8971 12.1849 12.5234 13.1996C12.2994 13.1427 12.0663 13.1095 11.824 13.1095C10.1508 13.1095 8.78856 14.5225 8.78856 16.2579C8.78856 16.8506 8.94399 17.3959 9.21828 17.8701C8.27656 18.458 7.71428 19.3921 7.71428 20.5206ZM20.0617 16.4666C20.5874 16.0256 20.9303 15.3476 20.9303 14.5936C20.9303 13.266 19.888 12.1849 18.608 12.1849C17.328 12.1849 16.2857 13.266 16.2857 14.5936C16.2857 15.3523 16.6286 16.0303 17.1588 16.4713C16.0571 16.8174 15.3486 17.5761 15.2388 18.5766C15.6777 19.1124 15.9291 19.7715 15.9291 20.5206V21.6302V22H22V18.8516C22.0045 17.7089 21.264 16.8412 20.0617 16.4666ZM14.1463 16.2627C14.1463 17.0166 13.8034 17.6946 13.2777 18.1356C14.4754 18.5102 15.216 19.3779 15.216 20.5206V22H8.43199V20.5206C8.43199 19.3826 9.17256 18.5197 10.3748 18.1404C9.84456 17.6994 9.50171 17.0213 9.50171 16.2627C9.50171 14.935 10.544 13.854 11.824 13.854C13.104 13.854 14.1463 14.935 14.1463 16.2627Z" fill="#000033"/>
</svg>
