<svg width="24" height="24" fill="none" xmlns="http://www.w3.org/2000/svg"><path fill-rule="evenodd" clip-rule="evenodd" d="M8.909 8.291 7.126 6.425l.402-3.316A9.6 9.6 0 0 1 11.995 2c.449 0 .883.034 1.313.091l1.641 3.062-1.115 2.308-4.925.83Zm5.793-5.897L15.9 4.63l2.2-.442a9.786 9.786 0 0 0-3.398-1.794ZM6.08 6.175l.288-2.347a10.273 10.273 0 0 0-2.693 2.865l2.405-.518Zm13.552 6.882 2.204-2.448a10.681 10.681 0 0 0-2.72-5.48l-3.27.657L14.79 7.97l2.273 4.664 2.57.423Zm-3.575-.02-2.168-4.443-4.695.787-.737 4.933 4.244 2.26 3.356-3.537ZM4.14 18.979a10.725 10.725 0 0 1-1.724-3.484l2.021.97-.297 2.515Zm17.266-2.912c.384-1.114.594-2.313.594-3.566 0-.144-.005-.283-.01-.422l-1.558 1.732.974 2.256Zm-13.54-.802 4.427 2.356.224 2.822-2.181 2.404c-2.017-.355-3.832-1.348-5.25-2.773l.421-3.547 2.36-1.262Zm3.823 7.726 1.555-1.713 2.153 1.1A9.537 9.537 0 0 1 12 23a6.44 6.44 0 0 1-.298-.009h-.013Zm5.203-9.242 2.51.412 1.418 3.278c-.942 1.843-2.391 3.36-4.147 4.338l-3.105-1.579-.214-2.72 3.538-3.73ZM5.041 15.514l2.34-1.258.774-5.173L6.403 7.25l-3.434.744A10.838 10.838 0 0 0 2 12.495c0 .547.041 1.09.119 1.617l2.922 1.402Z" fill="#003"/></svg>