<svg width="24" height="24" fill="none" xmlns="http://www.w3.org/2000/svg"><path d="M8.909 7.791 7.126 5.925l.402-3.316A9.6 9.6 0 0 1 11.995 1.5c.449 0 .883.034 1.313.091l1.641 3.062-1.115 2.308-4.925.83ZM14.702 1.894 15.9 4.13l2.2-.442a9.786 9.786 0 0 0-3.398-1.794ZM6.079 5.675l.288-2.347a10.273 10.273 0 0 0-2.693 2.865l2.405-.518ZM19.631 12.557l2.204-2.448a10.681 10.681 0 0 0-2.72-5.48l-3.27.657L14.79 7.47l2.273 4.664 2.57.423ZM16.056 12.537l-2.168-4.443-4.695.787-.737 4.933 4.244 2.26 3.356-3.537ZM4.14 18.479a10.725 10.725 0 0 1-1.724-3.484l2.021.969-.297 2.514ZM21.406 15.566C21.79 14.452 22 13.252 22 12c0-.144-.005-.283-.01-.422l-1.558 1.732.974 2.256ZM7.866 14.764l4.427 2.356.224 2.822-2.181 2.404c-2.017-.355-3.832-1.348-5.25-2.773l.421-3.547 2.36-1.262ZM11.69 22.49l1.554-1.713 2.153 1.1A9.537 9.537 0 0 1 12 22.5a6.44 6.44 0 0 1-.298-.009h-.013ZM16.892 13.248l2.51.412 1.418 3.278c-.942 1.843-2.391 3.36-4.147 4.338l-3.105-1.579-.214-2.72 3.538-3.73ZM5.04 15.014l2.342-1.258.773-5.173L6.403 6.75l-3.434.744A10.838 10.838 0 0 0 2 11.995c0 .547.041 1.09.119 1.617l2.922 1.402Z" fill="#003"/></svg>