<svg width="24" height="24" fill="none" xmlns="http://www.w3.org/2000/svg"><path d="M11.403 17.725c-.2.203-.312.469-.312.753 0 .11.022.216.053.32a6.823 6.823 0 0 1-2.581-.866V13.2c0-.69-.56-1.25-1.25-1.25H5.1a6.888 6.888 0 0 1 2.663-5.44c-.088.34-.138.696-.138 1.065V7.6c0 .038 0 .075.003.113 0 .037.003.075.006.112l.02.225c.002.038.009.075.012.11l.015.109.02.11c.005.037.012.071.02.105.007.035.017.072.026.107l.028.106.028.103c.01.034.022.069.031.103.013.035.022.069.035.103a3.458 3.458 0 0 0 .078.2c.012.035.028.066.04.1.016.032.029.066.044.097l.047.097c.016.031.031.063.05.094.016.031.035.062.05.094.019.03.035.062.053.093l.057.091c.018.031.037.06.056.09l.06.088c.018.028.04.06.062.088.022.028.04.056.062.084l.066.084c.022.029.044.054.069.082.021.028.046.053.068.08.025.026.047.054.072.079.025.025.05.05.072.075l.075.075c.025.025.05.05.078.072a.855.855 0 0 1 .078.072c.025.022.053.047.082.069.028.021.053.043.08.068.029.025.057.044.085.066.028.022.056.044.085.062.028.022.056.041.087.063l.088.06.09.056c.031.018.06.037.09.056.032.019.063.034.095.053.03.019.062.034.093.05.032.015.063.031.097.05l.097.047c.031.015.066.031.097.043.034.016.066.029.1.041.034.013.066.028.1.04l.103.038c.035.013.069.022.103.035a4.394 4.394 0 0 0 .21.06l.106.027c.034.01.072.016.106.025.038.006.072.016.11.022l.109.019c.037.006.075.012.11.015.037.007.074.01.112.013l.225.019c.037.003.075.003.112.006.047.003.097.003.144.003h.128c.038 0 .075-.003.113-.006l.225-.019c.037-.003.075-.01.109-.013l.11-.015.109-.019c.037-.006.072-.015.11-.022.034-.006.071-.015.105-.025l.107-.028c.034-.01.068-.019.106-.028.034-.01.069-.022.103-.031.034-.013.069-.022.103-.035l.103-.037a1.37 1.37 0 0 0 .1-.04c.035-.013.066-.029.1-.041.035-.016.066-.028.097-.044l.097-.047c.031-.016.063-.031.097-.05l.094-.05c.03-.019.062-.034.093-.053l.091-.056.09-.057c.032-.018.06-.04.088-.059.028-.019.06-.04.088-.063.028-.021.056-.043.084-.062l.084-.066c.028-.021.057-.043.082-.068.025-.025.053-.047.08-.07.026-.024.054-.046.079-.071.025-.025.05-.05.078-.075l.075-.075c.025-.025.05-.05.072-.078.025-.025.047-.053.072-.078.022-.025.047-.053.069-.082.021-.028.043-.053.068-.08l.066-.085a1.43 1.43 0 0 0 .063-.085l.062-.087.06-.088.056-.09c.018-.031.037-.06.056-.09.019-.032.034-.063.053-.095.019-.03.034-.062.05-.093l.047-.097.047-.097c.015-.031.028-.066.044-.097.015-.034.028-.066.04-.1l.038-.1.037-.103c.013-.034.022-.069.035-.103.012-.035.021-.069.03-.103.02-.07.038-.142.054-.213.01-.034.016-.072.025-.106.006-.034.016-.072.022-.11l.019-.109.015-.11c.006-.037.01-.074.013-.109l.01-.112c.002-.038.005-.075.005-.113.003-.037.003-.075.003-.112v-.113c0-.368-.05-.725-.137-1.065a6.87 6.87 0 0 1 2.594 4.494.9.9 0 0 0-.34-.025l-.017.003a1.08 1.08 0 0 0-.643.303l-.81.81a1.067 1.067 0 0 0 0 1.506l.716.715c.247.247.163.657.047.957-.172.443-.528.959-.985 1.415-.456.456-.968.813-1.415.985-.3.115-.71.2-.957-.047l-.715-.716c-.397-.397-1.11-.397-1.51 0l-.806.806Zm2.781-10.462h1.55a3.769 3.769 0 0 0-2.325-3.16c.204.297.391.697.529 1.222.134.513.225 1.15.246 1.938Zm-.774 3.78a3.757 3.757 0 0 0 2.325-3.155h-1.55c-.041 1.596-.376 2.565-.776 3.156Zm-3.344-5.718c.143-.531.331-.931.537-1.228a3.788 3.788 0 0 0-1.969 1.828c-.203.41-.33.86-.371 1.338h1.55c.025-.788.115-1.425.253-1.938Zm.537 5.728c-.403-.587-.747-1.56-.787-3.165h-1.55a3.758 3.758 0 0 0 2.337 3.165Zm1.085.166V7.888H10.44c.062 2.359.806 3.1 1.247 3.33Zm0-3.956V3.93c-.266.14-.644.469-.916 1.228-.175.494-.306 1.172-.331 2.104h1.247Zm1.871.625h-1.246v3.334c.437-.231 1.184-.972 1.246-3.334Zm-.33-2.729c-.273-.762-.65-1.09-.916-1.23v3.334h1.246c-.024-.932-.156-1.607-.33-2.104ZM3.874 18.513c0 .343.281.625.625.625h2.813a.627.627 0 0 0 .625-.625H3.875Zm0-4.688v4.063h4.063v-4.063H3.875Zm3.438-1.25H4.5a.627.627 0 0 0-.625.625h4.063a.627.627 0 0 0-.625-.625Zm12.619.188-1.029-1.028c-.003-.004-.006-.004-.006-.007a.444.444 0 0 0-.306-.125l-.047.007a.45.45 0 0 0-.266.125l-.806.806a.448.448 0 0 0 0 .625l.716.715c.137.138.228.297.284.466.263.813-.36 1.925-1.222 2.788-.844.843-1.928 1.459-2.734 1.24a1.162 1.162 0 0 1-.519-.303l-.716-.715a.447.447 0 0 0-.312-.129.437.437 0 0 0-.313.132l-.806.806a.448.448 0 0 0 0 .625l1.028 1.028c.14.14.553.275 1.147.253.525-.019 2.366-.222 4.022-2.112 2.178-2.494 2.31-4.776 1.884-5.197Z" fill="#003"/></svg>