<svg xmlns="http://www.w3.org/2000/svg" width="24" height="24" fill="none"><path fill="#003" d="M19.695 2v20H4.31V8.254h6.117V2zM9.38 7.18H4.547L9.38 2.241zm1.232 6.24c.25-1.317 1.385-2.314 2.746-2.314.488 0 .971.133 1.396.384a.52.52 0 0 0 .716-.196.543.543 0 0 0-.192-.732 3.8 3.8 0 0 0-1.924-.53c-1.942 0-3.549 1.481-3.804 3.392h-.564a.527.527 0 0 0-.523.535c0 .297.232.535.523.535h.564c.255 1.91 1.862 3.392 3.804 3.392.671 0 1.338-.183 1.924-.53a.543.543 0 0 0 .192-.732.52.52 0 0 0-.716-.197 2.75 2.75 0 0 1-1.396.384c-1.365 0-2.501-1-2.747-2.322h2.922c.29 0 .523-.238.523-.535a.527.527 0 0 0-.523-.535z"/></svg>