<svg width="24" height="24" fill="none" xmlns="http://www.w3.org/2000/svg"><path d="M12.81 12.328h1.1c-.091 1.657-.591 2.822-1.1 3.297v-3.297Zm-1.02-1.021V8.015c-.496.503-.974 1.662-1.052 3.287h1.053v.003Zm-1.343-3.12a4.076 4.076 0 0 0-2.188 3.12h1.457c.056-1.238.318-2.316.73-3.12Zm-2.188 4.141a4.088 4.088 0 0 0 2.21 3.129c-.419-.8-.69-1.885-.753-3.129H8.259Zm3.532 3.254v-3.254h-1.053c.087 1.604.562 2.754 1.053 3.254Zm1.018-4.276h1.1c-.08-1.675-.59-2.85-1.1-3.328v3.329Zm1.404-3.09c.4.8.662 1.866.718 3.087h1.413a4.086 4.086 0 0 0-2.131-3.087Zm-.016 7.21a4.098 4.098 0 0 0 2.15-3.098h-1.413c-.062 1.225-.328 2.3-.737 3.097ZM12.313 3.252c-4.654 0-8.438 3.785-8.438 8.438 0 1.203.247 2.365.737 3.45L3.275 19.96a.625.625 0 0 0 .769.772l4.819-1.341a8.377 8.377 0 0 0 3.45.738c4.653 0 8.437-3.785 8.437-8.438 0-4.653-3.784-8.438-8.437-8.438Zm-.013 13.66a5.104 5.104 0 0 1-5.097-5.097c0-2.81 2.288-5.1 5.097-5.1h.022c.012 0 .022.003.031.003a5.096 5.096 0 0 1-.053 10.194Z" fill="#003"/></svg>