<svg width="24" height="24" viewBox="0 0 24 24" fill="none" xmlns="http://www.w3.org/2000/svg">
<path fill-rule="evenodd" clip-rule="evenodd" d="M11.3087 3.42661C11.3087 3.81984 11.6189 4.13991 12 4.13991C12.3811 4.13991 12.6913 3.81984 12.6913 3.42661V2.7133C12.6913 2.32007 12.3811 2 12 2C11.6189 2 11.3087 2.32007 11.3087 2.7133V3.42661ZM20.3087 10.5734C20.6898 10.5734 21 10.8934 21 11.2867C21 11.6799 20.6898 12 20.3087 12H19.7903C19.4092 12 19.099 11.6799 19.099 11.2867C19.099 10.8934 19.4092 10.5734 19.7903 10.5734H20.3087ZM4.90103 11.2867C4.90103 10.8934 4.59084 10.5734 4.20975 10.5734H3.69129C3.31019 10.5734 3 10.8934 3 11.2867C3 11.6799 3.31019 12 3.69129 12H4.20975C4.59084 12 4.90103 11.6799 4.90103 11.2867ZM5.76957 6.75079C6.10192 6.9474 6.2127 7.38179 6.02216 7.72472C5.89365 7.95335 5.65879 8.08138 5.42393 8.08138C5.30428 8.08138 5.18907 8.04937 5.07829 7.98535L4.46233 7.61956C4.12999 7.42294 4.0192 6.98856 4.20975 6.64562C4.4003 6.30269 4.82127 6.18838 5.15362 6.38499L5.76957 6.75079ZM8.53914 5.10013C8.87149 4.90351 8.98227 4.46456 8.79173 4.1262L8.44609 3.50891C8.25554 3.16598 7.83013 3.05167 7.50222 3.24828C7.16987 3.4449 7.05908 3.88385 7.24963 4.22222L7.59527 4.8395C7.72378 5.06812 7.95421 5.19615 8.1935 5.19615C8.30871 5.19615 8.42836 5.16414 8.53914 5.10013ZM16.7504 4.22222L16.3959 4.85779C16.2674 5.08641 16.0369 5.21444 15.7976 5.21444C15.678 5.21444 15.5628 5.18243 15.452 5.11842C15.1241 4.9218 15.0089 4.48742 15.1994 4.14448L15.5539 3.50891C15.7445 3.16598 16.1654 3.05167 16.4978 3.24828C16.8257 3.4449 16.9409 3.87928 16.7504 4.22222ZM18.9217 7.98535L19.5377 7.61956C19.87 7.42294 19.9808 6.98398 19.7903 6.64562C19.5997 6.30269 19.1743 6.1838 18.8464 6.38499L18.2304 6.75079C17.8981 6.9474 17.7873 7.38636 17.9778 7.72472C18.1064 7.95335 18.3368 8.08138 18.5761 8.08138C18.6957 8.08138 18.8154 8.04937 18.9217 7.98535ZM14.7696 17.0022H9.23043C7.29838 15.9552 5.94239 13.8655 5.94239 11.465C5.94239 8.01736 8.65879 5.21444 12 5.21444C15.3412 5.21444 18.0576 8.01736 18.0576 11.465C18.0576 13.8701 16.7016 15.9552 14.7696 17.0022ZM15.4609 18.7855C15.4609 18.3923 15.1507 18.0722 14.7696 18.0722H9.23043C8.84934 18.0722 8.53914 18.3923 8.53914 18.7855C8.53914 19.1787 8.84934 19.4988 9.23043 19.4988H14.7696C15.1507 19.5034 15.4609 19.1833 15.4609 18.7855ZM14.7696 20.5733C15.1507 20.5733 15.4609 20.8934 15.4609 21.2866C15.4609 21.6845 15.1507 22.0045 14.7696 22H9.23043C8.84934 22 8.53914 21.6799 8.53914 21.2866C8.53914 20.8934 8.84934 20.5733 9.23043 20.5733H14.7696Z" fill="#000033"/>
</svg>
