<svg width="24" height="24" fill="none" xmlns="http://www.w3.org/2000/svg"><path d="M11.309 3.427c0 .393.31.713.691.713.381 0 .691-.32.691-.713v-.714A.703.703 0 0 0 12 2a.703.703 0 0 0-.691.713v.714Zm9 7.146c.38 0 .691.32.691.714 0 .393-.31.713-.691.713h-.519a.703.703 0 0 1-.691-.713c0-.394.31-.714.691-.714h.519ZM4.9 11.287a.703.703 0 0 0-.691-.714H3.69a.703.703 0 0 0-.691.714c0 .393.31.713.691.713h.519c.38 0 .691-.32.691-.713Zm.87-4.537a.723.723 0 0 1 .252.974.691.691 0 0 1-.598.356.681.681 0 0 1-.346-.096l-.616-.365a.723.723 0 0 1-.252-.974.678.678 0 0 1 .944-.261l.616.366ZM8.54 5.1a.724.724 0 0 0 .252-.975l-.346-.617a.679.679 0 0 0-.944-.26.724.724 0 0 0-.252.973l.345.617a.686.686 0 0 0 .599.357.694.694 0 0 0 .345-.096Zm8.21-.879-.354.636a.686.686 0 0 1-.598.356.682.682 0 0 1-.346-.096.728.728 0 0 1-.253-.974l.355-.635a.678.678 0 0 1 .944-.26.728.728 0 0 1 .252.973Zm2.172 3.763.616-.365a.725.725 0 0 0 .252-.974.675.675 0 0 0-.944-.261l-.616.366a.725.725 0 0 0-.252.974.686.686 0 0 0 .598.356.67.67 0 0 0 .346-.096Zm-4.152 9.017H9.23a6.316 6.316 0 0 1-3.288-5.537c0-3.448 2.717-6.25 6.058-6.25 3.341 0 6.058 2.802 6.058 6.25a6.31 6.31 0 0 1-3.288 5.537Zm.69 1.784a.703.703 0 0 0-.69-.714H9.23a.703.703 0 0 0-.69.713c0 .394.31.714.69.714h5.54c.38.004.69-.316.69-.713Zm-.69 1.787c.38 0 .69.32.69.714 0 .398-.31.718-.69.713H9.23a.704.704 0 0 1-.69-.713c0-.394.31-.714.69-.714h5.54Z" fill="#003"/></svg>