<svg width="24" height="24" viewBox="0 0 24 24" fill="none" xmlns="http://www.w3.org/2000/svg">
<path d="M11.1067 5.40449L11.7464 3.2113C11.9383 2.49094 12.6146 2 13.4279 2C14.3692 2 15.2145 2.80295 15.2145 3.79401L15.0363 5.04661L14.1453 8.09321H19.857C21.0359 8.09321 22 9.05675 22 10.2451C22 10.8966 21.7076 11.4794 21.2506 11.8739C21.4974 12.2227 21.6436 12.6494 21.6436 13.1128C21.6436 14.1038 20.9719 14.9389 20.0626 15.1867C20.1586 15.4344 20.218 15.7006 20.218 15.9804C20.218 16.9715 19.5463 17.8066 18.637 18.0543C18.7329 18.3021 18.7923 18.5682 18.7923 18.8481C18.7923 20.0319 17.8328 21 16.6493 21H10.5721C9.71762 21 8.85858 20.6513 8.28284 20.0732C7.97213 19.7612 7.48321 19.5685 7.00343 19.5685H2V9.16687H6.99886C7.19077 9.16687 7.36897 9.09346 7.50605 8.95581L11.1067 5.40449Z" fill="#000033"/>
</svg>
