<svg xmlns="http://www.w3.org/2000/svg" width="24" height="24" fill="none"><path fill="#003" d="M6.844 2H17.16C18.175 2 19 2.83 19 3.849V22H5V3.854C5 2.83 5.83 2 6.844 2m2.395 17.265 3.89-3.911a.557.557 0 0 0 .005-.787.55.55 0 0 0-.783 0l-3.107 3.124-1.269-1.275a.55.55 0 0 0-.782 0 .557.557 0 0 0 0 .787zm3.89-9.168a.557.557 0 0 0 .005-.787.55.55 0 0 0-.783 0l-3.107 3.124-1.269-1.275a.55.55 0 0 0-.782 0 .557.557 0 0 0 0 .786l2.046 2.063zM9.24 8.893l3.89-3.911a.556.556 0 0 0 .005-.782.55.55 0 0 0-.783 0L9.244 7.324 7.975 6.048a.55.55 0 0 0-.782 0 .557.557 0 0 0 0 .787z"/></svg>