<svg width="24" height="24" viewBox="0 0 24 24" fill="none" xmlns="http://www.w3.org/2000/svg">
<path fill-rule="evenodd" clip-rule="evenodd" d="M6.84372 2H17.161C18.1748 2 19 2.82958 19 3.84878V22H5V3.85352C5 2.82958 5.82991 2 6.84372 2ZM9.23914 19.2648L13.1293 15.3539C13.3462 15.1358 13.351 14.785 13.1341 14.567C12.9171 14.3489 12.5682 14.3489 12.3513 14.567L9.24385 17.6909L7.97541 16.4157C7.7585 16.1977 7.40957 16.1977 7.19266 16.4157C6.97575 16.6338 6.97575 16.9846 7.19266 17.2027L9.23914 19.2648ZM13.1293 10.0967L9.23914 14.0076L7.19266 11.9455C6.97575 11.7274 6.97575 11.3766 7.19266 11.1586C7.40957 10.9405 7.7585 10.9405 7.97541 11.1586L9.24385 12.4338L12.3513 9.30979C12.5682 9.09173 12.9171 9.09173 13.1341 9.30979C13.351 9.52785 13.3462 9.87864 13.1293 10.0967ZM9.23914 8.89263L13.1293 4.98175C13.3462 4.76843 13.3462 4.41289 13.1341 4.19957C12.9171 3.98151 12.5682 3.98151 12.3513 4.19957L9.24385 7.32354L7.97541 6.04835C7.7585 5.83029 7.40957 5.83029 7.19266 6.04835C6.97575 6.26641 6.97575 6.61721 7.19266 6.83527L9.23914 8.89263Z" fill="#000033"/>
</svg>
