<svg width="24" height="24" viewBox="0 0 24 24" fill="none" xmlns="http://www.w3.org/2000/svg">
<path fill-rule="evenodd" clip-rule="evenodd" d="M19.6864 5.71019C19.6864 8.13056 15.9749 13.83 15.5516 14.4727C15.4433 14.6334 15.2661 14.7339 15.0741 14.7339C14.8821 14.7339 14.7049 14.6385 14.5966 14.4727C14.1733 13.83 10.4617 8.13056 10.4617 5.71019C10.4617 3.06887 12.4898 1 15.079 1C17.6682 1 19.6864 3.06887 19.6864 5.71019ZM15.9404 5.71019C15.9404 6.19727 15.5516 6.59397 15.0741 6.59397C14.5966 6.59397 14.2077 6.19727 14.2077 5.71019C14.2077 5.2231 14.5966 4.8264 15.0741 4.8264C15.5516 4.8264 15.9404 5.2231 15.9404 5.71019ZM15.0741 3.65136C16.1866 3.65136 17.0923 4.57532 17.0923 5.71019C17.0923 6.84505 16.1866 7.76901 15.0741 7.76901C13.9616 7.76901 13.0559 6.84505 13.0559 5.71019C13.0559 4.57532 13.9616 3.65136 15.0741 3.65136ZM9.50185 17.9175C9.49692 17.8874 9.49692 17.8623 9.49692 17.8321V16.5014C9.49692 15.3314 8.71425 15.0352 7.32611 14.6184C6.17426 14.2719 4.74182 13.84 4.50554 12.2783C4.50062 12.2482 4.50062 12.2181 4.50062 12.1879V11.0129C4.50062 10.1492 3.81147 9.4462 2.9648 9.4462H2V22H11.3527C10.2894 20.9455 9.57568 19.3637 9.50185 17.9175ZM20.4593 5.71019C20.4593 5.51435 20.4494 5.31349 20.4297 5.12267H22V21.99H13.9222C12.1944 21.99 10.6537 19.5796 10.6537 17.6765V16.5014C10.6537 14.3929 8.92176 13.8704 7.65676 13.4888L7.65592 13.4885C6.50406 13.142 5.7903 12.891 5.65247 12.1377V11.0079C5.65247 9.49139 4.44647 8.26112 2.95988 8.26112H2V5.12267H9.71843C9.69874 5.31349 9.6889 5.50933 9.6889 5.71019C9.6889 6.16212 9.89564 8.74821 13.9567 14.9096C14.2077 15.2912 14.6261 15.5172 15.0741 15.5172C15.522 15.5172 15.9404 15.2912 16.1915 14.9096C20.2525 8.75323 20.4593 6.16715 20.4593 5.71019Z" fill="#000033"/>
</svg>
