<svg width="24" height="24" fill="none" xmlns="http://www.w3.org/2000/svg"><path d="M19.686 6.21c0 2.42-3.711 8.12-4.134 8.763a.567.567 0 0 1-.955 0c-.424-.643-4.135-6.342-4.135-8.763 0-2.641 2.028-4.71 4.617-4.71 2.59 0 4.607 2.069 4.607 4.71Zm-3.746 0a.876.876 0 0 1-.866.884.877.877 0 0 1-.866-.884c0-.487.389-.884.866-.884.478 0 .866.397.866.884Zm-.866-2.059c-1.112 0-2.018.924-2.018 2.06 0 1.134.906 2.058 2.018 2.058 1.113 0 2.018-.924 2.018-2.059 0-1.135-.905-2.059-2.018-2.059ZM9.502 18.418c-.005-.03-.005-.056-.005-.086v-1.33c0-1.17-.783-1.467-2.17-1.884-1.153-.346-2.585-.778-2.821-2.34-.005-.03-.005-.06-.005-.09v-1.175c0-.864-.69-1.567-1.536-1.567H2V22.5h9.353c-1.064-1.055-1.777-2.636-1.851-4.082ZM20.459 6.21c0-.196-.01-.397-.03-.587H22V22.49h-8.078c-1.728 0-3.268-2.41-3.268-4.313V17c0-2.108-1.732-2.63-2.997-3.012-1.152-.347-1.867-.598-2.005-1.351v-1.13c0-1.517-1.206-2.747-2.692-2.747H2V5.623h7.718c-.02.19-.03.386-.03.587 0 .452.208 3.038 4.269 9.2.25.381.67.607 1.117.607.448 0 .866-.226 1.118-.607 4.06-6.157 4.267-8.743 4.267-9.2Z" fill="#003"/></svg>