<svg xmlns="http://www.w3.org/2000/svg" width="24" height="24" fill="none"><path fill="#003" d="M19.314 6.486c0 2.305-3.534 7.733-3.937 8.345a.54.54 0 0 1-.91 0c-.403-.612-3.938-6.04-3.938-8.345C10.529 3.97 12.46 2 14.926 2s4.388 1.97 4.388 4.486m-3.567 0c0 .464-.37.842-.825.842a.835.835 0 0 1-.825-.842c0-.464.37-.842.825-.842.454 0 .825.378.825.842m-.825-1.96c-1.06 0-1.922.88-1.922 1.96s.862 1.96 1.922 1.96 1.922-.88 1.922-1.96-.863-1.96-1.922-1.96M9.615 18.111c-.005-.029-.005-.053-.005-.081v-1.268c0-1.114-.745-1.396-2.067-1.793-1.097-.33-2.462-.741-2.687-2.229-.004-.028-.004-.057-.004-.086v-1.119c0-.822-.657-1.492-1.463-1.492H2.47V22h8.907c-1.012-1.004-1.692-2.51-1.762-3.888M20.05 6.486c0-.187-.01-.378-.029-.56h1.496V21.99h-7.693c-1.646 0-3.113-2.295-3.113-4.108v-1.119c0-2.008-1.65-2.506-2.854-2.869-1.097-.33-1.778-.57-1.91-1.287v-1.076c0-1.444-1.148-2.616-2.564-2.616H2.47V5.926h7.351a5.447 5.447 0 0 0-.028.56c0 .43.197 2.893 4.065 8.761.239.364.637.579 1.064.579.426 0 .825-.215 1.064-.579 3.868-5.863 4.064-8.326 4.064-8.761"/></svg>