<svg width="24" height="24" viewBox="0 0 24 24" fill="none" xmlns="http://www.w3.org/2000/svg">
<path fill-rule="evenodd" clip-rule="evenodd" d="M17.9124 9.4985V8.07079C17.9124 4.72346 15.26 2 12 2C8.74002 2 6.08763 4.72346 6.08763 8.07079V9.4985C4.93476 9.4985 4 10.4583 4 11.6421V19.8564C4 21.0402 4.93476 22 6.08763 22H17.9124C19.0652 22 20 21.0402 20 19.8564V11.6421C20 10.4583 19.0613 9.4985 17.9124 9.4985ZM15.8481 13.8056L10.9562 18.8246L8.84908 16.6611C8.64654 16.4491 8.64654 16.1092 8.84908 15.9052C9.0555 15.6973 9.38267 15.6973 9.5852 15.9052L10.9562 17.3129L15.1081 13.0498C15.3145 12.8378 15.6456 12.8378 15.8442 13.0498C16.0506 13.2577 16.0506 13.5937 15.8481 13.8056ZM7.47809 9.4985H16.5219V8.07079C16.5219 5.5113 14.4927 3.42771 12 3.42771C9.5073 3.42771 7.47809 5.5113 7.47809 8.07079V9.4985Z" fill="#000033"/>
</svg>
