<svg width="24" height="24" viewBox="0 0 24 24" fill="none" xmlns="http://www.w3.org/2000/svg">
<path fill-rule="evenodd" clip-rule="evenodd" d="M18.2896 9.85114V8.07043C18.2896 4.72509 15.6936 2 12.4981 2C9.30262 2 6.70654 4.72109 6.70654 8.07043V9.85114C5.76355 9.85114 5 10.6515 5 11.6399V20.2113C5 21.1997 5.76355 22 6.70654 22H18.2935C19.2364 22 20 21.1997 20 20.2113V11.6399C19.9885 10.6555 19.225 9.85114 18.2896 9.85114ZM8.0733 8.07043C8.0733 5.51341 10.0585 3.43257 12.4981 3.43257C14.9376 3.43257 16.9229 5.51341 16.9229 8.07043V9.85114H8.0733V8.07043ZM12.4981 19.3149C16.5526 19.3149 17.6979 16.2377 17.7437 16.1096C17.7895 15.9896 17.7895 15.8575 17.7437 15.7375C17.6979 15.6094 16.5526 12.5322 12.4981 12.5322C8.44362 12.5322 7.29829 15.6094 7.25248 15.7375C7.20667 15.8575 7.20667 15.9896 7.25248 16.1096C7.29829 16.2417 8.44362 19.3149 12.4981 19.3149ZM13.3495 15.9256C13.3495 16.4184 12.9683 16.8179 12.4981 16.8179C12.0279 16.8179 11.6467 16.4184 11.6467 15.9256C11.6467 15.4327 12.0279 15.0332 12.4981 15.0332C12.9683 15.0332 13.3495 15.4327 13.3495 15.9256ZM12.4981 13.6006C9.69585 13.6006 8.58106 15.3413 8.2871 15.9256C8.58106 16.5178 9.67676 18.2505 12.4981 18.2505C15.3003 18.2505 16.4151 16.5098 16.7091 15.9256C16.4151 15.3333 15.3156 13.6006 12.4981 13.6006ZM12.4981 17.8904C11.4635 17.8904 10.6198 17.006 10.6198 15.9216C10.6198 14.8371 11.4635 13.9528 12.4981 13.9528C13.5327 13.9528 14.3764 14.8371 14.3764 15.9216C14.3764 17.01 13.5327 17.8904 12.4981 17.8904Z" fill="#313235"/>
</svg>
