<svg width="24" height="24" fill="none" xmlns="http://www.w3.org/2000/svg"><path fill-rule="evenodd" clip-rule="evenodd" d="M9.02 5.518v8.52c0 1.973 1.53 3.52 3.485 3.52 1.954 0 3.485-1.547 3.485-3.52v-8.52C15.99 3.546 14.459 2 12.505 2S9.02 3.546 9.02 5.518ZM16.544 22a.74.74 0 0 0-.014-1.48h-3.302v-.796c2.691-.365 4.772-2.688 4.772-5.5a.737.737 0 0 0-.733-.74.737.737 0 0 0-.732.74c0 2.243-1.813 4.073-4.035 4.073-2.222 0-4.035-1.826-4.035-4.073a.737.737 0 0 0-.732-.74.737.737 0 0 0-.733.74c0 2.812 2.085 5.135 4.772 5.5v.797H8.47a.737.737 0 0 0-.733.74c0 .407.33.739.733.739h8.074Z" fill="#003"/></svg>