<svg width="24" height="24" viewBox="0 0 24 24" fill="none" xmlns="http://www.w3.org/2000/svg">
<path fill-rule="evenodd" clip-rule="evenodd" d="M9.01964 5.51825V14.0389C9.01964 16.0114 10.5508 17.5571 12.5047 17.5571C14.4586 17.5571 15.9898 16.0114 15.9898 14.0389V5.51825C15.9898 3.54576 14.4586 2 12.5047 2C10.5508 2 9.01964 3.54576 9.01964 5.51825ZM16.544 22C16.9479 22 17.2767 21.6681 17.2767 21.2603C17.2767 20.8525 16.9479 20.5206 16.5299 20.5206H13.228V19.724C15.9193 19.3589 18 17.0356 18 14.2238C18 13.816 17.6712 13.4841 17.2673 13.4841C16.8634 13.4841 16.5346 13.816 16.5346 14.2238C16.5346 16.4666 14.7216 18.2968 12.5 18.2968C10.2784 18.2968 8.46541 16.4713 8.46541 14.2238C8.46541 13.816 8.13664 13.4841 7.73271 13.4841C7.32878 13.4841 7 13.816 7 14.2238C7 17.0356 9.0854 19.3589 11.772 19.724V20.5206H8.47011C8.06618 20.5206 7.7374 20.8525 7.7374 21.2603C7.7374 21.6681 8.06618 22 8.47011 22H16.544Z" fill="#000033"/>
</svg>
