<svg width="24" height="24" viewBox="0 0 24 24" fill="none" xmlns="http://www.w3.org/2000/svg">
<path fill-rule="evenodd" clip-rule="evenodd" d="M21.4491 3.82904L19.6407 4.33162L12.7146 6.26365C12.6866 6.09063 12.6747 5.90937 12.6747 5.73223C12.6747 3.67662 14.2994 2 16.2914 2C17.2774 2 18.1717 2.41195 18.8263 3.07106L21.1297 2.43666C21.497 2.3378 21.8762 2.56025 21.976 2.94336C22.0559 3.26056 21.9162 3.58599 21.6527 3.74253C21.6008 3.77137 21.5489 3.79609 21.493 3.81668H21.489L21.4491 3.82904ZM11.9481 8.23275C11.9481 9.61277 11.2216 10.8115 10.1437 11.4583C12.479 12.0103 14.0399 13.6375 14.0399 15.7219V22H2.61876V15.7219C2.61876 13.6375 4.17964 12.0103 6.51497 11.4542C6.35529 11.3594 6.1996 11.24 6.05589 11.1205C6.13972 10.5973 6.41517 9.9794 6.53493 9.75283C7.16168 8.54171 8.20758 7.6931 9.61677 7.24408L11.6367 6.72091C11.8323 7.18641 11.9481 7.69722 11.9481 8.23275ZM3.6487 9.02369C3.78443 9.06488 3.9481 9.09372 4.13972 9.09372C4.33533 9.09372 4.55489 9.06076 4.79441 8.97837C4.87824 9.39444 5.02994 9.78579 5.23353 10.1442C5.3848 9.71016 5.55312 9.36762 5.60297 9.26615L5.61277 9.24614C6.35928 7.80021 7.64471 6.74974 9.32934 6.21421L11.0339 5.77343C10.3752 4.99073 9.40918 4.50051 8.32735 4.50051C7.89621 4.50051 7.48503 4.59114 7.1018 4.7312C7.07784 3.58599 6.16367 2.65911 5.04591 2.65911C3.91218 2.65911 2.99002 3.61071 2.99002 4.78064V6.96807H2L2.47505 7.99382C2.50699 8.07621 2.86228 8.78888 3.6487 9.02369ZM19.9082 5.73223C19.9082 7.11226 19.1816 8.31102 18.1038 8.95778C20.4391 9.50978 22 11.137 22 13.2214V19.8579H15.0818V15.7219C15.0818 13.7322 13.9561 12.0227 12.0998 11.0463C12.4072 10.6179 12.6347 10.1359 12.7864 9.62513C13.2854 9.33677 13.8563 9.10608 14.483 8.95778C13.8363 8.57055 13.3293 7.98558 13.014 7.28939L19.8922 5.36972C19.9002 5.48919 19.9082 5.61277 19.9082 5.73223Z" fill="#000033"/>
</svg>
