<svg width="24" height="24" fill="none" xmlns="http://www.w3.org/2000/svg"><path d="M16.898 5.244s-1.19 1.07-2.798 1.07v3.565c0 1.64 1.609 2.816 2.798 3.208 1.188-.392 2.797-1.568 2.797-3.208V6.314c-1.609 0-2.797-1.07-2.797-1.07Z" fill="#003"/><path d="M16.513 14.264c-1.748-.57-3.637-2.21-3.637-4.385V6.136H4.31V17.9h12.588v-3.493l-.385-.143ZM4.31 18.97C4.415 20.645 5.78 22 7.457 22h6.294c1.678 0 3.042-1.355 3.147-3.03H4.31ZM14.1 5.03c1.084 0 1.923-.713 1.993-.748l.49-.428C16.093 2.784 15.009 2 13.75 2H7.457C5.779 2 4.415 3.355 4.31 5.03h9.79Z" fill="#003"/><path d="M16.898 5.244s-1.19 1.07-2.798 1.07v3.565c0 1.64 1.609 2.816 2.798 3.208 1.188-.392 2.797-1.568 2.797-3.208V6.314c-1.609 0-2.797-1.07-2.797-1.07Z" fill="#003"/></svg>