<svg width="24" height="24" fill="none" xmlns="http://www.w3.org/2000/svg"><path d="M5.349 5.388C5.443 3.504 6.975 2 8.849 2h6.316c1.873 0 3.405 1.504 3.5 3.388H5.348Zm0 13.224C5.443 20.496 6.975 22 8.849 22h6.316c1.873 0 3.405-1.504 3.5-3.388H5.348Zm5.076-8.395c0-.887.71-1.61 1.582-1.61.871 0 1.58.723 1.58 1.61 0 .887-.709 1.61-1.58 1.61-.872 0-1.582-.723-1.582-1.61Zm8.248-3.759v11.084H5.34V6.458h13.333Zm-4.851 5.688c.498-.489.813-1.175.813-1.934 0-1.477-1.182-2.68-2.633-2.68-1.45 0-2.632 1.203-2.632 2.68 0 .76.314 1.445.813 1.934-1.15.462-1.87 1.377-1.87 2.534v1.07c0 .297.235.534.527.534a.528.528 0 0 0 .525-.534v-1.07c0-1.052 1.083-1.788 2.633-1.788s2.632.736 2.632 1.788v1.07c0 .297.234.534.526.534a.536.536 0 0 0 .534-.534v-1.07c0-1.157-.714-2.072-1.868-2.534Z" fill="#003"/></svg>