<svg xmlns="http://www.w3.org/2000/svg" width="24" height="24" fill="none"><path fill="#003" d="M19.888 2H14.96c-1.162 0-2.112.964-2.112 2.144h9.146C22 2.964 21.05 2 19.889 2ZM5.076 4.5h6.72v2.144H3v-.037C3 5.427 3.914 4.5 5.076 4.5Zm9.885 12.857h2.112v1.425H3V7.713h8.795v6.43c0 1.787 1.405 3.213 3.166 3.213ZM3 19.893C3 21.036 3.914 22 5.076 22h9.957c1.126 0 2.04-.928 2.04-2.107v-.037L3 19.893Zm11.961-3.606c-1.162 0-2.112-.964-2.112-2.143H22c0 1.179-.95 2.143-2.112 2.143H14.96Zm7.034-11.07H12.85v7.857h9.146V5.218Z"/></svg>