<svg width="24" height="24" fill="none" xmlns="http://www.w3.org/2000/svg"><path d="M19.4 2h-4.939c-1.165 0-2.117.964-2.117 2.144h9.17C21.517 2.964 20.564 2 19.4 2ZM4.552 4.5h6.736v2.144H2.47v-.037c0-1.18.917-2.107 2.081-2.107Zm9.91 12.857h2.117v1.425H2.47V7.713h8.817v6.43c0 1.787 1.41 3.213 3.174 3.213ZM2.47 19.893c0 1.143.917 2.107 2.081 2.107h9.983c1.128 0 2.045-.928 2.045-2.107v-.037l-14.109.037Zm11.991-3.606c-1.165 0-2.117-.964-2.117-2.143h9.174c0 1.179-.953 2.143-2.118 2.143h-4.939Zm7.052-11.07h-9.17v7.857h9.17V5.218Z" fill="#003"/></svg>