<svg width="24" height="24" fill="none" xmlns="http://www.w3.org/2000/svg"><path fill-rule="evenodd" clip-rule="evenodd" d="M5 2h13.793v2.039H5V2Zm0 3.148h13.793v3.334H5V5.148Zm4.901 6.667H7.722v1.854h2.18v-1.854Zm-2.179 5.187h2.18v1.854h-2.18v-1.854ZM5 22V9.591h13.793V22H5Zm1.63-2.034h4.358v-4.078H6.631v4.078Zm4.358-5.187H6.631v-4.073h4.357v4.073Zm1.269 3.703h4.357a.55.55 0 0 0 .544-.555.547.547 0 0 0-.544-.555h-4.357a.547.547 0 0 0-.544.555c0 .308.242.555.544.555Zm4.357-5.188h-4.357a.547.547 0 0 1-.544-.554c0-.309.242-.555.544-.555h4.357c.302 0 .544.246.544.555a.55.55 0 0 1-.544.554Z" fill="#003"/></svg>