<svg width="24" height="24" fill="none" xmlns="http://www.w3.org/2000/svg"><path d="M5 2h13.793v2.039H5V2Zm0 3.148h13.793v3.334H5V5.148Zm2.722 11.854h2.18v1.854h-2.18v-1.854Zm2.179-5.187H7.722v1.854h2.18v-1.854Z" fill="#003"/><path d="M5 22V9.591h13.793V22H5Zm1.63-2.034h4.358v-4.078H6.631v4.078Zm4.358-5.187v-4.073H6.631v4.073h4.357Zm1.269 3.703h4.357a.55.55 0 0 0 .544-.555.547.547 0 0 0-.544-.555h-4.357a.547.547 0 0 0-.544.555c0 .308.242.555.544.555Zm4.357-5.188a.55.55 0 0 0 .544-.554.547.547 0 0 0-.544-.555h-4.357a.547.547 0 0 0-.544.555c0 .308.242.554.544.554h4.357Z" fill="#003"/></svg>