<svg width="24" height="24" fill="none" xmlns="http://www.w3.org/2000/svg"><path d="M21.8 14.502a.76.76 0 0 1 .164.741.74.74 0 0 1-.567.506l-3.328.668.389 3.379a.749.749 0 0 1-1.057.77l-3.083-1.415-1.667 2.964a.747.747 0 0 1-1.306 0l-1.667-2.964-3.084 1.415a.736.736 0 0 1-.754-.078.743.743 0 0 1-.302-.692l.393-3.378-3.328-.67a.756.756 0 0 1-.567-.505.747.747 0 0 1 .163-.74L4.5 12 2.2 9.498a.76.76 0 0 1-.164-.741.74.74 0 0 1 .567-.506l3.328-.669-.393-3.378a.76.76 0 0 1 .302-.693.759.759 0 0 1 .754-.077L9.678 4.85l1.666-2.964a.747.747 0 0 1 1.306 0l1.668 2.964L17.4 3.434a.747.747 0 0 1 .754.077c.221.16.336.424.303.693l-.39 3.378 3.33.67c.263.052.48.245.566.505a.747.747 0 0 1-.163.74L19.5 12l2.3 2.502Z" fill="#003"/></svg>