<svg width="24" height="24" viewBox="0 0 24 24" fill="none" xmlns="http://www.w3.org/2000/svg">
<path d="M21.8006 14.0023C21.9831 14.2044 22.0455 14.4835 21.9639 14.7434C21.8822 15.0032 21.6661 15.1957 21.3971 15.2486L18.0686 15.9175L18.4577 19.2956C18.4913 19.5651 18.3712 19.8297 18.1551 19.9885C17.9341 20.1473 17.6459 20.1762 17.401 20.0655L14.3175 18.6508L12.6508 21.615C12.5163 21.8508 12.2666 22 11.9976 22C11.7286 22 11.4789 21.8556 11.3444 21.615L9.67774 18.6508L6.59421 20.0655C6.34925 20.181 6.06107 20.1522 5.84013 19.9885C5.61919 19.8249 5.50392 19.5651 5.53754 19.2956L5.93139 15.9175L2.6029 15.2486C2.33873 15.1957 2.1226 15.0032 2.03614 14.7434C1.95449 14.4835 2.01213 14.1996 2.19945 14.0023L4.50009 11.5L2.19945 8.99771C2.01693 8.7956 1.95449 8.5165 2.03614 8.25665C2.1178 7.99679 2.33393 7.80431 2.6029 7.75137L5.93139 7.08249L5.53754 3.7044C5.50872 3.43492 5.624 3.17026 5.84013 3.01146C6.06107 2.85266 6.34925 2.82379 6.59421 2.93446L9.67774 4.34922L11.3444 1.38497C11.4789 1.14918 11.7286 1 11.9976 1C12.2666 1 12.5163 1.14436 12.6508 1.38497L14.3175 4.34922L17.401 2.93446C17.6459 2.82379 17.9341 2.84785 18.1551 3.01146C18.376 3.17026 18.4913 3.43492 18.4577 3.7044L18.0686 7.08249L21.3971 7.75137C21.6613 7.80431 21.8774 7.99679 21.9639 8.25665C22.0455 8.5165 21.9879 8.80041 21.8006 8.99771L19.4999 11.5L21.8006 14.0023Z" fill="#000033"/>
</svg>
