<svg xmlns="http://www.w3.org/2000/svg" width="24" height="24" fill="none"><path fill="#003" d="M21.338 14.383a.73.73 0 0 1 .155.706.7.7 0 0 1-.54.481l-3.17.637.37 3.217a.713.713 0 0 1-1.005.734L14.21 18.81l-1.587 2.823a.711.711 0 0 1-1.244 0L9.791 18.81l-2.937 1.348a.7.7 0 0 1-.718-.074.71.71 0 0 1-.288-.66l.375-3.217-3.17-.637a.72.72 0 0 1-.54-.481.71.71 0 0 1 .156-.706L4.86 12 2.67 9.617a.72.72 0 0 1-.156-.706.7.7 0 0 1 .54-.481l3.17-.637-.375-3.217a.72.72 0 0 1 .288-.66.72.72 0 0 1 .718-.074L9.792 5.19l1.587-2.823a.711.711 0 0 1 1.244 0l1.588 2.823 2.937-1.348a.71.71 0 0 1 .718.074c.21.15.32.403.288.66l-.37 3.217 3.17.637a.72.72 0 0 1 .54.481.71.71 0 0 1-.156.706L19.147 12z"/></svg>