<svg width="24" height="24" fill="none" xmlns="http://www.w3.org/2000/svg"><path d="M19.695 2v20H4.31V8.254h6.117V2h9.268ZM9.38 7.18H4.547L9.38 2.241V7.18Zm4.806 9.645H11.3c.058-.169.09-.347.09-.535v-1.609h1.574a.528.528 0 0 0 .524-.535.527.527 0 0 0-.524-.535H11.39v-1.426c0-.59.47-1.07 1.047-1.07.242 0 .47.083.658.238a.518.518 0 0 0 .739-.078.545.545 0 0 0-.076-.754 2.083 2.083 0 0 0-1.32-.475c-1.155 0-2.1.96-2.1 2.144v1.426h-.17a.527.527 0 0 0-.523.535c0 .297.233.535.524.535h.174v1.609a.521.521 0 0 1-.523.535.527.527 0 0 0-.524.535c0 .297.233.534.524.534h4.372a.533.533 0 0 0 .519-.539.527.527 0 0 0-.524-.535Z" fill="#003"/></svg>