<svg width="24" height="24" viewBox="0 0 24 24" fill="none" xmlns="http://www.w3.org/2000/svg">
<path fill-rule="evenodd" clip-rule="evenodd" d="M19.3846 2V22H4V8.25371H10.1172V2H19.3846ZM9.07003 7.17943H4.23717L9.07003 2.24229V7.17943ZM13.876 16.8251C14.1669 16.8251 14.3996 17.0629 14.3996 17.36C14.3996 17.6571 14.1669 17.8949 13.8805 17.8994H9.50857C9.2177 17.8994 8.98501 17.6617 8.98501 17.3646C8.98501 17.0674 9.2177 16.8297 9.50857 16.8297C9.80391 16.8297 10.0321 16.5966 10.0321 16.2949V14.6857H9.85761C9.56674 14.6857 9.33405 14.448 9.33405 14.1509C9.33405 13.8537 9.56674 13.616 9.85761 13.616H10.0277V12.1897C10.0277 11.0057 10.9719 10.0457 12.1264 10.0457C12.6052 10.0457 13.075 10.2149 13.4465 10.5211C13.6702 10.7086 13.706 11.0469 13.5225 11.2754C13.3391 11.504 13.0079 11.5406 12.7842 11.3531C12.5962 11.1977 12.368 11.1154 12.1264 11.1154C11.5491 11.1154 11.0793 11.5954 11.0793 12.1851V13.6114H12.6544C12.9453 13.6114 13.178 13.8491 13.178 14.1463C13.178 14.4434 12.9453 14.6811 12.6544 14.6811H11.0793V16.2903C11.0793 16.4777 11.0479 16.656 10.9898 16.8251H13.876Z" fill="#313235"/>
</svg>
