<svg xmlns="http://www.w3.org/2000/svg" width="24" height="24" fill="none"><path fill="#003" d="M8.248 12.712a3.753 3.753 0 0 1 3.748-3.748 3.753 3.753 0 0 1 3.748 3.748 3.75 3.75 0 0 1-3.748 3.748 3.75 3.75 0 0 1-3.748-3.748Z"/><path fill="#003" d="M17.648 6.288h2.204c1.18 0 2.144.96 2.144 2.144v10c0 1.184-.96 2.144-2.144 2.144H4.14a2.144 2.144 0 0 1-2.144-2.144v-10c0-1.184.96-2.144 2.144-2.144h2.2L8.992 3.64a.69.69 0 0 1 .504-.212h5c.188 0 .372.076.508.212l2.644 2.648ZM7.176 12.716c0 2.66 2.164 4.82 4.82 4.82s4.82-2.16 4.82-4.82-2.164-4.82-4.82-4.82a4.825 4.825 0 0 0-4.82 4.82Z"/></svg>