<svg width="24" height="24" viewBox="0 0 24 24" fill="none" xmlns="http://www.w3.org/2000/svg">
<path fill-rule="evenodd" clip-rule="evenodd" d="M9.39722 4.91333L8.66224 5.34505C8.48679 5.45298 8.42515 5.68847 8.52473 5.8749C8.59585 5.99755 8.71914 6.06623 8.84717 6.06623C8.90881 6.06623 8.9752 6.05151 9.0321 6.01717L9.77656 5.58054V6.4538C9.77656 6.66476 9.94253 6.83647 10.1464 6.83647C10.3503 6.83647 10.5163 6.66476 10.5163 6.4538V5.58054L11.2607 6.01717C11.3224 6.05151 11.384 6.06623 11.4457 6.06623C11.5737 6.06623 11.7017 5.99755 11.7681 5.8749C11.8677 5.68847 11.8061 5.45298 11.6306 5.34996L10.8956 4.91823L11.6306 4.48651C11.8061 4.37858 11.8677 4.14309 11.7681 3.96157C11.6638 3.78005 11.4362 3.71627 11.2607 3.8193L10.5163 4.25593V3.38267C10.5163 3.17171 10.3503 3 10.1464 3C9.94253 3 9.77656 3.17171 9.77656 3.38267V4.25102L9.0321 3.81439C8.85191 3.71137 8.6243 3.77514 8.52473 3.95666C8.42515 4.14309 8.48679 4.37858 8.66224 4.4816L9.39722 4.91333ZM11.6069 10.1186C11.8298 9.98119 12.0858 9.89779 12.3656 9.89779C13.1812 9.89779 13.8498 10.5846 13.845 11.4186V16.0204C13.845 16.2608 13.7881 16.6092 13.6648 16.8446L11.4741 21H4.38513L2.21338 17.2567C2.0569 16.9869 2 16.6386 2 16.4031V12.5715C2 11.7277 2.66385 11.0409 3.47944 11.0409C3.74973 11.0409 4.00104 11.1194 4.21917 11.2518V5.67375C4.21917 4.82993 4.88302 4.14309 5.69861 4.14309C6.5142 4.14309 7.17805 4.82993 7.17805 5.67375V8.56827C7.39618 8.44072 7.64749 8.35732 7.91777 8.35732C8.45834 8.35732 8.92778 8.66639 9.18858 9.11284C9.44464 8.88716 9.77656 8.74489 10.1417 8.74489C10.9051 8.74489 11.5263 9.34832 11.6069 10.1186ZM16.9462 3.95666C16.8466 3.77514 16.619 3.70646 16.4388 3.81439L15.6943 4.25102V3.38267C15.6943 3.17171 15.5284 3 15.3245 3C15.1206 3 14.9546 3.17171 14.9546 3.38267V4.25593L14.2102 3.8193C14.03 3.71627 13.8071 3.78005 13.7028 3.96157C13.6032 4.14309 13.6648 4.37858 13.8403 4.48651L14.5753 4.91823L13.8403 5.34996C13.6648 5.45298 13.5985 5.68847 13.7028 5.8749C13.7692 5.99755 13.8972 6.06623 14.0252 6.06623C14.0869 6.06623 14.1485 6.05151 14.2102 6.01717L14.9546 5.58054V6.4538C14.9546 6.66476 15.1206 6.83647 15.3245 6.83647C15.5284 6.83647 15.6943 6.66476 15.6943 6.4538V5.58054L16.4388 6.01717C16.4957 6.05151 16.5621 6.06623 16.6237 6.06623C16.7518 6.06623 16.875 5.99755 16.9462 5.8749C17.0458 5.69338 16.9841 5.45789 16.8087 5.34996L16.0737 4.91823L16.8087 4.48651C16.9889 4.37367 17.0505 4.13818 16.9462 3.95666ZM21.0763 4.91333L21.8113 5.34505C21.9867 5.45298 22.0531 5.68847 21.9535 5.86999C21.8824 5.99264 21.7591 6.06132 21.6311 6.06132C21.5694 6.06132 21.503 6.04661 21.4461 6.01226L20.7017 5.57563V6.4489C20.7017 6.65985 20.5357 6.83156 20.3318 6.83156C20.1279 6.83156 19.962 6.65985 19.962 6.4489V5.57563L19.2175 6.01226C19.1559 6.04661 19.0942 6.06132 19.0326 6.06132C18.9045 6.06132 18.7765 5.99264 18.7101 5.86999C18.6058 5.68356 18.6722 5.44808 18.8476 5.34505L19.5826 4.91333L18.8429 4.48651C18.6674 4.37858 18.6058 4.14309 18.7054 3.96157C18.8097 3.78005 19.0373 3.71627 19.2128 3.8193L19.9572 4.25593V3.38267C19.9572 3.17171 20.1232 3 20.3271 3C20.531 3 20.6969 3.17171 20.6969 3.38267V4.25102L21.4414 3.81439C21.6216 3.70646 21.8445 3.77024 21.9488 3.95666C22.0531 4.14309 21.9867 4.37858 21.8113 4.4816L21.0763 4.91333Z" fill="#313235"/>
</svg>
