<svg width="24" height="24" fill="none" xmlns="http://www.w3.org/2000/svg"><path fill-rule="evenodd" clip-rule="evenodd" d="m9.397 4.913-.735.432a.403.403 0 0 0-.137.53.373.373 0 0 0 .507.142l.745-.436v.873c0 .21.166.382.37.382.203 0 .37-.171.37-.382V5.58l.744.436a.368.368 0 0 0 .507-.142.396.396 0 0 0-.137-.525l-.735-.432.735-.431a.398.398 0 0 0 .137-.525.37.37 0 0 0-.507-.143l-.745.437v-.873a.377.377 0 0 0-.37-.383.377.377 0 0 0-.37.383v.868l-.744-.437a.368.368 0 0 0-.507.143.396.396 0 0 0 .137.525l.735.431Zm2.21 5.206c.223-.138.479-.221.759-.221.815 0 1.484.687 1.479 1.52v4.602c0 .24-.057.59-.18.825L11.475 21h-7.09l-2.172-3.743A1.819 1.819 0 0 1 2 16.403v-3.831c0-.844.664-1.531 1.48-1.531.27 0 .521.078.74.21V5.675c0-.844.663-1.53 1.479-1.53.815 0 1.479.686 1.479 1.53v2.894c.218-.127.47-.21.74-.21.54 0 1.01.308 1.27.755a1.44 1.44 0 0 1 .954-.368c.763 0 1.384.603 1.465 1.374Zm5.34-6.162a.364.364 0 0 0-.508-.143l-.745.437v-.868a.377.377 0 0 0-.37-.383.377.377 0 0 0-.37.383v.873l-.744-.437a.37.37 0 0 0-.507.143.398.398 0 0 0 .137.525l.735.431-.735.432a.391.391 0 0 0-.137.525.368.368 0 0 0 .507.142l.745-.436v.873c0 .21.166.382.37.382.203 0 .37-.171.37-.382V5.58l.744.436c.057.035.123.05.185.05a.373.373 0 0 0 .322-.192.398.398 0 0 0-.137-.525l-.735-.432.735-.431a.396.396 0 0 0 .137-.53Zm4.13.956.734.432a.4.4 0 0 1 .142.525.373.373 0 0 1-.507.142l-.744-.436v.873c0 .21-.166.383-.37.383a.377.377 0 0 1-.37-.383v-.873l-.744.436a.368.368 0 0 1-.507-.142.391.391 0 0 1 .137-.525l.735-.432-.74-.426a.398.398 0 0 1-.138-.525.37.37 0 0 1 .508-.143l.744.437v-.873c0-.211.166-.383.37-.383s.37.172.37.383v.868l.744-.437a.362.362 0 0 1 .508.143.391.391 0 0 1-.138.525l-.735.431Z" fill="#313235"/></svg>