<svg width="24" height="24" viewBox="0 0 24 24" fill="none" xmlns="http://www.w3.org/2000/svg">
<path d="M22 9.69487C22 7.15485 20.0028 5.08044 17.5573 5.08044C15.1119 5.08044 13.1147 7.15485 13.1147 9.69487V17.3897C13.1147 19.0443 11.6338 20.466 9.96878 20.466C8.3398 20.466 7.007 19.0817 7.007 17.3897V15.465C9.03622 15.0784 10.5171 13.2326 10.5171 11.0418V5.84535H8.85211V2.76907C8.85211 2.34504 8.51991 2 8.11167 2C7.70342 2 7.37122 2.34504 7.37122 2.76907V5.84535H5.14589V2.76907C5.14589 2.34504 4.81369 2 4.40544 2C3.9972 2 3.665 2.34504 3.665 2.76907V5.84535H2V11.0376C2 13.2284 3.48089 15.0784 5.51811 15.4608V17.3856C5.51811 19.9256 7.51531 22 9.96078 22C12.4783 22 14.5916 19.884 14.5916 17.3856V9.69487C14.5916 8.00291 15.9244 6.61858 17.5533 6.61858C19.1823 6.61858 20.5151 8.00291 20.5151 9.69487V17.0031C20.5151 17.4271 20.8473 17.7722 21.2556 17.7722C21.6638 17.7722 21.996 17.4271 21.996 17.0031V9.69487H22Z" fill="#000033"/>
</svg>
