<svg width="24" height="24" fill="none" xmlns="http://www.w3.org/2000/svg"><path fill-rule="evenodd" clip-rule="evenodd" d="M5.009 5.387H17.99C17.9 3.504 16.406 1.995 14.58 2H8.421C6.594 2 5.1 3.504 5.009 5.387ZM14.579 22H8.421c-1.827 0-3.32-1.509-3.412-3.387H17.99C17.9 20.496 16.406 22 14.58 22ZM18 6.457v11.081H5V6.458h13Zm-4.275 8.398c.285 0 .513.238.513.535a.529.529 0 0 1-.513.54h-4.28a.522.522 0 0 1-.512-.536c0-.297.228-.535.513-.535.289 0 .512-.233.512-.534v-1.61h-.17a.522.522 0 0 1-.513-.534c0-.298.228-.535.512-.535h.171v-1.427c0-1.184.924-2.144 2.054-2.144.47 0 .929.17 1.293.476a.553.553 0 0 1 .074.754.5.5 0 0 1-.723.078.988.988 0 0 0-.644-.238c-.565 0-1.024.48-1.024 1.07v1.426h1.541c.285 0 .513.238.513.535a.522.522 0 0 1-.513.535h-1.541v1.609c0 .187-.031.366-.088.535h2.825Z" fill="#003"/></svg>