<svg width="24" height="24" fill="none" xmlns="http://www.w3.org/2000/svg"><path d="M18.594 11.594a2.149 2.149 0 0 0 .906-1.781 2.174 2.174 0 0 0-2.188-2.188 2.174 2.174 0 0 0-2.187 2.188c0 .718.375 1.374.906 1.78-1.093.376-1.843 1.25-1.843 2.282v5h6.25v-5c0-1.031-.75-1.906-1.844-2.281Z" fill="#003"/><path d="M13.563 13.875c0-.938.5-1.781 1.25-2.344-.313-.531-.875-.969-1.532-1.187a2.149 2.149 0 0 0 .907-1.781A2.174 2.174 0 0 0 12 6.375a2.174 2.174 0 0 0-2.187 2.188c0 .718.375 1.375.906 1.78-1.094.376-1.844 1.25-1.844 2.282v5h4.688v-3.75Z" fill="#003"/><path d="M8.25 12.625c0-.938.5-1.781 1.25-2.344-.313-.531-.875-.969-1.531-1.187a2.148 2.148 0 0 0 .906-1.781 2.174 2.174 0 0 0-2.188-2.188A2.174 2.174 0 0 0 4.5 7.313c0 .718.375 1.375.906 1.78-1.093.376-1.843 1.25-1.843 2.282v5H8.25v-3.75Z" fill="#003"/></svg>