<svg width="24" height="24" fill="none" xmlns="http://www.w3.org/2000/svg"><path d="m14.304 4.765.678 1.205-1.089-.3a.676.676 0 0 0-.833.496.703.703 0 0 0 .48.86l2.655.736.027.008a.216.216 0 0 0 .027.008l.636.176.891-3.453a.706.706 0 0 0-.48-.86.68.68 0 0 0-.833.496l-.295 1.144-.69-1.224C14.75 2.768 13.448 2 11.995 2c-1.454 0-2.756.768-3.484 2.06L7.096 6.595a.718.718 0 0 0 .248.96c.326.192.74.08.93-.256l1.41-2.533c.485-.852 1.346-1.364 2.31-1.364.965 0 1.826.512 2.31 1.364Zm-3.922 13.81H6.5c-.972 0-1.836-.517-2.317-1.377a2.74 2.74 0 0 1 .008-2.701l1.45-2.573.294 1.136c.081.313.356.52.655.52a.655.655 0 0 0 .174-.023.703.703 0 0 0 .48-.86l-.89-3.454-3.345.924a.703.703 0 0 0-.48.86.676.676 0 0 0 .833.497l1.096-.304-1.445 2.565a4.203 4.203 0 0 0-.008 4.113c.725 1.305 2.03 2.081 3.495 2.081h3.883a.69.69 0 0 0 .679-.7c0-.384-.303-.704-.679-.704Zm8.394-8.664 2.194 3.882a4.153 4.153 0 0 1 .015 4.097c-.725 1.3-2.03 2.081-3.495 2.081h-1.888l.806.832a.714.714 0 0 1 0 .993.666.666 0 0 1-.96 0l-2.446-2.525 2.445-2.525a.661.661 0 0 1 .961 0 .714.714 0 0 1 0 .992l-.806.833h1.887c.973 0 1.837-.513 2.318-1.377a2.732 2.732 0 0 0-.008-2.697l-2.197-3.878a.713.713 0 0 1 .244-.96.667.667 0 0 1 .93.252Z" fill="#003"/></svg>