<svg width="24" height="24" viewBox="0 0 24 24" fill="none" xmlns="http://www.w3.org/2000/svg">
<path fill-rule="evenodd" clip-rule="evenodd" d="M21.992 17.9916C21.9385 17.5912 21.5819 17.3212 21.2029 17.3771L19.9502 17.568C21.0023 15.9339 21.5685 14.0112 21.5685 12C21.5685 6.48324 17.271 2 11.9928 2C10.5618 2 9.18424 2.32123 7.89589 2.95903C7.54817 3.13128 7.40105 3.56425 7.566 3.92737C7.73094 4.2905 8.14554 4.44413 8.49326 4.27188C9.58992 3.72719 10.7668 3.45251 11.9928 3.45251C16.5042 3.45251 20.1776 7.28864 20.1776 12C20.1776 13.7505 19.6694 15.4218 18.7377 16.8324L18.5237 15.2821C18.4702 14.8818 18.1136 14.6117 17.7346 14.6676C17.3557 14.7235 17.0882 15.0959 17.1462 15.4916L17.6811 19.379L21.4035 18.8203C21.7869 18.7551 22.05 18.3873 21.992 17.9916ZM16.4641 20.0447C16.6291 20.4078 16.4864 20.8408 16.1387 21.0177C14.8414 21.6695 13.4461 22 11.9972 22C6.71453 22 2.4215 17.5121 2.4215 12C2.4215 9.99348 2.99212 8.06145 4.04866 6.42272L2.79597 6.61359C2.41704 6.67412 2.0604 6.39479 2.00691 5.99907C1.95341 5.60335 2.21643 5.23091 2.59536 5.17505L6.31777 4.61639L6.85272 8.50372C6.90622 8.89944 6.6432 9.27188 6.26427 9.32775L6.2524 9.32931C6.22159 9.33339 6.19389 9.33706 6.1662 9.33706C5.82739 9.33706 5.52871 9.07635 5.47967 8.71322L5.25677 7.15363C4.3206 8.5689 3.80793 10.2495 3.80793 11.9953C3.80793 16.7067 7.4813 20.5428 11.9928 20.5428C13.2321 20.5428 14.4224 20.2588 15.5324 19.7048C15.8801 19.5326 16.2947 19.6816 16.4641 20.0447ZM15.8266 14.7235H8.16337V9.26723H15.8266V14.7235ZM8.16337 16.3622C8.16337 17.3631 8.94351 18.1825 9.90643 18.1825H14.088C15.0465 18.1825 15.8311 17.3678 15.8311 16.3622V15.8128H8.16337V16.3622ZM9.90198 5.81285H14.0836C15.042 5.81285 15.8222 6.62756 15.8222 7.63315V8.17784H8.15891V7.63315C8.15891 6.62756 8.94351 5.81285 9.90198 5.81285Z" fill="#000033"/>
</svg>
