<svg xmlns="http://www.w3.org/2000/svg" width="24" height="24" fill="none"><path fill="#003" d="M13.555 4.856C13.555 3.28 14.79 2 16.315 2c.38 0 .69.32.685.718v18.564c0 .393-.31.713-.69.713a.702.702 0 0 1-.688-.713v-8.569h-1.378c-.38 0-.69-.32-.69-.713V4.856Zm-1.038 3.575V3.074a.706.706 0 0 0-.694-.713c-.38 0-.689.32-.689.713v5.357a.704.704 0 0 1-.68.713v-6.07a.702.702 0 0 0-.689-.713c-.38 0-.689.32-.689.713v6.07h-.009a.702.702 0 0 1-.689-.713V3.074a.702.702 0 0 0-.689-.713c-.38 0-.689.32-.689.713v5.357c0 1.183.932 2.143 2.072 2.143h.008v10.713c0 .393.31.713.69.713.38 0 .689-.32.689-.713V10.574c1.135-.01 2.058-.964 2.058-2.143Z"/></svg>