<svg width="24" height="24" fill="none" xmlns="http://www.w3.org/2000/svg"><path fill-rule="evenodd" clip-rule="evenodd" d="M14.994 4.427c0-.251-.035-.498-.101-.75-.275-.822-.934-1.462-1.797-1.64C12.96 2 12.822 2 12.646 2c-.833 0-1.59.43-2.005 1.18l-4.044 7.25c.274-.073.588-.105.898-.105 1.487 0 2.765.891 3.39 2.144l2.282-4.106.518-.964 1.004-1.788c.204-.397.305-.79.305-1.184Zm1.005.43 1.73 1.82c.274.283.447.676.482 1.037v.142c0 .283-.07.535-.173.75-.208.393-.517.717-.933.86a1.441 1.441 0 0 1-.553.104c-.137 0-.279 0-.38-.036a1.629 1.629 0 0 1-.833-.467l-.898-.928 1.142-2.034c.208-.388.345-.818.416-1.248Zm4.667 2.857 1.208 1.321a.62.62 0 0 1-.03.787.44.44 0 0 1-.346.141.554.554 0 0 1-.38-.178l-.898-1.001h-1.107l.009-.035c.064-.272.129-.55.129-.856v-.179h1.415ZM3 22h8.99v-2.144c0-1.001-.796-1.787-1.73-1.787H4.73c-.969 0-1.73.786-1.73 1.787V22Zm14.176-10.395v-1.002c-.208.037-.416.074-.624.074-.137 0-.275 0-.416-.037v1.394l1.177 1.216a.517.517 0 0 0 .38.142.523.523 0 0 0 .38-.142.528.528 0 0 0 0-.75l-.897-.895Zm-6.916 2.642v2.747H4.73v-2.752c0-.247.035-.461.07-.676.138-.567.412-1.07.828-1.427.518-.466 1.142-.75 1.867-.75 1.314 0 2.451.965 2.695 2.286.035.179.07.394.07.572Z" fill="#003"/></svg>