<svg width="24" height="24" viewBox="0 0 24 24" fill="none" xmlns="http://www.w3.org/2000/svg">
<path fill-rule="evenodd" clip-rule="evenodd" d="M14.9944 4.42743C14.9944 4.176 14.959 3.92914 14.8926 3.67771C14.6183 2.85486 13.9591 2.21486 13.0963 2.03657C12.9592 2 12.822 2 12.6451 2C11.8133 2 11.0567 2.42971 10.6408 3.17943L6.59699 10.4297C6.87129 10.3566 7.18542 10.3246 7.49513 10.3246C8.9817 10.3246 10.2603 11.216 10.8842 12.4686L13.1671 8.36343L13.6848 7.39886L14.6891 5.61143C14.8926 5.21371 14.9944 4.82057 14.9944 4.42743ZM15.9987 4.85714L17.7286 6.67657C18.0029 6.96 18.1755 7.35314 18.2109 7.71429V7.856C18.2109 8.13943 18.1401 8.39086 18.0383 8.60571C17.8304 8.99886 17.5207 9.32343 17.1048 9.46514C16.9322 9.53371 16.7597 9.57029 16.5517 9.57029C16.4146 9.57029 16.273 9.57029 16.1713 9.53371C15.8571 9.46057 15.5828 9.31886 15.3395 9.06743L14.4413 8.13943L15.5828 6.10514C15.7908 5.71657 15.9279 5.28686 15.9987 4.85714ZM20.6664 7.71429L21.8742 9.03543C22.0468 9.24571 22.0468 9.60686 21.8433 9.82171C21.7415 9.92686 21.6353 9.96343 21.4982 9.96343C21.361 9.96343 21.2194 9.89029 21.1177 9.78514L20.2195 8.784H19.1134L19.1216 8.74906C19.1855 8.47687 19.2506 8.19943 19.2506 7.89257V7.71429H20.6664ZM3 22H11.9903V19.856C11.9903 18.8549 11.1939 18.0686 10.2603 18.0686H4.72992C3.76099 18.0686 3 18.8549 3 19.856V22ZM17.1756 11.6046V10.6034C16.9676 10.64 16.7597 10.6766 16.5517 10.6766C16.4146 10.6766 16.2774 10.6766 16.1359 10.64V12.0343L17.3127 13.2503C17.4145 13.3554 17.5561 13.392 17.6932 13.392C17.8304 13.392 17.9675 13.3554 18.0737 13.2503C18.2817 13.0354 18.2817 12.7154 18.0737 12.5006L17.1756 11.6046ZM10.2603 14.2469V16.9943H4.72992V14.2423C4.72992 13.9954 4.76531 13.7806 4.8007 13.5657C4.93786 12.9989 5.21217 12.496 5.62806 12.1394C6.1457 11.6731 6.76953 11.3897 7.49513 11.3897C8.80915 11.3897 9.94621 12.3543 10.1895 13.6754C10.2249 13.8537 10.2603 14.0686 10.2603 14.2469Z" fill="#000033"/>
</svg>
