<svg width="24" height="24" viewBox="0 0 24 24" fill="none" xmlns="http://www.w3.org/2000/svg">
<path fill-rule="evenodd" clip-rule="evenodd" d="M20.9737 3.79914L21.8394 2.93332C22.0535 2.71919 22.0535 2.37472 21.8394 2.1606C21.6253 1.94647 21.2809 1.94647 21.0668 2.1606L20.2011 3.02642C19.6193 2.60282 18.9165 2.37007 18.1811 2.37007C17.2595 2.37007 16.3938 2.7285 15.7421 3.38019L9.50524 9.61783L4.61811 8.32375L2.21178 10.7304L5.3023 13.8212L4.57622 14.5474L9.45404 19.4258L10.1801 18.6996L13.2707 21.7905L15.677 19.3839L14.3831 14.4962L20.62 8.25858C21.8348 7.0483 21.9511 5.14907 20.9737 3.79914ZM2.93321 18.2062C2.82616 18.3133 2.68653 18.3645 2.54689 18.3645C2.40726 18.3645 2.26763 18.3133 2.16058 18.2016C1.94647 17.9874 1.94647 17.643 2.16058 17.4288L3.61275 15.9765C3.82686 15.7624 4.17128 15.7624 4.38539 15.9765C4.59949 16.1906 4.59949 16.5351 4.38539 16.7492L2.93321 18.2062ZM2.93321 21.8417L6.20526 18.5693C6.41936 18.3552 6.41936 18.0107 6.20526 17.7966C5.99116 17.5825 5.64673 17.5825 5.43263 17.7966L2.16058 21.069C1.94647 21.2831 1.94647 21.6276 2.16058 21.8417C2.26763 21.9488 2.40726 22 2.54689 22C2.68653 22 2.82616 21.9488 2.93321 21.8417ZM7.2525 19.6167L5.80033 21.069C5.58622 21.2831 5.58622 21.6276 5.80033 21.8417C5.90738 21.9488 6.04701 22 6.18664 22C6.32627 22 6.46591 21.9488 6.57296 21.8417L8.02513 20.3894C8.23924 20.1753 8.23924 19.8308 8.02513 19.6167C7.81103 19.4025 7.46195 19.4025 7.2525 19.6167ZM18.9071 7.09019C18.9071 5.98697 18.0088 5.08856 16.9057 5.08856C15.8027 5.08856 14.9044 5.98697 14.9044 7.09019C14.9044 8.19341 15.8027 9.09182 16.9057 9.09182C18.0088 9.09182 18.9071 8.19341 18.9071 7.09019ZM16.0028 7.09019C16.0028 6.59211 16.4077 6.18247 16.9104 6.18247C17.4084 6.18247 17.818 6.59211 17.818 7.09019C17.818 7.58827 17.4084 7.99791 16.9104 7.99791C16.4124 7.99791 16.0028 7.58827 16.0028 7.09019Z" fill="#000033"/>
</svg>
