<svg width="24" height="24" viewBox="0 0 24 24" fill="none" xmlns="http://www.w3.org/2000/svg">
<path fill-rule="evenodd" clip-rule="evenodd" d="M12 2C6.46527 2 2 6.46527 2 12C2 17.5347 6.46527 22 12 22C17.5347 22 22 17.5347 22 12C22 6.46527 17.5347 2 12 2ZM10.9305 15.7477C10.9305 16.0311 10.6792 16.2824 10.3958 16.2824C10.1124 16.2824 9.86106 16.0311 9.86106 15.7477V14.8885L7.21938 17.5302C7.11426 17.6353 6.96801 17.6718 6.82633 17.6718C6.68464 17.6718 6.54296 17.6353 6.43327 17.5302C6.21846 17.3154 6.21846 16.9954 6.43327 16.7806L9.07495 14.1389H8.21572C7.93236 14.1389 7.68099 13.8876 7.68099 13.6042C7.68099 13.3208 7.93236 13.0695 8.21572 13.0695H10.9305V15.7477ZM10.3912 10.926C10.5329 10.926 10.6792 10.8894 10.7843 10.7843C10.9625 10.574 10.9625 10.213 10.7477 9.99817L8.10603 7.35649H8.96527C9.24863 7.35649 9.5 7.10512 9.5 6.82175C9.5 6.53839 9.24863 6.28702 8.96527 6.28702H6.28702V8.96527C6.28702 9.24863 6.53839 9.5 6.82175 9.5C7.10512 9.5 7.35649 9.24863 7.35649 8.96527V8.10603L9.99817 10.7843C10.1079 10.8894 10.2495 10.926 10.3912 10.926ZM17.713 17.713H15.0347C14.7514 17.713 14.5 17.4616 14.5 17.1782C14.5 16.8949 14.7514 16.6435 15.0347 16.6435H15.894L13.2523 14.0018C13.0375 13.787 13.0375 13.4671 13.2523 13.2523C13.4671 13.0375 13.787 13.0375 14.0018 13.2523L16.6435 15.894V15.0347C16.6435 14.7514 16.8949 14.5 17.1782 14.5C17.4616 14.5 17.713 14.7514 17.713 15.0347V17.713ZM14.8931 9.85649L17.5713 7.21481C17.7495 7 17.7495 6.64351 17.5302 6.46984C17.3154 6.25503 16.9954 6.25503 16.7806 6.46984L14.1389 9.11152V8.25229C14.1389 7.96892 13.8876 7.71755 13.6042 7.71755C13.3208 7.71755 13.0695 7.96892 13.0695 8.25229V10.926H15.7477C16.0311 10.926 16.2824 10.6746 16.2824 10.3912C16.2824 10.1079 16.0311 9.85649 15.7477 9.85649H14.8931Z" fill="#000033"/>
</svg>
