<svg width="24" height="24" viewBox="0 0 24 24" fill="none" xmlns="http://www.w3.org/2000/svg">
<path d="M18.0432 17.3531H8.53731L7.90518 14.8531H19.3115L22 4.1388H5.20864L5.07261 3.60714C4.83257 2.66153 3.9924 2 3.02821 2H2.70414C2.31606 2 2 2.31656 2 2.71023C2 3.1039 2.31606 3.42451 2.70414 3.42451H3.02821C3.34827 3.42451 3.63233 3.64367 3.71234 3.96429L7.10902 17.4586C6.16083 17.7468 5.46869 18.6315 5.47269 19.6786C5.47269 20.957 6.5089 22 7.78516 22C9.06541 22 10.0976 20.961 10.0976 19.6786C10.0976 19.358 10.0336 19.0617 9.91758 18.7857H15.9028C15.7908 19.0617 15.7227 19.362 15.7227 19.6786C15.7227 20.957 16.759 22 18.0352 22C19.3155 22 20.3477 20.961 20.3477 19.6786C20.3557 18.392 19.3195 17.3531 18.0432 17.3531Z" fill="#000033"/>
</svg>
