<svg width="24" height="24" viewBox="0 0 24 24" fill="none" xmlns="http://www.w3.org/2000/svg">
<path fill-rule="evenodd" clip-rule="evenodd" d="M5.92775 4H18.0722C20.2396 4 22.0046 5.82633 22 8.06429V13.9786C22 16.2165 20.2396 18.0429 18.0722 18.0429H8.93186L6.17924 20.8912C6.11065 20.9621 6.0192 21 5.92775 21C5.88203 21 5.8363 20.9905 5.79058 20.9716C5.65798 20.9148 5.5711 20.7824 5.5711 20.6309V18.0239C3.57293 17.8394 2 16.0935 2 13.9786V8.06429C2 5.82633 3.7604 4 5.92775 4ZM6.61362 13.2452C6.88797 13.3682 7.18061 13.425 7.51897 13.425C8.43347 13.425 9.06904 12.8099 9.06904 11.9157C9.06904 10.9702 8.30211 10.6198 7.79455 10.388L7.79332 10.3874C7.3315 10.1792 7.3315 10.061 7.3315 9.98525C7.3315 9.72975 7.7796 9.72029 7.8299 9.72029C7.86648 9.72029 8.05852 9.72502 8.24599 9.77707C8.52949 9.8575 8.8267 9.68244 8.90443 9.38909C8.98216 9.09574 8.81298 8.7882 8.52949 8.70777C8.2277 8.6226 7.93964 8.61314 7.8299 8.61314C6.90169 8.61314 6.25697 9.18091 6.25697 9.98998C6.25697 10.9079 7.05715 11.2722 7.35893 11.4094C7.96707 11.6886 7.99908 11.7879 7.99908 11.9251C7.99908 12.0198 7.99908 12.3131 7.51897 12.3131C7.32693 12.3131 7.17146 12.2847 7.03429 12.2232C6.75994 12.1049 6.44444 12.2327 6.33013 12.5166C6.21582 12.8004 6.33927 13.1269 6.61362 13.2452ZM14.3228 12.8714C14.3228 13.179 14.085 13.425 13.7878 13.425C13.4906 13.425 13.2528 13.179 13.2528 12.8714V11.523L12.4801 13.1175C12.3887 13.3067 12.2058 13.425 12 13.425C11.7942 13.425 11.6113 13.3067 11.5199 13.1175L10.7471 11.523V12.8714C10.7471 13.179 10.5094 13.425 10.2122 13.425C9.91494 13.425 9.67718 13.179 9.67718 12.8714V9.17618C9.67718 8.92068 9.84636 8.69357 10.0887 8.63679C10.331 8.58002 10.578 8.6983 10.6923 8.93014L12 11.6365L13.3077 8.93014C13.4175 8.6983 13.6689 8.58002 13.9113 8.63679C14.1536 8.6983 14.3228 8.92068 14.3228 9.17618V12.8714ZM15.2739 13.2452C15.5482 13.3682 15.8409 13.425 16.1792 13.425C17.0937 13.425 17.7339 12.8099 17.7293 11.9157C17.7293 10.9702 16.9624 10.6198 16.4548 10.388L16.4536 10.3874C15.9918 10.1792 15.9918 10.061 15.9918 9.98525C15.9918 9.72975 16.4399 9.72029 16.4902 9.72029C16.5267 9.72029 16.7188 9.72502 16.9063 9.77707C17.1897 9.8575 17.487 9.68244 17.5647 9.38909C17.6424 9.09574 17.4732 8.7882 17.1897 8.70777C16.888 8.6226 16.5999 8.61314 16.4902 8.61314C15.5619 8.61314 14.9172 9.18091 14.9172 9.98998C14.9172 10.9079 15.7174 11.2722 16.0192 11.4094C16.6273 11.6886 16.6593 11.7879 16.6593 11.9251C16.6593 12.0198 16.6593 12.3131 16.1792 12.3131C15.9872 12.3131 15.8317 12.2847 15.6945 12.2232C15.4202 12.1049 15.1047 12.2327 14.9904 12.5166C14.8761 12.8004 14.9995 13.1269 15.2739 13.2452Z" fill="#000033"/>
</svg>
