<svg width="24" height="24" viewBox="0 0 24 24" fill="none" xmlns="http://www.w3.org/2000/svg">
<path fill-rule="evenodd" clip-rule="evenodd" d="M21.8399 4.50683L19.2707 7.0764C19.1674 7.17975 19.0265 7.23612 18.8809 7.23612H16.5418L10.0976 13.6859C9.98952 13.7939 9.84862 13.8456 9.70771 13.8456C9.5668 13.8456 9.42589 13.7939 9.31786 13.6859C9.1018 13.4698 9.1018 13.1222 9.31786 12.9061L15.7621 6.46102V4.12163C15.7621 3.976 15.8184 3.83508 15.9218 3.73173L18.491 1.16216C18.6507 1.00244 18.8856 0.955466 19.0922 1.04472C19.2989 1.12928 19.4304 1.33127 19.4304 1.55206V3.57201H21.4501C21.6709 3.57201 21.8728 3.70824 21.9574 3.91024C22.0419 4.11223 21.9996 4.35181 21.8399 4.50683ZM17.4154 13.2913C17.4154 11.6988 16.9269 10.2144 16.0956 8.98361L13.6813 11.3982C13.9538 11.9713 14.1135 12.6148 14.1135 13.2913C14.1135 15.7199 12.136 17.6976 9.70771 17.6976C7.27938 17.6976 5.30196 15.7199 5.30196 13.2913C5.30196 10.8626 7.27938 8.88497 9.70771 8.88497C10.3841 8.88497 11.0276 9.03999 11.6006 9.31714L14.0148 6.90259C12.7842 6.07112 11.3047 5.58257 9.70771 5.58257C5.45696 5.58257 2 9.03999 2 13.2913C2 17.5426 5.45696 21 9.70771 21C13.9585 21 17.4154 17.5426 17.4154 13.2913ZM8.66968 14.3294C8.95619 14.616 9.33195 14.7616 9.70771 14.7616C10.0835 14.7616 10.4592 14.6207 10.7457 14.3341L12.8359 12.239C12.9486 12.5679 13.0097 12.9249 13.0097 13.2913C13.0097 15.1139 11.5301 16.5937 9.70771 16.5937C7.88529 16.5937 6.40575 15.1139 6.40575 13.2913C6.40575 11.4686 7.88529 9.98889 9.70771 9.98889C10.0741 9.98889 10.431 10.05 10.7598 10.1627L8.66968 12.2531C8.09665 12.8262 8.09665 13.7563 8.66968 14.3294ZM18.8809 4.67124H20.1209L18.6554 6.13689H16.8659V4.34711L18.3313 2.88147V4.12163C18.3313 4.42697 18.5756 4.67124 18.8809 4.67124Z" fill="#000033"/>
</svg>
