<svg width="24" height="24" viewBox="0 0 24 24" fill="none" xmlns="http://www.w3.org/2000/svg">
<path d="M21.4832 6.98934L21.0903 5.93513L16.0592 11.2062C15.8066 11.4708 15.3897 11.4708 15.1331 11.2062L13.2088 9.19018C13.0846 9.05998 13.0164 8.89197 13.0164 8.70717C13.0164 8.52657 13.0846 8.35017 13.2088 8.22416L18.24 2.95308L17.2338 2.54147C14.4556 1.40325 11.2966 2.09207 9.18793 4.3013C7.1875 6.39713 6.49396 9.47158 7.35186 12.2688L2 17.8801L6.80264 23L12.1986 17.3467C14.8645 18.2455 17.807 17.5189 19.8035 15.4231C21.9121 13.2096 22.5696 9.90419 21.4832 6.98934Z" fill="#000033"/>
</svg>
