<svg xmlns="http://www.w3.org/2000/svg" width="24" height="24" fill="none"><path fill="#003" d="M18.673 5.393C18.571 3.5 17.026 2 15.166 2H8.85c-1.86 0-3.405 1.5-3.507 3.393zM12.531 21.996h2.635c1.86 0 3.405-1.5 3.507-3.393h-6.142z"/><path fill="#003" d="M5.34 17.535V6.465h13.333v11.07h-6.142V9.357l1.888 1.929c.11.108.247.144.389.144a.527.527 0 0 0 .39-.144.524.524 0 0 0 0-.752l-3.193-3.18-3.158 3.18a.524.524 0 0 0 0 .752.503.503 0 0 0 .74 0l1.895-1.929V22H8.847c-1.895 0-3.401-1.5-3.507-3.393H9.9c.28 0 .528-.252.528-.536a.548.548 0 0 0-.527-.536z"/></svg>