<svg width="24" height="24" fill="none" xmlns="http://www.w3.org/2000/svg"><path d="M19 9.638V22h-1.398a.1.1 0 0 1-.014-.023l-2.834-2.89A1.804 1.804 0 0 0 16.5 17.27v-.465a1.067 1.067 0 0 1-.713.284 1.08 1.08 0 0 1-1.07-1.09c0-.6.48-1.089 1.07-1.089.274 0 .526.107.713.284V13.46h-10v1.736c.192-.172.439-.284.713-.284.59 0 1.07.489 1.07 1.09 0 .6-.48 1.089-1.07 1.089-.274 0-.526-.107-.713-.284v.465c0 .987.782 1.792 1.746 1.815l-2.843 2.89L5.39 22H4V9.638C4 5.426 7.364 2 11.5 2S19 5.426 19 9.638Zm-5.759 9.453L16.093 22H6.898l2.86-2.909h3.483ZM16.5 8.911c0-1-.8-1.82-1.787-1.82H8.287c-.983 0-1.787.815-1.787 1.82v3.454h10V8.912Z" fill="#003"/></svg>