<svg width="24" height="24" fill="none" xmlns="http://www.w3.org/2000/svg"><path d="M15.332 4.124h5.922a.749.749 0 0 1 .004 1.5h-1.48v14.625c0 1.239-1 2.251-2.223 2.251H6.445c-1.223 0-2.222-1.012-2.222-2.25V5.627h-1.48A.746.746 0 0 1 2 4.876c0-.416.336-.752.742-.752h5.922v-.373c0-1.239 1-2.251 2.223-2.251h2.222c1.224 0 2.223 1.012 2.223 2.25v.374ZM9.406 19.31a.576.576 0 0 0 .556-.563V7.874a.576.576 0 0 0-.556-.562.576.576 0 0 0-.555.562v10.872c0 .298.26.563.555.563Zm.738-15.185h3.707v-.373a.749.749 0 0 0-.742-.752h-2.222c-.41 0-.743.34-.743.752v.373ZM14.59 19.31a.576.576 0 0 0 .555-.563V7.874a.576.576 0 0 0-.555-.562.576.576 0 0 0-.556.562v10.872c0 .298.261.563.556.563Z" fill="#003"/></svg>