<svg width="24" height="24" fill="none" xmlns="http://www.w3.org/2000/svg"><path d="M8.072 2.351H2v7.32h3.216a.536.536 0 0 1 0 1.072H2v2.5h6.428a.536.536 0 0 1 0 1.072H2v5.536h9.284V5.567a3.228 3.228 0 0 0-3.212-3.216ZM15.152 5.923h-2.796v13.928h1.428a1.285 1.285 0 0 1-.004-.233c.002-.04.004-.081.004-.123A3.221 3.221 0 0 1 17 16.279a3.221 3.221 0 0 1 3.216 3.216c0 .124-.012.252-.024.372H22v-7.136l-6.848-6.808Z" fill="#003"/><path d="M19.144 19.495a2.144 2.144 0 1 0-4.288 0 2.144 2.144 0 0 0 4.288 0Z" fill="#003"/></svg>