<svg width="24" height="24" viewBox="0 0 24 24" fill="none" xmlns="http://www.w3.org/2000/svg">
<path fill-rule="evenodd" clip-rule="evenodd" d="M8.072 2.356H2V9.676H5.216C5.512 9.676 5.752 9.916 5.752 10.212C5.752 10.508 5.512 10.748 5.216 10.748H2V13.248H8.428C8.724 13.248 8.964 13.488 8.964 13.784C8.964 14.08 8.724 14.32 8.428 14.32H2V19.856H11.284V5.572C11.284 3.808 9.836 2.356 8.072 2.356ZM15.152 5.928H12.356V19.856H13.784C13.7734 19.7766 13.7768 19.7007 13.7804 19.6225L13.7804 19.6224C13.7822 19.5825 13.784 19.5419 13.784 19.5C13.784 17.728 15.228 16.284 17 16.284C18.772 16.284 20.216 17.728 20.216 19.5C20.216 19.624 20.204 19.752 20.192 19.872H22V12.736L15.152 5.928ZM19.144 19.5C19.144 18.316 18.184 17.356 17 17.356C15.816 17.356 14.856 18.316 14.856 19.5C14.856 20.684 15.816 21.644 17 21.644C18.184 21.644 19.144 20.684 19.144 19.5Z" fill="#000033"/>
</svg>
