<svg width="24" height="24" fill="none" xmlns="http://www.w3.org/2000/svg"><path fill-rule="evenodd" clip-rule="evenodd" d="M12.365 2C7.025 2 2.72 6.512 2.72 12.112c0 1.515.296 2.917.888 4.197l-1.593 6.225a.38.38 0 0 0 .076.349c.076.08.148.117.26.117h.076l5.928-1.67a9.195 9.195 0 0 0 4.003.894c5.34 0 9.643-4.513 9.643-10.112C22 6.512 17.705 2 12.365 2Zm0 15.829c-.372 0-.668-.31-.668-.701 0-.39.296-.701.668-.701.373 0 .669.31.669.7-.004.391-.3.702-.669.702Zm1.517-5.638 1.077-1.129c.929-.973.817-2.724.112-3.69a3.08 3.08 0 0 0-2.486-1.284h-.184c-1.036 0-2.037.626-2.557 1.558-.189.272-.077.62.184.776.26.197.592.08.74-.193.332-.625.925-.974 1.593-.974h.184c.633 0 1.261.31 1.633.857.409.541.48 1.632 0 2.136l-1.076 1.13c-.853.855-1.297 2.022-1.297 3.265 0 .31.26.583.556.583.296 0 .557-.273.557-.583a3.5 3.5 0 0 1 .964-2.452Z" fill="#003"/></svg>