<svg width="24" height="24" fill="none" xmlns="http://www.w3.org/2000/svg"><path d="M12.365 2C7.025 2 2.72 6.512 2.72 12.112c0 1.515.296 2.917.888 4.197l-1.593 6.225a.38.38 0 0 0 .076.349c.076.08.148.117.26.117h.076l5.928-1.67a9.195 9.195 0 0 0 4.003.894c5.34 0 9.643-4.513 9.643-10.112C22 6.512 17.705 2 12.365 2Zm0 15.829c-.372 0-.668-.31-.668-.701 0-.39.296-.701.668-.701.373 0 .669.31.669.7-.004.391-.3.702-.669.702Zm1.517-5.638a3.5 3.5 0 0 0-.964 2.452c0 .31-.26.583-.557.583-.296 0-.556-.273-.556-.583 0-1.243.444-2.41 1.297-3.266l1.076-1.129c.48-.504.409-1.595 0-2.136a1.99 1.99 0 0 0-1.633-.857h-.184c-.668 0-1.26.349-1.593.974-.148.273-.48.39-.74.193-.26-.155-.373-.504-.184-.776.52-.932 1.52-1.558 2.557-1.558h.184c.965 0 1.89.466 2.486 1.285.705.965.817 2.715-.112 3.69l-1.077 1.128Z" fill="#003"/></svg>