<svg width="24" height="24" fill="none" xmlns="http://www.w3.org/2000/svg"><path d="M6.246 17.713a5.85 5.85 0 0 0 4.187 1.787c1.567 0 3.067-.644 4.179-1.75l.035-.037c1.116-1.143 1.71-2.642 1.71-4.25 0-2.002-1.393-4.324-2.509-6.18l-2.826-4.927A.674.674 0 0 0 10.43 2c-.246 0-.456.142-.594.356 0 0-2.58 4.534-2.826 4.927C5.893 9.107 4.5 11.424 4.5 13.426c0 1.645.63 3.144 1.746 4.287Zm11.339 0h1.393a.545.545 0 0 0 .522-.535.545.545 0 0 0-.522-.535h-1.393a.545.545 0 0 0-.523.535c0 .284.246.535.523.535Zm-.281 2.751a.53.53 0 0 1-.384-.141l-.942-.965a.525.525 0 0 1 0-.75.496.496 0 0 1 .732 0l.942.965c.21.215.21.535 0 .75-.072.105-.21.141-.348.141Zm-3.384 1.001c0 .284.245.535.522.535a.542.542 0 0 0 .522-.54v-1.42a.544.544 0 0 0-.522-.535.545.545 0 0 0-.522.534v1.426Z" fill="#003"/></svg>