<svg width="24" height="24" fill="none" xmlns="http://www.w3.org/2000/svg"><path d="m11.548 18.205-1.943 3.518a.533.533 0 0 1-.463.277c-.023 0-.045 0-.064-.005a.543.543 0 0 1-.449-.396l-.921-3.427-3.024.923a.526.526 0 0 1-.567-.18.545.545 0 0 1-.05-.6l1.607-2.942c1.47 1.642 3.55 2.712 5.874 2.832Zm6.722-2.822a8.453 8.453 0 0 1-5.969 2.822l2.057 3.528a.528.528 0 0 0 .458.262c.023 0 .045 0 .073-.004a.528.528 0 0 0 .44-.392l.921-3.431 3.07.922c.208.06.435-.01.567-.184a.544.544 0 0 0 .04-.604l-1.657-2.92Zm1.158-5.816c0 4.178-3.336 7.568-7.449 7.568-4.113 0-7.449-3.39-7.449-7.568C4.53 5.39 7.866 2 11.98 2c4.112 0 7.448 3.39 7.448 7.567Zm-2.129.36c0-.3-.236-.54-.531-.54-2.388 0-4.258-1.978-4.258-4.505 0-.3-.236-.54-.53-.54a.533.533 0 0 0-.532.54c0 2.527-1.87 4.506-4.258 4.506a.533.533 0 0 0-.531.54c0 .299.236.539.531.539 2.506 0 4.258 1.701 4.258 4.14 0 .3.236.54.531.54.295 0 .531-.24.531-.54 0-2.439 1.752-4.14 4.258-4.14.29 0 .531-.24.531-.54ZM11.98 7.36A5.358 5.358 0 0 1 9.587 9.89a4.913 4.913 0 0 1 2.392 2.329 4.912 4.912 0 0 1 2.392-2.329A5.358 5.358 0 0 1 11.98 7.36Z" fill="#313235"/></svg>