<svg width="24" height="24" viewBox="0 0 24 24" fill="none" xmlns="http://www.w3.org/2000/svg">
<path d="M16.9817 16.9218C16.9909 16.8981 16.9954 16.8743 16.9954 16.8459C16.9954 16.8364 17 16.8222 17 16.8127C17 16.7985 16.9954 16.789 16.9909 16.7748C16.9909 16.7605 16.9954 16.7463 16.9909 16.7368L15.3867 8.96064C15.1399 7.77525 14.3583 6.82693 13.3437 6.37174C13.9333 5.93551 14.3218 5.21954 14.3218 4.40872C14.3218 3.08108 13.2843 2 12 2C10.7203 2 9.67825 3.08108 9.67825 4.40872C9.67825 5.21954 10.0667 5.93551 10.6609 6.37174C9.65082 6.82693 8.86015 7.77999 8.61792 8.96064L7.00914 16.7416C7.00457 16.7558 7.00914 16.7653 7.00914 16.7795C7.00914 16.7937 7 16.8032 7 16.8174C7 16.8317 7.00457 16.8412 7.00457 16.8506C7.00914 16.8743 7.01371 16.8981 7.01828 16.9218C7.02285 16.9455 7.03199 16.9644 7.04113 16.9834C7.05027 17.0024 7.06399 17.0213 7.0777 17.0403C7.09141 17.0593 7.10512 17.0735 7.1234 17.0925C7.14168 17.1067 7.15996 17.1209 7.17824 17.1304C7.2011 17.1446 7.21938 17.1541 7.24223 17.1588C7.25137 17.1636 7.26051 17.1683 7.27422 17.1731C7.28793 17.1778 7.30165 17.1731 7.31079 17.1731C7.3245 17.1731 7.33364 17.1826 7.34735 17.1826H9.49086V22H14.4863V17.1873H16.6252C16.6481 17.1873 16.6755 17.1826 16.6984 17.1778C16.7121 17.1731 16.7166 17.1683 16.7303 17.1636C16.7532 17.1541 16.7761 17.1446 16.7943 17.1351C16.8126 17.1257 16.8309 17.1114 16.8492 17.0972C16.8675 17.083 16.8812 17.064 16.8949 17.045C16.9086 17.0261 16.9223 17.0071 16.9314 16.9881C16.968 16.9692 16.9771 16.9455 16.9817 16.9218Z" fill="#000033"/>
</svg>
