<svg width="24" height="24" viewBox="0 0 24 24" xmlns="http://www.w3.org/2000/svg"><path d="M20.293 6.619l-1.474.89c-2.484-2.71-5.016-3.635-6.946-3.868 1.504-.456 2.94-.526 4.294-.196 1.53.376 2.944 1.272 4.21 2.664.064.07.095.171.087.258a.352.352 0 01-.171.252zM9.735 4.854c1.432-.196 4.745-.16 8.014 3.3l-4.49 2.709c.003 0-3.524-6.009-3.524-6.009zm-1.51 9.048c-1.596-4.022-.31-7.006.507-8.328l3.474 5.925c.003 0-3.98 2.403-3.98 2.403zm-2.896 1.75c-.078.048-.123.09-.31.037a.34.34 0 01-.22-.193c-.71-1.723-.898-3.356-.551-4.86C4.595 9.09 5.5 7.683 6.926 6.437c-.74 1.846-1.205 4.658.232 8.11L5.33 15.652zm15.972-10.35c-1.428-1.574-3.056-2.596-4.835-3.033-2.336-.572-4.848-.132-7.487 1.291l-.314-.538a.627.627 0 00-.846-.224.598.598 0 00-.238.81l.009.014.33.563C5.225 5.89 3.578 7.972 3.04 10.37c-.403 1.742-.198 3.619.611 5.574.168.412.521.734.99.894.173.05.335.075.49.075.288 0 .587-.081.845-.232l6.849-4.135 5.196 8.86a.626.626 0 00.846.224.596.596 0 00.24-.81l-.008-.016-5.22-8.89 7.07-4.267c.403-.246.674-.647.744-1.123.05-.446-.09-.891-.392-1.221z" fill="#313235" fill-rule="nonzero"/></svg>