<svg width="24" height="24" viewBox="0 0 24 24" xmlns="http://www.w3.org/2000/svg"><path d="M18.84 2.853a2.839 2.839 0 012.843 2.83v9.649c0 1.56-1.274 2.83-2.843 2.83H8.297l-2.202 2.817c-.341.454-.74.454-.868.454-.546 0-1.028-.465-1.028-.995v-2.336c-1.263-.257-2.188-1.384-2.188-2.773V5.682c0-1.56 1.278-2.83 2.846-2.83H18.84zm-.002 1.12H4.854c-.95 0-1.722.768-1.722 1.71v9.649c0 .975.7 1.709 1.627 1.709.308 0 .56.252.56.56v2.552l2.264-2.894a.566.566 0 01.442-.216h10.813c.95 0 1.722-.767 1.722-1.708V5.682c0-.944-.773-1.709-1.722-1.709zm-4.852 8.185c.308 0 .56.252.56.56 0 .309-.252.56-.56.56h-8.11a.562.562 0 01-.56-.56c0-.308.253-.56.56-.56h8.11zm3.824-4.37c.308 0 .56.253.56.56 0 .309-.252.561-.56.561H5.877a.562.562 0 01-.56-.56c0-.308.252-.56.56-.56H17.81z" fill="#313235" fill-rule="nonzero"/></svg>