<svg width="24" height="24" viewBox="0 0 24 24" xmlns="http://www.w3.org/2000/svg"><path d="M16.417 16.975l-1.846.008v-1.131h1.443c.33 0 .627-.208.756-.516a.878.878 0 00-.168-.921l-4.117-4.381a.837.837 0 00-1.177 0l-4.221 4.465a.878.878 0 00-.168.921.817.817 0 00.764.516h1.443v1.072l-2.779.017c-.944 0-3.134-.308-3.134-3.215 0-1.63.678-2.65 2.014-3.043a.637.637 0 00.442-.616l-.008-.1c0-4.762 4.028-5.127 5.263-5.127.7 0 4.238.157 5.076 3.373a.605.605 0 00.563.465c1.176.034 3.916.498 3.916 4.09-.003 3.823-3.104 4.123-4.062 4.123zm-3.064 2.683H10.33v-4.112a.84.84 0 00-.83-.849l-.91-.008 3.305-3.49 3.2 3.406h-.903c-.45 0-.82.375-.829.849l-.011 4.204zm3.675-12.117c-1.24-3.673-5.277-3.863-6.11-3.863-1.055 0-6.277.291-6.461 6.042C3.384 10.16 2 11.224 2 13.807c0 3.288 2.24 4.462 4.345 4.462l2.778-.017v1.804c0 .465.362.846.821.846h3.795c.451 0 .821-.381.821-.846v-1.83l1.855-.008c2.434 0 5.268-1.403 5.268-5.366.003-3.597-2.324-5.085-4.655-5.311z" fill="#313235" fill-rule="nonzero"/></svg>