<svg width="24" height="24" viewBox="0 0 24 24" xmlns="http://www.w3.org/2000/svg"><path d="M11.034 17.084c-.446 1-1.115 1.678-1.745 1.77-.454.065-.93-.165-1.401-.692l-.168-.187-.26-.023c-.723-.061-1.194-.29-1.401-.686-.286-.546-.093-1.46.507-2.384.742-1.157 3.196-2.453 4.462-3.01.258 1.302.569 3.963.006 5.212m-5.886-6.445c-1.047-.423-1.759-1.062-1.857-1.664-.07-.434.174-.883.723-1.33l.199-.163.022-.247c.065-.689.308-1.137.72-1.333.174-.084.387-.126.622-.126.538 0 1.205.21 1.88.608 1.212.706 2.574 3.045 3.156 4.252-1.364.244-4.154.538-5.465.003m6.76-5.608c.445-1 1.114-1.678 1.745-1.773.05-.006.103-.012.154-.012.409 0 .826.236 1.243.704l.168.187.261.023c.723.061 1.193.294 1.4.686.286.546.093 1.46-.506 2.386-.74 1.157-3.194 2.454-4.46 3.012-.255-1.306-.566-3.964-.005-5.213m5.885 6.442c1.047.423 1.762 1.062 1.857 1.664.07.437-.174.885-.726 1.334l-.199.16-.025.249c-.064.686-.305 1.134-.72 1.333-.568.272-1.529.09-2.501-.485-1.213-.706-2.574-3.045-3.157-4.255 1.373-.238 4.163-.535 5.47 0m-2.263 8.132c1.684 1.35 3.566 2.11 5.213 2.11.076 0 .152-.004.224-.006a.91.91 0 00.443-.143.59.59 0 00.185-.815c-.009-.012-.014-.023-.023-.034a.666.666 0 00-.756-.224c-1.333.04-2.977-.63-4.462-1.824l-.07-.053a10.474 10.474 0 01-2.123-2.325c.215.188.431.353.652.482.885.521 1.765.787 2.544.787.437 0 .843-.084 1.201-.255.541-.257 1.205-.826 1.393-2.07.955-.868 1.058-1.711.966-2.28-.168-1.047-1.123-1.997-2.622-2.602-.846-.345-2.053-.423-3.235-.384.991-.619 1.93-1.35 2.406-2.095.854-1.32 1.059-2.622.56-3.569-.271-.515-.865-1.148-2.173-1.327-.908-.916-1.796-1.014-2.393-.925-1.098.163-2.092 1.073-2.728 2.499-.361.804-.442 1.955-.4 3.084-.653-.944-1.415-1.84-2.2-2.294-1.386-.813-2.75-1.009-3.744-.532-.541.26-1.205.826-1.393 2.07-.958.868-1.058 1.711-.966 2.28.168 1.047 1.126 1.997 2.62 2.602.713.291 1.69.395 2.694.395.179 0 .361-.006.543-.011-.991.622-1.933 1.353-2.409 2.098-.854 1.319-1.056 2.622-.557 3.568.271.516.868 1.149 2.173 1.325.746.748 1.474.947 2.042.947.127 0 .241-.008.35-.025 1.099-.163 2.096-1.073 2.729-2.499.182-.403.291-.899.353-1.428a11.723 11.723 0 002.899 3.417" fill="#313235" fill-rule="nonzero"/></svg>