<svg width="24" height="24" viewBox="0 0 24 24" xmlns="http://www.w3.org/2000/svg"><path d="M20.403 11.356c0 .213-.14.372-.185.386h-7.79v-3.7l7.762-.003c.062.023.213.196.213.39v2.927zm-1.476 9.084h-6.496v-7.454h6.681v7.067c-.003.213-.143.373-.185.387zm-14.412-.387v-7.067h6.633v7.454H4.714c-.059-.017-.199-.174-.199-.387zM3.283 8.426c0-.194.148-.367.185-.387h7.683v3.7H3.48c-.059-.022-.193-.176-.193-.386V8.426h-.003zm3.613-4.367c.362-.54.785-.81 1.264-.81.31 0 .65.115 1.008.342.728.46 1.47 2.05 1.83 3.059-1.088.087-2.9.075-3.62-.381-.456-.289-.73-.622-.81-.986-.08-.37.031-.782.328-1.224zm7.563-.47c.914-.578 1.678-.42 2.272.467.297.445.409.854.328 1.221-.079.364-.353.698-.81.986-.722.457-2.535.468-3.622.381.362-1.005 1.104-2.594 1.832-3.056zm5.762 3.207h-2.638c.372-.373.63-.796.73-1.258.152-.692-.025-1.437-.506-2.16-.983-1.47-2.533-1.79-4.045-.832-.826.524-1.493 1.695-1.947 2.717-.45-1.022-1.12-2.196-1.947-2.717-1.512-.958-3.061-.638-4.044.832-.482.723-.659 1.468-.507 2.16.1.462.358.885.728 1.258H3.468c-.768 0-1.465.778-1.465 1.633v2.927c0 .795.546 1.476 1.232 1.605v7.092c0 .885.673 1.633 1.465 1.633h14.227c.793 0 1.465-.748 1.465-1.633v-7.087c.717-.1 1.294-.792 1.294-1.613V8.426c0-.855-.697-1.63-1.465-1.63z" fill="#313235" fill-rule="nonzero"/></svg>