<svg width="24" height="24" viewBox="0 0 24 24" xmlns="http://www.w3.org/2000/svg"><path d="M21.098 17.62c.308 0 .56.253.56.56 0 .309-.252.56-.56.56H2.594a.562.562 0 01-.56-.56c0-.307.252-.56.56-.56h18.504zM18.401 4.508c1.098 0 1.94.328 2.504.972.524.6.787 1.468.787 2.583v4.938c0 1.115-.266 1.984-.787 2.583-.563.644-1.406.972-2.504.972H5.29c-1.098 0-1.94-.328-2.504-.97-.52-.601-.787-1.47-.787-2.585V8.063c0-1.115.266-1.983.787-2.583.563-.644 1.403-.972 2.504-.972h13.11zm0 1.12l-13.11.004c-.773 0-1.313.193-1.658.588-.339.386-.513 1.008-.513 1.843v4.938c0 .835.174 1.457.513 1.846.345.395.888.589 1.658.589h13.11c.77 0 1.313-.194 1.658-.589.339-.389.512-1.01.512-1.846V8.063c0-.835-.173-1.457-.512-1.846-.345-.395-.888-.588-1.658-.588zm-3.799 2.037c.146.028.42.107.88.233l.235.064a.422.422 0 01-.224.813l-.235-.065-.033-.01c.251.521.377 1.15.377 1.884.003 2.342-1.316 3.63-3.711 3.63a5.402 5.402 0 01-1.236-.134.42.42 0 11.197-.818c.341.078.691.115 1.039.112 1.933 0 2.874-.913 2.874-2.79 0-.674-.125-1.23-.37-1.658l-.008.056a6.737 6.737 0 01-.09.574.42.42 0 01-.818-.182c.028-.129.053-.32.076-.504.028-.205.053-.415.09-.577.103-.485.473-.726.957-.628zM11.79 6.82a5.33 5.33 0 011.246.138.422.422 0 01-.173.823c-.009-.003-.014-.003-.023-.005a4.57 4.57 0 00-1.05-.113c-1.933 0-2.874.914-2.874 2.79 0 .67.123 1.223.365 1.651l.008-.051c.025-.202.053-.41.09-.574a.423.423 0 01.495-.328.423.423 0 01.328.496c0 .002 0 .005-.003.005-.028.13-.053.32-.076.504-.028.205-.053.415-.09.577-.092.423-.372.659-.753.659-.07 0-.137-.009-.207-.023-.146-.028-.42-.106-.877-.232l-.235-.065a.422.422 0 01.224-.812l.235.065.033.01c-.251-.522-.377-1.151-.377-1.884 0-2.342 1.319-3.63 3.714-3.63z" fill="#313235" fill-rule="nonzero"/></svg>