<svg width="24" height="24" viewBox="0 0 24 24" xmlns="http://www.w3.org/2000/svg"><path d="M11.83 2c3.122 0 5.551.815 7.22 2.423 1.734 1.67 2.611 4.162 2.611 7.409 0 3.246-.88 5.737-2.61 7.406-1.67 1.608-4.099 2.423-7.222 2.423s-5.552-.815-7.218-2.423c-1.731-1.667-2.608-4.157-2.608-7.403 0-3.247.877-5.74 2.608-7.41C6.277 2.819 8.709 2 11.829 2zm0 1.09c-5.8 0-8.74 2.94-8.74 8.745 0 5.798 2.94 8.74 8.74 8.74 5.8 0 8.744-2.942 8.744-8.74 0-5.801-2.944-8.745-8.745-8.745zM9.1 7.448c.309 0 .561.252.561.56v7.647c0 .309-.252.56-.56.56a.562.562 0 01-.56-.56V8.008c0-.308.252-.56.56-.56zm5.463 0c.308 0 .56.252.56.56v7.647c0 .309-.252.56-.56.56a.562.562 0 01-.56-.56V8.008c0-.308.252-.56.56-.56z" fill="#313235" fill-rule="nonzero"/></svg>