<svg width="24" height="24" viewBox="0 0 24 24" xmlns="http://www.w3.org/2000/svg"><path d="M14.165 15.185c.457 0 .51-.053.51-.507 0-.451-.056-.507-.51-.507-.456 0-.507.05-.507.507 0 .454.05.507.507.507zm0-2.163c1.045 0 1.659.53 1.659 1.659s-.611 1.655-1.659 1.655c-1.045 0-1.655-.526-1.655-1.655 0-1.132.608-1.659 1.655-1.659zM9.521 8.625c-.457 0-.507.05-.507.507 0 .453.05.507.507.507s.507-.05.507-.507c0-.451-.056-.507-.507-.507zm0 2.162c-1.048 0-1.655-.53-1.655-1.655 0-1.13.61-1.659 1.655-1.659s1.658.53 1.658 1.659c0 1.128-.613 1.655-1.658 1.655zM14.866 7a.571.571 0 01.8-.104l.003.003c.25.193.297.555.101.804l-6.94 8.93a.575.575 0 11-.908-.706L14.866 7zM11.84 20.457c5.796 0 8.617-2.818 8.617-8.611 0-5.798-2.818-8.616-8.617-8.616-5.792 0-8.61 2.818-8.61 8.616 0 5.793 2.818 8.61 8.61 8.61zM11.84 2c6.219 0 9.846 3.14 9.846 9.846 0 6.706-3.627 9.84-9.846 9.84-6.218 0-9.84-3.134-9.84-9.84C2 5.14 5.622 2 11.84 2z" fill="#313235" fill-rule="nonzero"/></svg>