<svg width="24" height="24" viewBox="0 0 24 24" xmlns="http://www.w3.org/2000/svg"><path d="M16.227 14.61a.313.313 0 00.224-.383l-1.148-4.199a.59.59 0 01-.048-.14c-.003-.014-.009-.028-.011-.042a1.651 1.651 0 00-1.617-1.303h-2.563a1.654 1.654 0 00-1.63 1.348.73.73 0 01-.045.131l-1.15 4.21a.311.311 0 00.218.379.301.301 0 00.238-.028.295.295 0 00.143-.182l.507-2.788a.602.602 0 01.652-.493.605.605 0 01.555.6v8.482c0 .131.039.288.23.288.056 0 .198 0 .198-.288v-5.056c0-.334.272-.603.608-.603h1.496c.336 0 .608.27.608.603v5.056c0 .073.017.308.218.308.208 0 .224-.238.224-.308V11.72c0-.311.241-.572.552-.6a.616.616 0 01.653.493l.518 2.838c.017.056.09.11.132.134.05.02.134.054.238.026zm1.4-.694a1.517 1.517 0 01-1.078 1.857 1.5 1.5 0 01-1.157-.146c-.014-.008-.028-.014-.04-.022v4.594c0 .863-.618 1.515-1.439 1.515-.818 0-1.434-.652-1.434-1.515v-4.454h-.28V20.2c0 .865-.594 1.493-1.415 1.493-.823 0-1.445-.642-1.445-1.493v-4.594c-.014.008-.025.017-.04.025a1.52 1.52 0 01-1.162.143 1.518 1.518 0 01-1.073-1.851l1.152-4.21a.77.77 0 01.047-.146c.286-1.294 1.46-2.227 2.801-2.227h2.563c1.342 0 2.513.933 2.799 2.224.028.064.045.126.059.188l1.142 4.165zm-6.493-10.39c-.207.2-.313.53-.313.984 0 .888.383 1.269 1.28 1.269.902 0 1.286-.381 1.286-1.27 0-.45-.107-.78-.314-.982-.205-.196-.532-.295-.972-.295-.44 0-.765.099-.967.295zm.967 3.457c-1.563 0-2.499-.927-2.499-2.476 0-.793.23-1.412.684-1.849.437-.42 1.047-.633 1.812-.633.768 0 1.378.213 1.815.633.454.434.686 1.056.686 1.849.003 1.552-.93 2.476-2.498 2.476z" fill="#313235" fill-rule="nonzero"/></svg>