<svg width="24" height="24" viewBox="0 0 24 24" xmlns="http://www.w3.org/2000/svg"><path d="M11.84 20.479c5.731 0 8.639-2.905 8.639-8.633 0-5.731-2.905-8.639-8.639-8.639-5.728 0-8.633 2.908-8.633 8.639 0 5.728 2.905 8.633 8.633 8.633zM11.84 2c6.44 0 9.846 3.403 9.846 9.846 0 6.437-3.403 9.84-9.846 9.84-6.437 0-9.84-3.403-9.84-9.84C2 5.403 5.403 2 11.84 2zm.045 2.042c.333 0 .605.272.605.605v3.025a.604.604 0 11-1.21 0V4.647a.608.608 0 01.605-.605zm-3.61 7.76a.606.606 0 01-.606.604H4.644a.604.604 0 110-1.21H7.67a.606.606 0 01.606.605zm.162 2.534a.605.605 0 01.854.854l-2.137 2.138a.604.604 0 01-.851.003l-.003-.003a.605.605 0 010-.855l2.137-2.137zm3.364 1.076c.333 0 .602.271.602.605v3.022a.602.602 0 01-1.204 0v-3.022c0-.334.269-.605.602-.605zm3.39-1.014l2.137 2.137a.604.604 0 01-.852.854l-2.14-2.14a.603.603 0 01-.033-.854.603.603 0 01.854-.034l.033.037zm3.848-3.115a.602.602 0 010 1.204h-3.025a.602.602 0 010-1.204h3.025zm-4.215-1.756a.606.606 0 01-.429-1.031l2.137-2.14a.605.605 0 01.855.854l-2.138 2.14a.604.604 0 01-.425.177z" fill="#313235" fill-rule="nonzero"/></svg>