<svg width="24" height="24" viewBox="0 0 24 24" xmlns="http://www.w3.org/2000/svg"><path d="M12.157 17.482h-.563c-4.6-.065-5.095-3.877-5.095-5.513 0-1.624.49-5.42 5.036-5.462h.588c1.54.042 5.137.653 5.137 5.504 0 4.852-3.568 5.437-5.103 5.47m8.907-6.27h-2.467c-.05 0-.093.016-.132.024-.132-1.675-.655-2.88-1.367-3.745.025-.017.042-.025.059-.042l1.773-1.767a.604.604 0 000-.874.615.615 0 00-.88 0L16.277 6.57c-.017.017-.025.042-.042.068-1.333-1.04-2.924-1.294-3.77-1.353V2.644a.625.625 0 00-.622-.619.62.62 0 00-.622.62v2.63c-.862.05-2.428.288-3.745 1.31-.017-.016-.025-.05-.05-.064L5.703 4.804a.616.616 0 00-.88 0 .619.619 0 000 .874l1.723 1.717c.025.017.05.025.076.05-.695.866-1.21 2.087-1.325 3.787-.042-.008-.076-.025-.115-.025h-2.56a.625.625 0 00-.622.62c0 .338.283.618.622.618h2.56c.034 0 .067-.016.098-.016.076 1.708.521 2.963 1.177 3.868-.017.017-.042.025-.068.05l-1.706 1.7a.604.604 0 000 .875.592.592 0 00.77.075.611.611 0 00.25-.148l1.566-1.552c.017-.025.025-.048.05-.076 1.334 1.146 2.992 1.42 3.902 1.476v2.393c0 .347.275.619.622.619a.62.62 0 00.622-.62v-2.375c0-.008-.008-.008-.008-.017.88-.047 2.602-.313 3.986-1.484.016.025.025.056.05.081l1.557 1.552a.62.62 0 00.44.182.576.576 0 00.437-.182.604.604 0 000-.874L17.37 16.42c-.034-.033-.076-.05-.115-.075.68-.916 1.16-2.188 1.227-3.928.042.009.075.026.115.026h2.467c.34 0 .622-.28.622-.62a.624.624 0 00-.622-.613" fill="#313235" fill-rule="nonzero"/></svg>