<svg width="24" height="24" viewBox="0 0 24 24" fill="none" xmlns="http://www.w3.org/2000/svg">
<path fill-rule="evenodd" clip-rule="evenodd" d="M21.7598 17.9463C21.7598 17.543 21.5189 16.8959 21.1127 16.571L21.0315 10.0164V10.0021C21.0316 9.52444 21.0318 8.60647 20.222 8.23486L12.2892 4.67184C11.8831 4.50937 11.4797 4.50937 11.0735 4.67184L3.14076 8.23486C2.57493 8.47576 2.25 9.04439 2.25 9.61021C2.25 10.2573 2.57493 10.7419 3.14076 10.9856L11.0707 14.5486C11.2304 14.6298 11.3929 14.7111 11.6366 14.7111C11.7962 14.7111 12.0399 14.6298 12.2024 14.5486L19.813 11.148V16.571C19.4097 16.8931 19.166 17.5402 19.166 17.9463C19.166 18.1872 19.2472 18.3497 19.4097 18.5122C19.6534 18.7559 19.9755 18.7559 20.3004 18.7559H20.7878C21.0315 18.7559 21.3536 18.6746 21.5161 18.5122C21.6786 18.4309 21.7598 18.19 21.7598 17.9463ZM12.6113 15.2769C12.3676 15.3581 12.0455 15.4393 11.7206 15.4393C11.3985 15.4393 11.0735 15.3581 10.8298 15.2769L5.0007 12.6858V15.3581C5.0007 16.1676 5.56653 16.8147 6.29482 16.9772C7.59174 17.2209 9.37325 17.7055 10.6674 18.7587C10.9923 19.0024 11.3957 19.1648 11.8018 19.1648C12.208 19.1648 12.6113 19.0024 12.9363 18.7587C14.2332 17.7055 16.0147 17.2209 17.3088 16.9772C18.0371 16.8147 18.6029 16.1676 18.6029 15.3581V12.6046L12.6113 15.2769Z" fill="#313235"/>
</svg>
