<svg width="24" height="24" viewBox="0 0 24 24" fill="none" xmlns="http://www.w3.org/2000/svg">
<path fill-rule="evenodd" clip-rule="evenodd" d="M19.9667 4.04796C21.1992 5.27765 21.8519 7.07597 21.8435 9.26365C21.8351 13.8771 15.9163 20.8435 15.0732 21.6698C14.9499 21.7903 14.7959 21.8463 14.6418 21.8463C14.4877 21.8463 14.3225 21.7903 14.2104 21.6698C13.7875 21.2608 12.8407 20.16 11.7398 18.6334C10.4681 20.2468 8.38689 20.4345 7.70342 20.4401C7.60538 20.4485 7.49334 20.4485 7.38689 20.4485H7.21603C6.1544 20.4345 2.16 20.0536 2.16 15.202C2.16 10.3645 6.11519 10.0031 7.17401 9.99474H7.54096C7.50734 9.72863 7.48493 9.46252 7.49334 9.21322C7.49334 7.03675 8.1544 5.23563 9.4009 4.01435C10.6502 2.79306 12.4905 2.16561 14.695 2.16C16.9023 2.16841 18.7286 2.81827 19.9667 4.04796ZM16.8547 8.60538C16.8547 9.9079 16.034 10.7174 14.7118 10.7174C13.3897 10.7174 12.5662 9.9079 12.5662 8.60538C12.5662 7.30286 13.3869 6.49334 14.7118 6.49334C16.034 6.49334 16.8547 7.30286 16.8547 8.60538ZM11.5354 15.2328C11.5354 18.6558 9.11238 19.2104 7.67821 19.2356C7.58858 19.2412 7.48213 19.2412 7.38689 19.2412H7.23003C5.79586 19.216 3.38129 18.6698 3.38129 15.1992C3.38129 11.7454 5.76224 11.2132 7.18801 11.1992H7.6446C9.09558 11.2384 11.5354 11.8099 11.5354 15.2328ZM10.0984 14.6026H8.06477V12.6222C8.06477 12.2889 7.79306 12.0199 7.45412 12.0199C7.11799 12.0199 6.84348 12.2889 6.84348 12.6222V14.6026H4.81547C4.47933 14.6026 4.20482 14.8715 4.20482 15.2048C4.20482 15.5382 4.47653 15.8071 4.81547 15.8071H6.84348V17.8155C6.84348 18.1488 7.11519 18.4177 7.45412 18.4177C7.79026 18.4177 8.06477 18.1488 8.06477 17.8155V15.8071H10.0984C10.4345 15.8071 10.709 15.5382 10.709 15.2048C10.709 14.8715 10.4373 14.6026 10.0984 14.6026Z" fill="#313235"/>
</svg>
