<svg width="24" height="24" viewBox="0 0 24 24" fill="none" xmlns="http://www.w3.org/2000/svg">
<path d="M18.3536 11.3177H12.6803V5.64441C12.6604 5.26791 12.3377 4.98106 11.9631 5.00098C11.6165 5.01891 11.3376 5.29779 11.3197 5.64441V11.3197H5.64441C5.26791 11.3396 4.98106 11.6623 5.00098 12.0369C5.01891 12.3835 5.29779 12.6624 5.64441 12.6803H11.3197V18.3556C11.3396 18.7321 11.6623 19.0189 12.0369 18.999C12.3835 18.9811 12.6624 18.7022 12.6803 18.3556V12.6803H18.3556C18.7321 12.6604 19.0189 12.3377 18.999 11.9631C18.9791 11.6145 18.7022 11.3376 18.3536 11.3177Z" fill="#313235"/>
</svg>
