<svg width="24" height="24" viewBox="0 0 24 24" fill="none" xmlns="http://www.w3.org/2000/svg">
<path fill-rule="evenodd" clip-rule="evenodd" d="M19.9695 4.04796C21.202 5.27765 21.8547 7.07597 21.8463 9.26365C21.8379 13.8743 15.9163 20.8435 15.0788 21.6698C14.9639 21.7847 14.8071 21.8463 14.6474 21.8463C14.4849 21.8491 14.3281 21.7847 14.216 21.6698C13.7931 21.2608 12.8463 20.16 11.7454 18.6334C10.4737 20.2496 8.3925 20.4345 7.70902 20.4401C7.61098 20.4485 7.49614 20.4485 7.3897 20.4485H7.21883C6.1572 20.4317 2.16 20.0536 2.16 15.202C2.16 10.3645 6.11519 10.0031 7.17401 9.99474H7.54096C7.50454 9.73703 7.48773 9.47653 7.49054 9.21603C7.49054 7.03956 8.1516 5.23844 9.3981 4.01715C10.6474 2.79586 12.4877 2.16841 14.6922 2.16C16.9051 2.16841 18.7314 2.81827 19.9695 4.04796ZM20.6222 9.25524C20.6138 12.7678 16.3085 18.4737 14.6446 20.3533C13.8435 19.4233 13.0928 18.4541 12.3925 17.4429C12.6194 16.8407 12.7594 16.1096 12.7594 15.2328C12.7594 11.5466 10.3785 10.4541 8.80426 10.132C8.74824 9.81266 8.70622 9.49894 8.71463 9.22443C8.71463 7.34208 9.23843 5.87989 10.2664 4.87709C11.2945 3.87149 12.8015 3.36449 14.6866 3.36449C16.5942 3.37569 18.0788 3.88829 19.0956 4.9023C20.1152 5.91351 20.6306 7.37569 20.6222 9.25524ZM11.5382 15.2356C11.5382 18.6586 9.11519 19.2132 7.68101 19.2356C7.61378 19.2419 7.53709 19.2435 7.4604 19.2451C7.43485 19.2456 7.4093 19.2461 7.38409 19.2468H7.23003C5.79586 19.2216 3.38129 18.6754 3.38129 15.2048C3.38129 11.751 5.76224 11.2188 7.19082 11.202H7.6474C9.10118 11.2412 11.5382 11.8127 11.5382 15.2356ZM13.2048 8.82387C13.2048 7.85468 13.6838 7.38129 14.6698 7.38129C15.653 7.38129 16.1348 7.85468 16.1348 8.82387C16.1348 9.79306 15.6558 10.2664 14.6698 10.2664C13.6838 10.2664 13.2048 9.79306 13.2048 8.82387ZM14.6698 11.4765C13.0115 11.4765 11.9807 10.4597 11.9807 8.82667C11.9807 7.19362 13.0115 6.17681 14.6698 6.17681C16.3281 6.17681 17.3589 7.19362 17.3589 8.82667C17.3561 10.4597 16.3281 11.4765 14.6698 11.4765ZM10.7118 15.2048C10.709 14.8687 10.4373 14.5998 10.1012 14.6026V14.6054H8.06757V12.6278C8.06477 12.2917 7.79306 12.0227 7.45692 12.0255C7.12079 12.0227 6.84908 12.2917 6.84628 12.6278V14.6054H4.81827C4.48493 14.6026 4.21042 14.8715 4.20762 15.2076C4.21042 15.5438 4.48213 15.8127 4.81827 15.8099H6.84908V17.8183C6.85188 18.1544 7.12359 18.4233 7.45972 18.4205C7.79586 18.4233 8.06757 18.1544 8.07037 17.8183V15.8071H10.1012C10.4373 15.8099 10.709 15.541 10.7118 15.2048Z" fill="#313235"/>
</svg>
