<svg width="24" height="24" viewBox="0 0 24 24" fill="none" xmlns="http://www.w3.org/2000/svg">
<path fill-rule="evenodd" clip-rule="evenodd" d="M21.7145 15.6863L21.7061 12.8403C21.7061 12.1321 21.2501 11.5414 21.0034 11.2219L21.003 11.2213C20.0478 9.97478 19.101 8.71988 18.1626 7.45938C17.8125 6.98038 17.2327 6.65545 16.6276 6.57422V5.11204C16.6276 4.32212 15.9498 3.68066 15.1094 3.68066H3.5436C2.70326 3.68066 2.02539 4.31372 2.02539 5.10363V16.2913C2.02539 17.0308 2.63043 17.633 3.39794 17.7059C3.59402 19.1849 4.64724 20.0868 6.26349 20.0868C7.87133 20.0868 8.92455 19.1933 9.12903 17.7227H13.0618C13.2663 19.1933 14.3195 20.0868 15.9274 20.0868C17.5352 20.0868 18.5884 19.1933 18.8013 17.7227H19.6584C20.1795 17.7227 20.7033 17.4958 21.0954 17.1064C21.4848 16.7171 21.7145 16.1961 21.7145 15.6863ZM15.4035 14.3333C14.1486 14.5042 13.3055 15.2941 13.087 16.5042V16.5014H9.11223C8.85172 15.1204 7.81251 14.2913 6.26349 14.2913C4.73127 14.2913 3.70046 15.112 3.43155 16.4622C3.33351 16.4286 3.25228 16.3641 3.25228 16.2913V5.10363C3.25228 5.00279 3.37553 4.89915 3.5464 4.89915H15.1094C15.2803 4.89915 15.4035 5.014 15.4035 5.11204V14.3333ZM20.2299 16.2437C20.3923 16.0812 20.4904 15.8711 20.4904 15.6835L20.482 12.8375C20.482 12.5462 20.2047 12.1793 20.0338 11.9692C19.073 10.7087 18.1178 9.44257 17.1682 8.17366C17.031 7.99719 16.8433 7.87114 16.6304 7.80952V14.3585C17.7901 14.577 18.566 15.3501 18.7761 16.5014H19.6584C19.8545 16.5042 20.0646 16.4062 20.2299 16.2437ZM15.9274 18.8683C17.045 18.8683 17.6164 18.3081 17.6164 17.1961C17.6164 16.084 17.045 15.5154 15.9274 15.5154C14.8097 15.5154 14.2467 16.084 14.2467 17.1961C14.2467 18.3081 14.8097 18.8683 15.9274 18.8683ZM6.26349 18.8683C7.38113 18.8683 7.95256 18.3081 7.95256 17.1961C7.95256 16.084 7.38113 15.5154 6.26349 15.5154C5.14584 15.5154 4.58281 16.084 4.58281 17.1961C4.58281 18.3081 5.14584 18.8683 6.26349 18.8683ZM12.3783 10.4174V9.42296L10.4372 9.42576C10.101 9.42576 9.82651 9.15405 9.82371 8.81512V6.88795H8.82651V8.82072C8.82651 9.15685 8.552 9.43136 8.21587 9.43136L6.27469 9.43417V10.423H8.21867C8.5576 10.423 8.82931 10.6947 8.82931 11.0308L8.83211 12.9636H9.82651L9.82371 11.0308C9.82371 10.6947 10.0982 10.4202 10.4344 10.4202H12.3783V10.4174ZM13.6024 9.12324C13.6024 8.62744 13.1458 8.20727 12.6024 8.20727H11.0562V6.66386C11.0562 6.12324 10.6332 5.66666 10.1346 5.66666H8.53239C8.03379 5.66666 7.61082 6.12324 7.61082 6.66386V8.21008H6.059C5.51839 8.21008 5.059 8.63024 5.059 9.12604V10.7227C5.059 11.2213 5.51839 11.6386 6.059 11.6386H7.61363V13.1821C7.61363 13.7227 8.03379 14.1793 8.53239 14.1793H10.1346C10.6304 14.1793 11.0534 13.7227 11.0534 13.1821V11.6358H12.6024C13.143 11.6358 13.6024 11.2157 13.6024 10.7199V9.12324Z" fill="#313235"/>
</svg>
