<svg width="24" height="24" viewBox="0 0 24 24" fill="none" xmlns="http://www.w3.org/2000/svg">
<path fill-rule="evenodd" clip-rule="evenodd" d="M20.2241 4.5224C21.0308 4.5224 21.6863 5.15265 21.6863 5.93136V17.8809C21.6863 18.6569 21.0308 19.2871 20.2241 19.2871H3.46218C2.65546 19.2899 2 18.6569 2 17.8809V5.93136C2 5.15545 2.65546 4.5224 3.46218 4.5224H20.2241ZM3.87395 6.67646C3.87395 6.37394 4.12885 6.12744 4.44538 6.12744C4.7619 6.12744 5.01681 6.37394 5.01681 6.67646C5.0112 6.98458 4.7535 7.23108 4.44538 7.22548C4.12885 7.22548 3.87395 6.97898 3.87395 6.67646ZM20.4538 11.8949V8.84453H3.23249V17.8809C3.23249 18.0014 3.33333 18.0994 3.45938 18.0994H13.8487C13.8936 18.0014 13.9552 17.9118 14.0336 17.8361L14.4034 17.4804C14.3669 17.3823 14.3361 17.2843 14.3081 17.1835H13.8936C13.3529 17.1835 12.9104 16.7577 12.9104 16.2367V15.5756C12.9104 15.0546 13.3501 14.6316 13.8936 14.6316H14.3081C14.3333 14.5364 14.3641 14.4356 14.4034 14.3347L14.0336 13.9818C13.6611 13.626 13.6499 13.035 14.0056 12.6653C14.0113 12.6577 14.0183 12.6513 14.0248 12.6455C14.0279 12.6427 14.0309 12.6399 14.0336 12.6372L14.535 12.1527C14.9272 11.7801 15.5406 11.7801 15.9328 12.1527L16.3025 12.5112C16.4006 12.4776 16.5014 12.4468 16.6078 12.4188V12.021C16.6078 11.4972 17.0476 11.0742 17.591 11.0742H18.2773C18.8179 11.0742 19.2605 11.4972 19.2605 12.021V12.4188C19.3641 12.4468 19.465 12.4776 19.5658 12.514L19.9356 12.1583C20.0812 12.0126 20.2605 11.9286 20.4538 11.8949ZM17.8852 17.6092C19.0476 17.6092 19.7675 16.9146 19.7675 15.7969C19.7675 14.6793 19.0448 13.9846 17.8852 13.9846C16.7227 13.9846 16.0028 14.6793 16.0028 15.7969C16.0028 16.9146 16.7227 17.6092 17.8852 17.6092ZM6.15966 6.12744C5.84314 6.12744 5.58824 6.37394 5.58824 6.67646C5.58824 6.97898 5.84314 7.22548 6.15966 7.22548C6.46779 7.23108 6.72549 6.98458 6.73109 6.67646C6.73109 6.37394 6.47619 6.12744 6.15966 6.12744ZM7.30252 6.67646C7.30252 6.37394 7.55742 6.12744 7.87395 6.12744C8.19048 6.12744 8.44538 6.37394 8.44538 6.67646C8.43978 6.98458 8.18207 7.23108 7.87395 7.22548C7.55742 7.22548 7.30252 6.97898 7.30252 6.67646ZM6.2521 11.0826H5.34454L4.13725 14.6933H4.92157L5.20168 13.7857H6.37255L6.67227 14.6933H7.55462L6.2521 11.0826ZM5.77871 11.9846L6.17367 13.1891H5.39216L5.76751 11.9846H5.77871ZM7.97759 11.0826H9.21569C9.78151 11.0826 10.1401 11.1611 10.3725 11.3795C10.5686 11.5588 10.6639 11.8389 10.6639 12.2255C10.6639 12.612 10.5742 12.9006 10.395 13.1022C10.1849 13.3403 9.85714 13.4496 9.38095 13.4496H8.80112V14.6961H7.97759V11.0826ZM9.68347 12.6933C9.57983 12.7941 9.46779 12.8305 9.20448 12.8305H8.79552V11.6793H9.18207C9.43697 11.6793 9.58823 11.7157 9.68908 11.8053C9.78431 11.8949 9.82633 12.0378 9.82633 12.2339C9.82633 12.444 9.77871 12.598 9.68347 12.6933ZM11.2549 11.0826H12.0784V14.6933H11.2549V11.0826Z" fill="#313235"/>
</svg>
