<svg width="24" height="24" viewBox="0 0 24 24" fill="none" xmlns="http://www.w3.org/2000/svg">
<path fill-rule="evenodd" clip-rule="evenodd" d="M21.7085 7.73387C21.7085 7.73387 21.997 4.13444 18.0699 4.13444C18.0699 4.13444 16.9298 4.13444 16.9242 4.1372V2.61064C16.9242 2.27171 16.6469 2 16.308 2C15.9663 2 15.6917 2.27451 15.6917 2.61064V4.13725L8.06153 4.14005V2.61064C8.06153 2.27171 7.78422 2 7.44528 2C7.10355 2 6.82904 2.27451 6.82904 2.61064V4.14005H5.63857C5.63857 4.14005 5.56574 4.13444 5.43969 4.13444C4.68619 4.13444 2.03074 4.37254 2.03074 7.71426V18.0868C2.03074 18.0868 1.78424 21.6722 5.64977 21.6722H18.0727C18.0727 21.6722 18.1903 21.6862 18.3864 21.6862C19.2688 21.6862 21.7113 21.3865 21.7113 18.0672L21.7085 7.73387ZM18.3864 20.4677C20.4816 20.4677 20.4816 18.661 20.4816 18.0672L20.4788 10.5602H3.26043V18.0868C3.26043 18.1148 3.26043 18.1428 3.25763 18.1708C3.25763 18.1708 3.21281 19.2072 3.83466 19.8543C4.21561 20.252 4.82905 20.4537 5.64697 20.4537H18.0671C18.1175 20.4537 18.1679 20.4565 18.2183 20.4649C18.2253 20.4635 18.2441 20.4642 18.2725 20.4652H18.2725C18.3013 20.4663 18.34 20.4677 18.3864 20.4677ZM14.7646 13.8851C15.2408 13.8851 15.6609 14.2661 15.6609 14.7002V16.1064C15.6609 16.549 15.252 16.9215 14.7646 16.9215H13.4004L13.4032 18.2716C13.4032 18.7506 13.0251 19.154 12.5797 19.154H11.1596C10.7114 19.154 10.336 18.7506 10.336 18.2716V16.9187H8.97189C8.4901 16.9187 8.08113 16.5462 8.08113 16.1036V14.703C8.08113 14.2604 8.4901 13.8879 8.97189 13.8879H10.336V12.5378C10.336 12.056 10.7142 11.6498 11.1596 11.6498H12.5741C13.0223 11.6498 13.3976 12.056 13.3976 12.5378V13.8851H14.7646Z" fill="#313235"/>
</svg>
