<svg width="24" height="24" viewBox="0 0 24 24" fill="none" xmlns="http://www.w3.org/2000/svg">
<path fill-rule="evenodd" clip-rule="evenodd" d="M21.4818 9.19605C21.6443 9.05319 21.7367 8.84871 21.7367 8.63303C21.7367 8.41734 21.6471 8.21286 21.4846 8.0728L17.2717 3.89353C17.2605 3.87953 17.2465 3.86832 17.2325 3.85712C16.9972 3.66664 16.6751 3.62743 16.4006 3.75628C16.1345 3.87953 15.9636 4.14563 15.9636 4.43975L15.9496 6.26328L13.0449 6.26608C12.381 6.26608 11.8432 6.8039 11.8432 7.46776V9.78709C11.846 10.451 12.3838 10.9888 13.0477 10.9888L15.9496 10.9832L15.9636 12.8067C15.9636 13.1002 16.1342 13.367 16.4006 13.4902C16.6751 13.6218 16.9972 13.5826 17.2325 13.3921C17.2395 13.3865 17.2458 13.3802 17.2521 13.3739C17.2584 13.3676 17.2647 13.3613 17.2717 13.3557L21.4818 9.19605ZM11.9048 16.3277V14.0084C11.9048 13.3473 11.367 12.8095 10.7003 12.8095L7.80116 12.8151L7.78715 10.9944C7.78715 10.7003 7.61628 10.4341 7.35018 10.3109C7.07567 10.1792 6.75354 10.2185 6.51824 10.4089C6.51124 10.4145 6.50494 10.4208 6.49864 10.4271C6.49233 10.4334 6.48603 10.4397 6.47903 10.4454L2.26895 14.5994C2.10928 14.7423 2.01685 14.9468 2.01685 15.1624C2.01685 15.3781 2.10928 15.5826 2.26895 15.7255L6.47903 19.8991C6.49023 19.9131 6.50424 19.9243 6.51824 19.9355C6.75354 20.126 7.07567 20.1652 7.35018 20.0364C7.61628 19.9131 7.78715 19.6498 7.78715 19.3557L7.80116 17.5322L10.7031 17.5294C11.367 17.5294 11.9048 16.9916 11.9048 16.3277Z" fill="#313235"/>
</svg>
