<svg width="24" height="24" viewBox="0 0 24 24" fill="none" xmlns="http://www.w3.org/2000/svg">
<path fill-rule="evenodd" clip-rule="evenodd" d="M11.4539 21.605C11.5939 21.661 11.7424 21.689 11.8937 21.689C12.269 21.689 12.6556 21.5182 12.9609 21.1988L21.4371 12.4958C21.6611 12.2801 21.7116 12.0532 21.7116 11.9019C21.7144 11.5406 21.4651 11.2941 21.3782 11.2101L12.72 2.4986C12.297 2.06443 11.8152 1.91037 11.3979 2.07843C11.1542 2.17647 10.7452 2.46779 10.7396 3.32493V3.33053L10.7424 6.89075C10.6892 6.91876 10.6248 6.94117 10.5855 6.94397L3.87406 6.94117H3.86566C3.44829 6.94677 2.84886 7.0056 2.43989 7.42856C2.03373 7.85153 1.99732 8.45377 2.00572 8.87394V14.9131C1.98891 15.5294 2.13177 15.9832 2.4483 16.3053C2.76482 16.6274 3.2158 16.7815 3.83205 16.7731L10.7144 16.7927C10.7312 16.8095 10.7452 16.8319 10.7536 16.8487L10.7592 20.4986C10.7536 21.0056 11.0197 21.4285 11.4539 21.605ZM10.79 15.7031L3.83205 15.6835C3.82925 15.6835 3.82644 15.6835 3.82364 15.6863C3.61636 15.6891 3.34745 15.6666 3.22701 15.5462C3.10936 15.4229 3.09255 15.1512 3.09815 14.944V8.85993C3.08975 8.5182 3.13457 8.28571 3.22701 8.19047C3.31944 8.09523 3.54633 8.04201 3.88247 8.03641L10.5911 8.03921C11.0281 8.03921 11.8376 7.69747 11.8376 7.04481L11.832 3.33333C11.832 3.26611 11.8376 3.21288 11.8432 3.17087C11.8712 3.19328 11.9049 3.22129 11.9413 3.2605L11.9469 3.26611L20.5155 11.8851L12.1794 20.4397L12.1738 20.4453C12.0169 20.6106 11.8853 20.6078 11.8656 20.5938C11.8628 20.5882 11.8516 20.563 11.8516 20.5098V20.5014L11.846 16.8235C11.846 16.3165 11.3755 15.7031 10.79 15.7031Z" fill="#313235"/>
</svg>
