<svg width="24" height="24" viewBox="0 0 24 24" fill="none" xmlns="http://www.w3.org/2000/svg">
<path fill-rule="evenodd" clip-rule="evenodd" d="M9.11851 20.025C9.49105 20.3976 9.88881 20.5825 10.2838 20.5825C10.6731 20.5825 11.0625 20.4032 11.421 20.0419L11.4266 20.0362L16.2165 15.1315L18.5919 17.5124C18.5975 17.5152 18.6031 17.5208 18.6087 17.5265C18.9672 17.8542 19.5583 17.9466 20.0148 17.7421C20.4042 17.5685 20.6311 17.2127 20.6283 16.787L20.6339 4.64132C20.6563 4.36121 20.5667 4.10911 20.3818 3.92424C20.1969 3.73936 19.9448 3.64973 19.6647 3.66934H7.57789C7.1017 3.66654 6.71235 3.91303 6.53308 4.3276C6.3426 4.77298 6.43504 5.336 6.75156 5.66653L6.75997 5.67493L9.33979 8.25476L4.22496 13.0671L4.21095 13.0811C3.99247 13.2996 3.76277 13.5685 3.68995 13.9046C3.61151 14.2744 3.73196 14.6357 4.05129 14.983L4.0681 14.9998L9.11851 20.025ZM9.87761 19.2631L4.8384 14.2463C4.77678 14.1791 4.75437 14.1371 4.74597 14.1203C4.75717 14.0923 4.79919 14.0167 4.96725 13.8458L10.1521 8.96624L10.1633 8.95504C10.3454 8.77297 10.449 8.53487 10.4574 8.27997C10.4658 8.01667 10.365 7.76177 10.1829 7.57969L7.53027 4.92704C7.50506 4.88782 7.50226 4.78698 7.52187 4.75057C7.53027 4.74777 7.54708 4.74496 7.57229 4.74496H19.5611L19.5555 16.7673C19.491 16.7814 19.3846 16.7673 19.3426 16.7365L16.8944 14.2884C16.5191 13.913 15.9028 13.9214 15.5191 14.3052L15.5135 14.3108L10.6591 19.2827C10.5555 19.3864 10.407 19.5096 10.281 19.5096H10.2782C10.1773 19.5068 10.0345 19.42 9.87761 19.2631Z" fill="#313235"/>
</svg>
