<svg width="24" height="24" viewBox="0 0 24 24" fill="none" xmlns="http://www.w3.org/2000/svg">
<path fill-rule="evenodd" clip-rule="evenodd" d="M7.45928 11.9076H9.77581C10.4397 11.9076 10.9775 11.3697 10.9747 10.7059L10.9719 7.80391L12.7926 7.78991C13.0861 7.78992 13.3529 7.61936 13.4761 7.35293C13.6077 7.08122 13.5685 6.75909 13.378 6.5238C13.3724 6.5168 13.3661 6.51049 13.3598 6.50419C13.3535 6.49789 13.3472 6.49159 13.3416 6.48458L9.18757 2.2745C9.04472 2.11484 8.84024 2.0224 8.62455 2.0224C8.40886 2.0224 8.20438 2.11484 8.06152 2.2745L3.88786 6.48178C3.87385 6.49299 3.86265 6.50699 3.85144 6.521L3.85144 6.521C3.66097 6.75629 3.62175 7.07842 3.7506 7.35293C3.87385 7.61904 4.13716 7.78991 4.43127 7.78991L6.2548 7.80391L6.2576 10.7059C6.2576 11.3697 6.79542 11.9076 7.45928 11.9076ZM14.5909 21.4874C14.7338 21.6498 14.9383 21.7423 15.154 21.7423C15.3696 21.7423 15.5741 21.6498 15.717 21.4902L19.8991 17.2745C19.9131 17.2633 19.9243 17.2493 19.9355 17.2353L19.9355 17.2353C20.1259 17 20.1624 16.6779 20.0335 16.4033C19.9103 16.1372 19.6442 15.9664 19.35 15.9664L17.5237 15.9524L17.5209 13.0476C17.5209 12.3837 16.9831 11.8459 16.3192 11.8459H13.9999C13.336 11.8487 12.7982 12.3865 12.7982 13.0504L12.8038 15.9524L10.9803 15.9664C10.6862 15.9664 10.4201 16.1372 10.2968 16.4033C10.1652 16.6779 10.2044 17 10.3949 17.2353C10.4005 17.2423 10.4068 17.2486 10.4131 17.2549C10.4194 17.2612 10.4257 17.2675 10.4313 17.2745L14.5909 21.4874Z" fill="#313235"/>
</svg>
