<svg width="24" height="24" viewBox="0 0 24 24" fill="none" xmlns="http://www.w3.org/2000/svg">
<path d="M3.67507 10.2885V10.2661C3.68067 9.87115 3.86835 9.4874 4.2353 9.12325L9.2605 4.07564L9.27731 4.05883C9.62465 3.7395 9.98599 3.61905 10.3557 3.69748C10.6919 3.77031 10.9608 4 11.1793 4.21849L11.1933 4.2325L16.0056 9.34734L18.5854 6.76751L18.5938 6.75911C18.9244 6.44258 19.4874 6.35014 19.9328 6.54062C20.3473 6.71709 20.5938 7.10645 20.5938 7.57984V19.6695C20.6134 19.9496 20.5238 20.2017 20.3389 20.3866C20.1541 20.5714 19.8992 20.6611 19.6218 20.6387L7.47619 20.6331C7.06163 20.6443 6.68347 20.4006 6.52101 20.0196C6.31653 19.563 6.40896 18.9692 6.7367 18.6134L6.7507 18.5966L9.12885 16.2185L4.22409 11.4286L4.21849 11.423C3.85714 11.07 3.67507 10.6863 3.67507 10.2885Z" fill="#313235"/>
</svg>
