<svg width="24" height="24" viewBox="0 0 24 24" fill="none" xmlns="http://www.w3.org/2000/svg">
<path fill-rule="evenodd" clip-rule="evenodd" d="M3.94397 20.3333C4.11204 20.5014 4.33613 20.591 4.58543 20.591C4.61064 20.591 4.63585 20.591 4.66386 20.5882H16.7507C17.2269 20.5882 17.6162 20.3417 17.7927 19.9271C17.9832 19.4818 17.8907 18.9187 17.5742 18.5882L17.5658 18.5798L14.986 16.0028L20.1064 11.1877L20.1204 11.1737C20.3389 10.9552 20.5686 10.6863 20.6414 10.3501C20.7199 9.98038 20.5994 9.61903 20.2801 9.27169L20.2633 9.25489L15.2129 4.22969C14.4762 3.49299 13.6358 3.48459 12.9075 4.21288L12.9019 4.21848L8.11203 9.12323L5.73389 6.74509C5.72828 6.74229 5.72268 6.73669 5.71708 6.73108C5.35854 6.40335 4.7675 6.31092 4.31092 6.5154C3.92157 6.68907 3.69468 7.04481 3.69748 7.47058L3.69187 19.6162C3.66947 19.8963 3.7591 20.1484 3.94397 20.3333ZM16.7507 19.5126H4.7675L4.7703 7.49019C4.83473 7.47618 4.94117 7.49019 4.98319 7.521L7.43136 9.96917C7.80671 10.3445 8.42296 10.3361 8.80671 9.95236L8.81231 9.94676L13.6694 4.97478C13.7731 4.86834 13.9243 4.74789 14.0504 4.74789C14.1512 4.75069 14.2941 4.83753 14.451 4.99439L19.4902 10.0112C19.5518 10.0812 19.5742 10.1232 19.5826 10.14C19.5714 10.1681 19.5294 10.2437 19.3613 10.4145L14.1736 15.2913L14.1624 15.3025C13.9804 15.4846 13.8767 15.7227 13.8683 15.9776C13.8599 16.2409 13.9608 16.4958 14.1428 16.6778L16.7955 19.3305C16.8207 19.3697 16.8263 19.4706 16.8039 19.507C16.7955 19.5098 16.7787 19.5126 16.7507 19.5126Z" fill="#313235"/>
</svg>
