<svg width="24" height="24" viewBox="0 0 24 24" fill="none" xmlns="http://www.w3.org/2000/svg">
<path fill-rule="evenodd" clip-rule="evenodd" d="M3.71594 20.3018C3.83639 20.4223 4.00166 20.4867 4.18653 20.4867C4.1939 20.4867 4.20157 20.4864 4.20935 20.4861C4.22522 20.4855 4.24152 20.4848 4.25656 20.4867H16.856C17.2398 20.4867 17.5395 20.299 17.6823 19.9685C17.8364 19.6099 17.7636 19.1422 17.5115 18.8788L17.5059 18.8732L14.7327 16.1001C14.6683 16.0385 14.6795 15.9265 14.7496 15.8564L19.9877 10.6884L19.9905 10.6856L19.9906 10.6854C20.2624 10.4109 20.8307 9.8367 20.1473 9.09173L20.1389 9.08333L15.0829 4.03291C14.7524 3.69958 14.4246 3.53711 14.0857 3.53151C13.744 3.52591 13.405 3.69117 13.0801 4.0161L7.98765 9.08893C7.95124 9.12815 7.90362 9.14776 7.8532 9.15056C7.82799 9.15056 7.78037 9.14496 7.74395 9.10854L5.18093 6.54552L5.17253 6.53711C4.88401 6.27101 4.38541 6.19538 4.01286 6.36064C3.70754 6.4951 3.53667 6.764 3.53947 7.09734L3.53387 19.764C3.51706 19.9741 3.58149 20.1674 3.71594 20.3018ZM4.24255 6.86764C4.30138 6.84243 4.37421 6.82843 4.44704 6.82843C4.57869 6.82843 4.71034 6.87045 4.79157 6.94327L7.3518 9.5035C7.49185 9.64075 7.67673 9.71358 7.87561 9.70798C8.06608 9.70238 8.25096 9.62115 8.38821 9.48389L13.4806 4.41106C13.6991 4.19257 13.8952 4.08893 14.0829 4.09173C14.2678 4.09454 14.4722 4.20658 14.6935 4.42787L19.7384 9.46989C19.9877 9.7444 19.9961 9.87885 19.5927 10.285L14.3546 15.4531C14.2145 15.5903 14.1361 15.7724 14.1305 15.9657C14.1249 16.1646 14.1977 16.3522 14.335 16.4895L17.1053 19.2598C17.1921 19.3522 17.2398 19.5707 17.1669 19.7388C17.1137 19.862 17.0157 19.9181 16.8532 19.9181H4.23975C4.23555 19.9181 4.23065 19.9188 4.22575 19.9195C4.22085 19.9202 4.21594 19.9209 4.21174 19.9209C4.16692 19.9265 4.12771 19.9181 4.1109 19.9013C4.09409 19.8845 4.08569 19.848 4.09129 19.8004C4.09409 19.792 4.09409 19.7808 4.09409 19.7724L4.0997 7.09173V7.08893C4.0997 7.0161 4.1165 6.92367 4.24255 6.86764Z" fill="#313235"/>
</svg>
