<svg width="24" height="24" viewBox="0 0 24 24" fill="none" xmlns="http://www.w3.org/2000/svg">
<path fill-rule="evenodd" clip-rule="evenodd" d="M20.1394 12.0997C22.4811 14.5983 22.3999 17.3686 19.8845 19.884C18.5904 21.1781 17.2374 21.8336 15.8649 21.8336H15.7893C14.4391 21.8111 13.1142 21.1557 11.8509 19.8924L11.6968 19.7439L11.6497 19.698L11.6496 19.6979C11.5424 19.5934 11.4367 19.4904 11.3439 19.3854L10.6604 18.7019C10.6557 18.6984 10.6505 18.6953 10.6454 18.6924L10.6454 18.6923C10.6384 18.6883 10.6317 18.6844 10.6268 18.6795L5.15061 13.2005C5.14534 13.1952 5.14228 13.1889 5.13935 13.1828C5.1376 13.1792 5.13589 13.1756 5.1338 13.1725L4.56797 12.6067C4.47274 12.5282 4.3579 12.4078 4.24306 12.2874L4.24304 12.2873L4.09458 12.1333C2.82848 10.8672 2.17582 9.54224 2.15061 8.1921C2.1254 6.78874 2.77806 5.41059 4.09458 4.09406C6.6464 1.53944 9.46153 1.50303 12.0246 3.98202L13.1814 5.13888C13.1857 5.14316 13.1916 5.1458 13.1967 5.14806L13.201 5.15008L18.6772 10.6291L18.6772 10.6291C18.68 10.6347 18.6828 10.6403 18.6856 10.6431L19.9545 11.912C20.019 11.9736 20.0806 12.0352 20.1394 12.0997ZM5.58758 11.8952L5.39991 11.7075C5.30467 11.6263 5.21783 11.5338 5.1282 11.4358L4.96013 11.2621C2.83688 9.13888 2.83688 7.07726 4.96013 4.95401C6.02175 3.89238 7.06657 3.36017 8.11419 3.36017C9.1254 3.36017 10.1366 3.85877 11.1618 4.85036L11.8957 5.58426L5.58758 11.8952ZM11.0638 17.3742L17.3691 11.0632L12.7584 6.45261L6.45313 12.7635L11.0638 17.3742ZM19.0162 19.0184C21.075 16.9596 21.1422 14.9652 19.2234 12.9148C19.1887 12.874 19.1615 12.848 19.1373 12.825L19.1373 12.825C19.1283 12.8165 19.1197 12.8083 19.1114 12.7999L19.0246 12.7159L18.2374 11.9288L11.9293 18.2369L12.2402 18.5478C12.3523 18.6739 12.4447 18.7635 12.54 18.8532L12.7136 19.0212C13.7472 20.0548 14.7865 20.5871 15.8089 20.6039C16.8369 20.6151 17.9461 20.0913 19.0162 19.0184ZM12.3803 11.4694C12.1366 11.2257 11.7444 11.2257 11.5007 11.4694C11.2598 11.7131 11.2598 12.1081 11.5007 12.349C11.7444 12.5927 12.1366 12.5927 12.3803 12.349C12.624 12.1053 12.624 11.7131 12.3803 11.4694ZM10.9489 14.3154C11.1926 14.0717 11.5876 14.0717 11.8285 14.3154C12.0722 14.559 12.0722 14.9512 11.8285 15.1949C11.5848 15.4386 11.1926 15.4386 10.9489 15.1949C10.708 14.954 10.708 14.559 10.9489 14.3154ZM15.2963 11.7299C15.54 11.4862 15.54 11.0941 15.2963 10.8504C15.0526 10.6067 14.6604 10.6067 14.4167 10.8504C14.173 11.0913 14.173 11.4862 14.4167 11.7299C14.6604 11.9736 15.0526 11.9736 15.2963 11.7299ZM8.71643 12.0604C8.96013 11.8168 9.35229 11.8168 9.59598 12.0604C9.83968 12.3041 9.83968 12.6963 9.59598 12.94C9.35229 13.1837 8.96013 13.1837 8.71643 12.94C8.47273 12.6963 8.47273 12.3041 8.71643 12.0604ZM13.0638 8.59266C12.8201 8.34896 12.4279 8.34896 12.1842 8.59266C11.9405 8.83636 11.9405 9.23132 12.1842 9.47221C12.4251 9.71591 12.8201 9.71591 13.0638 9.47221C13.3075 9.22852 13.3075 8.83636 13.0638 8.59266Z" fill="#313235"/>
</svg>
