<svg width="24" height="24" viewBox="0 0 24 24" fill="none" xmlns="http://www.w3.org/2000/svg">
<path fill-rule="evenodd" clip-rule="evenodd" d="M20.117 11.9701C22.4895 14.5023 22.4083 17.3146 19.8592 19.8609C18.5455 21.1774 17.1618 21.8356 15.778 21.8356C14.3999 21.8356 13.0189 21.1802 11.708 19.8665L11.5595 19.7236C11.4335 19.6032 11.3102 19.4827 11.2038 19.3595L10.5483 18.704C10.5427 18.6984 10.5364 18.6949 10.5301 18.6914C10.5238 18.6879 10.5175 18.6844 10.5119 18.6788L5.14779 13.3175C5.14359 13.3133 5.14079 13.3084 5.13799 13.3034C5.13519 13.2985 5.13239 13.2936 5.12819 13.2894L4.57637 12.7376C4.48953 12.6648 4.36908 12.5415 4.24863 12.4155L4.11138 12.2726C2.83687 10.9981 2.17581 9.6536 2.1506 8.27825C2.12539 6.84968 2.78365 5.44912 4.11418 4.12139C6.69961 1.53316 9.55955 1.49115 12.159 4.00935L13.2934 5.1438C13.2962 5.1466 13.2997 5.148 13.3032 5.1494C13.3067 5.1508 13.3102 5.1522 13.313 5.15501L18.6772 10.5163C18.6783 10.5175 18.6795 10.5196 18.6809 10.5221C18.6828 10.5256 18.6851 10.5299 18.6884 10.5331L19.9293 11.7712C19.9485 11.7913 19.9681 11.811 19.9875 11.8304L19.9875 11.8305L19.9875 11.8305L19.9876 11.8306C20.033 11.8762 20.0777 11.9211 20.117 11.9701ZM5.24583 11.1438C4.27104 10.169 3.76684 9.19421 3.75004 8.24744C3.73323 7.26985 4.23463 6.26145 5.24583 5.25305C6.24023 4.25865 7.21782 3.76285 8.19541 3.76285C9.14218 3.76285 10.0834 4.22504 11.0385 5.1494L11.6156 5.72643L5.71922 11.62L5.666 11.5668C5.58938 11.4997 5.5189 11.4265 5.44756 11.3525L5.4111 11.3147L5.24583 11.1438ZM18.9237 13.0373C20.7136 14.9477 20.6492 16.8104 18.7276 18.732C16.7472 20.7152 14.82 20.7152 12.8397 18.7404L12.6632 18.5695L12.6175 18.5256C12.5451 18.4564 12.4694 18.384 12.3747 18.2754L12.2094 18.113L18.1029 12.2222L18.7304 12.8469L18.8228 12.9365C18.848 12.9589 18.8761 12.9841 18.9237 13.0373ZM11.5119 12.3483C11.2738 12.1102 11.2738 11.7236 11.5119 11.4855C11.7472 11.2474 12.1338 11.2474 12.3747 11.4855C12.6128 11.7236 12.6128 12.1102 12.3747 12.3483C12.1338 12.5864 11.75 12.5864 11.5119 12.3483ZM10.9713 14.2698C10.7332 14.5079 10.7332 14.8945 10.9713 15.1326C11.2094 15.3707 11.596 15.3707 11.8341 15.1326C12.0721 14.8945 12.0721 14.5079 11.8341 14.2698C11.5932 14.0317 11.2094 14.0317 10.9713 14.2698ZM14.3635 10.8777C14.6016 10.6396 14.9881 10.6396 15.2262 10.8777C15.4643 11.1158 15.4643 11.4995 15.2262 11.7404C14.9881 11.9785 14.6016 11.9785 14.3635 11.7404C14.1254 11.5023 14.1254 11.1158 14.3635 10.8777ZM8.78364 12.0626C8.54555 12.3007 8.54555 12.6872 8.78364 12.9253C9.02174 13.1634 9.40829 13.1634 9.64638 12.9253C9.88448 12.6872 9.88448 12.3007 9.64638 12.0626C9.40829 11.8245 9.02174 11.8245 8.78364 12.0626ZM12.1758 9.53035C11.9377 9.29225 11.9377 8.9057 12.1758 8.6676C12.4139 8.43231 12.8004 8.43231 13.0385 8.6676C13.2766 8.9057 13.2766 9.29225 13.0385 9.53035C12.8004 9.76844 12.4139 9.76844 12.1758 9.53035Z" fill="#313235"/>
</svg>
