<svg width="24" height="24" viewBox="0 0 24 24" fill="none" xmlns="http://www.w3.org/2000/svg">
<path fill-rule="evenodd" clip-rule="evenodd" d="M16.9314 5.1572C17.5196 5.73984 17.8053 6.54936 17.8053 7.639V18.4989C17.8053 19.597 17.5168 20.4121 16.923 20.9919C16.3347 21.5662 15.5112 21.8463 14.4076 21.8463H8.89776C7.79412 21.8463 6.97059 21.5662 6.38235 20.9919C5.78852 20.4121 5.5 19.5942 5.5 18.4989V7.639C5.5 6.56897 5.78571 5.76224 6.37395 5.17401C6.96499 4.58577 7.78291 4.29726 8.86695 4.29166V3.84628C8.86695 3.33087 9.02101 2.91631 9.32073 2.61659C9.62605 2.31407 10.049 2.16 10.5756 2.16H12.7241C13.2591 2.16 13.6821 2.31126 13.9818 2.61098C14.2815 2.9079 14.4328 3.32247 14.4328 3.84348V4.28886C15.5308 4.29726 16.3487 4.58017 16.9314 5.1572ZM10.1331 3.84628C10.1331 3.72583 10.1471 3.56337 10.2199 3.49334C10.2927 3.41771 10.4552 3.4037 10.584 3.4065H12.7325C12.8361 3.4065 13.021 3.41491 13.0966 3.49054C13.1695 3.56337 13.1807 3.74544 13.1807 3.84628V4.29166H10.1331V3.84628ZM16.5448 7.639V18.4989C16.5448 19.2468 16.3796 19.7763 16.0378 20.1124C15.6961 20.4429 15.1639 20.6054 14.4104 20.6054H8.90056C8.14706 20.6054 7.61204 20.4457 7.27311 20.1124C6.92857 19.7791 6.76331 19.2496 6.76331 18.5017V7.6418C6.76331 6.91351 6.92857 6.3925 7.27311 6.05076C7.62045 5.70342 8.15266 5.53535 8.89776 5.53535H14.4076C15.1639 5.53535 15.6961 5.69782 16.0378 6.03675C16.3796 6.37289 16.5448 6.8967 16.5448 7.639ZM15.7969 17.5802C15.7969 17.2356 15.514 16.9583 15.1667 16.9583H8.14426C7.79692 16.9583 7.51401 17.2384 7.51401 17.5802V17.8743C7.51401 19.0928 8.45518 20.0844 9.60924 20.0844H13.7017C14.8557 20.0844 15.7969 19.0928 15.7969 17.8743V17.5802Z" fill="#313235"/>
</svg>
