<svg width="24" height="24" viewBox="0 0 24 24" fill="none" xmlns="http://www.w3.org/2000/svg">
<path fill-rule="evenodd" clip-rule="evenodd" d="M15.2001 4.13725C16.245 4.15966 17.0349 4.43697 17.6035 4.9972C18.1917 5.57983 18.4775 6.39216 18.4831 7.47899V18.3389C18.4831 19.4342 18.1945 20.2493 17.6007 20.8319C17.0125 21.4062 16.1889 21.6863 15.0853 21.6863H9.57549C8.47185 21.6863 7.64832 21.4062 7.06009 20.8319C6.46625 20.2521 6.17773 19.437 6.17773 18.3389V7.47899C6.17773 6.40616 6.46345 5.59944 7.05168 5.01401C7.64832 4.42017 8.47465 4.13165 9.57269 4.13165H9.63432V3.68627C9.63432 3.16807 9.78558 2.7563 10.0881 2.45658C10.3906 2.15406 10.8136 2 11.343 2H13.4915C14.0237 2 14.4466 2.15126 14.7464 2.45098C15.0489 2.7507 15.2001 3.16527 15.2001 3.68627V4.13725ZM10.8948 3.68627C10.8948 3.56303 10.9088 3.40336 10.9817 3.33333C11.0545 3.2605 11.2198 3.2437 11.343 3.2437H13.4915C13.5951 3.2437 13.7828 3.2549 13.8528 3.32773C13.9284 3.40056 13.9396 3.58263 13.9396 3.68627V4.13165H10.8948V3.68627ZM17.2169 18.3389C17.2169 19.0868 17.0517 19.6162 16.7071 19.9496C16.3654 20.2829 15.8332 20.4426 15.0797 20.4426H9.57269C8.81919 20.4426 8.28418 20.2829 7.94524 19.9496C7.6007 19.6162 7.43544 19.0868 7.43544 18.3389V7.47899C7.43544 6.7507 7.6007 6.22969 7.94804 5.88796C8.29538 5.54062 8.82759 5.37255 9.57269 5.37255H15.0825C15.8388 5.37255 16.371 5.53782 16.7127 5.87395C17.0545 6.21289 17.2198 6.73669 17.2198 7.47899L17.2169 18.3389Z" fill="#313235"/>
</svg>
