<svg width="24" height="24" viewBox="0 0 24 24" fill="none" xmlns="http://www.w3.org/2000/svg">
<path fill-rule="evenodd" clip-rule="evenodd" d="M21.4139 5.67312C21.4251 5.57508 21.3887 5.46303 21.3131 5.3818C19.8593 3.81318 18.229 2.80478 16.4671 2.38181C14.9125 2.00926 13.257 2.08769 11.526 2.6031C13.7444 2.8664 16.6604 3.90842 19.5203 6.95883L21.2178 5.95603C21.3271 5.8888 21.3971 5.79357 21.4139 5.67312ZM18.2907 7.68432L13.1226 10.7375L9.06378 3.97004C10.7108 3.74875 14.526 3.79077 18.2907 7.68432ZM7.90692 4.78517C6.96854 6.26976 5.48675 9.63389 7.32429 14.1633L11.9069 11.4574L7.90692 4.78517ZM6.0974 14.886C4.44194 10.998 4.97695 7.82718 5.82849 5.75155C4.18704 7.15771 3.14502 8.74034 2.74446 10.4826C2.34671 12.1745 2.55959 14.0176 3.38032 15.9588C3.42233 16.0569 3.51197 16.1353 3.63242 16.1745C3.83058 16.2285 3.88924 16.1927 3.96698 16.1453L3.98816 16.1325L6.0974 14.886ZM7.79768 4.64231L7.42513 4.02046C7.23185 3.69553 7.3495 3.27817 7.69123 3.09049C8.03297 2.90562 8.46994 3.01766 8.66602 3.34539L9.01616 3.93082L7.79768 4.64231ZM19.1534 20.8159L13.1282 10.7627L11.9097 11.477L17.9153 21.4938C18.047 21.7123 18.285 21.8356 18.5343 21.8356C18.6548 21.8356 18.7752 21.8047 18.8873 21.7459C19.229 21.5582 19.3495 21.1437 19.1534 20.8159Z" fill="#313235"/>
</svg>
