<svg width="24" height="24" viewBox="0 0 24 24" fill="none" xmlns="http://www.w3.org/2000/svg">
<path fill-rule="evenodd" clip-rule="evenodd" d="M21.6424 8.05544C21.6648 8.13387 21.6648 8.20949 21.6536 8.28511C21.6704 8.37474 21.6844 8.46437 21.6872 8.5652V20.0123C21.6872 20.9366 20.8693 21.69 19.861 21.69H3.82896C2.82065 21.69 2.0028 20.9366 2.0028 20.0123V8.5652C2.0028 8.40275 2.03361 8.2487 2.08122 8.10026C2.08262 8.09326 2.08262 8.08695 2.08262 8.08065C2.08262 8.07435 2.08262 8.06805 2.08402 8.06105L3.41723 3.322C3.46485 2.58818 4.18747 2.0028 5.06973 2.0028H18.6175C19.4969 2.0028 20.2167 2.58538 20.27 3.3192L21.6424 8.05544ZM18.8219 3.40323C18.8219 3.45364 18.8275 3.50126 18.8443 3.54887L19.8106 6.88189H14.4134L13.9512 3.22677H18.6147C18.7295 3.22957 18.8219 3.3052 18.8219 3.40323ZM4.86247 3.40323C4.86247 3.45084 4.85687 3.49846 4.84287 3.54607L3.90178 6.88469H8.94332L9.32983 3.22957H5.06973C4.9549 3.22957 4.86247 3.308 4.86247 3.40323ZM19.8554 20.4548C20.0571 20.4548 20.2336 20.2448 20.2336 20.0067V8.5596C20.2336 8.32153 20.0571 8.11146 19.8554 8.11146H14.4946L14.4974 10.5734C14.4974 10.9123 14.1725 11.1868 13.772 11.1868H9.59311C9.19259 11.1868 8.86769 10.9123 8.86769 10.5734V8.11146H3.82335C3.62169 8.11146 3.44804 8.32153 3.44804 8.5596V20.0067C3.44804 20.2448 3.62169 20.4548 3.82335 20.4548H19.8554ZM13.0494 8.11146V9.95722H10.3185V8.11146H13.0494ZM12.9569 6.88189L12.492 3.23237H10.7807L10.3942 6.88189H12.9569Z" fill="#313235"/>
</svg>
