<svg width="24" height="24" viewBox="0 0 24 24" fill="none" xmlns="http://www.w3.org/2000/svg">
<path fill-rule="evenodd" clip-rule="evenodd" d="M21.6442 8.05599C21.6666 8.13443 21.6666 8.21005 21.6554 8.28568C21.6722 8.37532 21.6862 8.46496 21.689 8.5658V20.0139C21.689 20.9383 20.8711 21.6918 19.8627 21.6918H3.82912C2.82072 21.6918 2.0028 20.9383 2.0028 20.0139V8.5658C2.0028 8.40333 2.03361 8.24927 2.08123 8.10081C2.08263 8.09381 2.08263 8.08751 2.08263 8.0812C2.08263 8.0749 2.08263 8.0686 2.08403 8.0616L3.41736 3.32212C3.46498 2.58823 4.18766 2.0028 5.07001 2.0028H18.619C19.4985 2.0028 20.2184 2.58543 20.2716 3.31932L21.6442 8.05599ZM18.8235 3.40335C18.8235 3.45377 18.8291 3.50139 18.8459 3.54901L19.8122 6.88233H14.4145L13.9523 3.22688H18.6162C18.731 3.22969 18.8235 3.30532 18.8235 3.40335ZM4.86273 3.40335C4.86273 3.45097 4.85713 3.49859 4.84312 3.54621L3.89915 6.88513H8.94114L9.3277 3.22969H5.06721C4.95517 3.22969 4.86273 3.30812 4.86273 3.40335ZM19.8571 20.4565C20.0587 20.4565 20.2352 20.2464 20.2352 20.0083V8.56019C20.2352 8.3221 20.0587 8.11202 19.8571 8.11202H14.4957L14.4985 10.5742C14.4985 10.9131 14.1736 11.1876 13.7731 11.1876H9.5938C9.19324 11.1876 8.86832 10.9131 8.86832 10.5742V8.11202H3.82352C3.62184 8.11202 3.44817 8.3221 3.44817 8.56019V20.0083C3.44817 20.2464 3.62184 20.4565 3.82352 20.4565H19.8571Z" fill="#313235"/>
</svg>
