<svg width="24" height="24" viewBox="0 0 24 24" fill="none" xmlns="http://www.w3.org/2000/svg">
<path fill-rule="evenodd" clip-rule="evenodd" d="M16.794 3.83194C19.8221 4.07284 20.8865 6.60505 20.8865 8.78992C20.8865 9.35015 20.8025 10.6863 20.0994 11.8487C20.8025 13.0084 20.8865 14.3389 20.8865 14.8992C20.8865 17.1008 19.8053 19.6555 16.7912 19.8684C16.2983 21.0336 15.259 21.6891 13.8669 21.6891C12.9565 21.6891 12.3123 21.2465 11.8753 20.7227C11.4607 21.2129 10.8137 21.6891 9.85848 21.6891C8.46352 21.6891 7.4215 21.028 6.9313 19.86C3.90329 19.6163 2.83887 17.084 2.83887 14.8992C2.83887 14.3389 2.9229 13.0028 3.62598 11.8431C2.9229 10.6863 2.83887 9.35295 2.83887 8.79272C2.83887 6.59104 3.9229 4.03642 6.93411 3.82354C7.4271 2.65827 8.46632 2.00281 9.85848 2.00281C10.7688 2.00281 11.4131 2.44538 11.8501 2.96919C12.2646 2.479 12.9117 2.00281 13.8669 2.00281C15.2618 2.00281 16.3039 2.66107 16.794 3.83194ZM16.3655 18.549C16.1974 18.549 15.9621 18.4818 15.724 18.3277C15.4747 18.1681 15.3151 17.9944 15.2534 17.8151C15.133 17.4678 14.7464 17.2829 14.3935 17.4006C14.0377 17.5182 13.8473 17.8936 13.9705 18.2409C14.133 18.7087 14.4719 19.1093 14.9817 19.437C15.1134 19.521 15.2478 19.591 15.3795 19.6499C15.0714 20.1205 14.5728 20.3585 13.8669 20.3585C12.9817 20.3585 12.626 19.451 12.5419 19.1905C12.5447 18.9636 12.5476 18.4034 12.5419 18.2661V5.41737C12.5419 5.2437 12.5476 4.62186 12.5504 4.35855C12.6652 4.09524 13.0686 3.32494 13.8669 3.32494C14.5784 3.32494 15.0686 3.55463 15.3739 4.02522C14.7128 4.33894 14.2674 4.93558 14.0602 5.51261L13.9985 5.69468L15.2926 6.08964L15.3375 5.95239C15.4495 5.64426 15.7268 5.14006 16.3627 5.13166H16.3711C19.217 5.13166 19.5251 7.68908 19.5251 8.78992C19.5251 9.09805 19.4831 10.0112 19.0938 10.8459C18.6428 10.563 18.1666 10.4006 17.7324 10.3193C17.766 9.86555 17.5784 9.43698 17.273 9.12326L17.203 9.05043C16.9453 8.78432 16.5476 8.80673 16.2758 9.05883C16.0041 9.31093 16.0237 9.76191 16.2814 10.0252C16.3739 10.1205 16.3935 10.1877 16.3739 10.2521H16.3683C16.2646 10.2633 16.1386 10.2773 16.0209 10.2913C15.9173 10.3053 15.7772 10.3305 15.6092 10.367C15.245 10.4482 15.0181 10.8039 15.1022 11.1625C15.1862 11.521 15.556 11.7451 15.9145 11.6583C16.0321 11.6331 16.1302 11.6135 16.203 11.605L16.285 11.5955C16.3595 11.5866 16.4362 11.5776 16.5055 11.5714C16.8473 11.535 18.0069 11.4874 18.752 12.2633C19.4663 13.2017 19.5223 14.5098 19.5223 14.8908C19.5307 15.9888 19.2254 18.5042 16.3767 18.5518C16.3739 18.5518 16.3683 18.549 16.3655 18.549ZM9.85848 20.3614C9.161 20.3614 8.6792 20.1373 8.37108 19.6835C8.52794 19.6191 8.68761 19.5406 8.84447 19.4398C9.35427 19.1121 9.69601 18.7115 9.85567 18.2437C9.97612 17.8964 9.78565 17.521 9.4327 17.4034C9.07696 17.2857 8.69321 17.4706 8.57276 17.8179C8.51114 17.9972 8.35147 18.1709 8.10217 18.3305C7.86408 18.4846 7.63719 18.5518 7.46072 18.549C7.44164 18.5473 7.42364 18.5509 7.40539 18.5546C7.39415 18.5569 7.38282 18.5592 7.37108 18.5602C7.36645 18.5602 7.36183 18.5594 7.35767 18.5586C7.35577 18.5583 7.35397 18.5579 7.35231 18.5577C7.351 18.5575 7.34978 18.5574 7.34867 18.5574C4.50273 18.5574 4.19461 15.9972 4.19461 14.8992C4.19461 14.577 4.23943 13.5882 4.68481 12.7227C4.88369 12.7927 5.09937 12.8431 5.33467 12.8684C5.39909 13.4846 5.83607 13.9272 6.36268 14.1233C6.37388 14.1289 6.46912 14.1625 6.48032 14.1653C6.55035 14.1905 6.62038 14.1989 6.68761 14.1989C6.95651 14.1989 7.19461 14.0224 7.29825 13.7507C7.4271 13.4118 7.20861 13.0196 6.86408 12.8908C6.73523 12.8431 6.69041 12.7871 6.682 12.7171C7.50553 12.3782 7.88929 11.6022 7.96492 10.888L7.98172 10.7087C8.00133 10.3445 7.71842 10.0308 7.34307 10.0084C6.95651 9.9888 6.64839 10.2661 6.62598 10.6331L6.61478 10.7535C6.52443 11.6214 5.82661 11.5795 5.5702 11.564L5.55315 11.563C5.27864 11.5406 5.07136 11.465 4.9313 11.3586C4.25904 10.4258 4.20021 9.16527 4.20021 8.79272C4.20021 7.69188 4.50833 5.13446 7.4327 5.13446H7.43831C8.07416 5.13446 8.37948 5.64426 8.48873 5.94959L8.54195 6.11205C8.63439 6.38656 8.89209 6.55463 9.1722 6.55463C9.24503 6.55463 9.32066 6.54342 9.39349 6.51821C9.74923 6.40617 9.93691 6.01401 9.82206 5.66667L9.77164 5.51821C9.55595 4.91597 9.09377 4.30813 8.38228 4.00561C8.69321 3.56023 9.1778 3.33054 9.86408 3.33054C10.7492 3.33054 11.105 4.2409 11.189 4.49861C11.1862 4.7255 11.1834 5.28572 11.189 5.42298V18.2745C11.189 18.4482 11.1834 19.0672 11.1806 19.3333C11.063 19.591 10.6596 20.3614 9.85848 20.3614Z" fill="#313235"/>
</svg>
