<svg width="24" height="24" viewBox="0 0 24 24" fill="none" xmlns="http://www.w3.org/2000/svg">
<path fill-rule="evenodd" clip-rule="evenodd" d="M19.4789 11.9524C19.8151 11.9524 20.0896 12.2269 20.0896 12.5686V14.2129C20.0924 14.5518 19.8179 14.8263 19.4789 14.8291C19.14 14.8263 18.8683 14.5518 18.8711 14.2129V13.1848H17.647C17.647 13.2153 17.6477 13.2437 17.6484 13.2725L17.6484 13.2725C17.6491 13.3019 17.6498 13.3316 17.6498 13.3641C17.6498 14.9495 17.5238 16.3165 17.1512 17.4257L19.126 18.0336C19.3949 18.1176 19.5714 18.3753 19.5574 18.6554L19.4257 21.1316C19.4117 21.4565 19.1428 21.7114 18.8179 21.7142H18.7843C18.4453 21.6946 18.1876 21.4033 18.2072 21.0672L18.3137 19.0728L16.6274 18.5546C15.7955 19.8711 14.3473 20.605 11.8851 20.605C9.41174 20.605 7.96357 19.8655 7.13444 18.5434L5.40895 19.0728L5.51539 21.0672C5.535 21.4061 5.2773 21.6946 4.93836 21.7142H4.90475C4.57982 21.7114 4.31372 21.4565 4.29691 21.1316L4.16526 18.6554C4.14845 18.3725 4.32772 18.1176 4.59663 18.0308L6.61063 17.4117C6.24368 16.3053 6.11763 14.9411 6.11763 13.3613L6.12043 13.182H4.89915V14.2129C4.90195 14.5518 4.62744 14.8263 4.29131 14.8291C3.95237 14.8263 3.68066 14.5518 3.68066 14.2129V12.5686C3.68066 12.2269 3.95517 11.9524 4.29131 11.9524H6.16245C6.24088 10.6638 6.45657 9.39774 7.02519 8.38093L4.59663 7.63584C4.32772 7.5518 4.14845 7.2941 4.16526 7.01119L4.29691 4.535C4.31372 4.19887 4.59943 3.93556 4.93556 3.95237C5.2717 3.97198 5.5294 4.26049 5.51259 4.59943L5.40615 6.59382L7.69186 7.2969C7.5322 6.91315 7.44816 6.46777 7.44816 5.94396C7.44816 4.10643 8.42295 3.34173 9.77029 3.03641C9.56581 2.79271 9.57981 2.43417 9.8011 2.20728C10.0336 1.96918 10.4145 1.96638 10.6526 2.19887L10.661 2.20728L11.3053 2.85994C11.689 2.84593 12.07 2.84313 12.4538 2.85713L13.098 2.20448C13.3333 1.96638 13.7143 1.96358 13.9524 2.19887L13.958 2.20448C14.1792 2.43137 14.1904 2.78711 13.9888 3.028C15.3445 3.32772 16.3305 4.09243 16.3305 5.93836C16.3305 6.45377 16.2493 6.89354 16.0952 7.27169L18.3109 6.59102L18.2044 4.59663C18.1848 4.25769 18.4425 3.96918 18.7815 3.94957C19.1036 3.92436 19.4061 4.19047 19.4229 4.5322L19.5546 7.00839C19.5714 7.2913 19.3921 7.5462 19.1232 7.63023L16.7339 8.36132C17.2241 9.22407 17.5042 10.3753 17.5994 11.9439C17.605 11.9524 19.4789 11.9524 19.4789 11.9524ZM11.8935 4.08402C9.15124 4.08402 8.66945 4.68346 8.66945 5.94396C8.66945 6.2773 8.71147 6.52379 8.77589 6.71427C9.58821 6.31651 10.6134 6.11763 11.8851 6.11763C13.1624 6.11763 14.1876 6.31931 15 6.71987C15.0644 6.5294 15.1148 6.2885 15.1148 5.94396C15.1176 4.68346 14.6358 4.08402 11.8935 4.08402ZM11.2129 9.27449C11.2101 8.93555 11.4818 8.66104 11.8207 8.65824C12.1596 8.66104 12.4313 8.93555 12.4313 9.27449V17.2072C12.4313 17.5462 12.1568 17.8235 11.8207 17.8235C11.4846 17.8235 11.2129 17.5462 11.2129 17.2072V9.27449Z" fill="#313235"/>
</svg>
