<svg width="24" height="24" viewBox="0 0 24 24" fill="none" xmlns="http://www.w3.org/2000/svg">
<path d="M12.0105 17.8617C12.4072 17.8847 12.5233 18.0956 12.6578 18.2568C12.793 18.4181 14.7575 20.7755 14.8912 20.9284C15.0238 21.0831 15.3911 21.3664 15.7951 21.4202C16.1984 21.4736 16.641 21.3921 16.9242 21.1874C17.2067 20.9825 17.5656 20.7036 17.6917 20.5178C17.8169 20.3319 18.0305 20.0651 17.9911 19.6267C17.9514 19.1891 17.8556 18.9602 17.5134 18.5845C17.1716 18.2092 15.1496 15.8328 14.7691 15.3768C14.7691 15.3768 14.4233 14.9711 14.4735 14.3978C14.5238 13.8234 14.7835 13.5671 15.3304 13.4243C15.8767 13.2823 18.0133 12.7653 18.0133 12.7653C18.0133 12.7653 19.2364 12.1861 18.9591 11.0388L18.7999 10.452C18.7999 10.452 18.5336 9.11317 16.7759 9.52777C15.0172 9.9434 14.0401 10.1885 14.0401 10.1885C14.0401 10.1885 13.4801 10.2419 13.4 9.87199C13.3209 9.50189 13.4247 9.31084 13.6721 9.20777C13.9194 9.10448 15.4806 8.3587 15.6808 6.34264C15.8826 4.32576 14.1941 2.53283 12.0046 2.54049C9.81439 2.54877 8.22971 4.19991 8.23627 5.90921C8.24282 7.61934 9.35165 8.75715 10.2039 9.18189C10.6876 9.42262 10.5328 9.85605 10.5328 9.85605C10.5328 9.85605 10.4167 10.2777 9.90765 10.1655C9.3986 10.0512 6.93287 9.48678 6.93287 9.48678C6.93287 9.48678 5.44569 9.21128 5.08658 10.6794C4.72705 12.1489 5.56306 12.7071 6.17659 12.8454C6.7899 12.9834 8.86481 13.4858 8.86481 13.4858C8.86481 13.4858 9.48214 13.7905 9.50625 14.4154C9.52127 14.7848 9.5219 15.0912 9.13298 15.6416C8.74468 16.1917 6.32992 19.0074 6.32992 19.0074C6.32992 19.0074 5.49983 19.9931 6.70256 20.8814C7.90529 21.77 8.58205 21.5631 9.29603 20.7444C10.0094 19.926 11.4192 18.2121 11.4192 18.2121C11.4192 18.2121 11.6137 17.8394 12.0105 17.8617Z" fill="#660099"/>
</svg>
