<svg width="24" height="24" fill="none" xmlns="http://www.w3.org/2000/svg"><path d="M17.714 18.517c0-.398.322-.724.715-.724H22v3.62a.721.721 0 0 1-.714.725.721.721 0 0 1-.715-.724v-1.195c-1.928 1.412-4.892 2.281-8.214 2.281C6.536 22.5 2 19.712 2 16.164c0-1.557.857-2.97 2.5-4.128V6.388c0-.254.143-.47.357-.616L12 1.61a.641.641 0 0 1 .714 0l7.143 4.163a.702.702 0 0 1 .357.616v8.328c0 .253-.143.47-.357.615l-7.143 4.164a.683.683 0 0 1-.357.108.682.682 0 0 1-.357-.108L4.857 15.33c-.214-.109-.357-.362-.357-.615v-.833c-.607.615-1.071 1.376-1.071 2.28 0 2.68 4 4.889 8.928 4.889 2.857 0 5.429-.688 7.107-1.81H18.43a.721.721 0 0 1-.715-.725Zm-6.071-7.53L5.929 7.618v6.698l5.714 3.331v-6.662Zm1.428 6.625 5.715-3.295V7.62l-5.715 3.367v6.626Zm4.965-11.224-5.679-3.331-5.678 3.33 5.678 3.332 5.679-3.331Z" fill="#003"/></svg>