<svg width="24" height="24" fill="none" xmlns="http://www.w3.org/2000/svg"><path d="M14.857 15.57c-1.97 0-3.57-1.6-3.57-3.57a3.572 3.572 0 0 1 6.07-2.55.71.71 0 0 1 .009 1.01.71.71 0 0 1-1.01.009 2.14 2.14 0 0 0-1.5-.613 2.144 2.144 0 1 0 2.02 2.861h-1.448a.714.714 0 0 1 0-1.426h2.285c.393 0 .713.32.713.713a3.57 3.57 0 0 1-3.57 3.565Z" fill="#003"/><path d="M2 12c0 5.517 4.488 10 10 10s10-4.488 10-10S17.512 2 12 2 2 6.484 2 12Zm1.43 0c0-4.726 3.844-8.57 8.57-8.57 4.726 0 8.57 3.844 8.57 8.57 0 4.726-3.844 8.57-8.57 8.57-4.726 0-8.57-3.844-8.57-8.57Z" fill="#003"/><path d="M8.787 14.856a.714.714 0 1 0 1.426-.004v-.713h.357a.714.714 0 0 0 0-1.426h-.357v-3.57A.714.714 0 0 0 9.5 8.43h-.356a.72.72 0 0 0-.572.284L5.36 13a.718.718 0 0 0-.068.75c.123.242.37.392.64.392h2.856v.713Zm-.005-2.143H7.356l1.426-1.901v1.9Z" fill="#003"/></svg>