<svg width="24" height="24" fill="none" xmlns="http://www.w3.org/2000/svg"><path d="m17.927 17.17 3.857 4.05a.755.755 0 0 1 .004 1.053.686.686 0 0 1-.5.227.824.824 0 0 1-.5-.189l-4.145-4.351c-1.428.714-3 1.088-4.645 1.088-4.248 0-8.145-2.663-9.889-6.74a.862.862 0 0 1 0-.601c.608-1.424 1.464-2.7 2.572-3.713a.671.671 0 0 1 1 .038.753.753 0 0 1-.036 1.05 8.842 8.842 0 0 0-2.108 2.923c1.572 3.372 4.857 5.548 8.465 5.548a8.867 8.867 0 0 0 3.573-.752l-.82-.861c-.789.6-1.717.937-2.753.937-2.572 0-4.644-2.176-4.644-4.876 0-1.088.32-2.067.892-2.89L2.213 2.774a.753.753 0 0 1 0-1.05.67.67 0 0 1 1 0l4.14 4.309a10.44 10.44 0 0 1 4.645-1.088c4.285 0 8.145 2.663 9.894 6.749a.862.862 0 0 1 0 .6c-.893 2.025-2.249 3.713-3.965 4.877Zm-9.145-5.174c0 1.878 1.432 3.377 3.216 3.377.644 0 1.216-.189 1.713-.53l-4.43-4.648c-.32.525-.5 1.125-.5 1.801Zm5.933 1.802c.32-.525.5-1.126.5-1.802 0-1.877-1.432-3.376-3.217-3.376-.644 0-1.216.189-1.716.525l4.433 4.653Zm1.928-1.802c0 1.088-.32 2.067-.892 2.89l1.176 1.192a9.612 9.612 0 0 0 3.536-4.086c-1.572-3.372-4.856-5.548-8.465-5.548-1.252 0-2.428.265-3.572.752l.82.86a4.466 4.466 0 0 1 2.752-.936c2.573 0 4.645 2.176 4.645 4.876Z" fill="#003"/></svg>