<svg width="24" height="24" viewBox="0 0 24 24" fill="none" xmlns="http://www.w3.org/2000/svg">
<path fill-rule="evenodd" clip-rule="evenodd" d="M17.927 16.6705L21.7835 20.7191C22.0715 21.0215 22.0715 21.4708 21.7875 21.7732C21.6435 21.9244 21.4674 22 21.2874 22C21.1074 22 20.9314 21.9244 20.7873 21.811L16.6428 17.46C15.2146 18.174 13.6425 18.5478 11.9982 18.5478C7.74972 18.5478 3.85323 15.8851 2.10901 11.8071C2.037 11.6181 2.037 11.3955 2.10901 11.2065C2.71709 9.78281 3.5732 8.50607 4.68133 7.49393C4.96537 7.19574 5.42943 7.23354 5.68146 7.53172C5.9655 7.82991 5.92949 8.31708 5.64546 8.58167C4.75334 9.40483 4.03725 10.3792 3.53719 11.5047C5.10939 14.8772 8.3938 17.0526 12.0022 17.0526C13.2544 17.0526 14.4666 16.7881 15.5747 16.3009L14.7546 15.4399C13.9665 16.0405 13.0384 16.3765 12.0022 16.3765C9.42993 16.3765 7.35767 14.201 7.35767 11.5005C7.35767 10.4128 7.67771 9.43423 8.24978 8.61107L2.21303 2.27359C1.92899 1.9754 1.92899 1.52182 2.21303 1.22364C2.49706 0.925454 2.92912 0.925454 3.21315 1.22364L7.35367 5.53262C8.78185 4.81866 10.39 4.44488 11.9982 4.44488C16.2828 4.44488 20.1433 7.10754 21.8915 11.1939C21.9635 11.3829 21.9635 11.6055 21.8915 11.7945C20.9994 13.8188 19.6432 15.5071 17.927 16.6705ZM8.78185 11.4963C8.78185 13.3736 10.214 14.873 11.9982 14.873C12.6423 14.873 13.2144 14.684 13.7105 14.3438L9.28191 9.69462C8.96187 10.2196 8.78185 10.8202 8.78185 11.4963ZM14.7146 13.298L10.282 8.64467C10.7821 8.30868 11.3542 8.11969 11.9982 8.11969C13.7825 8.11969 15.2146 9.61902 15.2146 11.4963C15.2146 12.1725 15.0346 12.7731 14.7146 13.298ZM16.6428 11.4963C16.6428 12.5841 16.3228 13.5626 15.7507 14.3858L16.9269 15.5785C18.4271 14.6042 19.6792 13.2182 20.4633 11.4921C18.8911 8.11969 15.6067 5.9442 11.9982 5.9442C10.7461 5.9442 9.56995 6.20879 8.4258 6.69597L9.2459 7.55692C10.034 6.95635 10.9621 6.62037 11.9982 6.62037C14.5706 6.62037 16.6428 8.79586 16.6428 11.4963Z" fill="#000033"/>
</svg>
