<svg width="24" height="24" viewBox="0 0 24 24" fill="none" xmlns="http://www.w3.org/2000/svg">
<path fill-rule="evenodd" clip-rule="evenodd" d="M17 3H7L2 12L7 21H17L22 12L17 3ZM20.368 12L16.1817 19.5329H7.81826L3.63201 12L7.81374 4.46708H16.1817L20.368 12ZM15.3544 12.7335C15.7432 12.7335 16.0597 12.4044 16.0597 12C16.0597 11.5956 15.7432 11.2665 15.3544 11.2665H12.7052V8.51097C12.7052 8.10658 12.3888 7.77743 12 7.77743C11.6112 7.77743 11.2948 8.10658 11.2948 8.51097V11.2665H8.64557C8.25678 11.2665 7.94033 11.5956 7.94033 12C7.94033 12.4044 8.25678 12.7335 8.64557 12.7335H11.2948V15.489C11.2948 15.8934 11.6112 16.2226 12 16.2226C12.3888 16.2226 12.7052 15.8934 12.7052 15.489V12.7335H15.3544Z" fill="#313235"/>
</svg>
