<svg width="24" height="24" viewBox="0 0 24 24" fill="none" xmlns="http://www.w3.org/2000/svg">
<path fill-rule="evenodd" clip-rule="evenodd" d="M12.6081 3.36687L21.8937 19.8994C22.0354 20.1205 22.0354 20.4168 21.8937 20.6331C21.784 20.8542 21.5371 21 21.2856 21H2.71437C2.46291 21 2.24803 20.8542 2.1063 20.6331C1.96457 20.4121 1.96457 20.1205 2.1063 19.8994L11.3919 3.36687C11.5017 3.14581 11.7485 3 12 3C12.2515 3 12.4663 3.14581 12.6081 3.36687ZM12 5.2012L3.96251 19.5325H20.0375L18.2499 16.3342L12 5.2012ZM12 8.69114C11.6068 8.69114 11.2868 9.02038 11.2868 9.42488V15.1207C11.2868 15.5252 11.6068 15.8545 12 15.8545C12.3932 15.8545 12.7132 15.5252 12.7132 15.1207V9.42958C12.7132 9.02508 12.3932 8.69114 12 8.69114ZM11.2868 17.6935C11.2868 17.289 11.6068 16.9598 12 16.9598C12.3932 16.9598 12.7132 17.289 12.7132 17.6935C12.7132 18.098 12.3932 18.4272 12 18.4272C11.6068 18.4272 11.2868 18.098 11.2868 17.6935Z" fill="#000033"/>
</svg>
