<svg width="24" height="24" viewBox="0 0 24 24" fill="none" xmlns="http://www.w3.org/2000/svg">
<path fill-rule="evenodd" clip-rule="evenodd" d="M5.68186 2H18.3138C18.694 2 18.9956 2.30945 19 2.69404V21H10.1227V15.819H8.41367V20.9956H5V2.68962C5 2.30945 5.30596 2 5.68186 2ZM11.4864 19.6163H17.6319V3.38367H6.36372V19.6163H7.04558V14.4353H11.4864V19.6163ZM7.04558 12.5344H11.4864V9.42671H7.04558V12.5344ZM10.4593 10.4656H8.06837V11.5H10.4593V10.4656ZM12.5092 12.5344H16.95V9.42671H12.5092V12.5344ZM15.9229 10.4656H13.532V11.5H15.9229V10.4656ZM12.5092 17.543H16.95V14.4353H12.5092V17.543ZM15.9229 15.4698H13.532V16.5042H15.9229V15.4698ZM7.04558 7.70265H11.4864V4.59051H7.04558V7.70265ZM10.4593 5.62936H8.06837V6.6638H10.4593V5.62936ZM12.5092 7.70265H16.95V4.59051H12.5092V7.70265ZM15.9229 5.62936H13.532V6.6638H15.9229V5.62936Z" fill="#000033"/>
</svg>
