<svg width="24" height="24" viewBox="0 0 24 24" fill="none" xmlns="http://www.w3.org/2000/svg">
<path d="M7.26621 22C7.08624 22 6.90626 21.932 6.77028 21.796C6.49433 21.52 6.49433 21.076 6.77028 20.804L15.6849 11.888L19.3964 15.6C19.7043 15.908 20.0603 15.792 20.1603 15.752C20.2603 15.708 20.5962 15.54 20.5962 15.104V3.404H8.90196C8.46603 3.404 8.29406 3.736 8.25406 3.84C8.21007 3.94 8.09809 4.296 8.40604 4.604L12.1175 8.316L3.19882 17.232C2.92286 17.504 2.47893 17.508 2.20697 17.232C1.93101 16.956 1.93101 16.512 2.20697 16.24L10.1298 8.316L7.41019 5.596C6.79828 4.984 6.62231 4.104 6.95426 3.304C7.28621 2.5 8.03409 2 8.90196 2H22V15.1C22 15.968 21.5001 16.712 20.7002 17.044C19.9003 17.376 19.0204 17.2 18.4045 16.588L15.6849 13.868L7.76214 21.796C7.62616 21.932 7.44618 22 7.26621 22Z" fill="#000033"/>
</svg>
