<svg width="24" height="24" viewBox="0 0 24 24" fill="none" xmlns="http://www.w3.org/2000/svg">
<path d="M15.1513 1C14.7435 1 14.4087 1.3564 14.4087 1.7876L14.4087 11.0188L19.7875 11.0188C20.1566 11.0188 20.3798 11.3312 20.4528 11.6084C20.4915 11.7272 20.6031 12.1188 20.3412 12.396L12.0005 20.8396L3.6598 12.396C3.39795 12.1188 3.47092 11.7272 3.54819 11.6084C3.6598 11.3708 3.88302 11.0188 4.21356 11.0188H9.5923V1.7876C9.5923 1.352 9.25747 1 8.84967 1C8.44186 1 8.10703 1.3564 8.10703 1.7876V9.448H4.21356C3.32497 9.448 2.50936 10.0772 2.17453 10.9792C1.8397 11.8416 1.98565 12.8272 2.62097 13.4564L12.0005 23L21.38 13.4916C22.0111 12.8228 22.1613 11.8812 21.8265 10.9792C21.4573 10.0728 20.676 9.448 19.7875 9.448H15.894L15.894 1.7876C15.894 1.3564 15.5591 1 15.1513 1Z" fill="#000033"/>
</svg>
