<svg width="24" height="24" viewBox="0 0 24 24" fill="none" xmlns="http://www.w3.org/2000/svg">
<path d="M22 16.7338C22 16.9138 21.932 17.0937 21.796 17.2297C21.52 17.5057 21.076 17.5057 20.804 17.2297L11.888 8.31505L15.6 4.60361C15.908 4.29566 15.792 3.93971 15.752 3.83972C15.708 3.73974 15.54 3.40379 15.104 3.40379H3.404L3.404 15.098C3.404 15.534 3.736 15.7059 3.84 15.7459C3.94 15.7899 4.296 15.9019 4.604 15.594L8.316 11.8825L17.232 20.8012C17.504 21.0771 17.508 21.5211 17.232 21.793C16.956 22.069 16.512 22.069 16.24 21.793L8.316 13.8702L5.596 16.5898C4.984 17.2017 4.104 17.3777 3.304 17.0457C2.5 16.7138 2 15.9659 2 15.098L2 2H15.1C15.968 2 16.712 2.49992 17.044 3.2998C17.376 4.09969 17.2 4.97955 16.588 5.59546L13.868 8.31505L21.796 16.2379C21.932 16.3738 22 16.5538 22 16.7338Z" fill="#000033"/>
</svg>
