<svg width="24" height="24" viewBox="0 0 24 24" fill="none" xmlns="http://www.w3.org/2000/svg">
<path fill-rule="evenodd" clip-rule="evenodd" d="M15.928 22H8.07601C6.89601 22 5.93201 21.04 5.93201 19.856V5.928C5.93201 4.748 6.89201 3.784 8.07601 3.784H9.14401V2H14.86V3.788H15.928C17.108 3.788 18.072 4.748 18.072 5.932V19.86C18.072 21.036 17.112 22 15.928 22ZM8.07601 5.212C7.68401 5.212 7.36401 5.532 7.36401 5.924V19.852C7.36401 20.244 7.68401 20.564 8.07601 20.564H15.936C16.328 20.564 16.648 20.244 16.648 19.852V5.928C16.648 5.536 16.328 5.216 15.936 5.216H13.436V3.428H10.58V5.216H8.07601V5.212ZM10.928 17.26C11.04 17.324 11.164 17.356 11.288 17.356C11.532 17.356 11.772 17.228 11.908 17L14.408 12.712C14.54 12.488 14.54 12.22 14.412 11.996C14.288 11.776 14.052 11.64 13.796 11.64H11.468L13.344 8.432C13.544 8.088 13.432 7.648 13.088 7.452C12.744 7.252 12.304 7.364 12.108 7.708L9.60801 11.996C9.47601 12.22 9.47601 12.488 9.60401 12.712C9.72801 12.932 9.96401 13.068 10.22 13.068H12.548L10.672 16.28C10.472 16.624 10.584 17.064 10.928 17.26Z" fill="#000033"/>
</svg>
