<svg width="24" height="24" viewBox="0 0 24 24" fill="none" xmlns="http://www.w3.org/2000/svg">
<path fill-rule="evenodd" clip-rule="evenodd" d="M21.8471 18.2084C20.4646 16.3208 19.6937 13.9668 19.6937 11.6084V8.8584C19.6937 4.5376 16.2311 1 12.002 1C7.7728 1 4.31022 4.5376 4.31022 8.8584V11.6084C4.31022 13.9668 3.53932 16.3208 2.15688 18.2084C1.96308 18.446 1.96308 18.7584 2.07936 19.0356C2.19564 19.3128 2.46265 19.4668 2.77273 19.4668H8.96576C8.96576 19.5268 8.95588 19.5968 8.9461 19.6662C8.9365 19.7343 8.927 19.8017 8.927 19.8584C8.927 21.5876 10.3094 23 12.002 23C13.6945 23 15.077 21.5876 15.077 19.8584C15.077 19.7396 15.077 19.5812 15.0382 19.4668H21.2269C21.5327 19.4668 21.804 19.3084 21.9203 19.0356C22.0366 18.7628 22.0366 18.4416 21.8471 18.2084ZM13.5395 19.8584C13.5395 20.7208 12.8461 21.4292 12.002 21.4292C11.1579 21.4292 10.4645 20.7208 10.4645 19.8584C10.4645 19.7396 10.4645 19.5812 10.5032 19.4668H13.4619C13.5395 19.5812 13.5395 19.7396 13.5395 19.8584ZM5.85202 11.604C5.85202 13.804 5.27492 16.004 4.19825 17.8916V17.896H19.81C18.7333 16.0084 18.1562 13.8084 18.1562 11.6084V8.8584C18.1562 5.4 15.3913 2.5664 12.0063 2.5664C8.62122 2.5664 5.85202 5.3956 5.85202 8.854V11.604Z" fill="#000033"/>
</svg>
