<svg xmlns="http://www.w3.org/2000/svg" width="24" height="24" fill="none"><path fill="#003" d="M20.953 17.644a10.25 10.25 0 0 1-1.958-6v-2.5C18.995 5.216 15.847 2 12.003 2 8.158 2 5.01 5.216 5.01 9.144v2.5c0 2.144-.7 4.284-1.957 6-.177.216-.177.5-.07.752.105.252.348.392.63.392h5.63c0 .055-.01.118-.018.181-.01.062-.018.123-.018.175 0 1.572 1.257 2.856 2.796 2.856 1.538 0 2.795-1.284 2.795-2.856 0-.108 0-.252-.035-.356h5.626c.278 0 .525-.144.63-.392.106-.248.106-.54-.066-.752m-7.553 1.5c0 .784-.63 1.428-1.397 1.428-.768 0-1.398-.644-1.398-1.428 0-.108 0-.252.035-.356h2.69c.07.104.07.248.07.356M6.412 11.64v-2.5c0-3.144 2.517-5.716 5.595-5.716 3.077 0 5.59 2.576 5.59 5.72v2.5c0 2 .525 4 1.504 5.716H4.908v-.004a11.62 11.62 0 0 0 1.504-5.716"/></svg>