<svg width="24" height="24" fill="none" xmlns="http://www.w3.org/2000/svg"><path d="M17.297 2H6.713c-1.165 0-2.118.96-2.118 2.144V22H19.41V4.144C19.414 2.964 18.462 2 17.297 2ZM18 20.574H6.008V4.144a.71.71 0 0 1 .705-.713h10.584a.71.71 0 0 1 .704.713v16.43Zm-2.113-2.68a.53.53 0 0 0 .528-.534.532.532 0 0 0-.528-.535H8.126a.53.53 0 0 0-.528.535.53.53 0 0 0 .528.535h7.762Zm.528-4.104a.53.53 0 0 1-.528.535H8.126a.53.53 0 0 1-.528-.535.53.53 0 0 1 .528-.535h7.762a.53.53 0 0 1 .528.535Zm-.528-3.397a.53.53 0 0 0 .528-.535.542.542 0 0 0-.528-.54h-1.775a1.19 1.19 0 0 0 .014-.177v-.892h.88a.53.53 0 0 0 .529-.535.53.53 0 0 0-.529-.535h-.88v-.891c0-.293.235-.535.528-.535.145 0 .285.06.384.17a.529.529 0 0 0 .75.022.545.545 0 0 0 .022-.759 1.569 1.569 0 0 0-1.156-.507c-.876 0-1.59.722-1.59 1.609v.896a.53.53 0 0 0-.528.535.53.53 0 0 0 .529.535v.891c0 .1-.077.178-.176.178a.53.53 0 0 0-.529.535.53.53 0 0 0 .529.535h2.998Z" fill="#003"/></svg>