<svg width="24" height="24" viewBox="0 0 24 24" fill="none" xmlns="http://www.w3.org/2000/svg">
<path fill-rule="evenodd" clip-rule="evenodd" d="M17.7016 2H7.11769C5.95273 2 5 2.96 5 4.144V22H19.8148V4.144C19.8193 2.96457 18.8666 2 17.7016 2ZM18.406 20.5737H6.4133V4.144C6.4133 3.75086 6.72937 3.43086 7.11769 3.43086H17.7016C18.0899 3.43086 18.406 3.75086 18.406 4.144V20.5737ZM16.2928 17.8949C16.5863 17.8949 16.8211 17.6571 16.8211 17.36C16.8211 17.0629 16.5818 16.8251 16.2928 16.8251H8.53098C8.23749 16.8251 8.00269 17.0629 8.00269 17.36C8.00269 17.6571 8.23749 17.8949 8.53098 17.8949H16.2928ZM16.8211 13.7897C16.8211 14.0869 16.5863 14.3246 16.2928 14.3246H8.53098C8.23749 14.3246 8.00269 14.0869 8.00269 13.7897C8.00269 13.4926 8.23749 13.2549 8.53098 13.2549H16.2928C16.5818 13.2503 16.8211 13.4926 16.8211 13.7897ZM16.2928 10.3931C16.5863 10.3931 16.8211 10.1554 16.8211 9.85829C16.8211 9.56571 16.5818 9.32343 16.2928 9.31886H14.5183C14.5273 9.25943 14.5319 9.2 14.5319 9.14057V8.24914H15.4123C15.7058 8.24914 15.9406 8.01143 15.9406 7.71429C15.9406 7.41714 15.7058 7.17943 15.4123 7.17943H14.5319V6.288C14.5319 5.99543 14.7666 5.75314 15.0601 5.75314C15.2046 5.75314 15.3446 5.81257 15.4439 5.92229C15.6471 6.13714 15.9813 6.14629 16.1935 5.94514C16.4057 5.73943 16.4147 5.40114 16.2161 5.18629C15.9181 4.86171 15.4981 4.67886 15.0601 4.67886C14.1842 4.67886 13.4708 5.40114 13.4708 6.288V7.184C13.1773 7.184 12.9425 7.42171 12.9425 7.71886C12.9425 8.016 13.1773 8.25371 13.4708 8.25371V9.14514C13.4708 9.24571 13.394 9.32343 13.2947 9.32343C13.0012 9.32343 12.7664 9.56114 12.7664 9.85829C12.7664 10.1554 13.0012 10.3931 13.2947 10.3931H16.2928Z" fill="#313235"/>
</svg>
