<svg width="24" height="24" viewBox="0 0 24 24" fill="none" xmlns="http://www.w3.org/2000/svg">
<path fill-rule="evenodd" clip-rule="evenodd" d="M13.6833 2.08092L20.7199 6.04875C21.0005 6.1926 21.0746 6.52025 21.0395 6.6641V14.9954C21.0395 15.2511 20.8992 15.4669 20.6887 15.6107L13.6444 19.9422C13.5079 20.05 13.2233 20.086 12.9777 19.9781L10.8687 18.8953C10.5179 18.7154 10.3775 18.2799 10.553 17.9203C10.7284 17.5607 11.1533 17.4168 11.5042 17.5966L12.5957 18.172V11.4631L9.42635 9.51311L6.9626 7.9987V10.2004C9.00533 10.524 10.553 12.2223 10.553 14.2761C10.553 15.2471 9.81229 16.9813 8.30363 19.4027C7.49667 20.7014 6.75598 21.7483 6.7209 21.7842C6.61174 21.9281 6.4714 22 6.29598 22C6.11665 22 5.97631 21.9281 5.87106 21.7842C5.45004 21.2408 2 16.3379 2 14.2441C2 12.1863 3.54764 10.4881 5.62546 10.1644V6.6641C5.62546 6.40837 5.66055 6.22856 5.97631 6.04875L13.0167 2.08092C13.2272 1.97303 13.4728 1.97303 13.6833 2.08092ZM11.2157 8.86579L13.3325 10.1644L18.9227 6.70007L16.9891 5.6172L11.2157 8.86579ZM13.3325 3.5234L15.5507 4.78607L9.81229 7.9987L7.70328 6.70007L13.3325 3.5234ZM7.4226 18.7874C8.75584 16.6576 9.53161 14.9954 9.53161 14.2401C9.53161 12.5419 8.09312 11.1794 6.29598 11.1794C4.49884 11.1794 3.05645 12.5499 3.05645 14.2441C3.05645 15.4309 4.88478 18.4997 6.29598 20.5216C6.37207 20.4051 6.45764 20.2758 6.5503 20.1357C6.80418 19.7521 7.1113 19.288 7.4226 18.7874ZM14.0342 18.0242V11.3871L19.6634 7.92678V14.5278L14.0342 18.0242ZM4.46376 14.2401C4.46376 15.287 5.3058 16.1142 6.29208 16.1142C7.27836 16.1142 8.12041 15.2511 8.12041 14.2401C8.12041 13.2292 7.27836 12.3661 6.29208 12.3661C5.3058 12.3661 4.46376 13.1893 4.46376 14.2401ZM7.06395 14.2401C7.06395 14.6757 6.7131 15.0353 6.28818 15.0353C5.86326 15.0353 5.51241 14.6757 5.51241 14.2401C5.51241 13.8046 5.86326 13.445 6.28818 13.445C6.7131 13.445 7.06395 13.8046 7.06395 14.2401Z" fill="#313235"/>
</svg>
