<svg width="24" height="24" fill="none" xmlns="http://www.w3.org/2000/svg"><path d="M4.939 14.24c0 1.047.842 1.874 1.828 1.874.986 0 1.828-.863 1.828-1.874 0-1.01-.842-1.874-1.828-1.874-.986 0-1.828.823-1.828 1.874Zm2.6 0a.79.79 0 0 1-.776.795.79.79 0 0 1-.776-.795.79.79 0 0 1 .776-.795.79.79 0 0 1 .776.795Z" fill="#003"/><path d="m14.158 2.08 7.037 3.969c.28.144.355.471.32.615v8.331c0 .256-.14.472-.351.616l-7.045 4.331c-.136.108-.42.144-.666.036l-2.11-1.083a.734.734 0 0 1-.315-.975.7.7 0 0 1 .951-.323l1.092.575v-6.709L7.438 8V10.2c2.042.324 3.59 2.022 3.59 4.076 0 .971-.74 2.705-2.25 5.127-.806 1.298-1.547 2.345-1.582 2.381A.508.508 0 0 1 6.77 22a.498.498 0 0 1-.425-.216c-.421-.543-3.871-5.446-3.871-7.54 0-2.058 1.548-3.756 3.625-4.08v-3.5c0-.256.036-.435.351-.615l7.04-3.968a.727.727 0 0 1 .667 0Zm-2.467 6.786 2.116 1.298 5.59-3.464-1.933-1.083-5.773 3.249Zm2.116-5.343L8.178 6.7 10.288 8l5.738-3.213-2.219-1.263Zm-5.91 15.264c1.334-2.13 2.11-3.792 2.11-4.547 0-1.698-1.439-3.06-3.236-3.06-1.797 0-3.24 1.37-3.24 3.064 0 1.187 1.829 4.256 3.24 6.278l.254-.386c.254-.384.561-.848.873-1.349Zm6.612-.763 5.63-3.496V7.927l-5.63 3.46v6.637Z" fill="#003"/></svg>