<svg width="24" height="24" viewBox="0 0 24 24" fill="none" xmlns="http://www.w3.org/2000/svg">
<path fill-rule="evenodd" clip-rule="evenodd" d="M15.8082 5.16735H19.6926C20.9607 5.16735 22 6.23691 22 7.54184V18.6255C22 19.9305 20.9607 21 19.6926 21H4.30738C3.03933 21 2 19.9305 2 18.6255V7.54184C2 6.23691 3.03933 5.16735 4.30738 5.16735H8.19181C8.38443 3.38752 10.0377 2 12 2C13.9623 2 15.5754 3.38752 15.8082 5.16735ZM14.2673 5.17148C14.0385 4.25886 13.1156 3.58574 12 3.58574C10.8844 3.58574 9.96148 4.25886 9.72873 5.17148H14.2673ZM19.6926 6.74897C20.114 6.74897 20.4631 7.10411 20.4631 7.54184V10.7092H3.53692V7.54184C3.53692 7.10824 3.88202 6.74897 4.30738 6.74897H19.6926ZM3.53692 18.6255C3.53692 19.0632 3.88604 19.4184 4.30738 19.4184H19.6926C20.118 19.4184 20.4631 19.0632 20.4591 18.6214V12.2908H3.53692V18.6255Z" fill="#000033"/>
</svg>
