<svg width="24" height="24" viewBox="0 0 24 24" fill="none" xmlns="http://www.w3.org/2000/svg">
<path fill-rule="evenodd" clip-rule="evenodd" d="M8.42082 2H14.5792C16.467 2 18 3.60494 18 5.57567V18.4289C18 20.3996 16.467 22 14.5792 22H8.42082C6.53302 22 5 20.3996 5 18.4289V5.5711C5 3.60037 6.53302 2 8.42082 2ZM6.36658 6.64563V17.3635H16.6334V6.64563H6.36658ZM8.42082 3.43118H14.5792C15.5954 3.43118 16.4363 4.20393 16.6028 5.21902H6.39724C6.56368 4.20393 7.40465 3.43118 8.42082 3.43118ZM8.42082 20.578H14.5792C15.5954 20.578 16.4363 19.8052 16.6028 18.7901H6.39724C6.56368 19.8052 7.40465 20.578 8.42082 20.578ZM14.0536 10.3951L13.3352 8.7444C13.217 8.47462 12.9148 8.35574 12.6563 8.4792C12.3979 8.60265 12.284 8.91815 12.4023 9.18793L12.9279 10.3951H10.0721L10.5977 9.18793C10.716 8.91815 10.6021 8.60265 10.3437 8.4792C10.0852 8.35574 9.78302 8.47462 9.66476 8.7444L8.94643 10.3951H7.09367L8.09232 14.9904C8.2281 15.5117 8.75809 15.9323 9.27493 15.9323H13.7251C14.2375 15.9323 14.7675 15.5071 14.9121 14.963L15.9063 10.3951H14.0536ZM13.7251 14.8624C13.782 14.8624 13.9003 14.7663 13.9178 14.7069L14.6186 11.4696H8.37702L9.08659 14.7298C9.09973 14.7618 9.21799 14.8578 9.27493 14.8624H13.7251Z" fill="#000033"/>
</svg>
