<svg width="24" height="24" viewBox="0 0 24 24" fill="none" xmlns="http://www.w3.org/2000/svg">
<path fill-rule="evenodd" clip-rule="evenodd" d="M16.64 4.144H19.856C21.036 4.144 22 5.108 22 6.284V22H2V6.284C2 5.108 2.964 4.144 4.144 4.144H7.352V2.716C7.352 2.32 7.676 2 8.068 2C8.464 2 8.784 2.324 8.784 2.716V4.144H15.212V2.716C15.212 2.32 15.536 2 15.928 2C16.32 2 16.644 2.32 16.64 2.716V4.144ZM7.36 5.572H4.144C3.748 5.572 3.428 5.892 3.428 6.288V8.788H20.584V6.288C20.584 5.892 20.26 5.572 19.868 5.572H16.652V7C16.652 7.396 16.332 7.716 15.936 7.716C15.54 7.716 15.22 7.392 15.22 7V5.572H8.792V7C8.792 7.396 8.468 7.716 8.076 7.716C7.68 7.716 7.36 7.392 7.36 7V5.572ZM3.428 20.572V10.216H20.572V20.572H3.428ZM9.644 11.252H9C8.572 11.252 7.716 11.432 7.248 11.788C6.928 12.036 6.892 12.504 7.14 12.788C7.392 13.108 7.856 13.144 8.176 12.932C8.284 12.86 8.748 12.716 8.996 12.716H9.64C10.14 12.716 10.568 13.144 10.568 13.68C10.568 14.216 10.176 14.644 9.64 14.644H8.68C8.288 14.644 7.928 14.964 7.928 15.396C7.928 15.828 8.248 16.144 8.68 16.144H9.644C10.144 16.144 10.572 16.572 10.572 17.108C10.572 17.644 10.18 18.072 9.644 18.072H9C8.748 18.072 8.284 17.928 8.18 17.856C7.86 17.604 7.396 17.64 7.144 17.964C6.892 18.284 6.928 18.748 7.252 19C7.716 19.356 8.572 19.536 9.004 19.536H9.648C10.968 19.536 12.04 18.428 12.04 17.108C12.04 16.464 11.788 15.856 11.36 15.392C11.788 14.964 12.04 14.356 12.04 13.676C12.036 12.356 10.964 11.252 9.644 11.252ZM15.572 11.392C15.356 11.248 15.072 11.248 14.856 11.392L13.216 12.32C12.86 12.5 12.752 12.964 12.964 13.284C13.144 13.64 13.608 13.748 13.928 13.536L14.5 13.216V18.788C14.5 19.18 14.82 19.504 15.216 19.504C15.612 19.504 15.932 19.184 15.932 18.788V12C15.928 11.752 15.784 11.5 15.572 11.392Z" fill="#000033"/>
</svg>
