<svg width="24" height="24" viewBox="0 0 24 24" fill="none" xmlns="http://www.w3.org/2000/svg">
<path fill-rule="evenodd" clip-rule="evenodd" d="M7.68875 22H7.72081C10.5141 22 13.9125 20.2206 17.0544 17.1107L17.1025 17.0626C20.2284 13.9046 22.0158 10.4982 21.9998 7.69683C21.9918 6.23806 21.4868 4.98368 20.5571 4.06192L19.1744 2.69533C18.2727 1.80564 16.8661 1.76556 16.0325 2.59915L13.9606 4.69513C13.5839 5.08387 13.3715 5.61287 13.3715 6.16993C13.3715 6.77508 13.632 7.38424 14.0848 7.82908L15.5356 9.26381C15.78 9.49625 15.9003 9.82086 15.9003 10.2256C15.9003 11.2556 15.1549 12.6302 13.8925 13.9006C12.6221 15.155 11.2555 15.9084 10.2255 15.9084H10.2175C9.81277 15.9004 9.49216 15.7802 9.25571 15.5437L7.821 14.093C7.37616 13.6481 6.76701 13.3796 6.16187 13.3796H6.15385C5.59279 13.3796 5.07582 13.588 4.6951 13.9687L2.59914 16.0407C1.76557 16.8662 1.80564 18.2769 2.69532 19.1746L4.05389 20.5573C4.97563 21.499 6.23 21.992 7.68875 22ZM5.72104 15.0027C5.85729 14.8664 6.02962 14.8344 6.14985 14.8344C6.37828 14.8344 6.61072 14.9346 6.77904 15.1229L8.21375 16.5737C8.72271 17.0907 9.41201 17.3592 10.2055 17.3672C11.6242 17.3672 13.3474 16.4855 14.9184 14.9306C16.4733 13.3596 17.363 11.6403 17.355 10.2176C17.355 9.42411 17.0785 8.7348 16.5615 8.22583L15.1108 6.79111C14.9304 6.61077 14.8262 6.38634 14.8262 6.15791C14.8262 6.03768 14.8583 5.85734 14.9946 5.72108L17.0745 3.6251C17.343 3.35658 17.8279 3.40468 18.1525 3.72929L19.5351 5.09589C20.1964 5.74111 20.529 6.61477 20.537 7.69282C20.545 10.1054 18.918 13.1392 16.0606 16.0206L16.0205 16.0607C13.139 18.9181 10.1213 20.5452 7.69276 20.5372C6.62675 20.5292 5.7531 20.2006 5.09586 19.5353L3.72927 18.1527C3.40466 17.8201 3.35657 17.3432 3.62508 17.0746L5.72104 15.0027Z" fill="#000033"/>
</svg>
