<svg width="24" height="24" viewBox="0 0 24 24" fill="none" xmlns="http://www.w3.org/2000/svg">
<path fill-rule="evenodd" clip-rule="evenodd" d="M20 21H5V4.0368C5 2.9158 5.92032 2 7.04302 2H14.3063C14.8523 2 15.3641 2.2052 15.7383 2.6118L19.3852 6.2408C19.7594 6.6132 20 7.1224 20 7.6658V21ZM6.36329 19.6434H18.6367V7.6658C18.6367 7.4948 18.568 7.3276 18.4305 7.1908L14.818 3.5618C14.6805 3.425 14.5125 3.3566 14.3063 3.3566H7.04302C6.66879 3.3566 6.35947 3.6606 6.35947 4.0368V19.6434H6.36329ZM17.2734 18.2868H7.72658V10.1434C7.72658 9.3986 8.3414 8.7868 9.08987 8.7868H15.9101C16.6586 8.7868 17.2734 9.3986 17.2734 10.1434V18.2868ZM9.08987 16.9302H15.9101V10.1434H9.08987V16.9302Z" fill="#000033"/>
</svg>
