<svg xmlns="http://www.w3.org/2000/svg" width="24" height="24" fill="none"><path fill="#003" d="M15.94 3.074h1.795c1.185 0 2.155.965 2.155 2.144V22H4.1V5.214c0-1.18.97-2.144 2.154-2.144H8.05V2h7.89v1.074ZM7.87 8.075h8.249c.29 0 .542.252.542.535a.552.552 0 0 1-.538.535H7.871a.552.552 0 0 1-.538-.535c0-.283.253-.535.538-.535Zm8.249 2.858H7.87a.552.552 0 0 0-.538.534c0 .284.253.535.538.535h8.252a.552.552 0 0 0 .538-.535.553.553 0 0 0-.542-.534Zm0 2.857H7.87a.552.552 0 0 0-.538.535c0 .283.253.534.538.534h8.252a.552.552 0 0 0 .538-.534.553.553 0 0 0-.542-.535Zm0 2.857H7.87a.552.552 0 0 0-.538.535c0 .283.253.535.538.535h8.252a.552.552 0 0 0 .538-.535.553.553 0 0 0-.542-.535ZM9.088 3.074v1.788h5.777V3.074H9.088Zm-3.55 17.5h12.914V5.214a.716.716 0 0 0-.717-.713h-1.79v1.43H8.05V4.505H6.254a.716.716 0 0 0-.716.713v15.356Z"/></svg>