<svg width="24" height="24" fill="none" xmlns="http://www.w3.org/2000/svg"><path d="M15.748 3.52h1.706c1.125 0 2.046.917 2.046 2.037V21.5h-15V5.553c0-1.12.92-2.037 2.046-2.037h1.706V2.5h7.496v1.02ZM8.082 8.273h7.836c.275 0 .515.239.515.508s-.24.508-.51.508H8.081a.525.525 0 0 1-.51-.508c0-.27.24-.508.51-.508Zm7.836 2.714H8.082c-.27 0-.51.239-.51.508 0 .27.24.508.51.508h7.84c.27 0 .51-.239.51-.508 0-.27-.24-.508-.514-.508Zm0 2.714H8.082c-.27 0-.51.24-.51.508 0 .27.24.508.51.508h7.84c.27 0 .51-.238.51-.508 0-.269-.24-.508-.514-.508Zm0 2.715H8.082c-.27 0-.51.238-.51.508 0 .269.24.508.51.508h7.84c.27 0 .51-.24.51-.508 0-.27-.24-.508-.514-.508ZM9.238 3.52v1.698h5.489V3.52H9.238ZM5.866 20.145h12.268V5.553a.68.68 0 0 0-.68-.677h-1.702v1.359h-7.5V4.88H6.546a.68.68 0 0 0-.68.677v14.588Z" fill="#003"/></svg>