<svg width="24" height="24" viewBox="0 0 24 24" fill="none" xmlns="http://www.w3.org/2000/svg">
<path d="M12.7337 12L18.8482 5.88554C19.0506 5.68313 19.0506 5.35422 18.8482 5.15181C18.6458 4.9494 18.3169 4.9494 18.1145 5.15181L12 11.2663L5.88554 5.15181C5.68313 4.9494 5.35422 4.9494 5.15181 5.15181C4.9494 5.35422 4.9494 5.68313 5.15181 5.88554L11.2663 12L5.15181 18.1145C4.9494 18.3169 4.9494 18.6458 5.15181 18.8482C5.25301 18.9494 5.38514 19 5.51727 19C5.6494 19 5.78153 18.9494 5.88273 18.8482L12 12.7337L18.1145 18.8482C18.2157 18.9494 18.3478 19 18.4799 19C18.612 19 18.7442 18.9494 18.8454 18.8482C19.0478 18.6458 19.0478 18.3169 18.8454 18.1145L12.7337 12Z" fill="#000033"/>
</svg>
