<svg xmlns="http://www.w3.org/2000/svg" width="24" height="24" fill="none"><path fill="#003" d="M17.763 16.639c.28-.603.87-1.07 1.56-1.07.936 0 1.699.823 1.677 1.787 0 .75-.413 1.326-1.038 1.61v2.321c0 .393-.31.713-.692.713a.703.703 0 0 1-.691-.713v-2.322a1.848 1.848 0 0 1-.834-.891h-4.19a1.774 1.774 0 0 1-.864.891v2.322c0 .393-.31.713-.691.713a.703.703 0 0 1-.692-.713v-2.322a1.848 1.848 0 0 1-.833-.891h-4.19a1.774 1.774 0 0 1-.864.891v2.322c0 .393-.31.713-.692.713a.703.703 0 0 1-.692-.713v-2.322C3.452 18.677 3 18.07 3 17.357c0-.965.798-1.787 1.733-1.787.696 0 1.286.425 1.561 1.069h4.159c.172-.393.483-.713.864-.891v-1.61H7.89c-2.319 0-4.19-1.964-4.19-4.318 0-2.354 1.871-4.283 4.159-4.32.381-2 2.08-3.5 4.123-3.5 2.008 0 3.742 1.504 4.123 3.5 2.283.033 4.225 1.998 4.225 4.32 0 2.39-1.87 4.319-4.158 4.319h-3.463v1.572c.412.178.692.535.865.928h4.19ZM5.088 9.819c0 1.573 1.21 2.857 2.771 2.894v.005h8.313c1.56 0 2.806-1.248 2.806-2.857 0-1.536-1.281-2.82-2.806-2.893a3.745 3.745 0 0 1-.138.608.676.676 0 0 1-.656.498c-.07 0-.137 0-.208-.037-.382-.105-.586-.498-.484-.89.067-.289.102-.54.102-.823 0-1.61-1.245-2.893-2.806-2.893a2.782 2.782 0 0 0-2.735 2.248c.345.142.66.284.97.498.346.215.417.681.209 1.001a.677.677 0 0 1-.971.215 3.187 3.187 0 0 0-1.144-.43c-.142-.036-.28-.036-.417-.036-1.56 0-2.806 1.284-2.806 2.893Z"/></svg>