<svg width="24" height="24" viewBox="0 0 24 24" fill="none" xmlns="http://www.w3.org/2000/svg">
<path fill-rule="evenodd" clip-rule="evenodd" d="M18.3641 3H12.5447C10.5382 3 8.90875 4.70251 8.90875 6.79903V7.17844H5.63594C3.62942 7.17844 2 8.88095 2 10.9775V14.7765C2 16.6103 3.25233 18.1475 4.90968 18.5026V21.2412C4.90968 21.5476 5.08659 21.8249 5.35661 21.9416C5.44507 21.9805 5.54283 22 5.63594 22C5.82682 22 6.01304 21.9222 6.1527 21.7762L9.21136 18.5804H11.4553C13.4618 18.5804 15.0912 16.8779 15.0912 14.7814V14.7181L17.852 17.6027C17.9916 17.7486 18.1778 17.8264 18.3641 17.8264C18.4572 17.8264 18.5503 17.807 18.6434 17.768C18.9134 17.6513 19.0903 17.374 19.0903 17.0676V14.329C20.7477 13.9739 22 12.4416 22 10.6029V6.80389C22 4.70251 20.3706 3 18.3641 3ZM13.6341 14.7814C13.6341 16.0364 12.6564 17.0627 11.4507 17.0627H8.9041C8.71322 17.0627 8.527 17.1406 8.39199 17.2865L6.3622 19.4073V17.8216C6.3622 17.4032 6.03631 17.0627 5.63594 17.0627C4.43482 17.0627 3.45251 16.0412 3.45251 14.7814V10.9823C3.45251 9.72734 4.43017 8.70097 5.63594 8.70097H8.90875V10.6029C8.90875 12.6994 10.5382 14.4019 12.5447 14.4019H13.6341V14.7814ZM18.3641 12.8843C19.5698 12.8843 20.5475 11.8579 20.5475 10.6029H20.5521V6.80389C20.5521 5.54403 19.5698 4.52253 18.3687 4.52253H12.5493C11.3436 4.52253 10.3659 5.5489 10.3659 6.80389V10.6029C10.3659 11.8628 11.3482 12.8843 12.5493 12.8843H15.0959C15.2868 12.8843 15.473 12.967 15.608 13.108L17.6378 15.2289V13.6431C17.6378 13.2248 17.9637 12.8843 18.3641 12.8843Z" fill="#313235"/>
</svg>
