<svg width="24" height="24" viewBox="0 0 24 24" fill="none" xmlns="http://www.w3.org/2000/svg">
<path fill-rule="evenodd" clip-rule="evenodd" d="M20.2171 15.6851V7.21152C20.2171 5.99495 19.2526 5 18.0731 5H5.93143C4.752 5 3.78743 5.99495 3.78743 7.21152V15.6474V15.6851H2V16.2368C2 17.7457 3.17943 19 4.64229 19H19.3943C20.8206 19 22 17.7457 22 16.2368V15.6851H20.2171ZM5.21829 7.21152C5.21829 6.806 5.53829 6.47592 5.93143 6.47592H18.0731C18.4663 6.47592 18.7863 6.806 18.7863 7.21152V15.6851H5.21829V7.21152ZM4.64686 17.8966H19.3943C20.0389 17.8966 20.6103 17.4156 20.8617 16.7932H3.184C3.39886 17.4156 3.97029 17.8966 4.64686 17.8966Z" fill="#000033"/>
</svg>
