<svg xmlns="http://www.w3.org/2000/svg" width="24" height="24" fill="none"><path fill="#003" d="M21.286 3.968h-8.572V2.897A.716.716 0 0 0 12 2.183a.716.716 0 0 0-.714.714v1.071H2.714A.716.716 0 0 0 2 4.683c0 .392.321.714.714.714h1.072V16.11h6.857l-4.5 4.5a.69.69 0 0 0 0 1 .7.7 0 0 0 .5.214.7.7 0 0 0 .5-.214l4.143-4.143v3.643c0 .393.321.714.714.714a.716.716 0 0 0 .714-.714v-3.643l4.143 4.143a.7.7 0 0 0 .5.214.7.7 0 0 0 .5-.214.69.69 0 0 0 0-1l-4.5-4.5h6.857V5.397h1.072A.716.716 0 0 0 22 4.682a.716.716 0 0 0-.714-.714m-2.5 10.714H5.214V5.397h13.572zM9.857 9.29l-3.25 3.25a.518.518 0 0 0 .393.893.54.54 0 0 0 .393-.143l2.464-2.465L12 12.968l5.393-5.393a.52.52 0 0 0 0-.75.52.52 0 0 0-.75 0L12 11.432z"/></svg>