<svg width="24" height="24" fill="none" xmlns="http://www.w3.org/2000/svg"><path d="M20.125 4.965h-7.5v-.938A.627.627 0 0 0 12 3.402a.627.627 0 0 0-.625.625v.938h-7.5a.627.627 0 0 0-.625.625c0 .344.281.625.625.625h.938v9.375h6l-3.938 3.938a.604.604 0 0 0 0 .875.617.617 0 0 0 .438.187.617.617 0 0 0 .437-.188l3.625-3.625v3.188c0 .344.281.625.625.625a.627.627 0 0 0 .625-.625v-3.188l3.625 3.625a.617.617 0 0 0 .438.188.617.617 0 0 0 .437-.188.604.604 0 0 0 0-.875l-3.938-3.937h6V6.215h.938a.627.627 0 0 0 .625-.625.627.627 0 0 0-.625-.625Zm-2.188 9.375H6.063V6.215h11.875v8.125Zm-7.812-4.719-2.844 2.844a.453.453 0 0 0 .344.781.47.47 0 0 0 .344-.125l2.156-2.156L12 12.84l4.719-4.719a.453.453 0 0 0 0-.656.453.453 0 0 0-.657 0L12 11.496l-1.875-1.875Z" fill="#003"/></svg>