<svg width="24" height="24" fill="none" xmlns="http://www.w3.org/2000/svg"><path d="M19.825 8.396h-.24a3.015 3.015 0 0 0-.304-.678l.17-.17a.67.67 0 0 0 .204-.473.67.67 0 0 0-.204-.473l-.989-1.017a.641.641 0 0 0-.474-.204.642.642 0 0 0-.474.204l-.17.17a4.092 4.092 0 0 0-.68-.27v-.27a.68.68 0 0 0-.679-.677h-.239l-.17-.34a3.311 3.311 0 0 0-2.89-1.698H6.8c-1.802 0-3.3 1.495-3.3 3.293v12.414A3.3 3.3 0 0 0 6.8 21.5h5.986a3.3 3.3 0 0 0 3.3-3.293v-3.16c.135-.034.239-.099.34-.168a.67.67 0 0 0 .204-.474v-.24c.24-.069.444-.168.679-.303l.17.17c.27.269.679.269.953 0l1.019-1.018c.27-.269.27-.677 0-.986l-.17-.17c.1-.203.205-.442.27-.677h.27a.68.68 0 0 0 .679-.678v-1.39c.004-.413-.3-.717-.675-.717Zm-8.811-.847.17.17c-.1.203-.205.442-.27.677h-.274a.68.68 0 0 0-.68.678v1.39a.68.68 0 0 0 .68.678h.239c.07.239.17.443.305.678l-.17.17a.64.64 0 0 0-.205.473c0 .134.035.304.205.473l1.019 1.017c.27.27.714.27.988 0l.17-.17c.204.1.444.205.679.27v.304a.68.68 0 0 0 .679.678h.17v2.715h-9.86V6.224h6.495l-.34.338a.64.64 0 0 0-.205.474c0 .135.035.343.205.513Zm1.672-3.702c.613 0 1.158.27 1.532.747-.24.1-.374.34-.374.613H4.963c.24-.782.984-1.36 1.837-1.36h5.886Zm.1 16.293H6.8a1.912 1.912 0 0 1-1.837-1.355h9.695c-.275.777-1.023 1.355-1.872 1.355Zm5.986-9.98-.1.408c-.1.409-.24.813-.475 1.121l-.205.34.51.473-.544.543-.475-.474-.344.205c-.41.239-.749.408-1.123.473l-.41.07v.712h-.748v-.712l-.41-.1c-.409-.1-.783-.24-1.122-.474l-.34-.204-.475.473-.544-.543.475-.473-.205-.34c-.24-.407-.409-.746-.474-1.12l-.066-.413h-.714v-.747h.714l.1-.409c.1-.408.24-.782.475-1.12l.205-.34-.475-.473.544-.543.475.473.34-.204c.409-.239.748-.408 1.123-.473l.409-.07v-.678h.748v.717l.41.1c.409.1.783.24 1.123.474l.34.204.474-.508.544.543-.474.473.204.34c.24.408.41.747.475 1.12l.07.409h.679v.747h-.714Zm-4.523-2.75c.948-.404 2.037-.205 2.755.547.714.743.919 1.864.544 2.816-.409.951-1.327 1.594-2.346 1.594-1.393 0-2.516-1.156-2.516-2.58 0-1.022.61-1.969 1.563-2.377Zm.983 3.94c.61 0 1.154-.373 1.393-.951.24-.613.105-1.29-.34-1.73-.443-.438-1.088-.577-1.632-.338-.544.239-.918.817-.918 1.46 0 .847.679 1.56 1.497 1.56Z" fill="#003"/></svg>