<svg width="24" height="24" fill="none" xmlns="http://www.w3.org/2000/svg"><path fill-rule="evenodd" clip-rule="evenodd" d="M20.325 7.896h-.24a3.015 3.015 0 0 0-.304-.678l.17-.17a.67.67 0 0 0 .204-.473.67.67 0 0 0-.204-.473l-.989-1.017a.641.641 0 0 0-.474-.204.642.642 0 0 0-.474.204l-.17.17a4.092 4.092 0 0 0-.68-.27v-.27a.68.68 0 0 0-.679-.677h-.239l-.135-.27-.035-.07A3.311 3.311 0 0 0 13.186 2H7.3C5.498 2 4 3.495 4 5.293v12.414A3.3 3.3 0 0 0 7.3 21h5.986a3.3 3.3 0 0 0 3.3-3.293v-3.16c.135-.034.239-.099.34-.168a.67.67 0 0 0 .204-.474v-.24c.24-.069.444-.168.679-.303l.17.17c.27.269.679.269.953 0l1.019-1.018c.27-.269.27-.677 0-.986l-.17-.17c.1-.203.205-.442.27-.677h.27a.68.68 0 0 0 .679-.678v-1.39c.004-.413-.3-.717-.675-.717Zm-8.811-.847.17.17c-.1.203-.205.442-.27.677h-.274a.68.68 0 0 0-.68.678v1.39a.68.68 0 0 0 .68.678h.239c.07.239.17.443.305.678l-.17.17a.64.64 0 0 0-.205.473c0 .134.035.304.205.473l1.019 1.017c.27.27.714.27.988 0l.17-.17c.204.1.444.205.679.27v.304a.68.68 0 0 0 .679.678h.17v2.715h-9.86V5.724h6.495l-.34.338a.64.64 0 0 0-.205.474c0 .135.035.343.205.513Zm1.672-3.702H7.3c-.853 0-1.598.578-1.837 1.36h8.88c0-.274.136-.513.375-.613a1.913 1.913 0 0 0-1.532-.747Zm.1 16.293H7.3a1.912 1.912 0 0 1-1.837-1.355h9.695c-.275.777-1.023 1.355-1.872 1.355Zm5.986-9.98h.714v-.747h-.68l-.07-.409c-.064-.373-.234-.712-.474-1.12l-.204-.34.474-.473-.544-.543-.474.508-.34-.204c-.34-.235-.714-.374-1.123-.474l-.41-.1v-.717h-.748v.678l-.41.07c-.374.065-.713.234-1.123.473l-.34.205-.474-.474-.544.543.475.474-.205.338c-.235.34-.374.713-.475 1.121l-.1.409h-.714v.747h.714l.066.413c.065.374.235.713.474 1.12l.205.34-.475.473.544.543.475-.473.34.204c.34.235.713.374 1.123.474l.409.1v.712h.749v-.712l.409-.07c.374-.065.714-.235 1.123-.473l.344-.205.474.474.545-.543-.51-.474.205-.339c.235-.308.374-.712.475-1.12l.1-.409Zm-4.523-2.75a2.592 2.592 0 0 0-1.563 2.376c0 1.425 1.123 2.581 2.516 2.581 1.019 0 1.937-.643 2.346-1.594a2.681 2.681 0 0 0-.544-2.816c-.718-.752-1.807-.951-2.756-.547Zm.983 3.94c.61 0 1.154-.373 1.393-.951.24-.613.105-1.29-.34-1.73-.443-.438-1.088-.577-1.632-.338-.544.239-.918.817-.918 1.46 0 .847.679 1.56 1.497 1.56Z" fill="#003"/></svg>