<svg width="24" height="24" fill="none" xmlns="http://www.w3.org/2000/svg"><path d="M12.153 6.623a3.39 3.39 0 0 0-2.437-.875.625.625 0 1 0 .063 1.247 2.112 2.112 0 0 1 2.243 2.025.625.625 0 0 0 .2.435c.096.083.213.139.338.162h.1a.625.625 0 0 0 .43-.2.625.625 0 0 0 .16-.447 3.35 3.35 0 0 0-1.084-2.337l-.013-.01Z" fill="#003"/><path d="M9.534 5.12a3.706 3.706 0 0 1 4.029 3.69c.008.166.08.32.203.432.116.104.266.16.422.16h.03a.625.625 0 0 0 .595-.626 4.967 4.967 0 0 0-1.62-3.603 4.925 4.925 0 0 0-3.73-1.284.625.625 0 0 0-.429.2.625.625 0 0 0-.159.45.625.625 0 0 0 .66.581Zm-5.659 7.5h1.25a.625.625 0 1 0 0-1.25h-1.25a.625.625 0 1 0 0 1.25Zm0 1.875h3.438a.625.625 0 1 0 0-1.25H3.875a.625.625 0 0 0 0 1.25Z" fill="#003"/><path d="m20.688 14.448-.285-.91a1.488 1.488 0 0 0-1.184-.977l-6.906-1.753L9.134 7.62H3.875a.625.625 0 0 0 0 1.25h4.74l3.073 3.063 7.268 1.847h.082a.234.234 0 0 1 .19.137l.272.922a.25.25 0 0 1 0 .178l-.625 1.994h-2.34a2.975 2.975 0 0 0-5.938 0H3.875a.625.625 0 1 0 0 1.25h6.922a2.978 2.978 0 0 0 5.531 0h3.438l.862-2.753c.152-.333.173-.712.06-1.06Zm-5.422 2.988v.037a1.712 1.712 0 0 1-.072.257v.04c-.034.082-.072.161-.116.238a.132.132 0 0 1 0 .028 1.727 1.727 0 0 1-2.969 0l-.018-.028a2.73 2.73 0 0 1-.113-.238v-.04a1.712 1.712 0 0 1-.072-.257.157.157 0 0 0 0-.037 2.084 2.084 0 0 1-.025-.425 1.728 1.728 0 0 1 3.438 0c.003.047.003.094 0 .14-.01.097-.027.192-.053.285Z" fill="#003"/></svg>