<svg width="24" height="24" viewBox="0 0 24 24" fill="none" xmlns="http://www.w3.org/2000/svg">
<path fill-rule="evenodd" clip-rule="evenodd" d="M4.14443 5H19.8476C21.0278 5 21.992 6.01726 22 7.27187V16.7281C22 17.9785 21.0358 19 19.8556 19H4.14443C2.96419 19 2 17.9785 2 16.7281V7.27187C2 6.0215 2.96419 5 4.14443 5ZM19.8556 6.50893H4.14443C3.74835 6.50893 3.42428 6.85226 3.42428 7.27187V8.77233H20.5677V7.2634C20.5677 6.85226 20.2516 6.50893 19.8556 6.50893ZM19.8476 17.4826H4.14443C3.74835 17.4826 3.43229 17.1393 3.43229 16.7281V10.2982H20.5677V16.7281C20.5677 17.1393 20.2436 17.4826 19.8476 17.4826ZM4.85657 12.1844H9.4935C9.88958 12.1844 10.2056 12.5277 10.2056 12.9388C10.2056 13.3585 9.88958 13.6933 9.4935 13.6933H4.85657C4.46049 13.6933 4.14443 13.3585 4.14443 12.9388C4.14443 12.5192 4.46049 12.1844 4.85657 12.1844ZM11.6379 12.1844H14.1424C14.5305 12.1844 14.8546 12.5277 14.8506 12.9388C14.8506 13.3585 14.5345 13.6933 14.1384 13.6933H11.6379C11.2418 13.6933 10.9258 13.3585 10.9258 12.9388C10.9258 12.5192 11.2418 12.1844 11.6379 12.1844ZM19.1354 12.1844H16.2789C15.8828 12.1844 15.5667 12.5192 15.5667 12.9388C15.5667 13.3585 15.8828 13.6933 16.2789 13.6933H19.1354C19.5315 13.6933 19.8476 13.3585 19.8476 12.9388C19.8476 12.5277 19.5315 12.1844 19.1354 12.1844Z" fill="#000033"/>
</svg>
