<svg xmlns="http://www.w3.org/2000/svg" width="24" height="24" fill="none"><path fill="#003" d="M21.488 4.906a.52.52 0 0 0-.483-.338h-1.924v-2.02c0-.22-.13-.422-.322-.506a.51.51 0 0 0-.572.117L15.74 4.728a.56.56 0 0 0-.152.39v2.338l-.962 1.01a7.2 7.2 0 0 0-2.671-1.55 6.98 6.98 0 0 0-5.592.578c-1.731.967-2.997 2.587-3.566 4.555-1.176 4.067 1.02 8.378 4.89 9.613A7 7 0 0 0 9.83 22a7 7 0 0 0 3.45-.911c1.73-.967 2.996-2.588 3.565-4.555a8.04 8.04 0 0 0-.38-5.513c-.166-.367-.582-.526-.931-.353a.75.75 0 0 0-.336.977 6.52 6.52 0 0 1 .309 4.461c-.46 1.592-1.485 2.903-2.886 3.691a5.66 5.66 0 0 1-4.527.465c-3.136-1.005-4.912-4.494-3.963-7.786.46-1.592 1.485-2.902 2.885-3.69a5.66 5.66 0 0 1 4.527-.466 5.8 5.8 0 0 1 2.08 1.193l-1.239 1.3a4.04 4.04 0 0 0-2.567-.929c-2.313 0-4.197 1.977-4.197 4.405s1.884 4.405 4.197 4.405c2.312 0 4.196-1.977 4.196-4.405a4.5 4.5 0 0 0-.886-2.696l3.199-3.357h2.227a.51.51 0 0 0 .372-.16l2.447-2.569a.57.57 0 0 0 .116-.6m-8.875 9.383c0 1.62-1.253 2.935-2.796 2.935-1.544 0-2.796-1.315-2.796-2.935s1.252-2.935 2.796-2.935c.581 0 1.122.188 1.57.507L9.445 13.9a.57.57 0 0 0 0 .78.51.51 0 0 0 .743 0l1.941-2.038c.305.47.484 1.037.484 1.648m4.021-7.157v-1.79l1.396-1.464v1.24c0 .305.233.549.523.549h1.181L18.34 7.132z"/></svg>