<svg width="24" height="24" fill="none" xmlns="http://www.w3.org/2000/svg"><path d="M5.999 2h6.344c1.945 0 3.528 1.605 3.524 3.576v12.853c0 1.97-1.58 3.571-3.524 3.571H5.999c-1.945 0-3.524-1.6-3.524-3.571V5.57C2.475 3.601 4.055 2 5.999 2ZM3.883 6.646v10.717h10.576V6.646H3.883ZM5.999 3.43c-1.047 0-1.913.773-2.085 1.788h10.513c-.171-1.015-1.037-1.788-2.084-1.788H5.999Zm0 17.147h6.344a2.123 2.123 0 0 0 2.084-1.788H3.914c.172 1.015 1.038 1.788 2.085 1.788Zm13.685-3.891a.7.7 0 0 1-.997.027.722.722 0 0 1-.027-1.01 5.318 5.318 0 0 0-.09-7.385.722.722 0 0 1 0-1.01.699.699 0 0 1 .997 0 6.745 6.745 0 0 1 .117 9.378Zm-2.166-1.454c.19 0 .38-.078.52-.234a4.372 4.372 0 0 0-.127-6.012.699.699 0 0 0-.997 0 .721.721 0 0 0 0 1.01 2.938 2.938 0 0 1 .085 4.038.718.718 0 0 0 .04 1.01.71.71 0 0 0 .48.188Z" fill="#003"/></svg>