<svg width="24" height="24" viewBox="0 0 24 24" fill="none" xmlns="http://www.w3.org/2000/svg">
<path fill-rule="evenodd" clip-rule="evenodd" d="M21.2603 5H2.73969C2.33191 5 2 5.34374 2 5.76605V18.234C2 18.6563 2.33191 19 2.73969 19H21.2603C21.6681 19 22 18.6563 22 18.234V5.76605C22 5.34374 21.6681 5 21.2603 5ZM19.1456 6.53209L12 10.8239L4.85443 6.53209H19.1456ZM3.47937 7.47983V17.463H20.5206V7.47983L12.3651 12.3757C12.2513 12.4444 12.1233 12.4788 11.9953 12.4788C11.8672 12.4788 11.7392 12.4444 11.6254 12.3757L3.47937 7.47983Z" fill="#000033"/>
</svg>
