<svg width="24" height="24" fill="none" xmlns="http://www.w3.org/2000/svg"><path d="M9.16 3.25v6.719H7.535l.5-.5a.604.604 0 0 0 0-.875.604.604 0 0 0-.875 0l-2 2 2 2a.617.617 0 0 0 .437.187.617.617 0 0 0 .438-.187.604.604 0 0 0 0-.875l-.5-.5h5.688a.627.627 0 0 0 .624-.625.627.627 0 0 0-.624-.625H10.41V4.5h6.313l-1.75 1.75a.617.617 0 0 0-.188.438v9.687H10.41v-3.594a.627.627 0 0 0-.625-.625.627.627 0 0 0-.625.625v4.844h5.625v2.5c0 .25.156.469.375.563.094.062.156.062.25.062a.617.617 0 0 0 .438-.188l2.812-2.812a.617.617 0 0 0 .188-.438V3.25H9.16Zm8.438 13.813-1.563 1.562V6.937l1.563-1.562v11.688Z" fill="#003"/></svg>