<svg xmlns="http://www.w3.org/2000/svg" width="24" height="24" fill="none"><path fill="#003" d="M12 22C6.486 22 2 17.514 2 12S6.486 2 12 2s10 4.486 10 10-4.486 10-10 10m0-18.75c-4.825 0-8.75 3.925-8.75 8.75s3.925 8.75 8.75 8.75 8.75-3.925 8.75-8.75S16.825 3.25 12 3.25M8.607 8.5a.982.982 0 1 0-.001 1.963.982.982 0 0 0 .001-1.963m6.697 0a.982.982 0 1 0-.002 1.963.982.982 0 0 0 .002-1.963"/><path fill="#003" d="M7.375 13.875c0-.345.28-.625.625-.625h8a.625.625 0 1 1 0 1.25H8a.625.625 0 0 1-.625-.625"/></svg>