<svg width="24" height="24" viewBox="0 0 24 24" fill="none" xmlns="http://www.w3.org/2000/svg">
<path fill-rule="evenodd" clip-rule="evenodd" d="M12.6883 10.1406C13.4338 9.59134 14.5954 9.27484 15.8851 9.27484C17.9524 9.27484 19.5668 10.1452 19.9921 11.4903C20.0882 11.7975 20.3717 11.993 20.6736 11.993C20.7468 11.993 20.82 11.9837 20.8931 11.9558C21.2682 11.8348 21.474 11.4205 21.3551 11.0389C20.948 9.74959 19.8732 8.76286 18.4234 8.24156C19.0912 7.58064 19.5119 6.65906 19.5119 5.63509C19.5119 3.62904 17.9112 2 15.94 2C13.9688 2 12.3681 3.62904 12.3681 5.63509C12.3681 6.63114 12.766 7.53409 13.4017 8.19037C12.8163 8.3812 12.2904 8.63719 11.8513 8.95834C11.5312 9.19572 11.4626 9.6472 11.6958 9.973C11.9199 10.3081 12.3681 10.3779 12.6883 10.1406ZM15.9309 3.45683C17.1108 3.45683 18.0759 4.43426 18.0759 5.63975C18.0759 6.84524 17.1154 7.82267 15.9309 7.82267C14.7463 7.82267 13.7859 6.84524 13.7859 5.63975C13.7859 4.43426 14.7509 3.45683 15.9309 3.45683ZM11.8147 12.5469C12.048 12.2211 11.9794 11.7696 11.6592 11.5322C11.2339 11.2157 10.7491 10.9644 10.214 10.7782C10.8726 10.1173 11.2842 9.20037 11.2842 8.18571C11.2842 6.17966 9.68348 4.55062 7.7123 4.55062C5.74112 4.55062 4.1404 6.17966 4.1404 8.18571C4.1404 9.19572 4.54744 10.108 5.20145 10.7689C3.25771 11.4391 2 12.9053 2 14.7391V20.8457C2 21.246 2.32015 21.5718 2.71347 21.5718C3.10679 21.5718 3.42693 21.246 3.42693 20.8457V14.7391C3.42693 13.0496 5.21974 11.8208 7.68486 11.8208C8.938 11.8208 10.0494 12.1373 10.8177 12.7051C11.1379 12.9425 11.5815 12.8727 11.8147 12.5469ZM7.7123 6.00279C8.89226 6.00279 9.85727 6.98022 9.85727 8.18571C9.85727 9.3912 8.89684 10.3686 7.7123 10.3686C6.53234 10.3686 5.56733 9.3912 5.56733 8.18571C5.56733 6.98022 6.53234 6.00279 7.7123 6.00279ZM14.5039 16.0051C14.5039 16.6428 14.2844 17.2339 13.9185 17.6993C14.9522 18.188 15.5741 19.0677 15.5741 20.1848V21.2739C15.5741 21.6742 15.254 22 14.8607 22C14.4674 22 14.1472 21.6742 14.1472 21.2739V20.1848C14.1472 19.1143 12.9078 18.7326 11.8422 18.7326C10.7628 18.7326 9.50054 19.1096 9.50054 20.1848V21.2739C9.50054 21.6742 9.1804 22 8.78707 22C8.39375 22 8.07361 21.6742 8.07361 21.2739V20.1848C8.07361 19.0724 8.6956 18.1927 9.73379 17.704C9.36333 17.2385 9.14381 16.6474 9.14381 16.0051C9.14381 14.5017 10.3466 13.2776 11.8239 13.2776C13.3011 13.2776 14.5039 14.5017 14.5039 16.0051ZM13.0724 16.0005C13.0724 15.3023 12.5145 14.7298 11.8239 14.7298C11.1333 14.7298 10.5753 15.3023 10.5753 16.0005C10.5753 16.6986 11.1333 17.2711 11.8239 17.2711C12.5099 17.2711 13.0724 16.6986 13.0724 16.0005ZM20.1568 16.0842C20.5318 15.6141 20.7559 15.0184 20.7559 14.3668C20.7559 12.8634 19.5531 11.6393 18.0759 11.6393C16.5986 11.6393 15.3958 12.8634 15.3958 14.3668C15.3958 15.0417 15.6382 15.656 16.0361 16.1308C15.9309 16.1866 15.8303 16.2425 15.7296 16.3077C15.7228 16.3123 15.7171 16.3158 15.7114 16.3193C15.7056 16.3228 15.6999 16.3263 15.6931 16.3309L15.4186 16.5218C15.0939 16.7498 15.0162 17.206 15.2403 17.5318C15.4644 17.8622 15.9126 17.9414 16.2327 17.7133L16.4888 17.5318C16.9828 17.2292 17.4859 17.0896 18.0713 17.0896C19.4753 17.0896 20.573 17.8064 20.573 18.7279C20.573 19.1282 20.8931 19.454 21.2864 19.454C21.6798 19.454 21.9999 19.1282 21.9999 18.7279C22.0091 17.5783 21.2819 16.6148 20.1568 16.0842ZM16.8273 14.3668C16.8273 13.664 17.3898 13.0961 18.0759 13.0961C18.7619 13.0961 19.3244 13.6686 19.3244 14.3668C19.3244 15.0649 18.7665 15.6374 18.0759 15.6374C17.3853 15.6374 16.8273 15.0696 16.8273 14.3668Z" fill="#000033"/>
</svg>
