<svg width="24" height="24" viewBox="0 0 24 24" fill="none" xmlns="http://www.w3.org/2000/svg">
<path fill-rule="evenodd" clip-rule="evenodd" d="M2 12C2 17.5165 6.48812 22 12 22C17.5119 22 22 17.5119 22 12C22 6.48812 17.5119 2 12 2C6.48812 2 2 6.48355 2 12ZM3.43053 12C3.43053 7.27422 7.27422 3.43053 12 3.43053C16.7258 3.43053 20.5695 7.27422 20.5695 12C20.5695 16.7258 16.7258 20.5695 12 20.5695C7.27422 20.5695 3.43053 16.7258 3.43053 12ZM7.8638 17.1463L12.5027 12.5027C12.7815 12.2239 12.7815 11.7715 12.5027 11.4927L7.8638 6.85375C7.58501 6.57495 7.13254 6.57495 6.85375 6.85375C6.57495 7.13254 6.57495 7.58501 6.85375 7.8638L10.9899 12L6.85375 16.1362C6.57495 16.415 6.57495 16.8675 6.85375 17.1463C6.99086 17.2879 7.17367 17.3565 7.35649 17.3565C7.53931 17.3565 7.72212 17.2879 7.8638 17.1463ZM18.5768 12.5027L13.9333 17.1463C13.7916 17.2879 13.6088 17.3565 13.426 17.3565C13.2431 17.3565 13.0649 17.2879 12.9232 17.1463C12.6444 16.8675 12.6444 16.415 12.9232 16.1362L17.0594 12L12.9232 7.8638C12.6444 7.58501 12.6444 7.13254 12.9232 6.85375C13.202 6.57495 13.6545 6.57495 13.9333 6.85375L18.5768 11.4927C18.8556 11.7715 18.8556 12.2239 18.5768 12.5027Z" fill="#000033"/>
</svg>
