<svg xmlns="http://www.w3.org/2000/svg" width="24" height="24" fill="none"><path fill="#003" d="M19.147 14.552v-4.36h-8.572c-.036 0-.073 0-.178.037-.283.094-.484.534-.552.683a1.06 1.06 0 0 1-.02.042c.037-.325.037-.725.037-1.125 0-3.16-3-5.555-3.145-5.666a.697.697 0 0 0-.787-.075.777.777 0 0 0-.393.688s.073 1.27-.32 3.05c-.142.655-.677 1.343-1.248 2.036l-.114.156c-.902 1.23-1.918 2.614-1.852 4.567.105 3.379 2.752 4.574 2.857 4.61a.775.775 0 0 0 .787-.143.735.735 0 0 0 .141-.8s-.43-1.018-.073-2.65c.073-.325.142-.618.252-.873.036.144.073.288.105.437.132.61.39 1.027.625 1.404l.052.083c.02.034.042.068.063.101.156.249.302.482.366.773.142.581.037 1.38-.036 1.636-.037.219 0 .474.141.656a.52.52 0 0 0 .43.181H22v-5.448zm-6.5 0c-.074-1.487-.5-2.58-.929-3.268h6.36v3.268zm-6.182-2.905h-.178a.737.737 0 0 0-.572.288c-.036.037-.928 1.306-1.394 3.342a5.602 5.602 0 0 0-.178 1.45c-.357-.506-.677-1.236-.714-2.217-.072-1.506.802-2.622 1.647-3.702l.031-.04.08-.103c.617-.8 1.214-1.573 1.42-2.51.142-.655.251-1.268.32-1.78.713.837 1.5 2.069 1.5 3.412 0 1.67-.284 2.687-.284 2.687a.759.759 0 0 0 .178.725c.179.182.467.256.713.182a.983.983 0 0 1 .079-.03c.225-.08.861-.308 1.316-.77.036-.037.072-.082.107-.128.036-.045.071-.09.108-.128.283.582.535 1.45.535 2.58 0 2.036-1.573 2.943-2.606 3.342 0-.362 0-.762-.105-1.162-.106-.543-.357-.943-.609-1.306l-.021-.036c-.205-.346-.375-.633-.477-1.019A96.9 96.9 0 0 1 7 12.265a.743.743 0 0 0-.535-.618m4.074 7.26c1-.687 1.856-1.742 2.034-3.267h2.286v3.268zm10.396 0h-5.002V15.64h5.002z"/></svg>