<svg width="24" height="24" viewBox="0 0 24 24" fill="none" xmlns="http://www.w3.org/2000/svg">
<path fill-rule="evenodd" clip-rule="evenodd" d="M19.2524 14.552H19.1472V10.1918H10.5751C10.5385 10.1918 10.502 10.1918 10.3968 10.229C10.1141 10.3234 9.91342 10.7626 9.84528 10.9117L9.84528 10.9117L9.84528 10.9117L9.84526 10.9118C9.83628 10.9314 9.82961 10.946 9.82535 10.9541C9.86193 10.6287 9.86193 10.229 9.86193 9.82922C9.86193 6.66828 6.86284 4.27433 6.71654 4.16277C6.50167 3.98148 6.18164 3.9443 5.9302 4.0884C5.67875 4.2325 5.53702 4.48816 5.53702 4.77637C5.53702 4.77637 5.61017 6.04539 5.217 7.82574C5.07527 8.48117 4.54037 9.16914 3.9689 9.86176L3.85464 10.0177C2.95261 11.2474 1.93725 12.6315 2.00304 14.5846C2.10819 17.964 4.75525 19.1586 4.8604 19.1958C5.14385 19.3027 5.43187 19.233 5.64674 19.0517C5.86162 18.8332 5.89819 18.5079 5.78847 18.2522C5.78847 18.2522 5.35872 17.2342 5.71532 15.6026C5.78847 15.2772 5.85705 14.9843 5.96677 14.7287C6.00334 14.8728 6.03992 15.0169 6.07192 15.1656C6.20394 15.7762 6.46292 16.1931 6.69733 16.5705L6.74854 16.6531C6.76967 16.6873 6.7908 16.721 6.81175 16.7544C6.96762 17.003 7.11381 17.2361 7.17829 17.527C7.32002 18.1081 7.21486 18.9076 7.14172 19.1633C7.10514 19.3818 7.14172 19.6374 7.28344 19.8187C7.42517 19.9628 7.53489 20 7.71319 20H14.8543H16.9985H22V14.552H19.2524ZM18.0728 14.552H14.8589H12.6461C12.573 13.0645 12.1478 11.9721 11.7181 11.2842H18.0774V14.552H18.0728ZM6.46509 11.6468C6.74854 11.7211 6.96342 11.9768 6.99999 12.265C6.99999 12.3022 7.21487 13.8269 7.36116 14.724C7.46276 15.1103 7.63264 15.3967 7.83781 15.7427L7.83782 15.7427L7.85949 15.7792C8.11093 16.1418 8.36238 16.5416 8.46753 17.0854C8.57268 17.4852 8.57268 17.885 8.57268 18.2475C9.60591 17.8478 11.1786 16.9413 11.1786 14.9053C11.1786 13.7757 10.9271 12.9065 10.6437 12.3254C10.6071 12.3626 10.5717 12.4079 10.5363 12.4533C10.5008 12.4986 10.4654 12.5439 10.4288 12.5811C9.97438 13.0432 9.33843 13.2704 9.11255 13.3511C9.07257 13.3653 9.04543 13.375 9.03443 13.3806C8.78756 13.455 8.49954 13.3806 8.32124 13.1993C8.14294 13.018 8.06979 12.7298 8.14294 12.4742C8.14294 12.4742 8.42639 11.4562 8.42639 9.78738C8.42639 8.44398 7.64004 7.21215 6.92684 6.37543C6.85827 6.88676 6.74854 7.50035 6.60682 8.15578C6.4008 9.09174 5.80391 9.86531 5.18688 10.665L5.10727 10.7682L5.07628 10.8078C4.23085 11.8878 3.35717 13.0039 3.42943 14.5102C3.46601 15.491 3.78603 16.2208 4.14263 16.7275C4.14263 16.2952 4.1792 15.8211 4.32093 15.2772C4.78725 13.2412 5.67875 11.9721 5.71532 11.935C5.85705 11.7537 6.07192 11.6468 6.28679 11.6468H6.46509ZM10.5385 18.9076C11.5398 18.2196 12.3947 17.1645 12.573 15.6398H14.8589V18.9076H10.5385ZM17.003 18.9076H20.9302H20.9348V15.6398H19.2569H15.9332V18.9076H17.003Z" fill="#000033"/>
</svg>
