<svg width="24" height="24" fill="none" xmlns="http://www.w3.org/2000/svg"><path fill-rule="evenodd" clip-rule="evenodd" d="M19.252 14.552h-.105v-4.36h-8.572c-.036 0-.073 0-.178.037-.283.094-.484.534-.552.683-.009.02-.015.034-.02.042.037-.325.037-.725.037-1.125 0-3.16-3-5.555-3.145-5.666a.697.697 0 0 0-.787-.075.777.777 0 0 0-.393.688s.073 1.27-.32 3.05c-.142.655-.677 1.343-1.248 2.036l-.114.156c-.902 1.23-1.918 2.614-1.852 4.567.105 3.379 2.752 4.574 2.857 4.61a.775.775 0 0 0 .787-.143.735.735 0 0 0 .141-.8s-.43-1.018-.073-2.65c.073-.325.142-.618.252-.873.036.144.073.288.105.437.132.61.39 1.027.625 1.404l.052.083c.02.034.042.068.063.101.156.249.302.482.366.773.142.581.037 1.38-.036 1.636-.037.219 0 .474.141.656a.52.52 0 0 0 .43.181H22v-5.448h-2.748Zm-1.18 0h-5.426c-.073-1.487-.498-2.58-.928-3.268h6.36v3.268h-.005ZM6.466 11.647c.284.074.498.33.535.618 0 .037.215 1.562.361 2.459.102.386.272.673.477 1.019l.021.036c.252.363.503.763.609 1.306.105.4.105.8.105 1.162 1.033-.4 2.606-1.306 2.606-3.342 0-1.13-.252-1.998-.535-2.58a1.502 1.502 0 0 0-.108.128c-.035.046-.07.09-.107.128-.455.462-1.09.69-1.316.77a.983.983 0 0 0-.079.03.732.732 0 0 1-.713-.182.759.759 0 0 1-.178-.725s.283-1.018.283-2.687c0-1.343-.786-2.575-1.5-3.412a23.367 23.367 0 0 1-.32 1.78c-.205.937-.802 1.71-1.42 2.51l-.079.103-.03.04c-.846 1.08-1.72 2.196-1.648 3.702.037.981.357 1.71.714 2.217 0-.432.036-.906.178-1.45.466-2.036 1.358-3.305 1.394-3.342a.737.737 0 0 1 .572-.288h.178Zm4.074 7.26c1-.687 1.856-1.742 2.034-3.267h2.286v3.268h-4.32Zm6.464 0h3.932V15.64h-5.002v3.268h1.07Z" fill="#003"/></svg>