<svg width="24" height="24" fill="none" xmlns="http://www.w3.org/2000/svg"><path fill-rule="evenodd" clip-rule="evenodd" d="M2 12C2 6.488 6.488 2 12 2s10 4.488 10 10-4.488 10-10 10S2 17.512 2 12Zm17.67 1.147.557 1.243c.2-.69.315-1.412.338-2.166l-.896.923Zm.813-2.372-1.61 1.66-2.262-.357-2.02-3.95.928-1.823 2.413-.48a8.568 8.568 0 0 1 2.55 4.95Zm-14.25 4.721-.275 2.574a8.549 8.549 0 0 0 4.968 2.43l1.499-1.676-.197-2.386-3.93-1.997-2.066 1.055ZM3.91 14.83l1.253.608-.16 1.499a8.698 8.698 0 0 1-1.093-2.107Zm10.6 5.366-1.34-.599-.86.964a8.51 8.51 0 0 0 2.2-.365Zm-1.875-4.758-3.747-1.901.649-4.15 4.15-.663 1.91 3.739-2.962 2.975Zm4.223-10.494a8.4 8.4 0 0 0-1.974-1.014l.68 1.275 1.294-.26Zm-3.39-1.384 1.15 2.148-.982 1.937-4.378.704L7.695 6.79l.31-2.363a8.536 8.536 0 0 1 4-.992c.498-.004.987.041 1.462.123ZM6.643 6.551l.178-1.376a8.834 8.834 0 0 0-1.696 1.71l1.518-.334Zm-2.3 1.609 2.629-.58 1.53 1.526-.685 4.378-2.052 1.052-2.203-1.07A8.586 8.586 0 0 1 3.435 12a8.413 8.413 0 0 1 .91-3.84Zm9.141 10.402 2.4 1.07a8.64 8.64 0 0 0 3.802-3.844l-1.042-2.308-2.198-.348-3.149 3.159.187 2.271Z" fill="#003"/></svg>