<svg width="24" height="24" viewBox="0 0 24 24" fill="none" xmlns="http://www.w3.org/2000/svg">
<path fill-rule="evenodd" clip-rule="evenodd" d="M10.3707 19.7762C10.3707 21.0043 11.327 22 12.4963 22C13.6656 22 14.6219 21.0043 14.6219 19.7762V15.3333L20.917 3.09056C21.0348 2.86297 21.0258 2.58321 20.8989 2.36036C20.772 2.13751 20.5408 2 20.2916 2H4.71004C4.46077 2 4.22963 2.13751 4.10273 2.36036C3.9713 2.58321 3.96677 2.86297 4.0846 3.09056L10.3707 15.3333V19.7762ZM11.7031 14.7975L5.89293 3.47937H19.0996L13.2894 14.7975C13.2305 14.9066 13.2033 15.0251 13.2033 15.1484V19.7809C13.2033 20.1887 12.886 20.5206 12.4963 20.5206C12.1065 20.5206 11.7893 20.1887 11.7893 19.7809V15.1484C11.7893 15.0251 11.7575 14.9066 11.7031 14.7975Z" fill="#000033"/>
</svg>
