<svg width="24" height="24" fill="none" xmlns="http://www.w3.org/2000/svg"><path fill-rule="evenodd" clip-rule="evenodd" d="M17.998 9.037h-.167a3.88 3.88 0 0 0 .712-2.265C18.543 4.657 16.946 3 14.907 3c-1.578 0-2.886.99-3.398 2.42a2.952 2.952 0 0 0-1.69-.532c-1.555 0-2.728 1.218-2.728 2.83 0 .484.107.933.298 1.32H6.002C4.88 9.037 4 10.031 4 11.301v10.945c0 .415.326.753.726.753h14.548c.4 0 .726-.338.726-.753v-10.95c0-1.265-.88-2.26-2.002-2.26Zm.545 2.26v1.13h-5.82V10.54h5.275c.4.005.545.46.545.758ZM17.09 6.772c0-1.29-.94-2.265-2.183-2.265-1.243 0-2.183.975-2.183 2.265v2.265h2.183c1.248 0 2.183-.975 2.183-2.265Zm-8.546.942c0-.778.52-1.319 1.27-1.319.699 0 1.453.507 1.453 1.319v1.318H9.814c-.75.005-1.27-.54-1.27-1.318Zm2.727 2.83H5.997c-.4 0-.545.454-.545.758v1.13h5.82v-1.888ZM5.452 13.94h5.82v7.544h-5.82V13.94Zm7.272 0v7.544h5.819V13.94h-5.82Z" fill="#003"/></svg>