<svg width="24" height="24" fill="none" xmlns="http://www.w3.org/2000/svg"><path d="M12.005 1.5C6.49 1.5 2 6.213 2 12v6.56c0 2.246 1.536 3.935 3.571 3.935H7.36v-7.87H5.57c-.818 0-1.555.278-2.144.749V12c0-4.962 3.845-8.998 8.573-8.998S20.573 7.038 20.573 12v3.374a3.38 3.38 0 0 0-2.144-.749H16.64V22.5h1.788c2.035 0 3.571-1.694 3.571-3.935V12c.01-5.787-4.481-10.5-9.995-10.5Zm-6.43 14.622h.357v4.876h-.356c-1.244 0-2.145-1.027-2.145-2.438 0-1.41.901-2.438 2.145-2.438Zm12.502 4.876v-4.876h.356c1.244 0 2.145 1.027 2.145 2.438 0 1.411-.9 2.438-2.145 2.438h-.356Z" fill="#003"/></svg>