<svg width="24" height="24" fill="none" xmlns="http://www.w3.org/2000/svg"><path d="M11.478 22.26c.136.152.324.24.524.24a.694.694 0 0 0 .52-.243c.736-.827 1.844-2.081 2.96-3.432.001-.004.004-.007.007-.01a.04.04 0 0 0 .008-.01l2.628-3.407a.088.088 0 0 1 .008-.013l.008-.012C20.736 11.71 22 8.803 22 6.488c0-1.51-.516-2.794-1.496-3.717A4.724 4.724 0 0 0 17.253 1.5c-1.16 0-2.064.273-2.931.877-.712.495-1.444 1.25-2.324 2.403-1.856-2.403-3.34-3.28-5.419-3.28-1.22 0-2.351.457-3.18 1.288C2.485 3.698 2 4.982 2 6.488c0 2.236 1.168 5.009 3.567 8.478 2.004 2.89 4.447 5.646 5.911 7.295ZM3.428 6.489c0-2.408 1.583-3.486 3.151-3.486 1.584 0 2.768.533 4.855 3.46a.71.71 0 0 0 .572.303.71.71 0 0 0 .572-.302c2.112-2.958 3.151-3.457 4.683-3.457 1.596 0 3.315 1.09 3.315 3.486 0 1.95-1.2 4.635-3.567 7.979l-2.611 3.385a125.704 125.704 0 0 1-2.396 2.79C10.546 19 8.455 16.58 6.727 14.085c-2.192-3.159-3.3-5.718-3.3-7.597Z" fill="#003"/></svg>