<svg xmlns="http://www.w3.org/2000/svg" width="24" height="24" fill="none"><path fill="#003" d="M20.155 10.573h-6.461c-.03 0-.061 0-.092.004l-.265-.498 3.335-6.303c.183-.343.065-.782-.266-.97a.658.658 0 0 0-.923.28l-2.93 5.54-3.37-6.263a.662.662 0 0 0-.927-.27.732.732 0 0 0-.257.974l5.956 11.076c.353.64 1.067 1.07 1.78 1.07h4.424c.736 0 1.359-.654 1.359-1.427V12c0-.773-.627-1.426-1.363-1.426Zm-6.8 7.852h3.4c.936 0 1.702.8 1.702 1.788 0 .987-.766 1.787-1.702 1.787h-3.4c-.941 0-1.703-.8-1.703-1.787 0-.988.766-1.788 1.702-1.788Zm0 2.144h3.4c.187 0 .34-.16.34-.356a.349.349 0 0 0-.34-.357h-3.4c-.188 0-.34.16-.34.357 0 .196.152.356.34.356Zm2.377-6.783a.735.735 0 0 1-.597-.352L14.365 12h5.79v1.787H15.73Zm-4.08-2.048a.665.665 0 0 0-.932.26l-.396.719H3.828c-.735 0-1.358.653-1.358 1.426v1.604c0 .773.623 1.426 1.358 1.426h4.424c.71 0 1.428-.43 1.78-1.07l1.873-3.391a.737.737 0 0 0-.253-.974Zm-3.4 4.009H3.828v-1.609H9.54l-.687 1.252a.742.742 0 0 1-.601.357Z"/></svg>