<svg width="24" height="24" fill="none" xmlns="http://www.w3.org/2000/svg"><path fill-rule="evenodd" clip-rule="evenodd" d="m6.142 13.216 5.852 5.856 5.857-5.856c.463-.464.607-1.212.355-1.856-.248-.608-.783-.964-1.39-.964h-2.144v-7.68a.715.715 0 1 0-1.43 0v9.108h3.57s.035 0 .071.072c.036.104.036.248-.036.32l-4.853 4.856-4.853-4.856c-.072-.068-.072-.212-.036-.32.036-.072.072-.072.072-.072h3.57V2.716a.717.717 0 0 0-1.431-.004v7.68H7.173c-.608 0-1.14.356-1.391.964-.248.644-.104 1.396.36 1.86Zm-2 8.784h15.703c1.18 0 2.143-.964 2.155-2.144V12a.715.715 0 1 0-1.431 0v7.856a.718.718 0 0 1-.716.716H4.147a.718.718 0 0 1-.716-.716V12A.715.715 0 1 0 2 12v7.856C2 21.036 2.963 22 4.143 22Z" fill="#003"/></svg>