<svg xmlns="http://www.w3.org/2000/svg" width="24" height="24" fill="none"><path fill="#003" d="M12 17.356a.718.718 0 0 1-.716-.716V9.856c0-.392.32-.716.716-.716.392 0 .716.32.716.716v6.784a.718.718 0 0 1-.716.716ZM12 8.072a.892.892 0 1 0 0-1.784.892.892 0 0 0 0 1.784Z"/><path fill="#003" d="M2 12c0 5.5 4.5 10 10 10s10-4.5 10-10S17.5 2 12 2 2 6.5 2 12Zm1.428 0c0-4.716 3.856-8.572 8.572-8.572 4.716 0 8.572 3.856 8.572 8.572 0 4.716-3.856 8.572-8.572 8.572-4.716 0-8.572-3.856-8.572-8.572Z"/></svg>