<svg width="24" height="24" viewBox="0 0 24 24" fill="none" xmlns="http://www.w3.org/2000/svg">
<path fill-rule="evenodd" clip-rule="evenodd" d="M2 12C2 17.5 6.5 22 12 22C17.5 22 22 17.5 22 12C22 6.5 17.5 2 12 2C6.5 2 2 6.5 2 12ZM3.428 12C3.428 7.284 7.284 3.428 12 3.428C16.716 3.428 20.572 7.284 20.572 12C20.572 16.716 16.716 20.572 12 20.572C7.284 20.572 3.428 16.716 3.428 12ZM12 17.356C11.608 17.356 11.284 17.036 11.284 16.64V9.856C11.284 9.464 11.604 9.14 12 9.14C12.392 9.14 12.716 9.46 12.716 9.856V16.64C12.716 17.036 12.392 17.356 12 17.356ZM12 8.072C12.4926 8.072 12.892 7.67264 12.892 7.18C12.892 6.68736 12.4926 6.288 12 6.288C11.5074 6.288 11.108 6.68736 11.108 7.18C11.108 7.67264 11.5074 8.072 12 8.072Z" fill="#000033"/>
</svg>
