<svg width="24" height="24" fill="none" xmlns="http://www.w3.org/2000/svg"><path d="M12 2C6.479 2 2 6.479 2 12s4.474 10 10 10 10-4.479 10-10S17.521 2 12 2ZM8.522 4.17C7.356 5.854 6.575 8.372 6.47 11.288H3.43c.261-3.186 2.3-5.868 5.092-7.116Zm-2.057 8.543c.105 2.911.887 5.43 2.052 7.116-2.788-1.248-4.826-3.93-5.086-7.116h3.034Zm4.822 7.715c-1.792-.686-3.236-3.88-3.391-7.715h3.391v7.715Zm-3.391-9.141c.155-3.835 1.6-7.03 3.391-7.715v7.715H7.896Zm12.674 0h-3.035c-.105-2.911-.887-5.43-2.052-7.116 2.788 1.248 4.826 3.93 5.087 7.116Zm-4.466 0h-3.391V3.572c1.792.686 3.236 3.88 3.391 7.715Zm-3.391 9.14v-7.714h3.391c-.155 3.835-1.6 7.03-3.391 7.715Zm4.817-7.714h3.035c-.256 3.186-2.294 5.868-5.087 7.116 1.165-1.682 1.947-4.2 2.052-7.116Z" fill="#003"/></svg>