<svg width="24" height="24" viewBox="0 0 24 24" fill="none" xmlns="http://www.w3.org/2000/svg">
<path fill-rule="evenodd" clip-rule="evenodd" d="M12 2C6.47898 2 2 6.47898 2 12C2 17.521 6.47441 22 12 22C17.5256 22 22 17.521 22 12C22 6.47898 17.521 2 12 2ZM8.52194 4.17093C7.35649 5.85283 6.57495 8.37112 6.46984 11.287H3.43053C3.69104 8.10146 5.72943 5.41865 8.52194 4.17093ZM6.46527 12.713H3.43053C3.69104 15.8985 5.72943 18.5814 8.51737 19.8291C7.35192 18.1426 6.57038 15.6243 6.46527 12.713ZM11.287 20.4278C9.49543 19.7422 8.05119 16.5475 7.8958 12.713H11.287V20.4278ZM7.8958 11.287H11.287V3.57221C9.49543 4.25777 8.05119 7.45247 7.8958 11.287ZM20.5695 11.287H17.5347C17.4296 8.37569 16.6481 5.8574 15.4826 4.17093C18.2706 5.41865 20.309 8.10146 20.5695 11.287ZM16.1042 11.287C15.9488 7.45247 14.5046 4.25777 12.713 3.57221V11.287H16.1042ZM12.713 20.4278V12.713H16.1042C15.9488 16.5475 14.5046 19.7422 12.713 20.4278ZM17.5302 12.713C17.425 15.6289 16.6435 18.1472 15.4781 19.8291C18.2706 18.5814 20.309 15.8985 20.5649 12.713H17.5302Z" fill="#000033"/>
</svg>
