<svg width="24" height="24" viewBox="0 0 24 24" fill="none" xmlns="http://www.w3.org/2000/svg">
<path fill-rule="evenodd" clip-rule="evenodd" d="M5 7.428L10.428 2H20V22H5V7.428ZM10 7V4.428L7.428 7H10ZM18.572 20.572H6.428V8.428H11.428V3.428H18.572V20.572ZM8.572 13.072C8.18 13.072 7.856 13.392 7.856 13.788C7.856 14.184 8.176 14.504 8.572 14.504H16.428C16.82 14.504 17.144 14.184 17.144 13.788C17.144 13.392 16.824 13.072 16.428 13.072H8.572ZM16.428 16.644H8.572C8.18 16.644 7.856 16.964 7.856 17.36C7.856 17.752 8.176 18.076 8.572 18.076H16.428C16.82 18.076 17.144 17.756 17.144 17.36C17.144 16.964 16.82 16.644 16.428 16.644Z" fill="#000033"/>
</svg>
