<svg width="24" height="24" viewBox="0 0 24 24" fill="none" xmlns="http://www.w3.org/2000/svg">
<path d="M21.2413 12.5712C21.4881 12.9315 21.6344 13.3724 21.6344 13.8511C21.6344 14.8751 20.9625 15.7379 20.053 15.9938C20.149 16.2498 20.2084 16.5248 20.2084 16.8139C20.2084 17.8379 19.5366 18.7006 18.6271 18.9566C18.723 19.2126 18.7824 19.4876 18.7824 19.7767C18.7824 20.9998 17.8227 22 16.6389 22H10.5695C9.71481 22 8.85558 21.6397 8.27971 21.0424C7.96892 20.7201 7.47989 20.521 7 20.521H2.71298C2.31993 20.521 2 20.1891 2 19.7815C2 19.3738 2.31993 19.042 2.71298 19.042H7C7.85466 19.042 8.71389 19.4022 9.28976 19.9995C9.60055 20.3219 10.0896 20.521 10.5695 20.521H16.6389C17.032 20.521 17.3519 20.1891 17.3519 19.7815C17.3519 19.3738 17.032 19.042 16.6389 19.042C16.2459 19.042 15.926 18.7101 15.926 18.3024C15.926 17.8948 16.2459 17.5629 16.6389 17.5629H18.0649C18.458 17.5629 18.7779 17.2311 18.7779 16.8234C18.7779 16.4157 18.458 16.0839 18.0649 16.0839H17.7084C17.3154 16.0839 16.9954 15.7521 16.9954 15.3444C16.9954 14.9367 17.3154 14.6049 17.7084 14.6049H19.4954C19.8885 14.6049 20.2084 14.2731 20.2084 13.8654C20.2084 13.4577 19.8885 13.1259 19.4954 13.1259H18.0695C17.6764 13.1259 17.3565 12.794 17.3565 12.3863C17.3565 11.9787 17.6764 11.6468 18.0695 11.6468H19.8565C20.2495 11.6468 20.5695 11.315 20.5695 10.9073C20.5695 10.4996 20.2495 10.1678 19.8565 10.1678H12.7084C12.3154 10.1678 11.9954 9.83598 11.9954 9.4283C11.9954 9.02062 12.3154 8.68879 12.7084 8.68879H13.1426L14.1344 5.42735V4.40341C14.1344 3.89144 13.7687 3.47902 13.3208 3.47902C12.9872 3.47902 12.6033 3.65442 12.5027 4.04314L11.9726 6.25219C11.9406 6.38493 11.8766 6.50344 11.7852 6.59825L7.91865 10.6087C7.51188 11.0306 6.97715 11.2581 6.40585 11.2581H2.71298C2.31993 11.2581 2 10.9263 2 10.5186C2 10.1109 2.31993 9.77909 2.71298 9.77909H6.40585C6.59781 9.77909 6.77605 9.70325 6.91316 9.56103L10.638 5.69756L11.1271 3.67338C11.3876 2.6684 12.2697 2 13.33 2C14.564 2 15.5695 3.08082 15.5695 4.40815V5.51742C15.5695 5.59327 15.5603 5.66912 15.5375 5.74022L14.6463 8.66509H19.8565C21.0356 8.66509 22 9.66058 22 10.8884C21.9954 11.5615 21.7029 12.1635 21.2413 12.5712Z" fill="#000033"/>
</svg>
