<svg width="24" height="24" fill="none" xmlns="http://www.w3.org/2000/svg"><path fill-rule="evenodd" clip-rule="evenodd" d="M6.287 5.194C6.287 3.987 5.327 3 4.144 3 2.96 3 2 3.982 2 5.194c0 1.211.96 2.193 2.144 2.193 1.183 0 2.143-.986 2.143-2.193Zm14.995.365H7.713A.722.722 0 0 1 7 4.829c0-.402.32-.73.713-.73h13.57c.392 0 .712.328.712.73a.72.72 0 0 1-.713.73ZM22 12.5c0-.402-.32-.73-.713-.73H7.713A.722.722 0 0 0 7 12.5c0 .402.32.73.713.73h13.57A.723.723 0 0 0 22 12.5Zm-.713 6.946c.393 0 .713.327.713.73 0 .402-.32.73-.718.73H7.713a.722.722 0 0 1-.713-.73c0-.402.32-.73.713-.73h13.574Zm-15-6.946c0-1.207-.96-2.194-2.143-2.194C2.96 10.306 2 11.29 2 12.5c0 1.211.96 2.194 2.144 2.194 1.183 0 2.143-.987 2.143-2.194Zm-2.139.73a.722.722 0 0 0 .713-.73c0-.402-.32-.73-.713-.73a.722.722 0 0 0-.713.73c0 .402.32.73.713.73Zm2.139 6.576c0-1.207-.96-2.194-2.143-2.194-1.184 0-2.144.983-2.144 2.194C2 21.018 2.96 22 4.144 22c1.183 0 2.143-.982 2.143-2.194Zm-2.139.73a.722.722 0 0 0 .713-.73c0-.402-.32-.73-.713-.73a.722.722 0 0 0-.713.73c0 .402.32.73.713.73Zm0-14.613a.722.722 0 0 0 .713-.73.72.72 0 0 0-.713-.729.722.722 0 0 0-.713.73c0 .402.32.73.713.73Z" fill="#003"/></svg>