<svg width="24" height="24" viewBox="0 0 24 24" fill="none" xmlns="http://www.w3.org/2000/svg">
<path fill-rule="evenodd" clip-rule="evenodd" d="M18.9953 22H5V4.22328C5 3.0192 6.01381 2 7.21152 2H16.7885C17.9862 2 19 3.0192 19 4.22328V22H18.9953ZM6.4712 20.521H17.5241V4.22328C17.5241 3.84878 17.161 3.48376 16.7885 3.48376H7.2068C6.83429 3.48376 6.4712 3.84878 6.4712 4.22328V20.521ZM7.42371 7.52738L9.60222 9.71747L13.6245 5.67386C13.9121 5.38469 13.9121 4.91538 13.6245 4.62621C13.3368 4.33705 12.87 4.33705 12.5824 4.62621L9.60222 7.62219L8.46581 6.47973C8.17817 6.19057 7.71135 6.19057 7.42371 6.47973C7.13607 6.7689 7.13607 7.23821 7.42371 7.52738ZM9.60222 14.8277L7.42371 12.6376C7.13607 12.3484 7.13607 11.8791 7.42371 11.59C7.71135 11.3008 8.17817 11.3008 8.46581 11.59L9.60222 12.7324L12.5824 9.73643C12.87 9.44726 13.3368 9.44726 13.6245 9.73643C13.9121 10.0256 13.9121 10.4949 13.6245 10.7841L9.60222 14.8277ZM7.42371 17.8948L9.60222 20.0849L13.6245 16.0412C13.9121 15.7521 13.9121 15.2828 13.6245 14.9936C13.3368 14.7044 12.87 14.7044 12.5824 14.9936L9.60222 17.9896L8.46581 16.8471C8.17817 16.558 7.71135 16.558 7.42371 16.8471C7.13607 17.1363 7.13607 17.6056 7.42371 17.8948Z" fill="#000033"/>
</svg>
