<svg width="24" height="24" fill="none" xmlns="http://www.w3.org/2000/svg"><path d="M15.077 1.5c2.23 0 4.097 1.704 4.525 3.962H22V22.5H2V5.462h8.552c.429-2.258 2.295-3.962 4.525-3.962Zm3.078 4.95c0-1.856-1.379-3.367-3.078-3.367C13.38 3.083 12 4.594 12 6.45c0 1.253 1.689 4.418 3.077 6.67 1.389-2.257 3.078-5.417 3.078-6.67ZM3.536 10.16v10.758h6.746a4.217 4.217 0 0 1-.97-2.505c-.005-.041-.005-.076-.005-.112v-1.344c0-.994-.586-1.273-2.034-1.715-1.206-.365-2.703-.821-2.959-2.526-.005-.04-.01-.08-.01-.121v-1.188c0-.552-.315-1.024-.768-1.247Zm10.39 10.758h6.543V7.05h-.827c-.463 2.623-3.546 7.396-3.92 7.974a.768.768 0 0 1-.64.35.768.768 0 0 1-.64-.35c-.379-.578-3.456-5.351-3.92-7.974H3.537v1.446c1.315.274 2.31 1.476 2.31 2.912v1.12c.118.604.669.832 1.865 1.198 1.325.4 3.137.953 3.137 3.23v1.188c0 1.907 1.595 2.774 3.077 2.774ZM17.1 6.055c0-1.151-.91-2.085-2.024-2.085-1.117 0-2.023.939-2.023 2.085s.906 2.085 2.023 2.085c1.118 0 2.024-.933 2.024-2.085Zm-2.895 0c0-.497.389-.898.871-.898.483 0 .872.401.872.898a.883.883 0 0 1-.872.898.883.883 0 0 1-.871-.898Z" fill="#003"/></svg>