<svg width="24" height="24" viewBox="0 0 24 24" fill="none" xmlns="http://www.w3.org/2000/svg">
<path fill-rule="evenodd" clip-rule="evenodd" d="M17.908 8.07043V9.13886C19.0611 9.13886 19.9883 10.1032 20 11.2837V19.8551C20 21.0356 19.0611 22 17.9119 22H6.08814C4.93888 22 4 21.0356 4 19.8551V11.2837C4 10.1032 4.93888 9.13886 6.08814 9.13886V8.07043C6.08814 4.72109 8.73728 2 11.9981 2C15.2588 2 17.908 4.72509 17.908 8.07043ZM11.9981 3.43257C9.50864 3.43257 7.48283 5.51341 7.48283 8.07043V9.13886H16.5133V8.07043C16.5133 5.51341 14.4875 3.43257 11.9981 3.43257ZM18.6014 19.8511C18.6014 20.2473 18.2859 20.5634 17.908 20.5634H6.08814C5.70246 20.5634 5.39469 20.2393 5.39469 19.8511V11.2877C5.39469 10.8916 5.71025 10.5754 6.08814 10.5754H17.9119C18.2975 10.5754 18.6053 10.8996 18.6053 11.2877V19.8511H18.6014ZM6.64524 15.3814C6.69199 15.2533 7.86073 12.1761 11.9981 12.1761C16.1354 12.1761 17.3041 15.2533 17.3509 15.3814C17.3976 15.5014 17.3976 15.6335 17.3509 15.7535C17.3041 15.8816 16.1354 18.9588 11.9981 18.9588C7.86073 18.9588 6.69199 15.8816 6.64524 15.7535C6.59849 15.6335 6.59849 15.5014 6.64524 15.3814ZM7.701 15.5654C8.00097 16.1577 9.12296 17.8904 11.9981 17.8904C14.8576 17.8904 15.9951 16.1497 16.2951 15.5654C15.9951 14.9732 14.8731 13.2405 11.9981 13.2405C9.12686 13.2405 8.00097 14.9812 7.701 15.5654ZM10.0813 15.5694C10.0813 14.485 10.9423 13.6006 11.9981 13.6006C13.0538 13.6006 13.9148 14.485 13.9148 15.5694C13.9148 16.6539 13.0538 17.5382 11.9981 17.5382C10.9423 17.5382 10.0813 16.6539 10.0813 15.5694ZM11.1293 15.5654C11.1293 16.0616 11.5189 16.4578 11.9981 16.4578C12.4772 16.4578 12.8668 16.0616 12.8668 15.5654C12.8668 15.0692 12.4772 14.6731 11.9981 14.6731C11.515 14.6731 11.1293 15.0692 11.1293 15.5654Z" fill="#313235"/>
</svg>
