<svg xmlns="http://www.w3.org/2000/svg" width="24" height="24" fill="none"><path fill="#003" d="M15.506 2H9.213C7.293 2 5.72 3.608 5.72 5.571v5.715H3.727l.908-.928a.704.704 0 0 0 0-1 .668.668 0 0 0-.978 0L1 12.003l2.657 2.64c.14.143.317.215.49.215a.686.686 0 0 0 .488-.215.704.704 0 0 0 0-1l-.908-.928h9.157a.71.71 0 0 0 .7-.716.713.713 0 0 0-.7-.716H7.12V6.643h10.483v10.714H7.12v-3.035a.71.71 0 0 0-.7-.716c-.384 0-.7.324-.7.716v4.107C5.72 20.392 7.291 22 9.212 22h6.293C17.427 22 19 20.392 19 18.429V5.57C19 3.608 17.427 2 15.506 2ZM9.213 3.428h6.293c1.048 0 1.886.784 2.062 1.783H7.15c.176-.995 1.018-1.783 2.062-1.783Zm0 17.144c-1.048 0-1.886-.784-2.062-1.783h10.417c-.172.995-1.014 1.783-2.062 1.783H9.213Z"/></svg>