<svg width="24" height="24" viewBox="0 0 24 24" fill="none" xmlns="http://www.w3.org/2000/svg">
<path fill-rule="evenodd" clip-rule="evenodd" d="M15.9977 3.07429H17.8173C19.018 3.07429 20 4.03886 20 5.21829V22H4V5.21371C4 4.03429 4.98197 3.06971 6.18266 3.06971H8.00233V2H15.9977V3.07429ZM14.9087 3.07429H9.0541V4.86171H14.9087V3.07429ZM18.5433 20.5737H5.45666V12.3589H6.18266C6.36417 12.3589 6.5829 12.2537 6.65736 12.0754L7.9651 9.68457L10.4363 13.8629C10.5433 14.0411 10.7248 14.1143 10.911 14.1143C11.0925 14.1143 11.274 14.0091 11.3857 13.8629L13.2379 10.7223L14.0384 12.08C14.1827 12.2583 14.3642 12.3634 14.5457 12.3634H15.9977C16.2862 12.3634 16.5422 12.112 16.5422 11.8286C16.5422 11.5451 16.2862 11.2937 15.9977 11.2937H14.8714L13.7452 9.39657C13.6382 9.25486 13.452 9.14514 13.2705 9.14514C13.089 9.14514 12.9075 9.25029 12.7958 9.39657L10.9436 12.5417L8.43514 8.32686C8.3281 8.14857 8.1466 8.07543 7.96044 8.07543C7.77429 8.07543 7.59744 8.18057 7.48575 8.35886L5.85689 11.2891H5.45666V5.21829C5.45666 4.82514 5.78243 4.50514 6.18266 4.50514H8.00233V5.93143H16.0023V4.50057H17.8173C18.2176 4.50057 18.5433 4.82057 18.5433 5.21371V20.5737ZM7.82083 16.6469H16.1792C16.4724 16.6469 16.7283 16.8983 16.7283 17.1817C16.7283 17.4651 16.4724 17.7166 16.1838 17.7166H7.82083C7.53229 17.7166 7.27632 17.4651 7.27632 17.1817C7.27632 16.8983 7.53229 16.6469 7.82083 16.6469Z" fill="#000033"/>
</svg>
