<svg width="24" height="24" viewBox="0 0 24 24" fill="none" xmlns="http://www.w3.org/2000/svg">
<path fill-rule="evenodd" clip-rule="evenodd" d="M8.78398 2H15.216C17.184 2 18.784 3.604 18.784 5.572V18.428C18.784 20.396 17.18 22 15.212 22H8.78398C6.81598 22 5.21198 20.396 5.21198 18.428V5.572C5.21198 3.604 6.81598 2 8.78398 2ZM6.64398 6.644V17.356V17.36H17.36V6.644H6.64398ZM8.78398 3.428H15.212C16.272 3.428 17.152 4.2 17.324 5.212H6.67198C6.84398 4.204 7.72398 3.428 8.78398 3.428ZM8.78398 20.572H15.216C16.276 20.572 17.156 19.796 17.324 18.788H6.67198C6.84398 19.8 7.72398 20.572 8.78398 20.572Z" fill="#000033"/>
</svg>
