<svg width="24" height="24" fill="none" xmlns="http://www.w3.org/2000/svg"><path d="M19.406 2h-4.938c-1.164 0-2.117.964-2.117 2.144V4.5H4.597c-1.165 0-2.117.964-2.117 2.144v13.213c0 1.179.952 2.143 2.117 2.143h9.876c1.164 0 2.117-.964 2.117-2.143v-3.57h2.82c1.165 0 2.118-.964 2.118-2.143v-10C21.523 2.964 20.57 2 19.406 2Zm-5.642 3.574h6.346v7.139h-6.346V5.574Zm5.642-2.143a.71.71 0 0 1 .704.713V4.5h-6.346v-.356a.71.71 0 0 1 .704-.713h4.938Zm-14.81 2.5h7.76V7H3.888v-.356c0-.357.352-.713.709-.713Zm0 14.639c-.351 0-.703-.357-.703-.713V19.5h11.284v.357c-.005.356-.357.713-.709.713H4.597Zm10.576-2.144H3.888V8.074h8.463v6.07c0 1.179.953 2.143 2.117 2.143h.704v2.139Zm-.704-3.57a.71.71 0 0 1-.704-.713v-.356h6.346v.356a.71.71 0 0 1-.704.713h-4.938Z" fill="#003"/></svg>