<svg width="24" height="24" fill="none" xmlns="http://www.w3.org/2000/svg"><path d="M19.884 2h-4.926c-1.161 0-2.111.964-2.111 2.144V4.5H5.112C3.95 4.5 3 5.464 3 6.644v13.213C3 21.035 3.95 22 5.112 22h9.85c1.162 0 2.112-.964 2.112-2.143v-3.57h2.814c1.162 0 2.112-.964 2.112-2.143v-10C21.995 2.964 21.046 2 19.884 2Zm-5.628 3.574h6.33v7.139h-6.33V5.574Zm5.628-2.143c.387 0 .702.32.702.713V4.5h-6.33v-.356c0-.394.315-.713.702-.713h4.926ZM5.112 5.93h7.74V7H4.404v-.356c0-.357.35-.713.707-.713Zm0 14.639c-.352 0-.703-.357-.703-.713V19.5h11.256v.357c-.004.356-.355.713-.707.713H5.112Zm10.549-2.144H4.405V8.074h8.442v6.07c0 1.179.95 2.143 2.111 2.143h.703v2.139Zm-.703-3.57a.709.709 0 0 1-.702-.713v-.356h6.33v.356a.709.709 0 0 1-.702.713h-4.926Z" fill="#003"/></svg>