<svg width="24" height="24" viewBox="0 0 24 24" fill="none" xmlns="http://www.w3.org/2000/svg">
<path fill-rule="evenodd" clip-rule="evenodd" d="M22 2.75524C22 2.52867 21.8913 2.3021 21.7101 2.15105C21.5289 2 21.2752 1.96224 21.0578 2.03776L8.34991 5.82238C8.02376 5.8979 7.80632 6.2 7.80632 6.53986V16.186C7.18623 15.6951 6.46145 15.4308 5.62794 15.4308C3.63076 15.4308 2 17.1343 2 19.2112C2 21.2881 3.62674 23 5.62392 23C7.6211 23 9.25186 21.2965 9.25186 19.2196V7.11049L20.5102 3.74126V12.7832C19.8901 12.2923 19.1653 12.028 18.3318 12.028C16.3346 12.028 14.7038 13.7315 14.7038 15.8084C14.7038 17.8853 16.3386 19.5888 18.3318 19.5888C20.3249 19.5888 21.9597 17.8853 21.9597 15.8084C22 15.7706 22 2.75524 22 2.75524ZM5.66016 21.4853C4.46024 21.4853 3.48178 20.4615 3.48178 19.2154C3.48178 17.9692 4.46426 16.9455 5.66016 16.9455C6.85605 16.9455 7.83853 17.9692 7.83853 19.2154C7.83853 20.4615 6.86008 21.4853 5.66016 21.4853ZM16.1897 15.8084C16.1897 17.0545 17.1681 18.0783 18.368 18.0783C19.5639 18.0783 20.5464 17.0587 20.5464 15.8084C20.5464 14.5622 19.5639 13.5385 18.368 13.5385C17.1721 13.5385 16.1897 14.5622 16.1897 15.8084Z" fill="#000033"/>
</svg>
