<svg width="24" height="24" fill="none" xmlns="http://www.w3.org/2000/svg"><path d="M5.105 2v20h13.793V2H5.105Zm6.532 12.963H7.279v-4.072h4.358v4.072ZM10.55 12H8.37v1.854h2.18V12Zm5.988.74a.547.547 0 0 1-.543.554H13.09a.547.547 0 0 1-.544-.554c0-.309.242-.555.544-.555h2.904c.297 0 .543.251.543.555Zm-4.901 7.04H7.279v-4.072h4.358v4.073ZM8.37 16.818v1.854h2.179v-1.854H8.37Zm7.623 1.665a.547.547 0 0 0 .544-.555.55.55 0 0 0-.543-.555H13.09a.547.547 0 0 0-.544.555c0 .308.242.555.544.555h2.904Zm-9.44-9.445V5.518h10.89v3.519H6.554Zm10.89-5.558v.925H6.554v-.925h10.89Zm0 17.042H6.554V10.146h10.89v10.375Z" fill="#003"/></svg>