<svg width="24" height="24" fill="none" xmlns="http://www.w3.org/2000/svg"><path d="m19.5 12 2.3 2.502a.747.747 0 0 1 .164.741.756.756 0 0 1-.567.506l-3.328.668.389 3.379a.739.739 0 0 1-.303.692.759.759 0 0 1-.754.078l-3.083-1.415-1.667 2.964a.747.747 0 0 1-1.307 0l-1.666-2.964-3.084 1.415a.757.757 0 0 1-.754-.078.76.76 0 0 1-.302-.692l.393-3.378-3.328-.67a.74.74 0 0 1-.567-.505.76.76 0 0 1 .163-.74L4.5 12 2.2 9.498a.747.747 0 0 1-.164-.741.756.756 0 0 1 .567-.506l3.328-.669-.393-3.378a.739.739 0 0 1 .302-.693.747.747 0 0 1 .754-.077L9.678 4.85l1.666-2.964a.747.747 0 0 1 1.307 0l1.667 2.964L17.4 3.434a.749.749 0 0 1 1.057.77l-.39 3.378 3.33.67a.741.741 0 0 1 .566.505.76.76 0 0 1-.163.74L19.5 12Zm-2.406 3.08 2.699-.54-1.864-2.03a.756.756 0 0 1 0-1.02l1.864-2.03-2.7-.545a.753.753 0 0 1-.595-.822l.317-2.739-2.502 1.15a.748.748 0 0 1-.966-.312l-1.35-2.401-1.349 2.396a.75.75 0 0 1-.965.313L7.18 5.35l.317 2.738a.745.745 0 0 1-.595.823l-2.7.543 1.864 2.031a.756.756 0 0 1 0 1.02l-1.864 2.031 2.7.544c.379.077.638.433.595.823L7.18 18.64l2.503-1.15a.743.743 0 0 1 .965.318l1.35 2.4 1.35-2.406a.75.75 0 0 1 .965-.312l2.502 1.15-.317-2.738a.745.745 0 0 1 .596-.823Zm-2.753 1.054a.566.566 0 0 0 .005-1.13h-3.098a1.69 1.69 0 0 0 .096-.564v-1.694h1.691a.56.56 0 0 0 .562-.563.56.56 0 0 0-.562-.563h-1.69v-1.502c0-.62.504-1.126 1.123-1.126.26 0 .505.087.706.25a.563.563 0 1 0 .711-.875 2.263 2.263 0 0 0-1.417-.5 2.258 2.258 0 0 0-2.252 2.256v1.502h-.188a.56.56 0 0 0-.562.563c0 .313.25.563.562.563h.183v1.694a.554.554 0 0 1-.562.563.56.56 0 0 0-.562.563c0 .312.25.563.562.563h4.693Z" fill="#003"/></svg>