<svg width="24" height="24" viewBox="0 0 24 24" fill="none" xmlns="http://www.w3.org/2000/svg">
<path fill-rule="evenodd" clip-rule="evenodd" d="M19.4999 12.5L21.8006 9.99771C21.9831 9.7956 22.0455 9.5165 21.9639 9.25665C21.8822 8.99679 21.6661 8.80431 21.3971 8.75137L18.0686 8.08249L18.4577 4.7044C18.4913 4.43492 18.3712 4.17026 18.1551 4.01146C17.9341 3.85266 17.6459 3.82379 17.401 3.93446L14.3175 5.34922L12.6508 2.38497C12.5163 2.14918 12.2666 2 11.9976 2C11.7286 2 11.4789 2.14436 11.3444 2.38497L9.67774 5.34922L6.59421 3.93446C6.34925 3.82379 6.06107 3.84785 5.84013 4.01146C5.61919 4.17026 5.50392 4.43492 5.53754 4.7044L5.93139 8.08249L2.6029 8.75137C2.33873 8.80431 2.1226 8.99679 2.03614 9.25665C1.95449 9.5165 2.01213 9.80041 2.19945 9.99771L4.50009 12.5L2.19945 15.0023C2.01693 15.2044 1.95449 15.4835 2.03614 15.7434C2.1178 16.0032 2.33393 16.1957 2.6029 16.2486L5.93139 16.9175L5.53754 20.2956C5.50872 20.5651 5.624 20.8297 5.84013 20.9885C6.05627 21.1473 6.34925 21.1762 6.59421 21.0655L9.67774 19.6508L11.3444 22.615C11.4789 22.8508 11.7286 23 11.9976 23C12.2666 23 12.5163 22.8556 12.6508 22.615L14.3175 19.6508L17.401 21.0655C17.6459 21.1762 17.9341 21.1473 18.1551 20.9885C18.376 20.8297 18.4913 20.5651 18.4577 20.2956L18.0686 16.9175L21.3971 16.2486C21.6613 16.1957 21.8774 16.0032 21.9639 15.7434C22.0455 15.4835 21.9879 15.1996 21.8006 15.0023L19.4999 12.5ZM17.0936 15.5797C16.7094 15.6567 16.45 16.0128 16.498 16.4026L16.815 19.1407L14.3127 17.9906C13.9572 17.827 13.5394 17.9665 13.3472 18.3034L11.9976 20.7094L10.648 18.3082C10.5135 18.0628 10.2589 17.9232 9.99474 17.9232C9.88907 17.9232 9.78341 17.9473 9.68254 17.9906L7.18017 19.1407L7.49717 16.4026C7.5404 16.0128 7.28104 15.6567 6.9016 15.5797L4.2023 15.036L6.06587 13.0053C6.33004 12.7165 6.33004 12.2738 6.06587 11.9851L4.2023 9.9544L6.9016 9.41063C7.28584 9.33364 7.5452 8.97754 7.49717 8.58776L7.18017 5.84968L9.68254 6.99977C10.038 7.16338 10.4558 7.02383 10.648 6.68698L11.9976 4.29056L13.3472 6.6918C13.5394 7.03346 13.962 7.16819 14.3127 7.00458L16.815 5.85449L16.498 8.59258C16.4548 8.98236 16.7142 9.33845 17.0936 9.41544L19.7929 9.95921L17.9293 11.9899C17.6652 12.2786 17.6652 12.7214 17.9293 13.0101L19.7929 15.0408L17.0936 15.5797ZM14.3415 16.6336C14.6537 16.6336 14.9034 16.3834 14.9034 16.0706C14.9034 15.7578 14.6537 15.5076 14.3463 15.5028H11.2483C11.3108 15.3247 11.3444 15.137 11.3444 14.9397V13.2459H13.035C13.3472 13.2459 13.597 12.9956 13.597 12.6829C13.597 12.3701 13.3472 12.1198 13.035 12.1198H11.3444V10.6185C11.3444 9.99771 11.8487 9.49244 12.4683 9.49244C12.7277 9.49244 12.9726 9.57906 13.1743 9.74267C13.4193 9.93996 13.7699 9.90147 13.9668 9.66086C14.1638 9.42026 14.1253 9.06416 13.8852 8.86687C13.4865 8.54445 12.9822 8.36641 12.4683 8.36641C11.2243 8.36641 10.2157 9.38176 10.2157 10.6233V12.1247H10.0284C9.71617 12.1247 9.46641 12.3749 9.46641 12.6877C9.46641 13.0005 9.71617 13.2507 10.0284 13.2507H10.2109V14.9445C10.2109 15.2621 9.96592 15.5076 9.64892 15.5076C9.33673 15.5076 9.08697 15.7578 9.08697 16.0706C9.08697 16.3834 9.33673 16.6336 9.64892 16.6336H14.3415Z" fill="#000033"/>
</svg>
