<svg xmlns="http://www.w3.org/2000/svg" width="24" height="24" fill="none"><path fill="#003" d="M3.796 2H20.2c.494 0 .885.398.89.887V22H10.007v-6.667H7.343v6.661H2.91V2.887c0-.489.397-.887.886-.887Zm7.98 11.553v6.666h7.54V3.776H4.68V20.22h.886v-6.667h6.21Z"/><path fill="#003" d="M18.43 17.552h-5.768v-3.999h5.768v3.999Zm-1.334-2.662H13.99v1.33h3.105v-1.33ZM11.334 9.332H5.567V5.333h5.767v4ZM10 6.664H6.895v1.331H10v-1.33ZM18.43 9.332h-5.768V5.333h5.768v4Zm-1.334-2.668H13.99v1.331h3.105v-1.33Z"/></svg>