<svg width="24" height="24" viewBox="0 0 24 24" fill="none" xmlns="http://www.w3.org/2000/svg">
<path fill-rule="evenodd" clip-rule="evenodd" d="M19.7815 22H4.22328C3.00024 22 2 21.0045 2 19.7767V4.22328C2 3.00024 2.9955 2 4.22328 2H19.7767C20.9998 2 22 2.9955 22 4.22328V19.7767C22 21.0045 21.0045 22 19.7815 22ZM8.30007 17.9279C8.30007 18.3356 8.6319 18.6675 9.03958 18.6675C9.44726 18.6675 9.77909 18.3356 9.78384 17.9279V13.4814H12.7466C14.9889 13.4814 16.8187 11.6516 16.8187 9.40934C16.8187 7.1671 14.9936 5.33728 12.7466 5.33728H8.30007V17.9279ZM12.7419 12.0024H9.77909V6.81631H12.7419C14.1735 6.81631 15.3349 7.97772 15.3349 9.40934C15.3349 10.841 14.1735 12.0024 12.7419 12.0024ZM3.48376 4.22328C3.48376 3.8156 3.8156 3.48376 4.22328 3.48376H19.7767C20.1844 3.48376 20.5162 3.8156 20.5162 4.22328V19.7767C20.5162 20.1844 20.1844 20.5162 19.7767 20.5162H4.22328C3.8156 20.5162 3.48376 20.1844 3.48376 19.7767V4.22328Z" fill="#000033"/>
</svg>
