<svg width="24" height="24" fill="none" xmlns="http://www.w3.org/2000/svg"><path d="M19.782 22H4.223A2.226 2.226 0 0 1 2 19.777V4.223C2 3 2.995 2 4.223 2h15.554C21 2 22 2.995 22 4.223v15.554A2.222 2.222 0 0 1 19.782 22ZM8.3 17.928a.74.74 0 0 0 1.484 0V13.48h2.963a4.08 4.08 0 0 0 4.072-4.072 4.078 4.078 0 0 0-4.072-4.072H8.3v12.59Zm4.442-5.926H9.779V6.816h2.963a2.594 2.594 0 0 1 0 5.186ZM3.484 4.223v15.554c0 .407.332.74.74.74h15.553a.74.74 0 0 0 .74-.74V4.223a.74.74 0 0 0-.74-.74H4.223a.74.74 0 0 0-.74.74Z" fill="#003"/></svg>