<svg xmlns="http://www.w3.org/2000/svg" width="24" height="24" fill="none"><path fill="#003" fill-rule="evenodd" d="M8.11 4.5c1.465 0 2.61 1.204 2.61 2.63v9.748A2.615 2.615 0 0 1 8.11 19.5c-1.466 0-2.61-1.204-2.61-2.63V7.13c0-1.426 1.144-2.63 2.61-2.63Zm7.78 0c1.466 0 2.61 1.204 2.61 2.63v9.748a2.615 2.615 0 0 1-2.61 2.622c-1.465 0-2.61-1.204-2.61-2.63V7.13c0-1.426 1.145-2.63 2.61-2.63ZM8.11 6c.611 0 1.11.507 1.11 1.13v9.748C9.22 17.5 8.72 18 8.11 18 7.498 18 7 17.493 7 16.87V7.13C7 6.506 7.498 6 8.11 6ZM17 7.13C17 6.506 16.502 6 15.89 6c-.611 0-1.11.507-1.11 1.13v9.74c0 .623.499 1.13 1.11 1.13.612 0 1.11-.5 1.11-1.122V7.129Z" clip-rule="evenodd"/></svg>