<svg width="24" height="24" viewBox="0 0 24 24" fill="none" xmlns="http://www.w3.org/2000/svg">
<path fill-rule="evenodd" clip-rule="evenodd" d="M15.5331 3.10728C17.009 1.63091 19.413 1.63091 20.889 3.10728C22.369 4.58365 22.369 6.98425 20.897 8.46062L20.173 9.1848L19.661 9.69692L9.15712 20.2036C9.04912 20.3116 8.90912 20.3796 8.76912 20.4036L2.91318 21.976C2.84918 21.992 2.78918 22 2.72518 22C2.53318 22 2.34918 21.924 2.21319 21.7879C2.02919 21.6079 1.95719 21.3398 2.02519 21.0918L3.61317 15.1663C3.64917 15.0223 3.73317 14.8942 3.84117 14.8022L14.8091 3.83146L15.5331 3.10728ZM4.68116 16.7507L3.74517 20.2556L7.24514 19.3153L4.68116 16.7507ZM8.64512 18.6672L5.33316 15.3543L15.3251 5.35984L18.637 8.67267L8.64512 18.6672ZM19.657 7.65241L19.869 7.44036C20.781 6.52813 20.781 5.03976 19.869 4.12753C18.957 3.2153 17.469 3.2153 16.557 4.12753L16.3451 4.33958L19.657 7.65241Z" fill="#000033"/>
</svg>
