<svg width="24" height="24" fill="none" xmlns="http://www.w3.org/2000/svg"><path fill-rule="evenodd" clip-rule="evenodd" d="m9.2 5.038-.439.261a.576.576 0 0 0-.203.77.537.537 0 0 0 .738.209l.452-.266v.527c0 .309.24.556.54.556.3 0 .54-.247.54-.556v-.527l.451.266a.538.538 0 0 0 .738-.21.568.568 0 0 0-.203-.76l-.438-.26.438-.262a.564.564 0 0 0 .203-.76.53.53 0 0 0-.738-.209l-.452.266v-.527a.546.546 0 0 0-.54-.556c-.299 0-.539.247-.539.556v.518l-.452-.266a.535.535 0 0 0-.738.209.568.568 0 0 0 .203.76l.438.261Zm2.767 4.532c.156-.043.313-.076.484-.076.996 0 1.803.831 1.785 1.853v4.456c0 .27-.06.67-.222.979l-2.029 3.833a.713.713 0 0 1-.978.295.757.757 0 0 1-.286-1.007l2.03-3.834a.855.855 0 0 0 .046-.266v-4.456a.366.366 0 0 0-.36-.37.366.366 0 0 0-.36.37v1.482a.732.732 0 0 1-.72.741.732.732 0 0 1-.719-.741V10.235a.366.366 0 0 0-.36-.37.366.366 0 0 0-.36.37v1.482a.731.731 0 0 1-.719.741.731.731 0 0 1-.72-.74V9.864a.366.366 0 0 0-.359-.37.366.366 0 0 0-.36.37V11.717a.731.731 0 0 1-.72.741.731.731 0 0 1-.719-.74V5.78a.366.366 0 0 0-.36-.371.366.366 0 0 0-.359.37v9.283a.732.732 0 0 1-.72.74.732.732 0 0 1-.719-.74V12.468a.366.366 0 0 0-.36-.37.366.366 0 0 0-.36.37v3.71c0 .095.033.214.051.252l2.007 3.449a.755.755 0 0 1-.25 1.016.713.713 0 0 1-.987-.256L2.259 17.19A2.097 2.097 0 0 1 2 16.173v-3.71c0-1.026.812-1.857 1.803-1.857.125 0 .245.014.36.038V5.779c0-1.026.807-1.857 1.803-1.857.997 0 1.804.836 1.804 1.857v2.266a1.76 1.76 0 0 1 1.674.56c.253-.142.535-.227.844-.227.765 0 1.416.498 1.679 1.192Zm5.096-5.549a.535.535 0 0 0-.738-.209l-.452.266v-.522a.546.546 0 0 0-.54-.556c-.3 0-.54.247-.54.556v.527l-.451-.266a.53.53 0 0 0-.738.21.564.564 0 0 0 .203.76l.438.26-.438.262a.568.568 0 0 0-.203.76.537.537 0 0 0 .738.209l.452-.266v.527c0 .309.24.556.54.556.3 0 .539-.247.539-.556v-.527l.452.266a.538.538 0 0 0 .738-.21.564.564 0 0 0-.203-.76l-.438-.26.438-.262a.572.572 0 0 0 .203-.765Zm4.225 1.017.438.261c.262.152.35.49.203.77a.537.537 0 0 1-.738.209l-.452-.266v.527c0 .309-.24.556-.54.556-.3 0-.54-.247-.54-.556v-.527l-.451.266a.538.538 0 0 1-.738-.21.568.568 0 0 1 .203-.76l.438-.26-.439-.262a.564.564 0 0 1-.202-.76.53.53 0 0 1 .738-.209l.452.266v-.527c0-.309.24-.556.54-.556.299 0 .539.247.539.556v.518l.452-.266a.535.535 0 0 1 .738.209.568.568 0 0 1-.203.76l-.438.261Z" fill="#003"/></svg>