<svg width="24" height="24" viewBox="0 0 24 24" fill="none" xmlns="http://www.w3.org/2000/svg">
<path fill-rule="evenodd" clip-rule="evenodd" d="M9.19938 5.038L8.76123 5.29929C8.50296 5.45131 8.41072 5.7886 8.5583 6.06888C8.65977 6.24941 8.83964 6.34917 9.02873 6.34917C9.12097 6.34917 9.21321 6.32542 9.29623 6.27791L9.74821 6.01188V6.53919C9.74821 6.84798 9.98803 7.09501 10.2878 7.09501C10.5876 7.09501 10.8274 6.84798 10.8274 6.53919V6.01188L11.2794 6.27791C11.3624 6.32542 11.4547 6.34917 11.5469 6.34917C11.736 6.34917 11.9159 6.24941 12.0173 6.06888C12.1649 5.80285 12.0727 5.46081 11.8144 5.30879L11.3763 5.04751L11.8144 4.78622C12.0773 4.6342 12.1649 4.29216 12.0173 4.02613C11.8697 3.75534 11.5377 3.66508 11.2794 3.8171L10.8274 4.08314V3.55582C10.8274 3.24703 10.5876 3 10.2878 3C9.98803 3 9.74821 3.24703 9.74821 3.55582V4.07363L9.29623 3.8076C9.03796 3.65558 8.70589 3.75059 8.5583 4.01663C8.41072 4.28266 8.50296 4.6247 8.76123 4.77672L9.19938 5.038ZM11.9666 9.57007C12.1234 9.52732 12.2802 9.49406 12.4509 9.49406C13.4471 9.49406 14.2542 10.3254 14.2357 11.3468V15.8029C14.2357 16.0736 14.1758 16.4727 14.0143 16.7815L11.985 20.6152C11.8559 20.8622 11.6069 21 11.3532 21C11.2333 21 11.118 20.9715 11.0073 20.9097C10.6614 20.715 10.5323 20.2637 10.7213 19.9026L12.7506 16.0689C12.7691 16.0309 12.7968 15.8979 12.7968 15.8029V11.3468C12.7968 11.1425 12.6353 10.9762 12.437 10.9762C12.2387 10.9762 12.0773 11.1425 12.0773 11.3468V12.0879V12.829C12.0773 13.2375 11.7544 13.5701 11.3578 13.5701C10.9612 13.5701 10.6383 13.2375 10.6383 12.829V12.0879V11.3468V10.2352C10.6383 10.0309 10.4769 9.86461 10.2786 9.86461C10.0803 9.86461 9.91885 10.0309 9.91885 10.2352V10.9762V11.7173C9.91885 12.1259 9.59601 12.4584 9.19938 12.4584C8.80274 12.4584 8.4799 12.1259 8.4799 11.7173V10.9762V10.2352V9.86461C8.4799 9.66033 8.31848 9.49406 8.12016 9.49406C7.92184 9.49406 7.76042 9.66033 7.76042 9.86461V10.9762V11.7173C7.76042 12.1259 7.43758 12.4584 7.04095 12.4584C6.64431 12.4584 6.32147 12.1259 6.32147 11.7173V10.9762V9.85986V5.7791C6.32147 5.57482 6.16005 5.40855 5.96173 5.40855C5.76342 5.40855 5.60199 5.57482 5.60199 5.7791V12.4679V13.5796V15.0618C5.60199 15.4703 5.27915 15.8029 4.88252 15.8029C4.48588 15.8029 4.16304 15.4703 4.16304 15.0618V13.5796V12.4679C4.16304 12.2637 4.00162 12.0974 3.8033 12.0974C3.60499 12.0974 3.44357 12.2637 3.44357 12.4679V16.1781C3.44357 16.2732 3.47585 16.3919 3.4943 16.4299L5.50053 19.8789C5.70346 20.2304 5.59277 20.6865 5.25148 20.8955C5.13618 20.9667 5.00704 21 4.88252 21C4.63808 21 4.39825 20.8717 4.26451 20.639L2.25827 17.19C2.09685 16.9145 2 16.5344 2 16.1734V12.4632C2 11.4371 2.81172 10.6057 3.8033 10.6057C3.92783 10.6057 4.04774 10.62 4.16304 10.6437V5.7791C4.16304 4.75297 4.97015 3.92162 5.96634 3.92162C6.96254 3.92162 7.76965 4.75772 7.76965 5.7791V8.04513C7.88495 8.02138 8.00486 8.00713 8.12939 8.00713C8.65055 8.00713 9.11636 8.2399 9.44381 8.6057C9.69748 8.46318 9.97881 8.37767 10.2878 8.37767C11.0534 8.37767 11.7037 8.87648 11.9666 9.57007ZM17.0629 4.02138C16.9153 3.75534 16.5832 3.66033 16.325 3.81235L15.873 4.07838V3.55582C15.873 3.24703 15.6332 3 15.3334 3C15.0336 3 14.7938 3.24703 14.7938 3.55582V4.08314L14.3418 3.8171C14.0835 3.66508 13.7514 3.75534 13.6039 4.02613C13.4563 4.29216 13.5439 4.6342 13.8068 4.78622L14.2449 5.04751L13.8068 5.30879C13.5485 5.46081 13.4563 5.80285 13.6039 6.06888C13.7053 6.24941 13.8852 6.34917 14.0743 6.34917C14.1665 6.34917 14.2588 6.32542 14.3418 6.27791L14.7938 6.01188V6.53919C14.7938 6.84798 15.0336 7.09501 15.3334 7.09501C15.6332 7.09501 15.873 6.84798 15.873 6.53919V6.01188L16.325 6.27791C16.408 6.32542 16.5002 6.34917 16.5925 6.34917C16.7816 6.34917 16.9614 6.24941 17.0629 6.06888C17.2105 5.80285 17.1228 5.46081 16.86 5.30879L16.4218 5.04751L16.86 4.78622C17.1228 4.6247 17.2105 4.28741 17.0629 4.02138ZM21.2875 5.038L21.7256 5.29929C21.9885 5.45131 22.0762 5.7886 21.9286 6.06888C21.8271 6.24941 21.6472 6.34917 21.4581 6.34917C21.3659 6.34917 21.2737 6.32542 21.1907 6.27791L20.7387 6.01188V6.53919C20.7387 6.84798 20.4988 7.09501 20.1991 7.09501C19.8993 7.09501 19.6595 6.84798 19.6595 6.53919V6.01188L19.2075 6.27791C19.1245 6.32542 19.0322 6.34917 18.94 6.34917C18.7509 6.34917 18.571 6.24941 18.4696 6.06888C18.322 5.80285 18.4142 5.46081 18.6725 5.30879L19.1106 5.04751L18.6725 4.78622C18.4096 4.6342 18.322 4.29216 18.4696 4.02613C18.6171 3.75534 18.9492 3.66508 19.2075 3.8171L19.6595 4.08314V3.55582C19.6595 3.24703 19.8993 3 20.1991 3C20.4988 3 20.7387 3.24703 20.7387 3.55582V4.07363L21.1907 3.8076C21.4489 3.65558 21.781 3.75059 21.9286 4.01663C22.0762 4.28266 21.9839 4.6247 21.7256 4.77672L21.2875 5.038Z" fill="#313235"/>
</svg>
