<svg width="24" height="24" fill="none" xmlns="http://www.w3.org/2000/svg"><path fill-rule="evenodd" clip-rule="evenodd" d="M11.183 13.2c0 .439.367.8.815.8a.812.812 0 0 0 .815-.8V2.8c0-.438-.367-.8-.815-.8a.812.812 0 0 0-.815.8v10.4ZM2 13.2c0 5.401 4.492 9.8 9.998 9.8 5.51 0 9.998-4.403 10.002-9.8 0-4.238-2.777-8.001-6.898-9.318-.408-.123-.9.117-1.021.517-.121.4.12.884.529 1.002 3.43 1.12 5.755 4.239 5.755 7.8 0 4.52-3.753 8.2-8.367 8.2-4.614 0-8.367-3.68-8.367-8.2 0-3.561 2.329-6.684 5.76-7.8.448-.122.65-.602.528-1.002-.12-.437-.613-.635-1.02-.517C4.772 5.199 2 8.958 2 13.2Z" fill="#003"/></svg>