<svg width="24" height="24" viewBox="0 0 24 24" fill="none" xmlns="http://www.w3.org/2000/svg">
<path fill-rule="evenodd" clip-rule="evenodd" d="M11.1826 13.2008C11.1826 13.6386 11.5499 14.0006 11.998 14.0006C12.446 14.0006 12.8133 13.6386 12.8133 13.2008V2.79976C12.8133 2.362 12.446 2 11.998 2C11.5499 2 11.1826 2.362 11.1826 2.79976V13.2008ZM2 13.2008C2 18.6013 6.49243 23 11.998 23C17.5076 23 21.996 18.5971 22 13.2008C22 8.96212 19.223 5.19904 15.1019 3.88154C14.6942 3.75947 14.2018 3.9994 14.0807 4.39928C13.9596 4.79916 14.2018 5.28322 14.6095 5.40108C18.0404 6.52075 20.3653 9.63981 20.3653 13.2008C20.3653 17.7216 16.6115 21.4005 11.998 21.4005C7.38446 21.4005 3.63068 17.7216 3.63068 13.2008C3.63068 9.63981 5.95964 6.51654 9.39051 5.40108C9.83855 5.27901 10.0404 4.79916 9.91927 4.39928C9.79818 3.96152 9.30575 3.76368 8.89808 3.88154C4.77296 5.19904 2 8.95791 2 13.2008Z" fill="#000033"/>
</svg>
