<svg width="24" height="24" fill="none" xmlns="http://www.w3.org/2000/svg"><path fill-rule="evenodd" clip-rule="evenodd" d="M11.26 5.704a.74.74 0 0 0 1.48 0V2.74a.74.74 0 0 0-1.48 0v2.964Zm0 15.556a.74.74 0 0 0 1.48 0v-2.964a.74.74 0 0 0-1.48 0v2.964Zm4.296.036a.733.733 0 0 1-.668-.444l-1.148-2.74a.751.751 0 0 1 .408-.964.751.751 0 0 1 .964.408l1.148 2.74a.751.751 0 0 1-.408.964c-.062 0-.124.011-.18.021a.728.728 0 0 1-.116.015Zm2.48-2.224a.739.739 0 0 0 .52.224.714.714 0 0 0 .516-.224.715.715 0 0 0 0-1.036l-2.112-2.112a.715.715 0 0 0-1.036 0 .715.715 0 0 0 0 1.036l2.112 2.112Zm2.52-2.776c-.112 0-.184 0-.296-.076l-2.74-1.144a.751.751 0 0 1-.408-.964.751.751 0 0 1 .964-.408l2.74 1.148a.751.751 0 0 1 .408.964.714.714 0 0 1-.668.48Zm-14.668-6.04c.112.076.184.076.296.076a.712.712 0 0 0 .668-.484.751.751 0 0 0-.408-.964l-2.74-1.148a.751.751 0 0 0-.964.408.751.751 0 0 0 .408.964l2.74 1.148ZM21.26 12.74h-2.964a.74.74 0 0 1 0-1.48h2.964a.74.74 0 0 1 0 1.48Zm-18.52 0h2.964a.74.74 0 0 0 0-1.48H2.74a.74.74 0 0 0 0 1.48Zm15.076-2.408a.733.733 0 0 1-.668-.444.751.751 0 0 1 .408-.964l2.74-1.148a.751.751 0 0 1 .964.408.751.751 0 0 1-.408.964l-2.74 1.148c-.056 0-.104.01-.15.018a.726.726 0 0 1-.146.018Zm-15.04 5.52c.112.26.372.444.668.444.056 0 .102-.009.148-.018a.731.731 0 0 1 .148-.018l2.74-1.148a.751.751 0 0 0 .408-.964.751.751 0 0 0-.964-.408l-2.74 1.148a.751.751 0 0 0-.408.964Zm13.668-7.556a.739.739 0 0 1-.52-.224.715.715 0 0 1 0-1.036l2.112-2.112a.715.715 0 0 1 1.036 0 .715.715 0 0 1 0 1.036L16.96 8.072a.707.707 0 0 1-.516.224ZM4.924 19.072a.707.707 0 0 0 1.036 0l2.076-2.076a.715.715 0 0 0 0-1.036.715.715 0 0 0-1.036 0l-2.076 2.076a.715.715 0 0 0 0 1.036Zm9.484-12.148c-.112 0-.184 0-.296-.076a.751.751 0 0 1-.408-.964l1.148-2.74a.751.751 0 0 1 .964-.408.751.751 0 0 1 .408.964l-1.148 2.74a.712.712 0 0 1-.668.484ZM8.148 21.22c.112.076.184.076.296.076.296 0 .592-.184.668-.484l1.148-2.74a.751.751 0 0 0-.408-.964.751.751 0 0 0-.964.408l-1.148 2.74a.751.751 0 0 0 .408.964Z" fill="#003"/></svg>