<svg width="24" height="24" viewBox="0 0 24 24" fill="none" xmlns="http://www.w3.org/2000/svg">
<path fill-rule="evenodd" clip-rule="evenodd" d="M12 22C6.5 22 2 17.5 2 12C2 6.5 6.5 2 12 2C17.5 2 22 6.5 22 12C22 17.5 17.5 22 12 22ZM12 3.428C7.284 3.428 3.428 7.284 3.428 12C3.428 16.716 7.284 20.572 12 20.572C16.716 20.572 20.572 16.716 20.572 12C20.572 7.284 16.716 3.428 12 3.428ZM12 15.216C11.608 15.216 11.284 14.896 11.284 14.5C11.284 13.32 11.748 12.216 12.568 11.356L13.604 10.32C13.996 9.928 13.924 9.036 13.604 8.604C13.284 8.176 12.748 7.888 12.176 7.888H12C11.428 7.888 10.892 8.208 10.608 8.672C10.392 9.028 9.964 9.136 9.644 8.924C9.288 8.708 9.18 8.28 9.392 7.96C9.928 7.032 10.928 6.46 12 6.46H12.18C13.18 6.46 14.108 6.924 14.716 7.712C15.432 8.64 15.536 10.356 14.608 11.32L13.572 12.356C13.036 12.964 12.716 13.712 12.716 14.5C12.716 14.892 12.392 15.216 12 15.216ZM12.784 16.82C12.784 17.253 12.433 17.604 12 17.604C11.567 17.604 11.216 17.253 11.216 16.82C11.216 16.387 11.567 16.036 12 16.036C12.433 16.036 12.784 16.387 12.784 16.82Z" fill="#000033"/>
</svg>
