<svg width="24" height="24" viewBox="0 0 24 24" fill="none" xmlns="http://www.w3.org/2000/svg">
<path fill-rule="evenodd" clip-rule="evenodd" d="M15.1106 2H7.8894C6.29445 2 5 3.28 5 4.85714V19.1429C5 20.72 6.29445 22 7.8894 22H15.1106C16.7055 22 18 20.72 18 19.1429V4.86171C18 3.28457 16.7055 2 15.1106 2ZM8.8926 13.0491L6.90007 11.3166C6.73826 11.1749 6.67354 10.9554 6.75213 10.7451C6.81686 10.544 6.99716 10.3977 7.20982 10.3749L9.93279 10.0914L11.01 7.65029C11.0932 7.45829 11.292 7.33029 11.5046 7.33029C11.7173 7.33029 11.9115 7.45371 11.9993 7.65029L13.0765 10.0914L15.7994 10.3749C16.0121 10.3977 16.1924 10.544 16.2571 10.7451C16.3218 10.9509 16.2617 11.1703 16.0999 11.312L14.1074 13.0446L14.6529 15.7326C14.6945 15.9383 14.6113 16.1486 14.4403 16.272C14.2692 16.3954 14.0427 16.4091 13.8578 16.304L11.5046 14.9874L9.14687 16.304C9.06366 16.3497 8.97119 16.3726 8.87873 16.3726C8.76778 16.3726 8.6522 16.3406 8.55974 16.272C8.38869 16.1486 8.30548 15.9383 8.34708 15.7326L8.8926 13.0491ZM10.7927 10.8091C10.7141 10.9874 10.5477 11.1109 10.3535 11.1291L8.54125 11.3211L9.84033 12.4457C9.98364 12.5737 10.0484 12.7657 10.0114 12.9531L9.63691 14.7954L11.2272 13.904C11.3105 13.8583 11.4029 13.8354 11.4954 13.8354C11.5878 13.8354 11.6803 13.8583 11.7635 13.904L13.3538 14.7954L12.9794 12.9531C12.9424 12.7657 13.0071 12.5737 13.1551 12.4457L14.4541 11.3166L12.6465 11.1291C12.4523 11.1063 12.2859 10.9874 12.2073 10.8091L11.5 9.20457L10.7927 10.8091ZM15.1106 3.43086H7.8894C7.08962 3.43086 6.44239 4.07086 6.44239 4.85714V5.21371H16.553V4.85714C16.553 4.07086 15.9058 3.43086 15.1106 3.43086ZM16.5576 6.64457V17.36H6.44239V6.64457H16.5576ZM6.44701 19.1474C6.44701 19.9337 7.09424 20.5737 7.8894 20.5737H15.1106C15.9104 20.5737 16.5576 19.9337 16.5622 19.1474V18.7909H6.44701V19.1474Z" fill="#000033"/>
</svg>
