<svg xmlns="http://www.w3.org/2000/svg" width="24" height="24" fill="none"><path fill="#003" d="M2 12c0 5.517 4.488 10 10 10s10-4.488 10-10S17.512 2 12 2 2 6.484 2 12m1.43 0c0-4.726 3.844-8.57 8.57-8.57s8.57 3.844 8.57 8.57-3.844 8.57-8.57 8.57S3.43 16.725 3.43 12M12 17.357A5.364 5.364 0 0 1 6.644 12 5.364 5.364 0 0 1 12 6.644 5.364 5.364 0 0 1 17.357 12 5.364 5.364 0 0 1 12 17.357M8.074 12A3.934 3.934 0 0 0 12 15.926 3.934 3.934 0 0 0 15.926 12 3.93 3.93 0 0 0 12 8.074 3.93 3.93 0 0 0 8.074 12"/></svg>