<svg width="24" height="24" fill="none" xmlns="http://www.w3.org/2000/svg"><path d="M2 12c0 5.517 4.488 10 10 10s10-4.488 10-10S17.512 2 12 2 2 6.484 2 12Zm1.43 0c0-4.726 3.844-8.57 8.57-8.57 4.726 0 8.57 3.844 8.57 8.57 0 4.726-3.844 8.57-8.57 8.57-4.726 0-8.57-3.844-8.57-8.57ZM12 17.357A5.364 5.364 0 0 1 6.644 12 5.364 5.364 0 0 1 12 6.644 5.364 5.364 0 0 1 17.357 12 5.364 5.364 0 0 1 12 17.357ZM8.074 12A3.934 3.934 0 0 0 12 15.926 3.934 3.934 0 0 0 15.926 12 3.931 3.931 0 0 0 12 8.074 3.931 3.931 0 0 0 8.074 12Z" fill="#003"/></svg>