<svg width="24" height="24" viewBox="0 0 24 24" fill="none" xmlns="http://www.w3.org/2000/svg">
<path fill-rule="evenodd" clip-rule="evenodd" d="M21.2029 17.3771C21.5819 17.3212 21.9385 17.5912 21.992 17.9916C22.05 18.3873 21.7869 18.7551 21.4035 18.8203L17.6811 19.379L17.1462 15.4916C17.0882 15.0959 17.3557 14.7235 17.7346 14.6676C18.1136 14.6117 18.4702 14.8818 18.5237 15.2821L18.7377 16.8324C19.6694 15.4218 20.1776 13.7505 20.1776 12C20.1776 7.28864 16.5042 3.45251 11.9928 3.45251C10.7668 3.45251 9.58992 3.72719 8.49326 4.27188C8.14554 4.44413 7.73094 4.2905 7.566 3.92737C7.40105 3.56425 7.54817 3.13128 7.89589 2.95903C9.18424 2.32123 10.5618 2 11.9928 2C17.271 2 21.5685 6.48324 21.5685 12C21.5685 14.0112 21.0023 15.9339 19.9502 17.568L21.2029 17.3771ZM16.1387 21.0177C16.4864 20.8408 16.6291 20.4078 16.4641 20.0447C16.2947 19.6816 15.8801 19.5326 15.5324 19.7048C14.4224 20.2588 13.2321 20.5428 11.9928 20.5428C7.4813 20.5428 3.80793 16.7067 3.80793 11.9953C3.80793 10.2495 4.3206 8.5689 5.25677 7.15363L5.47967 8.71322C5.52871 9.07635 5.82739 9.33706 6.1662 9.33706C6.19389 9.33706 6.22159 9.33339 6.2524 9.32931L6.26427 9.32775C6.6432 9.27188 6.90622 8.89944 6.85272 8.50372L6.31777 4.61639L2.59536 5.17505C2.21643 5.23091 1.95341 5.60335 2.00691 5.99907C2.0604 6.39479 2.41704 6.67412 2.79597 6.61359L4.04866 6.42272C2.99212 8.06145 2.4215 9.99348 2.4215 12C2.4215 17.5121 6.71453 22 11.9972 22C13.4461 22 14.8414 21.6695 16.1387 21.0177ZM7.98505 16.0596V15.6453V15.6313V15.6173V7.9311C7.98505 6.68808 8.95689 5.67318 10.1472 5.67318H13.8339C15.0242 5.67318 15.996 6.68808 15.996 7.9311V16.0642C15.996 17.3073 15.0242 18.3222 13.8339 18.3222H10.1472C8.95689 18.3175 7.98505 17.3073 7.98505 16.0596ZM9.03267 15.0866V8.89944H14.9529V15.0866H9.03267ZM14.9395 16.1806H9.04159C9.09954 16.7672 9.57209 17.2281 10.1472 17.2281H13.8339C14.4134 17.2281 14.8815 16.7672 14.9395 16.1806ZM14.9395 7.81006H9.04159C9.09954 7.22346 9.57209 6.76257 10.1472 6.76257H13.8339C14.409 6.76257 14.8815 7.22346 14.9395 7.81006Z" fill="#000033"/>
</svg>
