<svg width="24" height="24" viewBox="0 0 24 24" fill="none" xmlns="http://www.w3.org/2000/svg">
<path fill-rule="evenodd" clip-rule="evenodd" d="M12.0023 7.42991H4.60448L5.14015 8.07841C5.38952 8.38559 5.35257 8.87806 5.06627 9.14623C4.95544 9.25838 4.77534 9.33639 4.59524 9.33639C4.3782 9.33639 4.19811 9.21937 4.05495 9.06822L2 6.66927L4.02263 4.27033C4.27661 3.92414 4.74763 3.92414 5.03394 4.19231C5.36181 4.46049 5.36181 4.95783 5.10783 5.26013L4.60448 5.90863H12.0069C15.1794 5.90863 17.7423 8.61476 17.7423 11.9645C17.7423 13.0323 17.4883 14.0563 16.985 14.9729C16.8742 15.2021 16.6248 15.3533 16.3708 15.3533C16.2646 15.3533 16.1168 15.3191 16.0106 15.2411C15.6828 15.051 15.5765 14.5926 15.7566 14.2123C16.1538 13.5248 16.3339 12.7642 16.3339 11.9645C16.3339 9.44854 14.3851 7.42991 12.0023 7.42991ZM18.9291 14.8559C19.22 14.5926 19.6864 14.6316 19.9404 14.9339L22 17.3329L19.945 19.7318C19.8019 19.922 19.5849 20 19.4048 20C19.257 20 19.0769 19.922 18.9337 19.8098C18.6059 19.5417 18.6059 19.0443 18.8598 18.742L19.4001 18.0935H12.0023C8.82521 18.0935 6.22997 15.3533 6.22997 11.9986C6.22997 10.9698 6.48395 9.902 6.9873 9.06334C7.1674 8.68302 7.60148 8.57088 7.96167 8.76104C8.32187 8.9512 8.42808 9.40953 8.24798 9.78985C7.85084 10.4774 7.67075 11.238 7.67075 12.0376C7.67075 14.5536 9.61949 16.5722 12.0023 16.5722H19.3955L18.8552 15.9237C18.6059 15.6166 18.6382 15.1192 18.9291 14.8559Z" fill="#313235"/>
</svg>
