<svg width="24" height="24" viewBox="0 0 24 24" fill="none" xmlns="http://www.w3.org/2000/svg">
<path fill-rule="evenodd" clip-rule="evenodd" d="M17 21.2822C17 21.6754 16.6909 21.9954 16.3113 21.9954C15.9316 21.9954 15.6225 21.6754 15.6225 21.2822V12.7109H14.245C13.8653 12.7109 13.5563 12.3909 13.5563 11.9977V4.85718C13.5563 3.28004 14.7925 2.00005 16.3157 2.00005C16.6909 1.99548 17 2.31548 17 2.71319V21.2822ZM12.5143 3.06976V8.42745C12.5143 9.60687 11.5916 10.5623 10.457 10.5714V21.2868C10.457 21.68 10.1479 22 9.76821 22C9.38852 22 9.07947 21.68 9.07947 21.2868V10.5714H9.07064C7.93157 10.5714 7 9.61144 7 8.42745V3.06976C7 2.67662 7.30905 2.35662 7.68874 2.35662C8.06843 2.35662 8.37748 2.67662 8.37748 3.06976V8.42745C8.37748 8.82059 8.68653 9.14059 9.06623 9.14059H9.07506V3.06976C9.07506 2.67662 9.38411 2.35662 9.7638 2.35662C10.1435 2.35662 10.4525 2.67662 10.4525 3.06976V9.14059C10.8278 9.13601 11.1325 8.81602 11.1325 8.42745V3.06976C11.1325 2.67662 11.4415 2.35662 11.8212 2.35662C12.2009 2.35662 12.5143 2.67662 12.5143 3.06976ZM14.9294 4.85718C14.9294 4.32689 15.2075 3.86518 15.6181 3.61833V11.2846H14.9294V4.85718Z" fill="#000033"/>
</svg>
