<svg width="24" height="24" fill="none" xmlns="http://www.w3.org/2000/svg"><path fill-rule="evenodd" clip-rule="evenodd" d="m17.873 14.69 2.056 3.62c.11.19.091.429-.045.595a.526.526 0 0 1-.567.184l-3.069-.922-.92 3.432a.528.528 0 0 1-.441.392c-.027.004-.05.004-.073.004a.528.528 0 0 1-.458-.262l-2.378-4.24-2.374 4.23a.533.533 0 0 1-.463.277c-.018 0-.04 0-.063-.005a.543.543 0 0 1-.45-.396l-.921-3.427-3.023.922a.534.534 0 0 1-.567-.18.545.545 0 0 1-.05-.6l1.997-3.653A7.781 7.781 0 0 1 4.353 9.75C4.353 5.464 7.766 2 11.978 2c4.216 0 7.624 3.469 7.624 7.75 0 1.876-.64 3.597-1.729 4.94Zm.309-4.94c0-3.465-2.791-6.306-6.204-6.306S5.774 6.285 5.774 9.749c0 3.464 2.79 6.305 6.204 6.305 3.408 0 6.204-2.836 6.204-6.305ZM9.314 20.043l-.722-2.689a.548.548 0 0 0-.254-.332.537.537 0 0 0-.413-.046l-2.292.701 1.203-2.2a7.536 7.536 0 0 0 3.93 1.932l-1.452 2.634Zm6.308-3.02a.526.526 0 0 1 .409-.047l2.31.696-1.24-2.181a7.544 7.544 0 0 1-4.02 1.932l1.552 2.662.735-2.73a.535.535 0 0 1 .254-.333Zm-3.644-1.869a.533.533 0 0 1-.531-.54c0-2.44-1.752-4.142-4.257-4.142a.533.533 0 0 1-.531-.54c0-.3.236-.54.53-.54 2.388 0 4.258-1.978 4.258-4.506 0-.3.236-.54.53-.54.296 0 .532.24.532.54 0 2.528 1.87 4.507 4.257 4.507.295 0 .53.24.53.54 0 .3-.235.54-.53.54-2.505 0-4.257 1.701-4.257 4.141 0 .3-.236.54-.531.54Zm0-2.934a4.913 4.913 0 0 0-2.392-2.329 5.358 5.358 0 0 0 2.392-2.532 5.359 5.359 0 0 0 2.392 2.532 4.913 4.913 0 0 0-2.392 2.33Z" fill="#313235"/></svg>