<svg width="24" height="24" viewBox="0 0 24 24" fill="none" xmlns="http://www.w3.org/2000/svg">
<path fill-rule="evenodd" clip-rule="evenodd" d="M2 12C2 17.5165 6.48812 22 12 22C17.5119 22 22 17.5119 22 12C22 6.48812 17.5119 2 12 2C6.48812 2 2 6.48355 2 12ZM3.43053 12C3.43053 7.27422 7.27422 3.43053 12 3.43053C16.7258 3.43053 20.5695 7.27422 20.5695 12C20.5695 16.7258 16.7258 20.5695 12 20.5695C7.27422 20.5695 3.43053 16.7258 3.43053 12ZM17.1463 17.1463C17.425 16.8675 17.425 16.415 17.1463 16.1362L13.0101 12L17.1463 7.8638C17.425 7.58501 17.425 7.13254 17.1463 6.85375C16.8675 6.57495 16.415 6.57495 16.1362 6.85375L11.4973 11.4973C11.2185 11.7761 11.2185 12.2285 11.4973 12.5073L16.1408 17.1508C16.2824 17.2925 16.4607 17.3611 16.6435 17.3611C16.8263 17.3611 17.0091 17.2879 17.1463 17.1463ZM11.0768 16.1362C11.3556 16.415 11.3556 16.8675 11.0768 17.1463C10.9351 17.2879 10.7523 17.3611 10.5695 17.3611C10.3867 17.3611 10.2038 17.2925 10.0667 17.1508L5.42322 12.5073C5.14442 12.2285 5.14442 11.7761 5.42322 11.4973L10.0667 6.85375C10.3455 6.57495 10.798 6.57495 11.0768 6.85375C11.3556 7.13254 11.3556 7.58501 11.0768 7.8638L6.94059 12L11.0768 16.1362Z" fill="#000033"/>
</svg>
