<svg xmlns="http://www.w3.org/2000/svg" width="24" height="24" fill="none"><path fill="#003" d="M21.513 2.831q.006-.058.005-.109v-.024a1 1 0 0 0-.023-.137v-.01q-.008-.013-.009-.028a.5.5 0 0 0-.054-.137l-.04-.071q-.014-.022-.032-.043a1 1 0 0 0-.073-.078q-.007-.01-.018-.017a.703.703 0 0 0-.298-.156q-.007-.004-.015-.005-.01-.001-.016-.005a.6.6 0 0 0-.199-.004q-.01 0-.02.002l-.02.002-.035.005q-.016.001-.033.005L2.99 7.03a.74.74 0 0 0-.519.654.75.75 0 0 0 .406.734l7.898 3.815-.696.73a.767.767 0 0 0 0 1.047c.276.29.723.29.998 0l.696-.73 3.635 8.289a.7.7 0 0 0 .64.431q.03.001.06-.005a.71.71 0 0 0 .622-.545l4.764-18.51.005-.028q0-.015.004-.029l.002-.01q.006-.02.007-.042m-3.066 1.35-6.606 6.934-6.601-3.19zm-5.608 7.981 6.606-6.933-3.567 13.861z"/></svg>