<svg width="24" height="24" viewBox="0 0 24 24" fill="none" xmlns="http://www.w3.org/2000/svg">
<path fill-rule="evenodd" clip-rule="evenodd" d="M12.2006 21.969L12.2077 21.9667C13.8967 21.4025 19 19.6981 19 15.0917V6.79912C19 6.41876 18.7012 6.10917 18.3341 6.10917C15.1059 6.10917 12.6399 3.38957 12.501 3.23644L12.4951 3.22998C12.3671 3.08403 12.1878 3 12 3C11.8122 3 11.6287 3.08403 11.5049 3.22998C11.4793 3.26094 8.96951 6.10917 5.66585 6.10917C5.29878 6.10917 5 6.41876 5 6.79912V15.0917C5 16.2328 5 19.7046 11.7994 21.969C11.8677 21.9912 11.936 22 12.0043 22C12.0726 22 12.1323 21.9912 12.2006 21.969ZM10.3226 16.5777L7.68902 13.8489C7.42866 13.5791 7.42866 13.1413 7.68902 12.8715C7.94939 12.6017 8.37195 12.6017 8.63232 12.8715L10.3354 14.6362L15.2012 9.75349C15.4659 9.48813 15.8884 9.49697 16.1445 9.77118C16.4006 10.0454 16.3921 10.4832 16.1274 10.7486L10.3226 16.5777ZM17.664 7.4581C14.9835 7.21043 12.9049 5.5298 11.9957 4.66294C11.0866 5.5298 9.00793 7.21043 6.32744 7.4581V15.0917C6.32744 17.5109 8.12866 19.2579 11.9957 20.5847C15.8628 19.2579 17.664 17.5109 17.664 15.0917V7.4581Z" fill="#000033"/>
</svg>
