<svg xmlns="http://www.w3.org/2000/svg" width="24" height="24" fill="none"><path fill="#003" d="m12.21 21.967.007-.002c1.778-.594 7.15-2.388 7.15-7.237V6c0-.4-.315-.726-.701-.726-3.398 0-5.994-2.863-6.14-3.024l-.006-.007A.695.695 0 0 0 11.998 2a.688.688 0 0 0-.52.242c-.028.033-2.67 3.03-6.147 3.03-.386 0-.701.327-.701.727v8.73c0 1.2 0 4.855 7.157 7.238a.692.692 0 0 0 .423 0Zm-1.977-5.675L7.46 13.42a.746.746 0 0 1 0-1.029.685.685 0 0 1 .992 0l1.793 1.858 5.122-5.14a.685.685 0 0 1 .993.019c.27.288.26.75-.018 1.028l-6.11 6.136Zm7.728-9.6v8.036c0 2.547-1.896 4.386-5.967 5.782-4.07-1.396-5.967-3.235-5.967-5.782V6.693c2.822-.261 5.01-2.03 5.967-2.943.957.913 3.145 2.682 5.967 2.943Z"/></svg>