<svg width="24" height="24" fill="none" xmlns="http://www.w3.org/2000/svg"><path d="M17.972 17.294c.032-.004.068-.004.104-.004a2.305 2.305 0 0 1 2.312 2.296 2.3 2.3 0 0 1-2.316 2.292c-1.276 0-2.316-1.024-2.316-2.292 0-.312.064-.612.18-.884H9.932c.116.272.18.572.18.884 0 1.264-1.04 2.292-2.316 2.292-1.276 0-2.316-1.024-2.316-2.292 0-1.036.688-1.908 1.64-2.196L3.708 4.062a.705.705 0 0 0-.68-.532h-.324a.705.705 0 0 1 0-1.408h.324c.968 0 1.812.656 2.052 1.596l.132.524H22l-2.652 10.576H7.916l.632 2.472h9.372l.026.002.026.002Zm.276-3.88 1.94-7.764H5.572l1.984 7.764h10.692Zm-9.804 6.784a.843.843 0 0 0 .26-.62c0-.484-.408-.88-.908-.88a.891.891 0 0 0-.644.268.865.865 0 0 0-.26.62c0 .484.408.88.908.88a.905.905 0 0 0 .644-.268Zm9.632.268a.891.891 0 0 0 .644-.268.828.828 0 0 0 .26-.62c0-.484-.408-.88-.908-.88a.891.891 0 0 0-.644.268.865.865 0 0 0-.26.62c0 .484.408.88.908.88Z" fill="#003"/></svg>