<svg width="24" height="24" viewBox="0 0 24 24" fill="none" xmlns="http://www.w3.org/2000/svg">
<path fill-rule="evenodd" clip-rule="evenodd" d="M20.7885 1.21827C21.0657 0.927245 21.5155 0.927245 21.7927 1.21827C22.0699 1.50929 22.0699 1.9816 21.7881 2.27262L20.575 3.54643V13.0595C20.575 13.6558 20.3569 14.214 19.9525 14.6386L13.5639 21.3464C13.1504 21.7805 12.6052 22 12.0599 22C11.5147 22 10.9694 21.7805 10.5559 21.3464L2.6225 13.0165C2.22265 12.5967 2 12.0337 2 11.4374C2 10.841 2.2181 10.2828 2.6225 9.85824L9.01559 3.14568C9.41544 2.72585 9.95161 2.49208 10.5196 2.49208H19.5753L20.7885 1.21827ZM18.9483 13.5843C19.0846 13.4411 19.1573 13.2551 19.1573 13.0547V5.0397L18.2395 6.00341C18.1031 6.1513 17.9214 6.22287 17.7396 6.22287C17.5579 6.22287 17.3807 6.1513 17.2398 6.00341C16.9627 5.71239 16.9627 5.24007 17.2398 4.94905L18.1531 3.98058H10.515C10.3287 3.98058 10.147 4.06168 10.0152 4.20003L3.62667 10.9078C3.49036 11.0509 3.41766 11.2418 3.41766 11.4374C3.41766 11.633 3.4949 11.8238 3.62667 11.9622L11.5556 20.292C11.8327 20.5831 12.2826 20.5831 12.5597 20.292L18.9483 13.5843ZM16.8536 11.0653C14.4636 11.0653 12.5915 9.01857 12.5915 6.40416C12.5915 6.09405 12.3553 5.84597 12.0599 5.84597C11.7646 5.84597 11.5283 6.09405 11.5283 6.40416C11.5283 9.01857 9.65626 11.0653 7.26624 11.0653C6.97089 11.0653 6.73461 11.3133 6.73461 11.6234C6.73461 11.9335 6.97089 12.1816 7.26624 12.1816C9.7744 12.1816 11.5283 13.9421 11.5283 16.4658C11.5283 16.7759 11.7646 17.024 12.0599 17.024C12.3553 17.024 12.5915 16.7759 12.5915 16.4658C12.5915 13.9421 14.3454 12.1816 16.8536 12.1816C17.1489 12.1816 17.3852 11.9335 17.3852 11.6234C17.3852 11.3133 17.1444 11.0653 16.8536 11.0653ZM9.66535 11.5853C10.724 12.0862 11.5556 12.9259 12.0599 13.9945C12.5643 12.9259 13.3958 12.0862 14.4545 11.5853C13.4094 11.0271 12.5688 10.1063 12.0599 8.96609C11.551 10.1063 10.7104 11.0271 9.66535 11.5853Z" fill="#000033"/>
</svg>
