<svg width="24" height="24" viewBox="0 0 24 24" fill="none" xmlns="http://www.w3.org/2000/svg">
<path fill-rule="evenodd" clip-rule="evenodd" d="M8.32527 10.1396C8.66667 10.3795 8.76624 10.8695 8.54813 11.2421C8.33001 11.6147 7.87008 11.7218 7.52394 11.4871C7.08772 11.1859 6.46657 11.0226 5.7743 11.0226C4.42295 11.0226 3.47937 11.6759 3.47937 12.615V18.1936C3.47937 18.6325 3.14746 18.9898 2.73969 18.9898C2.33191 18.9898 2 18.6325 2 18.1936V12.6099C2 11.436 2.63537 10.4714 3.65955 9.92016C3.25178 9.39956 3.00047 8.72585 3.00047 7.99089C3.00047 6.34233 4.24751 5 5.77904 5C7.31057 5 8.55761 6.34233 8.55761 7.99089C8.55761 8.71564 8.31579 9.38425 7.9175 9.89974C8.05974 9.9763 8.19725 10.0529 8.32527 10.1396ZM7.07349 7.99599C7.07349 7.2304 6.49502 6.60262 5.77904 6.60262C5.06306 6.60262 4.48459 7.2304 4.48459 7.99599C4.48459 8.76157 5.06306 9.38935 5.77904 9.38935C6.49028 9.38935 7.07349 8.76157 7.07349 7.99599ZM14.7786 9.42508C14.7786 10.1345 14.5462 10.7878 14.1622 11.2982C15.3191 11.8545 16.073 12.8447 16.073 14.0033V18.1987C16.073 18.6376 15.7411 18.9949 15.3333 18.9949C14.9256 18.9949 14.5936 18.6376 14.5936 18.1987V14.0033C14.5936 13.1407 13.4083 12.416 12 12.416C10.5917 12.416 9.40635 13.1407 9.40635 14.0033V18.1987C9.40635 18.6376 9.07444 18.9949 8.66667 18.9949C8.25889 18.9949 7.92698 18.6376 7.92698 18.1987V14.0033C7.92698 12.8447 8.68563 11.8545 9.83784 11.2982C9.45377 10.7827 9.22143 10.1345 9.22143 9.42508C9.22143 7.77652 10.4685 6.4342 12 6.4342C13.5315 6.4342 14.7786 7.77652 14.7786 9.42508ZM12 8.03172C11.2888 8.03172 10.7055 8.65439 10.7055 9.42508C10.7055 10.1958 11.284 10.8236 12 10.8184C12.7112 10.8184 13.2945 10.1907 13.2945 9.42508C13.2945 8.6595 12.716 8.03172 12 8.03172ZM20.3404 9.93037C20.753 9.40977 20.9995 8.73606 20.9995 8.00109C20.9995 6.35253 19.7525 5.01021 18.221 5.01021C16.6894 5.01021 15.4424 6.35253 15.4424 8.00109C15.4424 8.72585 15.6842 9.38935 16.0825 9.90995C15.9403 9.98141 15.8028 10.058 15.6747 10.1498C15.3286 10.3897 15.229 10.8797 15.4519 11.2523C15.67 11.6249 16.1299 11.732 16.4761 11.4922C16.9123 11.191 17.5334 11.0277 18.2257 11.0277C19.5771 11.0277 20.5206 11.6861 20.5206 12.6201V18.2038C20.5206 18.6427 20.8525 19 21.2603 19C21.6681 19 22 18.6427 22 18.2038V12.615C22 11.4462 21.3646 10.4816 20.3404 9.93037ZM18.221 6.60262C18.9369 6.60262 19.5154 7.2304 19.5154 7.99599C19.5154 8.76157 18.9322 9.38935 18.221 9.38935C17.5097 9.38935 16.9265 8.76157 16.9265 7.99599C16.9265 7.2304 17.5097 6.60262 18.221 6.60262Z" fill="#000033"/>
</svg>
