<svg width="24" height="24" fill="none" xmlns="http://www.w3.org/2000/svg"><path d="M6.64 22a.714.714 0 0 1-.508-1.217l5.59-5.626.436.172a6.169 6.169 0 0 0 6.61-1.38 6.172 6.172 0 0 0 1.697-5.511l-3.462 3.461a2.091 2.091 0 0 1-2.957 0L12.098 9.95a2.1 2.1 0 0 1 0-2.957l3.461-3.457a6.16 6.16 0 0 0-5.51 1.696 6.17 6.17 0 0 0-1.38 6.611l.172.437-5.626 5.586a.714.714 0 0 1-1.004-1.012l4.973-4.935a7.605 7.605 0 0 1 1.86-7.695 7.599 7.599 0 0 1 8.144-1.7l1.02.395-5.098 5.087a.667.667 0 0 0 0 .936l1.949 1.949c.26.256.68.26.936 0l5.086-5.094.396 1.016a7.602 7.602 0 0 1-1.7 8.144 7.613 7.613 0 0 1-7.695 1.86l-4.934 4.975A.714.714 0 0 1 6.64 22Z" fill="#003"/></svg>