<svg width="24" height="24" viewBox="0 0 24 24" fill="none" xmlns="http://www.w3.org/2000/svg">
<path fill-rule="evenodd" clip-rule="evenodd" d="M18.6577 8.27367C18.6577 10.4857 17.5225 12.4316 15.8198 13.5469C19.464 14.5428 22 17.1495 22 20.2841C22 20.6787 21.6847 21 21.2973 21C20.9099 21 20.5946 20.6787 20.5946 20.2841C20.5946 17.122 16.964 14.5473 12.5 14.5473C8.03604 14.5473 4.40541 17.122 4.40541 20.2841C4.40541 20.6787 4.09009 21 3.7027 21C3.31532 21 3 20.6787 3 20.2841C3 17.1495 5.53604 14.5428 9.18018 13.5469C7.47748 12.4316 6.34234 10.4857 6.34234 8.27367C6.34234 4.81329 9.1036 2 12.5 2C15.8964 2 18.6577 4.81329 18.6577 8.27367ZM12.5 3.43188C9.87838 3.43188 7.74775 5.60266 7.74775 8.27367C7.74775 10.9401 9.87838 13.1109 12.5 13.1109C15.1216 13.1109 17.2523 10.9447 17.2523 8.27367C17.2523 5.60266 15.1216 3.43188 12.5 3.43188Z" fill="#000033"/>
</svg>
