<svg xmlns="http://www.w3.org/2000/svg" width="24" height="24" fill="none"><path fill="#003" d="M8.824 10.039H8.47v-.353c0-.235-.157-.392-.393-.392-.235 0-.392.157-.392.392v.353h-.392c-.235 0-.392.157-.392.392 0 .235.157.392.392.392h.392v.353c0 .236.157.392.392.392.236 0 .393-.156.393-.392v-.353h.353c.235 0 .392-.157.392-.392 0-.235-.157-.392-.392-.392Z"/><path fill="#003" d="M5.412 10.431a2.67 2.67 0 0 1 2.666-2.667c1.451 0 2.628 1.216 2.667 2.667a2.645 2.645 0 0 1-2.667 2.667 2.67 2.67 0 0 1-2.666-2.667Zm1.176 0c0 .824.667 1.49 1.49 1.49.785 0 1.49-.666 1.49-1.49a1.49 1.49 0 1 0-2.98 0ZM15.137 10.039c-.235 0-.392.157-.392.392 0 .235.157.392.392.392h1.569c.235 0 .392-.157.392-.392 0-.235-.157-.392-.392-.392h-1.569Z"/><path fill="#003" d="M13.255 10.431a2.67 2.67 0 0 1 2.666-2.667c1.451 0 2.628 1.216 2.667 2.667a2.645 2.645 0 0 1-2.667 2.667 2.67 2.67 0 0 1-2.666-2.667Zm1.176 0c0 .824.667 1.49 1.49 1.49.785 0 1.49-.666 1.49-1.49a1.49 1.49 0 1 0-2.98 0ZM11.608 9.02h.784c.314 0 .588.274.588.588a.603.603 0 0 1-.588.588h-.784a.603.603 0 0 1-.588-.588c0-.314.274-.589.588-.589Z"/><path fill="#003" d="m18.118 5.96 3.53 3.883c.234.274.352.588.352.941v5.53c0 1.176-.98 2.156-2.157 2.156h-.902a2.165 2.165 0 0 1-1.53-.627l-3.607-3.608c-.02 0-.05-.01-.079-.02-.029-.01-.058-.02-.078-.02h-3.294c-.079 0-.118 0-.157.04l-3.608 3.608a2.165 2.165 0 0 1-1.53.627h-.901A2.176 2.176 0 0 1 2 16.313v-5.529c0-.353.118-.706.353-.941l3.53-3.883a1.424 1.424 0 0 1 1.019-.43h2.353c.392 0 .706.117.98.391l1.098 1.098c.02 0 .05.01.079.02.03.01.059.02.078.02h.941c.079 0 .118 0 .157-.04l1.098-1.098c.275-.235.628-.392.98-.392h2.432c.392 0 .745.157 1.02.431Zm1.725 11.334a.97.97 0 0 0 .98-.98v-5.53c0-.04 0-.078-.039-.118l-3.53-3.882a.297.297 0 0 0-.156-.078h-2.353c-.078 0-.117 0-.157.039L13.49 7.843c-.274.235-.627.392-.98.392h-.941c-.393 0-.706-.118-.98-.392L9.49 6.745a.303.303 0 0 1-.078-.02c-.03-.01-.06-.02-.079-.02H6.902c-.078 0-.118.04-.157.079l-3.53 3.882c-.039.04-.039.079-.039.118v5.53c0 .549.432.98.98.98h.903c.274 0 .51-.079.706-.275l3.608-3.607c.274-.236.627-.393.98-.393h3.294c.392 0 .706.118.98.393l3.608 3.607c.196.157.432.275.706.275h.902Z"/></svg>