<svg width="24" height="24" fill="none" xmlns="http://www.w3.org/2000/svg"><path fill-rule="evenodd" clip-rule="evenodd" d="M2 12c0 5.517 4.488 10 10 10s10-4.488 10-10S17.512 2 12 2 2 6.484 2 12Zm1.43 0c0-4.726 3.844-8.57 8.57-8.57 4.726 0 8.57 3.844 8.57 8.57 0 4.726-3.844 8.57-8.57 8.57-4.726 0-8.57-3.844-8.57-8.57Zm5.535 5.713A.71.71 0 0 1 8.252 17V7c0-.256.137-.494.357-.617a.708.708 0 0 1 .717.005l8.57 4.995a.714.714 0 0 1 0 1.234l-8.57 5a.737.737 0 0 1-.36.096Zm.713-1.96v-7.51L16.118 12l-6.44 3.752Z" fill="#003"/></svg>