<svg width="24" height="24" fill="none" xmlns="http://www.w3.org/2000/svg"><path d="M18.104 11.369c0-1.75-.719-2.813-1.906-2.813-1.188 0-1.907 1.063-1.907 2.813 0 1.75.719 2.812 1.907 2.812 1.156 0 1.906-1.093 1.906-2.812Zm-1.906 1.875c-.938 0-.97-1.563-.97-1.875 0-.563.095-1.875.97-1.875.906 0 .968 1.437.968 1.875 0 .875-.25 1.875-.968 1.875Zm-7-1.875a1.634 1.634 0 0 1-1.125 2.813c-1.125 0-1.594-.407-1.688-.5a.453.453 0 0 1 0-.657.453.453 0 0 1 .656 0s.282.219 1.032.219a.694.694 0 0 0 .687-.688.694.694 0 0 0-.687-.687H7.26a.48.48 0 0 1-.469-.469.48.48 0 0 1 .469-.469h.813a.694.694 0 0 0 .687-.687.694.694 0 0 0-.687-.688c-.75 0-1.032.219-1.032.25a.453.453 0 0 1-.656 0c-.187-.187-.187-.5 0-.656.094-.094.563-.5 1.688-.5.906 0 1.625.75 1.625 1.625-.032.375-.22.781-.5 1.094Zm2.624-1.781c.376-.157.844.03 1 .125.22.125.5.03.626-.188.124-.219.03-.5-.188-.625-.094-.062-.938-.5-1.781-.156-.531.219-.906.687-1.094 1.375-.281.937-.125 2.156-.094 2.312.031.969.813 1.782 1.781 1.782.97 0 1.782-.813 1.782-1.813s-.813-1.813-1.781-1.813c-.313 0-.594.094-.844.22.031-.126.031-.282.094-.407.062-.469.25-.719.5-.812Zm.22 1.875c.468 0 .843.406.843.875 0 .5-.375.875-.844.875s-.844-.407-.844-.875c0-.5.376-.875.844-.875Zm8.156 6.53-3.407.5-.5-3.405c-.062-.344.188-.657.532-.72.343-.062.656.188.718.532l.219 1.469a7.3 7.3 0 0 0 1.469-4.375c-.031-4.063-3.313-7.344-7.375-7.344a7.335 7.335 0 0 0-7.344 7.344 7.335 7.335 0 0 0 7.344 7.343 7.702 7.702 0 0 0 3-.625.595.595 0 0 1 .812.313.595.595 0 0 1-.312.813c-1.094.5-2.281.75-3.5.75a8.589 8.589 0 0 1-8.594-8.594A8.589 8.589 0 0 1 11.854 3.4a8.589 8.589 0 0 1 8.594 8.594c0 1.781-.532 3.5-1.563 4.906l1.125-.156c.344-.063.656.187.719.531a.656.656 0 0 1-.531.719Z" fill="#003"/></svg>