<svg width="24" height="24" fill="none" xmlns="http://www.w3.org/2000/svg"><path d="M10.779 8.783c-1.547 0-2.8 1.28-2.8 2.86 0 1.579 1.253 2.858 2.8 2.858h6.116c1.547 0 2.8-1.28 2.8-2.859a2.847 2.847 0 0 0-2.1-2.76v-3.31C17.596 3.603 16.026 2 14.1 2H7.807C5.88 2 4.31 3.604 4.31 5.571V18.43C4.31 20.396 5.88 22 7.807 22h6.292c1.927 0 3.497-1.604 3.497-3.571v-2.504a.701.701 0 0 0-.697-.712.701.701 0 0 0-.697.712v1.424H5.708V6.639H16.19v2.244c-1.206.316-2.099 1.431-2.099 2.76 0 .519.141 1.003.38 1.423h-1.284c.239-.42.38-.908.38-1.424 0-1.58-1.253-2.86-2.788-2.86Zm-1.406 2.86c0-.785.626-1.425 1.394-1.425.767 0 1.394.64 1.394 1.424 0 .784-.627 1.424-1.394 1.424-.768 0-1.394-.64-1.394-1.424Zm4.726-8.22c1.038 0 1.903.777 2.068 1.788H5.735c.169-1.007 1.03-1.787 2.072-1.787h6.292Zm0 17.15H7.807c-1.038 0-1.903-.776-2.068-1.788h10.424c-.169 1.008-1.026 1.787-2.064 1.787Zm2.788-10.355c.768 0 1.394.64 1.394 1.424 0 .784-.626 1.424-1.394 1.424-.767 0-1.394-.64-1.394-1.424 0-.784.627-1.424 1.394-1.424Z" fill="#003"/></svg>