<svg xmlns="http://www.w3.org/2000/svg" width="24" height="24" fill="none"><path fill="#003" d="M15.451 2.1a.711.711 0 0 0-.726 0L5.44 7.554H2.726c-.4 0-.726.332-.726.74v7.408c0 .408.326.74.726.74H5.44l9.285 5.458a.71.71 0 0 0 .726 0 .744.744 0 0 0 .363-.64V2.74a.728.728 0 0 0-.363-.64m-1.089 17.885-8.364-4.919a.71.71 0 0 0-.363-.1H3.452V9.039h2.183a.71.71 0 0 0 .363-.1l8.364-4.917zm6.912-7.243c.4 0 .726-.332.726-.74a.741.741 0 0 0-.726-.744h-1.27V9.963a.734.734 0 0 0-.727-.74c-.4 0-.726.332-.726.74v1.304h-1.27c-.4 0-.727.332-.727.74s.326.74.726.74h1.271v1.295c0 .408.326.74.726.74.4 0 .726-.332.726-.74v-1.3z"/></svg>