<svg width="24" height="24" viewBox="0 0 24 24" fill="none" xmlns="http://www.w3.org/2000/svg">
<path fill-rule="evenodd" clip-rule="evenodd" d="M2 12C2 6.5 6.5 2 12 2C17.5 2 22 6.5 22 12C22 17.5 17.5 22 12 22C6.5 22 2 17.5 2 12ZM3.428 12C3.428 16.716 7.284 20.572 12 20.572C16.716 20.572 20.572 16.716 20.572 12C20.572 7.284 16.716 3.428 12 3.428C7.284 3.428 3.428 7.284 3.428 12ZM12 6.644C11.608 6.644 11.284 6.964 11.284 7.36V14.144C11.284 14.536 11.604 14.86 12 14.86C12.392 14.86 12.716 14.54 12.716 14.144V7.36C12.716 6.964 12.392 6.644 12 6.644ZM12 15.928C12.4926 15.928 12.892 16.3274 12.892 16.82C12.892 17.3126 12.4926 17.712 12 17.712C11.5074 17.712 11.108 17.3126 11.108 16.82C11.108 16.3274 11.5074 15.928 12 15.928Z" fill="#000033"/>
</svg>
