<svg xmlns="http://www.w3.org/2000/svg" width="24" height="24" fill="none"><path fill="#003" d="M14.65 17.717c1.117-1.143 1.71-2.643 1.71-4.252 0-1.973-1.352-4.22-2.46-6.061l-.049-.083c-.174-.32-1.92-3.392-2.827-4.964-.138-.215-.348-.357-.594-.357a.67.67 0 0 0-.594.357c-.33.574-.77 1.35-1.203 2.115-.753 1.33-1.49 2.633-1.623 2.813-1.117 1.856-2.51 4.178-2.51 6.18 0 1.61.63 3.14 1.746 4.288a5.82 5.82 0 0 0 4.189 1.751 6.15 6.15 0 0 0 4.215-1.787m-1.045-.965a4.43 4.43 0 0 1-3.175 1.321 4.42 4.42 0 0 1-3.21-1.358c-.871-.859-1.327-2.034-1.327-3.25 0-1.582 1.247-3.645 2.252-5.308l.053-.086c.174-.284 1.464-2.537 2.232-3.927a199 199 0 0 0 2.233 3.927l.133.224c.99 1.671 2.171 3.665 2.171 5.17a4.74 4.74 0 0 1-1.362 3.287m3.98-.105h1.392c.277 0 .523.251.523.535a.545.545 0 0 1-.523.535h-1.393a.545.545 0 0 1-.522-.535c0-.284.245-.535.522-.535m-.84 1.929a.496.496 0 0 0-.733 0 .525.525 0 0 0 0 .75l.943.964a.52.52 0 0 0 .384.142.53.53 0 0 0 .384-.142.525.525 0 0 0 0-.75zm-2.827 1.463c0-.284.246-.535.523-.535.28 0 .522.247.522.535v1.426a.545.545 0 0 1-.522.535.545.545 0 0 1-.523-.535z"/></svg>