<svg width="24" height="24" fill="none" xmlns="http://www.w3.org/2000/svg"><path d="m12.17 11.458.547-.548a.516.516 0 0 1 .729.729l-.595.595a.957.957 0 0 1-.679.283h-.004a.957.957 0 0 1-.71-.314l-1.087-1.086a.512.512 0 0 1 0-.73.52.52 0 0 1 .73 0l1.069 1.07Z" fill="#003"/><path d="M15.31 5.095a.706.706 0 0 0-.705-.705H9.63a.706.706 0 0 0-.705.705v3.622a4.5 4.5 0 0 0-1.405 3.252 4.5 4.5 0 0 0 1.405 3.252v3.675c0 .39.316.706.705.706h4.976a.706.706 0 0 0 .706-.706V15.13a4.444 4.444 0 0 0 1.311-3.161 4.444 4.444 0 0 0-1.311-3.161V5.095Zm-4.976 11.037a4.63 4.63 0 0 0 1.737.34 4.62 4.62 0 0 0 1.83-.38v2.1h-3.566v-2.06ZM13.9 7.845a4.62 4.62 0 0 0-1.83-.38 4.63 4.63 0 0 0-1.736.34V5.8H13.9v2.045Zm1.312 4.124c0 1.706-1.41 3.094-3.141 3.094-1.732 0-3.142-1.388-3.142-3.094s1.41-3.094 3.142-3.094 3.14 1.388 3.14 3.094ZM3.709 13.96a.756.756 0 1 1 1.511.002.756.756 0 0 1-1.511-.001Zm.748.003c0 .012.02.012.02 0a.01.01 0 0 0-.01-.01.01.01 0 0 0-.01.01Z" fill="#003"/><path d="M3.187 4.399H5.74c.803 0 .95.983 1.039 1.57.094.631.149 1.44.149 2.218v7.63c0 .779-.055 1.587-.15 2.217-.088.588-.235 1.571-1.038 1.571H3.187c-.802 0-.95-.988-1.038-1.579a15.72 15.72 0 0 1-.15-2.21V8.188c0-.772.055-1.578.15-2.21.088-.59.236-1.578 1.038-1.578Zm2.33 11.418v-7.63c0-1.025-.097-1.913-.198-2.378H3.611c-.081.387-.2 1.25-.2 2.378v7.63c0 1.128.119 1.99.2 2.378H5.32c.101-.465.198-1.352.198-2.378Zm15.078-8.903a9.91 9.91 0 0 1 1.087 2.608 9.864 9.864 0 0 1-.943 7.311.706.706 0 0 1-1.231-.688 8.461 8.461 0 0 0 .809-6.27 8.493 8.493 0 0 0-.933-2.237.7.7 0 0 1-.079-.534.706.706 0 0 1 1.29-.19Z" fill="#003"/><path d="M18.576 8.74a.706.706 0 0 0-1.26.632 5.862 5.862 0 0 1-.025 5.3.7.7 0 0 0-.045.538.7.7 0 0 0 .671.49.703.703 0 0 0 .627-.382 7.246 7.246 0 0 0 .032-6.579Z" fill="#003"/></svg>