<svg width="24" height="24" fill="none" xmlns="http://www.w3.org/2000/svg"><path d="M21.287 12.173a.684.684 0 0 1-.5-.229c-2.392-2.533-5.5-3.931-8.789-3.931-3.288 0-6.389 1.402-8.785 3.931-.284.301-.716.301-1 0a.765.765 0 0 1 0-1.059C4.857 8.051 8.322 6.5 12.002 6.5c3.68 0 7.145 1.55 9.785 4.385.284.301.284.797 0 1.06a.677.677 0 0 1-.5.228Z" fill="#003"/><path d="M5.213 14.821a.683.683 0 0 1-.5-.229.765.765 0 0 1 0-1.059c1.928-2.08 4.537-3.254 7.289-3.254s5.356 1.17 7.285 3.254c.284.301.284.797 0 1.06-.284.3-.752.3-1 0-1.68-1.814-3.893-2.801-6.285-2.801-2.392 0-4.608.983-6.285 2.8-.108.153-.324.23-.504.23Z" fill="#003"/><path d="M7.214 17.274a.82.82 0 0 0 .5.191c.18 0 .396-.072.532-.19.928-1.06 2.288-1.666 3.752-1.666 1.428 0 2.82.606 3.784 1.665.248.301.716.301 1 0 .285-.262.285-.758 0-1.059-1.212-1.36-2.96-2.118-4.784-2.118-1.892 0-3.608.758-4.82 2.118a.804.804 0 0 0 .036 1.06Z" fill="#003"/></svg>