<svg width="24" height="24" fill="none" xmlns="http://www.w3.org/2000/svg"><path d="m19.93 18.31-2.057-3.62a7.802 7.802 0 0 0 1.73-4.94c0-4.281-3.409-7.75-7.625-7.75-4.212 0-7.625 3.464-7.625 7.75 0 1.863.63 3.574 1.711 4.911l-1.997 3.654a.545.545 0 0 0 .05.6c.136.17.359.24.567.18l3.023-.923.921 3.427a.543.543 0 0 0 .45.396.533.533 0 0 0 .526-.272l2.374-4.23 2.378 4.24a.528.528 0 0 0 .458.262c.023 0 .046 0 .073-.004a.528.528 0 0 0 .44-.392l.921-3.432 3.069.922a.526.526 0 0 0 .567-.184.528.528 0 0 0 .045-.595ZM11.977 3.444c3.413 0 6.204 2.841 6.204 6.305 0 3.469-2.796 6.305-6.204 6.305-3.413 0-6.204-2.84-6.204-6.305 0-3.464 2.79-6.305 6.204-6.305Zm-2.664 16.6-.722-2.689a.548.548 0 0 0-.254-.332.537.537 0 0 0-.413-.046l-2.292.701 1.203-2.2a7.536 7.536 0 0 0 3.93 1.932l-1.452 2.634Zm6.717-3.067a.526.526 0 0 0-.663.378l-.735 2.73-1.552-2.66a7.544 7.544 0 0 0 4.02-1.933l1.24 2.181-2.31-.696Zm-4.053-1.822a.533.533 0 0 1-.531-.54c0-2.44-1.752-4.142-4.257-4.142a.533.533 0 0 1-.531-.54c0-.3.236-.54.53-.54 2.388 0 4.258-1.978 4.258-4.506 0-.3.236-.54.53-.54.296 0 .532.24.532.54 0 2.528 1.87 4.507 4.257 4.507.295 0 .53.24.53.54 0 .3-.235.54-.53.54-2.505 0-4.257 1.701-4.257 4.141 0 .3-.236.54-.531.54ZM9.586 9.892a4.913 4.913 0 0 1 2.392 2.33 4.913 4.913 0 0 1 2.392-2.33 5.359 5.359 0 0 1-2.392-2.532 5.358 5.358 0 0 1-2.392 2.532Z" fill="#003"/></svg>