<svg width="24" height="24" viewBox="0 0 24 24" xmlns="http://www.w3.org/2000/svg"><path d="M12 0c6.627 0 12 5.373 12 12 0 6.628-5.373 12-12 12S0 18.628 0 12C0 5.373 5.373 0 12 0zm1.724 3.779l-.307.002c-2.544.052-4.65.89-6.049 2.734-2.73 3.594-3.09 8.346-2.156 10.879.406 1.101 1.843 2.014 2.868 1.79 5.927-1.287 8.93-2.599 10.397-3.91.337-.303.605-.66.81-1.059.33-.644.46-1.288.48-1.808l.002-.205.002-1.818-.005-.376c-.034-.986-.225-1.848-.525-2.58-.207-.504-.422-.85-.581-1.043-.167-.28-.573-.777-1.173-1.272-.967-.796-2.12-1.292-3.452-1.33l-.311-.004zm-.028 1.25l.304.004.255.015c.924.08 1.735.452 2.437 1.03.282.232.526.482.729.73l.121.155.046.062.06.088c.132.17.28.409.436.79.277.673.442 1.497.437 2.477l-.002 1.856-.002.144a3.178 3.178 0 01-.343 1.265 2.39 2.39 0 01-.531.697c-1.282 1.147-4.095 2.375-9.829 3.62-.38.084-1.228-.455-1.429-1-.132-.36-.247-.995-.299-1.754l.088-.008c1.167-.127 2.269-.575 3.227-1.187 1.217-.776 2.693-2.478 2.96-3.672.307-1.386-.41-2.491-1.553-2.52a1.413 1.413 0 00-.706.179 2.938 2.938 0 00-.44.296l-.376.301c-.298.234-.525.368-.779.444a2.773 2.773 0 01-.567.1c-.231.02-.477.02-.728.004.314-.649.697-1.276 1.152-1.875 1.18-1.554 3.02-2.246 5.332-2.241zM10.777 9.07c.299.008.51.335.363 1-.182.816-1.447 2.274-2.412 2.89-.88.561-1.903.959-2.935 1.019l.047-.005.222-.02c.003-.095.006-.191.011-.288l.019-.29c.078-1.032.28-2.044.617-3.017.444.048.899.064 1.335.028.296-.025.572-.073.824-.15.43-.128.78-.335 1.189-.656.073-.058.322-.26.374-.3l.145-.108.11-.068c.052-.027.079-.035.091-.035zm4.738 1.133a1.754 1.754 0 100 3.507 1.754 1.754 0 000-3.507zm0 1.25a.503.503 0 110 1.006.503.503 0 010-1.006z" fill="#000" fill-rule="nonzero"/></svg>