<svg width="40" height="40" viewBox="0 0 40 40" xmlns="http://www.w3.org/2000/svg"><g fill="none" fill-rule="evenodd"><path d="M19.995 0C31.038 0 39.99 8.952 39.99 19.995c0 11.043-8.952 19.995-19.995 19.995C8.952 39.99.001 31.038.001 19.995 0 8.952 8.952 0 19.995 0zm.625 10h-7.496l-.115.007c-.533.066-1.009.578-1.009 1.117v17.752l.007.119c.064.547.56 1.005 1.117 1.005h12.49l.119-.007c.546-.063 1.004-.559 1.004-1.117V15.832l-.007-.092a.567.567 0 00-.169-.32l-5.548-5.264-.067-.054A.576.576 0 0020.62 10zm-.853 1.138v2.475l.007.24c.05.868.368 1.615.923 2.173.606.608 1.443.93 2.413.93h2.49v11.901l-.007.005h-12.44l-.008-.005-.007-.006v-17.69l.011-.012.012-.01h6.606zm3.2 14.666h-7.212l-.091.007a.57.57 0 00.092 1.13v.001h7.211l.092-.007a.571.571 0 00.477-.562.57.57 0 00-.569-.569zm0-3.05h-7.212l-.091.008a.57.57 0 00.092 1.13h7.211l.092-.007a.571.571 0 00.477-.562.57.57 0 00-.569-.569zm0-3.053h-7.212l-.091.008a.57.57 0 00.092 1.13h7.211l.092-.007a.571.571 0 00.477-.562.57.57 0 00-.569-.569zm-2.062-8.077l4.421 4.194H23.11l-.216-.008c-.566-.04-1.045-.242-1.392-.59-.389-.389-.597-.944-.597-1.607v-1.989z" fill="#000" fill-rule="nonzero"/></g></svg>