<svg width="24" height="24" viewBox="0 0 24 24" xmlns="http://www.w3.org/2000/svg"><path d="M12 0c6.627 0 12 5.373 12 12s-5.373 12-12 12S0 18.627 0 12 5.373 0 12 0zm5.994 11.291a.625.625 0 00-.625.625v2.782l-.007.132a1.381 1.381 0 01-1.378 1.241H8.602l.001-1.299a.22.22 0 00-.367-.166l-2.128 1.895a.22.22 0 00-.002.328l2.128 1.942a.22.22 0 00.37-.164l-.002-1.287 7.382.001.166-.005a2.629 2.629 0 002.469-2.618v-2.782l-.007-.092a.625.625 0 00-.618-.533zm-4.366-1.75h-3.097l-.092.007a.625.625 0 00-.533.618v3.688l.007.093a.625.625 0 00.618.533l.093-.007a.625.625 0 00.532-.619v-1.057h1.272l.092-.006a.625.625 0 00-.092-1.243h-1.273l.001-.757h2.472l.093-.006a.625.625 0 00-.093-1.244zm2.167-4.082a.22.22 0 00-.37.163v1.285l-7.38.001-.166.005a2.629 2.629 0 00-2.468 2.618v2.335l.006.093a.625.625 0 001.244-.093V9.531l.006-.132a1.381 1.381 0 011.379-1.24l7.38-.002V9.46a.22.22 0 00.367.165l2.128-1.896a.22.22 0 00.002-.327z" fill="#000" fill-rule="nonzero"/></svg>