<svg width="41" height="40" viewBox="0 0 41 40" xmlns="http://www.w3.org/2000/svg"><path d="M20.994 0c11.043 0 19.995 8.952 19.995 19.995 0 11.043-8.952 19.995-19.995 19.995C9.951 39.99 1 31.038 1 19.995 1 8.952 9.951 0 20.994 0zm7.03 11.275H15.03a1.953 1.953 0 00-1.95 1.95l-.002 1.546-1.896-.004c-.72 0-2.914 0-2.914 2.656v10.453c0 1.885 1.008 2.881 2.912 2.881l5.296.012c1.906 0 2.914-.996 2.914-2.882V25.14h4.8v3.077c0 1.662.888 2.54 2.567 2.54l4.449.009c1.68 0 2.568-.878 2.568-2.54v-8.592c0-1.638-.912-2.54-2.569-2.54l-1.232-.003.001-3.864a1.953 1.953 0 00-1.95-1.951zm-16.842 4.992l5.294.011c1.084 0 1.415.322 1.415 1.381v10.228c0 1.06-.33 1.382-1.413 1.382l-5.296-.012c-1.084 0-1.414-.322-1.414-1.38l.001-10.563c.013-.741.186-1.047 1.413-1.047zm15.577 2.316l4.447.01c.838 0 1.069.223 1.069 1.04l-.001 8.592c0 .826-.22 1.04-1.067 1.04l-4.448-.01c-.85 0-1.069-.213-1.069-1.04l.001-8.878c.007-.535.098-.754 1.068-.754zm2.223 8.664c-.367 0-.606.192-.606.606 0 .2.055.347.153.447.106.108.263.16.453.16.191 0 .348-.052.453-.16.1-.1.153-.247.153-.447 0-.414-.238-.606-.606-.606zm-15.152-.722c-.437 0-.722.23-.722.722 0 .237.066.413.182.531.127.13.312.19.54.19.228 0 .413-.06.539-.19.117-.118.183-.294.183-.53 0-.494-.285-.723-.722-.723zm8.64-.135H20.99a.626.626 0 000 1.25h1.478a.625.625 0 000-1.25zm5.554-13.615c.248 0 .45.203.45.45v3.862l-1.715-.004c-.636 0-2.569 0-2.569 2.352v4.204h-4.8l.001-5.98c0-1.885-1.008-2.88-2.915-2.88l-1.898-.005.001-1.548c0-.248.203-.451.451-.451z" fill="#000" fill-rule="nonzero"/></svg>