<svg width="24" height="24" xmlns="http://www.w3.org/2000/svg" xmlns:xlink="http://www.w3.org/1999/xlink"><defs><path id="a" d="M0 0h19.976v20H0z"/></defs><g transform="translate(2 2)" fill="none" fill-rule="evenodd"><mask id="b" fill="#fff"><use xlink:href="#a"/></mask><path d="m18.432 16.304-.596.596-3.904-3.902.599-.6c.22-.22.675-.22.896 0l3.005 3.006a.635.635 0 0 1 0 .9Zm-3.477 2.338c-2.311 0-5.826-1.962-8.745-4.882C2.14 9.687.222 4.978 1.934 3.265l.171-.171L6.01 6.997l-.056.057c-.419.417-.443 1.236-.066 2.246.362.968 1.059 2.012 1.913 2.866 1.507 1.509 3.17 2.184 4.15 2.184.418 0 .742-.112.961-.332l.06-.06 3.904 3.903-.177.177c-.402.401-.989.604-1.744.604ZM4.117 1.357c.175 0 .338.063.448.173L7.57 4.537c.12.12.185.279.185.448a.63.63 0 0 1-.185.45l-.601.602-3.904-3.903.603-.604a.636.636 0 0 1 .449-.173Zm15.275 13.088-3.005-3.006a1.997 1.997 0 0 0-1.408-.571c-.533 0-1.046.208-1.409.571l-1.549 1.55a.792.792 0 0 1-.07.003c-.543 0-1.89-.484-3.19-1.785-.722-.721-1.305-1.59-1.601-2.382-.175-.468-.192-.763-.18-.878l1.55-1.552a1.98 1.98 0 0 0 .583-1.41c0-.532-.207-1.032-.583-1.408L5.526.571A2.002 2.002 0 0 0 4.117 0a2 2 0 0 0-1.409.57L.974 2.306C-1.344 4.624.495 9.961 5.25 14.72 8.456 17.927 12.266 20 14.955 20c1.128 0 2.038-.337 2.704-1.003l1.734-1.735c.376-.377.583-.878.583-1.408 0-.53-.207-1.031-.584-1.409Z" fill="#1E6CA7" mask="url(#b)"/></g></svg>