<svg width="24" height="24" xmlns="http://www.w3.org/2000/svg" xmlns:xlink="http://www.w3.org/1999/xlink"><defs><path id="a" d="M0 0h19.975v18.643H0z"/></defs><g transform="translate(2 3)" fill="none" fill-rule="evenodd"><mask id="b" fill="#fff"><use xlink:href="#a"/></mask><path d="M15.075 11.334h-4.426V6.928h-1.36v4.406H3.95a2.648 2.648 0 0 1-2.641-2.648A2.65 2.65 0 0 1 3.973 6.04h.004l.653.027.098-.577a4.976 4.976 0 0 1 4.913-4.157 5 5 0 0 1 4.344 2.545l.219.388.442-.053c.16-.02.301-.029.429-.029a3.575 3.575 0 0 1 0 7.15Zm0-8.484-.154.003A6.335 6.335 0 0 0 9.641 0 6.3 6.3 0 0 0 3.53 4.727a3.982 3.982 0 0 0 .42 7.94h5.339v3.401l-1.685-1.685-.962.962 3.323 3.322 3.322-3.322-.962-.962-1.676 1.676v-3.392h4.426a4.91 4.91 0 0 0 4.9-4.908 4.91 4.91 0 0 0-4.9-4.909Z" fill="#1E6CA7" mask="url(#b)"/></g></svg>