<svg width="24" height="24" xmlns="http://www.w3.org/2000/svg" xmlns:xlink="http://www.w3.org/1999/xlink"><defs><path id="a" d="M0 0h19.978v18.927H0z"/></defs><g fill="none" fill-rule="evenodd"><g transform="translate(2 2)"><mask id="b" fill="#fff"><use xlink:href="#a"/></mask><path d="M17.581 9.802H16.22v6.738c0 .58-.471 1.05-1.05 1.05H4.784a1.053 1.053 0 0 1-1.051-1.05V9.802H2.098l7.879-7.879 7.878 7.879h-.274Zm2.397.199L9.977 0-.024 10l.481 1.162h1.916v5.378c0 1.33 1.082 2.41 2.411 2.41H15.17a2.414 2.414 0 0 0 2.411-2.41v-5.378h1.916L19.978 10Z" fill="#1E6CA7" mask="url(#b)"/></g><path fill="#1E6CA7" d="M10.377 17.489h3.2v-3.2h-3.2z"/></g></svg>