<svg width="24" height="24" xmlns="http://www.w3.org/2000/svg" xmlns:xlink="http://www.w3.org/1999/xlink"><defs><path id="a" d="M0 0h19.976v20H0z"/></defs><g fill="none" fill-rule="evenodd"><g transform="translate(2 2)"><mask id="b" fill="#fff"><use xlink:href="#a"/></mask><path d="M9.976 1.355c-4.606 0-8.645 4.04-8.645 8.645 0 4.606 4.039 8.645 8.645 8.645 4.605 0 8.645-4.04 8.645-8.645 0-4.605-4.04-8.645-8.645-8.645Zm0 18.645c-5.327 0-10-4.673-10-10s4.673-10 10-10 10 4.673 10 10-4.673 10-10 10Z" fill="#1E6CA7" mask="url(#b)"/></g><path d="M11.983 6.139a1.2 1.2 0 1 1-.001 2.399 1.2 1.2 0 0 1 .001-2.4ZM11.298 17.932h1.355v-6.78h-1.355z" fill="#1E6CA7"/></g></svg>