<svg width="24" height="24" xmlns="http://www.w3.org/2000/svg" xmlns:xlink="http://www.w3.org/1999/xlink"><defs><path id="a" d="M0 0h19.976v20H0z"/></defs><g transform="translate(2 2)" fill="none" fill-rule="evenodd"><mask id="b" fill="#fff"><use xlink:href="#a"/></mask><path d="M5.543 17.338a11.059 11.059 0 0 0 1.751-.435c.796-.27 2.076-.797 3.488-1.733.748.52 1.5.976 2.234 1.344.508.254 1.076.5 1.632.667-1.366.918-2.981 1.464-4.672 1.464-1.594 0-3.119-.484-4.433-1.307ZM2.787 5.339c.166.576.421 1.163.686 1.684.352.693.788 1.41 1.289 2.127-.069.106-.139.21-.206.316a15.534 15.534 0 0 0-1.558 3.128c-.115.322-.325.971-.451 1.687C1.78 13 1.331 11.533 1.331 10c0-1.687.543-3.296 1.456-4.66Zm11.545-2.723c-.728.116-1.389.32-1.716.43-1.244.422-3.668 1.466-5.928 3.726-.383.383-.738.795-1.079 1.22-1.422-2.151-1.828-3.744-1.614-4.059a.623.623 0 0 0 .111-.155c1.568-1.485 3.652-2.423 5.87-2.423 1.562 0 3.059.466 4.356 1.26Zm1.674 1.38c.338.398.03 2.513-1.29 4.905-.015.021-.031.041-.043.064-.13.241-.271.474-.413.705a15.037 15.037 0 0 1-2.074 2.6c-.435.434-.914.836-1.41 1.217a22.671 22.671 0 0 1-2.262-1.979 24.05 24.05 0 0 1-2.075-2.357c.383-.498.806-.993 1.284-1.47a14.37 14.37 0 0 1 1.874-1.575c.026-.018.048-.04.071-.061 3.014-2.081 5.935-2.395 6.338-2.049ZM3.903 15.953c-.337-.398-.029-2.514 1.292-4.907.014-.02.029-.04.041-.062.124-.23.259-.452.394-.674a25.74 25.74 0 0 0 1.926 2.156 24.31 24.31 0 0 0 2.066 1.842c-2.784 1.716-5.342 1.968-5.719 1.645Zm12.158.06-.015.01c-.438.174-2.078-.37-4.099-1.703a15.178 15.178 0 0 0 3.402-3.83 15.514 15.514 0 0 0 1.562-3.134c.116-.326.329-.981.455-1.704.791 1.295 1.255 2.789 1.255 4.348 0 2.285-.995 4.43-2.56 6.012Zm.995.898c1.786-1.826 2.92-4.289 2.92-6.911 0-5.327-4.673-10-10-10s-10 4.673-10 10 4.673 10 10 10c2.632 0 5.102-1.142 6.93-2.938.024-.02.052-.035.074-.058a.649.649 0 0 0 .076-.093Z" fill="#1E6CA7" mask="url(#b)"/></g></svg>