<svg width="24" height="24" xmlns="http://www.w3.org/2000/svg" xmlns:xlink="http://www.w3.org/1999/xlink"><defs><path id="a" d="M0 0h19.976v15.982H0z"/></defs><g transform="translate(2 4)" fill="none" fill-rule="evenodd"><mask id="b" fill="#fff"><use xlink:href="#a"/></mask><g mask="url(#b)" fill="#1E6CA7"><path d="M4.881 12.441h2.4v-2.4h-2.4z"/><path d="M9.976 14.644H1.988a.651.651 0 0 1-.65-.65V8.018h9.288v5.976c0 .358-.292.65-.65.65ZM15.301 0a4.68 4.68 0 0 0-4.675 4.675v1.981H-.008v.016h-.016v7.322c0 1.109.903 2.012 2.012 2.012h7.988c1.11 0 2.012-.903 2.012-2.012v-9.32a3.316 3.316 0 0 1 3.313-3.312 3.316 3.316 0 0 1 3.313 3.313v1.997h1.362V4.675A4.68 4.68 0 0 0 15.301 0Z"/></g></g></svg>