<svg width="24" height="24" xmlns="http://www.w3.org/2000/svg" xmlns:xlink="http://www.w3.org/1999/xlink"><defs><path id="a" d="M0 0h19.976v20H0z"/></defs><g transform="translate(2 2)" fill="none" fill-rule="evenodd"><mask id="b" fill="#fff"><use xlink:href="#a"/></mask><path d="m18.37 3.633-1.456 1.453-2.033-2.03 1.455-1.453a.842.842 0 0 1 1.154 0l.88.878a.815.815 0 0 1 0 1.152ZM6.411 15.57l-2.033-2.03 9.535-9.518 2.033 2.03-9.535 9.518ZM2.35 17.624 3.504 14.6l1.865 1.863-3.02 1.161Zm16.988-16.11-.879-.877A2.17 2.17 0 0 0 16.914 0c-.585 0-1.134.226-1.546.637L2.443 13.542-.024 20l6.435-2.496L19.337 4.599a2.18 2.18 0 0 0 0-3.085Z" fill="#1E6CA7" mask="url(#b)"/></g></svg>