<svg width="24" height="24" xmlns="http://www.w3.org/2000/svg" xmlns:xlink="http://www.w3.org/1999/xlink"><defs><path id="a" d="M0 0h19.975v16.642H0z"/></defs><g transform="translate(2 4)" fill="none" fill-rule="evenodd"><mask id="b" fill="#fff"><use xlink:href="#a"/></mask><path d="M18.642 2a.667.667 0 0 0-.666-.667h-16A.667.667 0 0 0 1.309 2v10c0 .367.299.666.667.666h16a.667.667 0 0 0 .666-.666V2Zm-7.078 13.333L10.897 14H9.054l-.666 1.333h3.176ZM19.975 2v10a2.002 2.002 0 0 1-1.999 2h-5.588l1.333 2.666h-7.49L7.564 14H1.976c-1.103 0-2-.897-2-1.999V2c0-1.103.897-2 2-2h16c1.102 0 1.999.897 1.999 2Zm-3.999 9.333h1.333V10h-1.333v1.333Z" fill="#1E6CA7" mask="url(#b)"/></g></svg>