<svg width="24" height="24" xmlns="http://www.w3.org/2000/svg" xmlns:xlink="http://www.w3.org/1999/xlink"><defs><path id="a" d="M0 0h19.976v20H0z"/></defs><g fill="none" fill-rule="evenodd"><g transform="translate(2 2)"><mask id="b" fill="#fff"><use xlink:href="#a"/></mask><path d="M8.192 15.07a6.86 6.86 0 0 1-6.853-6.854 6.86 6.86 0 0 1 6.853-6.853 6.861 6.861 0 0 1 6.854 6.853 6.862 6.862 0 0 1-6.854 6.853Zm11.784 3.966-5.518-5.518a8.174 8.174 0 0 0 1.95-5.302C16.408 3.686 12.723 0 8.192 0 3.662 0-.024 3.686-.024 8.216c0 4.53 3.686 8.216 8.216 8.216a8.17 8.17 0 0 0 5.302-1.95L19.012 20l.964-.964Z" fill="#1E6CA7" mask="url(#b)"/></g><path d="M9.292 5.712a.68.68 0 1 0 .43 1.293 3.09 3.09 0 0 1 3.903 1.953.682.682 0 0 0 1.293-.43 4.454 4.454 0 0 0-5.626-2.816Z" fill="#1E6CA7"/></g></svg>