<svg width="24" height="24" xmlns="http://www.w3.org/2000/svg"><path d="M16.093 18.094a.64.64 0 0 1-.321.372l-4.228 2.114a.642.642 0 0 1-.86-.286l-3.25-6.501 1.072-4.29 2.756 1.033c-.158.665-.54 1.115-.89 1.115a.676.676 0 0 0 0 1.353c.999 0 1.834-.816 2.166-1.99l.278.105 3.243 6.487a.636.636 0 0 1 .034.488Zm-6.065-9.49v-2.05c.263.465.494.875.603 1.073.341.618.517 1.08.611 1.457l-1.217-.456c0-.009.003-.016.003-.025ZM17.269 17l-3.481-6.962-1.105-.415c-.046-.832-.31-1.641-.867-2.65-.293-.532-1.46-2.582-1.788-3.16V2.677a.677.677 0 0 0-1.354 0v5.445l-1.112-.417L6 13.95l3.474 6.949a1.996 1.996 0 0 0 2.675.891l4.229-2.115c.475-.237.83-.647.998-1.153a1.975 1.975 0 0 0-.107-1.521Z" fill="#1E6CA7" fill-rule="evenodd"/></svg>