<svg xmlns="http://www.w3.org/2000/svg" width="24" height="24" fill="none"><path fill="#313235" d="M21.755 18.091c0-.403-.241-1.05-.647-1.375l-.081-6.555v-.014c0-.478 0-1.396-.81-1.767l-7.933-3.563a1.577 1.577 0 0 0-1.215 0L3.136 8.38c-.566.24-.89.81-.89 1.375 0 .647.324 1.132.89 1.376l7.93 3.563c.16.08.322.162.566.162.16 0 .403-.081.566-.162l7.61-3.401v5.423c-.403.322-.647.97-.647 1.375 0 .241.081.404.244.566.243.244.566.244.89.244h.488c.244 0 .566-.081.728-.244.163-.081.244-.322.244-.566Zm-9.148-2.67a2.903 2.903 0 0 1-.891.163c-.322 0-.647-.08-.891-.162l-5.83-2.591v2.672c0 .81.567 1.457 1.295 1.62 1.297.243 3.078.727 4.372 1.78.325.244.729.407 1.135.407s.81-.163 1.134-.406c1.297-1.053 3.079-1.538 4.373-1.782a1.654 1.654 0 0 0 1.294-1.619V12.75l-5.991 2.672Z"/></svg>