<svg width="24" height="24" viewBox="0 0 24 24" fill="none" xmlns="http://www.w3.org/2000/svg">
<path fill-rule="evenodd" clip-rule="evenodd" d="M16.6191 15.8291C18.2689 15.0336 19.9048 13.8291 21.5126 12.2213C21.6191 12.1148 21.6779 11.972 21.6779 11.8235C21.6779 11.6751 21.6191 11.5322 21.5126 11.4286C18.381 8.29132 15.1373 6.70308 11.8712 6.70308C10.6359 6.70308 9.40337 6.92998 8.17648 7.38376L2.9748 2.18488C2.75632 1.96639 2.40337 1.96639 2.18489 2.18488C1.9664 2.40336 1.9664 2.75911 2.18489 2.97759L7.06724 7.85995C5.41458 8.65547 3.77872 9.85995 2.17088 11.4678C2.06724 11.5742 2.00562 11.7171 2.00562 11.8655C2.00562 12.014 2.06444 12.1569 2.17088 12.2605C5.30534 15.395 8.54903 16.9832 11.8151 16.9832C13.0504 16.9832 14.2829 16.7563 15.5098 16.3025L20.7087 21.5014C20.8179 21.6106 20.9608 21.6667 21.1037 21.6667C21.2465 21.6667 21.3894 21.6106 21.4986 21.5014C21.7171 21.2829 21.7171 20.9272 21.4986 20.7087L16.6191 15.8291ZM13.1513 12.3613L11.3137 10.5238C11.4734 10.4622 11.6359 10.4566 11.8179 10.4566C12.6639 10.4566 13.2101 11.0028 13.2101 11.8515C13.2101 12.0224 13.2045 12.1933 13.1513 12.3613ZM14.2297 13.4398L14.8516 14.0616C15.1849 13.4902 15.3558 12.7815 15.3586 11.944C15.3586 9.60785 14.0252 8.26891 11.7003 8.26891C10.86 8.26891 10.1485 8.44258 9.57704 8.78432L10.1989 9.40617C10.6079 9.21009 11.1121 9.11205 11.7003 9.11205C12.5967 9.11205 13.2913 9.33894 13.7647 9.78992C14.2633 10.2633 14.5154 10.9888 14.5154 11.944C14.5154 12.5322 14.4202 13.0308 14.2297 13.4398Z" fill="#313235"/>
</svg>
