<svg width="24" height="24" fill="none" xmlns="http://www.w3.org/2000/svg"><path d="M19.967 4.043c1.232 1.23 1.885 3.028 1.876 5.216-.008 4.613-5.927 11.58-6.77 12.406a.61.61 0 0 1-.431.176.592.592 0 0 1-.432-.176c-.423-.41-1.37-1.51-2.47-3.037-1.272 1.614-3.353 1.802-4.037 1.807-.098.009-.21.009-.316.009h-.171c-1.062-.014-5.056-.395-5.056-5.247 0-4.837 3.955-5.199 5.014-5.207h.367a5 5 0 0 1-.048-.782c0-2.176.661-3.977 1.908-5.199 1.25-1.221 3.09-1.848 5.294-1.854 2.207.008 4.034.658 5.272 1.888ZM16.855 8.6c0 1.303-.821 2.112-2.143 2.112-1.322 0-2.146-.81-2.146-2.112s.82-2.112 2.146-2.112c1.322 0 2.143.81 2.143 2.112Zm-5.32 6.628c0-3.423-2.44-3.995-3.89-4.034h-.457c-1.426.014-3.807.546-3.807 4 0 3.47 2.415 4.017 3.849 4.042h.157c.095 0 .201 0 .291-.005 1.434-.026 3.857-.58 3.857-4.003Zm-1.437-.63H8.065v-1.98a.605.605 0 0 0-.611-.603.607.607 0 0 0-.61.602v1.98H4.814a.607.607 0 0 0-.61.603c0 .333.271.602.61.602h2.028v2.009c0 .333.272.602.611.602.336 0 .61-.27.61-.602v-2.009h2.034c.336 0 .61-.269.61-.602a.605.605 0 0 0-.61-.602Z" fill="#313235"/></svg>