<svg width="24" height="24" viewBox="0 0 24 24" fill="none" xmlns="http://www.w3.org/2000/svg">
<path fill-rule="evenodd" clip-rule="evenodd" d="M5.74083 2H18.0713C18.7072 2 19.287 2.57423 19.2898 3.20168V20.4846C19.2898 21.1232 18.7212 21.6862 18.0741 21.6862H14.0237V16.1792C14.0237 15.9524 13.8417 15.7703 13.6176 15.7703H10.1974C9.97331 15.7703 9.79124 15.9524 9.79124 16.1792V21.6862H5.74083C5.09377 21.6862 4.52515 21.126 4.52515 20.4846V3.20168C4.52515 2.57423 5.10498 2 5.74083 2ZM10.6204 8.0336C10.8445 8.0336 11.0265 7.85153 11.0265 7.62464V5.0084C11.0265 4.78151 10.8445 4.59943 10.6204 4.59943H8.03214C7.80805 4.59943 7.62598 4.78151 7.62598 5.0084V7.62464C7.62598 7.84873 7.80805 8.0336 8.03214 8.0336H10.6204ZM16.1442 7.62464C16.1442 7.85153 15.9621 8.0336 15.738 8.0336H13.1498C12.9257 8.0336 12.7436 7.84873 12.7436 7.62464V5.0084C12.7436 4.78151 12.9257 4.59943 13.1498 4.59943H15.738C15.9621 4.59943 16.1442 4.78151 16.1442 5.0084V7.62464ZM16.1442 12.7619C16.1442 12.9888 15.9621 13.1708 15.738 13.1708H13.1498C12.9257 13.1708 12.7436 12.986 12.7436 12.7619V10.1428C12.7436 9.91595 12.9257 9.73388 13.1498 9.73388H15.738C15.9621 9.73388 16.1442 9.91875 16.1442 10.1428V12.7619ZM11.0265 12.7619C11.0265 12.9888 10.8445 13.1708 10.6204 13.1708H8.03214C7.80805 13.1708 7.62598 12.986 7.62598 12.7619V10.1428C7.62598 9.91595 7.80805 9.73388 8.03214 9.73388H10.6204C10.8445 9.73388 11.0265 9.91875 11.0265 10.1428V12.7619Z" fill="#313235"/>
</svg>
