<svg width="24" height="24" fill="none" xmlns="http://www.w3.org/2000/svg"><path d="M6.252 11.083h-.907l-1.208 3.61h.785l.28-.907h1.17l.3.907h.883l-1.303-3.61Zm-.473.902.395 1.204h-.782l.376-1.204h.01Zm2.199-.902v3.613H8.8V13.45h.58c.476 0 .804-.11 1.014-.348.18-.201.269-.49.269-.877 0-.386-.095-.666-.291-.845-.233-.219-.591-.297-1.157-.297H7.978Zm1.705 1.61c-.103.101-.215.138-.479.138h-.408v-1.152h.386c.255 0 .406.037.507.126.095.09.137.233.137.429 0 .21-.047.364-.143.46Zm1.572-1.61h.823v3.61h-.823v-3.61Z" fill="#313235"/><path d="M20.224 4.522c.807 0 1.462.63 1.462 1.41V17.88c0 .776-.655 1.406-1.462 1.406H3.462C2.655 19.29 2 18.657 2 17.881V5.931c0-.776.655-1.409 1.462-1.409h16.762ZM3.874 6.676a.56.56 0 0 0 .571.55.562.562 0 0 0 .572-.55.56.56 0 0 0-.572-.549.56.56 0 0 0-.571.55Zm16.58 5.219v-3.05H3.232v9.036c0 .12.101.218.227.218h10.39a.865.865 0 0 1 .185-.263l.37-.356a3.623 3.623 0 0 1-.096-.297h-.414c-.541 0-.984-.425-.984-.946v-.661c0-.521.44-.944.984-.944h.414c.025-.096.056-.196.095-.297l-.37-.353a.93.93 0 0 1-.027-1.317.119.119 0 0 1 .019-.02l.009-.008.501-.484a1.014 1.014 0 0 1 1.398 0l.37.358a4.58 4.58 0 0 1 .305-.092v-.398c0-.524.44-.947.983-.947h.686c.54 0 .983.423.983.947v.398c.104.028.205.059.306.095l.37-.356a.95.95 0 0 1 .518-.263Zm-2.569 5.714c1.163 0 1.882-.694 1.882-1.812s-.722-1.812-1.882-1.812c-1.162 0-1.882.694-1.882 1.812s.72 1.812 1.882 1.812ZM6.16 6.127a.56.56 0 0 0-.572.55.56.56 0 0 0 .572.549.562.562 0 0 0 .571-.55.56.56 0 0 0-.571-.549Zm1.143.55a.56.56 0 0 0 .57.549.562.562 0 0 0 .572-.55.56.56 0 0 0-.571-.549.56.56 0 0 0-.571.55Z" fill="#313235"/></svg>