<svg width="24" height="24" fill="none" xmlns="http://www.w3.org/2000/svg"><path d="M6.36 2.155H3.134c-.54 0-.98.44-.98.98V6.36c0 .541.44.98.98.98H6.36c.54 0 .98-.439.98-.98V3.135c0-.54-.44-.98-.98-.98Zm4.027 0h3.224c.541 0 .98.44.98.98V6.36c0 .541-.439.98-.98.98h-3.224c-.54 0-.98-.439-.98-.98V3.135c0-.54.437-.98.98-.98Zm7.25 0h3.224c.54 0 .98.44.98.98V6.36c0 .541-.44.98-.98.98h-3.224c-.541 0-.98-.439-.98-.98V3.135c0-.54.439-.98.98-.98Zm0 7.252h3.224c.54 0 .98.44.98.98v3.225c0 .54-.44.98-.98.98h-3.224c-.541 0-.98-.44-.98-.98v-3.225c0-.543.439-.98.98-.98Zm-4.026 0h-3.224a.978.978 0 0 0-.98.98v3.225c0 .54.44.98.98.98h3.224c.541 0 .98-.44.98-.98v-3.225c0-.54-.439-.98-.98-.98Zm-10.476 0H6.36c.54 0 .98.44.98.98v3.225c0 .54-.44.98-.98.98H3.135c-.54 0-.98-.44-.98-.98v-3.225c0-.543.44-.98.98-.98Zm10.476 7.25h-3.224a.98.98 0 0 0-.98.98v3.224c0 .54.44.98.98.98h3.224c.541 0 .98-.44.98-.98v-3.224c0-.54-.439-.98-.98-.98Zm4.003 0h3.224c.54 0 .98.44.98.98v3.224c0 .54-.44.98-.98.98h-3.224c-.54 0-.98-.44-.98-.98v-3.224c0-.54.437-.98.98-.98Zm-11.255 0H3.135c-.54 0-.98.44-.98.98v3.224c0 .54.44.98.98.98H6.36c.54 0 .98-.44.98-.98v-3.224c0-.54-.44-.98-.98-.98Z" fill="#313235"/></svg>