<svg width="24" height="24" viewBox="0 0 24 24" fill="none" xmlns="http://www.w3.org/2000/svg">
<path fill-rule="evenodd" clip-rule="evenodd" d="M6.35448 2.15002H3.13039C2.58978 2.15002 2.15 2.5898 2.15 3.13042V6.35451C2.15 6.89512 2.58978 7.3349 3.13039 7.3349H6.35448C6.8951 7.3349 7.33487 6.89512 7.33487 6.35451V3.13042C7.33487 2.5898 6.8951 2.15002 6.35448 2.15002ZM10.3825 2.15002H13.6066C14.1472 2.15002 14.587 2.5898 14.587 3.13042V6.35451C14.587 6.89512 14.1472 7.3349 13.6066 7.3349H10.3825C9.84188 7.3349 9.4021 6.89512 9.4021 6.35451V3.13042C9.4021 2.5898 9.83908 2.15002 10.3825 2.15002ZM17.6318 2.15002H20.8559C21.3965 2.15002 21.8363 2.5898 21.8363 3.13042V6.35451C21.8363 6.89512 21.3965 7.3349 20.8559 7.3349H17.6318C17.0912 7.3349 16.6514 6.89512 16.6514 6.35451V3.13042C16.6514 2.5898 17.0912 2.15002 17.6318 2.15002ZM17.6318 9.40213H20.8559C21.3965 9.40213 21.8363 9.8419 21.8363 10.3825V13.6066C21.8363 14.1472 21.3965 14.587 20.8559 14.587H17.6318C17.0912 14.587 16.6514 14.1472 16.6514 13.6066V10.3825C16.6514 9.8391 17.0912 9.40213 17.6318 9.40213ZM13.6066 9.40213H10.3825C9.83908 9.40213 9.4021 9.8391 9.4021 10.3825V13.6066C9.4021 14.1472 9.84188 14.587 10.3825 14.587H13.6066C14.1472 14.587 14.587 14.1472 14.587 13.6066V10.3825C14.587 9.8419 14.1472 9.40213 13.6066 9.40213ZM3.13039 9.40213H6.35448C6.8951 9.40213 7.33487 9.8419 7.33487 10.3825V13.6066C7.33487 14.1472 6.8951 14.587 6.35448 14.587H3.13039C2.58978 14.587 2.15 14.1472 2.15 13.6066V10.3825C2.15 9.8391 2.58978 9.40213 3.13039 9.40213ZM13.6066 16.6514H10.3825C9.83908 16.6514 9.4021 17.0912 9.4021 17.6318V20.8559C9.4021 21.3965 9.84188 21.8363 10.3825 21.8363H13.6066C14.1472 21.8363 14.587 21.3965 14.587 20.8559V17.6318C14.587 17.0912 14.1472 16.6514 13.6066 16.6514ZM17.6094 16.6514H20.8335C21.3741 16.6514 21.8139 17.0912 21.8139 17.6318V20.8559C21.8139 21.3965 21.3741 21.8363 20.8335 21.8363H17.6094C17.0688 21.8363 16.629 21.3965 16.629 20.8559V17.6318C16.629 17.0912 17.066 16.6514 17.6094 16.6514ZM6.35448 16.6514H3.13039C2.58978 16.6514 2.15 17.0912 2.15 17.6318V20.8559C2.15 21.3965 2.58978 21.8363 3.13039 21.8363H6.35448C6.8951 21.8363 7.33487 21.3965 7.33487 20.8559V17.6318C7.33487 17.0912 6.8951 16.6514 6.35448 16.6514Z" fill="#313235"/>
</svg>
