<svg width="24" height="24" viewBox="0 0 24 24" fill="none" xmlns="http://www.w3.org/2000/svg">
<path fill-rule="evenodd" clip-rule="evenodd" d="M6.35438 2.14999H3.13029C2.58968 2.14999 2.1499 2.58977 2.1499 3.13039V6.35448C2.1499 6.89509 2.58968 7.33487 3.13029 7.33487H6.35438C6.895 7.33487 7.33478 6.89509 7.33478 6.35448V3.13039C7.33478 2.58977 6.895 2.14999 6.35438 2.14999ZM10.3824 2.14999H13.6065C14.1471 2.14999 14.5869 2.58977 14.5869 3.13039V6.35448C14.5869 6.89509 14.1471 7.33487 13.6065 7.33487H10.3824C9.84178 7.33487 9.402 6.89509 9.402 6.35448V3.13039C9.402 2.58977 9.83898 2.14999 10.3824 2.14999ZM17.6317 2.14999H20.8558C21.3964 2.14999 21.8362 2.58977 21.8362 3.13039V6.35448C21.8362 6.89509 21.3964 7.33487 20.8558 7.33487H17.6317C17.0911 7.33487 16.6513 6.89509 16.6513 6.35448V3.13039C16.6513 2.58977 17.0911 2.14999 17.6317 2.14999ZM17.6317 9.40209H20.8558C21.3964 9.40209 21.8362 9.84187 21.8362 10.3825V13.6066C21.8362 14.1472 21.3964 14.587 20.8558 14.587H17.6317C17.0911 14.587 16.6513 14.1472 16.6513 13.6066V10.3825C16.6513 9.83907 17.0911 9.40209 17.6317 9.40209ZM13.6065 9.40209H10.3824C9.83898 9.40209 9.402 9.83907 9.402 10.3825V13.6066C9.402 14.1472 9.84178 14.587 10.3824 14.587H13.6065C14.1471 14.587 14.5869 14.1472 14.5869 13.6066V10.3825C14.5869 9.84187 14.1471 9.40209 13.6065 9.40209ZM3.13029 9.40209H6.35438C6.895 9.40209 7.33478 9.84187 7.33478 10.3825V13.6066C7.33478 14.1472 6.895 14.587 6.35438 14.587H3.13029C2.58968 14.587 2.1499 14.1472 2.1499 13.6066V10.3825C2.1499 9.83907 2.58968 9.40209 3.13029 9.40209ZM13.6065 16.6514H10.3824C9.83898 16.6514 9.402 17.0912 9.402 17.6318V20.8559C9.402 21.3965 9.84178 21.8363 10.3824 21.8363H13.6065C14.1471 21.8363 14.5869 21.3965 14.5869 20.8559V17.6318C14.5869 17.0912 14.1471 16.6514 13.6065 16.6514ZM17.6093 16.6514H20.8334C21.374 16.6514 21.8138 17.0912 21.8138 17.6318V20.8559C21.8138 21.3965 21.374 21.8363 20.8334 21.8363H17.6093C17.0687 21.8363 16.6289 21.3965 16.6289 20.8559V17.6318C16.6289 17.0912 17.0659 16.6514 17.6093 16.6514ZM6.35438 16.6514H3.13029C2.58968 16.6514 2.1499 17.0912 2.1499 17.6318V20.8559C2.1499 21.3965 2.58968 21.8363 3.13029 21.8363H6.35438C6.895 21.8363 7.33478 21.3965 7.33478 20.8559V17.6318C7.33478 17.0912 6.895 16.6514 6.35438 16.6514Z" fill="#313235"/>
</svg>
