<svg xmlns="http://www.w3.org/2000/svg" width="24" height="24" fill="none"><path fill="#0B2739" d="M10.126 20.458h-.022c-.395-.005-.78-.196-1.143-.56l-5.048-5.025-.017-.017q-.48-.523-.361-1.079c.073-.336.302-.605.52-.823l.015-.014 5.118-4.812-2.589-2.589c-.316-.33-.409-.893-.218-1.339.176-.414.566-.66 1.04-.66H19.51c.28-.02.532.07.717.254.185.185.274.44.252.717l-.006 12.146c.012.415-.232.793-.613.955-.457.205-1.05.112-1.406-.215l-.017-.015-2.376-2.378-4.79 4.905-.005.006c-.358.361-.742.543-1.14.543"/></svg>