<svg width="24" height="24" viewBox="0 0 24 24" fill="none" xmlns="http://www.w3.org/2000/svg">
<path d="M14.0477 3.68066H14.0701C14.4651 3.68627 14.8488 3.87394 15.213 4.24089L20.2606 9.2661L20.2774 9.2829C20.5967 9.63024 20.7172 9.99159 20.6388 10.3613C20.5659 10.6975 20.3362 10.9664 20.1177 11.1849L20.1037 11.1989L14.9889 16.0112L17.5687 18.591L17.5771 18.5994C17.8937 18.93 17.9861 19.493 17.7956 19.9384C17.6191 20.3529 17.2298 20.5994 16.7564 20.5994H4.66397C4.38386 20.619 4.13176 20.5294 3.94689 20.3445C3.76201 20.1597 3.67238 19.9047 3.69478 19.6274L3.70039 7.48178C3.68918 7.06722 3.93288 6.68907 4.31383 6.5266C4.77041 6.32212 5.36145 6.41456 5.71999 6.74229L5.7368 6.75629L8.11495 9.13444L12.9049 4.22968L12.9105 4.22408C13.2662 3.86274 13.65 3.68066 14.0477 3.68066Z" fill="#313235"/>
</svg>
