<svg width="24" height="24" viewBox="0 0 24 24" fill="none" xmlns="http://www.w3.org/2000/svg">
<path d="M3.67529 10.2885V10.2661C3.6809 9.87115 3.86857 9.4874 4.23552 9.12325L9.26073 4.07564L9.27753 4.05883C9.62487 3.7395 9.98622 3.61905 10.356 3.69748C10.6921 3.77031 10.961 4 11.1795 4.21849L11.1935 4.2325L16.0058 9.34734L18.5857 6.76751L18.5941 6.75911C18.9246 6.44258 19.4876 6.35014 19.933 6.54062C20.3476 6.71709 20.5941 7.10645 20.5941 7.57984V19.6695C20.6137 19.9496 20.524 20.2017 20.3392 20.3866C20.1543 20.5714 19.8994 20.6611 19.6221 20.6387L7.47641 20.6331C7.06185 20.6443 6.6837 20.4006 6.52123 20.0196C6.31675 19.563 6.40919 18.9692 6.73692 18.6134L6.75092 18.5966L9.12907 16.2185L4.22431 11.4286L4.21871 11.423C3.85737 11.07 3.67529 10.6863 3.67529 10.2885Z" fill="#313235"/>
</svg>
