<svg width="24" height="24" fill="none" xmlns="http://www.w3.org/2000/svg"><path fill-rule="evenodd" clip-rule="evenodd" d="M7.46 11.908h2.316c.664 0 1.201-.538 1.199-1.202l-.003-2.902 1.82-.014c.294 0 .56-.17.684-.437a.778.778 0 0 0-.098-.83l-.018-.019c-.006-.006-.013-.012-.018-.02l-4.154-4.21a.756.756 0 0 0-1.126 0L3.888 6.483c-.014.011-.025.025-.037.039a.788.788 0 0 0-.1.832.749.749 0 0 0 .68.437l1.824.014.003 2.902c0 .664.537 1.202 1.201 1.202Zm7.13 9.58a.749.749 0 0 0 1.127.002l4.182-4.215c.014-.012.025-.026.037-.04a.787.787 0 0 0 .098-.832.753.753 0 0 0-.684-.437l-1.826-.014-.003-2.904c0-.664-.538-1.202-1.202-1.202H14a1.206 1.206 0 0 0-1.2 1.204l.005 2.902-1.824.014c-.294 0-.56.171-.683.437a.782.782 0 0 0 .098.832l.018.02c.006.006.013.012.018.02l4.16 4.212Z" fill="#313235"/></svg>