<svg width="24" height="24" fill="none" xmlns="http://www.w3.org/2000/svg"><path d="M3.675 10.289v-.023c.006-.395.194-.779.56-1.143l5.026-5.047.017-.017c.347-.32.708-.44 1.078-.362.336.073.605.303.824.521l.014.014 4.812 5.115 2.58-2.58.008-.008c.33-.316.894-.409 1.339-.218.415.176.661.565.661 1.039v12.09c.02.28-.07.532-.255.717a.894.894 0 0 1-.717.252l-12.146-.006a1.009 1.009 0 0 1-.955-.613c-.204-.457-.112-1.05.216-1.407l.014-.016 2.378-2.379-4.905-4.79-.005-.005c-.362-.353-.544-.737-.544-1.134Z" fill="#313235"/></svg>