<svg xmlns="http://www.w3.org/2000/svg" width="24" height="24" fill="none"><path fill="#0B2739" d="M7.564 12.028h2.317c.664 0 1.201-.538 1.199-1.202l-.003-2.902 1.82-.014c.294 0 .56-.17.684-.437a.778.778 0 0 0-.116-.849c-.006-.006-.013-.012-.018-.02l-4.154-4.21a.756.756 0 0 0-1.126 0L3.992 6.603c-.014.011-.025.025-.037.039a.788.788 0 0 0-.1.832.749.749 0 0 0 .68.437l1.824.014.003 2.902c0 .664.537 1.202 1.201 1.202m7.132 9.58a.749.749 0 0 0 1.126.002l4.182-4.215a.787.787 0 0 0 .134-.871.753.753 0 0 0-.683-.438l-1.826-.014-.003-2.904c0-.664-.538-1.202-1.202-1.202h-2.32a1.206 1.206 0 0 0-1.2 1.204l.005 2.902-1.824.014c-.294 0-.56.171-.683.437a.782.782 0 0 0 .116.852c.006.006.013.012.018.02z"/></svg>