<svg width="24" height="24" viewBox="0 0 24 24" fill="none" xmlns="http://www.w3.org/2000/svg">
<path d="M11.8264 2.0112C11.9776 2.0112 12.1261 2.03921 12.2661 2.09523C12.7003 2.2717 12.9664 2.69747 12.9608 3.20168L12.9636 6.85153C12.9748 6.87114 12.986 6.89075 13.0028 6.90756L19.8852 6.92716C20.5014 6.91876 20.9552 7.07282 21.2689 7.39495C21.5827 7.71708 21.7283 8.17086 21.7115 8.78711V14.8291C21.7199 15.2493 21.6807 15.8543 21.2745 16.2745C20.8684 16.6947 20.2661 16.7563 19.8488 16.7619H19.8404L13.1289 16.7591C13.0729 16.7675 13.0224 16.7843 12.972 16.8123L12.9776 20.3753V20.3781C12.972 21.2353 12.5631 21.5266 12.3194 21.6246C11.902 21.7927 11.4202 21.6386 10.9972 21.2045L2.33897 12.493C2.25214 12.409 2.00284 12.1625 2.00564 11.8039C2.00564 11.6527 2.05606 11.4258 2.28015 11.2101L10.7591 2.5042C11.0617 2.18487 11.451 2.0112 11.8264 2.0112Z" fill="#313235"/>
</svg>
