<svg xmlns="http://www.w3.org/2000/svg" width="24" height="24" fill="none"><path fill="#0B2739" d="M21.602 9.301a.748.748 0 0 0 .003-1.123l-4.213-4.18q-.017-.02-.04-.036a.79.79 0 0 0-.831-.1.75.75 0 0 0-.437.683l-.014 1.823-2.905.003c-.664 0-1.202.538-1.202 1.202v2.32c.003.663.54 1.2 1.205 1.2l2.902-.005.014 1.824c0 .293.17.56.437.683a.78.78 0 0 0 .851-.116l.02-.018zm-9.577 7.132v-2.32c0-.66-.538-1.198-1.205-1.198l-2.899.005-.014-1.82c0-.295-.17-.56-.437-.684a.78.78 0 0 0-.832.098l-.02.018-.019.018-4.21 4.154a.756.756 0 0 0 0 1.127l4.21 4.173q.017.02.04.037c.235.19.557.23.831.1a.75.75 0 0 0 .437-.68l.014-1.824 2.902-.003c.664 0 1.202-.537 1.202-1.201"/></svg>