<svg width="24" height="24" viewBox="0 0 24 24" fill="none" xmlns="http://www.w3.org/2000/svg">
<path fill-rule="evenodd" clip-rule="evenodd" d="M7.45941 11.9076H9.77593C10.4398 11.9076 10.9776 11.3698 10.9748 10.7059L10.972 7.80397L12.7927 7.78997C13.0863 7.78998 13.353 7.61942 13.4762 7.35299C13.6079 7.08128 13.5686 6.75915 13.3782 6.52386C13.3726 6.51686 13.3663 6.51055 13.36 6.50425C13.3537 6.49795 13.3474 6.49165 13.3418 6.48464L9.1877 2.27456C9.04484 2.1149 8.84036 2.02246 8.62467 2.02246C8.40899 2.02246 8.2045 2.1149 8.06165 2.27456L3.88798 6.48184C3.87397 6.49305 3.86277 6.50705 3.85157 6.52106L3.85156 6.52106C3.66109 6.75635 3.62187 7.07848 3.75072 7.35299C3.87397 7.6191 4.13728 7.78997 4.4314 7.78997L6.25492 7.80397L6.25773 10.7059C6.25773 11.3698 6.79554 11.9076 7.45941 11.9076ZM14.5911 21.4874C14.7339 21.6499 14.9384 21.7423 15.1541 21.7423C15.3698 21.7423 15.5742 21.6499 15.7171 21.4902L19.8992 17.2746C19.9132 17.2634 19.9244 17.2494 19.9356 17.2354L19.9356 17.2353C20.1261 17 20.1625 16.6779 20.0336 16.4034C19.9104 16.1373 19.6443 15.9664 19.3502 15.9664L17.5238 15.9524L17.521 13.0477C17.521 12.3838 16.9832 11.846 16.3193 11.846H14C13.3362 11.8488 12.7983 12.3866 12.7983 13.0505L12.8039 15.9524L10.9804 15.9664C10.6863 15.9664 10.4202 16.1373 10.2969 16.4034C10.1653 16.6779 10.2045 17 10.395 17.2353C10.4006 17.2423 10.4069 17.2486 10.4132 17.2549C10.4195 17.2613 10.4258 17.2676 10.4314 17.2746L14.5911 21.4874Z" fill="#313235"/>
</svg>
