<svg xmlns="http://www.w3.org/2000/svg" width="24" height="24" fill="none"><path fill="#313235" d="M2.16 12.028c0-.151.028-.3.084-.44.176-.434.602-.7 1.106-.694L7 10.89c.02-.011.04-.023.056-.04l.02-6.882c-.009-.616.145-1.07.467-1.383.323-.314.78-.463 1.393-.443h6.042c.42-.008 1.025.03 1.445.437.42.406.482 1.008.487 1.426l-.002 6.72a.452.452 0 0 0 .053.156l3.563-.005h.005c.858.005 1.149.414 1.247.658.168.418.014.9-.42 1.322l-8.712 8.659c-.084.086-.33.336-.689.333a.82.82 0 0 1-.594-.275l-8.708-8.479c-.32-.305-.493-.692-.493-1.067Z"/></svg>