<svg xmlns="http://www.w3.org/2000/svg" width="24" height="24" fill="none"><path fill="#313235" d="M3.535 10.133v-.022c.006-.395.193-.779.56-1.143l5.026-5.047.016-.017c.348-.32.71-.44 1.079-.362.336.073.605.303.823.521l.014.014 4.813 5.115 2.588-2.588c.33-.316.893-.409 1.339-.218.414.176.66.565.66 1.039v12.09c.02.28-.07.532-.254.717a.894.894 0 0 1-.717.252l-12.146-.006a1.009 1.009 0 0 1-.955-.613c-.204-.457-.112-1.05.216-1.407l.014-.016 2.378-2.378-4.905-4.79-.005-.006c-.362-.353-.544-.737-.544-1.135Z"/></svg>