<svg width="24" height="24" fill="none" xmlns="http://www.w3.org/2000/svg"><path fill-rule="evenodd" clip-rule="evenodd" d="m19.083 7.486-5.462-5.182a.56.56 0 0 0-.384-.154h-7.38c-.57 0-1.107.538-1.107 1.106v17.48c0 .588.518 1.106 1.106 1.106h12.297c.589 0 1.107-.518 1.107-1.107V7.892a.56.56 0 0 0-.177-.406ZM8.716 19.07c0 .308-.252.56-.56.56a.562.562 0 0 1-.56-.56V7.643c0-.308.252-.56.56-.56.308 0 .56.252.56.56v11.426Zm2.2.574c.307 0 .56-.252.56-.56v-7.056a.562.562 0 0 0-.56-.56.562.562 0 0 0-.561.56v7.056c0 .308.252.56.56.56Zm5.405-.966c-.252.218-.588.36-.988.42v.308a.42.42 0 1 1-.84 0v-.3a2.966 2.966 0 0 1-1.258-.49.432.432 0 0 1-.2-.37.42.42 0 0 1 .42-.414c.096.002.191.033.27.087.232.16.493.277.764.347v-1.577c-1.092-.233-1.333-.919-1.333-1.474 0-.834.51-1.417 1.333-1.565v-.308a.42.42 0 1 1 .84 0v.3c.365.05.701.162.976.33.207.126.238.294.238.383a.406.406 0 0 1-.406.407.529.529 0 0 1-.241-.068l-.006-.002a2.237 2.237 0 0 0-.56-.219v1.49c1.238.202 1.504.933 1.504 1.524.003.488-.177.9-.513 1.19ZM14.106 7.29c.383.384.93.588 1.582.588h2.182L13.517 3.75v1.958c0 .65.205 1.2.589 1.583Zm1.227 9.535v1.451c.42-.1.666-.372.666-.756 0-.28-.087-.552-.666-.695Zm-1.34-1.647c0 .232.07.479.5.63v-1.32c-.32.107-.5.348-.5.69Z" fill="#313235"/></svg>