<svg width="24" height="24" fill="none" xmlns="http://www.w3.org/2000/svg"><path d="M16.931 5.157c.589.583.874 1.392.874 2.482v10.86c0 1.098-.288 1.913-.882 2.493-.588.574-1.412.854-2.515.854h-5.51c-1.104 0-1.927-.28-2.516-.854-.593-.58-.882-1.398-.882-2.493V7.639c0-1.07.286-1.877.874-2.465.591-.588 1.409-.877 2.493-.882v-.446c0-.515.154-.93.454-1.23.305-.302.728-.456 1.255-.456h2.148c.535 0 .958.151 1.258.451.3.297.45.711.45 1.232v.446c1.099.008 1.917.291 2.5.868Zm-6.798-1.31v.445h3.048v-.446c0-.1-.011-.283-.084-.355-.076-.076-.26-.085-.364-.085h-2.149c-.129-.002-.291.012-.364.087-.073.07-.087.233-.087.353Zm6.412 3.792c0-.742-.165-1.266-.507-1.602-.342-.34-.874-.502-1.63-.502h-5.51c-.745 0-1.278.168-1.625.516-.344.341-.51.863-.51 1.59v10.86c0 .749.166 1.278.51 1.611.339.334.874.493 1.628.493h5.51c.753 0 1.285-.162 1.627-.493.342-.336.507-.865.507-1.613V7.639Zm-.748 9.941a.626.626 0 0 0-.63-.622H8.144c-.347 0-.63.28-.63.622v.294c0 1.219.941 2.21 2.095 2.21h4.093c1.154 0 2.095-.991 2.095-2.21v-.294Z" fill="#313235"/></svg>