<svg xmlns="http://www.w3.org/2000/svg" width="24" height="24" fill="none"><path fill="#0B2739" d="M17.277 5.152c.588.583.874 1.392.874 2.482v10.86c0 1.098-.289 1.913-.883 2.493-.588.574-1.412.854-2.515.854h-5.51c-1.104 0-1.927-.28-2.515-.854-.594-.58-.883-1.398-.883-2.493V7.634c0-1.07.286-1.877.874-2.465.591-.588 1.41-.877 2.493-.882V3.84c0-.515.154-.93.454-1.23.305-.302.728-.456 1.255-.456h2.148c.535 0 .958.151 1.258.451.3.297.451.711.451 1.232v.446c1.098.008 1.916.291 2.499.868m-6.799-1.31v.445h3.048V3.84c0-.1-.011-.283-.084-.355-.076-.076-.26-.085-.364-.085h-2.149c-.129-.002-.291.012-.364.087-.073.07-.087.233-.087.353m6.412 3.792c0-.742-.165-1.266-.507-1.602-.342-.34-.874-.502-1.63-.502h-5.51c-.745 0-1.277.168-1.625.516-.344.341-.51.862-.51 1.59v10.86c0 .749.166 1.278.51 1.611.34.334.874.493 1.628.493h5.51c.753 0 1.285-.162 1.627-.493.342-.336.507-.865.507-1.613zm-.748 9.941a.626.626 0 0 0-.63-.622H8.489c-.347 0-.63.28-.63.622v.294c0 1.219.941 2.21 2.095 2.21h4.093c1.154 0 2.095-.991 2.095-2.21z"/></svg>