<svg width="24" height="24" viewBox="0 0 24 24" fill="none" xmlns="http://www.w3.org/2000/svg">
<path fill-rule="evenodd" clip-rule="evenodd" d="M3.96496 2.22968L20.7325 20.6807C20.9538 20.9216 20.937 21.2969 20.6961 21.5182L20.682 21.5322C20.4271 21.7535 20.0406 21.7311 19.8137 21.4818L17.3935 18.8207H14.9706C14.9341 19.3641 14.7773 20.1765 14.2003 20.8095C13.6512 21.4118 12.8641 21.7171 11.8641 21.7171C10.8613 21.7171 10.0742 21.4118 9.52519 20.8095C8.94816 20.1765 8.79409 19.3641 8.76048 18.8207H3.45796C3.20026 18.8235 2.96776 18.6611 2.87813 18.4202C2.79129 18.1793 2.86692 17.9104 3.0686 17.7535C5.11902 16.112 4.92575 12.6975 4.92295 12.6611L4.92014 8.82632C4.92014 8.47058 4.94255 8.13165 4.97897 7.80391C4.99017 7.71429 5.00137 7.62747 5.01258 7.54065L5.01258 7.54061C5.01711 7.50666 5.02072 7.47225 5.02434 7.43775L5.02434 7.43774C5.02969 7.38686 5.03505 7.33578 5.04339 7.28571L5.0574 7.30251C5.14143 6.7619 5.28709 6.23249 5.49157 5.72548L3.04619 3.028C2.82491 2.78711 2.84171 2.41176 3.08261 2.19047L3.09661 2.17646C3.35432 1.95798 3.73807 1.98319 3.96496 2.22968ZM11.8613 20.5098C12.5 20.5098 12.9622 20.3445 13.2731 20.0084C13.598 19.6555 13.7017 19.1709 13.7325 18.8179H9.99297C10.021 19.1681 10.1218 19.6555 10.4468 20.0084C10.7577 20.3473 11.2199 20.5098 11.8613 20.5098ZM20.8501 18.4174C20.937 18.1765 20.8613 17.9076 20.6596 17.7479C18.6474 16.1414 18.7976 12.7914 18.8051 12.6244C18.8052 12.6219 18.8053 12.6201 18.8053 12.619V8.82352C18.8053 6.63305 18.147 4.92436 16.8501 3.74509C14.9173 1.98599 12.2507 2.04761 11.8641 2.06722C11.4888 2.04761 8.97897 1.99439 7.0658 3.58543L20.7241 18.6134C20.7773 18.5574 20.8221 18.4902 20.8501 18.4174Z" fill="#313235"/>
</svg>
