<svg xmlns="http://www.w3.org/2000/svg" width="24" height="24" fill="none" viewBox="0 0 24 24"><path fill="#000" d="M19 15.25a.8.8 0 0 1 .308.067.75.75 0 0 1 .442.683v2.25H22a.75.75 0 0 1 0 1.5h-2.25V22a.75.75 0 0 1-1.5 0v-2.25H16a.75.75 0 0 1 0-1.5h2.25V16a.75.75 0 0 1 .75-.75m-5.448 2.863c.18 0 .26.14.26.36v1.191c0 .286 0 .343-.26.472a3.5 3.5 0 0 1-4.503-1.253.502.502 0 0 1 .42-.77zM12 2.75A6.25 6.25 0 0 1 18.25 9v3.846c0 .228.01.457.007.691-.002.12-.093.214-.21.243-.945.235-1.297 1.154-1.297 2.22v.75a.25.25 0 0 1-.25.25H5.667a1.25 1.25 0 0 1-1.103-1.838l1.143-2.143a.4.4 0 0 0 .043-.173V9A6.25 6.25 0 0 1 12 2.75"/></svg>