<svg width="24" height="24" viewBox="0 0 24 24" fill="none" xmlns="http://www.w3.org/2000/svg">
<path fill-rule="evenodd" clip-rule="evenodd" d="M21.4678 17.7143C21.6639 17.874 21.7367 18.1485 21.6555 18.3922C21.5658 18.6331 21.3361 18.7899 21.0784 18.7871H15.8375C15.7983 19.3333 15.6415 20.1457 15.0756 20.7815C14.5322 21.3838 13.7507 21.6891 12.7703 21.6891C11.7787 21.6891 11 21.3838 10.4566 20.7815C9.88796 20.1457 9.73389 19.3333 9.70308 18.7871H4.46499C4.20728 18.7927 3.97759 18.6331 3.88796 18.3922C3.79832 18.1513 3.87115 17.8768 4.07283 17.7171C4.53501 17.3473 4.91877 16.8319 5.21849 16.2213C3.70588 15.6779 2 14.367 2 11.1345C2 6.93558 4.84314 5.986 6.42017 5.78712C7.95238 1.90196 12.3473 1.9804 12.7703 2.00561C13.1429 1.9888 15.7843 1.91597 17.7003 3.68628C18.9832 4.86835 19.6331 6.58264 19.6331 8.77872V12.5826L19.6326 12.5981C19.6235 12.8572 19.5086 16.1323 21.4678 17.7143ZM3.21849 11.1345C3.21849 14.7703 5.73669 15.3501 7.2381 15.3641H7.69468C9.20448 15.3417 11.7227 14.7535 11.7227 11.1653C11.7227 7.57143 9.18207 6.97479 7.66947 6.93558H7.19048C5.70308 6.94398 3.21849 7.50701 3.21849 11.1345ZM7.46499 14.4482C7.80112 14.451 8.07283 14.1793 8.07563 13.8459H8.07843V11.7423H10.1989C10.5322 11.7423 10.8039 11.4706 10.8067 11.1373C10.8067 10.8039 10.535 10.5322 10.1989 10.5322H8.07843V8.45659C8.07843 8.12325 7.80392 7.85435 7.46779 7.85435C7.13445 7.85154 6.86274 8.12325 6.85994 8.45659V10.5322H4.7423C4.40616 10.5322 4.13445 10.8011 4.13445 11.1345C4.13445 11.4706 4.40616 11.7395 4.7423 11.7395H6.85714V13.8459C6.85994 14.1793 7.13165 14.4482 7.46499 14.4482Z" fill="#313235"/>
</svg>
