<svg width="24" height="24" viewBox="0 0 24 24" fill="none" xmlns="http://www.w3.org/2000/svg">
<path fill-rule="evenodd" clip-rule="evenodd" d="M20.9551 9.63022C21.4201 9.66664 21.8571 9.86832 22.1904 10.196C22.5517 10.563 22.7562 11.056 22.7618 11.5714C22.759 12.07 22.5601 12.5294 22.1848 12.8991C22.0503 13.0308 21.1624 13.8235 20.1176 14.7535V17.9187C20.1176 19.0588 19.8039 19.9691 19.1876 20.6218C18.5321 21.3164 17.5826 21.6666 16.3697 21.6666H6.75069C5.53501 21.6666 4.58823 21.3164 3.93278 20.6218C3.31653 19.9691 3.00281 19.0588 3.00281 17.9187V5.80671C3.00281 4.66666 3.31653 3.70028 3.93278 3.04762C4.58823 2.35295 5.53781 2.00281 6.75069 2.00281H16.3697C17.5826 2.00281 18.5321 2.35295 19.1876 3.04762C19.8039 3.70028 20.1176 4.66666 20.1176 5.80671V9.76748C20.3837 9.65543 20.6694 9.60782 20.9551 9.63022ZM16.3697 6.20167H6.80671C6.49859 6.20167 6.24649 6.45377 6.24649 6.76189C6.24649 7.07001 6.49859 7.32211 6.80671 7.32211H16.3697C16.6778 7.32211 16.9299 7.07001 16.9299 6.76189C16.9299 6.45377 16.6778 6.20167 16.3697 6.20167ZM6.80671 9.60221H16.3697C16.6778 9.60221 16.9299 9.85431 16.9299 10.1624C16.9299 10.4706 16.6778 10.7227 16.3697 10.7227H6.80671C6.49859 10.7227 6.24649 10.4706 6.24649 10.1624C6.24649 9.85431 6.49859 9.60221 6.80671 9.60221ZM16.3417 13.0028H6.80671C6.49859 13.0028 6.24649 13.2549 6.24649 13.563C6.24649 13.8711 6.49859 14.1232 6.80671 14.1232H15.0728C15.4929 13.7535 15.9243 13.3725 16.3417 13.0028ZM12.9383 17.5237H6.80671C6.49859 17.5237 6.24649 17.2716 6.24649 16.9635C6.24649 16.6554 6.49859 16.4033 6.80671 16.4033H13.3137L12.9383 17.5237ZM15.7675 17.112C17.9411 15.1904 21.1708 12.3249 21.3977 12.1008C21.5573 11.9439 21.6386 11.7619 21.6386 11.563C21.6358 11.1316 21.3024 10.7759 20.8711 10.7451C20.6526 10.7311 20.4537 10.8095 20.2772 10.986C19.9825 11.2807 15.9175 14.8715 14.7657 15.889C14.7134 15.9352 14.6671 15.9761 14.6274 16.0111L14.07 17.6722L15.7675 17.112Z" fill="#313235"/>
</svg>
