<svg width="24" height="24" viewBox="0 0 24 24" fill="none" xmlns="http://www.w3.org/2000/svg">
<path fill-rule="evenodd" clip-rule="evenodd" d="M11.2606 5.27171V4.28851C11.2606 3.95518 10.9917 3.68347 10.6584 3.68347H6.61634C6.28301 3.68347 6.0141 3.95518 6.0141 4.28851V5.27171H11.2606ZM15.7788 16.0812C15.7788 16.7507 15.2382 17.2969 14.5715 17.2969C13.9049 17.2969 13.3642 16.7507 13.3642 16.0812C13.3642 15.4118 13.9049 14.8655 14.5715 14.8655C15.2382 14.8655 15.7788 15.4118 15.7788 16.0812ZM10.5351 17.2969C11.2018 17.2969 11.7424 16.7507 11.7424 16.0812C11.7424 15.4118 11.199 14.8655 10.5351 14.8655C9.86844 14.8655 9.32782 15.4118 9.32782 16.0812C9.32782 16.7507 9.87124 17.2969 10.5351 17.2969ZM7.70598 16.0812C7.70598 16.7507 7.16536 17.2969 6.49869 17.2969C5.83483 17.2969 5.29141 16.7507 5.29141 16.0812C5.29141 15.4118 5.83203 14.8655 6.49869 14.8655C7.16536 14.8655 7.70598 15.4118 7.70598 16.0812ZM21.1121 12.1176C21.4455 12.1176 21.7144 12.3894 21.7144 12.7227C21.7144 15.3838 21.0309 17.381 19.6836 18.6611C18.2886 19.9888 16.6359 20.084 16.1906 20.084C16.1432 20.084 16.1095 20.0825 16.0916 20.0817L16.0785 20.0812H3.66676C2.71158 20.0812 2.32782 19.2045 2.29981 18.6162L2.0281 12.7283C2.0197 12.563 2.08133 12.4006 2.19337 12.2801C2.30822 12.1597 2.46508 12.0924 2.62754 12.0924L3.97208 12.0952L3.99169 9.66947C3.97208 9.46498 4.0197 9.19047 4.20457 8.96638C4.34463 8.79552 4.61354 8.58823 5.10373 8.58263C5.18267 8.58091 5.33835 8.58025 5.54951 8.57935H5.54953H5.54955H5.54957C5.68309 8.57878 5.83879 8.57811 6.0113 8.57703V6.48179H11.2578V8.57983C12.4763 8.58263 13.4231 8.58263 13.5323 8.58263L13.54 8.58274L13.5498 8.58273C13.7359 8.58226 15.2919 8.57839 16.4063 9.65546C17.0393 10.2661 17.3866 11.098 17.4763 12.112L21.1121 12.1176ZM6.90485 16.0784C6.90485 15.8543 6.72278 15.6723 6.49869 15.6723C6.2774 15.6723 6.09533 15.8543 6.09533 16.0784C6.09533 16.3025 6.2746 16.4846 6.49869 16.4846C6.72278 16.4846 6.90485 16.3025 6.90485 16.0784ZM10.5351 15.6723C10.7592 15.6723 10.9385 15.8543 10.9385 16.0784C10.9385 16.3025 10.7564 16.4846 10.5351 16.4846C10.311 16.4846 10.1317 16.3025 10.1317 16.0784C10.1317 15.8543 10.3138 15.6723 10.5351 15.6723ZM14.9777 16.0784C14.9777 15.8543 14.7956 15.6723 14.5715 15.6723C14.3474 15.6723 14.1682 15.8543 14.1682 16.0784C14.1682 16.3025 14.3474 16.4846 14.5715 16.4846C14.7956 16.4846 14.9777 16.3025 14.9777 16.0784Z" fill="#313235"/>
</svg>
