<svg width="24" height="24" viewBox="0 0 24 24" fill="none" xmlns="http://www.w3.org/2000/svg">
<path fill-rule="evenodd" clip-rule="evenodd" d="M19.479 11.9524C19.8151 11.9524 20.0896 12.2269 20.0896 12.5686V14.2129C20.0924 14.5518 19.8179 14.8263 19.479 14.8291C19.14 14.8263 18.8683 14.5518 18.8711 14.2129V13.1849H17.647C17.647 13.2153 17.6477 13.2438 17.6484 13.2725L17.6484 13.2726C17.6491 13.3019 17.6498 13.3316 17.6498 13.3641C17.6498 14.9496 17.5238 16.3165 17.1512 17.4258L19.126 18.0336C19.3949 18.1176 19.5714 18.3753 19.5574 18.6555L19.4257 21.1316C19.4117 21.4566 19.1428 21.7115 18.8179 21.7143H18.7843C18.4453 21.6947 18.1876 21.4033 18.2073 21.0672L18.3137 19.0728L16.6274 18.5546C15.7955 19.8711 14.3473 20.605 11.8851 20.605C9.41175 20.605 7.96358 19.8655 7.13445 18.5434L5.40896 19.0728L5.5154 21.0672C5.53501 21.4061 5.27731 21.6947 4.93837 21.7143H4.90476C4.57983 21.7115 4.31372 21.4566 4.29692 21.1316L4.16526 18.6555C4.14846 18.3725 4.32773 18.1176 4.59664 18.0308L6.61064 17.4118C6.24369 16.3053 6.11764 14.9412 6.11764 13.3613L6.12044 13.1821H4.89916V14.2129C4.90196 14.5518 4.62745 14.8263 4.29131 14.8291C3.95238 14.8263 3.68067 14.5518 3.68067 14.2129V12.5686C3.68067 12.2269 3.95518 11.9524 4.29131 11.9524H6.16246C6.24089 10.6639 6.45658 9.39777 7.0252 8.38096L4.59664 7.63587C4.32773 7.55183 4.14846 7.29413 4.16526 7.01122L4.29692 4.53503C4.31372 4.1989 4.59944 3.93559 4.93557 3.9524C5.2717 3.97201 5.52941 4.26052 5.5126 4.59946L5.40616 6.59385L7.69187 7.29693C7.5322 6.91318 7.44817 6.4678 7.44817 5.94399C7.44817 4.10646 8.42296 3.34176 9.77029 3.03644C9.56581 2.79274 9.57982 2.4342 9.80111 2.20731C10.0336 1.96921 10.4146 1.96641 10.6526 2.1989L10.661 2.20731L11.3053 2.85997C11.6891 2.84596 12.07 2.84316 12.4538 2.85717L13.098 2.20451C13.3333 1.96641 13.7143 1.96361 13.9524 2.1989L13.958 2.20451C14.1792 2.4314 14.1905 2.78714 13.9888 3.02803C15.3445 3.32775 16.3305 4.09246 16.3305 5.93839C16.3305 6.4538 16.2493 6.89357 16.0952 7.27172L18.3109 6.59105L18.2044 4.59666C18.1848 4.25772 18.4425 3.96921 18.7815 3.9496C19.1036 3.92439 19.4061 4.1905 19.4229 4.53223L19.5546 7.00842C19.5714 7.29133 19.3921 7.54623 19.1232 7.63026L16.7339 8.36136C17.2241 9.2241 17.5042 10.3754 17.5994 11.944C17.605 11.9524 19.479 11.9524 19.479 11.9524ZM11.8935 4.08405C9.15125 4.08405 8.66946 4.68349 8.66946 5.94399C8.66946 6.27733 8.71147 6.52382 8.7759 6.7143C9.58822 6.31654 10.6134 6.11766 11.8851 6.11766C13.1624 6.11766 14.1877 6.31934 15 6.7199C15.0644 6.52943 15.1148 6.28853 15.1148 5.94399C15.1176 4.68349 14.6358 4.08405 11.8935 4.08405ZM11.2129 9.27452C11.2101 8.93558 11.4818 8.66107 11.8207 8.65827C12.1596 8.66107 12.4314 8.93558 12.4314 9.27452V17.2073C12.4314 17.5462 12.1568 17.8235 11.8207 17.8235C11.4846 17.8235 11.2129 17.5462 11.2129 17.2073V9.27452Z" fill="#313235"/>
</svg>
