<svg width="24" height="24" fill="none" xmlns="http://www.w3.org/2000/svg"><path d="M20.905 10.353c.308-1.241.6-2.412.753-3.02l-.01-.002a.562.562 0 0 0-.543-.697h-3.39V5.4a.164.164 0 0 0-.006-.037V5.36l-.011-.044-.012-.034-.016-.034v-.003a.307.307 0 0 0-.017-.03l-.006-.009-.008-.01a.155.155 0 0 1-.009-.012l-.005-.009-.013-.014a.253.253 0 0 0-.012-.014l-3.012-3.014a.253.253 0 0 0-.014-.012.253.253 0 0 1-.014-.013l-.008-.005a.155.155 0 0 1-.011-.009l-.011-.008-.009-.006a.19.19 0 0 0-.03-.02h-.003l-.034-.016-.034-.011-.044-.012s-.026-.005-.037-.005h-.011c-.009-.003-.02-.003-.028-.003h-4.006c-.479 0-.787.308-.787.784v3.838H7.098a365.1 365.1 0 0 0-.44-2.535C6.44 2.882 5.288 2 3.922 2H2.574a.562.562 0 0 0-.56.56c0 .308.252.56.56.56h1.35c.813 0 1.513.505 1.634 1.177.179 1.017 1.501 8.689 1.633 9.54.162 1.029.546 1.832 1.137 2.39.568.532 1.31.815 2.148.815h6.27c.828 0 1.531-.283 2.092-.84.532-.533.916-1.286 1.182-2.311.091-.357.349-1.39.637-2.546l.248-.992ZM16.098 7.19a.42.42 0 0 1-.42.42h-4.37a.42.42 0 1 1 0-.84h4.37a.42.42 0 0 1 .42.42Zm-3.975 12.843c0-.523-.154-.935-.459-1.23-.291-.28-.695-.422-1.193-.422-.499 0-.902.143-1.194.423-.305.294-.459.706-.459 1.23 0 .523.154.935.46 1.23.29.28.694.422 1.193.422.498 0 .902-.143 1.193-.423.305-.294.46-.706.46-1.23Zm2.617-1.23c.29-.28.691-.422 1.193-.422.501 0 .902.143 1.193.423.305.294.46.706.46 1.23 0 .523-.157.935-.46 1.23-.291.28-.695.422-1.193.422-.499 0-.902-.143-1.193-.423-.306-.294-.46-.706-.46-1.23 0-.523.154-.935.46-1.23Zm.938-9.282a.42.42 0 1 0 0-.84h-4.37a.42.42 0 1 0 0 .84h4.37Zm.42 1.493a.42.42 0 0 1-.42.42h-4.37a.42.42 0 1 1 0-.84h4.37a.42.42 0 0 1 .42.42Zm.784-5.146c0 2.468 0 6.306.003 6.905h-6.538V2.857h3.527v1.219c.003.532.106.935.317 1.235.179.252.532.555 1.193.557h1.498Zm-2.168-2.417 1.575 1.577h-.902c-.353 0-.67-.076-.673-.955V3.45Z" fill="#313235"/></svg>