<svg width="24" height="24" viewBox="0 0 24 24" fill="none" xmlns="http://www.w3.org/2000/svg">
<path fill-rule="evenodd" clip-rule="evenodd" d="M20.9048 10.3529C21.213 9.11202 21.5043 7.94115 21.6583 7.33331L21.6471 7.33051C21.6583 7.28569 21.6639 7.24087 21.6639 7.19326C21.6639 6.88513 21.4118 6.63303 21.1037 6.63303H17.7144V5.40055C17.7144 5.38934 17.7116 5.37534 17.7088 5.36413V5.36133L17.7004 5.32772L17.6976 5.31651L17.6892 5.2913L17.6864 5.2829L17.6696 5.24929V5.24648C17.664 5.23528 17.6584 5.22408 17.6528 5.21567L17.6471 5.20727C17.6443 5.20307 17.6415 5.19957 17.6387 5.19606C17.6359 5.19256 17.6331 5.18906 17.6303 5.18486L17.6247 5.17646C17.6205 5.17226 17.6163 5.16735 17.6121 5.16245C17.6079 5.15755 17.6037 5.15265 17.5995 5.14845L14.5883 2.13445C14.5841 2.13025 14.5792 2.12605 14.5743 2.12185C14.5694 2.11765 14.5645 2.11344 14.5603 2.10924L14.5519 2.10364C14.5477 2.10084 14.5442 2.09805 14.5407 2.09525L14.5407 2.09524L14.5407 2.09523C14.5372 2.09243 14.5337 2.08963 14.5295 2.08683L14.5211 2.08123C14.5099 2.07283 14.5015 2.06723 14.4903 2.06162H14.4875L14.4539 2.04482L14.4455 2.04202L14.4203 2.03361L14.4091 2.03081L14.3755 2.02241C14.3755 2.02241 14.3502 2.01681 14.339 2.01681H14.3278C14.3194 2.01401 14.3082 2.01401 14.2998 2.01401H10.2942C9.81525 2.01401 9.50713 2.32213 9.50713 2.79832V6.63583H7.09817C6.88809 5.40895 6.71722 4.42296 6.6584 4.10083C6.43991 2.88235 5.28866 2 3.92172 2H2.57438C2.26626 2 2.01416 2.2521 2.01416 2.56022C2.01416 2.86834 2.26626 3.12044 2.57438 3.12044H3.92452C4.73684 3.12044 5.43711 3.62464 5.55756 4.29691C5.73683 5.31371 7.05896 12.9859 7.19061 13.8375C7.35307 14.8655 7.73682 15.6694 8.32786 16.2268C8.89648 16.759 9.63878 17.042 10.4763 17.042H16.7452C17.5743 17.042 18.2774 16.759 18.8376 16.2016C19.3698 15.6694 19.7536 14.9159 20.0197 13.8907C20.1115 13.5342 20.369 12.5016 20.6575 11.3447L20.6576 11.3444L20.6577 11.3437L20.9048 10.3529ZM16.0981 7.19045C16.0981 7.42295 15.9105 7.61062 15.678 7.61062H11.3082C11.0757 7.61062 10.8881 7.42295 10.8881 7.19045C10.8881 6.95796 11.0757 6.77029 11.3082 6.77029H15.678C15.9105 6.77029 16.0981 6.95796 16.0981 7.19045ZM12.1234 20.0335C12.1234 19.5097 11.9693 19.098 11.664 18.8039C11.3727 18.5237 10.9693 18.3809 10.4707 18.3809C9.97211 18.3809 9.56875 18.5237 9.27744 18.8039C8.97211 19.098 8.81805 19.5097 8.81805 20.0335C8.81805 20.5573 8.97211 20.9691 9.27744 21.2632C9.56875 21.5433 9.97211 21.6862 10.4707 21.6862C10.9693 21.6862 11.3727 21.5433 11.664 21.2632C11.9693 20.9691 12.1234 20.5573 12.1234 20.0335ZM14.7396 18.8039C15.0309 18.5237 15.4315 18.3809 15.9329 18.3809C16.4343 18.3809 16.8348 18.5237 17.1261 18.8039C17.4315 19.098 17.5855 19.5097 17.5855 20.0335C17.5855 20.5573 17.4287 20.9691 17.1261 21.2632C16.8348 21.5433 16.4315 21.6862 15.9329 21.6862C15.4343 21.6862 15.0309 21.5433 14.7396 21.2632C14.4343 20.9691 14.2802 20.5573 14.2802 20.0335C14.2802 19.5097 14.4343 19.098 14.7396 18.8039ZM15.678 9.52098C15.9105 9.52098 16.0981 9.3333 16.0981 9.10081C16.0981 8.86832 15.9105 8.68064 15.678 8.68064H11.3082C11.0757 8.68064 10.8881 8.86832 10.8881 9.10081C10.8881 9.3333 11.0757 9.52098 11.3082 9.52098H15.678ZM16.0981 11.014C16.0981 11.2465 15.9105 11.4341 15.678 11.4341H11.3082C11.0757 11.4341 10.8881 11.2465 10.8881 11.014C10.8881 10.7815 11.0757 10.5938 11.3082 10.5938H15.678C15.9105 10.5938 16.0981 10.7815 16.0981 11.014ZM16.8824 5.86833H15.3839C14.7228 5.86553 14.3699 5.56301 14.1906 5.31091C13.9805 5.01119 13.8769 4.60783 13.8741 4.07562V2.85714H10.3475V12.7731H16.8852C16.8824 12.1736 16.8824 8.33611 16.8824 5.86833ZM14.7144 3.45097L16.2886 5.028H15.3867C15.0337 5.028 14.7172 4.95237 14.7144 4.07282V3.45097Z" fill="#313235"/>
</svg>
