<svg width="24" height="24" viewBox="0 0 24 24" fill="none" xmlns="http://www.w3.org/2000/svg">
<path fill-rule="evenodd" clip-rule="evenodd" d="M21.1036 6.63305C21.2773 6.63305 21.4397 6.71148 21.5462 6.84873C21.6526 6.98599 21.689 7.16246 21.647 7.33332C21.4929 7.94397 21.1988 9.11763 20.8907 10.3613C20.5154 11.8739 20.126 13.4341 20.0084 13.8907C19.7422 14.9131 19.3557 15.6694 18.8263 16.1988C18.2661 16.7563 17.563 17.0392 16.7339 17.0392H10.479C9.64145 17.0392 8.89636 16.7591 8.33053 16.224C7.7367 15.6638 7.35575 14.8599 7.19328 13.8347C7.05323 12.9439 5.70869 5.15406 5.55743 4.30813C5.43699 3.63866 4.73671 3.13166 3.92439 3.13166H2.57145C2.26333 3.13166 2.01123 2.87956 2.01123 2.57144C2.01123 2.26332 2.26333 2.01122 2.57145 2.01122H3.92159C5.29133 2.01122 6.43978 2.89357 6.65827 4.11205C6.70869 4.38376 6.88236 5.37815 7.09804 6.63305H10.3249V3.84874C10.3249 2.64427 10.9552 2.00562 12.1484 2.00562H15.8963C17.1064 2.00562 17.7198 2.62466 17.7198 3.84874V6.63305H21.1036ZM10.4706 18.3781C9.96918 18.3781 9.56862 18.521 9.27731 18.8011C8.97199 19.0952 8.81792 19.5069 8.81792 20.0308C8.81792 20.5546 8.97199 20.9663 9.27731 21.2604C9.56862 21.5405 9.97198 21.6834 10.4706 21.6834C10.9692 21.6834 11.3725 21.5405 11.6639 21.2604C11.9692 20.9663 12.1232 20.5546 12.1232 20.0308C12.1232 19.5069 11.9692 19.0952 11.6639 18.8011C11.3725 18.521 10.972 18.3781 10.4706 18.3781ZM15.9327 18.3781C15.4313 18.3781 15.0308 18.521 14.7395 18.8011C14.4341 19.0952 14.2801 19.5069 14.2801 20.0308C14.2801 20.5546 14.4341 20.9663 14.7395 21.2604C15.0308 21.5405 15.4341 21.6834 15.9327 21.6834C16.4313 21.6834 16.8347 21.5405 17.126 21.2604C17.4285 20.9663 17.5854 20.5546 17.5854 20.0308C17.5854 19.5069 17.4313 19.0952 17.126 18.8011C16.8347 18.521 16.4341 18.3781 15.9327 18.3781ZM11.1653 3.84874C11.1653 3.10645 11.423 2.84595 12.1484 2.84595H15.8991C16.6414 2.84595 16.8823 3.08964 16.8823 3.84874V11.2297C16.8823 11.9888 16.6442 12.2325 15.8991 12.2325H12.1484C11.4061 12.2325 11.1653 11.9888 11.1653 11.2297V3.84874ZM13.4342 10.7507C13.4342 10.3473 13.6638 10.1596 14.0224 10.1596C14.3809 10.1596 14.6134 10.3473 14.6106 10.7507C14.6106 10.9468 14.5574 11.0896 14.4622 11.1876C14.3585 11.2941 14.2073 11.3445 14.0224 11.3445C13.8375 11.3445 13.6863 11.2941 13.5826 11.1876C13.4874 11.0896 13.4342 10.944 13.4342 10.7507Z" fill="#313235"/>
</svg>
