<svg width="24" height="24" viewBox="0 0 24 24" fill="none" xmlns="http://www.w3.org/2000/svg">
<path fill-rule="evenodd" clip-rule="evenodd" d="M7.48177 5.62469C7.48177 5.41461 7.40053 5.28856 7.24647 5.06167C7.08121 4.82638 6.87673 4.53226 6.87392 4.10929C6.87118 3.68594 7.07617 3.40288 7.22942 3.19127L7.23807 3.17932C7.38653 2.97765 7.48457 2.84319 7.48177 2.56028C7.47896 2.26616 7.72266 2.02807 8.02798 2.02527H8.03358C8.3361 2.02527 8.5826 2.26056 8.5854 2.54908C8.591 3.17372 8.3193 3.54627 8.13722 3.79277C8.01398 3.95803 7.97476 4.01966 7.97756 4.10089C7.97756 4.20173 8.04199 4.29697 8.16243 4.47064L8.1638 4.4726C8.34296 4.73013 8.5882 5.08266 8.5854 5.62469C8.5854 5.91881 8.3389 6.1541 8.03358 6.1541C7.72826 6.1569 7.48177 5.91881 7.48177 5.62469ZM21.7142 13.395C21.7142 9.10367 18.3024 8.37818 16.9635 8.25773H16.9607V7.24933C16.9607 6.9104 16.675 6.63589 16.3249 6.63589H2.66106C2.31092 6.63589 2.02521 6.9104 2.02521 7.24933V17.8067C2.02521 19.0952 2.36694 20.0504 3.07282 20.7227C3.7731 21.3893 4.75629 21.7143 6.08401 21.7143H12.9019C14.2296 21.7143 15.2128 21.3893 15.9131 20.7227C16.4789 20.182 16.8011 19.4482 16.9103 18.5182C18.196 18.423 21.7142 17.7619 21.7142 13.395ZM20.4453 13.395C20.4453 16.521 18.252 17.1737 16.9635 17.2885V9.48462C18.2632 9.61067 20.4453 10.2829 20.4453 13.395ZM10.028 5.34458C10.0868 5.43422 10.1988 5.60508 10.2156 5.67231C10.2381 5.94682 10.479 6.1569 10.7619 6.1625C10.7689 6.1625 10.7752 6.1618 10.7815 6.1611C10.7878 6.1604 10.7941 6.1597 10.8011 6.1597C11.1064 6.1401 11.3333 5.888 11.3137 5.59388C11.2945 5.29281 11.1149 5.01849 10.9682 4.79443L10.9579 4.77876C10.9327 4.74234 10.9103 4.70873 10.8907 4.67792C10.9187 4.6359 10.9495 4.59108 10.9747 4.55467L10.979 4.54862C11.1379 4.32002 11.3331 4.03915 11.3165 3.70873C11.3025 3.41462 11.0308 3.18493 10.7423 3.17652C10.4397 3.19053 10.2072 3.41182 10.2212 3.70593C10.2094 3.74847 10.1418 3.84681 10.089 3.92362C10.0792 3.93786 10.0699 3.95137 10.0616 3.96364L10.0597 3.96641C9.91165 4.17864 9.74231 4.42146 9.75346 4.70593C9.75894 4.93304 9.88469 5.1254 10.0184 5.33C10.0216 5.33486 10.0248 5.33972 10.028 5.34458Z" fill="#313235"/>
</svg>
