<svg xmlns="http://www.w3.org/2000/svg" width="24" height="24" fill="none"><path fill="#000" d="M19.227 3.79H4.767a2.6 2.6 0 0 0-2.594 2.594v11.23a2.6 2.6 0 0 0 2.594 2.594h14.378a2.68 2.68 0 0 0 2.675-2.675V6.384a2.6 2.6 0 0 0-2.593-2.593M16.38 5.259c.484 0 .812.328.812.816a.8.8 0 0 1-.219.585.8.8 0 0 1-.593.23.8.8 0 0 1-.594-.23c-.104-.104-.219-.286-.219-.585 0-.488.328-.816.813-.816m-7.942.816a.8.8 0 0 1-.218.585.8.8 0 0 1-.594.23.8.8 0 0 1-.594-.23.8.8 0 0 1-.218-.585c0-.488.328-.816.812-.816s.812.328.812.816m5.435 10.851h-3.788a1 1 0 0 1-.033-.277c0-.364.095-.608.347-.91l1.154-1.407c.661-.798.939-1.19.939-1.683q0-.378-.236-.575c-.182-.156-.476-.226-.902-.226q-.585.007-1.162.112v-.92a6.2 6.2 0 0 1 1.38-.164c.852 0 1.415.19 1.78.554.277.278.425.661.425 1.154 0 .74-.33 1.303-1.269 2.328l-1.033 1.129h2.398zM3.487 8.715c-.277 0-.504-.182-.504-.406s.227-.406.504-.406h17.017c.277 0 .504.182.504.406s-.224.406-.501.406z"/></svg>