<svg width="24" height="24" fill="none" xmlns="http://www.w3.org/2000/svg"><path d="M19.227 3.79H4.767a2.599 2.599 0 0 0-2.594 2.594v11.23a2.599 2.599 0 0 0 2.594 2.594h14.378a2.68 2.68 0 0 0 2.675-2.675V6.384a2.599 2.599 0 0 0-2.593-2.593ZM16.38 5.259c.484 0 .812.328.812.816a.81.81 0 0 1-.219.585.8.8 0 0 1-.593.23.806.806 0 0 1-.594-.23c-.104-.104-.219-.286-.219-.585 0-.488.328-.816.813-.816Zm-7.942.816a.81.81 0 0 1-.218.585.801.801 0 0 1-.594.23.801.801 0 0 1-.594-.23.81.81 0 0 1-.218-.585c0-.488.328-.816.812-.816.485 0 .812.328.812.816Zm5.435 10.851h-3.788a.929.929 0 0 1-.033-.277c0-.364.095-.608.347-.91l1.154-1.407c.661-.798.939-1.19.939-1.683 0-.252-.079-.443-.236-.575-.182-.156-.476-.226-.902-.226-.389.005-.778.042-1.162.112v-.92a6.208 6.208 0 0 1 1.38-.164c.852 0 1.415.19 1.78.554.277.278.425.661.425 1.154 0 .74-.33 1.303-1.269 2.328l-1.033 1.129h2.398v.885ZM3.487 8.715c-.277 0-.504-.182-.504-.406 0-.224.227-.406.504-.406h17.017c.277 0 .504.182.504.406 0 .224-.224.406-.501.406H3.487Z" fill="#313235"/></svg>