<svg width="24" height="24" viewBox="0 0 24 24" fill="none" xmlns="http://www.w3.org/2000/svg">
<path fill-rule="evenodd" clip-rule="evenodd" d="M17.6092 21.8059C16.7437 21.8059 15.7521 21.593 14.6849 21.1673C12.5028 20.2961 10.1135 18.6014 7.77732 16.2653L7.77172 16.2597L7.69609 16.1869L7.69049 16.1813C5.35436 13.8451 3.65968 11.4586 2.78854 9.27372C1.9566 7.18409 1.937 5.39978 2.73251 4.24572L2.74932 4.22051L2.76052 4.20371C2.77828 4.18115 2.80155 4.15054 2.82945 4.11382L2.82946 4.1138L2.82946 4.1138C2.96442 3.93623 3.2078 3.61597 3.4608 3.37458C4.32915 2.54545 5.2143 2.13368 6.09385 2.15049C6.93979 2.16729 7.77732 2.58186 8.58124 3.38578C8.88376 3.6827 9.14987 4.01883 9.36555 4.38578C9.79693 5.08045 9.95379 5.79754 9.83054 6.51743C9.70729 7.23731 9.30673 7.94039 8.63446 8.61266C8.4776 8.76952 8.31234 8.91798 8.13867 9.05524C8.07424 9.17288 8.11346 9.54263 8.63446 10.3045C9.2367 11.1841 10.2451 12.2233 10.951 12.9292L11.035 13.0132C11.7409 13.7191 12.7801 14.7247 13.6597 15.3297C14.4188 15.8507 14.7913 15.89 14.909 15.8255C15.0462 15.6519 15.1919 15.4866 15.3515 15.3297C16.0238 14.6575 16.7269 14.2569 17.4468 14.1337C18.1667 14.0104 18.8837 14.1673 19.5784 14.5986C19.9454 14.8171 20.2787 15.0804 20.5784 15.3858C21.3823 16.1897 21.7969 17.0272 21.8137 17.8731C21.8305 18.7499 21.4188 19.6378 20.5868 20.5062C20.3082 20.7982 19.9246 21.0774 19.774 21.1869L19.7549 21.2009L19.7381 21.2121C19.7297 21.2177 19.7213 21.2233 19.7129 21.2317C19.1498 21.6126 18.4356 21.8059 17.6092 21.8059Z" fill="#313235"/>
</svg>
