<svg width="24" height="24" viewBox="0 0 24 24" fill="none" xmlns="http://www.w3.org/2000/svg">
<path fill-rule="evenodd" clip-rule="evenodd" d="M16.4802 3.55742C15.4102 2.52381 13.8556 2 11.864 2C10.0741 2 8.63155 2.42297 7.58113 3.2605C6.48029 4.13725 5.82484 5.44816 5.62876 7.15404C5.59514 7.46216 5.81923 7.73667 6.12735 7.77028C6.43268 7.80109 6.70438 7.58541 6.7408 7.28289C6.90046 5.87953 7.41867 4.82352 8.2758 4.13725C9.12174 3.46498 10.329 3.12044 11.8584 3.12044C13.5503 3.12044 14.8416 3.53781 15.6987 4.36414C16.5867 5.21567 17.0349 6.53779 17.0377 8.29129L17.0293 8.8347V8.84311C17.0293 9.02798 16.9985 9.27448 16.8584 9.41733C16.7464 9.52938 16.5587 9.5854 16.3066 9.5854H13.7772C13.6203 9.35291 13.3486 9.21845 12.9957 9.21845C12.4186 9.21845 12.0573 9.577 12.0573 10.1512C12.0573 10.4341 12.1413 10.6638 12.3038 10.8291C12.4663 10.9944 12.7072 11.084 12.9929 11.084C13.2786 11.084 13.5195 10.9972 13.6819 10.8291C13.7184 10.7927 13.752 10.7507 13.78 10.7058H16.2982C16.8584 10.7058 17.3094 10.5406 17.6371 10.2156C17.9648 9.89072 18.1413 9.41733 18.1413 8.85151L18.1497 8.30809V8.29969C18.1581 6.22407 17.5923 4.63024 16.4802 3.55742ZM20.3262 21.6946H3.39347C3.08535 21.6946 2.83325 21.4425 2.83325 21.1344V19.4957C2.83325 17.9299 3.32345 16.591 4.25341 15.6246C5.26461 14.5742 6.76601 14.0196 8.59233 14.0196H15.1273C16.9536 14.0196 18.455 14.5742 19.4662 15.6246C20.3962 16.591 20.8864 17.9299 20.8864 19.4957V21.1344C20.8864 21.4453 20.6371 21.6946 20.3262 21.6946ZM11.906 11.2212C12.1805 11.4986 12.5559 11.6442 12.9957 11.6442C13.4102 11.6442 13.7716 11.5126 14.0377 11.2633H15.6007C14.8892 12.3921 13.6231 12.9887 11.8696 12.9887C9.0321 12.9887 7.46909 11.4257 7.46909 8.58821C7.46909 5.75068 9.0321 4.18767 11.8696 4.18767C14.7071 4.18767 16.2702 5.75068 16.2702 8.58821C16.2702 8.73666 16.2646 8.88232 16.2562 9.02518H14.0265C13.7632 8.78708 13.4074 8.65823 12.9957 8.65823C12.5587 8.65823 12.189 8.80109 11.9144 9.0728C11.6399 9.3445 11.4971 9.71705 11.4971 10.1512C11.4971 10.5798 11.6399 10.9495 11.906 11.2212Z" fill="#313235"/>
</svg>
