<svg width="24" height="24" viewBox="0 0 24 24" fill="none" xmlns="http://www.w3.org/2000/svg">
<path fill-rule="evenodd" clip-rule="evenodd" d="M19.7002 8.74922C21.0111 10.0153 21.6778 11.8893 21.6778 14.315C21.6778 16.7408 21.0111 18.6091 19.6974 19.8724C18.4397 21.0825 16.619 21.6959 14.2885 21.6959C11.9579 21.6959 10.14 21.0825 8.88792 19.8696C8.21566 19.2226 7.71986 18.413 7.38933 17.4467C5.99438 17.189 4.84312 16.6427 3.97198 15.7996C2.66666 14.5419 2.0056 12.6708 2.0056 10.245C2.0056 7.81925 2.66666 5.94531 3.97198 4.68201C5.22687 3.46073 7.04479 2.84448 9.37531 2.84448C11.703 2.84448 13.5238 3.46073 14.7843 4.67921C15.4565 5.32626 15.9551 6.13578 16.2856 7.09376C17.6778 7.35707 18.8291 7.90608 19.7002 8.74922ZM10.0028 5.49713V4.10498C11.4621 4.18621 12.6442 4.56156 13.5266 5.23103L12.4453 6.31225C11.8011 5.85007 10.9832 5.57836 10.0028 5.49713ZM3.2661 9.63717H4.65545C4.73388 8.65678 4.99158 7.83326 5.44536 7.1862L4.37254 6.11057C3.71708 6.99572 3.34453 8.17499 3.2661 9.63717ZM9.38092 13.78C9.41489 13.78 9.44528 13.7771 9.47535 13.7743C9.50479 13.7715 9.53392 13.7688 9.56579 13.7688C9.82909 13.7604 10.0784 13.7436 10.3081 13.7072C10.4846 13.6792 10.6526 13.6428 10.8095 13.5979C11.3025 13.4579 11.7114 13.245 12.0224 12.9481C12.4957 12.4915 12.7759 11.8164 12.8739 10.9509C12.8991 10.7268 12.9187 10.4971 12.9187 10.2478C12.9187 10.0722 12.9034 9.90962 12.8883 9.74861L12.8823 9.68479C12.8347 9.15538 12.7198 8.7016 12.5378 8.31505C12.4005 8.01813 12.2352 7.74922 12.0168 7.53914C11.9047 7.4299 11.7675 7.34026 11.6302 7.25063C11.0672 6.88928 10.3165 6.69881 9.37251 6.69881C8.19885 6.69881 7.3109 6.98172 6.73667 7.53914C6.14284 8.11337 5.84032 9.02653 5.84032 10.2478C5.84032 11.4691 6.14004 12.3795 6.73387 12.9509C6.78015 12.9954 6.83321 13.032 6.88731 13.0692L6.88733 13.0693L6.88734 13.0693L6.88736 13.0693L6.88737 13.0693L6.88739 13.0693L6.8874 13.0693L6.88741 13.0693C6.91842 13.0907 6.94976 13.1123 6.98037 13.1358C7.3053 13.3766 7.70305 13.5503 8.17364 13.654C8.20352 13.6605 8.23277 13.6673 8.26203 13.6742C8.32054 13.6879 8.37905 13.7016 8.44255 13.7128C8.73946 13.7492 9.04198 13.78 9.38092 13.78ZM16.9383 17.0125C17.5321 16.4383 17.8347 15.5307 17.8347 14.3094C17.8347 13.0881 17.5321 12.1778 16.9355 11.6007C16.8848 11.5521 16.8238 11.5107 16.7642 11.4703L16.7642 11.4703L16.7641 11.4703L16.7641 11.4702L16.7639 11.4701C16.7413 11.4548 16.7189 11.4396 16.6974 11.4243C16.619 12.1946 16.4677 12.9005 16.2324 13.5363C15.9019 14.4299 15.4201 15.189 14.7815 15.8024C14.4397 16.1301 14.056 16.4102 13.633 16.6483C13.1512 16.9229 12.6162 17.1357 12.0308 17.2954C12.591 17.6567 13.3417 17.8472 14.2913 17.8472C15.4705 17.8472 16.3613 17.5671 16.9383 17.0125ZM19.2968 18.4523C19.9607 17.5755 20.3361 16.399 20.4173 14.9425H19.0279C18.9467 15.9173 18.6806 16.7352 18.224 17.3766L19.2968 18.4523ZM13.6806 19.0461V20.4354C12.2296 20.357 11.0532 19.9873 10.1736 19.3346L11.2549 18.2534C11.8963 18.7044 12.7114 18.9677 13.6806 19.0461ZM8.76467 14.9761V16.3682C8.67632 16.3627 8.58917 16.3548 8.50164 16.3468L8.50162 16.3468C8.45596 16.3426 8.4102 16.3385 8.36411 16.3346C7.89913 16.2898 7.46496 16.2142 7.0616 16.1049C6.36692 15.9201 5.76189 15.6427 5.25769 15.2674L6.33891 14.1834C6.52099 14.3094 6.71986 14.4215 6.92995 14.5195L6.92998 14.5195L6.93003 14.5195C6.94124 14.5251 6.95799 14.5335 6.97196 14.5391C7.33891 14.7044 7.73387 14.836 8.17924 14.9117C8.19823 14.9152 8.21621 14.9203 8.23425 14.9254L8.23427 14.9254C8.2588 14.9323 8.28345 14.9392 8.31089 14.9425C8.39493 14.9559 8.48804 14.9603 8.58115 14.9647L8.58122 14.9647C8.64326 14.9676 8.70531 14.9705 8.76467 14.9761ZM14.1148 10.8753C14.0896 11.189 14.042 11.4859 13.9775 11.766C13.8403 12.3542 13.619 12.8724 13.3109 13.3094L13.7759 13.7744L14.3837 14.385C14.535 14.1834 14.6722 13.9649 14.7927 13.7324C15.0027 13.329 15.1736 12.8865 15.2941 12.3907C15.4033 11.9313 15.4733 11.4355 15.5041 10.8977V10.8753H14.1148ZM16.6218 8.4439C17.3221 8.63437 17.9355 8.91448 18.4425 9.30104L17.3641 10.3795C17.1764 10.2478 16.9747 10.1302 16.7562 10.0293C16.745 9.4691 16.703 8.93969 16.6218 8.4439ZM10.3389 12.1133C10.6106 11.8276 10.7927 11.6035 10.9888 11.3122C10.9981 11.2982 11.0074 11.2845 11.0168 11.2708C11.0354 11.2435 11.0541 11.2161 11.0728 11.1862C11.182 11.0153 11.2661 10.8444 11.3501 10.6736C11.4593 10.4607 11.5434 10.2478 11.6078 10.0349C11.6188 9.99842 11.6323 9.96244 11.6458 9.92675C11.6634 9.88031 11.6807 9.83437 11.6918 9.78843C11.7927 9.36546 11.7479 8.97891 11.591 8.65678C11.5126 8.49712 11.4145 8.34586 11.2745 8.22541C11.0504 8.03494 10.7591 7.92569 10.4481 7.89208C10.4334 7.89061 10.4195 7.88759 10.4059 7.88464C10.3936 7.88199 10.3817 7.8794 10.3697 7.87807C10.0364 7.86127 9.69464 7.9453 9.38372 8.11617C9.07279 7.9425 8.73666 7.86127 8.39493 7.87807C8.05319 7.89488 7.73387 8.02093 7.49297 8.22821C7.07841 8.58395 6.92435 9.15538 7.0756 9.79123C7.17364 10.203 7.35852 10.6232 7.61062 11.0405C7.62602 11.0657 7.63933 11.0909 7.65263 11.1162C7.66594 11.1414 7.67924 11.1666 7.69465 11.1918C7.92714 11.5559 8.12322 11.7996 8.43414 12.1218C8.4353 12.1229 8.43886 12.126 8.44304 12.1296C8.44894 12.1347 8.45607 12.1409 8.45935 12.1442C8.50977 12.1946 8.62182 12.3038 8.72546 12.3795C8.85991 12.4747 9.01117 12.5419 9.14843 12.5727C9.20165 12.5867 9.26047 12.5951 9.30809 12.5979L9.38652 12.6007L9.44254 12.5979C9.50417 12.5923 9.56299 12.5839 9.6022 12.5727C9.61733 12.571 9.62943 12.5663 9.64153 12.5616C9.6496 12.5585 9.65767 12.5554 9.66663 12.5531C9.80108 12.5167 9.92993 12.4607 10.0448 12.3767C10.1568 12.2954 10.2913 12.161 10.3389 12.1133Z" fill="#313235"/>
</svg>
