<svg width="24" height="24" viewBox="0 0 24 24" fill="none" xmlns="http://www.w3.org/2000/svg">
<path fill-rule="evenodd" clip-rule="evenodd" d="M17.8192 9.91873C18.4102 10.4846 18.7155 11.3193 18.7296 12.3949C18.7296 12.3977 18.7296 12.4005 18.7324 12.4005V18.3361C18.7211 19.4117 18.413 20.2436 17.822 20.8122C17.2506 21.3585 16.4382 21.6358 15.4046 21.6358H7.82764C6.79123 21.6358 5.97891 21.3585 5.41028 20.8094C4.81925 20.2408 4.51953 19.4061 4.51953 18.3277L4.52233 12.675C4.51953 12.5266 4.51953 12.4677 4.51953 12.4425V12.4061C4.51953 11.3277 4.81925 10.493 5.41028 9.92433C5.79123 9.55739 6.27863 9.31369 6.86686 9.19044V6.46497C6.86686 4.00279 8.95929 2 11.5335 2H11.7184C14.2926 2 16.385 4.00279 16.385 6.46216V6.49578C16.3766 6.78149 16.1357 7.00558 15.85 6.99718C15.5643 6.98877 15.3402 6.74788 15.3486 6.46216C15.3486 4.57422 13.7184 3.03641 11.7184 3.03641H11.5335C9.53071 3.03641 7.90327 4.57422 7.90327 6.46216V9.09521H15.4018C16.4354 9.09521 17.2478 9.37252 17.8192 9.91873ZM11.6231 19.3221C11.836 19.3221 12.0069 19.2632 12.1245 19.1456C12.2338 19.0363 12.2954 18.8739 12.2926 18.6554C12.2926 18.2016 12.0293 17.9915 11.6231 17.9915C11.217 17.9915 10.9537 18.2016 10.9537 18.6554C10.9537 18.8739 11.0125 19.0363 11.1217 19.1456C11.2394 19.266 11.4103 19.3221 11.6231 19.3221ZM14.752 17.5041C14.5475 17.703 14.217 17.6974 14.0181 17.4929C13.5055 16.9635 12.7016 16.6946 11.6287 16.6946C10.5559 16.6946 9.7464 16.9635 9.2338 17.4957C9.03492 17.703 8.70719 17.7086 8.49991 17.5097C8.29262 17.3109 8.28702 16.9831 8.4859 16.7758C9.20298 16.0336 10.259 15.6554 11.6259 15.6554C12.9901 15.6554 14.0433 16.0307 14.7604 16.7674C14.9621 16.9747 14.9593 17.3025 14.752 17.5041ZM15.4495 15.2296C15.6483 15.4341 15.9789 15.4397 16.1833 15.2408C16.3878 15.042 16.3934 14.7114 16.1917 14.5069C15.1581 13.4425 13.6231 12.9019 11.6287 12.9019C9.62875 12.9019 8.08814 13.4453 7.05453 14.5182C6.85566 14.7254 6.86126 15.0532 7.06854 15.252C7.27582 15.4509 7.60355 15.4453 7.80243 15.238C8.63156 14.3753 9.92007 13.9383 11.6287 13.9383C13.3318 13.9383 14.6175 14.3725 15.4495 15.2296Z" fill="#313235"/>
</svg>
