<svg width="24" height="24" fill="none" xmlns="http://www.w3.org/2000/svg"><path fill-rule="evenodd" clip-rule="evenodd" d="M21.844 14.309c0-1.58-1.13-2.152-2.098-2.16v-.216l-.042-1.734c0-.087 0-.17-.012-.263-.137-2.135-.742-5.773-3.952-6.219-.063-.009-.11-.012-.167-.017l-.035-.002-.19-.017a8.178 8.178 0 0 0-1.014-.003h-1.387c.062-.143.101-.305.101-.498 0-.334-.092-.591-.274-.768-.177-.168-.432-.252-.757-.252s-.582.084-.756.252c-.185.174-.277.434-.277.768 0 .196.042.355.103.498H9.676a6.473 6.473 0 0 0-.53-.022c-3.89 0-4.723 2.725-4.89 5.843H2.753a.589.589 0 0 0-.594.585.59.59 0 0 0 .594.586h1.473l-.005 1.482c-.958.022-2.062.596-2.062 2.157 0 1.58 1.137 2.156 2.107 2.17h.165c.056 0 .14-.005.24-.017.553 2.04 1.771 3.737 4.471 3.737.185 0 .359-.008.49-.02h4.662l.092.005a5.967 5.967 0 0 0 .916-.005h.216a.569.569 0 0 0 .207-.039c2.118-.288 3.1-1.963 3.566-3.683.003 0 .006 0 .01.002h.004c.112.015.201.02.263.02h.165c.975-.014 2.11-.59 2.11-2.17ZM8.07 9.495c.16-1.737.761-3.123 1.803-4.12a5.37 5.37 0 0 1 .566-.465l.098-.065 3.2-.003.1.068c.196.145.39.297.563.465 1.042.997 1.642 2.383 1.804 4.12h-1.193c-.149-1.4-.628-2.504-1.437-3.277-.395-.378-.888-.661-1.437-.885-.55.221-1.045.507-1.44.885-.81.776-1.286 1.877-1.437 3.277h-1.19Zm10.484 1.58a.42.42 0 0 1-.011-.104l-.007-.154a4.872 4.872 0 0 1-.007-.148H5.41L5.4 12.776c.006.034.011.068.011.101.115 4.308 1.233 6.146 3.731 6.146.157 0 .306-.009.449-.017l4.739-.003c.364.023.642.023.933.003h.1a.878.878 0 0 1 .085-.014c1.263-.126 2.955-.9 3.095-6.112 0-.037.003-.07.011-.104v-1.7Zm-8.944 3.79c.328 0 .594-.26.594-.585v-1.833a.59.59 0 0 0-.594-.585.589.589 0 0 0-.594.585v1.832a.59.59 0 0 0 .594.586Zm4.258 1.574a.598.598 0 0 0-.84 0c-.34.336-.676.51-.995.515-.328 0-.678-.167-1.03-.518a.598.598 0 0 0-.841 0 .58.58 0 0 0 0 .83c.577.57 1.202.86 1.851.86h.037c.641-.009 1.252-.3 1.818-.858a.58.58 0 0 0 0-.829Zm.47-4.577a.59.59 0 0 1 .594.585v1.832a.589.589 0 0 1-.594.586.59.59 0 0 1-.593-.585v-1.833a.59.59 0 0 1 .593-.585Zm6.317 2.448c0 .653-.317.99-.938.998h-.13c-.01 0-.03 0-.053-.003a15.456 15.456 0 0 0 .159-1.5c.003-.042.007-.084.007-.128l.039-.353c.608.011.916.34.916.986Zm-16.247.998c.006 0 .014 0 .02-.003a15.351 15.351 0 0 1-.154-1.373 2.438 2.438 0 0 0-.013-.104 1.869 1.869 0 0 1-.018-.15l-.028-.345c-.574.025-.871.35-.871.98 0 .653.314.989.938.997l.126-.002Z" fill="#313235"/></svg>