<svg width="24" height="24" viewBox="0 0 24 24" fill="none" xmlns="http://www.w3.org/2000/svg">
<path fill-rule="evenodd" clip-rule="evenodd" d="M21.6862 17.7394C21.6694 16.8907 21.2548 16.0532 20.4509 15.2493C20.1512 14.9439 19.815 14.6806 19.4509 14.4621C18.7562 14.0308 18.0363 13.8739 17.3164 13.9972C16.5966 14.1204 15.8907 14.521 15.2184 15.1932C15.0615 15.3501 14.9131 15.5154 14.7758 15.689C14.6582 15.7563 14.2856 15.717 13.5237 15.1932C12.6442 14.5882 11.6022 13.5798 10.8963 12.8739L10.8123 12.7899C10.1064 12.084 9.09799 11.042 8.49295 10.1624C7.97194 9.40054 7.93273 9.02799 7.99715 8.91035C8.17082 8.77309 8.33889 8.62744 8.49295 8.46777C9.16521 7.79551 9.56857 7.08963 9.68902 6.36974C9.80947 5.64986 9.65821 4.93557 9.22684 4.2409C9.00835 3.87395 8.74505 3.53782 8.43973 3.2409C7.63581 2.43699 6.79828 2.01962 5.94954 2.00562H5.89912C5.03638 2.00562 4.16804 2.41738 3.3137 3.2325C3.00838 3.52382 2.71426 3.92998 2.61902 4.06443L2.60782 4.08124L2.59101 4.10645C1.7955 5.2605 1.8151 7.04761 2.64984 9.13724C3.52098 11.3221 5.21845 13.7142 7.55738 16.0532L7.56298 16.0588L7.63581 16.1316L7.64141 16.1372C9.98034 18.4761 12.3725 20.1736 14.5573 21.0448C15.6274 21.4705 16.619 21.6862 17.4845 21.6862C18.3108 21.6862 19.0251 21.4929 19.5881 21.1036C19.5965 21.098 19.6049 21.0924 19.6133 21.084L19.6302 21.0728C19.7646 20.9775 20.1708 20.6834 20.4621 20.3781C21.2884 19.5069 21.703 18.619 21.6862 17.7394ZM12.6022 11.7955C12.1848 11.8011 11.8403 11.4678 11.8347 11.0504C11.8347 10.9888 11.8403 10.9271 11.8543 10.8655L12.8235 6.33053C12.8823 6.05042 13.07 5.84313 13.3221 5.77311C13.5742 5.70308 13.8403 5.79271 14.0335 6.0056L14.703 6.74509L17.7338 4.14006C17.9187 3.96079 18.1736 3.87395 18.4285 3.89636C18.6918 3.91877 18.9327 4.05323 19.0895 4.26331L20.224 5.52661C20.4033 5.72829 20.4873 5.99439 20.4537 6.2605C20.4229 6.5098 20.2912 6.73669 20.0867 6.88515L17.0699 9.5406L17.731 10.2745C17.9271 10.4902 17.9831 10.7647 17.8851 11.0112C17.787 11.2577 17.5545 11.4173 17.266 11.4397L12.6666 11.7955H12.6022Z" fill="#313235"/>
</svg>
