<svg width="24" height="24" viewBox="0 0 24 24" fill="none" xmlns="http://www.w3.org/2000/svg">
<path d="M16.0631 5.54215C15.6149 5.53655 15.2508 5.89509 15.2452 6.34047L15.234 17.4301C15.234 19.3433 14.3208 20.234 12.3656 20.234C10.4077 20.234 9.4945 19.3433 9.4945 17.4301V5.43851C9.4945 4.25364 10.0099 3.74943 11.2228 3.74943C12.4357 3.74943 12.9511 4.25364 12.9511 5.44131L12.9763 16.7971C12.9763 17.1696 12.8979 17.2452 12.5169 17.2452C12.136 17.2452 12.0603 17.1696 12.0603 16.7971V6.39369C12.0547 5.94831 11.6906 5.58977 11.2424 5.59257C10.797 5.58697 10.4301 5.94551 10.4245 6.39089V16.7943C10.4245 18.0576 11.2256 18.8419 12.5197 18.8419C13.811 18.8419 14.6149 18.0576 14.6149 16.7943L14.5897 5.43851C14.5869 3.37969 13.3292 2.14999 11.2228 2.14999C9.11635 2.14999 7.85864 3.37969 7.85864 5.43851V17.4301C7.85864 20.2284 9.5001 21.8363 12.3656 21.8363C15.2284 21.8363 16.8698 20.2312 16.8698 17.4329L16.8811 6.34327C16.8755 5.89509 16.5113 5.53935 16.0631 5.54215Z" fill="#313235"/>
</svg>
