<svg width="24" height="24" fill="none" xmlns="http://www.w3.org/2000/svg"><path fill-rule="evenodd" clip-rule="evenodd" d="M17.773 3.591c.854 0 1.602.611 1.602 1.306V20.54c0 .709-.734 1.305-1.602 1.305H6.213c-.869 0-1.603-.6-1.603-1.305V4.894c0-.695.75-1.305 1.602-1.305h2.956c.47-.914 1.442-1.429 2.826-1.429 1.686 0 2.468.709 2.829 1.431h2.95Zm-3.914.748c-.078-.249-.316-1.003-1.865-1.003-1.672 0-1.925.838-1.958 1.57l-.006.346v.003c.011.266.028.65 1.964.65 1.938 0 1.952-.382 1.96-.61v-.323a2.405 2.405 0 0 0-.095-.633Zm-3.114.404a.55.55 0 0 0 .551.549h1.393a.553.553 0 0 0 .554-.55.553.553 0 0 0-.555-.548h-1.392a.55.55 0 0 0-.551.549Z" fill="#313235"/></svg>