<svg xmlns="http://www.w3.org/2000/svg" width="24" height="24" fill="none"><path fill="#0B2739" d="M20.057 15.281v1.849c1.277.255 1.767 1.308 1.784 2.23v.181c-.017 1.06-.655 2.3-2.417 2.3-1.762 0-2.392-1.232-2.4-2.286a.835.835 0 0 1-.003-.137l.002-.058c.017-.914.515-1.975 1.787-2.23v-1.233H5.186v1.224c1.28.264 1.778 1.317 1.795 2.239v.181c-.017 1.06-.664 2.3-2.417 2.3-1.762 0-2.392-1.232-2.41-2.286v-.195c.026-.914.516-1.967 1.785-2.23l-.008-1.84a.654.654 0 0 1 .185-.446.619.619 0 0 1 .44-.182h6.8c-.002-.013-.006-.026-.01-.04a.34.34 0 0 1-.015-.092v-.921l-3.571.017c-1.67 0-3.614-.928-3.614-3.56 0-2 1.082-2.86 1.961-3.233.177-3.446 2.933-4.678 5.308-4.678.667 0 3.922.157 4.983 2.978 1.888.204 3.757 1.389 3.757 4.201 0 3.143-2.345 4.252-4.345 4.252l-3.232.017v.93c0 .04-.01.077-.02.113l-.005.019h6.88c.34 0 .62.274.624.616m-14.322 4.1c-.009-.492-.224-1.083-1.163-1.083-.947 0-1.154.6-1.17 1.092v.149c.008.706.397 1.067 1.162 1.067.762 0 1.154-.37 1.17-1.084zm14.86.14s0-.14.002-.14c-.008-.484-.215-1.058-1.123-1.075h-.081c-.908.014-1.115.6-1.123 1.084v.149c0 .706.389 1.067 1.154 1.067.764 0 1.162-.37 1.17-1.084"/></svg>