<svg width="24" height="24" viewBox="0 0 24 24" fill="none" xmlns="http://www.w3.org/2000/svg">
<path fill-rule="evenodd" clip-rule="evenodd" d="M13.2464 6.22687C13.2632 3.50139 14.7618 2 17.4789 2C20.2099 2 21.7141 3.5126 21.7085 6.26049C21.7085 9.00837 20.2043 10.521 17.4733 10.521C17.0811 10.521 16.7198 10.4846 16.3808 10.4229L12.6161 14.7843C12.5321 14.8823 12.4313 14.9607 12.322 15.0252V18.8263L16.2884 20.5013C16.5517 20.6134 16.703 20.8991 16.6469 21.182C16.5909 21.4649 16.3444 21.6694 16.0559 21.6694L7.7254 21.6862C7.44249 21.6862 7.19879 21.4873 7.13717 21.21C7.07835 20.9299 7.2184 20.647 7.4761 20.5265L11.1175 18.8403V15.042C11.0139 14.9831 10.9159 14.9159 10.8318 14.8263L4.6806 8.3165C4.35007 7.96636 4.25763 7.44816 4.4453 7.00278C4.63578 6.5546 5.06995 6.26609 5.55174 6.26329L6.36126 6.26049L5.33886 5.22968C5.29404 5.18486 5.22961 5.15965 5.16519 5.15965H2.63019C2.29685 5.15965 2.02515 4.88794 2.02515 4.55181C2.02515 4.21568 2.29685 3.94397 2.63019 3.94397H5.16519C5.54894 3.94397 5.92429 4.09803 6.1932 4.36974L8.06434 6.25208L13.2464 6.22687ZM17.4789 9.30529C17.4561 9.30529 17.4355 9.30384 17.4152 9.30242C17.3956 9.30104 17.3763 9.29969 17.3556 9.29969L18.2604 8.25207C18.4621 8.03639 18.5853 7.74227 18.5853 7.42295C18.5853 6.75068 18.0475 6.20727 17.3808 6.20727H17.3696L14.4565 6.22127C14.4705 4.17366 15.4313 3.21568 17.4789 3.21568C19.5153 3.21568 20.5069 4.21288 20.5069 6.26329C20.5069 8.33891 19.5433 9.30529 17.4789 9.30529ZM16.3892 8.46496H6.49572L5.56295 7.47617L17.378 7.42015L16.4649 8.47896C16.4505 8.47896 16.4376 8.47528 16.425 8.47168C16.4131 8.46828 16.4015 8.46496 16.3892 8.46496Z" fill="#313235"/>
</svg>
