<svg width="24" height="24" fill="none" xmlns="http://www.w3.org/2000/svg"><path d="M20.258 4.522c.787 0 1.428.62 1.428 1.379v12.008c0 .759-.641 1.378-1.428 1.378H3.43C2.641 19.29 2 18.671 2 17.912V5.9c0-.76.641-1.379 1.431-1.379h16.827ZM4.63 6.195a.55.55 0 0 0-.56.535v.002c0 .297.25.538.557.538a.548.548 0 0 0 .56-.538.548.548 0 0 0-.557-.537Zm15.852 11.717V8.248H3.204v9.664c0 .117.101.215.225.215h16.829a.221.221 0 0 0 .224-.215ZM6.866 6.732a.548.548 0 0 0-.558-.537h-.003a.548.548 0 0 0-.557.537c0 .297.25.538.557.538a.548.548 0 0 0 .56-.538Zm1.12-.537h-.003a.55.55 0 0 0-.56.535v.002c0 .297.25.538.56.538a.548.548 0 0 0 .56-.538.548.548 0 0 0-.557-.537Zm.955 5.736a.528.528 0 0 0 .02-.748.579.579 0 0 0-.796-.036l-2.294 2.006a.53.53 0 0 0-.006.801L8.16 15.99a.576.576 0 0 0 .815-.048.53.53 0 0 0-.05-.745L7.08 13.556l1.84-1.608.01-.008a.12.12 0 0 0 .01-.009Zm6.538-.784 2.294 2.006c.115.1.182.246.185.397 0 .154-.067.3-.182.4l-2.294 2.043a.584.584 0 0 1-.384.146.57.57 0 0 1-.412-.174.53.53 0 0 1 .009-.748c.005-.006.014-.014.022-.02l1.843-1.641-1.84-1.605a.528.528 0 0 1-.059-.745l.01-.011a.582.582 0 0 1 .808-.048Zm-2.216.647a.534.534 0 0 0-.283-.717.57.57 0 0 0-.742.274l-1.86 4.003a.532.532 0 0 0 .283.715c.073.03.151.047.23.047a.564.564 0 0 0 .512-.32l1.86-4.002Z" fill="#313235"/></svg>