<svg width="24" height="24" viewBox="0 0 24 24" fill="none" xmlns="http://www.w3.org/2000/svg">
<path fill-rule="evenodd" clip-rule="evenodd" d="M21.6863 16.9061C21.6863 16.57 21.4174 16.2983 21.084 16.2983H12.4482V15.8165L18.7115 15.8137C19.6611 15.8137 20.395 15.5476 20.8964 15.0237C21.3809 14.5195 21.6246 13.7969 21.6246 12.8753V7.43831C21.6246 6.51954 21.3809 5.79966 20.8964 5.30106C20.3978 4.78845 19.6639 4.52515 18.7143 4.52515L7.2605 4.53075C6.31092 4.53075 5.57703 4.79125 5.07843 5.30666C4.59664 5.80246 4.35014 6.52515 4.35014 7.44391V10.5363L7.20448 9.25344C7.45938 9.14139 7.72269 9.08537 7.9972 9.08537C8.27171 9.08537 8.53781 9.14419 8.78711 9.25624L13.6471 11.4411C14.3613 11.7604 14.8011 12.4495 14.8011 13.2338C14.8011 14.0097 14.3473 14.7128 13.6471 15.0265L12.4566 15.5616L8.78991 17.2086C8.54342 17.3207 8.26891 17.3795 8 17.3795C7.72269 17.3795 7.45658 17.3235 7.20728 17.2086L3.64146 15.6036V16.7604C3.64146 17.3543 4.06162 17.8613 4.64146 17.9649C5.38935 18.0994 6.43697 18.3851 7.19047 18.9845C7.44538 19.1862 7.7479 19.287 8.05042 19.287C8.35294 19.287 8.65546 19.1862 8.91036 18.9845C9.66386 18.3851 10.7143 18.0994 11.4594 17.9649C11.7591 17.9117 12.014 17.7436 12.1933 17.5139H21.084C21.4174 17.5139 21.6863 17.2422 21.6863 16.9061ZM7.53501 16.4691C7.68347 16.5363 7.84033 16.57 8 16.57C8.15686 16.57 8.31652 16.5363 8.46218 16.4663L13.3221 14.2814C13.7339 14.0994 14 13.6848 14 13.231C14 12.7688 13.7395 12.3655 13.3221 12.1778L8.46218 9.99293C8.16807 9.86128 7.82913 9.86128 7.53501 9.99293L2.67507 12.1806C2.2577 12.3683 2 12.7716 2 13.231C2 13.6932 2.2605 14.0938 2.67787 14.2842L7.53501 16.4691Z" fill="#313235"/>
</svg>
