<svg width="24" height="24" viewBox="0 0 24 24" fill="none" xmlns="http://www.w3.org/2000/svg">
<path fill-rule="evenodd" clip-rule="evenodd" d="M10.3193 11.1989C8.91316 11.1989 7.80112 10.8095 7.014 10.0448C6.19608 9.2465 5.77871 8.08964 5.77871 6.60785C5.77871 5.12606 6.19328 3.96919 7.0112 3.16527C7.79832 2.39496 8.91036 2.00281 10.3165 2.00281C11.7227 2.00281 12.8375 2.39216 13.6274 3.16247C14.451 3.96639 14.8683 5.12325 14.8683 6.60505C14.8683 8.08684 14.451 9.2437 13.6274 10.0448C12.8403 10.8095 11.7255 11.1989 10.3193 11.1989ZM21.6863 13.7395C21.6863 13.0868 21.5098 12.577 21.1569 12.2297C20.7955 11.8712 20.2521 11.6891 19.5434 11.6863L10.507 11.6919C9.80392 11.6919 9.2633 11.874 8.89916 12.2325C8.54902 12.5826 8.36975 13.0896 8.36975 13.7451V17.8599C8.36975 18.5182 8.54902 19.028 8.89916 19.381C9.2661 19.7479 9.80672 19.9328 10.5098 19.9328L19.5462 19.9272C20.2521 19.9272 20.7927 19.7423 21.1569 19.3754C21.5098 19.0224 21.6863 18.5098 21.6863 17.8543V13.7395ZM21.5938 21.0952C21.5938 20.7675 21.3221 20.5014 20.9832 20.5014H9.18207C8.84594 20.5014 8.57143 20.7675 8.57143 21.0952C8.57143 21.423 8.84313 21.6891 9.18207 21.6891H20.9832C21.3193 21.6891 21.5938 21.423 21.5938 21.0952ZM8.13622 12.0756C8.13749 12.0738 8.13877 12.0719 8.14005 12.07V12.0756H8.13622ZM7.66386 13.7815C7.66386 13.1008 7.825 12.5313 8.13622 12.0756H7.42857C5.72549 12.0756 4.31653 12.5882 3.35574 13.563C2.46779 14.4594 2 15.6891 2 17.1176V18.4482C2 19.0252 2.48459 19.4958 3.08123 19.4958H8.06162C7.80112 19.0532 7.66386 18.521 7.66386 17.8964V13.7815Z" fill="#313235"/>
</svg>
