<svg width="24" height="24" viewBox="0 0 24 24" fill="none" xmlns="http://www.w3.org/2000/svg">
<path fill-rule="evenodd" clip-rule="evenodd" d="M21.6863 16.9062C21.6863 16.57 21.4174 16.2983 21.084 16.2983H12.4482V15.8165L18.7115 15.8137C19.6611 15.8137 20.395 15.5476 20.8964 15.0238C21.3809 14.5196 21.6246 13.7969 21.6246 12.8753V7.43837C21.6246 6.5196 21.3809 5.79972 20.8964 5.30112C20.3978 4.78851 19.6639 4.52521 18.7143 4.52521L7.2605 4.53081C6.31092 4.53081 5.57703 4.79131 5.07843 5.30672C4.59664 5.80252 4.35014 6.52521 4.35014 7.44397V10.5364L7.20448 9.2535C7.45938 9.14145 7.72269 9.08543 7.9972 9.08543C8.27171 9.08543 8.53781 9.14425 8.78711 9.2563L13.6471 11.4412C14.3613 11.7605 14.8011 12.4496 14.8011 13.2339C14.8011 14.0098 14.3473 14.7129 13.6471 15.0266L12.4566 15.5616L8.78991 17.2087C8.54342 17.3207 8.26891 17.3795 8 17.3795C7.72269 17.3795 7.45658 17.3235 7.20728 17.2087L3.64146 15.6036V16.7605C3.64146 17.3543 4.06162 17.8613 4.64146 17.965C5.38935 18.0994 6.43697 18.3851 7.19047 18.9846C7.44538 19.1863 7.7479 19.2871 8.05042 19.2871C8.35294 19.2871 8.65546 19.1863 8.91036 18.9846C9.66386 18.3851 10.7143 18.0994 11.4594 17.965C11.7591 17.9118 12.014 17.7437 12.1933 17.514H21.084C21.4174 17.514 21.6863 17.2423 21.6863 16.9062ZM7.53501 16.4692C7.68347 16.5364 7.84033 16.57 8 16.57C8.15686 16.57 8.31652 16.5364 8.46218 16.4664L13.3221 14.2815C13.7339 14.0994 14 13.6849 14 13.2311C14 12.7689 13.7395 12.3655 13.3221 12.1779L8.46218 9.99299C8.16807 9.86134 7.82913 9.86134 7.53501 9.99299L2.67507 12.1807C2.2577 12.3683 2 12.7717 2 13.2311C2 13.6933 2.2605 14.0938 2.67787 14.2843L7.53501 16.4692Z" fill="#313235"/>
</svg>
