<svg xmlns="http://www.w3.org/2000/svg" width="24" height="24" fill="none"><path fill="#0B2739" d="M20.205 7.404c0-.684-.513-1.235-1.146-1.235V6.16h-2.801v-.67c0-.109-.04-.212-.112-.29l-.63-.678a.86.86 0 0 0-.006-1.155l-.9-.969a.74.74 0 0 0-.54-.24.74.74 0 0 0-.54.24l-.55.591a.87.87 0 0 0 0 1.163l.9.966a.727.727 0 0 0 1.081 0l.014-.014.515.558v.498H8.51v-.498l.513-.552.01.011a.727.727 0 0 0 1.081 0l.9-.966a.87.87 0 0 0 0-1.163l-.546-.59a.74.74 0 0 0-.54-.242.74.74 0 0 0-.541.241l-.9.97a.85.85 0 0 0-.224.582.85.85 0 0 0 .222.58l-.625.672a.43.43 0 0 0-.112.291v.67H4.941c-.633 0-1.145.552-1.145 1.235v1.093c0 .683.512 1.235 1.145 1.235h.381v.003h13.356v-.003h.38c.634 0 1.146-.552 1.146-1.235zM5.322 10.387v.303c0 .68.513 1.235 1.143 1.235H7.62v.003h8.76v-.003h1.153c.633 0 1.146-.555 1.146-1.235v-.303zM7.62 17.87v-5.286h8.76v5.286zm11.037 1.89c0-.683-.513-1.235-1.146-1.235h-.835v.003H6.465c-.622.011-1.123.557-1.123 1.233v.857c0 .683.512 1.235 1.146 1.235H17.51c.633 0 1.145-.552 1.145-1.235z"/></svg>