<svg width="24" height="24" viewBox="0 0 24 24" fill="none" xmlns="http://www.w3.org/2000/svg">
<path fill-rule="evenodd" clip-rule="evenodd" d="M10.4832 2H17.668C19.8249 2 20.9173 3.10644 20.9145 5.2913V18.4005C20.9145 20.6162 19.8529 21.6918 17.6652 21.6918H10.4804C8.29269 21.6918 7.23107 20.6162 7.23107 18.4005V15.1652C6.78289 15.1456 6.42715 14.7759 6.42715 14.3249V13.7955C6.35152 13.7759 6.27869 13.7507 6.20586 13.7254L5.85012 14.0812C5.52239 14.4089 4.99018 14.4089 4.66245 14.0812L3.92856 13.3501C3.60083 13.0224 3.60083 12.4902 3.92856 12.1624L4.2843 11.8067C4.25909 11.7339 4.23668 11.661 4.21428 11.5854H3.69047C3.22548 11.5854 2.85014 11.21 2.85014 10.7451V9.70865C2.85014 9.24367 3.22548 8.86832 3.69047 8.86832H4.21708C4.23668 8.79269 4.26189 8.71986 4.2871 8.64703L3.93136 8.29129C3.60363 7.96356 3.60363 7.43135 3.93136 7.10362L4.66525 6.37253C4.99298 6.0448 5.52519 6.0448 5.85292 6.37253L6.20867 6.72827C6.28149 6.70306 6.35432 6.68065 6.42995 6.65824V6.13444C6.42715 5.68346 6.78289 5.31371 7.23387 5.2941V5.2913C7.23387 4.18486 7.49437 3.38095 8.02939 2.83193C8.5728 2.27171 9.37672 2 10.4832 2ZM10.668 10.7479H11.8837V9.71425H10.668C10.6176 9.22126 10.486 8.80669 10.2815 8.47056L11.0546 7.69745L10.3235 6.96637L9.55319 7.73667C9.20865 7.52939 8.79129 7.40334 8.3095 7.35012V6.13444H7.27309V7.35012C6.78849 7.40054 6.37393 7.52939 6.02939 7.73667L5.25909 6.96637L4.5252 7.69745L5.2927 8.46776C5.09102 8.80389 4.95937 9.21846 4.90615 9.71145H3.69047V10.7479H4.90615C4.95937 11.2409 5.08822 11.6554 5.2927 11.9916L4.5224 12.7619L5.25629 13.4929L6.02659 12.7226C6.37113 12.9299 6.78849 13.056 7.27029 13.1092V14.3249H8.3067V13.112C8.79129 13.0616 9.20585 12.9327 9.55039 12.7254L10.3207 13.4957L11.0518 12.7619L10.2815 11.9916C10.4832 11.6554 10.6148 11.2409 10.668 10.7479ZM14.7997 18.9719C14.6316 19.1428 14.3879 19.224 14.0854 19.224C13.7829 19.224 13.5392 19.1428 13.3711 18.9719C13.217 18.8151 13.1302 18.5798 13.1302 18.266C13.1302 17.6106 13.5056 17.3081 14.0854 17.3081C14.6652 17.3081 15.0406 17.6134 15.0406 18.266C15.0406 18.5826 14.9537 18.8151 14.7997 18.9719ZM6.33471 10.2297C6.33471 9.23526 6.86693 8.77588 7.78849 8.77588C8.71005 8.77588 9.24227 9.23526 9.24227 10.2297C9.24227 11.2241 8.71005 11.6834 7.78849 11.6834C6.86693 11.6834 6.33471 11.2241 6.33471 10.2297Z" fill="#313235"/>
</svg>
