<svg width="24" height="24" fill="none" xmlns="http://www.w3.org/2000/svg"><path d="M9.437 10.801a.562.562 0 0 0 .95.403c1.053-1.022 1.588-2.537 1.588-4.504 0-1.975-.535-3.493-1.597-4.515a.559.559 0 0 0-.793.014.559.559 0 0 0 .014.793c.832.804 1.255 2.05 1.255 3.708 0 1.653-.42 2.897-1.246 3.7a.553.553 0 0 0-.171.401ZM7.75 9.964a.562.562 0 0 1-.56-.56c0-.152.062-.298.171-.401.507-.493.765-1.266.765-2.3 0-1.034-.258-1.815-.77-2.305a.559.559 0 0 1-.014-.793.559.559 0 0 1 .792-.014c.737.712 1.112 1.76 1.112 3.112 0 1.35-.372 2.395-1.103 3.106a.58.58 0 0 1-.392.155ZM15.426 12.975c.255.243.619.37 1.078.37.46 0 .824-.127 1.079-.37.266-.258.4-.63.4-1.11 0-.479-.134-.854-.4-1.109-.255-.243-.62-.37-1.079-.37-.46 0-.823.124-1.078.37-.266.258-.4.63-.4 1.11 0 .479.134.854.4 1.109Z" fill="#313235"/><path fill-rule="evenodd" clip-rule="evenodd" d="M5 6.7v7.07c-.93.05-1.66.346-2.176.88-.547.568-.824 1.378-.824 2.403v1.373c0 1.028.277 1.834.824 2.403.568.591 1.397.888 2.467.888h13.112c1.07 0 1.9-.3 2.468-.888.546-.566.824-1.375.824-2.403v-1.373c0-1.025-.278-1.835-.824-2.4a2.56 2.56 0 0 0-.412-.345.699.699 0 0 0-.199-.406l-.42-.42c.05-.13.093-.264.126-.398h.633a.7.7 0 0 0 .7-.7v-1.037a.7.7 0 0 0-.7-.7h-.63a3.238 3.238 0 0 0-.126-.395l.42-.42a.7.7 0 0 0 0-.992l-.734-.734a.7.7 0 0 0-.991 0l-.42.42a3.28 3.28 0 0 0-.398-.125v-.63a.7.7 0 0 0-.7-.701h-1.037a.7.7 0 0 0-.7.7v.63a3.28 3.28 0 0 0-.398.127l-.42-.42a.7.7 0 0 0-.992 0l-.73.73a.7.7 0 0 0 0 .992l.42.42a3.28 3.28 0 0 0-.127.398h-.63a.7.7 0 0 0-.7.7v1.037a.7.7 0 0 0 .7.7h.63c.034.134.076.269.126.398l-.28.28H6.12V6.7a.562.562 0 0 0-.56-.56.562.562 0 0 0-.56.56Zm.266 12.118c.291 0 .532-.09.7-.258.166-.168.25-.4.25-.686 0-.583-.364-.944-.95-.944-.585 0-.95.361-.95.944 0 .288.082.518.25.686.168.168.409.258.7.258Zm3.44-.258c-.168.168-.41.258-.7.258-.292 0-.533-.09-.7-.258-.169-.168-.25-.398-.25-.686 0-.583.364-.944.95-.944.585 0 .95.361.95.944.002.286-.082.518-.25.686Zm10.328-3.431.733-.731-.77-.77c.137-.233.238-.482.3-.746.04-.165.07-.33.087-.498h1.215v-1.037h-1.218l-.017-.131a2.894 2.894 0 0 0-.37-1.112l.77-.77-.733-.732-.77.77a2.348 2.348 0 0 0-.465-.218 3.36 3.36 0 0 0-.78-.168V7.77H15.98v1.216a3.444 3.444 0 0 0-.672.134c-.199.062-.39.146-.569.253l-.77-.77-.731.73.33.33.446.44c-.064.11-.12.222-.168.34a3.336 3.336 0 0 0-.219.904h-1.215v1.037h1.215l.017.129c.042.33.135.65.28.95.028.055.06.108.09.162l-.77.77.73.731.768-.768.076.042c.11.062.224.113.342.157.266.098.543.16.826.188v1.216h1.036v-1.216c.376-.04.712-.126 1.003-.26.081-.037.16-.079.238-.127l.77.77Z" fill="#313235"/></svg>