<svg width="24" height="24" viewBox="0 0 24 24" fill="none" xmlns="http://www.w3.org/2000/svg">
<path d="M17.8711 11.9384C16.9439 11.9384 16.1064 12.2829 15.4481 12.8319L13.9243 11.4958C14.3641 10.8852 14.633 10.1401 14.633 9.33055C14.633 9.23532 14.6106 9.14568 14.605 9.05324L17.0055 8.34456C17.4369 9.05044 18.21 9.52663 19.098 9.52663C20.4565 9.52663 21.5573 8.42299 21.5573 7.06726C21.5573 5.71152 20.4537 4.60788 19.098 4.60788C17.7422 4.60788 16.6358 5.71152 16.6358 7.06726C16.6358 7.08967 16.6414 7.10647 16.6414 7.12888L14.3025 7.81795C13.7198 6.52384 12.4229 5.61348 10.9131 5.61348C9.88233 5.61348 8.95236 6.03365 8.27729 6.71152L6.7871 5.43421C6.96917 5.10648 7.08402 4.73113 7.08402 4.32777C7.08402 3.05607 6.04761 2.02246 4.77591 2.02246C3.5042 2.02246 2.47059 3.05607 2.47059 4.32777C2.47059 5.59948 3.5042 6.63309 4.77591 6.63309C5.18207 6.63309 5.55741 6.52104 5.88795 6.33617L7.55461 7.76193C7.33052 8.24092 7.19606 8.76753 7.19606 9.32775C7.19606 10.1205 7.45096 10.8544 7.87673 11.4594L6.521 12.7871C6.04201 12.3978 5.44257 12.1541 4.77871 12.1541C3.2493 12.1541 2.00281 13.3978 2.00281 14.9272C2.00281 16.4566 3.2465 17.7003 4.77871 17.7003C6.31091 17.7003 7.55461 16.4566 7.55461 14.9272C7.55461 14.5238 7.46217 14.1401 7.30531 13.7927L8.77589 12.3558C9.38093 12.7843 10.1176 13.042 10.9159 13.042C11.6974 13.042 12.4229 12.7983 13.0224 12.3838L14.619 13.7843C14.2717 14.3585 14.0616 15.0224 14.0616 15.7423C14.0616 16.2381 14.1624 16.7059 14.3361 17.14L12.675 17.9047C12.2521 17.4146 11.633 17.0952 10.9327 17.0952C9.66104 17.0952 8.62463 18.1288 8.62463 19.4005C8.62463 20.6694 9.66104 21.7059 10.9327 21.7059C12.2044 21.7059 13.2381 20.6722 13.2381 19.4005C13.2381 19.2829 13.2212 19.1708 13.2044 19.0588L15.0084 18.2297C15.7086 19.0336 16.7282 19.5546 17.8739 19.5546C19.9775 19.5546 21.689 17.8459 21.689 15.7451C21.6862 13.6499 19.9747 11.9384 17.8711 11.9384Z" fill="#313235"/>
</svg>
