<svg width="24" height="24" viewBox="0 0 24 24" fill="none" xmlns="http://www.w3.org/2000/svg">
<path d="M17.8712 11.9383C16.944 11.9383 16.1065 12.2829 15.4483 12.8319L13.9244 11.4957C14.3642 10.8851 14.6331 10.14 14.6331 9.33049C14.6331 9.23525 14.6107 9.14562 14.6051 9.05318L17.0057 8.3445C17.437 9.05038 18.2101 9.52657 19.0981 9.52657C20.4566 9.52657 21.5575 8.42293 21.5575 7.0672C21.5575 5.71146 20.4538 4.60782 19.0981 4.60782C17.7424 4.60782 16.6359 5.71146 16.6359 7.0672C16.6359 7.08961 16.6415 7.10641 16.6415 7.12882L14.3026 7.81789C13.72 6.52378 12.4231 5.61342 10.9133 5.61342C9.88245 5.61342 8.95248 6.03359 8.27741 6.71146L6.78722 5.43415C6.9693 5.10642 7.08414 4.73107 7.08414 4.32771C7.08414 3.05601 6.04773 2.0224 4.77603 2.0224C3.50432 2.0224 2.47071 3.05601 2.47071 4.32771C2.47071 5.59942 3.50432 6.63302 4.77603 6.63302C5.18219 6.63302 5.55754 6.52098 5.88807 6.33611L7.55473 7.76187C7.33064 8.24086 7.19619 8.76747 7.19619 9.32769C7.19619 10.1204 7.45109 10.8543 7.87685 11.4593L6.52112 12.7871C6.04213 12.3977 5.44269 12.154 4.77883 12.154C3.24942 12.154 2.00293 13.3977 2.00293 14.9271C2.00293 16.4565 3.24662 17.7002 4.77883 17.7002C6.31103 17.7002 7.55473 16.4565 7.55473 14.9271C7.55473 14.5237 7.46229 14.14 7.30543 13.7927L8.77601 12.3557C9.38105 12.7843 10.1177 13.042 10.9161 13.042C11.6976 13.042 12.4231 12.7983 13.0225 12.3837L14.6191 13.7843C14.2718 14.3585 14.0617 15.0223 14.0617 15.7422C14.0617 16.238 14.1625 16.7058 14.3362 17.14L12.6752 17.9047C12.2522 17.4145 11.6331 17.0952 10.9329 17.0952C9.66116 17.0952 8.62475 18.1288 8.62475 19.4005C8.62475 20.6694 9.66116 21.7058 10.9329 21.7058C12.2046 21.7058 13.2382 20.6722 13.2382 19.4005C13.2382 19.2828 13.2214 19.1708 13.2046 19.0587L15.0085 18.2296C15.7088 19.0335 16.7284 19.5545 17.874 19.5545C19.9776 19.5545 21.6891 17.8459 21.6891 15.745C21.6863 13.6498 19.9748 11.9383 17.8712 11.9383Z" fill="#313235"/>
</svg>
