<svg xmlns="http://www.w3.org/2000/svg" width="24" height="24" fill="none" viewBox="0 0 24 24"><path fill="#000" d="M16 3a2 2 0 0 1 2 2v3.325c0 .12-.084.221-.2.253a2.4 2.4 0 0 0-1.047.588 2.35 2.35 0 0 0-.321 2.922.29.29 0 0 1 0 .31 2.35 2.35 0 0 0 .32 2.92v.001c.29.29.671.483 1.049.588.115.032.199.134.199.253V19a2 2 0 0 1-2 2H8a2 2 0 0 1-2-2V5a2 2 0 0 1 2-2zm-1.748 5.465a3.75 3.75 0 0 0-4.582 1.81c-.16.309-.274.637-.343.975H9a.75.75 0 0 0 0 1.5h.327a3.75 3.75 0 0 0 1.509 2.313 3.75 3.75 0 0 0 3.416.472.75.75 0 0 0-.501-1.414 2.25 2.25 0 0 1-2.871-1.371H12a.75.75 0 0 0 0-1.5h-1.12a2.25 2.25 0 0 1 2.871-1.371.75.75 0 0 0 .501-1.414M19.712 7.47a.75.75 0 0 1 1.06 0 6.75 6.75 0 0 1 1.979 4.773c0 1.79-.713 3.507-1.979 4.773a.75.75 0 0 1-1.06-1.06 5.25 5.25 0 0 0 0-7.426.75.75 0 0 1 0-1.06"/><path fill="#000" d="M17.884 10.298a.75.75 0 0 1 1.06 0 2.75 2.75 0 0 1 0 3.89.743.743 0 0 1-1.205-.209l-.014-.029q-.014-.035-.025-.072-.01-.032-.018-.063-.006-.033-.01-.065-.004-.038-.007-.075 0-.034.004-.07.001-.034.006-.067t.014-.065q.01-.038.022-.075a1 1 0 0 1 .066-.134.8.8 0 0 1 .107-.137 1.25 1.25 0 0 0 0-1.768.745.745 0 0 1 0-1.061"/></svg>