<svg xmlns="http://www.w3.org/2000/svg" width="24" height="24" fill="none"><path fill="#000" d="M2.797 6.284a.597.597 0 0 1-.602-.591c0-.325.269-.588.602-.588h1.05q.104-.519.396-.984a3 3 0 0 1 1.88-1.3 3.02 3.02 0 0 1 2.265.382 2.91 2.91 0 0 1 1.328 1.84q.004.019.004.037 0 .012.002.025h11.504c.33 0 .602.266.602.59a.597.597 0 0 1-.602.592H9.725c-.07.35-.205.68-.398.98a2.97 2.97 0 0 1-1.88 1.3 3.02 3.02 0 0 1-2.266-.381 2.94 2.94 0 0 1-1.328-1.84.2.2 0 0 1-.006-.042l-.002-.02zm18.406 5.132c.334 0 .603.263.603.59a.595.595 0 0 1-.603.589h-1.08c-.278 1.342-1.494 2.356-2.945 2.356s-2.664-1.014-2.944-2.356H2.772a.597.597 0 0 1-.602-.591c0-.325.269-.591.602-.591h11.46c.28-1.342 1.493-2.356 2.944-2.356s2.666 1.014 2.944 2.356h1.083zm.6 6.887a.595.595 0 0 0-.602-.59l-8.782.002c-.28-1.341-1.493-2.355-2.944-2.355s-2.664 1.014-2.944 2.355H2.772a.595.595 0 0 0-.602.588c.003.331.274.594.602.592h3.76c.28 1.341 1.492 2.355 2.943 2.355s2.664-1.014 2.944-2.355h8.782a.597.597 0 0 0 .602-.591"/></svg>