<svg width="24" height="24" viewBox="0 0 24 24" fill="none" xmlns="http://www.w3.org/2000/svg">
<path fill-rule="evenodd" clip-rule="evenodd" d="M16.1163 21.6527H7.41597C7.10782 21.6527 6.81077 21.6046 6.5319 21.5157C5.61288 21.2649 4.88944 20.541 4.63933 19.6217C4.55066 19.3433 4.50281 19.0469 4.50281 18.7395V4.6639C4.50281 4.32729 4.56523 4.00024 4.68461 3.6958C4.92351 3.01974 5.44973 2.47998 6.11609 2.22373C6.43757 2.0879 6.78652 2.01685 7.14707 2.01685H16.1163C17.6233 2.01685 18.8529 3.24374 18.8529 4.75354V8.91881V18.9188C18.8529 20.4258 17.6261 21.6527 16.1163 21.6527ZM17.7129 8.34738V4.75354C17.7129 4.32636 17.5444 3.93816 17.2703 3.65184V8.34738H17.7129ZM17.2703 14.1821V9.49023H17.7129V14.1821H17.2703ZM17.2703 15.325V20.0205C17.5444 19.7342 17.7129 19.346 17.7129 18.9188V15.325H17.2703ZM10.9314 6.9132C12.4776 6.9132 13.3656 7.80116 13.3656 9.34738C13.3656 10.8936 12.4776 11.7731 10.9314 11.7731C9.38516 11.7731 8.50561 10.8908 8.50561 9.34738C8.50561 7.80396 9.39076 6.9132 10.9314 6.9132ZM13.9986 16.3698C14.2591 16.3698 14.472 16.1233 14.472 15.8208L14.4692 14.93C14.4692 14.2017 14.2647 13.5771 13.8754 13.1233C13.458 12.6359 12.8501 12.3782 12.1163 12.3782H9.75211C9.01821 12.3782 8.41037 12.6359 7.993 13.1233C7.60645 13.5799 7.39917 14.2045 7.39917 14.93V15.8208C7.39917 16.1233 7.61205 16.3698 7.87256 16.3698H13.9986Z" fill="#313235"/>
</svg>
