<svg width="24" height="24" viewBox="0 0 24 24" fill="none" xmlns="http://www.w3.org/2000/svg">
<path fill-rule="evenodd" clip-rule="evenodd" d="M2.62745 6.37394C2.29972 6.37674 2.02801 6.11344 2.02521 5.7829C2.02521 5.45797 2.29412 5.19467 2.62745 5.19467H3.67787C3.7479 4.85013 3.87675 4.5196 4.07283 4.21148C4.5014 3.54761 5.17927 3.07982 5.95238 2.91176C6.72829 2.73529 7.54342 2.87254 8.21848 3.29271C8.89916 3.71008 9.36975 4.36554 9.54622 5.13305C9.54957 5.14479 9.54991 5.15754 9.55025 5.17009C9.55047 5.17849 9.55069 5.18681 9.55182 5.19467H21.056C21.3865 5.19467 21.6583 5.46078 21.6583 5.78571C21.6583 6.11064 21.3893 6.37674 21.056 6.37674H9.55462C9.48459 6.72688 9.35014 7.05741 9.15686 7.35713C8.72829 8.0238 8.06162 8.48599 7.27731 8.65685C6.5014 8.83332 5.68627 8.69607 5.0112 8.2759C4.33893 7.86414 3.86274 7.20307 3.68347 6.43557C3.67962 6.42209 3.67842 6.40862 3.67713 6.39424C3.67655 6.38769 3.67595 6.38095 3.67507 6.37394H2.62745ZM21.0336 11.5056C21.3669 11.5056 21.6358 11.7689 21.6358 12.0966C21.6358 12.4216 21.3669 12.6849 21.0336 12.6849H19.9524C19.6751 14.0266 18.4594 15.0406 17.0084 15.0406C15.5574 15.0406 14.3445 14.0266 14.0644 12.6849H2.60224C2.27451 12.6877 2.0028 12.4244 2 12.0938C2 11.7689 2.26891 11.5028 2.60224 11.5028H14.0616C14.3417 10.1611 15.5546 9.14705 17.0056 9.14705C18.4566 9.14705 19.6723 10.1611 19.9496 11.5028H21.0336V11.5056ZM21.633 18.3935C21.633 18.0658 21.3641 17.8025 21.0308 17.8025L12.2493 17.8053C11.9692 16.4636 10.7563 15.4496 9.30532 15.4496C7.85434 15.4496 6.64145 16.4636 6.36134 17.8053H2.60224C2.26891 17.8053 2 18.0686 2 18.3935C2.0028 18.7241 2.27451 18.9874 2.60224 18.9846H6.36134C6.64145 20.3263 7.85434 21.3403 9.30532 21.3403C10.7563 21.3403 11.9692 20.3263 12.2493 18.9846H21.0308C21.3641 18.9846 21.633 18.7185 21.633 18.3935Z" fill="#313235"/>
</svg>
