<svg width="24" height="24" viewBox="0 0 24 24" fill="none" xmlns="http://www.w3.org/2000/svg">
<path fill-rule="evenodd" clip-rule="evenodd" d="M21.8335 18.146C21.8335 15.625 20.4301 14.4486 18.0071 14.4486C17.6374 14.4486 17.3013 14.4878 16.9763 14.5382L14.8643 12.5186L19.573 7.98639C20.5057 7.08723 21.0688 6.17687 21.2536 5.27771C21.4805 4.19928 21.136 3.17687 20.2536 2.33374C20.0099 2.09004 19.615 2.09004 19.3629 2.33374L11.8195 9.60823L4.20044 2.32534C3.95674 2.09004 3.55338 2.09004 3.30969 2.33374C2.42733 3.17687 2.0828 4.19928 2.30969 5.27771C2.49456 6.17687 3.06319 7.08723 3.99036 7.98639L8.74945 12.569L6.8671 14.3785C6.8587 14.3869 6.8545 14.3967 6.8503 14.4065C6.84609 14.4163 6.84189 14.4262 6.83349 14.4346C6.56458 14.4037 6.27887 14.3785 5.98475 14.3785C3.56179 14.3785 2.15002 15.5634 2.15002 18.076C2.15002 20.5886 3.56179 21.7651 5.98475 21.7651C8.39651 21.7651 9.81107 20.5886 9.81107 18.076C9.81107 17.3869 9.70183 16.8127 9.50015 16.3169C9.50015 16.3127 9.50225 16.3106 9.50435 16.3085C9.50645 16.3064 9.50855 16.3043 9.50855 16.3001C9.98754 15.3841 10.4665 14.7931 11.0212 14.443C11.1808 14.3449 11.3657 14.2637 11.5422 14.2077C12.7606 14.3673 13.7018 15.2525 14.3489 16.8575C14.248 17.2385 14.1724 17.6614 14.1724 18.146C14.1724 20.6586 15.5842 21.8351 18.0071 21.8351C20.4301 21.8351 21.8335 20.6614 21.8335 18.146ZM11.685 11.8351C11.685 12.1685 11.5029 12.3253 11.1892 12.3253C10.8615 12.3253 10.6794 12.1685 10.6822 11.8351C10.6822 11.513 10.8643 11.3561 11.1892 11.3561C11.5029 11.3561 11.685 11.513 11.685 11.8351ZM18.0071 20.6194C19.8307 20.6194 20.573 19.8967 20.573 18.146C20.573 16.3869 19.8335 15.6642 18.0071 15.6642C16.1836 15.6642 15.4329 16.3841 15.4329 18.146C15.4329 19.8967 16.1836 20.6194 18.0071 20.6194ZM7.72144 18.1264C7.72144 17.0228 7.1024 16.5046 6.04077 16.5046C4.97915 16.5046 4.3601 17.02 4.3601 18.1264C4.3601 19.2301 4.97915 19.7483 6.04077 19.7483C7.1024 19.7483 7.72144 19.2301 7.72144 18.1264ZM19.755 18.1656C19.755 17.062 19.1332 16.5438 18.0716 16.5438C17.0071 16.5438 16.3909 17.0592 16.3909 18.1656C16.3909 19.2721 17.0099 19.7875 18.0716 19.7875C19.136 19.7875 19.755 19.2693 19.755 18.1656ZM18.9147 18.1656C18.9147 18.7791 18.7102 18.9752 18.0716 18.9752C17.4357 18.9752 17.2312 18.7791 17.2312 18.1656C17.2312 17.5522 17.4357 17.3533 18.0716 17.3533C18.7102 17.3533 18.9147 17.5522 18.9147 18.1656ZM6.04077 18.9359C6.67663 18.9359 6.88111 18.7399 6.88111 18.1264C6.88111 17.513 6.67663 17.3141 6.04077 17.3141C5.40492 17.3141 5.20044 17.5102 5.20044 18.1264C5.20044 18.7399 5.40492 18.9359 6.04077 18.9359ZM5.98195 20.5466C7.80548 20.5466 8.54777 19.8323 8.54777 18.0732C8.54777 16.3141 7.80828 15.5914 5.98195 15.5914C4.15562 15.5914 3.40772 16.3113 3.40772 18.0732C3.40772 19.8323 4.15842 20.5466 5.98195 20.5466Z" fill="#313235"/>
</svg>
