<svg xmlns="http://www.w3.org/2000/svg" width="24" height="24" fill="none"><path fill="#0B2739" d="m21.84 9.768-.006 4.46c0 .314-.101.602-.266.84.17.241.271.532.271.849l-.005 4.46a1.46 1.46 0 0 1-1.451 1.464H3.6a1.462 1.462 0 0 1-1.45-1.465l.005-4.46c0-.313.098-.601.266-.84a1.46 1.46 0 0 1-.272-.848l.006-4.46c0-.313.098-.602.266-.84a1.46 1.46 0 0 1-.272-.849l.006-4.459c0-.807.65-1.465 1.448-1.465h16.782a1.46 1.46 0 0 1 1.448 1.465l-.006 4.46c0 .313-.1.602-.266.84.177.24.277.532.277.848ZM19.83 5.805c0-1.034-.61-1.65-1.63-1.65-1.023 0-1.63.616-1.63 1.65 0 1.033.607 1.65 1.63 1.65 1.022 0 1.63-.617 1.63-1.65Zm-.017 6.199c0-1.034-.61-1.65-1.63-1.65-1.022 0-1.633.616-1.633 1.65 0 1.033.61 1.65 1.633 1.65 1.022 0 1.63-.617 1.63-1.65Zm-1.63 7.851c1.022 0 1.63-.616 1.63-1.65 0-1.033-.61-1.65-1.63-1.65-1.022 0-1.633.617-1.633 1.65 0 1.034.61 1.65 1.633 1.65ZM11.19 5.802a.617.617 0 0 0-.614-.622H4.893a.617.617 0 0 0-.614.622c0 .345.275.622.614.622h5.683a.617.617 0 0 0 .614-.622Zm-.614 6.824a.617.617 0 0 0 .614-.622.617.617 0 0 0-.614-.622H4.893a.617.617 0 0 0-.614.622c0 .344.275.622.614.622h5.683Zm.614 5.619a.617.617 0 0 0-.614-.622H4.893a.617.617 0 0 0-.614.622c0 .341.275.621.614.621h5.683a.617.617 0 0 0 .614-.621Zm7.66-12.44c0-.485-.17-.658-.65-.658-.478 0-.649.17-.649.658 0 .484.17.658.65.658.479 0 .65-.174.65-.658Zm-.666 5.54c.479 0 .65.174.65.659 0 .484-.171.658-.65.658s-.65-.174-.65-.658c0-.485.171-.659.65-.659Zm.65 6.86c0-.484-.171-.658-.65-.658s-.65.174-.65.658c0 .485.171.659.65.659s.65-.174.65-.659Z"/></svg>