<svg width="24" height="24" viewBox="0 0 24 24" fill="none" xmlns="http://www.w3.org/2000/svg">
<path fill-rule="evenodd" clip-rule="evenodd" d="M8.53708 3.96174C8.53772 3.96356 8.53772 3.96561 8.53772 3.96919C8.7282 4.5154 9.42568 4.98879 10.5797 5.33893C11.7982 5.71428 13.4032 5.92156 15.1063 5.92156C16.8178 5.92156 18.4144 5.71428 19.6329 5.33893C20.7618 4.99999 21.4536 4.54341 21.6581 4.01961C21.6581 4.0112 21.6665 3.9944 21.6665 3.9944C21.5181 3.42297 20.8346 2.94118 19.6245 2.57423C18.4144 2.20169 16.8094 2.00281 15.0979 2.00281C13.3948 2.00281 11.7814 2.20169 10.5629 2.57423C9.41727 2.92157 8.7198 3.40336 8.52932 3.95238C8.53415 3.95721 8.53621 3.95926 8.53708 3.96174ZM15.1035 11.1876C13.4004 11.1876 11.7954 10.9888 10.5769 10.6218C10.3724 10.5546 10.1736 10.4818 9.9859 10.4061L10.5377 11.5266C11.8038 11.8851 13.4089 12.084 15.1035 12.084C16.8962 12.084 18.6021 11.8683 19.885 11.4706C20.6189 11.2549 21.2352 10.9467 21.7141 10.5826V14.5686C21.4901 14.9831 20.8318 15.5406 19.6301 15.9159C18.42 16.2801 16.815 16.4873 15.1035 16.4873C14.3388 16.4873 13.6049 16.4369 12.9131 16.3557L13.3808 17.3109C13.9411 17.3529 14.5181 17.3865 15.1007 17.3865C16.8934 17.3865 18.5993 17.1708 19.8822 16.7731C20.6161 16.5574 21.2323 16.2492 21.7113 15.8767V19.4229C21.7113 20.1204 21.0027 20.6946 19.6189 21.1176C18.4004 21.4817 16.787 21.6918 15.0923 21.6918C14.7954 21.6918 14.4985 21.6834 14.2044 21.6666C14.1399 21.6834 14.0643 21.6918 13.9915 21.6918H13.9663L2.98873 21.6498C2.74783 21.6246 2.50133 21.5573 2.32206 21.3753C2.13159 21.1988 2.02515 20.9523 2.02515 20.6946C2.02515 20.5377 2.05876 20.3697 2.13159 20.2296L7.66938 9.22407C7.77582 8.99998 7.9747 8.8179 8.2212 8.73387C8.28299 8.7147 8.34639 8.71011 8.41265 8.70531C8.43351 8.7038 8.45464 8.70227 8.4761 8.70026V5.31092C8.91867 5.66946 9.52932 5.97478 10.3192 6.20727C11.6189 6.60503 13.3164 6.82071 15.1007 6.82071C16.8878 6.82071 18.5909 6.60503 19.8822 6.20727C20.6553 5.97478 21.266 5.68346 21.7113 5.32772V9.27449C21.4872 9.69745 20.829 10.2549 19.6273 10.6274C18.4228 10.9888 16.8178 11.1876 15.1035 11.1876ZM8.80943 10.8151L11.4173 16.1064L11.9187 17.1288L13.5573 20.4425H13.1708L3.4341 20.4005L8.53772 10.2577L8.80943 10.8151ZM8.49011 17.9831C8.14837 17.9831 7.87386 17.703 7.87386 17.3613V13.3389C7.87386 12.9944 8.15117 12.717 8.49011 12.717C8.82904 12.717 9.10635 12.9972 9.10635 13.3389V17.3613C9.10635 17.7058 8.82904 17.9831 8.49011 17.9831ZM8.49011 18.3333C8.83744 18.3333 9.11755 18.6162 9.11755 18.9663C9.11755 19.3165 8.83744 19.5994 8.49011 19.5994C8.14277 19.5994 7.86266 19.3165 7.86266 18.9663C7.86266 18.6162 8.14277 18.3333 8.49011 18.3333Z" fill="#313235"/>
</svg>
