<svg width="24" height="24" viewBox="0 0 24 24" fill="none" xmlns="http://www.w3.org/2000/svg">
<path fill-rule="evenodd" clip-rule="evenodd" d="M21.028 10.493C20.7002 10.0672 18.1932 6.7395 17.7619 6.13726C17.4257 5.67228 16.8039 5.35855 16.2157 5.35855H5.29131C4.88235 5.35855 4.46498 5.54342 4.14285 5.86275C3.82072 6.18208 3.63865 6.60225 3.63865 7.01121V7.54342H2.56022C2.2521 7.54342 2 7.79552 2 8.10364C2 8.41177 2.2521 8.66387 2.56022 8.66387H3.63865V10.2745H2.56022C2.2521 10.2745 2 10.5266 2 10.8347C2 11.1429 2.2521 11.395 2.56022 11.395H3.63865V13.0056H2.56022C2.2521 13.0056 2 13.2577 2 13.5658C2 13.8739 2.2521 14.126 2.56022 14.126H3.63865V15.2045C3.63865 15.6134 3.82353 16.0308 4.14285 16.3529C4.46218 16.6751 4.88235 16.8571 5.29131 16.8571H5.43137C5.69747 17.9075 6.521 18.4958 7.7815 18.4958C9.042 18.4958 9.86553 17.9075 10.1288 16.8571H14.7143C14.9804 17.9075 15.8039 18.4958 17.0644 18.4958C18.3249 18.4958 19.1484 17.9075 19.4145 16.8571H20.0392C20.4481 16.8571 20.8655 16.6723 21.1876 16.3529C21.5098 16.0336 21.6918 15.6134 21.6918 15.2045V11.9272C21.689 11.3569 21.2761 10.8173 21.0295 10.4949L21.028 10.493ZM7.7787 17.3753C6.85153 17.3753 6.45657 16.9804 6.45657 16.0532C6.45657 15.126 6.85153 14.7311 7.7787 14.7311C8.70587 14.7311 9.10083 15.126 9.10083 16.0532C9.10083 16.9804 8.70587 17.3753 7.7787 17.3753ZM15.7395 16.0532C15.7395 16.9804 16.1344 17.3753 17.0616 17.3753C17.9888 17.3753 18.3837 16.9804 18.3837 16.0532C18.3837 15.126 17.9888 14.7311 17.0616 14.7311C16.1344 14.7311 15.7395 15.126 15.7395 16.0532Z" fill="#313235"/>
</svg>
