<svg xmlns="http://www.w3.org/2000/svg" width="24" height="24" fill="none"><path fill="#0B2739" d="M19.337 7.911a.6.6 0 0 1 .048.244v12.308c0 .745-.63 1.378-1.387 1.378H6.007c-.734 0-1.387-.641-1.387-1.378l.042-3.3-.042-7.977V3.533c0-.723.661-1.378 1.387-1.378h7.3c.232 0 .453.09.613.252l5.21 5.123a.85.85 0 0 1 .207.381m-5.694-4.087v1.76c0 .666.207 1.215.613 1.613s.98.608 1.667.608h1.767zM11.85 14.357a.913.913 0 0 0-.916.932v.017a.91.91 0 0 0 .924.925c.51 0 .908-.407.908-.942a.915.915 0 0 0-.916-.932m4.022.932a.915.915 0 0 0-.916-.932.913.913 0 0 0-.916.932v.017a.91.91 0 0 0 .925.925c.51 0 .907-.407.907-.942m-7.14-.932c-.51 0-.907.411-.907.932v.017c0 .518.397.925.916.925.518 0 .916-.407.916-.942a.917.917 0 0 0-.925-.932"/></svg>