<svg width="24" height="24" fill="none" xmlns="http://www.w3.org/2000/svg"><path d="M20.79 9.897a.8.8 0 0 1 .207.358.678.678 0 0 1 .048.247v10.08c0 .687-.583 1.264-1.278 1.264H9.824c-.695 0-1.28-.577-1.28-1.263V17.97H4.251C3.585 17.97 3 17.39 3 16.73V3.401c0-.672.574-1.241 1.255-1.241h9.563c.68 0 1.255.569 1.255 1.24v2.057h.804a.84.84 0 0 1 .588.238l4.325 4.202Zm-6.97-4.44V3.4l-9.568.017L4.25 16.73l4.294-.016V6.72c0-.672.597-1.263 1.28-1.263h3.998Zm4.216 4.633h1.152L16.28 7.264V8.4c0 .501.16.927.468 1.224.31.305.756.465 1.288.465Z" fill="#313235"/></svg>