<svg width="24" height="24" fill="none" xmlns="http://www.w3.org/2000/svg"><path d="M19.327 7.916a.62.62 0 0 1 .048.244v12.308c0 .745-.63 1.378-1.387 1.378H5.997c-.734 0-1.387-.641-1.387-1.378l.042-3.3-.042-7.977V3.538c0-.723.661-1.378 1.387-1.378h7.3a.86.86 0 0 1 .613.252l5.21 5.123a.846.846 0 0 1 .207.381ZM13.632 3.83v1.76c0 .666.208 1.215.614 1.613.406.398.98.608 1.667.608h1.767l-4.047-3.98ZM11.84 14.362a.913.913 0 0 0-.916.932v.017a.91.91 0 0 0 .924.925c.51 0 .908-.407.908-.942a.915.915 0 0 0-.916-.932Zm4.022.932a.915.915 0 0 0-.916-.932.913.913 0 0 0-.916.932v.017a.91.91 0 0 0 .925.925c.51 0 .907-.407.907-.942Zm-7.14-.932c-.51 0-.907.411-.907.932v.017c0 .518.397.925.916.925.518 0 .916-.407.916-.942a.917.917 0 0 0-.925-.932Z" fill="#313235"/></svg>