<svg width="24" height="24" viewBox="0 0 24 24" fill="none" xmlns="http://www.w3.org/2000/svg">
<path fill-rule="evenodd" clip-rule="evenodd" d="M19.3272 7.91628C19.358 7.9891 19.3748 8.07034 19.3748 8.15997V20.4681C19.3748 21.2132 18.7446 21.8462 17.9883 21.8462H5.99666C5.26277 21.8462 4.61011 21.2048 4.61011 20.4681L4.65212 17.1684L4.61011 9.19079V3.53812C4.61011 2.81544 5.27117 2.15997 5.99666 2.15997H13.2964C13.5289 2.15997 13.7502 2.24961 13.9098 2.41207L19.1199 7.53532C19.2236 7.64177 19.288 7.77062 19.3272 7.91628ZM13.6325 3.82944V5.58854C13.6325 6.25521 13.8398 6.80423 14.246 7.20199C14.6521 7.59975 15.2264 7.80983 15.9126 7.80983H17.6801L13.6325 3.82944ZM11.8398 14.3617C12.358 14.3617 12.7558 14.7762 12.7558 15.2944C12.7558 15.8294 12.358 16.2356 11.8482 16.2356C11.3216 16.2356 10.9238 15.8294 10.9238 15.3112V15.2944C10.9238 14.7734 11.3216 14.3617 11.8398 14.3617ZM15.8622 15.2944C15.8622 14.7762 15.4644 14.3617 14.9462 14.3617C14.428 14.3617 14.0303 14.7734 14.0303 15.2944V15.3112C14.0303 15.8294 14.428 16.2356 14.9546 16.2356C15.4644 16.2356 15.8622 15.8294 15.8622 15.2944ZM8.72215 14.3617C9.24876 14.3617 9.64652 14.7762 9.64652 15.2944C9.64652 15.8294 9.24876 16.2356 8.73056 16.2356C8.21235 16.2356 7.81459 15.8294 7.81459 15.3112V15.2944C7.81459 14.7734 8.21235 14.3617 8.72215 14.3617Z" fill="#313235"/>
</svg>
