<svg width="24" height="24" viewBox="0 0 24 24" fill="none" xmlns="http://www.w3.org/2000/svg">
<path fill-rule="evenodd" clip-rule="evenodd" d="M20.7899 9.89666C20.8892 9.99594 20.9607 10.1196 20.9972 10.2552C21.028 10.3336 21.0448 10.4177 21.0448 10.5017V20.5829C21.0448 21.2692 20.4622 21.8462 19.7675 21.8462H9.82352C9.12884 21.8462 8.54341 21.2692 8.54341 20.5829V17.9695H4.2521C3.58543 17.9695 3 17.3896 3 16.7314V3.40087C3 2.7286 3.57423 2.15997 4.2549 2.15997H13.8179C14.4986 2.15997 15.0728 2.7286 15.0728 3.40087V5.45689H15.8767C16.0952 5.45689 16.3081 5.54092 16.465 5.69498L20.7899 9.89666ZM13.8207 5.45689H9.82352C9.14005 5.45689 8.54341 6.04792 8.54341 6.72019V16.7146L4.2493 16.7314L4.2521 3.41767L13.8207 3.40087V5.45689ZM18.0364 10.0899C17.5042 10.0899 17.0588 9.93027 16.7479 9.62495C16.4398 9.32803 16.2801 8.90226 16.2801 8.40086V7.26361L19.1877 10.0899H18.0364Z" fill="#313235"/>
</svg>
