<svg width="24" height="24" viewBox="0 0 24 24" fill="none" xmlns="http://www.w3.org/2000/svg">
<path d="M11.8291 21.6694C11.549 21.6694 11.2829 21.5461 11.1037 21.3332L2.26336 12.1904C2.25216 12.1792 2.24375 12.168 2.23255 12.1568C1.98325 11.8515 1.93283 11.4313 2.1037 11.0784C2.26056 10.7366 2.59949 10.5181 2.97484 10.5181H6.9076V3.92154C6.9076 2.87112 7.76194 2.01678 8.81235 2.01678H14.8431C15.8964 2.01678 16.7479 2.86832 16.7479 3.92154L16.7451 10.5181H20.7059C21.0812 10.5181 21.4229 10.7366 21.5798 11.0784C21.7507 11.4313 21.7003 11.8543 21.451 12.1568C21.4426 12.168 21.4313 12.1792 21.4201 12.1904L12.5574 21.3332C12.3754 21.5461 12.1093 21.6694 11.8291 21.6694Z" fill="#313235"/>
</svg>
