<svg width="24" height="24" fill="none" xmlns="http://www.w3.org/2000/svg"><path fill-rule="evenodd" clip-rule="evenodd" d="M9.269 10.497c-.776-1.437-1.843-2.423-3.174-2.93a.54.54 0 0 1 .387-1.008c1.58.605 2.837 1.756 3.736 3.426l.093.176-.777.822a.453.453 0 0 1-.07-.11c-.064-.127-.128-.253-.195-.376Zm.266.493c-.745.567-1.753.86-3.003.86-2.913 0-4.518-1.59-4.518-4.479V4.483c0-.905.737-1.638 1.641-1.638h2.902c1.418 0 2.524.378 3.292 1.123.79.77 1.193 1.907 1.193 3.38 0 1.15-.25 2.09-.731 2.813.913 1.867 1.328 4.13 1.534 6.008.384-1.332.847-2.532 1.378-3.53-.386-.686-.585-1.549-.585-2.57 0-1.474.401-2.611 1.194-3.381.767-.745 1.874-1.124 3.291-1.124h2.905c.905 0 1.639.734 1.641 1.64v2.887c0 2.888-1.605 4.479-4.518 4.479-1.37 0-2.423-.33-3.185-1.011a.274.274 0 0 0 .059-.11c.008-.022.017-.046.028-.067 1.079-2.145 2.426-3.378 4.006-3.666a.538.538 0 1 0-.194-1.062c-1.862.339-3.422 1.68-4.64 3.984l.741.92c-.802 1.655-1.417 3.756-1.828 6.254a.54.54 0 0 1-1.068.116l-.004-.023-.005-.024c-.052-.324-.08-.802-.115-1.406l-.002-.037-.005-.093c-.107-1.878-.28-4.923-1.404-7.355Z" fill="#313235"/></svg>