<svg xmlns="http://www.w3.org/2000/svg" width="24" height="24" fill="none"><path fill="#313235" d="M9.694 11.395c-.744.567-1.752.86-3.002.86-2.913 0-4.518-1.59-4.518-4.479V4.888c0-.905.737-1.638 1.641-1.638h2.902c1.418 0 2.524.378 3.292 1.123.79.77 1.193 1.907 1.193 3.38 0 1.15-.25 2.09-.731 2.813.913 1.867 1.328 4.13 1.534 6.008.384-1.332.847-2.532 1.378-3.53-.386-.686-.584-1.549-.584-2.57 0-1.474.4-2.611 1.193-3.381.767-.745 1.874-1.124 3.291-1.124h2.905c.905 0 1.638.734 1.641 1.64v2.887c0 2.888-1.605 4.479-4.518 4.479-1.37 0-2.423-.33-3.185-1.011.029-.027.044-.068.059-.109.008-.023.017-.046.028-.068 1.078-2.145 2.426-3.378 4.006-3.666a.538.538 0 1 0-.194-1.062c-1.862.339-3.422 1.68-4.64 3.984l.741.92c-.802 1.655-1.417 3.756-1.829 6.255a.54.54 0 0 1-1.067.116l-.009-.048c-.052-.324-.08-.802-.115-1.406l-.002-.037-.005-.093c-.107-1.878-.28-4.923-1.405-7.355Zm-.265-.493c.067.123.131.25.196.376.019.04.04.077.069.11l.777-.822-.093-.176C9.48 8.72 8.221 7.569 6.642 6.964a.54.54 0 0 0-.387 1.008c1.33.507 2.398 1.493 3.174 2.93Z"/></svg>