<svg width="24" height="24" fill="none" xmlns="http://www.w3.org/2000/svg"><path d="m6.253 12.46 1.851-6.055a.603.603 0 0 1 .614-.434c.28.014.515.218.568.495l1.564 7.922.422-1.4a.61.61 0 0 1 .586-.44h1.022l1.037-3.57a.614.614 0 0 1 .571-.444h.017c.26 0 .493.168.577.414l1.246 3.602h3.239l-.614 1.236h2.275a.613.613 0 0 0 .613-.62.616.616 0 0 0-.613-.618s-1.584 0-1.656-.003c.537-1.155.953-2.296 1.216-3.415.51-2.162.092-3.96-1.177-5.061-.736-.64-1.74-1.023-2.823-1.079a5.056 5.056 0 0 0-.291-.008c-1.05 0-2.13.297-3.135.86-.375.213-.762.437-1.182.689a.284.284 0 0 1-.272-.003 50.12 50.12 0 0 0-1.179-.686c-1.008-.566-2.084-.86-3.137-.86-.095 0-.19.003-.289.008-1.084.056-2.087.44-2.823 1.079-1.266 1.1-1.687 2.899-1.177 5.061.255 1.093.659 2.205 1.174 3.33H2.768a.616.616 0 0 0-.613.62.617.617 0 0 0 .613.622h2.314c.286.529.591 1.05.916 1.557 1.053 1.658 1.896 2.728 3.339 4.232.14.146.627.648 1.042.947.344.255.74.434 1.16.53.12.028.24.047.364.053h.016l.05.001.057.002h.034c.036 0 .072 0 .109-.003h.017c.126-.009.249-.025.364-.053.4-.087.804-.27 1.16-.53.414-.302.901-.8 1.041-.947a.43.43 0 0 0 .034-.036c1.42-1.484 2.258-2.549 3.305-4.196.303-.479.591-.97.863-1.47h-3.059a.612.612 0 0 1-.577-.415l-.764-2.199-.628 2.165a.612.612 0 0 1-.588.446h-1.025l-1 3.316a.61.61 0 0 1-1.185-.059L8.56 9.103l-1.272 4.162a.615.615 0 0 1-.585.437h-1.62l-.607-1.241h1.776Zm13.319.085h-.003l-.002.005h.002l.003-.005Z" fill="#313235"/></svg>