<svg width="24" height="24" fill="none" xmlns="http://www.w3.org/2000/svg"><path d="M10.876 11.491c.065.045.93.636 1.896.006l8.855-5.393a1.687 1.687 0 0 0-1.505-1.061L3.902 5.04c-.485 0-.9.168-1.202.487-.168.177-.28.381-.359.583l8.535 5.381Zm10.543 6.793c.457-.55.418-1.222.393-1.437l.014-9.465-8.41 5.123a2.804 2.804 0 0 1-1.562.485 3.037 3.037 0 0 1-1.659-.51L2.17 7.42v9.468c0 .68.196 1.213.577 1.585.49.476 1.09.482 1.151.48h1.053c2.015.004 6.486.01 10.023.01 2.364 0 4.311-.002 4.83-.01.887-.018 1.369-.373 1.615-.67Z" fill="#313235"/></svg>