<svg width="24" height="24" viewBox="0 0 24 24" fill="none" xmlns="http://www.w3.org/2000/svg">
<path fill-rule="evenodd" clip-rule="evenodd" d="M10.866 11.471C10.9304 11.5158 11.796 12.1068 12.7624 11.4766L21.6167 6.08444C21.2526 5.2245 20.4794 5.02562 20.1125 5.02282L3.89124 5.02002C3.40665 5.02002 2.99209 5.18809 2.68957 5.50741C2.5215 5.68388 2.40946 5.88836 2.33102 6.09005L10.866 11.471ZM21.4094 18.2637C21.866 17.7147 21.8268 17.0424 21.8016 16.8267L21.8156 7.36175L13.4066 12.485C12.852 12.8491 12.3142 12.9696 11.8436 12.9696C10.9052 12.9696 10.2274 12.4906 10.1853 12.4598L2.16016 7.40097V16.8687C2.16016 17.5494 2.35623 18.0816 2.73719 18.4542C3.22738 18.9304 3.82682 18.936 3.88844 18.9332C3.97557 18.9332 4.35411 18.9337 4.94057 18.9346C6.95609 18.9376 11.4273 18.9444 14.9641 18.9444C17.3282 18.9444 19.275 18.9416 19.7932 18.9332C20.6811 18.9163 21.1629 18.5606 21.4094 18.2637Z" fill="#313235"/>
</svg>
