<svg width="24" height="24" viewBox="0 0 24 24" fill="none" xmlns="http://www.w3.org/2000/svg">
<path fill-rule="evenodd" clip-rule="evenodd" d="M10.8659 11.471C10.9303 11.5158 11.7958 12.1068 12.7622 11.4766L21.6165 6.08444C21.2524 5.2245 20.4793 5.02562 20.1123 5.02282L3.89109 5.02002C3.4065 5.02002 2.99193 5.18809 2.68941 5.50741C2.52134 5.68388 2.4093 5.88836 2.33087 6.09005L10.8659 11.471ZM21.4093 18.2637C21.8658 17.7147 21.8266 17.0424 21.8014 16.8267L21.8154 7.36175L13.4065 12.485C12.8519 12.8491 12.314 12.9696 11.8435 12.9696C10.9051 12.9696 10.2272 12.4906 10.1852 12.4598L2.16 7.40097V16.8687C2.16 17.5494 2.35608 18.0816 2.73703 18.4542C3.22722 18.9304 3.82666 18.936 3.88829 18.9332C3.97541 18.9332 4.35396 18.9337 4.94041 18.9346C6.95593 18.9376 11.4272 18.9444 14.9639 18.9444C17.328 18.9444 19.2748 18.9416 19.793 18.9332C20.681 18.9163 21.1628 18.5606 21.4093 18.2637Z" fill="#313235"/>
</svg>
