<svg width="24" height="24" viewBox="0 0 24 24" fill="none" xmlns="http://www.w3.org/2000/svg">
<path fill-rule="evenodd" clip-rule="evenodd" d="M21.6863 7.88515C21.6779 7.79552 21.6611 7.71989 21.6527 7.70308C21.6443 7.69468 21.6359 7.67787 21.6415 7.67507C21.6382 7.66865 21.6363 7.66346 21.6346 7.65902C21.6318 7.65184 21.6298 7.64665 21.6246 7.64145C21.5994 7.58263 21.5574 7.5154 21.4846 7.44257L16.5154 2.61064L16.098 2.19888H16.0896C16.0392 2.14846 15.9496 2.07563 15.8936 2.05882H15.8768C15.8768 2.05042 15.8683 2.05042 15.8599 2.05042C15.7759 2.01681 15.6863 2 15.6134 2H8.06723C7.42858 2 6.84874 2.57703 6.84874 3.21008V8.03361L2.11765 17.3978C2.04482 17.5462 2.00281 17.7087 2.00281 17.8823C2.01121 18.4258 2.45379 18.8627 2.986 18.8627H2.9944L6.84874 18.8711V20.4846C6.84874 21.126 7.42017 21.6863 8.06723 21.6863H20.4594C21.1204 21.6863 21.6863 21.1344 21.6863 20.4846V7.88515ZM20.6555 7.77871H18.3053C17.5434 7.77871 16.8964 7.53781 16.4398 7.09804C15.9916 6.65266 15.7451 6.03361 15.7451 5.30252V3.0056L20.6555 7.77871ZM9.02521 14.8683C8.68628 14.8683 8.41177 14.591 8.41177 14.2521V9.77871C8.41177 9.43697 8.68628 9.16246 9.02521 9.16246C9.36415 9.16246 9.63866 9.43977 9.63866 9.77871V14.2521C9.63866 14.5938 9.36415 14.8683 9.02521 14.8683ZM9.03082 16.4762C8.67788 16.4762 8.38936 16.1877 8.38936 15.8319C8.38936 15.4762 8.67507 15.1877 9.03082 15.1877C9.38376 15.1877 9.67227 15.4762 9.67227 15.8319C9.66947 16.1877 9.38376 16.4762 9.03082 16.4762ZM7.2381 17.6358L14.5322 17.6695L9 6.48459L6.84594 10.7647L3.38376 17.6274L6.84594 17.6358H7.2381Z" fill="#313235"/>
</svg>
