<svg width="24" height="24" viewBox="0 0 24 24" fill="none" xmlns="http://www.w3.org/2000/svg">
<path d="M20.6107 18.9664C20.3249 18.3305 19.6079 18.0532 19.0056 18.3557C17.9972 18.8571 16.7255 19.1092 15.2325 19.1092C11.902 19.1092 9.82075 17.8599 8.89918 15.3557H13.7815C14.451 15.3557 14.986 14.7843 14.986 14.0812C14.986 13.3782 14.4482 12.8095 13.7815 12.8095H8.39498C8.37537 12.4846 8.33615 12.1765 8.33615 11.8263C8.33615 11.7367 8.35016 11.6639 8.35296 11.577H13.7815C14.451 11.577 14.986 11.0056 14.986 10.3025C14.986 9.59944 14.4482 9.03081 13.7815 9.03081H8.67229C9.43979 6.03641 11.5911 4.54622 15.2325 4.54622C16.7087 4.54622 17.9664 4.79552 18.9692 5.28291C19.5742 5.58263 20.2913 5.29972 20.5686 4.66387C20.8488 4.02521 20.5855 3.26891 19.9804 2.97199C18.6583 2.32773 17.0616 2 15.2353 2C10.1849 2 7.05604 4.47619 6.18489 9.03641H4.89638C4.22971 9.03641 3.69189 9.60784 3.69189 10.3081C3.69189 11.0112 4.22971 11.5826 4.89638 11.5826H5.93559C5.93559 11.6667 5.92719 11.7451 5.92719 11.8319C5.92719 12.1681 5.94119 12.493 5.9608 12.8151H4.89638C4.22971 12.8151 3.69189 13.3838 3.69189 14.0868C3.69189 14.7899 4.22971 15.3613 4.89638 15.3613H6.34456C7.40338 19.4482 10.465 21.6583 15.2353 21.6583C17.0897 21.6583 18.7031 21.3249 20.0364 20.6611C20.6387 20.3613 20.8936 19.6022 20.6107 18.9664Z" fill="#313235"/>
</svg>
