<svg width="24" height="24" fill="none" xmlns="http://www.w3.org/2000/svg"><path d="m19.145 4.002 2.574 2.605a.525.525 0 0 1 .059.575.53.53 0 0 1-.482.308l-1.025.008c-.132 1.048-.642 3.216-2.591 4.852 3.79 2.092 3.834 6.213 3.834 6.255 0 .882-.711 1.596-1.588 1.596a1.595 1.595 0 0 1-1.588-1.585c-.003-.384-.202-3.482-4.283-4.123l-.045.058c-.037.05-.073.098-.117.14-.446.429-1.085.645-1.905.645-.818 0-1.457-.216-1.9-.645-.042-.04-.078-.09-.113-.138a2.009 2.009 0 0 0-.054-.072c-4.197.617-4.393 3.748-4.398 4.14a1.599 1.599 0 0 1-1.588 1.575 1.597 1.597 0 0 1-1.589-1.591c0-.043.048-4.2 3.91-6.28-1.918-1.65-2.417-3.86-2.543-4.827l-1.03-.005a.528.528 0 0 1-.48-.309.551.551 0 0 1 .073-.582l2.6-2.636a.493.493 0 0 1 .322-.163c.14-.02.28.023.392.112l.087.09 2.53 2.569c.159.193.187.423.097.613a.532.532 0 0 1-.482.308l-.918.006c.173.938.818 2.583 3.154 3.308a.115.115 0 0 0 .014-.018c.004-.007.008-.013.014-.018.442-.429 1.084-.647 1.902-.647.82 0 1.46.218 1.905.647l.009.01c.004.006.009.013.016.018 2.344-.74 2.986-2.426 3.16-3.3l-.917-.006a.53.53 0 0 1-.476-.305.557.557 0 0 1 .067-.583l2.591-2.638c.286-.233.62-.194.802.033Zm-5.818 10.104c.131-.132.232-.3.305-.499.09-.243.137-.53.137-.862 0-.404-.07-.731-.196-.998a1.243 1.243 0 0 0-.25-.37 1.377 1.377 0 0 0-.54-.308 2.582 2.582 0 0 0-.792-.109c-.306 0-.57.037-.796.11-.216.07-.392.17-.532.305-.104.1-.182.23-.25.372-.123.267-.193.594-.193.998 0 .336.048.624.135.862.072.2.17.37.305.502.126.12.291.213.482.28.235.084.518.132.849.132.33 0 .607-.048.845-.132.197-.067.362-.16.49-.283Z" fill="#313235"/></svg>