<svg width="24" height="24" viewBox="0 0 24 24" fill="none" xmlns="http://www.w3.org/2000/svg">
<path fill-rule="evenodd" clip-rule="evenodd" d="M19.0196 3.88233L21.5938 6.48736C21.7255 6.64983 21.7507 6.87952 21.6527 7.06159C21.563 7.25207 21.3781 7.36971 21.1709 7.36971L20.1457 7.37812C20.014 8.42573 19.5042 10.5938 17.5546 12.2296C21.3445 14.3221 21.3894 18.4425 21.3894 18.4845C21.3894 19.3669 20.6779 20.0812 19.8011 20.0812C18.93 20.0812 18.2185 19.3697 18.2129 18.4957C18.2101 18.112 18.0112 15.014 13.93 14.3725C13.9148 14.3917 13.9 14.4114 13.8853 14.431C13.8484 14.4802 13.8115 14.5294 13.7675 14.5714C13.3221 15 12.6835 15.2156 11.8628 15.2156C11.0448 15.2156 10.4062 15 9.96361 14.5714C9.92065 14.5303 9.88517 14.4817 9.84969 14.4332C9.83195 14.4089 9.81421 14.3846 9.79554 14.3613C5.59947 14.9775 5.40339 18.1092 5.39779 18.5013C5.38658 19.3697 4.6723 20.0756 3.80956 20.0756C2.92721 20.0672 2.22133 19.3557 2.22133 18.4845C2.22133 18.4425 2.26894 14.2857 6.13168 12.2044C4.21292 10.5546 3.71432 8.3445 3.58827 7.37812L2.55746 7.37252C2.35298 7.37252 2.1681 7.25487 2.07847 7.06439C1.98883 6.87392 2.01684 6.64423 2.1513 6.48176L4.75073 3.84591C4.80675 3.77028 4.9328 3.70025 5.07286 3.68345C5.21292 3.66384 5.35297 3.70586 5.46502 3.79549L5.55185 3.88513L8.08126 6.45375C8.24092 6.64703 8.26893 6.87672 8.1793 7.06719C8.08686 7.25767 7.90479 7.37532 7.6975 7.37532L6.77874 7.38092C6.95241 8.31929 7.59666 9.96355 9.93279 10.689C9.9384 10.6834 9.9426 10.6771 9.9468 10.6708C9.951 10.6645 9.9552 10.6582 9.9608 10.6526C10.4034 10.2241 11.0448 10.0056 11.8628 10.0056C12.6835 10.0056 13.3221 10.2241 13.7675 10.6526C13.7708 10.6559 13.7736 10.6596 13.7766 10.6634C13.7811 10.6693 13.7859 10.6755 13.7927 10.6806C16.1373 9.94114 16.7787 8.25487 16.9524 7.38092L16.0364 7.37532C15.8347 7.37532 15.6499 7.25767 15.5602 7.07C15.4706 6.87952 15.4958 6.65263 15.6275 6.48736L18.2185 3.84871C18.5042 3.61622 18.8375 3.65544 19.0196 3.88233ZM13.2017 13.9859C13.3333 13.8543 13.4342 13.6862 13.507 13.4873C13.5967 13.2437 13.6443 12.9579 13.6443 12.6246C13.6443 12.2212 13.5742 11.8935 13.4482 11.6274C13.381 11.4846 13.3025 11.3585 13.1989 11.2577C13.0588 11.1232 12.8768 11.0196 12.6583 10.9495C12.4314 10.8767 12.1709 10.8403 11.8656 10.8403C11.5602 10.8403 11.2969 10.8767 11.07 10.9495C10.8544 11.0196 10.6779 11.1204 10.5378 11.2549C10.4342 11.3557 10.3558 11.4846 10.2885 11.6274C10.1653 11.8935 10.0953 12.2212 10.0953 12.6246C10.0953 12.9607 10.1429 13.2493 10.2297 13.4873C10.3025 13.6862 10.4006 13.8571 10.535 13.9887C10.6611 14.1092 10.8263 14.2016 11.0168 14.2689C11.2521 14.3529 11.535 14.4005 11.8656 14.4005C12.1961 14.4005 12.4734 14.3529 12.7115 14.2689C12.9076 14.2016 13.0728 14.1092 13.2017 13.9859Z" fill="#313235"/>
</svg>
