<svg xmlns="http://www.w3.org/2000/svg" width="24" height="24" fill="none"><path fill="#000" d="M22 12.003C22 18.815 18.314 22 11.997 22S2 18.815 2 12.003C2 5.19 5.68 2 11.997 2S22 5.19 22 12.003M8.035 14.74s1.46-1.108 4.067-1.019c1.233.042 2.357.096 4.086 1.01a.573.573 0 0 0 .534-1.011c-1.939-1.025-3.199-1.094-4.581-1.14-3.09-.107-4.807 1.258-4.807 1.258a.571.571 0 0 0 .7.902m6.125-4.543c.21.214.512.328.874.328.36 0 .662-.114.87-.328.208-.21.314-.5.314-.859 0-.734-.453-1.19-1.184-1.19-.729 0-1.184.456-1.184 1.19 0 .356.103.646.31.86m-5.194.328c.362 0 .663-.114.874-.328.205-.21.31-.5.31-.859 0-.734-.452-1.19-1.184-1.19-.728 0-1.183.456-1.183 1.19 0 .359.102.65.31.86.21.213.512.327.873.327"/></svg>