<svg xmlns="http://www.w3.org/2000/svg" width="24" height="24" fill="none"><path fill="#000" d="M22 12.003C22 18.815 18.313 22 11.996 22S2 18.815 2 12.003C2 5.19 5.68 2 11.997 2s10.002 3.19 10.002 10.003M7.6 14.206l9.047-.007a.572.572 0 1 0 0-1.143l-9.048.007a.57.57 0 1 0 .001 1.143m1.366-3.68c.362 0 .663-.114.874-.328.204-.21.31-.5.31-.86 0-.733-.452-1.188-1.184-1.188-.728 0-1.184.455-1.184 1.189 0 .359.103.65.31.86.211.213.513.327.874.327m5.194-.328c.21.214.512.328.874.328.36 0 .662-.114.87-.328.208-.21.313-.5.313-.86 0-.733-.453-1.188-1.183-1.188s-1.184.455-1.184 1.189c0 .356.102.646.31.86"/></svg>