<svg width="24" height="24" viewBox="0 0 24 24" fill="none" xmlns="http://www.w3.org/2000/svg">
<path fill-rule="evenodd" clip-rule="evenodd" d="M10.2101 5.39494C10.4986 5.84872 10.7311 6.14283 11.1288 6.5546L11.1439 6.56975L11.1439 6.56976C11.1951 6.62163 11.3116 6.73948 11.4146 6.8123C11.5098 6.88513 11.6218 6.93555 11.7339 6.95796C11.7647 6.96636 11.7983 6.97197 11.8319 6.97477H11.9132C11.9468 6.97197 11.9804 6.96916 12.0112 6.95796C12.1204 6.93555 12.2325 6.88513 12.3305 6.8123C12.4454 6.72827 12.5798 6.59381 12.6162 6.5546C12.6171 6.55375 12.6179 6.55265 12.6189 6.55144C12.621 6.54866 12.6235 6.54535 12.6274 6.54339C13.0168 6.13723 13.2465 5.84311 13.535 5.39494C13.8992 4.82351 14.1485 4.26048 14.2773 3.71426C14.4174 3.12043 14.3025 2.62743 13.9524 2.32491C13.7479 2.14844 13.4734 2.0448 13.1765 2.02799C12.8627 2.01118 12.5378 2.09522 12.2353 2.26328L12.1738 2.29807L12.1737 2.29809C12.0894 2.34569 12.0026 2.39471 11.9104 2.45096C11.8992 2.45656 11.8851 2.46216 11.8739 2.46216C11.8599 2.46216 11.8459 2.45936 11.8347 2.45096C11.7199 2.38093 11.6162 2.31931 11.5098 2.26328C11.2073 2.09522 10.8823 2.01118 10.5686 2.02799C10.2717 2.0448 9.99439 2.14844 9.78991 2.32491C9.44257 2.62463 9.32492 3.11762 9.46498 3.71426C9.59663 4.26048 9.84593 4.82351 10.2101 5.39494ZM6.94677 12.2101C6.07283 12.2101 5.38935 11.9776 4.91596 11.521C4.42577 11.0476 4.17927 10.3417 4.17927 9.42855C4.17927 8.51538 4.42857 7.8095 4.91596 7.33331C5.38935 6.87113 6.07283 6.64143 6.94677 6.64143C7.82072 6.64143 8.5042 6.87393 8.98039 7.33331C9.47058 7.8123 9.72268 8.51818 9.72268 9.43135C9.72268 10.3445 9.47058 11.0504 8.98039 11.5266C8.5042 11.9776 7.82072 12.2101 6.94677 12.2101ZM14.7591 11.521C15.2325 11.9776 15.916 12.2101 16.7899 12.2101C17.6639 12.2101 18.3473 11.9776 18.8235 11.5266C19.3137 11.0504 19.5658 10.3445 19.5658 9.43135C19.5658 8.51818 19.3137 7.8123 18.8235 7.33331C18.3473 6.87393 17.6639 6.64143 16.7899 6.64143C15.916 6.64143 15.2325 6.87113 14.7591 7.33331C14.2717 7.8095 14.0224 8.51538 14.0224 9.42855C14.0224 10.3417 14.2689 11.0476 14.7591 11.521ZM11.8879 9.99998C12.4594 9.99998 12.9076 10.1512 13.2157 10.4538C13.5378 10.7675 13.7031 11.2269 13.7031 11.8263C13.7031 12.4229 13.5406 12.8851 13.2157 13.1961C12.9076 13.493 12.4566 13.6442 11.8879 13.6442C11.3165 13.6442 10.8683 13.493 10.5602 13.1933C10.2381 12.8851 10.0784 12.4229 10.0784 11.8235C10.0784 11.2241 10.2381 10.7647 10.5602 10.4538C10.8711 10.1512 11.3165 9.99998 11.8879 9.99998ZM10.0812 14.6526C9.65546 14.4846 9.17086 14.3949 8.63585 14.3949V14.3977H5.2549C4.22689 14.3977 3.38655 14.7115 2.81792 15.3053C2.29972 15.8487 2.02521 16.605 2.02521 17.4902V21.6358C2.02521 21.6778 2.06162 21.7143 2.10364 21.7143H7.85154V17.4313C7.85154 16.6358 8.10924 15.9411 8.59943 15.4313C8.98319 15.028 9.49019 14.7675 10.0812 14.6526ZM12.9916 15.4061C13.6639 15.4061 14.2157 15.6106 14.5854 16C14.9272 16.3557 15.1092 16.8515 15.1092 17.4313V21.7143H8.87675H8.67226V17.4313C8.67226 16.8515 8.85154 16.3557 9.19047 16.0028C9.56022 15.6134 10.112 15.4089 10.7843 15.4089H12.9916V15.4061ZM21.7143 17.4902C21.7143 16.6022 21.437 15.8487 20.916 15.3025C20.3473 14.7087 19.5042 14.3949 18.4762 14.3977H15.098C14.5714 14.3977 14.0924 14.4846 13.6723 14.647C14.2717 14.7591 14.7871 15.0224 15.1793 15.4285C15.6695 15.9411 15.93 16.633 15.93 17.4313V21.7115H21.6358C21.6807 21.7115 21.7143 21.6778 21.7143 21.6358V17.4902Z" fill="#313235"/>
</svg>
