<svg width="24" height="24" fill="none" xmlns="http://www.w3.org/2000/svg"><path d="M2 11.846c0 6.437 3.403 9.84 9.846 9.84 6.437 0 9.84-3.403 9.84-9.84 0-6.443-3.403-9.846-9.84-9.846C5.403 2 2 5.403 2 11.846Zm8.672-.291L7.504 13.44V9.65l3.168 1.905Zm5.925-.006-3.168-1.905v3.79l3.168-1.885ZM7.21 8.062l4.952 2.974c.014.008.023.02.032.03a.1.1 0 0 0 .024.026V8.574a.603.603 0 0 1 .916-.518l4.953 2.978a.604.604 0 0 1 0 1.036l-4.953 2.947a.61.61 0 0 1-.61.005.604.604 0 0 1-.305-.526v-2.482a.166.166 0 0 0-.026.027.117.117 0 0 1-.033.032l-4.953 2.952a.61.61 0 0 1-.61.006.61.61 0 0 1-.306-.527V8.58a.618.618 0 0 1 .308-.527.603.603 0 0 1 .611.009Z" fill="#313235"/></svg>