<svg xmlns="http://www.w3.org/2000/svg" width="24" height="24" fill="none"><path fill="#000" d="M19.125 7.53c.165.163.26.39.26.622v12.311a1.4 1.4 0 0 1-1.384 1.381h-12c-.736 0-1.383-.644-1.383-1.38V3.535c0-.723.658-1.381 1.383-1.381h2.255v3.19h-.935a.6.6 0 0 0-.594.606.6.6 0 0 0 .594.605h.935v1.523h-.935a.6.6 0 0 0-.594.605.6.6 0 0 0 .594.605h.935v1.524h-.935a.6.6 0 0 0-.594.605.6.6 0 0 0 .594.605h.935v1.858H7.33a.6.6 0 0 0-.594.605v2.266a.6.6 0 0 0 .594.605h3a.6.6 0 0 0 .594-.605v-2.266a.6.6 0 0 0-.594-.606h-.885v-.493h.908a.6.6 0 0 0 .593-.604.6.6 0 0 0-.593-.606h-.908v-1.523h.908a.6.6 0 0 0 .593-.605.6.6 0 0 0-.593-.605h-.908V7.92h.908a.6.6 0 0 0 .593-.605.6.6 0 0 0-.593-.605h-.908V5.186h.908a.6.6 0 0 0 .593-.605.6.6 0 0 0-.593-.605h-.908V2.155h3.863a.86.86 0 0 1 .6.244zm-3.21.28h1.784l-4.067-4v1.776c0 .659.213 1.216.613 1.611.41.4.986.613 1.67.613m-7.99 7.522v.815h1.81v-.815z"/></svg>