<svg width="24" height="24" viewBox="0 0 24 24" fill="none" xmlns="http://www.w3.org/2000/svg">
<path fill-rule="evenodd" clip-rule="evenodd" d="M19.2423 7.75909C19.2731 7.83192 19.2871 7.91315 19.2871 7.99719V20.3025C19.2871 21.0532 18.6512 21.6862 17.9005 21.6862H5.90614C5.16945 21.6862 4.51959 21.0392 4.51959 20.3025V3.38375C4.51959 2.65826 5.18066 2 5.90614 2H13.2058C13.4355 2 13.6484 2.08683 13.8109 2.2493L19.0238 7.37534C19.1386 7.48458 19.2002 7.61904 19.2423 7.75909ZM17.5896 7.65265L13.5364 3.66946V5.43417C13.5364 6.09243 13.7493 6.64705 14.1498 7.04201C14.556 7.43976 15.1302 7.65265 15.8137 7.65265H17.5896ZM15.0322 11.7339L14.6932 12.7199H15.5308L15.0322 11.7339ZM14.3627 13.6919H15.3767L13.4355 16.4061L14.3627 13.6919ZM10.4327 16.4481L9.49157 13.6919H8.44115L10.4327 16.4481ZM9.99857 12.2185L9.57841 10.9888H10.9594L9.99857 12.2185ZM12.8753 10.9888L13.8529 12.2213L14.2759 10.9888H12.8753ZM10.8277 12.7199L11.9173 11.3305L13.0182 12.7199H10.8277ZM11.9229 17.8571L13.3487 13.6919H10.5L11.9229 17.8571ZM8.8165 11.7143L9.16104 12.7199H8.29549L8.8165 11.7143ZM16.7423 12.9902C16.7423 12.9923 16.7423 12.9944 16.7437 12.9972C16.7717 13.0616 16.7941 13.1316 16.7969 13.1989C16.7969 13.2031 16.7955 13.2066 16.7941 13.2101C16.7927 13.2136 16.7913 13.2171 16.7913 13.2213C16.7913 13.2328 16.7883 13.2434 16.7854 13.2542C16.7833 13.2617 16.7812 13.2692 16.7801 13.2773C16.7717 13.3417 16.7493 13.3977 16.7184 13.451C16.7142 13.4566 16.7128 13.4629 16.7114 13.4692C16.71 13.4755 16.7086 13.4818 16.7044 13.4874L12.3151 19.619C12.3151 19.6208 12.3151 19.6214 12.3144 19.6217C12.314 19.6218 12.3133 19.6218 12.3123 19.6218C12.2731 19.675 12.2199 19.717 12.1638 19.7507C12.1568 19.7549 12.1498 19.7584 12.1428 19.7619C12.1358 19.7654 12.1288 19.7689 12.1218 19.7731C12.063 19.8011 11.9986 19.8207 11.9313 19.8207H11.9285C11.8585 19.8207 11.7941 19.8011 11.7353 19.7731C11.7213 19.7675 11.7073 19.7619 11.6932 19.7535C11.6372 19.7199 11.584 19.6806 11.5448 19.6246H11.542L7.11342 13.493C7.11062 13.4874 7.10922 13.4811 7.10782 13.4748C7.10642 13.4685 7.10502 13.4622 7.10222 13.4566C7.06861 13.4005 7.0462 13.3417 7.03779 13.2745C7.03667 13.2678 7.03466 13.261 7.03264 13.2543C7.02962 13.2442 7.02659 13.2341 7.02659 13.2241C7.02659 13.2213 7.02589 13.2178 7.02519 13.2143C7.02449 13.2108 7.02379 13.2073 7.02379 13.2045C7.02379 13.1288 7.0434 13.0588 7.07421 12.9944C7.07561 12.9916 7.07561 12.9888 7.07561 12.986C7.07561 12.9832 7.07561 12.9804 7.07701 12.9776L8.48597 10.2745C8.48877 10.2703 8.49227 10.2675 8.49577 10.2647C8.49928 10.2619 8.50278 10.2591 8.50558 10.2549C8.53919 10.1989 8.58681 10.1512 8.64003 10.112C8.65964 10.098 8.67645 10.0868 8.69886 10.0756C8.70338 10.0726 8.70791 10.0694 8.71249 10.0661C8.72492 10.0573 8.73775 10.0481 8.75208 10.042C8.78709 10.0303 8.8221 10.0284 8.85712 10.0264C8.86412 10.026 8.87112 10.0257 8.87813 10.0252C8.88373 10.0252 8.88863 10.0231 8.89353 10.021C8.89843 10.0189 8.90334 10.0168 8.90894 10.0168H14.9481C14.9537 10.0168 14.9586 10.0189 14.9635 10.021C14.9684 10.0231 14.9734 10.0252 14.979 10.0252C14.9912 10.0268 15.0037 10.028 15.0162 10.0291C15.0468 10.032 15.078 10.0349 15.1078 10.0448C15.1176 10.049 15.1267 10.0553 15.1358 10.0616C15.1449 10.0679 15.154 10.0742 15.1638 10.0784C15.1736 10.084 15.1827 10.0896 15.1918 10.0952C15.2009 10.1008 15.21 10.1064 15.2198 10.112C15.2787 10.154 15.3291 10.2045 15.3627 10.2689C15.3636 10.2697 15.3647 10.2706 15.3659 10.2715C15.3686 10.2736 15.372 10.2762 15.3739 10.2801L15.3767 10.2913L16.7409 12.9832C16.7423 12.986 16.7423 12.9881 16.7423 12.9902Z" fill="#313235"/>
</svg>
