<svg xmlns="http://www.w3.org/2000/svg" width="24" height="24" fill="none"><path fill="#313235" d="M9.177 11.318h-.955l-1.277 3.804h.83l.293-.955h1.235l.317.955h.93l-1.373-3.804Zm-.498.95.417 1.269h-.823l.395-1.27h.01ZM11.004 11.318h.868v3.804h-.868v-3.804Z"/><path fill="#313235" d="M21.794 7.912a.61.61 0 0 1 .047.238v12.306c0 .75-.644 1.383-1.409 1.383H8.25c-.75 0-1.409-.647-1.409-1.383l.034-2.774h-2.3a2.427 2.427 0 0 1-2.42-2.425v-4.093a2.427 2.427 0 0 1 2.42-2.426h2.266V3.534c0-.726.673-1.384 1.41-1.384h7.414c.232 0 .448.09.616.25l5.297 5.126c.11.109.174.243.216.386Zm-5.79-4.09v1.765c0 .658.215 1.213.622 1.608.414.4.997.61 1.691.61h1.802l-4.115-3.983ZM4.575 16.47h9.846a1.21 1.21 0 0 0 1.207-1.21v-4.093c0-.667-.54-1.21-1.207-1.21H4.575a1.21 1.21 0 0 0-1.207 1.21v4.092c0 .667.54 1.21 1.207 1.21Z"/></svg>