<svg width="24" height="24" viewBox="0 0 24 24" fill="none" xmlns="http://www.w3.org/2000/svg">
<path fill-rule="evenodd" clip-rule="evenodd" d="M21.6386 7.7871C21.6694 7.85993 21.6862 7.94116 21.6862 8.02519V20.3305C21.6862 21.0812 21.042 21.7142 20.2773 21.7142H8.09523C7.34453 21.7142 6.68626 21.0672 6.68626 20.3305L6.71988 17.5602H4.42016C3.08683 17.5602 2 16.4706 2 15.1344V11.0392C2 9.70306 3.08683 8.61343 4.42016 8.61343H6.68626V3.40896C6.68626 2.68347 7.35853 2.02521 8.09523 2.02521H15.5098C15.7395 2.02521 15.9552 2.11204 16.1204 2.2689L21.4201 7.40055C21.5294 7.50699 21.5938 7.64424 21.6386 7.7871ZM19.9579 7.67786L19.9607 7.68066V7.67786H19.9579ZM19.9579 7.67786L15.8459 3.69467V5.45937C15.8459 6.11764 16.0616 6.67226 16.4678 7.06721C16.8823 7.46777 17.465 7.67786 18.1596 7.67786H19.9579ZM4.42016 16.3445C3.7535 16.3445 3.21288 15.8011 3.21288 15.1344V11.0392C3.21288 10.3725 3.7535 9.82911 4.42016 9.82911H14.2661C14.9327 9.82911 15.4734 10.3725 15.4734 11.0392V15.1344C15.4734 15.8011 14.9327 16.3445 14.2661 16.3445H4.42016ZM5.84873 11.2969H4.57703V15H5.41736V13.7227H6.014C6.50139 13.7227 6.83752 13.6078 7.05321 13.3641C7.23808 13.1596 7.33052 12.8599 7.33052 12.465C7.33052 12.07 7.23528 11.7843 7.0336 11.5994C6.79551 11.3781 6.42856 11.2969 5.84873 11.2969ZM6.33052 12.9496C6.22128 13.0504 6.10923 13.0896 5.83753 13.0896V13.0924H5.42016V11.9103H5.81512C6.07562 11.9103 6.23248 11.9468 6.33613 12.0392C6.43416 12.1316 6.47618 12.2801 6.47618 12.479C6.47618 12.6947 6.42856 12.8515 6.33052 12.9496ZM7.93276 11.2969H9.07562C9.7787 11.2969 10.2465 11.4061 10.5546 11.7143C10.8515 12.0056 11.0056 12.4678 11.0056 13.1344C11.0056 13.8067 10.8599 14.2717 10.5546 14.5854C10.2773 14.8683 9.85152 15.0028 9.19046 15.0028H7.93276V11.2969ZM9.92996 14.056C9.7843 14.2717 9.51259 14.3865 9.13444 14.3865H8.7759V11.9159H9.0364C9.44816 11.9159 9.69746 11.9804 9.86553 12.1596C10.0448 12.3529 10.126 12.6022 10.126 13.1344C10.126 13.591 10.0756 13.8403 9.92996 14.056ZM11.6498 11.2969H14.0924L14.028 11.9075H12.4958V12.8067H13.7087V13.4397H12.4958V15H11.6498V11.2969Z" fill="#313235"/>
</svg>
