<svg width="24" height="24" viewBox="0 0 24 24" fill="none" xmlns="http://www.w3.org/2000/svg">
<path fill-rule="evenodd" clip-rule="evenodd" d="M21.6386 7.7871C21.6694 7.85993 21.6862 7.94116 21.6862 8.02519V20.3305C21.6862 21.0812 21.042 21.7142 20.2773 21.7142H8.09523C7.34453 21.7142 6.68626 21.0672 6.68626 20.3305L6.71988 17.5574H4.42016C3.08683 17.5574 2 16.4678 2 15.1316V11.0392C2 9.70306 3.08683 8.61343 4.42016 8.61343H6.68626V3.40896C6.68626 2.68347 7.35853 2.02521 8.09523 2.02521H15.5098C15.7423 2.02521 15.958 2.11484 16.126 2.27451L21.4229 7.40055C21.5322 7.50979 21.5966 7.64424 21.6386 7.7871ZM15.8487 3.69747L19.9635 7.68066H18.1624C17.4678 7.68066 16.8851 7.47057 16.4706 7.07001C16.0644 6.67506 15.8487 6.12044 15.8487 5.46218V3.69747ZM4.42016 16.3445C3.7535 16.3445 3.21288 15.8011 3.21288 15.1344V11.042C3.21288 10.3753 3.7535 9.83191 4.42016 9.83191H14.2661C14.9327 9.83191 15.4734 10.3753 15.4734 11.042V15.1344C15.4734 15.8011 14.9327 16.3445 14.2661 16.3445H4.42016ZM9.02239 11.1933H8.06721L6.78991 14.9972H7.61904L7.91315 14.042H9.14844L9.46497 14.9972H10.3949L9.02239 11.1933ZM8.5238 12.1428L8.94116 13.4117H8.11763L8.51259 12.1428H8.5238ZM10.8487 11.1933H11.7171V14.9972H10.8487V11.1933Z" fill="#313235"/>
</svg>
