<svg width="24" height="24" viewBox="0 0 24 24" fill="none" xmlns="http://www.w3.org/2000/svg">
<path fill-rule="evenodd" clip-rule="evenodd" d="M21.6764 12.9678C21.6757 12.9762 21.675 12.9846 21.675 12.9944C21.676 13.0074 21.678 13.0213 21.6799 13.0353C21.683 13.0576 21.6862 13.0802 21.6862 13.1008V20.2297C21.6862 21.0336 21.0363 21.6863 20.2352 21.6863H3.45367C2.65535 21.6863 2.00269 21.0336 2.00269 20.2297V13.098C2.00269 13.0602 2.00741 13.0224 2.01214 12.9846C2.01372 12.972 2.01529 12.9594 2.01669 12.9468C2.01669 12.9373 2.01551 12.9279 2.01433 12.9184C2.01236 12.9027 2.01039 12.8869 2.01389 12.8711L3.60493 3.39496C3.63854 2.61905 4.2772 2 5.05591 2L18.6329 2.01401C19.3864 2.01401 20.0139 2.57983 20.1623 3.38936L21.6778 12.9412C21.6778 12.951 21.6771 12.9594 21.6764 12.9678ZM13.4341 12.2829C13.4341 11.9356 13.7142 11.6527 14.0615 11.6527V11.6555H20.2016L18.9243 3.60504C18.8934 3.42297 18.7646 3.27731 18.6329 3.27731L5.05311 3.26331C4.94666 3.26331 4.85983 3.35014 4.85983 3.45658C4.85983 3.4902 4.85703 3.52661 4.85143 3.56022L3.49008 11.6527H9.62453C9.97187 11.6555 10.252 11.9356 10.252 12.2829V13.1513C10.2548 13.9748 10.9215 14.6415 11.745 14.6415H11.9383C12.7646 14.6415 13.4313 13.9748 13.4341 13.1513V12.2829Z" fill="#313235"/>
</svg>
