<svg width="24" height="24" fill="none" xmlns="http://www.w3.org/2000/svg"><path d="m19.986 7.678.003.003v-.003h-.003ZM11.386 13.193c0-1.151.608-1.93 1.86-1.93.365 0 .801.076 1.037.177l-.107.613a3.293 3.293 0 0 0-.87-.134c-.743 0-1.048.44-1.048 1.24 0 .415.053.754.215.978.135.188.356.297.709.297.134 0 .316-.017.445-.036v-.773h-.515v-.603h1.35V14.9c-.35.107-.907.188-1.31.188-1.32-.003-1.765-.729-1.765-1.894ZM4.322 11.333h1.263c.575 0 .942.082 1.177.3.199.182.297.468.297.86 0 .392-.093.689-.275.893-.215.241-.549.356-1.03.356h-.592v1.27h-.84v-3.679Zm1.252 1.779c.27 0 .381-.036.49-.14.098-.098.146-.252.146-.468 0-.199-.042-.344-.14-.434-.1-.092-.258-.129-.515-.129h-.393v1.171h.412ZM8.269 11.333h-.62v3.675h.737v-2.23l1.69 2.23h.672v-3.675h-.737v2.353L8.27 11.333Z" fill="#313235"/><path d="M21.667 7.787c.03.073.047.154.047.238v12.306c0 .75-.644 1.383-1.409 1.383H8.123c-.748 0-1.409-.647-1.409-1.383l.034-2.774H4.445a2.425 2.425 0 0 1-2.42-2.423V11.04a2.427 2.427 0 0 1 2.42-2.426h2.266V3.41c0-.726.67-1.384 1.41-1.384h7.414a.86.86 0 0 1 .613.25L21.445 7.4c.115.109.18.243.222.386Zm-1.681-.11-4.112-3.982v1.764c0 .656.216 1.213.622 1.608.414.4.997.61 1.692.61h1.798ZM4.448 16.343h9.846a1.21 1.21 0 0 0 1.207-1.208V11.04c0-.666-.54-1.21-1.207-1.21H4.448a1.21 1.21 0 0 0-1.207 1.21v4.095c0 .667.54 1.208 1.207 1.208Z" fill="#313235"/></svg>