<svg width="24" height="24" fill="none" xmlns="http://www.w3.org/2000/svg"><path d="m19.958 7.678.003.003v-.003h-.003Z" fill="#313235"/><path fill-rule="evenodd" clip-rule="evenodd" d="M6.207 11.395h.927l1.33 3.683h-.898l-.308-.927H6.06l-.285.927h-.804l1.235-3.683Zm.846 2.148-.403-1.226h-.011l-.384 1.226h.798Z" fill="#313235"/><path d="M9.23 11.395h-.9l1.283 3.683h.877l1.224-3.683h-.818l-.804 2.672-.862-2.672ZM12.19 11.395h.84v3.683h-.84v-3.683Z" fill="#313235"/><path fill-rule="evenodd" clip-rule="evenodd" d="M21.639 7.787c.03.073.047.154.047.238v12.306c0 .75-.644 1.383-1.409 1.383H8.095c-.75 0-1.406-.647-1.406-1.383l.034-2.77h-2.3a2.427 2.427 0 0 1-2.42-2.427V11.04a2.427 2.427 0 0 1 2.42-2.426h2.266V3.41c0-.726.672-1.384 1.406-1.384h7.415a.86.86 0 0 1 .613.25L21.42 7.4c.112.109.176.243.218.386Zm-1.681-.11-4.112-3.982v1.764c0 .659.215 1.213.622 1.608.414.4.997.61 1.692.61h1.798ZM4.42 16.346a1.21 1.21 0 0 1-1.207-1.21v-4.096c0-.666.54-1.21 1.207-1.21h9.846a1.21 1.21 0 0 1 1.207 1.21v4.095c0 .667-.54 1.21-1.207 1.21H4.42Z" fill="#313235"/></svg>