<svg width="24" height="24" fill="none" xmlns="http://www.w3.org/2000/svg"><path d="M18.444 11.182a9.42 9.42 0 0 0-1.423-1.238c-4.11-2.989-2.347-7.16-2.272-7.336a.422.422 0 0 0-.058-.432.407.407 0 0 0-.412-.137c-1.843.437-3.737 1.395-5.33 2.698-5.27 4.308-5.28 11.05-2.967 13.991 1.04 1.322 2.524 2.255 4.157 2.726a4.015 4.015 0 0 1-.757-.58 3.393 3.393 0 0 1-.162-4.647c.207-.238.443-.457.7-.653 1.586-1.238.885-3.005.877-3.022a.616.616 0 0 1 .104-.642.63.63 0 0 1 .619-.196c.888.227 1.798.717 2.56 1.387 1.706 1.496 3.056 4.98 1.386 7.258a4.053 4.053 0 0 1-1.773 1.355c.225-.033.449-.061.673-.114.08-.012 2.01-.292 3.77-1.905 1.202-1.101 1.896-2.588 1.955-4.185.056-1.597-.53-3.135-1.647-4.328Z" fill="#313235"/></svg>