<svg width="24" height="24" viewBox="0 0 24 24" fill="none" xmlns="http://www.w3.org/2000/svg">
<path d="M18.4441 11.1821C18.0183 10.7283 17.5393 10.3109 17.0211 9.94399C12.9119 6.9552 14.6738 2.78433 14.7494 2.60786C14.811 2.465 14.7886 2.29694 14.6906 2.17649C14.5897 2.05324 14.4301 2.00282 14.2788 2.03923C12.4357 2.47621 10.5421 3.43419 8.94828 4.73671C3.67937 9.04483 3.66817 15.7871 5.98189 18.7283C7.02111 20.0504 8.5057 20.9832 10.1388 21.4538C9.89505 21.3081 9.63735 21.1233 9.38245 20.874C8.10794 19.6191 8.03791 17.5798 9.21999 16.2269C9.42727 15.9888 9.66256 15.7703 9.92026 15.5742C11.5057 14.3361 10.8054 12.5686 10.797 12.5518C10.7074 12.3362 10.7466 12.0869 10.9007 11.9104C11.0547 11.7339 11.2956 11.6611 11.5197 11.7143C12.4077 11.9412 13.318 12.4314 14.0799 13.1009C15.7858 14.5967 17.1359 18.0812 15.4665 20.3586C15.0127 20.9776 14.3881 21.437 13.6934 21.7143C13.9175 21.6807 14.1416 21.6527 14.3656 21.5995C14.4469 21.5882 16.3768 21.3081 18.1359 19.6947C19.3376 18.5939 20.0323 17.1065 20.0911 15.5098C20.1472 13.9132 19.5617 12.3754 18.4441 11.1821Z" fill="#313235"/>
</svg>
