<svg xmlns="http://www.w3.org/2000/svg" width="24" height="24" fill="none"><path fill="#0B2739" d="M5.46 2.16h15c.722 0 1.386.77 1.383 1.605v16.47c0 .866-.641 1.606-1.386 1.606H7.939c.44-.177.829-.474 1.112-.863 1.053-1.457.201-3.692-.869-4.644-.487-.429-1.053-.745-1.613-.894a.41.41 0 0 0-.39.126.41.41 0 0 0-.064.415l.003.01c.04.117.391 1.174-.555 1.928a3.7 3.7 0 0 0-.445.415c-.737.868-.697 2.168.106 2.972q.215.217.48.372c-1.029-.3-1.961-.893-2.62-1.74-1.313-1.697-1.428-5.363.99-8.095V3.765c0-.843.657-1.605 1.386-1.605m11.79 5.636 3.38.008V3.765c0-.185-.137-.347-.193-.364H17.25zm-3.852 6.625 7.233.042V9.048L13.39 9.03l.003.027.005.04zm7.233 5.82v-4.538l-3.381-.016v4.918h3.21c.042-.008.17-.157.17-.364m-9.956.364h5.356l.003-4.927-4.686-.025c.431.661.647 1.44.616 2.227a3.8 3.8 0 0 1-1.233 2.675l-.028.025zM8.605 9.617l-.001.003c-.064.158-1.137 2.796 1.424 4.691l.12.098h.66l1.369.009V9.096q.001-.02.008-.038a.1.1 0 0 0 .009-.038l-6.908-.017v1.731c.924-.703 1.98-1.232 3.017-1.482a.24.24 0 0 1 .26.09.26.26 0 0 1 .042.275M5.46 3.4a.52.52 0 0 0-.171.364h.003v4l3.129.008V3.401zm4.173 0v4.37l6.398.016V3.401z"/></svg>