<svg width="24" height="24" viewBox="0 0 24 24" fill="none" xmlns="http://www.w3.org/2000/svg">
<path d="M17.4427 7.46501C17.3783 7.40339 17.3755 7.30255 17.4371 7.23812L20.5771 4.10367C20.8825 3.71151 20.9329 3.1765 20.7116 2.73112C20.4903 2.28294 20.0337 2.00003 19.5351 2.00283H4.9917C4.26621 2.00283 3.67798 2.58826 3.67798 3.30815V21.0532C3.67798 21.3698 3.93568 21.6275 4.25501 21.6275C4.57434 21.6275 4.83204 21.3698 4.83204 21.0532V12.7087H19.5323C20.0365 12.7087 20.4875 12.4286 20.7088 11.9804C20.9329 11.5294 20.8797 11.0056 20.5267 10.5546C20.5295 10.5546 17.4427 7.46501 17.4427 7.46501Z" fill="#313235"/>
</svg>
