<svg width="24" height="24" viewBox="0 0 24 24" fill="none" xmlns="http://www.w3.org/2000/svg">
<path d="M17.4426 7.46489C17.3782 7.40327 17.3754 7.30243 17.437 7.238L20.577 4.10355C20.8824 3.71139 20.9328 3.17638 20.7115 2.731C20.4902 2.28282 20.0336 1.99991 19.535 2.00271H4.9916C4.26611 2.00271 3.67787 2.58814 3.67787 3.30803V21.0531C3.67787 21.3697 3.93557 21.6274 4.2549 21.6274C4.57423 21.6274 4.83193 21.3697 4.83193 21.0531V12.7086H19.5322C20.0364 12.7086 20.4874 12.4285 20.7087 11.9803C20.9328 11.5293 20.8796 11.0055 20.5266 10.5545C20.5294 10.5545 17.4426 7.46489 17.4426 7.46489Z" fill="#313235"/>
</svg>
