<svg xmlns="http://www.w3.org/2000/svg" width="24" height="24" fill="none"><path fill="#0B2739" d="M21.841 7.46c0-.807-.655-1.462-1.462-1.462h-8.157v-.734c0-.807-.655-1.462-1.462-1.462H3.617c-.807 0-1.462.655-1.462 1.462v13.479c0 .806.655 1.462 1.462 1.462H20.38c.807 0 1.462-.655 1.462-1.462V7.46ZM5.592 8.796c.913 0 1.26.586 1.26 1.712s-.347 1.705-1.26 1.705-1.26-.58-1.26-1.705c0-1.124.347-1.712 1.26-1.712Zm0 .504c.39 0 .543.3.543 1.207 0 .908-.154 1.155-.543 1.155-.39 0-.543-.244-.543-1.155 0-.91.154-1.207.543-1.207Zm3.591-.504c.913 0 1.26.586 1.26 1.712s-.347 1.705-1.26 1.705-1.26-.58-1.26-1.705c0-1.124.347-1.712 1.26-1.712Zm0 .504c.39 0 .543.3.543 1.207 0 .908-.154 1.155-.543 1.155-.39 0-.543-.244-.543-1.155 0-.91.154-1.207.543-1.207Zm7.863 1.207c0-1.123.347-1.71 1.26-1.71s1.26.585 1.26 1.71c0 1.127-.347 1.706-1.26 1.706s-1.26-.58-1.26-1.705Zm1.8 0c0-.907-.153-1.207-.543-1.207-.389 0-.543.297-.543 1.207 0 .91.154 1.155.543 1.155.39 0 .544-.247.544-1.155Zm-6.834 1.194V9.41h-.53v-.46c.194-.028.522-.056.754-.056.336 0 .451.081.451.322v2.488h.465v.484h-1.694v-.487h.554Zm-6.66 5.4v-2.29h-.528v-.46c.194-.028.521-.056.754-.056.336 0 .451.08.451.322v2.487h.465v.485H4.799V17.1h.552Zm9.016-5.4h.552V9.41h-.527v-.46c.193-.028.521-.056.754-.056.336 0 .45.081.45.322v2.488h.466v.484h-1.695v-.487Zm-6.445 4.21c0-1.123.347-1.712 1.26-1.712s1.26.586 1.26 1.712-.347 1.706-1.26 1.706-1.26-.58-1.26-1.706Zm1.803 0c0-.908-.154-1.207-.543-1.207-.39 0-.543.296-.543 1.207 0 .91.154 1.154.543 1.154.39 0 .543-.247.543-1.154Zm8.58-1.712c.913 0 1.26.586 1.26 1.712s-.347 1.706-1.26 1.706-1.26-.58-1.26-1.706c0-1.123.347-1.712 1.26-1.712Zm-.003.505c.39 0 .544.3.544 1.207s-.154 1.154-.544 1.154c-.389 0-.543-.244-.543-1.154 0-.91.154-1.207.543-1.207Zm-6.29 2.4v-2.291h-.53v-.46a6.17 6.17 0 0 1 .753-.056c.336 0 .451.082.451.323v2.487h.465v.485h-1.694v-.488h.554Zm2.355 0h.552v-2.291h-.527v-.46c.193-.027.521-.056.754-.056.336 0 .45.082.45.323v2.487h.466v.485h-1.695v-.488Z"/></svg>