<svg width="24" height="24" fill="none" xmlns="http://www.w3.org/2000/svg"><path fill-rule="evenodd" clip-rule="evenodd" d="m12.143 2.001.151.002c1.975.028 9.392.742 9.392 9.874 0 9.115-7.347 9.792-9.322 9.81h-.199c-.249 0-.51-.004-.734-.01C9.501 21.63 2 20.869 2 11.818c0-9.072 7.515-9.778 9.392-9.811.182-.003.39-.006.597-.006l.154.001Zm.316 4.15c.264-.073.513-.187.726-.347l2.182-1.586c.125-.09.227-.202.327-.313l.029-.031a7.06 7.06 0 0 1 2.605 1.709c-.132.185-.241.389-.311.61l-.832 2.56a2.18 2.18 0 0 0-.104.852l-1.154.485a2.192 2.192 0 0 0-.557-.58l-2.18-1.583a2.109 2.109 0 0 0-.73-.342V6.151ZM8.317 4.216C8.185 4.12 8.078 4 7.972 3.88c-.916.352-1.832.89-2.616 1.705.109.168.204.348.266.541l.832 2.566c.092.269.123.563.1.857l1.194.552c.151-.227.339-.434.571-.6l2.182-1.585c.21-.16.46-.269.726-.339V6.148a2.147 2.147 0 0 1-.734-.352l-2.176-1.58Zm-.423 11.907a2.187 2.187 0 0 0-.768-.137H4.412c-.132 0-.26.014-.387.036-.378-.86-.641-1.88-.742-3.1l.062-.034c.033-.018.067-.035.098-.056l2.176-1.583a2.21 2.21 0 0 0 .527-.532l1.23.569c-.01.257.025.518.109.773l.974 3.003h.05l.023.03.023.031-.661 1Zm8.523-.095h2.731c.18 0 .356.028.533.067.367-.851.624-1.865.722-3.081a1.178 1.178 0 0 0-.087-.048c-.041-.021-.082-.042-.12-.07l-2.182-1.588a2.123 2.123 0 0 1-.53-.543l-1.173.493c.008.266-.023.538-.11.8l-.834 2.567c-.067.204-.165.389-.277.56l.596.972c.236-.081.482-.129.731-.129Zm-2.986 4.143.835-2.566c.081-.266.227-.515.41-.734l-.536-.874c-.291.132-.61.21-.947.21H10.46c-.353 0-.683-.095-.983-.246l-.582.88c.176.218.316.464.4.73l.832 2.563c.013.04.02.08.026.12.004.028.009.057.016.085.482.067.924.1 1.291.11.216.005.465.008.706.008h.185c.303-.003.653-.02 1.037-.06l.016-.09c.008-.046.015-.092.028-.136Z" fill="#313235"/></svg>