<svg xmlns="http://www.w3.org/2000/svg" width="24" height="24" fill="none"><path fill="#0B2739" d="m12.298 2.156.15.002c1.976.028 9.393.742 9.393 9.874 0 9.115-7.347 9.793-9.322 9.81h-.199c-.25 0-.51-.003-.734-.01-1.93-.047-9.431-.809-9.431-9.859 0-9.073 7.515-9.779 9.392-9.812.182-.003.39-.006.597-.006zm.316 4.15V7.74c.263.07.516.18.731.342l2.18 1.583c.226.16.409.358.557.58l1.154-.485a2.2 2.2 0 0 1 .104-.851l.832-2.56c.07-.222.179-.426.31-.611a7.06 7.06 0 0 0-2.604-1.709l-.029.031c-.1.111-.202.224-.327.314L13.34 5.959c-.213.16-.463.274-.726.347M8.471 4.371a2.2 2.2 0 0 1-.344-.336c-.916.353-1.832.89-2.616 1.705.109.169.204.348.266.541l.832 2.566c.092.269.123.563.1.857l1.194.552c.15-.227.339-.434.571-.6l2.182-1.585c.21-.16.46-.269.726-.339V6.303a2.2 2.2 0 0 1-.734-.352zm-.423 11.907.661-1-.022-.03-.022-.031h-.05l-.976-3.003a2.2 2.2 0 0 1-.109-.773l-1.23-.569c-.145.205-.322.39-.526.532l-2.177 1.583q-.046.03-.097.056-.032.016-.062.034c.1 1.22.364 2.24.742 3.1q.189-.035.387-.036H7.28c.26-.003.52.048.767.137m8.524-.095h2.731c.18 0 .356.028.532.067.367-.851.625-1.865.723-3.081q-.043-.026-.087-.048a1 1 0 0 1-.12-.07l-2.182-1.588a2.1 2.1 0 0 1-.53-.543l-1.173.493c.008.266-.023.537-.11.8l-.834 2.567c-.068.204-.165.389-.278.56l.597.972c.235-.081.482-.129.731-.129m-2.986 4.143.835-2.566c.081-.266.227-.515.409-.734l-.535-.874c-.291.132-.61.21-.947.21h-2.734c-.353 0-.683-.095-.983-.246l-.583.88c.177.218.317.464.4.73l.833 2.564q.018.058.026.118.006.044.016.086c.482.067.924.1 1.291.11.216.005.465.008.706.008h.185c.302-.003.653-.02 1.036-.06q.01-.045.017-.09a1 1 0 0 1 .028-.136"/></svg>