<svg width="24" height="24" fill="none" xmlns="http://www.w3.org/2000/svg"><path d="m12.143 2.001.151.002c1.975.028 9.392.742 9.392 9.874 0 9.115-7.347 9.792-9.322 9.81h-.199c-.249 0-.51-.004-.734-.01C9.501 21.63 2 20.869 2 11.818c0-9.072 7.515-9.778 9.392-9.811.182-.003.39-.006.597-.006l.154.001Zm.316 4.15v1.434c.264.07.516.18.732.342L15.37 9.51c.227.16.409.358.557.58l1.154-.485a2.18 2.18 0 0 1 .104-.851l.832-2.56c.07-.222.18-.426.31-.611a7.06 7.06 0 0 0-2.604-1.71l-.029.032c-.1.111-.202.224-.327.313l-2.182 1.586c-.213.16-.462.274-.726.347ZM8.317 4.216C8.185 4.12 8.078 4 7.972 3.88c-.916.352-1.832.89-2.616 1.705.109.168.204.348.266.541l.832 2.566c.092.269.123.563.1.857l1.194.552c.151-.227.339-.434.571-.6l2.182-1.585c.21-.16.46-.269.726-.339V6.148a2.147 2.147 0 0 1-.734-.352l-2.176-1.58Zm-.423 11.907.66-1c-.006-.011-.014-.02-.022-.03l-.022-.031h-.05l-.975-3.003a2.228 2.228 0 0 1-.11-.773l-1.23-.569a2.21 2.21 0 0 1-.526.532l-2.176 1.583c-.031.02-.065.038-.098.056l-.062.034c.1 1.22.364 2.24.742 3.1.126-.022.255-.036.387-.036h2.714c.26-.003.521.048.768.137Zm8.523-.095h2.731c.18 0 .356.028.533.067.367-.851.624-1.865.722-3.081a1.178 1.178 0 0 0-.087-.048c-.041-.021-.082-.042-.12-.07l-2.182-1.588a2.123 2.123 0 0 1-.53-.543l-1.173.493c.008.266-.023.538-.11.8l-.834 2.567c-.067.204-.165.389-.277.56l.596.972c.236-.081.482-.129.731-.129Zm-2.986 4.143.835-2.566c.081-.266.227-.515.41-.734l-.536-.874c-.291.132-.61.21-.947.21H10.46c-.353 0-.683-.095-.983-.246l-.582.88c.176.218.316.464.4.73l.832 2.563c.013.04.02.08.026.12.004.028.009.057.016.085.482.067.924.1 1.291.11.216.005.465.008.706.008h.185c.303-.003.653-.02 1.037-.06l.016-.09c.008-.046.015-.092.028-.136Z" fill="#313235"/></svg>