<svg width="24" height="24" viewBox="0 0 24 24" fill="none" xmlns="http://www.w3.org/2000/svg">
<path fill-rule="evenodd" clip-rule="evenodd" d="M21.5882 12.042C21.7955 11.5322 21.6723 10.9636 21.2633 10.563L12.9888 2.45655C12.3698 1.84871 11.3165 1.84871 10.6975 2.45655L2.42298 10.563C2.01401 10.9636 1.89076 11.5322 2.10085 12.0448C2.33334 12.6106 2.91037 12.9776 3.57143 12.9776H4.19608V20.2521C4.19608 21.042 4.89917 21.6862 5.76471 21.6862H6.62185V12.6526C6.62185 12.3109 6.89917 12.0364 7.2381 12.0364H16.4174C16.7591 12.0364 17.0336 12.3137 17.0336 12.6526V21.6834H17.8039C18.6695 21.6834 19.3725 21.042 19.3725 20.2493V12.9748H20.1176C20.7787 12.9748 21.3557 12.6078 21.5882 12.042ZM7.85435 15.2969V13.2437H15.8011V15.2969H7.85435ZM7.85435 16.5014V18.5546H15.8011V16.5014H7.85435ZM7.85435 19.6358V21.6862H15.8039V19.6358H7.85435Z" fill="#313235"/>
</svg>
