<svg width="24" height="24" fill="none" xmlns="http://www.w3.org/2000/svg"><path fill-rule="evenodd" clip-rule="evenodd" d="M21.709 8.564c-.002.017-.003.034-.003.052l.003 10.28c0 2.04-1.46 2.79-2.709 2.813h-.143c-1.327-.017-2.79-.768-2.79-2.824v-3.874a1.54 1.54 0 0 0-1.54-1.535h-.48v6.854c0 .734-.658 1.379-1.408 1.379H3.434c-.75 0-1.409-.645-1.409-1.378V3.416c0-.72.673-1.378 1.41-1.378h9.204c.737 0 1.409.658 1.409 1.378v8.852h.479a2.748 2.748 0 0 1 2.748 2.742v3.874c0 1.387.952 1.608 1.52 1.616h.183c.568-.01 1.524-.235 1.524-1.605l-.006-8.098a3.021 3.021 0 0 1-1.291.322c-.05.003-.11.003-.168.003h-.073c-.527-.008-2.504-.199-2.504-2.63 0-2.076 1.428-2.51 2.173-2.594L15.81 3.048a.602.602 0 1 1 .86-.846l4.333 4.378c.028.025.053.05.078.078l.009.009c0 .002 0 .002.003.005.355.392.619.97.619 1.84 0 .019-.002.036-.003.052Zm-10.065.262c0 .628-.476 1.16-1.039 1.16h-5c-.563 0-1.042-.532-1.042-1.16v-3.09c0-.616.485-1.159 1.042-1.159h5c.555 0 1.04.543 1.04 1.16v3.09Zm8.86-.277-.002.013a.04.04 0 0 0-.003.012v.143c-.023.451-.185 1.188-1.311 1.207l-.149.003h-.056c-1.313-.02-1.313-1.039-1.313-1.423 0-.384 0-1.398 1.288-1.406h.045l.162.003c.482.011.785.151.984.342l.047.05c.303.336.306.798.306 1.028.002.003.002.017.002.028Z" fill="#313235"/></svg>