<svg width="24" height="24" fill="none" xmlns="http://www.w3.org/2000/svg"><path fill-rule="evenodd" clip-rule="evenodd" d="M21.714 7.496c0-.692-.263-1.104-.487-1.325a1.444 1.444 0 0 0-.84-.443l-.104-.007-.02-.001c-.549-.02-2.216-.006-2.216-.006V3.577c0-.868-.677-1.571-1.512-1.571-.832 0-1.513.706-1.513 1.571v2.137h-1.938c-.639 0-1.025.252-1.238.465-.219.222-.482.63-.482 1.322 0 .695.263 1.101.485 1.323.098.095.207.173.325.238l.01.287v.001l.029.72h.213c1.666 0 2.798.644 3.507 1.916.305.546.53 1.21.68 1.994.01.06.024.116.037.174.015.066.03.133.042.204.227.113.442.247.622.426.495.496.747 1.196.747 2.084 0 .888-.254 1.589-.75 2.084a2.34 2.34 0 0 1-.936.555l-.028.1c-.24.87-.456 1.628-1.199 2.08h3.02c.056 0 .11-.006.168-.02 1.846-.41 2.14-2.05 2.154-3.757.003-.075.081-1.826.174-3.781l.154-3.304v-.004l.084-1.762a1.43 1.43 0 0 0 .325-.238c.224-.219.487-.628.487-1.325Zm-1.23 0c0 .137-.02.314-.109.403-.092.09-.28.104-.384.104h-6.904c-.126 0-.297-.017-.384-.104-.087-.087-.106-.266-.106-.403 0-.135.02-.317.106-.404.09-.09.258-.106.384-.106h6.904c.13 0 .297.017.384.106.09.087.11.27.11.404Zm-5.98 6.762c-.185-.9-.498-1.493-.975-1.86-.327-.252-.74-.395-1.249-.446a4.169 4.169 0 0 0-.434-.025.846.846 0 0 0-.084.006c-.093 0-.18.003-.27.011l-3.856.003a5.06 5.06 0 0 0-.743-.003h-.075a.56.56 0 0 1-.073.014c-1.025.115-1.79.569-2.16 2.3h9.92Zm-.32 5.15a3.575 3.575 0 0 1-.159.455c-.16.364-.364.476-.877.53l-.232.002-.717.014a4.54 4.54 0 0 1-.44.008c-.095 0-.19-.003-.305-.008l-3.855.003c-.134.005-.972.014-1.103.014-1.009 0-1.278-.188-1.566-1.017h9.255ZM4.21 16.774c.487.504 1.014.76 1.569.76h.036c.54-.012 1.059-.27 1.532-.76.376-.39.602-.804.69-1.238H3.517c.087.434.32.849.692 1.238Zm11.266 2.602.025-.092c.336-.11.628-.277.857-.516.46-.456.692-1.106.692-1.927 0-.636-.143-1.165-.42-1.585a1.977 1.977 0 0 0-.269-.342 2.108 2.108 0 0 0-.577-.395c-.045-.28-.1-.538-.162-.787l-.055-.191a6.993 6.993 0 0 0-.161-.49l-.035-.093a4.085 4.085 0 0 0-.33-.685 3.465 3.465 0 0 0-.47-.625 2.964 2.964 0 0 0-1.58-.857 4.923 4.923 0 0 0-.764-.112c-.047-.003-.092-.008-.138-.012-.08-.008-.161-.016-.249-.016l-.044.001-.04.002c-.12.002-.235.008-.31.014l-3.768.002a5.9 5.9 0 0 0-.832-.002h-.177a.554.554 0 0 0-.204.039c-2.314.336-2.938 2.252-3.174 3.812-.213.107-.412.23-.577.398-.456.46-.689 1.106-.689 1.927 0 .82.233 1.468.692 1.927.244.241.538.41.88.518.406 1.367.834 2.398 2.896 2.398l4.924-.003.317.003h.512s.734-.003.98-.02c.306-.016.55-.097.771-.181a1.903 1.903 0 0 0 .54-.311c.124-.101.236-.208.329-.33a2.25 2.25 0 0 0 .254-.418c.149-.32.253-.675.356-1.05Z" fill="#313235"/></svg>