<svg width="24" height="24" viewBox="0 0 24 24" fill="none" xmlns="http://www.w3.org/2000/svg">
<path fill-rule="evenodd" clip-rule="evenodd" d="M21.7142 7.4958C21.7142 6.80392 21.4509 6.39216 21.2268 6.17087C21.0643 6.00561 20.7982 5.78712 20.3865 5.7283C20.3601 5.7259 20.3213 5.7235 20.2826 5.7211L20.2632 5.71989C19.7142 5.70029 18.0475 5.71429 18.0475 5.71429V3.57704C18.0475 2.70869 17.3697 2.00562 16.5349 2.00562C15.703 2.00562 15.0223 2.7115 15.0223 3.57704V5.71429H13.0839C12.4453 5.71429 12.0587 5.96639 11.8459 6.17928C11.6274 6.40056 11.3641 6.80953 11.3641 7.5014C11.3641 8.19608 11.6274 8.60224 11.8487 8.82353C11.9467 8.91877 12.0559 8.9972 12.1736 9.06162C12.1768 9.1402 12.1804 9.23528 12.1847 9.34916L12.1847 9.35023L12.1847 9.35074L12.1847 9.35116C12.1918 9.53737 12.2007 9.77367 12.2128 10.07H12.4257C14.0923 10.07 15.224 10.7143 15.9327 11.986C16.238 12.5322 16.4621 13.1961 16.6134 13.9804C16.6238 14.0391 16.6367 14.0961 16.6497 14.1537L16.6497 14.1537C16.6647 14.2198 16.6798 14.2868 16.6918 14.3585C16.9187 14.4706 17.1344 14.605 17.3136 14.7843C17.8094 15.2801 18.0615 15.9804 18.0615 16.8683C18.0615 17.7563 17.8066 18.4566 17.3108 18.9524C17.0531 19.2073 16.7366 19.3893 16.3753 19.507L16.3472 19.6078C16.1063 20.4762 15.8907 21.2353 15.1484 21.6862H18.168C18.224 21.6862 18.2772 21.6806 18.336 21.6666C20.182 21.2577 20.4761 19.6162 20.4901 17.9103C20.4929 17.8347 20.5713 16.084 20.6638 14.1288C20.7324 12.6715 20.782 11.6055 20.8183 10.8246L20.8183 10.8238L20.8184 10.8231L20.8184 10.8213C20.8621 9.8828 20.8866 9.35693 20.9019 9.05882C21.0195 8.9944 21.1315 8.91596 21.2268 8.82073C21.4509 8.60224 21.7142 8.19328 21.7142 7.4958ZM20.4845 7.4958C20.4845 7.63305 20.4649 7.80952 20.3752 7.89916C20.2828 7.9888 20.0951 8.0028 19.9915 8.0028H13.0867C12.9607 8.0028 12.7898 7.98599 12.703 7.89916C12.6162 7.81233 12.5966 7.63305 12.5966 7.4958C12.5966 7.36135 12.6162 7.17927 12.703 7.09244C12.7926 7.0028 12.9607 6.986 13.0867 6.986H19.9915C20.1203 6.986 20.2884 7.0028 20.3752 7.09244C20.4649 7.17927 20.4845 7.36135 20.4845 7.4958ZM13.5965 14.2577H14.5041C14.3192 13.3585 14.0055 12.7647 13.5293 12.3977C13.2016 12.1456 12.7898 12.0028 12.28 11.9524C12.1428 11.9384 12.0027 11.9272 11.8459 11.9272C11.8178 11.9272 11.7898 11.93 11.7618 11.9328C11.6694 11.9328 11.5825 11.9356 11.4929 11.944L7.63578 11.9468C7.32205 11.9272 7.12037 11.9272 6.89348 11.944H6.81785C6.79544 11.9496 6.77023 11.9552 6.74502 11.958C5.71982 12.0728 4.95511 12.5266 4.58537 14.2577H13.5965ZM14.1848 19.4089C14.1288 19.5938 14.0811 19.7423 14.0251 19.8627C13.8655 20.2269 13.661 20.3389 13.1484 20.3921L12.9159 20.3949L12.1988 20.4089C12.0559 20.4201 11.9131 20.4201 11.759 20.4173C11.6638 20.4173 11.5685 20.4145 11.4537 20.4089L7.59936 20.4117C7.46491 20.4173 6.62738 20.4257 6.49573 20.4257C5.48732 20.4257 5.21842 20.2381 4.9299 19.4089H14.1848ZM4.21002 16.7731C4.69741 17.2773 5.22402 17.5322 5.77864 17.5322H5.81505C6.35567 17.521 6.87388 17.2633 7.34726 16.7731C7.72261 16.3837 7.9495 15.9692 8.03634 15.535H3.51814C3.60497 15.9692 3.83747 16.3837 4.21002 16.7731ZM15.4761 19.3753L15.5013 19.2829C15.8374 19.1736 16.1288 19.0056 16.3584 18.7675C16.8178 18.3109 17.0503 17.661 17.0503 16.8403C17.0503 16.2045 16.9075 15.6751 16.6302 15.2549C16.5517 15.1316 16.4649 15.0168 16.3612 14.9132C16.196 14.7479 15.9971 14.6218 15.7842 14.5182C15.7394 14.2381 15.6834 13.9804 15.6218 13.7311C15.6043 13.665 15.5854 13.6016 15.5671 13.5399C15.559 13.5128 15.551 13.4859 15.5433 13.4594C15.5013 13.3165 15.4537 13.1821 15.4061 13.0504C15.3941 13.0196 15.3824 12.9885 15.3707 12.9575C15.3441 12.887 15.3176 12.8168 15.2884 12.7507C15.2128 12.5798 15.1316 12.4202 15.0419 12.2717C14.8991 12.0392 14.7478 11.8263 14.5713 11.6471C14.2632 11.3249 13.8935 11.0868 13.4677 10.9244C13.3192 10.8683 13.1568 10.8263 12.9915 10.7899C12.7506 10.7367 12.4985 10.6947 12.2268 10.6779C12.1802 10.6748 12.1348 10.6703 12.0892 10.6658C12.0087 10.6579 11.9279 10.6499 11.8403 10.6499C11.8245 10.6499 11.8102 10.6506 11.7962 10.6513C11.7829 10.652 11.7699 10.6527 11.7562 10.6527C11.6358 10.6555 11.5209 10.6611 11.4453 10.6667L7.6778 10.6695C7.39488 10.6471 7.03914 10.6499 6.84586 10.6667H6.66939C6.59657 10.6667 6.52934 10.6807 6.46491 10.7059C4.15119 11.042 3.52654 12.958 3.29125 14.5182C3.07837 14.6246 2.87949 14.7479 2.71422 14.916C2.25764 15.3753 2.02515 16.0224 2.02515 16.8431C2.02515 17.6638 2.25764 18.3109 2.71702 18.7703C2.96072 19.0112 3.25484 19.1792 3.59657 19.2885C4.00273 20.6554 4.4313 21.6862 6.49292 21.6862H7.64138L11.4173 21.6834L11.7338 21.6862H12.2464C12.2464 21.6862 12.9803 21.6834 13.2268 21.6666C13.5321 21.6498 13.7758 21.5686 13.9971 21.4846C14.182 21.4145 14.336 21.3277 14.4705 21.2269C14.4957 21.2101 14.5153 21.1932 14.5377 21.1736C14.661 21.0728 14.773 20.9664 14.8655 20.8431C14.9635 20.7143 15.0503 20.577 15.1204 20.4257C15.2688 20.1064 15.3725 19.7507 15.4761 19.3753Z" fill="#313235"/>
</svg>
