<svg width="24" height="24" fill="none" xmlns="http://www.w3.org/2000/svg"><path d="M21.714 7.496c0-.692-.263-1.104-.487-1.325a1.444 1.444 0 0 0-.84-.443l-.104-.007-.02-.001c-.549-.02-2.215-.006-2.215-.006V3.577c0-.868-.678-1.571-1.513-1.571-.832 0-1.512.706-1.512 1.571v2.137h-1.939c-.639 0-1.025.252-1.238.465-.218.222-.482.63-.482 1.322 0 .695.264 1.101.485 1.323.098.095.207.173.325.238l.01.287v.001l.029.72h.213c1.667 0 2.798.644 3.507 1.916.305.546.53 1.21.68 1.994.011.06.024.116.037.174.015.066.03.133.042.204.227.113.443.247.622.426.496.496.748 1.196.748 2.084 0 .888-.255 1.589-.75 2.084a2.34 2.34 0 0 1-.937.555l-.027.1c-.241.87-.457 1.628-1.2 2.08h3.02c.056 0 .11-.006.168-.02 1.846-.41 2.14-2.05 2.154-3.757.003-.075.082-1.826.174-3.781.069-1.457.118-2.524.154-3.304v-.004l.084-1.762c.118-.065.23-.143.325-.238.224-.219.487-.628.487-1.325Zm-1.23 0c0 .137-.019.314-.109.403-.092.09-.28.104-.383.104h-6.905c-.126 0-.297-.017-.384-.104-.087-.087-.106-.266-.106-.403 0-.135.02-.317.106-.404.09-.09.258-.106.384-.106h6.905c.129 0 .297.017.383.106.09.087.11.27.11.404Zm-5.98 6.762H4.586c.37-1.731 1.134-2.185 2.16-2.3a.56.56 0 0 0 .072-.014h.076a5.06 5.06 0 0 1 .742.003l3.857-.003c.09-.008.177-.011.27-.011.027-.003.055-.006.083-.006.157 0 .297.011.434.025.51.05.922.194 1.25.446.476.367.79.96.974 1.86Zm-.319 5.15a3.576 3.576 0 0 1-.16.455c-.16.364-.364.476-.876.53l-.233.002-.717.014a4.538 4.538 0 0 1-.44.008c-.095 0-.19-.003-.305-.008l-3.854.003c-.135.005-.972.014-1.104.014-1.008 0-1.277-.188-1.566-1.017h9.255ZM4.21 16.774c-.372-.39-.605-.804-.692-1.238h4.519c-.087.434-.314.849-.69 1.238-.473.49-.991.748-1.532.76H5.78c-.555 0-1.081-.256-1.569-.76Zm11.266 2.602.026-.092c.336-.11.627-.277.857-.516.46-.456.692-1.106.692-1.927 0-.636-.143-1.165-.42-1.585a1.976 1.976 0 0 0-.27-.342 2.11 2.11 0 0 0-.577-.395c-.044-.28-.1-.538-.162-.787a6.35 6.35 0 0 0-.055-.191l-.023-.08a6.992 6.992 0 0 0-.138-.41l-.035-.093a4.281 4.281 0 0 0-.329-.686 3.47 3.47 0 0 0-.47-.624 2.965 2.965 0 0 0-1.58-.857 4.923 4.923 0 0 0-.765-.112l-.138-.012c-.08-.008-.16-.016-.248-.016a.85.85 0 0 0-.044.001l-.04.002c-.121.002-.236.008-.312.014l-3.767.002a5.9 5.9 0 0 0-.832-.002H6.67a.554.554 0 0 0-.205.039c-2.314.336-2.938 2.252-3.174 3.812-.212.107-.411.23-.577.398-.456.46-.689 1.106-.689 1.927 0 .82.233 1.468.692 1.927.244.241.538.41.88.518.406 1.367.835 2.398 2.896 2.398l4.925-.003.316.003h.513s.733-.003.98-.02c.305-.016.55-.097.77-.181a1.902 1.902 0 0 0 .541-.311c.123-.101.235-.208.328-.33.098-.13.185-.267.255-.418.148-.32.252-.675.355-1.05Z" fill="#313235"/></svg>