<svg width="24" height="24" viewBox="0 0 24 24" fill="none" xmlns="http://www.w3.org/2000/svg">
<path fill-rule="evenodd" clip-rule="evenodd" d="M21.7142 7.4958C21.7142 6.80392 21.4509 6.39216 21.2268 6.17087C21.0644 6.00561 20.7983 5.78712 20.3865 5.7283C20.3601 5.7259 20.3214 5.7235 20.2826 5.7211L20.2633 5.71989C19.7142 5.70029 18.0476 5.71429 18.0476 5.71429V3.57704C18.0476 2.70869 17.3697 2.00562 16.535 2.00562C15.703 2.00562 15.0224 2.7115 15.0224 3.57704V5.71429H13.084C12.4454 5.71429 12.0588 5.96639 11.8459 6.17928C11.6274 6.40056 11.3641 6.80953 11.3641 7.5014C11.3641 8.19608 11.6274 8.60224 11.8487 8.82353C11.9468 8.91877 12.056 8.9972 12.1736 9.06162C12.1768 9.1402 12.1804 9.23528 12.1847 9.34916L12.1848 9.35023L12.1848 9.35074L12.1848 9.35116C12.1918 9.53737 12.2007 9.77367 12.2129 10.07H12.4257C14.0924 10.07 15.2241 10.7143 15.9327 11.986C16.2381 12.5322 16.4622 13.1961 16.6134 13.9804C16.6239 14.0391 16.6367 14.0961 16.6498 14.1537L16.6498 14.1537C16.6647 14.2198 16.6799 14.2868 16.6918 14.3585C16.9187 14.4706 17.1344 14.605 17.3137 14.7843C17.8095 15.2801 18.0616 15.9804 18.0616 16.8683C18.0616 17.7563 17.8067 18.4566 17.3109 18.9524C17.0532 19.2073 16.7367 19.3893 16.3753 19.507L16.3473 19.6078C16.1064 20.4762 15.8907 21.2353 15.1484 21.6862H18.168C18.2241 21.6862 18.2773 21.6806 18.3361 21.6666C20.182 21.2577 20.4761 19.6162 20.4902 17.9103C20.493 17.8347 20.5714 16.084 20.6638 14.1288C20.7324 12.6715 20.782 11.6055 20.8184 10.8246L20.8184 10.8238L20.8184 10.8231L20.8185 10.8213C20.8622 9.8828 20.8866 9.35693 20.9019 9.05882C21.0196 8.9944 21.1316 8.91596 21.2268 8.82073C21.4509 8.60224 21.7142 8.19328 21.7142 7.4958ZM20.4846 7.4958C20.4846 7.63305 20.4649 7.80952 20.3753 7.89916C20.2829 7.9888 20.0952 8.0028 19.9916 8.0028H13.0868C12.9608 8.0028 12.7899 7.98599 12.7031 7.89916C12.6162 7.81233 12.5966 7.63305 12.5966 7.4958C12.5966 7.36135 12.6162 7.17927 12.7031 7.09244C12.7927 7.0028 12.9608 6.986 13.0868 6.986H19.9916C20.1204 6.986 20.2885 7.0028 20.3753 7.09244C20.4649 7.17927 20.4846 7.36135 20.4846 7.4958ZM13.5966 14.2577H14.5042C14.3193 13.3585 14.0056 12.7647 13.5294 12.3977C13.2017 12.1456 12.7899 12.0028 12.2801 11.9524C12.1428 11.9384 12.0028 11.9272 11.8459 11.9272C11.8179 11.9272 11.7899 11.93 11.7619 11.9328C11.6694 11.9328 11.5826 11.9356 11.493 11.944L7.63584 11.9468C7.32211 11.9272 7.12043 11.9272 6.89354 11.944H6.81791C6.79551 11.9496 6.7703 11.9552 6.74509 11.958C5.71988 12.0728 4.95517 12.5266 4.58543 14.2577H13.5966ZM14.1848 19.4089C14.1288 19.5938 14.0812 19.7423 14.0252 19.8627C13.8655 20.2269 13.661 20.3389 13.1484 20.3921L12.9159 20.3949L12.1989 20.4089C12.056 20.4201 11.9131 20.4201 11.7591 20.4173C11.6638 20.4173 11.5686 20.4145 11.4538 20.4089L7.59943 20.4117C7.46497 20.4173 6.62744 20.4257 6.49579 20.4257C5.48738 20.4257 5.21848 20.2381 4.92996 19.4089H14.1848ZM4.21008 16.7731C4.69747 17.2773 5.22408 17.5322 5.7787 17.5322H5.81512C6.35573 17.521 6.87394 17.2633 7.34732 16.7731C7.72267 16.3837 7.94956 15.9692 8.0364 15.535H3.5182C3.60504 15.9692 3.83753 16.3837 4.21008 16.7731ZM15.4762 19.3753L15.5014 19.2829C15.8375 19.1736 16.1288 19.0056 16.3585 18.7675C16.8179 18.3109 17.0504 17.661 17.0504 16.8403C17.0504 16.2045 16.9075 15.6751 16.6302 15.2549C16.5518 15.1316 16.465 15.0168 16.3613 14.9132C16.196 14.7479 15.9972 14.6218 15.7843 14.5182C15.7395 14.2381 15.6834 13.9804 15.6218 13.7311C15.6043 13.665 15.5855 13.6016 15.5671 13.5399C15.5591 13.5128 15.5511 13.4859 15.5434 13.4594C15.5014 13.3165 15.4537 13.1821 15.4061 13.0504C15.3941 13.0196 15.3824 12.9885 15.3707 12.9575C15.3441 12.887 15.3177 12.8168 15.2885 12.7507C15.2129 12.5798 15.1316 12.4202 15.042 12.2717C14.8991 12.0392 14.7479 11.8263 14.5714 11.6471C14.2633 11.3249 13.8935 11.0868 13.4678 10.9244C13.3193 10.8683 13.1568 10.8263 12.9916 10.7899C12.7507 10.7367 12.4986 10.6947 12.2269 10.6779C12.1803 10.6748 12.1348 10.6703 12.0893 10.6658C12.0088 10.6579 11.928 10.6499 11.8403 10.6499C11.8245 10.6499 11.8102 10.6506 11.7963 10.6513C11.783 10.652 11.77 10.6527 11.7563 10.6527C11.6358 10.6555 11.521 10.6611 11.4454 10.6667L7.67786 10.6695C7.39494 10.6471 7.0392 10.6499 6.84593 10.6667H6.66946C6.59663 10.6667 6.5294 10.6807 6.46497 10.7059C4.15125 11.042 3.5266 12.958 3.29131 14.5182C3.07843 14.6246 2.87955 14.7479 2.71428 14.916C2.2577 15.3753 2.02521 16.0224 2.02521 16.8431C2.02521 17.6638 2.2577 18.3109 2.71708 18.7703C2.96078 19.0112 3.2549 19.1792 3.59663 19.2885C4.00279 20.6554 4.43137 21.6862 6.49299 21.6862H7.64144L11.4173 21.6834L11.7339 21.6862H12.2465C12.2465 21.6862 12.9804 21.6834 13.2269 21.6666C13.5322 21.6498 13.7759 21.5686 13.9972 21.4846C14.182 21.4145 14.3361 21.3277 14.4706 21.2269C14.4958 21.2101 14.5154 21.1932 14.5378 21.1736C14.661 21.0728 14.7731 20.9664 14.8655 20.8431C14.9636 20.7143 15.0504 20.577 15.1204 20.4257C15.2689 20.1064 15.3725 19.7507 15.4762 19.3753Z" fill="#313235"/>
</svg>
