<svg width="24" height="24" viewBox="0 0 24 24" fill="none" xmlns="http://www.w3.org/2000/svg">
<path d="M14.3896 18.1637C14.3896 17.8808 14.3504 17.6231 14.2719 17.3906C15.1291 17.1525 15.6389 16.4494 15.6389 15.441C15.6389 15.1581 15.5969 14.8976 15.5212 14.6651C16.37 14.4242 16.8742 13.724 16.8742 12.7212C16.8742 12.4747 16.8434 12.245 16.7845 12.0377H19.6865C21.0198 12.0377 21.8489 11.2198 21.8489 9.90324C21.8489 8.63714 21.0786 7.86123 19.7313 7.77439H12.3027C12.8798 7.43546 13.2831 7.13014 13.5745 6.76599C13.863 6.40745 14.0058 5.97888 14.0058 5.55871C14.0058 5.15535 13.8742 4.75759 13.6081 4.42706C13.0871 3.7772 12.1991 3.61754 11.3448 4.0181C9.89659 4.69877 7.56886 5.84443 5.69772 6.76599C4.53246 7.34022 3.52405 7.83602 3.22153 7.97607C2.90221 8.12173 2.15991 8.46627 2.15991 9.24778V17.0349C2.15991 18.0181 2.46803 18.8556 3.02546 19.3962C3.58008 19.934 4.35599 20.2057 5.32797 20.2057H12.3252C13.5997 20.2001 14.3896 19.4214 14.3896 18.1637Z" fill="#313235"/>
</svg>
