<svg width="24" height="24" viewBox="0 0 24 24" fill="none" xmlns="http://www.w3.org/2000/svg">
<path d="M14.758 2.15997H6.97371C5.99052 2.15997 5.15019 2.4681 4.60957 3.02552C4.07176 3.58014 3.80005 4.35605 3.80005 5.32523V12.3224C3.80005 13.5941 4.58156 14.384 5.83646 14.384C6.11937 14.384 6.37707 14.3448 6.60957 14.2664C6.84766 15.1235 7.55074 15.6333 8.55634 15.6333C8.84205 15.6333 9.10256 15.5941 9.33225 15.5157C9.57595 16.3644 10.2734 16.8686 11.2762 16.8686C11.5227 16.8686 11.7524 16.8378 11.9597 16.779V19.6809C11.9597 21.0143 12.7776 21.8434 14.0941 21.8434C15.3602 21.8434 16.1362 21.0703 16.223 19.7258C16.223 19.7118 16.2258 19.695 16.2258 19.6809V12.2972C16.5647 12.8742 16.8672 13.2776 17.2342 13.5689C17.5927 13.8546 18.0213 14.0003 18.4415 14.0003C18.8448 14.0003 19.2426 13.8686 19.5731 13.6025C20.223 13.0815 20.3826 12.1936 19.9821 11.342C19.3014 9.89385 18.1558 7.56332 17.237 5.69498C16.6628 4.52972 16.167 3.52412 16.0269 3.21879C15.8841 2.90227 15.5395 2.15997 14.758 2.15997Z" fill="#313235"/>
</svg>
