<svg width="24" height="24" viewBox="0 0 24 24" fill="none" xmlns="http://www.w3.org/2000/svg">
<path d="M18.1638 9.61934C17.8809 9.61934 17.6232 9.65856 17.3907 9.73699C17.1526 8.87985 16.4495 8.37004 15.4411 8.37004C15.1582 8.37004 14.8977 8.41206 14.6652 8.48769C14.4243 7.63895 13.724 7.13475 12.7212 7.13475C12.4747 7.13475 12.245 7.16556 12.0378 7.22439V4.32243C12.0378 2.9891 11.2198 2.15997 9.9033 2.15997C8.6372 2.15997 7.86129 2.93028 7.77446 4.27762V11.7062C7.43552 11.1291 7.1302 10.7258 6.76605 10.4345C6.40751 10.146 5.97894 10.0031 5.55877 10.0031C5.15541 10.0031 4.75765 10.1347 4.42712 10.4009C3.77726 10.9219 3.6176 11.8098 4.01816 12.6642C4.69883 14.1123 5.84449 16.4401 6.76605 18.3112C7.34028 19.4765 7.83608 20.4849 7.97614 20.7874C8.12179 21.1067 8.46633 21.849 9.24784 21.849H17.0349C18.0181 21.849 18.8557 21.5409 19.3963 20.9835C19.9341 20.4288 20.2058 19.6529 20.2058 18.6809V11.6838C20.2002 10.4093 19.4215 9.61934 18.1638 9.61934Z" fill="#313235"/>
</svg>
