<svg xmlns="http://www.w3.org/2000/svg" width="24" height="24" fill="none"><path fill="#0B2739" d="M9.614 18.159q0-.424.118-.773c-.857-.238-1.367-.942-1.367-1.95q.002-.425.118-.776c-.849-.24-1.353-.941-1.353-1.944q0-.37.09-.683H4.316c-1.333 0-2.162-.818-2.162-2.135 0-1.266.77-2.042 2.118-2.129H11.7c-.577-.339-.98-.644-1.271-1.008a1.93 1.93 0 0 1-.432-1.207c0-.404.132-.801.398-1.132.52-.65 1.409-.81 2.263-.409 1.448.68 3.776 1.826 5.647 2.748 1.165.574 2.174 1.07 2.476 1.21.32.146 1.062.49 1.062 1.272v7.787c0 .983-.308 1.82-.866 2.361-.554.538-1.33.81-2.302.81h-6.997c-1.275-.006-2.065-.785-2.065-2.042"/></svg>