<svg width="24" height="24" viewBox="0 0 24 24" fill="none" xmlns="http://www.w3.org/2000/svg">
<path d="M9.61928 18.1637C9.61928 17.8808 9.6585 17.6231 9.73693 17.3906C8.87979 17.1525 8.36998 16.4494 8.36998 15.441C8.36998 15.1581 8.412 14.8976 8.48763 14.6651C7.63889 14.4242 7.13469 13.724 7.13469 12.7212C7.13469 12.4747 7.1655 12.245 7.22433 12.0377H4.32237C2.98904 12.0377 2.15991 11.2198 2.15991 9.90324C2.15991 8.63714 2.93022 7.86123 4.27755 7.77439H11.7061C11.1291 7.43546 10.7257 7.13014 10.4344 6.76599C10.1459 6.40745 10.003 5.97888 10.003 5.55871C10.003 5.15535 10.1347 4.75759 10.4008 4.42706C10.9218 3.7772 11.8098 3.61754 12.6641 4.0181C14.1123 4.69877 16.44 5.84443 18.3111 6.76599C19.4764 7.34022 20.4848 7.83602 20.7873 7.97607C21.1066 8.12173 21.8489 8.46627 21.8489 9.24778V17.0349C21.8489 18.0181 21.5408 18.8556 20.9834 19.3962C20.4288 19.934 19.6529 20.2057 18.6809 20.2057H11.6837C10.4092 20.2001 9.61928 19.4214 9.61928 18.1637Z" fill="#313235"/>
</svg>
