<svg width="24" height="24" viewBox="0 0 24 24" fill="none" xmlns="http://www.w3.org/2000/svg">
<path fill-rule="evenodd" clip-rule="evenodd" d="M21.6848 15.5798C21.6841 15.5735 21.6834 15.5672 21.6834 15.5602C21.6834 15.5574 21.6834 15.5518 21.6778 15.549L21.6694 15.4706L21.6693 15.4678C21.6665 15.4238 21.6636 15.3772 21.6526 15.3333L20.1288 3.23249C19.9972 2.51541 19.4481 2.01681 18.7927 2.01681L4.89075 2C4.19887 2 3.63865 2.56583 3.64145 3.20168L2.0028 15.4818C2.0028 15.4902 2.0035 15.4979 2.0042 15.5056C2.0049 15.5133 2.0056 15.521 2.0056 15.5294C2.0056 15.542 2.0042 15.5532 2.0028 15.5644C2.0014 15.5756 2 15.5868 2 15.5994V20.4285C2 21.1232 2.56022 21.6862 3.2521 21.6862H20.4341C21.126 21.6862 21.6862 21.1204 21.6862 20.4285V15.5994C21.6862 15.5924 21.6855 15.5861 21.6848 15.5798ZM20.7086 14.3781C20.6218 14.3585 20.5294 14.3445 20.4341 14.3445V14.3417H3.2549C3.16246 14.3417 3.07003 14.3557 2.98039 14.3753L4.46218 3.2549C4.46218 3.0168 4.65546 2.82073 4.89355 2.82073L18.7955 2.83753C19.0476 2.83753 19.2661 3.06162 19.3221 3.35854L20.7086 14.3781ZM5.91036 4.60504C5.42576 4.60504 5.14565 4.42857 5.14565 4.05322C5.14565 3.67507 5.42856 3.4986 5.91036 3.4986C6.39215 3.4986 6.67506 3.67507 6.67506 4.05322C6.67506 4.42857 6.39495 4.60504 5.91036 4.60504ZM13.591 8.40335C13.591 7.98878 13.4201 7.0252 11.8431 7.0252C10.2661 7.0252 10.098 7.98878 10.098 8.40335C10.098 8.81791 10.2661 9.7815 11.8431 9.7815C13.4201 9.7815 13.591 8.81791 13.591 8.40335ZM12.7703 8.40615C12.7703 8.57141 12.7703 8.96077 11.8431 8.96077C10.9159 8.96077 10.9159 8.57422 10.9159 8.40615C10.9159 8.23808 10.9159 7.84873 11.8431 7.84873C12.7703 7.84873 12.7703 8.24088 12.7703 8.40615ZM18.154 4.05322C18.154 3.67507 17.8711 3.4986 17.3893 3.4986C16.9047 3.4986 16.6218 3.67507 16.6246 4.05322C16.6246 4.42857 16.9047 4.60504 17.3893 4.60504C17.8711 4.60504 18.154 4.42857 18.154 4.05322ZM18.2633 13.0924C18.2633 12.7143 18.5462 12.5378 19.028 12.5378C19.5098 12.5378 19.7927 12.7143 19.7927 13.0924C19.7927 13.4678 19.5098 13.6442 19.028 13.6442C18.5434 13.647 18.2633 13.4678 18.2633 13.0924ZM16.4818 8.40615C16.4818 9.19326 16.4818 11.5882 11.8431 11.5882C10.577 11.5882 9.549 11.4033 8.7899 11.0392L8.76749 11.028C8.95237 10.6919 9.06441 10.3697 9.042 10.1036C9.02239 9.85433 8.89915 9.64424 8.69466 9.51259C8.38934 9.31091 7.91876 9.38374 7.39775 9.59102C7.39635 9.58962 7.39635 9.58752 7.39635 9.58542C7.39635 9.58332 7.39635 9.58122 7.39495 9.57982C7.2689 9.23808 7.20447 8.84032 7.20447 8.40615C7.20447 7.61904 7.20447 5.22128 11.8431 5.22128C16.4818 5.22128 16.4818 7.61904 16.4818 8.40615ZM11.8431 3.98599C16.9495 3.98599 17.7115 6.75349 17.7115 8.40335C17.7115 10.0532 16.9495 12.8179 11.8431 12.8179C10.3921 12.8179 9.18486 12.5938 8.26049 12.1484L8.10923 12.0728C8.09988 12.0681 8.09226 12.0608 8.08444 12.0534C8.07821 12.0474 8.07186 12.0414 8.06441 12.0364C7.41736 12.8319 6.67786 13.5126 6.62184 13.563C6.2689 13.8879 5.85713 14.0504 5.43137 14.0504C5.08403 14.0504 4.72548 13.9412 4.38375 13.7199C3.86554 13.3809 3.72829 13.0056 3.70868 12.7507C3.68907 12.5014 3.7535 12.1232 4.18207 11.7311L4.18643 11.7273C4.26226 11.6613 5.25403 10.7978 6.32492 10.14C6.31722 10.1288 6.30916 10.118 6.30111 10.1071C6.27695 10.0746 6.25279 10.042 6.23809 9.99998C6.06162 9.52099 5.97198 8.98038 5.97198 8.40055C5.97478 6.75349 6.73668 3.98599 11.8431 3.98599ZM18.3081 19.3333C18.986 19.3333 19.4061 18.9131 19.4061 18.2325C19.4061 17.5546 18.986 17.1316 18.3081 17.1316C17.6302 17.1316 17.2101 17.5518 17.2101 18.2325C17.2101 18.9103 17.6302 19.3333 18.3081 19.3333Z" fill="#313235"/>
</svg>
