<svg width="24" height="24" viewBox="0 0 24 24" fill="none" xmlns="http://www.w3.org/2000/svg">
<path d="M19.7225 11C19.6301 5.19606 16.8121 2 11.7393 2C6.64132 2 3.815 5.23808 3.76458 11.126C2.61893 11.8263 2.00269 13.1288 2.00269 14.9943C2.00269 17.7394 3.33041 19.3164 5.73936 19.4257L6.01387 19.4341H6.12031C8.06148 19.3669 8.46204 17.6106 8.46204 14.9943C8.46204 12.3697 8.06148 10.6162 6.15673 10.5462C6.04748 10.5378 5.92144 10.5378 5.85421 10.5462C5.80379 10.5462 5.75337 10.5462 5.73936 10.5546C5.48726 10.563 5.25477 10.5994 5.02788 10.6386C5.21275 5.75629 7.45924 3.2745 11.7393 3.2745C16.0194 3.2745 18.2687 5.74788 18.4592 10.6134C18.3023 10.5966 18.1511 10.5602 17.983 10.5518C17.9326 10.5434 17.8822 10.5434 17.8486 10.5434C17.7393 10.535 17.5965 10.535 17.5656 10.5434C15.6189 10.6106 15.2239 12.3669 15.2239 14.9915C15.2239 16.7058 15.4004 18.0419 16.0698 18.7842C15.2015 19.2688 14.1567 19.5854 12.9354 19.7478C12.7842 19.1764 12.3332 18.8347 11.6469 18.8179C10.7674 18.7926 10.2267 19.2856 10.1987 20.2072C10.1819 20.6498 10.2912 21.0083 10.5265 21.2632C10.7589 21.5181 11.1119 21.6722 11.5545 21.6806H11.6217C12.0307 21.6806 12.364 21.5601 12.6077 21.3304C12.6833 21.2548 12.7337 21.1512 12.7841 21.0503C14.6637 20.8543 16.2295 20.2996 17.4424 19.4145C17.4844 19.4229 17.5096 19.4313 17.5488 19.4313H17.6749L17.9494 19.4229C20.3555 19.3108 21.6861 17.7338 21.6861 14.9915C21.6861 13.0196 20.983 11.6554 19.7225 11Z" fill="#313235"/>
</svg>
