<svg xmlns="http://www.w3.org/2000/svg" width="24" height="24" fill="none" viewBox="0 0 24 24"><path fill="#000" d="M17.5 17.5a2 2 0 1 1 0 4h-3a2 2 0 1 1 0-4zM9.165 2.33a.75.75 0 0 1 1.006.335L13.589 9.5h6.161a1.5 1.5 0 0 1 1.5 1.5v2a1.5 1.5 0 0 1-1.5 1.5h-4.382a1.5 1.5 0 0 1-1.342-.829l-1.091-2.183a.8.8 0 0 1-.106-.153l-.079-.158-2.08 4.158a.8.8 0 0 1-.105.153l-.591 1.183a1.5 1.5 0 0 1-1.342.83H4.25a1.5 1.5 0 0 1-1.5-1.5v-2a1.5 1.5 0 0 1 1.5-1.5h6.161l1.418-2.836a.8.8 0 0 1 .094-.142L8.829 3.335a.75.75 0 0 1 .336-1.006"/><path fill="#000" d="M14.83 3.665a.75.75 0 0 1 1.34.67l-1 2a.75.75 0 0 1-1.34-.67z"/></svg>