<svg width="24" height="24" viewBox="0 0 24 24" fill="none" xmlns="http://www.w3.org/2000/svg">
<path d="M21.2632 10.5546L13.0055 2.43975C12.4089 1.85431 11.28 1.85431 10.6806 2.43975L2.4229 10.5574C2.00554 10.9635 1.88789 11.5405 2.11198 12.0587C2.35287 12.6106 2.9299 12.9663 3.58256 12.9663H4.1932V20.2492C4.1932 21.0419 4.90188 21.6862 5.77583 21.6862H8.88506C9.11475 21.6918 9.30803 21.5069 9.31083 21.2772V17.2324H14.4228V21.2772C14.4256 21.5069 14.6161 21.6918 14.8486 21.689H17.787C18.6609 21.689 19.3696 21.0447 19.3696 20.252V12.9691H20.0979C20.7506 12.9691 21.3304 12.6134 21.5685 12.0616C21.7982 11.5405 21.6805 10.9635 21.2632 10.5546Z" fill="#313235"/>
</svg>
