<svg xmlns="http://www.w3.org/2000/svg" width="24" height="24" fill="none"><path fill="#313235" d="M21.715 12.287c.252-.586.12-1.233-.347-1.692l-8.081-7.95c-.664-.652-1.914-.652-2.575 0l-8.084 7.947c-.467.462-.6 1.11-.347 1.692.269.616.908 1.014 1.633 1.014h.39v6.933c0 .887.79 1.61 1.758 1.61h11.76c.969 0 1.756-.72 1.756-1.608v-6.932h.504c.726 0 1.364-.398 1.633-1.014Zm-3.977-.244a.638.638 0 0 1-.42.154.634.634 0 0 1-.468-.202c-1.894-2.047-4.835-1.916-4.869-1.913-3.13.033-4.79 1.73-4.842 1.783v.002a.644.644 0 0 1-.886.041.589.589 0 0 1-.042-.852c.081-.086 2.053-2.142 5.731-2.178.107-.009 3.535-.177 5.843 2.313a.588.588 0 0 1-.048.851Zm-1.264 1.83a.641.641 0 0 1-.885-.049c-1.318-1.425-3.504-1.388-3.607-1.386h-.004c-2.207.022-3.536 1.373-3.576 1.414a.64.64 0 0 1-.905.02.585.585 0 0 1-.026-.83c.068-.072 1.698-1.783 4.477-1.814.095-.009 2.832-.093 4.577 1.79a.59.59 0 0 1-.05.854Zm-1.423.994c.21.246.18.618-.07.829a.64.64 0 0 1-.88-.045c-.757-.822-2.042-.805-2.098-.804H12c-1.297.014-2.054.774-2.103.822v.001a.632.632 0 0 1-.463.197.63.63 0 0 1-.423-.157l-.017-.017a.59.59 0 0 1-.028-.835c.045-.048 1.14-1.196 2.997-1.218.06-.003 1.891-.068 3.068 1.204.002.004.006.008.01.011l.01.011Zm-3 3.983h-.103c-.704-.012-1.415-.449-1.415-1.418 0-.966.709-1.406 1.412-1.412 0 0 .05 0 .056.003.753.02 1.462.462 1.462 1.415 0 .958-.709 1.4-1.412 1.412Z"/></svg>