<svg xmlns="http://www.w3.org/2000/svg" width="24" height="24" fill="none"><path fill="#000" d="M21.715 12.287c.252-.586.12-1.233-.348-1.692l-8.08-7.95c-.665-.652-1.914-.652-2.575 0l-8.084 7.947c-.468.462-.6 1.11-.347 1.692.269.616.907 1.014 1.633 1.014h.39v6.933c0 .887.79 1.61 1.758 1.61h11.76c.969 0 1.756-.72 1.756-1.608v-6.932h.504c.725 0 1.364-.398 1.633-1.014m-3.978-.244a.64.64 0 0 1-.42.154.63.63 0 0 1-.468-.202c-1.893-2.047-4.834-1.916-4.868-1.913-3.131.033-4.79 1.73-4.842 1.783l-.001.002a.644.644 0 0 1-.885.041q-.012-.006-.023-.02a.59.59 0 0 1-.02-.831c.082-.087 2.054-2.143 5.732-2.18.106-.008 3.535-.176 5.843 2.314a.588.588 0 0 1-.048.851m-1.263 1.83a.64.64 0 0 1-.885-.049c-1.318-1.425-3.504-1.388-3.607-1.386h-.004c-2.207.022-3.536 1.373-3.576 1.414a.64.64 0 0 1-.905.02.585.585 0 0 1-.026-.83c.067-.072 1.698-1.783 4.476-1.814.096-.009 2.832-.093 4.577 1.79l.02.022a.59.59 0 0 1-.07.832m-1.423.994c.21.246.18.618-.07.829a.64.64 0 0 1-.88-.045c-.758-.822-2.042-.805-2.099-.804h-.001c-1.298.014-2.055.774-2.103.822l-.001.001a.63.63 0 0 1-.462.197.63.63 0 0 1-.423-.157l-.017-.017a.59.59 0 0 1-.028-.835c.045-.048 1.14-1.196 2.997-1.218.059-.003 1.89-.068 3.067 1.204l.01.011zm-3 3.983h-.104c-.703-.012-1.414-.449-1.414-1.418 0-.966.709-1.406 1.412-1.412 0 0 .05 0 .056.003.753.02 1.462.462 1.462 1.415 0 .958-.709 1.4-1.412 1.412"/></svg>