<svg width="24" height="24" viewBox="0 0 24 24" fill="none" xmlns="http://www.w3.org/2000/svg">
<path d="M21.2632 10.5546L13.0055 2.43981C12.4089 1.85437 11.2801 1.85437 10.6806 2.43981L2.42296 10.5574C2.0056 10.9636 1.88795 11.5406 2.11204 12.0588C2.35294 12.6106 2.92996 12.9664 3.58262 12.9664H4.19326V20.2493C4.19326 21.042 4.90194 21.6862 5.77589 21.6862H8.88512C9.11481 21.6918 9.30809 21.5069 9.31089 21.2773V17.2325H14.4229V21.2773C14.4257 21.5069 14.6162 21.6918 14.8487 21.689H17.787C18.661 21.689 19.3697 21.0448 19.3697 20.2521V12.9692H20.098C20.7506 12.9692 21.3304 12.6134 21.5685 12.0616C21.7982 11.5406 21.6806 10.9636 21.2632 10.5546Z" fill="#313235"/>
</svg>
