<svg width="24" height="24" viewBox="0 0 24 24" fill="none" xmlns="http://www.w3.org/2000/svg">
<path fill-rule="evenodd" clip-rule="evenodd" d="M21.6862 6.23242C21.6862 5.44531 21.3977 4.97752 20.9103 4.97752L18.6358 4.97472V3.40329C18.6358 2.68341 18.0084 2.02515 17.3165 2.02515H6.38095C5.68907 2.02515 5.06162 2.68341 5.06162 3.40329V4.97752H2.78152C2.29412 4.97752 2.00281 5.44531 2.00281 6.23242V20.4593C2.00281 21.2464 2.29412 21.7142 2.78152 21.7142H9.42296H20.9103C21.3949 21.7142 21.6862 21.2436 21.6862 20.4593V6.23242ZM13.6694 20.5097H10.0224V14.5657H13.6694V20.5097ZM6.2577 3.4061V20.5097H8.82352V13.9635C8.82352 13.6302 9.09243 13.3613 9.42296 13.3613H14.2689C14.5994 13.3613 14.8683 13.6302 14.8683 13.9635V20.5097H17.4341V3.4061C17.4341 3.33887 17.3473 3.24363 17.3025 3.23243H6.37815C6.34173 3.24363 6.2577 3.33887 6.2577 3.4061ZM8.22128 8.66379C8.22128 8.9551 8.49859 9.1988 8.82352 9.1988H10.5742V10.9551C10.5742 11.2772 10.8235 11.5601 11.1064 11.5601H12.5854C12.8739 11.5601 13.1176 11.2828 13.1176 10.9551L13.112 9.1988H14.8627C15.1821 9.1988 15.4706 8.9439 15.4706 8.66379V7.1792C15.4706 6.89909 15.1792 6.64418 14.8627 6.64418H13.112V4.89349C13.112 4.57416 12.8571 4.28284 12.5798 4.28284H11.1064C10.8235 4.28284 10.5742 4.56856 10.5742 4.89349V6.64979H8.82352C8.50139 6.64979 8.22128 6.89909 8.22128 7.182V8.66379Z" fill="#313235"/>
</svg>
