<svg width="24" height="24" viewBox="0 0 24 24" fill="none" xmlns="http://www.w3.org/2000/svg">
<path fill-rule="evenodd" clip-rule="evenodd" d="M21.6861 6.23248C21.6861 5.44537 21.3976 4.97758 20.9102 4.97758L18.6357 4.97478V3.40336C18.6357 2.68347 18.0083 2.02521 17.3164 2.02521H6.38083C5.68895 2.02521 5.0615 2.68347 5.0615 3.40336V4.97758H2.7814C2.294 4.97758 2.00269 5.44537 2.00269 6.23248V20.4593C2.00269 21.2465 2.294 21.7142 2.7814 21.7142H9.42284H20.9102C21.3948 21.7142 21.6861 21.2437 21.6861 20.4593V6.23248ZM13.6693 20.5098H10.0223V14.5658H13.6693V20.5098ZM6.25758 3.40616V20.5098H8.8234V13.9636C8.8234 13.6302 9.09231 13.3613 9.42284 13.3613H14.2688C14.5993 13.3613 14.8682 13.6302 14.8682 13.9636V20.5098H17.434V3.40616C17.434 3.33893 17.3472 3.24369 17.3024 3.23249H6.37803C6.34161 3.24369 6.25758 3.33893 6.25758 3.40616ZM8.22116 8.66385C8.22116 8.95516 8.49847 9.19886 8.8234 9.19886H10.5741V10.9552C10.5741 11.2773 10.8234 11.5602 11.1063 11.5602H12.5853C12.8738 11.5602 13.1175 11.2829 13.1175 10.9552L13.1119 9.19886H14.8626C15.1819 9.19886 15.4704 8.94396 15.4704 8.66385V7.17926C15.4704 6.89915 15.1791 6.64425 14.8626 6.64425H13.1119V4.89355C13.1119 4.57422 12.857 4.28291 12.5797 4.28291H11.1063C10.8234 4.28291 10.5741 4.56862 10.5741 4.89355V6.64985H8.8234C8.50127 6.64985 8.22116 6.89915 8.22116 7.18206V8.66385Z" fill="#313235"/>
</svg>
