<svg width="24" height="24" viewBox="0 0 24 24" fill="none" xmlns="http://www.w3.org/2000/svg">
<path fill-rule="evenodd" clip-rule="evenodd" d="M12.1596 1C12.2755 1 12.3913 1 12.504 1.00313C14.7109 1.03443 23 1.83255 23 12.0391C23 22.2238 14.7891 22.9812 12.5822 23H12.3725C12.0876 23 11.7934 22.9937 11.5398 22.9875C9.38617 22.9343 1 22.0829 1 11.9703C1 1.83255 9.39869 1.04382 11.496 1.00626C11.6964 1.00313 11.928 1 12.1596 1ZM12.0125 8.35524C11.6087 8.35524 11.28 8.0266 11.28 7.62285C11.28 7.21909 11.6087 6.89045 12.0125 6.89045C12.4163 6.89045 12.745 7.21909 12.745 7.62285C12.7419 8.0266 12.4163 8.35524 12.0125 8.35524ZM12.6918 17.1033C12.6918 17.482 12.385 17.7919 12.0031 17.7919C11.6244 17.7919 11.3145 17.4851 11.3145 17.1033V9.95149C11.3145 9.57277 11.6212 9.26291 12.0031 9.26291C12.3819 9.26291 12.6918 9.56964 12.6918 9.95149V17.1033Z" fill="#313235"/>
</svg>
