<svg width="24" height="24" viewBox="0 0 24 24" fill="none" xmlns="http://www.w3.org/2000/svg">
<path fill-rule="evenodd" clip-rule="evenodd" d="M14.0702 2.85432C13.5351 2.44536 12.9693 2.18485 12.3839 2.07281H12.3811V2.01678C15.269 2.10362 17.5351 2.91594 19.1178 4.44255C20.0954 5.38933 20.804 6.59381 21.2354 8.05038H17.0197C16.7508 6.93554 16.3643 5.91033 15.8685 5.02238C15.3559 4.09801 14.7508 3.36972 14.0702 2.85432ZM7.56597 5.02238C7.07017 5.91033 6.68362 6.93554 6.41471 8.05038H2.51556C2.94693 6.59381 3.65281 5.38653 4.6332 4.44255C6.19622 2.93555 8.42591 2.12043 11.2662 2.01959V2.03919C10.6052 2.12603 9.96652 2.39774 9.36428 2.85432C8.68641 3.36972 8.08137 4.10081 7.56597 5.02238ZM21.3923 15.1176C21.6248 14.1372 21.7396 13.056 21.7396 11.8739C21.7396 10.9047 21.6612 10.0028 21.5043 9.16803H17.2466C17.3895 10.0616 17.4623 10.9663 17.4623 11.8711C17.4651 12.9607 17.3615 14.0476 17.1514 15.1176H21.3923ZM7.56877 8.05038C7.80686 7.14002 8.13459 6.30249 8.54076 5.5742C9.30266 4.20726 10.255 3.37533 11.2634 3.18205V8.05038H7.56877ZM15.6864 16.3193C15.4819 16.9607 15.2186 17.5798 14.8937 18.1708C14.185 19.4397 13.3139 20.2464 12.3839 20.5125V16.3193H15.6864ZM11.2634 20.5602V16.3165H7.75084C7.95252 16.9579 8.21863 17.5798 8.54356 18.168C9.30266 19.535 10.255 20.3697 11.2634 20.5602ZM6.18782 9.16803C6.04496 10.0616 5.97494 10.9663 5.97494 11.8711C5.97213 12.9607 6.07578 14.0476 6.28586 15.1176H2.3615C2.12901 14.1372 2.01416 13.056 2.01416 11.8739C2.01696 10.9019 2.09539 10.0028 2.24945 9.16803H6.18782ZM11.2634 9.17083H7.32507C7.17101 10.0644 7.09538 10.9663 7.09538 11.8739C7.09258 12.9635 7.20463 14.0532 7.43152 15.1204H11.2634V9.17083ZM12.3839 3.23247C13.3139 3.49577 14.185 4.30529 14.8937 5.5742C15.2998 6.30249 15.6276 7.14002 15.8657 8.05039H12.3839V3.23247ZM16.1094 9.17083H12.3839V15.1176H16.0029C16.2298 14.0504 16.3419 12.9635 16.3391 11.8711C16.3419 10.9663 16.2634 10.0616 16.1094 9.17083ZM9.36148 20.8907C9.96372 21.3473 10.6024 21.6218 11.2634 21.7058V21.7226C8.42591 21.6218 6.19622 20.8095 4.6332 19.3025C3.79567 18.4985 3.15982 17.4985 2.72284 16.3165H6.57718C6.83208 17.1932 7.16261 18.0027 7.56317 18.7226C8.07857 19.6442 8.68361 20.3753 9.36148 20.8907ZM16.8545 16.3165C16.5996 17.1904 16.2718 18.0027 15.8685 18.7226C15.3559 19.6442 14.748 20.3753 14.0702 20.8907C13.5323 21.2969 12.9693 21.5602 12.3839 21.6722V21.7282C15.2718 21.6442 17.5351 20.8291 19.1178 19.3053C19.9525 18.4985 20.594 17.5013 21.0309 16.3193H16.8545V16.3165Z" fill="#313235"/>
</svg>
