<svg width="24" height="24" viewBox="0 0 24 24" fill="none" xmlns="http://www.w3.org/2000/svg">
<path fill-rule="evenodd" clip-rule="evenodd" d="M14.07 2.85438C13.535 2.44542 12.9692 2.18491 12.3837 2.07287H12.3809V2.01685C15.2689 2.10368 17.535 2.916 19.1176 4.44261C20.0952 5.38939 20.8039 6.59387 21.2353 8.05045H17.0196C16.7507 6.9356 16.3641 5.91039 15.8683 5.02244C15.3557 4.09807 14.7507 3.36978 14.07 2.85438ZM7.56582 5.02244C7.07002 5.91039 6.68347 6.9356 6.41456 8.05045H2.51541C2.94678 6.59387 3.65266 5.38659 4.63305 4.44261C6.19607 2.93561 8.42576 2.12049 11.2661 2.01965V2.03925C10.605 2.12609 9.96637 2.3978 9.36413 2.85438C8.68626 3.36978 8.08122 4.10087 7.56582 5.02244ZM21.3921 15.1177C21.6246 14.1373 21.7395 13.056 21.7395 11.874C21.7395 10.9048 21.661 10.0028 21.5042 9.16809H17.2465C17.3893 10.0616 17.4622 10.9664 17.4622 11.8712C17.465 12.9608 17.3613 14.0476 17.1512 15.1177H21.3921ZM7.56862 8.05045C7.80671 7.14008 8.13444 6.30255 8.5406 5.57426C9.30251 4.20732 10.2549 3.37539 11.2633 3.18211V8.05045H7.56862ZM15.6862 16.3193C15.4818 16.9608 15.2185 17.5798 14.8935 18.1709C14.1848 19.4398 13.3137 20.2465 12.3837 20.5126V16.3193H15.6862ZM11.2633 20.5602V16.3165H7.75069C7.95237 16.958 8.21848 17.5798 8.54341 18.1681C9.30251 19.535 10.2549 20.3697 11.2633 20.5602ZM6.18767 9.16809C6.04481 10.0616 5.97478 10.9664 5.97478 11.8712C5.97198 12.9608 6.07562 14.0476 6.28571 15.1177H2.36135C2.12885 14.1373 2.01401 13.056 2.01401 11.874C2.01681 10.902 2.09524 10.0028 2.2493 9.16809H6.18767ZM11.2633 9.17089H7.32492C7.17086 10.0644 7.09523 10.9664 7.09523 11.874C7.09243 12.9636 7.20447 14.0532 7.43136 15.1205H11.2633V9.17089ZM12.3837 3.23253C13.3137 3.49583 14.1848 4.30536 14.8935 5.57426C15.2997 6.30255 15.6274 7.14008 15.8655 8.05045H12.3837V3.23253ZM16.1092 9.17089H12.3837V15.1177H16.0028C16.2297 14.0504 16.3417 12.9636 16.3389 11.8712C16.3417 10.9664 16.2633 10.0616 16.1092 9.17089ZM9.36133 20.8908C9.96357 21.3473 10.6022 21.6218 11.2633 21.7059V21.7227C8.42576 21.6218 6.19607 20.8095 4.63305 19.3025C3.79552 18.4986 3.15966 17.4986 2.72269 16.3165H6.57702C6.83192 17.1933 7.16246 18.0028 7.56302 18.7227C8.07842 19.6443 8.68346 20.3753 9.36133 20.8908ZM16.8543 16.3165C16.5994 17.1905 16.2717 18.0028 15.8683 18.7227C15.3557 19.6443 14.7479 20.3753 14.07 20.8908C13.5322 21.2969 12.9692 21.5602 12.3837 21.6723V21.7283C15.2717 21.6443 17.535 20.8291 19.1176 19.3053C19.9523 18.4986 20.5938 17.5014 21.0308 16.3193H16.8543V16.3165Z" fill="#313235"/>
</svg>
