<svg width="24" height="24" viewBox="0 0 24 24" fill="none" xmlns="http://www.w3.org/2000/svg">
<path fill-rule="evenodd" clip-rule="evenodd" d="M11.7507 6.5602C6.00001 6.5602 3.2017 9.41454 3.2017 15.2913C3.2045 15.6274 2.93559 15.9019 2.60226 15.9047C2.26613 15.9019 1.99722 15.6274 2.00002 15.2913C2.00002 8.77588 5.37256 5.33331 11.7507 5.33331C12.0868 5.33611 12.3557 5.61062 12.3529 5.94676C12.3557 6.28289 12.0868 6.5574 11.7507 6.5602ZM12.3333 9.26328C12.3361 9.59941 12.0672 9.87392 11.7339 9.87672C8.14287 9.87672 6.39777 11.661 6.39777 15.3277C6.40057 15.6638 6.13447 15.9383 5.79833 15.9411H5.79553C5.4594 15.9383 5.19049 15.6638 5.19329 15.3277V15.3249C5.19329 10.9551 7.45379 8.64703 11.7339 8.64703C12.0672 8.65543 12.3361 8.92994 12.3333 9.26328ZM20.4846 13.8655V16.8067C20.4846 16.8907 20.423 16.9579 20.3473 16.9579H19.6106V13.717H20.3585C20.4286 13.7311 20.4818 13.7927 20.4846 13.8655ZM20.3361 12.4902C21.0644 12.4902 21.6694 13.1008 21.6863 13.8543V16.8067C21.6863 17.5658 21.084 18.1848 20.3473 18.1848H19.5434C19.3445 18.8179 18.7647 19.2773 18.0812 19.2773H12.2297C9.92998 19.1932 8.61065 17.7591 8.61065 15.3473C8.61065 12.9299 9.92998 11.5014 12.2325 11.4257H18.0728C18.7451 11.4257 19.3165 11.8711 19.5266 12.4902H20.3361ZM10.9216 15.3809C10.9216 14.8683 11.2129 14.6302 11.6611 14.6302C12.1092 14.6302 12.4006 14.8683 12.4006 15.3809C12.4006 15.6274 12.3333 15.8095 12.2129 15.9327C12.084 16.0672 11.8936 16.1316 11.6611 16.1316C11.4286 16.1316 11.2381 16.0672 11.1092 15.9327C10.9888 15.8095 10.9216 15.6274 10.9216 15.3809Z" fill="#313235"/>
</svg>
