<svg width="24" height="24" fill="none" xmlns="http://www.w3.org/2000/svg"><path d="M14.07 2.854c-.535-.409-1.1-.67-1.686-.781h-.003v-.056c2.888.087 5.154.899 6.737 2.426.977.946 1.686 2.15 2.117 3.607H17.02c-.27-1.114-.656-2.14-1.152-3.028-.512-.924-1.117-1.652-1.798-2.168ZM7.566 5.022c-.496.888-.882 1.914-1.151 3.028h-3.9c.432-1.456 1.138-2.663 2.118-3.607C6.196 2.936 8.426 2.12 11.266 2.02v.02c-.66.086-1.3.358-1.902.814-.678.516-1.283 1.247-1.798 2.168Zm13.826 10.096c.233-.98.348-2.062.348-3.244 0-.97-.079-1.871-.236-2.706h-4.257a17.126 17.126 0 0 1-.096 5.95h4.241Z" fill="#313235"/><path d="M7.569 8.05c.238-.91.566-1.748.972-2.476.762-1.367 1.714-2.199 2.722-2.392V8.05H7.57Zm8.117 8.27c-.204.64-.467 1.26-.792 1.85-.709 1.27-1.58 2.076-2.51 2.342V16.32h3.302Zm-4.423 4.24v-4.243H7.751c.202.64.468 1.263.793 1.851.759 1.367 1.711 2.202 2.72 2.392ZM6.188 9.168a17.128 17.128 0 0 0-.213 2.703c-.003 1.09.1 2.177.31 3.247H2.362c-.232-.98-.347-2.062-.347-3.244.003-.972.081-1.871.235-2.706h3.939Zm5.075.002H7.325a15.904 15.904 0 0 0 .107 5.95h3.831V9.17Zm1.121-5.938c.93.264 1.801 1.073 2.51 2.342.406.728.734 1.566.972 2.476h-3.482V3.232ZM16.11 9.17h-3.726v5.948h3.619a15.41 15.41 0 0 0 .336-3.247 15.58 15.58 0 0 0-.23-2.7ZM9.361 20.89c.603.457 1.241.732 1.902.816v.017c-2.837-.101-5.067-.913-6.63-2.42-.837-.805-1.473-1.805-1.91-2.986h3.854c.255.876.586 1.686.986 2.406.516.921 1.12 1.652 1.798 2.168Zm7.494-4.573a11.546 11.546 0 0 1-.987 2.406c-.512.921-1.12 1.652-1.798 2.168-.538.406-1.1.67-1.686.781v.056c2.888-.084 5.151-.899 6.734-2.423.835-.806 1.476-1.804 1.913-2.986h-4.176v-.002Z" fill="#313235"/></svg>