<svg width="24" height="24" fill="none" xmlns="http://www.w3.org/2000/svg"><path d="m18.845 7.336-5.463-5.182A.56.56 0 0 0 13 2H5.618c-.569 0-1.107.538-1.107 1.106v17.48c0 .588.518 1.106 1.107 1.106h12.297c.588 0 1.106-.518 1.106-1.107V7.742a.56.56 0 0 0-.176-.406ZM15.31 18.681H8.209a.562.562 0 0 1-.56-.56c0-.309.252-.56.56-.56h7.1a.56.56 0 0 1 0 1.12Zm-7.101-3.006a.562.562 0 0 1-.56-.56c0-.308.252-.56.56-.56h7.1a.561.561 0 0 1 0 1.12h-7.1Zm7.1-3.003h-7.1a.562.562 0 0 1-.56-.56c0-.308.252-.56.56-.56h7.1a.561.561 0 0 1 0 1.12ZM13.867 7.14c-.384-.384-.588-.933-.588-1.583V3.6l4.353 4.13H15.45c-.653 0-1.2-.205-1.583-.589Z" fill="#313235"/></svg>