<svg width="24" height="24" viewBox="0 0 24 24" fill="none" xmlns="http://www.w3.org/2000/svg">
<path fill-rule="evenodd" clip-rule="evenodd" d="M21.7145 11.6591C21.7985 11.7376 21.8461 11.8468 21.8461 11.9616C21.8461 12.0765 21.8013 12.1885 21.7173 12.2698L19.7761 14.1297C19.6109 14.2866 19.3532 14.2838 19.1935 14.1213L17.9442 12.8664L17.2131 14.0457C17.1403 14.1633 17.017 14.2361 16.8798 14.2417C16.7285 14.2586 16.6109 14.1885 16.5296 14.0793L15.6277 12.9056L14.8266 14.0625C14.7481 14.1745 14.6221 14.2417 14.4848 14.2417H9.83497L9.8039 14.311L9.77334 14.379C9.21032 15.5051 7.98903 16.1017 6.24114 16.1017C3.60809 16.1017 2.15991 14.6451 2.15991 12.0009C2.15991 9.3566 3.60809 7.90002 6.24114 7.90002C8.34477 7.90002 9.34197 8.82159 9.81256 9.68994H19.4512C19.5576 9.68994 19.6585 9.72915 19.7369 9.80198L21.7145 11.6591ZM5.73974 12.7039C5.23834 12.7039 5.04226 12.5079 5.04226 12.0037C5.04226 11.4995 5.23554 11.3034 5.73974 11.3034C6.24394 11.3034 6.43721 11.4995 6.43721 12.0037C6.43721 12.5079 6.24114 12.7039 5.73974 12.7039ZM4.20753 12.0037C4.20753 11.0429 4.78176 10.4658 5.73974 10.4658C6.70052 10.4658 7.27195 11.0401 7.27195 12.0037C7.27195 12.9672 6.69772 13.5415 5.73974 13.5415C4.78176 13.5415 4.20753 12.9672 4.20753 12.0037Z" fill="#313235"/>
</svg>
