<svg width="24" height="24" viewBox="0 0 24 24" fill="none" xmlns="http://www.w3.org/2000/svg">
<path fill-rule="evenodd" clip-rule="evenodd" d="M20.7981 10.3319C21.3416 10.6596 21.6861 11.2423 21.6861 11.8837C21.6861 12.5252 21.3387 13.1022 20.7981 13.4271C21.3416 13.7577 21.6861 14.3375 21.6861 14.9817C21.6861 15.668 21.2995 16.2955 20.6861 16.6036L12.5937 20.6904C12.336 20.822 12.0559 20.8865 11.7758 20.8865C11.4901 20.8865 11.2043 20.8192 10.9438 20.6848L2.99149 16.6008C2.38645 16.2899 2.0055 15.6652 2.0027 14.9845C1.9999 14.3403 2.34444 13.7605 2.88785 13.4299C2.34724 13.1022 2.0055 12.5224 2.0027 11.8837C1.9999 11.2451 2.34444 10.6596 2.88785 10.3319C2.34724 10.007 2.0055 9.42714 2.0027 8.78849C2.0027 8.10502 2.38085 7.48037 2.98589 7.16665L10.9382 3.04622C11.2015 2.90896 11.4901 2.84174 11.7758 2.84174C12.0587 2.84174 12.3416 2.90896 12.5993 3.04061L20.6917 7.16104C21.3023 7.47197 21.6889 8.10222 21.6861 8.78849C21.6861 9.42714 21.3387 10.007 20.7981 10.3319ZM19.8654 8.78289L11.773 4.66246L3.82062 8.78289L11.773 12.8669L19.8654 8.78289ZM3.82062 14.9789L11.773 19.0658L19.8682 14.9789L18.8234 14.4467L12.5937 17.5924C12.336 17.724 12.0559 17.7884 11.7758 17.7884C11.4901 17.7884 11.2043 17.7184 10.9438 17.5868L4.84022 14.4523L3.82062 14.9789ZM3.82062 11.8809L4.84022 11.3543L10.9438 14.4915C11.2043 14.626 11.4901 14.6932 11.7758 14.6932C12.0559 14.6932 12.336 14.6288 12.5937 14.4971L18.8234 11.3515L19.8682 11.8837L11.7758 15.9705L3.82062 11.8809Z" fill="#313235"/>
</svg>
