<svg width="24" height="24" fill="none" xmlns="http://www.w3.org/2000/svg"><path fill-rule="evenodd" clip-rule="evenodd" d="M8.568 4.13v.008c.191.546.897 1.02 2.057 1.367 1.227.375 2.846.574 4.563.574 1.725 0 3.336-.2 4.563-.574 1.137-.34 1.835-.799 2.042-1.328 0-.009.008-.017.008-.017-.148-.571-.837-1.053-2.056-1.426-1.221-.367-2.837-.574-4.563-.574-1.717 0-3.344.207-4.571.574-1.154.359-1.86.84-2.05 1.387l.007.01Zm5.785 8.162-5.468 2.44-.375-.169-5.11-2.249 5.46-2.431.009-.009 2.44 1.07 2.87 1.272h.009l.165.076Zm-1.81 4.016.043-1.868-2.871 1.277-.34.152a1.17 1.17 0 0 1-.498.109c-.174 0-.339-.034-.504-.11L5.26 14.483v1.77l.014.004c.245.058.515.121.79.204.389.109.804.249 1.218.423a7.243 7.243 0 0 1 1.296.707.68.68 0 0 1 .065.04c.043.026.085.05.124.085.1.075.232.075.325 0 .224-.174.465-.325.714-.457a7.1 7.1 0 0 1 .622-.308 9.76 9.76 0 0 1 1.633-.54c.025-.01.042-.01.067-.01a8.45 8.45 0 0 1 .216-.05c.064-.016.131-.033.199-.042Zm2.648-4.963c1.725 0 3.344-.193 4.563-.566 1.21-.367 1.874-.922 2.092-1.339V5.496c-.448.356-1.061.647-1.843.88-1.3.389-3.017.605-4.818.605-1.801 0-3.51-.216-4.82-.605-.796-.233-1.41-.541-1.858-.897v3.222c-.046.007-.083.022-.121.038-.004 0-.007.002-.01.004L2.89 11.185a1.22 1.22 0 0 0-.731 1.129c0 .49.283.922.731 1.12l1.12.5v2.324c0 .63.457 1.168 1.079 1.286.854.151 2.042.473 2.905 1.145.157.126.333.208.515.258v.639c0 .697.703 1.271 2.098 1.694 1.235.367 2.863.575 4.572.575 1.708 0 3.333-.21 4.563-.575 1.392-.423 2.106-.997 2.106-1.694V16.04a5.712 5.712 0 0 1-1.843.896c-1.291.398-3.011.613-4.818.613-.737 0-1.443-.05-2.132-.117.359-.157.625-.465.731-.838.457.034.922.059 1.404.059 1.725 0 3.344-.207 4.563-.574 1.21-.373 1.874-.93 2.098-1.345v-3.986c-.482.364-1.104.673-1.843.888-1.202.364-2.77.572-4.437.597a1.188 1.188 0 0 0-.457-.888h.076Z" fill="#313235"/></svg>