<svg width="24" height="24" viewBox="0 0 24 24" fill="none" xmlns="http://www.w3.org/2000/svg">
<path fill-rule="evenodd" clip-rule="evenodd" d="M11.6697 2C11.9246 2 12.1879 2.0028 12.4148 2.0112C14.3448 2.05602 21.8462 2.81793 21.8462 11.8711C21.8462 20.944 14.3336 21.6471 12.454 21.6835C12.1543 21.6891 11.8518 21.6891 11.5521 21.6863C9.57728 21.6555 2.15991 20.9412 2.15991 11.8123C2.15991 2.69468 9.50725 2.01681 11.4848 2H11.6697ZM9.6361 6.32493L9.05907 3.54062C6.95823 4.06723 4.55207 5.46498 3.70893 8.98319L6.45963 9.55182C7.06467 7.63025 8.41481 6.73389 9.6361 6.32493ZM11.919 16.4818C12.0339 16.4818 12.1487 16.4818 12.2467 16.479C16.2159 16.409 16.6417 13.2269 16.6417 11.8599C16.6417 10.493 16.2103 7.30532 12.2187 7.21008C12.0927 7.20728 11.9442 7.20448 11.8014 7.20448H11.7033C10.0815 7.21849 7.36439 7.83753 7.36439 11.8263C7.36439 14.0616 8.18232 15.4678 9.86859 16.1232C10.4708 16.3473 11.1067 16.4706 11.7509 16.4818H11.919ZM14.342 17.3417L14.9134 20.1148C17.0002 19.577 19.3728 18.1933 20.2551 14.8235L17.4988 14.2549C16.8658 16.0672 15.5381 16.9328 14.342 17.3417ZM9.09268 20.126C7.01145 19.591 4.64731 18.2073 3.75935 14.8235L6.51845 14.2549C7.10949 15.9524 8.29716 16.8319 9.42602 17.2689C9.47526 17.2893 9.52348 17.3035 9.57192 17.3177C9.60338 17.327 9.63493 17.3363 9.66691 17.3473L9.09268 20.126ZM14.933 3.60504C17.0339 4.17087 19.4092 5.58543 20.2719 8.98879L17.5269 9.55462C16.9106 7.69468 15.5745 6.79832 14.3616 6.36975L14.933 3.60504Z" fill="#313235"/>
</svg>
