<svg width="24" height="24" fill="none" xmlns="http://www.w3.org/2000/svg"><path d="M11.67 2c.255 0 .518.003.745.011 1.93.045 9.431.807 9.431 9.86 0 9.073-7.512 9.776-9.392 9.812-.3.006-.602.006-.902.003-1.975-.03-9.392-.745-9.392-9.874 0-9.117 7.347-9.795 9.325-9.812h.185ZM9.636 6.325 9.06 3.54c-2.1.526-4.507 1.924-5.35 5.442l2.75.569c.606-1.922 1.956-2.818 3.177-3.227Zm2.283 10.157c.115 0 .23 0 .328-.003 3.969-.07 4.395-3.252 4.395-4.62 0-1.366-.432-4.554-4.423-4.649a19.174 19.174 0 0 0-.418-.006h-.098c-1.621.014-4.339.634-4.339 4.622 0 2.236.818 3.642 2.505 4.297a5.68 5.68 0 0 0 1.882.359h.168Zm2.423.86.571 2.773c2.087-.538 4.46-1.922 5.342-5.291l-2.756-.57c-.633 1.813-1.96 2.679-3.157 3.088Zm-5.25 2.784.575-2.779-.095-.03a1.403 1.403 0 0 1-.146-.048c-1.129-.437-2.317-1.317-2.908-3.014l-2.759.568c.888 3.384 3.252 4.768 5.334 5.303Zm5.841-16.521-.571 2.765c1.213.428 2.549 1.325 3.165 3.185l2.745-.566c-.863-3.404-3.238-4.818-5.339-5.384Z" fill="#313235"/></svg>