<svg width="24" height="24" viewBox="0 0 24 24" fill="none" xmlns="http://www.w3.org/2000/svg">
<path fill-rule="evenodd" clip-rule="evenodd" d="M11.9944 4.05041C11.9944 4.38934 12.2745 4.66665 12.619 4.66665C12.9607 4.66665 13.2409 4.38934 13.2437 4.05041V2.61624C13.2437 2.27731 12.9635 2 12.619 2C12.2745 2 11.9944 2.27731 11.9944 2.61624V4.05041ZM15.3837 18.7534C15.7282 18.7534 16.0084 19.0307 16.0084 19.3697C16.0084 19.7086 15.7282 19.9859 15.3837 19.9859H10.0924C9.74787 19.9859 9.46776 19.7086 9.46776 19.3697C9.46776 19.0307 9.74787 18.7534 10.0924 18.7534H15.3837ZM14.6694 20.4537C15.014 20.4537 15.2941 20.731 15.2941 21.0699C15.2941 21.4089 15.014 21.6862 14.6694 21.6862H10.6442C10.2997 21.6862 10.0196 21.4089 10.0196 21.0699C10.0196 20.731 10.2997 20.4537 10.6442 20.4537H14.6694ZM17.7226 6.31651C17.563 6.31651 17.4033 6.25768 17.2829 6.13724C17.0392 5.89634 17.0392 5.50699 17.2829 5.26609L18.3109 4.25209C18.5546 4.0112 18.9495 4.0112 19.1932 4.25209C19.4369 4.49299 19.4369 4.88234 19.1932 5.12324L18.1652 6.13724C18.042 6.25768 17.8823 6.31651 17.7226 6.31651ZM7.43696 6.49298C7.59382 6.49298 7.75629 6.43415 7.87673 6.31371C8.12043 6.07281 8.12043 5.68346 7.87673 5.44256L6.84873 4.42856C6.60503 4.18767 6.21008 4.18767 5.96638 4.42856C5.72268 4.66946 5.72268 5.05881 5.96638 5.29971L6.99439 6.31371C7.11763 6.43135 7.2773 6.49298 7.43696 6.49298ZM5.75069 9.95234C6.09523 9.95234 6.37534 10.2297 6.37534 10.5686C6.37534 10.9075 6.09523 11.1848 5.75069 11.1848H4.29692C3.95238 11.1848 3.67227 10.9075 3.67227 10.5686C3.67227 10.2297 3.95238 9.95234 4.29692 9.95234H5.75069ZM21.7226 10.4958C21.7226 10.1568 21.4425 9.87952 21.098 9.87952H19.647C19.3025 9.87952 19.0223 10.1568 19.0223 10.4958C19.0223 10.8347 19.3025 11.112 19.647 11.112H21.098C21.4425 11.112 21.7226 10.8347 21.7226 10.4958ZM15.8571 11.7479C16.2016 11.731 16.4649 11.4425 16.4481 11.1008C16.2969 8.23527 14.1932 7.17085 12.2857 7.12883C12.168 7.12323 12.0308 7.12323 11.9075 7.12323C11.563 7.12323 11.2829 7.40054 11.2829 7.73947C11.2829 8.0784 11.563 8.35571 11.9075 8.35571C11.9702 8.3603 12.032 8.35988 12.0939 8.35946C12.1454 8.35912 12.1971 8.35877 12.2493 8.36132C13.0952 8.37812 15.0728 8.68904 15.2016 11.1652C15.2184 11.493 15.4929 11.7479 15.8235 11.7479C15.8375 11.7507 15.8459 11.7507 15.8571 11.7479ZM18.3109 10.8543C18.3109 5.71987 14 5.2857 12.8963 5.26049C12.7255 5.25489 12.5322 5.25489 12.3557 5.25769C11.2213 5.26329 7.00279 5.64984 7.00279 10.8263C7.00279 13.4397 8.08962 14.8403 9.3081 15.5798L9.3165 16.6918C9.3165 17.2044 9.46776 17.6022 9.77028 17.8655C10.056 18.1204 10.493 18.252 11.661 18.252H13.6582C14.8543 18.252 15.2885 18.1232 15.5714 17.8655C15.8683 17.6022 16.014 17.2044 16.014 16.6918L16.0056 15.5714C17.224 14.8263 18.3109 13.4369 18.3109 10.8543Z" fill="#313235"/>
</svg>
