<svg xmlns="http://www.w3.org/2000/svg" width="24" height="24" fill="none"><path fill="#000" d="M11.3 4.205a.625.625 0 0 0 1.25 0V2.771a.62.62 0 0 0-.626-.616.62.62 0 0 0-.624.616zm3.389 14.704c.345 0 .625.277.625.616s-.28.616-.625.616H9.398a.62.62 0 0 1-.625-.616c0-.34.28-.616.625-.616zm-.714 1.7c.344 0 .624.277.624.616s-.28.616-.624.616H9.95a.62.62 0 0 1-.625-.616c0-.339.28-.616.625-.616zm3.053-14.137a.62.62 0 0 1-.44-.18.61.61 0 0 1 0-.87l1.028-1.015a.63.63 0 0 1 .883 0 .61.61 0 0 1 0 .871L17.47 6.292a.63.63 0 0 1-.443.18m-10.286.176c.157 0 .32-.059.44-.18a.61.61 0 0 0 0-.87L6.154 4.584a.63.63 0 0 0-.882 0 .61.61 0 0 0 0 .87L6.3 6.47c.123.117.283.179.442.179m-1.686 3.46c.345 0 .625.277.625.616s-.28.616-.625.616H3.602a.62.62 0 0 1-.624-.616c0-.34.28-.617.624-.617zm15.972.543a.62.62 0 0 0-.625-.617h-1.45a.62.62 0 0 0-.625.617c0 .339.28.616.624.616h1.451a.62.62 0 0 0 .625-.616m-5.866 1.252a.619.619 0 0 1-.655-.583c-.129-2.476-2.107-2.787-2.952-2.804q-.079-.003-.156-.002-.093.001-.186-.003a.62.62 0 0 1-.625-.616c0-.34.28-.617.625-.617.123 0 .26 0 .378.006 1.908.042 4.011 1.106 4.162 3.972a.62.62 0 0 1-.59.647m2.454-.894c0-5.134-4.31-5.568-5.414-5.593a12 12 0 0 0-.541-.003c-1.134.005-5.353.392-5.353 5.568 0 2.614 1.087 4.014 2.305 4.754l.009 1.112c0 .512.151.91.454 1.173.285.255.722.387 1.89.387h1.998c1.196 0 1.63-.129 1.913-.387.297-.263.442-.66.442-1.173l-.008-1.12c1.218-.746 2.305-2.135 2.305-4.718"/></svg>