<svg width="24" height="24" viewBox="0 0 24 24" fill="none" xmlns="http://www.w3.org/2000/svg">
<path fill-rule="evenodd" clip-rule="evenodd" d="M11.9945 4.05041C11.9945 4.38934 12.2746 4.66665 12.6191 4.66665C12.9608 4.66665 13.2409 4.38934 13.2437 4.05041V2.61624C13.2437 2.27731 12.9636 2 12.6191 2C12.2746 2 11.9945 2.27731 11.9945 2.61624V4.05041ZM15.3838 18.7534C15.7283 18.7534 16.0084 19.0307 16.0084 19.3697C16.0084 19.7086 15.7283 19.9859 15.3838 19.9859H10.0925C9.74797 19.9859 9.46786 19.7086 9.46786 19.3697C9.46786 19.0307 9.74797 18.7534 10.0925 18.7534H15.3838ZM14.6695 20.4537C15.014 20.4537 15.2942 20.731 15.2942 21.0699C15.2942 21.4089 15.014 21.6862 14.6695 21.6862H10.6443C10.2998 21.6862 10.0197 21.4089 10.0197 21.0699C10.0197 20.731 10.2998 20.4537 10.6443 20.4537H14.6695ZM17.7227 6.31651C17.5631 6.31651 17.4034 6.25768 17.2829 6.13724C17.0392 5.89634 17.0392 5.50699 17.2829 5.26609L18.311 4.25209C18.5546 4.0112 18.9496 4.0112 19.1933 4.25209C19.437 4.49299 19.437 4.88234 19.1933 5.12324L18.1653 6.13724C18.042 6.25768 17.8824 6.31651 17.7227 6.31651ZM7.43705 6.49298C7.59391 6.49298 7.75638 6.43415 7.87683 6.31371C8.12052 6.07281 8.12052 5.68346 7.87683 5.44256L6.84882 4.42856C6.60512 4.18767 6.21017 4.18767 5.96647 4.42856C5.72277 4.66946 5.72277 5.05881 5.96647 5.29971L6.99448 6.31371C7.11773 6.43135 7.27739 6.49298 7.43705 6.49298ZM5.75079 9.95234C6.09532 9.95234 6.37543 10.2297 6.37543 10.5686C6.37543 10.9075 6.09532 11.1848 5.75079 11.1848H4.29701C3.95247 11.1848 3.67236 10.9075 3.67236 10.5686C3.67236 10.2297 3.95247 9.95234 4.29701 9.95234H5.75079ZM21.7227 10.4958C21.7227 10.1568 21.4426 9.87952 21.0981 9.87952H19.6471C19.3025 9.87952 19.0224 10.1568 19.0224 10.4958C19.0224 10.8347 19.3025 11.112 19.6471 11.112H21.0981C21.4426 11.112 21.7227 10.8347 21.7227 10.4958ZM15.8572 11.7479C16.2017 11.731 16.465 11.4425 16.4482 11.1008C16.297 8.23527 14.1933 7.17085 12.2858 7.12883C12.1681 7.12323 12.0309 7.12323 11.9076 7.12323C11.5631 7.12323 11.283 7.40054 11.283 7.73947C11.283 8.0784 11.5631 8.35571 11.9076 8.35571C11.9703 8.3603 12.0321 8.35988 12.0939 8.35946C12.1455 8.35912 12.1971 8.35877 12.2494 8.36132C13.0953 8.37812 15.0729 8.68904 15.2017 11.1652C15.2185 11.493 15.493 11.7479 15.8236 11.7479C15.8376 11.7507 15.846 11.7507 15.8572 11.7479ZM18.311 10.8543C18.311 5.71987 14 5.2857 12.8964 5.26049C12.7255 5.25489 12.5323 5.25489 12.3558 5.25769C11.2213 5.26329 7.00288 5.64984 7.00288 10.8263C7.00288 13.4397 8.08971 14.8403 9.30819 15.5798L9.3166 16.6918C9.3166 17.2044 9.46786 17.6022 9.77038 17.8655C10.0561 18.1204 10.4931 18.252 11.6611 18.252H13.6583C14.8544 18.252 15.2886 18.1232 15.5715 17.8655C15.8684 17.6022 16.014 17.2044 16.014 16.6918L16.0056 15.5714C17.2241 14.8263 18.311 13.4369 18.311 10.8543Z" fill="#313235"/>
</svg>
