<svg width="24" height="24" viewBox="0 0 24 24" fill="none" xmlns="http://www.w3.org/2000/svg">
<path d="M18.1212 11.4505C18.0651 11.2404 17.8999 11.0752 17.687 11.022L13.1828 9.91272L15.9055 3.00797C16.0119 2.73626 15.9167 2.42534 15.6758 2.26287C15.4377 2.10321 15.1156 2.14242 14.9223 2.35531L6.00633 11.9239C5.85787 12.0836 5.80465 12.3105 5.86347 12.5206C5.92229 12.7306 6.08476 12.8903 6.29484 12.9435L10.4069 13.9603L7.70941 21.0107C7.60577 21.2796 7.701 21.585 7.9391 21.7474C8.17439 21.9071 8.49092 21.8735 8.687 21.6662L17.9727 12.05C18.124 11.8903 18.18 11.6634 18.1212 11.4505Z" fill="#313235"/>
</svg>
