<svg width="24" height="24" viewBox="0 0 24 24" fill="none" xmlns="http://www.w3.org/2000/svg">
<path fill-rule="evenodd" clip-rule="evenodd" d="M21.8462 10.9471C21.8462 11.6194 21.6781 12.1068 21.4652 12.4513C21.6781 12.7846 21.8462 13.2384 21.849 13.8378C21.849 14.4961 21.5885 15.1012 21.1011 15.5857C21.2271 15.8799 21.3224 16.2636 21.3224 16.7538C21.3224 17.5409 20.9106 18.2216 20.1739 18.6838C20.2439 19.0311 20.2383 19.4233 20.1627 19.8799C20.1543 19.9163 20.1459 19.9527 20.1319 19.9891C19.5689 21.5157 18.6669 21.8462 15.0563 21.8462C12.8157 21.8462 11.8556 21.5669 11.0878 21.3435L11.0731 21.3392L10.863 21.2804C10.5465 21.1852 10.2944 21.1152 10.1319 21.1152L7.32518 21.0787C7.27924 21.0787 7.23723 21.067 7.19467 21.055C7.17495 21.0495 7.15511 21.044 7.1347 21.0395C6.8826 21.2496 6.56047 21.3813 6.20753 21.3813H3.61649C2.81257 21.3813 2.15991 20.7286 2.15991 19.9247V12.3308C2.15991 11.5241 2.81257 10.8715 3.61649 10.8715H6.20193C6.53526 10.8715 6.84058 10.9891 7.08708 11.1796C7.6361 10.8967 8.85459 10.1376 8.97224 8.90507C9.08148 7.78182 9.06747 6.37846 9.04226 5.26642C9.04226 5.25941 9.04156 5.25241 9.04086 5.24541C9.04016 5.2384 9.03946 5.2314 9.03946 5.2244C9.03685 5.13023 9.02935 5.05805 9.02152 4.98276C9.02097 4.97742 9.02041 4.97207 9.01986 4.9667L9.00025 4.737C8.93302 3.78742 9.27476 3.20759 9.56888 2.88826C10.0115 2.41207 10.6781 2.15997 11.496 2.15997C13.0619 2.15997 13.9946 3.10955 13.9946 4.69499L13.9918 4.79303L13.9862 4.92468C13.9862 6.18518 13.9834 7.71179 13.9806 8.53812L16.0507 8.59975H19.4624C20.6669 8.66698 21.8462 9.41768 21.8462 10.9471ZM20.2551 12.9051C20.496 13.1264 20.6165 13.4429 20.6165 13.8434C20.6165 14.2748 20.3924 14.6474 19.9526 14.9471C19.8098 15.0451 19.7145 15.202 19.6921 15.3757C19.6697 15.5493 19.7201 15.723 19.835 15.8547C20.003 16.0507 20.0899 16.3617 20.0899 16.7566C20.0899 17.3196 19.5941 17.6446 19.1795 17.8182C19.0171 17.8855 18.8938 18.0171 18.8378 18.1796C18.779 18.3448 18.793 18.5241 18.877 18.6782C18.961 18.8294 19.0423 19.0731 18.9582 19.6194C18.7089 20.2832 18.496 20.6166 15.0563 20.6166C12.9855 20.6166 12.1571 20.3753 11.4287 20.1632L11.4176 20.16L11.2019 20.0983C10.793 19.9807 10.468 19.8883 10.1403 19.8883L7.66411 19.8547V12.3336C7.66411 12.319 7.66198 12.3064 7.65957 12.2923L7.65851 12.286V12.2776C8.41762 11.8855 10.0255 10.8462 10.1991 9.02832C10.3168 7.81824 10.3 6.33364 10.2748 5.17678C10.2748 5.15437 10.272 5.13196 10.2692 5.10955C10.2639 5.01728 10.2561 4.9399 10.2482 4.86106L10.2482 4.86102L10.2467 4.84625L10.2299 4.65577C10.2019 4.24681 10.2832 3.93588 10.4736 3.7314C10.7341 3.45409 11.1767 3.39527 11.5016 3.39527C12.3924 3.39527 12.7706 3.78462 12.7706 4.75941L12.765 4.87986V4.91347C12.765 6.737 12.7566 9.13476 12.7566 9.13476C12.7566 9.4681 13.0199 9.74261 13.3532 9.75101L16.0395 9.83224H19.4344C19.793 9.85185 20.6249 10.0003 20.6249 10.9499C20.6249 11.4261 20.5016 11.7902 20.2664 12.0003C20.1375 12.1152 20.0647 12.2804 20.0647 12.4541C20.0563 12.6222 20.1291 12.7874 20.2551 12.9051ZM4.8882 14.4765C4.44002 14.4765 4.1263 14.1628 4.1263 13.7146C4.1263 13.2664 4.44002 12.9527 4.8882 12.9527C5.33638 12.9527 5.64731 13.2636 5.64731 13.7146C5.64731 14.1628 5.33638 14.4765 4.8882 14.4765Z" fill="#313235"/>
</svg>
