<svg width="24" height="24" viewBox="0 0 24 24" fill="none" xmlns="http://www.w3.org/2000/svg">
<path fill-rule="evenodd" clip-rule="evenodd" d="M5.99225 2.15002H17.9754C18.7037 2.15002 19.3676 2.90913 19.3648 3.74106V20.248C19.3648 21.1108 18.7261 21.8391 17.9726 21.8391L5.99225 21.8363C5.23875 21.8363 4.6001 21.1052 4.6001 20.2452V3.73826C4.6001 2.90633 5.26396 2.15002 5.99225 2.15002ZM8.19673 7.14161C8.6393 7.14161 9.00065 7.50015 9.00345 7.94273C9.00345 8.3853 8.64211 8.74665 8.19673 8.74385C7.75415 8.74385 7.39281 8.3853 7.39281 7.94273C7.39281 7.50015 7.75415 7.14161 8.19673 7.14161ZM16.4936 7.39931H10.9306C10.5973 7.39931 10.3256 7.66822 10.3256 8.00155C10.3284 8.33489 10.5973 8.60379 10.9306 8.60379H16.4936C16.827 8.60379 17.0987 8.33489 17.0987 8.00155C17.0987 7.66822 16.827 7.39931 16.4936 7.39931ZM16.5749 12.6318H11.009C10.6757 12.6318 10.4068 12.3629 10.404 12.0296C10.404 11.699 10.6757 11.4273 11.009 11.4273H16.5749C16.9082 11.4273 17.1799 11.6962 17.1799 12.0296C17.1799 12.3601 16.9082 12.6318 16.5749 12.6318ZM16.5749 16.643H11.009C10.6757 16.643 10.4068 16.3741 10.404 16.0408C10.404 15.7074 10.6757 15.4385 11.009 15.4385H16.5749C16.9082 15.4385 17.1799 15.7074 17.1799 16.0408C17.1799 16.3713 16.9082 16.6402 16.5749 16.643ZM8.20513 12.8335C7.76256 12.8335 7.40121 12.4749 7.40121 12.0296C7.40121 11.587 7.76256 11.2284 8.20513 11.2284C8.64771 11.2284 9.00905 11.587 9.00905 12.0296C9.00905 12.4721 8.65051 12.8335 8.20513 12.8335ZM7.40121 16.0408C7.40121 16.4833 7.76256 16.8419 8.20513 16.8419C8.65051 16.8419 9.00905 16.4833 9.00905 16.0408C9.00905 15.5982 8.64771 15.2396 8.20513 15.2396C7.76256 15.2396 7.40121 15.5982 7.40121 16.0408Z" fill="#313235"/>
</svg>
