<svg width="24" height="24" viewBox="0 0 24 24" fill="none" xmlns="http://www.w3.org/2000/svg">
<path fill-rule="evenodd" clip-rule="evenodd" d="M19.5217 13.0436L21.8159 21.0688C21.8803 21.2956 21.8074 21.5365 21.631 21.6878C21.5189 21.7858 21.3761 21.8363 21.2332 21.8363C21.1492 21.8363 21.068 21.8195 20.9895 21.7858L16.8215 19.9483L12.2164 21.7914C12.0988 21.8363 11.9727 21.8475 11.8523 21.8167L11.7402 21.7914C11.7094 21.7858 11.6786 21.7746 11.6506 21.7634L7.22204 19.9483L2.99236 21.7858C2.77667 21.8783 2.52457 21.8391 2.3481 21.6794C2.17443 21.5197 2.10721 21.276 2.17723 21.0491L4.70384 13.024C4.75706 12.8503 4.88871 12.713 5.05678 12.6458C5.22765 12.5814 5.41812 12.5926 5.57499 12.6822L7.81868 13.9511L8.14081 13.8587C6.99795 11.9399 6.02877 9.79707 6.03437 8.1108C6.04837 4.37691 8.27806 2.15002 12.0035 2.15002H12.0316C15.7738 2.16123 18.0007 4.40212 17.9895 8.14441C17.9839 9.90071 16.9755 12.0576 15.8103 13.9595L15.9783 14.0127L18.673 12.6682C18.8327 12.5898 19.0231 12.5842 19.1856 12.657C19.3481 12.7298 19.4741 12.8699 19.5217 13.0436ZM12.0288 9.1108C11.138 9.1108 10.7234 8.69623 10.7234 7.80548C10.7234 6.91472 11.138 6.50016 12.0288 6.50016C12.9195 6.50016 13.3341 6.91472 13.3341 7.80548C13.3369 8.69343 12.9223 9.1108 12.0288 9.1108ZM16.701 15.0043L17.3649 18.8727L20.306 20.1668L18.5638 14.0744L16.701 15.0043ZM12.617 18.3153L12.603 20.3433L16.1492 18.9203L15.5021 15.1276L15.138 15.0099C14.11 16.5422 13.0932 17.783 12.617 18.3153ZM7.85229 18.9063L11.3957 20.3601L11.4097 18.3657C10.8551 17.769 9.82428 16.4833 8.80467 14.9259L8.28927 15.0772L7.85229 18.9063ZM6.64221 18.8895L3.72345 20.1584L5.63101 14.1024L7.09879 14.9315L6.64221 18.8895Z" fill="#313235"/>
</svg>
