<svg width="24" height="24" viewBox="0 0 24 24" fill="none" xmlns="http://www.w3.org/2000/svg">
<path fill-rule="evenodd" clip-rule="evenodd" d="M19.2803 9.042C19.2915 4.64425 16.6948 2.01401 12.3279 2H12.2943C10.1514 2 8.38673 2.63305 7.18785 3.83473C5.98057 5.04201 5.33912 6.82912 5.33351 8.99999C5.32231 13.3221 10.6332 20.2016 11.9918 21.5686C12.073 21.6498 12.1766 21.689 12.2803 21.689C12.3867 21.689 12.4904 21.647 12.5688 21.5686C13.9329 20.196 19.2663 13.3221 19.2803 9.042ZM12.3503 6.09803C13.9133 6.09803 14.8489 7.0308 14.8489 8.59663C14.8489 10.1624 13.9161 11.0952 12.3503 11.0952C10.7873 11.0952 9.85171 10.1624 9.85171 8.59663C9.85171 7.0336 10.7873 6.09803 12.3503 6.09803Z" fill="#313235"/>
</svg>
