<svg xmlns="http://www.w3.org/2000/svg" width="24" height="24" fill="none"><path fill="#0B2739" d="m19.527 13.049 2.294 8.025a.605.605 0 0 1-.826.717l-4.169-1.838-4.605 1.843a.6.6 0 0 1-.364.026l-.112-.026a.476.476 0 0 1-.09-.028l-4.428-1.815-4.23 1.838a.605.605 0 0 1-.815-.737L4.71 13.03a.599.599 0 0 1 .87-.342l2.245 1.27.322-.093c-1.143-1.92-2.112-4.062-2.107-5.748.014-3.734 2.244-5.961 5.97-5.961h.027c3.743.011 5.97 2.252 5.958 5.994-.005 1.757-1.014 3.914-2.179 5.816l.168.053 2.695-1.345a.6.6 0 0 1 .849.375Zm-7.493-3.933c.893 0 1.308-.418 1.305-1.306 0-.89-.415-1.305-1.305-1.305-.891 0-1.306.415-1.306 1.305 0 .891.415 1.306 1.306 1.306Zm4.672 5.893.664 3.869 2.94 1.294-1.741-6.093-1.863.93Zm-4.084 3.311-.014 2.028 3.546-1.423-.647-3.792-.364-.118c-1.028 1.532-2.045 2.773-2.521 3.305Zm-4.765.591 3.544 1.454.014-1.994c-.555-.597-1.586-1.883-2.605-3.44l-.516.151-.437 3.83Zm-1.21-.017.457-3.957-1.468-.83-1.908 6.056 2.92-1.268Z"/></svg>