<svg width="24" height="24" fill="none" xmlns="http://www.w3.org/2000/svg"><path d="M19.384 11.25c.002 0 .002 1.29.002 2.9l.001 4.809c0 .896-.272 1.608-.812 2.117-.882.835-2.15.764-2.236.76h-.002l-8.717.005c-.986 0-1.757-.294-2.289-.874-.774-.843-.707-1.975-.703-2.035l-.003-7.74c0-.905.277-1.622.82-2.13.508-.473 1.141-.644 1.6-.703V7.17c0-3.664 2.44-4.992 4.723-5.014l.226.001.208.002c1.838.045 4.014.997 4.602 3.538a.603.603 0 0 1-.442.725.599.599 0 0 1-.717-.448c-.546-2.359-2.796-2.594-3.474-2.61-.12-.003-.263-.003-.395-.003-1.064.008-3.543.4-3.543 3.806v1.165c1.625-.002 6.04-.008 8.14-.008 1.006 0 1.787.297 2.322.885.76.837.695 1.944.69 2.038v.004Zm-7.417 5.168c1.356-.022 1.356-1.075 1.353-1.47 0-.359 0-1.451-1.376-1.485l-.082-.001-.086-.002h-.042c-1.33.014-1.33 1.073-1.33 1.47 0 .401 0 1.469 1.356 1.488h.207Zm-.188-4.162h-.053c-.532.005-2.51.19-2.51 2.675 0 2.493 1.997 2.686 2.53 2.694h.243c.504-.008 2.53-.201 2.53-2.677-.006-2.468-2.026-2.675-2.544-2.69-.059-.002-.129-.002-.196-.002Z" fill="#313235"/></svg>