<svg xmlns="http://www.w3.org/2000/svg" width="24" height="24" fill="none"><path fill="#313235" d="M7.087 9.2V6.655c0-2.493 2.16-4.521 4.816-4.521h.19c2.655 0 4.815 2.028 4.815 4.52v2.551c.504.137.93.367 1.272.688.619.577.938 1.425.952 2.52v6.096c-.014 1.092-.336 1.941-.952 2.52-.591.555-1.432.836-2.499.836H8.29c-1.067 0-1.908-.283-2.496-.838-.616-.58-.93-1.431-.93-2.526l.003-5.645c0-.308-.003-.431-.003-.431v-.006c0-1.095.314-1.944.93-2.526a2.947 2.947 0 0 1 1.294-.695Zm8.661-.143V6.656c0-1.852-1.638-3.362-3.655-3.362h-.19c-2.017 0-3.656 1.507-3.656 3.362v2.4h7.501Zm-2.501 8.596c.32-.306.476-.737.476-1.28 0-.544-.157-.975-.476-1.28-.305-.295-.723-.443-1.244-.443-.52 0-.938.148-1.243.442-.317.306-.477.737-.477 1.28 0 .544.16.975.477 1.28.305.295.722.443 1.243.443.521 0 .939-.148 1.244-.442Z"/></svg>