<svg width="24" height="24" viewBox="0 0 24 24" fill="none" xmlns="http://www.w3.org/2000/svg">
<path fill-rule="evenodd" clip-rule="evenodd" d="M19.2841 11.0952C19.2855 11.0952 19.2855 12.3858 19.2855 13.9947C19.2855 15.6036 19.2855 17.5307 19.2869 18.8038C19.2869 19.7002 19.0152 20.4117 18.4746 20.9215C17.5929 21.7562 16.324 21.6855 16.2393 21.6807L16.2365 21.6806L7.51946 21.6862C6.53347 21.6862 5.76316 21.3921 5.23095 20.8122C4.45694 19.9686 4.52423 18.8372 4.52782 18.7768L4.52787 18.7758L4.52507 11.0364C4.52507 10.1316 4.80238 9.41453 5.3458 8.90753C5.8528 8.43414 6.48585 8.26328 6.94523 8.20445V7.01398C6.94523 3.35013 9.385 2.02241 11.6679 2C11.7422 2 11.8187 2.00073 11.8936 2.00144C11.9656 2.00213 12.0362 2.0028 12.1021 2.0028C13.9396 2.04762 16.1161 3 16.7043 5.5406C16.7799 5.86553 16.581 6.19046 16.2617 6.26609C15.9452 6.34172 15.6231 6.14284 15.5446 5.81791C14.9984 3.45938 12.7491 3.22408 12.0713 3.20728C11.9508 3.20448 11.808 3.20448 11.6763 3.20448C10.6119 3.21288 8.1329 3.60503 8.1329 7.01118V8.17644C9.75754 8.17364 14.1721 8.16804 16.2729 8.16804C17.2785 8.16804 18.06 8.46496 18.595 9.05319C19.3554 9.89037 19.2899 10.9965 19.2844 11.0907L19.2841 11.0952ZM11.8668 16.2632H11.6595C10.3038 16.2436 10.3038 15.1764 10.3038 14.7759C10.3038 14.3781 10.3038 13.3193 11.6343 13.3053H11.6763C11.7047 13.3053 11.7337 13.306 11.7624 13.3067H11.7625C11.7905 13.3074 11.8181 13.3081 11.8444 13.3081C13.2197 13.3417 13.2197 14.4341 13.2197 14.7927C13.2225 15.1876 13.2225 16.2408 11.8668 16.2632ZM11.6791 12.1008C11.7463 12.1008 11.8164 12.1008 11.8752 12.1036C12.3934 12.1176 14.413 12.3249 14.4186 14.7927C14.4186 17.2688 12.3934 17.4621 11.8892 17.4705H11.6455C11.1133 17.4621 9.11609 17.2688 9.11609 14.7759C9.11609 12.2913 11.0937 12.1064 11.6259 12.1008H11.6791Z" fill="#313235"/>
</svg>
