<svg width="24" height="24" viewBox="0 0 24 24" fill="none" xmlns="http://www.w3.org/2000/svg">
<path fill-rule="evenodd" clip-rule="evenodd" d="M9.75609 5.34452C8.5152 4.99439 7.7589 4.5182 7.56002 3.97198C7.56002 3.96841 7.56002 3.96636 7.55938 3.96453C7.55851 3.96206 7.55645 3.96001 7.55162 3.95518L7.55162 3.95517C7.7505 3.40896 8.5068 2.92156 9.73929 2.57423C11.0474 2.20448 12.7757 2 14.6104 2C16.4451 2 18.1734 2.20448 19.4703 2.57423C20.7701 2.94397 21.5039 3.42576 21.6664 3.99999C21.6664 3.99999 21.658 4.00839 21.658 4.0168C21.4395 4.54621 20.6944 5.00279 19.4815 5.34452C18.1734 5.71427 16.4535 5.91875 14.6216 5.91875C12.7841 5.92155 11.0642 5.71427 9.75609 5.34452ZM9.40315 15.6414C9.40315 13.7507 7.77291 13.591 7.35554 13.5826C7.33239 13.5826 7.30726 13.5819 7.28143 13.5812C7.25412 13.5805 7.22603 13.5798 7.19868 13.5798H7.15386C6.72529 13.5854 5.13146 13.7254 5.13146 15.6302C5.13146 17.5378 6.7393 17.6862 7.16787 17.6918H7.36395C7.77291 17.6834 9.40315 17.5378 9.40315 15.6414ZM8.2631 15.6414C8.2631 15.9355 8.2631 16.5462 7.34154 16.563H7.18187C6.26871 16.5518 6.26871 15.9523 6.26871 15.6302C6.26871 15.3081 6.26871 14.717 7.16507 14.7086H7.32753C8.2631 14.731 8.2631 15.3473 8.2631 15.6414ZM9.84293 10.2969V10.8823L4.94379 10.8851V10.2773C4.94379 8.19325 6.38076 7.86832 7.23509 7.85992L7.49 7.86272H7.5068C8.20988 7.87953 9.84293 8.15123 9.84293 10.2969ZM3.47601 19.0532C3.64687 19.2324 3.92979 19.3221 4.32194 19.3221L10.4592 19.3193C10.6384 19.3305 11.0586 19.2968 11.3023 19.0672C11.462 18.9159 11.5404 18.6862 11.5404 18.3641C11.5376 16.6106 11.5404 13.0448 11.5404 13.0448C11.5432 12.9972 11.5628 12.6162 11.3247 12.3669C11.151 12.1848 10.8625 12.0952 10.4592 12.0952L7.4928 12.098L4.33595 12.1008H4.31634C4.30375 12.1008 4.29116 12.1002 4.2773 12.0996C4.26032 12.0988 4.24143 12.098 4.2183 12.098C4.05023 12.098 3.7001 12.14 3.49001 12.3361C3.32755 12.4845 3.25192 12.717 3.25192 13.042V18.3753C3.24912 18.4173 3.23511 18.8011 3.47601 19.0532ZM11.067 10.9019C12.1314 11.084 13.3415 11.1848 14.6188 11.1848C16.4507 11.1848 18.179 10.986 19.4731 10.6134C20.7616 10.2465 21.4703 9.69184 21.7084 9.26888V5.32211C21.2294 5.68066 20.5796 5.96917 19.7504 6.20166C18.3583 6.59662 16.532 6.8123 14.6132 6.8123C12.6945 6.8123 10.8709 6.59662 9.47598 6.20166C8.62725 5.96917 7.96618 5.66385 7.49 5.30531V6.65264L7.22389 6.64984C5.61045 6.66385 3.7225 7.62463 3.7225 10.2773V10.9299C3.39477 10.9944 2.99982 11.1316 2.66369 11.4369C2.37237 11.703 2.02503 12.196 2.02503 13.0392L2.02783 18.3305C2.02223 18.4229 1.97741 19.238 2.57125 19.8711C2.98021 20.3108 3.56844 20.5321 4.31634 20.5321L8.29671 20.5293C8.65806 20.745 9.13144 20.9411 9.73368 21.112C11.0502 21.4789 12.7785 21.6862 14.6048 21.6862C16.4283 21.6862 18.1566 21.4789 19.4647 21.112C20.9577 20.6918 21.7112 20.1176 21.7112 19.4173V15.8767C21.2042 16.2436 20.5376 16.5574 19.7532 16.773C18.3695 17.168 16.5432 17.3837 14.616 17.3837C13.9774 17.3837 13.3611 17.3501 12.7589 17.3025V16.4005C13.3555 16.4509 13.9718 16.4873 14.616 16.4873C16.4507 16.4873 18.179 16.2801 19.4787 15.9131C20.7673 15.5434 21.4759 14.9887 21.714 14.5658V10.5826C21.207 10.9495 20.5404 11.2549 19.7561 11.4705C18.3723 11.8655 16.546 12.0812 14.6188 12.0812C13.8989 12.0812 13.2015 12.042 12.5264 11.9832C12.4536 11.8403 12.3611 11.6918 12.2323 11.5546C11.9354 11.2353 11.5432 11.0364 11.067 10.9439V10.9019Z" fill="#313235"/>
</svg>
