<svg width="24" height="24" viewBox="0 0 24 24" fill="none" xmlns="http://www.w3.org/2000/svg">
<path fill-rule="evenodd" clip-rule="evenodd" d="M11.9818 2.25978C15.9258 2.25698 19.486 4.61552 21.0182 8.24856C21.5168 9.43063 21.7801 10.6995 21.7941 11.9796C21.8389 17.397 17.4832 21.8284 12.063 21.8732C11.9986 21.8984 11.9314 21.9124 11.8614 21.9124C11.5672 21.9124 11.3292 21.6743 11.3292 21.3802V2.78079C11.3292 2.74717 11.332 2.71636 11.3376 2.68275C11.3908 2.39423 11.6709 2.20376 11.9594 2.25978H11.9818ZM6.84457 15.6043C7.59247 15.6043 8.20871 15.7752 8.6793 16.1085C9.15269 16.4446 9.46921 16.9348 9.61487 17.5707C9.69611 17.8956 9.73532 18.2261 9.73252 18.5595C9.73252 20.3914 8.74653 21.3858 6.87538 21.4278H6.81936C6.50283 21.4278 6.1555 21.3718 6.03505 21.3522L6.02104 21.3494L5.99583 21.3438C4.909 21.1449 3.93141 20.1505 3.23954 18.5427C2.52525 16.8816 2.1499 14.6687 2.1499 12.1365V12.0469C2.1499 9.51467 2.52805 7.29898 3.24234 5.64353C3.93421 4.03569 4.9118 3.04129 5.99863 2.84521L6.02384 2.84241L6.03785 2.83961L6.06384 2.83553C6.21071 2.81238 6.5679 2.75609 6.87818 2.76398C8.74653 2.806 9.73532 3.79759 9.73532 5.63232C9.73812 5.96565 9.69891 6.29899 9.61767 6.62111C9.46921 7.25137 9.14989 7.74716 8.6793 8.08049C8.20871 8.41383 7.58967 8.5847 6.84457 8.5847C6.6793 8.5847 6.51684 8.57629 6.35437 8.55668C6.31236 8.5903 6.13309 8.78077 6.00704 9.58469C5.88659 10.3578 5.87258 11.3606 5.87258 12.0497V12.1393C5.87258 12.8256 5.88659 13.8312 6.00704 14.6043C6.13029 15.4082 6.31236 15.5987 6.35437 15.6323C6.51684 15.6127 6.68211 15.6043 6.84457 15.6043ZM19.2507 16.932C18.5308 16.5147 17.6961 16.1701 16.7773 15.9012C17.0098 14.8228 17.1415 13.7219 17.1723 12.6183H20.7073C20.6148 14.1617 20.1134 15.6491 19.2507 16.932ZM15.7913 8.71075C14.6737 8.95164 13.5336 9.08049 12.3908 9.1029V11.5539H16.1079C16.0826 10.5987 15.9762 9.64912 15.7913 8.71075ZM12.3908 8.03848V3.36902C12.7521 3.45025 13.1079 3.63513 13.4552 3.92644C13.9566 4.34661 14.4104 4.96005 14.8053 5.74717C15.1107 6.36341 15.3572 7.01047 15.542 7.67433C14.5056 7.89562 13.4496 8.01887 12.3908 8.03848ZM12.3908 20.7639C12.7521 20.6827 13.1079 20.4978 13.4552 20.2065C13.9566 19.7864 14.4104 19.1757 14.8053 18.3886C15.0798 17.8368 15.3039 17.2653 15.4804 16.6743C14.4636 16.4614 13.43 16.3438 12.3908 16.3242V20.7639ZM12.3908 15.2598V12.6211H16.1079C16.0798 13.6379 15.9594 14.6491 15.7465 15.6435C14.6429 15.4082 13.5196 15.2794 12.3908 15.2598ZM16.8249 8.44744C17.0322 9.46985 17.1499 10.5091 17.1751 11.5539H20.7129C20.6289 10.0637 20.1639 8.62391 19.3599 7.36621C18.6289 7.80599 17.7717 8.16733 16.8249 8.44744ZM18.1639 5.88442C18.3628 6.0833 18.5504 6.28778 18.7269 6.50347C18.1135 6.85921 17.3824 7.16733 16.5728 7.41103C16.3712 6.67434 16.0967 5.95725 15.7577 5.27098C15.4692 4.69955 15.1527 4.20655 14.8081 3.78919C16.0714 4.22056 17.2199 4.93764 18.1639 5.88442ZM15.7549 18.8648C15.4692 19.4362 15.1499 19.932 14.8053 20.3466C16.0714 19.9152 17.2227 19.1981 18.1611 18.2485C18.3123 18.0973 18.458 17.9432 18.5952 17.7836C17.9958 17.4502 17.2871 17.1617 16.5112 16.932C16.3151 17.5959 16.063 18.2429 15.7549 18.8648Z" fill="#313235"/>
</svg>
