<svg width="24" height="24" fill="none" xmlns="http://www.w3.org/2000/svg"><path d="M18.144 8.1c.344.386 2.848 3.307 3.437 6.778.465 2.748.313 4.345-.496 5.18a1.96 1.96 0 0 1-1.346.552l-.063.002c-1.034 0-1.675-.544-2.029-.845l-.005-.004-.078-.067c-.297-.25-.378-.317-.717-.317h-.006c-.39 0-1.473-.09-1.644-.137-1.059-.277-1.644-1.12-1.644-2.372-.031-.695-.087-2.115-.113-3.577l-1.453-.734-1.429.72a139.788 139.788 0 0 1-.112 3.56c0 1.238-.585 2.081-1.65 2.361-.162.045-1.238.137-1.647.135-.336 0-.417.067-.717.316l-.078.067-.005.005c-.354.3-.995.844-2.029.844-.042 0-.087 0-.132-.003a1.958 1.958 0 0 1-1.274-.549c-.81-.832-.964-2.428-.499-5.179.589-3.473 3.093-6.392 3.437-6.782.499-.756 1.194-1.123 2.12-1.123 1.455 0 1.99.832 2.18 1.367.087.168.163.37.24.642v.002c.065.225.107.608.135 1.09l.034-.017V4.332a.94.94 0 0 1 .93-.947h1.014a.94.94 0 0 1 .93.947v5.697l.034.017c.025-.468.07-.84.131-1.059.076-.266.154-.473.241-.644.193-.535.728-1.367 2.182-1.367.927 0 1.622.367 2.12 1.123Zm-7.575 3.957 1.177-.594a.522.522 0 0 1 .473 0l1.202.608c0-.285.003-.563.006-.832l-.762-.386a.545.545 0 0 1-.297-.488V4.472h-.74v5.88a.55.55 0 0 1-.297.487l-.767.386c.005.27.005.547.005.832Z" fill="#313235"/></svg>