<svg width="24" height="24" viewBox="0 0 24 24" fill="none" xmlns="http://www.w3.org/2000/svg">
<path fill-rule="evenodd" clip-rule="evenodd" d="M18.1482 8.08427C18.4928 8.47083 20.997 11.3924 21.5852 14.863C22.0502 17.6109 21.8989 19.2075 21.0894 20.0422C21.0026 20.1319 20.5432 20.5632 19.8121 20.5941C19.7893 20.5941 19.7666 20.5948 19.7442 20.5955C19.7225 20.5962 19.7011 20.5969 19.6804 20.5969C18.6462 20.5969 18.0059 20.0531 17.6519 19.7525L17.6468 19.7481L17.5684 19.6809C17.2715 19.4316 17.1902 19.3644 16.8513 19.3644H16.8457C16.4564 19.3644 15.3723 19.2747 15.2015 19.2271C14.1426 18.9498 13.5572 18.1067 13.5572 16.8546C13.5264 16.1599 13.4704 14.7397 13.4452 13.2775L11.9914 12.5437L10.5628 13.2635C10.5376 14.7173 10.4816 16.1291 10.4508 16.8238C10.4508 18.0619 9.86533 18.905 8.80091 19.1851C8.63844 19.2299 7.56281 19.3224 7.15385 19.3196C6.81772 19.3196 6.73648 19.3868 6.43676 19.6361L6.35833 19.7033L6.35323 19.7076C5.99923 20.0083 5.35895 20.552 4.32472 20.552C4.28271 20.552 4.23789 20.552 4.19307 20.5492C3.46198 20.5184 3.0026 20.0871 2.91856 20.0002C2.10904 19.1683 1.95498 17.5717 2.41996 14.821C3.0082 11.3476 5.5124 8.42881 5.85693 8.03946C6.35553 7.28315 7.05021 6.91621 7.97738 6.91621C9.43116 6.91621 9.96617 7.74814 10.1566 8.28315C10.2435 8.45122 10.3191 8.6529 10.3975 8.92461V8.92741C10.462 9.1515 10.504 9.53525 10.532 10.017L10.5656 10.0002V4.31677C10.5656 3.79576 10.983 3.37 11.4956 3.37H12.5096C13.0222 3.37 13.4396 3.79576 13.4396 4.31677V10.0142L13.4732 10.031C13.4984 9.56326 13.5432 9.19072 13.6048 8.97223C13.6805 8.70612 13.7589 8.49884 13.8457 8.32797C14.039 7.79296 14.574 6.96103 16.0278 6.96103C16.955 6.96103 17.6496 7.32797 18.1482 8.08427ZM10.574 12.0423L11.7505 11.4484C11.9017 11.3728 12.0782 11.3728 12.2239 11.4484L13.4255 12.0563C13.4255 11.7705 13.4284 11.4932 13.4312 11.2243L12.6692 10.8378C12.4872 10.7453 12.3723 10.5577 12.3723 10.3504V4.45683H11.6328V10.3364C11.6328 10.5437 11.5152 10.7313 11.3359 10.8238L10.5684 11.2103C10.574 11.4792 10.574 11.7565 10.574 12.0423Z" fill="#313235"/>
</svg>
