<svg width="24" height="24" fill="none" xmlns="http://www.w3.org/2000/svg"><path d="M18.148 8.084c.345.387 2.85 3.308 3.437 6.779.465 2.748.314 4.345-.495 5.18a1.96 1.96 0 0 1-1.346.553h-.063c-1.035 0-1.675-.543-2.029-.843l-.005-.005-.078-.067c-.297-.25-.378-.317-.717-.317h-.006c-.39 0-1.473-.09-1.644-.137-1.06-.277-1.645-1.12-1.645-2.372a140.44 140.44 0 0 1-.112-3.578l-1.453-.733-1.429.72a140.259 140.259 0 0 1-.112 3.56c0 1.238-.585 2.081-1.65 2.361-.162.045-1.238.137-1.647.135-.336 0-.417.067-.717.316l-.078.067-.006.005c-.354.3-.994.844-2.028.844-.042 0-.087 0-.132-.003A1.957 1.957 0 0 1 2.92 20c-.81-.832-.964-2.428-.499-5.179.588-3.473 3.093-6.392 3.437-6.782.499-.756 1.193-1.123 2.12-1.123 1.454 0 1.99.832 2.18 1.367.087.168.162.37.24.642v.002c.065.225.107.608.135 1.09l.034-.017V4.317a.94.94 0 0 1 .93-.947h1.014a.94.94 0 0 1 .93.947v5.697l.033.017c.026-.468.07-.84.132-1.059.076-.266.154-.473.241-.644.193-.535.728-1.367 2.182-1.367.927 0 1.622.367 2.12 1.123Zm-7.574 3.958 1.177-.594a.522.522 0 0 1 .473 0l1.202.608c0-.285.003-.563.005-.832l-.761-.386a.545.545 0 0 1-.297-.488V4.457h-.74v5.88a.55.55 0 0 1-.297.487l-.767.386c.005.27.005.546.005.832Z" fill="#313235"/></svg>