<svg width="24" height="24" fill="none" xmlns="http://www.w3.org/2000/svg"><path fill-rule="evenodd" clip-rule="evenodd" d="m16.843 2.171 4.477.737c.302.05.526.31.529.619v16.955a.634.634 0 0 1-.734.62l-4.328-.715-4.596 1.431a.708.708 0 0 1-.188.028.633.633 0 0 1-.193-.028l-4.404-1.431-4.52.714a.629.629 0 0 1-.726-.619V3.524c0-.31.224-.574.53-.622l4.669-.736a.066.066 0 0 1 .024.001.054.054 0 0 0 .02.001c.009 0 .017-.002.025-.004.01-.002.019-.004.029-.004.028 0 .055.008.082.015l.038.01c.013.003.025.003.038.003.012 0 .024 0 .035.003l4.356 1.414 4.546-1.414a.099.099 0 0 1 .038-.004c.011 0 .022 0 .032-.002l.034-.008c.027-.007.054-.014.084-.014.013 0 .025.003.036.006a.19.19 0 0 0 .023.005c.005 0 .011 0 .017-.002a.083.083 0 0 1 .027 0Zm3.745 17.572-3.22-.53V3.53l3.22.53v15.683Zm-9.215.613-3.289-1.067V3.653l3.289 1.067v15.636Z" fill="#313235"/></svg>