<svg xmlns="http://www.w3.org/2000/svg" width="24" height="24" fill="none"><path fill="#0B2739" d="M16.745 12.314c0-1.277 1.1-2.314 2.459-2.314 1.36 0 2.456 1.037 2.456 2.314 0 1.277-1.1 2.312-2.459 2.312-1.36 0-2.456-1.035-2.456-2.312Zm-7.374 0c0-1.277 1.1-2.314 2.459-2.314 1.36 0 2.459 1.035 2.459 2.314 0 1.277-1.1 2.312-2.459 2.312-1.36 0-2.459-1.035-2.459-2.312ZM4.456 10C3.1 10 2 11.037 2 12.314c0 1.277 1.097 2.312 2.456 2.312 1.36 0 2.459-1.035 2.459-2.312 0-1.28-1.102-2.314-2.459-2.314Z"/></svg>