<svg xmlns="http://www.w3.org/2000/svg" width="24" height="24" fill="none"><path fill="#0B2739" d="M16.323 6.53c0-2.82-1.536-4.375-4.325-4.375-2.79 0-4.328 1.555-4.328 4.375v6.79c0 2.821 1.535 4.376 4.325 4.376 2.793 0 4.328-1.555 4.328-4.376V6.53Zm-3.348 14.345a.96.96 0 0 0-.955-.966.96.96 0 0 0-.955.966.962.962 0 0 0 .955.966.962.962 0 0 0 .955-.966Zm2.373-1.933a.96.96 0 0 1 .955.966.962.962 0 0 1-.955.967.96.96 0 0 1-.956-.966.96.96 0 0 1 .956-.967Zm3.627-1.336a.96.96 0 0 0-.955-.966.96.96 0 0 0-.955.966.962.962 0 0 0 .955.966.962.962 0 0 0 .955-.966Zm0-4.255a.82.82 0 0 1 .815.824.82.82 0 0 1-.815.826.82.82 0 0 1-.815-.826.818.818 0 0 1 .815-.824Zm-9.372 6.557a.96.96 0 0 0-.956-.966.957.957 0 0 0-.955.966.96.96 0 0 0 .955.967.962.962 0 0 0 .956-.966ZM5.975 16.64a.96.96 0 0 1 .955.966.962.962 0 0 1-.955.966.962.962 0 0 1-.955-.966.96.96 0 0 1 .955-.966ZM5.02 15a.82.82 0 0 0 .815-.825.818.818 0 0 0-.815-.824.818.818 0 0 0-.815.824.82.82 0 0 0 .815.826Z"/></svg>