<svg width="24" height="24" viewBox="0 0 24 24" fill="none" xmlns="http://www.w3.org/2000/svg">
<path fill-rule="evenodd" clip-rule="evenodd" d="M16.3177 6.53526C16.3177 3.71453 14.7827 2.15991 11.9927 2.15991C9.20283 2.15991 7.66501 3.71453 7.66501 6.53526V13.3252C7.66501 16.1459 9.20003 17.7005 11.9899 17.7005C14.7827 17.7005 16.3177 16.1459 16.3177 13.3252V6.53526ZM12.9703 20.8798C12.9703 20.3448 12.5418 19.9134 12.0152 19.9134C11.4885 19.9134 11.06 20.3448 11.06 20.8798C11.0572 21.4092 11.4857 21.8434 12.0152 21.8462C12.5418 21.8462 12.9703 21.412 12.9703 20.8798ZM15.3429 18.947C15.8695 18.947 16.2981 19.3784 16.2981 19.9134C16.2981 20.4456 15.8695 20.8798 15.3429 20.8798C14.8135 20.877 14.3849 20.4456 14.3877 19.9134C14.3877 19.3784 14.8163 18.947 15.3429 18.947ZM18.9703 17.6109C18.9703 17.0759 18.5418 16.6445 18.0152 16.6445C17.4857 16.6445 17.06 17.0787 17.06 17.6109C17.0572 18.1403 17.4857 18.5745 18.0152 18.5773C18.5418 18.5773 18.9703 18.1431 18.9703 17.6109ZM18.9703 13.356C19.4241 13.3588 19.7883 13.7285 19.7855 14.1795C19.7883 14.6333 19.4241 15.003 18.9703 15.0058C18.5166 15.003 18.1524 14.6333 18.1552 14.1795C18.1524 13.7257 18.5166 13.3588 18.9703 13.356ZM9.59779 19.9134C9.59779 19.3784 9.16922 18.947 8.64261 18.947C8.11319 18.947 7.68462 19.3784 7.68742 19.9134C7.68462 20.4456 8.11319 20.877 8.64261 20.8798C9.16922 20.8798 9.59779 20.4456 9.59779 19.9134ZM5.97034 16.6445C6.49695 16.6445 6.92552 17.0759 6.92552 17.6109C6.92552 18.1431 6.49695 18.5773 5.97034 18.5773C5.44092 18.5745 5.01235 18.1403 5.01515 17.6109C5.01515 17.0787 5.44092 16.6445 5.97034 16.6445ZM5.01515 15.0058C5.46894 15.003 5.83308 14.6333 5.83028 14.1795C5.83308 13.7257 5.46894 13.3588 5.01515 13.356C4.56137 13.3588 4.19723 13.7257 4.20003 14.1795C4.19723 14.6333 4.56137 15.003 5.01515 15.0058Z" fill="#313235"/>
</svg>
