<svg xmlns="http://www.w3.org/2000/svg" width="24" height="24" fill="none"><path fill="#000" d="M16.323 6.53c0-2.82-1.535-4.375-4.325-4.375S7.67 3.71 7.67 6.53v6.79c0 2.821 1.535 4.376 4.325 4.376 2.793 0 4.328-1.555 4.328-4.376zm-3.348 14.345a.96.96 0 0 0-.955-.966.96.96 0 0 0-.955.966.96.96 0 0 0 .955.966.96.96 0 0 0 .955-.966m2.373-1.933a.96.96 0 0 1 .955.966.96.96 0 0 1-.955.967.96.96 0 0 1-.955-.966.96.96 0 0 1 .955-.967m3.627-1.336a.96.96 0 0 0-.955-.966.96.96 0 0 0-.955.966.96.96 0 0 0 .955.966.96.96 0 0 0 .955-.966m0-4.255a.82.82 0 0 1 .816.824.82.82 0 0 1-.816.826.82.82 0 0 1-.815-.826.82.82 0 0 1 .815-.824m-9.372 6.557a.96.96 0 0 0-.955-.966.957.957 0 0 0-.956.966.96.96 0 0 0 .956.967.96.96 0 0 0 .955-.966M5.975 16.64a.96.96 0 0 1 .956.966.96.96 0 0 1-.956.966.96.96 0 0 1-.955-.966.96.96 0 0 1 .955-.966M5.02 15a.82.82 0 0 0 .815-.825.82.82 0 0 0-.815-.824.82.82 0 0 0-.815.824.82.82 0 0 0 .815.826"/></svg>