<svg xmlns="http://www.w3.org/2000/svg" width="24" height="24" fill="none"><path fill="#000" d="M12.44 2.25h-.921c-2.224 0-4.026 1.842-4.026 4.115v6.671c0 2.272 1.802 4.115 4.026 4.115h.92c2.224 0 4.026-1.843 4.026-4.115V6.365c0-2.273-1.802-4.115-4.026-4.115"/><path fill="#000" d="M17.65 15.055a.57.57 0 0 0-.754.311q-.234.571-.607 1.061a4.6 4.6 0 0 1-3.69 1.852h-1.196a4.5 4.5 0 0 1-2.119-.52 4.74 4.74 0 0 1-2.18-2.393.57.57 0 0 0-.753-.311.59.59 0 0 0-.305.77A5.896 5.896 0 0 0 8.76 18.81c.822.429 1.71.646 2.643.646v1.117h-.829a.583.583 0 0 0-.575.588c0 .323.259.588.575.588h2.804a.583.583 0 0 0 .575-.588.583.583 0 0 0-.575-.588h-.828v-1.117h.046c.915 0 1.792-.211 2.605-.629a5.9 5.9 0 0 0 2.753-3.003.593.593 0 0 0-.305-.77"/></svg>