<svg width="24" height="24" fill="none" xmlns="http://www.w3.org/2000/svg"><path fill-rule="evenodd" clip-rule="evenodd" d="M16.318 6.535c0-2.82-1.535-4.375-4.325-4.375S7.665 3.715 7.665 6.535v6.79c0 2.821 1.535 4.376 4.325 4.376 2.793 0 4.328-1.555 4.328-4.376v-6.79ZM12.97 20.88a.96.96 0 0 0-.955-.966.96.96 0 0 0-.955.966.962.962 0 0 0 .955.966.962.962 0 0 0 .955-.966Zm2.373-1.933a.96.96 0 0 1 .955.966.962.962 0 0 1-.955.967.96.96 0 0 1-.955-.966.96.96 0 0 1 .955-.967Zm3.627-1.336a.96.96 0 0 0-.955-.966.96.96 0 0 0-.955.966.962.962 0 0 0 .955.966.962.962 0 0 0 .955-.966Zm0-4.255a.82.82 0 0 1 .815.824.82.82 0 0 1-.815.826.82.82 0 0 1-.815-.826.818.818 0 0 1 .815-.824Zm-9.372 6.557a.96.96 0 0 0-.955-.966.957.957 0 0 0-.956.966.96.96 0 0 0 .956.967.962.962 0 0 0 .955-.966ZM5.97 16.645a.96.96 0 0 1 .955.966.962.962 0 0 1-.955.966.962.962 0 0 1-.955-.966.96.96 0 0 1 .955-.966Zm-.955-1.64a.82.82 0 0 0 .815-.825.818.818 0 0 0-.815-.824.818.818 0 0 0-.815.824.82.82 0 0 0 .815.826Z" fill="#313235"/></svg>