<svg xmlns="http://www.w3.org/2000/svg" width="24" height="24" fill="none"><path fill="#0B2739" d="M18.751 5.83a.636.636 0 0 0 .053-.911c-2.688-2.94-6.667-2.768-6.866-2.76h-.005c-4.325.046-6.638 2.49-6.736 2.595a.633.633 0 0 0 .044.91.673.673 0 0 0 .933-.045l.002-.002c.068-.07 2.062-2.127 5.802-2.169.037-.005 3.566-.162 5.843 2.328a.668.668 0 0 0 .93.053m-6.756 4.912c.896 0 1.597.233 2.084.692.504.474.762 1.18.762 2.09 0 .913-.255 1.616-.762 2.09-.485.453-1.185.686-2.084.686-.896 0-1.597-.233-2.081-.687-.502-.473-.76-1.176-.76-2.09 0-.91.255-1.615.76-2.089.484-.46 1.182-.692 2.08-.692m1.731 6.776c1.053 0 1.919.311 2.501.905.533.543.818 1.297.818 2.182v.924a.32.32 0 0 1-.322.317H7.278a.32.32 0 0 1-.322-.317v-.924c0-.882.28-1.639.815-2.182.58-.594 1.442-.905 2.498-.905zM11.939 4.994c.112-.01 3.32-.114 5.367 2.124a.63.63 0 0 1-.053.907.667.667 0 0 1-.93-.047C14.7 6.205 12 6.28 11.973 6.283c-2.684.03-4.289 1.711-4.303 1.731a.677.677 0 0 1-.933.045.639.639 0 0 1-.05-.91c.084-.09 1.991-2.118 5.252-2.155m2.61 5.174a.673.673 0 0 0 .933.053.636.636 0 0 0 .054-.91c-1.334-1.459-3.395-1.426-3.568-1.423h-.01c-2.168.022-3.442 1.381-3.495 1.44a.635.635 0 0 0 .045.907.664.664 0 0 0 .442.166c.18 0 .359-.07.487-.208.04-.042.964-1 2.555-1.016h.003c.08-.002 1.628-.024 2.555.991"/></svg>