<svg width="24" height="24" viewBox="0 0 24 24" fill="none" xmlns="http://www.w3.org/2000/svg">
<path fill-rule="evenodd" clip-rule="evenodd" d="M15.2409 2C16.3501 2 17.1513 2.27171 17.6947 2.83193C18.2297 3.38095 18.4902 4.18487 18.4902 5.29132V18.395C18.4902 20.6106 17.4286 21.6863 15.2409 21.6863H8.60224C6.41456 21.6863 5.35294 20.6106 5.35294 18.395V5.29132C5.35294 3.10644 6.44537 2 8.60224 2H15.2409ZM11.9272 19.3585C12.2689 19.3585 12.5518 19.2521 12.7479 19.0532C12.9384 18.8543 13.0364 18.5826 13.0392 18.2437C13.0392 17.5462 12.6274 17.1289 11.93 17.1289C11.2325 17.1289 10.8179 17.5462 10.8179 18.2437C10.8179 18.5826 10.9132 18.8543 11.1064 19.0532C11.2997 19.2521 11.5854 19.3585 11.9272 19.3585Z" fill="#313235"/>
</svg>
