<svg width="24" height="24" viewBox="0 0 24 24" fill="none" xmlns="http://www.w3.org/2000/svg">
<path fill-rule="evenodd" clip-rule="evenodd" d="M20.8994 3.10955C21.5409 3.75381 21.849 4.64457 21.849 5.85185V18.1544C21.849 19.3673 21.5325 20.2692 20.8826 20.9051C20.2411 21.5409 19.3392 21.8462 18.1207 21.8462H11.9106C10.6921 21.8462 9.79297 21.5409 9.14311 20.9135C8.56888 20.342 8.25795 19.5717 8.19353 18.5493V18.0031C8.17426 18.0031 8.15635 18.0051 8.13813 18.0072L8.13811 18.0072C8.11925 18.0093 8.10005 18.0115 8.07868 18.0115C4.33638 18.0115 2.15991 16.1376 2.15991 12.1404C2.15991 8.13476 4.33638 6.26081 8.07868 6.26081C8.09904 6.26081 8.11789 6.26308 8.13601 6.26526L8.13602 6.26526C8.1528 6.26727 8.16896 6.26922 8.18512 6.26922V5.85185C8.18512 4.66137 8.49325 3.77622 9.14311 3.12636C9.79297 2.4737 10.6949 2.15997 11.9106 2.15997H18.1207C19.3392 2.15997 20.2495 2.4737 20.8994 3.10955ZM12.7986 12.1404C12.7986 15.3168 11.2972 16.8042 8.08148 16.8042C4.8742 16.8042 3.3812 15.3168 3.3812 12.1404C3.3812 8.95549 4.8742 7.4681 8.08148 7.4681C11.2972 7.4681 12.7986 8.95549 12.7986 12.1404ZM11.3588 11.6138L6.65291 8.92188C6.46523 8.81263 6.23274 8.81263 6.04507 8.92188C5.85739 9.02832 5.73974 9.23 5.73974 9.44289V14.8266C5.73974 15.0423 5.85459 15.2412 6.04507 15.3476C6.1403 15.4037 6.24395 15.4289 6.35039 15.4289C6.45683 15.4289 6.56047 15.4037 6.65571 15.3476L11.3616 12.6558C11.5493 12.5493 11.6669 12.3476 11.6669 12.132C11.6641 11.9219 11.5493 11.723 11.3588 11.6138ZM6.95823 13.7846V10.4877L9.83778 12.1348L6.95823 13.7846ZM15.0171 19.0535C14.6921 19.0535 14.4232 18.9555 14.2383 18.7678C14.0563 18.5829 13.9638 18.3252 13.9638 18.0087C13.9638 17.3533 14.3588 16.9611 15.0171 16.9611C15.6753 16.9611 16.0703 17.3533 16.0703 18.0087C16.0703 18.328 15.9778 18.5829 15.7958 18.7678C15.6109 18.9555 15.342 19.0535 15.0171 19.0535Z" fill="#313235"/>
</svg>
