<svg width="24" height="24" viewBox="0 0 24 24" fill="none" xmlns="http://www.w3.org/2000/svg">
<path fill-rule="evenodd" clip-rule="evenodd" d="M20.891 3.12356C21.5409 3.75941 21.849 4.65857 21.849 5.85465V18.1544C21.849 19.3757 21.5325 20.2776 20.8826 20.9107C20.2411 21.5381 19.3392 21.8519 18.1235 21.8519H11.9162C10.6977 21.8519 9.79857 21.5381 9.14871 20.9107C8.57168 20.3392 8.26355 19.5689 8.19913 18.5549V18.0087H8.08428C4.34479 18.0087 2.15991 16.1348 2.15991 12.1404C2.15991 8.14597 4.34479 6.27202 8.08428 6.27202H8.19072V5.85185C8.19072 4.66978 8.49885 3.77902 9.14871 3.13476C9.79577 2.4849 10.6977 2.15997 11.9162 2.15997H18.1235C19.342 2.16558 20.2495 2.4793 20.891 3.12356ZM12.8014 12.1432C12.8014 15.3252 11.3 16.8042 8.08708 16.8042C4.8826 16.8042 3.3812 15.3252 3.3812 12.1432C3.3812 8.96109 4.8826 7.4821 8.08708 7.4821C11.3 7.4821 12.8014 8.96109 12.8014 12.1432ZM9.28316 8.92468C9.73974 9.25521 9.95263 9.71179 9.95263 10.3589C9.95263 11.1292 9.6221 11.5997 8.92462 12.4205C8.14591 13.314 8.14591 13.314 8.14591 14.0955C8.14591 14.3168 7.96383 14.4961 7.73974 14.4961H7.47924C7.28596 14.4961 7.1179 14.3617 7.08148 14.1712C7.05907 14.0535 7.04507 13.9331 7.04507 13.7678C7.04507 13.0871 7.29156 12.6726 7.81257 12.0535L7.91061 11.9387C8.74255 10.9611 8.85459 10.7342 8.85459 10.3476C8.85459 10.0731 8.78456 9.91067 8.60249 9.76782C8.49885 9.68378 8.30557 9.58854 7.75095 9.58854C7.43442 9.58854 7.15151 9.62496 6.81257 9.71179C6.70613 9.737 6.59128 9.7202 6.49605 9.66137C6.40081 9.60255 6.33638 9.50731 6.31397 9.39807L6.27476 9.19919C6.24114 9.01712 6.33358 8.83784 6.50165 8.75941C6.78176 8.63056 7.37 8.52972 7.8686 8.52972C8.45683 8.52692 8.93302 8.66137 9.28316 8.92468ZM7.6249 14.7594C8.03106 14.7594 8.30837 15.0367 8.30837 15.4177C8.30837 15.8378 8.03386 16.1068 7.64171 16.1068C7.22994 16.1068 6.95823 15.8406 6.95823 15.4569V15.4205C6.96103 15.0367 7.23834 14.7594 7.6249 14.7594ZM13.9694 18.0087C13.9694 17.3504 14.3588 16.9639 15.0171 16.9639C15.6809 16.9639 16.0703 17.3504 16.0703 18.0087C16.0703 18.328 15.9806 18.5857 15.7958 18.7622C15.6081 18.9555 15.342 19.0507 15.0171 19.0507C14.6921 19.0507 14.426 18.9555 14.2383 18.7622C14.0591 18.5857 13.9694 18.328 13.9694 18.0087Z" fill="#313235"/>
</svg>
