<svg width="24" height="24" viewBox="0 0 24 24" fill="none" xmlns="http://www.w3.org/2000/svg">
<path fill-rule="evenodd" clip-rule="evenodd" d="M20.8939 3.11509C21.5354 3.75375 21.8491 4.65011 21.8491 5.85179V18.1571C21.8491 19.3728 21.5354 20.272 20.8855 20.9106C20.2412 21.5409 19.3365 21.849 18.1208 21.849H11.9107C10.6922 21.849 9.79026 21.5409 9.1488 20.9106C8.57177 20.3448 8.26084 19.5717 8.19642 18.5521V18.003C8.17858 18.003 8.16073 18.0037 8.14256 18.0044L8.14248 18.0044C8.12359 18.0051 8.10434 18.0059 8.08437 18.0059C4.34208 18.0059 2.16 16.1347 2.16 12.1375C2.16 8.1375 4.34208 6.26635 8.08437 6.26635C8.10118 6.26635 8.11799 6.26706 8.13479 6.26776L8.13483 6.26776C8.15162 6.26846 8.16842 6.26916 8.18521 6.26916V5.85179C8.18521 4.66691 8.49894 3.77616 9.1404 3.1319C9.79306 2.47924 10.6978 2.15991 11.9107 2.15991H18.1208C19.3421 2.16271 20.2496 2.47364 20.8939 3.11509ZM8.08717 16.8014C11.3001 16.8014 12.7959 15.3196 12.7959 12.1375C12.7959 8.95543 11.3001 7.47084 8.08717 7.47084C4.87709 7.47084 3.38129 8.95263 3.38129 12.1375C3.38129 15.3196 4.87709 16.8014 8.08717 16.8014ZM13.9639 18.0087C13.9639 17.3532 14.3589 16.961 15.0171 16.961C15.6782 16.961 16.0704 17.3532 16.0704 18.0087C16.0704 18.328 15.9779 18.5829 15.7959 18.7678C15.611 18.9554 15.3421 19.0535 15.0171 19.0535C14.6922 19.0535 14.4233 18.9554 14.2384 18.7678C14.0564 18.5857 13.9639 18.328 13.9639 18.0087ZM6.26645 9.30557C6.60258 9.30557 6.87429 9.57448 6.87429 9.90781V14.6193C6.87429 14.9526 6.60258 15.2243 6.26645 15.2243C5.93031 15.2243 5.6586 14.9554 5.6586 14.6193V9.91061C5.6586 9.57728 5.93311 9.30557 6.26645 9.30557ZM10.3253 9.89381C10.3253 9.56327 10.0536 9.29156 9.71743 9.29156C9.38129 9.29156 9.10958 9.56047 9.10958 9.89381V14.6053C9.10958 14.9414 9.38129 15.2103 9.71743 15.2103C10.0536 15.2103 10.3253 14.9386 10.3253 14.6053V9.89381Z" fill="#313235"/>
</svg>
