<svg width="24" height="24" viewBox="0 0 24 24" fill="none" xmlns="http://www.w3.org/2000/svg">
<path fill-rule="evenodd" clip-rule="evenodd" d="M14.1219 6.44968C14.2507 6.72419 14.514 6.89506 14.8081 6.89506L15.9566 6.90627L15.9594 8.88385C15.9594 9.4945 16.4496 9.99029 17.0518 9.99029H18.7689C19.3712 9.99029 19.8614 9.4945 19.8614 8.88105L19.8586 6.90347L21.0042 6.89506C21.3011 6.89506 21.5644 6.72419 21.6933 6.44968C21.8221 6.17518 21.7829 5.84464 21.556 5.56733L18.5056 2.43569C18.4776 2.40207 18.4244 2.34885 18.3908 2.32084C18.2339 2.19199 18.035 2.13037 17.8305 2.15558C17.6289 2.17798 17.4468 2.28163 17.3656 2.39087L14.2227 5.60655C14.0322 5.84464 13.993 6.17237 14.1219 6.44968ZM3.50284 6.83064C3.16391 6.83064 2.8866 7.11075 2.8866 7.45528C2.8866 7.79982 3.1611 8.07993 3.50004 8.08554H4.09107C4.60368 9.69057 5.92581 10.5617 7.94821 10.5617C8.76053 10.5617 9.46922 10.4189 10.0546 10.1388C10.3628 9.99029 10.4944 9.61775 10.3488 9.30402C10.2031 8.9931 9.83616 8.85584 9.52804 9.0043C9.10787 9.20598 8.57846 9.30682 7.94821 9.30682C6.6709 9.30682 5.84737 8.90346 5.42441 8.07993H7.32356C7.6625 8.07993 7.93981 7.79982 7.93981 7.45528C7.93981 7.11075 7.6653 6.83064 7.32356 6.83064H5.10508C5.10233 6.78382 5.09867 6.73761 5.095 6.69121L5.095 6.69121L5.095 6.6912L5.095 6.69119L5.095 6.69118L5.095 6.69118L5.09499 6.69117L5.09499 6.69116L5.09499 6.69116L5.09499 6.69115L5.09499 6.69114L5.09499 6.69113C5.08746 6.59596 5.07987 6.50001 5.07987 6.39646C5.07987 6.37545 5.08197 6.35585 5.08407 6.33624C5.08617 6.31663 5.08827 6.29702 5.08827 6.27602H7.32356C7.6625 6.27602 7.93981 5.9959 7.93981 5.65137C7.93981 5.30683 7.6653 5.02672 7.32356 5.02672H5.28715C5.6541 3.9847 6.51964 3.4861 7.94821 3.4861C8.57006 3.4861 9.09667 3.58694 9.51403 3.78302C9.81655 3.92868 10.1891 3.79143 10.332 3.4777C10.4748 3.16398 10.3404 2.79143 10.0322 2.64577C9.45241 2.37126 8.75213 2.23401 7.94821 2.23401C5.79976 2.23401 4.45242 3.2228 4.01544 5.02672H3.50004C3.1611 5.02672 2.88379 5.30683 2.88379 5.65137C2.88379 5.9959 3.1583 6.27602 3.50004 6.27602H3.85578C3.85578 6.29702 3.85368 6.31663 3.85158 6.33624C3.84948 6.35585 3.84738 6.37545 3.84738 6.39646C3.84738 6.49152 3.85591 6.5791 3.86442 6.66647C3.8697 6.7207 3.87497 6.77485 3.87819 6.83064H3.50284ZM19.9958 20.3516C20.5252 20.192 20.6036 20.0267 20.6036 20.0267V19.1751C20.5847 19.183 20.566 19.1909 20.5472 19.1989L20.5472 19.1989L20.5472 19.1989L20.5471 19.199L20.5471 19.199L20.5471 19.199L20.5471 19.199L20.547 19.199L20.547 19.199L20.547 19.199C20.4851 19.2253 20.423 19.2517 20.3543 19.2732C19.7493 19.4581 18.9678 19.5589 18.1499 19.5589C17.3319 19.5589 16.5504 19.4581 15.9454 19.2732C15.8775 19.2526 15.8171 19.2275 15.7565 19.2023L15.7565 19.2023C15.7346 19.1932 15.7128 19.1841 15.6905 19.1751V20.0295C15.7017 20.0519 15.7941 20.2004 16.2955 20.3544C17.2731 20.6513 19.0098 20.6513 19.9958 20.3516ZM14.4496 20.0407C14.36 20.1275 14.1667 20.2564 13.8474 20.3544C12.8726 20.6513 11.1303 20.6513 10.1471 20.3572C9.79415 20.248 9.61207 20.1219 9.53364 20.0491V19.1359C9.56259 19.1471 9.5906 19.159 9.61861 19.1708C9.67463 19.1944 9.73065 19.2181 9.79415 19.2368C10.3992 19.4216 11.1807 19.5225 11.9986 19.5225C12.8165 19.5225 13.6009 19.4216 14.2031 19.2368C14.2606 19.2188 14.3124 19.1973 14.3636 19.1761C14.3922 19.1643 14.4205 19.1526 14.4496 19.1415V20.0407ZM7.69611 20.3544C8.03785 20.2508 8.21712 20.1163 8.30115 20.0351V19.1499C8.269 19.1617 8.23848 19.1743 8.20788 19.187L8.20785 19.187L8.20783 19.187C8.15848 19.2074 8.1089 19.2279 8.05185 19.2452C7.44961 19.43 6.6653 19.5309 5.84737 19.5309C5.02945 19.5309 4.24514 19.43 3.6429 19.2452C3.5794 19.2265 3.52338 19.2028 3.46736 19.1792C3.43935 19.1674 3.41134 19.1555 3.38239 19.1443V20.0435C3.45802 20.1191 3.6401 20.2424 3.99864 20.3516C4.97903 20.6541 6.72132 20.6513 7.69611 20.3544ZM3.53645 17.8502C3.62889 17.7914 3.76334 17.7242 3.99304 17.6541C4.97343 17.3544 6.71292 17.3544 7.69331 17.6541C7.9258 17.727 8.06306 17.797 8.15269 17.853C8.05745 17.9118 7.9118 17.9791 7.69611 18.0463C6.71572 18.346 4.97903 18.3432 3.99864 18.0463C3.77455 17.9791 3.62889 17.909 3.53645 17.8502ZM10.1443 15.3348C9.9258 15.402 9.78294 15.4721 9.6905 15.5281C9.78014 15.5869 9.91459 15.6569 10.1499 15.727C11.1303 16.0239 12.8726 16.0239 13.8474 15.727C14.0658 15.6597 14.2087 15.5925 14.3039 15.5337C14.2143 15.4749 14.0799 15.4048 13.8446 15.3348C12.867 15.0379 11.1247 15.0379 10.1443 15.3348ZM15.839 13.2536C15.9314 13.1948 16.0714 13.1275 16.2927 13.0603C17.2759 12.7578 19.0126 12.7606 19.9958 13.0603C20.2283 13.1331 20.3656 13.2004 20.4552 13.2592C20.36 13.318 20.2171 13.3852 19.9986 13.4525C19.0182 13.7522 17.2787 13.7494 16.3011 13.4525C16.0658 13.3824 15.9286 13.3124 15.839 13.2536ZM15.6877 16.8586V17.7718C15.7661 17.8474 15.951 17.9707 16.2983 18.0743C17.2815 18.374 19.0154 18.374 19.9986 18.0743C20.3235 17.9735 20.5168 17.8418 20.6036 17.755V16.8586C20.5778 16.869 20.5528 16.8795 20.5279 16.8901C20.4718 16.9138 20.4164 16.9373 20.3543 16.9567C19.7549 17.1387 18.9706 17.2424 18.1499 17.2424C17.3291 17.2424 16.5476 17.1415 15.9454 16.9567C15.8855 16.9391 15.8323 16.917 15.7801 16.8954L15.7801 16.8954L15.7801 16.8954L15.7801 16.8954C15.7493 16.8827 15.7189 16.8701 15.6877 16.8586ZM15.7671 14.5854C15.8231 14.609 15.8791 14.6327 15.9426 14.6513C16.5476 14.8334 17.3291 14.9343 18.1471 14.9343C18.965 14.9343 19.7465 14.8334 20.3515 14.6485C20.4206 14.6276 20.4787 14.6036 20.5388 14.5787L20.5388 14.5787L20.5388 14.5787C20.5591 14.5703 20.5796 14.5618 20.6008 14.5533V15.4385C20.5196 15.5197 20.3375 15.6541 19.9958 15.7578C19.0182 16.0575 17.2787 16.0575 16.2983 15.7578C15.9398 15.6485 15.7605 15.5253 15.6821 15.4497V14.5505C15.711 14.5617 15.739 14.5735 15.7671 14.5854ZM9.53364 17.727C9.61207 17.8026 9.79415 17.9259 10.1499 18.0351C11.1331 18.332 12.867 18.3348 13.8474 18.0351C14.1863 17.9315 14.3656 17.8026 14.4468 17.7186V16.8306C14.4177 16.8416 14.3893 16.8534 14.3608 16.8652L14.3608 16.8652C14.3096 16.8864 14.2578 16.9079 14.2003 16.9259C13.6009 17.1107 12.8165 17.2116 11.9958 17.2116C11.1751 17.2116 10.3936 17.1107 9.79134 16.9259C9.72785 16.9053 9.67183 16.8823 9.61581 16.8593L9.6157 16.8592C9.58772 16.8477 9.55975 16.8362 9.53084 16.825V17.727H9.53364ZM21.8361 13.3908C21.8361 12.9007 21.5784 12.2368 20.3487 11.8614C19.1443 11.4917 17.1443 11.4917 15.937 11.867C15.1359 12.1107 14.6541 12.5057 14.5 13.0407C14.4664 13.1528 14.4496 13.2732 14.4496 13.3936V14.234C14.3684 14.2004 14.2927 14.1696 14.2003 14.1415C12.9986 13.7718 10.993 13.7718 9.78854 14.1415C8.98742 14.3852 8.50283 14.7802 8.35157 15.3152C8.31796 15.4273 8.30115 15.5449 8.30115 15.6682V16.5505C8.28002 16.5425 8.25908 16.5343 8.23804 16.526C8.17817 16.5026 8.11744 16.4788 8.04905 16.4581C6.84457 16.0911 4.84177 16.0911 3.63729 16.4581C2.83618 16.7018 2.35158 17.0967 2.19752 17.6317V17.6345C2.16671 17.7466 2.1499 17.867 2.1499 17.9847V20.2956C2.1499 20.4945 2.24514 20.6625 2.388 20.7774C2.6429 21.1079 3.06587 21.374 3.6429 21.5505C4.24234 21.7354 5.02665 21.8362 5.84737 21.8362C6.6681 21.8362 7.45241 21.7354 8.05185 21.5505C8.38518 21.4469 8.6737 21.304 8.91179 21.1331C9.14709 21.3012 9.4412 21.4441 9.79415 21.5505C10.3964 21.7354 11.1779 21.8362 11.9986 21.8362C12.8193 21.8362 13.6037 21.7354 14.2031 21.5505C14.5364 21.4469 14.8277 21.304 15.0658 21.1331C15.2815 21.29 15.5588 21.4356 15.937 21.5505C16.542 21.7354 17.3235 21.8362 18.1415 21.8362C18.9594 21.8362 19.7437 21.7354 20.3487 21.5505C21.5784 21.1751 21.8361 20.5113 21.8361 20.0211V13.3908Z" fill="#313235"/>
</svg>
