<svg width="24" height="24" viewBox="0 0 24 24" fill="none" xmlns="http://www.w3.org/2000/svg">
<path fill-rule="evenodd" clip-rule="evenodd" d="M12.0828 6.42031V6.05633C12.0828 6.03672 12.0716 5.7482 11.9259 5.4793C11.7523 5.15717 11.4637 5.00871 11.0156 5.00871H9.0968C8.20044 5.00871 7.43294 4.80983 6.87832 4.43448C6.27327 4.02272 5.93994 3.40927 5.93994 2.70899C5.93994 2.40647 6.18644 2.15997 6.48896 2.15997C6.79148 2.15997 7.03798 2.40647 7.03798 2.70899C7.03798 3.59695 8.1024 3.91347 9.0996 3.91347H11.0184C11.8867 3.91347 12.5618 4.30283 12.9175 5.00871C13.1724 5.51011 13.178 5.9975 13.178 6.05352V6.42336C14.6808 6.51401 15.8721 6.96891 16.7242 7.77621C17.7186 8.72579 18.2256 10.132 18.2256 11.9611V16.272C18.2256 18.1684 17.7859 19.5353 16.8811 20.4457C15.9567 21.3756 14.559 21.8266 12.6038 21.8266C10.8279 21.8266 9.44134 21.3672 8.48336 20.4569C7.48616 19.5101 6.98196 18.1011 6.98196 16.272V11.9611C6.98196 10.132 7.48616 8.72299 8.48336 7.77621C9.34304 6.95938 10.5544 6.50333 12.0828 6.42031ZM12.6038 8.30282C12.3013 8.30282 12.0548 8.54932 12.0548 8.85184V11.7286C12.0576 12.0311 12.3013 12.2776 12.6038 12.2776C12.9063 12.2776 13.1528 12.0311 13.1528 11.7286V8.85184C13.15 8.54932 12.9063 8.30282 12.6038 8.30282ZM17.3601 13.3925C15.7803 13.5549 14.1948 13.6333 12.6066 13.6333C11.0184 13.6361 9.43293 13.5549 7.8531 13.3925C7.57579 13.3644 7.38252 13.1712 7.42173 12.9639C7.46095 12.7566 7.71585 12.6109 7.99316 12.6418C9.52537 12.7986 11.066 12.877 12.6066 12.8742C14.1472 12.877 15.6878 12.7986 17.22 12.6418C17.4973 12.6137 17.7522 12.7566 17.7915 12.9639C17.8307 13.1712 17.6374 13.3644 17.3601 13.3925Z" fill="#313235"/>
</svg>
