<svg width="24" height="24" fill="none" xmlns="http://www.w3.org/2000/svg"><path fill-rule="evenodd" clip-rule="evenodd" d="M21.818 9.392a.61.61 0 0 1-.585.432V9.82h-1.799v7.852h1.745c.34 0 .614.277.614.616v2.938a.616.616 0 0 1-.614.616H2.824a.616.616 0 0 1-.614-.616V18.29c0-.34.275-.616.614-.616h1.778V9.82H2.773a.613.613 0 0 1-.585-.431.618.618 0 0 1 .235-.69l9.23-6.43a.616.616 0 0 1 .7 0l9.23 6.43a.626.626 0 0 1 .235.692ZM8.233 17.675h1.974V9.824H8.233v7.851Zm5.599 0h1.975V9.824h-1.975v7.851Z" fill="#313235"/></svg>