<svg width="24" height="24" fill="none" xmlns="http://www.w3.org/2000/svg"><path d="M20.624 5.702a1.06 1.06 0 0 0-.966-1.048l-9.286-2.482-.165-.022a1.07 1.07 0 0 0-.984.644 1.046 1.046 0 0 0-.084.41v8.254c-.621-.46-1.383-.678-2.098-.694-.09-.003-.196-.003-.297-.003-1.543.014-3.344.924-3.344 3.448 0 2.52 1.812 3.442 3.361 3.465h.115c.062 0 .12 0 .171-.003 1.485-.025 3.188-.885 3.333-3.148h.028V5.94l8.953 2.445v7.233c-.622-.46-1.39-.678-2.104-.695l-.291-.003c-1.544.014-3.345.925-3.345 3.449 0 2.52 1.813 3.442 3.362 3.465h.114c.062 0 .12 0 .171-.003 1.55-.028 3.362-.947 3.362-3.448 0-.05-.012-.09-.014-.138h.014V5.702h-.006Z" fill="#313235"/></svg>