<svg width="24" height="24" viewBox="0 0 24 24" fill="none" xmlns="http://www.w3.org/2000/svg">
<path fill-rule="evenodd" clip-rule="evenodd" d="M7.7803 20.535C7.75789 20.5967 7.76629 20.6639 7.80271 20.7171C8.21728 21.3502 8.91195 21.6723 9.86994 21.6723C11.0128 21.6723 11.5674 20.6471 11.7019 20.3334C11.7159 20.3081 11.7215 20.2773 11.7215 20.2493L11.7243 20.0869C11.7252 19.9702 11.7265 19.8337 11.7277 19.6974C11.7302 19.4279 11.7327 19.1593 11.7327 19.0476V18.7227C11.7327 18.6051 11.6374 18.5126 11.5226 18.5126H5.46097C5.17806 18.5126 4.94277 18.3081 4.93996 18.056L4.92876 17.2549C4.92947 17.2514 4.93036 17.2476 4.9313 17.2437C4.93404 17.2322 4.93716 17.2191 4.93716 17.2045C4.94277 17.1261 4.90355 17.0504 4.83352 17.0112C4.48898 16.8124 4.2817 16.4762 4.2817 16.1093C4.2817 15.5182 4.81111 15.0364 5.46377 15.0364C6.11644 15.0364 6.64585 15.5182 6.64585 16.1093C6.64585 16.4818 6.43296 16.8236 6.07722 17.0196C5.99879 17.0617 5.95677 17.1485 5.97078 17.2353L5.97358 17.381C5.97638 17.4958 6.06882 17.5883 6.18366 17.5883H11.5338C11.6514 17.5883 11.7439 17.493 11.7439 17.3782V12.0056C11.7439 11.888 11.6486 11.7955 11.5338 11.7955H9.7887C9.67106 11.7955 9.57862 11.8908 9.57862 12.0056V13.4006C9.57862 13.4762 9.62064 13.5462 9.68506 13.5827C10.0324 13.7815 10.2397 14.1205 10.2397 14.4874C10.2397 15.0785 9.71027 15.5574 9.05761 15.5574C8.40495 15.5574 7.87554 15.0785 7.87554 14.4874C7.87554 14.1205 8.08282 13.7815 8.43016 13.5827C8.49739 13.5462 8.5366 13.4762 8.5366 13.4006V11.3334C8.5366 11.0785 8.7719 10.8712 9.05761 10.8712H11.531C11.6486 10.8712 11.7411 10.7759 11.7411 10.6611V9.52664C11.7411 9.40899 11.6458 9.31655 11.531 9.31655H6.51419C6.44417 9.31655 6.37974 9.35017 6.34052 9.40899C6.12204 9.73112 5.74669 9.9244 5.33492 9.9244C4.68226 9.9244 4.15285 9.4454 4.15285 8.85437C4.15285 8.26333 4.68506 7.78434 5.33772 7.78434H5.34893C5.74389 7.78434 6.11363 7.97762 6.34052 8.30255C6.37974 8.35857 6.44417 8.39218 6.51139 8.39218H11.5254C11.643 8.39218 11.7355 8.29694 11.7355 8.1821V6.83476C11.7355 6.71711 11.6402 6.62468 11.5254 6.62468H10.2033C10.1332 6.62468 10.0688 6.65829 10.0296 6.71711C9.81111 7.03924 9.43576 7.23252 9.024 7.23252C8.37134 7.23252 7.84193 6.75353 7.84193 6.16249C7.84193 5.57145 8.37414 5.09246 9.0268 5.09246C9.42736 5.08686 9.80271 5.28014 10.0324 5.61067C10.0716 5.66669 10.136 5.70031 10.2033 5.70031H11.5254C11.643 5.70031 11.7355 5.60507 11.7355 5.49022V4.63308C11.7299 4.28854 11.7299 3.9384 11.7355 3.59386C11.7355 3.57145 11.7327 3.54624 11.7243 3.52384C11.6038 3.16809 11.1164 2.01123 9.86994 2.01123C8.92316 2.01123 8.23408 2.32776 7.81672 2.9468C7.7803 3.00003 7.7719 3.06725 7.79151 3.12888C7.81391 3.1905 7.85873 3.23812 7.92036 3.26053C8.04361 3.30535 8.16405 3.35857 8.2789 3.42019C8.39935 3.48462 8.48338 3.58826 8.51419 3.71151C8.54221 3.82356 8.5226 3.9412 8.45817 4.04204C8.36293 4.1849 8.18926 4.27454 8.00439 4.27454C7.90915 4.27454 7.81391 4.24933 7.73268 4.20451C7.5338 4.09807 7.30411 4.04484 6.98758 4.03364H6.97918C6.09683 4.03364 5.33772 4.21571 4.72148 4.57706C4.20047 4.88238 3.7775 5.31375 3.46658 5.85997C2.92596 6.80955 2.84473 7.86837 2.84473 8.41739C2.84473 8.85157 2.91195 10.3474 3.7803 11.4734C3.78385 11.477 3.78721 11.4805 3.79054 11.484C3.80034 11.4943 3.80977 11.5043 3.82232 11.5126C4.04361 11.6779 4.34893 11.7759 4.72428 11.8039C5.13604 11.8348 5.45537 11.7815 5.69627 11.6443C5.94557 11.5042 6.2705 11.5743 6.42176 11.8011C6.48898 11.902 6.51139 12.0196 6.48338 12.1317C6.45537 12.2549 6.37414 12.3586 6.25369 12.4258C5.93996 12.6023 5.54501 12.7003 5.08002 12.7199C5.00439 12.7255 4.93436 12.7703 4.90075 12.8404C4.86714 12.9104 4.87554 12.9944 4.92316 13.056C5.00439 13.1625 5.11924 13.2409 5.24529 13.2801C5.39094 13.3334 5.51139 13.4454 5.57302 13.5799C5.60383 13.6527 5.63464 13.7619 5.58702 13.8796V13.8824C5.51419 14.0729 5.33212 14.1989 5.13044 14.2017C5.07722 14.2017 5.024 14.1933 4.97358 14.1765L4.84753 14.1345C4.22568 13.9104 3.83072 13.4454 3.79431 12.8936C3.7887 12.8011 3.71868 12.7227 3.62624 12.7031C3.5338 12.6863 3.44137 12.7311 3.39935 12.8152C2.88674 13.8404 2.84753 14.9496 2.84753 15.2633C2.84753 15.8124 2.92596 16.8712 3.45537 17.8208C3.76069 18.367 4.17246 18.7983 4.68226 19.1037C5.2845 19.4622 6.0212 19.6443 6.87834 19.6471L6.89235 19.6499H6.91195C6.93588 19.6499 6.95642 19.6465 6.97359 19.6437C6.97854 19.6429 6.9832 19.6421 6.98758 19.6415H7.00999C7.30691 19.6443 7.60103 19.5518 7.93156 19.353C8.17526 19.2073 8.50579 19.2689 8.66265 19.4902C8.73268 19.5883 8.75789 19.7031 8.73548 19.818C8.70747 19.944 8.63184 20.0504 8.51419 20.1205C8.32932 20.2325 8.13044 20.325 7.90915 20.4034C7.84753 20.4258 7.79991 20.4734 7.7803 20.535ZM12.7775 20.0897C12.7775 20.1149 12.7803 20.1373 12.7887 20.1597C12.9091 20.5154 13.3965 21.6723 14.643 21.6723C15.615 21.6723 16.3181 21.3362 16.7271 20.6779C16.7607 20.6247 16.7691 20.5603 16.7495 20.5014C16.7299 20.4426 16.6851 20.395 16.629 20.3726C16.4302 20.2914 16.2677 20.2129 16.1164 20.1233C16.01 20.0561 15.9232 19.9972 15.8419 19.9384C15.8368 19.9343 15.8317 19.9306 15.8267 19.9269C15.818 19.9207 15.8098 19.9147 15.8027 19.9076C15.7159 19.832 15.6655 19.7283 15.657 19.6135C15.6486 19.5014 15.6851 19.3922 15.7607 19.3054C15.954 19.0953 16.2761 19.0617 16.5086 19.2297C16.5702 19.2745 16.6346 19.3194 16.7019 19.3586C17.0128 19.5463 17.3237 19.6443 17.6066 19.6443H17.629C18.489 19.6303 19.2313 19.4398 19.8335 19.0757C20.3405 18.7675 20.7523 18.339 21.0576 17.7956C21.5898 16.8516 21.6683 15.8068 21.6683 15.2661C21.6683 14.818 21.5982 13.2661 20.6823 12.1401L20.6655 12.1233C20.1753 11.6387 19.5114 11.353 18.6851 11.2689C18.5394 11.2549 18.4077 11.1849 18.3209 11.0785C18.2481 10.986 18.2145 10.874 18.2285 10.7619C18.2565 10.507 18.5198 10.3194 18.8027 10.353C19.5422 10.4286 20.2089 10.6499 20.7859 11.0084C20.8363 11.0393 20.8951 11.0477 20.9512 11.0337C21.0072 11.0196 21.0548 10.9804 21.0828 10.93C21.6262 9.8936 21.6683 8.74794 21.6683 8.42301C21.6683 7.87399 21.5898 6.81517 21.0604 5.86559C20.7551 5.31937 20.3433 4.88799 19.8335 4.58267C19.2341 4.22413 18.4974 4.04206 17.643 4.03925H17.629C16.6402 4.01124 16.2285 4.87679 16.1248 5.1429C16.122 5.1457 16.122 5.1457 16.122 5.1485L16.0632 5.31657C15.9988 5.50984 15.7915 5.6471 15.5646 5.6471C15.5114 5.6471 15.4582 5.63869 15.4077 5.62469C15.2705 5.58547 15.1556 5.49584 15.094 5.37819C15.0408 5.27735 15.0296 5.1625 15.066 5.05326L15.1388 4.84878C15.4049 4.1569 15.9484 3.59948 16.6318 3.31657C16.6907 3.29416 16.7327 3.24654 16.7523 3.18771C16.7719 3.12889 16.7635 3.06727 16.7299 3.01404C16.3153 2.35298 15.6122 2.01685 14.643 2.01685C13.5002 2.01685 12.9484 3.03925 12.8055 3.35298C12.7915 3.37819 12.7859 3.409 12.7859 3.43701C12.7831 3.70312 12.7775 4.43981 12.7775 4.6415V8.19052C12.7775 8.30816 12.8727 8.4006 12.9876 8.4006H17.3377C17.4554 8.4006 17.5478 8.30536 17.5478 8.19052V7.22133C17.5478 7.1457 17.5058 7.07567 17.4414 7.03925C17.0968 6.84037 16.8895 6.50424 16.8895 6.13729C16.8895 5.54626 17.419 5.06727 18.0688 5.06727C18.7215 5.06727 19.2509 5.54626 19.2509 6.13729C19.2509 6.50424 19.0436 6.84037 18.6935 7.03925C18.6262 7.07567 18.587 7.1457 18.587 7.22133V8.86278C18.587 9.11769 18.3517 9.32497 18.066 9.32497H15.4834C15.3657 9.32497 15.2733 9.42021 15.2733 9.53505V11.6219C15.2733 11.7003 15.3209 11.7759 15.3937 11.8096C15.5758 11.8936 15.7299 12.0281 15.8447 12.1961C15.8839 12.2549 15.9484 12.2886 16.0184 12.2886L19.3965 12.283H19.3993C19.5366 12.283 19.6683 12.3334 19.7691 12.4258C19.8615 12.507 19.9148 12.6247 19.9148 12.7451V14.8124C19.9148 14.888 19.954 14.958 20.0184 14.9944C20.3629 15.1933 20.5702 15.5323 20.5702 15.8964C20.5702 16.4874 20.0408 16.9692 19.3909 16.9692C18.7383 16.9692 18.2089 16.4874 18.2089 15.8964C18.2089 15.5295 18.4162 15.1905 18.7663 14.9916C18.8335 14.9552 18.8727 14.8852 18.8727 14.8096V13.4174C18.8727 13.3614 18.8503 13.3082 18.8111 13.2689C18.7719 13.2297 18.7187 13.2073 18.6627 13.2073L16.01 13.2129C15.94 13.2129 15.8755 13.2493 15.8363 13.3054C15.6178 13.6275 15.2425 13.818 14.8335 13.818C14.1809 13.818 13.6514 13.3362 13.6514 12.7451C13.6514 12.4062 13.8307 12.0925 14.1388 11.8852C14.1977 11.846 14.2313 11.7816 14.2313 11.7115V9.53505C14.2313 9.41741 14.136 9.32497 14.0212 9.32497H12.9876C12.8699 9.32497 12.7775 9.42021 12.7775 9.53505V16.4062C12.7775 16.5238 12.8727 16.6163 12.9876 16.6163H14.447C14.517 16.6163 14.5814 16.5827 14.6206 16.5238C14.8391 16.2017 15.2145 16.0084 15.6234 16.0084C16.2761 16.0084 16.8055 16.4874 16.8055 17.0785C16.8055 17.6695 16.2761 18.1513 15.6234 18.1513C15.2117 18.1513 14.8391 17.958 14.6206 17.6359C14.5814 17.5771 14.517 17.5435 14.447 17.5435H12.9876C12.8699 17.5435 12.7775 17.6387 12.7775 17.7535V19.0561C12.7831 19.1961 12.7803 19.7731 12.7775 20.0897Z" fill="#313235"/>
</svg>
