<svg width="24" height="24" viewBox="0 0 24 24" fill="none" xmlns="http://www.w3.org/2000/svg">
<path fill-rule="evenodd" clip-rule="evenodd" d="M7.78012 20.535C7.75771 20.5967 7.76611 20.6639 7.80253 20.7171C8.21709 21.3502 8.91177 21.6723 9.86975 21.6723C11.0126 21.6723 11.5672 20.6471 11.7017 20.3334C11.7157 20.3081 11.7213 20.2773 11.7213 20.2493L11.7241 20.0869C11.725 19.9702 11.7263 19.8337 11.7275 19.6974C11.73 19.4279 11.7325 19.1593 11.7325 19.0476V18.7227C11.7325 18.6051 11.6373 18.5126 11.5224 18.5126H5.46079C5.17788 18.5126 4.94258 18.3081 4.93978 18.056L4.92858 17.2549C4.92929 17.2514 4.93018 17.2476 4.93111 17.2437C4.93386 17.2322 4.93698 17.2191 4.93698 17.2045C4.94258 17.1261 4.90337 17.0504 4.83334 17.0112C4.4888 16.8124 4.28152 16.4762 4.28152 16.1093C4.28152 15.5182 4.81093 15.0364 5.46359 15.0364C6.11625 15.0364 6.64566 15.5182 6.64566 16.1093C6.64566 16.4818 6.43278 16.8236 6.07704 17.0196C5.99861 17.0617 5.95659 17.1485 5.97059 17.2353L5.9734 17.381C5.9762 17.4958 6.06863 17.5883 6.18348 17.5883H11.5336C11.6513 17.5883 11.7437 17.493 11.7437 17.3782V12.0056C11.7437 11.888 11.6485 11.7955 11.5336 11.7955H9.78852C9.67087 11.7955 9.57844 11.8908 9.57844 12.0056V13.4006C9.57844 13.4762 9.62045 13.5462 9.68488 13.5827C10.0322 13.7815 10.2395 14.1205 10.2395 14.4874C10.2395 15.0785 9.71009 15.5574 9.05743 15.5574C8.40477 15.5574 7.87536 15.0785 7.87536 14.4874C7.87536 14.1205 8.08264 13.7815 8.42998 13.5827C8.4972 13.5462 8.53642 13.4762 8.53642 13.4006V11.3334C8.53642 11.0785 8.77171 10.8712 9.05743 10.8712H11.5308C11.6485 10.8712 11.7409 10.7759 11.7409 10.6611V9.52664C11.7409 9.40899 11.6457 9.31655 11.5308 9.31655H6.51401C6.44398 9.31655 6.37956 9.35017 6.34034 9.40899C6.12185 9.73112 5.7465 9.9244 5.33474 9.9244C4.68208 9.9244 4.15267 9.4454 4.15267 8.85437C4.15267 8.26333 4.68488 7.78434 5.33754 7.78434H5.34875C5.7437 7.78434 6.11345 7.97762 6.34034 8.30255C6.37956 8.35857 6.44398 8.39218 6.51121 8.39218H11.5252C11.6429 8.39218 11.7353 8.29694 11.7353 8.1821V6.83476C11.7353 6.71711 11.6401 6.62468 11.5252 6.62468H10.2031C10.1331 6.62468 10.0686 6.65829 10.0294 6.71711C9.81093 7.03924 9.43558 7.23252 9.02382 7.23252C8.37115 7.23252 7.84174 6.75353 7.84174 6.16249C7.84174 5.57145 8.37395 5.09246 9.02662 5.09246C9.42718 5.08686 9.80253 5.28014 10.0322 5.61067C10.0714 5.66669 10.1359 5.70031 10.2031 5.70031H11.5252C11.6429 5.70031 11.7353 5.60507 11.7353 5.49022V4.63308C11.7297 4.28854 11.7297 3.9384 11.7353 3.59386C11.7353 3.57145 11.7325 3.54624 11.7241 3.52384C11.6036 3.16809 11.1163 2.01123 9.86975 2.01123C8.92297 2.01123 8.2339 2.32776 7.81653 2.9468C7.78012 3.00003 7.77171 3.06725 7.79132 3.12888C7.81373 3.1905 7.85855 3.23812 7.92017 3.26053C8.04342 3.30535 8.16387 3.35857 8.27872 3.42019C8.39917 3.48462 8.4832 3.58826 8.51401 3.71151C8.54202 3.82356 8.52241 3.9412 8.45799 4.04204C8.36275 4.1849 8.18908 4.27454 8.00421 4.27454C7.90897 4.27454 7.81373 4.24933 7.7325 4.20451C7.53362 4.09807 7.30393 4.04484 6.9874 4.03364H6.979C6.09664 4.03364 5.33754 4.21571 4.72129 4.57706C4.20029 4.88238 3.77732 5.31375 3.46639 5.85997C2.92578 6.80955 2.84454 7.86837 2.84454 8.41739C2.84454 8.85157 2.91177 10.3474 3.78012 11.4734C3.78366 11.477 3.78703 11.4805 3.79035 11.484C3.80016 11.4943 3.80958 11.5043 3.82213 11.5126C4.04342 11.6779 4.34875 11.7759 4.7241 11.8039C5.13586 11.8348 5.45519 11.7815 5.69608 11.6443C5.94538 11.5042 6.27031 11.5743 6.42157 11.8011C6.4888 11.902 6.51121 12.0196 6.4832 12.1317C6.45519 12.2549 6.37396 12.3586 6.25351 12.4258C5.93978 12.6023 5.54482 12.7003 5.07984 12.7199C5.00421 12.7255 4.93418 12.7703 4.90057 12.8404C4.86695 12.9104 4.87536 12.9944 4.92297 13.056C5.00421 13.1625 5.11905 13.2409 5.2451 13.2801C5.39076 13.3334 5.51121 13.4454 5.57283 13.5799C5.60365 13.6527 5.63446 13.7619 5.58684 13.8796V13.8824C5.51401 14.0729 5.33194 14.1989 5.13026 14.2017C5.07704 14.2017 5.02382 14.1933 4.9734 14.1765L4.84734 14.1345C4.2255 13.9104 3.83054 13.4454 3.79412 12.8936C3.78852 12.8011 3.71849 12.7227 3.62606 12.7031C3.53362 12.6863 3.44118 12.7311 3.39917 12.8152C2.88656 13.8404 2.84734 14.9496 2.84734 15.2633C2.84734 15.8124 2.92578 16.8712 3.45519 17.8208C3.76051 18.367 4.17227 18.7983 4.68208 19.1037C5.28432 19.4622 6.02101 19.6443 6.87816 19.6471L6.89216 19.6499H6.91177C6.93569 19.6499 6.95624 19.6465 6.97341 19.6437C6.97835 19.6429 6.98302 19.6421 6.9874 19.6415H7.00981C7.30673 19.6443 7.60085 19.5518 7.93138 19.353C8.17508 19.2073 8.50561 19.2689 8.66247 19.4902C8.7325 19.5883 8.75771 19.7031 8.7353 19.818C8.70729 19.944 8.63166 20.0504 8.51401 20.1205C8.32914 20.2325 8.13026 20.325 7.90897 20.4034C7.84734 20.4258 7.79973 20.4734 7.78012 20.535ZM12.7773 20.0897C12.7773 20.1149 12.7801 20.1373 12.7885 20.1597C12.909 20.5154 13.3964 21.6723 14.6429 21.6723C15.6148 21.6723 16.3179 21.3362 16.7269 20.6779C16.7605 20.6247 16.7689 20.5603 16.7493 20.5014C16.7297 20.4426 16.6849 20.395 16.6289 20.3726C16.43 20.2914 16.2675 20.2129 16.1162 20.1233C16.0098 20.0561 15.923 19.9972 15.8417 19.9384C15.8366 19.9343 15.8315 19.9306 15.8265 19.9269C15.8178 19.9207 15.8096 19.9147 15.8025 19.9076C15.7157 19.832 15.6653 19.7283 15.6569 19.6135C15.6485 19.5014 15.6849 19.3922 15.7605 19.3054C15.9538 19.0953 16.2759 19.0617 16.5084 19.2297C16.57 19.2745 16.6345 19.3194 16.7017 19.3586C17.0126 19.5463 17.3235 19.6443 17.6064 19.6443H17.6289C18.4888 19.6303 19.2311 19.4398 19.8333 19.0757C20.3403 18.7675 20.7521 18.339 21.0574 17.7956C21.5896 16.8516 21.6681 15.8068 21.6681 15.2661C21.6681 14.818 21.598 13.2661 20.6821 12.1401L20.6653 12.1233C20.1751 11.6387 19.5112 11.353 18.6849 11.2689C18.5392 11.2549 18.4076 11.1849 18.3207 11.0785C18.2479 10.986 18.2143 10.874 18.2283 10.7619C18.2563 10.507 18.5196 10.3194 18.8025 10.353C19.542 10.4286 20.2087 10.6499 20.7857 11.0084C20.8361 11.0393 20.895 11.0477 20.951 11.0337C21.007 11.0196 21.0546 10.9804 21.0826 10.93C21.6261 9.8936 21.6681 8.74794 21.6681 8.42301C21.6681 7.87399 21.5896 6.81517 21.0602 5.86559C20.7549 5.31937 20.3431 4.88799 19.8333 4.58267C19.2339 4.22413 18.4972 4.04206 17.6429 4.03925H17.6289C16.6401 4.01124 16.2283 4.87679 16.1247 5.1429C16.1219 5.1457 16.1219 5.1457 16.1219 5.1485L16.063 5.31657C15.9986 5.50984 15.7913 5.6471 15.5644 5.6471C15.5112 5.6471 15.458 5.63869 15.4076 5.62469C15.2703 5.58547 15.1555 5.49584 15.0938 5.37819C15.0406 5.27735 15.0294 5.1625 15.0658 5.05326L15.1387 4.84878C15.4048 4.1569 15.9482 3.59948 16.6317 3.31657C16.6905 3.29416 16.7325 3.24654 16.7521 3.18771C16.7717 3.12889 16.7633 3.06727 16.7297 3.01404C16.3151 2.35298 15.612 2.01685 14.6429 2.01685C13.5 2.01685 12.9482 3.03925 12.8053 3.35298C12.7913 3.37819 12.7857 3.409 12.7857 3.43701C12.7829 3.70312 12.7773 4.43981 12.7773 4.6415V8.19052C12.7773 8.30816 12.8726 8.4006 12.9874 8.4006H17.3375C17.4552 8.4006 17.5476 8.30536 17.5476 8.19052V7.22133C17.5476 7.1457 17.5056 7.07567 17.4412 7.03925C17.0966 6.84037 16.8894 6.50424 16.8894 6.13729C16.8894 5.54626 17.4188 5.06727 18.0686 5.06727C18.7213 5.06727 19.2507 5.54626 19.2507 6.13729C19.2507 6.50424 19.0434 6.84037 18.6933 7.03925C18.6261 7.07567 18.5868 7.1457 18.5868 7.22133V8.86278C18.5868 9.11769 18.3515 9.32497 18.0658 9.32497H15.4832C15.3655 9.32497 15.2731 9.42021 15.2731 9.53505V11.6219C15.2731 11.7003 15.3207 11.7759 15.3936 11.8096C15.5756 11.8936 15.7297 12.0281 15.8445 12.1961C15.8838 12.2549 15.9482 12.2886 16.0182 12.2886L19.3964 12.283H19.3992C19.5364 12.283 19.6681 12.3334 19.7689 12.4258C19.8613 12.507 19.9146 12.6247 19.9146 12.7451V14.8124C19.9146 14.888 19.9538 14.958 20.0182 14.9944C20.3627 15.1933 20.57 15.5323 20.57 15.8964C20.57 16.4874 20.0406 16.9692 19.3908 16.9692C18.7381 16.9692 18.2087 16.4874 18.2087 15.8964C18.2087 15.5295 18.416 15.1905 18.7661 14.9916C18.8333 14.9552 18.8726 14.8852 18.8726 14.8096V13.4174C18.8726 13.3614 18.8501 13.3082 18.8109 13.2689C18.7717 13.2297 18.7185 13.2073 18.6625 13.2073L16.0098 13.2129C15.9398 13.2129 15.8754 13.2493 15.8361 13.3054C15.6176 13.6275 15.2423 13.818 14.8333 13.818C14.1807 13.818 13.6513 13.3362 13.6513 12.7451C13.6513 12.4062 13.8305 12.0925 14.1387 11.8852C14.1975 11.846 14.2311 11.7816 14.2311 11.7115V9.53505C14.2311 9.41741 14.1359 9.32497 14.021 9.32497H12.9874C12.8698 9.32497 12.7773 9.42021 12.7773 9.53505V16.4062C12.7773 16.5238 12.8726 16.6163 12.9874 16.6163H14.4468C14.5168 16.6163 14.5812 16.5827 14.6205 16.5238C14.8389 16.2017 15.2143 16.0084 15.6233 16.0084C16.2759 16.0084 16.8053 16.4874 16.8053 17.0785C16.8053 17.6695 16.2759 18.1513 15.6233 18.1513C15.2115 18.1513 14.8389 17.958 14.6205 17.6359C14.5812 17.5771 14.5168 17.5435 14.4468 17.5435H12.9874C12.8698 17.5435 12.7773 17.6387 12.7773 17.7535V19.0561C12.7829 19.1961 12.7801 19.7731 12.7773 20.0897Z" fill="#313235"/>
</svg>
