<svg width="24" height="24" viewBox="0 0 24 24" fill="none" xmlns="http://www.w3.org/2000/svg">
<path fill-rule="evenodd" clip-rule="evenodd" d="M19.3946 8.15717C19.3946 7.92468 19.2994 7.69779 19.1341 7.53812L13.9184 2.40927C13.7587 2.24681 13.5458 2.15997 13.3162 2.15997H6.00803C5.28815 2.15997 4.62988 2.82104 4.62988 3.53812V20.4681C4.62988 21.1992 5.27134 21.8462 6.00803 21.8462H18.008C18.7615 21.8462 19.3946 21.2188 19.3946 20.4681V8.15717ZM13.6439 3.81263L17.7167 7.81824V7.82104H15.9268C15.2461 7.82104 14.6663 7.60255 14.2629 7.20759C13.8568 6.81263 13.6439 6.24681 13.6439 5.59415V3.81263ZM15.868 13.4625C15.7167 13.6082 14.0529 15.1152 11.4142 17.4933L9.4254 18.1852L10.0753 16.2188C10.4646 15.8715 14.3246 12.4037 14.5767 12.1488C14.8148 11.9079 15.0669 11.8575 15.2517 11.8743C15.4814 11.8827 15.7027 11.9863 15.8708 12.1572C16.0444 12.3252 16.1481 12.5857 16.1481 12.8266C16.1481 13.0675 16.0501 13.2776 15.868 13.4625ZM13.7363 11.2944C14.6719 10.3504 15.98 10.5521 16.7083 11.2944C17.1061 11.6978 17.3358 12.2692 17.3358 12.8322C17.3358 13.4037 17.1117 13.9219 16.6999 14.3308C16.487 14.5381 14.1397 16.6586 12.2069 18.4009L12.1369 18.4653C12.0276 18.5633 11.9072 18.6362 11.7727 18.6754L9.51224 19.4401C9.40019 19.4709 9.29095 19.4877 9.18731 19.4877C9.15649 19.4877 9.12288 19.4877 9.10047 19.4793C9.08366 19.4877 9.06966 19.4877 9.05285 19.4877H7.58787C7.26294 19.4877 6.99403 19.2132 6.99403 18.8827C6.99403 18.5521 7.26294 18.2776 7.58787 18.2776H8.1677C8.16833 18.2734 8.16897 18.2691 8.16961 18.2648C8.17745 18.2119 8.1862 18.1529 8.20691 18.1011L8.49263 17.2216H7.58787C7.26294 17.2216 6.99403 16.9471 6.99403 16.6166C6.99403 16.2776 7.26294 16.0115 7.58787 16.0115H8.88759L8.95761 15.8014C9.02204 15.625 9.12568 15.4625 9.26013 15.342L9.68871 14.9555H7.58787C7.26294 14.9555 6.99403 14.681 6.99403 14.3504C6.99403 14.0115 7.26294 13.7454 7.58787 13.7454H11.036C11.2443 13.5604 11.4459 13.3788 11.6402 13.2037C11.843 13.021 12.0377 12.8455 12.2237 12.681H7.58787C7.26294 12.681 6.99403 12.4149 6.99403 12.0759C6.99403 11.7454 7.26294 11.4709 7.58787 11.4709H13.5543C13.6495 11.3729 13.7111 11.3168 13.7363 11.2944Z" fill="#313235"/>
</svg>
