<svg width="24" height="24" viewBox="0 0 24 24" fill="none" xmlns="http://www.w3.org/2000/svg">
<path fill-rule="evenodd" clip-rule="evenodd" d="M21.1991 10.9835C20.9498 10.7902 20.6417 10.6193 20.3448 10.4569L20.34 10.4543C20.0897 10.3165 19.641 10.0694 19.538 9.93027C19.5519 9.75242 19.8277 9.29614 19.9825 9.04003L19.9862 9.03391L19.987 9.03261C20.3929 8.36074 20.8123 7.66657 20.4596 7.05913C20.1039 6.44288 19.2859 6.45969 18.4932 6.47649L18.4829 6.47669C18.1895 6.48235 17.665 6.49245 17.5072 6.42047C17.4354 6.26297 17.4453 5.74295 17.451 5.44656L17.4512 5.43448C17.468 4.64456 17.4848 3.82664 16.8686 3.46809C16.2664 3.12238 15.5754 3.537 14.906 3.93861L14.8966 3.94428C14.6417 4.09835 14.1767 4.37846 14.0002 4.39246C13.8611 4.28948 13.614 3.84078 13.4762 3.5905L13.4736 3.58574C13.3112 3.28882 13.1403 2.9807 12.947 2.7314C12.8378 2.58854 12.5016 2.15997 11.9666 2.15997C11.835 2.15997 11.4316 2.15997 10.9862 2.7314C10.793 2.9807 10.6221 3.28882 10.4596 3.58574L10.457 3.5905C10.3192 3.84077 10.0722 4.28948 9.93301 4.39246C9.75517 4.37857 9.2989 4.10279 9.04279 3.94799L9.03665 3.94428L9.03535 3.9435C8.36349 3.53758 7.66931 3.11818 7.06187 3.4709C6.44562 3.82664 6.46243 4.64456 6.47923 5.43728L6.47943 5.44757V5.44758C6.48509 5.74103 6.49519 6.26547 6.42321 6.42327C6.26571 6.49512 5.74567 6.48519 5.44929 6.47953L5.43722 6.47929C4.6473 6.46249 3.82938 6.44568 3.47083 7.06193C3.11812 7.66938 3.53752 8.36355 3.94343 9.03541L3.94422 9.03671C4.09828 9.29162 4.3784 9.7566 4.3924 9.93307C4.28942 10.0722 3.84071 10.3193 3.59044 10.4571L3.58568 10.4597C3.28876 10.6221 2.98064 10.793 2.73134 10.9863C2.58848 11.0955 2.15991 11.4317 2.15991 11.9667C2.15991 12.0983 2.15991 12.5017 2.73134 12.9471C2.98064 13.1403 3.28876 13.3112 3.58568 13.4737L3.59044 13.4763C3.84072 13.6141 4.28942 13.8611 4.3924 14.0003C4.37851 14.1781 4.10275 14.6344 3.94794 14.8905L3.94793 14.8905L3.94422 14.8966L3.94343 14.898C3.53752 15.5698 3.11812 16.264 3.47083 16.8714C3.82658 17.4877 4.6445 17.4709 5.43722 17.4541L5.44754 17.4539H5.44755H5.44756C5.74103 17.4482 6.26542 17.4381 6.42321 17.5101C6.49505 17.6676 6.48512 18.1876 6.47946 18.484L6.47923 18.4961C6.46243 19.286 6.44562 20.1039 7.06187 20.4625C7.66931 20.8152 8.36349 20.3958 9.03535 19.9899L9.03665 19.9891C9.29155 19.835 9.75654 19.5549 9.93301 19.5409C10.0722 19.6439 10.3192 20.0926 10.457 20.3429L10.4596 20.3476C10.6221 20.6445 10.793 20.9527 10.9862 21.202L10.9864 21.2022C11.0959 21.3426 11.4319 21.7734 11.9666 21.7734C12.0983 21.7734 12.5016 21.7734 12.947 21.202C13.1403 20.9527 13.3112 20.6445 13.4736 20.3476L13.4762 20.3429C13.614 20.0926 13.8611 19.6439 14.0002 19.5409C14.1781 19.5548 14.6343 19.8305 14.8904 19.9853L14.8904 19.9854L14.8905 19.9854L14.8966 19.9891L14.8979 19.9899C15.5698 20.3958 16.2639 20.8152 16.8714 20.4625C17.4826 20.1096 17.4683 19.3021 17.4544 18.5155L17.454 18.4961L17.4538 18.4858V18.4858C17.4482 18.1923 17.4381 17.6679 17.51 17.5101C17.6675 17.4383 18.1875 17.4482 18.4839 17.4538H18.4839H18.4839L18.496 17.4541C19.2859 17.4709 20.1039 17.4877 20.4624 16.8714C20.8151 16.264 20.3957 15.5698 19.9898 14.898L19.989 14.8966C19.835 14.6417 19.5548 14.1768 19.5408 14.0003C19.6438 13.8611 20.0925 13.6141 20.3428 13.4763L20.3476 13.4737C20.6445 13.3112 20.9526 13.1403 21.2019 12.9471L21.2022 12.9469C21.3425 12.8374 21.7733 12.5014 21.7733 11.9667C21.7733 11.8294 21.7733 11.4289 21.1991 10.9835ZM9.63329 7.35324C10.807 7.35324 11.51 8.05352 11.51 9.22999C11.51 10.4065 10.8098 11.1067 9.63329 11.1067C8.45682 11.1067 7.75654 10.4065 7.75654 9.22999C7.75654 8.05352 8.45962 7.35324 9.63329 7.35324ZM8.22993 16.7286C8.47083 16.9219 8.82377 16.8798 9.01705 16.6389L15.7985 7.97509C15.989 7.73139 15.947 7.37845 15.7033 7.18798C15.4596 6.9975 15.1067 7.03952 14.9162 7.28322L8.13469 15.9499C7.94982 16.1908 7.99184 16.5381 8.22993 16.7286ZM14.2971 16.5661C13.1235 16.5661 12.4204 15.8658 12.4204 14.6894C12.4204 13.5129 13.1207 12.8126 14.2971 12.8126C15.4736 12.8126 16.1739 13.5129 16.1739 14.6894C16.1739 15.8658 15.4708 16.5661 14.2971 16.5661ZM9.63329 9.98349C10.1907 9.98349 10.3896 9.78741 10.3896 9.22719C10.3896 8.66697 10.1907 8.47089 9.63329 8.47089C9.07587 8.47089 8.87699 8.66977 8.87699 9.22719C8.87699 9.78461 9.07587 9.98349 9.63329 9.98349ZM14.2971 13.9359C13.7397 13.9359 13.5408 14.1319 13.5408 14.6922C13.5408 15.2524 13.7397 15.4485 14.2971 15.4485C14.8546 15.4485 15.0535 15.2524 15.0535 14.6922C15.0535 14.1319 14.8546 13.9359 14.2971 13.9359Z" fill="#313235"/>
</svg>
