<svg width="24" height="24" viewBox="0 0 24 24" fill="none" xmlns="http://www.w3.org/2000/svg">
<path fill-rule="evenodd" clip-rule="evenodd" d="M12.4064 2.16912C13.9806 2.20554 21.8462 2.8582 21.8462 12.0291C21.8462 21.2055 14.0115 21.8134 12.4428 21.8414C12.272 21.8442 12.0787 21.847 11.8798 21.847H11.8796C11.776 21.847 11.6668 21.847 11.5661 21.8442C2.61369 21.7153 2.15991 13.5977 2.15991 11.973C2.15991 10.3484 2.61089 2.23635 11.4988 2.16072C11.7986 2.15792 12.1291 2.16352 12.4064 2.16912ZM11.3532 12.3148C11.3532 15.5389 9.82098 16.2139 8.53526 16.2139C7.24395 16.2139 5.70613 15.5361 5.70613 12.3148C5.70613 9.08229 7.24395 8.40442 8.53526 8.40442C9.82098 8.40442 11.3532 9.08229 11.3532 12.3148ZM17.4624 8.94223V15.6649C17.4624 15.8918 17.2776 16.0767 17.0479 16.0767H16.821C16.6837 16.0767 16.5549 16.0067 16.4792 15.8918L13.1795 10.8974V15.6621C13.1795 15.8862 12.9974 16.0711 12.7706 16.0711H12.496C12.272 16.0711 12.0871 15.889 12.0871 15.6621V8.93943C12.0871 8.71534 12.272 8.53047 12.496 8.53047H12.7145C12.8518 8.53047 12.9806 8.60049 13.0563 8.71534L16.37 13.7153V8.94223C16.37 8.71814 16.5521 8.53327 16.779 8.53327H17.0535C17.2776 8.53327 17.4624 8.71534 17.4624 8.94223ZM10.2187 12.3148C10.2187 9.83859 9.31958 9.51926 8.53526 9.51926C7.69773 9.51926 6.84058 9.84979 6.84058 12.3148C6.84058 14.7602 7.69773 15.0907 8.53526 15.0907C9.3672 15.0907 10.2187 14.7602 10.2187 12.3148Z" fill="#313235"/>
</svg>
