<svg width="24" height="24" fill="none" xmlns="http://www.w3.org/2000/svg"><path fill-rule="evenodd" clip-rule="evenodd" d="M18.55 4.9c1.101 0 1.942.328 2.505.972.52.6.787 1.468.787 2.583v4.94c0 1.116-.264 1.984-.787 2.583-.563.642-1.407.97-2.505.97H5.441c-1.1 0-1.941-.328-2.504-.972-.521-.6-.787-1.468-.787-2.583V8.455c0-1.115.266-1.984.787-2.583C3.5 5.228 4.343 4.9 5.441 4.9h13.11ZM2.744 19.132h18.504c.308 0 .56-.252.56-.56a.562.562 0 0 0-.56-.56H2.744a.562.562 0 0 0-.56.56c0 .308.252.56.56.56Zm7.602-7.08a6.21 6.21 0 0 0-.076.504l-.014.103c-.023.17-.045.338-.075.473-.09.412-.37.648-.754.648-.07 0-.137-.009-.207-.023-.122-.023-.335-.082-.67-.175l-.207-.057-.235-.065a.422.422 0 0 1 .224-.812l.235.064.034.009c-.252-.521-.381-1.154-.381-1.888 0-2.342 1.32-3.63 3.714-3.63a5.33 5.33 0 0 1 1.247.137.423.423 0 0 1 .297.515.422.422 0 0 1-.493.303 4.57 4.57 0 0 0-1.05-.112c-1.934 0-2.875.913-2.875 2.79 0 .672.124 1.224.367 1.652l.006-.047c.025-.202.053-.41.09-.575a.423.423 0 0 1 .495-.327.423.423 0 0 1 .328.495l.002.012-.002.005Zm5.297-2.891a.422.422 0 0 0 .518-.295.413.413 0 0 0-.294-.51l-.235-.064-.235-.065c-.321-.088-.526-.144-.645-.167-.485-.098-.854.143-.958.627-.03.135-.053.303-.075.474l-.014.103a6.22 6.22 0 0 1-.076.504c-.003 0-.003.003-.003.006-.045.227.1.448.328.496.227.045.448-.101.496-.328a6.74 6.74 0 0 0 .09-.574l.005-.048c.244.429.367.98.367 1.653 0 1.877-.941 2.79-2.874 2.79a4.493 4.493 0 0 1-1.04-.112.42.42 0 1 0-.196.818c.404.092.821.137 1.236.134 2.395 0 3.714-1.288 3.714-3.63 0-.734-.129-1.367-.38-1.888l.036.011.235.065Z" fill="#313235"/></svg>