<svg width="24" height="24" viewBox="0 0 24 24" fill="none" xmlns="http://www.w3.org/2000/svg">
<path fill-rule="evenodd" clip-rule="evenodd" d="M21.6863 19.3333L21.6667 13.5209C21.7059 12.8039 21.4986 12.182 21.0728 11.7254C20.7563 11.3893 20.3305 11.1652 19.8431 11.07L13.5462 4.78985C13.6751 4.53215 13.7535 4.24643 13.7535 3.93831C13.7535 2.88229 12.8964 2.02515 11.8431 2.02515C10.7899 2.02515 9.93277 2.88229 9.93277 3.93831C9.93277 4.24643 10.014 4.53215 10.1429 4.78985L3.85434 11.084C3.42017 11.1792 3.01961 11.3949 2.69468 11.717C2.2465 12.168 2 12.7646 2 13.4005L2.01961 19.2128C1.98039 19.9299 2.18768 20.549 2.61345 21.0055C3.03641 21.4565 3.65826 21.7086 4.36695 21.7142L19.3137 21.7114C19.9496 21.7086 20.5434 21.4621 20.9916 21.0139C21.4398 20.5658 21.6863 19.9691 21.6863 19.3333ZM11.8431 3.22963C11.4538 3.22963 11.1345 3.54896 11.1345 3.93831C11.1345 4.32767 11.451 4.647 11.8431 4.647C12.2353 4.647 12.5518 4.32767 12.5518 3.93831C12.5518 3.54896 12.2353 3.22963 11.8431 3.22963ZM5.61625 11.0195L18.0896 11.0167L12.6975 5.63859C12.4398 5.76744 12.1513 5.84868 11.8431 5.84868C11.535 5.84868 11.2493 5.76744 10.9916 5.63859L5.61625 11.0195ZM17.5714 17.6974V14.7114C17.5714 14.4873 17.3922 14.3109 17.1709 14.3109H17.0504C16.8291 14.3109 16.6499 14.4901 16.6499 14.7114V16.1036L15.5826 14.4873C15.507 14.3781 15.3838 14.3081 15.2493 14.3081H15.1541C14.9328 14.3081 14.7535 14.4873 14.7535 14.7086V17.6946C14.7535 17.9159 14.9328 18.0952 15.1541 18.0952H15.2773C15.4986 18.0952 15.6779 17.9159 15.6779 17.6946V16.3025L16.7423 17.9159C16.8151 18.0279 16.9412 18.0952 17.0756 18.0952H17.1765C17.3922 18.098 17.5714 17.9187 17.5714 17.6974ZM14.2325 17.5798V17.6974C14.2325 17.9187 14.0532 18.098 13.8319 18.1008H12.3613C12.1401 18.1008 11.9608 17.9215 11.9608 17.7002V14.7142C11.9608 14.4929 12.1401 14.3137 12.3613 14.3137H13.7871C13.9104 14.3137 14.0252 14.3697 14.1008 14.4621C14.1765 14.5574 14.2045 14.6834 14.1793 14.8011L14.1541 14.9187C14.112 15.1008 13.9496 15.2324 13.7619 15.2324H12.8908V15.7226H13.5518C13.7731 15.7226 13.9524 15.9019 13.9524 16.1232V16.2408C13.9524 16.4621 13.7731 16.6414 13.5518 16.6414H12.8908V17.1792H13.8319C14.0532 17.1792 14.2325 17.3585 14.2325 17.5798ZM11.1625 16.5518C11.3641 16.3221 11.465 16.0167 11.465 15.6106C11.465 15.1988 11.3557 14.8767 11.1373 14.647C10.9244 14.4201 10.6134 14.3109 10.1849 14.3109H9.35574C9.13445 14.3109 8.95518 14.4901 8.95518 14.7114V17.6974C8.95518 17.9187 9.13445 18.098 9.35574 18.098H9.48739C9.70868 18.098 9.88796 17.9187 9.88796 17.6974V16.9103H10.2773C10.6583 16.9103 10.958 16.7871 11.1625 16.5518ZM8.41176 16.21C8.41176 17.9075 7.4902 18.1596 6.94118 18.1596C6.38936 18.1596 5.46779 17.9047 5.46779 16.21C5.46779 14.5097 6.38936 14.2548 6.94118 14.2548C7.4902 14.2548 8.41176 14.5069 8.41176 16.21ZM6.94118 15.1848C7.12605 15.1848 7.47059 15.1848 7.47059 16.2072C7.47059 17.2212 7.14006 17.2212 6.94118 17.2212C6.7423 17.2212 6.40896 17.2212 6.40896 16.2072C6.40896 15.1848 6.7423 15.1848 6.94118 15.1848ZM10.4454 15.2772C10.4454 15.2772 10.3922 15.2296 10.1681 15.2296H9.88515V15.9915H10.2213C10.4125 15.9915 10.4365 15.9641 10.456 15.9418L10.4566 15.9411C10.4874 15.9075 10.521 15.8487 10.521 15.619C10.521 15.4313 10.4818 15.3193 10.4454 15.2772Z" fill="#313235"/>
</svg>
