<svg xmlns="http://www.w3.org/2000/svg" width="24" height="24" fill="none"><path fill="#0B2739" d="M19.687 8.677h.807c.742 0 1.347.605 1.35 1.353 0 .039-.003.078-.011.115l-1.448 7.946a1.353 1.353 0 0 1-1.345 1.289H4.27c-.742 0-1.347-.61-1.347-1.356L2.924 18l.001-.02-.77-11.95v-.025a1.402 1.402 0 0 1 1.415-1.39h6.128c.782 0 1.418.616 1.418 1.376v.4h7.1c.782 0 1.418.616 1.418 1.375l.064.813c.002.02-.002.04-.005.06a.38.38 0 0 0-.006.038M9.698 5.865H3.57c-.107 0-.177.067-.177.123l.451 6.994.558-3.02a1.35 1.35 0 0 1 1.344-1.288h12.717v-.003l-.064-.86c0-.106-.073-.17-.18-.17h-7.722a.622.622 0 0 1-.62-.625V5.988c0-.06-.072-.123-.179-.123"/></svg>