<svg width="24" height="24" viewBox="0 0 24 24" fill="none" xmlns="http://www.w3.org/2000/svg">
<path fill-rule="evenodd" clip-rule="evenodd" d="M11.8459 2C14.9692 2 17.4034 2.81793 19.0756 4.42857C20.8123 6.10364 21.6919 8.59664 21.6919 11.8459C21.6919 15.0952 20.8123 17.591 19.0756 19.2633C17.4034 20.8739 14.9692 21.6919 11.8459 21.6919C9.54341 21.6919 7.61624 21.2465 6.09244 20.3669L9.73949 16.619C9.95238 16.4006 9.94958 16.0532 9.73669 15.8347L9.5126 15.6078C10.8571 14.93 12.8403 14.2241 15.479 14.0336C15.5518 14.2045 15.6611 14.3613 15.7955 14.4902C16.0812 14.7591 16.451 14.8992 16.9048 14.8992C17.3585 14.8992 17.7283 14.7675 18.014 14.4902C18.2997 14.2129 18.451 13.8431 18.451 13.4202C18.451 12.9972 18.2969 12.6246 18.014 12.3529C17.7311 12.0812 17.3585 11.9412 16.9048 11.9412C16.451 11.9412 16.0784 12.0784 15.7955 12.3501C15.633 12.5042 15.5126 12.6975 15.4398 12.9104C13.3837 13.056 11.6919 13.4986 10.3613 14.0084L15.1288 9.30252C15.3193 9.38655 15.5266 9.42577 15.7339 9.42017C16.126 9.40896 16.4846 9.2465 16.8095 8.92717C17.1344 8.60784 17.3025 8.2493 17.3137 7.85714C17.3249 7.45938 17.1681 7.08963 16.8683 6.79272C16.5686 6.4958 16.1989 6.34454 15.8011 6.35574C15.409 6.36414 15.0504 6.52941 14.7255 6.84874C14.4006 7.16807 14.2325 7.52661 14.2213 7.91877C14.2129 8.12325 14.2549 8.32493 14.3361 8.5126L9.47339 13.3137C10.0084 11.9664 10.4734 10.2269 10.6246 8.09804C10.8375 8.02801 11.0308 7.90476 11.1849 7.74229C11.4566 7.45658 11.5938 7.08403 11.5938 6.63305C11.5938 6.18207 11.4594 5.80952 11.1849 5.52381C10.9104 5.23809 10.5406 5.08683 10.1176 5.08683C9.69468 5.08683 9.32213 5.2409 9.05042 5.52381C8.77871 5.80952 8.64145 6.17927 8.64145 6.63305C8.64145 7.08683 8.77871 7.45938 9.05042 7.74229C9.17927 7.87675 9.33613 7.98599 9.507 8.05882C9.31652 10.6891 8.61624 12.6695 7.94117 14.0112L7.7479 13.8151C7.64426 13.7059 7.4986 13.6471 7.35014 13.6471C7.19888 13.6471 7.05602 13.7087 6.94958 13.8151L3.29972 17.5602C2.43697 16.0448 2 14.1316 2 11.8459C2 8.59944 2.87955 6.10364 4.61625 4.42857C6.28851 2.81793 8.72269 2 11.8459 2ZM9.86274 6.96638C9.90476 7.0112 9.96638 7.05602 10.1092 7.05882H10.126C10.2745 7.05882 10.3389 7.0112 10.3838 6.96638C10.409 6.94117 10.4818 6.86554 10.4818 6.63305C10.4818 6.40056 10.409 6.32493 10.3838 6.29972C10.3389 6.2549 10.2745 6.20728 10.1232 6.20728C9.97199 6.20728 9.90756 6.2549 9.86274 6.29972C9.83753 6.32493 9.7647 6.40056 9.7647 6.63305C9.7647 6.86554 9.83753 6.94117 9.86274 6.96638ZM16.0252 8.13165C15.8571 8.29972 15.7451 8.30252 15.7087 8.30252C15.6443 8.30532 15.5658 8.29412 15.4622 8.19047L15.4594 8.18767C15.3585 8.08683 15.3445 8.0112 15.3473 7.95238L15.3477 7.94742C15.3505 7.90953 15.3577 7.81034 15.5182 7.64986C15.6863 7.48179 15.7983 7.47899 15.8347 7.47899C15.8992 7.47619 15.9832 7.493 16.084 7.59384C16.1849 7.69468 16.1989 7.77031 16.1961 7.82913L16.1957 7.83409C16.1929 7.87198 16.1857 7.97116 16.0252 8.13165ZM16.9132 13.7815C16.6835 13.7815 16.605 13.7087 16.5798 13.6835C16.5378 13.6415 16.4902 13.5798 16.4874 13.4342V13.4202C16.4874 13.2717 16.535 13.2073 16.5798 13.1625C16.605 13.1373 16.6835 13.0644 16.9132 13.0644C17.1429 13.0644 17.2213 13.1373 17.2465 13.1625C17.2913 13.2073 17.3389 13.2717 17.3389 13.423C17.3389 13.5742 17.2913 13.6387 17.2465 13.6835C17.2213 13.7087 17.1429 13.7815 16.9132 13.7815Z" fill="#313235"/>
</svg>
