<svg width="24" height="24" fill="none" xmlns="http://www.w3.org/2000/svg"><path d="m18.562 10.048.014.016c.465.563.711 1.309.705 2.244 0 .933-.249 1.675-.714 2.241l-.042.05a4.384 4.384 0 0 1-.336.309c-.148.123-.37.266-.594.4a7.486 7.486 0 0 1-.535.297v.49l-.008.712c-.023 2.355-1.387 4.87-5.14 4.882h-.023c-3.753-.011-5.117-2.527-5.14-4.882l-.011-.703v-.502a8.198 8.198 0 0 1-.535-.297 5.16 5.16 0 0 1-.594-.4 3.878 3.878 0 0 1-.336-.308l-.029-.034a.635.635 0 0 0-.013-.017c-.462-.569-.711-1.31-.711-2.24 0-.93.246-1.676.711-2.242a.222.222 0 0 0 .021-.025 1.078 1.078 0 0 1 .135-.14l.051-.047c.05-.05.107-.107.171-.149.734-.6 1.67-.978 2.75-1.12-.403-.65-.613-1.465-.613-2.44 0-1.328.381-2.37 1.135-3.093C9.6 2.353 10.617 2 11.903 2c1.286 0 2.303.356 3.025 1.05.751.723 1.132 1.762 1.132 3.093 0 .975-.21 1.79-.613 2.44 1.08.142 2.017.52 2.75 1.12.062.045.12.098.171.149l.052.047c.039.035.074.068.113.115.012.011.02.022.03.034Zm-.908 3.669c.252-.339.39-.807.392-1.415 0-.605-.137-1.075-.392-1.417-.602-.605-1.454-.963-2.48-1.084.035.224.054.46.054.709 0 1.059-.305 1.888-.91 2.467-.58.555-1.39.838-2.412.838-1.02 0-1.832-.283-2.412-.838-.605-.58-.913-1.408-.913-2.467 0-.25.023-.482.056-.709-1.025.118-1.88.48-2.479 1.084-.252.345-.39.812-.39 1.418 0 .607.135 1.075.39 1.414.26.263.577.465.925.639.173.087.347.17.54.235.44.143.936.221 1.47.244.043 0 .082.005.122.01.048.004.096.01.148.01h5.087c.058 0 .112-.006.166-.011l.102-.01c.533-.019 1.028-.1 1.47-.243.194-.064.368-.148.542-.235.347-.174.663-.379.924-.639Zm-3.48 2.843.007-.47H9.83l-.202.002.008.468c.006.642.238 2.129 2.27 2.137 2.027-.008 2.262-1.495 2.268-2.137Z" fill="#313235"/></svg>