<svg width="24" height="24" viewBox="0 0 24 24" fill="none" xmlns="http://www.w3.org/2000/svg">
<path fill-rule="evenodd" clip-rule="evenodd" d="M18.5622 10.0476C18.5665 10.0532 18.5709 10.0588 18.5756 10.0644C19.0405 10.6274 19.287 11.3725 19.2814 12.3081C19.2814 13.2408 19.0321 13.9831 18.5672 14.549L18.5251 14.5994C18.4187 14.7058 18.3067 14.8123 18.189 14.9075C18.0405 15.0308 17.8193 15.1736 17.5952 15.3081C17.4075 15.4229 17.2114 15.5294 17.0602 15.605V16.0952L17.0518 16.8067C17.0293 19.1624 15.6652 21.6778 11.9117 21.689H11.8893C8.13583 21.6778 6.77169 19.1624 6.74928 16.8067L6.73808 16.1036V15.6022C6.58682 15.5265 6.39354 15.4201 6.20307 15.3053C5.97898 15.1708 5.75769 15.028 5.60923 14.9047C5.49158 14.8095 5.37954 14.7058 5.2731 14.5966C5.26189 14.5854 5.25318 14.5742 5.24446 14.563C5.24011 14.5574 5.23575 14.5518 5.23108 14.5462C4.7689 13.9775 4.5196 13.2352 4.5196 12.3053C4.5196 11.3753 4.7661 10.6302 5.23108 10.0644C5.23948 10.056 5.24579 10.0476 5.25209 10.0392C5.25839 10.0308 5.26469 10.0224 5.2731 10.014C5.31261 9.96656 5.34794 9.93447 5.38695 9.89904C5.40325 9.88424 5.4202 9.86884 5.43836 9.85151L5.43837 9.8515C5.48879 9.80108 5.54481 9.74506 5.60923 9.70305C6.34312 9.10361 7.27869 8.72546 8.35992 8.5826C7.95656 7.93275 7.74648 7.11762 7.74648 6.14284C7.74648 4.81511 8.12743 3.7731 8.88092 3.05042C9.60081 2.35294 10.6176 2 11.9033 2C13.189 2 14.2058 2.35574 14.9285 3.05042C15.6792 3.7731 16.0602 4.81231 16.0602 6.14284C16.0602 7.11762 15.8501 7.93275 15.4467 8.5826C16.5279 8.72546 17.4635 9.10361 18.1974 9.70305C18.259 9.74786 18.3179 9.80109 18.3683 9.85151C18.3864 9.86884 18.4034 9.88424 18.4197 9.89905C18.4587 9.93447 18.494 9.96656 18.5335 10.014C18.5447 10.0252 18.5535 10.0364 18.5622 10.0476ZM17.654 13.717C17.3935 13.9775 17.077 14.182 16.7296 14.3557C16.556 14.4425 16.3823 14.5266 16.189 14.591C15.7464 14.7338 15.2506 14.8151 14.7184 14.8347C14.6831 14.8368 14.6494 14.8402 14.616 14.8435C14.5619 14.8489 14.5084 14.8543 14.4495 14.8543H9.36272C9.31069 14.8543 9.26285 14.8493 9.21508 14.8443H9.21507H9.21506C9.17538 14.8401 9.13575 14.8359 9.09381 14.8347C8.5588 14.8123 8.063 14.7338 7.62323 14.591C7.42995 14.5266 7.25628 14.4425 7.08261 14.3557C6.73528 14.182 6.41875 13.9803 6.15825 13.717C5.90335 13.3781 5.76889 12.9103 5.76889 12.3025C5.76889 11.6974 5.90615 11.2297 6.15825 10.8851C6.75768 10.2801 7.61202 9.91873 8.63723 9.80109C8.60361 10.028 8.58121 10.2605 8.58121 10.5098C8.58121 11.5686 8.88933 12.3977 9.49437 12.9775C10.0742 13.5322 10.8865 13.8151 11.9061 13.8151C12.9285 13.8151 13.738 13.5322 14.3179 12.9775C14.9229 12.3977 15.2282 11.5686 15.2282 10.5098C15.2282 10.2605 15.2086 10.0252 15.175 9.80109C16.2002 9.92153 17.0518 10.2801 17.654 10.8851C17.9089 11.2268 18.0461 11.6974 18.0461 12.3025C18.0433 12.9103 17.9061 13.3781 17.654 13.717ZM14.175 16.5602C14.1694 17.2016 13.9341 18.689 11.9061 18.6974C9.87532 18.689 9.64283 17.2016 9.63722 16.5602L9.62882 16.0924L9.8305 16.0896H14.1806L14.175 16.5602Z" fill="#313235"/>
</svg>
