<svg width="24" height="24" fill="none" xmlns="http://www.w3.org/2000/svg"><path fill-rule="evenodd" clip-rule="evenodd" d="m18.562 10.048.014.016c.465.563.711 1.309.705 2.244 0 .933-.249 1.675-.714 2.241l-.042.05a4.384 4.384 0 0 1-.336.309c-.148.123-.37.266-.594.4a7.486 7.486 0 0 1-.535.297v.49l-.008.712c-.023 2.355-1.387 4.87-5.14 4.882h-.023c-3.753-.011-5.117-2.527-5.14-4.882l-.011-.703v-.502a8.198 8.198 0 0 1-.535-.297 5.16 5.16 0 0 1-.594-.4 3.878 3.878 0 0 1-.336-.308l-.029-.034a.635.635 0 0 0-.013-.017c-.462-.569-.711-1.31-.711-2.24 0-.93.246-1.676.711-2.242a.222.222 0 0 0 .021-.025 1.078 1.078 0 0 1 .135-.14l.051-.047c.05-.05.107-.107.171-.149.734-.6 1.67-.978 2.75-1.12-.403-.65-.613-1.465-.613-2.44 0-1.328.381-2.37 1.135-3.093C9.6 2.353 10.617 2 11.903 2c1.286 0 2.303.356 3.025 1.05.751.723 1.132 1.762 1.132 3.093 0 .975-.21 1.79-.613 2.44 1.08.142 2.017.52 2.75 1.12.062.045.12.098.171.149l.052.047c.039.035.074.068.113.115.012.011.02.022.03.034Zm-.908 3.669c-.26.26-.577.465-.924.639-.174.087-.348.17-.541.235a5.456 5.456 0 0 1-1.47.244l-.103.008c-.054.006-.108.011-.166.011H9.363c-.052 0-.1-.005-.148-.01-.04-.004-.08-.008-.121-.01a5.53 5.53 0 0 1-1.47-.243 4.09 4.09 0 0 1-.541-.235 3.441 3.441 0 0 1-.925-.639c-.255-.339-.39-.807-.39-1.415 0-.605.138-1.072.39-1.417.6-.605 1.454-.966 2.48-1.084-.034.227-.057.46-.057.709 0 1.059.308 1.888.913 2.467.58.555 1.392.838 2.412.838 1.022 0 1.832-.283 2.412-.838.605-.58.91-1.408.91-2.467 0-.25-.02-.485-.053-.709 1.025.12 1.877.48 2.479 1.084.255.342.392.812.392 1.418-.003.607-.14 1.075-.392 1.414Zm-3.48 2.843c-.005.642-.24 2.129-2.268 2.137-2.03-.008-2.263-1.495-2.269-2.137l-.008-.468.201-.002h4.35l-.005.47Z" fill="#313235"/></svg>