<svg width="24" height="24" viewBox="0 0 24 24" fill="none" xmlns="http://www.w3.org/2000/svg">
<path fill-rule="evenodd" clip-rule="evenodd" d="M21.8408 7.90507V7.89667V7.89664C21.8408 7.88265 21.8408 7.87145 21.838 7.85745V7.84345L21.8296 7.79303C21.8281 7.7836 21.8256 7.77505 21.8233 7.76689L21.8232 7.76686L21.8232 7.76683L21.8232 7.76681C21.8214 7.76045 21.8196 7.75433 21.8184 7.74821C21.8184 7.74411 21.8169 7.74151 21.815 7.73821L21.8128 7.7342C21.8109 7.72638 21.8075 7.71856 21.8038 7.70978L21.8038 7.70968L21.8038 7.70966L21.7988 7.69779L21.7932 7.68658C21.7876 7.67258 21.7792 7.65577 21.7708 7.64177V7.63896L21.7456 7.59695L21.7372 7.58574C21.733 7.58019 21.7295 7.57533 21.7261 7.57047L21.726 7.57034C21.7225 7.56544 21.719 7.56053 21.7148 7.55493L21.7064 7.54373C21.6952 7.52974 21.684 7.51854 21.6728 7.50735L21.6728 7.50731L16.4907 2.32524C16.4851 2.31964 16.4788 2.31403 16.4725 2.30843C16.4662 2.30283 16.4599 2.29723 16.4543 2.29163L16.4431 2.28322C16.4375 2.27902 16.4326 2.27552 16.4277 2.27202C16.4228 2.26852 16.4179 2.26502 16.4123 2.26081L16.4011 2.25241L16.359 2.2272C16.352 2.223 16.3443 2.2195 16.3366 2.216C16.3289 2.21249 16.3212 2.20899 16.3142 2.20479L16.303 2.19919C16.2918 2.19359 16.2806 2.19079 16.2666 2.18798L16.2526 2.18518C16.2386 2.17958 16.2218 2.17678 16.205 2.17398L16.1546 2.16558H16.1405C16.1265 2.16277 16.1125 2.15997 16.0985 2.15997H16.0901C14.8548 2.16119 13.3842 2.16188 12.0623 2.1625C10.3387 2.1633 8.8681 2.16399 8.50189 2.16558C7.7764 2.16558 7.32542 2.61656 7.32542 3.33644V4.08434C5.69797 4.08714 4.42346 4.51852 3.54391 5.36726C2.62514 6.24961 2.16016 7.56333 2.16016 9.26361C2.16016 10.9639 2.62514 12.2748 3.54391 13.16C4.42346 14.0087 5.69517 14.4401 7.32542 14.4429V20.6698C7.32542 21.0339 7.43186 21.328 7.63915 21.5381C7.84643 21.7482 8.13775 21.8547 8.50469 21.8547H20.6896C21.3983 21.8547 21.8408 21.4093 21.8436 20.6978C21.8422 20.4709 21.8422 18.3946 21.8422 15.814C21.8422 13.2335 21.8422 10.1488 21.8408 7.90507ZM7.33943 13.3533C4.58593 13.3533 3.24979 12.0143 3.24979 9.26081C3.24979 6.50731 4.58873 5.16838 7.33943 5.16838C8.7792 5.16838 9.79881 5.4849 10.4543 6.14037C11.1097 6.79583 11.4291 7.81543 11.4291 9.26081C11.4291 12.0171 10.0901 13.3533 7.33943 13.3533ZM10.4067 18.2972H18.4459C18.754 18.2972 19.0033 18.0451 19.0033 17.737C19.0033 17.4289 18.7512 17.1768 18.4431 17.1768H10.4067C10.0985 17.1768 9.84643 17.4289 9.84643 17.737C9.84643 18.0451 10.0985 18.2972 10.4067 18.2972ZM18.4459 15.0199H11.7092C11.4011 15.0199 11.149 14.7678 11.149 14.4597C11.149 14.1516 11.4011 13.8995 11.7092 13.8995H18.4459C18.754 13.8995 19.0061 14.1516 19.0061 14.4597C19.0061 14.7678 18.754 15.0199 18.4459 15.0199ZM13.8941 11.7426H18.4459C18.754 11.7426 19.0061 11.4905 19.0061 11.1824C19.0061 10.8743 18.754 10.6222 18.4459 10.6222H13.8941C13.5859 10.6222 13.3338 10.8743 13.3338 11.1824C13.3338 11.4905 13.5859 11.7426 13.8941 11.7426ZM18.1013 7.34485C17.6223 7.34205 17.2722 7.18518 17.0341 6.86025C16.796 6.53532 16.6644 6.04513 16.6616 5.44569V4.07594L19.9277 7.34485H18.1013ZM7.7596 7.35045V8.83504C8.95567 9.03672 9.21338 9.74821 9.20778 10.3196C9.20778 10.7958 9.03411 11.1964 8.70637 11.4821C8.46268 11.6922 8.13775 11.8322 7.75399 11.8911V12.2748C7.75399 12.5073 7.56632 12.695 7.33383 12.695C7.10133 12.695 6.91366 12.5073 6.91366 12.2748V11.8967C6.47388 11.835 6.05371 11.6698 5.68677 11.4177C5.56632 11.342 5.49349 11.2076 5.49629 11.0647C5.49909 10.8434 5.67836 10.6642 5.89965 10.667C5.99489 10.6698 6.08453 10.6978 6.16016 10.751C6.38985 10.9107 6.64755 11.0255 6.91646 11.0955V9.52412C5.85203 9.29723 5.61954 8.63056 5.61954 8.08714C5.61954 7.27202 6.11534 6.70619 6.91646 6.56053V6.07594C6.91646 5.84345 7.10413 5.65577 7.33663 5.65577C7.56912 5.65577 7.75679 5.84345 7.75679 6.07594V6.55213C8.10694 6.59975 8.43186 6.71179 8.69517 6.87426C8.89405 6.99751 8.92486 7.15717 8.92486 7.24121C8.92486 7.45689 8.75119 7.63056 8.53551 7.63056C8.45708 7.62776 8.37584 7.60535 8.30581 7.56614L8.30021 7.56333C8.13215 7.4681 7.95007 7.39807 7.7596 7.35045ZM6.91926 7.36165C6.59993 7.4681 6.42066 7.70899 6.42066 8.05073C6.42066 8.28322 6.49069 8.52972 6.91926 8.68098V7.36165ZM7.7596 9.66137C8.32542 9.80423 8.41506 10.0731 8.41506 10.3476C8.41506 10.7286 8.17136 10.9975 7.7596 11.1011V9.66137Z" fill="#313235"/>
</svg>
