<svg width="24" height="24" viewBox="0 0 24 24" fill="none" xmlns="http://www.w3.org/2000/svg">
<path fill-rule="evenodd" clip-rule="evenodd" d="M20.3524 3.24369C20.4336 3.32212 20.526 3.41456 20.6017 3.49299C21.9406 4.88514 22.6129 7.11763 20.4812 9.22127L9.24033 20.3977C9.23753 20.4005 9.23403 20.4026 9.23053 20.4047C9.22703 20.4068 9.22353 20.4089 9.22073 20.4117C9.21758 20.4133 9.2162 20.4158 9.2146 20.4186C9.21336 20.4208 9.21198 20.4233 9.20952 20.4257C9.18898 20.4463 9.16595 20.4593 9.14292 20.4724C9.1314 20.4789 9.11989 20.4855 9.10868 20.493C9.10617 20.4946 9.10391 20.4963 9.10176 20.4979C9.09668 20.5017 9.09217 20.505 9.08627 20.507C8.99103 20.563 8.88739 20.6022 8.77815 20.6022C8.77255 20.6022 8.76695 20.6008 8.76134 20.5994C8.75574 20.598 8.75014 20.5966 8.74454 20.5966L2.879 21.6722C2.83979 21.6806 2.80337 21.6834 2.76696 21.6834C2.6101 21.6834 2.45884 21.6246 2.34399 21.5154C2.20393 21.3781 2.13671 21.1848 2.16752 20.9916L3.10869 14.8963C3.11213 14.8774 3.11871 14.8607 3.12523 14.8441C3.12936 14.8336 3.13345 14.8231 3.13671 14.8123C3.14091 14.8011 3.14441 14.7899 3.14791 14.7787C3.15141 14.7675 3.15491 14.7563 3.15911 14.7451C3.18993 14.6778 3.22914 14.6162 3.28236 14.563L14.5933 3.37254C16.7473 1.24089 18.9826 1.90756 20.3524 3.24369ZM13.9098 5.75069L15.5961 7.42015L6.25995 16.6582L4.57368 14.9916L13.9098 5.75069ZM7.11709 17.507L8.78095 19.1512L18.0947 9.89074L16.456 8.26889L7.11709 17.507ZM3.74735 18.7283L5.11989 20.07L7.51765 19.6022L4.1339 16.2549L3.74735 18.7283Z" fill="#313235"/>
</svg>
