<svg xmlns="http://www.w3.org/2000/svg" width="24" height="24" fill="none"><path fill="#0B2739" d="M20.348 3.404c.08.078.173.17.249.249 1.339 1.392 2.011 3.625-.12 5.728L9.234 20.558l-.01.007-.01.007q-.003.002-.005.007l-.005.007q-.031.028-.067.046l-.034.02-.007.006q-.007.006-.016.009a.6.6 0 0 1-.308.095l-.017-.003-.016-.002-5.866 1.075a.612.612 0 0 1-.535-.157.6.6 0 0 1-.176-.524l.94-6.095a.3.3 0 0 1 .017-.052q.007-.014.012-.032l.022-.067a.6.6 0 0 1 .123-.182l11.311-11.19c2.154-2.132 4.39-1.465 5.76-.13M13.905 5.91l-9.336 9.24 1.686 1.667 9.336-9.238zM7.112 17.667l1.664 1.644 9.314-9.26-1.639-1.622zm-3.37 1.221 1.373 1.342 2.398-.468-3.384-3.347z"/></svg>