<svg width="24" height="24" fill="none" xmlns="http://www.w3.org/2000/svg"><path d="M20.348 3.404c.08.078.173.17.249.249 1.339 1.392 2.011 3.625-.12 5.728L9.234 20.558a.05.05 0 0 1-.01.007l-.01.007c-.002.001-.004.004-.005.007a.031.031 0 0 1-.005.007c-.02.02-.044.033-.067.046a.567.567 0 0 0-.034.02l-.007.006a.611.611 0 0 1-.324.104l-.017-.003-.016-.002-5.866 1.075a.612.612 0 0 1-.535-.157.6.6 0 0 1-.176-.524l.94-6.095a.276.276 0 0 1 .017-.052c.004-.01.009-.02.012-.032a.63.63 0 0 0 .022-.067.615.615 0 0 1 .123-.182l11.311-11.19c2.154-2.132 4.39-1.465 5.76-.13ZM13.905 5.91l-9.336 9.24 1.686 1.667 9.336-9.238-1.686-1.67ZM7.112 17.667l1.664 1.644 9.314-9.26-1.639-1.622-9.339 9.238Zm-3.37 1.221 1.373 1.342 2.398-.468-3.384-3.347-.387 2.473Z" fill="#313235"/></svg>