<svg width="24" height="24" viewBox="0 0 24 24" fill="none" xmlns="http://www.w3.org/2000/svg">
<path fill-rule="evenodd" clip-rule="evenodd" d="M20.0816 7.86423C21.034 7.86423 21.8267 8.66255 21.8463 9.64574V14.2116C21.8463 15.2004 21.062 16.0071 20.0956 16.0071H18.5858C18.3981 16.9707 17.5634 17.7018 16.5662 17.7018H7.49614C4.04796 17.5757 2.16 15.5337 2.16 11.9539C2.16 8.36563 4.04796 6.32921 7.47653 6.21997H16.5522C17.5354 6.21997 18.3589 6.92865 18.5634 7.86983H19.2412V7.86703H20.0816V7.86423ZM20.639 14.2144V9.66255C20.6334 9.37123 20.4065 9.12193 20.1292 9.09672H18.6138V14.783H20.0956C20.3953 14.7802 20.639 14.5253 20.639 14.2144ZM5.59978 12.0631C5.59978 11.4301 5.96112 11.1359 6.51855 11.1359C7.07597 11.1359 7.44012 11.4301 7.43731 12.0631C7.43731 12.3684 7.35328 12.5925 7.20482 12.7466C7.04516 12.9118 6.80706 12.9931 6.51855 12.9931C6.23003 12.9931 5.99474 12.9118 5.83227 12.7466C5.68381 12.5925 5.59978 12.3684 5.59978 12.0631Z" fill="#313235"/>
</svg>
