<svg width="24" height="24" viewBox="0 0 24 24" fill="none" xmlns="http://www.w3.org/2000/svg">
<path fill-rule="evenodd" clip-rule="evenodd" d="M11.8403 6.42576C11.1428 6.42576 10.5994 6.24089 10.2241 5.87954C9.83472 5.50139 9.63584 4.94397 9.63584 4.21568C9.63584 3.48739 9.83192 2.92717 10.2241 2.54902C10.5994 2.18487 11.1456 2 11.8403 2C12.5378 2 13.084 2.18487 13.4622 2.54902C13.8543 2.92717 14.0532 3.48739 14.0532 4.21568C14.0532 4.94117 13.8543 5.50139 13.4622 5.87954C13.084 6.24369 12.5378 6.42576 11.8403 6.42576ZM8.17086 10.8403C8.0336 10.8403 7.91875 10.7283 7.91875 10.5882V9.85152C7.91875 9.14844 8.13724 8.54901 8.55181 8.11483C9.00279 7.64425 9.67505 7.39495 10.493 7.39495H13.1877C14.0084 7.39495 14.6806 7.64425 15.1316 8.11483C15.5462 8.54901 15.7675 9.14844 15.7675 9.85152V10.5882C15.7675 10.7255 15.6554 10.8403 15.5154 10.8403H8.17086ZM4.30532 16.7255C4.68067 17.0868 5.22408 17.2717 5.92156 17.2717C6.61904 17.2717 7.16526 17.0896 7.54341 16.7227C7.93836 16.3445 8.13724 15.7843 8.13724 15.0588C8.13724 14.3305 7.93836 13.7703 7.54621 13.3921C7.16806 13.028 6.62184 12.8431 5.92436 12.8431C5.22688 12.8431 4.68067 13.0308 4.30532 13.3949C3.91316 13.7759 3.71708 14.3333 3.71708 15.0616C3.71708 15.7899 3.91316 16.3473 4.30532 16.7255ZM7.2689 18.2409C8.08682 18.2409 8.75909 18.4902 9.21287 18.9607C9.63024 19.3949 9.84872 19.9944 9.84872 20.6974V21.4341C9.84872 21.5742 9.73668 21.6862 9.59662 21.6862H2.2521C2.11204 21.6862 2 21.5742 2 21.4341V20.6974C2 19.9944 2.21849 19.3921 2.63305 18.9607C3.08403 18.4902 3.7563 18.2381 4.57422 18.2381H7.2689V18.2409ZM15.549 15.056C15.549 15.7843 15.7479 16.3417 16.14 16.7199C16.5154 17.0812 17.0532 17.2661 17.7535 17.2661C18.4537 17.2661 18.9972 17.084 19.3753 16.7199C19.7675 16.3417 19.9691 15.7815 19.9691 15.056C19.9691 14.3305 19.7703 13.7675 19.3781 13.3893C19 13.0252 18.4537 12.8403 17.7563 12.8403C17.0588 12.8403 16.5126 13.0252 16.1372 13.3893C15.7479 13.7675 15.549 14.3277 15.549 15.056ZM21.0504 18.9551C21.4677 19.3893 21.6862 19.9888 21.6862 20.6918V21.4285C21.6862 21.5658 21.5742 21.6806 21.4341 21.6806H14.0868C13.9496 21.6806 13.8347 21.5686 13.8347 21.4285V20.6918C13.8347 19.9888 14.0532 19.3865 14.4678 18.9551C14.9187 18.4846 15.591 18.2353 16.4089 18.2353H19.1008C19.9243 18.2353 20.5966 18.4846 21.0504 18.9551ZM13.6414 16.5462C13.9355 16.7283 14.3193 16.633 14.4986 16.3389C14.6806 16.042 14.5854 15.6582 14.2885 15.479L12.4454 14.3501V12.2073C12.4454 11.8627 12.1652 11.5826 11.8207 11.5826C11.4762 11.5826 11.1961 11.8627 11.1961 12.2073V14.3501L9.35293 15.479C9.05881 15.661 8.96637 16.0448 9.14564 16.3389C9.26329 16.5322 9.47057 16.6386 9.68066 16.6386C9.7927 16.6386 9.90475 16.6078 10.0056 16.5462L11.8235 15.4341L13.6414 16.5462Z" fill="#313235"/>
</svg>
