<svg width="24" height="24" viewBox="0 0 24 24" fill="none" xmlns="http://www.w3.org/2000/svg">
<path fill-rule="evenodd" clip-rule="evenodd" d="M21.8361 11.9959C21.8361 5.29007 18.2087 2.15002 11.9902 2.15002C5.77174 2.15002 2.1499 5.29007 2.1499 11.9959C2.1499 18.7018 5.77174 21.8363 11.9902 21.8363C18.2087 21.8363 21.8361 18.7018 21.8361 11.9959ZM15.8221 7.04917C16.0742 7.24525 16.1163 7.6066 15.923 7.8559L8.97622 16.783C8.86417 16.9287 8.69331 17.0043 8.52244 17.0043C8.40199 17.0043 8.27594 16.9651 8.1723 16.8839C7.9202 16.6906 7.87538 16.3265 8.07146 16.0772L15.0154 7.15001C15.2087 6.89791 15.57 6.8531 15.8221 7.04917ZM15.9706 14.8279C15.9706 15.9567 15.36 16.4833 14.3151 16.4833C13.2675 16.4833 12.6597 15.9567 12.6597 14.8279C12.6597 13.699 13.2703 13.1724 14.3151 13.1724C15.36 13.1724 15.9706 13.699 15.9706 14.8279ZM9.6709 7.6262C8.62328 7.6262 8.01544 8.15561 8.01544 9.28166C8.01544 10.4077 8.62328 10.9371 9.6709 10.9371C10.7157 10.9371 11.3264 10.4077 11.3264 9.28166C11.3264 8.15281 10.7157 7.6262 9.6709 7.6262Z" fill="#313235"/>
</svg>
