<svg width="24" height="24" viewBox="0 0 24 24" fill="none" xmlns="http://www.w3.org/2000/svg">
<path fill-rule="evenodd" clip-rule="evenodd" d="M4.68372 15.7689C3.08708 15.7689 2.17112 14.8585 2.17112 13.2675V8.9874C2.17112 8.21148 2.384 7.60084 2.80697 7.17227C3.24114 6.72969 3.8742 6.5056 4.68372 6.5056L13.8434 6.5C14.6529 6.5 15.286 6.72409 15.7201 7.16667C16.1431 7.59524 16.356 8.20588 16.356 8.98179V13.2619C16.356 14.8529 15.44 15.7633 13.8434 15.7633L11.6401 15.7647L12.1972 16.3391L15.8182 16.3375C16.1207 16.3375 16.3672 16.584 16.3672 16.8866C16.3672 17.1891 16.1207 17.4356 15.8182 17.4356L2.70893 17.4412C2.40641 17.4412 2.15991 17.1947 2.15991 16.8922C2.15991 16.5896 2.40641 16.3431 2.70893 16.3431L6.23979 16.3416L6.78807 15.7676L4.68372 15.7689ZM8.30677 15.7667L7.75821 16.341L10.6691 16.3397L10.1123 15.7656L8.30677 15.7667ZM20.3644 17.4188H18.3672C17.8938 17.4188 17.496 17.2031 17.2467 16.8081C17.0339 16.4692 16.9302 16.0098 16.9302 15.402L16.9246 8.52241C16.9246 7.91457 17.0283 7.45518 17.2411 7.11625C17.4904 6.72409 17.8882 6.5056 18.3616 6.5056H20.3588C20.793 6.5056 21.807 6.70168 21.807 8.51961L21.8098 15.3992C21.8126 17.2227 20.7986 17.4188 20.3644 17.4188Z" fill="#313235"/>
</svg>
