<svg xmlns="http://www.w3.org/2000/svg" width="24" height="24" fill="none"><path fill="#0B2739" d="M11.597 11.36h.806a1.327 1.327 0 0 1 1.329 1.33v.805a1.33 1.33 0 0 1-1.33 1.33h-.805a1.327 1.327 0 0 1-1.33-1.33v-.806c0-.734.596-1.329 1.33-1.329"/><path fill="#0B2739" d="M9.603 5.36a1.636 1.636 0 0 1 1.468-.913h1.69c.597 0 1.146.324 1.434.847l.722 1.313h5.345c.96 0 1.738.779 1.738 1.739v9.461c0 .96-.778 1.739-1.738 1.739H3.331A1.331 1.331 0 0 1 2 18.214V8.346c0-.96.778-1.739 1.738-1.739h5.25zm1.994 4.773a2.556 2.556 0 0 0-2.556 2.556v.806a2.556 2.556 0 0 0 2.556 2.556h.806a2.556 2.556 0 0 0 2.556-2.556v-.806a2.556 2.556 0 0 0-2.556-2.556z"/></svg>