<svg width="24" height="24" viewBox="0 0 24 24" fill="none" xmlns="http://www.w3.org/2000/svg">
<path fill-rule="evenodd" clip-rule="evenodd" d="M15.8047 2.16083C17.1829 2.13282 18.589 2.78829 19.9056 4.10481C22.4602 6.65663 22.4994 9.47176 20.0148 12.032L12.0848 19.9648L12.0816 19.9681C12.0184 20.034 11.9605 20.0945 11.8944 20.1496C10.6871 21.2785 9.41817 21.8443 8.14366 21.8443C6.77952 21.8443 5.40977 21.1944 4.11005 19.8947C2.79072 18.5782 2.13806 17.2001 2.16047 15.7995C2.18568 14.4522 2.83834 13.1272 4.10445 11.8611L4.25011 11.7099C4.37055 11.5838 4.4882 11.4634 4.61145 11.3569L11.3874 4.5782C11.4653 4.48356 11.5847 4.36955 11.7072 4.25267L11.7095 4.25047L11.8636 4.10481C13.1297 2.84151 14.4546 2.18604 15.8047 2.16083ZM15.9308 14.3849L19.1437 11.172C21.1605 9.09081 21.1297 7.05999 19.04 4.97316C17.9868 3.91994 16.9252 3.38492 15.886 3.38492H15.8299C14.8075 3.40173 13.7655 3.93674 12.7319 4.97036L12.5582 5.13843C12.4658 5.22526 12.3734 5.3149 12.2893 5.41013L9.78232 7.91714C9.77988 7.92809 9.77904 7.93958 9.77817 7.95136C9.77704 7.96669 9.77587 7.98253 9.77111 7.99837C9.32574 9.36532 9.91957 10.8387 11.5862 12.5054C12.7095 13.6286 14.3537 14.8695 15.8355 14.3961C15.8557 14.3894 15.8748 14.3887 15.8935 14.3881C15.906 14.3876 15.9184 14.3872 15.9308 14.3849Z" fill="#313235"/>
</svg>
