<svg width="24" height="24" viewBox="0 0 24 24" fill="none" xmlns="http://www.w3.org/2000/svg">
<path d="M21.5235 8.16731L15.8624 2.47823C15.4506 2.06367 14.7952 2.04406 14.3638 2.47823C13.6271 3.22053 13.1845 4.03846 13.0473 4.91521L10.5179 7.46423C9.06127 7.21213 6.98844 7.45582 4.79796 9.6603L4.76715 9.69392C4.53186 9.92921 4.40581 10.2401 4.40581 10.5735C4.40581 10.904 4.53466 11.2149 4.76715 11.4502L8.20973 14.918L2.34418 20.7724C2.10049 21.016 2.09768 21.4166 2.34138 21.6631C2.46463 21.7864 2.6243 21.848 2.78676 21.848C2.94362 21.848 3.10609 21.7864 3.22654 21.6659L9.09488 15.8088L12.6131 19.355C12.8484 19.5931 13.1565 19.7135 13.473 19.7135C13.8064 19.7135 14.1453 19.5791 14.4198 19.3018C16.1873 17.5202 16.91 15.5931 16.5627 13.5679L19.0949 11.016C19.9716 10.8676 20.7952 10.4138 21.5571 9.6463C21.7447 9.45862 21.8484 9.20652 21.8484 8.93762C21.8456 8.6491 21.7335 8.37739 21.5235 8.16731Z" fill="#313235"/>
</svg>
