<svg xmlns="http://www.w3.org/2000/svg" width="24" height="24" fill="none"><path fill="#313235" d="M21.838 4.852c.031-.608-.215-1.224-.717-1.779-1.028-1.146-2.325-1.213-3.47-.185-.28.252-2.86 3.031-3.569 3.793L5.292 5.39a.426.426 0 0 0-.406.187L3.984 7.01a.396.396 0 0 0-.045.336.414.414 0 0 0 .222.258l6.347 2.932c-.874.95-1.53 1.586-2.118 2.157-.79.768-1.423 1.381-2.232 2.412l-2.855-.207a.398.398 0 0 0-.372.184l-.709 1.073a.41.41 0 0 0 .118.569l2.812 1.849 1.832 3.075c.11.182.34.25.53.16l1.249-.602a.408.408 0 0 0 .23-.4l-.239-3.102c1.068-.834 1.687-1.456 2.46-2.235a49.37 49.37 0 0 1 2.173-2.092l3.017 6.353a.41.41 0 0 0 .547.193h.002l1.443-.706a.408.408 0 0 0 .224-.431L17.228 9.93c.703-.644 3.468-3.165 3.708-3.383.558-.505.872-1.09.902-1.695Z"/></svg>