<svg width="24" height="24" viewBox="0 0 24 24" fill="none" xmlns="http://www.w3.org/2000/svg">
<path fill-rule="evenodd" clip-rule="evenodd" d="M11.9862 2.15997C15.1095 2.15997 17.5381 2.9751 19.2075 4.58294C20.9414 6.25241 21.8182 8.74821 21.8182 11.9947C21.8182 15.2412 20.9386 17.7314 19.2075 19.4009C17.5381 21.0087 15.1095 21.8238 11.9862 21.8238C8.86299 21.8238 6.43442 21.0087 4.76776 19.4009C3.03666 17.7314 2.15991 15.2412 2.15991 11.9947C2.15991 8.74821 3.03666 6.25521 4.76776 4.58574C6.43442 2.9751 8.86299 2.15997 11.9862 2.15997ZM9.42882 16.23L16.0815 12.3897C16.1571 12.3448 16.2159 12.286 16.258 12.2104C16.3924 11.9779 16.314 11.681 16.0815 11.5465L9.42882 7.70619C9.35599 7.66418 9.27196 7.64177 9.18792 7.64177C8.91902 7.64177 8.70053 7.85745 8.70053 8.12636V15.8098C8.70053 15.8939 8.72294 15.9779 8.76495 16.0507C8.89941 16.2832 9.19633 16.3645 9.42882 16.23Z" fill="#313235"/>
</svg>
