<svg width="24" height="24" fill="none" xmlns="http://www.w3.org/2000/svg"><path fill-rule="evenodd" clip-rule="evenodd" d="m8.824 6.056.683.695-.157.997A1.276 1.276 0 0 0 9.866 9a1.242 1.242 0 0 0 1.305.076l.605-.333.21-.115.21.115.608.333a1.24 1.24 0 0 0 1.572-.333c.215-.275.31-.63.252-.995l-.163-.991.684-.698c.339-.344.454-.843.302-1.308a1.255 1.255 0 0 0-1-.849l-.921-.137-.42-.885a1.235 1.235 0 0 0-1.124-.72 1.24 1.24 0 0 0-1.126.72l-.417.882-.922.14c-.462.07-.846.395-.994.846-.157.462-.042.961.297 1.308Zm2.075-1.123-1.196.182.888.986c.138.14.208.364.174.558l-.21 1.282 1.129-.557a.627.627 0 0 1 .622.014l1.084.594.002.003s.003 0 .006-.003l-.196-1.333a.675.675 0 0 1 .193-.575l.877-.89-1.244-.267a.643.643 0 0 1-.47-.344L12 3.403l-.585 1.169a.638.638 0 0 1-.516.361Zm4.796 6.882c0-.549-.502-1.028-1.073-1.028v.006H9.387c-.572 0-1.073.479-1.073 1.025v10.028h7.38v-10.03ZM2.16 14.72c0-.554.557-.899 1.073-.899h3.851v8.02H3.233c-.591 0-1.073-.423-1.073-.92v-6.2Zm18.613 1.48c.622 0 1.073.335 1.073.797v4.023c0 .47-.442.82-1.076.82H16.92V16.2h3.854Z" fill="#313235"/></svg>