<svg xmlns="http://www.w3.org/2000/svg" width="24" height="24" fill="none"><path fill="#0B2739" d="M21.842 12c0-6.442-3.407-9.845-9.846-9.845-6.437 0-9.84 3.403-9.84 9.846 0 6.437 3.4 9.84 9.84 9.84 6.442 0 9.846-3.403 9.846-9.84m-11.715 4.541h4.712c.221 0 .403.18.406.407v.431a.404.404 0 0 1-.403.403H8.673a.4.4 0 0 1-.358-.218.9.9 0 0 1-.093-.423c0-.445.233-.672.698-1.118.868-.84 1.04-1.437 1.04-2.182 0-.482-.076-.963-.245-1.526h-.997a.4.4 0 0 1-.403-.404v-.271c0-.213.165-.39.375-.404l.661-.045c-.16-.543-.302-1.22-.302-1.93 0-2.162 1.288-3.4 3.54-3.4.572 0 1.496.081 2.224.305.169.053.283.21.283.387v.364a.402.402 0 0 1-.476.398c-.683-.13-1.347-.202-1.87-.202-1.64 0-2.404.678-2.404 2.134 0 .642.154 1.289.325 1.86h2.481c.225 0 .404.182.404.404v.397c0 .225-.18.404-.404.404h-2.109c.132.524.2 1.042.2 1.54 0 1.062-.298 1.818-1.116 2.69"/></svg>