<svg width="24" height="24" viewBox="0 0 24 24" fill="none" xmlns="http://www.w3.org/2000/svg">
<path fill-rule="evenodd" clip-rule="evenodd" d="M17.4629 2.15997C18.5721 2.15997 19.3816 2.42888 19.9363 2.9863C20.4881 3.54092 20.7542 4.34764 20.7542 5.44848V18.5577C20.7542 19.6726 20.4853 20.4849 19.9278 21.0367C19.376 21.5829 18.5693 21.849 17.4629 21.849H10.9083C9.80181 21.849 8.99509 21.5829 8.44327 21.0367C7.88865 20.4849 7.61694 19.6726 7.61694 18.5577V14.9947C6.32843 14.9051 5.30322 14.5017 4.56652 13.793C3.69258 12.9499 3.25 11.7034 3.25 10.0843C3.25 8.46529 3.69258 7.21879 4.56652 6.37565C5.30322 5.66417 6.33123 5.26361 7.62254 5.17397C7.66456 4.2272 7.93347 3.51571 8.44047 3.00311C9.00349 2.43728 9.81021 2.15997 10.9083 2.15997H17.4629ZM8.17997 13.8967C9.43486 13.8967 10.39 13.5913 11.0147 12.9891C11.6618 12.3672 11.9895 11.3897 11.9895 10.0871C11.9895 8.78461 11.6618 7.80702 11.0147 7.18518C10.39 6.58294 9.43486 6.27761 8.17997 6.27761C6.92506 6.27761 5.96988 6.58294 5.34524 7.18518C4.69818 7.80702 4.37045 8.78461 4.37045 10.0871C4.37045 11.3897 4.69818 12.3672 5.34524 12.9891C5.96988 13.5913 6.92506 13.8967 8.17997 13.8967ZM15.0091 19.2132C14.813 19.4121 14.5301 19.5185 14.1884 19.5185C13.8466 19.5185 13.5637 19.4121 13.3676 19.2132C13.1716 19.0143 13.0791 18.7426 13.0791 18.4036C13.0791 17.7062 13.4937 17.2888 14.1912 17.2888C14.8886 17.2888 15.3032 17.7062 15.3032 18.4036C15.2976 18.7426 15.1996 19.0143 15.0091 19.2132ZM8.5301 8.22439V9.67817C9.7794 9.86584 10.0483 10.5941 10.0455 11.1796C10.0455 11.6586 9.86904 12.0647 9.53851 12.3504C9.2836 12.5717 8.93907 12.7146 8.5301 12.7706V13.0983C8.5301 13.2916 8.37324 13.4485 8.17997 13.4485C7.98669 13.4485 7.82983 13.2916 7.82983 13.0983V12.779C7.35644 12.7258 6.90266 12.5577 6.5105 12.286C6.38165 12.1964 6.31442 12.0731 6.31442 11.9219C6.31722 11.695 6.5049 11.5101 6.73179 11.5129C6.82703 11.5157 6.91946 11.5437 6.99789 11.5969C7.2724 11.7818 7.55252 11.8995 7.82983 11.9555V10.4177C6.68417 10.2076 6.43487 9.5129 6.43487 8.95268C6.43487 8.10114 6.97268 7.51851 7.82983 7.40086V7.08994C7.82983 6.89666 7.98669 6.7398 8.17997 6.7398C8.37324 6.7398 8.5301 6.89666 8.5301 7.08994V7.40086C8.90265 7.44568 9.24719 7.56053 9.5245 7.73139C9.72898 7.85744 9.75979 8.02271 9.75979 8.10954C9.75979 8.33363 9.57772 8.51291 9.35643 8.51291C9.2752 8.5101 9.19397 8.4877 9.12114 8.44848L9.11554 8.44568C8.93066 8.34484 8.73459 8.26921 8.5301 8.22439ZM7.2612 8.91627C7.2612 9.07873 7.2612 9.38965 7.82983 9.55772V8.21879C7.46848 8.30842 7.2612 8.55492 7.2612 8.91627ZM8.5301 11.9555V10.5269C9.12954 10.6642 9.21918 10.9331 9.21918 11.2104C9.21918 11.5941 8.96428 11.863 8.5301 11.9555Z" fill="#313235"/>
</svg>
