<svg xmlns="http://www.w3.org/2000/svg" width="24" height="24" fill="none"><path fill="#000" d="M2.155 12.001c0-6.443 3.403-9.846 9.84-9.846 6.443 0 9.846 3.403 9.846 9.846 0 6.437-3.406 9.84-9.846 9.84-6.437 0-9.84-3.403-9.84-9.84m10.49-4.174V4.802a.604.604 0 1 0-1.21 0v3.025a.604.604 0 1 0 1.21 0m3.527 4.818h3.022a.604.604 0 1 0 0-1.21h-3.022a.604.604 0 1 0 0 1.21m.459 4.902a.6.6 0 0 0 .852-.003.604.604 0 0 0 0-.857l-2.138-2.137a.605.605 0 0 0-.854.854zM11.956 19.8a.604.604 0 0 0 .605-.605V16.17a.604.604 0 1 0-1.21 0v3.025c0 .336.269.605.605.605m-2.513-4.453a.6.6 0 0 0 0-.83.606.606 0 0 0-.854-.022L6.452 16.63a.605.605 0 0 0 .854.854zM4.802 11.35a.606.606 0 0 0 0 1.21h3.025a.604.604 0 1 0 0-1.21zm9.75-2.7a.61.61 0 0 0-.002.854c.238.235.619.235.854 0l2.14-2.137a.605.605 0 0 0-.854-.854z"/></svg>