<svg xmlns="http://www.w3.org/2000/svg" width="24" height="24" fill="none"><path fill="#0B2739" d="M21.04 4.002c-.51-.493-1.238-.742-2.16-.742h-6.14c-.921 0-1.647.25-2.16.742-.531.513-.8 1.258-.8 2.219v11.56c0 .958.269 1.706.8 2.219.51.492 1.239.742 2.16.742h6.143c.922 0 1.647-.25 2.16-.742.532-.513.801-1.258.801-2.219V6.221c-.003-.958-.272-1.703-.804-2.219M4.514 10.114c.271 0 .49-.218.49-.49v-.639c0-1.366.636-2.002 2.003-2.002h.064a26.06 26.06 0 0 0-.286.246.492.492 0 0 0 .63.754l.009-.009c.137-.117.826-.711.955-.837.4-.4.398-.902-.005-1.306-.25-.249-.922-.823-.95-.846a.49.49 0 0 0-.692.057.49.49 0 0 0 .056.691c.07.06.188.16.317.275h-.096c-.932 0-1.666.252-2.179.745-.535.515-.804 1.269-.804 2.238v.639a.484.484 0 0 0 .488.484m11.282 8.552c-.198 0-.36-.053-.473-.165-.1-.104-.16-.255-.16-.462 0-.429.25-.628.633-.628.384 0 .634.2.634.628 0 .204-.06.358-.16.462-.112.112-.275.165-.473.165m-8.851-7.482h-3.02c-1.109 0-1.77.661-1.77 1.77v5.992c0 1.11.661 1.77 1.77 1.77h3.02c1.11 0 1.77-.66 1.77-1.77v-5.991c-.003-1.11-.664-1.77-1.77-1.77M5.55 18.96a.394.394 0 0 1-.283-.098c-.062-.061-.095-.154-.095-.274 0-.255.148-.373.375-.373s.378.118.378.373a.374.374 0 0 1-.092.274c-.067.068-.163.098-.283.098"/></svg>