<svg width="24" height="24" fill="none" xmlns="http://www.w3.org/2000/svg"><path d="M10.714 2.755a.598.598 0 0 0-.594-.602.602.602 0 0 0-.597.602l-.005 4.532h-.922V2.752a.598.598 0 0 0-.594-.602.6.6 0 0 0-.594.602v4.535h-.82V2.752a.581.581 0 0 0-.594-.582c-.328 0-.594.288-.594.619v7.358c0 .614.358 1.073.835 1.073l.386-.003a467.326 467.326 0 0 0-1.028 8.11c0 1.826 1.283 2.495 2.373 2.51h.199c1.098-.02 2.375-.687 2.372-2.558l-.009-.085c-.064-.627-.468-4.595-.949-7.971h.3c.476 0 .835-.46.835-1.073V2.755Zm7.812 16.565c-.012-.116-.284-2.854-.65-5.739a.579.579 0 0 0 .17-.423V2.775a.598.598 0 0 0-.593-.603c-2.129 0-3.863 1.754-3.863 3.91v7.076c0 .334.267.603.594.603h.185a460.099 460.099 0 0 0-.695 5.613c0 1.796 1.258 2.448 2.337 2.462h.187c1.076-.022 2.33-.678 2.328-2.512v-.004Z" fill="#313235"/></svg>