<svg xmlns="http://www.w3.org/2000/svg" width="24" height="24" fill="none"><path fill="#000" d="M21.841 12.001c0-6.44-3.406-9.846-9.846-9.846-6.437 0-9.84 3.406-9.84 9.846 0 6.437 3.403 9.84 9.84 9.84 6.44 0 9.846-3.403 9.846-9.84m-8.627-5.854a.66.66 0 0 1 .703.084l3.123 3.025c.132.12.21.291.207.47a.66.66 0 0 1-.232.493l-3.068 2.97c-.232.19-.5.22-.733.112a.65.65 0 0 1-.37-.583v-1.011h-.868v5.448a.41.41 0 0 1-.41.409h-2.96a.41.41 0 0 1-.41-.409V8.71a.94.94 0 0 1 .28-.681.97.97 0 0 1 .682-.28h3.683v-1.02c0-.252.146-.479.373-.582"/></svg>