<svg xmlns="http://www.w3.org/2000/svg" width="24" height="24" fill="none"><path fill="#0B2739" d="M17.826 12.909h-3.944v.753h5.877c.697 0 1.263.549 1.263 1.224v5.74c0 .675-.566 1.224-1.263 1.224H4.243c-.697 0-1.263-.547-1.263-1.224v-5.74c0-.675.566-1.224 1.263-1.224h5.877v-.754H6.176c-.697 0-1.263-.546-1.263-1.224v-.689h-.664c-.698 0-1.263-.546-1.263-1.224v-2.89c0-.676.565-1.225 1.263-1.225h.664v-.983c0-.675.566-1.224 1.263-1.224h5.32V3.18a.6.6 0 0 1-.152-.39c0-.35.294-.635.656-.635.36 0 .655.286.655.636 0 .148-.062.28-.151.39v.268h5.32c.697 0 1.262.546 1.262 1.224v.995h.676c.697 0 1.263.546 1.263 1.224v2.89c0 .675-.566 1.225-1.263 1.225h-.676v.677c.003.676-.563 1.225-1.26 1.225m-4.543-1.225h4.543V4.676H6.179v2.123q0 .015.003.028.005.029.005.056v2.891q0 .028-.005.056l-.003.028v1.83h4.543q.008 0 .016-.004l.015-.002h2.499q.009-.002.018 0 .006.002.013.002m-1.9 1.975h1.236v-.753h-1.236zm1.886 1.224-.008.003q-.005.002-.012.003H10.75l-.008-.002q-.005-.004-.011-.004H4.24v5.74h1.831l-.001-.017-.001-.017v-3.678c0-.675.563-1.224 1.263-1.224h9.33c.698 0 1.264.546 1.264 1.224v3.678l-.002.017v.012l-.001.005h1.832v-5.74zm-3.191-7.745a.454.454 0 0 0-.462-.445.454.454 0 0 0-.462.445c0 .25.204.448.462.448a.456.456 0 0 0 .462-.448m1.177.003c0 .877-.737 1.588-1.642 1.588s-1.641-.711-1.641-1.588c0-.874.736-1.588 1.641-1.588s1.642.714 1.642 1.588m3.596-.017a.454.454 0 0 0-.462-.445.454.454 0 0 0-.462.445c0 .244.207.446.462.446a.454.454 0 0 0 .462-.446m-.462-1.588c.905 0 1.639.711 1.639 1.588 0 .874-.737 1.588-1.64 1.588-.901 0-1.64-.711-1.64-1.588.002-.877.739-1.588 1.64-1.588m-.134 4.507a.62.62 0 0 0-.63-.61h-3.242a.62.62 0 0 0-.63.61c0 .336.283.61.63.61h3.241a.62.62 0 0 0 .63-.61"/></svg>