<svg width="24" height="24" viewBox="0 0 24 24" fill="none" xmlns="http://www.w3.org/2000/svg">
<path fill-rule="evenodd" clip-rule="evenodd" d="M17.8459 12.9034H13.9019V13.6569H19.7787C20.4762 13.6569 21.042 14.2059 21.042 14.881V20.6205C21.042 21.2955 20.4762 21.8446 19.7787 21.8446H4.2633C3.56583 21.8446 3 21.2983 3 20.6205V14.881C3 14.2059 3.56583 13.6569 4.2633 13.6569H10.14V12.9034H6.19607C5.4986 12.9034 4.93277 12.3572 4.93277 11.6793V10.9902H4.26891C3.57143 10.9902 3.0056 10.444 3.0056 9.76614V6.87539C3.0056 6.20032 3.57143 5.6513 4.26891 5.6513H4.93277V4.66811C4.93277 3.99304 5.4986 3.44402 6.19607 3.44402H11.5154V3.17511C11.4258 3.06587 11.3641 2.93421 11.3641 2.78576C11.3641 2.43562 11.6583 2.1499 12.0196 2.1499C12.3809 2.1499 12.6751 2.43562 12.6751 2.78576C12.6751 2.93421 12.6134 3.06587 12.5238 3.17511V3.44402H17.8431C18.5406 3.44402 19.1064 3.99024 19.1064 4.66811V5.6625H19.7815C20.479 5.6625 21.0448 6.20872 21.0448 6.88659V9.77734C21.0448 10.4524 20.479 11.0014 19.7815 11.0014H19.1064V11.6793C19.1092 12.3544 18.5434 12.9034 17.8459 12.9034ZM13.3025 11.6793H17.8459V4.67091H6.19887V6.79415C6.19981 6.80349 6.20105 6.81283 6.2023 6.82216C6.20479 6.84084 6.20728 6.85951 6.20728 6.87819V9.76894C6.20728 9.78761 6.20479 9.80629 6.2023 9.82496C6.20105 9.8343 6.19981 9.84364 6.19887 9.85297V11.6821H10.7423C10.7479 11.6821 10.7528 11.6807 10.7577 11.6793C10.7626 11.6779 10.7675 11.6765 10.7731 11.6765H13.2717C13.2783 11.6748 13.284 11.6761 13.2898 11.6775C13.2938 11.6784 13.2979 11.6793 13.3025 11.6793ZM11.4033 13.6541H12.6386V12.9006H11.4033V13.6541ZM13.2885 14.8782H19.7759V20.6177H17.944L17.9441 20.6127L17.9445 20.6084L17.9454 20.6009C17.9461 20.5953 17.9468 20.5897 17.9468 20.584V16.9062C17.9468 16.2283 17.3809 15.6821 16.6835 15.6821H7.35293C6.65266 15.6821 6.08963 16.2311 6.08963 16.9062V20.584C6.08963 20.5897 6.09033 20.5953 6.09103 20.6009C6.09173 20.6065 6.09243 20.6121 6.09243 20.6177H4.2605V14.8782H10.7507C10.7553 14.8782 10.7591 14.8799 10.7625 14.8814C10.7653 14.8826 10.7678 14.8838 10.7703 14.8838H13.2689C13.2735 14.8838 13.2773 14.8821 13.2807 14.8806C13.2835 14.8793 13.286 14.8782 13.2885 14.8782ZM10.098 7.13309C10.098 7.37959 9.89075 7.58127 9.63585 7.58127C9.37814 7.58127 9.17366 7.38239 9.17366 7.13309C9.17366 6.88659 9.38094 6.68771 9.63585 6.68771C9.89075 6.68771 10.098 6.88659 10.098 7.13309ZM11.2745 7.13589C11.2745 8.01264 10.5378 8.72412 9.63304 8.72412C8.72828 8.72412 7.99159 8.01264 7.99159 7.13589C7.99159 6.26194 8.72828 5.54766 9.63304 5.54766C10.5378 5.54766 11.2745 6.26194 11.2745 7.13589ZM14.8711 7.11908C14.8711 7.36558 14.6638 7.56446 14.4089 7.56446C14.154 7.56446 13.9468 7.36278 13.9468 7.11908C13.9468 6.87258 14.154 6.67371 14.4089 6.67371C14.6638 6.67371 14.8711 6.87258 14.8711 7.11908ZM14.4089 5.53085C15.3137 5.53085 16.0476 6.24233 16.0476 7.11908C16.0476 7.99303 15.3109 8.70732 14.4089 8.70732C13.507 8.70732 12.7675 7.99583 12.7675 7.11908C12.7703 6.24233 13.507 5.53085 14.4089 5.53085ZM14.2745 10.0378C14.2745 9.70171 13.9916 9.4272 13.6442 9.4272H10.4034C10.056 9.4272 9.7731 9.70171 9.7731 10.0378C9.7731 10.374 10.056 10.6485 10.4034 10.6485H13.6442C13.9916 10.6485 14.2745 10.3768 14.2745 10.0378Z" fill="#313235"/>
</svg>
