<svg width="24" height="24" viewBox="0 0 24 24" fill="none" xmlns="http://www.w3.org/2000/svg">
<path fill-rule="evenodd" clip-rule="evenodd" d="M7.47207 6.66143C7.23678 6.66143 7.0463 6.47376 7.0463 6.24127V2.5802C7.0463 2.35051 7.23678 2.16003 7.47207 2.16003H9.34882C9.58412 2.16003 9.77459 2.34771 9.77459 2.5802V3.73146H10.6794V2.5802C10.6794 2.35051 10.8698 2.16003 11.1051 2.16003H12.7326C12.9679 2.16003 13.1583 2.34771 13.1583 2.5802V3.80709L14.0967 3.79309V2.5802C14.0967 2.35051 14.2872 2.16003 14.5225 2.16003H16.4749C16.7102 2.16003 16.9006 2.34771 16.9006 2.5802V6.24407C16.9006 6.47656 16.7102 6.66424 16.4749 6.66424H16.1864V6.65863H8.02669V6.66424H7.47207V6.66143ZM7.66815 16.3981C7.66815 16.1656 7.85863 15.978 8.09392 15.978H8.87543C8.86423 15.9303 8.85863 15.8827 8.86143 15.8295L9.67375 8.88833H9.23678C9.00148 8.88833 8.81101 8.70065 8.81101 8.46816V7.3253H15.2032V8.46816C15.2032 8.69785 15.0127 8.88833 14.7774 8.88833H14.3404L15.1527 15.8295C15.1583 15.8799 15.1527 15.9303 15.1387 15.978H15.8278C16.0631 15.978 16.2536 16.1656 16.2536 16.3981V18.4878H7.66535V16.3981H7.66815ZM17.7018 19.5774C17.7018 19.3449 17.5113 19.1572 17.276 19.1572H6.64574C6.41045 19.1572 6.21997 19.3477 6.21997 19.5774V21.4261C6.21997 21.6586 6.41045 21.8463 6.64574 21.8463H17.276C17.5113 21.8463 17.7018 21.6586 17.7018 21.4261V19.5774Z" fill="#313235"/>
</svg>
