<svg width="24" height="24" viewBox="0 0 24 24" fill="none" xmlns="http://www.w3.org/2000/svg">
<path fill-rule="evenodd" clip-rule="evenodd" d="M13.2563 6.90539C13.2311 4.57486 11.7381 3.22192 11.7213 3.21072C11.472 2.98943 11.4496 2.60848 11.6709 2.35918C11.6737 2.35638 11.6765 2.35358 11.6765 2.35078C11.9062 2.10148 12.2927 2.08187 12.5448 2.30596C12.6233 2.37599 14.4524 4.03705 14.4832 6.87458C14.4888 6.97262 14.5869 9.76533 12.5701 11.5468C12.458 11.6477 12.3096 11.7009 12.1611 11.7009C11.9874 11.7009 11.8194 11.6281 11.7017 11.4964C11.4776 11.2499 11.4972 10.8662 11.7465 10.6421L11.7521 10.6365C13.3011 9.26939 13.2582 7.00191 13.2564 6.90823L13.2563 6.90539ZM10.6653 6.9306C10.6488 5.59045 9.80697 4.78236 9.77275 4.74951L9.77174 4.74853C9.52244 4.52724 9.50003 4.14629 9.72132 3.89419L9.72692 3.88859C9.95661 3.63929 10.3432 3.61968 10.5953 3.84377C10.6485 3.89139 11.8782 5.00623 11.8978 6.89699C11.9006 6.95581 11.9678 8.82416 10.6121 10.0202C10.5 10.1211 10.3544 10.1743 10.2031 10.1743C10.0266 10.1743 9.86138 10.1015 9.74373 9.96981C9.51964 9.72331 9.53925 9.34236 9.78575 9.11827C9.78855 9.11547 9.79135 9.11267 9.79415 9.11267C10.6856 8.32333 10.6661 6.98469 10.6653 6.93209L10.6653 6.9306ZM8.01824 18.0454C8.01824 18.2611 7.95662 18.4208 7.84737 18.53C7.72973 18.6449 7.55606 18.7037 7.34877 18.7037C7.13869 18.7037 6.96502 18.6477 6.84737 18.53C6.74093 18.4208 6.67931 18.2611 6.67931 18.0454C6.67931 17.5945 6.94261 17.3872 7.34877 17.3872C7.75494 17.3872 8.01824 17.5973 8.01824 18.0454ZM5.4104 18.53C5.51684 18.4208 5.57847 18.2611 5.57847 18.0454C5.57847 17.5973 5.31516 17.3872 4.909 17.3872C4.50284 17.3872 4.23954 17.5945 4.23954 18.0454C4.23954 18.2611 4.30116 18.4208 4.4076 18.53C4.52525 18.6477 4.69892 18.7037 4.909 18.7037C5.11909 18.7037 5.29275 18.6449 5.4104 18.53ZM21.8361 17.2359C21.8361 16.2919 21.584 15.5608 21.0911 15.051C20.5784 14.5216 19.8137 14.2555 18.8277 14.2527H8.08267V6.9222C8.08267 6.58606 7.80536 6.31436 7.46642 6.31436C7.12468 6.31436 6.85018 6.58606 6.85018 6.9222V14.2527H5.1639C4.17231 14.2527 3.4104 14.5216 2.895 15.0482C2.3992 15.558 2.1499 16.2919 2.1499 17.2331V18.855C2.1499 19.7961 2.3992 20.5328 2.895 21.0426C3.4104 21.5692 4.17231 21.8381 5.1639 21.8381H18.8221C19.8137 21.8381 20.5756 21.5692 21.0911 21.0426C21.584 20.5356 21.8361 19.7989 21.8361 18.8578V17.2359Z" fill="#313235"/>
</svg>
