<svg width="24" height="24" viewBox="0 0 24 24" fill="none" xmlns="http://www.w3.org/2000/svg">
<path fill-rule="evenodd" clip-rule="evenodd" d="M21.6468 8.03364V8.02523C21.6468 8.01123 21.6468 8.00003 21.644 7.98602V7.97201L21.6356 7.92159C21.6342 7.91321 21.6321 7.90552 21.63 7.89784L21.63 7.89778L21.63 7.89773C21.6279 7.89005 21.6258 7.88236 21.6244 7.87398C21.6244 7.86987 21.6229 7.86727 21.621 7.86398C21.6203 7.86277 21.6195 7.86147 21.6188 7.85997C21.6168 7.85212 21.6135 7.84426 21.6097 7.83544L21.6097 7.83542L21.6048 7.82355L21.5992 7.81235C21.5936 7.79554 21.5852 7.78154 21.5768 7.76753L21.5515 7.72552L21.5431 7.71431C21.5389 7.70871 21.5354 7.70381 21.5319 7.69891C21.5297 7.69577 21.5274 7.69262 21.525 7.6893C21.5237 7.68743 21.5222 7.68551 21.5207 7.6835L21.5123 7.6723C21.5011 7.6583 21.4899 7.6471 21.4787 7.6359L21.4787 7.63588L16.0166 2.17372C16.0109 2.16812 16.0046 2.16251 15.9983 2.15691C15.992 2.15131 15.9857 2.14571 15.9801 2.14011L15.9689 2.1317C15.9633 2.1275 15.9584 2.124 15.9535 2.1205C15.9486 2.117 15.9437 2.1135 15.9381 2.10929L15.9269 2.10089L15.8849 2.07568C15.8779 2.07148 15.8702 2.06798 15.8625 2.06448C15.8548 2.06097 15.8471 2.05747 15.8401 2.05327L15.8289 2.04767C15.8221 2.04428 15.8153 2.04191 15.8079 2.03933L15.8079 2.03933L15.8079 2.03933C15.8031 2.03765 15.798 2.03587 15.7925 2.03366H15.7813C15.7673 2.02806 15.7504 2.02526 15.7336 2.02246L15.6832 2.01406H15.6692C15.6622 2.01406 15.6559 2.01336 15.6496 2.01266L15.6496 2.01266L15.6496 2.01265C15.6433 2.01195 15.637 2.01125 15.63 2.01125H15.6216C13.4283 2.00905 11.0087 2.01032 9.79768 2.01096L9.11182 2.01125C8.40034 2.01125 7.96056 2.45103 7.96056 3.15971V5.43981C4.94097 6.50984 3.35554 9.82355 4.42556 12.8459C4.65245 13.4874 4.98859 14.084 5.42276 14.6078L2.15947 17.9944C1.94938 18.2213 1.96059 18.5742 2.18748 18.7871C2.40877 18.9916 2.7533 18.986 2.96619 18.7731L6.21547 15.3978C6.73648 15.8263 7.32751 16.1625 7.96336 16.3865V20.5014C7.96336 21.2157 8.40594 21.661 9.11742 21.661H20.5151C21.1986 21.661 21.644 21.2157 21.644 20.5294C21.6468 20.0868 21.6468 12.2941 21.6468 8.03364ZM19.7336 7.47342H18.3555C17.7028 7.47342 17.1566 7.26894 16.7729 6.88518C16.3891 6.50143 16.1874 5.95241 16.1874 5.29976V3.92161L17.9605 5.69471L19.7336 7.47342ZM13.2014 7.60227C11.3751 5.77314 8.41154 5.77314 6.58242 7.60227C5.70287 8.47901 5.20987 9.66949 5.21268 10.9104C5.21268 12.1541 5.70567 13.3445 6.58242 14.2213C8.40874 16.0504 11.3723 16.0476 13.2014 14.2213C15.0306 12.395 15.0278 9.43139 13.2014 7.60227Z" fill="#313235"/>
</svg>
