<svg width="24" height="24" viewBox="0 0 24 24" fill="none" xmlns="http://www.w3.org/2000/svg">
<path fill-rule="evenodd" clip-rule="evenodd" d="M2.02539 9.75912C2.02539 14.0924 5.53798 17.605 9.87129 17.605C11.7656 17.6101 13.5903 16.9237 15.0095 15.6873L20.706 21.3837C20.8096 21.4902 20.9525 21.549 21.1009 21.549C21.2494 21.549 21.3895 21.4902 21.4987 21.3837C21.7172 21.1652 21.7172 20.8095 21.4987 20.591L15.7948 14.8871C18.3584 11.8351 18.2326 7.29548 15.4175 4.3894C12.4035 1.27737 7.43713 1.19613 4.3223 4.21013C2.85172 5.68351 2.02539 7.6779 2.02539 9.75912ZM14.6945 14.4846C17.2663 11.8631 17.2579 7.65541 14.664 5.03925C14.6564 5.0298 14.6476 5.02161 14.6392 5.01385C14.6351 5.01011 14.6312 5.00648 14.6276 5.00284C13.3671 3.73674 11.6556 3.02806 9.87129 3.03366C6.15702 3.03366 3.14583 6.04485 3.14583 9.75912C3.14583 11.5434 3.85451 13.2521 5.11501 14.5154C7.72216 17.1421 11.9594 17.1679 14.6 14.579C14.6183 14.5556 14.6387 14.5334 14.6612 14.5126C14.672 14.5028 14.6831 14.4934 14.6945 14.4846ZM13.9749 5.75914C11.7368 3.52105 8.1094 3.52105 5.87131 5.75914C3.63323 7.99722 3.63323 11.6247 5.87131 13.8627C8.1094 16.1008 11.7368 16.1008 13.9749 13.8627C15.0505 12.7871 15.6528 11.3305 15.6528 9.80954C15.6584 8.29134 15.0533 6.83196 13.9749 5.75914Z" fill="#313235"/>
</svg>
