<svg width="24" height="24" fill="none" xmlns="http://www.w3.org/2000/svg"><path fill-rule="evenodd" clip-rule="evenodd" d="M2 9.758a7.846 7.846 0 0 0 7.846 7.846 7.792 7.792 0 0 0 5.138-1.918l5.697 5.696a.55.55 0 0 0 .395.165.561.561 0 0 0 .398-.958l-5.705-5.703A7.848 7.848 0 0 0 4.297 4.209 7.854 7.854 0 0 0 2 9.758Zm12.67 4.725a6.725 6.725 0 0 0-.056-9.47L14.602 5a6.68 6.68 0 0 0-4.756-1.969A6.726 6.726 0 0 0 5.09 14.514a6.728 6.728 0 0 0 9.485.064.57.57 0 0 1 .094-.095Zm-.426-9.017a6.145 6.145 0 1 0-8.688 8.689 6.145 6.145 0 0 0 8.688-8.689Zm-2.49 7.079c-.348.3-.816.49-1.373.56v.546a.38.38 0 0 1-.378.381.381.381 0 0 1-.381-.38v-.525a3.884 3.884 0 0 1-1.913-.67.545.545 0 0 1-.252-.464.526.526 0 0 1 .532-.521c.123.003.24.042.342.11.428.285.86.456 1.29.512v-2.13c-1.649-.243-2-1.198-2-1.963 0-1.173.777-1.96 2-2.072v-.267c0-.21.172-.38.382-.38.21 0 .378.17.378.38v.278c.507.059.98.21 1.358.442.264.163.303.373.303.485 0 .283-.23.513-.513.515h-.002a.693.693 0 0 1-.306-.084l-.008-.003a2.882 2.882 0 0 0-.835-.308v2.017c1.69.244 2.045 1.216 2.045 1.995.003.633-.23 1.168-.67 1.546ZM8.672 7.954c0 .361.123.745.947.933V6.959c-.597.084-.947.443-.947.995Zm1.706 2.126v1.997c.622-.118.992-.496.992-1.04 0-.391-.13-.772-.992-.957Z" fill="#313235"/></svg>