<svg width="24" height="24" viewBox="0 0 24 24" fill="none" xmlns="http://www.w3.org/2000/svg">
<path fill-rule="evenodd" clip-rule="evenodd" d="M21.6863 14.1541C21.6863 9.93842 18.4062 9.23253 16.9888 9.12609C15.8123 5.51825 11.7283 5.33337 10.9048 5.33337C9.84594 5.33337 4.61345 5.61909 4.5014 11.2101C3.45098 11.5939 2 12.5743 2 15.0953C2 18.1793 4.18487 19.2774 6.22969 19.2774L16.5154 19.2213C17.381 19.2213 21.6863 18.9748 21.6863 14.1541ZM16.0616 13.0897V12.493C16.0588 12.1093 15.7479 11.7984 15.3641 11.7984H14.8796C14.8431 11.6415 14.7955 11.4902 14.7367 11.3418L15.1317 10.9496C15.4062 10.6807 15.409 10.2409 15.1401 9.96643L15.1345 9.96082L14.6975 9.52665C14.4202 9.25494 13.9776 9.25494 13.7003 9.52665L13.3053 9.91881C13.1541 9.85998 13 9.81237 12.8431 9.77595V9.29416C12.8403 8.9104 12.5294 8.59948 12.1457 8.60228H11.549C11.1653 8.60228 10.8515 8.9104 10.8515 9.29416V9.77595C10.6947 9.81237 10.5406 9.85998 10.3894 9.91881L9.9944 9.52665C9.86274 9.395 9.68347 9.32217 9.4986 9.32217H9.4958C9.30812 9.32217 9.12885 9.395 8.9972 9.52665L8.55462 9.95802C8.28011 10.2269 8.27731 10.6667 8.54902 10.9412L8.55462 10.9468L8.94678 11.3362C8.88796 11.4874 8.84034 11.6415 8.80672 11.7984H8.32213C7.93837 11.7984 7.62465 12.1065 7.62185 12.493V13.0897C7.62465 13.4734 7.93837 13.7844 8.32213 13.7816H8.80672C8.83753 13.9188 8.88235 14.0869 8.94678 14.2437L8.55462 14.6331C8.28011 14.902 8.27731 15.3418 8.54902 15.6163L8.55462 15.6219L8.9916 16.0561C9.12605 16.1877 9.30252 16.2605 9.4902 16.2605H9.493C9.68067 16.2605 9.85714 16.1877 9.9888 16.0561L10.3838 15.6639C10.5266 15.7199 10.6835 15.7703 10.8459 15.8068V16.2886C10.8487 16.6723 11.1597 16.9832 11.5434 16.9804H12.1401C12.5238 16.9804 12.8347 16.6723 12.8375 16.2886V15.8068C13 15.7703 13.1513 15.7227 13.2997 15.6611L13.6947 16.0561C13.9692 16.3278 14.4174 16.3278 14.6919 16.0561L15.1289 15.6219C15.4034 15.3502 15.4034 14.9104 15.1317 14.6359L15.1289 14.6331L14.7367 14.2409C14.7927 14.0981 14.8431 13.9468 14.8796 13.7816H15.3641C15.7479 13.7816 16.0616 13.4734 16.0616 13.0897ZM11.8431 10.9636C12.9944 10.9636 13.6835 11.6471 13.6835 12.79C13.6835 13.9356 12.9972 14.6163 11.8431 14.6163C10.6891 14.6163 10.0028 13.9328 10.0028 12.79C10.0028 11.6471 10.6919 10.9636 11.8431 10.9636Z" fill="#313235"/>
</svg>
