<svg width="24" height="24" fill="none" xmlns="http://www.w3.org/2000/svg"><path fill-rule="evenodd" clip-rule="evenodd" d="M21.686 5.903c0-.759-.641-1.378-1.428-1.378H3.428c-.79 0-1.428.62-1.428 1.378v12.012c0 .759.639 1.375 1.429 1.375h16.829c.787 0 1.428-.62 1.428-1.378V5.903Zm-16.496.83a.545.545 0 0 0-.554-.538h-.003a.55.55 0 0 0-.56.535v.003c0 .296.25.537.557.537.311 0 .56-.24.56-.537Zm15.292 11.179c0 .12-.101.216-.224.216H3.428a.221.221 0 0 1-.224-.216V8.248h17.278v9.664Zm-5.062-5.588c.387 0 .698.3.698.672v.585c0 .37-.311.673-.698.673h-.501c-.04.165-.09.319-.152.465l.407.392c.266.252.274.67.025.935l-.025.026-.446.428a.725.725 0 0 1-.994 0l-.406-.395a3.6 3.6 0 0 1-.485.149v.481c0 .37-.314.673-.697.673h-.608a.685.685 0 0 1-.698-.673v-.481a3.245 3.245 0 0 1-.484-.149l-.406.395a.742.742 0 0 1-.995 0l-.445-.431a.666.666 0 0 1-.02-.939l.02-.02.403-.386a3.058 3.058 0 0 1-.148-.47h-.502a.685.685 0 0 1-.697-.673v-.585c0-.37.31-.672.697-.672h.502c.033-.138.08-.309.148-.471l-.403-.39a.654.654 0 0 1-.205-.478c0-.185.073-.356.208-.482l.442-.429a.742.742 0 0 1 .995 0l.406.392c.151-.058.313-.106.484-.145v-.482c0-.37.314-.672.698-.672h.608c.386 0 .697.302.697.672v.482c.171.039.328.084.485.148l.406-.395a.72.72 0 0 1 .994 0l.446.429c.263.252.274.67.022.935l-.008.01c-.005.004-.009.01-.014.013l-.41.392c.062.146.113.303.152.468.003.003.504.003.504.003Zm-3.577 2.56c1.053 0 1.658-.583 1.658-1.597s-.605-1.594-1.658-1.594-1.658.58-1.658 1.594c0 1.014.605 1.597 1.658 1.597Zm-5.532-8.69a.548.548 0 0 1 .557.539.548.548 0 0 1-.56.537.548.548 0 0 1-.557-.537.548.548 0 0 1 .557-.538h.003Zm2.235.539a.548.548 0 0 0-.557-.538.55.55 0 0 0-.56.535v.003c0 .296.249.537.557.537a.548.548 0 0 0 .56-.537Z" fill="#313235"/></svg>