<svg width="24" height="24" viewBox="0 0 24 24" fill="none" xmlns="http://www.w3.org/2000/svg">
<path fill-rule="evenodd" clip-rule="evenodd" d="M8.77872 9.4412C8.77592 9.30955 8.82914 9.1779 8.92438 9.07986C9.03362 8.96781 9.18208 8.91459 9.33334 8.9286L10.7059 8.9258C10.7339 8.85857 10.7507 8.78294 10.7507 8.70451V6.68491C10.7507 5.28996 9.9832 4.51965 8.58545 4.51965H4.1821C2.76474 4.51965 2.01685 5.26755 2.01685 6.68491V14.895C2.01685 15.6148 2.19892 16.1443 2.57147 16.514C2.94121 16.8809 3.46782 17.0574 4.1821 17.0574H8.58545C9.42578 17.0574 10.0084 16.8109 10.3726 16.3067C10.479 16.1583 10.5014 15.9734 10.451 15.8109L8.84035 14.612C8.7311 14.5308 8.66948 14.4104 8.66948 14.2815C8.66948 14.1527 8.7311 14.0322 8.84035 13.951L10.028 13.0602L10.0308 12.9594C10.0644 12.9706 10.1008 12.9762 10.1345 12.979L10.7395 12.5252L10.7395 12.5252C10.7451 12.4916 10.7507 12.458 10.7507 12.4216V11.0939L9.29413 11.0883C9.14567 11.0967 9.00001 11.035 8.89917 10.9202C8.80673 10.8165 8.76192 10.6765 8.77312 10.5364L8.77872 9.4412ZM6.77873 15.3207C6.6947 15.4076 6.56865 15.4496 6.41459 15.4496C6.26053 15.4496 6.13448 15.4076 6.05044 15.3207C5.97201 15.2395 5.92719 15.1219 5.92719 14.9594C5.92719 14.6233 6.12047 14.4692 6.41459 14.4692C6.7115 14.4692 6.90198 14.6261 6.90198 14.9594C6.90198 15.1219 6.85996 15.2395 6.77873 15.3207ZM19.5014 7.25634C20.2156 7.25634 20.7423 7.43561 21.112 7.80255C21.4846 8.1723 21.6666 8.70171 21.6638 9.42159V17.6288C21.6638 19.0462 20.9159 19.7941 19.4986 19.7941H15.0952C13.6975 19.7941 12.93 19.0238 12.93 17.6288V15.3655L14.4258 15.3599C14.5742 15.3683 14.7199 15.3039 14.8207 15.1919C14.9131 15.0882 14.958 14.9482 14.9468 14.8081L14.944 13.7101C14.9468 13.5784 14.8935 13.4468 14.7983 13.3487C14.6919 13.2367 14.5434 13.1835 14.3893 13.1975L12.9328 13.1947V11.8277C12.9328 11.8207 12.9335 11.8137 12.9342 11.8067C12.9349 11.7997 12.9356 11.7927 12.9356 11.7857L13.6134 11.2815C13.6162 11.2843 13.619 11.2843 13.6218 11.2843V11.2787L14.8851 10.3376C14.9944 10.2563 15.056 10.1359 15.056 10.007C15.056 9.87817 14.9944 9.75773 14.8851 9.67649L13.1569 8.38238C13.1625 8.29555 13.1877 8.20591 13.2353 8.12468C13.5798 7.54765 14.2073 7.25634 15.098 7.25634H19.5014ZM17.6638 18.0406C17.5798 18.1274 17.4538 18.1695 17.2997 18.1695C17.1456 18.1695 17.0196 18.1274 16.9356 18.0406C16.8571 17.9594 16.8123 17.8417 16.8123 17.6793C16.8123 17.3431 17.0056 17.1891 17.2997 17.1891C17.5966 17.1891 17.7871 17.3459 17.7871 17.6793C17.7871 17.8417 17.7451 17.9622 17.6638 18.0406ZM9.49861 10.5392L12.3557 10.5476C12.4258 10.5476 12.4818 10.6065 12.4846 10.6737L12.493 11.2647C12.493 11.3348 12.5406 11.3572 12.5966 11.3151L14.2717 10.0686C14.3277 10.0266 14.3277 9.95941 14.2717 9.91739L12.6078 8.6709C12.5518 8.62888 12.507 8.65129 12.5098 8.72132L12.5182 9.35717C12.5182 9.4272 12.4622 9.48322 12.395 9.48322L9.52382 9.48602C9.41737 9.46921 9.33614 9.56165 9.33894 9.64848L9.33614 10.3516C9.32214 10.4692 9.40897 10.5476 9.49861 10.5392ZM14.2269 14.8137L11.3697 14.8221C11.2997 14.8221 11.2437 14.881 11.2409 14.9482L11.2325 15.5392C11.2325 15.6092 11.1849 15.6317 11.1289 15.5896L9.45379 14.3431C9.39777 14.3011 9.39777 14.2339 9.45379 14.1919L11.1176 12.9454C11.1737 12.9034 11.2185 12.9258 11.2157 12.9958L11.2073 13.6317C11.2073 13.7017 11.2633 13.7577 11.3305 13.7577L14.2017 13.7605C14.3081 13.7437 14.3893 13.8361 14.3865 13.923L14.3893 14.6261C14.4033 14.7409 14.3137 14.8193 14.2269 14.8137Z" fill="#313235"/>
</svg>
