<svg xmlns="http://www.w3.org/2000/svg" width="24" height="24" fill="none"><path fill="#0B2739" d="M2.172 11.998c0-6.72 3.594-9.823 9.826-9.823 6.23 0 9.827 3.103 9.827 9.823s-3.594 9.827-9.827 9.827c-6.232 0-9.826-3.107-9.826-9.827m8.431.608q.052-.284.053-.608c0-.213-.016-.412-.064-.596l2.647-1.325q.08.107.174.204c.42.431 1.033.658 1.776.658.742 0 1.355-.226 1.776-.658.414-.423.624-1.011.624-1.75 0-.77-.227-1.379-.675-1.805-.415-.394-1.014-.605-1.723-.605-.708 0-1.305.21-1.722.605-.448.426-.675 1.034-.675 1.804q.001.264.036.502l-2.692 1.344a2 2 0 0 0-.165-.179c-.415-.395-1.014-.605-1.723-.605-.708 0-1.305.21-1.722.605-.449.426-.675 1.034-.675 1.804 0 .737.21 1.328.624 1.75.42.432 1.034.659 1.776.659s1.356-.227 1.776-.658q.06-.06.11-.124l2.694 1.348a3 3 0 0 0-.037.495c0 .737.21 1.328.625 1.751.42.432 1.034.659 1.776.659s1.356-.227 1.776-.659c.415-.423.625-1.011.625-1.75 0-.77-.227-1.379-.675-1.804-.415-.395-1.014-.605-1.723-.605s-1.305.21-1.723.605c-.084.078-.16.168-.23.26z"/></svg>