<svg xmlns="http://www.w3.org/2000/svg" width="24" height="24" fill="none"><path fill="#000" d="M7.666 3.662c-1.073.731-1.925 1.311-3.527 1.053a.62.62 0 0 0-.524.11.64.64 0 0 0-.232.49v.03c0 .36-.004 3.194.132 5.855h7.874V2.155c-1.7.143-2.77.86-3.723 1.507M20.61 5.348v-.03q-.005-.037-.006-.079a.636.636 0 0 0-.725-.53c-1.62.256-2.477-.316-3.552-1.047-.953-.647-2.023-1.364-3.723-1.507v9.048h7.877c.132-2.66.13-5.492.129-5.855M12.604 21.84v-9.395h7.804c-.062.891-.14 1.715-.246 2.345v.003c-.558 3.271-6.014 6.263-7.558 7.047M3.59 12.444c.065.893.143 1.717.252 2.347.555 3.274 6.006 6.266 7.55 7.047v-9.394z"/></svg>