<svg width="24" height="24" viewBox="0 0 24 24" fill="none" xmlns="http://www.w3.org/2000/svg">
<path fill-rule="evenodd" clip-rule="evenodd" d="M21.6861 10.6695C21.6861 10.2269 21.5012 9.80391 21.1735 9.47057C21.0419 9.26329 20.6917 7.99439 20.5237 7.38374C20.5102 7.3348 20.497 7.28687 20.4841 7.24024C20.4118 6.97729 20.3508 6.7555 20.308 6.62464L19.0475 2.62185C18.927 2.2493 18.5853 2 18.1903 2H18.1875L5.49007 2.03641C5.10352 2.03922 4.76178 2.28571 4.63853 2.65546C4.48966 3.12851 4.28108 3.80124 4.05163 4.54129C4.01342 4.66452 3.97464 4.78961 3.93545 4.91596C3.87959 5.09592 3.82169 5.28252 3.76264 5.47285C3.23251 7.18151 2.6091 9.19079 2.52089 9.39494C2.47796 9.49596 2.42137 9.58559 2.36549 9.67409C2.35939 9.68376 2.35329 9.69341 2.34722 9.70307C2.19316 9.94396 2.00269 10.2437 2.00269 10.6695C2.00269 11.8683 3.32201 12.8095 5.00548 12.8095C5.90184 12.8095 6.73377 12.535 7.29399 12.0644C7.85982 12.5378 8.68615 12.8095 9.5825 12.8095C10.1007 12.8095 10.6133 12.7171 11.0587 12.5378C11.3612 12.4173 11.6329 12.2605 11.857 12.0756C12.42 12.5378 13.2436 12.8095 14.1315 12.8095C15.0223 12.8095 15.8486 12.5378 16.4088 12.0756C16.9718 12.5378 17.7954 12.8095 18.6833 12.8095C20.3668 12.8095 21.6861 11.8683 21.6861 10.6695ZM18.6805 13.6302C17.8542 13.6302 17.0559 13.4285 16.406 13.0644C15.759 13.4285 14.9606 13.6302 14.1315 13.6302C13.3024 13.6302 12.5041 13.4285 11.8542 13.0644C11.7001 13.1512 11.5349 13.2297 11.3612 13.2997C10.815 13.5154 10.2015 13.6302 9.5797 13.6302C8.74497 13.6302 7.94105 13.4229 7.29119 13.056C6.64133 13.4257 5.83741 13.6302 5.00268 13.6302C4.35562 13.6302 3.75898 13.5014 3.22957 13.2885V20.0756C3.22957 20.9635 3.90744 21.6862 4.74498 21.6862H9.23797V16.042C9.23797 15.3613 9.72816 14.8095 10.336 14.8095H13.3724C13.9775 14.8095 14.4704 15.3613 14.4704 16.042V21.6862H18.9382C19.773 21.6862 20.4536 20.9635 20.4536 20.0756V13.2885C19.9242 13.4986 19.3276 13.6302 18.6805 13.6302Z" fill="#313235"/>
</svg>
