<svg width="24" height="24" viewBox="0 0 24 24" fill="none" xmlns="http://www.w3.org/2000/svg">
<path fill-rule="evenodd" clip-rule="evenodd" d="M21.5517 6.8486C21.4453 6.71135 21.2828 6.63292 21.1092 6.63292H7.056C6.82631 5.34441 6.65544 4.13153 6.65264 4.10352C6.43415 2.88503 5.2857 2.00269 3.91596 2.00269H2.56022C2.2521 2.00269 2 2.25479 2 2.56291C2 2.87103 2.2521 3.12313 2.56022 3.12313H3.91596C4.72828 3.12313 5.42856 3.63013 5.549 4.29959C5.77869 5.5853 7.056 13.0082 7.18485 13.8346C7.34731 14.8598 7.72827 15.6637 8.3221 16.2239C8.88792 16.7589 9.63302 17.039 10.4705 17.039H16.4789C17.3081 17.039 18.0111 16.7561 18.5714 16.1987C19.1008 15.6693 19.4565 14.9046 19.7534 13.8906C19.8851 13.4396 21.4817 7.94944 21.6554 7.33319C21.7002 7.16233 21.661 6.98306 21.5517 6.8486ZM10.4705 21.6833C9.96915 21.6833 9.56859 21.5404 9.27728 21.2603C8.97196 20.9662 8.8179 20.5544 8.8179 20.0306C8.8179 19.5068 8.97196 19.095 9.27728 18.8009C9.56859 18.5208 9.97195 18.378 10.4705 18.378C10.9691 18.378 11.3725 18.5208 11.6638 18.8009C11.9691 19.095 12.1232 19.5068 12.1232 20.0306C12.1232 20.5544 11.9691 20.9662 11.6638 21.2603C11.3725 21.5404 10.9719 21.6833 10.4705 21.6833ZM14.7394 21.2603C15.0308 21.5404 15.4313 21.6833 15.9327 21.6833C16.4341 21.6833 16.8347 21.5404 17.126 21.2603C17.4313 20.9662 17.5854 20.5544 17.5854 20.0306C17.5854 19.5068 17.4285 19.095 17.126 18.8009C16.8347 18.5208 16.4313 18.378 15.9327 18.378C15.4341 18.378 15.0308 18.5208 14.7394 18.8009C14.4341 19.095 14.2801 19.5068 14.2801 20.0306C14.2801 20.5544 14.4341 20.9662 14.7394 21.2603Z" fill="#313235"/>
</svg>
