<svg width="24" height="24" viewBox="0 0 24 24" fill="none" xmlns="http://www.w3.org/2000/svg">
<path fill-rule="evenodd" clip-rule="evenodd" d="M20.6554 11.1708C21.2745 11.4089 21.7142 12 21.7142 12.6946C21.7142 13.1708 21.5069 13.5938 21.1652 13.8963C21.1596 13.9019 21.1568 13.9075 21.1568 13.9159L21.1624 16.4565C21.1624 18.8375 18.7899 20.7423 16.4509 21.1344C16.2745 21.4733 15.9243 21.7142 15.5126 21.7142C15.1428 21.7142 14.8291 21.5126 14.6386 21.224C14.6358 21.2156 14.6246 21.2128 14.6162 21.2128H9.0588C9.04759 21.2128 9.03919 21.2156 9.03359 21.224C8.84591 21.5126 8.53219 21.7142 8.15964 21.7142C7.74507 21.7142 7.39213 21.4705 7.21846 21.126C4.89634 20.7142 2.56021 18.8207 2.56021 16.4565V13.9103C2.56021 13.9019 2.55741 13.8963 2.55181 13.8907C2.15405 13.5238 1.93556 12.972 2.05601 12.3669C2.21287 11.5854 2.96637 11.0616 3.76749 11.0616H3.81231V5.17366C3.81231 3.65265 4.88233 2.2549 6.40334 2.05321C7.99437 1.84313 9.40333 2.90755 9.71986 4.37534C9.72266 4.38374 9.73106 4.39215 9.73947 4.39495C10.6218 4.64425 11.2745 5.44256 11.2745 6.39494V6.62183C11.2745 7.08682 10.8907 7.46777 10.4201 7.46777H7.91314C7.44255 7.46777 7.0588 7.08962 7.0588 6.62183V6.39494C7.0588 5.50139 7.63303 4.74228 8.43135 4.44537C8.44815 4.43976 8.45656 4.42296 8.45095 4.40615C8.15404 3.59103 7.26608 3.05882 6.31931 3.32212C5.5518 3.535 5.0588 4.2857 5.0588 5.07562V11.028C5.0588 11.0448 5.07281 11.0588 5.08962 11.0588H11.6834C11.6974 11.0588 11.7115 11.0448 11.7115 11.0308C11.7535 10.4622 12.0056 10.112 12.2297 9.92155C12.5322 9.66384 12.8963 9.563 13.1988 9.52939C13.3445 9.14284 13.5826 8.90754 13.7843 8.76469C14.2409 8.44816 14.7815 8.42015 15.126 8.45096C15.689 7.99718 16.2296 7.93275 16.5882 7.96077C17.2913 8.01959 17.8235 8.45376 18.1148 8.75908C18.1204 8.76469 18.126 8.76749 18.1344 8.76749C18.8515 8.74788 19.4537 8.94956 19.9047 9.35572C20.6582 10.0364 20.6694 11.0112 20.6666 11.1204C20.6666 11.1305 20.6636 11.1406 20.6606 11.1507C20.6585 11.1574 20.6565 11.1641 20.6554 11.1708ZM8.3165 6.24088C8.39213 5.84312 8.74507 5.5378 9.17084 5.5378C9.59381 5.5378 9.94955 5.84312 10.0224 6.24088H8.3165ZM13.5994 10.7507C13.4818 10.7311 13.1736 10.7395 13.0364 10.8571C13.0168 10.8739 12.9663 10.9243 12.9439 11.056H19.4201C19.4089 10.9159 19.3529 10.5126 19.0616 10.2549C18.8151 10.0392 18.4313 9.95516 17.9131 10.0084C17.689 10.0336 17.4705 9.93555 17.3417 9.75068C17.238 9.60502 16.8711 9.21286 16.4817 9.18205C16.4005 9.17085 16.14 9.15684 15.7675 9.52939C15.6134 9.68625 15.3865 9.74508 15.1764 9.69466C15.0672 9.67225 14.7002 9.62743 14.4986 9.77029C14.4593 9.7983 14.3417 9.88233 14.3109 10.2017C14.2941 10.3697 14.2072 10.5238 14.0728 10.6274C13.9411 10.7339 13.7703 10.7759 13.5994 10.7507ZM20.0644 12.0784H3.67785C3.45377 12.0784 3.14004 12.3417 3.14004 12.6666C3.14004 12.9916 3.45377 13.2549 3.67785 13.2549H20.0644C20.2885 13.2549 20.633 12.9916 20.633 12.6666C20.633 12.3417 20.2885 12.0784 20.0644 12.0784Z" fill="#313235"/>
</svg>
