<svg width="24" height="24" viewBox="0 0 24 24" fill="none" xmlns="http://www.w3.org/2000/svg">
<path fill-rule="evenodd" clip-rule="evenodd" d="M21.7297 10.324C21.9426 9.81423 21.8305 9.2456 21.4384 8.84504L15.3207 2.57334C14.7717 2.00752 13.7353 2.01032 13.1835 2.57334L7.10788 8.79742H4.71852C3.8922 8.79742 3.27035 9.02151 2.81657 9.48369C2.36839 9.94028 2.1499 10.5621 2.1499 11.3828V19.2512C2.1499 20.0915 2.37119 20.719 2.82217 21.1699C3.27035 21.6153 3.8922 21.8338 4.72133 21.8338H8.63448C9.46361 21.8338 10.0855 21.6181 10.5308 21.1699C10.9874 20.719 11.2059 20.0915 11.2059 19.2512V17.9431H18.6569C19.4636 17.9431 20.1191 17.3128 20.1191 16.5397V11.2064H20.3684C20.9594 11.2148 21.4972 10.8646 21.7297 10.324ZM9.99302 19.2512V11.3828C9.99302 10.8899 9.88938 10.5453 9.6793 10.3324C9.46922 10.1195 9.12748 10.0159 8.63448 10.0159H4.72133C4.23673 10.0159 3.895 10.1223 3.67931 10.3408C3.46643 10.5565 3.36279 10.8983 3.36279 11.38V19.2484C3.36279 19.747 3.46643 20.0915 3.67651 20.3016C3.88659 20.5117 4.22833 20.6125 4.72133 20.6125H8.63448C9.12748 20.6125 9.46922 20.5117 9.6765 20.3016C9.88938 20.0943 9.99302 19.7498 9.99302 19.2512ZM6.6765 18.4389C6.26194 18.4389 6.01264 18.691 6.01264 19.1083C6.01264 19.3128 6.06866 19.4753 6.18351 19.5957C6.30115 19.7162 6.46922 19.7778 6.6737 19.7778C6.87818 19.7778 7.04905 19.7134 7.1639 19.5957C7.27874 19.4781 7.33757 19.3128 7.33757 19.1083C7.34037 18.6882 7.09387 18.4389 6.6765 18.4389ZM14.4524 12.2288H14.3908C13.9062 12.2316 13.416 12.5481 13.416 13.2428C13.416 13.9375 13.909 14.254 14.4636 14.2596C14.9482 14.2484 15.4356 13.9319 15.4356 13.2456C15.4356 12.5593 14.9454 12.2428 14.4524 12.2288ZM10.6289 8.88145C10.6821 8.82263 11.9762 7.41647 14.388 7.39126C14.4636 7.38566 16.7101 7.27081 18.2227 8.97389C18.374 9.14196 18.3572 9.39686 18.1919 9.54812L18.1891 9.55092C18.0238 9.69938 17.7689 9.68537 17.6205 9.51731C16.3959 8.14135 14.5008 8.2037 14.4213 8.20631L14.4188 8.20639C12.3516 8.22879 11.2731 9.38005 11.2283 9.43047L11.2255 9.43327C11.0743 9.59574 10.8194 9.60694 10.6569 9.45568C10.4916 9.30442 10.4776 9.04672 10.6289 8.88145ZM14.3936 9.0019C12.5957 9.02123 11.533 10.1597 11.4605 10.2373L11.458 10.24C11.3095 10.4081 11.3236 10.6658 11.4944 10.8142C11.5673 10.8786 11.6625 10.9151 11.7605 10.9151C11.8754 10.9151 11.9846 10.8674 12.0602 10.7834L12.0614 10.7822C12.0976 10.7442 12.9696 9.828 14.416 9.81423C14.4356 9.80302 15.8978 9.761 16.7913 10.7666C16.9398 10.9319 17.1975 10.9487 17.3628 10.7974C17.528 10.6462 17.5448 10.3913 17.3936 10.2232C16.2806 8.97148 14.565 8.99917 14.4037 9.00177L14.3936 9.0019ZM12.4385 11.4807C12.4714 11.4449 13.1881 10.6629 14.4048 10.649C14.4356 10.6462 15.6401 10.6041 16.4188 11.4725C16.5672 11.6406 16.5504 11.8955 16.3852 12.0467C16.2199 12.1924 15.9622 12.1812 15.8137 12.0131C15.3011 11.4389 14.4356 11.4501 14.4272 11.4613C13.909 11.4641 13.4132 11.6658 13.0406 12.0271C12.8894 12.1924 12.6317 12.2064 12.4664 12.0551C12.3011 11.9039 12.2871 11.6462 12.4384 11.4809L12.4385 11.4807Z" fill="#313235"/>
</svg>
