<svg xmlns="http://www.w3.org/2000/svg" width="24" height="24" fill="none"><path fill="#313235" d="M21.841 12c0-6.705-3.628-9.845-9.846-9.845s-9.84 3.14-9.84 9.846c0 6.706 3.622 9.84 9.84 9.84 6.219 0 9.846-3.134 9.846-9.84ZM5.928 16.05c2.333-2.614 6.003-2.485 6.157-2.48 3.714.04 5.893 2.412 5.986 2.513a.613.613 0 0 1-.457 1.025.61.61 0 0 1-.457-.201l-.002-.003c-.081-.085-1.978-2.073-5.101-2.107h-.029c-.328.001-3.33.004-5.178 2.07a.613.613 0 0 1-.869.05.613.613 0 0 1-.05-.867Zm3.084-5.502c-.356 0-.653-.112-.86-.322-.202-.207-.305-.493-.305-.846 0-.723.445-1.17 1.165-1.17.717 0 1.165.447 1.165 1.17 0 .353-.104.639-.305.846-.207.21-.504.322-.86.322Zm6.832-.322c-.207.21-.504.322-.86.322-.359 0-.656-.112-.857-.322-.202-.207-.306-.493-.306-.846 0-.723.446-1.17 1.166-1.17.717 0 1.165.447 1.165 1.17 0 .353-.104.639-.308.846Z"/></svg>