<svg width="24" height="24" viewBox="0 0 24 24" fill="none" xmlns="http://www.w3.org/2000/svg">
<path fill-rule="evenodd" clip-rule="evenodd" d="M21.8363 6.12403C21.8363 4.38453 20.3685 2.96997 18.5645 2.96997H5.42452C3.6178 2.96997 2.15002 4.38453 2.15002 6.12403V14.8887C2.13881 16.2108 2.96234 17.3957 4.20323 17.8439V19.5302C4.20323 20.3341 4.92032 21.0148 5.77186 21.0148C6.43292 21.0148 6.84188 20.6618 7.06317 20.3761L8.95112 18.0428H18.5645C20.3685 18.0428 21.8363 16.6282 21.8363 14.8887V6.12403ZM5.86709 9.082C5.86709 9.52178 6.15281 9.67584 6.85029 9.94475L6.85097 9.94501C7.53999 10.2111 8.48334 10.5754 8.48334 11.7795C8.48334 12.8439 7.73264 13.4545 6.42732 13.4545C5.8699 13.4545 5.32088 13.3425 5.02116 13.2333C4.83628 13.1688 4.72704 12.9728 4.77466 12.7795L4.82788 12.5694C4.85589 12.4629 4.92592 12.3733 5.02116 12.3229C5.1192 12.2669 5.23404 12.2557 5.34049 12.2893C5.69623 12.3985 6.05757 12.4545 6.42172 12.4545C6.8867 12.4545 7.11639 12.3677 7.22564 12.2949C7.32928 12.2305 7.44692 12.0876 7.44692 11.7879C7.44692 11.3089 7.15281 11.1492 6.43012 10.8691L6.42511 10.8672C5.75606 10.6068 4.83909 10.25 4.83909 9.11282C4.83909 8.62262 5.01275 8.21366 5.34329 7.93355C5.8923 7.46296 6.87269 7.38733 7.93152 7.68705C8.136 7.74027 8.25925 7.94755 8.20883 8.15203L8.15561 8.35651C8.12759 8.46016 8.05757 8.54699 7.96513 8.60021C7.86989 8.65343 7.75785 8.66744 7.65421 8.63663C7.42171 8.5694 7.136 8.50497 6.77185 8.50497C5.86709 8.50497 5.86709 8.89433 5.86709 9.082ZM14.1836 7.60301H13.9735C13.8251 7.60301 13.6906 7.68145 13.6178 7.8103L11.9875 10.7963L10.3993 7.8103C10.3293 7.67864 10.192 7.60021 10.0436 7.60021H9.81667C9.59538 7.60021 9.41611 7.77388 9.41611 7.98957V12.9615C9.41611 13.1744 9.59538 13.3509 9.81667 13.3509H10.0296C10.2508 13.3509 10.4301 13.1772 10.4301 12.9615V10.0176L11.5057 12.0428C11.5758 12.1744 11.713 12.2529 11.8615 12.2529H12.0884C12.2368 12.2529 12.3713 12.1744 12.4441 12.0456L13.573 9.97836V12.9615C13.573 13.1772 13.7522 13.3509 13.9735 13.3509H14.1836C14.4049 13.3509 14.5842 13.1772 14.5842 12.9615V7.99237C14.5814 7.77388 14.4021 7.60021 14.1836 7.60301ZM16.6066 9.082C16.6066 9.52178 16.8895 9.67584 17.587 9.94475L17.5876 9.94501C18.2767 10.2111 19.22 10.5754 19.22 11.7795C19.22 12.8439 18.4693 13.4545 17.164 13.4545C16.6066 13.4545 16.0576 13.3425 15.7578 13.2333C15.573 13.1688 15.4637 12.9728 15.5113 12.7795L15.5646 12.5694C15.5926 12.4629 15.6626 12.3733 15.7578 12.3229C15.8559 12.2669 15.9707 12.2557 16.0772 12.2893C16.4329 12.3985 16.797 12.4545 17.1584 12.4545C17.6234 12.4545 17.8531 12.3677 17.9623 12.2949C18.0688 12.2305 18.1864 12.0876 18.1864 11.7879C18.1864 11.3089 17.8923 11.1492 17.1696 10.8691L17.1646 10.8672C16.4955 10.6068 15.5786 10.25 15.5786 9.11282C15.5786 8.62262 15.7522 8.21366 16.0828 7.93355C16.6318 7.46296 17.6122 7.38733 18.671 7.68705C18.8755 7.74027 18.9987 7.94755 18.9483 8.15203L18.8951 8.35651C18.8699 8.46016 18.7998 8.54699 18.7074 8.60021C18.6122 8.65343 18.4973 8.66744 18.3937 8.63663C18.1612 8.5694 17.8755 8.50497 17.5113 8.50497C16.6066 8.50497 16.6066 8.89433 16.6066 9.082Z" fill="#313235"/>
</svg>
