<svg width="24" height="24" viewBox="0 0 24 24" fill="none" xmlns="http://www.w3.org/2000/svg">
<path fill-rule="evenodd" clip-rule="evenodd" d="M12.5994 2C14.2493 2.12605 15.7899 2.65546 17.1176 3.5042C15.8459 5.507 15.084 8.19888 14.9888 11.0672H12.5994V2ZM12.5994 12.5126V21.6751C14.3053 21.5518 15.8852 20.9916 17.2353 20.1064C15.9328 18.1401 15.126 15.4034 14.9888 12.5126H12.5994ZM16.4342 12.5126C16.5602 15.0868 17.2633 17.4958 18.381 19.2297C20.2689 17.5518 21.5126 15.1821 21.6863 12.5126H16.4342ZM16.4342 11.0672H21.6863C21.4734 8.38936 20.2017 6.01681 18.2745 4.36134C17.1961 6.11485 16.5294 8.54342 16.4342 11.0672ZM11.1541 11.0672H8.65826C8.56303 8.20728 7.80952 5.51821 6.54902 3.52381C7.89916 2.65826 9.46779 2.11765 11.1541 2.0028V11.0672ZM6.40336 20.0784C7.79272 20.9916 9.40896 21.5602 11.1541 21.6863V12.5126H8.64986C8.51541 15.4146 7.72269 18.0924 6.40336 20.0784ZM2 12.5126H7.20448C7.08123 15.056 6.37815 17.4566 5.26891 19.1905C3.40896 17.5154 2.18207 15.1541 2 12.5126ZM7.21289 11.0672C7.11765 8.52381 6.47059 6.15126 5.39216 4.38936C3.48459 6.03922 2.22129 8.39776 2.0112 11.0672H7.21289Z" fill="#313235"/>
</svg>
