<svg xmlns="http://www.w3.org/2000/svg" width="24" height="24" fill="none"><path fill="#000" d="M19.901 4.617a1.94 1.94 0 0 0-1.941 1.936c0 .468.174.894.454 1.227l-2.393 4a2 2 0 0 0-.448-.056c-.563 0-1.067.246-1.42.63l-4.129-1.81c.003-.053.017-.103.017-.16a1.94 1.94 0 0 0-3.882 0c0 .477.187.925.496 1.275L4.45 15.55a2 2 0 0 0-.358-.036 1.94 1.94 0 0 0-1.942 1.935 1.943 1.943 0 0 0 3.886 0c0-.493-.19-.935-.496-1.277l2.21-3.896c.115.022.232.044.35.044.563 0 1.067-.246 1.423-.63l4.126 1.807c-.003.053-.017.104-.017.16 0 1.07.869 1.94 1.938 1.94 1.07 0 1.942-.867 1.942-1.938v-.002c0-.457-.166-.871-.432-1.202l2.398-4.014c.134.03.275.05.42.05 1.07 0 1.936-.865 1.939-1.935A1.935 1.935 0 0 0 19.9 4.617"/></svg>