<svg width="24" height="24" viewBox="0 0 24 24" fill="none" xmlns="http://www.w3.org/2000/svg">
<path d="M11.4677 21.6863C10.5741 21.6863 9.72819 21.5238 8.96068 21.1877C8.37245 20.9272 7.93827 20.4258 7.66656 19.6947C7.44247 19.0869 7.38085 18.3866 7.49009 17.6107C7.58253 16.9608 7.4957 16.6023 7.23799 16.5378C7.09234 16.5014 6.97749 16.5603 6.77301 16.6695L6.64976 16.7367C5.98869 17.0757 5.56012 17.6919 5.10634 18.3418C5.0055 18.4874 4.90466 18.6331 4.79822 18.7787C4.06713 19.7871 3.27161 19.6247 2.73379 19.311C1.86545 18.8067 1.94388 17.9804 2.10914 17.6163C2.68898 16.0364 3.86545 14.7563 5.41166 14.0392C6.33883 13.6135 7.35004 13.4174 8.34163 13.4706C8.35004 13.4706 8.36124 13.4706 8.36965 13.4734C9.03351 13.4426 10.0951 13.5967 10.7926 13.7535C10.9831 13.8039 11.1484 13.8516 11.2996 13.8992C12.2184 13.93 12.4985 13.7563 12.5937 13.6527C12.745 13.4846 12.6918 13.1149 12.6358 12.7199C12.5881 12.3782 12.5321 11.9944 12.5965 11.6247C12.5909 11.493 12.6105 11.2577 12.647 11.0196C12.8038 9.84037 13.21 8.90479 13.8514 8.23532C13.7618 8.09807 13.6778 7.95801 13.5965 7.81236C12.7814 6.30535 12.5965 4.56866 13.0783 2.9244C13.266 2.38379 13.9243 1.74793 15.0083 2.11768C15.5461 2.30255 15.7814 2.61628 15.8822 2.84877C16.0643 3.26334 15.9439 3.65549 15.8991 3.77874C15.6498 4.6611 15.7506 5.58547 16.182 6.38378C16.3164 6.62748 16.4761 6.85437 16.6554 7.05045C17.0139 7.03364 17.3192 7.05885 17.5237 7.08406C17.6554 7.10367 17.7842 7.12608 17.8935 7.13448C19.9971 7.48182 22.0643 9.01123 21.6357 12.2773C21.5965 12.5743 21.5377 12.8712 21.4621 13.1513C21.4593 13.1625 21.4565 13.1709 21.4537 13.1821C21.0615 15.5659 19.7058 17.7591 17.6329 19.3642C15.6414 20.8796 13.4481 21.6863 11.4677 21.6863Z" fill="#313235"/>
</svg>
