<svg width="24" height="24" fill="none" xmlns="http://www.w3.org/2000/svg"><path d="M11.468 21.686c-.894 0-1.74-.162-2.507-.498-.589-.26-1.023-.762-1.294-1.493-.225-.608-.286-1.308-.177-2.084.093-.65.006-1.009-.252-1.073-.146-.037-.26.022-.465.131l-.123.068c-.661.339-1.09.955-1.544 1.605-.1.145-.201.291-.308.437-.73 1.008-1.526.846-2.064.532-.869-.504-.79-1.33-.625-1.695a6.342 6.342 0 0 1 3.303-3.577 6.245 6.245 0 0 1 2.958-.566c.664-.03 1.725.124 2.423.28.19.05.355.099.507.146.918.031 1.198-.143 1.294-.246.151-.168.098-.538.042-.933-.048-.342-.104-.726-.04-1.095a3.65 3.65 0 0 1 .051-.605c.157-1.18.563-2.115 1.204-2.785a7.105 7.105 0 0 1-.255-.423 6.42 6.42 0 0 1-.518-4.888c.188-.54.846-1.176 1.93-.806.538.185.773.498.874.73.182.415.062.807.017.93a3.466 3.466 0 0 0 .283 2.606c.134.243.294.47.473.666.359-.016.664.009.869.034.131.02.26.042.37.05 2.103.348 4.17 1.877 3.742 5.143-.04.297-.098.594-.174.874l-.008.031c-.393 2.384-1.748 4.577-3.821 6.182-1.992 1.516-4.185 2.322-6.165 2.322Z" fill="#313235"/></svg>