<svg xmlns="http://www.w3.org/2000/svg" width="24" height="24" fill="none" viewBox="0 0 24 24"><path fill="#000" d="M16.47 2.47a.75.75 0 0 1 1.06 0l4 4a.75.75 0 0 1-1.06 1.06L19 6.06 15.56 9.5l2.47 2.47a.75.75 0 0 1-1.06 1.06l-.647-.646-5.97 5.97A.5.5 0 0 1 10 18.5H6.558l-.028.03-3 3a.75.75 0 0 1-1.06-1.06l3-3 .03-.028V14a.5.5 0 0 1 .146-.353l.793-.793a.25.25 0 0 1 .354 0L8.47 14.53a.75.75 0 0 0 1.06-1.06l-1.677-1.677a.25.25 0 0 1 0-.353L9.44 9.854a.25.25 0 0 1 .354 0l1.677 1.676a.75.75 0 0 0 1.06-1.06l-1.677-1.677a.25.25 0 0 1 0-.353l.763-.763-.646-.647a.75.75 0 1 1 1.06-1.06l2.47 2.47L17.94 5l-1.47-1.47a.75.75 0 0 1 0-1.06"/></svg>