<svg xmlns="http://www.w3.org/2000/svg" width="24" height="24" fill="none"><path fill="#313235" d="M19.377 5.758s.005 8.507.005 12.434c0 3.426-2.675 3.644-3.358 3.644-.101 0-.157-.002-.157-.002s-3.757.002-7.715.002c-3.957 0-3.52-3.638-3.52-3.638V5.778c0-3.43 2.756-3.622 3.378-3.622.078 0 .123.002.123.002l7.75-.002c3.807-.003 3.494 3.602 3.494 3.602ZM6.704 3.73c-.218.134-.88.546-.88 2.042v11.157h12.37c0-4.238-.005-11.168-.005-11.168 0-.034.002-.068.005-.104v-.008s.062-1.014-.512-1.653c-.367-.406-.97-.613-1.793-.613l-7.75.002-.041-.001a.76.76 0 0 0-.04-.001h-.043c-.179-.003-.792.022-1.31.347Zm4.477 15.647c0 .25.07.45.212.597.146.145.356.224.608.224s.462-.079.608-.224c.143-.146.213-.348.213-.597 0-.513-.308-.82-.82-.82-.513 0-.822.307-.822.82Z"/></svg>