<svg width="24" height="24" fill="none" xmlns="http://www.w3.org/2000/svg"><path fill-rule="evenodd" clip-rule="evenodd" d="M2.15 14.986c0-6.314 3.403-9.653 9.84-9.653 6.443 0 9.846 3.34 9.846 9.653 0 1.42-.18 2.709-.53 3.83a.8.8 0 0 1-.036.086l-.02.042c-.1.202-.31.33-.54.33H3.268a.601.601 0 0 1-.577-.414c-.359-1.132-.541-2.434-.541-3.874Zm9.829-7.18a.597.597 0 0 0-.602.592v.8c0 .326.269.592.602.592.33 0 .602-.263.602-.591v-.801a.597.597 0 0 0-.602-.591ZM7.542 11.16a.61.61 0 0 0 .429-.174.58.58 0 0 0 0-.838l-.577-.565a.61.61 0 0 0-.855 0 .585.585 0 0 0 0 .837l.577.566a.61.61 0 0 0 .426.174Zm5.678 5.117 6.375-1.832a.59.59 0 0 0 .41-.736.602.602 0 0 0-.749-.4l-6.38 1.834a1.257 1.257 0 0 0-.883-.356c-.692 0-1.255.55-1.255 1.23 0 .68.56 1.232 1.255 1.232a1.25 1.25 0 0 0 1.227-.972ZM5.95 14.93h-.818a.597.597 0 0 1-.602-.591c0-.325.272-.591.602-.591h.818c.333 0 .602.266.602.591a.597.597 0 0 1-.602.591Zm10.03-4.779.578-.566a.61.61 0 0 1 .854 0 .585.585 0 0 1 0 .838l-.577.566a.609.609 0 0 1-.851 0 .583.583 0 0 1-.003-.838Z" fill="#313235"/></svg>