<svg xmlns="http://www.w3.org/2000/svg" width="24" height="24" fill="none"><path fill="#0B2739" d="M20.505 2.155c.74.003 1.336.602 1.341 1.339v.003h-.005v8.308c-.076.42-.28.804-.588 1.1l-8.328 8.27c-.275.327-.647.56-1.062.66a1.498 1.498 0 0 1-.274 0 1.13 1.13 0 0 1-.83-.33l-8.288-8.269a1.553 1.553 0 0 1 .291-2.157L11.1 2.752a2.13 2.13 0 0 1 1.061-.597zM15.82 5.71c-.32.277-.515.672-.546 1.092v.022c.034.432.235.835.563 1.118.291.325.697.521 1.135.546a1.605 1.605 0 0 0 1.117-.546c.32-.274.513-.664.538-1.084a1.655 1.655 0 0 0-.563-1.132 1.652 1.652 0 0 0-1.135-.554c-.428.02-.829.213-1.109.538"/></svg>