<svg xmlns="http://www.w3.org/2000/svg" width="24" height="24" fill="none"><path fill="#0B2739" d="M21.846 11.999c0-.336-.263-.6-.6-.6v-.002H19.71c-.297-6.222-5.384-7.126-7.104-7.247v-1.4a.598.598 0 1 0-1.199 0v1.375c-1.453.048-6.957.656-7.238 7.272H2.762a.598.598 0 1 0 0 1.199h1.415c.378 6.37 5.714 7.056 7.232 7.12v1.521c0 .336.264.6.6.6.327 0 .6-.264.6-.6v-1.535c1.68-.104 6.75-.944 7.094-7.104h1.544c.336 0 .6-.271.6-.599m-4.398.003c0 .327.272.6.6.6v.002h.454c-.32 4.983-4.207 5.798-5.897 5.902v-.465a.598.598 0 1 0-1.199 0v.479c-1.599-.073-5.686-.767-6.03-5.919h.585c.336 0 .6-.272.6-.6 0-.335-.264-.599-.6-.599h-.594c.258-5.375 4.48-6.025 6.04-6.064v.616c0 .336.263.6.599.6.328 0 .6-.264.6-.6v-.6c1.722.13 5.632.992 5.904 6.048h-.462c-.328 0-.6.264-.6.6m-3.386-2.193c0 .703-.193 1.24-.569 1.599q-.551.52-1.56.521c-.672 0-1.193-.177-1.552-.521-.375-.361-.568-.896-.568-1.6 0-.694.193-1.232.568-1.59q.544-.528 1.552-.527 1.009 0 1.56.526c.378.359.569.897.569 1.592m1.647 6.117v-.711c0-.67-.216-1.247-.619-1.664-.431-.454-1.078-.687-1.863-.687h-2.59c-.782 0-1.432.233-1.864.687-.4.417-.607.991-.607 1.664v.711c0 .126.112.238.24.238h7.054c.137 0 .249-.109.249-.238"/></svg>