<svg width="24" height="24" viewBox="0 0 24 24" fill="none" xmlns="http://www.w3.org/2000/svg">
<path fill-rule="evenodd" clip-rule="evenodd" d="M21.6864 11.874C21.6864 11.5379 21.4231 11.2746 21.0869 11.2746V11.2717H19.5491C19.2522 5.05047 14.1654 4.14571 12.4455 4.02526V2.62471C12.4455 2.29698 12.1738 2.02527 11.846 2.02527C11.5099 2.02527 11.2466 2.29698 11.2466 2.62471V4.00005C9.79283 4.04767 4.28864 4.65552 4.00853 11.2717H2.60237C2.27464 11.2717 2.00293 11.5351 2.00293 11.8712C2.00293 12.1989 2.27464 12.4706 2.60237 12.4706H4.01693C4.39508 18.8404 9.73121 19.5266 11.2494 19.5911V21.1121C11.2494 21.4482 11.5127 21.7115 11.8488 21.7115C12.1766 21.7115 12.4483 21.4482 12.4483 21.1121V19.5771C14.129 19.4734 19.199 18.6331 19.5435 12.4734H21.0869C21.4231 12.4734 21.6864 12.2017 21.6864 11.874ZM17.2886 11.8768C17.2886 12.2045 17.5603 12.4762 17.8881 12.4762V12.479H18.3418C18.0225 17.4622 14.1346 18.2773 12.4455 18.381V17.916C12.4455 17.5883 12.1738 17.3166 11.846 17.3166C11.5099 17.3166 11.2466 17.5883 11.2466 17.916V18.395C9.64717 18.3222 5.56035 17.6275 5.21581 12.4762H5.80124C6.13738 12.4762 6.40068 12.2045 6.40068 11.8768C6.40068 11.5407 6.13738 11.2774 5.80124 11.2774H5.20741C5.46511 5.90201 9.68639 5.25215 11.2466 5.21294V5.82918C11.2466 6.16532 11.5099 6.42862 11.846 6.42862C12.1738 6.42862 12.4455 6.16532 12.4455 5.82918V5.22974C14.1682 5.3586 18.0785 6.22134 18.3502 11.2774H17.8881C17.5603 11.2774 17.2886 11.5407 17.2886 11.8768ZM13.9021 9.68352C13.9021 10.3866 13.7088 10.9244 13.3334 11.283C12.9665 11.6275 12.4455 11.804 11.7732 11.804C11.101 11.804 10.5799 11.6275 10.2214 11.283C9.84605 10.9216 9.65277 10.3866 9.65277 9.68352C9.65277 8.98884 9.84605 8.45103 10.2214 8.09248C10.5827 7.73954 11.101 7.56587 11.7732 7.56587C12.4455 7.56587 12.9665 7.74234 13.3334 8.09248C13.7116 8.45103 13.9021 8.98884 13.9021 9.68352ZM15.5491 15.8012V15.0897C15.5491 14.4202 15.3334 13.8432 14.9301 13.4258C14.4987 12.972 13.8516 12.7395 13.0673 12.7395H10.4763C9.69479 12.7395 9.04493 12.972 8.61356 13.4258C8.213 13.8432 8.00572 14.4174 8.00572 15.0897V15.8012C8.00572 15.9272 8.11776 16.0392 8.24661 16.0392H15.2998C15.4371 16.0392 15.5491 15.93 15.5491 15.8012Z" fill="#313235"/>
</svg>
