<svg width="24" height="24" viewBox="0 0 24 24" fill="none" xmlns="http://www.w3.org/2000/svg">
<path fill-rule="evenodd" clip-rule="evenodd" d="M21.8418 8.45464V13.393C21.8418 14.5079 21.5756 15.3762 21.0546 15.9756C20.4916 16.6199 19.6513 16.9476 18.5504 16.9476H5.44121C4.34318 16.9476 3.50004 16.6199 2.93702 15.9784C2.41601 15.3762 2.1499 14.5079 2.1499 13.393V8.45464C2.1499 7.3398 2.41601 6.47145 2.93702 5.87201C3.50004 5.22776 4.34038 4.90002 5.44121 4.90002H18.5504C19.6485 4.90002 20.4916 5.22776 21.0546 5.87201C21.5756 6.47145 21.8418 7.3398 21.8418 8.45464ZM15.0014 19.1325H8.99303C8.68491 19.1325 8.43281 18.8804 8.43281 18.5723C8.43281 18.2642 8.68491 18.0121 8.99303 18.0121H15.0014C15.3095 18.0121 15.5616 18.2642 15.5616 18.5723C15.5616 18.8804 15.3095 19.1325 15.0014 19.1325ZM10.4412 12.5611C10.3208 12.6283 10.2255 12.7319 10.1723 12.858C10.1723 12.858 9.83897 13.7768 9.27034 14.0401C8.70171 14.3034 7.78855 13.9672 7.78855 13.9672C7.6737 13.9252 7.6709 13.8496 7.78015 13.7992L8.33197 13.5415C8.44961 13.4798 8.53645 13.3678 8.57286 13.2389L8.70171 12.6283C8.72412 12.5051 8.6653 12.379 8.55606 12.3146L8.00704 12.0205C7.88659 11.9644 7.74653 11.9588 7.62048 12.0093L7.06866 12.267C6.95942 12.3174 6.9062 12.267 6.94541 12.1549C6.94541 12.1549 7.27314 11.2361 7.84177 10.9728C8.4104 10.7095 9.32356 11.0457 9.32356 11.0457C9.45521 11.0849 9.59527 11.0793 9.72412 11.0289L13.5476 9.24736C13.6681 9.18293 13.7633 9.07929 13.8166 8.95324C13.8166 8.95324 14.1443 8.03447 14.7129 7.77117C15.2815 7.50786 16.1947 7.844 16.1947 7.844C16.3095 7.88321 16.3123 7.95884 16.2031 8.00926L15.6513 8.26697C15.5336 8.32859 15.4468 8.44064 15.4104 8.56949L15.2815 9.18013C15.2591 9.30338 15.318 9.42943 15.4272 9.49386L15.979 9.78797C16.0995 9.844 16.2395 9.8496 16.3656 9.79918L16.9174 9.54147C17.0266 9.49105 17.0799 9.54147 17.0406 9.65352C17.0406 9.65352 16.7101 10.5723 16.1443 10.8356C15.5757 11.0989 14.6625 10.7628 14.6625 10.7628C14.5308 10.7235 14.3908 10.7291 14.2619 10.7796L10.4412 12.5611Z" fill="#313235"/>
</svg>
