<svg xmlns="http://www.w3.org/2000/svg" width="24" height="24" fill="none"><path fill="#0B2739" d="M18.404 2.415a6.3 6.3 0 0 0-1.079.11c-.812.15-1.44.442-1.862.865-.426.426-.72 1.064-.872 1.89a6.3 6.3 0 0 0-.1 1.029.3.3 0 0 1-.023.056L6.362 14.47a.3.3 0 0 1-.056.022 6.3 6.3 0 0 0-1.056.107c-.816.151-1.44.443-1.863.865-.426.426-.72 1.065-.871 1.891q-.097.522-.101 1.053c-.003.202.05.398.151.572.168.28.47.45.796.45.187 0 .47-.055.74-.327l.669-.67.692.099.098.691-.667.67q-.169.166-.258.381a.936.936 0 0 0 .502 1.218c.142.062.297.093.45.09h.006a6.6 6.6 0 0 0 1.076-.106c.815-.152 1.44-.443 1.863-.866.425-.426.72-1.064.87-1.89q.093-.51.102-1.029a.3.3 0 0 1 .022-.056l8.106-8.106a.3.3 0 0 1 .056-.023 6.3 6.3 0 0 0 1.056-.106c.813-.151 1.44-.443 1.863-.866.426-.425.72-1.064.871-1.89q.097-.523.101-1.053a1.1 1.1 0 0 0-.154-.572.93.93 0 0 0-.795-.45c-.188 0-.471.055-.74.327l-.67.67-.691-.099-.098-.692.672-.67q.169-.164.258-.38a.937.937 0 0 0-.502-1.219 1.1 1.1 0 0 0-.45-.09z"/></svg>