<svg width="24" height="24" viewBox="0 0 24 24" fill="none" xmlns="http://www.w3.org/2000/svg">
<path d="M18.1388 2.15002C17.7746 2.15563 17.4161 2.19204 17.0604 2.25927C16.248 2.41053 15.6206 2.70184 15.1976 3.12481C14.7718 3.55058 14.4777 4.18924 14.3265 5.01557C14.2648 5.3545 14.2312 5.69904 14.2256 6.04358C14.22 6.06318 14.2116 6.08279 14.2032 6.0996L6.09678 14.206C6.07997 14.2144 6.06037 14.2228 6.04076 14.2284C5.68502 14.234 5.33208 14.2705 4.98474 14.3349C4.16961 14.4861 3.54496 14.7775 3.12199 15.2004C2.69623 15.6262 2.40211 16.2649 2.25085 17.0912C2.18642 17.4385 2.15281 17.7915 2.15001 18.1444C2.14721 18.3461 2.20043 18.5422 2.30127 18.7158C2.46933 18.9959 2.77186 19.1668 3.09678 19.1668C3.28446 19.1668 3.56737 19.1108 3.83628 18.8391L4.50575 18.1696L5.19762 18.2676L5.29566 18.9595L4.629 19.629C4.51695 19.7382 4.43012 19.8671 4.37129 20.0099C4.17521 20.4833 4.3993 21.0267 4.87269 21.2284C5.01555 21.2901 5.16961 21.3209 5.32367 21.3181H5.32927C5.69062 21.3125 6.05196 21.276 6.4049 21.2116C7.22003 21.0604 7.84468 20.769 8.26765 20.3461C8.69342 19.9203 8.98753 19.2817 9.13879 18.4553C9.20042 18.1164 9.23403 17.7719 9.23963 17.4273C9.24524 17.4077 9.25364 17.3881 9.26204 17.3713L17.3685 9.26486C17.3853 9.25646 17.4049 9.24805 17.4245 9.24245C17.7802 9.23685 18.1332 9.20043 18.4805 9.13601C19.2928 8.98475 19.9203 8.69343 20.3433 8.27046C20.769 7.84469 21.0631 7.20604 21.2144 6.37971C21.2788 6.03237 21.3124 5.67943 21.3152 5.32649C21.318 5.12481 21.2648 4.92873 21.1612 4.75506C20.9931 4.47495 20.6906 4.30408 20.3657 4.30408C20.178 4.30408 19.8951 4.36011 19.6262 4.63181L18.9567 5.30128L18.2648 5.20324L18.1668 4.51137L18.8391 3.8419C18.9511 3.73266 19.0379 3.6038 19.0968 3.46095C19.2928 2.98756 19.0688 2.44414 18.5954 2.24246C18.4525 2.18084 18.2984 2.15002 18.1444 2.15283L18.1388 2.15002V2.15002Z" fill="#313235"/>
</svg>
