<svg xmlns="http://www.w3.org/2000/svg" width="24" height="24" fill="none"><path fill="#0B2739" d="M18.404 2.415a6.314 6.314 0 0 0-1.079.11c-.812.15-1.44.442-1.862.865-.426.426-.72 1.064-.872 1.89a6.319 6.319 0 0 0-.1 1.029.334.334 0 0 1-.023.056L6.362 14.47a.334.334 0 0 1-.056.022 6.338 6.338 0 0 0-1.056.107c-.816.151-1.44.443-1.863.865-.426.426-.72 1.065-.871 1.891-.065.347-.098.7-.101 1.053-.003.202.05.398.151.572.168.28.47.45.796.45.187 0 .47-.055.74-.327l.669-.67.692.099.098.691-.667.67c-.112.11-.199.238-.258.381a.936.936 0 0 0 .502 1.218c.142.062.297.093.45.09h.006a6.563 6.563 0 0 0 1.076-.106c.815-.152 1.44-.443 1.863-.866.425-.426.72-1.064.87-1.89.062-.34.096-.684.102-1.029a.334.334 0 0 1 .022-.056l8.106-8.106a.334.334 0 0 1 .056-.023 6.336 6.336 0 0 0 1.056-.106c.813-.151 1.44-.443 1.863-.866.426-.425.72-1.064.871-1.89.065-.348.098-.7.101-1.053a1.082 1.082 0 0 0-.154-.572.929.929 0 0 0-.795-.45c-.188 0-.471.055-.74.327l-.67.67-.691-.099-.098-.692.672-.67c.112-.108.199-.237.258-.38a.937.937 0 0 0-.502-1.219 1.09 1.09 0 0 0-.45-.09z"/></svg>