<svg width="24" height="24" viewBox="0 0 24 24" fill="none" xmlns="http://www.w3.org/2000/svg">
<path fill-rule="evenodd" clip-rule="evenodd" d="M21.8362 9.89156C21.8362 9.7291 21.7465 9.58344 21.6037 9.51061C21.4608 9.44058 21.2899 9.45459 21.1611 9.55263C20.0939 10.3678 18.1499 10.2725 17.1583 9.89156C16.1975 9.52182 14.5841 8.09605 14.4104 6.9588C14.3852 6.79073 14.2619 6.65628 14.0967 6.61426C13.937 6.56664 13.7605 6.63387 13.6597 6.76832C13.6373 6.79633 13.2199 7.35935 12.6961 8.19409C11.9062 6.04283 11.007 4.79073 10.9566 4.72351C10.8642 4.59465 10.7073 4.53023 10.5533 4.55544C10.3992 4.57785 10.2704 4.68709 10.2199 4.83835C9.72414 6.33695 8.28716 7.11846 7.16952 7.50781C6.50846 7.73751 4.56728 7.88036 2.77737 6.84675C2.64852 6.77112 2.48886 6.77112 2.36001 6.84675C2.23115 6.92238 2.15272 7.05964 2.14992 7.2109C2.14992 7.2129 2.14992 7.2155 2.14992 7.21868C2.14965 7.45651 2.14567 10.9701 3.08269 13.4854C4.07989 16.1549 5.63171 17.4714 7.80257 17.4714C8.3796 17.4714 9.00425 17.3789 9.67092 17.1913C10.1975 17.0428 10.6793 16.8775 11.1163 16.6899C11.6569 17.5554 12.5253 18.2249 13.7942 18.7123C14.7577 19.0848 15.6233 19.3173 16.4132 19.3173C17.9902 19.3173 19.2619 18.3873 20.402 15.7683C21.8053 12.5498 21.8362 9.99801 21.8362 9.89156ZM12.5841 10.7655C13.4468 14.5498 12.2591 15.5918 9.44683 16.3789C6.69893 17.1436 4.97905 16.1633 3.86701 13.1885C3.21154 11.4294 3.04628 9.06243 3.00426 7.90837C4.78577 8.69549 6.6233 8.59465 7.44683 8.30893C8.96784 7.77672 10.0687 6.93919 10.6821 5.86076C11.1891 6.7291 12.0547 8.44619 12.5841 10.7655ZM9.17232 11.1157C8.55047 11.1157 8.27036 10.7515 8.18072 10.5946C8.03787 10.3481 7.93422 9.93918 8.25075 9.37896C8.84459 8.32854 9.64851 8.17168 10.0715 8.17168C10.5701 8.17168 10.951 8.37336 11.1051 8.4658C11.5421 8.70389 11.6625 9.06243 11.6933 9.25851C11.7774 9.76831 11.4692 10.1213 11.374 10.2165C11.346 10.2445 11.3152 10.2697 11.2844 10.2949L11.2844 10.2949L11.2844 10.2949L11.2844 10.2949L11.2844 10.2949L11.2844 10.2949L11.2844 10.2949C11.2367 10.3313 10.8054 10.6507 10.2816 10.8607C9.98744 10.9756 9.55887 11.1157 9.17232 11.1157ZM9.17232 10.2725C8.90901 10.2725 8.78016 10.1465 8.97904 9.79632C9.33198 9.17448 9.74094 9.01481 10.0687 9.01481C10.4188 9.01481 10.6793 9.19689 10.6793 9.19689C11.0267 9.37056 10.7774 9.61985 10.7774 9.61985C10.7774 9.61985 10.4048 9.90277 9.96783 10.0764C9.68772 10.1913 9.3852 10.2725 9.17232 10.2725ZM6.98745 11.8467C6.93423 11.8663 6.44403 12.0428 5.90061 12.1044C5.72414 12.1241 5.55328 12.1353 5.39361 12.1353C4.65412 12.1353 4.18633 11.8944 4.00706 11.421C3.92863 11.2193 3.81659 10.6983 4.40482 10.1661C4.90342 9.71789 5.43003 9.491 5.97064 9.491C6.57008 9.491 7.06028 9.78792 7.32358 10.0624C7.58689 10.3089 7.71574 10.6339 7.68212 10.9644C7.63731 11.379 7.34599 11.6703 7.08829 11.8047L6.98745 11.8467ZM5.80538 11.2641C5.66812 11.2809 5.52527 11.2893 5.39361 11.2893C4.90062 11.2893 4.55048 11.1633 4.96504 10.7935C5.3544 10.4434 5.69333 10.3341 5.97064 10.3341C6.44683 10.3341 6.73255 10.6647 6.73255 10.6647C7.00425 10.8916 6.69893 11.054 6.69893 11.054C6.69893 11.054 6.26476 11.2137 5.80538 11.2641ZM11.6765 11.8832C11.8222 11.9196 11.9398 12.0316 11.9818 12.1745C11.993 12.2081 12.2199 13.0204 11.7493 13.8663C11.3572 14.5722 10.6177 15.082 9.55327 15.3817C9.07148 15.5162 8.64291 15.575 8.26195 15.575C6.27378 15.575 5.62064 14.0225 5.60126 13.9764L5.6009 13.9756C5.54487 13.8355 5.57008 13.6787 5.65972 13.561C5.75216 13.4434 5.89781 13.379 6.04627 13.4014C9.49445 13.8523 11.2563 12.0232 11.2732 12.0036C11.3796 11.8916 11.5309 11.8495 11.6765 11.8832ZM11.0155 13.4574C11.0687 13.3649 11.1051 13.2725 11.1331 13.1829C10.3432 13.7039 8.93142 14.3818 6.92022 14.3145C7.35719 14.6423 8.11069 14.9056 9.32638 14.5694C10.1695 14.3341 10.7381 13.9588 11.0155 13.4574ZM19.7717 12.6927C19.9314 12.9336 19.9482 13.2025 19.8194 13.4378C19.6793 13.6899 19.3908 13.8607 19.0518 13.8916C19.0238 13.8944 18.9986 13.8944 18.9706 13.8944H18.9622C18.9174 13.8944 18.4972 13.886 18.0687 13.8019L18.0678 13.8017C17.717 13.7316 16.7913 13.5465 16.7493 12.8776C16.7409 12.7403 16.7661 12.2753 17.4804 12.0596C17.7577 11.9756 18.0266 11.9336 18.2787 11.9336C19.1135 11.9336 19.5953 12.3902 19.7717 12.6927ZM17.2115 17.5694C17.2283 17.5442 17.6065 16.9364 17.332 16.1913C17.1275 15.6282 16.6177 15.1521 15.8194 14.7767C14.8614 14.3229 14.0603 14.2977 13.4468 14.4546C13.2647 14.97 12.979 15.393 12.6065 15.7487C15.4076 15.9588 16.4524 17.4882 16.4944 17.5498C16.5589 17.6507 16.6737 17.7179 16.8054 17.7375C16.8222 17.7403 16.839 17.7431 16.8558 17.7431C17.0042 17.7431 17.1415 17.6787 17.2115 17.5694ZM13.6345 10.4826C13.5652 10.4806 13.5084 10.4884 13.4524 10.4962C13.4293 10.4994 13.4062 10.5025 13.3824 10.505C13.3843 10.5134 13.3864 10.5215 13.3886 10.5296C13.393 10.5458 13.3973 10.562 13.3992 10.5806C13.5561 11.2641 13.6401 11.8635 13.6737 12.4098C14.0995 12.6198 14.5224 12.7543 14.5729 12.7683C14.5981 12.7767 14.6429 12.7879 14.6709 12.7935C14.6709 12.7935 14.7493 12.8103 14.8642 12.8187C15.2031 12.8411 15.514 12.7459 15.7185 12.5638C15.8334 12.4602 16.0098 12.2389 15.937 11.8972C15.8754 11.4238 15.3824 10.589 13.8754 10.4938C13.8026 10.4854 13.7213 10.4826 13.6345 10.4826Z" fill="#313235"/>
</svg>
