<svg width="24" height="24" fill="none" xmlns="http://www.w3.org/2000/svg"><path d="M12.874 2.16h7.586c.773 0 1.397.627 1.397 1.4v7.589c-.002.773-.63 1.4-1.403 1.4a1.39 1.39 0 0 1-.989-.411l-.709-.712-6.22 6.224a1.401 1.401 0 0 1-1.981 0l-4.196-4.199a1.402 1.402 0 0 1 0-1.98L12.58 5.25l-.697-.698a1.401 1.401 0 0 1 .992-2.392ZM2.771 16.866a.56.56 0 0 1-.401-.952l2.294-2.35a.561.561 0 0 1 .801.784l-2.294 2.35a.55.55 0 0 1-.4.168Zm-.611 4.423a.56.56 0 0 0 .955.395l4.636-4.633a.561.561 0 0 0-.793-.793l-4.633 4.633a.562.562 0 0 0-.165.398Zm5.036.003a.56.56 0 0 0 .964.392l2.294-2.353.014-.014.004-.004.004-.005a.562.562 0 0 0-.826-.759L7.356 20.9a.555.555 0 0 0-.16.393Z" fill="#313235"/></svg>