<svg width="24" height="24" viewBox="0 0 24 24" fill="none" xmlns="http://www.w3.org/2000/svg">
<path fill-rule="evenodd" clip-rule="evenodd" d="M21.8462 13.062C21.8462 12.3897 21.6781 11.9023 21.4652 11.5578C21.6781 11.2245 21.8462 10.7707 21.849 10.1684C21.849 9.51017 21.5885 8.90513 21.1011 8.42054C21.2271 8.12642 21.3224 7.74267 21.3224 7.25247C21.3224 6.46536 20.9106 5.78468 20.1739 5.3225C20.2439 4.97516 20.2383 4.583 20.1627 4.12642C20.1543 4.09001 20.1459 4.05359 20.1319 4.01718C19.5689 2.49057 18.6669 2.16003 15.0563 2.16003C12.8157 2.16003 11.8556 2.43936 11.0878 2.66276L11.0731 2.66704L10.863 2.72586C10.5465 2.8211 10.2944 2.89113 10.1319 2.89113L7.32518 2.92754C7.27924 2.92754 7.23723 2.93931 7.19467 2.95124C7.17494 2.95676 7.1551 2.96232 7.1347 2.96676C6.8826 2.75667 6.56047 2.62502 6.20753 2.62502H3.61649C2.81257 2.62502 2.15991 3.27768 2.15991 4.0816V11.6782C2.15991 12.485 2.81257 13.1376 3.61649 13.1376H6.20193C6.53526 13.1376 6.84058 13.02 7.08708 12.8295C7.6361 13.1124 8.85459 13.8715 8.97224 15.104C9.08148 16.2273 9.06747 17.6306 9.04226 18.7427C9.04226 18.7497 9.04156 18.7567 9.04086 18.7637C9.04016 18.7707 9.03946 18.7777 9.03946 18.7847C9.03685 18.8789 9.02935 18.951 9.02152 19.0263L9.01986 19.0424L9.00025 19.2721C8.93302 20.2217 9.27476 20.8015 9.56888 21.1208C10.0115 21.597 10.6781 21.8491 11.496 21.8491C13.0619 21.8491 13.9946 20.8995 13.9946 19.3141L13.9918 19.2161L13.9862 19.0844C13.9862 17.8239 13.9834 16.2973 13.9806 15.471L16.0507 15.4093H19.4624C20.6669 15.3421 21.8462 14.5914 21.8462 13.062ZM20.2551 11.104C20.496 10.8827 20.6165 10.5662 20.6165 10.1656C20.6165 9.73426 20.3924 9.36171 19.9526 9.062C19.8098 8.96396 19.7145 8.80709 19.6921 8.63342C19.6697 8.45975 19.7201 8.28608 19.835 8.15443C20.003 7.95835 20.0899 7.64743 20.0899 7.25247C20.0899 6.68945 19.5941 6.36452 19.1795 6.19085C19.0171 6.12362 18.8938 5.99197 18.8378 5.8295C18.779 5.66424 18.793 5.48496 18.877 5.3309C18.961 5.17964 19.0423 4.93594 18.9582 4.38973C18.7089 3.72586 18.496 3.39253 15.0563 3.39253C12.9855 3.39253 12.157 3.63378 11.4286 3.8459L11.4176 3.84911L11.2019 3.91073C10.793 4.02838 10.468 4.12082 10.1403 4.12082L7.66411 4.15443V11.6782C7.66411 11.6929 7.66198 11.7054 7.65958 11.7196L7.65957 11.7196L7.65851 11.7259V11.7343C8.41762 12.1264 10.0255 13.1656 10.1991 14.9836C10.3168 16.1936 10.3 17.6782 10.2748 18.8351C10.2748 18.8575 10.272 18.8799 10.2692 18.9023C10.2639 18.9946 10.2561 19.072 10.2482 19.1508L10.2482 19.1509L10.2467 19.1656L10.2299 19.3561C10.2019 19.7651 10.2832 20.076 10.4736 20.2805C10.7341 20.5578 11.1767 20.6166 11.5016 20.6166C12.3924 20.6166 12.7706 20.2273 12.7706 19.2525L12.765 19.132V19.0984C12.765 17.2749 12.7566 14.8771 12.7566 14.8771C12.7566 14.5438 13.0199 14.2693 13.3532 14.2609L16.0395 14.1796H19.4344C19.793 14.16 20.6249 14.0116 20.6249 13.062C20.6249 12.5858 20.5016 12.2217 20.2664 12.0116C20.1375 11.8967 20.0647 11.7315 20.0647 11.5578C20.0563 11.3869 20.1291 11.2217 20.2551 11.104ZM4.8882 9.53258C4.44002 9.53258 4.1263 9.84631 4.1263 10.2945C4.1263 10.7427 4.44002 11.0564 4.8882 11.0564C5.33638 11.0564 5.64731 10.7455 5.64731 10.2945C5.64731 9.84631 5.33638 9.53258 4.8882 9.53258Z" fill="#313235"/>
</svg>
