<svg width="24" height="24" viewBox="0 0 24 24" fill="none" xmlns="http://www.w3.org/2000/svg">
<path fill-rule="evenodd" clip-rule="evenodd" d="M2.1499 11.9959C2.1499 5.29007 5.77174 2.15002 11.9902 2.15002C18.2087 2.15002 21.8361 5.29007 21.8361 11.9959C21.8361 18.7018 18.2087 21.8363 11.9902 21.8363C5.77174 21.8363 2.1499 18.7018 2.1499 11.9959ZM15.0238 15.9091C15.1807 15.9091 15.3376 15.8503 15.458 15.7298C15.6989 15.4889 15.6989 15.0996 15.4636 14.8587L12.6121 12.0099V8.16402C12.6121 7.82228 12.3376 7.54777 11.9958 7.54777C11.6541 7.54777 11.3796 7.82508 11.3796 8.16402V12.2649C11.3796 12.4301 11.444 12.587 11.5588 12.7018L14.5897 15.7298C14.7101 15.8475 14.8642 15.9091 15.0238 15.9091Z" fill="#313235"/>
</svg>
