<svg width="24" height="24" viewBox="0 0 24 24" fill="none" xmlns="http://www.w3.org/2000/svg">
<path fill-rule="evenodd" clip-rule="evenodd" d="M2.1499 11.9959C2.1499 5.55338 5.55326 2.15002 11.9902 2.15002C18.4328 2.15002 21.8361 5.55338 21.8361 11.9959C21.8361 18.4329 18.4328 21.8363 11.9902 21.8363C5.55326 21.8363 2.1499 18.4329 2.1499 11.9959ZM18.7269 16.5534C18.6541 16.6794 18.5224 16.7578 18.3768 16.7578H17.9426C17.8025 16.7578 17.6709 16.6822 17.5981 16.5618L15.0126 12.2368L13.9846 13.5226V16.3545C13.9846 16.5758 13.8053 16.7578 13.5813 16.7578H13.1975C12.9762 16.7578 12.7941 16.5786 12.7941 16.3545V7.6262C12.7941 7.40492 12.9734 7.22284 13.1975 7.22284H13.5813C13.8025 7.22284 13.9846 7.40211 13.9846 7.6262V11.6906L17.4132 7.3741C17.4888 7.27887 17.6065 7.22284 17.7297 7.22284H18.1751C18.3291 7.22284 18.4692 7.31248 18.5364 7.44973C18.6037 7.58979 18.584 7.75506 18.4888 7.8755L15.7941 11.2789L18.7241 16.1444C18.7969 16.2732 18.7997 16.4273 18.7269 16.5534ZM11.9986 8.06318C11.9566 8.24805 11.7941 8.3769 11.6065 8.3769H9.22832V16.3573C9.22832 16.5786 9.04905 16.7606 8.82496 16.7606H8.44401C8.21992 16.7606 8.04065 16.5814 8.04065 16.3573V8.3769H5.60928C5.38799 8.3769 5.20592 8.19763 5.20592 7.97354V7.629C5.20592 7.40772 5.38519 7.22564 5.60928 7.22564H11.6821C11.8025 7.22564 11.9202 7.28167 11.9958 7.3769C12.0715 7.47214 12.1023 7.59539 12.0743 7.71584L11.9986 8.06318Z" fill="#313235"/>
</svg>
