<svg width="24" height="24" viewBox="0 0 24 24" fill="none" xmlns="http://www.w3.org/2000/svg">
<path fill-rule="evenodd" clip-rule="evenodd" d="M21.8478 4.39875C21.8506 4.5192 21.831 4.63965 21.7582 4.74609L21.7526 4.7573C21.5313 5.08503 21.2876 5.39035 21.0299 5.68166C20.9794 5.73713 20.926 5.78956 20.8726 5.842C20.8369 5.87696 20.8013 5.91192 20.7666 5.94777C20.5817 6.13825 20.3912 6.32312 20.1895 6.49679C20.0719 6.59483 19.9486 6.69007 19.8254 6.7825C19.6433 6.92256 19.4556 7.05981 19.2596 7.18586C19.1027 7.2867 18.9402 7.38194 18.7778 7.47438C18.7385 7.49539 18.7014 7.5185 18.6643 7.5416C18.6272 7.56471 18.5901 7.58782 18.5509 7.60883C18.5593 7.62284 18.5593 7.63124 18.5593 7.64805C18.6237 8.44917 18.6573 9.32872 18.6573 10.3539C18.6573 15.5276 17.7918 19.1914 13.887 20.0262C13.6461 20.0766 13.3912 20.1102 13.1279 20.141C13.1111 20.1433 13.0952 20.1464 13.0793 20.1495C13.0554 20.1542 13.0316 20.1589 13.0047 20.1606C12.6909 20.1886 12.3632 20.2054 12.0187 20.2054C9.95426 20.2054 8.50328 19.6536 7.49768 18.648C5.81981 16.973 5.38004 14.0486 5.38004 10.3539C5.38004 9.32872 5.41085 8.42956 5.47807 7.61443C5.39229 7.56892 5.31198 7.51793 5.23166 7.46694C5.18348 7.43634 5.13529 7.40575 5.08592 7.37634C5.04167 7.34944 4.99715 7.32308 4.9527 7.29676C4.85363 7.23811 4.75489 7.17964 4.66015 7.11584C4.49897 7.01006 4.34912 6.89297 4.20041 6.77677C4.18371 6.76373 4.16703 6.75069 4.15035 6.73768C4.13143 6.7234 4.11252 6.70917 4.09363 6.69496C3.97542 6.60604 3.85808 6.51776 3.74699 6.42116C3.56211 6.25869 3.39124 6.08222 3.22038 5.90575C3.18781 5.87214 3.15407 5.83971 3.12032 5.80728C3.06408 5.75322 3.00784 5.69917 2.95707 5.63965C2.70497 5.35674 2.46968 5.05702 2.25399 4.74049C2.11113 4.5164 2.13634 4.23349 2.29321 4.03741C2.33522 3.98419 2.37724 3.93657 2.43606 3.89735C2.66576 3.7489 2.95147 3.77691 3.15595 3.93657C3.20637 3.97579 3.25399 4.015 3.29321 4.06822C3.40499 4.2359 3.53154 4.39093 3.65821 4.54612C3.67754 4.56981 3.69688 4.5935 3.71617 4.61724C4.42766 5.48839 5.31561 6.19707 6.39124 6.70687C7.90384 7.42396 9.79459 7.7881 12.0131 7.7881C14.7834 7.7881 17.0019 7.21107 18.6713 6.09623C19.4864 5.55001 20.1811 4.88615 20.7245 4.07663C20.743 4.04994 20.7675 4.02927 20.7914 4.0091C20.8001 4.00175 20.8087 3.99447 20.817 3.98699C21.0215 3.79091 21.3352 3.74609 21.5817 3.90576C21.6517 3.95338 21.7105 4.0094 21.7554 4.07663C21.8226 4.17186 21.845 4.28391 21.8478 4.39875ZM12.0467 16.634C12.3856 16.634 12.6629 16.3595 12.6601 16.0262L12.6237 8.97578C12.5387 8.97811 12.4556 8.98286 12.3724 8.98762C12.2556 8.9943 12.1386 9.00099 12.0159 9.00099C11.8904 9.00099 11.7713 8.99359 11.6529 8.98624C11.5652 8.98079 11.4778 8.97536 11.3884 8.97297L11.4276 16.0318C11.4276 16.3651 11.705 16.634 12.0439 16.634H12.0467Z" fill="#313235"/>
</svg>
