<svg width="24" height="24" fill="none" xmlns="http://www.w3.org/2000/svg"><path d="M21.843 4.394a.573.573 0 0 1-.09.347l-.005.011a8.99 8.99 0 0 1-.723.925c-.05.055-.104.108-.157.16-.036.035-.072.07-.106.106-.185.19-.376.375-.577.549-.118.098-.241.193-.364.285-.183.14-.37.278-.566.404-.157.1-.32.196-.482.288-.04.021-.076.044-.114.068-.037.023-.074.046-.113.067.008.014.008.022.008.039.065.801.098 1.68.098 2.706 0 5.174-.865 8.837-4.77 9.672-.24.05-.496.084-.759.115a.86.86 0 0 0-.049.009c-.024.004-.047.009-.074.01-.314.029-.642.045-.986.045-2.065 0-3.516-.551-4.521-1.557-1.678-1.675-2.118-4.6-2.118-8.294 0-1.025.031-1.924.098-2.74a3.665 3.665 0 0 1-.246-.147c-.048-.03-.097-.061-.146-.09-.044-.028-.089-.054-.133-.08-.1-.059-.198-.117-.293-.181-.16-.106-.31-.223-.46-.34a42.652 42.652 0 0 0-.106-.081c-.118-.089-.236-.177-.347-.274-.185-.162-.356-.339-.527-.515a3.92 3.92 0 0 0-.1-.099c-.056-.054-.112-.108-.163-.167a8.801 8.801 0 0 1-.703-.9.606.606 0 0 1 .04-.703.617.617 0 0 1 .142-.14.619.619 0 0 1 .72.04c.05.039.098.078.137.131a6.213 6.213 0 0 0 .423.55 7.64 7.64 0 0 0 2.675 2.089c1.513.717 3.404 1.081 5.622 1.081 2.77 0 4.989-.577 6.658-1.692a7.38 7.38 0 0 0 2.054-2.02.355.355 0 0 1 .067-.067l.025-.022a.617.617 0 0 1 .765-.081.569.569 0 0 1 .266.493Zm-9.801 12.235a.61.61 0 0 0 .613-.608l-.036-7.05a8.399 8.399 0 0 0-.252.012 6.152 6.152 0 0 1-.356.013c-.125 0-.245-.007-.363-.015a7.42 7.42 0 0 0-.264-.013l.039 7.059a.61.61 0 0 0 .616.602h.003Z" fill="#313235"/></svg>