<svg width="24" height="24" fill="none" xmlns="http://www.w3.org/2000/svg"><path d="M15.431 21.714h-.115c-.156 0-.274-.039-.347-.064a1.764 1.764 0 0 1-.756-.572 5.729 5.729 0 0 1-.485-.748l-.075-.165a17.252 17.252 0 0 1-.317-.804c-.263-.694-1.022-2.692-1.496-3.213-.473.521-1.23 2.521-1.493 3.213-.145.387-.24.633-.313.796l-.009.039-.073.134a5.661 5.661 0 0 1-.49.754 1.72 1.72 0 0 1-.717.552 1.066 1.066 0 0 1-.37.075h-.112c-.157 0-.274-.039-.347-.064a1.74 1.74 0 0 1-.754-.571 5.466 5.466 0 0 1-.423-.645l-.044-.075a19.962 19.962 0 0 1-1.407-3.07 21.249 21.249 0 0 1-.714-2.289c-.042-.16-.092-.367-.148-.59l-.028-.116c-1.026-1.784-1.751-3.554-2.16-5.26-.583-2.44-.078-4.488 1.42-5.76.857-.736 2.023-1.176 3.28-1.24 1.294-.07 2.639.252 3.874.938.334.188.67.378 1.031.591.373-.216.706-.406 1.03-.588 1.236-.686 2.584-1.011 3.88-.941 1.255.064 2.42.504 3.28 1.243 1.496 1.272 2 3.317 1.418 5.757-.41 1.706-1.137 3.473-2.16 5.26l-.025.098c-.056.233-.106.446-.154.617a20.806 20.806 0 0 1-.714 2.282 19.751 19.751 0 0 1-1.39 3.04l-.058.1a5.585 5.585 0 0 1-.43.65 1.72 1.72 0 0 1-.716.552.914.914 0 0 1-.373.084Z" fill="#313235"/></svg>