<svg width="24" height="24" viewBox="0 0 24 24" fill="none" xmlns="http://www.w3.org/2000/svg">
<path fill-rule="evenodd" clip-rule="evenodd" d="M2.34645 16.9741C2.23437 16.8442 2.16992 16.6668 2.16992 16.483V5.26752C2.16992 4.88417 2.43891 4.57052 2.77235 4.57052H13.1089L13.1091 4.57051C13.226 4.56729 16.5007 4.47696 20.3129 8.88246C21.4477 10.1941 21.9633 11.5501 21.8428 12.9093C21.6719 14.845 20.2597 16.1852 19.4359 16.8125C19.0968 17.0691 18.7045 17.2054 18.3039 17.2054H18.287C17.2783 17.1959 13.7478 17.1768 2.77235 17.1768C2.61264 17.1768 2.46133 17.104 2.34645 16.9741ZM20.0551 10.6693C19.8898 10.4032 19.6965 10.1371 19.4639 9.86777C17.2587 7.3237 15.2973 6.43659 14.1625 6.12611V10.6693H20.0551ZM18.7746 15.6498C18.9988 15.4787 19.3518 15.1777 19.6937 14.7848H3.37478V15.786C13.8823 15.786 17.3063 15.805 18.2955 15.8145H18.3039C18.472 15.8145 18.6317 15.7607 18.7746 15.6498ZM5.37822 10.5933H3.37478V7.37122H5.37822V10.5933ZM6.76801 10.5933H8.92275V7.37122H6.76801V10.5933ZM12.3412 10.5933H10.1837V7.37122H12.3412V10.5933ZM21.8596 18.7229C21.8596 18.3364 21.5906 18.0259 21.2572 18.0259H2.77235C2.43891 18.0259 2.16992 18.3364 2.16992 18.7229C2.16992 19.1095 2.43891 19.4199 2.77235 19.4199H21.2572C21.5906 19.4199 21.8596 19.1095 21.8596 18.7229Z" fill="#313235"/>
</svg>
