<svg width="24" height="24" viewBox="0 0 24 24" fill="none" xmlns="http://www.w3.org/2000/svg">
<path fill-rule="evenodd" clip-rule="evenodd" d="M15.0744 5.99159H16.4498C17.0968 5.99159 17.6627 6.62184 17.6627 7.34173V19.7311C17.6627 20.465 17.108 21.084 16.4498 21.084H15.405C15.3237 21.633 14.8475 21.6834 14.7187 21.6862H14.6515C14.517 21.6834 14.0464 21.633 13.9652 21.084H9.90918C9.82795 21.633 9.35176 21.6834 9.22291 21.6862H9.15568C9.02123 21.6862 8.55064 21.633 8.46941 21.084H7.38818C6.72991 21.084 6.17529 20.465 6.17529 19.7311V7.34173C6.17529 6.62184 6.74392 5.99159 7.38818 5.99159H8.76352V2.88235C8.76352 2.40336 9.17809 2 9.67389 2H14.1641C14.6487 2 15.0744 2.41176 15.0744 2.88235V5.99159ZM8.65988 11.437H15.1809C15.1809 11.437 15.1809 9.73108 15.1837 9.73108C15.1837 9.13164 14.8363 8.50979 14.2593 8.50979H9.58425C9.00722 8.50979 8.65988 9.13164 8.65988 9.73108V11.437ZM15.1809 17.4481C15.1809 18.1456 14.7831 18.6694 14.2593 18.6694H9.58425C9.05764 18.6694 8.65988 18.1456 8.65988 17.4481V12.521H15.1837V17.4481H15.1809ZM13.8447 5.98319H9.99601V3.21848H13.8447V5.98319Z" fill="#313235"/>
</svg>
