<svg xmlns="http://www.w3.org/2000/svg" width="24" height="24" fill="none"><path fill="#0B2739" d="M15.15 6.147h1.375c.647 0 1.213.63 1.213 1.35v12.39c0 .733-.555 1.352-1.213 1.352H15.48c-.081.549-.558.6-.686.602h-.068c-.134-.003-.605-.053-.686-.602H9.984c-.081.549-.557.6-.686.602H9.23c-.135 0-.605-.053-.687-.602h-1.08c-.66 0-1.214-.619-1.214-1.353V7.496c0-.72.569-1.35 1.213-1.35h1.375V3.038c0-.479.415-.882.91-.882h4.491c.485 0 .91.412.91.882v3.11Zm-6.415 5.445h6.52s0-1.706.004-1.706c0-.6-.348-1.221-.925-1.221H9.66c-.577 0-.924.622-.924 1.221v1.706Zm6.52 6.011h.004v-4.927H8.735v4.927c0 .698.398 1.221.924 1.221h4.675c.524 0 .922-.523.922-1.22ZM13.92 6.138V3.374H10.07v2.764h3.849Z"/></svg>