<svg width="24" height="24" fill="none" xmlns="http://www.w3.org/2000/svg"><path d="M19.305 8c0-2.339-1.602-3.347-3.243-3.543C15.322 2.655 13.378 2 11.726 2 9.68 2 7.308 3.008 7.1 5.874c-1.095.465-1.695 1.417-1.695 2.728 0 .967.32 1.614.71 2.04-.505.596-.76 1.378-.76 2.324 0 2.353 1.602 3.356 3.244 3.541.585 1.423 1.924 2.123 3.274 2.356v2.224c0 .33.283.6.63.6.348 0 .63-.27.63-.6v-2.135s-.459-.02-.688-.036c-.236-.017-.569-.053-.569-.053v-2.426L9.384 14.05a.582.582 0 0 1 .003-.848.656.656 0 0 1 .89.002l1.603 1.533V9.625c0-.33.283-.6.63-.6.347 0 .63.27.63.6v1.818l1.244-1.6a.65.65 0 0 1 .88-.126.58.58 0 0 1 .131.838l-2.232 2.876c-.006.009-.017.012-.023.02v5.507c1.997-.064 4.224-1.095 4.423-3.866.77-.325 1.695-1.061 1.695-2.728 0-.966-.32-1.613-.709-2.04.502-.604.756-1.38.756-2.324Z" fill="#313235"/></svg>