<svg xmlns="http://www.w3.org/2000/svg" width="24" height="24" fill="none"><path fill="#313235" d="M18.299 7.455c.37.527 2.557 3.555 2.832 3.922.249.327.708.946.706 1.675v2.969c0 .538-.224 1.07-.611 1.482-.395.411-.916.644-1.423.644h-.868c-.194 1.538-1.255 2.468-2.855 2.468-1.607 0-2.67-.927-2.862-2.468H9.282c-.193 1.538-1.255 2.468-2.854 2.468-1.608 0-2.67-.927-2.871-2.468-.78-.014-1.407-.678-1.407-1.487V4.88c0-.82.642-1.49 1.432-1.49l10.622.009c.787 0 1.43.661 1.43 1.482v1.613l.822-.008h.008c.709 0 1.426.384 1.835.969ZM6.43 19.36c1.118 0 1.69-.594 1.69-1.757 0-1.17-.572-1.764-1.69-1.764-1.126 0-1.697.594-1.697 1.764 0 1.163.571 1.757 1.697 1.757Zm9.65 0c1.118 0 1.69-.594 1.69-1.757 0-1.17-.572-1.764-1.69-1.764-1.126 0-1.697.594-1.697 1.764 0 1.163.571 1.757 1.697 1.757Z"/></svg>