<svg width="24" height="24" viewBox="0 0 24 24" fill="none" xmlns="http://www.w3.org/2000/svg">
<path fill-rule="evenodd" clip-rule="evenodd" d="M18.1738 7.74507C18.5435 8.27168 20.7312 11.2997 21.0057 11.6666C21.255 11.9944 21.7144 12.6134 21.7116 13.3417V16.3109C21.7116 16.8487 21.4875 17.3809 21.1009 17.7926C20.706 18.2044 20.185 18.4369 19.678 18.4369H18.8096C18.6164 19.9747 17.5547 20.9047 15.9553 20.9047C14.3475 20.9047 13.2858 19.9775 13.0926 18.4369H9.15701C8.96373 19.9747 7.90211 20.9047 6.30268 20.9047C4.69485 20.9047 3.63323 19.9775 3.43155 18.4369C2.65284 18.4229 2.02539 17.759 2.02539 16.9495V5.17085C2.02539 4.35013 2.66684 3.68066 3.45676 3.68066L14.0786 3.68907C14.8657 3.68907 15.5099 4.35013 15.5099 5.17085V6.78429L16.3306 6.77589H16.3391C17.0477 6.77589 17.7648 7.15964 18.1738 7.74507ZM6.30548 19.6498C5.17944 19.6498 4.60801 19.0559 4.60801 17.8935C4.60801 16.7226 5.17944 16.1288 6.30548 16.1288C7.42313 16.1288 7.99455 16.7226 7.99455 17.8935C7.99455 19.0559 7.42313 19.6498 6.30548 19.6498ZM15.9553 19.6498C14.8293 19.6498 14.2578 19.0559 14.2578 17.8935C14.2578 16.7226 14.8293 16.1288 15.9553 16.1288C17.0729 16.1288 17.6444 16.7226 17.6444 17.8935C17.6444 19.0559 17.0729 19.6498 15.9553 19.6498Z" fill="#313235"/>
</svg>
