<svg width="24" height="24" fill="none" xmlns="http://www.w3.org/2000/svg"><path d="M20.008 2h-6.582a1.664 1.664 0 0 0-1.67 1.658v4.037c0 .952.681 1.67 1.583 1.67h.557v1.383c0 .062-.002.124-.004.184-.01.322-.02.599.299.65.351.058.633-.283.853-.55l.048-.057c.099-.118.274-.306.49-.538.282-.304.634-.682.973-1.073l3.453.009c.922 0 1.667-.748 1.67-1.67V3.67A1.672 1.672 0 0 0 20.008 2Zm-3.12 6.28a.526.526 0 1 1-.001-1.052.526.526 0 0 1 .001 1.052Zm.804-2.716c-.125.108-.305.265-.305.447v.207a.503.503 0 0 1-.502.513.503.503 0 0 1-.501-.513v-.207c0-.516.322-.826.556-1.05l.03-.028c.016-.017.038-.035.063-.056.107-.091.261-.222.261-.398 0-.137-.078-.434-.412-.434-.333 0-.501.269-.501.428a.5.5 0 0 1-1 .026v-.023c0-.837.583-1.38 1.501-1.38.86 0 1.437.716 1.437 1.386.005.489-.222.703-.443.91a4.589 4.589 0 0 0-.106.101c-.02.02-.047.044-.078.07Zm-9.227 9.943c1.134 0 2.014-.322 2.613-.958.566-.6.855-1.445.855-2.513 0-1.067-.289-1.91-.855-2.512-.599-.636-1.479-.958-2.613-.958s-2.014.322-2.613.958c-.566.6-.855 1.445-.855 2.512 0 1.068.289 1.91.855 2.513.599.636 1.479.958 2.613.958Zm-5.487 1.972c.647-.655 1.616-.986 2.876-.986h5.222c1.26 0 2.226.33 2.876.983.65.653.978 1.628.978 2.894v1.042a.28.28 0 0 1-.28.28H2.28a.281.281 0 0 1-.28-.28V20.37c0-1.266.33-2.236.978-2.891Z" fill="#313235"/></svg>