<svg xmlns="http://www.w3.org/2000/svg" width="24" height="24" fill="none"><path fill="#0B2739" d="M20.168 2.155h-6.582a1.664 1.664 0 0 0-1.67 1.658V7.85c0 .952.68 1.67 1.583 1.67h.557v1.383q0 .094-.004.184c-.01.322-.02.599.298.65.353.058.634-.283.854-.55l.048-.057c.098-.118.274-.306.49-.538.282-.304.634-.682.973-1.073l3.453.009c.922 0 1.667-.748 1.67-1.67V3.825a1.67 1.67 0 0 0-1.67-1.67m-3.12 6.28a.526.526 0 1 1-.001-1.052.526.526 0 0 1 0 1.052m.804-2.716c-.125.108-.305.265-.305.447v.208a.503.503 0 0 1-.502.512.503.503 0 0 1-.501-.512v-.208c0-.516.322-.826.556-1.05l.03-.028q.025-.025.063-.056c.107-.091.261-.222.261-.398 0-.137-.078-.434-.412-.434s-.501.269-.501.428a.5.5 0 0 1-1 .026V4.63c0-.837.582-1.38 1.501-1.38.86 0 1.437.716 1.437 1.386.005.49-.222.703-.443.91l-.106.101q-.03.03-.078.07m-9.227 9.943c1.134 0 2.014-.322 2.613-.958.566-.6.855-1.445.855-2.513s-.289-1.91-.855-2.512c-.6-.636-1.479-.958-2.613-.958-1.135 0-2.014.322-2.614.958-.565.6-.854 1.445-.854 2.512 0 1.068.289 1.91.854 2.513.6.636 1.48.958 2.614.958m-5.487 1.972c.647-.655 1.616-.986 2.876-.986h5.222c1.26 0 2.226.33 2.876.983s.978 1.628.978 2.894v1.042a.28.28 0 0 1-.28.28H2.44a.28.28 0 0 1-.28-.28v-1.042c0-1.266.33-2.235.978-2.891"/></svg>