<svg xmlns="http://www.w3.org/2000/svg" width="24" height="24" fill="none"><path fill="#0B2739" d="M8.39 10.797c.841.809 2.054 1.218 3.611 1.218s2.774-.409 3.614-1.219c.877-.84 1.322-2.086 1.322-3.705s-.443-2.869-1.32-3.712c-.842-.812-2.058-1.224-3.616-1.224-1.557 0-2.77.412-3.61 1.224-.871.843-1.314 2.093-1.314 3.712s.443 2.865 1.314 3.706m-4.582 11.05h16.387c.308 0 .56-.252.56-.56v-1.639c0-1.569-.49-2.905-1.42-3.871-1.009-1.05-2.51-1.605-4.336-1.605H8.99c-1.826 0-3.322.557-4.33 1.608-.925.963-1.412 2.3-1.412 3.868v1.639c0 .308.252.56.56.56"/></svg>