<svg xmlns="http://www.w3.org/2000/svg" width="24" height="24" fill="none"><path fill="#0B2739" d="M20.821 8.102a1.344 1.344 0 0 1 .975 1.644l-.364 1.434a1.357 1.357 0 0 1-1.647.98l-.737-.187-.056.216a1.45 1.45 0 0 1-1.773 1.056l-5.204-1.325L9.72 18.42a.62.62 0 0 1-.58.41H6.127v1.548a1.46 1.46 0 0 1-1.46 1.462H3.614a1.46 1.46 0 0 1-1.46-1.459v-5.317c0-.803.656-1.459 1.46-1.459h1.059c.807 0 1.46.656 1.46 1.462v2.535h2.58l2.111-5.986-5.935-1.51A1.466 1.466 0 0 1 3.833 8.33l1.288-5.07v-.006a1.46 1.46 0 0 1 1.773-1.05l12.34 3.14c.377.095.694.333.893.67.199.335.255.728.16 1.106l-.202.795zm-.73 2.865a.123.123 0 0 0 .15-.09l.365-1.43a.12.12 0 0 0-.09-.149l-.737-.188-.425 1.67z"/></svg>