<svg width="24" height="24" viewBox="0 0 24 24" fill="none" xmlns="http://www.w3.org/2000/svg">
<path fill-rule="evenodd" clip-rule="evenodd" d="M20.6666 7.97193C21.0139 8.05876 21.3136 8.28285 21.4957 8.59097C21.6778 8.9019 21.7338 9.26604 21.6414 9.61618L21.2772 11.0503C21.0924 11.7758 20.3557 12.2128 19.6302 12.0307L18.8935 11.8431L18.8375 12.0587C18.7422 12.4369 18.5041 12.7562 18.1708 12.9551C17.8375 13.154 17.4397 13.21 17.0644 13.1148L11.8599 11.7898L9.56579 18.2912C9.47896 18.5349 9.24647 18.7002 8.98596 18.7002H5.97197V20.2492C5.97197 21.0559 5.31931 21.7114 4.51259 21.7114H3.45938C2.65546 21.7114 2 21.0587 2 20.252V14.9355C2 14.1316 2.65546 13.4761 3.45938 13.4761H4.5182C5.32491 13.4761 5.97757 14.1316 5.97757 14.9383V17.4733H8.55739L10.6694 11.4873L4.73388 9.97752C3.95237 9.77584 3.47898 8.98033 3.67786 8.19882L4.96637 3.12881V3.12321C5.16525 2.3445 5.96077 1.87392 6.73947 2.07279L19.0784 5.21284C19.4565 5.30807 19.773 5.54617 19.9719 5.8823C20.1708 6.21843 20.2268 6.61059 20.1316 6.98874L19.9299 7.78425L20.6666 7.97193ZM19.9355 10.8375C20.0027 10.8543 20.0699 10.8151 20.0868 10.7478C20.0868 10.7478 20.4509 9.31366 20.4509 9.31646C20.4677 9.25203 20.4285 9.18481 20.3613 9.168L19.6246 8.98033L19.1988 10.6498L19.9355 10.8375Z" fill="#313235"/>
</svg>
