<svg width="24" height="24" fill="none" xmlns="http://www.w3.org/2000/svg"><path d="M20.246 10.896c.79 0 1.432.659 1.432 1.47v2.889c0 .81-.642 1.468-1.432 1.468h-.086l.002 1.596c0 .678-.255 1.317-.722 1.796a2.42 2.42 0 0 1-1.748.745l-13.213.005c-.745-.005-1.398-.28-1.846-.767-.445-.488-.661-1.146-.622-1.908V5.423c0-.678.258-1.317.723-1.796a2.427 2.427 0 0 1 1.748-.745l12.327-.868c.18-.006.33.048.454.165.123.118.19.28.19.454v1.395a1.502 1.502 0 0 1 1.183 1.465v1.442c.341.127.644.32.885.583.445.488.658 1.149.619 1.916l.003 1.465h.103v-.003ZM5.031 4.846l11.218-.804v-.748L4.524 4.12a1.275 1.275 0 0 0-.936.384c-.238.247-.37.572-.37.919v.034c0 .313.118.613.32.851A1.505 1.505 0 0 1 5.03 4.846Zm-.292 1.849a.136.136 0 0 1-.006.036l-.005.022 12.703.003V5.49c0-.148-.131-.272-.291-.272l-.286.023h-.005l-11.78.843c-.2.003-.332.126-.332.272v.339h.002Zm15.731 8.557v-2.888c0-.126-.1-.23-.224-.23h-7.963c-.84 0-1.527.703-1.527 1.566v.213c0 .863.684 1.566 1.527 1.566h7.963a.223.223 0 0 0 .224-.227Zm-7.022-1.361c0-.552-.434-1-.972-1a.984.984 0 0 0-.972 1c0 .552.434 1 .972 1s.972-.448.972-1Z" fill="#313235"/></svg>