<svg width="24" height="24" viewBox="0 0 24 24" fill="none" xmlns="http://www.w3.org/2000/svg">
<path fill-rule="evenodd" clip-rule="evenodd" d="M20.2463 10.8963C21.0363 10.8963 21.6777 11.5545 21.6777 12.3668V15.2548C21.6777 16.0643 21.0363 16.7226 20.2463 16.7226H20.1595L20.1623 18.3192C20.1623 18.9971 19.9074 19.6357 19.4396 20.1147C18.9718 20.5965 18.35 20.8598 17.6917 20.8598L4.4789 20.8654C3.73381 20.8598 3.08115 20.5853 2.63297 20.0979C2.1876 19.6105 1.97191 18.9522 2.01113 18.1903V5.4229C2.01113 4.74503 2.26883 4.10638 2.73381 3.62739C3.2016 3.1484 3.82064 2.88229 4.48171 2.88229L16.8094 2.01395C16.9887 2.00835 17.1399 2.06157 17.2632 2.17921C17.3864 2.29686 17.4536 2.45933 17.4536 2.63299V4.02795C18.1399 4.18201 18.6357 4.78144 18.6357 5.49293V6.9355C18.9774 7.06155 19.28 7.25482 19.5209 7.51813C19.9662 8.00552 20.1791 8.66658 20.1399 9.43408L20.1427 10.8991H20.2463V10.8963ZM5.03072 4.84587C4.2212 4.84587 3.56574 5.49853 3.53773 6.30805C3.33605 6.06995 3.21841 5.77024 3.21841 5.45651V5.4229C3.21841 5.07556 3.35006 4.75063 3.58815 4.50413C3.82625 4.25764 4.14557 4.12318 4.52372 4.12038L16.2492 3.29406V4.04195L5.03072 4.84587ZM4.73941 6.6946C4.73941 6.70825 4.73629 6.71983 4.73322 6.73122C4.73125 6.73853 4.7293 6.74576 4.7282 6.75342L17.4312 6.75622V5.49012C17.4312 5.34167 17.2996 5.21842 17.1399 5.21842L16.8542 5.24083H16.8486L5.06994 6.08396C4.86826 6.08676 4.73661 6.21001 4.73661 6.35567V6.6946H4.73941ZM20.4704 15.252V12.364C20.4704 12.238 20.3696 12.1344 20.2463 12.1344H12.2828C11.4425 12.1344 10.7562 12.8374 10.7562 13.7002V13.9131C10.7562 14.7758 11.4397 15.4789 12.2828 15.4789H20.2463C20.3696 15.4817 20.4704 15.378 20.4704 15.252ZM13.4481 13.8906C13.4481 13.3388 13.0139 12.8907 12.4761 12.8907C11.9383 12.8907 11.5013 13.3388 11.5041 13.8906C11.5041 14.4425 11.9383 14.8906 12.4761 14.8906C13.0139 14.8906 13.4481 14.4425 13.4481 13.8906Z" fill="#313235"/>
</svg>
