<svg xmlns="http://www.w3.org/2000/svg" width="24" height="24" fill="none"><path fill="#0B2739" d="M20.401 11.461c.79 0 1.432.659 1.432 1.47v2.889c0 .81-.642 1.468-1.432 1.468h-.087l.003 1.596c0 .678-.255 1.317-.722 1.796a2.42 2.42 0 0 1-1.748.745l-13.213.005c-.745-.005-1.398-.28-1.846-.767-.445-.488-.661-1.146-.622-1.908V5.988c0-.678.258-1.317.723-1.796a2.43 2.43 0 0 1 1.748-.745l12.327-.868q.269-.01.454.165c.123.118.19.28.19.454v1.395a1.5 1.5 0 0 1 1.183 1.465V7.5c.341.126.644.32.885.583.445.487.658 1.149.619 1.916l.003 1.465h.103zM5.186 5.411l11.218-.804v-.748L4.68 4.685a1.27 1.27 0 0 0-.936.384c-.238.247-.37.572-.37.919v.033c0 .314.118.614.32.852a1.505 1.505 0 0 1 1.493-1.462M4.894 7.26q0 .02-.006.036l-.005.022 12.703.003V6.055c0-.148-.131-.272-.291-.272l-.286.023h-.005l-11.779.843c-.202.003-.333.126-.333.272v.339zm15.732 8.557v-2.888c0-.126-.101-.23-.225-.23h-7.963c-.84 0-1.527.703-1.527 1.566v.213c0 .863.684 1.566 1.527 1.566H20.4c.124.003.224-.101.224-.227m-7.023-1.361c0-.552-.434-1-.972-1a.984.984 0 0 0-.972 1c0 .551.434 1 .972 1s.972-.449.972-1"/></svg>