<svg xmlns="http://www.w3.org/2000/svg" width="24" height="24" fill="none"><path fill="#313235" d="m15.717 4.01.314 1.403c1.172.269 2.036 1.185 2.036 2.273v.21c.23.069.416.191.561.359.25.295.372.722.372 1.245 0 .523-.122.955-.372 1.245a1.16 1.16 0 0 1-.561.359v1.792c.23.069.416.191.561.359.25.295.372.722.372 1.245 0 .523-.122.955-.372 1.245-.145.168-.33.29-.561.359v.21c0 1.088-.864 2.004-2.036 2.273l-.314 1.403C15.455 21.16 14.306 22 12.97 22h-2.876c-1.334 0-2.483-.841-2.745-2.01l-.315-1.403C5.863 18.318 5 17.402 5 16.314V7.686c0-1.089.863-2.005 2.036-2.273L7.35 4.01C7.612 2.84 8.76 2 10.096 2h2.875c1.335 0 2.484.841 2.746 2.01Zm-1.098.196C14.462 3.505 13.772 3 12.97 3h-2.875c-.801 0-1.49.505-1.648 1.206l-.252 1.127h6.675l-.252-1.127Zm-6.424 14.46.253 1.128c.157.701.847 1.206 1.647 1.206h2.876c.8 0 1.49-.505 1.647-1.206l.253-1.127H8.195Zm1.213-3.547c.173-.147.258-.356.258-.619s-.085-.472-.258-.62c-.166-.142-.392-.213-.675-.213-.283 0-.51.072-.675.214-.172.147-.258.356-.258.619s.086.472.258.62c.166.142.392.213.675.213.283 0 .51-.071.675-.214Zm-.675-2.286c.283 0 .51-.071.675-.214.173-.147.258-.356.258-.619s-.085-.472-.258-.62c-.166-.142-.392-.213-.675-.213-.283 0-.51.072-.675.214-.172.147-.258.356-.258.619s.086.472.258.62c.166.142.392.213.675.213Zm.675-2.714c.173-.147.258-.356.258-.619s-.085-.472-.258-.62c-.166-.141-.392-.213-.675-.213-.283 0-.51.072-.675.214-.172.147-.258.356-.258.619s.086.472.258.62c.166.142.392.213.675.213.283 0 .51-.071.675-.214Zm2.125 5.214c.283 0 .51-.071.675-.214.173-.147.258-.356.258-.619s-.085-.472-.258-.62c-.166-.142-.392-.213-.675-.213-.283 0-.51.072-.675.214-.172.147-.258.356-.258.619s.086.472.258.62c.166.142.392.213.675.213Zm.675-2.714c.173-.147.258-.356.258-.619s-.085-.472-.258-.62c-.166-.142-.392-.213-.675-.213-.283 0-.51.072-.675.214-.172.147-.258.356-.258.619s.086.472.258.62c.166.142.392.213.675.213.283 0 .51-.071.675-.214Zm-.675-2.286c.283 0 .51-.071.675-.214.173-.147.258-.356.258-.619s-.085-.472-.258-.62c-.166-.141-.392-.213-.675-.213-.283 0-.51.072-.675.214-.172.147-.258.356-.258.619s.086.472.258.62c.166.142.392.213.675.213Zm3.475 4.786c.173-.147.258-.356.258-.619s-.085-.472-.258-.62c-.166-.142-.392-.213-.675-.213-.283 0-.51.072-.675.214-.172.147-.258.356-.258.619s.086.472.258.62c.166.142.392.213.675.213.283 0 .51-.071.675-.214Zm-.675-2.286c.283 0 .51-.071.675-.214.173-.147.258-.356.258-.619s-.085-.472-.258-.62c-.166-.142-.392-.213-.675-.213-.283 0-.51.072-.675.214-.172.147-.258.356-.258.619s.086.472.258.62c.166.142.392.213.675.213Zm.675-2.714c.173-.147.258-.356.258-.619s-.085-.472-.258-.62c-.166-.141-.392-.213-.675-.213-.283 0-.51.072-.675.214-.172.147-.258.356-.258.619s.086.472.258.62c.166.142.392.213.675.213.283 0 .51-.071.675-.214Z"/></svg>