<svg width="24" height="24" fill="none" xmlns="http://www.w3.org/2000/svg"><path d="M21.841 5.993c0-.759-.641-1.378-1.428-1.378H3.583c-.79 0-1.428.62-1.428 1.378v12.011c0 .76.638 1.376 1.428 1.376h16.83c.787 0 1.428-.62 1.428-1.378V5.993Zm-16.499.83a.548.548 0 0 1-.56.537.548.548 0 0 1-.557-.538.548.548 0 0 1 .557-.537h.003a.548.548 0 0 1 .557.537Zm15.295 11.179c0 .12-.101.215-.224.215H3.583a.221.221 0 0 1-.224-.215V8.338h17.278v9.664ZM6.81 10.447l2.729 2.384a.57.57 0 0 1 .006.857l-2.73 2.428a.595.595 0 0 1-.408.155.61.61 0 0 1-.443-.188.566.566 0 0 1 .012-.801l.01-.01a.082.082 0 0 1 .012-.01l2.244-1.997-2.238-1.958a.567.567 0 0 1-.062-.798c.003-.005.006-.008.01-.011l.01-.012a.615.615 0 0 1 .848-.039Zm10.68 2.255c.334 0 .606.26.606.58 0 .32-.272.58-.602.58h-6.468a.596.596 0 0 1-.605-.58c0-.32.272-.583.605-.583l6.465.003ZM6.464 6.285a.548.548 0 0 1 .557.537.548.548 0 0 1-.56.538.548.548 0 0 1-.557-.538.548.548 0 0 1 .557-.537h.003Zm2.235.537a.548.548 0 0 1-.56.538.548.548 0 0 1-.557-.538.548.548 0 0 1 .557-.537h.003a.548.548 0 0 1 .557.537Z" fill="#313235"/></svg>