<svg xmlns="http://www.w3.org/2000/svg" width="24" height="24" fill="none"><path fill="#0B2739" d="M2.733 8.8a.561.561 0 0 1-.395-.955l.016-.02A13.775 13.775 0 0 1 6.703 4.9a13.635 13.635 0 0 1 5.347-1.08c1.84 0 3.63.358 5.317 1.066a13.642 13.642 0 0 1 4.305 2.871.559.559 0 0 1 .006.793.559.559 0 0 1-.793.006 12.56 12.56 0 0 0-8.835-3.616c-1.706 0-3.356.333-4.91.991a12.622 12.622 0 0 0-3.995 2.686l-.016.017a.554.554 0 0 1-.395.165"/><path fill="#0B2739" d="M4.808 11.693a.558.558 0 0 0 .793 0l.011-.011a9.135 9.135 0 0 1 2.863-1.93 9.046 9.046 0 0 1 3.571-.726c1.225 0 2.415.238 3.535.712a9.048 9.048 0 0 1 2.835 1.888.561.561 0 0 0 .784-.801 10.19 10.19 0 0 0-7.154-2.922 10.197 10.197 0 0 0-7.224 2.983l-.014.014a.561.561 0 0 0 0 .793M7.282 14.755a.558.558 0 0 0 .792-.003 5.576 5.576 0 0 1 3.97-1.644 5.56 5.56 0 0 1 2.185.442 5.55 5.55 0 0 1 1.72 1.14.561.561 0 0 0 .78-.804 6.724 6.724 0 0 0-4.686-1.896c-.927 0-1.829.185-2.674.552a6.664 6.664 0 0 0-2.087 1.42.561.561 0 0 0 0 .793M10.425 19.631c.38.367.913.552 1.582.552.67 0 1.202-.185 1.583-.552.395-.38.596-.93.596-1.627 0-.698-.201-1.247-.596-1.628-.381-.366-.913-.551-1.583-.551-.67 0-1.201.185-1.582.552-.395.38-.597.93-.597 1.627s.202 1.246.597 1.627"/></svg>