<svg width="24" height="24" fill="none" xmlns="http://www.w3.org/2000/svg"><path d="M2.583 8.67a.561.561 0 0 1-.395-.955l.017-.02A13.775 13.775 0 0 1 6.552 4.77a13.634 13.634 0 0 1 5.347-1.08c1.84 0 3.63.358 5.317 1.066a13.642 13.642 0 0 1 4.305 2.871.559.559 0 0 1 .006.793.559.559 0 0 1-.793.006 12.56 12.56 0 0 0-8.835-3.616c-1.706 0-3.355.333-4.91.991a12.622 12.622 0 0 0-3.994 2.686l-.017.017a.554.554 0 0 1-.395.165Z" fill="#313235"/><path d="M4.658 11.563a.558.558 0 0 0 .793 0l.011-.011a9.135 9.135 0 0 1 2.863-1.93 9.046 9.046 0 0 1 3.572-.726c1.224 0 2.414.238 3.534.712a9.048 9.048 0 0 1 2.835 1.888.561.561 0 0 0 .785-.801 10.19 10.19 0 0 0-7.154-2.922 10.197 10.197 0 0 0-7.224 2.983l-.015.014a.561.561 0 0 0 0 .793ZM7.132 14.625a.558.558 0 0 0 .792-.003 5.576 5.576 0 0 1 3.97-1.644c.756 0 1.493.148 2.184.442a5.55 5.55 0 0 1 1.72 1.14.561.561 0 0 0 .782-.804 6.724 6.724 0 0 0-4.686-1.896c-.928 0-1.83.185-2.675.552a6.665 6.665 0 0 0-2.087 1.42.561.561 0 0 0 0 .793ZM10.275 19.501c.38.367.913.552 1.582.552.67 0 1.202-.185 1.583-.552.395-.38.597-.93.597-1.627s-.202-1.246-.597-1.627c-.381-.367-.913-.552-1.583-.552-.67 0-1.201.185-1.582.552-.395.38-.597.93-.597 1.627s.202 1.247.597 1.627Z" fill="#313235"/></svg>