<svg xmlns="http://www.w3.org/2000/svg" width="24" height="24" fill="none"><path fill="#0B2739" d="M18.666 8.592c0-4.381-2.37-6.437-6.432-6.437-4.064 0-6.434 2.056-6.43 6.44 0 1.39.24 2.549.705 3.479a.21.21 0 0 1-.018.02c-.01.01-.019.02-.024.036l-2.983 6.479c-.163.35-.112.762.131 1.061.185.23.457.362.78.362.1 0 .2-.012.307-.037l1.958-.72.762 2.029c.18.338.521.537.894.537h.025a.994.994 0 0 0 .893-.588l2.768-5.992 2.762 5.992a.99.99 0 0 0 .888.588h.033c.373 0 .712-.21.928-.605l.728-1.963 2.04.745a.997.997 0 0 0 1.002-.356.984.984 0 0 0 .132-1.053l-2.802-6.081c.63-.995.953-2.303.953-3.936Zm-7.754 2.717a.545.545 0 0 1-.327-.106.608.608 0 0 1-.25-.605l.2-1.202c0-.004-.003-.008-.005-.013-.002-.004-.004-.008-.004-.012l-.838-.846a.618.618 0 0 1-.14-.639.585.585 0 0 1 .474-.406l1.15-.17.008-.002c.003 0 .005-.002.01-.007l.512-1.084a.577.577 0 0 1 1.062 0L13.29 7.3c0 .008.009.008.009.008l1.151.17c.224.035.41.191.482.407a.62.62 0 0 1-.151.639l-.838.846c0 .003 0 .005-.002.008-.002.006-.004.011.002.017l.19 1.202a.597.597 0 0 1-.249.605.582.582 0 0 1-.613.034l-1.028-.564h-.017l-1.028.563a.609.609 0 0 1-.286.073ZM6.44 18.03l-1.6.588 2.48-5.358c.837.902 2.005 1.456 3.465 1.663l-2.446 5.303-.597-1.608a1.022 1.022 0 0 0-1.302-.588Zm9.815.6-.597 1.604-2.42-5.26c1.476-.143 2.695-.605 3.589-1.4l2.322 5.047-1.591-.588a1.021 1.021 0 0 0-1.303.596Z"/></svg>