<svg width="24" height="24" viewBox="0 0 24 24" fill="none" xmlns="http://www.w3.org/2000/svg">
<path fill-rule="evenodd" clip-rule="evenodd" d="M18.656 8.597C18.656 4.21605 16.2863 2.16003 12.2247 2.16003C8.16026 2.16003 5.79051 4.21605 5.79332 8.5998C5.79332 9.98915 6.03421 11.1488 6.4992 12.0788C6.49324 12.0867 6.48729 12.0929 6.48171 12.0987C6.47154 12.1093 6.46261 12.1185 6.45718 12.1348L3.47399 18.6138C3.31153 18.9639 3.36195 19.3757 3.60564 19.6754C3.79052 19.9051 4.06223 20.0368 4.38435 20.0368C4.48519 20.0368 4.58603 20.0256 4.69248 20.0003L6.65046 19.2805L7.41236 21.3085C7.59163 21.6474 7.93337 21.8463 8.30592 21.8463H8.33113C8.71768 21.8407 9.06782 21.611 9.22468 21.258L11.9922 15.2665L14.7541 21.258C14.9109 21.611 15.2583 21.8407 15.642 21.8463H15.6757C16.0482 21.8463 16.3871 21.6362 16.6028 21.2412L17.3311 19.2777L19.3703 20.0228C19.7457 20.1068 20.135 19.9695 20.3731 19.667C20.6196 19.3673 20.67 18.9611 20.5048 18.6138L17.7037 12.5326C18.3339 11.5382 18.656 10.2301 18.656 8.597ZM10.9026 11.3141C11.0006 11.3141 11.0986 11.2889 11.1883 11.2413L12.2163 10.6782H12.2331L13.2611 11.2413C13.3479 11.2889 13.4432 11.3141 13.544 11.3141C13.6645 11.3141 13.7793 11.2777 13.8745 11.2076C14.0706 11.0732 14.1687 10.8351 14.1238 10.6026L13.9334 9.40092C13.9278 9.39532 13.9296 9.38972 13.9315 9.38411C13.9324 9.38131 13.9334 9.37851 13.9334 9.37571L14.7709 8.52977C14.939 8.36451 14.9978 8.11521 14.9222 7.89112C14.8493 7.67543 14.6645 7.51857 14.4404 7.48496L13.2891 7.31409C13.2891 7.31409 13.2807 7.31409 13.2807 7.30569L12.7541 6.22165C12.628 5.92754 12.2891 5.79308 11.995 5.91913C11.8605 5.97796 11.7513 6.0844 11.6925 6.22165L11.1799 7.30569C11.175 7.31052 11.173 7.31257 11.1705 7.31344C11.1687 7.31409 11.1666 7.31409 11.1631 7.31409L10.0118 7.48496C9.78771 7.51857 9.60564 7.67543 9.53841 7.89112C9.45998 8.11241 9.5132 8.36171 9.67846 8.52977L10.516 9.37571C10.516 9.37991 10.5181 9.38411 10.5202 9.38832C10.5223 9.39252 10.5244 9.39672 10.5244 9.40092L10.3255 10.6026C10.2835 10.8351 10.3815 11.0732 10.5748 11.2076C10.6729 11.2805 10.7877 11.3141 10.9026 11.3141ZM6.42917 18.034L4.82973 18.6222L7.30872 13.2637C8.14625 14.1656 9.31432 14.7202 10.7737 14.9275L8.32833 20.23L7.73169 18.6222C7.53001 18.104 6.95018 17.8435 6.42917 18.034ZM16.2443 18.6334L15.6476 20.2384L13.2275 14.9779C14.7037 14.8351 15.9222 14.3729 16.8157 13.5774L19.1378 18.625L17.5468 18.0368C17.023 17.8463 16.4432 18.1124 16.2443 18.6334Z" fill="#313235"/>
</svg>
