<svg xmlns="http://www.w3.org/2000/svg" width="24" height="24" fill="none"><path fill="#0B2739" d="M4.766 19.413c1.673 1.61 4.107 2.429 7.23 2.429s5.557-.818 7.23-2.429c1.736-1.675 2.616-4.168 2.616-7.417 0-3.25-.88-5.745-2.616-7.417-1.673-1.611-4.107-2.429-7.23-2.429s-5.557.818-7.23 2.429C3.03 6.254 2.15 8.749 2.15 11.996c0 3.246.88 5.742 2.616 7.417Zm6.67-1.423v-.745a5.633 5.633 0 0 1-2.695-.972c-.224-.157-.333-.358-.333-.613 0-.376.31-.681.694-.681.163.006.32.056.454.146.623.414 1.253.672 1.88.768l-.002-3.352c-2.295-.375-2.788-1.724-2.788-2.809 0-1.658 1.077-2.783 2.787-2.974v-.754c0-.308.252-.56.56-.56.308 0 .56.252.56.56v.755c.77.077 1.482.303 2.05.654.261.16.404.387.404.639a.663.663 0 0 1-.664.664.925.925 0 0 1-.409-.115l-.008-.006a4.23 4.23 0 0 0-1.372-.487v3.189c.98.13 1.734.439 2.243.917.518.488.784 1.149.784 1.964 0 .913-.333 1.683-.963 2.23-.513.446-1.218.725-2.062.82v.762a.56.56 0 1 1-1.12 0Zm1.119-5.29c1.444.282 1.65.928 1.65 1.534 0 .892-.617 1.498-1.65 1.658V12.7Zm-2.058-4.183c.236-.212.555-.353.936-.417l.001 3.022c-.436-.107-.769-.258-.996-.454-.285-.246-.417-.566-.417-1.008 0-.47.165-.866.476-1.143Z"/></svg>