<svg xmlns="http://www.w3.org/2000/svg" width="24" height="24" fill="none"><path fill="#000" d="M13.949 2.684c.622-.393 1.373-.648 2.175-.483.806.166 1.393.7 1.803 1.313l.001.001c.4.599.69 1.358.509 2.181-.115.532-.4.961-.754 1.303H20.5a1.5 1.5 0 0 1 1.5 1.5v3a1.5 1.5 0 0 1-1.5 1.5h-17a1.5 1.5 0 0 1-1.5-1.5v-3a1.5 1.5 0 0 1 1.5-1.5h2.752c-.35-.34-.633-.769-.748-1.298-.18-.823.107-1.583.51-2.185.506-.756 1.27-1.364 2.303-1.364.619 0 1.188.227 1.676.535.657.415 1.153 1.186 1.48 1.775.182.33.35.677.496 1.011.148-.334.317-.682.5-1.014.327-.59.823-1.358 1.478-1.774zM7.053 4.211c-.297.443-.409.855-.327 1.225.141.483.463.733 1.035 1.039.521.28 1.326.411 2.072.368.477.008.943-.01 1.321-.04a13 13 0 0 0-.51-1.221c-.364-.754-.822-1.497-1.277-1.81-.304-.21-.677-.37-1.05-.37q-.72 0-1.264.81M17.216 5.43q.12-.552-.328-1.221c-.594-.888-1.359-1.045-2.272-.468-.468.297-.943 1.06-1.318 1.835-.207.43-.385.862-.514 1.22.379.031.845.05 1.323.041.894-.015 1.828-.123 2.3-.421.456-.289.73-.622.809-.986m3.516 14.776c0 .886-.685 1.634-1.494 1.634H4.727c-.809 0-1.495-.748-1.495-1.634V14.3h17.5z"/></svg>