<svg width="24" height="24" fill="none" xmlns="http://www.w3.org/2000/svg"><path d="M7.453 3.454a.727.727 0 1 0 0-1.454.727.727 0 0 0 0 1.454ZM8.782 22H22V8.719c0-.735-.42-1.355-1.09-1.638a1.854 1.854 0 0 0-2.016.411l-3.078 3.08-6.646-6.65a.361.361 0 0 0-.515 0 .362.362 0 0 0 0 .515l6.95 6.97.064.024c.057.026.1.045.144.047.125.007.258-.127.774-.642L19.4 8.004a1.114 1.114 0 0 1 1.226-.252c.391.168.635.531.635.967v12.55H8.786c-.435 0-.79-.244-.958-.655a1.18 1.18 0 0 1 .252-1.274l3.321-3.324.024-.063a.416.416 0 0 0 .03-.094c.026-.167-.174-.366-1.471-1.664L2.623 6.829a.361.361 0 0 0-.515 0 .362.362 0 0 0 0 .516l8.463 8.468-3.014 3.015a1.885 1.885 0 0 0-.403 2.066C7.437 21.58 8.056 22 8.782 22Z" fill="#003"/></svg>