<svg width="24" height="24" fill="none" xmlns="http://www.w3.org/2000/svg"><path d="M15.317 2.495a.742.742 0 0 1-.733-.748c0-.415.334-.747.733-.747.4 0 .733.332.733.747a.742.742 0 0 1-.733.748ZM2.533 12.54 11.999 22l9.474-9.459c.523-.537.675-1.327.374-2.057-.3-.739-.984-1.213-1.741-1.213h-4.418V4.01a.37.37 0 0 0-.367-.374.37.37 0 0 0-.366.373v6.008h5.167c.56 0 .91.382 1.058.747.14.349.157.848-.218 1.23l-8.951 8.947-8.951-8.938c-.375-.382-.359-.89-.219-1.239.14-.357.499-.747 1.059-.747h5.142v-8.64a.37.37 0 0 0-.366-.374.37.37 0 0 0-.367.374V9.27H3.891c-.757 0-1.44.474-1.741 1.213-.293.73-.153 1.511.383 2.057Z" fill="#003"/></svg>