<svg width="24" height="24" fill="none" xmlns="http://www.w3.org/2000/svg"><path d="m20.13 15.668-7.457 4.334v-8.3l7.288-4.075v4.22c0 .19.155.343.346.343a.345.345 0 0 0 .347-.343V6.84l-4.17-2.422a.078.078 0 0 0-.025-.015l-.006-.003L12.326 2 4 6.84v9.32L12.327 21l8.153-4.739a.343.343 0 0 0 .125-.47.35.35 0 0 0-.475-.123Zm-.52-8.639-7.283 4.075-3.335-1.868 7.274-4.154 3.344 1.947ZM8.29 8.845 5.044 7.029l7.283-4.233 3.25 1.89L8.29 8.845ZM4.693 7.623 8.09 9.522a.24.24 0 0 0 .058.03l3.832 2.146v8.3l-7.287-4.23V7.624Z" fill="#003"/><path d="M20.307 14.59a.69.69 0 0 0 .693-.685.69.69 0 0 0-.693-.686.69.69 0 0 0-.693.686c0 .378.31.686.693.686Z" fill="#003"/></svg>