<svg width="24" height="24" fill="none" xmlns="http://www.w3.org/2000/svg"><path d="M17.928 19.145a.357.357 0 0 0 .715 0V17.74c0-2.364-1.89-4.203-4.716-4.811a4.66 4.66 0 0 0 1.569-1.288h1.349c.987 0 1.79-.8 1.79-1.783v-.916c0-1.788-.67-3.488-1.895-4.795a6.682 6.682 0 0 0-4.668-2.144 6.784 6.784 0 0 0-4.977 1.9 6.732 6.732 0 0 0-2.083 4.883.357.357 0 0 0 .714 0c0-1.664.663-3.216 1.863-4.371a6.05 6.05 0 0 1 4.451-1.7c3.235.116 5.868 2.907 5.868 6.223v.916c0 .591-.481 1.071-1.075 1.071h-.887a4.59 4.59 0 0 0 .525-2.143c0-2.56-2.09-4.643-4.66-4.643-2.568 0-4.66 2.083-4.66 4.643a4.643 4.643 0 0 0 2.561 4.143c-1.055.228-1.999.624-2.757 1.176C5.695 15.017 5 16.309 5 17.732v3.904a.357.357 0 0 0 .714 0v-3.903c0-1.192.59-2.276 1.662-3.056 1.112-.807 2.685-1.255 4.435-1.255 3.533 0 6.097 1.811 6.097 4.31v1.413h.02ZM7.886 8.79c0-2.168 1.77-3.927 3.941-3.927A3.939 3.939 0 0 1 15.77 8.79c0 .792-.237 1.527-.642 2.143h-3.304a.357.357 0 0 0-.357.356c0 .196.16.356.357.356h2.702a3.935 3.935 0 0 1-2.702 1.072c-2.167 0-3.937-1.764-3.937-3.927ZM18.282 22c.396 0 .718-.32.718-.716a.717.717 0 0 0-.718-.716.717.717 0 1 0 0 1.432Z" fill="#003"/></svg>