<svg width="24" height="24" fill="none" xmlns="http://www.w3.org/2000/svg"><path d="M8.918 21.962a.37.37 0 0 0 .354.29.37.37 0 0 0 .09-.017c2.605-.63 5.26-2.29 7.666-4.797 3.176-3.298 4.988-6.856 4.972-9.746-.008-1.446-.485-2.685-1.368-3.596l-1.442-1.47c-.781-.79-1.995-.84-2.703-.102l-2.158 2.244c-.326.332-.5.794-.5 1.285 0 .55.231 1.097.626 1.496l1.507 1.537c.33.332.492.773.492 1.32.008 1.222-.802 2.764-2.202 4.226-2.093 2.176-4.304 2.923-5.383 1.827l-1.507-1.537c-.781-.79-1.995-.84-2.703-.101L2.5 17.064c-.326.332-.501.794-.501 1.285 0 .55.232 1.097.627 1.496l1.441 1.47c.237.232.493.45.782.63a.35.35 0 0 0 .501-.117.374.374 0 0 0-.114-.517 4.041 4.041 0 0 1-.652-.53l-1.44-1.461a1.39 1.39 0 0 1-.412-.97c0-.299.098-.56.289-.757l2.15-2.251c.427-.446 1.18-.391 1.673.109l1.507 1.537c1.384 1.412 4.022.656 6.413-1.835 1.539-1.61 2.422-3.344 2.414-4.764 0-.74-.248-1.378-.708-1.845l-1.507-1.537a1.371 1.371 0 0 1-.411-.962c0-.298.098-.559.289-.756L17 3.045c.427-.445 1.18-.39 1.673.11l1.442 1.47c.765.781 1.152 1.819 1.16 3.08.008 2.692-1.722 6.053-4.764 9.216-2.316 2.407-4.849 3.987-7.32 4.592a.37.37 0 0 0-.273.45Z" fill="#003"/><path d="M7.098 23c.4 0 .724-.335.724-.748a.736.736 0 0 0-.724-.747c-.4 0-.725.334-.725.747s.324.748.725.748Z" fill="#003"/></svg>