<svg width="24" height="24" fill="none" xmlns="http://www.w3.org/2000/svg"><path d="M5 21.964 19.3 22c.212 0 .348-.144.348-.356s-.136-.356-.347-.356H5.699V3.824c0-.608.489-1.108 1.047-1.108h7.324c.278 0 .59.14.801.32l3.73 3.82c.208.216.348.5.348.752v9.748c0 .212.137.356.348.356.207 0 .348-.14.348-.356V7.572c0-.432-.211-.896-.56-1.252l-3.73-3.784A1.925 1.925 0 0 0 14.066 2H6.742C5.766 2 5 2.82 5 3.82v18.144Z" fill="#003"/><path d="M7.793 19.144h9.07v-8.32c0-.572-.558-.964-1.047-.964H8.84c-.488 0-1.047.392-1.047.964v8.32Zm8.367-.716H8.492V10.82c0-.108.172-.252.348-.252h6.973c.171 0 .347.144.347.252v7.608ZM20 19.5a.708.708 0 0 1-.7.716c-.385 0-.698-.32-.698-.716 0-.395.313-.716.699-.716.386 0 .699.32.699.716Z" fill="#003"/></svg>