<svg width="24" height="24" fill="none" xmlns="http://www.w3.org/2000/svg"><path d="M21.959 11.152c.009.041.014.078.009.114.018.243.032.485.032.732 0 1.897-.535 3.74-1.54 5.335a.36.36 0 0 1-.494.11.36.36 0 0 1-.11-.494 8.93 8.93 0 0 0 .663-1.258l-.997-2.276-2.688-.42-3.661 3.675.228 2.775 2.286 1.07h.003l.001.002.005.002c.43-.188.85-.407 1.253-.658a.355.355 0 0 1 .493.11c.105.168.06.388-.11.493A9.978 9.978 0 0 1 12.003 22c-.205 0-.411-.01-.612-.023l-.008.002-.008.002-.008.002c-.013.004-.026.008-.04.008a.328.328 0 0 1-.133-.028C6.055 21.547 2 17.241 2 11.998a9.993 9.993 0 0 1 4.617-8.42.355.355 0 0 1 .178-.115A9.921 9.921 0 0 1 11.998 2c.772 0 1.527.087 2.249.256.046 0 .091.014.137.032 4.1 1.006 7.214 4.549 7.575 8.864Zm-2.263 1.568 1.545-1.61a9.295 9.295 0 0 0-3.159-6.12l-2.354.457-1.138 2.24 2.354 4.603 2.752.43Zm-3.867-8.023 1.504-.297a9.367 9.367 0 0 0-2.355-1.198l.81 1.463c.013.01.027.018.04.032Zm-.677.297-1.138-2.061a9.469 9.469 0 0 0-2.02-.22c-1.752 0-3.388.485-4.787 1.33l-.274 2.231 1.91 1.902 5.107-.814 1.202-2.368Zm-8.727-.42a9.533 9.533 0 0 0-1.87 1.87l1.678-.325.192-1.545Zm.032 2.23-2.455.476a9.238 9.238 0 0 0-1.047 6.811l2.09.974L7.54 13.79l.8-5.107-1.884-1.878ZM4.418 17.352l.206-1.692-1.413-.658c.293.846.7 1.632 1.207 2.35Zm.92-1.632-.298 2.418a9.23 9.23 0 0 0 6.149 3.104l1.504-1.609-.238-2.875-4.594-2.332-2.524 1.294Zm6.806 5.559a9.299 9.299 0 0 0 2.61-.416l-1.545-.723-1.065 1.139Zm-3.886-7.452 4.471 2.268 3.543-3.548-2.286-4.466-4.95.79-.778 4.956Zm11.955-.612.662 1.513a9.39 9.39 0 0 0 .407-2.624l-1.07 1.11Z" fill="#003"/><path d="M18.782 19.495a.713.713 0 1 0 0-1.426.713.713 0 0 0 0 1.426Z" fill="#003"/></svg>