<svg width="24" height="24" fill="none" xmlns="http://www.w3.org/2000/svg"><path fill-rule="evenodd" clip-rule="evenodd" d="M12 2C6.484 2 2 6.484 2 12s4.484 10 10 10 10-4.484 10-10S17.516 2 12 2Zm0 18.576c-4.728 0-8.576-3.848-8.576-8.576 0-4.728 3.848-8.576 8.576-8.576 4.728 0 8.576 3.848 8.576 8.576 0 4.728-3.848 8.576-8.576 8.576Zm-.717-14.637a.722.722 0 0 1 .715-.715.722.722 0 0 1 .716.715v5.346l5.34.006a.722.722 0 0 1 .716.715c0 .198-.08.38-.207.507a.726.726 0 0 1-.506.206H12.71v5.346a.702.702 0 0 1-.713.713.722.722 0 0 1-.715-.716v-5.346H5.937a.722.722 0 0 1-.716-.715.722.722 0 0 1 .716-.716h5.346V5.94Z" fill="#003"/></svg>