<svg width="24" height="24" fill="none" xmlns="http://www.w3.org/2000/svg"><path d="M15.151 1c-.408 0-.742.356-.742.788v9.23h5.379c.369 0 .592.313.665.59.038.12.15.51-.112.788l-8.34 8.444-8.341-8.444c-.262-.277-.19-.669-.112-.788.112-.237.335-.59.666-.59h5.378v-9.23c0-.436-.335-.788-.742-.788-.408 0-.743.356-.743.788v7.66H4.214c-.889 0-1.705.63-2.04 1.531-.334.863-.188 1.848.447 2.477L12.001 23l9.379-9.508c.631-.67.781-1.61.447-2.513-.37-.906-1.151-1.531-2.04-1.531h-3.893v-7.66c0-.432-.335-.788-.743-.788Z" fill="#003"/></svg>