<svg width="24" height="24" fill="none" xmlns="http://www.w3.org/2000/svg"><path fill-rule="evenodd" clip-rule="evenodd" d="M13.683 2.08 20.72 6.05c.28.144.355.471.32.615v8.331c0 .256-.14.472-.351.616l-7.045 4.331c-.136.108-.42.144-.666.036l-2.11-1.083a.734.734 0 0 1-.315-.975.7.7 0 0 1 .951-.323l1.092.575v-6.709l-3.17-1.95L6.963 8V10.2c2.042.324 3.59 2.022 3.59 4.076 0 .971-.74 2.705-2.25 5.127-.806 1.298-1.547 2.345-1.582 2.381a.508.508 0 0 1-.425.216.498.498 0 0 1-.425-.216C5.45 21.241 2 16.338 2 14.244c0-2.058 1.548-3.756 3.625-4.08v-3.5c0-.256.036-.435.351-.615l7.04-3.968a.727.727 0 0 1 .667 0Zm-2.467 6.786 2.117 1.298 5.59-3.464-1.934-1.083-5.773 3.249Zm2.117-5.343 2.218 1.263L9.812 8 7.703 6.7l5.63-3.177Zm-5.91 15.264c1.333-2.13 2.109-3.792 2.109-4.547 0-1.698-1.439-3.06-3.236-3.06-1.797 0-3.24 1.37-3.24 3.064 0 1.187 1.829 4.256 3.24 6.278l.254-.386c.254-.384.561-.848.873-1.349Zm6.611-.763v-6.637l5.63-3.46v6.6l-5.63 3.497Zm-9.57-3.784c0 1.047.842 1.874 1.828 1.874.986 0 1.828-.863 1.828-1.874 0-1.01-.842-1.874-1.828-1.874-.986 0-1.828.823-1.828 1.874Zm2.6 0a.79.79 0 0 1-.776.795.79.79 0 0 1-.776-.795.79.79 0 0 1 .776-.795.79.79 0 0 1 .776.795Z" fill="#313235"/></svg>