<svg width="24" height="24" fill="none" xmlns="http://www.w3.org/2000/svg"><path fill-rule="evenodd" clip-rule="evenodd" d="M8.42 2h6.16C16.466 2 18 3.605 18 5.576v12.853C18 20.399 16.467 22 14.58 22H8.42C6.534 22 5 20.4 5 18.429V5.57C5 3.601 6.533 2 8.42 2ZM6.368 6.646v10.717h10.266V6.646H6.367ZM8.42 3.43h6.158c1.016 0 1.857.773 2.024 1.788H6.397c.167-1.015 1.008-1.788 2.024-1.788Zm0 17.147h6.158c1.016 0 1.857-.773 2.024-1.788H6.397c.167 1.015 1.008 1.788 2.024 1.788Zm5.633-10.183-.719-1.65a.503.503 0 0 0-.679-.266.543.543 0 0 0-.254.709l.526 1.207h-2.856l.526-1.207a.543.543 0 0 0-.254-.709.503.503 0 0 0-.68.265l-.718 1.651H7.094l.998 4.595c.136.522.666.942 1.183.942h4.45c.513 0 1.043-.425 1.187-.969l.994-4.568h-1.852Zm-.329 4.467c.057 0 .175-.096.193-.155l.7-3.237H8.378l.71 3.26c.013.032.131.128.188.132h4.45Z" fill="#003"/></svg>