<svg width="24" height="24" fill="none" xmlns="http://www.w3.org/2000/svg"><path fill-rule="evenodd" clip-rule="evenodd" d="M12 2C6.484 2 2 6.484 2 12s4.484 10 10 10 10-4.484 10-10S17.516 2 12 2Zm0 18.576c-4.728 0-8.576-3.848-8.576-8.576 0-4.728 3.848-8.576 8.576-8.576 4.728 0 8.576 3.848 8.576 8.576 0 4.728-3.848 8.576-8.576 8.576Zm3.78-13.368a.722.722 0 0 1 1.012 0 .722.722 0 0 1 0 1.012L13.012 12l3.772 3.78a.722.722 0 0 1 0 1.012.716.716 0 0 1-.504.212.726.726 0 0 1-.504-.212l-3.78-3.78-3.78 3.78a.702.702 0 0 1-1.008 0 .722.722 0 0 1 0-1.012l3.78-3.78-3.78-3.78a.722.722 0 0 1 0-1.012.722.722 0 0 1 1.012 0l3.78 3.78 3.78-3.78Z" fill="#003"/></svg>