<svg width="24" height="24" fill="none" xmlns="http://www.w3.org/2000/svg"><path fill-rule="evenodd" clip-rule="evenodd" d="M18.364 3h-5.82C10.539 3 8.91 4.703 8.91 6.799v.38H5.636C3.629 7.178 2 8.88 2 10.976v3.8c0 1.833 1.252 3.37 2.91 3.726v2.738a.76.76 0 0 0 .447.7.703.703 0 0 0 .796-.165L9.21 18.58h2.244c2.007 0 3.636-1.702 3.636-3.799v-.063l2.761 2.885c.14.146.326.223.512.223.093 0 .186-.019.28-.058a.76.76 0 0 0 .446-.7v-2.739c1.658-.355 2.91-1.887 2.91-3.726v-3.8C22 4.704 20.37 3 18.364 3Zm-4.73 11.781c0 1.255-.978 2.282-2.183 2.282H8.904a.696.696 0 0 0-.512.224l-2.03 2.12v-1.585c0-.419-.326-.76-.726-.76-1.201 0-2.183-1.02-2.183-2.28v-3.8c0-1.255.977-2.281 2.183-2.281h3.273v1.902c0 2.096 1.63 3.799 3.636 3.799h1.09v.38Zm4.73-1.897c1.206 0 2.183-1.026 2.183-2.281h.005v-3.8c0-1.259-.982-2.28-2.183-2.28h-5.82c-1.205 0-2.183 1.026-2.183 2.28v3.8c0 1.26.982 2.281 2.183 2.281h2.547c.19 0 .377.083.512.224l2.03 2.12v-1.585c0-.418.326-.759.726-.759Z" fill="#313235"/></svg>