<svg width="24" height="24" fill="none" xmlns="http://www.w3.org/2000/svg"><path fill-rule="evenodd" clip-rule="evenodd" d="M18.704 8.531A3.876 3.876 0 0 0 19.816 5.8c0-.376-.052-.745-.152-1.088l1.824-.51a.729.729 0 0 0 .488-.887c-.1-.385-.48-.615-.848-.51l-2.132.598C18.328 2.548 17.316 2 16.18 2c-2.004 0-3.632 1.703-3.632 3.8 0 1.1.448 2.091 1.168 2.786a4.996 4.996 0 0 0-.372.15.738.738 0 0 0-.364.95.682.682 0 0 0 .908.38c.684-.304 1.516-.468 2.4-.468 2.508 0 4.324 1.297 4.324 3.084v6.059c0 .401.308.723.692.723.384 0 .692-.322.692-.723v-6.059c.004-1.929-1.292-3.469-3.292-4.15ZM18.432 5.8c0 1.297-1.008 2.352-2.248 2.352-1.076 0-1.976-.795-2.196-1.85l4.34-1.217c.068.226.104.464.104.715Zm-1.004-1.958a2.177 2.177 0 0 0-1.244-.393c-.88 0-1.644.531-2.012 1.305l3.256-.912Zm-6.592 7.255a3.876 3.876 0 0 0 1.144-2.765c0-2.097-1.628-3.8-3.632-3.8-.436 0-.856.08-1.244.23-.028-1.158-.94-2.092-2.056-2.092-1.132 0-2.056.967-2.056 2.151v2.218H2l.476 1.037c.036.084.388.808 1.18 1.046.136.042.3.071.492.071.188 0 .404-.029.644-.108a3.838 3.838 0 0 0 1.064 2.008c-1.96.695-3.228 2.222-3.228 4.13v6c0 .401.308.724.692.724.384 0 .692-.323.692-.724v-6.004c0-1.063.612-1.754 1.12-2.143.788-.606 1.928-.941 3.2-.941 2.508 0 4.324 1.297 4.324 3.084v6.058c0 .402.308.724.692.724.384 0 .692-.322.692-.724v-6.058c0-1.9-1.256-3.423-3.204-4.122Zm-.24-2.761c0-.373-.08-.72-.228-1.034l-.696.18c-1.376.448-2.38 1.272-2.98 2.444a2.204 2.204 0 0 0 1.656.761c1.24 0 2.248-1.054 2.248-2.351ZM9.152 6.134C7.688 6.636 6.728 7.456 6.1 8.255c.036-1.263 1.032-2.28 2.248-2.28.284.004.556.058.804.159Zm-4.772.979c.004.121.004.36-.096.61.148-.033.296-.116.416-.196.036-.02.072-.042.112-.058a3.849 3.849 0 0 1 .94-1.791.908.908 0 0 1-.028-.21v-.652c0-.39-.3-.703-.672-.703-.372 0-.672.314-.672.703v2.297Z" fill="#003"/></svg>