<svg width="24" height="24" fill="none" xmlns="http://www.w3.org/2000/svg"><path fill-rule="evenodd" clip-rule="evenodd" d="M22 2.755a.8.8 0 0 0-.29-.604.68.68 0 0 0-.652-.113L8.35 5.822a.722.722 0 0 0-.544.718v9.646a3.42 3.42 0 0 0-2.178-.755C3.63 15.43 2 17.134 2 19.21S3.627 23 5.624 23s3.628-1.703 3.628-3.78V7.11L20.51 3.741v9.042a3.42 3.42 0 0 0-2.178-.755c-1.997 0-3.628 1.704-3.628 3.78 0 2.077 1.635 3.78 3.628 3.78s3.628-1.703 3.628-3.78C22 15.771 22 2.755 22 2.755ZM5.66 21.485c-1.2 0-2.178-1.023-2.178-2.27 0-1.246.982-2.27 2.178-2.27s2.179 1.024 2.179 2.27c0 1.247-.979 2.27-2.179 2.27Zm10.53-5.677c0 1.247.978 2.27 2.178 2.27 1.196 0 2.178-1.02 2.178-2.27 0-1.246-.982-2.27-2.178-2.27s-2.178 1.024-2.178 2.27Z" fill="#003"/></svg>