<svg width="24" height="24" fill="none" xmlns="http://www.w3.org/2000/svg"><path fill-rule="evenodd" clip-rule="evenodd" d="m21.151 3.887.634-.634a.734.734 0 0 0-1.038-1.038l-.615.615a3.686 3.686 0 0 0-2.085-.62 3.76 3.76 0 0 0-2.621 1.109L9.555 9.186 4.947 7.983l-2.921 2.391 3.095 3.241-.756.757 5.265 5.265.714-.714 3.057 3.04 2.616-2.88-1.202-4.636 5.871-5.872a3.727 3.727 0 0 0 .465-4.688Zm-4.105 4.35c.705 0 1.282-.573 1.282-1.283 0-.704-.577-1.282-1.282-1.282-.704 0-1.282.578-1.282 1.282 0 .705.578 1.283 1.282 1.283ZM6.16 12.577l2.193-2.189L5.3 9.594l-1.117.912 1.977 2.071Zm5.223 5.308 2.23-2.236.79 3.035-1.052 1.155-1.968-1.954Zm8.261-13.528-.216-.22a2.17 2.17 0 0 0-1.366-.457 2.28 2.28 0 0 0-1.597.677L6.44 14.372 9.63 17.56 19.643 7.537a2.248 2.248 0 0 0 0-3.18ZM5.463 17.758a.55.55 0 1 1 .78.78L2.943 21.84a.547.547 0 0 1-.39.16.55.55 0 0 1-.39-.94l3.302-3.302Zm-2.911.573c.14 0 .282-.051.39-.16l1.465-1.47a.55.55 0 0 0 0-.78.55.55 0 0 0-.78 0l-1.465 1.466a.55.55 0 0 0 0 .78.533.533 0 0 0 .39.164Zm3.283 2.73L7.3 19.595a.55.55 0 0 1 .78 0 .55.55 0 0 1 0 .78L6.615 21.84a.547.547 0 0 1-.39.16.55.55 0 0 1-.39-.94Z" fill="#003"/></svg>