<svg width="24" height="24" fill="none" xmlns="http://www.w3.org/2000/svg"><path fill-rule="evenodd" clip-rule="evenodd" d="M15.332 3.624h5.922a.749.749 0 0 1 .004 1.5h-1.48v14.625c0 1.239-1 2.251-2.223 2.251H6.445c-1.223 0-2.222-1.012-2.222-2.25V5.127h-1.48A.746.746 0 0 1 2 4.376c0-.416.336-.752.742-.752h5.922v-.373c0-1.239 1-2.251 2.223-2.251h2.222c1.224 0 2.223 1.012 2.223 2.25v.374ZM10.891 2.5c-.41 0-.742.34-.742.752h.004v.373h3.703v-.373a.749.749 0 0 0-.743-.752h-2.222Zm7.402 17.246a.749.749 0 0 1-.742.752H6.444a.749.749 0 0 1-.742-.752V5.124h12.59v14.621ZM9.406 6.623a.749.749 0 0 0-.742.751v10.872c0 .412.332.752.742.752s.742-.336.742-.752V7.374a.752.752 0 0 0-.742-.751Zm4.441.751v10.872c0 .412.332.752.743.752.41 0 .742-.336.742-.752V7.374a.749.749 0 0 0-.742-.751c-.41 0-.743.34-.743.751Z" fill="#003"/></svg>