<svg xmlns="http://www.w3.org/2000/svg" width="24" height="24" fill="none"><path fill="#0B2739" d="M11.35 9.766a.625.625 0 1 1 1.25 0v4.25a.625.625 0 1 1-1.25 0v-4.25ZM11.975 17.131a.625.625 0 1 0 0-1.25.625.625 0 0 0 0 1.25Z"/><path fill="#0B2739" d="M13.463 4.14c-.646-1.134-2.28-1.134-2.927 0L2.533 18.195a1.684 1.684 0 0 0 1.463 2.517h16.007a1.684 1.684 0 0 0 1.463-2.517L13.463 4.14Zm6.917 14.672a.434.434 0 0 1-.377.65H3.996a.434.434 0 0 1-.377-.65L11.623 4.76a.434.434 0 0 1 .754 0l8.003 14.053Z"/></svg>