<svg xmlns="http://www.w3.org/2000/svg" width="24" height="24" fill="none"><path fill="#000" d="M11.996 2.15c-3.123 0-5.557.818-7.23 2.429C3.03 6.254 2.15 8.749 2.15 11.996c0 3.246.88 5.742 2.616 7.417 1.673 1.61 4.107 2.429 7.23 2.429s5.557-.818 7.23-2.429c1.736-1.675 2.616-4.168 2.616-7.417 0-3.25-.88-5.745-2.616-7.417-1.673-1.611-4.107-2.429-7.23-2.429Zm8.596 9.846c0 3.032-.817 5.151-2.234 6.518-1.369 1.317-3.449 2.078-6.362 2.078-2.914 0-4.994-.76-6.362-2.078-1.417-1.367-2.234-3.49-2.234-6.518 0-3.029.817-5.15 2.234-6.517C7.002 4.16 9.082 3.4 11.996 3.4s4.994.761 6.362 2.079c1.416 1.363 2.234 3.485 2.234 6.517Zm-9.156 5.994a.56.56 0 1 0 1.12 0v-.762c.844-.095 1.549-.374 2.062-.82.63-.547.963-1.317.963-2.23 0-.815-.266-1.476-.784-1.964-.509-.478-1.263-.787-2.242-.917l-.001-3.189a4.23 4.23 0 0 1 1.372.487l.008.006c.107.053.25.115.41.115a.663.663 0 0 0 .663-.664c0-.252-.143-.48-.403-.639-.568-.351-1.281-.577-2.05-.654v-.755a.562.562 0 0 0-.561-.56.562.562 0 0 0-.56.56v.754c-1.71.19-2.787 1.316-2.787 2.974 0 1.085.493 2.434 2.788 2.81l.001 3.35c-.626-.095-1.256-.353-1.879-.767a.872.872 0 0 0-.454-.146.688.688 0 0 0-.694.68c0 .256.109.457.333.614.78.545 1.74.89 2.694.972v.745Zm1.119-5.29c1.444.282 1.65.928 1.65 1.534 0 .892-.617 1.498-1.65 1.658V12.7Zm-2.058-4.183c.236-.212.555-.353.936-.417l.001 3.022c-.436-.107-.769-.258-.996-.454-.285-.246-.417-.566-.417-1.008 0-.47.165-.866.476-1.143Z"/></svg>