<svg xmlns="http://www.w3.org/2000/svg" width="24" height="24" fill="none"><path fill="#000" d="M3 9.36C3 6.51 4.855 3.5 8.103 3.5c1.571 0 2.717.804 3.452 1.84.169.238.317.49.445.748q.192-.39.445-.748c.735-1.036 1.88-1.84 3.452-1.84C19.145 3.5 21 6.51 21 9.36c0 2.978-1.388 5.146-3.18 6.865-1.271 1.217-2.748 2.215-4.077 3.113l-.02.014c-.19.128-.405.266-.615.4l-.09.06c-.243.155-.471.303-.66.435l-.358.251-.359-.251a21 21 0 0 0-.658-.436l-.091-.058c-.21-.135-.426-.273-.615-.401l-.02-.014c-1.33-.898-2.805-1.896-4.076-3.113C4.388 14.506 3 12.338 3 9.359m9.625-.7h-1.25c0-.787-.274-1.799-.84-2.597-.55-.776-1.346-1.313-2.432-1.313-2.3 0-3.853 2.16-3.853 4.61 0 2.53 1.158 4.392 2.796 5.962 1.187 1.138 2.582 2.082 3.93 2.994.177.119.38.249.59.385l.092.059q.172.11.342.221l.341-.221.092-.06c.212-.135.414-.265.59-.384 1.35-.912 2.744-1.856 3.931-2.994 1.638-1.57 2.796-3.433 2.796-5.963 0-2.449-1.553-4.609-3.853-4.609-1.086 0-1.881.537-2.432 1.313-.566.798-.84 1.81-.84 2.597"/></svg>