<svg xmlns="http://www.w3.org/2000/svg" width="24" height="24" fill="none"><path fill="#000" d="M8.994 6.156a.51.51 0 0 1 .733 0l1.98 2.033-1.98 2.034a.51.51 0 0 1-.733 0 .543.543 0 0 1 0-.753l.728-.748H6.134c-.237 0-.515.126-.745.362s-.352.522-.352.762v5.965c0 .239.123.524.353.761s.51.363.744.363h5.002c.286 0 .518.239.518.533a.526.526 0 0 1-.518.532H6.134c-.573 0-1.102-.29-1.477-.675S4 16.397 4 15.811V9.846c0-.586.28-1.129.655-1.514.376-.386.905-.675 1.479-.675h3.588l-.728-.748a.54.54 0 0 1 0-.753m3.352 2.033c0-.294.232-.532.518-.532h6.617c.287 0 .519.238.519.532a.526.526 0 0 1-.519.533h-6.617a.526.526 0 0 1-.518-.533m0 4.64c0-.295.232-.533.518-.533h6.617c.287 0 .519.238.519.532a.526.526 0 0 1-.519.533h-6.617a.526.526 0 0 1-.518-.533m0 4.639c0-.294.232-.533.518-.533h6.617c.287 0 .519.239.519.533a.526.526 0 0 1-.519.532h-6.617a.526.526 0 0 1-.518-.532"/></svg>