<svg xmlns="http://www.w3.org/2000/svg" width="24" height="24" fill="none"><path fill="#000" d="M7.754 16.548v2.981c0 1.365 1.079 2.471 2.41 2.471h3.672c1.331 0 2.41-1.106 2.41-2.47v-2.982c0-1.023.54-2 1.265-2.946A7.26 7.26 0 0 0 19 9.176C19 5.213 15.866 2 12 2S5 5.213 5 9.176c0 1.67.557 3.207 1.49 4.426.723.947 1.264 1.922 1.264 2.946M12 3.176c3.232 0 5.852 2.687 5.852 6 0 1.397-.464 2.68-1.244 3.7-.758.99-1.51 2.234-1.51 3.672v.51h-2.524v-3.176a.58.58 0 0 0-.574-.588.58.58 0 0 0-.574.588v3.177H8.902v-.511c0-1.438-.752-2.681-1.51-3.672a6.07 6.07 0 0 1-1.244-3.7c0-3.313 2.62-6 5.852-6m-3.098 15.06h6.196v1.293c0 .715-.565 1.294-1.262 1.294h-3.672c-.697 0-1.262-.579-1.262-1.294z"/></svg>