<svg xmlns="http://www.w3.org/2000/svg" width="24" height="24" fill="none"><path fill="#000" d="M12.458 3.505a.666.666 0 0 1 .05.94l-.015.017a.666.666 0 1 1-.99-.892l.014-.016a.666.666 0 0 1 .941-.05M4.8 4.666a.133.133 0 0 0-.133.134v2.399c0 .074.06.133.133.133h2.4c.073 0 .133-.06.133-.133v-2.4a.133.133 0 0 0-.133-.133H4.8M3.334 4.8c0-.81.656-1.467 1.466-1.467h2.4c.81 0 1.466.657 1.466 1.467v2.399c0 .81-.657 1.466-1.466 1.466H4.8c-.81 0-1.466-.656-1.466-1.466v-2.4m13.463-.134a.133.133 0 0 0-.133.134v2.399c0 .074.06.133.133.133h2.4c.073 0 .133-.06.133-.133v-2.4a.133.133 0 0 0-.134-.133h-2.4M15.33 4.8c0-.81.656-1.467 1.466-1.467h2.4c.81 0 1.466.657 1.466 1.467v2.399c0 .81-.657 1.466-1.467 1.466h-2.4c-.809 0-1.465-.656-1.465-1.466v-2.4m-2.873 2.702a.666.666 0 0 1 .05.941l-.015.016a.667.667 0 0 1-.99-.891l.014-.017a.666.666 0 0 1 .941-.05m0 4a.667.667 0 0 1 .05.942l-.015.016a.666.666 0 1 1-.99-.892l.014-.016a.666.666 0 0 1 .942-.05m7.999 0a.666.666 0 0 1 .049.942l-.015.016a.666.666 0 1 1-.99-.892l.015-.016a.666.666 0 0 1 .94-.05m-17.123.496c0-.368.298-.667.666-.667h4a.666.666 0 0 1 0 1.333H4a.666.666 0 0 1-.666-.666Zm12.663-.667c.368 0 .667.299.667.667v3.999a.666.666 0 1 1-1.333 0v-4c0-.367.298-.666.666-.666m-3.538 4.171a.667.667 0 0 1 .049.941l-.015.016a.666.666 0 1 1-.99-.892l.014-.016a.667.667 0 0 1 .942-.049m7.998 0a.666.666 0 0 1 .049.941l-.015.017a.667.667 0 0 1-.99-.893l.015-.016a.666.666 0 0 1 .94-.049M4.8 16.664a.133.133 0 0 0-.133.133v2.4c0 .073.06.133.133.133h2.4c.073 0 .133-.06.133-.134v-2.4a.133.133 0 0 0-.133-.132H4.8m-1.466.133c0-.81.656-1.466 1.466-1.466h2.4c.81 0 1.466.656 1.466 1.466v2.4c0 .81-.657 1.466-1.466 1.466H4.8c-.81 0-1.466-.657-1.466-1.467v-2.4m17.123 2.702a.666.666 0 0 1 .049.942l-.015.016a.666.666 0 0 1-.99-.892l.014-.017a.666.666 0 0 1 .942-.049m-9.126.495c0-.368.299-.666.667-.666h3.999a.666.666 0 1 1 0 1.333h-4a.666.666 0 0 1-.666-.667"/></svg>