<svg xmlns="http://www.w3.org/2000/svg" width="24" height="24" fill="none"><path fill="#0B2739" d="M17.46 9c.062 0 .124 0 .177-.002.572-.01 2.863-.225 2.863-2.99 0-2.759-2.286-2.99-2.875-3.005A9.162 9.162 0 0 0 17.4 3h-.06c-.603.005-2.841.212-2.841 2.99 0 .2.011.385.033.559l-5.74 3.349C8.068 9.11 7 9.012 6.624 9.003A9.169 9.169 0 0 0 6.4 9h-.06c-.603.005-2.841.212-2.841 2.99 0 2.783 2.26 3 2.863 3.01h.097c.062 0 .124 0 .177-.002.367-.007 1.44-.098 2.164-.89l5.73 3.342a4.54 4.54 0 0 0-.031.54c0 2.783 2.26 3 2.863 3.01h.097c.062 0 .124 0 .177-.002.572-.01 2.863-.225 2.863-2.99 0-2.759-2.286-2.99-2.875-3.005A9.204 9.204 0 0 0 17.4 15h-.06c-.437.004-1.735.113-2.415 1.233L9.384 13c.075-.288.117-.616.117-.992 0-.382-.044-.715-.12-1.006l5.556-3.241c.688 1.116 1.99 1.232 2.427 1.238L17.46 9Zm.134-4.748c.208.005.66.054 1.025.283.271.17.631.512.631 1.473 0 .964-.36 1.3-.627 1.466-.36.225-.806.27-1.008.274a9.888 9.888 0 0 1-.22.002h-.015c-.212-.004-.655-.05-1.009-.273-.258-.163-.621-.503-.621-1.486 0-.987.36-1.32.61-1.478.344-.216.774-.26.987-.263h.054c.069 0 .138 0 .193.002Zm0 12c.208.005.66.054 1.025.283.271.17.631.512.631 1.473 0 .963-.36 1.3-.627 1.466-.36.224-.806.27-1.008.274a10.136 10.136 0 0 1-.22.002h-.015c-.212-.004-.655-.05-1.009-.273-.258-.163-.621-.503-.621-1.486 0-.986.36-1.32.61-1.478.344-.216.774-.26.987-.263h.054c.069 0 .138 0 .193.002Zm-11.001-6c.208.005.661.054 1.026.283.271.17.631.512.631 1.473 0 .964-.36 1.3-.627 1.466-.36.224-.806.27-1.008.274a10.137 10.137 0 0 1-.22.002H6.38c-.212-.004-.655-.05-1.009-.273-.258-.163-.621-.503-.621-1.486 0-.986.36-1.32.61-1.478.344-.216.774-.26.987-.263h.054c.069 0 .137 0 .192.002Z"/></svg>