<svg xmlns="http://www.w3.org/2000/svg" width="24" height="24" fill="none"><path fill="#000" d="M3.998 17.364c.298-.073.61-.111.93-.111 2.125 0 3.846 1.692 3.846 3.779 0 .335-.044.66-.127.968h1.552a5.093 5.093 0 0 0 .09-.968c0-2.91-2.4-5.268-5.36-5.268-.318 0-.629.027-.931.079v1.521ZM6.045 20.954a1.023 1.023 0 1 1-2.046-.001 1.023 1.023 0 0 1 2.046.001Z"/><path fill="#000" d="M2.267 10.833c.06-.086.135-.17.21-.26l1.767-1.736v-.002l6.448-6.338c.672-.663 1.941-.663 2.615 0l8.21 8.067c.476.466.613 1.123.354 1.714-.27.625-.925 1.029-1.66 1.029H19.7v7.035c0 .898-.797 1.63-1.777 1.635H12.66a7.685 7.685 0 0 0 .053-1.269h.005a7.63 7.63 0 0 0-7.267-7.302c-.137-.006-1.505-.039-1.668-.039-.666 0-1.247-.316-1.555-.844-.277-.404-.344-1.136.039-1.69Zm2.823 1.194c4.89 0 8.874 3.837 9.04 8.681h3.782a.6.6 0 0 0 .405-.146c.088-.08.112-.16.112-.22v-8.304h1.783c.282 0 .444-.15.493-.263l.002-.005a.223.223 0 0 0 .019-.14.322.322 0 0 0-.098-.161L12.417 3.4c-.057-.055-.2-.133-.42-.133-.218 0-.36.078-.414.131l-.001.002-8.217 8.076a.403.403 0 0 0-.08.109.227.227 0 0 0-.018.051c-.01.051.001.101.022.148.048.112.21.263.493.263.437-.02.87-.02 1.307-.02Z"/></svg>