<svg xmlns="http://www.w3.org/2000/svg" width="24" height="24" fill="none"><path fill="#000" d="M3.277 7.806c0-.579.476-1.048 1.063-1.048h9.362c.588 0 1.064.47 1.064 1.048v8.388c0 .579-.476 1.048-1.064 1.048H4.34c-.587 0-1.063-.47-1.063-1.049zm12.766 2.972V7.806c0-1.273-1.048-2.306-2.34-2.306H4.34C3.048 5.5 2 6.533 2 7.806v8.388C2 17.467 3.048 18.5 4.34 18.5h9.362c1.293 0 2.34-1.033 2.34-2.306v-2.972l4.949 3.484c.194.136.45.155.663.047a.63.63 0 0 0 .346-.56V7.808a.63.63 0 0 0-.346-.56.65.65 0 0 0-.663.048zm4.68 4.193-4.22-2.97 4.22-2.972z"/></svg>