<svg width="24" height="24" fill="none" xmlns="http://www.w3.org/2000/svg"><path fill-rule="evenodd" clip-rule="evenodd" d="M12.863 7.397c1.887 1.088 3.657 2.308 3.657 4.585 0 2.278-1.77 3.497-3.66 4.588 1.887 1.089 3.657 2.308 3.657 4.586 0 .226-.201.412-.45.412-.25 0-.451-.186-.451-.412 0-1.98-1.72-3.03-3.607-4.1-1.885 1.07-3.607 2.12-3.607 4.1 0 .226-.202.412-.451.412-.25 0-.451-.186-.451-.412 0-2.275 1.773-3.497 3.66-4.586-.904-.523-1.773-1.08-2.442-1.764a.421.421 0 0 1-.17-.191c-.628-.707-1.045-1.544-1.045-2.633 0-2.275 1.772-3.497 3.66-4.585-1.89-1.088-3.66-2.308-3.66-4.585 0-.227.201-.412.45-.412.25 0 .452.185.452.412 0 1.98 1.722 3.03 3.606 4.1 1.885-1.07 3.607-2.12 3.607-4.1 0-.227.202-.412.451-.412.25 0 .451.185.451.412 0 2.275-1.77 3.497-3.657 4.585ZM10.068 9.11c.574-.439 1.246-.835 1.94-1.227.698.395 1.37.79 1.941 1.227h-3.881Zm-.882.824h5.648c.398.472.658 1.012.74 1.65H8.447a3.153 3.153 0 0 1 .739-1.65Zm2.823 6.148c.683-.387 1.344-.772 1.91-1.2H10.1c.566.425 1.227.813 1.908 1.2ZM9.21 14.058a3.127 3.127 0 0 1-.759-1.647h7.116a3.14 3.14 0 0 1-.759 1.647H9.211Z" fill="#313235"/></svg>