<svg width="24" height="24" fill="none" xmlns="http://www.w3.org/2000/svg"><path fill-rule="evenodd" clip-rule="evenodd" d="M21.694 18.15a.42.42 0 0 1 .123.459.404.404 0 0 1-.383.272h-5.496c0 .51-.107 1.412-.723 2.103-.51.566-1.238.86-2.182.86-.936 0-1.672-.294-2.182-.86-.608-.689-.714-1.6-.714-2.1H4.64a.41.41 0 0 1-.255-.729c.493-.409.902-.96 1.213-1.624-1.563-.499-3.443-1.813-3.443-5.258 0-4.499 3.182-5.342 4.709-5.482 1.544-3.738 5.787-3.636 6.164-3.627h.004c.255-.017 2.922-.132 4.849 1.664 1.246 1.165 1.888 2.857 1.888 5.039v3.88c-.011.06-.2 3.663 1.924 5.403Zm-1.238-.093c-1.69-2.092-1.518-5.185-1.51-5.333V8.87c0-1.947-.549-3.44-1.625-4.44-1.676-1.562-4.102-1.452-4.248-1.446h-.032l-.008.002c-.006.002-.013.004-.025-.002-.165-.008-3.75-.2-5.233 2.782h.14c1.084.025 5.3.45 5.3 5.54 0 5.104-4.216 5.5-5.274 5.513-.098.009-.213.009-.337.009h-.17a7.817 7.817 0 0 1-1.017-.107 6.048 6.048 0 0 1-.79 1.336h14.829Zm-5.857 2.381c.434-.493.515-1.173.515-1.557h-4.157c0 .378.073 1.067.516 1.557.344.387.868.583 1.557.583.7 0 1.227-.196 1.569-.583ZM7.448 16.01c-1.345-.026-4.471-.527-4.471-4.737 0-4.202 3.092-4.678 4.423-4.695h.098c.137 0 .277 0 .4.009 1.353.033 4.496.557 4.496 4.72 0 4.17-3.126 4.669-4.47 4.694-.098.009-.205.009-.32.009h-.156Zm2.994-4.328c.23 0 .409-.18.409-.41a.41.41 0 0 0-.409-.41H8.095V8.538a.415.415 0 0 0-.41-.409.41.41 0 0 0-.408.409v2.325H4.929a.413.413 0 0 0-.409.409c0 .23.188.409.41.409h2.347v2.356a.41.41 0 0 0 .818 0v-2.356h2.347Z" fill="#313235"/></svg>