<svg width="24" height="24" fill="none" xmlns="http://www.w3.org/2000/svg"><path fill-rule="evenodd" clip-rule="evenodd" d="M10.63 16.918h6.554c.754 0 1.39-.255 1.897-.753.49-.493.854-1.208 1.106-2.182.118-.454.507-2.017.882-3.53l.364-1.458.393-1.57a.28.28 0 0 0-.272-.35h-3.818V3.859c0-1.145-.552-1.703-1.683-1.703h-3.751c-1.118 0-1.684.572-1.684 1.703v3.213H7.051c-.25-1.492-.457-2.724-.514-3.045a2.174 2.174 0 0 0-.854-1.347 2.675 2.675 0 0 0-1.608-.524H2.436a.28.28 0 0 0-.28.28c0 .154.126.28.28.28h1.639c.468 0 .919.146 1.269.412.344.258.569.61.639.997.16.894 1.495 8.928 1.638 9.827.154.963.507 1.711 1.053 2.227.513.484 1.19.74 1.956.74Zm10.565-9.283h-3.459v3.754c-.003 1.148-.552 1.706-1.683 1.706h-3.751c-1.132 0-1.684-.558-1.684-1.704V7.633H7.145c.433 2.594.947 5.694 1.03 6.233.253 1.608 1.127 2.496 2.455 2.496h6.554c.608 0 1.098-.196 1.499-.597.414-.414.737-1.061.96-1.924.075-.285.256-1.01.474-1.887l.409-1.637.015-.062c.253-1.014.492-1.98.654-2.619ZM9.257 20.462c0 .87.501 1.372 1.373 1.372.874 0 1.372-.501 1.372-1.372 0-.872-.501-1.373-1.372-1.373-.872 0-1.373.501-1.373 1.373Zm1.373-.813c-.563 0-.813.25-.813.813s.25.812.813.812.812-.25.812-.812c0-.564-.25-.813-.812-.813Zm4.09.813c0 .87.5 1.372 1.372 1.372.874 0 1.372-.501 1.372-1.372 0-.872-.501-1.373-1.372-1.373-.871 0-1.373.501-1.373 1.373Zm1.372-.813c-.563 0-.812.25-.812.813s.249.812.812.812c.563 0 .812-.25.812-.812 0-.564-.25-.813-.812-.813ZM11.179 3.86c0-.82.316-1.143 1.123-1.143h3.75c.819 0 1.124.309 1.124 1.143v7.53c0 .423-.087.717-.255.888-.168.17-.454.255-.868.255h-3.751c-.415 0-.698-.082-.868-.255-.171-.174-.255-.465-.255-.888v-7.53Zm2.409 7.054c0-.404.23-.591.588-.591s.59.187.588.59c0 .197-.053.34-.148.438-.104.106-.255.156-.44.156s-.336-.05-.44-.156c-.095-.098-.148-.244-.148-.437Z" fill="#313235"/></svg>