<svg width="24" height="24" fill="none" xmlns="http://www.w3.org/2000/svg"><path fill-rule="evenodd" clip-rule="evenodd" d="M11.067 2.156c.82 0 4.907.182 6.086 3.773 1.412.107 4.69.813 4.69 5.014 0 4.807-4.306 5.048-5.174 5.048l-.375.008v3.905c0 .72-.56 1.258-1.673 1.588-.762.224-1.756.348-2.793.348-1.044 0-2.033-.123-2.792-.348-1.12-.33-1.68-.868-1.68-1.588v-3.863a.062.062 0 0 0-.022.005c-.006.002-.012.004-.02.004h-.92c-2.047 0-4.238-1.093-4.238-4.171 0-2.507 1.454-3.49 2.507-3.874.11-5.569 5.342-5.849 6.404-5.849Zm5.227 13.017.375-.008c1.02 0 4.339-.297 4.336-4.222 0-3.692-2.927-4.17-4.188-4.204a.425.425 0 0 1-.392-.305c-.885-3.286-4.622-3.451-5.358-3.451-1.311 0-5.575.372-5.575 5.212l.009.11a.408.408 0 0 1-.303.395c-1.465.414-2.207 1.482-2.207 3.179 0 3.02 2.373 3.342 3.403 3.342h.92l.013.003c.008.002.018.005.028.005v-3.857c0-.115.017-.233.05-.339.16-.555.704-.975 1.63-1.25 1.513-.453 4.065-.453 5.586 0 1.112.334 1.673.872 1.673 1.592v3.798ZM9.27 10.582c-.56.165-.91.378-1.028.62.11.232.468.453 1.037.63 1.364.405 3.739.405 5.1 0 .566-.166.927-.387 1.037-.62-.135-.308-.62-.507-1.037-.63-.686-.207-1.588-.314-2.549-.314-.972 0-1.874.107-2.56.314Zm6.188 3.557c-.118.2-.451.471-1.07.653-1.37.406-3.745.406-5.107 0-.644-.19-.977-.457-1.087-.644v-1.894c.27.157.555.283.855.373.753.224 1.748.347 2.784.347 1.045 0 2.04-.123 2.793-.347.291-.09.571-.21.835-.364-.003-.003-.003 1.876-.003 1.876Zm-1.07 3.63c.619-.181.952-.453 1.07-.652v-1.902c-.26.16-.54.286-.835.373-.754.224-1.748.347-2.784.347-1.045 0-2.04-.123-2.793-.347-.336-.101-.61-.224-.854-.364v1.901c.109.197.434.454 1.095.645 1.356.406 3.731.406 5.1 0Zm1.07 2.138c0 .39-.586.644-1.079.793-1.372.406-3.728.406-5.109 0-.493-.149-1.078-.406-1.078-.793V18.2c.243.14.518.266.854.364.754.224 1.748.348 2.793.348 1.036 0 2.03-.127 2.784-.348.294-.084.577-.21.835-.372v1.714Z" fill="#313235"/></svg>