<svg width="24" height="24" fill="none" xmlns="http://www.w3.org/2000/svg"><path fill-rule="evenodd" clip-rule="evenodd" d="M21.425 7.806a.12.12 0 0 0 .009.028c.266.972.409 2.056.409 3.269 0 5.849-3.143 8.938-9.076 8.938a13.54 13.54 0 0 1-2.46-.204H10.3v.221c0 .667-.515 1.157-1.54 1.462-.692.205-1.594.32-2.536.32-.94 0-1.831-.115-2.523-.32-1.026-.302-1.544-.795-1.544-1.462v-7.655c0-.107.017-.216.042-.325.152-.51.659-.894 1.502-1.149.02-1.134.15-2.162.4-3.09.004-.005.006-.012.008-.021a.136.136 0 0 1 .017-.043c1.023-3.686 3.958-5.619 8.642-5.619 4.683 0 7.616 1.933 8.65 5.622.004.01.006.02.008.028Zm-9.075-.269H8.708C9.417 5.106 10.8 3.3 12.35 3.017v4.52Zm.832-4.518c1.5.28 2.775 2.045 3.408 4.518h-3.409V3.02Zm4.333 11.322h3.059c.285-.944.434-2.022.434-3.238 0-1.011-.101-1.924-.294-2.745h-3.09c.151.854.233 1.767.233 2.72 0 1.16-.124 2.26-.342 3.263Zm-.2.82c-.475 1.645-1.218 2.984-2.134 3.838 2.51-.476 4.21-1.759 5.101-3.837h-2.966Zm-4.134 4.02v-4.02h3.261c-.67 2.205-1.868 3.757-3.26 4.02Zm3.592-10.82h-3.591v5.983h3.481c.235-.994.359-2.106.359-3.263 0-.956-.09-1.866-.25-2.72Zm.686-.824h3.025c-.818-2.372-2.594-3.826-5.291-4.339 1.005.939 1.815 2.465 2.266 4.34Zm-7.16 6.804h2.05v-5.98H8.507a12.615 12.615 0 0 0-.283 2.448c.18.03.356.073.533.123 1.028.303 1.543.796 1.543 1.47v1.94Zm2.05 4.866a13.67 13.67 0 0 1-1.893-.171.51.51 0 0 0-.16 0v-3.874h2.05c.004 0 .004 4.045.004 4.045Zm-3.826-3.773c.507-.157.824-.387.941-.566 0 0 0-1.603-.002-1.603a3.715 3.715 0 0 1-.71.289c-.683.204-1.582.32-2.523.32-.941 0-1.84-.116-2.524-.32a3.234 3.234 0 0 1-.717-.294v1.624c.101.163.384.379.961.55 1.216.364 3.35.364 4.574 0Zm.941 2.112c-.106.17-.4.403-.94.568-1.228.362-3.36.362-4.575 0-.577-.17-.868-.395-.96-.56v-1.636c.206.115.442.221.716.303.684.199 1.583.313 2.524.313.941 0 1.84-.114 2.532-.31.26-.082.493-.188.7-.306.003 0 .003 1.628.003 1.628Zm-.95 3.196c.36-.107.95-.34.95-.684v-1.46c-.207.116-.44.222-.7.295-.692.204-1.59.322-2.532.322-.941 0-1.84-.118-2.524-.322a3.535 3.535 0 0 1-.717-.294v1.46c0 .347.591.576.95.683 1.224.361 3.35.361 4.574 0Zm-4.573-9.023c1.224-.361 3.35-.361 4.574 0 .3.09.776.272.907.533-.075.131-.283.327-.907.518-1.216.361-3.35.361-4.566 0-.493-.149-.801-.336-.908-.535.107-.185.415-.376.9-.516Zm3.7-3.358H4.815a11.703 11.703 0 0 0-.275 2.4 11.563 11.563 0 0 1 2.852-.075c.022-.782.106-1.558.249-2.325Zm2.574-5.143c-1.059.952-1.907 2.47-2.392 4.32H5.055c.802-2.343 2.535-3.78 5.16-4.32Z" fill="#313235"/></svg>