<svg width="24" height="24" fill="none" xmlns="http://www.w3.org/2000/svg"><path fill-rule="evenodd" clip-rule="evenodd" d="m5.317 2.156 15.319.003c.63 0 1.207.67 1.204 1.409v16.594c0 .753-.563 1.412-1.207 1.412H9.373a.36.36 0 0 1-.185-.05 4.167 4.167 0 0 1-.695.187c-.384.09-.773.132-1.162.132-.029 0-.056-.003-.083-.005-.027-.002-.055-.004-.083-.004-.009 0-.017 0-.024.002a.415.415 0 0 1-.088-.006c-.017-.003-.033-.006-.05-.007-1.493-.093-2.939-.79-3.855-1.958-1.885-2.4-.812-5.91.958-8.02V3.568c0-.74.577-1.412 1.21-1.412Zm-.003.835h3.232v5.33l-3.61-.008V3.568c0-.317.252-.577.378-.577Zm.221 8.591c-1.941 1.594-3.583 5.412-1.737 7.767.294.367.647.684 1.048.933a2.14 2.14 0 0 1 .412-2.09c.131-.148.277-.285.437-.408.936-.733.562-1.77.536-1.842l-.001-.004a.419.419 0 0 1-.02-.255.42.42 0 0 1 .504-.308c.555.14 1.126.45 1.603.868 1.014.894 1.806 2.908.983 4.336.386-.182.745-.42 1.058-.709a3.032 3.032 0 0 0 .995-2.131 3.051 3.051 0 0 0-.838-2.205 4.992 4.992 0 0 0-.784-.686c-2.084-1.524-2.064-3.52-1.854-4.605a8.045 8.045 0 0 0-2.342 1.339Zm6.65 6.188a3.863 3.863 0 0 1-1.54 2.942l-.034.027h5.714v-5.381l-4.916-.023c.524.71.81 1.552.776 2.435Zm4.966 2.972h3.485c.151 0 .38-.26.378-.577v-4.782l-3.863-.02v5.379Zm-9.963.255a1.85 1.85 0 0 1-.493-.045c-.003 0-.4-.07-.757-.423a1.308 1.308 0 0 1-.058-1.787h.002a2.15 2.15 0 0 1 .32-.3c.624-.47.983-1.218.955-2.003a3.6 3.6 0 0 1 .616.431c.787.692 1.487 2.418.742 3.438a1.713 1.713 0 0 1-1.311.688h-.016ZM21.014 8.352V3.568c0-.314-.252-.577-.381-.574h-3.482v5.35l3.863.008ZM9.375 8.324V2.991l6.947.003V8.34l-6.947-.017Zm1.283 6.196a.401.401 0 0 1 .12-.022l1.611.008V9.167l-7.456-.016v1.857a1.7 1.7 0 0 0 .038-.035l.037-.035c1.012-.827 2.208-1.434 3.373-1.712a.41.41 0 0 1 .415.14c.1.12.126.289.061.435-.045.103-1.084 2.588 1.356 4.37.154.109.302.226.445.35Zm2.563-.01V9.166l7.793.02v5.361l-7.793-.039Z" fill="#313235"/></svg>