<svg width="24" height="24" fill="none" xmlns="http://www.w3.org/2000/svg"><path fill-rule="evenodd" clip-rule="evenodd" d="M2.156 11.997c0 6.437 3.404 9.837 9.838 9.837 4.813 0 7.93-1.901 9.198-5.547a.28.28 0 0 0 .079-.238c.376-1.178.566-2.529.566-4.05 0-3.263-.877-5.762-2.602-7.425-1.667-1.605-4.101-2.418-7.241-2.418-6.437 0-9.838 3.404-9.838 9.84Zm18.61 3.812c.338-1.105.508-2.376.508-3.812 0-1.198-.117-2.28-.352-3.247h-3.793c.204 1.023.31 2.111.31 3.227 0 1.339-.152 2.637-.443 3.832h3.77Zm-4.349 0c.3-1.187.46-2.486.46-3.832 0-1.12-.11-2.208-.321-3.227h-4.319v7.059h4.18Zm-4.18.56h4.025a10.826 10.826 0 0 1-.91 2.177c-.854 1.521-1.948 2.431-3.114 2.603v-4.78Zm-.588-.56V8.75H7.107a16.007 16.007 0 0 0-.32 3.227c0 1.344.158 2.644.459 3.832h4.403Zm-4.248.56h4.248v4.804c-1.249-.082-2.428-1.008-3.339-2.627a10.826 10.826 0 0 1-.91-2.177Zm-.585 0c.257.892.594 1.718 1.004 2.448.586 1.043 1.284 1.826 2.05 2.317-3.268-.46-5.425-2.056-6.453-4.765h3.4Zm-.148-.56H3.225c-.339-1.105-.509-2.376-.509-3.812 0-1.197.119-2.28.354-3.247h3.463a16.596 16.596 0 0 0-.31 3.227c0 1.339.154 2.637.445 3.832Zm10.18.56h3.726c-1.07 2.821-3.365 4.433-6.863 4.816.798-.487 1.524-1.289 2.131-2.368.412-.73.749-1.556 1.005-2.448ZM3.223 8.19C4.152 5.156 6.352 3.374 9.8 2.868c-.738.494-1.41 1.26-1.979 2.27-.502.893-.894 1.928-1.164 3.053H3.223ZM8.31 5.41c.909-1.62 2.09-2.546 3.34-2.628V8.19H7.233c.256-1.025.618-1.966 1.076-2.782Zm3.928 2.78h4.19c-.256-1.024-.618-1.965-1.076-2.78-.854-1.525-1.947-2.433-3.114-2.604V8.19Zm3.604-3.052c.502.893.894 1.928 1.164 3.053h3.763c-.963-3.154-3.301-4.954-6.987-5.376.77.49 1.472 1.276 2.06 2.323Z" fill="#313235"/></svg>