<svg width="24" height="24" fill="none" xmlns="http://www.w3.org/2000/svg"><path fill-rule="evenodd" clip-rule="evenodd" d="m14.417 6.31 3.126 3.21c.02.023.067.07.092.096a.58.58 0 0 0 .359.123c.16 0 .314-.067.403-.185l3.196-3.272a.61.61 0 0 0 .076-.633.57.57 0 0 0-.513-.333l-1.383-.011-.003-2.23a.913.913 0 0 0-.905-.919h-1.75a.913.913 0 0 0-.905.919l.002 2.23-1.38.01a.565.565 0 0 0-.516.331c-.098.205-.07.454.1.664Zm-11.51.922c0-.235.188-.426.42-.426h.6l-.013-.14c-.012-.125-.024-.25-.024-.387 0-.037.004-.073.007-.109.004-.035.007-.071.007-.109h-.577a.423.423 0 0 1-.42-.426c0-.235.188-.426.42-.426h.664c.35-1.918 1.692-2.969 3.877-2.969.787 0 1.473.135 2.039.4.21.102.303.354.204.567a.419.419 0 0 1-.557.207C9.1 3.2 8.532 3.092 7.868 3.092c-1.72 0-2.706.703-3.02 2.117H7.23c.233 0 .42.19.42.426a.423.423 0 0 1-.42.426H4.742a1.71 1.71 0 0 1-.007.093c-.004.04-.007.08-.007.125 0 .185.016.351.033.52v.007H7.23c.233 0 .42.19.42.426a.423.423 0 0 1-.42.426H4.92c.38 1.21 1.355 1.806 2.949 1.806.672 0 1.246-.112 1.703-.33a.416.416 0 0 1 .557.204.428.428 0 0 1-.201.566c-.57.272-1.264.412-2.062.412-2.064 0-3.364-.941-3.801-2.658h-.74a.422.422 0 0 1-.417-.426Zm17.322 13.51c.23-.07.77-.266.77-.54v-1.189c-.16.084-.333.16-.523.219-.597.182-1.373.283-2.19.283-.816 0-1.595-.101-2.191-.283a3.38 3.38 0 0 1-.535-.216v1.182c0 .275.537.47.77.54 1.045.32 2.852.32 3.9.004Zm-5.512-.46c-.099.146-.354.334-.768.46-1.034.316-2.86.316-3.894-.003-.437-.132-.691-.314-.778-.448v-1.317c.16.081.333.154.535.216.596.182 1.375.283 2.19.283s1.594-.101 2.19-.283c.191-.059.365-.137.524-.219v1.311Zm-7.051.46c.415-.126.67-.311.768-.46v-1.291a3.335 3.335 0 0 1-.527.21c-.597.182-1.373.283-2.19.283-.816 0-1.594-.1-2.191-.283a3.335 3.335 0 0 1-.535-.213v1.306c.081.128.32.308.776.448 1.04.316 2.865.316 3.9 0Zm-4.625-2.765c.073-.1.255-.255.723-.398 1.042-.316 2.857-.316 3.896-.003.194.06.594.205.726.412-.064.095-.238.25-.72.398-1.036.317-2.854.317-3.896 0-.499-.151-.667-.311-.729-.409Zm7.006-2.765c-.37.112-.622.258-.717.404.064.1.24.255.723.403 1.042.317 2.854.317 3.896 0 .479-.148.653-.302.72-.4-.132-.205-.532-.35-.726-.41-1.033-.313-2.86-.313-3.896.003Zm5.56-1.927c.073-.1.255-.255.723-.398 1.042-.316 2.857-.316 3.896 0 .194.06.594.205.726.41-.068.097-.241.254-.72.4-1.04.316-2.857.316-3.896 0-.5-.154-.667-.314-.729-.412Zm-.047 3.364v1.32c.086.137.341.316.775.448 1.043.316 2.86.316 3.897 0 .412-.126.67-.314.767-.46v-1.31c-.16.084-.333.16-.523.218-.597.182-1.376.283-2.19.283-.816 0-1.595-.101-2.191-.283a3.035 3.035 0 0 1-.535-.216Zm0-2.35c.156.079.33.151.535.213.594.182 1.372.283 2.187.283.815 0 1.594-.1 2.19-.283.2-.062.373-.132.527-.21v1.291c-.098.149-.353.334-.764.46-1.042.316-2.857.316-3.9 0-.456-.143-.694-.32-.775-.449V14.3Zm-6.283 2.322v1.308c.084.13.322.306.778.446 1.04.316 2.858.316 3.897 0 .412-.126.67-.314.767-.46v-1.288a3.043 3.043 0 0 1-.524.207c-.599.182-1.375.283-2.19.283s-1.591-.1-2.19-.283a2.902 2.902 0 0 1-.538-.213Zm12.563-3.19c0-.429-.238-1.011-1.37-1.359-1.196-.364-3.188-.364-4.387.003-.745.23-1.193.586-1.327 1.059-.026.098-.04.199-.04.3v1.184a3.104 3.104 0 0 0-.529-.215c-1.19-.364-3.196-.364-4.384 0-.748.224-1.193.582-1.327 1.056v.003c-.026.095-.04.196-.04.296v1.225a3.12 3.12 0 0 0-.532-.216c-1.193-.364-3.185-.364-4.38 0-.746.23-1.194.585-1.329 1.059v.002c-.025.096-.039.197-.039.297v2.359c0 .148.076.272.188.347.232.308.63.56 1.185.729.594.182 1.372.283 2.19.283.818 0 1.597-.101 2.19-.283.385-.118.698-.292.94-.496a2.7 2.7 0 0 0 .963.496c.594.182 1.372.283 2.19.283.818 0 1.594-.101 2.19-.283.384-.118.698-.292.939-.496.207.185.513.358.958.496.6.179 1.378.28 2.19.28.813 0 1.589-.101 2.191-.283 1.132-.345 1.37-.927 1.37-1.356v-6.77Zm-5.345-7.28-1.045.008 2.535 2.605 2.547-2.605-1.031-.008a.584.584 0 0 1-.569-.603l-.003-2.476a.066.066 0 0 0-.064-.067h-1.75a.066.066 0 0 0-.065.067l.003 2.488a.582.582 0 0 1-.558.59Z" fill="#313235"/></svg>