<svg width="24" height="24" viewBox="0 0 24 24" xmlns="http://www.w3.org/2000/svg"><path d="M11.476 15.408c.325 0 .647-.082.89-.163l5.993-2.672v2.753c0 .81-.566 1.457-1.295 1.62-1.294.243-3.075.728-4.372 1.78-.325.245-.728.407-1.135.407-.406 0-.81-.162-1.134-.406-1.294-1.053-3.076-1.538-4.373-1.782a1.654 1.654 0 01-1.294-1.619v-2.672l5.83 2.591c.243.081.568.163.89.163zm9.392 1.131c.407.325.647.972.647 1.376 0 .243-.08.484-.243.565-.163.163-.485.244-.729.244h-.487c-.325 0-.647 0-.89-.244a.736.736 0 01-.244-.565c0-.407.243-1.054.647-1.376v-5.423l-7.611 3.4c-.162.082-.406.163-.566.163-.244 0-.406-.081-.566-.162l-7.93-3.563c-.565-.244-.89-.729-.89-1.376 0-.565.325-1.134.89-1.375L10.83 4.64c.406-.162.81-.162 1.216 0l7.933 3.563c.818.375.81 1.308.81 1.782l.08 6.554z" fill="#313235" fill-rule="nonzero"/></svg>