<svg width="24" height="24" viewBox="0 0 24 24" xmlns="http://www.w3.org/2000/svg"><path d="M16.211 2c.356 0 .645.28.645.622 0 2.263-1.614 3.554-3.303 4.61 1.69 1.057 3.303 2.348 3.303 4.611s-1.614 3.555-3.306 4.608c1.69 1.056 3.303 2.347 3.303 4.61a.633.633 0 01-.644.622.634.634 0 01-.645-.621c0-1.838-1.462-2.821-3.22-3.877-1.76 1.056-3.222 2.036-3.222 3.877a.633.633 0 01-.644.621.634.634 0 01-.645-.621c0-2.264 1.614-3.555 3.303-4.611-.756-.47-1.493-.994-2.081-1.627a.619.619 0 01-.149-.16c-.641-.75-1.07-1.656-1.07-2.82 0-2.261 1.614-3.555 3.303-4.612-1.69-1.056-3.303-2.347-3.303-4.61 0-.345.289-.622.644-.622.356 0 .645.28.645.622 0 1.84 1.459 2.82 3.22 3.877 1.763-1.054 3.222-2.037 3.222-3.877 0-.345.289-.622.644-.622zm-.714 10.479H9.192c.095.468.294.877.577 1.244h5.151c.28-.37.482-.776.577-1.244zm-3.154-4.515c-.431.26-.843.52-1.224.784h2.451a21.167 21.167 0 00-1.227-.784z" fill="#313235" fill-rule="nonzero"/></svg>