<svg width="24" height="24" viewBox="0 0 24 24" xmlns="http://www.w3.org/2000/svg"><path d="M22.138 16.346v-3.445c0-.356-.346-.8-.545-1.066a422.733 422.733 0 01-3.475-4.601c-.189-.266-.555-.454-.911-.495v7.98c1.553.199 2.585 1.147 2.86 2.636h1.07c.228 0 .483-.118.685-.316.198-.199.316-.457.316-.693zm-5.526 3.88c1.358 0 2.04-.683 2.04-2.034 0-1.352-.682-2.044-2.04-2.044-1.355 0-2.04.692-2.04 2.044.003 1.35.685 2.033 2.04 2.033zm-11.721 0c1.358 0 2.04-.683 2.04-2.034 0-1.352-.686-2.044-2.04-2.044-1.355 0-2.047.692-2.047 2.044-.004 1.35.692 2.033 2.047 2.033zm17.872-9.292c.306.384.86 1.106.86 1.957v3.455c0 .636-.268 1.264-.742 1.738-.484.474-1.12.75-1.742.75h-1.048c-.249 1.788-1.526 2.874-3.476 2.874-2.04 0-3.334-1.187-3.496-3.12H8.387c-.158 1.936-1.456 3.12-3.496 3.12-2.05 0-3.348-1.194-3.506-3.14-.78-.1-1.385-.716-1.385-1.472V3.499c0-.82.713-1.482 1.583-1.482h14.04c.871 0 1.584.672 1.584 1.492v1.738c.83.05 1.643.464 2.107 1.116.45.612 3.103 4.118 3.449 4.571zM12.575 7.52h-2.128V5.395c0-.514-.407-.968-.87-.968h-1.94c-.464 0-.87.454-.87.968v2.121H4.638c-.525 0-.962.393-.962.867v1.936c0 .474.437.868.962.868h2.127l.01 2.124c0 .524.397.968.861.968h1.95c.467 0 .863-.444.863-.968v-2.124h2.128c.514 0 .972-.404.972-.868V8.387c-.007-.464-.46-.868-.975-.868z" fill="#313235" fill-rule="nonzero"/></svg>