<svg width="24" height="24" viewBox="0 0 24 24" xmlns="http://www.w3.org/2000/svg"><path d="M21.869 3.027c.968 0 1.755.756 1.755 1.69v14.34c0 .931-.787 1.688-1.755 1.688H1.755C.787 20.748 0 19.988 0 19.057V4.717c0-.93.787-1.69 1.755-1.69h20.114zm.276 5.186H1.479v10.844c0 .145.121.262.272.262h12.467c.054-.117.128-.225.222-.316l.444-.427a4.393 4.393 0 01-.114-.356h-.498c-.648 0-1.18-.51-1.18-1.136v-.793c0-.625.528-1.133 1.18-1.133h.498c.03-.114.067-.235.114-.356l-.444-.424a1.116 1.116 0 01-.033-1.58c.01-.013.023-.023.033-.033l.602-.582a1.216 1.216 0 011.677 0l.444.43c.118-.04.239-.077.366-.11v-.478c0-.628.528-1.136 1.18-1.136h.824c.649 0 1.18.508 1.18 1.136v.478c.124.033.245.07.366.114l.444-.427a1.14 1.14 0 01.622-.316v-3.66zm-3.083 6.169c-1.395 0-2.259.833-2.259 2.174s.864 2.175 2.26 2.175c1.394 0 2.258-.834 2.258-2.175 0-1.34-.867-2.174-2.259-2.174zM8.66 10.899c.679 0 1.11.094 1.388.356.235.216.35.552.35 1.016 0 .463-.108.81-.323 1.052-.252.285-.645.416-1.217.416h-.696v1.496h-.988V10.9H8.66zm-3.556 0l1.563 4.333h-1.06l-.359-1.09H3.842l-.336 1.09h-.941l1.448-4.333h1.09zm6.991 0v4.333h-.988v-4.333h.988zm-7.56 1.083h-.013l-.45 1.445h.937l-.474-1.445zm4.084-.367h-.463v1.382h.49c.316 0 .45-.044.575-.165.114-.114.172-.3.172-.551 0-.236-.05-.407-.165-.515-.121-.107-.303-.15-.609-.15zM2.934 4.953a.672.672 0 00-.685.659c0 .363.306.659.685.659.37.006.68-.29.686-.66a.672.672 0 00-.686-.658zm2.058 0a.672.672 0 00-.686.659c0 .363.306.659.686.659.37.006.679-.29.685-.66a.672.672 0 00-.685-.658zm2.057 0a.672.672 0 00-.686.659c0 .363.306.659.686.659.37.006.679-.29.685-.66a.672.672 0 00-.685-.658z" fill="#313235" fill-rule="nonzero"/></svg>