<svg width="24" height="24" viewBox="0 0 24 24" xmlns="http://www.w3.org/2000/svg"><path d="M14.474 11.583a.755.755 0 00-.753.756v1.043a1.793 1.793 0 01-1.795 1.788h-.232c-.988 0-1.788-.8-1.791-1.788v-1.043a.757.757 0 00-.753-.756H1.788l1.634-9.71a.776.776 0 00.01-.125c0-.128.104-.232.232-.232l16.296.017c.158 0 .312.175.35.393l1.532 9.66h-7.368v-.003zm9.136 1.61c0-.023.003-.04.003-.064L21.795 1.667c-.178-.971-.931-1.65-1.835-1.65L3.667 0c-.934 0-1.7.743-1.74 1.674L.016 13.045c-.007.03.003.06.003.091-.007.06-.017.121-.017.182v8.558c0 .964.784 1.748 1.742 1.748h20.137c.962 0 1.742-.784 1.742-1.748V13.32c0-.04-.01-.087-.014-.128z" fill="#313235" fill-rule="nonzero"/></svg>