<svg width="24" height="24" viewBox="0 0 24 24" xmlns="http://www.w3.org/2000/svg"><path d="M17.217 18.339V7.479c0-.742-.165-1.266-.507-1.605-.342-.336-.874-.501-1.63-.501H9.573c-.745 0-1.278.168-1.625.515-.344.342-.512.863-.512 1.591v10.857c0 .748.165 1.277.51 1.61.338.334.87.494 1.624.494h5.51c.753 0 1.288-.16 1.627-.493.345-.33.51-.86.51-1.608zM10.892 3.33c-.073.072-.09.232-.09.355v.446h3.048v-.446c0-.103-.011-.285-.087-.358-.073-.073-.257-.084-.361-.084h-2.149c-.126 0-.288.014-.36.087zm6.712 1.666c.588.583.874 1.392.874 2.482v10.86c0 1.098-.289 1.913-.883 2.493-.588.574-1.412.854-2.515.854H9.573c-1.104 0-1.927-.28-2.516-.854-.593-.583-.882-1.398-.882-2.496V7.48c0-1.073.286-1.88.874-2.465.591-.588 1.409-.877 2.493-.882v-.446c0-.515.151-.93.454-1.23.302-.302.725-.456 1.255-.456h2.148c.532 0 .955.151 1.258.451.3.3.454.714.454 1.235v.446c1.092.005 1.91.288 2.493.865zm-1.765 6.83c.347 0 .63.277.63.621v5.266c0 1.219-1.005 2.207-2.24 2.207h-3.802c-1.235 0-2.24-.988-2.24-2.207v-5.266c0-.342.282-.622.63-.622h7.022z" fill="#313235" fill-rule="nonzero"/></svg>