<svg width="24" height="24" viewBox="0 0 24 24" xmlns="http://www.w3.org/2000/svg"><path d="M17.61 18.479V7.384c0-.818-.194-1.404-.59-1.787-.394-.387-.996-.575-1.84-.575H9.476c-.835 0-1.434.194-1.838.589-.398.392-.59.969-.59 1.773v11.092c0 .824.192 1.412.59 1.796.395.38.995.565 1.838.565h5.703c.843 0 1.442-.184 1.837-.565.398-.381.594-.97.594-1.793zm-7.08-14.97v.667h3.592V3.51c0-.367-.115-.48-.151-.516-.04-.036-.152-.148-.53-.148h-2.227c-.372 0-.49.115-.526.154-.04.036-.157.151-.157.51zM17.638 5c.566.552.84 1.33.84 2.387v11.092c0 1.062-.277 1.846-.848 2.398-.563.546-1.367.812-2.451.812H9.475c-1.084 0-1.885-.266-2.451-.812-.572-.55-.849-1.334-.849-2.395V7.384c0-1.037.277-1.813.843-2.37.577-.566 1.378-.84 2.457-.84h.187V3.51c0-.47.138-.843.407-1.107.268-.266.655-.403 1.145-.403h2.227c.49 0 .877.134 1.146.398.274.266.406.63.406 1.112v.666h.185c1.087 0 1.89.27 2.46.824zm-2.98 14.04c.636 0 1.162-.471 1.224-1.076H8.769a1.22 1.22 0 001.224 1.075h4.664zm1.666-1.922c.241 0 .435.19.435.423v.3c0 1.128-.942 2.044-2.101 2.044H9.996c-1.16 0-2.104-.916-2.104-2.045v-.3a.43.43 0 01.434-.422h7.997z" fill="#313235" fill-rule="nonzero"/></svg>