<svg width="24" height="24" viewBox="0 0 24 24" xmlns="http://www.w3.org/2000/svg"><path d="M20.175 1.013H3.398C1.53 1.013.007 2.526.007 4.388v11.58c0 1.66 1.109 3.008 2.625 3.311v2.82c0 .612.578 1.17 1.21 1.17.622 0 .924-.403 1.025-.538l2.649-3.388h12.659a3.384 3.384 0 003.388-3.375V4.385c0-1.859-1.52-3.372-3.388-3.372zm-1.237 7.244H4.618a.674.674 0 01-.672-.672c0-.37.303-.672.672-.672h14.32c.37 0 .672.302.672.672 0 .37-.302.672-.672.672zm-4.588 5.244H4.618a.674.674 0 01-.672-.672c0-.37.303-.673.672-.673h9.732c.37 0 .672.303.672.673 0 .37-.303.672-.672.672z" fill="#313235" fill-rule="nonzero"/></svg>