<svg width="24" height="24" viewBox="0 0 24 24" xmlns="http://www.w3.org/2000/svg"><path d="M22.084 14.756c.346-1.143.521-2.447.521-3.926 0-1.213-.11-2.316-.346-3.31h-3.785a18.74 18.74 0 01.286 3.29c0 1.402-.155 2.726-.417 3.95h3.741v-.004zm-6.612 5.637c3.07-.578 5.163-2.127 6.246-4.642h-3.634c-.571 1.987-1.482 3.607-2.612 4.642zm-2.44.219c1.704-.32 3.163-2.199 3.99-4.86h-3.99v4.86zm4.161-14.088c-.776-2.995-2.326-5.14-4.175-5.479l.01 5.48h4.165zm.541 4.283c0-1.153-.11-2.266-.316-3.291h-4.39v7.24h4.266c.28-1.217.44-2.548.44-3.95zm4.226-4.283c-1.002-2.884-3.173-4.632-6.481-5.26 1.244 1.143 2.225 2.991 2.776 5.26h3.705zm-14.407 0h4.46l-.01-5.479c-1.899.337-3.593 2.525-4.45 5.48zm-1.082 0c.591-2.235 1.623-4.077 2.927-5.23-3.223.645-5.337 2.397-6.326 5.23h3.399zm-.542 3.957c.02-1.036.121-2.027.306-2.962H2.787c-.226.925-.337 1.957-.347 3.093a13.439 13.439 0 012.286-.188c.417-.004.813.016 1.203.057zm17.204-3.6c.316 1.173.49 2.484.49 3.946 0 7.079-3.835 10.827-11.112 10.827a17.67 17.67 0 01-3.012-.249c-.02-.01-.03-.02-.05-.02v.716c0 .467-.501.854-1.49 1.133-.867.248-2.02.39-3.233.39-1.203 0-2.356-.142-3.234-.39-.988-.28-1.489-.666-1.489-1.133v-2.367c.336.229.787.437 1.328.589.918.269 2.131.406 3.408.406 1.285 0 2.491-.14 3.419-.406a3.95 3.95 0 001.294-.595v.716c.07-.02.155-.03.235-.02.713.13 1.5.191 2.326.218v-4.89h-2.55a.506.506 0 01-.317-.118c-.255.208-.632.416-1.173.574-.867.24-2.02.38-3.234.38-1.213 0-2.356-.14-3.223-.38-.777-.228-1.338-.564-1.51-.904V12.64c.317.248.757.447 1.328.605.918.269 2.132.41 3.409.41 1.274 0 2.49-.138 3.418-.41.552-.158.978-.347 1.294-.585v2.097h2.562V7.52H7.3a14.95 14.95 0 00-.346 3.083c.36.06.702.117 1.011.208.858.249 1.348.568 1.46.955l-.01.01c-.145.356-.633.665-1.44.894-.877.249-2.02.386-3.233.386-1.214 0-2.356-.137-3.224-.386-.827-.239-1.327-.555-1.458-.924l-.01-.01c.13-.35.601-.666 1.367-.895v-.01c0-1.462.175-2.773.501-3.946.01-.02.01-.05.02-.07C3.203 2.35 6.797.003 12.521.003c5.745 0 9.338 2.346 10.602 6.81.003.016.003.047.01.067zM1.506 19.748c-.773-.225-1.331-.555-1.503-.898v-2.668c.336.235.78.436 1.321.588.928.262 2.138.41 3.415.41 1.281 0 2.495-.145 3.416-.41.52-.145.964-.35 1.3-.595v2.669c-.158.282-.628.655-1.482.904-.864.245-2.013.383-3.23.383-1.227.003-2.367-.134-3.237-.383z" fill="#313235" fill-rule="nonzero"/></svg>