<svg width="24" height="24" viewBox="0 0 24 24" xmlns="http://www.w3.org/2000/svg"><path d="M15.753 14.424c2.192 0 3.993.665 5.207 1.926 1.116 1.16 1.704 2.766 1.704 4.645v1.966a.67.67 0 01-.672.673H1.672A.674.674 0 011 22.96v-1.966c0-1.879.588-3.486 1.704-4.645 1.214-1.26 3.015-1.926 5.207-1.926h7.842zm-3.91-11.799c3.406 0 5.281 1.876 5.281 5.28 0 .179-.006.354-.016.525h-2.676c-.316-.285-.743-.44-1.237-.44-.524 0-.968.171-1.298.497-.329.326-.5.774-.5 1.295 0 .514.171.957.49 1.284.33.332.78.507 1.308.507.497 0 .931-.158 1.25-.457h1.876c-.854 1.355-2.373 2.07-4.477 2.07-3.405 0-5.281-1.875-5.281-5.28 0-3.405 1.876-5.28 5.28-5.28zM11.838 0c2.39 0 4.255.629 5.54 1.869 1.334 1.287 2.013 3.2 2.003 5.69v.01l-.01.653c0 .679-.212 1.247-.605 1.637-.394.39-.935.588-1.607.588h-3.022a.843.843 0 01-.118.148c-.194.202-.484.306-.826.306-.343 0-.632-.108-.827-.306-.195-.198-.296-.474-.296-.813 0-.69.434-1.12 1.126-1.12.423 0 .75.162.938.44h3.035c.303 0 .528-.067.662-.201.168-.172.205-.467.205-.69v-.01l.01-.651c-.003-2.105-.54-3.691-1.606-4.713-1.029-.992-2.578-1.492-4.609-1.492-1.835 0-3.284.413-4.299 1.22-1.028.823-1.65 2.09-1.842 3.774a.672.672 0 01-1.334-.155c.235-2.046 1.021-3.62 2.342-4.671C7.958.508 9.69 0 11.837 0z" fill="#313235" fill-rule="nonzero"/></svg>