<svg width="24" height="24" viewBox="0 0 24 24" xmlns="http://www.w3.org/2000/svg"><path d="M18.721 6.787L13.844 1.99v2.128c0 .79.255 1.458.74 1.932.487.481 1.179.733 2 .733h2.137v.004zm1.714-.337c.199.195.313.468.313.747v14.77c0 .897-.76 1.657-1.66 1.657H4.69c-.884 0-1.66-.774-1.66-1.658V1.657C3.03.79 3.82 0 4.69 0h8.763c.272 0 .528.104.722.296l6.26 6.154zm-13.66 7.13a.705.705 0 001.008 0l.935-.951.934.95a.71.71 0 00.504.213.71.71 0 00.505-.212.733.733 0 000-1.025l-.935-.952.935-.95a.733.733 0 000-1.026.706.706 0 00-1.009 0l-.934.951-.935-.951a.706.706 0 00-1.008 0 .733.733 0 000 1.025l.934.951-.934.952a.733.733 0 000 1.025zM17.16 9.627a.706.706 0 00-1.008 0l-.935.951-.934-.951a.706.706 0 00-1.008 0 .733.733 0 000 1.025l.934.951-.934.952a.733.733 0 000 1.025.71.71 0 00.504.212.7.7 0 00.504-.212l.934-.951.935.95a.705.705 0 001.008 0 .733.733 0 000-1.024l-.934-.952.934-.95a.739.739 0 000-1.026zm-2.45 5.839h-.155c-1.028.006-2.064.682-2.064 2.195 0 .215 0 .722-.658.726h-.105c-.675-.017-.675-.521-.675-.737 0-1.475-1.039-2.16-2.07-2.184h-.155c-1.029.006-2.064.682-2.064 2.178 0 .4.319.726.712.726a.72.72 0 00.713-.726c0-.215 0-.723.659-.726h.104c.676.016.676.52.676.736 0 1.475 1.038 2.161 2.07 2.185h.155c1.028-.007 2.064-.683 2.064-2.195 0-.215 0-.723.655-.726h.104c.676.016.676.52.676.736 0 .4.32.726.713.726a.72.72 0 00.712-.726c.004-1.48-1.039-2.165-2.067-2.188z" fill="#313235" fill-rule="nonzero"/></svg>