<svg width="24" height="24" viewBox="0 0 24 24" xmlns="http://www.w3.org/2000/svg"><path d="M11.815 0c3.748 0 6.669.982 8.676 2.914 2.084 2.01 3.14 5.002 3.14 8.901 0 3.9-1.056 6.894-3.14 8.901-2.007 1.933-4.928 2.914-8.676 2.914-2.763 0-5.076-.534-6.904-1.59l4.376-4.497a.674.674 0 00-.003-.941l-.269-.273c1.614-.813 3.993-1.66 7.16-1.889.087.205.218.394.38.548.342.323.786.491 1.33.491.545 0 .989-.158 1.332-.49.343-.334.524-.777.524-1.285 0-.507-.185-.954-.524-1.28-.34-.327-.787-.495-1.331-.495-.545 0-.992.165-1.331.491-.195.185-.34.417-.427.672-2.467.175-4.498.706-6.094 1.318l5.72-5.647c.23.1.478.148.727.141.47-.013.9-.208 1.29-.591.39-.384.592-.814.605-1.284.014-.478-.174-.921-.534-1.278a1.723 1.723 0 00-1.28-.524c-.471.01-.901.208-1.291.591-.39.384-.592.814-.605 1.285-.01.245.04.487.137.712l-5.835 5.761c.642-1.616 1.2-3.704 1.382-6.258.255-.084.487-.232.672-.427.326-.343.49-.79.49-1.331 0-.542-.16-.989-.49-1.331-.33-.343-.773-.525-1.28-.525-.508 0-.955.185-1.281.525-.327.342-.491.786-.491 1.33 0 .545.164.992.49 1.332.155.161.343.292.548.38-.228 3.156-1.069 5.532-1.879 7.142l-.232-.235a.658.658 0 00-.477-.202.68.68 0 00-.48.202l-4.38 4.494C.524 16.854 0 14.558 0 11.815c0-3.896 1.055-6.89 3.14-8.9C5.145.981 8.066 0 11.814 0zm6.08 13.277c.276 0 .37.088.4.118.055.054.112.131.112.313 0 .181-.057.258-.111.312-.03.03-.125.118-.4.118-.276 0-.37-.088-.4-.118-.05-.05-.108-.124-.111-.299v-.017c0-.178.057-.255.11-.309.031-.03.125-.118.4-.118zm-1.293-6.702c.077-.004.178.017.299.138.12.12.138.211.134.282-.003.04-.003.161-.205.363-.201.202-.336.205-.38.205-.077.003-.171-.01-.295-.134-.125-.125-.142-.216-.138-.286.003-.04.003-.161.205-.363.202-.202.336-.205.38-.205zM9.748 5.049c.181 0 .259.057.313.11.03.03.117.122.117.4 0 .28-.087.37-.117.4-.054.054-.132.112-.31.112h-.02c-.171-.004-.245-.058-.296-.111-.03-.03-.117-.121-.117-.4 0-.28.087-.37.117-.4.054-.054.131-.111.313-.111z" fill="#313235" fill-rule="nonzero"/></svg>