<svg width="24" height="24" viewBox="0 0 24 24" xmlns="http://www.w3.org/2000/svg"><path d="M23.684 7.96c0 .258-.11.504-.306.675l-5.052 4.992c-.017.013-.03.03-.047.044a.938.938 0 01-.998.117.904.904 0 01-.525-.82l-.017-2.188-3.482.007a1.447 1.447 0 01-1.445-1.442V6.56c0-.796.645-1.442 1.442-1.442l3.485-.003.017-2.188c0-.353.205-.673.525-.82a.946.946 0 01.998.12c.017.014.034.027.047.044l5.056 5.015a.883.883 0 01.302.673zm-11.798 6.45v2.783c0 .797-.646 1.442-1.442 1.442l-3.483.004-.016 2.188a.899.899 0 01-.525.817.946.946 0 01-.998-.121c-.017-.014-.034-.027-.047-.044L.323 16.471a.907.907 0 010-1.352l5.052-4.985c.017-.013.03-.03.047-.043a.938.938 0 01.998-.118c.32.148.525.467.525.82l.016 2.185 3.48-.007c.8 0 1.445.646 1.445 1.44z" fill="#313235" fill-rule="nonzero"/></svg>