<svg width="24" height="24" viewBox="0 0 24 24" xmlns="http://www.w3.org/2000/svg"><path d="M11.983 5.291c1.09 0 1.768.681 1.768 1.773v2.381c.185-.05.375-.075.566-.072.829 0 1.408.411 1.61 1.109a2.09 2.09 0 01.644-.098c.835 0 1.415.417 1.614 1.12a2.07 2.07 0 01.641-.095c1.042 0 1.687.647 1.687 1.692v5.736c0 .799-.225 1.432-.67 1.888-.445.457-1.146.712-1.958.712h-6.448c-.647 0-.933-.61-1.053-.868-.115-.25-.527-1.076-1-2.031-.762-1.535-1.712-3.446-2.275-4.633-.33-.7-.199-1.429.34-1.857.557-.446 1.355-.435 1.938.028.302.24.554.571.834 1.044V7.028c.07-1.104.715-1.737 1.762-1.737zm-7.1 3.289c.73 0 1.207.384 1.207 1.213 0 .397-.11.694-.306.893-.21.219-.52.322-.902.322-.38 0-.692-.106-.902-.322-.196-.199-.305-.496-.305-.893 0-.827.476-1.213 1.207-1.213zm3.551 0c.734 0 1.207.384 1.207 1.213 0 .397-.109.694-.305.893-.21.219-.52.322-.902.322-.38 0-.692-.106-.902-.322-.196-.199-.305-.496-.305-.893 0-.827.476-1.213 1.207-1.213zM4.882 5.303c.731 0 1.208.383 1.208 1.212 0 .398-.11.695-.306.894-.21.216-.52.32-.902.32-.38 0-.692-.104-.902-.32-.196-.199-.305-.496-.305-.894 0-.826.476-1.212 1.207-1.212zm3.552 0c.734 0 1.207.383 1.207 1.212 0 .398-.109.695-.305.894-.21.216-.52.32-.902.32-.38 0-.692-.104-.902-.32-.196-.199-.305-.496-.305-.894 0-.826.476-1.212 1.207-1.212zM4.882 2.025c.731 0 1.208.384 1.208 1.213 0 .398-.11.695-.306.894-.21.215-.52.319-.902.319-.38 0-.692-.104-.902-.32-.196-.201-.305-.495-.305-.893 0-.829.476-1.213 1.207-1.213zm3.552 0c.734 0 1.207.384 1.207 1.213 0 .398-.109.695-.305.894-.21.215-.52.319-.902.319-.38 0-.692-.104-.902-.32-.196-.201-.305-.495-.305-.893 0-.829.476-1.213 1.207-1.213zm3.55 0c.73 0 1.206.384 1.206 1.213 0 .398-.109.695-.305.894-.21.215-.52.319-.902.319-.38 0-.692-.104-.902-.32-.196-.201-.305-.495-.305-.893 0-.829.476-1.213 1.207-1.213z" fill="#313235" fill-rule="nonzero"/></svg>