<svg width="24" height="24" viewBox="0 0 24 24" xmlns="http://www.w3.org/2000/svg"><path d="M8.766 4.844a.72.72 0 01-.719-.72v-1.22a.717.717 0 111.435 0v1.22a.715.715 0 01-.716.72zm2.05 0a.717.717 0 01-.715-.72v-1.22a.72.72 0 01.716-.72.72.72 0 01.72.72v1.22a.722.722 0 01-.72.72zm2.048 0a.717.717 0 01-.716-.72v-1.22a.72.72 0 01.716-.72c.397 0 .716.324.716.72v1.22a.715.715 0 01-.716.72zm2.05 0a.717.717 0 01-.716-.72v-1.22a.72.72 0 01.716-.72c.397 0 .716.324.716.72v1.22c0 .397-.32.72-.716.72zM5.49 8.827h12.783c-.154-1.076-.669-1.795-1.54-2.141a1.676 1.676 0 01-.843.238H7.795c-.286 0-.555-.087-.793-.211-.28.124-.545.269-.747.47-.413.397-.662.945-.766 1.644zm9.27 4.356h-1.757v-1.768c0-.306-.239-.575-.498-.575H11.04c-.266 0-.508.27-.508.575v1.768H8.77c-.306 0-.575.229-.575.498v1.469c0 .279.269.507.575.507h1.761l.01 1.768c0 .306.232.575.498.575h1.465c.28 0 .498-.269.498-.575V15.65h1.758c.306 0 .574-.238.574-.497v-1.469c0-.259-.268-.5-.574-.5zm.471 9.002c1.57 0 2.545-.625 2.908-1.852H5.613c.135.44.343.806.632 1.092.528.498 1.301.76 2.306.76h6.68zM7.526 1.708V5.22c0 .145.114.27.269.27h8.094a.274.274 0 00.269-.27V1.708a.274.274 0 00-.269-.27H7.795a.268.268 0 00-.269.27zm10.037 3.771c1.419.7 2.192 2.121 2.192 4.077l-.01 9.5c0 2.86-1.684 4.568-4.515 4.568H8.551c-1.398 0-2.507-.394-3.3-1.16-.824-.807-1.244-1.95-1.244-3.405v-9.5c0-1.458.423-2.601 1.254-3.404.248-.25.544-.44.86-.616a2.01 2.01 0 01-.03-.315V1.71A1.71 1.71 0 017.795.003h8.094a1.71 1.71 0 011.704 1.708v3.513c-.003.084-.02.168-.03.255z" fill="#313235" fill-rule="nonzero"/></svg>