<svg width="24" height="24" viewBox="0 0 24 24" xmlns="http://www.w3.org/2000/svg"><path d="M2.56 21.689a.56.56 0 01-.395-.958l4.633-4.633a.561.561 0 01.793.793l-4.636 4.633a.55.55 0 01-.395.165zm5.037.003a.56.56 0 01-.4-.953l2.293-2.35a.562.562 0 01.827.76c-.009.008-.014.016-.023.022L8 21.524a.561.561 0 01-.403.168zM2.61 16.706a.56.56 0 01-.4-.953l2.293-2.35a.561.561 0 01.801.785l-2.294 2.35a.55.55 0 01-.4.168zM20.3 2h-7.586a1.401 1.401 0 00-.991 2.392l.697.698L6.2 11.31a1.402 1.402 0 000 1.981l4.196 4.2a1.402 1.402 0 001.98 0l6.222-6.225.708.712c.26.263.617.411.99.411.772 0 1.4-.627 1.402-1.4V3.4C21.697 2.627 21.073 2 20.3 2z" fill="#313235" fill-rule="nonzero"/></svg>