<svg width="24" height="24" viewBox="0 0 24 24" xmlns="http://www.w3.org/2000/svg"><path d="M8.644 19.151L6.98 17.507l9.34-9.238 1.638 1.622-9.314 9.26zm-3.66.919L3.61 18.728l.386-2.473 3.384 3.347-2.398.468zm8.79-14.32l1.685 1.67-9.336 9.238-1.686-1.666 9.336-9.241zm6.69-2.257a10.46 10.46 0 00-.248-.25c-1.37-1.335-3.605-2.002-5.76.13l-11.31 11.19a.615.615 0 00-.124.182L3 14.812c-.008.028-.022.054-.028.084l-.941 6.096a.6.6 0 00.711.68l5.866-1.075c.011 0 .022.005.033.005.11 0 .213-.039.309-.095.008-.003.014-.008.022-.014.034-.022.07-.036.1-.067.006-.006.006-.011.012-.014.006-.006.014-.009.02-.014L20.344 9.22c2.132-2.103 1.46-4.336.12-5.728z" fill="#313235" fill-rule="nonzero"/></svg>