<svg width="24" height="24" viewBox="0 0 24 24" xmlns="http://www.w3.org/2000/svg"><path d="M8.552 15.868c-.47-.333-1.087-.504-1.835-.504-.162 0-.328.009-.49.028-.042-.033-.224-.224-.347-1.028-.12-.773-.135-1.779-.135-2.465v-.09c0-.689.014-1.691.135-2.464.126-.804.305-.995.347-1.028.162.02.325.028.49.028.745 0 1.364-.171 1.835-.505.47-.333.79-.829.938-1.46.081-.321.12-.655.118-.988 0-1.835-.989-2.826-2.857-2.868-.33-.009-.715.056-.84.075l-.015.003-.025.003c-1.087.196-2.064 1.19-2.756 2.798C2.4 7.06 2.022 9.274 2.022 11.807v.09c0 2.532.376 4.744 1.09 6.405.692 1.608 1.67 2.603 2.756 2.802l.026.005.014.003c.12.02.467.076.784.076h.056c1.871-.042 2.857-1.037 2.857-2.869a3.93 3.93 0 00-.118-.989c-.145-.635-.462-1.126-.935-1.462zm12.339-7.86a9.797 9.797 0 00-9.037-5.988h-.022a.53.53 0 00-.63.52v18.6a.532.532 0 00.734.493c5.42-.045 9.775-4.476 9.73-9.894a9.884 9.884 0 00-.775-3.73zm-1.768 8.684c-.72-.418-1.554-.762-2.473-1.031a17.97 17.97 0 00.395-3.283h3.535a8.65 8.65 0 01-1.457 4.314zm-6.86-7.83a17.8 17.8 0 003.4-.391c.186.938.292 1.888.317 2.843h-3.717V8.863zm0-1.064v-4.67c.362.082.717.267 1.065.558.501.42.955 1.034 1.35 1.821.305.616.552 1.263.737 1.927a16.568 16.568 0 01-3.152.364zm1.065 12.168c-.348.292-.703.477-1.065.558v-4.44a16.6 16.6 0 013.09.35c-.177.591-.4 1.163-.675 1.714-.395.788-.849 1.398-1.35 1.818zm-1.065-4.946v-2.64h3.717a16.62 16.62 0 01-.361 3.023 17.552 17.552 0 00-3.356-.383zm4.785-3.706a17.793 17.793 0 00-.35-3.107c.946-.28 1.803-.641 2.534-1.081a8.675 8.675 0 011.353 4.188h-3.537zm.988-5.67c.2.2.387.404.563.62-.613.355-1.344.663-2.154.907a11.983 11.983 0 00-.815-2.14 7.935 7.935 0 00-.95-1.482 8.718 8.718 0 013.356 2.095zm-3.358 14.462c.344-.414.664-.91.95-1.481.308-.622.56-1.27.756-1.933.776.23 1.484.518 2.084.851a8.45 8.45 0 01-.434.465 8.63 8.63 0 01-3.356 2.098z" fill="#313235" fill-rule="nonzero"/></svg>