<svg width="24" height="24" viewBox="0 0 24 24" xmlns="http://www.w3.org/2000/svg"><path d="M8.431 3.978c0-.009 0-.009-.008-.017.19-.546.896-1.028 2.05-1.387C11.7 2.207 13.328 2 15.045 2c1.725 0 3.342.207 4.563.574 1.218.373 1.907.855 2.056 1.426 0 0-.009.008-.009.017-.207.53-.904.989-2.042 1.328-1.226.375-2.837.574-4.563.574-1.717 0-3.336-.2-4.563-.574-1.16-.348-1.865-.821-2.056-1.367zm.317 10.593l5.468-2.44-.166-.075h-.008l-2.871-1.272-2.44-1.07-.008.009-5.46 2.431 5.11 2.25.375.167zm3.658 1.577l.042-1.868-2.871 1.277-.339.152a1.17 1.17 0 01-.499.109c-.173 0-.338-.034-.504-.11l-3.112-1.386v1.77c.25.06.524.124.804.208.39.109.804.249 1.219.423a7.24 7.24 0 011.23.664c.041.033.08.047.131.084.042.025.084.05.123.084.101.075.233.075.325 0a4.9 4.9 0 01.714-.457c.2-.11.407-.216.622-.308a9.756 9.756 0 011.633-.54c.026-.01.042-.01.068-.01l.215-.05c.065-.016.132-.033.2-.042zm7.21-5.529c-1.218.373-2.837.566-4.563.566h-.075c.274.216.44.532.456.888 1.667-.025 3.235-.233 4.437-.597.74-.216 1.361-.524 1.843-.888v3.986c-.224.415-.888.972-2.098 1.345-1.218.367-2.837.574-4.563.574-.482 0-.947-.025-1.403-.059-.107.373-.373.68-.731.838.689.067 1.395.117 2.131.117 1.807 0 3.527-.215 4.818-.613a5.712 5.712 0 001.843-.896v3.546c0 .697-.714 1.271-2.106 1.694-1.23.365-2.854.575-4.563.575-1.709 0-3.336-.208-4.571-.575-1.395-.423-2.098-.997-2.098-1.694v-.639a1.417 1.417 0 01-.516-.258c-.863-.672-2.05-.994-2.905-1.145a1.316 1.316 0 01-1.078-1.286v-2.325l-1.12-.499a1.216 1.216 0 01-.732-1.12c0-.499.283-.93.731-1.129l5.485-2.442c.042-.017.081-.034.132-.042V5.319c.448.356 1.061.664 1.857.897 1.31.389 3.02.605 4.82.605 1.802 0 3.519-.216 4.819-.605.781-.233 1.394-.524 1.843-.88V9.28c-.219.417-.883.972-2.093 1.339z" fill="#313235" fill-rule="nonzero"/></svg>