<svg width="24" height="24" viewBox="0 0 24 24" xmlns="http://www.w3.org/2000/svg"><path d="M10.227 5.345c-1.193-.35-1.919-.824-2.11-1.373 0-.008 0-.008-.01-.017.193-.546.918-1.03 2.1-1.38C11.465 2.206 13.126 2 14.887 2c1.763 0 3.424.207 4.67.574 1.247.37 1.956.852 2.11 1.426 0 0-.009.008-.009.02-.21.529-.927.986-2.092 1.327-1.258.367-2.908.575-4.67.575s-3.414-.208-4.67-.577zm3.05 7.347c0-.577-.143-1.115-.383-1.605a3.835 3.835 0 00-.507-.773c-.04-.048-.076-.096-.118-.138a3.078 3.078 0 00-.275-.266 3.528 3.528 0 00-.224-.182c-.087-.064-.168-.134-.26-.19a3.746 3.746 0 00-.524-.278c-.067-.03-.14-.05-.21-.078-.149-.056-.3-.1-.457-.14-.067-.017-.137-.03-.204-.045a3.99 3.99 0 00-.69-.067 3.984 3.984 0 00-1.375.258c-1.442.543-2.473 1.904-2.473 3.504s1.03 2.96 2.473 3.504c.295.112.608.18.933.216.149.017.291.045.443.045.585 0 1.131-.138 1.627-.365.264-.123.507-.277.737-.45.073-.057.148-.115.218-.177.084-.073.166-.151.241-.233.084-.086.157-.179.233-.274.056-.07.112-.134.162-.205.115-.168.21-.347.294-.532.031-.064.054-.131.079-.199.056-.148.106-.3.143-.453.016-.068.033-.132.047-.2.04-.223.07-.447.07-.677zm1.62-1.507c-.216 0-.424-.009-.634-.017.096.289.163.588.202.896.146.003.286.017.431.017 1.855 0 3.605-.215 4.939-.61.75-.216 1.395-.521 1.88-.888v3.983c-.23.42-.911.977-2.15 1.344-1.246.367-2.907.575-4.669.575-.72 0-1.417-.037-2.078-.104a5.27 5.27 0 01-1.135.756c.992.154 2.079.247 3.213.247 1.855 0 3.605-.216 4.939-.61.75-.217 1.395-.53 1.88-.897v3.543c0 .7-.726 1.275-2.158 1.695-1.257.367-2.918.574-4.67.574-1.753 0-3.41-.204-4.68-.574-1.431-.423-2.157-.997-2.157-1.695v-1.958a5.11 5.11 0 01-1.607-.756L3.08 19.992a.626.626 0 01-.874 0 .592.592 0 010-.852l3.328-3.255a4.874 4.874 0 01-1.193-3.193c0-2.272 1.571-4.19 3.708-4.779V5.311c.46.358 1.093.664 1.91.896 1.34.395 3.093.61 4.936.61s3.597-.215 4.939-.61c.798-.232 1.42-.52 1.88-.876v3.943c-.23.42-.911.978-2.15 1.345-1.246.367-2.907.566-4.669.566z" fill="#313235" fill-rule="nonzero"/></svg>