<svg width="24" height="24" viewBox="0 0 24 24" xmlns="http://www.w3.org/2000/svg"><path d="M21.655 17.151c.026.216.065.888-.392 1.437-.246.297-.728.653-1.616.67-.518.008-2.465.01-4.83.01-4.565 0-10.688-.01-11.075-.01a1.706 1.706 0 01-1.151-.48c-.38-.372-.577-.904-.577-1.585V7.725l8.025 5.06c.042.03.72.51 1.658.51.471 0 1.009-.121 1.563-.485l8.41-5.124-.015 9.465zm-9.039-5.35c-.966.63-1.832.04-1.896-.006l-8.535-5.38c.078-.202.19-.407.358-.583.303-.32.718-.487 1.202-.487l16.221.002c.367.003 1.14.202 1.505 1.062l-8.855 5.392z" fill="#313235" fill-rule="nonzero"/></svg>