<svg width="24" height="24" viewBox="0 0 24 24" xmlns="http://www.w3.org/2000/svg"><path d="M13.658 16.499v-1.42c3.11-.22 6.104-1 8.028-2.087v7.226c0 .81-.652 1.468-1.456 1.468H3.457A1.463 1.463 0 012 20.218v-7.417c1.916 1.171 4.913 2.014 8.025 2.26V16.5c0 .347.157.635.434.817.205.132.46.2.787.2h1.2c.319 0 .582-.068.778-.2a.94.94 0 00.434-.817zm1.883-9.48v-.35c0-1.89-1.62-3.428-3.605-3.428h-.185c-1.99 0-3.605 1.538-3.605 3.428v.35h7.395zm4.689 0c.804 0 1.456.659 1.456 1.468v3.045c-1.91 1.384-5.955 2.376-9.767 2.376-3.885 0-8.02-1.09-9.919-2.6v-2.82c0-.81.653-1.468 1.46-1.468h3.456v-.35c0-2.575 2.17-4.667 4.837-4.667h.185c2.667 0 4.838 2.095 4.838 4.666v.35h3.454zm-8.975 9.258v-1.131h1.174v1.131h-1.174z" fill="#313235" fill-rule="nonzero"/></svg>