<svg width="24" height="24" viewBox="0 0 24 24" xmlns="http://www.w3.org/2000/svg"><path d="M9.46 18.05c0-.283.039-.54.117-.773-.857-.238-1.367-.94-1.367-1.95 0-.282.042-.543.118-.775-.849-.241-1.353-.941-1.353-1.944 0-.247.03-.476.09-.684H4.161C2.83 11.924 2 11.106 2 9.79c0-1.266.77-2.042 2.118-2.129h7.428c-.577-.339-.98-.644-1.272-1.008a1.927 1.927 0 01-.43-1.208c0-.403.13-.8.397-1.131.52-.65 1.409-.81 2.263-.41 1.448.681 3.776 1.827 5.647 2.749 1.165.574 2.174 1.07 2.476 1.21.32.145 1.062.49 1.062 1.271v7.788c0 .983-.308 1.82-.866 2.36-.554.539-1.33.81-2.302.81h-6.997c-1.275-.005-2.065-.784-2.065-2.042z" fill="#313235" fill-rule="nonzero"/></svg>