<svg width="24" height="24" viewBox="0 0 24 24" xmlns="http://www.w3.org/2000/svg"><path d="M21.078 12.454a.605.605 0 000-1.21h-2.77v-1.21h2.77a.606.606 0 000-1.213h-2.77V6.454c0-.555-.526-1.059-1.106-1.059h-2.325v-2.79a.607.607 0 00-1.213 0v2.784h-1.21V2.608a.604.604 0 10-1.21 0v2.784h-1.21V2.608a.606.606 0 00-1.21 0v2.784H6.496c-.58 0-1.107.504-1.107 1.059v2.367H2.608a.606.606 0 000 1.213h2.779v1.21h-2.78a.605.605 0 000 1.21h2.78v1.21h-2.78a.606.606 0 000 1.213h2.78v2.392c0 .558.515 1.05 1.106 1.05h2.328v2.762a.605.605 0 001.21 0v-2.761h1.21v2.761a.606.606 0 001.213 0v-2.761h1.21v2.761a.605.605 0 001.21 0v-2.761h2.325c.59 0 1.106-.49 1.106-1.05v-2.393h2.77a.606.606 0 000-1.213h-2.77v-1.21l2.773.003z" fill="#313235" fill-rule="nonzero"/></svg>