<svg width="24" height="24" viewBox="0 0 24 24" xmlns="http://www.w3.org/2000/svg"><path d="M6.824 13.625v-3.297l2.88 1.647-2.88 1.65zm4.4-2.171L6.518 8.762a.605.605 0 00-.608 0 .604.604 0 00-.305.52v5.385c0 .215.115.414.305.52a.594.594 0 00.306.082c.106 0 .21-.025.305-.081l4.706-2.692a.605.605 0 00.305-.524.61.61 0 00-.308-.518zm-3.277 5.19c3.215 0 4.717-1.487 4.717-4.664 0-3.184-1.502-4.672-4.717-4.672-3.208 0-4.7 1.488-4.7 4.672 0 3.177 1.492 4.664 4.7 4.664zM20.765 2.95c.641.644.95 1.535.95 2.742v12.302c0 1.213-.317 2.115-.967 2.751-.642.636-1.544.941-2.762.941h-6.21c-1.219 0-2.118-.305-2.768-.932-.574-.572-.885-1.342-.95-2.365v-.546c-.038 0-.072.009-.114.009-3.742 0-5.919-1.874-5.919-5.872 0-4.005 2.177-5.88 5.919-5.88.04 0 .073.01.106.01v-.418c0-1.19.309-2.076.958-2.726C9.658 2.314 10.56 2 11.776 2h6.21c1.218 0 2.129.314 2.779.95zm-6.661 15.658c.185.188.453.286.778.286s.594-.098.78-.286c.181-.185.274-.44.274-.76 0-.655-.395-1.047-1.054-1.047-.658 0-1.053.392-1.053 1.048 0 .316.093.574.275.759z" fill="#313235" fill-rule="nonzero"/></svg>