<svg width="24" height="24" viewBox="0 0 24 24" xmlns="http://www.w3.org/2000/svg"><path d="M7.952 16.667c3.213 0 4.71-1.482 4.71-4.664 0-3.182-1.497-4.667-4.71-4.667-3.21 0-4.706 1.482-4.706 4.667 0 3.182 1.496 4.664 4.706 4.664zM20.76 2.98c.642.639.955 1.535.955 2.737v12.305c0 1.216-.313 2.115-.963 2.754-.645.63-1.55.938-2.765.938h-6.21c-1.219 0-2.12-.308-2.762-.938-.577-.566-.888-1.339-.952-2.359v-.549c-.037 0-.073.003-.112.003-3.743 0-5.925-1.871-5.925-5.868 0-4 2.182-5.871 5.925-5.871l.1.002v-.417c0-1.185.314-2.076.956-2.72.652-.652 1.557-.972 2.77-.972h6.21c1.221.003 2.129.314 2.773.955zm-5.877 13.846c-.658 0-1.053.392-1.053 1.048 0 .32.093.577.275.76.185.187.453.285.778.285s.594-.098.78-.286c.181-.185.274-.44.274-.76 0-.655-.393-1.047-1.054-1.047zm-8.75-7.655c.336 0 .607.269.607.602v4.712a.607.607 0 01-.607.605.605.605 0 01-.608-.605v-4.71c0-.332.274-.604.608-.604zm3.45-.014c.337 0 .608.272.608.602v4.712a.607.607 0 01-.607.605.605.605 0 01-.608-.605V9.759c0-.333.271-.602.608-.602z" fill="#313235" fill-rule="nonzero"/></svg>