<svg width="24" height="24" viewBox="0 0 24 24" xmlns="http://www.w3.org/2000/svg"><path d="M12.658 17.629c.308 0 .56.252.56.56 0 .308-.252.56-.56.56H7.742a.562.562 0 01-.56-.56c0-.308.252-.56.56-.56zm2.726-13.123c1.1 0 1.94.325 2.504.969.521.6.787 1.468.787 2.582v.006h.916c1.37 0 2.095.726 2.095 2.095v6.488c0 1.37-.725 2.095-2.095 2.095h-2.938c-1.37 0-2.096-.726-2.096-2.095v-.101H5.291c-1.1 0-1.94-.325-2.504-.97C2.263 14.977 2 14.109 2 12.994V8.055c0-1.115.263-1.984.787-2.58.563-.642 1.406-.97 2.504-.97zm4.207 4.677H16.65c-.728 0-.975.247-.975.975v6.49c0 .379.07.64.207.774.138.137.395.204.77.204h2.936c.376 0 .633-.07.77-.204.138-.138.208-.398.208-.774v-6.49c0-.748-.227-.975-.975-.975zm-1.47 6.261c.453 0 .747.294.747.75 0 .28-.109.449-.199.541-.092.096-.263.208-.549.208-.285 0-.456-.112-.549-.208-.092-.092-.198-.26-.198-.54 0-.457.294-.751.747-.751z" fill="#313235" fill-rule="nonzero"/></svg>