<svg width="24" height="24" viewBox="0 0 24 24" xmlns="http://www.w3.org/2000/svg"><path d="M11.815 21.627c-.535 0-.871-.43-.98-.574-.194-.25-.364-.557-.527-.854-.137-.25-.386-.706-.526-.807-.18.014-.645.294-.9.448-.672.406-1.367.827-1.974.474-.617-.356-.6-1.174-.583-1.967.006-.291.017-.826-.056-.986-.16-.072-.695-.061-.986-.056-.793.017-1.61.034-1.966-.582-.35-.611.067-1.306.473-1.978.154-.255.434-.72.448-.9-.104-.14-.557-.388-.81-.526-.296-.162-.604-.333-.854-.526C2 12.35 2 11.947 2 11.815c0-.535.431-.871.574-.98.25-.194.558-.364.855-.527.249-.137.705-.386.806-.526-.014-.18-.294-.645-.448-.9-.406-.672-.826-1.367-.473-1.974.355-.617 1.173-.6 1.966-.583.291.006.826.017.986-.056.073-.16.062-.695.056-.986-.017-.793-.033-1.61.583-1.966.61-.353 1.305.067 1.975.473.254.154.72.434.896.448.14-.104.39-.557.527-.807.162-.297.333-.605.526-.854.446-.574.849-.574.98-.574.536 0 .872.431.98.574.194.25.365.557.528.854.14.25.389.703.529.807.18-.014.644-.294.9-.448.671-.406 1.366-.826 1.977-.473.616.355.6 1.173.582 1.966-.005.291-.016.826.056.986.16.073.695.062.986.056.793-.017 1.611-.034 1.967.583.353.61-.068 1.305-.474 1.974-.154.255-.434.72-.448.9.104.14.558.389.807.526.297.163.605.333.854.527.574.445.574.848.574.98 0 .535-.43.871-.574.98-.25.194-.557.365-.854.527-.25.137-.706.387-.807.527.014.179.294.644.448.896.406.672.827 1.367.474 1.975-.356.616-1.177.6-1.967.583-.291-.006-.826-.017-.986.056-.072.16-.061.694-.056.986.017.792.034 1.61-.582 1.966-.611.353-1.303-.067-1.975-.473-.255-.155-.72-.435-.896-.449-.14.104-.39.558-.527.807-.163.297-.333.605-.527.854-.448.577-.851.577-.983.577z" fill="#313235" fill-rule="nonzero"/></svg>