<svg width="24" height="24" viewBox="0 0 24 24" xmlns="http://www.w3.org/2000/svg"><path d="M17.303 15.532V8.81a.41.41 0 00-.41-.41h-.274a.41.41 0 00-.409.41v4.773l-3.314-5a.41.41 0 00-.341-.185h-.219a.411.411 0 00-.409.409v6.722a.41.41 0 00.41.41h.274a.41.41 0 00.409-.41v-4.764l3.3 4.994a.41.41 0 00.341.185h.227c.23 0 .415-.185.415-.412zm-8.928.55c1.286 0 2.818-.676 2.818-3.9 0-3.232-1.532-3.91-2.818-3.91-1.291 0-2.829.678-2.829 3.91 0 3.221 1.538 3.9 2.83 3.9zm3.871-14.046c1.575.037 9.44.69 9.44 9.86 0 9.177-7.834 9.785-9.403 9.813-.171.002-.364.005-.563.005-.104 0-.213 0-.314-.003C2.454 21.583 2 13.465 2 11.841c0-1.625.451-9.737 9.339-9.813.3-.003.63.003.907.008zm-3.87 7.35c.784 0 1.683.32 1.683 2.796 0 2.445-.852 2.776-1.684 2.776-.837 0-1.694-.33-1.694-2.776 0-2.465.857-2.795 1.694-2.795z" fill="#313235" fill-rule="nonzero"/></svg>