<svg width="24" height="24" viewBox="0 0 24 24" xmlns="http://www.w3.org/2000/svg"><path d="M15.952 2.025c.014 0 .028.003.042.006h.014l.05.008a.237.237 0 01.048.011l.014.003a.139.139 0 01.037.011l.011.006c.014.008.03.014.045.022l.042.026.011.008.03.022.012.009.037.033 5.198 5.2.017.019.009.011.022.031.008.011.026.042.022.048.006.011.014.036c.002.006.005.009.005.014.003.014.009.028.011.045l.009.05v.015a.185.185 0 01.003.039v.786l.001 3.817V20.345l.001.076v.142c-.002.712-.445 1.157-1.154 1.157H8.36c-.367 0-.659-.107-.866-.317-.207-.21-.314-.504-.314-.868v-6.227c-1.63-.003-2.902-.434-3.781-1.283-.919-.885-1.384-2.196-1.384-3.896 0-1.7.465-3.014 1.384-3.897.88-.848 2.154-1.28 3.781-1.282v-.748c0-.72.451-1.171 1.177-1.171h.258l.574-.002h1.746l1.922-.002h2.006zm2.345 15.017H10.26a.562.562 0 00-.56.56c0 .308.251.56.56.56H18.3a.56.56 0 00-.003-1.12zm.003-3.277h-6.737a.562.562 0 00-.56.56c0 .308.252.56.56.56H18.3c.308 0 .56-.252.56-.56a.562.562 0 00-.56-.56zM7.193 5.034c-2.75 0-4.09 1.339-4.09 4.092 0 2.754 1.337 4.092 4.09 4.092 2.751 0 4.09-1.336 4.09-4.092 0-1.445-.32-2.465-.975-3.12-.655-.656-1.675-.972-3.115-.972zm-.003.487a.42.42 0 01.42.42v.476c.35.048.676.16.939.322.199.124.23.283.23.367 0 .216-.174.39-.39.39a.515.515 0 01-.23-.065 2.176 2.176 0 00-.546-.215V8.7c1.197.202 1.454.913 1.449 1.485 0 .476-.174.877-.502 1.162-.243.21-.568.35-.952.41v.383a.42.42 0 11-.84 0v-.378a2.874 2.874 0 01-1.227-.48.408.408 0 01-.19-.352.4.4 0 01.403-.398c.095.003.184.031.26.084.23.16.487.275.756.345V9.389c-1.064-.227-1.297-.893-1.297-1.437 0-.815.496-1.38 1.297-1.526V5.94a.42.42 0 01.42-.42zm11.11 4.966h-4.552a.562.562 0 00-.56.56c0 .309.252.56.56.56H18.3c.308 0 .56-.251.56-.56a.562.562 0 00-.56-.56zm-10.687-.96v1.44c.412-.104.656-.373.656-.754 0-.275-.09-.544-.656-.686zm-.84-2.3c-.32.106-.498.347-.498.689 0 .232.07.479.498.63zm9.742-3.286v1.37c.003.6.135 1.09.373 1.414.238.325.588.482 1.067.485h1.827l-3.267-3.269z" fill="#313235" fill-rule="nonzero"/></svg>