<svg width="24" height="24" viewBox="0 0 24 24" xmlns="http://www.w3.org/2000/svg"><path d="M15.966 20.44c-2.851 0-4.274-1.255-4.465-3.894h8.933c-.193 2.642-1.616 3.894-4.468 3.894zM11.613 5.137c.079-.09.166-.17.253-.255l.162-.157c1.972-1.977 3.888-1.974 5.857 0 1.91 1.914 1.96 3.776.171 5.687a8.166 8.166 0 00-2.087-.25c-2.19 0-3.728.664-4.658 1.888-.149-.134-.297-.266-.448-.417C9.35 10.118 8.756 8.793 9.095 7.7c.006-.014 0-.028.006-.042l2.512-2.52zm8.821 10.166h-8.933c.194-2.64 1.617-3.894 4.465-3.894 2.852 0 4.275 1.252 4.468 3.894zm-1.145-4.398c1.913-2.303 1.736-4.79-.527-7.06-2.454-2.458-5.16-2.461-7.614 0l-.142.138c-.118.112-.233.221-.303.308L4.345 10.67c-.118.101-.23.219-.342.337l-.137.14c-1.2 1.199-1.816 2.459-1.838 3.74-.022 1.33.597 2.638 1.843 3.887 1.23 1.235 2.527 1.852 3.82 1.852 1.11 0 2.214-.46 3.273-1.367.868 1.563 2.512 2.425 5.005 2.425 3.916 0 5.748-2.126 5.748-5.761-.003-2.381-.79-4.107-2.428-5.017z" fill="#313235" fill-rule="nonzero"/></svg>