<svg width="24" height="24" viewBox="0 0 24 24" xmlns="http://www.w3.org/2000/svg"><path d="M21.364 8.008l-5.66-5.689a1.041 1.041 0 00-1.5 0c-.736.743-1.179 1.56-1.316 2.437l-2.53 2.55c-1.456-.253-3.529-.01-5.72 2.195l-.03.034a1.23 1.23 0 00-.362.88c0 .33.13.641.362.876L8.05 14.76l-5.865 5.854a.634.634 0 00-.003.891.626.626 0 00.885.003l5.869-5.857 3.518 3.546a1.2 1.2 0 00.86.359c.333 0 .672-.135.947-.412 1.767-1.782 2.49-3.709 2.142-5.734l2.533-2.552c.876-.148 1.7-.602 2.462-1.37a.995.995 0 00.291-.708 1.093 1.093 0 00-.325-.77" fill="#313235" fill-rule="nonzero"/></svg>