<svg width="24" height="24" viewBox="0 0 24 24" xmlns="http://www.w3.org/2000/svg"><path d="M13.563 9.373c-.361.705-.641 1.459-.849 2.179h3.717c.81 0 1.468.65 1.468 1.442v1.482c0 .68-.487 1.247-1.129 1.404H7.036c-.641-.146-1.137-.723-1.137-1.404v-1.482c0-.792.661-1.442 1.468-1.442h3.76c-.183-1.62-.53-2.835-.917-3.734.199-.104.387-.235.56-.39l.118-.131c.445.964.832 2.238 1.048 3.938.238-.776.543-1.602.955-2.372l.008.008.025.025c.177.2.4.345.639.477.602-1.169 1.443-2.163 2.597-2.493a.413.413 0 00.291-.505c0-.002 0-.005-.003-.005a.415.415 0 00-.518-.275c-1.37.39-2.35 1.49-3.042 2.77l-.213-.274c-.339-.527-.501-1.16-.501-1.902-.003-1.966 1.143-3.092 3.145-3.092h1.846c.717 0 1.294.574 1.294 1.271l-.016 2.107c-.115 1.815-1.222 2.804-3.126 2.804-.698-.003-1.275-.14-1.754-.406zM10.21 7.815c-.487.252-1.056.381-1.723.381-1.913 0-3.028-.994-3.134-2.81l-.008-.016-.009-.12V3.28c0-.706.586-1.28 1.303-1.28h1.854c2.028 0 3.148 1.1 3.148 3.1 0 .827-.207 1.508-.619 2.034l-.14.16C9.78 4.896 8.311 4.468 8.212 4.443a.411.411 0 00-.503.29.406.406 0 00.288.502c.02.006 1.255.4 2.213 2.58zM7.25 16.88h9.305l-.379 3.593c0 .639-.585 1.216-1.31 1.216H8.924a1.294 1.294 0 01-1.302-1.28l-.373-3.53z" fill="#313235" fill-rule="nonzero"/></svg>