<svg width="24" height="24" viewBox="0 0 24 24" xmlns="http://www.w3.org/2000/svg"><path d="M19.064 4.434c-1.669-1.608-4.098-2.423-7.22-2.423-3.124 0-5.553.815-7.22 2.426-1.73 1.67-2.607 4.162-2.607 7.409 0 3.246.877 5.737 2.608 7.406 1.666 1.608 4.095 2.423 7.218 2.423s5.552-.815 7.221-2.423c1.732-1.67 2.611-4.16 2.611-7.406 0-3.247-.877-5.742-2.61-7.412zm-3.126 7.807l-6.652 3.84a.486.486 0 01-.729-.42V7.978a.485.485 0 01.729-.42l6.652 3.84c.233.134.311.431.177.664a.471.471 0 01-.177.179z" fill="#313235" fill-rule="nonzero"/></svg>