<svg width="24" height="24" viewBox="0 0 24 24" xmlns="http://www.w3.org/2000/svg"><path d="M20.613 16.042c.622 0 1.073.336 1.073.798v4.023c0 .47-.442.82-1.075.82h-3.852v-5.641h3.854zM2 14.563c0-.555.557-.9 1.073-.9h3.851v8.02H3.073c-.591 0-1.073-.423-1.073-.918v-6.202zm12.462-3.933c.572 0 1.073.48 1.073 1.028V21.69h-7.38V11.661c0-.546.5-1.025 1.072-1.025h5.235v-.006zM10.74 4.776l-1.196.182.888.986c.138.14.208.364.174.557l-.21 1.283 1.129-.557a.627.627 0 01.622.014l1.084.594.002.003s.003 0 .006-.003L13.042 6.5a.675.675 0 01.193-.574l.877-.89-1.244-.267a.643.643 0 01-.47-.344l-.558-1.18-.585 1.169a.638.638 0 01-.516.36zM9.347 6.594l-.683-.695a1.274 1.274 0 01-.297-1.308c.148-.45.532-.776.994-.846l.922-.14.417-.882c.21-.443.642-.72 1.126-.72.482 0 .913.274 1.124.72l.42.885.921.137c.465.07.849.398 1 .849.152.465.037.963-.302 1.308l-.684.697.163.992a1.292 1.292 0 01-.518 1.252 1.24 1.24 0 01-1.306.076l-.608-.334-.21-.114-.21.114-.605.334a1.242 1.242 0 01-1.571-.333 1.276 1.276 0 01-.25-.995l.157-.997z" fill="#313235" fill-rule="nonzero"/></svg>