<svg width="24" height="24" viewBox="0 0 24 24" xmlns="http://www.w3.org/2000/svg"><path d="M13.772 4.18c-.079-.25-.317-1.004-1.866-1.004-1.672 0-1.924.838-1.958 1.57l-.005.346c.01.267.022.653 1.963.653s1.953-.384 1.96-.61v-.323a2.405 2.405 0 00-.094-.633zm3.913-.749c.854 0 1.602.611 1.602 1.306V20.38c0 .709-.734 1.305-1.602 1.305H6.125c-.869 0-1.603-.6-1.603-1.305V4.734c0-.695.751-1.305 1.603-1.305H9.08C9.55 2.515 10.522 2 11.906 2c1.686 0 2.468.709 2.83 1.431h2.949zm-6.476 1.7a.55.55 0 01-.552-.548.55.55 0 01.552-.55H12.6c.305 0 .554.247.554.55 0 .302-.249.549-.554.549h-1.392z" fill="#313235" fill-rule="nonzero"/></svg>