<svg width="24" height="24" viewBox="0 0 24 24" xmlns="http://www.w3.org/2000/svg"><path d="M17.878 9.93c-.532 0-.977-.16-1.288-.465-.309-.297-.468-.723-.468-1.224V7.104l2.907 2.826h-1.15zm-4.216-4.633H9.665c-.683 0-1.28.59-1.28 1.263v9.995l-4.294.016.003-13.313 9.568-.017v2.056zm7.177 4.798a.801.801 0 00-.207-.358l-4.325-4.202a.84.84 0 00-.589-.238h-.803V3.24C14.915 2.569 14.34 2 13.66 2H4.097c-.681 0-1.255.569-1.255 1.24v13.331c0 .659.585 1.239 1.252 1.239h4.291v2.613c0 .686.586 1.263 1.28 1.263h9.944c.695 0 1.278-.577 1.278-1.263V10.342a.677.677 0 00-.048-.247z" fill="#313235" fill-rule="nonzero"/></svg>