<svg width="24" height="24" viewBox="0 0 24 24" xmlns="http://www.w3.org/2000/svg"><path d="M11.591 11.756l-1.176.594c0-.286 0-.563-.006-.832l.767-.386a.55.55 0 00.297-.488v-5.88h.74v5.894c0 .208.115.395.297.488l.762.386a79.15 79.15 0 00-.006.832l-1.202-.608a.522.522 0 00-.473 0m9.835 3.415c-.588-3.47-3.093-6.392-3.437-6.779-.499-.756-1.194-1.123-2.12-1.123-1.454 0-1.99.832-2.183 1.367-.087.17-.165.378-.24.644-.062.219-.107.591-.132 1.059l-.034-.017V4.625a.94.94 0 00-.93-.947h-1.014a.94.94 0 00-.93.947v5.683l-.033.017c-.028-.482-.07-.866-.135-1.09v-.003a3.503 3.503 0 00-.24-.641c-.191-.535-.726-1.367-2.18-1.367-.927 0-1.622.367-2.12 1.123-.345.39-2.85 3.308-3.437 6.782-.465 2.75-.311 4.347.498 5.18a1.958 1.958 0 001.406.55c1.04 0 1.68-.548 2.034-.848l.078-.067c.3-.25.381-.317.717-.317.41.003 1.485-.09 1.647-.134 1.065-.28 1.65-1.123 1.65-2.361.031-.695.087-2.107.112-3.56l1.429-.72 1.454.733c.025 1.463.08 2.883.112 3.577 0 1.253.585 2.096 1.644 2.373.17.048 1.255.137 1.644.137h.006c.339 0 .42.067.717.317l.078.067c.353.3.995.849 2.034.849.042 0 .087-.003.132-.003a1.96 1.96 0 001.277-.552c.81-.835.96-2.431.496-5.18" fill="#313235" fill-rule="nonzero"/></svg>