<svg width="24" height="24" viewBox="0 0 24 24" xmlns="http://www.w3.org/2000/svg"><path d="M6.73 2.025a.55.55 0 01.549.55c0 .887 1.064 1.204 2.061 1.204h1.92c.867 0 1.543.39 1.898 1.095.255.501.26.989.26 1.045l.002.37c1.502.09 2.693.545 3.545 1.352.994.95 1.501 2.356 1.501 4.185v4.311c0 1.897-.44 3.264-1.344 4.174-.925.93-2.322 1.38-4.277 1.38-1.776 0-3.163-.459-4.12-1.369-.998-.947-1.502-2.356-1.502-4.185v-4.31c0-1.83.504-3.239 1.501-4.186.86-.816 2.07-1.272 3.598-1.355l.002-.364c0-.02-.012-.309-.157-.577-.174-.323-.463-.471-.91-.471h-1.92c-.896 0-1.663-.199-2.218-.574-.605-.412-.938-1.025-.938-1.726a.55.55 0 01.549-.549zm1.504 10.482c-.277-.03-.532.115-.572.322-.039.207.155.4.432.429 1.58.162 3.165.243 4.753.24 1.589 0 3.174-.078 4.754-.24.277-.028.47-.222.431-.429-.039-.207-.294-.35-.571-.322a44.516 44.516 0 01-4.614.232 44.516 44.516 0 01-4.613-.232zm4.61-4.339a.55.55 0 00-.548.55v2.876a.552.552 0 00.549.549.55.55 0 00.549-.55V8.718a.552.552 0 00-.55-.549z" fill="#313235" fill-rule="nonzero"/></svg>