<svg width="24" height="24" viewBox="0 0 24 24" xmlns="http://www.w3.org/2000/svg"><path d="M10.053 2.003c.328 0 .594.269.594.602V10c0 .613-.358 1.073-.835 1.073h-.3c.522 3.658.953 8.011.959 8.056.002 1.871-1.275 2.538-2.373 2.557h-.199c-1.09-.014-2.372-.683-2.372-2.51.01-.12.61-5.137 1.028-8.109l-.387.003c-.476 0-.835-.46-.835-1.073V2.64c0-.33.266-.62.594-.62.328 0 .594.25.594.583v4.535h.82V2.602A.6.6 0 017.937 2c.327 0 .593.269.593.602v4.535h.922l.006-4.532a.602.602 0 01.596-.602zM17.81 13.43c.372 2.933.647 5.715.65 5.743.002 1.834-1.253 2.49-2.328 2.512h-.188c-1.078-.014-2.336-.666-2.336-2.462.005-.067.347-2.958.695-5.613h-.185a.598.598 0 01-.594-.603V5.933c0-2.157 1.734-3.91 3.863-3.91.327 0 .593.268.593.602v10.383a.579.579 0 01-.17.423z" fill="#313235" fill-rule="nonzero"/></svg>