<svg width="24" height="24" viewBox="0 0 24 24" xmlns="http://www.w3.org/2000/svg"><path d="M13.141 11.555h4.544V4.546H6.038V6.67c.003.028.008.056.008.084v2.891c0 .028-.005.056-.008.084v1.83h4.543c.011 0 .02-.006.031-.006h2.499c.01-.003.02.003.03.003zm-1.899 1.974h1.236v-.753h-1.236v.753zm8.376 1.224h-6.49c-.006 0-.012.006-.02.006h-2.499c-.005 0-.011-.006-.02-.006H4.1v5.74h1.832l-.002-.034v-3.678c0-.675.563-1.224 1.263-1.224h9.33c.698 0 1.264.547 1.264 1.224v3.678c0 .012-.003.023-.003.034h1.832v-5.74h.003zm-1.933-1.974H13.74v.753h5.877c.697 0 1.263.55 1.263 1.224v5.74c0 .675-.566 1.224-1.263 1.224H4.102c-.697 0-1.263-.546-1.263-1.224v-5.74c0-.675.566-1.224 1.263-1.224H9.98v-.753H6.035c-.697 0-1.263-.547-1.263-1.224v-.69h-.664c-.698 0-1.263-.546-1.263-1.224v-2.89c0-.675.565-1.224 1.263-1.224h.664v-.984c0-.675.566-1.224 1.263-1.224h5.32V3.05a.613.613 0 01-.152-.389c0-.35.294-.636.656-.636.36 0 .655.286.655.636 0 .149-.062.28-.151.39v.268h5.32c.697 0 1.262.547 1.262 1.224v.995h.675c.698 0 1.264.546 1.264 1.224v2.89c0 .676-.566 1.225-1.264 1.225h-.675v.678c.003.675-.563 1.224-1.26 1.224zm-8.21-5.322a.456.456 0 00.462-.449.454.454 0 00-.462-.445.454.454 0 00-.462.445c0 .25.204.449.462.449zm1.638-.446c0 .877-.736 1.588-1.641 1.588s-1.641-.711-1.641-1.588c0-.874.736-1.588 1.641-1.588s1.641.714 1.641 1.588zm3.135.429a.454.454 0 00.462-.446.454.454 0 00-.462-.445.454.454 0 00-.462.445c0 .244.207.446.462.446zm0-2.034c.905 0 1.639.712 1.639 1.588 0 .874-.737 1.589-1.64 1.589-.901 0-1.64-.712-1.64-1.589.002-.876.739-1.588 1.64-1.588zm-.765 3.897c.348 0 .63.274.63.61a.62.62 0 01-.63.61h-3.24a.622.622 0 01-.631-.61c0-.336.283-.61.63-.61h3.241z" fill="#313235" fill-rule="nonzero"/></svg>