<svg width="24" height="24" viewBox="0 0 24 24" xmlns="http://www.w3.org/2000/svg"><path d="M12.999 2a.56.56 0 01.383.154l5.463 5.182a.56.56 0 01.176.406v12.843c0 .589-.518 1.107-1.106 1.107H5.618c-.589 0-1.107-.518-1.107-1.107V3.106C4.511 2.538 5.05 2 5.618 2zm1.672 10.77a.42.42 0 00-.42.42v.309c-.824.148-1.334.73-1.334 1.565 0 .555.241 1.241 1.334 1.474v1.577a2.422 2.422 0 01-.765-.348.51.51 0 00-.269-.086.42.42 0 00-.42.414c0 .154.067.278.199.37.375.258.807.426 1.257.49v.3a.42.42 0 10.84 0v-.308c.401-.06.738-.202.99-.42.336-.292.515-.703.512-1.19 0-.592-.266-1.323-1.504-1.525v-1.49c.196.048.384.12.56.219a.539.539 0 00.247.07.406.406 0 00.406-.407c0-.09-.03-.257-.238-.383a2.542 2.542 0 00-.975-.33v-.3a.42.42 0 00-.42-.42zm-3.995-1.453a.562.562 0 00-.56.56v7.056c0 .308.252.56.56.56.309 0 .56-.252.56-.56v-7.056a.562.562 0 00-.56-.56zM7.917 6.933a.562.562 0 00-.56.56v11.426c0 .308.252.56.56.56.308 0 .56-.252.56-.56V7.493a.562.562 0 00-.56-.56zm7.177 9.742c.58.143.666.415.666.695 0 .383-.246.655-.666.756zm-.84-2.336v1.32c-.43-.152-.5-.399-.5-.631 0-.342.18-.583.5-.69zm-.975-10.74v1.958c0 .65.204 1.2.588 1.583.384.384.93.588 1.583.588h2.182L13.279 3.6z" fill="#313235" fill-rule="nonzero"/></svg>