<svg width="24" height="24" viewBox="0 0 24 24" xmlns="http://www.w3.org/2000/svg"><path d="M18.822 2a6.313 6.313 0 00-1.078.11c-.813.15-1.44.442-1.863.865-.426.426-.72 1.064-.871 1.89a6.328 6.328 0 00-.1 1.029.334.334 0 01-.023.056L6.78 14.056a.334.334 0 01-.056.022 6.336 6.336 0 00-1.056.107c-.815.151-1.44.442-1.863.865-.425.426-.72 1.065-.87 1.891-.065.347-.099.7-.102 1.053-.002.202.05.398.152.572.168.28.47.45.795.45.188 0 .47-.055.74-.327l.67-.67.691.099.098.691-.667.67c-.112.11-.198.238-.257.38a.936.936 0 00.501 1.22c.143.061.297.092.451.09h.006a6.59 6.59 0 001.075-.107c.815-.152 1.44-.443 1.863-.866.426-.426.72-1.064.871-1.89.062-.34.095-.684.101-1.029a.334.334 0 01.022-.056l8.107-8.106a.334.334 0 01.056-.023 6.336 6.336 0 001.056-.106c.812-.151 1.44-.443 1.863-.866.425-.425.72-1.064.87-1.89.065-.348.099-.7.102-1.054a1.082 1.082 0 00-.154-.571.928.928 0 00-.796-.45c-.188 0-.47.055-.74.327l-.669.67-.692-.099-.098-.692.672-.67c.113-.108.2-.237.258-.38a.936.936 0 00-.501-1.219 1.09 1.09 0 00-.451-.09L18.822 2z" fill="#313235" fill-rule="nonzero"/></svg>