<svg width="24" height="24" viewBox="0 0 24 24" xmlns="http://www.w3.org/2000/svg"><path d="M20.448 15.25a5.119 5.119 0 00-1-.788c-.543-.336-1.1-.504-1.66-.504-.158 0-.315.014-.474.042-.72.12-1.423.524-2.096 1.196-.17.17-.277.291-.442.496a.277.277 0 01-.118.025c-.185 0-.54-.115-1.131-.518-.883-.605-1.922-1.614-2.628-2.322l-.084-.082c-.706-.705-1.714-1.747-2.32-2.63-.523-.762-.562-1.134-.495-1.252.204-.165.322-.269.496-.442.672-.673 1.075-1.379 1.199-2.096.12-.72-.034-1.44-.465-2.134a4.86 4.86 0 00-.787-1C7.633 2.434 6.793 2.017 5.947 2h-.053c-.86 0-1.732.415-2.583 1.23-.305.288-.6.697-.695.829l-.014.017-.017.025c-.795 1.154-.775 2.941.056 5.033.874 2.188 2.57 4.58 4.908 6.92l.006.002.072.073.006.005c2.339 2.34 4.731 4.037 6.919 4.908 1.07.426 2.061.641 2.93.641.826 0 1.54-.193 2.103-.582l.026-.02.016-.011c.135-.095.541-.39.832-.692.832-.871 1.247-1.759 1.227-2.639-.017-.845-.431-1.683-1.238-2.49m-3.826-3.341c-3.053 0-4.832-1.544-4.832-4.838 0-3.3 1.779-4.843 4.832-4.843s4.835 1.543 4.835 4.843-1.782 4.838-4.835 4.838zm-2.07-2.77a.602.602 0 00.851.002l.003-.003 1.216-1.218 1.221 1.224a.604.604 0 00.852.003l.002-.003a.605.605 0 000-.854l-1.22-1.222 1.22-1.224a.604.604 0 00-.852-.854l-1.22 1.221-1.216-1.218a.605.605 0 00-.854.854l1.215 1.218-1.215 1.219a.603.603 0 00-.003.854z" fill="#313235" fill-rule="nonzero"/></svg>