<svg width="24" height="24" viewBox="0 0 24 24" xmlns="http://www.w3.org/2000/svg"><path d="M19.731 1.01c2.165 0 3.926 1.698 3.926 3.785v10.518c0 2.087-1.761 3.784-3.926 3.784H8.195l-2.266 2.8a1.91 1.91 0 01-1.55.767c-1.021 0-1.882-.817-1.882-1.782V18.86a3.736 3.736 0 01-2.464-3.546V4.795c0-2.087 1.762-3.785 3.93-3.785h15.768zM5.674 9.38c-.837-.323-1.18-.508-1.18-1.035 0-.226 0-.693 1.086-.693.437 0 .78.077 1.059.158a.483.483 0 00.601-.336l.064-.245a.462.462 0 00-.333-.558c-1.27-.36-2.447-.27-3.105.295-.397.337-.605.827-.605 1.416 0 1.368 1.105 1.794 1.909 2.107.867.336 1.22.528 1.22 1.103 0 .36-.141.53-.266.608-.13.087-.406.192-.964.192-.437 0-.87-.068-1.298-.199a.478.478 0 00-.383.04.468.468 0 00-.232.296l-.064.253a.461.461 0 00.296.544c.36.131 1.018.266 1.687.266 1.567 0 2.468-.733 2.468-2.01 0-1.446-1.133-1.883-1.96-2.202zm8.8-2.81h-.252a.487.487 0 00-.427.248l-1.956 3.584-1.906-3.584a.48.48 0 00-.427-.252h-.272a.474.474 0 00-.481.468V13c0 .255.215.467.48.467h.256c.266 0 .48-.208.48-.467V9.467l1.292 2.43a.48.48 0 00.426.253h.273c.178 0 .34-.095.427-.25l1.354-2.48V13c0 .259.215.467.48.467h.253c.265 0 .48-.208.48-.467V7.037a.473.473 0 00-.48-.467zm4.084 2.81c-.837-.323-1.176-.508-1.176-1.035 0-.226 0-.693 1.085-.693.437 0 .78.077 1.06.158.123.037.261.02.376-.044a.47.47 0 00.225-.292l.064-.245a.462.462 0 00-.333-.558c-1.27-.36-2.447-.27-3.106.295-.397.337-.605.827-.605 1.416 0 1.368 1.106 1.794 1.91 2.107.866.336 1.22.528 1.22 1.103 0 .36-.142.53-.27.608-.13.087-.406.192-.964.192-.434 0-.87-.068-1.298-.199a.478.478 0 00-.383.04.468.468 0 00-.232.296l-.064.253a.461.461 0 00.296.544c.36.131 1.019.266 1.687.266 1.567 0 2.468-.733 2.468-2.01 0-1.446-1.133-1.883-1.96-2.202z" fill="#313235" fill-rule="nonzero"/></svg>