<svg width="24" height="24" viewBox="0 0 24 24" xmlns="http://www.w3.org/2000/svg"><path d="M18.443 2.842c1.803 0 3.271 1.414 3.271 3.154v8.764c0 1.74-1.468 3.155-3.271 3.155H8.829l-1.888 2.333c-.221.286-.63.639-1.291.639-.852 0-1.569-.681-1.569-1.485v-1.686a3.113 3.113 0 01-2.053-2.956V5.996c0-1.74 1.468-3.154 3.275-3.154h13.14zM6.728 9.817c-.697-.27-.983-.423-.983-.863 0-.188 0-.577.905-.577.364 0 .65.064.882.131a.403.403 0 00.502-.28l.053-.204a.385.385 0 00-.277-.465c-1.06-.3-2.04-.224-2.589.246-.33.28-.504.69-.504 1.18 0 1.14.922 1.495 1.591 1.756.723.28 1.017.44 1.017.919 0 .3-.118.442-.221.507-.11.072-.34.16-.804.16a3.67 3.67 0 01-1.082-.166.399.399 0 00-.319.034.39.39 0 00-.193.246l-.053.21a.384.384 0 00.246.454c.3.11.849.221 1.406.221 1.306 0 2.056-.61 2.056-1.675 0-1.204-.944-1.568-1.633-1.834zm7.334-2.342h-.21a.406.406 0 00-.356.207l-1.63 2.986-1.589-2.986a.4.4 0 00-.355-.21h-.227c-.222 0-.4.174-.4.39v4.971c0 .213.178.39.4.39h.213c.22 0 .4-.174.4-.39V9.89l1.076 2.026a.4.4 0 00.355.21h.227a.406.406 0 00.356-.208l1.129-2.067v2.983c0 .216.18.39.4.39h.21c.222 0 .401-.174.401-.39V7.864a.395.395 0 00-.4-.39zm3.403 2.342c-.698-.27-.98-.423-.98-.863 0-.188 0-.577.904-.577.364 0 .65.064.883.131a.41.41 0 00.313-.036.391.391 0 00.188-.244l.053-.204a.385.385 0 00-.277-.465c-1.059-.3-2.04-.224-2.588.246-.33.28-.504.69-.504 1.18 0 1.14.921 1.495 1.59 1.756.723.28 1.017.44 1.017.919 0 .3-.117.442-.224.507-.109.072-.339.16-.804.16-.361 0-.725-.057-1.08-.166a.399.399 0 00-.32.034.39.39 0 00-.193.246l-.054.21a.384.384 0 00.247.454c.3.11.849.221 1.406.221 1.305 0 2.056-.61 2.056-1.675 0-1.204-.944-1.568-1.633-1.834z" fill="#313235" fill-rule="nonzero"/></svg>