<svg width="24" height="24" viewBox="0 0 24 24" xmlns="http://www.w3.org/2000/svg"><path d="M7.612 14.014c-1.837-4.53-.356-7.894.583-9.378l4 6.672-4.583 2.706zM6.116 5.602c-.851 2.076-1.386 5.247.27 9.135l-2.11 1.246c-.09.053-.14.101-.356.042a.4.4 0 01-.252-.216c-.82-1.94-1.034-3.784-.636-5.476.4-1.742 1.443-3.325 3.084-4.73zm12.462 1.933l-5.168 3.053-4.058-6.767c1.647-.222 5.462-.18 9.226 3.714zm3.023-2.303a.378.378 0 01.1.292.391.391 0 01-.195.283L19.808 6.81c-2.86-3.05-5.776-4.093-7.994-4.356 1.73-.516 3.386-.594 4.94-.222 1.763.423 3.393 1.432 4.847 3zM8.085 4.493l-.372-.622a.668.668 0 01.266-.93.735.735 0 01.975.255l.35.586-1.219.711zm5.33 6.12l6.026 10.054a.665.665 0 01-.266.93.76.76 0 01-.353.09.718.718 0 01-.619-.343l-6.006-10.016 1.219-.715z" fill="#313235" fill-rule="nonzero"/></svg>