<svg width="24" height="24" viewBox="0 0 24 24" xmlns="http://www.w3.org/2000/svg"><path d="M5.95 2.025c.846.017 1.683.432 2.487 1.236.302.296.569.633.784 1 .432.694.589 1.411.465 2.131-.123.72-.524 1.423-1.196 2.095a5.707 5.707 0 01-.496.443c-.064.118-.025.487.496 1.25.602.879 1.61 1.918 2.317 2.624l.084.084c.706.706 1.745 1.711 2.624 2.316.76.521 1.132.56 1.25.496a5.28 5.28 0 01.442-.496c.673-.672 1.376-1.072 2.095-1.196.72-.123 1.437.034 2.132.465.367.219.7.482 1 .787.804.804 1.219 1.642 1.235 2.488.017.877-.395 1.765-1.226 2.633-.292.305-.698.597-.832.695l-.017.01a.154.154 0 00-.025.02c-.563.381-1.278.575-2.104.575-.866 0-1.857-.213-2.924-.639-2.182-.871-4.572-2.566-6.908-4.902l-.006-.006-.075-.072-.006-.006c-2.336-2.336-4.03-4.723-4.902-6.908-.832-2.09-.851-3.873-.056-5.028l.017-.025.011-.017c.104-.131.395-.537.7-.829.869-.829 1.754-1.24 2.634-1.224z" fill="#313235" fill-rule="nonzero"/></svg>