<svg width="24" height="24" viewBox="0 0 24 24" xmlns="http://www.w3.org/2000/svg"><path d="M18.577 16.403a.404.404 0 01-.35.205h-.434a.406.406 0 01-.345-.196l-2.585-4.325-1.028 1.286v2.831c0 .222-.18.404-.404.404h-.383a.403.403 0 01-.404-.404V7.476c0-.221.18-.403.404-.403h.383c.222 0 .404.18.404.403v4.065l3.428-4.317a.405.405 0 01.317-.151h.445c.154 0 .294.09.362.227a.405.405 0 01-.048.425l-2.695 3.404 2.93 4.865a.41.41 0 01.003.41zm-6.728-8.49a.401.401 0 01-.392.314H9.078v7.98c0 .222-.179.404-.403.404h-.38a.402.402 0 01-.404-.404v-7.98H5.459a.403.403 0 01-.403-.403v-.345c0-.221.18-.403.403-.403h6.073a.404.404 0 01.392.49l-.075.347zM11.84 2C5.403 2 2 5.403 2 11.846c0 6.437 3.403 9.84 9.84 9.84 6.443 0 9.846-3.403 9.846-9.84C21.686 5.403 18.283 2 11.84 2z" fill="#313235" fill-rule="nonzero"/></svg>