<svg width="24" height="24" viewBox="0 0 24 24" xmlns="http://www.w3.org/2000/svg"><path d="M20.975 3.68c.333 0 .602.272.602.611 0 .336-.269.611-.602.611H15.03v1.655c0 .337-.27.611-.602.611h-1.393l-.988 1.006h2.81c.198.008 4.215.243 6.066 4.042 2.076 4.255-.47 5.95-1.563 6.675l-.073.05a2.051 2.051 0 01-1.131.345h-.017l-.625-.003c-.092.991-.776 1.625-1.806 1.625-1.037 0-1.72-.64-1.81-1.64l-2.571-.005c-.087 1-.773 1.642-1.81 1.642-1.036 0-1.722-.642-1.81-1.645h-.456c-.087 1.003-.77 1.645-1.81 1.645-1.036 0-1.725-.645-1.809-1.647H2.627a.605.605 0 01-.602-.611V8.784c0-.162.065-.316.177-.431a.596.596 0 01.425-.18h5.295l1.033-1.047a.61.61 0 01-.384-.569V4.902H2.627a.605.605 0 01-.602-.61c0-.337.27-.611.602-.611zM15.71 18.42c-.448 0-.621.177-.621.63 0 .454.173.63.621.63.449 0 .622-.176.622-.63 0-.453-.173-.63-.622-.63zm-6.19 0c-.448 0-.622.177-.622.63 0 .454.174.63.622.63s.622-.176.622-.63c0-.453-.174-.63-.622-.63zm-4.073 0c-.448 0-.622.177-.622.63 0 .454.174.63.622.63.446 0 .62-.176.622-.63 0-.453-.176-.63-.622-.63zm14.695-1.89H3.23v1.5h.638c.3-.526.852-.837 1.575-.837.722 0 1.274.314 1.574.84h.927c.3-.526.852-.84 1.574-.84.726 0 1.278.314 1.577.84l3.037.006c.3-.53.854-.846 1.58-.846.73 0 1.285.322 1.582.86l.857.006c.168.03.334-.048.48-.146l.075-.047c.479-.32 1.07-.712 1.437-1.337zm-5.235-7.127v4.132h5.266a7.776 7.776 0 00-.328-.776c-1.426-2.921-4.412-3.31-4.938-3.356zm-5.496.678H7.154v3.387h2.258V10.08zm3.706 0h-2.303v3.387h2.303V10.08zm-7.37 0H3.232v3.384h2.516v-3.384zm5.585-2.913h-.717l-.989 1.006h.718l.988-1.006zm2.496-2.266H9.78v1.045h4.05V4.902z" fill="#313235" fill-rule="nonzero"/></svg>