<svg width="24" height="24" viewBox="0 0 24 24" xmlns="http://www.w3.org/2000/svg"><path d="M16.235 21.092c2.02 1.62 4.28 2.532 6.256 2.532.09 0 .181-.004.269-.007.191-.01.373-.07.527-.172a.71.71 0 00.195-1.018.791.791 0 00-.907-.269c-1.6.047-3.573-.756-5.355-2.188l-.08-.064a12.607 12.607 0 01-2.548-2.79c.258.225.517.423.783.578 1.062.625 2.117.945 3.052.945.524 0 1.012-.101 1.442-.306.649-.31 1.445-.992 1.67-2.484 1.147-1.039 1.271-2.054 1.16-2.736-.202-1.258-1.348-2.397-3.143-3.123-1.015-.414-2.464-.508-3.882-.46 1.19-.743 2.316-1.62 2.887-2.515 1.026-1.583 1.268-3.146.67-4.282-.327-.619-1.04-1.378-2.61-1.594C15.53.044 14.468-.074 13.752.034c-1.317.191-2.51 1.287-3.274 2.998-.433.965-.53 2.346-.48 3.7C9.217 5.6 8.296 4.525 7.358 3.98c-1.664-.975-3.3-1.21-4.494-.639-.649.31-1.446.992-1.67 2.484C.046 6.864-.078 7.88.033 8.561c.201 1.257 1.35 2.394 3.142 3.12.858.35 2.03.474 3.234.474.219 0 .434-.007.652-.014-1.19.743-2.32 1.624-2.89 2.518-1.026 1.583-1.268 3.146-.67 4.282.327.619 1.043 1.378 2.609 1.59.894.898 1.768 1.136 2.45 1.136.148 0 .293-.01.42-.03 1.322-.192 2.515-1.287 3.274-2.998.219-.484.35-1.08.424-1.715a14.033 14.033 0 003.479 4.101" fill="#313235" fill-rule="nonzero"/></svg>