<svg width="24" height="24" viewBox="0 0 24 24" xmlns="http://www.w3.org/2000/svg"><path d="M18.29 20.097l-.798-4.642 2.236-1.116 2.09 7.311-3.529-1.553zm-5.715 1.765l.017-2.433c.571-.64 1.791-2.128 3.025-3.967l.437.141.776 4.552-4.255 1.707zm-.69-13.479c-1.068 0-1.566-.497-1.566-1.566 0-1.07.498-1.567 1.567-1.567s1.566.498 1.566 1.567c.003 1.065-.494 1.566-1.566 1.566zm-.759 13.5l-4.252-1.745.524-4.595.619-.182c1.223 1.87 2.46 3.412 3.126 4.128l-.017 2.393zm-5.704-1.765L1.919 21.64l2.29-7.267 1.76.995-.547 4.75zm18.208 2.615l-2.753-9.63a.721.721 0 00-1.018-.45l-3.234 1.613-.201-.064c1.398-2.283 2.608-4.87 2.615-6.978.013-4.491-2.66-7.18-7.15-7.194h-.034c-4.47 0-7.146 2.673-7.163 7.153-.006 2.024 1.157 4.595 2.528 6.898l-.386.11L4.14 12.67a.733.733 0 00-.622-.044.719.719 0 00-.423.454l-3.032 9.63a.726.726 0 00.978.884l5.076-2.205 5.314 2.178c.034.014.07.027.107.034l.135.03a.722.722 0 00.437-.03l5.526-2.212 5.002 2.205a.735.735 0 00.77-.117c.211-.182.299-.471.221-.743z" fill="#313235" fill-rule="nonzero"/></svg>