<svg width="24" height="24" fill="none" xmlns="http://www.w3.org/2000/svg"><path d="M11.776 4.094a.419.419 0 1 0 .836.003V2.567a.419.419 0 0 0-.836 0v1.526Zm7.17 13.904c.655 0 1.226.467 1.226 1.002v2.148c0 .532-.574 1.002-1.226 1.002H5.442c-.666 0-1.226-.458-1.226-1.002V19c0-.544.563-1.002 1.226-1.002h.367v-6.153c0-4.197 2.208-6.414 6.382-6.414 4.177 0 6.388 2.217 6.388 6.414v6.15h.367v.003Zm-12.3-.026h11.097v-6.124c0-3.7-1.87-5.575-5.549-5.575-3.685 0-5.548 1.873-5.548 5.575v6.124Zm12.693 3.153L19.336 19a.57.57 0 0 0-.39-.163H5.442c-.21 0-.367.12-.39.171v2.14c.015.037.174.163.39.163h13.501c.2 0 .373-.129.396-.186ZM4.509 9.63c0 .23-.188.418-.418.42H2.568a.419.419 0 0 1-.418-.417v-.003a.42.42 0 0 1 .418-.422h1.52a.42.42 0 0 1 .42.422Zm17.641.025a.419.419 0 0 0-.418-.418l-1.523-.006c-.23 0-.418.19-.418.421v.003c0 .23.188.419.418.419h1.523c.23 0 .418-.188.418-.419ZM5.735 5.74 4.66 4.657a.424.424 0 0 1 0-.595.417.417 0 0 1 .589-.003l.002.003 1.076 1.082a.425.425 0 0 1-.006.597.42.42 0 0 1-.586-.003Zm11.382-.422a.42.42 0 0 0 .717.296l1.075-1.081a.424.424 0 0 0 0-.595l-.003-.003a.417.417 0 0 0-.589.003L17.242 5.02a.425.425 0 0 0-.125.298Zm-2.393 7.47-1.654.003a.42.42 0 0 0-.418.421v1.665h-.97v-1.665a.42.42 0 0 0-.418-.418H9.608v-.973h1.656a.42.42 0 0 0 .415-.421V9.734h.97v1.665c0 .23.188.418.419.418h1.656v.97Zm.836-1.138c0-.358-.341-.671-.734-.671h-1.34V9.631c0-.393-.313-.738-.669-.738h-1.303c-.356 0-.669.345-.669.738v1.348h-1.34c-.398 0-.734.308-.734.672v1.309c0 .364.336.672.734.672h1.34v1.346c0 .398.308.737.67.737h1.302c.362 0 .669-.336.669-.737v-1.35h1.34c.39 0 .734-.312.734-.67v-1.31Z" fill="#313235"/></svg>