<svg width="24" height="24" fill="none" xmlns="http://www.w3.org/2000/svg"><path d="M20.907 6.995H19.7v-.6a.95.95 0 0 0-.936-.957H17.56a.948.948 0 0 0-.936.957v3.513a.177.177 0 0 1-.035-.008c-.014-.005-.028-.009-.043-.009H7.453a.157.157 0 0 0-.046.009c-.012.003-.024.007-.038.008V6.395a.95.95 0 0 0-.935-.957H5.229a.948.948 0 0 0-.936.957v.6H3.092a.945.945 0 0 0-.936.955v8.1c0 .53.418.956.936.956h1.201v.6c0 .529.42.957.936.957h1.205a.948.948 0 0 0 .935-.957v-3.513c.014.001.026.005.038.008a.156.156 0 0 0 .046.009h9.093c.015 0 .03-.005.045-.01a.181.181 0 0 1 .033-.007v3.513c0 .529.42.957.936.957h1.204a.948.948 0 0 0 .936-.957v-.6h1.207a.945.945 0 0 0 .936-.955V7.953a.946.946 0 0 0-.936-.958ZM7.453 13.152v-2.303h9.093v2.303H7.453Zm10.11 4.454V6.396h1.204v11.21h-1.205ZM4.3 7.95v8.098H3.096V7.95H4.3Zm15.402 8.101V7.953h1.205v8.098h-1.204ZM5.2 17.61V6.4h1.202v11.21H5.2Z" fill="#313235"/></svg>