<svg width="24" height="24" fill="none" xmlns="http://www.w3.org/2000/svg"><path d="M19.392 8.075a.392.392 0 0 0-.033-.162.646.646 0 0 0-.174-.325L13.824 2.35a.686.686 0 0 0-.476-.194H5.846c-.638 0-1.221.574-1.221 1.205v17.277c0 .641.571 1.204 1.221 1.204h12.325c.664 0 1.221-.551 1.221-1.204V8.075Zm-1.22 12.941H5.845c-.199 0-.4-.19-.4-.378V3.364c0-.174.218-.379.4-.379h6.818V5.46c0 .958.325 1.781.941 2.384.614.599 1.451.915 2.423.915h2.544v11.88c0 .193-.194.378-.4.378Zm.187-13.087h-2.333c-.754 0-1.395-.238-1.852-.683-.454-.443-.692-1.062-.692-1.79V3.165l4.877 4.764Zm-4.241 10.897h-.112c-.417-.006-.913-.182-.913-.983 0-.802.493-.975.902-.978h.117c.42.011.922.188.922.983 0 .793-.496.97-.916.978Zm.916-6.303L10.941 11.4v-.75l4.093 1.12v.753Zm-5.826 4.252-.112.003c-.418-.005-.914-.182-.914-.986 0-.798.49-.975.9-.977l.12.002c.42.011.922.188.922.983 0 .793-.499.97-.916.975Zm6.644-5.173c0-.32-.241-.586-.55-.62l-4.461-1.224-.107-.014a.622.622 0 0 0-.619.625v3.86a1.93 1.93 0 0 0-.896-.244l-.149-.002c-.79.008-1.711.481-1.711 1.803 0 1.32.927 1.802 1.725 1.813h.135c.762-.011 1.636-.465 1.706-1.656l.014-3.689 4.092 1.12v2.905a1.93 1.93 0 0 0-.905-.243h-.143c-.79.008-1.71.482-1.71 1.804 0 1.319.926 1.8 1.719 1.812h.14c.793-.014 1.72-.496 1.72-1.804v-6.246Z" fill="#313235"/></svg>