<svg width="24" height="24" fill="none" xmlns="http://www.w3.org/2000/svg"><path d="M18.794 5.486a.42.42 0 0 0 .036-.614c-2.725-2.918-6.77-2.722-6.921-2.708-4.37.047-6.695 2.45-6.79 2.552a.42.42 0 0 0 .03.613c.182.16.468.146.64-.03v-.002c.053-.053 2.202-2.223 6.15-2.268h.007c.183-.006 3.827-.123 6.206 2.423a.477.477 0 0 0 .642.034Zm-6.827 5.132c.928 0 1.653.232 2.152.697.523.482.787 1.193.787 2.115 0 .921-.266 1.633-.79 2.112-.499.46-1.224.695-2.152.695-.924 0-1.65-.236-2.148-.695-.518-.479-.781-1.188-.781-2.112 0-.925.263-1.636.781-2.115.504-.465 1.227-.697 2.151-.697Zm1.524 4.296c.336-.308.507-.809.507-1.484 0-.678-.173-1.177-.51-1.49-.325-.303-.837-.454-1.52-.454-.684 0-1.191.151-1.519.454-.336.31-.504.812-.504 1.49 0 .678.168 1.176.504 1.485.325.3.835.45 1.518.45.687.003 1.2-.15 1.524-.45Zm2.785 5.673c0-.664-.205-1.219-.592-1.605-.425-.423-1.092-.647-1.927-.647H10.18c-.832 0-1.496.224-1.921.647-.384.384-.586.938-.586 1.605v.384h8.602v-.384Zm-2.519-3.12c1.087 0 1.978.316 2.58.915.555.55.846 1.311.846 2.205v.935c0 .177-.148.32-.333.32H7.096a.326.326 0 0 1-.333-.32v-.935c0-.897.291-1.659.837-2.205.6-.6 1.493-.916 2.577-.916h3.58ZM11.914 5.02c.129-.008 3.33-.11 5.37 2.076a.42.42 0 0 1-.037.613.468.468 0 0 1-.638-.034c-1.748-1.874-4.642-1.792-4.67-1.787-2.787.03-4.482 1.7-4.596 1.812l-.006.006a.471.471 0 0 1-.641.031.422.422 0 0 1-.034-.613l.006-.007c.143-.144 2.035-2.061 5.246-2.097Zm2.866 4.868c.165.18.453.196.638.037a.423.423 0 0 0 .04-.614c-1.285-1.375-3.262-1.365-3.502-1.364h-.022c-2.138.023-3.39 1.328-3.443 1.384a.42.42 0 0 0 .034.613c.087.073.193.11.302.11a.447.447 0 0 0 .34-.143c.008-.012 1.03-1.079 2.792-1.096h.002c.073-.001 1.783-.034 2.819 1.073Z" fill="#313235"/></svg>