<svg width="24" height="24" fill="none" xmlns="http://www.w3.org/2000/svg"><path d="M14.323 6.24a.57.57 0 0 0 .513.333l1.387.011.003 2.23c-.003.504.4.914.904.92h1.752a.913.913 0 0 0 .904-.92l-.002-2.23 1.38-.011a.57.57 0 0 0 .513-.334.621.621 0 0 0-.1-.664l-3.127-3.21a.549.549 0 0 0-.507-.21c-.151.02-.286.095-.345.179l-3.2 3.272a.61.61 0 0 0-.075.633Zm-11.42.988c0-.235.188-.425.42-.425h.6c-.003-.048-.008-.095-.012-.142a3.935 3.935 0 0 1-.024-.382c0-.044.004-.083.009-.122.003-.032.007-.063.008-.097h-.58a.426.426 0 0 1 0-.852h.664c.35-1.921 1.69-2.97 3.877-2.97.788 0 1.474.135 2.04.401.21.101.303.353.205.566a.418.418 0 0 1-.552.21l-.006-.002C9.098 3.2 8.529 3.09 7.865 3.09c-1.72 0-2.706.704-3.02 2.118h2.382c.232 0 .42.191.42.426a.423.423 0 0 1-.42.426H4.742l-.007.09c-.004.042-.007.083-.007.129 0 .185.016.35.032.519l.001.007H7.23c.233 0 .42.19.42.426a.423.423 0 0 1-.42.426H4.915C5.3 8.87 6.274 9.464 7.865 9.464c.673 0 1.247-.112 1.704-.33a.42.42 0 0 1 .557.204c.101.213.009.465-.201.566-.57.275-1.264.412-2.062.412-2.065 0-3.365-.941-3.802-2.659h-.737a.427.427 0 0 1-.42-.429Zm15.104-4.107s2.539 2.606 2.536 2.606l-1.042.008a.58.58 0 0 0-.558.591l.003 2.491a.063.063 0 0 1-.065.064h-1.753a.066.066 0 0 1-.065-.067l-.003-2.476v-.003a.585.585 0 0 0-.568-.6l-1.029-.008 2.544-2.606Zm2.222 17.623c-1.05.316-2.855.316-3.9.002-.23-.072-.77-.268-.77-.543v-1.185c.17.087.35.16.535.215.594.183 1.37.284 2.19.284.819 0 1.598-.101 2.192-.284a3.04 3.04 0 0 0 .524-.218v1.188c0 .274-.541.47-.771.54Zm-5.51-.46c-.099.146-.354.334-.768.46-1.043.316-2.858.316-3.895 0-.437-.132-.692-.311-.779-.449v-1.32c.171.088.35.16.536.216.593.185 1.372.284 2.19.284.819 0 1.597-.101 2.191-.284.18-.058.356-.128.524-.218v1.311Zm-7.053.46c-1.042.319-2.857.319-3.897 0-.46-.143-.697-.323-.779-.449v-1.308c.171.087.35.16.536.216.594.182 1.372.283 2.19.283.819 0 1.597-.101 2.191-.283.2-.062.373-.132.527-.21v1.291c-.1.149-.356.334-.768.46Zm-4.62-2.766c.101-.143.35-.288.715-.4 1.042-.314 2.858-.314 3.897.003.193.058.594.201.726.409-.065.095-.238.249-.72.397-1.034.317-2.86.317-3.897 0-.373-.114-.625-.263-.72-.409Zm6.999-2.765c1.04-.32 2.858-.32 3.903 0 .193.059.594.205.725.41-.07.097-.243.254-.723.4-1.042.316-2.857.316-3.896 0-.485-.149-.662-.306-.726-.404.095-.145.347-.294.717-.406Zm5.567-1.933c.073-.1.255-.252.717-.395 1.042-.317 2.858-.317 3.9 0 .193.059.594.204.726.409-.068.098-.241.252-.72.4-1.04.317-2.864.317-3.9 0-.376-.114-.633-.266-.723-.414Zm-.053 3.37c.17.087.35.16.538.216.596.182 1.375.28 2.19.28.816 0 1.595-.098 2.191-.28a3.04 3.04 0 0 0 .524-.218v1.31c-.098.147-.353.334-.767.46-1.037.317-2.86.317-3.897 0-.438-.131-.693-.31-.78-.448v-1.32Zm0-2.356c.17.087.347.16.532.216.597.182 1.373.283 2.194.286.818 0 1.597-.101 2.19-.283a3.4 3.4 0 0 0 .524-.21v1.291c-.098.146-.352.33-.764.457-1.045.316-2.858.316-3.9 0-.46-.14-.695-.322-.776-.448v-1.309Zm-6.284 2.328c.17.087.35.16.535.216.6.185 1.375.283 2.19.283.816 0 1.595-.1 2.191-.283.183-.056.36-.126.527-.21v1.292c-.081.12-.305.316-.768.456-1.036.317-2.86.317-3.896 0-.46-.14-.698-.32-.78-.448v-1.306Zm12.565-3.196c0-.429-.238-1.009-1.37-1.356-1.196-.364-3.188-.364-4.385-.003-.745.23-1.193.585-1.328 1.059a1.19 1.19 0 0 0-.039.3v1.185a3.23 3.23 0 0 0-.53-.216c-1.196-.364-3.193-.364-4.384 0-.748.23-1.193.583-1.328 1.06a1.076 1.076 0 0 0-.042.299v1.224a3.227 3.227 0 0 0-.532-.216c-1.194-.364-3.186-.364-4.382 0-.745.23-1.19.586-1.328 1.057l-.003.005c-.025.096-.039.196-.039.297v2.365c0 .14.07.269.188.347.232.306.63.558 1.188.729.596.182 1.375.283 2.19.283.816 0 1.595-.101 2.191-.283.384-.115.698-.292.939-.496.238.199.555.372.964.496.6.182 1.375.283 2.19.283.816 0 1.592-.101 2.191-.283.345-.101.664-.27.939-.496.207.185.513.358.958.496.6.179 1.379.28 2.191.28.813 0 1.589-.101 2.191-.283 1.132-.348 1.37-.93 1.37-1.359v-6.774Z" fill="#313235"/></svg>