<svg width="24" height="24" fill="none" xmlns="http://www.w3.org/2000/svg"><path d="M6.262 12.003c0-3.134 1.451-3.798 2.698-3.798 1.238 0 2.748.664 2.748 3.798 0 3.135-1.476 3.798-2.714 3.798-1.813 0-2.732-1.28-2.732-3.798Zm.902.017c0 2.552.975 2.88 1.796 2.88.826 0 1.787-.303 1.787-2.88s-.95-2.905-1.787-2.905c-.835 0-1.796.353-1.796 2.905ZM17.2 8.336h.3c.163.003.292.14.286.303v6.737a.301.301 0 0 1-.302.302h-.23a.303.303 0 0 1-.255-.14l-3.487-5.283v5.11c0 .17-.14.31-.311.31h-.28a.31.31 0 0 1-.303-.31V8.639c0-.165.135-.303.303-.303h.221c.1 0 .196.048.255.132l3.524 5.289V8.639c0-.157.123-.289.28-.303Z" fill="#313235"/><path d="M11.5 2.16h.91c1.578.05 9.435.63 9.435 9.843s-7.826 9.843-9.4 9.843h-.877c-8.958-.115-9.41-8.201-9.41-9.843 0-1.641.452-9.762 9.343-9.843Zm.09 18.866h.846c2.028 0 8.588-.821 8.588-9.023s-6.563-8.966-8.63-9.022h-.885c-1.97 0-8.532.753-8.532 9.022s6.563 9.023 8.613 9.023Z" fill="#313235"/></svg>