<svg width="24" height="24" fill="none" xmlns="http://www.w3.org/2000/svg"><path d="M10.233 18.048h8.28a.28.28 0 0 0 .28-.28.28.28 0 0 0-.28-.28h-8.28a.28.28 0 0 0-.28.28c0 .154.126.28.28.28ZM18.513 14.77H11.39a.28.28 0 0 1-.28-.28.28.28 0 0 1 .28-.28h7.126a.28.28 0 0 1 .28.28c0 .155-.129.28-.283.28ZM13.177 11.493h5.336a.28.28 0 0 0 .28-.28.28.28 0 0 0-.28-.28h-5.336a.28.28 0 0 0-.28.28c0 .154.126.28.28.28ZM7.451 11.81v.518c0 .154-.126.28-.28.28a.281.281 0 0 1-.28-.28v-.502a3.024 3.024 0 0 1-1.532-.532.364.364 0 0 1-.171-.313.348.348 0 0 1 .353-.345.426.426 0 0 1 .232.076c.372.248.746.392 1.118.433V9.262c-1.3-.185-1.574-.926-1.574-1.52 0-.915.61-1.528 1.574-1.605v-.29a.28.28 0 0 1 .28-.28.28.28 0 0 1 .28.28v.301c.405.044.78.165 1.079.35.134.082.207.2.207.326a.337.337 0 0 1-.336.336.515.515 0 0 1-.213-.059l-.003-.003a2.306 2.306 0 0 0-.734-.266V8.63c.743.107 1.6.465 1.6 1.541.005.912-.6 1.516-1.6 1.638Zm0-2.469v1.79c.567-.094.905-.433.905-.929 0-.34-.114-.701-.905-.86Zm-.56-2.53c-.547.063-.88.391-.88.892 0 .313.107.683.88.846V6.812Z" fill="#313235"/><path d="M7.83 21.874h12.106c.322 0 .647 0 .972.003.566 0 .89-.328.89-.893V7.793a.278.278 0 0 0-.08-.217L16.38 2.241a.301.301 0 0 0-.092-.06.277.277 0 0 0-.107-.021c-2.944 0-7.705 0-8.353.006-.582 0-.916.333-.916.91v.882C5.45 4.007 4.3 4.422 3.5 5.196 2.61 6.054 2.16 7.336 2.16 9.01c0 1.672.45 2.955 1.339 3.812.8.771 1.949 1.189 3.412 1.239v6.89c0 .594.327.924.918.924Zm8.072-19.151V5.28c.003.948.267 1.687.744 2.164.394.395.936.61 1.598.612.277.003 1.286.003 2.997.003v12.922c-.003.255-.078.333-.333.333H7.829c-.28 0-.358-.078-.358-.364V14.06c1.487-.043 2.648-.46 3.457-1.24.887-.857 1.338-2.14 1.338-3.812 0-1.673-.45-2.955-1.338-3.813-.808-.78-1.971-1.196-3.454-1.24v-.88c0-.269.084-.35.355-.35.63-.003 5.118-.003 8.073-.003Zm.56.395 4.378 4.38a1740.187 1740.187 0 0 1-2.599-.002c-1.543-.008-1.776-1.392-1.779-2.216V3.118ZM7.213 4.513c1.46 0 2.58.364 3.328 1.087.776.748 1.168 1.893 1.168 3.409 0 1.515-.395 2.66-1.168 3.409-.75.722-1.868 1.087-3.328 1.087-1.46 0-2.58-.365-3.328-1.087-.775-.748-1.168-1.894-1.168-3.41 0-1.515.393-2.66 1.168-3.408.751-.72 1.869-1.087 3.328-1.087Z" fill="#313235"/></svg>