<svg width="24" height="24" fill="none" xmlns="http://www.w3.org/2000/svg"><path d="M11.997 6.582c-.698 0-1.241-.185-1.617-.546-.392-.378-.59-.936-.59-1.664 0-.728.198-1.289.59-1.667.376-.364.92-.549 1.617-.549s1.243.185 1.621.55c.393.377.591.94.591 1.666 0 .725-.198 1.286-.59 1.664-.379.361-.925.546-1.622.546Zm-1.04-3.277c-.224.215-.336.574-.336 1.067s.112.849.334 1.064c.215.208.565.314 1.042.314.476 0 .826-.106 1.044-.314.224-.213.336-.571.336-1.061 0-.493-.114-.852-.338-1.067-.219-.21-.569-.317-1.042-.317-.474 0-.824.106-1.04.314ZM8.91 10.162h6.182v-.154c0-.336-.07-.813-.404-1.16-.37-.386-.935-.465-1.341-.465h-2.695c-.409 0-.972.081-1.342.465-.333.345-.4.824-.4 1.16v.154Zm-.583.835a.253.253 0 0 1-.252-.252v-.737c0-.703.219-1.306.633-1.737.451-.47 1.123-.72 1.941-.72h2.695c.818 0 1.49.25 1.944.72.415.434.636 1.034.636 1.737v.737c0 .137-.112.249-.25.252H8.328Zm-3.622 4.22c0 .494.112.85.334 1.065.215.208.565.314 1.042.314.476 0 .826-.104 1.042-.314.224-.215.336-.571.336-1.061s-.112-.85-.336-1.065c-.219-.21-.569-.316-1.042-.316-.477-.003-.827.103-1.042.31-.222.216-.334.575-.334 1.068Zm1.373 2.211c-.698 0-1.241-.185-1.62-.546-.391-.378-.587-.936-.587-1.664 0-.726.198-1.286.588-1.664.375-.364.921-.549 1.619-.549.697 0 1.244.185 1.619.549.392.378.59.941.59 1.667 0 .725-.198 1.285-.59 1.663-.375.36-.919.544-1.62.544Zm3.095 3.426c0-.336-.07-.813-.403-1.157-.37-.384-.936-.465-1.345-.465H4.733c-.409 0-.975.081-1.339.465-.333.347-.4.82-.4 1.16v.154c-.003-.003 6.18-.003 6.18-.003v-.154Zm-1.748-2.457c.82 0 1.493.25 1.944.72.418.434.636 1.036.636 1.737v.736c0 .14-.112.253-.252.253H2.408a.251.251 0 0 1-.252-.253v-.736c0-.703.219-1.303.633-1.737.451-.47 1.124-.723 1.941-.723l2.695.003Zm9.118-3.185c0 .493.112.849.333 1.062.216.207.566.314 1.04.314.476 0 .826-.107 1.044-.314.224-.216.336-.572.336-1.062 0-.493-.112-.848-.336-1.067-.218-.207-.569-.314-1.045-.314-.473 0-.823.107-1.039.314-.221.216-.333.574-.333 1.067Zm-.247 1.664c-.392-.378-.588-.935-.588-1.664 0-.728.196-1.288.588-1.666.376-.364.922-.55 1.617-.55.697 0 1.243.185 1.621.55.395.378.591.938.591 1.666 0 .726-.198 1.286-.59 1.664-.379.361-.922.546-1.622.546-.695 0-1.241-.184-1.617-.546Zm4.715 3.972c0-.336-.07-.812-.404-1.157-.37-.383-.935-.465-1.344-.465H16.57c-.41 0-.972.082-1.34.465-.332.348-.4.821-.4 1.16v.154h6.18v-.157Zm.193-1.737c.417.435.639 1.034.639 1.737v.737c0 .14-.113.252-.253.252h-7.344a.251.251 0 0 1-.252-.252v-.737c0-.703.218-1.305.633-1.737.45-.47 1.123-.72 1.941-.72h2.695c.818 0 1.49.25 1.94.72Zm-7.297-2.585a.418.418 0 0 0 .437-.711l-1.941-1.188v-2.258a.418.418 0 0 0-.835 0v2.258l-1.944 1.19a.414.414 0 0 0-.137.572.414.414 0 0 0 .571.137l1.925-1.176 1.924 1.176Z" fill="#313235"/></svg>