<svg width="24" height="24" fill="none" xmlns="http://www.w3.org/2000/svg"><path d="M18.702 2.97c1.729 0 3.138 1.356 3.138 3.026v8.96c0 1.67-1.41 3.025-3.138 3.025H8.79L6.8 20.444a1.403 1.403 0 0 1-1.156.577c-.757 0-1.396-.605-1.396-1.32v-1.863a2.994 2.994 0 0 1-2.098-2.883v-8.96c0-1.669 1.41-3.025 3.138-3.025h13.414Zm2.317 11.985v-8.96c0-1.23-1.04-2.232-2.317-2.232H5.288c-1.278 0-2.32 1-2.32 2.233v8.96c0 1.078.729 1.98 1.77 2.185.191.039.329.201.329.39v2.168c0 .271.28.526.574.526.098 0 .3 0 .504-.263l2.118-2.622a.412.412 0 0 1 .322-.152h10.112c1.283-.002 2.322-1.003 2.322-2.233ZM6.904 10.151l-.008-.003c-.678-.264-1.065-.44-1.065-.975 0-.205 0-.69 1.029-.69.316.003.627.048.93.138a.32.32 0 0 0 .238-.028.301.301 0 0 0 .146-.185l.053-.207a.296.296 0 0 0-.213-.359c-1.045-.294-2.015-.224-2.547.233-.314.269-.479.66-.479 1.131 0 1.096.863 1.432 1.558 1.701.706.272 1.104.454 1.104 1.031 0 .37-.168.535-.272.6-.348.23-1.252.24-2.012.008a.31.31 0 0 0-.243.025.294.294 0 0 0-.149.188l-.053.216a.294.294 0 0 0 .188.347c.22.081.764.219 1.398.219 1.266 0 1.994-.589 1.994-1.614 0-1.156-.884-1.5-1.597-1.776Zm7.327-2.39a.303.303 0 0 1 .308.297v5.08a.301.301 0 0 1-.308.296h-.216a.303.303 0 0 1-.308-.297V9.691l-1.345 2.468a.315.315 0 0 1-.272.16h-.23a.313.313 0 0 1-.274-.162l-1.292-2.435v3.418a.301.301 0 0 1-.308.297h-.215a.303.303 0 0 1-.309-.297V8.06c0-.165.138-.296.309-.296h.232a.31.31 0 0 1 .275.162l1.709 3.222 1.756-3.228a.315.315 0 0 1 .275-.16h.213Zm3.254 2.39-.007-.003c-.68-.264-1.068-.44-1.062-.975 0-.205 0-.69 1.028-.69.314.003.625.048.928.138a.321.321 0 0 0 .238-.028.3.3 0 0 0 .145-.185l.054-.207a.298.298 0 0 0-.213-.359c-1.045-.294-2.015-.224-2.547.233-.317.269-.482.66-.482 1.131 0 1.096.866 1.432 1.56 1.701.707.272 1.105.454 1.105 1.031 0 .37-.169.535-.272.6-.348.23-1.253.24-2.012.008a.31.31 0 0 0-.244.025.294.294 0 0 0-.148.188l-.053.216a.294.294 0 0 0 .187.347c.222.081.765.219 1.398.219 1.267 0 1.995-.589 1.995-1.614 0-1.156-.884-1.5-1.598-1.776Z" fill="#313235"/></svg>