<svg width="24" height="24" fill="none" xmlns="http://www.w3.org/2000/svg"><path d="M18.332 3.915c0-.972.787-1.765 1.754-1.765.97 0 1.757.793 1.754 1.765 0 .973-.785 1.763-1.754 1.763-.188 0-.364-.037-.535-.093l-2.634 4.447a1.761 1.761 0 0 1-1.261 2.982 1.763 1.763 0 0 1-1.754-1.766c0-.103.011-.207.03-.308L9.394 8.937c-.32.42-.82.697-1.387.697-.165 0-.325-.025-.482-.07l-2.426 4.313a1.762 1.762 0 0 1-1.194 3.046 1.763 1.763 0 0 1-1.754-1.766 1.76 1.76 0 0 1 1.754-1.762c.163.002.325.028.48.075L6.81 9.155a1.76 1.76 0 0 1 1.194-3.049c.966 0 1.754.79 1.754 1.763 0 .104-.012.207-.031.308l4.54 2.004c.321-.42.82-.698 1.389-.698.193 0 .384.034.566.1l2.623-4.42a1.775 1.775 0 0 1-.513-1.248Zm1.757.939a.935.935 0 0 0 .933-.936.936.936 0 0 0-.933-.939.938.938 0 0 0 0 1.875Zm-4.43 7.33a.938.938 0 0 0 0-1.874.938.938 0 0 0 0 1.875Zm-8.583-4.31c0 .516.418.934.933.934a.935.935 0 0 0 .93-.939.933.933 0 0 0-.93-.936.935.935 0 0 0-.933.936v.006Zm-3.17 8.222a.937.937 0 0 0 0-1.872.935.935 0 0 0 0 1.872Z" fill="#313235"/></svg>