<svg width="24" height="24" fill="none" xmlns="http://www.w3.org/2000/svg"><path d="M11.058 2.15c.824 0 4.909.188 6.086 3.861 1.418.11 4.699.83 4.696 5.117 0 4.912-4.31 5.161-5.173 5.161l-1.852.011-5.158 5.414a.42.42 0 0 1-.297.126.414.414 0 0 1-.384-.563l1.793-4.82-.594-.134-.01.003a.08.08 0 0 1-.026.005l-3.76.017c-2.043 0-4.229-1.118-4.229-4.26 0-2.566 1.451-3.566 2.502-3.953C4.764 2.441 10 2.15 11.058 2.15Zm5.61 13.31c1.022 0 4.351-.311 4.354-4.33 0-3.777-2.94-4.267-4.2-4.303a.412.412 0 0 1-.387-.309c-.891-3.365-4.635-3.536-5.377-3.536-1.309 0-5.582.387-5.582 5.34l.006.116c0 .185-.124.35-.3.4-1.466.42-2.208 1.516-2.208 3.254 0 3.093 2.382 3.427 3.404 3.427l1.236-.006a.417.417 0 0 1 .092-.39l6.067-6.598a.41.41 0 0 1 .521-.07c.168.106.238.32.165.504l-1.81 4.722 3.127.706c.143.03.261.14.303.285a.418.418 0 0 1-.098.407l-.367.386 1.053-.005Zm-4.96.846-1.264 3.38 4.433-4.652-2.878-.65a.411.411 0 0 1-.272-.21.412.412 0 0 1-.02-.345l1.208-3.152-4.119 4.483 2.618.594c.114.025.215.1.271.207a.424.424 0 0 1 .023.345Z" fill="#313235"/></svg>