<svg width="24" height="24" fill="none" xmlns="http://www.w3.org/2000/svg"><path d="M15.037 8.105c.191.008 4.172.237 6.01 3.94 2.04 4.105-.364 5.673-1.521 6.424l-.076.049a1.876 1.876 0 0 1-1.042.313h-.017l-.835-.005c-.059.933-.675 1.51-1.647 1.51-.975 0-1.594-.582-1.648-1.521l-3.02-.006c-.05.942-.67 1.527-1.647 1.527-.98 0-1.6-.585-1.65-1.53h-.86c-.05.945-.67 1.53-1.65 1.53-.981 0-1.6-.587-1.65-1.532H2.561a.41.41 0 0 1-.41-.409v-2.722l-.002-.008.003-.008v-1.832c-.003 0-.003-.003-.003-.006V8.514a.4.4 0 0 1 .12-.289.406.406 0 0 1 .289-.12h5.488l1.42-1.415h-.226a.41.41 0 0 1-.41-.409V4.417H2.56a.408.408 0 1 1 0-.817h18.726a.408.408 0 1 1 0 .817h-6.273V6.28a.408.408 0 0 1-.409.409H13.09a.026.026 0 0 0-.005.01l-.006.009-1.404 1.396h3.362Zm3.967 9.732.076-.049c.56-.364 1.311-.86 1.695-1.712H2.976v1.914h.922c.23-.604.776-.958 1.541-.958.765 0 1.314.356 1.541.96h1.076c.227-.607.773-.96 1.54-.96.768 0 1.318.356 1.544.963l3.23.006c.225-.61.777-.97 1.544-.97.77 0 1.323.363 1.547.978l.941.005a1.11 1.11 0 0 0 .602-.177Zm-3.093 1.686c.564 0 .838-.273.838-.836 0-.564-.274-.839-.837-.839-.564 0-.838.275-.838.839 0 .56.272.835.838.835Zm-7.158-.836c0 .56.275.835.84.835.564 0 .841-.272.839-.835 0-.564-.275-.839-.838-.839-.566 0-.84.275-.84.839Zm-3.32.835c.566 0 .841-.272.841-.835 0-.564-.275-.839-.84-.839-.564 0-.838.275-.838.839 0 .56.274.835.837.835Zm.337-6.108v-2.867h-2.8v2.867h2.8Zm.82 0h2.334v-2.867H6.591v2.867Zm5.736 0v-2.867h-2.58v2.867h2.58Zm1.652-4.492-11.007.003v.803h9.764a.41.41 0 0 1 .409.408v3.683a.408.408 0 0 1-.41.409H2.972v1.029h17.807c.076 0 .14.024.202.06.039-.303.033-.643-.026-1.021h-6.567a.41.41 0 0 1-.409-.409V8.922Zm-2.04-2.232h-1.31l-1.42 1.415h1.31l1.42-1.415Zm-2.285-.817h4.544V4.417H9.653v1.456Zm11.103 7.606a8.243 8.243 0 0 0-.443-1.072c-1.609-3.243-5.183-3.478-5.29-3.485h-.227v4.557h5.96Z" fill="#313235"/></svg>