<svg width="24" height="24" fill="none" xmlns="http://www.w3.org/2000/svg"><path d="M5.315 17.297c-1.043 0-1.842-.275-2.383-.815-.518-.522-.782-1.28-.782-2.25V8.146c0-.97.264-1.722.782-2.236.536-.532 1.337-.8 2.38-.8L18.678 5.1c1.043 0 1.845.269 2.38.801.518.516.782 1.269.782 2.236v6.087c0 .97-.264 1.728-.782 2.25-.538.54-1.34.814-2.383.814l-13.36.009ZM18.68 5.643l-13.366.008c-1.752 0-2.604.815-2.604 2.494v6.088c0 .825.21 1.453.625 1.871.429.432 1.093.65 1.979.65l13.366-.009c.883 0 1.55-.217 1.979-.649.415-.416.625-1.046.625-1.872V8.137c-.003-1.679-.852-2.494-2.604-2.494Zm-9.422 13.24h5.47c.153 0 .28-.122.28-.272a.277.277 0 0 0-.28-.271h-5.47a.277.277 0 0 0-.28.271c0 .15.126.272.28.272Z" fill="#313235"/></svg>