<svg width="24" height="24" fill="none" xmlns="http://www.w3.org/2000/svg"><path d="M21.842 12.948c0-.712-.563-1.291-1.255-1.291v-.003h-.308l-.003-1.723c.036-.725-.163-1.35-.577-1.804a2.104 2.104 0 0 0-.958-.582V5.912c0-.687-.524-1.25-1.21-1.32V2.984a.43.43 0 0 0-.132-.308.403.403 0 0 0-.308-.112l-12.61.891c-.622 0-1.202.25-1.642.7a2.41 2.41 0 0 0-.678 1.687v13.075c-.04.72.163 1.342.577 1.796.42.456 1.034.711 1.737.717l13.501-.006c1.28 0 2.32-1.07 2.32-2.386l-.003-1.846h.294c.692 0 1.255-.58 1.255-1.292v-2.952ZM2.982 5.875v-.033c0-.412.154-.799.44-1.087a1.492 1.492 0 0 1 1.086-.451l12.2-.86V4.63L5.04 5.47a1.33 1.33 0 0 0-1.325 1.333v.392a1.46 1.46 0 0 1-.294-.23 1.543 1.543 0 0 1-.44-1.089Zm16.49 13.163c0 .848-.672 1.54-1.496 1.535l-13.498.005c-.474-.005-.877-.165-1.14-.45-.258-.284-.381-.687-.356-1.194V7.679c.417.37.938.58 1.496.58v.008l13.495-.005c.474.005.86.157 1.12.442.261.283.382.69.357 1.205l.002 1.745H12.45c-1.429 0-2.589 1.193-2.589 2.66v.22c0 1.464 1.163 2.658 2.589 2.658h7.02l.002 1.846Zm1.115-2.69H12.45c-.975 0-1.765-.812-1.765-1.812v-.218c0-1.003.793-1.815 1.765-1.815h8.134c.24 0 .434.198.434.445V15.9a.443.443 0 0 1-.431.449ZM17.915 5.913v1.51L4.536 7.415v-.617c0-.268.227-.49.533-.49l12.047-.865h.003l.291-.023a.5.5 0 0 1 .505.49Zm-5.27 9.327a.806.806 0 0 1-.792-.815c0-.448.356-.815.793-.815.437 0 .792.364.792.815a.804.804 0 0 1-.792.815Zm1.614-.815c0-.916-.723-1.66-1.613-1.66-.891 0-1.617.744-1.617 1.66 0 .916.726 1.661 1.617 1.661.888 0 1.613-.745 1.613-1.66Z" fill="#313235"/></svg>