<svg xmlns="http://www.w3.org/2000/svg" width="24" height="24" viewBox="0 0 24 24">
    <path d="M18.75 4c1.517 0 2.75 1.233 2.75 2.75v10c0 1.517-1.233 2.75-2.75 2.75H9.923l-2.806 2.205c-.135.106-.299.16-.464.16-.112 0-.224-.025-.329-.076-.259-.126-.422-.39-.421-.677L5.91 19.5H4.75C3.233 19.5 2 18.267 2 16.75v-10C2 5.233 3.233 4 4.75 4h14zm0 1.5h-14c-.689 0-1.25.561-1.25 1.25v10c0 .689.561 1.25 1.25 1.25h1.913c.199 0 .391.079.531.221.141.141.22.333.219.532l-.003.814 1.789-1.407c.133-.103.296-.16.464-.16h9.087c.689 0 1.25-.561 1.25-1.25v-10c0-.689-.561-1.25-1.25-1.25zm-6.562 2.03l1.101 2.232 2.461.358c.219.03.4.184.469.394.068.21.011.44-.147.595l-1.782 1.737.421 2.453c.037.218-.053.438-.231.568-.101.073-.221.11-.341.11-.093 0-.186-.022-.271-.066l-2.201-1.16-2.201 1.16c-.195.102-.433.085-.612-.044-.178-.13-.268-.35-.231-.568l.421-2.453-1.782-1.737c-.158-.154-.215-.385-.147-.595.069-.21.25-.363.469-.394l2.461-.358 1.101-2.231c.196-.397.846-.397 1.042 0zM11.667 9.1l-.716 1.45c-.085.17-.248.29-.437.318l-1.6.232 1.158 1.13c.137.133.199.325.167.513l-.273 1.594 1.43-.753c.085-.044.178-.066.271-.066.093 0 .186.022.271.066l1.43.753-.273-1.594c-.032-.188.03-.38.167-.513l1.158-1.13-1.6-.232c-.189-.028-.352-.147-.437-.318l-.716-1.45z"/>
</svg>
