<svg xmlns="http://www.w3.org/2000/svg" width="24" height="24" viewBox="0 0 24 24">
    <path d="M17.83 2.25c2.023 0 3.67 1.646 3.67 3.67v12.16c0 2.024-1.647 3.67-3.67 3.67H7.67C5.646 21.75 4 20.104 4 18.08c0-.414.336-.75.75-.75s.75.336.75.75c0 1.196.974 2.17 2.17 2.17h10.16c1.196 0 2.17-.974 2.17-2.17V5.92c0-1.196-.974-2.17-2.17-2.17H7.67c-1.196 0-2.17.974-2.17 2.17 0 .414-.336.75-.75.75S4 6.334 4 5.92c0-2.024 1.646-3.67 3.67-3.67h10.16zm-5.08 10.195c1.475 0 2.608.436 3.365 1.297 1.136 1.291.927 3.036.918 3.11-.051.402-.393.702-.798.702h-6.97c-.404 0-.746-.3-.798-.702-.01-.074-.218-1.819.919-3.11.757-.86 1.89-1.297 3.364-1.297zm-7 2.367c.414 0 .75.336.75.75s-.336.75-.75.75h-2c-.414 0-.75-.336-.75-.75s.336-.75.75-.75h2zm7-.758c-.986 0-1.71.25-2.148.743-.314.351-.45.787-.508 1.148h5.312c-.057-.36-.194-.797-.507-1.148-.44-.493-1.162-.743-2.15-.743zM5.5 9.994v4.012H4V9.994h1.5zm7.25-3.737c1.513 0 2.743 1.23 2.743 2.743s-1.23 2.743-2.743 2.743-2.743-1.23-2.743-2.743 1.23-2.743 2.743-2.743zm0 1.486c-.693 0-1.257.564-1.257 1.257s.564 1.257 1.257 1.257S14.007 9.693 14.007 9s-.564-1.257-1.257-1.257zm-7 .016c.414 0 .75.336.75.75s-.336.75-.75.75h-2c-.414 0-.75-.336-.75-.75s.336-.75.75-.75h2z"/>
</svg>
