<svg xmlns="http://www.w3.org/2000/svg" width="24" height="24" viewBox="0 0 24 24">
    <path fill="#1E1210" d="M11.75 2c2.617 0 4.747 2.13 4.747 4.747v2.322c1.708.33 3.003 1.834 3.003 3.637v5.083c0 2.045-1.663 3.708-3.708 3.708H7.708C5.663 21.497 4 19.834 4 17.789v-5.083c0-1.803 1.295-3.307 3.003-3.637V6.747C7.003 4.13 9.133 2 11.75 2zm3.976 8.497H7.708c-1.218 0-2.208.99-2.208 2.209v5.083c0 1.218.99 2.208 2.208 2.208h8.084c1.218 0 2.208-.99 2.208-2.208v-5.083c0-1.218-.99-2.21-2.208-2.21h-.018c-.008.002-.015.006-.024.006-.009 0-.016-.004-.024-.005zm-3.976 5.25c.95 0 1.5.476 1.5 1.5s-.55 1.5-1.5 1.5-1.5-.476-1.5-1.5.55-1.5 1.5-1.5zm0-12.252c-1.794 0-3.253 1.459-3.253 3.252v2.25h6.506v-2.25c0-1.793-1.459-3.252-3.253-3.252z"/>
</svg>
