<svg xmlns="http://www.w3.org/2000/svg" width="24" height="24" viewBox="0 0 24 24">
    <path fill="#1E1210" d="M10.125 2.33c1.15-.707 2.6-.707 3.75 0l5.668 3.48c1.06.652 1.707 1.808 1.707 3.053v6.225c0 1.245-.646 2.4-1.708 3.053l-5.666 3.48c-1.15.706-2.6.706-3.75 0l-5.668-3.48c-1.06-.652-1.708-1.808-1.708-3.053V8.863c0-1.245.647-2.401 1.709-3.054zM4.281 8.507c-.02.117-.031.236-.031.356v6.225c0 .723.376 1.396.993 1.775l5.668 3.48c.109.066.222.122.34.168l-.001-7.649zm15.439.001l-6.97 4.355.001 7.647c.062-.023.123-.05.182-.08l.158-.088 5.666-3.479c.617-.38.993-1.051.993-1.775V8.863c0-.12-.01-.239-.03-.355zM7.965 5.416L5.244 7.087c-.067.041-.13.085-.191.133l6.946 4.343 2.9-1.812-6.934-4.335zm5.125-1.808c-.668-.41-1.511-.41-2.18 0l-1.518.932 6.914 4.321.008.006 2.635-1.647-.053-.04-.138-.093z"/>
</svg>
