<svg xmlns="http://www.w3.org/2000/svg" width="24" height="24" viewBox="0 0 24 24">
  <g fill="#032B5A" transform="translate(1 1)">
    <path d="M10.9281895 5.31357895C12.6405315 5.31357895 14.0273474 6.70075809 14.0273474 8.41273684 14.0273474 9.70246645 13.1137899 10.7285167 11.8287085 11.3336698L11.6332276 11.4212664 11.595 11.434C11.5689355 11.444725 11.5478664 11.4645867 11.5367801 11.4893884L11.5281895 11.5295789 11.5281895 13.0406316C11.5281895 13.3720024 11.2595603 13.6406316 10.9281895 13.6406316 10.6299557 13.6406316 10.3825427 13.423042 10.3360425 13.1379547L10.3281895 13.0406316 10.3281895 11.5295789C10.3281895 11.0176302 10.6273164 10.562715 11.0778645 10.3522808L11.162 10.318C12.0936103 9.9208116 12.7421318 9.27267209 12.8195616 8.55676692L12.8273474 8.41273684C12.8273474 7.36342945 11.9777194 6.51357895 10.9281895 6.51357895 9.87899352 6.51357895 9.02808421 7.36404287 9.02808421 8.41273684 9.02808421 8.74410769 8.75945506 9.01273684 8.42808421 9.01273684 8.09671336 9.01273684 7.82808421 8.74410769 7.82808421 8.41273684 7.82808421 6.70116048 9.21639242 5.31357895 10.9281895 5.31357895zM10.9286632 14.8576526C11.0915622 14.8576526 11.2502624 14.8974763 11.3926015 14.9710181 11.4220413 14.9862287 11.4496907 15.0035379 11.4754612 15.0226682L11.5 15.044 11.5273813 15.0581073 11.6133134 15.1239929C11.820527 15.3145341 11.9417158 15.5839792 11.9417158 15.8716526 11.9417158 16.4309802 11.4877616 16.8856526 10.9286632 16.8856526 10.3689765 16.8856526 9.91466316 16.4313393 9.91466316 15.8716526 9.91466316 15.311966 10.3689765 14.8576526 10.9286632 14.8576526z"/>
    <path d="M10.446412,0.414759903 C16.2921567,0.10853195 21.2791071,4.59948863 21.5853482,10.4460129 C21.7150009,12.9310776 20.9785675,15.3303218 19.531009,17.2913823 C19.334214,17.5579876 18.9585539,17.6145801 18.6919486,17.4177851 C18.4253433,17.2209902 18.3687508,16.84533 18.5655457,16.5787247 C19.8495082,14.8392938 20.5020158,12.7134736 20.3869845,10.5086591 C20.1154155,5.32406802 15.6930687,1.3415604 10.5090609,1.61312341 C5.32444807,1.88361903 1.34153399,6.30657259 1.61312367,11.491559 C1.88362247,16.6746133 6.30672993,20.657515 11.4908549,20.3869903 C13.3566373,20.2890651 15.1110568,19.6514952 16.5805059,18.5658137 C16.847024,18.3689006 17.2227092,18.4253266 17.4196223,18.6918447 C17.6165353,18.9583628 17.5601093,19.3340479 17.2935913,19.530961 C15.6363398,20.7553976 13.6562056,21.474994 11.5535699,21.5853504 C5.70752356,21.8904163 0.71979916,17.3990906 0.414760528,11.5542149 C0.108506879,5.70745033 4.5999486,0.719786082 10.446412,0.414759903 Z"/>
  </g>
</svg>
