<svg xmlns="http://www.w3.org/2000/svg" width="64" height="64" viewBox="0 0 64 64">
    <path fill="#1C1C1B" d="M32 4c17.733 0 28 8.923 28 28.125 0 19.202-10.267 28.126-28 28.126S4 51.327 4 32.125 14.267 4 32 4zM17.643 16.255l-.274.26c-.09.09-.183.188-.276.293l-.141.162c-.299.352-.735.94-.654.853l-.072.09c-2.757 3.993.388 12.03 8.193 19.971l.46.463c8.073 8.075 16.283 11.349 20.336 8.553l.117-.103-.025.033c.001.001.016-.008.05-.033l.163-.121c.22-.165.434-.333.637-.506.11-.093.214-.185.31-.276l.217-.214c2.773-2.902 2.718-5.804-.01-8.532-.55-.551-1.116-.997-1.694-1.331-2.31-1.44-4.758-1.024-7.014 1.233l-.148.15c-.185.19-.33.355-.517.586l-.097.121.028-.021c-.679.626-2.897-.821-6.26-4.085l-.902-.891-.255-.256c-3.526-3.56-5.156-5.936-4.618-6.708l.013-.019.13-.103c.291-.235.476-.404.736-.664 2.257-2.257 2.672-4.705 1.22-7.037-.32-.555-.765-1.12-1.318-1.672-2.665-2.666-5.498-2.779-8.335-.196zm7.274 1.256c.387.387.705.773.952 1.154l.14.229c1.078 1.731.792 3.42-.995 5.206-.269.27-.428.41-.79.696l-.088.08c-1.557 1.69.083 4.235 4.344 8.561l.668.672.529.525c4.334 4.27 6.882 5.913 8.572 4.355l.08-.088.246-.303c.146-.174.27-.305.451-.487 1.786-1.786 3.474-2.073 5.182-1.008.48.278.943.642 1.405 1.105 2.096 2.096 2.19 4.017.166 6.243l-.234.248c-.102.103-.223.213-.359.328l-.235.191-.585.452-.003-.005c-3.213 2.216-10.58-.67-18.062-8.019l-.473-.471-.338-.34c-7.359-7.492-10.246-14.86-8.034-18.074l.269-.354c.129-.168.269-.347.37-.466.078-.092.154-.177.226-.254l.16-.162c2.31-2.205 4.282-2.169 6.436-.014z"/>
</svg>
