<svg width="64" height="64" viewBox="0 0 64 64" xmlns="http://www.w3.org/2000/svg"><path d="M48.061 16.383a1.144 1.144 0 01-1.165-1.129c0-.618.52-1.13 1.156-1.13.637 0 1.157.512 1.157 1.13.009.628-.511 1.13-1.148 1.13m3.675 26.37c.637 0 1.157.502 1.157 1.13 0 .618-.52 1.13-1.166 1.13a1.148 1.148 0 01-1.156-1.13c0-.619.52-1.13 1.165-1.13m-12.63-9.232c.637 0 1.157.51 1.157 1.13 0 .627-.52 1.129-1.156 1.129a1.136 1.136 0 01-1.157-1.13c-.009-.627.511-1.13 1.157-1.13m1.04 13.85c0-.619.528-1.13 1.165-1.13.636 0 1.156.511 1.156 1.13 0 .618-.52 1.129-1.156 1.129a1.15 1.15 0 01-1.166-1.13m18.008-5.333c0 2.994-.815 12.702-11.267 12.88h-.018c-.798.082-1.694-.259-2.653-.869a5.758 5.758 0 01-.538-.376 1.385 1.385 0 00-1.891.215 1.283 1.283 0 00.188 1.81c.009.01.027.019.036.028.233.188.484.358.735.52.7.439 1.39.77 2.07.986-1.084 2.41-3.173 3.639-6.238 3.639-3.693 0-5.02-3.774-5.262-4.58.01-.62.027-2.654 0-3.165V48.68H37.7c.547 1.425 1.955 2.438 3.604 2.438 2.124 0 3.854-1.685 3.854-3.755 0-2.071-1.73-3.756-3.854-3.756a3.867 3.867 0 00-3.604 2.438h-4.392V24.567h4.213v6.66c-1.326.592-2.268 1.9-2.268 3.424 0 2.07 1.73 3.756 3.855 3.756a3.853 3.853 0 003.603-2.447h7.69v4.419a3.756 3.756 0 00-2.518 3.505c0 2.07 1.73 3.755 3.854 3.755 2.125 0 3.855-1.676 3.855-3.755a3.74 3.74 0 00-2.501-3.496v-5.746c0-.726-.6-1.308-1.354-1.308h-9.035a3.806 3.806 0 00-2.483-2.26v-6.507h7.834a1.324 1.324 0 001.345-1.308v-4.491c1.461-.53 2.519-1.9 2.519-3.514 0-2.07-1.73-3.756-3.855-3.756-2.124 0-3.854 1.677-3.854 3.756 0 1.605 1.049 2.967 2.5 3.505v3.182h-13.39V10.87c0-.61.017-2.913.026-3.648.332-.798 1.882-4.097 5.244-4.097 3.056 0 5.145 1.228 6.23 3.63-2.483.762-4.034 2.743-4.742 4.706l-.206.601a1.31 1.31 0 00.86 1.64c.01 0 .018 0 .018.01a1.365 1.365 0 001.694-.861l.17-.511c.359-1.004 1.605-3.28 4.276-3.28 10.452.017 11.267 9.868 11.267 12.889 0 1.183-.161 4.912-1.972 8.05a10.98 10.98 0 00-1.272-.817c1.649-2.088.914-4.248-.368-5.566l-.251-.242c-.529-.493-1.309-.403-1.82.117-.51.528-.412 1.434.126 1.936 1.201 1.237.206 2.196-.135 2.51-.044.044-.071.107-.107.16a13.78 13.78 0 00-2.259-.438 1.333 1.333 0 00-1.488 1.156 1.332 1.332 0 001.183 1.452h.01c2.348.251 4.221 1.12 5.593 2.573 2.554 3.307 2.76 7.879 2.76 9.196m-45.006 3.604a1.15 1.15 0 01-1.165-1.13c0-.627.529-1.13 1.165-1.13.637 0 1.156.503 1.156 1.13.01.619-.51 1.13-1.156 1.13m9.95-7.028c.636 0 1.156.511 1.156 1.13a1.15 1.15 0 01-1.156 1.138 1.142 1.142 0 01-1.157-1.13c-.009-.627.511-1.129 1.157-1.138m-9.161-15.381a1.144 1.144 0 01-1.165 1.13 1.148 1.148 0 01-1.157-1.13c0-.628.52-1.13 1.157-1.13.645 0 1.165.511 1.165 1.13m10.236-7.888c0 .627-.528 1.13-1.165 1.13a1.142 1.142 0 01-1.156-1.13c0-.628.52-1.13 1.156-1.13.646 0 1.165.511 1.165 1.13m1.184 45.526c-3.03 0-5.1-1.21-6.194-3.568a8.304 8.304 0 002.366-1.057c.61-.377.798-1.175.421-1.775-.009-.01-.018-.027-.026-.036a1.36 1.36 0 00-1.865-.377c-.941.601-1.828.95-2.644.86-.08 0-.144.028-.224.037-.036 0-.072-.01-.108-.01-10.478 0-11.294-9.877-11.294-12.898 0-1.21.18-5.082 2.115-8.264.242.125.502.224.762.314-.376 2.294 1.05 3.935 2.842 4.616l.296.107a1.35 1.35 0 001.72-.797 1.305 1.305 0 00-.797-1.668c-.01 0-.018-.009-.027-.009l-.233-.08c-1.103-.413-1.237-1.13-1.156-1.676.125 0 .26.017.385.017 1.372 0 2.564-.295 3.568-.896a1.292 1.292 0 00.475-1.766c-.01-.018-.018-.027-.027-.045a1.358 1.358 0 00-1.847-.439c-.708.422-1.649.583-2.787.484-1.148-.098-2.017-.412-2.627-.923-2.447-3.299-2.653-7.745-2.653-9.053 0-3.02.816-12.899 11.554-12.899h.01c.797-.027 1.514.144 2.15.52.637.377 1.452.17 1.847-.457.367-.61.18-1.407-.43-1.775a.068.068 0 00-.036-.018 6.43 6.43 0 00-1.694-.672c1.102-2.33 3.173-3.523 6.184-3.523 3.685 0 5.02 3.774 5.262 4.58-.009.628-.027 2.654 0 3.156v3.155h-4.007a3.84 3.84 0 00-3.594-2.438c-2.124 0-3.854 1.676-3.854 3.756s1.73 3.755 3.854 3.755a3.84 3.84 0 003.594-2.447h4.016v5.262H16.402a3.84 3.84 0 00-3.594-2.438c-2.125 0-3.855 1.685-3.855 3.756 0 2.07 1.73 3.755 3.855 3.755a3.862 3.862 0 003.603-2.447h14.243v4.643h-7.53a1.33 1.33 0 00-1.344 1.31v5.736a3.748 3.748 0 00-2.5 3.505c0 2.07 1.73 3.755 3.854 3.755s3.854-1.685 3.854-3.755c0-1.614-1.049-2.967-2.51-3.505V31.81h6.185v17.075H14.529v-.869c1.46-.538 2.51-1.9 2.51-3.514 0-2.07-1.73-3.756-3.855-3.756-2.124 0-3.854 1.686-3.854 3.756 0 1.614 1.048 2.976 2.51 3.514v2.187c0 .726.6 1.309 1.344 1.309h17.479v1.613c0 .619-.018 2.913-.027 3.657-.367.816-1.91 4.088-5.28 4.088m35.487-38.911c0-2.528-.636-14.87-13.239-15.48C46.224 2.615 43.051.5 38.587.5 35.18.5 33.1 2.544 31.936 4.265 30.663 2.338 28.548.5 25.356.5c-4.463 0-7.627 2.106-9.017 5.952C3.745 6.918 3.1 19.413 3.1 21.959c0 1.434.206 6.185 2.752 10.03C3.306 35.843 3.1 40.603 3.1 42.046c0 2.528.636 14.88 13.24 15.48 1.38 3.864 4.553 5.979 9.026 5.979 3.406 0 5.485-2.044 6.65-3.765 1.264 1.928 3.389 3.765 6.58 3.765 4.464 0 7.628-2.097 9.017-5.943 12.594-.475 13.24-12.97 13.24-15.516 0-1.434-.207-6.185-2.752-10.03 2.536-3.863 2.742-8.623 2.742-10.057" fill="#313235" fill-rule="nonzero"/></svg>