<svg width="24" height="24" viewBox="0 0 24 24" xmlns="http://www.w3.org/2000/svg"><path d="M17.303 19.458c.454-.296.454-.487.273-.833-.182-.326-.535-.457-.847-.347l-3.67 1.281c-.041.01-.082.01-.122.01a1.611 1.611 0 01-.877.276H7.475a.502.502 0 01-.504-.508.5.5 0 01.504-.507h4.585c.333 0 .675-.346.675-.683 0-.306-.191-.621-.544-.632l-.262.01c-.747.01-2.33.05-3.802-.884-.02-.01-.817-.457-3.334-.517v4.272l4.393 2.124c.323.192.716.276 1.19.276.403 0 .746-.06 1.018-.181.024-.024 4.518-2.273 5.91-3.157zm-13.516 1.19V15.96a.539.539 0 00-.534-.538H1.73a.54.54 0 00-.534.538v5.768c0 .296.242.538.534.538h1.523a.54.54 0 00.534-.538v-.998c-.01-.02-.01-.05 0-.08zm14.646-2.575c.353.683.494 1.547-.585 2.24-1.442.913-5.835 3.122-6.027 3.213-.413.191-.897.285-1.442.285-.655 0-1.21-.13-1.664-.396l-3.92-1.903v.215a1.55 1.55 0 01-1.542 1.557H1.73a1.55 1.55 0 01-1.542-1.557V15.96a1.55 1.55 0 011.542-1.556h1.523c.534 0 1.008.275 1.277.702 3.086.03 4.054.622 4.152.693 1.2.753 2.52.722 3.223.712.121-.01.222-.01.293-.01.867.02 1.542.743 1.542 1.647 0 .03-.01.071-.01.101l2.663-.934c.79-.276 1.647.05 2.04.76zM3.082 16.968a.616.616 0 01-.636.631.613.613 0 01-.625-.631c0-.367.272-.632.625-.632.363 0 .636.265.636.632zm19.724-8.921V2.272a.539.539 0 00-.534-.538h-1.523a.54.54 0 00-.535.538v.998c0 .03.01.05 0 .08v4.7c0 .296.242.538.535.538h1.523a.542.542 0 00.534-.541zm-3.597-.172V3.613l-4.396-2.135c-.323-.181-.716-.275-1.19-.275-.404 0-.746.06-1.019.191-.03.01-4.517 2.27-5.906 3.153-.453.286-.453.478-.272.834a.71.71 0 00.847.346l3.667-1.28c.04-.02.091-.02.142-.02.252-.162.544-.276.857-.276v.01h4.588c.282 0 .504.225.504.507a.506.506 0 01-.504.508h-4.585v-.01c-.333 0-.676.346-.676.682 0 .316.192.632.545.632.07.01.161 0 .262 0 .757-.02 2.326-.05 3.799.874.02.01.816.47 3.337.521zm3.063-7.16c.847 0 1.542.703 1.542 1.557V8.05c0 .854-.695 1.556-1.542 1.556h-1.523a1.539 1.539 0 01-1.28-.702c-3.083-.03-4.051-.622-4.152-.693-1.197-.763-2.521-.733-3.224-.712h-.302c-.857-.01-1.53-.733-1.53-1.647 0-.03.01-.06.01-.091l-2.662.924c-.191.06-.383.101-.574.101-.595 0-1.16-.316-1.463-.864-.353-.682-.494-1.546.585-2.238C7.6 2.769 11.993.56 12.174.47c.928-.417 2.29-.366 3.113.111l3.922 1.903v-.216c0-.853.696-1.556 1.543-1.556h1.52v.003zm-.121 6.316a.613.613 0 01-.626.632.607.607 0 01-.625-.632c0-.356.262-.632.625-.632a.62.62 0 01.626.632zm-8.095 3.792c.04-.171.111-.582-.08-.753a.723.723 0 00-.383-.131h-.05c-.243 0-.414.07-.606.171-.12.06-.242.142-.383.226 0 0-.01 0-.03.01-.05.02-.162.07-.212.09-.09.03-.252.05-.303.05h-.02c-.191 0-.373-.05-.544-.14-.152-.091-.283-.172-.404-.236a1.254 1.254 0 00-.605-.171c-.201.01-.343.06-.423.131-.202.171-.131.578-.091.753.141.578.413 1.19.807 1.812.332.517.585.833 1.038 1.31.081.081.182.172.232.212h.01c.03-.04.101-.11.182-.181v-.01l.03-.03a7.286 7.286 0 001.029-1.301c.406-.632.675-1.24.806-1.812zm.575-1.526c.444.387.585 1.008.414 1.758-.172.692-.484 1.405-.948 2.124a8.316 8.316 0 01-1.15 1.456c0 .01-.01.01-.01.02-.05.05-.222.225-.363.326a1.04 1.04 0 01-.403.181.51.51 0 01-.131.02h-.101c-.04 0-.08-.01-.121-.02a1.04 1.04 0 01-.404-.181 2.106 2.106 0 01-.363-.326 8.705 8.705 0 01-1.17-1.476c-.453-.722-.776-1.435-.937-2.124-.182-.753-.03-1.375.413-1.758.252-.225.605-.356.978-.377h.101c.373 0 .746.101 1.1.296.13.07.262.152.413.246.01 0 .03.01.04.01.02 0 .04-.01.05-.01.142-.091.283-.172.414-.246a2.267 2.267 0 011.09-.296h.1c.383.02.73.155.988.377z" fill="#313235" fill-rule="nonzero"/></svg>