<svg width="24" height="24" viewBox="0 0 24 24" xmlns="http://www.w3.org/2000/svg"><path d="M19.5 18.247c0 .182-.148.33-.33.33H4.095c-.182 0-.33-.148-.337-.257l1.547-8.826a.33.33 0 01.33-.33h15.053a.33.33 0 01.328.299l-1.515 8.784zM2.98 5.85c0-.194.18-.353.403-.353h6.255c.221 0 .4.156.4.353v1.056c0 .232.185.42.412.42h7.883c.221 0 .4.16.403.383l.048.614H5.635c-.636 0-1.154.527-1.148 1.098L3.55 14.76 2.98 5.85zm17.706 2.473h-1.079l-.05-.644c0-.659-.552-1.194-1.227-1.194h-7.465V5.85c0-.659-.552-1.194-1.227-1.194H3.383c-.678 0-1.227.535-1.227 1.222l.787 12.344-.005.025c0 .647.518 1.174 1.157 1.174H19.17c.636 0 1.154-.527 1.149-1.1l1.518-8.754a.591.591 0 00.006-.073c0-.644-.519-1.171-1.157-1.171z" fill="#313235" fill-rule="nonzero"/></svg>