<svg width="20" height="20" viewBox="0 0 20 20" xmlns="http://www.w3.org/2000/svg"><path d="M19.114 16.483h-1.073c0-.412.33-1.073.496-1.073.165 0 .577.577.577 1.073zm-3.378-2.886c0 .33-.246.577-.496.577-1.4.247-3.378.824-4.944 2.062a.993.993 0 01-1.154 0c-1.484-1.235-3.543-1.812-4.944-2.062-.33-.08-.496-.33-.496-.577v-3.543l5.359 2.473c.33.166.742.166 1.073 0l5.518-2.557.084 3.627zM.983 7.581c0-.247.08-.412.33-.496l8.16-3.709c.165-.081.246-.081.412 0l8.16 3.709c.097.05.08.081.08.081H9.554c-.246 0-.412.165-.412.412 0 .246.166.412.412.412h8.406L9.8 11.7c-.165.081-.246.081-.411 0l-8.16-3.709a.45.45 0 01-.246-.411zm18.05 7.09V7.991c.014-.518.05-1.372-.658-1.647l-8.163-3.708c-.411-.166-.742-.166-1.154-.082l-8.16 3.79c-.495.166-.742.659-.742 1.236s.33.988.743 1.235l1.98.907v3.874c0 .743.496 1.32 1.154 1.485 1.32.247 3.216.742 4.532 1.896.33.247.658.412 1.073.412.412 0 .742-.165 1.073-.412 1.4-1.072 3.216-1.647 4.532-1.896a1.512 1.512 0 001.154-1.485V9.642l1.731-.742v5.77c-.658.247-.989 1.236-.989 1.813 0 .246.082.495.247.658.246.246.577.246.908.246h.495c.247 0 .485-.058.743-.246.187-.137.257-.235.288-.658.037-.608-.21-1.401-.787-1.813z" fill="#313235" fill-rule="nonzero"/></svg>