<svg width="64" height="64" viewBox="0 0 64 64" xmlns="http://www.w3.org/2000/svg"><path d="M61.166 52.744h-3.434c0-1.317 1.058-3.433 1.587-3.433.529 0 1.847 1.847 1.847 3.433zm-10.81-9.232c0 1.057-.79 1.846-1.587 1.846-4.482.789-10.81 2.636-15.82 6.597-1.059.79-2.636.79-3.694 0-4.75-3.953-11.339-5.799-15.82-6.597-1.058-.26-1.587-1.057-1.587-1.846v-11.34l17.147 7.916a3.913 3.913 0 003.433 0l17.659-8.184.268 11.608zM3.143 24.258c0-.789.26-1.318 1.058-1.587l26.11-11.867c.53-.26.79-.26 1.319 0L57.74 22.67c.314.162.26.26.26.26H30.573c-.789 0-1.318.53-1.318 1.318 0 .789.529 1.318 1.318 1.318h26.9L31.362 37.443c-.53.26-.79.26-1.318 0L3.934 25.576c-.53-.26-.79-.79-.79-1.318zm57.762 22.687v-21.37c.044-1.658.16-4.392-2.107-5.27L32.68 8.437c-1.317-.529-2.375-.529-3.693-.26L2.876 20.305C1.288 20.834.5 22.411.5 24.258c0 1.846 1.058 3.164 2.375 3.953l6.338 2.904v12.397c0 2.375 1.586 4.222 3.693 4.75 4.221.79 10.29 2.376 14.503 6.069 1.057.789 2.106 1.317 3.433 1.317 1.317 0 2.375-.528 3.433-1.317 4.482-3.433 10.29-5.27 14.503-6.069 2.106-.528 3.693-2.375 3.693-4.75V30.855l5.54-2.375v18.465c-2.107.789-3.165 3.953-3.165 5.8 0 .788.26 1.586.789 2.106.789.788 1.847.788 2.904.788h1.587c.789 0 1.55-.188 2.375-.788.6-.44.825-.753.923-2.107.117-1.945-.672-4.482-2.518-5.8z" fill="#313235" fill-rule="nonzero"/></svg>