<svg width="24" height="24" viewBox="0 0 24 24" xmlns="http://www.w3.org/2000/svg"><path d="M11.978 23.811c-3.49 0-5.415-1.748-5.415-4.928V4.127c0-2.541 1.539-3.94 4.336-3.94 2.793 0 4.332 1.399 4.332 3.943v12.78c0 1.87-1.176 2.945-3.233 2.945-2.057 0-3.234-1.073-3.234-2.945V6.134c0-.273.242-.491.541-.491.3 0 .538.222.538.49V16.91c0 1.338.686 1.96 2.151 1.96 1.47 0 2.152-.622 2.152-1.96V4.13c0-1.99-1.066-2.958-3.254-2.958-2.188 0-3.254.968-3.254 2.958v14.757c0 2.615 1.459 3.943 4.333 3.943s4.333-1.328 4.333-3.943l-.014-12.76c0-.272.242-.49.538-.49h.003c.3 0 .542.218.542.49l.016 12.763c.004 3.173-1.922 4.921-5.411 4.921" fill="#313235" fill-rule="nonzero"/></svg>