<svg width="64" height="64" viewBox="0 0 64 64" xmlns="http://www.w3.org/2000/svg"><path d="M25.72 22.55c1.837-1.443 3.988-2.742 6.211-4.033 2.232 1.3 4.384 2.6 6.212 4.033H25.72zm-2.824 2.707h18.08c1.272 1.551 2.106 3.326 2.366 5.423H20.53c.269-2.088 1.093-3.872 2.366-5.423zm15.149 16.26c-1.811 1.408-3.927 2.672-6.114 3.944-2.178-1.272-4.293-2.545-6.104-3.944h12.218zM22.977 38.81c-1.3-1.55-2.152-3.325-2.43-5.414h22.777c-.278 2.089-1.138 3.873-2.429 5.414H22.977zm23.395-6.82c0-7.486-5.665-11.492-11.707-15.069 6.042-3.576 11.707-7.592 11.707-15.067 0-.744-.646-1.354-1.443-1.354-.798 0-1.444.61-1.444 1.354 0 6.507-5.512 9.958-11.545 13.472-6.032-3.514-11.545-6.965-11.545-13.472C20.395 1.11 19.75.5 18.952.5s-1.443.61-1.443 1.354c0 7.484 5.665 11.49 11.715 15.067-6.041 3.577-11.715 7.592-11.715 15.068 0 3.577 1.336 6.328 3.343 8.65.108.26.305.475.547.627 2.142 2.25 4.921 4.079 7.816 5.8C23.174 50.642 17.5 54.658 17.5 62.134c0 .744.645 1.353 1.443 1.353s1.443-.61 1.443-1.353c0-6.508 5.513-9.959 11.545-13.473 6.042 3.514 11.545 6.965 11.545 13.473 0 .744.646 1.353 1.444 1.353.797 0 1.443-.61 1.443-1.353 0-7.485-5.665-11.492-11.707-15.068 6.05-3.586 11.716-7.592 11.716-15.077z" fill="#313235" fill-rule="nonzero"/></svg>