<svg width="24" height="24" viewBox="0 0 24 24" xmlns="http://www.w3.org/2000/svg"><path d="M11.99 22.826h-.04c-2.336 0-4.168-.645-5.436-1.912-1.277-1.278-1.926-3.13-1.936-5.503-.013-4.555 5.503-11.916 7.358-14.01 1.862 2.097 7.409 9.462 7.422 13.966.01 4.794-2.605 7.446-7.368 7.46M12.282.331a.491.491 0 00-.346-.145.503.503 0 00-.346.145c-1.63 1.64-8.007 9.892-7.99 15.082.007 2.605.777 4.75 2.222 6.199 1.439 1.438 3.556 2.201 6.128 2.201h.04c5.237-.016 8.356-3.173 8.34-8.45-.01-5.133-6.414-13.385-8.048-15.032" fill="#313235" fill-rule="nonzero"/></svg>