<svg width="24" height="24" viewBox="0 0 24 24" xmlns="http://www.w3.org/2000/svg"><path d="M2.836 19.277c2.074-2.508 1.866-6.212 1.852-6.36V8.268c0-1.14.165-2.148.481-3.025l12.79 14.037-15.123-.003zm11.042 2.85c-.427.464-1.072.703-1.926.703-.854 0-1.499-.236-1.926-.696-.538-.585-.625-1.415-.632-1.87h5.12c-.01.461-.108 1.282-.636 1.863zM6.685 2.951c2.104-1.916 5.207-1.735 5.237-1.732a.248.248 0 00.07 0c.03-.003 3.133-.184 5.237 1.732 1.321 1.203 1.994 2.991 1.994 5.317v4.619c-.01.178-.222 3.882 1.852 6.39H19.31L5.636 4.268a5.393 5.393 0 011.049-1.317zm15.97 20l-2.45-2.69h2.07a.504.504 0 00.474-.326.489.489 0 00-.155-.547c-2.608-2.081-2.373-6.397-2.37-6.471V8.268c0-2.612-.783-4.645-2.322-6.043C15.582.114 12.356.215 11.956.238c-.4-.024-3.627-.121-5.953 1.99-.414.376-.767.8-1.073 1.267L2.066.352a.514.514 0 00-.712-.04.484.484 0 00-.05.682l.01.01 3.115 3.419c-.49 1.092-.75 2.373-.75 3.842v4.679c.004.044.24 4.36-2.369 6.44a.48.48 0 00-.154.548.505.505 0 00.473.326h6.753c.004.602.128 1.69.884 2.518.626.686 1.526 1.032 2.683 1.032 1.153 0 2.054-.346 2.679-1.029.756-.823.887-1.91.894-2.52h3.331l3.045 3.344a.511.511 0 00.713.04.483.483 0 00.054-.679c0-.003-.007-.007-.01-.013z" fill="#313235" fill-rule="nonzero"/></svg>