<svg width="20" height="20" viewBox="0 0 20 20" xmlns="http://www.w3.org/2000/svg"><path d="M2.363 16.064c1.729-2.09 1.555-5.177 1.544-5.3V6.89c0-.95.137-1.79.4-2.52l10.659 11.697-12.603-.003zm9.202 2.375c-.356.387-.893.586-1.605.586-.711 0-1.25-.196-1.605-.58-.448-.488-.52-1.18-.527-1.558h4.267c-.009.384-.09 1.068-.53 1.552zM5.571 2.46C7.324.862 9.91 1.013 9.935 1.016c.02.003.04.003.059 0 .025-.003 2.61-.154 4.364 1.443 1.1 1.003 1.661 2.493 1.661 4.431v3.849c-.008.148-.185 3.235 1.543 5.325h-1.47L4.697 3.557c.238-.412.524-.782.874-1.098zm13.308 16.666l-2.042-2.24h1.725a.42.42 0 00.395-.272.407.407 0 00-.129-.457c-2.173-1.734-1.977-5.33-1.974-5.392V6.89c0-2.176-.653-3.871-1.936-5.036C12.985.094 10.296.179 9.963.198c-.333-.02-3.022-.1-4.96 1.659a5.46 5.46 0 00-.894 1.056L1.722.293A.429.429 0 001.128.26a.404.404 0 00-.042.569l.009.008L3.69 3.686c-.409.91-.624 1.977-.624 3.201v3.9c.002.036.198 3.633-1.975 5.366a.4.4 0 00-.13.457.421.421 0 00.396.272h5.627c.003.501.107 1.409.737 2.098.521.571 1.272.86 2.235.86.961 0 1.712-.289 2.233-.857.63-.687.74-1.591.745-2.101h2.776l2.538 2.787c.157.17.42.185.593.034a.403.403 0 00.045-.566c0-.003-.005-.006-.008-.012z" fill="#313235" fill-rule="nonzero"/></svg>