<svg width="24" height="24" viewBox="0 0 24 24" xmlns="http://www.w3.org/2000/svg"><path d="M22.81 16.693V13.19c-.01-.437-.38-.928-.612-1.227-.35-.46-3.053-4.02-3.503-4.659-.242-.329-.692-.558-1.123-.601v8.578c1.52.202 2.471 1.16 2.67 2.682l1.3-.013c.3 0 .619-.141.87-.39.256-.249.397-.568.397-.867zm-5.833 4.168c1.51 0 2.31-.8 2.31-2.31 0-1.519-.8-2.319-2.31-2.319-1.522 0-2.322.8-2.322 2.32 0 1.509.8 2.309 2.322 2.309zm-3.274-2.898c.202-1.59 1.244-2.558 2.874-2.702V3.684c0-.279-.272-.51-.601-.51H1.787c-.329 0-.598.231-.598.5v13.768c0 .28.27.511.599.511h.07c.219-1.707 1.398-2.72 3.26-2.72 1.873 0 3.053 1.01 3.275 2.72 0-.003 5.31.01 5.31.01zM5.12 20.861c1.522 0 2.322-.8 2.322-2.31 0-1.519-.8-2.319-2.322-2.319-1.51 0-2.31.8-2.31 2.32 0 1.509.8 2.309 2.31 2.309zm17.872-9.51c.31.4.81 1.063.82 1.842v3.5c0 .571-.249 1.14-.689 1.58-.434.43-1.012.678-1.573.678l-1.29.01c-.159 1.819-1.349 2.898-3.282 2.898-1.942 0-3.132-1.079-3.294-2.897l-5.274-.01c-.161 1.828-1.35 2.907-3.294 2.907-1.93 0-3.122-1.079-3.28-2.91h-.05c-.878.002-1.597-.677-1.597-1.507V3.674c0-.83.719-1.499 1.6-1.499h14.188c.88 0 1.6.679 1.6 1.51v2.02c.75.04 1.502.42 1.93 1.018.453.632 3.135 4.181 3.485 4.628zm-10.118-.887v-1.72h-2.632a.496.496 0 01-.5-.492V5.62H8.03l-.01 2.622c0 .276-.226.501-.501.501l-2.629.01v1.711h2.629a.5.5 0 01.5.5v2.63H9.74v-2.63c0-.13.05-.261.152-.352a.47.47 0 01.35-.148h2.631zm.02-2.72c.521 0 .979.41.979.881v1.96c0 .47-.461.88-.979.88h-2.15v2.149c0 .53-.4.981-.882.981h-1.96c-.48 0-.88-.45-.88-.981v-2.148l-2.151.01c-.531 0-.982-.41-.982-.88v-1.97c0-.468.45-.871.982-.871l2.151-.01V5.593c0-.52.41-.97.88-.97h1.96c.471 0 .881.45.881.97v2.152h2.151z" fill="#313235" fill-rule="nonzero"/></svg>