<svg width="24" height="24" viewBox="0 0 24 24" xmlns="http://www.w3.org/2000/svg"><path d="M4.352 19.269h17.795c-2.027-2.511-1.822-6.222-1.812-6.4V8.243c0-2.336-.658-4.127-1.95-5.327C16.323.993 13.31 1.18 13.28 1.18h-.03c-.01 0-.02.01-.04 0-.189-.01-4.498-.245-6.28 3.338h.168c1.301.03 6.36.541 6.36 6.649 0 6.124-5.059 6.598-6.33 6.615-.117.01-.255.01-.403.01H6.52c-.275-.01-.709-.04-1.22-.128a7.26 7.26 0 01-.948 1.604zm10.767 2.857c.52-.592.618-1.409.618-1.87H10.75c0 .455.087 1.282.618 1.87.414.464 1.042.699 1.87.699.84 0 1.472-.235 1.882-.7zM1.172 11.127c0 5.053 3.752 5.654 5.365 5.685h.188c.138 0 .266 0 .384-.01 1.613-.03 5.364-.63 5.364-5.634 0-4.995-3.771-5.624-5.395-5.664-.148-.01-.316-.01-.48-.01H6.48c-1.597.02-5.308.591-5.308 5.633zm22.46 8.253a.504.504 0 01.149.55.485.485 0 01-.46.327h-6.596c0 .612-.127 1.694-.867 2.524-.612.68-1.486 1.032-2.618 1.032-1.123 0-2.007-.353-2.619-1.032-.73-.827-.857-1.92-.857-2.52H3.169a.492.492 0 01-.306-.875c.592-.49 1.082-1.153 1.456-1.95-1.876-.598-4.131-2.174-4.131-6.309 0-5.398 3.818-6.41 5.65-6.578C7.697.05 12.816.186 13.24.196c.305-.02 3.505-.158 5.818 1.997 1.496 1.398 2.266 3.429 2.266 6.047v4.656c-.014.073-.239 4.396 2.309 6.484zm-13.01-8.253c0 .276-.216.491-.492.491H7.314v2.827a.491.491 0 01-.982 0v-2.827H3.515a.491.491 0 01-.49-.49c0-.27.225-.491.49-.491h2.817v-2.79c0-.272.222-.49.49-.49.266 0 .492.224.492.49v2.786h2.816c.276 0 .491.226.491.494z" fill="#313235" fill-rule="nonzero"/></svg>