<svg width="24" height="24" viewBox="0 0 24 24" xmlns="http://www.w3.org/2000/svg"><path d="M19.814 22.757v-2.343H4.208v2.343h15.606zm-9.005-6.689h2.367l-1.19-3.327-1.177 3.327zm2.743 1.056h-3.12l-.789 2.232h4.706l-.797-2.232zm-2.864-9.318l-4.104 11.55h1.987l2.938-8.316.01-.017c.013-.034.033-.06.053-.09a.715.715 0 01.054-.085c.02-.017.044-.034.067-.05a.488.488 0 01.098-.064l.017-.01c.023-.01.047-.007.07-.01.037-.007.07-.017.108-.017.033 0 .067.01.1.013.028.007.051.004.075.014.006.003.01.01.016.013.034.014.058.037.088.057.023.017.05.034.074.054.02.024.033.05.054.077.02.03.043.058.057.095l.01.016 2.975 8.316h1.952L13.28 7.8c-.37.158-.797.25-1.298.25-.5.002-.927-.085-1.294-.243zm.007-3.963c-.276.276-.413.743-.413 1.375 0 .437.07.79.205 1.059.057.12.124.228.208.312.084.088.192.155.313.212.252.128.574.192.971.192.403 0 .726-.068.978-.195.118-.057.225-.125.313-.212.084-.084.151-.192.212-.313.13-.272.205-.622.205-1.059 0-.631-.142-1.095-.417-1.374-.27-.273-.703-.41-1.29-.41-.586.006-1.02.144-1.285.413zm9.624 15.513c.279 0 .504.238.504.527v3.399a.515.515 0 01-.504.527H3.7a.515.515 0 01-.504-.527v-3.399c0-.289.225-.527.504-.527h1.805L9.841 7.157c-.373-.474-.571-1.116-.571-1.936 0-.93.242-1.65.723-2.134.463-.467 1.129-.706 1.986-.706s1.526.239 1.99.706c.484.487.726 1.206.726 2.134 0 .82-.198 1.459-.571 1.936L18.46 19.36h1.859v-.003zM1.196 5.218c0 1.815.46 3.196 1.368 4.117a.542.542 0 01.013.747.49.49 0 01-.712.013C.752 8.972.188 7.332.188 5.218S.751 1.463 1.865.338a.484.484 0 01.712.013.542.542 0 01-.013.746c-.908.92-1.368 2.306-1.368 4.12zm4.45 3.324a.492.492 0 01-.35-.148c-.729-.736-1.098-1.805-1.098-3.176 0-1.368.37-2.44 1.099-3.177a.487.487 0 01.712.01.546.546 0 01-.01.747c-.527.53-.793 1.348-.793 2.42 0 1.072.266 1.886.79 2.417a.542.542 0 01.013.746.498.498 0 01-.363.161zM22.134.337c1.112 1.126 1.677 2.77 1.677 4.88 0 2.112-.565 3.755-1.677 4.878a.498.498 0 01-.35.148.496.496 0 01-.363-.161.546.546 0 01.014-.747c.907-.917 1.368-2.299 1.368-4.117 0-1.815-.46-3.2-1.368-4.121A.546.546 0 0121.42.35a.49.49 0 01.713-.014zm-4.189 8.04a.546.546 0 01.014-.746c.524-.527.793-1.34.793-2.413 0-1.076-.265-1.886-.793-2.42a.546.546 0 01-.014-.747.487.487 0 01.713-.013c.73.74 1.1 1.808 1.1 3.18 0 1.371-.37 2.437-1.103 3.176a.494.494 0 01-.35.145.482.482 0 01-.36-.161z" fill="#313235" fill-rule="nonzero"/></svg>