<svg width="24" height="24" viewBox="0 0 24 24" xmlns="http://www.w3.org/2000/svg"><path d="M11.996 22.826c-3.351 0-5.926-.803-7.724-2.383L20.443 4.272c1.58 1.801 2.383 4.373 2.383 7.73 0 7.184-3.644 10.824-10.83 10.824m0-21.654c3.371 0 5.953.81 7.751 2.404L3.576 19.747C1.982 17.95 1.172 15.367 1.172 12c0-7.183 3.64-10.827 10.824-10.827m0-.984C4.534.188.187 3.955.187 12.002S4.535 23.81 11.996 23.81c7.462 0 11.815-3.761 11.815-11.808S19.458.187 11.996.187" fill="#313235" fill-rule="nonzero"/></svg>