<svg width="24" height="24" viewBox="0 0 24 24" xmlns="http://www.w3.org/2000/svg"><path d="M17.882 16.39l-5.164.035c-.046 0-.08.023-.116.035v-3.534c.024-.023.058-.035.081-.07l2.675-3.649a.511.511 0 00-.104-.704.51.51 0 00-.703.104l-1.937 2.644V9.196a.503.503 0 10-1.003-.035v5.116l-2.34-2.38a.493.493 0 00-.703 0 .51.51 0 000 .717l2.985 3.049c.012.011.035.011.047.034v.74H5.34c-1.245 0-4.15-.405-4.15-4.17 0-2.113.911-3.441 2.686-3.95.22-.057.358-.392.358-.623 0-6.017 5.21-6.49 6.8-6.49.9 0 5.465.208 6.548 4.296.058.22.254.37.473.381 1.533.046 5.118.647 5.118 5.232.012 4.896-4.046 5.277-5.291 5.277m.576-11.514C17.03.418 12.05.187 11.046.187c-1.29 0-7.677.347-7.804 7.265-1.29.473-3.054 1.686-3.054 4.815 0 3.823 2.662 5.174 5.152 5.174h6.26v6.283a.504.504 0 00.541.462.516.516 0 00.461-.462v-6.306c.047.012.081.035.127.035l5.153-.035c2.905 0 6.305-1.651 6.305-6.305 0-5.232-4-6.11-5.729-6.237" fill="#313235" fill-rule="nonzero"/></svg>