<svg width="24" height="24" viewBox="0 0 24 24" xmlns="http://www.w3.org/2000/svg"><path d="M6.74 17.327h2.72V16.08H6.74v1.247zm12.669 5.496H4.612c-.242 0-.484-.229-.484-.457V1.633c0-.209.262-.457.484-.457h3.022v2.92H6.236a.491.491 0 00-.488.495c0 .272.219.494.488.494h1.398v2.36H6.236a.491.491 0 00-.488.494c0 .272.219.494.488.494h1.398v2.36H6.236a.491.491 0 00-.488.494c0 .272.219.494.488.494h1.398v2.77H6.249a.491.491 0 00-.487.494v2.776c0 .272.218.494.487.494h3.698a.491.491 0 00.487-.494v-2.776a.491.491 0 00-.487-.494H8.612v-1.096h1.365a.49.49 0 00.487-.494.491.491 0 00-.487-.495H8.612v-2.363h1.365a.49.49 0 00.487-.494.491.491 0 00-.487-.494H8.612V6.752h1.365a.49.49 0 00.487-.494.491.491 0 00-.487-.494H8.612v-2.36h1.365a.49.49 0 00.487-.494.491.491 0 00-.487-.494H8.612V1.17h4.185V4.14c0 1.15.39 2.138 1.13 2.86.732.72 1.737 1.097 2.904 1.097h3.059v14.265c.003.239-.232.46-.481.46zm.228-15.708h-2.803c-.908 0-1.677-.282-2.225-.82-.545-.531-.834-1.274-.834-2.151V1.388l5.862 5.727zm.989-.41L14.189.42a.823.823 0 00-.572-.231H4.612c-.766 0-1.462.689-1.462 1.445v20.736c0 .77.682 1.445 1.462 1.445h14.793c.79 0 1.463-.662 1.463-1.445V7.29a.816.816 0 00-.242-.585z" fill="#313235" fill-rule="nonzero"/></svg>