<svg width="20" height="20" viewBox="0 0 20 20" xmlns="http://www.w3.org/2000/svg"><path d="M19.016 18.585c0 .24-.193.437-.434.437H1.406a.44.44 0 01-.435-.437v-7.3c0-.232.2-.428.435-.428h5.91v.476a2.582 2.582 0 002.58 2.58h.196a2.585 2.585 0 002.582-2.58v-.476h5.91c.205 0 .379.14.421.324l.006.034c.002.022.008.045.008.07v7.3h-.003zM2.613 1.41c0-.238.193-.434.431-.434l13.9.017c.251 0 .473.224.526.532l1.356 8.552c-.082-.017-.16-.042-.247-.042h-6.316a.408.408 0 00-.41.412v.888c0 .969-.79 1.759-1.761 1.759h-.196c-.972 0-1.762-.79-1.762-1.76v-.887a.412.412 0 00-.41-.412H1.407c-.084 0-.163.008-.241.025l1.448-8.65zm17.216 9.798c0-.016.005-.03.002-.047l-.016-.115v-.011l-1.53-9.647C18.153.672 17.605.173 16.95.173L3.049.156c-.688 0-1.251.563-1.246 1.188L.165 11.092c-.006.025.002.05.002.075-.002.04-.01.079-.01.118v7.3c0 .694.562 1.258 1.254 1.258h17.18c.688 0 1.252-.564 1.252-1.258v-7.3a.604.604 0 01-.014-.076z" fill="#313235" fill-rule="nonzero"/></svg>