<svg width="20" height="20" viewBox="0 0 20 20" xmlns="http://www.w3.org/2000/svg"><path d="M5.617 14.44h2.266V13.4H5.617v1.04zm10.557 4.579H3.844c-.202 0-.404-.19-.404-.381V1.361c0-.174.219-.381.403-.381h2.519v2.434H5.196a.41.41 0 00-.406.412.41.41 0 00.406.411h1.166v1.967H5.196a.41.41 0 00-.406.412.41.41 0 00.406.411h1.166v1.967H5.196a.41.41 0 00-.406.412.41.41 0 00.406.411h1.166v2.308H5.208a.41.41 0 00-.407.412v2.314a.41.41 0 00.407.412h3.08a.41.41 0 00.407-.412v-2.314a.41.41 0 00-.406-.412H7.177v-.913h1.137a.408.408 0 00.406-.411.41.41 0 00-.406-.412H7.177v-1.97h1.137a.408.408 0 00.406-.411.41.41 0 00-.406-.412H7.177v-1.97h1.137a.408.408 0 00.406-.41.41.41 0 00-.406-.413H7.177V2.837h1.137a.408.408 0 00.406-.412.41.41 0 00-.406-.412H7.177V.974h3.487V3.45c0 .958.325 1.782.941 2.384.611.6 1.449.913 2.42.913h2.55v11.888c.002.2-.194.384-.401.384zm.19-13.09h-2.336c-.756 0-1.397-.235-1.854-.683-.454-.443-.695-1.062-.695-1.793V1.156l4.885 4.773zm.824-.341L11.824.35a.686.686 0 00-.476-.194H3.843c-.638 0-1.218.574-1.218 1.205v17.28c0 .641.569 1.204 1.218 1.204h12.328c.658 0 1.219-.551 1.219-1.204V6.075a.68.68 0 00-.202-.487z" fill="#313235" fill-rule="nonzero"/></svg>