<svg width="24" height="24" viewBox="0 0 24 24" xmlns="http://www.w3.org/2000/svg"><path d="M7.993 16.077a.493.493 0 01.695.695l-3.825 3.822a.493.493 0 01-.696.004l-.003-.004-1.721-1.717a.493.493 0 01.696-.696l1.371 1.368c.004 0 3.483-3.472 3.483-3.472zm8.164-4.253c.642-.615.968-1.576.968-2.85 0-1.277-.326-2.239-.968-2.857-.622-.598-1.56-.9-2.796-.9-1.23 0-2.168.302-2.787.9-.639.618-.965 1.58-.965 2.857 0 1.277.326 2.235.962 2.85.615.595 1.556.895 2.786.895 1.24 0 2.178-.303 2.8-.895zm-2.796-7.593c1.499 0 2.669.397 3.479 1.177.843.81 1.27 2.01 1.27 3.563 0 1.553-.427 2.75-1.27 3.56-.81.772-1.98 1.17-3.48 1.17-1.495 0-2.665-.394-3.472-1.17-.837-.807-1.264-2.004-1.264-3.56 0-1.557.424-2.753 1.264-3.563.807-.78 1.977-1.177 3.473-1.177zm8.93 10.807c.475-2.746.532-8.834.532-10.693-2.182.179-3.503-.679-4.767-1.515-1.223-.82-2.494-1.658-4.689-1.658h-.01c-2.191 0-3.462.837-4.685 1.654-1.274.837-2.595 1.714-4.767 1.526 0 1.496.04 5.711.306 8.736a8.497 8.497 0 011.351-.117c2.239 0 3.849.756 4.696 2.312h5.99c1.896 0 3.462.582 4.528 1.694.06.06.168.205.275.353.65-.746 1.103-1.526 1.24-2.292zm-8.93 7.731c.93-.454 4.679-2.393 7.015-4.7a7.286 7.286 0 00-.306-.413c-.877-.907-2.198-1.388-3.819-1.388h-5.593a7.26 7.26 0 01.286 2.067c0 1.113-.205 2.02-.551 2.777a40.53 40.53 0 002.968 1.657zm-7.795-.05c2.991 0 4.39-1.399 4.39-4.384 0-2.995-1.399-4.383-4.39-4.383-2.989 0-4.39 1.388-4.39 4.383 0 2.985 1.401 4.384 4.39 4.384zM23.81 3.79c.01.326.03 8.074-.551 11.412-.75 4.302-9.315 8.39-9.68 8.558a.518.518 0 01-.216.05.574.574 0 01-.208-.05c-.06-.03-1.51-.72-3.278-1.812-.907 1.17-2.366 1.751-4.312 1.751-3.399 0-5.378-1.714-5.378-5.368 0-2.72 1.095-4.353 3.058-5.022-.343-3.758-.322-9.459-.322-9.52a.48.48 0 01.178-.382c.117-.098.275-.128.423-.098 2.121.336 3.278-.423 4.599-1.31C9.414 1.151 10.877.186 13.36.186h.01c2.487 0 3.946.965 5.23 1.812 1.331.888 2.487 1.644 4.608 1.311.138-.02.306.02.414.108.11.097.188.225.188.373z" fill="#313235" fill-rule="nonzero"/></svg>