<svg width="24" height="24" viewBox="0 0 24 24" xmlns="http://www.w3.org/2000/svg"><path d="M12.003 22.823c-7.184 0-10.827-3.64-10.827-10.82 0-7.187 3.64-10.827 10.827-10.827 7.18 0 10.82 3.64 10.82 10.827 0 7.18-3.64 10.82-10.82 10.82zm0-22.636C4.275.188.187 4.272.187 12.004c0 7.724 4.085 11.808 11.816 11.808 7.724 0 11.808-4.084 11.808-11.808 0-7.731-4.084-11.816-11.808-11.816zm1.69 14.195V8.87l4.609 2.77-4.609 2.742zm-.74-6.816a.486.486 0 00-.248.43v7.257c0 .272.219.494.49.494h.004a.515.515 0 00.252-.067l6.068-3.614a.493.493 0 000-.847l-6.064-3.647a.503.503 0 00-.501-.006zm-6.517 6.823V8.877l4.609 2.77-4.609 2.742zM5.7 7.572a.496.496 0 00-.252.43v7.258c0 .272.218.494.49.494h.004a.515.515 0 00.252-.067l6.067-3.614a.493.493 0 000-.847L6.198 7.58a.489.489 0 00-.498-.007z" fill="#313235" fill-rule="nonzero"/></svg>