<svg width="24" height="24" viewBox="0 0 24 24" xmlns="http://www.w3.org/2000/svg"><path d="M16.321.188c.847 0 1.332.484 1.332 1.327v13.103h3.26c.33 0 .444.195.48.279.038.084.091.302-.14.534l-8.054 8.044a.66.66 0 01-.474.198.674.674 0 01-.478-.198L4.2 15.43c-.232-.232-.178-.45-.14-.534.036-.084.15-.28.48-.28H7.8v-1.289c-1.616-.055-2.883-.516-3.768-1.37-.985-.947-1.482-2.365-1.482-4.214 0-1.849.497-3.264 1.479-4.212.888-.856 2.156-1.314 3.771-1.37v-.647C7.8.672 8.278.188 9.111.188h7.21zm0 .675h-7.21c-.464 0-.638.178-.638.656v.644c1.612.056 2.88.517 3.764 1.369.982.948 1.483 2.366 1.483 4.212 0 1.845-.498 3.267-1.483 4.212-.88.855-2.148 1.317-3.765 1.372v1.29c0 .37-.302.672-.672.672H5.017l7.708 7.708 7.707-7.708H17.65a.674.674 0 01-.672-.672V1.515c0-.464-.188-.652-.656-.652zM8.222 2.827l-.018.006a.334.334 0 01-.153-.005l.086-.002c-1.597 0-2.824.4-3.64 1.187-.848.817-1.275 2.07-1.275 3.727 0 1.658.43 2.915 1.274 3.728.811.781 2.024 1.181 3.607 1.187l.034-.004.032.002.263-.003c1.456-.047 2.58-.444 3.345-1.182.847-.817 1.274-2.07 1.274-3.728 0-1.657-.43-2.914-1.274-3.727-.806-.773-2-1.17-3.555-1.186zm-.085.984c.184 0 .336.151.336.336v.426c.442.051.851.184 1.18.388.154.097.242.232.242.383 0 .222-.179.4-.4.4a.52.52 0 01-.246-.07l-.003-.004a2.62 2.62 0 00-.773-.284L8.472 7.3l.035.006c.816.13 1.73.536 1.73 1.717 0 1.013-.663 1.685-1.764 1.827v.429a.337.337 0 01-.336.336.337.337 0 01-.337-.336v-.41a3.354 3.354 0 01-1.67-.585.43.43 0 01-.202-.37.41.41 0 01.417-.406.523.523 0 01.272.087c.393.262.79.42 1.184.47L7.8 8.049l-.098-.014c-1.34-.237-1.63-1.036-1.63-1.68 0-1.013.67-1.695 1.727-1.792l.001-.416c0-.185.152-.336.337-.336zm.337 4.338v1.9c.588-.109.94-.468.94-.988 0-.355-.12-.736-.94-.912zm-1.578-1.84c0 .572.419.792.904.895V5.363c-.57.075-.904.417-.904.946z" fill="#313235" fill-rule="nonzero"/></svg>