<svg width="24" height="24" viewBox="0 0 24 24" xmlns="http://www.w3.org/2000/svg"><path d="M22.265 16.268c-.31.313-.76.49-1.335.531-.11.007-1.106.007-1.203.007-.07 0-1.042 0-1.136-.003-.609-.03-1.082-.209-1.405-.535-.283-.279-.457-.682-.528-1.19l6.128.004c-.067.507-.242.907-.521 1.186zM19.24 5.99l3.324 8.06-5.758-.003L19.24 5.99zm-3.328 15.27c.642 0 1.126.162 1.445.488.242.249.397.592.464 1.035H6.167c.068-.44.222-.786.464-1.035.32-.323.807-.487 1.446-.487h7.835zm-4.8-16.292h1.765v15.264h-1.765V4.967zm.198-2.181c-.151-.155-.185-.46-.185-.693 0-.228.034-.54.185-.695.145-.145.414-.179.622-.182h.094c.215 0 .501.03.652.182.152.154.185.467.185.695 0 .232-.033.538-.185.693-.151.151-.437.185-.652.185h-.107c-.209-.007-.468-.044-.609-.185zM7.186 14.05l-5.758.003 3.324-8.06 2.434 8.057zm-.38 2.218c-.323.326-.8.504-1.408.535-.095.003-1.066.003-1.133.003-.098 0-1.096 0-1.204-.007-.574-.04-1.025-.218-1.334-.53-.282-.28-.454-.68-.524-1.187l6.127-.004c-.067.508-.242.911-.524 1.19zm17.002-1.704c0-.024-.01-.044-.014-.067-.006-.047-.01-.094-.027-.135L19.92 5.028c.437.067.813.205 1.072.46a.473.473 0 00.343.145.485.485 0 00.356-.158.528.528 0 00-.017-.73c-.49-.49-1.166-.763-2.007-.803-.063-.003-4.968-.007-7.099-.007.323-.07.592-.201.797-.41.326-.326.487-.806.487-1.432 0-.625-.164-1.109-.487-1.432-.31-.316-.76-.474-1.338-.474h-.1c-.559.007-.996.165-1.302.474-.322.327-.487.807-.487 1.432 0 .629.165 1.106.487 1.432.206.205.474.34.8.41-2.13 0-7.031.004-7.099.007-.84.04-1.516.31-2.006.803a.535.535 0 00-.017.73.479.479 0 00.7.013c.254-.255.63-.393 1.071-.46L.228 14.362c-.02.04-.02.088-.027.135-.003.023-.014.043-.014.067v.003c0 1.05.29 1.873.858 2.447.48.481 1.136.757 1.956.814.094.007 1.163.01 1.267.01.07 0 1.103 0 1.173-.003.86-.04 1.553-.32 2.05-.82.562-.565.848-1.369.858-2.397v-.014c0-.016.003-.027.003-.04 0-.03-.01-.054-.013-.08-.004-.028 0-.051-.007-.075l-2.85-9.438c1.2 0 3.122-.004 4.648-.004v15.264H8.08c-.904 0-1.62.262-2.131.777-.531.534-.804 1.304-.804 2.285 0 .286.222.515.495.515h12.719a.504.504 0 00.494-.515c0-.981-.269-1.75-.8-2.285-.51-.515-1.23-.777-2.134-.777h-2.05V4.967c1.525 0 3.448.004 4.648.004l-2.847 9.438c-.007.024-.004.047-.007.074-.003.027-.017.05-.017.081 0 .013.004.027.004.04v.014c.01 1.025.295 1.832.857 2.396.5.501 1.19.78 2.05.82a137.255 137.255 0 002.444-.006c.817-.057 1.476-.333 1.953-.814.565-.574.854-1.398.854-2.45z" fill="#313235" fill-rule="nonzero"/></svg>