<svg width="64" height="64" viewBox="0 0 64 64" xmlns="http://www.w3.org/2000/svg"><path d="M43.48.5c3.738 0 6.624 1.058 8.605 3.146 1.865 1.972 2.815 4.75 2.815 8.265v14.728c1.312-1.066 2.67-1.23 3.63-1.157a5.463 5.463 0 015.074 5.45c0 1.389-.565 2.67-1.614 3.71-.437.43-3.526 3.188-7.09 6.357v10.88c0 3.514-.941 6.293-2.815 8.265-1.98 2.088-4.876 3.146-8.614 3.146H11.92c-3.738 0-6.624-1.058-8.605-3.146C1.45 58.172.5 55.393.5 51.879V11.911c.009-3.505.96-6.284 2.824-8.265C5.296 1.558 8.19.5 11.929.5H43.48zm.01 1.793H11.937c-7.951 0-9.618 5.234-9.618 9.618v39.968c0 4.392 1.667 9.618 9.618 9.618h31.551c7.951 0 9.618-5.235 9.618-9.618v-9.288l-.895.794-.651.579c-4.226 3.75-8.197 7.262-8.538 7.566a.843.843 0 01-.313.179l-9.466 3.12a1.079 1.079 0 01-.287.053.899.899 0 01-.851-1.183l1.367-4.079H11.92a.899.899 0 01-.897-.896c0-.493.404-.896.897-.896l22.155-.001 1.204-3.585a.821.821 0 01.26-.385c1.733-1.53 3.917-3.458 6.18-5.46l-29.8.001a.899.899 0 01-.896-.896c0-.493.404-.897.897-.897h31.713l.104.007.164-.145.6-.53c3.495-3.097 6.82-6.05 8.607-7.66V11.91c0-4.393-1.668-9.618-9.619-9.618zm12.199 26.039C54.667 29.362 38.89 43.292 36.9 45.04l-2.528 7.53 7.593-2.51c1.94-1.717 4.42-3.912 6.935-6.144l.605-.536c5.34-4.737 10.668-9.48 11.22-10.02.717-.708 1.085-1.523 1.085-2.438a3.742 3.742 0 00-1.076-2.59 3.776 3.776 0 00-2.34-1.067c-.698-.054-1.73.09-2.706 1.067zm-12.218-2.94c.493 0 .897.403.897.896a.899.899 0 01-.897.897H11.92a.899.899 0 01-.897-.897c0-.493.404-.896.897-.896H43.47zm0-11.223c.493 0 .897.404.897.897a.899.899 0 01-.897.896H11.92a.899.899 0 01-.897-.896c0-.493.404-.897.897-.897H43.47z" fill="#313235" fill-rule="nonzero"/></svg>