<svg width="24" height="24" viewBox="0 0 24 24" xmlns="http://www.w3.org/2000/svg"><path d="M12 19.811c-2.458 0-4.455-2.017-4.455-4.494S9.542 10.823 12 10.823s4.457 2.017 4.457 4.494-2 4.494-4.457 4.494zm-7.265-3.654c-1.623-.168-3.563-1.012-3.563-4.077 0-2.08.894-3.392 2.652-3.896a.49.49 0 00.357-.477l-.007-.138c0-5.933 5.13-6.393 6.7-6.393.89 0 5.38.205 6.453 4.232a.498.498 0 00.464.37c1.516.043 5.042.628 5.042 5.152 0 4.807-3.997 5.18-5.224 5.18h-.232c.04-.262.064-.528.064-.796 0-3.032-2.433-5.49-5.438-5.49s-5.439 2.458-5.439 5.486c0 .283.027.562.067.834l-1.896.013zm12.871.952c1.035 0 6.205-.296 6.205-6.175 0-5.136-3.94-5.997-5.64-6.125C16.766.413 11.86.187 10.873.187c-1.27 0-7.546.35-7.684 7.164C1.932 7.81.187 9.008.187 12.08c0 4.158 3.11 4.924 4.498 5.065l2.188-.003C7.62 19.277 9.63 20.806 12 20.806c1.267 0 2.491-.444 3.462-1.257l4.081 4.117c.192.192.501.195.693.004l.003-.004a.501.501 0 000-.702L16.16 18.85c.43-.515.76-1.106.978-1.741h.467z" fill="#313235" fill-rule="nonzero"/></svg>