<svg width="24" height="24" viewBox="0 0 24 24" xmlns="http://www.w3.org/2000/svg"><path d="M22.621 22.006c0 .44-.343.8-.763.8H2.138c-.418 0-.76-.36-.76-.8V7.976c0-.44.342-.8.76-.8h6.5v3.264c0 .275.265.5.595.5h5.143c.33 0 .595-.225.595-.5l-.004-3.264h6.894c.42 0 .763.36.763.8v14.03h-.003zM3.098 1.771a.452.452 0 00.017-.118c0-.255.246-.464.551-.464h5.567l-.528 4.982H2.137c-.1 0-.195.013-.289.027l1.25-4.427zm10.683 5.405v2.763H9.828l-.004-2.763h3.957zm-.713-5.98l.635 4.975H9.895l.528-4.975h2.645zm7.815.46c0 .04.007.081.02.118l1.288 4.43c-.111-.02-.222-.03-.333-.03h-6.961l-.632-4.981h6.07c.303 0 .548.208.548.463zm2.891 5.974a.451.451 0 00-.003-.212L22.07 1.589C22.033.81 21.266.188 20.332.188H3.666c-.937 0-1.7.621-1.74 1.401L.277 7.418c-.003.013 0 .03-.003.043-.054.169-.084.34-.088.515v14.03c0 .995.874 1.805 1.95 1.805h19.724c1.076 0 1.95-.81 1.95-1.805V7.976c0-.121-.013-.236-.037-.346z" fill="#313235" fill-rule="nonzero"/></svg>