<svg width="24" height="24" viewBox="0 0 24 24" xmlns="http://www.w3.org/2000/svg"><path d="M6.863 13.236c.696-.013 2.32-.272 2.32-2.42 0-.155-.007-.302-.024-.437-.202-1.758-1.684-1.983-2.312-1.997l-.263-.003c-.632.007-2.117.219-2.282 2.06a4.03 4.03 0 00-.013.36c0 2.168 1.623 2.43 2.322 2.44l.252-.003zm3.331-2.978c.02.175.03.36.03.555 0 2.507-1.801 3.428-3.347 3.455h-.29c-1.62-.023-3.35-.951-3.35-3.472 0-.158.006-.306.02-.45.195-2.195 1.838-2.992 3.31-3.006l.3.004c1.452.033 3.085.817 3.327 2.914zm7.133 2.978c.693-.013 2.32-.272 2.32-2.42 0-.155-.01-.302-.027-.44-.202-1.755-1.684-1.98-2.313-1.994l-.262-.003h-.004c-.628.007-2.117.219-2.279 2.06-.01.112-.016.233-.016.36 0 2.168 1.623 2.43 2.322 2.44l.26-.003zm3.331-2.978c.02.178.03.36.03.555 0 2.507-1.801 3.428-3.347 3.455h-.29c-1.62-.023-3.35-.951-3.35-3.472 0-.158.006-.306.02-.45.194-2.199 1.838-2.992 3.31-3.006l.3.004c1.452.033 3.085.817 3.327 2.914zm-9.448 5.244c.265.11.39.413.279.675l-.437 1.026a.526.526 0 01-.696.248.519.519 0 01-.266-.648l.437-1.026a.525.525 0 01.683-.275zm1.929.275l.437 1.026a.516.516 0 01-.276.675h-.003a.524.524 0 01-.682-.275l-.437-1.026a.518.518 0 01.275-.679s.004 0 .004-.003a.531.531 0 01.682.282zm4.713 3.365c2.601-1.597 3.922-4.353 3.922-8.188 0-8.83-7.156-9.67-9.351-9.718-.313-.01-.655-.01-.968-.01h-.034c-.924.004-3.294.158-5.391 1.466-2.538 1.583-3.825 4.343-3.825 8.201 0 3.896 1.317 6.673 3.919 8.256l.497.302v1.355c0 .686.172 1.183.515 1.479.447.407 1.153.487 1.67.487h6.404c.742 0 1.297-.161 1.64-.474.34-.302.504-.803.504-1.495v-1.365c.003.007.498-.296.498-.296zM12.447.198c2.117.043 10.373.88 10.373 10.753 0 4.964-2.081 7.636-4.417 9.068v.787c0 .985-.276 1.755-.844 2.255-.544.495-1.331.747-2.346.747h-6.41c-1.019 0-1.815-.252-2.36-.747-.578-.504-.867-1.27-.867-2.258v-.777c-2.333-1.418-4.413-4.11-4.413-9.133C1.162.943 9.242.198 11.418.187c.333 0 .706 0 1.029.01z" fill="#313235" fill-rule="nonzero"/></svg>