<svg width="64" height="64" viewBox="0 0 64 64" xmlns="http://www.w3.org/2000/svg"><path d="M42.445 40.693c5.593 0 10.173 1.685 13.239 4.867 2.815 2.922 4.294 6.992 4.294 11.77v5.243a.899.899 0 01-.897.896H4.896A.899.899 0 014 62.573v-5.244c0-4.777 1.488-8.847 4.294-11.77 3.065-3.181 7.637-4.866 13.239-4.866h20.912zm0 1.801H21.533c-5.172 0-9.188 1.452-11.949 4.312-2.483 2.581-3.791 6.22-3.791 10.523v4.347h52.392V57.33c0-4.302-1.309-7.942-3.792-10.523-2.76-2.86-6.776-4.312-11.948-4.312zM31.904.5c6.14 0 10.9 1.596 14.153 4.733 3.38 3.254 5.091 8.139 5.091 14.52v.019l-.026 1.748c0 1.595-.458 2.859-1.345 3.737-.887.879-2.115 1.31-3.666 1.31h-1.169c-.613 1.497-1.464 2.775-2.551 3.827-2.384 2.294-5.862 3.46-10.344 3.46-4.473 0-7.96-1.166-10.344-3.47-2.474-2.384-3.729-5.96-3.729-10.612s1.255-8.229 3.73-10.613c2.392-2.295 5.87-3.46 10.343-3.46s7.96 1.165 10.344 3.469c2.474 2.393 3.729 5.96 3.729 10.613 0 1.835-.195 3.501-.584 4.993h.575c1.058 0 1.864-.27 2.402-.798.538-.53.816-1.372.816-2.474v-.018l.027-1.748c0-11.572-5.871-17.443-17.452-17.443-10.39 0-16.198 4.75-17.273 14.108a.894.894 0 01-1.775-.206c.592-5.217 2.582-9.214 5.907-11.859C21.963 1.791 26.383.5 31.903.5zm9.02 26.068c-.09.261-.224.479-.397.652-.368.368-.906.547-1.569.547-.663 0-1.201-.179-1.569-.547-.34-.34-.528-.851-.528-1.532 0-1.426.833-2.089 2.106-2.089.96 0 1.664.377 1.95 1.173l2.76.002c.433-1.453.65-3.12.65-4.993 0-4.15-1.075-7.288-3.182-9.322-2.035-1.972-5.1-2.967-9.098-2.967-3.998 0-7.054.995-9.098 2.967-2.115 2.034-3.182 5.172-3.182 9.322 0 4.15 1.076 7.287 3.182 9.322 2.044 1.972 5.1 2.967 9.098 2.967 3.998 0 7.054-.995 9.098-2.967a9.026 9.026 0 001.834-2.536z" fill="#313235" fill-rule="nonzero"/></svg>