<svg width="24" height="24" viewBox="0 0 24 24" xmlns="http://www.w3.org/2000/svg"><path d="M18.218 2.139c.09 0 .175.037.238.097L23.7 7.48a.33.33 0 01.074.111.32.32 0 01.027.131l-.003.028v13.142c0 .215-.017.464-.158.659-.142.195-.367.296-.676.296H11.65c-.622 0-.978-.36-.978-.985V3.104c0-.612.356-.962.974-.965h6.572zM4.819 10.66a.357.357 0 01.239.097l2.914 2.915a.333.333 0 01.098.238v7.237c0 .407-.262.673-.672.673l-3.21.003H.873c-.423 0-.685-.266-.685-.692v-9.789c0-.42.262-.682.685-.682H4.82zm13.066-7.846H11.65c-.263 0-.303.071-.303.293v17.758c0 .256.054.313.306.313h.08l.407-.001h.185l1.22-.001h.292l3.614-.002H22.964a.344.344 0 00.131-.017c.007-.016.03-.077.03-.265V8.057l-2.282.001c-1.825 0-2.958-1.132-2.958-2.958V2.814zM4.481 11.335H.86v9.816h6.538v-6.905h-.83c-.673 0-1.194-.181-1.55-.534-.357-.353-.535-.877-.535-1.55v-.827zm1.51 7.782c.185 0 .337.151.337.336a.337.337 0 01-.336.336H2.278a.337.337 0 01-.336-.336c0-.185.151-.336.336-.336h3.715zm0-1.748c.185 0 .337.152.337.336a.337.337 0 01-.336.337H2.278a.337.337 0 01-.336-.337c0-.184.151-.336.336-.336h3.715zm14.891-.144c.185 0 .336.151.336.336a.337.337 0 01-.336.336h-7.29a.337.337 0 01-.337-.336c0-.185.152-.336.337-.336h7.29zM5.993 15.62c.184 0 .336.152.336.336a.337.337 0 01-.336.337H2.278a.337.337 0 01-.336-.337c0-.184.151-.336.336-.336h3.715zm14.89-1.7c.185 0 .336.15.336.336a.337.337 0 01-.336.336h-7.29a.337.337 0 01-.337-.336c0-.185.152-.336.337-.336h7.29zM6.92 13.573L5.155 11.81v.354c0 .974.437 1.411 1.411 1.411h.353zm13.963-2.937a.337.337 0 010 .672h-7.29a.337.337 0 01-.337-.335c0-.185.152-.337.337-.337h7.29zM6.658 3.826c.034.03.834.71 1.126 1.002.387.387.39.83.007 1.21-.148.148-1.032.908-1.133.992a.337.337 0 01-.437-.51c.26-.224.623-.54.861-.751H5.757c-.87 0-1.522.205-1.943.609-.433.416-.655 1.089-.655 1.993v.998a.332.332 0 01-.333.336.337.337 0 01-.336-.336v-.998c0-1.093.29-1.926.86-2.477.548-.528 1.359-.797 2.407-.797H7.09a37.811 37.811 0 00-.819-.718l-.049-.042a.336.336 0 11.437-.51zm15.992 3.56l-4.093-4.098V5.1c0 1.452.834 2.286 2.286 2.286h1.808z" fill="#313235" fill-rule="nonzero"/></svg>