<svg width="24" height="24" viewBox="0 0 24 24" xmlns="http://www.w3.org/2000/svg"><path d="M20.97 9.725L18.84 8.69a.498.498 0 00-.47.027.497.497 0 00-.226.42l.04 13.687H6.12l.04-13.687a.488.488 0 00-.696-.447L3.28 9.739 1.297 5.322l6.571-3.819c.28 2.313 1.775 3.574 4.286 3.574 2.504 0 3.993-1.26 4.276-3.557l6.285 3.805-1.744 4.4zm2.602-5.032L16.248.256c-.003-.003-.01-.003-.013-.003a.442.442 0 00-.118-.04c-.027-.007-.054-.014-.084-.017-.01 0-.017-.007-.027-.007-.017 0-.03.007-.047.01a.514.514 0 00-.121.024l-.044.02a.413.413 0 00-.12.084c-.007.003-.014.013-.02.02-.024.027-.055.047-.071.08-.01.021-.014.038-.02.058 0 .003-.004.007-.004.007a.464.464 0 00-.037.191c0 2.293-1.1 3.405-3.365 3.405-2.262 0-3.361-1.116-3.361-3.408a.486.486 0 00-.73-.427L.434 4.69a.496.496 0 00-.202.632l2.37 5.28a.485.485 0 00.652.243l1.936-.928-.04 13.402c0 .13.05.258.141.35.09.093.215.144.343.144h13.042c.128 0 .252-.05.343-.145a.502.502 0 00.141-.35l-.04-13.394 1.899.92a.484.484 0 00.662-.262l2.094-5.277a.495.495 0 00-.202-.612z" fill="#313235" fill-rule="nonzero"/></svg>