<svg width="24" height="24" viewBox="0 0 24 24" xmlns="http://www.w3.org/2000/svg"><path d="M22.433 17.597c-.256.255-.572.393-.877.393h-1.301c-.215-1.694-1.399-2.696-3.26-2.696-.276 0-.542.02-.787.07V6.79h1.257c.474 0 .985.252 1.25.619a650.97 650.97 0 003.496 4.621c.225.296.602.787.602 1.227l.01 3.47c.003.302-.145.624-.39.87zm-5.439 3.284c-1.516 0-2.316-.793-2.316-2.303 0-1.509.797-2.302 2.316-2.302 1.52 0 2.316.793 2.316 2.302 0 1.51-.8 2.303-2.316 2.303zm-3.26-2.89H8.433c-.215-1.695-1.398-2.697-3.26-2.697-1.86 0-3.036 1.002-3.251 2.696h-.225a.526.526 0 01-.525-.518V3.674c0-.286.236-.52.521-.52l13.005.01a.52.52 0 01.525.52v12.014c-.83.44-1.351 1.223-1.49 2.292zm-8.562 2.89c-1.516 0-2.316-.793-2.316-2.303 0-1.509.797-2.302 2.316-2.302 1.52 0 2.316.793 2.316 2.302 0 1.51-.8 2.303-2.316 2.303zm18.629-7.624c0-.773-.521-1.458-.81-1.821-.336-.434-3.002-3.96-3.48-4.599-.453-.628-1.26-1.028-2.046-1.028h-1.26V3.68c0-.824-.673-1.5-1.51-1.5L1.697 2.176c-.84 0-1.51.676-1.51 1.5v13.794c0 .824.673 1.5 1.506 1.5h.209c.151 1.811 1.341 2.89 3.27 2.89 1.933 0 3.123-1.079 3.271-2.89h5.28c.159 1.811 1.342 2.89 3.271 2.89 1.933 0 3.123-1.079 3.27-2.89h1.292c.571 0 1.142-.246 1.576-.676.434-.43.679-1.002.679-1.567l-.01-3.469z" fill="#313235" fill-rule="nonzero"/></svg>