<svg width="24" height="24" viewBox="0 0 24 24" xmlns="http://www.w3.org/2000/svg"><path d="M16.769 7.226a.493.493 0 010 .696l-4.08 4.08 4.08 4.085a.49.49 0 01-.013.695.49.49 0 01-.683 0l-4.08-4.084-4.071 4.071a.493.493 0 01-.696-.696l4.07-4.07-4.07-4.068a.493.493 0 01.696-.695l4.07 4.07 4.085-4.084a.489.489 0 01.692 0zm-4.773 15.6c7.186 0 10.83-3.64 10.83-10.823 0-7.187-3.644-10.83-10.83-10.83-7.183 0-10.824 3.643-10.824 10.83 0 7.183 3.64 10.823 10.824 10.823zm0-22.639c7.462 0 11.815 3.769 11.815 11.816S19.458 23.81 11.996 23.81.187 20.05.187 12.003 4.535.187 11.996.187z" fill="#313235" fill-rule="nonzero"/></svg>