<svg width="24" height="24" viewBox="0 0 24 24" xmlns="http://www.w3.org/2000/svg"><path d="M10.477 2.175c.83 0 1.505.679 1.505 1.516v1.2h.29l.122-.001h1.088l.232-.001 3.431-.001H22.305c.83 0 1.506.679 1.506 1.516v13.94c0 .836-.676 1.515-1.506 1.515H1.697c-.834 0-1.51-.679-1.51-1.516V3.691c0-.837.676-1.516 1.51-1.516h8.78zm.003.988H1.697a.526.526 0 00-.525.528v16.655c0 .29.236.525.525.525h20.608a.527.527 0 00.521-.528V6.403a.522.522 0 00-.52-.524H11.491A.49.49 0 0111 5.385V3.691a.527.527 0 00-.521-.528zm-2.33 11.49c1.096 0 1.513.702 1.513 2.053s-.417 2.047-1.512 2.047c-1.096 0-1.513-.696-1.513-2.047 0-1.348.417-2.054 1.513-2.054zm10.948 0c1.096 0 1.513.702 1.513 2.053s-.417 2.047-1.513 2.047c-1.095 0-1.512-.696-1.512-2.047 0-1.348.417-2.054 1.512-2.054zm-7.284.117c.404 0 .542.097.542.387v2.984h.558v.582H10.88v-.585h.665v-2.75h-.635v-.55c.232-.034.625-.068.904-.068zm3.493 0c.403 0 .541.097.541.387v2.984h.558v.582h-2.034v-.585h.663v-2.75h-.632v-.55c.232-.034.625-.068.904-.068zm-11.483-.003c.404 0 .542.097.542.386v2.985h.558v.582H2.89v-.585h.662v-2.75H2.92v-.551c.232-.034.625-.067.904-.067zm4.327.49c-.468 0-.653.357-.653 1.45 0 1.092.185 1.384.653 1.384.467 0 .652-.296.652-1.385s-.185-1.449-.652-1.449zm10.944 0c-.467 0-.652.357-.652 1.45 0 1.092.185 1.384.652 1.384s.652-.296.652-1.385-.185-1.449-.652-1.449zM8.151 8.168c1.095 0 1.512.703 1.512 2.054s-.417 2.047-1.512 2.047c-1.096 0-1.513-.696-1.513-2.047 0-1.348.417-2.054 1.513-2.054zm-4.31 0c1.096 0 1.513.703 1.513 2.054S4.937 12.27 3.84 12.27c-1.096 0-1.512-.696-1.512-2.047 0-1.348.416-2.054 1.512-2.054zm15.257 0c1.096 0 1.513.703 1.513 2.054s-.417 2.047-1.513 2.047c-1.095 0-1.512-.696-1.512-2.047 0-1.348.417-2.054 1.512-2.054zm-7.284.118c.404 0 .542.097.542.386v2.985h.558v.582H10.88v-.585h.665v-2.75h-.635v-.55c.232-.034.625-.068.904-.068zm3.493 0c.403 0 .541.097.541.386v2.985h.558v.582h-2.034v-.585h.663v-2.75h-.632v-.55c.232-.034.625-.068.904-.068zm-7.156.487c-.468 0-.653.357-.653 1.45 0 1.091.185 1.384.653 1.384.467 0 .652-.296.652-1.385s-.185-1.449-.652-1.449zm-4.31 0c-.467 0-.652.357-.652 1.45 0 1.091.185 1.384.652 1.384.468 0 .652-.296.652-1.385s-.184-1.449-.652-1.449zm15.254 0c-.467 0-.652.357-.652 1.45 0 1.091.185 1.384.652 1.384s.652-.296.652-1.385-.185-1.449-.652-1.449z" fill="#313235" fill-rule="nonzero"/></svg>