<svg width="24" height="24" viewBox="0 0 24 24" xmlns="http://www.w3.org/2000/svg"><path d="M18.221 17.902h-7.865c-.918 0-1.732-.306-2.347-.888-.655-.618-1.079-1.516-1.264-2.672-.104-.669-.76-4.622-1.29-7.791a.331.331 0 01-.024-.128v-.02c-.316-1.883-.578-3.456-.652-3.856-.084-.464-.356-.887-.766-1.196A2.544 2.544 0 002.49.86H.524A.337.337 0 01.187.524C.188.339.34.187.524.187H2.49a3.21 3.21 0 011.93.63c.547.41.91.984 1.021 1.613.068.383.32 1.865.619 3.657h17.405a.337.337 0 01.326.42c-.185.733-.535 2.141-.908 3.633-.45 1.816-.917 3.691-1.059 4.236-.302 1.17-.739 2.027-1.327 2.618-.609.602-1.372.908-2.276.908zM6.174 6.759c.518 3.113 1.136 6.83 1.237 7.476.303 1.929 1.348 2.995 2.945 2.995h7.865c.73 0 1.318-.236 1.798-.716.498-.498.884-1.274 1.153-2.31.142-.54.605-2.417 1.06-4.228.308-1.244.604-2.434.803-3.217H6.175zM10.356 23.8c-1.046 0-1.647-.602-1.647-1.647s.601-1.647 1.647-1.647c1.045 0 1.647.602 1.647 1.647S11.4 23.8 10.356 23.8zm0-2.622c-.676 0-.975.3-.975.975 0 .676.299.975.975.975.675 0 .974-.3.974-.975 0-.676-.299-.975-.974-.975zm6.554 2.622c-1.045 0-1.647-.602-1.647-1.647s.602-1.647 1.647-1.647c1.046 0 1.647.602 1.647 1.647S17.956 23.8 16.91 23.8zm0-2.622c-.675 0-.975.3-.975.975 0 .676.3.975.975.975.676 0 .975-.3.975-.975 0-.676-.3-.975-.975-.975z" fill="#313235" fill-rule="nonzero"/></svg>