<svg width="24" height="24" viewBox="0 0 24 24" xmlns="http://www.w3.org/2000/svg"><path d="M16.12 22.822h3.015c.484 0 .877-.33.877-.736v-9.234a.503.503 0 01.511-.494h1.385c.45 0 .72-.252.824-.487a.624.624 0 00-.158-.73l-9.91-9.734c-.336-.33-.995-.33-1.327 0l-9.913 9.738a.634.634 0 00-.158.73c.104.234.373.486.824.486h1.243c.283 0 .511.222.511.495v9.233c0 .407.394.736.874.736h3.22v-4.857a.503.503 0 01.511-.494h7.157c.282 0 .51.222.51.494l.004 4.854zm3.015.988h-3.526a.5.5 0 01-.51-.494v-4.85H8.963v4.853a.505.505 0 01-.511.495H4.722c-1.05 0-1.9-.774-1.9-1.725v-8.74H2.09c-.784 0-1.476-.426-1.768-1.088-.27-.622-.128-1.315.373-1.802L10.604.714c.716-.702 2.074-.702 2.79 0l9.912 9.738c.498.491.642 1.18.37 1.802-.289.662-.981 1.092-1.768 1.092h-.87v8.74c0 .951-.854 1.724-1.903 1.724z" fill="#313235" fill-rule="nonzero"/></svg>