<svg width="24" height="24" viewBox="0 0 24 24" xmlns="http://www.w3.org/2000/svg"><path d="M21.408 11.142C21.34 2.103 16.2.188 11.882.188c-4.32 0-9.53 1.926-9.53 11.105C.954 12.077.188 13.63.188 15.868c0 3.2 1.536 5.015 4.322 5.167h.45c1.88-.071 2.609-1.526 2.609-5.177 0-3.65-.73-5.116-2.588-5.176h-.464c-.397.02-.79.084-1.17.191.118-6.42 2.982-9.68 8.535-9.68s8.396 3.24 8.534 9.62a6.72 6.72 0 00-.894-.121h-.474c-1.879.07-2.618 1.526-2.618 5.186 0 2.578.373 4.014 1.25 4.716a10.932 10.932 0 01-4.558 1.436 1.297 1.297 0 00-1.368-1.194 1.312 1.312 0 00-1.09.343c-.295.28-.45.676-.426 1.082-.037.4.084.8.336 1.113.286.292.679.45 1.082.43a1.44 1.44 0 001.113-.36c.114-.12.205-.262.266-.42a11.415 11.415 0 005.778-2.006c.067.003.138.003.205 0h.48c2.787-.131 4.313-2.007 4.313-5.167 0-2.36-.847-3.976-2.403-4.709zm-16.83.551h.352c.7 0 1.654.06 1.654 4.185s-.985 4.145-1.751 4.175h-.276c-2.272-.131-3.385-1.496-3.385-4.185 0-2.689 1.113-4.064 3.405-4.175zm14.873 8.34h-.709c-.628-.111-1.3-.703-1.3-4.135 0-4.12.984-4.15 1.75-4.184h.286c2.273.11 3.375 1.475 3.375 4.174.003 2.7-1.13 4.034-3.402 4.145z" fill="#313235" fill-rule="nonzero"/></svg>