<svg width="24" height="24" viewBox="0 0 24 24" xmlns="http://www.w3.org/2000/svg"><path d="M7.838 7.623h-.054a.78.78 0 00-.467.171c-.266.229-.215.642-.161.868.04.171.11.35.181.527.124.316.276.639.484.965.024.037.044.064.067.097.239.363.44.616.78.962a1.7 1.7 0 00.215.195c.044.03.088.054.131.06l.037.004h.004a.328.328 0 00.154-.068c.084-.06.185-.16.212-.191.31-.323.508-.565.72-.874.043-.06.083-.121.13-.192.152-.238.273-.47.384-.702.124-.273.222-.535.285-.794.064-.275.091-.652-.16-.867a.783.783 0 00-.471-.171c-.014 0-.027.003-.04.003-.213-.007-.421.05-.623.165-.097.057-.198.11-.306.178l-.104.06-.013.01s-.078.054-.151.051c-.074 0-.148-.044-.148-.044l-.01-.003-.138-.067a11.108 11.108 0 00-.323-.185c-.007-.003-.013-.003-.013-.007a1.446 1.446 0 00-.602-.151zM6.672 7.04a1.761 1.761 0 011.065-.406c.39-.024.82.08 1.197.292.04.02.077.044.114.064.04-.02.077-.044.118-.064.252-.141.524-.212.796-.252.135-.02.273-.047.4-.04.404.02.783.168 1.066.41.017.013.023.03.037.043.45.417.615 1.07.444 1.805-.04.175-.118.353-.182.532a6.29 6.29 0 01-.343.763c-.09.171-.168.34-.275.51a7.605 7.605 0 01-.962 1.204c-.054.054-.218.222-.36.323a1.558 1.558 0 01-.504.225c-.043.013-.107.02-.174.027l-.061.003h-.003a1.421 1.421 0 01-.26-.03 1.422 1.422 0 01-.483-.222 2.892 2.892 0 01-.353-.316 7.721 7.721 0 01-.961-1.207c-.081-.124-.132-.245-.202-.37-.27-.484-.488-.964-.595-1.435-.182-.766-.003-1.442.48-1.859zM21.149 19.97c1.022-1.213 1.576-2.897 1.654-5.015h-2.158c-.078 1.388-.46 2.514-1.14 3.368l1.644 1.647zm-5.704 2.336c2.107-.077 3.785-.625 4.998-1.64l-1.637-1.64c-.854.672-1.976 1.048-3.361 1.122v2.158zm-.992-3.15c.165.007.316.03.487.03.179 0 .337-.023.505-.033 1.294-.077 2.319-.44 3.015-1.109.726-.7 1.112-1.748 1.196-3.092.014-.172.037-.33.037-.511 0-.172-.023-.32-.033-.481-.078-1.361-.47-2.423-1.2-3.13a3.573 3.573 0 00-.582-.44c-.07 1.27-.309 2.397-.712 3.378-.39.962-.931 1.789-1.634 2.46a6.678 6.678 0 01-1.156.888c-.78.481-1.68.827-2.7 1.042-.023.004-.046.007-.07.014.06.05.128.097.192.144.668.498 1.56.777 2.655.84zm0 3.15v-2.158c-1.381-.074-2.508-.45-3.361-1.12l-1.644 1.645c1.217 1.015 2.894 1.56 5.005 1.633zm-6.676-3.94c.253.602.575 1.14.965 1.607l1.614-1.616c-.424.04-.864.067-1.325.067a12.7 12.7 0 01-1.254-.057zm-1.411-1.223c.34.08.692.145 1.062.192.363.047.74.074 1.126.087v-2.158a7.701 7.701 0 01-1.452-.212c-.131-.033-.27-.053-.39-.094-.198-.064-.377-.15-.561-.235a4.646 4.646 0 01-.958-.578l-1.644 1.644c.76.632 1.697 1.089 2.817 1.354zM1.193 10.07c.077 2.121.628 3.805 1.647 5.018l1.647-1.647c-.683-.853-1.066-1.98-1.14-3.371H1.193zm1.633-6.027c-1.015 1.22-1.56 2.911-1.633 5.032h2.154c.07-1.395.45-2.528 1.126-3.388L2.826 4.043zM8.551 1.68c-2.121.074-3.809.632-5.022 1.66l1.637 1.64c.857-.685 1.99-1.068 3.385-1.142V1.68zm.487 3.12c-.172 0-.323.02-.487.03-1.298.074-2.327.437-3.022 1.116-.726.705-1.116 1.768-1.194 3.129-.01.161-.03.31-.03.48 0 .182.024.34.034.512.07 1.105.353 1.996.85 2.669.108.144.209.299.336.423.111.1.246.182.367.276.074.057.14.117.225.168.232.14.487.262.766.36.07.026.138.05.209.07.433.131.927.205 1.459.235.164.01.315.03.487.03.067 0 .124-.013.192-.013.107-.003.208-.013.312-.02.235-.017.467-.027.682-.06.03-.004.058-.014.091-.02.935-.162 1.691-.498 2.246-1.03.726-.695 1.112-1.747 1.196-3.092.007-.097.02-.191.02-.296.004-.074.014-.137.014-.215 0-.171-.024-.319-.034-.48l-.02-.3c-.08-.823-.279-1.529-.615-2.1a3.465 3.465 0 00-.565-.73c-.054-.054-.124-.09-.178-.138-.689-.581-1.644-.907-2.837-.978-.168-.006-.326-.027-.504-.027zm.504-3.12v2.161c1.392.074 2.528.46 3.382 1.147l1.64-1.637c-1.22-1.032-2.904-1.594-5.022-1.671zm4.998 14.098l-.013-.01-1.627-1.63c-.158.124-.313.258-.487.362-.612.36-1.331.595-2.155.706-.228.03-.477.037-.72.05v2.158c.095-.003.192-.003.28-.01.363-.02.709-.053 1.042-.104 1.099-.161 2.06-.477 2.867-.948a5.62 5.62 0 00.813-.574zm-.558-1.96l1.264 1.267c.293-.346.545-.733.763-1.156.165-.323.31-.67.427-1.036.273-.83.424-1.77.46-2.82h-2.154a7.092 7.092 0 01-.265 1.654 4.979 4.979 0 01-.874 1.714l.38.377zm2.226-8.195a6.372 6.372 0 00-.945-1.573l-1.566 1.57-.078.073c.212.27.394.565.545.885.11.228.212.463.289.719.135.43.219.907.266 1.412.01.12.02.242.026.37H16.9c0-.048-.003-.091-.007-.135a10.507 10.507 0 00-.332-2.286 7.635 7.635 0 00-.353-1.035zm4.255 2.612c-.766-.65-1.71-1.113-2.837-1.389.165.753.256 1.57.272 2.45.34.159.646.354.928.576l1.637-1.637zm2.34 5.727c-.074-2.117-.619-3.808-1.637-5.028l-1.644 1.647c.676.857 1.055 1.99 1.126 3.381h2.155zm-1.368-6.198c1.576 1.52 2.376 3.772 2.376 6.686s-.8 5.16-2.376 6.672c-1.513 1.456-3.698 2.192-6.498 2.192-2.797 0-4.978-.736-6.484-2.192-.807-.776-1.405-1.751-1.798-2.908-1.678-.312-3.06-.968-4.104-1.98C.984 14.723.187 12.478.187 9.567c0-2.918.794-5.167 2.36-6.686C4.057 1.418 6.237.675 9.035.675c2.8 0 4.984.743 6.5 2.202.807.78 1.405 1.75 1.802 2.9 1.674.316 3.049.975 4.098 1.987z" fill="#313235" fill-rule="nonzero"/></svg>