<svg width="64" height="64" viewBox="0 0 64 64" xmlns="http://www.w3.org/2000/svg"><path d="M56.03 29.784c-1.838-1.362-3.89-1.945-5.63-2.17.377-1.514-.187-2.993-1.218-4.042-.01-.009-.215-.224-.224-.224-.574-.556-1.39-.457-1.981.09-.583.547-.493 1.56.062 2.133.807.834.547 1.506.216 1.936-.135.01-.296.018-.395.027-.35.036-.753.08-1.111.135-.43.053-.86.134-1.282.233a1.446 1.446 0 00-1.12 1.712c0 .009 0 .018.008.027.18.78.995 1.263 1.775 1.084.413-.09.771-.143 1.031-.18.323-.044.681-.089 1.004-.116 1.201-.134 5.342-.304 8.022 2.52 2.501 3.262 2.698 7.762 2.698 9.07 0 2.95-.806 12.505-11.07 12.675h-.018c-.78.098-1.63-.251-2.554-.843-.96-.61-1.587-1.3-1.847-2.043a1.502 1.502 0 00-1.882-.906 1.435 1.435 0 00-.932 1.81c0 .01.009.019.009.028.475 1.362 1.497 2.563 3.03 3.531a8.753 8.753 0 001.89.924c-1.084 2.232-3.038 3.424-5.951 3.424-3.54 0-4.84-3.622-5.091-4.437.009-.646.018-2.636 0-3.128V10.969c0-.6.018-2.85.027-3.612.34-.833 1.837-3.962 5.073-3.962 2.895 0 4.85 1.183 5.934 3.397-2.367.825-3.9 2.797-4.59 4.724l-.206.6a1.444 1.444 0 00.96 1.802c.008 0 .017 0 .017.01.144.044.296.062.44.062.645 0 1.219-.403 1.416-1.022l.17-.493c.35-.968 1.578-3.182 4.132-3.173 10.255.027 11.061 9.726 11.061 12.702-.027 1.138-.179 4.723-1.873 7.78M25.392 60.601c-2.868 0-4.813-1.156-5.907-3.326a8.299 8.299 0 002.17-1.013c1.532-.977 2.554-2.169 3.03-3.531a1.438 1.438 0 00-.897-1.829c-.009 0-.018-.009-.036-.009a1.495 1.495 0 00-1.882.906c-.26.744-.879 1.434-1.847 2.052-.914.592-1.775.932-2.545.843-.063 0-.117.027-.17.036-.054-.01-.108-.027-.162-.027-10.29 0-11.097-9.717-11.097-12.702 0-1.183.18-4.956 2.035-8.076a8.167 8.167 0 002.841.762c.117.01.224.01.34.01-.053 2.016 1.283 3.477 2.95 4.113l.296.108c.152.054.304.08.448.08.573 0 1.066-.394 1.3-.985.286-.744-.234-1.614-.986-1.9-1.21-.467-1.157-1.282-1.004-1.82 2.662-.932 3.917-3.299 4.14-5.522l.046-.493a1.463 1.463 0 00-1.354-1.56h-.018a1.46 1.46 0 00-1.586 1.327l-.036.457c-.17 1.65-1.013 3.586-4.285 3.29-1.111-.09-1.945-.403-2.528-.879-2.402-3.244-2.608-7.628-2.608-8.91 0-2.975.807-12.7 11.348-12.7h.009c2.841-.055 3.818 2.195 4.168 3.181l.17.493a1.487 1.487 0 001.856.96 1.435 1.435 0 00.977-1.811l-.206-.592c-.717-2.017-2.349-4.078-4.894-4.813 1.093-2.16 3.038-3.308 5.907-3.308 3.54 0 4.84 3.621 5.09 4.437-.008.646-.026 2.635 0 3.128v42.049c0 .6-.017 2.85-.026 3.612-.314.834-1.81 3.962-5.047 3.962m35.451-38.606c0-2.528-.636-14.88-13.212-15.543C46.215 2.606 43.033.5 38.551.5c-3.334 0-5.405 1.936-6.606 3.63C30.655 2.248 28.53.5 25.392.5c-4.481 0-7.663 2.097-9.08 5.925C3.754 6.963 3.1 19.449 3.1 22.004c0 1.434.206 6.14 2.716 9.985-2.5 3.854-2.716 8.57-2.716 10.012 0 2.528.636 14.88 13.212 15.543 1.417 3.846 4.599 5.952 9.09 5.952 3.325 0 5.395-1.936 6.597-3.63 1.29 1.882 3.424 3.63 6.552 3.63 4.473 0 7.655-2.088 9.08-5.925 12.567-.529 13.212-13.024 13.212-15.57 0-1.434-.206-6.14-2.716-9.994 2.51-3.854 2.716-8.57 2.716-10.012" fill="#313235" fill-rule="nonzero"/></svg>