<svg width="24" height="24" viewBox="0 0 24 24" xmlns="http://www.w3.org/2000/svg"><path d="M21.011 11.169c-.689-.51-1.459-.73-2.11-.813.14-.569-.071-1.123-.458-1.516-.003-.004-.08-.084-.084-.084-.215-.209-.52-.172-.743.033-.218.205-.185.585.024.8.302.313.205.565.08.726l-.147.01c-.132.014-.283.03-.417.05-.162.02-.323.051-.48.088a.542.542 0 00-.418.652.557.557 0 00.666.407 7.171 7.171 0 01.763-.11c.45-.051 2.003-.115 3.008.944.938 1.223 1.012 2.91 1.012 3.401 0 1.106-.302 4.69-4.151 4.753h-.007c-.292.037-.612-.094-.958-.316-.36-.228-.595-.487-.692-.766a.563.563 0 00-.706-.34.538.538 0 00-.35.68c0 .003.004.006.004.01.178.51.56.96 1.136 1.324.235.151.474.265.709.346-.407.837-1.14 1.284-2.232 1.284-1.328 0-1.815-1.358-1.91-1.664.004-.242.007-.988 0-1.173V4.114c0-.226.007-1.07.01-1.355.129-.313.69-1.486 1.903-1.486 1.086 0 1.819.444 2.226 1.274-.888.31-1.463 1.049-1.721 1.772l-.078.225a.541.541 0 00.36.675c.003 0 .007 0 .007.004.053.017.11.023.164.023a.553.553 0 00.531-.383l.064-.185c.131-.363.592-1.193 1.55-1.19 3.845.01 4.148 3.647 4.148 4.763-.01.427-.067 1.772-.703 2.918M9.522 22.725c-1.075 0-1.805-.433-2.215-1.247.272-.08.545-.205.813-.38.575-.366.958-.813 1.137-1.324a.54.54 0 00-.337-.686c-.003 0-.006-.003-.013-.003a.56.56 0 00-.706.34c-.097.278-.33.537-.692.77-.343.221-.666.349-.955.315-.023 0-.044.01-.064.014-.02-.004-.04-.01-.06-.01-3.86 0-4.162-3.644-4.162-4.763 0-.444.068-1.86.763-3.029.31.144.656.252 1.066.286.044.003.084.003.128.003-.02.756.48 1.304 1.106 1.543l.11.04c.058.02.115.03.169.03.215 0 .4-.147.487-.37.108-.278-.087-.604-.37-.712-.454-.175-.433-.48-.376-.682.998-.35 1.469-1.237 1.553-2.07l.016-.186a.549.549 0 00-.507-.585h-.007a.547.547 0 00-.595.498l-.013.171c-.064.619-.38 1.345-1.607 1.234-.417-.034-.73-.151-.948-.33-.9-1.216-.978-2.86-.978-3.34 0-1.117.303-4.764 4.255-4.764h.004c1.065-.02 1.432.824 1.563 1.194l.064.184c.094.29.403.45.696.36a.538.538 0 00.366-.679l-.077-.222c-.27-.756-.881-1.53-1.836-1.805.41-.81 1.14-1.24 2.215-1.24 1.328 0 1.816 1.358 1.91 1.664-.004.242-.01.988 0 1.173v15.768c0 .225-.007 1.069-.01 1.355-.118.312-.68 1.485-1.893 1.485M22.816 8.248c0-.948-.238-5.58-4.954-5.829C17.33.977 16.137.187 14.457.187c-1.25 0-2.027.727-2.478 1.362C11.495.843 10.7.188 9.522.188c-1.68 0-2.874.786-3.405 2.221-4.71.202-4.955 4.884-4.955 5.842 0 .538.078 2.303 1.019 3.745-.938 1.445-1.018 3.213-1.018 3.755 0 .947.238 5.58 4.954 5.828.531 1.442 1.724 2.232 3.409 2.232 1.247 0 2.023-.726 2.473-1.361.485.706 1.285 1.361 2.458 1.361 1.677 0 2.87-.783 3.405-2.222 4.712-.198 4.954-4.884 4.954-5.838 0-.538-.077-2.303-1.018-3.748.941-1.446 1.018-3.214 1.018-3.755" fill="#313235" fill-rule="nonzero"/></svg>