<svg width="24" height="24" viewBox="0 0 24 24" xmlns="http://www.w3.org/2000/svg"><path d="M20.6.863a3.165 3.165 0 013.16 3.163v11.35a3.168 3.168 0 01-3.162 3.164H7.297L6.16 20.225l-.266.396c-.668.99-1.321 1.957-1.392 2.06-.252.366-.568.444-.786.444-.494 0-.924-.41-.924-.874V18.52a2.789 2.789 0 01-1.802-.921C.473 17.02.188 16.23.188 15.377V4.026A3.169 3.169 0 013.353.863H20.6zm-.002.672l-17.244.003A2.497 2.497 0 00.86 4.028v11.349c0 1.442.951 2.49 2.265 2.49.185 0 .336.152.336.337v4.047c0 .077.118.201.253.201.063 0 .14-.016.231-.15.145-.213 2.864-4.246 2.891-4.287a.336.336 0 01.28-.147H20.6a2.491 2.491 0 002.487-2.491V4.026a2.494 2.494 0 00-2.49-2.491zm-5.715 10.443a.337.337 0 010 .672H4.48a.337.337 0 01-.336-.335c0-.185.151-.337.336-.337h10.403zm4.589-5.243c.184 0 .336.151.336.336a.337.337 0 01-.336.336H4.48a.337.337 0 01-.336-.336c0-.185.151-.336.336-.336h14.992z" fill="#313235" fill-rule="nonzero"/></svg>