<svg width="24" height="24" viewBox="0 0 24 24" xmlns="http://www.w3.org/2000/svg"><path d="M15.603 17.354a.156.156 0 00.118-.06l-.007-1.705a.178.178 0 00-.111-.05h-2.208a.491.491 0 01-.491-.491v-2.205a.146.146 0 00-.06-.118l-1.725.007c.013.003-.024.054-.024.111v2.208c0 .273-.221.491-.49.491H8.396a.145.145 0 00-.114.054l.003 1.734c0-.003.004-.003.004-.003.013 0 .053.024.104.024H10.6c.273 0 .491.221.491.49v2.212c0 .06.037.104.05.111l1.738-.003c-.013-.004.024-.047.024-.108l-.004-2.208c0-.131.054-.256.145-.35a.505.505 0 01.35-.144l2.208.003zm0-2.8c.585 0 1.096.474 1.096 1.008v1.768c0 .538-.511 1.009-1.096 1.009h-1.714l.003 1.714c0 .595-.46 1.092-1.008 1.092h-1.765c-.545 0-1.009-.5-1.009-1.092v-1.714H8.393c-.592 0-1.093-.464-1.093-1.009V15.57c0-.548.501-1.008 1.093-1.008h1.717v-1.718c0-.595.461-1.096 1.009-1.096h1.761c.548 0 1.009.501 1.009 1.096v1.71h1.714zm4.215 8.272c1.371 0 3.005-.591 3.005-3.405v-9.348H1.173v9.439c0 .007-.07 1.462.823 2.407.555.588 1.412.887 2.541.887h14.908c.04 0 .08.003.121.007.013.003.108.013.252.013zM2.423 4.01c-.83.528-1.25 1.49-1.25 2.86v2.22H22.82V6.89c0-.027 0-.054.003-.077 0-.01.087-1.452-.797-2.397-.558-.598-1.428-.9-2.588-.9h-1.627v.708a.491.491 0 01-.981 0v-.709c-3.143 0-7.086.004-9.65.004v.705a.491.491 0 01-.982 0v-.702H4.52c-.03 0-.06 0-.088-.003-.01 0-.064-.004-.151-.004-.323 0-1.153.047-1.859.494zM19.438 2.53c4.713 0 4.367 4.363 4.367 4.363l.003 12.531c0 4.027-2.931 4.39-3.99 4.39-.232 0-.376-.016-.376-.016H4.534c-4.635-.004-4.343-4.35-4.343-4.35V6.87c0-4.054 3.187-4.34 4.09-4.34.152 0 .24.007.24.007h1.674V.678a.491.491 0 01.984 0v1.856l9.65-.004V.678a.491.491 0 01.982 0V2.53h1.627z" fill="#313235" fill-rule="nonzero"/></svg>