<svg width="64" height="64" viewBox="0 0 64 64" xmlns="http://www.w3.org/2000/svg"><path d="M59.845 41.18h-8.408c-.502-4.016-3.335-6.472-7.7-6.472-4.356 0-7.198 2.456-7.7 6.472h-12.19c-.493-4.034-3.334-6.499-7.7-6.499-4.365 0-7.206 2.465-7.7 6.499H3.429a30.012 30.012 0 01-.233-6.15c-.027-2.957 2.088-8.094 6.176-12.181 3.056-3.066 8.363-6.723 16.314-6.723 14.969 0 21.064 9.753 21.315 10.165.224.368.618.61 1.049.636.08.01 7.484.556 11.177 6.57 2.797 4.563 1.282 6.948.619 7.683m-16.108 6.444c-3.38 0-5.163-1.783-5.163-5.145 0-3.361 1.784-5.145 5.163-5.145 3.38 0 5.163 1.784 5.163 5.145 0 3.362-1.784 5.145-5.163 5.145m-27.59-.027c-3.379 0-5.172-1.774-5.172-5.145 0-3.361 1.793-5.145 5.172-5.145 3.38 0 5.163 1.784 5.163 5.145 0 3.37-1.783 5.145-5.163 5.145m45.338-15.47C57.73 26.012 51.051 24.65 48.9 24.372 47.26 22.043 40.268 13.5 25.694 13.5c-8.865 0-14.79 4.07-18.197 7.494C2.693 25.807.533 31.66.56 34.968c-.27 4.643.457 7.708.493 7.843a1.314 1.314 0 001.281 1.004h6.114c.528 3.989 3.36 6.418 7.7 6.418 4.338 0 7.17-2.43 7.699-6.418h12.2c.51 4.007 3.352 6.445 7.7 6.445 4.347 0 7.179-2.438 7.699-6.445h8.919c.278 0 .546-.09.77-.251.045-.045 5.047-3.783.35-11.438" fill="#313235" fill-rule="nonzero"/></svg>