<svg width="24" height="24" viewBox="0 0 24 24" xmlns="http://www.w3.org/2000/svg"><path d="M22.442 15.442h-3.153c-.188-1.506-1.25-2.427-2.888-2.427-1.633 0-2.699.921-2.887 2.427H8.943c-.185-1.512-1.25-2.437-2.888-2.437-1.637 0-2.702.925-2.887 2.437H1.285a11.254 11.254 0 01-.087-2.306c-.01-1.109.783-3.035 2.316-4.568 1.146-1.15 3.136-2.52 6.118-2.52 5.613 0 7.899 3.657 7.993 3.811a.5.5 0 00.393.239c.03.003 2.807.208 4.192 2.464 1.049 1.71.48 2.605.232 2.88m-6.04 2.417c-1.268 0-1.937-.669-1.937-1.93 0-1.26.67-1.929 1.936-1.929 1.268 0 1.937.67 1.937 1.93 0 1.26-.67 1.93-1.937 1.93m-10.346-.01c-1.267 0-1.94-.666-1.94-1.93 0-1.26.673-1.93 1.94-1.93s1.936.67 1.936 1.93c0 1.264-.669 1.93-1.936 1.93m17.002-5.803c-1.408-2.292-3.913-2.803-4.72-2.907-.615-.874-3.236-4.078-8.702-4.078-3.324 0-5.546 1.527-6.823 2.81C1.01 9.679.2 11.873.21 13.113c-.101 1.742.171 2.892.185 2.942a.493.493 0 00.48.377h2.293c.198 1.495 1.26 2.406 2.887 2.406s2.69-.91 2.888-2.406h4.574c.192 1.502 1.258 2.416 2.888 2.416s2.692-.914 2.887-2.416h3.345a.495.495 0 00.289-.095c.017-.016 1.892-1.418.13-4.289" fill="#313235" fill-rule="nonzero"/></svg>