<svg width="24" height="24" viewBox="0 0 24 24" xmlns="http://www.w3.org/2000/svg"><path d="M22.564 14.841c.205-.245.588-.948-.225-2.305-1.12-1.866-3.375-2.04-3.399-2.04a.498.498 0 01-.39-.243c-.077-.13-1.946-3.18-6.527-3.18-2.434 0-4.06 1.147-4.995 2.105-1.247 1.28-1.893 2.88-1.886 3.798-.047.83.01 1.479.06 1.865h1.406c.181-1.28 1.089-2.057 2.46-2.057 1.375 0 2.28.777 2.464 2.057h3.624c.184-1.274 1.089-2.05 2.46-2.05 1.372 0 2.276.773 2.46 2.05h2.488zm-4.951 2.04c1.005 0 1.516-.517 1.516-1.545 0-1.026-.511-1.547-1.516-1.547-1.009 0-1.516.521-1.516 1.547 0 1.028.507 1.546 1.516 1.546zm-8.548-.006c1.005 0 1.516-.518 1.516-1.546 0-1.025-.511-1.546-1.516-1.546s-1.516.52-1.516 1.546c0 1.025.51 1.546 1.516 1.546zm14.11-4.86c1.197 1.993.438 3.31-.13 3.73a.476.476 0 01-.29.098H20.07c-.188 1.27-1.093 2.04-2.46 2.04-1.369 0-2.273-.77-2.461-2.04h-3.624c-.188 1.267-1.092 2.034-2.46 2.034-1.365 0-2.27-.767-2.457-2.034H4.789a.494.494 0 01-.477-.383c-.01-.04-.242-1.022-.155-2.508-.01-1.059.67-2.938 2.172-4.477 1.065-1.096 2.92-2.4 5.694-2.4 4.49 0 6.679 2.659 7.233 3.449.713.1 2.76.554 3.92 2.49zM2.854 13.405c.272 0 .49.225.49.5 0 .277-.221.502-.49.502h-1.61a.494.494 0 01-.49-.501c0-.276.221-.5.49-.5h1.61zm.272-2.5c.273 0 .491.224.491.5s-.222.5-.49.5H.677a.494.494 0 01-.49-.5v-.003c0-.276.218-.501.49-.501 0 .003 2.447.003 2.447.003zm.626-2.471c.272 0 .49.225.49.5 0 .276-.222.501-.49.501h-1.9a.496.496 0 01-.49-.5c0-.276.221-.501.49-.501h1.9z" fill="#313235" fill-rule="nonzero"/></svg>