<svg width="24" height="24" viewBox="0 0 24 24" xmlns="http://www.w3.org/2000/svg"><path d="M22.305 19.947a.514.514 0 00.521-.504V8.008H1.172v11.435c0 .279.232.504.521.504h20.612zM1.693 4.142a.516.516 0 00-.52.504v2.41h21.653v-2.41a.512.512 0 00-.52-.504H1.692zm20.612-.955c.83 0 1.506.656 1.506 1.46v14.8c0 .803-.676 1.458-1.506 1.458H1.693c-.83 0-1.506-.655-1.506-1.459v-14.8c0-.803.676-1.458 1.506-1.458h20.612zM5.875 14.082l2.417 2.164a.47.47 0 01.027.676.5.5 0 01-.363.151.519.519 0 01-.337-.128l-2.81-2.517a.474.474 0 01-.158-.353c0-.135.06-.262.162-.353l2.81-2.474a.506.506 0 01.696.034.467.467 0 01-.034.675l-2.41 2.125zm-.656-7.748c-.38 0-.685-.3-.685-.662 0-.367.306-.666.685-.666a.67.67 0 01.683.666.674.674 0 01-.683.662zm2.054 0c-.38 0-.685-.3-.685-.662 0-.367.305-.666.685-.666.38 0 .686.296.686.666a.675.675 0 01-.686.662zm-4.11 0c-.38 0-.686-.3-.686-.662 0-.367.305-.666.685-.666.38 0 .686.296.686.666a.675.675 0 01-.686.662zm13.156 4.917l2.81 2.474a.472.472 0 01.003.706l-2.81 2.518a.506.506 0 01-.7-.024.47.47 0 01.028-.675l2.42-2.168-2.414-2.121a.467.467 0 01-.033-.676.507.507 0 01.696-.034zm-3.005-.053c.248.107.36.39.248.632l-2.279 4.93a.492.492 0 01-.652.24c-.249-.108-.36-.39-.249-.633l2.28-4.93c.11-.24.403-.347.652-.24z" fill="#313235" fill-rule="nonzero"/></svg>