<svg width="24" height="24" viewBox="0 0 24 24" xmlns="http://www.w3.org/2000/svg"><path d="M15.095 7.437c-.86 0-1.227.37-1.227 1.237 0 .868.367 1.237 1.227 1.237.86 0 1.227-.37 1.227-1.237 0-.867-.363-1.237-1.227-1.237zm0 3.456c-1.402 0-2.205-.81-2.205-2.219 0-1.411.803-2.218 2.205-2.218 1.402 0 2.208.81 2.208 2.218 0 1.409-.803 2.219-2.208 2.219zm-11.95 7.889c-.679.686-1.784 2.077-1.956 4.023 2.017-.184 3.449-1.415 4-1.966.706-.713.706-1.345 0-2.057-.353-.353-.686-.531-1.022-.531-.336-.004-.669.175-1.022.53zM.678 23.81a.491.491 0 01-.49-.49v-.004c0-2.568 1.418-4.38 2.265-5.233 1.09-1.096 2.336-1.096 3.425 0 1.09 1.096 1.09 2.353 0 3.448-.679.686-2.551 2.28-5.2 2.28zM2.107 8.258l-.06.087c.097.225 1.203.7 1.939 1.015.474.198.954.407 1.418.635a28.653 28.653 0 012.787-3.869l.09-.104a3.533 3.533 0 00-2.164-.53c-1.358.137-2.71 1.075-4.01 2.766zm7.479-2.226l-.659.743c-1.21 1.415-2.403 3.136-3.19 4.602l-.413.833c-.602 1.342-.458 1.681-.458 1.684l5.298 5.321c.007 0 .376.142 1.677-.467l.85-.417c1.436-.763 3.1-1.932 4.572-3.206l.76-.66c.198-.174.376-.352.578-.554 1.395-1.401 2.356-3.15 3.008-4.89l-6.574-6.622c-1.738.659-3.49 1.633-4.895 3.052-.178.175-.38.38-.554.581zM22.063 1.21c-1.028-.118-3.428.027-6.007.837l5.916 5.943c.81-2.622.948-5.056.824-6.047a.852.852 0 00-.733-.733zm-3.496 16.89a3.456 3.456 0 00-.591-2.282l-.067.06a28.445 28.445 0 01-3.873 2.824c.256.511.48 1.042.696 1.56.31.74.777 1.855 1.042 1.956 1.741-1.385 2.666-2.746 2.793-4.117zM3.603 10.269c-1.362-.582-2.337-.995-2.515-1.731-.05-.206-.04-.542.256-.895C2.809 5.733 4.396 4.681 6.04 4.523a4.43 4.43 0 012.91.76c.165-.182.34-.363.498-.525 3.973-4 10.407-4.79 12.733-4.524.83.108 1.479.76 1.586 1.587.142 1.17-.02 3.99-1.018 6.95l.03.031-.06.06c-.693 2.017-1.768 4.088-3.419 5.748-.202.202-.38.38-.578.558.632.874.924 1.95.823 3.026-.154 1.653-1.206 3.247-3.122 4.736a1.005 1.005 0 01-.659.262.943.943 0 01-.215-.027c-.73-.175-1.143-1.163-1.714-2.531a28.03 28.03 0 00-.646-1.452l-.04.023-.88.43c-.828.387-1.473.579-1.96.579-.353 0-.63-.101-.83-.303L4.17 14.584c-.47-.437-.39-1.328.269-2.794l.426-.86.044-.078a18.223 18.223 0 00-1.307-.584z" fill="#313235" fill-rule="nonzero"/></svg>