<svg width="24" height="24" viewBox="0 0 24 24" xmlns="http://www.w3.org/2000/svg"><path d="M10.356 20.507c1.045 0 1.647.602 1.647 1.647s-.599 1.647-1.647 1.647c-1.046 0-1.647-.602-1.647-1.647s.601-1.647 1.647-1.647zm6.554 0c1.046 0 1.647.602 1.647 1.647S17.96 23.8 16.91 23.8c-1.045 0-1.647-.602-1.647-1.647s.602-1.647 1.647-1.647zm-6.554.672c-.676 0-.975.3-.975.975 0 .676.299.975.975.975.675 0 .974-.3.974-.975 0-.676-.299-.975-.974-.975zm6.554 0c-.675 0-.975.3-.975.975 0 .676.3.975.975.975.676 0 .975-.3.975-.975 0-.676-.3-.975-.975-.975zM2.49.188c.706 0 1.392.225 1.93.628.547.41.91.985 1.025 1.617.068.384.317 1.862.617 3.653h3.301L9.364.962c0-.474.296-.773.776-.773h4.8c.091 0 .175.036.24.097l3.613 3.613a.333.333 0 01.097.24V6.09h4.575a.337.337 0 01.326.42c-.185.733-.535 2.141-.908 3.634-.45 1.808-.917 3.684-1.059 4.228-.302 1.17-.739 2.027-1.327 2.619-.609.605-1.372.91-2.276.91h-7.865c-.918 0-1.732-.305-2.347-.887-.655-.618-1.079-1.516-1.264-2.672-.17-1.079-1.774-10.72-1.966-11.791a1.941 1.941 0 00-.766-1.197A2.524 2.524 0 002.49.86H.524A.337.337 0 01.187.524C.188.339.34.187.524.187H2.49zm6.873 6.57l-3.189.001c.52 3.112 1.136 6.833 1.237 7.479.303 1.93 1.351 2.995 2.945 2.995h7.865c.73 0 1.318-.235 1.798-.716.498-.498.884-1.274 1.153-2.31.142-.54.605-2.416 1.06-4.228.308-1.244.604-2.434.803-3.217H18.89v6.44c0 .468-.292.76-.76.76l-.605.004H10.14c-.487 0-.776-.293-.776-.784V6.758zM14.599.86h-4.46a.304.304 0 00-.095.014l-.01.045v12.264a.31.31 0 00.013.098l.047.01H10.305l.444.001h.193l1.206.001h.275l5.697.001a.287.287 0 00.078-.01.332.332 0 00.01-.08V4.47l-1.547.002h-.416c-.582-.003-1.019-.205-1.298-.598-.232-.33-.346-.783-.35-1.385V.86zm2.003 9.816c.185 0 .336.151.336.336a.337.337 0 01-.336.336h-5.244a.337.337 0 01-.336-.336c0-.185.151-.336.336-.336h5.244zm0-2.293a.337.337 0 010 .672h-5.244a.337.337 0 01-.336-.335c0-.185.151-.337.336-.337h5.244zm0-2.295c.185 0 .336.15.336.336a.337.337 0 01-.336.336h-5.244a.337.337 0 01-.336-.336c0-.185.151-.336.336-.336h5.244zm-1.328-4.75v1.15c.004 1.153.47 1.31.975 1.314h1.483l-2.459-2.464z" fill="#313235" fill-rule="nonzero"/></svg>