<svg width="24" height="24" viewBox="0 0 24 24" xmlns="http://www.w3.org/2000/svg"><path d="M10.356 20.507c1.045 0 1.647.602 1.647 1.647s-.599 1.647-1.647 1.647c-1.046 0-1.647-.602-1.647-1.647s.601-1.647 1.647-1.647zm6.554 0c1.046 0 1.647.602 1.647 1.647S17.96 23.8 16.91 23.8c-1.045 0-1.647-.602-1.647-1.647s.602-1.647 1.647-1.647zm-6.554.672c-.676 0-.975.3-.975.975 0 .676.299.975.975.975.675 0 .974-.3.974-.975 0-.676-.299-.975-.974-.975zm6.554 0c-.675 0-.975.3-.975.975 0 .676.3.975.975.975.676 0 .975-.3.975-.975 0-.676-.3-.975-.975-.975zM2.49.188a3.21 3.21 0 011.93.628c.547.41.91.985 1.025 1.617.068.384.317 1.862.617 3.653h4.004l4.286-4.504a.364.364 0 01.531 0l1.654 1.745V2.49c0-.202.165-.366.366-.366h1.967c.202 0 .366.164.366.366v3.6h4.229a.337.337 0 01.326.42c-.185.733-.535 2.141-.908 3.634-.45 1.815-.917 3.69-1.059 4.235-.302 1.17-.739 2.027-1.327 2.619-.609.598-1.372.904-2.276.904h-7.865c-.918 0-1.732-.306-2.347-.888-.655-.618-1.079-1.516-1.264-2.672-.17-1.079-1.774-10.72-1.966-11.791a1.932 1.932 0 00-.766-1.197A2.524 2.524 0 002.49.86H.524A.337.337 0 01.187.524C.188.339.34.187.524.187H2.49zm18.612 7.95a.366.366 0 01-.266.618h-1.6v4.221c0 .65-.373 1.022-1.022 1.022h-7.21c-.648 0-1.022-.373-1.022-1.022V8.756h-1.6a.367.367 0 01-.265-.619l1.31-1.379-3.253.001c.52 3.112 1.136 6.833 1.237 7.479.303 1.93 1.351 2.995 2.945 2.995h7.865c.73 0 1.318-.235 1.798-.716.498-.498.884-1.274 1.153-2.31.142-.54.605-2.416 1.06-4.228.308-1.244.604-2.434.803-3.217h-3.238l1.305 1.375zm-6.484-5.769L10.67 6.518a.339.339 0 01-.211.222L9.236 8.023h1.113c.202 0 .366.165.366.366v4.588c0 .24.05.29.29.29h7.21c.238 0 .288-.05.288-.29V8.39c0-.201.165-.366.367-.366h1.112l-1.378-1.456a.368.368 0 01-.1-.252V2.856H17.27v1.389a.367.367 0 01-.632.252l-2.02-2.128z" fill="#313235" fill-rule="nonzero"/></svg>