<svg width="64" height="64" viewBox="0 0 64 64" xmlns="http://www.w3.org/2000/svg"><defs><filter id="a"><feColorMatrix in="SourceGraphic" values="0 0 0 0 0.192157 0 0 0 0 0.196078 0 0 0 0 0.207843 0 0 0 1.000000 0"/></filter></defs><g filter="url(#a)" fill="none" fill-rule="evenodd"><g fill="#313235" fill-rule="nonzero"><path d="M44.277 37.34c-2.124 0-3.81.582-5.02 1.73-.43.403-.78.878-1.066 1.398l-10.13-5.065c.216-.753.324-1.586.324-2.51 0-.914-.108-1.748-.314-2.492l10.138-5.064c.25.457.555.87.914 1.237 1.219 1.246 2.949 1.873 5.163 1.873 2.214 0 3.944-.627 5.163-1.873 1.183-1.21 1.784-2.931 1.784-5.1 0-2.268-.646-4.034-1.927-5.244-1.21-1.147-2.896-1.73-5.02-1.73-2.124 0-3.81.583-5.02 1.73-1.281 1.219-1.927 2.985-1.927 5.244 0 .788.08 1.506.233 2.178l-10.21 5.11a5.36 5.36 0 00-.896-1.103c-1.21-1.148-2.895-1.73-5.02-1.73-2.124 0-3.809.582-5.019 1.73-1.282 1.219-1.927 2.984-1.927 5.243 0 2.17.6 3.89 1.784 5.1 1.219 1.246 2.949 1.874 5.163 1.874 2.214 0 3.944-.628 5.163-1.873.278-.287.529-.601.744-.942l10.218 5.11a9.534 9.534 0 00-.233 2.15c0 2.17.6 3.891 1.784 5.101 1.219 1.246 2.949 1.874 5.163 1.874 2.214 0 3.944-.628 5.163-1.874 1.183-1.21 1.784-2.931 1.784-5.1 0-2.268-.646-4.034-1.927-5.244-1.22-1.156-2.905-1.739-5.029-1.739zm0-21.047c3.424 0 5.154 1.748 5.154 5.18 0 1.686-.43 2.986-1.273 3.846-.87.887-2.169 1.336-3.881 1.336-1.712 0-3.012-.449-3.881-1.336-.843-.87-1.273-2.16-1.273-3.845 0-3.433 1.739-5.181 5.154-5.181zm-22.84 21.79c-1.711 0-3.01-.448-3.88-1.335-.843-.87-1.273-2.16-1.273-3.846 0-3.442 1.73-5.18 5.154-5.18 2.34 0 3.89.815 4.634 2.437.018.072.036.144.072.216.018.026.036.053.053.09.26.69.395 1.505.395 2.446 0 .986-.144 1.829-.44 2.546 0 .009-.008.009-.008.018-.018.045-.036.08-.054.125a3.796 3.796 0 01-.78 1.166c-.86.869-2.16 1.317-3.872 1.317zm26.721 10.084c-.87.888-2.169 1.336-3.881 1.336-1.712 0-3.012-.448-3.881-1.336-.843-.87-1.273-2.16-1.273-3.845 0-.86.108-1.614.323-2.268.018-.045.036-.08.044-.125.673-1.856 2.277-2.797 4.787-2.797 3.424 0 5.154 1.748 5.154 5.18 0 1.695-.43 2.986-1.273 3.855z"/><path d="M31.908 63.281c-10.048 0-17.82-2.582-23.108-7.673C3.315 50.32.536 42.351.536 31.908c0-10.433 2.779-18.41 8.264-23.7C14.08 3.119 21.86.537 31.908.537c10.049 0 17.82 2.581 23.109 7.673 5.485 5.288 8.264 13.257 8.264 23.7 0 10.442-2.779 18.41-8.264 23.7-5.289 5.09-13.06 7.672-23.109 7.672zm0-60.952c-9.573 0-16.923 2.41-21.862 7.17C4.928 14.43 2.33 21.977 2.33 31.91c0 9.931 2.599 17.478 7.717 22.408 4.94 4.76 12.298 7.171 21.862 7.171 9.565 0 16.924-2.411 21.863-7.17 5.118-4.93 7.717-12.478 7.717-22.41 0-9.931-2.6-17.479-7.717-22.409-4.94-4.75-12.298-7.17-21.863-7.17z"/></g></g></svg>