<svg width="24" height="24" viewBox="0 0 24 24" xmlns="http://www.w3.org/2000/svg"><path d="M10.356 20.507c1.045 0 1.647.602 1.647 1.647s-.599 1.647-1.647 1.647c-1.046 0-1.647-.602-1.647-1.647s.601-1.647 1.647-1.647zm6.554 0c1.046 0 1.647.602 1.647 1.647S17.96 23.8 16.91 23.8c-1.045 0-1.647-.602-1.647-1.647s.602-1.647 1.647-1.647zm-6.554.672c-.676 0-.975.3-.975.975 0 .676.299.975.975.975.675 0 .974-.3.974-.975 0-.676-.299-.975-.974-.975zm6.554 0c-.675 0-.975.3-.975.975 0 .676.3.975.975.975.676 0 .975-.3.975-.975 0-.676-.3-.975-.975-.975zM2.49.188a3.21 3.21 0 011.93.628c.547.41.91.985 1.025 1.617.068.384.317 1.862.617 3.653h4.28V2.232c0-1.358.68-2.043 2.02-2.043h4.501c1.358 0 2.02.668 2.02 2.043V6.09h4.582a.337.337 0 01.326.42c-.185.733-.535 2.141-.908 3.634-.45 1.815-.917 3.69-1.059 4.235-.302 1.17-.739 2.027-1.327 2.619-.609.598-1.372.904-2.276.904h-7.865c-.918 0-1.732-.306-2.347-.888-.655-.618-1.079-1.516-1.264-2.672-.17-1.079-1.774-10.72-1.966-11.791a1.932 1.932 0 00-.766-1.197A2.524 2.524 0 002.49.86H.524A.337.337 0 01.187.524C.188.339.34.187.524.187H2.49zm7.851 6.57l-4.167.001c.52 3.112 1.136 6.833 1.237 7.479.303 1.93 1.351 2.995 2.945 2.995h7.865c.73 0 1.318-.235 1.798-.716.498-.498.884-1.274 1.153-2.31.142-.54.605-2.416 1.06-4.228.308-1.244.604-2.434.803-3.217h-4.152v4.504c-.003 1.379-.662 2.048-2.02 2.048h-4.5c-1.359 0-2.02-.67-2.02-2.044l-.002-4.511zM16.864.86h-4.5c-.969 0-1.349.386-1.349 1.371v9.035c0 .508.101.858.306 1.066.205.208.545.306 1.042.306h4.501c.498 0 .84-.1 1.042-.306.202-.205.306-.558.306-1.066V2.231c0-1.001-.366-1.371-1.348-1.371zm-2.252 9.126c.43 0 .71.225.706.71 0 .234-.064.406-.178.523-.125.128-.306.189-.528.189-.222 0-.403-.06-.528-.189-.114-.117-.178-.292-.178-.524 0-.484.276-.71.706-.71z" fill="#313235" fill-rule="nonzero"/></svg>