<svg width="24" height="24" viewBox="0 0 24 24" xmlns="http://www.w3.org/2000/svg"><path d="M19.398 12.386a4.351 4.351 0 00-2.982 1.193l-2.255-1.99a4.26 4.26 0 00.995-2.696 3.202 3.202 0 00-.05-.537l3.387-.995a2.722 2.722 0 005.019-2.024 2.726 2.726 0 00-5.348.83 3.86 3.86 0 000 .28l-3.341.994a4.256 4.256 0 00-7.2-1.294l-2.199-1.97c.286-.42.44-.914.437-1.421a2.554 2.554 0 10-5.106-.02 2.556 2.556 0 003.97 2.14l2.336 1.99a4.156 4.156 0 00.417 4.636l-1.986 1.986a3.09 3.09 0 00-2.168-.874 3.134 3.134 0 00-3.136 3.13c0 .833.332 1.633.924 2.222a3.131 3.131 0 005.344-2.229c0-.504-.127-.998-.37-1.442l2.138-2.097c.74.628 1.674.978 2.646.995a4.323 4.323 0 002.595-.895l2.306 1.99a4.392 4.392 0 00-.757 2.468 4.44 4.44 0 00.417 1.858l-2.484 1.153a2.546 2.546 0 00-4.48 2.286 2.545 2.545 0 004.894-1.391l2.605-1.194a4.359 4.359 0 003.438 1.691 4.404 4.404 0 004.404-4.407 4.408 4.408 0 00-4.404-4.406c.004.003-.006.04-.006.04zm1.512-8.017a1.75 1.75 0 11-.003 3.499 1.75 1.75 0 01.003-3.499zm-17.6-.057c-.86 0-1.56-.703-1.56-1.563s.703-1.56 1.564-1.56c.86 0 1.56.703 1.56 1.563v.007c0 .857-.697 1.553-1.554 1.55-.003.003-.006.003-.01.003zm7.567 18.538a1.564 1.564 0 01-1.574-1.55 1.564 1.564 0 011.55-1.573c.86-.007 1.566.69 1.573 1.55v.02c0 .86-.692 1.553-1.55 1.553zM3.31 17.929a2.139 2.139 0 010-4.276 2.139 2.139 0 010 4.276zm4.256-9.022a3.29 3.29 0 013.29-3.29 3.29 3.29 0 013.291 3.29 3.29 3.29 0 01-3.29 3.29 3.294 3.294 0 01-3.291-3.29zm11.832 11.297a3.411 3.411 0 01-3.409-3.411 3.411 3.411 0 013.412-3.409 3.411 3.411 0 013.408 3.412 3.414 3.414 0 01-3.411 3.408z" fill="#313235" fill-rule="nonzero"/></svg>