<svg width="24" height="24" viewBox="0 0 24 24" xmlns="http://www.w3.org/2000/svg"><path d="M15.505 4a.65.65 0 01.651.65v.863c.23.05.452.12.668.209l.567-.563a.659.659 0 01.926 0l.861.852a.65.65 0 010 .921l-.566.563c.088.215.157.436.21.664h.867c.36 0 .655.293.655.651v1.204c0 .358-.295.651-.655.651h-.868c-.049.228-.12.45-.21.664l.567.563c.118.117.18.267.19.42h1.948c1.205 0 2.184.973 2.184 2.17v2.347c0 1.198-.979 2.171-2.184 2.171H2.684A2.179 2.179 0 01.5 16.83v-2.347c0-1.198.979-2.171 2.184-2.171h7.749a.647.647 0 01.19-.423l.567-.563a4.23 4.23 0 01-.21-.664h-.867a.655.655 0 01-.655-.65V8.806c0-.358.294-.651.655-.651h.867c.05-.228.121-.45.21-.664l-.567-.563a.65.65 0 010-.921l.855-.85a.659.659 0 01.926 0l.567.564c.216-.088.438-.157.668-.209v-.862c0-.358.294-.651.654-.651zm-4.728 8.962H2.684c-.845 0-1.53.681-1.53 1.52v2.347c0 .84.685 1.52 1.53 1.52h18.632c.845 0 1.53-.68 1.53-1.52v-2.346c0-.84-.685-1.52-1.53-1.52l-2.289-.001-.707.7a.66.66 0 01-.845.07l-.081-.07-.566-.562a4.292 4.292 0 01-.668.208v.862c0 .358-.295.651-.655.651h-1.212a.655.655 0 01-.654-.65v-.863a3.97 3.97 0 01-.668-.208l-.567.56a.659.659 0 01-.926 0l-.701-.698zm9.141 3.057c.383 0 .694.31.694.69 0 .38-.31.69-.694.69h-3.104a.692.692 0 01-.694-.69c0-.38.311-.69.694-.69h3.104zm-16.301.16c.295 0 .534.237.534.53 0 .293-.24.53-.534.53a.532.532 0 01-.534-.53c0-.293.24-.53.534-.53zm1.98 0c.295 0 .534.237.534.53 0 .293-.239.53-.533.53a.532.532 0 01-.534-.53c0-.293.239-.53.534-.53zm1.916 0c.295 0 .534.237.534.53 0 .293-.24.53-.534.53a.532.532 0 01-.534-.53c0-.293.24-.53.534-.53zM15.505 4.65h-1.212v1.412c-.566.059-1.05.209-1.453.45l-.9-.896-.855.85.897.895c-.236.39-.39.872-.452 1.445h-1.417v1.204h1.42c.06.573.213 1.055.452 1.445l-.9.895.854.85.9-.896c.403.241.891.388 1.454.45v1.412h1.212v-1.412c.566-.059 1.05-.209 1.454-.45l.9.895.858-.849-.9-.895c.235-.39.389-.872.451-1.445h1.421V8.807h-1.42c-.06-.573-.214-1.055-.453-1.445l.9-.895-.857-.85-.9.895c-.403-.24-.891-.387-1.454-.449V4.651zm-.606 2.418c.72 0 1.293.202 1.706.592.429.414.645 1 .645 1.748 0 .749-.216 1.338-.645 1.748-.41.393-.982.592-1.706.592-.723 0-1.296-.199-1.709-.592-.429-.414-.645-1-.645-1.748 0-.749.216-1.338.645-1.748.413-.393.986-.592 1.71-.592zm0 .65c-1.077 0-1.7.535-1.7 1.69 0 1.155.623 1.69 1.7 1.69s1.7-.535 1.7-1.69c0-1.155-.623-1.69-1.7-1.69z" fill="#313235" fill-rule="nonzero"/></svg>