<svg width="24" height="24" viewBox="0 0 24 24" xmlns="http://www.w3.org/2000/svg"><path d="M14.69.188c.258 0 .51.104.695.289l1.16 1.156c.185.181.289.433.289.692a.985.985 0 01-.283.683l.814.81c.09.09.144.215.144.346v1.304h3.365c.545 0 .985.44.988.982v1.637c0 .54-.44.981-.984.981h-.938v1.503c0 .544-.44.981-.985.981h-1.556v8.844h1.529c.544 0 .985.44.985.981v1.456c0 .544-.44.981-.985.981H5.113a.983.983 0 01-.985-.981v-1.456c0-.544.44-.981.985-.981h1.53v-8.844H5.085a.983.983 0 01-.985-.981V9.068H3.16a.986.986 0 01-.985-.981V6.45c0-.545.44-.982.985-.982H6.52V4.164c0-.131.05-.255.145-.346l.806-.804a.977.977 0 01.004-1.381L8.636.477a.99.99 0 011.394 0l.706.705a.982.982 0 010 1.389l-1.16 1.153a.983.983 0 01-1.39 0l-.014-.014-.663.659v1.103h9.016V4.369l-.67-.666-.02.02a.983.983 0 01-1.391 0l-1.16-1.152a.982.982 0 010-1.389l.71-.705a.982.982 0 01.695-.29zm4.235 21.186H5.109v1.456h13.816v-1.456zm-2.515-9.822H7.624v8.84h8.786v-8.84zm2.541-2.487H5.086v1.502H18.95V9.065zm1.923-2.615H3.16v1.637h1.902c.01 0 .017-.004.024-.004H18.95l.02.004h1.903V6.45zM9.334 1.169L8.176 2.325l.706.703 1.16-1.153-.706-.706zm5.352-.003l-.706.706 1.16 1.152.706-.702-1.16-1.156z" fill="#313235" fill-rule="nonzero"/></svg>