<svg width="24" height="24" viewBox="0 0 24 24" xmlns="http://www.w3.org/2000/svg"><path d="M4.456 5.121c.185 0 .337.151.337.336v9.16h7.72l.044-.05.582-.582a4.388 4.388 0 01-.215-.686h-.891a.674.674 0 01-.672-.672v-1.244c0-.37.302-.672.672-.672h.887c.05-.235.125-.464.215-.686l-.581-.581a.674.674 0 010-.951l.877-.878a.674.674 0 01.951 0l.582.582c.222-.09.45-.162.686-.215V7.09c0-.37.302-.672.672-.672h1.244c.37 0 .672.299.672.672v.89c.235.051.464.125.686.216l.581-.582a.674.674 0 01.951 0l.888.878a.674.674 0 010 .95l-.582.582c.091.222.162.45.215.686h.888c.37 0 .672.303.672.672v1.244c0 .37-.302.672-.672.672h-.89c-.051.236-.125.464-.216.686l.581.582a.669.669 0 01.141.206l-.144-.035c1.614.366 2.467 1.576 2.467 3.496V20.2c0 1.143-.302 2.034-.894 2.649-.618.639-1.536.961-2.723.961H3.802c-1.187 0-2.104-.326-2.72-.964-.591-.616-.893-1.506-.893-2.65V18.23c0-1.142.302-2.033.894-2.648.615-.639 1.532-.965 2.719-.965h.319v-9.16c0-.185.152-.336.336-.336zm7.952 10.169H3.8c-.998 0-1.751.255-2.235.759-.468.487-.706 1.22-.706 2.181v1.967c0 .961.238 1.697.706 2.181.484.505 1.237.76 2.235.76h16.386c.999 0 1.752-.255 2.236-.76.467-.487.706-1.22.706-2.181V18.23c0-.793-.162-1.435-.481-1.905-.283-.418-.705-.711-1.25-.876l-.058.069-.88.877a.674.674 0 01-.951 0l-.582-.581c-.222.09-.45.161-.686.215v.89c0 .37-.302.673-.672.673h-1.244a.674.674 0 01-.672-.673v-.89a4.058 4.058 0 01-.686-.215l-.581.581a.674.674 0 01-.951 0l-.878-.877a.669.669 0 01-.15-.228zm-8.913 3.125c.487 0 .807.256.803.797 0 .262-.07.457-.201.588-.141.145-.346.212-.602.212-.255 0-.46-.07-.602-.212-.127-.13-.201-.326-.201-.588 0-.545.316-.797.803-.797zm2.924 0c.488 0 .807.256.804.797 0 .262-.07.457-.202.588-.141.145-.346.212-.602.212-.255 0-.46-.07-.601-.212-.128-.13-.202-.326-.202-.588 0-.545.316-.797.803-.797zm11.147-11.32h-1.244v1.458c-.582.06-1.079.215-1.492.464l-.925-.924-.877.877.924.918c-.242.403-.4.9-.464 1.492H12.03v1.244h1.458c.06.591.219 1.089.464 1.492l-.924.925.877.884.925-.925c.413.249.914.4 1.492.464v1.459h1.244v-1.459c.581-.06 1.079-.215 1.492-.464l.924.925.881-.878-.924-.924c.242-.404.4-.901.464-1.493h1.458v-1.243h-1.458c-.06-.592-.219-1.09-.464-1.493l.924-.924-.88-.88-.925.924c-.413-.25-.914-.4-1.492-.464V7.094zm-.622 2.83c1.341 0 2.08.739 2.08 2.08 0 1.341-.739 2.08-2.08 2.08-1.341 0-2.08-.739-2.08-2.08 0-1.341.739-2.08 2.08-2.08zm0 .672c-.962 0-1.409.447-1.409 1.408 0 .962.447 1.409 1.409 1.409.961 0 1.408-.447 1.408-1.409 0-.961-.447-1.408-1.408-1.408zM9.999.28c1.204 1.16 1.815 2.9 1.815 5.176 0 2.266-.605 4.004-1.801 5.163a.335.335 0 01-.568-.242c0-.09.037-.178.1-.242 1.063-1.028 1.6-2.605 1.6-4.679 0-2.084-.54-3.66-1.61-4.692A.335.335 0 1110 .28zM7.303 1.965c.817.786 1.23 1.963 1.23 3.492 0 1.526-.41 2.7-1.223 3.486a.328.328 0 01-.228.094.335.335 0 01-.337-.336c0-.09.037-.178.101-.242.676-.655 1.019-1.667 1.019-3.002 0-1.334-.346-2.353-1.025-3.008a.335.335 0 11.463-.484z" fill="#313235" fill-rule="nonzero"/></svg>