<svg width="24" height="24" viewBox="0 0 24 24" xmlns="http://www.w3.org/2000/svg"><path d="M18.85 9.132c-.343 0-.663-.023-.962-.07l1.553-1.802a.99.99 0 00.273-.683.985.985 0 00-.982-.991h-.01l-3.798.017c-.01-.148-.02-.293-.02-.447 0-2.676 1.29-3.977 3.949-3.977s3.953 1.3 3.953 3.977c0 2.679-1.294 3.976-3.956 3.976zm-7.056 5.482L6.581 9.095h9.966l-.013.02-4.74 5.5zm-2.612 8.179l2.64-1.22 2.863 1.21c-.003.003-5.503.01-5.503.01zm9.543-16.216L17.411 8.1H5.976a.498.498 0 00-.256.08L4.268 6.642c0 .004 14.457-.064 14.457-.064zm.125-6.39c-3.184 0-4.935 1.765-4.935 4.972 0 .158.014.302.02.45l-6.487.03c-.017-.023-.027-.05-.047-.073L4.863 3.014a1.524 1.524 0 00-1.082-.453H.68a.495.495 0 000 .991h3.107c.144 0 .282.057.383.162L6.09 5.643l-1.825.01a.978.978 0 00-.901.602 1 1 0 00.192 1.072l7.526 7.966c.067.074.154.121.238.168v5.248l-4.601 2.13a.497.497 0 00.205.949l10.195-.02a.497.497 0 10.191-.955l-5.005-2.115v-5.257c.084-.05.168-.1.235-.178l4.622-5.358a6.78 6.78 0 001.691.215c3.183 0 4.938-1.764 4.938-4.964S22.036.188 18.85.188z" fill="#313235" fill-rule="nonzero"/></svg>