<svg width="24" height="24" viewBox="0 0 24 24" xmlns="http://www.w3.org/2000/svg"><path d="M22.826 22.309a.524.524 0 01-.52.52H8.58a.519.519 0 01-.518-.52v-5.174a.485.485 0 00-.054-.215h7.409c.83 0 1.502-.672 1.502-1.502V8.033a.551.551 0 00.148.03h5.24c.286 0 .522.232.522.521V22.31h-.004zM1.172 15.418V1.69a.52.52 0 01.518-.521h13.728c.285 0 .52.232.52.521v13.724a.524.524 0 01-.52.521H1.69a.518.518 0 01-.518-.517zm21.137-8.34h-5.24a.551.551 0 00-.149.03V1.69c0-.83-.672-1.502-1.502-1.502H1.69C.86.188.188.863.188 1.69v13.724c0 .83.672 1.503 1.502 1.503h5.442a.485.485 0 00-.054.215v5.173c0 .83.673 1.503 1.503 1.503h13.728c.83 0 1.502-.673 1.502-1.503V8.581c0-.83-.672-1.503-1.502-1.503z" fill="#313235" fill-rule="nonzero"/></svg>