<svg width="24" height="25" viewBox="0 0 24 25" xmlns="http://www.w3.org/2000/svg"><path d="M12.434 21.016c2.014-.036 8.588-.795 8.588-8.991 0-3.55-1.213-6.11-3.608-7.611-1.955-1.227-4.163-1.406-5.022-1.429a29.517 29.517 0 00-.723-.008h-.182c-.855.008-3.048.154-4.975 1.367-2.347 1.476-3.535 4.042-3.535 7.625 0 3.588 1.202 6.16 3.571 7.655 1.944 1.224 4.154 1.387 5.014 1.398l.295.003c.201-.003.403-.003.577-.009zM12.41 2.165c1.927.044 9.432.806 9.432 9.86 0 9.072-7.513 9.778-9.393 9.812-.179.003-.386.006-.593.006-.104 0-.208 0-.309-.003-1.977-.028-9.392-.743-9.392-9.871 0-9.118 7.348-9.796 9.322-9.813h.19c.253 0 .516.003.743.009zm-.414 13.126a.41.41 0 01-.41-.41V6.384a.41.41 0 01.819 0v8.499a.41.41 0 01-.41.409zm.002 1.045a.641.641 0 110 1.282.641.641 0 010-1.282z" fill="#313235" fill-rule="nonzero"/></svg>