<svg width="24" height="24" viewBox="0 0 24 24" xmlns="http://www.w3.org/2000/svg"><path d="M8.83 17.99c1.784 0 2.692-.888 2.692-2.64 0-1.747-.904-2.635-2.692-2.635-1.789 0-2.693.888-2.693 2.636-.003 1.75.904 2.638 2.693 2.638zm3.684-2.64c0 2.293-1.345 3.61-3.688 3.61S5.14 17.644 5.14 15.35c0-2.292 1.344-3.606 3.687-3.606 2.346 0 3.688 1.314 3.688 3.607zm7.942 6.74c1.567-.464 2.363-1.09 2.363-1.859v-3.899c-.534.403-1.237.75-2.063.992-1.463.43-3.379.665-5.399.665l-.386-.003a.51.51 0 01-.158-.034c-.044.135-.078.28-.128.404l.89.874a1.27 1.27 0 01.031 1.794l-.03.03-.911.891a1.34 1.34 0 01-1.866 0l-.89-.873a6.5 6.5 0 01-1.143.35v.732c2.42.551 3.72.555 4.581.555 1.913.01 3.728-.212 5.11-.619zM9.767 21.028a.49.49 0 01.417-.48c.558-.082 1.1-.246 1.607-.488a.508.508 0 01.571.094l1.136 1.112a.335.335 0 00.464 0l.911-.894a.305.305 0 00.094-.225.312.312 0 00-.094-.225l-1.14-1.113a.476.476 0 01-.093-.558c.232-.457.4-.985.494-1.573a.495.495 0 01.49-.41h1.537a.312.312 0 00.316-.31v-1.216a.31.31 0 00-.313-.31h-1.536a.495.495 0 01-.49-.406 5.517 5.517 0 00-.495-1.576.476.476 0 01.094-.558l1.136-1.113a.305.305 0 00.094-.225.312.312 0 00-.094-.225l-.91-.891a.335.335 0 00-.465 0l-1.136 1.113a.507.507 0 01-.571.094 5.591 5.591 0 00-1.607-.488.485.485 0 01-.417-.48V8.174a.316.316 0 00-.316-.31H8.204a.316.316 0 00-.316.31v1.503c0 .238-.178.44-.416.48-.558.08-1.1.246-1.607.484a.5.5 0 01-.572-.09L4.157 9.438a.335.335 0 00-.464 0l-.91.89a.305.305 0 00-.095.226c0 .087.034.165.094.225l1.133 1.11a.475.475 0 01.08.58c-.231.4-.402 1.087-.48 1.554a.491.491 0 01-.49.407h-1.53a.316.316 0 00-.316.309v1.22c0 .168.141.31.316.31h1.536c.242 0 .45.174.491.41.077.466.249 1.152.48 1.552.112.188.078.43-.08.582l-1.133 1.109a.305.305 0 00-.094.225c0 .088.034.165.094.225l.911.894a.335.335 0 00.464 0L5.3 20.154a.5.5 0 01.572-.09c.467.224 1.005.389 1.606.483a.49.49 0 01.417.477v1.503c0 .171.141.31.316.31h1.247a.312.312 0 00.316-.31l-.007-1.5zm.464-19.244c-1.31.387-2.104.911-2.306 1.516.004.01.014.017.014.027.201.602 1.001 1.123 2.302 1.503 1.372.403 3.187.628 5.11.628 1.926 0 3.74-.222 5.109-.628 1.274-.374 2.064-.878 2.292-1.46.004-.01.014-.02.02-.03-.184-.635-.961-1.156-2.319-1.556-1.371-.403-3.187-.625-5.113-.625-1.926 0-3.74.222-5.109.625zm5.341 7.859c.25.242.387.568.387.91 0 .24-.087.458-.208.656 1.747-.03 3.442-.235 4.715-.611 1.365-.4 2.098-1.019 2.353-1.483V4.793c-.504.386-1.19.712-2.067.971-1.462.43-3.378.669-5.398.669-2.017 0-3.933-.235-5.395-.669-.89-.262-1.587-.595-2.09-.988v2.188c.11-.03.218-.067.339-.067h1.247c.722 0 1.307.575 1.307 1.28v1.1c.407.087.78.201 1.143.35l.894-.875a1.34 1.34 0 011.866 0c-.004 0 .907.891.907.891zm.592 3.818c.72 0 1.308.575 1.308 1.281v1.22c0 .417-.216.77-.532 1.005 1.321-.087 2.545-.279 3.53-.571 1.361-.4 2.1-1.019 2.353-1.48V10.54c-.535.404-1.237.747-2.064.992-1.462.43-3.378.666-5.398.666-.175 0-.347-.004-.521-.004l-.155.151c.148.347.266.723.356 1.12l1.123-.004zM20.739.856c2.037.599 3.072 1.537 3.072 2.79v16.589c0 1.25-1.032 2.188-3.069 2.79-1.469.43-3.385.668-5.398.668-.898 0-2.256-.003-4.75-.568-.222.404-.642.69-1.14.69h-1.25c-.719 0-1.307-.575-1.307-1.281V21.43a6.5 6.5 0 01-1.143-.35l-.894.875a1.34 1.34 0 01-1.866 0l-.91-.895a1.263 1.263 0 01-.387-.914c0-.346.138-.669.386-.91l.884-.865a6.97 6.97 0 01-.35-1.129H1.496c-.72 0-1.308-.575-1.308-1.28v-1.22c0-.707.589-1.282 1.308-1.282h1.123c.07-.316.185-.742.35-1.126l-.885-.863a1.267 1.267 0 010-1.825l.908-.891a1.34 1.34 0 011.865 0l.895.874a6.5 6.5 0 011.142-.35v-.303c-.01-.037-.023-.074-.023-.114V3.646c0-.195.027-.39.08-.574v-.004C7.237 2.1 8.242 1.354 9.94.856 11.404.426 13.32.188 15.34.188s3.94.235 5.399.668z" fill="#313235" fill-rule="nonzero"/></svg>