<svg width="64" height="64" viewBox="0 0 64 64" xmlns="http://www.w3.org/2000/svg"><path d="M28.26 33.53a1.312 1.312 0 011.864 1.846l-.008.01-11.912 11.877c-.511.51-1.345.51-1.856 0l-5.36-5.342a1.304 1.304 0 01-.01-1.847l.01-.009c.51-.51 1.344-.51 1.864 0l4.42 4.41L28.26 33.531zm26.793 22.374c3.854-1.156 5.808-2.707 5.808-4.625v-9.69c-1.326.986-3.02 1.82-5.028 2.42-3.64 1.094-8.408 1.694-13.437 1.694-.896 0-1.766-.035-2.635-.08-.063.493-.134.968-.206 1.389-.6 3.433-3.765 6.768-7.297 9.528 2.976.61 6.463.942 10.111.942 4.76.008 9.26-.556 12.684-1.578zM20.56 60.726c4.733-2.321 15.444-8.632 16.412-14.162.852-4.957.986-15.731 1.004-19.63-4.024.233-6.445-1.39-8.802-2.94-2.366-1.57-4.607-3.04-8.614-3.048h-.018c-4.016 0-6.248 1.479-8.623 3.048-2.375 1.568-4.858 3.155-8.793 2.958.018 3.917.152 14.664 1.022 19.612.977 5.54 11.68 11.84 16.412 14.162zm3.317-48.367v6.301c2.895.6 4.92 1.936 6.75 3.146 2.536 1.677 4.526 2.994 8.389 2.403.385-.063.789.036 1.094.295.295.251.502.601.502.986 0 .162.008 1.255-.01 2.896.592.018 1.193.045 1.802.045 4.778 0 9.278-.565 12.675-1.587 3.352-1.004 5.163-2.537 5.79-3.684V12.413c-1.237.923-2.904 1.703-5.028 2.348-3.64 1.094-8.4 1.685-13.437 1.685-5.028 0-9.797-.6-13.427-1.685-2.151-.636-3.846-1.443-5.1-2.402zm5.808-7.655c-3.209.959-5.145 2.259-5.647 3.765 0 .009.009.018.018.027.502 1.496 2.465 2.796 5.674 3.764 3.397 1.013 7.897 1.578 12.674 1.578 4.787 0 9.278-.565 12.675-1.578 3.137-.941 5.082-2.196 5.629-3.648.009-.018.027-.036.036-.054-.466-1.56-2.367-2.86-5.692-3.854-3.406-1.013-7.906-1.578-12.684-1.578-4.777 0-9.277.556-12.683 1.578zm10.882 26.29c-.054 3.568-.206 8.22-.53 12.011.79.036 1.57.072 2.367.072 4.778 0 9.278-.556 12.675-1.578 3.343-1.003 5.163-2.536 5.79-3.684V26.934c-1.326.986-3.02 1.81-5.028 2.41-3.64 1.094-8.408 1.695-13.428 1.695-.627 0-1.237-.027-1.846-.045zm15.238-28.8c5.11 1.533 7.69 3.926 7.69 7.135v41.95c0 3.209-2.58 5.61-7.681 7.144-3.666 1.093-8.435 1.694-13.437 1.694-4.768 0-9.304-.556-12.89-1.56a67.949 67.949 0 01-8.371 4.814c-.359.17-.771.17-1.12 0-.69-.323-16.978-8.077-18.42-16.35C.455 40.701.5 26.1.5 25.481c0-.403.189-.78.502-1.03.314-.242.726-.323 1.12-.242 3.82.6 5.818-.726 8.355-2.403 2.465-1.63 5.27-3.477 10.075-3.477h.018c.233 0 .448.026.681.035V9.33c0-.51.072-1.004.206-1.479v-.009c.726-2.474 3.236-4.374 7.476-5.638C32.573 1.101 37.35.5 42.369.5c5.02 0 9.798.6 13.437 1.694z" fill="#313235" fill-rule="nonzero"/></svg>