<svg width="24" height="24" viewBox="0 0 24 24" xmlns="http://www.w3.org/2000/svg"><path d="M10.598 12.574a.493.493 0 01.699.692l-.003.004-4.468 4.454a.493.493 0 01-.695 0L4.12 15.72a.489.489 0 01-.004-.692l.003-.004a.497.497 0 01.7 0l1.657 1.654 4.12-4.104zm10.047 8.39c1.445-.434 2.178-1.015 2.178-1.734v-3.634c-.498.37-1.133.682-1.886.907-1.364.41-3.153.636-5.038.636-.337 0-.663-.014-.989-.03a12.7 12.7 0 01-.077.52c-.225 1.288-1.412 2.538-2.736 3.574 1.116.228 2.423.353 3.792.353 1.784.003 3.472-.209 4.756-.592zM7.71 22.772c1.775-.87 5.792-3.237 6.155-5.31.32-1.86.37-5.9.376-7.362-1.509.088-2.416-.52-3.3-1.102-.888-.589-1.728-1.14-3.23-1.143h-.007c-1.506 0-2.343.554-3.234 1.143-.89.588-1.822 1.183-3.297 1.109.006 1.469.057 5.499.383 7.354.366 2.078 4.38 4.44 6.154 5.311zM8.954 4.635v2.363c1.086.225 1.845.726 2.531 1.18.951.628 1.698 1.122 3.146.9a.506.506 0 01.41.111c.111.094.189.225.189.37 0 .06.003.47-.004 1.086.222.006.447.016.676.016 1.792 0 3.479-.211 4.753-.595 1.257-.376 1.936-.95 2.171-1.381v-4.03c-.464.346-1.089.638-1.885.88-1.365.41-3.15.632-5.039.632-1.886 0-3.674-.225-5.035-.632-.807-.238-1.442-.54-1.913-.9zm2.178-2.871c-1.203.36-1.93.847-2.117 1.412 0 .003.003.006.006.01.189.561.925 1.049 2.128 1.412 1.274.38 2.961.591 4.753.591 1.795 0 3.479-.212 4.753-.591 1.176-.353 1.906-.824 2.11-1.368l.014-.02c-.175-.586-.887-1.073-2.134-1.446-1.277-.38-2.965-.592-4.756-.592-1.792 0-3.48.209-4.757.592zm4.08 9.859c-.02 1.338-.076 3.082-.197 4.504.295.013.588.027.887.027 1.792 0 3.479-.209 4.753-.592 1.254-.376 1.936-.951 2.171-1.381V10.1c-.497.369-1.132.678-1.885.903-1.365.41-3.153.636-5.036.636-.235 0-.464-.01-.692-.017zm5.715-10.8c1.916.575 2.884 1.472 2.884 2.675V19.23c0 1.203-.968 2.104-2.88 2.679-1.375.41-3.163.635-5.04.635-1.787 0-3.488-.209-4.833-.585a25.48 25.48 0 01-3.14 1.805.485.485 0 01-.42 0c-.258-.121-6.366-3.029-6.907-6.131-.42-2.37-.403-7.845-.403-8.077 0-.152.07-.293.188-.387.118-.09.272-.121.42-.09 1.432.224 2.182-.273 3.133-.902.924-.611 1.976-1.304 3.778-1.304h.007c.087 0 .168.01.255.014V3.498c0-.191.027-.376.078-.554V2.94C8.319 2.013 9.26 1.3 10.85.826c1.365-.413 3.156-.638 5.039-.638 1.882 0 3.673.225 5.038.635z" fill="#313235" fill-rule="nonzero"/></svg>