<svg width="24" height="24" viewBox="0 0 24 24" xmlns="http://www.w3.org/2000/svg"><path d="M23.465 19.521a.337.337 0 010 .672H.524a.337.337 0 01-.337-.335c0-.185.152-.337.337-.337h22.94zM20.198 3.75c1.216 0 2.14.353 2.75 1.049.57.655.863 1.623.863 2.877v5.926c0 1.254-.289 2.222-.864 2.877-.608.7-1.533 1.053-2.75 1.053H3.812c-1.217 0-2.141-.353-2.75-1.05-.574-.658-.863-1.626-.863-2.88V7.676c0-1.254.289-2.222.863-2.877.609-.696 1.533-1.049 2.75-1.049h16.387zm0 .672H3.81C1.804 4.422.87 5.458.87 7.68v5.926c0 2.222.934 3.258 2.941 3.258h16.387c2.006 0 2.94-1.036 2.94-3.258V7.676c0-2.222-.934-3.254-2.94-3.254zm-5.553 2.165c.85 0 1.401.447 1.395 1.408 0 .46-.128.804-.353 1.036-.242.252-.605.373-1.046.373-.44 0-.8-.121-1.045-.373a1.077 1.077 0 01-.102-.122l-2.765 1.382c.018.108.027.224.027.35 0 .127-.01.246-.03.355l2.763 1.38c.24-.34.644-.502 1.156-.502.85 0 1.401.447 1.395 1.409 0 .46-.128.803-.353 1.035-.242.252-.605.373-1.046.373-.44 0-.8-.12-1.045-.373-.225-.232-.353-.575-.353-1.035 0-.096.005-.186.016-.271l-2.802-1.4-.054.064c-.212.22-.517.34-.884.367l-.162.006c-.44 0-.8-.12-1.045-.373-.225-.232-.353-.575-.353-1.035 0-.962.551-1.409 1.402-1.409.475 0 .857.141 1.1.435l2.799-1.395a2.176 2.176 0 01-.017-.277c0-.961.551-1.408 1.402-1.408z" fill="#313235" fill-rule="nonzero"/></svg>