<svg width="24" height="24" viewBox="0 0 24 24" xmlns="http://www.w3.org/2000/svg"><path d="M8.21 2.813c1.641 0 2.47.832 2.47 2.47v2.841h1.426l-.01-.847a.452.452 0 01.128-.34.405.405 0 01.29-.121c.101 0 .199.037.29.1l.69.518c.133-.371.344-.667.631-.881.405-.3.947-.448 1.665-.448h5.552c1.641 0 2.47.832 2.47 2.47v10.14c.004 1.664-.805 2.473-2.467 2.473h-5.551c-1.662 0-2.471-.81-2.471-2.47v-2.84l-1.409.006-.013.849c.003.256-.18.448-.418.448a.481.481 0 01-.29-.101l-.683-.507c-.318.89-1.076 1.322-2.304 1.322H2.658c-1.662 0-2.47-.808-2.47-2.47V5.282c0-1.66.808-2.47 2.47-2.47H8.21zm13.135 3.966h-5.551c-1.243 0-1.599.52-1.727 1.085l1.555 1.166a.494.494 0 01.205.397c0 .155-.074.3-.205.398l-1.626 1.208v2.235h1.036a.596.596 0 01.492.183.611.611 0 01.175.434l.004 1.321a.62.62 0 01-.152.462.6.6 0 01-.475.202l-1.08.005.001 2.843c0 1.293.506 1.796 1.797 1.796h5.551c1.294 0 1.797-.506 1.797-1.796V8.575c0-1.26-.536-1.796-1.797-1.796zm-2.774 11.288c.357 0 .587.189.587.59 0 .192-.054.337-.149.435-.1.104-.253.155-.438.155s-.337-.051-.438-.155c-.094-.098-.148-.24-.148-.435-.004-.405.229-.59.586-.59zM8.21 3.487H2.658c-.65 0-1.102.138-1.382.417-.28.28-.414.732-.414 1.378v10.14c0 1.294.505 1.796 1.796 1.796H8.21c1.029 0 1.545-.315 1.724-1.073l-1.583-1.178a.494.494 0 01-.205-.398c0-.155.074-.3.205-.397l1.654-1.242v-2.197l-1.108-.005h-.03a.6.6 0 01-.445-.202.62.62 0 01-.152-.462l.004-1.32a.611.611 0 01.667-.617l1.064-.002.001-2.843c0-1.26-.536-1.796-1.796-1.796zm2.986 9.398l-2.248 1.684 1.52 1.13a.331.331 0 01.077.056l.695.52.007-.52a.56.56 0 01.55-.549l3.232-.013-.004-1.25-3.286-.004a.548.548 0 01-.55-.552l.007-.502zm-5.76 1.907c.357 0 .586.189.586.59 0 .192-.054.336-.148.434-.101.105-.253.155-.438.155-.186 0-.337-.05-.439-.155-.094-.098-.148-.24-.148-.435-.003-.4.23-.59.587-.59zm5.244-4.057v1.69l.49-.366a.481.481 0 01.289-.101c.111 0 .212.044.29.121.06.06.131.169.128.34l-.01.846 1.455.002v-1.733l-.542.404a.46.46 0 01-.283.104c-.24 0-.421-.195-.425-.451l-.013-.85-1.38-.006zm2.1-2.996l.007.502a.531.531 0 01-.158.391.566.566 0 01-.391.165l-1.88.003h-.015l-.014-.002L8.95 8.8l-.003 1.254 1.37.004h.025l.025.002 1.812.007c.3.004.55.25.553.55l.007.519.68-.506a.34.34 0 01.073-.056l1.539-1.143-1.504-1.13a.331.331 0 01-.065-.049l-.683-.513z" fill="#313235" fill-rule="nonzero"/></svg>