<svg width="64" height="64" viewBox="0 0 64 64" xmlns="http://www.w3.org/2000/svg"><path d="M46.931 48.063l-3.128.027 3.263-3.46a2.197 2.197 0 00.394-2.286c-.314-.762-1.049-1.282-1.873-1.282h-5.342l-.027-14.467c-.027-1.147-.915-2.097-2.053-2.097h-12.37c-1.13 0-2.052.95-2.052 2.097v14.199h-5.37c-.815 0-1.55.493-1.873 1.281a2.184 2.184 0 00.421 2.295l3.657 3.872L14 48.27c-3.263 0-10.873-1.093-10.873-11.222 0-5.665 2.376-9.269 7.055-10.658.582-.161.94-1.067.94-1.658 0-16.233 13.661-17.497 17.847-17.497 2.367 0 14.351.547 17.22 11.58.134.575.627.978 1.236 1.005 4.034.107 13.428 1.712 13.428 14.09.009 13.141-10.649 14.154-13.92 14.154zm-14.763 8.56L19.79 43.518h4.553c1.139 0 2.026-.95 2.026-2.097V27.223h11.213l.027 14.467c0 1.174.923 2.097 2.053 2.097h4.5L32.168 56.623zM48.464 17.14C44.7 5.119 31.622 4.5 28.986 4.5c-3.397 0-20.14.95-20.482 19.594C5.134 25.376.5 28.648.5 37.038c0 10.299 6.983 13.947 13.535 13.947l9.107-.054 7.556 8.04c.395.413.924.655 1.48.655.528 0 1.048-.242 1.442-.654l7.637-8.121 5.683-.054c2.77 0 16.565-.789 16.565-16.896-.009-14.064-10.514-16.413-15.04-16.762z" fill="#313235" fill-rule="nonzero"/></svg>