<svg width="24" height="24" viewBox="0 0 24 24" xmlns="http://www.w3.org/2000/svg"><path d="M23.812 1.798h-.01v9.983c-.091.504-.336.964-.706 1.32l-9.993 9.934a2.367 2.367 0 01-1.6.773 1.381 1.381 0 01-.995-.377L.56 13.498a1.865 1.865 0 01.35-2.595L10.914.883c.347-.353.79-.595 1.274-.696h10.014c.887 0 1.61.72 1.61 1.61zm-.995 9.835V1.798a.615.615 0 00-.615-.616h-9.836a1.48 1.48 0 00-.746.427L1.587 11.593c-.437.437-.538.984-.34 1.18l9.946 9.936c.199.198.767.087 1.194-.337L22.4 12.38c.215-.198.36-.46.417-.746zm-4.89-8.824c.772.06 1.495.42 2.006 1.005a2.97 2.97 0 01.995 2.047c-.02.787-.36 1.53-.945 2.058a2.91 2.91 0 01-1.99.944 2.987 2.987 0 01-2.06-.995 2.993 2.993 0 01-.995-2.057c.02-.787.363-1.53.944-2.057a2.928 2.928 0 012.044-.945zm1.38 4.333c.38-.33.612-.8.636-1.3a1.993 1.993 0 00-.676-1.362 1.998 1.998 0 00-1.351-.676c-.514.03-.995.266-1.334.656-.387.336-.622.81-.656 1.32.037.525.28 1.016.676 1.362.35.39.84.625 1.361.656a2.102 2.102 0 001.345-.656z" fill="#313235" fill-rule="nonzero"/></svg>