<svg width="24" height="24" viewBox="0 0 24 24" xmlns="http://www.w3.org/2000/svg"><path d="M15.68.188a.357.357 0 01.239.097l6.554 6.555a.333.333 0 01.098.238V22.81c0 .528-.464.992-.992.992H6.504c-.518 0-.992-.474-.992-.992v-6.554c0-.054.013-.104.035-.15a21.53 21.53 0 01-.223-.22l-.004-.003-.073-.071-.004-.003C3.11 13.67 1.56 11.488.766 9.498.02 7.63-.004 6.046.692 5.035c.003-.007.007-.01.013-.017l.014-.02c.087-.121.35-.484.618-.74 1.415-1.351 2.817-1.44 4.175-.269V1.18c0-.5.49-.992.992-.992h9.176zm-.336.671h-8.84c-.128 0-.32.192-.32.32v3.277a.333.333 0 01-.047.172 4.3 4.3 0 01.367.52c.53.855.847 2.186-.646 3.678-.144.148-.299.283-.464.41-.235.296.175.988.44 1.378.565.824 1.503 1.789 2.159 2.444l.077.077c.656.656 1.62 1.594 2.444 2.155.39.269 1.082.676 1.378.44.128-.164.262-.319.41-.464 1.492-1.492 2.82-1.176 3.677-.645.326.195.622.427.888.7 1.448 1.448 1.452 2.954.003 4.467-.255.268-.622.53-.74.618l-.02.013-.016.014c-.488.336-1.113.507-1.836.507-.773 0-1.664-.191-2.628-.578-1.724-.687-3.59-1.94-5.446-3.651v6.098c0 .145.175.32.32.32h15.075c.155 0 .32-.165.32-.32V7.413l-2.942.001c-1.055 0-1.96-.346-2.615-.998-.655-.652-.998-1.556-.998-2.615V.859zM1.804 4.742c-.147.141-.329.36-.537.649l-.024.03c-1.096 1.603.088 5.52 4.474 9.91l.044.043.037.034c4.39 4.39 8.302 5.573 9.909 4.477l.03-.024a4.83 4.83 0 00.649-.537c1.193-1.25 1.197-2.34.007-3.53a3.788 3.788 0 00-.753-.595l-.01-.006c-.955-.595-1.886-.417-2.85.547a3.834 3.834 0 00-.377.43c-.01.014-.024.028-.037.041-.723.666-1.859-.11-2.229-.366-.87-.595-1.865-1.563-2.54-2.236l-.078-.077c-.676-.676-1.64-1.67-2.236-2.541-.255-.373-1.035-1.506-.366-2.229l.04-.037c.152-.114.296-.242.43-.376.962-.962 1.144-1.896.549-2.85l-.007-.01a3.67 3.67 0 00-.595-.754c-1.19-1.19-2.28-1.186-3.53.007zm19.62 2l-5.409-5.405.001 2.464c0 1.785 1.153 2.941 2.941 2.941h2.467z" fill="#313235" fill-rule="nonzero"/></svg>