<svg width="24" height="24" viewBox="0 0 24 24" xmlns="http://www.w3.org/2000/svg"><path d="M21.633 5.87h-2.511l1.133-1.123 2.138.02c-.004 0-.76 1.103-.76 1.103zm-9.543 5.59c-.5-.34-1.197-.508-2.141-.528-.182-.003-.703-.007-.7-.007-1.952.017-3.011.565-3.011 3.412 0 2.88 1.092 3.442 3.092 3.469l.222.003.478-.003c2.342-.04 3.136-.901 3.136-3.412 0-.955-.125-1.674-.41-2.205l1.458-1.445c.65.887.989 2.09.989 3.65 0 3.593-1.681 5.375-5.13 5.432l-.507.003-.242-.003c-3.446-.047-5.12-1.845-5.12-5.489 0-3.624 1.644-5.402 5.026-5.432.063 0 .584.003.773.007 1.526.037 2.689.417 3.54 1.112L12.09 11.46zm.087 2.93c0 2.098-.463 2.404-2.16 2.434l-.458.004-.215-.004c-1.429-.02-2.118-.134-2.118-2.49 0-2.313.619-2.42 2.027-2.43.06 0 .514 0 .676.003.638.017 1.116.074 1.458.248l-1.825 1.812-.003-.79a.493.493 0 00-.49-.487H9.06a.488.488 0 00-.49.487v.004l.003 1.97v.006c0 .088.034.165.074.235a.49.49 0 00.417.246h.007l1.976-.03a.494.494 0 00.487-.498.49.49 0 00-.494-.48h-.006l-.76.013 1.72-1.708c.122.357.182.817.182 1.456zm6.047 0c0 3.339-1.139 5.739-3.391 7.127-1.839 1.136-3.913 1.294-4.716 1.307-.165.004-.353.004-.545.004l-.292-.004c-.814-.01-2.904-.161-4.743-1.307-2.232-1.395-3.361-3.812-3.361-7.183 0-3.365 1.12-5.772 3.327-7.15C6.322 6.048 8.4 5.907 9.21 5.904h.189c.232 0 .474.003.679.006.813.02 2.907.188 4.756 1.341.31.192.591.407.86.639l-1.438 1.425c-1.2-1.015-2.787-1.348-4.232-1.381-.205-.004-.797-.007-.797-.007-2.746.023-6.013 1.153-6.013 6.41 0 5.277 3.314 6.43 6.09 6.47l.25.004.527-.007c2.786-.047 6.107-1.2 6.107-6.41 0-1.993-.49-3.391-1.25-4.37l1.449-1.438c1.217 1.415 1.838 3.358 1.838 5.805zm.121-11.875l1.053-.827v2.525l-1.053 1.042v-2.74zm5.409 1.546a.496.496 0 00-.434-.262l-2.09-.023.13-.131a.488.488 0 00.004-.69l-.003-.003a.497.497 0 00-.7 0l-.279.28V.675a.496.496 0 00-.8-.383l-2.04 1.6a.505.505 0 00-.188.383v3.957l-.975.968c-2.252-1.967-5.193-2.242-6.286-2.27-.235-.006-.47-.01-.706-.01l-.191.004C7.29 4.942.188 5.591.188 14.337c0 8.76 7.166 9.445 9.075 9.472.101.004.205.004.306.004.198 0 .393-.004.565-.004 1.815-.033 9.075-.709 9.075-9.412 0-3.042-.894-5.092-2.134-6.497l1.055-1.049h3.762c.164 0 .316-.08.406-.215l1.422-2.07a.48.48 0 00.034-.505z" fill="#313235" fill-rule="nonzero"/></svg>