<svg width="64" height="64" viewBox="0 0 64 64" xmlns="http://www.w3.org/2000/svg"><path d="M60.17 21.971c-1.281 5.342-3.585 10.909-6.848 16.556l-.304 1.022c-.17.699-.323 1.335-.466 1.864a65.205 65.205 0 01-2.241 7.144c-1.372 3.702-2.465 6.095-4.303 9.439l-.18.304c-.268.44-.707 1.22-1.138 1.74-.304.385-.645.663-.995.815l-.358-.009c-.34-.134-.681-.412-.995-.816-.385-.475-.87-1.255-1.138-1.72l-.17-.332c-.171-.305-.628-1.506-1.067-2.671-3.236-8.543-5.36-12.881-7.978-12.881-2.608 0-4.742 4.338-7.978 12.88-.439 1.166-.896 2.367-1.066 2.672l-.17.296v.035c-.27.466-.753 1.255-1.148 1.74-.305.385-.645.663-.995.815l-.358-.009c-.341-.134-.682-.412-.995-.816-.413-.502-.86-1.272-1.12-1.72l-.153-.252c-1.874-3.406-2.967-5.8-4.339-9.51a66.893 66.893 0 01-2.24-7.162c-.144-.529-.296-1.174-.475-1.9l-.153-.628-.143-.35C7.393 32.88 5.089 27.314 3.808 21.963 2.203 15.257 3.476 9.736 7.384 6.419c2.259-1.936 5.351-3.101 8.73-3.272 3.667-.197 7.395.727 10.873 2.654 1.264.708 2.555 1.443 3.962 2.267.188.117.53.323 1.04.323.493 0 .816-.197 1.013-.314 1.416-.842 2.707-1.568 3.962-2.276 3.496-1.936 7.26-2.86 10.882-2.654 3.37.17 6.471 1.327 8.74 3.272 3.916 3.326 5.18 8.847 3.585 15.552M58.324 4.429C55.626 2.108 51.951.727 47.998.53c-4.141-.224-8.381.807-12.316 2.985-1.165.654-2.34 1.318-3.693 2.115-1.309-.77-2.51-1.452-3.693-2.115C24.37 1.337 20.148.324 15.998.53 12.036.727 8.37 2.117 5.681 4.43.984 8.417-.594 14.871 1.253 22.59c1.335 5.539 3.702 11.285 7.036 17.093l.108.44c.18.743.34 1.424.484 1.944a68.155 68.155 0 002.313 7.413c1.416 3.837 2.554 6.329 4.535 9.914l.161.26c.314.529.834 1.407 1.327 2.017.6.762 1.309 1.308 2.16 1.649.206.072.52.17.924.17h.367c.376 0 .69-.098.968-.197.78-.314 1.488-.86 2.08-1.604.627-.771 1.335-2 1.541-2.367l.162-.296v-.053c.242-.511.564-1.363 1.093-2.743.995-2.635 4.034-10.64 5.414-11.187 1.551.547 4.58 8.552 5.585 11.187.52 1.362.842 2.205 1.075 2.716l.17.367c.198.368.915 1.587 1.524 2.349.6.762 1.309 1.308 2.16 1.649.207.072.52.17.924.17h.367c.377 0 .69-.098.968-.197.78-.314 1.488-.86 2.08-1.604.51-.628 1.03-1.515 1.344-2.035l.198-.323c1.945-3.531 3.083-6.014 4.5-9.85a70.032 70.032 0 002.321-7.405c.143-.529.296-1.192.475-1.909l.117-.493c3.343-5.808 5.71-11.554 7.036-17.093 1.82-7.71.242-14.154-4.446-18.143" fill="#313235" fill-rule="nonzero"/></svg>