<svg width="24" height="24" viewBox="0 0 24 24" xmlns="http://www.w3.org/2000/svg"><path d="M15.917 15.26c2.097 0 3.815.632 4.965 1.825 1.055 1.096 1.61 2.622 1.61 4.413v1.967a.337.337 0 01-.337.336H1.836a.337.337 0 01-.336-.336v-1.967c0-1.791.558-3.317 1.61-4.413 1.15-1.193 2.864-1.825 4.965-1.825h7.842zm0 .675H8.075c-1.94 0-3.446.545-4.48 1.617-.932.968-1.423 2.333-1.423 3.946v1.63H21.82v-1.63c0-1.613-.49-2.978-1.422-3.946-1.035-1.072-2.54-1.617-4.48-1.617zM11.964.187c2.302 0 4.087.599 5.307 1.775 1.268 1.22 1.91 3.052 1.91 5.446v.006l-.01.656c0 .598-.172 1.072-.505 1.402-.332.329-.793.49-1.374.49l-.439.001c-.23.561-.549 1.04-.956 1.435-.894.86-2.199 1.297-3.88 1.297-1.677 0-2.984-.437-3.878-1.3C7.21 10.5 6.74 9.158 6.74 7.414c0-1.745.47-3.086 1.399-3.98.897-.86 2.201-1.298 3.879-1.298 1.677 0 2.985.437 3.879 1.3.927.898 1.398 2.236 1.398 3.98a7.44 7.44 0 01-.219 1.874l.216-.001c.396 0 .699-.1.9-.3.202-.197.306-.513.306-.927v-.007l.01-.655c0-4.34-2.201-6.541-6.544-6.541C8.068.86 5.89 2.64 5.487 6.15a.336.336 0 01-.666-.077c.222-1.956.968-3.455 2.215-4.447C8.236.672 9.893.188 11.964.188zm3.383 9.775a.63.63 0 01-.15.246c-.137.137-.339.205-.588.205-.248 0-.45-.068-.588-.205-.128-.128-.198-.32-.198-.575 0-.535.312-.783.79-.783.36 0 .623.14.73.44l1.035.001c.163-.545.245-1.17.245-1.873 0-1.557-.404-2.733-1.194-3.496-.763-.74-1.912-1.113-3.411-1.113-1.5 0-2.646.373-3.412 1.113-.793.763-1.193 1.94-1.193 3.496s.403 2.733 1.193 3.496c.766.739 1.912 1.112 3.412 1.112 1.499 0 2.645-.373 3.411-1.112.278-.267.507-.584.688-.95z" fill="#313235" fill-rule="nonzero"/></svg>