<svg width="24" height="24" viewBox="0 0 24 24" xmlns="http://www.w3.org/2000/svg"><path d="M16.49.188c.219 0 .424.084.578.231l6.49 6.286a.766.766 0 01.21.383.47.47 0 01.04.195V22.36c0 .783-.676 1.445-1.476 1.445H7.408c-.787 0-1.476-.675-1.476-1.445l.044-3.644h-3.07c-1.498 0-2.719-1.22-2.719-2.722v-5.016a2.723 2.723 0 012.72-2.722h3.025V1.633c0-.756.703-1.446 1.476-1.446h9.082zm-.827.991H7.404c-.222 0-.487.245-.487.454v6.622h8.044c1.499 0 2.719 1.22 2.719 2.722v5.016a2.723 2.723 0 01-2.72 2.722h-8l-.043 3.65c0 .22.245.448.487.448h14.928v.003c.249 0 .487-.222.487-.454V8.107h-3.082c-1.176 0-2.188-.38-2.931-1.1-.746-.722-1.143-1.714-1.143-2.86V1.18zm-.699 8.067H2.904c-.952 0-1.728.777-1.728 1.731v5.016a1.73 1.73 0 001.727 1.73h12.061c.951 0 1.728-.776 1.728-1.73v-5.016a1.73 1.73 0 00-1.728-1.73zm-8.941 2.286l1.852 2.504v-2.504h.783v3.91h-.716l-1.795-2.374v2.373h-.783v-3.909h.659zm-1.348 0l-.067.645H2.927v.948h1.345v.67H2.927v.998h1.778v.645H2.036v-3.906h2.639zm7.472 0l-.067.645H10.4v.948h1.344v.67h-1.345v.998h1.778v.645H9.51v-3.906h2.638zm1.385 0l.777 1.29.709-1.29h.948l-1.281 1.913 1.247 1.993h-.988l-.777-1.324-.702 1.324H12.5l1.294-1.946-1.193-1.96h.931zm3.123-10.138v2.75c0 .874.289 1.617.84 2.148.555.534 1.331.82 2.242.82h2.82l-5.902-5.718z" fill="#313235" fill-rule="nonzero"/></svg>