<svg width="24" height="24" viewBox="0 0 24 24" xmlns="http://www.w3.org/2000/svg"><path d="M16.49.188c.219 0 .43.087.582.238l6.487 6.28a.806.806 0 01.208.386.47.47 0 01.04.195v15.075c0 .783-.675 1.446-1.475 1.446H7.408c-.787 0-1.476-.676-1.476-1.446l.044-3.643h-3.07c-1.498 0-2.719-1.22-2.719-2.723V10.98a2.723 2.723 0 012.72-2.723h3.025V1.633c0-.756.703-1.446 1.476-1.446h9.082zm-.827.998H7.404c-.222 0-.487.245-.487.454v6.625h8.044c1.499 0 2.719 1.22 2.719 2.723v5.015a2.723 2.723 0 01-2.72 2.722h-8l-.043 3.65c0 .22.245.448.487.448h14.928v-.004c.249 0 .487-.221.487-.453V8.11h-3.082c-1.176 0-2.192-.38-2.931-1.099-.746-.72-1.143-1.71-1.143-2.86V1.186zm-.699 8.064H2.904c-.952 0-1.728.776-1.728 1.73v5.016a1.73 1.73 0 001.727 1.731h12.061c.951 0 1.728-.776 1.728-1.731V10.98a1.73 1.73 0 00-1.728-1.731zm-6.013 1.912c.423 0 .887.064 1.226.182l-.154.746a4.263 4.263 0 00-1.056-.155c-.54 0-.712.192-.712.471 0 .86 2.242.269 2.242 1.987 0 .393-.135.705-.367.924-.309.289-.726.417-1.354.417-.558-.007-1.012-.078-1.456-.232l.155-.763c.386.134.894.218 1.213.218.592 0 .868-.154.868-.558 0-.823-2.242-.225-2.242-1.953 0-.894.699-1.284 1.637-1.284zm3.791 0c.424 0 .888.064 1.227.182l-.155.746a4.263 4.263 0 00-1.055-.155c-.541 0-.713.192-.713.471 0 .86 2.242.269 2.242 1.987 0 .393-.134.705-.366.924-.31.289-.726.417-1.355.417-.554-.007-1.011-.078-1.455-.232l.154-.763c.387.134.895.218 1.214.218.592 0 .867-.154.867-.558 0-.823-2.242-.225-2.242-1.953 0-.894.7-1.284 1.637-1.284zm-7.11 0c.38 0 .868.084 1.15.199l-.127.732a3.558 3.558 0 00-.945-.154c-.944 0-1.163.622-1.163 1.496 0 .52.098.958.316 1.2.192.218.47.316.965.316.212 0 .551-.04.81-.091l.104.733c-.262.077-.746.134-1.106.134-.78 0-1.267-.185-1.596-.531-.374-.4-.535-.972-.535-1.735 0-1.374.622-2.299 2.128-2.299zm11.023-9.761v2.746c0 .874.289 1.617.84 2.148.551.535 1.328.82 2.242.82h2.82l-5.902-5.714z" fill="#313235" fill-rule="nonzero"/></svg>