<svg width="64" height="64" viewBox="0 0 64 64" xmlns="http://www.w3.org/2000/svg"><path d="M43.982.5a2.26 2.26 0 011.551.618l17.3 16.753c.287.278.457.646.547 1.031.071.162.107.332.107.52v40.202c0 2.088-1.802 3.854-3.935 3.854H19.754c-2.098 0-3.935-1.802-3.935-3.854l.116-9.717H7.752C3.754 49.907.5 46.654.5 42.647V29.273c0-4.007 3.254-7.26 7.252-7.26h8.067V4.354C15.819 2.338 17.692.5 19.754.5h24.228zm-2.214 2.626H19.745c-.592 0-1.29.655-1.29 1.21v17.659h21.449c3.998 0 7.251 3.253 7.251 7.26V42.63c0 4.007-3.253 7.26-7.251 7.26H18.57l-.117 9.735c0 .582.654 1.192 1.29 1.192h39.808v.018c.663 0 1.3-.592 1.3-1.21V21.6h-8.22c-3.137 0-5.844-1.013-7.816-2.93-1.99-1.928-3.048-4.563-3.048-7.629V3.126zm-1.855 21.522H7.743a4.62 4.62 0 00-4.608 4.616v13.374a4.613 4.613 0 004.608 4.616h32.17a4.62 4.62 0 004.607-4.616V29.264a4.613 4.613 0 00-4.607-4.616zM20.13 30.376v1.658l-5.665 8.193h5.701v1.99H11.05V40.63l5.755-8.264H11.22v-1.99h8.91zm4.697-.01v11.85H22.12v-11.85h2.707zm6.66 0c1.856 0 3.03.26 3.792.969.645.591.95 1.506.95 2.77 0 1.263-.296 2.213-.888 2.877-.69.78-1.765 1.147-3.325 1.147h-1.91v4.088H27.4v-11.85h4.087zm-.098 1.964h-1.264v3.782h1.335v-.009c.87 0 1.228-.125 1.578-.448.314-.314.466-.816.466-1.506 0-.636-.135-1.111-.448-1.407-.332-.296-.834-.412-1.667-.412zM44.413 3.709v7.332c0 2.33.77 4.312 2.24 5.728 1.47 1.425 3.541 2.187 5.98 2.187h7.52v-.009L44.413 3.71z" fill="#313235" fill-rule="nonzero"/></svg>