<svg width="24" height="24" viewBox="0 0 24 24" xmlns="http://www.w3.org/2000/svg"><path d="M19.259 22.632c.249 0 .48-.222.48-.454V7.923h-3.052c-1.166 0-2.171-.38-2.904-1.1-.74-.722-1.133-1.714-1.133-2.86V.995H4.47c-.219 0-.48.245-.48.454v20.73c0 .224.241.453.48.453h14.79zm.225-15.704L13.632 1.21v2.75c0 .874.289 1.616.834 2.148.547.534 1.317.82 2.221.82h2.797zm1.2-.02c.027.06.037.124.037.195v15.075c0 .783-.669 1.446-1.466 1.446H4.465c-.78 0-1.465-.676-1.465-1.446V1.445C3 .69 3.7 0 4.466 0h9.001c.215 0 .424.084.575.232l6.43 6.282a.78.78 0 01.212.394zm-5.52 6.077h1.332l-.793-1.56-.538 1.56zm-.342.995l-1.382 4.017 2.894-4.017h-1.512zm-5.866 0h-1.56l2.959 4.067-1.399-4.067zm.521-1.51l1.426-1.804H8.855l.622 1.805zm3.375-1.804l1.445 1.811.626-1.811h-2.07zm-2.524 2.319h3.112l-1.566-1.96-1.546 1.96zm3.455.995H9.995l1.892 5.502 1.896-5.502zM8.07 11.408l-.827 1.577h1.371l-.544-1.577zm9.67 1.86c.03.063.05.134.05.214l-.002.02c0 .02-.007.037-.01.054a.472.472 0 01-.068.182c-.006.01-.003.023-.013.033l-5.412 7.51c-.02.03-.054.047-.08.07a.461.461 0 01-.061.054.492.492 0 01-.256.084.464.464 0 01-.255-.084c-.024-.013-.04-.034-.06-.05-.027-.024-.061-.04-.081-.071l-5.462-7.51c-.007-.01-.007-.023-.014-.033a.452.452 0 01-.067-.188c-.003-.017-.01-.03-.01-.05 0-.007-.004-.014-.004-.02 0-.078.024-.152.054-.22.004-.006 0-.01.004-.013l1.737-3.314c.004-.007.014-.013.017-.02a.48.48 0 01.138-.148c.02-.013.037-.027.06-.037.02-.01.034-.027.058-.034.04-.013.084-.013.124-.016.013 0 .024-.01.037-.01h7.449c.013 0 .023.01.037.01.04.003.084.003.124.016.024.007.037.024.06.037.02.01.04.02.061.037.06.04.108.091.141.155.004.007.01.01.014.017l1.687 3.314c.003 0 .003.007.003.01z" fill="#313235" fill-rule="nonzero"/></svg>