<svg width="24" height="24" viewBox="0 0 24 24" xmlns="http://www.w3.org/2000/svg"><path d="M16.497.188c.218 0 .423.084.581.235l6.491 6.282a.824.824 0 01.202.387c.027.06.04.127.04.195v15.075c0 .783-.676 1.446-1.476 1.446H7.411c-.787 0-1.479-.676-1.479-1.446l.044-3.643h-3.07c-1.498 0-2.719-1.22-2.719-2.723V10.98a2.723 2.723 0 012.72-2.723h3.025V1.633c0-.756.703-1.446 1.479-1.446h9.086zm-.83.998h-8.26c-.218 0-.487.249-.487.454v6.625h8.047c1.5 0 2.72 1.22 2.72 2.723v5.015a2.723 2.723 0 01-2.72 2.722h-8l-.043 3.65c0 .216.248.448.487.448h14.924v-.004c.25 0 .484-.221.484-.453V8.11H19.74c-1.176 0-2.191-.38-2.93-1.099-.747-.723-1.144-1.714-1.144-2.86V1.186zM14.97 9.25H2.907c-.951 0-1.728.776-1.728 1.73v5.016a1.73 1.73 0 001.728 1.731H14.97c.951 0 1.727-.776 1.727-1.731V10.98a1.73 1.73 0 00-1.727-1.731zm-6.293 2.06c.844 0 1.405.131 1.775.501.356.35.541.904.541 1.704 0 .807-.175 1.365-.541 1.741-.333.34-.844.501-1.637.501h-1.51V11.31h1.372zm-3.872 0c.696 0 1.136.098 1.422.363.242.222.356.565.356 1.039s-.11.833-.333 1.079c-.258.292-.662.43-1.247.43h-.716v1.533H3.28V11.31h1.526zm9.892 0l-.077.733h-1.839v1.079h1.456v.76h-1.456v1.872h-1.015V11.31h2.931zm-6.067.743H8.32v2.965h.43c.454 0 .78-.138.954-.397.175-.259.236-.558.236-1.106 0-.638-.098-.938-.313-1.17-.202-.215-.5-.292-.995-.292zm-3.865-.007h-.474v1.419h.5v-.004c.327 0 .461-.047.592-.168.118-.117.175-.305.175-.564 0-.239-.05-.417-.168-.528-.125-.111-.313-.155-.625-.155zM16.658 1.398v2.746c0 .874.29 1.617.84 2.148.555.534 1.328.82 2.242.82h2.818l-5.9-5.714z" fill="#313235" fill-rule="nonzero"/></svg>