<svg width="24" height="24" viewBox="0 0 24 24" xmlns="http://www.w3.org/2000/svg"><path d="M16.497.188c.218 0 .423.084.581.235l6.491 6.282a.82.82 0 01.202.39c.023.06.04.128.04.195v15.076c0 .783-.676 1.445-1.476 1.445H7.411c-.787 0-1.479-.676-1.479-1.445l.044-3.644h-3.07c-1.498 0-2.719-1.22-2.719-2.723v-5.015a2.723 2.723 0 012.72-2.723h3.025V1.633c0-.756.703-1.446 1.479-1.446h9.086zm-.83.994h-8.26c-.221 0-.487.246-.487.454v6.625h8.047c1.5 0 2.72 1.22 2.72 2.723V16a2.723 2.723 0 01-2.72 2.723h-8l-.043 3.65c0 .219.245.447.487.447h14.924c.25 0 .484-.221.484-.453V8.11H19.74c-1.176 0-2.191-.38-2.93-1.099-.747-.72-1.144-1.71-1.144-2.86V1.182zM14.97 9.25H2.907c-.951 0-1.728.776-1.728 1.73v5.016a1.73 1.73 0 001.728 1.731H14.97c.951 0 1.727-.776 1.727-1.731V10.98a1.73 1.73 0 00-1.727-1.731zm-6.357 1.936l1.647 4.565H9.145l-.38-1.147H7.284l-.353 1.147h-.995l1.533-4.565h1.146zm3.234 0v4.565h-1.042v-4.565h1.042zm-3.832 1.14h-.013l-.474 1.522h.988l-.5-1.523zm8.642-10.928v2.75c0 .873.29 1.616.84 2.147.555.535 1.332.82 2.242.82h2.82l-5.902-5.717z" fill="#313235" fill-rule="nonzero"/></svg>