<svg width="64" height="64" viewBox="0 0 64 64" xmlns="http://www.w3.org/2000/svg"><path d="M41.408 50.15c-2.017 2.052-4.572 3.128-7.324 3.522V34.087c2 .277 3.864.654 5.504 1.425 2.555 1.183 4.213 3.298 4.697 5.943.556 3.065-.52 6.31-2.877 8.694M22.414 25.966c-1.99-2.08-2.178-4.51-1.99-6.176.34-3.066 2.259-6.158 4.885-7.888a12.167 12.167 0 014.5-1.775v19.056c-2.869-.466-5.486-1.219-7.395-3.217m18.985 5.656c-2.33-1.085-4.84-1.524-7.315-1.856V10.001c3.442.368 6.768 1.775 9.152 3.73a2.12 2.12 0 003.003-.314 2.148 2.148 0 00-.305-3.021C42.815 7.84 38.53 6.057 34.094 5.69V2.642C34.093 1.46 33.133.5 31.95.5c-1.183 0-2.133.96-2.133 2.151v3.173a16.52 16.52 0 00-6.848 2.501c-3.702 2.43-6.31 6.651-6.795 10.99-.421 3.657.708 7.08 3.155 9.644 2.958 3.084 6.804 4.034 10.479 4.572v20.266a24.195 24.195 0 01-11.25-4.212 2.141 2.141 0 00-2.975.528v.01a2.16 2.16 0 00.528 2.993A28.377 28.377 0 0029.81 58.1v3.083a2.137 2.137 0 002.044 2.232 2.137 2.137 0 002.231-2.043v-3.335c3.828-.448 7.458-1.918 10.362-4.867 3.326-3.38 4.84-8.05 4.043-12.468-.717-4.07-3.245-7.297-7.09-9.08" fill="#313235" fill-rule="nonzero"/></svg>