<svg width="24" height="24" viewBox="0 0 24 24" xmlns="http://www.w3.org/2000/svg"><path d="M15.528 18.806c-.756.77-1.714 1.173-2.746 1.321v-7.345c.75.105 1.448.246 2.064.535.958.444 1.58 1.237 1.76 2.228.21 1.15-.194 2.367-1.078 3.261M8.405 9.737c-.746-.78-.817-1.69-.746-2.316.128-1.15.847-2.31 1.832-2.958a4.563 4.563 0 011.687-.665v7.146c-1.075-.175-2.057-.457-2.773-1.207m7.12 2.121c-.874-.407-1.816-.571-2.743-.696V3.751c1.29.137 2.537.665 3.432 1.398a.795.795 0 001.126-.118.805.805 0 00-.115-1.133c-1.17-.958-2.776-1.626-4.44-1.764V.99a.801.801 0 10-1.603.003v1.19a6.195 6.195 0 00-2.568.938c-1.389.91-2.367 2.494-2.548 4.121-.158 1.371.265 2.655 1.183 3.617 1.11 1.156 2.551 1.512 3.93 1.714v7.6a9.073 9.073 0 01-4.22-1.58.803.803 0 00-1.115.199v.003a.81.81 0 00.198 1.123 10.641 10.641 0 005.136 1.869v1.156a.801.801 0 101.604.07v-1.25c1.435-.168 2.796-.72 3.885-1.825 1.247-1.267 1.816-3.019 1.516-4.676-.269-1.526-1.216-2.736-2.658-3.405" fill="#313235" fill-rule="nonzero"/></svg>