<svg width="24" height="24" viewBox="0 0 24 24" xmlns="http://www.w3.org/2000/svg"><path d="M17.176 22.17a1.011 1.011 0 00-.794-.393c-.35 0-.645.185-.83.45h-7.22a1.016 1.016 0 00-.83-.45c-.32 0-.595.155-.78.38-2.269-.366-4.642-2.195-4.642-4.406v-3.167h19.845l.004 3.167c-.007 2.245-2.454 4.094-4.753 4.42M1.855 12.258H22.14c.374 0 .676.303.676.669a.677.677 0 01-.676.672H1.855a.675.675 0 01-.676-.672c0-.37.306-.669.676-.669M14.04 10.93c.215-.185.632-.178.76-.158a.504.504 0 00.38-.097.495.495 0 00.19-.34c.028-.289.122-.487.283-.601.276-.199.736-.145.887-.108.172.04.35-.007.474-.13.316-.317.629-.458.925-.431.494.04.94.517 1.072.696a.49.49 0 00.457.205c.615-.06 1.086.043 1.395.316.363.326.434.816.45.991h-7.428c.027-.222.118-.312.155-.343m-3.782-5.677l-2.447.037v-.037A1.22 1.22 0 019.035 4.04a1.22 1.22 0 011.223 1.213m13.553 7.674c0-.857-.662-1.556-1.506-1.637-.01-.242-.094-1.12-.77-1.731-.474-.427-1.112-.632-1.902-.595-.28-.306-.857-.82-1.61-.884-.538-.054-1.049.134-1.526.541-.343-.037-.931-.037-1.419.306a1.62 1.62 0 00-.612.857c-.319.02-.736.111-1.075.397-.215.185-.46.53-.501 1.092H3.576V3.636c0-1.354 1.112-2.46 2.48-2.46 1.18 0 2.182.84 2.42 1.956A2.196 2.196 0 006.82 5.25v.238c0 .43.357.784.79.784h2.85c.438 0 .79-.353.79-.784V5.25a2.204 2.204 0 00-1.777-2.155A3.474 3.474 0 006.056.187C4.14.188 2.584 1.73 2.584 3.63v7.636h-.73A1.66 1.66 0 00.188 12.92c0 .642.37 1.19.908 1.466-.003.02-.013.04-.013.06v3.294c0 2.74 2.75 4.928 5.455 5.375a1.017 1.017 0 001.896.088h7.015c.161.353.518.605.934.605.444 0 .817-.286.962-.676 2.743-.403 5.573-2.612 5.573-5.395l-.003-3.361c.527-.262.897-.81.897-1.449" fill="#313235" fill-rule="nonzero"/></svg>