<svg width="24" height="24" viewBox="0 0 24 24" xmlns="http://www.w3.org/2000/svg"><path d="M19.89 22.369V1.633c0-.212-.263-.46-.488-.46H4.605c-.221 0-.487.248-.487.457v20.736c0 .225.245.46.487.46h4.861v-5.623c0-.273.218-.491.487-.491h4.105a.49.49 0 01.487.49v5.624h4.86c.24 0 .485-.232.485-.457zm-9.453.424h3.133v-5.1h-3.13v5.1h-.003zM19.402.188c.763 0 1.462.689 1.462 1.445v20.736c0 .766-.682 1.442-1.459 1.442H4.61c-.777 0-1.459-.676-1.459-1.442V1.629C3.147.878 3.842.188 4.605.188h14.797zM7.842 6.446h2.132V4.292H7.839v2.154h.003zm2.619-3.14a.49.49 0 01.487.492v3.14c0 .271-.218.49-.487.49H7.35a.49.49 0 01-.487-.49v-3.14c0-.273.219-.491.488-.491h3.109zm3.523 3.14h2.134V4.292h-2.134v2.154zm2.618-3.14a.49.49 0 01.488.492v3.14c0 .271-.216.49-.488.49h-3.106a.49.49 0 01-.487-.49v-3.14c0-.273.215-.491.487-.491h3.106zm-8.76 9.305h2.135v-2.155H7.842v2.155zm2.619-3.14c.269 0 .487.219.487.491v3.14c0 .272-.218.49-.487.49H7.35a.49.49 0 01-.487-.49v-3.14c0-.272.219-.49.488-.49h3.109zm3.523 3.14h2.134v-2.155h-2.134v2.155zm2.618-3.14c.269 0 .488.219.488.491v3.14c0 .272-.216.49-.488.49h-3.106a.488.488 0 01-.487-.49V9.959c0-.272.215-.49.487-.49l3.106.003z" fill="#313235" fill-rule="nonzero"/></svg>