<svg width="24" height="24" viewBox="0 0 24 24" xmlns="http://www.w3.org/2000/svg"><path d="M21.688 22.426c.37 0 .665.31.665.696 0 .383-.3.696-.666.696H2.354c-.37 0-.666-.31-.666-.696 0-.383.3-.696.666-.696h19.334zM3.498 20.91c-.464 0-.904-.198-1.227-.541a1.934 1.934 0 01-.413-1.862l1.829-5.805c.107-.313.289-.592.534-.807C9.251 7.145 14.652 1.98 15.025 1.59A4.015 4.015 0 0117.946.188c1.167.01 2.276.51 3.08 1.388a4.956 4.956 0 011.334 3.277 4.623 4.623 0 01-1.335 3.193c-.665.75-10.83 10.373-10.934 10.47a1.456 1.456 0 01-.602.36l-5.442 1.93a1.303 1.303 0 01-.548.104zm-.373-1.983a.465.465 0 00.108.47.38.38 0 00.386.112l5.442-1.863a.377.377 0 00.135-.084c1.68-1.596 10.309-9.805 10.88-10.417a3.267 3.267 0 00.908-2.292 3.5 3.5 0 00-.894-2.32 2.932 2.932 0 00-2.121-.944 2.83 2.83 0 00-2.054.945c-.494.54-8 7.667-10.844 10.373a.422.422 0 00-.12.181l-1.826 5.839z" fill="#313235" fill-rule="nonzero"/></svg>