<svg width="24" height="24" viewBox="0 0 24 24" xmlns="http://www.w3.org/2000/svg"><path d="M23.81 3.48a3.415 3.415 0 00-.958-2.333A3.408 3.408 0 0020.671.19a3.247 3.247 0 00-2.417.958l-.652.595H5.192C2.109 1.715.193 3.52.193 6.412v12.752a4.418 4.418 0 001.291 3.348 5.142 5.142 0 003.724 1.29h11.113a5.165 5.165 0 003.738-1.29 4.421 4.421 0 001.294-3.348V7.134l1.486-1.388a3.215 3.215 0 00.971-2.266zm-3.862 15.68a3.141 3.141 0 01-.86 2.347 3.888 3.888 0 01-2.78.9H5.192a3.872 3.872 0 01-2.78-.9 3.147 3.147 0 01-.834-2.346V6.41c0-2.054 1.29-3.307 3.627-3.307h10.864l-5.415 4.78c-.185.17-.33.386-.417.625L8.96 12.327a1.388 1.388 0 00.346 1.472c.265.28.632.434 1.015.43.151.02.306.02.457 0l3.835-1.263c.185-.064.353-.162.501-.293 0 0 2.652-2.332 4.82-4.275l.014 10.763zm-9.724-6.39l1.294-3.845c2.07-1.791 7.348-6.43 7.724-6.79a1.785 1.785 0 011.29-.554h.085c1.008.05 1.798.88 1.805 1.889a1.818 1.818 0 01-.555 1.29c-.417.39-6.696 5.947-7.684 6.82l-3.835 1.265c0-.004-.124-.074-.124-.074z" fill="#313235" fill-rule="nonzero"/></svg>