<svg width="24" height="24" viewBox="0 0 24 24" xmlns="http://www.w3.org/2000/svg"><path d="M18.628 14.386c-1.247 1.92-2.239 3.153-3.926 4.884l-.01.007-.03.037c-.323.329-.794.773-1.14 1.021-.326.232-.69.394-1.069.474a1.4 1.4 0 01-.272.037h-.027l-.111.004-.077-.004h-.017a1.796 1.796 0 01-.296-.043 2.809 2.809 0 01-1.045-.474c-.454-.323-1.032-.905-1.143-1.022-1.714-1.755-2.716-2.998-3.97-4.928a28.871 28.871 0 01-.948-1.58h.972a.498.498 0 00.477-.35l1.852-5.925L9.962 17.01a.5.5 0 00.491.4.504.504 0 00.48-.353l1.278-4.155h1.442a.501.501 0 00.48-.356l.989-3.338 1.19 3.362a.5.5 0 00.47.332h2.737c-.286.495-.572.989-.891 1.483M2.318 7.337c-.53-2.215-.134-4.023 1.123-5.092.736-.626 1.752-1.002 2.864-1.06.101-.003.202-.006.303-.006 1.116 0 2.279.316 3.358.908.45.248.91.51 1.435.82a1.359 1.359 0 001.338-.007c.47-.279.94-.548 1.418-.81 1.08-.592 2.239-.908 3.358-.908.101 0 .202.004.303.007 1.109.057 2.127.434 2.86 1.059 1.254 1.066 1.654 2.874 1.123 5.092-.36 1.49-.961 3.026-1.758 4.579h-2.908L15.55 7.435a.479.479 0 00-.484-.333.5.5 0 00-.467.356l-1.321 4.46h-1.44a.504.504 0 00-.48.354l-.806 2.621L8.44 4.423a.498.498 0 00-.468-.397c-.215-.037-.433.131-.5.35l-2.323 7.442H4.026c-.77-1.523-1.354-3.022-1.707-4.48m20.995 4.577h-2.158c.719-1.472 1.274-2.927 1.616-4.346.622-2.595.111-4.753-1.442-6.074C20.43.73 19.2.268 17.868.201a6.304 6.304 0 00-.356-.01c-1.29 0-2.612.353-3.842 1.032-.488.269-.968.544-1.446.827a.364.364 0 01-.333 0c-.473-.29-.957-.565-1.441-.83C9.216.543 7.895.187 6.604.187c-.117 0-.235.003-.353.01C4.924.265 3.693.722 2.79 1.492 1.236 2.812.722 4.97 1.344 7.566c.336 1.388.87 2.81 1.563 4.245H.688a.501.501 0 00-.5.498.5.5 0 00.5.497h2.716a29.12 29.12 0 001.244 2.118c1.29 1.99 2.326 3.274 4.09 5.079.172.174.77.773 1.278 1.136.437.312.931.53 1.422.635.141.034.292.054.447.064h.01l.01.003.131.004h.04c.051 0 .095 0 .135-.004l.01-.003h.01c.155-.01.306-.03.447-.064.494-.1.985-.323 1.422-.635.508-.363 1.106-.962 1.277-1.136l.04-.044c1.742-1.785 2.767-3.062 4.051-5.035.437-.676.83-1.348 1.193-2.017h2.653a.5.5 0 00.5-.498.494.494 0 00-.5-.494" fill="#313235" fill-rule="nonzero"/></svg>