<svg width="24" height="24" viewBox="0 0 24 24" xmlns="http://www.w3.org/2000/svg"><path d="M20.286 20.056V6.201H3.664v13.875c0 .05-.067 1.227.676 2.004.464.49 1.16.746 2.064.746h11.109c.04 0 1.247.04 2.044-.736.484-.46.729-1.15.729-2.034zM7.439 2.756v2.463h9.076V2.762c0-.04.04-.787-.384-1.237-.225-.245-.55-.353-.991-.353H8.783c-.05 0-.56-.04-.924.296-.286.255-.423.686-.42 1.287zM23.29 5.218a.492.492 0 010 .982h-2.024v13.855c0 1.17-.352 2.094-1.042 2.75-.971.944-2.319 1.001-2.652 1.001H6.407c-1.2 0-2.131-.353-2.79-1.062-1.032-1.099-.934-2.642-.934-2.702V6.2H.649a.492.492 0 010-.982h5.805V2.755c0-.894.245-1.573.746-2.023C7.9.113 8.794.19 8.83.19h6.306c.726 0 1.298.225 1.711.669.716.766.649 1.895.649 1.942V5.22h5.795zM9.456 18.786a.49.49 0 01-.491-.491v-7.55a.492.492 0 01.981 0v7.55a.49.49 0 01-.49.49zm5.032 0a.49.49 0 01-.491-.491v-7.55a.492.492 0 01.981 0v7.55a.49.49 0 01-.49.49z" fill="#313235" fill-rule="nonzero"/></svg>