<svg width="24" height="24" viewBox="0 0 24 24" xmlns="http://www.w3.org/2000/svg"><path d="M15.83 0c.962 0 1.738.77 1.738 1.714v4.74h1.008c.656 0 1.187.528 1.194 1.17v.084c0 3.344-1.473 5.095-2.804 6v1.536c0 .763-.242 1.385-.702 1.795-.437.4-1.052.601-1.829.601h-.053v5.073a.917.917 0 01-.925.91h-2.144a.919.919 0 01-.925-.91V17.64h-.023c-.783 0-1.402-.201-1.842-.601-.468-.404-.72-1.026-.72-1.792v-1.526C6.473 12.821 5 11.059 5 7.674c0-.7.534-1.224 1.19-1.224h.823V1.714C7.013.766 7.79 0 8.748 0c.961 0 1.738.77 1.738 1.714V6.45l3.61.004v-4.74c0-.948.78-1.714 1.734-1.714zm-2.464 17.64h-1.97v4.985h1.97V17.64zM6.193 7.45c-.1 0-.178.08-.178.175 0 2.564.864 4.366 2.561 5.405a.49.49 0 01.24.423v1.798c0 .474.127.827.382 1.05.26.231.646.345 1.163.345h4.068c.514 0 .9-.114 1.146-.34.249-.224.373-.577.373-1.058v-1.805c0-.175.09-.333.239-.424 1.7-1.045 2.564-2.833 2.564-5.307 0 0 0-.084.007-.08a.176.176 0 00-.178-.176zM15.83.999a.722.722 0 00-.722.715l.003 4.74h1.445v-4.74a.723.723 0 00-.726-.716zm-7.082 0a.722.722 0 00-.723.715V6.45h1.449V1.714a.723.723 0 00-.726-.716z" fill="#313235" fill-rule="nonzero"/></svg>