<svg width="24" height="24" viewBox="0 0 24 24" xmlns="http://www.w3.org/2000/svg"><path d="M22.812 19.566v-17.1c0-.709-.578-1.284-1.29-1.284h-2.686a.208.208 0 00-.209.189 2.085 2.085 0 01-2.057 1.771 2.088 2.088 0 01-2.057-1.771.214.214 0 00-.208-.192h-2.686c-.71 0-1.288.578-1.288 1.284v17.1c0 .709.579 1.283 1.288 1.283h2.706a.216.216 0 00.208-.178 2.08 2.08 0 014.074 0c.02.101.111.178.212.178h2.706a1.278 1.278 0 001.287-1.28zm-12.51 3.112l1.488-.833h-.171a2.282 2.282 0 01-2.252-1.947c-.047.014-.091.037-.141.037a.501.501 0 01-.434-.252l-5.24-9.294a.495.495 0 01.184-.675s.004 0 .004-.004l5.59-3.133v-3.33L7.347 4.358c-.061.034-.088.107-.058.168a1.908 1.908 0 01-.843 2.34 1.922 1.922 0 01-2.444-.498.137.137 0 00-.178-.04L1.74 7.495c-.252.141-.44.377-.514.659-.081.279-.044.575.097.827l7.486 13.277a1.1 1.1 0 00.659.514c.282.081.578.047.833-.094zM4.663 10.332l4.67 8.276V7.717l-4.67 2.615zM21.524.187a2.285 2.285 0 012.286 2.28v17.099a2.28 2.28 0 01-2.285 2.275h-2.706a1.21 1.21 0 01-1.187-.978 1.08 1.08 0 00-2.117 0 1.21 1.21 0 01-1.187.978h-.985a1.092 1.092 0 01-.447.521l-2.104 1.18a2.078 2.078 0 01-1.587.192 2.077 2.077 0 01-1.257-.985L.456 9.472a2.083 2.083 0 01.796-2.837L3.34 5.468a1.136 1.136 0 011.455.3.907.907 0 101.567-.878 1.12 1.12 0 01.5-1.395L8.947 2.33c.13-.074.275-.118.42-.162a2.282 2.282 0 012.255-1.98h2.683c.605 0 1.109.437 1.196 1.043.077.524.538.92 1.07.92a1.09 1.09 0 001.071-.92A1.203 1.203 0 0118.84.188h2.686zM12.857 16.53h7.573V5.556h-7.573V16.53zm8.07-11.966c.276 0 .498.222.498.497v11.967a.499.499 0 01-.498.497h-8.571a.496.496 0 01-.498-.497V5.058c0-.272.222-.497.498-.497h8.571v.003z" fill="#313235" fill-rule="nonzero"/></svg>