<svg width="24" height="24" viewBox="0 0 24 24" xmlns="http://www.w3.org/2000/svg"><path d="M17.378 4c.605 0 1.24.32 1.583.797.234.324.968 1.306 1.742 2.338l.359.477a484.31 484.31 0 001.825 2.418c.273.353.726.945.726 1.516v3.933c0 .847-.8 1.647-1.647 1.647l-1.023.002c-.21 1.273-1.096 1.964-2.546 1.964-1.451 0-2.337-.692-2.547-1.966h-.018l-6.688.002c-.21 1.273-1.095 1.964-2.546 1.964-1.45 0-2.335-.69-2.546-1.964l-.439-.002c-.847 0-1.647-.8-1.647-1.647v-1.631H.336A.337.337 0 010 13.514c0-.185.151-.337.336-.337h1.63v-2.605H.336A.337.337 0 010 10.235C0 10.05.151 9.9.336 9.9h1.63V7.294H.336A.337.337 0 010 6.958c0-.185.151-.336.336-.336l1.63-.001v-.974C1.966 4.8 2.766 4 3.613 4h13.765zM6.598 14.575c-.635 0-1.119.154-1.432.457-.326.313-.49.807-.49 1.465 0 .66.164 1.153.49 1.466.316.303.797.457 1.432.457.636 0 1.12-.154 1.432-.457.326-.313.491-.807.491-1.466 0-.658-.165-1.152-.49-1.465-.313-.306-.797-.457-1.433-.457zm11.799 0c-.636 0-1.12.154-1.432.457-.326.313-.491.807-.491 1.465 0 .66.165 1.153.49 1.466.317.303.797.457 1.433.457.635 0 1.119-.154 1.432-.457.326-.313.49-.807.49-1.466 0-.658-.164-1.152-.49-1.465-.313-.306-.797-.457-1.432-.457zm-1.019-9.903H3.613c-.474 0-.974.501-.974.975v9.832c0 .474.5.975.974.975l.391-.001.003-.145c.068-1.554.982-2.405 2.591-2.405 1.66 0 2.579.904 2.595 2.55h6.609l.004-.145c.068-1.554.981-2.405 2.59-2.405 1.66 0 2.58.904 2.595 2.55h.975c.474 0 .975-.5.975-.974v-3.933c0-.343-.38-.84-.585-1.106-.393-.514-3.418-4.527-3.94-5.253-.214-.3-.651-.515-1.038-.515z" fill="#313235" fill-rule="nonzero"/></svg>