<svg width="24" height="24" viewBox="0 0 24 24" xmlns="http://www.w3.org/2000/svg"><path d="M17.566.188c.605 0 1.24.319 1.583.796.233.324.967 1.307 1.742 2.338l.358.478a484.31 484.31 0 001.826 2.418c.272.353.726.944.726 1.516v3.932c0 .848-.8 1.648-1.647 1.648l-1.024.001c-.21 1.274-1.096 1.965-2.546 1.965-1.45 0-2.336-.692-2.546-1.967h-.019l-6.687.002c-.21 1.274-1.096 1.965-2.546 1.965-1.45 0-2.336-.691-2.546-1.965l-.44-.001c-.846 0-1.646-.8-1.646-1.648v-1.63H.524A.337.337 0 01.187 9.7c0-.185.152-.336.337-.336h1.63V6.758H.524a.337.337 0 01-.337-.335c0-.185.152-.336.337-.336h1.63V3.482H.524a.337.337 0 01-.337-.337c0-.184.152-.336.337-.336h1.63v-.974c0-.847.8-1.647 1.647-1.647h13.765zM6.786 10.761c-.635 0-1.12.155-1.432.457-.326.313-.49.807-.49 1.466 0 .659.164 1.153.49 1.466.316.302.797.457 1.432.457.635 0 1.12-.155 1.432-.457.326-.313.49-.807.49-1.466 0-.659-.164-1.153-.49-1.466-.313-.305-.797-.457-1.432-.457zm11.798 0c-.635 0-1.12.155-1.432.457-.326.313-.49.807-.49 1.466 0 .659.164 1.153.49 1.466.316.302.797.457 1.432.457.635 0 1.12-.155 1.432-.457.326-.313.49-.807.49-1.466 0-.659-.164-1.153-.49-1.466-.313-.305-.797-.457-1.432-.457zM17.566.86H3.8c-.474 0-.975.5-.975.975v9.831c0 .474.501.975.975.975h.39l.004-.146c.068-1.553.981-2.405 2.59-2.405 1.66 0 2.58.905 2.596 2.55h6.608l.004-.145c.068-1.553.982-2.405 2.591-2.405 1.66 0 2.579.905 2.595 2.55l.975.001c.474 0 .975-.5.975-.975V7.734c0-.343-.38-.84-.585-1.106-.393-.514-3.419-4.528-3.94-5.254-.215-.3-.652-.514-1.038-.514z" fill="#313235" fill-rule="nonzero"/></svg>