<svg width="24" height="24" viewBox="0 0 24 24" xmlns="http://www.w3.org/2000/svg"><path d="M22.81 22.287l.01-14.189-3.45-.02c-1.119-.01-2.01-.343-2.675-1.015-1.13-1.153-1.11-2.85-1.11-2.928l-.04-2.958-8.1.01a.64.64 0 00-.642.632v4.182l.763-1.49a.938.938 0 011.257-.43c.003.004.007.004.013.007a.878.878 0 01.434.434l7.153 14.302a.914.914 0 01.06.7.923.923 0 01-.9.668h-.034l-8.736-.03v1.973c-.01.236.04.404.148.515.13.147.336.178.484.178l14.847-.02a.519.519 0 00.517-.521zm-21.624-3.09h5.627l8.756.01-7.18-14.255-1.586 3.136-.992 1.953-4.625 9.156zM16.61 1.413a.378.378 0 00-.067-.06l.04 2.779c0 .087.01 1.408.834 2.239.467.474 1.13.719 1.96.719l3.139.02c-.003 0-5.906-5.697-5.906-5.697zm6.9 5.284c.19.188.3.447.3.709l-.01 14.877a1.51 1.51 0 01-1.506 1.51l-14.857.02c-.484 0-.911-.179-1.197-.481-.296-.316-.437-.74-.417-1.224v-1.942l-4.675-.02c-.525.04-.951-.414-.962-.938 0-.158.04-.306.111-.454L5.814 7.937V1.816c0-.887.733-1.617 1.624-1.617l8.598-.01c.484-.02.901.158 1.267.521l6.209 5.987zM8.44 15.366a.5.5 0 01-.495-.495V9.507a.495.495 0 01.989 0v5.364a.5.5 0 01-.494.495zm.006 2.164a.774.774 0 01-.773-.766.773.773 0 011.546 0 .768.768 0 01-.773.766z" fill="#313235" fill-rule="nonzero"/></svg>