<svg width="24" height="24" viewBox="0 0 24 24" xmlns="http://www.w3.org/2000/svg"><path d="M20.81 15.045c.47-2.753.528-8.84.531-10.7-2.175.189-3.466-.682-4.716-1.515-1.213-.814-2.47-1.654-4.639-1.654h-.006c-2.168 0-3.426.84-4.642 1.654-1.26.836-2.578 1.694-4.713 1.522.007 1.87.067 7.943.541 10.69.595 3.461 7.52 7.075 8.817 7.727 1.298-.649 8.229-4.266 8.827-7.724zM22.32 3.79c0 .33.02 8.08-.549 11.422-.74 4.299-9.217 8.38-9.576 8.551a.477.477 0 01-.417 0c-.363-.171-8.83-4.252-9.57-8.551C1.627 11.872 1.65 4.12 1.65 3.79a.492.492 0 01.605-.474c2.094.33 3.23-.43 4.548-1.311C8.073 1.152 9.516.188 11.98.188h.006c2.464.003 3.906.968 5.18 1.818 1.315.877 2.45 1.64 4.551 1.31a.546.546 0 01.41.108c.111.088.182.222.192.367zM16.446 8.3a.484.484 0 01.686-.003l.003.004a.493.493 0 010 .696l-6.639 6.699a.484.484 0 01-.685.003l-.004-.003-2.981-3.009a.493.493 0 010-.695.484.484 0 01.685-.004l.004.004 2.635 2.658 6.296-6.35z" fill="#313235" fill-rule="nonzero"/></svg>