<svg width="24" height="24" viewBox="0 0 24 24" xmlns="http://www.w3.org/2000/svg"><path d="M1.186 4.369c.007 1.879.064 7.93.541 10.669.595 3.452 7.49 7.059 8.797 7.71 1.307-.655 8.212-4.261 8.807-7.71.467-2.746.524-8.81.53-10.68-2.18.172-3.458-.685-4.705-1.515-1.21-.81-2.467-1.647-4.629-1.65h-.006c-2.165 0-3.419.837-4.632 1.65-1.26.84-2.562 1.704-4.703 1.526zm9.338 19.442a.527.527 0 01-.215-.047c-.357-.171-8.82-4.252-9.563-8.551C.164 11.875.188 4.127.188 3.798a.497.497 0 01.618-.488c2.088.333 3.22-.427 4.535-1.304C6.615 1.152 8.057.188 10.52.188h.01c2.463.003 3.906.968 5.176 1.818 1.311.877 2.44 1.634 4.541 1.308a.526.526 0 01.612.484c0 .329.02 8.077-.548 11.415-.74 4.302-9.213 8.38-9.573 8.551a.54.54 0 01-.215.047z" fill="#313235" fill-rule="nonzero"/></svg>