<svg width="24" height="24" viewBox="0 0 24 24" xmlns="http://www.w3.org/2000/svg"><path d="M10.03 1.307c-.175.151-.108.53-.071.689.128.548.383 1.133.756 1.728.313.497.551.8.982 1.253.07.074.138.138.185.175.05-.037.104-.09.164-.148l.004-.003.033-.034c.424-.447.66-.75.968-1.243.377-.595.632-1.18.763-1.728.037-.158.101-.538-.07-.69a.58.58 0 00-.343-.117h-.044c-.181 0-.373.054-.558.162-.117.063-.235.134-.366.211l-.232.141-.313.01c-.188 0-.37-.05-.53-.14-.149-.088-.266-.162-.38-.226a1.155 1.155 0 00-.559-.158c-.188.007-.316.054-.39.118zm-.142 2.961c-.433-.689-.736-1.375-.887-2.037-.168-.72-.03-1.317.39-1.684.242-.212.575-.34.931-.356.03-.004.06-.004.094-.004.346 0 .7.098 1.032.286.124.067.249.145.39.229.013.003.027.01.044.01.013 0 .03-.003.043-.01.135-.084.262-.158.387-.229a2.102 2.102 0 011.13-.282c.359.017.688.144.93.356.417.367.555.965.387 1.684-.155.659-.454 1.348-.89 2.037a7.862 7.862 0 01-1.09 1.395c-.003.003-.007.01-.013.014-.047.047-.209.215-.347.312a1.032 1.032 0 01-.38.178.657.657 0 01-.12.017h-.095c-.04-.003-.08-.007-.12-.017a1.021 1.021 0 01-.384-.178c-.134-.1-.296-.265-.343-.312-.463-.501-.74-.858-1.089-1.409zm-5.55 2.847c-.39.387-.587 1.002-.587 1.836 0 .83.198 1.448.584 1.828.377.37.965.555 1.752.555.786 0 1.381-.185 1.758-.558.393-.383.588-.999.588-1.829 0-.833-.198-1.449-.588-1.835-.377-.373-.968-.561-1.758-.561-.784.003-1.372.191-1.748.564zm1.749 5.227c-1.05 0-1.87-.279-2.434-.837-.588-.578-.887-1.435-.887-2.551s.299-1.977.887-2.558c.568-.558 1.385-.844 2.434-.844 1.052 0 1.872.286 2.44.844.588.581.89 1.442.89 2.558 0 1.116-.298 1.973-.89 2.551-.568.555-1.388.837-2.44.837zM16.15 7.115c-.39.387-.589 1.002-.589 1.836 0 .83.199 1.448.585 1.828.377.37.965.555 1.751.555.787 0 1.382-.185 1.758-.558.394-.383.589-.999.589-1.829 0-.833-.199-1.449-.589-1.835-.376-.373-.968-.561-1.758-.561-.783.003-1.371.191-1.747.564zm-.686 4.387c-.588-.578-.888-1.436-.888-2.551 0-1.116.3-1.977.888-2.558.568-.558 1.385-.844 2.433-.844 1.053 0 1.873.286 2.44.844.589.581.892 1.442.892 2.558 0 1.115-.3 1.973-.891 2.55-.568.559-1.388.838-2.44.838-1.05.003-1.87-.28-2.434-.837zm-2.531 1.314c.185-.181.279-.5.279-.944 0-.448-.094-.767-.28-.952-.18-.178-.49-.269-.914-.269-.42 0-.726.091-.907.27-.185.184-.28.503-.28.95 0 .444.095.764.28.945.181.178.487.269.91.269.421 0 .727-.09.912-.269zm-.915-3.17c.69 0 1.224.185 1.597.552.39.38.585.944.585 1.674 0 .729-.195 1.29-.585 1.67-.373.363-.907.548-1.597.548-.685 0-1.22-.185-1.593-.548-.383-.38-.578-.941-.578-1.67 0-.73.195-1.295.578-1.674.37-.367.908-.552 1.593-.552zM22.826 22.73v-4.857c0-.871-.235-1.604-.682-2.111-.491-.558-1.26-.858-2.215-.858h-4.054c-.635 0-1.173.145-1.614.394.394.127.74.33 1.002.628.41.464.625 1.113.625 1.87v4.934h6.938zm-7.926 0v-4.931c0-.33-.06-.794-.35-1.123-.322-.366-.83-.444-1.203-.444h-2.655c-.014 0-.03.004-.047.004-.367.006-.847.087-1.157.44-.289.33-.35.793-.35 1.123v4.958h5.755v-.027h.007zm-6.74-4.931c0-.757.216-1.405.622-1.87.256-.288.585-.493.969-.621-.444-.256-.992-.4-1.634-.4H4.063c-.958 0-1.72.296-2.212.854-.443.507-.675 1.24-.675 2.114v4.857h6.988v-4.934h-.003zm14.69-2.784c.628.713.961 1.701.961 2.858v5.519c0 .228-.171.413-.38.413H.564c-.208 0-.376-.185-.376-.413v-5.52c0-1.156.329-2.147.95-2.857.68-.776 1.692-1.19 2.922-1.19h4.054c1.233 0 2.245.41 2.924 1.187.037.044.064.094.097.138h1.718c.034-.044.06-.094.094-.135.68-.776 1.69-1.19 2.921-1.19h4.054c1.237.004 2.249.414 2.928 1.19z" fill="#313235" fill-rule="nonzero"/></svg>