<svg width="24" height="24" viewBox="0 0 24 24" xmlns="http://www.w3.org/2000/svg"><path d="M3.515 2.27a2.35 2.35 0 00-.32 1.815c.145.625.532 1.16 1.083 1.502.555.343 1.21.454 1.849.313A2.442 2.442 0 007.66 4.838c.35-.541.46-1.187.32-1.815A2.402 2.402 0 006.896 1.52a2.473 2.473 0 00-1.849-.312A2.442 2.442 0 003.515 2.27zM.712 4.038a.485.485 0 01-.49-.48c0-.266.218-.481.49-.481H2.2c.067-.461.229-.911.487-1.318A3.412 3.412 0 014.833.273 3.447 3.447 0 017.42.71a3.342 3.342 0 011.516 2.104c.02.088.02.175.034.263h14.295c.273 0 .491.215.491.48 0 .266-.218.48-.49.48H8.98c-.067.461-.225.908-.488 1.315a3.408 3.408 0 01-2.144 1.49c-.256.056-.511.083-.767.083-.642 0-1.27-.178-1.825-.52A3.342 3.342 0 012.241 4.3c-.02-.084-.02-.175-.033-.262H.712zm17.6 9.654c1.351 0 2.45-1.08 2.45-2.407 0-1.328-1.099-2.407-2.45-2.407-1.351 0-2.454 1.08-2.454 2.407 0 1.328 1.103 2.407 2.454 2.407zm4.924-2.888c.273 0 .491.215.491.48 0 .266-.218.482-.49.482h-1.544c-.238 1.626-1.657 2.887-3.381 2.887-1.725 0-3.143-1.26-3.382-2.887H.682a.485.485 0 01-.491-.481c0-.266.218-.48.49-.48h14.25c.238-1.628 1.656-2.888 3.38-2.888 1.725 0 3.144 1.26 3.382 2.887h1.543zM8.88 21.41c1.351 0 2.45-1.079 2.45-2.406 0-1.328-1.099-2.407-2.45-2.407-1.351 0-2.454 1.079-2.454 2.407.004 1.327 1.103 2.406 2.454 2.406zm14.353-2.887c.272 0 .49.215.49.48 0 .266-.218.481-.49.481H12.26c-.238 1.627-1.657 2.888-3.381 2.888-1.724 0-3.143-1.26-3.382-2.888H.678a.485.485 0 01-.49-.48c0-.266.218-.481.49-.481h4.82c.24-1.627 1.658-2.888 3.382-2.888 1.724 0 3.143 1.261 3.381 2.888h10.972z" fill="#313235" fill-rule="nonzero"/></svg>