<svg width="24" height="24" viewBox="0 0 24 24" xmlns="http://www.w3.org/2000/svg"><path d="M22.363 22.49h-4.182v-6.454l4.636.024v5.738c.003.38-.272.692-.454.692zm-11.66-.306a4.635 4.635 0 001.519-3.26c.04-1.06-.303-2.071-.931-2.921l5.899.027v6.457h-6.857c.12-.094.245-.189.37-.303zm-4.478.612a2.218 2.218 0 01-.591-.054c-.004 0-.481-.084-.908-.507a1.57 1.57 0 01-.07-2.145h.003c.114-.134.245-.252.383-.36a2.883 2.883 0 001.146-2.403c.256.141.508.316.74.518.944.83 1.785 2.9.89 4.124-.36.49-.92.787-1.532.827-.024-.003-.04 0-.06 0zm-4.067-1.977c-2.215-2.826-.245-7.408 2.084-9.32a9.653 9.653 0 012.81-1.607c-.252 1.3-.276 3.697 2.225 5.526.347.245.662.52.941.823a3.661 3.661 0 011.006 2.646 3.64 3.64 0 01-1.194 2.558 5.064 5.064 0 01-1.27.85c.988-1.714.037-4.131-1.18-5.203-.572-.501-1.257-.874-1.923-1.042a.504.504 0 00-.605.37.503.503 0 00.024.305c.003.014.517 1.308-.642 2.215a3.824 3.824 0 00-.525.491 2.569 2.569 0 00-.494 2.508c-.48-.3-.904-.68-1.257-1.12zM3.976 1.19h3.88v6.397l-4.333-.01V1.882c0-.38.302-.693.453-.693zm18.84.693v5.74l-4.635-.01v-6.42h4.179c.154-.003.457.313.457.69zM8.85 7.589v-6.4l8.337.004v6.416L8.85 7.59zm1.684 7.409a.48.48 0 00-.144.026 7.162 7.162 0 00-.535-.42c-2.927-2.138-1.68-5.119-1.626-5.243a.498.498 0 00-.074-.521.493.493 0 00-.498-.168c-1.398.332-2.833 1.062-4.047 2.053l-.09.084V8.581l8.947.02v6.407l-1.933-.01zm2.932.013v-6.41l9.35.023v6.434l-9.35-.047zM22.363.191L3.98.187c-.76 0-1.452.807-1.452 1.695v9.932c-2.125 2.531-3.412 6.743-1.15 9.624 1.1 1.402 2.834 2.239 4.625 2.35.047.003.094.016.142.016.016 0 .033-.003.053-.003.068 0 .131.01.199.01.467 0 .934-.05 1.395-.158.285-.05.564-.128.833-.225.067.04.145.06.222.06H22.36c.773 0 1.448-.79 1.448-1.694V1.882C23.812.994 23.12.19 22.363.19z" fill="#313235" fill-rule="nonzero"/></svg>