<svg width="64" height="64" viewBox="0 0 64 64" xmlns="http://www.w3.org/2000/svg"><path d="M21.895 63.622c-1.972 0-3.344-.44-4.303-1.363-.923-.896-1.389-2.187-1.416-3.962v-.018l.01-22.086c0-.305-.207-.556-.467-.556l-11.258.072c-1.676.054-3.173-.78-3.73-2.089-.528-1.228-.143-2.617 1.059-3.791L30.464 1.343C31.02.778 31.558.5 32.114.5h.008c.493 0 .95.224 1.363.654L62.06 29.847c1.21 1.156 1.658 2.734 1.138 4.015-.448 1.103-1.488 1.757-2.797 1.757h-.053l-12.092.018c-.26 0-.466.251-.466.556V58.27c.027 1.676-.448 2.994-1.408 3.935-.995.977-2.491 1.461-4.329 1.408h-19.9c-.08 0-.17.009-.26.009zm-3.828-5.352c.018 1.237.296 2.098.843 2.627.61.591 1.667.86 3.227.833h19.97c.915.027 2.17-.098 2.959-.87.573-.564.86-1.424.842-2.563V36.193c0-1.345 1.058-2.438 2.358-2.438l12.1-.018h.045c.52 0 .888-.206 1.05-.583.17-.43.098-1.192-.7-1.945-.009-.009-.018-.009-.018-.018L32.14 2.472l-.018-.018c-.009-.018-.027-.027-.036-.036a1.57 1.57 0 00-.277.242l-.01.01L3.126 31.172c-.367.359-.932 1.058-.654 1.703.25.583 1.066.978 1.945.942h.027l11.276-.072c1.3 0 2.357 1.093 2.357 2.438l-.009 22.086z" fill="#313235" fill-rule="nonzero"/></svg>