<svg width="64" height="64" viewBox="0 0 64 64" xmlns="http://www.w3.org/2000/svg"><path d="M59.933 32.778c-1.102 1.99-3.119 3.415-6.014 4.24-2.716.78-7.324.17-13.033-1.703.009-.036 0-.081.009-.117.071-.565.116-1.165.116-1.802 0-.726-.063-1.371-.152-1.99a11.058 11.058 0 00-.448-1.954c-.045-.116-.09-.224-.135-.331a9.831 9.831 0 00-.43-.924 5.676 5.676 0 00-.305-.52 3.78 3.78 0 00-.305-.412c-.107-.143-.206-.304-.313-.43 3.818-4.437 7.35-7.278 10.02-8.04 5.773-1.632 9.834.69 11.447 6.561.798 2.931.646 5.432-.457 7.422M51.76 45.56c3.36 5.073 2.482 9.752-2.474 13.167-4.94 3.434-9.52 2.528-12.89-2.518-1.65-2.474-2.564-7.44-2.546-13.75.126-.018.242-.045.368-.072.17-.036.331-.063.493-.099.376-.09.744-.188 1.084-.305.108-.035.215-.062.314-.107.421-.161.807-.35 1.156-.565.081-.045.144-.098.216-.143a7.301 7.301 0 001.012-.789c.224-.206.422-.43.61-.654.045-.054.099-.099.134-.162.216-.278.404-.573.574-.87.045-.07.072-.152.117-.223.071-.144.152-.278.215-.422 5.763 2.349 9.967 5.047 11.617 7.512M27.87 56.262c-1.677 2.528-3.649 4.025-5.854 4.455-2.205.404-4.571-.233-7.036-1.954-2.474-1.712-3.944-3.71-4.365-5.952-.422-2.24.224-4.66 1.9-7.188 1.613-2.43 5.755-5.11 11.455-7.422.081.17.17.34.27.51.035.055.062.117.098.171.17.296.367.574.592.852.053.062.107.116.16.179.19.215.395.421.62.627.071.072.152.135.232.198.27.215.556.42.87.61.045.026.072.053.116.08.368.215.78.394 1.228.555.081.027.17.054.26.081.368.117.771.224 1.192.305.144.027.278.054.422.072.134.018.26.053.403.071 0 6.302-.914 11.277-2.563 13.75m-17.775-19.19C4.323 35.431 2.029 31.28 3.633 25.4c.807-2.94 2.205-5.002 4.16-6.122 1.12-.646 2.41-.968 3.845-.968 1.066 0 2.214.179 3.433.528 2.626.753 6.22 3.658 9.976 8.023-.063.072-.108.161-.17.242-.126.152-.233.332-.35.502a8.426 8.426 0 00-.86 1.667 9.384 9.384 0 00-.359 1.29c-.045.216-.107.413-.143.628-.108.69-.18 1.408-.18 2.187 0 .628.045 1.228.117 1.802 0 .045 0 .108.009.152-5.665 1.91-10.272 2.52-13.015 1.74M32.039 3.188c5.987.027 9.277 3.406 9.25 9.51 0 2.86-1.802 7.18-5.091 12.227-.01 0-.018-.01-.027-.01-.547-.223-1.147-.376-1.775-.492a5.245 5.245 0 00-.367-.063 13.01 13.01 0 00-2.017-.17c-.735 0-1.417.071-2.062.179-.098.018-.188.036-.278.054a9.533 9.533 0 00-1.873.529c-3.245-4.993-5.083-9.43-5.065-12.298 0-6.105 3.308-9.466 9.305-9.466m.295 36.724c-.098.018-.215.009-.322.009h-.26c-3.182-.072-5.074-1.318-5.836-4.016-.188-.735-.277-1.577-.277-2.519 0-2.51.68-4.311 2.025-5.35.09-.064.189-.126.377-.225 1.004-.627 2.348-.941 3.97-.941 1.641 0 2.968.305 3.945.914.036.018.331.215.358.242 1.372 1.022 2.07 2.824 2.07 5.37 0 .95-.089 1.783-.277 2.473 0 .027-.009.054-.009.081 0 .009-.009.018-.009.027-.681 2.546-2.456 3.8-5.755 3.935M62.918 24.62c-2.008-7.305-7.475-10.46-14.682-8.417-2.07.592-4.222 2.017-6.257 3.756 1.139-2.5 1.936-5.047 1.936-7.27C43.942 5.09 39.505.527 32.048.5h-.01c-7.466 0-11.93 4.536-11.93 12.128-.009 2.268.789 4.858 1.936 7.395-2.026-1.74-4.177-3.173-6.256-3.774-3.523-1.013-6.732-.78-9.287.681-2.545 1.461-4.419 4.141-5.405 7.736C-.903 31.989 2.19 37.59 9.38 39.626c1.048.305 2.232.43 3.478.43.627 0 1.29-.08 1.936-.143-1.829 1.237-3.451 2.635-4.473 4.177-2.053 3.101-2.85 6.274-2.304 9.197.547 2.922 2.438 5.575 5.468 7.654 2.402 1.677 4.867 2.537 7.216 2.537.6 0 1.192-.054 1.774-.17 2.878-.556 5.486-2.483 7.548-5.576.986-1.478 1.64-3.424 2.097-5.503.457 2.061 1.112 3.989 2.089 5.45 2.537 3.8 5.8 5.745 9.34 5.745 2.312 0 4.75-.833 7.189-2.518 6.176-4.258 7.359-10.568 3.173-16.888v-.009c-1.022-1.533-2.636-2.922-4.455-4.159.565.045 1.147.126 1.694.126 1.246 0 2.42-.126 3.46-.43 3.532-1.005 6.158-2.905 7.592-5.504 1.461-2.546 1.694-5.818.717-9.421" fill="#313235" fill-rule="nonzero"/></svg>