<svg width="24" height="24" viewBox="0 0 24 24" xmlns="http://www.w3.org/2000/svg"><path d="M22.475 12.292c-.413.746-1.17 1.28-2.255 1.59-1.019.292-2.747.063-4.888-.639.003-.013 0-.03.003-.044a5.101 5.101 0 00-.182-2.155 4.752 4.752 0 00-.21-.47 2.128 2.128 0 00-.23-.35c-.04-.053-.077-.114-.117-.16 1.432-1.665 2.756-2.73 3.758-3.016 2.165-.612 3.687.259 4.292 2.46.3 1.1.242 2.037-.171 2.784m-3.066 4.793c1.26 1.902.932 3.657-.927 4.938-1.852 1.287-3.57.948-4.834-.945-.618-.927-.961-2.79-.955-5.156.048-.007.091-.017.138-.027.064-.013.125-.023.185-.037a4.46 4.46 0 00.407-.114c.04-.014.08-.024.118-.04.158-.061.302-.132.433-.212.03-.017.054-.037.08-.054a2.738 2.738 0 00.38-.296c.085-.077.159-.161.23-.245.016-.02.036-.037.05-.06.08-.105.15-.216.215-.327.017-.027.027-.057.043-.084.027-.054.058-.104.081-.158 2.161.88 3.738 1.893 4.356 2.817m-8.958 4.013c-.628.948-1.368 1.51-2.194 1.671-.827.151-1.715-.087-2.64-.733-.927-.642-1.478-1.391-1.636-2.232-.158-.84.084-1.748.712-2.695.606-.911 2.158-1.916 4.296-2.784.03.064.064.128.101.192.014.02.024.044.037.064.064.11.138.215.222.32l.06.066c.071.081.148.158.232.236.027.027.058.05.088.074.1.08.208.158.326.228.017.01.027.02.044.03a2.764 2.764 0 00.558.24c.137.043.289.083.447.113.053.01.104.02.158.027.05.007.097.02.15.027 0 2.363-.342 4.229-.96 5.156m-6.666-7.196C1.62 13.287.76 11.73 1.362 9.525c.303-1.102.827-1.875 1.56-2.295.42-.243.904-.364 1.442-.364.4 0 .83.068 1.287.199.985.282 2.333 1.371 3.742 3.008-.024.027-.04.06-.064.091-.047.057-.088.124-.131.188a3.16 3.16 0 00-.323.625c-.054.152-.1.316-.134.484-.017.081-.04.155-.054.236a5.26 5.26 0 00-.02 1.553c-2.125.716-3.853.944-4.881.652m8.228-12.706c2.246.01 3.48 1.277 3.47 3.566 0 1.073-.676 2.693-1.91 4.585l-.01-.003a3.394 3.394 0 00-.665-.185 4.879 4.879 0 00-.894-.087 4.662 4.662 0 00-.878.087c-.252.047-.49.11-.702.198-1.217-1.872-1.906-3.536-1.9-4.612 0-2.289 1.24-3.55 3.49-3.55m.11 13.772c-.037.007-.08.004-.12.004h-.098c-1.193-.027-1.903-.494-2.188-1.506a3.831 3.831 0 01-.105-.945c0-.94.256-1.617.76-2.006.034-.024.07-.048.141-.084.377-.236.881-.353 1.49-.353.615 0 1.112.114 1.478.342.014.007.125.081.135.091.514.383.776 1.059.776 2.014 0 .356-.033.669-.104.927l-.003.03c0 .004-.004.007-.004.01-.255.955-.92 1.426-2.158 1.476m11.47-5.734c-.754-2.74-2.804-3.923-5.507-3.156-.776.221-1.583.756-2.346 1.408.427-.938.726-1.892.726-2.726.01-2.85-1.654-4.561-4.45-4.572h-.004c-2.8 0-4.473 1.701-4.473 4.548-.004.85.295 1.822.726 2.774-.76-.653-1.567-1.19-2.347-1.416-1.32-.38-2.524-.292-3.482.256-.955.548-1.657 1.553-2.027 2.9-.75 2.747.41 4.848 3.106 5.61.393.115.837.162 1.304.162.236 0 .484-.03.726-.054-.685.464-1.294.989-1.677 1.567-.77 1.163-1.069 2.353-.864 3.448.205 1.096.914 2.091 2.05 2.871.901.629 1.826.951 2.706.951.226 0 .447-.02.666-.064 1.079-.208 2.057-.93 2.83-2.09.37-.555.615-1.284.787-2.064.171.773.417 1.496.783 2.044.951 1.425 2.175 2.154 3.502 2.154.868 0 1.782-.312 2.696-.944 2.316-1.597 2.76-3.963 1.19-6.333v-.004c-.383-.574-.988-1.095-1.67-1.56.211.018.43.048.635.048.467 0 .907-.047 1.297-.161 1.325-.377 2.31-1.09 2.847-2.064.548-.955.636-2.182.27-3.533" fill="#313235" fill-rule="nonzero"/></svg>