<svg width="24" height="24" viewBox="0 0 24 24" xmlns="http://www.w3.org/2000/svg"><path d="M21.29 15.226c1.019-.02 1.536-.568 1.536-1.63 0-1.066-.52-1.62-1.55-1.644l-.17-.003h-.045c-1.001.01-1.509.554-1.509 1.63 0 1.08.514 1.63 1.53 1.647h.208zm-15.822-.504v.944H6.88v-.957a8.575 8.575 0 01-1.412.013zM1.182 8.493c.138 3.5 1.792 5.271 4.921 5.271 3.127 0 4.78-1.771 4.921-5.27h-.958c-.15 2.658-1.58 4.174-3.963 4.174-2.386 0-3.808-1.512-3.963-4.175h-.958zm20.515 2.518c.763.114 2.114.595 2.114 2.588 0 2.417-2 2.605-2.497 2.615h-.242c-.525-.006-2.498-.198-2.498-2.632 0-2.053 1.388-2.497 2.138-2.588V8.937c0-2.346-1.768-2.642-2.528-2.659-.087-.003-.191 0-.279-.003-.75.007-2.487.279-2.487 2.645l.003.094v9.93c0 4.548-3.882 4.85-4.662 4.864-.077.003-.171.003-.262.003h-.155c-2.255-.034-4.665-1.338-4.665-4.894v-2.262h-.562c-.343 0-.632-.306-.632-.666v-1.408C1.703 13.966.188 11.687.188 7.999c0-.272.221-.49.49-.49h.464V3.408c-.003-.135-.027-1.496.73-2.276.332-.343.79-.534 1.27-.528.192-.376.605-.416.74-.416h.084c.174.003.853.073.853.894 0 .82-.679.887-.85.887h-.08c-.132-.003-.525-.04-.73-.387-.003 0-.007.004-.014.004a.743.743 0 00-.57.228c-.394.417-.458 1.301-.448 1.577v4.114h.49c.273 0 .492.222.492.49 0 1.682.517 3.682 2.994 3.682 2.474 0 2.995-2.004 2.995-3.681 0-.272.222-.49.491-.49h.558V3.407c.01-.316-.057-1.184-.454-1.594a.74.74 0 00-.571-.225l-.013-.003c-.202.343-.595.383-.727.383h-.08c-.168-.003-.85-.067-.85-.887 0-.824.678-.891.853-.895h.084c.135 0 .548.04.743.417.498.004.938.185 1.27.528.757.783.733 2.141.73 2.292v4.081h.393c.273 0 .491.222.491.49 0 3.628-1.462 5.89-4.151 6.545v1.446c0 .36-.29.665-.632.665H6.66v2.263c0 3.479 2.582 3.892 3.695 3.909.127.003.265 0 .383-.004.867-.016 3.697-.342 3.697-3.879l-.003-10.01c0-2.665 1.788-3.627 3.462-3.64.1.003.222 0 .316.003 1.684.04 3.486 1.019 3.486 3.644v2.074zm-.437 1.913c.13.003.635.053.635.665 0 .615-.508.662-.632.666h-.06c-.135-.004-.636-.05-.636-.67 0-.614.498-.661.629-.661h.064z" fill="#313235" fill-rule="nonzero"/></svg>