<svg width="24" height="24" viewBox="0 0 24 24" xmlns="http://www.w3.org/2000/svg"><path d="M23.32 22.83a.49.49 0 01.468.514.487.487 0 01-.468.467H8.231a.49.49 0 01-.49-.49.49.49 0 01.49-.491h15.09zM6.208 2.268c-.78.756-1.177 1.896-1.177 3.392s.397 2.635 1.177 3.385c.753.726 1.865 1.092 3.304 1.092 1.442 0 2.554-.366 3.31-1.092.787-.75 1.184-1.893 1.184-3.385 0-1.493-.397-2.639-1.183-3.392-.757-.73-1.87-1.099-3.311-1.099-1.439 0-2.551.37-3.304 1.1zm3.304 8.854c-1.701 0-3.042-.46-3.983-1.365-.982-.944-1.48-2.322-1.48-4.094 0-1.771.498-3.15 1.476-4.097C6.466.65 7.811.187 9.512.187c1.7 0 3.045.464 3.99 1.372.985.948 1.482 2.33 1.482 4.1 0 1.772-.497 3.15-1.486 4.095-.94.907-2.282 1.368-3.986 1.368zm-8.343 8.867c0 .04.034.074.074.074h6.581c-.053-.249-.08-.5-.08-.756v-5.113c0-.333.043-.628.117-.897H6.48c-1.708 0-3.096.507-4.017 1.469-.844.88-1.29 2.114-1.29 3.566l-.004 1.657zm9.15-7.361c-.575 0-.989.128-1.237.376a.988.988 0 00-.168.239v.054H8.89c-.108.232-.168.527-.168.897v5.113c0 .551.121.954.36 1.203.245.256.658.383 1.23.383l10.877-.006c.572 0 .985-.128 1.234-.384.238-.248.36-.655.36-1.206V14.19c0-.548-.122-.948-.36-1.19-.246-.252-.659-.377-1.234-.377.007-.003-10.87.004-10.87.004zm-2.111 8.34v.077H1.246a1.058 1.058 0 01-1.058-1.056v-1.654c0-1.71.54-3.18 1.56-4.245 1.112-1.16 2.745-1.771 4.725-1.771H8.38c.437-.447 1.09-.673 1.936-.673l10.878-.006c.847 0 1.499.225 1.936.672.423.43.635 1.065.635 1.876V19.3c0 .814-.215 1.449-.635 1.886-.437.454-1.09.686-1.94.686l-10.877.006c-.847 0-1.5-.232-1.94-.685-.057-.068-.107-.148-.164-.226z" fill="#313235" fill-rule="nonzero"/></svg>