<svg width="24" height="24" viewBox="0 0 24 24" xmlns="http://www.w3.org/2000/svg"><path d="M18.688 20.375a8.533 8.533 0 01-3.082 1.788c.121-.131.235-.265.343-.41 1.92-2.608.346-6.612-1.627-8.336-.887-.773-1.943-1.341-2.971-1.603a.493.493 0 10-.582.665c.01.024.921 2.306-1.13 3.903a5.473 5.473 0 00-.803.75 3.787 3.787 0 00-.343 4.55A8.452 8.452 0 015.54 19.34C1.855 14.674 5.099 7.14 8.954 4.005c1.55-1.264 3.348-2.235 5.143-2.793-.467 1.815-.921 5.96 3.348 9.049.575.406 1.102.86 1.566 1.354 1.16 1.227 1.765 2.81 1.704 4.454-.064 1.64-.783 3.17-2.027 4.306m-7.347 2.151c-.007 0-.864-.148-1.63-.894a2.802 2.802 0 01-.128-3.852c.198-.222.416-.43.662-.615 1.606-1.25 1.852-2.925 1.687-4.111a6.89 6.89 0 011.741 1.106c1.65 1.438 3.046 4.884 1.483 7.008-.629.85-1.62 1.368-2.673 1.446-.104-.004-.208.006-.312.003-.034 0-.067 0-.101-.003-.242-.014-.48-.058-.72-.088h-.01m8.387-11.586a11.721 11.721 0 00-1.707-1.48C13.088 5.889 15.203.907 15.293.695a.493.493 0 00-.07-.514.474.474 0 00-.49-.165C12.516.54 10.24 1.682 8.328 3.24c-6.326 5.146-6.336 13.2-3.563 16.712 1.623 2.054 4.138 3.342 6.786 3.617.222.034.44.054.663.054l.406.003c.736 0 1.48-.08 2.205-.245.098-.013 2.414-.35 4.525-2.276 1.442-1.317 2.275-3.092 2.346-4.995.074-1.912-.629-3.748-1.97-5.17" fill="#313235" fill-rule="nonzero"/></svg>