<svg width="24" height="24" viewBox="0 0 24 24" xmlns="http://www.w3.org/2000/svg"><path d="M13.244.62l.13.115 9.925 9.727c.491.484.642 1.163.39 1.778-.26.634-.88 1.06-1.607 1.114l-.157.006h-.895v8.733c0 .9-.761 1.643-1.728 1.715l-.154.006h-1.66c-.01 0-.017-.007-.027-.007l-.014.002-.013.001H6.506l-.013-.003-.009.002-.008.001H4.708c-.987 0-1.798-.698-1.876-1.58l-.007-.14v-8.73H2.07c-.793 0-1.482-.44-1.761-1.12a1.594 1.594 0 01.282-1.663l.108-.115L10.624.735c.701-.69 1.865-.728 2.62-.115zm-1.836.736l-.095.081-9.93 9.735c-.279.272-.225.558-.164.699.084.208.322.453.714.5l.136.007h1.254c.239 0 .44.173.483.402l.008.089v9.22c0 .376.343.685.785.73l.112.006h1.274V12.97c0-.24.173-.441.402-.483l.089-.008h11.012c.239 0 .44.173.482.402l.008.089v9.855h1.17c.456 0 .835-.283.89-.647l.008-.092v-9.22c0-.242.172-.442.402-.483l.088-.008h1.389c.477 0 .756-.276.853-.508a.597.597 0 00-.083-.61l-.081-.092-9.926-9.728c-.33-.323-.908-.35-1.28-.08zm5.585 19.005H6.967v2.461h10.026v-2.46zm0-3.442H6.967v2.46h10.026v-2.46zm0-3.458H6.967v2.474h10.026V13.46z" fill="#313235" fill-rule="nonzero"/></svg>