<svg width="64" height="64" viewBox="0 0 64 64" xmlns="http://www.w3.org/2000/svg"><path d="M14.187 11c1.59 0 2.898 1.284 2.99 2.886l.004.18v11.24c.066-.006.12-.028.178-.042l.091-.012h29.096c.06 0 .111.02.166.036l.085.018v-11.24c0-1.634 1.25-2.968 2.818-3.06l.176-.006h3.854c1.59 0 2.898 1.284 2.989 2.886l.005.18v1.918h3.863c1.6 0 2.898 1.275 2.989 2.885l.005.18v25.914c0 1.625-1.242 2.958-2.817 3.051l-.177.006H56.64v1.918c0 1.633-1.25 2.967-2.818 3.06l-.176.005h-3.854c-1.59 0-2.898-1.275-2.989-2.885l-.005-.18v-11.24c-.054.005-.108.027-.164.041l-.087.012H17.45c-.066 0-.12-.02-.177-.036l-.092-.018v11.24c0 1.634-1.25 2.968-2.818 3.061l-.176.005h-3.854c-1.59 0-2.897-1.275-2.989-2.885l-.005-.18V48.02H3.494c-1.6 0-2.898-1.267-2.989-2.877l-.005-.18V19.04c0-1.625 1.242-2.958 2.817-3.051l.177-.005h3.845v-1.918c0-1.634 1.25-2.968 2.819-3.06l.175-.006h3.854zm39.467 3.066H49.8v35.872h3.854V14.066zm-39.467 0h-3.854v4.93l.009.044v25.914l-.004.027-.005.027v4.93h3.854V14.066zm46.315 4.983h-3.854v25.914h3.854V19.049zm-53.163 0H3.494v25.914h3.845V19.049zm39.207 9.269H17.45v7.368h29.096v-7.368z" fill="#313235" fill-rule="nonzero"/></svg>