<svg width="24" height="24" viewBox="0 0 24 24" xmlns="http://www.w3.org/2000/svg"><path d="M10.749 1.566c-.27.258-.404.689-.404 1.28 0 .592.135 1.019.4 1.278.26.248.68.376 1.25.376.572 0 .993-.128 1.255-.376.269-.256.403-.686.403-1.274 0-.592-.138-1.022-.407-1.281-.262-.252-.682-.38-1.25-.38s-.988.128-1.247.377zm1.247 3.932c-.837 0-1.49-.221-1.94-.655-.47-.454-.709-1.123-.709-1.997 0-.874.239-1.546.71-2 .45-.437 1.102-.658 1.939-.658s1.492.221 1.946.658c.47.454.71 1.13.71 2 0 .87-.24 1.543-.71 1.997-.454.434-1.11.655-1.946.655zM8.292 9.61v.185h7.418V9.61c0-.403-.084-.974-.484-1.391-.444-.464-1.123-.558-1.61-.558h-3.234c-.49 0-1.166.097-1.61.558-.4.413-.48.988-.48 1.391zm-.7 1.187a.303.303 0 01-.302-.303V9.61c0-.843.262-1.566.76-2.084.54-.564 1.348-.864 2.33-.864h3.233c.981 0 1.788.3 2.332.864.498.521.764 1.24.764 2.084v.884c0 .165-.135.3-.3.303H7.593zM3.647 14.58c-.265.259-.4.689-.4 1.28 0 .592.135 1.019.4 1.278.26.248.68.376 1.25.376.572 0 .992-.124 1.251-.376.27-.26.404-.686.404-1.274s-.135-1.019-.404-1.277c-.262-.253-.682-.38-1.25-.38-.572-.004-.992.124-1.25.373zm1.247 3.933c-.837 0-1.489-.222-1.942-.656-.471-.454-.706-1.123-.706-1.997 0-.87.238-1.542.706-1.996.45-.437 1.105-.659 1.942-.659s1.493.222 1.943.659c.47.454.71 1.13.71 2 0 .87-.24 1.543-.71 1.996-.45.43-1.102.653-1.943.653zm3.715 4.295v-.185c0-.403-.084-.974-.484-1.388-.444-.46-1.123-.558-1.614-.558H3.28c-.49 0-1.17.098-1.607.558-.4.417-.48.985-.48 1.392v.185c-.004-.004 7.415-.004 7.415-.004zM6.51 19.677c.985 0 1.792.299 2.333.863.5.521.763 1.244.763 2.084v.885a.301.301 0 01-.303.302H.49a.301.301 0 01-.302-.302v-.885c0-.843.262-1.563.76-2.084.54-.564 1.347-.867 2.329-.867l3.233.004zm11.341-5.103c-.265.259-.4.69-.4 1.28 0 .592.135 1.02.4 1.275.26.248.68.376 1.247.376.572 0 .992-.128 1.254-.376.27-.26.404-.686.404-1.274 0-.592-.135-1.019-.404-1.28-.262-.25-.682-.377-1.254-.377-.568 0-.988.127-1.247.376zm-.695 3.277c-.471-.453-.706-1.122-.706-1.996 0-.874.235-1.546.706-2 .45-.437 1.105-.66 1.94-.66.836 0 1.491.223 1.945.66.474.454.71 1.126.71 2 0 .87-.24 1.543-.71 1.996-.454.434-1.106.656-1.946.656-.834 0-1.489-.222-1.94-.656zm5.657 4.952v-.185c0-.404-.084-.975-.484-1.388-.444-.461-1.123-.558-1.614-.558h-3.23c-.49 0-1.166.097-1.607.558-.4.416-.48.984-.48 1.391v.185h7.415v-.003zm.232-2.27c.5.522.766 1.241.766 2.085v.884a.301.301 0 01-.302.302h-8.814a.301.301 0 01-.302-.302v-.884c0-.844.262-1.567.76-2.084.54-.565 1.347-.864 2.329-.864h3.233c.982 0 1.788.299 2.33.864zm-8.07-3.27a.502.502 0 01-.687.168L11.98 16.02l-2.31 1.412a.497.497 0 01-.685-.165.497.497 0 01.165-.685l2.333-1.429v-2.709c0-.276.225-.5.5-.5.276 0 .501.224.501.5v2.71l2.33 1.424a.504.504 0 01.161.686z" fill="#313235" fill-rule="nonzero"/></svg>