<svg width="24" height="24" viewBox="0 0 24 24" xmlns="http://www.w3.org/2000/svg"><path d="M22.6 7.344c-.137.138-.352.215-.648.215h-8.47v-.014c-.296 0-.515-.067-.646-.201-.14-.141-.212-.37-.212-.69 0-.319.071-.547.212-.688.135-.138.35-.205.646-.205h8.463c.296 0 .511.067.65.205.14.14.211.37.211.689.003.32-.064.548-.205.689zm-1.028 6.443c-.248 5.318-.258 5.584-.258 5.61-.024 2.673-.626 3.261-1.658 3.369-.016 0-.033.006-.05.01h-.05c-.158.013-.303.01-.528 0h-2.753a3.069 3.069 0 01-.723-.024c.29-.437.45-.985.619-1.593l.074-.262c.427-.121.796-.313 1.089-.605.51-.508.77-1.24.77-2.172 0-.93-.26-1.66-.77-2.171-.037-.037-.084-.064-.125-.098a2.1 2.1 0 00.478.071h.04c.622 0 1.213-.292 1.768-.867.565-.592.847-1.22.834-1.883-.014-.632-.293-1.24-.837-1.805-.545-.564-1.13-.853-1.738-.864-.652.02-1.244.286-1.809.871-.258.269-.45.548-.588.834a3.531 3.531 0 00-1.647-1.163c-.037-1.042-.07-1.92-.09-2.454h8.194c-.047.965-.144 3.086-.242 5.197zm-6.92 8.505c-.196.235-.481.363-.928.43-.054.01-.098.02-.158.027l-1.15.017c-.289.02-.571.023-.934 0H6.776c-.152.013-1.21.02-1.375.02-1.536 0-1.856-.42-2.279-1.785h12.05c-.171.615-.292 1.022-.52 1.29zm1.448-9.06c-.007-.366.178-.745.545-1.129.363-.376.722-.568 1.075-.568h.014c.343.007.699.195 1.052.562.356.37.541.736.544 1.096.007.37-.174.75-.54 1.132-.36.373-.724.562-1.07.562h-.02c-.34-.007-.696-.195-1.052-.565-.356-.37-.538-.733-.548-1.09zM2.618 19.97c-.417-.05-.746-.188-.982-.424-.306-.305-.46-.786-.46-1.428 0-.642.158-1.123.464-1.429.047-.047.104-.084.158-.124.137.43.383.847.763 1.244.588.608 1.216.917 1.872.917h.04c.639-.013 1.257-.319 1.832-.917.474-.491.75-1.015.844-1.557h8.292c.518.024.925.168 1.197.44.31.307.467.787.467 1.43 0 .638-.158 1.119-.467 1.428-.232.235-.565.37-.985.423H2.618v-.003zm.212-3.718h3.3c-.087.273-.258.552-.527.827-.387.4-.773.609-1.15.615-.36.02-.79-.198-1.19-.615-.265-.275-.437-.551-.52-.82 0-.003 0-.003-.004-.007h.09zm9.912-4.373c.383.034.71.162 1.009.31.947.47 1.502 1.425 1.788 3.031H2.749c.383-2.184 1.254-3.25 2.934-3.354.28-.02 1.12-.017 1.12-.017h4.709c0-.003.924.007 1.23.03zm4.37-7.146V1.828c0-.336.265-.609.618-.609.326 0 .589.273.589.609v2.914h-1.207v-.01zm4.837 0c-.659-.007-2.635 0-2.635 0V1.828c0-.904-.71-1.64-1.61-1.64-.874 0-1.584.736-1.584 1.64v2.904h-2.635c-.561 0-1.012.168-1.338.494-.34.343-.514.824-.514 1.432s.175 1.09.514 1.432c.135.134.296.232.47.313.014.336.038 1.001.088 2.413H6.843s-.72.007-.958.017a9.55 9.55 0 00-.444.023c-2.164.219-3.31 1.732-3.724 4.592-.29.124-.548.286-.763.5-.511.512-.766 1.245-.766 2.172 0 .931.258 1.66.77 2.172.295.295.668.487 1.102.608.514 1.761.934 2.908 3.348 2.908h10.618l.286-.004h2.686l.312.004c.047-.004.286-.004.286-.004h.124s.115.007.152.004c2.13-.125 2.426-2.3 2.443-4.39.004-.108.131-2.83.26-5.58.164-3.577.228-4.921.251-5.435.178-.081.34-.179.47-.313.344-.343.518-.824.518-1.432s-.174-1.092-.517-1.435a1.666 1.666 0 00-.85-.437c-.01 0-.374-.054-.498-.054z" fill="#313235" fill-rule="nonzero"/></svg>