<svg width="64" height="64" viewBox="0 0 64 64" xmlns="http://www.w3.org/2000/svg"><path d="M60.27 19.583c-.368.368-.942.574-1.73.574H35.95v-.036c-.789 0-1.371-.179-1.721-.538-.376-.376-.565-.986-.565-1.837 0-.852.189-1.461.565-1.838.359-.367.932-.546 1.721-.546h22.57c.79 0 1.363.179 1.73.546.377.377.565.986.565 1.838.009.851-.17 1.461-.547 1.837zm-2.744 17.184c-.663 14.18-.69 14.888-.69 14.96-.063 7.126-1.667 8.695-4.419 8.981-.045 0-.09.018-.134.027h-.135c-.421.036-.807.027-1.407 0H43.4a7.515 7.515 0 01-.655.027c-.457 0-.87-.027-1.272-.09.77-1.165 1.2-2.626 1.649-4.248l.197-.7c1.138-.322 2.124-.833 2.904-1.613 1.363-1.353 2.053-3.307 2.053-5.79s-.69-4.428-2.053-5.79c-.098-.1-.224-.171-.331-.26.42.107.842.179 1.272.188h.108c1.658 0 3.236-.78 4.715-2.313 1.506-1.578 2.259-3.254 2.223-5.02-.036-1.685-.78-3.307-2.232-4.813-1.452-1.506-3.012-2.277-4.634-2.304-1.74.054-3.317.762-4.823 2.322a8.563 8.563 0 00-1.568 2.223c-1.166-1.443-2.609-2.501-4.392-3.102-.1-2.778-.189-5.118-.243-6.543h21.854c-.126 2.573-.386 8.229-.646 13.858zM39.07 59.445c-.52.627-1.281.968-2.474 1.147-.143.027-.26.054-.42.072l-3.066.044c-.771.054-1.524.063-2.492 0h-12.55c-.403.036-3.226.054-3.665.054-4.097 0-4.948-1.12-6.078-4.76H40.46c-.457 1.64-.78 2.725-1.39 3.443zm3.864-24.157c-.018-.977.475-1.99 1.452-3.012.968-1.004 1.927-1.515 2.868-1.515h.036c.914.018 1.864.52 2.806 1.497.95.986 1.443 1.963 1.452 2.922.018.986-.466 1.999-1.444 3.02-.959.996-1.927 1.498-2.85 1.498H47.2c-.905-.018-1.855-.52-2.805-1.506-.95-.986-1.434-1.954-1.461-2.904zM6.98 53.25c-1.112-.135-1.99-.502-2.618-1.13-.815-.815-1.228-2.097-1.228-3.81 0-1.711.422-2.993 1.237-3.809.126-.125.278-.224.422-.331.367 1.147 1.021 2.258 2.034 3.316 1.569 1.623 3.245 2.447 4.993 2.447h.108c1.703-.036 3.352-.851 4.885-2.447 1.264-1.309 1.999-2.707 2.25-4.15h22.113c1.38.063 2.465.448 3.19 1.174.825.816 1.247 2.098 1.247 3.81 0 1.703-.422 2.985-1.246 3.81-.619.627-1.506.985-2.627 1.129H6.981v-.01zm.564-9.914h8.803c-.233.726-.69 1.47-1.408 2.205-1.03 1.067-2.061 1.622-3.065 1.64-.96.054-2.107-.528-3.173-1.64-.708-.735-1.166-1.47-1.39-2.187 0-.01 0-.01-.009-.018h.242zM33.98 31.675c1.022.09 1.891.43 2.69.825 2.527 1.255 4.006 3.8 4.768 8.085H7.33c1.022-5.826 3.344-8.668 7.825-8.946.744-.053 2.985-.044 2.985-.044h12.558c0-.01 2.465.018 3.281.08zM45.632 12.62V4.874c0-.896.708-1.622 1.649-1.622.87 0 1.569.726 1.569 1.622v7.772h-3.218v-.027zm12.898 0c-1.757-.018-7.027 0-7.027 0V4.874C51.503 2.463 49.61.5 47.209.5c-2.33 0-4.222 1.963-4.222 4.374v7.745H35.96c-1.497 0-2.698.448-3.568 1.317-.905.915-1.371 2.196-1.371 3.819 0 1.622.466 2.904 1.371 3.818.359.359.79.619 1.255.834.036.896.099 2.671.233 6.436H18.248s-1.918.018-2.555.045c-.304.009-.887.036-1.183.062-5.772.583-8.829 4.617-9.932 12.245-.77.331-1.46.762-2.034 1.335C1.18 43.893.5 45.847.5 48.32c0 2.484.69 4.429 2.053 5.791.788.789 1.783 1.3 2.94 1.623 1.371 4.697 2.492 7.753 8.927 7.753h28.316l.762-.009h7.162l.834.01c.125-.01.762-.01.762-.01h.331s.305.018.404.01c5.683-.333 6.471-6.132 6.516-11.707.01-.287.35-7.548.69-14.88.44-9.537.61-13.123.673-14.494.475-.215.905-.475 1.255-.834.914-.914 1.38-2.196 1.38-3.818 0-1.623-.466-2.913-1.38-3.828-.6-.591-1.363-.977-2.268-1.165-.027 0-.995-.143-1.327-.143z" fill="#313235" fill-rule="nonzero"/></svg>