<svg width="24" height="24" viewBox="0 0 24 24" xmlns="http://www.w3.org/2000/svg"><path d="M22.833 22.52V5.092c0-.118-.01-.222-.027-.306h-2.713a1.953 1.953 0 00-.023.306v17.734h2.74c.01-.08.023-.185.023-.306zm-3.741.306V1.633c0-.222-.229-.457-.394-.457H5.3c-.161 0-.39.238-.39.457V22.83h3.634v-8.266a.49.49 0 01.49-.49h5.937c.269 0 .49.221.49.49v8.266h3.63v-.004zm-9.57 0h4.958v-7.775H9.522v7.775zm-8.356-.306c0 .121.01.225.023.306h2.74v-1.223c0-.007-.004-.01-.004-.014V5.095c0-.118-.01-.222-.023-.306H1.189a1.915 1.915 0 00-.027.306V22.52h.004zm21.94-18.716c.655 0 .705.989.705 1.291v17.429c0 .39-.067 1.29-.706 1.29H.893c-.638 0-.706-.9-.706-1.29V5.095c0-.302.05-1.29.706-1.29h3.039V1.63c0-.757.652-1.442 1.371-1.442h13.399c.72 0 1.371.685 1.371 1.442v2.174h3.032zm-7.41 4.306c.068 0 .128-.047.139-.07l-.004-1.768a.186.186 0 00-.13-.061h-2.27a.491.491 0 01-.49-.49V3.447c0-.067-.048-.128-.068-.138l-1.778.004c.003.006-.037.063-.037.13V5.72a.49.49 0 01-.49.491H8.301c-.07 0-.121.044-.128.06l.003 1.795c.007 0 .058.037.125.037h2.265c.27 0 .491.222.491.491v2.276c0 .07.044.12.06.128l1.792-.004c-.003-.003.04-.054.04-.124l-.006-2.276a.49.49 0 01.49-.494h2.263v.01zm0-2.884c.592 0 1.11.48 1.11 1.022V8.07c0 .544-.518 1.022-1.11 1.022h-1.774l.003 1.781c0 .602-.467 1.11-1.018 1.11h-1.812c-.551 0-1.018-.508-1.018-1.11V9.088H8.302c-.599 0-1.106-.467-1.106-1.022V6.251c0-.554.507-1.021 1.106-1.021h1.775V3.448c0-.605.463-1.116 1.018-1.116H12.9c.541 0 1.019.521 1.019 1.116v1.778h1.778z" fill="#313235" fill-rule="nonzero"/></svg>