<svg width="24" height="24" viewBox="0 0 24 24" xmlns="http://www.w3.org/2000/svg"><path d="M18.406 5.771a.487.487 0 01-.4-.211c-1.213-1.789-3.203-3.257-5.324-3.926C9.519.629 6.08 1.28 3.26 3.422a15.685 15.685 0 00-2.225 2.077.482.482 0 01-.676.047l-.01-.01a.497.497 0 01-.037-.696 16.694 16.694 0 012.363-2.208C5.751.302 9.505-.403 12.971.692c2.323.737 4.5 2.347 5.835 4.306a.498.498 0 01-.124.686.487.487 0 01-.276.087zm-7.109 18.04a.443.443 0 01-.114-.013c-1.903-.467-3.856-1.485-5.503-2.874C2.016 17.835-.915 10.672 2.625 6.027c1.973-2.588 5.479-3.819 8.709-3.062.013 0 5.005.78 6.386 6.578.017.057.521 1.882-.416 3.163-.555.753-1.463 1.14-2.696 1.153.02.003-.85.107-1.66-.551-.733-.592-1.17-1.59-1.301-2.962-.048-.484-.246-.867-.592-1.14-.457-.352-1.156-.49-1.876-.366-.218.02-1.795.219-1.932 2.024-.162 2.11 1.472 5.697 5.482 6.686a.491.491 0 01-.229.955c-4.55-1.13-6.4-5.275-6.215-7.722.162-2.148 1.89-2.854 2.78-2.924.951-.168 1.906.037 2.585.561.561.437.897 1.066.968 1.825.1 1.073.42 1.86.924 2.276.28.239.642.366 1.009.35.968-.014 1.617-.266 1.98-.76.645-.877.262-2.31.258-2.323-1.237-5.18-5.583-5.859-5.627-5.862-2.92-.679-6.02.403-7.764 2.696-3.143 4.124-.377 10.776 2.907 13.55 1.533 1.29 3.348 2.241 5.106 2.672.262.067.42.33.36.591a.489.489 0 01-.474.377zm.803-2.54a.444.444 0 01-.13-.02c-3.06-.861-5.833-3.1-7.234-5.84-1.1-2.15-1.281-4.426-.518-6.587.803-2.44 3.455-3.97 6.148-3.547 2.76.43 4.907 2.82 4.884 5.442a.49.49 0 01-.484.491h-.004a.489.489 0 01-.48-.497c.017-2.145-1.768-4.108-4.06-4.464-2.236-.343-4.424.897-5.083 2.894-.672 1.906-.511 3.913.464 5.815 1.277 2.508 3.818 4.558 6.625 5.348a.49.49 0 01.336.605.486.486 0 01-.464.36zm2.447-4.918c-1.408 0-2.595-.39-3.542-1.17-2.071-1.7-2.206-4.608-2.212-4.733a.493.493 0 01.467-.51.492.492 0 01.504.47c0 .027.128 2.595 1.856 4.01 1.048.857 2.5 1.136 4.302.82a.494.494 0 01.205.965c-.013.003-.027.003-.037.007a9.21 9.21 0 01-1.543.141z" fill="#313235" fill-rule="nonzero"/></svg>