<svg width="24" height="24" viewBox="0 0 24 24" xmlns="http://www.w3.org/2000/svg"><path d="M12.306 3.936c1.12 0 1.785.669 1.785 1.792v4.027c.269-.175.612-.27 1.015-.27.988 0 1.603.552 1.68 1.49.27-.178.616-.272 1.026-.272.991 0 1.606.558 1.68 1.502.27-.178.616-.272 1.022-.272 1.06 0 1.688.635 1.688 1.694v7.21c0 .867-.239 1.55-.71 2.03-.47.48-1.22.746-2.104.746H11.65c-.494 0-.753-.41-.96-.85-.092-.195-.317-.682-.63-1.358-.894-1.936-2.56-5.54-3.398-7.304-.4-.84-.1-1.493.313-1.819.538-.43 1.341-.413 1.909.034.417.33.807 1.066 1.22 1.849.067.127.135.255.205.383.088.161.158.239.202.279a.361.361 0 00.017-.135v-.2l-.001-.108V7.98 5.708c.075-1.143.707-1.772 1.779-1.772zm.003.669c-.722 0-1.055.34-1.109 1.133v.038l-.001 3.181v5.684l.001.048c0 .42-.202.743-.518.824-.205.05-.601.037-.968-.646l-.205-.386c-.363-.686-.74-1.395-1.042-1.634a.973.973 0 00-.588-.208.77.77 0 00-.49.168c-.276.218-.323.588-.122 1.005.837 1.768 2.508 5.375 3.402 7.31.313.676.538 1.164.628 1.355.196.419.294.457.338.46h7.75c.702 0 1.28-.194 1.627-.547.346-.353.517-.877.517-1.563v-7.2c0-.69-.332-1.022-1.015-1.022-.682 0-1.015.336-1.015 1.022h-.672v-1.23c0-.69-.333-1.022-1.015-1.022-.683 0-1.015.336-1.015 1.022h-.673V11.18c0-.69-.332-1.022-1.015-1.022-.682 0-1.015.336-1.015 1.022h-.672V5.724c0-.753-.363-1.119-1.113-1.119zM3.785 7.862c1.116 0 1.785.67 1.785 1.792 0 .554-.155.991-.46 1.307-.307.316-.77.491-1.325.491-.555 0-1.015-.168-1.324-.487-.31-.32-.461-.753-.461-1.308 0-1.123.669-1.795 1.785-1.795zm4.262.004c1.116 0 1.785.668 1.785 1.791 0 .555-.155.992-.46 1.308-.306.316-.77.487-1.325.487-.555 0-1.012-.168-1.324-.487-.313-.32-.46-.753-.46-1.308 0-1.123.668-1.791 1.784-1.791zm-4.262.672c-.75 0-1.113.366-1.113 1.12 0 .369.091.651.27.836.177.185.466.282.843.282.376 0 .659-.094.844-.282.184-.188.268-.464.268-.837 0-.753-.363-1.12-1.112-1.12zm4.262 0c-.75 0-1.113.366-1.113 1.12 0 .369.091.651.27.836.178.185.467.282.843.282.377 0 .659-.094.844-.282.185-.188.269-.464.269-.837 0-.753-.363-1.12-1.113-1.12zM3.785 3.933c1.116 0 1.785.669 1.785 1.791 0 .555-.155.992-.46 1.308-.307.316-.77.487-1.325.487-.555 0-1.015-.168-1.324-.487C2.15 6.712 2 6.279 2 5.724c0-1.122.669-1.791 1.785-1.791zm4.262 0c1.116 0 1.785.669 1.785 1.791 0 .555-.155.992-.46 1.308-.306.316-.77.487-1.325.487-.555 0-1.012-.168-1.324-.487-.313-.32-.46-.753-.46-1.308 0-1.122.668-1.791 1.784-1.791zm-4.262.672c-.75 0-1.113.366-1.113 1.12 0 .372.091.651.27.836.177.185.466.283.843.283.376 0 .659-.094.844-.283.184-.188.268-.467.268-.837 0-.753-.363-1.119-1.112-1.119zm4.262 0c-.75 0-1.113.366-1.113 1.12 0 .372.091.651.27.836.178.185.467.283.843.283.377 0 .659-.094.844-.283.185-.188.269-.467.269-.837 0-.753-.363-1.119-1.113-1.119zM3.785 0C4.905 0 5.57.669 5.57 1.792c0 .554-.155.991-.46 1.307-.307.316-.77.488-1.325.488-.555 0-1.015-.169-1.324-.488C2.15 2.78 2 2.346 2 1.792 2 .669 2.666 0 3.785 0zm4.262 0c1.116 0 1.785.669 1.785 1.792 0 .554-.155.991-.46 1.307-.306.316-.77.488-1.325.488-.555 0-1.012-.169-1.324-.488-.313-.32-.46-.753-.46-1.307C6.262.669 6.93 0 8.046 0zm4.259 0c1.12 0 1.785.669 1.785 1.792 0 .554-.155.991-.46 1.307-.307.316-.77.488-1.325.488-.555 0-1.012-.169-1.324-.488-.313-.32-.461-.753-.461-1.307C10.521.669 11.187 0 12.306 0zM3.785.672c-.75 0-1.113.367-1.113 1.12 0 .373.091.652.27.837.177.184.466.282.843.282.376 0 .659-.094.844-.282.184-.189.268-.464.268-.837 0-.753-.363-1.12-1.112-1.12zm4.262 0c-.75 0-1.113.367-1.113 1.12 0 .373.091.652.27.837.178.184.467.282.843.282.377 0 .659-.094.844-.282.185-.189.269-.464.269-.837 0-.753-.363-1.12-1.113-1.12zm4.259 0c-.75 0-1.113.367-1.113 1.12 0 .373.091.652.27.837.177.184.466.282.843.282.376 0 .659-.094.844-.282.184-.189.268-.464.268-.837 0-.753-.363-1.12-1.112-1.12z" fill="#313235" fill-rule="nonzero"/></svg>