<svg width="24" height="24" viewBox="0 0 24 24" xmlns="http://www.w3.org/2000/svg"><path d="M18.58 21.185c2.818-1.772 4.246-4.85 4.246-9.147 0-4.302-1.442-7.395-4.286-9.186-2.332-1.469-4.984-1.664-6.016-1.677-.35-.004-.7-.004-1.05.003-2.416.044-10.302.955-10.302 10.79 0 4.259 1.456 7.334 4.33 9.133 2.346 1.472 4.998 1.687 6.027 1.714.265.007.571.01.867.01h.218c1.026-.01 3.658-.188 5.967-1.64zM12.538.19c2.373.033 11.274.89 11.274 11.848 0 10.938-8.817 11.752-11.187 11.772H12.4c-.302 0-.618-.003-.89-.01C9.193 23.743.187 22.828.187 11.968.188 1.08 9.204.233 11.459.193c.36-.007.72-.007 1.08-.003zm-.531 9.119c.272 0 .49.222.49.49v7.678a.491.491 0 01-.98 0V9.803a.49.49 0 01.49-.494zm-.007-2.79a.766.766 0 110 1.532.766.766 0 010-1.532z" fill="#313235" fill-rule="nonzero"/></svg>