<svg width="24" height="24" viewBox="0 0 24 24" xmlns="http://www.w3.org/2000/svg"><path d="M10.52 21.443c4.646 0 6.135-1.849 6.135-7.617 0-3.62-.605-5.603-2.027-6.628-.918-.666-2.262-.989-4.108-.989-1.859 0-3.213.33-4.134 1.005-1.402 1.032-2 3.009-2 6.612 0 5.768 1.489 7.617 6.134 7.617zm.01-19.237c-3.744 0-4.427.854-4.427 2.531 0 .548.101.968.286 1.304 1.049-.554 2.397-.84 4.131-.84 1.748 0 3.1.292 4.148.85.188-.34.29-.763.29-1.314 0-1.68-.686-2.531-4.428-2.531zm9.799 10.145c.289 0 .524.221.524.5v2.014a.517.517 0 01-.524.504.514.514 0 01-.525-.504v-1.51h-2.11c.003.159.013.303.013.468 0 2.033-.178 3.768-.73 5.143l2.824.823a.507.507 0 01.37.508l-.168 3.035a.516.516 0 01-.525.477h-.027a.516.516 0 01-.497-.527v-.004l.148-2.642-2.595-.75c-1.022 1.644-2.837 2.569-5.99 2.569-3.16 0-4.975-.928-5.997-2.582l-2.642.767.145 2.642a.508.508 0 01-.491.527h-.034a.516.516 0 01-.52-.477l-.169-3.035a.503.503 0 01.373-.508l2.874-.837c-.547-1.368-.722-3.099-.722-5.126 0-.165.01-.31.013-.467h-2.11v1.51a.514.514 0 01-.525.503.514.514 0 01-.524-.504v-2.013c0-.28.235-.504.524-.504h2.665c.121-2.145.521-3.681 1.264-4.777L1.186 6.566a.503.503 0 01-.373-.508L.98 3.023a.517.517 0 01.551-.478c.29.014.511.253.498.532l-.145 2.642 3.402.991c.027.007.05.027.074.04l.158-.14c-.303-.501-.468-1.113-.468-1.876 0-2.212 1.244-3.1 3.258-3.402l-.3-.286a.49.49 0 01-.02-.692l.02-.02a.545.545 0 01.743 0l.921.884c.28-.01.558-.024.854-.024.29 0 .555.014.827.02l.92-.88a.545.545 0 01.744 0 .49.49 0 010 .712l-.296.283c2.03.299 3.28 1.186 3.28 3.405 0 .766-.164 1.381-.473 1.885.04.037.084.071.124.108.013-.007.024-.017.04-.02l3.405-.992-.147-2.642a.514.514 0 01.494-.53h.003a.502.502 0 01.551.476l.168 3.036a.503.503 0 01-.37.507l-3.401.992c.753 1.092 1.153 2.615 1.267 4.79l2.666.007zm-9.893-4.037c.29 0 .525.225.525.504v9.72a.514.514 0 01-.525.505.514.514 0 01-.524-.504V8.818c0-.28.235-.504.524-.504z" fill="#313235" fill-rule="nonzero"/></svg>