<svg width="24" height="24" viewBox="0 0 24 24" xmlns="http://www.w3.org/2000/svg"><path d="M22.826 15.542V4.792c0-1.475-1.247-2.678-2.78-2.678H3.952c-1.533 0-2.783 1.203-2.783 2.679v10.75c0 1.293.874 2.372 2.124 2.621a.48.48 0 01.394.467v2.602c0 .323.332.632.689.632.117 0 .36 0 .605-.316l2.541-3.146a.502.502 0 01.39-.182h12.131c1.536-.003 2.783-1.203 2.783-2.679zm-2.78-14.38c2.074 0 3.765 1.627 3.765 3.63v10.75c0 2-1.69 3.63-3.765 3.63H8.157l-2.39 2.955c-.35.457-.82.69-1.388.69-.907 0-1.674-.727-1.674-1.584v-2.235c-1.502-.47-2.518-1.842-2.518-3.456V4.792c0-2.003 1.691-3.63 3.765-3.63h16.094zM15.337 8.83c.094-.383.185-1.086-.265-1.462-.202-.165-.495-.27-.817-.286l-.091-.004c-.356 0-.733.101-1.082.29-.179.094-.363.198-.562.312a1.18 1.18 0 01-.568.151c-.195 0-.386-.047-.554-.14-.219-.125-.4-.226-.579-.323a2.322 2.322 0 00-1.082-.29l-.094.004c-.316.017-.615.117-.813.286-.454.376-.364 1.079-.273 1.462.205.84.615 1.72 1.21 2.618.491.736.868 1.19 1.54 1.866.117.117.282.269.386.34.068.043.138.08.209.093h.01l.04.007a.63.63 0 00.249-.097c.097-.068.249-.202.363-.316l.003-.007.034-.034c.662-.665 1.032-1.112 1.523-1.848.601-.901 1.008-1.782 1.213-2.622zM14.31 6.134c.537.027 1.038.208 1.405.51.631.525.837 1.379.584 2.404-.232.945-.685 1.926-1.34 2.915-.522.786-.942 1.29-1.648 1.996-.003.007-.01.014-.013.017-.07.07-.313.31-.521.45a1.536 1.536 0 01-.575.252 1.03 1.03 0 01-.182.024h-.006c-.017.003-.034.003-.054.003h-.02c-.02 0-.034 0-.054-.003h-.003a1.483 1.483 0 01-.182-.024c-.198-.04-.4-.13-.578-.252a4.373 4.373 0 01-.518-.45c-.716-.716-1.136-1.224-1.66-2.014-.656-.984-1.106-1.966-1.338-2.914-.255-1.025-.044-1.882.585-2.403.366-.303.864-.488 1.405-.511.047-.003.097-.003.144-.003.521 0 1.06.137 1.56.41.185.097.377.208.585.326.02.01.044.017.07.017a.165.165 0 00.068-.017c.208-.118.4-.226.588-.326a3.297 3.297 0 011.56-.41c.04 0 .087 0 .138.003z" fill="#313235" fill-rule="nonzero"/></svg>