<svg width="24" height="24" viewBox="0 0 24 24" xmlns="http://www.w3.org/2000/svg"><path d="M21.033 5.635l-.03.464c-.044.642-.407 3.96-3.382 6.03l-.72.501.8.36c4.643 2.074 4.744 6.917 4.747 6.964 0 .511-.413.925-.921.925a.927.927 0 01-.921-.925c-.01-.548-.269-4.874-5.654-5.865a4.14 4.14 0 00.165-1.183 3.9 3.9 0 00-.262-1.47c3.805-1.324 4.255-4.524 4.306-5.267l-.02-.524-1.332-.013 2.27-2.313 2.285 2.313-1.331.003zm-9.035 9.398c-.397 0-.737-.053-1.019-.158a1.559 1.559 0 01-.578-.34 1.541 1.541 0 01-.366-.6 3.016 3.016 0 01-.162-1.036c0-.484.084-.88.232-1.197a1.51 1.51 0 01.3-.447c.167-.161.38-.282.638-.366a3.12 3.12 0 01.955-.131c.366 0 .682.043.95.13.263.085.482.21.65.37.124.122.218.273.299.444.151.316.235.713.235 1.197 0 .407-.06.753-.165 1.042a1.58 1.58 0 01-.366.595 1.582 1.582 0 01-.588.343c-.286.1-.622.154-1.015.154zm-8.75 4.921a.932.932 0 01-.928.918.922.922 0 01-.91-.918c0-.05.104-4.927 4.83-6.988l.803-.35-.716-.507c-2.928-2.07-3.287-5.368-3.328-6.007l-.1-.457-1.264-.013 2.282-2.313 2.276 2.313-1.385.006.037.528c.053.743.504 3.943 4.302 5.267-.168.417-.259.908-.259 1.47 0 .433.06.82.162 1.169-5.533.958-5.792 5.331-5.802 5.882zm20.42-14.413L20.58 2.418c-.218-.272-.618-.32-.961-.04l-3.11 3.166a.668.668 0 00-.08.7.63.63 0 00.571.366l1.1.01c-.209 1.049-.975 3.069-3.792 3.96-.014-.014-.02-.024-.03-.034-.531-.518-1.301-.777-2.286-.777-.982 0-1.751.26-2.282.777-.014.013-.02.03-.034.044-2.803-.87-3.577-2.844-3.785-3.97l1.103-.01a.638.638 0 00.578-.37c.107-.225.074-.504-.118-.736L4.418 2.422l-.104-.108a.63.63 0 00-.471-.134c-.168.02-.32.1-.387.195L.337 5.535a.663.663 0 00-.087.698c.107.229.33.37.575.37l1.236.01c.152 1.16.75 3.812 3.053 5.792C.478 14.909.424 19.897.424 19.95c0 1.045.848 1.9 1.906 1.91 1.036 0 1.89-.851 1.906-1.89.007-.467.242-4.225 5.278-4.968.067.084.124.175.201.252.531.511 1.298.77 2.283.77.985 0 1.75-.259 2.285-.77.074-.07.131-.158.195-.238 4.898.77 5.133 4.487 5.14 4.947a1.914 1.914 0 001.906 1.903c1.052 0 1.906-.86 1.906-1.913 0-.053-.054-4.998-4.602-7.506 2.34-1.966 2.951-4.564 3.11-5.821l1.23-.014c.248 0 .47-.141.578-.37a.666.666 0 00-.078-.702z" fill="#313235" fill-rule="nonzero"/></svg>