<svg width="64" height="64" viewBox="0 0 64 64" xmlns="http://www.w3.org/2000/svg"><path d="M60.87 41.446V12.781c0-3.935-3.326-7.144-7.413-7.144H10.539c-4.087 0-7.422 3.209-7.422 7.144v28.665c0 3.451 2.33 6.329 5.665 6.992.619.125 1.05.645 1.05 1.246v6.938c0 .86.886 1.685 1.837 1.685.313 0 .959 0 1.613-.843l6.777-8.39a1.338 1.338 0 011.04-.484h32.349c4.096-.009 7.422-3.209 7.422-7.144zM53.457 3.1c5.53 0 10.04 4.338 10.04 9.68v28.666c0 5.334-4.51 9.68-10.04 9.68H21.753l-6.373 7.88c-.933 1.219-2.188 1.837-3.702 1.837-2.42 0-4.464-1.936-4.464-4.221V50.66C3.207 49.406.5 45.749.5 41.446V12.781C.5 7.438 5.009 3.1 10.54 3.1h42.917zM40.899 23.546c.25-1.022.493-2.895-.708-3.9-.538-.438-1.318-.716-2.178-.761l-.242-.01c-.95 0-1.954.27-2.887.772-.475.25-.968.529-1.497.833-.52.278-1.012.404-1.514.404-.52 0-1.031-.126-1.48-.377-.582-.331-1.066-.6-1.541-.86-.941-.502-1.936-.771-2.886-.771l-.251.009c-.843.045-1.64.314-2.17.762-1.21 1.004-.968 2.877-.726 3.899.547 2.24 1.64 4.59 3.227 6.983 1.309 1.963 2.313 3.173 4.106 4.974.313.314.752.717 1.03.906.18.116.368.215.556.25h.027l.108.019c.295-.054.484-.144.663-.26.26-.18.663-.538.968-.843l.009-.018.09-.09c1.765-1.774 2.751-2.966 4.06-4.93 1.605-2.402 2.69-4.75 3.236-6.991zm-2.743-7.189c1.434.072 2.77.556 3.747 1.363 1.685 1.398 2.232 3.675 1.56 6.409-.619 2.518-1.83 5.136-3.577 7.771-1.39 2.097-2.51 3.442-4.392 5.324a.196.196 0 01-.036.045c-.188.188-.834.825-1.39 1.201a4.095 4.095 0 01-1.532.673 2.745 2.745 0 01-.484.062h-.018c-.045.01-.09.01-.144.01h-.053c-.054 0-.09 0-.144-.01h-.009a3.956 3.956 0 01-.484-.062 4.352 4.352 0 01-1.541-.673c-.547-.376-1.193-1.013-1.38-1.2-1.91-1.91-3.03-3.264-4.429-5.37-1.748-2.626-2.949-5.244-3.567-7.771-.682-2.734-.117-5.02 1.56-6.41.976-.806 2.303-1.3 3.746-1.362.126-.009.26-.009.386-.009 1.389 0 2.823.368 4.159 1.094.493.26 1.004.555 1.56.87a.417.417 0 00.188.044.44.44 0 00.179-.045c.556-.314 1.066-.6 1.568-.87 1.327-.716 2.761-1.093 4.16-1.093.107 0 .233 0 .367.01z" fill="#313235" fill-rule="nonzero"/></svg>