<svg width="64" height="64" viewBox="0 0 64 64" xmlns="http://www.w3.org/2000/svg"><path d="M31.98.5c10.048 0 17.838 2.6 23.171 7.736 5.522 5.324 8.327 13.32 8.327 23.762 0 4.867-.609 9.191-1.811 12.958a.894.894 0 01-.253.761C57.358 57.385 47.384 63.47 31.98 63.47 11.39 63.47.5 52.587.5 31.99S11.382.5 31.98.5zm27.456 45.482H47.512c-.822 2.855-1.9 5.496-3.216 7.833-1.942 3.454-4.268 6.018-6.821 7.576 11.194-1.224 18.536-6.382 21.96-15.409zm-28.559-.001H17.283c.763 2.533 1.738 4.878 2.91 6.965 2.915 5.18 6.687 8.144 10.685 8.407l-.001-15.372zm14.76.001l-12.878-.001v15.295c3.733-.55 7.236-3.46 9.968-8.33 1.173-2.087 2.148-4.432 2.91-6.964zm-30.225 0H4.535c3.29 8.669 10.193 13.772 20.65 15.246-2.45-1.571-4.684-4.077-6.56-7.413-1.312-2.337-2.39-4.978-3.213-7.833zM14.506 21.6H3.424c-.753 3.095-1.131 6.56-1.131 10.39 0 4.596.544 8.664 1.628 12.2h11.015c-.93-3.824-1.42-7.978-1.42-12.263 0-3.571.338-7.052.99-10.327zm16.371.001H16.341c-.673 3.258-1.024 6.741-1.024 10.326 0 4.303.506 8.463 1.47 12.263l14.09-.001V21.6zm15.702 0h-13.82v22.588l13.376.001c.962-3.798 1.469-7.957 1.469-12.263 0-3.582-.352-7.066-1.025-10.326zm13.971 0H48.412c.653 3.274.993 6.755.993 10.326 0 4.285-.487 8.439-1.418 12.263H60.05c1.084-3.535 1.627-7.603 1.627-12.2.002-3.831-.374-7.295-1.126-10.389zM24.957 2.774l-.165.025C13.855 4.45 6.871 10.145 3.915 19.807h10.983c.864-3.6 2.118-6.912 3.726-9.77 1.818-3.231 3.971-5.684 6.333-7.263zm7.802-.198v17.231h13.41c-.818-3.278-1.976-6.291-3.442-8.9-2.733-4.88-6.23-7.784-9.968-8.331zm4.945.028l.192.125c2.388 1.577 4.565 4.046 6.4 7.308 1.604 2.858 2.858 6.17 3.723 9.77h12.04C56.978 9.716 49.498 3.956 37.705 2.604zm-17.511 8.303c-1.466 2.61-2.624 5.622-3.443 8.9h14.127V2.5c-3.998.263-7.777 3.226-10.684 8.407z" fill="#313235" fill-rule="nonzero"/></svg>