<svg width="24" height="24" viewBox="0 0 24 24" xmlns="http://www.w3.org/2000/svg"><path d="M21.226 19.515c.867 0 1.573.69 1.573 1.536 0 .854-.706 1.543-1.573 1.543-.877 0-1.583-.689-1.583-1.543.003-.85.71-1.536 1.583-1.536zm-13.92-2.144c1.917-.46 3.702-.589 4.498-.629v6.034c-1.922-.313-3.586-2.407-4.497-5.405zm-4.174 1.72c.948-.638 2.057-1.109 3.197-1.455.645 2.145 1.674 3.866 2.927 4.935-2.746-.47-4.783-1.63-6.124-3.48zm-.534-.833c-.847-1.513-1.311-3.402-1.382-5.664h4.326c.04 1.446.222 2.83.524 4.091-1.21.363-2.43.874-3.468 1.573zm-.02-12.487c1.068.706 2.278 1.22 3.478 1.583-.312 1.307-.484 2.743-.514 4.255H1.216c.04-2.34.494-4.282 1.361-5.838zm6.688-4.343c-1.26 1.079-2.292 2.81-2.944 4.975-1.12-.343-2.239-.817-3.207-1.466C4.453 3.078 6.5 1.91 9.266 1.427zm2.542-.209v6.064c-.797-.04-2.572-.158-4.508-.618.918-3.019 2.572-5.12 4.508-5.446zM6.55 11.613c.03-1.415.201-2.763.494-3.994 2.047.501 3.922.619 4.76.65v3.34H6.55v.004zm5.257.981v3.167c-.827.03-2.713.154-4.76.658a18.9 18.9 0 01-.494-3.825h5.254zm9.418-10.981c.867 0 1.573.696 1.573 1.543s-.706 1.532-1.573 1.532c-.877 0-1.583-.685-1.583-1.532.003-.844.71-1.543 1.583-1.543zm0 8.985c.867 0 1.573.689 1.573 1.532 0 .854-.706 1.543-1.573 1.543-.877 0-1.583-.689-1.583-1.543.003-.843.71-1.532 1.583-1.532zm-8.289 2.026h5.748a2.582 2.582 0 002.541 2.037c1.422 0 2.585-1.132 2.585-2.527 0-1.385-1.16-2.515-2.585-2.515-1.26 0-2.299.874-2.541 2.024h-5.748c-.04 0-.08.02-.12.03V9.814h3.74a.5.5 0 00.504-.49l.061-5.674h1.513c.02 0 .03-.01.05-.01.232 1.16 1.28 2.033 2.541 2.033 1.422 0 2.585-1.13 2.585-2.517 0-1.395-1.16-2.525-2.585-2.525-1.26 0-2.31.884-2.541 2.044-.02 0-.03-.01-.05-.01h-2.017a.504.504 0 00-.504.484l-.061 5.68h-3.237V.68a.499.499 0 00-.504-.492C4.386.188.188 4.279.188 12.004c0 .02 0 .05.01.077-.01.01-.01.01-.01.02 0 0 .01.01.01.02.01 2.83.595 5.17 1.724 6.989.02.07.05.127.09.188.02.03.061.04.081.06 1.957 2.928 5.385 4.454 10.219 4.454a.494.494 0 00.504-.49v-7.944h3.237l.06 5.681c.01.266.232.484.505.484h2.017c.02 0 .03 0 .05-.01.232 1.16 1.28 2.044 2.541 2.044 1.422 0 2.585-1.133 2.585-2.528 0-1.388-1.16-2.518-2.585-2.518-1.26 0-2.31.878-2.541 2.034-.02 0-.03-.01-.05-.01h-1.513l-.06-5.674a.499.499 0 00-.505-.49h-3.74V12.6c.04.014.08.024.12.024z" fill="#313235" fill-rule="nonzero"/></svg>