<svg width="24" height="24" viewBox="0 0 24 24" xmlns="http://www.w3.org/2000/svg"><path d="M18.878 19.398l.01-9.44H5.113v9.44c0 .127.02.235.024.356h13.717c.007-.121.024-.232.024-.356zm-3.425 3.435c1.74 0 2.837-.726 3.243-2.101H5.301c.152.504.384.931.723 1.257.585.558 1.439.844 2.541.844h6.888zM6.03 7.098c-.474.454-.76 1.086-.867 1.88H18.84c-.165-1.271-.787-2.101-1.855-2.481a1.494 1.494 0 01-.854.265H7.786c-.296 0-.569-.087-.8-.235-.367.141-.696.323-.955.571zm1.237-5.415v3.583c0 .286.232.518.52.518h8.347a.52.52 0 00.521-.518V1.683a.519.519 0 00-.52-.517h-8.35a.518.518 0 00-.518.517zM17.574 5.68c1.485.642 2.302 2.044 2.302 4.013l-.01 9.708c0 2.803-1.61 4.413-4.413 4.413H8.565c-1.368 0-2.45-.376-3.227-1.119-.803-.773-1.213-1.882-1.213-3.297V9.693c0-1.415.41-2.524 1.22-3.297.29-.276.639-.484 1.019-.659a1.475 1.475 0 01-.084-.47V1.682c0-.827.675-1.496 1.506-1.496h8.346c.83 0 1.506.673 1.506 1.496v3.583c0 .145-.027.28-.064.414zM8.79 5.109a.492.492 0 01-.495-.491V2.332c0-.272.222-.49.495-.49.272 0 .494.218.494.49v2.286c0 .269-.222.49-.494.49zm2.114 0a.492.492 0 01-.494-.491V2.332c0-.272.222-.49.494-.49s.494.218.494.49v2.286a.496.496 0 01-.494.49zm2.11 0a.492.492 0 01-.493-.491V2.332c0-.272.221-.49.494-.49.272 0 .494.218.494.49v2.286a.496.496 0 01-.494.49zm2.112 0a.492.492 0 01-.494-.491V2.332c0-.272.221-.49.494-.49.272 0 .494.218.494.49v2.286c0 .269-.222.49-.494.49zm-6.43 8.82v1.479s.04.027.1.027h2.316v2.282c0 .06.03.097.04.107h1.49c0-.02.03-.047.03-.097l-.01-2.303h2.306c.05 0 .097-.04.107-.05l-.01-1.469c0-.02-.05-.03-.087-.03h-2.316v-2.282c0-.05-.03-.098-.05-.108l-1.48.01c0 .01-.03.057-.03.098v2.292h-2.31a.143.143 0 00-.097.044zm.097 2.487c-.592 0-1.086-.45-1.086-1.008v-1.5c0-.547.494-.998 1.086-.998h1.32V11.6c0-.589.465-1.076 1.016-1.076h1.51c.54 0 1.008.49 1.008 1.075v1.304h1.33c.582 0 1.076.461 1.076 1.009v1.499c0 .538-.494.998-1.085.998h-1.321l.01 1.321c0 .589-.454 1.076-1.015 1.076l-1.51-.01c-.55 0-1.005-.48-1.005-1.08v-1.303H8.794v.003z" fill="#313235" fill-rule="nonzero"/></svg>