<svg width="64" height="64" viewBox="0 0 64 64" xmlns="http://www.w3.org/2000/svg"><path d="M57.362 21.111l-2.654 2.636-14.61-14.45 2.707-2.68C49.32.181 54.87 4.188 56.958 6.214c.251.25.52.529.744.753 2.044 2.124 6.113 7.753-.34 14.144zM4.055 56.41l3.433 3.397-4.07.744.637-4.141zm9.16-7.772l-6.444-6.382 31.453-31.112 6.445 6.382-31.453 31.112zm-2.572 10.586l-6.095-6.041 1.264-8.175 12.88 12.737-8.049 1.48zm10.82-2.429l-6.374-6.301L46.542 19.38l6.302 6.23-31.382 31.184zM59.62 5.156c-.269-.269-.528-.538-.806-.807-4.258-4.14-11.196-6.202-17.892.422L3.948 41.342c-.18.18-.296.412-.332.654-.01.027-.036.045-.036.072L.514 61.985c-.062.422.081.843.386 1.139a1.36 1.36 0 001.165.35l19.263-3.532c.045 0 .09.026.134.026.35 0 .69-.134.942-.385.017-.018.026-.045.044-.072.01-.009.036-.009.045-.018l36.75-36.526c8.543-8.462 1.812-16.323.377-17.81z" fill="#313235" fill-rule="nonzero"/></svg>