<svg width="24" height="24" viewBox="0 0 24 24" xmlns="http://www.w3.org/2000/svg"><path d="M18.882 10.069c0 8.034-1.798 10.877-6.867 10.877-5.072 0-6.867-2.847-6.867-10.877 0-1.156.037-2.161.107-3.08 1.765.717 3.849 1.1 6.232 1.15l.047 8.915c0 .275.225.494.504.494h.004a.504.504 0 00.5-.5l-.046-8.912C14.902 8.09 17 7.703 18.775 6.98c.07.917.107 1.926.107 3.089m4.703-7.721a.51.51 0 00-.7.141c-2.074 3.103-5.737 4.676-10.88 4.676-5.15 0-8.817-1.577-10.891-4.69a.505.505 0 00-.7-.14.493.493 0 00-.144.689C1.28 4.536 2.64 5.699 4.297 6.543c-.01.03-.023.057-.027.09a38.471 38.471 0 00-.134 3.433c0 7.327 1.317 11.872 7.875 11.872s7.876-4.545 7.876-11.872c0-1.248-.04-2.33-.12-3.305a.514.514 0 00-.075-.211c1.66-.847 3.022-2.007 4.034-3.516a.489.489 0 00-.141-.686" fill="#313235" fill-rule="nonzero"/></svg>