<svg width="24" height="24" viewBox="0 0 24 24" xmlns="http://www.w3.org/2000/svg"><path d="M19.957 19.896c.72-.754 1.076-1.504 1.064-2.236-.014-.703-.372-1.411-1.064-2.103a4.327 4.327 0 00-.874-.69c-.588-.363-1.18-.495-1.773-.397-.602.1-1.205.451-1.787 1.034-.14.137-.272.285-.395.442a.403.403 0 01-.118.101c-.339.193-.87.028-1.636-.496-.87-.596-1.888-1.582-2.574-2.271l-.081-.079c-.692-.692-1.678-1.711-2.272-2.577-.52-.765-.683-1.3-.493-1.636a.4.4 0 01.104-.123 4.29 4.29 0 00.44-.392c.582-.583.93-1.185 1.033-1.787.101-.591-.03-1.182-.392-1.76a4.358 4.358 0 00-.697-.885c-.692-.691-1.4-1.05-2.104-1.064h-.042c-.717 0-1.454.359-2.19 1.064a5.2 5.2 0 00-.617.74c-.708 1.022-.675 2.6.073 4.473.815 2.04 2.406 4.283 4.602 6.482l.014.014.07.07c2.208 2.207 4.451 3.804 6.496 4.616 1.857.743 3.454.78 4.44.098.16-.114.527-.38.773-.638zm.58-4.922c.849.849 1.288 1.748 1.305 2.67.017.955-.414 1.902-1.291 2.818-.3.313-.698.602-.846.708-.025.02-.05.037-.076.054-.585.406-1.341.619-2.227.619-.893 0-1.888-.216-2.96-.645-2.149-.854-4.49-2.515-6.768-4.795l-.064-.065-.017-.016c-2.28-2.28-3.938-4.622-4.796-6.768-.851-2.137-.854-3.986-.01-5.21.13-.18.428-.591.75-.9.913-.873 1.851-1.29 2.815-1.288.922.017 1.82.457 2.67 1.306.336.339.613.689.817 1.042.463.745.63 1.529.496 2.322-.131.776-.557 1.526-1.26 2.232-.115.118-.236.23-.362.334.031.117.13.355.41.767.554.81 1.506 1.793 2.173 2.46l.081.08c.667.665 1.644 1.617 2.46 2.177.409.28.65.376.767.41.11-.13.202-.23.336-.362.706-.706 1.457-1.13 2.23-1.26.795-.135 1.577.036 2.33.503.348.197.7.471 1.037.807zm-6.563-6.568c-.107.08-.157.165-.168.263a.36.36 0 00.084.283l.947 1.053c.086.112.179.162.28.17a.332.332 0 00.26-.089l2.54-2.185a.407.407 0 01.572.037l.558.616c.03.036.103.092.179.073.084-.025.112-.115.12-.151l.807-3.776a.22.22 0 00-.045-.202.229.229 0 00-.173-.073h-.02l-3.832.292c-.048.002-.134.022-.165.098-.031.078.02.15.05.184l.55.611a.412.412 0 01-.034.583c.002.002-2.51 2.213-2.51 2.213zm.232 2.12l-.924-1.025a1.178 1.178 0 01.18-1.737l2.17-1.91-.274-.303a1.003 1.003 0 01-.205-1.039.995.995 0 01.863-.61l3.829-.298.087-.002a1.038 1.038 0 011.022 1.272l-.806 3.775a1 1 0 01-.712.773 1.01 1.01 0 01-1.003-.313l-.283-.322-2.218 1.907a1.122 1.122 0 01-.883.3 1.175 1.175 0 01-.843-.468z" fill="#313235" fill-rule="nonzero"/></svg>