<svg width="24" height="24" viewBox="0 0 24 24" xmlns="http://www.w3.org/2000/svg"><path d="M4.483 12.886c.602 0 .837-.235.837-.84s-.235-.84-.837-.84c-.601 0-.837.235-.837.84s.236.84.837.84zm0-2.689c1.15 0 1.839.693 1.839 1.849 0 1.156-.686 1.845-1.839 1.845-1.15 0-1.838-.692-1.838-1.845 0-1.156.689-1.845 1.838-1.849zm16.505 3.328l1.59-1.523-1.84-1.724H9.062a.5.5 0 01-.457-.3C8.053 8.736 6.9 8.13 5.085 8.13c-2.622 0-3.896 1.28-3.896 3.913 0 2.635 1.274 3.916 3.896 3.916 1.714 0 2.84-.511 3.345-1.516.05-.098.168-.4.168-.4a.5.5 0 01.467-.32h5.65l1.2-1.734a.499.499 0 01.4-.215c.165-.027.313.067.41.195l1.06 1.378.83-1.338a.497.497 0 01.776-.09c-.003.003 1.597 1.606 1.597 1.606zm2.662-1.892a.501.501 0 01.023.712l-.02.02-2.33 2.232a.5.5 0 01-.699-.01l-1.499-1.502-.877 1.415a.5.5 0 01-.4.235.453.453 0 01-.42-.195l-1.083-1.408-.96 1.388a.5.5 0 01-.41.215H9.397l-.074.165c-.676 1.351-2.142 2.067-4.239 2.067-3.16 0-4.897-1.748-4.897-4.921s1.737-4.921 4.897-4.921c2.524 0 3.721 1.106 4.286 2.148h11.566c.128 0 .249.05.343.134l2.37 2.226z" fill="#313235" fill-rule="nonzero"/></svg>