<svg width="24" height="24" viewBox="0 0 24 24" xmlns="http://www.w3.org/2000/svg"><path d="M13.11 15.205c-1.399.259-2.69.4-3.866.437-.094-1.371-1.14-2.118-2.904-2.289a6.6 6.6 0 00-.615-.03c-1.093 0-1.893.333-2.353 1.012-1.106-.787-1.812-1.937-2.088-3.432-.766-4.168 2.437-6.948 9.52-8.26 3.492-.645 6.275-.608 8.275.112 2.01.726 3.174 2.097 3.56 4.195.763 4.168-2.444 6.948-9.53 8.255m-6.638 2.232c-.168 0-.34-.01-.524-.027-2.162-.208-2.06-1.247-2.014-1.744.067-.703.33-1.355 1.788-1.355.165 0 .34.01.521.027.777.074 1.355.276 1.678.578.178.165.403.467.336 1.17-.064.702-.326 1.351-1.785 1.351M23.604 6.772c-.447-2.44-1.859-4.105-4.195-4.945-2.168-.783-5.123-.83-8.787-.155C1.002 3.451-.292 7.77.313 11.081c.33 1.798 1.193 3.186 2.565 4.124.04.027.084.04.127.054-.02.1-.043.198-.053.31-.165 1.717.914 2.631 2.9 2.823.216.02.42.03.616.03.37 0 .706-.044 1.005-.118.269.46.527 1.123.316 1.778-.226.68-.921 1.268-2.07 1.742a.495.495 0 00.373.914c1.428-.588 2.312-1.378 2.631-2.346.252-.77.121-1.63-.356-2.491.39-.293.655-.713.79-1.264a26.47 26.47 0 004.13-.46c9.628-1.779 10.925-6.098 10.317-9.405" fill="#313235" fill-rule="nonzero"/></svg>