<svg width="64" height="64" viewBox="0 0 64 64" xmlns="http://www.w3.org/2000/svg"><path d="M34.968 60.753c-.816.027-1.81.027-2.707.027C25.79 60.673 4.69 58.27 4.69 31.89c0-26.326 20.939-28.63 27.339-28.71l2.017.018C27.923 6.183 21.55 12.52 21.55 25.966c0 24.004 20.419 25.546 24.533 25.609.77 0 1.595 0 2.25-.027 2.08-.054 5.638-.359 9.42-1.721-6.776 9.833-18.904 10.855-22.785 10.926m26.918-14.835a1.354 1.354 0 00-1.578-.179c-4.571 2.59-9.492 3.075-12.047 3.137-.645.027-1.434.027-2.151.027-5.127-.08-21.862-1.98-21.862-22.937 0-15.463 8.927-20.617 16.42-22.212a1.344 1.344 0 001.068-1.327 1.35 1.35 0 00-1.103-1.3c-1.9-.35-3.818-.555-5.746-.6L32.02.5C24.974.59 2 3.108 2 31.882c0 5.18 1.452 31.076 30.234 31.56.95 0 1.972 0 2.797-.027 4.679-.08 20.446-1.46 27.168-15.964a1.305 1.305 0 00-.313-1.533" fill="#313235" fill-rule="nonzero"/></svg>