<svg width="24" height="24" viewBox="0 0 24 24" xmlns="http://www.w3.org/2000/svg"><path d="M13.113 22.782c-.306.01-.679.01-1.015.01-2.427-.04-10.34-.94-10.34-10.833 0-9.872 7.853-10.736 10.253-10.766l.756.006C10.47 2.32 8.08 4.695 8.08 9.737c0 9.002 7.657 9.58 9.2 9.603.29 0 .598 0 .844-.01.78-.02 2.114-.134 3.533-.645-2.542 3.687-7.09 4.07-8.545 4.097m10.094-5.563a.508.508 0 00-.591-.067c-1.715.972-3.56 1.153-4.518 1.177-.242.01-.538.01-.807.01-1.923-.03-8.198-.743-8.198-8.602 0-5.798 3.348-7.731 6.158-8.33a.504.504 0 00.4-.497.506.506 0 00-.414-.487 13.659 13.659 0 00-2.154-.225l-1.076-.01C9.365.22.75 1.165.75 11.956c0 1.942.545 11.653 11.338 11.835.356 0 .74 0 1.049-.01 1.754-.03 7.667-.548 10.188-5.987a.49.49 0 00-.118-.575" fill="#313235" fill-rule="nonzero"/></svg>