<svg width="24" height="24" viewBox="0 0 24 24" xmlns="http://www.w3.org/2000/svg"><path d="M19.4 18.674c0 .748-.193 1.331-.58 1.729-.386.398-1.016.619-1.778.619H9.255c-.19 0-.342-.165-.535-.586-.149-.319-.667-1.378-1.219-2.495-.919-1.866-2.061-4.188-2.74-5.636-.235-.502-.167-.99.18-1.266a.986.986 0 01.625-.219c.249 0 .498.09.703.255.26.207.504.521.812 1.048.185.316.56.47.916.372a.823.823 0 00.6-.793V4.327c.078-1.21.787-1.347 1.316-1.347.863 0 1.32.462 1.32 1.339V7.22c0 .45.36.818.812.82a.823.823 0 00.218-.03c.137-.04.294-.06.465-.06.628 0 1.02.256 1.163.76a.819.819 0 001.039.554c.151-.05.328-.075.52-.075.631 0 1.023.258 1.166.767a.82.82 0 00.4.505.806.806 0 00.64.056c.15-.05.327-.076.517-.076.813 0 1.225.417 1.225 1.24l.002 6.992zm-1.224-9.058c-.283 0-.543.039-.773.117-.238-.857-.941-1.367-1.947-1.367-.283 0-.543.042-.776.118-.24-.849-.94-1.353-1.944-1.353-.246 0-.476.03-.683.09V4.316c0-1.333-.818-2.16-2.134-2.16-1.267 0-2.042.77-2.13 2.118v.042l-.002 7.386c-.339-.577-.644-.98-1.008-1.271a1.934 1.934 0 00-1.208-.432c-.403 0-.804.132-1.131.398-.65.521-.81 1.41-.41 2.263.681 1.449 1.827 3.776 2.746 5.648.574 1.165 1.07 2.17 1.21 2.476.145.316.49 1.061 1.272 1.061h7.787c.983 0 1.82-.308 2.361-.865.538-.555.81-1.33.81-2.3v-7c-.003-1.274-.782-2.064-2.04-2.064z" fill="#313235" fill-rule="nonzero"/></svg>