<svg width="24" height="24" viewBox="0 0 24 24" xmlns="http://www.w3.org/2000/svg"><path d="M14.74 2.156H6.975c-.98 0-1.818.308-2.356.866-.538.552-.806 1.325-.806 2.291v6.978c0 1.269.778 2.056 2.03 2.056.283 0 .54-.042.773-.118.239.854.939 1.361 1.942 1.361.283 0 .543-.042.776-.117.24.846.938 1.347 1.938 1.347.246 0 .476-.03.68-.09v2.894c0 1.33.816 2.157 2.13 2.157 1.263 0 2.036-.77 2.123-2.112l.002-.045v-7.361c.34.574.642.977 1.006 1.269.359.285.784.428 1.205.428.403 0 .8-.131 1.128-.395.647-.518.807-1.406.407-2.255-.678-1.445-1.821-3.767-2.74-5.633-.571-1.162-1.064-2.165-1.207-2.468-.143-.313-.485-1.053-1.266-1.053m0 .821c.187 0 .339.162.532.585.146.314.641 1.323 1.216 2.488a443.414 443.414 0 012.73 5.616c.236.501.169.986-.179 1.263a.98.98 0 01-.624.219 1.13 1.13 0 01-.703-.255c-.258-.207-.502-.518-.813-1.045a.812.812 0 00-.913-.372.82.82 0 00-.596.79v7.352c-.076 1.208-.788 1.348-1.314 1.348-.863 0-1.32-.462-1.32-1.336v-2.894a.819.819 0 00-.319-.653.803.803 0 00-.709-.134c-.15.04-.305.059-.462.056-.627 0-1.017-.255-1.16-.756a.812.812 0 00-1.036-.552 1.642 1.642 0 01-.52.075c-.631 0-1.02-.257-1.16-.764a.815.815 0 00-1.037-.558 1.624 1.624 0 01-.518.076c-.81 0-1.219-.417-1.219-1.238V5.313c0-.748.194-1.328.577-1.723.384-.397 1.014-.616 1.776-.616l7.77.003" fill="#313235" fill-rule="nonzero"/></svg>