<svg width="24" height="24" viewBox="0 0 24 24" xmlns="http://www.w3.org/2000/svg"><path d="M22.826 21.835l-4.514-.743V1.26l4.514.743v19.832zM1.172 2.006l4.75-.75v19.832l-4.75.75V2.006zm11.318.847l4.837-1.506v19.798l-4.837 1.503V2.853zM6.907 1.357l4.602 1.493V22.64L6.907 21.15V1.357zm16.49-.259L17.899.194c-.013-.003-.023.004-.033.004-.017 0-.027-.01-.044-.01-.034 0-.06.013-.09.016-.017.004-.038-.003-.054.004l-5.674 1.764L6.564.211c-.017-.007-.037 0-.054-.003-.033-.007-.064-.02-.097-.02-.014 0-.027.006-.044.01-.01 0-.024-.004-.034-.004l-5.73.904a.492.492 0 00-.417.488v20.827c0 .272.221.49.49.49.027 0 .05-.003.078-.006l5.616-.884 5.473 1.771a.469.469 0 00.295.004l5.711-1.775 5.385.887a.49.49 0 00.572-.484V1.586a.488.488 0 00-.41-.488z" fill="#313235" fill-rule="nonzero"/></svg>