<svg width="24" height="24" viewBox="0 0 24 24" xmlns="http://www.w3.org/2000/svg"><path d="M18.432 22.265a.527.527 0 01-.306.48c-.188.095-.403.071-.517-.01l-4.424-4.363a1.57 1.57 0 00-1.103-.447c-.396 0-.8.148-1.105.447L6.58 22.695a.543.543 0 01-.568.054.524.524 0 01-.303-.48V1.73c0-.295.242-.534.542-.534h11.643c.3 0 .541.239.541.534v20.535h-.003zM17.891.187H6.247c-.86 0-1.56.693-1.56 1.54v20.538c0 .591.333 1.122.871 1.385.538.262 1.166.201 1.69-.202l4.445-4.36a.556.556 0 01.773-.006l4.477 4.406a1.564 1.564 0 001.644.158c.537-.262.87-.793.87-1.385V1.724A1.562 1.562 0 0017.891.188z" fill="#313235" fill-rule="nonzero"/></svg>