<svg width="24" height="24" viewBox="0 0 24 24" xmlns="http://www.w3.org/2000/svg"><path d="M12.006 21.788c-.04 0-.076 0-.11-.002h-.014a2.034 2.034 0 01-.367-.054 3.275 3.275 0 01-1.207-.546c-.358-.257-.823-.697-1.143-1.025-1.622-1.672-2.568-2.857-3.753-4.7-1.485-2.297-2.502-4.58-3.025-6.779-.55-2.31-.11-4.221 1.243-5.378.785-.675 1.86-1.079 3.028-1.14 1.241-.062 2.53.255 3.729.921.422.233.857.485 1.333.765a.628.628 0 00.605.003c.473-.283.91-.532 1.336-.768 1.196-.666 2.487-.983 3.728-.921 1.168.059 2.241.465 3.028 1.137 1.35 1.157 1.79 3.067 1.241 5.381-.524 2.196-1.54 4.476-3.022 6.779-1.18 1.832-2.123 3.014-3.726 4.67l-.025.03c-.316.328-.784.77-1.143 1.025a3.275 3.275 0 01-1.207.546c-.12.028-.244.045-.367.054h-.014c-.04.002-.081.002-.129.002h-.02zM6.972 2.718c-.095 0-.19.003-.286.009-1.042.053-2 .409-2.692 1.003-.6.512-.991 1.196-1.168 2.028-.173.818-.137 1.759.11 2.795.51 2.137 1.5 4.359 2.946 6.605 1.177 1.83 2.073 2.95 3.684 4.614.3.31.74.725 1.067.96.3.219.639.373 1 .451l.008.003c.09.023.182.034.275.04h.008l.096.002h.002c.037 0 .068 0 .096-.003h.01c.093-.005.186-.016.275-.039l.009-.003a2.74 2.74 0 001-.45c.316-.23.74-.625 1.039-.933a.253.253 0 01.025-.028c1.614-1.664 2.507-2.785 3.686-4.614 1.449-2.25 2.44-4.47 2.95-6.605.247-1.036.283-1.977.11-2.795-.177-.832-.572-1.516-1.172-2.028-.691-.594-1.647-.95-2.691-1.003-1.138-.059-2.323.235-3.43.849-.42.232-.853.481-1.324.761l-.006.003a1.183 1.183 0 01-1.165-.003l-.003-.002c-.47-.28-.902-.527-1.319-.76-1.011-.562-2.092-.857-3.14-.857z" fill="#313235" fill-rule="nonzero"/></svg>