<svg width="24" height="24" viewBox="0 0 24 24" xmlns="http://www.w3.org/2000/svg"><path d="M4.725 12.977c.45 0 .767.314.767.767 0 .454-.313.768-.767.768-.451 0-.768-.317-.768-.768 0-.45.314-.767.768-.767zm15.863-.219a.411.411 0 01-.023-.58l.023-.022c.285-.26.437-.689.437-1.238 0-1.193-1.09-1.344-1.426-1.364h-3.482l-2.74-.081a.407.407 0 01-.394-.41s.008-2.453.008-4.316v-.022l.006-.123c0-1.135-.482-1.63-1.519-1.63-.54 0-.96.142-1.213.414-.238.255-.341.627-.305 1.112l.017.204c.011.087.017.169.022.27.003.016.003.033.006.05.025 1.173.042 2.68-.073 3.91-.18 1.86-1.927 2.88-2.6 3.207v.124c0 .016.006.03.006.047v7.81c0 .017-.002.03-.005.047v.076l2.753.036c.303 0 .622.09 1.02.205l.224.064c.762.224 1.625.477 3.787.477 3.768 0 3.919-.407 4.219-1.219.067-.445.036-.804-.118-1.09a.41.41 0 01.168-.554l.034-.017c.487-.204 1.067-.591 1.067-1.291 0-.457-.107-.827-.314-1.065a.405.405 0 01.042-.574c.011-.011.025-.02.036-.028.353-.24.774-.667.774-1.314.002-.47-.143-.846-.437-1.115zM6.095 20.551c.227 0 .414-.18.425-.409v-7.854a.427.427 0 00-.425-.406H3.4a.43.43 0 00-.429.431v7.81c0 .238.194.431.429.431l2.695-.003zm15.313-8.095c.233.316.435.779.435 1.42 0 .658-.286 1.266-.813 1.737.151.288.275.692.275 1.24 0 .782-.426 1.435-1.205 1.866.104.364.11.779.023 1.292-.524 1.431-1.238 1.826-5.003 1.826-2.283 0-3.244-.283-4.017-.51l-.21-.062c-.359-.1-.614-.173-.81-.173l-2.865-.037a.685.685 0 01-.25-.053 1.234 1.234 0 01-.873.362H3.4c-.686 0-1.244-.56-1.244-1.247V12.31c0-.686.558-1.246 1.244-1.246h2.695c.336 0 .638.134.862.35.521-.252 2.026-1.1 2.166-2.56.112-1.168.098-2.614.072-3.757a2.907 2.907 0 00-.025-.31l-.02-.233c-.05-.706.132-1.303.524-1.723.412-.442 1.037-.675 1.81-.675 1.482 0 2.333.866 2.333 2.37l-.002.095-.006.135c0 1.406-.006 3.143-.006 3.913l2.33.07h3.494c1.036.056 2.218.66 2.218 2.18-.002.719-.204 1.212-.437 1.537z" fill="#313235" fill-rule="nonzero"/></svg>