<svg width="24" height="24" viewBox="0 0 24 24" xmlns="http://www.w3.org/2000/svg"><path d="M13.109 5.549H2.974v.969h8.93c.227 0 .41.221.41.493v4.445c0 .275-.183.493-.41.493H2.977v1.995H20.75l.017.002c.104-.283.182-.577.21-.893.03-.336 0-.678-.076-1.023h-7.35c-.227 0-.409-.218-.409-.493V5.55c-.017.002-.03.002-.033 0zm7.442 5.495a6.541 6.541 0 00-.843-1.274c-2.44-2.938-4.605-3.83-5.748-4.1v5.372h6.591v.002zM18.974 16.3c.308-.243.84-.725 1.283-1.372H2.977v1.554c10.765 0 14.35.023 15.4.031a.87.87 0 00.597-.213zM2.977 10.963h2.384v-3.46H2.977v3.46zm3.199 0h2.283v-3.46h-2.28v3.46h-.003zm3.1 0h2.22v-3.46h-2.22v3.46zm-7.12 3.474l.003-.012v-2.96l-.003-.009v-6.4c0-.132.042-.258.12-.35a.372.372 0 01.29-.143h10.529c.112 0 3.372-.093 7.193 4.51 1.112 1.338 1.616 2.71 1.501 4.08-.165 1.956-1.552 3.328-2.361 3.97-.311.246-.67.378-1.042.378h-.014c-1.062-.011-4.726-.03-15.804-.03-.227 0-.409-.222-.409-.494v-2.532l-.003-.008zm19.278 3.991c.226 0 .409.221.409.493s-.183.493-.41.493H2.566c-.227 0-.409-.221-.409-.493s.182-.493.41-.493h18.868z" fill="#313235" fill-rule="nonzero"/></svg>