<svg width="24" height="24" viewBox="0 0 24 24" xmlns="http://www.w3.org/2000/svg"><path d="M16.188 13.582V5.438c0-2.827-1.418-4.259-4.212-4.259-2.793 0-4.211 1.432-4.211 4.259v8.148c0 2.823 1.418 4.259 4.211 4.259 2.794 0 4.212-1.436 4.212-4.263zM11.976.187c3.348 0 5.19 1.866 5.19 5.25v8.149c0 3.385-1.842 5.25-5.193 5.25-3.348 0-5.19-1.865-5.19-5.25V5.438c0-3.385 1.845-5.25 5.193-5.25zm.027 21.305c.632 0 1.146.517 1.146 1.16 0 .638-.514 1.159-1.146 1.159a1.155 1.155 0 01-1.146-1.16c0-.642.514-1.16 1.146-1.16zm3.993-1.16c.632 0 1.147.518 1.147 1.16 0 .638-.515 1.16-1.147 1.16a1.153 1.153 0 01-1.146-1.16c0-.642.515-1.16 1.146-1.16zm3.207-2.763c.632 0 1.146.518 1.146 1.16 0 .638-.514 1.16-1.146 1.16a1.155 1.155 0 01-1.146-1.16c0-.639.51-1.16 1.146-1.16zm1.146-3.946a.983.983 0 01.979.988.984.984 0 01-.979.992.984.984 0 01-.978-.992.981.981 0 01.978-.988zM7.953 20.332c.632 0 1.146.518 1.146 1.16 0 .638-.514 1.16-1.146 1.16a1.153 1.153 0 01-1.146-1.16c0-.642.514-1.16 1.146-1.16zm-3.204-2.763c.632 0 1.147.518 1.147 1.16 0 .638-.515 1.16-1.147 1.16a1.155 1.155 0 01-1.146-1.16c0-.639.514-1.16 1.146-1.16zm-.168-2.958a.984.984 0 01-.978.992.984.984 0 01-.978-.992.981.981 0 01.978-.988.981.981 0 01.978.988z" fill="#313235" fill-rule="nonzero"/></svg>