<svg width="64" height="64" viewBox="0 0 64 64" xmlns="http://www.w3.org/2000/svg"><path d="M43.168 36.22V14.5c0-7.538-3.782-11.357-11.231-11.357S20.705 6.963 20.705 14.501V36.23c0 7.53 3.783 11.357 11.232 11.357s11.231-3.828 11.231-11.366zM31.937.5c8.928 0 13.84 4.975 13.84 14.001V36.23c0 9.026-4.912 14.001-13.85 14.001-8.927 0-13.839-4.975-13.839-14.001V14.5C18.088 5.475 23.01.5 31.937.5zm.072 56.811c1.685 0 3.056 1.38 3.056 3.093 0 1.703-1.371 3.092-3.056 3.092a3.08 3.08 0 01-3.057-3.092c0-1.712 1.371-3.093 3.057-3.093zm10.648-3.092c1.685 0 3.057 1.38 3.057 3.092 0 1.703-1.372 3.093-3.057 3.093a3.074 3.074 0 01-3.056-3.093c0-1.712 1.371-3.092 3.056-3.092zm8.552-7.368c1.685 0 3.056 1.38 3.056 3.092 0 1.703-1.371 3.093-3.056 3.093a3.08 3.08 0 01-3.057-3.093c0-1.703 1.362-3.092 3.057-3.092zm3.056-10.524a2.622 2.622 0 012.609 2.636 2.624 2.624 0 01-2.609 2.644 2.624 2.624 0 01-2.608-2.644 2.617 2.617 0 012.608-2.636zM21.207 54.22c1.686 0 3.057 1.38 3.057 3.092 0 1.703-1.371 3.093-3.057 3.093a3.074 3.074 0 01-3.056-3.093c0-1.712 1.371-3.092 3.056-3.092zm-8.542-7.368c1.685 0 3.057 1.38 3.057 3.092 0 1.703-1.372 3.093-3.057 3.093a3.08 3.08 0 01-3.057-3.093c0-1.703 1.372-3.092 3.057-3.092zm-.448-7.888a2.624 2.624 0 01-2.608 2.644A2.624 2.624 0 017 38.963a2.617 2.617 0 012.609-2.636 2.617 2.617 0 012.608 2.636z" fill="#313235" fill-rule="nonzero"/></svg>