<svg width="64" height="64" viewBox="0 0 64 64" xmlns="http://www.w3.org/2000/svg"><path d="M36.772 41.326c1.075-.986 1.622-2.59 1.622-4.75 0-2.17-.556-3.765-1.631-4.769-1.04-.968-2.68-1.452-4.868-1.452-2.187 0-3.81.484-4.858 1.452-1.075.995-1.613 2.6-1.613 4.769s.538 3.764 1.613 4.75c1.04.96 2.671 1.444 4.858 1.444 2.197.008 3.837-.485 4.877-1.444zm-4.877-13.75c2.967 0 5.289.744 6.885 2.232 1.676 1.542 2.518 3.819 2.518 6.768s-.851 5.225-2.527 6.758c-1.596 1.47-3.918 2.223-6.884 2.223-2.958 0-5.28-.753-6.876-2.223-1.658-1.533-2.5-3.8-2.5-6.758s.842-5.235 2.5-6.768c1.614-1.488 3.926-2.232 6.884-2.232zm13.786 33.13v-1.228c0-2.125-.654-3.9-1.89-5.136-1.363-1.354-3.497-2.071-6.168-2.071H26.177c-2.662 0-4.787.717-6.15 2.07-1.227 1.229-1.873 3.003-1.873 5.137v1.228h27.527zm-8.058-11.214c3.478 0 6.328 1.013 8.256 2.931 1.774 1.757 2.707 4.195 2.707 7.055v2.993c0 .565-.475 1.022-1.067 1.022H16.308c-.592 0-1.067-.457-1.067-1.022v-2.993c0-2.869.932-5.307 2.68-7.055 1.918-1.918 4.778-2.93 8.247-2.93h11.455zm16.233-40.3a1.344 1.344 0 01-.116 1.963c-.278.242-.619.35-.968.35-.404 0-.79-.162-1.085-.458-7.771-8.318-19.765-7.753-19.881-7.753-12.728.143-19.612 7.189-19.684 7.26-.547.565-1.461.61-2.044.099-.591-.52-.645-1.39-.098-1.963.304-.323 7.744-8.013 21.727-8.166.484-.045 13.428-.672 22.15 8.668zm-22.13.475c.411-.027 10.657-.35 17.182 6.642a1.344 1.344 0 01-.116 1.963c-.592.502-1.515.466-2.044-.108-5.593-5.996-14.853-5.736-14.942-5.718-9.188.098-14.665 5.763-14.727 5.817a1.497 1.497 0 01-2.053.099 1.351 1.351 0 01-.108-1.963c.26-.26 6.347-6.615 16.807-6.732zm11.213 15.695a1.49 1.49 0 01-2.044-.116c-3.37-3.604-8.973-3.433-9.026-3.433-5.639.053-8.91 3.469-8.937 3.504-.278.314-.681.458-1.085.458-.35 0-.69-.117-.968-.35-.6-.511-.645-1.39-.107-1.963.17-.18 4.177-4.356 11.016-4.428.242.009 6.974-.242 11.276 4.365a1.352 1.352 0 01-.125 1.963z" fill="#313235" fill-rule="nonzero"/></svg>