<svg width="64" height="64" viewBox="0 0 64 64" xmlns="http://www.w3.org/2000/svg"><path d="M43.359.5c3.298 0 5.673.78 7.269 2.384 1.596 1.605 2.366 3.971 2.366 7.252v43.697c0 3.317-.78 5.701-2.384 7.297-1.586 1.577-3.962 2.34-7.251 2.34H20.636c-3.29 0-5.665-.763-7.252-2.34C11.78 59.543 11 57.15 11 53.833V10.136c0-3.227.78-5.584 2.375-7.198C14.998 1.298 17.373.5 20.635.5H43.36zm0 1.793H20.636c-2.76 0-4.715.618-5.988 1.9-1.255 1.264-1.864 3.209-1.864 5.943v43.697c0 5.576 2.277 7.843 7.843 7.843H43.35c5.575 0 7.843-2.267 7.843-7.843V10.136c0-2.788-.6-4.75-1.838-5.988-1.237-1.237-3.2-1.855-5.996-1.855zm-11.34 48.35c1.614 0 2.654.85 2.654 2.67 0 .879-.233 1.524-.663 1.963-.467.476-1.148.709-1.99.709-.843 0-1.524-.233-1.99-.709-.43-.439-.673-1.084-.673-1.963 0-1.82 1.05-2.67 2.663-2.67z" fill="#313235" fill-rule="nonzero"/></svg>