<svg width="64" height="64" viewBox="0 0 64 64" xmlns="http://www.w3.org/2000/svg"><path d="M60.87 52.094V11.902c0-3.021-.681-5.2-2.125-6.624-1.416-1.444-3.594-2.152-6.642-2.152H32.025c-2.994 0-5.172.708-6.615 2.205-1.443 1.444-2.151 3.604-2.151 6.57v1.551c9.895 1.13 15.57 7.279 15.57 18.994 0 11.689-5.675 17.838-15.544 18.967v1.865c.153 2.42.86 4.23 2.125 5.494 1.416 1.417 3.594 2.107 6.615 2.107h20.078c3.048 0 5.2-.682 6.642-2.107 1.444-1.452 2.125-3.63 2.125-6.678zm-41.206-3.101c11.124 0 16.538-5.414 16.538-16.547 0-11.133-5.414-16.582-16.538-16.582-11.133 0-16.538 5.44-16.538 16.582s5.405 16.547 16.538 16.547zM60.61 3.413c1.945 1.972 2.886 4.733 2.886 8.489v40.192c0 3.783-.941 6.598-2.913 8.534-1.945 1.945-4.724 2.868-8.48 2.868H32.025c-3.756 0-6.508-.923-8.48-2.868-1.73-1.73-2.68-4.124-2.859-7.279l-.027-1.757c-.34.027-.654.027-.995.027C7.564 51.62.5 45.497.5 32.446c0-13.087 7.063-19.209 19.164-19.209.314 0 .654 0 .968.027v-1.362c0-3.675.941-6.436 2.913-8.435C25.517 1.468 28.296.5 32.025.5h20.078c3.783 0 6.562.941 8.507 2.913zM42.073 48.204c2.124 0 3.388 1.264 3.388 3.415 0 1.022-.286 1.865-.87 2.474-.6.628-1.47.941-2.518.941-1.049 0-1.918-.313-2.519-.94-.573-.601-.896-1.444-.896-2.475.009-2.15 1.29-3.415 3.415-3.415zM13.865 23.69a1.31 1.31 0 011.308 1.308v15.4a1.31 1.31 0 01-1.308 1.309 1.316 1.316 0 01-1.309-1.31v-15.39c0-.726.592-1.317 1.309-1.317zm11.16-.054c.725 0 1.308.592 1.308 1.318v15.39a1.31 1.31 0 01-1.309 1.309 1.31 1.31 0 01-1.308-1.309v-15.39c0-.726.582-1.309 1.308-1.318z" fill="#313235" fill-rule="nonzero"/></svg>