<svg width="24" height="24" viewBox="0 0 24 24" xmlns="http://www.w3.org/2000/svg"><path d="M7.672 14.952c.33 0 .549.218.549.53 0 .347-.213.557-.53.557-.336 0-.549-.21-.549-.521v-.037c0-.31.219-.53.53-.53zm1.59-5.986c.424.31.62.74.62 1.35 0 .742-.308 1.182-1.006 2.011-.793.916-.82.95-.82 1.801a.264.264 0 01-.267.266h-.263a.264.264 0 01-.26-.215 1.763 1.763 0 01-.034-.384c0-.656.23-1.04.742-1.658l.098-.118c.832-.986.989-1.258.989-1.717 0-.322-.092-.532-.308-.706-.123-.1-.345-.213-.952-.213-.334 0-.628.04-.984.129a.27.27 0 01-.325-.196l-.002-.011-.04-.205A.269.269 0 016.6 8.81c.23-.11.787-.221 1.32-.221.562.002 1.016.128 1.344.378zm11.76 9.316V5.716c0-.944-.213-1.616-.664-2.067-.451-.45-1.123-.672-2.076-.672h-6.274c-.936 0-1.616.23-2.067.69-.451.458-.673 1.122-.673 2.05v.492c3.093.362 4.866 2.275 4.866 5.925s-1.773 5.563-4.857 5.924v.583c.05.753.263 1.322.664 1.714.442.443 1.123.667 2.067.667h6.274c.944 0 1.625-.224 2.076-.667.45-.442.664-1.123.664-2.073zm-12.877-.977c3.479 0 5.168-1.692 5.168-5.171 0-3.48-1.689-5.171-5.168-5.171s-5.168 1.692-5.168 5.17c0 3.48 1.69 5.172 5.168 5.172zm12.796-14.23c.607.608.902 1.476.902 2.641v12.566c0 1.182-.295 2.05-.91 2.659-.609.607-1.477.904-2.65.904h-6.275c-1.174 0-2.037-.297-2.65-.902-.54-.54-.835-1.28-.902-2.271v-.55c-.106 0-.205.009-.311.009-3.784-.006-5.989-1.91-5.989-5.997 0-4.079 2.205-5.992 5.989-5.992.106 0 .205.009.303.009v-.435c0-1.148.294-2.01.91-2.627.613-.63 1.485-.933 2.65-.933h6.274c1.182 0 2.05.303 2.659.919zm-6.58 15.826c-.185-.187-.278-.448-.278-.776 0-.669.398-1.067 1.065-1.067.667 0 1.064.4 1.064 1.067 0 .328-.092.589-.277.776-.188.194-.46.294-.787.294-.328 0-.6-.103-.787-.294z" fill="#313235" fill-rule="nonzero"/></svg>