<svg width="24" height="24" viewBox="0 0 24 24" xmlns="http://www.w3.org/2000/svg"><path d="M6.806 15.542c.397 0 .659.262.659.635 0 .417-.256.67-.635.67-.404 0-.66-.253-.66-.626v-.044c0-.373.263-.635.636-.635zm1.91-7.183c.507.373.742.887.742 1.62 0 .89-.37 1.419-1.207 2.414-.95 1.099-.985 1.139-.985 2.16 0 .179-.14.32-.319.32h-.316a.317.317 0 01-.312-.259 2.115 2.115 0 01-.04-.46c0-.787.275-1.247.89-1.99l.118-.141c.998-1.183 1.186-1.51 1.186-2.06 0-.387-.11-.64-.37-.848-.147-.12-.413-.255-1.142-.255-.4 0-.753.047-1.18.154a.323.323 0 01-.39-.235l-.003-.013-.048-.246a.323.323 0 01.179-.35c.275-.13.944-.265 1.583-.265.675.004 1.22.155 1.613.454zm14.11 11.18V4.459c0-1.132-.255-1.939-.796-2.48-.542-.541-1.348-.807-2.491-.807h-7.53c-1.122 0-1.94.276-2.48.827-.541.552-.807 1.348-.807 2.46v.592c3.71.434 5.839 2.73 5.839 7.11 0 4.38-2.128 6.675-5.829 7.109v.699c.06.904.316 1.587.797 2.057.53.531 1.348.8 2.48.8h7.53c1.133 0 1.95-.269 2.49-.8.542-.53.797-1.348.797-2.487zM7.374 18.366c4.175 0 6.202-2.03 6.202-6.205 0-4.175-2.027-6.205-6.202-6.205s-6.202 2.03-6.202 6.205c0 4.174 2.027 6.205 6.202 6.205zM22.73 1.29c.73.73 1.082 1.771 1.082 3.17v15.079c0 1.418-.353 2.46-1.092 3.19-.73.73-1.772 1.085-3.18 1.085h-7.53c-1.408 0-2.443-.356-3.18-1.082-.648-.649-1.001-1.536-1.082-2.726v-.659c-.128 0-.245.01-.373.01-4.541-.006-7.186-2.292-7.186-7.196 0-4.895 2.645-7.19 7.186-7.19.128 0 .245.01.363.01V4.46c0-1.378.353-2.414 1.093-3.153C9.566.55 10.61.187 12.01.187h7.529c1.418 0 2.46.364 3.19 1.103zm-7.896 18.992c-.222-.226-.333-.538-.333-.931 0-.804.477-1.281 1.277-1.281.8 0 1.278.48 1.278 1.28 0 .394-.111.706-.333.932-.225.232-.551.353-.945.353-.393 0-.719-.125-.944-.353z" fill="#313235" fill-rule="nonzero"/></svg>