<svg width="24" height="24" viewBox="0 0 24 24" xmlns="http://www.w3.org/2000/svg"><path d="M13.303 19.539c.185 0 .337.151.337.336a.337.337 0 01-.337.336H6.75a.337.337 0 01-.336-.336c0-.185.151-.336.336-.336h6.554zm2.942-15.752c1.216 0 2.14.353 2.75 1.05.57.655.863 1.623.863 2.877v.341l1.765.001c.736 0 1.27.179 1.637.545.363.366.54.9.54 1.634v7.788c0 1.469-.712 2.181-2.177 2.181h-3.526c-1.466 0-2.178-.712-2.178-2.178v-.457H3.8c-1.217 0-2.141-.353-2.75-1.049-.571-.655-.863-1.623-.863-2.877v-5.93c0-1.253.289-2.221.863-2.877.609-.696 1.533-1.049 2.75-1.049h12.444zm5.378 4.945h-3.526c-1.07 0-1.506.437-1.506 1.506v7.788c0 1.086.423 1.506 1.506 1.506h3.526c1.086 0 1.506-.423 1.506-1.506v-7.788c0-1.086-.424-1.506-1.506-1.506zm-1.762 8.622c.34 0 .558.178.562.565 0 .184-.05.319-.141.413-.101.1-.242.148-.42.148-.179 0-.323-.047-.42-.148-.091-.09-.142-.229-.142-.413 0-.387.222-.565.561-.565zM16.245 4.456H3.8C1.794 4.456.86 5.492.86 7.714v5.926c0 2.221.934 3.257 2.94 3.257H15.92v-6.66c0-.722.178-1.25.544-1.623.37-.373.904-.558 1.634-.558h1.088v-.342c0-2.222-.934-3.258-2.94-3.258z" fill="#313235" fill-rule="nonzero"/></svg>