<svg width="24" height="24" viewBox="0 0 24 24" xmlns="http://www.w3.org/2000/svg"><path d="M11.715.278a.495.495 0 01.572 0l11.31 7.883a.509.509 0 01.192.564.497.497 0 01-.477.353h-2.454v10.128h2.39c.276 0 .501.225.501.504v3.604a.5.5 0 01-.5.504H.753a.503.503 0 01-.5-.504V19.71a.5.5 0 01.5-.504h2.43V9.078H.69a.501.501 0 01-.48-.353.506.506 0 01.195-.564zm11.03 19.936H1.254v2.595h21.49v-2.595zM6.124 9.078H4.187v10.128h1.94V9.078zm10.79 0h-2.92v10.128h2.92V9.078zm-3.922 0h-1.94v10.128h1.94V9.078zm-2.945 0h-2.92v10.128h2.92V9.078zm9.809 0h-1.94v10.128h1.94V9.078zM12 1.307L2.291 8.07h1.384l.01-.004.01.004h2.921l.01-.004c.004 0 .007.004.01.004h3.903l.01-.004.01.004h2.921l.01-.004.01.004h3.903l.01-.004.01.004h2.921l.01-.004.01.004h1.345L12 1.307z" fill="#313235" fill-rule="nonzero"/></svg>