<svg width="24" height="24" viewBox="0 0 24 24" xmlns="http://www.w3.org/2000/svg"><path d="M20.485 12.377h.306a.439.439 0 100-.88h-.188l1.112-1.112a.436.436 0 000-.622.441.441 0 00-.622 0L19.357 11.5H18.19l.586-.585a.441.441 0 000-.622.441.441 0 00-.622 0L16.948 11.5H13.11l3.678-3.678h2.266a.439.439 0 100-.88H17.67l.093-.092a.436.436 0 000-.622.436.436 0 00-.622 0l-.02.02V5.01a.439.439 0 10-.88 0v2.12l-3.8 3.79V7.156l1.288-1.289a.441.441 0 000-.622.441.441 0 00-.622 0l-.666.667v-1.21l1.795-1.796a.436.436 0 000-.622.441.441 0 00-.622 0l-1.17 1.171V3.15a.439.439 0 10-.88 0v.305l-1.171-1.17a.441.441 0 00-.622 0 .441.441 0 000 .621l1.796 1.796v1.092l-.55-.549a.441.441 0 00-.621 0 .441.441 0 000 .622l1.17 1.174v3.837L7.89 7.2V5.007a.439.439 0 10-.88 0v1.311l-.092-.092a.436.436 0 00-.622 0 .441.441 0 000 .621l.092.093h-1.31a.439.439 0 100 .88H7.27l3.678 3.677H7.174L5.967 10.29a.441.441 0 00-.622 0 .436.436 0 000 .622l.586.585H4.648L2.91 9.761a.441.441 0 00-.622 0 .436.436 0 000 .621l1.112 1.112h-.187a.439.439 0 100 .88h.302l-1.23 1.23a.44.44 0 00.311.753.432.432 0 00.311-.129l1.855-1.851h1.21l-.63.63a.436.436 0 000 .622.437.437 0 00.621 0l1.252-1.252h3.765l-3.795 3.795h-2.12a.439.439 0 100 .88h1.237l-.02.02a.441.441 0 00.312.75.432.432 0 00.31-.129l.093-.092v1.384a.439.439 0 10.88 0v-2.266l3.677-3.678v3.837l-1.17 1.171a.441.441 0 000 .622c.17.174.45.174.621 0l.55-.55v1.166L9.76 21.083a.441.441 0 000 .622c.17.17.45.17.622 0l1.17-1.171v.187a.439.439 0 10.88 0v-.187l1.171 1.17a.449.449 0 00.311.13.432.432 0 00.31-.13.436.436 0 000-.621l-1.795-1.796v-1.283l.667.664a.437.437 0 00.622 0 .441.441 0 000-.622l-1.289-1.288v-3.765l3.796 3.796v2.19a.439.439 0 10.88 0v-1.31l.019.019a.437.437 0 00.622 0 .436.436 0 000-.622l-.02-.02h1.311a.439.439 0 100-.88h-2.19l-3.782-3.79h3.838l1.252 1.253a.437.437 0 00.622 0 .441.441 0 000-.622l-.63-.63h1.092l1.851 1.854a.437.437 0 00.622 0 .44.44 0 000-.624l-1.227-1.23z" fill="#313235" fill-rule="nonzero"/></svg>