<svg width="24" height="24" viewBox="0 0 24 24" xmlns="http://www.w3.org/2000/svg"><path d="M13.431 18.652a.493.493 0 01.686 0 .47.47 0 010 .672c-.645.632-1.338.961-2.057.971h-.04c-.733 0-1.44-.326-2.098-.975a.47.47 0 010-.672.493.493 0 01.686 0c.48.47.985.683 1.438.696.454-.007.921-.239 1.385-.692zm8.024-1.305c.517-.006 1.388-.205 1.388-1.445 0-1.237-.86-1.432-1.371-1.435-.098 0-.162 0-.26.003-.03.945-.097 1.845-.265 2.844a.3.3 0 00.108.017c.127.016.191.016.235.02l.165-.004zm-1.2-3.18v-2.336a29.9 29.9 0 00-.027-.584H3.683l-.006.594.013 2.333c.145 5.389 1.587 7.684 4.81 7.684.198 0 .383-.01.568-.023h5.788c.424.023.79.027 1.16 0h.141c.03-.01.06-.017.094-.02 2.599-.26 3.87-2.69 4.004-7.647zM8.497 4.165c-3.274 0-4.562 1.62-4.783 6.135h3.684c.16-2.155.884-3.856 2.16-5.066.357-.34.754-.635 1.19-.887a11.017 11.017 0 00-1.945-.168l-.078-.004c-.097-.006-.127-.01-.228-.01zm3.67.568c-.746.286-1.395.676-1.93 1.183C9.153 6.944 8.53 8.42 8.38 10.3h7.58c-.155-1.883-.777-3.355-1.859-4.384a5.678 5.678 0 00-1.933-1.183zm3.362-.558c-.7 0-1.345.06-1.947.168.434.256.83.548 1.19.888 1.274 1.21 2 2.91 2.162 5.065h3.233c-.346-3.912-1.606-5.865-3.919-6.1a4.018 4.018 0 00-.118-.01l-.087-.01c-.185-.01-.29-.004-.454-.007h-.06v.006zM2.709 17.347c.04 0 .205-.01.295-.02-.168-.961-.238-1.946-.269-2.867-.084.003-.13.003-.205.003-.51.004-1.371.199-1.371 1.436 0 1.24.87 1.438 1.388 1.445l.162.003zm18.773-3.832c1.075.01 2.329.642 2.329 2.384 0 1.74-1.26 2.38-2.343 2.396h-.195c-.067 0-.171-.006-.296-.02-.077-.01-.137-.03-.218-.047-.545 2.266-1.708 4.192-4.262 4.518a.44.44 0 01-.188.04h-.266a7.796 7.796 0 01-1.224 0H9.1c-.172.013-.38.024-.599.024-3.244 0-4.669-2.078-5.294-4.548-.145.016-.417.033-.48.037H2.53c-1.079-.017-2.34-.652-2.34-2.397 0-1.745 1.255-2.373 2.33-2.383h.004c.07 0 .117.003.195.007l-.01-1.688.006-.588H.672a.478.478 0 01-.485-.474.48.48 0 01.485-.474h2.073c.199-4.279 1.328-7.09 5.755-7.09.222 0 .427.011.632.011l1.9.017c-.176-.209-.28-.48-.28-.84 0-.407.111-.72.336-.932.215-.205.528-.305.925-.305.396 0 .709.104.927.305.226.212.34.528.34.931 0 .36-.104.632-.28.84h1.853c.34-.026.817-.026 1.224 0l.218.014c.067.007.145.017.212.027 4.027.525 4.622 5.12 4.712 8.548v1.694c.118-.003.158 0 .263-.007zm-12.407-.35a.48.48 0 01.484.475v2.222a.48.48 0 01-.484.474.478.478 0 01-.484-.474V13.64a.48.48 0 01.484-.474zm5.788 0a.48.48 0 01.484.475v2.222a.48.48 0 01-.484.474.478.478 0 01-.484-.474V13.64a.48.48 0 01.484-.474z" fill="#313235" fill-rule="nonzero"/></svg>