<svg width="24" height="24" viewBox="0 0 24 24" xmlns="http://www.w3.org/2000/svg"><path d="M13.193 17.543a.411.411 0 01.571 0 .392.392 0 010 .56c-.538.527-1.115.801-1.714.81h-.034c-.61 0-1.199-.272-1.748-.813a.392.392 0 010-.56.411.411 0 01.572 0c.4.392.82.569 1.199.58.378-.006.767-.199 1.154-.577zm6.686-1.087c.431-.005 1.157-.17 1.157-1.204 0-1.031-.717-1.194-1.143-1.196-.081 0-.135 0-.216.002a17.153 17.153 0 01-.221 2.37.25.25 0 00.09.014c.106.014.16.014.196.017l.137-.003zm-1-2.65V11.86a24.918 24.918 0 00-.022-.488H5.069l-.005.496.011 1.944c.12 4.49 1.322 6.403 4.008 6.403.166 0 .32-.008.474-.02h4.823c.353.02.659.023.967 0h.117a.355.355 0 01.079-.016c2.165-.216 3.224-2.241 3.336-6.373zM9.08 5.47c-2.729 0-3.802 1.35-3.986 5.112h3.07c.134-1.795.736-3.213 1.8-4.221.298-.283.628-.53.992-.74a9.181 9.181 0 00-1.621-.14L9.27 5.48c-.081-.006-.106-.009-.19-.009zm3.058.474a4.79 4.79 0 00-1.607.986c-.905.857-1.423 2.086-1.55 3.652H15.3c-.129-1.568-.647-2.795-1.549-3.652a4.732 4.732 0 00-1.61-.986zm2.802-.465c-.583 0-1.12.05-1.622.14.361.212.692.456.991.74 1.062 1.008 1.667 2.425 1.801 4.22h2.695c-.288-3.26-1.339-4.888-3.266-5.084a3.349 3.349 0 00-.098-.008l-.073-.008c-.154-.009-.24-.003-.378-.006h-.05v.006zM4.257 16.456c.034 0 .171-.008.247-.017a17.28 17.28 0 01-.225-2.389c-.07.003-.109.003-.17.003-.426.003-1.143.165-1.143 1.196 0 1.033.725 1.199 1.157 1.204l.134.003zm15.644-3.193c.897.008 1.942.535 1.942 1.986 0 1.45-1.05 1.983-1.953 1.997h-.162a2.51 2.51 0 01-.247-.017c-.064-.008-.115-.025-.182-.039-.454 1.888-1.423 3.493-3.552 3.765a.367.367 0 01-.157.033h-.22a6.496 6.496 0 01-1.02 0H9.582c-.143.012-.317.02-.499.02-2.703 0-3.89-1.731-4.411-3.79-.12.014-.348.028-.4.03h-.163c-.9-.013-1.95-.543-1.95-1.996 0-1.454 1.045-1.978 1.941-1.986h.003c.059 0 .098.002.162.005l-.008-1.406.006-.49H2.56a.398.398 0 01-.404-.395.4.4 0 01.404-.395h1.728c.165-3.566 1.106-5.908 4.795-5.908.185 0 .356.009.527.009l1.583.014c-.146-.174-.233-.4-.233-.7 0-.34.093-.6.28-.776.18-.171.44-.255.77-.255.331 0 .592.087.774.255.187.176.283.44.283.776 0 .3-.087.526-.233.7h1.544c.282-.023.68-.023 1.02 0l.181.011.177.022c3.355.437 3.851 4.267 3.927 7.124v1.411c.098-.002.132 0 .218-.005zm-10.339-.291a.4.4 0 01.404.395v1.851a.4.4 0 01-.404.395.398.398 0 01-.403-.395v-1.851a.4.4 0 01.403-.395zm4.824 0a.4.4 0 01.403.395v1.851a.4.4 0 01-.403.395.398.398 0 01-.403-.395v-1.851a.4.4 0 01.403-.395z" fill="#313235" fill-rule="nonzero"/></svg>