<svg width="24" height="24" viewBox="0 0 24 24" xmlns="http://www.w3.org/2000/svg"><g fill="#313235" fill-rule="nonzero"><path d="M12.01 21.765c-.57 0-.934-.666-1.29-1.31-.212-.387-.504-.916-.716-.973-.23-.061-.765.261-1.152.496-.644.39-1.252.757-1.725.482-.482-.277-.465-.994-.448-1.753.008-.449.022-1.065-.14-1.227-.163-.163-.78-.152-1.227-.14-.76.016-1.477.03-1.754-.449-.274-.476.093-1.084.48-1.728.234-.39.557-.921.495-1.151-.056-.213-.586-.504-.972-.717-.644-.353-1.311-.72-1.311-1.286 0-.566.667-.933 1.31-1.288.387-.213.917-.505.973-.717.062-.23-.26-.765-.496-1.152-.39-.644-.756-1.252-.482-1.725.278-.482.995-.465 1.754-.448.448.008 1.064.022 1.227-.14.162-.163.151-.78.14-1.227-.017-.76-.031-1.477.448-1.754.473-.274 1.081.093 1.725.482.39.235.922.557 1.152.496.213-.056.504-.586.717-.972.358-.647.722-1.314 1.291-1.314s.933.667 1.286 1.31c.213.387.504.917.717.973.232.062.765-.26 1.151-.496.644-.39 1.252-.756 1.726-.482.481.278.465.995.448 1.754-.009.448-.023 1.064.14 1.227.162.162.779.151 1.227.14.759-.017 1.476-.031 1.753.448.275.473-.092 1.081-.482 1.725-.235.39-.557.922-.495 1.152.056.213.585.504.972.717.644.353 1.31.72 1.31 1.288 0 .569-.663.936-1.308 1.289-.386.213-.915.504-.972.717-.061.232.261.765.496 1.151.39.644.757 1.252.482 1.726-.277.481-.994.465-1.753.448-.449-.009-1.065-.023-1.227.14-.163.162-.152.779-.14 1.227.016.759.03 1.476-.449 1.753-.473.275-1.08-.092-1.725-.482-.39-.235-.922-.557-1.151-.495-.213.056-.504.585-.717.972-.356.65-.723 1.313-1.289 1.313zm-2.068-2.848c.07 0 .14.008.207.025.446.118.745.667 1.062 1.244.224.406.56 1.02.795 1.02.236 0 .575-.614.796-1.02.32-.58.619-1.126 1.061-1.244.463-.123 1.009.207 1.586.557.386.233.966.586 1.154.476.193-.112.18-.8.17-1.257-.013-.67-.027-1.303.306-1.636.333-.333.967-.32 1.636-.305.457.008 1.146.025 1.258-.171.109-.188-.244-.77-.477-1.154-.35-.58-.68-1.126-.557-1.586.118-.445.667-.745 1.244-1.061.406-.224 1.02-.56 1.02-.796 0-.235-.614-.574-1.02-.795-.58-.32-1.126-.62-1.244-1.062-.123-.462.207-1.008.557-1.585.233-.387.586-.97.477-1.155-.112-.193-.801-.179-1.258-.17-.67.014-1.303.028-1.636-.306-.333-.333-.32-.963-.305-1.636.008-.456.025-1.142-.171-1.254-.188-.11-.77.243-1.154.476-.58.35-1.126.68-1.586.557-.445-.118-.745-.667-1.061-1.244-.224-.406-.56-1.02-.796-1.02-.235 0-.571.609-.792 1.015-.32.58-.62 1.126-1.065 1.244-.462.123-1.008-.208-1.585-.558-.387-.232-.97-.585-1.154-.476-.194.112-.18.801-.171 1.258.014.67.028 1.302-.306 1.635-.333.334-.963.32-1.635.306-.457-.011-1.146-.025-1.258.17-.11.188.244.771.476 1.155.35.577.68 1.126.558 1.585-.118.446-.667.745-1.244 1.065-.406.224-1.02.56-1.02.795s.614.574 1.02.796c.58.319 1.126.619 1.244 1.061.123.462-.208 1.009-.558 1.586-.232.386-.585.966-.476 1.154.112.193.801.179 1.258.17.67-.013 1.302-.027 1.635.306.334.333.32.964.306 1.633-.011.457-.025 1.146.17 1.258.188.109.771-.244 1.155-.477.493-.296.963-.58 1.378-.58z"/><path d="M16.761 18.881H6.033a3.882 3.882 0 01-3.877-3.876c0-.863.3-1.69.869-2.393a4.053 4.053 0 012.03-1.358.623.623 0 00.138-.05c.016-3.524 2.431-6.079 5.75-6.079a6.11 6.11 0 015.569 3.61l.006.012.033-.003a5.079 5.079 0 015.286 5.067 5.077 5.077 0 01-5.076 5.07zM10.943 5.685c-1.467 0-2.792.558-3.736 1.572C6.263 8.27 5.75 9.682 5.75 11.24c0 .398-.409.515-.543.552a3.49 3.49 0 00-1.748 1.173 3.22 3.22 0 00-.743 2.04 3.32 3.32 0 003.317 3.316h10.728a4.519 4.519 0 004.513-4.513 4.516 4.516 0 00-4.51-4.512c-.062 0-.12.003-.188.005l-.12.006c-.207.006-.359-.104-.448-.328-.003-.005-.003-.01-.006-.016a5.555 5.555 0 00-5.059-3.278z"/></g></svg>