<svg width="24" height="24" viewBox="0 0 24 24" xmlns="http://www.w3.org/2000/svg"><path d="M12.408 2.156c1.577.05 9.435.63 9.435 9.843s-7.827 9.844-9.401 9.844h-.877c-8.958-.115-9.409-8.202-9.409-9.844 0-1.641.451-9.762 9.342-9.843zm-.016.821h-.886c-1.969 0-8.532.753-8.532 9.022 0 8.27 6.563 9.023 8.614 9.023h.846c2.028 0 8.588-.82 8.588-9.023 0-8.201-6.563-8.966-8.63-9.022zM8.957 8.201c1.238 0 2.748.664 2.748 3.798 0 3.135-1.476 3.799-2.714 3.799-1.812 0-2.731-1.28-2.731-3.799 0-3.134 1.45-3.798 2.697-3.798zm4.182.132c.101 0 .197.047.255.131l3.524 5.289V8.635c0-.157.123-.288.28-.302h.3c.162.003.291.14.286.302v6.737a.301.301 0 01-.303.302h-.23a.303.303 0 01-.254-.14l-3.488-5.283v5.11c0 .17-.14.31-.31.31h-.28a.31.31 0 01-.303-.31V8.635c0-.165.134-.302.302-.302zm-4.182.778c-.834 0-1.795.353-1.795 2.905 0 2.552.975 2.88 1.795 2.88.827 0 1.787-.303 1.787-2.88s-.95-2.905-1.787-2.905z" fill="#313235" fill-rule="nonzero"/></svg>