<svg width="24" height="24" viewBox="0 0 24 24" xmlns="http://www.w3.org/2000/svg"><path d="M3.982 18.542c-1.25 0-2.208-.34-2.857-1.008-.622-.645-.938-1.583-.938-2.783V7.218c0-1.2.316-2.131.938-2.766.642-.66 1.604-.992 2.854-.992l16.027-.01c1.25 0 2.212.333 2.854.992.622.638.938 1.57.938 2.766v7.533c0 1.2-.316 2.138-.938 2.783-.646.669-1.607 1.008-2.857 1.008l-16.02.01zM20.01 4.122l-16.027.01C1.882 4.132.86 5.141.86 7.218v7.533c0 1.022.252 1.798.75 2.316.514.534 1.31.803 2.372.803l16.027-.01c1.06 0 1.86-.269 2.373-.803.498-.515.75-1.294.75-2.316V7.208c-.003-2.077-1.025-3.086-3.123-3.086zM.524 20.52a.337.337 0 01-.337-.336c0-.185.152-.336.337-.336l22.94-.01c.186 0 .337.15.337.336a.337.337 0 01-.336.336l-22.941.01z" fill="#313235" fill-rule="nonzero"/></svg>