<svg width="24" height="24" viewBox="0 0 24 24" xmlns="http://www.w3.org/2000/svg"><path d="M19.86 22.362V8.114h-3.055c-1.17 0-2.171-.387-2.907-1.103-.736-.726-1.13-1.708-1.13-2.86V1.182H4.59c-.215 0-.48.25-.48.458v6.91l.05 9.782-.05 4.04c0 .219.245.447.48.447h14.79c.245 0 .48-.218.48-.457zM13.754 1.398v2.75c0 .873.286 1.62.837 2.144.541.534 1.318.823 2.219.823h2.786l-5.842-5.717zm7.052 5.69c.02.07.04.128.04.199v15.072c0 .783-.678 1.449-1.462 1.449H4.593c-.776 0-1.462-.676-1.462-1.45l.05-4.03-.05-9.77V1.635c0-.756.7-1.448 1.462-1.448h9.005c.209 0 .424.09.569.238L20.6 6.702a.917.917 0 01.205.386zm-4.961 9.066c0 .528-.373.904-.874.904-.521 0-.894-.376-.894-.884v-.02c0-.498.383-.894.874-.894.51.003.894.4.894.894zm-3.29 0c0 .528-.384.904-.885.904-.51 0-.894-.376-.894-.884v-.02c0-.498.383-.894.884-.894a.89.89 0 01.894.894zm-3.298 0c0 .528-.384.904-.884.904-.511 0-.895-.376-.895-.884v-.02c0-.498.394-.894.885-.894.51.003.894.4.894.894z" fill="#313235" fill-rule="nonzero"/></svg>