<svg width="24" height="24" viewBox="0 0 24 24" xmlns="http://www.w3.org/2000/svg"><path d="M17.014.188c.054 0 .105.012.15.035a.36.36 0 01.089.062l6.403 6.403a.334.334 0 01.099.229l-.001.013v15.846c0 .679-.39 1.072-1.069 1.072l-.584-.003H6.99c-.71 0-1.103-.397-1.103-1.11v-8.268c-1.755-.06-3.134-.56-4.094-1.486C.73 11.952.187 10.413.187 8.406S.73 4.86 1.794 3.831c.96-.929 2.34-1.427 4.098-1.486V1.287c0-.693.4-1.093 1.099-1.093l.362-.002H7.785L8.14.19h.196L8.992.19h.238l1.313-.001h.283l6.188-.002zm-.337.675H10.79L8.531.865h-.206L7.48.866H7.35l-.36.001c-.325 0-.426.098-.426.42v1.058h.023c1.769.055 3.157.554 4.122 1.487 1.065 1.029 1.606 2.568 1.606 4.575s-.54 3.546-1.606 4.575c-.97.935-2.364 1.436-4.148 1.488v8.266c0 .343.094.437.43.437h15.694c.306 0 .397-.094.4-.4V7.266h-3.061l-.231-.001h-.096l-.152-.001h-.057c-.84-.004-1.52-.293-2-.822-.52-.573-.806-1.428-.81-2.51V.862zm3.134 17.718c.185 0 .336.151.336.336a.337.337 0 01-.336.336H9.875a.337.337 0 01-.336-.336c0-.185.151-.336.336-.336h9.936zm.003-3.933c.185 0 .337.151.337.336a.34.34 0 01-.34.336h-8.548a.337.337 0 01-.336-.336c0-.185.151-.336.336-.336h8.551zM6.251 3.011c-1.75 0-3.092.44-3.993 1.304C1.327 5.213.856 6.587.856 8.406c0 1.818.471 3.193 1.402 4.09.898.868 2.242 1.305 3.993 1.305 1.752 0 3.093-.437 3.994-1.304.927-.898 1.401-2.273 1.401-4.091 0-1.819-.47-3.193-1.401-4.09C9.347 3.447 8.003 3.01 6.25 3.01zm-.05 1.264c.185 0 .336.151.336.336v.362a3.11 3.11 0 011.294.421c.162.098.249.239.249.39a.405.405 0 01-.403.404.618.618 0 01-.256-.071l-.003-.003a2.767 2.767 0 00-.88-.32l-.002 2.159.052.007c.88.136 1.868.574 1.868 1.84.006 1.095-.718 1.819-1.918 1.966v.623a.337.337 0 01-.337.336.337.337 0 01-.336-.336v-.603l-.04-.002a3.629 3.629 0 01-1.799-.635.436.436 0 01-.205-.377.417.417 0 01.424-.413.51.51 0 01.279.09c.446.298.894.471 1.34.52V8.71l-.136-.021c-1.442-.253-1.752-1.11-1.752-1.801 0-1.099.732-1.834 1.888-1.927v-.349c0-.185.152-.336.337-.336zm13.61 6.44c.185 0 .336.151.336.336a.337.337 0 01-.336.336h-6.403a.337.337 0 01-.336-.336c0-.185.15-.336.336-.336h6.403zM6.539 8.805l-.001 2.147c.679-.113 1.085-.52 1.085-1.114 0-.407-.136-.841-1.084-1.033zM4.809 6.84c0 .375.128.819 1.054 1.014V5.77c-.655.074-1.054.469-1.054 1.07zm15.306-.248h.622l.81.001h.233l.824.001-5.253-5.257v2.595c.003.988.282 2.649 2.134 2.659h.63z" fill="#313235" fill-rule="nonzero"/></svg>