<svg width="24" height="24" viewBox="0 0 24 24" xmlns="http://www.w3.org/2000/svg"><path d="M.883 8.19a.694.694 0 01-.696-.692V.883C.188.5.5.187.883.187h6.615c.384 0 .696.313.696.696a.697.697 0 01-.696.696H1.58V7.5a.694.694 0 01-.696.692zm6.629 14.233c.383 0 .696.312.696.696a.697.697 0 01-.696.695H.883a.7.7 0 01-.696-.695v-6.616c0-.383.31-.695.693-.695.38.006.689.312.696.692v5.92c.003.003 5.936.003 5.936.003zm15.603-6.629c.38.007.686.316.693.696v6.629c0 .383-.31.692-.693.692h-6.628a.697.697 0 01-.696-.696c0-.383.312-.696.696-.696h5.936v-5.932c0-.384.309-.693.692-.693zm0-15.607c.383 0 .696.31.696.693v6.645a.691.691 0 11-1.385 0v-5.95H16.5a.694.694 0 110-1.388h6.615z" fill="#313235" fill-rule="nonzero"/></svg>