<svg width="24" height="24" viewBox="0 0 24 24" xmlns="http://www.w3.org/2000/svg"><path d="M22.668 11.293a.626.626 0 01-.484.219l-2.43-.007c-.827-4.944-3.294-7.455-5.207-8.679 2.393.367 4.32 1.264 5.731 2.703 1.298 1.324 2.141 3.102 2.518 5.284a.635.635 0 01-.128.48zm-10.06-8.356c1.522.612 5.069 2.659 6.114 8.565l-6.114-.017V2.937zM5.28 11.468c1.002-5.717 4.84-7.912 6.316-8.551v8.565l-6.316-.014zm-3.782-.107a.625.625 0 01-.29-.618c.388-2.179 1.252-3.95 2.563-5.261 1.465-1.48 3.482-2.377 6-2.7-1.973 1.258-4.723 3.85-5.52 8.683l-2.416-.007a.697.697 0 01-.337-.097zm22.293-.716c-.407-2.38-1.345-4.333-2.787-5.809-1.966-2.006-4.786-3.079-8.396-3.19V.688c0-.275-.226-.5-.508-.5a.506.506 0 00-.507.5v.965c-3.668.064-6.548 1.113-8.545 3.133C1.589 6.24.635 8.19.211 10.57c-.08.45.047.92.363 1.307.128.141.252.249.387.333.252.155.558.242.864.245l9.768.024v8.854c.01 1.368 1.142 2.477 2.534 2.477 1.395 0 2.531-1.12 2.531-2.494 0-.276-.225-.5-.507-.5a.506.506 0 00-.508.5c0 .823-.682 1.496-1.52 1.496-.836 0-1.519-.673-1.519-1.496v-8.83l9.573.027c.491 0 .952-.212 1.271-.589.3-.37.424-.837.343-1.28z" fill="#313235" fill-rule="nonzero"/></svg>