<svg width="24" height="24" viewBox="0 0 24 24" xmlns="http://www.w3.org/2000/svg"><path d="M18.905 2.154c1.3 1.23 1.966 3.14 1.946 5.671a8.514 8.514 0 01-1.809 5.825 6.317 6.317 0 01-2.74 1.792 12.352 12.352 0 01-3.912.551H9.26v7.321a.49.49 0 01-.49.49H3.64a.491.491 0 01-.49-.49V.682c0-.269.218-.49.49-.49h7.725c1.513-.03 3.022.117 4.498.443a6.602 6.602 0 013.042 1.52zm-.568 10.827a7.624 7.624 0 001.556-5.166c0-2.235-.558-3.936-1.654-4.921a5.719 5.719 0 00-2.571-1.308 18.498 18.498 0 00-4.303-.413H4.128v21.654h4.158v-7.335c0-.272.219-.49.488-.49h3.616c1.227.03 2.447-.138 3.617-.501a5.282 5.282 0 002.33-1.52zm-5.113-8.857c.544.108 1.049.36 1.465.73a4.077 4.077 0 01.979 3.042 4.435 4.435 0 01-1.066 3.226 3.1 3.1 0 01-1.348.807 7.975 7.975 0 01-1.956.198H8.774a.486.486 0 01-.488-.49V4.42c0-.272.219-.49.488-.49h2.396a9.17 9.17 0 012.054.194zm.686 6.3a3.51 3.51 0 00.773-2.502A3.157 3.157 0 0013.98 5.6a2.05 2.05 0 00-.978-.491 8.582 8.582 0 00-1.828-.198H9.268v6.232h1.99a6.818 6.818 0 001.73-.168c.354-.098.67-.29.922-.552z" fill="#313235" fill-rule="nonzero"/></svg>