<svg width="24" height="24" viewBox="0 0 24 24" xmlns="http://www.w3.org/2000/svg"><path d="M17.754 3.795c1.084 1.026 1.639 2.617 1.622 4.726a7.095 7.095 0 01-1.507 4.854 5.264 5.264 0 01-2.283 1.493 10.294 10.294 0 01-3.26.46H9.716v6.1a.408.408 0 01-.409.41H5.034a.41.41 0 01-.409-.41V2.568a.41.41 0 01.409-.409h6.437c1.26-.025 2.518.098 3.748.37.941.193 1.815.63 2.535 1.266zm-.474 9.023a6.353 6.353 0 001.297-4.306c0-1.862-.465-3.28-1.378-4.1a4.765 4.765 0 00-2.143-1.09 15.415 15.415 0 00-3.585-.345H5.44v18.045h3.464V14.91c0-.227.182-.409.406-.409h3.014a9.381 9.381 0 003.014-.417 4.402 4.402 0 001.941-1.266zm-4.26-7.381c.454.09.874.3 1.221.608.605.697.9 1.613.815 2.535a3.696 3.696 0 01-.888 2.689c-.31.316-.697.549-1.123.672a6.646 6.646 0 01-1.63.165H9.31a.405.405 0 01-.406-.409V5.683c0-.227.182-.409.406-.409h1.997a7.642 7.642 0 011.712.163zm.571 5.25a2.925 2.925 0 00.645-2.085 2.631 2.631 0 00-.586-1.936 1.708 1.708 0 00-.815-.409 7.152 7.152 0 00-1.524-.165H9.723v5.194h1.658c.485.014.97-.031 1.443-.14.294-.082.557-.241.767-.46z" fill="#313235" fill-rule="nonzero"/></svg>