<svg width="24" height="24" viewBox="0 0 24 24" xmlns="http://www.w3.org/2000/svg"><path d="M16.932 15.159a.528.528 0 00-.16.016c-1.554.494-3.392-.302-5.466-2.38-2.064-2.063-2.797-4.336-2.313-5.882.023-.08 1.079-1.136 3.163-3.166.108-.125.229-.236.35-.353l.205-.202c1.344-1.341 2.695-2.013 4.047-2.013 1.35 0 2.702.672 4.043 2.013 2.646 2.646 2.686 5.324.128 7.967l-3.997 4zm-5.647 5.647l-.097.097c-.047.054-.1.104-.155.151-2.595 2.43-5.23 2.347-7.835-.255-2.686-2.686-2.69-5.405-.01-8.084l.205-.215c.114-.121.225-.239.373-.367l4.027-4.027c-.064 1.658.86 3.466 2.797 5.402 1.845 1.849 3.583 2.787 5.176 2.814l-4.48 4.484zm.716-18.32l-.191.182c-.145.14-.29.275-.39.396l-8.326 8.33a6.906 6.906 0 00-.42.413l-.192.195c-3.062 3.062-3.059 6.437.007 9.503 1.536 1.54 3.156 2.306 4.77 2.306 1.509 0 3.011-.67 4.44-2.007.077-.064.144-.135.215-.212l9.728-9.728c2.934-3.028 2.887-6.36-.135-9.374-3.062-3.07-6.437-3.07-9.506-.004z" fill="#313235" fill-rule="nonzero"/></svg>