<svg width="24" height="24" viewBox="0 0 24 24" xmlns="http://www.w3.org/2000/svg"><path d="M5.152 11.197c.605 0 .995.323.995 1.018 0 .337-.09.582-.252.75-.175.182-.43.269-.746.269-.313 0-.572-.087-.743-.269-.161-.168-.252-.417-.252-.75 0-.695.397-1.018.998-1.018zm17.674 3.56V9.093c-.01-.501-.39-.921-.86-.958H19.85v7.583h2.06c.505 0 .915-.43.915-.961zm-3.946 1.717v-.248h-.017V7.429c0-.746-.578-1.348-1.29-1.348H6.476c-3.513.114-5.305 2.087-5.305 5.862 0 3.772 1.789 5.751 5.321 5.883H17.59c.713 0 1.29-.606 1.29-1.352zm3.015-9.361c1.035 0 1.896.88 1.916 1.97v5.674c0 1.089-.854 1.98-1.9 1.98h-2.056c-.125 1.183-1.093 2.107-2.266 2.107H6.477c-4.06-.151-6.29-2.602-6.29-6.9 0-4.307 2.23-6.75 6.276-6.882h11.113c1.153 0 2.107.895 2.255 2.054h1.143l-.003-.003h.924z" fill="#313235" fill-rule="nonzero"/></svg>