<svg width="64" height="64" viewBox="0 0 64 64" xmlns="http://www.w3.org/2000/svg"><path d="M27.53 4.265c-.834.78-1.247 2.017-1.247 3.684 0 3.271 1.57 4.804 4.94 4.804 3.379 0 4.956-1.524 4.956-4.804 0-1.659-.421-2.895-1.255-3.675-.806-.762-2.043-1.148-3.693-1.148-1.658 0-2.895.386-3.702 1.139zm3.692 11.106c-4.849 0-7.637-2.707-7.637-7.422 0-2.403.7-4.276 2.071-5.567C26.974 1.136 28.847.5 31.222.5c2.367 0 4.24.636 5.567 1.882 1.38 1.291 2.08 3.164 2.08 5.567 0 4.715-2.788 7.422-7.647 7.422zm13.903 26.2a1.684 1.684 0 001.228-2.026c0-.009 0-.018-.009-.027l-3.827-13.723a2.567 2.567 0 01-.135-.367c-.018-.063-.036-.126-.054-.18-.573-2.77-3.119-4.777-6.041-4.777h-8.525c-2.913 0-5.458 2.008-6.041 4.777-.009.045-.027.081-.036.117a.986.986 0 01-.107.296l-3.873 13.875a1.672 1.672 0 001.192 2.035h.018c.44.126.906.072 1.3-.161.386-.206.672-.565.789-.986l1.703-9.17c.125-.672.717-1.111 1.452-1.076.69.054 1.22.619 1.228 1.31v27.697c0 .923.762 1.685 1.694 1.685.932 0 1.694-.753 1.703-1.685V42.683c0-.726.6-1.31 1.345-1.31h3.8c.744 0 1.354.593 1.354 1.31v16.51c0 .933.762 1.686 1.703 1.686a1.69 1.69 0 001.694-1.685V31.496c0-.681.538-1.246 1.228-1.309.726-.026 1.318.404 1.443 1.076l1.721 9.26c.09.313.377.663.771.887.386.224.852.278 1.282.161zm3.827-2.734a4.292 4.292 0 01-3.056 5.253c-.018 0-.027.009-.045.009a4.468 4.468 0 01-4.482-1.309v16.395c0 2.375-1.972 4.311-4.392 4.311-2.43 0-4.392-1.936-4.392-4.311V43.99h-1.076v15.203c0 2.375-1.972 4.311-4.392 4.311-2.42 0-4.392-1.936-4.392-4.311V42.79a4.446 4.446 0 01-4.49 1.309 4.29 4.29 0 01-3.102-5.217c0-.009.009-.018.009-.027l3.836-13.741a2.64 2.64 0 01.153-.448c.86-3.962 4.5-6.821 8.667-6.821h8.525c4.168 0 7.798 2.859 8.659 6.803.08.188.143.367.179.547l3.791 13.642z" fill="#313235" fill-rule="nonzero"/></svg>