<svg width="24" height="24" viewBox="0 0 24 24" xmlns="http://www.w3.org/2000/svg"><path d="M20.279 9.552a.498.498 0 00-.306.148l-3.58 3.6a.52.52 0 00-.134.48c.5 2.179-.24 4.283-2.263 6.323a.238.238 0 01-.174.074.25.25 0 01-.175-.074L8.82 15.24c-.007-.01-.01-.02-.017-.03-.01-.01-.02-.014-.03-.02l-4.746-4.777a.235.235 0 01.006-.336l.037-.037c1.997-2.014 4.098-2.777 6.242-2.26.175.041.353-.01.478-.134l3.576-3.603a.525.525 0 00.148-.313c.084-.88.514-1.717 1.318-2.49L22.79 8.23c-.784.783-1.627 1.227-2.511 1.321m3.213-2.067L16.551.51a1.079 1.079 0 00-.756-.323c-.256 0-.494.098-.72.323-.887.89-1.408 1.876-1.556 2.928l-3.257 3.277C8.54 6.39 6.02 6.621 3.344 9.314l.36.363-.4-.326a1.27 1.27 0 00-.003 1.788l4.403 4.433-7.365 7.362a.514.514 0 00-.003.726.506.506 0 00.72.006l.003-.003 7.374-7.361 4.494 4.528c.24.242.558.376.895.376.336 0 .652-.134.958-.44 2.147-2.158 2.998-4.488 2.53-6.931l3.258-3.278c1.052-.158 2.04-.696 2.961-1.62a.98.98 0 00.282-.689c0-.29-.117-.561-.319-.763" fill="#313235" fill-rule="nonzero"/></svg>