<svg width="24" height="24" viewBox="0 0 24 24" xmlns="http://www.w3.org/2000/svg"><path d="M18.899 9.96a.415.415 0 00-.255.123l-2.983 3a.433.433 0 00-.112.401c.417 1.815-.2 3.569-1.885 5.269a.199.199 0 01-.146.062.208.208 0 01-.146-.062L9.35 14.7c-.006-.009-.009-.017-.014-.026-.009-.008-.017-.01-.025-.016l-3.956-3.98a.196.196 0 01.006-.28l.03-.032c1.665-1.678 3.415-2.313 5.203-1.882a.424.424 0 00.397-.112l2.98-3.003a.437.437 0 00.124-.26c.07-.734.429-1.432 1.098-2.076l5.798 5.826c-.652.653-1.355 1.023-2.092 1.101m2.678-1.723l-5.785-5.812a.899.899 0 00-.63-.269c-.213 0-.412.081-.6.27-.739.741-1.173 1.562-1.296 2.439l-2.714 2.731c-1.435-.272-3.535-.078-5.765 2.165l.3.303-.334-.272a1.058 1.058 0 00-.003 1.49l3.67 3.695-6.137 6.134a.429.429 0 00-.003.605c.165.169.431.171.6.006l.002-.003 6.146-6.134 3.745 3.773c.199.202.465.314.745.314.28 0 .543-.112.798-.367 1.79-1.799 2.499-3.74 2.11-5.776l2.714-2.731c.877-.132 1.7-.58 2.468-1.35a.817.817 0 00.235-.575.899.899 0 00-.266-.636" fill="#313235" fill-rule="nonzero"/></svg>