<svg width="64" height="64" viewBox="0 0 64 64" xmlns="http://www.w3.org/2000/svg"><path d="M50.278 15.46c-.017.08-.035.162-.035.242-.189 4.401-2.582 6.535-7.315 6.535-1.72 0-3.11-.314-4.222-.888 1.757-2.608 4.025-4.76 6.938-5.575.69-.18 1.112-.878.932-1.578 0-.018-.008-.027-.008-.044a1.37 1.37 0 00-1.686-.888c-3.469.977-6.14 3.317-8.22 6.266-.716-1.12-1.084-2.582-1.084-4.375 0-4.75 2.411-7.063 7.36-7.063h5.906c.78-.018 1.425.6 1.443 1.38l-.009 5.988zm-1.9 20.688v4.778c0 .762-.645 1.38-1.434 1.38H17.032c-.78.018-1.416-.6-1.434-1.371v-4.778c0-.762.646-1.38 1.434-1.38h29.912c.789-.01 1.434.61 1.434 1.371zm-5.683 23.87c0 .475-.403.87-.896.87H22.187c-.502 0-.906-.395-.915-1.004l-1.72-14.97h24.855l-1.712 15.104zm-21.593-42.72c-4.75 0-7.153-2.152-7.341-6.517 0-.098-.01-.197-.036-.287v-5.97c0-.78.654-1.416 1.461-1.416h5.934c4.966 0 7.377 2.322 7.377 7.1 0 1.73-.377 3.155-1.085 4.284-3.29-5.261-6.92-6.292-7.18-6.355a1.364 1.364 0 00-1.64.914c-.188.7.224 1.417.923 1.605h.018c.054.009 3.084.959 5.871 5.745-1.138.592-2.581.897-4.302.897zM48.844 5.484h-5.916c-6.409 0-10.075 3.522-10.075 9.671 0 2.331.52 4.294 1.614 5.943l.69.86c-1.29 2.35-2.277 4.895-3.039 7.378-.681-5.27-1.891-9.295-3.298-12.28l.367-.404a.242.242 0 01.063-.071c1.309-1.65 1.963-3.8 1.963-6.382C31.203 3.942 27.618.5 21.11.5h-5.934C12.873.5 11 2.302 11 4.525v6.149c0 .098.018.215.045.331.314 5.746 3.872 8.91 10.048 8.91 2.124 0 3.944-.403 5.486-1.201 1.39 3.137 2.59 7.458 3.119 13.392 0 .018.018.035.018.053H17.032c-2.285 0-4.15 1.793-4.15 3.99v4.777c0 2.124 1.757 3.854 3.944 3.962l1.74 15.13c0 1.918 1.63 3.478 3.62 3.478H41.79c1.999 0 3.621-1.56 3.612-3.334l1.757-15.274c2.187-.108 3.944-1.838 3.944-3.962v-4.778c0-2.196-1.864-3.989-4.159-3.989H34.135c.645-2.474 1.676-5.647 3.218-8.56 1.524.798 3.361 1.246 5.575 1.246 6.14 0 9.69-3.12 10.03-8.856.027-.107.045-.224.045-.34V9.49c0-2.214-1.873-4.006-4.159-4.006z" fill="#313235" fill-rule="nonzero"/></svg>