<svg width="24" height="24" viewBox="0 0 24 24" xmlns="http://www.w3.org/2000/svg"><path d="M11.993.188c3.768 0 6.689.974 8.685 2.9 2.07 1.997 3.123 4.995 3.123 8.908.003 7.72-4.08 11.805-11.808 11.805C4.272 23.8.187 19.72.187 11.996.188 4.272 4.269.187 11.993.187zm0 .672C4.608.86.86 4.608.86 11.996c0 7.385 3.744 11.133 11.133 11.133 7.391 0 11.136-3.745 11.136-11.133C23.132 4.604 19.384.86 11.993.86zM8.5 6.729l8.555 4.937a.312.312 0 010 .538l-8.558 4.941a.312.312 0 01-.31 0 .309.309 0 01-.154-.268v-9.88A.312.312 0 018.5 6.73zm.155.81v8.796l7.617-4.396-7.617-4.4z" fill="#313235" fill-rule="nonzero"/></svg>