<svg width="64" height="64" viewBox="0 0 64 64" xmlns="http://www.w3.org/2000/svg"><path d="M23.796 9.24a.807.807 0 00.189.851l2.922 2.931c.296.305.457.807.394 1.228l-.69 4.132c-.054.323.063.628.323.807.224.152.493.17.726.036l3.621-1.954c.197-.108.43-.161.654-.161.251 0 .493.062.708.188l3.568 1.927c.233.125.51.107.726-.036a.78.78 0 00.323-.807l-.69-4.132c-.072-.44.098-.959.43-1.264l2.886-2.895a.844.844 0 00.188-.852.736.736 0 00-.591-.51l-4.043-.601a1.422 1.422 0 01-1.03-.753l-1.82-3.792c-.26-.537-1.058-.537-1.309 0l-1.81 3.765a1.469 1.469 0 01-1.14.789l-3.943.592a.722.722 0 00-.592.51zm.762 5.18l-2.474-2.482a3.43 3.43 0 01-.815-3.532 3.415 3.415 0 012.725-2.295l3.36-.502 1.516-3.164A3.393 3.393 0 0131.944.5c1.318 0 2.501.744 3.066 1.936L36.534 5.6l3.361.502a3.4 3.4 0 012.725 2.295 3.416 3.416 0 01-.825 3.532l-2.474 2.482.583 3.532a3.428 3.428 0 01-1.416 3.388 3.436 3.436 0 01-3.559.207l-2.985-1.623-2.985 1.623a3.375 3.375 0 01-1.613.412 3.316 3.316 0 01-1.936-.619 3.434 3.434 0 01-1.425-3.388l.573-3.523zm36.267 46.306V48.948c-.054-.009-.108-.009-.161-.009h-17.12c-.055 0-.108 0-.153.01v11.777c.045 0 .098.01.152.01h17.12c.054 0 .108 0 .162-.01zm-37.387.072h17.12l.162-29.714-17.282-.01-.153 28.254v1.461l.153.009zm-20.106-.063h17.12a.79.79 0 00.153-.018V41.114a.419.419 0 00-.152-.027H3.333a.419.419 0 00-.153.027v19.612a.773.773 0 00.152.01zm40.211 2.77H3.333C1.772 63.505.5 62.411.5 61.148V40.675c0-1.372 1.461-2.295 2.832-2.295h17.12c.055 0 .109.027.153.027v-7.332c0-1.443 1.327-2.716 2.833-2.716h17.12c1.506 0 2.833 1.273 2.833 2.716V46.24c.045 0 .107-.018.152-.018h17.12c1.408 0 2.833.673 2.833 1.963v13.275c0 1.157-1.174 2.026-2.841 2.026H43.543v.018z" fill="#313235" fill-rule="nonzero"/></svg>