<svg width="24" height="24" viewBox="0 0 24 24" xmlns="http://www.w3.org/2000/svg"><path d="M18.559 20.71V4.748c0-.08-.263-.33-.63-.33h-2.944c.01.098.028.193.03.294l.006.19-.003.093c-.044 1.302-1.243 1.574-3.03 1.574-1.785 0-2.984-.272-3.031-1.591v-.193l.005-.093c.003-.098.023-.182.037-.274h-2.95c-.37 0-.63.252-.63.33v15.964c0 .112.274.33.63.33h11.877c.358 0 .633-.22.633-.33zM11.988 2.958c-1.454 0-2.157.569-2.213 1.79l-.006.154c.014.393.03.863 2.221.863 2.19 0 2.208-.473 2.219-.818v-.131a2.663 2.663 0 00-.11-.695c-.252-.782-.94-1.163-2.111-1.163zm5.938.659c.756 0 1.445.54 1.445 1.131v15.964c0 .613-.66 1.132-1.442 1.132H6.052c-.782 0-1.443-.519-1.443-1.132V4.747c0-.59.69-1.131 1.443-1.131h3.151c.418-.947 1.376-1.46 2.785-1.46 1.717 0 2.462.74 2.781 1.46h3.157zm-6.84 1.473a.405.405 0 01-.407-.4c0-.222.182-.401.407-.401h1.8c.225 0 .407.18.407.4 0 .222-.182.401-.406.401h-1.801z" fill="#313235" fill-rule="nonzero"/></svg>