<svg width="24" height="24" viewBox="0 0 24 24" xmlns="http://www.w3.org/2000/svg"><path d="M19.87 22.453V3.297c0-.098-.315-.397-.756-.397h-3.532c.013.118.033.232.037.353l.006.229-.003.11c-.054 1.564-1.492 1.89-3.637 1.89-2.141 0-3.58-.326-3.637-1.91V3.34l.007-.11c.003-.118.027-.219.043-.33H4.86c-.444 0-.756.303-.756.397v19.156c0 .134.33.397.756.397h14.252c.43 0 .76-.266.76-.397zM11.986 1.149c-1.745 0-2.588.682-2.655 2.148l-.007.185c.017.47.037 1.035 2.665 1.035 2.629 0 2.65-.568 2.663-.982v-.158a3.195 3.195 0 00-.132-.833c-.302-.938-1.129-1.395-2.534-1.395zm7.126.79c.908 0 1.735.648 1.735 1.358v19.156c0 .736-.794 1.358-1.732 1.358H4.862c-.937 0-1.73-.622-1.73-1.358V3.297c0-.71.826-1.358 1.73-1.358h3.782c.5-1.136 1.65-1.752 3.341-1.752 2.06 0 2.955.888 3.338 1.752h3.788zm-8.208 1.768a.486.486 0 01-.488-.48c0-.266.219-.482.488-.482h2.161c.269 0 .487.216.487.481 0 .266-.218.48-.487.48h-2.161z" fill="#313235" fill-rule="nonzero"/></svg>