<svg width="24" height="24" viewBox="0 0 24 24" xmlns="http://www.w3.org/2000/svg"><path d="M10.705 1.425c3.361 0 5.967.87 7.741 2.588 1.771 1.713 2.704 4.26 2.773 7.57l.004.4c0 .858-.056 1.676-.169 2.436.049-.039.1-.086.155-.14.29-.29.652-.716 1.005-1.13.357-.42.726-.853 1.032-1.16a.335.335 0 11.474.475c-.285.285-.645.709-.995 1.119-.36.424-.732.86-1.042 1.17-.326.333-.665.497-1.005.497-.333 0-.665-.161-.988-.484-.266-.265-.773-.854-1.61-1.825l-.427-.494a.339.339 0 01.034-.474.339.339 0 01.474.034l.426.497c.8.928 1.328 1.543 1.574 1.788.072.073.14.131.206.176l-.055.325c.158-.857.239-1.802.239-2.81 0-3.318-.864-5.835-2.572-7.486-1.644-1.593-4.094-2.4-7.274-2.4-3.18 0-5.63.807-7.274 2.4C1.724 6.144.86 8.665.86 11.983c0 3.318.864 5.835 2.571 7.486 1.647 1.593 4.094 2.4 7.274 2.4 1.943 0 3.627-.303 5.005-.901a.337.337 0 11.27.618c-1.463.632-3.238.955-5.275.955-3.361 0-5.966-.87-7.741-2.588C1.122 18.17.188 15.489.188 11.983c0-3.506.934-6.188 2.776-7.97 1.775-1.717 4.38-2.588 7.741-2.588zm2.48 3.331c.707 0 1.12.282 1.345.518.303.32.46.763.46 1.287v10.202c0 .524-.16.968-.46 1.287-.221.239-.638.521-1.344.521h-5.63c-.706 0-1.12-.282-1.345-.52-.302-.32-.46-.764-.46-1.288V8.077a.684.684 0 01.194-.47l2.609-2.65a.68.68 0 01.48-.2zm0 .672H9.032l-2.608 2.65v8.688c0 .69.36 1.136 1.133 1.136h5.63c.773 0 1.133-.447 1.133-1.136V6.564c0-.689-.36-1.136-1.133-1.136zm-.214 4.555c.185 0 .336.151.336.336v5.933a.337.337 0 01-.336.336H7.727a.337.337 0 01-.336-.336v-5.933c0-.185.151-.336.336-.336h5.244zm-3.84 4.642H8.063l.001 1.29h1.069v-1.29zm1.748 0H9.805v1.29h1.075v-1.29zm1.755 0h-1.082v1.29h1.083v-1.29zm-4.572-1.974v1.301h4.572v-1.301H8.063zm1.07-1.996H8.063v1.324h1.069v-1.324zm1.748 0H9.803v1.324h1.076v-1.324zm1.755 0h-1.083v1.324h1.082v-1.324z" fill="#313235" fill-rule="nonzero"/></svg>