<svg width="24" height="24" viewBox="0 0 24 24" xmlns="http://www.w3.org/2000/svg"><path d="M13.768 2.156c1.02 0 1.762.25 2.27.762.498.507.741 1.241.741 2.25v.265h.536c.025 0 .049.004.072.01l-.072-.01a.278.278 0 01.181.068.111.111 0 01.017.014l2.731 2.73.016.02.011.014-.027-.033a.276.276 0 01.052.07l.007.018a.193.193 0 01.015.042.332.332 0 01.008.069v6.784c0 .367-.227.597-.594.597h-2.953v2.997c0 1.036-.243 1.781-.745 2.28-.495.493-1.238.731-2.266.731h-7.1c-1.029 0-1.77-.238-2.267-.731-.501-.499-.745-1.244-.745-2.28V5.167c0-1.028.241-1.767.74-2.266.498-.498 1.24-.745 2.271-.745h7.101zm-.003.56H6.667c-.873 0-1.487.191-1.876.58-.39.39-.575 1-.575 1.871v13.656c0 1.742.71 2.45 2.451 2.45h7.101c1.74 0 2.451-.708 2.451-2.45v-2.998h-2.947c-.38 0-.607-.229-.607-.613V6.04c0-.373.232-.605.607-.605h2.947v-.267c0-.854-.19-1.462-.582-1.857-.398-.4-1.009-.594-1.872-.594zm-3.551 15.11c.504 0 .832.266.832.834 0 .275-.076.477-.21.614-.146.148-.359.221-.622.221-.264 0-.477-.073-.622-.221-.135-.137-.21-.342-.21-.614 0-.568.327-.834.832-.834zm6.82-11.833h-3.762c-.014 0-.03 0-.044.004l-.003.02v9.195c0 .017 0 .034.003.05.014.003.03.003.044.003h6.457c.011 0 .022 0 .034-.002.002-.012.002-.023.002-.034V8.724h-.812c-.622 0-1.1-.164-1.428-.492-.328-.328-.49-.807-.49-1.426v-.813zm1.379 7.368a.28.28 0 01.28.28.28.28 0 01-.28.28h-3.824a.28.28 0 01-.28-.28.28.28 0 01.28-.28h3.824zm0-1.639a.28.28 0 01.28.28.28.28 0 01-.28.28h-3.824a.28.28 0 01-.28-.28.28.28 0 01.28-.28h3.824zm0-1.639a.28.28 0 01.28.28.28.28 0 01-.28.28h-3.824a.28.28 0 01-.28-.28.28.28 0 01.28-.28h3.824zm.957-1.919l-1.776-1.773v.415c0 .938.42 1.359 1.36 1.359h.416z" fill="#313235" fill-rule="nonzero"/></svg>