<svg width="24" height="24" viewBox="0 0 24 24" xmlns="http://www.w3.org/2000/svg"><path d="M11.993.188c3.768 0 6.689.974 8.685 2.9 2.07 1.997 3.123 4.995 3.123 8.908.003 7.72-4.08 11.805-11.808 11.805C4.272 23.8.187 19.72.187 11.996.188 4.272 4.269.187 11.993.187zm0 .672C4.608.86.86 4.608.86 11.996c0 7.385 3.744 11.133 11.133 11.133 7.391 0 11.136-3.745 11.136-11.133C23.132 4.604 19.384.86 11.993.86zm1.898 4.048l.068.006c1.704.312 3.022 1.062 3.916 2.231.914 1.197 1.378 2.83 1.378 4.858 0 2.396-.649 4.235-1.923 5.465-1.168 1.115-2.84 1.713-4.974 1.773l-.36.005c-2.306 0-4.1-.601-5.328-1.785-1.274-1.23-1.923-3.068-1.923-5.465 0-1.997.45-3.614 1.338-4.807.87-1.166 2.152-1.926 3.815-2.255l.068-.007.066.007a.338.338 0 01-.002.662c-3.06.608-4.612 2.763-4.612 6.403 0 4.367 2.212 6.578 6.578 6.578s6.581-2.211 6.581-6.578c0-3.687-1.596-5.852-4.74-6.427a.335.335 0 01.054-.664zm-1.895-1.806c.185 0 .336.151.336.336v4.918a.337.337 0 01-.269.329l-.067.007a.337.337 0 01-.336-.336V3.438c0-.185.151-.336.336-.336z" fill="#313235" fill-rule="nonzero"/></svg>