<svg width="24" height="24" viewBox="0 0 24 24" xmlns="http://www.w3.org/2000/svg"><path d="M11.994 2.156c3.14 0 5.574.813 7.238 2.418 1.725 1.663 2.602 4.162 2.602 7.423.003 6.434-3.4 9.837-9.84 9.837-6.434 0-9.838-3.4-9.838-9.837 0-6.437 3.4-9.84 9.838-9.84zm0 .56c-6.154 0-9.278 3.124-9.278 9.28 0 6.155 3.12 9.278 9.278 9.278 6.16 0 9.28-3.12 9.28-9.277.003-6.16-3.12-9.28-9.28-9.28zm1.574 3.374l.064.005c1.42.26 2.519.885 3.264 1.86.762.997 1.148 2.358 1.148 4.047 0 1.997-.54 3.53-1.602 4.555-.968.923-2.35 1.421-4.11 1.476l-.335.006c-1.922 0-3.418-.502-4.44-1.488-1.062-1.025-1.602-2.557-1.602-4.554 0-1.664.375-3.012 1.114-4.006.726-.972 1.793-1.605 3.18-1.88l.064-.005.062.009a.281.281 0 01-.017.548C7.808 7.17 6.515 8.966 6.515 12c0 3.639 1.843 5.482 5.482 5.482 3.638 0 5.484-1.843 5.484-5.482 0-3.072-1.33-4.876-3.95-5.355a.28.28 0 01.037-.554zm-1.571-1.505a.28.28 0 01.28.28v4.098a.281.281 0 01-.216.273l-.064.007a.28.28 0 01-.28-.28V4.865a.28.28 0 01.28-.28z" fill="#313235" fill-rule="nonzero"/></svg>