<svg width="24" height="24" viewBox="0 0 24 24" xmlns="http://www.w3.org/2000/svg"><path d="M12.51 22.816c2.42-.05 10.316-.951 10.316-10.786 0-9.836-7.933-10.79-10.363-10.848-.326-.01-.71-.01-1.052-.01-2.4.02-10.239.864-10.239 10.787 0 9.943 7.896 10.83 10.316 10.857.347.01.716 0 1.022 0zM12.48.198c1.9.05 11.331.837 11.331 11.832 0 11.005-9.402 11.734-11.28 11.77-.216 0-.465.011-.71.011-.118 0-.235 0-.343-.01C.738 23.653.188 13.905.188 11.959c0-1.946.54-11.674 11.21-11.771h.326c.255 0 .53 0 .756.01zm-.971 17.623c.473 0 .776.306.776.787v.077c0 .46-.306.766-.776.766-.521 0-.827-.306-.827-.766v-.077c0-.481.306-.787.776-.787h.05zm3.038-12.373c.797.582 1.163 1.368 1.163 2.538 0 1.425-.581 2.252-1.996 3.933-1.634 1.879-1.762 2.037-1.762 3.905a.245.245 0 01-.245.246h-.538a.25.25 0 01-.245-.198 3.87 3.87 0 01-.06-.73c0-1.14.325-1.869 1.455-3.217l.205-.245c1.74-2.054 2.094-2.686 2.094-3.718 0-.766-.225-1.28-.746-1.694-.296-.235-.817-.51-2.145-.51-.69 0-1.318.087-2.104.275a.232.232 0 01-.199-.03.342.342 0 01-.107-.158L9.24 5.42a.253.253 0 01.147-.276c.434-.198 1.543-.413 2.579-.413 1.095.007 1.963.245 2.581.716z" fill="#313235" fill-rule="nonzero"/></svg>