<svg width="24" height="24" viewBox="0 0 24 24" xmlns="http://www.w3.org/2000/svg"><path d="M18.878.188c1.237 0 2.128.292 2.726.894.599.601.888 1.489.888 2.719v16.386c0 1.244-.293 2.138-.895 2.737-.594.591-1.485.877-2.719.877h-8.52c-1.234 0-2.125-.286-2.72-.877-.602-.595-.894-1.493-.894-2.736l-.001-4.914c-1.616-.055-2.88-.513-3.764-1.365C1.997 12.964 1.5 11.549 1.5 9.7c0-1.849.497-3.264 1.479-4.208.883-.852 2.15-1.31 3.762-1.366v-.325c0-1.21.292-2.094.89-2.7.612-.614 1.503-.913 2.726-.913h8.521zm0 .672h-8.52c-1.036 0-1.769.232-2.246.712-.47.474-.7 1.204-.7 2.229l.001.325c1.615.055 2.883.513 3.768 1.366.981.944 1.479 2.36 1.479 4.208 0 1.849-.498 3.264-1.48 4.209-.883.852-2.15 1.31-3.764 1.365v4.914c0 2.09.854 2.94 2.941 2.94h8.521c2.09 0 2.941-.85 2.941-2.94V3.8c0-1.045-.225-1.782-.689-2.245-.464-.464-1.203-.696-2.252-.696zm-4.255 18.13c.605 0 .998.32.998 1.003 0 .329-.09.571-.252.736-.175.178-.434.265-.746.265-.313 0-.572-.087-.747-.265-.16-.165-.252-.407-.252-.736 0-.683.394-1.002.999-1.002zM7.08 4.794c-1.597 0-2.82.396-3.637 1.183-.844.813-1.274 2.067-1.274 3.724s.427 2.911 1.27 3.724c.814.787 2.037 1.184 3.637 1.184s2.82-.397 3.634-1.184c.844-.813 1.27-2.067 1.27-3.724s-.426-2.91-1.27-3.724c-.81-.787-2.034-1.183-3.63-1.183zm0 .974c.185 0 .336.152.336.336v.485c.459.045.881.18 1.22.39.145.09.225.215.225.352a.367.367 0 01-.366.367.514.514 0 01-.232-.067l-.003-.004a2.608 2.608 0 00-.844-.297l-.001 1.986.084.012c.802.129 1.702.529 1.702 1.687 0 1.003-.674 1.668-1.784 1.796l-.001.504a.337.337 0 01-.336.336.337.337 0 01-.336-.336l-.001-.493a3.357 3.357 0 01-1.603-.576.396.396 0 01-.185-.343.379.379 0 01.384-.373c.09.003.178.03.255.084.382.254.766.41 1.15.466l-.001-2.087-.043-.005C5.388 9.753 5.107 8.97 5.107 8.342c0-.975.632-1.637 1.636-1.753v-.486c0-.184.152-.336.337-.336zm.337 4.323l-.001 1.989c.642-.097 1.029-.473 1.029-1.031 0-.38-.129-.784-1.028-.958zM5.86 8.295c0 .336.108.725.882.914V7.324c-.55.094-.882.45-.882.971z" fill="#313235" fill-rule="nonzero"/></svg>