<svg width="24" height="24" viewBox="0 0 24 24" xmlns="http://www.w3.org/2000/svg"><path d="M21.912 6.38s.084-.014.084-.344c0-.312-.11-.4-.11-.4-.051-.04-.166-.067-.542-.067H2.665c-.36 0-.437-.02-.575.11-.003 0-.08.085-.077.394.003.29.138.37.138.37.074.054.11.09.487.09h18.686c.35-.003.561-.11.588-.154zm-.931 11.505V7.724a.279.279 0 00-.084-.212c-.064-.06-.182-.077-.323-.098H3.384c-.211.037-.386.158-.386.31v10.174c0 .078.027.152.094.202.084.077.232.104.423.104l16.992.01c.245 0 .474-.15.474-.329zm-8.454 4.528c0-.141 0-.504-.507-.511h-.084c-.491 0-.491.37-.491.51 0 .132 0 .512.497.512.585-.007.585-.37.585-.511zM11.32 2.84L7.855 4.685h8.084l-3.237-1.862a1.648 1.648 0 01-.655.158h-.101a1.677 1.677 0 01-.626-.141zm.619-1.775c-.49 0-.49.37-.49.514 0 .145 0 .511.507.521.571-.007.571-.376.571-.51 0-.142 0-.512-.507-.522.003-.003-.081-.003-.081-.003zm10.612 3.983c.164.158.265.37.265.582v.83c0 .44-.396.776-.985.9.037.115.074.23.074.354v10.174c0 .67-.625 1.207-1.401 1.207h-8.047v1.997c.554.151.995.581.995 1.324 0 .945-.71 1.385-1.399 1.395h-.12c-.693-.01-1.402-.44-1.402-1.395 0-.766.46-1.2 1.005-1.341v-1.977l-8-.01c-.535.037-.895-.174-1.08-.343a1.165 1.165 0 01-.38-.847V7.72c0-.124.038-.248.075-.353-.296-.06-.545-.158-.71-.316a.828.828 0 01-.278-.581l.01-.83c0-.555.628-.952 1.495-.952H5.96l4.693-2.497c-.081-.192-.125-.4-.121-.609 0-.954.709-1.384 1.411-1.395h.111c.693.02 1.399.461 1.399 1.402 0 .212-.037.407-.111.575l4.38 2.524h3.55c.56-.02 1 .111 1.28.36zm-6.353 10.545c.249 0 .46.201.46.44a.45.45 0 01-.46.44h-9.68a.453.453 0 01-.461-.44v-5.886c0-.238.211-.44.46-.44a.453.453 0 01.46.44v4.746l1.557-2.322a.457.457 0 01.555-.178l3.163 1.173 2.12-2.558h-.635a.446.446 0 01-.46-.43v-.01c0-.25.201-.441.46-.441h1.64a.46.46 0 01.454.37l.222 1.422c.047.235-.127.457-.386.5h-.064c-.222 0-.424-.158-.454-.37l-.07-.456-2.313 2.78a.472.472 0 01-.525.14l-3.126-1.162-1.509 2.242h8.592z" fill="#313235" fill-rule="nonzero"/></svg>