<svg width="24" height="24" viewBox="0 0 24 24" xmlns="http://www.w3.org/2000/svg"><path d="M5.68 18.057h14.773c-1.675-2.095-1.504-5.19-1.496-5.336v-3.86c0-1.938-.546-3.431-1.619-4.434-1.708-1.6-4.218-1.451-4.243-1.443-.009 0-.017-.008-.026-.008-.016 0-.025.008-.033.008-.165-.016-3.779-.212-5.241 2.832 3.473.026 5.51 1.807 5.51 5.6 0 3.812-2.06 5.594-5.575 5.594-.481 0-.932-.034-1.358-.107-.193.423-.42.818-.692 1.154zm8.947 2.381c.434-.484.507-1.173.515-1.557h-4.145c0 .386.072 1.075.507 1.557.344.387.874.583 1.563.583.691 0 1.215-.196 1.56-.583zM2.974 11.413c0 3.21 1.56 4.77 4.76 4.77 3.198 0 4.758-1.56 4.758-4.77 0-3.216-1.563-4.776-4.759-4.776-3.196 0-4.759 1.557-4.759 4.776zm18.717 6.742c.174.14.202.398.062.572a.404.404 0 01-.314.151H15.96c-.008.51-.115 1.42-.72 2.104-.507.574-1.243.86-2.173.86-.933 0-1.67-.286-2.177-.86-.613-.69-.711-1.603-.711-2.101h-5.48a.406.406 0 01-.254-.723c.442-.37.818-.854 1.112-1.437-2.171-.641-3.4-2.367-3.4-5.308 0-3.496 1.736-5.286 4.728-5.557 1.512-3.827 5.812-3.71 6.179-3.692.255-.017 2.91-.132 4.832 1.658 1.243 1.168 1.88 2.865 1.88 5.042v3.885c-.006.062-.197 3.667 1.915 5.406zm-11.955-4.58a.397.397 0 01-.286.124.418.418 0 01-.294-.124l-1.708-1.714a.418.418 0 01-.124-.294V9.234c0-.23.18-.41.41-.41.229 0 .408.18.408.41v2.168l1.594 1.602a.391.391 0 010 .571z" fill="#313235" fill-rule="nonzero"/></svg>