<svg width="24" height="24" viewBox="0 0 24 24" xmlns="http://www.w3.org/2000/svg"><path d="M22.543 16.194c.003-.023.306-4.074.272-5.401-.006-.384-.11-.427-.373-.444-.302.01-.45.151-.49.36l-.636 3.099c-.007.03-.023.057-.037.087.007.259-.05.521-.188.75l-.003.003-1.886 3.193a.49.49 0 01-.672.175.5.5 0 01-.172-.682l1.886-3.19.003-.004v-.003c.111-.188.027-.514-.158-.625-.171-.108-.413-.108-.534.09l-.101.175c-.303.542-.934 1.671-2.198 2.323-.01.007-.347.195-.941.975-.511.665-.945 1.415-1.285 2.225l-.248.598h3.94c.073 0 .144.01.214.024l2.276-1.946c.168-.145.35-.283.528-.417.218-.165.38-.36.53-.612.155-.272.25-.524.273-.753zm-3.307 6.094v-.87a.524.524 0 00-.521-.525h-4.236a.524.524 0 00-.52.525v.87c0 .29.234.525.52.525h4.236a.524.524 0 00.52-.525zM23.8 10.77c.037 1.378-.262 5.355-.275 5.523-.044.383-.182.77-.414 1.163-.218.366-.464.655-.743.864-.208.158-.373.282-.527.416l-1.99 1.701c.225.266.366.605.366.982v.87c0 .837-.676 1.52-1.506 1.52h-4.235c-.83 0-1.506-.683-1.506-1.52v-.87c0-.494.239-.931.602-1.207l.537-1.297c.374-.891.85-1.711 1.416-2.448.746-.97 1.203-1.216 1.29-1.253.985-.511 1.5-1.429 1.772-1.923l.12-.212c.384-.622 1.18-.803 1.836-.433l.437-2.135a1.44 1.44 0 011.432-1.156c.561.03 1.361.252 1.388 1.415zm-13.778 11.52v-.871a.522.522 0 00-.52-.525H5.265a.524.524 0 00-.521.525v.87c0 .29.232.525.52.525h4.236c.29 0 .521-.236.521-.525zm-7.818-4.764c.211.162.396.303.574.454l2.276 1.946a1.14 1.14 0 01.215-.023h3.94l-.25-.599a9.773 9.773 0 00-1.283-2.225c-.595-.78-.935-.971-.938-.971-1.267-.656-1.9-1.782-2.202-2.323l-.104-.178c-.12-.198-.36-.198-.538-.09-.181.11-.265.436-.154.624.003 0 .003.004.003.004l.003.003L5.63 17.34a.493.493 0 01-.42.75.492.492 0 01-.424-.245l-1.882-3.19s-.004 0-.004-.004a1.458 1.458 0 01-.188-.753c-.01-.03-.03-.057-.037-.087l-.632-3.096a.467.467 0 00-.44-.366c-.333.02-.417.08-.427.447-.034 1.331.269 5.381.272 5.422.027.212.118.464.28.73.14.251.305.443.477.577zm8.205 2.69c.363.275.601.712.601 1.206v.87c0 .838-.675 1.517-1.502 1.517H5.272a1.51 1.51 0 01-1.502-1.516v-.87c0-.377.141-.717.366-.982l-1.99-1.701a11.266 11.266 0 00-.5-.397 2.94 2.94 0 01-.767-.884c-.232-.39-.37-.776-.41-1.146-.013-.185-.312-4.161-.279-5.54.027-1.163.827-1.381 1.301-1.411a1.444 1.444 0 011.513 1.153l.437 2.134c.655-.363 1.452-.185 1.831.437l.121.212c.276.494.794 1.408 1.792 1.93.067.03.524.275 1.27 1.246a11.08 11.08 0 011.412 2.447l.542 1.294zm1.583-6.175c1.533-.767 4.928-2.797 5.23-4.568.272-1.587.32-5.009.326-6.337-1.284.04-2.057-.47-2.81-.974-.756-.505-1.469-.982-2.743-.982h-.007c-1.273 0-1.986.477-2.742.982-.763.51-1.543 1.052-2.81.981.006 1.335.057 4.746.329 6.33.306 1.771 3.694 3.801 5.227 4.568zm6.201-4.394c-.463 2.693-5.425 5.13-5.99 5.399a.509.509 0 01-.208.047.524.524 0 01-.212-.047c-.564-.27-5.519-2.706-5.983-5.399-.36-2.07-.346-6.85-.346-7.052a.49.49 0 01.192-.39c.117-.094.272-.127.416-.094 1.197.188 1.836-.235 2.642-.776C9.511.796 10.422.187 11.992.187h.007c1.57 0 2.48.612 3.287 1.15.807.538 1.452.965 2.659.773.144-.02.299.017.406.111.108.09.185.229.185.373-.003.199.01 4.978-.343 7.052 0-.003 0-.003 0 0zm-3.596-4.42a.487.487 0 01.696 0 .501.501 0 010 .703l-4.078 4.117a.495.495 0 01-.346.145.508.508 0 01-.35-.145L8.692 8.198a.501.501 0 010-.703.493.493 0 01.696 0l1.482 1.496 3.728-3.765z" fill="#313235" fill-rule="nonzero"/></svg>