<svg width="24" height="24" viewBox="0 0 24 24" xmlns="http://www.w3.org/2000/svg"><path d="M21.831 22.537c0 .141-.158.286-.316.286H9.28c-.158 0-.302-.168-.302-.286V5.51c0-.108.168-.286.302-.286h6.68v2.35c0 .967.335 1.804.964 2.41.628.611 1.475.927 2.47.927h2.437v11.627zM7.993 5.51v12.547H2.43c-.128 0-.286-.158-.286-.255V1.43c0-.107.148-.259.286-.259h11.768c.138 0 .286.128.286.26v2.803H9.28c-.679 0-1.287.611-1.287 1.274zm8.951.01l4.558 4.403h-2.108c-.729 0-1.347-.219-1.778-.642-.433-.424-.669-1.015-.669-1.708V5.52h-.003zm5.852 4.51a.725.725 0 00-.215-.423L17.26 4.453a.71.71 0 00-.434-.205c-.03-.01-.06-.01-.097-.01h-1.26V1.43c0-.672-.582-1.244-1.271-1.244H2.433c-.669 0-1.27.585-1.27 1.244v16.367c0 .652.611 1.243 1.27 1.243h5.56v3.496c0 .672.601 1.274 1.287 1.274H21.52c.699 0 1.297-.595 1.297-1.274v-12.39a.508.508 0 00-.02-.117z" fill="#313235" fill-rule="nonzero"/></svg>