<svg width="24" height="24" viewBox="0 0 24 24" xmlns="http://www.w3.org/2000/svg"><path d="M9.251 19.69l2.317-5.983a.422.422 0 00-.017-.344.413.413 0 00-.266-.213l-4.238-1.037 7.235-7.678-2.274 5.71a.419.419 0 00.285.562l4.636 1.129-7.678 7.854zm8.874-8.204a.41.41 0 00-.3-.291l-4.882-1.19 2.9-7.275a.423.423 0 00-.157-.507.405.405 0 00-.519.061l-9.21 9.77a.43.43 0 00-.098.407.412.412 0 00.297.288l4.476 1.095-2.874 7.418a.421.421 0 00.157.501.405.405 0 00.515-.056l9.592-9.815a.409.409 0 00.103-.406z" fill="#313235" fill-rule="nonzero"/></svg>