<svg width="24" height="24" viewBox="0 0 24 24" xmlns="http://www.w3.org/2000/svg"><path d="M8.702 21.228l2.78-7.18a.507.507 0 00-.02-.413.496.496 0 00-.32-.255l-5.086-1.244 8.683-9.213-2.73 6.85a.502.502 0 00.343.676l5.563 1.354-9.213 9.425zm10.648-9.845a.492.492 0 00-.36-.35l-5.858-1.428L16.61.875a.507.507 0 00-.188-.608.487.487 0 00-.622.074L4.749 12.065a.515.515 0 00-.118.488c.05.171.185.306.356.346l5.372 1.314-3.449 8.901a.505.505 0 00.188.602.486.486 0 00.618-.067l11.51-11.779a.49.49 0 00.124-.487z" fill="#313235" fill-rule="nonzero"/></svg>