<svg width="24" height="24" viewBox="0 0 24 24" xmlns="http://www.w3.org/2000/svg"><path d="M21.503 2.203a.615.615 0 00-.648.112l-2.817 2.672a9.88 9.88 0 00-6.076-2.017c-4.958-.008-9.137 3.558-9.734 8.303-.597 4.745 2.585 9.17 7.4 10.3C14.445 22.7 19.377 20.18 21.11 15.7a.552.552 0 00-.336-.714.597.597 0 00-.445.011.568.568 0 00-.305.314c-1.309 3.358-4.704 5.53-8.42 5.384-3.718-.146-6.92-2.577-7.936-6.026-1.02-3.45.372-7.142 3.45-9.154 3.08-2.01 7.152-1.893 10.099.297l-2.6 2.474a.54.54 0 00-.134.61c.09.21.302.348.538.348l5.916-.356a.569.569 0 00.543-.524l.359-5.569a.574.574 0 00-.336-.593z" fill="#313235" fill-rule="nonzero"/></svg>