<svg width="24" height="24" viewBox="0 0 24 24" xmlns="http://www.w3.org/2000/svg"><path d="M22.625 18.798a.542.542 0 000-.766l-4.165-4.168-1.802 1.768a.51.51 0 01-.723-.003l-.003-.004a.514.514 0 01.007-.726l1.795-1.764-1.809-1.812-2.716 2.712a.511.511 0 01-.726 0 .511.511 0 010-.726l2.713-2.716-1.805-1.805-1.6 1.577a.514.514 0 01-.723-.733l.004-.003 1.593-1.567-1.808-1.808-3.009 3.012a.511.511 0 01-.726 0 .511.511 0 010-.726L10.13 5.53 8.322 3.72l-1.5 1.476a.518.518 0 01-.729-.007.518.518 0 01.007-.73L7.596 2.99l-1.63-1.63a.545.545 0 00-.767-.004l-.003.004-3.822 3.825a.546.546 0 000 .77l16.659 16.669a.548.548 0 00.766 0l3.826-3.826zm.726-1.499c.295.296.46.693.46 1.113 0 .42-.161.817-.46 1.112l-3.822 3.826c-.296.295-.693.46-1.113.46-.42 0-.813-.161-1.11-.46L.649 6.68a1.545 1.545 0 01-.46-1.108c0-.42.16-.814.46-1.113L4.47.634c.592-.595 1.63-.595 2.222 0L23.35 17.299zm-4.165 1.536a.635.635 0 00-.232-.863.626.626 0 00-.857.228s0 .003-.004.003a.63.63 0 101.093.632zm.155-1.532c.672.386.904 1.243.52 1.916a1.407 1.407 0 01-1.915.52 1.399 1.399 0 01-.66-.857 1.39 1.39 0 01.142-1.065 1.402 1.402 0 011.913-.514z" fill="#313235" fill-rule="nonzero"/></svg>