<svg width="24" height="24" viewBox="0 0 24 24" xmlns="http://www.w3.org/2000/svg"><path d="M13.031 17.932l-.208.185a.396.396 0 01-.141.08L8.077 19.72a.41.41 0 01-.515-.517L9.105 14.6a.405.405 0 01.118-.178c3.005-2.652 8.79-7.778 9.19-8.182.625-.625 1.3-.77 1.791-.77a2.665 2.665 0 011.855.77 2.67 2.67 0 01.77 1.862c-.003.666-.272 1.284-.78 1.785-.18.182-1.59 1.463-9.018 8.044zm6.68 1.076c0 1.183-.313 2.117-.929 2.776-.652.696-1.613 1.049-2.857 1.049H4.954c-1.244 0-2.205-.353-2.854-1.049-.615-.659-.928-1.593-.928-2.776V5.06c0-2.47 1.379-3.885 3.782-3.885h10.971c2.215 0 3.557 1.227 3.748 3.358a3.512 3.512 0 00-1.956 1.015c-.316.316-4.948 4.427-9.146 8.138-.182.161-.32.366-.4.601l-1.543 4.605a1.392 1.392 0 001.755 1.765l4.604-1.523c.179-.06.347-.154.485-.279l.208-.184c2.027-1.795 4.272-3.789 6.027-5.352v5.688h.003zm4.1-10.901a3.687 3.687 0 00-1.059-2.562 3.647 3.647 0 00-2.097-1.015C20.446 1.848 18.668.187 15.922.187H4.954C2.013.188.188 2.054.188 5.059v13.946c0 1.442.403 2.602 1.193 3.449.843.9 2.043 1.358 3.573 1.358h10.971c1.526 0 2.73-.457 3.573-1.358.794-.847 1.197-2.007 1.197-3.449V12.46c0-.004-.003-.01-.003-.017a120.817 120.817 0 002.05-1.852c.696-.69 1.066-1.55 1.07-2.484z" fill="#313235" fill-rule="nonzero"/></svg>