<svg width="24" height="24" viewBox="0 0 24 24" xmlns="http://www.w3.org/2000/svg"><path d="M9.207 9.839c.007-.027.007-.058.007-.088V7.472H5.096v2.276c0 .03.004.06.007.087h1.083c.03 0 .1.01.13.017a.49.49 0 01.397.555c-.51 3.411-1.371 10.56-1.381 10.635.003 1.526 1.089 1.778 1.738 1.788h.198c.649-.013 1.734-.265 1.734-1.832-.003-.013-.598-5.96-1.29-10.544a.487.487 0 01.467-.615h1.028zm.498-9.63c.269 0 .49.218.49.49v9.049c0 .608-.339 1.069-.783 1.069H8.76c.66 4.524 1.217 10.074 1.224 10.13.003 2.088-1.449 2.838-2.693 2.861h-.228c-1.244-.02-2.7-.77-2.7-2.827.014-.124.79-6.578 1.308-10.164h-.76c-.447 0-.786-.46-.786-1.07 0-9.051 0-9.061.003-9.082a.48.48 0 01.494-.46h.01c.266.01.475.228.471.494v5.792H6.61V.699a.491.491 0 01.467-.51.491.491 0 01.511.466v5.839h1.634V.699a.483.483 0 01.484-.49zm7.492 22.621c.629-.013 1.68-.259 1.68-1.775-.002 0-.379-3.737-.87-7.502a.451.451 0 01-.013-.118v-.02c0-.198.118-.37.289-.45V1.25a3.562 3.562 0 00-3.062 3.526v8.168h.571c.27 0 .491.222.491.491l-.003.101c-.458 3.435-.955 7.56-.955 7.563.003 1.479 1.055 1.724 1.68 1.731h.192zm1.836-8.978c.467 3.637.816 7.12.82 7.156.003 2.047-1.422 2.78-2.639 2.804h-.225c-1.22-.017-2.646-.75-2.646-2.77.004-.057.454-3.792.891-7.116h-.504a.488.488 0 01-.487-.49v-8.66A4.537 4.537 0 0118.773.24c.27 0 .488.218.488.49v12.71a.489.489 0 01-.228.413z" fill="#313235" fill-rule="nonzero"/></svg>