<svg width="24" height="24" viewBox="0 0 24 24" xmlns="http://www.w3.org/2000/svg"><path d="M4.915 17.352c.407 0 .67.21.67.663 0 .219-.062.379-.168.49-.118.118-.289.177-.502.177-.21 0-.383-.056-.501-.176-.11-.11-.168-.272-.168-.49 0-.454.263-.664.67-.664zm2.437 0c.406 0 .67.21.67.663 0 .219-.062.379-.168.49-.118.118-.289.177-.499.177-.213 0-.384-.056-.501-.176-.11-.11-.168-.272-.168-.49-.003-.454.26-.664.666-.664zm13.67 1.481v-1.638c0-.734-.174-1.283-.516-1.639-.353-.367-.916-.552-1.675-.552H5.171c-.76 0-1.326.185-1.676.552-.342.356-.515.905-.515 1.639v1.638c0 .734.173 1.283.515 1.639.353.367.916.552 1.675.552h13.661c.76 0 1.322-.185 1.675-.552.342-.356.516-.905.516-1.639zm.075-3.846c.493.513.746 1.255.746 2.208v1.638c0 .953-.253 1.695-.746 2.208-.515.535-1.277.804-2.268.804H5.17c-.991 0-1.753-.27-2.269-.804-.495-.513-.745-1.255-.745-2.208v-1.638c0-.953.25-1.695.745-2.208.516-.532 1.278-.804 2.27-.804h1.887V6.777a.41.41 0 01.818 0v7.41h10.95c.994 0 1.756.268 2.271.8zM13.464 6.75c-.025-2.42-1.585-3.865-1.6-3.88a.411.411 0 01.55-.61c.076.067 1.84 1.69 1.871 4.465.006.104.1 2.83-1.843 4.566a.41.41 0 01-.58-.034.41.41 0 01.034-.58c1.655-1.473 1.571-3.902 1.568-3.927zm-2.588.028c-.017-1.481-.952-2.339-.96-2.347a.41.41 0 01.548-.608c.05.045 1.213 1.112 1.233 2.933.003.062.064 1.854-1.216 3.003a.408.408 0 01-.577-.031l-.003-.003a.41.41 0 01.034-.58c.994-.888.941-2.353.941-2.367z" fill="#313235" fill-rule="nonzero"/></svg>