<svg width="24" height="24" viewBox="0 0 24 24" xmlns="http://www.w3.org/2000/svg"><path d="M13.656.188c.053 0 .105.012.15.035a.36.36 0 01.088.062L20.45 6.84a.333.333 0 01.097.238V22.81c0 .528-.464.992-.991.992H4.479c-.518 0-.992-.474-.992-.992V1.18c0-.5.491-.992.992-.992h9.177zm-.338.671H4.48c-.128 0-.32.192-.32.32v21.63c0 .145.176.32.32.32h15.076c.154 0 .32-.165.32-.32l-.002-15.396-2.94.001c-1.056 0-1.96-.346-2.615-.998-.656-.652-.999-1.556-.999-2.615V.859zm-2.577 10.828c.185 0 .336.15.336.336v8.803a.337.337 0 01-.336.336.337.337 0 01-.336-.336v-8.803c0-.185.151-.336.336-.336zm4.864 1.509c.185 0 .336.151.336.336v.441c.483.044.93.183 1.284.403.155.094.239.228.239.373a.387.387 0 01-.387.386.556.556 0 01-.242-.067l-.003-.003a2.653 2.653 0 00-.89-.309l-.002 1.998.008.002c.854.107 1.872.497 1.872 1.75-.006 1.048-.715 1.737-1.878 1.858v.445a.337.337 0 01-.337.336.337.337 0 01-.336-.336v-.442a3.394 3.394 0 01-1.617-.59.414.414 0 01-.195-.36.401.401 0 01.404-.396.511.511 0 01.269.088c.378.253.76.41 1.14.472l-.002-2.102-.019-.003c-1.355-.24-1.647-1.046-1.647-1.695 0-.998.643-1.678 1.667-1.802v-.447c0-.185.151-.336.336-.336zM7.43 6.426c.185 0 .336.151.336.336V20.81a.337.337 0 01-.336.336.337.337 0 01-.336-.336V6.762c0-.185.151-.336.336-.336zm8.513 11.148l-.002 2.015c.67-.09 1.073-.472 1.073-1.045 0-.385-.134-.796-1.071-.97zm-1.534-1.84c0 .33.107.719.858.912V14.76c-.537.1-.858.454-.858.973zm4.99-8.992l-5.408-5.404V3.8c0 1.785 1.157 2.941 2.942 2.941h2.466z" fill="#313235" fill-rule="nonzero"/></svg>