<svg width="24" height="24" viewBox="0 0 24 24" xmlns="http://www.w3.org/2000/svg"><path d="M21.263 15.173a.581.581 0 010 1.16H16.33v4.932a.581.581 0 01-1.16 0v-5.512c0-.32.258-.58.577-.58h5.516zm-13.017 0c.32 0 .58.258.58.577v5.513a.581.581 0 01-1.16 0V16.33h-4.93a.58.58 0 110-1.16c0 .003 5.51.003 5.51.003zm0-13.017c.32 0 .58.258.58.577v5.513a.59.59 0 01-.577.58H2.736a.579.579 0 110-1.157H7.67V2.736c0-.322.258-.58.577-.58zm7.507 6.67a.579.579 0 01-.58-.577V2.736a.579.579 0 111.157 0V7.67h4.933a.581.581 0 010 1.16h-5.51v-.003z" fill="#313235" fill-rule="nonzero"/></svg>