<svg width="24" height="24" viewBox="0 0 24 24" xmlns="http://www.w3.org/2000/svg"><path d="M23.115 15.808c.383 0 .696.312.696.695a.697.697 0 01-.696.696h-5.92v5.92a.697.697 0 01-.695.695.697.697 0 01-.696-.695v-6.616c0-.383.31-.695.693-.695h6.618zm-15.62 0c.383 0 .696.309.696.692v6.615a.697.697 0 01-.696.696.697.697 0 01-.696-.696v-5.92H.883a.695.695 0 110-1.39c0 .003 6.612.003 6.612.003zm0-15.62c.383 0 .696.309.696.692v6.615a.708.708 0 01-.693.696H.883a.694.694 0 110-1.388h5.92V.883c0-.386.309-.696.692-.696zm9.008 8.003a.694.694 0 01-.695-.693V.883a.694.694 0 111.388 0v5.92h5.92c.382 0 .695.312.695.695a.697.697 0 01-.696.696h-6.612v-.003z" fill="#313235" fill-rule="nonzero"/></svg>