<svg width="24" height="24" viewBox="0 0 24 24" xmlns="http://www.w3.org/2000/svg"><path d="M12.119.188c3.106 0 5.634 2.332 5.634 5.196v3.419c.701.139 1.278.416 1.724.83.7.645 1.059 1.607 1.076 2.857V20c-.017 1.25-.377 2.211-1.076 2.856-.669.616-1.634.931-2.87.931H7.365c-1.237 0-2.202-.315-2.867-.934-.696-.649-1.049-1.61-1.049-2.86l.003-6.962-.002-.307-.001-.23c0-1.251.353-2.212 1.049-2.861.45-.418 1.035-.698 1.75-.835l.001-3.414c0-2.867 2.528-5.197 5.634-5.197h.235zm4.487 9.233h-9.24c-1.049 0-1.849.249-2.38.743-.541.497-.817 1.284-.817 2.326v.042c.001.047.003.131.003.263v.236l-.003 6.962c0 1.042.276 1.825.82 2.332.528.491 1.332.743 2.38.743h9.237c2.145 0 3.2-1.005 3.227-3.075v-7.496c-.027-2.07-1.082-3.076-3.227-3.076zm-4.598 5.809c1.264 0 1.99.726 1.99 1.99.003 1.263-.723 1.99-1.99 1.99-1.264 0-1.99-.727-1.99-1.99 0-1.264.726-1.99 1.99-1.99zm0 .719c-.867 0-1.27.403-1.27 1.27 0 .868.403 1.271 1.27 1.271s1.27-.403 1.27-1.27c0-.868-.403-1.271-1.27-1.271zm.11-15.086h-.234C9.15.863 6.929 2.89 6.929 5.384l-.001 3.329c.143-.01.29-.015.441-.015h9.237c.161 0 .317.006.469.016l-.001-3.33c0-2.49-2.222-4.52-4.955-4.52z" fill="#313235" fill-rule="nonzero"/></svg>