<svg width="24" height="24" viewBox="0 0 24 24" xmlns="http://www.w3.org/2000/svg"><path d="M11.996 22.826c7.186 0 10.827-3.64 10.827-10.823 0-7.187-3.644-10.827-10.827-10.827S1.172 4.819 1.172 12.003c0 7.183 3.644 10.823 10.824 10.823zm0-22.639c7.731 0 11.815 4.088 11.815 11.816 0 7.724-4.084 11.808-11.815 11.808-7.724 0-11.809-4.084-11.809-11.808C.188 4.275 4.272.187 11.996.187zm2.12 12.414l3.228-3.12-3.227-3.129v1.18c0 .272-.296.555-.565.555H8.705a.17.17 0 00-.12.05.16.16 0 00-.051.121v9.657h2.564v-6.548c0-.272.222-.49.491-.49h1.956c.145.01.283.074.384.174.094.094.181.25.181.38.007 0 .007 1.17.007 1.17zm.307-7.321l3.748 3.634a.77.77 0 01-.027 1.156l-3.688 3.57c-.279.228-.601.265-.877.137a.778.778 0 01-.45-.702V11.86h-1.042v6.545c0 .272-.222.49-.491.49H8.04a.491.491 0 01-.491-.49V8.255c0-.31.12-.599.34-.817.218-.219.507-.34.816-.34l4.427.004V5.878c0-.302.171-.568.447-.699a.789.789 0 01.844.1z" fill="#313235" fill-rule="nonzero"/></svg>