<svg width="24" height="24" viewBox="0 0 24 24" xmlns="http://www.w3.org/2000/svg"><path d="M20.994 19.691c-.009.488-.202 1.311-1.41 1.311-1.204 0-1.391-.807-1.4-1.294v-.16c.017-.487.213-1.294 1.367-1.319a.076.076 0 00.042.008c.009 0 .025 0 .034-.008 1.162.025 1.358.832 1.367 1.308v.154zm-15.188-.143v.143c0 .496-.196 1.311-1.409 1.311-1.196 0-1.39-.807-1.39-1.294v-.16c.01-.495.214-1.319 1.41-1.319 1.193 0 1.38.824 1.39 1.32zm1.857-6.93c-.79 0-2.63-.252-2.63-2.588 0-1.314.577-2.143 1.697-2.454.185-.05.306-.31.306-.495 0-3.79 3.342-4.084 4.361-4.084.586 0 3.513.126 4.21 2.697a.432.432 0 00.398.308c.978.025 3.26.404 3.26 3.277 0 3.05-2.58 3.286-3.378 3.286l-8.224.053zm12.356 4.813v-2.68a.43.43 0 00-.423-.421H12.38v-.9l3.505-.024c.705 0 4.226-.194 4.226-4.127 0-2.798-1.893-3.938-3.775-4.1-.984-2.871-4.27-3.023-4.939-3.023-.857 0-5.073.227-5.21 4.715-.857.327-2.003 1.142-2.003 3.16 0 2.529 1.801 3.428 3.48 3.428l3.87-.025v.899h-7.14a.455.455 0 00-.305.126.43.43 0 00-.118.3l.009 2.672c-1.3.185-1.807 1.21-1.824 2.1v.185c.009.984.602 2.127 2.238 2.127 1.647 0 2.25-1.152 2.258-2.135v-.185c-.017-.89-.518-1.913-1.826-2.1l-.009-2.253h14.35v2.26c-1.3.186-1.806 1.2-1.831 2.102v.184c.008.984.602 2.127 2.249 2.127 1.638 0 2.238-1.152 2.258-2.135v-.185c-.017-.89-.524-1.916-1.824-2.092z" fill="#313235" fill-rule="nonzero"/></svg>