<svg width="24" height="24" viewBox="0 0 24 24" xmlns="http://www.w3.org/2000/svg"><path d="M7.603 1.515c.356.35.666.743.921 1.17 1.25 2.01.229 3.717-.85 4.793-.195.198-.4.38-.622.548-.31.369-.201 1.313 1.962 3.702l4.848-4.842a.525.525 0 00.094-.228c.003-.387.04-.773.11-1.153.162-.891.471-1.57.919-2.017.44-.44 1.109-.746 1.983-.911.39-.074.783-.114 1.18-.121.39 0 .699.188.826.5.128.313.04.666-.232.939l-.813.813a.351.351 0 00-.047.141l.155 1.076 1.075.154a.351.351 0 00.141-.047l.817-.81c.239-.238.48-.289.642-.289.394 0 .794.303.797.88-.003.387-.04.774-.111 1.154-.161.89-.47 1.57-.918 2.017-.44.44-1.109.746-1.983.91-.39.071-.786.112-1.183.118a.546.546 0 00-.232.094l-4.85 4.849.128.116c2.299 2.054 3.214 2.152 3.576 1.849.168-.219.353-.427.551-.622 1.076-1.076 2.783-2.098 4.793-.85.427.255.82.564 1.17.92 1.892 1.896 1.896 3.86.003 5.84-.225.234-.554.507-.978.816l-.027.02-.016.014c-.636.43-1.453.648-2.404.648-.857 0-1.822-.178-2.86-.534-2.311-.79-4.887-2.418-7.449-4.702l-.978.978a.525.525 0 00-.094.228c-.004.387-.04.773-.111 1.153-.162.89-.47 1.57-.918 2.017-.44.44-1.11.746-1.983.91-.39.071-.787.112-1.183.118-.39-.003-.7-.191-.827-.504-.128-.312-.04-.665.232-.938l.81-.81a.307.307 0 00.047-.14l-.155-1.076-1.072-.155a.351.351 0 00-.141.047l-.814.813c-.238.24-.48.29-.642.29-.393 0-.793-.306-.796-.888.003-.386.04-.773.11-1.153.162-.89.471-1.57.918-2.017.44-.44 1.11-.746 1.984-.91.39-.071.786-.112 1.183-.118a.546.546 0 00.232-.094l.974-.975-.258-.292C3.094 12.494 1.564 10.037.8 7.82.04 5.619.08 3.743.914 2.537a.073.073 0 01.013-.017l.02-.027c.306-.427.582-.756.817-.982 1.98-1.892 3.943-1.889 5.839.004zm10.545 1.613c-.061 0-1.863.01-2.693.83-.84.84-.834 2.693-.834 2.693 0 .225-.127.541-.289.702l-9.337 9.342a1.16 1.16 0 01-.703.289c-.067 0-1.869.006-2.696.833-.84.84-.833 2.693-.833 2.693 0 .138.05.211.124.211.047 0 .104-.03.168-.09l.82-.817a.953.953 0 01.615-.239c.027 0 .058.004.084.007l1.174.168a.588.588 0 01.467.467l.168 1.173a.92.92 0 01-.232.7l-.817.816c-.161.158-.104.293.121.293.06 0 1.862-.007 2.69-.834.84-.84.833-2.692.833-2.692 0-.225.128-.541.289-.703l9.341-9.338a1.16 1.16 0 01.703-.289h.02c.198-.002 1.881-.042 2.672-.833.77-.77.829-2.391.833-2.656v-.037c0-.138-.05-.211-.124-.211-.047 0-.107.026-.168.09l-.817.817a.953.953 0 01-.615.239.708.708 0 01-.084-.007l-1.173-.168a.588.588 0 01-.467-.467l-.168-1.173a.92.92 0 01.232-.7l.817-.816c.16-.162.104-.293-.121-.293zm-6.391 12.306l-2.563 2.56.309.27c2.384 2.069 4.756 3.543 6.883 4.273 1.98.679 3.634.665 4.656-.034l.043-.03a6.71 6.71 0 00.884-.733c.844-.884 1.247-1.711 1.234-2.528-.013-.783-.417-1.56-1.227-2.37a5.063 5.063 0 00-1.035-.816l-.01-.007c-.642-.4-1.294-.548-1.933-.44-.676.114-1.358.514-2.037 1.193-.185.181-.356.38-.514.585a.403.403 0 01-.037.04c-.491.454-1.217.427-2.162-.077-.676-.365-1.494-.98-2.491-1.886zM4.759.758c-.817-.016-1.643.387-2.527 1.234a6.49 6.49 0 00-.767.935C.763 3.955.753 5.616 1.438 7.602c.762 2.213 2.33 4.687 4.534 7.167l2.568-2.565-.174-.193c-.813-.914-1.375-1.67-1.714-2.305-.504-.94-.528-1.664-.078-2.154.014-.014.024-.027.04-.037.21-.158.404-.33.586-.515.675-.675 1.079-1.36 1.193-2.037.107-.638-.04-1.287-.44-1.932l-.007-.01c-.225-.38-.501-.726-.817-1.036-.81-.81-1.587-1.213-2.37-1.227z" fill="#313235" fill-rule="nonzero"/></svg>