<svg width="24" height="24" viewBox="0 0 24 24" xmlns="http://www.w3.org/2000/svg"><path d="M23.465 19.521a.337.337 0 010 .672H.524a.337.337 0 01-.337-.335c0-.185.152-.337.337-.337h22.94zM20.198 3.75c1.216 0 2.14.353 2.75 1.049.57.655.863 1.623.863 2.877v5.926c0 1.254-.289 2.222-.864 2.877-.608.7-1.533 1.053-2.75 1.053H3.812c-1.217 0-2.141-.353-2.75-1.05-.574-.658-.863-1.626-.863-2.88V7.676c0-1.254.289-2.222.863-2.877.609-.696 1.533-1.049 2.75-1.049h16.387zm0 .672H3.81C1.804 4.422.87 5.458.87 7.68v5.926c0 2.222.934 3.258 2.941 3.258h16.387c2.006 0 2.94-1.036 2.94-3.258V7.676c0-2.222-.934-3.254-2.94-3.254zm-4.29 1.68c.67 0 1.298.226 1.365.25.32.117.528.386.541.699.014.312-.171.598-.48.743l-.592.275-.087.42.376.202.592-.275a.856.856 0 01.373-.088c.242 0 .47.114.612.313.148.208.174.48.08.746-.09.245-.205.477-.336.702-.312.538-.679.908-1.089 1.1a2.19 2.19 0 01-.924.185c-.619 0-1.2-.189-1.341-.24h-.014l-4.538 2.115-.01.01c-.09.236-.198.46-.326.676-.312.538-.679.907-1.089 1.099a2.202 2.202 0 01-.924.185 4.38 4.38 0 01-1.368-.249c-.32-.117-.531-.386-.542-.699-.01-.313.175-.598.485-.743l.591-.275.088-.42-.377-.202-.592.275a.856.856 0 01-.373.088.74.74 0 01-.611-.313c-.148-.208-.175-.48-.081-.746.09-.246.205-.477.336-.703.313-.537.679-.907 1.09-1.099.261-.12.574-.185.923-.185.619 0 1.2.189 1.342.239h.013l4.535-2.114.01-.01c.09-.236.198-.46.326-.676.316-.538.682-.908 1.092-1.1a2.19 2.19 0 01.925-.184zm0 .673c-.225 0-.45.034-.642.121-.678.32-1.075 1.419-1.075 1.419a.71.71 0 01-.323.356l-4.585 2.141a.752.752 0 01-.272.05.63.63 0 01-.208-.033s-.565-.208-1.137-.208c-.225 0-.45.03-.642.12-.679.32-1.075 1.42-1.075 1.42-.034.097-.007.157.06.157a.2.2 0 00.088-.023l.662-.31a.524.524 0 01.215-.043.536.536 0 01.249.053l.659.353a.367.367 0 01.174.377l-.154.733a.589.589 0 01-.29.363l-.661.309c-.128.064-.125.151.01.202 0 0 .564.208 1.136.208.225 0 .45-.03.642-.121C9.418 14.099 9.814 13 9.814 13a.717.717 0 01.323-.353l4.585-2.144a.752.752 0 01.272-.05c.07 0 .141.01.209.033 0 0 .564.209 1.136.209.225 0 .45-.03.642-.121.679-.32 1.075-1.419 1.075-1.419.034-.097.007-.158-.06-.158a.2.2 0 00-.087.024l-.663.309a.524.524 0 01-.215.044.536.536 0 01-.249-.054l-.658-.353a.373.373 0 01-.175-.377l.154-.732a.586.586 0 01.29-.367l.662-.31c.127-.06.124-.147-.01-.197 0 0-.565-.209-1.136-.209z" fill="#313235" fill-rule="nonzero"/></svg>