<svg width="24" height="24" viewBox="0 0 24 24" xmlns="http://www.w3.org/2000/svg"><path d="M19.762.217c2.396 0 3.563 1.184 3.563 3.614v16.387c0 1.247-.283 2.14-.868 2.732-.585.592-1.465.88-2.695.88H11.14c-1.23 0-2.115-.288-2.7-.88-.584-.591-.867-1.485-.867-2.732v-4.3l-.34.34c.047.344.04.69-.019 1.03l-.054.254a3.295 3.295 0 01-4.044 2.356.674.674 0 01-.303-1.126l.905-.904-.111-.79-.79-.114-.904.904a.671.671 0 01-1.126-.303 3.295 3.295 0 013.64-4.11l3.149-3.15V3.832C7.577 1.367 8.71.217 11.14.217h8.622zm-.004.673H11.14c-2.054 0-2.891.85-2.891 2.94l-.001 5.803 1.974-1.973a3.39 3.39 0 01.02-1.03l.054-.255a3.295 3.295 0 014.044-2.352.674.674 0 01.303 1.126l-.905.904.111.79.79.11.904-.904a.671.671 0 011.126.303 3.295 3.295 0 01-3.64 4.11l-4.784 4.784v4.972c0 1.062.22 1.801.673 2.262.454.46 1.176.682 2.218.682h8.622c1.042 0 1.768-.222 2.219-.682.45-.46.672-1.2.672-2.262V3.83c0-2.06-.864-2.941-2.89-2.941zM15.45 19.02c.605 0 .998.32.998 1.003 0 .329-.09.571-.252.736-.175.178-.43.265-.746.265s-.571-.087-.746-.265c-.162-.165-.252-.41-.252-.736.003-.683.396-1.002.998-1.002zM13.486 4.58a2.618 2.618 0 00-2.534 3.3v.001l-6.306 6.306a2.623 2.623 0 00-3.21 3.213l1.142-1.142 1.624.232.232 1.62-1.143 1.143a2.623 2.623 0 003.21-3.213l6.31-6.303a2.623 2.623 0 003.21-3.213l-1.143 1.142-1.624-.232-.232-1.623 1.143-1.143a2.726 2.726 0 00-.68-.087z" fill="#313235" fill-rule="nonzero"/></svg>