<svg width="64" height="64" viewBox="0 0 64 64" xmlns="http://www.w3.org/2000/svg"><path d="M60.762 25.255c.108-.25.206-.735-.26-1.219L40.513 3.546c-.564-.583-1.703-.583-2.267 0l-18.223 18.67h1.004c2.536 0 4.419.655 5.754 2.008 1.336 1.354 1.981 3.236 1.981 5.773v18.115h25.009c.815 0 1.479-.564 1.479-1.255V27.433c0-.735.591-1.326 1.317-1.326h2.797c.78-.01 1.228-.448 1.398-.852zm-34.635 30.45V29.996c0-1.793-.403-3.066-1.22-3.9-.815-.824-2.088-1.227-3.88-1.227H8.245c-1.775 0-3.04.412-3.873 1.255-.824.842-1.228 2.106-1.228 3.863v25.716c0 1.811.404 3.093 1.228 3.918.816.806 2.08 1.21 3.873 1.21h12.782c1.792 0 3.056-.395 3.872-1.21.825-.825 1.228-2.107 1.228-3.918zm36.258-33.533c1.093 1.12 1.407 2.698.815 4.114-.627 1.506-2.133 2.474-3.836 2.474h-1.47v18.097c0 2.16-1.847 3.918-4.123 3.918H28.762v4.938c0 2.555-.654 4.455-2.008 5.8-1.335 1.335-3.218 1.98-5.736 1.98H8.245c-2.528 0-4.402-.645-5.737-1.98C1.163 60.168.5 58.268.5 55.713V30.006c0-2.501.654-4.374 1.99-5.728 1.353-1.38 3.236-2.053 5.755-2.053h8.094c.009-.008.018-.026.036-.044L36.372 1.69c1.551-1.587 4.491-1.587 6.042 0l19.97 20.482zm-47.75 32.376c1.363 0 2.17.816 2.17 2.187 0 .673-.188 1.201-.565 1.587-.376.394-.932.6-1.604.6-.664 0-1.22-.206-1.596-.6-.376-.386-.565-.923-.565-1.587-.009-1.362.798-2.187 2.16-2.187zm25.242-17.317c.726-.018.726-.341.726-.655 0-.305 0-.654-.6-.663h-.153c-.52 0-.565.26-.565.654 0 .386.045.655.592.664zm.215-3.971c1.55.027 3.155 1.066 3.155 3.316 0 2.241-1.595 3.28-3.182 3.308-1.82-.018-3.424-1.058-3.424-3.326s1.605-3.298 3.191-3.307c.027.009.233 0 .26.009zm-.26-15.812c.26-.018 7.583-.394 12.522 5.172a1.33 1.33 0 01-.986 2.214c-.358 0-.726-.152-.986-.44-4.07-4.57-10.415-4.284-10.46-4.284-6.74.072-10.272 3.845-10.416 3.998a1.31 1.31 0 01-1.864.08 1.33 1.33 0 01-.09-1.873c.17-.197 4.392-4.786 12.28-4.867zm.01 5.262c.223 0 6.059-.216 9.805 3.997a1.33 1.33 0 01-.107 1.874c-.538.493-1.38.439-1.865-.108-2.904-3.272-7.708-3.12-7.762-3.11-4.805.054-7.673 3.137-7.7 3.173-.26.287-.618.43-.977.43-.314 0-.636-.116-.887-.34a1.338 1.338 0 01-.099-1.874c.144-.152 3.63-3.97 9.591-4.042zm.026 5.387c.117-.018 4.043-.153 6.57 2.689a1.33 1.33 0 01-.107 1.873 1.32 1.32 0 01-1.865-.107c-1.667-1.874-4.472-1.829-4.526-1.802-2.824.036-4.464 1.775-4.527 1.846-.26.287-.618.43-.977.43-.314 0-.636-.116-.887-.34a1.33 1.33 0 01-.09-1.873c.09-.108 2.438-2.672 6.41-2.716z" fill="#313235" fill-rule="nonzero"/></svg>