<svg width="24" height="24" viewBox="0 0 24 24" xmlns="http://www.w3.org/2000/svg"><path d="M21.953 5.774l-1.987 1.197c-3.583-3.987-7.26-4.857-9.674-4.894 2.296-.918 4.484-1.14 6.528-.642 1.93.473 3.708 1.596 5.29 3.34a.665.665 0 01.169.518.671.671 0 01-.326.481zM8.467 3.216c1.58-.289 6.172-.575 10.625 4.286l-5.99 3.606-4.635-7.892zM6.894 14.85c-2.333-5.553-.249-9.584.753-11.042l4.595 7.818-5.348 3.224zM3.59 16.843a.693.693 0 01-.592.067.682.682 0 01-.423-.376c-.894-2.158-1.126-4.209-.69-6.101.508-2.249 1.944-4.256 4.25-5.987-1.093 2.165-2.22 6.05-.115 10.931l-2.43 1.466zM22.867 4.117C21.15 2.224 19.197 1 17.065.477 14.198-.22 11.1.342 7.84 2.15l-.508-.867a.511.511 0 00-.692-.181.483.483 0 00-.195.655l.01.017.52.89c-3.37 2.078-5.414 4.62-6.08 7.554-.48 2.087-.232 4.34.74 6.682.181.437.554.78 1.055.948.195.057.363.084.528.084.309 0 .628-.084.904-.249l8.629-5.2 6.504 11.076c.14.239.45.323.692.181a.483.483 0 00.195-.655l-.01-.017-6.524-11.102 8.88-5.352a1.68 1.68 0 00.797-1.193 1.638 1.638 0 00-.417-1.304z" fill="#313235" fill-rule="nonzero"/></svg>