<svg width="24" height="24" viewBox="0 0 24 24" xmlns="http://www.w3.org/2000/svg"><path d="M21.707 6.431a1.125 1.125 0 010-2.249c.618 0 1.12.505 1.12 1.127 0 .621-.505 1.122-1.12 1.122m-5.314 8.793a1.125 1.125 0 010-2.248 1.125 1.125 0 010 2.249m-9.177-4.05c-.618 0-1.12-.502-1.12-1.12v-.007c0-.618.502-1.123 1.12-1.123.619.004 1.12.505 1.116 1.123a1.122 1.122 0 01-1.116 1.126m-4.92 8.743a1.122 1.122 0 010-2.245c.618.003 1.118.504 1.118 1.122a1.126 1.126 0 01-1.119 1.123m19.408-16.73c-1.16 0-2.104.952-2.104 2.118 0 .582.236 1.11.615 1.496l-3.146 5.304a1.954 1.954 0 00-.679-.12c-.682 0-1.28.332-1.667.836l-5.445-2.403c.023-.121.037-.246.037-.37a2.112 2.112 0 00-2.105-2.114 2.112 2.112 0 00-1.432 3.657l-2.91 5.176a2.074 2.074 0 00-.575-.09c-1.16 0-2.104.947-2.104 2.114 0 1.166.944 2.118 2.104 2.118a2.113 2.113 0 001.432-3.654l2.91-5.173c.189.053.38.084.579.084.679 0 1.28-.333 1.664-.837l5.445 2.403a1.943 1.943 0 00-.037.37c0 1.166.945 2.117 2.104 2.117a2.11 2.11 0 001.513-3.576l3.16-5.334c.204.067.416.11.641.11a2.11 2.11 0 002.105-2.114 2.11 2.11 0 00-2.105-2.117" fill="#313235" fill-rule="nonzero"/></svg>