<svg width="24" height="24" viewBox="0 0 24 24" xmlns="http://www.w3.org/2000/svg"><path d="M10.83 13.837c.063-.111.107-.222.144-.33-.948.625-2.625 1.446-5.055 1.358.524.397 1.428.713 2.887.306 1.008-.282 1.69-.733 2.024-1.334zm.793-1.89a.513.513 0 01.366.35c.014.04.286 1.015-.279 2.03-.47.847-1.358 1.46-2.635 1.815a5.776 5.776 0 01-1.55.232c-2.406 0-3.183-1.895-3.193-1.919a.51.51 0 01.07-.497.495.495 0 01.465-.192c4.134.544 6.252-1.657 6.272-1.677a.516.516 0 01.484-.142zm-7.543-.712c.158 0 .33-.01.497-.03.552-.064 1.07-.252 1.07-.252s.366-.195.04-.468c0 0-.343-.396-.918-.396-.333 0-.74.13-1.203.55-.491.445-.07.596.514.596zm1.916.669a6.193 6.193 0 01-1.304.309 5.563 5.563 0 01-.609.037c-.887 0-1.445-.29-1.663-.86-.091-.24-.23-.868.477-1.506.595-.535 1.227-.807 1.879-.807.72 0 1.307.356 1.623.686.316.295.474.685.43 1.079-.053.497-.403.847-.709 1.008-.043.02-.084.037-.124.054zm2.39-2.46c-.239.42-.08.57.232.57.255 0 .618-.1.958-.235.524-.208.971-.548.971-.548s.3-.299-.117-.507c0 0-.313-.219-.737-.219-.393 0-.887.195-1.307.938zm.232 1.582c-.746 0-1.083-.437-1.19-.625-.172-.296-.296-.79.084-1.459.713-1.26 1.674-1.448 2.185-1.448.598 0 1.055.242 1.24.353.528.285.67.716.706.95.1.613-.266 1.036-.383 1.15-.034.034-.07.064-.108.095a5.751 5.751 0 01-1.203.679c-.353.137-.867.305-1.331.305zm4.864 4.935c1.93.114 3.24.864 4.003 1.482-.121-.51-.518-1.12-1.62-1.543-1.13-.437-1.896-.245-2.383.06zm7.69.242c1.066-2.447 1.44-4.582 1.567-5.738-1.624.696-3.725.494-4.898.04-1.153-.443-2.847-1.815-3.59-3.29-.265.393-.601.914-.95 1.506-.01.016-.028.026-.041.043.124.404.238.83.346 1.274.114-.03.225-.064.37-.074.104-.006.201-.013.299-.013 1.832 0 2.494 1.25 2.602 1.98a1.27 1.27 0 01-.215 1.055 1.26 1.26 0 01-1.019.48c-.138 0-.235-.016-.235-.016l-.118-.027a6.68 6.68 0 01-1.24-.531c-.007-.003-.007-.01-.014-.013.02.709-.05 1.32-.201 1.855.648-.161 1.442-.141 2.39.222 1.035.397 1.734.995 2.077 1.778.45 1.032.084 1.99.07 2.03a.502.502 0 01-.406.316c-.02.004-.04.004-.06.004a.5.5 0 01-.41-.212c-.061-.088-1.598-2.151-5.127-1.89-.027.004-.05-.013-.077-.016a5.2 5.2 0 01-.437.292c.538.81 1.398 1.452 2.669 1.94 3.102 1.193 4.887 1.045 6.648-2.995zm-12.225 1.14c3.375-.945 4.8-2.196 3.765-6.733-.635-2.784-1.674-4.844-2.282-5.886-.737 1.294-2.058 2.3-3.883 2.938-.985.346-3.19.467-5.33-.48.05 1.384.248 4.224 1.034 6.335 1.335 3.567 3.399 4.743 6.696 3.825zm4.874-6.33c.037.188.067.373.094.551.172.152.397.306.639.444.49.279 1.029.444 1.029.444a.6.6 0 00.067.003c.114 0 .32-.037.242-.34 0 0-.115-1.149-1.61-1.149-.07 0-.148.003-.226.01a.93.93 0 00-.235.037zM23.535 9.1a.51.51 0 01.28.458c0 .127-.038 3.19-1.722 7.052-1.368 3.143-2.894 4.258-4.786 4.258-.948 0-1.987-.279-3.143-.726-1.523-.584-2.565-1.388-3.213-2.426-.525.225-1.1.423-1.735.601-.8.225-1.55.336-2.245.336-2.605 0-4.467-1.58-5.664-4.783C.164 10.811.187 6.526.187 6.344a.514.514 0 01.253-.437.518.518 0 01.504 0C3.092 7.147 5.42 6.976 6.21 6.7c1.341-.467 3.066-1.405 3.66-3.203a.506.506 0 01.4-.34.491.491 0 01.485.202c.06.08 1.14 1.583 2.087 4.165a27.06 27.06 0 011.156-1.711.507.507 0 01.525-.188c.195.05.346.215.376.413.209 1.365 2.145 3.076 3.298 3.52 1.193.457 3.526.571 4.803-.407a.513.513 0 01.534-.05zm-3.223 4.323s-.266-.618-1.079-.618c-.205 0-.444.037-.723.134-.689.242-.013.545.67.703.476.107.96.114.96.114s.36-.037.172-.333zm-2.135-1.439c.367-.127.72-.191 1.053-.191 1.102 0 1.737.689 1.97 1.15.208.366.231.776.06 1.132-.182.383-.562.639-1.015.69-.037.003-.07.006-.108.006h-.01c-.06 0-.612-.01-1.176-.141-.46-.108-1.684-.387-1.738-1.402-.01-.212.027-.918.964-1.244z" fill="#313235" fill-rule="nonzero"/></svg>