<svg width="64" height="64" viewBox="0 0 64 64" xmlns="http://www.w3.org/2000/svg"><path d="M51.252 60.87c6.507 0 9.555-2.958 9.555-9.304 0-6.374-3.039-9.332-9.555-9.332-6.535 0-9.582 2.958-9.582 9.332 0 6.346 3.038 9.304 9.582 9.304zm-21.45-26.246c6.14 0 9.528 3.882 11.787 7.897l2.07-1.801L5.69 3.709c-3.522 4.509-.349 9.304 3.102 12.666L27.66 34.759c.744-.08 1.47-.135 2.142-.135zm-8.426 7.368c1.399-2.312 2.86-4.015 4.527-5.216l-1.452-1.39-5.352 5.217c.86.368 1.614.843 2.277 1.39zm-8.605 18.645c6.508 0 9.555-2.967 9.555-9.313 0-2.6-.51-4.617-1.56-6.105 0-.027-.026-.027-.026-.027-.08-.16-.188-.286-.296-.448-1.56-1.864-4.087-2.752-7.673-2.752-6.534 0-9.582 2.967-9.582 9.332 0 6.355 3.048 9.313 9.582 9.313zm44.19-56.928L33.227 26.835l4.975 4.85c.027-.028.054-.081.08-.108L53.87 16.366c2.474-2.385 4.007-4.85 4.5-7.082.394-2.008-.063-3.845-1.407-5.575zm-5.71 35.9c7.727 0 12.245 3.8 12.245 11.957 0 8.13-4.518 11.93-12.244 11.93-7.754 0-12.271-3.8-12.271-11.93 0-2.439.457-4.428 1.21-6.114-.08-.08-.162-.152-.215-.233-2.474-5.01-5.119-7.448-8.749-7.897-.027 0-.08.027-.107.027a7.976 7.976 0 00-3.21 1.21c-1.693 1.103-3.2 2.887-4.651 5.558 1.129 1.837 1.747 4.222 1.747 7.207 0 8.13-4.517 11.93-12.244 11.93C5.018 63.263.5 59.454.5 51.324c0-8.13 4.518-11.958 12.271-11.958 1.237 0 2.367.126 3.442.34l6.355-6.184L6.882 18.23C.527 12.054-.28 5.726 4.668.876a1.417 1.417 0 011.91 0l24.73 24.104L56.065.876a1.365 1.365 0 011.883 0c4.974 4.859 4.177 11.178-2.179 17.363L40.191 33.423c-.054.054-.08.054-.135.08l6.508 6.347c.08.08.161.215.215.314a17.932 17.932 0 014.473-.556zm-.008 15.488c2.689 0 3.64-.923 3.64-3.54 0-2.59-.987-3.55-3.64-3.55-2.69 0-3.64.923-3.64 3.55 0 2.617.95 3.54 3.64 3.54zm0-9.716c3.998 0 6.337 1.972 6.337 6.167 0 4.204-2.34 6.167-6.337 6.167-3.998 0-6.328-1.963-6.328-6.167-.01-4.195 2.33-6.167 6.328-6.167zm-38.48 9.483c2.688 0 3.638-.932 3.638-3.55 0-2.58-.986-3.549-3.639-3.549-2.689 0-3.64.923-3.64 3.55-.008 2.626.951 3.55 3.64 3.55zm0-9.716c3.997 0 6.336 1.963 6.336 6.167 0 4.203-2.34 6.167-6.337 6.167-3.998 0-6.337-1.955-6.337-6.158 0-4.204 2.33-6.176 6.337-6.176zm16.671-15.256c.843 0 1.336.42 1.336 1.308 0 .897-.502 1.309-1.336 1.309-.842 0-1.335-.412-1.335-1.309 0-.887.493-1.308 1.335-1.308z" fill="#313235" fill-rule="nonzero"/></svg>