<svg width="24" height="24" viewBox="0 0 24 24" xmlns="http://www.w3.org/2000/svg"><path d="M20.8 20.8c2.604-2.602 2.688-5.24.258-7.836-.054-.063-.1-.104-.144-.147l-.108-.105-1.14-1.14-8.09 8.095.561.558c.128.148.245.259.366.373l.216.208c2.679 2.68 5.398 2.676 8.08-.006zM3.2 11.287l.204.212c.115.118.226.239.347.343l.393.393 8.094-8.094-1.076-1.076C9.865 1.808 8.554 1.176 7.246 1.176c-1.35 0-2.706.67-4.047 2.014C.514 5.879.514 8.6 3.2 11.287zm1.656 1.657l6.01 6.01 8.091-8.094-6.01-6.01-8.09 8.094zm16.948-.648c2.773 2.96 2.676 6.238-.299 9.213-1.533 1.533-3.146 2.303-4.756 2.303-1.61 0-3.217-.764-4.746-2.296l-.199-.192a5.96 5.96 0 01-.41-.417l-.85-.85c-.014-.01-.03-.017-.04-.027l-6.72-6.72c-.01-.01-.013-.026-.027-.04l-.689-.689c-.12-.1-.255-.242-.393-.386L2.487 12c-3.066-3.066-3.066-6.444 0-9.513 3.022-3.022 6.35-3.065 9.374-.131l1.416 1.415c.006.007.016.01.023.017l6.726 6.716c.004.003.004.01.01.017l1.57 1.566c.067.067.138.135.198.209zm-10.403-.935a.765.765 0 110 1.082.771.771 0 010-1.082zm-.676 3.49c.3-.3.78-.3 1.08 0 .298.298.298.782 0 1.078-.3.3-.784.3-1.08 0a.76.76 0 010-1.079zm5.331-4.253a.765.765 0 11-1.08 1.082.765.765 0 011.08-1.082zm-8.07 1.486c.299-.3.783-.3 1.079 0a.764.764 0 01-1.079 1.079.767.767 0 010-1.08zm4.252-4.252c.3-.3.783-.3 1.079 0 .3.299.3.783 0 1.079-.3.299-.78.299-1.08 0a.76.76 0 010-1.08z" fill="#313235" fill-rule="nonzero"/></svg>