<svg width="64" height="64" viewBox="0 0 64 64" xmlns="http://www.w3.org/2000/svg"><path d="M31.99 60.87c19.163 0 28.87-9.708 28.87-28.863 0-19.164-9.716-28.872-28.87-28.872-19.156 0-28.864 9.708-28.864 28.872 0 19.146 9.717 28.863 28.863 28.863zm0-60.37c20.615 0 31.506 10.9 31.506 31.507 0 20.598-10.89 31.49-31.507 31.49C11.391 63.496.5 52.604.5 32.006.5 11.4 11.39.5 31.99.5zm-1.05 15.82a.99.99 0 01.968 1.175l-.233 1.183a.988.988 0 01-.968.798h-8.363V46.67c0 .547-.439.986-.986.986h-1.3a.983.983 0 01-.985-.986V19.476h-8.56a.983.983 0 01-.987-.986v-1.183c0-.547.44-.986.986-.986H30.94zm23.386 29.858a.99.99 0 01-.842 1.497h-1.461c-.35 0-.673-.188-.852-.484l-8.963-15.014-3.873 4.85v9.653c0 .547-.439.986-.986.986h-1.281a.983.983 0 01-.986-.986V17.325c0-.547.439-.986.986-.986h1.281c.547 0 .986.439.986.986v14.727l12.19-15.346a.995.995 0 01.772-.367h1.506a.99.99 0 01.977 1.004.994.994 0 01-.207.6l-9.232 11.653 9.985 16.582z" fill="#313235" fill-rule="nonzero"/></svg>