<svg width="24" height="24" viewBox="0 0 24 24" xmlns="http://www.w3.org/2000/svg"><path d="M11.239 18.483c-.592 1.324-1.466 2.188-2.343 2.32-.659.093-1.314-.216-1.953-.932l-.138-.154-.212-.017c-.981-.084-1.63-.414-1.926-.978-.396-.757-.161-1.936.629-3.163 1.018-1.587 4.42-3.311 5.889-3.916.336 1.492.824 5.13.054 6.84m-7.56-7.765c-1.391-.561-2.302-1.395-2.434-2.232-.1-.625.23-1.25.979-1.858l.161-.132.02-.201c.088-.935.434-1.553 1.025-1.835.252-.122.555-.182.888-.182.706 0 1.56.269 2.433.78 1.668.971 3.48 4.208 4.115 5.607-1.57.322-5.392.786-7.187.053m8.151-7.2c.592-1.324 1.466-2.191 2.343-2.319.078-.013.155-.017.232-.017.578 0 1.156.32 1.721.948l.138.155.212.02c.981.084 1.63.413 1.926.978.396.756.161 1.936-.632 3.163-1.019 1.587-4.417 3.311-5.89 3.916-.329-1.492-.82-5.13-.05-6.844m7.56 7.765c1.388.565 2.3 1.398 2.434 2.232.1.625-.229 1.25-.975 1.859l-.165.13-.02.203c-.087.934-.434 1.553-1.029 1.835-.793.38-2.033.154-3.32-.602-1.56-.904-3.227-3.768-3.957-5.29-.003-.004-.003-.007-.007-.01l-.148-.31c1.574-.316 5.392-.783 7.187-.047m-2.71 10c2.021 1.617 4.266 2.528 6.223 2.528a7 7 0 00.265-.007.84.84 0 00.404-.128.48.48 0 00.144-.689c-.148-.208-.376-.195-.659-.175-1.738.058-3.812-.776-5.7-2.292l-.085-.067a13.01 13.01 0 01-3.748-4.87c.69.924 1.46 1.754 2.246 2.211 1.045.615 2.077.928 2.981.928a3.14 3.14 0 001.358-.286c.619-.296 1.382-.958 1.577-2.437 1.153-1.008 1.277-1.983 1.173-2.635-.192-1.197-1.308-2.29-3.056-2.999-1.24-.504-3.146-.53-4.847-.4 1.466-.83 3.009-1.902 3.711-2.998.999-1.543 1.244-3.049.673-4.131-.31-.588-1.005-1.314-2.558-1.503C15.719.234 14.698.113 14.015.217c-1.257.185-2.403 1.248-3.146 2.915-.531 1.18-.561 2.995-.42 4.612-.87-1.395-1.997-2.861-3.146-3.53-1.62-.951-3.204-1.186-4.337-.642-.618.296-1.381.958-1.576 2.437C.237 7.017.113 7.992.217 8.644c.192 1.197 1.307 2.29 3.059 2.995.847.35 2.01.47 3.203.47.551 0 1.106-.026 1.644-.07-1.47.83-3.009 1.903-3.714 2.999-.999 1.543-1.244 3.048-.673 4.13.31.589 1.005 1.315 2.558 1.5.874.907 1.725 1.146 2.38 1.146.138 0 .269-.013.39-.03 1.257-.182 2.403-1.247 3.146-2.911.32-.71.454-1.65.484-2.639a14.004 14.004 0 003.913 4.982" fill="#313235" fill-rule="nonzero"/></svg>