<svg width="24" height="24" viewBox="0 0 24 24" xmlns="http://www.w3.org/2000/svg"><path d="M18.36 20.594l4.197 1.852-2.36-8.252-2.705 1.351.02.111.847 4.938zm-14.297-6.38l-2.588 8.222 4.198-1.822.595-5.153-2.205-1.247zm7.47 5.49c-.67-.703-2.02-2.377-3.335-4.404l-.958.276-.02.168-.558 4.88 4.847 1.987.023-2.908zM7.525 2.734c-1.053 1.046-1.59 2.562-1.594 4.511-.013 3.711 4.464 9.691 6.064 11.51 1.607-1.822 6.108-7.805 6.118-11.473.013-3.932-2.145-6.1-6.074-6.11h-.03c-1.933 0-3.442.524-4.484 1.562zm8.984 12.911l-.766-.242c-1.267 1.926-2.555 3.523-3.23 4.242l-.02 2.945 4.87-1.95-.854-4.995zm4.474-2.292l2.81 9.828a.492.492 0 01-.672.585l-5.2-2.292-5.738 2.3a.523.523 0 01-.295.023l-.138-.034-5.597-2.286-5.277 2.293a.491.491 0 01-.666-.602l3.096-9.829a.49.49 0 01.713-.279l2.837 1.604.796-.232c-1.452-2.383-2.709-5.086-2.706-7.19.007-2.188.66-3.987 1.883-5.203C8.05.826 9.84.187 12.013.187h.034c4.426.014 7.065 2.67 7.052 7.1-.007 2.11-1.315 4.853-2.804 7.257l.605.195 3.389-1.691a.502.502 0 01.416-.01c.138.06.236.175.28.316zm-10.55-6.511c0 1.055.534 1.59 1.589 1.59s1.59-.535 1.59-1.59c0-1.056-.535-1.59-1.59-1.59-1.052 0-1.59.534-1.59 1.59zm4.164 0c0 1.587-.988 2.575-2.575 2.575-1.587 0-2.571-.985-2.571-2.575 0-1.59.984-2.575 2.571-2.575 1.587 0 2.575.988 2.575 2.575z" fill="#313235" fill-rule="nonzero"/></svg>