<svg width="24" height="24" viewBox="0 0 24 24" xmlns="http://www.w3.org/2000/svg"><path d="M22.155 23.8H1.836a.337.337 0 01-.336-.335v-2.622c0-1.792.558-3.318 1.61-4.413 1.15-1.19 2.867-1.822 4.965-1.822h7.842c2.097 0 3.815.632 4.965 1.825 1.055 1.096 1.61 2.622 1.61 4.413v2.622a.336.336 0 01-.337.333zM2.172 23.13H21.82v-2.286c0-1.613-.49-2.978-1.422-3.946-1.035-1.073-2.54-1.617-4.48-1.617H8.075c-1.94 0-3.446.544-4.48 1.617-.932.968-1.423 2.33-1.423 3.946v2.286zm9.822-11.126c-3.859 0-5.899-2.04-5.899-5.9 0-1.96.524-3.458 1.56-4.46.998-.965 2.457-1.456 4.34-1.456 1.881 0 3.344.491 4.349 1.456 1.042 1.002 1.566 2.504 1.566 4.46 0 3.86-2.044 5.9-5.916 5.9zm0-11.143c-1.7 0-3.005.427-3.872 1.267-.898.87-1.355 2.208-1.355 3.976 0 1.769.457 3.103 1.355 3.967.867.837 2.171 1.257 3.872 1.257s3.012-.424 3.882-1.26c.905-.868 1.362-2.202 1.362-3.967 0-1.765-.457-3.106-1.362-3.976C15.003 1.287 13.698.86 11.994.86z" fill="#313235" fill-rule="nonzero"/></svg>