<svg width="64" height="64" viewBox="0 0 64 64" xmlns="http://www.w3.org/2000/svg"><path d="M47.651 13.088h-4.087l-2.223 9.197h6.758l.95-7.986c-.009-.592-.627-1.21-1.398-1.21zm-3.97 46.333l4.096-34.42h-7.09l-7.44 30.862a1.36 1.36 0 01-1.64 1.004h-.01a1.354 1.354 0 01-1.013-1.623v-.009l7.288-30.234H9.78l4.087 34.259c.01.914.637 1.533 1.399 1.533H42.29c.762 0 1.38-.61 1.39-1.372zM9.904 13.088c-.762 0-1.389.61-1.389 1.372l.941 7.825h29.087l2.214-9.197H9.905zM57.601 7.37c.654.358.896 1.192.528 1.846a1.376 1.376 0 01-1.864.52L45.778 3.91l-1.56 6.463h3.442c2.268 0 4.123 1.837 4.123 4.087l-5.378 45.105c.01 2.097-1.837 3.926-4.105 3.926H15.266c-2.277 0-4.124-1.829-4.124-4.088L5.8 14.63c-.009-2.411 1.838-4.249 4.114-4.249h31.498l2.125-8.838A1.362 1.362 0 0145.187.54c.125.027.241.072.349.135L57.6 7.37zM22.123 37.407c2.563-2.537.717-4.778.17-5.334l-.25-.25c-.324-.305-1.319-1.139-2.627-1.139-.816 0-1.757.323-2.734 1.29-2.546 2.528-.681 4.805-.161 5.343l.26.26c.331.332 1.3 1.138 2.581 1.138.816.01 1.766-.322 2.76-1.308zm2.133-7.225c2.214 2.259 3.003 5.952-.206 9.134-1.757 1.748-3.523 2.115-4.697 2.115-2.286 0-3.908-1.344-4.509-1.927-.107-.107-.215-.206-.313-.314-2.179-2.276-2.967-5.978.206-9.124 1.739-1.73 3.496-2.089 4.67-2.089 2.286 0 3.926 1.327 4.526 1.9.108.09.224.206.323.305zm1.775 20.258c1.425-1.416.403-2.662.098-2.967a1.97 1.97 0 00-.143-.135c-.18-.17-.726-.636-1.461-.636-.448 0-.977.18-1.515.726-1.416 1.398-.376 2.671-.098 2.967l.143.143c.188.18.726.637 1.434.637.457 0 .986-.188 1.542-.735zm1.828-5.074l.225.224c1.586 1.623 2.231 4.437-.126 6.777-1.273 1.264-2.581 1.524-3.469 1.524-1.21 0-2.429-.52-3.343-1.408l-.206-.206c-1.578-1.631-2.197-4.446.134-6.758 1.255-1.255 2.573-1.515 3.451-1.515 1.712-.01 2.922.959 3.334 1.362z" fill="#313235" fill-rule="nonzero"/></svg>