<svg width="24" height="24" viewBox="0 0 24 24" xmlns="http://www.w3.org/2000/svg"><path d="M19.97 21.805c1.307-.044 2.776-.68 2.843-3.281H19.96l.01 3.28zM1.172 18.524c0 .316.05 1.536.823 2.37.501.537 1.254.826 2.222.88l-.01-3.247H1.173v-.003zM2.427 2.668c-.814.525-1.227 1.48-1.244 2.824h2.985L4.154 2.17c-.373.01-1.092.087-1.727.497zm20.4 2.827c.006-.148.04-1.499-.797-2.41-.48-.52-1.2-.81-2.121-.887l.01 3.297h2.908zm-2.881 9.022l.007 3.005h2.87v-3.008c0 .003-2.877.003-2.877.003zm2.874-8.02h-2.901l.01 3.008h2.894l-.003-3.008zm-2.888 4.01l.01 3.008h2.881v-3.008h-2.89zM5.14 2.171l.06 19.623h13.782l-.06-19.63c-4.152 0-11.6.007-13.782.007zM1.176 17.522h3.025l-.01-3.008H1.176v3.008zm3.002-8.017l-.01-3.008H1.173v3.008h3.005zm-3.002 1.002v3.008h3.015l-.01-3.008H1.176zm18.262-9.345c4.713 0 4.367 4.44 4.367 4.44l.003 12.75c0 4.095-2.931 4.464-3.99 4.464-.235 0-.376-.02-.376-.02H4.534c-4.639 0-4.343-4.42-4.343-4.42v-12.8c0-4.124 3.187-4.413 4.091-4.413.151 0 .239.006.239.006s10.205-.006 14.917-.006zM9.052 15.522l6.01-3.533-6.01-3.532v7.065zm7.24-3.966a.503.503 0 010 .867l-7.486 4.403a.476.476 0 01-.49 0 .506.506 0 01-.246-.433V7.589c0-.178.094-.342.246-.433.15-.091.34-.091.49 0l7.486 4.4z" fill="#313235" fill-rule="nonzero"/></svg>