<svg width="64" height="64" viewBox="0 0 64 64" xmlns="http://www.w3.org/2000/svg"><path d="M44.98 20.627c.806 0 1.434.206 1.873.618.457.43.69 1.067.69 1.9 0 .825-.233 1.462-.69 1.892-.44.412-1.067.618-1.873.618-.807 0-1.435-.206-1.874-.618-.448-.43-.681-1.058-.681-1.891 0-.834.233-1.47.681-1.9.44-.413 1.067-.62 1.874-.62zm-5.172 5.02c.806 0 1.434.206 1.873.627.457.43.69 1.067.69 1.9 0 .825-.233 1.461-.69 1.892-.44.412-1.067.618-1.873.618-.807 0-1.435-.206-1.874-.618-.448-.43-.69-1.058-.69-1.892 0-.833.233-1.47.69-1.9.43-.412 1.058-.628 1.874-.628zm5.172 5.028c.806 0 1.434.206 1.873.619.457.43.69 1.066.69 1.9 0 .824-.233 1.46-.69 1.891-.44.412-1.067.619-1.873.619-.807 0-1.435-.207-1.874-.619-.448-.43-.681-1.058-.681-1.891 0-.825.233-1.47.681-1.9.44-.413 1.067-.619 1.874-.619zm5.18-5.029c.807 0 1.435.207 1.874.628.457.43.69 1.067.69 1.9 0 .825-.233 1.461-.69 1.892-.44.412-1.067.618-1.873.618-.816 0-1.435-.206-1.874-.618-.457-.43-.681-1.058-.681-1.892 0-.833.233-1.47.681-1.9.44-.412 1.067-.628 1.874-.628zM23.504 29.26c.278-.27.323-.888.323-1.237 0-.34-.045-.968-.323-1.237-.206-.197-.655-.305-1.255-.305-.17 0-.206.018-.269.018h-.099c-.035 0-.071 0-.062-.009-.117.009-.224.018-.332.018-.287 0-.547-.054-.762-.188-.34-.215-.574-.592-.7-1.112-.053-.206-.053-.385-.053-.564 0-.036-.009-.072-.009-.099.01-.036.01-.063.01-.09.008-.09.026-.188.026-.242 0-.35-.045-.977-.323-1.246-.206-.197-.654-.304-1.255-.304-.591 0-1.03.107-1.237.304-.286.27-.322.897-.322 1.246 0 .206.027.368.054.538 0 .01 0 .018.009.027.009.063-.01.108 0 .17.035.44-.036.816-.242 1.103-.251.34-.664.547-1.22.627-.026.01-.053.01-.09.01-.07 0-.134-.01-.214-.01h-.01c-.089 0-.179.01-.26.01-.062 0-.116-.01-.178-.019h-.01c-.098-.009-.188-.036-.304-.036-.592 0-1.031.108-1.237.314-.278.27-.323.888-.323 1.237 0 .592.117 1.04.314 1.237.206.188.654.305 1.246.305.296 0 .296 0 .51-.036h.01c.045 0 .188-.018.233-.018h.009c.09-.009.188-.009.278-.009.286 0 .546.054.753.188.34.216.573.583.699 1.103.045.17.036.305.045.448 0 .054.008.099.008.144-.017.098-.026.188-.035.277-.018.108-.045.233-.045.323 0 .592.116 1.049.314 1.237.206.188.654.296 1.237.296.591 0 1.048-.108 1.254-.305.278-.269.323-.887.323-1.237 0-.09-.045-.224-.054-.34l-.027-.198c-.009-.08-.009-.161-.009-.25 0-.108-.026-.207-.017-.323.053-.53.242-.942.555-1.193.26-.215.619-.313 1.04-.313h.143c.027 0 .117.009.144.009h.009c.107.027.17.027.25.027h.234c.583.009 1.04-.108 1.246-.296zm-.888-5.36c1.148.053 2.053.403 2.707 1.021.753.718 1.13 1.757 1.13 3.102 0 1.353-.377 2.393-1.139 3.11-.636.6-1.514.941-2.689 1.004 0 1.354-.385 2.393-1.138 3.11-.717.673-1.757 1.022-3.074 1.022-1.318 0-2.34-.34-3.066-1.022-.708-.68-1.094-1.676-1.12-2.94-1.237-.035-2.214-.376-2.905-1.03-.744-.708-1.13-1.748-1.13-3.102 0-1.344.386-2.393 1.13-3.101.69-.655 1.668-1.004 2.905-1.04.026-1.264.403-2.25 1.12-2.931.726-.69 1.748-1.04 3.066-1.04 1.317 0 2.357.35 3.074 1.04.7.654 1.085 1.595 1.13 2.797zm37.468 23c.332-1.093.78-3.478.798-4.517.099-7.52-3.738-16.368-5.808-21.119-.305-.708-.583-1.326-.798-1.855l-.099-.251c-.134-.332-.26-.619-.358-.852a2.112 2.112 0 00-.117-.242l-.027-.053-.071-.144-.135-.242c-.376-.663-.78-1.21-1.228-1.64-1.667-1.596-4.141-2.394-7.341-2.394a14.26 14.26 0 00-3.675.476c-.386.107-1.47.546-2.035.797-.305.17-1.147.646-1.452.852A10.29 10.29 0 0132 17.463a10.24 10.24 0 01-5.727-1.748 36.378 36.378 0 00-1.461-.86c-.52-.234-1.64-.69-2.035-.798a14.143 14.143 0 00-3.666-.475c-3.21 0-5.674.806-7.342 2.393-.448.421-.851.977-1.281 1.739l-.099.188-.009.009-.072.152c-.026.054-.053.117-.116.242-.117.26-.251.583-.403.941l-.063.153c-.224.538-.493 1.156-.798 1.864C6.866 26.014 3.021 34.861 3.12 42.39c.009 1.04.457 3.425.788 4.518.475 1.533 1.533 2.662 2.923 3.12.528.17 1.407.34 2.088.385.726 0 2.268-.35 2.985-.672.627-.278 1.219-.664 1.829-1.184.34-.295.493-.475 1.228-1.38l.304-.367c.197-.251.395-.502.583-.753.493-.646 1.058-1.38 1.766-2.053 2.151-2.044 4.885-3.54 8.139-4.455a23.111 23.111 0 016.23-.852c2.115 0 4.212.287 6.23.852 3.262.914 5.996 2.411 8.138 4.455.708.672 1.264 1.407 1.766 2.062.188.25.385.502.582.744l.296.367c.735.905.888 1.085 1.237 1.38.771.655 1.434.995 1.874 1.184.744.331 2.465.672 3.155.672.35 0 1.13-.135 1.882-.386 1.398-.466 2.465-1.604 2.94-3.128zm-3.38-28.486c1.794 4.302 6.93 14.817 6.804 24.004-.018 1.327-.52 3.962-.914 5.226-.78 2.537-2.6 4.168-4.598 4.823-.816.268-1.919.52-2.716.52-1.067 0-3.164-.422-4.24-.906a10.493 10.493 0 01-2.51-1.586c-.6-.52-.87-.86-1.855-2.089-.7-.86-1.318-1.802-2.125-2.573-1.855-1.774-4.222-3.038-7.027-3.818a20.857 20.857 0 00-5.513-.753c-1.864 0-3.72.251-5.512.753-2.806.789-5.163 2.044-7.028 3.818-.807.771-1.425 1.704-2.133 2.573-.995 1.22-1.255 1.569-1.856 2.089-1.004.851-1.855 1.308-2.465 1.586-.995.448-2.913.905-4.042.905h-.251c-.789-.071-1.9-.25-2.716-.52-1.99-.654-3.81-2.285-4.598-4.822-.386-1.264-.888-3.908-.906-5.226-.125-9.178 5.01-19.693 6.804-24.004.188-.457.35-.852.484-1.156.125-.287.179-.377.215-.449l.188-.358c.484-.86 1.04-1.658 1.757-2.33 2.17-2.071 5.262-3.12 9.17-3.12 1.604 0 3.03.224 4.356.574.78.206 2.51.968 2.546.986 0 0 1.326.744 1.739 1.03A7.599 7.599 0 0032 14.881c1.478 0 2.966-.43 4.24-1.29.42-.287 1.747-1.031 1.747-1.031.027-.018 1.757-.78 2.537-.986A16.855 16.855 0 0144.88 11c3.908 0 6.992 1.049 9.17 3.12.699.672 1.264 1.47 1.748 2.33l.179.358c.036.072.09.162.215.449.161.304.323.708.51 1.156z" fill="#313235" fill-rule="nonzero"/></svg>