<svg width="24" height="24" viewBox="0 0 24 24" xmlns="http://www.w3.org/2000/svg"><path d="M22.305 19.89a.514.514 0 00.521-.503V7.955H1.172v11.432c0 .279.232.504.521.504h20.612zM1.693 4.087a.516.516 0 00-.52.504V7h21.653V4.59a.512.512 0 00-.52-.504H1.692zm20.612-.955c.83 0 1.506.656 1.506 1.46v14.8c0 .802-.676 1.458-1.506 1.458H1.693c-.83 0-1.506-.656-1.506-1.459V4.59c0-.803.676-1.459 1.506-1.459h20.612zM5.478 10.254l3.341 2.938c.101.09.162.218.162.353a.474.474 0 01-.158.353l-3.341 2.991a.506.506 0 01-.7-.023.47.47 0 01.027-.676l2.945-2.639-2.941-2.588a.467.467 0 01-.034-.675.51.51 0 01.7-.034zm13.25 2.84c.273 0 .495.215.495.478a.487.487 0 01-.494.477h-7.92a.487.487 0 01-.494-.477c0-.263.219-.478.494-.478h7.92zM5.217 6.277c-.38 0-.686-.299-.686-.662 0-.366.306-.665.686-.665.38 0 .686.296.686.665a.675.675 0 01-.686.662zm2.057 0c-.38 0-.685-.299-.685-.662 0-.366.305-.665.685-.665a.67.67 0 01.683.665.672.672 0 01-.683.662zm-4.11 0c-.38 0-.686-.299-.686-.662 0-.366.305-.665.685-.665.38 0 .686.296.686.665a.675.675 0 01-.686.662z" fill="#313235" fill-rule="nonzero"/></svg>