<svg width="24" height="24" viewBox="0 0 24 24" xmlns="http://www.w3.org/2000/svg"><path d="M22.735 11.873a.643.643 0 00-.158-.74l-9.91-9.894a.942.942 0 00-.661-.263.944.944 0 00-.666.263l-9.913 9.893a.643.643 0 00-.158.741c.101.24.374.495.824.495h1.244c.282 0 .51.226.51.502v9.382c0 .413.394.747.875.747h14.416c.484 0 .878-.334.878-.747V12.87c0-.276.228-.502.51-.502h1.385c.45 0 .723-.256.824-.495zm.571-1.444c.501.498.642 1.202.374 1.834-.29.672-.982 1.106-1.769 1.106h-.87v8.88c0 .966-.85 1.751-1.9 1.751H4.722c-1.045 0-1.899-.785-1.899-1.752V13.37H2.09c-.787 0-1.476-.434-1.768-1.106-.27-.632-.128-1.332.373-1.83L10.604.534c.72-.713 2.074-.713 2.79 0l9.912 9.894zM11.96 19.376c.662-.014.662-.44.662-.604 0-.147 0-.595-.585-.608h-.09c-.566.007-.566.44-.566.6.004.168.004.605.579.612zm.107-2.213c.783.017 1.58.523 1.58 1.609 0 1.089-.793 1.591-1.58 1.605h-.114c-.793-.01-1.59-.513-1.59-1.612 0-1.1.793-1.598 1.576-1.605h.007l.121.003zm-.128-8.797c.148-.014 4.226-.215 6.972 2.797a.492.492 0 01-.04.707.528.528 0 01-.726-.041c-2.42-2.65-6.128-2.459-6.172-2.462-3.983.044-6.097 2.28-6.118 2.301a.518.518 0 01-.722.034.495.495 0 01-.037-.706c.1-.106 2.443-2.586 6.843-2.63zm.004 2.93c.124-.007 3.358-.113 5.418 2.141a.492.492 0 01-.04.707.521.521 0 01-.723-.04c-1.734-1.9-4.598-1.821-4.628-1.807-2.868.03-4.548 1.823-4.565 1.84a.521.521 0 01-.38.168.507.507 0 01-.343-.13.492.492 0 01-.04-.707c.084-.085 2.007-2.138 5.3-2.172zm.02 2.995c.077-.003 2.205-.078 3.57 1.417a.492.492 0 01-.04.707.521.521 0 01-.723-.04c-1.036-1.131-2.773-1.083-2.78-1.083-1.718.02-2.746 1.096-2.756 1.106a.518.518 0 01-.723.034.495.495 0 01-.037-.707c.054-.054 1.324-1.41 3.489-1.434z" fill="#313235" fill-rule="nonzero"/></svg>