<svg width="64" height="64" viewBox="0 0 64 64" xmlns="http://www.w3.org/2000/svg"><path d="M32.031 45.556c1.963 0 3.496.53 4.572 1.56 1.12 1.076 1.685 2.653 1.685 4.697 0 4.033-2.223 6.256-6.257 6.256-4.033 0-6.256-2.223-6.256-6.256 0-4.034 2.223-6.257 6.256-6.257zm0 1.847c-3.012 0-4.41 1.398-4.41 4.41 0 3.012 1.398 4.41 4.41 4.41 3.012 0 4.41-1.398 4.41-4.41 0-1.524-.376-2.653-1.12-3.37-.717-.69-1.82-1.04-3.29-1.04zm.117-14.467c2.868 0 5.647.564 8.273 1.676a21.091 21.091 0 016.517 4.32.923.923 0 01.018 1.309.923.923 0 01-1.31.018 19.259 19.259 0 00-5.951-3.944 19.3 19.3 0 00-7.556-1.533c-2.68 0-5.27.538-7.718 1.587a19.365 19.365 0 00-6.015 4.096.86.86 0 01-.636.269.93.93 0 01-.654-.269.93.93 0 010-1.309 21.16 21.16 0 016.588-4.481 21.128 21.128 0 018.444-1.74zm.009-13.464c4.4 0 8.685.86 12.719 2.564a32.659 32.659 0 0110.21 6.794.922.922 0 01.008 1.309.922.922 0 01-1.308.009 30.722 30.722 0 00-9.627-6.41 30.742 30.742 0 00-12.002-2.42c-4.213 0-8.292.834-12.128 2.466a31.024 31.024 0 00-9.717 6.552l-.035.036a.91.91 0 01-1.3.009.92.92 0 01-.01-1.3l.046-.045a32.796 32.796 0 0110.29-6.946 32.509 32.509 0 0112.854-2.618zM32.175 6A44.059 44.059 0 0149.33 9.442a44.115 44.115 0 0113.893 9.26.93.93 0 01.01 1.308.93.93 0 01-1.31.009 42.18 42.18 0 00-13.31-8.874 42.306 42.306 0 00-16.448-3.299c-5.737 0-11.303 1.12-16.538 3.344a42.505 42.505 0 00-13.446 9.044l-.053.054a.87.87 0 01-.646.278.93.93 0 01-.654-.27.93.93 0 010-1.308l.063-.063A44.316 44.316 0 0114.92 9.487C20.378 7.174 26.187 6 32.175 6z" fill="#313235" fill-rule="nonzero"/></svg>