<svg width="24" height="24" xmlns="http://www.w3.org/2000/svg"><path d="M17.484 12.654h-4.8v4.812a.689.689 0 0 1-1.377 0v-4.812h-4.79a.689.689 0 1 1 0-1.377h4.79V6.534a.689.689 0 0 1 1.377 0v4.746h4.8c.378 0 .688.307.688.689a.69.69 0 0 1-.688.685M12.462 1.013A35.406 35.406 0 0 0 11.616 1h-.197C9.21 1.019 1 1.776 1 11.966c0 10.201 8.287 11 10.498 11.03.115.004.237.004.356.004.229 0 .454-.003.648-.006C14.603 22.956 23 22.167 23 12.03c.003-10.117-8.384-10.968-10.538-11.018" fill="#313235" fill-rule="nonzero"/></svg>