<svg width="24" height="24" xmlns="http://www.w3.org/2000/svg"><path d="M10.28 20.588h-.022c-.394-.006-.778-.196-1.142-.56l-5.048-5.025-.017-.017c-.32-.348-.44-.709-.361-1.079.073-.336.302-.605.52-.823l.015-.014 5.118-4.812-2.58-2.58-.009-.009c-.316-.33-.409-.893-.218-1.339.176-.414.566-.66 1.039-.66h12.09c.28-.02.532.07.717.254.185.185.274.44.252.717l-.006 12.146c.011.415-.232.793-.613.955-.457.205-1.05.112-1.406-.216l-.017-.014-2.376-2.378-4.79 4.905-.005.006c-.359.361-.742.543-1.14.543Z" fill="#313235" fill-rule="nonzero"/></svg>