<svg width="24" height="24" xmlns="http://www.w3.org/2000/svg"><path d="M21.737 8.633c0 .216-.093.42-.255.563l-4.21 4.16c-.014.01-.026.025-.04.036a.782.782 0 0 1-.831.098.753.753 0 0 1-.437-.683l-.014-1.824-2.902.006a1.206 1.206 0 0 1-1.205-1.202v-2.32c0-.663.538-1.2 1.202-1.2l2.905-.004.014-1.823c0-.294.17-.56.437-.684a.788.788 0 0 1 .87.138l4.214 4.179c.162.14.252.344.252.56Zm-9.832 5.375v2.32c0 .664-.538 1.201-1.202 1.201l-2.902.003-.014 1.824c0 .294-.17.557-.437.68a.788.788 0 0 1-.871-.137l-4.21-4.174a.756.756 0 0 1 0-1.126l4.21-4.154c.014-.01.025-.025.04-.036a.782.782 0 0 1 .831-.098c.266.123.437.39.437.683l.014 1.821 2.9-.005c.666 0 1.204.537 1.204 1.198Z" fill="#313235" fill-rule="nonzero"/></svg>