<svg width="24" height="24" xmlns="http://www.w3.org/2000/svg"><path d="M7.472 6.661a.423.423 0 0 1-.426-.42v-3.66c0-.23.19-.421.426-.421H9.35c.235 0 .426.188.426.42v1.151h.904v-1.15c0-.23.19-.421.426-.421h1.628c.235 0 .425.188.425.42v1.227l.939-.014V2.58c0-.23.19-.42.426-.42h1.952c.235 0 .426.188.426.42v3.664c0 .233-.19.42-.426.42h-.289V6.66h-8.16v.005h-.554v-.003Zm.196 9.737c0-.232.19-.42.426-.42h.781a.515.515 0 0 1-.014-.149l.813-6.94h-.437a.423.423 0 0 1-.426-.42V7.324h6.392v1.143c0 .23-.19.42-.426.42h-.437l.813 6.941c.005.05 0 .101-.014.149h.689c.235 0 .426.188.426.42v2.09H7.665v-2.09h.003Zm9.608 2.76c.235 0 .426.187.426.42v1.848c0 .233-.19.42-.426.42H6.646a.423.423 0 0 1-.426-.42v-1.849c0-.23.19-.42.426-.42h10.63Z" fill="#313235" fill-rule="nonzero"/></svg>