<svg width="24" height="24" xmlns="http://www.w3.org/2000/svg"><path d="M21.445 17.064a.82.82 0 0 1 0 1.163l-3.24 3.246a.807.807 0 0 1-.58.241.807.807 0 0 1-.58-.24l-1.7-1.704-1.799-.106a.827.827 0 0 1-.532-.238l-2.46-2.462a.825.825 0 0 1 0-1.163l.376-.378-1.342-1.345a.82.82 0 0 1-.24-.582.83.83 0 0 1 .24-.583l3.241-3.25a.817.817 0 0 1 1.16 0l1.341 1.345.376-.375a.817.817 0 0 1 1.16 0l2.456 2.462a.816.816 0 0 1 .235.502l.168 1.747 1.72 1.72Zm-9.535-8.51c-.014.017-.028.031-.042.045L7.67 12.804a.819.819 0 0 1-1.16 0l-2.321-2.328a.813.813 0 0 1-.238-.526l-.112-1.67-1.594-1.6a.825.825 0 0 1 0-1.165l3.24-3.249c.32-.32.84-.32 1.16 0l1.583 1.586 1.723.05c.21.006.409.092.554.24l2.322 2.329a.82.82 0 0 1 0 1.162l-.916.922Z" fill="#313235" fill-rule="nonzero"/></svg>