<svg width="24" height="24" viewBox="0 0 24 24" fill="none" xmlns="http://www.w3.org/2000/svg">
<path fill-rule="evenodd" clip-rule="evenodd" d="M20.1171 11.9701C22.4896 14.5023 22.4084 17.3146 19.8593 19.8609C18.5456 21.1774 17.1619 21.8356 15.7781 21.8356C14.4 21.8356 13.019 21.1802 11.7081 19.8665L11.5596 19.7236C11.4336 19.6032 11.3103 19.4827 11.2039 19.3595L10.5484 18.704C10.5428 18.6984 10.5365 18.6949 10.5302 18.6914C10.5239 18.6879 10.5176 18.6844 10.512 18.6788L5.14789 13.3175C5.14369 13.3133 5.14089 13.3084 5.13809 13.3034C5.13529 13.2985 5.13249 13.2936 5.12828 13.2894L4.57646 12.7376C4.48963 12.6648 4.36918 12.5415 4.24873 12.4155L4.11148 12.2726C2.83697 10.9981 2.17591 9.6536 2.1507 8.27825C2.12549 6.84968 2.78375 5.44912 4.11428 4.12139C6.69971 1.53316 9.55965 1.49115 12.1591 4.00935L13.2935 5.1438C13.2963 5.1466 13.2998 5.148 13.3033 5.1494C13.3068 5.1508 13.3103 5.1522 13.3131 5.15501L18.6773 10.5163C18.6784 10.5175 18.6796 10.5196 18.681 10.5221C18.6829 10.5256 18.6852 10.5299 18.6885 10.5331L19.9294 11.7712C19.9486 11.7913 19.9682 11.811 19.9876 11.8304L19.9876 11.8305L19.9876 11.8305L19.9877 11.8306C20.0331 11.8762 20.0778 11.9211 20.1171 11.9701ZM5.24593 11.1438C4.27114 10.169 3.76694 9.19421 3.75014 8.24744C3.73333 7.26985 4.23473 6.26145 5.24593 5.25305C6.24033 4.25865 7.21792 3.76285 8.19551 3.76285C9.14228 3.76285 10.0835 4.22504 11.0386 5.1494L11.6157 5.72643L5.71932 11.62L5.6661 11.5668C5.58948 11.4997 5.519 11.4265 5.44766 11.3525L5.4112 11.3147L5.24593 11.1438ZM18.9238 13.0373C20.7137 14.9477 20.6493 16.8104 18.7277 18.732C16.7473 20.7152 14.8201 20.7152 12.8398 18.7404L12.6633 18.5695L12.6176 18.5256C12.5452 18.4564 12.4695 18.384 12.3748 18.2754L12.2095 18.113L18.103 12.2222L18.7305 12.8469L18.8229 12.9365C18.8481 12.9589 18.8762 12.9841 18.9238 13.0373ZM11.512 12.3483C11.2739 12.1102 11.2739 11.7236 11.512 11.4855C11.7473 11.2474 12.1339 11.2474 12.3748 11.4855C12.6129 11.7236 12.6129 12.1102 12.3748 12.3483C12.1339 12.5864 11.7501 12.5864 11.512 12.3483ZM10.9714 14.2698C10.7333 14.5079 10.7333 14.8945 10.9714 15.1326C11.2095 15.3707 11.5961 15.3707 11.8342 15.1326C12.0722 14.8945 12.0722 14.5079 11.8342 14.2698C11.5933 14.0317 11.2095 14.0317 10.9714 14.2698ZM14.3636 10.8777C14.6017 10.6396 14.9882 10.6396 15.2263 10.8777C15.4644 11.1158 15.4644 11.4995 15.2263 11.7404C14.9882 11.9785 14.6017 11.9785 14.3636 11.7404C14.1255 11.5023 14.1255 11.1158 14.3636 10.8777ZM8.78374 12.0626C8.54564 12.3007 8.54564 12.6872 8.78374 12.9253C9.02183 13.1634 9.40839 13.1634 9.64648 12.9253C9.88458 12.6872 9.88458 12.3007 9.64648 12.0626C9.40839 11.8245 9.02183 11.8245 8.78374 12.0626ZM12.1759 9.53035C11.9378 9.29225 11.9378 8.9057 12.1759 8.6676C12.414 8.43231 12.8005 8.43231 13.0386 8.6676C13.2767 8.9057 13.2767 9.29225 13.0386 9.53035C12.8005 9.76844 12.414 9.76844 12.1759 9.53035Z" fill="#313235"/>
</svg>
