<svg width="24" height="24" viewBox="0 0 24 24" fill="none" xmlns="http://www.w3.org/2000/svg">
<path fill-rule="evenodd" clip-rule="evenodd" d="M21.4138 5.67315C21.425 5.57511 21.3886 5.46307 21.313 5.38183C19.8592 3.81321 18.229 2.80481 16.4671 2.38184C14.9124 2.00929 13.257 2.08772 11.5259 2.60313C13.7444 2.86643 16.6603 3.90845 19.5203 6.95886L21.2178 5.95606C21.327 5.88883 21.397 5.7936 21.4138 5.67315ZM18.2906 7.68435L13.1225 10.7376L9.06372 3.97007C10.7108 3.74878 14.5259 3.7908 18.2906 7.68435ZM7.90686 4.7852C6.96848 6.26979 5.48669 9.63393 7.32423 14.1633L11.9068 11.4575L7.90686 4.7852ZM6.09734 14.886C4.44188 10.9981 4.97689 7.82721 5.82843 5.75158C4.18698 7.15774 3.14496 8.74037 2.7444 10.4827C2.34664 12.1745 2.55953 14.0177 3.38026 15.9588C3.42227 16.0569 3.51191 16.1353 3.63236 16.1745C3.83052 16.2286 3.88918 16.1928 3.96691 16.1453L3.9881 16.1325L6.09734 14.886ZM7.79761 4.64234L7.42507 4.02049C7.23179 3.69556 7.34944 3.2782 7.69117 3.09052C8.03291 2.90565 8.46988 3.01769 8.66596 3.34542L9.0161 3.93086L7.79761 4.64234ZM19.1533 20.816L13.1281 10.7628L11.9097 11.4771L17.9152 21.4938C18.0469 21.7123 18.285 21.8356 18.5343 21.8356C18.6547 21.8356 18.7752 21.8048 18.8872 21.7459C19.229 21.5583 19.3494 21.1437 19.1533 20.816Z" fill="#313235"/>
</svg>
