<svg width="24" height="24" viewBox="0 0 24 24" fill="none" xmlns="http://www.w3.org/2000/svg">
<path fill-rule="evenodd" clip-rule="evenodd" d="M21.6442 8.056C21.6666 8.13443 21.6666 8.21006 21.6554 8.28569C21.6722 8.37533 21.6862 8.46496 21.689 8.5658V20.0139C21.689 20.9383 20.8711 21.6918 19.8627 21.6918H3.82913C2.82073 21.6918 2.00281 20.9383 2.00281 20.0139V8.5658C2.00281 8.40334 2.03362 8.24928 2.08124 8.10082C2.08264 8.09382 2.08264 8.08751 2.08264 8.08121C2.08264 8.07491 2.08264 8.06861 2.08404 8.0616L3.41737 3.32213C3.46499 2.58824 4.18767 2.00281 5.07002 2.00281H18.619C19.4985 2.00281 20.2184 2.58544 20.2716 3.31933L21.6442 8.056ZM18.8235 3.40336C18.8235 3.45378 18.8291 3.5014 18.8459 3.54902L19.8123 6.88234H14.4145L13.9523 3.22689H18.6162C18.731 3.22969 18.8235 3.30532 18.8235 3.40336ZM4.86274 3.40336C4.86274 3.45098 4.85714 3.4986 4.84313 3.54622L3.89916 6.88514H8.94115L9.3277 3.22969H5.06722C4.95518 3.22969 4.86274 3.30812 4.86274 3.40336ZM19.8571 20.4565C20.0587 20.4565 20.2352 20.2464 20.2352 20.0083V8.5602C20.2352 8.32211 20.0587 8.11202 19.8571 8.11202H14.4957L14.4985 10.5742C14.4985 10.9131 14.1736 11.1876 13.7731 11.1876H9.59381C9.19325 11.1876 8.86832 10.9131 8.86832 10.5742V8.11202H3.82353C3.62185 8.11202 3.44818 8.32211 3.44818 8.5602V20.0083C3.44818 20.2464 3.62185 20.4565 3.82353 20.4565H19.8571Z" fill="#313235"/>
</svg>
