<svg width="24" height="24" viewBox="0 0 24 24" fill="none" xmlns="http://www.w3.org/2000/svg">
<path d="M15.6784 19.7254C17.3619 21.0755 19.2443 21.8346 20.8913 21.8346C20.9669 21.8346 21.0426 21.8318 21.1154 21.829C21.2751 21.8206 21.4263 21.7702 21.5552 21.6862C21.8465 21.4929 21.9193 21.1147 21.7176 20.8374C21.5468 20.5993 21.2274 20.5153 20.9613 20.6133C19.628 20.6526 17.9838 19.9831 16.4992 18.7898L16.4319 18.7366C15.5972 18.0671 14.8941 17.2772 14.3087 16.4117C14.5244 16.5994 14.7401 16.7646 14.9613 16.8935C15.8465 17.4145 16.7261 17.6806 17.5048 17.6806C17.9417 17.6806 18.3479 17.5965 18.7064 17.4257C19.2471 17.168 19.9109 16.5994 20.0986 15.3557C21.0538 14.4901 21.1574 13.6442 21.065 13.0756C20.8969 12.0279 19.9417 11.0784 18.4459 10.4733C17.6 10.1288 16.3927 10.0503 15.2106 10.0896C16.2022 9.47052 17.1406 8.73942 17.6168 7.99433C18.4711 6.675 18.6728 5.37248 18.1742 4.42571C17.9025 3.9103 17.3087 3.27725 16.0006 3.09798C15.0902 2.18482 14.205 2.08678 13.6084 2.17641C12.5104 2.33608 11.516 3.24924 10.8801 4.67501C10.5188 5.47893 10.4375 6.63019 10.4796 7.75903C9.82971 6.81506 9.0622 5.9187 8.28069 5.46492C6.89414 4.6526 5.52999 4.45652 4.5356 4.93271C3.99498 5.19041 3.33112 5.75904 3.14344 7.00273C2.18826 7.86828 2.08462 8.71421 2.17706 9.28284C2.34513 10.3305 3.30311 11.2772 4.7961 11.8823C5.51039 12.1736 6.48798 12.2772 7.49077 12.2772C7.67285 12.2772 7.85212 12.2716 8.03419 12.266C7.0426 12.8851 6.10142 13.619 5.62523 14.3641C4.77089 15.6834 4.56921 16.9859 5.06781 17.9327C5.33952 18.4481 5.93616 19.0811 7.24148 19.2576C7.98657 20.0055 8.71486 20.2044 9.28349 20.2044C9.40674 20.2044 9.52719 20.196 9.63363 20.1792C10.7345 20.0195 11.7289 19.1063 12.3619 17.6806C12.544 17.2772 12.6532 16.7814 12.7149 16.252C13.4403 17.5489 14.4207 18.7142 15.614 19.6694" fill="#313235"/>
</svg>
