<svg width="24" height="24" viewBox="0 0 24 24" fill="none" xmlns="http://www.w3.org/2000/svg">
<path fill-rule="evenodd" clip-rule="evenodd" d="M17.0279 5.66937C19.3529 5.87665 21.6862 7.29681 21.6862 10.7086C21.6862 14.4648 18.8459 15.8038 16.4145 15.8038H16.0055V17.1735C15.8571 17.4396 15.4313 17.7898 14.647 18.0223C13.8515 18.2632 12.8067 18.392 11.6918 18.392C10.5714 18.392 9.52378 18.266 8.72826 18.0223C8.02518 17.815 7.50978 17.5012 7.35292 17.1819V15.829C7.34261 15.8316 7.33178 15.8349 7.32074 15.8384C7.29578 15.8461 7.26978 15.8542 7.24648 15.8542L6.34732 15.8626C4.24369 15.8626 2 14.7478 2 11.6161C2 9.16515 3.37534 8.14835 4.44817 7.73098C4.64425 2.28563 9.85991 2.00272 10.9215 2.00272C11.7395 1.99991 15.7843 2.18479 17.0279 5.66937ZM16.4397 14.6161C17.4061 14.5937 20.4593 14.3192 20.4593 10.7058C20.4593 7.31922 17.7254 6.86824 16.5546 6.83743C16.2857 6.82903 16.0476 6.65536 15.9803 6.39766C15.1456 3.35285 11.619 3.20159 10.9215 3.20159C9.68624 3.20159 5.67505 3.54613 5.67505 8.04751V8.15955C5.67505 8.42566 5.49578 8.66375 5.23248 8.73658C3.89635 9.10633 3.22689 10.0755 3.22689 11.6133C3.22689 14.3612 5.40335 14.6581 6.34452 14.6581L7.23807 14.6497H7.24648C7.2969 14.6497 7.3193 14.6497 7.35292 14.6581C7.66384 14.8738 8.0644 15.0671 8.563 15.2099C9.40613 15.4592 10.5182 15.5965 11.689 15.5965C12.8599 15.5965 13.9635 15.4592 14.8067 15.2099C15.2885 15.0727 15.6918 14.8822 16.0027 14.6497L16.4397 14.6161ZM7.39494 10.4537C7.51818 10.801 7.97476 11.1035 8.73106 11.3248C9.52658 11.5601 10.5714 11.6889 11.689 11.6889C12.8039 11.6889 13.8515 11.5573 14.647 11.3248C15.3837 11.1063 15.8375 10.8178 15.9719 10.4817C15.9719 10.4761 15.9775 10.4705 15.9775 10.4705C15.8795 10.1035 15.4313 9.7982 14.6414 9.56571C13.8515 9.33322 12.8011 9.20156 11.6834 9.20156C10.5686 9.20156 9.51537 9.33322 8.71986 9.56571C7.96916 9.787 7.51258 10.0951 7.38933 10.4425L7.38934 10.4425C7.39256 10.4457 7.39392 10.447 7.39451 10.4487L7.39487 10.4506L7.39494 10.4537ZM11.689 15.0279C10.5742 15.0279 9.52658 14.9018 8.73106 14.6693C8.02238 14.4592 7.50978 14.1399 7.35292 13.8206V11.3024C7.64423 11.5293 8.04479 11.7226 8.563 11.871C9.41173 12.1203 10.521 12.2576 11.689 12.2576C12.8571 12.2576 13.9663 12.1203 14.8151 11.871C15.3221 11.7226 15.717 11.5405 16.0055 11.3136V13.815C15.8627 14.0839 15.4313 14.434 14.647 14.6693C13.8543 14.9018 12.8039 15.0279 11.689 15.0279ZM14.8151 18.5685C13.9719 18.8178 12.8627 18.955 11.689 18.955C10.521 18.955 9.40893 18.8206 8.5658 18.5657C8.07 18.4172 7.65824 18.2239 7.35572 18.0026V20.2435C7.35572 20.6889 7.8151 21.0531 8.71986 21.3192C9.52378 21.5517 10.5742 21.6833 11.6834 21.6833C12.7955 21.6833 13.8459 21.5545 14.6414 21.3192C15.5462 21.0531 16.0055 20.6889 16.0055 20.2435V17.9998C15.6974 18.2323 15.2913 18.4312 14.8151 18.5685Z" fill="#313235"/>
</svg>
