<svg width="24" height="24" viewBox="0 0 24 24" fill="none" xmlns="http://www.w3.org/2000/svg">
<path fill-rule="evenodd" clip-rule="evenodd" d="M20.9048 5.48029C20.3417 4.83603 19.5014 4.5083 18.4006 4.5083H5.29132C4.19328 4.5083 3.35014 4.83603 2.78711 5.48029C2.26611 6.07973 2 6.94808 2 8.06292V13.0013C2 14.1161 2.26611 14.9845 2.78711 15.5839C3.35014 16.2282 4.19048 16.5559 5.29132 16.5559H18.4006C19.4986 16.5559 20.3417 16.2282 20.9048 15.5867C21.4286 14.9873 21.6919 14.1189 21.6919 13.0041V8.06292C21.6919 6.94808 21.4258 6.07973 20.9048 5.48029ZM14.7255 13.8556C14.7255 14.231 14.4622 14.4943 14.0868 14.4943H9.61344C9.22689 14.4943 8.96638 14.2338 8.96638 13.8444V7.19738C8.96638 6.81082 9.22689 6.55312 9.61344 6.55312H12.4146C12.5266 6.55312 12.633 6.59794 12.7115 6.67637L14.6022 8.56992C14.6807 8.64836 14.7255 8.7576 14.7255 8.86964V13.8556ZM12.0392 7.39626V8.07132C12.0392 8.79401 12.4258 9.24219 13.0448 9.24219H13.8851V13.6568H9.80672V7.39626H12.0392ZM10.5238 12.7072H13.1709C13.3249 12.7072 13.4538 12.5811 13.4538 12.4271C13.4538 12.273 13.3277 12.147 13.1737 12.147H10.5238C10.3697 12.147 10.2437 12.273 10.2437 12.4271C10.2437 12.5811 10.3697 12.7072 10.5238 12.7072ZM13.1709 11.5727H10.5238C10.3697 11.5727 10.2437 11.4467 10.2437 11.2926C10.2437 11.1386 10.3697 11.0125 10.5238 11.0125H13.1737C13.3277 11.0125 13.4538 11.1386 13.4538 11.2926C13.4538 11.4467 13.3249 11.5727 13.1709 11.5727ZM13.1709 10.4383C13.3249 10.4383 13.451 10.3122 13.451 10.1582C13.451 10.0013 13.3249 9.87805 13.1737 9.87805H10.5238C10.3697 9.87805 10.2437 10.0041 10.2437 10.1582C10.2437 10.3122 10.3697 10.4383 10.5238 10.4383H13.1709ZM13.5238 8.68197H13.0448C12.7507 8.68197 12.5994 8.47469 12.5994 8.07132V7.7576L13.5238 8.68197ZM2.59384 18.7408H21.098C21.4062 18.7408 21.6583 18.4887 21.6583 18.1806C21.6583 17.8724 21.4062 17.6203 21.098 17.6203H2.59384C2.28571 17.6203 2.03361 17.8724 2.03361 18.1806C2.03361 18.4887 2.28571 18.7408 2.59384 18.7408Z" fill="#313235"/>
</svg>
