<svg width="24" height="24" viewBox="0 0 24 24" fill="none" xmlns="http://www.w3.org/2000/svg">
<path fill-rule="evenodd" clip-rule="evenodd" d="M21.7146 11.659C21.7986 11.7374 21.8462 11.8467 21.8462 11.9615C21.8462 12.0764 21.8014 12.1884 21.7174 12.2696L19.7762 14.1296C19.6109 14.2864 19.3532 14.2836 19.1936 14.1212L17.9443 12.8663L17.2132 14.0455C17.1403 14.1632 17.0171 14.236 16.8798 14.2416C16.7286 14.2584 16.6109 14.1884 16.5297 14.0792L15.6277 12.9055L14.8266 14.0624C14.7482 14.1744 14.6221 14.2416 14.4849 14.2416H9.83503L9.80396 14.3109L9.7734 14.3789C9.21038 15.5049 7.98909 16.1016 6.2412 16.1016C3.60815 16.1016 2.15997 14.645 2.15997 12.0007C2.15997 9.35648 3.60815 7.8999 6.2412 7.8999C8.34483 7.8999 9.34203 8.82147 9.81262 9.68981H19.4513C19.5577 9.68981 19.6585 9.72903 19.737 9.80186L21.7146 11.659ZM5.7398 12.7038C5.2384 12.7038 5.04232 12.5077 5.04232 12.0035C5.04232 11.4993 5.2356 11.3033 5.7398 11.3033C6.244 11.3033 6.43727 11.4993 6.43727 12.0035C6.43727 12.5077 6.2412 12.7038 5.7398 12.7038ZM4.20759 12.0035C4.20759 11.0428 4.78182 10.4657 5.7398 10.4657C6.70058 10.4657 7.27201 11.04 7.27201 12.0035C7.27201 12.9671 6.69778 13.5413 5.7398 13.5413C4.78182 13.5413 4.20759 12.9671 4.20759 12.0035Z" fill="#313235"/>
</svg>
