<svg width="24" height="24" viewBox="0 0 24 24" fill="none" xmlns="http://www.w3.org/2000/svg">
<path fill-rule="evenodd" clip-rule="evenodd" d="M11.9819 2.25978C15.9259 2.25698 19.4861 4.61552 21.0183 8.24856C21.5169 9.43063 21.7802 10.6995 21.7942 11.9796C21.839 17.397 17.4833 21.8284 12.0631 21.8732C11.9987 21.8984 11.9315 21.9124 11.8615 21.9124C11.5673 21.9124 11.3293 21.6743 11.3293 21.3802V2.78079C11.3293 2.74717 11.3321 2.71636 11.3377 2.68275C11.3909 2.39423 11.671 2.20376 11.9595 2.25978H11.9819ZM6.84467 15.6043C7.59257 15.6043 8.20881 15.7752 8.6794 16.1085C9.15279 16.4446 9.46931 16.9348 9.61497 17.5707C9.6962 17.8956 9.73542 18.2261 9.73262 18.5595C9.73262 20.3914 8.74663 21.3858 6.87548 21.4278H6.81946C6.50293 21.4278 6.1556 21.3718 6.03515 21.3522L6.02114 21.3494L5.99593 21.3438C4.9091 21.1449 3.93151 20.1505 3.23963 18.5427C2.52535 16.8816 2.15 14.6687 2.15 12.1365V12.0469C2.15 9.51467 2.52815 7.29898 3.24244 5.64353C3.93431 4.03569 4.9119 3.04129 5.99873 2.84521L6.02394 2.84241L6.03795 2.83961L6.06394 2.83553C6.21081 2.81238 6.568 2.75609 6.87828 2.76398C8.74663 2.806 9.73542 3.79759 9.73542 5.63232C9.73822 5.96565 9.69901 6.29899 9.61777 6.62111C9.46931 7.25137 9.14999 7.74716 8.6794 8.08049C8.20881 8.41383 7.58977 8.5847 6.84467 8.5847C6.6794 8.5847 6.51694 8.57629 6.35447 8.55668C6.31246 8.5903 6.13319 8.78077 6.00714 9.58469C5.88669 10.3578 5.87268 11.3606 5.87268 12.0497V12.1393C5.87268 12.8256 5.88669 13.8312 6.00714 14.6043C6.13039 15.4082 6.31246 15.5987 6.35447 15.6323C6.51694 15.6127 6.6822 15.6043 6.84467 15.6043ZM19.2508 16.932C18.5309 16.5147 17.6962 16.1701 16.7774 15.9012C17.0099 14.8228 17.1416 13.7219 17.1724 12.6183H20.7074C20.6149 14.1617 20.1135 15.6491 19.2508 16.932ZM15.7914 8.71075C14.6738 8.95164 13.5337 9.08049 12.3909 9.1029V11.5539H16.108C16.0827 10.5987 15.9763 9.64912 15.7914 8.71075ZM12.3909 8.03848V3.36902C12.7522 3.45025 13.108 3.63513 13.4553 3.92644C13.9567 4.34661 14.4105 4.96005 14.8054 5.74717C15.1108 6.36341 15.3573 7.01047 15.5421 7.67433C14.5057 7.89562 13.4497 8.01887 12.3909 8.03848ZM12.3909 20.7639C12.7522 20.6827 13.108 20.4978 13.4553 20.2065C13.9567 19.7864 14.4105 19.1757 14.8054 18.3886C15.0799 17.8368 15.304 17.2653 15.4805 16.6743C14.4637 16.4614 13.4301 16.3438 12.3909 16.3242V20.7639ZM12.3909 15.2598V12.6211H16.108C16.0799 13.6379 15.9595 14.6491 15.7466 15.6435C14.643 15.4082 13.5197 15.2794 12.3909 15.2598ZM16.825 8.44744C17.0323 9.46985 17.15 10.5091 17.1752 11.5539H20.713C20.629 10.0637 20.164 8.62391 19.36 7.36621C18.629 7.80599 17.7718 8.16733 16.825 8.44744ZM18.164 5.88442C18.3629 6.0833 18.5505 6.28778 18.727 6.50347C18.1136 6.85921 17.3825 7.16733 16.5729 7.41103C16.3713 6.67434 16.0968 5.95725 15.7578 5.27098C15.4693 4.69955 15.1528 4.20655 14.8082 3.78919C16.0715 4.22056 17.22 4.93764 18.164 5.88442ZM15.755 18.8648C15.4693 19.4362 15.15 19.932 14.8054 20.3466C16.0715 19.9152 17.2228 19.1981 18.1612 18.2485C18.3124 18.0973 18.4581 17.9432 18.5953 17.7836C17.9959 17.4502 17.2872 17.1617 16.5113 16.932C16.3152 17.5959 16.0631 18.2429 15.755 18.8648Z" fill="#313235"/>
</svg>
