<svg width="24" height="24" viewBox="0 0 24 24" fill="none" xmlns="http://www.w3.org/2000/svg">
<path fill-rule="evenodd" clip-rule="evenodd" d="M17.4629 2.15991C18.5721 2.15991 19.3817 2.42882 19.9363 2.98624C20.4881 3.54086 20.7542 4.34759 20.7542 5.44843V18.5577C20.7542 19.6725 20.4853 20.4848 19.9279 21.0367C19.3761 21.5829 18.5693 21.849 17.4629 21.849H10.9083C9.80182 21.849 8.9951 21.5829 8.44328 21.0367C7.88866 20.4848 7.61695 19.6725 7.61695 18.5577V14.9946C6.32843 14.905 5.30322 14.5016 4.56653 13.793C3.69258 12.9498 3.25 11.7033 3.25 10.0843C3.25 8.46523 3.69258 7.21874 4.56653 6.3756C5.30322 5.66411 6.33123 5.26355 7.62255 5.17392C7.66457 4.22714 7.93347 3.51565 8.44048 3.00305C9.0035 2.43722 9.81022 2.15991 10.9083 2.15991H17.4629ZM8.17997 13.8966C9.43487 13.8966 10.3901 13.5913 11.0147 12.989C11.6618 12.3672 11.9895 11.3896 11.9895 10.0871C11.9895 8.78456 11.6618 7.80697 11.0147 7.18512C10.3901 6.58288 9.43487 6.27756 8.17997 6.27756C6.92507 6.27756 5.96989 6.58288 5.34524 7.18512C4.69818 7.80697 4.37045 8.78456 4.37045 10.0871C4.37045 11.3896 4.69818 12.3672 5.34524 12.989C5.96989 13.5913 6.92507 13.8966 8.17997 13.8966ZM15.0091 19.2131C14.813 19.412 14.5301 19.5185 14.1884 19.5185C13.8466 19.5185 13.5637 19.412 13.3676 19.2131C13.1716 19.0143 13.0791 18.7425 13.0791 18.4036C13.0791 17.7061 13.4937 17.2888 14.1912 17.2888C14.8887 17.2888 15.3032 17.7061 15.3032 18.4036C15.2976 18.7425 15.1996 19.0143 15.0091 19.2131ZM9.47409 7.65571C9.11555 7.23274 8.55532 7.00025 7.89986 7.00025C7.32563 7.00025 6.83263 7.19913 6.47689 7.57448C6.14636 7.92462 5.96429 8.40921 5.96429 8.93582V9.04507C5.96429 9.26635 6.14356 9.44843 6.36765 9.44843C6.59174 9.44843 6.77101 9.26916 6.77101 9.04507V8.93582C6.77101 8.61369 6.87465 8.32798 7.06513 8.1263C7.26401 7.91341 7.55532 7.80417 7.90266 7.80417C8.31723 7.80417 8.65896 7.93582 8.86345 8.17672C9.02311 8.36439 9.08473 8.60529 9.03992 8.8714C8.97549 9.25795 8.67297 9.52686 8.52451 9.65571C8.45728 9.71453 8.37885 9.77896 8.30322 9.84058L8.29301 9.84896C7.92015 10.155 7.4993 10.5004 7.4993 10.9806V11.4932C7.4993 11.7145 7.67857 11.8966 7.90266 11.8966C8.12675 11.8966 8.30602 11.7173 8.30602 11.4932V10.9834C8.30873 10.8806 8.65138 10.5999 8.80087 10.4775L8.81583 10.4652L8.87396 10.4174C8.93659 10.366 8.99969 10.3142 9.05952 10.2608L9.06292 10.2577C9.26368 10.0796 9.72681 9.66872 9.83543 9.00025C9.91106 8.49885 9.78501 8.02266 9.47409 7.65571ZM7.89986 12.3168C7.64496 12.3168 7.44048 12.5241 7.44048 12.7762C7.44048 13.0311 7.64776 13.2355 7.89986 13.2355C8.15476 13.2355 8.35924 13.0283 8.35924 12.7762C8.35924 12.5213 8.15476 12.3168 7.89986 12.3168Z" fill="#313235"/>
</svg>
