<svg width="24" height="24" viewBox="0 0 24 24" fill="none" xmlns="http://www.w3.org/2000/svg">
<path fill-rule="evenodd" clip-rule="evenodd" d="M12.4065 2.16906C13.9807 2.20548 21.8462 2.85814 21.8462 12.029C21.8462 21.2055 14.0115 21.8133 12.4429 21.8413C12.272 21.8441 12.0787 21.8469 11.8799 21.8469H11.8796C11.7761 21.8469 11.6669 21.8469 11.5661 21.8441C2.61375 21.7153 2.15997 13.5976 2.15997 11.973C2.15997 10.3483 2.61095 2.23629 11.4989 2.16066C11.7986 2.15786 12.1292 2.16346 12.4065 2.16906ZM11.3533 12.3147C11.3533 15.5388 9.82104 16.2139 8.53532 16.2139C7.24401 16.2139 5.70619 15.536 5.70619 12.3147C5.70619 9.08223 7.24401 8.40435 8.53532 8.40435C9.82104 8.40435 11.3533 9.08223 11.3533 12.3147ZM17.4625 8.94217V15.6649C17.4625 15.8917 17.2776 16.0766 17.0479 16.0766H16.821C16.6838 16.0766 16.5549 16.0066 16.4793 15.8917L13.1796 10.8974V15.6621C13.1796 15.8861 12.9975 16.071 12.7706 16.071H12.4961C12.272 16.071 12.0871 15.8889 12.0871 15.6621V8.93937C12.0871 8.71528 12.272 8.53041 12.4961 8.53041H12.7146C12.8518 8.53041 12.9807 8.60043 13.0563 8.71528L16.3701 13.7153V8.94217C16.3701 8.71808 16.5521 8.53321 16.779 8.53321H17.0535C17.2776 8.53321 17.4625 8.71528 17.4625 8.94217ZM10.2188 12.3147C10.2188 9.83853 9.31964 9.5192 8.53532 9.5192C7.69779 9.5192 6.84065 9.84973 6.84065 12.3147C6.84065 14.7601 7.69779 15.0906 8.53532 15.0906C9.36726 15.0906 10.2188 14.7601 10.2188 12.3147Z" fill="#313235"/>
</svg>
