<svg width="24" height="24" viewBox="0 0 24 24" fill="none" xmlns="http://www.w3.org/2000/svg">
<path d="M16.1824 21.4156H3.61375C2.81263 21.4156 2.15997 20.7461 2.15997 19.9254V17.0794C2.15997 16.8974 2.2356 16.7265 2.36726 16.6032C2.49891 16.4828 2.67258 16.424 2.85185 16.4492C2.9723 16.4632 3.07594 16.4716 3.14877 16.4744H3.18518C3.2384 16.4744 3.29723 16.4744 3.34765 16.4688C3.52692 16.466 3.84344 16.452 4.20479 16.3287C5.19638 16.0122 5.69498 15.2307 5.69498 13.9982C5.69498 12.7629 5.19918 11.9786 4.21599 11.6705C3.82944 11.5332 3.4877 11.5192 3.37566 11.5136H3.10955C3.05353 11.5164 2.95829 11.5192 2.84345 11.5332C2.66137 11.5528 2.49331 11.494 2.36445 11.3764C2.2328 11.2559 2.15997 11.0851 2.15997 10.903V8.36237C2.15997 7.53884 2.81263 6.87217 3.61375 6.87217H6.26921C6.2496 6.6817 6.2384 6.48562 6.2384 6.28394C6.2384 3.56405 8.04232 2.57246 9.72859 2.55005H10.0199C11.7342 2.59767 13.5521 3.60607 13.5521 6.30074C13.5521 6.49682 13.5409 6.6873 13.5213 6.86937H16.1852C16.9835 6.86937 17.6305 7.53884 17.6305 8.35956V10.2671C17.7986 10.2475 17.9387 10.2447 18.0339 10.2447H18.3336C20.0311 10.2951 21.8462 11.3063 21.8462 13.9954C21.8462 16.7153 19.9527 17.7069 18.3336 17.7293C18.2888 17.7349 18.1684 17.7377 18.0507 17.7377C17.9667 17.7349 17.8182 17.7293 17.6305 17.7069V19.9226C17.6305 20.7461 16.9807 21.4156 16.1824 21.4156Z" fill="#313235"/>
</svg>
