<svg width="24" height="24" viewBox="0 0 24 24" fill="none" xmlns="http://www.w3.org/2000/svg">
<path fill-rule="evenodd" clip-rule="evenodd" d="M12.2991 2.15818C12.3313 2.15886 12.3628 2.15952 12.3937 2.16015C13.9707 2.19657 21.8363 2.84923 21.8335 12.0201C21.8335 21.1965 13.9959 21.8044 12.4245 21.8324C12.2509 21.8352 12.0492 21.838 11.8447 21.838H11.8445C11.7521 21.838 11.6541 21.838 11.5618 21.8352C9.99035 21.8128 2.15002 21.2302 2.15002 11.9641C2.15002 2.70077 9.93713 2.16576 11.5002 2.15175C11.7587 2.14678 12.0459 2.15284 12.2991 2.15818ZM13.5422 12.0621C12.2032 13.6111 12.1528 13.6727 12.1528 15.1181C12.1528 15.3394 11.9735 15.5187 11.7523 15.5187H11.3097C11.1164 15.5187 10.9511 15.3842 10.9175 15.1937C10.8783 14.9949 10.8615 14.8044 10.8615 14.5607C10.8615 13.4767 11.2424 12.8352 12.0968 11.8072L12.2593 11.6111C13.6654 9.94726 13.9315 9.48507 13.9315 8.69796C13.9315 8.14054 13.7719 7.77639 13.3965 7.47667C13.1808 7.3058 12.8027 7.10693 11.7691 7.10693C11.2088 7.10693 10.7102 7.17135 10.1024 7.32541C9.99595 7.35062 9.88111 7.33382 9.78867 7.27219C9.69623 7.21337 9.63181 7.11813 9.6122 7.00889L9.54777 6.66435C9.51416 6.48508 9.6038 6.30581 9.76906 6.22737C10.1472 6.0481 11.0716 5.86323 11.9651 5.86323C12.9063 5.86323 13.657 6.07331 14.2004 6.48228C14.8979 6.99488 15.2256 7.70636 15.2256 8.71477C15.2228 9.94726 14.7102 10.6811 13.5422 12.0621ZM11.587 18.2778C11.052 18.2778 10.713 17.9444 10.713 17.4514V17.387C10.713 16.8912 11.0604 16.5439 11.5562 16.5439C12.0856 16.5439 12.4301 16.8912 12.4301 17.387C12.4301 17.9472 12.0912 18.2778 11.587 18.2778Z" fill="#313235"/>
</svg>
