<svg width="24" height="24" viewBox="0 0 24 24" fill="none" xmlns="http://www.w3.org/2000/svg">
<path fill-rule="evenodd" clip-rule="evenodd" d="M21.6862 10.9747C21.6862 14.8431 18.8487 16.2156 16.4201 16.2156L16.0251 16.2184C15.8599 16.605 15.6414 16.9663 15.3809 17.2912L18.7114 20.6554C18.9467 20.8935 18.9467 21.2744 18.7114 21.5125L18.7058 21.5181C18.4705 21.7506 18.0924 21.7478 17.8599 21.5125L14.5238 18.1484C14.521 18.1456 14.5189 18.1414 14.5168 18.1372C14.5146 18.133 14.5125 18.1288 14.5097 18.126C13.7422 18.6918 12.7955 19.0335 11.7731 19.0335C9.87952 19.0335 8.25207 17.8879 7.53219 16.2464L5.87393 16.2492C3.42576 15.9999 2 14.3781 2 11.9103C2 9.38372 3.38655 8.33611 4.45657 7.90754C4.64705 2.28851 9.85991 2 10.9215 2C11.7451 2 15.7871 2.18767 17.0307 5.7843C19.3557 5.99998 21.6862 7.45376 21.6862 10.9747ZM8.33891 14.3529C8.34171 16.2632 9.89072 17.8123 11.8011 17.8151C13.7142 17.8151 15.2604 16.266 15.2632 14.3501C15.2604 12.4397 13.7114 10.8907 11.8011 10.8879C9.88792 10.8907 8.33891 12.4425 8.33891 14.3529Z" fill="#313235"/>
</svg>
