<svg width="24" height="24" viewBox="0 0 24 24" fill="none" xmlns="http://www.w3.org/2000/svg">
<path fill-rule="evenodd" clip-rule="evenodd" d="M12.8742 2.15991H20.4597C21.2328 2.15991 21.8574 2.78736 21.8574 3.56047V11.1487C21.8546 11.9218 21.2272 12.5492 20.4541 12.5492C20.0815 12.5492 19.7258 12.4008 19.4653 12.1375L18.7566 11.426L12.5353 17.6501C11.9891 18.1963 11.1011 18.1963 10.5549 17.6501L6.35884 13.4512C5.81263 12.905 5.81263 12.017 6.35884 11.4708L12.5801 5.24954L11.8826 4.55206C11.6221 4.28876 11.4737 3.93302 11.4737 3.56047C11.4737 2.78736 12.1011 2.15991 12.8742 2.15991ZM2.77062 16.8658C2.46249 16.8658 2.21039 16.6165 2.21039 16.3055C2.21039 16.1599 2.26642 16.017 2.37006 15.9134L4.66417 13.5632C4.87986 13.342 5.2356 13.3392 5.45688 13.5548C5.67817 13.7705 5.68097 14.1263 5.46529 14.3476L3.17118 16.6977C3.06753 16.8069 2.92188 16.8658 2.77062 16.8658ZM2.15997 21.2887C2.15997 21.5996 2.41207 21.8489 2.7202 21.8489C2.86866 21.8489 3.01151 21.7901 3.11515 21.6837L7.751 17.0506C7.96948 16.8321 7.96948 16.4764 7.751 16.2579C7.53251 16.0394 7.17677 16.0394 6.95828 16.2579L2.32524 20.891C2.2188 20.9974 2.15997 21.1403 2.15997 21.2887ZM7.19638 21.2915C7.19638 21.6024 7.44848 21.8517 7.7566 21.8517C7.90786 21.8517 8.05352 21.7929 8.15996 21.6837L10.4541 19.3307C10.4596 19.3271 10.4639 19.3222 10.4685 19.317C10.4697 19.3156 10.471 19.3141 10.4723 19.3127C10.4736 19.3113 10.475 19.3098 10.4765 19.3083C10.6866 19.0786 10.6698 18.7257 10.4429 18.5156C10.2132 18.3055 9.86024 18.3223 9.65015 18.5492L7.35604 20.8994C7.2524 21.003 7.19638 21.1459 7.19638 21.2915Z" fill="#313235"/>
</svg>
