<?xml version="1.0" encoding="UTF-8"?>
<svg width="40px" height="40px" viewBox="0 0 40 40" version="1.1" xmlns="http://www.w3.org/2000/svg" xmlns:xlink="http://www.w3.org/1999/xlink">
    <title>icn-help-device-support</title>
    <g id="Hector" stroke="none" stroke-width="1" fill="none" fill-rule="evenodd">
        <g id="Assets/Global/40/Faq-Copy-70" fill="#019BF2" fill-rule="nonzero">
            <g id="icn-help-device-support" transform="translate(1.666667, 1.666667)">
                <path d="M17.2136491,19.2159649 L17.2136491,21.734386 C17.2136491,22.2866707 17.6613644,22.734386 18.2136491,22.734386 C18.7659339,22.734386 19.2136491,22.2866707 19.2136491,21.734386 L19.2136491,19.2159649 C19.2136491,19.1517628 19.2512711,19.0939551 19.3079762,19.0666337 C19.3346765,19.0573788 19.3615949,19.0469957 19.3887127,19.035444 C21.7002504,18.0507708 23.3789123,16.2782549 23.3789123,14.0212281 C23.3789123,11.1679301 21.0675524,8.85596491 18.2136491,8.85596491 C15.360654,8.85596491 13.046807,11.1686008 13.046807,14.0212281 C13.046807,14.5735128 13.4945223,15.0212281 14.046807,15.0212281 C14.5990918,15.0212281 15.046807,14.5735128 15.046807,14.0212281 C15.046807,12.2734048 16.4649892,10.8559649 18.2136491,10.8559649 C19.9628657,10.8559649 21.3789123,12.2723824 21.3789123,14.0212281 C21.3789123,15.2999801 20.2742943,16.4748782 18.6379043,17.1812806 C17.7905453,17.4902588 17.2136491,18.2981145 17.2136491,19.2159649 Z" id="Stroke-1"></path>
                <path d="M18.2144386,24.7627544 C18.485937,24.7627544 18.7504373,24.8291271 18.9876692,24.9516969 C19.0367356,24.9770479 19.0828179,25.0058965 19.1257687,25.0377803 L19.1666667,25.0733333 L19.2123022,25.0968455 L19.3555223,25.2066548 C19.7008784,25.5242236 19.9028596,25.9732986 19.9028596,26.4527544 C19.9028596,27.384967 19.1462694,28.1427544 18.2144386,28.1427544 C17.2816275,28.1427544 16.5244386,27.3855655 16.5244386,26.4527544 C16.5244386,25.5199433 17.2816275,24.7627544 18.2144386,24.7627544 Z" id="Stroke-3"></path>
                <path d="M18.3333333,36 C28.0903639,36 36,28.0903639 36,18.3333333 C36,8.57630275 28.0903639,0.666666667 18.3333333,0.666666667 C8.57630275,0.666666667 0.666666667,8.57630275 0.666666667,18.3333333 C0.666666667,28.0903639 8.57630275,36 18.3333333,36 Z M18.3333333,34 C9.68087225,34 2.66666667,26.9857944 2.66666667,18.3333333 C2.66666667,9.68087225 9.68087225,2.66666667 18.3333333,2.66666667 C26.9857944,2.66666667 34,9.68087225 34,18.3333333 C34,26.9857944 26.9857944,34 18.3333333,34 Z" id="Oval"></path>
            </g>
        </g>
    </g>
</svg>