<?xml version="1.0" encoding="UTF-8"?>
<svg width="41px" height="41px" viewBox="0 0 41 41" version="1.1" xmlns="http://www.w3.org/2000/svg" xmlns:xlink="http://www.w3.org/1999/xlink">
    <title>icn_submotiv_search</title>
    <g id="Maria" stroke="none" stroke-width="1" fill="none" fill-rule="evenodd">
        <g id="Assets/Global/40/SubmotivSearch" transform="translate(1.000000, 1.000000)" fill="#000000" fill-rule="nonzero">
            <g id="-----ICON-LAYERS-----" transform="translate(0.000000, 0.000000)">
                <path d="M19.994,0 C31.037,0 39.989,8.952 39.989,19.995 C39.989,31.038 31.037,39.99 19.994,39.99 C8.951,39.99 1.03028697e-13,31.038 1.03028697e-13,19.995 C1.03028697e-13,8.952 8.951,0 19.994,0 Z M18.695,10.0005 C13.9,10.0005 10,13.9165 10,18.7295 C10,23.5425 13.9,27.4585 18.695,27.4585 C20.835,27.4585 22.793,26.6755 24.31,25.3845 L28.952,30.0205 C29.099,30.1675 29.291,30.2405 29.482,30.2405 C29.675,30.2405 29.866,30.1675 30.013,30.0205 C30.306,29.7265 30.306,29.2515 30.013,28.9595 L25.365,24.3205 C26.628,22.8045 27.391,20.8555 27.391,18.7295 C27.391,13.9165 23.49,10.0005 18.695,10.0005 Z M18.695,11.5005 C22.663,11.5005 25.891,14.7435 25.891,18.7295 C25.891,22.7155 22.663,25.9585 18.695,25.9585 C14.728,25.9585 11.5,22.7155 11.5,18.7295 C11.5,14.7435 14.728,11.5005 18.695,11.5005 Z" id="Combined-Shape"></path>
            </g>
        </g>
    </g>
</svg>