<?xml version="1.0" encoding="UTF-8"?>
<svg width="41px" height="41px" viewBox="0 0 41 41" version="1.1" xmlns="http://www.w3.org/2000/svg" xmlns:xlink="http://www.w3.org/1999/xlink">
    <title>icn_submotiv_generic</title>
    <g id="Maria" stroke="none" stroke-width="1" fill="none" fill-rule="evenodd">
        <g id="Assets/Global/40/submotivGeneric" transform="translate(1.000000, 1.000000)" fill="#000000" fill-rule="nonzero">
            <g id="-----ICON-LAYERS-----" transform="translate(0.000000, 0.000000)">
                <path d="M19.994,0 C31.037,0 39.989,8.952 39.989,19.995 C39.989,31.038 31.037,39.99 19.994,39.99 C8.951,39.99 8.8817842e-14,31.038 8.8817842e-14,19.995 C8.8817842e-14,8.952 8.951,0 19.994,0 Z M20.179,8 C12.211,8 8,12.21 8,20.177 C8,28.145 12.211,32.356 20.179,32.356 C28.147,32.356 32.358,28.145 32.358,20.177 C32.358,12.21 28.147,8 20.179,8 Z M20.179,9.5 C27.265,9.5 30.858,13.092 30.858,20.177 C30.858,27.263 27.265,30.856 20.179,30.856 C13.093,30.856 9.5,27.263 9.5,20.177 C9.5,13.092 13.093,9.5 20.179,9.5 Z M20.179,24.8619 C19.575,24.8619 19.183,25.1779 19.183,25.8579 C19.183,26.1839 19.274,26.4259 19.435,26.5909 C19.609,26.7669 19.866,26.8529 20.179,26.8529 C20.492,26.8529 20.748,26.7669 20.923,26.5909 C21.083,26.4259 21.174,26.1839 21.174,25.8579 C21.174,25.1779 20.783,24.8619 20.179,24.8619 Z M20.179,13.7134 C18.145,13.7134 16.49,15.3684 16.49,17.4014 C16.49,17.7614 16.781,18.0524 17.14,18.0524 C17.499,18.0524 17.79,17.7614 17.79,17.4014 C17.79,16.0854 18.862,15.0144 20.179,15.0144 C21.495,15.0144 22.567,16.0854 22.567,17.4014 C22.567,18.0134 22.336,18.5954 21.991,18.9734 L21.991,18.9734 L20.174,20.3914 L20.0419739,20.5146222 C19.7078395,20.8584247 19.519,21.3199556 19.519,21.8044 L19.519,21.8044 L19.519,23.3834 L19.5260473,23.4794556 C19.5724711,23.7929041 19.8426364,24.0334 20.169,24.0334 C20.529,24.0334 20.82,23.7424 20.82,23.3834 L20.82,23.3834 L20.82,21.8044 L20.828104,21.708528 C20.84932,21.58312 20.9106,21.47 20.993,21.4004 L20.993,21.4004 L22.863,19.9324 L23.0186696,19.7561193 C23.5670208,19.0944069 23.867,18.26765 23.867,17.4014 C23.867,15.3684 22.212,13.7134 20.179,13.7134 Z" id="Combined-Shape"></path>
            </g>
        </g>
    </g>
</svg>