<?xml version="1.0" encoding="UTF-8"?>
<svg width="41px" height="41px" viewBox="0 0 41 41" version="1.1" xmlns="http://www.w3.org/2000/svg" xmlns:xlink="http://www.w3.org/1999/xlink">
    <title>icn_submotiv_service</title>
    <g id="Maria" stroke="none" stroke-width="1" fill="none" fill-rule="evenodd">
        <g id="Assets/Global/40/SubmotivService" transform="translate(1.000000, 1.000000)" fill="#000000" fill-rule="nonzero">
            <g id="-----ICON-LAYERS-----" transform="translate(0.000000, 0.000000)">
                <path d="M19.994,0 C31.037,0 39.989,8.952 39.989,19.995 C39.989,31.038 31.037,39.99 19.994,39.99 C8.951,39.99 1.03028697e-13,31.038 1.03028697e-13,19.995 C1.03028697e-13,8.952 8.951,0 19.994,0 Z M20.0107,8.0001 C18.6547,8.0001 17.7297,8.6421 17.5507,10.0011 C13.3707,10.6741 10.8687,13.1721 10.1907,17.3481 C8.8557,17.4521 7.9997,18.2391 7.9997,19.8231 C7.9997,20.6431 8.2277,21.2501 8.6307,21.6611 C9.0077,22.0451 9.5457,22.2481 10.1907,22.2991 C10.8677,26.4701 13.3647,28.9671 17.5357,29.6441 C17.5867,30.3051 17.7937,30.8191 18.1437,31.1751 C18.5807,31.6191 19.2237,31.8341 20.0107,31.8341 C20.7967,31.8341 21.4407,31.6191 21.8767,31.1751 C22.2267,30.8191 22.4337,30.3051 22.4857,29.6441 C26.6577,28.9671 29.1537,26.4711 29.8307,22.2991 C30.4747,22.2481 31.0127,22.0461 31.3897,21.6611 C31.7927,21.2501 32.0207,20.6431 32.0207,19.8231 C32.0207,18.2391 31.1647,17.4521 29.8307,17.3481 C29.1527,13.1711 26.6507,10.6741 22.4697,10.0011 C22.2907,8.6421 21.3677,8.0001 20.0107,8.0001 Z M22.4697,11.0191 C26.0717,11.6531 28.1987,13.7891 28.8227,17.4011 C27.7167,17.6231 27.0267,18.4021 27.0267,19.8231 C27.0267,20.6431 27.2537,21.2501 27.6577,21.6611 C27.9547,21.9641 28.3537,22.1531 28.8227,22.2461 C28.1967,25.8701 26.0577,28.0091 22.4357,28.6351 C22.1927,27.4181 21.2957,26.8401 20.0107,26.8401 C18.7247,26.8401 17.8287,27.4181 17.5847,28.6351 C13.9627,28.0091 11.8247,25.8691 11.1987,22.2461 C11.6667,22.1531 12.0667,21.9641 12.3637,21.6611 C12.7667,21.2501 12.9947,20.6431 12.9947,19.8231 C12.9947,18.4021 12.3037,17.6231 11.1987,17.4011 C11.8227,13.7891 13.9497,11.6531 17.5507,11.0191 C17.6287,11.5781 17.8317,12.0171 18.1437,12.3341 C18.5807,12.7801 19.2237,12.9941 20.0107,12.9941 C20.7967,12.9941 21.4407,12.7801 21.8767,12.3341 C22.1887,12.0171 22.3917,11.5781 22.4697,11.0191 Z" id="Combined-Shape"></path>
            </g>
        </g>
    </g>
</svg>