<?xml version="1.0" encoding="UTF-8"?>
<svg width="41px" height="41px" viewBox="0 0 41 41" version="1.1" xmlns="http://www.w3.org/2000/svg" xmlns:xlink="http://www.w3.org/1999/xlink">
    <title>icn_submotiv_offer_tan</title>
    <g id="Maria" stroke="none" stroke-width="1" fill="none" fill-rule="evenodd">
        <g id="Assets/Global/40/SubmotivOfferTan" transform="translate(1.000000, 1.000000)" fill="#000000" fill-rule="nonzero">
            <g id="-----ICON-LAYERS-----" transform="translate(0.000000, 0.000000)">
                <path d="M19.994,0 C31.037,0 39.989,8.952 39.989,19.995 C39.989,31.038 31.037,39.99 19.994,39.99 C8.951,39.99 -3.90798505e-14,31.038 -3.90798505e-14,19.995 C-3.90798505e-14,8.952 8.951,0 19.994,0 Z M18.2577,10.9999 L16.4387,10.9999 C15.3357,10.9999 14.4387,11.8979 14.4387,12.9999 L14.4387,15.0069 C14.4387,15.4239 14.5677,15.8109 14.7867,16.1319 L12.0407,16.1319 C10.9157,16.1319 9.9997,17.0479 9.9997,18.1729 L9.9997,19.7639 C9.9997,20.5789 10.4847,21.2789 11.1777,21.6069 L11.1777,26.9959 C11.1777,28.4429 12.3477,29.6209 13.7847,29.6209 L25.6377,29.6209 C27.0747,29.6209 28.2447,28.4429 28.2447,26.9959 L28.2447,21.5349 C28.8667,21.1849 29.2917,20.5259 29.2917,19.7639 L29.2917,18.1729 C29.2917,17.0479 28.3757,16.1319 27.2507,16.1319 L24.5237,16.1319 C24.7427,15.8109 24.8717,15.4239 24.8717,15.0069 L24.8717,13.0219 C24.8717,11.9189 23.9747,11.0219 22.8717,11.0219 L21.0527,11.0219 C20.5147,11.0219 20.0287,11.2369 19.6677,11.5839 C19.3067,11.2239 18.8077,10.9999 18.2577,10.9999 Z M27.0457,21.8049 L27.0457,26.9959 C27.0457,27.7819 26.4137,28.4219 25.6377,28.4219 L20.2907,28.4219 L20.2907,21.8049 L27.0457,21.8049 Z M19.0917,21.8049 L19.0917,28.4219 L13.7847,28.4219 C13.0087,28.4219 12.3767,27.7819 12.3767,26.9959 L12.3767,21.8049 L19.0917,21.8049 Z M27.2507,17.4329 C27.6587,17.4329 27.9917,17.7649 27.9917,18.1729 L27.9917,19.7639 C27.9917,20.1719 27.6587,20.5039 27.2507,20.5039 L12.0407,20.5039 C11.6327,20.5039 11.3007,20.1719 11.3007,19.7639 L11.3007,18.1729 C11.3007,17.7649 11.6327,17.4329 12.0407,17.4329 L27.2507,17.4329 Z M18.2577,12.1989 C18.6967,12.1989 19.0527,12.5559 19.0567,12.9939 C19.0567,13.0039 19.0537,13.0119 19.0537,13.0219 L19.0537,15.8079 L16.4387,15.8079 C15.9967,15.8079 15.6377,15.4479 15.6377,15.0069 L15.6377,12.9999 C15.6377,12.5589 15.9967,12.1989 16.4387,12.1989 L18.2577,12.1989 Z M22.8717,12.2209 C23.3137,12.2209 23.6727,12.5799 23.6727,13.0219 L23.6727,15.0069 C23.6727,15.4479 23.3137,15.8079 22.8717,15.8079 L20.2567,15.8079 L20.2567,13.0019 C20.2677,12.5699 20.6187,12.2209 21.0527,12.2209 L22.8717,12.2209 Z" id="Combined-Shape"></path>
            </g>
        </g>
    </g>
</svg>