<svg width="24" height="24" viewBox="0 0 24 24" xmlns="http://www.w3.org/2000/svg"><path d="M16.748 12.429h-4.294v4.305a.616.616 0 01-1.233 0v-4.305H6.936a.616.616 0 010-1.233h4.285V6.952a.616.616 0 011.233 0V11.2h4.294c.339 0 .616.274.616.616a.617.617 0 01-.616.614M12.255 2.01c-.23-.005-.499-.011-.756-.011h-.177C9.345 2.017 2 2.695 2 11.812c0 9.13 7.415 9.843 9.392 9.871.104.003.213.003.32.003.204 0 .406-.003.58-.005 1.879-.034 9.391-.74 9.391-9.81.003-9.053-7.5-9.815-9.428-9.86" fill="#313235" fill-rule="nonzero"/></svg>