<svg width="24" height="24" viewBox="0 0 24 24" xmlns="http://www.w3.org/2000/svg"><path d="M13.291 17.563a13.95 13.95 0 00-4.428.958V11.37c1.66-.81 3.524-.927 4.428-.93v7.123zm-5.633.955a13.978 13.978 0 00-4.426-.958v-7.117a12.452 12.452 0 012.62.302c.028.006.056.017.084.022.168.043.336.085.507.138.078.025.16.053.24.081.124.04.244.078.367.126.205.078.41.165.611.263l-.003 7.143zm10.9-3.137c1.008 0 1.803-.3 2.355-.89.53-.567.801-1.36.801-2.36V6.909c0-1-.271-1.79-.804-2.35-.551-.583-1.341-.875-2.353-.875l-10.79.006c-1.01 0-1.8.294-2.352.874-.533.563-.804 1.353-.804 2.353V9.28a11.85 11.85 0 00-2.028-.059.607.607 0 00-.555.617v8.33a.61.61 0 00.602.62c3.031 0 5.33 1.212 5.353 1.226.087.048.182.07.28.073.009 0 .014-.006.023-.006a.636.636 0 00.257-.064c.023-.011 2.306-1.227 5.353-1.227a.612.612 0 00.603-.62v-.77h6.616a.612.612 0 00.602-.619.609.609 0 00-.602-.619h-6.62v-.775l4.062-.006z" fill="#313235" fill-rule="nonzero"/></svg>