<svg width="24" height="24" viewBox="0 0 24 24" xmlns="http://www.w3.org/2000/svg"><path d="M10.613 12.504l.98-.129-.002 1.698c0 .11.09.199.199.196h.006a.204.204 0 00.187-.118l1.305-2.89a.185.185 0 00-.025-.197.213.213 0 00-.19-.075l-1.079.143.02-1.67a.2.2 0 00-.165-.196.207.207 0 00-.23.118l-1.224 2.848a.186.186 0 00.028.194c.045.061.115.084.19.078zm-5.442 4.883c-1.04 0-1.84-.272-2.375-.807-.519-.516-.782-1.26-.782-2.221v-6.02c0-.958.263-1.7.782-2.21.535-.524 1.336-.79 2.375-.79l13.342-.006c1.042 0 1.84.266 2.375.793.518.51.781 1.252.781 2.21v6.017c0 .958-.263 1.706-.778 2.221-.538.535-1.34.807-2.378.807 0-.003-13.342.006-13.342.006zm4.512-7.9c0-.31.073-.529.222-.675.151-.145.38-.218.708-.218h2.463c.33 0 .563.07.711.213.149.14.219.361.219.678v4.728c0 .32-.073.543-.219.683-.148.14-.38.208-.709.208h-2.462c-.33 0-.563-.068-.708-.208-.149-.14-.222-.364-.222-.683-.003 0-.003-4.726-.003-4.726zm1.535-1.784c.028-.028.11-.03.143-.03h.961c.073 0 .126.01.146.03.017.014.03.056.03.137v.168h-1.31V7.84c0-.042.002-.112.03-.137zm-.607 7.989h2.462c.501 0 .874-.123 1.14-.378.272-.258.403-.62.403-1.104V9.487c0-.479-.131-.837-.398-1.095-.26-.252-.627-.378-1.109-.384v-.17c0-.233-.07-.42-.21-.555-.14-.135-.336-.202-.58-.202h-.96c-.244 0-.44.067-.583.205-.137.137-.207.322-.207.552v.17c-.48.006-.844.132-1.107.39-.266.26-.398.616-.398 1.09v4.725c0 .484.132.846.401 1.104.272.252.647.375 1.146.375zm10.462 2.406c.339 0 .613.263.613.591a.601.601 0 01-.613.588H2.616A.602.602 0 012 18.69c0-.325.275-.591.613-.591h18.46z" fill="#313235" fill-rule="nonzero"/></svg>