<svg width="24" height="24" viewBox="0 0 24 24" xmlns="http://www.w3.org/2000/svg"><path d="M16.497 12.482h-5.566a.606.606 0 01-.605-.602c0-.331.272-.603.605-.603h5.566c.334 0 .605.27.605.603 0 .33-.271.602-.605.602m0 4.011h-5.566a.606.606 0 01-.605-.602c0-.334.272-.603.605-.603h5.566c.334 0 .605.27.605.603 0 .33-.271.6-.605.602m-5.644-9.244h5.563a.604.604 0 110 1.204h-5.563a.606.606 0 01-.605-.601c0-.334.272-.603.605-.603m-2.726 5.434a.803.803 0 11-.001-1.603.803.803 0 01.001 1.603m0 4.009a.803.803 0 01-.803-.801.803.803 0 011.607 0 .802.802 0 01-.804.8m-.008-9.7c.443 0 .804.36.807.802a.802.802 0 01-.807.8.803.803 0 01-.804-.8c0-.443.361-.801.804-.801M17.898 2H5.915c-.729 0-1.393.756-1.393 1.588v16.507c0 .86.64 1.591 1.393 1.591l11.98.003c.753 0 1.392-.728 1.392-1.591V3.591C19.29 2.759 18.626 2 17.897 2" fill="#313235" fill-rule="nonzero"/></svg>