<svg width="24" height="24" viewBox="0 0 24 24" xmlns="http://www.w3.org/2000/svg"><path d="M19.88 10.728a5.698 5.698 0 00-.591-.708c-2.205-2.25-4.166-3.034-5.3-3.309v4.017h5.89zm-1.28 4.404c.224-.152.576-.418.918-.765H3.204v.885c10.505 0 13.928.017 14.916.025h.009a.819.819 0 00.47-.145zm-15.396-4.47h2.003v-2.85H3.204v2.85zm3.393 0H8.75v-2.85H6.597v2.85zm3.414 0h2.157v-2.85h-2.157v2.85zm-7.835 5.64A.624.624 0 012 15.869V5.952a.61.61 0 01.602-.616h10.334c.114-.003 3.389-.084 7.201 3.812 1.135 1.16 1.65 2.359 1.53 3.56-.171 1.712-1.583 2.897-2.406 3.452a2.032 2.032 0 01-1.132.347h-.017c-1.008-.008-4.538-.025-15.51-.025a.6.6 0 01-.426-.18zm18.905.93c.334 0 .602.275.602.617a.608.608 0 01-.602.616H2.602A.608.608 0 012 17.849c0-.342.269-.617.602-.617h18.48z" fill="#313235" fill-rule="nonzero"/></svg>