<svg width="24" height="24" viewBox="0 0 24 24" xmlns="http://www.w3.org/2000/svg"><path d="M16.339 20.482H7.462a.222.222 0 010-.443h8.877a.221.221 0 010 .443zM9.75 4.106a.9.9 0 01.899-.902h2.129a.9.9 0 01.899.902v2.558c-.586-.101-1.182-.171-1.793-.171-.711 0-1.428.076-2.131.227V4.106H9.75zm10.336 9.653c0-3.316-1.941-5.835-5.213-6.829V4.106A2.103 2.103 0 0012.779 2h-2.13a2.102 2.102 0 00-2.094 2.106V7.06c-2.69.952-4.872 3.123-4.872 6.7 0 2.375.942 4.336 2.673 5.625-.19.243-.311.546-.311.88 0 .784.636 1.422 1.42 1.422h8.877c.781 0 1.417-.638 1.417-1.423a1.41 1.41 0 00-.294-.857c1.717-1.274 2.622-3.204 2.622-5.647zm-11.28-1.333v2.846c0 .395.32.717.714.717h4.482a.716.716 0 00.714-.717v-2.846a.716.716 0 00-.714-.717H9.52a.716.716 0 00-.714.717zm.714 4.764a1.917 1.917 0 01-1.913-1.918v-2.846a1.92 1.92 0 011.913-1.922h4.482c1.053 0 1.913.863 1.913 1.922v2.846a1.917 1.917 0 01-1.913 1.918H9.52zm1.384-3.787a.4.4 0 110-.8h1.672a.4.4 0 110 .8h-1.672zm-.63 1.591a.4.4 0 110-.8h2.927a.4.4 0 110 .8h-2.927zM11.966 4.86c0 .19.143.347.317.347.174 0 .316-.157.316-.347 0-.19-.142-.35-.316-.35-.174 0-.317.157-.317.35zm1.432 0c0 .633-.502 1.151-1.115 1.151-.616 0-1.115-.518-1.115-1.151 0-.636.501-1.151 1.115-1.151.616-.003 1.115.515 1.115 1.15zm2.675-.77a.602.602 0 01-.423-1.028l.711-.717a.602.602 0 01.849.852l-.711.713a.592.592 0 01-.426.18zm.18.605a.6.6 0 01.599-.603h1.305a.6.6 0 01.6.603.6.6 0 01-.6.602h-1.305a.603.603 0 01-.6-.602zm-.553.784a.598.598 0 01.849 0l.754.756a.602.602 0 01-.423 1.028.59.59 0 01-.423-.176l-.754-.756a.604.604 0 01-.003-.852z" fill="#313235" fill-rule="nonzero"/></svg>