<svg width="24" height="24" viewBox="0 0 24 24" xmlns="http://www.w3.org/2000/svg"><path d="M17.071 2c1.11 0 1.92.269 2.474.826.552.555.818 1.362.818 2.463v13.109c0 1.115-.27 1.927-.827 2.479-.551.546-1.358.812-2.465.812h-6.554c-1.107 0-1.913-.266-2.465-.812-.555-.552-.827-1.364-.827-2.48v-3.562c-1.288-.09-2.313-.493-3.05-1.202-.874-.843-1.316-2.09-1.316-3.709 0-1.619.442-2.865 1.316-3.708.737-.712 1.765-1.112 3.056-1.202.042-.947.311-1.658.818-2.17C8.612 2.276 9.419 2 10.517 2zM13.8 17.129c-.698 0-1.112.417-1.112 1.115 0 .339.092.61.288.81.196.198.48.305.82.305.343 0 .626-.107.822-.306.19-.199.288-.47.294-.81 0-.697-.415-1.114-1.112-1.114zM7.789 6.118c-1.255 0-2.21.305-2.835.907-.647.622-.975 1.6-.975 2.902 0 1.303.328 2.28.975 2.902.624.602 1.58.908 2.835.908 1.254 0 2.21-.306 2.834-.908.647-.622.975-1.6.975-2.902s-.328-2.28-.975-2.902c-.624-.602-1.58-.907-2.834-.907zm0 .462a.35.35 0 01.35.35v.31c.372.046.717.16.994.331.205.126.235.292.235.379a.403.403 0 01-.403.403.538.538 0 01-.235-.064 2.232 2.232 0 00-.591-.225v1.454c1.249.188 1.518.916 1.515 1.502 0 .479-.176.885-.507 1.17-.255.222-.6.365-1.008.42v.328a.35.35 0 01-.7 0v-.319a2.88 2.88 0 01-1.32-.493.426.426 0 01-.196-.364.415.415 0 01.417-.41c.096.004.188.032.266.085.275.185.555.302.832.359v-1.538c-1.145-.21-1.395-.905-1.395-1.465 0-.852.538-1.434 1.395-1.552V6.93a.35.35 0 01.35-.35zm.35 3.787v1.429c.434-.093.689-.362.689-.746 0-.277-.09-.546-.69-.683zm-.7-2.308c-.362.09-.57.336-.57.697 0 .163 0 .474.57.642z" fill="#313235" fill-rule="nonzero"/></svg>