<svg width="24" height="24" viewBox="0 0 24 24" xmlns="http://www.w3.org/2000/svg"><path d="M3.213 11.263c0 2.92 1.37 4.278 4.305 4.278 2.936 0 4.306-1.359 4.306-4.278 0-2.918-1.37-4.277-4.306-4.277-2.935 0-4.305 1.359-4.305 4.277zm18.25 6.451c.2.16.274.426.184.667a.592.592 0 01-.566.403h-5.227c-.033.55-.185 1.359-.759 1.995-.535.602-1.31.907-2.297.907-.988 0-1.764-.305-2.3-.907-.574-.636-.72-1.448-.75-1.995H4.52a.598.598 0 01-.569-.403.59.59 0 01.188-.667c.412-.339.754-.778 1.036-1.302-2.03-.667-3.17-2.348-3.17-5.146 0-3.328 1.619-5.073 4.442-5.412 1.507-3.958 5.925-3.868 6.353-3.843.364-.025 3.003-.095 4.919 1.68 1.277 1.183 1.927 2.889 1.927 5.082v3.804c-.014.07-.19 3.504 1.815 5.137zM9.215 13.706a.607.607 0 01-.429-.177L7.09 11.843a.596.596 0 01-.18-.426V9.134c0-.333.272-.602.608-.602.336 0 .608.27.608.602v2.034l1.521 1.51a.597.597 0 010 .851.613.613 0 01-.431.177z" fill="#313235" fill-rule="nonzero"/></svg>