<svg width="24" height="24" viewBox="0 0 24 24" xmlns="http://www.w3.org/2000/svg"><path d="M6.527 18.316c-.415 0-.664.253-.664.67 0 .204.056.367.17.487.118.12.286.182.49.182a.668.668 0 00.491-.182c.115-.117.174-.283.174-.487.002-.42-.244-.67-.661-.67m3.316.813V11.26c0-.493-.104-.837-.314-1.05-.21-.213-.551-.316-1.044-.316H4.57c-.484 0-.826.106-1.042.324-.212.216-.316.558-.316 1.04v7.868c0 .499.104.843.314 1.053.21.21.551.311 1.044.311h3.914c.493 0 .834-.1 1.042-.31.212-.208.316-.553.316-1.051zM21.288 8.723c.393.4.505.969.292 1.479-.233.54-.77.89-1.362.882h-.249v5.333c0 .773-.655 1.404-1.462 1.404h-7.451v1.308c0 .84-.218 1.468-.675 1.919-.445.448-1.067.663-1.896.663H4.57c-.829 0-1.45-.218-1.899-.663-.45-.451-.672-1.079-.672-1.92V11.26c0-.82.218-1.442.667-1.899.453-.462 1.075-.686 1.902-.686h2.389l6.076-6.224c.551-.563 1.588-.566 2.137 0l6.117 6.272zm-6.986 3.383h-.061c-.485.003-.975.32-.975 1.014 0 .695.493 1.012 1.048 1.017.484-.011.972-.327.972-1.014 0-.686-.49-1.003-.984-1.017zm-.064-4.837c-2.412.025-3.706 1.431-3.759 1.49a.407.407 0 00.597.552l.002-.003c.045-.05 1.124-1.202 3.19-1.224.015 0 1.956-.09 3.203 1.31a.4.4 0 00.568.035l.003-.003a.407.407 0 00.03-.574c-1.512-1.704-3.758-1.589-3.834-1.583zm.006 1.61c-1.824.02-2.891 1.191-2.936 1.239a.405.405 0 00.602.543c.009-.008.885-.955 2.356-.97.02-.01 1.482-.052 2.375.953a.404.404 0 00.572.031.407.407 0 00.03-.574c-1.145-1.289-2.93-1.221-3-1.221zm.01 1.648c-1.218.014-1.935.798-1.966.832a.407.407 0 00.603.546 2.004 2.004 0 011.386-.566c.009-.011.874-.022 1.387.552.148.168.406.179.571.033a.41.41 0 00.034-.574c-.779-.868-1.983-.826-2.014-.823z" fill="#313235" fill-rule="nonzero"/></svg>