<svg width="24" height="24" viewBox="0 0 24 24" xmlns="http://www.w3.org/2000/svg"><path d="M15.53 19.577c1.683 1.35 3.565 2.11 5.212 2.11.076 0 .152-.004.224-.006a.89.89 0 00.44-.143.592.592 0 00.163-.849.66.66 0 00-.757-.224c-1.333.04-2.977-.63-4.462-1.824l-.067-.053a10.506 10.506 0 01-2.123-2.325c.215.188.431.353.652.482.885.521 1.765.787 2.544.787.437 0 .843-.084 1.201-.255.541-.257 1.205-.826 1.393-2.07.955-.865 1.058-1.711.966-2.28-.168-1.047-1.123-1.997-2.62-2.602-.845-.345-2.052-.423-3.234-.384.991-.619 1.93-1.35 2.406-2.095.854-1.32 1.056-2.622.557-3.569-.272-.515-.865-1.148-2.173-1.327-.91-.914-1.796-1.012-2.393-.922-1.098.16-2.092 1.073-2.728 2.499-.361.804-.443 1.955-.4 3.084-.65-.944-1.418-1.84-2.2-2.294-1.386-.813-2.75-1.009-3.744-.533-.541.258-1.205.827-1.393 2.07-.955.866-1.058 1.712-.966 2.28.168 1.048 1.126 1.995 2.62 2.6.713.291 1.69.395 2.694.395.182 0 .361-.006.543-.011-.991.619-1.933 1.353-2.409 2.098-.854 1.319-1.056 2.622-.557 3.568.271.516.868 1.149 2.173 1.325.746.748 1.474.947 2.042.947.124 0 .244-.008.35-.025 1.101-.16 2.096-1.073 2.729-2.499.182-.403.291-.899.353-1.428a11.694 11.694 0 002.899 3.417" fill="#313235" fill-rule="nonzero"/></svg>