<svg width="24" height="24" viewBox="0 0 24 24" xmlns="http://www.w3.org/2000/svg"><g fill="#313235" fill-rule="nonzero"><path d="M12.946 21.792a.232.232 0 01-.013-.084c.003-.38.006-1.073 0-1.24v-1.564c0-.138.11-.252.252-.252h1.751c.084 0 .161.04.209.111.262.387.709.619 1.203.619.783 0 1.418-.579 1.418-1.288 0-.71-.635-1.284-1.418-1.284-.49 0-.941.232-1.203.619a.248.248 0 01-.209.11h-1.751a.252.252 0 01-.252-.252V9.042c0-.138.11-.252.252-.252h1.24c.138 0 .252.11.252.252v2.612c0 .084-.04.161-.11.208-.37.249-.585.625-.585 1.032 0 .71.635 1.288 1.418 1.288.49 0 .941-.23 1.203-.616a.257.257 0 01.209-.11l3.183-.007a.252.252 0 01.252.252v1.67c0 .091-.047.175-.128.219-.42.239-.669.645-.669 1.086 0 .709.636 1.287 1.419 1.287.78 0 1.415-.578 1.415-1.287 0-.437-.249-.844-.662-1.083a.25.25 0 01-.125-.218v-2.48a.513.513 0 00-.174-.384.655.655 0 00-.444-.172h-.003l-4.054.007a.248.248 0 01-.209-.11 1.336 1.336 0 00-.54-.465.252.252 0 01-.145-.225V9.042c0-.138.11-.252.252-.252h3.099c.343 0 .625-.249.625-.555v-1.97c0-.09.047-.174.128-.218.42-.239.669-.642.669-1.082 0-.71-.635-1.284-1.419-1.284-.78 0-1.415.574-1.415 1.284 0 .44.249.843.662 1.082a.253.253 0 01.128.219v1.163c0 .137-.11.252-.252.252h-5.22a.252.252 0 01-.252-.252v-4.26c0-.241.006-1.125.01-1.445 0-.033.007-.07.023-.1.172-.377.834-1.604 2.205-1.604 1.163 0 2.007.404 2.505 1.197.04.064.05.138.027.208a.245.245 0 01-.145.155 3.264 3.264 0 00-1.792 1.838l-.087.246a.493.493 0 00.034.39.612.612 0 00.376.296c.06.016.124.026.188.026.273 0 .521-.164.599-.396l.07-.202c0-.003 0-.003.004-.007.124-.319.618-1.358 1.805-1.324h.016c1.026.003 1.91.222 2.629.652a4.08 4.08 0 011.472 1.54c.636 1.14.73 2.41.73 3.069 0 .39-.05 1.764-.703 3.008a.255.255 0 01-.158.124.258.258 0 01-.198-.03c-.693-.43-1.493-.696-2.38-.786-.34-.04-.655.184-.69.49a.51.51 0 00.112.38.643.643 0 00.437.229c.991.1 1.788.443 2.376 1.025l.02.02c1.1 1.351 1.184 3.214 1.184 3.751 0 .65-.094 1.903-.733 3.036A4.138 4.138 0 0121.4 20.49c-.723.437-1.613.665-2.645.682h-.027c-.34 0-.713-.118-1.086-.343a2.78 2.78 0 01-.232-.154.68.68 0 00-.897.09.511.511 0 00.05.723c.013.014.03.024.047.037.098.07.202.141.33.222.181.107.376.202.615.3a.249.249 0 01.118.366c-.491.79-1.335 1.193-2.502 1.193-1.495 0-2.08-1.389-2.225-1.815zM6.963 22.46a.24.24 0 01-.027-.218.25.25 0 01.155-.158c.265-.094.504-.205.726-.34a.557.557 0 00.265-.362.501.501 0 00-.087-.394c-.188-.265-.585-.34-.877-.164-.397.238-.75.35-1.106.346h-.027c-.024.003-.054.01-.09.01H5.87l-.017-.004c-1.029-.003-1.913-.221-2.636-.652a4.08 4.08 0 01-1.472-1.54c-.635-1.139-.73-2.41-.73-3.068 0-.377.048-1.708.663-2.938.05-.1.161-.154.272-.134.111.023.195.117.202.228.044.662.518 1.22 1.264 1.49l.151.05c.06.02.124.03.188.03a.597.597 0 00.548-.383v-.004a.461.461 0 00-.017-.36.702.702 0 00-.393-.359.78.78 0 01-.386-.269.249.249 0 01-.027-.259.26.26 0 01.215-.144c.558-.024 1.032-.141 1.408-.353a.543.543 0 00.276-.353.494.494 0 00-.074-.397c-.182-.272-.572-.356-.87-.188-.29.165-.673.229-1.167.192-.45-.034-.817-.152-1.082-.35-.02-.013-.034-.03-.05-.047-1.043-1.351-1.124-3.146-1.124-3.667 0-.659.098-1.93.747-3.07a4.114 4.114 0 011.506-1.539c.739-.433 1.65-.652 2.709-.652h.01c.38.014.655.078.894.205a.682.682 0 00.326.084c.222 0 .43-.107.545-.279a.504.504 0 00.067-.396.55.55 0 00-.283-.35 3.287 3.287 0 00-.43-.191.251.251 0 01-.124-.376C7.48.392 8.308.012 9.444.012c1.495 0 2.08 1.389 2.225 1.816.01.026.013.057.013.084-.006.413-.006.833 0 1.247v1.028c0 .138-.11.252-.252.252H9.844a.252.252 0 01-.205-.107 1.442 1.442 0 00-1.207-.622c-.783 0-1.422.575-1.422 1.284 0 .71.635 1.284 1.419 1.284.494 0 .944-.232 1.206-.618a.248.248 0 01.209-.111h1.586c.138 0 .252.11.252.252v1.616c0 .138-.11.253-.252.253H5.413a.252.252 0 01-.205-.108 1.451 1.451 0 00-1.19-.622h-.013c-.783 0-1.422.575-1.422 1.284 0 .71.635 1.284 1.419 1.284.494 0 .944-.232 1.206-.618a.248.248 0 01.209-.111h6.02c.138 0 .252.11.252.252v1.361c0 .138-.11.252-.252.252H8.469c-.343 0-.625.25-.625.555v2.48c0 .091-.047.175-.128.22-.417.238-.666.645-.666 1.085 0 .71.636 1.284 1.419 1.284s1.418-.575 1.418-1.284c0-.44-.248-.847-.665-1.086a.253.253 0 01-.128-.218v-1.674c0-.138.111-.252.252-.252h2.094c.138 0 .252.11.252.252v6.447c0 .138-.11.252-.252.252H5.02a.253.253 0 01-.252-.249l-.003-.175a.248.248 0 01.127-.258c.427-.236.683-.646.683-1.093 0-.71-.636-1.287-1.419-1.287s-1.418.578-1.418 1.287c0 .44.249.844.662 1.082a.245.245 0 01.124.232c0 .024-.006.044-.01.06l.014.962c.003.303.285.548.625.548h7.274c.138 0 .252.111.252.252v.39c0 .202-.007.83-.01 1.247l-.003.195c0 .034-.007.07-.024.101-.161.376-.827 1.607-2.198 1.607-1.15 0-1.983-.387-2.481-1.146z"/></g></svg>