<svg width="24" height="24" xmlns="http://www.w3.org/2000/svg"><path d="M22.333 20.36c-.343-.763-1.204-1.096-1.926-.733-1.21.602-2.736.904-4.528.904-3.997 0-6.494-1.5-7.6-4.504h5.859c.803 0 1.445-.686 1.445-1.53 0-.843-.645-1.526-1.445-1.526H7.674c-.024-.39-.07-.76-.07-1.18 0-.107.016-.194.02-.299h6.514c.803 0 1.445-.685 1.445-1.529 0-.844-.645-1.526-1.445-1.526H8.007c.92-3.593 3.502-5.382 7.872-5.382 1.771 0 3.28.3 4.484.884.726.36 1.587.02 1.92-.742.335-.767.02-1.674-.707-2.03C19.99.392 18.074 0 15.882 0c-6.06 0-9.815 2.971-10.86 8.444H3.476c-.8 0-1.446.685-1.446 1.526 0 .843.646 1.53 1.446 1.53h1.247c0 .1-.01.194-.01.298 0 .404.016.794.04 1.18H3.476c-.8 0-1.446.683-1.446 1.526 0 .844.646 1.53 1.446 1.53h1.737c1.271 4.904 4.945 7.556 10.67 7.556 2.225 0 4.16-.4 5.76-1.197.723-.36 1.03-1.27.69-2.033" fill="#313235" fill-rule="nonzero"/></svg>