<svg width="24" height="24" viewBox="0 0 24 24" xmlns="http://www.w3.org/2000/svg"><path d="M1.697 4.53h7.355c.128 0 .215.077.215.147v1.234c0 .413.333.75.743.75h9.267c.128 0 .215.077.215.205l.078 1.031v.004H4.31a1.62 1.62 0 00-1.614 1.546l-.67 3.624-.54-8.394c0-.067.084-.148.211-.148zm20.31 3.374h-.968c.003-.04.016-.077.013-.117l-.077-.975c0-.911-.763-1.65-1.701-1.65h-8.521V4.68c0-.911-.763-1.65-1.7-1.65H1.696A1.682 1.682 0 000 4.696v.03l.924 14.34c0 .017-.003.034-.003.054 0 .894.726 1.627 1.617 1.627h17.724c.864 0 1.573-.69 1.614-1.546l1.737-9.536a.619.619 0 00.014-.138 1.626 1.626 0 00-1.62-1.624z" fill="#313235" fill-rule="nonzero"/></svg>