<svg width="24" height="24" viewBox="0 0 24 24" xmlns="http://www.w3.org/2000/svg"><path d="M11.371 16.09c.39 0 .777-.098 1.07-.196l7.19-3.207v3.305c0 .971-.68 1.747-1.554 1.942-1.553.293-3.69.874-5.247 2.138-.39.293-.874.488-1.361.488s-.972-.195-1.361-.488c-1.553-1.264-3.691-1.845-5.247-2.138a1.985 1.985 0 01-1.553-1.942v-3.207l6.995 3.11c.292.097.682.194 1.068.194zm11.271 1.357c.487.39.776 1.166.776 1.65 0 .293-.097.582-.292.68-.195.194-.581.292-.874.292h-.585c-.39 0-.776 0-1.069-.293-.195-.194-.292-.39-.292-.679 0-.487.292-1.263.776-1.65V10.94L11.95 15.02c-.195.098-.488.195-.68.195-.292 0-.487-.097-.678-.195l-9.516-4.275c-.68-.293-1.07-.874-1.07-1.65 0-.68.39-1.362 1.07-1.651l9.519-4.276a1.892 1.892 0 011.459 0l9.52 4.276c.98.45.97 1.57.97 2.138l.098 7.865z" fill="#5CB615" fill-rule="nonzero"/></svg>