<?xml version="1.0" encoding="UTF-8"?>
<svg width="24px" height="24px" viewBox="0 0 24 24" version="1.1" xmlns="http://www.w3.org/2000/svg" xmlns:xlink="http://www.w3.org/1999/xlink">
    <title>3.Masa/Accesibilidad_3Masa</title>
    <g id="Symbols" stroke="none" stroke-width="1" fill="none" fill-rule="evenodd">
        <g id="3.Masa/Accesibilidad_3Masa" fill="#5CB615" fill-rule="nonzero">
            <path d="M17.5428571,16.594958 C19.5226891,15.6403361 21.4857143,14.194958 23.4151261,12.2655462 C23.5428571,12.1378151 23.6134454,11.9663866 23.6134454,11.7882353 C23.6134454,11.610084 23.5428571,11.4386555 23.4151261,11.3142857 C19.6571429,7.54957983 15.7647059,5.64369748 11.8453782,5.64369748 C10.3630252,5.64369748 8.88403361,5.91596639 7.41176471,6.4605042 L1.1697479,0.221848739 C0.907563025,-0.0403361345 0.484033613,-0.0403361345 0.221848739,0.221848739 C-0.0403361345,0.484033613 -0.0403361345,0.91092437 0.221848739,1.17310924 L6.08067227,7.03193277 C4.09747899,7.98655462 2.13445378,9.43193277 0.205042017,11.3613445 C0.0806722689,11.4890756 0.00672268908,11.6605042 0.00672268908,11.8386555 C0.00672268908,12.0168067 0.0773109244,12.1882353 0.205042017,12.312605 C3.96638655,16.0739496 7.85882353,17.9798319 11.7781513,17.9798319 C13.2605042,17.9798319 14.7394958,17.707563 16.2117647,17.1630252 L22.4504202,23.4016807 C22.5815126,23.5327731 22.7529412,23.6 22.9243697,23.6 C23.0957983,23.6 23.2672269,23.5327731 23.3983193,23.4016807 C23.6605042,23.1394958 23.6605042,22.712605 23.3983193,22.4504202 L17.5428571,16.594958 Z M13.3815126,12.4336134 L11.1764706,10.2285714 C11.3680672,10.1546218 11.5630252,10.1478992 11.7815126,10.1478992 C12.7966387,10.1478992 13.4521008,10.8033613 13.4521008,11.8218487 C13.4521008,12.0268908 13.4453782,12.2319328 13.3815126,12.4336134 L13.3815126,12.4336134 Z M15.4218487,14.4739496 L14.6756303,13.7277311 C14.9042017,13.2369748 15.0184874,12.6386555 15.0184874,11.9327731 C15.0184874,10.7865546 14.7159664,9.91596639 14.1176471,9.34789916 C13.5495798,8.80672269 12.7159664,8.53445378 11.6403361,8.53445378 C10.9344538,8.53445378 10.3294118,8.65210084 9.83865546,8.88739496 L9.09243697,8.14117647 C9.77815126,7.73109244 10.6319328,7.52268908 11.6403361,7.52268908 C14.4302521,7.52268908 16.0302521,9.12941176 16.0302521,11.9327731 C16.0268908,12.9378151 15.8218487,13.7882353 15.4218487,14.4739496 L15.4218487,14.4739496 Z" id="Accesibilidad_3Masa"></path>
        </g>
    </g>
</svg>