<svg width="24" height="24" viewBox="0 0 24 24" xmlns="http://www.w3.org/2000/svg"><path d="M21.906 20.748H1.718C.77 20.748 0 19.945 0 18.96V4.815C0 3.83.77 3.03 1.718 3.03h20.191c.948 0 1.718.8 1.718 1.785V18.96c-.003.985-.773 1.788-1.721 1.788zm-11.27-5.983c.4 0 .722-.336.722-.753s-.326-.753-.723-.753H3.146c-.4 0-.722.336-.722.753s.326.753.722.753h7.49zm-2.407-4.02a.74.74 0 00.726-.753.74.74 0 00-.726-.753H3.146a.74.74 0 00-.726.753.74.74 0 00.726.753H8.23zm8.709-3.446c-.683 0-1.217.188-1.583.558-.384.383-.575.955-.575 1.694 0 .74.191 1.308.575 1.691.366.37.9.555 1.583.555.686 0 1.217-.189 1.586-.555.384-.383.579-.955.579-1.694 0-.74-.195-1.308-.579-1.694-.37-.37-.9-.555-1.586-.555zm1.32 5.483H15.62c-.8 0-1.459.255-1.899.732-.407.44-.618 1.052-.618 1.768v.75c0 .141.11.255.245.255h7.19a.251.251 0 00.245-.255v-.75c0-.716-.215-1.327-.622-1.768-.447-.477-1.102-.732-1.902-.732z" fill="#313235" fill-rule="nonzero"/></svg>