<svg width="24" height="24" viewBox="0 0 24 24" xmlns="http://www.w3.org/2000/svg"><path d="M16.876 4.07a.97.97 0 00-.982.959l-.013 13.307c0 2.296-1.096 3.365-3.442 3.365-2.35 0-3.446-1.07-3.446-3.365V3.946c0-1.422.619-2.027 2.074-2.027 1.456 0 2.074.605 2.074 2.03l.03 13.627c0 .448-.094.538-.55.538-.458 0-.549-.09-.549-.538V5.092a.974.974 0 00-.981-.96.971.971 0 00-.982.957v12.484c0 1.516.962 2.457 2.515 2.457 1.55 0 2.514-.94 2.514-2.457l-.03-13.627C15.104 1.476 13.595 0 11.068 0 8.538 0 7.03 1.476 7.03 3.946v14.39c0 3.358 1.97 5.288 5.409 5.288 3.435 0 5.405-1.927 5.405-5.285l.013-13.307a.972.972 0 00-.981-.961" fill="#313235" fill-rule="nonzero"/></svg>