<svg width="24" height="24" viewBox="0 0 24 24" xmlns="http://www.w3.org/2000/svg"><path d="M22.434 9.731h-2.222c-.151-.938-.414-1.788-.783-2.531l1.643-1.644a1.197 1.197 0 000-1.687l-1.32-1.318a1.197 1.197 0 00-1.688 0L16.42 4.195a8.768 8.768 0 00-2.53-.783V1.187c0-.65-.529-1.177-1.177-1.177h-1.805c-.65 0-1.177.528-1.177 1.177v2.225c-.938.151-1.788.413-2.531.783L5.556 2.551a1.197 1.197 0 00-1.687 0L2.55 3.87a1.197 1.197 0 000 1.687l1.64 1.64c-.38.673-.652 1.759-.78 2.535H1.188c-.65 0-1.177.528-1.177 1.177v1.805c0 .648.528 1.176 1.177 1.176h2.225c.127.78.4 1.862.78 2.535l-1.64 1.64a1.197 1.197 0 000 1.687l1.317 1.318c.467.464 1.22.464 1.687 0L7.2 19.425c.743.37 1.593.632 2.531.783v2.226c0 .648.528 1.176 1.177 1.176h1.805c.648 0 1.176-.528 1.176-1.176v-2.226a8.768 8.768 0 002.531-.783l1.644 1.644c.467.464 1.22.464 1.687 0l1.318-1.318a1.197 1.197 0 000-1.687l-1.64-1.64c.37-.743.632-1.594.783-2.532h2.225c.649 0 1.176-.527 1.176-1.176v-1.805a1.181 1.181 0 00-1.18-1.18zM11.812 8.534c2.235 0 3.277 1.042 3.277 3.278 0 2.235-1.042 3.277-3.277 3.277-2.236 0-3.278-1.042-3.278-3.277 0-2.236 1.042-3.278 3.278-3.278z" fill="#5CB615" fill-rule="nonzero"/></svg>