<svg width="24" height="24" xmlns="http://www.w3.org/2000/svg"><path d="M19.217 22.074v-1.775h-6.501c-.074 0-.215-.003-.215-.003s-.135.003-.209.003h-.958c-.08 0-.231-.003-.231-.003s-.148.003-.23.003H4.43v1.775h14.787zm-8.763-4.992l-.588 1.668h1.008c.08 0 .235.003.235.003s.145-.003.225-.003h.958c.074 0 .212.003.212.003s.138-.003.212-.003h1.042l-.598-1.668h-2.706zm1.344-3.808l-.796 2.255h1.606l-.81-2.255zm-.92-9.072c-.212.215-.256.648-.256.974 0 .327.044.76.252.972.218.218.665.252.914.252.306 0 .71-.044.921-.255.212-.209.256-.642.256-.969 0-.326-.044-.76-.256-.974-.208-.212-.615-.256-.917-.256-.303.004-.71.047-.915.256zm9.078 14.548c.41 0 .743.346.743.776v3.324c0 .427-.333.777-.743.777H3.687c-.41 0-.742-.346-.742-.777v-3.324c0-.427.332-.776.742-.776h1.594L9.523 6.83c-.252-.433-.38-.985-.38-1.65 0-.911.239-1.614.706-2.088.454-.457 1.106-.689 1.943-.689s1.492.232 1.946.69c.474.477.712 1.18.712 2.09 0 .666-.13 1.214-.383 1.65l4.242 11.92h1.647v-.003zM2.746 9.018c.296.296.303.79.02 1.1a.72.72 0 01-1.048.016C.578 8.984 0 7.318 0 5.18S.578 1.375 1.718.218a.717.717 0 011.048.02.797.797 0 01-.016 1.096c-.837.85-1.264 2.145-1.264 3.846-.004 1.7.423 2.991 1.26 3.838zm2.847-.332a.713.713 0 01-.514-.219c-.766-.77-1.153-1.879-1.153-3.294 0-1.412.387-2.52 1.153-3.294a.72.72 0 011.049.02.797.797 0 01-.017 1.096c-.464.47-.7 1.203-.7 2.181 0 .979.236 1.711.7 2.179.292.295.302.79.02 1.095a.751.751 0 01-.538.236zM21.906.218c1.14 1.153 1.718 2.82 1.718 4.962 0 2.138-.579 3.805-1.718 4.954a.711.711 0 01-1.045-.02.797.797 0 01.02-1.096c.837-.847 1.264-2.137 1.264-3.838 0-1.704-.427-2.998-1.264-3.849a.797.797 0 01-.017-1.096.712.712 0 011.042-.017zM17.459 8.45a.8.8 0 01.02-1.095c.464-.468.7-1.2.7-2.175 0-.975-.236-1.711-.7-2.178a.802.802 0 01-.02-1.1.717.717 0 011.049-.016c.766.773 1.153 1.882 1.153 3.294 0 1.415-.39 2.52-1.153 3.294a.73.73 0 01-.518.215.742.742 0 01-.531-.239z" fill="#313235" fill-rule="nonzero"/></svg>