<svg width="24" height="24" viewBox="0 0 24 24" xmlns="http://www.w3.org/2000/svg"><path d="M18.578 0h3.87c.648 0 1.176.528 1.176 1.176v3.87c0 .648-.528 1.176-1.177 1.176h-3.869a1.178 1.178 0 01-1.176-1.177V1.176c0-.648.527-1.176 1.176-1.176zM9.88 0h3.869c.649 0 1.176.528 1.176 1.176v3.87c0 .648-.527 1.176-1.176 1.176H9.879a1.178 1.178 0 01-1.176-1.177V1.176C8.703.528 9.227 0 9.879 0zM1.176 0h3.87c.648 0 1.176.528 1.176 1.176v3.87c0 .648-.528 1.176-1.177 1.176H1.176A1.178 1.178 0 010 5.045V1.176C0 .528.528 0 1.176 0zm17.402 8.703h3.87c.648 0 1.176.527 1.176 1.176v3.869c0 .649-.528 1.176-1.177 1.176h-3.869a1.178 1.178 0 01-1.176-1.176V9.879c0-.652.527-1.176 1.176-1.176zm-8.699 0h3.869c.649 0 1.176.527 1.176 1.176v3.869c0 .649-.527 1.176-1.176 1.176H9.879a1.178 1.178 0 01-1.176-1.176V9.879c0-.652.524-1.176 1.176-1.176zm-8.703 0h3.87c.648 0 1.176.527 1.176 1.176v3.869c0 .649-.528 1.176-1.177 1.176H1.176A1.178 1.178 0 010 13.748V9.879c0-.652.528-1.176 1.176-1.176zm8.703 8.699h3.869c.649 0 1.176.527 1.176 1.176v3.87c0 .648-.527 1.176-1.176 1.176H9.879a1.178 1.178 0 01-1.176-1.177v-3.869c0-.649.524-1.176 1.176-1.176zm8.672 0h3.87c.648 0 1.176.527 1.176 1.176v3.87c0 .648-.528 1.176-1.177 1.176h-3.869a1.178 1.178 0 01-1.176-1.177v-3.869c0-.649.524-1.176 1.176-1.176zm-17.375 0h3.87c.648 0 1.176.527 1.176 1.176v3.87c0 .648-.528 1.176-1.177 1.176H1.176A1.178 1.178 0 010 22.447v-3.869c0-.649.528-1.176 1.176-1.176z" fill="#5CB615" fill-rule="nonzero"/></svg>