<svg width="24" height="24" viewBox="0 0 24 24" xmlns="http://www.w3.org/2000/svg"><path d="M18.037 4.528C16.541.222 11.694 0 10.706 0c-1.274 0-7.53.346-7.761 7.072C1.66 7.587 0 8.84 0 11.866c0 3.852 2.692 5.223 5.21 5.223h5.798v-1.812l-2.877-2.91a.734.734 0 01.003-1.033.723.723 0 011.026.004l1.848 1.869v-4.29a.726.726 0 111.453 0v1.241l1.431-1.953a.726.726 0 111.167.867l-2.572 3.506c-.006.01-.02.014-.026.024v4.474l-1.45.013v5.802a.726.726 0 101.453 0v-5.805l4.847-.03c2.918 0 6.32-1.654 6.32-6.313-.007-4.212-2.8-5.953-5.594-6.215" fill="#313235" fill-rule="nonzero"/></svg>