<svg width="24" height="24" viewBox="0 0 24 24" xmlns="http://www.w3.org/2000/svg"><path d="M20.326 4.13a1.25 1.25 0 00-1.778.094c-.47.524-.43 1.337.08 1.815.101.094 2.42 2.306 2.464 6.134.004.037.132 3.852-2.41 6.165a1.306 1.306 0 00-.1 1.818c.248.283.594.43.944.43.3 0 .602-.107.844-.329 3.425-3.116 3.26-7.99 3.25-8.154-.054-4.952-3.163-7.853-3.294-7.974zm-.995 8.013c-.034-3.338-2.148-5.308-2.239-5.388a1.25 1.25 0 00-1.784.097 1.302 1.302 0 00.094 1.819c.016.013 1.378 1.317 1.401 3.542.004.02.054 2.232-1.368 3.526a1.306 1.306 0 00-.1 1.819 1.246 1.246 0 001.788.1c2.326-2.117 2.211-5.418 2.208-5.515zm-7.254-9.126c-3.74 0-5.835 1.576-6.991 3.11l-3.819.002c-.336 0-.659.138-.894.38a1.29 1.29 0 00-.37.908l.01 9.049c0 .709.569 1.284 1.264 1.284l3.792-.004c1.15 1.533 3.257 3.1 7.106 3.1 1.106 0 2.003-.915 2.003-2.041V5.067c0-1.13-.904-2.05-2.1-2.05z" fill="#5CB615" fill-rule="nonzero"/></svg>