<svg width="24" height="24" viewBox="0 0 24 24" xmlns="http://www.w3.org/2000/svg"><path d="M15.066 10.269c1.586 0 2.571-.972 2.571-2.535 0-1.563-.985-2.534-2.571-2.534-1.59 0-2.575.971-2.575 2.534 0 1.563.988 2.535 2.575 2.535zM6.626 20.49c1.72-.03 4.628-.696 4.628-4.804 0-4.107-2.928-4.793-4.67-4.84h-.547c-1.71.017-4.568.656-4.568 4.8 0 4.165 2.897 4.82 4.618 4.85h.189c.114 0 .242 0 .35-.006zM21.37 2.266c1.48 1.475 2.263 3.633 2.253 6.258-.01 5.537-7.113 13.896-8.125 14.888a.733.733 0 01-.517.212.71.71 0 01-.518-.212c-.508-.491-1.644-1.812-2.965-3.644-1.526 1.936-4.023 2.161-4.844 2.168-.117.01-.252.01-.38.01h-.204C4.797 21.93.003 21.472.003 15.65c0-5.805 4.747-6.238 6.017-6.248h.44a6 6 0 01-.057-.938c0-2.612.794-4.773 2.29-6.239C10.191.76 12.4.007 15.044 0c2.65.01 4.84.79 6.326 2.266zM7.09 14.93h2.44c.407 0 .733.323.733.723 0 .4-.33.722-.733.722H7.09v2.41c0 .4-.33.723-.733.723a.726.726 0 01-.732-.722v-2.41H3.19a.726.726 0 01-.733-.723c0-.4.33-.723.733-.723h2.434v-2.376c0-.4.329-.723.732-.723.407 0 .733.323.733.723v2.376z" fill="#5CB615" fill-rule="nonzero"/></svg>