<svg width="24" height="24" viewBox="0 0 24 24" xmlns="http://www.w3.org/2000/svg"><path d="M14.114 0c1.025 0 1.664.639 1.664 1.664V14.43h3.26a.67.67 0 01.454 1.167l-8.517 7.872a.669.669 0 01-.911 0L1.543 15.6a.672.672 0 01.454-1.17h3.26v-.652c-1.55-.107-2.78-.595-3.667-1.449C.538 11.314.007 9.82.007 7.876c0-1.943.53-3.442 1.583-4.454.887-.857 2.118-1.341 3.667-1.449v-.31C5.257.64 5.89 0 6.904 0zM5.93 3.294c-3.082 0-4.578 1.5-4.578 4.582s1.5 4.578 4.578 4.578c3.08 0 4.579-1.496 4.579-4.578 0-3.083-1.496-4.582-4.579-4.582zm0 .565a.42.42 0 01.42.42v.345c.428.058.823.193 1.147.391.245.151.282.35.282.454a.484.484 0 01-.484.484.648.648 0 01-.286-.077l-.006-.004a2.6 2.6 0 00-.653-.255v1.741l.043.007c1.418.249 1.726 1.1 1.726 1.788 0 .575-.212 1.059-.609 1.405-.297.256-.692.423-1.159.495v.359a.42.42 0 01-.84-.004v-.331a3.467 3.467 0 01-1.638-.596.508.508 0 01-.235-.437.494.494 0 01.5-.491.598.598 0 01.32.1c.35.233.703.38 1.052.44V8.246l-.029-.003C4.086 7.997 3.785 7.156 3.785 6.48c0-1.036.666-1.742 1.724-1.869V4.28a.42.42 0 01.42-.42zm.422 4.52v1.69c.487-.12.775-.436.775-.882 0-.324-.103-.64-.775-.808zM4.776 6.437c0 .2 0 .585.731.783l.002-1.628c-.465.094-.733.397-.733.845z" fill="#313235" fill-rule="nonzero"/></svg>