<svg width="24" height="24" viewBox="0 0 24 24" xmlns="http://www.w3.org/2000/svg"><path d="M19.29 6.36c1.228 0 1.957-.74 1.957-1.98s-.733-1.98-1.956-1.98c-1.227 0-1.957.74-1.957 1.98s.73 1.98 1.957 1.98zm-.02 7.438c1.227 0 1.957-.74 1.957-1.98s-.733-1.98-1.956-1.98c-1.227 0-1.96.74-1.96 1.98s.733 1.98 1.96 1.98zm0 7.442c1.227 0 1.957-.74 1.957-1.98s-.733-1.98-1.956-1.98c-1.227 0-1.96.74-1.96 1.98s.733 1.98 1.96 1.98zM10.142 5.123a.74.74 0 00.736-.747.74.74 0 00-.736-.746h-6.82a.74.74 0 00-.736.746c0 .414.33.747.736.747h6.82zm0 7.442a.74.74 0 00.736-.747.74.74 0 00-.736-.746h-6.82a.74.74 0 00-.736.746c0 .414.33.747.736.747h6.82zm0 7.489a.74.74 0 00.736-.746.74.74 0 00-.736-.747h-6.82a.74.74 0 00-.736.747c0 .41.33.746.736.746h6.82zM23.657 9.136l-.007 5.351c0 .377-.12.723-.319 1.009.205.289.326.638.326 1.018l-.007 5.352c0 .968-.78 1.758-1.74 1.758H1.77c-.958 0-1.74-.79-1.74-1.758l.006-5.352c0-.376.118-.722.32-1.008a1.751 1.751 0 01-.327-1.019l.007-5.35c0-.377.118-.724.32-1.01A1.751 1.751 0 01.03 7.11l.007-5.351C.037.79.817 0 1.775 0h20.138c.958 0 1.737.79 1.737 1.758l-.006 5.351c0 .377-.121.723-.32 1.009.212.289.333.638.333 1.018zM19.291 3.59c.575 0 .78.208.78.79 0 .581-.205.79-.78.79-.575 0-.78-.209-.78-.79 0-.585.205-.79.78-.79zm-.02 7.439c.574 0 .78.208.78.79 0 .581-.206.79-.78.79-.575 0-.78-.209-.78-.79 0-.582.205-.79.78-.79zm0 7.442c.574 0 .78.208.78.79 0 .581-.206.79-.78.79-.575 0-.78-.209-.78-.79 0-.582.205-.79.78-.79z" fill="#313235" fill-rule="nonzero"/></svg>