<svg width="24" height="24" viewBox="0 0 24 24" xmlns="http://www.w3.org/2000/svg"><path d="M18.26 19.607V6.575c0-.891-.198-1.52-.608-1.926-.41-.404-1.049-.602-1.956-.602H9.087c-.894 0-1.532.202-1.95.619-.413.41-.614 1.035-.614 1.909v13.028c0 .898.198 1.533.611 1.933.407.4 1.046.592 1.95.592h6.612c.904 0 1.546-.192 1.953-.592.413-.397.612-1.032.612-1.93zm-7.59-18.01c-.087.087-.107.279-.107.427v.534h3.657v-.534c0-.125-.013-.343-.104-.43-.087-.088-.31-.102-.434-.102h-2.578c-.151 0-.346.017-.433.105zm8.054 2c.706.699 1.05 1.67 1.05 2.978v13.032c0 1.317-.347 2.296-1.06 2.991-.706.69-1.694 1.026-3.018 1.026H9.087c-1.324 0-2.312-.337-3.018-1.026-.713-.699-1.059-1.677-1.059-2.995V6.575c0-1.288.343-2.256 1.049-2.958.71-.706 1.69-1.052 2.991-1.059v-.534c0-.619.182-1.116.545-1.476.363-.363.87-.548 1.506-.548h2.578c.639 0 1.146.182 1.51.541.359.36.544.857.544 1.483v.534c1.31.007 2.292.346 2.991 1.039zm-2.117 8.195c.417 0 .756.332.756.746v6.32c0 1.461-1.207 2.648-2.69 2.648h-4.56c-1.483 0-2.69-1.187-2.69-2.649v-6.32c0-.41.34-.745.757-.745h8.427z" fill="#5CB615" fill-rule="nonzero"/></svg>