<svg width="24" height="24" xmlns="http://www.w3.org/2000/svg"><path d="M18.785 14.06c-.313.313-.693.558-1.11.767a4.907 4.907 0 01-.648.282 6.547 6.547 0 01-1.765.293c-.11.006-.208.023-.323.023H8.835c-.114 0-.211-.02-.322-.023a6.634 6.634 0 01-1.765-.293 4.907 4.907 0 01-.649-.282c-.417-.209-.796-.45-1.11-.766-.305-.407-.466-.969-.466-1.698 0-.726.164-1.287.467-1.7.72-.727 1.744-1.16 2.975-1.302-.04.273-.068.552-.068.85 0 1.271.37 2.266 1.096 2.962.696.666 1.67 1.005 2.894 1.005 1.227 0 2.199-.34 2.895-1.005.726-.696 1.092-1.69 1.092-2.961 0-.3-.024-.582-.064-.85 1.23.144 2.252.574 2.975 1.3.306.41.47.975.47 1.701-.003.73-.168 1.29-.47 1.698zm-4.175 3.412c-.007.77-.289 2.555-2.723 2.565-2.437-.01-2.716-1.795-2.722-2.565l-.01-.561.242-.003h5.22l-.007.564zm5.28-7.795c-.016-.02-.03-.04-.05-.06-.067-.08-.124-.125-.198-.195a1.772 1.772 0 00-.205-.178c-.88-.72-2.003-1.173-3.3-1.345.483-.78.735-1.758.735-2.928 0-1.596-.457-2.843-1.358-3.71C14.647.427 13.427 0 11.884 0c-1.543 0-2.763.424-3.627 1.26-.904.868-1.361 2.118-1.361 3.711 0 1.17.252 2.148.736 2.928-1.298.172-2.42.625-3.3 1.345-.078.05-.145.117-.206.178-.074.07-.131.114-.198.195-.02.02-.03.04-.05.06-.559.68-.854 1.573-.854 2.69 0 1.115.299 2.006.853 2.688.017.02.03.04.05.061.128.131.263.255.404.37.178.148.444.319.713.48.228.138.46.266.642.357v.601l.013.844c.027 2.827 1.664 5.845 6.168 5.859h.027c4.504-.014 6.141-3.032 6.168-5.859l.01-.854v-.588a8.98 8.98 0 00.642-.356c.27-.162.535-.333.713-.48.141-.115.276-.243.403-.37l.05-.061c.559-.68.858-1.57.858-2.69.007-1.122-.29-2.016-.847-2.692z" fill="#313235" fill-rule="nonzero"/></svg>