<svg width="24" height="24" viewBox="0 0 24 24" xmlns="http://www.w3.org/2000/svg"><path d="M16.06 20.104c.414 0 .75.333.75.74 0 .406-.336.74-.75.74H9.71a.746.746 0 01-.749-.74c0-.407.336-.74.75-.74h6.35zm-.857 2.04c.414 0 .75.333.75.74s-.336.74-.75.74h-4.83a.746.746 0 01-.75-.74c0-.407.337-.74.75-.74h4.83zM12.743 3.2a.746.746 0 01-.75-.74V.74c0-.407.336-.74.75-.74.413 0 .75.333.75.74v1.72a.75.75 0 01-.75.74zm6.124 1.98a.742.742 0 01-.528-.215.732.732 0 010-1.046l1.234-1.216a.755.755 0 011.059 0 .732.732 0 010 1.045l-1.234 1.217a.756.756 0 01-.53.215zM7.052 5.176a.748.748 0 01-.528.216.77.77 0 01-.53-.216L4.76 3.96a.732.732 0 010-1.046.755.755 0 011.058 0l1.234 1.217a.732.732 0 010 1.045zM4.501 9.543c.413 0 .75.333.75.74 0 .406-.337.739-.75.739H2.756a.746.746 0 01-.75-.74c0-.406.337-.74.75-.74h1.745zm18.417-.088c.413 0 .75.333.75.74s-.337.74-.75.74h-1.742a.746.746 0 01-.75-.74c0-.407.337-.74.75-.74h1.742zm-6.29 2.242a.742.742 0 00.71-.776c-.182-3.439-2.706-4.716-4.995-4.766-.141-.007-.306-.007-.454-.007a.746.746 0 00-.75.74c0 .406.337.739.75.739.138.01.272 0 .41.007 1.015.02 3.388.393 3.543 3.364.02.394.35.7.746.7a.082.082 0 00.04 0zm-3.552-7.784c1.324.03 6.497.55 6.497 6.712 0 3.1-1.304 4.767-2.766 5.66l.01 1.345c0 .615-.175 1.093-.531 1.409-.34.309-.86.464-2.296.464h-2.397c-1.401 0-1.926-.158-2.269-.464-.363-.316-.544-.794-.544-1.409l-.01-1.334c-1.462-.888-2.767-2.568-2.767-5.704 0-6.212 5.063-6.676 6.424-6.683.212-.003.444-.003.649.004z" fill="#5CB615" fill-rule="nonzero"/></svg>