<svg width="24" height="24" viewBox="0 0 24 24" xmlns="http://www.w3.org/2000/svg"><path d="M16.1 2.867a9.414 9.414 0 01.454 12.598l6.844 6.844a.674.674 0 01-.95.952l-6.836-6.836a9.35 9.35 0 01-6.167 2.301A9.415 9.415 0 012.787 2.652a9.418 9.418 0 0113.314.215zM9.446 1.24a8.07 8.07 0 00-5.707 13.778 8.073 8.073 0 0011.384.074.635.635 0 01.071-.077l.02-.016.134-.136a8.07 8.07 0 00-.15-11.216c-.014-.017-.03-.03-.044-.044A8.017 8.017 0 009.445 1.24zm-4.8 3.27a6.875 6.875 0 019.725 0 6.824 6.824 0 012.013 4.861 6.875 6.875 0 01-11.738 4.864 6.875 6.875 0 010-9.724z" fill="#5CB615" fill-rule="nonzero"/></svg>