<svg width="24" height="24" xmlns="http://www.w3.org/2000/svg"><path d="M11.761 18.978a4.162 4.162 0 01-4.154-4.154 4.16 4.16 0 014.154-4.158 4.156 4.156 0 010 8.313zm5.543-1.92c2.914 0 6.32-1.646 6.32-6.288 0-4.225-2.797-5.97-5.587-6.229C16.545.225 11.694 0 10.706 0c-1.274 0-7.53.346-7.758 7.09C1.664 7.602 0 8.86 0 11.891 0 14.854 1.71 16.8 4.649 17.1l1.99-.003c.864 1.97 2.816 3.344 5.089 3.344 1.227 0 2.363-.41 3.284-1.089.006.007.01.02.017.027l4.003 4.037a.717.717 0 001.015.007l.007-.007a.73.73 0 000-1.028l-3.997-4.037a5.55 5.55 0 00.773-1.288l.474-.003z" fill="#313235" fill-rule="nonzero"/></svg>