<svg width="24" height="24" viewBox="0 0 24 24" xmlns="http://www.w3.org/2000/svg"><path d="M21.882 21.61c0 .286-.211.538-.453.538H2.189c-.243 0-.451-.252-.451-.538V7.872c0-.285.208-.538.45-.538h6.054v2.955c0 .407.39.736.87.736h5.016c.48 0 .87-.33.87-.736l-.003-2.955h6.434c.242 0 .453.253.453.538V21.61zM3.412 1.855a.602.602 0 00.023-.171c0-.114.111-.208.246-.208h5.112L8.33 5.862H2.28l1.133-4.007zm16.776-.171c0 .06.007.118.027.175l1.16 4h-6.478l-.554-4.387h5.596c.138.004.25.094.25.212zm3.399 5.859a.64.64 0 00-.014-.276l-1.647-5.684c-.064-.88-.928-1.58-1.983-1.58H3.684c-1.059 0-1.926.703-1.983 1.584L.1 7.274c-.004.017 0 .03-.004.047a1.816 1.816 0 00-.094.558v13.738c0 1.11.982 2.013 2.192 2.013h19.24c1.21 0 2.192-.904 2.192-2.013V7.879a2.091 2.091 0 00-.04-.336z" fill="#5CB615" fill-rule="nonzero"/></svg>