<svg width="24" height="24" viewBox="0 0 24 24" xmlns="http://www.w3.org/2000/svg"><path d="M2.975 10.08a.504.504 0 00.504-.504v-.998c0-.857.202-1.486.605-1.872.387-.373 1.002-.561 1.825-.561h.874l-.52.45a.502.502 0 10.649.77c.002-.004.006-.004.006-.007.164-.141.991-.85 1.14-1.002.443-.443.44-.998-.008-1.448-.299-.3-1.102-.982-1.136-1.012a.502.502 0 00-.709.057.502.502 0 00.057.71c.004.003.27.228.541.47h-.897c-1.093 0-1.943.282-2.524.843-.606.585-.915 1.46-.915 2.599v.998a.51.51 0 00.508.508zm5.381 3.564l-2.91-2.915a.667.667 0 00-.475-.198h-3.95c-.6.003-1.021.424-1.021 1.022v9.788c0 .612.41 1.025 1.022 1.025h6.524c.592 0 1.009-.416 1.009-1.008v-7.24a.66.66 0 00-.199-.474zm-2.218 6.52H2.427a.504.504 0 110-1.008H6.14a.504.504 0 11-.003 1.009zm0-1.747H2.427a.504.504 0 110-1.009H6.14a.504.504 0 11-.003 1.009zm0-1.748H2.427a.504.504 0 110-1.008H6.14a.504.504 0 11-.003 1.008zm.212-2.686c-.884 0-1.244-.36-1.244-1.244v-.447l1.69 1.691H6.35zm17.28-6.12a.26.26 0 00-.006-.051c0-.007 0-.01-.004-.017-.003-.02-.01-.037-.013-.057V7.73l-.02-.057-.004-.007c-.007-.017-.017-.033-.023-.05l-.004-.01a.19.19 0 00-.027-.044c-.003-.003-.003-.007-.006-.013l-.03-.04-.01-.014c-.014-.017-.03-.034-.044-.047l-5.244-5.244a.314.314 0 00-.05-.044l-.014-.01-.04-.03-.01-.007a.307.307 0 00-.044-.027l-.007-.003a.34.34 0 00-.05-.023h-.004l-.057-.02h-.006c-.02-.007-.04-.01-.058-.014l-.013-.003c-.017-.004-.034-.007-.05-.007-.017 0-.044-.004-.068-.004h-6.252c-.806 0-1.31.498-1.31 1.298v17.758c0 .813.504 1.318 1.314 1.32H22.47c.527 0 .806-.238.95-.436.196-.272.22-.598.22-.85V7.926c-.007-.02-.007-.044-.01-.064zM20.38 18.44h-6.972a.674.674 0 01-.672-.672c0-.37.303-.672.672-.672h6.972c.37 0 .672.302.672.672 0 .37-.302.672-.672.672zm0-3.304h-6.972a.674.674 0 01-.672-.672c0-.37.303-.672.672-.672h6.972c.37 0 .672.302.672.672 0 .37-.302.672-.672.672zm0-3.28h-6.972a.674.674 0 01-.672-.673c0-.37.303-.672.672-.672h6.972c.37 0 .672.302.672.672 0 .37-.302.672-.672.672zm-.04-4.599c-.622 0-1.123-.171-1.453-.5-.329-.33-.497-.828-.497-1.45V4.31l2.948 2.948h-.999z" fill="#313235" fill-rule="nonzero"/></svg>