<svg width="24" height="24" viewBox="0 0 24 24" xmlns="http://www.w3.org/2000/svg"><path d="M20.741 10.914c.004 0 0 6.195.004 9.25 0 1.076-.327 1.93-.975 2.542-1.073 1.015-2.622.914-2.686.91l-10.46.008c-1.184 0-2.108-.353-2.747-1.05-.934-1.018-.847-2.386-.843-2.443l-.004-9.287c0-1.086.333-1.947.985-2.555.609-.568 1.368-.773 1.92-.844V6.017C5.934 1.62 8.861.027 11.601 0c.174 0 .36.003.52.003C14.329.057 16.94 1.2 17.646 4.25c.091.39-.148.78-.53.87a.719.719 0 01-.861-.537c-.656-2.83-3.355-3.113-4.168-3.133-.145-.004-.316-.004-.474-.004-1.278.01-4.252.481-4.252 4.568v1.399c1.95-.004 7.247-.01 9.768-.01 1.206 0 2.144.356 2.786 1.062.931 1.025.83 2.386.827 2.45zm-8.9 6.202h-.25c-1.626-.024-1.626-1.304-1.626-1.785 0-.477 0-1.748 1.596-1.765h.05c.068 0 .139.004.202.004 1.65.04 1.65 1.351 1.65 1.781.004.474.004 1.738-1.623 1.765zm.01-4.992c-.071-.003-.155-.003-.236-.003h-.064c-.638.007-3.012.229-3.012 3.21 0 2.992 2.397 3.224 3.036 3.234h.292c.605-.01 3.036-.242 3.036-3.214-.007-2.961-2.43-3.21-3.053-3.227z" fill="#313235" fill-rule="nonzero"/></svg>