<svg width="24" height="24" viewBox="0 0 24 24" xmlns="http://www.w3.org/2000/svg"><path d="M11.808 0c7.463 0 11.816 3.768 11.816 11.815S19.27 23.624 11.808 23.624C4.346 23.624 0 19.862 0 11.815 0 3.768 4.346 0 11.808 0zm.108 13.697c-.185-.006-4.588-.16-7.388 2.975a.735.735 0 00.06 1.042.736.736 0 001.042-.06c2.33-2.605 6.188-2.478 6.249-2.484 3.812.04 6.1 2.507 6.124 2.53a.733.733 0 00.548.243.735.735 0 00.548-1.23c-.11-.121-2.726-2.968-7.183-3.016zm-3.687-3.626c.426 0 .783-.135 1.032-.387.242-.249.366-.592.366-1.015 0-.867-.538-1.405-1.398-1.405-.864 0-1.399.538-1.399 1.405 0 .423.125.766.367 1.015.248.252.605.387 1.032.387zm7.166 0c.427 0 .783-.135 1.032-.387.245-.249.37-.592.37-1.015 0-.867-.538-1.405-1.399-1.405-.864 0-1.398.538-1.398 1.405 0 .423.124.766.366 1.015.242.252.599.387 1.029.387z" fill="#313235" fill-rule="nonzero"/></svg>