<svg width="24" height="24" viewBox="0 0 24 24" xmlns="http://www.w3.org/2000/svg"><path d="M22.165 15.903v-3.466a.273.273 0 00-.27-.276H12.34c-1.008 0-1.831.844-1.831 1.88v.255c0 1.035.82 1.879 1.831 1.879h9.557a.268.268 0 00.269-.272zM3.287 5.633c0 .028-.01.048-.013.071l15.244.004v-1.52c0-.178-.158-.326-.35-.326l-.343.027h-.007L3.684 4.901c-.242.003-.4.151-.4.326v.407h.003zM1.845 5.17c.034-.972.82-1.755 1.792-1.755l13.462-.965v-.897l-14.07.992c-.454.003-.837.164-1.123.46a1.576 1.576 0 00-.444 1.103v.04c0 .376.141.736.383 1.022zm20.05 5.506c.949 0 1.718.79 1.718 1.764v3.466c0 .971-.77 1.761-1.717 1.761h-.104l.003 1.916c0 .814-.306 1.58-.867 2.155a2.905 2.905 0 01-2.098.894l-15.855.007c-.894-.007-1.678-.336-2.215-.921-.535-.585-.794-1.375-.747-2.29V4.109c0-.814.31-1.58.868-2.155a2.913 2.913 0 012.097-.894L17.771.017a.721.721 0 01.545.198.746.746 0 01.229.545v1.674a1.802 1.802 0 011.418 1.758v1.73c.41.152.773.384 1.062.7.535.585.79 1.378.743 2.299l.003 1.758h.125v-.003zm-9.324 2.393c.646 0 1.167.538 1.167 1.2 0 .662-.521 1.2-1.167 1.2-.645 0-1.166-.538-1.166-1.2-.003-.662.521-1.2 1.166-1.2z" fill="#5CB615" fill-rule="nonzero"/></svg>