<svg width="24" height="24" viewBox="0 0 24 24" xmlns="http://www.w3.org/2000/svg"><path d="M11.898 5.95c-1.84 0-2.938-1.11-2.938-2.968 0-.948.269-1.695.803-2.219C10.281.255 10.997 0 11.898 0c.9 0 1.616.255 2.134.756.538.521.81 1.27.81 2.222 0 1.862-1.102 2.972-2.944 2.972zm6.302 7.98c.158.47.124.967-.087 1.404a1.76 1.76 0 01-1.026.908c-.188.077-.39.114-.591.104l.202.757a.725.725 0 01-.693.91h-.48l-.02 3.782c0 .571-.175 1.049-.502 1.375-.208.205-.578.45-1.18.45h-.043c-.924-.02-1.597-.786-1.597-1.828l.017-3.779h-.565l.02 3.775c0 .565-.184 1.056-.524 1.392-.296.292-.696.45-1.112.44h-.044c-.958-.023-1.677-.81-1.677-1.828l-.02-3.775h-.481a.725.725 0 01-.692-.91l.201-.757h-.003c-.205 0-.407-.037-.605-.108a1.768 1.768 0 01-1.009-.9 1.82 1.82 0 01-.09-1.4l1.831-5.27c.024-.077.054-.151.098-.245a3.39 3.39 0 013.112-2.054h2.518a3.4 3.4 0 013.126 2.088c.027.053.06.134.09.231.004-.006 1.826 5.237 1.826 5.237z" fill="#313235" fill-rule="nonzero"/></svg>