<svg width="24" height="24" viewBox="0 0 24 24" xmlns="http://www.w3.org/2000/svg"><path d="M14.538 0c1.328 0 2.292.326 2.944.998.642.66.955 1.624.955 2.952v1.465h2.047c.83 0 1.368.538 1.371 1.372v8.416c0 .834-.537 1.372-1.371 1.372h-2.047v3.106c0 2.658-1.274 3.95-3.9 3.95H5.917c-2.625 0-3.9-1.292-3.9-3.95V3.95c0-2.622 1.312-3.95 3.9-3.95zm-4.323 18.37c-.696 0-1.146.363-1.146 1.15 0 .376.104.658.289.846.202.205.494.303.857.303s.656-.098.857-.303c.182-.188.286-.467.29-.847 0-.783-.451-1.15-1.147-1.15zM20.481 6.42h-3.557L14.64 8.131v7.072c0 .283.08.363.363.363h5.479c.282 0 .363-.08.363-.363v-8.42c0-.282-.081-.363-.363-.363zm-.7 3.409c.185 0 .337.15.337.336v4.252a.337.337 0 01-.336.336h-4.05a.337.337 0 01-.337-.336v-4.252c0-.185.151-.336.336-.336zm-1.69 3.576h-.676v.676h.676v-.676zm-1.348 0h-.672v.676h.672v-.676zm2.702 0h-.682v.676h.682v-.676zm0-1.556h-3.374v.884h3.374v-.884zM18.091 10.5h-.676v.675h.676v-.675zm1.354 0h-.682v.675h.679l.003-.675zm-2.702 0h-.672v.675h.672v-.675z" fill="#5CB615" fill-rule="nonzero"/></svg>