<svg width="24" height="24" viewBox="0 0 24 24" xmlns="http://www.w3.org/2000/svg"><path d="M16.326 17.366c-1.126 0-1.677-.53-1.677-1.623s.548-1.624 1.677-1.624c1.126 0 1.674.531 1.674 1.624 0 1.092-.548 1.623-1.674 1.623M6.064 17.36c-1.126 0-1.677-.531-1.677-1.624 0-1.092.547-1.627 1.677-1.627s1.677.531 1.677 1.627c0 1.093-.548 1.624-1.677 1.624M22.9 11.887c-1.328-2.232-3.614-2.783-4.521-2.92-.736-.982-3.409-3.954-8.767-3.954-3.378 0-5.637 1.513-6.937 2.784C.83 9.598.013 11.737.024 13.01c-.105 1.718.178 2.86.188 2.911.08.32.376.545.716.545h2.06c.276 1.448 1.402 2.326 3.08 2.326 1.677 0 2.8-.874 3.078-2.326h4.104c.276 1.455 1.402 2.332 3.08 2.332 1.68 0 2.803-.877 3.078-2.332h2.86c.18 0 .35-.064.482-.175.074-.067 1.828-1.594.15-4.404" fill="#5CB615" fill-rule="nonzero"/></svg>