<svg width="24" height="24" viewBox="0 0 24 24" xmlns="http://www.w3.org/2000/svg"><path d="M10.165 19.654c-.602 0-1.083.171-1.432.507-.367.353-.551.847-.551 1.476s.184 1.123.55 1.476c.35.336.834.507 1.433.507.598 0 1.082-.171 1.432-.507.366-.353.55-.847.55-1.476s-.184-1.123-.55-1.476c-.35-.336-.83-.507-1.432-.507zm6.554 0c-.601 0-1.082.171-1.432.507-.366.353-.55.847-.55 1.476s.184 1.123.55 1.476c.35.336.834.507 1.432.507.599 0 1.083-.171 1.432-.507.363-.353.552-.847.552-1.476s-.185-1.123-.552-1.476c-.35-.336-.83-.507-1.432-.507zm6.736-13.836a.669.669 0 00-.53-.258h-4.081V4.13c0-.571-.505-1.015-1.503-1.314-.783-.235-1.818-.367-2.907-.367-1.09 0-2.125.132-2.908.367-.998.299-1.502.743-1.502 1.314V5.56H6.118c-.26-1.506-.468-2.7-.528-3.026C5.328 1.072 3.95.014 2.306.014H.686a.674.674 0 00-.673.672c0 .37.303.672.673.672h1.623c.975 0 1.815.608 1.96 1.412.181 1.015 1.795 10.363 1.963 11.432.195 1.23.652 2.195 1.365 2.867.679.642 1.573.978 2.578.978h7.506c.995 0 1.838-.34 2.51-1.008.636-.636 1.1-1.543 1.42-2.77.14-.548.607-2.42 1.058-4.235.373-1.493.723-2.905.907-3.634a.678.678 0 00-.12-.582zM12.017 3.724c.665-.171 1.522-.265 2.413-.265.891 0 1.748.094 2.414.265.615.158.864.326.954.407l-.003.003-.003.004-.01.007-.004.003c-.007.007-.017.013-.027.02l-.003.003-.014.01-.003.004-.013.01-.007.003-.014.01-.003.004c-.013.006-.027.017-.04.027l-.007.003-.017.01-.01.003-.017.01-.01.007-.02.01-.007.004-.027.013-.006.004-.024.013-.01.007-.02.01-.013.006-.02-.003-.014.007-.027.01-.01.003-.04.017-.014.003-.03.01-.017.007-.027.01-.017.007-.03.01-.017.007-.037.013-.013.004-.05.017-.017.006-.037.01-.02.007-.037.01-.024.007-.04.01-.02.007-.064.016c-.666.172-1.523.266-2.414.266-.89 0-1.748-.094-2.413-.266l-.064-.016-.02-.007-.04-.01-.024-.007-.037-.01-.02-.007-.037-.01-.017-.006-.05-.017-.014-.004-.037-.013-.017-.007-.03-.01-.017-.007-.027-.01-.016-.006-.03-.01-.014-.004-.04-.017-.01-.003-.027-.01-.014-.007-.02-.01-.013-.007-.02-.01-.01-.006-.024-.01-.007-.004-.03-.013-.007-.004-.02-.01-.01-.007-.017-.01-.01-.003-.017-.01-.007-.003c-.013-.01-.03-.017-.04-.027l-.003-.004-.014-.01-.007-.003-.013-.01-.003-.004-.014-.01-.003-.003-.027-.02-.003-.004-.01-.006-.004-.004-.003-.003c.094-.074.343-.239.958-.397zm5.818 9.752c-.043.05-.255.252-.991.443-.666.172-1.523.266-2.414.266-.89 0-1.748-.094-2.413-.266-.736-.188-.945-.39-.992-.443v-1.953l.014.006c.027.014.057.024.084.034l.027.01c.033.014.07.027.107.04l.014.004c.033.013.067.023.1.033l.03.01c.041.014.078.027.118.037.784.236 1.819.367 2.908.367s2.128-.128 2.91-.363c.041-.014.081-.024.118-.037l.03-.01c.034-.01.068-.024.102-.034l.013-.003c.037-.014.07-.027.108-.04l.026-.01c.03-.01.058-.024.084-.034l.014-.007.003 1.95zm0-3.126l-.006.006-.004.004v.003l-.007.007-.003.003-.007.007-.003.003-.007.007-.003.003-.007.007-.003.003-.007.007-.007.003-.01.007-.006.004-.01.006-.007.004-.01.006-.007.007-.01.007-.01.007-.01.006-.01.007-.014.007-.01.006-.013.007-.01.007-.014.007-.013.006-.014.007-.013.007-.017.006-.017.007-.017.007-.016.007-.017.006-.017.01-.017.007-.02.01-.02.007-.02.01-.02.007-.024.01-.02.007-.024.01-.023.006-.027.01-.024.01-.027.01-.023.01-.027.01-.024.008-.03.01-.033.01-.034.01-.03.01-.034.01-.04.01-.027.007-.067.017c-.666.171-1.523.265-2.414.265-.89 0-1.748-.094-2.413-.265l-.067-.017-.027-.007-.04-.01-.034-.01-.03-.01-.034-.01-.027-.007-.03-.01-.024-.007-.027-.01-.023-.01-.027-.01-.024-.01-.027-.01-.023-.007-.024-.01-.02-.007-.023-.01-.02-.007-.02-.01-.02-.006-.021-.01-.017-.007-.017-.01-.016-.007-.017-.007-.017-.006-.017-.007-.017-.007-.013-.007-.013-.006-.014-.007-.013-.007-.014-.007-.013-.006-.01-.007-.014-.007-.01-.006-.013-.007-.01-.007-.01-.007-.007-.006-.01-.007-.007-.003-.01-.007-.007-.003-.01-.007-.003-.004-.007-.006-.003-.004-.007-.006-.003-.004-.007-.006-.004-.004-.006-.007-.004-.003-.006-.007v-.003l-.004-.003-.003-.004-.003-.003V8.397l.013.006c.027.014.057.024.084.034l.027.01c.034.014.07.027.108.04l.013.004c.034.013.067.023.1.033l.031.01c.04.014.077.027.118.037.783.236 1.818.367 2.91.367 1.093 0 2.122-.128 2.905-.363.04-.014.08-.024.117-.037l.03-.01c.034-.01.068-.024.102-.034l.013-.003c.037-.014.07-.027.108-.04l.026-.01c.03-.01.058-.024.084-.034l.014-.007.003 1.95zm0-3.126l-.006.006-.004.004v.003l-.007.007-.003.003-.007.007-.003.003-.007.007-.003.003-.007.007-.003.003-.007.007-.007.003-.01.007-.006.003-.01.007-.007.004-.01.006-.007.007-.01.007-.01.006-.01.007-.01.007-.014.007-.01.006-.013.007-.01.007-.014.007-.013.006-.014.007-.013.007-.017.006-.017.007-.017.007-.016.007-.017.006-.017.01-.017.007-.02.01-.02.007-.02.01-.02.007-.024.01-.02.007-.024.01-.023.006-.027.01-.024.01-.027.01-.023.01-.027.01-.024.007-.03.01-.027.007-.033.01-.03.01-.034.01-.04.01-.027.007-.068.017c-.665.172-1.522.266-2.413.266-.89 0-1.748-.094-2.413-.266l-.068-.017-.027-.006-.04-.01-.034-.01-.03-.01-.033-.01-.027-.007-.03-.01-.024-.007-.027-.01-.023-.01-.027-.01-.024-.01-.027-.01-.023-.007-.024-.01-.02-.007-.024-.01-.02-.007-.02-.01-.02-.007-.02-.01-.017-.007-.017-.01-.017-.006-.016-.007-.017-.007-.017-.007-.017-.006-.013-.007-.014-.007-.013-.006-.014-.007-.013-.007-.014-.007-.01-.006-.013-.007-.01-.007-.014-.007-.01-.006-.01-.007-.007-.007-.01-.006-.006-.004-.01-.007-.007-.003-.01-.007-.004-.003-.006-.007-.004-.003-.006-.007-.004-.003-.006-.007-.004-.003-.007-.007-.003-.003-.007-.007v-.003l-.003-.004-.003-.003-.004-.003V5.267l.014.007.084.034.027.01.107.04.014.003c.033.014.067.024.1.034l.03.01c.041.013.078.027.118.037.784.235 1.819.366 2.911.366 1.093 0 2.125-.13 2.908-.366.04-.013.08-.024.118-.037l.03-.01c.033-.01.067-.024.1-.034l.014-.003c.037-.013.07-.027.108-.04l.027-.01c.03-.01.057-.024.084-.034l.013-.007-.007 1.957z" fill="#5CB615" fill-rule="nonzero"/></svg>