<svg width="24" height="24" xmlns="http://www.w3.org/2000/svg"><path d="M11.812.024C4.332.024.02 3.748.02 11.812s4.313 11.791 11.792 11.791 11.791-3.727 11.791-11.791S19.287.024 11.812.024zm-1.61 11.788c0 .259-.024.5-.064.73l3.173 1.586c.084-.111.175-.219.276-.313.5-.474 1.216-.726 2.067-.726.85 0 1.57.252 2.067.726.538.511.81 1.24.81 2.165 0 .887-.252 1.593-.75 2.1-.504.518-1.24.79-2.13.79-.891 0-1.627-.272-2.132-.79-.497-.507-.75-1.216-.75-2.1 0-.209.014-.407.044-.595L9.58 13.768c-.04.05-.084.1-.131.148-.504.518-1.24.79-2.131.79-.891 0-1.627-.272-2.131-.79-.498-.508-.75-1.217-.75-2.1 0-.925.272-1.655.81-2.166.5-.474 1.217-.726 2.067-.726.85 0 1.57.252 2.068.726.07.068.137.138.198.216l3.23-1.614a4.293 4.293 0 01-.044-.602c0-.924.273-1.653.81-2.164.501-.474 1.217-.726 2.068-.726.85 0 1.57.252 2.067.726.538.51.81 1.24.81 2.164 0 .888-.252 1.594-.75 2.101-.504.518-1.24.79-2.13.79-.891 0-1.628-.272-2.132-.79a2.872 2.872 0 01-.208-.245l-3.177 1.59c.058.222.078.46.078.716z" fill="#313235" fill-rule="nonzero"/></svg>