<svg width="24" height="24" xmlns="http://www.w3.org/2000/svg"><path d="M15.412 4.017c.558 0 1.008.45 1.008 1.008v.629c.09.023.178.054.266.084l.427-.427a1.008 1.008 0 011.425 0l.88.88a1.008 1.008 0 010 1.426l-.426.427c.03.087.057.174.084.265h.628c.558 0 1.009.45 1.009 1.009v1.243c0 .558-.45 1.009-1.009 1.009h-.628c-.024.09-.054.178-.084.265l.426.427c.095.098.172.212.222.336h1.409a2.579 2.579 0 012.578 2.578V17.6a2.579 2.579 0 01-2.578 2.578H2.579A2.579 2.579 0 010 17.6v-2.424a2.58 2.58 0 012.582-2.578h7.36a1.01 1.01 0 01.223-.336l.427-.427a6.13 6.13 0 01-.084-.265h-.629c-.558 0-1.008-.45-1.008-1.009V9.318c0-.558.45-1.009 1.008-1.009h.629c.023-.09.053-.178.084-.265l-.427-.427a1.008 1.008 0 010-1.425l.877-.881a1.008 1.008 0 011.425 0l.427.427a6.13 6.13 0 01.266-.084v-.629c0-.558.45-1.008 1.008-1.008zm4.201 12.746h-3.186a.713.713 0 000 1.425h3.186a.713.713 0 000-1.425zm-16.08.161a.548.548 0 100 1.096.548.548 0 000-1.096zm2.033 0a.548.548 0 100 1.096.548.548 0 000-1.096zm1.967 0a.548.548 0 100 1.096.548.548 0 000-1.096zm7.879-11.902h-1.244V6.48c-.581.06-1.079.215-1.492.464l-.925-.925-.877.877.924.925c-.242.403-.4.9-.464 1.492H9.876v1.244h1.458c.061.592.219 1.09.464 1.492l-.924.925.877.88.925-.924c.413.249.914.4 1.492.464v1.459h1.244l-.004-1.459c.582-.06 1.08-.215 1.493-.464l.924.924.88-.877-.923-.924c.242-.404.4-.901.463-1.493h1.46V9.318h-1.46c-.06-.592-.218-1.09-.463-1.493l.927-.928-.88-.877-.925.925c-.413-.25-.914-.4-1.492-.464V5.02zm-.622 3.17c1.106 0 1.744.55 1.744 1.744 0 1.193-.638 1.745-1.744 1.745-1.106 0-1.745-.552-1.745-1.745s.639-1.744 1.745-1.744z" fill="#313235" fill-rule="nonzero"/></svg>