<svg width="24" height="24" viewBox="0 0 24 24" xmlns="http://www.w3.org/2000/svg"><path d="M18.802 0c2.588 0 3.899 1.328 3.895 3.95v15.73c0 2.66-1.273 3.95-3.899 3.95h-8.622c-2.625 0-3.899-1.29-3.899-3.95v-3.882a1.01 1.01 0 01-.964-1.008v-.635c-.091-.024-.179-.054-.266-.084l-.427.426a1.008 1.008 0 01-1.425 0l-.88-.877a1.008 1.008 0 010-1.425l.426-.427a6.13 6.13 0 01-.084-.265H2.03c-.558 0-1.009-.45-1.009-1.009V9.25c0-.558.45-1.008 1.009-1.008h.632c.023-.09.053-.178.084-.266l-.427-.426a1.008 1.008 0 010-1.426l.88-.877a1.008 1.008 0 011.426 0l.426.427a6.13 6.13 0 01.266-.084V4.96a1.005 1.005 0 01.965-1.008c0-1.331.312-2.296.954-2.955C7.887.326 8.852 0 10.18 0zm-4.3 18.37c-.695 0-1.146.363-1.146 1.15 0 .376.105.658.29.846.201.205.493.303.857.303.363 0 .655-.098.857-.303.185-.188.289-.467.289-.847 0-.783-.45-1.15-1.146-1.15zM7.573 4.96H6.327v1.46c-.582.06-1.08.214-1.493.463l-.924-.924-.88.877.92.924c-.242.404-.4.901-.464 1.493H2.03v1.243h1.458c.064.592.219 1.09.464 1.493l-.924.924.88.878.925-.925c.413.249.914.4 1.492.464v1.459h1.244v-1.456c.582-.06 1.08-.215 1.493-.463l.924.924.877-.88-.924-.925c.242-.403.4-.9.464-1.493h1.459v-1.24H10.4c-.06-.591-.218-1.089-.463-1.492l.928-.928-.878-.877-.924.924c-.414-.249-.914-.4-1.493-.464V4.961zm-.626 3.17c1.106 0 1.745.551 1.745 1.745 0 1.193-.639 1.744-1.745 1.744s-1.744-.551-1.744-1.744c0-1.194.638-1.745 1.744-1.745z" fill="#5CB615" fill-rule="nonzero"/></svg>