<svg width="24" height="24" viewBox="0 0 24 24" xmlns="http://www.w3.org/2000/svg"><path d="M20.333 4.84c.76 0 1.375.663 1.375 1.483V7.63c0 .82-.616 1.483-1.375 1.483h-.457v.003H3.849v-.003h-.457c-.76 0-1.375-.663-1.375-1.483V6.32c0-.82.615-1.483 1.375-1.483H6.76v-.803a.51.51 0 01.134-.35l.75-.807a1.02 1.02 0 01-.266-.695c0-.263.094-.515.27-.7L8.725.32A.888.888 0 019.375.03c.242 0 .477.104.649.29l.655.709a1.044 1.044 0 010 1.395L9.6 3.584a.872.872 0 01-.649.288.896.896 0 01-.648-.289l-.014-.013-.615.662v.598h8.376v-.598l-.618-.669-.017.017a.872.872 0 01-1.297 0l-1.08-1.16a1.044 1.044 0 010-1.395l.66-.709a.882.882 0 01.648-.29c.242 0 .478.105.649.29l1.079 1.163a1.031 1.031 0 01.007 1.385l.756.813a.51.51 0 01.134.35v.803h3.362v.01zM3.849 10.266v-.363h16.027v.363c0 .816-.615 1.482-1.375 1.482h-1.385v.003H6.605v-.003H5.22c-.756 0-1.371-.666-1.371-1.482zm2.756 8.615v-6.343h10.511v6.343H6.605zm11.869.786c.76 0 1.375.662 1.375 1.483v1.028c0 .82-.615 1.483-1.375 1.483H5.247c-.76 0-1.375-.663-1.375-1.483V21.15c0-.81.602-1.466 1.348-1.48h12.252v-.003h1.002z" fill="#5CB615" fill-rule="nonzero"/></svg>