<svg width="24" height="24" viewBox="0 0 24 24" xmlns="http://www.w3.org/2000/svg"><path d="M18.723 9.513c-.168.003-.336 0-.505-.007.636-1.741.861-3.946.881-6.494v-.575c1.116.094 3.015.672 3.015 3.516 0 3.166-2.373 3.543-3.391 3.56m-13.819 0c-1.022-.014-3.395-.39-3.395-3.56 0-2.524 1.496-3.264 2.612-3.466v.29c.013 2.652.235 4.937.894 6.732-.037 0-.074.004-.11.004M19.102.75a.754.754 0 00-.757-.75H4.874a.75.75 0 00-.753.746v.232C2.013 1.25 0 2.658 0 5.953c0 3.674 2.521 5.018 4.88 5.052.142.003.28.003.42-.003.112 0 .266-.01.431-.027 1.042 1.637 2.713 2.608 5.328 2.733v4.094c-2.84.265-4.41 2.03-4.41 5.075 0 .414.34.747.756.747h8.817a.753.753 0 00.756-.747c0-3.042-1.57-4.806-4.41-5.075V13.69c2.578-.212 3.973-.995 4.945-2.757h.04c.259.034.625.068.766.071.084.003.175.003.273.003h.154c2.36-.033 4.88-1.381 4.88-5.052 0-3.502-2.275-4.874-4.52-5.011V.75h-.003z" fill="#313235" fill-rule="nonzero"/></svg>