<svg width="24" height="24" xmlns="http://www.w3.org/2000/svg"><path d="M6.41 17.476c1.106-.02 1.106-.753 1.106-1.106 0-.353 0-1.093-1.123-1.12h-.195c-1.075.01-1.075.72-1.075 1.106 0 .387 0 1.106 1.095 1.12h.192zm.017-3.577c.5.01 2.457.202 2.457 2.47 0 2.276-1.956 2.451-2.447 2.461h-.235c-.515-.006-2.444-.185-2.444-2.474 0-2.285 1.913-2.453 2.427-2.46h.054c.064 0 .13.003.188.003zm2.88-9.886c-1.489-.42-2.396-.991-2.635-1.647 0-.01 0-.01-.01-.02.239-.655 1.146-1.24 2.625-1.657C10.857.245 12.931 0 15.133 0c2.201 0 4.275.245 5.832.69 1.56.443 2.44 1.02 2.635 1.71 0 0-.01.01-.01.02-.262.635-1.156 1.183-2.612 1.593-1.57.444-3.633.69-5.832.69-2.205.003-4.269-.246-5.838-.69zm.105 6.646v-.703c0-2.574-1.96-2.9-2.804-2.92h-.02l-.306-.004c-1.025.01-2.75.4-2.75 2.9v.73l5.88-.003zm-7.64 9.805c.204.215.544.323 1.015.323l7.364-.004c.215.014.72-.027 1.012-.302.192-.182.286-.457.286-.844-.004-2.104 0-6.383 0-6.383.003-.057.027-.515-.26-.814-.207-.218-.554-.326-1.038-.326l-3.56.004-3.788.003H2.78c-.034 0-.067-.003-.118-.003-.201 0-.622.05-.874.285-.195.179-.285.458-.285.847v6.4c-.004.05-.02.511.268.814zm13.37-9.442c-1.532 0-2.984-.121-4.261-.34v.05c.571.112 1.042.35 1.398.734.155.164.266.342.353.514.81.07 1.647.117 2.51.117 2.313 0 4.505-.258 6.166-.732.94-.26 1.74-.626 2.35-1.066v4.78c-.287.508-1.137 1.173-2.683 1.617-1.56.44-3.634.689-5.836.689-.773 0-1.512-.044-2.228-.104v1.082a28.12 28.12 0 002.228.098c2.313 0 4.505-.26 6.165-.733.941-.26 1.741-.636 2.35-1.076v4.249c0 .84-.904 1.53-2.696 2.033-1.57.44-3.644.69-5.832.69-2.192 0-4.265-.25-5.845-.69-.723-.205-1.291-.44-1.725-.699l-4.776.004c-.898 0-1.604-.266-2.094-.794-.713-.76-.66-1.737-.652-1.848l-.004-6.35c0-1.012.417-1.603.767-1.923.403-.366.877-.53 1.27-.608v-.783c0-3.183 2.266-4.336 4.202-4.353l.32.003V3.966c.57.43 1.364.797 2.382 1.076 1.674.474 3.863.733 6.165.733 2.303 0 4.494-.259 6.165-.733.995-.279 1.775-.625 2.35-1.055v4.736c-.286.507-1.137 1.173-2.683 1.613-1.553.447-3.627.686-5.825.686z" fill="#313235" fill-rule="nonzero"/></svg>