<svg width="24" height="24" viewBox="0 0 24 24" xmlns="http://www.w3.org/2000/svg"><path d="M10.541 3.892c-1.358-.406-2.181-.96-2.4-1.596 0-.01 0-.01-.01-.02.219-.636 1.042-1.2 2.393-1.607C11.953.239 13.845 0 15.85 0c2.003 0 3.899.239 5.317.669 1.422.427 2.226.992 2.404 1.66 0 0-.01.01-.01.02-.242.616-1.056 1.147-2.384 1.543-1.431.427-3.314.67-5.317.67-2.004-.004-3.886-.243-5.318-.67zm3.217 7.752c.007-.387.013-.747.017-1.06l.003-.426c-1.422 0-2.32-.592-3.123-1.126C9.96 8.572 9.291 8.138 8.29 8v6.087h5.392c.033-.813.06-1.626.077-2.443zm-.346 5.459c.02-.115.037-.256.054-.387.023-.168.043-.346.063-.534.02-.206.044-.417.06-.643h-5.3v6.202a25.57 25.57 0 001.748-1.049l.064-.043a16.438 16.438 0 001.781-1.355l.081-.077c.168-.151.326-.306.48-.47.139-.152.263-.3.38-.451.027-.034.048-.064.071-.098.108-.144.209-.299.293-.46.11-.212.188-.424.225-.635zM6.837 14.09V8.017c-.945.154-1.587.571-2.255 1.015-.814.538-1.721 1.14-3.11 1.14H1.46c.007.9.03 2.44.1 3.919h5.278zm0 7.593v-6.145H1.644c.05.599.107 1.14.181 1.564.266 1.522 2.884 3.411 5.012 4.581zm9.025-11.002c-.218 0-.427-.01-.638-.016-.004.312-.007.662-.014 1.042.215.006.43.016.652.016 2.111 0 4.104-.252 5.62-.709.857-.252 1.59-.605 2.142-1.032v4.632c-.26.49-1.032 1.136-2.444 1.567-1.422.426-3.311.665-5.318.665-.32 0-.632-.013-.941-.027-.024.188-.05.37-.077.531a3.4 3.4 0 01-.138.504c.38.02.766.034 1.16.034 2.11 0 4.104-.249 5.62-.71.857-.248 1.59-.614 2.14-1.041v4.12c0 .818-.823 1.483-2.453 1.974-1.432.427-3.32.669-5.318.669-1.996 0-3.885-.239-5.327-.67l-.125-.04c-.796.501-1.623.959-2.474 1.365a.713.713 0 01-.618 0c-.656-.309-6.37-3.085-6.914-6.201C-.013 15.005 0 9.607 0 9.378a.725.725 0 01.897-.699c1.291.198 1.994-.266 2.881-.854.935-.618 1.997-1.32 3.835-1.32h.007c.158 0 .303.013.447.02V3.848c.521.417 1.244.773 2.175 1.042 1.526.457 3.52.709 5.62.709 2.101 0 4.094-.252 5.62-.71.911-.272 1.62-.604 2.142-1.024v4.588c-.26.49-1.032 1.14-2.444 1.566-1.422.434-3.314.659-5.318.662z" fill="#313235" fill-rule="nonzero"/></svg>