<svg width="24" height="24" viewBox="0 0 24 24" xmlns="http://www.w3.org/2000/svg"><path d="M7.788 19.18a.743.743 0 01-.74-.746v-4.827c0-.414.334-.746.74-.746.407 0 .74.336.74.746v4.827a.743.743 0 01-.74.746zm0 .42c.417 0 .753.34.753.76s-.336.76-.753.76a.755.755 0 01-.753-.76c0-.42.336-.76.753-.76zm3.513-2.672l-3.13-6.35-.326-.669-6.124 12.172 11.684.05h.464l-1.966-3.976-.602-1.227zm4.423-5.903c-2.043 0-3.97-.238-5.432-.679-.245-.08-.484-.168-.709-.259l.662 1.345c1.52.43 3.446.669 5.48.669 2.15 0 4.198-.259 5.737-.736.88-.26 1.62-.629 2.195-1.066v4.783c-.269.498-1.059 1.167-2.5 1.617-1.453.437-3.379.686-5.433.686-.917 0-1.798-.06-2.628-.158l.561 1.146c.672.05 1.365.09 2.064.09 2.151 0 4.198-.258 5.738-.735.88-.26 1.62-.629 2.195-1.076v4.256c0 .837-.85 1.526-2.511 2.033-1.462.437-3.398.69-5.432.69-.356 0-.713-.01-1.066-.031-.077.02-.168.03-.255.03h-.03l-13.173-.05c-.29-.03-.585-.111-.8-.33a1.112 1.112 0 01-.357-.816c0-.189.04-.39.128-.558L6.803 8.669c.128-.269.367-.487.663-.588.097-.03.198-.03.305-.04V3.972c.532.43 1.264.797 2.212 1.076 1.56.477 3.597.736 5.738.736 2.145 0 4.188-.259 5.738-.736.928-.28 1.66-.629 2.195-1.056V8.73c-.27.508-1.059 1.177-2.501 1.624-1.445.434-3.371.672-5.429.672zM7.845 2.363c0-.01 0-.01-.01-.02.229-.659 1.066-1.237 2.44-1.654 1.463-.447 3.399-.686 5.443-.686 2.053 0 3.98.239 5.432.686 1.452.44 2.272 1.019 2.45 1.704 0 0-.01.02-.01.03-.245.63-1.076 1.177-2.43 1.584-1.463.45-3.378.699-5.432.699-2.044 0-3.97-.249-5.432-.7-1.385-.42-2.222-.988-2.45-1.643z" fill="#5CB615" fill-rule="nonzero"/></svg>