<svg width="24" height="24" viewBox="0 0 24 24" xmlns="http://www.w3.org/2000/svg"><path d="M23.624 1.607A1.618 1.618 0 0022.014 0H12c-.484.11-.928.356-1.274.716L.723 10.709a1.863 1.863 0 00-.35 2.588l9.946 9.923c.263.262.622.407.995.397.108.01.219.01.33 0 .497-.121.944-.4 1.274-.793L22.91 12.9c.37-.356.615-.817.706-1.321V1.61h.007v-.003zm-7.886 3.97c.037-.505.272-.979.655-1.311.336-.39.817-.622 1.331-.646a1.982 1.982 0 011.362.666c.396.346.638.833.675 1.358-.03.504-.262.971-.645 1.3-.34.39-.824.626-1.341.656a1.978 1.978 0 01-1.362-.655 1.976 1.976 0 01-.675-1.342v-.027z" fill="#5CB615" fill-rule="nonzero"/></svg>