<svg width="24" height="24" viewBox="0 0 24 24" xmlns="http://www.w3.org/2000/svg"><path d="M11.654 19.963V8.387c0-.77-.162-1.308-.501-1.648-.34-.339-.88-.51-1.654-.51H3.687c-.76 0-1.29.171-1.643.52-.35.35-.511.888-.511 1.638v11.576c0 .77.161 1.321.51 1.66.34.33.881.501 1.644.501H9.5c.763 0 1.301-.171 1.644-.5.353-.34.51-.891.51-1.661zM14.79 0c5.71 0 8.867 3.15 8.867 8.857 0 5.698-3.156 8.837-8.867 8.837-.572 0-1.113-.04-1.634-.1v2.369c0 1.2-.309 2.087-.951 2.72-.632.628-1.523.94-2.706.94H3.687c-1.183 0-2.063-.309-2.705-.94-.643-.633-.952-1.52-.952-2.72V8.387c0-1.17.31-2.048.941-2.69.65-.648 1.533-.968 2.716-.968h2.945C7.859 1.65 10.662 0 14.79 0zm2.215 12.097a.754.754 0 001.062 0 .753.753 0 000-1.062l-2.279-2.272V5.697a.753.753 0 00-1.506 0v3.379c0 .198.081.39.222.53l2.501 2.491zM6.595 18.84c.615 0 .981.367.981.985 0 .303-.084.541-.255.716-.171.175-.424.27-.726.27-.303 0-.555-.095-.726-.27-.172-.175-.256-.413-.256-.716 0-.618.367-.985.982-.985z" fill="#313235" fill-rule="nonzero"/></svg>