<svg width="24" height="24" xmlns="http://www.w3.org/2000/svg"><path d="M23.541 6.403L16.987.185a.672.672 0 00-.46-.185H7.668C6.987 0 6.34.645 6.34 1.328v1.808c-.5-.312-1.015-.474-1.533-.484-.853-.017-1.707.38-2.537 1.173-.293.28-.568.662-.66.787l-.01.013c-.006.01-.013.017-.02.027-.763 1.106-.75 2.803.037 4.78.81 2.034 2.387 4.252 4.555 6.42l.007.007.064.067.006.007.165.161a.681.681 0 00-.074.303v5.906c0 .705.622 1.327 1.328 1.327h14.756c.706 0 1.328-.622 1.328-1.327V6.89a.672.672 0 00-.212-.488zm-1.455.47h-2.619c-.783 0-1.438-.244-1.899-.705-.46-.46-.706-1.12-.706-1.9V1.92l5.224 4.955zM2.869 8.939c-.605-1.513-.672-2.79-.185-3.51l.02-.03c.242-.336.404-.514.498-.601 1.116-1.066 2.003-1.07 3.059-.01.208.205.39.433.54.682l.01.02c.32.511.616 1.321-.5 2.434a3.274 3.274 0 01-.4.35 1.612 1.612 0 00-.077.07c-.229.249-.468.692-.29 1.385.095.373.3.786.63 1.264.47.689 1.172 1.485 2.275 2.588l.077.077c1.103 1.103 1.9 1.802 2.588 2.276.478.33.891.534 1.264.628.693.175 1.136-.06 1.385-.289a.506.506 0 00.07-.077 3.62 3.62 0 01.354-.4c1.112-1.113 1.922-.82 2.433-.5l.02.01c.25.15.481.332.683.54 1.059 1.06 1.055 1.943-.01 3.06a4.52 4.52 0 01-.602.497l-.03.02c-.723.487-2 .42-3.513-.185-2.353-.938-4.541-2.83-5.963-4.252l-.034-.034-.013-.013-.037-.034c-1.422-1.425-3.314-3.613-4.252-5.966z" fill="#313235" fill-rule="nonzero"/></svg>