<svg width="24" height="24" viewBox="0 0 24 24" xmlns="http://www.w3.org/2000/svg"><path d="M16.118 23.657h-.138a1.22 1.22 0 01-.417-.077 2.115 2.115 0 01-.908-.686 6.884 6.884 0 01-.581-.897l-.09-.199a20.725 20.725 0 01-.38-.964c-.317-.834-1.228-3.23-1.796-3.856-.568.625-1.475 3.025-1.791 3.856-.175.463-.29.76-.377.954l-.01.047-.087.162a6.797 6.797 0 01-.588.904 2.062 2.062 0 01-.86.662 1.28 1.28 0 01-.445.09h-.134a1.22 1.22 0 01-.417-.077 2.086 2.086 0 01-.904-.685 6.562 6.562 0 01-.508-.773l-.053-.091a23.951 23.951 0 01-1.688-3.684 25.496 25.496 0 01-.857-2.746c-.05-.192-.11-.44-.178-.71l-.034-.137c-1.23-2.142-2.1-4.266-2.591-6.313-.7-2.928-.094-5.385 1.704-6.91C3.018.641 4.417.113 5.926.036c1.553-.084 3.166.302 4.649 1.126.4.225.803.454 1.237.71.447-.26.847-.488 1.237-.707C14.53.343 16.148-.047 17.704.037c1.506.077 2.904.605 3.936 1.492 1.795 1.526 2.4 3.98 1.701 6.908-.49 2.047-1.365 4.168-2.591 6.313l-.03.117c-.068.28-.128.535-.186.74a25.01 25.01 0 01-.857 2.74 23.71 23.71 0 01-1.667 3.646l-.07.121a6.7 6.7 0 01-.515.78 2.062 2.062 0 01-.86.662c-.125.054-.27.101-.447.101z" fill="#5CB615" fill-rule="nonzero"/></svg>