<svg width="24" height="24" viewBox="0 0 24 24" xmlns="http://www.w3.org/2000/svg"><path d="M16.212.03c.275 0 .534.104.733.293l6.36 6.158c.134.13.211.292.261.464a.735.735 0 01.058.285v14.767c0 .9-.774 1.66-1.691 1.66H7.314c-.9 0-1.69-.776-1.69-1.66l.04-3.325h-2.76A2.913 2.913 0 010 15.762v-4.915a2.913 2.913 0 012.904-2.91h2.72V1.69c0-.87.806-1.66 1.69-1.66h8.898zm-1.093 9.365H2.904c-.8 0-1.449.652-1.449 1.452v4.914c0 .8.65 1.452 1.45 1.452h12.214c.8 0 1.45-.652 1.45-1.452v-4.914c0-.8-.65-1.452-1.45-1.452zm-8.944 1.987l1.852 2.504v-2.504h.783v3.909h-.716L6.3 12.918v2.373h-.783v-3.91h.659zm-1.348 0l-.067.645H3.079v.948h1.345v.669H3.079v.998h1.778v.645H2.188v-3.905h2.639zm7.472 0l-.067.645h-1.68v.948h1.344v.669H10.55v.998h1.778v.645H9.661v-3.905h2.638zm1.385 0l.777 1.29.709-1.29h.948l-1.281 1.912 1.247 1.993h-.988l-.777-1.324-.702 1.324h-.965l1.294-1.946-1.193-1.96h.931zm2.934-9.348V4.15c0 .79.26 1.456.747 1.93.497.48 1.196.732 2.03.732h2.158l-4.935-4.78z" fill="#313235" fill-rule="nonzero"/></svg>