<svg width="24" height="24" xmlns="http://www.w3.org/2000/svg"><path d="M16.242.03c.279 0 .541.104.736.3l6.356 6.15c.138.132.216.293.266.465a.735.735 0 01.057.285v14.767c0 .9-.773 1.66-1.69 1.66H7.346c-.897 0-1.69-.776-1.69-1.66l.04-3.328H2.934A2.913 2.913 0 01.03 15.758v-4.91a2.913 2.913 0 012.904-2.912h2.72V1.691c0-.87.803-1.66 1.69-1.66h8.898zm-1.49 9.368H2.939c-.8 0-1.449.652-1.449 1.452v4.911c0 .8.649 1.452 1.449 1.452h11.815c.8 0 1.449-.652 1.449-1.452v-4.91c0-.8-.65-1.453-1.45-1.453zM4.546 11.2c.709 0 1.156.097 1.448.37.246.225.363.575.363 1.059s-.11.847-.336 1.099c-.265.299-.675.437-1.27.437h-.726v1.56H2.992V11.2h1.553zm4.097 0c.71 0 1.156.097 1.449.37.245.225.363.575.363 1.059s-.111.847-.336 1.099c-.266.299-.676.437-1.27.437H8.12v1.56H7.089V11.2h1.553zm6.027 0l-.08.746H13.22v3.778h-1.032v-3.778h-1.401V11.2h3.882zm-10.165.75H4.02v1.442h.511v-.004c.33 0 .47-.047.602-.171.117-.118.178-.31.178-.575 0-.245-.054-.424-.172-.534-.124-.111-.315-.158-.635-.158zm4.098 0h-.484v1.442h.51v-.004c.33 0 .471-.047.602-.171.118-.118.178-.31.178-.575 0-.245-.053-.424-.171-.534-.124-.111-.316-.158-.635-.158zm8.047-9.916V4.15c0 .787.259 1.456.746 1.93.497.48 1.197.732 2.03.732h2.158l-4.934-4.78z" fill="#313235" fill-rule="nonzero"/></svg>