<svg width="24" height="24" xmlns="http://www.w3.org/2000/svg"><path d="M16.212 0c.279 0 .538.104.736.296l6.356 6.151c.135.135.212.296.262.467.037.091.058.185.058.283v14.766c0 .9-.774 1.66-1.691 1.66H7.318c-.901 0-1.691-.776-1.691-1.66l.04-3.328h-2.76A2.913 2.913 0 010 15.728v-4.911a2.91 2.91 0 012.904-2.911h2.72V1.66C5.624.79 6.43 0 7.314 0h8.898zm-1.493 9.361H2.904c-.8 0-1.449.65-1.449 1.452v4.915c0 .8.65 1.452 1.45 1.452h11.814c.8 0 1.45-.652 1.45-1.452v-4.915c0-.8-.65-1.452-1.45-1.452zm-6.09 1.627c.43 0 .897.064 1.24.182l-.155.753a4.34 4.34 0 00-1.065-.155c-.545 0-.72.195-.72.474 0 .87 2.266.272 2.266 2.007 0 .396-.138.712-.37.934-.312.293-.733.424-1.371.424-.565-.004-1.025-.074-1.472-.232l.154-.773c.39.137.901.222 1.227.222.598 0 .877-.155.877-.565 0-.83-2.265-.229-2.265-1.973 0-.901.709-1.298 1.654-1.298zm-3.98.084c.696 0 1.136.098 1.422.363.238.222.356.565.356 1.039s-.111.83-.333 1.079c-.259.292-.662.43-1.247.43h-.713v1.533H3.123v-4.444h1.526zm7.694 0c.844 0 1.402.131 1.771.501.357.35.538.9.538 1.7 0 .808-.175 1.366-.538 1.742-.332.336-.843.501-1.637.501h-1.506v-4.444h1.372zm-.044.74h-.312v2.961h.43c.454 0 .78-.138.954-.397.175-.258.236-.558.236-1.102 0-.635-.098-.935-.313-1.17-.202-.215-.5-.292-.995-.292zm-7.687-.004h-.478v1.416h.501v-.004c.326 0 .46-.047.592-.168.118-.118.175-.306.175-.565 0-.238-.05-.416-.168-.524-.125-.11-.313-.155-.622-.155zm12.003-9.805v2.118c0 .79.259 1.455.75 1.93.497.477 1.196.732 2.027.732h2.164l-4.94-4.78z" fill="#313235" fill-rule="nonzero"/></svg>