<svg width="24" height="24" xmlns="http://www.w3.org/2000/svg"><path d="M18.708 6.783l-4.864-4.78v2.118c0 .79.255 1.455.736 1.93.487.477 1.176.732 1.996.732h2.132zm1.983.128a.733.733 0 01.054.286v14.766c0 .9-.763 1.66-1.664 1.66H4.687c-.884 0-1.663-.776-1.663-1.66V1.661C3.024.79 3.817 0 4.687 0h8.76c.276 0 .531.104.726.3l6.256 6.15c.137.132.211.293.262.46zm-5.46 5.953l.408-1.183.598 1.183h-1.005zm-.396 1.166h1.217l-2.33 3.257 1.113-3.257zm-5.845 0l1.13 3.308-2.39-3.308h1.26zm.608-1.768l-.504-1.475h1.657l-1.153 1.475zm4.626.004l-1.174-1.48h1.681l-.507 1.48zm-3.63.598l1.307-1.667 1.32 1.667h-2.628zm3.024 1.166l-1.71 4.999L10.2 14.03h3.418zM8.18 11.657l.413 1.207H7.555l.625-1.207zm9.512 1.54c-.003-.007 0-.01-.003-.017l-1.637-3.23-.003-.014c-.004-.007-.01-.01-.014-.013a.541.541 0 00-.171-.189c-.024-.013-.044-.026-.067-.04-.024-.01-.044-.03-.068-.04-.05-.017-.104-.017-.154-.024-.014 0-.024-.01-.037-.01H8.29c-.014 0-.024.01-.037.01-.05.004-.101.004-.151.02-.024.01-.044.027-.064.04a.603.603 0 00-.232.215c-.007.011-.017.014-.024.024l-1.69 3.244c-.004.007 0 .014-.004.02a.58.58 0 00-.06.252l.003.024c0 .02.01.04.013.06.01.081.037.152.078.219.006.013.006.03.013.044l5.314 7.358h.004a.56.56 0 00.228.178c.07.033.148.057.232.057h.004c.08 0 .158-.024.228-.057.017-.01.034-.017.05-.027a.604.604 0 00.179-.155c.003 0 .003 0 .003-.003l5.267-7.358c.01-.014.007-.03.017-.044a.552.552 0 00.074-.208c.003-.024.014-.044.014-.067 0-.01.006-.017.006-.027a.7.7 0 00-.064-.242z" fill="#313235" fill-rule="nonzero"/></svg>