<svg width="24" height="24" xmlns="http://www.w3.org/2000/svg"><path d="M16.212 0c.275 0 .548.11.743.303l6.35 6.147c.134.128.211.29.261.46a.735.735 0 01.058.287v14.766c0 .9-.774 1.66-1.691 1.66H7.314c-.9 0-1.69-.776-1.69-1.66l.04-3.328H2.908A2.906 2.906 0 010 15.728v-4.915a2.91 2.91 0 012.904-2.91h2.72V1.66C5.624.79 6.43 0 7.314 0h8.898zm-1.493 9.361H2.904c-.8 0-1.449.652-1.449 1.452v4.915c0 .8.65 1.452 1.45 1.452h11.814c.8 0 1.45-.652 1.45-1.452v-4.915c0-.8-.65-1.452-1.45-1.452zm-1.448 1.694c.558 0 1.032.132 1.304.404.188.188.306.447.306.817 0 .46-.202.783-.589.978.468.168.747.517.747 1.096 0 .342-.105.642-.313.857-.292.306-.766.46-1.439.46a5.583 5.583 0 01-1.072-.107v-.7c.259.048.565.078.888.078.363 0 .578-.047.732-.148.155-.104.239-.272.239-.511 0-.232-.084-.39-.222-.487-.161-.118-.41-.155-.864-.155h-.124v-.649h.154c.407 0 .616-.05.774-.188.104-.09.174-.239.174-.454 0-.168-.047-.312-.148-.403-.13-.118-.35-.168-.699-.168-.285 0-.608.027-.867.064v-.686a5.16 5.16 0 011.019-.098zm-9.752.084l1.402 2.478 1.445-2.478h.777v4.434h-.925v-2.555l-.92 1.543H4.52l-.948-1.57v2.582h-.85V11.14h.796zm6.111 0c.693 0 1.133.098 1.419.364.238.221.356.564.356 1.038 0 .474-.11.83-.33 1.076-.258.292-.662.427-1.243.427h-.713v1.53H8.108v-4.435H9.63zm-.037.733H9.12v1.415h.501v-.003c.323 0 .46-.047.588-.168.118-.118.175-.306.175-.565 0-.238-.05-.413-.168-.524-.124-.111-.312-.155-.622-.155zm7.022-9.869v2.118c0 .787.259 1.455.75 1.93.497.48 1.196.732 2.027.732h2.164l-4.94-4.78z" fill="#313235" fill-rule="nonzero"/></svg>