<svg width="24" height="24" viewBox="0 0 24 24" xmlns="http://www.w3.org/2000/svg"><path d="M16.212.03c.279 0 .54.104.736.3l6.356 6.15c.135.132.212.293.262.465a.735.735 0 01.058.285v14.767c0 .9-.774 1.66-1.691 1.66H7.314c-.9 0-1.687-.776-1.687-1.66l.04-3.325h-2.76a2.913 2.913 0 01-2.904-2.91v-4.915a2.913 2.913 0 012.905-2.91h2.719V1.69c0-.87.807-1.66 1.687-1.66h8.898zm-1.493 9.365H2.904c-.8 0-1.449.652-1.449 1.452v4.914c0 .8.65 1.452 1.45 1.452h11.814c.8 0 1.45-.652 1.45-1.452v-4.914c0-.8-.65-1.452-1.45-1.452zm-8.558 1.879l1.597 4.42H6.679l-.37-1.112H4.874l-.343 1.112h-.965l1.483-4.42H6.16zm2.515 0L9.71 14.48l.965-3.207h.981l-1.469 4.42H9.136l-1.54-4.42h1.08zm4.561 0v4.42h-1.008v-4.42h1.008zM5.58 12.38h-.014l-.46 1.472h.958L5.58 12.38zM16.615 2.034V4.15c0 .79.259 1.456.746 1.93.498.48 1.197.732 2.03.732h2.158l-4.934-4.78z" fill="#313235" fill-rule="nonzero"/></svg>