<svg width="24" height="24" xmlns="http://www.w3.org/2000/svg"><path d="M7.14 5.118l-2.222 7.267H2.787c-.619-1.351-1.103-2.686-1.409-3.997-.612-2.595-.107-4.753 1.412-6.074.884-.766 2.087-1.227 3.388-1.294a6.04 6.04 0 01.346-.01c1.264 0 2.555.353 3.765 1.032.447.252.911.521 1.415.824a.34.34 0 00.326.003c.504-.303.968-.572 1.419-.827 1.206-.676 2.5-1.032 3.761-1.032.118 0 .232.003.35.01 1.3.067 2.504.528 3.388 1.294 1.523 1.321 2.023 3.48 1.412 6.074-.316 1.345-.817 2.716-1.463 4.104h-3.889L15.513 8.17a.734.734 0 00-.693-.498h-.02a.737.737 0 00-.686.535l-1.243 4.282h-1.227a.731.731 0 00-.703.528l-.507 1.68-1.876-9.505a.733.733 0 00-.682-.595.724.724 0 00-.737.52zm8.655 8.363c.1.295.38.497.692.497h3.671c-.326.602-.672 1.19-1.035 1.765-1.257 1.976-2.262 3.254-3.967 5.035a.517.517 0 01-.04.044c-.168.175-.753.773-1.25 1.136a3.72 3.72 0 01-1.392.635 2.581 2.581 0 01-.437.064h-.02c-.044.004-.088.004-.131.004h-.04c-.048 0-.088-.004-.128-.004h-.02a2.404 2.404 0 01-.437-.064 3.72 3.72 0 01-1.392-.635c-.498-.36-1.082-.961-1.25-1.136-1.732-1.805-2.743-3.09-4.007-5.08a28.924 28.924 0 01-1.1-1.868H5.46a.738.738 0 00.702-.524l1.526-4.995 1.88 9.529a.731.731 0 001.422.07l1.2-3.98h1.23c.329 0 .615-.218.705-.534l.753-2.598.918 2.639zM.736 12.385h2.05l.73 1.489H.736A.74.74 0 010 13.128c0-.41.33-.743.736-.743zm22.151.104a.74.74 0 01.737.743.735.735 0 01-.737.743h-2.729l.74-1.49c0 .004 1.99.004 1.99.004z" fill="#313235" fill-rule="nonzero"/></svg>