<svg width="24" height="24" viewBox="0 0 24 24" xmlns="http://www.w3.org/2000/svg"><path d="M16.017 4.965H7.603V2.79c0-.508.111-.874.333-1.08.28-.255.682-.231.753-.228l6.225-.003c.36 0 .619.087.794.272.282.3.319.827.309 1.052v2.162zm-1.019 13.048a.722.722 0 11-1.445 0v-7.395a.722.722 0 111.445 0v7.395zm-4.93 0a.722.722 0 11-1.446 0v-7.395a.722.722 0 111.445 0v7.395zM22.9 4.965h-5.442V2.85c.01-.127.064-1.27-.693-2.08-.312-.336-.887-.736-1.852-.736L8.76.04C8.655.024 7.72-.044 6.978.632c-.541.49-.817 1.217-.817 2.158v2.175H.723a.722.722 0 100 1.445H2.47l.003 13.304c-.003.068-.1 1.678.978 2.83.69.737 1.67 1.113 2.914 1.113h10.85c.008 0 .034.004.078.004.35 0 1.748-.064 2.773-1.046.723-.692 1.09-1.657 1.09-2.867V6.41h1.747a.724.724 0 00.723-.723.729.729 0 00-.726-.722z" fill="#5CB615" fill-rule="nonzero"/></svg>