<svg width="24" height="24" xmlns="http://www.w3.org/2000/svg"><path d="M12.306.013c2.312.054 11.318.969 11.318 11.832 0 10.884-9.016 11.731-11.271 11.772-.212.007-.454.007-.696.007-.128 0-.259 0-.383-.004C8.9 23.587.004 22.73.004 11.775.003.837 8.82.024 11.19.003c.07 0 .138-.003.212-.003.306 0 .628.007.904.013zm5.825 13.523h-3.865a.74.74 0 00-.74.74l.01 3.862c0 .181-.124.302-.165.31h-3.089c-.043-.011-.168-.129-.168-.31v-3.866a.74.74 0 00-.74-.74H5.51c-.188 0-.306-.124-.312-.164V10.29c.01-.044.127-.168.312-.168h3.866a.74.74 0 00.74-.74V5.517c0-.168.12-.306.164-.32l3.069-.003c.054.017.178.155.178.323v3.862c0 .407.33.74.74.74h3.865c.161 0 .3.117.32.174l.003 3.066c-.017.054-.155.178-.323.178zm0-4.894h-3.13V5.526c0-.958-.766-1.795-1.64-1.795H10.28c-.89 0-1.64.824-1.64 1.795v3.126H5.513c-.972 0-1.789.75-1.789 1.64v3.083c0 .887.817 1.64 1.789 1.64h3.126v3.126c0 .968.753 1.785 1.64 1.785h3.092c.891 0 1.64-.817 1.64-1.788l-.006-3.123h3.126c.958 0 1.798-.766 1.798-1.64v-3.093c0-.874-.84-1.64-1.798-1.64z" fill="#313235" fill-rule="nonzero"/></svg>