<svg width="24" height="24" xmlns="http://www.w3.org/2000/svg"><path d="M20.686 3.768c0 .323.02 7.94-.538 11.234-.746 4.332-9.136 8.383-9.493 8.55a.721.721 0 01-.611 0c-.357-.17-8.736-4.22-9.483-8.554C-.01 11.704.011 4.088.013 3.765a.714.714 0 01.887-.7c1.937.306 2.959-.383 4.253-1.25C6.427.968 7.869 0 10.346 0h.007c2.477.003 3.916.968 5.19 1.822 1.294.867 2.32 1.553 4.279 1.244a.744.744 0 01.854.611l.01.091zM8.565 14.071l-2.407-2.434a.71.71 0 00-1.002-.01l-.01.01a.728.728 0 000 1.022l2.915 2.948a.711.711 0 001.005.003l.003-.003 6.487-6.562a.728.728 0 000-1.021.71.71 0 00-1.001-.01l-.01.01c-.004-.004-5.98 6.047-5.98 6.047z" fill="#313235" fill-rule="nonzero"/></svg>