<svg width="24" height="24" viewBox="0 0 24 24" xmlns="http://www.w3.org/2000/svg"><path d="M22.323 3.768c0 .323.02 7.94-.538 11.234-.746 4.332-9.136 8.383-9.492 8.55a.721.721 0 01-.612 0c-.356-.17-8.736-4.22-9.482-8.554-.572-3.294-.551-10.91-.548-11.233a.714.714 0 01.887-.7c1.936.306 2.958-.383 4.252-1.25C8.064.968 9.506 0 11.984 0h.006c2.478.003 3.916.968 5.19 1.822 1.294.867 2.32 1.553 4.28 1.244a.744.744 0 01.853.611l.01.091zm-12.12 10.303l-2.408-2.434a.71.71 0 00-1.001-.01l-.01.01a.728.728 0 000 1.022l2.914 2.948a.711.711 0 001.005.003l.003-.003 6.488-6.562a.728.728 0 000-1.021.71.71 0 00-1.002-.01l-.01.01c-.003-.004-5.98 6.047-5.98 6.047z" fill="#313235" fill-rule="nonzero"/></svg>