<svg width="24" height="24" viewBox="0 0 24 24" xmlns="http://www.w3.org/2000/svg"><path d="M11.808 0c7.463 0 11.816 3.768 11.816 11.815S19.27 23.624 11.808 23.624C4.346 23.624 0 19.862 0 11.815 0 3.768 4.346 0 11.808 0zM18 13.936c-.024.024-2.313 2.49-6.148 2.531-.037 0-3.882.138-6.225-2.484a.736.736 0 10-1.1.982c2.508 2.806 6.297 2.978 7.18 2.978.105 0 .169-.004.185-.004 4.481-.05 7.096-2.897 7.204-3.018A.737.737 0 0018 13.936zm-9.771-3.865c.426 0 .783-.135 1.032-.387.245-.249.366-.592.366-1.015 0-.867-.538-1.405-1.398-1.405-.864 0-1.399.538-1.399 1.405 0 .423.125.766.367 1.015.248.249.605.387 1.032.387zm7.166 0c.427 0 .783-.135 1.032-.39.242-.25.366-.592.366-1.015 0-.868-.538-1.405-1.398-1.405-.864 0-1.398.537-1.398 1.405 0 .423.124.766.37 1.015.245.252.601.39 1.028.39z" fill="#5CB615" fill-rule="nonzero"/></svg>