<svg width="24" height="24" viewBox="0 0 24 24" xmlns="http://www.w3.org/2000/svg"><path d="M22.165 6.773l-4.057-.01V1.489h3.825c.067.02.232.215.232.437v4.847zm0 7.99l-8.68-.05V8.326c0-.03-.01-.06-.01-.08l8.69.02v6.497zm0 6.934c0 .25-.155.427-.205.437h-3.852v-5.902l4.057.02v5.445zm-5.52.437h-6.427c.02-.02.048-.04.068-.06a4.553 4.553 0 001.479-3.21 4.566 4.566 0 00-.74-2.672l5.624.03-.004 5.912zM7.735 8.948a.31.31 0 00-.051-.33.288.288 0 00-.313-.107c-1.243.3-2.51.934-3.62 1.778V8.212l8.29.02c0 .03-.02.06-.02.09v6.387l-1.645-.01h-.79l-.144-.117c-3.1-2.293-1.765-5.493-1.708-5.634zm-3.98-7.022c0-.218.164-.417.205-.437h3.553v5.247l-3.755-.01v-4.8h-.003zm5.213-.437h7.677v5.264l-7.677-.02V1.489zM21.96 0h-18c-.874 0-1.664.914-1.664 1.926v9.694c-2.901 3.277-2.763 7.677-1.187 9.714.79 1.016 1.91 1.728 3.143 2.088a2.75 2.75 0 01-.575-.447c-.964-.965-1.011-2.525-.127-3.567.164-.178.34-.346.534-.497 1.197-.955.662-2.313.662-2.326a.494.494 0 01.078-.498.489.489 0 01.467-.15c.672.177 1.351.557 1.936 1.071 1.284 1.143 2.306 3.826 1.042 5.574-.34.467-.807.823-1.335 1.035h15.022c.894 0 1.664-.888 1.664-1.926V1.926C23.624.924 22.827 0 21.96 0z" fill="#313235" fill-rule="nonzero"/></svg>