<svg width="24" height="24" viewBox="0 0 24 24" xmlns="http://www.w3.org/2000/svg"><path d="M11.792.013c.181 0 .36.034.527.101.521.212.84.723.834 1.328l.003 4.38c.014.023.027.047.047.067l8.26.024c.739-.01 1.283.174 1.66.56.376.388.55.932.53 1.672v7.25c.01.504-.036 1.23-.524 1.734-.487.505-1.21.579-1.71.585h-.01l-8.054-.003a.543.543 0 00-.189.064l.007 4.275v.004c-.007 1.028-.497 1.378-.79 1.496-.5.201-1.079.016-1.586-.505L.407 12.592c-.104-.101-.404-.397-.4-.827 0-.182.06-.454.33-.713L10.51.605c.363-.383.83-.592 1.28-.592z" fill="#5CB615" fill-rule="nonzero"/></svg>