<svg width="24" height="24" viewBox="0 0 24 24" xmlns="http://www.w3.org/2000/svg"><path d="M.024 11.896c0-.182.033-.36.1-.528.212-.52.723-.84 1.328-.834l4.38-.003a.303.303 0 00.067-.047l.024-8.259c-.01-.74.174-1.284.561-1.66.387-.377.934-.555 1.67-.531h7.251c.504-.01 1.23.037 1.734.524.505.487.579 1.21.585 1.71v.011l-.003 8.054c.01.067.03.128.064.188l4.276-.007h.006c1.029.007 1.378.498 1.496.79.202.501.017 1.08-.504 1.587L12.605 23.28c-.1.104-.397.403-.827.4-.181 0-.454-.06-.712-.33L.616 13.176c-.384-.366-.592-.83-.592-1.28z" fill="#5CB615" fill-rule="nonzero"/></svg>