<svg width="24" height="24" xmlns="http://www.w3.org/2000/svg"><path d="M22.326 14.457v.027c-.007.474-.235.934-.672 1.371l-6.03 6.054-.02.02c-.417.384-.851.528-1.295.434-.403-.087-.726-.363-.988-.625l-.017-.017-5.771-6.134-3.096 3.095-.01.01c-.397.38-1.072.491-1.607.263-.497-.212-.793-.68-.793-1.247V3.197a1.082 1.082 0 01.306-.86c.222-.223.528-.33.86-.303l14.575.006a1.21 1.21 0 011.146.736c.246.548.135 1.258-.259 1.688l-.016.02-2.857 2.854 5.885 5.748.007.006c.434.427.652.888.652 1.365z" fill="#313235" fill-rule="nonzero"/></svg>