<svg width="24" height="24" viewBox="0 0 24 24" xmlns="http://www.w3.org/2000/svg"><path d="M21.076 13.96h-.06c-.135-.004-.636-.05-.636-.66 0-.608.497-.651.628-.651h.064c.131.003.636.054.636.659.003.601-.505.648-.632.652m.679-3.153V8.719c0-2.763-2.007-3.795-3.731-3.835-.098 0-.212 0-.32-.003C15.994 4.894 14 5.903 14 8.719l.003 9.863c0 3.176-2.416 3.566-3.458 3.583-.111.003-.25.003-.374.003-1.038-.017-3.452-.397-3.452-3.613v-2.229h.323c.343 0 .632-.302.632-.659v-1.422c2.692-.648 4.155-2.877 4.155-6.453a.488.488 0 00-.491-.484h-.148V3.29c.003-.162.03-1.594-.797-2.437A1.992 1.992 0 008.938.259c-.014 0-.024.007-.04.007C8.665.026 8.332 0 8.207 0h-.094c-.191.003-.94.077-.94.971 0 .895.749.965.937.968h.09c.118-.003.428-.03.66-.242.026.004.05.017.077.017.171 0 .289.044.393.148.336.34.39 1.13.383 1.402V7.31a.487.487 0 00-.467.48c0 2.427-1.486 4.33-3.385 4.33-1.879 0-3.244-1.822-3.244-4.33a.483.483 0 00-.433-.473V3.244c-.007-.249.05-1.039.383-1.378a.505.505 0 01.393-.152c.027 0 .05-.013.078-.017.232.212.537.24.655.242h.09c.19-.003.939-.073.939-.968 0-.894-.75-.968-.945-.971h-.094c-.124.003-.457.027-.689.266-.013 0-.027-.007-.04-.007-.572 0-1.073.205-1.456.595-.817.843-.793 2.279-.79 2.413v4.04H.491A.486.486 0 000 7.793c0 3.637 1.513 5.882 4.296 6.484v1.388c0 .36.289.659.632.659h.316v2.232c0 3.687 2.534 5.035 4.907 5.069h.158c.094 0 .188 0 .266-.004 2.262-.04 4.904-1.385 4.904-5.038V8.787l-.003-.088c0-2.04 1.405-2.356 2.245-2.363l.272.003c.854.02 2.29.36 2.29 2.38v2.064c-.774.158-1.893.7-1.893 2.514 0 2.4 1.973 2.589 2.497 2.595h.088c.054 0 .104 0 .151-.003.498-.007 2.498-.195 2.498-2.578 0-1.761-1.093-2.326-1.87-2.504" fill="#313235" fill-rule="nonzero"/></svg>