<svg width="24" height="24" xmlns="http://www.w3.org/2000/svg"><path d="M22.9 17.158c.4 0 .724.326.724.73 0 .403-.323.729-.723.729H12.23a1.439 1.439 0 01-.88.541c-.894.161-2.154.504-3.059 1.224a1.66 1.66 0 01-1.031.363 1.66 1.66 0 01-1.032-.363c-.905-.72-2.162-1.063-3.06-1.224a1.462 1.462 0 01-1.2-1.445v-1.389l4.28 1.926a2.312 2.312 0 001.9 0l4.399-1.976 1.428-.642a2.356 2.356 0 001.385-2.151c0-.942-.527-1.768-1.385-2.152L8.145 8.708a2.3 2.3 0 00-.948-.205c-.33 0-.646.067-.952.201l-3.425 1.54V6.533c0-1.103.296-1.97.874-2.565.598-.618 1.48-.931 2.619-.931l13.744-.007c1.14 0 2.02.316 2.619.931.581.599.874 1.463.874 2.565v6.524c0 1.106-.293 1.974-.874 2.579-.602.628-1.483.947-2.622.947l-7.516.004v.578H22.9zm-15.7.326c-.192 0-.38-.04-.558-.121L.813 14.741c-.5-.228-.813-.71-.813-1.264 0-.55.31-1.035.81-1.26l5.832-2.625c.353-.158.76-.158 1.113 0l5.832 2.621c.5.226.813.71.813 1.264 0 .545-.32 1.042-.813 1.26L7.755 17.36a1.284 1.284 0 01-.555.124z" fill="#313235" fill-rule="nonzero"/></svg>