<svg width="24" height="24" xmlns="http://www.w3.org/2000/svg"><path d="M19.733 11.018a11.306 11.306 0 00-1.708-1.485C13.095 5.946 15.208.94 15.3.729a.507.507 0 00-.07-.517.488.488 0 00-.495-.165c-2.211.524-4.484 1.674-6.396 3.237-6.323 5.17-6.336 13.26-3.56 16.79 1.247 1.587 3.029 2.706 4.988 3.27a4.818 4.818 0 01-.907-.695c-1.53-1.506-1.614-3.953-.195-5.577.249-.285.531-.548.84-.783 1.903-1.486 1.062-3.607 1.052-3.627a.74.74 0 01.125-.77.756.756 0 01.743-.235c1.065.272 2.158.86 3.072 1.664 2.047 1.795 3.667 5.976 1.664 8.71a4.864 4.864 0 01-2.128 1.626c.269-.04.538-.074.807-.138.097-.013 2.413-.35 4.524-2.285 1.442-1.321 2.276-3.106 2.346-5.022.067-1.916-.635-3.762-1.976-5.194" fill="#313235" fill-rule="nonzero"/></svg>