<svg width="24" height="24" viewBox="0 0 24 24" xmlns="http://www.w3.org/2000/svg"><path d="M0 7.351c0-.887.686-1.603 1.536-1.603h.313v12.269h-.313C.69 18.017 0 17.297 0 16.413V7.351zm22.087-1.606c.847 0 1.537.719 1.537 1.603v9.059c0 .887-.69 1.603-1.537 1.603h-.289V5.741h.29v.004zM7.254 5.61v3.378h.017v5.785h-.017v3.378c0 .888-.686 1.604-1.536 1.604H4.4c-.83 0-1.506-.693-1.53-1.553V5.563c.024-.864.7-1.556 1.53-1.556h1.318c.847-.004 1.536.716 1.536 1.603zm1.038 8.693V9.455h7.073v4.848H8.292zM20.773 5.61v.135h.003v12.268h-.003v.135c0 .887-.689 1.603-1.536 1.603h-1.318c-.847 0-1.536-.72-1.536-1.603V5.61c0-.887.686-1.603 1.536-1.603h1.318c.85-.004 1.536.716 1.536 1.603z" fill="#5CB615" fill-rule="nonzero"/></svg>