<svg width="24" height="24" viewBox="0 0 24 24" xmlns="http://www.w3.org/2000/svg"><path d="M17.25 20.284c-1.509 0-2.275-.763-2.275-2.269 0-1.506.766-2.269 2.275-2.269 1.51 0 2.276.763 2.276 2.27 0 1.505-.766 2.268-2.276 2.268m-11.405 0c-1.509 0-2.275-.763-2.275-2.269 0-1.506.766-2.269 2.275-2.269 1.51 0 2.276.763 2.276 2.27 0 1.505-.766 2.268-2.276 2.268m16.847-9.506a551.557 551.557 0 01-4-5.31c-.547-.764-1.526-1.255-2.487-1.255h-5.163a.72.72 0 00-.723.72v5.71L5.281 3.35a.725.725 0 00-.592-.313l-1.731-.013h-.007c-.067 0-.124.03-.188.047-.054.01-.108.02-.158.04-.003.003-.007.007-.013.01a.718.718 0 00-.41.642l-.01 5.035c.003.05-.01.276-.101.373-.04.044-.121.064-.24.064-.113-.033-.21-.01-.265-.067-.077-.084-.1-.296-.09-.407a.725.725 0 00-1.439-.168c-.01.094-.09.935.45 1.536.226.253.64.548 1.338.548h.017c.666-.003 1.072-.292 1.29-.53.529-.572.488-1.365.481-1.4l.004-2.026 2.117 4.262H.75a.72.72 0 00-.723.72v5.28c0 .69.302 1.385.834 1.913a2.81 2.81 0 001.57.783c.534 1.294 1.737 2.05 3.408 2.05 1.65 0 2.84-.742 3.385-2.003h4.631c.545 1.264 1.735 2.003 3.385 2.003 1.65 0 2.84-.742 3.385-2.003h.27c.688 0 1.39-.302 1.918-.83.532-.528.834-1.227.834-1.913v-4.01c.01-.948-.618-1.761-.955-2.195" fill="#313235" fill-rule="nonzero"/></svg>