<svg width="24" height="24" viewBox="0 0 24 24" xmlns="http://www.w3.org/2000/svg"><path d="M22.05 7.079c.108-.108.132-.32.132-.484 0-.161-.024-.38-.132-.484-.104-.108-.305-.128-.46-.128h-8.286c-.151 0-.353.02-.46.128-.105.104-.128.323-.128.484 0 .165.023.38.128.484.104.104.309.124.46.124h8.286c.124 0 .35-.016.46-.124zm1.022-2.074c.27.266.585.76.585 1.59 0 .837-.316 1.328-.585 1.59a1.712 1.712 0 01-.39.286c-.033.655-.104 2.228-.285 6.084-.111 2.346-.205 4.447-.209 4.537-.017 2.047-.37 4.017-2.585 4.508a.846.846 0 01-.201.024h-3.624c.89-.542 1.15-1.453 1.439-2.495l.033-.12c.434-.142.814-.36 1.123-.666.595-.595.9-1.435.9-2.501 0-1.066-.302-1.906-.897-2.5a2.777 2.777 0 00-.746-.512c-.027-.161-.067-.302-.094-.454-.181-.94-.45-1.737-.817-2.393-.85-1.526-2.208-2.299-4.208-2.299h-.256l-.047-1.21a1.79 1.79 0 01-.39-.286c-.265-.265-.581-.753-.581-1.586 0-.83.316-1.321.578-1.587.256-.255.72-.558 1.486-.558h2.326V1.892c0-1.038.817-1.885 1.815-1.885 1.002 0 1.815.843 1.815 1.885v2.565s2-.017 2.659.007l.148.01c.494.07.813.333 1.008.531zm-9.156 9.704h1.089c-.222-1.079-.598-1.791-1.17-2.232-.393-.302-.887-.474-1.499-.534a5.002 5.002 0 00-.52-.03c-.034 0-.068.003-.102.006-.11 0-.215.004-.322.014l-4.629.003a6.069 6.069 0 00-.89-.003h-.091a.671.671 0 01-.088.017c-1.23.137-2.148.682-2.591 2.76h10.813zm.514 6.726c.067-.144.125-.322.192-.544H3.516c.346.995.669 1.22 1.879 1.22.158 0 1.163-.01 1.324-.017l4.626-.003c.137.006.252.01.366.01.185.003.356.003.528-.01l.86-.017.28-.003c.614-.064.86-.199 1.051-.636zM2.652 17.728c.585.605 1.217.91 1.882.91h.044c.649-.013 1.27-.322 1.839-.91.45-.467.722-.965.827-1.486H1.822c.104.521.383 1.019.83 1.486zm13.55 3.011l-.03.111c-.125.45-.25.878-.427 1.26a2.696 2.696 0 01-.306.502 2.31 2.31 0 01-.394.396 2.279 2.279 0 01-.649.373c-.265.101-.557.199-.924.219-.296.02-1.176.024-1.176.024h-.615l-.38-.004-4.531.004H5.392c-2.474 0-2.989-1.237-3.476-2.878a2.59 2.59 0 01-1.055-.622c-.552-.55-.83-1.327-.83-2.312 0-.985.278-1.762.826-2.313.198-.202.437-.35.693-.477.282-1.872 1.032-4.172 3.808-4.575a.664.664 0 01.245-.047h.212c.232-.02.659-.024.998.003l4.521-.003c.091-.007.229-.013.374-.017.033 0 .063-.003.1-.003.165 0 .31.023.464.033.326.02.629.071.918.135a3.56 3.56 0 011.896 1.029c.211.215.393.47.564.75.108.177.205.369.296.574.05.114.094.238.141.36.058.157.115.319.165.49.03.104.064.212.094.326.074.3.141.609.195.945.256.124.494.275.693.474.124.124.228.262.322.41.333.504.505 1.14.505 1.902 0 .985-.28 1.765-.83 2.313a2.457 2.457 0 01-1.03.618z" fill="#313235" fill-rule="nonzero"/></svg>