<svg width="24" height="24" xmlns="http://www.w3.org/2000/svg"><path d="M11.98 3.95c1.307 0 2.12.816 2.12 2.127v2.857c.223-.06.451-.09.68-.087.995 0 1.69.494 1.933 1.331.248-.08.51-.117.773-.117 1.001 0 1.697.5 1.936 1.344.249-.077.507-.118.77-.114 1.25 0 2.023.776 2.023 2.03v6.884c0 .958-.269 1.718-.803 2.266-.535.547-1.375.853-2.35.853h-7.738c-.776 0-1.119-.732-1.263-1.042-.138-.299-.632-1.29-1.2-2.437-.915-1.842-2.054-4.134-2.73-5.56-.397-.84-.239-1.714.407-2.228.669-.534 1.627-.52 2.326.034.363.289.665.685 1.002 1.254V6.034c.084-1.325.857-2.084 2.114-2.084zM3.459 7.896c.877 0 1.449.46 1.449 1.455 0 .478-.132.834-.367 1.073-.252.262-.625.386-1.082.386-.457 0-.83-.128-1.083-.386-.235-.24-.366-.595-.366-1.073 0-.991.572-1.455 1.449-1.455zm4.262 0c.88 0 1.449.46 1.449 1.455 0 .478-.131.834-.367 1.073-.252.262-.625.386-1.082.386-.457 0-.83-.128-1.082-.386-.236-.24-.367-.595-.367-1.073 0-.991.572-1.455 1.449-1.455zM3.459 3.963c.877 0 1.449.46 1.449 1.455 0 .478-.132.834-.367 1.073-.252.259-.625.383-1.082.383-.457 0-.83-.124-1.083-.383-.235-.239-.366-.595-.366-1.073 0-.991.572-1.455 1.449-1.455zm4.262 0c.88 0 1.449.46 1.449 1.455 0 .478-.131.834-.367 1.073-.252.259-.625.383-1.082.383-.457 0-.83-.124-1.082-.383-.236-.239-.367-.595-.367-1.073 0-.991.572-1.455 1.449-1.455zM3.459.03c.877 0 1.449.46 1.449 1.456 0 .477-.132.833-.367 1.072-.252.259-.625.383-1.082.383-.457 0-.83-.124-1.083-.383-.235-.242-.366-.595-.366-1.072C2.01.49 2.582.03 3.46.03zm4.262 0c.88 0 1.449.46 1.449 1.456 0 .477-.131.833-.367 1.072-.252.259-.625.383-1.082.383-.457 0-.83-.124-1.082-.383-.236-.242-.367-.595-.367-1.072C6.272.49 6.844.03 7.721.03zm4.259 0c.877 0 1.449.46 1.449 1.456 0 .477-.132.833-.367 1.072-.252.259-.625.383-1.082.383-.457 0-.83-.124-1.083-.383-.235-.242-.366-.595-.366-1.072 0-.995.572-1.456 1.449-1.456z" fill="#313235" fill-rule="nonzero"/></svg>