<svg width="24" height="24" xmlns="http://www.w3.org/2000/svg"><path d="M7.6 3.536v1.916h8.427V3.536a.524.524 0 00-.272-.064h-7.88a.498.498 0 00-.275.064zm14.276 1.916c.964 0 1.748.773 1.748 1.728V20.96c0 .952-.784 1.725-1.748 1.725H1.748A1.737 1.737 0 010 20.96V7.18a1.74 1.74 0 011.748-1.728H6.12V3.46c0-.807.766-1.442 1.748-1.442h7.879c.981 0 1.751.635 1.751 1.442v1.993h4.377zm-5.647 6.41h-2.185V9.711c0-.662-.541-1.244-1.157-1.244h-2.16c-.616 0-1.154.582-1.154 1.244v2.155H7.392c-.686 0-1.26.52-1.26 1.139v2.131c0 .619.577 1.14 1.263 1.14H9.58v2.15c0 .677.528 1.245 1.153 1.245h2.164c.626 0 1.153-.572 1.153-1.247v-2.155h2.182c.672 0 1.26-.531 1.26-1.14V13c0-.606-.591-1.137-1.263-1.137z" fill="#313235" fill-rule="nonzero"/></svg>