<svg width="24" height="24" viewBox="0 0 24 24" xmlns="http://www.w3.org/2000/svg"><path d="M12.632 16.69c.003.4-.33.728-.736.728h-.004a.732.732 0 01-.74-.722l-.046-8.47c.252.006.49.033.753.033.252 0 .484-.024.73-.03l.043 8.46zM23.55 3.152a.688.688 0 00.107-.417.682.682 0 00-.32-.591.741.741 0 00-.917.097c-.037.034-.08.064-.11.108-.653.971-1.486 1.768-2.465 2.423-2.003 1.338-4.665 2.03-7.99 2.03-2.662 0-4.93-.437-6.746-1.297A9.17 9.17 0 011.9 2.998c-.175-.215-.353-.427-.507-.659a.814.814 0 00-.165-.157.742.742 0 00-.864-.048.74.74 0 00-.171.169.727.727 0 00-.047.843c.258.38.54.74.843 1.08.098.113.212.211.316.319.205.211.41.423.632.618.155.134.32.255.484.38.198.154.397.312.612.454.165.11.34.208.51.312.159.094.307.199.471.286-.08.978-.117 2.057-.117 3.287 0 4.434.528 7.943 2.541 9.953 1.207 1.207 2.948 1.87 5.425 1.87.414 0 .807-.021 1.183-.055.054-.003.098-.016.148-.023.316-.037.622-.077.911-.138 4.686-1.002 5.725-5.398 5.725-11.607 0-1.23-.04-2.285-.118-3.247 0-.02 0-.03-.01-.047.094-.05.178-.11.272-.161.195-.111.39-.225.578-.346.236-.152.46-.316.68-.484.147-.111.295-.226.436-.343.242-.209.47-.43.693-.659.104-.108.215-.208.316-.32.309-.349.601-.715.867-1.109l.007-.013z" fill="#313235" fill-rule="nonzero"/></svg>