<svg width="24" height="24" xmlns="http://www.w3.org/2000/svg"><path d="M23.466 11.541c.1.094.158.225.158.363a.513.513 0 01-.155.37l-2.33 2.232a.497.497 0 01-.699-.01l-1.499-1.506-.877 1.415a.492.492 0 01-.4.235.447.447 0 01-.42-.195l-1.083-1.408-.961 1.388a.5.5 0 01-.41.215H9.21l-.074.165c-.675 1.351-2.141 2.067-4.239 2.067-3.16 0-4.897-1.748-4.897-4.92C0 8.777 1.738 7.03 4.897 7.03c2.525 0 3.721 1.106 4.286 2.148H20.75a.5.5 0 01.342.135l2.374 2.228zm-19.17 1.254c-.602 0-.837-.235-.837-.84s.232-.84.837-.84.837.235.837.84-.236.84-.837.84zm0-2.686c-1.15 0-1.839.693-1.839 1.846 0 1.156.69 1.845 1.839 1.845 1.15 0 1.838-.69 1.838-1.845 0-1.157-.685-1.846-1.838-1.846z" fill="#313235" fill-rule="nonzero"/></svg>