<svg width="24" height="24" viewBox="0 0 24 24" xmlns="http://www.w3.org/2000/svg"><path d="M13.99 17.398v-1.704c3.731-.262 7.324-1.2 9.634-2.504v8.672c0 .972-.784 1.762-1.748 1.762H1.748c-.965 0-1.748-.79-1.748-1.762v-8.9c2.3 1.404 5.896 2.416 9.63 2.712v1.724c0 .417.188.763.521.982.246.158.552.238.945.238h1.438c.384 0 .7-.08.935-.238.336-.219.52-.565.52-.982zm2.259-11.374v-.42c0-2.27-1.943-4.115-4.326-4.115H11.7c-2.387 0-4.326 1.845-4.326 4.114v.42h8.874zm5.627 0c.964 0 1.748.79 1.748 1.76v3.655c-2.293 1.66-7.147 2.85-11.721 2.85-4.663 0-9.624-1.307-11.903-3.12V7.786c0-.972.783-1.761 1.751-1.761H5.9v-.42c0-3.09 2.605-5.6 5.805-5.6h.222c3.2 0 5.805 2.514 5.805 5.6v.42h4.145zm-10.77 11.109v-1.358h1.408v1.358h-1.408z" fill="#313235" fill-rule="nonzero"/></svg>