<svg width="24" height="24" viewBox="0 0 24 24" xmlns="http://www.w3.org/2000/svg"><path d="M19.26 8.951c-.339 0-.648.047-.927.141-.286-1.028-1.13-1.64-2.34-1.64-.34 0-.652.05-.93.141-.29-1.018-1.13-1.623-2.334-1.623-.295 0-.571.037-.82.107V2.595C11.91.995 10.928 0 9.348 0c-1.52 0-2.45.924-2.555 2.541v8.914c-.406-.692-.773-1.176-1.21-1.526a2.313 2.313 0 00-1.449-.517c-.484 0-.96.158-1.358.477-.78.625-.971 1.69-.49 2.716.817 1.738 2.191 4.531 3.297 6.777.69 1.398 1.284 2.608 1.452 2.97.175.384.589 1.275 1.526 1.275h9.345c1.18 0 2.185-.37 2.833-1.039.646-.665.972-1.596.972-2.763V11.43c-.007-1.53-.941-2.478-2.45-2.478z" fill="#5CB615" fill-rule="nonzero"/></svg>