<svg width="24" height="24" xmlns="http://www.w3.org/2000/svg"><path d="M14.706 19.26c0-.339-.047-.648-.141-.927 1.028-.286 1.64-1.13 1.64-2.34 0-.34-.05-.652-.141-.93 1.018-.29 1.623-1.13 1.623-2.334 0-.295-.037-.571-.107-.82h3.482c1.6 0 2.595-.981 2.595-2.561 0-1.52-.924-2.45-2.541-2.555h-8.914c.692-.406 1.176-.773 1.526-1.21.346-.43.517-.944.517-1.449 0-.484-.158-.96-.477-1.358-.625-.78-1.69-.971-2.716-.49-1.738.817-4.531 2.191-6.776 3.297-1.399.69-2.609 1.284-2.972 1.452C.921 7.21.03 7.624.03 8.561v9.345c0 1.18.37 2.185 1.039 2.833.665.646 1.597.972 2.763.972h8.397c1.529-.007 2.477-.941 2.477-2.45z" fill="#313235" fill-rule="nonzero"/></svg>