<svg width="24" height="24" viewBox="0 0 24 24" xmlns="http://www.w3.org/2000/svg"><path d="M15.17 0H5.829C4.649 0 3.64.37 2.992 1.039c-.646.665-.972 1.596-.972 2.76v8.396c0 1.526.938 2.474 2.444 2.474.34 0 .649-.047.928-.141.285 1.028 1.129 1.64 2.336 1.64.343 0 .655-.047.93-.141.293 1.018 1.13 1.623 2.334 1.623.295 0 .571-.037.82-.107v3.482c0 1.6.981 2.595 2.561 2.595 1.52 0 2.45-.928 2.555-2.541l.003-.054v-8.86c.407.692.77 1.176 1.21 1.526.43.343.945.517 1.449.517.484 0 .961-.158 1.358-.477.78-.625.971-1.69.49-2.713-.816-1.737-2.19-4.534-3.293-6.776-.69-1.398-1.284-2.605-1.453-2.971C16.521.89 16.108 0 15.17 0" fill="#5CB615" fill-rule="nonzero"/></svg>