<svg width="24" height="24" viewBox="0 0 24 24" xmlns="http://www.w3.org/2000/svg"><path d="M21.455 10.474a6.837 6.837 0 00-.709-.85c-2.645-2.7-4.998-3.64-6.36-3.97v4.82h7.07zm-1.536 5.284c.27-.182.693-.5 1.103-.918H1.445v1.063c12.605 0 16.713.02 17.9.03h.01a.983.983 0 00.564-.175zM1.445 10.393H3.85V6.975H1.445v3.418zm4.071 0h2.585V6.975H5.516v3.418zm4.097 0h2.589V6.975H9.613v3.418zm-9.401 6.77A.75.75 0 010 16.642v-11.9c0-.406.323-.739.723-.739h12.4c.138-.003 4.067-.1 8.642 4.575 1.361 1.392 1.98 2.83 1.835 4.272-.205 2.054-1.9 3.476-2.887 4.142a2.438 2.438 0 01-1.358.416h-.02c-1.21-.01-5.446-.03-18.612-.03a.72.72 0 01-.511-.215zm22.685 1.116c.4 0 .723.33.723.74a.73.73 0 01-.723.739H.723a.73.73 0 01-.723-.74c0-.41.323-.739.723-.739h22.174z" fill="#313235" fill-rule="nonzero"/></svg>