<svg width="24" height="24" viewBox="0 0 24 24" xmlns="http://www.w3.org/2000/svg"><path d="M22.894 12.545a.726.726 0 000-1.453H19.57V9.64h3.324a.727.727 0 000-1.455H19.57v-2.84c0-.666-.632-1.271-1.328-1.271h-2.79V.726a.728.728 0 00-1.455 0v3.341h-1.452V.73a.725.725 0 10-1.453 0v3.342H9.64V.729c0-.4-.326-.726-.726-.726-.4 0-.726.326-.726.726v3.342H5.395c-.696 0-1.328.605-1.328 1.27v2.84H.73a.727.727 0 000 1.455l3.335.001v1.452H.729a.726.726 0 000 1.452h3.335v1.452H.729a.727.727 0 000 1.455h3.335v2.871c0 .67.618 1.26 1.328 1.26h2.793v3.315a.726.726 0 001.452 0V19.58h1.452v3.314a.727.727 0 001.455 0V19.58h1.453v3.314a.726.726 0 001.452 0V19.58h2.79c.709 0 1.327-.588 1.327-1.26v-2.871h3.325a.727.727 0 000-1.455h-3.325V12.54l3.328.004z" fill="#313235" fill-rule="nonzero"/></svg>