<svg width="24" height="24" xmlns="http://www.w3.org/2000/svg"><path d="M12.375 0c3.348 0 5.19 1.866 5.19 5.25v8.148c0 3.385-1.842 5.25-5.194 5.25-3.347 0-5.19-1.865-5.19-5.25V5.25C7.182 1.866 9.028 0 12.376 0zm.027 21.304c.632 0 1.146.518 1.146 1.16 0 .639-.514 1.16-1.146 1.16a1.155 1.155 0 01-1.147-1.16c0-.642.515-1.16 1.147-1.16zm3.993-1.16c.632 0 1.146.518 1.146 1.16 0 .639-.514 1.16-1.146 1.16a1.153 1.153 0 01-1.146-1.16c0-.642.514-1.16 1.146-1.16zm3.207-2.762c.632 0 1.146.517 1.146 1.16 0 .638-.514 1.159-1.146 1.159a1.155 1.155 0 01-1.147-1.16c0-.638.511-1.16 1.147-1.16zm1.146-3.947a.983.983 0 01.978.989.984.984 0 01-.978.991.984.984 0 01-.978-.991.981.981 0 01.978-.989zm-12.393 6.71c.632 0 1.146.517 1.146 1.16 0 .638-.514 1.159-1.146 1.159a1.153 1.153 0 01-1.147-1.16 1.148 1.148 0 011.147-1.16zm-3.207-2.763c.632 0 1.146.517 1.146 1.16 0 .638-.514 1.159-1.146 1.159a1.155 1.155 0 01-1.146-1.16c0-.638.51-1.16 1.146-1.16zm-.168-2.958a.984.984 0 01-.978.991.984.984 0 01-.978-.991.981.981 0 01.978-.989.981.981 0 01.978.989z" fill="#313235" fill-rule="nonzero"/></svg>