<svg width="24" height="24" viewBox="0 0 24 24" xmlns="http://www.w3.org/2000/svg"><path d="M12.397 10.336c1.075 0 1.916.28 2.5.83.606.568.915 1.416.915 2.508 0 1.096-.306 1.94-.915 2.508-.581.544-1.421.823-2.5.823-1.076 0-1.916-.279-2.498-.823-.602-.569-.91-1.412-.91-2.508 0-1.092.305-1.94.91-2.508.582-.55 1.419-.83 2.498-.83zm2.077 8.131c1.264 0 2.302.373 3.002 1.086.638.652.981 1.556.981 2.618v1.11c0 .208-.171.38-.386.38H6.736a.383.383 0 01-.386-.38v-1.11c0-1.058.336-1.966.978-2.618.696-.713 1.73-1.086 2.998-1.086h4.148zm6.094-15.12c.29.32.262.808-.064 1.093a.802.802 0 01-1.116-.064c-2.733-2.988-6.968-2.8-7.012-2.793-4.544.05-6.94 2.582-6.964 2.605a.808.808 0 01-1.12.054.76.76 0 01-.053-1.092C4.356 3.025 7.133.09 12.323.037c.161-.007 4.991-.249 8.245 3.31zm-8.239.092c.135-.014 3.984-.138 6.44 2.548a.757.757 0 01-.063 1.089.8.8 0 01-1.116-.058c-1.946-2.127-5.187-2.036-5.22-2.033-3.22.037-5.146 2.054-5.163 2.077a.812.812 0 01-1.12.054.766.766 0 01-.06-1.092c.1-.108 2.39-2.542 6.302-2.585zm4.253 6.272a.808.808 0 01-1.12-.064c-1.133-1.24-3.038-1.19-3.069-1.19-1.909.02-3.018 1.17-3.065 1.22a.801.801 0 01-.585.25.797.797 0 01-.531-.2.762.762 0 01-.054-1.088c.064-.07 1.593-1.701 4.195-1.728.084 0 2.649-.09 4.292 1.707.29.32.263.807-.063 1.093z" fill="#313235" fill-rule="nonzero"/></svg>