<svg width="24" height="24" viewBox="0 0 24 24" xmlns="http://www.w3.org/2000/svg"><path d="M21.714 10.733c.29-.266.434-.646.434-1.126 0-.518-.269-.965-.797-1.325a.74.74 0 01-.14-1.089c.2-.235.305-.608.305-1.082 0-.676-.595-1.066-1.092-1.274a.725.725 0 01-.41-.434.73.73 0 01.047-.598c.1-.181.198-.474.097-1.13-.3-.796-.555-1.196-4.682-1.196-2.498 0-3.49.292-4.367.548l-.259.074c-.49.141-.88.252-1.274.252l-2.971.04v9.029c0 .02-.003.037-.007.057v.01c.911.47 2.84 1.718 3.05 3.9.14 1.451.12 3.233.09 4.621 0 .027-.004.054-.007.08-.007.118-.017.216-.027.317l-.02.228c-.034.491.064.864.292 1.11.313.332.844.403 1.234.403 1.069 0 1.523-.467 1.523-1.637l-.007-.145v-.04c0-2.188-.01-5.065-.01-5.065 0-.4.316-.73.716-.74l3.223-.097h4.074c.43-.024 1.429-.202 1.429-1.342 0-.571-.148-1.008-.43-1.26a.728.728 0 01-.242-.545.703.703 0 01.228-.544M3.274 8.847c-.538 0-.914.377-.914.914 0 .538.376.915.914.915s.91-.373.91-.915c0-.537-.372-.914-.91-.914m19.892 2.43c.256.414.458.999.458 1.805 0 1.836-1.416 2.736-2.861 2.817h-4.094l-2.484.074c.003.992.007 2.824.007 4.336l.006.158.004.118c0 1.902-1.12 3.042-2.999 3.042-.981 0-1.781-.303-2.312-.874-.353-.383-.763-1.08-.683-2.219l.024-.275c.01-.098.02-.188.023-.31 0-.016.004-.033.004-.05.03-1.334.047-3.018-.084-4.366-.141-1.48-1.604-2.39-2.262-2.73-.296.229-.663.37-1.063.37H1.748A1.75 1.75 0 010 11.422V2.306C0 1.34.783.558 1.748.558h3.11c.423 0 .81.158 1.112.41.077-.017.148-.047.228-.047L9.566.877c.195 0 .498-.084.878-.198l.252-.07C11.62.338 12.77 0 15.476 0c4.332 0 5.415.397 6.09 2.229a.957.957 0 01.037.13c.091.549.098 1.02.014 1.436.884.555 1.378 1.371 1.378 2.316 0 .588-.114 1.049-.266 1.402.585.581.898 1.307.898 2.097-.003.723-.205 1.267-.46 1.667" fill="#5CB615" fill-rule="nonzero"/></svg>