<svg width="24" height="24" viewBox="0 0 24 24" xmlns="http://www.w3.org/2000/svg"><path d="M17.287 4.212c.303.218.481.571.481.944v13.422c0 .373-.178.726-.48.945a1.129 1.129 0 01-.969.161l-6.554-1.97-.232.743a.962.962 0 01-.484.578.938.938 0 01-.75.068l-2.723-.854a.986.986 0 01-.645-1.234l.216-.688-3.816-1.147c0 .343-.292.618-.655.618-.363 0-.656-.275-.656-.618V8.568c0-.34.293-.618.656-.618.358 0 .647.268.655.604L16.319 4.05c.33-.1.69-.04.968.162zm3.52 11.778l1.808 1.808a.657.657 0 01-.464 1.12.654.654 0 01-.464-.192l-1.808-1.808a.657.657 0 010-.928.657.657 0 01.928 0zm-14.44.84l-.085.27 2.098.658.084-.269-2.098-.659zm16.641-5.933c.363 0 .656.293.656.656a.654.654 0 01-.656.655h-2.621a.654.654 0 01-.656-.655c0-.363.293-.656.656-.656h2.621zm-.383-6.594a.657.657 0 010 .927L20.77 7.086a.654.654 0 01-.928 0 .657.657 0 010-.928l1.855-1.855a.657.657 0 01.928 0z" fill="#5CB615" fill-rule="nonzero"/></svg>