<svg width="24" height="24" xmlns="http://www.w3.org/2000/svg"><path d="M3.686.03c.37 0 .672.303.672.673 0 .648 0 1.16 1.936 1.16h1.318c1.106 0 1.92.231 2.48.705.542.454.814 1.106.814 1.933v.457c1.862.104 3.331.669 4.38 1.677 1.213 1.17 1.828 2.908 1.828 5.163v2.185c.121.148.219.326.306.484.037.067.09.165.138.239.08-.04.181-.101.252-.145.353-.211.79-.48 1.21-.235.42.245.41.763.4 1.177 0 .08-.003.194 0 .285.09.004.205 0 .286 0 .417-.01.934-.02 1.176.4.242.42-.023.857-.235 1.21-.04.07-.1.172-.144.252.073.047.17.101.238.138.367.202.824.45.824.945 0 .494-.457.746-.82.94a4.71 4.71 0 00-.24.139c.041.08.102.181.145.252.212.353.481.79.236 1.21-.246.42-.763.41-1.177.4-.08 0-.195-.003-.285 0-.004.09 0 .205 0 .286.01.416.02.934-.4 1.176-.42.242-.858-.023-1.21-.235-.071-.04-.172-.101-.253-.145a4.71 4.71 0 00-.137.239c-.202.366-.454.823-.945.823-.49 0-.743-.457-.945-.823a4.71 4.71 0 00-.137-.239c-.081.04-.182.101-.252.145-.327.198-.723.437-1.11.286-1.022.53-2.289.8-3.774.8-2.169 0-3.863-.569-5.03-1.695-1.213-1.17-1.828-2.907-1.828-5.163v-5.324c0-2.259.615-3.997 1.832-5.17 1.039-1.001 2.498-1.563 4.336-1.674v-.563c-.01-.467-.139-1.191-1.95-1.191H6.298c-1.156 0-1.909-.172-2.436-.555-.572-.413-.848-1.049-.848-1.95 0-.37.303-.672.673-.672zM16.56 14.743a.619.619 0 01-.111.01l-.06-.003c-.273.14-.461.867-.727.937-.306.084-.914-.578-1.186-.423-.273.154-.007 1.018-.226 1.24-.218.222-1.082-.04-1.24.225-.158.266.504.881.424 1.187-.081.296-.962.497-.962.817 0 .32.88.52.962.817.084.305-.579.914-.424 1.186.155.272 1.019.003 1.24.225.152.148.078.592.098.911a.7.7 0 01.276.35c.1-.018.22-.08.346-.154l.252-.15c.167-.096.325-.17.44-.14.296.08.498.961.817.961.32 0 .521-.884.817-.96.306-.085.914.577 1.186.423.273-.155.007-1.019.226-1.24.218-.223 1.082.04 1.24-.226.158-.265-.504-.88-.424-1.186.078-.296.965-.498.965-.817 0-.32-.884-.521-.961-.817-.084-.303.578-.914.423-1.187-.154-.272-1.018-.006-1.24-.225-.222-.218.04-1.082-.225-1.24-.266-.158-.881.504-1.187.423-.272-.074-.46-.823-.74-.944zm1.038 4.4c.538 0 .878.336.878.877 0 .541-.337.877-.878.877-.54 0-.877-.336-.877-.877 0-.541.336-.877.877-.877zm.007-2.393a.336.336 0 01.47-.058l.057.055a.33.33 0 010 .416l-2.782 3.556a.336.336 0 01-.471.057.336.336 0 01-.057-.47zm-.007 3.062c-.171 0-.205.033-.205.205 0 .171.037.205.205.205.168 0 .205-.034.205-.205 0-.172-.033-.205-.205-.205zm-2.269-3.264c.542 0 .878.336.878.877 0 .538-.336.878-.878.878-.54 0-.877-.337-.877-.878 0-.541.336-.877.877-.877zm.004.672c-.172 0-.205.037-.205.205 0 .168.033.205.205.205.171 0 .205-.033.205-.205 0-.171-.034-.205-.205-.205zm1.134-4.496l-.069.002a44.102 44.102 0 01-6.137.42 44.102 44.102 0 01-6.138-.42.336.336 0 00-.094.666c2.063.289 4.147.43 6.232.426a44.426 44.426 0 006.231-.426c.179-.03.3-.195.28-.374a.334.334 0 00-.374-.292zM10.26 7.576a.674.674 0 00-.673.673v2.981c0 .37.303.673.673.673.37 0 .672-.303.672-.673V8.25a.674.674 0 00-.672-.673z" fill="#313235" fill-rule="nonzero"/></svg>