<svg width="24" height="24" viewBox="0 0 24 24" xmlns="http://www.w3.org/2000/svg"><path d="M18.363 16.239V8.17a.491.491 0 00-.49-.49h-.33a.491.491 0 00-.49.49V13.9l-3.977-6a.493.493 0 00-.41-.222h-.263a.494.494 0 00-.49.491v8.067c0 .273.221.491.49.491h.33c.272 0 .49-.222.49-.49v-5.718l3.96 5.993c.09.138.246.222.41.222h.273a.496.496 0 00.497-.494zm-10.713.658c1.543 0 3.382-.81 3.382-4.679 0-3.879-1.839-4.692-3.382-4.692-1.55 0-3.395.813-3.395 4.692 0 3.866 1.846 4.68 3.395 4.68zM12.296.044c1.889.043 11.328.827 11.328 11.832 0 11.011-9.402 11.74-11.285 11.774a41.12 41.12 0 01-.675.007c-.125 0-.256 0-.377-.003C.545 23.499 0 13.758 0 11.808 0 9.858.541.124 11.207.034c.36-.004.756.003 1.089.01zM7.65 8.864c.942 0 2.02.383 2.02 3.354 0 2.935-1.021 3.332-2.02 3.332-1.005 0-2.033-.397-2.033-3.332 0-2.957 1.028-3.354 2.033-3.354z" fill="#5CB615" fill-rule="nonzero"/></svg>