<svg width="24" height="24" xmlns="http://www.w3.org/2000/svg"><path d="M16.743.03c.017 0 .033.004.05.007h.017l.06.01c.02.003.04.007.058.014l.017.003c.016.003.03.007.043.013l.014.007c.016.01.037.017.053.027l.05.03.014.01.037.027.014.01c.013.014.03.027.043.04l6.219 6.22a.517.517 0 01.04.043l.01.013.027.037.01.014.03.05.027.057.007.014c.007.016.014.03.017.043.003.007.007.01.007.017.003.017.01.034.013.054l.01.06v.017c.004.017.004.03.004.047v3.09l.002 11.264v.921l.001.087c-.003.853-.534 1.388-1.385 1.388H7.63c-.44 0-.79-.128-1.038-.38-.25-.252-.377-.605-.377-1.042V14.77c-1.956-.004-3.482-.521-4.538-1.54C.575 12.168.017 10.595.017 8.555s.558-3.617 1.66-4.676c1.056-1.018 2.585-1.536 4.538-1.54v-.897c0-.864.541-1.405 1.412-1.405h.267l.58-.002H9.98l1.937-.002h2.139L15.28.03h.3zm2.813 18.02H9.913a.674.674 0 00-.673.673c0 .37.303.672.673.672h9.647a.671.671 0 00-.004-1.345zm.004-3.932h-8.084a.674.674 0 00-.673.672c0 .37.303.672.673.672h8.084c.37 0 .672-.302.672-.672a.674.674 0 00-.672-.672zM6.232 3.64c-3.3 0-4.908 1.607-4.908 4.911 0 3.304 1.604 4.911 4.908 4.911 3.3 0 4.907-1.603 4.907-4.91 0-1.735-.383-2.959-1.17-3.745C9.184 4.02 7.96 3.64 6.233 3.64zm-.003.585c.279 0 .504.225.504.504v.572c.42.057.81.191 1.126.386.238.148.275.34.275.44a.466.466 0 01-.467.468.618.618 0 01-.275-.077 2.611 2.611 0 00-.656-.26V8.04c1.435.242 1.745 1.096 1.738 1.782 0 .571-.208 1.052-.602 1.395-.292.252-.682.42-1.143.49v.461a.504.504 0 11-1.008 0v-.454a3.449 3.449 0 01-1.472-.575.49.49 0 01-.229-.423.48.48 0 01.484-.477.567.567 0 01.313.1c.275.192.585.33.907.414V8.867c-1.277-.272-1.556-1.072-1.556-1.724 0-.978.595-1.657 1.556-1.832v-.582c0-.279.226-.504.505-.504zm13.33 5.96h-5.462a.674.674 0 00-.672.672c0 .37.303.672.672.672h5.463c.37 0 .672-.302.672-.672a.674.674 0 00-.672-.672zM6.737 9.032v1.728c.494-.125.787-.447.787-.905 0-.329-.108-.652-.787-.823zm-1.008-2.76c-.383.128-.599.417-.599.827 0 .28.084.575.599.756zm11.69-3.943v1.644c.004.72.162 1.308.448 1.698.285.39.705.578 1.28.581h2.192l-3.92-3.923z" fill="#313235" fill-rule="nonzero"/></svg>