<svg width="24" height="24" viewBox="0 0 24 24" xmlns="http://www.w3.org/2000/svg"><path d="M22.175 14.61V9.148a.696.696 0 00-.612-.68h-1.818v6.824h1.778a.673.673 0 00.652-.682zm-.67-7.62c1.144 0 2.095.958 2.119 2.138v5.479c0 1.186-.942 2.154-2.101 2.154H19.71c-.225 1.157-1.227 2.034-2.424 2.034H6.403C2.266 18.644 0 16.193 0 11.897c0-4.305 2.266-6.75 6.38-6.88h10.89c1.18 0 2.169.85 2.414 1.98h.813v-.004h1.009V6.99zM5.23 10.916c-.669 0-1.102.353-1.102 1.113 0 .366.1.635.279.82.195.198.477.296.823.296s.632-.098.824-.296c.178-.185.279-.454.279-.82.003-.76-.434-1.113-1.103-1.113z" fill="#313235" fill-rule="nonzero"/></svg>