<svg width="24" height="24" viewBox="0 0 24 24" xmlns="http://www.w3.org/2000/svg"><path d="M18.753 14.266a1.824 1.824 0 01-1.294 2.228 1.81 1.81 0 01-1.435-.202v5.513c0 1.035-.743 1.819-1.728 1.819-.982 0-1.721-.784-1.721-1.819v-5.344h-.336v5.344c0 1.039-.716 1.792-1.698 1.792-.988 0-1.734-.77-1.734-1.792v-5.513l-.047.03c-.43.24-.928.303-1.395.169a1.82 1.82 0 01-1.288-2.222l1.385-5.052c.014-.06.034-.118.057-.175.343-1.553 1.752-2.676 3.362-2.676h3.075c1.61 0 3.015 1.12 3.358 2.67.034.077.057.15.07.225 0 .006 1.369 5.005 1.369 5.005zM12.12 5.95c-1.876 0-2.998-1.113-2.998-2.972 0-.951.275-1.697.82-2.218C10.47.255 11.203 0 12.12 0c.921 0 1.654.255 2.178.756.545.521.824 1.268.824 2.219 0 1.862-1.12 2.971-3.002 2.975z" fill="#313235" fill-rule="nonzero"/></svg>