<svg width="24" height="24" viewBox="0 0 24 24" xmlns="http://www.w3.org/2000/svg"><path d="M22.336 16.85c.746 0 1.288.404 1.288.958v4.827c0 .565-.532.985-1.291.985H17.71v-6.77h4.625zM0 15.076c0-.666.669-1.08 1.287-1.08H5.91v9.624H1.287C.578 23.62 0 23.113 0 22.518v-7.442zm14.955-4.72c.685 0 1.287.575 1.287 1.234v12.037H7.385V11.593c0-.655.602-1.23 1.287-1.23h6.283v-.007zm-4.468-7.025l-1.435.219 1.066 1.183a.802.802 0 01.208.669l-.252 1.54 1.355-.67a.752.752 0 01.746.017l1.3.713.004.003s.003 0 .007-.003l-.236-1.6a.81.81 0 01.232-.69l1.052-1.068-1.492-.32a.771.771 0 01-.565-.413l-.669-1.415-.702 1.401a.766.766 0 01-.619.434zm-1.67 2.182l-.82-.834a1.529 1.529 0 01-.357-1.57 1.493 1.493 0 011.194-1.015l1.105-.168.501-1.059a1.49 1.49 0 011.352-.864c.578 0 1.095.33 1.347.864l.505 1.062 1.106.165a1.506 1.506 0 011.2 1.019 1.542 1.542 0 01-.363 1.57l-.82.836.194 1.19a1.55 1.55 0 01-.622 1.503 1.489 1.489 0 01-1.566.09l-.73-.4-.251-.137-.253.138-.726.4a1.49 1.49 0 01-1.886-.4 1.53 1.53 0 01-.298-1.194l.188-1.196z" fill="#5CB615" fill-rule="nonzero"/></svg>