<svg width="24" height="24" viewBox="0 0 24 24" xmlns="http://www.w3.org/2000/svg"><path d="M10.336 12.605l1.177-.155-.004 2.037c0 .131.108.24.239.236h.007a.245.245 0 00.225-.141l1.566-3.47a.223.223 0 00-.03-.235.255.255 0 00-.229-.09l-1.294.171.024-2.003a.241.241 0 00-.199-.236.249.249 0 00-.275.142l-1.47 3.418a.224.224 0 00.035.232c.053.074.137.1.228.094zm-6.531 5.859c-1.247 0-2.208-.326-2.85-.968-.622-.619-.938-1.513-.938-2.666V7.607c0-1.15.316-2.04.938-2.652.642-.629 1.603-.948 2.85-.948L19.815 4c1.25 0 2.209.32 2.85.951.622.612.938 1.503.938 2.652v7.22c0 1.15-.316 2.048-.934 2.666-.645.642-1.607.968-2.854.968 0-.003-16.01.007-16.01.007zm5.415-9.48c0-.372.088-.634.266-.81.181-.174.457-.261.85-.261h2.955c.396 0 .675.084.854.255.178.168.262.434.262.814v5.673c0 .384-.088.653-.262.82-.179.169-.458.25-.85.25h-2.956c-.396 0-.675-.081-.85-.25-.178-.167-.265-.436-.265-.82-.004 0-.004-5.67-.004-5.67zm1.842-2.14c.034-.034.131-.037.172-.037h1.153c.087 0 .15.013.174.037.02.017.037.067.037.164v.202h-1.573v-.202c0-.05.004-.134.037-.164zm-.73 9.586h2.955c.602 0 1.05-.148 1.368-.454.327-.309.484-.742.484-1.324V8.985c0-.575-.157-1.005-.477-1.314-.312-.303-.753-.454-1.33-.46v-.206c0-.279-.085-.504-.253-.666-.168-.16-.403-.242-.696-.242H11.23c-.292 0-.527.081-.699.246-.165.165-.249.386-.249.662v.205c-.574.007-1.011.158-1.327.467-.32.313-.478.74-.478 1.308v5.67c0 .582.158 1.016.481 1.325.326.302.776.45 1.375.45zm12.555 2.888c.407 0 .737.316.737.709 0 .39-.33.706-.737.706H.74c-.41 0-.739-.316-.739-.706 0-.39.33-.71.736-.71h22.151z" fill="#313235" fill-rule="nonzero"/></svg>