<svg width="24" height="24" viewBox="0 0 24 24" xmlns="http://www.w3.org/2000/svg"><path d="M13.67 11.896c-1.606 1.859-1.667 1.933-1.667 3.667a.48.48 0 01-.48.48h-.531a.473.473 0 01-.471-.39 3.757 3.757 0 01-.067-.759c0-1.3.457-2.07 1.482-3.304l.195-.235c1.687-1.997 2.007-2.552 2.007-3.496 0-.67-.192-1.106-.642-1.466-.259-.205-.713-.443-1.953-.443-.672 0-1.27.077-2 .262a.48.48 0 01-.588-.38l-.078-.414a.48.48 0 01.266-.524c.454-.215 1.563-.437 2.635-.437 1.13 0 2.03.252 2.683.743.836.615 1.23 1.469 1.23 2.679-.004 1.479-.619 2.36-2.02 4.017m-2.347 7.459c-.642 0-1.048-.4-1.048-.992v-.077c0-.595.416-1.012 1.011-1.012.636 0 1.05.417 1.05 1.012 0 .672-.408 1.069-1.013 1.069M12.292.013c-.329-.006-.722-.016-1.072-.01C9.345.02 0 .663 0 11.778c0 11.12 9.408 11.819 11.294 11.846a43.336 43.336 0 001.035-.003c1.886-.034 11.291-.764 11.291-11.776C23.624.84 14.185.057 12.292.013" fill="#5CB615" fill-rule="nonzero"/></svg>