<svg width="24" height="24" viewBox="0 0 24 24" xmlns="http://www.w3.org/2000/svg"><path d="M16.74 21.694l.715-1.926a1.226 1.226 0 011.563-.716l1.91.706-2.787-6.057c-1.072.954-2.534 1.51-4.306 1.68l2.904 6.313zm-12.982-1.94l1.92-.705a1.226 1.226 0 011.562.706l.716 1.929 2.935-6.363c-1.752-.249-3.153-.914-4.158-1.997l-2.975 6.43zm7.287-8.77c.118 0 .236-.03.343-.087l1.234-.675h.02l1.234.675a.7.7 0 00.34.088.665.665 0 00.396-.128.717.717 0 00.299-.726l-.229-1.442c-.01-.01 0-.02 0-.03l1.005-1.015a.744.744 0 00.182-.767.724.724 0 00-.578-.487l-1.382-.205s-.01 0-.01-.01l-.632-1.301a.692.692 0 00-1.274 0l-.615 1.3c-.01.01-.01.01-.02.01l-1.382.206a.702.702 0 00-.568.487.742.742 0 00.168.767l1.006 1.015c0 .01.01.02.01.03l-.24 1.442a.73.73 0 00.3.726.655.655 0 00.393.128zM12.632 0c4.874 0 7.718 2.467 7.718 7.724 0 1.96-.387 3.53-1.143 4.723l3.361 7.298a1.18 1.18 0 01-.158 1.263 1.196 1.196 0 01-1.203.427l-2.447-.894-.874 2.356c-.26.474-.666.727-1.113.727h-.04a1.187 1.187 0 01-1.066-.706l-3.314-7.19-3.321 7.19c-.188.423-.608.699-1.072.706h-.03c-.448 0-.858-.24-1.073-.646l-.914-2.433-2.35.863c-.127.03-.248.044-.37.044-.386 0-.712-.158-.934-.434a1.21 1.21 0 01-.158-1.273l3.58-7.775c.01-.03.03-.04.05-.067-.558-1.116-.847-2.508-.847-4.175C4.911 2.468 7.754 0 12.632 0z" fill="#5CB615" fill-rule="nonzero"/></svg>