<svg width="24" height="24" viewBox="0 0 24 24" xmlns="http://www.w3.org/2000/svg"><path d="M22.303 6.141l.01-.437a1.438 1.438 0 00-.38-.027l-18.236-.01a.952.952 0 00-.336.054v.437c.074.017.199.034.37.027h.622c.054 0 .1-.01.144-.01l16.619.01c.064-.01.118.007.171.007h.68a.95.95 0 00.336-.05zm-9.506 16.346c.423-.01.423-.225.423-.373 0-.14 0-.376-.36-.383h-.07c-.316 0-.343.182-.343.373-.003.151-.003.377.35.383zm-.508-19.54L9.65 4.36l6.232.01-2.453-1.442a1.571 1.571 0 01-.542.097h-.1c-.162 0-.333-.027-.498-.077zm.498-1.814c-.316.01-.343.181-.343.376 0 .192.027.383.353.383.423-.01.423-.225.423-.373 0-.14 0-.376-.36-.383l-.073-.003zM23.324 4.79c.215.192.333.454.343.723l-.01.826c0 .474-.353.858-.91 1.04.01.06.026.13.026.197l-.01 10.061c0 .773-.713 1.412-1.597 1.412l-7.653-.01v1.684c.497.201.884.655.884 1.388 0 1.018-.757 1.492-1.506 1.51h-.118c-.74-.01-1.5-.482-1.5-1.52 0-.743.388-1.187.888-1.388v-1.674H4.555c-.626.023-1.002-.212-1.22-.41a1.309 1.309 0 01-.434-.985V7.58c0-.06.01-.121.017-.182a1.527 1.527 0 01-.579-.316 1 1 0 01-.332-.732v-.827c0-.673.712-1.16 1.687-1.16h3.167l4.47-2.39a1.796 1.796 0 01-.064-.464c0-1.028.757-1.499 1.506-1.509v.01h.118c.74.007 1.499.487 1.499 1.51 0 .157-.017.295-.054.42l4.175 2.43h3.402c.605-.024 1.102.13 1.411.42zm-6.376 10.538H8.622l1.398-2.121 3.032 1.136a.54.54 0 00.568-.148l2.192-2.669.054.346c.037.236.252.41.487.41.027 0 .054-.01.08-.01a.495.495 0 00.417-.551l-.215-1.395a.495.495 0 00-.497-.4h-1.6a.489.489 0 00-.498.47c0 .27.226.478.498.478h.53l-1.996 2.437-3.069-1.143a.492.492 0 00-.595.185l-1.435 2.181V9.987a.483.483 0 00-.494-.478h-.003a.48.48 0 00-.498.464v5.832c0 .262.215.48.498.48h9.469a.493.493 0 00.497-.48.485.485 0 00-.494-.477z" fill="#313235" fill-rule="nonzero"/></svg>