<svg width="24" height="24" xmlns="http://www.w3.org/2000/svg"><path d="M20.447 12.588H16.82a.725.725 0 110-1.452h3.627a.725.725 0 110 1.452zm-2.054 5.88a.722.722 0 01-1.022.003l-.003-.004-2.565-2.568a.726.726 0 010-1.025.726.726 0 011.026 0l2.564 2.565a.724.724 0 010 1.028zM12.588 6.806a.725.725 0 11-1.452 0v-3.63a.725.725 0 111.452 0v3.63zm-.1 13.64a.725.725 0 11-1.453 0v-3.63a.725.725 0 111.452 0v3.63zM8.745 15.83l-2.564 2.568a.726.726 0 01-1.026 0 .726.726 0 010-1.026l2.565-2.564a.727.727 0 011.025.027.72.72 0 010 .995zM2.45 11.76c0-.4.326-.726.726-.726h3.63a.725.725 0 110 1.452h-3.63a.727.727 0 01-.726-.726zm12.427-3.966l2.565-2.565a.726.726 0 011.025 0 .723.723 0 010 1.025L15.9 8.82a.726.726 0 01-1.025 0 .73.73 0 01.003-1.025zM11.808 0C4.084 0 0 4.084 0 11.815c0 7.724 4.084 11.809 11.808 11.809 7.728 0 11.816-4.085 11.816-11.809C23.624 4.084 19.539 0 11.808 0z" fill="#313235" fill-rule="nonzero"/></svg>