<svg width="24" height="24" viewBox="0 0 24 24" xmlns="http://www.w3.org/2000/svg"><path d="M21.91 15.9c0-.014.298-3.97.265-5.258a.653.653 0 00-.024-.188c-.01.003-.047-.01-.117-.01-.135.003-.212.064-.232.161l-.622 3.032c-.007.034-.027.054-.037.087a1.603 1.603 0 01-.212.81l-.003.004v.003l-1.846 3.123a.715.715 0 01-.991.255.735.735 0 01-.252-1.001l1.845-3.126.003-.004v-.003c.04-.067-.003-.239-.07-.282 0 0-.141-.081-.195.01l-.094.16c-.31.552-.952 1.698-2.26 2.374 0 0-.302.182-.843.884a9.63 9.63 0 00-1.223 2.128l-.105.249h3.496c.044 0 .088.01.135.013l2.151-1.839c.185-.158.38-.309.575-.453.144-.108.282-.276.413-.498.141-.228.222-.447.242-.632zm1.71-5.298c.037 1.361-.259 5.267-.272 5.435-.047.42-.192.83-.437 1.244a3.177 3.177 0 01-.787.914c-.174.131-.342.259-.507.397l-1.775 1.519c.171.265.272.585.272.924v.854c0 .955-.77 1.728-1.717 1.728h-4.148a1.725 1.725 0 01-1.718-1.728v-.854c0-.538.249-1.008.632-1.327l.508-1.217c.37-.884.847-1.711 1.415-2.454.746-.975 1.223-1.24 1.354-1.3.891-.465 1.372-1.322 1.63-1.782l.122-.212c.39-.632 1.14-.877 1.828-.649l.367-1.791c.16-.794.867-1.325 1.643-1.328 1.019.064 1.567.655 1.59 1.627zM5.227 19.31h3.496l-.105-.249a9.499 9.499 0 00-1.223-2.128c-.541-.702-.844-.884-.847-.887-1.3-.676-1.946-1.822-2.252-2.373l-.094-.165c-.054-.09-.195-.01-.199-.006-.067.04-.11.211-.07.279v.003l.003.003 1.846 3.126a.728.728 0 01-.619 1.103.723.723 0 01-.622-.356l-1.845-3.127v-.003l-.004-.003a1.603 1.603 0 01-.211-.81c-.01-.03-.03-.054-.037-.088l-.622-3.032a.207.207 0 00-.192-.164.87.87 0 00-.168.02c.004.013-.01.067-.013.178-.034 1.287.265 5.244.269 5.284.02.161.1.376.238.608.131.222.273.39.417.498.192.144.387.292.572.45l2.15 1.839c.044.01.085 0 .132 0zm4.723-.817l.51 1.217c.38.316.63.793.63 1.328v.853c0 .955-.77 1.732-1.715 1.732H5.227a1.725 1.725 0 01-1.714-1.732v-.853c0-.34.1-.656.269-.921l-1.775-1.52c-.165-.14-.336-.269-.504-.4a3.179 3.179 0 01-.79-.914c-.246-.417-.39-.827-.434-1.22-.013-.192-.31-4.098-.276-5.462.024-.975.575-1.567 1.506-1.617.878.007 1.567.531 1.731 1.324l.367 1.792c.689-.232 1.442.017 1.828.645l.121.212c.26.46.74 1.318 1.66 1.795.102.047.579.316 1.325 1.29a10.96 10.96 0 011.409 2.451zm5.146-12.518a.734.734 0 000-1.031.72.72 0 00-1.025 0l-3.426 3.458-1.257-1.27a.716.716 0 00-1.022 0 .734.734 0 000 1.032l1.768 1.785a.726.726 0 00.515.215c.185 0 .37-.074.51-.215l3.937-3.974zm2.867 3.456c-.47 2.726-5.368 5.13-5.926 5.395a.717.717 0 01-.619 0c-.557-.266-5.448-2.669-5.915-5.395-.353-2.017-.34-6.659-.337-6.854a.73.73 0 01.897-.71c1.046.162 1.587-.207 2.35-.715C9.18.639 10.134 0 11.728 0h.006c1.59 0 2.542.642 3.308 1.153.763.508 1.314.88 2.397.71a.733.733 0 01.854.713c.003.197.016 4.832-.33 6.856z" fill="#5CB615" fill-rule="nonzero"/></svg>