<svg width="24" height="24" xmlns="http://www.w3.org/2000/svg"><path d="M19.054 9.516c-.639 0-1.173-.192-1.546-.558-.37-.356-.562-.867-.562-1.469V6.124l3.49 3.392h-1.382zm-5.059-5.56H9.198c-.82 0-1.536.71-1.536 1.516v11.994l-5.153.02.004-15.977 11.482-.02v2.467zm8.612 5.758a.961.961 0 00-.249-.43l-5.19-5.042a1.008 1.008 0 00-.706-.286h-.965V1.49C15.497.682 14.808 0 13.992 0H2.516C1.699 0 1.01.682 1.01 1.49v15.996c0 .79.703 1.485 1.503 1.485h5.15v3.137c0 .823.702 1.516 1.535 1.516h11.933c.834 0 1.533-.693 1.533-1.516V10.01c0-.1-.02-.202-.057-.296z" fill="#313235" fill-rule="nonzero"/></svg>