<svg width="24" height="24" xmlns="http://www.w3.org/2000/svg"><path d="M11.51 11.708l-1.413.712c0-.343 0-.675-.006-.998l.92-.464a.66.66 0 00.357-.585V3.318h.887v7.072c0 .249.138.474.357.585l.914.464c-.003.322-.007.655-.007.998l-1.442-.73a.627.627 0 00-.568 0m11.802 4.098c-.706-4.165-3.711-7.67-4.124-8.134-.599-.908-1.432-1.348-2.545-1.348-1.745 0-2.387.998-2.618 1.64a4.288 4.288 0 00-.29.773c-.073.262-.127.71-.158 1.27l-.04-.02V3.15c0-.626-.5-1.137-1.116-1.137h-1.217c-.615 0-1.116.511-1.116 1.137v6.82l-.04.02c-.034-.578-.084-1.039-.161-1.308V8.68a4.204 4.204 0 00-.29-.77c-.228-.642-.87-1.64-2.614-1.64-1.113 0-1.947.44-2.545 1.348-.413.467-3.419 3.97-4.124 8.138-.558 3.3-.374 5.216.598 6.215.1.104.652.622 1.53.659.053.003.107.003.157.003 1.247 0 2.017-.659 2.44-1.019l.095-.08c.36-.3.457-.38.86-.38.491.003 1.782-.108 1.977-.161 1.277-.337 1.98-1.348 1.98-2.834.037-.834.104-2.528.134-4.272l1.714-.864 1.745.88c.03 1.755.097 3.46.134 4.293 0 1.502.703 2.514 1.973 2.847.205.057 1.506.165 1.974.165h.006c.407 0 .504.08.86.38l.095.08c.423.36 1.193 1.019 2.44 1.019.05 0 .104-.004.158-.004a2.351 2.351 0 001.533-.662c.971-1.002 1.153-2.917.595-6.215" fill="#313235" fill-rule="nonzero"/></svg>