<svg width="24" height="24" viewBox="0 0 24 24" xmlns="http://www.w3.org/2000/svg"><path d="M16.827 23.645H1.745C.783 23.645 0 22.842 0 21.857v-3.415a.78.78 0 01.249-.571.71.71 0 01.581-.185c.145.017.27.027.357.03h.043c.064 0 .135 0 .195-.007.215-.003.595-.02 1.029-.168 1.19-.38 1.788-1.317 1.788-2.796 0-1.483-.595-2.424-1.775-2.794-.464-.164-.874-.181-1.008-.188h-.32c-.067.003-.181.007-.319.024a.724.724 0 01-.575-.189A.765.765 0 010 11.03V7.982c0-.989.783-1.789 1.745-1.789H4.93a6.885 6.885 0 01-.037-.706c0-3.263 2.165-4.453 4.188-4.48h.35c2.057.057 4.239 1.267 4.239 4.5 0 .236-.014.464-.037.683h3.196c.958 0 1.735.803 1.735 1.788v2.29c.201-.024.37-.028.484-.028h.36c2.036.06 4.215 1.274 4.215 4.501 0 3.264-2.273 4.454-4.216 4.48a3.977 3.977 0 01-.843-.026v2.659c0 .988-.78 1.791-1.738 1.791" fill="#5CB615" fill-rule="nonzero"/></svg>