<svg width="24" height="24" viewBox="0 0 24 24" xmlns="http://www.w3.org/2000/svg"><path d="M14.622 20.965h-.151c-.434-.01-.911-.148-1.274-.457-.367-.31-.619-.784-.619-1.5 0-1.418 1.012-1.936 1.883-1.936h.16c.871.02 1.88.548 1.88 1.946 0 1.409-1.012 1.927-1.88 1.947m-5.448-8.86l.407-.549c.1-.127.151-.289.151-.447V1.523h4.205v9.586c0 .168.05.32.151.447l.414.558c-1.66.249-3.69.249-5.328-.01m.222 5.792h-.09c-.626-.01-1.265-.417-1.265-1.311 0-.884.636-1.29 1.264-1.29h.091c.635.01 1.274.416 1.274 1.3 0 .884-.639 1.29-1.274 1.3m14 3.466l-6.965-9.19-.981-1.3V1.523h.94c.428 0 .76-.34.76-.747a.752.752 0 00-.76-.746H7.305a.76.76 0 00-.76.746c0 .407.343.747.76.747h.908v9.348l-.972 1.29L.235 21.56a1.344 1.344 0 00-.02 1.391 1.4 1.4 0 001.224.706H22.14c.555 0 1.072-.289 1.335-.766.262-.474.242-1.032-.081-1.53" fill="#5CB615" fill-rule="nonzero"/></svg>