<svg width="24" height="24" viewBox="0 0 24 24" xmlns="http://www.w3.org/2000/svg"><path d="M22.918 20.09H.713a.674.674 0 01-.673-.673c0-.37.303-.672.673-.672h22.205c.37 0 .672.302.672.672 0 .37-.303.672-.672.672zm-.232-15.914c-.676-.773-1.684-1.166-3.005-1.166H3.95c-1.318 0-2.33.393-3.005 1.166C.319 4.896 0 5.938 0 7.276v5.926c0 1.337.32 2.38.945 3.099.675.773 1.684 1.166 3.005 1.166h15.73c1.318 0 2.33-.393 3.006-1.163.628-.72.944-1.761.944-3.099v-5.93c0-1.337-.32-2.38-.944-3.099zm-12.85 7.416a7.462 7.462 0 00-.091.605c-.034.245-.064.497-.108.692-.108.494-.444.777-.904.777-.084 0-.165-.01-.249-.027-.175-.034-.504-.128-1.052-.28l-.282-.077a.506.506 0 01.268-.974l.283.077.04.01c-.302-.625-.457-1.385-.457-2.266 0-2.81 1.583-4.356 4.457-4.356a6.397 6.397 0 011.496.165c.269.074.427.35.356.618a.507.507 0 01-.591.363 5.484 5.484 0 00-1.26-.134c-2.32 0-3.45 1.096-3.45 3.348 0 .806.148 1.469.44 1.983l.007-.057c.03-.242.064-.49.108-.69a.507.507 0 01.595-.393.507.507 0 01.393.595c.004.014.004.014 0 .02zm6.977-3.822a.506.506 0 01-.621.353l-.283-.078-.043-.013c.302.625.457 1.385.457 2.265 0 2.81-1.584 4.357-4.457 4.357a6.462 6.462 0 01-1.483-.162.503.503 0 11.235-.981c.41.094.83.138 1.248.134 2.319 0 3.448-1.095 3.448-3.348 0-.806-.148-1.468-.44-1.983l-.007.057c-.03.242-.064.491-.107.69a.507.507 0 01-.595.393.507.507 0 01-.39-.602c.033-.155.064-.383.09-.605.034-.245.064-.497.108-.692.124-.582.568-.871 1.15-.753.174.033.504.127 1.055.279l.283.077c.268.07.426.346.352.612z" fill="#313235" fill-rule="nonzero"/></svg>