<svg width="24" height="24" viewBox="0 0 24 24" xmlns="http://www.w3.org/2000/svg"><path d="M19.664 19.069a1.404 1.404 0 00-.511-1.916 1.408 1.408 0 00-1.916.514 1.406 1.406 0 001.213 2.104 1.408 1.408 0 001.213-.703zm-3.311-4.208a.51.51 0 00.726.006l1.563-1.536-.726-.726-1.556 1.53a.514.514 0 00-.007.726zm-3.025-1.281l2.783-2.787-.726-.726-2.783 2.787a.511.511 0 000 .726.512.512 0 00.726 0zM11.63 9.97c.131 0 .26-.05.36-.148l1.586-1.56-.726-.726-1.58 1.553a.514.514 0 00.36.88zM8.188 8.582l2.854-2.858-.726-.726-2.854 2.857a.511.511 0 000 .727.512.512 0 00.726 0zm-1.697-3.61a.5.5 0 00.36-.148L8.51 3.19l-.726-.726L6.13 4.09a.514.514 0 00.36.88zM23.304 17.32c.202.269.32.595.32.938 0 .42-.165.817-.461 1.112l-3.822 3.826c-.296.299-.692.46-1.112.46-.42 0-.814-.161-1.11-.46L.461 6.527a1.578 1.578 0 010-2.224L4.286.477c.591-.595 1.63-.595 2.222 0L6.77.74l.013-.01 16.555 16.562-.034.03z" fill="#313235" fill-rule="nonzero"/></svg>