<svg width="24" height="24" xmlns="http://www.w3.org/2000/svg"><path d="M2.847 10.235a.587.587 0 00.588-.588v-.766c0-1.64.763-2.404 2.404-2.404h.077l-.343.296a.59.59 0 00.756.904l.01-.01c.165-.14.992-.854 1.147-1.005.48-.48.477-1.082-.007-1.566-.3-.3-1.106-.988-1.14-1.015a.587.587 0 00-.83.067.587.587 0 00.067.83c.085.07.226.192.38.33h-.114c-1.12 0-2 .302-2.615.894-.642.618-.965 1.522-.965 2.685v.767a.58.58 0 00.585.581zM22.68 2.901c-.612-.592-1.486-.89-2.592-.89H12.72c-1.106 0-1.976.298-2.591.89-.639.615-.962 1.51-.962 2.662v13.872c0 1.15.323 2.047.962 2.662.611.592 1.485.891 2.591.891h7.372c1.106 0 1.976-.299 2.591-.89.639-.616.962-1.51.962-2.663V5.563c-.004-1.15-.326-2.044-.965-2.662zm-5.724 17.398c-.135.135-.33.198-.568.198-.24 0-.434-.063-.569-.198-.12-.124-.191-.306-.191-.554 0-.515.3-.753.76-.753s.76.238.76.753c0 .245-.071.43-.192.554zm-11.19-8.78H2.14c-1.33 0-2.124.794-2.124 2.125v7.19c0 1.33.793 2.124 2.124 2.124h3.624c1.33 0 2.124-.793 2.124-2.124v-7.19c-.003-1.331-.797-2.125-2.124-2.125zM4.43 20.733c-.08.08-.195.117-.34.117a.473.473 0 01-.339-.117c-.074-.074-.114-.185-.114-.33 0-.306.178-.447.45-.447.273 0 .454.141.454.447a.449.449 0 01-.11.33z" fill="#313235" fill-rule="nonzero"/></svg>