<svg width="24" height="24" xmlns="http://www.w3.org/2000/svg"><path d="M13.198 0c.172 0 .336.067.46.185l6.555 6.218a.672.672 0 01.212.488v15.412c0 .705-.622 1.327-1.328 1.327H4.341c-.706 0-1.328-.622-1.328-1.327V1.328C3.013.645 3.66 0 4.341 0zm2.007 12.924a.504.504 0 00-.504.505v.37c-.988.177-1.6.877-1.6 1.878 0 .666.289 1.49 1.6 1.768v1.893a2.906 2.906 0 01-.918-.417.613.613 0 00-.322-.104c-.276 0-.501.222-.505.497 0 .185.081.333.239.444.45.31.968.51 1.51.588v.36a.504.504 0 101.008 0v-.37c.48-.07.884-.242 1.186-.504.404-.35.619-.844.615-1.429 0-.709-.319-1.586-1.805-1.828v-1.788c.236.057.46.144.673.262.097.054.194.08.295.084a.488.488 0 00.488-.488c0-.107-.037-.309-.286-.46a3.05 3.05 0 00-1.17-.397v-.36a.504.504 0 00-.504-.504zm-4.793-1.744a.674.674 0 00-.673.672v8.467c0 .37.303.673.673.673.37 0 .672-.303.672-.673v-8.467a.674.674 0 00-.672-.672zM7.1 5.92a.674.674 0 00-.672.672v13.71c0 .37.302.673.672.673.37 0 .672-.303.672-.672V6.592a.674.674 0 00-.672-.673zm8.612 11.69c.695.172.8.498.8.834 0 .46-.296.786-.8.907zm-1.009-2.803v1.583c-.514-.182-.598-.477-.598-.756 0-.41.215-.7.598-.827zm-1.17-12.888v2.35c0 .78.246 1.439.706 1.9.46.46 1.116.705 1.9.705h2.618l-5.224-4.955z" fill="#313235" fill-rule="nonzero"/></svg>