<svg width="24" height="24" xmlns="http://www.w3.org/2000/svg"><path d="M11.808 0c7.728 0 11.816 4.087 11.816 11.815 0 7.724-4.088 11.809-11.816 11.809C4.084 23.624 0 19.539 0 11.815 0 4.087 4.084 0 11.808 0zm2.306 4.89a.787.787 0 00-.843-.1.767.767 0 00-.447.7v1.223h-4.42c-.31 0-.599.12-.817.336a1.13 1.13 0 00-.337.817V18c0 .272.222.49.491.49h3.553c.272 0 .49-.221.49-.49v-6.538h1.043v1.214c0 .299.175.571.444.699.279.13.601.094.88-.135l3.68-3.563a.789.789 0 00.28-.591.754.754 0 00-.249-.565l-3.748-3.63z" fill="#313235" fill-rule="nonzero"/></svg>