<svg width="24" height="24" viewBox="0 0 24 24" xmlns="http://www.w3.org/2000/svg"><path d="M19.193 1.003c-.437.007-.867.05-1.294.131-.975.182-1.728.532-2.235 1.04-.511.51-.864 1.276-1.046 2.268-.073.407-.114.82-.12 1.234a.4.4 0 01-.027.067L4.743 15.47a.4.4 0 01-.067.026c-.427.007-.85.05-1.268.128-.978.182-1.727.531-2.235 1.039-.51.51-.864 1.277-1.045 2.269-.078.417-.118.84-.121 1.264-.004.242.06.477.181.685.202.336.565.542.955.542.225 0 .565-.068.887-.394l.804-.803.83.118.118.83-.8.803a1.359 1.359 0 00-.31.457c-.235.568.034 1.22.602 1.462.171.074.356.111.541.108h.007c.433-.007.867-.05 1.29-.128.979-.181 1.728-.53 2.236-1.038.51-.511.864-1.278 1.045-2.27.074-.406.115-.82.121-1.233a.4.4 0 01.027-.067L18.27 9.54a.4.4 0 01.067-.027c.427-.006.85-.05 1.267-.127.975-.182 1.728-.532 2.236-1.04.51-.51.864-1.276 1.045-2.268.077-.417.118-.84.121-1.264a1.299 1.299 0 00-.185-.686 1.114 1.114 0 00-.954-.54c-.226 0-.565.066-.888.393l-.803.803-.83-.118-.118-.83.807-.803c.134-.131.238-.286.309-.458a1.124 1.124 0 00-.602-1.462 1.308 1.308 0 00-.541-.107l-.007-.004z" fill="#313235" fill-rule="nonzero"/></svg>