<svg width="24" height="24" xmlns="http://www.w3.org/2000/svg"><path d="M.884 6.366c0-.413.333-.75.74-.75h.45c-.01-.174-.037-.335-.037-.52 0-.05.01-.094.01-.145H1.62a.744.744 0 01-.74-.75c0-.413.333-.749.74-.749h.619C2.763 1.287 4.379.101 6.958.101c.965 0 1.805.165 2.5.494.37.175.532.622.36.998a.736.736 0 01-.981.367c-.5-.236-1.133-.357-1.879-.357-1.714 0-2.753.599-3.193 1.85h2.443c.41 0 .74.335.74.749 0 .413-.333.75-.74.75H3.526c0 .05-.01.093-.01.144 0 .185.02.35.03.52h2.662c.41 0 .74.337.74.75 0 .414-.333.75-.74.75H3.93c.508.988 1.496 1.472 3.029 1.472.756 0 1.392-.12 1.896-.363a.736.736 0 01.985.36.757.757 0 01-.353 1.002c-.703.336-1.553.507-2.528.507-2.427 0-4.013-1.045-4.629-2.971H1.62a.753.753 0 01-.736-.757zm14.306-.672a.908.908 0 01-.824-.534.969.969 0 01.121-1.012L18.26.289c.097-.131.316-.255.558-.282a.883.883 0 01.672.198c.04.034.104.098.138.138l3.66 3.758c.273.333.32.73.165 1.059a.91.91 0 01-.827.534l-1.375.01.004 2.373c0 .736-.588 1.331-1.311 1.331h-2.06a1.32 1.32 0 01-1.312-1.327l-.003-2.373-1.378-.014zm6.225 16.148c.635-.192.73-.39.73-.39V20.43c-.098.04-.192.084-.3.118-.726.222-1.663.343-2.645.343s-1.92-.121-2.645-.343c-.111-.034-.205-.077-.306-.118v1.025c.013.027.124.206.726.39 1.173.357 3.257.357 4.44-.003zm-7.378.003c.383-.117.615-.272.723-.376v-1.08c-.098.038-.189.082-.296.115-.723.222-1.664.343-2.646.343-.981 0-1.919-.12-2.645-.343-.114-.033-.208-.08-.312-.12v1.095c.094.087.312.239.736.37 1.18.353 3.27.353 4.44-.004zm-7.382 0c.41-.124.626-.285.727-.383V20.4c-.101.037-.189.08-.3.114-.722.222-1.664.343-2.645.343-.982 0-1.923-.12-2.645-.343-.115-.033-.209-.08-.313-.12v1.078c.09.091.31.239.74.37 1.176.363 3.267.36 4.436.003zm-4.443-3.24a2.175 2.175 0 00-.548.235c.11.07.286.155.554.236 1.177.356 3.261.36 4.437 0 .26-.081.434-.162.548-.232a2.332 2.332 0 00-.55-.239c-1.177-.36-3.265-.36-4.441 0zm7.381-2.783c-.262.08-.433.165-.544.232.107.07.269.154.551.238 1.176.357 3.267.357 4.437 0 .262-.08.434-.16.548-.231a2.028 2.028 0 00-.551-.24c-1.173-.355-3.264-.355-4.44 0zm7.378-2.73c-.265.081-.433.162-.544.232.107.071.272.155.555.239 1.173.356 3.26.36 4.436 0 .263-.08.434-.161.548-.232a2.198 2.198 0 00-.55-.239c-1.18-.36-3.265-.363-4.445 0zm-.726 4.558v1.096c.094.091.316.239.733.363 1.18.36 3.26.36 4.44 0 .39-.12.622-.279.727-.383V17.65c-.101.04-.192.084-.3.118-.719.219-1.66.343-2.645.343-.985 0-1.923-.121-2.645-.343-.115-.034-.209-.08-.31-.118zm.306-2.648c-.114-.034-.208-.081-.312-.121v1.079c.094.09.309.238.74.37 1.176.36 3.263.36 4.436 0 .41-.125.629-.286.726-.384v-1.062c-.1.04-.188.08-.299.114-.726.222-1.664.343-2.645.343-.982 0-1.92-.12-2.646-.34zm-7.69 3.69c.094.091.312.24.739.37 1.18.356 3.26.36 4.437 0 .407-.124.622-.279.72-.38v-1.065c-.098.037-.189.08-.296.114-.72.222-1.661.343-2.646.343-.985 0-1.923-.121-2.645-.343-.115-.037-.209-.08-.313-.12v1.081h.004zm12.978-7.038c1.475.45 1.785 1.247 1.785 1.835v7.956c0 .589-.31 1.385-1.785 1.836-.726.222-1.668.343-2.65.343-.98 0-1.918-.121-2.644-.343a3.444 3.444 0 01-1.046-.501 3.618 3.618 0 01-1.035.5c-.72.223-1.66.344-2.646.344-.984 0-1.922-.121-2.645-.343a3.605 3.605 0 01-1.059-.501 3.597 3.597 0 01-1.032.5c-.719.223-1.66.344-2.645.344-.985 0-1.926-.121-2.645-.343-.693-.212-1.2-.531-1.506-.928A.736.736 0 010 21.775v-2.773c0-.141.02-.286.057-.42v-.004c.185-.642.767-1.116 1.728-1.408 1.445-.44 3.849-.44 5.294 0 .11.033.205.074.303.11v-1.058c0-.148.02-.29.06-.424.182-.642.763-1.116 1.724-1.408 1.446-.444 3.852-.444 5.295 0 .11.034.201.07.299.11v-1.008c0-.144.02-.289.06-.423.185-.642.763-1.116 1.725-1.408 1.448-.45 3.848-.45 5.294-.007z" fill="#313235" fill-rule="nonzero"/></svg>