<svg width="24" height="24" viewBox="0 0 24 24" xmlns="http://www.w3.org/2000/svg"><path d="M8.884 1.012A.494.494 0 018.41.497.49.49 0 018.89 0h.444c.491 0 .908.346 1.042.864.044.168.105.477.172.837h3.439a.47.47 0 01.383.202.53.53 0 01.077.443s-.336 1.244-.518 1.89c-.174.635-.601 1.014-1.136 1.014h-1.647c-.699 0-1.106-.658-1.193-1.27-.054-.35-.171-1.042-.28-1.667-.002-.01-.002-.02-.006-.034-.087-.5-.175-.955-.225-1.153-.03-.11-.1-.118-.118-.118-.235.007-.44.004-.44.004zm2.326 4.682h.034c.09.003.443.04.443.488 0 .45-.353.487-.44.487h-.044c-.094-.003-.44-.037-.44-.49 0-.451.346-.485.437-.488h.01v.003zm1.48 0h.033c.09.003.443.04.443.488 0 .45-.353.487-.44.487h-.04c-.094-.003-.44-.037-.44-.49 0-.451.346-.485.436-.488h.007v.003zm7.139 16.353h2.383V12.76h-2.383v9.287zm-4.999.017v-5.012H9.153v5.035l5.677-.023zm-3.785-11.126c-.205.208-.309.568-.309 1.065 0 .498.104.85.31 1.06.198.204.53.305.988.305.457 0 .79-.1.991-.306.205-.208.31-.561.31-1.059 0-.497-.105-.853-.31-1.062-.201-.205-.534-.31-.991-.31-.458 0-.79.105-.989.307zm-9.57 11.11H3.86V12.76H1.476v9.287zm21.46-10.808c.396 0 .722.34.722.76v10.807c0 .42-.326.813-.726.813h-7.14l-.241.004H8.427c-.03 0-.05-.014-.08-.017l-4.192.017H4.15l-.443-.004H.753c-.397 0-.723-.393-.723-.813V12c0-.42.323-.76.723-.76H4.12V8.393c0-.743.726-1.391 1.55-1.391h12.605c.827 0 1.55.652 1.55 1.395v2.847h3.108v-.004z" fill="#313235" fill-rule="nonzero"/></svg>