<svg width="24" height="24" viewBox="0 0 24 24" xmlns="http://www.w3.org/2000/svg"><path d="M5.531 1.896c-.262.161-1.055.655-1.055 2.45v13.388h14.843c0-5.085-.006-13.401-.006-13.401 0-.044.003-.088.006-.135 0 0 .074-1.216-.615-1.983-.44-.487-1.163-.736-2.151-.736l-9.3.003c-.035 0-.065-.003-.098-.003h-.05c-.216-.003-.952.027-1.574.417zm15.207 2.433s.007 10.209.007 14.921c0 4.111-3.21 4.374-4.03 4.374-.122 0-.189-.004-.189-.004s-4.508.004-9.257.004c-4.75 0-4.225-4.367-4.225-4.367V4.353C3.044.239 6.35.007 7.097.007c.095 0 .148.003.148.003s4.737-.003 9.301-.003c4.568-.004 4.192 4.322 4.192 4.322zm-8.85 15.358c-.616 0-.985.37-.985.985 0 .3.084.541.255.716.175.175.427.27.73.27.302 0 .554-.095.729-.27.171-.175.255-.417.255-.716 0-.615-.37-.985-.985-.985z" fill="#5CB615" fill-rule="nonzero"/></svg>