<svg width="24" height="24" xmlns="http://www.w3.org/2000/svg"><path d="M16.528 6.847A.69.69 0 0015.438 6L7.107 16.713a.687.687 0 00.541 1.112c.205 0 .41-.09.545-.265l8.336-10.713zM14.598 17.2c1.254 0 1.987-.632 1.987-1.987 0-1.354-.733-1.986-1.987-1.986-1.253 0-1.986.632-1.986 1.986 0 1.355.73 1.987 1.986 1.987zM9.025 6.571c-1.257 0-1.986.636-1.986 1.987s.73 1.987 1.986 1.987c1.254 0 1.987-.636 1.987-1.987 0-1.355-.733-1.987-1.987-1.987zM11.808 0c7.463 0 11.816 3.768 11.816 11.815S19.27 23.624 11.808 23.624C4.346 23.624 0 19.862 0 11.815 0 3.768 4.346 0 11.808 0z" fill="#313235" fill-rule="nonzero"/></svg>