<svg width="24" height="24" viewBox="0 0 24 24" xmlns="http://www.w3.org/2000/svg"><path d="M19.066 12.571a.725.725 0 01-.72-.719c0-.403.326-.72.72-.72h.554c-.326-6.066-5.018-7.102-7.086-7.256v.719c0 .403-.326.72-.719.72a.712.712 0 01-.72-.72v-.74c-1.871.048-6.937.827-7.246 7.278h.712c.404 0 .72.316.72.72 0 .392-.316.718-.72.718H3.86c.413 6.182 5.317 7.016 7.237 7.103v-.575c0-.393.316-.72.72-.72.392 0 .718.327.718.72v.558c2.027-.124 6.693-1.102 7.076-7.082h-.544v-.004zm3.838-1.442c.404 0 .72.316.72.72 0 .393-.316.72-.72.72h-1.852c-.413 7.39-6.497 8.4-8.514 8.523v1.842c0 .404-.326.72-.72.72a.712.712 0 01-.719-.72V21.11c-1.822-.077-8.225-.9-8.679-8.544H.723a.725.725 0 01-.72-.72c0-.403.326-.719.72-.719H2.41c.336-7.94 6.941-8.669 8.686-8.726V.75c0-.394.316-.72.72-.72.392 0 .718.326.718.72v1.68c2.064.145 8.169 1.23 8.525 8.696h1.845v.003zM14.282 9.22c0 .844-.232 1.49-.682 1.92-.44.413-1.066.625-1.872.625-.807 0-1.432-.212-1.862-.626-.45-.433-.683-1.075-.683-1.919 0-.833.232-1.479.683-1.91.433-.423 1.055-.631 1.862-.631.806 0 1.432.212 1.872.632.454.43.682 1.076.682 1.91zm1.977 6.488v.853a.295.295 0 01-.3.286H7.497a.295.295 0 01-.29-.286v-.853c0-.807.25-1.496.73-1.997.518-.545 1.298-.824 2.235-.824h3.11c.94 0 1.717.28 2.235.824.484.5.743 1.193.743 1.997z" fill="#5CB615" fill-rule="nonzero"/></svg>