<svg width="24" height="24" viewBox="0 0 24 24" xmlns="http://www.w3.org/2000/svg"><path d="M17.287 13.277c.78.437 1.738.68 2.73.68.776 0 1.492-.159 2.128-.41v8.144c0 1.065-.817 1.933-1.819 1.933h-5.361V16.85c0-.816-.592-1.479-1.318-1.479h-3.644c-.73 0-1.317.663-1.317 1.48v6.773H3.294c-1.005 0-1.818-.868-1.818-1.933v-8.145c.635.256 1.35.41 2.127.41 1.002 0 1.967-.245 2.747-.689.78.44 1.744.69 2.746.69.746 0 1.482-.139 2.138-.397a5.06 5.06 0 00.591-.283c.78.437 1.738.68 2.733.68.995 0 1.953-.243 2.73-.68zm5.721-4.312c.394.4.616.907.616 1.438 0 1.439-1.584 2.568-3.604 2.568-1.065 0-2.054-.326-2.73-.88-.672.554-1.663.88-2.732.88-1.066 0-2.054-.326-2.73-.88a3.6 3.6 0 01-.957.554 4.797 4.797 0 01-1.772.326c-1.075 0-2.067-.326-2.746-.894-.672.565-1.67.894-2.746.894-2.02 0-3.604-1.129-3.604-2.568 0-.51.229-.87.414-1.16.074-.117.151-.235.208-.37.118-.271 1.029-3.22 1.698-5.374.33-1.062.635-2.05.843-2.712.148-.444.558-.74 1.022-.743L19.425 0h.004c.474 0 .884.3 1.028.746L21.97 5.55c.06.184.151.52.259.91.201.733.621 2.256.78 2.505z" fill="#313235" fill-rule="nonzero"/></svg>