<svg width="24" height="24" viewBox="0 0 24 24" xmlns="http://www.w3.org/2000/svg"><path d="M19.926 19.9c2.306-2.307 2.383-4.542.235-6.834a1.317 1.317 0 00-.12-.121l-.112-.108-.753-.75-7.072 7.07.199.194c.137.158.242.252.346.353l.212.205c2.376 2.37 4.689 2.37 7.065-.01zM1.953 7.317c.02 1.136.625 2.306 1.795 3.475l.198.205c.101.105.199.209.306.303l.064.064 7.076-7.073-.693-.692C9.553 2.49 8.424 1.936 7.287 1.936c-1.173 0-2.346.595-3.54 1.788-1.213 1.21-1.814 2.42-1.794 3.594zm19.64 4.467c2.847 3.039 2.75 6.413-.309 9.469-1.576 1.58-3.237 2.37-4.897 2.37-1.654 0-3.311-.787-4.884-2.363l-.179-.172c-.15-.144-.299-.289-.427-.437l-.786-.786c-.014-.014-.03-.017-.044-.03L3.63 13.401c-.01-.01-.013-.024-.023-.034l-.662-.662a5.813 5.813 0 01-.394-.387l-.164-.171C.857 10.618.064 9.005.034 7.355.004 5.64.794 3.96 2.39 2.366 5.492-.739 8.924-.79 12.044 2.232l1.361 1.361c.007.007.017.007.024.014l6.437 6.433c.003.004.006.014.013.02l1.49 1.486c.076.08.157.155.224.239zm-10.326-.582a.732.732 0 101.036 1.036.732.732 0 00-1.036-1.036zm-.649 3.342a.732.732 0 101.037 1.035.732.732 0 00-1.037-1.035zm5.106-4.071a.732.732 0 10-1.035 1.036.732.732 0 001.035-1.036zm-7.73 1.422a.732.732 0 101.035 1.035.732.732 0 00-1.036-1.035zm4.07-4.074a.732.732 0 101.035 0 .739.739 0 00-1.035 0z" fill="#5CB615" fill-rule="nonzero"/></svg>