<svg width="24" height="24" xmlns="http://www.w3.org/2000/svg"><path d="M20.934 14.934l-7.65 2.199a1.5 1.5 0 01-1.472 1.166 1.491 1.491 0 01-1.506-1.479c0-.817.676-1.475 1.506-1.475.413 0 .786.16 1.059.426l7.657-2.201a.722.722 0 01.897.48.709.709 0 01-.49.884zm-13.95-4.15a.733.733 0 01-1.024 0l-.693-.68a.702.702 0 010-1.005.733.733 0 011.025 0l.693.68a.696.696 0 010 1.004zm-2.423 4.732H3.58c-.4 0-.723-.32-.723-.71 0-.39.326-.709.723-.709h.981c.4 0 .723.32.723.71 0 .39-.323.709-.723.709zm6.511-7.839c0-.393.326-.709.723-.709.4 0 .723.32.723.71v.96c0 .394-.326.71-.723.71-.4 0-.723-.32-.723-.71v-.96zm5.526 2.105l.693-.68a.733.733 0 011.025 0 .702.702 0 010 1.006l-.692.679a.731.731 0 01-1.022 0 .7.7 0 01-.004-1.005zM11.808 4C4.084 4 0 8.007 0 15.583c0 1.728.218 3.29.649 4.649a.722.722 0 00.692.497h20.931a.725.725 0 00.649-.396l.024-.05a.968.968 0 00.043-.105c.42-1.344.636-2.89.636-4.595C23.624 8.007 19.539 4 11.808 4z" fill="#313235" fill-rule="nonzero"/></svg>