<svg width="24" height="24" viewBox="0 0 24 24" xmlns="http://www.w3.org/2000/svg"><path d="M12.057 15.748a.226.226 0 01.037-.024c.007-.003.017-.01.027-.013a.452.452 0 01.279-.027.73.73 0 01.08.024h.004c.027.01.05.023.074.04a.53.53 0 01.145.155c.013.02.033.036.04.06l.003.003.007.01v.004l.144.336c.024.06.037.124.037.188a.477.477 0 01-.712.417c-.01-.003-.017-.01-.024-.017a.447.447 0 01-.181-.215l-.007-.017-.003.004-.007.01a.444.444 0 01-.141.188c-.004.003-.007.003-.01.007l-.03.02c-.007.003-.014.01-.02.013a.475.475 0 01-.24.068.427.427 0 01-.114-.017l-.063-.02h-.011a.157.157 0 01-.033-.017c-.027-.017-.047-.037-.074-.054-.01-.007-.024-.013-.037-.024l-.014-.01c-.023-.023-.037-.053-.053-.08l-.03-.05a.472.472 0 01-.044-.115.466.466 0 01.024-.266c0-.003.003-.006.003-.01l.006-.013.007-.02.131-.323a.48.48 0 01.259-.249c.003 0 .003-.003.007-.003h.003c.007 0 .013 0 .017-.003a.475.475 0 01.265-.017c.027.006.054.013.078.023.043.02.077.05.114.078.024-.017.04-.03.057-.044zm-2.622-.313a.594.594 0 01-.127-.05.45.45 0 01-.121-.074.449.449 0 01-.115-.215.454.454 0 01-.013-.094c0-.01-.007-.02-.007-.03v-.03a.49.49 0 01.135-.31l.393-.393-.393-.394a.464.464 0 01-.132-.265.55.55 0 01-.006-.074c0-.003.003-.003.003-.007 0-.027.003-.057.01-.084a.477.477 0 01.128-.252.514.514 0 01.383-.138.48.48 0 01.296.135l.393.393.393-.393a.472.472 0 01.427-.128c.091.017.179.06.252.128a.468.468 0 01.121.272c.004.013.004.023.007.037a.272.272 0 01.004.054v.013a.46.46 0 01-.132.306l-.393.393.393.394a.472.472 0 01.132.272c.003.02.003.044.003.064 0 .02-.003.043-.01.064l-.01.037a.478.478 0 01-.118.245c-.034.03-.074.05-.11.07a.565.565 0 01-.115.05c-.003 0-.007.004-.014.004a.347.347 0 01-.1.014.456.456 0 01-.25-.08l-.023-.018c-.023-.017-.047-.023-.067-.043l-.39-.394-.39.394c-.023.026-.054.037-.084.057h-.003a.47.47 0 01-.252.084.759.759 0 01-.004 0c.091 0 .175-.034.253-.084l.003-.004-.35.074zm1.197-4.544c-1.012.309-2.239 1.146-2.239 3.391 0 1.11.306 1.883.733 2.41l.1.118c.192.212.404.38.623.514v.26c0 .093.006.18.023.261.03.152.084.283.168.387.03.037.06.07.098.1.181.165.44.25.773.25h2.104c.336 0 .592-.088.777-.25a.61.61 0 00.08-.08c.135-.161.199-.39.199-.665v-.26c.773-.48 1.452-1.37 1.452-3.021 0-1.24-.387-2.054-.905-2.585a2.881 2.881 0 00-.285-.255c-.824-.646-1.836-.733-2.225-.74-.014 0-.024-.003-.037-.003-.095-.007-.202-.007-.296-.007a4.117 4.117 0 00-1.086.161c-.023 0-.04.007-.057.014zM8.77 4.837a.717.717 0 01-.716-.72V2.8a.72.72 0 01.716-.72c.396 0 .716.323.716.72v1.318c0 .396-.32.719-.716.719zm2.047 0a.717.717 0 01-.716-.72V2.8a.72.72 0 01.716-.72c.396 0 .716.323.716.72v1.318c0 .396-.32.719-.716.719zm2.047 0a.717.717 0 01-.716-.72V2.8a.72.72 0 01.716-.72c.397 0 .716.323.716.72v1.318a.715.715 0 01-.716.719zm2.05 0a.717.717 0 01-.716-.72V2.8a.72.72 0 01.716-.72c.397 0 .716.323.716.72v1.318a.72.72 0 01-.716.719zM5.496 8.861h12.766c-.154-1.073-.669-1.795-1.53-2.138a1.691 1.691 0 01-.85.238h-8.09c-.286 0-.545-.087-.784-.211-.285.124-.544.268-.753.47-.406.393-.662.941-.76 1.64zm9.734 13.357c1.567 0 2.535-.621 2.908-1.852H5.62c.135.44.343.807.632 1.096.514.498 1.29.756 2.293.756h6.685zM7.533 1.741v3.513c0 .144.114.269.259.269h8.09a.268.268 0 00.27-.27V1.742a.268.268 0 00-.27-.269h-8.09a.266.266 0 00-.26.27zm10.03 3.762c1.415.699 2.188 2.13 2.188 4.077l-.01 9.51c0 2.86-1.69 4.567-4.51 4.567H8.544c-1.389 0-2.495-.393-3.288-1.16-.83-.806-1.254-1.946-1.254-3.405V9.58c0-1.449.42-2.588 1.264-3.398.249-.25.545-.44.86-.616a1.907 1.907 0 01-.026-.316V1.738A1.7 1.7 0 017.79.03h8.091a1.71 1.71 0 011.705 1.708V5.25a2.8 2.8 0 01-.024.253zm-4.914 8.339a.48.48 0 01-.138-.34c0-.003.003-.003.003-.006a.513.513 0 01.135-.336.491.491 0 01.679 0l.393.393.393-.393a.491.491 0 01.68 0c.063.07.097.154.117.242a.422.422 0 01.007.171.466.466 0 01-.125.266l-.393.393.393.393c.08.08.121.188.128.296a.41.41 0 01-.017.168.49.49 0 01-.114.219c-.034.03-.07.047-.111.067a.49.49 0 01-.232.07.465.465 0 01-.272-.097c-.02-.014-.047-.024-.067-.04l-.394-.394-.393.394a.354.354 0 01-.08.05.472.472 0 01-.256.084.445.445 0 01-.222-.064.45.45 0 01-.121-.074.521.521 0 01-.131-.312c0-.01-.007-.02-.007-.03a.48.48 0 01.138-.34l.393-.393-.386-.387z" fill="#5CB615" fill-rule="nonzero"/></svg>