<svg width="24" height="24" viewBox="0 0 24 24" xmlns="http://www.w3.org/2000/svg"><path d="M19.93 21.138c1.855-.148 2.154-1.634 2.198-2.521h-2.199v2.52zM1.491 18.637c.034.427.165 1.207.683 1.761.353.373.86.605 1.52.696v-2.457H1.491zM2.504 2.943c-.238.151-.917.615-1.005 2.168h2.195V2.546c-.343.04-.79.138-1.19.397zm19.634 2.151c-.02-.403-.125-1.237-.666-1.822-.35-.38-.867-.615-1.54-.709v2.531h2.206zm-2.209 12.024h2.209v-2.505h-2.209v2.505zm0-8.017h2.209V6.597h-2.209V9.1zm0 4.007h2.209v-2.505h-2.209v2.505zM1.482 17.134h2.209V14.63H1.482v2.504zm0-8.023h2.212V6.613H1.482v2.498zm0 1.502v2.511h2.209v-2.51H1.482zm17.765-9.6c4.71 0 4.366 4.437 4.366 4.437s.004 7.748.004 12.743c0 4.094-2.931 4.464-3.99 4.464-.232 0-.377-.02-.377-.02H4.35c-4.636 0-4.34-4.42-4.34-4.42S.007 10.227.007 5.424c0-4.121 3.186-4.414 4.09-4.414.148 0 .236.007.236.007s10.205-.004 14.914-.004zM9.11 14.933V8.738l5.267 3.099-5.267 3.096zm7.116-3.748L8.74 6.788a.728.728 0 00-.739 0 .756.756 0 00-.37.652v8.797a.747.747 0 00.74.75.729.729 0 00.37-.101l7.482-4.397a.756.756 0 00.37-.652.753.753 0 00-.367-.652z" fill="#5CB615" fill-rule="nonzero"/></svg>