<svg width="24" height="24" viewBox="0 0 24 24" xmlns="http://www.w3.org/2000/svg"><path d="M19.324 11.153c-.164.155-.4.232-.702.232-.303 0-.538-.077-.703-.232-.171-.161-.255-.397-.255-.71 0-.312.087-.55.255-.712.165-.155.4-.235.703-.235.302 0 .538.08.702.235.172.161.26.4.26.713-.004.312-.092.551-.26.709M17.382 9.27c-.162.154-.4.232-.703.232-.3 0-.538-.078-.703-.232-.168-.162-.252-.404-.252-.71 0-.309.088-.548.252-.709.165-.158.4-.235.703-.235.303 0 .538.077.703.235.17.161.255.4.255.71 0 .309-.084.547-.255.709m0 3.768c-.162.158-.4.235-.703.235-.3 0-.538-.077-.703-.235-.168-.162-.252-.4-.252-.71 0-.309.088-.547.252-.709.165-.158.4-.235.703-.235.303 0 .538.08.703.235.17.162.255.4.255.71 0 .309-.084.547-.255.709m-1.943-1.886c-.165.155-.4.232-.703.232-.302 0-.538-.077-.702-.232-.168-.161-.256-.397-.256-.71 0-.312.088-.55.256-.712.164-.155.4-.235.702-.235.303 0 .538.08.703.235.168.161.255.4.255.713.003.312-.084.551-.255.709m-5.893.225c-.225.212-.554.32-.981.32H8.43l.004.026a.994.994 0 01.023.212c0 .437-.118.77-.346.985-.222.212-.555.32-.982.32-.43 0-.76-.108-.981-.32-.225-.208-.343-.545-.343-.985 0-.04.013-.144.02-.188-.05.007-.087.007-.201.007-.43 0-.76-.108-.985-.32-.226-.211-.343-.544-.343-.985 0-.44.117-.77.346-.991.219-.209.551-.316.978-.316.037 0 .141.01.175.013h.023c-.006-.06-.013-.12-.013-.191 0-.44.118-.773.35-.989.218-.208.548-.315.978-.315.427 0 .756.107.981.319.232.218.347.551.347.988 0 .024-.004.084-.007.128a.782.782 0 01.114-.007c.427 0 .756.108.982.32.232.225.346.557.346.991-.004.427-.121.76-.35.978m11.526-4.591c-.07-.172-.13-.32-.181-.434-.047-.111-.067-.141-.08-.168l-.072-.135a3.65 3.65 0 00-.655-.874c-.817-.776-1.973-1.17-3.439-1.17-.601 0-1.14.085-1.633.212-.293.078-.941.364-.955.37 0 0-.497.28-.655.387a2.85 2.85 0 01-3.18 0c-.161-.108-.656-.387-.656-.387-.01-.006-.658-.292-.95-.37a6.305 6.305 0 00-1.634-.211c-1.466 0-2.622.393-3.436 1.17a3.755 3.755 0 00-.659.873l-.067.135c-.013.027-.033.06-.08.168-.05.114-.115.262-.185.434C1.882 8.4-.044 12.343.003 15.785c.007.497.195 1.486.343 1.963.293.951.975 1.563 1.725 1.808.305.101.719.172 1.018.195.03 0 .06.004.094.004.42 0 1.14-.172 1.513-.34a3.8 3.8 0 00.924-.595c.225-.195.323-.323.696-.783.262-.323.494-.676.797-.965.695-.665 1.583-1.14 2.635-1.432a7.827 7.827 0 012.07-.282c.7 0 1.395.094 2.068.282 1.055.296 1.94.767 2.635 1.432.306.29.538.642.8.965.373.457.47.588.696.783.376.323.712.49.941.595.403.178 1.19.336 1.59.336.3 0 .713-.094 1.018-.195.747-.245 1.432-.857 1.725-1.808.144-.474.333-1.466.34-1.963.04-3.439-1.886-7.382-2.559-8.998" fill="#5CB615" fill-rule="nonzero"/></svg>