<svg width="24" height="24" viewBox="0 0 24 24" xmlns="http://www.w3.org/2000/svg"><path d="M18.7 11.866a.705.705 0 00.056-1.022c-2.77-2.989-6.884-2.787-7.011-2.777-4.414.044-6.78 2.511-6.878 2.615a.706.706 0 00.024.999.773.773 0 001.09-.027c.019-.02 2.012-2.101 5.81-2.141.04-.004 3.57-.162 5.843 2.295a.761.761 0 00.561.242c.181 0 .36-.06.504-.184zm-1.517 2.195c.3-.253.336-.7.084-.999-.006-.01-.013-.017-.023-.027-2.094-2.259-5.378-2.158-5.493-2.148-3.334.037-5.29 2.091-5.371 2.179a.702.702 0 00.03.995c.01.006.017.016.027.023.138.121.32.188.504.188a.753.753 0 00.555-.235c.017-.017 1.617-1.67 4.292-1.698.034 0 2.723-.077 4.333 1.664a.77.77 0 001.062.058zm-1.791 2.188c.299-.252.336-.7.084-.995-.007-.01-.017-.017-.024-.027-1.412-1.526-3.61-1.449-3.68-1.445-2.23.026-3.543 1.405-3.597 1.462a.707.707 0 00.033 1.001l.02.02a.755.755 0 00.508.189.758.758 0 00.555-.236c.04-.04.951-.97 2.524-.988.02 0 1.597-.037 2.521.965a.767.767 0 001.056.054zm-3.516 3.785c.843-.014 1.694-.545 1.694-1.695 0-1.142-.85-1.673-1.755-1.697-.007-.003-.067-.003-.067-.003-.844.006-1.694.534-1.694 1.694 0 1.163.854 1.687 1.697 1.7h.125zm11.18-9.906c.56.551.719 1.327.416 2.03-.322.74-1.089 1.217-1.96 1.217h-.604v8.32c0 1.065-.945 1.929-2.108 1.929H4.69c-1.164 0-2.112-.868-2.112-1.933v-8.32h-.467c-.87 0-1.637-.477-1.96-1.216-.302-.7-.144-1.476.417-2.03l9.7-9.537c.794-.783 2.293-.783 3.09 0l9.697 9.54z" fill="#5CB615" fill-rule="nonzero"/></svg>