<svg width="24" height="24" xmlns="http://www.w3.org/2000/svg"><path d="M12 2.243c5.29 0 9.599 4.35 9.599 9.687a9.703 9.703 0 0 1-2.951 6.974l1.784 1.8A.759.759 0 0 1 19.898 22a.758.758 0 0 1-.533-.223l-1.884-1.901a9.454 9.454 0 0 1-5.485 1.75 9.454 9.454 0 0 1-5.485-1.75l-1.884 1.901a.747.747 0 0 1-1.067 0 .759.759 0 0 1 0-1.073l1.784-1.8A9.715 9.715 0 0 1 2.4 11.93c0-5.338 4.31-9.687 9.599-9.687Zm0 1.519c-4.46 0-8.094 3.667-8.094 8.168C3.906 16.44 7.54 20.1 12 20.1c4.46 0 8.094-3.668 8.094-8.169 0-4.5-3.634-8.168-8.094-8.168Zm0 1.522c.413 0 .75.341.75.762v6.83H8.232a.756.756 0 0 1-.75-.757c0-.416.337-.757.75-.757h3.018v-5.32c0-.417.337-.758.75-.758Zm4.235-3.853a.754.754 0 0 1 1.004-.357A11.337 11.337 0 0 1 21.88 5.2a.769.769 0 0 1-.23 1.06.802.802 0 0 1-.404.118.756.756 0 0 1-.634-.35 9.882 9.882 0 0 0-4.022-3.583.767.767 0 0 1-.354-1.014ZM6.76 1.074a.753.753 0 0 1 1.004.357.766.766 0 0 1-.354 1.014 9.882 9.882 0 0 0-4.022 3.584.734.734 0 0 1-.634.336.753.753 0 0 1-.634-1.165 11.344 11.344 0 0 1 4.64-4.126Z" fill="#313235" fill-rule="nonzero" opacity=".9"/></svg>