<svg width="24" height="24" xmlns="http://www.w3.org/2000/svg"><g fill="#003" fill-rule="nonzero"><path d="M12 5.284c-.413 0-.75.341-.75.757v5.321H8.232c-.413 0-.75.341-.75.757 0 .417.337.758.75.758h4.518V6.046a.757.757 0 0 0-.75-.762Zm9.878-.084a11.337 11.337 0 0 0-4.639-4.126.754.754 0 0 0-1.004.357.767.767 0 0 0 .354 1.014 9.882 9.882 0 0 1 4.022 3.584c.142.223.388.349.634.349.133 0 .279-.042.404-.118a.769.769 0 0 0 .23-1.06Zm-18.49.829a9.882 9.882 0 0 1 4.023-3.584.766.766 0 0 0 .354-1.014.753.753 0 0 0-1.004-.357A11.344 11.344 0 0 0 2.12 5.2a.753.753 0 0 0 .634 1.165.734.734 0 0 0 .634-.336Z"/><path d="M21.599 11.93c0-5.338-4.31-9.687-9.599-9.687-5.29 0-9.599 4.35-9.599 9.687a9.715 9.715 0 0 0 2.943 6.974l-1.784 1.8A.759.759 0 0 0 4.093 22a.747.747 0 0 0 .534-.223l1.884-1.901a9.454 9.454 0 0 0 5.485 1.75c2.038 0 3.93-.648 5.485-1.75l1.884 1.901a.747.747 0 0 0 1.067 0 .759.759 0 0 0 0-1.073l-1.784-1.8a9.703 9.703 0 0 0 2.95-6.974Zm-17.693 0c0-4.5 3.634-8.168 8.094-8.168 4.46 0 8.094 3.667 8.094 8.168 0 4.5-3.634 8.169-8.094 8.169-4.46 0-8.094-3.66-8.094-8.169Z"/></g></svg>