<svg width="24" height="24" xmlns="http://www.w3.org/2000/svg"><path d="M21.894 19.9 12.608 3.366C12.466 3.146 12.251 3 12 3a.69.69 0 0 0-.608.367L2.106 19.899a.686.686 0 0 0 0 .734c.142.221.357.367.608.367h18.572a.69.69 0 0 0 .608-.367.686.686 0 0 0 0-.734Zm-17.931-.367L12 5.2l6.25 11.133 1.787 3.199H3.963ZM12 8.69a.725.725 0 0 0-.713.734v5.696c0 .404.32.733.713.733.393 0 .713-.329.713-.733V9.43c0-.405-.32-.739-.713-.739Zm0 8.269a.725.725 0 0 0-.713.733c0 .405.32.734.713.734.393 0 .713-.329.713-.734A.725.725 0 0 0 12 16.96Z" fill="#003" fill-rule="nonzero"/></svg>