<svg width="24" height="24" xmlns="http://www.w3.org/2000/svg"><path d="M19.584 17.091a.717.717 0 0 1-.501-.204.753.753 0 0 1-.028-1.048 5.549 5.549 0 0 0-.093-7.66.753.753 0 0 1 0-1.048.715.715 0 0 1 1.026 0 7.037 7.037 0 0 1 .12 9.728.718.718 0 0 1-.524.232Zm-1.17-1.982a4.571 4.571 0 0 0-.13-6.237.715.715 0 0 0-1.026 0 .753.753 0 0 0 0 1.048 3.075 3.075 0 0 1 .088 4.188.754.754 0 0 0 .047 1.048.706.706 0 0 0 1.021-.047Zm-2.999 6.796a.744.744 0 0 0 .362-.64V2.74a.744.744 0 0 0-.362-.64.708.708 0 0 0-.724 0l-9.26 5.454H2.723c-.4 0-.724.332-.724.74V15.7c0 .408.325.74.724.74H5.43l9.261 5.459c.112.066.237.1.362.1a.659.659 0 0 0 .362-.095ZM3.448 9.038h2.177c.126 0 .251-.033.362-.1L14.33 4.02v15.96l-8.342-4.914a.707.707 0 0 0-.362-.1H3.448V9.038Z" fill="#003" fill-rule="nonzero"/></svg>