<svg width="24" height="24" xmlns="http://www.w3.org/2000/svg"><g fill="none" fill-rule="evenodd"><path d="M2 2h20v20H2z"/><path d="M15.928 22H8.076c-1.18 0-2.144-.96-2.144-2.144V5.928c0-1.18.96-2.144 2.144-2.144h1.068V2h5.716v1.788h1.068c1.18 0 2.144.96 2.144 2.144V19.86c0 1.176-.96 2.14-2.144 2.14ZM8.076 5.212a.714.714 0 0 0-.712.712v13.928c0 .392.32.712.712.712h7.86c.392 0 .712-.32.712-.712V5.928a.714.714 0 0 0-.712-.712h-2.5V3.428H10.58v1.788H8.076v-.004Z" fill="#0019A5" fill-rule="nonzero"/><path d="M11.288 17.356a.712.712 0 0 1-.616-1.076l1.876-3.212H10.22a.706.706 0 0 1-.616-.356.706.706 0 0 1 .004-.716l2.5-4.288a.712.712 0 0 1 .98-.256.712.712 0 0 1 .256.98l-1.876 3.208h2.328c.256 0 .492.136.616.356a.706.706 0 0 1-.004.716L11.908 17a.724.724 0 0 1-.62.356Z" fill="#0019A5" fill-rule="nonzero"/></g></svg>