<svg width="24" height="24" xmlns="http://www.w3.org/2000/svg"><path d="M20.862 17.644a10.32 10.32 0 0 1-1.938-6v-2.5C18.924 5.216 15.808 2 12.002 2 8.196 2 5.079 5.216 5.079 9.144v2.5a10.32 10.32 0 0 1-1.938 6c-.174.216-.174.5-.07.752.105.252.345.392.624.392H9.27c0 .108-.035.252-.035.356 0 1.572 1.244 2.856 2.768 2.856 1.523 0 2.767-1.284 2.767-2.856 0-.108 0-.252-.035-.356h5.57c.275 0 .52-.144.624-.392.105-.248.105-.54-.066-.752Zm-7.476 1.5c0 .784-.625 1.428-1.384 1.428-.76 0-1.384-.644-1.384-1.428 0-.108 0-.252.035-.356h2.663c.07.104.07.248.07.356Zm-8.408-1.788a11.711 11.711 0 0 0 1.489-5.716v-2.5c0-3.144 2.492-5.716 5.539-5.716 3.046 0 5.535 2.576 5.535 5.72v2.5c0 2 .519 4 1.488 5.716H4.979v-.004Z" fill="#313235" fill-rule="nonzero"/></svg>