<svg width="24" height="24" xmlns="http://www.w3.org/2000/svg"><path d="M17.702 2H7.118C5.953 2 5 2.96 5 4.144V22h14.815V4.144C19.819 2.964 18.867 2 17.702 2Zm.704 18.574H6.413V4.144a.71.71 0 0 1 .705-.713h10.584a.71.71 0 0 1 .704.713v16.43Zm-1.585-3.214a.53.53 0 0 1-.528.535H8.53a.53.53 0 0 1-.528-.535.53.53 0 0 1 .528-.535h7.762c.289 0 .528.238.528.535Zm0-3.57a.53.53 0 0 1-.528.535H8.53a.53.53 0 0 1-.528-.535.53.53 0 0 1 .528-.535h7.762a.53.53 0 0 1 .528.535Zm0-3.932a.53.53 0 0 1-.528.535h-2.998a.53.53 0 0 1-.529-.535.53.53 0 0 1 .529-.535c.099 0 .176-.077.176-.178v-.891a.53.53 0 0 1-.529-.535.53.53 0 0 1 .529-.535v-.896c0-.887.713-1.61 1.59-1.61.437 0 .857.184 1.155.508a.545.545 0 0 1-.023.76.529.529 0 0 1-.75-.024.517.517 0 0 0-.383-.169.532.532 0 0 0-.528.535v.891h.88a.53.53 0 0 1 .529.535.53.53 0 0 1-.529.535h-.88v.892c0 .059-.005.118-.014.178h1.775a.542.542 0 0 1 .528.54Z" fill="#313235" fill-rule="nonzero"/></svg>