<svg width="24" height="24" xmlns="http://www.w3.org/2000/svg"><path d="M13.017 2.08a.727.727 0 0 1 .666 0L20.72 6.05c.28.144.355.471.32.615v8.331c0 .256-.14.472-.351.616l-7.045 4.331c-.136.108-.42.144-.666.036l-2.11-1.083a.734.734 0 0 1-.315-.975.7.7 0 0 1 .951-.323l1.092.575v-6.709l-3.17-1.95L6.963 8V10.2c2.042.324 3.59 2.022 3.59 4.076 0 .971-.74 2.705-2.25 5.127-.806 1.298-1.547 2.345-1.582 2.381a.508.508 0 0 1-.425.216.498.498 0 0 1-.425-.216C5.45 21.241 2 16.338 2 14.244c0-2.058 1.548-3.756 3.625-4.08v-3.5c0-.256.036-.435.351-.615Zm-6.721 9.1c-1.797 0-3.24 1.37-3.24 3.064 0 1.187 1.829 4.256 3.24 6.278.285-.436.702-1.051 1.127-1.735 1.333-2.13 2.109-3.792 2.109-4.547 0-1.698-1.439-3.06-3.236-3.06Zm13.367-3.253-5.629 3.46v6.637l5.63-3.496V7.927Zm-13.37 4.44c.985 0 1.827.862 1.827 1.873 0 1.011-.842 1.874-1.828 1.874-.986 0-1.828-.827-1.828-1.874 0-1.05.842-1.874 1.828-1.874Zm-.005 1.078a.79.79 0 0 0-.776.795c0 .436.351.795.776.795a.79.79 0 0 0 .776-.795.79.79 0 0 0-.776-.795ZM16.99 5.617l-5.773 3.249 2.116 1.298 5.59-3.464-1.933-1.083Zm-3.657-2.094L7.703 6.7 9.813 8l5.738-3.213-2.219-1.263Z" fill="#313235" fill-rule="nonzero"/></svg>