<svg width="24" height="24" xmlns="http://www.w3.org/2000/svg"><path d="M14.58 2H8.42C6.534 2 5 3.6 5 5.571V18.43C5 20.399 6.533 22 8.42 22h6.16c1.887 0 3.42-1.6 3.42-3.571V5.576C18 3.605 16.467 2 14.58 2ZM6.366 17.364V6.646h10.266v10.718H6.367ZM8.42 3.43h6.158c1.016 0 1.857.773 2.024 1.788H6.397c.167-1.015 1.008-1.788 2.024-1.788Zm6.158 17.147H8.421c-1.016 0-1.857-.773-2.024-1.788h10.206c-.167 1.015-1.008 1.788-2.024 1.788Zm-.525-10.183-.719-1.65a.503.503 0 0 0-.679-.266.543.543 0 0 0-.254.709l.526 1.207h-2.856l.526-1.207a.543.543 0 0 0-.254-.709.503.503 0 0 0-.68.265l-.718 1.651H7.094l.998 4.595c.136.522.666.942 1.183.942h4.45c.513 0 1.043-.425 1.187-.969l.994-4.568h-1.852Zm-.136 4.312c-.018.06-.136.155-.193.155h-4.45c-.057-.004-.175-.1-.188-.132l-.71-3.26h6.242l-.701 3.237Z" fill="#0019A5" fill-rule="nonzero"/></svg>