<svg width="24" height="24" xmlns="http://www.w3.org/2000/svg"><path d="M19.86 4.14h-3.213V2.712a.714.714 0 0 0-1.426 0V4.14H8.789V2.713a.714.714 0 0 0-1.427 0V4.14H4.144C2.964 4.14 2 5.1 2 6.283V22h20V6.283a2.143 2.143 0 0 0-2.14-2.144Zm.714 16.43H3.43V10.21h17.143v10.36Zm0-11.786H3.43v-2.5c0-.394.32-.714.713-.714h3.214v1.427a.714.714 0 0 0 1.426 0V5.57h6.427v1.427a.714.714 0 0 0 1.427 0V5.57h3.213c.394 0 .714.32.714.713v2.501h.009ZM9.145 18.782c0-.393.32-.713.713-.713a.351.351 0 0 0 .357-.357v-1.426a.714.714 0 0 1 0-1.427v-1.248a2.326 2.326 0 0 1 2.322-2.322c.53 0 1.047.183 1.458.517.307.247.352.7.106 1.005a.717.717 0 0 1-1.006.106.893.893 0 0 0-1.454.695v1.247h1.426a.714.714 0 0 1 0 1.427h-1.426v1.426c0 .123-.014.242-.036.357h2.715a.714.714 0 0 1 0 1.426H9.854a.707.707 0 0 1-.709-.713Z" fill="#313235" fill-rule="nonzero"/></svg>