<svg width="24" height="24" xmlns="http://www.w3.org/2000/svg"><path d="M18.364 3h-5.82C10.539 3 8.91 4.703 8.91 6.799v.38H5.636C3.629 7.178 2 8.88 2 10.976v3.8c0 1.833 1.252 3.37 2.91 3.726v2.738a.76.76 0 0 0 .447.7.702.702 0 0 0 .796-.165L9.21 18.58h2.244c2.007 0 3.636-1.702 3.636-3.799v-.063l2.761 2.885c.14.146.326.223.512.223a.72.72 0 0 0 .28-.058.76.76 0 0 0 .446-.7v-2.739c1.658-.355 2.91-1.887 2.91-3.726v-3.8C22 4.704 20.37 3 18.364 3Zm-4.73 11.781c0 1.255-.978 2.282-2.183 2.282H8.904a.696.696 0 0 0-.512.223l-2.03 2.121v-1.585c0-.419-.326-.76-.726-.76-1.201 0-2.183-1.02-2.183-2.28v-3.8c0-1.255.977-2.281 2.183-2.281h3.273v1.902c0 2.096 1.63 3.799 3.636 3.799h1.09v.38Zm6.913-4.178c0 1.255-.977 2.281-2.183 2.281-.4 0-.726.34-.726.76v1.585l-2.03-2.121a.715.715 0 0 0-.512-.224h-2.547c-1.2 0-2.183-1.021-2.183-2.281v-3.8c0-1.254.978-2.28 2.183-2.28h5.82c1.2 0 2.183 1.021 2.183 2.28v3.8h-.005Z" fill="#313235" fill-rule="nonzero"/></svg>