<svg width="24" height="24" xmlns="http://www.w3.org/2000/svg"><path d="M3.75 8.653h16.5V7.597c0-.743-.528-1.347-1.178-1.347H4.928c-.683 0-1.178.664-1.178 1.58v.823zM19.072 19.25H9.995a.75.75 0 0 1 0-1.5h9.077c.65 0 1.178-.605 1.178-1.348v-6.249H3.75v6.482c0 .505.525 1.115 1.178 1.115h1.061a.75.75 0 0 1 0 1.5H4.928c-1.427 0-2.678-1.222-2.678-2.615V7.83c0-1.756 1.151-3.08 2.678-3.08h14.144c1.477 0 2.678 1.277 2.678 2.847v8.805c0 1.57-1.201 2.848-2.678 2.848z" fill="#313235" fill-rule="nonzero"/></svg>