<svg width="24" height="24" xmlns="http://www.w3.org/2000/svg"><path d="M19.848 5c1.18 0 2.144 1.017 2.152 2.272v9.456c0 1.25-.964 2.272-2.144 2.272H4.144C2.964 19 2 17.979 2 16.728V7.272C2 6.022 2.964 5 4.144 5Zm.72 5.298H3.432v6.43c0 .411.316.755.712.755h15.704c.396 0 .72-.344.72-.755v-6.43ZM9.493 12.184c.397 0 .713.344.713.755 0 .42-.316.754-.713.754H4.857c-.397 0-.713-.335-.713-.754 0-.42.316-.755.713-.755Zm4.65 0c.388 0 .712.344.708.755 0 .42-.316.754-.713.754h-2.5c-.396 0-.712-.335-.712-.754 0-.42.316-.755.712-.755Zm4.992 0c.397 0 .713.344.713.755 0 .42-.316.754-.713.754H16.28c-.396 0-.712-.335-.712-.754 0-.42.316-.755.712-.755Zm.72-5.675H4.146c-.397 0-.72.343-.72.763v1.5h17.143V7.263c0-.41-.316-.754-.712-.754Z" fill="#313235" fill-rule="nonzero" opacity=".9"/></svg>