<svg width="24" height="24" xmlns="http://www.w3.org/2000/svg"><path d="M21.995 11.488v-.01c0-.02-.005-.035-.01-.055-.005-.05-.01-.1-.024-.144l-.03-.075c-.015-.04-.034-.075-.054-.115-.015-.025-.035-.044-.05-.07-.024-.03-.049-.06-.078-.089a.372.372 0 0 0-.069-.055c-.015-.01-.03-.03-.05-.04-.019-.01-.034-.014-.053-.024-.015-.01-.025-.02-.04-.025l-6.153-2.723a.777.777 0 0 0-.615 0l-6.153 2.723c-.015.005-.025.02-.04.025-.02.01-.039.015-.054.025-.02.01-.03.024-.049.04-.025.02-.05.034-.069.06a1.283 1.283 0 0 0-.128.158.814.814 0 0 0-.054.115c-.01.025-.025.05-.03.074-.014.045-.02.095-.024.14 0 .02-.01.04-.01.06v6.63c0 .293.162.562.423.696l6.153 3.111c.03.015.06.025.094.035.02.005.04.015.059.02a.846.846 0 0 0 .192.025c.064 0 .128-.01.192-.025.02-.005.04-.015.06-.02.029-.01.063-.02.093-.035l6.153-3.11a.777.777 0 0 0 .423-.697v-6.615c-.005-.005-.005-.005-.005-.01Zm-6.92-1.862 4.34 1.921-4.34 2.19-4.343-2.195 4.342-1.916Zm-5.386 3.13 4.617 2.335v4.868L9.69 17.625v-4.868Zm10.77 4.874-4.617 2.33v-4.874l4.617-2.334v4.878ZM7.873 8.387a2.335 2.335 0 0 0-2.029-1.17c-1.27 0-2.308 1.045-2.308 2.334 0 1.29 1.034 2.335 2.308 2.335.424 0 .768.348.768.776a.773.773 0 0 1-.768.777C3.723 13.439 2 11.697 2 9.55c0-2.145 1.723-3.887 3.844-3.887.222 0 .439.025.655.065C7.311 2.956 9.861 1 12.765 1c2.934 0 5.523 1.996 6.301 4.848a.779.779 0 0 1-.536.956.768.768 0 0 1-.945-.543c-.596-2.18-2.58-3.708-4.82-3.708-2.264 0-4.243 1.553-4.824 3.738.512.329.95.772 1.26 1.314a.786.786 0 0 1-.28 1.065.76.76 0 0 1-1.048-.283Z" fill="#313235" fill-rule="nonzero" opacity=".9"/></svg>