<svg width="24" height="24" xmlns="http://www.w3.org/2000/svg"><path d="M12.28 2.054a.86.86 0 0 0-.6 0C11.467 2.162 6 4.806 6 11.633c0 5.647 3.81 7.543 5.293 8.043v1.608c0 .396.32.716.707.716.39 0 .707-.324.707-.716v-1.608a7 7 0 0 0 2.364-1.324C16.41 17.28 18 15.241 18 11.633c-.004-6.827-5.475-9.471-5.72-9.579Zm.423 16.086V7.701a.713.713 0 0 0-.707-.715.716.716 0 0 0-.707.715v10.44c-1.377-.573-3.88-2.216-3.88-6.504.004-5.111 3.533-7.511 4.591-8.115 1.058.608 4.587 3.04 4.587 8.115-.004 4.288-2.507 5.931-3.884 6.503Z" fill="#313235" fill-rule="nonzero" opacity=".9"/></svg>