<svg width="24" height="24" xmlns="http://www.w3.org/2000/svg"><path d="M12 2c5.5 0 10 4.5 10 10 0 5.536-4.5 10-10 10-5.536 0-10-4.5-10-10S6.5 2 12 2Zm0 1.428A8.552 8.552 0 0 0 3.428 12 8.548 8.548 0 0 0 12 20.568 8.548 8.548 0 0 0 20.572 12c0-4.716-3.82-8.572-8.572-8.572Zm.54 3.92c.824 0 1.608.248 2.324.644a.69.69 0 0 1 .252.964.69.69 0 0 1-.964.252 3.205 3.205 0 0 0-1.608-.428 3.24 3.24 0 0 0-2.68 1.428h2.68c.392 0 .716.32.716.716 0 .392-.32.716-.716.716h-3.18c-.036.104-.036.252-.036.356 0 .104.036.248.036.356h3.176c.392 0 .716.32.716.716 0 .392-.32.716-.716.716H9.86a3.24 3.24 0 0 0 2.68 1.428c.572 0 1.108-.144 1.608-.428.32-.212.748-.104.964.252.212.32.104.748-.252.964-.716.428-1.5.644-2.324.644-1.928 0-3.568-1.176-4.284-2.856h-.716a.718.718 0 0 1-.716-.716c0-.396.32-.716.72-.724h.356c-.036-.104-.036-.252-.036-.356 0-.104.036-.248.036-.356H7.54a.718.718 0 0 1-.716-.716c0-.392.32-.716.716-.716h.716c.712-1.676 2.356-2.856 4.284-2.856Z" fill="#313235" fill-rule="nonzero" opacity=".9"/></svg>