<svg width="24" height="24" xmlns="http://www.w3.org/2000/svg"><path d="M11.982 5c4.4 0 8.122 2.504 9.982 6.664v.037c.036.037.036.037.036.075v.37c-.036 0-.036.037-.036.037-.036.037-.036.037-.036.074v.037C20.104 16.496 16.383 19 11.982 19c-4.4 0-8.122-2.504-9.946-6.631v-.037C2 12.294 2 12.294 2 12.257v-.444c.036-.037.036-.037.036-.075v-.037C3.86 7.504 7.581 5 11.982 5Zm0 1.475c-3.72 0-6.87 2.059-8.514 5.523 1.645 3.46 4.793 5.523 8.514 5.523 3.72 0 6.87-2.06 8.514-5.523-1.645-3.464-4.793-5.523-8.514-5.523Zm0 .733c2.577 0 4.653 2.137 4.653 4.79 0 2.652-2.076 4.79-4.653 4.79-2.577 0-4.653-2.138-4.653-4.79 0-2.653 2.076-4.79 4.653-4.79Zm0 1.474c-1.788 0-3.22 1.475-3.22 3.316 0 1.841 1.432 3.316 3.22 3.316 1.788 0 3.22-1.475 3.22-3.316 0-1.841-1.432-3.316-3.22-3.316Z" fill="#313235" fill-rule="nonzero"/></svg>