<svg width="24" height="24" xmlns="http://www.w3.org/2000/svg"><path d="M17.998 9.037h-.167a3.88 3.88 0 0 0 .712-2.265C18.543 4.657 16.946 3 14.907 3c-1.578 0-2.886.99-3.398 2.42a2.952 2.952 0 0 0-1.69-.532c-1.555 0-2.728 1.218-2.728 2.83 0 .484.107.933.298 1.32H6.002C4.88 9.037 4 10.031 4 11.301v10.945c0 .415.326.753.726.753h14.548c.4 0 .726-.338.726-.753v-10.95c0-1.265-.88-2.26-2.002-2.26Zm.545 2.26v1.13h-5.82V10.54h5.275c.4.005.545.46.545.759Zm-3.636-6.79c1.243 0 2.183.975 2.183 2.265s-.935 2.265-2.183 2.265h-2.183V6.772c0-1.29.94-2.265 2.183-2.265ZM8.543 7.714c0-.778.522-1.319 1.271-1.319.699 0 1.453.507 1.453 1.319v1.318H9.814c-.75.005-1.27-.54-1.27-1.318Zm-2.546 2.83h5.274v1.889H5.452v-1.13c0-.305.145-.759.545-.759Zm-.545 3.395h5.82v7.544h-5.82V13.94Zm7.272 7.55v-7.55h5.819v7.544h-5.82v.005Z" fill="#313235" fill-rule="nonzero" opacity=".9"/></svg>