<svg width="24" height="24" xmlns="http://www.w3.org/2000/svg"><path d="M21.284 11.284c.396 0 .716.32.716.716v7.856A2.167 2.167 0 0 1 19.845 22H4.143A2.149 2.149 0 0 1 2 19.856V12a.715.715 0 1 1 1.431 0v7.856c0 .392.32.716.716.716h15.706c.392 0 .716-.32.716-.716V12c0-.392.32-.716.715-.716ZM13.957 2c.396 0 .715.32.715.716v7.68h2.143c.608 0 1.143.356 1.391.964.252.644.108 1.392-.356 1.856l-5.856 5.856-5.852-5.856c-.464-.464-.608-1.216-.36-1.86.252-.608.783-.964 1.39-.964h2.144v-7.68a.717.717 0 0 1 1.43.004v9.108h-3.57s-.035 0-.071.072c-.036.108-.036.252.036.32l4.853 4.856 4.853-4.856c.072-.072.072-.216.036-.32-.029-.058-.057-.07-.068-.071l-3.574-.001V2.716c0-.392.32-.716.716-.716Z" fill="#313235" fill-rule="nonzero" opacity=".9"/></svg>