<svg width="24" height="24" xmlns="http://www.w3.org/2000/svg"><g transform="translate(2 2)" fill="#0019A5" fill-rule="nonzero"><path d="M10 20C4.5 20 0 15.5 0 10S4.5 0 10 0s10 4.5 10 10-4.5 10-10 10Zm0-18.572c-4.716 0-8.572 3.856-8.572 8.572 0 4.716 3.856 8.572 8.572 8.572 4.716 0 8.572-3.856 8.572-8.572 0-4.716-3.856-8.572-8.572-8.572Z"/><path d="M10 15.356a.718.718 0 0 1-.716-.716V7.856c0-.392.32-.716.716-.716.392 0 .716.32.716.716v6.784a.718.718 0 0 1-.716.716Z"/><circle cx="10" cy="5.18" r="1"/></g></svg>