<svg width="24" height="24" xmlns="http://www.w3.org/2000/svg"><path d="m20.198 18.373-1.81-1.972a3.062 3.062 0 0 0-4.436.004l-3.473 3.632a1.707 1.707 0 0 1-2.46 0c-.33-.34-.509-.79-.509-1.269 0-.478.183-.928.5-1.26l.084-.087c.308-.046.624-.115.95-.211 1.716-.524 3.54-1.756 5.27-3.558 1.725-1.798 2.893-3.682 3.379-5.452.517-1.876.214-3.508-.852-4.593L15.83 2.573c-.722-.736-1.854-.768-2.523-.069L11.79 4.085c-.669.7-.629 1.867.094 2.602l1.06 1.08c.473.483.21 1.789-1.203 3.265-1.422 1.48-2.693 1.77-3.161 1.287l-1.061-1.085c-.722-.736-1.855-.768-2.523-.07L3.48 12.747c-.335.35-.504.818-.477 1.324.026.478.227.929.566 1.278l1.012 1.034c.508.515 1.132.85 1.841 1.003a3.31 3.31 0 0 0-.303 1.383c0 .865.326 1.674.918 2.285.611.63 1.414.947 2.216.947.803 0 1.61-.317 2.22-.947l3.473-3.632a1.708 1.708 0 0 1 2.448-.014l1.797 1.959c.263.29.704.299.985.027a.74.74 0 0 0 .022-1.02Zm-15.653-4.05a.522.522 0 0 1-.156-.34.288.288 0 0 1 .076-.23l1.516-1.581a.274.274 0 0 1 .205-.079.5.5 0 0 1 .348.161l1.06 1.085c1.173 1.2 3.237.676 5.132-1.296 1.89-1.968 2.372-4.096 1.195-5.296l-1.061-1.08c-.174-.175-.21-.437-.085-.57l1.516-1.582c.13-.133.379-.096.553.079l1.012 1.034c.883.9.753 2.225.49 3.181-.414 1.517-1.493 3.232-3.027 4.831-1.547 1.61-3.205 2.745-4.677 3.19a4.953 4.953 0 0 1-.824.18.6.6 0 0 0-.201.023c-.718.06-1.48-.078-2.064-.676l-1.008-1.034Z" fill="#313235" fill-rule="nonzero"/></svg>