<svg width="24" height="24" xmlns="http://www.w3.org/2000/svg"><path d="m9.875 18.698 1.893-4.944a.639.639 0 0 0-.025-.507.6.6 0 0 0-.39-.314l-3.767-.932 6.05-6.496-1.815 4.605a.633.633 0 0 0 .023.51c.078.16.221.274.39.316l4.145 1.023-6.504 6.739Zm8.246-7.246a.605.605 0 0 0-.434-.429l-4.501-1.11 2.72-6.904a.624.624 0 0 0-.23-.745.582.582 0 0 0-.754.09l-8.916 9.57a.626.626 0 0 0-.143.598.6.6 0 0 0 .432.423l4.112 1.016-2.7 7.05a.618.618 0 0 0 .23.737.584.584 0 0 0 .747-.078l9.286-9.619a.627.627 0 0 0 .151-.6Z" fill="#313235" fill-rule="nonzero"/></svg>