<svg width="24" height="24" xmlns="http://www.w3.org/2000/svg"><path d="M21.241 12.571c.247.36.393.801.393 1.28 0 1.024-.671 1.887-1.581 2.143.096.256.155.53.155.82 0 1.024-.671 1.887-1.58 2.143.095.256.154.53.154.82C18.782 21 17.822 22 16.64 22h-6.07a3.24 3.24 0 0 1-2.29-.958c-.31-.322-.8-.521-1.279-.521H2.713a.728.728 0 0 1-.713-.74c0-.407.32-.739.713-.739H7c.855 0 1.714.36 2.29.958.31.322.8.521 1.28.521h6.069a.728.728 0 0 0 .713-.74c0-.407-.32-.739-.713-.739a.728.728 0 0 1-.713-.74c0-.407.32-.74.713-.74h1.426a.728.728 0 0 0 .713-.739c0-.407-.32-.74-.713-.74h-.357a.728.728 0 0 1-.713-.739c0-.407.32-.74.713-.74h1.787a.728.728 0 0 0 .713-.739c0-.407-.32-.74-.713-.74H18.07a.728.728 0 0 1-.713-.739c0-.407.32-.74.713-.74h1.787a.728.728 0 0 0 .713-.739c0-.407-.32-.74-.713-.74h-7.148a.728.728 0 0 1-.713-.739c0-.407.32-.74.713-.74h.435l.991-3.26V4.402c0-.512-.365-.924-.813-.924-.334 0-.718.175-.818.564l-.53 2.21a.747.747 0 0 1-.188.345l-3.866 4.01a2.08 2.08 0 0 1-1.513.65H2.713a.728.728 0 0 1-.713-.74c0-.407.32-.739.713-.739h3.693c.192 0 .37-.076.507-.218l3.725-3.863.49-2.025C11.387 2.668 12.27 2 13.33 2c1.234 0 2.24 1.08 2.24 2.408v1.11a.73.73 0 0 1-.033.222l-.89 2.925h5.21c1.179 0 2.143.996 2.143 2.223a2.258 2.258 0 0 1-.759 1.683Z" fill="#313235" fill-rule="nonzero" opacity=".9"/></svg>