<svg width="24" height="24" xmlns="http://www.w3.org/2000/svg"><path d="M16.788 2C17.986 2 19 3.02 19 4.223V22H5V4.223C5 3.02 6.014 2 7.212 2h9.576Zm0 1.484H7.207c-.373 0-.736.365-.736.74V20.52h11.053V4.223c0-.374-.363-.74-.736-.74Zm-3.164 11.51a.744.744 0 0 1 0 1.047l-4.022 4.044-2.178-2.19a.744.744 0 0 1 0-1.048.734.734 0 0 1 1.042 0l1.136 1.143 2.98-2.996a.734.734 0 0 1 1.042 0Zm0-5.258a.744.744 0 0 1 0 1.048l-4.022 4.044-2.178-2.19a.744.744 0 0 1 0-1.048.734.734 0 0 1 1.042 0l1.136 1.142 2.98-2.996a.734.734 0 0 1 1.042 0Zm0-5.11a.744.744 0 0 1 0 1.048L9.602 9.717l-2.178-2.19a.744.744 0 0 1 0-1.047.734.734 0 0 1 1.042 0l1.136 1.142 2.98-2.996a.734.734 0 0 1 1.042 0Z" fill="#313235" fill-rule="nonzero"/></svg>