<svg width="24" height="24" xmlns="http://www.w3.org/2000/svg"><path d="M19.602 4.962C19.174 2.704 17.308 1 15.077 1c-2.23 0-4.096 1.704-4.525 3.962H2V22h20V4.962h-2.398Zm-4.525-2.38c1.699 0 3.078 1.512 3.078 3.369 0 1.253-1.69 4.413-3.078 6.67C13.69 10.369 12 7.204 12 5.951c0-1.857 1.379-3.368 3.077-3.368ZM3.537 9.66c.452.223.767.695.767 1.248v1.186c0 .041.005.082.01.122.256 1.705 1.753 2.161 2.96 2.526 1.447.442 2.033.72 2.033 1.715V17.8a4.217 4.217 0 0 0 .975 2.617H3.536V9.66Zm16.927 10.758h-6.539c-1.482 0-3.077-.867-3.077-2.774v-1.187c0-2.278-1.812-2.83-3.137-3.231-1.196-.366-1.747-.594-1.866-1.197v-1.121c0-1.436-.994-2.638-2.309-2.912V6.549h6.987c.463 2.623 3.54 7.396 3.92 7.974.142.218.383.35.64.35a.768.768 0 0 0 .64-.35c.374-.578 3.456-5.351 3.919-7.974h.827v13.868h-.005ZM17.1 5.555c0-1.151-.91-2.085-2.024-2.085-1.117 0-2.023.939-2.023 2.085s.906 2.085 2.023 2.085c1.118 0 2.024-.933 2.024-2.085Zm-2.024.898a.883.883 0 0 1-.871-.898c0-.497.389-.898.871-.898.483 0 .872.401.872.898a.883.883 0 0 1-.872.898Z" fill="#0019A5" fill-rule="nonzero"/></svg>