<svg width="24" height="24" xmlns="http://www.w3.org/2000/svg"><g fill="#313235" fill-rule="nonzero"><path d="M17.912 9.499V8.07C17.912 4.723 15.26 2 12 2S6.088 4.723 6.088 8.07V9.5c-1.15 0-2.088.96-2.088 2.143v8.214C4 21.036 4.935 22 6.088 22h11.824c1.15 0 2.088-.96 2.088-2.144v-8.214c0-1.184-.939-2.143-2.088-2.143ZM7.478 8.07c0-2.56 2.03-4.643 4.522-4.643 2.493 0 4.522 2.083 4.522 4.643v1.428H7.478V8.07Zm11.128 11.781a.709.709 0 0 1-.698.716H6.088a.709.709 0 0 1-.698-.716v-8.21c0-.392.312-.716.698-.716h11.824c.382 0 .698.32.698.716v8.21h-.004Z"/><path d="m14.987 12.922-4.03 4.135-1.247-1.28a.683.683 0 0 0-.986 0 .728.728 0 0 0 0 1.012l2.232 2.292 5.013-5.147a.728.728 0 0 0 0-1.012.679.679 0 0 0-.982 0Z"/></g></svg>