<svg width="24" height="24" xmlns="http://www.w3.org/2000/svg"><path d="M7.174 14.963h4.358V10.89H7.174v4.073ZM8.266 12h2.179v1.854h-2.18V12Zm8.167.74a.547.547 0 0 1-.543.554h-2.904a.547.547 0 0 1-.544-.554c0-.309.242-.555.544-.555h2.904c.297 0 .543.251.543.555Zm-9.259 7.04h4.358v-4.072H7.174v4.073Zm1.092-2.963h2.179v1.854h-2.18v-1.854Zm8.167 1.11a.547.547 0 0 1-.543.555h-2.904a.547.547 0 0 1-.544-.555c0-.308.242-.555.544-.555h2.904a.55.55 0 0 1 .543.555ZM5 2v20h13.793V2H5Zm12.339 7.037H6.449V5.518h10.89v3.519Zm0-5.558v.925H6.449v-.925h10.89Zm0 14.448v2.594H6.449V10.146h10.89v7.781Z" fill="#313235" fill-rule="nonzero"/></svg>