<svg width="24" height="24" xmlns="http://www.w3.org/2000/svg"><path d="M11.998 22a.747.747 0 0 1-.654-.385L9.678 18.65l-3.084 1.42a.736.736 0 0 1-.754-.077.743.743 0 0 1-.302-.693l.393-3.38-3.328-.668a.756.756 0 0 1-.567-.505.747.747 0 0 1 .163-.742L4.5 11.502 2.2 9a.76.76 0 0 1-.164-.742.74.74 0 0 1 .567-.505l3.328-.67-.393-3.378a.76.76 0 0 1 .302-.693.759.759 0 0 1 .754-.077L9.678 4.35l1.666-2.965a.747.747 0 0 1 1.306 0l1.667 2.965 3.084-1.415a.747.747 0 0 1 .754.077c.221.159.336.423.303.693l-.39 3.379 3.33.669c.263.053.48.245.566.505A.747.747 0 0 1 21.8 9L19.5 11.502l2.3 2.503a.76.76 0 0 1 .164.742.74.74 0 0 1-.567.505l-3.328.669.389 3.379a.75.75 0 0 1-1.057.77l-3.084-1.415-1.666 2.965a.752.752 0 0 1-.653.38Zm-2.003-5.068c.264 0 .518.14.653.385l1.35 2.402 1.35-2.402a.746.746 0 0 1 .965-.313l2.502 1.15-.317-2.738a.753.753 0 0 1 .596-.824l2.699-.543-1.864-2.032a.756.756 0 0 1 0-1.02l1.864-2.031-2.7-.544a.745.745 0 0 1-.595-.823l.317-2.739-2.502 1.15a.75.75 0 0 1-.966-.312l-1.35-2.407-1.349 2.402a.746.746 0 0 1-.965.313L7.18 4.856l.317 2.738a.753.753 0 0 1-.595.823l-2.7.544 1.864 2.031a.756.756 0 0 1 0 1.02l-1.864 2.032 2.7.544a.745.745 0 0 1 .595.823l-.317 2.738L9.683 17a.716.716 0 0 1 .312-.067Z" fill="#0019A5" fill-rule="nonzero"/></svg>