<svg width="24" height="24" xmlns="http://www.w3.org/2000/svg"><path d="M17.86 2H7.144C5.964 2 5 2.96 5 4.144V22h15V4.144A2.143 2.143 0 0 0 17.86 2Zm.714 18.574H6.43V4.144c0-.393.32-.713.713-.713H17.86c.394 0 .714.32.714.713v16.43Zm-1.605-3.214a.533.533 0 0 1-.535.535H8.575a.533.533 0 0 1-.535-.535c0-.297.238-.535.535-.535h7.859c.293 0 .535.238.535.535Zm0-3.57a.533.533 0 0 1-.535.535H8.575a.533.533 0 0 1-.535-.535c0-.297.238-.535.535-.535h7.859a.533.533 0 0 1 .535.535Zm-5.742-6.432c0-.297.237-.535.535-.535h.365a2.682 2.682 0 0 1 2.625-2.144c.42 0 .832.1 1.22.302a.538.538 0 0 1 .233.722.538.538 0 0 1-.722.233 1.6 1.6 0 0 0-.727-.183c-.7 0-1.285.448-1.509 1.07h1.674c.297 0 .535.238.535.535a.533.533 0 0 1-.535.535h-1.674c.224.621.81 1.07 1.51 1.07.25 0 .493-.06.726-.184a.534.534 0 0 1 .722.234.534.534 0 0 1-.233.722 2.621 2.621 0 0 1-1.22.302 2.682 2.682 0 0 1-2.625-2.144h-.365a.53.53 0 0 1-.535-.535Z" fill="#0019A5" fill-rule="nonzero"/></svg>