<svg width="24" height="24" xmlns="http://www.w3.org/2000/svg"><path d="M9.307 2 4 7.42V22h15.385V2H9.307Zm-.411 2.44V7H6.39l2.506-2.56Zm9.088 16.13H5.401V8.43h4.895v-5h7.692v17.14h-.004ZM12.131 9.855c.519 0 1.025.183 1.427.517.3.247.345.7.103 1.005a.692.692 0 0 1-.984.106.856.856 0 0 0-.55-.197.883.883 0 0 0-.873.891v1.248h1.396c.385 0 .698.32.698.713a.707.707 0 0 1-.698.713h-1.396v1.426c0 .123-.014.242-.036.356h2.658c.385 0 .698.32.698.713a.707.707 0 0 1-.698.713H9.504a.707.707 0 0 1-.698-.713c0-.393.313-.713.698-.713a.348.348 0 0 0 .35-.356v-1.426a.707.707 0 0 1-.699-.713c0-.393.313-.713.698-.713v-1.248c.005-1.28 1.025-2.322 2.278-2.322Z" fill="#313235" fill-rule="nonzero"/></svg>