<svg width="24" height="24" xmlns="http://www.w3.org/2000/svg"><path d="M17 9.675a3.39 3.39 0 0 0-2.028-3.094c.369-.48.59-1.075.59-1.724 0-1.577-1.29-2.857-2.88-2.857-1.59 0-2.88 1.28-2.88 2.857 0 .599.189 1.157.507 1.618A3.395 3.395 0 0 0 8 9.68v6.606h1.438v5c0 .394.322.714.719.714.396 0 .719-.32.719-.713v-6.432H9.438v-5.18c0-1.065.908-1.965 1.981-1.965h2.162c1.073 0 1.981.9 1.981 1.965v5.18h-1.438v6.427c0 .393.323.713.72.713.396 0 .718-.32.718-.713v-4.996H17v-6.61Zm-4.323-6.249c.793 0 1.438.64 1.438 1.427 0 .786-.645 1.426-1.447 1.426a1.436 1.436 0 0 1-1.433-1.426 1.44 1.44 0 0 1 1.442-1.427Z" fill="#313235" fill-rule="nonzero"/></svg>