<svg width="24" height="24" xmlns="http://www.w3.org/2000/svg"><path d="m8.761 5.3.438-.262-.438-.261a.568.568 0 0 1-.203-.76.535.535 0 0 1 .738-.21l.452.267v-.518c0-.309.24-.556.54-.556.3 0 .54.247.54.556v.527l.451-.266a.53.53 0 0 1 .738.21.564.564 0 0 1-.203.76l-.438.26.438.262c.259.152.35.494.203.76a.537.537 0 0 1-.738.209l-.452-.266v.527c0 .309-.24.556-.54.556-.299 0-.539-.247-.539-.556v-.527l-.452.266a.538.538 0 0 1-.738-.21.576.576 0 0 1 .203-.769Zm3.69 4.194c-.17 0-.328.033-.484.076-.263-.694-.914-1.192-1.68-1.192-.308 0-.59.085-.843.228a1.76 1.76 0 0 0-1.674-.56V5.778c0-1.021-.807-1.857-1.804-1.857-.996 0-1.803.831-1.803 1.857v4.865a1.778 1.778 0 0 0-.36-.038c-.991 0-1.803.831-1.803 1.857v3.71c0 .361.097.741.258 1.017l2.007 3.449a.713.713 0 0 0 .986.256.755.755 0 0 0 .25-1.016l-2.007-3.45a.738.738 0 0 1-.05-.25v-3.711c0-.204.161-.37.36-.37.198 0 .359.166.359.37V15.062c0 .408.323.74.72.74.396 0 .719-.332.719-.74V5.779c0-.204.161-.37.36-.37.198 0 .36.166.36.37v5.938c0 .409.322.741.719.741.397 0 .72-.332.72-.74V9.864c0-.205.16-.37.36-.37.197 0 .359.165.359.37V11.717c0 .409.323.741.72.741.396 0 .719-.332.719-.74v-1.482c0-.205.161-.371.36-.371.198 0 .36.166.36.37V12.83c0 .409.322.741.719.741.396 0 .72-.332.72-.741v-1.482c0-.204.16-.37.359-.37.198 0 .36.166.36.37v4.456a.857.857 0 0 1-.046.266l-2.03 3.834a.757.757 0 0 0 .286 1.007.713.713 0 0 0 .978-.295l2.03-3.834c.16-.308.22-.707.22-.978v-4.456c.02-1.022-.788-1.853-1.784-1.853Zm4.612-5.473a.535.535 0 0 0-.738-.209l-.452.266v-.522a.546.546 0 0 0-.54-.556c-.3 0-.54.247-.54.556v.527l-.451-.266a.53.53 0 0 0-.738.21.564.564 0 0 0 .203.76l.438.26-.438.262a.568.568 0 0 0-.203.76.537.537 0 0 0 .738.209l.452-.266v.527c0 .309.24.556.54.556.3 0 .539-.247.539-.556v-.527l.452.266a.538.538 0 0 0 .738-.21.564.564 0 0 0-.203-.76l-.438-.26.438-.262a.572.572 0 0 0 .203-.765ZM21.726 5.3l-.438-.261.438-.261a.568.568 0 0 0 .203-.76.535.535 0 0 0-.738-.21l-.452.267v-.518a.546.546 0 0 0-.54-.556c-.3 0-.54.247-.54.556v.527l-.452-.266a.53.53 0 0 0-.737.21.564.564 0 0 0 .202.76l.439.26-.439.262a.568.568 0 0 0-.202.76.537.537 0 0 0 .737.209l.452-.266v.527c0 .309.24.556.54.556.3 0 .54-.247.54-.556v-.527l.452.266a.538.538 0 0 0 .738-.21.572.572 0 0 0-.203-.769Z" fill="#313235" fill-rule="nonzero"/></svg>