<svg width="24" height="24" xmlns="http://www.w3.org/2000/svg"><path d="M9.92 4.4c.12.4-.081.879-.53 1.001-3.43 1.116-5.76 4.239-5.76 7.8 0 4.52 3.754 8.2 8.368 8.2 4.614 0 8.367-3.68 8.367-8.2 0-3.561-2.325-6.68-5.756-7.8-.407-.118-.65-.602-.528-1.002.12-.4.613-.64 1.02-.517C19.224 5.199 22 8.962 22 13.2 21.996 18.597 17.508 23 11.998 23 6.492 23 2 18.601 2 13.2 2 8.959 4.773 5.2 8.898 3.883c.408-.118.9.08 1.021.517ZM11.997 2c.448 0 .815.362.815.8v10.4c0 .439-.367.8-.815.8a.812.812 0 0 1-.815-.8V2.8c0-.438.367-.8.815-.8Z" fill="#313235" fill-rule="nonzero" opacity=".9"/></svg>