<svg width="24" height="24" xmlns="http://www.w3.org/2000/svg"><path d="M12 2c5.5 0 10 4.5 10 10s-4.5 10-10 10S2 17.5 2 12 6.5 2 12 2Zm0 1.428c-4.716 0-8.572 3.856-8.572 8.572 0 4.716 3.856 8.572 8.572 8.572 4.716 0 8.572-3.856 8.572-8.572 0-4.716-3.856-8.572-8.572-8.572Zm0 12.608a.784.784 0 1 1 0 1.568.784.784 0 0 1 0-1.568Zm.18-9.576c1 0 1.928.464 2.536 1.252.716.928.82 2.644-.108 3.608l-1.036 1.036c-.536.608-.856 1.356-.856 2.144a.72.72 0 0 1-.716.716.718.718 0 0 1-.716-.716c0-1.18.464-2.284 1.284-3.144l1.036-1.036c.392-.392.32-1.284 0-1.716a1.809 1.809 0 0 0-1.428-.716H12c-.572 0-1.108.32-1.392.784-.216.356-.644.464-.964.252-.356-.216-.464-.644-.252-.964A3.016 3.016 0 0 1 12 6.46h.18Z" fill="#313235" fill-rule="nonzero"/></svg>