<svg width="24" height="24" xmlns="http://www.w3.org/2000/svg"><g fill="#1E6CA7" fill-rule="evenodd"><path d="M12.682 14.376h-1.364v-.682c0-1.072.512-1.595.942-1.846.445-.232.963-.52 1.07-.602.493-.402.765-.976.765-1.614 0-1.14-.92-2.033-2.095-2.033-.961 0-1.777.578-2.03 1.438l-.192.654-1.308-.385.192-.653C9.088 7.207 10.429 6.236 12 6.236c1.939 0 3.458 1.492 3.458 3.396 0 1.055-.45 2.004-1.268 2.672-.231.189-.967.578-1.272.738-.051.03-.236.138-.236.652v.682ZM13.202 17.028a1.202 1.202 0 1 1-2.404 0 1.202 1.202 0 0 1 2.404 0Z"/><path d="M12 3.363c-4.601 0-8.637 4.036-8.637 8.637 0 4.6 4.036 8.637 8.637 8.637 4.601 0 8.637-4.036 8.637-8.637 0-4.601-4.036-8.637-8.637-8.637ZM12 22C6.673 22 2 17.327 2 12S6.673 2 12 2s10 4.673 10 10-4.673 10-10 10Z"/></g></svg>