<svg width="24" height="24" xmlns="http://www.w3.org/2000/svg"><path d="M19.94 14.934a.711.711 0 0 0-1.01-.078c-.292.263-.324.76-.075 1.068l.54.648h-7.393c-2.383 0-4.331-2.018-4.331-4.534 0-.8.18-1.56.577-2.248.18-.38.074-.839-.286-1.029-.36-.19-.795-.078-.975.302-.503.839-.757 1.907-.757 2.936 0 3.354 2.595 6.095 5.772 6.095H19.4l-.54.648c-.254.302-.254.8.074 1.068.143.112.323.19.47.19.18 0 .398-.078.541-.268l2.055-2.4-2.06-2.398ZM4.604 7.43h7.398c2.383 0 4.332 2.019 4.332 4.535 0 .8-.18 1.56-.577 2.247-.18.38-.074.839.254 1.03a.65.65 0 0 0 .36.111.694.694 0 0 0 .614-.38c.503-.917.757-1.94.757-3.008 0-3.35-2.563-6.056-5.735-6.056H4.604l.504-.649c.254-.302.254-.8-.074-1.068-.286-.268-.757-.268-1.011.078L2 6.67l2.055 2.398c.143.151.323.268.54.268.18 0 .36-.078.471-.19a.812.812 0 0 0 .074-1.068l-.536-.648Z" fill="#313235" fill-rule="nonzero"/></svg>