<svg width="24" height="24" xmlns="http://www.w3.org/2000/svg" xmlns:xlink="http://www.w3.org/1999/xlink"><defs><path id="a" d="M0 0h19.976v20H0z"/></defs><g fill="none" fill-rule="evenodd"><g transform="translate(2 2)"><mask id="b" fill="#fff"><use xlink:href="#a"/></mask><path d="M9.976 16.592A6.6 6.6 0 0 1 3.383 10a6.6 6.6 0 0 1 6.593-6.593A6.6 6.6 0 0 1 16.568 10a6.6 6.6 0 0 1-6.592 6.592Zm10-5.912V9.32h-2.082a7.914 7.914 0 0 0-1.84-4.437l1.676-1.675-.962-.962-1.675 1.675a7.911 7.911 0 0 0-4.437-1.84V0h-1.36v2.082a7.909 7.909 0 0 0-4.437 1.84L3.184 2.245l-.962.962 1.675 1.675a7.914 7.914 0 0 0-1.84 4.437H-.023v1.36h2.082a7.914 7.914 0 0 0 1.84 4.437l-1.676 1.675.962.962 1.675-1.675a7.914 7.914 0 0 0 4.437 1.839V20h1.36v-2.082a7.908 7.908 0 0 0 4.437-1.84l1.675 1.676.962-.962-1.675-1.675a7.914 7.914 0 0 0 1.84-4.437h2.081Z" fill="#1E6CA7" mask="url(#b)"/></g><path d="M11.976 10.4a1.6 1.6 0 1 0 0 3.2 1.6 1.6 0 0 0 0-3.2Z" fill="#1E6CA7"/></g></svg>