<svg width="24" height="24" xmlns="http://www.w3.org/2000/svg"><path d="M6.157 7.183a.558.558 0 0 1-.569-.549c0-.305.255-.549.569-.549.316 0 .568.247.568.55a.558.558 0 0 1-.568.548Zm1.709 0a.558.558 0 0 1-.57-.549c0-.305.256-.549.57-.549.316 0 .568.247.568.55a.556.556 0 0 1-.568.548Zm-3.418 0a.558.558 0 0 1-.568-.549c0-.305.254-.549.568-.549a.56.56 0 0 1 .569.55.56.56 0 0 1-.569.548Zm7.291 7.138c.606 0 .863-.25.863-.83 0-.582-.257-.831-.863-.831-.605 0-.862.249-.862.832 0 .58.26.829.862.829Zm0-2.608c1.14 0 1.846.68 1.846 1.779 0 1.095-.705 1.776-1.846 1.776-1.14 0-1.845-.681-1.845-1.776 0-1.098.708-1.78 1.845-1.78Zm3.41 1.963v-.375h-.634a.484.484 0 0 1-.484-.398 2.263 2.263 0 0 0-.213-.67.466.466 0 0 1 .092-.545l.474-.457-.297-.286-.476.457a.509.509 0 0 1-.563.09 2.534 2.534 0 0 0-.698-.208.48.48 0 0 1-.414-.467v-.608h-.393v.608a.478.478 0 0 1-.411.467c-.264.042-.496.11-.698.205a.503.503 0 0 1-.566-.09l-.476-.456-.297.285.474.457a.46.46 0 0 1 .08.569c-.075.126-.156.392-.198.65a.487.487 0 0 1-.487.397H8.33v.375h.633a.49.49 0 0 1 .487.398c.042.255.123.521.199.647a.46.46 0 0 1-.081.569l-.474.456.297.286.476-.456a.514.514 0 0 1 .566-.09c.202.095.434.165.695.204a.48.48 0 0 1 .414.468v.608h.393v-.608a.48.48 0 0 1 .414-.468c.263-.042.485-.106.698-.207a.513.513 0 0 1 .563.09l.476.456.297-.285-.474-.457a.461.461 0 0 1-.092-.546c.1-.196.17-.42.213-.67a.486.486 0 0 1 .484-.397h.633v.002Zm.1-1.322c.488 0 .88.381.88.846v.575c0 .467-.395.845-.88.845h-.339a2.559 2.559 0 0 1-.072.222l.31.297a.829.829 0 0 1 .003 1.207l-.437.42a.9.9 0 0 1-.627.25h-.003a.905.905 0 0 1-.627-.25l-.309-.297c-.075.025-.15.05-.23.07v.325c0 .468-.394.846-.879.846h-.596c-.485 0-.88-.38-.88-.846v-.325a3.114 3.114 0 0 1-.23-.07l-.31.3a.912.912 0 0 1-1.253 0l-.437-.42a.827.827 0 0 1 0-1.205l.306-.297a2.558 2.558 0 0 1-.07-.224h-.34c-.484 0-.879-.38-.879-.846v-.574c0-.468.395-.846.88-.846h.339c.02-.073.044-.148.07-.224l-.306-.297a.827.827 0 0 1 0-1.204l.437-.42a.909.909 0 0 1 1.252 0l.311.296c.076-.025.152-.047.23-.07v-.327c0-.468.395-.846.88-.846h.596c.488 0 .88.38.88.846v.327c.078.02.157.045.23.07l.31-.3a.893.893 0 0 1 .625-.249h.003c.238 0 .46.09.627.25l.434.42a.832.832 0 0 1 .003 1.204l-.313.3c.028.073.05.146.072.221h.34Zm4.98 5.751a.222.222 0 0 0 .228-.218V8.845H3.23v9.042c0 .12.103.218.227.218H20.23ZM3.46 5.707a.222.222 0 0 0-.227.219v1.73H20.46V5.93c0-.12-.1-.219-.227-.219H3.46v-.003Zm16.77-1.182c.805 0 1.457.63 1.457 1.404v11.958c0 .773-.652 1.403-1.456 1.403H3.46c-.805 0-1.46-.63-1.46-1.403V5.929c0-.774.653-1.404 1.46-1.404h16.77Z" fill="#313235" fill-rule="nonzero"/></svg>