<svg width="24" height="24" xmlns="http://www.w3.org/2000/svg"><path d="m10.323 16.578-2.634-2.73a.71.71 0 0 1 0-.976.65.65 0 0 1 .943 0l1.703 1.764 4.866-4.883a.651.651 0 0 1 .944.018.71.71 0 0 1-.018.978l-5.804 5.829Zm1.878 5.391C13.882 21.407 19 19.705 19 15.092V6.799a.68.68 0 0 0-.666-.69c-3.304 0-5.809-2.848-5.839-2.879A.66.66 0 0 0 12 3a.653.653 0 0 0-.495.23c-.026.03-2.535 2.88-5.84 2.88A.68.68 0 0 0 5 6.8v8.292c0 1.14 0 4.613 6.8 6.877a.659.659 0 0 0 .4 0Zm-.205-17.306c.909.867 2.988 2.547 5.668 2.795v7.634c0 2.419-1.801 4.166-5.668 5.493-3.867-1.327-5.669-3.074-5.669-5.493V7.458c2.68-.248 4.76-1.928 5.669-2.795Z" fill="#313235" fill-rule="nonzero"/></svg>