<svg width="24" height="24" xmlns="http://www.w3.org/2000/svg"><path d="M18.076 17.36c-.036 0-.072 0-.104.004-.016 0-.036-.004-.052-.004H8.548l-.632-2.472h11.432L22 4.312H5.212l-.132-.524a2.118 2.118 0 0 0-2.052-1.596h-.324a.705.705 0 0 0 0 1.408h.324c.32 0 .6.22.68.532L7.12 17.46a2.296 2.296 0 0 0-1.64 2.196c0 1.268 1.04 2.292 2.316 2.292 1.276 0 2.316-1.028 2.316-2.292 0-.312-.064-.612-.18-.884h6.004c-.116.272-.18.572-.18.884 0 1.268 1.04 2.292 2.316 2.292a2.3 2.3 0 0 0 2.316-2.292 2.305 2.305 0 0 0-2.312-2.296Zm2.112-11.64-1.94 7.764H7.556L5.572 5.72h14.616ZM8.444 20.268a.905.905 0 0 1-.644.268c-.5 0-.908-.396-.908-.88 0-.236.092-.452.26-.62a.891.891 0 0 1 .644-.268c.5 0 .908.396.908.88a.843.843 0 0 1-.26.62Zm10.276 0a.891.891 0 0 1-.644.268c-.5 0-.908-.396-.908-.88 0-.236.092-.452.26-.62a.891.891 0 0 1 .644-.268c.5 0 .908.396.908.88a.828.828 0 0 1-.26.62Z" fill="#313235" fill-rule="nonzero" opacity=".9"/></svg>