<svg width="24" height="24" xmlns="http://www.w3.org/2000/svg"><path d="M18.221 5.01C19.752 5.01 21 6.353 21 8.001c0 .735-.247 1.409-.66 1.93 1.025.55 1.66 1.515 1.66 2.684v5.589c0 .439-.332.796-.74.796-.407 0-.74-.357-.74-.796V12.62c0-.934-.943-1.592-2.294-1.592-.693 0-1.314.163-1.75.464a.707.707 0 0 1-1.024-.24.831.831 0 0 1 .223-1.102c.128-.092.265-.169.408-.24a3.134 3.134 0 0 1-.64-1.909c0-1.648 1.246-2.99 2.778-2.99ZM12 6.434c1.532 0 2.779 1.343 2.779 2.991 0 .71-.233 1.363-.617 1.873 1.157.557 1.911 1.547 1.911 2.705V18.2c0 .439-.332.796-.74.796-.407 0-.74-.357-.74-.796v-4.196c0-.862-1.185-1.587-2.593-1.587s-2.594.725-2.594 1.587V18.2c0 .439-.332.796-.74.796-.407 0-.739-.357-.739-.796v-4.196c0-1.158.759-2.148 1.91-2.705a3.125 3.125 0 0 1-.616-1.873c0-1.648 1.247-2.99 2.779-2.99ZM5.779 5c1.532 0 2.779 1.342 2.779 2.99 0 .726-.242 1.394-.64 1.91.142.076.28.153.407.24.342.24.441.73.223 1.102a.712.712 0 0 1-1.024.245c-.436-.301-1.057-.464-1.75-.464-1.351 0-2.295.653-2.295 1.592v5.579c0 .439-.332.796-.74.796-.407 0-.739-.357-.739-.796V12.61c0-1.174.635-2.139 1.66-2.69A3.127 3.127 0 0 1 3 7.99C3 6.343 4.248 5 5.78 5ZM12 8.032c-.711 0-1.294.622-1.294 1.393 0 .77.578 1.399 1.294 1.393.711 0 1.294-.627 1.294-1.393S12.716 8.032 12 8.032Zm-6.221-1.43c-.716 0-1.294.628-1.294 1.394 0 .766.578 1.393 1.294 1.393.711 0 1.294-.627 1.294-1.393S6.495 6.603 5.78 6.603Zm12.442 0c-.711 0-1.294.628-1.294 1.394 0 .766.583 1.393 1.294 1.393.711 0 1.294-.627 1.294-1.393s-.578-1.393-1.294-1.393Z" fill="#313235" fill-rule="nonzero" opacity=".9"/></svg>