<svg width="24" height="24" xmlns="http://www.w3.org/2000/svg"><g fill="#003" fill-rule="nonzero"><path d="M14.162 11.298c.384-.51.617-1.163.617-1.873 0-1.648-1.247-2.99-2.779-2.99-1.532 0-2.779 1.342-2.779 2.99 0 .71.233 1.358.617 1.873-1.152.557-1.911 1.547-1.911 2.705V18.2c0 .439.332.796.74.796.407 0 .74-.357.74-.796v-4.196c0-.862 1.185-1.587 2.593-1.587s2.594.725 2.594 1.587V18.2c0 .439.332.796.74.796.407 0 .739-.357.739-.796v-4.196c0-1.158-.754-2.148-1.91-2.705Zm-3.456-1.873c0-.77.583-1.393 1.294-1.393.716 0 1.294.627 1.294 1.393s-.583 1.393-1.294 1.393c-.716.006-1.294-.622-1.294-1.393Z"/><path d="M8.548 11.242c.218-.373.119-.862-.223-1.102a4.662 4.662 0 0 0-.408-.24c.399-.516.64-1.184.64-1.91C8.558 6.343 7.312 5 5.78 5 4.248 5 3 6.342 3 7.99c0 .736.252 1.41.66 1.93C2.635 10.471 2 11.436 2 12.61v5.584c0 .439.332.796.74.796.407 0 .74-.357.74-.796v-5.579c0-.94.943-1.592 2.294-1.592.693 0 1.314.163 1.75.464a.712.712 0 0 0 1.024-.245ZM5.78 6.602c.716 0 1.294.628 1.294 1.394 0 .766-.583 1.393-1.294 1.393-.716 0-1.294-.627-1.294-1.393s.578-1.393 1.294-1.393ZM20.34 9.93c.413-.52.66-1.194.66-1.929 0-1.648-1.248-2.99-2.779-2.99-1.532 0-2.779 1.342-2.779 2.99 0 .725.242 1.388.64 1.909-.142.071-.28.148-.407.24a.831.831 0 0 0-.223 1.102.707.707 0 0 0 1.024.24c.436-.301 1.057-.464 1.75-.464 1.351 0 2.295.658 2.295 1.592v5.584c0 .439.332.796.74.796.407 0 .739-.357.739-.796v-5.589c0-1.169-.635-2.133-1.66-2.685Zm-2.119-3.327c.716 0 1.294.627 1.294 1.393s-.583 1.393-1.294 1.393c-.711 0-1.294-.627-1.294-1.393s.583-1.393 1.294-1.393Z"/></g></svg>