<svg width="24" height="24" xmlns="http://www.w3.org/2000/svg"><path d="M7.754 13.523c3.172 0 5.754-2.585 5.754-5.761S10.926 2 7.754 2C4.582 2 2 4.586 2 7.762c0 3.176 2.582 5.761 5.754 5.761Zm.723-5.038h.87c-.097 1.392-.465 2.457-.87 3.052V8.485Zm0-1.442V3.99c.41.6.773 1.66.87 3.052h-.87Zm-1.441 0h-.87c.097-1.392.465-2.457.87-3.052v3.052Zm0 1.442v3.052c-.41-.6-.773-1.66-.87-3.052h.87Zm3.153 2.844c.322-.797.534-1.765.603-2.848h1.22a4.343 4.343 0 0 1-1.823 2.848Zm1.818-4.286h-1.22c-.064-1.084-.276-2.052-.602-2.849a4.33 4.33 0 0 1 1.822 2.849ZM5.324 4.199C5 4.996 4.79 5.964 4.72 7.047H3.505A4.32 4.32 0 0 1 5.324 4.2ZM3.505 8.485h1.22c.065 1.084.276 2.052.603 2.849a4.33 4.33 0 0 1-1.823-2.849ZM21.73 9.601l-.313-.738-2.2 2.204a.18.18 0 0 1-.25.004l-.524-.493a.188.188 0 0 1-.055-.129c0-.028.004-.083.05-.13l2.214-2.216-.736-.314a3.408 3.408 0 0 0-3.752.733 3.427 3.427 0 0 0-.953 2.992l-3.687 3.692a3.417 3.417 0 0 0-2.987.954 3.417 3.417 0 0 0-.732 3.757l.313.737 2.2-2.203a.18.18 0 0 1 .249-.005l.524.493a.188.188 0 0 1 .056.13.179.179 0 0 1-.05.129l-2.215 2.217.736.313a3.412 3.412 0 0 0 3.752-.733 3.422 3.422 0 0 0 .953-2.987l3.687-3.692a3.43 3.43 0 0 0 3.72-4.715Zm-1.496 2.991c-.59.59-1.45.82-2.256.604l-.304-.083-4.539 4.55.083.304a2.343 2.343 0 0 1-.603 2.258c-.46.461-1.082.715-1.703.687l.957-.959a1.259 1.259 0 0 0-.028-1.807l-.524-.493a1.25 1.25 0 0 0-1.754.023l-.944.94a2.338 2.338 0 0 1 2.942-2.309l.304.083 4.543-4.549-.083-.304a2.343 2.343 0 0 1 .603-2.259c.46-.46 1.078-.71 1.704-.687l-.958.96a1.259 1.259 0 0 0 .028 1.807l.525.492c.497.47 1.27.461 1.753-.023l.944-.945a2.38 2.38 0 0 1-.69 1.71Z" fill="#313235" fill-rule="nonzero"/></svg>