<svg width="24" height="24" xmlns="http://www.w3.org/2000/svg"><path d="M9.365 23a.682.682 0 0 1-.503-.22l-2.41-2.53a.772.772 0 0 1 0-1.056.622.622 0 0 0 .17-.431.622.622 0 0 0-.17-.432.56.56 0 0 0-.822 0 .69.69 0 0 1-1.01 0L2.21 15.8a.772.772 0 0 1 0-1.055L14.133 2.22a.682.682 0 0 1 1.006 0l2.408 2.529a.777.777 0 0 1 0 1.06.63.63 0 0 0 0 .864c.22.23.604.23.823 0a.707.707 0 0 1 1.01 0l2.41 2.53a.772.772 0 0 1 0 1.055L9.872 22.779a.71.71 0 0 1-.507.221Zm-1.49-3.374 1.49 1.565L20.277 9.73l-1.49-1.564a1.956 1.956 0 0 1-2.25-.437 2.184 2.184 0 0 1-.411-2.356l-1.486-1.56L3.728 15.269l1.49 1.564a1.949 1.949 0 0 1 2.245.432c.38.399.59.931.59 1.493 0 .302-.06.6-.179.868Zm2.65-3.013a.529.529 0 0 1-.173-.03.556.556 0 0 1-.357-.474l-.196-2.16-1.797-.859a.574.574 0 0 1-.315-.518.561.561 0 0 1 .329-.509l1.879-.83.233-2.092a.55.55 0 0 1 .375-.47.52.52 0 0 1 .562.172l1.303 1.593 2.002-.403c.21-.043.42.048.544.236a.574.574 0 0 1 .014.614l-1.042 1.761.978 1.91c.1.192.082.432-.046.605a.526.526 0 0 1-.544.206l-1.965-.46-1.395 1.53a.515.515 0 0 1-.388.178Zm-.973-4.017.97.46c.173.082.292.26.31.457l.114 1.257.791-.874a.512.512 0 0 1 .503-.158l1.12.264-.567-1.113a.583.583 0 0 1 .018-.562l.558-.95-1.11.226a.517.517 0 0 1-.508-.188l-.709-.873-.128 1.137a.554.554 0 0 1-.324.451l-1.038.466Z" fill="#313235" fill-rule="nonzero" opacity=".9"/></svg>