<svg width="24" height="24" xmlns="http://www.w3.org/2000/svg"><path d="M14.821 2H8.508C6.58 2 5 3.608 5 5.571V18.43C5 20.392 6.58 22 8.508 22h6.317c1.93 0 3.508-1.608 3.508-3.571V5.57C18.33 3.608 16.75 2 14.821 2ZM8.508 3.428h6.317c1.053 0 1.894.784 2.07 1.783H6.435c.177-.995 1.017-1.783 2.074-1.783ZM6.434 18.785h2.773a.711.711 0 0 0 .704-.716.711.711 0 0 0-.704-.716H6.402V6.643h10.525v10.714h-4.561v-7.21l1.615 1.643a.69.69 0 0 0 .49.216.69.69 0 0 0 .492-.216.702.702 0 0 0 0-1l-3.3-3.431-3.296 3.427a.702.702 0 0 0 0 1 .673.673 0 0 0 .982 0l1.614-1.644v10.43H8.508c-1.057 0-1.897-.788-2.074-1.787Zm8.387 1.787h-2.455V18.79h4.526c-.177.995-1.018 1.783-2.07 1.783Z" fill="#313235" fill-rule="nonzero"/></svg>