<svg width="24" height="24" xmlns="http://www.w3.org/2000/svg"><path d="M13.11 1c1.223 0 2.222 1.012 2.222 2.25v.374h5.922a.749.749 0 0 1 .004 1.5h-1.48v14.625c0 1.239-1 2.251-2.223 2.251H6.445c-1.223 0-2.222-1.012-2.222-2.25V5.127h-1.48A.746.746 0 0 1 2 4.376c0-.416.336-.752.742-.752h5.922v-.373c0-1.239 1-2.251 2.223-2.251Zm5.183 4.124H5.703v14.621c0 .416.336.752.742.752H17.55c.411 0 .743-.34.743-.752V5.124ZM14.59 6.623c.41 0 .742.34.742.751v10.872a.746.746 0 0 1-.742.752.749.749 0 0 1-.743-.752V7.374c0-.411.332-.751.743-.751Zm-5.184 0c.407 0 .742.34.742.751v10.872a.746.746 0 0 1-.742.752.749.749 0 0 1-.742-.752V7.374c0-.415.336-.751.742-.751Zm3.707-4.124h-2.222c-.41 0-.743.34-.743.752h.005v.373h3.703v-.373a.749.749 0 0 0-.743-.752Z" fill="#313235" fill-rule="nonzero"/></svg>