<svg width="24" height="24" xmlns="http://www.w3.org/2000/svg"><path d="M9.14 2c1.776 0 3.216 1.47 3.216 3.274v.362h2.796L22 12.606v7.212h-2.328C19.232 21.088 18.04 22 16.644 22c-1.396 0-2.584-.912-3.028-2.182h-10.9a.722.722 0 0 1-.716-.73c0-.402.32-.728.716-.728h8.212V5.274c0-1.002-.8-1.816-1.784-1.816H2.716A.724.724 0 0 1 2 2.728c0-.398.32-.724.716-.728Zm7.504 14.91c-.984 0-1.784.815-1.784 1.816 0 1.002.8 1.816 1.784 1.816s1.784-.814 1.784-1.816c0-1.001-.8-1.816-1.784-1.816ZM14.56 7.094h-2.2V18.36h1.092c.176-1.633 1.544-2.907 3.192-2.907 1.648 0 3.012 1.274 3.192 2.907h.736v-5.147l-6.012-6.12Zm-6.128 5.81c.396 0 .716.326.716.729 0 .403-.32.729-.716.729H2.716a.722.722 0 0 1-.716-.73c0-.402.32-.728.716-.728ZM5.216 9.268c.396 0 .716.326.716.729 0 .403-.32.729-.716.729h-2.5A.718.718 0 0 1 2 10c0-.403.32-.729.716-.733Z" fill="#313235" fill-rule="nonzero"/></svg>