<svg width="24" height="24" xmlns="http://www.w3.org/2000/svg"><path d="M12.36 2C17.672 2 22 6.543 22 12.118s-4.328 10.118-9.64 10.118c-1.348 0-2.656-.307-3.892-.84L2.9 22.962C2.864 23 2.792 23 2.72 23a.697.697 0 0 1-.508-.227.754.754 0 0 1-.184-.726l1.528-5.844a10.445 10.445 0 0 1-.836-4.085C2.72 6.543 7.048 2 12.36 2Zm-.004 1.528c-4.512 0-8.184 3.858-8.184 8.59 0 1.297.256 2.519.8 3.665.072.151.072.344.036.533L3.736 21.17l4.58-1.302c.184-.038.364-.038.508.038 1.092.533 2.292.84 3.492.84 4.548-.038 8.22-3.892 8.22-8.628 0-4.736-3.672-8.59-8.18-8.59Zm-.508 12.486c.402 0 .728.342.728.764s-.326.764-.728.764c-.402 0-.728-.342-.728-.764s.326-.764.728-.764Zm.288-9.467a3.01 3.01 0 0 1 2.436 1.26c.692.952.8 2.67-.108 3.627l-.98 1.028c-.508.533-.8 1.26-.8 2.062-.072.457-.4.801-.8.801s-.728-.344-.728-.764c0-1.184.436-2.292 1.236-3.132l.98-1.028c.364-.382.292-1.222 0-1.642-.292-.42-.8-.688-1.272-.688h-.184c-.508 0-.98.306-1.236.764-.216.382-.656.495-.98.269a.745.745 0 0 1-.256-1.029 2.868 2.868 0 0 1 2.508-1.528h.184Z" fill="#313235" fill-rule="nonzero" opacity=".9"/></svg>