<svg width="24" height="24" xmlns="http://www.w3.org/2000/svg"><path d="M12 22C6.488 22 2 17.516 2 12S6.488 2 12 2s10 4.488 10 10-4.488 10-10 10Zm0-18.57c-4.726 0-8.57 3.844-8.57 8.57 0 4.726 3.844 8.57 8.57 8.57 4.726 0 8.57-3.844 8.57-8.57 0-4.726-3.844-8.57-8.57-8.57ZM8.965 17.714A.71.71 0 0 1 8.252 17V7c0-.256.137-.494.357-.617a.708.708 0 0 1 .717.005l8.57 4.995a.714.714 0 0 1 0 1.234l-8.57 5a.737.737 0 0 1-.36.096Zm.713-9.47v7.51L16.118 12l-6.44-3.757Z" fill="#0019A5" fill-rule="nonzero"/></svg>