<svg width="24" height="24" xmlns="http://www.w3.org/2000/svg"><path d="M15.15 17.717c1.117-1.143 1.71-2.643 1.71-4.252 0-2.002-1.393-4.288-2.509-6.144-.174-.32-1.92-3.392-2.827-4.964-.138-.215-.348-.357-.594-.357a.674.674 0 0 0-.594.357C9.43 3.929 7.72 7 7.51 7.285 6.393 9.14 5 11.463 5 13.465c0 1.61.63 3.14 1.746 4.288a5.816 5.816 0 0 0 4.189 1.751 6.149 6.149 0 0 0 4.215-1.787c-.035 0 0 0 0 0Zm-1.045-.965a4.425 4.425 0 0 1-3.175 1.321 4.42 4.42 0 0 1-3.21-1.358c-.871-.859-1.327-2.034-1.327-3.25 0-1.609 1.29-3.716 2.305-5.394.174-.284 1.464-2.537 2.232-3.927a198.453 198.453 0 0 0 2.233 3.927c1.014 1.714 2.304 3.822 2.304 5.394a4.737 4.737 0 0 1-1.362 3.287c.032-.037.032 0 0 0Zm5.373-.105h-1.394a.545.545 0 0 0-.522.535c0 .283.245.535.522.535h1.394a.545.545 0 0 0 .522-.535.545.545 0 0 0-.522-.535Zm-2.233 1.929a.497.497 0 0 0-.733 0 .525.525 0 0 0 0 .75l.943.964a.524.524 0 0 0 .384.142.53.53 0 0 0 .384-.142.525.525 0 0 0 0-.75l-.978-.964Zm-2.305.928a.545.545 0 0 0-.522.535v1.426c0 .284.246.535.522.535a.545.545 0 0 0 .523-.535V20.04a.538.538 0 0 0-.523-.535Z" fill="#003" fill-rule="nonzero"/></svg>