<svg width="24" height="24" xmlns="http://www.w3.org/2000/svg"><path d="m16.98 15.746-1.66-6.764a3.47 3.47 0 0 0-1.553-2.24c.55-.5.9-1.22.9-2.028C14.667 3.216 13.473 2 12.001 2S9.334 3.216 9.334 4.714c0 .807.35 1.528.9 2.027A3.426 3.426 0 0 0 8.685 8.96l-1.668 6.782v.013a.343.343 0 0 0-.008.07.386.386 0 0 0-.009.069v.013c0 .017.004.03.004.048a.389.389 0 0 0 .026.134.387.387 0 0 0 .021.065.4.4 0 0 0 .03.061c.009.018.017.04.03.057l.038.052a.458.458 0 0 0 .043.052c.013.013.03.026.043.043.017.013.034.03.05.044.018.013.035.021.056.034.017.014.039.022.056.03.021.01.047.018.068.027.013.004.03.013.043.017h.013a.324.324 0 0 0 .064.009.467.467 0 0 0 .072.009H9.338V21h5.334v-4.411h1.501a.462.462 0 0 0 .077-.009c.03.004.06.009.09.009a.521.521 0 0 0 .162-.022.68.68 0 0 0 .478-.82ZM12 3.36c.734 0 1.332.608 1.332 1.355 0 .746-.598 1.354-1.34 1.354a1.347 1.347 0 0 1-1.327-1.354c.004-.747.602-1.355 1.336-1.355Zm1.332 11.87v4.412h-2.667V15.23H8.52l1.463-5.966c.21-.999 1.02-1.667 2.014-1.667.994 0 1.805.668 2.018 1.689l1.46 5.94h-2.142v.004Z" fill="#313235" fill-rule="nonzero" opacity=".9"/></svg>