<svg width="40" height="40" viewBox="0 0 40 40" xmlns="http://www.w3.org/2000/svg"><g fill="#019BF2" fill-rule="nonzero"><path d="M18.88 20.883V23.4a1 1 0 002 0v-2.518c0-.065.038-.122.095-.15l.08-.03c2.312-.986 3.99-2.758 3.99-5.015a5.166 5.166 0 00-10.332 0 1 1 0 002 0 3.166 3.166 0 016.333 0c0 1.279-1.105 2.454-2.741 3.16a2.166 2.166 0 00-1.425 2.035zM19.881 26.43c.272 0 .536.066.773.188.05.026.095.055.138.086l.041.036.046.024.143.11a1.69 1.69 0 01-1.14 2.935 1.69 1.69 0 010-3.38z"/><path d="M20 37.667c9.757 0 17.667-7.91 17.667-17.667 0-9.757-7.91-17.667-17.667-17.667-9.757 0-17.667 7.91-17.667 17.667 0 9.757 7.91 17.667 17.667 17.667zm0-2c-8.652 0-15.667-7.015-15.667-15.667 0-8.652 7.015-15.667 15.667-15.667 8.652 0 15.667 7.015 15.667 15.667 0 8.652-7.015 15.667-15.667 15.667z"/></g></svg>