<?xml version="1.0" encoding="UTF-8"?>
<svg width="41px" height="40px" viewBox="0 0 41 40" version="1.1" xmlns="http://www.w3.org/2000/svg" xmlns:xlink="http://www.w3.org/1999/xlink">
    <title>icn-submotiv-dollar</title>
    <g id="Maria" stroke="none" stroke-width="1" fill="none" fill-rule="evenodd">
        <g id="Assets/Global/40/SubmotivDollar" transform="translate(1.000000, 0.000000)" fill="#000000" fill-rule="nonzero">
            <g id="-----ICON-LAYERS-----" transform="translate(0.000000, 0.000000)">
                <path d="M19.994,2.84217094e-14 C31.037,2.84217094e-14 39.989,8.952 39.989,19.995 C39.989,31.038 31.037,39.99 19.994,39.99 C8.951,39.99 1.84741111e-13,31.038 1.84741111e-13,19.995 C1.84741111e-13,8.952 8.951,2.84217094e-14 19.994,2.84217094e-14 Z M19.7022,9 C19.2462,9 18.8772,9.37 18.8772,9.825 L18.8772,11.291 C16.1372,11.58 14.3992,13.37 14.3992,16.045 C14.3992,17.784 15.1942,19.946 18.8792,20.542 L18.8802,26.527 C17.7782,26.382 16.6712,25.951 15.5772,25.211 C15.2552,24.992 14.8472,24.97 14.5102,25.145 C14.1952,25.309 14.0002,25.613 14.0002,25.938 C14.0002,26.304 14.1472,26.579 14.4652,26.805 C15.7402,27.709 17.3182,28.247 18.8812,28.369 L18.8812,29.825 C18.8812,30.281 19.2512,30.65 19.7062,30.65 C20.1622,30.65 20.5312,30.28 20.5312,29.825 L20.5312,28.353 C23.5592,28.023 25.4082,26.224 25.4082,23.466 C25.4082,21.646 24.5602,19.367 20.5292,18.848 L20.5282,13.125 C21.3522,13.244 22.1572,13.523 23.0052,13.99 C23.1572,14.065 23.3592,14.151 23.5752,14.151 C24.0682,14.151 24.4692,13.742 24.4692,13.238 C24.4692,13.036 24.3952,12.649 23.9002,12.341 C22.9722,11.757 21.7962,11.401 20.5272,11.285 L20.5272,9.825 C20.5272,9.369 20.1572,9 19.7022,9 Z M20.5292,20.781 C23.1742,21.264 23.5492,22.447 23.5492,23.56 C23.5492,25.198 22.4142,26.294 20.5302,26.542 L20.5292,20.781 Z M18.8782,13.107 L18.8792,18.587 C16.5852,18.061 16.2592,16.908 16.2592,15.925 C16.2592,14.376 17.2442,13.341 18.8782,13.107 Z" id="Combined-Shape"></path>
            </g>
        </g>
    </g>
</svg>