<?xml version="1.0" encoding="UTF-8"?>
<svg width="24px" height="24px" viewBox="0 0 24 24" version="1.1" xmlns="http://www.w3.org/2000/svg" xmlns:xlink="http://www.w3.org/1999/xlink">
    <title>icn-help-device-support copy 8</title>
    <g id="Hector" stroke="none" stroke-width="1" fill="none" fill-rule="evenodd" stroke-linecap="round" stroke-linejoin="round">
        <g id="Assets/O2/24/Faq-Copy-38" stroke="#86888C" stroke-width="1.2">
            <g id="icn-help-device-support" transform="translate(2.000000, 2.000000)">
                <path d="M7.42808421,7.41273684 C7.42808421,6.03242105 8.54787368,4.91357895 9.92818947,4.91357895 C11.3094526,4.91357895 12.4273474,6.03242105 12.4273474,7.41273684 C12.4273474,8.63294737 11.3388211,9.46852632 10.3980842,9.86926316 L10.3999789,9.86831579 C10.1252421,9.96305263 9.92818947,10.2235789 9.92818947,10.5295789 L9.92818947,12.0406316" id="Stroke-1"></path>
                <path d="M10.2071895,14.5656526 C10.2896105,14.6414421 10.3417158,14.7503895 10.3417158,14.8716526 C10.3417158,15.0999684 10.1560316,15.2856526 9.92866316,15.2856526 C9.70034737,15.2856526 9.51466316,15.0999684 9.51466316,14.8716526 C9.51466316,14.6433368 9.70034737,14.4576526 9.92866316,14.4576526 C9.99592632,14.4576526 10.0603474,14.4747053 10.1171895,14.5040737" id="Stroke-3"></path>
                <path d="M18.0482774,15.9350535 C19.3761291,14.1361642 20.1117257,11.8839414 19.9861631,9.47727408 C19.6972581,3.96171712 14.9925515,-0.274950618 9.47779979,0.0139383443 C3.96193688,0.301716195 -0.27496587,5.00727294 0.0139391175,10.5228299 C0.301732932,16.0372757 5.0075507,20.2739435 10.5223024,19.9861656 C12.5546379,19.8794989 14.4136304,19.1739432 15.9370486,18.0483874" id="Stroke-5"></path>
            </g>
        </g>
    </g>
</svg>