<svg width="24" height="24" viewBox="0 0 24 24" xmlns="http://www.w3.org/2000/svg"><g fill="none" fill-rule="evenodd"><path d="M11.328 12.53v1.51a.6.6 0 101.2 0v-1.51a.1.1 0 01.057-.09.752.752 0 00.048-.019c1.387-.59 2.394-1.654 2.394-3.008a3.1 3.1 0 00-6.2 0 .6.6 0 101.201 0 1.9 1.9 0 013.8 0c0 .767-.663 1.472-1.645 1.896a1.3 1.3 0 00-.855 1.22z" fill="#86888C" fill-rule="nonzero"/><path d="M12.207 16.566a.415.415 0 01-.278.72.414.414 0 11.188-.782" stroke="#86888C" stroke-width="1.2" stroke-linecap="round" stroke-linejoin="round"/><path d="M12 22.6c5.854 0 10.6-4.746 10.6-10.6 0-5.854-4.746-10.6-10.6-10.6C6.146 1.4 1.4 6.146 1.4 12c0 5.854 4.746 10.6 10.6 10.6zm0-1.2a9.4 9.4 0 110-18.8 9.4 9.4 0 010 18.8z" fill="#86888C" fill-rule="nonzero"/></g></svg>