<svg width="24" height="24" viewBox="0 0 24 24" xmlns="http://www.w3.org/2000/svg"><g stroke="#86888C" stroke-width="1.2" fill="none" fill-rule="evenodd" stroke-linecap="round" stroke-linejoin="round"><path d="M9.428 9.413a2.5 2.5 0 015 0c0 1.22-1.09 2.056-2.03 2.456h.002a.7.7 0 00-.472.66v1.512M12.207 16.566a.415.415 0 01-.278.72.414.414 0 11.188-.782"/><path d="M20.048 17.935a9.962 9.962 0 001.938-6.458c-.289-5.515-4.993-9.752-10.508-9.463-5.516.288-9.753 4.993-9.464 10.509.288 5.514 4.994 9.75 10.508 9.463a9.959 9.959 0 005.415-1.938"/></g></svg>