<?xml version="1.0" encoding="UTF-8"?>
<svg width="24px" height="24px" viewBox="0 0 24 24" version="1.1" xmlns="http://www.w3.org/2000/svg" xmlns:xlink="http://www.w3.org/1999/xlink">
    <title>icn_protocols</title>
    <g id="Quique" stroke="none" stroke-width="1" fill="none" fill-rule="evenodd">
        <g id="Assets/Global/24/Protocols" fill="#000000" fill-rule="nonzero">
            <g id="-----ICON-LAYERS-----" transform="translate(2.500000, 1.000000)">
                <path d="M6.949772,0.0631705872 C7.29784134,0.214882839 7.47276109,0.598915807 7.37201679,0.954342677 L7.33762941,1.050372 L6.93894341,1.96211632 C7.82193085,1.70160951 8.7460343,1.567 9.6889,1.567 C15.039946,1.567 19.3779,5.90461884 19.3779,11.255 C19.3779,16.6062136 15.0401136,20.944 9.6889,20.944 C4.33851884,20.944 0.0009,16.606046 0.0009,11.255 C0.0009,9.27964027 0.593120664,7.39172779 1.68354926,5.79502877 C1.91714983,5.4529708 2.38381327,5.3650487 2.72587123,5.59864926 C3.0679292,5.83224983 3.1558513,6.29891327 2.92225074,6.64097123 C2.00078002,7.99026765 1.5009,9.58381171 1.5009,11.255 C1.5009,15.7776448 5.16697191,19.444 9.6889,19.444 C14.2116864,19.444 17.8779,15.7777864 17.8779,11.255 C17.8779,6.73307191 14.2115448,3.067 9.6889,3.067 C8.85342578,3.067 8.03668317,3.19156151 7.25946943,3.43223048 L8.23339832,3.95028646 C8.59912876,4.144745 8.73797207,4.59886788 8.54351354,4.96459832 C8.36525988,5.29985122 7.96881604,5.44445592 7.62227437,5.31644597 L7.52920168,5.27471354 L5.16320168,4.01671354 L5.1389,4.00150995 L5.1163042,3.99000704 C5.10991391,3.98600681 5.10360035,3.98192029 5.0973644,3.97774972 L5.16320168,4.01671354 C5.1216414,3.99461598 5.08301097,3.96916531 5.04746653,3.94087229 C5.0359856,3.93214999 5.02505789,3.92291083 5.01443672,3.91339596 C5.00142781,3.90134986 4.98848539,3.88890045 4.97605527,3.87605412 C4.96368864,3.86367267 4.9517053,3.85035478 4.94024082,3.83665898 C4.92902714,3.82286976 4.91845336,3.80929867 4.90838205,3.79541395 C4.8992821,3.78327979 4.89032778,3.77008824 4.88181065,3.7566419 C4.87093752,3.73902483 4.86099535,3.7218086 4.85176152,3.7042521 C4.844975,3.69186113 4.83848482,3.67862231 4.8323893,3.66520875 C4.80576479,3.60589758 4.78677677,3.54395699 4.77591018,3.48042474 C4.77176938,3.4564702 4.76982525,3.44122672 4.76835071,3.42591103 C4.76731753,3.41243343 4.76635978,3.39858722 4.76578726,3.38470527 L4.7649962,3.36565876 C4.76480547,3.35311763 4.76493063,3.3405473 4.76537614,3.32795915 C4.76621866,3.31018316 4.76746186,3.29250107 4.76934338,3.2748299 C4.77087051,3.25884751 4.77316877,3.2424772 4.77602644,3.22612839 C4.77946354,3.20717821 4.78344906,3.18853151 4.78817521,3.16997049 C4.78969229,3.16368898 4.79139429,3.15736864 4.79318321,3.15105732 L4.80142285,3.12413203 C4.80685045,3.10737968 4.81290071,3.09072529 4.81958269,3.0741985 L4.82757059,3.055028 L5.96257059,0.451028002 C6.12807486,0.071315992 6.57005999,-0.102333687 6.949772,0.0631705872 Z M14.0826301,8.69216991 C14.3488966,8.95843648 14.3731027,9.37510016 14.1552482,9.66871165 L14.0826301,9.75283009 L9.69863009,14.1368301 C9.43232638,14.4031338 9.01559263,14.4273045 8.72198143,14.2093692 L8.6378653,14.1367255 L6.1038653,11.6017255 C5.81102987,11.3087745 5.81112355,10.8339007 6.10407455,10.5410653 C6.37039363,10.2748513 6.78706208,10.2507274 7.08063059,10.4686398 L7.1647347,10.5412745 L9.168,12.545 L13.0219699,8.69216991 C13.3148631,8.3992767 13.7897369,8.3992767 14.0826301,8.69216991 Z" id="Combined-Shape"></path>
            </g>
        </g>
    </g>
</svg>