<?xml version="1.0" encoding="UTF-8"?>
<svg width="24px" height="24px" viewBox="0 0 24 24" version="1.1" xmlns="http://www.w3.org/2000/svg" xmlns:xlink="http://www.w3.org/1999/xlink">
    <title>icn_completed</title>
    <g id="Quique" stroke="none" stroke-width="1" fill="none" fill-rule="evenodd">
        <g id="Assets/Global/24/Completed" fill="#000000" fill-rule="nonzero">
            <g id="-----ICON-LAYERS-----" transform="translate(0.500000, 0.500000)">
                <path d="M11.497,0.75 C18.5490751,0.75 22.25,4.45064802 22.25,11.502 C22.25,18.5505441 18.5488829,22.25 11.497,22.25 C4.44900954,22.25 0.75,18.5504367 0.75,11.502 C0.75,4.45075538 4.44881738,0.75 11.497,0.75 Z M11.497,2.25 C5.27742045,2.25 2.25,5.27900667 2.25,11.502 C2.25,17.7220598 5.27748694,20.75 11.497,20.75 C17.7206065,20.75 20.75,17.7219662 20.75,11.502 C20.75,5.27910026 17.7206731,2.25 11.497,2.25 Z M16.6514934,7.16043986 C16.947498,7.39319946 17.0210168,7.80403951 16.8395742,8.12144598 L16.7774601,8.2135934 L10.5614601,16.1185934 C10.2839681,16.4714851 9.76896427,16.4982 9.4554569,16.199121 L9.38153195,16.1175641 L6.90953195,12.9625641 C6.65406484,12.6365129 6.71128461,12.1650991 7.03733588,11.909632 C7.33374612,11.6773891 7.75029068,11.7035652 8.01551261,11.955211 L8.09026805,12.0374359 L9.9726,14.4395 L15.5983399,7.2864066 C15.8543754,6.96080152 16.3258883,6.90440429 16.6514934,7.16043986 Z" id="Combined-Shape"></path>
            </g>
        </g>
    </g>
</svg>