<?xml version="1.0" encoding="UTF-8"?>
<svg width="24px" height="24px" viewBox="0 0 24 24" version="1.1" xmlns="http://www.w3.org/2000/svg" xmlns:xlink="http://www.w3.org/1999/xlink">
    <title>icn_service_credit_extension</title>
    <g id="Quique" stroke="none" stroke-width="1" fill="none" fill-rule="evenodd">
        <g id="Assets/Global/24/ServiceCreditExtension" fill="#000000" fill-rule="nonzero">
            <g id="-----ICON-LAYERS-----">
                <path d="M12,-0.0004 C18.627,-0.0004 24,5.3726 24,11.9996 C24,18.6276 18.627,23.9996 12,23.9996 C5.373,23.9996 0,18.6276 0,11.9996 C0,5.3726 5.373,-0.0004 12,-0.0004 Z M8.2265,4.9785 C7.7325,4.9785 7.2385,5.4235 7.2385,5.8685 L7.2385,5.8685 L7.2385,7.1275 L7.06492512,7.17454902 C5.92707823,7.51779705 5.1815,8.44754762 5.1815,9.6485 C5.1815,11.6495 7.3235,12.3895 7.9795,12.6125 C9.6255,13.1325 9.7915,13.6495 9.7915,14.1685 C9.7915,14.9845 9.2135,15.4305 8.0615,15.4305 C7.2385,15.4305 6.6645,15.1325 6.3345,14.6135 C6.0035,14.1685 5.4605,14.0305 4.9355,14.3175 C4.5485,14.5375 4.4415,15.0585 4.6875,15.5035 C5.2635,16.3935 6.0865,16.9105 7.1565,17.1335 L7.1565,17.1335 L7.1565,18.0245 L7.1638812,18.1331538 C7.22707143,18.5934694 7.68578571,18.9125 8.1445,18.9125 C8.6375,18.9125 9.1325,18.4685 9.1325,18.0245 L9.1325,18.0245 L9.1325,17.1335 L9.32722358,17.0940823 C10.862388,16.7477128 11.8485,15.66034 11.8485,14.0965 C11.8485,11.8715 9.4605,11.0565 8.6375,10.7595 C7.3235,10.3165 7.1565,9.9445 7.1565,9.5735 C7.1565,9.3525 7.1525,8.7855 8.2205,8.7855 C9.0445,8.7855 9.4605,9.3525 9.4605,9.4255 C9.7915,9.8695 10.3665,10.0195 10.8605,9.7225 C11.3535,9.4255 11.5195,8.9055 11.1885,8.4625 C10.9425,8.0175 10.2025,7.4255 9.2135,7.1275 L9.2135,7.1275 L9.2135,5.8685 L9.20611917,5.75944752 C9.14293367,5.29753061 8.68428571,4.9785 8.2265,4.9785 Z M17.2227,8.9762 C16.8084864,8.9762 16.4727,9.31198644 16.4727,9.7262 L16.4727,9.7262 L16.4726566,11.2135 L14.984,11.2144 L14.8822294,11.2212466 C14.5161539,11.270909 14.234,11.5847042 14.234,11.9644 C14.234,12.3786136 14.5697864,12.7144 14.984,12.7144 L14.984,12.7144 L16.4726566,12.7135 L16.4727,14.2032 L16.4795466,14.3049706 C16.529209,14.6710461 16.8430042,14.9532 17.2227,14.9532 C17.6369136,14.9532 17.9727,14.6174136 17.9727,14.2032 L17.9727,14.2032 L17.9726566,12.7135 L19.46,12.7144 L19.5617706,12.7075534 C19.9278461,12.657891 20.21,12.3440958 20.21,11.9644 C20.21,11.5501864 19.8742136,11.2144 19.46,11.2144 L19.46,11.2144 L17.9726566,11.2135 L17.9727,9.7262 L17.9658534,9.62442944 C17.916191,9.25835388 17.6023958,8.9762 17.2227,8.9762 Z" id="Combined-Shape"></path>
            </g>
        </g>
    </g>
</svg>