<svg width="40" height="40" viewBox="0 0 40 40" xmlns="http://www.w3.org/2000/svg"><g fill="none" fill-rule="evenodd"><path d="M-49-94h552v890a4 4 0 01-4 4H-45a4 4 0 01-4-4V-94z" fill="#FFEFFA"/><path d="M19.994 0c11.043 0 19.995 8.952 19.995 19.995 0 11.043-8.952 19.995-19.995 19.995C8.952 39.99 0 31.038 0 19.995 0 8.952 8.952 0 19.994 0zm-9.043 15.949a.75.75 0 00-.75.75v10.303a.75.75 0 001.5 0V16.699a.75.75 0 00-.75-.75zm6 4.485a.75.75 0 00-.75.75v5.818a.75.75 0 001.5 0v-5.818a.75.75 0 00-.75-.75zm6-8.17a.75.75 0 00-.75.75v13.988a.75.75 0 001.5 0V13.015a.75.75 0 00-.75-.75zm6 1.503a.75.75 0 00-.75.75v12.485a.75.75 0 001.5 0V14.517a.75.75 0 00-.75-.75z" fill="#000" fill-rule="nonzero"/></g></svg>