<svg width="41" height="41" viewBox="0 0 41 41" xmlns="http://www.w3.org/2000/svg"><path d="M20.994 1c11.043 0 19.995 8.952 19.995 19.995 0 11.043-8.952 19.995-19.995 19.995C9.951 40.99 1 32.038 1 20.995 1 9.952 9.951 1 20.994 1zm.185 8C13.211 9 9 13.21 9 21.177c0 7.968 4.211 12.179 12.179 12.179s12.179-4.211 12.179-12.179C33.358 13.21 29.147 9 21.179 9zm0 1.5c7.086 0 10.679 3.592 10.679 10.677 0 7.086-3.593 10.679-10.679 10.679S10.5 28.263 10.5 21.177c0-7.085 3.593-10.677 10.679-10.677zm0 15.362c-.604 0-.996.316-.996.996 0 .326.091.568.252.733.174.176.431.262.744.262s.569-.086.744-.262c.16-.165.251-.407.251-.733 0-.68-.391-.996-.995-.996zm0-11.149a3.693 3.693 0 00-3.689 3.688.65.65 0 101.3 0 2.391 2.391 0 012.389-2.387 2.39 2.39 0 012.388 2.387c0 .612-.231 1.194-.576 1.572l-1.817 1.418-.132.124a1.85 1.85 0 00-.523 1.29v1.578l.007.096a.65.65 0 001.294-.096v-1.579l.008-.095a.521.521 0 01.165-.309l1.87-1.468.156-.176a3.678 3.678 0 00.848-2.355 3.693 3.693 0 00-3.688-3.688z" fill="#000" fill-rule="nonzero"/></svg>