<svg width="24" height="24" viewBox="0 0 24 24" xmlns="http://www.w3.org/2000/svg"><path d="M4.947 2.8c.2 0 .39.078.53.219l.762.761c.143.143.253.311.338.525l.34 1.057c.06.185.166.357.307.499l4.259 4.26 3.334-3.334c.05-.05.106-.17.127-.24l.008-.043c-.02-.198-.175-1.958.662-2.795.813-.814 2.425-.838 2.606-.838.262.002.466.122.55.323.082.201.021.43-.16.614l-.707.706a.414.414 0 00-.088.264l.144 1.012c.005.021.042.06.063.064l1.03.146a.426.426 0 00.247-.09l.707-.706a.6.6 0 01.427-.196c.252 0 .507.2.51.582 0 .18-.019 1.79-.839 2.61-.565.565-1.569.683-2.313.683a6.77 6.77 0 01-.467-.016.602.602 0 00-.323.133l-2.082 2.082.095.09 5.48 5.444c.488.487.73.978.72 1.46-.008.464-.25.938-.72 1.407l-.957.958c-.468.468-.942.71-1.407.718-.481.01-.971-.232-1.458-.718l-5.481-5.447a3.852 3.852 0 01-.091-.093l-2.166 2.167a.673.673 0 00-.135.285c.02.201.17 1.982-.666 2.818-.813.813-2.426.837-2.609.837-.259 0-.463-.12-.546-.323-.083-.2-.024-.43.16-.613l.706-.706a.423.423 0 00.088-.265l-.145-1.01c-.004-.023-.043-.06-.063-.066l-1.029-.145a.44.44 0 00-.248.09l-.706.705a.6.6 0 01-.428.197c-.25 0-.506-.2-.508-.582 0-.18.017-1.79.838-2.61.57-.572 1.587-.692 2.338-.692.207 0 .362.01.431.015.091 0 .26-.069.324-.133l3.383-3.383-4.255-4.256a1.26 1.26 0 00-.36-.253l-.136-.054-1.093-.356a1.49 1.49 0 01-.494-.327l-.764-.763a.766.766 0 01.009-1.075l1.375-1.375a.768.768 0 01.546-.228z" fill="#000" fill-rule="nonzero"/></svg>