<?xml version="1.0" encoding="UTF-8"?>
<svg width="24px" height="24px" viewBox="0 0 24 24" version="1.1" xmlns="http://www.w3.org/2000/svg" xmlns:xlink="http://www.w3.org/1999/xlink">
    <title>icn_transport</title>
    <g id="Quique" stroke="none" stroke-width="1" fill="none" fill-rule="evenodd">
        <g id="Assets/Global/24/Transport" fill="#000000" fill-rule="nonzero">
            <g id="-----ICON-LAYERS-----" transform="translate(0.500000, 3.500000)">
                <path d="M16.1554,0.8 C16.8350583,0.8 17.4766419,1.11404477 17.8933799,1.6505005 L17.8933799,1.6505005 L22.2367892,7.23402718 C22.5371646,7.62087426 22.7004,8.09678033 22.7004,8.587 L22.7004,8.587 L22.7004,11.719 C22.7004,12.9359791 21.713848,13.923 20.4974,13.923 L20.4974,13.923 L20.093255,13.9226718 C19.8355928,15.3168735 18.82222,16.1008 17.2283,16.1008 C15.6344942,16.1008 14.6217739,15.3169707 14.3642964,13.9227136 L9.83454236,13.9227297 C9.57682726,15.3170081 8.56321972,16.1008 6.9686,16.1008 C5.37549379,16.1008 4.36300837,15.316836 4.10558375,13.9226557 L4.0644,13.923 C2.8472175,13.923 1.8614,12.936245 1.8614,11.719 L1.8614,11.719 L1.861,10.29 L0.95,10.2907 C0.535786438,10.2907 0.2,9.95491356 0.2,9.5407 C0.2,9.16100423 0.482153882,8.84720904 0.848229443,8.79754662 L0.95,8.7907 L1.861,8.79 L1.861,7.384 L0.95,7.3844 C0.535786438,7.3844 0.2,7.04861356 0.2,6.6344 C0.2,6.25470423 0.482153882,5.94090904 0.848229443,5.89124662 L0.95,5.8844 L1.861,5.884 L1.861,4.479 L0.95,4.4792 C0.535786438,4.4792 0.2,4.14341356 0.2,3.7292 C0.2,3.34950423 0.482153882,3.03570904 0.848229443,2.98604662 L0.95,2.9792 L1.86151982,2.97978336 C1.87397054,1.77399365 2.85520316,0.8 4.0644,0.8 L4.0644,0.8 Z M6.9694,11.743 C6.51660591,11.743 6.18603098,11.8195003 5.95760152,11.9926245 C5.66565064,12.2138599 5.5406,12.5932932 5.5406,13.1728 C5.5406,14.2041546 5.93738166,14.6008 6.9686,14.6008 C8.00204553,14.6008 8.3996,14.2039274 8.3996,13.1728 L8.3996,13.1728 L8.39595611,13.0156445 C8.35963576,12.201455 8.03312549,11.8291672 7.27444182,11.7564883 L7.12648406,11.7461386 L7.12648406,11.7461386 Z M17.2283,11.7428 L17.0707961,11.7463396 C16.3087582,11.7799086 15.9338695,12.0691298 15.8300743,12.730551 L15.8127786,12.8675232 C15.8037005,12.9624265 15.7993,13.0640928 15.7993,13.1728 C15.7993,14.2042228 16.1961498,14.6008 17.2283,14.6008 C18.2608138,14.6008 18.6583,14.2038594 18.6583,13.1728 C18.6583,12.7912513 18.6039641,12.4964023 18.4833448,12.2762845 C18.2774235,11.9011954 17.8787483,11.743 17.2284,11.743 L17.2283,11.7428 Z M16.1554,2.3 L4.0644,2.3 C3.67603869,2.3 3.3614,2.61478831 3.3614,3.003 L3.3614,3.003 L3.3614,11.719 C3.3614,12.1081369 3.67596398,12.423 4.0644,12.423 L4.0644,12.423 L4.1041,12.4222 L4.14104983,12.2533675 C4.16238445,12.1635624 4.18705661,12.076513 4.21501443,11.9922712 C4.22459726,11.9637331 4.23466304,11.9348942 4.24512052,11.9063939 C4.25478445,11.8797722 4.26475802,11.8538051 4.27506248,11.8281273 C4.28480427,11.8040802 4.29496674,11.7797533 4.30543103,11.7556931 C4.31642082,11.7302295 4.32778469,11.7051798 4.33948192,11.6804278 C4.35152693,11.6550984 4.36378533,11.6301934 4.37638771,11.6055991 C4.38675579,11.5852355 4.39772097,11.564542 4.40893387,11.5440744 C4.42612022,11.5128003 4.44356723,11.4824936 4.46157198,11.4527027 C4.47322596,11.4333775 4.48511923,11.4143104 4.49724525,11.3954607 C4.51201485,11.3725156 4.52716795,11.3498126 4.54266631,11.3274356 C4.55872049,11.3042669 4.57521711,11.2813479 4.59208519,11.2587837 C4.61342531,11.2301919 4.63541739,11.2021304 4.65800286,11.1746445 C4.66497628,11.1662248 4.67211187,11.1576704 4.6793056,11.1491727 C4.70398781,11.1199365 4.72920389,11.0916023 4.75509106,11.0639327 C4.76954001,11.0486055 4.78392673,11.0336534 4.79851397,11.0189015 C4.90805551,10.9078419 5.02997251,10.8075114 5.16301229,10.7190517 C5.18921241,10.7018495 5.21608195,10.6847446 5.24338758,10.6681109 C5.26200132,10.6565394 5.28059945,10.6455444 5.29939464,10.6347644 C5.31961598,10.6234087 5.34020439,10.6119862 5.36102287,10.600817 C5.39504059,10.5823093 5.42983428,10.5646504 5.4652428,10.5476796 C5.47518359,10.5431803 5.48471506,10.5386857 5.49429057,10.5342406 C5.53271415,10.5161305 5.57209956,10.4989791 5.61219652,10.4826412 C5.62785076,10.4765345 5.64414554,10.470072 5.66055578,10.4637422 C5.70346965,10.4469159 5.74680627,10.4313976 5.79091186,10.4167807 C5.8008849,10.4137596 5.81088673,10.4105043 5.8209277,10.407295 C5.86618212,10.3925458 5.91218425,10.3790299 5.9589721,10.3664558 C5.9725363,10.3630964 5.98625213,10.359508 6.00003465,10.3559999 C6.04368863,10.3446028 6.08799846,10.3343008 6.1329706,10.3248105 C6.15234787,10.3210029 6.17210584,10.3170125 6.19198953,10.3131773 C6.23239148,10.3051098 6.27288141,10.2980322 6.31387532,10.2915864 C6.33580713,10.288413 6.35765168,10.2851773 6.37963689,10.2821192 C6.40877638,10.2777941 6.43859802,10.2740015 6.46867255,10.2705318 C6.56744405,10.2593913 6.66894175,10.2514678 6.77311418,10.2470778 L6.60105808,10.2574824 C6.71987133,10.247723 6.84241418,10.2428 6.9686,10.2428 C7.08484716,10.2428 7.19800639,10.2469692 7.30800999,10.2552403 C7.37926597,10.2607498 7.4488233,10.2677813 7.51705172,10.2764989 C7.52521163,10.2774062 7.53378204,10.2785302 7.54233137,10.2796809 C7.57831188,10.2846583 7.6135631,10.289917 7.64844537,10.2956365 C7.67731627,10.3002381 7.70648053,10.3053868 7.73538091,10.3108615 C7.76116109,10.3158776 7.78599499,10.3208699 7.8106297,10.326106 C7.84124296,10.3324794 7.8721213,10.3394948 7.90267843,10.3468988 C7.93861012,10.3557417 7.97369821,10.364881 8.00834858,10.3745428 C8.02842053,10.3799985 8.04864016,10.385855 8.06870798,10.3918912 C8.09383564,10.3995966 8.1186004,10.4073997 8.1431281,10.4154808 C8.18065138,10.4276901 8.21731855,10.4405889 8.25343583,10.4541223 C8.26472454,10.4585232 8.27647419,10.4630155 8.28816489,10.4675756 C8.32121663,10.4802882 8.35339665,10.493546 8.38511389,10.5073281 C8.41112663,10.5188363 8.43712992,10.5306387 8.46281243,10.5428005 C8.48979405,10.5553541 8.5157288,10.5681714 8.54132588,10.5813625 C8.5618964,10.5922136 8.58300764,10.6034728 8.60388285,10.614991 C8.6309005,10.6296155 8.65720966,10.6447617 8.68313045,10.6603284 C8.69955963,10.6705144 8.71593517,10.6806219 8.73215198,10.6909 C8.76169451,10.709277 8.79039299,10.7283363 8.81857266,10.747945 C8.83678397,10.7610112 8.85513298,10.7741816 8.87325546,10.7875897 C8.89290175,10.8016898 8.91218447,10.8164157 8.93120241,10.8314165 C8.95305268,10.8491324 8.97462048,10.8668032 8.99583428,10.8848376 C9.01811899,10.9032503 9.03980248,10.9223884 9.06110069,10.9419171 C9.07441469,10.9547099 9.08790922,10.9673973 9.10124479,10.9802447 C9.1287768,11.006144 9.15500783,11.0326796 9.18058785,11.0598597 C9.1903095,11.0708997 9.20047409,11.0819203 9.21053344,11.0930446 C9.30419479,11.1958423 9.38822981,11.3075572 9.46299807,11.427872 C9.47291476,11.4450013 9.48327993,11.4621532 9.49346004,11.4794758 C9.5926398,11.6469421 9.67386744,11.8306573 9.73705318,12.0297004 C9.75941009,12.102252 9.77999976,12.1766007 9.79817966,12.2529416 L9.79817966,12.2529416 L9.8341,12.4222 L14.3631,12.4222 C14.3873892,12.2985274 14.4147496,12.1850651 14.4474043,12.0760761 C14.4560713,12.0480768 14.4649089,12.0200879 14.4741016,11.992402 C14.4833359,11.9636565 14.493404,11.9348168 14.5038639,11.9063159 C14.5093597,11.892234 14.5145699,11.8783875 14.5198734,11.8646221 C14.576657,11.7162329 14.6446701,11.5771917 14.7232257,11.4479087 C14.7317662,11.4346589 14.7398265,11.4216819 14.7479944,11.4088051 C14.7696371,11.3738686 14.79272,11.3394577 14.8165979,11.3057999 C14.8245018,11.2954238 14.8321689,11.284808 14.8399161,11.2742684 C14.8656375,11.2385206 14.8924407,11.2041255 14.9201309,11.1705911 C14.92637,11.1637616 14.9324327,11.1565109 14.9385372,11.1493009 C15.1822992,10.8606707 15.4931556,10.6376228 15.8656438,10.4849439 C15.8849235,10.4774527 15.9042758,10.4697696 15.9237908,10.4622741 C15.964016,10.4464332 16.0050392,10.4317534 16.0467515,10.4178804 C16.0603897,10.4137108 16.0737051,10.4093855 16.0870896,10.4051418 C16.1276567,10.3919243 16.1693531,10.3796802 16.2116953,10.3682089 C16.2283581,10.3640214 16.2447589,10.359717 16.2612551,10.3555277 C16.3027281,10.3446842 16.3449897,10.3348452 16.3878544,10.3257443 C16.4088219,10.3215805 16.4298863,10.3173109 16.4510935,10.3132178 C16.4923664,10.3049777 16.5343356,10.2976617 16.5768459,10.2910235 C16.5917055,10.2889582 16.6069046,10.2866779 16.622172,10.2844838 L16.6579241,10.2792734 C16.6831456,10.2758974 16.7085507,10.2727535 16.7341382,10.2698428 C16.8303739,10.2591006 16.9299924,10.2513881 17.0321823,10.247079 L16.8614849,10.2574075 C16.9800715,10.2476978 17.1023719,10.2428 17.2283,10.2428 C17.3465066,10.2428 17.4615201,10.2471155 17.573269,10.2556753 C17.6421396,10.2611598 17.7097057,10.2680446 17.7760187,10.2765231 C17.7846761,10.2774116 17.7932431,10.2785357 17.8017889,10.2796866 C17.837281,10.2846881 17.8725342,10.2899504 17.9074189,10.2956738 C17.9367195,10.3002467 17.9658722,10.3053962 17.9947611,10.3108716 C18.0119785,10.3143787 18.0287571,10.3176908 18.0454455,10.3211139 C18.0920125,10.3304118 18.1379974,10.340849 18.183269,10.352147 C18.189121,10.353872 18.195523,10.3554903 18.2019107,10.3571259 C18.2466157,10.3683061 18.2901166,10.3804481 18.3329247,10.3934103 C18.3523391,10.3995792 18.3717489,10.4056735 18.3910137,10.4119384 C18.4785276,10.4400903 18.5629112,10.4720006 18.6442509,10.5073611 C18.6702426,10.5190049 18.6962537,10.5308134 18.7219441,10.5429815 C18.7488945,10.5553918 18.7748203,10.5682103 18.8004086,10.5814026 C18.8210597,10.5924194 18.8421779,10.6036841 18.8630602,10.6152078 C18.8899528,10.6296599 18.9162532,10.6448073 18.9421654,10.6603753 C18.9587705,10.6707573 18.9751519,10.6808693 18.9913746,10.6911521 C19.0207036,10.7093277 19.0493927,10.7283885 19.0775633,10.7479986 C19.094317,10.7600904 19.1109844,10.7720203 19.1274655,10.784146 C19.1545499,10.8036302 19.1811886,10.824126 19.2073181,10.8451491 C19.2184525,10.8545571 19.2297083,10.8637896 19.2408677,10.8731212 C19.272397,10.8990364 19.3028369,10.9259013 19.3325168,10.9535352 C19.3405247,10.961454 19.3491337,10.9695901 19.3576777,10.9777916 C19.3839032,11.0025177 19.4086926,11.0274642 19.4329041,11.0529837 C19.4460201,11.0672803 19.4593887,11.0817343 19.4725758,11.0963669 C19.4901266,11.1153639 19.5071668,11.1349346 19.5238907,11.1548131 C19.5398244,11.1742236 19.5559363,11.1940203 19.571742,11.2141116 C19.5906019,11.2376072 19.6088715,11.2617937 19.6267096,11.2863903 C19.64013,11.3053735 19.653374,11.3242066 19.6663703,11.3432729 C19.6851851,11.3703947 19.7036011,11.3986766 19.7214871,11.4274505 C19.7307306,11.4427844 19.7399258,11.4579389 19.7489761,11.4732269 C19.7679194,11.5047798 19.7860736,11.5370913 19.8035987,11.5699738 C19.8113562,11.5849609 19.8192616,11.6001498 19.8270343,11.6154581 C19.8415134,11.6435656 19.8552707,11.6719561 19.8685822,11.7007433 C19.9003602,11.76981 19.9298314,11.8413557 19.9566841,11.9151599 C19.9705742,11.9530567 19.9835206,11.9911271 19.9957869,12.0297752 C20.0186975,12.1021436 20.0393786,12.1768322 20.0576227,12.2535298 L20.0576227,12.2535298 L20.0931,12.4222 L20.4974,12.423 C20.8529395,12.423 21.1473719,12.1580701 21.1939749,11.8145083 L21.1939749,11.8145083 L21.2004,11.719 L21.2004,8.587 C21.2004,8.43008924 21.1481697,8.27781381 21.0524201,8.1544995 L21.0524201,8.1544995 L16.7091157,2.57110789 C16.5762228,2.40003853 16.3718472,2.3 16.1554,2.3 L16.1554,2.3 Z" id="Combined-Shape"></path>
            </g>
        </g>
    </g>
</svg>