<?xml version="1.0" encoding="UTF-8"?>
<svg width="24px" height="24px" viewBox="0 0 24 24" version="1.1" xmlns="http://www.w3.org/2000/svg" xmlns:xlink="http://www.w3.org/1999/xlink">
    <title>icn_support_tickets</title>
    <g id="Quique" stroke="none" stroke-width="1" fill="none" fill-rule="evenodd">
        <g id="Assets/Global/24/SupportTickets" fill="#000000" fill-rule="nonzero">
            <g id="-----ICON-LAYERS-----" transform="translate(2.500000, 2.500000)">
                <path d="M2.44714659,0.3 C2.64714659,0.3 2.83614659,0.378 2.97614659,0.519 L2.97614659,0.519 L3.73914659,1.28 C3.88214659,1.423 3.99214659,1.591 4.07714659,1.805 L4.07714659,1.805 L4.41714659,2.862 C4.47714659,3.047 4.58314659,3.219 4.72414659,3.361 L4.72414659,3.361 L8.983,7.621 L12.3174466,4.2873 C12.3670466,4.2377 12.4230466,4.1177 12.4439746,4.046596 L12.4524466,4.0043 C12.4324466,3.8063 12.2774466,2.0463 13.1144466,1.2093 C13.9274466,0.3953 15.5394466,0.3713 15.7204466,0.3713 C15.9824466,0.3733 16.1864466,0.4933 16.2694466,0.6943 C16.3524466,0.8953 16.2914466,1.1243 16.1094466,1.3083 L16.1094466,1.3083 L15.4034466,2.0143 C15.3534466,2.0633 15.3044466,2.2093 15.3154466,2.2783 L15.3154466,2.2783 L15.4594466,3.2903 C15.4644466,3.3113 15.5014466,3.3493 15.5224466,3.3543 L15.5224466,3.3543 L16.5524466,3.5003 C16.6404466,3.5003 16.7594466,3.4513 16.7994466,3.4103 L16.7994466,3.4103 L17.5064466,2.7043 C17.6684466,2.5423 17.8284466,2.5083 17.9334466,2.5083 C18.1854466,2.5083 18.4404466,2.7083 18.4424466,3.0903 C18.4424466,3.2703 18.4244466,4.8793 17.6044466,5.7003 C17.0394466,6.2653 16.0354466,6.3833 15.2914466,6.3833 C15.0674466,6.3833 14.8984466,6.3723 14.8244466,6.3673 C14.7344466,6.3673 14.5654466,6.4363 14.5014466,6.5003 L14.5014466,6.5003 L12.419,8.582 L12.5135466,8.6711 L17.9945466,14.1161 C18.4815466,14.6031 18.7235466,15.0941 18.7145466,15.5751 C18.7055466,16.0401 18.4635466,16.5141 17.9945466,16.9831 L17.9945466,16.9831 L17.0365466,17.9411 C16.5685466,18.4091 16.0945466,18.6511 15.6295466,18.6591 C15.1485466,18.6681 14.6585466,18.4271 14.1715466,17.9411 L14.1715466,17.9411 L8.69054659,12.4941 C8.65934141,12.4629589 8.62914214,12.4318014 8.59995037,12.4006306 L6.43444659,14.5683 C6.37144659,14.6313 6.30144659,14.8033 6.29944659,14.8533 C6.31944659,15.0543 6.46944659,16.8353 5.63344659,17.6713 C4.82044659,18.4843 3.20744659,18.5083 3.02444659,18.5083 C2.76544659,18.5073 2.56144659,18.3873 2.47844659,18.1853 C2.39544659,17.9843 2.45444659,17.7553 2.63844659,17.5723 L2.63844659,17.5723 L3.34444659,16.8663 C3.39444659,16.8163 3.44244659,16.6713 3.43244659,16.6013 L3.43244659,16.6013 L3.28744659,15.5903 C3.28344659,15.5683 3.24444659,15.5303 3.22444659,15.5253 L3.22444659,15.5253 L2.19544659,15.3803 C2.10744659,15.3803 1.98844659,15.4293 1.94744659,15.4693 L1.94744659,15.4693 L1.24144659,16.1753 C1.07844659,16.3383 0.918446589,16.3723 0.813446589,16.3723 C0.562446589,16.3723 0.307446589,16.1723 0.305415543,15.7903 C0.304446589,15.6093 0.322446589,14.0003 1.14344659,13.1803 C1.71344659,12.6083 2.73044659,12.4883 3.48144659,12.4883 C3.68844659,12.4883 3.84344659,12.4983 3.91244659,12.5033 C4.00344659,12.5033 4.17244659,12.4343 4.23644659,12.3703 L4.23644659,12.3703 L7.619,8.987 L3.36414659,4.731 C3.25914659,4.62525 3.13614659,4.53975 3.00358409,4.477875 L2.86814659,4.424 L1.77514659,4.068 C1.58914659,3.992 1.42314659,3.883 1.28114659,3.741 L1.28114659,3.741 L0.517146589,2.978 C0.374146589,2.833 0.296146589,2.641 0.300146589,2.436 C0.302146589,2.235 0.384146589,2.046 0.526146589,1.903 L0.526146589,1.903 L1.90114659,0.528 C2.04814659,0.381 2.24214659,0.3 2.44714659,0.3 Z" id="Combined-Shape"></path>
            </g>
        </g>
    </g>
</svg>