<svg width="41" height="41" viewBox="0 0 41 41" xmlns="http://www.w3.org/2000/svg"><path d="M20.994 1c11.043 0 19.995 8.952 19.995 19.995 0 11.043-8.952 19.995-19.995 19.995C9.951 40.99 1 32.038 1 20.995 1 9.952 9.951 1 20.994 1zm.556 8c-.365 0-.734 0-1.1.007C18.16 9.048 9 9.908 9 20.967c0 11.035 9.149 11.965 11.5 12.02.279.01.599.013.907.013h.228C24.043 32.98 33 32.153 33 21.037 33 9.908 23.96 9.034 21.55 9zm-.548 1.5l.525.002c3 .041 9.974 1.154 9.974 10.535 0 9.364-6.908 10.436-9.88 10.463 0 0-.214 0-.214-.003-.297 0-.605-.004-.872-.01-3.018-.072-10.036-1.243-10.036-10.52 0-9.276 6.977-10.406 9.979-10.46.349-.008.7-.008 1.049-.005zm.005 7.515a.754.754 0 00-.751.752v7.8a.752.752 0 101.502 0v-7.8a.752.752 0 00-.751-.752zm.007-2.588a.807.807 0 00-.775.771.802.802 0 00.77.827h.06a.795.795 0 00.77-.827.795.795 0 00-.825-.77z" fill="#000" fill-rule="nonzero"/></svg>