<svg width="24" height="24" xmlns="http://www.w3.org/2000/svg"><path d="M2.904 7.228c0-.235.187-.425.42-.425h.6c-.015-.174-.037-.34-.037-.524 0-.079.014-.143.017-.219h-.58a.426.426 0 0 1 0-.852h.664c.35-1.921 1.69-2.97 3.877-2.97.788 0 1.474.135 2.04.401.21.101.303.353.204.566-.095.21-.341.306-.551.21l-.006-.002C9.098 3.2 8.529 3.09 7.865 3.09c-1.72 0-2.706.704-3.02 2.118h2.382c.232 0 .42.191.42.426a.423.423 0 0 1-.42.426H4.742c-.003.073-.014.14-.014.219 0 .187.016.355.033.526H7.23c.233 0 .42.19.42.426a.423.423 0 0 1-.42.426H4.915C5.3 8.87 6.274 9.464 7.865 9.464c.673 0 1.247-.112 1.704-.33a.42.42 0 0 1 .557.204c.101.213.009.465-.201.566-.57.275-1.264.412-2.062.412-2.065 0-3.365-.942-3.802-2.659h-.737a.427.427 0 0 1-.42-.429Zm15.103-4.107-2.544 2.606 1.029.008a.585.585 0 0 1 .568.6v.003l.003 2.476c0 .037.028.067.065.067h1.753a.063.063 0 0 0 .065-.064l-.003-2.49a.58.58 0 0 1 .558-.592l1.042-.008c.003 0-2.536-2.606-2.536-2.606Zm-3.171 3.452a.57.57 0 0 1-.513-.334.61.61 0 0 1 .076-.633l3.2-3.272a.518.518 0 0 1 .344-.18.549.549 0 0 1 .507.21l3.127 3.211c.17.21.196.46.1.664a.57.57 0 0 1-.512.334l-1.381.011.002 2.23a.913.913 0 0 1-.905.92h-1.75a.913.913 0 0 1-.906-.92l-.002-2.23-1.387-.011Zm5.393 14.17c.23-.07.77-.266.77-.54v-1.188c-.168.09-.344.162-.523.219-.594.182-1.373.282-2.191.282-.821 0-1.597-.1-2.191-.282a3.287 3.287 0 0 1-.535-.216v1.185c0 .274.54.47.77.543 1.045.314 2.85.314 3.9-.002Zm-6.278 0c.414-.125.67-.313.767-.459v-1.311c-.168.09-.344.16-.524.218-.594.183-1.373.283-2.19.283-.819 0-1.598-.098-2.191-.283a3.287 3.287 0 0 1-.536-.215v1.32c.087.137.342.316.78.448 1.036.316 2.851.316 3.894 0Zm-6.285 0c.412-.125.667-.31.768-.459v-1.291a3.325 3.325 0 0 1-.527.21c-.594.182-1.372.283-2.19.283-.819 0-1.597-.101-2.191-.283a3.287 3.287 0 0 1-.536-.216v1.308c.082.126.32.306.78.449 1.039.319 2.854.319 3.896 0Zm-3.905-3.165c-.364.112-.614.257-.714.4.095.146.347.295.72.41 1.036.316 2.863.316 3.897 0 .482-.15.655-.303.72-.398-.132-.208-.533-.35-.726-.41-1.04-.316-2.855-.316-3.897-.002Zm6.284-2.365c-.37.112-.622.26-.717.406.064.098.24.255.725.404 1.04.316 2.855.316 3.898 0 .479-.146.652-.303.722-.4-.131-.205-.532-.351-.725-.41-1.045-.32-2.864-.32-3.903 0Zm6.284-2.328c-.462.143-.644.294-.717.395.09.148.347.3.723.415 1.036.316 2.86.316 3.9 0 .479-.149.652-.303.72-.401-.132-.205-.533-.35-.726-.409-1.042-.317-2.858-.317-3.9 0Zm-.77 3.765v1.32c.087.137.342.317.779.448 1.036.317 2.86.317 3.897 0 .414-.126.67-.314.767-.46v-1.31c-.168.09-.344.162-.524.218-.596.182-1.375.28-2.19.28-.816 0-1.595-.098-2.191-.28a3.218 3.218 0 0 1-.538-.216Zm.532-2.14a3.258 3.258 0 0 1-.532-.216v1.309c.08.126.316.308.776.448 1.042.316 2.855.316 3.9 0 .411-.126.666-.311.765-.457v-1.291a3.399 3.399 0 0 1-.524.21c-.594.182-1.373.283-2.191.283-.821-.003-1.597-.104-2.194-.286Zm-6.816 2.112v1.306c.08.129.319.308.778.448 1.037.317 2.86.317 3.898 0 .462-.14.686-.336.767-.456v-1.292a3.44 3.44 0 0 1-.527.21c-.596.182-1.375.283-2.19.283-.816 0-1.592-.098-2.191-.283a3.287 3.287 0 0 1-.535-.216ZM20.47 12.07c1.132.347 1.37.927 1.37 1.356V20.2c0 .429-.238 1.011-1.37 1.359-.602.182-1.378.283-2.19.283-.813 0-1.592-.101-2.192-.28-.445-.138-.75-.311-.958-.496a2.632 2.632 0 0 1-.939.496c-.6.182-1.375.283-2.19.283-.816 0-1.592-.101-2.191-.283a2.702 2.702 0 0 1-.964-.496 2.59 2.59 0 0 1-.939.496c-.596.182-1.375.283-2.19.283-.816 0-1.595-.101-2.191-.283-.558-.171-.956-.423-1.188-.729a.416.416 0 0 1-.188-.347V18.12c0-.1.014-.201.04-.297l.002-.005c.137-.471.583-.827 1.328-1.057 1.196-.364 3.188-.364 4.382 0 .21.065.378.138.532.216v-1.224c0-.104.014-.202.042-.3.135-.476.58-.83 1.328-1.059 1.19-.364 3.188-.364 4.385 0 .182.056.361.129.53.216v-1.185c0-.104.013-.202.038-.3.135-.474.583-.83 1.328-1.06 1.197-.36 3.189-.36 4.385.004Z" fill="#313235" fill-rule="nonzero"/></svg>