<svg width="24" height="24" xmlns="http://www.w3.org/2000/svg"><path d="M20.725 18.189c.242 0 .441-.19.441-.427V8.084H2.834v9.678c0 .236.196.427.44.427h17.451ZM3.275 4.809a.437.437 0 0 0-.441.426v2.04h18.332v-2.04a.433.433 0 0 0-.44-.427H3.274ZM20.725 4C21.428 4 22 4.555 22 5.235v12.53c0 .68-.572 1.235-1.275 1.235H3.275C2.572 19 2 18.445 2 17.765V5.235C2 4.555 2.572 4 3.275 4h17.45ZM6.48 10.03l2.829 2.487a.404.404 0 0 1 .137.3.401.401 0 0 1-.134.298l-2.829 2.533a.428.428 0 0 1-.592-.02.397.397 0 0 1 .023-.572l2.493-2.234-2.49-2.191a.395.395 0 0 1-.029-.572.432.432 0 0 1 .592-.029Zm11.218 2.405c.23 0 .419.182.419.404a.413.413 0 0 1-.419.404h-6.704a.413.413 0 0 1-.419-.404.41.41 0 0 1 .419-.404h6.704ZM6.257 6.664a.572.572 0 0 1-.58-.561c0-.31.259-.563.58-.563.322 0 .58.25.58.563 0 .307-.258.56-.58.56Zm1.742 0a.572.572 0 0 1-.58-.561c0-.31.258-.563.58-.563.321 0 .578.25.578.563a.57.57 0 0 1-.578.56Zm-3.48 0a.572.572 0 0 1-.581-.561c0-.31.259-.563.58-.563.322 0 .581.25.581.563 0 .307-.259.56-.58.56Z" fill="#313235" fill-rule="nonzero"/></svg>