<svg width="24" height="24" viewBox="0 0 24 24" fill="none" xmlns="http://www.w3.org/2000/svg">
<path fill-rule="evenodd" clip-rule="evenodd" d="M13.1933 6.67238C13.1933 8.32504 12.7731 9.56874 11.9468 10.3727C11.7227 10.5855 11.7143 10.9413 11.9272 11.1654C12.1401 11.3895 12.4958 11.3979 12.7199 11.185L12.7283 11.1766C13.7815 10.1542 14.3165 8.63876 14.3165 6.67238C14.3165 4.70039 13.7787 3.17938 12.7199 2.15697C12.4958 1.94128 12.1429 1.94969 11.9272 2.17098C11.7115 2.39507 11.7199 2.74801 11.9412 2.96369C12.7703 3.76761 13.1933 5.01411 13.1933 6.67238ZM9.69188 4.36425C9.46499 4.15417 9.45378 3.79843 9.66387 3.57154C9.87395 3.34465 10.2297 3.33344 10.4566 3.54352L10.4706 3.55753C11.2073 4.26902 11.5798 5.31663 11.5798 6.67238C11.5798 8.02252 11.2073 9.06733 10.4762 9.77882C10.2549 9.99451 9.89916 9.9889 9.68347 9.76761C9.46779 9.54633 9.47339 9.19058 9.69468 8.9749C10.2017 8.4819 10.4594 7.70879 10.4594 6.67518C10.4594 5.64156 10.2017 4.85725 9.69188 4.36425ZM21.6947 18.3979V17.0253C21.6947 16.0001 21.4174 15.1906 20.8683 14.6248C20.2997 14.0365 19.4706 13.7368 18.4006 13.7368H7.7591V6.67238C7.7591 6.36425 7.507 6.11215 7.19888 6.11215C6.89076 6.11215 6.63866 6.36425 6.63866 6.67238V13.734H5.29132C4.22129 13.734 3.39216 14.0309 2.82353 14.622C2.27731 15.1906 2 15.9973 2 17.0253V18.3979C2 19.4259 2.27731 20.2326 2.82353 20.8012C3.39216 21.3895 4.22129 21.6892 5.29132 21.6892H18.4034C19.4734 21.6892 20.3025 21.3923 20.8711 20.8012C21.4174 20.2326 21.6947 19.4259 21.6947 18.3979ZM5.96639 18.5323C6.13165 18.3643 6.21569 18.1346 6.21569 17.846C6.21569 17.2634 5.85154 16.9021 5.26611 16.9021C4.68067 16.9021 4.31653 17.2634 4.31653 17.846C4.31653 18.1346 4.40056 18.3643 4.56583 18.5323C4.73109 18.7004 4.97479 18.79 5.26611 18.79C5.55742 18.79 5.79832 18.7004 5.96639 18.5323ZM8.95518 17.846C8.95518 18.1346 8.87115 18.3643 8.70588 18.5323C8.54062 18.7004 8.29692 18.79 8.0056 18.79C7.71429 18.79 7.47059 18.7004 7.30532 18.5323C7.14006 18.3643 7.05602 18.1346 7.05602 17.846C7.05602 17.2634 7.42017 16.9021 8.0056 16.9021C8.59104 16.9021 8.95518 17.2634 8.95518 17.846Z" fill="#313235"/>
</svg>
