<svg width="24" height="24" viewBox="0 0 24 24" fill="none" xmlns="http://www.w3.org/2000/svg">
<path fill-rule="evenodd" clip-rule="evenodd" d="M10.3193 11.1988C8.91316 11.1988 7.80112 10.8094 7.014 10.0447C6.19608 9.24638 5.77871 8.08952 5.77871 6.60773C5.77871 5.12593 6.19328 3.96907 7.0112 3.16515C7.79832 2.39484 8.91036 2.00269 10.3165 2.00269C11.7227 2.00269 12.8375 2.39204 13.6274 3.16235C14.451 3.96627 14.8683 5.12313 14.8683 6.60492C14.8683 8.08672 14.451 9.24358 13.6274 10.0447C12.8403 10.8094 11.7255 11.1988 10.3193 11.1988ZM21.6863 13.7394C21.6863 13.0867 21.5098 12.5769 21.1569 12.2296C20.7955 11.871 20.2521 11.689 19.5434 11.6862L10.507 11.6918C9.80392 11.6918 9.2633 11.8738 8.89916 12.2324C8.54902 12.5825 8.36975 13.0895 8.36975 13.745V17.8598C8.36975 18.5181 8.54902 19.0279 8.89916 19.3808C9.2661 19.7478 9.80672 19.9327 10.5098 19.9327L19.5462 19.927C20.2521 19.927 20.7927 19.7422 21.1569 19.3752C21.5098 19.0223 21.6863 18.5097 21.6863 17.8542V13.7394ZM21.5938 21.0951C21.5938 20.7674 21.3221 20.5013 20.9832 20.5013H9.18207C8.84594 20.5013 8.57143 20.7674 8.57143 21.0951C8.57143 21.4228 8.84313 21.689 9.18207 21.689H20.9832C21.3193 21.689 21.5938 21.4228 21.5938 21.0951ZM8.13622 12.0755C8.13749 12.0736 8.13877 12.0718 8.14005 12.0699V12.0755H8.13622ZM7.66386 13.7814C7.66386 13.1007 7.825 12.5312 8.13622 12.0755H7.42857C5.72549 12.0755 4.31653 12.5881 3.35574 13.5629C2.46779 14.4593 2 15.689 2 17.1175V18.4481C2 19.0251 2.48459 19.4957 3.08123 19.4957H8.06162C7.80112 19.0531 7.66386 18.5209 7.66386 17.8962V13.7814Z" fill="#313235"/>
</svg>
