<svg width="24" height="24" viewBox="0 0 24 24" fill="none" xmlns="http://www.w3.org/2000/svg">
<path d="M18.444 11.182C18.0182 10.7282 17.5392 10.3109 17.021 9.94393C12.9118 6.95514 14.6737 2.78427 14.7493 2.6078C14.8109 2.46494 14.7885 2.29688 14.6905 2.17643C14.5896 2.05318 14.43 2.00276 14.2787 2.03917C12.4356 2.47615 10.542 3.43413 8.94818 4.73665C3.67928 9.04477 3.66807 15.7871 5.9818 18.7282C7.02101 20.0504 8.50561 20.9831 10.1387 21.4537C9.89496 21.3081 9.63726 21.1232 9.38236 20.8739C8.10785 19.619 8.03782 17.5798 9.21989 16.2268C9.42718 15.9887 9.66247 15.7703 9.92017 15.5742C11.5056 14.3361 10.8053 12.5686 10.7969 12.5518C10.7073 12.3361 10.7465 12.0868 10.9006 11.9103C11.0546 11.7338 11.2955 11.661 11.5196 11.7142C12.4076 11.9411 13.3179 12.4313 14.0798 13.1008C15.7857 14.5966 17.1359 18.0812 15.4664 20.3585C15.0126 20.9775 14.388 21.4369 13.6933 21.7142C13.9174 21.6806 14.1415 21.6526 14.3656 21.5994C14.4468 21.5882 16.3768 21.3081 18.1359 19.6946C19.3375 18.5938 20.0322 17.1064 20.091 15.5098C20.1471 13.9131 19.5616 12.3753 18.444 11.182Z" fill="#313235"/>
</svg>
