<svg width="24" height="24" viewBox="0 0 24 24" fill="none" xmlns="http://www.w3.org/2000/svg">
<path fill-rule="evenodd" clip-rule="evenodd" d="M21.7087 8.5645C21.7073 8.58131 21.7059 8.59811 21.7059 8.61632L21.7087 18.8964C21.7087 20.9356 20.2493 21.6863 19 21.7088H18.8571C17.5294 21.6919 16.0672 20.9412 16.0672 18.8852V15.0113C16.0672 14.1653 15.3753 13.4763 14.5266 13.4763H14.0476V20.3306C14.0476 21.0645 13.3893 21.7088 12.6386 21.7088H3.43417C2.68347 21.7088 2.02521 21.0645 2.02521 20.3306V3.41744C2.02521 2.69756 2.69748 2.03929 3.43417 2.03929H12.6386C13.3753 2.03929 14.0476 2.69756 14.0476 3.41744V12.269H14.5266C16.042 12.269 17.2745 13.4987 17.2745 15.0113V18.8852C17.2745 20.2718 18.2269 20.4931 18.7955 20.5015H18.9776C19.5462 20.4903 20.5014 20.2662 20.5014 18.8964L20.4958 10.7984C19.9748 11.0729 19.4342 11.1149 19.2045 11.1205C19.1541 11.1233 19.0952 11.1233 19.0364 11.1233H18.9636C18.437 11.1149 16.4594 10.9244 16.4594 8.49307C16.4594 6.41744 17.8879 5.98327 18.633 5.89924L15.8095 3.0477C15.577 2.8124 15.577 2.43145 15.8151 2.19616C16.0532 1.96086 16.437 1.96646 16.6695 2.20176L21.0028 6.57991C21.0308 6.60512 21.056 6.63033 21.0812 6.65834L21.0896 6.66674C21.0896 6.66954 21.0896 6.66954 21.0924 6.67234C21.4482 7.0645 21.7115 7.64153 21.7115 8.51268C21.7115 8.53089 21.7101 8.54769 21.7087 8.5645ZM11.6443 8.82641C11.6443 9.45386 11.1681 9.98607 10.605 9.98607H5.60504C5.04201 9.98607 4.56302 9.45386 4.56302 8.82641V5.73677C4.56302 5.12052 5.04762 4.57711 5.60504 4.57711H10.605C11.1597 4.57711 11.6443 5.12052 11.6443 5.73677V8.82641ZM20.5042 8.54909C20.5042 8.5533 20.5028 8.5575 20.5014 8.5617L20.5014 8.56172C20.5 8.56591 20.4986 8.57011 20.4986 8.5743V8.71716C20.4762 9.16814 20.3137 9.90484 19.1877 9.92444L19.0392 9.92725H18.9832C17.6695 9.90764 17.6695 8.88803 17.6695 8.50428C17.6695 8.12052 17.6695 7.10652 18.958 7.09811H19.0028L19.1653 7.10092C19.647 7.11212 19.9496 7.25218 20.1485 7.44265L20.1961 7.49307C20.4986 7.82921 20.5014 8.29139 20.5014 8.52108C20.5042 8.52388 20.5042 8.53789 20.5042 8.54909Z" fill="#313235"/>
</svg>
