<svg width="24" height="24" viewBox="0 0 24 24" fill="none" xmlns="http://www.w3.org/2000/svg">
<path fill-rule="evenodd" clip-rule="evenodd" d="M21.5602 12.1317C21.8123 11.5462 21.6806 10.8992 21.2128 10.4398L13.1316 2.49023C12.4678 1.83757 11.2185 1.83757 10.5574 2.49023L2.47338 10.437C2.00559 10.8992 1.87394 11.5462 2.12604 12.1289C2.39495 12.7451 3.0336 13.1429 3.75909 13.1429H4.14845V20.0756C4.14845 20.9636 4.93836 21.6863 5.90755 21.6863H17.6666C18.6358 21.6863 19.4229 20.9664 19.4229 20.0784V13.1457H19.9271C20.6526 13.1457 21.2913 12.7479 21.5602 12.1317ZM17.5826 11.888C17.8319 11.6779 17.8627 11.3053 17.6498 11.056C17.6442 11.0476 17.6386 11.042 17.6302 11.0364C15.3221 8.54624 11.8935 8.7143 11.7871 8.72271C8.10922 8.75912 6.13724 10.8151 6.05601 10.902C5.83192 11.1373 5.84032 11.5098 6.07561 11.7339C6.08402 11.7423 6.08962 11.7479 6.09802 11.7535C6.35573 11.9776 6.74508 11.958 6.98318 11.7115L6.9843 11.7104C7.03604 11.6574 8.69523 9.96044 11.8263 9.92719C11.8599 9.92439 14.8011 9.79273 16.6946 11.8403C16.8207 11.9748 16.9888 12.042 17.1624 12.042C17.3137 12.042 17.4621 11.9916 17.5826 11.888ZM16.3193 13.7171C16.5686 13.507 16.5994 13.1345 16.3893 12.8852C16.3837 12.8768 16.3781 12.8712 16.3697 12.8628L16.3697 12.8628C14.6246 10.9804 11.8879 11.0644 11.7927 11.0728C9.01398 11.1037 7.38374 12.8151 7.31651 12.888C7.09522 13.1233 7.10362 13.4958 7.34172 13.7171C7.34592 13.7199 7.34942 13.7234 7.35292 13.7269C7.35642 13.7304 7.35993 13.7339 7.36413 13.7367C7.47897 13.8375 7.63023 13.8936 7.7843 13.8936C7.95516 13.8936 8.12323 13.8291 8.24648 13.6975L8.2473 13.6967C8.28738 13.6559 9.61623 12.3051 11.8235 12.2829L11.827 12.2829C11.9303 12.2811 14.1161 12.2441 15.4341 13.6695C15.6666 13.9188 16.0616 13.9412 16.3193 13.7171ZM14.8963 14.7115C15.1064 14.958 15.0756 15.3305 14.8263 15.5406C14.5658 15.7619 14.1792 15.7423 13.9467 15.4958C13.1887 14.6743 11.9043 14.6911 11.8477 14.6919L11.8459 14.6919C10.5485 14.7057 9.79164 15.4658 9.74355 15.5141L9.74227 15.5154C9.61903 15.6471 9.44816 15.7115 9.28009 15.7115C9.12883 15.7115 8.97477 15.6611 8.85712 15.5546L8.84032 15.5378C8.60222 15.3137 8.58822 14.9412 8.8123 14.7031C8.85712 14.6555 9.95236 13.507 11.8095 13.4846C11.8683 13.4818 13.7003 13.4174 14.8767 14.6891C14.8795 14.6933 14.883 14.6968 14.8865 14.7003C14.89 14.7038 14.8935 14.7073 14.8963 14.7115ZM11.8963 18.6947C12.5994 18.6835 13.3081 18.2409 13.3081 17.2829C13.3081 16.3305 12.5994 15.888 11.8459 15.8684C11.8403 15.8656 11.7899 15.8656 11.7899 15.8656C11.0868 15.8712 10.3781 16.3109 10.3781 17.2773C10.3781 18.2465 11.0896 18.6835 11.7927 18.6947H11.8963Z" fill="#313235"/>
</svg>
