<svg width="24" height="24" viewBox="0 0 24 24" fill="none" xmlns="http://www.w3.org/2000/svg">
<path fill-rule="evenodd" clip-rule="evenodd" d="M18.8446 7.33613L13.3824 2.15406C13.2787 2.05602 13.1415 2 12.9986 2H5.61767C5.04905 2 4.51123 2.53781 4.51123 3.10644V20.5854C4.51123 21.1737 5.02944 21.6919 5.61767 21.6919H17.9146C18.5028 21.6919 19.021 21.1737 19.021 20.5854V7.74229C19.021 7.58823 18.9566 7.44257 18.8446 7.33613ZM15.3095 18.6807H8.20871C7.90058 18.6807 7.64848 18.4286 7.64848 18.1204C7.64848 17.8123 7.90058 17.5602 8.20871 17.5602H15.3095C15.6177 17.5602 15.8698 17.8123 15.8698 18.1204C15.8698 18.4286 15.6177 18.6807 15.3095 18.6807ZM8.20871 15.6751H15.3095C15.6177 15.6751 15.8698 15.423 15.8698 15.1148C15.8698 14.8067 15.6177 14.5546 15.3095 14.5546H8.20871C7.90058 14.5546 7.64848 14.8067 7.64848 15.1148C7.64848 15.423 7.90058 15.6751 8.20871 15.6751ZM15.3095 12.6723H8.20871C7.90058 12.6723 7.64848 12.4202 7.64848 12.112C7.64848 11.8039 7.90058 11.5518 8.20871 11.5518H15.3095C15.6177 11.5518 15.8698 11.8039 15.8698 12.112C15.8698 12.4202 15.6177 12.6723 15.3095 12.6723ZM13.867 7.14005C14.2507 7.52381 14.7969 7.72829 15.4496 7.72829H17.6317L13.2787 3.59944V5.55742C13.2787 6.20728 13.4832 6.7563 13.867 7.14005Z" fill="#313235"/>
</svg>
