<svg width="24" height="24" viewBox="0 0 24 24" fill="none" xmlns="http://www.w3.org/2000/svg">
<path fill-rule="evenodd" clip-rule="evenodd" d="M18.1483 8.0844C18.4928 8.47095 20.997 11.3925 21.5853 14.8631C22.0502 17.611 21.899 19.2076 21.0895 20.0424C21.0026 20.132 20.5432 20.5634 19.8122 20.5942C19.7894 20.5942 19.7666 20.5949 19.7442 20.5956C19.7225 20.5963 19.7012 20.597 19.6805 20.597C18.6463 20.597 18.006 20.0532 17.652 19.7526L17.6469 19.7482L17.5685 19.681C17.2715 19.4317 17.1903 19.3645 16.8514 19.3645H16.8458C16.4564 19.3645 15.3724 19.2749 15.2015 19.2272C14.1427 18.9499 13.5573 18.1068 13.5573 16.8547C13.5265 16.16 13.4704 14.7398 13.4452 13.2777L11.9914 12.5438L10.5629 13.2637C10.5377 14.7174 10.4816 16.1292 10.4508 16.8239C10.4508 18.062 9.86539 18.9051 8.80097 19.1852C8.6385 19.23 7.56287 19.3225 7.15391 19.3197C6.81778 19.3197 6.73654 19.3869 6.43683 19.6362L6.35839 19.7034L6.35329 19.7078C5.99929 20.0084 5.35901 20.5522 4.32478 20.5522C4.28277 20.5522 4.23795 20.5522 4.19313 20.5494C3.46204 20.5186 3.00266 20.0872 2.91862 20.0003C2.1091 19.1684 1.95504 17.5718 2.42002 14.8211C3.00826 11.3477 5.51246 8.42893 5.85699 8.03958C6.35559 7.28328 7.05027 6.91633 7.97744 6.91633C9.43122 6.91633 9.96623 7.74826 10.1567 8.28328C10.2435 8.45134 10.3192 8.65302 10.3976 8.92473V8.92753C10.462 9.15162 10.504 9.53537 10.5321 10.0172L10.5657 10.0004V4.31689C10.5657 3.79589 10.983 3.37012 11.4956 3.37012H12.5096C13.0223 3.37012 13.4396 3.79589 13.4396 4.31689V10.0144L13.4732 10.0312C13.4984 9.56339 13.5433 9.19084 13.6049 8.97235C13.6805 8.70624 13.7589 8.49896 13.8458 8.32809C14.0391 7.79308 14.5741 6.96115 16.0278 6.96115C16.955 6.96115 17.6497 7.32809 18.1483 8.0844ZM10.5741 12.0424L11.7505 11.4485C11.9018 11.3729 12.0783 11.3729 12.2239 11.4485L13.4256 12.0564C13.4256 11.7707 13.4284 11.4934 13.4312 11.2244L12.6693 10.8379C12.4872 10.7455 12.3724 10.5578 12.3724 10.3505V4.45695H11.6329V10.3365C11.6329 10.5438 11.5152 10.7315 11.336 10.8239L10.5685 11.2104C10.5741 11.4793 10.5741 11.7567 10.5741 12.0424Z" fill="#313235"/>
</svg>
