<svg width="24" height="24" viewBox="0 0 24 24" fill="none" xmlns="http://www.w3.org/2000/svg">
<path fill-rule="evenodd" clip-rule="evenodd" d="M16.8434 2.17112L21.3196 2.90781C21.6221 2.95823 21.8462 3.21873 21.849 3.52686V20.482C21.849 20.6669 21.765 20.8405 21.6249 20.961C21.4821 21.0814 21.2972 21.1291 21.1151 21.101L16.7874 20.3868L12.1908 21.8181C12.1291 21.8349 12.0675 21.8461 12.0031 21.8461C11.9359 21.8461 11.8714 21.8377 11.8098 21.8181L7.40646 20.3868L2.88546 21.101C2.70339 21.1291 2.51852 21.0786 2.37846 20.9582C2.24121 20.8405 2.15997 20.6669 2.15997 20.482V3.52405C2.15997 3.21313 2.38406 2.94983 2.68938 2.90221L7.35884 2.16551C7.36744 2.16408 7.37531 2.16558 7.38281 2.16701C7.38998 2.16838 7.39682 2.16968 7.40366 2.16832C7.41174 2.16832 7.41982 2.16637 7.42821 2.16436C7.43727 2.16218 7.4467 2.15991 7.45688 2.15991C7.48532 2.15991 7.51248 2.16761 7.53922 2.17519C7.55198 2.17881 7.56466 2.18241 7.57733 2.18512C7.58993 2.18792 7.60254 2.18792 7.61479 2.18792C7.62705 2.18792 7.63895 2.18792 7.65016 2.19072L12.0059 3.60529L16.5521 2.19072C16.5643 2.18614 16.5774 2.18656 16.5904 2.18697C16.6012 2.18732 16.6119 2.18767 16.6221 2.18512C16.6335 2.18268 16.6447 2.17977 16.6558 2.17686C16.683 2.16976 16.71 2.16271 16.7398 2.16271C16.7534 2.16271 16.765 2.16583 16.7764 2.1689C16.7837 2.17087 16.7909 2.17282 16.7986 2.17392C16.8041 2.17392 16.8101 2.17305 16.8161 2.17217C16.8254 2.17081 16.8349 2.16942 16.8434 2.17112ZM20.5885 19.7425L17.3672 19.2131V3.52966L20.5885 4.05907V19.7425ZM11.3728 20.356L8.08433 19.2887V3.65291L11.3728 4.72013V20.356Z" fill="#313235"/>
</svg>
