<svg width="24" height="24" viewBox="0 0 24 24" fill="none" xmlns="http://www.w3.org/2000/svg">
<path fill-rule="evenodd" clip-rule="evenodd" d="M18.8945 4.0055C21.1578 6.27441 21.3342 8.7618 19.4211 11.0643C21.0597 11.9747 21.8468 13.7002 21.8496 16.0811C21.8496 19.717 20.0177 21.843 16.1017 21.843C13.6087 21.843 11.9645 20.9803 11.0961 19.4173C10.0373 20.3248 8.93367 20.7842 7.82443 20.7842C6.53031 20.7842 5.23339 20.168 4.0037 18.9327C2.7572 17.6834 2.13815 16.3752 2.16056 15.0447C2.18297 13.7646 2.79922 12.5041 3.9981 11.3052L4.13535 11.1652C4.2474 11.0475 4.35944 10.9299 4.47709 10.829L10.8356 4.45088C10.9052 4.36461 11.019 4.25622 11.1359 4.14494L11.1382 4.14276L11.281 4.0055C13.7348 1.54332 16.4407 1.54612 18.8945 4.0055ZM11.9603 5.07837L11.9603 5.07837L11.9603 5.07838C11.8862 5.14972 11.813 5.2202 11.746 5.29682L9.23339 7.81783C9.23059 7.82483 9.23059 7.83183 9.23059 7.83883C9.23059 7.84584 9.23059 7.85284 9.22779 7.85984C8.88885 8.95228 9.48269 10.2772 10.9953 11.7926C11.1252 11.9225 11.2531 12.038 11.3807 12.1532L11.3807 12.1532L11.3807 12.1533L11.4435 12.21C12.3734 10.9859 13.9113 10.322 16.1017 10.322C16.8804 10.322 17.5723 10.4089 18.1886 10.5713C19.9785 8.66096 19.9281 6.79822 18.0177 4.88505C16.0485 2.91026 14.1325 2.90746 12.1606 4.88505L11.9981 5.04191L11.9603 5.07837ZM11.6339 16.7058C11.8244 19.3444 13.2474 20.5993 16.0989 20.5993C18.9505 20.5993 20.3734 19.3472 20.5667 16.7058H11.6339ZM20.5667 15.4621H11.6339C11.8272 12.8234 13.2502 11.5685 16.0989 11.5685C18.9505 11.5685 20.3734 12.8206 20.5667 15.4621Z" fill="#313235"/>
</svg>
