<svg width="24" height="24" viewBox="0 0 24 24" fill="none" xmlns="http://www.w3.org/2000/svg">
<path fill-rule="evenodd" clip-rule="evenodd" d="M11.9863 2.15991C15.1096 2.15991 17.5382 2.97504 19.2076 4.58288C20.9415 6.25235 21.8183 8.74815 21.8183 11.9946C21.8183 15.2411 20.9387 17.7313 19.2076 19.4008C17.5382 21.0087 15.1096 21.8238 11.9863 21.8238C8.86308 21.8238 6.43451 21.0087 4.76785 19.4008C3.03675 17.7313 2.16 15.2411 2.16 11.9946C2.16 8.74815 3.03675 6.25515 4.76785 4.58568C6.43451 2.97504 8.86308 2.15991 11.9863 2.15991ZM9.42891 16.2299L16.0816 12.3896C16.1572 12.3448 16.216 12.286 16.258 12.2103C16.3925 11.9778 16.3141 11.6809 16.0816 11.5465L9.42891 7.70613C9.35608 7.66411 9.27205 7.64171 9.18801 7.64171C8.91911 7.64171 8.70062 7.85739 8.70062 8.1263V15.8098C8.70062 15.8938 8.72303 15.9778 8.76505 16.0507C8.8995 16.2832 9.19642 16.3644 9.42891 16.2299Z" fill="#313235"/>
</svg>
