<svg width="24" height="24" viewBox="0 0 24 24" fill="none" xmlns="http://www.w3.org/2000/svg">
<path fill-rule="evenodd" clip-rule="evenodd" d="M20.5154 8.05346L17.7843 5.32237C17.6807 5.21873 17.5378 5.15711 17.3893 5.15711H17.1288C17.084 4.21873 16.8151 3.51285 16.3137 3.00305C15.7507 2.43722 14.944 2.15991 13.8459 2.15991H7.29131C6.18207 2.15991 5.37535 2.42882 4.82073 2.98624C4.26611 3.54366 4 4.34758 4 5.45122V18.5604C4 19.6753 4.27171 20.4876 4.82633 21.0394C5.37815 21.5857 6.18487 21.8518 7.29131 21.8518H13.8459C14.9524 21.8518 15.7591 21.5857 16.3109 21.0394C16.8683 20.4876 17.1372 19.6753 17.1372 18.5604V16.1095H19.8067C20.3305 16.1095 20.6806 15.7565 20.6806 15.2327V8.44842C20.6806 8.29996 20.6218 8.1571 20.5154 8.05346ZM19.0476 8.16831H18.7619C18.3725 8.16831 18.0924 8.08707 17.93 7.92181C17.7675 7.75654 17.6835 7.47923 17.6835 7.08988V6.80416L19.0476 8.16831ZM13.5798 6.27475V14.9862C14.6134 14.989 18.5042 14.989 19.5602 14.9862V9.28595H18.7619C17.3641 9.28595 16.563 8.48483 16.563 7.08708V6.27475H13.5798ZM18.633 10.3672C18.633 10.5997 18.4454 10.7874 18.2129 10.7874H14.9272C14.6947 10.7874 14.507 10.5997 14.507 10.3672C14.507 10.1347 14.6947 9.94702 14.9272 9.94702H18.2129C18.4454 9.94702 18.633 10.1347 18.633 10.3672ZM18.2129 12.426C18.4454 12.426 18.633 12.2383 18.633 12.0058C18.633 11.7733 18.4454 11.5857 18.2129 11.5857H14.9272C14.6947 11.5857 14.507 11.7733 14.507 12.0058C14.507 12.2383 14.6947 12.426 14.9272 12.426H18.2129ZM18.633 13.6445C18.633 13.877 18.4454 14.0647 18.2129 14.0647H14.9272C14.6947 14.0647 14.507 13.877 14.507 13.6445C14.507 13.412 14.6947 13.2243 14.9272 13.2243H18.2129C18.4454 13.2243 18.633 13.412 18.633 13.6445ZM9.74789 19.2131C9.94117 19.412 10.2269 19.5184 10.5686 19.5184C10.9104 19.5184 11.2045 19.4092 11.3949 19.2131C11.5854 19.017 11.6835 18.7453 11.6835 18.4036C11.6835 17.7061 11.2689 17.2887 10.5714 17.2887C9.87394 17.2887 9.45938 17.7061 9.45938 18.4036C9.45938 18.7425 9.55461 19.0142 9.74789 19.2131Z" fill="#313235"/>
</svg>
