<svg width="24" height="24" viewBox="0 0 24 24" fill="none" xmlns="http://www.w3.org/2000/svg">
<path fill-rule="evenodd" clip-rule="evenodd" d="M21.647 8.03364V8.02523C21.647 8.01123 21.647 8.00003 21.6442 7.98602V7.97201L21.6358 7.92159C21.6344 7.91321 21.6323 7.90552 21.6302 7.89784L21.6302 7.89778L21.6302 7.89773C21.6281 7.89005 21.626 7.88236 21.6246 7.87398C21.6246 7.86987 21.6231 7.86727 21.6212 7.86398C21.6205 7.86277 21.6197 7.86147 21.619 7.85997C21.617 7.85212 21.6137 7.84426 21.6099 7.83544L21.6099 7.83542L21.605 7.82355L21.5994 7.81235C21.5938 7.79554 21.5854 7.78154 21.577 7.76753L21.5517 7.72552L21.5433 7.71431C21.5391 7.70871 21.5356 7.70381 21.5321 7.69891C21.5299 7.69577 21.5276 7.69262 21.5252 7.6893C21.5239 7.68743 21.5224 7.68551 21.5209 7.6835L21.5125 7.6723C21.5013 7.6583 21.4901 7.6471 21.4789 7.6359L21.4789 7.63588L16.0167 2.17372C16.0111 2.16812 16.0048 2.16251 15.9985 2.15691C15.9922 2.15131 15.9859 2.14571 15.9803 2.14011L15.9691 2.1317C15.9635 2.1275 15.9586 2.124 15.9537 2.1205C15.9488 2.117 15.9439 2.1135 15.9383 2.10929L15.9271 2.10089L15.8851 2.07568C15.8781 2.07148 15.8704 2.06798 15.8627 2.06448C15.855 2.06097 15.8473 2.05747 15.8403 2.05327L15.8291 2.04767C15.8223 2.04428 15.8155 2.04191 15.8081 2.03933L15.8081 2.03933L15.8081 2.03933C15.8033 2.03765 15.7982 2.03587 15.7927 2.03366H15.7815C15.7675 2.02806 15.7506 2.02526 15.7338 2.02246L15.6834 2.01406H15.6694C15.6624 2.01406 15.6561 2.01336 15.6498 2.01266L15.6498 2.01266L15.6498 2.01265C15.6435 2.01195 15.6372 2.01125 15.6302 2.01125H15.6218C13.4285 2.00905 11.0089 2.01032 9.79788 2.01096L9.11202 2.01125C8.40054 2.01125 7.96076 2.45103 7.96076 3.15971V5.43981C4.94117 6.50984 3.35574 9.82355 4.42576 12.8459C4.65265 13.4874 4.98878 14.084 5.42296 14.6078L2.15966 17.9944C1.94958 18.2213 1.96079 18.5742 2.18768 18.7871C2.40896 18.9916 2.7535 18.986 2.96638 18.7731L6.21567 15.3978C6.73668 15.8263 7.32771 16.1625 7.96356 16.3865V20.5014C7.96356 21.2157 8.40614 21.661 9.11762 21.661H20.5153C21.1988 21.661 21.6442 21.2157 21.6442 20.5294C21.647 20.0868 21.647 12.2941 21.647 8.03364ZM19.7338 7.47342H18.3557C17.703 7.47342 17.1568 7.26894 16.773 6.88518C16.3893 6.50143 16.1876 5.95241 16.1876 5.29976V3.92161L17.9607 5.69471L19.7338 7.47342ZM13.2016 7.60227C11.3753 5.77314 8.41174 5.77314 6.58262 7.60227C5.70307 8.47901 5.21007 9.66949 5.21287 10.9104C5.21287 12.1541 5.70587 13.3445 6.58262 14.2213C8.40894 16.0504 11.3725 16.0476 13.2016 14.2213C15.0308 12.395 15.028 9.43139 13.2016 7.60227Z" fill="#313235"/>
</svg>
