<svg width="24" height="24" viewBox="0 0 24 24" fill="none" xmlns="http://www.w3.org/2000/svg">
<path fill-rule="evenodd" clip-rule="evenodd" d="M19.8501 15.961C20.3011 16.3812 20.5336 16.9218 20.5532 17.6613C20.5532 17.6921 20.5476 17.8098 20.5364 17.8798C20.528 17.9582 20.4944 18.1487 20.4944 18.1487L19.8445 20.6053C19.8412 20.622 19.8328 20.6368 19.8243 20.6519C19.8185 20.6621 19.8126 20.6724 19.8081 20.6837C19.8072 20.6869 19.8064 20.6901 19.8058 20.6933C19.8051 20.6964 19.8045 20.6995 19.8039 20.7026C19.8014 20.7157 19.7989 20.7284 19.7913 20.7397C19.7885 20.7453 19.7843 20.7502 19.7801 20.7551C19.7759 20.7601 19.7717 20.765 19.7689 20.7706L19.7645 20.7768C19.7467 20.8024 19.7306 20.8255 19.7073 20.8462C19.6176 20.989 19.5224 21.1319 19.3992 21.2467C18.9706 21.6417 18.3824 21.8434 17.6457 21.8434C16.909 21.8434 16.3179 21.6417 15.8922 21.2467C15.612 20.989 15.4272 20.6557 15.3207 20.272C14.3263 20.8182 13.091 21.0899 11.5784 21.0899C11.5686 21.0899 11.5609 21.0892 11.5532 21.0885C11.5455 21.0878 11.5378 21.0871 11.528 21.0871C11.5196 21.0871 11.5112 21.0878 11.5028 21.0885C11.4944 21.0892 11.486 21.0899 11.4776 21.0899C9.96499 21.0899 8.73249 20.8182 7.73529 20.272C7.62885 20.6585 7.44678 20.989 7.16667 21.2467C6.73529 21.6417 6.14426 21.8434 5.41317 21.8434C4.67647 21.8434 4.08824 21.6417 3.65966 21.2467C3.53361 21.1319 3.44118 20.989 3.34874 20.8462L3.34628 20.8434C3.32728 20.8217 3.30602 20.7974 3.28992 20.7706C3.28657 20.7661 3.28279 20.7621 3.27909 20.7582C3.27349 20.7522 3.26808 20.7465 3.26471 20.7397C3.2605 20.7313 3.2584 20.7215 3.2563 20.7117C3.2542 20.7019 3.2521 20.6921 3.2479 20.6837C3.24308 20.6717 3.23723 20.6607 3.23146 20.6498C3.2238 20.6354 3.21628 20.6213 3.21148 20.6053L2.56162 18.1487C2.56162 18.1487 2.52801 17.961 2.51681 17.8798C2.5056 17.8098 2.5 17.6949 2.5 17.6613C2.52241 16.9246 2.7493 16.384 3.20308 15.961C3.25323 15.9152 3.30848 15.8779 3.36485 15.8399C3.38089 15.829 3.39703 15.8181 3.41317 15.807C2.4972 14.8462 2.02661 13.3028 3.43557 11.7145C4.04062 11.0311 5.34874 10.258 6.07703 10.1515C6.10406 10.1472 6.12314 10.1401 6.14308 10.1326C6.1624 10.1254 6.18253 10.1178 6.21148 10.1123C6.20653 10.1024 6.20596 10.1012 6.20613 10.1011C6.20616 10.1011 6.20619 10.1011 6.20623 10.1011C6.20658 10.1011 6.20728 10.1011 6.20308 10.0899C5.93417 9.39241 5.79132 8.59409 5.79132 7.68652C5.79132 7.33638 5.82773 7.00865 5.86975 6.68932C5.85994 6.68372 5.84874 6.68232 5.83753 6.68092C5.82633 6.67952 5.81513 6.67812 5.80532 6.67252C5.65686 6.58008 5.57563 6.52126 5.52521 6.47924L5.38515 6.3672C4.57563 5.68372 4.03782 4.42602 5.18627 3.1319C6.32633 1.84619 7.68207 2.14591 8.5084 2.79577C9.34874 2.3868 10.3487 2.15991 11.5308 2.15991C12.7129 2.15991 13.7129 2.3868 14.5532 2.79577C15.3796 2.14591 16.7381 1.84619 17.8753 3.1319C19.0238 4.42602 18.486 5.68372 17.6737 6.3672L17.5364 6.47924C17.4832 6.52126 17.402 6.58008 17.2535 6.67252C17.2423 6.67893 17.2301 6.68075 17.2171 6.68272C17.2073 6.68419 17.1971 6.68573 17.1863 6.68932C17.2283 7.01145 17.2647 7.33638 17.2647 7.68652C17.2647 8.59409 17.1218 9.39241 16.8529 10.0899L16.8445 10.1123C16.8715 10.1177 16.8906 10.125 16.9092 10.1321C16.9292 10.1398 16.9485 10.1471 16.9762 10.1515C17.7045 10.258 19.0126 11.0311 19.6204 11.7145C21.0266 13.3028 20.556 14.8434 19.6401 15.807L19.6756 15.8309L19.6756 15.8309C19.7351 15.8708 19.7965 15.912 19.8501 15.961ZM8.26471 4.45963C9.0042 3.77056 10.1022 3.42042 11.5308 3.42042C12.9594 3.42042 14.0574 3.77056 14.7969 4.45963C15.5616 5.17112 15.9482 6.25795 15.9482 7.68652C15.9482 9.11229 15.5616 10.1963 14.7969 10.905C14.1751 11.482 13.2871 11.8042 12.1779 11.8966V8.76495C12.3319 8.70333 12.472 8.6193 12.5896 8.51005C12.7437 8.3672 12.8305 8.23554 12.9034 8.02546C12.9034 8.02546 12.9454 7.8714 12.9454 7.75935C12.9454 7.66411 12.8894 7.52126 12.8894 7.52126C12.8193 7.3728 12.7437 7.26355 12.6232 7.15431C12.3543 6.90501 11.9846 6.77616 11.528 6.76776C11.0742 6.77616 10.7045 6.90501 10.4328 7.15431C10.3151 7.26636 10.2395 7.3728 10.1667 7.52126C10.1667 7.52126 10.1106 7.66131 10.1106 7.75935C10.1106 7.8742 10.1555 8.02546 10.1555 8.02546C10.2283 8.23274 10.3151 8.3672 10.4692 8.51005C10.5868 8.6193 10.7269 8.70053 10.881 8.76495V11.8966C9.77171 11.8014 8.88375 11.4792 8.26471 10.905C7.5 10.1963 7.11064 9.11509 7.11064 7.68652C7.11064 6.25795 7.5 5.17112 8.26471 4.45963ZM6.18067 5.33078C6.43838 4.6389 6.82213 4.05347 7.33193 3.57168C6.93698 3.41481 6.55042 3.53526 6.18627 3.94703C5.7437 4.45123 5.7521 4.91341 6.18067 5.33078ZM8.0098 6.76495C8.0098 6.97224 8.06583 7.1291 8.18347 7.23834C8.29552 7.34198 8.45798 7.39521 8.66527 7.39521C8.87255 7.39521 9.03501 7.34198 9.14706 7.23834C9.2619 7.1319 9.32353 6.97224 9.32353 6.76495C9.32353 6.55767 9.2619 6.39801 9.14706 6.28876C9.03501 6.18232 8.87255 6.1319 8.66527 6.1319C8.45798 6.1319 8.29552 6.18512 8.18347 6.28876C8.06863 6.39521 8.0098 6.55487 8.0098 6.76495ZM18.937 16.8686C19.1359 17.0535 19.2899 17.3588 19.2423 17.7566C19.1727 18.329 18.6852 19.9105 18.6083 20.1601L18.598 20.1935L18.598 20.1935C18.5644 20.244 18.5308 20.2944 18.4888 20.3364C18.3123 20.496 18.0294 20.5801 17.6485 20.5801C17.2647 20.5801 16.979 20.496 16.8053 20.3364C16.626 20.1711 16.5364 19.8966 16.5336 19.5297L16.7101 17.8518C16.7101 17.843 16.7124 17.835 16.7146 17.8273C16.7166 17.8203 16.7185 17.8137 16.7185 17.807C16.7185 17.3756 16.8249 17.0619 17.0322 16.8686C17.2339 16.6809 17.5532 16.5857 17.9846 16.5857C18.416 16.5857 18.7381 16.6837 18.937 16.8686ZM6.2591 20.3336C6.43838 20.1683 6.52521 19.8966 6.53081 19.5269L6.35434 17.849C6.35434 17.8423 6.35243 17.8356 6.35043 17.8286C6.34823 17.821 6.34594 17.813 6.34594 17.8042C6.34594 17.3756 6.2395 17.0591 6.03501 16.8658C5.83053 16.6781 5.5112 16.5829 5.07983 16.5829C4.64846 16.5829 4.32913 16.6781 4.12745 16.8658C3.92857 17.0507 3.77731 17.356 3.82213 17.7537C3.89496 18.3784 4.46639 20.1879 4.46639 20.1879C4.4972 20.2411 4.53081 20.2916 4.57563 20.3308C4.7521 20.4904 5.03221 20.5745 5.41597 20.5745C5.79972 20.5801 6.08263 20.496 6.2591 20.3336ZM4.57283 15.1263C4.05462 14.6893 3.34874 13.7706 4.44118 12.5353C4.68767 12.2608 5.08543 11.9806 5.45238 11.765C5.08543 12.6193 4.87815 13.6053 4.87815 14.7425C4.87815 14.8843 4.89027 15.0194 4.90237 15.1542C4.90772 15.2138 4.91307 15.2734 4.91737 15.3336C4.90616 15.3336 4.89426 15.335 4.88235 15.3364C4.87045 15.3378 4.85854 15.3392 4.84734 15.3392C4.80812 15.314 4.76331 15.2832 4.73529 15.2608L4.57283 15.1263ZM16.8753 3.94703C16.5112 3.53526 16.1246 3.41481 15.7297 3.57168C16.2395 4.05347 16.626 4.6389 16.8838 5.33078C17.3123 4.91341 17.3207 4.45123 16.8753 3.94703ZM17.6092 11.7678C17.979 11.9806 18.3767 12.2608 18.6204 12.5353C19.7129 13.7706 19.007 14.6893 18.4888 15.1291L18.3235 15.2636C18.2983 15.2832 18.2507 15.3168 18.2115 15.342C18.2003 15.342 18.1884 15.3406 18.1765 15.3392L18.1764 15.3392C18.1645 15.3378 18.1527 15.3364 18.1415 15.3364C18.1457 15.2763 18.1511 15.2168 18.1564 15.1572L18.1564 15.1571L18.1565 15.157V15.157V15.157C18.1686 15.0221 18.1807 14.8871 18.1807 14.7453C18.1807 13.6081 17.9762 12.6221 17.6092 11.7678ZM13.9146 7.23834C14.0266 7.34198 14.1891 7.39521 14.3964 7.39521C14.6036 7.39521 14.7661 7.34198 14.8782 7.23834C14.993 7.1319 15.0518 6.97224 15.0518 6.76495C15.0518 6.55767 14.9958 6.39801 14.8782 6.29156C14.7661 6.18512 14.6036 6.1319 14.3964 6.1319C14.1919 6.1319 14.0266 6.18512 13.9146 6.29156C13.7969 6.39521 13.7381 6.55767 13.7381 6.76495C13.7381 6.97224 13.7969 7.1319 13.9146 7.23834Z" fill="#313235"/>
</svg>
