<svg width="24" height="24" viewBox="0 0 24 24" fill="none" xmlns="http://www.w3.org/2000/svg">
<path fill-rule="evenodd" clip-rule="evenodd" d="M21.6778 6.54207C21.6778 6.54207 21.9636 2.8446 18.0392 2.8446C14.1148 2.8446 5.61064 2.8474 5.61064 2.8474C5.61064 2.8474 5.53781 2.8418 5.41456 2.8418C4.66106 2.8418 2.00561 3.08549 2.00561 6.51966C2.00561 10.5225 2.00841 17.1807 2.00841 17.1807C2.00841 17.1807 1.76191 20.8642 5.62465 20.8642H18.042C18.042 20.8642 18.1624 20.881 18.3557 20.881C19.2381 20.881 21.6806 20.5729 21.6806 17.1611C21.6806 12.9986 21.6778 6.54207 21.6778 6.54207ZM3.2493 6.25916C3.32213 4.96504 3.88795 4.57849 4.08683 4.45244C4.42017 4.23675 4.79272 4.15552 5.07843 4.12191V6.25916H3.2493ZM18.6078 19.6149C20.154 19.4916 20.4033 18.2535 20.4397 17.514H18.6078V19.6149ZM3.2437 17.5308C3.27171 17.8866 3.38095 18.5364 3.81232 18.9986C4.10644 19.3096 4.52941 19.5028 5.07843 19.5785V17.5308H3.2437ZM20.4481 6.24515C20.4313 5.90902 20.3445 5.21434 19.8935 4.72695C19.6022 4.41042 19.1708 4.21434 18.6106 4.13591V6.24515H20.4481ZM20.4481 16.2647H18.6078V14.1779H20.4481V16.2647ZM18.6078 9.58408H20.4481V7.49725H18.6078V9.58408ZM20.4481 12.923H18.6078V10.8362H20.4481V12.923ZM3.2353 16.2787H5.07563V14.1919H3.2353V16.2787ZM5.07843 9.59248H3.2353V7.51126H5.07843V9.59248ZM3.2353 10.8446V12.937H5.07563V10.8446H3.2353ZM9.59102 14.444V9.28156L13.9804 11.8642L9.59102 14.444ZM9.2829 7.65691L15.521 11.3208C15.7115 11.4328 15.8263 11.6401 15.8263 11.8642C15.8263 12.0883 15.7087 12.2956 15.5182 12.4076L9.2829 16.0715C9.18766 16.1275 9.08122 16.1555 8.97478 16.1555C8.86834 16.1555 8.76189 16.1275 8.66666 16.0715C8.47618 15.9622 8.35853 15.7549 8.35853 15.5308V8.20033C8.35853 7.97624 8.47618 7.76896 8.66666 7.65691C8.85713 7.54487 9.09243 7.54487 9.2829 7.65691Z" fill="#313235"/>
</svg>
