<svg xmlns="http://www.w3.org/2000/svg" width="24" height="24" fill="none"><path fill="#000" d="M12 21.15a9.15 9.15 0 1 1 0-18.3 9.15 9.15 0 0 1 0 18.3m0 .85c5.523 0 10-4.477 10-10S17.523 2 12 2 2 6.477 2 12s4.477 10 10 10M8 11a1 1 0 1 0 0-2 1 1 0 0 0 0 2m8 0a1 1 0 1 0 0-2 1 1 0 0 0 0 2m1.373 1.627c.125.13.194.304.188.483 0 0-.048 1.85-1.183 3.39-.804 1.09-2.154 2.026-4.418 2.038-2.1.011-3.402-.787-4.208-1.776-1.295-1.587-1.311-3.664-1.311-3.664a.666.666 0 0 1 .667-.673h9.787c.18 0 .352.074.478.202M7.3 13.275c.086 1.05.44 2.128 1.11 2.95.64.786 1.697 1.473 3.545 1.463 1.988-.01 3.089-.812 3.738-1.692.577-.783.905-1.757 1.003-2.721z"/></svg>