<svg xmlns="http://www.w3.org/2000/svg" width="24" height="24" fill="none"><path fill="#000" d="M17.632 3.418v-.001c-.368-.575-.874-1.046-1.554-1.192-.68-.146-1.334.076-1.902.452h-.002c-.378.252-.69.644-.934 1.013a9.819 9.819 0 0 0-.685 1.257c-.221.477-.41.957-.547 1.357L12 6.328l-.008-.024c-.138-.4-.326-.88-.547-1.357a9.82 9.82 0 0 0-.686-1.257c-.243-.37-.555-.761-.933-1.012l-.002-.001c-.568-.376-1.222-.598-1.902-.452-.68.146-1.186.617-1.554 1.192v.001c-.364.57-.587 1.227-.444 1.907.11.53.419.959.817 1.3H3.5a1.5 1.5 0 0 0-1.5 1.5v3.281a1.5 1.5 0 0 0 .825 1.34v6.935c0 1.105.825 2.131 1.92 2.131h14.51c1.095 0 1.92-1.026 1.92-2.131v-6.935a1.5 1.5 0 0 0 .825-1.34V8.124a1.5 1.5 0 0 0-1.5-1.5h-3.241c.398-.34.707-.77.817-1.299.143-.68-.08-1.336-.444-1.907m-3.775 4.056H20.5a.65.65 0 0 1 .65.65v3.282a.65.65 0 0 1-.65.65h-17a.65.65 0 0 1-.65-.65V8.124a.65.65 0 0 1 .65-.65H13.857Zm.093-.85h-.091a13.498 13.498 0 0 1-1.047-.044 13.544 13.544 0 0 1 .514-1.275c.375-.81.85-1.608 1.318-1.919.913-.603 1.678-.439 2.272.49.297.465.409.892.327 1.276-.078.38-.352.728-.81 1.03-.47.311-1.404.424-2.299.44l-.184.002m-3.808 0h-.092c-.061 0-.123 0-.184-.002-.895-.016-1.829-.129-2.3-.44-.457-.302-.731-.65-.81-1.03-.08-.384.031-.811.328-1.277.594-.928 1.359-1.092 2.272-.489.469.311.943 1.109 1.318 1.918a13.492 13.492 0 0 1 .514 1.276 13.25 13.25 0 0 1-1.046.044M3.675 19.681v-6.775h16.65v6.775c0 .745-.546 1.281-1.07 1.281H4.746c-.523 0-1.07-.536-1.07-1.281"/></svg>