<svg xmlns="http://www.w3.org/2000/svg" width="24" height="24" fill="none"><path fill="#000" d="M3 9.31C3 6.45 4.846 3.5 8.01 3.5c1.526 0 2.639.781 3.36 1.802.258.366.468.765.63 1.173.162-.408.372-.807.63-1.173.721-1.02 1.834-1.802 3.36-1.802C19.154 3.5 21 6.45 21 9.31c0 2.986-1.381 5.163-3.19 6.905-1.288 1.24-2.786 2.258-4.151 3.185l-.014.01c-.192.13-.41.27-.626.41l-.093.06c-.247.16-.485.314-.681.453l-.245.172-.245-.172a22 22 0 0 0-.681-.453l-.093-.06c-.216-.14-.434-.28-.626-.41l-.014-.01c-1.365-.927-2.863-1.945-4.151-3.185C4.38 14.473 3 12.296 3 9.31m9.425-.72h-.85c0-.851-.293-1.938-.9-2.798-.596-.844-1.47-1.442-2.665-1.442-2.516 0-4.16 2.368-4.16 4.96 0 2.682 1.226 4.652 2.93 6.293 1.23 1.186 2.674 2.167 4.052 3.103.183.124.393.26.609.399l.559.365a34 34 0 0 1 .559-.365c.216-.14.426-.275.609-.399 1.378-.936 2.821-1.917 4.053-3.103 1.703-1.64 2.929-3.61 2.929-6.293 0-2.592-1.644-4.96-4.16-4.96-1.195 0-2.069.598-2.665 1.442-.607.86-.9 1.947-.9 2.798"/></svg>