<svg xmlns="http://www.w3.org/2000/svg" width="24" height="24" fill="none"><path fill="#0B2739" d="M13.307 2.497c-.674-.663-1.943-.663-2.615 0L4.244 8.838v.003l-1.767 1.737-.036.043c-.063.073-.124.144-.174.216-.383.554-.316 1.287-.039 1.691.308.529.889.845 1.555.845.163 0 1.531.033 1.668.039a7.634 7.634 0 0 1 7.267 7.305h-.005a8.283 8.283 0 0 1 .006.42l-.001.051a8.258 8.258 0 0 1-.058.799h5.262c.98-.005 1.777-.737 1.777-1.636v-7.038h.513c.734 0 1.388-.404 1.659-1.03.259-.591.122-1.248-.353-1.715l-8.21-8.071ZM3.079 11.183l.021-.025 1.995-1.96v-.003l6.194-6.092h.001c.147-.146.403-.253.71-.253.307 0 .564.107.713.254l8.21 8.071c.236.231.28.514.17.767l-.001.004c-.122.281-.447.516-.88.516H18.85v7.89c0 .36-.345.78-.929.784h-4.335l-.018-.453a8.482 8.482 0 0 0-8.077-8.12c-.149-.008-1.53-.04-1.707-.04-.396 0-.68-.182-.82-.423l-.016-.027-.018-.026a.621.621 0 0 1-.079-.318.704.704 0 0 1 .115-.407c.024-.034.053-.068.113-.139Z"/><path fill="#0B2739" d="M9.9 22A5.001 5.001 0 0 0 4 16.097v.872A4.151 4.151 0 0 1 9.029 22H9.9ZM6 21a1 1 0 1 1-2 0 1 1 0 0 1 2 0Z"/></svg>