<svg xmlns="http://www.w3.org/2000/svg" width="24" height="24" fill="none"><path fill="#000" d="m10.867 9.453-1.414 1.414-.601-.601 1.414-1.414.6.6Z"/><path fill="#000" d="m6.372 15.918 4.947 4.947a3.859 3.859 0 0 0 5.457.002l4.091-4.09a3.859 3.859 0 0 0-.002-5.458l-4.947-4.947-3.325.766.767-3.324-.683-.683A3.859 3.859 0 0 0 7.22 3.13L3.13 7.22a3.859 3.859 0 0 0 .001 5.457l.683.683 3.324-.767-.766 3.325Zm-2.29-3.493-.35-.349a3.009 3.009 0 0 1-.002-4.255l4.091-4.09a3.009 3.009 0 0 1 4.255.001l.35.35-.661 2.866a.85.85 0 0 0 1.02 1.019l2.865-.66 4.614 4.614a3.009 3.009 0 0 1 .002 4.254l-4.09 4.091a3.009 3.009 0 0 1-4.255-.002L7.306 15.65l.66-2.866a.85.85 0 0 0-1.018-1.019l-2.866.66Z"/></svg>