<svg width="64" height="64" viewBox="0 0 64 64" xmlns="http://www.w3.org/2000/svg"><path d="M59.029 57.311a2.054 2.054 0 00-2.69-1.075.268.268 0 00-.07.035c-3.748 1.847-8.418 2.78-13.877 2.78-13.597 0-21.79-5.836-24.623-17.193H37.4a2.131 2.131 0 002.08-2.178 2.125 2.125 0 00-2.08-2.178H16.919c-.206-1.757-.359-3.568-.359-5.54 0-1.075.135-2.017.198-3.038H37.39a2.124 2.124 0 002.08-2.17v-.009a2.125 2.125 0 00-2.08-2.178H17.205c2.205-13.042 10.613-19.71 25.187-19.71 5.397 0 10.013.923 13.742 2.724 1.048.502 2.276.036 2.76-1.057a2.235 2.235 0 00-1.012-2.896C53.597 1.548 48.389.5 42.392.5 25.56.5 15.322 8.98 12.947 24.567H6.78a2.131 2.131 0 00-2.08 2.178c0 1.201.933 2.179 2.08 2.179h5.728a55.06 55.06 0 00-.108 3.038c0 1.945.126 3.765.314 5.54H6.78A2.131 2.131 0 004.7 39.68c0 1.201.933 2.178 2.08 2.178h6.588c2.967 14.136 12.836 21.548 29.015 21.548 6.078 0 11.348-1.075 15.642-3.2a2.218 2.218 0 001.004-2.895" fill="#313235" fill-rule="nonzero"/></svg>