<svg width="64" height="64" viewBox="0 0 64 64" xmlns="http://www.w3.org/2000/svg"><path d="M59.724 56.811a2.054 2.054 0 00-2.689-1.075.268.268 0 00-.071.035c-3.747 1.847-8.417 2.78-13.876 2.78-13.598 0-21.79-5.836-24.623-17.193h19.63a2.131 2.131 0 002.08-2.178 2.125 2.125 0 00-2.08-2.178H17.613c-.206-1.757-.358-3.568-.358-5.54 0-1.075.134-2.017.197-3.038h20.634a2.124 2.124 0 002.08-2.17v-.009a2.125 2.125 0 00-2.08-2.178H17.9c2.205-13.042 10.613-19.71 25.188-19.71 5.396 0 10.012.923 13.741 2.724 1.049.502 2.277.036 2.76-1.057a2.235 2.235 0 00-1.012-2.896C54.292 1.048 49.085 0 43.088 0c-16.834 0-27.07 8.48-29.445 24.067H7.476a2.131 2.131 0 00-2.08 2.178c0 1.201.932 2.179 2.08 2.179h5.727a55.06 55.06 0 00-.107 3.038c0 1.945.125 3.765.314 5.54H7.476a2.131 2.131 0 00-2.08 2.178c0 1.201.932 2.178 2.08 2.178h6.588C17.03 55.494 26.9 62.906 43.079 62.906c6.077 0 11.348-1.075 15.641-3.2a2.218 2.218 0 001.004-2.895" fill="#313235" fill-rule="nonzero"/></svg>