<svg width="64" height="64" viewBox="0 0 64 64" xmlns="http://www.w3.org/2000/svg"><path d="M59.07 59.052a4.476 4.476 0 001.309-3.173l-.063-19.092c.08-1.506-.287-2.69-1.058-3.514-.78-.834-1.936-1.273-3.352-1.282L7.099 32a4.427 4.427 0 00-3.164 1.318 4.439 4.439 0 00-1.309 3.173l.063 19.092c-.08 1.506.287 2.69 1.058 3.514.78.825 1.945 1.273 3.361 1.282l48.807-.018a4.466 4.466 0 003.155-1.309zM31.498 2.617a2.976 2.976 0 00-2.815 3.129 2.964 2.964 0 002.815 2.814 2.963 2.963 0 002.815-3.12 2.972 2.972 0 00-2.815-2.823zm0 8.56a5.473 5.473 0 01-2.904-.842L9.574 29.374l43.903-.01-19.075-19.02a5.547 5.547 0 01-2.904.834zM62.933 36.85l.063 19.021a7.064 7.064 0 01-2.07 5.029 7.082 7.082 0 01-5.02 2.088l-48.825.01c-2.124-.019-3.989-.772-5.252-2.116C.556 59.527-.054 57.67.063 55.51L0 36.491a7.064 7.064 0 012.07-5.029 7.031 7.031 0 013.703-1.954c.026-.036.035-.08.071-.107L26.747 8.489a5.518 5.518 0 01-.833-2.896c0-3.083 2.5-5.593 5.584-5.593 3.075 0 5.584 2.51 5.584 5.593a5.419 5.419 0 01-.842 2.896l21.046 20.983c.01.01.01.018.018.027 1.542.26 2.878.941 3.855 1.981 1.281 1.354 1.89 3.21 1.774 5.37zM15.49 49.3c.717 0 2.062 0 2.062-3.638 0-3.667-1.336-3.667-2.062-3.667-.726 0-2.07 0-2.07 3.667 0 3.639 1.344 3.639 2.07 3.639zm0-9.698c1.676 0 4.473.789 4.473 6.06 0 5.001-2.43 6.041-4.473 6.041-2.044 0-4.49-1.049-4.49-6.041 0-5.271 2.805-6.06 4.49-6.06zm11.733 5.405c.18-.206.287-.493.287-1.264 0-.6-.116-1.084-.331-1.326-.072-.081-.332-.278-1.157-.278h-1.246v3.146h1.426c.78-.009.905-.143 1.021-.278zm-1.138-5.217c1.309 0 2.24.323 2.868.995.655.682.977 1.668.977 2.922 0 1.246-.295 2.179-.905 2.86-.61.708-1.479 1.058-2.644 1.058h-1.605v2.904c0 .538-.439.986-.986.986h-.43a.989.989 0 01-.986-.986v-9.762c0-.537.44-.986.986-.986.018.01 2.725.01 2.725.01zm11.913 9.367c.537 0 .986.44.986.986v.386c0 .538-.44.986-.986.986h-4.805a.989.989 0 01-.986-.986v-9.762c0-.537.44-.986.986-.986h4.661c.538 0 .986.44.986.977a.884.884 0 01-.027.216l-.09.385a.987.987 0 01-.958.77h-3.165v2.26h2.483c.538 0 .986.439.986.986v.385c0 .538-.439.986-.986.986H34.6v2.411h3.398zm10.908-9.367c.547 0 .986.44.986.986v9.762c0 .538-.439.986-.986.986h-.322a.962.962 0 01-.816-.44l-4.07-6.175v5.638c0 .537-.439.986-.986.986h-.403a.989.989 0 01-.986-.986v-9.78c0-.537.44-.986.986-.986h.314c.332 0 .636.162.816.44l4.096 6.176v-5.639c0-.537.44-.986.986-.986-.01.018.385.018.385.018z" fill="#313235" fill-rule="nonzero"/></svg>