<svg width="64" height="64" xmlns="http://www.w3.org/2000/svg"><path d="M55.503 51.572a1.06 1.06 0 01-1.058 1.058H6.203c-.583 0-1.058-.475-1.076-.825l4.948-28.244c0-.583.466-1.058 1.058-1.058h48.17c.547 0 1.004.421 1.049.96l-4.85 28.109zM2.635 11.899c0-.618.574-1.13 1.291-1.13h20.016c.708 0 1.282.503 1.282 1.13v3.38c0 .743.591 1.344 1.317 1.344h25.224c.708 0 1.281.51 1.29 1.228l.153 1.963H11.133c-2.035 0-3.693 1.685-3.675 3.514L4.464 40.412 2.635 11.9zm56.66 7.915h-3.452l-.161-2.062c0-2.106-1.766-3.818-3.926-3.818H27.868v-2.035c0-2.106-1.766-3.818-3.926-3.818H3.926C1.756 8.08 0 9.793 0 11.989L2.519 51.49l-.018.081c0 2.07 1.658 3.756 3.702 3.756h48.242c2.035 0 3.693-1.685 3.675-3.523l4.858-28.011c.01-.072.018-.153.018-.233 0-2.062-1.658-3.747-3.702-3.747z" fill="#313235" fill-rule="nonzero"/></svg>