<svg width="24" height="24" viewBox="0 0 24 24" xmlns="http://www.w3.org/2000/svg"><path d="M22.447 22.27c-.202.243-.558.37-1.055.38-.979.017-6.074.017-9.032.014h-.047c-4.404.003-9.21 0-10.014-.014-.497-.01-.85-.134-1.052-.376-.292-.35-.215-.867-.208-.951l-.01-10.74 8.783 5.543c.033.024.8.575 1.879.575.635 0 1.247-.188 1.808-.555l9.163-5.717-.003 10.978c0 .006.074.517-.212.864M1.452 8.109l9.082-5.74c.397-.246.854-.38 1.318-.384.746 0 1.298.376 1.324.393l9.042 5.718c.28.198.43.605.444 1.163v.027c-.017.006-.037.01-.054.02l-9.643 6.013c-.404.266-.834.4-1.274.4-.743 0-1.291-.383-1.325-.403l-9.34-5.892v-.155c.013-.568.167-.975.426-1.16m22.185 13.217l.01-12.077c-.027-1.123-.48-1.68-.877-1.963l-9.042-5.718a3.505 3.505 0 00-1.893-.565c-1.072 0-1.842.542-1.852.548L1.055 7.195l-.158.1c-.376.27-.83.824-.857 1.96l.017 11.987c-.017.097-.148.968.424 1.654.393.474.998.72 1.801.733.639.01 3.59.013 6.736.013h3.295v-.49l.05.49c2.955.003 8.06.003 9.045-.013.8-.014 1.405-.263 1.799-.733.571-.686.44-1.557.43-1.57" fill="#313235" fill-rule="nonzero"/></svg>