<svg width="24" height="24" viewBox="0 0 24 24" xmlns="http://www.w3.org/2000/svg"><path d="M20.813 19.34a.397.397 0 01-.396.396H2.327c-.22 0-.398-.178-.404-.31l1.855-10.59c0-.22.175-.397.397-.397h18.064c.205 0 .376.158.393.36l-1.819 10.54zM.988 4.461c0-.232.215-.423.484-.423h7.506c.266 0 .48.188.48.423V5.73a.5.5 0 00.495.505h9.459c.265 0 .48.191.484.46l.057.736H4.175c-.763 0-1.385.632-1.378 1.318l-1.123 6.407L.988 4.462zM22.235 7.43h-1.294l-.06-.773c0-.79-.663-1.432-1.473-1.432H10.45v-.763c0-.79-.662-1.432-1.472-1.432H1.472A1.46 1.46 0 000 4.496l.945 14.813-.007.03a1.4 1.4 0 001.388 1.409h18.09c.764 0 1.386-.632 1.379-1.321l1.822-10.504a.71.71 0 00.007-.088c0-.773-.622-1.405-1.389-1.405z" fill="#313235" fill-rule="nonzero"/></svg>