<svg width="24" height="24" viewBox="0 0 24 24" xmlns="http://www.w3.org/2000/svg"><path d="M23.442 22.971l-6.387-6.386c2.152-.955 4.286-2.488 6.387-4.588a.338.338 0 000-.478c-3.792-3.791-7.708-5.714-11.63-5.714-1.55 0-3.1.3-4.642.898L.585.114A.335.335 0 10.11.588l6.386 6.387c-2.15.954-4.285 2.487-6.386 4.588a.338.338 0 000 .477c3.792 3.792 7.707 5.715 11.63 5.715 1.55 0 3.1-.3 4.642-.898l6.585 6.585a.33.33 0 00.239.097.344.344 0 00.238-.097.328.328 0 00-.003-.47zm-11.63-16.5c3.66 0 7.33 1.778 10.917 5.28-2.043 1.997-4.11 3.439-6.184 4.316l-1.318-1.314c.595-.743.897-1.745.897-2.985 0-1.445-.406-2.565-1.21-3.328-.76-.722-1.832-1.089-3.183-1.089-1.24 0-2.242.306-2.988.915l-1.049-1.05c1.372-.493 2.746-.745 4.118-.745zm-.064 4.316c-.158 0-.3.02-.427.067l-2.1-2.101c.618-.477 1.458-.72 2.507-.72 1.697 0 3.72.65 3.72 3.742 0 1.049-.235 1.889-.705 2.504l-2.064-2.064c.04-.12.064-.262.064-.423.003-.69-.39-1.005-.995-1.005zm-.007 6.299c-3.66 0-7.33-1.778-10.917-5.281 2.043-1.997 4.11-3.439 6.184-4.316l8.85 8.85a12.014 12.014 0 01-4.117.747z" fill="#5CB615" fill-rule="nonzero"/></svg>