<svg width="64" height="64" xmlns="http://www.w3.org/2000/svg"><path d="M60.37 51.115v-38.83c.018-.78-.6-1.435-1.39-1.453H4.016a1.416 1.416 0 00-1.39 1.453v38.83c0 .807.628 1.452 1.39 1.452H58.98a1.428 1.428 0 001.39-1.452zM58.98 8.072c2.214 0 4.016 1.891 4.016 4.213v38.83c0 2.321-1.802 4.213-4.016 4.213H4.025C1.802 55.328 0 53.436 0 51.115v-38.83c0-2.322 1.802-4.213 4.016-4.213H58.98zM28.29 36.155c.725 0 1.308.618 1.308 1.38 0 .762-.583 1.38-1.309 1.38H6.965a1.35 1.35 0 01-1.318-1.38c0-.762.583-1.38 1.309-1.38h21.333zM6.964 27.88a1.343 1.343 0 01-1.309-1.38c0-.762.592-1.38 1.309-1.38h14.467c.726 0 1.309.618 1.309 1.38 0 .762-.583 1.38-1.31 1.38H6.966zm36.939-4.562c-.502.52-.61 1.488-.61 2.214 0 .717.108 1.685.61 2.196.493.493 1.389.6 2.061.6.673 0 1.578-.107 2.07-.6.404-.412.62-1.147.62-2.196 0-1.049-.207-1.793-.62-2.205-.501-.511-1.397-.619-2.07-.619-.672 0-1.568.108-2.061.61zm2.052 7.762c-1.676 0-2.985-.466-3.88-1.38-.942-.941-1.417-2.349-1.417-4.177 0-1.829.475-3.245 1.416-4.195.896-.914 2.214-1.38 3.881-1.38 1.676 0 2.985.466 3.89 1.38.942.95 1.426 2.366 1.426 4.195 0 1.828-.475 3.236-1.426 4.177-.905.923-2.214 1.38-3.89 1.38zm-6.776 8.354h13.57c-.035-.699-.205-1.56-.788-2.187-.735-.798-1.91-.959-2.77-.959H42.72c-.86 0-2.043.17-2.76.96-.565.618-.744 1.487-.78 2.186zm10.012-5.916c1.963 0 3.577.628 4.661 1.811 1.004 1.094 1.533 2.6 1.533 4.374v1.847a.62.62 0 01-.6.636h-17.64a.62.62 0 01-.601-.636v-1.847c0-1.775.528-3.28 1.523-4.374 1.085-1.192 2.698-1.81 4.661-1.81h6.463z" fill="#313235" fill-rule="nonzero"/></svg>