<svg width="24" height="24" viewBox="0 0 24 24" xmlns="http://www.w3.org/2000/svg"><path d="M12.442 23.624c-3.49 0-5.415-1.748-5.415-4.928V3.939C7.027 1.4 8.567 0 11.363 0c2.793 0 4.333 1.398 4.333 3.943v12.78c0 1.869-1.177 2.944-3.234 2.944S9.23 18.595 9.23 16.723V5.946c0-.272.242-.49.54-.49.3 0 .539.221.539.49v10.777c0 1.338.685 1.96 2.15 1.96 1.47 0 2.152-.622 2.152-1.96V3.943c0-1.99-1.065-2.958-3.254-2.958-2.188 0-3.253.968-3.253 2.958v14.756c0 2.615 1.458 3.943 4.332 3.943 2.874 0 4.333-1.328 4.333-3.943l-.013-12.76c0-.272.242-.49.537-.49h.004c.299 0 .541.218.541.49l.017 12.764c.003 3.173-1.923 4.92-5.412 4.92" fill="#5CB615" fill-rule="nonzero"/></svg>