<svg width="64" height="64" xmlns="http://www.w3.org/2000/svg"><path d="M26.967 22.06c1.837-1.444 3.989-2.743 6.212-4.034 2.232 1.3 4.383 2.6 6.211 4.033H26.967zm-2.824 2.706h18.08c1.273 1.551 2.106 3.326 2.366 5.423H21.777c.269-2.088 1.094-3.872 2.366-5.423zm15.149 16.26c-1.81 1.408-3.926 2.671-6.113 3.944-2.178-1.273-4.294-2.545-6.104-3.944h12.217zM24.224 38.32c-1.3-1.55-2.151-3.325-2.429-5.414h22.776c-.277 2.089-1.138 3.873-2.429 5.414H24.224zm23.395-6.821c0-7.485-5.665-11.491-11.706-15.068 6.041-3.576 11.706-7.592 11.706-15.068 0-.744-.645-1.353-1.443-1.353s-1.443.61-1.443 1.353c0 6.508-5.513 9.959-11.545 13.473C27.155 11.32 21.643 7.87 21.643 1.362c0-.744-.646-1.353-1.444-1.353-.797 0-1.443.61-1.443 1.353 0 7.485 5.665 11.492 11.716 15.068-6.042 3.577-11.716 7.592-11.716 15.068 0 3.577 1.336 6.328 3.344 8.65.107.26.304.475.546.627 2.143 2.25 4.922 4.079 7.817 5.8-6.042 3.576-11.716 7.592-11.716 15.068 0 .744.646 1.353 1.443 1.353.798 0 1.444-.61 1.444-1.353 0-6.508 5.512-9.959 11.545-13.473 6.041 3.514 11.545 6.965 11.545 13.473 0 .744.645 1.353 1.443 1.353s1.443-.61 1.443-1.353c0-7.485-5.665-11.492-11.706-15.068 6.05-3.586 11.715-7.592 11.715-15.077z" fill="#313235" fill-rule="nonzero"/></svg>