<svg width="24" height="24" viewBox="0 0 24 24" xmlns="http://www.w3.org/2000/svg"><path d="M17.224 8.77a.49.49 0 00-.155.44l1.654 10.528-.955.467-3.684-7.768a.5.5 0 00-.346-.272.486.486 0 00-.427.114 61.407 61.407 0 00-3.143 2.992c-.951.958-1.7 1.714-3.062 2.76a.494.494 0 00-.192.43l.283 3.65-.79.38-2.024-3.405a.486.486 0 00-.151-.158l-3.059-2.01.417-.639 3.398.249a.482.482 0 00.424-.192c1.012-1.307 1.778-2.054 2.75-2.998a59.703 59.703 0 003.035-3.13.495.495 0 00-.158-.776L3.324 5.866l.612-.975 10.488 1.543a.5.5 0 00.43-.152c1.627-1.758 4.141-4.453 4.393-4.679.477-.43.961-.625 1.422-.611.467.023.92.279 1.351.756.86.955.81 1.916-.144 2.776-.333.3-4.652 4.246-4.652 4.246m5.529-7.68C22.15.42 21.449.046 20.723.006c-.73-.05-1.466.259-2.131.86-.337.303-3.432 3.637-4.28 4.555L3.766 3.869a.511.511 0 00-.488.225L2.195 5.815a.494.494 0 00.151.68c.02.013.04.023.06.033l7.61 3.52a59.518 59.518 0 01-2.54 2.587c-.948.921-1.708 1.657-2.68 2.894l-3.425-.248a.487.487 0 00-.447.222L.081 16.79a.493.493 0 00.14.682l3.376 2.219 2.195 3.694a.492.492 0 00.635.191l1.5-.722a.49.49 0 00.275-.48l-.286-3.725c1.28-1.002 2.023-1.748 2.951-2.683a59.741 59.741 0 012.609-2.51l3.62 7.623c.117.245.41.35.655.235 0 0 .004 0 .004-.003l1.73-.847a.492.492 0 00.27-.521L18.084 9.318c.844-.773 4.158-3.799 4.45-4.06 1.372-1.238 1.453-2.797.219-4.169" fill="#313235" fill-rule="nonzero"/></svg>