<svg width="64" height="64" xmlns="http://www.w3.org/2000/svg"><path d="M45.93 23.386a1.309 1.309 0 00-.413 1.174l4.41 28.074-2.545 1.246-9.825-20.715a1.332 1.332 0 00-.923-.726 1.295 1.295 0 00-1.138.305 163.752 163.752 0 00-8.381 7.978c-2.537 2.554-4.536 4.571-8.166 7.359-.35.269-.547.699-.51 1.147l.752 9.734-2.106 1.013-5.396-9.08a1.295 1.295 0 00-.404-.421l-8.157-5.36L4.24 43.41l9.062.663c.44.036.87-.161 1.13-.511 2.697-3.487 4.741-5.477 7.332-7.995 2.169-2.107 4.616-4.491 8.094-8.346a1.32 1.32 0 00-.422-2.07l-20.571-9.51 1.631-2.6 27.967 4.114c.421.054.86-.09 1.147-.403 4.338-4.688 11.043-11.877 11.715-12.477 1.273-1.148 2.564-1.668 3.792-1.632 1.246.063 2.456.744 3.603 2.017 2.295 2.546 2.16 5.11-.385 7.404-.887.798-12.406 11.321-12.406 11.321M60.675 2.904C59.07 1.12 57.197.125 55.26.018c-1.946-.135-3.909.69-5.683 2.295-.897.806-9.152 9.698-11.411 12.145l-28.128-4.14a1.363 1.363 0 00-1.3.6l-2.886 4.589a1.318 1.318 0 00.565 1.9l20.293 9.385a158.716 158.716 0 01-6.776 6.902c-2.528 2.456-4.553 4.42-7.144 7.718l-9.134-.664a1.299 1.299 0 00-1.192.592l-2.25 3.433a1.315 1.315 0 00.377 1.82l8.999 5.916 5.853 9.85c.35.583 1.085.807 1.694.512l3.998-1.928c.484-.233.78-.744.735-1.281l-.762-9.932c3.415-2.671 5.396-4.661 7.87-7.153 1.829-1.846 3.873-3.908 6.956-6.696l9.654 20.33a1.32 1.32 0 001.748.627s.009 0 .009-.009l4.616-2.259a1.31 1.31 0 00.717-1.389l-4.455-28.334A5437.246 5437.246 0 0160.092 14.02c3.657-3.299 3.872-7.458.583-11.115" fill="#313235" fill-rule="nonzero"/></svg>