<svg width="24" height="24" viewBox="0 0 24 24" xmlns="http://www.w3.org/2000/svg"><path d="M17.05.017a3.042 3.042 0 013.04 3.038v17.567a3.043 3.043 0 01-3.04 3.035H6.26A3.264 3.264 0 013 20.397V2.945A2.932 2.932 0 015.928.017H17.05zM5.928.723A2.22 2.22 0 003.709 2.94v17.452a2.554 2.554 0 002.552 2.552h10.79c.126 0 .25-.01.37-.03V.755c-.12-.019-.244-.029-.37-.029H5.927V.723zm13.451 15.085h-1.253v6.873a2.332 2.332 0 001.254-2.066l-.001-4.807zm-6.987-3.28c1.008 0 1.835.309 2.396.89.515.538.787 1.278.787 2.145v1.187a.367.367 0 01-.367.366H6.035a.37.37 0 01-.366-.366v-1.187c0-.867.272-1.61.786-2.145.562-.584 1.389-.89 2.397-.89h3.54zm.003.73H8.852c-1.56 0-2.45.84-2.45 2.305v.82h8.443v-.82c0-1.466-.894-2.306-2.45-2.306zm6.984-4.687h-1.253v6.53h1.253v-6.53zm-8.755-2.615c1.801 0 2.796.992 2.796 2.797-.003 1.795-.995 2.786-2.796 2.786-1.799 0-2.79-.991-2.79-2.786 0-1.802.991-2.797 2.79-2.797zm0 .706c-.69 0-1.21.168-1.55.498-.353.34-.531.874-.531 1.59 0 .716.178 1.25.528 1.586.34.326.86.494 1.55.494.688 0 1.213-.164 1.555-.494.353-.34.532-.874.532-1.586 0-.716-.179-1.25-.532-1.59-.342-.33-.863-.498-1.552-.498zM18.127.99l-.001 6.875h1.253v-4.81c0-.896-.508-1.676-1.252-2.065z" fill="#313235" fill-rule="nonzero"/></svg>