<svg width="24" height="24" viewBox="0 0 24 24" xmlns="http://www.w3.org/2000/svg"><path d="M12.39 22.639h-.04c-2.337 0-4.168-.646-5.436-1.913-1.277-1.277-1.926-3.13-1.936-5.502-.013-4.555 5.503-11.916 7.358-14.01 1.862 2.097 7.409 9.462 7.422 13.966.01 4.793-2.605 7.445-7.368 7.459M12.682.145A.491.491 0 0012.336 0a.503.503 0 00-.346.145C10.36 1.785 3.983 10.037 4 15.227c.007 2.605.776 4.75 2.222 6.198 1.439 1.439 3.556 2.202 6.128 2.202h.04c5.237-.017 8.356-3.173 8.34-8.45-.01-5.133-6.414-13.385-8.048-15.032" fill="#313235" fill-rule="nonzero"/></svg>