<svg width="24" height="24" viewBox="0 0 24 24" xmlns="http://www.w3.org/2000/svg"><path d="M22.118 19.79a.514.514 0 00.52-.504V7.85H.986v11.436c0 .279.232.504.52.504h20.613zM1.506 3.985a.516.516 0 00-.521.504V6.9h21.654V4.49a.512.512 0 00-.521-.504H1.506zm20.612-.955c.83 0 1.506.656 1.506 1.46v14.8c0 .802-.676 1.458-1.506 1.458H1.506c-.83 0-1.506-.656-1.506-1.459V4.49C0 3.686.676 3.03 1.506 3.03h20.612zM5.028 6.176c-.38 0-.685-.299-.685-.662 0-.366.306-.665.686-.665.38 0 .685.296.685.665a.675.675 0 01-.685.662zm2.058 0c-.38 0-.683-.299-.683-.662 0-.366.306-.665.683-.665.38 0 .685.296.685.665a.677.677 0 01-.685.662zm-4.111 0c-.38 0-.686-.299-.686-.662 0-.366.306-.665.686-.665a.67.67 0 01.682.665.672.672 0 01-.682.662zm8.78 8.938c.914 0 1.34-.413 1.34-1.3 0-.888-.426-1.301-1.34-1.301-.915 0-1.342.413-1.342 1.3 0 .888.424 1.301 1.342 1.301zm0-3.556c1.458 0 2.326.844 2.326 2.255 0 1.412-.87 2.256-2.326 2.256-1.46 0-2.326-.844-2.326-2.256 0-1.411.867-2.255 2.326-2.255zm3.334 2.578h.884l-.027-.669-.857.024a.492.492 0 01-.487-.404 2.912 2.912 0 00-.266-.837.467.467 0 01.094-.55l.652-.633-.524-.48-.625.631a.502.502 0 01-.565.091 3.11 3.11 0 00-.867-.259.48.48 0 01-.414-.47v-.854l-.692.024.023.83a.48.48 0 01-.413.47c-.323.05-.612.138-.864.26a.501.501 0 01-.568-.092l-.652-.631-.497.507.652.605a.46.46 0 01.08.572c-.097.168-.198.494-.252.816a.486.486 0 01-.487.4h-.88l.023.67.857-.024c.242 0 .447.171.487.4.054.322.155.652.252.817a.46.46 0 01-.08.571l-.652.632.524.48.625-.631a.508.508 0 01.568-.091c.249.12.538.208.864.259a.48.48 0 01.413.47v.854l.666-.023v-.83a.48.48 0 01.413-.471 3.11 3.11 0 00.868-.26.513.513 0 01.564.092l.653.632.497-.508-.652-.605a.47.47 0 01-.094-.551c.124-.242.212-.525.265-.837a.496.496 0 01.491-.397zm.884-1.6c.531 0 .961.417.961.931v.696c0 .514-.43.931-.96.931h-.485a3.777 3.777 0 01-.128.39l.417.403a.91.91 0 01.283.663c0 .248-.101.484-.283.662l-.524.507a.989.989 0 01-1.368 0l-.417-.403a4.635 4.635 0 01-.4.124v.468c0 .514-.43.93-.961.93h-.713c-.528 0-.961-.416-.961-.93v-.468a3.69 3.69 0 01-.4-.12l-.417.403a.966.966 0 01-.683.275h-.003a.966.966 0 01-.682-.275l-.525-.508a.924.924 0 01-.282-.662c0-.249.1-.484.282-.662l.414-.4a3.414 3.414 0 01-.121-.39h-.48c-.529 0-.962-.417-.962-.931v-.696c0-.514.43-.931.961-.931h.48c.031-.121.071-.259.122-.39l-.414-.4a.924.924 0 01-.282-.662c0-.249.1-.484.282-.662l.525-.508a.966.966 0 01.682-.276h.003c.26 0 .501.098.683.276l.417.403a3.69 3.69 0 01.4-.12v-.468c0-.514.43-.931.961-.931h.716c.531 0 .961.417.961.931v.467c.138.034.273.074.4.125l.417-.404a.989.989 0 011.368 0l.525.508a.91.91 0 01.282.662c0 .249-.101.484-.282.662l-.417.404c.047.124.09.255.127.39h.481v-.014z" fill="#313235" fill-rule="nonzero"/></svg>