<svg width="64" height="64" viewBox="0 0 64 64" xmlns="http://www.w3.org/2000/svg"><path d="M34.49.5a2.284 2.284 0 012.286 2.286v6.498c.009.278.313.484.618.538h.01c2.616.403 4.83 1.085 6.973 2.151.152.072.52.216.77-.018l4.742-4.741a2.332 2.332 0 013.29 0l3.63 3.63a2.332 2.332 0 010 3.29l-4.741 4.741c-.18.198-.144.52-.027.753l.009.01c1.03 2.034 1.747 4.382 2.15 6.99.046.306.27.62.548.62h6.48a2.284 2.284 0 012.286 2.285V34.5a2.284 2.284 0 01-2.286 2.286h-6.48c-.287 0-.502.313-.547.618-.404 2.608-1.13 4.957-2.151 6.992l-.01.009c-.125.233-.16.555.028.753l4.741 4.741a2.332 2.332 0 010 3.29l-3.63 3.63a2.332 2.332 0 01-3.29 0l-4.732-4.733-.01-.017c-.25-.234-.618-.09-.77-.018-2.143 1.057-4.357 1.747-6.974 2.15h-.009c-.296.046-.61.26-.618.539v6.498a2.286 2.286 0 01-2.286 2.268h-4.966a2.284 2.284 0 01-2.286-2.286v-6.48c0-.287-.313-.502-.618-.547-2.609-.403-4.957-1.13-6.992-2.151l-.009-.01c-.233-.125-.555-.16-.753.028l-.009.009-4.732 4.741a2.332 2.332 0 01-3.29 0l-3.63-3.63a2.332 2.332 0 010-3.29l4.733-4.732.017-.01c.216-.232.135-.573.054-.699-.726-1.183-1.685-3.818-2.187-7.054-.045-.287-.278-.61-.538-.618H2.786A2.295 2.295 0 01.5 34.49v-4.966a2.284 2.284 0 012.286-2.286h6.49c.26-.009.492-.331.537-.618.359-2.33 1.183-5.414 2.187-7.054.072-.126.162-.467-.054-.7l-4.741-4.741a2.332 2.332 0 010-3.29l3.63-3.63a2.332 2.332 0 013.29 0l4.741 4.741c.198.189.52.144.753.027l.01-.009c2.034-1.021 4.382-1.747 6.99-2.15.306-.046.62-.27.62-.548v-6.48A2.29 2.29 0 0129.523.5h4.966zm.009 1.775h-4.966a.503.503 0 00-.493.493v6.48c0 1.157-.896 2.134-2.142 2.322-2.42.376-4.59 1.04-6.454 1.981-.986.51-2.133.367-2.85-.359l-.018-.017L12.87 8.46a.547.547 0 00-.762 0l-3.63 3.63a.547.547 0 000 .762l4.732 4.733c.86.86.816 2.115.323 2.913-.753 1.219-1.55 3.845-1.945 6.39-.161 1.032-1.03 2.134-2.322 2.134h-6.48a.503.503 0 00-.493.493v4.966c0 .269.224.484.493.493h6.48c.968 0 2.107.753 2.322 2.133.394 2.546 1.192 5.181 1.945 6.391.493.798.538 2.053-.323 2.913l-4.732 4.733a.547.547 0 000 .762l3.63 3.63a.547.547 0 00.762 0l4.733-4.732c.708-.726 1.855-.87 2.841-.359 1.864.941 4.034 1.605 6.454 1.981 1.237.188 2.142 1.165 2.142 2.322v6.48c0 .27.224.484.493.493H34.5a.503.503 0 00.493-.493v-6.48c0-1.148.896-2.125 2.124-2.322h.01c2.428-.376 4.481-1.004 6.462-1.98.798-.395 1.972-.512 2.841.367l.018.018 4.715 4.705a.547.547 0 00.762 0l3.63-3.63a.547.547 0 000-.762l-4.732-4.733c-.726-.726-.87-1.873-.359-2.85.941-1.864 1.605-4.034 1.981-6.454.188-1.237 1.165-2.142 2.322-2.142h6.48a.503.503 0 00.493-.493v-4.966a.503.503 0 00-.493-.493h-6.48c-1.157 0-2.134-.896-2.322-2.142-.376-2.42-1.04-4.59-1.981-6.454-.51-.986-.367-2.124.359-2.85l.017-.018 4.715-4.706a.547.547 0 000-.762l-3.63-3.63a.547.547 0 00-.762 0l-4.733 4.732c-.87.879-2.043.762-2.841.368-1.972-.977-4.034-1.605-6.463-1.981h-.009c-1.237-.197-2.124-1.165-2.124-2.322v-6.48a.503.503 0 00-.493-.493zm-2.492 17.963c3.729 0 6.642.977 8.632 2.895 2.07 1.999 3.12 4.975 3.12 8.865 0 3.89-1.05 6.866-3.12 8.865-1.999 1.927-4.903 2.895-8.632 2.895-3.738 0-6.642-.977-8.632-2.895-2.07-1.999-3.12-4.975-3.12-8.865 0-3.89 1.05-6.866 3.12-8.865 1.999-1.918 4.903-2.895 8.632-2.895zm0 1.801c-3.254 0-5.746.807-7.395 2.394-1.703 1.65-2.573 4.195-2.573 7.574 0 3.38.87 5.925 2.573 7.574 1.65 1.587 4.132 2.394 7.395 2.394s5.746-.807 7.395-2.394c1.703-1.65 2.573-4.195 2.573-7.574 0-3.38-.861-5.925-2.573-7.565-1.658-1.596-4.141-2.403-7.395-2.403z" fill="#313235" fill-rule="nonzero"/></svg>