<svg width="24" height="24" viewBox="0 0 24 24" xmlns="http://www.w3.org/2000/svg"><path d="M12.746 0c.474 0 .857.383.857.857v2.437c.004.104.118.182.232.202h.004c.981.151 1.811.407 2.615.807.057.026.195.08.289-.007l.003-.004 1.775-1.774a.874.874 0 011.234 0l1.361 1.361c.34.343.34.894 0 1.234l-1.775 1.774-.003.004c-.067.074-.054.195-.01.282l.003.003c.387.763.656 1.644.807 2.622.017.115.1.232.205.232h2.43c.474 0 .857.383.857.857v1.863a.856.856 0 01-.857.857h-2.43c-.108 0-.188.117-.205.232-.151.978-.424 1.858-.807 2.622l-.003.003c-.047.087-.06.208.01.282l.003.004 1.775 1.774c.34.343.34.894 0 1.234l-1.361 1.361a.874.874 0 01-1.234 0l-1.775-1.774-.003-.007c-.094-.088-.232-.034-.29-.007a8.747 8.747 0 01-2.614.807h-.004c-.11.017-.228.097-.232.201v2.437a.857.857 0 01-.857.85h-1.862a.856.856 0 01-.857-.856v-2.43c0-.108-.118-.189-.232-.206-.978-.15-1.859-.423-2.622-.806l-.003-.004c-.088-.047-.209-.06-.283.01l-.003.004-1.775 1.778a.874.874 0 01-1.233 0l-1.362-1.361a.874.874 0 010-1.234l1.775-1.775.007-.003c.08-.088.05-.215.02-.262-.272-.444-.632-1.432-.82-2.646-.017-.107-.104-.228-.202-.232H.857A.86.86 0 010 12.746v-1.862c0-.474.383-.857.857-.857h2.434c.097-.003.185-.124.201-.232.135-.874.444-2.03.82-2.645.027-.047.061-.175-.02-.263L2.514 5.11a.874.874 0 010-1.233l1.362-1.362a.874.874 0 011.233 0l1.778 1.778c.074.071.195.054.283.01l.003-.003c.763-.383 1.644-.655 2.622-.807.114-.016.232-.1.232-.205V.857c0-.474.383-.854.857-.857h1.862zm.004.666h-1.863c-.1 0-.181.084-.184.184v2.43c0 .434-.337.8-.804.871-.907.141-1.72.39-2.42.743-.37.192-.8.138-1.069-.134l-.007-.007L4.64 2.985a.205.205 0 00-.286 0L2.992 4.346a.205.205 0 000 .286l1.774 1.775c.323.322.306.793.121 1.092-.282.457-.581 1.442-.729 2.397-.06.386-.387.8-.87.8H.857c-.102 0-.182.084-.186.185v1.862c0 .1.084.181.185.185h2.43c.363 0 .79.282.871.8.148.954.447 1.943.73 2.396.184.3.201.77-.122 1.093l-1.774 1.775a.205.205 0 000 .285l1.36 1.362a.205.205 0 00.287 0l1.774-1.775c.266-.272.696-.326 1.066-.135.7.353 1.513.602 2.42.743.464.07.804.437.804.87v2.431c0 .1.084.182.184.185h1.863c.1 0 .181-.084.184-.185v-2.43c0-.43.337-.797.797-.87h.003c.911-.142 1.681-.377 2.424-.744.3-.147.74-.191 1.066.138l.006.007 1.768 1.765a.205.205 0 00.286 0l1.361-1.362a.205.205 0 000-.285l-1.774-1.775c-.273-.272-.326-.703-.135-1.07.353-.698.602-1.512.743-2.42.07-.463.437-.803.87-.803h2.43c.102 0 .182-.084.186-.185v-1.862c0-.1-.084-.181-.185-.185h-2.43c-.434 0-.8-.336-.871-.803-.141-.907-.39-1.72-.743-2.42-.191-.37-.138-.797.135-1.069l.006-.007 1.768-1.764a.205.205 0 000-.286l-1.361-1.361a.205.205 0 00-.286 0l-1.774 1.774c-.327.33-.767.286-1.066.138-.74-.366-1.513-.602-2.424-.743h-.003c-.464-.074-.797-.437-.797-.87V.85c0-.101-.084-.182-.184-.185zm-.935 6.736c1.398 0 2.49.366 3.237 1.085.777.75 1.17 1.866 1.17 3.325s-.393 2.575-1.17 3.324c-.75.723-1.839 1.086-3.237 1.086-1.402 0-2.49-.367-3.237-1.086-.776-.75-1.17-1.865-1.17-3.324 0-1.46.394-2.575 1.17-3.325.75-.719 1.839-1.085 3.237-1.085zm0 .675c-1.22 0-2.154.303-2.773.898-.639.618-.965 1.573-.965 2.84s.326 2.222.965 2.84c.619.595 1.55.898 2.773.898 1.224 0 2.155-.303 2.773-.898.639-.618.965-1.573.965-2.84s-.323-2.222-.965-2.837c-.622-.598-1.553-.9-2.773-.9z" fill="#5CB615" fill-rule="nonzero"/></svg>