<svg width="64" height="64" xmlns="http://www.w3.org/2000/svg"><path d="M46.44 52.49c3.272 0 13.92-.976 13.92-13.606 0-11.868-9.393-13.418-13.436-13.526a1.323 1.323 0 01-1.237-.968c-2.85-10.577-14.834-11.115-17.2-11.115-4.196 0-17.865 1.21-17.865 16.78l.018.358c0 .583-.386 1.103-.96 1.255-4.687 1.327-7.063 4.769-7.063 10.228 0 9.725 7.62 10.774 10.891 10.774l32.932-.18zm1.524-29.687c4.536.341 15.032 2.6 15.032 16.09 0 15.435-13.786 16.215-16.547 16.215l-32.914.18C6.992 55.287 0 51.773 0 41.904c0-8.067 4.643-11.214 8.004-12.433.359-17.891 17.103-18.805 20.491-18.805 2.636 0 15.704.6 19.47 12.136zM31.498 38.095c2.447 0 3.585-1.13 3.585-3.558 0-2.43-1.138-3.568-3.585-3.568s-3.585 1.13-3.585 3.568c0 2.42 1.138 3.558 3.585 3.558zm0-9.743c3.89 0 6.212 2.312 6.212 6.176 0 3.863-2.322 6.176-6.212 6.176-3.89 0-6.212-2.313-6.212-6.176 0-3.864 2.322-6.176 6.212-6.176zm8.91 7.063h2.357l-.071-1.837-2.286.071a1.311 1.311 0 01-1.3-1.102c-.143-.86-.376-1.632-.708-2.286a1.296 1.296 0 01.251-1.506l1.748-1.73L39 25.708l-1.677 1.73a1.336 1.336 0 01-1.514.25c-.709-.35-1.444-.573-2.313-.708a1.31 1.31 0 01-1.112-1.29v-2.34l-1.846.072.063 2.277c0 .645-.466 1.192-1.112 1.29-.87.135-1.64.377-2.303.7a1.31 1.31 0 01-1.515-.251l-1.748-1.73-1.327 1.389 1.74 1.658a1.29 1.29 0 01.214 1.569c-.25.457-.529 1.353-.672 2.24a1.304 1.304 0 01-1.3 1.094h-2.357l.063 1.838 2.285-.063c.646 0 1.201.466 1.3 1.103.143.878.412 1.783.672 2.24.287.511.197 1.157-.215 1.57l-1.739 1.73 1.399 1.317 1.667-1.73a1.324 1.324 0 011.515-.251 7.976 7.976 0 002.303.708 1.31 1.31 0 011.112 1.29v2.34l1.784-.063v-2.303a1.31 1.31 0 011.111-1.291 8.018 8.018 0 002.313-.708 1.341 1.341 0 011.514.25l1.748 1.73 1.327-1.389-1.748-1.667a1.296 1.296 0 01-.25-1.506c.33-.654.564-1.425.707-2.285a1.344 1.344 0 011.318-1.103zm2.357-4.383a2.554 2.554 0 012.564 2.546v1.9a2.554 2.554 0 01-2.564 2.546h-1.29a9.128 9.128 0 01-.341 1.057l1.111 1.103a2.52 2.52 0 01.753 1.81 2.55 2.55 0 01-.753 1.811l-1.398 1.39a2.586 2.586 0 01-3.648 0l-1.112-1.103c-.34.134-.699.242-1.066.34v1.273a2.554 2.554 0 01-2.564 2.546h-1.91a2.554 2.554 0 01-2.563-2.546v-1.281a12.36 12.36 0 01-1.066-.332l-1.112 1.102a2.556 2.556 0 01-1.82.753h-.008c-.69 0-1.336-.26-1.829-.753l-1.398-1.389a2.55 2.55 0 01-.753-1.81c0-.69.269-1.336.762-1.82l1.093-1.094a9.601 9.601 0 01-.322-1.075H20.24a2.56 2.56 0 01-2.564-2.546v-1.9c0-1.408 1.156-2.546 2.564-2.546h1.29c.081-.332.189-.708.323-1.076l-1.102-1.093a2.55 2.55 0 010-3.621l1.398-1.39a2.576 2.576 0 011.829-.753h.009c.69 0 1.335.27 1.82.753l1.11 1.103c.341-.126.7-.242 1.067-.332v-1.282c0-1.407 1.157-2.545 2.564-2.545h1.91a2.554 2.554 0 012.563 2.545v1.282c.367.099.726.206 1.066.34l1.112-1.102a2.586 2.586 0 013.648 0l1.398 1.39c.493.484.753 1.129.753 1.81a2.55 2.55 0 01-.753 1.81l-1.111 1.103c.125.34.242.7.34 1.058h1.291v.018z" fill="#313235" fill-rule="nonzero"/></svg>