<svg width="24" height="24" viewBox="0 0 24 24" xmlns="http://www.w3.org/2000/svg"><path d="M2.718 19.09c2.074-2.508 1.865-6.213 1.852-6.36V8.08c0-1.139.164-2.147.48-3.025l12.79 14.037-15.122-.003zm11.042 2.85c-.427.463-1.073.702-1.926.702-.854 0-1.5-.235-1.926-.696-.538-.585-.626-1.415-.632-1.869h5.119c-.01.46-.108 1.281-.635 1.862zM6.566 2.762c2.105-1.916 5.207-1.734 5.237-1.731a.248.248 0 00.07 0c.031-.003 3.134-.185 5.238 1.731 1.32 1.203 1.993 2.992 1.993 5.318v4.618c-.01.178-.222 3.883 1.852 6.39h-1.764L5.518 4.081a5.393 5.393 0 011.048-1.318zm15.97 20l-2.45-2.69h2.07a.504.504 0 00.474-.325.489.489 0 00-.154-.548c-2.609-2.08-2.373-6.397-2.37-6.47V8.08c0-2.611-.783-4.645-2.323-6.043-2.32-2.11-5.546-2.01-5.946-1.987-.4-.023-3.627-.12-5.953 1.99-.413.377-.766.8-1.072 1.268L1.948.165a.514.514 0 00-.713-.04.484.484 0 00-.05.682l.01.01 3.116 3.418c-.49 1.093-.75 2.373-.75 3.842v4.68c.004.043.239 4.359-2.37 6.44a.48.48 0 00-.154.548.505.505 0 00.474.326h6.753c.003.601.128 1.69.884 2.517.625.686 1.526 1.032 2.682 1.032 1.153 0 2.054-.346 2.68-1.028.756-.824.887-1.91.893-2.521h3.331l3.046 3.344a.511.511 0 00.712.04.483.483 0 00.054-.679c0-.003-.007-.006-.01-.013z" fill="#313235" fill-rule="nonzero"/></svg>