<svg width="64" height="64" viewBox="0 0 64 64" xmlns="http://www.w3.org/2000/svg"><path d="M31.516.054c.484 0 .914.296 1.174.807l30.082 60.082c.242.484.233.995-.018 1.408-.242.412-.7.645-1.246.645H1.533c-.547 0-.995-.233-1.255-.645-.251-.413-.26-.924-.018-1.408L30.35.861c.252-.511.682-.807 1.166-.807zm.009 2.303L2.017 61.275h58.998L31.525 2.357zm0 50.08c.61 0 .968.359.968.968 0 .61-.35.968-.968.968-.619 0-.968-.358-.968-.968s.358-.968.968-.968zm.063-33.165c.493 0 .896.403.896.896v26.245a.893.893 0 01-.896.897.899.899 0 01-.897-.897V20.168c0-.493.404-.896.897-.896z" fill="#313235" fill-rule="nonzero"/></svg>