<svg width="64" height="64" xmlns="http://www.w3.org/2000/svg"><path d="M11.106 50.886h47.453c-5.405-6.696-4.858-16.591-4.831-17.066V21.486c0-6.23-1.757-11.008-5.2-14.208-5.503-5.127-13.534-4.625-13.615-4.625h-.08c-.027 0-.054.027-.108 0-.502-.027-11.993-.654-16.744 8.901h.448c3.469.08 16.96 1.443 16.96 17.73 0 16.332-13.491 17.596-16.88 17.64-.313.027-.68.027-1.075.027h-.547a25.004 25.004 0 01-3.253-.34 19.36 19.36 0 01-2.528 4.275zm28.71 7.62c1.39-1.578 1.65-3.756 1.65-4.984H28.164c0 1.21.233 3.415 1.649 4.983 1.102 1.237 2.779 1.865 4.984 1.865 2.24 0 3.926-.628 5.02-1.865zm-37.19-29.33c0 13.473 10.004 15.077 14.306 15.158h.502c.368 0 .708 0 1.022-.027 4.303-.08 14.306-1.676 14.306-15.023 0-13.32-10.057-14.996-14.387-15.104-.394-.026-.842-.026-1.281-.026h-.314c-4.258.053-14.154 1.577-14.154 15.022zm59.895 22.006c.421.359.583.95.394 1.47-.179.529-.68.87-1.228.87H44.101c0 1.63-.34 4.517-2.313 6.731-1.631 1.81-3.962 2.752-6.982 2.752-2.994 0-5.352-.941-6.983-2.752-1.945-2.205-2.286-5.118-2.286-6.722H7.951a1.312 1.312 0 01-1.309-1.318c0-.395.18-.771.493-1.013 1.578-1.309 2.886-3.075 3.881-5.199C6.015 44.406 0 40.201 0 29.176c0-14.395 10.183-17.093 15.068-17.541C20.025-.368 33.676 0 34.806.027c.815-.054 9.349-.421 15.516 5.324 3.988 3.73 6.041 9.143 6.041 16.126V33.89c-.036.198-.636 11.725 6.158 17.291zM27.823 29.176c0 .735-.574 1.31-1.309 1.31h-7.511v7.538c0 .735-.6 1.308-1.309 1.308a1.293 1.293 0 01-1.309-1.308v-7.539H8.874a1.31 1.31 0 01-1.309-1.309c0-.717.6-1.308 1.309-1.308h7.511v-7.44a1.31 1.31 0 011.31-1.309c.707 0 1.308.6 1.308 1.309v7.43h7.511c.735 0 1.309.601 1.309 1.318z" fill="#313235" fill-rule="nonzero"/></svg>