<svg width="64" height="64" viewBox="0 0 64 64" xmlns="http://www.w3.org/2000/svg"><path d="M20.982 47.191a1.31 1.31 0 01-1.309 1.309 1.316 1.316 0 01-1.309-1.309V38.9h-8.237a1.32 1.32 0 01-1.318-1.318 1.32 1.32 0 011.318-1.317h8.237V28.08a1.31 1.31 0 011.31-1.309c.716 0 1.308.592 1.308 1.309v8.184h8.255a1.32 1.32 0 011.318 1.317 1.32 1.32 0 01-1.318 1.318h-8.255v8.291zm33.712 11.994c4.096-1.237 6.176-2.905 6.176-4.966V43.803c-1.408 1.076-3.227 1.99-5.387 2.644-3.828 1.157-8.847 1.784-14.127 1.784-1.604 0-3.218-.063-4.804-.18-3.407 6.32-9.753 8.113-13.607 8.606 1.022.977 2.707 1.837 5.001 2.528C31.56 60.26 36.31 60.86 41.32 60.86c5.01.009 9.762-.592 13.374-1.676zm-35.855-4.957h.565c.386 0 .771 0 1.103-.01C35.09 53.95 36.229 41.5 36.229 37.69c0-14.665-11.061-16.52-15.812-16.628a66.588 66.588 0 00-1.39-.017h-.33c-4.68.044-15.562 1.73-15.562 16.528C3.126 52.4 14.115 54.156 18.84 54.228zm9.099-49.425c-3.425 1.03-5.495 2.429-6.024 4.051.009.018.027.036.036.063.529 1.604 2.617 2.994 6.023 4.024 3.586 1.076 8.337 1.677 13.374 1.677 5.038 0 9.788-.6 13.374-1.677 3.316-1.003 5.387-2.348 5.978-3.908.01-.027.036-.044.054-.071-.484-1.694-2.51-3.093-6.06-4.16-3.585-1.075-8.335-1.676-13.382-1.676-5.037 0-9.788.6-13.373 1.677zm10.415 27.805c.305 1.532.502 3.19.502 5.073 0 3.074-.466 5.63-1.21 7.798 6.203.377 12.603-.206 17.085-1.55 3.55-1.067 5.476-2.716 6.14-3.953V28.269c-1.399 1.076-3.227 1.99-5.387 2.644-3.837 1.157-8.847 1.784-14.127 1.784a38.072 38.072 0 01-3.003-.09zM21.762 12.825v5.674c4.06.34 12.71 2.187 15.883 11.402.01 0 .027-.01.036 0 .681.116 1.98.179 3.675.179 5.029 0 9.78-.6 13.374-1.676 3.558-1.076 5.476-2.716 6.14-3.953V12.879c-1.318 1.03-3.11 1.9-5.396 2.59-3.819 1.156-8.838 1.784-14.127 1.784-5.288 0-10.308-.636-14.127-1.784-2.321-.708-4.132-1.586-5.458-2.644zM55.447 2.293c5.342 1.604 8.05 4.123 8.05 7.484V54.22c0 3.361-2.708 5.88-8.041 7.484-3.855 1.157-8.874 1.793-14.145 1.793-5.261 0-10.272-.636-14.126-1.784-3.855-1.165-6.257-2.76-7.368-4.858h-1.013C14.94 56.8.5 55.402.5 37.574c0-17.811 14.315-19.129 18.16-19.165h.475V9.777c0-.529.072-1.048.215-1.541l.01-.01c.743-2.59 3.379-4.589 7.825-5.924C31.012 1.136 36.023.5 41.31.5c5.298 0 10.317.636 14.136 1.793z" fill="#313235" fill-rule="nonzero"/></svg>