<svg width="24" height="24" viewBox="0 0 24 24" xmlns="http://www.w3.org/2000/svg"><path d="M19.627 22.602v-2.343H4.02v2.343h15.607zm-9.005-6.69h2.366l-1.19-3.327-1.176 3.328zm2.743 1.056h-3.12l-.79 2.232h4.706l-.796-2.232zM10.5 7.65L6.397 19.2h1.986l2.938-8.316.01-.017c.014-.033.034-.06.054-.09a.715.715 0 01.054-.085l.067-.05a.488.488 0 01.097-.064l.017-.01c.024-.01.047-.007.07-.01.038-.007.071-.017.108-.017.034 0 .068.01.101.014.027.006.05.003.074.013.007.003.01.01.017.014.034.013.057.036.087.057.024.016.05.033.074.053.02.024.034.05.054.078.02.03.044.057.057.094l.01.017 2.975 8.316H17.2L13.092 7.644c-.37.158-.796.248-1.297.248-.5.004-.928-.084-1.294-.242zm.007-3.963c-.276.276-.414.743-.414 1.375 0 .437.07.79.205 1.059.057.121.125.229.209.313.084.087.191.154.312.211.252.128.575.192.972.192.403 0 .726-.067.978-.195.117-.057.225-.124.312-.212.084-.084.152-.191.212-.312.131-.273.205-.622.205-1.06 0-.631-.141-1.095-.417-1.374-.269-.272-.702-.41-1.29-.41-.585.007-1.019.144-1.284.413zM20.13 19.2c.28 0 .504.239.504.528v3.398a.515.515 0 01-.504.528H3.513a.515.515 0 01-.505-.528v-3.398c0-.29.226-.528.505-.528h1.805L9.654 7.002c-.373-.474-.572-1.116-.572-1.936 0-.932.242-1.65.723-2.135.464-.467 1.13-.706 1.987-.706.857 0 1.526.239 1.99.706.484.487.726 1.207.726 2.135 0 .82-.199 1.458-.572 1.936l4.336 12.201h1.86V19.2zM1.008 5.062c0 1.815.46 3.197 1.368 4.118a.542.542 0 01.014.746.49.49 0 01-.713.013C.565 8.817 0 7.176 0 5.062S.565 1.308 1.677.182a.484.484 0 01.713.013.542.542 0 01-.014.746c-.907.921-1.368 2.306-1.368 4.121zm4.45 3.325a.492.492 0 01-.349-.148C4.38 7.503 4.01 6.434 4.01 5.062c0-1.368.37-2.44 1.1-3.176a.487.487 0 01.712.01.546.546 0 01-.01.746c-.528.531-.794 1.348-.794 2.42 0 1.072.266 1.886.79 2.417a.542.542 0 01.014.746.498.498 0 01-.363.162zM21.947.182c1.113 1.126 1.678 2.77 1.678 4.88 0 2.111-.565 3.755-1.678 4.877a.498.498 0 01-.35.148.496.496 0 01-.362-.16.546.546 0 01.013-.747c.908-.918 1.368-2.3 1.368-4.118 0-1.815-.46-3.2-1.368-4.12a.546.546 0 01-.013-.747.49.49 0 01.712-.013zm-4.188 8.04a.546.546 0 01.013-.746c.525-.528.794-1.342.794-2.414 0-1.075-.266-1.886-.794-2.42a.546.546 0 01-.013-.746.487.487 0 01.713-.014c.729.74 1.099 1.809 1.099 3.18 0 1.372-.37 2.437-1.103 3.177a.494.494 0 01-.35.144.482.482 0 01-.359-.161z" fill="#5CB615" fill-rule="nonzero"/></svg>