<svg width="64" height="64" xmlns="http://www.w3.org/2000/svg"><path d="M31.49 60.37c-8.938 0-15.804-2.143-20.6-6.355L54.016 10.89c4.212 4.804 6.355 11.661 6.355 20.616 0 19.155-9.717 28.863-28.88 28.863m0-57.744c8.99 0 15.874 2.16 20.67 6.41L9.034 52.158c-4.248-4.795-6.409-11.68-6.409-20.661 0-19.155 9.708-28.872 28.863-28.872m0-2.626C11.59 0 0 10.048 0 31.507c0 21.459 11.59 31.49 31.49 31.49 19.898 0 31.506-10.031 31.506-31.49C62.996 10.048 51.388 0 31.49 0" fill="#313235" fill-rule="nonzero"/></svg>