<svg width="24" height="24" viewBox="0 0 24 24" xmlns="http://www.w3.org/2000/svg"><path d="M22.118 3.03c.83 0 1.506.656 1.506 1.46v14.8c0 .802-.676 1.458-1.506 1.458H1.506c-.83 0-1.506-.656-1.506-1.459V4.49C0 3.686.676 3.03 1.506 3.03h20.612zm.52 4.82H.986v11.44c0 .278.232.503.52.503H14.8a.944.944 0 01.255-.467l.508-.49a4.059 4.059 0 01-.168-.539h-.612c-.568 0-1.028-.447-1.028-.998v-.796c0-.548.46-.999 1.028-.999h.612c.04-.165.094-.356.168-.541l-.508-.49a.99.99 0 01-.302-.71c0-.272.108-.521.306-.713l.598-.581c.39-.38 1.08-.38 1.47 0l.51.494a4.58 4.58 0 01.551-.168v-.592c0-.55.464-.998 1.029-.998h.823c.568 0 1.029.447 1.029.998v.592c.192.047.373.1.551.168l.511-.497c.141-.138.32-.229.508-.27V7.85zm-3.421 4.31l-.044 1.025a.48.48 0 01-.413.47 3.67 3.67 0 00-1.015.303.506.506 0 01-.569-.09l-.75-.727-.675.582.75.793a.465.465 0 01.08.571c-.134.226-.245.65-.299.962a.486.486 0 01-.487.4H14.78l-.044.84 1.059.044c.242 0 .447.168.487.4.054.316.165.733.3.961a.47.47 0 01-.081.575l-.538.518h6.155v.003a.514.514 0 00.52-.504v-5.933l-.56.518a.502.502 0 01-.565.09 3.652 3.652 0 00-1.016-.306.477.477 0 01-.413-.47v-.982l-.867-.043zm.407 2.218c1.626 0 2.598.941 2.598 2.518 0 1.576-.972 2.517-2.598 2.517-1.627 0-2.599-.94-2.599-2.517s.972-2.518 2.599-2.518zm0 .958c-1.086 0-1.614.511-1.614 1.563s.528 1.563 1.614 1.563c1.085 0 1.613-.51 1.613-1.563 0-1.052-.528-1.563-1.613-1.563zM8.659 10.9c.679 0 1.11.094 1.388.356.235.216.35.552.35 1.016 0 .463-.108.81-.323 1.052-.252.285-.645.416-1.217.416h-.696v1.496h-.988V10.9H8.66zm-3.556 0l1.563 4.333h-1.06l-.359-1.09H3.842l-.336 1.09h-.941l1.448-4.333h1.09zm6.991 0v4.333h-.988v-4.333h.988zm-7.56 1.083h-.013l-.45 1.445h.937l-.474-1.445zm4.084-.367h-.463v1.382h.49c.316 0 .45-.044.575-.165.114-.114.172-.3.172-.551 0-.236-.05-.407-.165-.515-.121-.107-.303-.15-.609-.15zm13.5-7.63H1.506a.514.514 0 00-.521.504V6.9h21.654V4.49a.512.512 0 00-.521-.504zm-17.09.864c.38 0 .686.296.686.662a.673.673 0 01-.685.662c-.38 0-.686-.3-.686-.662 0-.366.306-.662.686-.662zm2.058 0a.67.67 0 01.682.662.67.67 0 01-.682.662c-.38 0-.686-.3-.686-.662 0-.366.306-.662.686-.662zm-4.111 0c.38 0 .686.296.686.662a.673.673 0 01-.686.662c-.38 0-.686-.3-.686-.662 0-.366.306-.662.686-.662z" fill="#5CB615" fill-rule="nonzero"/></svg>