<svg width="64" height="64" viewBox="0 0 64 64" xmlns="http://www.w3.org/2000/svg"><path d="M47.685 43.708l-13.771.092c-.123 0-.215.062-.307.092V34.47c.061-.062.153-.093.215-.185l7.131-9.732c.43-.585.308-1.447-.276-1.878-.584-.432-1.445-.308-1.875.277l-5.165 7.052v-5.482a1.34 1.34 0 00-1.29-1.386 1.34 1.34 0 00-1.384 1.294v13.643l-6.24-6.344a1.316 1.316 0 00-1.875 0 1.359 1.359 0 000 1.91l7.961 8.13c.031.03.093.03.123.092v1.97H14.241c-3.32 0-11.067-1.077-11.067-11.117 0-5.636 2.429-9.177 7.163-10.532.584-.154.953-1.047.953-1.663C11.29 4.473 25.184 3.21 29.426 3.21c2.398 0 14.57.554 17.46 11.456.154.586.676.986 1.26 1.017 4.089.123 13.649 1.724 13.649 13.95.03 13.058-10.79 14.075-14.11 14.075m1.537-30.705C45.411 1.116 32.132.5 29.457.5c-3.443 0-20.473.924-20.811 19.371C5.203 21.134.5 24.367.5 32.713.5 42.907 7.6 46.51 14.24 46.51h16.692v16.753c.062.74.707 1.294 1.445 1.232a1.376 1.376 0 001.23-1.232V46.45c.123.03.215.092.338.092l13.74-.092c7.747 0 16.815-4.404 16.815-16.815 0-13.951-10.667-16.292-15.278-16.63" fill="#313235" fill-rule="nonzero"/></svg>