<svg width="24" height="24" viewBox="0 0 24 24" xmlns="http://www.w3.org/2000/svg"><path d="M18.595 9.59a.477.477 0 00.037.797c.676.406 1.002 1.079 1.002 2.053 0 1.26-.572 2.054-1.701 2.353-.225.06-.37.34-.37.558 0 3.667-3.405 3.953-4.45 3.953h-.014v-5.633c.024-.024.057-.037.077-.064l2.767-3.523a.47.47 0 00-.077-.662l-.03-.024a.546.546 0 00-.727.101l-2.006 2.558V9.09c0-.269-.232-.487-.518-.487-.286 0-.518.218-.518.487v6.857L9.64 13.647a.542.542 0 00-.732-.003.468.468 0 00-.03.662c.01.01.016.02.026.027l3.116 2.954c.014.014.03.017.044.027v1.883c-1.126-.192-2.74-.76-3.237-2.505a.508.508 0 00-.488-.36c-.994-.023-3.304-.376-3.304-3.152 0-1.123.37-1.96 1.1-2.494a.48.48 0 00.198-.41.49.49 0 00-.239-.39c-.672-.404-1.002-1.076-1.002-2.054 0-1.27.555-2.04 1.705-2.353.221-.06.366-.336.366-.555 0-3.667 3.405-3.953 4.45-3.953.83 0 3.597.189 4.286 2.605.06.206.256.353.484.36 1.237.04 3.311.501 3.311 3.16 0 1.14-.36 1.953-1.099 2.494m2.138-2.487c0-2.777-1.973-3.933-3.943-4.115C15.73.148 12.313 0 11.617 0c-.894 0-5.26.225-5.472 4.666-1.348.507-2.084 1.62-2.084 3.176 0 1.237.457 2.013.968 2.49C4.343 11.043 4 12 4 13.188c0 2.79 1.97 3.94 3.94 4.11.776 2.078 2.816 2.713 4.127 2.905v2.934c0 .272.232.488.518.488.286 0 .518-.219.518-.488v-2.854h.013c.894 0 5.26-.225 5.472-4.665.908-.34 2.088-1.167 2.088-3.177 0-1.062-.326-1.899-.968-2.494.682-.706 1.025-1.66 1.025-2.843" fill="#5CB615" fill-rule="nonzero"/></svg>