<svg width="24" height="24" viewBox="0 0 24 24" xmlns="http://www.w3.org/2000/svg"><path d="M13.187 13.716l-1.506.01c-.014 0-.024.007-.034.01v-1.028c.007-.007.017-.01.024-.02l.78-1.063a.149.149 0 00-.03-.205.149.149 0 00-.206.03l-.565.77v-.598a.146.146 0 00-.292-.01V13.1l-.682-.693a.144.144 0 00-.205 0 .148.148 0 000 .209l.87.887c.004.004.01.004.014.01v.215H9.529c-.363 0-1.21-.117-1.21-1.213 0-.615.266-1.002.784-1.15.063-.016.104-.114.104-.181 0-1.751 1.52-1.89 1.983-1.89.262 0 1.593.061 1.91 1.251a.15.15 0 00.137.111c.447.014 1.492.188 1.492 1.523.004 1.425-1.18 1.536-1.542 1.536m.168-3.351C12.938 9.067 11.485 9 11.193 9c-.376 0-2.238.1-2.275 2.114-.377.138-.891.491-.891 1.402 0 1.113.776 1.506 1.502 1.506h1.826v1.828c.006.081.077.142.158.135a.15.15 0 00.134-.135v-1.835c.014.003.024.01.037.01l1.503-.01c.847 0 1.838-.48 1.838-1.835 0-1.523-1.166-1.778-1.67-1.815" fill="#313235" fill-rule="nonzero"/></svg>