<svg width="64" height="64" viewBox="0 0 64 64" xmlns="http://www.w3.org/2000/svg"><path d="M60.852 59.471c0 .771-.619 1.399-1.39 1.399H4.498a1.41 1.41 0 01-1.39-1.399V36.112c0-.744.637-1.371 1.39-1.371H23.41v1.524c0 4.553 3.702 8.255 8.255 8.255h.628c4.553 0 8.264-3.702 8.264-8.255V34.74h18.913c.655 0 1.21.448 1.345 1.04l.018.107c.009.072.027.144.027.224v23.36h-.01zM8.362 4.516c0-.762.618-1.39 1.38-1.39l44.477.054c.806 0 1.515.717 1.685 1.703l4.338 27.366c-.26-.054-.51-.134-.788-.134H39.24c-.726 0-1.31.582-1.31 1.317v2.842c0 3.101-2.527 5.629-5.637 5.629h-.628c-3.11 0-5.638-2.528-5.638-5.63v-2.84c0-.727-.591-1.318-1.308-1.318H4.498c-.27 0-.52.026-.771.08L8.36 4.515zm55.09 31.354c0-.053.017-.098.008-.152l-.054-.368v-.036l-4.894-30.87c-.421-2.295-2.178-3.89-4.275-3.89L9.759.5C7.554.5 5.753 2.302 5.771 4.3L.527 35.495c-.018.08.009.161.009.242-.01.125-.036.25-.036.376v23.36a4.022 4.022 0 004.016 4.024h54.973c2.205 0 4.007-1.802 4.007-4.025V36.112a1.934 1.934 0 01-.045-.242z" fill="#313235" fill-rule="nonzero"/></svg>