<svg width="64" height="64" xmlns="http://www.w3.org/2000/svg"><path d="M60.37 58.971c0 .771-.619 1.399-1.39 1.399H4.016a1.41 1.41 0 01-1.39-1.399V35.612c0-.744.637-1.371 1.39-1.371h18.913v1.524c0 4.553 3.702 8.255 8.255 8.255h.628c4.553 0 8.264-3.702 8.264-8.255V34.24H58.99c.655 0 1.21.448 1.345 1.04l.018.107c.009.072.027.144.027.224v23.36h-.01zM7.879 4.016c0-.762.618-1.39 1.38-1.39l44.478.054c.806 0 1.515.717 1.685 1.703L59.76 31.75c-.26-.054-.51-.134-.789-.134H38.76c-.727 0-1.31.582-1.31 1.317v2.842c0 3.101-2.527 5.629-5.637 5.629h-.628c-3.11 0-5.638-2.528-5.638-5.63v-2.84c0-.727-.591-1.318-1.308-1.318H4.016c-.27 0-.52.026-.771.08l4.634-27.68zm55.09 31.354c0-.053.018-.098.01-.152l-.055-.368v-.036L58.03 3.945c-.421-2.295-2.178-3.89-4.275-3.89L9.277 0C7.072 0 5.271 1.802 5.29 3.8L.045 34.995c-.018.08.009.161.009.242-.01.125-.036.25-.036.376v23.36a4.022 4.022 0 004.016 4.024h54.973c2.205 0 4.007-1.802 4.007-4.025V35.612a1.934 1.934 0 01-.045-.242z" fill="#313235" fill-rule="nonzero"/></svg>