<svg width="64" height="64" viewBox="0 0 64 64" xmlns="http://www.w3.org/2000/svg"><path d="M54.739 11.388c.35.322 8.596 7.968 8.74 21.046.017.466.465 13.329-8.624 21.54a2.507 2.507 0 01-1.703.654c-.7 0-1.398-.296-1.91-.86-.931-1.067-.85-2.699.207-3.649 7.296-6.588 6.92-17.434 6.91-17.541-.116-10.927-6.973-17.291-7.044-17.354a2.607 2.607 0 01-.198-3.648c.96-1.049 2.59-1.138 3.622-.188zM51.7 32.56c.018.278.314 8.847-5.764 14.332a2.546 2.546 0 01-3.612-.206 2.6 2.6 0 01.206-3.648c4.24-3.827 4.06-10.29 4.052-10.353-.063-6.427-3.98-10.147-4.15-10.299a2.605 2.605 0 01-.162-3.648 2.53 2.53 0 013.586-.188c.242.224 5.754 5.324 5.844 14.01zM32.464 50.19V13.772c-6.866.108-11.724 2.384-14.664 6.785-.054.144-.197.216-.278.341a2.338 2.338 0 01-.556.7c-.027.017-.045.035-.072.053-.439.35-.968.592-1.568.592l-9.726.009.027 19.504 9.672-.009c.986 0 1.82.592 2.25 1.417.045.08.143.116.179.215 2.913 4.437 7.861 6.722 14.736 6.812zM32.715 8.6c2.788 0 4.858 2.097 4.858 4.661V50.72c0 2.555-2.052 4.634-4.58 4.634-10.514 0-16.072-4.347-19.02-8.453l-10.883.01a2.563 2.563 0 01-2.554-2.573L.5 19.67c0-.69.269-1.345.753-1.829a2.515 2.515 0 011.802-.752l10.962-.01C16.975 12.957 22.515 8.6 32.715 8.6z" fill="#313235" fill-rule="nonzero"/></svg>