<svg width="64" height="64" viewBox="0 0 64 64" xmlns="http://www.w3.org/2000/svg"><path d="M20.894 42.37c.511-.51 1.345-.51 1.856 0 .51.512.51 1.345 0 1.856L12.549 54.418c-.51.51-1.345.52-1.855.009l-.01-.01-4.589-4.58a1.315 1.315 0 010-1.855c.511-.51 1.345-.51 1.856 0l3.657 3.648c.009 0 9.286-9.26 9.286-9.26zm21.773-11.338c1.712-1.64 2.581-4.204 2.581-7.601 0-3.406-.87-5.97-2.581-7.62-1.659-1.595-4.16-2.401-7.458-2.401-3.28 0-5.782.806-7.43 2.402-1.704 1.65-2.573 4.213-2.573 7.619 0 3.406.87 5.96 2.563 7.6 1.64 1.587 4.15 2.385 7.431 2.385 3.308 0 5.808-.806 7.467-2.384zm-7.458-20.249c3.998 0 7.117 1.058 9.277 3.137 2.25 2.16 3.389 5.36 3.389 9.502 0 4.141-1.139 7.332-3.389 9.492-2.16 2.062-5.28 3.12-9.277 3.12-3.989 0-7.108-1.05-9.26-3.12-2.231-2.151-3.37-5.342-3.37-9.492 0-4.15 1.13-7.341 3.37-9.502 2.152-2.08 5.271-3.137 9.26-3.137zm23.816 28.818c1.264-7.323 1.416-23.556 1.416-28.513-5.817.475-9.34-1.81-12.71-4.043-3.263-2.187-6.65-4.419-12.504-4.419H35.2c-5.844 0-9.232 2.232-12.495 4.41-3.397 2.232-6.92 4.572-12.71 4.07 0 3.989.107 15.229.815 23.296 1.13-.179 2.313-.313 3.603-.313 5.97 0 10.264 2.016 12.523 6.166h15.973c5.055 0 9.232 1.551 12.074 4.518.161.161.448.547.735.941 1.73-1.99 2.94-4.07 3.307-6.113zM35.21 60.217c2.483-1.21 12.477-6.382 18.707-12.53-.26-.377-.529-.745-.816-1.103-2.34-2.42-5.862-3.702-10.182-3.702H28.002c.475 1.631.762 3.415.762 5.512 0 2.967-.547 5.388-1.47 7.404a108.082 108.082 0 007.915 4.42zm-20.787-.134c7.978 0 11.707-3.729 11.707-11.689 0-7.986-3.729-11.688-11.707-11.688-7.968 0-11.706 3.702-11.706 11.688 0 7.96 3.738 11.689 11.706 11.689zM63.077 9.609c.027.87.08 21.53-1.47 30.431-2 11.474-24.838 22.373-25.815 22.822-.18.08-.368.134-.574.134a1.53 1.53 0 01-.556-.134c-.161-.081-4.024-1.919-8.74-4.832-2.42 3.12-6.31 4.67-11.5 4.67C5.36 62.7.081 58.13.081 48.385c0-7.251 2.922-11.607 8.157-13.391-.915-10.021-.861-25.224-.861-25.385 0-.421.18-.789.475-1.022.314-.26.735-.34 1.13-.26 5.656.897 8.739-1.13 12.262-3.496C24.686 2.573 28.584 0 35.209 0h.027c6.633 0 10.523 2.573 13.947 4.831 3.55 2.367 6.633 4.384 12.29 3.496.367-.054.815.054 1.102.287.296.26.502.6.502.995z" fill="#313235" fill-rule="nonzero"/></svg>