<svg width="64" height="64" viewBox="0 0 64 64" xmlns="http://www.w3.org/2000/svg"><path d="M43.375 8.072c.215.027 7.717.018 13.427 5.79 4.106 4.16 6.194 10.156 6.194 17.838v11.124c0 1.73-.762 3.495-2.08 4.83-1.317 1.336-3.047 2.107-4.76 2.107h-1.12c-1.272 3.55-4.374 5.567-8.82 5.567-4.455 0-7.547-2.026-8.829-5.567h-13.4c-1.282 3.55-4.384 5.567-8.83 5.567-4.472 0-7.583-2.062-8.847-5.656-1.64-.197-3.101-.87-4.23-2.017C.753 46.319 0 44.554 0 42.824V15.018c0-1.738.762-3.504 2.08-4.84 1.317-1.344 3.056-2.106 4.76-2.106zm2.832 30.664c-4.482 0-6.857 2.411-6.857 6.965 0 4.562 2.375 6.965 6.857 6.965 4.491 0 6.857-2.412 6.857-6.965 0-4.554-2.375-6.965-6.857-6.965zm-31.05 0c-4.481 0-6.857 2.411-6.857 6.965 0 4.562 2.376 6.965 6.857 6.965 4.491 0 6.858-2.412 6.858-6.965 0-4.554-2.376-6.965-6.858-6.965zm26.85-9.453h-.165c-.15.001-.25.004-.295.005H2.627v13.536c0 1.03.474 2.106 1.308 2.949a4.37 4.37 0 001.847 1.093c-.036-.385-.09-.753-.09-1.165 0-6.024 3.54-9.618 9.474-9.618s9.475 3.594 9.475 9.618c0 .493-.063.941-.108 1.398H36.85c-.045-.457-.107-.905-.107-1.398 0-6.024 3.54-9.618 9.474-9.618s9.475 3.594 9.475 9.618c0 .493-.063.941-.108 1.398h.574c1.022 0 2.08-.484 2.913-1.326.825-.843 1.309-1.919 1.309-2.95v-4.177c-4.182-8.843-15.843-9.354-18.372-9.363zm1.428-18.549h-4.157v15.901h2.179c.06-.003.274-.012.614-.014h.22c2.89.014 12.45.584 18.088 7.194V31.7c0-20.292-15.668-20.948-16.944-20.966zm-25.05 0H6.83c-1.013 0-2.07.484-2.904 1.327-.825.842-1.309 1.918-1.309 2.957v11.617h15.767V10.734zm18.276 0h-15.65v15.901h15.65V10.734z" fill="#313235" fill-rule="nonzero"/></svg>