<svg width="24" height="24" viewBox="0 0 24 24" xmlns="http://www.w3.org/2000/svg"><path d="M7.68 17.51a.491.491 0 01-.98 0V14.4H3.61a.495.495 0 010-.988H6.7v-3.07a.491.491 0 01.98 0v3.07h3.096a.495.495 0 010 .988H7.681v3.11zm12.643 4.497c1.536-.464 2.316-1.09 2.316-1.862v-3.906c-.528.403-1.21.746-2.02.991-1.436.434-3.318.67-5.298.67a24.68 24.68 0 01-1.802-.068c-1.277 2.37-3.657 3.042-5.102 3.227.383.366 1.015.689 1.875.948 1.355.403 3.137.628 5.016.628 1.879.004 3.66-.222 5.015-.628zm-13.446-1.86h.212c.145 0 .29 0 .414-.002 5.468-.101 5.895-4.77 5.895-6.199 0-5.499-4.148-6.195-5.93-6.235a24.97 24.97 0 00-.52-.007h-.124c-1.755.017-5.836.649-5.836 6.199-.003 5.56 4.118 6.218 5.89 6.245zM10.29 1.614C9.005 2 8.23 2.524 8.03 3.133c.004.006.01.013.014.023.198.602.981 1.123 2.259 1.51 1.344.403 3.126.628 5.015.628 1.889 0 3.67-.225 5.015-.628 1.243-.377 2.02-.881 2.242-1.466.003-.01.013-.017.02-.027-.182-.635-.941-1.16-2.272-1.56-1.345-.403-3.126-.628-5.019-.628-1.889 0-3.67.225-5.015.628zm3.906 10.427c.114.575.188 1.197.188 1.903 0 1.153-.175 2.11-.454 2.924 2.326.141 4.726-.077 6.407-.581 1.331-.4 2.054-1.019 2.303-1.483v-4.39c-.525.404-1.21.747-2.02.992-1.44.434-3.318.669-5.298.669-.343.003-.763-.007-1.126-.034zM7.973 4.622V6.75c1.523.127 4.766.82 5.956 4.275.004 0 .01-.003.014 0 .255.044.743.067 1.378.067 1.886 0 3.667-.225 5.015-.628 1.335-.403 2.054-1.019 2.303-1.482v-4.34c-.494.387-1.167.713-2.024.971-1.432.434-3.314.67-5.297.67-1.984 0-3.866-.24-5.298-.67-.87-.265-1.55-.595-2.047-.991zM20.605.672c2.003.602 3.019 1.546 3.019 2.807v16.666c0 1.26-1.016 2.205-3.016 2.806-1.445.434-3.327.673-5.304.673-1.973 0-3.852-.24-5.297-.67-1.446-.436-2.346-1.035-2.763-1.821h-.38C5.415 21.113 0 20.588 0 13.903c0-6.68 5.368-7.174 6.81-7.187h.178V3.479c0-.198.027-.393.08-.578l.004-.004c.28-.97 1.267-1.72 2.935-2.221C11.442.239 13.32 0 15.304 0c1.987 0 3.87.239 5.301.672z" fill="#5CB615" fill-rule="nonzero"/></svg>