<?xml version="1.0" encoding="UTF-8"?>
<svg width="24px" height="24px" viewBox="0 0 24 24" version="1.1" xmlns="http://www.w3.org/2000/svg" xmlns:xlink="http://www.w3.org/1999/xlink">
    <title>1.Light/Añadir_1Light</title>
    <g id="Symbols" stroke="none" stroke-width="1" fill="none" fill-rule="evenodd">
        <g id="1.Light/Añadir_1Light" fill="#5CB615" fill-rule="nonzero">
            <path d="M22.8369748,11.0252101 L12.5983193,11.0252101 L12.5983193,0.786554622 C12.5983193,0.352941176 12.2453782,0 11.8117647,0 C11.3781513,0 11.0252101,0.352941176 11.0252101,0.786554622 L11.0252101,11.0252101 L0.786554622,11.0252101 C0.352941176,11.0252101 0,11.3747899 0,11.8117647 C0,12.2453782 0.352941176,12.5983193 0.786554622,12.5983193 L11.0252101,12.5983193 L11.0252101,22.8336134 C11.0252101,23.2672269 11.3781513,23.6201681 11.8117647,23.6201681 C12.2453782,23.6201681 12.5983193,23.2672269 12.5983193,22.8336134 L12.5983193,12.5983193 L22.8336134,12.5983193 C23.2672269,12.5983193 23.6201919,12.2453782 23.6201919,11.8117647 C23.6235294,11.3781513 23.2705882,11.0252101 22.8369748,11.0252101 Z" id="Path"></path>
        </g>
    </g>
</svg>