<svg width="64" height="64" xmlns="http://www.w3.org/2000/svg"><path d="M2.411 16.251c0-.753.6-1.362 1.345-1.362h1.918c-.045-.556-.117-1.085-.117-1.686 0-.242.045-.457.045-.699H3.756c-.744 0-1.345-.61-1.345-1.362 0-.753.6-1.363 1.345-1.363H5.88C7 3.64 11.294.278 18.286.278c2.518 0 4.715.43 6.525 1.282.672.322.968 1.13.655 1.81a1.34 1.34 0 01-1.784.664c-1.452-.682-3.272-1.031-5.396-1.031-5.504 0-8.66 2.25-9.663 6.776h7.619c.744 0 1.345.61 1.345 1.363s-.601 1.362-1.345 1.362h-7.96c-.009.242-.044.448-.044.7 0 .6.053 1.138.107 1.685h7.897c.744 0 1.345.609 1.345 1.362 0 .753-.601 1.362-1.345 1.362H8.847c1.22 3.873 4.338 5.782 9.439 5.782 2.151 0 3.989-.359 5.45-1.058a1.331 1.331 0 011.783.655 1.37 1.37 0 01-.645 1.81c-1.82.87-4.043 1.318-6.597 1.318-6.606 0-10.766-3.012-12.164-8.507H3.747c-.735 0-1.336-.61-1.336-1.362zm55.431 43.231c.735-.224 2.465-.851 2.465-1.73v-3.8c-.51.269-1.067.51-1.676.699-1.91.583-4.392.905-7.01.905-2.608 0-5.1-.322-7.01-.905a10.81 10.81 0 01-1.711-.69v3.782c0 .879 1.72 1.506 2.465 1.73 3.343 1.022 9.125 1.022 12.477.01zm-20.096 0c1.326-.403 2.142-1.004 2.456-1.47v-4.195c-.511.26-1.067.511-1.677.7-1.909.582-4.4.905-7.009.905-2.608 0-5.1-.323-7.01-.905a10.474 10.474 0 01-1.712-.69v4.212c.278.43 1.094 1.013 2.492 1.434 3.308 1.022 9.152 1.022 12.46.01zm-20.106 0c1.327-.403 2.143-.995 2.456-1.47V53.88c-.493.251-1.048.475-1.685.672-1.909.583-4.392.906-7.01.906-2.608 0-5.1-.323-7.009-.906a10.64 10.64 0 01-1.712-.68v4.176c.26.413 1.022.986 2.483 1.434 3.326 1.013 9.17 1.013 12.477 0zM5.154 49.362c-1.497.458-2.08.95-2.313 1.273.198.314.735.825 2.331 1.309 3.334 1.013 9.152 1.013 12.468 0 1.542-.475 2.098-.968 2.304-1.273-.421-.663-1.703-1.13-2.322-1.317-3.325-1.004-9.133-1.004-12.468.008zm20.105-7.574c-1.183.359-1.99.825-2.294 1.291.206.323.77.816 2.312 1.29 3.335 1.014 9.134 1.014 12.469 0 1.532-.474 2.088-.967 2.303-1.281-.421-.654-1.703-1.12-2.321-1.309-3.308-1.004-9.152-1.004-12.469.01zm20.106-7.44c-1.497.458-2.08.95-2.313 1.273.197.314.735.825 2.33 1.318 3.326 1.013 9.143 1.013 12.469 0 1.533-.466 2.088-.968 2.304-1.282-.422-.654-1.703-1.12-2.322-1.309-3.325-1.012-9.134-1.012-12.468 0zM42.9 46.387v4.221c.278.44 1.093 1.013 2.483 1.435 3.334 1.012 9.151 1.012 12.468 0 1.318-.404 2.142-1.004 2.456-1.47v-4.195c-.51.268-1.067.51-1.676.699-1.91.582-4.401.905-7.01.905-2.608 0-5.1-.323-7.01-.905a9.733 9.733 0 01-1.711-.69zm1.712-6.84a10.64 10.64 0 01-1.712-.68v4.176c.26.412 1.022.977 2.483 1.434 3.334 1.013 9.142 1.013 12.477 0 1.318-.403 2.133-.995 2.447-1.47v-4.132c-.493.251-1.049.475-1.685.672-1.91.583-4.401.906-7.01.906-2.608 0-5.1-.323-7-.906zm-21.818 6.75v4.186c.27.412 1.031.977 2.492 1.425 3.326 1.013 9.143 1.013 12.469 0 1.317-.403 2.142-1.004 2.456-1.47v-4.123a9.749 9.749 0 01-1.677.663c-1.918.583-4.4.905-7.01.905-2.607 0-5.09-.322-7.009-.905a9.305 9.305 0 01-1.72-.681zM58.613 31.74c3.621 1.112 4.383 2.976 4.383 4.347v21.665c0 1.372-.762 3.236-4.383 4.339-1.927.582-4.41.905-7.01.905-2.6 0-5.091-.323-7.01-.896-1.424-.44-2.401-.995-3.065-1.587-.77.655-1.774 1.21-3.003 1.587-1.909.582-4.392.905-7.009.905s-5.11-.323-7.01-.905c-1.308-.395-2.321-.95-3.083-1.587-.77.655-1.775 1.21-3.003 1.587-1.9.582-4.392.905-7.01.905-2.617 0-5.109-.323-7.009-.905-1.775-.538-3.047-1.345-3.791-2.33a1.328 1.328 0 01-.601-1.112V51.11c0-.322.045-.645.125-.95v-.009c.43-1.515 1.865-2.653 4.25-3.388 3.827-1.165 10.2-1.165 14.018 0 .673.206 1.22.44 1.703.69v-3.917c0-.323.045-.645.126-.95v-.009c.43-1.515 1.855-2.662 4.249-3.38 3.8-1.165 10.218-1.165 14.028 0 .672.207 1.21.44 1.694.691v-3.792c0-.322.044-.645.125-.959.43-1.515 1.865-2.653 4.249-3.388 3.836-1.174 10.21-1.174 14.037-.009zm-12.72-18.949l-3.343.027 8.112 8.336 8.148-8.336-3.299-.027a1.867 1.867 0 01-1.82-1.927l-.008-7.924a.21.21 0 00-.206-.215h-5.602a.21.21 0 00-.207.215l.01 7.96a1.864 1.864 0 01-1.784 1.891zm3.353 10.783L39.243 13.302c-.547-.672-.637-1.47-.323-2.124a1.81 1.81 0 011.65-1.058l4.418-.036-.009-7.135c0-1.622 1.3-2.94 2.896-2.94h5.602c1.595 0 2.895 1.318 2.895 2.94l.009 7.135 4.428.036c.7 0 1.327.412 1.64 1.067a1.95 1.95 0 01-.242 2.025L51.98 23.682c-.287.376-.78.591-1.29.591-.395 0-.808-.125-1.148-.394a9.072 9.072 0 01-.296-.305z" fill="#313235" fill-rule="nonzero"/></svg>