<svg width="24" height="24" viewBox="0 0 24 24" xmlns="http://www.w3.org/2000/svg"><path d="M13.778 0c.847 0 1.331.484 1.331 1.328V14.43h3.26c.33 0 .444.195.481.28.037.083.091.302-.14.534l-8.055 8.043a.66.66 0 01-.473.199.674.674 0 01-.478-.199l-8.047-8.043c-.232-.232-.178-.45-.141-.535.037-.084.151-.279.48-.279h3.261v-1.29c-1.617-.055-2.884-.516-3.768-1.369C.504 10.824.007 9.405.007 7.556c0-1.848.497-3.264 1.479-4.211.887-.857 2.155-1.315 3.77-1.37l.001-.647C5.257.484 5.734 0 6.568 0h7.21zm0 .676h-7.21c-.464 0-.639.178-.639.655v.645c1.613.056 2.882.517 3.765 1.369.982.947 1.482 2.366 1.482 4.211 0 1.846-.497 3.268-1.482 4.212-.88.856-2.148 1.317-3.765 1.373v1.29c0 .369-.302.672-.672.672H2.474l7.708 7.707 7.707-7.707h-2.783a.674.674 0 01-.672-.673V1.328c0-.464-.189-.652-.656-.652zM5.68 2.639l-.018.006a.334.334 0 01-.154-.004l.086-.002c-1.596 0-2.823.4-3.64 1.186-.847.817-1.274 2.07-1.274 3.728 0 1.657.43 2.914 1.274 3.728.811.78 2.023 1.18 3.607 1.186l.033-.003.033.002.263-.003c1.456-.047 2.579-.445 3.345-1.182.847-.817 1.274-2.07 1.274-3.728 0-1.657-.43-2.914-1.274-3.728-.806-.772-2-1.169-3.555-1.186zm-.086.985c.185 0 .336.15.336.336v.426c.443.05.852.183 1.18.387.155.098.242.232.242.383 0 .222-.178.4-.4.4a.52.52 0 01-.245-.07l-.003-.004a2.62 2.62 0 00-.774-.284v1.916l.035.006c.815.129 1.73.536 1.73 1.717 0 1.013-.664 1.684-1.764 1.827v.428a.337.337 0 01-.337.337.337.337 0 01-.336-.337v-.41a3.354 3.354 0 01-1.67-.585.43.43 0 01-.202-.37.41.41 0 01.417-.406.523.523 0 01.272.087c.393.262.79.42 1.184.47l-.001-2.016-.098-.015c-1.34-.236-1.63-1.036-1.63-1.679 0-1.013.67-1.696 1.727-1.793l.001-.415c0-.185.151-.336.336-.336zM5.93 7.96v1.9c.59-.109.94-.467.94-.987 0-.356-.118-.736-.94-.913zm-1.577-1.84c0 .572.418.792.904.895v-1.84c-.57.075-.904.417-.904.945z" fill="#5CB615" fill-rule="nonzero"/></svg>