<svg width="64" height="64" viewBox="0 0 64 64" xmlns="http://www.w3.org/2000/svg"><path d="M49.954 53.674c-3.675-5.226-5.96-12.917-6.194-21.029h16.592a28.894 28.894 0 01-10.398 21.029zm-17.147 6.669V32.654h8.318c.233 8.66 2.707 16.933 6.75 22.598a28.652 28.652 0 01-15.068 5.09zm0-57.69a28.503 28.503 0 0114.7 4.832c-3.908 5.826-6.194 13.911-6.373 22.543h-8.327V2.653zm27.536 27.375H43.76c.18-8.058 2.313-15.588 5.853-20.975a28.845 28.845 0 0110.73 20.975zm-30.154 0h-8.506c-.152-8.578-2.411-16.663-6.301-22.499 4.275-2.859 9.34-4.643 14.807-4.876v27.375zm0 30.315a28.73 28.73 0 01-15.202-5.172c3.962-5.674 6.41-13.912 6.687-22.526h8.506v27.698h.01zM2.644 32.654h16.404c-.26 8.032-2.52 15.696-6.14 20.921a28.91 28.91 0 01-10.264-20.92zm10.613-23.52c3.568 5.405 5.647 12.89 5.8 20.894H2.653c.44-8.426 4.491-15.883 10.604-20.894zM31.498 0C14.118 0 0 14.118 0 31.498c0 17.371 14.118 31.498 31.498 31.498 17.38 0 31.498-14.127 31.498-31.498C62.996 14.118 48.878 0 31.498 0z" fill="#313235" fill-rule="nonzero"/></svg>