<?xml version="1.0" encoding="UTF-8"?>
<svg width="24px" height="24px" viewBox="0 0 24 24" version="1.1" xmlns="http://www.w3.org/2000/svg" xmlns:xlink="http://www.w3.org/1999/xlink">
    <title>1.Light/Banda ancha_1Light</title>
    <g id="Symbols" stroke="none" stroke-width="1" fill="none" fill-rule="evenodd">
        <g id="1.Light/Banda-ancha_1Light" fill="#5CB615" fill-rule="nonzero">
            <path d="M6.23865546,4.96806723 C6.42352941,4.96806723 6.57478992,5.11932773 6.57478992,5.30420168 L6.574,14.4631154 L20,14.4638655 C21.1865546,14.4638655 22.1042017,14.7865546 22.7193277,15.4285714 C23.3142857,16.0436975 23.6134454,16.9344538 23.6134454,18.0773109 L23.6134454,20.0436975 C23.6134454,21.1865546 23.3109244,22.0773109 22.7193277,22.692437 C22.1042017,23.3344538 21.1865546,23.6571429 20,23.6571429 L3.61344538,23.6571429 C2.42689076,23.6571429 1.5092437,23.3310924 0.894117647,22.692437 C0.302521008,22.0773109 -2.44515519e-11,21.1865546 -2.44515519e-11,20.0436975 L-2.44515519e-11,18.0773109 C-2.44515519e-11,16.9344538 0.302521008,16.0436975 0.894117647,15.4285714 C1.5092437,14.789916 2.42689076,14.4638655 3.61344538,14.4638655 L5.902,14.4631154 L5.90252101,5.30420168 C5.90252101,5.11932773 6.05378151,4.96806723 6.23865546,4.96806723 Z M20,15.1361345 L3.61344538,15.1361345 C2.61512605,15.1361345 1.86218487,15.3915966 1.37815126,15.8957983 C0.91092437,16.3831933 0.672268908,17.1159664 0.672268908,18.0773109 L0.672268908,20.0436975 C0.672268908,21.005042 0.91092437,21.7411765 1.37815126,22.2252101 C1.86218487,22.7294118 2.61512605,22.9848739 3.61344538,22.9848739 L20,22.9848739 C20.9983193,22.9848739 21.7512605,22.7294118 22.2352941,22.2252101 C22.702521,21.7378151 22.9411765,21.005042 22.9411765,20.0436975 L22.9411765,18.0773109 C22.9411765,17.1159664 22.702521,16.3798319 22.2352941,15.8957983 C21.7512605,15.3915966 20.9983193,15.1361345 20,15.1361345 Z M3.30756303,18.2621849 C3.79495798,18.2621849 4.11428571,18.5176471 4.11092437,19.0588235 C4.11092437,19.3210084 4.04033613,19.5159664 3.9092437,19.6470588 C3.76806723,19.7915966 3.56302521,19.8588235 3.30756303,19.8588235 C3.05210084,19.8588235 2.84705882,19.7882353 2.70588235,19.6470588 C2.57815126,19.5159664 2.50420168,19.3210084 2.50420168,19.0588235 C2.50420168,18.5142857 2.82016807,18.2621849 3.30756303,18.2621849 Z M6.23193277,18.2621849 C6.71932773,18.2621849 7.03865546,18.5176471 7.03529412,19.0588235 C7.03529412,19.3210084 6.96470588,19.5159664 6.83361345,19.6470588 C6.69243697,19.7915966 6.48739496,19.8588235 6.23193277,19.8588235 C5.97647059,19.8588235 5.77142857,19.7882353 5.6302521,19.6470588 C5.50252101,19.5159664 5.42857143,19.3210084 5.42857143,19.0588235 C5.42857143,18.5142857 5.74453782,18.2621849 6.23193277,18.2621849 Z M12.6252101,0.124369748 C13.8285714,1.28403361 14.4403361,3.02521008 14.4403361,5.30084034 C14.4403361,7.56638655 13.8352941,9.30420168 12.6386555,10.4638655 C12.5714286,10.5277311 12.487395,10.5613445 12.4,10.5613445 C12.2151261,10.5613445 12.0638655,10.4134454 12.0638655,10.2252101 C12.0638655,10.1344538 12.1008403,10.0470588 12.1647059,9.98319328 C13.2268908,8.95462185 13.7647059,7.37815126 13.7647059,5.30084034 C13.7647059,3.21680672 13.2235294,1.64033613 12.1546218,0.608403361 C12.0201681,0.480672269 12.0168067,0.265546218 12.1478992,0.131092437 C12.2756303,-0.00336134454 12.4907563,-0.00672268908 12.6252101,0.124369748 Z M9.92605042,1.81176471 C10.7428571,2.59831933 11.1563025,3.77478992 11.1563025,5.30420168 C11.1563025,6.8302521 10.7462185,8.00336134 9.93277311,8.78991597 C9.87226891,8.85042017 9.78823529,8.88403361 9.70084034,8.88403361 C9.51596639,8.88403361 9.36470588,8.73613445 9.36470588,8.54789916 C9.36470588,8.45714286 9.40168067,8.3697479 9.46554622,8.30588235 C10.1411765,7.65042017 10.487395,6.63865546 10.487395,5.30420168 C10.487395,3.9697479 10.1411765,2.9512605 9.46218487,2.29579832 C9.32773109,2.16806723 9.32436975,1.95294118 9.45210084,1.82184874 C9.57983193,1.6907563 9.79495798,1.68403361 9.92605042,1.81176471 Z" id="Banda-ancha_1Light"></path>
        </g>
    </g>
</svg>