<svg width="24" height="24" viewBox="0 0 24 24" xmlns="http://www.w3.org/2000/svg"><path d="M19.708 20.249c.638 0 .887-.252.887-.901 0-.645-.249-.9-.887-.9-.64 0-.888.251-.888.9-.003.649.246.9.888.9zm0-2.807c1.18 0 1.885.713 1.885 1.91 0 1.193-.702 1.909-1.885 1.909-1.18 0-1.883-.713-1.883-1.91-.003-1.193.7-1.909 1.883-1.909zm0-4.73c.638 0 .887-.251.887-.9 0-.646-.249-.901-.887-.901-.64 0-.888.252-.888.9-.003.65.246.902.888.902zm0-2.81c1.18 0 1.885.713 1.885 1.91 0 1.193-.702 1.909-1.885 1.909-1.18 0-1.883-.713-1.883-1.91-.003-1.193.7-1.908 1.883-1.908zm.02-6.527c-.639 0-.888.252-.888.9 0 .646.25.898.888.898s.89-.252.89-.897c0-.642-.258-.901-.89-.901zm0 2.807c-1.18 0-1.883-.713-1.883-1.906 0-1.194.703-1.91 1.883-1.91 1.18 0 1.885.713 1.885 1.91 0 1.193-.705 1.906-1.885 1.906zm2.894 15.902l.007-5.469a.53.53 0 00-.525-.531H1.53a.524.524 0 00-.524.531l-.01 5.469c0 .292.235.531.524.531h20.575a.53.53 0 00.528-.531zM1.002 1.539L.995 7.01c0 .292.235.53.524.53h20.575a.524.524 0 00.524-.53l.007-5.47a.529.529 0 00-.524-.53H1.529a.53.53 0 00-.527.53zm.517 13.54h20.575a.526.526 0 00.524-.531l.007-5.469a.529.529 0 00-.524-.531H1.529a.526.526 0 00-.524.531l-.007 5.469a.526.526 0 00.521.531zm22.105-6l-.007 5.469c0 .397-.155.756-.4 1.032.249.272.407.638.407 1.038l-.007 5.466c0 .847-.683 1.54-1.523 1.54H1.52A1.533 1.533 0 010 22.084l.007-5.469c0-.397.154-.756.4-1.028A1.554 1.554 0 010 14.545l.007-5.47c0-.4.154-.756.4-1.031A1.53 1.53 0 010 7.008L.007 1.54C.007.692.689 0 1.529 0h20.575c.837 0 1.52.692 1.52 1.54l-.007 5.468c0 .397-.155.757-.4 1.032.249.273.407.636.407 1.039zM3.16 4.776a.5.5 0 01-.498-.504.5.5 0 01.498-.504h6.907a.5.5 0 01.498.504.5.5 0 01-.498.504H3.16zm6.907 6.532a.504.504 0 010 1.008H3.16a.5.5 0 01-.498-.5.5.5 0 01.498-.505c0-.003 6.907-.003 6.907-.003zm0 7.586a.504.504 0 010 1.008H3.16a.5.5 0 01-.498-.5.5.5 0 01.498-.505h6.907v-.003z" fill="#5CB615" fill-rule="nonzero"/></svg>