<svg width="24" height="24" viewBox="0 0 24 24" xmlns="http://www.w3.org/2000/svg"><path d="M18.731 19.771c0 .992-.232 1.698-.71 2.155-.473.457-1.196.679-2.204.679H8.97c-1.009 0-1.731-.222-2.205-.679-.478-.46-.71-1.163-.71-2.155V6.461c0-.965.232-1.658.71-2.128.484-.474 1.203-.706 2.205-.706h6.847c1.012 0 1.734.225 2.208.689.474.464.706 1.163.706 2.145v13.31zm-8.38-17.96c0-.43.141-.567.185-.611.047-.047.188-.185.635-.185h2.67c.456 0 .59.135.638.178.044.044.182.178.182.619v.8h-4.31v-.8zM18.765 3.6c-.683-.666-1.647-.988-2.952-.988h-.11v-.8c0-.572-.165-1.019-.488-1.335C14.892.161 14.43 0 13.84 0h-2.669c-.588 0-1.048.165-1.378.484-.322.32-.487.766-.487 1.324v.8H8.97c-1.294 0-2.256.33-2.948 1.009-.68.669-1.009 1.6-1.009 2.84v13.311c0 1.277.337 2.219 1.019 2.877.679.656 1.64.975 2.938.975h6.847c1.297 0 2.259-.32 2.938-.975.685-.658 1.018-1.6 1.018-2.877V6.458c0-1.261-.33-2.196-1.008-2.858z" fill="#313235" fill-rule="nonzero"/></svg>