<svg width="64" height="64" viewBox="0 0 64 64" xmlns="http://www.w3.org/2000/svg"><path d="M50.25 38.595c-.914.96-2.026 1.703-3.254 2.322-.44.224-.86.466-1.335.645-1.506.547-3.21.825-5.038.906-.26.008-.502.062-.77.062H23.986a7.871 7.871 0 00-.476-.036c-.098 0-.188-.018-.295-.018-1.829-.08-3.532-.358-5.038-.905-.385-.18-.574-.287-.923-.421-.099-.036-.287-.18-.412-.224-1.22-.61-2.34-1.363-3.254-2.322-.906-1.237-1.39-2.922-1.39-5.091 0-2.17.484-3.854 1.39-5.091 2.151-2.277 5.261-3.55 9.008-3.819-.206.941-.35 1.945-.35 3.057 0 3.262.888 5.817 2.645 7.574 1.667 1.676 4.016 2.528 6.991 2.546v.009h.072v-.01c2.967-.017 5.325-.86 6.992-2.545 1.757-1.766 2.644-4.32 2.644-7.574 0-1.12-.143-2.116-.35-3.057 3.756.269 6.867 1.542 9.018 3.819.905 1.237 1.39 2.93 1.39 5.09-.01 2.161-.494 3.846-1.4 5.083zm-18.34 15.13c-6.319-.026-7.054-4.884-7.072-6.99l-.018-1.516h14.172l-.018 1.515c-.01 2.107-.744 6.965-7.064 6.992zm13.464-6.229c-.027 3.12-1.085 13.284-13.464 13.302-12.378-.027-13.436-10.183-13.463-13.302l-.036-3.03c1.201.35 2.474.574 3.828.682l.027 1.613c.044 4.643 2.599 9.609 9.617 9.645v.009h.072v-.01c7.028-.035 9.582-5 9.618-9.644l.018-1.613a19.922 19.922 0 003.836-.682l-.053 3.03zM24.775 5.663c1.614-1.631 4.016-2.465 7.135-2.474 3.11 0 5.513.834 7.135 2.474 1.694 1.712 2.537 4.294 2.537 7.7 0 3.146-.762 5.557-2.205 7.251-.116.135-.206.305-.332.43-.062.072-.107.153-.161.207-.224.188-.35.35-.547.564-.045.045-.071.108-.107.162-.314.466-.206 1.156-.144 1.335l.466 1.166c.278.923.43 1.972.43 3.173 0 2.5-.618 4.4-1.855 5.638-1.174 1.192-2.94 1.784-5.235 1.793-2.285-.01-4.051-.601-5.234-1.793-1.228-1.237-1.856-3.137-1.856-5.638 0-1.21.153-2.25.44-3.173l.466-1.166c.062-.179.17-.87-.144-1.335-.045-.045-.054-.117-.107-.162-.198-.215-.314-.385-.547-.564-.054-.063-.099-.135-.162-.206-.125-.126-.215-.287-.331-.43-1.452-1.695-2.214-4.106-2.214-7.252.027-3.397.878-5.988 2.572-7.7zm27.411 20.984l-.054-.072c-.045-.045-.027-.045-.071-.09-.17-.215-.251-.295-.449-.493a3.312 3.312 0 00-.529-.448c-2.447-2.115-5.629-3.37-9.366-3.684 1.595-2.142 2.447-4.975 2.447-8.497 0-4.15-1.12-7.395-3.326-9.627-2.115-2.133-5.11-3.227-8.9-3.236h-.072c-3.792.018-6.786 1.103-8.901 3.236-2.205 2.232-3.326 5.468-3.326 9.627 0 3.531.86 6.355 2.456 8.497-3.738.314-6.92 1.569-9.376 3.684-.179.117-.385.314-.52.448-.188.198-.277.278-.448.493-.045.045-.018.045-.062.09l-.054.072c-1.327 1.72-2.035 3.998-2.035 6.857 0 2.85.708 5.136 2.035 6.857.045.045.071.108.116.152.17.216.305.341.493.538.144.144.287.287.484.404.924.797 1.963 1.46 3.084 2.016l.054 4.052c.071 7.709 4.311 15.928 16.009 15.973h.071c11.698-.036 15.946-8.264 16.01-15.973l.053-4.052c1.12-.555 2.16-1.219 3.074-2.016.198-.117.35-.26.485-.404.197-.197.322-.322.493-.538.044-.044.071-.107.116-.152 1.327-1.72 2.035-3.998 2.035-6.857.009-2.85-.7-5.136-2.026-6.857z" fill="#313235" fill-rule="nonzero"/></svg>