<svg width="24" height="24" viewBox="0 0 24 24" xmlns="http://www.w3.org/2000/svg"><path d="M19.244 14.286c-.343.36-.76.638-1.22.87-.165.084-.323.175-.501.242-.565.205-1.204.31-1.89.34-.097.003-.188.023-.288.023h-5.95a2.952 2.952 0 00-.178-.013c-.037 0-.07-.007-.111-.007-.686-.03-1.324-.134-1.89-.34-.144-.067-.214-.107-.345-.157-.037-.014-.108-.068-.155-.084a4.359 4.359 0 01-1.22-.87c-.34-.465-.521-1.097-.521-1.91 0-.814.181-1.446.52-1.91.808-.853 1.974-1.33 3.379-1.431-.077.353-.131.73-.131 1.146 0 1.223.333 2.181.991 2.84.626.629 1.506.948 2.622.955v.003h.027v-.003c1.113-.007 1.997-.323 2.622-.955.659-.662.992-1.62.992-2.84 0-.42-.054-.793-.131-1.146 1.408.1 2.574.578 3.381 1.432.34.463.521 1.099.521 1.909-.003.81-.185 1.442-.524 1.906zm-6.878 5.674c-2.37-.01-2.645-1.832-2.652-2.622l-.006-.568h5.314l-.007.568c-.003.79-.279 2.612-2.649 2.622zm5.05-2.336c-.011 1.17-.408 4.981-5.05 4.988-4.642-.01-5.038-3.819-5.048-4.988l-.014-1.137c.45.131.928.216 1.435.256l.01.605c.017 1.741.975 3.603 3.607 3.617v.003h.027v-.003c2.635-.014 3.593-1.876 3.607-3.617l.007-.605a7.47 7.47 0 001.438-.256l-.02 1.137zM9.69 1.936c.605-.612 1.506-.924 2.675-.928 1.167 0 2.068.313 2.676.928.635.642.951 1.61.951 2.888 0 1.18-.285 2.084-.827 2.719-.043.05-.077.114-.124.161-.024.027-.04.057-.06.078-.085.07-.132.13-.206.211-.016.017-.026.04-.04.06-.118.176-.077.434-.054.502l.175.437c.104.346.161.74.161 1.19 0 .937-.231 1.65-.695 2.114-.44.447-1.103.669-1.963.672-.857-.003-1.52-.225-1.963-.672-.46-.464-.696-1.177-.696-2.114 0-.454.057-.844.165-1.19l.174-.437c.024-.068.064-.326-.053-.501-.017-.017-.02-.044-.04-.06-.075-.081-.118-.145-.206-.212-.02-.024-.037-.05-.06-.078-.047-.047-.081-.107-.125-.161-.544-.635-.83-1.54-.83-2.72.01-1.273.33-2.245.965-2.887zM19.97 9.805l-.02-.027c-.017-.017-.01-.017-.027-.033a1.739 1.739 0 00-.168-.185 1.242 1.242 0 00-.199-.168c-.917-.794-2.11-1.264-3.512-1.382.598-.803.917-1.865.917-3.186 0-1.557-.42-2.774-1.247-3.61-.793-.8-1.916-1.21-3.338-1.214h-.026c-1.422.007-2.545.413-3.338 1.213-.827.837-1.247 2.05-1.247 3.61 0 1.325.322 2.384.92 3.187-1.401.118-2.594.588-3.515 1.382a1.377 1.377 0 00-.195.168c-.07.074-.104.104-.168.185-.017.016-.007.016-.024.033l-.02.027c-.497.645-.763 1.5-.763 2.571 0 1.07.266 1.927.763 2.572.017.017.027.04.044.057.064.08.114.128.185.202.053.054.107.107.181.151.346.3.736.548 1.156.756l.02 1.52c.027 2.89 1.617 5.973 6.004 5.99h.027c4.386-.014 5.98-3.1 6.003-5.99l.02-1.52a5.38 5.38 0 001.153-.756.819.819 0 00.182-.151c.074-.074.12-.121.185-.202.016-.017.027-.04.043-.057.498-.645.763-1.5.763-2.572.004-1.068-.262-1.926-.76-2.571z" fill="#5CB615" fill-rule="nonzero"/></svg>