<svg width="64" height="64" viewBox="0 0 64 64" xmlns="http://www.w3.org/2000/svg"><path d="M51.317 38.095c-.915.96-2.026 1.703-3.254 2.322-.44.224-.86.466-1.336.645-1.506.547-3.209.825-5.037.906-.26.008-.502.062-.771.062H25.053a7.871 7.871 0 00-.475-.036c-.098 0-.188-.018-.296-.018-1.828-.08-3.531-.358-5.037-.905-.386-.18-.574-.287-.923-.421-.099-.036-.287-.18-.413-.224-1.219-.61-2.34-1.363-3.254-2.322-.905-1.237-1.389-2.922-1.389-5.091 0-2.17.484-3.854 1.39-5.091 2.15-2.277 5.261-3.55 9.008-3.819-.206.941-.35 1.945-.35 3.057 0 3.262.888 5.817 2.645 7.574 1.667 1.676 4.015 2.528 6.991 2.546v.009h.072v-.01c2.967-.017 5.324-.86 6.991-2.545 1.757-1.766 2.645-4.32 2.645-7.574 0-1.12-.144-2.116-.35-3.057 3.756.269 6.866 1.542 9.017 3.819.906 1.237 1.39 2.93 1.39 5.09-.01 2.161-.493 3.846-1.398 5.083zm-18.34 15.13c-6.32-.026-7.054-4.884-7.072-6.99l-.018-1.516h14.171l-.018 1.515c-.009 2.107-.744 6.965-7.063 6.992zm13.463-6.229c-.027 3.12-1.084 13.284-13.463 13.302-12.379-.027-13.436-10.183-13.463-13.302l-.036-3.03c1.201.35 2.474.574 3.827.682l.027 1.613c.045 4.643 2.6 9.609 9.618 9.645v.009h.072v-.01c7.027-.035 9.582-5 9.618-9.644l.018-1.613a19.922 19.922 0 003.836-.682l-.054 3.03zM25.842 5.163c1.613-1.631 4.016-2.465 7.135-2.474 3.11 0 5.513.834 7.135 2.474 1.694 1.712 2.537 4.294 2.537 7.7 0 3.146-.762 5.557-2.205 7.251-.117.135-.206.305-.332.43-.063.072-.108.153-.161.207-.224.188-.35.35-.547.564-.045.045-.072.108-.108.162-.313.466-.206 1.156-.143 1.335l.466 1.166c.278.923.43 1.972.43 3.173 0 2.5-.618 4.4-1.855 5.638-1.174 1.192-2.94 1.784-5.235 1.793-2.286-.01-4.051-.601-5.235-1.793-1.228-1.237-1.855-3.137-1.855-5.638 0-1.21.152-2.25.44-3.173l.465-1.166c.063-.179.17-.87-.143-1.335-.045-.045-.054-.117-.108-.162-.197-.215-.313-.385-.547-.564-.053-.063-.098-.135-.16-.206-.126-.126-.216-.287-.333-.43-1.452-1.695-2.214-4.106-2.214-7.252.027-3.397.879-5.988 2.573-7.7zm27.41 20.984l-.053-.072c-.045-.045-.027-.045-.072-.09-.17-.215-.25-.295-.448-.493a3.312 3.312 0 00-.529-.448c-2.447-2.115-5.629-3.37-9.367-3.684 1.596-2.142 2.447-4.975 2.447-8.497 0-4.15-1.12-7.395-3.325-9.627C39.789 1.103 36.795.009 33.004 0h-.072c-3.791.018-6.785 1.103-8.9 3.236-2.206 2.232-3.326 5.468-3.326 9.627 0 3.531.86 6.355 2.456 8.497-3.738.314-6.92 1.569-9.376 3.684-.18.117-.385.314-.52.448-.188.198-.278.278-.448.493-.045.045-.018.045-.063.09l-.054.072c-1.326 1.72-2.034 3.998-2.034 6.857 0 2.85.708 5.136 2.034 6.857.045.045.072.108.117.152.17.216.305.341.493.538.143.144.287.287.484.404.923.797 1.963 1.46 3.083 2.016l.054 4.052c.072 7.709 4.312 15.928 16.01 15.973h.07c11.698-.036 15.947-8.264 16.01-15.973l.054-4.052c1.12-.555 2.16-1.219 3.074-2.016.197-.117.35-.26.484-.404.197-.197.323-.322.493-.538.045-.044.072-.107.117-.152 1.326-1.72 2.035-3.998 2.035-6.857.008-2.85-.7-5.136-2.026-6.857z" fill="#313235" fill-rule="nonzero"/></svg>