<svg width="64" height="64" viewBox="0 0 64 64" xmlns="http://www.w3.org/2000/svg"><path d="M60.87 48.986c-13.123.242-23.44 4.132-27.563 5.942v-40.99c10.89-5.522 23.628-5.611 27.563-5.495v40.543zM3.126 8.452c3.917-.125 16.673-.026 27.563 5.495v40.99c-4.114-1.81-14.44-5.691-27.563-5.942V8.452zm59.16-2.545c-.69-.063-16.618-1.21-30.297 5.79C18.311 4.706 2.391 5.853 1.71 5.916 1.03 5.96.5 6.526.5 7.206v43.07c0 .717.592 1.3 1.309 1.3 16.77 0 29.454 6.499 29.58 6.561.188.099.394.144.609.144.054 0 .108-.036.161-.045.153-.009.305-.045.44-.108l.062-.035h.01c.77-.386 13.176-6.526 29.498-6.526.727 0 1.31-.582 1.31-1.309V7.198c.017-.682-.512-1.238-1.193-1.291z" fill="#313235" fill-rule="nonzero"/></svg>