<svg width="64" height="64" xmlns="http://www.w3.org/2000/svg"><path d="M43.043.072c3.738 0 6.624 1.057 8.605 3.146 1.865 1.972 2.815 4.75 2.815 8.264v14.729c1.312-1.066 2.67-1.23 3.63-1.158a5.463 5.463 0 015.073 5.45c0 1.39-.564 2.671-1.613 3.711-.437.43-3.526 3.188-7.09 6.356v10.881c0 3.514-.941 6.292-2.815 8.264-1.98 2.089-4.876 3.147-8.614 3.147H11.482c-3.737 0-6.624-1.058-8.605-3.147-1.864-1.972-2.814-4.75-2.814-8.264V11.482c.009-3.504.959-6.283 2.823-8.264C4.858 1.129 7.754.072 11.491.072h31.552zm.01 1.792H11.5c-7.95 0-9.618 5.235-9.618 9.618v39.969c0 4.392 1.668 9.618 9.618 9.618h31.552c7.95 0 9.618-5.235 9.618-9.618v-9.288l-.895.794-.651.578c-4.226 3.75-8.197 7.263-8.538 7.566a.843.843 0 01-.314.18L32.807 54.4a1.079 1.079 0 01-.287.054.899.899 0 01-.852-1.183l1.368-4.08-21.554.001a.899.899 0 01-.896-.896c0-.493.403-.897.896-.897h22.156l1.203-3.585a.821.821 0 01.26-.385c1.734-1.53 3.917-3.458 6.18-5.46H11.482a.899.899 0 01-.896-.896c0-.493.403-.896.896-.896h31.714l.103.007.165-.145.599-.531c3.496-3.096 6.82-6.049 8.608-7.66l-.001-16.366c0-4.392-1.667-9.618-9.618-9.618zm12.199 26.04c-1.022 1.03-16.798 14.96-18.788 16.708l-2.528 7.53 7.592-2.51c1.941-1.718 4.42-3.913 6.936-6.144l.604-.536c5.34-4.737 10.669-9.48 11.221-10.02.717-.708 1.085-1.524 1.085-2.438a3.742 3.742 0 00-1.076-2.59 3.776 3.776 0 00-2.34-1.067c-.699-.054-1.73.09-2.706 1.067zm-12.218-2.94c.493 0 .897.403.897.896a.899.899 0 01-.897.896H11.482a.899.899 0 01-.896-.896c0-.493.403-.896.896-.896h31.552zm0-11.223c.493 0 .897.404.897.897a.899.899 0 01-.897.896H11.482a.899.899 0 01-.896-.896c0-.493.403-.897.896-.897h31.552z" fill="#313235" fill-rule="nonzero"/></svg>