<svg width="24" height="24" viewBox="0 0 24 24" xmlns="http://www.w3.org/2000/svg"><path d="M15.37 15.54c1.563-.955 2.356-2.616 2.356-4.942 0-1.348-.407-5.754-5.67-5.869-.195-.006-.407-.006-.602-.006h-.034c-1.677.01-5.576.598-5.576 5.838 0 2.36.793 4.037 2.353 4.982l.48.292v2.37c0 .232.037.541.215.696.125.11.498.225 1.658.225h2.453c.955 0 1.516-.07 1.674-.215.178-.158.215-.47.215-.706v-2.373l.478-.293zM12.079 3.737c1.358.03 6.655.565 6.655 6.86 0 3.167-1.334 4.87-2.833 5.785v1.822c0 .629-.178 1.12-.541 1.442-.35.313-.884.474-2.353.474h-2.454c-1.435 0-1.973-.161-2.323-.474-.373-.323-.558-.813-.558-1.442V16.39c-1.499-.904-2.833-2.625-2.833-5.829 0-6.35 5.186-6.823 6.581-6.83.215 0 .45 0 .659.007zm-.323 2.326c.77.017 4.639.323 4.868 4.625a.497.497 0 01-.478.521h-.027a.504.504 0 01-.504-.47c-.178-3.342-3.022-3.664-3.889-3.685-.134-.003-.286-.003-.423-.003a.5.5 0 01-.505-.497.5.5 0 01.505-.498c.147.004.309.004.453.007zm3.382 14.743a.5.5 0 01.504.497.5.5 0 01-.504.498H8.634a.5.5 0 01-.505-.498.5.5 0 01.505-.497h6.504zm-.877 1.825a.5.5 0 01.504.497.5.5 0 01-.504.498H9.313a.5.5 0 01-.505-.498.5.5 0 01.505-.497h4.948zm-2.522-19.88a.5.5 0 01-.504-.497V.497A.5.5 0 0111.74 0a.5.5 0 01.505.497v1.758a.502.502 0 01-.505.498zm7.18-.07a.507.507 0 01.713 0 .495.495 0 010 .703l-1.264 1.244a.498.498 0 01-.356.144.495.495 0 01-.356-.847l1.263-1.244zM5.013 4.847L3.75 3.603a.495.495 0 010-.702.507.507 0 01.712 0l1.264 1.244a.495.495 0 01-.356.847.504.504 0 01-.357-.145zM3.3 9.755a.5.5 0 01.504.497.5.5 0 01-.504.498H1.514a.5.5 0 01-.504-.498.5.5 0 01.504-.497H3.3zm18.86-.094a.5.5 0 01.505.497.5.5 0 01-.504.497h-1.785a.5.5 0 01-.504-.497.5.5 0 01.504-.497h1.785z" fill="#5CB615" fill-rule="nonzero"/></svg>