<svg width="64" height="64" viewBox="0 0 64 64" xmlns="http://www.w3.org/2000/svg"><path d="M47.444 49.954c3.64-.18 12.818-1.82 12.818-13.463 0-11.572-9.116-13.311-12.818-13.535v26.998zm-2.734.95v-33.21H2.734v33.201c0 3.29.789 5.638 2.411 7.18 1.614 1.533 4.034 2.286 7.422 2.286h22.31c3.389 0 5.809-.744 7.422-2.286 1.623-1.542 2.411-3.89 2.411-7.17zm18.286-14.422c0 14.467-12.307 15.964-15.668 16.107-.27 3.147-1.264 5.603-3.102 7.368-2.142 2.044-5.199 3.04-9.34 3.04h-22.32c-4.14 0-7.197-.996-9.34-3.049C1.05 57.887 0 54.928 0 50.904V16.385c0-.726.61-1.317 1.362-1.317h44.71c.754 0 1.372.591 1.372 1.308v3.935c3.622.216 15.552 1.972 15.552 16.17zM17.802 11.204c0-.537-.359-1.111-.78-1.765-.547-.87-1.174-1.847-1.183-3.12-.01-1.29.618-2.294 1.174-3.182.421-.672.789-1.264.789-1.81 0-.726.61-1.318 1.362-1.318.753 0 1.372.592 1.372 1.309 0 1.281-.628 2.285-1.175 3.164-.42.681-.788 1.264-.788 1.81.009.547.367 1.112.788 1.766.547.87 1.184 1.856 1.184 3.138 0 .726-.619 1.308-1.372 1.308a1.334 1.334 0 01-1.371-1.3zm8.802 0c0-.125-.305-.51-.466-.726-.448-.573-1.013-1.29-1.022-2.285-.009-1.004.556-1.748 1.013-2.34.18-.233.475-.618.475-.753 0-.726.618-1.317 1.362-1.317a1.341 1.341 0 011.372 1.308v.01c0 1.003-.565 1.73-1.013 2.32-.17.216-.475.62-.475.754 0 .125.296.502.475.726.43.547 1.022 1.309 1.022 2.312 0 .726-.619 1.31-1.372 1.31a1.36 1.36 0 01-1.371-1.319z" fill="#313235" fill-rule="nonzero"/></svg>