<svg width="64" height="64" viewBox="0 0 64 64" xmlns="http://www.w3.org/2000/svg"><path d="M60.323 58.683c0 1.174-.914 2.133-2.035 2.133H5.698c-1.11 0-2.025-.96-2.025-2.133V21.269c0-1.175.914-2.134 2.026-2.134h17.335v8.704c0 .735.709 1.336 1.587 1.336h13.714c.879 0 1.587-.601 1.587-1.336l-.01-8.704h18.385c1.12 0 2.035.96 2.035 2.134v37.414h-.009zM8.263 4.722c.026-.099.044-.206.044-.314 0-.681.655-1.237 1.47-1.237h14.844l-1.407 13.284H5.699c-.269 0-.52.036-.771.072L8.262 4.722zm28.486 14.413v7.368H26.208l-.01-7.368h10.55zm-1.9-15.946l1.694 13.266H26.387L27.794 3.19h7.054zm20.84 1.228c0 .108.018.215.054.314l3.433 11.814a4.951 4.951 0 00-.888-.08H39.725L38.039 3.18h16.189c.806 0 1.46.556 1.46 1.237zm7.708 15.928a1.203 1.203 0 00-.008-.564L58.853 4.238C58.754 2.158 56.71.5 54.219.5H9.777c-2.5 0-4.535 1.658-4.643 3.738L.742 19.78c-.009.036 0 .08-.009.116A4.784 4.784 0 00.5 21.27v37.414c0 2.653 2.33 4.813 5.199 4.813h52.598c2.869 0 5.2-2.16 5.2-4.813V21.269c0-.323-.037-.628-.1-.924z" fill="#313235" fill-rule="nonzero"/></svg>