<svg width="64" height="64" viewBox="0 0 64 64" xmlns="http://www.w3.org/2000/svg"><path d="M59.823 58.183c0 1.174-.914 2.133-2.035 2.133H5.198c-1.11 0-2.025-.96-2.025-2.133V20.769c0-1.175.914-2.134 2.026-2.134h17.335v8.704c0 .735.709 1.336 1.587 1.336h13.714c.879 0 1.587-.601 1.587-1.336l-.01-8.704h18.385c1.12 0 2.035.96 2.035 2.134v37.414h-.009zM7.763 4.222c.026-.099.044-.206.044-.314 0-.681.655-1.237 1.47-1.237h14.844l-1.407 13.284H5.199c-.269 0-.52.036-.771.072L7.762 4.222zm28.486 14.413v7.368H25.708l-.01-7.368h10.55zm-1.9-15.946l1.694 13.266H25.887L27.294 2.69h7.054zm20.84 1.228c0 .108.018.215.054.314l3.433 11.814a4.951 4.951 0 00-.888-.08H39.225L37.539 2.68h16.189c.806 0 1.46.556 1.46 1.237zm7.708 15.928a1.203 1.203 0 00-.008-.564L58.353 3.738C58.254 1.658 56.21 0 53.719 0H9.277c-2.5 0-4.535 1.658-4.643 3.738L.242 19.28c-.009.036 0 .08-.009.116A4.784 4.784 0 000 20.77v37.414c0 2.653 2.33 4.813 5.199 4.813h52.598c2.869 0 5.2-2.16 5.2-4.813V20.769c0-.323-.037-.628-.1-.924z" fill="#313235" fill-rule="nonzero"/></svg>