<svg width="24" height="24" viewBox="0 0 24 24" xmlns="http://www.w3.org/2000/svg"><path d="M6.71 13.049c.697-.014 2.32-.273 2.32-2.42 0-.155-.006-.303-.023-.437-.202-1.758-1.684-1.984-2.313-1.997l-.262-.003c-.632.006-2.118.218-2.282 2.06a4.03 4.03 0 00-.014.36c0 2.168 1.624 2.43 2.323 2.44l.252-.003zm3.332-2.978c.02.174.03.36.03.554 0 2.508-1.801 3.429-3.348 3.456h-.289c-1.62-.024-3.351-.952-3.351-3.473 0-.158.007-.305.02-.45.195-2.195 1.839-2.992 3.311-3.005l.3.003c1.451.034 3.085.817 3.327 2.915zm7.133 2.978c.692-.014 2.32-.273 2.32-2.42 0-.155-.011-.303-.028-.44-.201-1.755-1.684-1.98-2.312-1.994l-.263-.003h-.003c-.628.006-2.118.218-2.279 2.06-.01.111-.017.232-.017.36 0 2.168 1.624 2.43 2.323 2.44l.259-.003zm3.33-2.978c.021.178.031.36.031.554 0 2.508-1.802 3.429-3.348 3.456H16.9c-1.62-.024-3.351-.952-3.351-3.473 0-.158.007-.305.02-.45.195-2.198 1.839-2.992 3.311-3.005l.3.003c1.451.034 3.085.817 3.327 2.915zm-9.448 5.243c.266.111.39.414.28.676l-.438 1.025a.526.526 0 01-.696.249.519.519 0 01-.265-.649l.437-1.025a.525.525 0 01.682-.276zm1.93.276l.437 1.025a.516.516 0 01-.276.676h-.003a.524.524 0 01-.683-.276l-.437-1.025a.518.518 0 01.276-.68s.003 0 .003-.002a.531.531 0 01.683.282zm4.712 3.365c2.602-1.597 3.923-4.353 3.923-8.189 0-8.83-7.156-9.67-9.351-9.717-.313-.01-.656-.01-.968-.01h-.034c-.924.003-3.294.158-5.392 1.465-2.538 1.583-3.825 4.343-3.825 8.202 0 3.896 1.318 6.672 3.92 8.255l.497.303v1.354c0 .686.171 1.184.514 1.48.447.406 1.153.487 1.67.487h6.404c.743 0 1.298-.161 1.64-.474.34-.303.505-.803.505-1.496V19.25c.003.007.497-.295.497-.295zM12.294.01c2.118.044 10.373.88 10.373 10.753 0 4.965-2.08 7.637-4.417 9.069v.786c0 .985-.275 1.755-.843 2.256-.545.494-1.331.746-2.346.746H8.65c-1.02 0-1.816-.252-2.36-.746-.578-.504-.867-1.27-.867-2.259v-.776C3.09 18.42 1.01 15.728 1.01 10.706 1.01.756 9.09.01 11.266 0c.332 0 .705 0 1.028.01z" fill="#5CB615" fill-rule="nonzero"/></svg>