<svg width="64" height="64" xmlns="http://www.w3.org/2000/svg"><defs><filter id="a"><feColorMatrix in="SourceGraphic" values="0 0 0 0 0.192157 0 0 0 0 0.196078 0 0 0 0 0.207843 0 0 0 1.000000 0"/></filter></defs><g filter="url(#a)" fill="none" fill-rule="evenodd"><path d="M55.27 5.333c4.23 0 7.663 3.442 7.663 7.664l.001 5.309a.91.91 0 010 .245v31.295c0 4.375-3.56 7.933-7.933 7.933H7.664C3.434 57.78 0 54.337 0 50.115V12.997c0-4.23 3.442-7.664 7.664-7.664h47.605zm5.897 13.983H1.765v30.8a5.903 5.903 0 005.899 5.897H55a6.178 6.178 0 006.167-6.167l-.001-30.53zm-30.592 8.641c2.115 0 3.684.467 4.724 1.39.959.851 1.443 2.052 1.443 3.612 0 .78-.108 1.497-.332 2.151-.224.655-.592 1.363-1.111 2.125-.52.762-1.273 1.72-2.25 2.886l-4.563 5.37h8.587v1.837H25.96a2.16 2.16 0 01-.108-.646c0-.385.072-.744.224-1.066.152-.323.448-.753.887-1.291l4.366-5.333c1.111-1.372 1.891-2.483 2.33-3.353.448-.86.664-1.72.664-2.572 0-1.148-.341-1.972-1.031-2.456-.681-.493-1.703-.735-3.057-.735-1.335 0-2.671.143-3.998.42v-1.81c1.408-.35 2.85-.529 4.339-.529zM55.269 7.1H7.664a5.903 5.903 0 00-5.898 5.898l-.001 4.544h59.402v-4.544A5.903 5.903 0 0055.27 7.1zM17.4 10.586c1.093 0 1.738.654 1.738 1.748 0 .529-.152.959-.448 1.264-.323.305-.762.475-1.3.475-.537 0-.977-.162-1.281-.475-.296-.305-.449-.735-.449-1.264 0-1.094.646-1.748 1.74-1.748zm28.01 0c.511 0 .942.152 1.246.44.323.313.493.752.493 1.308 0 .529-.152.959-.448 1.264-.322.305-.762.475-1.3.475-.537 0-.976-.162-1.281-.475-.296-.305-.448-.735-.448-1.264 0-1.094.645-1.748 1.739-1.748z" fill="#313235" fill-rule="nonzero"/></g></svg>