<svg width="64" height="64" xmlns="http://www.w3.org/2000/svg"><path d="M31.857 40.484c5.19-.099 5.19-4.294 5.19-5.674 0-1.38 0-5.593-5.244-5.719-.188-.009-.404-.009-.61-.009h-.152c-5.091.045-5.091 4.285-5.091 5.674 0 1.399 0 5.656 5.172 5.737h.242l.493-.009zm.035-15.22c1.838.045 9 .78 9 9.546 0 8.784-7.171 9.466-8.973 9.501-.17 0-.367.01-.555.01h-.305c-1.883-.027-8.964-.718-8.964-9.556 0-8.82 7.019-9.474 8.901-9.492h.188c.242-.018.493-.018.708-.01zm26.64 25.725c.511-.546.556-1.649.538-1.855l-.009-28.567c0-.887-.188-1.524-.574-1.891-.43-.422-1.066-.458-1.075-.458L39.52 18.21c-.69 0-1.326-.368-1.667-.95l-3.164-5.406-6.938.018-2.554 5.27a1.934 1.934 0 01-1.73 1.076c-8.265 0-15.265 0-17.022.018-.995.01-1.694.225-2.07.655-.512.573-.467 1.47-.458 1.479l.09 28.656c.071 2.349 1.29 2.33 1.326 2.349l52.052.009c.708-.018.995-.233 1.147-.395zm4.392-1.98c.018.16.135 2.778-1.577 4.589-.681.726-1.927 1.586-3.962 1.586l-51.998-.009c-1.479 0-5.073-.995-5.226-6.113l-.08-28.504c-.018-.063-.215-2.402 1.425-4.24.789-.87 2.277-1.918 4.92-1.927 1.668-.009 8.095-.018 15.84-.018l2.07-4.213a3.786 3.786 0 013.415-2.124h6.983c1.344 0 2.608.726 3.29 1.891l2.599 4.446 16.753.018c.18.036 2.223.009 3.81 1.55.788.772 1.73 2.197 1.73 4.626v28.441h.008z" fill="#313235" fill-rule="nonzero"/></svg>