<svg width="64" height="64" xmlns="http://www.w3.org/2000/svg"><path d="M41.373 5.357l2.46.001h.324l1.751.001h.253l1.92.001c.242 0 .466.099.636.26L62.7 19.603a.883.883 0 01.157.213.893.893 0 01.104.555v34.997c0 .574-.046 1.237-.422 1.757-.377.52-.977.789-1.802.789H30.566c-1.658 0-2.609-.96-2.609-2.627V7.933c0-1.632.95-2.564 2.6-2.573h.309l.295-.002h10.211zM12.352 28.083c.04 0 .078.002.116.007l-.116-.007a.888.888 0 01.496.15l.022.016a.81.81 0 01.118.094l7.772 7.771c.17.17.26.395.26.637v19.298c0 1.085-.7 1.793-1.793 1.793l-8.56.009H1.829C.699 57.851 0 57.143 0 56.004V29.903c0-1.12.7-1.82 1.829-1.82h10.523zM47.193 7.16H30.566c-.7 0-.807.19-.807.78v47.355c0 .682.144.834.816.834h.233l.322-.002h.885l.852-.002h1.354l1.56-.002h2.629l3.329-.002h7.423l11.575-.001a.917.917 0 00.35-.045c.018-.045.08-.206.08-.708V21.144l-6.086.001c-4.867 0-7.888-3.02-7.888-7.888V7.161zM11.455 29.884H1.793v26.174h17.434l-.001-18.412-2.213.001c-1.793 0-3.182-.484-4.132-1.425-.95-.941-1.426-2.34-1.426-4.132v-2.206zm4.025 20.751c.493 0 .896.404.896.897a.899.899 0 01-.896.896H5.575a.899.899 0 01-.896-.896c0-.493.403-.897.896-.897h9.905zm0-4.66c.493 0 .896.403.896.896a.899.899 0 01-.896.896H5.575a.899.899 0 01-.896-.896c0-.493.403-.897.896-.897h9.905zm39.709-.386c.493 0 .896.403.896.896a.899.899 0 01-.896.897H35.747a.899.899 0 01-.897-.897c0-.493.404-.896.897-.896h19.442zM15.48 41.313c.493 0 .896.404.896.897a.899.899 0 01-.896.896H5.575a.899.899 0 01-.896-.896c0-.493.403-.897.896-.897h9.905zm39.709-4.535c.493 0 .896.403.896.896a.899.899 0 01-.896.896H35.747a.899.899 0 01-.897-.896c0-.493.404-.896.897-.896h19.442zm-37.235-.924l-4.706-4.706v.942c0 2.6 1.165 3.764 3.765 3.764h.941zm37.235-7.834c.493 0 .896.404.896.897a.899.899 0 01-.896.896H35.747a.899.899 0 01-.897-.896c0-.493.404-.897.897-.897h19.442zM17.255 9.86c.052.046.784.669 1.543 1.337l.304.268c.454.403.886.796 1.156 1.066 1.03 1.03 1.04 2.214.018 3.227-.172.171-.714.651-1.295 1.157l-.35.305c-.641.556-1.247 1.075-1.376 1.182a.915.915 0 01-.583.215.899.899 0 01-.896-.896c0-.26.116-.51.314-.681l.93-.805.329-.285c.377-.329.743-.65 1.037-.91h-3.533c-2.322 0-4.06.548-5.181 1.623-1.157 1.112-1.748 2.905-1.748 5.316v2.662a.886.886 0 01-.888.896.899.899 0 01-.896-.896v-2.662c0-2.913.77-5.136 2.295-6.606 1.46-1.408 3.621-2.125 6.418-2.125h3.552a55.66 55.66 0 00-.537-.483l-.298-.263a110.84 110.84 0 00-1.438-1.245l-.042-.035a.895.895 0 111.165-1.362zm42.649 9.492L48.985 8.425l.001 4.832c0 3.872 2.223 6.095 6.095 6.095h4.823z" fill="#313235" fill-rule="nonzero"/></svg>