<svg width="24" height="24" viewBox="0 0 24 24" xmlns="http://www.w3.org/2000/svg"><path d="M18.03 2.01c.091 0 .175.037.239.098l5.244 5.243a.33.33 0 01.073.111.32.32 0 01.027.131l-.003.029v13.141c0 .215-.017.464-.158.659-.141.195-.366.296-.676.296H11.462c-.622 0-.978-.36-.978-.985V2.975c0-.612.356-.962.975-.965.618-.003 6.51 0 6.571 0zM4.632 10.531a.357.357 0 01.239.097l2.914 2.915a.333.333 0 01.097.239v7.236c0 .407-.262.673-.672.673L4 21.694H.686c-.424 0-.686-.265-.686-.692v-9.789c0-.42.262-.682.686-.682h3.946zm13.065-7.845h-6.235c-.262 0-.302.07-.302.292v17.758c0 .256.053.313.306.313.48-.002 3.409-.003 5.798-.003h5.512a.344.344 0 00.132-.017c.006-.017.03-.078.03-.266l-.001-12.834h-2.282c-1.825 0-2.958-1.132-2.958-2.958V2.686zm-13.402 8.52H.672v9.816H7.21v-6.904h-.83c-.672 0-1.193-.182-1.55-.535-.356-.353-.534-.877-.534-1.55l-.001-.826zm1.51 7.782c.185 0 .336.151.336.336a.337.337 0 01-.336.337H2.091a.337.337 0 01-.336-.337c0-.185.15-.336.336-.336h3.714zm0-1.748c.185 0 .336.152.336.336a.337.337 0 01-.336.337H2.091a.337.337 0 01-.336-.337c0-.184.15-.336.336-.336h3.714zm14.89-.144c.186 0 .337.151.337.336a.337.337 0 01-.336.336h-7.291a.337.337 0 01-.336-.336c0-.185.151-.336.336-.336h7.29zm-14.89-1.604a.337.337 0 010 .672H2.091a.337.337 0 01-.336-.335c0-.185.15-.337.336-.337h3.714zm14.89-1.7c.186 0 .337.15.337.336a.337.337 0 01-.336.336h-7.291a.337.337 0 01-.336-.336c0-.185.151-.336.336-.336h7.29zm-13.963-.347L4.968 11.68v.353c0 .974.437 1.411 1.412 1.411h.352zm13.964-2.937c.185 0 .336.15.336.336a.337.337 0 01-.336.336h-7.291a.337.337 0 01-.336-.336c0-.185.151-.336.336-.336h7.29zM6.47 3.698c.033.03.833.709 1.126 1.001.386.387.39.83.006 1.21-.148.148-1.032.908-1.132.992a.337.337 0 01-.437-.51c.26-.224.622-.54.86-.751H5.57c-.87 0-1.523.205-1.943.609-.434.417-.656 1.089-.656 1.993v.998a.332.332 0 01-.332.336.337.337 0 01-.336-.336v-.998c0-1.092.289-1.926.86-2.477.548-.528 1.358-.797 2.407-.797h1.332c-.345-.315-.86-.754-.868-.76a.336.336 0 11.437-.51zm15.992 3.559L18.369 3.16V4.97c0 1.453.834 2.286 2.286 2.286h1.808z" fill="#5CB615" fill-rule="nonzero"/></svg>