<svg width="24" height="24" viewBox="0 0 24 24" xmlns="http://www.w3.org/2000/svg"><path d="M12.397.027c2.998 0 5.442 2.33 5.442 5.19a.331.331 0 01-.333.333.331.331 0 01-.333-.333c0-2.498-2.141-4.525-4.776-4.525h-.229c-2.632 0-4.776 2.03-4.776 4.525L7.39 8.552c.137-.01.277-.014.422-.014h8.914c1.197 0 2.131.316 2.78.938.672.642 1.018 1.6 1.035 2.847v7.506c-.017 1.247-.363 2.205-1.035 2.847-.649.625-1.583.937-2.78.937H7.812c-1.197 0-2.131-.316-2.777-.937-.669-.646-1.008-1.607-1.008-2.85l.003-6.962-.002-.309-.001-.229c0-1.247.34-2.205 1.008-2.85.435-.42 1.001-.7 1.69-.838l.001-3.418c0-2.864 2.44-5.193 5.442-5.193h.229zm4.326 9.227H7.812c-1.009 0-1.778.249-2.286.74-.528.497-.797 1.283-.797 2.332l.003.304v.237l-.003 6.965c0 1.045.266 1.835.794 2.343.507.49 1.277.74 2.285.74h8.915c2.067 0 3.082-1.01 3.109-3.083v-7.496c-.027-2.074-1.042-3.082-3.11-3.082zm-4.44 10.437c.342 0 .567.178.567.564 0 .185-.053.32-.144.414-.098.1-.245.148-.424.148-.178 0-.322-.047-.423-.148-.094-.09-.145-.229-.145-.414 0-.386.225-.564.568-.564zm.003-2.86c1.6 0 2.83.43 3.653 1.283a.358.358 0 01-.006.501.358.358 0 01-.501-.007c-.69-.709-1.748-1.069-3.146-1.069-1.399 0-2.468.364-3.153 1.076a.38.38 0 01-.256.104.353.353 0 01-.255-.598c.827-.857 2.057-1.29 3.664-1.29zm0-3.396c2.376 0 4.198.636 5.415 1.893a.358.358 0 01-.007.5.358.358 0 01-.5-.006c-1.08-1.113-2.733-1.677-4.908-1.677-2.185 0-3.839.568-4.918 1.687a.358.358 0 01-.255.104.353.353 0 01-.256-.598c1.217-1.264 3.046-1.903 5.429-1.903z" fill="#313235" fill-rule="nonzero"/></svg>