<svg width="64" height="64" viewBox="0 0 64 64" xmlns="http://www.w3.org/2000/svg"><path d="M32.32.5C40.314.5 46.83 6.712 46.83 14.34a.884.884 0 01-.887.887.884.884 0 01-.887-.887c0-6.66-5.71-12.065-12.738-12.065h-.61c-7.018 0-12.736 5.414-12.736 12.065l-.001 8.892c.363-.024.737-.036 1.121-.036h23.771c3.191 0 5.683.842 7.413 2.5 1.793 1.713 2.716 4.267 2.761 7.593v20.015c-.045 3.326-.968 5.88-2.76 7.593-1.73 1.667-4.223 2.5-7.414 2.5H20.093c-3.191 0-5.683-.842-7.404-2.5C10.905 59.176 10 56.612 10 53.296l.009-18.564c-.005-.545-.007-.914-.008-1.14L10 33.298c0-3.326.905-5.88 2.69-7.601 1.159-1.118 2.669-1.865 4.507-2.233v-9.115C17.198 6.712 23.706.5 31.71.5h.61zm11.535 24.605H20.093c-2.69 0-4.742.663-6.095 1.972-1.408 1.327-2.125 3.424-2.125 6.22v.042c.002.122.008.49.01 1.207v.195l-.01 18.572c0 2.788.709 4.895 2.116 6.248 1.353 1.309 3.406 1.972 6.095 1.972h23.771c5.513 0 8.22-2.689 8.292-8.22V33.325c-.072-5.53-2.779-8.22-8.292-8.22zm-11.84 27.832c.914 0 1.514.475 1.514 1.506 0 .493-.143.851-.385 1.102-.26.27-.654.395-1.13.395-.475 0-.86-.126-1.129-.395-.25-.242-.385-.61-.385-1.102 0-1.031.6-1.506 1.515-1.506zm.009-7.628c4.266 0 7.547 1.147 9.743 3.424a.955.955 0 01-.018 1.336.955.955 0 01-1.336-.018c-1.837-1.892-4.66-2.85-8.39-2.85-3.728 0-6.579.967-8.407 2.868-.18.17-.43.277-.682.277a.941.941 0 01-.94-.94c0-.243.098-.476.26-.655 2.204-2.286 5.485-3.442 9.77-3.442zm0-9.053c6.337 0 11.195 1.694 14.44 5.046a.955.955 0 01-.018 1.336.955.955 0 01-1.336-.018c-2.877-2.967-7.287-4.473-13.086-4.473-5.827 0-10.237 1.515-13.114 4.5a.955.955 0 01-.681.278.941.941 0 01-.942-.942c0-.242.099-.475.26-.654 3.245-3.37 8.121-5.073 14.477-5.073z" fill="#313235" fill-rule="nonzero"/></svg>