<svg width="64" height="64" viewBox="0 0 64 64" xmlns="http://www.w3.org/2000/svg"><path d="M48.08 5.36c.243 0 .467.099.637.26L62.7 19.603a.883.883 0 01.157.213.893.893 0 01.104.555v34.997c0 .574-.046 1.237-.422 1.757-.377.52-.977.789-1.802.789H30.566c-1.658 0-2.609-.96-2.609-2.627V7.933c0-1.632.95-2.564 2.6-2.573h.188c2.4-.008 17.18 0 17.336 0zM12.353 28.083c.04 0 .078.002.116.007l-.116-.007a.888.888 0 01.496.15l.022.016a.81.81 0 01.118.094l7.772 7.771c.17.17.26.395.26.637v19.298c0 1.085-.7 1.793-1.793 1.793l-8.56.009H1.829C.699 57.851 0 57.143 0 56.004V29.903c0-1.12.7-1.82 1.829-1.82h10.523zM47.193 7.16H30.566c-.7 0-.807.19-.807.78v47.355c0 .682.144.834.816.834 1.502-.006 11.976-.008 18.587-.009h11.575a.917.917 0 00.35-.045c.018-.045.08-.206.08-.708V21.144l-6.086.001c-4.867 0-7.888-3.02-7.888-7.888V7.161zM11.455 29.884H1.793v26.174h17.434l-.001-18.412-2.213.001c-1.793 0-3.182-.484-4.132-1.425-.95-.941-1.426-2.34-1.426-4.132v-2.206zm4.025 20.751c.493 0 .896.404.896.897a.899.899 0 01-.896.896H5.575a.899.899 0 01-.896-.896c0-.493.403-.897.896-.897h9.905zm0-4.66c.493 0 .896.403.896.896a.899.899 0 01-.896.896H5.575a.899.899 0 01-.896-.896c0-.493.403-.897.896-.897h9.905zm39.709-.386c.493 0 .896.403.896.896a.899.899 0 01-.896.897H35.747a.899.899 0 01-.897-.897c0-.493.404-.896.897-.896h19.442zM15.48 41.313c.493 0 .896.404.896.897a.899.899 0 01-.896.896H5.575a.899.899 0 01-.896-.896c0-.493.403-.897.896-.897h9.905zm39.709-4.535c.493 0 .896.403.896.896a.899.899 0 01-.896.896H35.747a.899.899 0 01-.897-.896c0-.493.404-.896.897-.896h19.442zm-37.235-.924l-4.706-4.706v.942c0 2.6 1.165 3.764 3.765 3.764h.941zm37.235-7.834c.493 0 .896.404.896.897a.899.899 0 01-.896.896H35.747a.899.899 0 01-.897-.896c0-.493.404-.897.897-.897h19.442zM17.255 9.86c.09.08 2.223 1.891 3.003 2.671 1.03 1.03 1.04 2.214.018 3.227-.395.394-2.752 2.42-3.021 2.644a.915.915 0 01-.583.215.899.899 0 01-.896-.896c0-.26.116-.51.314-.681.692-.595 1.66-1.438 2.296-2h-3.533c-2.322 0-4.06.548-5.181 1.623-1.157 1.112-1.748 2.905-1.748 5.316v2.662a.886.886 0 01-.888.896.899.899 0 01-.896-.896v-2.662c0-2.913.77-5.136 2.295-6.606 1.46-1.408 3.621-2.125 6.418-2.125h3.552a97.98 97.98 0 00-2.315-2.026.895.895 0 111.165-1.362zm42.649 9.492L48.985 8.425l.001 4.832c0 3.872 2.223 6.095 6.095 6.095h4.823z" fill="#313235" fill-rule="nonzero"/></svg>