<svg width="24" height="24" viewBox="0 0 24 24" xmlns="http://www.w3.org/2000/svg"><path d="M22.245 17.442c-.255.255-.571.393-.877.393h-1.3c-.216-1.694-1.4-2.696-3.261-2.696-.276 0-.541.02-.787.071V6.635h1.257c.474 0 .985.252 1.25.619a650.97 650.97 0 003.497 4.622c.225.295.601.786.601 1.227l.01 3.468c.004.303-.144.626-.39.871zm-5.438 3.284c-1.516 0-2.316-.793-2.316-2.302 0-1.51.796-2.303 2.316-2.303 1.52 0 2.316.793 2.316 2.303 0 1.509-.8 2.302-2.316 2.302zm-3.26-2.89H8.244c-.215-1.695-1.398-2.697-3.26-2.697-1.859 0-3.035 1.002-3.25 2.696h-.226a.526.526 0 01-.524-.517V3.519c0-.285.235-.52.52-.52l13.006.01a.52.52 0 01.524.52v12.014c-.83.44-1.351 1.223-1.489 2.292zm-8.562 2.89c-1.516 0-2.316-.793-2.316-2.302 0-1.51.797-2.303 2.316-2.303 1.52 0 2.316.793 2.316 2.303 0 1.509-.8 2.302-2.316 2.302zm18.628-7.623c0-.774-.52-1.46-.81-1.822a994.9 994.9 0 01-3.479-4.599c-.453-.628-1.26-1.028-2.047-1.028h-1.26V3.526c0-.823-.672-1.5-1.51-1.5L1.51 2.02C.67 2.02 0 2.696 0 3.52v13.794c0 .824.672 1.5 1.506 1.5h.208c.152 1.811 1.341 2.89 3.27 2.89 1.934 0 3.124-1.079 3.271-2.89h5.281c.158 1.811 1.341 2.89 3.27 2.89 1.933 0 3.123-1.079 3.271-2.89h1.291c.571 0 1.143-.246 1.577-.676.433-.43.679-1.002.679-1.567l-.01-3.468z" fill="#313235" fill-rule="nonzero"/></svg>