<svg width="64" height="64" viewBox="0 0 64 64" xmlns="http://www.w3.org/2000/svg"><path d="M59.821 46.925c-.681.681-1.524 1.049-2.34 1.049h-3.468c-.574-4.518-3.73-7.19-8.695-7.19-.735 0-1.443.055-2.098.19V18.106h3.353c1.264 0 2.626.672 3.334 1.65 1.264 1.72 8.435 11.177 9.322 12.324.601.789 1.605 2.098 1.605 3.272l.027 9.25c.009.807-.386 1.668-1.04 2.322zm-14.503 8.757c-4.043 0-6.176-2.115-6.176-6.14 0-4.024 2.124-6.14 6.176-6.14 4.051 0 6.176 2.116 6.176 6.14 0 4.025-2.133 6.14-6.176 6.14zm-8.695-7.708H22.488c-.574-4.518-3.73-7.19-8.695-7.19-4.957 0-8.094 2.672-8.668 7.19h-.6c-.762 0-1.39-.619-1.399-1.38V9.797c0-.762.628-1.39 1.39-1.39l34.68.027c.789 0 1.398.628 1.398 1.39V41.86c-2.214 1.174-3.603 3.262-3.97 6.113zm-22.83 7.708c-4.043 0-6.176-2.115-6.176-6.14 0-4.024 2.124-6.14 6.176-6.14s6.176 2.116 6.176 6.14c0 4.025-2.133 6.14-6.176 6.14zm49.676-20.33c0-2.06-1.39-3.89-2.16-4.857-.896-1.157-8.005-10.56-9.277-12.263-1.21-1.676-3.362-2.742-5.46-2.742h-3.36V9.816c0-2.196-1.793-3.998-4.025-3.998L4.525 5.8A4.007 4.007 0 00.5 9.798v36.786c0 2.196 1.793 3.998 4.016 3.998h.555c.404 4.831 3.577 7.709 8.722 7.709 5.154 0 8.327-2.878 8.722-7.709h14.081c.422 4.831 3.577 7.709 8.722 7.709 5.154 0 8.327-2.878 8.721-7.709h3.443c1.523 0 3.047-.654 4.203-1.802 1.157-1.147 1.811-2.67 1.811-4.177l-.027-9.25z" fill="#313235" fill-rule="nonzero"/></svg>