<svg width="24" height="24" viewBox="0 0 24 24" xmlns="http://www.w3.org/2000/svg"><path d="M20.783 9.54l-2.13-1.036a.498.498 0 00-.471.027.497.497 0 00-.226.42l.04 13.688H5.934l.04-13.688a.488.488 0 00-.696-.447L3.092 9.553 1.11 5.136l6.572-3.818C7.96 3.63 9.455 4.89 11.966 4.89c2.505 0 3.994-1.26 4.276-3.557l6.286 3.805-1.745 4.4zm2.602-5.032L16.06.07c-.004-.004-.01-.004-.014-.004a.442.442 0 00-.118-.04c-.026-.007-.053-.014-.084-.017-.01 0-.016-.007-.027-.007-.016 0-.03.007-.047.01a.514.514 0 00-.12.024l-.044.02a.413.413 0 00-.121.084c-.007.004-.014.014-.02.02-.024.027-.054.047-.071.081-.01.02-.013.037-.02.057 0 .004-.004.007-.004.007a.464.464 0 00-.037.191c0 2.293-1.099 3.406-3.364 3.406-2.262 0-3.362-1.116-3.362-3.409a.486.486 0 00-.73-.427L.246 4.504a.496.496 0 00-.201.632l2.37 5.28a.485.485 0 00.652.243l1.936-.928-.04 13.402c0 .13.05.259.14.35.091.093.216.144.343.144h13.042c.128 0 .252-.05.343-.145a.502.502 0 00.141-.35l-.04-13.394 1.9.92a.484.484 0 00.662-.262l2.094-5.277a.495.495 0 00-.202-.611z" fill="#313235" fill-rule="nonzero"/></svg>