<svg width="64" height="64" xmlns="http://www.w3.org/2000/svg"><path d="M55.422 25.439l-5.683-2.761a1.328 1.328 0 00-1.255.072c-.376.242-.6.663-.6 1.12l.107 36.5h-32.17l.107-36.5c0-.448-.224-.87-.6-1.111a1.302 1.302 0 00-1.255-.081l-5.827 2.797-5.288-11.779L20.482 3.514c.744 6.167 4.733 9.528 11.428 9.528 6.678 0 10.65-3.361 11.402-9.483l16.762 10.146-4.652 11.734zM62.36 12.02L42.828.188C42.819.18 42.801.18 42.792.18a1.179 1.179 0 00-.314-.107 1.652 1.652 0 00-.224-.045c-.027 0-.044-.018-.071-.018-.045 0-.081.018-.126.027a1.37 1.37 0 00-.323.063c-.044.018-.08.035-.116.053a1.102 1.102 0 00-.323.224c-.018.01-.036.036-.054.054-.062.072-.143.126-.188.215-.027.054-.036.099-.054.153 0 .009-.009.018-.009.018a1.237 1.237 0 00-.098.51c0 6.114-2.931 9.08-8.973 9.08-6.032 0-8.963-2.975-8.963-9.088A1.295 1.295 0 0021.01.18L.654 12.01a1.323 1.323 0 00-.537 1.685l6.319 14.082c.143.323.403.565.735.69.323.126.69.108 1.004-.044l5.163-2.474-.108 35.737c0 .35.135.69.377.933.242.25.573.385.914.385H49.3c.34 0 .672-.134.914-.385s.376-.583.376-.933l-.107-35.72 5.064 2.457c.323.152.69.17 1.031.035.332-.125.6-.394.735-.735l5.584-14.072c.242-.619.018-1.3-.537-1.632z" fill="#313235" fill-rule="nonzero"/></svg>