<svg width="24" height="24" viewBox="0 0 24 24" xmlns="http://www.w3.org/2000/svg"><path d="M16.582 7.039a.493.493 0 010 .695L12.5 11.815l4.08 4.084a.49.49 0 01-.013.696.49.49 0 01-.682 0l-4.081-4.084-4.07 4.07a.493.493 0 01-.696-.695l4.07-4.07-4.07-4.068a.493.493 0 01.695-.696l4.071 4.07 4.084-4.083a.489.489 0 01.693 0zm-4.774 15.6c7.187 0 10.83-3.64 10.83-10.824 0-7.186-3.643-10.83-10.83-10.83C4.625.985.985 4.629.985 11.815c0 7.183 3.64 10.824 10.823 10.824zm0-22.639c7.463 0 11.816 3.768 11.816 11.815S19.27 23.624 11.808 23.624C4.346 23.624 0 19.862 0 11.815 0 3.768 4.346 0 11.808 0z" fill="#5CB615" fill-rule="nonzero"/></svg>