<svg width="64" height="64" viewBox="0 0 64 64" xmlns="http://www.w3.org/2000/svg"><path d="M32.249 37.672c11.626.125 18.402 7.52 18.69 7.834.474.547.411 1.38-.135 1.856a1.315 1.315 0 01-1.82-.099c-.063-.063-6.337-6.848-16.807-6.965-.143.01-10.73-.35-17.156 6.84a1.317 1.317 0 01-1.855.107 1.317 1.317 0 01-.108-1.855c7.27-8.13 18.716-7.709 19.191-7.718zm-.26 23.198c19.164 0 28.88-9.708 28.88-28.863 0-19.164-9.716-28.88-28.88-28.88-19.155 0-28.863 9.716-28.863 28.88 0 19.155 9.708 28.863 28.863 28.863zm0-60.37c19.9 0 31.507 10.048 31.507 31.507 0 21.459-11.608 31.49-31.507 31.49C12.09 63.496.5 53.465.5 32.006.5 10.548 12.09.5 31.99.5zm-9.546 26.523c-1.049 0-1.918-.322-2.519-.932-.592-.6-.887-1.434-.887-2.483 0-2.142 1.273-3.415 3.406-3.415s3.406 1.282 3.406 3.415c0 1.049-.296 1.882-.887 2.483-.6.61-1.47.932-2.52.932zm19.11 0c-1.049 0-1.918-.322-2.519-.932-.591-.6-.887-1.434-.887-2.483 0-2.142 1.273-3.415 3.406-3.415 2.134 0 3.406 1.282 3.406 3.415 0 1.049-.295 1.882-.887 2.483-.6.61-1.47.932-2.519.932z" fill="#313235" fill-rule="nonzero"/></svg>