<svg width="24" height="24" viewBox="0 0 24 24" xmlns="http://www.w3.org/2000/svg"><path d="M10.29.02c.83 0 1.505.68 1.505 1.516v1.2h.29c1.674-.003 10.033-.003 10.033-.003.83 0 1.506.679 1.506 1.516v13.94c0 .836-.676 1.515-1.506 1.515H1.509C.676 19.704 0 19.025 0 18.188V1.536C0 .7.676.02 1.51.02h8.78zm.002.988H1.51a.526.526 0 00-.524.528v16.656c0 .289.235.524.524.524h20.609a.527.527 0 00.52-.528V4.248a.522.522 0 00-.52-.524H11.304a.49.49 0 01-.49-.494V1.536a.527.527 0 00-.522-.528zm-2.329 11.49c1.096 0 1.513.702 1.513 2.053 0 1.352-.417 2.047-1.513 2.047-1.096 0-1.513-.695-1.513-2.047 0-1.348.417-2.054 1.513-2.054zm10.948 0c1.096 0 1.513.702 1.513 2.053 0 1.352-.417 2.047-1.513 2.047-1.096 0-1.513-.695-1.513-2.047 0-1.348.417-2.054 1.513-2.054zm-7.284.117c.403 0 .541.098.541.387v2.985h.558v.581h-2.034v-.585h.666v-2.75h-.635v-.55c.232-.034.625-.068.904-.068zm3.492 0c.404 0 .542.098.542.387v2.985h.557v.581h-2.033v-.585h.662v-2.75h-.632v-.55c.232-.034.625-.068.904-.068zm-11.482-.003c.403 0 .541.097.541.386v2.985h.558v.582H2.703v-.585h.662v-2.75h-.632v-.551c.232-.034.625-.067.904-.067zm4.326.49c-.467 0-.652.357-.652 1.45 0 1.092.185 1.384.652 1.384s.652-.296.652-1.385-.185-1.448-.652-1.448zm10.945 0c-.468 0-.653.357-.653 1.45 0 1.092.185 1.384.653 1.384.467 0 .652-.296.652-1.385s-.185-1.448-.652-1.448zM7.963 6.014c1.096 0 1.513.703 1.513 2.054s-.417 2.047-1.513 2.047c-1.096 0-1.513-.696-1.513-2.047 0-1.348.417-2.054 1.513-2.054zm-4.31 0c1.097 0 1.513.703 1.513 2.054s-.416 2.047-1.512 2.047S2.14 9.418 2.14 8.067c0-1.348.417-2.054 1.513-2.054zm15.258 0c1.096 0 1.513.703 1.513 2.054s-.417 2.047-1.513 2.047c-1.096 0-1.513-.696-1.513-2.047 0-1.348.417-2.054 1.513-2.054zm-7.284.118c.403 0 .541.098.541.387v2.985h.558v.581h-2.034v-.585h.666V6.75h-.635V6.2c.232-.034.625-.068.904-.068zm3.492 0c.404 0 .542.098.542.387v2.985h.557v.581h-2.033v-.585h.662V6.75h-.632V6.2c.232-.034.625-.068.904-.068zm-7.156.487c-.467 0-.652.357-.652 1.45 0 1.092.185 1.384.652 1.384s.652-.296.652-1.385-.185-1.449-.652-1.449zm-4.31 0c-.466 0-.651.357-.651 1.45 0 1.092.185 1.384.652 1.384s.652-.296.652-1.385-.185-1.449-.652-1.449zm15.255 0c-.468 0-.653.357-.653 1.45 0 1.092.185 1.384.653 1.384.467 0 .652-.296.652-1.385s-.185-1.449-.652-1.449z" fill="#5CB615" fill-rule="nonzero"/></svg>