<svg width="64" height="64" xmlns="http://www.w3.org/2000/svg"><path d="M58.73 52.383H4.006C1.802 52.365.017 50.573 0 48.36V4.069C.018 1.846 1.802.054 4.007.045H27.33A4.022 4.022 0 0130.207 1.2a4.06 4.06 0 011.21 2.868v3.183h27.321a4.022 4.022 0 012.878 1.156 4.06 4.06 0 011.21 2.868V48.35a4.06 4.06 0 01-1.21 2.868 4.014 4.014 0 01-2.887 1.165zM4.006 2.671c-.762 0-1.39.628-1.39 1.398v44.29c0 .77.619 1.398 1.39 1.398h54.731c.368 0 .717-.144.977-.412.26-.26.404-.619.404-.986V11.285c0-.367-.144-.726-.404-.986s-.61-.412-.977-.412h-28.8a1.312 1.312 0 01-1.308-1.318v-4.5c0-.744-.574-1.353-1.309-1.398H4.007z" fill="#313235" fill-rule="nonzero"/></svg>