<svg width="64" height="64" viewBox="0 0 64 64" xmlns="http://www.w3.org/2000/svg"><path d="M27.438.054c2.214 0 4.015 1.81 4.015 4.042v3.2h.038c1.13-.009 27.49-.009 27.49-.009 2.213 0 4.015 1.811 4.015 4.043v37.172c0 2.232-1.802 4.043-4.016 4.043H4.025C1.802 52.545 0 50.734 0 48.502V4.096C0 1.864 1.802.054 4.025.054h23.413zm.008 2.635H4.025c-.771 0-1.399.628-1.399 1.407v44.415a1.4 1.4 0 001.399 1.398H58.98c.762 0 1.39-.636 1.39-1.407V11.33c0-.77-.619-1.398-1.39-1.398H30.145a1.306 1.306 0 01-1.31-1.318V4.096c0-.77-.618-1.398-1.389-1.407zm-6.211 30.638c2.922 0 4.033 1.873 4.033 5.476 0 3.604-1.111 5.46-4.033 5.46-2.922 0-4.034-1.856-4.034-5.46 0-3.594 1.112-5.476 4.034-5.476zm29.194 0c2.922 0 4.034 1.873 4.034 5.476 0 3.604-1.112 5.46-4.034 5.46-2.922 0-4.033-1.856-4.033-5.46 0-3.594 1.111-5.476 4.033-5.476zm-19.424.313c1.076 0 1.443.26 1.443 1.031v7.96h1.488v1.55h-5.423v-1.56h1.775V35.29h-1.694v-1.47c.618-.09 1.667-.18 2.411-.18zm9.313 0c1.076 0 1.443.26 1.443 1.031v7.96h1.488v1.55h-5.423v-1.56h1.766V35.29h-1.685v-1.47c.618-.09 1.667-.18 2.411-.18zm-30.62-.009c1.076 0 1.444.26 1.444 1.031v7.96h1.488v1.55H7.207v-1.56h1.766v-7.331H7.287v-1.47c.619-.09 1.668-.18 2.412-.18zm11.537 1.31c-1.246 0-1.74.95-1.74 3.862 0 2.914.494 3.693 1.74 3.693s1.739-.788 1.739-3.693c0-2.904-.493-3.863-1.74-3.863zm29.185 0c-1.246 0-1.739.95-1.739 3.862 0 2.914.493 3.693 1.74 3.693 1.245 0 1.738-.788 1.738-3.693 0-2.904-.493-3.863-1.739-3.863zM21.235 16.035c2.922 0 4.033 1.873 4.033 5.477 0 3.603-1.111 5.458-4.033 5.458-2.922 0-4.034-1.855-4.034-5.458 0-3.595 1.112-5.477 4.034-5.477zm-11.492 0c2.923 0 4.034 1.873 4.034 5.477 0 3.603-1.111 5.458-4.034 5.458-2.922 0-4.033-1.855-4.033-5.458 0-3.595 1.111-5.477 4.033-5.477zm40.686 0c2.922 0 4.034 1.873 4.034 5.477 0 3.603-1.112 5.458-4.034 5.458-2.922 0-4.033-1.855-4.033-5.458 0-3.595 1.111-5.477 4.033-5.477zm-19.424.314c1.076 0 1.443.26 1.443 1.03v7.96h1.488v1.55h-5.423v-1.559h1.775V18h-1.694v-1.47c.618-.09 1.667-.18 2.411-.18zm9.313 0c1.076 0 1.443.26 1.443 1.03v7.96h1.488v1.55h-5.423v-1.559h1.766V18h-1.685v-1.47c.618-.09 1.667-.18 2.411-.18zm-19.083 1.3c-1.246 0-1.74.95-1.74 3.863 0 2.913.494 3.693 1.74 3.693s1.739-.79 1.739-3.693c0-2.905-.493-3.864-1.74-3.864zm-11.492 0c-1.246 0-1.739.95-1.739 3.863 0 2.913.493 3.693 1.74 3.693 1.245 0 1.738-.79 1.738-3.693 0-2.905-.493-3.864-1.739-3.864zm40.677 0c-1.246 0-1.739.95-1.739 3.863 0 2.913.493 3.693 1.74 3.693 1.245 0 1.738-.79 1.738-3.693 0-2.905-.493-3.864-1.739-3.864z" fill="#313235" fill-rule="nonzero"/></svg>