<svg width="24" height="24" viewBox="0 0 24 24" xmlns="http://www.w3.org/2000/svg"><path d="M22.024 19.644H1.503A1.519 1.519 0 010 18.134V1.526A1.514 1.514 0 011.503.016h8.746c.403-.006.79.152 1.079.434.289.283.45.673.454 1.076V2.72h10.245c.403-.006.79.152 1.079.434.289.282.45.672.454 1.076V18.13a1.522 1.522 0 01-1.536 1.513zM1.503 1.002a.524.524 0 00-.521.524v16.608c0 .29.231.525.52.525h20.525a.524.524 0 00.518-.524V4.231a.524.524 0 00-.518-.524h-10.8a.492.492 0 01-.49-.495V1.526a.523.523 0 00-.492-.524H1.503z" fill="#5CB615" fill-rule="nonzero"/></svg>