<svg width="24" height="24" viewBox="0 0 24 24" xmlns="http://www.w3.org/2000/svg"><path d="M22.635 16.01v-3.543a.527.527 0 00-.52-.534h-9.762c-1.166 0-2.118.975-2.118 2.178v.262c0 1.2.948 2.175 2.118 2.175h9.765a.531.531 0 00.517-.538zm-1.855 3.765l-.004-2.215h-8.423c-1.711 0-3.106-1.432-3.106-3.19v-.262c0-1.762 1.392-3.194 3.106-3.194h8.403l-.003-2.094c.03-.618-.114-1.106-.427-1.445-.313-.343-.776-.525-1.344-.531L2.787 6.85v-.01a2.693 2.693 0 01-1.795-.695V19.65c-.03.609.117 1.093.426 1.432.316.343.8.535 1.369.542l16.198-.007c.988.007 1.795-.824 1.795-1.842zM.992 3.939v.04c0 .495.184.959.527 1.308.105.108.226.199.353.276v-.47c0-.885.713-1.6 1.59-1.6l14-1.006V1.062L2.824 2.094a1.79 1.79 0 00-1.305.541c-.343.347-.527.81-.527 1.304zm17.919.085a.6.6 0 00-.605-.589l-.35.027h-.003L3.496 4.501c-.367 0-.639.265-.639.588v.74l16.054.006V4.024zm3.207 6.894c.83 0 1.506.695 1.506 1.55v3.542c0 .854-.676 1.55-1.506 1.55h-.353l.003 2.215c0 1.58-1.247 2.864-2.783 2.864l-16.202.006c-.844-.006-1.58-.312-2.084-.86-.497-.545-.74-1.29-.692-2.155V3.94c0-.764.289-1.483.813-2.024a2.73 2.73 0 011.97-.84L17.923.006a.484.484 0 01.37.135c.1.098.157.232.157.37v1.93c.824.083 1.453.759 1.453 1.583v1.96c.45.137.847.366 1.15.698.497.545.735 1.294.692 2.165l.003 2.067h.37v.004zm-9.53 4.299a.965.965 0 00.951-.978.965.965 0 00-.95-.978c-.525 0-.952.44-.952.978 0 .537.427.978.951.978zm0-2.972c1.07 0 1.936.894 1.936 1.994 0 1.099-.87 1.993-1.936 1.993-1.069 0-1.94-.894-1.94-1.993 0-1.1.871-1.994 1.94-1.994z" fill="#313235" fill-rule="nonzero"/></svg>