<svg width="64" height="64" viewBox="0 0 64 64" xmlns="http://www.w3.org/2000/svg"><path d="M60.858 44.481v-9.448c0-.788-.618-1.425-1.39-1.425h-26.03c-3.11 0-5.646 2.6-5.646 5.809v.699c0 3.2 2.527 5.8 5.647 5.8h26.039c.762-.01 1.38-.646 1.38-1.435zm-4.948 10.04l-.009-5.908H33.44c-4.563 0-8.283-3.818-8.283-8.506v-.7c0-4.696 3.711-8.515 8.283-8.515h22.409l-.01-5.584c.081-1.65-.304-2.949-1.138-3.854-.833-.915-2.07-1.399-3.585-1.417l-43.187.018v-.027c-1.783 0-3.45-.672-4.786-1.855v36.016c-.081 1.622.313 2.913 1.138 3.818.843.914 2.133 1.425 3.648 1.443l43.196-.018c2.635.018 4.786-2.196 4.786-4.912zM3.142 12.292v.107c0 1.318.493 2.555 1.407 3.487.278.287.6.53.941.735v-1.255c0-2.357 1.9-4.266 4.24-4.266l37.333-2.68V4.62L8.027 7.372c-1.372 0-2.573.52-3.478 1.443-.914.923-1.407 2.16-1.407 3.478zm47.785.224c0-.86-.726-1.569-1.614-1.569l-.932.072h-.009L9.82 13.79c-.977 0-1.704.708-1.704 1.568v1.972l42.81.018v-4.831zm8.55 18.384c2.215 0 4.017 1.856 4.017 4.132v9.448c0 2.277-1.802 4.132-4.016 4.132h-.941l.009 5.907c0 4.213-3.326 7.637-7.422 7.637l-43.205.018c-2.25-.018-4.213-.833-5.557-2.294C1.035 58.428.39 56.439.515 54.135V12.293c0-2.035.771-3.953 2.17-5.396 1.407-1.443 3.262-2.241 5.252-2.241l40.354-2.85c.35-.036.717.107.986.358.27.26.422.618.422.986v5.145c2.196.224 3.872 2.026 3.872 4.222v5.226c1.201.367 2.259.977 3.065 1.864 1.327 1.452 1.963 3.451 1.847 5.773l.009 5.512h.986v.01zm-25.41 11.465c1.397 0 2.536-1.166 2.536-2.609s-1.139-2.608-2.537-2.608-2.537 1.174-2.537 2.608c0 1.434 1.139 2.609 2.537 2.609zm0-7.924c2.85 0 5.162 2.384 5.162 5.315 0 2.931-2.321 5.316-5.163 5.316-2.85 0-5.172-2.385-5.172-5.316 0-2.93 2.322-5.315 5.172-5.315z" fill="#313235" fill-rule="nonzero"/></svg>