<svg width="64" height="64" viewBox="0 0 64 64" xmlns="http://www.w3.org/2000/svg"><path d="M60.36 42.694v-9.448c0-.789-.618-1.425-1.389-1.425h-26.03c-3.11 0-5.647 2.6-5.647 5.808v.7c0 3.2 2.528 5.799 5.647 5.799h26.04c.761-.01 1.38-.646 1.38-1.434zm-4.947 10.039l-.01-5.907H32.942c-4.562 0-8.282-3.819-8.282-8.507v-.699c0-4.697 3.71-8.515 8.282-8.515h22.41l-.01-5.585c.08-1.649-.305-2.949-1.138-3.854-.834-.914-2.07-1.398-3.586-1.416l-43.186.018v-.027c-1.784 0-3.451-.672-4.787-1.856v36.016c-.08 1.623.314 2.913 1.139 3.819.842.914 2.133 1.425 3.648 1.443l43.195-.018c2.636.018 4.787-2.196 4.787-4.912zM2.644 10.505v.108c0 1.318.493 2.555 1.408 3.487.277.287.6.529.94.735V13.58c0-2.358 1.901-4.267 4.24-4.267l37.334-2.68v-3.8L7.529 5.583c-1.371 0-2.572.52-3.477 1.443-.915.924-1.408 2.16-1.408 3.478zm47.785.224c0-.86-.726-1.568-1.613-1.568l-.933.071h-.008l-38.553 2.77c-.977 0-1.703.708-1.703 1.569v1.972l42.81.018v-4.832zm8.551 18.385c2.214 0 4.016 1.855 4.016 4.132v9.448c0 2.276-1.802 4.132-4.016 4.132h-.94l.008 5.907c0 4.213-3.325 7.637-7.422 7.637l-43.204.018c-2.25-.018-4.213-.834-5.558-2.295C.538 56.641-.108 54.651.018 52.347V10.505c0-2.034.77-3.953 2.17-5.396C3.593 3.666 5.45 2.87 7.44 2.87L47.794.017c.35-.036.717.107.986.358.269.26.421.619.421.986v5.146c2.196.224 3.872 2.025 3.872 4.221v5.226c1.202.368 2.26.977 3.066 1.865 1.327 1.452 1.963 3.45 1.846 5.772l.01 5.513h.985v.009zM33.57 40.578c1.398 0 2.536-1.165 2.536-2.608s-1.138-2.609-2.536-2.609c-1.399 0-2.537 1.175-2.537 2.609s1.138 2.608 2.537 2.608zm0-7.924c2.85 0 5.163 2.385 5.163 5.316 0 2.93-2.322 5.315-5.163 5.315-2.85 0-5.172-2.384-5.172-5.315 0-2.931 2.321-5.316 5.172-5.316z" fill="#313235" fill-rule="nonzero"/></svg>