<svg width="24" height="24" viewBox="0 0 24 24" xmlns="http://www.w3.org/2000/svg"><path d="M21.22 10.955C21.153 1.916 16.013 0 11.694 0c-4.32 0-9.53 1.926-9.53 11.106C.767 11.889 0 13.442 0 15.68c0 3.2 1.536 5.015 4.323 5.166h.45c1.88-.07 2.609-1.526 2.609-5.176 0-3.65-.73-5.116-2.589-5.177H4.33c-.396.02-.79.084-1.17.192.118-6.42 2.982-9.681 8.535-9.681s8.397 3.24 8.535 9.62a6.72 6.72 0 00-.895-.12h-.473c-1.88.07-2.619 1.525-2.619 5.186 0 2.578.373 4.013 1.25 4.716a10.932 10.932 0 01-4.558 1.435 1.297 1.297 0 00-1.368-1.193 1.312 1.312 0 00-1.089.343c-.295.279-.45.675-.427 1.082-.037.4.084.8.337 1.113.285.292.679.45 1.082.43a1.44 1.44 0 001.113-.36c.114-.12.205-.262.265-.42a11.415 11.415 0 005.778-2.007c.067.004.138.004.205 0h.48c2.787-.13 4.314-2.006 4.314-5.166 0-2.36-.848-3.977-2.404-4.71zm-16.83.55h.353c.699 0 1.654.061 1.654 4.186 0 4.124-.985 4.144-1.752 4.175H4.37C2.097 19.734.985 18.37.985 15.68c0-2.69 1.112-4.064 3.405-4.175zm14.874 8.34h-.71c-.628-.11-1.3-.702-1.3-4.134 0-4.121.985-4.151 1.751-4.185h.286c2.272.111 3.375 1.476 3.375 4.175.003 2.699-1.13 4.033-3.402 4.144z" fill="#5CB615" fill-rule="nonzero"/></svg>