<svg width="64" height="64" viewBox="0 0 64 64" xmlns="http://www.w3.org/2000/svg"><path d="M20.401 18.546h-.143c-.484.027-.941.188-1.246.457-.708.61-.574 1.712-.43 2.312.107.458.295.933.484 1.408a14.69 14.69 0 001.29 2.572c.063.099.117.17.18.26.636.968 1.174 1.64 2.08 2.564.08.09.349.358.573.52.116.08.233.143.35.161l.098.009h.009a.875.875 0 00.412-.18c.224-.16.493-.43.565-.51.825-.86 1.353-1.506 1.918-2.33.117-.162.224-.323.35-.512.403-.636.726-1.255 1.022-1.873.331-.726.591-1.425.762-2.115.17-.735.242-1.74-.43-2.313-.306-.269-.763-.43-1.256-.457-.035 0-.071.009-.107.009-.565-.018-1.12.134-1.658.439-.26.152-.53.296-.816.475l-.278.161-.036.027s-.206.144-.403.135c-.197 0-.395-.117-.395-.117l-.027-.009-.367-.18c-.332-.196-.6-.349-.86-.492-.018-.009-.036-.009-.036-.018-.538-.251-1.085-.403-1.605-.403zm-3.11-1.551c.744-.645 1.757-1.03 2.841-1.085 1.04-.062 2.187.215 3.191.78.108.054.206.117.305.17.108-.053.206-.116.314-.17.672-.376 1.398-.565 2.124-.672.359-.054.726-.126 1.067-.108 1.075.054 2.088.449 2.841 1.094.045.036.063.08.099.116 1.2 1.112 1.64 2.85 1.183 4.814-.108.466-.314.941-.484 1.416a16.775 16.775 0 01-.914 2.035c-.242.457-.448.905-.735 1.362a20.28 20.28 0 01-.673.977 18.572 18.572 0 01-1.89 2.232c-.144.144-.584.592-.96.86-.242.171-.51.306-.789.422a3.09 3.09 0 01-.556.18 2.7 2.7 0 01-.466.071l-.161.009h-.009a3.79 3.79 0 01-.69-.08 3.792 3.792 0 01-1.29-.592 7.712 7.712 0 01-.942-.843 20.71 20.71 0 01-1.255-1.407 20.59 20.59 0 01-1.309-1.81c-.215-.332-.35-.655-.537-.987-.718-1.29-1.3-2.572-1.587-3.827-.484-2.044-.009-3.846 1.282-4.957zm38.606 34.474c2.725-3.236 4.204-7.727 4.41-13.374h-5.755c-.206 3.702-1.228 6.705-3.038 8.982l4.383 4.392zm-15.211 6.23c5.62-.207 10.093-1.668 13.329-4.375l-4.366-4.374c-2.276 1.793-5.27 2.797-8.963 2.994v5.755zm-2.645-8.4c.44.019.843.081 1.3.081.475 0 .897-.062 1.345-.09 3.45-.205 6.185-1.173 8.04-2.957 1.936-1.865 2.967-4.661 3.191-8.247.036-.457.099-.878.099-1.362 0-.457-.063-.852-.09-1.282-.206-3.63-1.255-6.463-3.2-8.345-.466-.448-.995-.825-1.55-1.174-.189 3.388-.825 6.39-1.9 9.008-1.04 2.564-2.484 4.769-4.357 6.561-.923.897-1.963 1.677-3.084 2.367-2.08 1.282-4.481 2.205-7.197 2.779a1.392 1.392 0 00-.189.035c.162.135.34.26.511.386 1.784 1.326 4.16 2.07 7.081 2.24zm0 8.4v-5.755c-3.684-.197-6.686-1.201-8.963-2.985l-4.383 4.383c3.244 2.707 7.717 4.16 13.346 4.357zM20.24 47.193c.672 1.605 1.533 3.039 2.572 4.285l4.303-4.312c-1.13.108-2.304.18-3.532.18a33.865 33.865 0 01-3.343-.153zm-3.765-3.262c.905.215 1.847.385 2.833.51.968.126 1.972.198 3.002.234V38.92a20.536 20.536 0 01-3.872-.565c-.35-.09-.717-.143-1.04-.25-.529-.171-1.004-.404-1.497-.628-.044-.027-.09-.045-.134-.063a12.389 12.389 0 01-2.42-1.479l-4.383 4.383c2.025 1.685 4.526 2.904 7.511 3.613zM2.68 25.07c.206 5.656 1.676 10.147 4.392 13.383l4.392-4.392c-1.82-2.277-2.841-5.28-3.038-8.99H2.68zM7.036 9C4.33 12.253 2.877 16.762 2.68 22.418h5.746c.188-3.72 1.2-6.74 3.003-9.035L7.036 8.999zm15.265-6.301c-5.656.197-10.155 1.685-13.391 4.428l4.365 4.374c2.286-1.828 5.307-2.85 9.026-3.047V2.698zm1.3 8.318c-.457 0-.86.054-1.3.08-3.46.198-6.202 1.166-8.058 2.977-1.936 1.882-2.976 4.715-3.182 8.345-.027.43-.08.825-.08 1.282 0 .484.062.905.089 1.362.188 2.95.941 5.325 2.268 7.117.287.386.556.798.896 1.13.296.269.655.484.977.735.197.152.377.313.6.448.62.376 1.3.699 2.044.959.189.072.368.134.556.188 1.157.35 2.474.547 3.89.628.44.027.843.08 1.3.08.18 0 .332-.036.511-.036.287-.008.556-.035.834-.053.627-.045 1.246-.072 1.82-.162.08-.009.152-.035.241-.053 2.492-.43 4.509-1.327 5.988-2.743 1.936-1.856 2.967-4.661 3.191-8.247.018-.26.054-.51.054-.789.009-.197.036-.367.036-.573 0-.457-.063-.852-.09-1.282-.018-.269-.036-.547-.054-.798-.215-2.196-.744-4.078-1.64-5.602a9.24 9.24 0 00-1.506-1.945c-.143-.144-.332-.242-.475-.368-1.838-1.55-4.383-2.42-7.565-2.608-.449-.018-.87-.072-1.345-.072zm1.345-8.318v5.764c3.71.197 6.74 1.228 9.017 3.056l4.374-4.365C35.083 4.4 30.593 2.904 24.946 2.698zm13.329 37.593l-.036-.027-4.339-4.347c-.421.332-.833.69-1.3.968-1.63.96-3.549 1.587-5.745 1.883-.61.08-1.273.098-1.918.134v5.755c.25-.01.51-.01.744-.027a29.445 29.445 0 002.778-.278c2.931-.43 5.495-1.273 7.646-2.528.79-.448 1.488-.968 2.17-1.533zm-1.488-5.225l3.37 3.379a16.406 16.406 0 002.035-3.084c.439-.86.824-1.783 1.138-2.76.726-2.214 1.13-4.724 1.228-7.52h-5.746c-.08 1.604-.313 3.074-.708 4.41-.52 1.756-1.3 3.28-2.33 4.57l1.013 1.005zm5.933-21.854c-.672-1.568-1.505-2.976-2.518-4.195l-4.177 4.186-.207.198a12.33 12.33 0 011.453 2.357c.295.61.564 1.237.77 1.918.359 1.148.583 2.42.709 3.765.026.323.053.645.071.986h5.746a4.57 4.57 0 00-.018-.359c-.099-2.214-.385-4.248-.887-6.095a20.36 20.36 0 00-.942-2.76zm11.348 6.965c-2.043-1.73-4.562-2.967-7.565-3.702.44 2.008.681 4.186.726 6.535.905.42 1.721.94 2.474 1.532l4.365-4.365zm6.239 15.274c-.197-5.647-1.65-10.156-4.365-13.41l-4.383 4.393c1.801 2.285 2.814 5.306 3.002 9.017h5.746zm-3.648-16.529c4.204 4.052 6.337 10.057 6.337 17.829 0 7.771-2.133 13.759-6.337 17.792-4.034 3.882-9.86 5.845-17.327 5.845-7.457 0-13.275-1.963-17.29-5.845-2.152-2.07-3.747-4.67-4.796-7.753-4.473-.834-8.157-2.582-10.945-5.28C2.124 37.477 0 31.49 0 23.727 0 15.947 2.115 9.95 6.292 5.898c4.025-3.9 9.842-5.88 17.3-5.88 7.467 0 13.293 1.98 17.336 5.871 2.151 2.08 3.747 4.67 4.804 7.736 4.464.842 8.13 2.6 10.927 5.297z" fill="#313235" fill-rule="nonzero"/></svg>