<svg width="24" height="24" viewBox="0 0 24 24" xmlns="http://www.w3.org/2000/svg"><path d="M20.859 10.982c-.69-.511-1.459-.73-2.111-.814.141-.568-.07-1.123-.457-1.516-.004-.003-.08-.084-.084-.084-.215-.208-.521-.171-.743.034-.219.205-.185.585.023.8.303.312.205.564.081.726-.05.003-.11.006-.148.01-.13.013-.282.03-.417.05-.161.02-.322.05-.48.088a.542.542 0 00-.417.652.557.557 0 00.665.406 7.171 7.171 0 01.763-.11c.45-.05 2.004-.115 3.009.944.938 1.224 1.012 2.911 1.012 3.402 0 1.106-.303 4.689-4.152 4.753h-.006c-.293.037-.612-.094-.958-.316-.36-.229-.595-.488-.693-.767a.563.563 0 00-.706-.34.538.538 0 00-.35.68c0 .003.004.007.004.01.178.51.561.961 1.136 1.324.236.152.474.266.71.347-.407.836-1.14 1.284-2.232 1.284-1.328 0-1.816-1.358-1.91-1.664.004-.242.007-.989 0-1.173V3.926c0-.225.007-1.069.01-1.355.128-.312.69-1.485 1.903-1.485 1.086 0 1.818.443 2.225 1.274-.887.309-1.462 1.048-1.72 1.771l-.078.225a.541.541 0 00.366.68c.054.016.111.023.165.023a.553.553 0 00.531-.383l.064-.185c.131-.363.591-1.194 1.55-1.19 3.845.01 4.147 3.647 4.147 4.763-.01.427-.067 1.771-.702 2.918M9.369 22.538c-1.075 0-1.804-.434-2.214-1.247.272-.08.544-.205.813-.38.575-.366.958-.814 1.136-1.324a.54.54 0 00-.336-.686c-.003 0-.007-.004-.013-.004a.56.56 0 00-.706.34c-.098.279-.33.538-.693.77-.343.222-.665.35-.954.316-.024 0-.044.01-.064.013-.02-.003-.04-.01-.06-.01-3.86 0-4.162-3.644-4.162-4.763 0-.444.067-1.859.763-3.029.31.145.655.253 1.066.286.043.004.084.004.127.004-.02.756.48 1.304 1.106 1.542l.111.04c.057.02.114.031.168.031.215 0 .4-.148.488-.37.107-.279-.088-.605-.37-.712-.454-.175-.434-.481-.377-.683.999-.35 1.47-1.237 1.553-2.07l.017-.185a.549.549 0 00-.507-.585h-.007a.547.547 0 00-.595.497l-.014.172c-.063.618-.38 1.344-1.606 1.233-.417-.033-.73-.15-.948-.329-.901-1.217-.978-2.86-.978-3.341 0-1.116.302-4.763 4.255-4.763h.003c1.066-.02 1.432.823 1.563 1.193l.064.185c.094.29.404.45.696.36a.538.538 0 00.367-.68l-.078-.221c-.269-.756-.88-1.53-1.835-1.805.41-.81 1.14-1.24 2.215-1.24 1.328 0 1.815 1.357 1.91 1.663-.004.242-.01.989 0 1.173v15.768c0 .226-.007 1.07-.01 1.355-.118.313-.68 1.486-1.893 1.486M22.664 8.06c0-.948-.239-5.58-4.955-5.83C17.18.79 15.985 0 14.304 0c-1.25 0-2.027.726-2.477 1.361C11.343.655 10.547 0 9.37 0 7.69 0 6.496.787 5.965 2.222c-4.71.202-4.955 4.884-4.955 5.842 0 .538.077 2.302 1.019 3.744-.938 1.446-1.019 3.214-1.019 3.755 0 .948.239 5.58 4.955 5.829.53 1.442 1.724 2.232 3.408 2.232 1.247 0 2.024-.727 2.474-1.362.484.706 1.284 1.362 2.457 1.362 1.678 0 2.87-.784 3.405-2.222 4.713-.199 4.955-4.884 4.955-5.839 0-.538-.077-2.302-1.019-3.748.942-1.445 1.019-3.213 1.019-3.754" fill="#313235" fill-rule="nonzero"/></svg>