<svg width="64" height="64" viewBox="0 0 64 64" xmlns="http://www.w3.org/2000/svg"><path d="M34.984 31.999L62.86 4.077a2.013 2.013 0 00.09-2.85c-.028-.036-.064-.063-.09-.09a2.013 2.013 0 00-2.85-.09c-.037.028-.064.063-.09.09L31.999 29.014 4.077 1.137a2.013 2.013 0 00-2.85-.09c-.036.028-.063.063-.09.09a2.013 2.013 0 00-.09 2.85c.028.037.063.064.09.09L29.014 32 1.137 59.921a2.013 2.013 0 00-.09 2.85c.028.036.063.063.09.09.386.403.915.636 1.47.627a1.978 1.978 0 001.47-.627L32 34.984 59.921 62.86a2.013 2.013 0 002.85.09c.036-.028.063-.064.09-.09a2.013 2.013 0 00.09-2.85c-.028-.037-.064-.064-.09-.09L34.984 31.999z" fill="#313235" fill-rule="nonzero"/></svg>