<svg width="64" height="64" viewBox="0 0 64 64" xmlns="http://www.w3.org/2000/svg"><path d="M28.473 4.274c-.807.78-1.219 2.016-1.219 3.675 0 3.271 1.533 4.804 4.822 4.804 3.308 0 4.85-1.524 4.85-4.804 0-1.65-.413-2.895-1.228-3.675-.79-.762-2.008-1.139-3.622-1.139-1.604 0-2.823.377-3.603 1.139zm3.603 11.106c-4.75 0-7.475-2.707-7.475-7.431 0-2.394.681-4.267 2.026-5.567C27.927 1.127 29.755.5 32.077.5c2.32 0 4.158.636 5.458 1.873 1.354 1.3 2.035 3.173 2.035 5.576 0 4.724-2.734 7.43-7.494 7.43zM46.32 40.137c.197-.403.233-.86.09-1.282l-5.065-14.333a6.145 6.145 0 00-5.773-4.051h-6.974a6.121 6.121 0 00-5.62 3.702 5.076 5.076 0 00-.143.323l-5.073 14.368a1.655 1.655 0 001.021 2.098c.422.152.87.134 1.264-.054.404-.188.717-.529.87-.95l2.635-7.826a1.32 1.32 0 011.712-.752c.627.242.968.914.807 1.568l-1.201 3.729-2.412 8.946h1.57c.725 0 1.317.591 1.326 1.308l.062 12.263a1.658 1.658 0 103.317 0L28.67 46.94c0-.726.583-1.317 1.309-1.326h4.204c.726 0 1.317.591 1.326 1.317l-.053 12.263a1.67 1.67 0 001.658 1.676 1.664 1.664 0 001.658-1.676l.063-12.263c.009-.726.6-1.308 1.327-1.308h1.577l-2.447-9L38.1 32.94a1.308 1.308 0 01.851-1.65 1.33 1.33 0 011.668.843l2.644 7.835a1.662 1.662 0 002.106.995c.413-.135.753-.43.95-.825zm2.59-2.151a4.265 4.265 0 01-.224 3.316 4.228 4.228 0 01-2.456 2.143 4.1 4.1 0 01-2.322.143l.807 2.994a1.317 1.317 0 01-1.282 1.658h-1.99l-.053 10.945c0 2.366-1.937 4.302-4.312 4.302a4.319 4.319 0 01-4.311-4.311l.053-10.945h-1.532l.053 10.936c0 2.384-1.927 4.32-4.302 4.32a4.311 4.311 0 01-4.303-4.311l-.053-10.945h-1.99a1.322 1.322 0 01-1.273-1.658l.807-2.994c-.78.17-1.587.117-2.34-.152a4.197 4.197 0 01-2.43-2.134 4.245 4.245 0 01-.223-3.307l5.073-14.351c.063-.188.135-.367.242-.583a8.737 8.737 0 018.023-5.225h6.973a8.742 8.742 0 018.05 5.288c.08.144.152.332.224.556l5.091 14.315z" fill="#313235" fill-rule="nonzero"/></svg>