<svg width="24" height="24" viewBox="0 0 24 24" xmlns="http://www.w3.org/2000/svg"><path d="M11.062 1.415c-.302.293-.457.756-.457 1.378 0 1.227.575 1.802 1.808 1.802 1.24 0 1.819-.571 1.819-1.802 0-.618-.155-1.085-.46-1.378-.296-.286-.754-.427-1.359-.427-.601 0-1.058.141-1.35.427zm1.351 4.165c-1.781 0-2.803-1.015-2.803-2.787 0-.897.256-1.6.76-2.087C10.857.236 11.543 0 12.413 0c.871 0 1.56.239 2.048.703.507.487.763 1.19.763 2.09 0 1.772-1.026 2.787-2.81 2.787zm5.342 9.284a.63.63 0 00.033-.48L15.89 9.007a2.304 2.304 0 00-2.165-1.519H11.11c-.914 0-1.744.545-2.107 1.388-.02.04-.037.081-.054.121l-1.903 5.389a.62.62 0 00.384.786.61.61 0 00.474-.02.63.63 0 00.326-.356l.988-2.935a.495.495 0 01.642-.282.5.5 0 01.302.588l-.45 1.398-.904 3.355h.588a.5.5 0 01.497.49l.024 4.6a.622.622 0 101.244 0l-.024-4.596c0-.272.219-.494.49-.497h1.577a.5.5 0 01.498.494l-.02 4.598c0 .346.279.629.622.629a.624.624 0 00.621-.629l.024-4.598a.497.497 0 01.497-.491h.592l-.918-3.375-.447-1.381a.49.49 0 01.32-.619.499.499 0 01.625.316l.991 2.938c.118.32.468.484.79.373a.61.61 0 00.357-.31zm.971-.807a1.6 1.6 0 01-.084 1.244 1.585 1.585 0 01-.921.803c-.279.101-.582.121-.87.054l.302 1.123a.494.494 0 01-.48.622h-.747l-.02 4.104c0 .887-.726 1.613-1.617 1.613a1.62 1.62 0 01-1.617-1.617l.02-4.104h-.574l.02 4.101c0 .894-.723 1.62-1.614 1.62-.89 0-1.613-.726-1.613-1.617L8.89 17.9h-.746a.496.496 0 01-.478-.622l.303-1.122a1.592 1.592 0 01-.878-.058 1.574 1.574 0 01-.91-.8 1.592 1.592 0 01-.085-1.24L8 8.676a1.6 1.6 0 01.09-.219 3.276 3.276 0 013.01-1.96h2.614c1.315 0 2.501.777 3.019 1.984.03.053.057.124.084.208l1.91 5.368z" fill="#313235" fill-rule="nonzero"/></svg>