<svg width="64" height="64" viewBox="0 0 64 64" xmlns="http://www.w3.org/2000/svg"><path d="M46.827.5c1.99 0 3.541.574 4.617 1.712 1.013 1.067 1.524 2.564 1.524 4.428v50.69c0 1.864-.511 3.36-1.524 4.427-1.076 1.139-2.627 1.712-4.617 1.712H17.14c-1.99 0-3.54-.573-4.616-1.712C11.51 60.69 11 59.194 11 57.33V13.632c0-.242.099-.466.26-.637L23.495.76c.17-.17.395-.26.637-.26h22.695zm0 1.793H24.5L12.793 13.999v43.33c0 2.886 1.46 4.347 4.347 4.347h29.687c2.887 0 4.348-1.46 4.348-4.347V6.64c0-2.886-1.461-4.347-4.348-4.347zM45.09 27.13c.493 0 .896.403.896.896v27.554a.893.893 0 01-.896.897H18.87a.899.899 0 01-.896-.897V28.027c0-.493.403-.896.896-.896h26.219zM26.695 47.738h-6.929v6.947l6.929-.001v-6.946zm8.739 0h-6.947v6.946h6.947v-6.946zm8.758 0h-6.965v6.946h6.965v-6.946zM19.766 37.663v8.282h24.426v-8.282H19.766zm6.929-8.74h-6.929v6.947h6.929v-6.947zm8.739 0h-6.947v6.947h6.947v-6.947zm8.758 0h-6.965v6.947h6.965v-6.946z" fill="#313235" fill-rule="nonzero"/></svg>