<svg width="24" height="24" viewBox="0 0 24 24" xmlns="http://www.w3.org/2000/svg"><path d="M12.202 0c2.43 0 3.563 1.15 3.563 3.613l-.001 1.637h2.068c.743 0 1.203.46 1.203 1.204v8.094c0 .74-.464 1.2-1.203 1.2l-2.068-.001V20c0 1.247-.282 2.141-.867 2.733-.584.591-1.465.88-2.695.88H3.58c-1.23 0-2.114-.289-2.7-.88C.297 22.14.018 21.247.018 20V3.613C.017 1.183 1.183 0 3.58 0h8.622zm0 .672H3.58c-2.027 0-2.89.88-2.89 2.941V20c0 1.062.218 1.802.671 2.262.454.46 1.177.683 2.219.683h8.622c1.042 0 1.768-.222 2.218-.683.45-.46.672-1.2.672-2.262v-4.253h-2.084c-.742 0-1.203-.46-1.203-1.202V7.546c0-.09.037-.175.098-.238l1.966-1.96a.333.333 0 01.239-.098h.984V3.613c0-2.09-.837-2.94-2.89-2.94zm-4.31 18.131c.602 0 .995.32.999 1.002 0 .326-.091.571-.252.736-.175.178-.43.266-.747.266-.316 0-.571-.088-.746-.266-.161-.165-.252-.407-.252-.736 0-.682.393-1.002.998-1.002zm9.94-12.884h-3.583L12.48 7.684v6.86c0 .374.158.532.53.532h4.82c.374 0 .532-.158.532-.531V6.45c0-.373-.158-.53-.531-.53zm-.387 3.096c.185 0 .337.151.337.336v4.252c0 .189-.152.34-.337.34h-4.05a.337.337 0 01-.336-.336V9.35c0-.185.151-.336.336-.336h4.05zm-3.04 3.576h-.672l.001.68.672-.001v-.679zm1.349 0h-.675v.679h.675v-.679zm1.355 0h-.682v.679h.682v-.679zm-3.377-1.553v.881h3.377v-.881h-3.377zm.674-1.351h-.675v.679h.675v-.679zm1.348 0h-.675v.679h.675v-.679zm1.355 0h-.682v.679h.682v-.679z" fill="#313235" fill-rule="nonzero"/></svg>