<svg width="64" height="64" viewBox="0 0 64 64" xmlns="http://www.w3.org/2000/svg"><path d="M46.521 0c1.99 0 3.54.574 4.616 1.712 1.013 1.067 1.524 2.564 1.524 4.428v50.69c0 1.864-.51 3.36-1.524 4.427-1.075 1.139-2.626 1.712-4.616 1.712H16.834c-1.99 0-3.541-.573-4.617-1.712-1.013-1.067-1.523-2.563-1.523-4.428V13.132c0-.242.098-.466.26-.637L23.189.26c.17-.17.394-.26.636-.26h22.696zm0 1.793H24.193L12.486 13.499v43.33c0 2.886 1.461 4.347 4.348 4.347H46.52c2.886 0 4.347-1.46 4.347-4.347V6.14c0-2.886-1.46-4.347-4.347-4.347zM44.782 26.63c.493 0 .896.403.896.896v27.554a.893.893 0 01-.896.897H18.564a.899.899 0 01-.897-.897V27.527c0-.493.404-.896.897-.896h26.218zM26.39 47.238h-6.93v6.947l6.93-.001v-6.946zm8.739 0H28.18v6.946h6.947v-6.946zm8.758 0H36.92v6.946h6.965v-6.946zM19.46 37.163v8.282h24.426v-8.282H19.46zm6.929-8.74h-6.93v6.947h6.93v-6.947zm8.739 0H28.18v6.947h6.947v-6.947zm8.758 0H36.92v6.947h6.965v-6.946z" fill="#313235" fill-rule="nonzero"/></svg>