<svg width="64" height="64" viewBox="0 0 64 64" xmlns="http://www.w3.org/2000/svg"><path d="M51.33 60.325l8.99-8.99-5.494-5.495a1.306 1.306 0 01-.376-.798l-.619-6.355-6.965-6.965L44.6 33.99a1.36 1.36 0 01-1.865 0l-5.486-5.503-8.99 8.99 5.504 5.504c.51.51.51 1.344 0 1.855l-2.277 2.277 6.938 6.938 6.552.385c.323.018.628.153.852.386l5.503 5.503zm11.778-9.922c.511.51.511 1.344 0 1.855L52.271 63.104c-.51.51-1.344.51-1.864 0l-6.06-6.077-6.56-.386a1.275 1.275 0 01-.852-.385l-8.22-8.229a1.315 1.315 0 010-1.855l2.277-2.277-5.504-5.504a1.315 1.315 0 010-1.855L36.334 25.69c.511-.511 1.345-.511 1.856 0l5.494 5.504 2.268-2.268c.511-.511 1.345-.511 1.856 0l8.22 8.228c.214.215.349.502.376.807l.61 6.346 6.094 6.096zM29.11 18.233c.026-.037.062-.072.09-.108l2.276-2.277-6.472-6.472-6.328-.188a1.36 1.36 0 01-.896-.385l-5.137-5.137-8.972 8.982 5.136 5.136c.224.224.359.529.376.843l.422 6.122 6.49 6.49 2.258-2.26L29.11 18.233zm2.043 1.649c-.027.035-.063.071-.09.107L17.019 34.017c-.511.511-1.336.52-1.847.01l-.009-.01L7.4 26.255a1.285 1.285 0 01-.377-.843l-.43-6.122-5.71-5.719a1.315 1.315 0 010-1.855L11.72.87a1.349 1.349 0 011.856 0l5.692 5.7 6.328.189c.331.009.654.143.896.385l7.763 7.772c.51.51.51 1.344 0 1.855l-3.102 3.11z" fill="#313235" fill-rule="nonzero"/></svg>