<svg width="24" height="24" viewBox="0 0 24 24" xmlns="http://www.w3.org/2000/svg"><path d="M15.449 17.166a.156.156 0 00.117-.06l-.006-1.704a.178.178 0 00-.111-.05H13.24a.491.491 0 01-.49-.491v-2.206a.146.146 0 00-.06-.117l-1.725.007c.013.003-.024.053-.024.11v2.209c0 .272-.222.49-.49.49H8.241a.145.145 0 00-.114.054l.003 1.735c0-.004.003-.004.003-.004.014 0 .054.024.105.024h2.208c.272 0 .49.222.49.49v2.213c0 .06.038.104.051.11l1.738-.003c-.013-.003.024-.047.024-.107l-.004-2.209c0-.13.054-.255.145-.35a.505.505 0 01.35-.144l2.208.003zm0-2.8c.585 0 1.096.474 1.096 1.009v1.768c0 .538-.511 1.008-1.096 1.008h-1.715l.004 1.715c0 .595-.46 1.092-1.009 1.092h-1.764c-.545 0-1.009-.5-1.009-1.092V18.15H8.24c-.592 0-1.093-.464-1.093-1.008v-1.761c0-.548.501-1.009 1.093-1.009h1.717v-1.718c0-.594.46-1.095 1.009-1.095h1.761c.548 0 1.008.5 1.008 1.095v1.711h1.715zm4.215 8.273c1.371 0 3.005-.592 3.005-3.405V9.886H1.019v9.438c0 .007-.071 1.463.823 2.407.555.588 1.412.887 2.541.887h14.908c.04 0 .08.004.12.007.014.004.108.014.253.014zM2.269 3.822c-.83.528-1.25 1.489-1.25 2.86v2.219h21.647V6.703c0-.027 0-.054.003-.078 0-.01.087-1.452-.797-2.396-.558-.599-1.428-.901-2.588-.901h-1.627v.709a.491.491 0 01-.981 0v-.71c-3.143 0-7.086.004-9.65.004v.706a.491.491 0 01-.982 0v-.703H4.366c-.03 0-.06 0-.087-.003-.01 0-.064-.003-.151-.003-.323 0-1.153.047-1.86.494zm17.015-1.48c4.713 0 4.366 4.364 4.366 4.364l.004 12.531c0 4.027-2.931 4.39-3.99 4.39-.232 0-.377-.017-.377-.017H4.38C-.255 23.607.037 19.26.037 19.26V6.683c0-4.053 3.187-4.34 4.09-4.34.152 0 .24.008.24.008H6.04V.49a.491.491 0 01.985 0v1.856l9.65-.003V.49a.491.491 0 01.982 0v1.852h1.627z" fill="#313235" fill-rule="nonzero"/></svg>