<svg width="24" height="24" viewBox="0 0 24 24" xmlns="http://www.w3.org/2000/svg"><path d="M7.382 1.452c.356.35.665.74.917 1.17 1.25 2.01.229 3.717-.85 4.793-.195.198-.404.38-.622.548-.36.427.114 1.321.578 1.997.763 1.112 2.027 2.416 2.908 3.297l.104.104c.884.884 2.185 2.145 3.297 2.908.68.464 1.57.938 1.997.578.168-.218.353-.427.551-.622 1.08-1.075 2.783-2.097 4.793-.85.427.255.82.564 1.17.92 1.893 1.893 1.896 3.86.004 5.84-.226.235-.555.507-.979.816l-.026.02-.017.014c-.636.444-1.449.665-2.397.665-1.025 0-2.205-.255-3.489-.766-2.659-1.062-5.573-3.133-8.43-5.99l-.004-.003-.097-.098-.003-.003C3.929 13.933 1.859 11.018.8 8.36-.185 5.892-.222 3.802.692 2.474l.014-.02.02-.027c.306-.427.582-.756.817-.978 1.98-1.893 3.943-1.89 5.839.003zM4.534.706c-.816-.017-1.643.386-2.527 1.23-.205.195-.454.494-.736.888a.259.259 0 00-.03.043C.87 3.408.688 4.121.705 4.988c.017.925.259 1.977.72 3.126 1.028 2.575 3.045 5.409 5.835 8.202l.05.05.007.007.05.047c2.793 2.793 5.627 4.81 8.202 5.835 1.15.461 2.201.7 3.126.72.867.017 1.58-.162 2.12-.535l.045-.03a6.71 6.71 0 00.884-.733c.843-.884 1.247-1.71 1.233-2.527-.013-.784-.417-1.56-1.227-2.37a5.181 5.181 0 00-1.035-.817l-.01-.007c-.645-.4-1.294-.548-1.933-.44-.676.114-1.358.514-2.037 1.193-.185.182-.356.38-.514.585a.403.403 0 01-.037.04c-1.26 1.16-3.745-.991-6.246-3.492l-.104-.104C7.341 11.24 5.19 8.753 6.35 7.496c.013-.014.023-.027.04-.037.208-.158.403-.33.585-.514.675-.68 1.079-1.365 1.193-2.037.108-.64-.04-1.288-.44-1.933l-.007-.01a5.043 5.043 0 00-.817-1.032c-.81-.81-1.586-1.214-2.37-1.227zM19.16 2.699a.78.78 0 01.561.32l1.375 1.529a.776.776 0 01-.128 1.143L17.08 9.113l1.022 1.132c.148.165.191.36.124.535-.067.175-.235.286-.457.302l-5.52.427c-.02.004-.036.004-.053.004a.58.58 0 01-.444-.195.587.587 0 01-.124-.518l1.163-5.442c.047-.215.175-.366.356-.413.182-.048.37.016.518.178l1.015 1.122h.013l3.89-3.34a.74.74 0 01.578-.206zm-.047.676c-.02-.004-.037.003-.054.013-.007.007-.017.014-.024.024l-3.899 3.351a.683.683 0 01-.948-.06l-.806-.888-1.073 5.019 5.062-.394-.79-.877a.666.666 0 01.05-.945c.004-.003.004-.003.008-.003l3.906-3.439.04-.03a.083.083 0 00.04-.064.125.125 0 00-.017-.077l-.003-.003-1.388-1.543a.132.132 0 01-.027-.034.104.104 0 00-.077-.05z" fill="#313235" fill-rule="nonzero"/></svg>