<svg width="24" height="24" viewBox="0 0 24 24" xmlns="http://www.w3.org/2000/svg"><path d="M22.376 14.793c.206-.245.589-.948-.225-2.306-1.12-1.865-3.375-2.04-3.398-2.04a.498.498 0 01-.39-.242c-.077-.131-1.946-3.18-6.528-3.18-2.433 0-4.06 1.146-4.995 2.104-1.247 1.281-1.892 2.881-1.885 3.799-.047.83.01 1.479.06 1.865H6.42c.182-1.28 1.09-2.057 2.46-2.057 1.375 0 2.28.777 2.465 2.057h3.623c.185-1.274 1.09-2.05 2.46-2.05 1.372 0 2.276.773 2.461 2.05h2.487zm-4.95 2.04c1.004 0 1.515-.517 1.515-1.546 0-1.025-.51-1.546-1.516-1.546-1.008 0-1.516.521-1.516 1.546 0 1.029.508 1.547 1.516 1.547zm-8.549-.006c1.005 0 1.516-.518 1.516-1.546 0-1.026-.51-1.547-1.516-1.547-1.005 0-1.516.521-1.516 1.547 0 1.025.511 1.546 1.516 1.546zm14.111-4.86c1.197 1.993.437 3.31-.13 3.73a.476.476 0 01-.29.098h-2.686c-.188 1.27-1.092 2.04-2.46 2.04-1.368 0-2.272-.77-2.46-2.04h-3.624c-.188 1.267-1.093 2.034-2.46 2.034-1.365 0-2.27-.767-2.458-2.034H4.602a.494.494 0 01-.478-.383c-.01-.04-.242-1.022-.154-2.508-.01-1.059.669-2.938 2.171-4.477 1.066-1.096 2.921-2.4 5.694-2.4 4.491 0 6.68 2.659 7.234 3.449.713.1 2.76.554 3.92 2.49zM2.666 13.357c.272 0 .49.225.49.5 0 .276-.222.502-.49.502h-1.61a.494.494 0 01-.491-.501c0-.276.222-.501.49-.501h1.61zm.272-2.5c.272 0 .49.224.49.5s-.221.5-.49.5H.49a.494.494 0 01-.491-.5v-.003c0-.276.218-.501.49-.501 0 .003 2.448.003 2.448.003zm.625-2.471c.272 0 .49.225.49.5 0 .276-.221.501-.49.501h-1.9a.496.496 0 01-.49-.5c0-.276.222-.501.49-.501h1.9z" fill="#313235" fill-rule="nonzero"/></svg>