<svg width="64" height="64" xmlns="http://www.w3.org/2000/svg"><path d="M59.348 41.049H50.94c-.502-4.016-3.334-6.472-7.7-6.472-4.356 0-7.197 2.456-7.7 6.472H23.35c-.493-4.034-3.334-6.499-7.7-6.499-4.365 0-7.206 2.465-7.7 6.499H2.932a30.012 30.012 0 01-.233-6.15c-.027-2.957 2.089-8.093 6.176-12.18 3.057-3.066 8.363-6.723 16.314-6.723 14.969 0 21.064 9.752 21.315 10.164.224.368.619.61 1.049.637.08.009 7.484.555 11.177 6.57 2.797 4.562 1.282 6.947.619 7.682M43.24 47.494c-3.379 0-5.163-1.784-5.163-5.146 0-3.36 1.784-5.145 5.163-5.145 3.38 0 5.163 1.784 5.163 5.145 0 3.362-1.783 5.146-5.163 5.146m-27.59-.027c-3.379 0-5.172-1.775-5.172-5.145 0-3.362 1.793-5.146 5.172-5.146 3.38 0 5.163 1.784 5.163 5.146 0 3.37-1.783 5.145-5.163 5.145m45.338-15.471c-3.756-6.114-10.433-7.476-12.585-7.754-1.64-2.33-8.632-10.873-23.206-10.873-8.865 0-14.79 4.07-18.196 7.494C2.196 25.676.036 31.529.063 34.837c-.27 4.643.457 7.709.493 7.843a1.314 1.314 0 001.282 1.004H7.95c.529 3.989 3.361 6.418 7.7 6.418 4.338 0 7.17-2.43 7.7-6.418H35.55c.51 4.007 3.352 6.445 7.7 6.445 4.347 0 7.18-2.438 7.699-6.445h8.919c.278 0 .547-.09.77-.25.045-.046 5.047-3.784.35-11.438" fill="#313235" fill-rule="nonzero"/></svg>