<svg width="24" height="24" viewBox="0 0 24 24" xmlns="http://www.w3.org/2000/svg"><path d="M21.284 18.005c.528-.007 1.415-.218 1.415-1.533 0-1.314-.874-1.52-1.395-1.522l-.279-.014c-.037 1.113-.128 2.131-.302 3.039.097.01.356.03.4.03h.161zm-1.466-6.276c.367 0 .653-.097.85-.292.206-.202.31-.5.31-.89 0-.387-.104-.686-.31-.892-.197-.194-.483-.292-.85-.292-.104 0-.238.013-.268-.044-.047-.09.02-.218.02-.38 0-.574-.155-1.021-.464-1.32-.296-.29-.716-.437-1.26-.437-.545 0-.969.147-1.258.436-.14.138-.245.31-.32.508-.013.04-.023.067-.063.094-.11.07-.245.004-.393.004-.541 0-.965.144-1.26.433-.091.088-.165.195-.23.31-.013.026-.016.033-.043.036-.024 0-.034-.006-.054-.027-.262-.258-.645-.39-1.133-.39-.487 0-.867.132-1.132.39-.064.064-.108.155-.158.236 0 0-.054.07-.152.043-.074-.016-.104-.104-.104-.104-.047-.296-.138-.554-.32-.73-.234-.228-.577-.349-1.01-.349-.438 0-.777.121-1.013.35-.08.08-.144.178-.198.286l-.01.023s-.05.074-.134.1a.275.275 0 01-.155.008c-.175-.054-.343-.142-.575-.142-.363 0-.649.098-.844.293-.114.11-.127.242-.275.336a.42.42 0 01-.246.067c-.363 0-.645.098-.843.293-.074.074-.145.151-.246.191-.134.05-.201-.02-.383-.02-.302 0-.538.08-.699.242-.08.08-.098.188-.208.239-.111.054-.232-.004-.384-.004-.299 0-.534.084-.695.246-.169.168-.256.41-.256.73v.456l3.711-.023h2.682c.034 0 .06-.014.091-.014h1.872c.034.004.058.014.095.014h2.648l1.66-.007h4.007v-.007zm.3 2.33c0-.084 0-.844.003-1.362H3.449v1.184c.023 5.858 1.25 7.842 4.857 7.842.198 0 .383-.014.568-.024h5.795c.43.024.797.027 1.163 0h.144a.44.44 0 01.091-.02c2.908-.306 4.007-2.37 4.05-7.62zm-17.422 3.93c.06-.004.11-.004.168-.014-.188-.935-.28-1.89-.316-3.039-.064.007-.141.01-.225.01-.521.004-1.395.209-1.395 1.523 0 1.314.884 1.526 1.411 1.533h.165c.047 0 .111-.004.192-.014zm18.612-3.98c1.065.006 2.309.662 2.309 2.46s-1.25 2.457-2.323 2.474l-.195-.004c-.064 0-.464-.03-.612-.043-.608 2.07-1.832 3.405-4.181 3.697a.392.392 0 01-.175.04h-.269c-.175.014-.38.024-.598.024-.219 0-.424-.013-.625-.027H8.904c-.175.014-.38.024-.601.024-3.009 0-4.508-1.405-5.214-3.762l-.235.014a2.54 2.54 0 01-.34.03l-.195.003C1.25 18.923 0 18.264 0 16.466c0-1.802 1.244-2.454 2.31-2.461h.003c.077 0 .134 0 .211.01 0-.064-.003-.074-.003-.138v-1.381c-.037-.03-.08-.044-.11-.078a.94.94 0 01-.27-.665v-.457c0-.726.29-1.167.535-1.405.228-.229.645-.498 1.31-.508.24-.225.656-.48 1.311-.48.027 0 .058 0 .091.003.232-.198.595-.4 1.126-.454.044-.054.088-.1.138-.151.259-.256.723-.555 1.482-.555.135 0 .266.01.394.03a.403.403 0 00.037-.04c.282-.279.803-.615 1.65-.615.847 0 1.368.333 1.65.612.038.033.071.074.108.117a2.762 2.762 0 011.12-.215c.4 0 .732.068 1.004.172.417-.33.942-.508 1.567-.531.084-.125.178-.236.279-.343.474-.46 1.11-.7 1.902-.7.79 0 1.429.236 1.9.7.289.285.625.776.719 1.566.393.108.669.303.844.477.272.266.595.753.595 1.567 0 .817-.323 1.3-.595 1.57a2.04 2.04 0 01-.263.208c0 .363 0 1.563-.003 1.674l.262.013h.004zM10.96 2.041c-1.243.356-1.2 1.284-1.062 1.805l.044.161c.013.04.047.145.08.219l2.885-.83s-.078-.219-.128-.4c-.151-.508-.578-1.315-1.819-.955zM2.945 7.225a.47.47 0 01-.124-.921L9.132 4.49a3.536 3.536 0 01-.074-.205l-.054-.195c-.279-1.052.003-2.46 1.7-2.951 1.702-.488 2.65.558 2.949 1.596.054.185.1.417.1.417l6.175-1.775a.463.463 0 01.568.323.469.469 0 01-.319.578L3.066 7.205a.366.366 0 01-.121.02z" fill="#5CB615" fill-rule="nonzero"/></svg>