<svg width="64" height="64" xmlns="http://www.w3.org/2000/svg"><path d="M58.98 52.773c.762 0 1.39-.6 1.39-1.344V20.934H2.626V51.43c0 .744.619 1.344 1.39 1.344H58.98zM4.016 10.626c-.762 0-1.39.61-1.39 1.345v6.427H60.37V11.97c0-.744-.619-1.345-1.39-1.345H4.016zM58.98 8.081c2.214 0 4.016 1.748 4.016 3.89v39.467c0 2.142-1.802 3.89-4.016 3.89H4.016C1.802 55.328 0 53.58 0 51.438V11.97c0-2.142 1.802-3.89 4.016-3.89H58.98zM15.166 37.13l6.445 5.773c.53.475.565 1.282.072 1.802-.26.269-.61.403-.968.403-.314 0-.637-.116-.897-.34l-7.493-6.714a1.264 1.264 0 01-.421-.941c0-.359.161-.7.43-.941l7.493-6.598a1.35 1.35 0 011.856.09c.493.52.448 1.327-.09 1.802l-6.427 5.665zm-1.748-20.66c-1.012 0-1.828-.798-1.828-1.766 0-.977.816-1.775 1.828-1.775 1.013 0 1.82.789 1.82 1.775 0 .968-.816 1.766-1.82 1.766zm5.477 0c-1.013 0-1.828-.798-1.828-1.766 0-.977.815-1.775 1.828-1.775 1.013 0 1.829.789 1.829 1.775 0 .968-.816 1.766-1.829 1.766zm-10.962 0c-1.013 0-1.829-.798-1.829-1.766 0-.977.816-1.775 1.829-1.775s1.828.789 1.828 1.775c0 .968-.815 1.766-1.828 1.766zm35.083 13.113l7.494 6.598c.269.242.43.573.43.94 0 .36-.152.7-.421.942l-7.494 6.714c-.25.224-.573.34-.896.34-.359 0-.708-.134-.968-.403a1.251 1.251 0 01.071-1.802l6.454-5.781-6.436-5.656a1.245 1.245 0 01-.09-1.802 1.35 1.35 0 011.856-.09zm-8.013-.143c.663.287.959 1.04.663 1.685l-6.077 13.15c-.215.475-.7.753-1.201.753-.18 0-.359-.036-.538-.117a1.26 1.26 0 01-.663-1.685l6.077-13.15c.296-.636 1.075-.923 1.739-.636z" fill="#313235" fill-rule="nonzero"/></svg>