<svg width="24" height="24" viewBox="0 0 24 24" xmlns="http://www.w3.org/2000/svg"><path d="M14.908 7.25c-.86 0-1.227.37-1.227 1.237 0 .868.366 1.237 1.227 1.237.86 0 1.226-.37 1.226-1.237 0-.867-.363-1.237-1.226-1.237zm0 3.456c-1.402 0-2.205-.81-2.205-2.219 0-1.411.803-2.218 2.205-2.218 1.401 0 2.208.81 2.208 2.218 0 1.409-.803 2.219-2.208 2.219zm-11.95 7.889c-.679.686-1.785 2.077-1.956 4.023 2.016-.184 3.448-1.415 4-1.966.706-.713.706-1.344 0-2.057-.353-.353-.686-.531-1.022-.531-.336-.003-.67.175-1.022.531zM.491 23.624A.491.491 0 010 23.133v-.004c0-2.568 1.418-4.38 2.266-5.233 1.089-1.096 2.336-1.096 3.425 0s1.089 2.353 0 3.449c-.68.685-2.552 2.279-5.2 2.279zM1.919 8.07l-.06.087c.097.225 1.203.7 1.94 1.015.473.198.954.407 1.418.635A28.653 28.653 0 018.003 5.94l.091-.104a3.533 3.533 0 00-2.165-.53C4.571 5.441 3.22 6.38 1.92 8.07zM9.4 5.845l-.66.743C7.53 8.003 6.336 9.724 5.55 11.19l-.413.834c-.602 1.34-.457 1.68-.457 1.684l5.297 5.32c.007 0 .377.142 1.678-.467l.85-.416c1.435-.763 3.1-1.933 4.572-3.207l.76-.659c.198-.175.376-.353.577-.555 1.395-1.401 2.357-3.15 3.009-4.89l-6.575-6.622c-1.738.659-3.489 1.633-4.894 3.052-.178.175-.38.38-.555.581zm12.477-4.823c-1.029-.118-3.429.027-6.007.837l5.916 5.943c.81-2.622.948-5.056.823-6.047a.852.852 0 00-.732-.733zm-3.496 16.89a3.456 3.456 0 00-.592-2.282l-.067.06a28.445 28.445 0 01-3.872 2.824c.255.511.48 1.042.696 1.56.309.74.776 1.855 1.042 1.956 1.74-1.385 2.665-2.746 2.793-4.117zM3.415 10.082C2.054 9.499 1.08 9.086.901 8.35c-.05-.205-.04-.542.255-.895 1.466-1.909 3.052-2.96 4.696-3.119a4.43 4.43 0 012.911.76c.165-.182.34-.363.498-.525 3.973-4 10.406-4.79 12.732-4.524.83.108 1.48.76 1.587 1.587.141 1.17-.02 3.99-1.019 6.95l.03.031-.06.06c-.692 2.017-1.768 4.088-3.418 5.749-.202.201-.38.38-.579.558.632.873.925 1.95.824 3.025-.155 1.654-1.207 3.247-3.123 4.736a1.005 1.005 0 01-.659.262.943.943 0 01-.215-.027c-.73-.175-1.143-1.163-1.714-2.53a28.03 28.03 0 00-.645-1.453l-.04.023-.881.43c-.827.387-1.473.579-1.96.579-.353 0-.629-.1-.83-.303l-5.308-5.327c-.47-.437-.39-1.328.27-2.794l.426-.86.044-.077a18.223 18.223 0 00-1.308-.585z" fill="#313235" fill-rule="nonzero"/></svg>