<svg width="64" height="64" viewBox="0 0 64 64" xmlns="http://www.w3.org/2000/svg"><path d="M40.254 19.833c-2.295 0-3.272.986-3.272 3.299 0 2.312.977 3.298 3.272 3.298 2.294 0 3.271-.986 3.271-3.298 0-2.313-.968-3.3-3.271-3.3zm0 9.214c-3.738 0-5.88-2.16-5.88-5.915 0-3.765 2.142-5.916 5.88-5.916 3.737 0 5.889 2.16 5.889 5.916 0 3.755-2.143 5.915-5.89 5.915zM8.388 50.085c-1.81 1.829-4.76 5.54-5.217 10.73 5.378-.494 9.197-3.774 10.667-5.244 1.882-1.9 1.882-3.586 0-5.486-.941-.941-1.829-1.416-2.725-1.416-.896-.01-1.784.466-2.725 1.416zm-6.58 13.41A1.31 1.31 0 01.5 62.185v-.008c0-6.848 3.783-11.68 6.041-13.956 2.905-2.923 6.23-2.923 9.134 0 2.905 2.922 2.905 6.274 0 9.196-1.81 1.829-6.803 6.078-13.866 6.078zm3.81-41.475l-.161.233c.26.6 3.209 1.865 5.172 2.707a67.687 67.687 0 013.782 1.694 76.407 76.407 0 017.431-10.317l.242-.278a9.421 9.421 0 00-5.772-1.416c-3.622.368-7.225 2.868-10.694 7.377zm19.944-5.934l-1.757 1.981c-3.227 3.774-6.409 8.363-8.506 12.271l-1.103 2.223c-1.604 3.577-1.219 4.482-1.219 4.491l14.127 14.19c.018 0 1.004.376 4.473-1.247l2.268-1.111c3.827-2.035 8.264-5.154 12.19-8.551l2.026-1.757a33.403 33.403 0 001.542-1.48c3.72-3.737 6.283-8.398 8.022-13.041L40.092 6.396c-4.634 1.757-9.304 4.357-13.05 8.14a27.348 27.348 0 00-1.48 1.55zM58.835 3.223c-2.743-.313-9.143.072-16.018 2.232l15.776 15.848c2.16-6.992 2.528-13.481 2.196-16.126a2.273 2.273 0 00-1.954-1.954zm-9.322 45.042a9.216 9.216 0 00-1.578-6.086l-.179.161a75.853 75.853 0 01-10.326 7.53c.681 1.362 1.282 2.779 1.855 4.159.825 1.972 2.071 4.948 2.78 5.217 4.642-3.693 7.107-7.323 7.448-10.98zM9.607 27.38c-3.63-1.55-6.23-2.653-6.705-4.616-.134-.547-.107-1.443.681-2.384 3.909-5.092 8.14-7.897 12.523-8.319a11.811 11.811 0 017.762 2.026c.44-.484.905-.968 1.327-1.398C35.79 2.022 52.945-.084 59.149.624a4.898 4.898 0 014.23 4.23c.377 3.12-.053 10.64-2.715 18.537l.08.081-.161.161c-1.847 5.379-4.715 10.9-9.116 15.328-.538.538-1.013 1.013-1.542 1.488a11.877 11.877 0 012.196 8.067c-.412 4.41-3.218 8.66-8.327 12.63a2.68 2.68 0 01-1.757.7c-.188 0-.385-.028-.573-.072-1.946-.467-3.048-3.102-4.572-6.75a74.749 74.749 0 00-1.72-3.872l-.108.062-2.349 1.148c-2.205 1.03-3.926 1.541-5.226 1.541-.94 0-1.676-.268-2.214-.806L11.122 38.889c-1.255-1.165-1.04-3.54.717-7.448l1.138-2.295.117-.206a48.594 48.594 0 00-3.487-1.56z" fill="#313235" fill-rule="nonzero"/></svg>