<svg width="24" height="24" viewBox="0 0 24 24" xmlns="http://www.w3.org/2000/svg"><path d="M10.171 20.32c1.046 0 1.647.601 1.647 1.646 0 1.046-.598 1.647-1.647 1.647-1.045 0-1.647-.601-1.647-1.647 0-1.045.602-1.647 1.647-1.647zm6.555 0c1.045 0 1.647.601 1.647 1.646 0 1.046-.598 1.647-1.647 1.647-1.045 0-1.647-.601-1.647-1.647 0-1.045.602-1.647 1.647-1.647zm-6.555.672c-.675 0-.974.299-.974.974 0 .676.299.975.974.975.676 0 .975-.299.975-.975 0-.675-.299-.974-.975-.974zm6.555 0c-.676 0-.975.299-.975.974 0 .676.3.975.975.975.676 0 .975-.299.975-.975 0-.675-.3-.974-.975-.974zM2.306 0a3.21 3.21 0 011.93.629c.547.41.91.984 1.025 1.616.068.385.317 1.863.616 3.654h4.28l.001-3.855c0-1.358.679-2.044 2.02-2.044h4.501c1.358 0 2.02.669 2.02 2.044v3.858h4.582a.337.337 0 01.326.42c-.185.733-.535 2.142-.908 3.634-.45 1.815-.917 3.691-1.059 4.236-.302 1.17-.74 2.026-1.327 2.618-.609.598-1.372.904-2.276.904h-7.866c-.917 0-1.73-.306-2.346-.887-.655-.619-1.079-1.516-1.264-2.672-.171-1.08-1.774-10.72-1.966-11.792a1.932 1.932 0 00-.766-1.197A2.524 2.524 0 002.306.672H.339A.337.337 0 01.003.336C.003.151.155 0 .34 0h1.967zm7.851 6.571H5.99c.52 3.112 1.136 6.833 1.237 7.48.302 1.929 1.351 2.994 2.944 2.994h7.866c.73 0 1.318-.235 1.798-.716.498-.497.884-1.274 1.153-2.309.141-.541.605-2.417 1.06-4.228.308-1.244.604-2.434.802-3.217l-4.152-.001.001 4.505c-.003 1.378-.662 2.047-2.02 2.047h-4.5c-1.359 0-2.021-.669-2.021-2.044V6.571zM16.68.672h-4.5c-.969 0-1.349.387-1.349 1.372v9.035c0 .508.101.857.306 1.066.205.208.545.305 1.042.305h4.501c.497 0 .84-.1 1.042-.305.202-.206.306-.558.306-1.066V2.044c0-1.002-.366-1.372-1.348-1.372zm-2.252 9.126c.43 0 .71.226.706.71 0 .235-.064.406-.178.524-.125.128-.306.188-.528.188-.222 0-.403-.06-.528-.188-.114-.118-.178-.293-.178-.524 0-.484.276-.71.706-.71z" fill="#5CB615" fill-rule="nonzero"/></svg>