<svg width="64" height="64" viewBox="0 0 64 64" xmlns="http://www.w3.org/2000/svg"><path d="M27.615 54.685c2.788 0 4.392 1.604 4.392 4.392 0 2.788-1.596 4.392-4.392 4.392-2.788 0-4.392-1.604-4.392-4.392 0-2.788 1.604-4.392 4.392-4.392zm17.479 0c2.788 0 4.392 1.604 4.392 4.392 0 2.788-1.596 4.392-4.392 4.392-2.788 0-4.392-1.604-4.392-4.392 0-2.788 1.604-4.392 4.392-4.392zm-17.48 1.793c-1.8 0-2.599.797-2.599 2.599s.798 2.6 2.6 2.6 2.6-.798 2.6-2.6-.798-2.6-2.6-2.6zm17.48 0c-1.802 0-2.6.797-2.6 2.599s.798 2.6 2.6 2.6 2.6-.798 2.6-2.6-.798-2.6-2.6-2.6zM6.64.5c1.882 0 3.711.592 5.145 1.676 1.461 1.094 2.43 2.627 2.734 4.312.183 1.024.847 4.967 1.645 9.743h11.414l.001-10.281c0-3.621 1.81-5.45 5.387-5.45h12.002c3.622 0 5.387 1.784 5.387 5.45v10.29h12.218a.899.899 0 01.87 1.12c-.202.797-.475 1.892-.797 3.18l-.18.72c-.429 1.723-.928 3.727-1.444 5.79l-.19.765-.19.765c-.726 2.925-1.434 5.766-1.92 7.7l-.122.484c-.174.693-.312 1.236-.401 1.58-.807 3.12-1.972 5.405-3.541 6.983-1.622 1.595-3.657 2.411-6.068 2.411H27.615c-2.447 0-4.616-.816-6.257-2.366-1.748-1.65-2.877-4.043-3.37-7.126-.22-1.388-1.33-8.088-2.476-14.973l-.252-1.512c-1.147-6.885-2.27-13.58-2.516-14.96-.224-1.237-.94-2.366-2.043-3.19-1.12-.852-2.564-1.318-4.06-1.318H1.395A.899.899 0 01.5 1.396C.5.903.903.5 1.396.5H6.64zm20.938 17.523H16.464l.49 2.94.168 1.009.168 1.01c1.148 6.892 2.257 13.598 2.473 14.986.806 5.145 3.603 7.986 7.852 7.986H48.59c1.945 0 3.513-.627 4.795-1.909 1.327-1.327 2.358-3.397 3.075-6.158.287-1.101 1.075-4.275 1.97-7.864l.187-.748.19-.757.19-.761.286-1.146c.825-3.317 1.614-6.49 2.142-8.578l-11.07-.001v12.012c-.009 3.675-1.765 5.459-5.387 5.459H32.966c-3.621 0-5.387-1.784-5.387-5.45l-.001-12.03zm17.39-15.73H32.966c-2.581 0-3.594 1.03-3.594 3.657v24.094c0 1.353.269 2.286.815 2.841.547.556 1.452.816 2.78.816h12.001c1.327 0 2.241-.269 2.78-.816.537-.546.815-1.488.815-2.841V5.95c0-2.671-.977-3.657-3.595-3.657zm-6.005 24.336c1.147 0 1.891.6 1.882 1.891 0 .628-.17 1.085-.475 1.398-.332.341-.816.502-1.407.502-.592 0-1.076-.16-1.408-.502-.304-.313-.475-.78-.475-1.398 0-1.29.735-1.891 1.883-1.891z" fill="#313235" fill-rule="nonzero"/></svg>