<svg width="64" height="64" viewBox="0 0 64 64" xmlns="http://www.w3.org/2000/svg"><path d="M27.124 54.185c2.787 0 4.392 1.604 4.392 4.392 0 2.788-1.596 4.392-4.392 4.392-2.788 0-4.392-1.604-4.392-4.392 0-2.788 1.604-4.392 4.392-4.392zm17.479 0c2.787 0 4.392 1.604 4.392 4.392 0 2.788-1.596 4.392-4.392 4.392-2.788 0-4.392-1.604-4.392-4.392 0-2.788 1.604-4.392 4.392-4.392zm-17.48 1.793c-1.8 0-2.599.797-2.599 2.599s.798 2.6 2.6 2.6c1.801 0 2.6-.798 2.6-2.6s-.799-2.6-2.6-2.6zm17.48 0c-1.802 0-2.6.797-2.6 2.599s.798 2.6 2.6 2.6c1.801 0 2.6-.798 2.6-2.6s-.799-2.6-2.6-2.6zM6.149 0c1.882 0 3.71.6 5.145 1.676 1.461 1.094 2.43 2.627 2.734 4.312.183 1.024.847 4.967 1.645 9.743h8.806V2.061C24.48.799 25.27 0 26.55 0h12.8c.242 0 .466.099.637.26l9.635 9.636c.17.17.26.394.26.636v5.208h12.2a.899.899 0 01.87 1.12c-.494 1.955-1.426 5.71-2.42 9.69l-.38 1.525a1859.538 1859.538 0 01-2.444 9.751c-.807 3.12-1.972 5.405-3.541 6.983-1.622 1.613-3.657 2.43-6.068 2.43H27.124c-2.447 0-4.616-.817-6.257-2.367-1.748-1.65-2.877-4.043-3.37-7.126C17.04 34.868 12.764 9.16 12.253 6.3c-.224-1.228-.941-2.366-2.043-3.19-1.12-.852-2.564-1.318-4.061-1.318H.905A.899.899 0 01.01.896C.009.403.412 0 .905 0H6.15zm18.33 17.523h-8.506c1.386 8.298 3.03 18.221 3.299 19.945.806 5.145 3.603 7.986 7.852 7.986h20.975c1.945 0 3.513-.627 4.795-1.909 1.327-1.327 2.358-3.397 3.075-6.158.376-1.443 1.613-6.445 2.823-11.276.825-3.317 1.614-6.49 2.142-8.578l-11.052-.001v17.175c0 1.246-.78 2.026-2.025 2.026l-1.614.009H26.55c-1.3 0-2.07-.78-2.07-2.089l-.001-17.13zM38.435 1.792H26.541a.81.81 0 00-.25.037.536.536 0 00-.028.233v32.591c0 .09.01.18.036.26.08.027.17.036.251.027l.196.001c1.97.007 12.724.008 16.233.008h4.85a.764.764 0 00.207-.027.884.884 0 00.027-.215l-.001-23.286-4.123.008h-1.111c-1.55-.01-2.716-.547-3.46-1.596-.618-.878-.923-2.088-.932-3.693l-.001-4.348zm5.343 26.174c.493 0 .897.404.897.897a.899.899 0 01-.897.896H29.795a.899.899 0 01-.896-.896c0-.493.403-.897.896-.897h13.983zm0-6.113c.493 0 .897.404.897.897a.899.899 0 01-.897.896H29.795a.899.899 0 01-.896-.896c0-.493.403-.897.896-.897h13.983zm0-6.122c.493 0 .897.403.897.896a.899.899 0 01-.897.897H29.795a.899.899 0 01-.896-.897c0-.493.403-.896.896-.896h13.983zM40.237 3.068v3.063c.01 3.075 1.255 3.496 2.6 3.505l3.955-.001-6.555-6.567z" fill="#313235" fill-rule="nonzero"/></svg>