<svg width="24" height="24" viewBox="0 0 24 24" xmlns="http://www.w3.org/2000/svg"><path d="M10.171 20.32c1.046 0 1.647.601 1.647 1.646 0 1.046-.598 1.647-1.647 1.647-1.045 0-1.647-.601-1.647-1.647 0-1.045.602-1.647 1.647-1.647zm6.555 0c1.045 0 1.647.601 1.647 1.646 0 1.046-.598 1.647-1.647 1.647-1.045 0-1.647-.601-1.647-1.647 0-1.045.602-1.647 1.647-1.647zm-6.555.672c-.675 0-.974.299-.974.974 0 .676.299.975.974.975.676 0 .975-.299.975-.975 0-.675-.299-.974-.975-.974zm6.555 0c-.676 0-.975.299-.975.974 0 .676.3.975.975.975.676 0 .975-.299.975-.975 0-.675-.3-.974-.975-.974zM2.306 0a3.21 3.21 0 011.93.629c.547.41.91.984 1.025 1.616.068.385.317 1.863.616 3.654h4.005l4.286-4.504a.364.364 0 01.531 0l1.654 1.744v-.836c0-.202.165-.367.366-.367h1.967c.201 0 .366.165.366.367v3.599h4.229a.337.337 0 01.326.42c-.185.733-.535 2.142-.908 3.634-.45 1.815-.917 3.691-1.059 4.236-.302 1.17-.74 2.026-1.327 2.618-.609.598-1.372.904-2.276.904h-7.866c-.917 0-1.73-.306-2.346-.887-.655-.619-1.079-1.516-1.264-2.672-.171-1.08-1.774-10.72-1.966-11.792a1.932 1.932 0 00-.766-1.197A2.524 2.524 0 002.306.672H.339A.337.337 0 01.003.336C.003.151.155 0 .34 0h1.967zm18.612 7.95a.366.366 0 01-.266.618h-1.6v4.222c0 .649-.373 1.022-1.022 1.022h-7.21c-.649 0-1.022-.373-1.022-1.022V8.568h-1.6a.367.367 0 01-.265-.618l1.31-1.379H5.99c.52 3.112 1.136 6.833 1.237 7.48.302 1.929 1.351 2.994 2.944 2.994h7.866c.73 0 1.318-.235 1.798-.716.498-.497.884-1.274 1.153-2.309.141-.541.605-2.417 1.06-4.228.308-1.244.604-2.434.802-3.217l-3.238-.001 1.306 1.376zm-6.484-5.768L10.487 6.33a.339.339 0 01-.211.222L9.052 7.835h1.113c.201 0 .366.165.366.367v4.588c0 .239.05.289.29.289h7.21c.238 0 .288-.05.288-.29V8.203c0-.202.165-.367.367-.367h1.112L18.42 6.38a.368.368 0 01-.1-.252v-3.46h-1.234v1.39a.367.367 0 01-.632.251l-2.02-2.127z" fill="#5CB615" fill-rule="nonzero"/></svg>