<svg width="64" height="64" viewBox="0 0 64 64" xmlns="http://www.w3.org/2000/svg"><path d="M51.727 33.029a11.604 11.604 0 00-7.95 3.182l-6.015-5.306a11.359 11.359 0 002.653-7.19 8.538 8.538 0 00-.135-1.433l9.036-2.654a7.258 7.258 0 009.842 2.932 7.263 7.263 0 003.54-8.328c-1.075-3.863-5.082-6.13-8.945-5.055a7.267 7.267 0 00-5.316 7.27c-.009.25-.009.492 0 .743l-8.91 2.654c-2.205-5.872-8.748-8.839-14.62-6.633a11.353 11.353 0 00-4.58 3.182l-5.862-5.253a6.664 6.664 0 001.166-3.792A6.817 6.817 0 008.845.5C5.08.482 2.033 3.53 2.015 7.295a6.817 6.817 0 0010.586 5.71l6.23 5.306a11.082 11.082 0 001.111 12.36l-5.297 5.298a8.238 8.238 0 00-5.782-2.33C4.247 33.639.5 37.376.5 41.984c0 2.223.887 4.356 2.465 5.925 3.263 3.262 8.542 3.253 11.805 0a8.345 8.345 0 002.447-5.943c0-1.345-.34-2.662-.986-3.846l5.7-5.593a11.18 11.18 0 007.055 2.653c2.501-.018 4.93-.86 6.92-2.384l6.15 5.306a11.713 11.713 0 00-2.018 6.58 11.84 11.84 0 001.112 4.957l-6.624 3.074a6.793 6.793 0 00-9.475-1.533 6.788 6.788 0 00-2.474 7.628c1.157 3.568 4.993 5.513 8.552 4.357a6.791 6.791 0 004.688-6.481 7.832 7.832 0 00-.189-1.587l6.947-3.182a11.623 11.623 0 009.17 4.509c6.49 0 11.742-5.262 11.742-11.751 0-6.49-5.262-11.743-11.742-11.752.009.01-.018.108-.018.108zm4.034-21.378a4.665 4.665 0 11-.01 9.33 4.665 4.665 0 11.01-9.33zm-46.934-.153A4.17 4.17 0 014.668 7.33a4.17 4.17 0 014.168-4.159 4.17 4.17 0 014.16 4.168v.018a4.13 4.13 0 01-4.142 4.133c-.009.008-.018.008-.027.008zm20.177 49.435A4.17 4.17 0 0124.81 56.8a4.17 4.17 0 014.132-4.195 4.17 4.17 0 014.195 4.133v.053a4.13 4.13 0 01-4.132 4.142zM8.827 47.81a5.704 5.704 0 01-5.7-5.7c0-3.147 2.554-5.702 5.7-5.702 3.146 0 5.701 2.555 5.701 5.701 0 3.146-2.546 5.701-5.7 5.701zm11.348-24.058a8.772 8.772 0 018.775-8.776 8.772 8.772 0 018.776 8.776 8.772 8.772 0 01-8.776 8.775c-4.84 0-8.775-3.935-8.775-8.775zm31.552 30.126c-5.02 0-9.09-4.078-9.09-9.098 0-5.02 4.08-9.089 9.099-9.089 5.02 0 9.089 4.079 9.089 9.098-.009 5.02-4.079 9.09-9.098 9.09z" fill="#313235" fill-rule="nonzero"/></svg>