<svg width="24" height="24" viewBox="0 0 24 24" xmlns="http://www.w3.org/2000/svg"><path d="M14.534 0c.26 0 .511.104.696.29l1.16 1.155c.185.182.289.434.289.693a.985.985 0 01-.282.682l.813.81c.09.091.145.215.145.346v1.305h3.364c.545 0 .985.44.989.981V7.9c0 .541-.44.982-.985.982h-.938v1.502c0 .545-.44.982-.985.982h-1.556v8.843h1.53c.544 0 .984.44.984.982v1.455c0 .545-.44.982-.985.982H4.958a.983.983 0 01-.985-.982V21.19c0-.545.44-.982.985-.982h1.53v-8.843H4.93a.983.983 0 01-.985-.982V8.881h-.941a.986.986 0 01-.985-.982V6.262c0-.544.44-.981.985-.981h3.361V3.976c0-.13.05-.255.145-.346l.807-.803a.977.977 0 01.003-1.382L8.481.29a.99.99 0 011.395 0l.706.706a.982.982 0 010 1.388l-1.16 1.153a.983.983 0 01-1.392 0l-.013-.013-.662.659v1.102h9.015V4.182l-.67-.666-.02.02a.983.983 0 01-1.39 0l-1.16-1.153a.982.982 0 010-1.388l.709-.706A.982.982 0 0114.534 0zm4.236 21.187H4.955v1.455H18.77v-1.455zm-2.515-9.822H7.47v8.84h8.786v-8.84zm2.542-2.488H4.93v1.503h13.866V8.877zm1.922-2.615H3.005V7.9h1.903c.01 0 .016-.003.023-.003h13.866l.02.003h1.902V6.262zM9.18.982L8.02 2.138l.706.702 1.16-1.153L9.18.982zm5.352-.004l-.706.706 1.16 1.153.706-.703L14.53.978z" fill="#313235" fill-rule="nonzero"/></svg>