<svg width="24" height="24" viewBox="0 0 24 24" xmlns="http://www.w3.org/2000/svg"><path d="M19.429 0c2.396 0 3.563 1.183 3.563 3.613V20c0 1.247-.283 2.141-.868 2.733-.585.591-1.465.88-2.695.88h-8.622c-1.23 0-2.115-.289-2.7-.88-.584-.592-.863-1.486-.863-2.733v-4.572h-.26a.675.675 0 01-.664-.573l-.007-.099v-.89a4.058 4.058 0 01-.686-.216l-.582.582a.674.674 0 01-.95 0l-.882-.877a.674.674 0 010-.952l.582-.581a4.388 4.388 0 01-.215-.686h-.888a.674.674 0 01-.672-.672V9.22c0-.37.303-.672.672-.672h.891c.05-.235.125-.464.215-.686l-.581-.581a.674.674 0 010-.952l.88-.88a.674.674 0 01.952 0l.581.581c.222-.09.45-.161.686-.215v-.89c0-.37.302-.673.672-.673h.255v-.639C7.244 1.15 8.377 0 10.808 0h8.622zm0 .672h-8.622c-2.054 0-2.891.85-2.891 2.941v.639h.316a.67.67 0 01.662.576l.007.1v.89c.235.05.464.125.686.216l.581-.582a.674.674 0 01.951 0l.878.877a.674.674 0 010 .952l-.582.581c.09.222.161.45.215.686h.891c.37 0 .672.302.672.672v1.244c0 .37-.302.672-.672.672h-.89c-.051.235-.125.464-.216.686l.582.581a.674.674 0 010 .952l-.878.877a.674.674 0 01-.95 0l-.582-.582c-.222.091-.45.162-.686.216v.89c0 .37-.303.673-.672.673l-.314-.001L7.916 20c0 1.062.218 1.802.672 2.262.454.46 1.177.683 2.219.683h8.622c1.042 0 1.768-.222 2.218-.683.45-.46.672-1.2.672-2.262V3.613c0-2.06-.864-2.94-2.89-2.94zm-4.31 18.131c.605 0 .999.32.999 1.002 0 .33-.091.571-.252.736-.175.178-.43.266-.747.266-.316 0-.571-.088-.746-.266-.161-.165-.252-.41-.252-.736 0-.682.393-1.002.998-1.002zM8.232 4.924h-1.24v1.46c-.582.06-1.08.214-1.493.463l-.924-.924-.88.877.92.924c-.242.404-.4.901-.464 1.493H2.692v1.244h1.46c.063.591.218 1.089.463 1.492l-.924.924.88.881.925-.924c.413.248.914.4 1.492.463v1.46h1.244v-1.46c.581-.06 1.079-.215 1.492-.463l.925.924.877-.88-.924-.925c.242-.403.4-.9.464-1.492h1.458V9.217h-1.458c-.061-.592-.219-1.09-.464-1.493l.924-.924-.877-.877-.925.924c-.413-.249-.914-.4-1.492-.464V4.924zM7.61 7.758c1.341 0 2.08.74 2.08 2.08 0 1.342-.739 2.081-2.08 2.081-1.341 0-2.08-.74-2.08-2.08 0-1.342.739-2.081 2.08-2.081zm0 .672c-.961 0-1.408.447-1.408 1.409 0 .961.447 1.408 1.408 1.408.961 0 1.408-.447 1.408-1.408 0-.962-.447-1.409-1.408-1.409z" fill="#5CB615" fill-rule="nonzero"/></svg>