<svg width="24" height="24" viewBox="0 0 24 24" xmlns="http://www.w3.org/2000/svg"><path d="M15.408 4.013a.67.67 0 01.67.673v.89c.235.05.463.125.685.216l.582-.582a.674.674 0 01.95 0l.885.88a.674.674 0 010 .952l-.582.582c.091.221.162.45.215.685h.891c.37 0 .672.303.672.673v1.243c0 .37-.302.672-.672.672h-.89c-.051.236-.125.464-.216.686l.582.582a.67.67 0 01.195.433h2a2.244 2.244 0 012.242 2.242v2.424a2.244 2.244 0 01-2.242 2.242H2.245a2.244 2.244 0 01-2.242-2.242V14.84a2.244 2.244 0 012.242-2.242h7.956a.67.67 0 01.196-.437l.581-.581a4.388 4.388 0 01-.215-.686h-.89a.674.674 0 01-.673-.672V8.978c0-.37.303-.672.672-.672h.891c.05-.235.124-.464.215-.686l-.581-.581a.674.674 0 010-.952l.877-.877a.674.674 0 01.951 0l.582.582c.222-.091.45-.162.685-.216v-.89c0-.37.303-.673.673-.673zm-4.854 9.257H2.245a1.57 1.57 0 00-1.57 1.57v2.424c0 .867.703 1.57 1.57 1.57h19.13a1.57 1.57 0 001.57-1.57V14.84a1.57 1.57 0 00-1.57-1.57h-2.352l-.724.723a.674.674 0 01-.868.071l-.083-.07-.582-.582c-.221.09-.45.161-.685.215v.89c0 .37-.303.673-.673.673h-1.243a.674.674 0 01-.673-.672v-.891a4.058 4.058 0 01-.685-.215l-.582.578a.674.674 0 01-.951 0l-.72-.72zm9.385 3.157a.713.713 0 010 1.425h-3.186a.713.713 0 010-1.425h3.186zm-16.736.165a.548.548 0 110 1.095.548.548 0 010-1.095zm2.034 0a.548.548 0 110 1.095.548.548 0 010-1.095zm1.966 0a.548.548 0 110 1.095.548.548 0 010-1.095zm8.205-11.906h-1.243v1.459c-.582.06-1.08.215-1.493.463l-.924-.924-.877.877.92.925c-.241.403-.4.9-.463 1.492H9.872v1.244h1.46c.06.591.218 1.089.463 1.492l-.924.925.877.877.924-.924c.414.248.915.4 1.493.463v1.46h1.243v-1.46c.582-.06 1.08-.215 1.493-.463l.924.924.88-.877-.923-.925c.242-.403.4-.9.463-1.492h1.46V8.978h-1.46c-.06-.591-.218-1.089-.463-1.492l.924-.925-.88-.877-.925.924c-.414-.248-.914-.4-1.493-.463v-1.46zm-.621 2.497c.74 0 1.327.209 1.75.612.441.427.663 1.032.663 1.805 0 .773-.222 1.382-.662 1.805-.42.407-1.009.612-1.751.612-.743 0-1.332-.205-1.755-.612-.44-.427-.662-1.032-.662-1.805 0-.773.222-1.382.662-1.805.423-.407 1.012-.612 1.755-.612zm0 .672c-1.106 0-1.745.552-1.745 1.745s.639 1.745 1.745 1.745c1.105 0 1.744-.552 1.744-1.745s-.639-1.745-1.744-1.745z" fill="#313235" fill-rule="nonzero"/></svg>