<svg width="64" height="64" xmlns="http://www.w3.org/2000/svg"><path d="M11.384 13.159c.493 0 .896.403.896.896V38.48h20.585l.01-.013.111-.12 1.55-1.551a11.7 11.7 0 01-.573-1.83h-2.375a1.798 1.798 0 01-1.793-1.792v-3.316c0-.986.807-1.793 1.793-1.793h2.366a10.82 10.82 0 01.574-1.829l-1.551-1.55c-.7-.7-.7-1.838 0-2.537l2.34-2.34c.699-.699 1.837-.699 2.536 0l1.55 1.551a11.7 11.7 0 011.83-.573V18.41c0-.986.806-1.793 1.792-1.793h3.317c.986 0 1.792.798 1.792 1.793v2.376a10.82 10.82 0 011.829.573l1.55-1.55c.7-.7 1.838-.7 2.537 0l2.367 2.339c.699.7.699 1.838 0 2.537l-1.55 1.55a11.7 11.7 0 01.573 1.829h2.366c.986 0 1.793.807 1.793 1.793v3.316c0 .986-.807 1.793-1.793 1.793h-2.375a10.82 10.82 0 01-.574 1.829l1.55 1.55c.165.164.29.352.377.553 4.053 1.079 6.194 4.263 6.194 9.226v5.244c0 3.048-.807 5.423-2.384 7.063-1.65 1.704-4.097 2.564-7.26 2.564H9.635c-3.164 0-5.611-.87-7.252-2.572C.807 58.784 0 56.408 0 53.36v-5.243c0-3.048.807-5.423 2.384-7.064 1.64-1.703 4.088-2.572 7.252-2.572h.851V14.054c0-.493.404-.896.897-.896zm21.202 27.115H9.636c-2.662 0-4.67.68-5.96 2.025-1.247 1.3-1.883 3.254-1.883 5.818v5.243c0 2.564.636 4.527 1.882 5.818 1.29 1.344 3.299 2.025 5.96 2.025h43.698c2.663 0 4.67-.68 5.961-2.025 1.246-1.3 1.882-3.254 1.882-5.818v-5.243c0-2.116-.43-3.828-1.281-5.083-.756-1.113-1.879-1.895-3.33-2.333l-.047.061-.11.12-2.349 2.34c-.699.7-1.837.7-2.536 0l-1.551-1.55a11.7 11.7 0 01-1.829.573v2.376c0 .986-.806 1.792-1.792 1.792h-3.317a1.798 1.798 0 01-1.793-1.792v-2.376a10.82 10.82 0 01-1.828-.573l-1.55 1.55c-.7.7-1.838.7-2.538 0l-2.339-2.34a1.783 1.783 0 01-.4-.608zM8.82 48.61c1.3 0 2.151.68 2.142 2.124 0 .7-.188 1.219-.537 1.569-.377.385-.924.564-1.605.564-.681 0-1.228-.188-1.604-.564-.34-.35-.538-.87-.538-1.57 0-1.451.842-2.123 2.142-2.123zm7.798 0c1.3 0 2.152.68 2.143 2.124 0 .7-.188 1.219-.538 1.569-.377.385-.923.564-1.605.564-.68 0-1.228-.188-1.604-.564-.34-.35-.538-.87-.538-1.57 0-1.451.843-2.123 2.142-2.123zm29.724-30.19h-3.317v3.89c-1.55.162-2.877.574-3.98 1.237l-2.465-2.465-2.34 2.34 2.466 2.447c-.645 1.076-1.067 2.402-1.237 3.98h-3.89v3.316h3.89c.161 1.578.583 2.904 1.237 3.98l-2.459 2.46a.885.885 0 01-.002.01l2.335 2.353 2.465-2.465c1.103.663 2.438 1.066 3.98 1.236v3.89h3.317v-3.89c1.55-.16 2.877-.573 3.98-1.236l2.465 2.465 2.348-2.34-2.465-2.465c.645-1.076 1.067-2.402 1.237-3.98h3.89v-3.316h-3.89c-.161-1.578-.583-2.905-1.237-3.98l2.465-2.465-2.348-2.349-2.465 2.465c-1.103-.663-2.439-1.066-3.98-1.237v-3.88zm-1.659 7.548c3.577 0 5.549 1.971 5.549 5.548 0 3.576-1.972 5.548-5.549 5.548-3.576 0-5.548-1.972-5.548-5.548 0-3.577 1.972-5.548 5.548-5.548zm0 1.792c-2.563 0-3.755 1.192-3.755 3.756s1.192 3.756 3.755 3.756c2.564 0 3.756-1.192 3.756-3.756s-1.192-3.756-3.756-3.756zM26.165.251c3.209 3.092 4.84 7.736 4.84 13.804 0 6.041-1.613 10.676-4.804 13.768a.893.893 0 01-1.515-.645c0-.242.098-.475.269-.646 2.832-2.743 4.266-6.947 4.266-12.477 0-5.558-1.443-9.761-4.293-12.513a.893.893 0 111.237-1.29zm-7.19 4.49c2.18 2.098 3.282 5.235 3.282 9.314 0 4.07-1.094 7.198-3.263 9.295a.876.876 0 01-.61.251.893.893 0 01-.896-.896c0-.242.099-.475.269-.646 1.802-1.748 2.716-4.446 2.716-8.004 0-3.559-.923-6.275-2.734-8.023a.893.893 0 111.237-1.29z" fill="#313235" fill-rule="nonzero"/></svg>