<svg width="64" height="64" viewBox="0 0 64 64" xmlns="http://www.w3.org/2000/svg"><path d="M41.065.501h1.313l.437.001h.872l.435.001.864.001a.89.89 0 01.504.154c.047.032.092.067.133.106l17.479 17.479c.17.17.26.394.26.636v41.69c0 1.73-.995 2.725-2.716 2.725H24.164c-1.802 0-2.797-1.004-2.797-2.815V45.205a.89.89 0 01.032-.237 17.612 17.612 0 01-6.583-3.75L2.042 54.411A.893.893 0 01.5 53.793c0-.234.09-.467.26-.628l12.787-13.214A17.604 17.604 0 018.98 28.094c0-7.922 5.207-14.622 12.387-16.866V3.283c0-1.757 1.022-2.77 2.788-2.779l2.168-.001h1.882l.303-.001h1.975L30.836.5h10.229zm3.024 1.795H24.155c-.771 0-.995.225-.995.987v7.487a17.768 17.768 0 013.487-.343c9.761 0 17.667 7.906 17.667 17.667 0 4.688-1.864 9.179-5.172 12.495a17.606 17.606 0 01-12.495 5.172c-1.194 0-2.36-.118-3.487-.344V60.48c0 .825.197 1.022 1.013 1.022h36.473c.717 0 .923-.215.932-.932l-.001-40.794h-7.851c-2.815 0-5.226-.923-6.974-2.661-1.748-1.74-2.662-4.15-2.662-6.974l-.001-7.844zm-17.442 9.923c-8.767 0-15.875 7.109-15.875 15.875s7.108 15.874 15.875 15.874c8.766 0 15.874-7.108 15.874-15.874 0-4.213-1.676-8.247-4.652-11.231a15.77 15.77 0 00-11.222-4.644zm19.235-8.651v6.572c0 4.76 3.075 7.843 7.844 7.843l6.577-.001L45.882 3.568z" fill="#313235" fill-rule="nonzero"/></svg>