<svg width="24" height="24" viewBox="0 0 24 24" xmlns="http://www.w3.org/2000/svg"><path d="M15.993 2.743c3.6 3.583 3.682 9.365.232 13.045l7.304 7.301a.336.336 0 01-.235.575.336.336 0 01-.239-.101l-7.304-7.301a9.296 9.296 0 01-6.38 2.511A9.37 9.37 0 012.743 2.776c3.65-3.667 9.583-3.684 13.25-.033zM9.371.706C4.568.706.672 4.598.672 9.402c0 2.306.918 4.52 2.548 6.15a8.693 8.693 0 0012.3 0c3.394-3.397 3.398-8.903 0-12.298A8.635 8.635 0 009.37.706zm.263 3.53c.184 0 .336.15.336.335v.453c.63.057 1.213.237 1.677.526.192.117.3.282.3.463a.483.483 0 01-.481.481.656.656 0 01-.306-.087l-.004-.004a3.523 3.523 0 00-1.186-.408l-.001 2.698.255.038c.676.119 1.2.35 1.564.69.41.384.619.905.619 1.544 0 1.362-.918 2.256-2.437 2.415v.778a.337.337 0 01-.336.336.337.337 0 01-.337-.336v-.76l-.097-.003a4.476 4.476 0 01-2.239-.78.52.52 0 01-.245-.45.496.496 0 01.504-.491c.121.003.235.04.336.108.578.383 1.163.601 1.742.65l-.001-2.824-.118-.016c-1.066-.162-2.265-.688-2.265-2.22 0-1.365.928-2.27 2.382-2.36l.001-.44c0-.185.152-.337.337-.337zm.337 5.466v2.715c.389-.053.717-.18.963-.377.316-.252.481-.608.481-1.028 0-.52-.178-1.08-1.444-1.31zM7.906 7.314c0 .48.167 1.046 1.39 1.282l.001-2.624c-.863.071-1.391.572-1.391 1.342z" fill="#5CB615" fill-rule="nonzero"/></svg>