<svg width="64" height="64" viewBox="0 0 64 64" xmlns="http://www.w3.org/2000/svg"><path d="M49.793 23.852c-.915 0-1.766-.063-2.564-.188l4.141-4.805a2.639 2.639 0 00.726-1.82c0-1.46-1.165-2.643-2.617-2.643h-.027l-10.129.044c-.027-.394-.054-.78-.054-1.192 0-7.135 3.442-10.604 10.533-10.604 7.09 0 10.54 3.47 10.54 10.604 0 7.144-3.45 10.604-10.55 10.604zm-18.815 14.62L17.076 23.754h26.577l-.036.053-12.639 14.665zM24.013 60.28l7.037-3.254 7.637 3.227c-.01.01-14.674.027-14.674.027zm25.448-43.24l-3.505 4.06H15.462c-.242.01-.475.081-.681.215l-3.872-4.105c0 .009 38.552-.17 38.552-.17zM49.793 0c-8.489 0-13.159 4.706-13.159 13.257 0 .421.036.807.054 1.201l-17.3.08c-.045-.062-.071-.134-.125-.196l-6.768-6.804a4.064 4.064 0 00-2.886-1.21H1.345a1.322 1.322 0 000 2.644h8.282c.385 0 .753.153 1.022.43l5.118 5.146-4.867.027a2.609 2.609 0 00-2.403 1.604 2.665 2.665 0 00.511 2.86l20.07 21.243c.18.198.412.323.636.449v13.992l-12.27 5.683a1.326 1.326 0 00.546 2.527l27.186-.053a1.327 1.327 0 001.74-.7 1.327 1.327 0 00-1.229-1.846l-13.346-5.638v-14.02c.224-.134.448-.268.627-.474l12.325-14.288c1.371.35 2.86.573 4.509.573 8.488 0 13.167-4.705 13.167-13.239C62.97 4.715 58.29 0 49.793 0z" fill="#313235" fill-rule="nonzero"/></svg>