<svg width="64" height="64" viewBox="0 0 64 64" xmlns="http://www.w3.org/2000/svg"><path d="M50.857 26.44c-.35.01-.735 0-1.03-.008a10.149 10.149 0 01-1.38-.144c1.98-4.786 2.643-11.025 2.715-18.321V5.672c3.066.08 9.663 1.29 9.663 10.344 0 9.269-6.974 10.38-9.968 10.425m-18.751 7.413c-.036-.01-.072-.027-.117-.027-.054 0-.107.027-.161.036-.135 0-.251.009-.377.009-12.495 0-16.95-6.947-17.03-26.524V3.144H48.5c0 1.721 0 4.527-.009 4.814-.18 18.788-4.49 25.654-16.385 25.896m10.54 26.998H21.35c.422-6.257 3.908-9.304 10.649-9.304 6.732 0 10.227 3.047 10.649 9.304M13.139 26.441c-3.003-.045-9.968-1.156-9.968-10.425 0-8.085 5.253-9.923 8.57-10.272v1.613c.035 7.727.672 14.172 2.67 19.039-.717.045-1.263.036-1.272.045M51.162 3.037v-1.22c0-.734-.6-1.326-1.326-1.317h-36.76a1.318 1.318 0 00-1.336 1.318v1.309C6.093 3.628.5 7.187.5 16.017c0 9.492 6.508 12.978 12.603 13.068h.134c.359 0 1.354-.018 2.447-.143 2.797 4.706 7.458 7.368 14.978 7.547v12.504c-7.744.493-12.02 5.092-12.02 13.177 0 .735.592 1.326 1.336 1.326h24.05a1.324 1.324 0 001.335-1.317v-.01c0-8.093-4.285-12.692-12.02-13.176V36.435c6.92-.421 11.294-3.164 13.947-7.735.08.035.161.09.25.116.817.188 1.82.251 2.242.26.233.01.502.01.78.01h.35c6.085-.09 12.602-3.577 12.602-13.07-.018-9.403-6.355-12.863-12.352-12.98" fill="#313235" fill-rule="nonzero"/></svg>