<svg width="64" height="64" viewBox="0 0 64 64" xmlns="http://www.w3.org/2000/svg"><path d="M50.266 24.352c-.914 0-1.766-.063-2.564-.188l4.141-4.805a2.639 2.639 0 00.726-1.82c0-1.46-1.165-2.643-2.617-2.643h-.027l-10.129.044c-.027-.394-.053-.78-.053-1.192 0-7.135 3.442-10.604 10.532-10.604s10.541 3.47 10.541 10.604c0 7.144-3.451 10.604-10.55 10.604zM31.45 38.972L17.55 24.254h26.577l-.036.053L31.45 38.972zM24.487 60.78l7.036-3.254 7.637 3.227c-.009.01-14.673.027-14.673.027zm25.447-43.24L46.43 21.6H15.935c-.242.01-.475.081-.68.215l-3.873-4.105c0 .009 38.552-.17 38.552-.17zM50.266.5c-8.489 0-13.159 4.706-13.159 13.257 0 .421.036.807.054 1.201l-17.3.08c-.044-.062-.071-.134-.125-.196l-6.768-6.804a4.064 4.064 0 00-2.886-1.21H1.818a1.322 1.322 0 000 2.644H10.1c.385 0 .753.153 1.022.43l5.118 5.146-4.867.027a2.609 2.609 0 00-2.402 1.604 2.665 2.665 0 00.51 2.86l20.07 21.243c.18.198.412.323.636.449v13.992l-12.27 5.683a1.326 1.326 0 00.546 2.527l27.187-.053a1.327 1.327 0 001.739-.7 1.327 1.327 0 00-1.228-1.846l-13.347-5.638v-14.02c.224-.134.448-.268.627-.474l12.325-14.288c1.372.35 2.86.573 4.509.573 8.488 0 13.167-4.705 13.167-13.239C63.442 5.215 58.763.5 50.266.5z" fill="#313235" fill-rule="nonzero"/></svg>