<svg width="24" height="24" viewBox="0 0 24 24" xmlns="http://www.w3.org/2000/svg"><path d="M11.829.027c3.768 0 6.689.975 8.685 2.9 2.07 1.997 3.123 4.996 3.123 8.908.003 7.721-4.08 11.805-11.808 11.805C4.108 23.64.024 19.56.024 11.835.024 4.111 4.104.027 11.829.027zm0 .672C4.444.7.696 4.447.696 11.835c0 7.385 3.744 11.133 11.133 11.133 7.391 0 11.136-3.744 11.136-11.133C22.968 4.444 19.22.7 11.829.7zm5.784 6.242a.32.32 0 01.058.447l-7.368 9.523a.323.323 0 01-.253.124.314.314 0 01-.252-.124l-3.102-4.054a.317.317 0 01.06-.447.317.317 0 01.447.06l2.847 3.722 7.116-9.194a.32.32 0 01.447-.057z" fill="#313235" fill-rule="nonzero"/></svg>