<?xml version="1.0" encoding="UTF-8"?>
<svg width="24px" height="24px" viewBox="0 0 24 24" version="1.1" xmlns="http://www.w3.org/2000/svg" xmlns:xlink="http://www.w3.org/1999/xlink">
    <title>1.Light/Correcto_1Light</title>
    <g id="Symbols" stroke="none" stroke-width="1" fill="none" fill-rule="evenodd">
        <g id="1.Light/Correcto_1Light" fill="#5CB615" fill-rule="nonzero">
            <path d="M11.8285714,0.0268907563 C15.5966387,0.0268907563 18.5176471,1.00168067 20.5142857,2.92773109 C22.5848739,4.92436975 23.6369769,7.92268908 23.6369769,11.8352941 C23.6403361,19.5563025 19.5563025,23.6403361 11.8285714,23.6403361 C4.10756303,23.6403361 0.0235294118,19.5596639 0.0235294118,11.8352941 C0.0235294118,4.11092437 4.10420168,0.0268907563 11.8285714,0.0268907563 Z M11.8285714,0.699159664 C4.44369748,0.699159664 0.695798319,4.44705882 0.695798319,11.8352941 C0.695798319,19.2201681 4.44033613,22.9680672 11.8285714,22.9680672 C19.2201681,22.9680672 22.9647081,19.2235294 22.9647081,11.8352941 C22.9680672,4.44369748 19.2201681,0.699159664 11.8285714,0.699159664 Z M17.6134454,6.94117647 C17.7512605,7.0487395 17.7781513,7.25042017 17.6705882,7.38823529 L10.302521,16.9109244 C10.2420168,16.9882353 10.1478992,17.0352941 10.0504202,17.0352941 C9.94957983,17.0352941 9.85546218,16.9882353 9.79831933,16.9109244 L6.69579832,12.8571429 C6.58823529,12.7159664 6.61512605,12.5176471 6.75630252,12.410084 C6.89747899,12.302521 7.09579832,12.3294118 7.20336134,12.4705882 L10.0504202,16.1915966 L17.1663866,6.99831933 C17.2739496,6.8605042 17.4756303,6.83361345 17.6134454,6.94117647 Z" id="Correcto_1Light"></path>
        </g>
    </g>
</svg>