<svg width="64" height="64" viewBox="0 0 64 64" xmlns="http://www.w3.org/2000/svg"><path d="M33.387 60.852c6.445-.117 27.483-2.546 27.483-28.773 0-11.357-3.881-19.55-11.545-24.354-6.257-3.926-13.32-4.5-16.072-4.572a94.456 94.456 0 00-2.313-.027h-.582c-2.734.027-9.753.493-15.92 4.375C6.927 12.224 3.126 20.435 3.126 31.899c0 11.483 3.846 19.711 11.429 24.498 6.22 3.917 13.293 4.437 16.045 4.473l.94.009c.646-.01 1.292-.01 1.847-.027zM33.316.527c6.167.143 30.18 2.581 30.18 31.552 0 29.033-24.04 31.292-30.055 31.4-.573.008-1.237.017-1.9.017-.332 0-.663 0-.986-.009C24.227 63.397.5 61.112.5 31.9.5 2.723 24.011.554 30.33.5h.61c.807 0 1.65.009 2.376.027zM31.989 42.53a1.31 1.31 0 01-1.309-1.308V14.026a1.31 1.31 0 011.31-1.309c.716 0 1.308.592 1.308 1.31v27.195a1.31 1.31 0 01-1.309 1.308zm.009 3.344a2.052 2.052 0 110 4.104 2.052 2.052 0 010-4.104z" fill="#313235" fill-rule="nonzero"/></svg>