<svg width="64" height="64" viewBox="0 0 64 64" xmlns="http://www.w3.org/2000/svg"><path d="M46.44 41.627l-1.2.027V29.499c0-2.303-1.794-4.024-5.352-5.091-4.867-1.452-13.033-1.452-17.873 0-2.967.878-4.706 2.223-5.217 3.998-.108.34-.162.717-.162 1.084v12.343c-.053 0-.107-.027-.134-.027h-2.94c-3.299 0-10.89-1.03-10.89-10.693 0-5.432 2.374-8.847 7.062-10.174.574-.152.969-.672.969-1.264l-.027-.35c0-15.489 13.642-16.68 17.837-16.68 2.358 0 14.315.528 17.148 11.042.17.565.672.96 1.254.977 4.034.108 13.401 1.64 13.401 13.455.009 12.558-10.613 13.508-13.876 13.508zM19.478 28.943c.376-.77 1.497-1.452 3.29-1.98 2.196-.664 5.082-1.004 8.192-1.004 3.075 0 5.961.34 8.157 1.003 1.336.395 2.886 1.031 3.317 2.017-.35.744-1.506 1.452-3.317 1.981-4.356 1.3-11.957 1.3-16.323 0-1.82-.564-2.967-1.273-3.316-2.017zm23.09 9.403c-.376.637-1.443 1.506-3.424 2.089-4.383 1.3-11.984 1.3-16.34 0-2.062-.61-3.129-1.461-3.479-2.062v-6.06c.861.503 1.775.906 2.734 1.193 2.412.717 5.594 1.111 8.91 1.111 3.344 0 6.526-.394 8.937-1.111a12.635 12.635 0 002.671-1.165c-.009-.01-.009 6.005-.009 6.005zm0 9.529c-.376.636-1.443 1.505-3.424 2.088-4.383 1.3-11.984 1.3-16.323 0-2.115-.61-3.155-1.434-3.504-2.062v-6.086c.78.448 1.658.843 2.733 1.165 2.412.717 5.594 1.112 8.937 1.112 3.317 0 6.499-.395 8.91-1.112a11.16 11.16 0 002.671-1.192v6.087zm0 8.927c0 1.246-1.873 2.062-3.45 2.537-4.393 1.3-11.931 1.3-16.35 0-1.578-.475-3.451-1.3-3.451-2.537v-5.459c.78.449 1.658.852 2.733 1.166 2.412.717 5.594 1.111 8.937 1.111 3.317 0 6.499-.403 8.91-1.111a10.36 10.36 0 002.671-1.192v5.485zm5.423-44.728C44.217.583 31.139 0 28.513 0 25.116 0 8.372.896 8.023 18.716 4.652 19.944 0 23.09 0 31.113c0 9.85 7.01 13.346 13.562 13.346h2.94c.054 0 .08-.027.134-.027v12.361c0 2.304 1.793 4.025 5.379 5.083 2.429.717 5.593 1.111 8.936 1.111 3.317 0 6.499-.394 8.937-1.111 3.558-1.058 5.351-2.78 5.351-5.083V44.298l1.201-.027c2.779 0 16.556-.77 16.556-16.152 0-13.446-10.487-15.704-15.005-16.045z" fill="#313235" fill-rule="nonzero"/></svg>