<svg width="24" height="24" viewBox="0 0 24 24" xmlns="http://www.w3.org/2000/svg"><path d="M22.1 14.622h-3.67c.262-1.204.41-2.525.41-3.916 0-1.143-.097-2.239-.279-3.264h3.708c.232.985.353 2.08.353 3.294 0 1.459-.178 2.753-.521 3.886zm-6.47 5.59c1.1-1.025 1.99-2.632 2.562-4.605h3.56c-1.07 2.494-3.11 4.033-6.122 4.605zm-2.4.218v-4.823h3.913c-.804 2.645-2.242 4.507-3.913 4.823zm0-12.985h4.31c.191 1.026.299 2.118.299 3.264 0 1.388-.148 2.723-.43 3.916H13.23v-7.18zm0-6.41c1.802.336 3.331 2.454 4.091 5.422h-4.09V1.035zm8.763 5.422h-3.63c-.541-2.249-1.513-4.08-2.72-5.207 3.238.616 5.369 2.36 6.35 5.207zm-9.761 0h-4.37c.85-2.918 2.511-5.086 4.37-5.425v5.425zm0 8.165h-2.46v-2.326c0-.81-.62-1.402-1.853-1.765a6.054 6.054 0 00-.638-.148 15.14 15.14 0 01.34-2.938h4.61v7.177zm0 5.839c-.8-.02-1.57-.088-2.272-.206a.61.61 0 00-.192 0v-4.648h2.46c.004 0 .004 4.854.004 4.854zM8.77 15.254c-.141.215-.521.49-1.13.679-1.469.437-4.03.437-5.489 0-.692-.205-1.032-.464-1.153-.66v-1.949c.242.138.521.256.86.353.821.246 1.9.384 3.03.384 1.129 0 2.208-.138 3.028-.384.34-.1.612-.218.85-.346.004 0 .004 1.923.004 1.923zm0 3.213c-.128.205-.48.484-1.13.683-1.472.433-4.03.433-5.489 0-.692-.205-1.042-.474-1.153-.673v-1.963c.25.138.531.266.86.363.821.239 1.9.377 3.03.377 1.129 0 2.208-.138 3.038-.373a4.28 4.28 0 00.84-.367c.004 0 .004 1.953.004 1.953zm0 3.015c0 .414-.71.693-1.14.82-1.469.434-4.02.434-5.489 0-.43-.127-1.14-.403-1.14-.82v-1.75c.25.137.532.255.861.352.82.245 1.9.387 3.029.387 1.13 0 2.208-.142 3.038-.387.313-.087.592-.215.84-.353v1.751zM2.14 11.476c1.47-.434 4.02-.434 5.49 0 .359.107.93.326 1.088.638-.09.158-.34.394-1.089.622-1.459.434-4.02.434-5.479 0-.591-.178-.961-.403-1.089-.642.128-.222.498-.45 1.08-.618zm1.049-4.03h3.392a18.064 18.064 0 00-.3 2.79c-1.14-.112-2.289-.081-3.421.09.01-.971.12-1.936.329-2.88zm6.48-6.172C8.4 2.417 7.383 4.239 6.8 6.457H3.479c.961-2.81 3.042-4.534 6.192-5.183zm13.463 5.54c-.01-.02-.01-.04-.02-.068C21.873 2.32 18.353 0 12.733 0 7.113 0 3.59 2.32 2.363 6.743c-.02.03-.02.06-.03.077-.3 1.113-.457 2.346-.48 3.708-1.013.306-1.621.766-1.803 1.378-.03.131-.05.262-.05.39v9.186c0 .8.622 1.392 1.852 1.755.83.245 1.9.383 3.029.383 1.13 0 2.211-.138 3.042-.383 1.23-.366 1.848-.955 1.848-1.755v-.265h.01c.901.168 1.9.245 2.952.245 7.12 0 10.89-3.707 10.89-10.726 0-1.455-.17-2.756-.49-3.923z" fill="#313235" fill-rule="nonzero"/></svg>