<svg width="24" height="24" viewBox="0 0 24 24" xmlns="http://www.w3.org/2000/svg"><path d="M7.002 13.855a.495.495 0 01.988 0v4.767a.495.495 0 01-.988 0v-4.767zm.497 5.85a.477.477 0 110 .953.477.477 0 010-.954zm15.14-10.73v-4.34c-.494.394-1.173.72-2.034.975-1.439.434-3.321.669-5.314.669-1.994 0-3.876-.235-5.325-.669-.867-.265-1.546-.592-2.05-.985V8.76c.01 0 .02.01.03.01a.865.865 0 01.424.423l.285.572c.01 0 .01.01.02.01.424.265.959.5 1.587.689 1.341.403 3.136.628 5.029.628 1.892 0 3.684-.225 5.028-.628 1.342-.403 2.07-1.015 2.32-1.49zm0 5.828v-4.39c-.521.404-1.214.75-2.034.995-1.439.434-3.321.67-5.314.67-1.994 0-3.876-.236-5.315-.67a21.88 21.88 0 01-.611-.208l2.74 5.492c.998.148 2.07.226 3.186.226 1.892 0 3.687-.226 5.028-.629 1.342-.403 2.07-1.022 2.32-1.486zm0 5.345v-3.906c-.521.403-1.214.75-2.034.995-1.439.424-3.321.669-5.314.669-.918 0-1.805-.047-2.652-.158l2.258 4.538c.061.107.088.235.088.353h.286c1.892 0 3.677-.229 5.048-.632 1.54-.46 2.32-1.09 2.32-1.86zM1.035 22.57l12.925.047L7.553 9.755 1.035 22.57zm9.21-20.958c-1.29.394-2.07.915-2.269 1.516 0 .01.01.02.01.027.206.602.985 1.123 2.266 1.506 1.351.414 3.146.629 5.039.629 1.892 0 3.674-.215 5.025-.629 1.254-.373 2.03-.877 2.255-1.455 0-.02.01-.02.02-.03-.184-.64-.944-1.164-2.285-1.564-1.348-.403-3.133-.628-5.035-.628-1.893 0-3.678.225-5.026.628zM20.598.67c2.01.608 3.026 1.556 3.026 2.813v16.666c0 1.26-1.016 2.205-3.026 2.803-1.448.434-3.344.67-5.324.67-.198 0-.877 0-1.076-.01-.03 0-.067 0-.097-.011h-.03L.908 23.556a.893.893 0 01-.629-.255.9.9 0 01-.171-1.076L6.733 9.183c.043-.1.11-.188.198-.255V3.482c0-.205.03-.393.077-.581v-.01c.286-.965 1.274-1.715 2.948-2.225C11.398.236 13.291 0 15.271 0c1.993 0 3.885.235 5.327.669z" fill="#313235" fill-rule="nonzero"/></svg>