<svg width="64" height="64" xmlns="http://www.w3.org/2000/svg"><path d="M18.671 36.948a1.32 1.32 0 011.318-1.318 1.32 1.32 0 011.317 1.318v12.71a1.32 1.32 0 01-1.317 1.318 1.32 1.32 0 01-1.318-1.318v-12.71zm1.327 15.597A1.272 1.272 0 1120 55.088a1.272 1.272 0 01-.002-2.543zM60.37 23.933V12.36c-1.318 1.049-3.129 1.918-5.423 2.6-3.837 1.156-8.856 1.783-14.172 1.783-5.315 0-10.335-.627-14.198-1.784-2.313-.708-4.123-1.577-5.468-2.626v11.025c.027 0 .054.027.08.027.503.233.897.627 1.13 1.13l.762 1.523c.027 0 .027.027.054.027 1.13.708 2.555 1.336 4.23 1.838 3.577 1.075 8.364 1.676 13.41 1.676 5.047 0 9.824-.6 13.41-1.676 3.576-1.076 5.521-2.707 6.185-3.971zm0 15.543V27.769c-1.39 1.076-3.236 2-5.423 2.653-3.837 1.157-8.856 1.784-14.172 1.784-5.315 0-10.335-.627-14.171-1.784a58.347 58.347 0 01-1.631-.555l7.305 14.646c2.662.395 5.521.6 8.497.6 5.047 0 9.833-.6 13.41-1.675 3.576-1.076 5.521-2.725 6.185-3.962zm0 14.252V43.312c-1.39 1.076-3.236 1.999-5.423 2.653-3.837 1.13-8.856 1.784-14.172 1.784-2.447 0-4.813-.125-7.072-.421l6.024 12.1c.161.287.233.628.233.942h.762c5.046 0 9.806-.61 13.463-1.685 4.105-1.228 6.185-2.905 6.185-4.957zM2.76 60.19l34.466.126L20.14 26.012 2.761 60.19zM27.322 4.303c-3.442 1.048-5.522 2.438-6.05 4.042 0 .027.026.054.026.072.547 1.604 2.627 2.994 6.042 4.015 3.603 1.103 8.39 1.677 13.436 1.677 5.047 0 9.798-.574 13.4-1.677 3.344-.994 5.415-2.339 6.015-3.88 0-.055.027-.055.054-.081-.493-1.703-2.519-3.102-6.095-4.168-3.594-1.076-8.354-1.677-13.427-1.677-5.047 0-9.807.6-13.401 1.677zm27.608-2.52c5.36 1.623 8.067 4.15 8.067 7.503v44.442c0 3.361-2.707 5.88-8.067 7.475-3.863 1.157-8.919 1.784-14.198 1.784-.53 0-2.34 0-2.869-.027-.08 0-.18 0-.26-.027h-.08L2.42 62.817c-.627 0-1.21-.233-1.676-.681A2.355 2.355 0 010 60.424c0-.368.08-.79.287-1.157L17.954 24.49c.117-.27.296-.502.529-.682V9.287c0-.548.08-1.05.206-1.551v-.027c.762-2.573 3.397-4.572 7.861-5.934C30.396.627 35.442 0 40.722 0c5.315 0 10.361.627 14.207 1.784z" fill="#313235" fill-rule="nonzero"/></svg>