<svg width="64" height="64" viewBox="0 0 64 64" xmlns="http://www.w3.org/2000/svg"><path d="M54.552 55.413c-3.424 1.022-7.923 1.577-12.683 1.577-3.648 0-7.135-.331-10.12-.95 3.532-2.751 6.687-6.086 7.287-9.519.081-.466.144-.932.207-1.398.878.036 1.756.08 2.662.08 5.02 0 9.788-.6 13.427-1.694 2-.6 3.702-1.434 5.029-2.42v9.69c.009 1.918-1.954 3.469-5.809 4.634zm-50.895-9.35a52.197 52.197 0 01-.547-5.01h15.48v18.43c-5.18-2.744-14.054-8.39-14.933-13.42zm7.772-22.57c2.07-1.362 4.033-2.653 7.161-2.966v17.909H2.94c-.233-4.616-.296-9.582-.305-11.975 3.953.179 6.418-1.399 8.794-2.967zM23.395 11.86c1.255.959 2.949 1.757 5.091 2.402 3.64 1.094 8.408 1.694 13.428 1.694 5.02 0 9.788-.6 13.427-1.694 2.134-.636 3.792-1.416 5.029-2.348V22.65c-.628 1.156-2.43 2.69-5.782 3.684-3.397 1.022-7.897 1.587-12.665 1.587-.619 0-1.22-.036-1.829-.054.01-1.632.01-2.725.01-2.886a1.333 1.333 0 00-.503-.986c-.305-.242-.699-.35-1.093-.287-3.855.591-5.854-.726-8.39-2.403-1.829-1.21-3.846-2.536-6.723-3.137v-6.31zm5.8-7.655C32.6 3.19 37.09 2.626 41.868 2.626c4.777 0 9.277.565 12.674 1.578 3.317.995 5.217 2.286 5.692 3.854-.009.018-.027.036-.036.054-.555 1.452-2.5 2.707-5.629 3.648-3.397 1.013-7.897 1.578-12.665 1.578-4.769 0-9.269-.565-12.666-1.578-3.209-.968-5.172-2.259-5.674-3.764 0-.01-.009-.018-.018-.027.511-1.497 2.447-2.797 5.647-3.765zm10.854 26.281c.619.018 1.237.054 1.865.054 5.02 0 9.788-.6 13.427-1.694 2.008-.6 3.702-1.434 5.029-2.411v10.881c-.628 1.157-2.447 2.68-5.782 3.684-3.397 1.022-7.897 1.578-12.665 1.578-.816 0-1.596-.045-2.385-.072.305-3.8.449-8.452.511-12.02zM21.217 20.51c3.29.26 5.324 1.586 7.449 2.994 2.348 1.55 4.786 3.164 8.793 2.94 0 .627-.01 1.46-.018 2.402-.018.08-.054.161-.063.242-.009.125.027.242.054.358a250.217 250.217 0 01-.269 8.99H21.217V20.51zm0 39.117V41.053h15.785c-.063.843-.126 1.65-.206 2.402-.018.081-.054.153-.063.225 0 .062.018.116.018.17-.09.816-.18 1.568-.296 2.214-.896 5.118-10.12 10.89-15.238 13.562zM41.877 0C36.859 0 32.09.6 28.45 1.694c-4.24 1.273-6.758 3.173-7.475 5.638v.01a5.505 5.505 0 00-.206 1.478v9.035c-.233-.009-.458-.035-.708-.035-4.814 0-7.61 1.846-10.076 3.477C7.45 22.974 5.46 24.31 1.64 23.71A1.32 1.32 0 00.01 24.982c0 .618-.045 15.22 1.067 21.53 1.434 8.282 17.712 16.036 18.41 16.359.36.17.772.17 1.121 0 .332-.162 4.231-2.017 8.372-4.814 3.586.995 8.121 1.56 12.89 1.56 5.002 0 9.78-.6 13.436-1.694 5.1-1.533 7.682-3.935 7.682-7.135V8.829c0-3.2-2.581-5.602-7.682-7.135C51.675.601 46.897 0 41.878 0z" fill="#313235" fill-rule="nonzero"/></svg>