<svg width="64" height="64" viewBox="0 0 64 64" xmlns="http://www.w3.org/2000/svg"><path d="M62.073 52.796c.493 0 .896.403.896.896a.899.899 0 01-.896.896H.896A.899.899 0 010 53.692c0-.493.403-.896.896-.896h61.177zM53.36 10.738c3.245 0 5.71.942 7.332 2.797 1.524 1.748 2.304 4.33 2.304 7.673V37.01c0 3.343-.77 5.925-2.304 7.672-1.622 1.865-4.087 2.806-7.332 2.806H9.663c-3.245 0-5.71-.941-7.332-2.797C.798 42.936.027 40.354.027 37.011V21.208c0-3.344.77-5.925 2.304-7.673 1.622-1.855 4.087-2.797 7.332-2.797H53.36zm0 1.793H9.663c-5.352 0-7.843 2.76-7.843 8.686V37.02c0 5.925 2.491 8.685 7.843 8.685H53.36c5.351 0 7.843-2.76 7.843-8.685V21.208c0-5.925-2.492-8.677-7.843-8.677zm-14.808 5.773c2.268 0 3.738 1.192 3.72 3.755 0 1.228-.34 2.143-.94 2.761-.646.672-1.614.995-2.789.995-1.174 0-2.133-.323-2.787-.995a2.872 2.872 0 01-.274-.327l-7.371 3.687c.048.288.072.6.07.934 0 .34-.025.655-.076.946l7.365 3.68c.64-.904 1.716-1.337 3.082-1.337 2.268 0 3.738 1.193 3.72 3.756 0 1.228-.34 2.142-.94 2.76-.646.673-1.614.996-2.789.996-1.174 0-2.133-.323-2.787-.995-.6-.619-.941-1.533-.941-2.76 0-.255.014-.496.042-.724l-7.466-3.73a2.851 2.851 0 01-.15.169c-.646.672-1.614.994-2.788.994-1.175 0-2.134-.322-2.788-.994-.6-.619-.941-1.533-.941-2.761 0-2.564 1.47-3.756 3.738-3.756 1.27 0 2.29.377 2.939 1.162l7.458-3.727a5.806 5.806 0 01-.044-.734c0-2.563 1.47-3.755 3.737-3.755z" fill="#313235" fill-rule="nonzero"/></svg>