<svg width="24" height="24" viewBox="0 0 24 24" xmlns="http://www.w3.org/2000/svg"><path d="M23.277 19.798c.185 0 .336.152.336.336a.337.337 0 01-.336.337H.337A.337.337 0 010 20.134c0-.184.151-.336.336-.336h22.941zM20.01 4.027c1.217 0 2.141.353 2.75 1.049.571.655.864 1.623.864 2.877v5.926c0 1.254-.29 2.222-.864 2.877-.609.7-1.533 1.052-2.75 1.052H3.624c-1.217 0-2.142-.353-2.75-1.048C.299 16.1.01 15.133.01 13.879V7.953c0-1.254.29-2.222.864-2.877.608-.696 1.533-1.05 2.75-1.05H20.01zm0 .672H3.624C1.617 4.7.682 5.734.682 7.956v5.926c0 2.222.935 3.257 2.942 3.257H20.01c2.007 0 2.941-1.035 2.941-3.257v-5.93c0-2.22-.934-3.253-2.94-3.253zm-5.553 2.165c.85 0 1.402.447 1.395 1.408 0 .46-.128.804-.353 1.036-.242.252-.605.373-1.045.373-.44 0-.8-.121-1.046-.373a1.077 1.077 0 01-.102-.122l-2.764 1.382c.018.108.027.224.026.35 0 .127-.01.246-.029.355l2.762 1.38c.24-.34.644-.502 1.156-.502.85 0 1.402.447 1.395 1.409 0 .46-.128.803-.353 1.035-.242.252-.605.373-1.045.373-.44 0-.8-.12-1.046-.373-.225-.232-.353-.575-.353-1.035 0-.096.006-.186.017-.272l-2.802-1.4-.055.065c-.212.22-.516.34-.884.367l-.161.006c-.44 0-.8-.121-1.046-.373-.225-.232-.353-.575-.353-1.035 0-.962.552-1.409 1.402-1.409.476 0 .858.141 1.101.435l2.798-1.395a2.176 2.176 0 01-.017-.277c0-.961.552-1.408 1.402-1.408z" fill="#313235" fill-rule="nonzero"/></svg>