<svg width="24" height="24" viewBox="0 0 24 24" xmlns="http://www.w3.org/2000/svg"><path d="M19.741 8.985c-.249.464-.978 1.076-2.32 1.479-1.347.403-3.139.622-5.041.622-1.903 0-3.684-.215-5.042-.619-1.207-.366-2.08-.917-2.346-1.469v-4.37c.494.394 1.18.73 2.06.989 1.445.433 3.341.669 5.331.669 1.99 0 3.886-.236 5.331-.67.864-.255 1.536-.57 2.03-.967v4.336h-.003zm0 5.822c-.249.464-.978 1.075-2.32 1.479-1.347.403-3.139.632-5.041.632-1.903 0-3.684-.226-5.042-.632-1.207-.363-2.08-.908-2.346-1.47v-4.379c.524.383 1.22.72 2.06.968 1.445.434 3.341.672 5.331.672 2.004 0 3.893-.238 5.331-.672.814-.235 1.506-.571 2.03-.975v4.377h-.003zm0 5.334c0 .77-.783 1.398-2.33 1.866-1.357.403-3.149.628-5.041.628-1.893 0-3.684-.225-5.052-.628-1.547-.464-2.33-1.096-2.33-1.866v-3.886c.515.384 1.22.72 2.06.975 1.446.434 3.342.673 5.332.673 2.003 0 3.892-.236 5.33-.673.814-.235 1.507-.581 2.031-.985v3.896zM7.318 1.617C8.676 1.213 10.47.988 12.37.988c1.899 0 3.694.225 5.042.629 1.348.403 2.11.934 2.279 1.57 0 0-.01.01-.01.02-.229.581-.999 1.085-2.26 1.459-1.357.403-3.139.631-5.041.631-1.903 0-3.684-.225-5.042-.631-1.288-.387-2.07-.908-2.28-1.51 0-.01 0-.01-.01-.02.21-.602.992-1.133 2.27-1.52zM17.7.669C16.255.249 14.363 0 12.373 0 10.37 0 8.477.245 7.042.669c-1.684.504-2.676 1.254-2.961 2.228-.05.189-.081.384-.081.582v16.659c0 1.26 1.022 2.208 3.042 2.81 1.445.434 3.338.669 5.331.669 1.98 0 3.876-.235 5.328-.67 2.013-.61 3.032-1.549 3.032-2.81V3.483c0-1.264-1.019-2.198-3.032-2.813z" fill="#5CB615" fill-rule="nonzero"/></svg>