<svg width="64" height="64" viewBox="0 0 64 64" xmlns="http://www.w3.org/2000/svg"><path d="M21.892 7.5c4.378 0 6.589 2.22 6.589 6.587l-.001 7.578 3.803-.003-.027-2.256c-.009-.458.18-.746.342-.907a1.08 1.08 0 01.773-.324c.27 0 .53.1.773.27l1.838 1.378c.357-.99.92-1.778 1.685-2.349 1.079-.8 2.526-1.195 4.44-1.195h14.804c4.378 0 6.589 2.22 6.589 6.587v27.038c.009 4.44-2.148 6.596-6.58 6.596H42.116c-4.43 0-6.588-2.157-6.588-6.587l-.001-7.573-3.756.016-.036 2.265c.009.683-.477 1.195-1.115 1.195-.27 0-.53-.09-.773-.27l-1.82-1.352c-.847 2.373-2.87 3.527-6.144 3.527H7.09C2.657 47.72.5 45.564.5 41.134V14.087C.5 9.657 2.657 7.5 7.089 7.5h14.803zM56.92 18.076H42.116c-3.313 0-4.262 1.389-4.604 2.894l4.146 3.109c.35.26.548.647.548 1.06 0 .414-.197.8-.548 1.06l-4.333 3.221v5.96l2.76.003a1.59 1.59 0 011.312.485c.306.315.477.737.468 1.16l.009 3.522c.036.45-.108.899-.405 1.231a1.6 1.6 0 01-1.267.54l-2.877.011v7.581c0 3.45 1.349 4.79 4.791 4.79H56.92c3.452 0 4.791-1.348 4.791-4.79V22.866c0-3.36-1.429-4.79-4.79-4.79zM49.523 48.18c.953 0 1.564.503 1.564 1.573 0 .512-.144.898-.396 1.159-.27.278-.674.413-1.168.413-.494 0-.899-.135-1.169-.413-.251-.26-.395-.638-.395-1.16-.009-1.078.611-1.572 1.564-1.572zM21.893 9.297H7.088c-1.735 0-2.94.369-3.686 1.114-.746.746-1.105 1.95-1.105 3.676v27.038c0 3.45 1.348 4.79 4.79 4.79h14.804c2.745 0 4.12-.842 4.6-2.863l-4.222-3.14a1.316 1.316 0 01-.548-1.06c0-.414.197-.8.548-1.06l4.413-3.31V28.62l-2.957-.012h-.08c-.45 0-.882-.198-1.187-.54a1.654 1.654 0 01-.405-1.23l.01-3.523a1.63 1.63 0 01.467-1.159c.35-.36.827-.53 1.312-.485l2.84-.004v-7.58c0-3.361-1.429-4.79-4.79-4.79zm7.963 25.062l-5.995 4.493 4.036 3c.089.045.168.105.236.175l1.84 1.372.018-1.384c.009-.8.674-1.456 1.465-1.465l8.62-.036-.009-3.334-8.764-.009c-.395 0-.764-.152-1.042-.43a1.467 1.467 0 01-.423-1.043l.018-1.34zm-15.361 5.086c.953 0 1.564.503 1.564 1.572 0 .513-.144.899-.396 1.16-.27.278-.674.413-1.168.413-.494 0-.899-.135-1.169-.413-.251-.261-.395-.638-.395-1.16-.009-1.069.611-1.572 1.564-1.572zM28.48 28.627v4.508l1.304-.978c.243-.18.504-.27.773-.27.297 0 .567.117.773.324.162.162.35.45.342.908l-.027 2.255 3.882.004v-4.621l-1.446 1.077c-.225.18-.495.278-.755.278-.638 0-1.124-.52-1.133-1.204l-.036-2.264-3.677-.017zm5.6-7.99l.019 1.34c.009.395-.144.763-.423 1.042a1.508 1.508 0 01-1.042.44l-4.99.007a.901.901 0 01-.062.002l-.061-.005-3.651.005-.01 3.343 3.624.014a.899.899 0 01.098-.005l.113.007 4.786.02c.8.009 1.465.665 1.474 1.464l.018 1.384 1.826-1.36c.06-.06.13-.11.205-.151l4.081-3.036-4.005-3.008a.884.884 0 01-.182-.136l-1.817-1.367z" fill="#313235" fill-rule="nonzero"/></svg>