<svg width="24" height="24" viewBox="0 0 24 24" xmlns="http://www.w3.org/2000/svg"><path d="M6.454 18.992c.628 0 1.005.376 1.005 1.005 0 .306-.088.554-.259.732-.178.182-.434.276-.743.276-.31 0-.565-.094-.743-.276-.175-.178-.262-.423-.262-.732 0-.632.373-1.005 1.002-1.005zm8.366-2.444c5.167 0 7.778-2.605 7.778-7.765 0-5.15-2.611-7.761-7.778-7.761-3.593 0-5.946 1.297-7.042 3.808h1.64c1.147 0 1.997.296 2.599.901.605.602.89 1.439.89 2.582V16.4c.596.094 1.238.148 1.913.148zm-2.938 3.593V8.313c0-.858-.195-1.47-.595-1.87-.4-.396-1.015-.59-1.872-.59H3.49c-.85 0-1.455.204-1.865.61-.397.41-.602 1.013-.602 1.85V20.14c0 .857.195 1.47.602 1.87.4.396 1.005.59 1.865.59h5.926c.86 0 1.476-.194 1.876-.59.396-.4.591-1.013.591-1.87zM14.82 0c5.765 0 8.804 3.042 8.804 8.783 0 5.751-3.04 8.783-8.804 8.783-.675 0-1.307-.053-1.912-.144v2.716c0 1.153-.296 2-.901 2.595-.595.601-1.446.887-2.589.887H3.49c-1.136 0-1.986-.289-2.592-.887C.296 22.14 0 21.284 0 20.14V8.313C0 7.19.296 6.353.9 5.75c.606-.625 1.456-.92 2.592-.92h3.174C7.839 1.673 10.646 0 14.82 0zm2.195 11.923l-2.554-2.548a.508.508 0 01-.152-.363V5.566a.51.51 0 111.022 0v3.237l2.403 2.4a.513.513 0 010 .723.512.512 0 01-.719-.003z" fill="#313235" fill-rule="nonzero"/></svg>