<svg width="64" height="64" xmlns="http://www.w3.org/2000/svg"><path d="M63.086 4.294h-.027v26.621a6.473 6.473 0 01-1.883 3.523L34.528 60.925a6.312 6.312 0 01-4.267 2.062 3.683 3.683 0 01-2.653-1.004L1.085 35.496a4.974 4.974 0 01.932-6.92l26.675-26.72A6.663 6.663 0 0132.09 0h26.702a4.294 4.294 0 014.294 4.294zM60.432 30.52V4.294c0-.906-.735-1.64-1.64-1.64H32.565a3.947 3.947 0 00-1.99 1.138L3.818 30.413c-1.164 1.166-1.434 2.627-.905 3.147l26.523 26.496c.53.529 2.044.233 3.182-.896l26.703-26.65a3.687 3.687 0 001.111-1.989zM47.39 6.991a7.93 7.93 0 015.352 2.68 7.921 7.921 0 012.653 5.46 7.643 7.643 0 01-2.519 5.485 7.759 7.759 0 01-5.306 2.519 7.966 7.966 0 01-5.495-2.653 7.982 7.982 0 01-2.653-5.486A7.677 7.677 0 0141.94 9.51a7.809 7.809 0 015.45-2.518zm3.685 11.555a4.91 4.91 0 001.694-3.47 5.316 5.316 0 00-1.802-3.63 5.33 5.33 0 00-3.603-1.801 5.113 5.113 0 00-3.559 1.748 5.105 5.105 0 00-1.748 3.522 5.316 5.316 0 001.802 3.63 5.292 5.292 0 003.63 1.749 5.605 5.605 0 003.586-1.748z" fill="#313235" fill-rule="nonzero"/></svg>