<svg width="24" height="24" viewBox="0 0 24 24" xmlns="http://www.w3.org/2000/svg"><path d="M17.412 18.353l-1.173.01 1.223-1.297a.824.824 0 00.148-.858.767.767 0 00-.702-.48h-2.004l-.01-5.425c-.01-.43-.343-.787-.77-.787H9.486a.782.782 0 00-.77.787v5.324H6.703a.758.758 0 00-.703.48.819.819 0 00.158.861l1.371 1.452-2.467.01c-1.223 0-4.077-.41-4.077-4.208 0-2.125.89-3.476 2.645-3.997.219-.06.353-.4.353-.622 0-6.087 5.123-6.561 6.693-6.561.887 0 5.381.205 6.457 4.343a.49.49 0 00.464.376c1.512.04 5.035.642 5.035 5.284.003 4.928-3.993 5.308-5.22 5.308zm-5.536 3.21l-4.642-4.914H8.94c.427 0 .76-.357.76-.787v-5.324h4.205l.01 5.425c0 .44.346.787.77.787h1.687l-4.497 4.813zm6.11-14.807c-1.411-4.507-6.315-4.74-7.304-4.74-1.274 0-7.553.357-7.68 7.349C1.738 9.845 0 11.072 0 14.218c0 3.863 2.618 5.23 5.076 5.23l3.415-.02 2.833 3.016a.77.77 0 00.555.245c.198 0 .393-.09.541-.245l2.864-3.046 2.131-.02c1.039 0 6.212-.296 6.212-6.336-.003-5.274-3.943-6.155-5.64-6.286z" fill="#5CB615" fill-rule="nonzero"/></svg>