<svg width="24" height="24" viewBox="0 0 24 24" xmlns="http://www.w3.org/2000/svg"><path d="M11.812 23.61a.838.838 0 01-.649-.306L.235 12.004l-.02-.02a.912.912 0 01-.114-.976.85.85 0 01.773-.497h5.005c.104 0 .192-.1.192-.222V2.024C6.07.91 6.975.007 8.087.007h7.452c1.113 0 2.017.904 2.017 2.017l-.003 8.262c0 .124.084.222.192.222h5.035a.853.853 0 01.773.5c.155.32.11.7-.118.975l-.02.02-10.958 11.301a.848.848 0 01-.645.306zM.732 11.55l10.925 11.297.02.02a.186.186 0 00.138.07.175.175 0 00.138-.07l.02-.02L22.924 11.55a.252.252 0 00.024-.253.183.183 0 00-.168-.114H17.74c-.477 0-.864-.403-.864-.894l.004-8.259c0-.743-.602-1.344-1.345-1.344H8.087c-.742 0-1.344.601-1.344 1.344v8.256c0 .494-.387.894-.864.894H.877a.183.183 0 00-.168.114.25.25 0 00.024.256z" fill="#5CB615" fill-rule="nonzero"/></svg>