<svg width="64" height="64" viewBox="0 0 64 64" xmlns="http://www.w3.org/2000/svg"><path d="M43.359.5c3.298 0 5.673.78 7.269 2.384 1.596 1.605 2.366 3.971 2.366 7.252v43.697c0 3.317-.78 5.701-2.384 7.297-1.586 1.577-3.962 2.34-7.251 2.34H20.636c-3.29 0-5.665-.763-7.252-2.34C11.78 59.543 11 57.15 11 53.833V10.136c0-3.227.78-5.584 2.375-7.198C14.998 1.298 17.373.5 20.635.5H43.36zm0 1.793H20.636c-2.76 0-4.715.618-5.988 1.9-1.255 1.264-1.864 3.209-1.864 5.943v43.697c0 5.576 2.277 7.843 7.843 7.843H43.35c5.575 0 7.843-2.267 7.843-7.843V10.136c0-2.788-.6-4.75-1.838-5.988-1.237-1.237-3.2-1.855-5.996-1.855zm-11.34 48.35c1.614 0 2.654.85 2.654 2.67 0 .879-.233 1.524-.663 1.963-.467.476-1.148.709-1.99.709-.843 0-1.524-.233-1.99-.709-.43-.439-.673-1.084-.673-1.963 0-1.82 1.05-2.67 2.663-2.67zm-3.011-39.548h6.167c.618 0 1.21.26 1.613.726.395.448.583 1.04.511 1.64v16.843h5.746c.493 0 .896.403.896.896a.9.9 0 01-.224.592L32.674 44.359a.902.902 0 01-.672.296.879.879 0 01-.673-.305L20.322 31.792a.902.902 0 01.08-1.264.9.9 0 01.592-.224h5.576V13.3c-.027-.6.215-1.183.663-1.596a2.207 2.207 0 011.775-.609zm-.547 1.91a.273.273 0 00-.107.196v18a.899.899 0 01-.897.896h-4.49l9.035 10.308 9.062-10.308h-4.661a.899.899 0 01-.897-.897V13.4c0-.045 0-.09.01-.135a.31.31 0 00-.072-.26.311.311 0 00-.233-.116h-6.257c-.036 0-.072 0-.116-.01a.454.454 0 00-.377.126z" fill="#313235" fill-rule="nonzero"/></svg>