<svg width="64" height="64" xmlns="http://www.w3.org/2000/svg"><path d="M31.498 62.96c-.672 0-1.3-.296-1.73-.815L.628 32.009l-.054-.054a2.43 2.43 0 01-.305-2.6A2.267 2.267 0 012.33 28.03h13.346c.278 0 .511-.269.511-.591V5.396A5.382 5.382 0 0121.566.018H41.44a5.382 5.382 0 015.378 5.378l-.01 22.033c0 .331.225.591.512.591h13.427c.888.01 1.694.52 2.062 1.336a2.415 2.415 0 01-.314 2.6l-.054.053L33.22 62.145a2.26 2.26 0 01-1.721.815zM1.954 30.8l29.132 30.126.053.054c.09.117.225.18.368.189a.467.467 0 00.368-.189l.053-.054L61.132 30.8a.672.672 0 00.062-.672.489.489 0 00-.448-.305H47.31c-1.273 0-2.304-1.076-2.304-2.384l.01-22.024a3.584 3.584 0 00-3.586-3.585H21.566a3.584 3.584 0 00-3.585 3.585v22.015c0 1.317-1.03 2.384-2.304 2.384H2.34a.489.489 0 00-.448.305.665.665 0 00.063.68z" fill="#313235" fill-rule="nonzero"/></svg>