<svg width="24" height="24" viewBox="0 0 24 24" xmlns="http://www.w3.org/2000/svg"><path d="M16.51 0a.357.357 0 01.239.097l6.554 6.555a.333.333 0 01.097.239v15.73c0 .529-.464.992-.992.992H7.333c-.518 0-.992-.474-.992-.991v-6.555c0-.053.013-.104.035-.149a21.53 21.53 0 01-.223-.22l-.003-.004-.074-.07-.004-.004c-2.134-2.138-3.684-4.32-4.477-6.31-.746-1.868-.77-3.451-.074-4.463.003-.007.007-.01.013-.017l.014-.02c.087-.12.35-.484.618-.74 1.415-1.351 2.817-1.439 4.175-.268V.992c0-.501.49-.992.992-.992h9.176zm-.337.672h-8.84c-.128 0-.32.192-.32.32v3.277a.333.333 0 01-.047.171 4.3 4.3 0 01.367.521c.53.854.847 2.185-.646 3.678-.144.148-.299.282-.463.41-.236.296.174.988.44 1.378.565.823 1.502 1.788 2.158 2.444l.077.077c.656.655 1.62 1.593 2.444 2.155.39.268 1.082.675 1.378.44.128-.165.262-.32.41-.464 1.493-1.492 2.82-1.176 3.677-.645.326.195.622.427.888.699 1.449 1.449 1.452 2.954.003 4.467-.255.269-.622.531-.74.618l-.02.014-.016.013c-.488.337-1.113.508-1.836.508-.773 0-1.663-.192-2.628-.578-1.723-.687-3.59-1.941-5.446-3.651v6.098c0 .144.175.32.32.32h15.075c.155 0 .32-.166.32-.32V7.226h-2.941c-1.056 0-1.96-.345-2.616-.997-.655-.653-.998-1.557-.998-2.616V.672zM2.633 4.555c-.147.14-.329.36-.537.648l-.024.03c-1.096 1.604.088 5.52 4.474 9.91l.044.044.037.033c4.39 4.39 8.302 5.573 9.91 4.477l.03-.023a4.83 4.83 0 00.648-.538c1.193-1.25 1.197-2.34.007-3.53a3.788 3.788 0 00-.753-.594l-.01-.007c-.955-.595-1.886-.417-2.85.548a3.834 3.834 0 00-.377.43c-.01.014-.024.027-.037.04-.723.666-1.859-.11-2.229-.366-.87-.595-1.865-1.563-2.54-2.235l-.078-.077c-.676-.676-1.64-1.671-2.235-2.542-.256-.373-1.036-1.506-.367-2.228.014-.014.024-.024.04-.037.152-.114.296-.242.43-.377.962-.961 1.144-1.895.549-2.85l-.007-.01a3.67 3.67 0 00-.595-.753c-1.19-1.19-2.279-1.187-3.53.007zm19.62 1.999l-5.408-5.405v2.464c0 1.785 1.153 2.942 2.942 2.942l2.467-.001z" fill="#5CB615" fill-rule="nonzero"/></svg>