<svg width="64" height="64" xmlns="http://www.w3.org/2000/svg"><path d="M31.49.009c10.047 0 17.837 2.6 23.161 7.736 5.522 5.324 8.327 13.32 8.327 23.753 0 20.598-10.89 31.48-31.489 31.48C10.9 62.978.01 52.096.01 31.507c0-20.59 10.89-31.498 31.48-31.498zm0 1.793c-9.565 0-16.942 2.438-21.917 7.233C4.42 14.01 1.802 21.566 1.802 31.498s2.617 17.497 7.771 22.463c4.975 4.795 12.352 7.224 21.916 7.224s16.941-2.429 21.925-7.224c5.163-4.975 7.78-12.531 7.78-22.454s-2.617-17.488-7.78-22.463C48.43 4.24 41.054 1.802 31.489 1.802zm0 9.627c.492 0 .895.403.895.896l.002 3.235c2.856.153 5.283.963 6.999 2.027.592.367.87.824.87 1.281 0 .673-.538 1.228-1.22 1.228h-.009c-.322 0-.636-.134-.914-.278-1.794-.973-3.654-1.62-5.726-1.786l.002 12.006.624.08c6.158.77 9.08 3.693 9.08 8.345 0 4.932-3.308 8.533-9.699 8.942v3.275a.899.899 0 01-.896.896.899.899 0 01-.896-.896l-.002-3.243c-3.622-.11-6.83-1.467-8.998-2.987-.457-.322-.681-.68-.681-1.228a1.317 1.317 0 011.318-1.272c.34.018.672.125.959.322 1.875 1.245 4.438 2.49 7.402 2.695l-.003-12.508-.013-.002c-6.069-.77-8.892-3.693-8.892-8.21 0-5.126 3.477-8.396 8.901-8.691v-3.231c0-.493.403-.896.896-.896zm.9 21.254l.003 12.283c4.416-.304 7.083-2.768 7.083-6.306 0-3.038-1.66-5.199-7.086-5.977zm-8.09-8.67c0 2.983 1.716 4.972 6.296 5.775l-.004-11.776c-4.05.257-6.292 2.681-6.292 6.001z" fill="#313235" fill-rule="nonzero"/></svg>