<svg width="64" height="64" xmlns="http://www.w3.org/2000/svg"><path d="M41.192 40.193c5.593 0 10.174 1.685 13.24 4.867 2.814 2.922 4.293 6.992 4.293 11.77v5.243a.899.899 0 01-.896.896H3.644a.899.899 0 01-.897-.896v-5.244c0-4.777 1.488-8.847 4.294-11.77 3.065-3.181 7.637-4.866 13.24-4.866h20.911zm0 1.801H20.28c-5.172 0-9.188 1.452-11.948 4.312-2.483 2.581-3.792 6.22-3.792 10.523v4.347h52.392V56.83c0-4.302-1.308-7.942-3.791-10.523-2.761-2.86-6.777-4.312-11.949-4.312zM30.651 0c6.14 0 10.9 1.596 14.153 4.733 3.38 3.254 5.092 8.139 5.092 14.52v.019l-.027 1.748c0 1.595-.457 2.859-1.345 3.737-.887.879-2.115 1.31-3.666 1.31H43.69c-.613 1.497-1.465 2.775-2.552 3.827-2.384 2.294-5.862 3.46-10.344 3.46-4.472 0-7.96-1.166-10.344-3.47-2.474-2.384-3.728-5.96-3.728-10.612s1.254-8.229 3.728-10.613c2.394-2.295 5.872-3.46 10.344-3.46 4.473 0 7.96 1.165 10.344 3.469 2.474 2.393 3.73 5.96 3.73 10.613 0 1.835-.196 3.501-.584 4.993h.574c1.058 0 1.865-.27 2.403-.798.537-.53.815-1.372.815-2.474v-.018l.027-1.748c0-11.572-5.871-17.443-17.452-17.443-10.389 0-16.197 4.75-17.273 14.108a.894.894 0 01-1.775-.206c.592-5.217 2.582-9.214 5.907-11.859C20.71 1.291 25.13 0 30.651 0zm9.02 26.068c-.09.261-.224.479-.397.652-.368.368-.905.547-1.569.547-.663 0-1.2-.179-1.568-.547-.34-.34-.53-.851-.53-1.532 0-1.426.834-2.089 2.107-2.089.96 0 1.665.377 1.95 1.173l2.76.002c.433-1.453.65-3.12.65-4.993 0-4.15-1.075-7.288-3.182-9.322-2.034-1.972-5.1-2.967-9.098-2.967-3.997 0-7.054.995-9.098 2.967-2.115 2.034-3.182 5.172-3.182 9.322 0 4.15 1.076 7.287 3.182 9.322 2.044 1.972 5.1 2.967 9.098 2.967 3.998 0 7.055-.995 9.098-2.967a9.026 9.026 0 001.835-2.536z" fill="#313235" fill-rule="nonzero"/></svg>