<svg width="24" height="24" viewBox="0 0 24 24" xmlns="http://www.w3.org/2000/svg"><path d="M22.121 22.672a.519.519 0 00.518-.52v-5.765l-.01-.084a.514.514 0 00-.508-.468H1.503a.524.524 0 00-.521.521v5.795c0 .286.231.521.52.521h20.619zM2.951 1.54L1.173 14.887c.108-.023.215-.04.33-.04H22.12c.114 0 .225.017.33.04L20.786 1.664c-.068-.356-.33-.625-.632-.625L3.472 1.022a.517.517 0 00-.52.517zm20.67 14.767c0 .017.003.03.003.047v5.798c0 .83-.673 1.506-1.503 1.506H1.503c-.83 0-1.503-.675-1.503-1.506v-5.798c0-.03.007-.057.007-.084 0-.02-.007-.037-.004-.06L1.97 1.471C1.966.706 2.639.03 3.469.03L20.15.047c.787 0 1.446.602 1.604 1.459l1.828 14.52c.014.055.014.112.02.166l.01.094c.007.01.004.017.007.02zM11.81 7.052c-1.112 0-1.112.467-1.112.666 0 .198 0 .669 1.113.669 1.112 0 1.112-.468 1.112-.67 0-.201 0-.665-1.112-.665zm0 2.32c-1.892 0-2.093-1.157-2.093-1.654 0-.498.205-1.654 2.094-1.654 1.892 0 2.097 1.156 2.097 1.654 0 .497-.205 1.653-2.097 1.653zm7.43 10.917c.625 0 .88-.255.88-.88 0-.626-.255-.881-.88-.881-.633 0-.878.248-.878.88 0 .636.245.881.877.881zm0-2.746c1.166 0 1.862.699 1.862 1.865 0 1.17-.696 1.866-1.863 1.866-1.166 0-1.862-.696-1.862-1.866 0-1.17.696-1.865 1.862-1.865zM4.691 3.16c-.578 0-.917-.212-.917-.663 0-.453.34-.665.917-.665.582 0 .918.212.918.665 0 .448-.336.663-.918.663zm13.772 0c-.578 0-.918-.212-.918-.663 0-.453.34-.665.918-.665.581 0 .918.212.918.665.003.448-.337.663-.918.663zm1.97 10.847c-.579 0-.918-.212-.918-.662 0-.454.34-.666.918-.666.581 0 .917.212.917.666 0 .45-.34.662-.917.662zm-17.15-1.563c-.168.154-.259.306-.252.413.01.121.144.272.366.417.37.242.931.42 1.486-.087 1.244-1.14 2.679-2.915 2.585-3.358a.301.301 0 00-.06-.007c-.633.003-3.143 1.724-4.125 2.622zm2.958-3.23c.003.01.003.02.003.033.72-.326 1.375-.467 1.785-.198.246.158.394.41.417.709.03.373-.161.84-.454 1.324l.054.027c.941.45 2.208.68 3.765.68 3.859 0 5.812-1.369 5.812-4.068 0-2.7-1.957-4.067-5.812-4.067C7.956 3.654 6 5.022 6 7.72c0 .551.08 1.052.242 1.492zm-3.378 4.89c-.625-.407-.787-.86-.81-1.166-.024-.3.054-.753.568-1.224.023-.02 1.381-1.203 2.78-2.027a.504.504 0 01-.084-.134 5.309 5.309 0 01-.303-1.835c0-2.306 1.18-5.056 6.797-5.056s6.796 2.75 6.796 5.056-1.18 5.052-6.796 5.052c-1.704 0-3.116-.262-4.192-.777l-.175-.087c-.006-.003-.01-.01-.02-.017a18.799 18.799 0 01-1.875 2.024c-.424.39-.921.585-1.429.585-.42.003-.847-.128-1.257-.394z" fill="#5CB615" fill-rule="nonzero"/></svg>