<svg width="64" height="64" xmlns="http://www.w3.org/2000/svg"><path d="M51.42 60.352c.663 0 1.281-.592 1.281-1.21V21.118h-8.139c-3.11 0-5.79-1.013-7.753-2.93-1.972-1.928-3.012-4.572-3.012-7.629V2.653H11.98c-.583 0-1.282.655-1.282 1.21v55.279c0 .6.645 1.21 1.282 1.21h39.44zm.6-41.887L36.415 3.227v7.323c0 2.33.761 4.312 2.214 5.728 1.46 1.425 3.513 2.187 5.925 2.187h7.466zm3.2-.045c.072.162.099.332.099.52v40.202c0 2.088-1.784 3.854-3.908 3.854H11.97c-2.08 0-3.908-1.802-3.908-3.854V3.854C8.063 1.838 9.927 0 11.97 0h24.004c.574 0 1.112.224 1.524.618l17.156 16.753c.305.296.467.664.565 1.05zm-9.645 34.824c.17 0 .35-.117.395-.189l-.036-25.411c-.01.107-.188-.01-.35-.01h-27.76a.552.552 0 00-.35.126v25.475c0-.036.018-.045.045-.045.063 0 .18.054.314.054h27.742zm0-28.262c1.587 0 2.976 1.245 2.976 2.662v25.59c0 1.417-1.39 2.663-2.976 2.663h-27.75c-1.614 0-2.977-1.22-2.977-2.662V27.644c0-1.443 1.363-2.662 2.967-2.662h27.76zm-22.023 9.07a1.4 1.4 0 00-1.39 1.408c0 .77.628 1.407 1.39 1.407a1.4 1.4 0 001.39-1.407 1.389 1.389 0 00-1.39-1.407zm0 5.46c-2.214 0-4.007-1.82-4.007-4.052 0-2.232 1.802-4.052 4.007-4.052 2.214 0 4.016 1.82 4.016 4.052 0 2.232-1.802 4.051-4.016 4.051zM39.274 37.1l5.342 4.132c.574.449.681 1.273.242 1.856-.439.583-1.264.69-1.837.242l-4.536-3.505-4.822 3.872 3.003 2.85c.528.503.555 1.336.053 1.874a1.308 1.308 0 01-1.855.063l-5.37-5.11-7.798 6.562a1.3 1.3 0 01-.842.305c-.377 0-.753-.161-1.013-.475a1.339 1.339 0 01.17-1.865l8.695-7.314a1.303 1.303 0 011.739.054l1.29 1.228 5.917-4.75a1.332 1.332 0 011.622-.019z" fill="#313235" fill-rule="nonzero"/></svg>