<svg width="64" height="64" viewBox="0 0 64 64" xmlns="http://www.w3.org/2000/svg"><path d="M43.429 60.36c.663 0 1.29-.59 1.29-1.218V21.1h-8.157c-3.11 0-5.79-1.013-7.744-2.922-1.972-1.927-3.012-4.562-3.012-7.628V2.626H3.971c-.592 0-1.29.664-1.29 1.22v55.296c0 .6.653 1.219 1.29 1.219h39.458zm.61-41.886L28.414 3.209v7.35c0 2.33.77 4.32 2.223 5.737 1.46 1.425 3.513 2.187 5.933 2.187h7.467v-.01zm2.634-1.094c.413.404.655.968.655 1.551v40.21c0 2.09-1.784 3.855-3.9 3.855H3.972c-2.08 0-3.9-1.802-3.9-3.854V3.854C.072 1.838 1.928 0 3.972 0h24.013c.565 0 1.12.224 1.524.618L46.673 17.38zm-34.68 18.474a1.297 1.297 0 01-1.846 0 1.326 1.326 0 010-1.864l3.02-3.057-3.02-3.056a1.326 1.326 0 010-1.865c.51-.52 1.335-.52 1.846 0l3.021 3.057 3.02-3.057c.512-.52 1.336-.52 1.847 0 .511.511.511 1.345 0 1.865l-3.02 3.056 3.02 3.057c.511.51.511 1.344 0 1.864-.25.26-.582.386-.923.386-.332 0-.663-.126-.923-.386l-3.021-3.056-3.02 3.056zm25.69-9.833c.51.511.51 1.345 0 1.865l-3.02 3.056L37.682 34c.51.52.51 1.344 0 1.864a1.297 1.297 0 01-1.846 0l-3.021-3.056-3.021 3.056a1.297 1.297 0 01-1.846 0 1.326 1.326 0 010-1.864l3.02-3.057-3.02-3.056a1.326 1.326 0 010-1.865c.51-.51 1.335-.51 1.846 0l3.02 3.057 3.021-3.057c.52-.52 1.345-.52 1.847 0zm-6.257 16.081c2.322.054 5.038 1.479 5.038 5.297a1.31 1.31 0 01-1.3 1.318c-.726 0-1.3-.592-1.3-1.318 0-2.15-1.353-2.635-2.491-2.662h-.314c-1.12.01-2.438.475-2.438 2.636 0 3.899-2.698 5.297-5.01 5.315h-.413c-2.322-.054-5.038-1.479-5.038-5.298 0-2.15-1.353-2.635-2.492-2.662h-.313c-1.13.01-2.438.475-2.438 2.636a1.31 1.31 0 01-1.3 1.317c-.726 0-1.3-.591-1.3-1.317 0-3.873 2.698-5.253 5.01-5.271h.413c2.322.054 5.038 1.479 5.038 5.297 0 2.152 1.353 2.636 2.491 2.663h.341c1.596-.01 2.411-.906 2.411-2.636 0-3.917 2.698-5.306 5.01-5.324l.395.009z" fill="#313235" fill-rule="nonzero"/></svg>