<svg width="64" height="64" xmlns="http://www.w3.org/2000/svg"><path d="M43.482.018c.583 0 1.139.224 1.551.618L62.342 17.39c.287.278.457.637.547 1.031.071.162.107.332.107.52v40.202c0 2.088-1.802 3.854-3.935 3.854H19.263c-2.098 0-3.935-1.802-3.935-3.854l.116-9.717H7.261c-3.998 0-7.252-3.254-7.252-7.26V28.79c0-4.007 3.254-7.26 7.252-7.26h8.067V3.872c0-2.017 1.873-3.854 3.935-3.854h24.22zm-2.205 2.635H19.254c-.592 0-1.3.655-1.3 1.21v17.659h21.45c3.998 0 7.251 3.253 7.251 7.26v13.374c0 4.006-3.253 7.26-7.251 7.26H18.07l-.117 9.735c0 .582.654 1.192 1.3 1.192H59.06v.009c.663 0 1.3-.592 1.3-1.21V21.118h-8.22c-3.137 0-5.844-1.013-7.816-2.922-1.99-1.927-3.048-4.571-3.048-7.628V2.653zm-1.864 21.513H7.252a4.62 4.62 0 00-4.608 4.616v13.374a4.613 4.613 0 004.608 4.616h32.16a4.62 4.62 0 004.608-4.616V28.782a4.613 4.613 0 00-4.607-4.616zm-30.315 5.36l3.72 6.58 3.845-6.58h2.07v11.778H16.27V34.52l-2.447 4.096h-2.07l-2.52-4.168v6.857h-2.25V29.526h2.116zm16.242 0c1.847 0 3.012.26 3.774.968.636.583.95 1.497.95 2.752 0 1.255-.296 2.205-.879 2.86-.69.77-1.756 1.138-3.307 1.138h-1.891v4.06h-2.69V29.526h4.043zm11.205-.009l-2.654 7.234h2.725v-2.806h2.465v2.806h1.38v1.846h-1.38v2.707h-2.465v-2.707h-5.18a2.49 2.49 0 01-.072-.6c0-.484.09-1.031.358-1.793l2.447-6.687h2.376zm-11.313 1.954h-1.254v3.756h1.317c.86 0 1.22-.117 1.569-.448.314-.314.466-.807.466-1.497 0-.637-.134-1.103-.448-1.399-.323-.295-.825-.412-1.65-.412zm18.69-28.244v7.332c0 2.33.77 4.312 2.24 5.728 1.48 1.425 3.541 2.178 5.98 2.178h7.52L43.922 3.227z" fill="#313235" fill-rule="nonzero"/></svg>