<svg width="64" height="64" xmlns="http://www.w3.org/2000/svg"><path d="M35.904 0a2.2 2.2 0 011.541.636L54.584 17.38c.278.278.448.646.547 1.04.071.162.107.34.107.52v40.202c0 2.088-1.784 3.854-3.9 3.854H11.9C9.82 62.996 8 61.194 8 59.142V3.854C8 1.838 9.864 0 11.9 0h24.004zm-2.196 2.644H11.89c-.591 0-1.282.655-1.282 1.21v55.288c0 .6.646 1.21 1.282 1.21h39.44c.663 0 1.282-.592 1.282-1.21V21.118h-8.14c-3.11 0-5.79-1.013-7.744-2.93-1.972-1.928-3.02-4.572-3.02-7.629V2.644zm3.137 41.564c2.922 0 4.033 1.874 4.033 5.477 0 3.604-1.111 5.459-4.033 5.459-2.922 0-4.034-1.864-4.034-5.459 0-3.594 1.112-5.477 4.034-5.477zm9.125.207c1.075 0 1.443.26 1.443 1.03v7.96H48.9v1.542h-5.423v-1.55h1.766v-7.333h-1.685v-1.47c.618-.09 1.667-.18 2.41-.18zm-19.532 0c1.076 0 1.443.26 1.443 1.03v7.96h1.488v1.542h-5.423v-1.55h1.766v-7.333h-1.685v-1.47c.618-.09 1.667-.18 2.411-.18zm-9.725 0c1.075 0 1.443.26 1.443 1.03v7.96h1.488v1.542H14.22v-1.55h1.766v-7.333H14.3v-1.47c.619-.09 1.668-.18 2.412-.18zm20.123 1.407c-1.246 0-1.74.95-1.74 3.863 0 2.913.494 3.693 1.74 3.693 1.255 0 1.739-.789 1.739-3.693s-.493-3.863-1.74-3.863zM26.447 27.787c2.922 0 4.034 1.874 4.034 5.477s-1.112 5.459-4.034 5.459c-2.922 0-4.034-1.865-4.034-5.46 0-3.594 1.112-5.476 4.034-5.476zm10.398 0c2.922 0 4.033 1.874 4.033 5.477s-1.111 5.459-4.033 5.459c-2.922 0-4.034-1.865-4.034-5.46 0-3.594 1.112-5.476 4.034-5.476zm-20.392.242c1.075 0 1.443.26 1.443 1.03v7.96h1.488v1.551H13.96v-1.56h1.766v-7.332H14.04v-1.47c.619-.09 1.668-.179 2.412-.179zm29.517 0c1.075 0 1.443.26 1.443 1.03v7.96H48.9v1.551h-5.423v-1.56h1.766v-7.332h-1.685v-1.47c.618-.09 1.667-.179 2.41-.179zm-19.532 1.372c-1.246 0-1.739.95-1.739 3.863 0 2.913.493 3.693 1.74 3.693 1.254 0 1.738-.789 1.738-3.693s-.493-3.863-1.739-3.863zm10.398 0c-1.246 0-1.74.95-1.74 3.863 0 2.913.494 3.693 1.74 3.693 1.255 0 1.739-.789 1.739-3.693s-.493-3.863-1.74-3.863zm-20.06-18.672c2.921 0 4.033 1.874 4.033 5.477 0 3.604-1.112 5.459-4.034 5.459-2.922 0-4.033-1.864-4.033-5.459 0-3.594 1.111-5.477 4.033-5.477zm9.5.305c1.076 0 1.444.26 1.444 1.031v7.96h1.488v1.55h-5.423v-1.56h1.766v-7.332h-1.685v-1.47c.618-.09 1.667-.179 2.41-.179zm-9.5 1.309c-1.247 0-1.74.95-1.74 3.863 0 2.913.493 3.693 1.74 3.693 1.245 0 1.738-.789 1.738-3.693s-.493-3.863-1.739-3.863zm19.549-9.116v7.332c0 2.33.77 4.312 2.223 5.728 1.461 1.425 3.514 2.187 5.925 2.187h7.458L36.325 3.227z" fill="#313235" fill-rule="nonzero"/></svg>