<svg width="24" height="24" viewBox="0 0 24 24" xmlns="http://www.w3.org/2000/svg"><path d="M16.31 0c.218 0 .423.084.58.235l6.492 6.283a.824.824 0 01.201.386c.027.06.04.128.04.195v15.076c0 .783-.675 1.445-1.475 1.445H7.224c-.787 0-1.48-.675-1.48-1.445l.044-3.644H2.72C1.22 18.531 0 17.311 0 15.808v-5.015a2.723 2.723 0 012.72-2.722h3.025V1.445C5.745.69 6.447 0 7.224 0h9.085zm-.831.998H7.22c-.218 0-.487.25-.487.454v6.625h8.047c1.499 0 2.72 1.22 2.72 2.723v5.015a2.723 2.723 0 01-2.72 2.723h-8l-.044 3.65c0 .215.249.447.488.447h14.924v-.003c.249 0 .484-.222.484-.454V7.923h-3.08c-1.176 0-2.19-.38-2.93-1.1-.746-.722-1.143-1.714-1.143-2.86V.998zm-.696 8.064H2.72c-.95 0-1.727.777-1.727 1.731v5.015a1.73 1.73 0 001.727 1.731h12.064c.951 0 1.728-.776 1.728-1.73v-5.016a1.73 1.73 0 00-1.728-1.73zm-6.292 2.06c.843 0 1.405.132 1.775.502.356.35.54.904.54 1.704 0 .806-.174 1.364-.54 1.74-.333.34-.844.502-1.637.502h-1.51v-4.447h1.372zm-3.873 0c.696 0 1.137.098 1.422.364.242.222.357.564.357 1.038 0 .474-.111.834-.333 1.08-.259.292-.662.43-1.247.43H4.1v1.532H3.092v-4.443h1.526zm9.893 0l-.077.733h-1.839v1.08h1.455v.76h-1.455v1.871H11.58v-4.443h2.93zm-6.067.744H8.13v2.964h.43c.454 0 .78-.138.955-.396.175-.26.235-.558.235-1.106 0-.639-.097-.938-.312-1.17-.202-.215-.501-.292-.995-.292zm-3.866-.007h-.474v1.418h.501v-.003c.326 0 .46-.047.592-.168.117-.118.174-.306.174-.565 0-.238-.05-.417-.168-.528-.124-.11-.312-.154-.625-.154zM16.471 1.21v2.746c0 .874.289 1.617.84 2.148.555.535 1.328.82 2.242.82h2.817l-5.9-5.714z" fill="#5CB615" fill-rule="nonzero"/></svg>