<svg width="64" height="64" viewBox="0 0 64 64" xmlns="http://www.w3.org/2000/svg"><path d="M43.491.018c.574 0 1.12.224 1.542.618L62.342 17.39c.296.278.457.646.547 1.031.071.162.107.332.107.52v40.202c0 2.088-1.802 3.854-3.935 3.854H19.263c-2.098 0-3.935-1.802-3.935-3.854l.116-9.717H7.261c-3.998 0-7.252-3.254-7.252-7.26V28.79c0-4.007 3.254-7.26 7.252-7.26h8.067V3.872c0-2.017 1.873-3.854 3.935-3.854H43.49zm-2.214 2.635H19.254c-.592 0-1.3.655-1.3 1.21v17.659h21.459c3.998 0 7.251 3.253 7.251 7.26v13.374c0 4.006-3.253 7.26-7.251 7.26H18.08l-.117 9.735c0 .582.654 1.192 1.3 1.192H59.06v.009c.663 0 1.29-.592 1.29-1.21V21.118h-8.21c-3.137 0-5.844-1.013-7.816-2.93-1.99-1.928-3.048-4.572-3.048-7.629V2.653zm-1.855 21.513H7.252a4.62 4.62 0 00-4.608 4.616v13.374a4.613 4.613 0 004.608 4.616h32.17a4.62 4.62 0 004.607-4.616V28.782a4.613 4.613 0 00-4.607-4.616zm-4.034 5.315c1.488 0 2.752.35 3.478 1.076.502.502.816 1.192.816 2.178 0 1.228-.538 2.089-1.569 2.608 1.246.449 1.99 1.38 1.99 2.923 0 .914-.278 1.712-.834 2.285-.78.816-2.043 1.228-3.836 1.228-1.03-.009-2.07-.116-2.86-.287v-1.864c.69.126 1.507.206 2.367.206.968 0 1.542-.125 1.954-.394.412-.278.637-.726.637-1.363 0-.618-.225-1.04-.592-1.3-.43-.313-1.094-.412-2.304-.412h-.331v-1.73h.412c1.085 0 1.64-.134 2.062-.502.277-.242.466-.636.466-1.21 0-.448-.126-.833-.395-1.075-.35-.314-.932-.449-1.864-.449-.762 0-1.623.072-2.313.17v-1.828c.798-.17 1.802-.26 2.716-.26zm-26.003.224l3.738 6.606 3.854-6.606h2.07v11.823h-2.464v-6.812l-2.456 4.114h-2.071l-2.528-4.186v6.884H7.261V29.705h2.124zm16.296 0c1.846 0 3.02.26 3.782.968.637.592.95 1.506.95 2.77s-.295 2.214-.878 2.868c-.69.78-1.766 1.139-3.317 1.139h-1.9v4.078H21.62V29.705h4.06zm-.099 1.954h-1.264v3.774h1.336v-.009c.86 0 1.228-.125 1.568-.448.314-.314.467-.816.467-1.506 0-.636-.135-1.102-.449-1.398-.331-.296-.833-.413-1.658-.413zm18.34-28.432v7.323c0 2.33.77 4.312 2.24 5.728 1.48 1.425 3.541 2.187 5.98 2.187h7.52L43.922 3.227z" fill="#313235" fill-rule="nonzero"/></svg>