<svg width="64" height="64" viewBox="0 0 64 64" xmlns="http://www.w3.org/2000/svg"><path d="M43.973.5c.583 0 1.13.224 1.542.618L62.824 17.88c.287.26.457.637.556 1.022.071.162.107.332.107.52v40.202c0 2.088-1.802 3.854-3.935 3.854H19.754c-2.098 0-3.935-1.802-3.935-3.854l.116-9.717H7.752C3.754 49.907.5 46.654.5 42.647V29.273c0-4.007 3.254-7.26 7.252-7.26h8.067V4.354C15.819 2.338 17.692.5 19.754.5h24.22zm-2.205 2.644H19.745c-.592 0-1.3.655-1.3 1.21v17.659h21.45c3.998 0 7.251 3.253 7.251 7.26v13.374c0 4.007-3.253 7.26-7.251 7.26H18.562l-.117 9.735c0 .582.654 1.192 1.3 1.192h39.807v.009c.663 0 1.3-.592 1.3-1.21V21.618h-8.22c-3.137 0-5.835-1.013-7.816-2.93-1.99-1.928-3.048-4.572-3.048-7.629V3.144zm-1.864 21.513H7.743a4.62 4.62 0 00-4.608 4.616v13.374a4.613 4.613 0 004.608 4.616h32.16a4.62 4.62 0 004.608-4.616V29.273a4.613 4.613 0 00-4.607-4.616zM16.06 30.752L21 37.43v-6.678h2.088v10.425H21.18l-4.787-6.329v6.329h-2.088V30.752h1.757zm-3.595 0l-.179 1.721H7.805v2.528h3.586v1.784H7.805v2.662h4.742v1.72H5.43V30.753h7.036zm19.926 0l-.179 1.721h-4.482v2.528h3.586v1.784H27.73v2.662h4.742v1.72h-7.117V30.753h7.036zm3.693 0l2.071 3.442 1.891-3.442h2.528l-3.415 5.1 3.325 5.316H39.85l-2.07-3.532-1.874 3.532h-2.572l3.45-5.19-3.181-5.226h2.482zm8.328-27.034v7.332c0 2.33.77 4.312 2.24 5.728 1.48 1.425 3.55 2.187 5.98 2.187h7.52L44.413 3.718z" fill="#313235" fill-rule="nonzero"/></svg>