<svg width="24" height="24" viewBox="0 0 24 24" xmlns="http://www.w3.org/2000/svg"><path d="M16.306 0c.218 0 .43.087.581.239l6.488 6.279a.806.806 0 01.208.386.47.47 0 01.04.195v15.076c0 .783-.675 1.445-1.475 1.445H7.224c-.787 0-1.476-.675-1.476-1.445l.044-3.644h-3.07c-1.498 0-2.719-1.22-2.719-2.723v-5.015a2.723 2.723 0 012.72-2.722h3.025V1.445C5.748.69 6.45 0 7.224 0h9.082zm-.827.998H7.22c-.222 0-.487.246-.487.454v6.625h8.043c1.5 0 2.72 1.22 2.72 2.723v5.015a2.723 2.723 0 01-2.72 2.723h-8l-.043 3.65c0 .219.245.447.487.447h14.928v-.003c.249 0 .487-.222.487-.454V7.923h-3.082c-1.177 0-2.192-.38-2.931-1.1-.746-.719-1.143-1.71-1.143-2.86V.998zm-.7 8.064H2.72c-.95 0-1.727.777-1.727 1.731v5.015a1.73 1.73 0 001.727 1.731h12.06c.952 0 1.729-.776 1.729-1.73v-5.016a1.73 1.73 0 00-1.728-1.73zm-6.013 1.913c.424 0 .888.064 1.227.181l-.154.747a4.263 4.263 0 00-1.056-.155c-.541 0-.712.191-.712.47 0 .861 2.242.27 2.242 1.987 0 .393-.135.706-.367.924-.309.29-.726.417-1.354.417-.558-.007-1.012-.077-1.456-.232l.155-.763c.386.135.894.219 1.213.219.592 0 .867-.155.867-.558 0-.824-2.242-.225-2.242-1.953 0-.894.7-1.284 1.637-1.284zm3.792 0c.424 0 .887.064 1.227.181l-.155.747a4.263 4.263 0 00-1.055-.155c-.541 0-.713.191-.713.47 0 .861 2.242.27 2.242 1.987 0 .393-.134.706-.366.924-.31.29-.726.417-1.355.417-.554-.007-1.012-.077-1.455-.232l.154-.763c.387.135.894.219 1.214.219.591 0 .867-.155.867-.558 0-.824-2.242-.225-2.242-1.953 0-.894.7-1.284 1.637-1.284zm-7.11 0c.38 0 .868.084 1.15.198l-.127.733a3.558 3.558 0 00-.945-.155c-.944 0-1.163.622-1.163 1.496 0 .521.098.958.316 1.2.192.219.47.316.965.316.211 0 .551-.04.81-.09l.104.732c-.262.077-.746.134-1.106.134-.78 0-1.267-.184-1.597-.53-.373-.4-.534-.972-.534-1.735 0-1.375.622-2.3 2.128-2.3zm11.023-9.762V3.96c0 .874.289 1.616.84 2.148.551.534 1.328.82 2.242.82h2.82l-5.902-5.715z" fill="#5CB615" fill-rule="nonzero"/></svg>