<svg width="24" height="24" viewBox="0 0 24 24" xmlns="http://www.w3.org/2000/svg"><path d="M16.31.003c.214 0 .42.084.577.232l6.491 6.286c.108.1.168.239.205.383a.47.47 0 01.04.195v15.076c0 .783-.675 1.445-1.475 1.445H7.224c-.787 0-1.48-.675-1.48-1.445l.044-3.644H2.72C1.22 18.531 0 17.311 0 15.808v-5.015a2.723 2.723 0 012.72-2.722h3.025V1.449c0-.757.702-1.446 1.479-1.446h9.085zm-.831.992H7.22c-.222 0-.487.245-.487.454V8.07h8.047c1.499 0 2.72 1.22 2.72 2.722v5.015a2.723 2.723 0 01-2.72 2.723h-8l-.044 3.65c0 .219.246.448.488.448h14.924v.003c.249 0 .484-.222.484-.454V7.923h-3.08c-1.176 0-2.19-.38-2.93-1.1-.746-.722-1.143-1.714-1.143-2.86V.995zm-.696 8.067H2.72c-.95 0-1.727.777-1.727 1.731v5.015a1.73 1.73 0 001.727 1.731h12.064c.951 0 1.728-.776 1.728-1.73v-5.016a1.73 1.73 0 00-1.728-1.73zM4.29 11.365v2.776c0 .484-.08.746-.279.945-.178.171-.46.252-.9.252-.192 0-.32-.014-.6-.05l-.063-.68c.178.034.377.047.46.047.377 0 .495-.1.495-.534v-2.756h.887zm9.476-.074c.386 0 .847.08 1.099.188l-.114.649a3.468 3.468 0 00-.921-.141c-.787 0-1.11.467-1.11 1.314 0 .437.057.796.229 1.035.141.198.376.313.753.313.141 0 .336-.017.474-.04v-.82h-.548v-.64h1.428v1.987c-.37.114-.96.198-1.388.198-1.398.004-1.872-.766-1.872-2 0-1.216.642-2.043 1.97-2.043zm-7.311.074c.608 0 .995.084 1.247.319.212.195.312.494.312.911 0 .417-.097.73-.289.944-.228.256-.581.377-1.092.377h-.625v1.345h-.888v-3.896h1.335zm4.813 0l-.067.642H9.526v.944h1.338v.666H9.526v.995h1.771v.642H8.64v-3.89h2.628zm-4.85.642H6v1.24h.44c.286 0 .404-.04.518-.148.1-.1.155-.269.155-.494 0-.212-.047-.363-.148-.46-.108-.098-.273-.138-.548-.138zM16.47 1.21v2.75c0 .874.289 1.616.84 2.148.555.534 1.331.82 2.242.82h2.82L16.471 1.21z" fill="#5CB615" fill-rule="nonzero"/></svg>