<svg width="24" height="24" viewBox="0 0 24 24" xmlns="http://www.w3.org/2000/svg"><path d="M16.286 22.635c.248 0 .484-.222.484-.457V7.913h-3.06c-1.165 0-2.17-.38-2.903-1.096-.74-.723-1.13-1.711-1.13-2.86V.984H1.49c-.222 0-.484.249-.484.457v20.736c0 .225.245.457.484.457h14.797zm.228-15.707l-5.859-5.725V3.96c0 .874.29 1.62.834 2.15.548.535 1.318.821 2.225.821h2.8v-.003zm.989-.41a.82.82 0 01.245.581v15.08c0 .782-.669 1.445-1.462 1.445H1.489c-.78 0-1.462-.676-1.462-1.446V1.445C.027.69.723 0 1.489 0h9.005c.212 0 .42.084.572.232l6.437 6.286zM4.497 13.445a.486.486 0 01-.692 0 .497.497 0 010-.699L4.938 11.6l-1.133-1.146a.497.497 0 010-.7.483.483 0 01.692 0l1.133 1.147 1.133-1.146a.483.483 0 01.692 0 .497.497 0 010 .699L6.323 11.6l1.132 1.146a.497.497 0 010 .7.486.486 0 01-.692 0L5.63 12.298l-1.133 1.146zm9.634-3.687a.497.497 0 010 .7l-1.133 1.145 1.133 1.147a.497.497 0 010 .699.486.486 0 01-.692 0l-1.133-1.146-1.133 1.146a.486.486 0 01-.692 0 .497.497 0 010-.7l1.132-1.146-1.132-1.146a.497.497 0 010-.699.489.489 0 01.692 0l1.133 1.146 1.133-1.146a.483.483 0 01.692 0zm-2.346 6.03c.87.02 1.889.555 1.889 1.987a.491.491 0 01-.487.494.49.49 0 01-.488-.494c0-.807-.507-.988-.934-.999h-.118c-.42.004-.914.179-.914.989 0 1.462-1.012 1.986-1.88 1.993H8.7c-.87-.02-1.889-.555-1.889-1.987 0-.806-.507-.988-.934-.998h-.118c-.424.003-.914.178-.914.988a.491.491 0 01-.488.494.49.49 0 01-.487-.494c0-1.452 1.012-1.97 1.879-1.976h.155c.87.02 1.889.554 1.889 1.986 0 .807.507.989.934.999h.128c.598-.004.904-.34.904-.988 0-1.47 1.012-1.99 1.879-1.997l.148.003z" fill="#5CB615" fill-rule="nonzero"/></svg>