<svg width="24" height="24" viewBox="0 0 24 24" xmlns="http://www.w3.org/2000/svg"><path d="M16.31 0c.214 0 .42.084.577.232l6.491 6.286a.797.797 0 01.205.39c.024.06.04.124.04.195v15.075c0 .783-.675 1.446-1.475 1.446H7.224c-.787 0-1.476-.676-1.476-1.446l.044-3.644h-3.07c-1.498 0-2.719-1.22-2.719-2.722v-5.015a2.723 2.723 0 012.72-2.723h3.025V1.445C5.748.69 6.45 0 7.224 0h9.085zm-.831.995H7.22c-.222 0-.487.245-.487.454v6.625h8.047c1.499 0 2.72 1.22 2.72 2.723v5.015a2.723 2.723 0 01-2.72 2.722h-8l-.044 3.65c0 .22.246.448.488.448h14.924c.249 0 .484-.222.484-.454V7.923h-3.08c-1.176 0-2.19-.38-2.93-1.1-.746-.719-1.143-1.71-1.143-2.86V.995zm-.696 8.067H2.72c-.95 0-1.727.777-1.727 1.731v5.015a1.73 1.73 0 001.727 1.731h12.064c.951 0 1.728-.776 1.728-1.73v-5.016a1.73 1.73 0 00-1.728-1.73zm-12.191 2.4v1.513h1.307v-1.513h.847v3.714H3.9v-1.563H2.592v1.563h-.847v-3.714h.847zm6.93 0l1.174 2.074 1.21-2.074h.652v3.714h-.776V13.04l-.77 1.29h-.652l-.794-1.314v2.161h-.712v-3.714h.669zm4.686 0v3.1h1.644v.614h-2.49v-3.714h.846zm-5.795 0l-.063.612H7.227v3.1H6.38v-3.1H5.227v-.612h3.186zM16.471 1.21v2.75c0 .874.289 1.616.84 2.148.555.534 1.331.82 2.242.82h2.82L16.471 1.21z" fill="#313235" fill-rule="nonzero"/></svg>