<svg width="24" height="24" viewBox="0 0 24 24" xmlns="http://www.w3.org/2000/svg"><path d="M19.282 22.632c.25 0 .481-.222.481-.454V7.923h-3.052c-1.166 0-2.172-.38-2.904-1.1-.74-.722-1.133-1.714-1.133-2.86V.995H4.492c-.218 0-.48.245-.48.454v20.73c0 .224.242.453.48.453h14.79zm.226-15.704L13.655 1.21v2.75c0 .874.29 1.616.834 2.148.548.534 1.318.82 2.222.82h2.797zm1.2-.02c.026.06.037.124.037.195v15.075c0 .783-.67 1.446-1.466 1.446H4.489c-.78 0-1.465-.676-1.465-1.446V1.445C3.024.69 3.723 0 4.489 0h9.002c.215 0 .423.084.575.232l6.43 6.282a.78.78 0 01.212.394zm-5.52 6.077h1.331l-.793-1.56-.538 1.56zm-.343.995l-1.381 4.017 2.894-4.017h-1.513zm-5.865 0H7.42l2.958 4.067L8.98 13.98zm.52-1.51l1.426-1.804H8.88l.622 1.805zm3.376-1.804l1.445 1.811.625-1.811h-2.07zm-2.525 2.319h3.113l-1.567-1.96-1.546 1.96zm3.456.995h-3.789l1.893 5.502 1.896-5.502zm-5.715-2.572l-.826 1.577h1.371l-.545-1.577zm9.671 1.86c.03.063.05.134.05.214 0 .007-.003.014-.003.02 0 .02-.007.037-.01.054a.472.472 0 01-.067.182c-.007.01-.004.023-.014.033l-5.411 7.51c-.02.03-.054.047-.081.07a.461.461 0 01-.06.054.492.492 0 01-.256.084.464.464 0 01-.256-.084c-.023-.013-.04-.034-.06-.05-.027-.024-.06-.04-.08-.071l-5.463-7.51c-.007-.01-.007-.023-.013-.033a.452.452 0 01-.068-.188c-.003-.017-.01-.03-.01-.05 0-.007-.003-.014-.003-.02 0-.078.024-.152.054-.22.003-.006 0-.01.003-.013l1.738-3.314c.003-.007.013-.013.017-.02a.48.48 0 01.138-.148c.02-.013.037-.027.06-.037.02-.01.034-.027.057-.034.04-.013.084-.013.125-.016.013 0 .023-.01.037-.01h7.448c.014 0 .024.01.037.01.04.003.084.003.125.016.023.007.037.024.06.037.02.01.04.02.06.037.061.04.108.091.142.155.003.007.01.01.013.017l1.688 3.314c.003 0 .003.007.003.01z" fill="#5CB615" fill-rule="nonzero"/></svg>