<svg width="64" height="64" viewBox="0 0 64 64" xmlns="http://www.w3.org/2000/svg"><path d="M51.42 60.352c.663 0 1.281-.592 1.281-1.21V21.127h-8.139c-3.11 0-5.79-1.013-7.753-2.93-1.972-1.928-3.012-4.563-3.012-7.629V2.653H11.98c-.583 0-1.282.655-1.282 1.21v55.279c0 .6.645 1.21 1.282 1.21h39.44zm.6-41.878L36.415 3.227v7.332c0 2.33.761 4.312 2.214 5.728 1.46 1.425 3.513 2.187 5.925 2.187h7.466zm3.2-.054c.072.162.108.332.108.52v40.202c0 2.088-1.784 3.854-3.908 3.854H11.98c-2.08 0-3.908-1.802-3.908-3.854V3.854C8.072 1.838 9.936 0 11.98 0h24.004c.574 0 1.112.224 1.524.618L54.664 17.38c.296.278.458.646.556 1.04zM38.45 53.342c1.344-.027 2.93-.591 2.93-3.128 0-2.546-1.604-3.11-2.949-3.146h-.376c-1.309.009-2.886.564-2.886 3.128s1.586 3.128 2.922 3.146h.358zM28.284 29.58l13.095 3.594v-2.411l-13.095-3.585v2.402zM22.736 46.78c1.336-.018 2.931-.583 2.931-3.12 0-2.545-1.604-3.11-2.949-3.146l-.385-.009c-1.309.01-2.878.574-2.878 3.129 0 2.572 1.587 3.137 2.923 3.155l.358-.009zm19.505-18.537a1.99 1.99 0 011.757 1.981v19.989c0 4.186-2.967 5.728-5.504 5.773h-.448c-2.537-.036-5.504-1.578-5.504-5.8 0-4.23 2.95-5.746 5.477-5.772h.457c.968.026 1.99.26 2.895.78v-9.296l-13.095-3.585-.045 11.805c-.224 3.81-3.02 5.261-5.459 5.297h-.43c-2.555-.036-5.522-1.577-5.522-5.8 0-4.23 2.95-5.745 5.477-5.772l.475.01c.96.026 1.972.268 2.868.78V26.28c0-1.102.888-1.999 1.981-1.999l.34.045 14.28 3.917z" fill="#313235" fill-rule="nonzero"/></svg>