<svg width="64" height="64" viewBox="0 0 64 64" xmlns="http://www.w3.org/2000/svg"><path d="M43.991.5c.583 0 1.13.224 1.551.627L62.851 17.88c.278.278.439.646.538 1.04.062.162.107.34.107.52v40.202c0 2.088-1.802 3.854-3.935 3.854H19.763c-2.098 0-3.944-1.802-3.944-3.854l.116-9.717H7.752C3.754 49.925.5 46.671.5 42.665V29.29c0-4.007 3.254-7.26 7.252-7.26h8.067V4.354C15.819 2.338 17.692.5 19.763.5H43.99zm-2.214 2.653H19.754c-.592 0-1.3.655-1.3 1.21v17.668h21.459c3.998 0 7.251 3.253 7.251 7.26v13.374c0 4.006-3.253 7.26-7.251 7.26H18.58l-.117 9.735c0 .582.654 1.192 1.3 1.192H59.56c.663 0 1.29-.592 1.29-1.21V21.627h-8.21c-3.137 0-5.844-1.013-7.816-2.93-1.99-1.92-3.048-4.563-3.048-7.629V3.153zm-1.855 21.513H7.752a4.62 4.62 0 00-4.608 4.616v13.374a4.613 4.613 0 004.608 4.616h32.17a4.62 4.62 0 004.607-4.616V29.282a4.613 4.613 0 00-4.607-4.616zm-16.95 5.163L27.364 42h-2.976l-1.013-3.056h-3.953L18.481 42h-2.653l4.087-12.172h3.057zm8.623 0V42h-2.779V29.83h2.779zm-10.219 3.039h-.036l-1.264 4.06h2.636l-1.336-4.06zM44.422 3.727v7.332c0 2.33.77 4.312 2.24 5.728 1.48 1.425 3.55 2.187 5.98 2.187h7.52L44.422 3.727z" fill="#313235" fill-rule="nonzero"/></svg>