<svg width="64" height="64" viewBox="0 0 64 64" xmlns="http://www.w3.org/2000/svg"><path d="M43.991.5c.574 0 1.12.224 1.542.618L62.842 17.88c.287.27.448.637.547 1.022.071.162.107.332.107.52v40.202c0 2.088-1.802 3.854-3.935 3.854H19.763c-2.098 0-3.944-1.802-3.944-3.854l.116-9.717H7.752C3.754 49.907.5 46.654.5 42.647V29.273c0-4.007 3.254-7.26 7.252-7.26h8.067V4.354C15.819 2.338 17.692.5 19.763.5H43.99zm-2.214 2.644H19.754c-.592 0-1.3.655-1.3 1.21v17.659h21.459c3.998 0 7.251 3.253 7.251 7.26v13.374c0 4.007-3.253 7.26-7.251 7.26H18.58l-.117 9.735c0 .582.654 1.192 1.3 1.192H59.56v.009c.663 0 1.29-.592 1.29-1.21V21.618h-8.21c-3.137 0-5.844-1.013-7.816-2.93-1.99-1.928-3.048-4.572-3.048-7.629V3.144zm-1.855 21.513H7.752a4.62 4.62 0 00-4.608 4.616v13.374a4.613 4.613 0 004.608 4.616h32.17a4.62 4.62 0 004.607-4.616V29.273a4.613 4.613 0 00-4.607-4.616zm-27.984 6.14V38.2c0 1.29-.216 1.99-.744 2.519-.476.457-1.228.672-2.403.672-.51 0-.851-.036-1.595-.135l-.17-1.81c.475.09 1.003.125 1.228.125 1.003 0 1.317-.269 1.317-1.425v-7.35h2.367zm25.268-.197c1.03 0 2.259.215 2.931.502l-.305 1.73c-.744-.215-1.64-.377-2.456-.377-2.097 0-2.958 1.246-2.958 3.505 0 1.165.153 2.124.61 2.76.376.53 1.004.834 2.008.834.376 0 .896-.044 1.263-.107V37.26h-1.46v-1.703h3.809v5.297c-.986.305-2.564.529-3.702.529-3.729.009-4.993-2.044-4.993-5.333 0-3.245 1.712-5.45 5.253-5.45zm-19.496.197c1.622 0 2.653.224 3.326.851.564.52.833 1.318.833 2.43 0 1.111-.26 1.945-.77 2.518-.61.682-1.551 1.004-2.914 1.004h-1.667v3.586h-2.366v-10.39h3.558zm12.836 0l-.18 1.712h-4.463v2.519h3.567v1.775h-3.567v2.653h4.724v1.712h-7.09V30.797h7.009zM17.61 32.509H16.5v3.308h1.174c.762 0 1.076-.108 1.38-.395.27-.269.413-.717.413-1.318 0-.564-.126-.968-.394-1.228-.287-.26-.727-.367-1.462-.367zm26.81-28.791v7.332c0 2.33.771 4.312 2.241 5.728 1.48 1.425 3.55 2.187 5.98 2.187h7.52L44.422 3.718z" fill="#313235" fill-rule="nonzero"/></svg>