<svg width="64" height="64" xmlns="http://www.w3.org/2000/svg"><path d="M46.158 0c.574 0 1.12.224 1.542.618L65.008 17.38c.287.278.449.646.547 1.031.063.162.108.332.108.52v40.202c0 2.088-1.802 3.854-3.935 3.854H21.929c-2.097 0-3.935-1.802-3.935-3.854l.117-9.717H9.927c-3.998 0-7.251-3.254-7.251-7.26V28.782c0-4.007 3.253-7.26 7.251-7.26h8.067V3.854C17.994 1.838 19.868 0 21.93 0h24.229zm-2.205 2.653H21.92c-.591 0-1.3.655-1.3 1.21v17.668h21.46c3.997 0 7.251 3.253 7.251 7.26v13.374c0 4.006-3.254 7.26-7.251 7.26H20.746l-.116 9.735c0 .582.654 1.192 1.3 1.192h39.798c.663 0 1.29-.592 1.29-1.21V21.127h-8.21c-3.137 0-5.844-1.013-7.816-2.93-1.99-1.928-3.04-4.572-3.04-7.629V2.653zm-1.864 21.522H9.919a4.617 4.617 0 00-4.608 4.607v13.374a4.613 4.613 0 004.607 4.616h32.17a4.62 4.62 0 004.608-4.616V28.782a4.606 4.606 0 00-4.607-4.607zm-22.992 5.8l4.258 11.786h-2.878l-.986-2.967h-3.827l-.914 2.967h-2.573l3.953-11.787h2.967zm6.705 0l2.76 8.55 2.573-8.55h2.617L29.835 41.76H27.03l-4.106-11.787h2.878zm12.163 0V41.76h-2.689V29.974h2.69zm-20.419 2.948h-.036l-1.228 3.926h2.555l-1.29-3.926zM46.588 3.227v7.332c0 2.33.771 4.312 2.241 5.728 1.48 1.425 3.55 2.187 5.979 2.187h7.52L46.588 3.227z" fill="#313235" fill-rule="nonzero"/></svg>