<svg width="64" height="64" viewBox="0 0 64 64" xmlns="http://www.w3.org/2000/svg"><path d="M51.757 60.86c.663 0 1.29-.59 1.29-1.218V21.6h-8.156c-3.11 0-5.79-1.013-7.745-2.922-1.972-1.927-3.012-4.562-3.012-7.628V3.126H12.3c-.591 0-1.29.664-1.29 1.22v55.296c0 .6.654 1.219 1.29 1.219h39.458zm.61-41.886L36.742 3.709v7.35c0 2.33.77 4.32 2.223 5.737 1.46 1.425 3.514 2.187 5.934 2.187h7.466v-.01zm2.635-1.094c.412.404.654.968.654 1.551v40.21c0 2.09-1.784 3.855-3.9 3.855H12.3c-2.08 0-3.899-1.802-3.899-3.854V4.354C8.4 2.338 10.255.5 12.3.5h24.013c.564 0 1.12.224 1.523.618L55.002 17.88zm-34.68 18.474c-.251.26-.592.386-.924.386-.331 0-.663-.126-.923-.386a1.326 1.326 0 010-1.864l3.02-3.057-3.02-3.056a1.326 1.326 0 010-1.865c.511-.52 1.336-.52 1.847 0l3.02 3.057 3.021-3.057c.51-.52 1.336-.52 1.847 0 .51.511.51 1.345 0 1.865l-3.021 3.056 3.02 3.057c.511.51.511 1.344 0 1.864-.25.26-.582.386-.923.386-.331 0-.663-.126-.923-.386l-3.02-3.056-3.021 3.056zm25.69-9.833c.51.511.51 1.345 0 1.865l-3.022 3.056 3.021 3.057c.511.52.511 1.344 0 1.864a1.297 1.297 0 01-1.846 0l-3.021-3.056-3.02 3.056a1.297 1.297 0 01-1.846 0 1.326 1.326 0 01-.001-1.864l3.02-3.057-3.02-3.056a1.326 1.326 0 010-1.865c.51-.51 1.335-.51 1.846 0l3.021 3.057 3.02-3.057c.52-.52 1.345-.52 1.847 0zm-6.257 16.081c2.321.054 5.037 1.479 5.037 5.297a1.31 1.31 0 01-1.3 1.318c-.726 0-1.3-.592-1.3-1.318 0-2.15-1.353-2.635-2.491-2.662h-.314c-1.12.01-2.438.475-2.438 2.636 0 3.899-2.698 5.297-5.01 5.315h-.413c-2.322-.054-5.037-1.479-5.037-5.298 0-2.15-1.354-2.635-2.492-2.662h-.314c-1.13.01-2.438.475-2.438 2.636a1.31 1.31 0 01-1.3 1.317c-.726 0-1.3-.591-1.3-1.317 0-3.873 2.698-5.253 5.011-5.271h.412c2.322.054 5.038 1.479 5.038 5.297 0 2.152 1.353 2.636 2.492 2.663h.34c1.596-.01 2.412-.906 2.412-2.636 0-3.917 2.698-5.306 5.01-5.324l.395.009z" fill="#313235" fill-rule="nonzero"/></svg>