<svg width="24" height="24" viewBox="0 0 24 24" xmlns="http://www.w3.org/2000/svg"><path d="M16.31.007c.214 0 .426.084.58.232l6.488 6.282a.774.774 0 01.205.387.47.47 0 01.04.195v15.075c0 .783-.675 1.446-1.475 1.446H7.224c-.787 0-1.476-.676-1.476-1.446l.044-3.644h-3.07c-1.498 0-2.719-1.22-2.719-2.722v-5.015a2.723 2.723 0 012.72-2.723h3.025V1.452c0-.756.702-1.445 1.476-1.445h9.085zm-.831.985H7.22c-.222 0-.484.245-.484.453v6.622h8.044c1.499 0 2.72 1.22 2.72 2.723v5.015a2.723 2.723 0 01-2.72 2.723h-8l-.044 3.65c0 .219.246.447.484.447h14.928v.007c.249 0 .487-.222.487-.454V7.92h-3.082c-1.177 0-2.192-.38-2.931-1.099-.746-.723-1.143-1.71-1.143-2.86V.992zm-.696 8.07H2.72c-.95 0-1.727.777-1.727 1.731v5.015a1.73 1.73 0 001.727 1.731h12.064c.951 0 1.728-.776 1.728-1.73v-5.016a1.73 1.73 0 00-1.728-1.73zM7.365 11.21v.622L5.24 14.904h2.138v.746H3.96v-.595l2.158-3.099H4.024v-.746h3.34zm1.761-.003v4.443H8.111v-4.443h1.015zm2.498 0c.695 0 1.136.097 1.421.363.242.222.357.564.357 1.038 0 .474-.111.83-.333 1.08-.259.292-.662.43-1.247.43h-.716v1.532H10.09v-4.443h1.533zm-.037.736h-.474v1.418h.5v-.003c.326 0 .46-.047.592-.168.118-.118.175-.306.175-.565 0-.238-.05-.417-.168-.528-.125-.11-.313-.154-.625-.154zM16.47 1.21v2.75c0 .874.289 1.616.84 2.148.551.534 1.328.82 2.242.82h2.82v-.004L16.471 1.21z" fill="#5CB615" fill-rule="nonzero"/></svg>