<svg width="64" height="64" viewBox="0 0 64 64" xmlns="http://www.w3.org/2000/svg"><path d="M31.071 59.932h.013c-.038 0-.077 0-.115-.005l.106.006a.855.855 0 01-.126-.01l-.033-.005a.856.856 0 01-.684-.702c-.17-1.04-.26-2.636-.376-4.652-.287-5.154-.726-12.944-2.985-20.16-.65-2.077-1.414-3.978-2.29-5.7l.165-.153c-2.366 2.286-5.817 3.442-10.254 3.442-4.437 0-7.897-1.165-10.272-3.45C1.922 26.335.684 23.116.519 18.971A.86.86 0 01.5 18.79V8.527C.509 6.044 2.535 4.009 5.018 4h9.476l.445.004c4.218.078 7.514 1.24 9.807 3.456 2.465 2.384 3.72 5.925 3.72 10.55 0 3.898-.888 7.036-2.654 9.348 4.318 8.124 5.228 18.408 5.641 25.267.81-3.62 2.051-8.167 3.906-12.61a48.672 48.672 0 012.247-4.688c-1.415-2.217-2.13-5.094-2.13-8.577 0-4.608 1.246-8.14 3.702-10.515 2.366-2.285 5.817-3.442 10.245-3.442h9.475c2.465.01 4.482 2.017 4.482 4.482v10.263a.801.801 0 01-.03.233c-.174 4.11-1.41 7.296-3.69 9.484-2.358 2.286-5.8 3.442-10.237 3.442-4.428 0-7.879-1.156-10.245-3.442-.156-.15-.307-.305-.453-.465-3.749 7.143-5.763 16.017-6.808 22.426a.854.854 0 01-.833.717l-.013-.001zm27.836-45.454h-9.484c-8.139 0-12.262 4.124-12.262 12.272 0 2.764.476 5.065 1.423 6.899.998-1.62 2.058-3.06 3.175-4.309 2.976-3.334 6.391-5.37 10.156-6.05a.848.848 0 01.305 1.667c-5.471.996-9.566 5.033-12.622 10.257 2.024 2.526 5.305 3.798 9.825 3.798 8.14 0 12.262-4.123 12.262-12.262a.85.85 0 01.017-.168l.001-9.307a2.824 2.824 0 00-2.796-2.797zM14.483 5.775H5.018a2.768 2.768 0 00-2.743 2.752V18c0 8.103 4.105 12.217 12.208 12.217 4.095 0 7.17-1.05 9.209-3.136-2.625-4.445-6.103-7.51-10.401-9.153a.855.855 0 01.61-1.595c4.906 1.875 8.41 5.244 10.929 9.31 1.24-1.937 1.862-4.488 1.862-7.643 0-8.112-4.106-12.226-12.209-12.226z" fill="#313235" fill-rule="nonzero"/></svg>