<svg width="64" height="64" viewBox="0 0 64 64" xmlns="http://www.w3.org/2000/svg"><path d="M53.039 59.65V4.355c0-.564-.7-1.228-1.3-1.228H12.281c-.591 0-1.3.664-1.3 1.22v55.296c0 .6.655 1.228 1.3 1.228h12.962V45.874c0-.726.582-1.309 1.3-1.309h10.944c.717 0 1.3.592 1.3 1.309V60.87h12.961c.636 0 1.29-.619 1.29-1.22zm-25.206 1.13h8.354V47.182h-8.345V60.78h-.009zM51.74.5c2.035 0 3.9 1.838 3.9 3.854v55.297c0 2.043-1.82 3.845-3.891 3.845H12.29c-2.07 0-3.89-1.802-3.89-3.845V4.345C8.391 2.338 10.247.5 12.281.5H51.74zM20.913 17.19h5.683v-5.745h-5.692v5.745h.01zm6.983-8.372c.717 0 1.3.592 1.3 1.309v8.372c0 .726-.583 1.309-1.3 1.309h-8.291c-.718 0-1.3-.592-1.3-1.31v-8.371c0-.726.582-1.309 1.3-1.309h8.29zm9.394 8.372h5.692v-5.745H37.29v5.745zm6.982-8.372c.717 0 1.3.592 1.3 1.309v8.372c0 .726-.574 1.309-1.3 1.309H35.99c-.717 0-1.3-.592-1.3-1.31v-8.371c0-.726.574-1.309 1.3-1.309h8.282zM20.913 33.63h5.692v-5.745h-5.692v5.745zm6.983-8.372c.717 0 1.3.583 1.3 1.31v8.371c0 .726-.583 1.309-1.3 1.309h-8.291c-.718 0-1.3-.592-1.3-1.309v-8.372c0-.726.582-1.309 1.3-1.309h8.29zm9.394 8.372h5.692v-5.745H37.29v5.745zm6.982-8.372c.717 0 1.3.583 1.3 1.31v8.371c0 .726-.574 1.309-1.3 1.309H35.99c-.717 0-1.3-.583-1.3-1.309v-8.38c0-.727.574-1.31 1.3-1.31l8.282.01z" fill="#313235" fill-rule="nonzero"/></svg>