<svg width="24" height="24" viewBox="0 0 24 24" xmlns="http://www.w3.org/2000/svg"><path d="M22 22.269c.37 0 .666.31.666.696 0 .383-.3.696-.666.696H2.666c-.37 0-.666-.31-.666-.696 0-.383.3-.696.666-.696H22zM3.812 20.753c-.464 0-.904-.198-1.227-.541a1.934 1.934 0 01-.414-1.862L4 12.545c.108-.313.29-.592.534-.807 5.029-4.75 10.43-9.916 10.804-10.306A4.015 4.015 0 0118.258.03c1.167.01 2.276.511 3.08 1.388a4.956 4.956 0 011.334 3.278 4.623 4.623 0 01-1.334 3.193c-.666.75-10.83 10.373-10.935 10.47a1.456 1.456 0 01-.601.36L4.36 20.65a1.303 1.303 0 01-.548.104zm-.373-1.983a.465.465 0 00.107.47.38.38 0 00.387.111l5.442-1.862a.377.377 0 00.134-.084C11.19 15.808 19.82 7.6 20.39 6.988a3.267 3.267 0 00.909-2.292 3.5 3.5 0 00-.895-2.32 2.932 2.932 0 00-2.12-.944 2.83 2.83 0 00-2.054.944c-.495.542-8 7.668-10.844 10.374a.422.422 0 00-.121.181L3.439 18.77z" fill="#5CB615" fill-rule="nonzero"/></svg>