<svg width="24" height="24" viewBox="0 0 24 24" xmlns="http://www.w3.org/2000/svg"><path d="M23.624 3.294a3.415 3.415 0 00-.958-2.333 3.408 3.408 0 00-2.182-.958 3.247 3.247 0 00-2.417.958l-.652.595H5.005C1.923 1.53.007 3.334.007 6.226v12.752a4.418 4.418 0 001.29 3.348 5.142 5.142 0 003.725 1.29h11.112a5.165 5.165 0 003.738-1.29 4.421 4.421 0 001.294-3.348V6.948l1.486-1.388a3.215 3.215 0 00.972-2.266zm-3.863 15.68a3.141 3.141 0 01-.86 2.347 3.888 3.888 0 01-2.78.9H5.005a3.872 3.872 0 01-2.78-.9 3.147 3.147 0 01-.833-2.346V6.225c0-2.054 1.29-3.307 3.626-3.307h10.864l-5.415 4.78c-.185.17-.33.386-.417.625L8.773 12.14a1.388 1.388 0 00.346 1.472c.266.28.632.434 1.015.43.152.02.306.02.458 0l3.835-1.263c.185-.064.353-.162.5-.293 0 0 2.653-2.332 4.82-4.275l.014 10.763zm-9.724-6.39l1.294-3.845c2.07-1.791 7.348-6.43 7.724-6.79a1.785 1.785 0 011.291-.554h.084c1.009.05 1.799.88 1.805 1.889a1.818 1.818 0 01-.554 1.29c-.417.39-6.696 5.947-7.684 6.821l-3.836 1.264c0-.004-.124-.074-.124-.074z" fill="#5CB615" fill-rule="nonzero"/></svg>