<svg width="64" height="64" viewBox="0 0 64 64" xmlns="http://www.w3.org/2000/svg"><path d="M49.674 38.362c-3.325 5.118-5.97 8.408-10.47 13.024l-.026.018-.08.099c-.861.878-2.116 2.061-3.04 2.725a7.671 7.671 0 01-2.85 1.264c-.224.053-.475.09-.726.098h-.072l-.295.01-.207-.01h-.044a4.788 4.788 0 01-.79-.116 7.49 7.49 0 01-2.787-1.264c-1.21-.86-2.752-2.411-3.048-2.725-4.57-4.68-7.242-7.996-10.585-13.14a76.99 76.99 0 01-2.528-4.214h2.59c.583 0 1.103-.376 1.273-.932l4.939-15.803 5.638 27.967a1.335 1.335 0 001.309 1.066c.582 0 1.102-.376 1.282-.94l3.406-11.08h3.845c.592 0 1.112-.385 1.282-.95l2.635-8.9 3.173 8.963c.189.529.69.887 1.255.887h7.297c-.762 1.318-1.524 2.636-2.376 3.953M6.183 19.566c-1.416-5.907-.359-10.73 2.994-13.58 1.963-1.668 4.67-2.671 7.637-2.824.269-.009.538-.018.806-.018 2.976 0 6.078.843 8.955 2.42a153.05 153.05 0 013.828 2.188 3.623 3.623 0 001.765.457c.6 0 1.193-.144 1.802-.475 1.255-.744 2.51-1.461 3.783-2.16 2.877-1.578 5.97-2.42 8.954-2.42.27 0 .538.008.807.017 2.958.153 5.674 1.156 7.628 2.824 3.343 2.841 4.41 7.664 2.994 13.58-.96 3.97-2.564 8.067-4.688 12.208h-7.754l-4.23-11.958a1.276 1.276 0 00-1.291-.887 1.335 1.335 0 00-1.246.95l-3.523 11.895h-3.836c-.583 0-1.103.376-1.282.941l-2.151 6.992-5.63-27.922a1.327 1.327 0 00-1.245-1.058c-.574-.098-1.157.35-1.336.933L13.73 31.514h-2.994c-2.052-4.06-3.612-8.058-4.553-11.948m55.986 12.208h-5.754c1.918-3.926 3.397-7.807 4.311-11.59 1.659-6.92.296-12.674-3.845-16.197C54.479 1.943 51.198.715 47.648.536a16.81 16.81 0 00-.95-.027c-3.442 0-6.964.941-10.245 2.752-1.3.717-2.582 1.452-3.854 2.205a.972.972 0 01-.887 0 96.82 96.82 0 00-3.846-2.214C24.576 1.45 21.054.5 17.61.5c-.313 0-.627.009-.94.027-3.541.18-6.822 1.398-9.233 3.45-4.141 3.524-5.513 9.278-3.855 16.198.897 3.702 2.322 7.494 4.169 11.321H1.836c-.735 0-1.327.592-1.336 1.327 0 .735.6 1.326 1.336 1.326h7.242a77.65 77.65 0 003.317 5.647c3.442 5.307 6.202 8.73 10.908 13.544.458.466 2.053 2.062 3.407 3.03a10.262 10.262 0 003.791 1.694c.377.09.78.144 1.192.17h.027l.027.01.35.008h.107c.135 0 .251 0 .359-.009l.027-.009h.027c.412-.026.815-.08 1.192-.17 1.317-.269 2.626-.86 3.791-1.694 1.354-.968 2.95-2.564 3.406-3.03.036-.036.072-.08.108-.116 4.643-4.76 7.377-8.166 10.801-13.428a81.07 81.07 0 003.182-5.378h7.072c.735 0 1.336-.591 1.336-1.326 0-.735-.6-1.327-1.336-1.318" fill="#313235" fill-rule="nonzero"/></svg>