<svg width="64" height="64" xmlns="http://www.w3.org/2000/svg"><path d="M22.355 39.332a1.31 1.31 0 011.309 1.309l.009 17.837c0 1.04.744 1.883 1.228 1.883l13.212.009c.484 0 1.228-.852 1.228-1.892l-.009-17.846a1.31 1.31 0 011.309-1.309l17.837-.009c1.031 0 1.883-.806 1.883-1.228V24.874c0-.412-.852-1.228-1.883-1.228l-17.846.009a1.31 1.31 0 01-1.309-1.309l-.009-17.828c0-1.031-.815-1.883-1.228-1.883H24.883c-.412 0-1.237.852-1.237 1.883l.009 17.846a1.31 1.31 0 01-1.309 1.309l-17.837.009c-1.04 0-1.892.744-1.892 1.228v13.212c0 .484.852 1.237 1.892 1.237l17.846-.027zm15.767 23.664l-13.212-.009c-2.053 0-3.855-2.106-3.855-4.509l-.009-16.52-16.528.01c-2.403 0-4.509-1.802-4.509-3.855L.018 24.91c0-2.053 2.106-3.855 4.518-3.855l16.51-.009-.008-16.528c0-2.358 1.837-4.509 3.854-4.509h13.212c2.017 0 3.855 2.151 3.855 4.509v16.52l16.537-.01c2.358 0 4.509 1.838 4.509 3.855v13.212c0 2.017-2.151 3.855-4.509 3.855H41.968l.008 16.537c0 2.403-1.801 4.51-3.854 4.51z" fill="#313235" fill-rule="nonzero"/></svg>