<svg width="64" height="64" viewBox="0 0 64 64" xmlns="http://www.w3.org/2000/svg"><path d="M22.846 39.823a1.31 1.31 0 011.309 1.309l.009 17.837c0 1.04.744 1.883 1.228 1.883l13.212.009c.484 0 1.228-.852 1.228-1.892l-.009-17.846a1.31 1.31 0 011.309-1.309l17.837-.009c1.031 0 1.883-.806 1.883-1.228V25.365c0-.412-.852-1.228-1.883-1.228l-17.846.009a1.31 1.31 0 01-1.309-1.309L39.805 5.01c0-1.031-.815-1.883-1.228-1.883H25.374c-.412 0-1.237.852-1.237 1.883l.009 17.846a1.31 1.31 0 01-1.309 1.309L5 24.173c-1.04 0-1.892.744-1.892 1.228v13.212c0 .484.852 1.237 1.892 1.237l17.846-.027zm15.767 23.664l-13.212-.009c-2.053 0-3.855-2.106-3.855-4.509l-.008-16.52-16.53.01C2.607 42.459.5 40.657.5 38.604l.009-13.203c0-2.053 2.106-3.855 4.518-3.855l16.51-.008-.008-16.53C21.529 2.652 23.366.5 25.383.5h13.212c2.017 0 3.855 2.151 3.855 4.509v16.52l16.537-.01c2.358 0 4.51 1.838 4.51 3.855v13.212c0 2.017-2.152 3.855-4.51 3.855H42.46l.009 16.537c0 2.403-1.802 4.51-3.855 4.51z" fill="#313235" fill-rule="nonzero"/></svg>