<svg width="24" height="24" viewBox="0 0 24 24" xmlns="http://www.w3.org/2000/svg"><path d="M12.336 22.632c2.417-.044 10.303-.955 10.303-10.79 0-4.259-1.46-7.334-4.33-9.136-2.346-1.472-4.995-1.688-6.027-1.714-.269-.007-.581-.01-.884-.01h-.205c-1.022.01-3.654.184-5.966 1.64C2.41 4.393.982 7.472.982 11.772c0 4.305 1.442 7.394 4.285 9.186 2.333 1.469 4.985 1.664 6.017 1.677.118.004.235.004.356.004.246 0 .484-.004.696-.007zM12.306.013c2.312.054 11.318.969 11.318 11.832 0 10.888-9.019 11.731-11.271 11.775-.215.004-.46.007-.713.007-.124 0-.248 0-.37-.003C8.898 23.59 0 22.733 0 11.778 0 .84 8.817.024 11.187.007h.211c.31-.007.629-.004.908.006zm6.89 13.453v-3.308c0-.208-.302-.47-.638-.47H14.42a.49.49 0 01-.49-.491V5.072c0-.34-.266-.642-.475-.642h-3.297c-.212 0-.474.296-.474.642v4.135c0 .272-.222.49-.49.49H5.058c-.35 0-.629.26-.629.471v3.298c0 .218.276.47.629.47h4.134c.273 0 .491.222.491.49v4.135c0 .35.259.629.474.629h3.308c.215 0 .473-.28.473-.629l-.01-4.134a.49.49 0 01.491-.494h4.135c.34.003.642-.26.642-.467zm-.638-4.763c.867 0 1.624.682 1.624 1.455v3.308c0 .776-.76 1.455-1.624 1.455h-3.644l.01 3.64c0 .874-.669 1.614-1.458 1.614h-3.308c-.79 0-1.459-.74-1.459-1.614v-3.64H5.055c-.873 0-1.613-.666-1.613-1.455v-3.298c0-.786.74-1.455 1.613-1.455H8.7v-3.64c0-.865.68-1.624 1.459-1.624h3.297c.777 0 1.46.76 1.46 1.623v3.63h3.643z" fill="#313235" fill-rule="nonzero"/></svg>