<svg width="64" height="64" xmlns="http://www.w3.org/2000/svg"><path d="M50.03 20.562c0 6.598-2.303 11.366-6.839 14.154a1.32 1.32 0 00-.636 1.13v4.813c0 1.282-.332 2.223-.995 2.823-.655.6-1.685.906-3.057.906H27.657c-1.38 0-2.411-.305-3.101-.924-.681-.591-1.022-1.532-1.022-2.796v-4.796c0-.466-.242-.896-.637-1.13-4.526-2.769-6.83-7.573-6.83-14.413a.47.47 0 01.475-.466l33.031.018a.47.47 0 01.475.466c-.018-.009-.018.215-.018.215zM30.418 60.334h5.253V47.04h-5.253v13.293zM21.428 4.57c0-1.048.869-1.909 1.927-1.909 1.066 0 1.936.86 1.936 1.91v12.63h-3.864V4.571zm18.886 0c0-1.048.87-1.909 1.927-1.909 1.067 0 1.936.86 1.936 1.91V17.21h-3.854l-.01-12.639zm9.25 12.64h-2.689V4.57c0-2.518-2.07-4.571-4.634-4.571-2.546 0-4.625 2.044-4.625 4.571v12.64l-9.627-.01V4.571c0-2.518-2.07-4.571-4.634-4.571-2.555 0-4.626 2.044-4.626 4.571v12.63h-2.196c-1.748 0-3.173 1.398-3.173 3.263 0 9.026 3.926 13.723 7.476 16.125v4.07c0 2.044.672 3.702 1.918 4.777 1.174 1.067 2.824 1.605 4.912 1.605h.063v13.526c0 1.336 1.102 2.43 2.465 2.43h5.719a2.445 2.445 0 002.465-2.43V47.04h.143c2.07 0 3.71-.538 4.876-1.605 1.228-1.093 1.874-2.751 1.874-4.786v-4.096c3.55-2.412 7.475-7.082 7.475-16v-.225c-.018-1.712-1.434-3.119-3.182-3.119z" fill="#313235" fill-rule="nonzero"/></svg>