<svg width="24" height="24" viewBox="0 0 24 24" xmlns="http://www.w3.org/2000/svg"><path d="M22.625 19.378V2.28c0-.71-.578-1.284-1.29-1.284h-2.686a.208.208 0 00-.209.188 2.085 2.085 0 01-2.057 1.772 2.088 2.088 0 01-2.057-1.772.214.214 0 00-.208-.191h-2.686c-.71 0-1.287.578-1.287 1.284v17.099c0 .709.578 1.284 1.287 1.284h2.706a.216.216 0 00.208-.178 2.08 2.08 0 014.074 0c.02.1.111.178.212.178h2.706a1.278 1.278 0 001.287-1.28zm-12.51 3.113l1.488-.834h-.171a2.282 2.282 0 01-2.252-1.946c-.047.013-.09.037-.141.037a.501.501 0 01-.434-.252l-5.24-9.294a.495.495 0 01.185-.676s.003 0 .003-.003l5.59-3.133V3.059L7.16 4.17c-.06.034-.088.108-.057.168a1.908 1.908 0 01-.844 2.34 1.922 1.922 0 01-2.444-.497.137.137 0 00-.178-.04L1.553 7.307c-.252.14-.44.376-.514.658-.081.28-.044.575.097.827l7.486 13.278a1.1 1.1 0 00.659.514c.282.08.578.047.833-.094zM4.476 10.145l4.67 8.275V7.53l-4.67 2.615zM21.337 0a2.285 2.285 0 012.287 2.279v17.1a2.28 2.28 0 01-2.286 2.275h-2.706a1.21 1.21 0 01-1.187-.978 1.08 1.08 0 00-2.117 0 1.21 1.21 0 01-1.187.978h-.985a1.092 1.092 0 01-.447.52l-2.104 1.18a2.078 2.078 0 01-1.587.192 2.077 2.077 0 01-1.257-.985L.27 9.284a2.083 2.083 0 01.797-2.837l2.087-1.166a1.136 1.136 0 011.455.299.907.907 0 101.567-.877 1.12 1.12 0 01.5-1.395L8.76 2.14c.13-.074.275-.117.42-.161A2.282 2.282 0 0111.435 0h2.683c.605 0 1.109.437 1.196 1.042.078.524.538.921 1.07.921a1.09 1.09 0 001.071-.921A1.203 1.203 0 0118.652 0h2.686zM12.67 16.343h7.573V5.368h-7.573v10.975zm8.07-11.967c.276 0 .498.222.498.498V16.84a.499.499 0 01-.498.498h-8.57a.496.496 0 01-.498-.498V4.87c0-.272.221-.497.497-.497h8.571v.003z" fill="#5CB615" fill-rule="nonzero"/></svg>