<svg width="24" height="24" viewBox="0 0 24 24" xmlns="http://www.w3.org/2000/svg"><path d="M17.378 4.03c.605 0 1.24.32 1.583.797.521.723 3.533 4.723 3.926 5.234.273.352.726.944.726 1.515v3.933c0 .847-.8 1.647-1.647 1.647l-1.023.002c-.21 1.273-1.096 1.965-2.546 1.965-1.451 0-2.337-.692-2.547-1.967h-.018l-6.688.002c-.21 1.273-1.095 1.965-2.546 1.965-1.45 0-2.335-.692-2.546-1.965l-.439-.002c-.847 0-1.647-.8-1.647-1.647v-1.63H.336A.337.337 0 010 13.543c0-.185.151-.336.336-.336h1.63V10.6H.336A.337.337 0 010 10.267c0-.185.151-.337.336-.337h1.63V7.324H.336A.337.337 0 010 6.988c0-.185.151-.336.336-.336h1.63v-.975c0-.847.8-1.647 1.647-1.647h13.765zM6.598 14.605c-.635 0-1.119.155-1.432.457-.326.313-.49.807-.49 1.466 0 .659.164 1.153.49 1.465.316.303.797.457 1.432.457.636 0 1.12-.154 1.432-.457.326-.312.491-.806.491-1.465 0-.66-.165-1.153-.49-1.466-.313-.306-.797-.457-1.433-.457zm11.799 0c-.636 0-1.12.155-1.432.457-.326.313-.491.807-.491 1.466 0 .659.165 1.153.49 1.465.317.303.797.457 1.433.457.635 0 1.119-.154 1.432-.457.326-.312.49-.806.49-1.465 0-.66-.164-1.153-.49-1.466-.313-.306-.797-.457-1.432-.457zm-1.019-9.902H3.613c-.474 0-.974.5-.974.974v9.832c0 .474.5.975.974.975h.391l.003-.146c.068-1.554.982-2.405 2.591-2.405 1.66 0 2.579.904 2.595 2.55h6.609l.004-.145c.068-1.554.981-2.405 2.59-2.405 1.66 0 2.58.904 2.595 2.55l.975.001c.474 0 .975-.5.975-.975v-3.933c0-.342-.38-.84-.585-1.105-.393-.515-3.418-4.528-3.94-5.254-.214-.3-.651-.514-1.038-.514z" fill="#5CB615" fill-rule="nonzero"/></svg>