<svg width="24" height="24" viewBox="0 0 24 24" xmlns="http://www.w3.org/2000/svg"><path d="M11.745 5.094a.488.488 0 01-.491-.484l.017-3.123a.487.487 0 01.494-.477h.003a.486.486 0 01.49.484l-.016 3.123a.492.492 0 01-.497.477zm-3.042.793L7.31 4.516a.474.474 0 01.003-.682.503.503 0 01.7.003l1.391 1.371a.477.477 0 01-.003.683.509.509 0 01-.7-.004zm5.747.142a.491.491 0 01-.346-.142.474.474 0 01-.003-.682l1.391-1.368a.5.5 0 01.7-.003c.195.184.195.49.003.682l-1.392 1.371a.507.507 0 01-.353.142zM3.566 8.224c-.289.272-.433.715-.433 1.324 0 .608.144 1.052.43 1.32.279.263.73.394 1.338.394.608 0 1.062-.13 1.344-.396.29-.266.434-.71.434-1.318 0-.609-.148-1.056-.434-1.324-.282-.263-.732-.4-1.34-.4-.61.003-1.06.137-1.339.4zm1.338 4.003c-.874 0-1.553-.222-2.023-.662-.488-.457-.736-1.133-.736-2.014 0-.88.248-1.56.736-2.02.47-.44 1.15-.665 2.023-.665.87 0 1.553.225 2.027.665.49.46.74 1.14.74 2.02 0 .88-.25 1.557-.74 2.017-.474.437-1.156.659-2.027.659zm17.678 9.476l.053-5.321c0-.599-.178-1.096-.514-1.44-.47-.476-1.193-.577-1.714-.577h-4.273c-.195 0-.5-.074-.638-.165-.185-.121-.373-.393-.373-.393l-2.817-3.691v3.496l1.496 1.912v-.517c0-.266.222-.48.494-.48s.494.214.494.48v1.93c0 .01.007.016.007.03v.14c0 .081.003.162.003.25l-.007.58v.868h-.01l-.037 2.898h4.864v-3.795c0-.266.222-.481.494-.481s.494.215.494.48V21.7h1.984v.004zm-11.268-8.246v-3.341l-2.817 3.69s-.188.273-.373.394c-.137.09-.447.165-.638.165H3.22c-.52 0-1.244.1-1.714.578-.336.343-.514.84-.514 1.439l.053 5.32h1.987v-3.791c0-.266.222-.48.494-.48s.494.214.494.48v3.792h4.86l-.033-2.898h-.01v-.87l-.007-.579c0-.084.004-.164.004-.245v-.141l.003-.03v-1.93c0-.265.222-.48.494-.48s.494.215.494.48v.518l1.496-1.913v-.158h-.007zm11.516.82c.518.525.794 1.25.794 2.105l-.061 5.976a.308.308 0 01-.313.306h-9.186a.31.31 0 01-.313-.306l.054-4.417v-.83l-1.993-2.548-1.99 2.545v.826l.054 4.42a.31.31 0 01-.313.307H.373a.314.314 0 01-.316-.306L0 16.378c0-.854.272-1.58.79-2.104.565-.571 1.405-.874 2.427-.874h3.368c.33 0 .649-.024.928-.161.171-.084.514-.43.514-.43l3.381-4.43.004-.008c.023-.03.05-.053.077-.077a.51.51 0 01.161-.094c.004 0 .027-.01.03-.01.034-.01.085-.01.138-.01.048 0 .098.007.142.02l.013.003s.098.037.135.07c.037.028.07.058.097.092l.003.006c.004.004.004.004.007.004l.003.007v.003l3.379 4.427s.346.346.514.43c.279.138.602.161.928.161h3.364c1.026 0 1.866.303 2.427.874zM17.378 8.23c-.289.273-.437.716-.437 1.325 0 .605.148 1.052.434 1.317.282.262.733.394 1.344.394.612 0 1.06-.132 1.338-.394.286-.269.43-.712.43-1.32 0-.61-.144-1.056-.433-1.325-.28-.262-.73-.397-1.338-.397-.605 0-1.055.135-1.338.4zm-.682 3.338c-.491-.457-.743-1.136-.743-2.017 0-.88.249-1.56.743-2.02.47-.44 1.153-.665 2.023-.665.87 0 1.553.221 2.024.665.487.457.736 1.136.736 2.017 0 .88-.249 1.56-.736 2.017-.47.44-1.15.662-2.024.662-.87.003-1.553-.219-2.023-.659z" fill="#313235" fill-rule="nonzero"/></svg>