<svg width="64" height="64" xmlns="http://www.w3.org/2000/svg"><path d="M60.325 59.016l.027-37.835-9.197-.054c-2.985-.027-5.36-.914-7.135-2.707-3.012-3.074-2.958-7.601-2.958-7.807l-.107-7.888-21.603.027c-.932 0-1.703.744-1.712 1.685v11.15l2.035-3.97a2.501 2.501 0 013.352-1.148c.01.01.018.01.036.018.502.233.915.628 1.157 1.157l19.074 38.14c.287.547.368 1.237.161 1.864a2.461 2.461 0 01-2.402 1.784h-.09l-23.296-.08v5.26c-.027.628.108 1.077.395 1.372.35.395.896.475 1.29.475l39.593-.053c.78 0 1.38-.637 1.38-1.39zM2.662 50.78h15.005l23.35.027L21.871 12.79l-4.23 8.363-2.645 5.208L2.662 50.779zM43.796 3.352a1.007 1.007 0 00-.18-.161l.108 7.413c0 .233.027 3.756 2.223 5.97 1.246 1.264 3.012 1.918 5.226 1.918l8.372.054c-.009 0-15.749-15.194-15.749-15.194zm18.402 14.091c.502.502.798 1.192.798 1.891l-.027 39.673c0 2.205-1.793 4.025-4.015 4.025l-39.62.054c-1.29 0-2.429-.475-3.19-1.282-.79-.843-1.166-1.972-1.112-3.263v-5.18l-12.468-.055c-1.399.108-2.537-1.102-2.564-2.5 0-.422.108-.816.296-1.21L15.005 20.75V4.428c0-2.366 1.954-4.311 4.33-4.311L42.262.09c1.291-.054 2.403.42 3.38 1.389l16.555 15.964zM22.006 40.56a1.331 1.331 0 01-1.318-1.317V24.937a1.32 1.32 0 011.318-1.318 1.32 1.32 0 011.317 1.318v14.306c0 .708-.582 1.308-1.317 1.317zm.018 5.773a2.064 2.064 0 01-2.062-2.044 2.062 2.062 0 014.123 0c0 1.13-.914 2.044-2.061 2.044z" fill="#313235" fill-rule="nonzero"/></svg>