<svg width="64" height="64" viewBox="0 0 64 64" xmlns="http://www.w3.org/2000/svg"><path d="M60.825 59.43l.027-37.835-9.197-.053c-2.985-.027-5.36-.915-7.135-2.707-3.012-3.075-2.958-7.601-2.958-7.808l-.107-7.888-21.603.027c-.932 0-1.703.744-1.712 1.685v11.151l2.035-3.97a2.501 2.501 0 013.352-1.148c.01.009.018.009.036.018.502.233.915.627 1.157 1.156l19.074 38.14c.287.547.368 1.237.161 1.865a2.461 2.461 0 01-2.402 1.783h-.09l-23.296-.08v5.261c-.027.628.108 1.076.395 1.372.35.394.896.475 1.29.475l39.593-.054c.78 0 1.38-.636 1.38-1.39zM3.162 51.194h15.005l23.35.027-19.146-38.014-4.23 8.363-2.645 5.207L3.162 51.193zM44.296 3.767a1.007 1.007 0 00-.18-.161l.108 7.412c0 .233.027 3.756 2.223 5.97 1.246 1.264 3.012 1.918 5.226 1.918l8.372.054c-.009 0-15.749-15.193-15.749-15.193zm18.402 14.09c.502.503.798 1.193.798 1.892l-.027 39.673c0 2.205-1.793 4.024-4.015 4.024l-39.62.054c-1.29 0-2.429-.475-3.19-1.282-.79-.842-1.166-1.972-1.112-3.262v-5.181L3.064 53.72C1.665 53.828.527 52.618.5 51.22c0-.422.108-.817.296-1.211l14.709-28.845V4.842c0-2.366 1.954-4.311 4.33-4.311L42.762.504c1.291-.054 2.403.421 3.38 1.39l16.555 15.964zM22.506 40.976a1.331 1.331 0 01-1.318-1.318V25.351a1.32 1.32 0 011.318-1.317 1.32 1.32 0 011.317 1.317v14.306c0 .708-.582 1.309-1.317 1.318zm.018 5.772a2.064 2.064 0 01-2.062-2.043 2.062 2.062 0 014.123 0c0 1.129-.914 2.043-2.061 2.043z" fill="#313235" fill-rule="nonzero"/></svg>