<svg width="24" height="24" viewBox="0 0 24 24" xmlns="http://www.w3.org/2000/svg"><path d="M22.622 22.131l.01-14.188-3.449-.02c-1.12-.01-2.01-.343-2.675-1.015-1.13-1.153-1.11-2.85-1.11-2.928l-.04-2.958-8.1.01a.64.64 0 00-.643.632v4.181l.763-1.489a.938.938 0 011.257-.43l.014.007a.878.878 0 01.433.433l7.153 14.303a.914.914 0 01.06.7.923.923 0 01-.9.668h-.034l-8.736-.03v1.973c-.01.235.04.403.148.514.131.148.336.178.484.178l14.847-.02a.519.519 0 00.518-.52zM.998 19.042h5.627l8.757.01-7.18-14.255-1.587 3.136-.991 1.953-4.626 9.156zM16.424 1.257a.378.378 0 00-.068-.06l.04 2.78c0 .087.01 1.408.834 2.238.467.474 1.13.72 1.96.72l3.14.02c-.004 0-5.906-5.698-5.906-5.698zm6.9 5.284c.189.188.3.447.3.71l-.01 14.877a1.51 1.51 0 01-1.506 1.509l-14.858.02c-.484 0-.91-.178-1.196-.48-.296-.316-.437-.74-.417-1.224V20.01l-4.676-.02c-.524.04-.95-.414-.961-.938 0-.158.04-.306.11-.454L5.628 7.782V1.66C5.627.773 6.36.044 7.25.044l8.599-.01c.484-.02.9.158 1.267.52l6.208 5.987zm-15.072 8.67a.5.5 0 01-.494-.495V9.351a.495.495 0 01.988 0v5.365a.5.5 0 01-.494.494zm.007 2.164a.774.774 0 01-.773-.767.773.773 0 011.546 0 .768.768 0 01-.773.767z" fill="#313235" fill-rule="nonzero"/></svg>