<svg width="24" height="24" viewBox="0 0 24 24" xmlns="http://www.w3.org/2000/svg"><path d="M21.176 14.857c.471-2.753.528-8.84.532-10.699-2.175.188-3.466-.682-4.716-1.516-1.214-.813-2.471-1.654-4.64-1.654h-.006c-2.168 0-3.425.84-4.642 1.654-1.26.837-2.578 1.694-4.712 1.523.006 1.869.067 7.943.54 10.689.596 3.462 7.52 7.075 8.818 7.728 1.297-.65 8.228-4.266 8.826-7.725zm1.51-11.254c0 .33.02 8.081-.548 11.422-.74 4.3-9.217 8.38-9.577 8.551a.477.477 0 01-.416 0c-.363-.171-8.83-4.252-9.57-8.55-.582-3.342-.558-11.093-.558-11.423a.492.492 0 01.605-.474c2.094.33 3.23-.43 4.548-1.31C8.44.964 9.882 0 12.346 0h.007c2.464.003 3.906.968 5.18 1.818 1.314.878 2.45 1.64 4.551 1.311a.546.546 0 01.41.108c.111.087.182.222.192.366zm-5.873 4.511a.484.484 0 01.686-.003l.004.003a.493.493 0 010 .696l-6.64 6.7a.484.484 0 01-.685.003l-.003-.004-2.982-3.008a.493.493 0 010-.696.484.484 0 01.686-.003l.003.003 2.636 2.659 6.295-6.35z" fill="#5CB615" fill-rule="nonzero"/></svg>