<svg width="64" height="64" viewBox="0 0 64 64" xmlns="http://www.w3.org/2000/svg"><path d="M8.031 11.15c.018 5.011.17 21.146 1.444 28.451 1.586 9.206 19.97 18.824 23.457 20.563C36.42 58.416 54.83 48.798 56.417 39.6c1.246-7.323 1.398-23.493 1.416-28.477-5.817.457-9.223-1.829-12.549-4.043-3.227-2.16-6.58-4.392-12.343-4.4h-.018c-5.772 0-9.116 2.231-12.352 4.4-3.36 2.241-6.83 4.545-12.54 4.07zm24.901 51.846c-.197 0-.394-.045-.573-.125-.95-.458-23.52-11.34-25.502-22.804-1.55-8.9-1.488-29.562-1.488-30.44A1.324 1.324 0 016.687 8.29c.107 0 .224.01.331.036 5.567.888 8.588-1.138 12.092-3.478C22.508 2.573 26.353 0 32.923 0h.027c6.57.009 10.416 2.582 13.804 4.85 3.496 2.339 6.508 4.356 12.11 3.486.394-.063.798.045 1.111.296.305.242.493.61.52.995 0 .878.054 21.54-1.46 30.44-1.973 11.474-24.57 22.346-25.53 22.804-.187.08-.376.125-.573.125z" fill="#313235" fill-rule="nonzero"/></svg>