<svg width="24" height="24" viewBox="0 0 24 24" xmlns="http://www.w3.org/2000/svg"><path d="M3.012 4.182c.006 1.879.064 7.929.54 10.668.596 3.453 7.49 7.06 8.798 7.711 1.307-.655 8.211-4.262 8.806-7.71.468-2.747.525-8.81.531-10.68-2.181.172-3.458-.685-4.705-1.516-1.21-.81-2.468-1.647-4.63-1.65h-.006c-2.164 0-3.418.837-4.632 1.65-1.26.84-2.561 1.705-4.702 1.527zm9.338 19.442a.527.527 0 01-.216-.048c-.356-.171-8.82-4.252-9.563-8.55-.581-3.339-.558-11.087-.558-11.416a.497.497 0 01.619-.487c2.087.332 3.22-.427 4.534-1.305C8.44.965 9.882 0 12.346 0h.01c2.464.003 3.906.968 5.177 1.818 1.31.878 2.44 1.634 4.54 1.308a.526.526 0 01.612.484c0 .33.02 8.077-.547 11.415-.74 4.303-9.214 8.38-9.573 8.551a.54.54 0 01-.215.048z" fill="#313235" fill-rule="nonzero"/></svg>