<svg width="64" height="64" viewBox="0 0 64 64" xmlns="http://www.w3.org/2000/svg"><path d="M55.493 40.119c1.255-7.341 1.407-23.574 1.416-28.531-5.8.502-9.241-1.82-12.576-4.043-3.235-2.169-6.588-4.41-12.37-4.41h-.017c-5.782 0-9.134 2.241-12.379 4.41-3.361 2.232-6.875 4.518-12.567 4.06.018 4.985.18 21.182 1.443 28.505 1.587 9.233 20.052 18.868 23.512 20.607 3.46-1.73 21.943-11.374 23.538-20.598zm4.025-30.01c0 .878.054 21.548-1.461 30.458-1.972 11.465-24.578 22.346-25.538 22.804-.35.17-.76.17-1.111 0-.968-.458-23.547-11.34-25.52-22.804C4.339 31.657 4.4 10.987 4.4 10.11a1.31 1.31 0 011.614-1.264c5.584.879 8.614-1.147 12.128-3.496C21.53 3.073 25.375.5 31.946.5h.018c6.57.009 10.415 2.582 13.813 4.85 3.504 2.339 6.534 4.374 12.136 3.495.386-.054.78.045 1.094.287.296.233.484.592.511.977zm-15.66 12.03a1.29 1.29 0 011.829-.01l.009.01c.51.51.51 1.344 0 1.855L27.993 41.858a1.29 1.29 0 01-1.829.009l-.009-.009-7.95-8.022a1.315 1.315 0 010-1.856 1.29 1.29 0 011.828-.009l.01.01 7.027 7.09 16.788-16.933z" fill="#313235" fill-rule="nonzero"/></svg>