<svg width="24" height="24" viewBox="0 0 24 24" xmlns="http://www.w3.org/2000/svg"><path d="M6.178 16.407c.108 0 .222.013.343.04.622.151 1.31.692 1.069 2.424-.108.76-.054 1.432.158 2 .225.608.565 1.018 1.008 1.213 2.626 1.153 6.219.356 9.378-2.074 2.303-1.778 3.799-4.208 4.212-6.84a.552.552 0 01.044-.145c.074-.302.124-.571.158-.84.514-3.91-2.356-4.817-3.614-5.025-.117-.01-.295-.037-.453-.06a5.535 5.535 0 00-1.063-.018.507.507 0 01-.393-.14 5.01 5.01 0 01-.907-1.204 5.172 5.172 0 01-.417-3.923l.02-.054a.496.496 0 00-.003-.346c-.074-.161-.283-.259-.447-.316-.784-.269-.992.215-1.026.316a6.662 6.662 0 001.036 5.832.516.516 0 01-.084.696c-.77.642-1.254 1.66-1.436 3.018a4.53 4.53 0 00-.057.67c-.057.372-.007.732.044 1.082.09.652.198 1.391-.3 1.946-.426.48-1.196.686-2.413.632a.5.5 0 01-.14-.027 8.23 8.23 0 00-.596-.175c-.78-.175-1.943-.336-2.632-.31-.027 0-.05 0-.077-.003h-.044a6.44 6.44 0 00-3.042.592 6.618 6.618 0 00-3.449 3.751c-.063.158-.137.498.32.763.467.27.766.179 1.156-.356.121-.168.242-.34.36-.508.591-.85 1.203-1.727 2.222-2.248l.124-.067c.242-.128.548-.296.941-.296m5.183 7.217c-1.072 0-2.087-.195-3.008-.599-.706-.312-1.227-.914-1.553-1.791-.269-.73-.343-1.57-.212-2.501.111-.78.007-1.21-.302-1.288-.175-.043-.313.027-.558.158l-.148.081c-.793.407-1.308 1.146-1.852 1.926-.121.175-.242.35-.37.524-.877 1.21-1.832 1.016-2.477.64-1.042-.606-.948-1.598-.75-2.035a7.61 7.61 0 013.963-4.292 7.493 7.493 0 013.55-.679c.796-.037 2.07.148 2.907.336.229.06.427.118.609.175 1.102.037 1.442-.171 1.553-.296.181-.201.117-.645.05-1.12-.057-.41-.124-.87-.047-1.313a4.39 4.39 0 01.06-.726c.189-1.416.676-2.538 1.446-3.342a8.46 8.46 0 01-.306-.507 7.704 7.704 0 01-.622-5.866C13.52.461 14.31-.303 15.61.141c.645.222.928.598 1.049.877.218.498.074.969.02 1.116a4.16 4.16 0 00.34 3.127c.16.292.352.564.568.8.43-.02.796.01 1.042.04.158.023.312.05.443.06 2.525.417 5.005 2.252 4.491 6.172a8.153 8.153 0 01-.208 1.049l-.01.036c-.471 2.861-2.098 5.493-4.585 7.419-2.39 1.818-5.022 2.787-7.399 2.787" fill="#313235" fill-rule="nonzero"/></svg>