<svg width="64" height="64" viewBox="0 0 64 64" xmlns="http://www.w3.org/2000/svg"><path d="M30.887 46.779l-18.86-18.86a1.859 1.859 0 01-.143-2.626 1.859 1.859 0 012.626-.143c.045.045.099.09.135.134l15.677 15.713V2.355A1.867 1.867 0 0132.186.5c1.031 0 1.856.834 1.856 1.855v38.651l15.381-15.381a1.858 1.858 0 012.627.134 1.865 1.865 0 010 2.492L33.522 46.78c-.188.17-.404.305-.628.412-.448.198-.959.198-1.407 0a2.309 2.309 0 01-.6-.412zm30.754-.44c1.021 0 1.855.834 1.855 1.847v13.455a1.852 1.852 0 01-1.846 1.855H2.346A1.844 1.844 0 01.5 61.65V48.195a1.86 1.86 0 011.855-1.855 1.86 1.86 0 011.856 1.855v11.6h55.592v-11.6a1.833 1.833 0 011.838-1.855z" fill="#313235" fill-rule="nonzero"/></svg>