<svg width="24" height="24" viewBox="0 0 24 24" xmlns="http://www.w3.org/2000/svg"><path d="M13.188 0a.36.36 0 01.239.097l6.555 6.555a.333.333 0 01.097.239v15.73c0 .529-.464.992-.992.992H4.012c-.518 0-.992-.474-.992-.991V.992C3.02.49 3.51 0 4.012 0h9.176zm-.337.672h-8.84c-.127 0-.319.192-.319.32v21.63c0 .144.175.32.32.32h15.075c.155 0 .32-.166.32-.32V7.226h-2.941c-1.056 0-1.96-.345-2.616-.997-.655-.653-.998-1.557-.998-2.616V.672zm3.615 18.336c.184 0 .336.152.336.337a.335.335 0 01-.336.336H6.634a.337.337 0 01-.337-.336c0-.185.152-.337.337-.337h9.832zm0-3.603c.184 0 .336.151.336.336a.335.335 0 01-.336.336H6.634a.337.337 0 01-.337-.336c0-.185.152-.336.337-.336h9.832zm0-3.607c.184 0 .336.152.336.336a.335.335 0 01-.336.337H6.634a.337.337 0 01-.337-.337c0-.184.152-.336.337-.336h9.832zm2.466-5.244l-5.408-5.408v2.467c0 1.785 1.157 2.942 2.942 2.942l2.466-.001z" fill="#5CB615" fill-rule="nonzero"/></svg>