<svg width="24" height="24" viewBox="0 0 24 24" xmlns="http://www.w3.org/2000/svg"><path d="M9.842 1.123c-.175.15-.108.53-.07.689.127.548.383 1.133.756 1.727.312.498.551.8.981 1.254.07.074.138.138.185.175.05-.037.104-.09.165-.148l.003-.003.034-.034c.423-.447.659-.75.968-1.244.376-.594.632-1.18.763-1.727.037-.158.1-.538-.07-.69a.58.58 0 00-.344-.117h-.043c-.182 0-.373.054-.558.161-.118.064-.236.135-.367.212l-.232.141-.312.01c-.188 0-.37-.05-.531-.14-.148-.088-.266-.162-.38-.226a1.155 1.155 0 00-.558-.158c-.188.007-.316.054-.39.118zm-.141 2.961c-.434-.689-.736-1.375-.888-2.037-.168-.72-.03-1.318.39-1.684.242-.212.575-.34.931-.356.03-.004.061-.004.095-.004.346 0 .699.098 1.032.286.124.067.248.145.39.229.013.003.026.01.043.01.014 0 .03-.004.044-.01.134-.084.262-.158.386-.229A2.102 2.102 0 0113.16.003c.03 0 .06 0 .094.004.36.017.689.144.93.356.418.366.555.965.387 1.684-.154.659-.453 1.348-.89 2.037a7.862 7.862 0 01-1.09 1.395c-.003.003-.006.01-.013.013-.047.047-.208.216-.346.313a1.032 1.032 0 01-.38.178.657.657 0 01-.12.017h-.095a.748.748 0 01-.121-.017 1.021 1.021 0 01-.383-.178c-.135-.1-.296-.266-.343-.313-.464-.5-.74-.857-1.09-1.408zM4.15 6.931c-.39.387-.588 1.002-.588 1.835 0 .83.198 1.45.585 1.829.376.37.965.555 1.751.555.787 0 1.382-.185 1.758-.558.393-.384.588-.999.588-1.829 0-.834-.198-1.449-.588-1.835-.376-.373-.968-.562-1.758-.562-.783.004-1.371.192-1.748.565zM5.9 12.158c-1.049 0-1.869-.279-2.433-.837-.589-.578-.888-1.435-.888-2.551s.3-1.977.888-2.558c.568-.558 1.384-.844 2.433-.844 1.052 0 1.872.286 2.44.844.589.581.891 1.442.891 2.558 0 1.116-.299 1.973-.89 2.551-.569.555-1.389.837-2.44.837zm10.064-5.227c-.39.387-.588 1.002-.588 1.835 0 .83.198 1.45.585 1.829.376.37.964.555 1.75.555.787 0 1.382-.185 1.759-.558.393-.384.588-.999.588-1.829 0-.834-.198-1.449-.588-1.835-.377-.373-.968-.562-1.758-.562-.783.004-1.372.192-1.748.565zm-.686 4.387c-.588-.579-.887-1.436-.887-2.552s.3-1.976.887-2.558c.568-.558 1.385-.843 2.434-.843 1.052 0 1.872.285 2.44.843.588.582.891 1.442.891 2.558 0 1.116-.3 1.973-.89 2.552-.569.558-1.389.837-2.441.837-1.049.003-1.869-.28-2.434-.837zm-2.53 1.314c.184-.182.278-.5.278-.945 0-.447-.094-.766-.279-.95-.181-.179-.49-.27-.914-.27-.42 0-.726.091-.908.27-.185.184-.279.503-.279.95 0 .444.094.763.28.945.18.178.487.269.91.269.42 0 .726-.09.911-.27zm-.915-3.17c.689 0 1.223.185 1.597.551.39.38.584.945.584 1.674 0 .73-.195 1.291-.584 1.671-.374.363-.908.548-1.597.548-.686 0-1.22-.185-1.593-.548-.384-.38-.578-.941-.578-1.67 0-.73.194-1.295.578-1.675.37-.366.907-.55 1.593-.55zm10.807 13.083v-4.858c0-.87-.236-1.603-.683-2.11-.49-.559-1.26-.858-2.215-.858h-4.054c-.635 0-1.173.145-1.613.394.393.127.74.329 1.002.628.41.464.625 1.113.625 1.87v4.934h6.938zm-7.926 0v-4.932c0-.329-.06-.793-.35-1.122-.323-.367-.83-.444-1.203-.444h-2.656c-.013 0-.03.003-.047.003-.366.007-.847.088-1.156.44-.29.33-.35.794-.35 1.123v4.958h5.755v-.026h.007zm-6.74-4.932c0-.756.215-1.405.622-1.868.255-.29.585-.495.968-.622-.444-.256-.992-.4-1.634-.4H3.876c-.958 0-1.721.295-2.212.853-.444.508-.676 1.24-.676 2.115v4.857h6.988v-4.935h-.003zm14.69-2.783c.628.713.96 1.701.96 2.857v5.52c0 .228-.17.413-.38.413H.377c-.208 0-.376-.185-.376-.413v-5.52c0-1.156.33-2.148.951-2.857.68-.776 1.691-1.19 2.921-1.19h4.054c1.234 0 2.245.41 2.924 1.187.037.044.064.094.098.138h1.718c.033-.044.06-.094.094-.135.679-.776 1.69-1.19 2.92-1.19h4.054c1.237.004 2.25.414 2.928 1.19z" fill="#313235" fill-rule="nonzero"/></svg>