<svg width="64" height="64" viewBox="0 0 64 64" xmlns="http://www.w3.org/2000/svg"><path d="M47.22 63.04a5.951 5.951 0 01-2.895-.761l-12.28-6.732a1.015 1.015 0 00-.986 0l-12.28 6.732c-2.053 1.13-4.428.986-6.347-.368-2.016-1.425-3.011-3.854-2.599-6.337l2.349-14.252a1.24 1.24 0 00-.332-1.058L1.918 30.171C.206 28.432-.376 25.887.412 23.538c.762-2.294 2.609-3.88 4.93-4.23l13.733-2.08c.358-.054.663-.287.815-.618l6.14-12.97C27.07 1.433 29.185.071 31.552.071c2.366 0 4.482 1.371 5.53 3.567l6.14 12.97c.162.341.467.574.825.628l13.723 2.08c2.322.35 4.168 1.936 4.93 4.23.78 2.349.206 4.894-1.506 6.633l-9.94 10.084a1.208 1.208 0 00-.323 1.058l2.349 14.252c.412 2.483-.583 4.921-2.6 6.337-1.067.753-2.259 1.13-3.46 1.13zm-15.668-9.41c.466 0 .932.116 1.353.349l12.28 6.731c1.444.79 3.11.69 4.455-.26 1.443-1.021 2.16-2.778 1.865-4.589L49.156 41.61a2.997 2.997 0 01.816-2.6l9.94-10.092c1.238-1.255 1.659-3.102 1.085-4.814-.547-1.64-1.855-2.77-3.496-3.02l-13.732-2.08a2.868 2.868 0 01-2.169-1.64L35.46 4.4c-.753-1.595-2.214-2.546-3.908-2.546s-3.155.95-3.908 2.546l-6.14 12.97a2.878 2.878 0 01-2.16 1.632L5.61 21.083c-1.64.25-2.949 1.38-3.496 3.02-.564 1.712-.152 3.55 1.085 4.814L13.132 39c.672.69.977 1.667.815 2.608L11.6 55.861c-.296 1.802.421 3.559 1.864 4.59 1.345.95 3.012 1.048 4.446.26l12.28-6.732c.43-.233.897-.35 1.363-.35z" fill="#313235" fill-rule="nonzero"/></svg>