<svg width="64" height="64" viewBox="0 0 64 64" xmlns="http://www.w3.org/2000/svg"><path d="M47.654 63.47a5.951 5.951 0 01-2.895-.763l-12.28-6.731a1.015 1.015 0 00-.986 0l-12.28 6.731c-2.053 1.13-4.428.986-6.347-.367-2.016-1.425-3.011-3.855-2.599-6.337l2.348-14.253a1.24 1.24 0 00-.331-1.057L2.352 30.6C.64 28.86.057 26.315.846 23.967c.762-2.295 2.609-3.882 4.93-4.231l13.732-2.08c.359-.053.664-.287.816-.618l6.14-12.97C27.504 1.862 29.62.5 31.986.5c2.366 0 4.482 1.371 5.53 3.568l6.14 12.97c.162.34.466.573.825.627l13.723 2.08c2.322.35 4.168 1.936 4.93 4.23.78 2.35.206 4.895-1.506 6.634l-9.94 10.084a1.208 1.208 0 00-.323 1.057l2.348 14.253c.413 2.482-.582 4.92-2.599 6.337-1.067.753-2.259 1.13-3.46 1.13zm-15.668-9.413c.466 0 .932.117 1.353.35l12.28 6.732c1.443.788 3.11.69 4.455-.26 1.443-1.022 2.16-2.779 1.865-4.59L49.59 42.037a2.997 2.997 0 01.816-2.6l9.94-10.092c1.238-1.255 1.659-3.102 1.085-4.814-.547-1.64-1.855-2.77-3.496-3.02l-13.732-2.08a2.868 2.868 0 01-2.17-1.64l-6.14-12.962c-.752-1.595-2.213-2.545-3.907-2.545s-3.155.95-3.908 2.545l-6.14 12.97a2.878 2.878 0 01-2.16 1.632l-13.733 2.08c-1.64.25-2.949 1.38-3.496 3.02-.564 1.712-.152 3.55 1.085 4.814l9.932 10.084c.672.69.977 1.667.815 2.608L12.033 56.29c-.296 1.802.421 3.559 1.864 4.59 1.345.95 3.012 1.048 4.446.26l12.28-6.732c.43-.233.897-.35 1.363-.35z" fill="#313235" fill-rule="nonzero"/></svg>