<svg width="24" height="24" viewBox="0 0 24 24" xmlns="http://www.w3.org/2000/svg"><path d="M17.708 23.64c-.37 0-.74-.094-1.086-.285l-4.605-2.525a.38.38 0 00-.37 0l-4.605 2.525c-.77.423-1.66.37-2.38-.138a2.4 2.4 0 01-.975-2.377l.881-5.344a.465.465 0 00-.124-.397L.719 11.314a2.428 2.428 0 01-.564-2.487c.285-.86.978-1.456 1.848-1.587l5.15-.78a.403.403 0 00.306-.231L9.76 1.365c.39-.827 1.184-1.338 2.07-1.338.888 0 1.682.514 2.075 1.338l2.302 4.864a.41.41 0 00.31.235l5.146.78c.87.13 1.563.726 1.849 1.586.292.88.077 1.836-.565 2.488l-3.728 3.781a.453.453 0 00-.12.397l.88 5.344c.154.931-.219 1.846-.975 2.377-.4.282-.847.423-1.297.423zm-5.876-3.53c.175 0 .35.045.507.132l4.606 2.524a1.552 1.552 0 001.67-.097c.541-.383.81-1.042.7-1.721l-.881-5.345c-.06-.353.053-.719.305-.974l3.728-3.785c.464-.47.622-1.163.407-1.805-.205-.615-.696-1.039-1.311-1.133l-5.15-.78a1.075 1.075 0 01-.813-.615l-2.303-4.86c-.282-.599-.83-.955-1.465-.955-.635 0-1.183.356-1.466.954L8.064 6.514a1.08 1.08 0 01-.81.612l-5.15.78C1.49 8 .998 8.424.794 9.039a1.77 1.77 0 00.406 1.805l3.724 3.781c.252.259.367.625.306.978l-.88 5.345c-.111.676.158 1.334.699 1.72.504.357 1.13.394 1.667.098l4.605-2.524a1.07 1.07 0 01.51-.131z" fill="#5CB615" fill-rule="nonzero"/></svg>