<svg width="64" height="64" viewBox="0 0 64 64" xmlns="http://www.w3.org/2000/svg"><path d="M31.98.5c10.048 0 17.838 2.6 23.162 7.736 5.522 5.324 8.327 13.32 8.327 23.753 0 20.598-10.89 31.48-31.489 31.48C11.39 63.47.5 52.587.5 31.998.5 11.408 11.39.5 31.98.5zm0 1.793c-9.564 0-16.941 2.438-21.916 7.233C4.91 14.501 2.293 22.057 2.293 31.99c0 7.107 1.34 13.002 3.99 17.6a.828.828 0 01.124-.157l.018-.018 10.64-10.505a.893.893 0 011.264.009l1.488 1.506c2.404-4.445 5.101-11.43 5.716-20.999a3.67 3.67 0 01-1.952-1.079c-.726-.761-1.111-1.792-1.111-3.038 0-1.246.376-2.277 1.111-3.039s1.721-1.174 2.895-1.174c1.175 0 2.143.394 2.896 1.174.753.78 1.111 1.793 1.111 3.039 0 1.246-.376 2.277-1.111 3.038a3.782 3.782 0 01-2.053 1.098l.009-.147c-.583 9.635-3.227 16.78-5.665 21.45l19.33-19.083a3.651 3.651 0 01-.659-2.215c.027-1.058.493-2.044 1.39-2.922.896-.879 1.882-1.345 2.949-1.372 1.084-.026 2.052.368 2.886 1.193.833.824 1.237 1.783 1.21 2.868-.027 1.058-.502 2.044-1.39 2.922-.887.879-1.882 1.345-2.948 1.372h-.117c-.74 0-1.42-.2-2.038-.598l-19.053 18.82c4.636-2.362 11.568-4.856 20.824-5.451a3.745 3.745 0 011.119-2.15c.78-.753 1.792-1.111 3.038-1.111 1.246 0 2.277.376 3.039 1.111s1.174 1.721 1.174 2.896c0 1.174-.394 2.142-1.174 2.895-.78.753-1.784 1.111-3.039 1.111-1.255 0-2.277-.376-3.038-1.111a3.705 3.705 0 01-1.06-1.865l.253-.018c-9.68.592-16.726 3.317-21.208 5.746l1.569 1.587c.35.35.34.923-.01 1.264L13.854 57.37c4.675 2.86 10.75 4.305 18.127 4.305 9.564 0 16.941-2.429 21.925-7.224 5.163-4.975 7.78-12.531 7.78-22.454s-2.617-17.488-7.78-22.463c-4.984-4.804-12.36-7.242-21.925-7.242zM17.692 40.809L7.68 50.687c-.192.192-.344.31-.47.376a21.525 21.525 0 005.137 5.302.735.735 0 01.092-.111l10.38-10.246-2.563-2.6-.87-.878-1.694-1.72zm30.512-5.647c-.69 0-1.21.17-1.568.52-.359.35-.52.77-.52 1.363v.044c.009.556.179.977.52 1.3.358.35.878.52 1.568.52.69 0 1.21-.17 1.569-.52.358-.35.52-.77.52-1.353s-.162-1.022-.52-1.354c-.359-.332-.879-.52-1.569-.52zM44.717 17.28c-.51.009-1.004.26-1.514.753-.511.493-.753.977-.762 1.47 0 .484.179.896.591 1.3.413.403.834.591 1.336.573.51-.009 1.004-.26 1.506-.753s.753-.977.762-1.47c.018-.484-.17-.896-.583-1.3-.412-.403-.834-.591-1.336-.573zm-18.24-4.07c-.583 0-1.022.17-1.354.52-.332.35-.52.879-.52 1.569s.17 1.21.52 1.569c.332.34.744.51 1.3.52h.053c.583 0 1.013-.17 1.354-.52.34-.35.52-.879.52-1.57 0-.69-.17-1.21-.52-1.568-.35-.358-.77-.52-1.354-.52z" fill="#313235" fill-rule="nonzero"/></svg>