<svg width="64" height="64" xmlns="http://www.w3.org/2000/svg"><path d="M31.49.009c10.047 0 17.837 2.6 23.161 7.736 5.522 5.324 8.327 13.32 8.327 23.753 0 20.598-10.89 31.48-31.489 31.48C10.9 62.978.01 52.096.01 31.507c0-20.59 10.89-31.498 31.48-31.498zm0 1.793c-9.565 0-16.942 2.438-21.917 7.233C4.42 14.01 1.802 21.566 1.802 31.498c0 7.107 1.34 13.002 3.99 17.6a.828.828 0 01.124-.157l.018-.018 10.64-10.505a.893.893 0 011.264.009l1.487 1.506c2.405-4.445 5.102-11.43 5.717-20.999a3.67 3.67 0 01-1.952-1.079c-.726-.761-1.111-1.792-1.111-3.038 0-1.246.376-2.277 1.111-3.039s1.721-1.174 2.895-1.174c1.175 0 2.143.394 2.896 1.174.753.78 1.111 1.793 1.111 3.039 0 1.246-.376 2.277-1.111 3.038a3.782 3.782 0 01-2.053 1.098l.009-.147c-.583 9.635-3.227 16.78-5.665 21.45l19.33-19.083a3.651 3.651 0 01-.659-2.215c.027-1.058.493-2.044 1.39-2.922.896-.879 1.882-1.345 2.949-1.372 1.084-.026 2.052.368 2.886 1.193.833.824 1.237 1.783 1.21 2.868-.027 1.058-.502 2.044-1.39 2.922-.887.878-1.882 1.345-2.949 1.371h-.116c-.74 0-1.42-.199-2.038-.597L22.732 41.24c4.636-2.362 11.568-4.856 20.824-5.451a3.745 3.745 0 011.119-2.15c.78-.753 1.792-1.111 3.038-1.111 1.246 0 2.277.376 3.039 1.111s1.174 1.721 1.174 2.896c0 1.174-.394 2.142-1.174 2.895-.78.753-1.784 1.111-3.039 1.111-1.255 0-2.277-.376-3.038-1.111a3.705 3.705 0 01-1.06-1.865l.253-.018c-9.68.592-16.726 3.317-21.208 5.746l1.569 1.587c.35.35.34.923-.01 1.264L13.363 56.88c4.675 2.86 10.75 4.305 18.127 4.305 9.564 0 16.941-2.429 21.925-7.224 5.163-4.975 7.78-12.531 7.78-22.454s-2.617-17.488-7.78-22.463C48.43 4.24 41.054 1.802 31.489 1.802zM17.2 40.318L7.19 50.196c-.192.192-.344.31-.47.376a21.525 21.525 0 005.137 5.302.735.735 0 01.092-.112l10.38-10.245-2.563-2.6-.87-.878-1.694-1.72zm30.512-5.647c-.69 0-1.21.17-1.568.52-.359.35-.52.77-.52 1.363v.044c.009.556.179.977.52 1.3.358.35.878.52 1.568.52.69 0 1.21-.17 1.569-.52.358-.35.52-.77.52-1.353s-.162-1.022-.52-1.354c-.359-.332-.879-.52-1.569-.52zM44.226 16.79c-.51.009-1.004.26-1.515.753-.51.493-.752.977-.761 1.47 0 .484.179.896.591 1.3.413.403.834.591 1.336.573.51-.009 1.004-.26 1.506-.753s.753-.977.762-1.47c.017-.484-.17-.896-.583-1.3-.412-.403-.834-.591-1.336-.573zm-18.24-4.07c-.583 0-1.022.17-1.354.52-.332.35-.52.879-.52 1.569s.17 1.21.52 1.568c.332.341.744.511 1.3.52h.053c.583 0 1.013-.17 1.354-.52.34-.35.52-.878.52-1.568 0-.69-.17-1.21-.52-1.569-.35-.358-.77-.52-1.354-.52z" fill="#313235" fill-rule="nonzero"/></svg>