<svg width="24" height="24" viewBox="0 0 24 24" xmlns="http://www.w3.org/2000/svg"><path d="M11.808.003c3.768 0 6.69.975 8.686 2.901 2.07 1.997 3.123 4.995 3.123 8.908 0 7.724-4.084 11.805-11.809 11.805-7.72 0-11.805-4.08-11.805-11.802C.003 4.095 4.087.003 11.808.003zm0 .673c-3.586 0-6.353.914-8.218 2.712C1.657 5.254.676 8.088.676 11.812c0 2.665.502 4.875 1.496 6.6l.046-.06.007-.006 3.99-3.94a.335.335 0 01.474.004l.558.565C8.15 13.308 9.16 10.689 9.391 7.1a1.378 1.378 0 01-.732-.405c-.272-.286-.417-.672-.417-1.14 0-.467.141-.853.417-1.14.275-.285.645-.44 1.086-.44.44 0 .803.148 1.085.44.283.293.417.673.417 1.14 0 .468-.141.854-.417 1.14a1.418 1.418 0 01-.77.412l.004-.056c-.219 3.614-1.21 6.293-2.125 8.044l7.249-7.156a1.37 1.37 0 01-.247-.83c.01-.397.185-.767.521-1.097.336-.329.706-.504 1.106-.514.407-.01.77.138 1.082.447.313.31.464.67.454 1.076-.01.396-.188.766-.52 1.096-.334.33-.707.504-1.107.514h-.043c-.277 0-.532-.075-.764-.224l-7.146 7.058c1.739-.886 4.34-1.822 7.81-2.045.05-.316.19-.586.419-.806.292-.282.672-.417 1.14-.417.467 0 .853.141 1.139.417.286.276.44.646.44 1.086 0 .44-.148.803-.44 1.086-.293.282-.669.416-1.14.416-.47 0-.853-.14-1.14-.416a1.39 1.39 0 01-.396-.698l.094-.008c-3.63.222-6.272 1.243-7.953 2.154l.589.595a.335.335 0 01-.004.474L5.01 21.33c1.754 1.073 4.032 1.615 6.798 1.615 3.587 0 6.353-.911 8.222-2.71 1.936-1.865 2.918-4.699 2.918-8.42 0-3.72-.982-6.558-2.918-8.423C18.161 1.59 15.395.676 11.808.676zM6.45 15.119l-3.754 3.705a.764.764 0 01-.178.141 8.154 8.154 0 001.928 1.988l.035-.042 3.892-3.842-.961-.975-.326-.33-.636-.645zm11.442-2.117c-.258 0-.453.064-.588.195-.134.13-.195.289-.195.51v.017c.004.209.067.367.195.488.135.13.33.195.588.195.26 0 .454-.064.589-.195.134-.131.195-.29.195-.508 0-.218-.06-.383-.195-.507-.135-.125-.33-.195-.589-.195zm-1.307-6.706c-.192.003-.377.097-.568.282-.192.185-.283.367-.286.551 0 .182.067.337.222.488.155.151.313.222.5.215.192-.003.377-.098.565-.282.189-.185.283-.367.286-.552.007-.181-.064-.336-.218-.487-.155-.151-.313-.222-.501-.215zM9.745 4.77c-.219 0-.384.064-.508.195-.124.13-.195.33-.195.588 0 .259.064.454.195.588a.653.653 0 00.487.195h.02c.219 0 .38-.064.508-.195.128-.13.195-.33.195-.588 0-.259-.064-.454-.195-.588-.131-.135-.289-.195-.507-.195z" fill="#5CB615" fill-rule="nonzero"/></svg>