<svg width="64" height="64" viewBox="0 0 64 64" xmlns="http://www.w3.org/2000/svg"><path d="M9.374 6.053a6.268 6.268 0 00-.852 4.84A6.405 6.405 0 0011.41 14.9a6.607 6.607 0 004.93.833 6.511 6.511 0 004.087-2.832 6.306 6.306 0 00.852-4.84 6.405 6.405 0 00-2.887-4.007 6.595 6.595 0 00-4.93-.834 6.511 6.511 0 00-4.087 2.833zm-7.476 4.715A1.293 1.293 0 01.59 9.486c0-.708.582-1.282 1.308-1.282H5.87c.18-1.228.61-2.43 1.3-3.514A9.1 9.1 0 0112.888.728a9.191 9.191 0 016.902 1.166c2.07 1.281 3.504 3.271 4.042 5.61.054.234.054.467.09.7h38.122c.726 0 1.309.574 1.309 1.282 0 .708-.583 1.282-1.309 1.282H23.949a8.768 8.768 0 01-1.3 3.504 9.089 9.089 0 01-5.719 3.971 9.33 9.33 0 01-2.043.224 9.232 9.232 0 01-4.868-1.389c-2.07-1.282-3.504-3.272-4.042-5.611-.054-.224-.054-.466-.09-.7H1.898zM48.832 36.51c3.603 0 6.534-2.877 6.534-6.418 0-3.54-2.931-6.418-6.534-6.418-3.604 0-6.544 2.877-6.544 6.418 0 3.54 2.94 6.418 6.544 6.418zm13.131-7.7c.726 0 1.309.574 1.309 1.282 0 .708-.583 1.282-1.309 1.282H57.85c-.636 4.338-4.419 7.7-9.017 7.7-4.599 0-8.381-3.362-9.018-7.7H1.818a1.293 1.293 0 01-1.309-1.282c0-.708.583-1.282 1.309-1.282h37.996c.637-4.338 4.42-7.7 9.018-7.7 4.598 0 8.38 3.362 9.017 7.7h4.114zM23.68 57.091c3.603 0 6.534-2.877 6.534-6.417 0-3.541-2.93-6.418-6.534-6.418-3.604 0-6.544 2.877-6.544 6.418.01 3.54 2.94 6.417 6.544 6.417zm38.274-7.7c.726 0 1.309.574 1.309 1.283 0 .708-.583 1.281-1.309 1.281H32.697c-.636 4.339-4.419 7.7-9.017 7.7s-8.381-3.361-9.018-7.7H1.81A1.293 1.293 0 01.5 50.674c0-.709.583-1.282 1.309-1.282h12.853c.637-4.339 4.42-7.7 9.018-7.7 4.598 0 8.38 3.361 9.017 7.7h29.257z" fill="#313235" fill-rule="nonzero"/></svg>