<svg width="64" height="64" viewBox="0 0 64 64" xmlns="http://www.w3.org/2000/svg"><path d="M59.222 59.473h-11.15v-17.21l12.36.063v15.3c.01 1.014-.726 1.847-1.21 1.847zm-31.094-.815a12.36 12.36 0 004.051-8.695c.108-2.824-.806-5.522-2.483-7.79l15.731.072v17.22H27.142c.322-.252.654-.503.986-.807zm-11.94 1.631a5.916 5.916 0 01-1.577-.143c-.01 0-1.282-.224-2.42-1.354a4.187 4.187 0 01-.189-5.719h.01a6.893 6.893 0 011.021-.959 7.687 7.687 0 003.057-6.409c.68.377 1.353.843 1.972 1.38 2.518 2.215 4.76 7.736 2.375 10.999-.96 1.309-2.456 2.098-4.087 2.205-.063-.009-.108 0-.162 0zM5.342 55.02C-.565 47.48 4.688 35.262 10.9 30.161a25.742 25.742 0 017.493-4.284c-.672 3.469-.735 9.86 5.934 14.736.923.654 1.766 1.39 2.51 2.196a9.764 9.764 0 012.68 7.054 9.705 9.705 0 01-3.182 6.822 13.504 13.504 0 01-3.388 2.268c2.635-4.572.098-11.017-3.146-13.876-1.524-1.336-3.353-2.33-5.128-2.779a1.343 1.343 0 00-1.613.986 1.34 1.34 0 00.063.816c.009.036 1.38 3.487-1.712 5.907-.511.394-.977.833-1.399 1.309a6.85 6.85 0 00-1.317 6.686 13.324 13.324 0 01-3.353-2.985zm4.85-52.348h10.344V19.73l-11.554-.027V4.518c0-1.013.806-1.847 1.21-1.847zm50.24 1.847v15.31l-12.36-.027V2.68h11.141c.413-.009 1.22.834 1.22 1.838zM23.19 19.738V2.67l22.23.01v17.11l-22.23-.053zm4.49 19.756c-.143 0-.268.035-.385.071a19.1 19.1 0 00-1.425-1.12c-7.807-5.701-4.482-13.652-4.338-13.983a1.327 1.327 0 00-.198-1.39 1.315 1.315 0 00-1.326-.448c-3.73.887-7.557 2.833-10.792 5.477-.081.072-.162.152-.242.224v-5.943l23.86.054V39.52l-5.153-.026zm7.817.035V22.436l24.936.063v17.156l-24.936-.126zM59.222.01L10.201 0C8.175 0 6.328 2.151 6.328 4.518v26.487C.663 37.755-2.77 48.986 3.263 56.668c2.93 3.738 7.556 5.97 12.334 6.265.125.01.25.045.376.045.045 0 .09-.009.144-.009.179 0 .35.027.528.027a16.33 16.33 0 003.72-.421 13.33 13.33 0 002.223-.6c.18.107.386.16.592.16h36.033c2.062 0 3.864-2.106 3.864-4.517v-53.1C63.086 2.15 61.239.009 59.222.009z" fill="#313235" fill-rule="nonzero"/></svg>