<svg width="64" height="64" viewBox="0 0 64 64" xmlns="http://www.w3.org/2000/svg"><path d="M57.537 59.626c-.071 0-.143 0-.224-.01L16.78 59.6h-.036c-1.049 0-1.9-.556-2.33-1.515-.53-1.192-.287-2.788.564-3.71l.027-.028 8.202-8.201a.495.495 0 00.134-.35.623.623 0 00-.197-.43L6.929 29.06c-1.04-1.04-1.56-2.124-1.551-3.218.018-1.085.538-2.133 1.605-3.191l16.152-16.18.027-.026c2.384-2.187 4.222-.368 5.1.502l.01.009 16.537 16.762a.613.613 0 00.43.188c.08 0 .233-.01.35-.135l8.874-8.874.018-.017c.842-.807 2.34-1.04 3.487-.547 1.057.457 1.667 1.425 1.658 2.653v40.318c.054.681-.153 1.291-.583 1.721-.394.404-.914.6-1.506.6zm-40.757-1.81l40.578.017c.027 0 .063 0 .09.009.152.018.269-.009.322-.063.054-.054.081-.179.063-.322 0-.027-.009-.063-.009-.09V16.995c0-.52-.18-.834-.574-1.004-.537-.233-1.237-.08-1.532.188l-8.865 8.865c-.44.44-1.04.673-1.677.655a2.38 2.38 0 01-1.64-.717L26.998 8.22c-1.3-1.291-1.73-1.264-2.608-.466L8.246 23.914c-.708.709-1.066 1.363-1.075 1.955-.01.6.323 1.228 1.022 1.927l16.233 16.296c.439.44.699 1.022.717 1.64a2.276 2.276 0 01-.654 1.676l-8.193 8.193c-.359.403-.475 1.22-.233 1.757.179.403.466.457.708.457h.009z" fill="#313235" fill-rule="nonzero"/></svg>