<svg width="24" height="24" viewBox="0 0 24 24" xmlns="http://www.w3.org/2000/svg"><path d="M8.024 23.69c-.74 0-1.254-.164-1.614-.51-.346-.336-.52-.82-.531-1.486v-.007l.003-8.282c0-.114-.077-.208-.174-.208l-4.222.027c-.629.02-1.19-.293-1.399-.784-.198-.46-.053-.981.397-1.422L11.237.336c.208-.212.41-.316.618-.316h.004c.185 0 .356.084.51.246l10.717 10.76c.453.433.622 1.024.427 1.505-.168.414-.558.659-1.05.659h-.02l-4.534.007c-.097 0-.175.094-.175.208v8.279c.01.629-.168 1.123-.527 1.476-.373.366-.935.548-1.624.527H8.121c-.03 0-.064.004-.097.004zm-1.436-2.006c.007.464.111.787.316.985.229.222.625.323 1.21.313h7.49c.342.01.813-.037 1.109-.327.215-.211.322-.534.316-.96v-8.29c0-.504.396-.914.884-.914l4.537-.007h.017c.195 0 .333-.077.394-.218.063-.162.036-.448-.263-.73-.003-.003-.006-.003-.006-.007L11.866.76l-.007-.006c-.004-.007-.01-.01-.014-.014a.588.588 0 00-.104.091l-.003.004L.985 11.523c-.138.134-.35.396-.246.638.095.219.4.367.73.353h.01l4.229-.027c.487 0 .884.41.884.915l-.004 8.282z" fill="#5CB615" fill-rule="nonzero"/></svg>