<svg width="64" height="64" viewBox="0 0 64 64" xmlns="http://www.w3.org/2000/svg"><path d="M42.481 63.524a1.54 1.54 0 01-1.183-.547L27.18 48.662c-.017-.018-.035-.045-.053-.062a1.647 1.647 0 01-.206-1.757 1.552 1.552 0 011.416-.906l7.18-.062-.018-10.846a3.08 3.08 0 013.074-3.075h7.87a3.08 3.08 0 013.075 3.075l.009 10.855 7.188.062c.601 0 1.139.35 1.408.906a1.65 1.65 0 01-.206 1.756.21.21 0 01-.063.063l-14.19 14.306a1.54 1.54 0 01-1.183.547zM28.776 47.73L42.49 61.624 56.276 47.73l-6.964-.054h-.018a1.598 1.598 0 01-1.551-1.631l-.018-11.007c0-.709-.574-1.282-1.282-1.282h-7.87c-.708 0-1.282.573-1.282 1.282l.018 11.007a1.598 1.598 0 01-1.55 1.631h-.018l-6.965.054zM17.643 32.062a3.08 3.08 0 01-3.074-3.075l-.01-10.846-7.188-.062c-.6 0-1.138-.35-1.407-.906a1.65 1.65 0 01.206-1.757.21.21 0 01.063-.062L20.422 1.048c.25-.296.61-.484.995-.538a1.561 1.561 0 011.371.538l14.118 14.315c.018.017.036.044.054.062.403.502.484 1.166.206 1.757a1.552 1.552 0 01-1.416.905l-7.18.063.018 10.837a3.08 3.08 0 01-3.075 3.075h-7.87zm-1.29-14.082l.008 11.007c0 .708.574 1.282 1.282 1.282h7.87c.708 0 1.282-.574 1.282-1.282l-.018-10.998a1.603 1.603 0 011.55-1.631h.019l6.964-.054L21.596 2.41 7.81 16.286l6.965.054h.018a1.625 1.625 0 011.56 1.64z" fill="#313235" fill-rule="nonzero"/></svg>