<svg width="24" height="24" viewBox="0 0 24 24" xmlns="http://www.w3.org/2000/svg"><path d="M21.576 22.36c-.026 0-.053 0-.084-.004l-15.2-.006H6.28a.926.926 0 01-.874-.568c-.198-.448-.108-1.046.212-1.392l.01-.01 3.076-3.076c.043-.043.05-.1.05-.13a.233.233 0 00-.074-.162l-6.08-6.115c-.39-.39-.586-.796-.582-1.206.007-.407.201-.8.601-1.197l6.058-6.067.01-.01c.894-.82 1.583-.138 1.912.188l.004.003 6.201 6.286c.044.044.101.07.162.07.03 0 .087-.003.13-.05l3.329-3.327.006-.007c.316-.303.878-.39 1.308-.205.396.171.625.534.622.995v15.12a.803.803 0 01-.219.644.765.765 0 01-.565.226zm-15.284-.68l15.217.007c.01 0 .024 0 .034.004.057.006.1-.004.12-.024.021-.02.031-.067.024-.12l-.003-.034V6.373c0-.195-.067-.312-.215-.376-.202-.088-.464-.03-.575.07L17.57 9.392a.848.848 0 01-.629.245.892.892 0 01-.615-.269l-6.202-6.286c-.487-.484-.648-.474-.978-.174l-6.054 6.06c-.265.266-.4.511-.403.733-.003.225.121.46.383.723l6.088 6.11a.907.907 0 01.269.616.854.854 0 01-.246.628L6.111 20.85c-.135.152-.178.458-.087.66.067.15.174.17.265.17h.003z" fill="#313235" fill-rule="nonzero"/></svg>