<svg width="64" height="64" viewBox="0 0 64 64" xmlns="http://www.w3.org/2000/svg"><path d="M31.805 63.626h-.01c-.492 0-.95-.224-1.362-.655L1.857 34.28C.638 33.123.19 31.545.72 30.254c.457-1.12 1.515-1.775 2.841-1.757l12.092-.018c.26 0 .466-.25.466-.555V5.846c-.026-1.676.449-2.994 1.408-3.935.995-.977 2.492-1.46 4.33-1.407h19.898c2.107-.036 3.559.394 4.563 1.363.923.896 1.39 2.187 1.416 3.961v.018l-.009 22.087c0 .304.206.555.466.555l11.258-.071c1.677-.054 3.173.78 3.73 2.088.528 1.228.143 2.618-1.058 3.792L33.454 62.783c-.547.565-1.094.843-1.65.843zM3.507 30.38c-.52 0-.888.206-1.04.582-.18.43-.099 1.192.699 1.945l.018.018 28.594 28.72.018.018c.009.018.027.026.036.035a1.57 1.57 0 00.277-.242l.01-.009 28.674-28.504c.367-.358.932-1.057.654-1.703-.25-.582-1.066-.977-1.945-.941h-.027l-11.276.072c-1.3 0-2.357-1.094-2.357-2.438l.009-22.078c-.018-1.237-.296-2.097-.843-2.626-.61-.592-1.667-.86-3.227-.834h-19.98c-.914-.027-2.169.099-2.958.87-.573.565-.86 1.425-.842 2.563v22.105c0 1.344-1.058 2.438-2.358 2.438l-12.1.018h-.018c.009-.01-.01-.01-.018-.01z" fill="#313235" fill-rule="nonzero"/></svg>