<svg width="64" height="64" viewBox="0 0 64 64" xmlns="http://www.w3.org/2000/svg"><path d="M31.31 63.175h-.01c-.492 0-.95-.224-1.362-.654L1.362 33.829C.143 32.672-.305 31.095.224 29.804c.457-1.12 1.515-1.775 2.842-1.757l12.091-.018c.26 0 .467-.25.467-.556V5.396c-.027-1.676.448-2.994 1.407-3.935C18.026.484 19.523 0 21.36.054h19.898c2.107-.036 3.559.394 4.563 1.362.923.897 1.39 2.187 1.416 3.962v.018l-.009 22.086c0 .305.206.556.466.556l11.259-.072c1.676-.053 3.173.78 3.728 2.089.53 1.228.144 2.617-1.057 3.791L32.959 62.333c-.547.564-1.093.842-1.65.842zM3.012 29.93c-.52 0-.888.207-1.04.583-.18.43-.099 1.192.7 1.945l.017.018 28.594 28.72.018.017c.009.018.027.027.036.036a1.57 1.57 0 00.278-.242l.009-.009 28.674-28.504c.368-.359.932-1.058.654-1.703-.25-.583-1.066-.977-1.945-.941h-.027l-11.276.071c-1.3 0-2.357-1.093-2.357-2.438l.009-22.077c-.018-1.237-.296-2.097-.843-2.626-.61-.592-1.667-.86-3.227-.834h-19.98c-.914-.027-2.169.099-2.958.87-.573.564-.86 1.425-.842 2.563v22.104c0 1.345-1.058 2.438-2.358 2.438l-12.1.018H3.03c.009-.009-.01-.009-.018-.009z" fill="#313235" fill-rule="nonzero"/></svg>