<svg width="64" height="64" xmlns="http://www.w3.org/2000/svg"><path d="M40.426 59.357L38.346 49.3c4.106-1.264 8.892-4.168 10.918-10.72l10.093 2.079c-2.95 12.334-11.868 16.977-18.931 18.698m-7.53 1.004c-.932.018-1.864.018-2.796.009a35.385 35.385 0 01-4.957-.457l2.061-9.977c1.336.233 2.68.35 4.034.35.394 0 .789-.01 1.13-.01a22.191 22.191 0 003.442-.358l2.061 9.986a37.27 37.27 0 01-4.975.457M3.666 40.659l10.03-2.07c1.802 5.87 5.79 8.82 9.547 10.272.475.179.932.313 1.398.448l-2.08 10.075c-2.689-.655-5.683-1.703-8.506-3.487-5.351-3.37-8.793-8.498-10.389-15.238m-.591-15.355l9.967 2.062a27.145 27.145 0 00-.323 4.07c0 1.693.18 3.181.422 4.589l-9.968 2.061a41.9 41.9 0 01-.538-6.696c-.009-2.15.17-4.159.44-6.086M13.947 7.001c2.833-1.784 5.827-2.824 8.525-3.451l2.088 10.075c-4.186 1.264-9.053 4.248-10.971 11.177l-10.075-2.08c1.515-7.009 4.983-12.288 10.433-15.721m15.91-4.375h.539c.797 0 1.63.01 2.348.027 1.12.027 2.976.162 5.172.547l-2.053 9.94a24.106 24.106 0 00-3.594-.403c-.44-.009-.941-.018-1.425-.018h-.35a22.918 22.918 0 00-3.406.314L25.026 3.03a34.53 34.53 0 014.832-.404m2.447 45.015c-.323.01-.7.01-1.076.01h-.547a19.292 19.292 0 01-6.48-1.238c-5.871-2.276-8.856-7.314-8.856-14.978 0-14.404 10.622-16.062 15.193-16.098h.332c.466 0 .95.009 1.362.009 4.643.116 15.435 1.918 15.435 16.197C47.65 45.822 36.921 47.56 32.305 47.64m27.097-24.9l-10.048 2.07c-1.955-6.714-6.777-9.716-10.945-11.034l2.07-10.012c2.645.672 5.558 1.73 8.337 3.469 5.503 3.433 9.017 8.65 10.586 15.507m-9.475 4.634l9.95-2.062c.296 1.981.493 4.043.493 6.266 0 2.384-.224 4.5-.547 6.507l-9.95-2.052c.27-1.48.404-2.985.404-4.482 0-1.533-.144-2.895-.35-4.177M32.816.035C32.072.019 31.22 0 30.396 0h-.565C23.51.054 0 2.223 0 31.4c0 29.212 23.727 31.506 30.055 31.596.959.009 1.918.009 2.886-.009 6.015-.107 30.064-2.366 30.064-31.4C62.996 2.618 38.983.18 32.815.037" fill="#313235" fill-rule="nonzero"/></svg>