<svg width="24" height="24" viewBox="0 0 24 24" xmlns="http://www.w3.org/2000/svg"><path d="M12.403 20.1v-2.866a.492.492 0 00-.494-.491.492.492 0 00-.494.49v2.875c-1.889-.044-7.422-.78-7.855-7.537h2.894a.492.492 0 00.494-.49.492.492 0 00-.494-.491H3.523C3.6 4.1 9.539 3.429 11.415 3.405V6.39c0 .272.222.49.494.49a.492.492 0 00.494-.49V3.415c1.997.074 7.782.928 7.89 8.172h-3.056a.494.494 0 00-.494.49c0 .273.222.491.494.491h3.025c-.413 6.73-5.96 7.482-7.859 7.533m10.76-8.514h-1.886c-.114-8.337-7.19-9.093-8.877-9.157V.49a.492.492 0 00-.494-.49.492.492 0 00-.494.49v1.93c-1.516.014-8.797.555-8.88 9.167H.52a.494.494 0 00-.494.49c0 .27.222.491.494.491h2.047c.467 7.842 7.257 8.48 8.84 8.521v2.04c0 .273.222.491.495.491a.492.492 0 00.494-.49v-2.048c1.586-.043 8.4-.702 8.843-8.517h1.916a.492.492 0 00.495-.491.484.484 0 00-.488-.487" fill="#313235" fill-rule="nonzero"/></svg>