<svg width="64" height="64" xmlns="http://www.w3.org/2000/svg"><path d="M33.076 53.602v-7.646c0-.726-.592-1.308-1.318-1.308-.726 0-1.318.582-1.318 1.308v7.664c-5.037-.116-19.791-2.08-20.948-20.096h7.718c.726 0 1.318-.583 1.318-1.309s-.592-1.309-1.318-1.309H9.394C9.6 10.936 25.439 9.143 30.44 9.08v7.96c0 .726.592 1.308 1.318 1.308.726 0 1.318-.582 1.318-1.308V9.107c5.324.197 20.75 2.474 21.037 21.79h-8.148c-.726 0-1.317.592-1.317 1.31 0 .725.591 1.308 1.317 1.308h8.067C52.93 51.46 38.14 53.468 33.076 53.602m28.692-22.705H56.74C56.435 8.667 37.566 6.651 33.067 6.481V1.309C33.067.583 32.475 0 31.749 0c-.726 0-1.318.583-1.318 1.309v5.145C26.39 6.49 6.974 7.933 6.75 30.897H1.39c-.727 0-1.318.592-1.318 1.31 0 .716.591 1.308 1.317 1.308h5.46C8.093 54.427 26.2 56.13 30.421 56.238v5.44c0 .726.592 1.31 1.318 1.31.726 0 1.318-.584 1.318-1.31V56.22c4.23-.117 22.4-1.874 23.583-22.714h5.11c.725 0 1.317-.583 1.317-1.309.018-.708-.574-1.3-1.3-1.3" fill="#313235" fill-rule="nonzero"/></svg>