<svg width="24" height="24" viewBox="0 0 24 24" xmlns="http://www.w3.org/2000/svg"><path d="M21.103 15.039c1.018-.02 1.536-.568 1.536-1.63 0-1.066-.521-1.62-1.55-1.644l-.171-.004h-.044c-1.002.01-1.51.555-1.51 1.63 0 1.08.515 1.63 1.53 1.648h.209zM5.28 14.534v.945h1.411v-.958a8.575 8.575 0 01-1.411.013zM.995 8.306c.138 3.499 1.792 5.27 4.921 5.27 3.126 0 4.78-1.771 4.921-5.27h-.958c-.151 2.659-1.58 4.175-3.963 4.175-2.387 0-3.808-1.513-3.963-4.175H.995zm20.514 2.518c.763.114 2.115.594 2.115 2.588 0 2.417-2 2.605-2.498 2.615h-.242c-.524-.007-2.497-.198-2.497-2.632 0-2.054 1.388-2.498 2.137-2.588V8.75c0-2.347-1.768-2.642-2.527-2.66-.088-.003-.192 0-.28-.003-.749.007-2.487.28-2.487 2.646l.004.094v9.93c0 4.547-3.883 4.85-4.663 4.863-.077.004-.171.004-.262.004h-.154c-2.256-.034-4.666-1.338-4.666-4.895v-2.262h-.561c-.343 0-.632-.306-.632-.665v-1.409C1.516 13.778 0 11.5 0 7.812c0-.273.222-.491.49-.491h.465v-4.1C.95 3.085.928 1.723 1.684.944c.333-.343.79-.535 1.27-.528C3.147.04 3.56 0 3.695 0h.084c.175.003.854.074.854.894 0 .82-.68.888-.85.888H3.7c-.131-.004-.525-.04-.73-.387-.003 0-.006.003-.013.003a.743.743 0 00-.571.229c-.394.417-.458 1.3-.448 1.576v4.115h.491c.273 0 .491.221.491.49 0 1.681.518 3.681 2.995 3.681 2.474 0 2.995-2.003 2.995-3.68 0-.273.222-.491.49-.491h.559V3.22c.01-.316-.057-1.183-.454-1.593a.74.74 0 00-.572-.225l-.013-.004c-.202.343-.595.384-.726.384h-.08c-.169-.004-.851-.068-.851-.888 0-.823.679-.89.854-.894h.084c.134 0 .548.04.743.417.497.003.937.185 1.27.528.756.783.733 2.14.73 2.292v4.08h.393c.272 0 .49.222.49.491 0 3.627-1.462 5.89-4.15 6.545v1.445c0 .36-.29.666-.633.666h-.571v2.262c0 3.479 2.581 3.892 3.694 3.91.128.003.266 0 .383-.004.867-.017 3.698-.343 3.698-3.88l-.004-10.01c0-2.665 1.789-3.626 3.463-3.64.1.004.221 0 .316.004 1.684.04 3.485 1.018 3.485 3.644v2.074zm-.437 1.912c.131.003.636.054.636.666 0 .615-.508.662-.632.665h-.06c-.135-.003-.636-.05-.636-.669 0-.615.497-.662.628-.662h.064z" fill="#313235" fill-rule="nonzero"/></svg>