<svg width="24" height="24" viewBox="0 0 24 24" xmlns="http://www.w3.org/2000/svg"><path d="M10.89 17.375c1.513 0 2.676.396 3.453 1.183.776.787 1.173 1.95 1.173 3.472v1.25a.336.336 0 01-.336.333H.336A.337.337 0 010 23.277v-1.25c0-1.52.393-2.69 1.173-3.472.78-.784 1.94-1.18 3.452-1.18h6.266zm0 .672H4.626c-1.328 0-2.33.33-2.978.982-.649.652-.975 1.663-.975 2.998v.914h14.172v-.914c0-1.338-.33-2.346-.975-2.998-.645-.653-1.65-.982-2.978-.982zM7.759 7.866c1.361 0 2.417.386 3.136 1.15.68.718 1.025 1.734 1.025 3.014 0 1.28-.346 2.293-1.025 3.015-.72.76-1.775 1.147-3.136 1.147-1.361 0-2.417-.387-3.136-1.15-.683-.72-1.025-1.731-1.025-3.012 0-1.28.346-2.292 1.025-3.015.72-.763 1.775-1.15 3.136-1.15zm0 .672c-2.884 0-3.49 1.899-3.49 3.492 0 2.884 1.9 3.49 3.49 3.49 2.884 0 3.49-1.9 3.49-3.49 0-1.59-.606-3.492-3.49-3.492zM22.013 0a1.6 1.6 0 011.6 1.6v4.682a1.6 1.6 0 01-1.6 1.6h-5.109c-.396.592-1.163 1.742-1.207 1.812-.094.141-.322.494-.692.494a.619.619 0 01-.11-.01c-.435-.077-.472-.45-.475-.624V7.882h-.467c-.854 0-1.5-.689-1.5-1.6V1.6c0-.884.72-1.6 1.6-1.6h7.96zm0 .672h-7.96a.927.927 0 00-.927.928v4.682c0 .548.34.928.827.928h.803c.185 0 .336.151.336.336v1.839c.01-.017.024-.034.037-.054.064-.1 1.264-1.896 1.315-1.97a.328.328 0 01.279-.148h5.29a.93.93 0 00.928-.927V1.6a.93.93 0 00-.928-.928zm-6.601 2.286a.991.991 0 110 1.983.991.991 0 010-1.983zm2.622 0a.991.991 0 110 1.983.991.991 0 010-1.983zm2.621 0a.991.991 0 11.001 1.983.991.991 0 010-1.983z" fill="#313235" fill-rule="nonzero"/></svg>