<svg width="64" height="64" xmlns="http://www.w3.org/2000/svg"><path d="M49.896 54.418a22.755 22.755 0 01-8.22 4.769c.323-.35.628-.709.914-1.094 5.119-6.956.924-17.631-4.338-22.23-2.366-2.061-5.18-3.576-7.924-4.275a1.315 1.315 0 10-1.55 1.774c.026.063 2.456 6.15-3.012 10.407a14.594 14.594 0 00-2.142 2 10.1 10.1 0 00-.915 12.136c-3.065-1.488-5.781-3.595-7.879-6.248-9.824-12.441-1.174-32.529 9.107-40.892 4.132-3.37 8.928-5.96 13.715-7.448-1.246 4.84-2.456 15.892 8.927 24.13a27.558 27.558 0 014.177 3.612c3.093 3.272 4.706 7.493 4.545 11.877-.17 4.374-2.089 8.452-5.405 11.482M30.3 60.155c-.018 0-2.303-.395-4.347-2.385a7.47 7.47 0 01-.34-10.272 12.311 12.311 0 011.765-1.64c4.285-3.335 4.94-7.799 4.5-10.963a18.372 18.372 0 014.643 2.95c4.401 3.836 8.121 13.023 3.953 18.688-1.676 2.268-4.32 3.649-7.126 3.855-.278-.01-.556.018-.834.009-.09 0-.179 0-.269-.01-.645-.035-1.281-.152-1.918-.232h-.027m22.365-30.898a31.257 31.257 0 00-4.554-3.944c-13.15-9.528-7.511-22.812-7.27-23.377a1.316 1.316 0 00-.188-1.371 1.264 1.264 0 00-1.308-.44C33.439 1.524 27.37 4.571 22.27 8.722 5.4 22.445 5.374 43.922 12.769 53.289c4.329 5.476 11.034 8.91 18.097 9.644.592.09 1.174.144 1.766.144.143 0 .86.009 1.085.009a26.63 26.63 0 005.88-.655c.26-.035 6.435-.932 12.065-6.068 3.845-3.514 6.068-8.246 6.256-13.32.197-5.1-1.676-9.994-5.252-13.786" fill="#313235" fill-rule="nonzero"/></svg>