<svg width="64" height="64" xmlns="http://www.w3.org/2000/svg"><path d="M59.375 53.71c.663-.968 2.061-3.846-.556-8.802-3.55-6.777-10.308-7.27-10.604-7.288a1.372 1.372 0 01-1.093-.699c-.242-.457-6.41-11.303-21.549-11.303-7.556 0-12.71 3.63-15.731 6.669-4.643 4.715-7.045 10.846-7.027 14.45-.162 3.2.08 5.646.268 6.964H8.13c.502-4.141 3.361-6.67 7.798-6.67 4.41 0 7.288 2.529 7.799 6.67H36.06c.51-4.114 3.36-6.642 7.77-6.642 4.438 0 7.288 2.537 7.8 6.642 0 .009 7.744.009 7.744.009zm-15.543 6.597c3.442 0 5.235-1.829 5.235-5.28 0-3.442-1.784-5.27-5.235-5.27-3.424 0-5.208 1.828-5.208 5.28 0 3.441 1.793 5.27 5.208 5.27zm-27.904-.027c3.415 0 5.235-1.828 5.235-5.28 0-3.45-1.81-5.27-5.235-5.27-3.415 0-5.234 1.829-5.234 5.27 0 3.443 1.82 5.28 5.234 5.28zM40.82 2.69c-12.98 0-19.576 6.623-19.576 19.728 0 .323.027.618.027.914a24.71 24.71 0 014.302-.403c14.817 0 21.898 9.52 23.52 12.083 1.184.161 3.64.753 6.203 2.312 3.389-3.253 5.128-8.282 5.128-14.906-.01-13.105-6.607-19.729-19.604-19.729zm16.663 36.248a17.652 17.652 0 013.711 4.706c4.186 7.995-.08 12.217-.269 12.378a1.275 1.275 0 01-.905.377h-8.39c-.51 4.096-3.397 6.597-7.798 6.597-4.383 0-7.26-2.5-7.771-6.597H23.727c-.538 4.114-3.335 6.57-7.799 6.57S8.641 60.522 8.13 56.4H1.936c-.618 0-1.156-.44-1.282-1.049-.053-.134-.77-3.523-.51-8.659-.027-3.962 2.41-10.819 7.798-16.278 2.357-2.366 5.907-5.055 10.684-6.453-.027-.511-.053-1.022-.053-1.533C18.573 7.754 26.263 0 40.82 0c14.548 0 22.266 7.754 22.266 22.418 0 7.18-1.918 12.728-5.603 16.52zM47.22 25.188c-.25.26-.6.403-.959.403a1.387 1.387 0 01-.941-.403l-5.63-5.674a1.32 1.32 0 01-.403-.968v-7.7A1.33 1.33 0 0140.623 9.5c.753 0 1.336.592 1.336 1.345v7.162l5.261 5.28a1.37 1.37 0 010 1.9z" fill="#313235" fill-rule="nonzero"/></svg>