<svg width="24" height="24" viewBox="0 0 24 24" xmlns="http://www.w3.org/2000/svg"><path d="M18.393 20.998c-1.183.747-2.45 1.153-3.546 1.378.014-.06.02-.124.04-.184l1.005-3.09c.091-.292.283-.557.548-.746.26-.188.562-.269.888-.285h3.25c.192 0 .377.047.551.117a8.288 8.288 0 01-2.736 2.81zm-5.966 1.64h-.225c-.293 0-.599-.003-.86-.01-.38-.01-.986-.046-1.708-.16a2.523 2.523 0 00-.115-.633L8.518 18.76c-.111-.35-.3-.67-.555-.935l.918-1.388c.376.232.81.363 1.27.363h3.278c.44 0 .86-.121 1.226-.33l.854 1.392a2.442 2.442 0 00-.561.941l-.995 3.08a2.554 2.554 0 00-.114.655c-.589.07-1.086.097-1.412.1zm-9.91-4.57c.118-.031.243-.055.39-.055h3.248c.299.027.618.098.88.286.262.188.454.457.548.756l1.005 3.086c.014.037.014.077.024.118-1.036-.249-2.199-.656-3.294-1.345a8.525 8.525 0 01-2.8-2.847zM2.935 4.87c.105.137.185.289.24.457l1.004 3.089a1.497 1.497 0 01-.548 1.677L1.005 12c-.003.003-.007.003-.01.007 0-.078-.01-.152-.01-.232 0-3.11.793-5.325 1.95-6.904zm4.172-3.09c.168.26.363.495.618.676l2.619 1.903c.286.211.622.353.978.427V6.89c-.353.06-.686.198-.975.41L7.724 9.203a2.495 2.495 0 00-.732.834L5.21 9.213c.05-.376.02-.756-.097-1.105L4.11 5.025c-.111-.343-.3-.659-.545-.92 1.06-1.137 2.32-1.863 3.54-2.323zm4.181-.79c.35-.006.7-.006 1.05-.003.618.01 1.831.088 3.202.464-.07.074-.134.151-.218.212l-2.629 1.91c-.49.369-1.263.372-1.768-.004L8.3 1.66a1.43 1.43 0 01-.205-.198 13.004 13.004 0 013.193-.47zm8.79 3.117a2.474 2.474 0 00-.618.998l-1.002 3.076c-.118.352-.151.729-.1 1.099l-1.742.732a2.487 2.487 0 00-.712-.806l-2.616-1.9a2.32 2.32 0 00-.978-.413V4.79c.353-.07.693-.212.972-.424l2.618-1.902c.262-.185.46-.43.629-.693a9.99 9.99 0 011.828.898c.649.403 1.217.89 1.721 1.439zM8.757 14.78l-.112-.34h-.003l-.89-2.753A1.496 1.496 0 018.301 10l2.63-1.91c.486-.369 1.26-.372 1.767.004L15.324 10c.535.383.757 1.062.552 1.687l-1.005 3.08a1.51 1.51 0 01-1.436 1.045h-3.25c-.629.037-1.22-.404-1.429-1.032zm-1.59 2.47a2.139 2.139 0 00-1.02-.218H2.912a2.653 2.653 0 00-.867.171c-.552-1.186-.884-2.561-1.002-4.107.192-.078.376-.175.545-.296l2.615-1.903c.275-.194.504-.457.679-.75l1.828.845a2.47 2.47 0 00.108 1.001l1.116 3.432h.03c.057.114.138.205.208.31-.003 0-1.005 1.515-1.005 1.515zm9.156.05l-.911-1.485c.168-.218.302-.467.393-.743l1.002-3.079c.114-.343.14-.699.104-1.042l1.765-.743c.178.303.406.568.682.763l2.622 1.903c.185.134.39.235.605.316-.118 1.553-.444 2.928-.982 4.11a2.446 2.446 0 00-1.021-.224h-3.248a3.14 3.14 0 00-1.011.225zm6.306-5.179c-.024-.013-.047-.024-.068-.04l-2.628-1.906a1.47 1.47 0 01-.545-.75 1.47 1.47 0 010-.93l1.002-3.087c.064-.198.175-.37.31-.524 1.28 1.768 1.939 4.087 1.939 6.968 0 .09-.007.178-.01.269zM12.353.003c-.36-.003-.72-.003-1.08.004C9.019.047 0 .894 0 11.782c0 10.86 9.005 11.774 11.318 11.831.269.007.581.01.884.01h.235c2.373-.02 11.187-.833 11.187-11.774C23.624.894 14.726.037 12.353.003z" fill="#5CB615" fill-rule="nonzero"/></svg>