<svg width="64" height="64" viewBox="0 0 64 64" xmlns="http://www.w3.org/2000/svg"><path d="M54.732 26.452c2.554-.054 5.602-1.112 5.602-5.916 0-4.805-3.075-5.89-5.647-5.952l-.6-.01h-.126c-2.519.028-5.522 1.067-5.522 5.908 0 4.867 3.039 5.925 5.593 5.96l.7.01zM35.325 59.15V3.908c0-.556-.708-1.219-1.308-1.219H3.944c-.6 0-1.309.654-1.309 1.22V59.15c0 .61.664 1.219 1.309 1.219l30.073.009c.645-.01 1.308-.619 1.308-1.228zM62.97 20.724l.027 33.748c0 6.176-4.419 8.452-8.202 8.515l-.457.01h-.278c-3.944-.055-8.183-2.34-8.183-8.57V41.779a5.677 5.677 0 00-5.692-5.665h-2.232V59.16c0 2.043-1.838 3.845-3.935 3.845H3.944C1.846 63.005 0 61.203 0 59.16V3.908C0 1.891 1.882.063 3.944.063h30.073c2.061 0 3.944 1.828 3.944 3.845V33.48h2.232c4.59 0 8.309 3.71 8.318 8.3v12.648c0 5.288 3.926 5.916 5.62 5.943h.619c1.694-.036 5.62-.673 5.62-5.898l-.018-27.357c-2.017 1.72-4.625 1.945-5.576 1.963h-.788c-1.721-.027-8.193-.646-8.193-8.587 0-7.933 6.4-8.525 8.13-8.543h.152l.502.01-9.734-9.717a1.315 1.315 0 010-1.856c.51-.51 1.344-.51 1.855 0l13.204 13.177c.035.027.044.072.071.099 1.632 1.219 2.985 3.298 2.985 6.875l-.009.09c.01.035.018.062.018.098zm-35.505.833V11.464c0-.242-.16-.484-.25-.537l-16.189.027c.054.026-.107.26-.107.51v10.093c0 .251.125.44.197.511h16.25c-.062-.027.1-.233.1-.51zm-.107-13.23c1.46 0 2.743 1.461 2.743 3.137v10.093c0 1.695-1.255 3.138-2.743 3.138H11.025c-1.488 0-2.743-1.434-2.743-3.138V11.455c0-1.667 1.282-3.137 2.743-3.137l16.332.01z" fill="#313235" fill-rule="nonzero"/></svg>