<svg width="24" height="24" viewBox="0 0 24 24" xmlns="http://www.w3.org/2000/svg"><path d="M20.524 9.92c.958-.02 2.101-.417 2.101-2.22 0-1.8-1.153-2.208-2.117-2.231l-.226-.003h-.047c-.944.01-2.07.4-2.07 2.215 0 1.825 1.14 2.222 2.097 2.235l.262.003zm-7.277 12.262V1.466c0-.209-.265-.458-.49-.458H1.478c-.225 0-.49.246-.49.458v20.716c0 .228.248.457.49.457l11.277.003c.242-.003.491-.232.491-.46zm10.366-14.41l.01 12.655c0 2.316-1.657 3.17-3.075 3.193l-.172.004h-.104c-1.479-.02-3.069-.878-3.069-3.214v-4.743a2.129 2.129 0 00-2.134-2.124h-.837v8.642c0 .766-.69 1.442-1.476 1.442H1.48C.692 23.627 0 22.95 0 22.185V1.465C0 .71.706.025 1.479.025h11.277c.773 0 1.48.685 1.48 1.442v11.089h.836a3.118 3.118 0 013.12 3.112v4.743c0 1.983 1.472 2.219 2.107 2.229h.232c.635-.014 2.108-.252 2.108-2.212l-.007-10.259c-.756.645-1.735.73-2.09.736h-.297c-.645-.01-3.072-.242-3.072-3.22 0-2.975 2.4-3.197 3.049-3.203h.057l.188.003L16.817.84a.493.493 0 01.696-.695l4.95 4.94c.014.01.018.028.028.038.612.457 1.12 1.237 1.12 2.578l-.004.033c.003.014.006.024.006.037zM10.3 8.083V4.299c0-.09-.06-.181-.094-.202l-6.07.01c.02.01-.04.098-.04.192v3.785c0 .094.046.165.073.192h6.094c-.023-.01.037-.088.037-.192zm-.04-4.961c.548 0 1.028.548 1.028 1.176v3.785c0 .635-.47 1.177-1.028 1.177H4.134c-.558 0-1.028-.538-1.028-1.177V4.296c0-.625.48-1.177 1.028-1.177l6.125.004z" fill="#5CB615" fill-rule="nonzero"/></svg>