<svg width="64" height="64" xmlns="http://www.w3.org/2000/svg"><path d="M13.687 10.676c1.59 0 2.898 1.283 2.99 2.886l.004.18v11.24c.066-.006.12-.028.178-.042l.091-.012h29.096c.06 0 .111.02.166.036l.085.018v-11.24c0-1.634 1.25-2.968 2.818-3.061l.176-.005h3.854c1.59 0 2.898 1.283 2.989 2.886l.005.18v1.917h3.863c1.6 0 2.898 1.276 2.989 2.886l.005.18v25.914c0 1.625-1.242 2.958-2.817 3.051l-.177.005H56.14v1.918c0 1.634-1.25 2.968-2.818 3.06l-.176.006h-3.854c-1.59 0-2.898-1.275-2.989-2.885l-.005-.18v-11.24c-.054.005-.108.027-.164.04l-.087.013H16.95c-.066 0-.12-.02-.177-.036l-.092-.018v11.24c0 1.634-1.25 2.968-2.818 3.06l-.176.006H9.833c-1.59 0-2.897-1.275-2.989-2.885l-.005-.18v-1.919H2.994c-1.6 0-2.898-1.267-2.989-2.876L0 44.639V18.716c0-1.625 1.242-2.958 2.817-3.051l.177-.006h3.845v-1.918c0-1.633 1.25-2.967 2.819-3.06l.175-.005h3.854zm39.467 3.065H49.3v35.872h3.854V13.741zm-39.467 0H9.833v4.93l.009.045V44.63l-.004.027-.005.026v4.93h3.854V13.741zm46.315 4.984h-3.854v25.914h3.854V18.725zm-53.163 0H2.994v25.914h3.845V18.725zm39.207 9.268H16.95v7.368h29.096v-7.368z" fill="#313235" fill-rule="nonzero"/></svg>