<svg width="24" height="24" viewBox="0 0 24 24" xmlns="http://www.w3.org/2000/svg"><path d="M22.42 7.16c-.138.137-.353.215-.649.215h-8.47V7.36c-.296 0-.514-.067-.646-.201-.14-.142-.211-.37-.211-.69 0-.319.07-.547.211-.688.135-.138.35-.206.646-.206h8.464c.296 0 .51.068.648.206.142.14.212.37.212.689.004.319-.064.547-.205.689zm-1.028 6.443a1131.34 1131.34 0 00-.26 5.61c-.023 2.673-.624 3.26-1.656 3.369-.017 0-.034.006-.05.01h-.051c-.158.013-.303.01-.528 0h-2.753a3.069 3.069 0 01-.723-.024c.29-.437.45-.985.619-1.593l.074-.262c.427-.121.797-.313 1.089-.605.51-.508.77-1.24.77-2.172 0-.931-.26-1.66-.77-2.171-.037-.037-.084-.064-.124-.098a2.1 2.1 0 00.477.07h.04c.622 0 1.214-.292 1.768-.866.565-.592.847-1.22.834-1.883-.014-.632-.293-1.24-.837-1.805-.545-.565-1.13-.854-1.738-.864-.652.02-1.244.286-1.808.87-.26.27-.45.549-.589.835a3.531 3.531 0 00-1.647-1.163c-.037-1.043-.07-1.92-.09-2.454h8.195c-.047.964-.145 3.085-.242 5.196zm-6.921 8.505c-.195.235-.481.363-.928.43-.054.01-.098.02-.158.027l-1.15.017c-.289.02-.571.023-.934 0H6.595c-.151.013-1.21.02-1.375.02-1.536 0-1.855-.42-2.279-1.785h12.05c-.17.615-.292 1.022-.52 1.29zm1.448-9.06c-.006-.366.178-.745.545-1.129.363-.376.723-.568 1.075-.568h.014c.343.007.7.195 1.052.562.356.37.541.736.545 1.095.006.37-.175.75-.542 1.133-.36.373-.722.562-1.069.562h-.02c-.34-.007-.695-.195-1.052-.565-.356-.37-.538-.733-.548-1.09zM2.437 19.786c-.417-.05-.746-.188-.982-.424-.305-.306-.46-.786-.46-1.428 0-.642.158-1.123.464-1.429.047-.047.104-.084.158-.124.138.43.383.847.763 1.244.588.608 1.217.917 1.872.917h.04c.64-.013 1.258-.32 1.832-.917.474-.491.75-1.016.844-1.557h8.293c.517.024.924.168 1.196.44.31.306.467.787.467 1.43 0 .638-.158 1.118-.467 1.428-.232.235-.565.37-.985.423H2.437v-.003zm.212-3.718h3.3c-.087.272-.258.551-.527.827-.387.4-.773.609-1.15.615-.36.02-.79-.198-1.19-.615-.265-.276-.437-.551-.52-.82 0-.003 0-.003-.004-.007h.09zm9.912-4.373c.384.034.71.161 1.009.31.948.47 1.502 1.425 1.788 3.031H2.568c.383-2.185 1.254-3.25 2.935-3.354.279-.02 1.119-.017 1.119-.017h4.71c0-.003.923.007 1.23.03zm4.37-7.146V1.644c0-.336.266-.609.619-.609.326 0 .588.273.588.609v2.914H16.93v-.01zm4.837 0c-.659-.007-2.635 0-2.635 0V1.644c0-.905-.71-1.64-1.61-1.64-.874 0-1.584.735-1.584 1.64v2.904h-2.635c-.561 0-1.012.168-1.338.494-.34.343-.514.824-.514 1.432s.175 1.089.514 1.432c.135.134.296.232.471.312l.087 2.414H6.662s-.72.007-.958.017a9.55 9.55 0 00-.443.023c-2.165.219-3.311 1.731-3.725 4.592-.289.124-.548.286-.763.5-.51.512-.766 1.244-.766 2.172 0 .931.259 1.66.77 2.172.295.295.668.487 1.102.608.514 1.761.934 2.908 3.348 2.908h10.618l.286-.004h2.686l.312.004c.047-.004.286-.004.286-.004h.124s.115.007.152.004c2.13-.125 2.427-2.3 2.443-4.39.004-.108.132-2.83.26-5.58.164-3.577.228-4.921.251-5.436.179-.08.34-.178.471-.312.343-.343.518-.824.518-1.432s-.175-1.092-.518-1.435a1.666 1.666 0 00-.85-.437c-.01 0-.374-.054-.498-.054z" fill="#5CB615" fill-rule="nonzero"/></svg>