<svg width="64" height="64" viewBox="0 0 64 64" xmlns="http://www.w3.org/2000/svg"><path d="M45.148 59.875V8.79c0-.26-.834-1.057-2.017-1.057h-9.42c.044.313.08.618.098.94l.027.61-.01.296c-.143 4.177-3.98 5.038-9.689 5.038-5.71 0-9.546-.87-9.699-5.092v-.618l.018-.296c.01-.314.072-.592.108-.878H5.125c-1.183 0-2.017.806-2.017 1.057v51.084c0 .358.879 1.057 2.017 1.057h38.006c1.138 0 2.017-.708 2.017-1.057zM24.119 3.064c-4.661 0-6.902 1.82-7.09 5.727l-.018.493c.045 1.255.099 2.77 7.1 2.77 7 0 7.062-1.515 7.098-2.617v-.422a8.395 8.395 0 00-.35-2.214c-.788-2.518-2.993-3.737-6.74-3.737zM43.122 5.17c2.42 0 4.616 1.73 4.616 3.621v51.084c0 1.972-2.115 3.621-4.616 3.621H5.116c-2.5 0-4.616-1.658-4.616-3.621V8.79c0-1.9 2.205-3.63 4.616-3.63H15.21C16.554 2.141 19.61.5 24.128.5c5.495 0 7.879 2.375 8.9 4.67h10.094zm-21.89 4.715c-.707 0-1.29-.565-1.299-1.282 0-.708.583-1.282 1.3-1.282h5.763c.717 0 1.3.574 1.3 1.282 0 .708-.583 1.282-1.3 1.282h-5.763zM42.45 37.627c.717 0 1.3.574 1.3 1.282 0 .708-.583 1.282-1.3 1.282h-9.161a1.31 1.31 0 01-1.228-.852l-1.578-4.437-1.3 4.374c-.17.547-.672.924-1.245.915h-2.134l-2.088 6.758c-.17.538-.673.906-1.246.906h-.063a1.29 1.29 0 01-1.21-1.031l-3.272-16.135-2.644 8.426c-.17.538-.672.905-1.246.905H5.789a1.291 1.291 0 01-1.3-1.281c0-.708.573-1.282 1.3-1.282h7.287l3.872-12.343c.17-.574.717-.95 1.309-.896a1.29 1.29 0 011.21 1.03l3.263 16.09.86-2.797a1.31 1.31 0 011.246-.905h2.125l2.16-7.27a1.286 1.286 0 011.21-.914 1.29 1.29 0 011.264.852l2.608 7.332 8.247-.009z" fill="#313235" fill-rule="nonzero"/></svg>