<svg width="64" height="64" viewBox="0 0 64 64" xmlns="http://www.w3.org/2000/svg"><path d="M33.387 60.852c6.445-.117 27.483-2.537 27.483-28.764 0-11.357-3.89-19.559-11.545-24.363-6.257-3.926-13.32-4.5-16.072-4.572-.789-.018-1.569-.027-2.357-.027h-.547c-2.734.027-9.744.502-15.91 4.375C6.926 12.224 3.125 20.435 3.125 31.899c0 11.474 3.846 19.711 11.429 24.498 6.22 3.917 13.293 4.428 16.045 4.473.313.009.627.009.94.009l1.847-.027zM33.316.536c6.167.143 30.18 2.581 30.18 31.552 0 29.033-24.04 31.283-30.055 31.4-.573.008-1.237.017-1.9.017-.332 0-.663 0-.986-.009C24.227 63.397.5 61.112.5 31.9.5 2.732 24.011.554 30.33.5h.566a69.5 69.5 0 012.42.036zm12.486 48.52V14.94h-7.79v13.912H25.984V14.94h-7.789v34.116h7.79v-14.36h12.029v14.369l7.789-.01zm0-36.733a2.624 2.624 0 012.626 2.626v34.116a2.624 2.624 0 01-2.626 2.626h-7.79a2.624 2.624 0 01-2.626-2.626V37.322H28.61v11.743a2.624 2.624 0 01-2.627 2.626h-7.78a2.624 2.624 0 01-2.626-2.626V14.94a2.624 2.624 0 012.626-2.626h7.79a2.624 2.624 0 012.626 2.626v11.285h6.776V14.94a2.624 2.624 0 012.627-2.626c-.01.009 7.78.009 7.78.009z" fill="#313235" fill-rule="nonzero"/></svg>