<svg width="64" height="64" xmlns="http://www.w3.org/2000/svg"><path d="M60.37 51.402V11.998c0-.43-.87-1.264-1.918-1.264H4.545c-1.058 0-1.91.762-1.91 1.264L2.626 51.41c0 .502.86 1.264 1.919 1.264H58.46c1.04-.01 1.909-.843 1.909-1.273zm-1.918-43.33c2.384 0 4.544 1.864 4.544 3.917v39.413c0 2.043-2.17 3.917-4.544 3.917H4.536C2.124 55.328 0 53.49 0 51.402l.009-39.413c0-2.089 2.124-3.917 4.545-3.917h53.898zm-42.775 9.985c-2.169 0-3.935 1.784-3.935 3.971 0 2.196 1.766 3.97 3.935 3.97 2.17 0 3.935-1.783 3.935-3.97 0-2.187-1.766-3.97-3.935-3.97zm0 10.604c-3.621 0-6.561-2.976-6.561-6.624 0-3.648 2.94-6.624 6.561-6.624 3.622 0 6.562 2.976 6.562 6.624 0 3.648-2.94 6.624-6.562 6.624zm29.786-2.447l10.39 8.022c.573.449.69 1.282.25 1.865-.43.574-1.255.69-1.828.25l-.01-.008-9.582-7.395-11.222 9.017 6.857 6.526c.53.502.556 1.344.054 1.873a1.302 1.302 0 01-1.838.072l-.017-.018-11.223-10.676-16 13.446a1.297 1.297 0 01-1.837-.162l-.01-.009a1.33 1.33 0 01.17-1.864l16.888-14.207a1.303 1.303 0 011.74.053l3.28 3.12 12.325-9.887a1.306 1.306 0 011.613-.018z" fill="#313235" fill-rule="nonzero"/></svg>