<svg width="24" height="24" viewBox="0 0 24 24" xmlns="http://www.w3.org/2000/svg"><path d="M22.639 19.276V4.499c0-.161-.326-.474-.72-.474H1.704c-.396 0-.716.286-.716.474L.985 19.28c0 .188.323.474.72.474h20.218c.39-.003.716-.316.716-.477zm-.72-16.25c.894 0 1.705.7 1.705 1.47v14.78c0 .766-.814 1.469-1.705 1.469H1.701C.797 20.748 0 20.059 0 19.275l.003-14.78c0-.782.797-1.468 1.705-1.468h20.211zM5.88 6.772c-.813 0-1.476.67-1.476 1.49 0 .823.663 1.489 1.476 1.489s1.476-.67 1.476-1.49-.663-1.489-1.476-1.489zm0 3.977c-1.358 0-2.46-1.116-2.46-2.484 0-1.368 1.102-2.484 2.46-2.484 1.358 0 2.46 1.116 2.46 2.484 0 1.368-1.102 2.484-2.46 2.484zm11.17-.918l3.896 3.009c.215.168.258.48.094.699a.488.488 0 01-.686.094l-.003-.003-3.594-2.774-4.208 3.382 2.571 2.447a.498.498 0 01.02.703.488.488 0 01-.689.026l-.006-.006-4.209-4.004-6 5.042a.486.486 0 01-.689-.06l-.003-.003a.499.499 0 01.064-.7l6.332-5.327a.488.488 0 01.653.02l1.23 1.17 4.622-3.708a.49.49 0 01.605-.007z" fill="#5CB615" fill-rule="nonzero"/></svg>