<svg width="64" height="64" viewBox="0 0 64 64" xmlns="http://www.w3.org/2000/svg"><path d="M32.843 10.496c2.984 0 4.76 1.784 4.76 4.778v10.738c.716-.466 1.63-.717 2.706-.717 2.636 0 4.276 1.47 4.482 3.971.717-.475 1.64-.726 2.734-.726 2.644 0 4.285 1.488 4.482 4.007.717-.475 1.64-.726 2.725-.726 2.823 0 4.5 1.694 4.5 4.517v19.227c0 2.313-.637 4.132-1.892 5.414s-3.254 1.99-5.611 1.99H31.095c-1.318 0-2.008-1.093-2.564-2.268-.242-.52-.842-1.82-1.676-3.62-2.384-5.164-6.83-14.773-9.062-19.479-1.067-2.24-.27-3.98.833-4.85 1.435-1.146 3.577-1.102 5.092.09 1.111.879 2.15 2.842 3.253 4.93.18.341.359.682.547 1.022.233.43.421.637.538.744.024-.077.04-.155.045-.235v-.251l-.001-.09v-.226-.136l-.002-.69V35.918 28.65v-4.853-.39l.001-3.287v-.332l.001-2.563V15.22c.198-3.047 1.883-4.724 4.743-4.724zm.009 1.784c-1.928 0-2.815.905-2.958 3.02v1.294l-.002 2.815v3.406l-.002 3.842V36.74l.001 1.23v.202l.001.509v.135l.001.296v.06c0 1.12-.537 1.98-1.38 2.196-.547.134-1.604.099-2.581-1.721-.18-.34-.368-.69-.547-1.03-.968-1.83-1.972-3.72-2.779-4.357a2.595 2.595 0 00-1.568-.556 2.052 2.052 0 00-1.31.448c-.734.583-.86 1.569-.322 2.68 2.232 4.715 6.687 14.333 9.071 19.496.834 1.802 1.434 3.102 1.677 3.612.544 1.167.806 1.225.916 1.228h20.65c1.873 0 3.415-.52 4.338-1.46.924-.942 1.38-2.34 1.38-4.169v-19.2c0-1.837-.887-2.725-2.706-2.725-1.82 0-2.707.897-2.707 2.725h-1.793v-3.28c0-1.838-.887-2.725-2.707-2.725-1.82 0-2.707.896-2.707 2.725h-1.793v-3.245c0-1.838-.887-2.725-2.707-2.725-1.82 0-2.707.896-2.707 2.725h-1.793V15.265c0-2.008-.968-2.985-2.966-2.985zM10.12 20.966c2.976 0 4.76 1.784 4.76 4.777 0 1.48-.413 2.645-1.228 3.487-.816.843-2.053 1.309-3.532 1.309-1.48 0-2.707-.448-3.532-1.3-.824-.851-1.228-2.008-1.228-3.487 0-2.993 1.784-4.786 4.76-4.786zm11.366.009c2.976 0 4.76 1.784 4.76 4.777 0 1.48-.413 2.645-1.229 3.487-.815.843-2.052 1.3-3.531 1.3-1.48 0-2.698-.448-3.532-1.3-.834-.851-1.228-2.008-1.228-3.487 0-2.993 1.784-4.777 4.76-4.777zM10.12 22.768c-1.999 0-2.967.977-2.967 2.984 0 .986.242 1.74.717 2.232.475.493 1.246.753 2.25.753s1.757-.25 2.25-.753c.493-.502.717-1.237.717-2.232 0-2.007-.968-2.984-2.967-2.984zm11.366 0c-2 0-2.967.977-2.967 2.984 0 .986.242 1.74.717 2.232.475.493 1.246.753 2.25.753s1.757-.25 2.25-.753c.493-.502.717-1.237.717-2.232 0-2.007-.968-2.984-2.967-2.984zM10.12 10.488c2.976 0 4.76 1.783 4.76 4.777 0 1.479-.413 2.644-1.228 3.487-.816.842-2.053 1.3-3.532 1.3-1.48 0-2.707-.449-3.532-1.3-.824-.852-1.228-2.008-1.228-3.487 0-2.994 1.784-4.778 4.76-4.778zm11.366 0c2.976 0 4.76 1.783 4.76 4.777 0 1.479-.413 2.644-1.229 3.487-.815.842-2.052 1.3-3.531 1.3-1.48 0-2.698-.449-3.532-1.3-.834-.852-1.228-2.008-1.228-3.487 0-2.994 1.784-4.778 4.76-4.778zM10.12 12.28c-1.999 0-2.967.977-2.967 2.985 0 .995.242 1.739.717 2.232.475.493 1.246.753 2.25.753s1.757-.251 2.25-.753c.493-.502.717-1.246.717-2.232 0-2.008-.968-2.985-2.967-2.985zm11.366 0c-2 0-2.967.977-2.967 2.985 0 .995.242 1.739.717 2.232.475.493 1.246.753 2.25.753s1.757-.251 2.25-.753c.493-.502.717-1.246.717-2.232 0-2.008-.968-2.985-2.967-2.985zM10.12 0c2.985 0 4.76 1.784 4.76 4.778 0 1.479-.413 2.644-1.228 3.486-.816.843-2.053 1.3-3.532 1.3-1.48 0-2.707-.448-3.532-1.3-.824-.851-1.228-2.007-1.228-3.486C5.36 1.784 7.135 0 10.12 0zm11.366 0c2.976 0 4.76 1.784 4.76 4.778 0 1.479-.413 2.644-1.229 3.486-.815.843-2.052 1.3-3.531 1.3-1.48 0-2.698-.448-3.532-1.3-.834-.851-1.228-2.007-1.228-3.486C16.726 1.784 18.51 0 21.486 0zm11.357 0c2.984 0 4.76 1.784 4.76 4.778 0 1.479-.413 2.644-1.229 3.486-.815.843-2.052 1.3-3.531 1.3-1.48 0-2.698-.448-3.532-1.3-.834-.851-1.228-2.007-1.228-3.486 0-2.994 1.775-4.778 4.76-4.778zM10.12 1.793c-1.999 0-2.967.977-2.967 2.985 0 .995.242 1.739.717 2.232.475.493 1.246.752 2.25.752s1.757-.25 2.25-.752c.493-.502.717-1.237.717-2.232 0-2.008-.968-2.985-2.967-2.985zm11.366 0c-2 0-2.967.977-2.967 2.985 0 .995.242 1.739.717 2.232.475.493 1.246.752 2.25.752s1.757-.25 2.25-.752c.493-.502.717-1.237.717-2.232 0-2.008-.968-2.985-2.967-2.985zm11.357 0c-2 0-2.967.977-2.967 2.985 0 .995.242 1.739.717 2.232.475.493 1.246.752 2.25.752 1.003 0 1.756-.25 2.25-.752.492-.502.717-1.237.717-2.232 0-2.008-.969-2.985-2.967-2.985z" fill="#313235" fill-rule="nonzero"/></svg>