<svg width="24" height="24" viewBox="0 0 24 24" xmlns="http://www.w3.org/2000/svg"><path d="M18.393 20.998c2.817-1.771 4.246-4.85 4.246-9.146 0-4.302-1.442-7.395-4.286-9.186-2.333-1.47-4.985-1.664-6.017-1.678-.35-.003-.699-.003-1.049.004C8.871 1.035.985 1.946.985 11.782c0 4.258 1.455 7.334 4.33 9.132 2.346 1.473 4.998 1.688 6.026 1.715.266.006.572.01.867.01h.219c1.025-.01 3.657-.189 5.966-1.64zM12.35.003c2.373.034 11.274.891 11.274 11.85 0 10.937-8.817 11.75-11.187 11.77h-.225c-.303 0-.619-.003-.891-.01C9.005 23.556 0 22.642 0 11.782 0 .894 9.015.047 11.27.007 11.63 0 11.99 0 12.35.003zm-.532 9.12c.273 0 .491.222.491.49v7.678a.491.491 0 01-.981 0V9.617a.49.49 0 01.49-.494zm-.006-2.79a.766.766 0 110 1.532.766.766 0 010-1.532z" fill="#5CB615" fill-rule="nonzero"/></svg>