<svg width="64" height="64" xmlns="http://www.w3.org/2000/svg"><path d="M32.932 56.766c12.388 0 16.359-4.93 16.359-20.311 0-9.654-1.614-14.942-5.405-17.676-2.447-1.775-6.033-2.636-10.954-2.636-4.957 0-8.569.879-11.025 2.68-3.738 2.752-5.333 8.023-5.333 17.632 0 15.381 3.97 20.311 16.358 20.311zm.027-51.298c-9.985 0-11.805 2.277-11.805 6.75 0 1.46.269 2.58.762 3.477 2.797-1.479 6.391-2.24 11.016-2.24 4.661 0 8.265.78 11.061 2.267.502-.905.771-2.035.771-3.505 0-4.481-1.828-6.75-11.805-6.75zM59.088 32.52c.77 0 1.398.591 1.398 1.335v5.37a1.377 1.377 0 01-1.398 1.344 1.371 1.371 0 01-1.398-1.344V35.2h-5.63c.01.421.036.807.036 1.246 0 5.423-.475 10.048-1.945 13.714l7.53 2.196c.61.18 1.022.744.986 1.354l-.449 8.094a1.377 1.377 0 01-1.398 1.273h-.072a1.376 1.376 0 01-1.326-1.408v-.008l.394-7.046-6.92-1.999c-2.725 4.383-7.565 6.848-15.973 6.848-8.426 0-13.266-2.474-15.99-6.884l-7.046 2.044.385 7.045a1.355 1.355 0 01-1.308 1.408h-.09a1.375 1.375 0 01-1.39-1.273l-.448-8.094a1.34 1.34 0 01.995-1.354l7.664-2.232c-1.46-3.648-1.927-8.264-1.927-13.67 0-.438.027-.824.036-1.245h-5.63v4.025a1.372 1.372 0 01-1.398 1.344 1.371 1.371 0 01-1.398-1.344v-5.37c0-.744.628-1.344 1.398-1.344h7.109c.322-5.719 1.389-9.815 3.37-12.737l-9.215-2.69a1.34 1.34 0 01-.995-1.353l.449-8.094c.044-.744.744-1.354 1.47-1.273.77.036 1.362.672 1.326 1.416l-.385 7.046 9.07 2.644c.073.018.135.072.198.108l.421-.377c-.806-1.335-1.246-2.967-1.246-5.002 0-5.898 3.317-8.264 8.686-9.07l-.798-.763A1.304 1.304 0 0126.183.53l.053-.054a1.453 1.453 0 011.981 0l2.456 2.357c.744-.026 1.488-.062 2.277-.062.771 0 1.48.036 2.205.054L37.611.475a1.453 1.453 0 011.981 0 1.306 1.306 0 010 1.9l-.789.753c5.414.798 8.749 3.164 8.749 9.08 0 2.044-.44 3.684-1.264 5.029.108.099.224.188.332.287.035-.018.062-.045.107-.054l9.08-2.644-.394-7.046a1.37 1.37 0 011.318-1.416h.008a1.338 1.338 0 011.462 1.201c0 .027 0 .045.009.072l.448 8.094a1.342 1.342 0 01-.986 1.354L48.6 19.729c2.007 2.913 3.074 6.974 3.379 12.773l7.108.018zm-26.38-10.765c.771 0 1.398.6 1.398 1.344v25.923a1.372 1.372 0 01-1.398 1.344 1.371 1.371 0 01-1.398-1.344V23.099c0-.744.627-1.344 1.398-1.344z" fill="#313235" fill-rule="nonzero"/></svg>