<svg width="24" height="24" viewBox="0 0 24 24" xmlns="http://www.w3.org/2000/svg"><path d="M22.639 15.39V4.64c0-1.475-1.247-2.679-2.78-2.679H3.765c-1.533 0-2.783 1.204-2.783 2.68V15.39c0 1.294.873 2.373 2.124 2.622a.48.48 0 01.393.467v2.602c0 .322.333.632.69.632.117 0 .359 0 .604-.316l2.541-3.147a.502.502 0 01.39-.181h12.131c1.537-.003 2.784-1.203 2.784-2.68zm-2.78-14.38c2.074 0 3.765 1.627 3.765 3.63v10.75c0 2-1.691 3.63-3.765 3.63H7.969l-2.39 2.955c-.349.457-.82.689-1.387.689-.908 0-1.674-.726-1.674-1.583v-2.236C1.015 18.375 0 17.003 0 15.39V4.64c0-2.003 1.69-3.63 3.765-3.63h16.094zm-4.71 7.667c.095-.383.185-1.085-.265-1.462-.202-.165-.494-.269-.817-.286l-.09-.003c-.357 0-.733.1-1.083.29-.178.093-.363.197-.561.312a1.18 1.18 0 01-.568.151c-.195 0-.387-.047-.555-.141-.218-.125-.4-.225-.578-.323a2.322 2.322 0 00-1.082-.289l-.095.003c-.316.017-.615.118-.813.286-.454.377-.363 1.08-.272 1.462.205.84.615 1.721 1.21 2.619.49.736.867 1.19 1.54 1.865.117.118.282.27.386.34.067.044.138.08.208.094h.01l.04.007a.63.63 0 00.25-.098c.097-.067.248-.201.362-.316l.004-.006.033-.034c.663-.666 1.032-1.113 1.523-1.849.602-.9 1.009-1.781 1.214-2.622zm-1.028-2.695c.538.026 1.039.208 1.405.51.632.525.837 1.379.585 2.404-.232.944-.686 1.926-1.341 2.914-.521.787-.941 1.29-1.647 1.997l-.014.017c-.07.07-.312.309-.52.45a1.536 1.536 0 01-.576.252 1.03 1.03 0 01-.181.024h-.007c-.017.003-.033.003-.054.003h-.02c-.02 0-.033 0-.054-.003h-.003a1.483 1.483 0 01-.181-.024c-.199-.04-.4-.131-.579-.252a4.373 4.373 0 01-.517-.45C9.7 13.108 9.28 12.6 8.757 11.81 8.1 10.825 7.65 9.844 7.417 8.896c-.255-1.025-.043-1.883.585-2.404.367-.302.864-.487 1.405-.51.047-.004.098-.004.145-.004.52 0 1.059.138 1.56.41.184.098.376.209.584.326.02.01.044.017.071.017a.165.165 0 00.067-.017c.209-.117.4-.225.589-.326a3.297 3.297 0 011.697-.406z" fill="#5CB615" fill-rule="nonzero"/></svg>