<svg width="24" height="24" viewBox="0 0 24 24" xmlns="http://www.w3.org/2000/svg"><path d="M11.815.007c3.768 0 6.69.975 8.69 2.9 2.07 1.997 3.122 4.996 3.122 8.911 0 1.826-.228 3.447-.68 4.86a.335.335 0 01-.097.287c-1.52 4.374-5.26 6.655-11.035 6.655C4.095 23.62.01 19.54.01 11.815.01 4.091 4.09.007 11.815.007zm10.296 17.056H17.64A13.763 13.763 0 0116.434 20c-.729 1.295-1.6 2.256-2.558 2.841 4.198-.46 6.95-2.394 8.235-5.778zm-10.71-.001H6.304c.286.95.652 1.83 1.091 2.612 1.093 1.943 2.507 3.054 4.006 3.152v-5.764zm5.536 0h-4.83v5.736c1.4-.206 2.714-1.298 3.738-3.124.44-.783.806-1.662 1.092-2.612zm-11.335 0l-4.079.001c1.234 3.25 3.823 5.165 7.745 5.717-.92-.588-1.757-1.528-2.461-2.78a13.839 13.839 0 01-1.205-2.937zm-.34-9.144H1.107C.824 9.08.682 10.379.682 11.816c0 1.724.204 3.25.611 4.576h4.131a19.536 19.536 0 01-.533-4.6c0-1.339.127-2.644.371-3.873zm6.14 0H5.95a19.208 19.208 0 00-.385 3.874c0 1.613.19 3.174.552 4.599l5.283-.001V7.919zm5.887 0h-5.182v8.472h5.016c.361-1.424.55-2.983.55-4.598 0-1.344-.13-2.651-.384-3.874zm5.24 0h-4.552a19.88 19.88 0 01.373 3.874c0 1.607-.183 3.165-.532 4.599h4.523c.406-1.326.61-2.852.61-4.576 0-1.437-.14-2.736-.422-3.896zM9.182.86c-4.139.61-6.778 2.748-7.891 6.388H5.41c.323-1.35.794-2.592 1.397-3.664.682-1.212 1.49-2.132 2.375-2.724zm2.926-.074v6.462h5.028c-.307-1.23-.741-2.36-1.29-3.338C14.82 2.08 13.508.991 12.107.785zm1.852.01l.09.058c.889.592 1.7 1.514 2.384 2.73.6 1.072 1.071 2.313 1.395 3.663h4.516c-1.156-3.784-3.962-5.944-8.385-6.45zM7.395 3.91c-.55.979-.984 2.108-1.291 3.338H11.4V.757c-1.5.099-2.916 1.21-4.006 3.152z" fill="#5CB615" fill-rule="nonzero"/></svg>