<?xml version="1.0" encoding="UTF-8"?>
<svg width="24px" height="24px" viewBox="0 0 24 24" version="1.1" xmlns="http://www.w3.org/2000/svg" xmlns:xlink="http://www.w3.org/1999/xlink">
    <title>1.Light/Internet pendrive_1Light</title>
    <g id="Symbols" stroke="none" stroke-width="1" fill="none" fill-rule="evenodd">
        <g id="1.Light/Internet-pendrive_1Light" fill="#5CB615" fill-rule="nonzero">
            <path d="M11.4588235,15.3848739 C11.9495798,15.3848739 12.2655462,15.6470588 12.2655462,16.2117647 C12.2655462,16.4840336 12.1915966,16.6857143 12.0605042,16.8235294 C11.9193277,16.9714286 11.7109244,17.0420168 11.4554622,17.0420168 C11.2,17.0420168 10.9915966,16.9714286 10.8504202,16.8235294 C10.7193277,16.6857143 10.6453782,16.4840336 10.6453782,16.2117647 C10.6487395,15.6470588 10.9680672,15.3848739 11.4588235,15.3848739 L11.4588235,15.3848739 Z M12.1882353,4.53781513 C12.1882353,4.81680672 11.9697479,5.04201681 11.697479,5.04201681 C4.48403361,5.04201681 0.981512605,8.65546218 0.981512605,16.087395 C0.981512605,16.3663866 0.76302521,16.594958 0.490756303,16.594958 C0.218487395,16.594958 0,16.3697479 0,16.087395 C0,8.08739496 3.93613445,4.0302521 11.697479,4.0302521 C11.9697479,4.03361345 12.1882353,4.25882353 12.1882353,4.53781513 Z M12.1680672,8.64201681 C12.1680672,8.9210084 11.9495798,9.14621849 11.6773109,9.14621849 C7.11260504,9.14621849 4.89411765,11.4352941 4.89411765,16.1378151 C4.89411765,16.4168067 4.67563025,16.6420168 4.40336134,16.6420168 C4.13109244,16.6420168 3.91260504,16.4168067 3.91260504,16.1378151 C3.91260504,10.9008403 6.59831933,8.13445378 11.6773109,8.13445378 C11.9462185,8.13445378 12.1680672,8.35966387 12.1680672,8.64201681 Z M22.6420168,17.9663866 L22.6420168,14.3327731 C22.6386555,14.1109244 22.4672269,13.9193277 22.2554622,13.8991597 L21.0789916,13.8991597 L21.0789916,18.4067227 L22.2319328,18.4067227 C22.4571429,18.4033613 22.6420168,18.205042 22.6420168,17.9663866 Z M19.4521008,19.7546218 C19.8117647,19.7546218 20.107563,19.4453782 20.107563,19.0689076 L20.107563,18.907563 L20.097479,18.907563 L20.097479,13.2638655 C20.097479,12.8840336 19.8016807,12.5781513 19.4420168,12.5781513 L12.312605,12.5781513 C10.1714286,12.6487395 9.0789916,13.8554622 9.0789916,16.1613445 C9.0789916,18.4672269 10.1714286,19.6739496 12.3294118,19.7546218 L19.4521008,19.7546218 Z M22.2184874,12.8806723 C22.9781513,12.8806723 23.6067227,13.5260504 23.6235294,14.3193277 L23.6235294,17.9663866 C23.6235294,18.7630252 22.9983193,19.4151261 22.2285714,19.4151261 L21.0521008,19.4151261 C20.897479,20.1848739 20.2386555,20.7663866 19.4487395,20.7663866 L12.2890756,20.7663866 C9.58319328,20.6655462 8.0907563,19.0285714 8.0907563,16.1613445 C8.0907563,13.287395 9.58319328,11.6537815 12.2890756,11.5663866 L19.4352941,11.5663866 C20.2117647,11.5663866 20.8638655,12.1310924 21.0319328,12.8840336 L21.4184874,12.8840336 L21.4184874,12.8806723 L22.2184874,12.8806723 Z" id="Internet-pendrive_1Light"></path>
        </g>
    </g>
</svg>