<svg width="64" height="64" xmlns="http://www.w3.org/2000/svg"><path d="M31.507.018c10.048 0 17.838 2.6 23.17 7.736 5.522 5.324 8.328 13.32 8.328 23.762 0 4.866-.609 9.191-1.811 12.958a.894.894 0 01-.253.761C56.884 56.903 46.91 62.987 31.507 62.987c-20.59 0-31.48-10.882-31.48-31.48S10.909.017 31.507.017zM58.963 45.5H47.039c-.822 2.855-1.9 5.496-3.216 7.833-1.943 3.454-4.268 6.017-6.821 7.576 11.194-1.224 18.536-6.382 21.96-15.409zm-28.56-.001H16.81c.763 2.533 1.738 4.878 2.91 6.965 2.915 5.18 6.687 8.144 10.685 8.407l-.001-15.372zm14.762 0h-12.88l.002 15.295c3.731-.55 7.235-3.46 9.967-8.33 1.172-2.087 2.148-4.432 2.91-6.964zm-30.226.001H4.062c3.29 8.668 10.193 13.772 20.65 15.246-2.45-1.571-4.684-4.077-6.56-7.413-1.312-2.337-2.39-4.978-3.213-7.833zm-.907-24.383H2.952c-.755 3.095-1.132 6.56-1.132 10.39 0 4.596.544 8.664 1.628 12.2h11.015c-.93-3.824-1.421-7.978-1.421-12.263 0-3.571.339-7.052.99-10.327zm16.372 0H15.868c-.673 3.259-1.024 6.742-1.024 10.327 0 4.302.506 8.463 1.47 12.263l14.09-.001V21.118zm15.702.001h-13.82v22.588l13.375.001c.963-3.798 1.47-7.957 1.47-12.263 0-3.582-.352-7.066-1.025-10.326zm13.971 0H47.939c.653 3.274.993 6.755.993 10.326 0 4.285-.487 8.439-1.418 12.263h12.062c1.084-3.536 1.627-7.603 1.627-12.2.002-3.831-.374-7.295-1.126-10.389zM24.483 2.292l-.164.025C13.382 3.969 6.398 9.663 3.442 19.325h10.983c.864-3.6 2.118-6.912 3.726-9.77 1.818-3.231 3.971-5.684 6.332-7.263zm7.803-.198v17.23l13.41.001c-.818-3.278-1.976-6.291-3.442-8.9-2.733-4.88-6.23-7.784-9.968-8.331zm4.945.028l.191.125c2.388 1.577 4.566 4.045 6.401 7.308 1.604 2.858 2.858 6.17 3.722 9.77h12.042C56.504 9.234 49.024 3.474 37.23 2.122zM19.72 10.425c-1.466 2.61-2.624 5.622-3.443 8.9h14.127V2.018c-3.998.263-7.777 3.226-10.684 8.407z" fill="#313235" fill-rule="nonzero"/></svg>