<svg width="24" height="24" viewBox="0 0 24 24" xmlns="http://www.w3.org/2000/svg"><path d="M20.877 5.476l-.03.463c-.044.643-.407 3.96-3.381 6.03l-.72.502.8.36c4.642 2.073 4.743 6.917 4.746 6.964 0 .51-.413.924-.92.924a.927.927 0 01-.922-.924c-.01-.548-.268-4.874-5.653-5.866a4.14 4.14 0 00.164-1.183 3.9 3.9 0 00-.262-1.469c3.805-1.324 4.256-4.524 4.306-5.267l-.02-.524-1.331-.014 2.269-2.312 2.285 2.312-1.33.004zm-9.035 9.398c-.397 0-.736-.054-1.018-.158a1.559 1.559 0 01-.579-.34 1.541 1.541 0 01-.366-.601 3.016 3.016 0 01-.161-1.036c0-.484.084-.88.232-1.196a1.51 1.51 0 01.299-.447c.168-.162.38-.283.638-.367a3.12 3.12 0 01.955-.13c.366 0 .682.043.951.13.262.084.48.209.649.37.124.121.219.272.3.444.15.316.234.712.234 1.196 0 .407-.06.753-.164 1.043a1.58 1.58 0 01-.367.594 1.582 1.582 0 01-.588.343c-.286.101-.622.155-1.015.155zm-8.75 4.921a.932.932 0 01-.927.918.922.922 0 01-.911-.918c0-.05.104-4.928 4.83-6.988l.803-.35-.716-.507C3.244 9.879 2.884 6.582 2.844 5.943l-.101-.457-1.264-.014L3.761 3.16l2.276 2.312-1.385.007.037.528c.054.743.504 3.943 4.303 5.267-.168.417-.26.908-.26 1.469 0 .433.061.82.162 1.17-5.533.958-5.791 5.33-5.802 5.882zm20.42-14.413l-3.088-3.123c-.219-.272-.619-.32-.962-.04l-3.11 3.166a.668.668 0 00-.08.699.63.63 0 00.572.366l1.099.01c-.209 1.05-.975 3.07-3.792 3.96l-.03-.033c-.531-.518-1.3-.777-2.286-.777-.981 0-1.751.259-2.282.777-.014.013-.02.03-.034.043-2.803-.87-3.576-2.843-3.785-3.97l1.103-.01a.638.638 0 00.578-.37c.108-.225.074-.504-.118-.735L4.262 2.262l-.104-.107a.63.63 0 00-.47-.135c-.169.02-.32.101-.387.195L.18 5.375a.663.663 0 00-.087.699c.108.229.33.37.575.37l1.237.01c.151 1.16.75 3.812 3.052 5.791C.323 14.75.268 19.738.268 19.792c0 1.045.848 1.899 1.907 1.909 1.035 0 1.889-.85 1.906-1.89.006-.466.242-4.224 5.277-4.967.067.084.124.174.202.252.53.51 1.297.77 2.282.77.985 0 1.751-.26 2.286-.77.074-.07.13-.158.195-.239 4.897.77 5.132 4.488 5.14 4.948a1.914 1.914 0 001.905 1.903c1.052 0 1.906-.86 1.906-1.913 0-.054-.054-4.998-4.602-7.506 2.34-1.966 2.952-4.565 3.11-5.822l1.23-.013c.249 0 .47-.141.578-.37a.666.666 0 00-.077-.702z" fill="#5CB615" fill-rule="nonzero"/></svg>