<svg width="64" height="64" xmlns="http://www.w3.org/2000/svg"><path d="M56.103 51.54c2.313 0 4.195 1.838 4.195 4.097 0 2.277-1.882 4.114-4.195 4.114-2.34 0-4.222-1.837-4.222-4.114.01-2.268 1.892-4.096 4.222-4.096zm-37.118-5.718c5.11-1.228 9.869-1.569 11.993-1.676v16.09c-5.127-.834-9.564-6.419-11.993-14.414zm-11.133 4.59c2.528-1.704 5.486-2.959 8.524-3.882 1.721 5.719 4.464 10.308 7.808 13.159-7.323-1.255-12.755-4.348-16.332-9.278zm-1.425-2.224c-2.259-4.033-3.496-9.07-3.684-15.103h11.536c.108 3.854.592 7.547 1.398 10.908-3.227.968-6.48 2.33-9.25 4.195zm-.054-33.3c2.85 1.883 6.077 3.254 9.277 4.222-.833 3.487-1.29 7.315-1.371 11.348H2.743c.107-6.238 1.318-11.42 3.63-15.57zm17.838-11.58c-3.362 2.877-6.114 7.493-7.852 13.266-2.985-.915-5.97-2.178-8.552-3.908 3.568-4.957 9.027-8.077 16.404-9.358zm6.776-.556v16.17c-2.124-.107-6.857-.421-12.02-1.65 2.447-8.048 6.857-13.65 12.02-14.52zM16.968 30.467c.08-3.773.538-7.368 1.318-10.649 5.459 1.336 10.46 1.65 12.692 1.73v8.91h-14.01v.01zm14.02 2.618v8.443c-2.206.081-7.234.413-12.693 1.757-.753-3.146-1.21-6.58-1.318-10.2h14.01zM56.102 3.8c2.313 0 4.195 1.855 4.195 4.114s-1.882 4.087-4.195 4.087c-2.34 0-4.222-1.828-4.222-4.087.01-2.25 1.892-4.114 4.222-4.114zm0 23.96c2.313 0 4.195 1.837 4.195 4.087 0 2.276-1.882 4.114-4.195 4.114-2.34 0-4.222-1.838-4.222-4.114.01-2.25 1.892-4.088 4.222-4.088zM34 33.164h15.328c.645 3.093 3.415 5.432 6.776 5.432 3.792 0 6.893-3.02 6.893-6.74 0-3.693-3.092-6.705-6.893-6.705-3.361 0-6.131 2.33-6.776 5.396H33.999c-.108 0-.215.054-.323.08v-4.956h9.977c.726 0 1.344-.583 1.344-1.309l.162-15.13h4.033c.054 0 .08-.027.135-.027.618 3.092 3.415 5.423 6.776 5.423 3.792 0 6.893-3.012 6.893-6.714 0-3.72-3.092-6.732-6.893-6.732-3.361 0-6.158 2.358-6.776 5.45-.054 0-.081-.027-.135-.027h-5.378c-.726 0-1.318.574-1.345 1.29l-.16 15.15h-8.633V1.308C33.676.6 33.085 0 32.332 0 11.196 0 0 10.909 0 31.507c0 .054 0 .134.027.206C0 31.74 0 31.74 0 31.767c0 0 .027.027.027.054.027 7.547 1.586 13.786 4.598 18.635.054.188.135.34.242.502.054.08.162.108.215.161 5.217 7.808 14.36 11.877 27.25 11.877.753 0 1.344-.583 1.344-1.309v-21.18h8.632l.161 15.148a1.35 1.35 0 001.345 1.29h5.378c.054 0 .08 0 .135-.026.618 3.092 3.415 5.45 6.776 5.45 3.792 0 6.893-3.021 6.893-6.741 0-3.702-3.092-6.714-6.893-6.714-3.361 0-6.158 2.34-6.776 5.423-.054 0-.081-.027-.135-.027H45.16l-.162-15.13c0-.735-.618-1.309-1.344-1.309h-9.977v-4.768c.108.035.215.062.323.062z" fill="#313235" fill-rule="nonzero"/></svg>