<svg width="64" height="64" viewBox="0 0 64 64" xmlns="http://www.w3.org/2000/svg"><path d="M50.341 51.727l.027-25.17H13.635v25.17c0 .34.054.627.063.95h36.58c.018-.323.063-.618.063-.95zm-9.134 9.16c4.643 0 7.566-1.935 8.65-5.602h-35.72c.404 1.345 1.022 2.483 1.927 3.353 1.56 1.488 3.837 2.25 6.777 2.25h18.366zM16.082 18.93c-1.264 1.21-2.025 2.895-2.312 5.01h36.473c-.44-3.387-2.098-5.601-4.948-6.614a3.985 3.985 0 01-2.277.708H20.76a3.944 3.944 0 01-2.133-.628c-.977.377-1.855.86-2.546 1.524zm3.299-14.44v9.555c0 .762.618 1.38 1.39 1.38h22.256c.762 0 1.39-.618 1.39-1.38V4.489c0-.762-.62-1.38-1.39-1.38H20.76c-.762 0-1.38.618-1.38 1.38zm27.482 10.657c3.962 1.713 6.14 5.45 6.14 10.703l-.027 25.887c0 7.475-4.293 11.769-11.769 11.769H22.841c-3.648 0-6.535-1.004-8.605-2.985C12.094 58.46 11 55.5 11 51.727V25.849c0-3.774 1.094-6.732 3.254-8.793.77-.735 1.703-1.291 2.716-1.757a3.932 3.932 0 01-.224-1.255V4.489C16.746 2.284 18.547.5 20.76.5h22.257c2.214 0 4.016 1.793 4.016 3.989v9.555c0 .385-.072.744-.17 1.102zm-23.422-1.523a1.312 1.312 0 01-1.317-1.309V6.219c0-.726.591-1.309 1.317-1.309.727 0 1.318.583 1.318 1.309v6.095c0 .717-.591 1.309-1.318 1.309zm5.639 0a1.312 1.312 0 01-1.318-1.309V6.219c0-.726.592-1.309 1.318-1.309.726 0 1.317.583 1.317 1.309v6.095a1.324 1.324 0 01-1.317 1.309zm5.629 0a1.312 1.312 0 01-1.318-1.309V6.219c0-.726.592-1.309 1.318-1.309.726 0 1.317.583 1.317 1.309v6.095a1.324 1.324 0 01-1.317 1.309zm5.629 0a1.312 1.312 0 01-1.318-1.309V6.219c0-.726.592-1.309 1.318-1.309.726 0 1.317.583 1.317 1.309v6.095c0 .717-.591 1.309-1.317 1.309zM23.19 37.143v3.944s.108.072.27.072h6.175v6.086c0 .161.081.26.108.287h3.97c0-.054.081-.126.081-.26l-.026-6.14h6.149c.134 0 .26-.108.286-.135l-.027-3.917c0-.053-.134-.08-.233-.08h-6.175v-6.087c0-.134-.081-.26-.135-.286l-3.944.027c0 .026-.08.152-.08.26v6.113H23.45a.383.383 0 00-.26.116zm.26 6.633c-1.577 0-2.895-1.2-2.895-2.689V37.09c0-1.46 1.318-2.662 2.895-2.662h3.523v-3.496c0-1.568 1.237-2.868 2.707-2.868h4.025c1.443 0 2.689 1.309 2.689 2.868v3.478h3.55c1.55 0 2.868 1.228 2.868 2.69v3.997c0 1.434-1.318 2.662-2.895 2.662h-3.523l.027 3.523c0 1.569-1.21 2.868-2.707 2.868l-4.025-.027c-1.47 0-2.68-1.281-2.68-2.877v-3.478H23.45v.01z" fill="#313235" fill-rule="nonzero"/></svg>