<svg width="64" height="64" xmlns="http://www.w3.org/2000/svg"><path d="M50.017 51.227l.027-25.17H13.31v25.17c0 .34.054.627.063.95h36.58c.018-.323.063-.618.063-.95zm-9.134 9.16c4.643 0 7.565-1.935 8.65-5.602h-35.72c.403 1.345 1.022 2.483 1.927 3.353 1.56 1.488 3.836 2.25 6.777 2.25h18.366zM15.758 18.43c-1.264 1.21-2.026 2.895-2.313 5.01h36.473c-.439-3.387-2.097-5.601-4.948-6.614a3.985 3.985 0 01-2.276.708H20.437a3.944 3.944 0 01-2.133-.628c-.977.377-1.856.86-2.546 1.524zm3.299-14.44v9.555c0 .762.618 1.38 1.389 1.38h22.257c.761 0 1.389-.618 1.389-1.38V3.989c0-.762-.619-1.38-1.39-1.38H20.438c-.762 0-1.38.618-1.38 1.38zm27.482 10.657c3.962 1.713 6.14 5.45 6.14 10.703l-.027 25.887c0 7.475-4.293 11.769-11.77 11.769H22.518c-3.649 0-6.535-1.004-8.606-2.985-2.142-2.061-3.235-5.02-3.235-8.793V25.349c0-3.774 1.093-6.732 3.253-8.793.771-.735 1.703-1.291 2.716-1.757a3.932 3.932 0 01-.224-1.255V3.989C16.421 1.784 18.223 0 20.437 0h22.257c2.214 0 4.015 1.793 4.015 3.989v9.555c0 .385-.071.744-.17 1.102zm-23.422-1.523a1.312 1.312 0 01-1.318-1.309V5.719c0-.726.592-1.309 1.318-1.309.726 0 1.318.583 1.318 1.309v6.095c0 .717-.592 1.309-1.318 1.309zm5.638 0a1.312 1.312 0 01-1.317-1.309V5.719c0-.726.591-1.309 1.317-1.309s1.318.583 1.318 1.309v6.095a1.324 1.324 0 01-1.318 1.309zm5.63 0a1.312 1.312 0 01-1.318-1.309V5.719c0-.726.591-1.309 1.317-1.309s1.318.583 1.318 1.309v6.095a1.324 1.324 0 01-1.318 1.309zm5.628 0a1.312 1.312 0 01-1.317-1.309V5.719c0-.726.591-1.309 1.317-1.309s1.318.583 1.318 1.309v6.095c0 .717-.592 1.309-1.318 1.309zm-17.147 23.52v3.944s.108.072.269.072h6.176v6.086c0 .161.08.26.107.287h3.971c0-.054.081-.126.081-.26l-.027-6.14h6.15c.134 0 .26-.108.286-.135l-.027-3.917c0-.053-.134-.08-.233-.08h-6.176v-6.087c0-.134-.08-.26-.134-.286l-3.944.027c0 .026-.081.152-.081.26v6.113h-6.158c-.152.009-.233.09-.26.116zm.26 6.633c-1.578 0-2.895-1.2-2.895-2.689V36.59c0-1.46 1.317-2.662 2.895-2.662h3.523v-3.496c0-1.568 1.237-2.868 2.707-2.868h4.024c1.444 0 2.69 1.309 2.69 2.868v3.478h3.549c1.55 0 2.868 1.228 2.868 2.69v3.997c0 1.434-1.317 2.662-2.895 2.662H36.07l.027 3.523c0 1.569-1.21 2.868-2.707 2.868l-4.024-.027c-1.47 0-2.68-1.281-2.68-2.877v-3.478h-3.559v.01z" fill="#313235" fill-rule="nonzero"/></svg>