<svg width="24" height="24" viewBox="0 0 24 24" xmlns="http://www.w3.org/2000/svg"><path d="M18.945 6.504l-1.792-1.801 3.079-3.11 1.792 1.812-3.08 3.1zM9.61 18.437l-4.205-4.235.703-.71 2.413 2.44c.1.102.232.152.363.152a.49.49 0 00.353-.151.503.503 0 000-.72l-2.427-2.43 1.772-1.781 1.66 1.64c.1.1.222.151.353.151.131 0 .262-.05.363-.151a.512.512 0 00-.01-.72l-1.65-1.643 1.77-1.782c.011.01.021.03.031.04l2.646 2.663c.1.1.221.151.352.151.132 0 .263-.05.364-.151a.522.522 0 000-.72l-2.656-2.665a.14.14 0 00-.04-.03l1.781-1.782 1.56 1.55a.512.512 0 00.716-.01.5.5 0 00-.01-.71l-1.56-1.539 1.035-1.042 4.205 4.235-9.882 9.95zm-3.523.192l-1.055-1.053 1.146-1.166 1.056 1.062-1.147 1.157zM23.48 3.425l-3.26-3.28a.514.514 0 00-.713 0 .503.503 0 000 .719l.01.02-3.079 3.1-1.53-1.54a.503.503 0 00-.703.72l.374.375-10.242 10.3a.522.522 0 000 .719l1.136 1.146-1.506 1.506a.54.54 0 00-.15.366c0 .132.06.263.15.353l.484.488-4.305 4.346a.505.505 0 00.35.86c.13 0 .261-.05.362-.15l4.306-4.337.565.568c.1.101.222.151.363.151.13 0 .262-.05.353-.15l1.509-1.51 1.308 1.318c.1.1.221.15.352.15.132 0 .263-.05.363-.15L20.205 9.2l.403.407a.49.49 0 00.706 0 .503.503 0 000-.72l-1.65-1.66 3.079-3.11.03.03c.1.102.222.152.353.152.131 0 .262-.05.363-.151a.537.537 0 00-.01-.723z" fill="#5CB615" fill-rule="nonzero"/></svg>