<svg width="64" height="64" xmlns="http://www.w3.org/2000/svg"><path d="M29.347 48.466a2.678 2.678 0 01-1.9-.78L15.282 35.523a2.689 2.689 0 010-3.8L39.77 7.224l-4.14-4.133A1.796 1.796 0 0136.893.027h24.274c.986 0 1.792.807 1.792 1.793v24.273c0 .986-.806 1.793-1.792 1.793-.476 0-.933-.189-1.264-.53l-4.177-4.176-24.48 24.506a2.657 2.657 0 01-1.9.78zM36.903 1.83l4.132 4.132c.7.699.7 1.837 0 2.536L16.547 32.986a.893.893 0 000 1.264L28.71 46.413c.35.35.915.35 1.264 0l24.489-24.488c.331-.34.789-.529 1.264-.529s.932.188 1.263.529l4.169 4.168V1.829H36.903zM.896 62.96a.899.899 0 01-.636-1.533l15.731-15.73a.9.9 0 011.264.017.904.904 0 010 1.246L1.533 62.7a.926.926 0 01-.637.26zm16.117.01a.899.899 0 01-.637-1.534c3.344-3.343 8.184-8.363 8.238-8.416a.894.894 0 111.336 1.192c-.018.018-.027.036-.045.045-.045.053-4.903 5.082-8.256 8.443a.912.912 0 01-.636.27zM1.058 47.013a.899.899 0 01-.637-1.533c3.344-3.343 8.184-8.372 8.238-8.417a.893.893 0 011.264.054.901.901 0 01.018 1.192c-.045.054-4.903 5.083-8.256 8.444a.888.888 0 01-.627.26z" fill="#313235" fill-rule="nonzero"/></svg>