<svg width="24" height="24" viewBox="0 0 24 24" xmlns="http://www.w3.org/2000/svg"><path d="M11.886.007c6.477.003 11.72 5.257 11.717 11.734a11.726 11.726 0 01-7.156 10.79 11.652 11.652 0 01-4.537.918.336.336 0 01-.468-.31V.35c0-.184.151-.336.336-.336l.03.003a.334.334 0 01.078-.01zM5.472.635c2.108.047 3.18 1.12 3.18 3.183.003.38-.04.764-.134 1.133-.232.985-.952 2.155-3.076 2.155-.208 0-.42-.01-.625-.037-.4.044-.609.844-.696 1.324-.185.999-.208 2.363-.208 3.304v.111c0 .942.02 2.31.208 3.308.09.48.3 1.284.696 1.324.208-.027.417-.037.625-.037 2.124 0 2.847 1.17 3.076 2.155.094.37.137.75.134 1.13 0 2.063-1.069 3.136-3.18 3.183l-.064.003c-.36 0-.77-.067-.907-.087l-.024-.004-.02-.003c-1.217-.225-2.33-1.375-3.133-3.24-.857-1.994-1.31-4.67-1.31-7.728v-.115c0-3.058.453-5.734 1.31-7.727C2.128 2.104 3.24.95 4.457.73l.02-.004.024-.003c.148-.024.595-.098.971-.088zm6.643 15.995l-.001 6.136c.613-.053 1.21-.325 1.785-.806.646-.542 1.23-1.328 1.738-2.333a13.74 13.74 0 00.942-2.481l.329.078c-1.499-.38-3.111-.578-4.793-.594zm5.117.68l-.098.342c-.247.82-.546 1.584-.895 2.277-.563 1.118-1.224 1.989-1.95 2.585a11.048 11.048 0 006.2-3.854l.23.143c-.937-.61-2.137-1.122-3.487-1.494zM5.455 1.27a5.175 5.175 0 00-.853.081l-.037.007C2.618 1.718.649 5.385.649 11.698v.114c0 3.758.685 6.14 1.26 7.475.703 1.637 1.67 2.683 2.656 2.868l.037.006c.356.057.645.084.853.081.908-.02 1.55-.242 1.967-.672.4-.414.595-1.029.595-1.88a3.767 3.767 0 00-.114-.97l-.004-.01c-.262-1.127-1.065-1.671-2.46-1.671-.195 0-.39.01-.582.037-.017.003-.033.003-.05.003-.978-.04-1.23-1.398-1.315-1.845-.195-1.05-.218-2.454-.218-3.422v-.115c0-.968.023-2.373.218-3.421.084-.447.337-1.805 1.315-1.842.017 0 .033 0 .05.003.192.027.387.037.582.037 1.395 0 2.201-.548 2.46-1.67l.004-.01c.08-.32.117-.646.114-.972 0-.85-.195-1.466-.595-1.88-.417-.433-1.059-.651-1.967-.671zM22.93 12.072l-.025.003h-4.956v.14a21.271 21.271 0 01-.548 4.445c1.324.359 2.512.852 3.497 1.461a10.986 10.986 0 002.032-6.049zm-5.654.003h-5.162v3.884l.224.003c1.55.03 3.042.212 4.411.53.322-1.366.503-2.864.527-4.417zm3.758-6.543l.056-.035c-1.006.654-2.242 1.182-3.627 1.566.3 1.355.468 2.823.489 4.339h4.953l.024.003v-.027a11.04 11.04 0 00-1.895-5.846zm-4.227 1.697l-.193.046a21.601 21.601 0 01-4.499.503v3.624h5.16l-.002-.17c-.03-1.4-.19-2.752-.466-4.003zM12.114.688v6.415l.358-.005a20.484 20.484 0 004.177-.524 14.09 14.09 0 00-1.012-2.745c-.504-1.005-1.09-1.789-1.738-2.333-.577-.485-1.173-.754-1.785-.807zm2.173.251l.14.12c.67.59 1.284 1.42 1.812 2.467.433.86.79 1.831 1.064 2.88l-.395.105c1.442-.363 2.73-.892 3.73-1.527-.29-.375-.603-.731-.94-1.068a10.99 10.99 0 00-5.41-2.977z" fill="#5CB615" fill-rule="nonzero"/></svg>