<svg width="24" height="24" viewBox="0 0 24 24" xmlns="http://www.w3.org/2000/svg"><path d="M11.808 22.639c7.187 0 10.827-3.64 10.827-10.824C22.635 4.63 18.992.988 11.808.988 4.625.988.985 4.628.985 11.815c0 7.18 3.644 10.824 10.823 10.824zm0-22.639c7.731 0 11.816 4.087 11.816 11.815 0 7.724-4.085 11.809-11.816 11.809C4.084 23.624 0 19.539 0 11.815 0 4.087 4.084 0 11.808 0zm3.5 17.738c.134 0 .245.11.245.245v.528c0 .134-.111.245-.245.245H7.75a.247.247 0 01-.222-.134.888.888 0 01-.084-.404c0-.44.229-.662.777-1.193 1.126-1.086 1.351-1.896 1.351-2.847 0-.669-.114-1.328-.363-2.117H7.808a.247.247 0 01-.245-.246v-.333c0-.13.098-.235.229-.245l1.122-.077c-.228-.686-.453-1.614-.453-2.589 0-2.524 1.452-3.916 4.09-3.916.683 0 1.788.095 2.652.363a.25.25 0 01.172.236v.45a.25.25 0 01-.088.188.263.263 0 01-.205.054c-.85-.161-1.68-.249-2.336-.249-2.144 0-3.19.935-3.19 2.858 0 .884.226 1.764.464 2.524h3.214c.134 0 .245.11.245.245v.491c0 .135-.11.246-.245.246h-2.905c.216.729.32 1.445.32 2.134 0 1.388-.444 2.336-1.715 3.54h6.374v.003z" fill="#313235" fill-rule="nonzero"/></svg>