<svg width="64" height="64" xmlns="http://www.w3.org/2000/svg"><path d="M36.796 51.33c-7.171.215-12.935 2.151-15.776 3.316V30.983c6.068-2.95 13.015-3.165 15.776-3.129V51.33zM2.626 27.854c2.743-.062 9.708.189 15.776 3.138v23.654A46.49 46.49 0 002.626 51.33V27.854zm8.435-10.362c0-2.24.574-3.953 1.694-5.082 1.156-1.165 2.958-1.757 5.342-1.757l35.254-.018c2.385 0 4.177.592 5.343 1.757 1.12 1.13 1.694 2.833 1.694 5.083V33.76c0 2.25-.574 3.971-1.694 5.119-1.166 1.192-2.958 1.792-5.334 1.792l-13.93.01V26.607c0-.672-.528-1.228-1.21-1.281-.412-.036-10.083-.726-18.5 3.442-2.877-1.417-5.89-2.277-8.641-2.78l-.018-8.497zm42.281 25.762c3.11 0 5.549-.87 7.225-2.582 1.613-1.649 2.43-3.97 2.43-6.91V17.474c0-2.94-.826-5.253-2.439-6.885-1.667-1.676-4.096-2.536-7.207-2.536l-35.254.018c-3.11 0-5.539.851-7.215 2.527-1.614 1.632-2.438 3.944-2.438 6.884v8.086c-4.025-.484-7-.27-7.234-.251a1.315 1.315 0 00-1.21 1.3v25.985c0 .717.583 1.282 1.309 1.282 10.075 0 17.712 3.863 17.783 3.899.189.098.395.143.61.143.027 0 .054-.018.08-.018.18-.009.36-.054.53-.125.071-.036 7.708-3.9 17.792-3.9.726 0 1.309-.573 1.309-1.29v-4.06h22.203c.726 0 1.308-.574 1.308-1.291a1.306 1.306 0 00-1.308-1.291H39.413v-2.698h13.93z" fill="#313235" fill-rule="nonzero"/></svg>