<svg width="24" height="24" viewBox="0 0 24 24" xmlns="http://www.w3.org/2000/svg"><path d="M19.763 21.923V1.704c0-.393-.316-.72-.477-.72H4.489c-.161 0-.477.327-.477.72V21.92c0 .41.289.72.477.72l14.797.003c.188-.003.477-.31.477-.72zM19.279 0c.766 0 1.469.813 1.469 1.704v20.219c0 .907-.686 1.7-1.469 1.7l-14.78-.003c-.783 0-1.469-.793-1.469-1.7V1.703C3.027.814 3.73 0 4.496 0h14.783zM6.775 7.876a.984.984 0 11-.002-1.969.984.984 0 01.002 1.969zm0 2.95a.984.984 0 11.001 1.97.984.984 0 01-.001-1.97zm3.452-2.95a.495.495 0 01-.498-.491c0-.272.222-.49.498-.49h6.877c.276 0 .498.221.498.49s-.222.49-.498.49h-6.877zm6.877 3.936c.276 0 .498.222.498.49 0 .27-.222.491-.498.491h-6.877a.495.495 0 01-.498-.49c0-.273.222-.491.498-.491h6.877zm-10.33 3.94a.984.984 0 11.002 1.967.984.984 0 01-.001-1.968zm10.33.98c.276 0 .498.223.498.492 0 .272-.222.49-.498.49h-6.877a.495.495 0 01-.498-.49c0-.273.222-.491.498-.491h6.877z" fill="#313235" fill-rule="nonzero"/></svg>