<svg width="24" height="24" viewBox="0 0 24 24" xmlns="http://www.w3.org/2000/svg"><path d="M4.057 6.825a.684.684 0 01-.696-.672.697.697 0 01.696-.672h18.87c.384 0 .697.299.697.672 0 .37-.313.672-.696.672H4.058zm-2.918.457C.511 7.282 0 6.778 0 6.156 0 5.534.51 5.03 1.14 5.03c.628 0 1.139.504 1.139 1.126 0 .619-.51 1.126-1.14 1.126zm21.789 4.454c.383 0 .696.3.696.672a.684.684 0 01-.696.673H4.058a.684.684 0 01-.697-.673c0-.373.313-.672.696-.672h18.87zM1.139 13.534C.511 13.534 0 13.03 0 12.408c0-.621.51-1.126 1.14-1.126.628 0 1.139.505 1.139 1.126 0 .622-.51 1.126-1.14 1.126zm21.789 4.458c.185 0 .36.07.49.195a.654.654 0 01.206.474c0 .37-.313.672-.696.672H4.058a.697.697 0 01-.697-.672c0-.37.313-.673.696-.673h18.87v.004zM1.139 19.79C.511 19.79 0 19.286 0 18.664c0-.622.51-1.126 1.14-1.126.628 0 1.139.504 1.139 1.126 0 .622-.51 1.126-1.14 1.126z" fill="#313235" fill-rule="nonzero"/></svg>