<svg width="64" height="64" xmlns="http://www.w3.org/2000/svg"><path d="M56.964 56.766c2.303-2.41 3.442-4.813 3.406-7.153-.045-2.25-1.192-4.517-3.406-6.731a13.847 13.847 0 00-2.797-2.205c-1.882-1.166-3.774-1.587-5.674-1.273-1.927.323-3.854 1.443-5.719 3.307-.448.44-.87.915-1.264 1.417a1.289 1.289 0 01-.376.322c-1.085.619-2.788.09-5.235-1.586-2.788-1.91-6.041-5.065-8.237-7.27l-.26-.25c-2.214-2.215-5.37-5.477-7.27-8.247-1.667-2.447-2.187-4.16-1.577-5.235.08-.152.197-.287.331-.394.583-.457.915-.762 1.408-1.255 1.864-1.865 2.975-3.792 3.307-5.719.323-1.891-.098-3.783-1.255-5.629a13.946 13.946 0 00-2.232-2.833c-2.214-2.214-4.482-3.36-6.731-3.406h-.135c-2.294 0-4.652 1.148-7.01 3.406A16.637 16.637 0 004.268 8.4c-2.268 3.272-2.16 8.318.233 14.315 2.608 6.525 7.7 13.705 14.727 20.741l.045.045.224.224c7.063 7.064 14.243 12.173 20.786 14.772 5.943 2.376 11.052 2.492 14.208.314.51-.367 1.685-1.219 2.474-2.044zm1.855-15.749c2.716 2.716 4.123 5.594 4.177 8.543.054 3.056-1.327 6.086-4.132 9.017-.96 1.004-2.232 1.927-2.707 2.268-.08.063-.161.116-.242.17-1.874 1.3-4.294 1.981-7.126 1.981-2.86 0-6.042-.69-9.475-2.062-6.875-2.733-14.368-8.049-21.656-15.345l-.206-.206-.054-.054c-7.296-7.297-12.602-14.79-15.345-21.656C-.672 16.833-.681 10.918 2.017 7c.421-.574 1.371-1.892 2.402-2.878C7.341 1.327 10.344-.009 13.427 0c2.95.054 5.827 1.461 8.543 4.177 1.075 1.085 1.963 2.205 2.617 3.334 1.48 2.385 2.017 4.895 1.587 7.431-.422 2.483-1.784 4.885-4.034 7.144a14.42 14.42 0 01-1.156 1.067c.098.376.412 1.138 1.308 2.456 1.775 2.59 4.823 5.737 6.956 7.87l.26.26c2.133 2.124 5.262 5.172 7.87 6.965 1.309.896 2.08 1.2 2.456 1.308.35-.412.646-.735 1.076-1.156 2.259-2.259 4.66-3.612 7.135-4.034 2.545-.43 5.046.117 7.458 1.614 1.111.627 2.24 1.506 3.316 2.581zm-21.002-21.02c-.34.26-.502.53-.537.843-.045.323.053.655.268.906l3.03 3.37c.278.359.574.52.897.547.304.027.609-.072.833-.287l8.13-6.992a1.301 1.301 0 011.829.117l1.783 1.972c.099.116.332.296.574.233.269-.08.359-.368.386-.484L57.59 8.139a.704.704 0 00-.143-.645.732.732 0 00-.556-.233h-.063l-12.262.932c-.152.009-.43.071-.529.313-.099.251.063.484.161.592l1.757 1.954a1.32 1.32 0 01-.107 1.865c.009.008-8.032 7.08-8.032 7.08zm.744 6.786l-2.958-3.28a3.77 3.77 0 01.574-5.558l6.947-6.113-.879-.968c-.842-.941-1.093-2.214-.654-3.326.44-1.102 1.497-1.855 2.76-1.954l12.254-.95.278-.009c.986 0 1.9.413 2.537 1.139.699.797.968 1.864.735 2.93l-2.582 12.084c-.26 1.219-1.13 2.169-2.277 2.474a3.23 3.23 0 01-3.209-1.004l-.905-1.031-7.1 6.104a3.59 3.59 0 01-2.823.96 3.76 3.76 0 01-2.698-1.498z" fill="#313235" fill-rule="nonzero"/></svg>