<svg width="24" height="24" viewBox="0 0 24 24" xmlns="http://www.w3.org/2000/svg"><path d="M21.361 21.287c.864-.904 1.291-1.805 1.278-2.682-.017-.844-.447-1.694-1.278-2.524a5.193 5.193 0 00-1.048-.827c-.706-.437-1.416-.595-2.128-.478-.723.121-1.446.542-2.145 1.24a5.505 5.505 0 00-.474.532.483.483 0 01-.14.12c-.408.233-1.046.035-1.964-.594-1.045-.716-2.265-1.9-3.089-2.726l-.097-.094c-.83-.83-2.014-2.054-2.726-3.093-.626-.917-.82-1.56-.592-1.963a.48.48 0 01.124-.148c.219-.171.343-.285.528-.47.7-.7 1.116-1.422 1.24-2.145.121-.709-.037-1.418-.47-2.11a5.23 5.23 0 00-.837-1.063c-.83-.83-1.68-1.26-2.525-1.277h-.05c-.86 0-1.744.43-2.629 1.277a6.239 6.239 0 00-.739.888c-.85 1.226-.81 3.119.087 5.368.979 2.447 2.888 5.14 5.523 7.778l.017.017.084.084c2.649 2.648 5.341 4.564 7.795 5.54 2.228.89 4.144.934 5.328.117.191-.138.632-.457.927-.767zm.696-5.905c1.019 1.018 1.546 2.097 1.567 3.203.02 1.146-.498 2.282-1.55 3.381-.36.377-.837.723-1.015.85-.03.024-.06.045-.09.065-.703.487-1.611.743-2.673.743-1.072 0-2.266-.26-3.553-.774-2.578-1.025-5.388-3.018-8.121-5.754l-.077-.078-.02-.02C3.787 14.262 1.797 11.452.77 8.878-.252 6.312-.255 4.093.756 2.624c.158-.215.515-.709.901-1.079C2.753.497 3.88-.004 5.035 0 6.141.02 7.22.548 8.24 1.566c.403.407.736.827.981 1.25.555.895.756 1.836.595 2.787-.158.931-.669 1.832-1.512 2.68a5.407 5.407 0 01-.434.4c.037.14.155.426.49.92.666.972 1.81 2.152 2.61 2.952l.097.097c.8.797 1.973 1.94 2.95 2.612.492.336.78.45.922.49.13-.154.242-.275.403-.433.847-.847 1.748-1.355 2.676-1.513.954-.16 1.892.044 2.796.605.417.236.84.565 1.244.969zm-7.875-7.883c-.128.098-.189.198-.202.316a.432.432 0 00.1.34l1.137 1.263c.104.135.215.195.336.206a.399.399 0 00.313-.108l3.048-2.622a.488.488 0 01.686.044l.669.74c.037.043.124.11.215.087.1-.03.134-.138.145-.182l.968-4.53a.264.264 0 00-.054-.243.274.274 0 00-.209-.087h-.023l-4.598.35c-.058.003-.162.026-.199.117-.037.094.024.181.06.222l.66.733a.495.495 0 01-.04.699c.003.003-3.012 2.655-3.012 2.655zm.279 2.545l-1.11-1.23a1.414 1.414 0 01.215-2.085l2.605-2.292-.329-.363c-.316-.353-.41-.83-.245-1.247.164-.414.561-.696 1.035-.733l4.595-.356.104-.004a1.245 1.245 0 011.227 1.526l-.968 4.532a1.2 1.2 0 01-.854.927c-.44.111-.904-.037-1.203-.376l-.34-.387-2.662 2.29c-.282.265-.669.4-1.059.359a1.41 1.41 0 01-1.011-.561z" fill="#5CB615" fill-rule="nonzero"/></svg>