<svg width="64" height="64" viewBox="0 0 64 64" xmlns="http://www.w3.org/2000/svg"><path d="M11.455 34.03c1.605 0 2.232-.627 2.232-2.24 0-1.614-.627-2.242-2.232-2.242-1.604 0-2.231.628-2.231 2.241 0 1.614.627 2.241 2.231 2.241zm0-7.17c3.066 0 4.904 1.846 4.904 4.93 0 3.083-1.829 4.92-4.904 4.92-3.065 0-4.903-1.846-4.903-4.92 0-3.084 1.838-4.922 4.903-4.93zm44.012 8.873l4.24-4.06-4.904-4.598h-31.14a1.335 1.335 0 01-1.218-.798c-1.47-3.317-4.545-4.93-9.385-4.93-6.992 0-10.389 3.415-10.389 10.433 0 7.028 3.397 10.443 10.389 10.443 4.571 0 7.574-1.362 8.919-4.043.134-.26.448-1.066.448-1.066.197-.511.69-.852 1.246-.852H38.74l3.2-4.625a1.33 1.33 0 011.066-.574c.44-.071.834.18 1.094.52l2.823 3.675 2.214-3.567a1.327 1.327 0 011.829-.43c.09.053.17.116.242.188-.009.009 4.258 4.284 4.258 4.284zm7.099-5.046c.547.502.573 1.353.063 1.9l-.054.054-6.212 5.952a1.334 1.334 0 01-1.864-.027L50.5 34.559l-2.34 3.774c-.233.367-.627.61-1.066.627-.44.045-.87-.152-1.12-.52l-2.887-3.755-2.564 3.702a1.331 1.331 0 01-1.093.573H24.56l-.198.44c-1.802 3.603-5.71 5.512-11.303 5.512C4.634 44.912 0 40.251 0 31.789c0-8.461 4.634-13.122 13.06-13.122 6.732 0 9.923 2.949 11.429 5.727h30.843c.34 0 .664.135.914.359l6.32 5.934z" fill="#313235" fill-rule="nonzero"/></svg>