<svg width="24" height="24" viewBox="0 0 24 24" xmlns="http://www.w3.org/2000/svg"><path d="M4.296 12.761c.601 0 .837-.235.837-.84s-.236-.84-.837-.84c-.602 0-.837.235-.837.84s.235.84.837.84zm0-2.689c1.15 0 1.838.693 1.838 1.849 0 1.156-.685 1.845-1.838 1.845-1.15 0-1.839-.692-1.839-1.845 0-1.156.69-1.845 1.839-1.849zM20.8 13.4l1.59-1.523-1.839-1.724H8.874a.5.5 0 01-.457-.3c-.551-1.243-1.704-1.848-3.52-1.848-2.621 0-3.895 1.28-3.895 3.913 0 2.635 1.274 3.916 3.895 3.916 1.715 0 2.84-.511 3.345-1.516.05-.098.168-.4.168-.4a.5.5 0 01.467-.32h5.65l1.2-1.734a.499.499 0 01.4-.215c.165-.027.313.067.41.195l1.06 1.378.83-1.338a.497.497 0 01.776-.09C19.2 11.796 20.8 13.4 20.8 13.4zm2.662-1.892a.501.501 0 01.024.712l-.02.02-2.33 2.232a.5.5 0 01-.699-.01l-1.5-1.502-.876 1.415a.5.5 0 01-.4.235.453.453 0 01-.42-.195l-1.083-1.408-.961 1.388a.5.5 0 01-.41.215H9.21l-.074.165c-.675 1.351-2.141 2.067-4.239 2.067-3.16 0-4.897-1.748-4.897-4.921S1.738 7 4.897 7c2.525 0 3.721 1.106 4.286 2.148H20.75c.127 0 .248.05.342.134l2.37 2.226z" fill="#5CB615" fill-rule="nonzero"/></svg>