<svg width="64" height="64" xmlns="http://www.w3.org/2000/svg"><path d="M35.67 60.271c-.815.027-1.81.027-2.706.027-6.472-.108-27.572-2.51-27.572-28.89 0-26.326 20.939-28.63 27.339-28.71l2.016.018c-6.122 2.985-12.495 9.322-12.495 22.767 0 24.005 20.42 25.547 24.533 25.61.771 0 1.596 0 2.25-.027 2.08-.054 5.638-.359 9.421-1.721-6.776 9.833-18.904 10.854-22.785 10.926m26.917-14.835a1.354 1.354 0 00-1.577-.179c-4.572 2.59-9.493 3.075-12.047 3.137-.646.027-1.435.027-2.152.027-5.127-.08-21.862-1.98-21.862-22.938 0-15.462 8.928-20.616 16.421-22.211a1.344 1.344 0 001.067-1.327 1.35 1.35 0 00-1.102-1.3c-1.9-.35-3.819-.555-5.746-.6L32.722.018c-7.046.09-30.02 2.608-30.02 31.381 0 5.181 1.453 31.077 30.235 31.561.95 0 1.972 0 2.796-.027 4.68-.08 20.446-1.46 27.169-15.964a1.305 1.305 0 00-.314-1.533" fill="#313235" fill-rule="nonzero"/></svg>