<svg width="24" height="24" viewBox="0 0 24 24" xmlns="http://www.w3.org/2000/svg"><path d="M13.376 22.602c-.305.01-.679.01-1.015.01-2.427-.04-10.34-.941-10.34-10.834 0-9.872 7.853-10.736 10.253-10.766l.756.006c-2.296 1.12-4.685 3.496-4.685 8.538 0 9.002 7.657 9.58 9.2 9.604.289 0 .598 0 .843-.01.78-.02 2.115-.135 3.533-.646-2.541 3.688-7.09 4.07-8.545 4.098m10.095-5.563a.508.508 0 00-.592-.068c-1.714.972-3.56 1.153-4.518 1.177-.242.01-.537.01-.806.01-1.923-.03-8.199-.743-8.199-8.602 0-5.798 3.348-7.73 6.158-8.33a.504.504 0 00.4-.497.506.506 0 00-.413-.487 13.659 13.659 0 00-2.155-.225l-1.075-.01C9.629.04 1.013.985 1.013 11.775c0 1.943.545 11.654 11.338 11.835.357 0 .74 0 1.049-.01 1.755-.03 7.667-.548 10.188-5.987a.49.49 0 00-.117-.574" fill="#5CB615" fill-rule="nonzero"/></svg>