<svg width="24" height="24" viewBox="0 0 24 24" xmlns="http://www.w3.org/2000/svg"><path d="M22.619 22.074a.533.533 0 01-.528.538H1.536a.532.532 0 01-.531-.531v-8.676c2.05 1.368 4.955 2.047 9.348 2.168l-.01.01v1.933c0 .302.09.548.272.73.182.17.42.262.713.262h.964c.303 0 .545-.091.713-.263.182-.181.272-.427.272-.729v-1.933c4.363-.11 7.278-.75 9.338-2.067.004 0 .004 8.558.004 8.558zm-11.03-6.48l.687-.01v.01l-.01 1.902-.915.02-.02-1.913.259-.01zM1.006 7.707a.532.532 0 01.524-.538h20.555c.292 0 .531.235.534.53v4.603c-2.03 1.539-5.226 2.245-10.326 2.289h-.39c-5.468 0-8.826-.76-10.897-2.44V7.707zm6.024-2.24c0-2.45 2.1-4.456 4.675-4.456h.219c2.585 0 4.675 2.006 4.675 4.457v.689h-9.57v-.69zm15.058.69h-4.484v-.69C17.603 2.462 15.06 0 11.92 0h-.218C8.57 0 6.02 2.46 6.02 5.469v.689H1.535C.692 6.158 0 6.848 0 7.708v14.366c0 .864.692 1.55 1.536 1.55h20.548c.854 0 1.54-.686 1.54-1.55V7.708c0-.86-.683-1.55-1.537-1.55z" fill="#5CB615" fill-rule="nonzero"/></svg>