<svg width="64" height="64" xmlns="http://www.w3.org/2000/svg"><path d="M10.138 55.278c-2.393 0-4.258-.618-5.53-1.855-1.274-1.237-1.982-3.254-1.982-5.692V22.812c0-.61.53-1.093 1.874-1.712 1.022-.475 4.41-2.133 7.986-3.899 5.97-2.94 13.4-6.597 18.035-8.766 1.604-.753 3.164-.538 4.052.573.457.565.699 1.264.699 2 0 .797-.287 1.595-.816 2.25-.663.833-1.667 1.613-3.352 2.599a2.595 2.595 0 00-1.193 2.93 2.633 2.633 0 002.537 1.919H56.05c3.873.25 4.312 2.519 4.312 4.213 0 2.76-1.48 4.222-4.285 4.222H46.79a2.619 2.619 0 00-2.626 2.6c0 .232.035.474.098.698.126.44.188.941.188 1.488 0 2.008-.815 3.263-2.429 3.72a2.62 2.62 0 00-1.909 2.5c0 .279.045.548.134.826.162.484.243 1.048.243 1.667 0 2.017-.825 3.271-2.457 3.729a2.627 2.627 0 00-1.613 1.281 2.58 2.58 0 00-.18 2.044c.162.484.243 1.049.243 1.658 0 2.6-1.336 3.917-3.971 3.917l-22.373.01zm28.988-3.917c0-.905-.125-1.739-.376-2.474 2.742-.762 4.374-3.011 4.374-6.23 0-.905-.135-1.738-.377-2.482 2.716-.771 4.33-3.012 4.33-6.22a8.02 8.02 0 00-.287-2.188h9.286c4.267 0 6.92-2.617 6.92-6.83 0-4.052-2.465-6.535-6.776-6.813h-.135l-23.637-.018c1.847-1.084 3.137-2.061 4.07-3.226.914-1.157 1.38-2.52 1.38-3.864 0-1.29-.421-2.572-1.273-3.621-1.667-2.08-4.508-2.6-7.233-1.309-4.635 2.178-12.083 5.845-18.071 8.785-3.729 1.837-6.947 3.424-7.924 3.872C2.375 19.209 0 20.31 0 22.813V47.73c0 3.146.986 5.826 2.77 7.556 1.775 1.721 4.257 2.59 7.359 2.59h22.39c4.08 0 6.607-2.491 6.607-6.516z" fill="#313235" fill-rule="nonzero"/></svg>