<svg width="64" height="64" xmlns="http://www.w3.org/2000/svg"><path d="M40.336 0H15.49c-3.137 0-5.817.986-7.538 2.77-1.721 1.766-2.582 4.24-2.582 7.332V32.43c0 4.06 2.492 6.58 6.499 6.58a7.96 7.96 0 002.474-.377c.762 2.734 3.003 4.356 6.212 4.356.905 0 1.738-.134 2.482-.376.771 2.707 3.003 4.311 6.203 4.311.789 0 1.524-.098 2.178-.286v9.259c0 4.258 2.609 6.902 6.813 6.902 4.042 0 6.516-2.465 6.794-6.759 0-.044.01-.098.01-.143V32.34c1.084 1.837 2.052 3.128 3.217 4.06a6.186 6.186 0 003.854 1.372c1.291 0 2.564-.422 3.613-1.264 2.07-1.659 2.581-4.5 1.3-7.216-2.17-4.625-5.827-12.056-8.767-18.026-1.829-3.72-3.406-6.929-3.863-7.897C43.93 2.366 42.837 0 40.336 0m0 2.626c.6 0 1.085.52 1.703 1.874.466 1.004 2.053 4.23 3.89 7.96 2.932 5.96 6.58 13.382 8.74 17.971.753 1.605.538 3.156-.574 4.043-.564.457-1.255.7-1.999.7a3.617 3.617 0 01-2.25-.817c-.824-.663-1.604-1.658-2.599-3.343a2.6 2.6 0 00-2.922-1.192 2.622 2.622 0 00-1.91 2.528v23.529c-.241 3.863-2.518 4.311-4.203 4.311-2.761 0-4.222-1.479-4.222-4.275v-9.26a2.62 2.62 0 00-1.022-2.088 2.571 2.571 0 00-2.268-.43 5.48 5.48 0 01-1.479.179c-2.008 0-3.253-.816-3.71-2.42a2.647 2.647 0 00-1.282-1.596 2.597 2.597 0 00-2.035-.17 5.253 5.253 0 01-1.667.242c-2.017 0-3.263-.825-3.711-2.447a2.599 2.599 0 00-3.317-1.784 5.198 5.198 0 01-1.658.242c-2.59 0-3.9-1.335-3.9-3.962V10.102c0-2.393.62-4.249 1.847-5.513 1.228-1.272 3.245-1.972 5.683-1.972l24.865.01" fill="#313235" fill-rule="nonzero"/></svg>