<svg width="64" height="64" xmlns="http://www.w3.org/2000/svg"><path d="M52.858 55.278c2.394 0 4.258-.618 5.53-1.855 1.274-1.237 1.982-3.254 1.982-5.692V22.812c0-.61-.53-1.093-1.874-1.712-1.021-.475-4.41-2.133-7.986-3.899-5.97-2.94-13.4-6.597-18.035-8.766-1.604-.753-3.164-.538-4.051.573a3.156 3.156 0 00-.7 2c0 .797.287 1.595.816 2.25.663.833 1.667 1.613 3.352 2.599a2.595 2.595 0 011.193 2.93 2.633 2.633 0 01-2.537 1.919H6.947c-3.872.25-4.312 2.519-4.312 4.213 0 2.76 1.48 4.222 4.285 4.222h9.286a2.619 2.619 0 012.626 2.6c0 .232-.035.474-.098.698-.126.44-.188.941-.188 1.488 0 2.008.815 3.263 2.429 3.72a2.62 2.62 0 011.909 2.5c0 .279-.045.557-.134.826a5.253 5.253 0 00-.242 1.667c0 2.017.824 3.271 2.456 3.729.69.188 1.272.654 1.613 1.281a2.58 2.58 0 01.18 2.044 5.198 5.198 0 00-.243 1.658c0 2.6 1.336 3.917 3.971 3.917l22.373.01zM23.87 51.361c0-.905.126-1.739.376-2.474-2.742-.762-4.374-3.011-4.374-6.23 0-.905.135-1.738.377-2.482-2.716-.771-4.33-3.012-4.33-6.22 0-.79.099-1.525.287-2.188H6.911C2.653 31.758 0 29.14 0 24.927c0-4.05 2.465-6.534 6.776-6.812h.135l23.637-.009c-1.847-1.084-3.137-2.061-4.07-3.226a6.19 6.19 0 01-1.38-3.864c0-1.29.421-2.572 1.273-3.621 1.667-2.08 4.509-2.59 7.242-1.309 4.635 2.178 12.083 5.845 18.071 8.785 3.729 1.837 6.947 3.424 7.924 3.872 1.013.466 3.397 1.568 3.397 4.07V47.73c0 3.146-.986 5.826-2.77 7.556-1.774 1.721-4.257 2.59-7.359 2.59h-22.4c-4.078 0-6.606-2.491-6.606-6.516z" fill="#313235" fill-rule="nonzero"/></svg>