<svg width="24" height="24" viewBox="0 0 24 24" xmlns="http://www.w3.org/2000/svg"><path d="M15.126 0H5.808C4.632 0 3.627.37 2.982 1.039c-.646.662-.969 1.59-.969 2.75v8.372c0 1.523.935 2.468 2.437 2.468.34 0 .65-.05.928-.142.286 1.026 1.126 1.634 2.33 1.634.34 0 .652-.05.93-.141.29 1.015 1.127 1.617 2.327 1.617.296 0 .571-.037.817-.108v3.472c0 1.597.978 2.589 2.554 2.589 1.516 0 2.444-.925 2.548-2.535l.003-.054v-8.833c.407.689.77 1.173 1.207 1.522.43.343.941.515 1.445.515.485 0 .962-.158 1.355-.474.777-.622.968-1.688.488-2.706-.814-1.735-2.185-4.521-3.288-6.76-.686-1.395-1.277-2.598-1.449-2.961C16.474.887 16.064 0 15.126 0m0 .985c.225 0 .407.195.639.702.174.377.77 1.587 1.459 2.985 1.099 2.236 2.467 5.019 3.277 6.74.282.601.202 1.183-.215 1.516-.212.171-.47.262-.75.262-.296 0-.598-.108-.844-.306-.309-.249-.601-.622-.974-1.254a.975.975 0 00-1.096-.447.983.983 0 00-.716.948v8.824c-.09 1.448-.945 1.616-1.577 1.616-1.035 0-1.583-.554-1.583-1.603v-3.472a.982.982 0 00-.383-.783.964.964 0 00-.85-.162c-.182.047-.367.07-.555.067-.753 0-1.22-.305-1.392-.907a.974.974 0 00-1.244-.662 1.97 1.97 0 01-.625.09c-.756 0-1.223-.309-1.391-.917a.979.979 0 00-1.244-.67 1.95 1.95 0 01-.622.092c-.971 0-1.462-.501-1.462-1.486v-8.37c0-.897.232-1.593.693-2.067.46-.477 1.216-.74 2.13-.74l9.325.004" fill="#5CB615" fill-rule="nonzero"/></svg>