<svg width="64" height="64" viewBox="0 0 64 64" xmlns="http://www.w3.org/2000/svg"><path d="M55.278 52.858c0 2.394-.618 4.258-1.855 5.53-1.237 1.274-3.254 1.982-5.692 1.982H22.812c-.61 0-1.093-.53-1.712-1.874-.475-1.021-2.133-4.41-3.899-7.986-2.94-5.97-6.597-13.4-8.766-18.035-.753-1.604-.538-3.164.573-4.051a3.156 3.156 0 012-.7c.797 0 1.595.287 2.25.816.833.663 1.613 1.667 2.599 3.352a2.595 2.595 0 002.93 1.193 2.633 2.633 0 001.919-2.537V6.947c.25-3.872 2.519-4.312 4.213-4.312 2.76 0 4.222 1.48 4.222 4.285v9.286a2.619 2.619 0 002.6 2.626c.232 0 .474-.035.698-.098.44-.126.941-.188 1.488-.188 2.008 0 3.263.815 3.72 2.429a2.62 2.62 0 002.5 1.909c.279 0 .557-.045.826-.134.484-.162 1.048-.242 1.667-.242 2.017 0 3.271.824 3.729 2.456.188.69.654 1.272 1.281 1.613a2.58 2.58 0 002.044.18c.484-.162 1.049-.243 1.658-.243 2.6 0 3.917 1.336 3.917 3.971l.01 22.373zM51.361 23.87c-.905 0-1.739.126-2.474.376-.762-2.742-3.011-4.374-6.23-4.374-.905 0-1.738.135-2.482.377-.771-2.716-3.012-4.33-6.22-4.33a8.02 8.02 0 00-2.188.287V6.911C31.767 2.644 29.15 0 24.937 0c-4.052 0-6.535 2.465-6.813 6.776v.135l-.009 23.637c-1.084-1.847-2.061-3.137-3.226-4.07a6.19 6.19 0 00-3.864-1.38c-1.29 0-2.572.421-3.621 1.273-2.08 1.667-2.59 4.509-1.309 7.242 2.178 4.635 5.844 12.083 8.785 18.071 1.837 3.729 3.424 6.947 3.872 7.924.466 1.013 1.568 3.397 4.07 3.397H47.74c3.146 0 5.826-.986 7.556-2.77 1.721-1.774 2.59-4.257 2.59-7.359v-22.4c-.008-4.078-2.5-6.606-6.525-6.606z" fill="#313235" fill-rule="nonzero"/></svg>