<svg width="64" height="64" viewBox="0 0 64 64" xmlns="http://www.w3.org/2000/svg"><path d="M60.87 58.225l-12.038-1.98V3.359L60.87 5.34v52.885zM3.126 5.35L15.792 3.35v52.886L3.126 58.234V5.35zm30.18 2.26l12.9-4.017v52.796l-12.9 4.007V7.608zm-14.888-3.99L30.69 7.6v52.778l-12.27-3.98V3.619zm43.976-.69L47.729.518c-.036-.009-.063.009-.09.009-.044 0-.071-.027-.116-.027-.09 0-.161.036-.242.045-.045.009-.099-.01-.143.009L32.007 5.26 17.504.563c-.045-.018-.099 0-.143-.01C17.27.537 17.19.5 17.1.5c-.036 0-.072.018-.117.027-.027 0-.063-.01-.09-.01L1.611 2.93A1.311 1.311 0 00.5 4.23v55.538a1.31 1.31 0 001.309 1.309c.071 0 .134-.01.206-.018l14.978-2.357 14.593 4.723c.26.09.538.09.789.01L47.604 58.7l14.36 2.366a1.309 1.309 0 001.523-1.29V4.228a1.303 1.303 0 00-1.093-1.3z" fill="#313235" fill-rule="nonzero"/></svg>