<svg width="24" height="24" viewBox="0 0 24 24" xmlns="http://www.w3.org/2000/svg"><path d="M18.755 22.077a.527.527 0 01-.306.481c-.188.094-.404.07-.518-.01l-4.423-4.363a1.57 1.57 0 00-1.103-.447c-.397 0-.8.148-1.106.447l-4.396 4.323a.543.543 0 01-.569.053.524.524 0 01-.302-.48V1.543c0-.296.242-.535.541-.535h11.644c.299 0 .541.24.541.535v20.534h-.003zM18.213 0H6.57c-.86 0-1.56.692-1.56 1.54v20.537c0 .592.333 1.123.87 1.385.538.262 1.167.202 1.691-.201l4.444-4.36a.556.556 0 01.773-.007l4.478 4.407a1.564 1.564 0 001.643.158c.538-.262.87-.793.87-1.385V1.536A1.562 1.562 0 0018.214 0z" fill="#5CB615" fill-rule="nonzero"/></svg>