<svg width="64" height="64" xmlns="http://www.w3.org/2000/svg"><path d="M1.855 11.71C.834 11.71 0 10.896 0 9.892s.834-1.82 1.855-1.82H61.15c1.021 0 1.855.816 1.855 1.82s-.834 1.82-1.855 1.82H1.855zm59.286 18.17c1.021 0 1.855.816 1.855 1.82s-.834 1.82-1.855 1.82H1.855C.834 33.52 0 32.703 0 31.7s.834-1.82 1.855-1.82h59.286zm0 21.809c1.021 0 1.855.815 1.855 1.82 0 1.003-.834 1.819-1.855 1.819H1.855C.834 55.328 0 54.512 0 53.508s.834-1.82 1.855-1.82h59.286z" fill="#313235" fill-rule="nonzero"/></svg>