<svg width="24" height="24" viewBox="0 0 24 24" xmlns="http://www.w3.org/2000/svg"><path d="M13.143 4.193H.982v1.163h10.715c.273 0 .491.266.491.592v5.334c0 .33-.218.592-.49.592H.984v2.393h21.328c.006 0 .013.004.02.004.124-.34.218-.693.252-1.073.037-.403 0-.813-.09-1.227h-8.821c-.272 0-.49-.262-.49-.591V4.193c-.021.004-.038.004-.041 0zm8.93 6.595a7.85 7.85 0 00-1.01-1.53c-2.929-3.525-5.527-4.594-6.898-4.92v6.447h7.909v.003zm-1.891 6.306a7.82 7.82 0 001.539-1.647H.985v1.866c12.918 0 17.22.026 18.48.037.246.013.501-.078.717-.256zM.985 10.691h2.86V6.539H.985v4.152zm3.839 0h2.739V6.539H4.827v4.152h-.003zm3.72 0h2.663V6.539H8.545v4.152zM0 14.859l.003-.014v-3.553c0-.003-.003-.006-.003-.01v-7.68c0-.158.05-.31.145-.42A.446.446 0 01.49 3.01h12.635c.135 0 4.047-.11 8.632 5.412 1.334 1.607 1.94 3.254 1.802 4.897-.199 2.347-1.863 3.994-2.834 4.763a2.001 2.001 0 01-1.25.454h-.017c-1.274-.013-5.67-.037-18.965-.037-.272 0-.49-.265-.49-.591v-3.04S0 14.863 0 14.859zm23.133 4.79c.272 0 .49.265.49.591 0 .326-.218.592-.49.592H.49c-.273 0-.491-.266-.491-.592 0-.326.218-.591.49-.591h22.643z" fill="#5CB615" fill-rule="nonzero"/></svg>