<svg width="24" height="24" viewBox="0 0 24 24" xmlns="http://www.w3.org/2000/svg"><path d="M14.222 15.314c.403-.37.608-.971.608-1.781 0-.814-.208-1.412-.612-1.788-.39-.363-1.005-.545-1.825-.545-.82 0-1.428.182-1.822.545-.403.373-.605.974-.605 1.788 0 .813.202 1.412.605 1.781.39.36 1.002.542 1.822.542.824.003 1.439-.182 1.829-.542zm-1.829-5.156c1.113 0 1.983.279 2.582.837.628.578.944 1.432.944 2.538 0 1.106-.319 1.96-.948 2.534-.598.551-1.468.834-2.581.834-1.11 0-1.98-.283-2.578-.834-.622-.575-.938-1.425-.938-2.534 0-1.11.316-1.963.938-2.538.605-.558 1.472-.837 2.581-.837zm5.17 12.424v-.461c0-.797-.245-1.462-.71-1.926-.51-.508-1.31-.777-2.312-.777H10.25c-.999 0-1.795.27-2.306.777-.46.46-.703 1.126-.703 1.926v.46h10.323zm-3.022-4.206c1.304 0 2.373.38 3.096 1.1.666.658 1.015 1.573 1.015 2.645v1.123a.391.391 0 01-.4.383H6.548a.391.391 0 01-.4-.383V22.12c0-1.076.35-1.99 1.005-2.645.72-.72 1.792-1.1 3.092-1.1h4.296zM20.63 3.264a.504.504 0 01-.044.736.573.573 0 01-.77-.04C16.901.84 12.403 1.052 12.36 1.052c-4.773.054-7.355 2.696-7.382 2.723a.562.562 0 01-.766.037.504.504 0 01-.037-.736C4.289 2.955 7.079.07 12.323.013c.181-.016 5.035-.252 8.306 3.25zm-8.3.178c.155-.01 3.997-.131 6.444 2.49a.504.504 0 01-.044.737.562.562 0 01-.766-.04c-2.097-2.25-5.57-2.152-5.603-2.145-3.446.037-5.5 2.161-5.523 2.182a.565.565 0 01-.77.037.507.507 0 01-.04-.737c.097-.097 2.38-2.48 6.302-2.524zm4.205 5.886a.559.559 0 01-.766-.044c-1.264-1.351-3.365-1.287-3.385-1.287-2.114.02-3.341 1.3-3.351 1.314a.536.536 0 01-.407.171.56.56 0 01-.363-.13.504.504 0 01-.04-.737c.064-.067 1.566-1.633 4.13-1.66.092.003 2.616-.091 4.23 1.637a.507.507 0 01-.048.736z" fill="#5CB615" fill-rule="nonzero"/></svg>