<svg width="64" height="64" viewBox="0 0 64 64" xmlns="http://www.w3.org/2000/svg"><path d="M23.39 0c.753 0 1.363.6 1.363 1.345v3.693h2.895V1.345C27.648.6 28.258 0 29.011 0h5.207c.753 0 1.363.6 1.363 1.345V5.27l2.994-.045V1.345C38.575.6 39.185 0 39.937 0h6.257c.753 0 1.362.6 1.362 1.345V13.05c0 .744-.61 1.345-1.362 1.345h-4.079v5.781c0 .744-.61 1.345-1.362 1.345h-1.39l2.6 22.22c.018.162 0 .314-.045.466h2.205c.753 0 1.363.601 1.363 1.345v6.158h3.262c.762 0 1.372.6 1.372 1.362v8.605c0 .744-.61 1.345-1.363 1.345H14.741c-.753 0-1.363-.6-1.363-1.345v-8.605c0-.744.61-1.344 1.363-1.344h3.262V45.57c0-.744.61-1.345 1.363-1.345h2.5c-.035-.143-.053-.304-.035-.466l2.6-22.22h-1.4c-.752 0-1.362-.601-1.362-1.345v-5.782h-4.284c-.753 0-1.363-.6-1.363-1.344V1.345C16.022.6 16.632 0 17.385 0zm23.996 54.4H16.103v5.916h31.283V54.4zm-4.625-7.503H20.737v4.814h22.024v-4.814zm-6.15-25.366h-9.429l-2.635 22.525c-.01.054-.036.108-.054.161h14.808l-.04-.103-.014-.058-2.635-22.525zm2.78-7.118H24.402v4.437H39.39v-4.437zm5.422-11.742h-3.522v3.863c0 .735-.6 1.336-1.345 1.345l-5.728.09c-.412-.027-.717-.135-.977-.386-.26-.25-.403-.6-.403-.959V2.68h-2.483v3.684c0 .744-.61 1.345-1.362 1.345h-5.62c-.753 0-1.363-.6-1.363-1.345V2.68h-3.272v9.035h26.075V2.671z" fill="#313235" fill-rule="nonzero"/></svg>