<svg width="64" height="64" viewBox="0 0 64 64" xmlns="http://www.w3.org/2000/svg"><path d="M43.106 0c3.298 0 5.674.78 7.27 2.384 1.595 1.605 2.366 3.971 2.366 7.252v43.697c0 3.317-.78 5.701-2.385 7.297-1.586 1.577-3.961 2.34-7.251 2.34H20.383c-3.29 0-5.665-.763-7.251-2.34-1.605-1.587-2.385-3.98-2.385-7.297V9.636c0-3.227.78-5.584 2.376-7.198C14.745.798 17.12 0 20.383 0h22.723zm0 1.793H20.383c-2.76 0-4.715.618-5.987 1.9-1.255 1.264-1.865 3.209-1.865 5.943v43.697c0 5.576 2.277 7.843 7.843 7.843h22.723c5.575 0 7.843-2.267 7.843-7.843V9.636c0-2.788-.6-4.75-1.837-5.988-1.237-1.237-3.2-1.855-5.997-1.855zm-11.34 48.35c1.614 0 2.654.85 2.654 2.67 0 .879-.233 1.524-.663 1.963-.466.476-1.147.709-1.99.709s-1.524-.233-1.99-.709c-.43-.439-.672-1.084-.672-1.963 0-1.82 1.049-2.67 2.662-2.67z" fill="#313235" fill-rule="nonzero"/></svg>