<svg width="24" height="24" viewBox="0 0 24 24" xmlns="http://www.w3.org/2000/svg"><path d="M11.56.121a.495.495 0 01.571 0l11.311 7.882a.509.509 0 01.192.565.497.497 0 01-.478.353h-2.453v10.128h2.39c.275 0 .5.225.5.504v3.603a.5.5 0 01-.5.505H.597a.503.503 0 01-.5-.505v-3.603a.5.5 0 01.5-.504h2.43V8.92H.535a.501.501 0 01-.48-.353.506.506 0 01.195-.565zm11.028 19.936H1.1v2.595h21.49v-2.595zM5.97 8.921H4.03v10.128h1.94V8.92zm10.79 0h-2.921v10.128h2.92V8.92zm-3.923 0h-1.94v10.128h1.94V8.92zm-2.945 0h-2.92v10.128h2.92V8.92zm9.809 0h-1.94v10.128h1.94V8.92zM11.845 1.15l-9.71 6.763h1.384l.01-.004.01.004h2.922l.01-.004c.003 0 .006.004.01.004h3.902l.01-.004.01.004h2.921l.01-.004.01.004h3.903l.01-.004.01.004h2.921l.01-.004.01.004h1.345L11.845 1.15z" fill="#313235" fill-rule="nonzero"/></svg>