<svg width="24" height="24" viewBox="0 0 24 24" xmlns="http://www.w3.org/2000/svg"><path d="M1.1 22.652h21.488v-2.595H1.1v2.595zm2.93-3.603h1.94V8.92H4.03v10.128zm7.815-17.9l9.708 6.764h-1.345c-.003 0-.006-.004-.01-.004-.003 0-.006.004-.01.004h-2.92c-.004 0-.007-.004-.01-.004-.004 0-.008.004-.01.004h-3.903c-.004 0-.007-.004-.01-.004-.004 0-.007.004-.01.004h-2.922c-.003 0-.006-.004-.01-.004-.003 0-.006.004-.01.004H6.481c-.004 0-.007-.004-.01-.004-.004 0-.007.004-.01.004H3.539c-.003 0-.006-.004-.01-.004-.003 0-.006.004-.01.004H2.134l9.711-6.763zm1.994 17.9h2.92V8.92h-2.92v10.128zm-2.942 0h1.94V8.92h-1.94v10.128zm-3.926 0h2.921V8.92h-2.92v10.128zm10.79 0h1.94V8.92h-1.94v10.128zm5.331 0h-2.39V8.92h2.454a.497.497 0 00.478-.353.509.509 0 00-.192-.565L12.132.121a.495.495 0 00-.572 0L.249 8.003a.506.506 0 00-.195.565.501.501 0 00.48.353H3.03v10.128H.599a.5.5 0 00-.502.504v3.603c0 .28.226.505.501.505h22.494a.5.5 0 00.501-.505v-3.603a.503.503 0 00-.5-.504z" fill="#5CB615" fill-rule="nonzero"/></svg>