<svg width="64" height="64" xmlns="http://www.w3.org/2000/svg"><path d="M30.826.323a1.32 1.32 0 011.524 0l30.162 21.02c.475.33.681.94.511 1.505-.17.565-.69.941-1.273.941h-6.543v27.008h6.373c.735 0 1.335.6 1.335 1.344v9.61c0 .743-.591 1.344-1.335 1.344H1.596A1.34 1.34 0 01.26 61.75v-9.609c0-.744.592-1.344 1.336-1.344h6.48V23.789h-6.65a1.337 1.337 0 01-1.283-.94 1.348 1.348 0 01.52-1.507zm29.41 53.163H2.93v6.92h57.304v-6.92zM15.918 23.789h-5.172v27.008h5.172V23.789zm28.773 0h-7.789v27.008h7.79V23.789zm-10.46 0H29.06v27.008h5.172V23.789zm-7.852 0h-7.79v27.008h7.79V23.789zm26.156 0h-5.172v27.008h5.172V23.789zM31.588 3.066L5.692 21.1h3.693c.009 0 .018-.009.027-.009.009 0 .018.01.027.01h7.789c.009 0 .018-.01.027-.01.009 0 .018.01.027.01h10.407c.008 0 .017-.01.026-.01.01 0 .018.01.027.01h7.79c.009 0 .018-.01.027-.01.009 0 .017.01.026.01h10.407c.01 0 .018-.01.027-.01.009 0 .018.01.027.01h7.79c.008 0 .017-.01.026-.01.01 0 .018.01.027.01h3.586L31.588 3.065z" fill="#313235" fill-rule="nonzero"/></svg>