<svg width="64" height="64" xmlns="http://www.w3.org/2000/svg"><path d="M27.007 8.112l.01-5.342 30.305 8.076.403.08v5.37L27.007 8.112zM16.574 46.664c-.242 0-.538.01-.816 0-2.286-.026-7.62-.869-7.62-7.923 0-7.037 5.28-7.852 7.548-7.87.278 0 .583 0 .852.009 2.303.053 7.664.932 7.664 7.914 0 6.983-5.334 7.826-7.628 7.87zm33.523 13.598l-.815.01c-2.286-.028-7.62-.87-7.62-7.925 0-7.036 5.28-7.843 7.548-7.86l.852.008c2.303.054 7.672.932 7.672 7.915-.009 6.965-5.342 7.816-7.637 7.852zm10.398-49.326a2.785 2.785 0 00-2.6-2.752L27.376.054 27.016 0c-1.55 0-2.805 1.246-2.805 2.76v28.46c-2.017-2.061-4.85-2.994-7.593-3.056-.286-.01-.627 0-.94-.01-4.984.036-10.29 2.842-10.29 10.587 0 7.744 5.35 10.577 10.343 10.648.305.01.61.01.914 0 1.668-.027 9.735-.672 10.29-9.618h.054l.036-28.835 30.718 8.192v25.708c-2.016-2.062-4.849-3.003-7.61-3.066l-.932-.009c-4.975.045-10.29 2.842-10.29 10.586 0 7.745 5.351 10.577 10.353 10.65l.896-.01c1.73-.027 10.344-.69 10.344-10.586 0-.161-.036-.287-.045-.448h.045V10.936h-.009z" fill="#313235" fill-rule="nonzero"/></svg>