<svg width="64" height="64" viewBox="0 0 64 64" xmlns="http://www.w3.org/2000/svg"><path d="M59.153 33.206h.977c.78 0 1.408-.628 1.408-1.407 0-.78-.628-1.408-1.408-1.408h-.6l3.558-3.558a1.396 1.396 0 000-1.99 1.412 1.412 0 00-1.99 0L55.541 30.4h-3.729l1.873-1.873a1.412 1.412 0 000-1.99 1.412 1.412 0 00-1.99 0L47.833 30.4h-12.28l11.77-11.769h7.25c.78 0 1.408-.627 1.408-1.407s-.627-1.407-1.407-1.407h-4.428l.296-.296a1.396 1.396 0 000-1.99 1.396 1.396 0 00-1.99 0l-.063.063V9.632c0-.78-.627-1.408-1.407-1.408s-1.408.628-1.408 1.408v6.785L33.41 28.545V16.498l4.123-4.123a1.412 1.412 0 000-1.99 1.412 1.412 0 00-1.99 0l-2.133 2.133V8.646L39.155 2.9a1.396 1.396 0 000-1.99 1.412 1.412 0 00-1.99 0L33.42 4.657V3.68c0-.78-.628-1.407-1.408-1.407-.78 0-1.407.627-1.407 1.407v.977L26.857.91a1.412 1.412 0 00-1.99 0 1.412 1.412 0 000 1.99l5.746 5.746v3.495l-1.757-1.756a1.412 1.412 0 00-1.99 0 1.412 1.412 0 000 1.99l3.747 3.755v12.28L18.844 16.641V9.623c0-.78-.627-1.408-1.407-1.408s-1.408.628-1.408 1.408v4.195l-.295-.296a1.396 1.396 0 00-1.99 0 1.412 1.412 0 000 1.99l.295.296H9.845c-.78 0-1.408.627-1.408 1.407s.628 1.407 1.408 1.407h7.018l11.77 11.77H16.557l-3.863-3.864a1.412 1.412 0 00-1.99 0 1.396 1.396 0 000 1.99l1.873 1.873H8.473l-5.557-5.557a1.412 1.412 0 00-1.99 0 1.396 1.396 0 000 1.99l3.558 3.558h-.6c-.78 0-1.408.628-1.408 1.408 0 .78.628 1.407 1.408 1.407h.968L.917 37.132a1.407 1.407 0 000 1.999c.278.278.636.412.995.412.358 0 .726-.134.995-.412l5.934-5.925h3.872l-2.017 2.017a1.396 1.396 0 000 1.99c.278.277.636.412.995.412s.726-.135.995-.412l4.007-4.007H28.74L16.594 45.352H9.81c-.78 0-1.408.627-1.408 1.407s.628 1.407 1.408 1.407h3.962l-.063.063a1.412 1.412 0 000 1.99c.278.278.636.412.995.412.358 0 .726-.134.995-.412l.296-.296v4.428c0 .78.627 1.407 1.407 1.407s1.407-.627 1.407-1.407v-7.252l11.77-11.769v12.28l-3.747 3.747a1.412 1.412 0 000 1.99 1.396 1.396 0 001.99 0l1.756-1.757v3.729l-5.745 5.746a1.412 1.412 0 000 1.99 1.412 1.412 0 001.99 0l3.746-3.747v.6c0 .78.628 1.408 1.408 1.408.78 0 1.407-.628 1.407-1.408v-.6l3.747 3.747c.278.269.636.412.995.412.358 0 .726-.135.995-.412a1.396 1.396 0 000-1.99l-5.746-5.746v-4.105l2.133 2.124c.278.278.637.412.995.412.359 0 .717-.134.995-.412a1.412 1.412 0 000-1.99l-4.123-4.123V35.178L45.52 47.324v7.01c0 .779.627 1.406 1.407 1.406s1.407-.627 1.407-1.407v-4.195l.063.063c.278.278.636.412.995.412.358 0 .726-.134.995-.412a1.396 1.396 0 000-1.99l-.063-.063h4.195c.78 0 1.407-.627 1.407-1.407s-.627-1.407-1.407-1.407h-7.01l-12.1-12.128h12.28l4.007 4.007c.277.277.636.412.994.412.359 0 .727-.135.995-.412a1.412 1.412 0 000-1.99l-2.016-2.017h3.495l5.925 5.934c.278.278.637.412.995.412.359 0 .726-.134.995-.412a1.407 1.407 0 000-2l-3.926-3.934z" fill="#313235" fill-rule="nonzero"/></svg>