<svg width="24" height="24" viewBox="0 0 24 24" xmlns="http://www.w3.org/2000/svg"><path d="M22.027 12.269h.366a.526.526 0 100-1.056h-.225l1.335-1.334a.523.523 0 000-.746.53.53 0 00-.747 0l-2.084 2.084h-1.398l.702-.703a.53.53 0 000-.746.53.53 0 00-.746 0l-1.448 1.449h-4.606l4.414-4.414h2.72a.526.526 0 00.527-.527.526.526 0 00-.528-.528h-1.66l.11-.111a.523.523 0 000-.746.523.523 0 00-.746 0l-.023.023V3.43a.526.526 0 10-1.056 0v2.544l-4.56 4.548V6.003l1.545-1.546a.53.53 0 000-.746.53.53 0 00-.746 0l-.8.8V3.059L14.528.904a.523.523 0 000-.746.53.53 0 00-.746 0l-1.406 1.405v-.366a.526.526 0 00-.527-.528.526.526 0 00-.528.528v.366L9.916.158a.53.53 0 00-.746 0 .53.53 0 000 .746l2.154 2.155v1.31l-.658-.658a.53.53 0 00-.747 0 .53.53 0 000 .746l1.405 1.409v4.605L6.911 6.057V3.425a.526.526 0 00-.528-.528.526.526 0 00-.528.528v1.573l-.11-.11a.523.523 0 00-.747 0 .53.53 0 000 .746l.111.11H3.536a.526.526 0 00-.528.528c0 .293.236.528.528.528h2.632l4.414 4.413H6.054L4.605 9.765a.53.53 0 00-.746 0 .523.523 0 000 .746l.702.702h-1.54L.939 9.13a.53.53 0 00-.746 0 .523.523 0 000 .747l1.334 1.334h-.225a.526.526 0 100 1.056h.363L.188 13.74a.527.527 0 00.373.904c.135 0 .273-.05.373-.154l2.226-2.222h1.452l-.757.756a.523.523 0 000 .746.524.524 0 00.747 0l1.502-1.502h4.518l-4.555 4.555H3.523a.526.526 0 00-.528.527c0 .293.235.528.528.528h1.485l-.023.024a.53.53 0 00.373.9c.134 0 .272-.05.373-.154l.111-.111v1.66c0 .293.235.528.528.528a.526.526 0 00.527-.528V17.48l4.414-4.413v4.605l-1.405 1.405a.53.53 0 000 .746.523.523 0 00.746 0l.659-.659v1.398l-2.155 2.155a.53.53 0 000 .746.53.53 0 00.747 0l1.405-1.405v.225a.526.526 0 101.055 0v-.225l1.405 1.405c.104.101.239.155.373.155.135 0 .272-.05.373-.155a.523.523 0 000-.746l-2.154-2.155v-1.54l.8.797a.524.524 0 00.746 0 .53.53 0 000-.746l-1.546-1.546v-4.518l4.554 4.555v2.629c0 .292.236.527.528.527a.526.526 0 00.528-.527v-1.574l.023.024a.524.524 0 00.746 0 .523.523 0 000-.746l-.023-.024h1.573a.526.526 0 00.528-.527.526.526 0 00-.528-.528h-2.628l-4.538-4.548h4.605l1.502 1.502a.524.524 0 00.746 0 .53.53 0 000-.746l-.756-.756h1.311l2.222 2.225a.524.524 0 00.746 0 .527.527 0 000-.75l-1.472-1.475z" fill="#5CB615" fill-rule="nonzero"/></svg>