<svg width="64" height="64" viewBox="0 0 64 64" xmlns="http://www.w3.org/2000/svg"><path d="M35.817 49.738a1.315 1.315 0 011.828 0c.502.493.502 1.29 0 1.792-1.72 1.685-3.567 2.564-5.486 2.59h-.107c-1.954 0-3.837-.869-5.593-2.599a1.255 1.255 0 010-1.792 1.315 1.315 0 011.828 0c1.282 1.254 2.626 1.82 3.837 1.855 1.21-.018 2.456-.636 3.693-1.846zm21.396-3.478c1.38-.018 3.702-.547 3.702-3.855 0-3.298-2.295-3.818-3.658-3.827-.26 0-.43 0-.69.009-.08 2.519-.26 4.92-.708 7.583a.8.8 0 00.287.045c.34.045.51.045.627.054l.44-.01zm-3.2-8.48v-6.23c-.018-.537-.045-1.048-.072-1.56H9.822l-.018 1.587.036 6.221c.385 14.369 4.23 20.49 12.827 20.49.529 0 1.022-.026 1.515-.062h15.435c1.13.063 2.107.072 3.093 0h.376c.08-.027.161-.045.251-.054 6.929-.69 10.317-7.17 10.676-20.392zM22.658 11.104c-8.73 0-12.164 4.32-12.755 16.359h9.824c.43-5.746 2.357-10.281 5.763-13.508a16.616 16.616 0 013.174-2.366 29.38 29.38 0 00-5.19-.449l-.206-.009c-.26-.018-.341-.027-.61-.027zm9.788 1.515c-1.99.762-3.72 1.802-5.145 3.156-2.895 2.742-4.553 6.677-4.957 11.688h20.213c-.412-5.02-2.07-8.946-4.957-11.688-1.425-1.354-3.155-2.403-5.154-3.156zm8.964-1.488a29.38 29.38 0 00-5.19.449 17.61 17.61 0 013.173 2.366c3.397 3.227 5.333 7.762 5.764 13.508h8.623c-.924-10.434-4.285-15.641-10.452-16.269-.08-.009-.197-.018-.314-.027l-.233-.027c-.493-.027-.77-.009-1.21-.018h-.161v.018zM7.223 46.26c.107 0 .546-.027.788-.054-.448-2.564-.636-5.19-.717-7.646-.224.009-.35.009-.546.009-1.363.009-3.658.529-3.658 3.827 0 3.308 2.322 3.837 3.702 3.855l.43.009zM57.284 36.04c2.869.027 6.212 1.712 6.212 6.355 0 4.643-3.361 6.347-6.248 6.391h-.52a8.03 8.03 0 01-.788-.053c-.206-.027-.368-.081-.583-.126-1.452 6.042-4.553 11.178-11.366 12.047a1.174 1.174 0 01-.502.108h-.708c-.457.036-1.013.062-1.595.062-.583 0-1.13-.026-1.668-.062H24.262c-.457.036-1.012.062-1.595.062-8.65 0-12.45-5.539-14.118-12.127-.385.045-1.111.09-1.281.098h-.52C3.87 48.752.509 47.057.509 42.406c0-4.653 3.343-6.329 6.212-6.356h.009c.188 0 .313.01.52.018l-.027-4.5L7.24 30H1.79C1.074 30 .5 29.435.5 28.736c0-.7.583-1.264 1.29-1.264h5.531c.53-11.41 3.54-18.904 15.346-18.904.592 0 1.138.027 1.685.027l5.065.044c-.467-.555-.744-1.281-.744-2.24 0-1.085.295-1.919.896-2.483.574-.547 1.407-.816 2.465-.816 1.058 0 1.891.278 2.474.816.6.564.905 1.407.905 2.483 0 .959-.278 1.685-.744 2.24h4.94c.904-.071 2.177-.071 3.262 0l.583.036c.179.018.385.045.564.072C54.757 10.145 56.343 22.4 56.585 31.541v4.518c.314-.009.421 0 .7-.018zM24.2 35.11c.708 0 1.29.565 1.29 1.264v5.925c0 .699-.582 1.264-1.29 1.264-.717 0-1.291-.565-1.291-1.264v-5.925c0-.69.574-1.264 1.29-1.264zm15.435 0c.708 0 1.29.565 1.29 1.264v5.925c0 .699-.582 1.264-1.29 1.264-.717 0-1.29-.565-1.29-1.264v-5.925c0-.69.573-1.264 1.29-1.264z" fill="#313235" fill-rule="nonzero"/></svg>