<svg width="64" height="64" viewBox="0 0 64 64" xmlns="http://www.w3.org/2000/svg"><path d="M35.317 49.358a1.315 1.315 0 011.828 0c.502.493.502 1.29 0 1.793-1.72 1.685-3.567 2.563-5.486 2.59h-.107c-1.954 0-3.837-.87-5.593-2.6a1.255 1.255 0 010-1.792 1.315 1.315 0 011.828 0c1.282 1.255 2.626 1.82 3.837 1.855 1.21-.017 2.456-.636 3.693-1.846zm21.396-3.478c1.38-.018 3.702-.547 3.702-3.854 0-3.299-2.295-3.819-3.658-3.828-.26 0-.43 0-.69.01-.08 2.518-.26 4.92-.708 7.582a.8.8 0 00.287.045c.34.045.51.045.627.054l.44-.009zm-3.2-8.48v-6.23c-.018-.537-.045-1.048-.072-1.559H9.322l-.018 1.587.036 6.22c.385 14.37 4.23 20.491 12.827 20.491.529 0 1.022-.027 1.515-.063h15.435c1.13.063 2.107.072 3.093 0h.376c.08-.026.161-.044.251-.053 6.929-.69 10.317-7.171 10.676-20.392zM22.158 10.726c-8.73 0-12.164 4.32-12.755 16.358h9.824c.43-5.745 2.357-10.28 5.763-13.508a16.616 16.616 0 013.174-2.366 29.38 29.38 0 00-5.19-.448l-.206-.01c-.26-.017-.341-.026-.61-.026zm9.788 1.515c-1.99.762-3.72 1.801-5.145 3.155-2.895 2.743-4.553 6.678-4.957 11.688h20.213c-.412-5.02-2.07-8.945-4.957-11.688-1.425-1.354-3.155-2.402-5.154-3.155zm8.964-1.488a29.38 29.38 0 00-5.19.448 17.61 17.61 0 013.173 2.366c3.397 3.227 5.333 7.763 5.764 13.509h8.623c-.924-10.434-4.285-15.642-10.452-16.27-.08-.008-.197-.017-.314-.026l-.233-.027c-.493-.027-.77-.01-1.21-.018h-.161v.018zM6.723 45.88c.107 0 .546-.027.788-.054-.448-2.563-.636-5.19-.717-7.646-.224.01-.35.01-.546.01-1.363.008-3.658.528-3.658 3.827 0 3.307 2.322 3.836 3.702 3.854l.43.01zm50.061-10.218c2.869.027 6.212 1.712 6.212 6.355 0 4.643-3.361 6.346-6.248 6.39h-.52a8.03 8.03 0 01-.788-.053c-.206-.027-.368-.08-.583-.125-1.452 6.041-4.553 11.177-11.366 12.047a1.174 1.174 0 01-.502.107h-.708c-.457.036-1.013.063-1.595.063-.583 0-1.13-.027-1.668-.063H23.762c-.457.036-1.012.063-1.595.063-8.65 0-12.45-5.54-14.118-12.128-.385.045-1.111.09-1.281.099h-.52C3.37 48.372.009 46.677.009 42.026c0-4.652 3.343-6.329 6.212-6.355h.009c.188 0 .313.009.52.018l-.027-4.5.018-1.569H1.29C.574 29.62 0 29.055 0 28.356c0-.699.583-1.264 1.29-1.264h5.531c.53-11.41 3.54-18.904 15.346-18.904.592 0 1.138.027 1.685.027l5.065.045c-.467-.556-.744-1.282-.744-2.241 0-1.085.295-1.918.896-2.483.574-.547 1.407-.816 2.465-.816 1.058 0 1.891.278 2.474.816.6.565.905 1.407.905 2.483 0 .96-.278 1.685-.744 2.24h4.94c.904-.07 2.177-.07 3.262 0l.583.037c.179.018.385.045.564.072 10.739 1.398 12.325 13.651 12.567 22.794v4.518c.314-.01.421 0 .7-.018zM23.7 34.729c.708 0 1.29.565 1.29 1.264v5.925c0 .7-.582 1.264-1.29 1.264-.717 0-1.291-.565-1.291-1.264v-5.925c0-.69.574-1.264 1.29-1.264zm15.435 0c.708 0 1.29.565 1.29 1.264v5.925c0 .7-.582 1.264-1.29 1.264-.717 0-1.29-.565-1.29-1.264v-5.925c0-.69.573-1.264 1.29-1.264z" fill="#313235" fill-rule="nonzero"/></svg>