<svg width="64" height="64" viewBox="0 0 64 64" xmlns="http://www.w3.org/2000/svg"><path d="M8.22 28.37c1.443 0 2.456-1.004 2.456-2.456s-1.004-2.456-2.456-2.456c-1.444 0-2.456 1.013-2.456 2.456S6.768 28.37 8.22 28.37zm50.76.699a1.315 1.315 0 00-.071 1.855l.071.072c.915.834 1.399 2.205 1.399 3.962 0 3.818-3.487 4.303-4.563 4.365H44.675l-8.767.26c-.708.027-1.273.6-1.264 1.309 0 4.625.01 9.25.027 13.884l.018.395c0 3.63-1.542 5.217-4.858 5.217-1.73 0-3.075-.457-3.881-1.327-.762-.816-1.094-2.008-.977-3.558l.053-.655c.036-.278.054-.538.072-.86a.988.988 0 00.018-.162c.08-3.755.134-8.578-.233-12.513-.574-5.952-6.167-9.214-8.318-10.263v-.395c0-.053.018-.098.018-.152V5.513c0-.054-.01-.099-.018-.153v-.242l8.81-.116c.969 0 1.99-.287 3.264-.655l.717-.206c2.438-.717 5.199-1.524 12.119-1.524 12.056 0 12.54 1.3 13.499 3.9.215 1.425.116 2.572-.377 3.486a1.314 1.314 0 00.538 1.775l.108.054c1.56.654 3.415 1.891 3.415 4.132 0 1.461-.34 2.644-1.004 3.406a1.297 1.297 0 00.134 1.838c.036.036.08.063.117.09 1.13.77 2.474 2.133 2.474 4.203.009 1.506-.457 2.707-1.399 3.568zM12.603 4.132a1.37 1.37 0 011.362 1.309v25.143a1.368 1.368 0 01-1.362 1.3H3.98a1.373 1.373 0 01-1.372-1.38V5.512c0-.762.619-1.38 1.372-1.38h8.623zm49.004 25.905c.744-1.013 1.39-2.492 1.39-4.545 0-2.106-.915-4.051-2.6-5.557.484-.923.878-2.214.878-3.97 0-2.502-1.362-4.59-3.854-5.97.331-1.166.35-2.492.071-4.133C55.816 1.264 53.531 0 41.483 0c-7.305 0-10.38.905-12.853 1.631l-.673.198c-1.147.322-1.963.555-2.59.555l-9.17.126a2.193 2.193 0 00-.798.17 3.948 3.948 0 00-2.796-1.156H3.98A3.984 3.984 0 000 5.513v24.99a3.99 3.99 0 003.98 3.989h8.623c1.075 0 2.043-.43 2.76-1.12 1.668.806 6.481 3.522 6.93 8.192.358 3.738.313 8.363.232 12.02a9.3 9.3 0 01-.08.995l-.063.744c-.161 2.26.421 4.168 1.676 5.513 1.309 1.416 3.317 2.16 5.782 2.16 4.742 0 7.466-2.77 7.466-7.583l-.009-.305-.008-.43c0-4.5-.018-10.057-.018-12.522l7.457-.224h11.178c3.316-.18 7.099-2.116 7.099-6.974-.009-2.304-.654-3.881-1.398-4.921z" fill="#313235" fill-rule="nonzero"/></svg>