<svg width="24" height="24" viewBox="0 0 24 24" xmlns="http://www.w3.org/2000/svg"><path d="M3.082 10.639c.542 0 .921-.377.921-.921 0-.545-.376-.921-.92-.921-.542 0-.922.38-.922.92 0 .542.377.922.921.922zm19.036.262a.493.493 0 00-.027.696l.027.027c.343.312.524.826.524 1.485 0 1.432-1.308 1.614-1.71 1.637h-4.18l-3.286.098a.488.488 0 00-.474.49c0 1.735.003 3.47.01 5.207l.006.148c0 1.361-.578 1.956-1.821 1.956-.65 0-1.153-.171-1.456-.497-.286-.306-.41-.753-.366-1.335l.02-.245c.013-.104.02-.202.027-.323a.37.37 0 00.006-.06c.03-1.409.05-3.217-.087-4.693-.215-2.231-2.313-3.455-3.12-3.848v-.148c0-.02.007-.037.007-.057V2.067c0-.02-.003-.037-.006-.057v-.09l3.304-.044c.363 0 .746-.108 1.223-.246l.27-.077c.914-.269 1.949-.571 4.544-.571 4.52 0 4.702.487 5.062 1.462.08.534.044.964-.141 1.307a.493.493 0 00.202.666l.04.02c.585.245 1.28.71 1.28 1.55 0 .547-.127.991-.376 1.277a.486.486 0 00.05.689c.014.013.03.023.044.034.424.289.928.8.928 1.576.003.565-.171 1.015-.524 1.338zM4.726 1.55c.276 0 .498.218.511.49v9.429a.513.513 0 01-.51.487H1.491a.515.515 0 01-.514-.517V2.067c0-.285.232-.517.514-.517h3.234zm18.377 9.714c.279-.38.52-.935.52-1.704 0-.79-.342-1.52-.974-2.084.181-.347.33-.83.33-1.49 0-.937-.512-1.72-1.446-2.238.124-.437.13-.935.027-1.55C20.93.474 20.074 0 15.556 0c-2.74 0-3.892.34-4.82.612l-.252.074c-.43.12-.736.208-.971.208l-3.44.047a.822.822 0 00-.298.064A1.48 1.48 0 004.726.571H1.492C.67.571 0 1.241 0 2.067v9.372c0 .823.669 1.495 1.492 1.495h3.234c.403 0 .766-.16 1.035-.42.626.303 2.43 1.321 2.599 3.073.134 1.401.117 3.136.087 4.507a3.488 3.488 0 01-.03.373l-.024.28c-.06.846.158 1.562.629 2.066.49.532 1.244.81 2.168.81 1.778 0 2.8-1.038 2.8-2.843l-.003-.114-.004-.162c0-1.687-.007-3.771-.007-4.696l2.797-.084h4.192c1.243-.067 2.662-.793 2.662-2.615-.003-.864-.245-1.455-.524-1.845z" fill="#5CB615" fill-rule="nonzero"/></svg>