<svg width="24" height="24" viewBox="0 0 24 24" xmlns="http://www.w3.org/2000/svg"><path d="M19.77 22.182V7.919h-3.06c-1.162 0-2.167-.386-2.9-1.095-.743-.72-1.133-1.718-1.133-2.864V.988H4.482c-.215 0-.477.246-.477.464v20.73c0 .225.245.453.477.453H19.28c.255 0 .49-.215.49-.453zM13.652 1.203V3.96c0 .877.293 1.62.83 2.15.558.535 1.318.821 2.229.821h2.803l-5.862-5.728zm6.85 5.315a.823.823 0 01.246.581v15.083c0 .78-.676 1.442-1.466 1.442h-14.8c-.77 0-1.455-.673-1.455-1.442V1.452C3.027.692 3.719 0 4.482 0h9.012c.215 0 .41.087.568.239l6.44 6.279zm-3.284 6.924c.293-.296.461-.662.461-1.055 0-.397-.175-.82-.46-1.106a1.543 1.543 0 00-1.026-.464h-.067c-.292 0-.682.087-1.055.464-.263.265-4.058 3.653-6.02 5.411l-1.046 3.08c-.01.04 0 .08.03.1l.068.04c.01 0 .02-.01.03-.01l3.018-1.008.185-.158c4.847-4.336 5.765-5.176 5.882-5.294zm.693-2.864c.47.474.743 1.146.743 1.809a2.506 2.506 0 01-.753 1.768c-.225.215-2.209 2.003-5.923 5.32l-.148.138c-.117.101-.245.179-.38.219l-3.008 1.005c-.118.04-.225.06-.343.06-.027 0-.057-.02-.097-.02-.02 0-.047.01-.078.01H5.971a.494.494 0 010-.988h1.063a1.11 1.11 0 01.04-.444l.528-1.56H5.968a.5.5 0 01-.487-.493c0-.28.225-.494.487-.494h1.953l.165-.495c.057-.178.164-.346.302-.463.4-.357.79-.713 1.183-1.056h-3.6a.5.5 0 01-.487-.494c0-.279.225-.494.487-.494h4.73c.84-.76 1.603-1.452 2.228-2.014H5.971a.494.494 0 010-.988h8.054c.195-.178.323-.286.353-.326 1.11-1.116 2.666-.88 3.533 0z" fill="#5CB615" fill-rule="nonzero"/></svg>