<svg width="64" height="64" viewBox="0 0 64 64" xmlns="http://www.w3.org/2000/svg"><path d="M53.048 59.65V21.619H44.89c-3.102 0-5.782-1.03-7.736-2.922-1.98-1.918-3.02-4.58-3.02-7.637V3.135H12.28c-.573 0-1.273.655-1.273 1.237v55.279c0 .6.655 1.21 1.273 1.21H51.74c.681 0 1.309-.574 1.309-1.21zM36.734 3.71v7.35c0 2.34.78 4.32 2.214 5.737 1.488 1.425 3.514 2.187 5.943 2.187h7.475L36.734 3.709zM55.002 17.88c.421.422.654.977.654 1.551v40.22c0 2.08-1.802 3.845-3.908 3.845H12.28c-2.052 0-3.881-1.793-3.881-3.845V4.372C8.4 2.346 10.246.5 12.281.5h24.032c.573 0 1.093.233 1.514.636L55.002 17.88zm-8.758 18.465c.78-.788 1.228-1.765 1.228-2.814 0-1.058-.466-2.187-1.228-2.95a4.116 4.116 0 00-2.734-1.236h-.179c-.78 0-1.82.233-2.814 1.237-.7.708-10.82 9.743-16.054 14.431l-2.788 8.21c-.027.108 0 .216.08.27l.18.107c.027 0 .054-.027.08-.027l8.05-2.689.493-.421C43.483 38.9 45.931 36.659 46.244 36.345zm1.847-7.637a6.957 6.957 0 011.98 4.823c-.026 1.784-.698 3.397-2.007 4.715-.6.573-5.89 5.342-15.794 14.189l-.394.368a2.834 2.834 0 01-1.013.582l-8.023 2.68c-.313.108-.6.162-.914.162-.072 0-.152-.054-.26-.054-.054 0-.125.027-.206.027h-5.208c-.7 0-1.3-.583-1.3-1.318 0-.708.6-1.318 1.3-1.318h2.833c-.027-.394-.027-.788.107-1.183l1.407-4.159h-4.356c-.699 0-1.3-.61-1.3-1.318 0-.743.601-1.317 1.3-1.317h5.208l.44-1.318a2.76 2.76 0 01.806-1.237c1.067-.95 2.106-1.9 3.155-2.814h-9.6c-.7 0-1.3-.61-1.3-1.318 0-.744.6-1.318 1.3-1.318h12.612c2.24-2.025 4.275-3.872 5.943-5.369H16.252c-.7 0-1.3-.582-1.3-1.317 0-.744.6-1.318 1.3-1.318H37.73c.52-.475.86-.762.941-.87 2.958-2.976 7.108-2.348 9.42 0z" fill="#313235" fill-rule="nonzero"/></svg>