<svg width="64" height="64" viewBox="0 0 64 64" xmlns="http://www.w3.org/2000/svg"><path d="M46.279 11.16c.592.439.941 1.156.941 1.909v37.306c0 .762-.358 1.48-.941 1.919-.385.286-.834.43-1.273.43-.206 0-.412-.027-.61-.09l-19.329-5.847a1.73 1.73 0 01-.059.245l-.77 2.447a1.762 1.762 0 01-.879 1.049c-.26.143-.547.215-.834.215-.179 0-.358-.027-.537-.08l-7.44-2.331a1.797 1.797 0 01-1.174-2.25l.77-2.447.049-.137-12.419-3.756v1.607a.884.884 0 01-.887.887A.884.884 0 010 41.35V22.122c0-.493.394-.887.887-.887s.888.394.888.887l-.001 1.597 42.623-12.891a2.12 2.12 0 011.882.332zm-1.273 1.353c-.036 0-.063.01-.098.018L2.232 25.44c-.197.062-.34.286-.34.546v11.5c0 .26.143.485.34.547L44.908 50.94c.107.036.206.009.304-.063a.596.596 0 00.224-.484V13.078c0-.197-.08-.386-.224-.484a.334.334 0 00-.206-.08zm8.91 29.786l6.283 6.284a.893.893 0 11-1.263 1.263l-6.284-6.283a.893.893 0 111.264-1.264zm-38.06 1.865l-.77 2.447 7.44 2.33.77-2.447-7.44-2.33zm46.055-14.19c.493 0 .897.404.897.897a.899.899 0 01-.897.896H53.02a.899.899 0 01-.897-.896c0-.493.404-.897.897-.897h8.891zm-1.685-18.259c.35.35.35.915 0 1.264l-6.283 6.284a.897.897 0 01-1.264 0 .893.893 0 010-1.264l6.283-6.284a.893.893 0 011.264 0z" fill="#313235" fill-rule="nonzero"/></svg>