<svg width="24" height="24" viewBox="0 0 24 24" xmlns="http://www.w3.org/2000/svg"><path d="M17.53 20.534H4.654a4.658 4.658 0 01-4.652-4.652c0-1.035.36-2.027 1.042-2.87a4.864 4.864 0 012.437-1.63.747.747 0 00.165-.061c.02-4.229 2.918-7.294 6.9-7.294A7.333 7.333 0 0117.23 8.36l.007.013.04-.003a6.095 6.095 0 016.343 6.08c0 3.358-2.733 6.084-6.09 6.084zM10.547 4.7c-1.761 0-3.351.67-4.484 1.886-1.133 1.217-1.748 2.91-1.748 4.78 0 .477-.49.618-.652.662a4.188 4.188 0 00-2.098 1.408c-.584.723-.89 1.57-.89 2.447a3.984 3.984 0 003.98 3.98h12.873a5.423 5.423 0 005.416-5.415 5.42 5.42 0 00-5.412-5.415c-.074 0-.145.003-.225.007-.05.003-.098.003-.145.006-.249.007-.43-.124-.538-.393-.003-.007-.003-.013-.007-.02a6.666 6.666 0 00-6.07-3.933z" fill="#5CB615" fill-rule="nonzero"/></svg>