<svg width="64" height="64" viewBox="0 0 64 64" xmlns="http://www.w3.org/2000/svg"><path d="M47.236 54.02h-34.33C6.066 54.02.5 48.454.5 41.615c0-2.761.96-5.405 2.779-7.655 1.703-2.107 4.006-3.649 6.498-4.348.153-.036.296-.09.44-.161C10.27 18.175 17.997 10 28.619 10a19.554 19.554 0 0117.82 11.554l.017.036.108-.009c.224-.009.448-.018.681-.018 8.946 0 16.233 7.278 16.233 16.233 0 8.955-7.287 16.224-16.242 16.224zM28.62 11.793c-4.697 0-8.937 1.783-11.958 5.028-3.02 3.245-4.66 7.763-4.66 12.747 0 1.272-1.31 1.649-1.74 1.765-2.142.6-4.123 1.936-5.593 3.756-1.56 1.927-2.375 4.186-2.375 6.526a10.623 10.623 0 0010.613 10.612h34.33c7.96 0 14.44-6.48 14.44-14.44 0-7.96-6.471-14.44-14.43-14.44-.198 0-.386.009-.601.018-.135.009-.26.009-.386.018-.663.018-1.147-.332-1.434-1.05-.009-.017-.009-.035-.018-.053a17.776 17.776 0 00-16.188-10.487z" fill="#313235" fill-rule="nonzero"/></svg>