<svg width="24" height="24" viewBox="0 0 24 24" xmlns="http://www.w3.org/2000/svg"><path d="M3.795 18.11c-1.25 0-2.208-.34-2.857-1.01C.316 16.456 0 15.519 0 14.319V6.785c0-1.2.316-2.131.938-2.767.642-.658 1.603-.991 2.854-.991l16.026-.01c1.25 0 2.212.333 2.854.991.622.64.938 1.57.938 2.767v7.533c0 1.2-.316 2.137-.938 2.783-.645.669-1.606 1.008-2.857 1.008l-16.02.01zM19.822 3.69L3.795 3.7C1.695 3.7.672 4.707.672 6.784v7.533c0 1.021.252 1.798.75 2.316.514.534 1.31.803 2.373.803l16.027-.01c1.059 0 1.859-.269 2.373-.803.497-.515.75-1.295.75-2.316V6.775c-.004-2.078-1.026-3.086-3.123-3.086zM.336 20.085A.337.337 0 010 19.75c0-.185.151-.337.336-.337l22.941-.01c.185 0 .336.152.336.336a.337.337 0 01-.336.337l-22.94.01z" fill="#5CB615" fill-rule="nonzero"/></svg>