<svg width="24" height="24" viewBox="0 0 24 24" xmlns="http://www.w3.org/2000/svg"><path d="M7.736 5.96c-.141-.131-.215-.326-.215-.582 0-.255.07-.454.215-.585.138-.127.336-.191.595-.191.256 0 .457.064.595.191.141.131.215.33.215.585 0 .256-.074.45-.215.582-.138.127-.34.191-.595.191-.255 0-.454-.067-.595-.191zm7.607.191c-.256 0-.457-.064-.595-.191-.145-.131-.215-.326-.215-.582 0-.255.07-.45.215-.581.138-.128.34-.195.595-.195.255 0 .457.064.595.195.144.13.215.326.215.581 0 .256-.074.45-.215.582-.141.127-.343.191-.595.191zm6.228 12.723c.007-.067 0-.155-.003-.188-.04-.504-.178-.837-.454-1.093-.299-.279-.756-.417-1.358-.417-.601 0-1.062.142-1.361.42-.222.206-.363.495-.427.861l-.027.266c-.007.07-.017.134-.017.208 0 .024-.013.047-.016.07l-.216 2.03c.004.532.142.932.42 1.184.266.246.683.373 1.227.373.545 0 .955-.124 1.22-.373.081-.074.142-.161.199-.255 0 0 .558-2.155.766-2.888a.687.687 0 00.047-.198zm-4.608-.82c.124-.48.346-.891.686-1.204.259-.235.571-.413.927-.534.04-.366.074-.743.074-1.143 0-1.855-.45-3.334-1.33-4.413-.175.222-.34.447-.549.642-1.16 1.069-2.816 1.61-4.907 1.62v.003c-.01 0-.017-.003-.027-.003-.007 0-.013.003-.024.003v-.003c-2.097-.01-3.747-.551-4.91-1.62-.206-.192-.374-.42-.548-.642-.881 1.079-1.331 2.558-1.331 4.413 0 .4.03.777.073 1.143.36.118.67.3.928.534.34.313.558.723.683 1.204.026.05.047.104.053.161l.007.057c.014.06.014.128.024.192l.181 1.734c1.12.978 2.7 1.463 4.834 1.463h.006v-.004h.05v.004h.008c2.134 0 3.714-.485 4.833-1.463l.185-1.734c.01-.064.01-.131.024-.192l.006-.057a.341.341 0 01.044-.161zM5.558 22.215c.276-.252.417-.652.42-1.183l-.218-2.03c-.004-.024-.014-.047-.014-.07 0-.075-.01-.142-.017-.21l-.026-.265c-.068-.366-.206-.655-.427-.86-.303-.28-.76-.42-1.362-.42-.601 0-1.059.14-1.358.416-.275.256-.413.592-.453 1.093-.004.03-.01.12-.004.188a.946.946 0 00.044.195c.205.733.766 2.887.766 2.887.057.098.121.185.199.256.268.249.679.373 1.223.373.545 0 .958-.124 1.227-.37zM2.926 12.3c-1.556 1.748-.387 3.056.188 3.54.074.06.148.12.212.168.05.043.135.1.229.161.12-.01.232-.027.356-.027.034 0 .06.007.094.007-.027-.32-.06-.635-.06-.975 0-1.724.373-3.166 1.072-4.33-.693.35-1.65.962-2.09 1.456zm2.498-8.185c.299-.985.78-1.825 1.479-2.474.08-.074.184-.127.272-.198-.464-.323-1.264-.605-2.094.333-.918 1.028-.326 1.795.107 2.158l.138.114.098.067zm6.413-3.075c-1.815.006-3.224.457-4.185 1.344C6.657 3.308 6.15 4.7 6.15 6.524c0 1.826.507 3.214 1.502 4.135.864.796 2.114 1.22 3.684 1.3V7.934a1.698 1.698 0 01-.773-.397 1.388 1.388 0 01-.413-.655 1.356 1.356 0 01-.03-.283c-.004-.124.026-.185.053-.245a1.48 1.48 0 01.343-.48c.323-.297.763-.448 1.297-.468v-.007c.01 0 .017.004.024.004.01 0 .017-.004.027-.004v.007c.531.02.971.168 1.297.467.148.138.256.3.343.48.027.061.057.122.054.246a1.356 1.356 0 01-.03.283c-.07.258-.219.48-.41.655-.209.195-.47.323-.773.397v4.027c1.566-.084 2.82-.508 3.68-1.301.999-.921 1.506-2.31 1.506-4.135 0-1.825-.507-3.216-1.506-4.14-.964-.888-2.373-1.342-4.188-1.345zm6.76.732c-.834-.937-1.63-.655-2.094-.332.087.07.188.124.268.198.7.649 1.18 1.49 1.48 2.474.033-.024.073-.05.1-.067l.138-.115c.43-.36 1.025-1.126.108-2.158zM20.745 12.3c-.437-.494-1.395-1.106-2.088-1.452.703 1.163 1.072 2.605 1.072 4.33 0 .339-.033.655-.063.974.033 0 .06-.006.094-.006.127 0 .238.016.356.026.09-.06.175-.117.229-.16.063-.051.14-.112.215-.169.574-.487 1.74-1.798.185-3.543zm1.912 6.48s0 .075.004.075c0 0-.004.1-.017.164-.014.095-.06.276-.064.3l-.793 2.978c-.004.01-.014.017-.017.027-.01.027-.01.057-.027.084a2.09 2.09 0 01-.427.551c-.477.44-1.14.662-1.973.662-.837 0-1.5-.222-1.977-.659-.386-.353-.621-.83-.709-1.415v-.003c-1.233.77-2.81 1.153-4.79 1.153h-.064c-1.98 0-3.553-.383-4.79-1.153v.003c-.09.582-.322 1.059-.712 1.415-.474.437-1.14.66-1.973.66-.834 0-1.5-.223-1.973-.663a2.145 2.145 0 01-.427-.551c-.017-.027-.017-.057-.027-.084-.004-.01-.017-.017-.017-.027l-.793-2.978a5.408 5.408 0 01-.064-.3c-.014-.067-.017-.164-.017-.164v-.074c.017-.85.28-1.452.787-1.93.148-.134.312-.245.494-.342-1.24-1.11-1.92-2.938-.188-4.881.722-.81 2.615-1.903 3.421-2.067.024-.004.105-.027.105-.027-.36-.857-.562-1.866-.562-3.009 0-.497.04-.961.108-1.405-.064-.006-.131-.013-.188-.043-.03-.017-.088-.047-.111-.068a2.833 2.833 0 01-.239-.168l-.165-.134c-.907-.76-1.506-2.161-.222-3.607C5.541-.35 7.07 0 7.992.736a.54.54 0 01.08.098C9.091.296 10.338.01 11.81.004V0h.05v.003c1.473.007 2.716.296 3.738.83.024-.033.047-.07.081-.097C16.6 0 18.129-.346 19.42 1.1c1.288 1.446.686 2.844-.218 3.607l-.165.134a2.29 2.29 0 01-.346.236c-.057.027-.125.033-.188.043.067.444.107.908.107 1.405 0 1.143-.205 2.152-.561 3.009 0 0 .077.023.104.027.803.168 2.7 1.257 3.422 2.067 1.73 1.943 1.052 3.771-.188 4.88.178.098.35.209.494.343.5.478.76 1.083.776 1.93z" fill="#5CB615" fill-rule="nonzero"/></svg>