<svg width="64" height="64" viewBox="0 0 64 64" xmlns="http://www.w3.org/2000/svg"><path d="M45.372.5c.039 0 .078.003.116.008L45.372.5a.888.888 0 01.427.11c.076.04.146.09.21.15l17.075 17.076c.181.181.268.42.262.658l-.002 42.241c0 1.81-1.04 2.86-2.85 2.86-1.04-.01-2.08-.01-3.111-.01h-38.74c-1.892 0-2.94-1.057-2.94-2.957v-22.05c-4.682-.159-8.358-1.495-10.918-3.963C1.943 31.873.5 27.767.5 22.416s1.443-9.457 4.285-12.2c2.561-2.477 6.24-3.806 10.927-3.963V3.43c0-1.846 1.066-2.913 2.93-2.913.49-.004 1.72-.008 3.435-.01h.59l.307-.001h.64l.331-.001h.685l.354-.001h.725l.373-.001 1.545-.001h2.04l.42-.001h2.577L33.1.5 45.371.5zm-.897 1.801l-10.153.001h-.438l-5.917.001h-.397l-2.626.001h-.35l-1.645.001h-.306l-1.135.001h-.26l-.724.001h-.629l-.187.001h-.493l-.14.001h-.242l-.19.002c-.87 0-1.14.26-1.14 1.12l.001 2.818c4.746.138 8.468 1.468 11.052 3.968 2.841 2.742 4.285 6.848 4.285 12.199s-1.444 9.457-4.285 12.2c-2.586 2.492-6.304 3.83-11.061 3.967v22.045c0 .914.25 1.165 1.147 1.165h41.851c.816 0 1.058-.251 1.067-1.067V19.377h-6.646l-.249-.001h-.689l-.21-.001h-.388l-.506-.002-.287-.001c-.267-.001-.472-.002-.616-.004-2.162-.008-3.923-.723-5.192-2.039l-.009-.009c-1.472-1.526-2.283-3.86-2.293-6.835V2.301zm8.354 47.248c.493 0 .897.403.897.896a.899.899 0 01-.897.896H26.333a.899.899 0 01-.896-.896c0-.493.403-.896.896-.896H52.83zm.01-10.488c.492 0 .896.404.896.897a.907.907 0 01-.906.896H30.035a.899.899 0 01-.896-.896c0-.493.403-.897.896-.897h22.803zM16.67 8.03c-4.67 0-8.246 1.175-10.648 3.478-2.483 2.394-3.738 6.06-3.738 10.909 0 4.85 1.255 8.515 3.738 10.909C8.415 35.637 12 36.803 16.67 36.803s8.247-1.166 10.649-3.478c2.474-2.394 3.738-6.06 3.738-10.909 0-4.85-1.255-8.515-3.738-10.909C24.926 9.195 21.34 8.03 16.67 8.03zm-.134 3.37c.493 0 .896.404.896.897v.966c1.297.142 2.494.529 3.451 1.123.43.26.663.636.663 1.04 0 .591-.484 1.075-1.075 1.075a1.648 1.648 0 01-.681-.188l-.01-.01c-.794-.439-1.56-.717-2.348-.852v5.756c2.378.34 5.119 1.485 5.119 4.93.015 2.917-1.917 4.849-5.118 5.241v1.66a.899.899 0 01-.897.897.899.899 0 01-.897-.896v-1.606a9.68 9.68 0 01-4.903-1.702c-.367-.26-.546-.582-.546-1.004a1.113 1.113 0 011.129-1.102c.269.009.529.09.744.242 1.19.793 2.385 1.255 3.576 1.386v-6.028l-.109-.015c-4.063-.616-4.928-2.961-4.928-4.845 0-2.929 1.954-4.89 5.037-5.136v-.932c0-.493.404-.896.897-.896zm36.293 17.175c.493 0 .897.403.897.896a.899.899 0 01-.897.897H35.754a.899.899 0 01-.897-.897c0-.493.404-.896.897-.896h17.075zM17.434 23.48v5.726c1.81-.301 2.893-1.385 2.893-2.972 0-1.084-.363-2.243-2.893-2.754zm-4.61-5.241c0 1 .34 2.185 2.814 2.704l.002-5.557c-1.751.197-2.815 1.25-2.815 2.853zm39.715-.663l.57.001h.522l.193.001.632.001h.715l.256.001h.54l.283.001h.594l.31.001h.65l.337.001h1.44l.383.001h.314L46.268 3.567v6.92c.009 2.635.753 7.063 5.692 7.09h.579z" fill="#313235" fill-rule="nonzero"/></svg>