<svg width="24" height="24" viewBox="0 0 24 24" xmlns="http://www.w3.org/2000/svg"><path d="M16.857 0a.36.36 0 01.239.097l6.403 6.404a.334.334 0 01.098.228v15.859c0 .68-.39 1.073-1.07 1.073l-.584-.003H6.833c-.709 0-1.102-.397-1.102-1.11V14.28c-1.756-.06-3.134-.561-4.094-1.487C.571 11.765.03 10.225.03 8.218c0-2.006.541-3.546 1.607-4.574.96-.93 2.34-1.428 4.098-1.487V1.1c0-.692.4-1.092 1.099-1.092C7.61 0 13.324 0 16.857 0zm-.337.675l-5.602.001c-2.014 0-3.687.001-4.084.003-.326 0-.427.097-.427.42v1.057h.023c1.769.056 3.156.554 4.121 1.488 1.066 1.028 1.607 2.568 1.607 4.574 0 2.007-.541 3.547-1.607 4.575-.97.935-2.363 1.437-4.147 1.488v8.267c0 .343.093.437.43.437h15.694c.306 0 .396-.094.4-.4V7.079H20l-.67-.003c-.841-.004-1.52-.292-2-.822-.52-.572-.806-1.428-.81-2.51V.676zm3.134 17.718c.185 0 .336.152.336.336a.337.337 0 01-.336.337H9.718a.337.337 0 01-.336-.337c0-.184.15-.336.336-.336h9.936zm.003-3.932c.185 0 .336.15.336.336a.34.34 0 01-.34.336h-8.547a.337.337 0 01-.336-.336c0-.185.151-.336.336-.336h8.551zM6.094 2.824c-1.751 0-3.092.44-3.993 1.304C1.17 5.025.699 6.4.699 8.218c0 1.819.47 3.194 1.402 4.091.897.867 2.242 1.304 3.993 1.304s3.093-.437 3.993-1.304c.928-.897 1.402-2.272 1.402-4.09 0-1.819-.47-3.194-1.402-4.091-.897-.867-2.242-1.304-3.993-1.304zm-.05 1.263c.185 0 .336.152.336.337v.362a3.11 3.11 0 011.294.42c.161.098.249.24.249.39A.405.405 0 017.519 6a.618.618 0 01-.255-.07l-.003-.004a2.767 2.767 0 00-.881-.32v2.159l.05.007c.88.137 1.87.574 1.87 1.841.005 1.094-.72 1.819-1.92 1.966v.623a.337.337 0 01-.336.336.337.337 0 01-.336-.336v-.604l-.041-.001a3.629 3.629 0 01-1.798-.636.436.436 0 01-.205-.376.417.417 0 01.423-.414.51.51 0 01.28.091c.445.298.894.47 1.34.52V8.521l-.136-.02C4.13 8.247 3.818 7.39 3.818 6.698c0-1.098.733-1.833 1.89-1.926v-.35c0-.184.15-.336.336-.336zm13.61 6.44a.337.337 0 010 .672l-6.404.001a.337.337 0 01-.336-.336c0-.185.152-.336.336-.336h6.404zM6.382 8.618l-.001 2.148c.679-.113 1.085-.52 1.085-1.115 0-.406-.137-.84-1.084-1.032zm-1.73-1.965c0 .375.127.82 1.054 1.014V5.582c-.655.075-1.054.47-1.054 1.07zm16.97-.246h.825L17.193 1.15v2.595c.004.988.283 2.648 2.135 2.658l.504.001 1.79.002z" fill="#313235" fill-rule="nonzero"/></svg>