<svg width="64" height="64" viewBox="0 0 64 64" xmlns="http://www.w3.org/2000/svg"><path d="M2.355 21.842A1.852 1.852 0 01.5 19.996V2.356A1.86 1.86 0 012.355.5h17.64a1.86 1.86 0 011.856 1.855 1.86 1.86 0 01-1.855 1.856H4.21v15.785a1.852 1.852 0 01-1.856 1.846zm17.677 37.952a1.86 1.86 0 011.855 1.856 1.86 1.86 0 01-1.855 1.855H2.355A1.865 1.865 0 01.5 61.65V44.01c0-1.023.825-1.856 1.846-1.856A1.887 1.887 0 014.202 44v15.785c.009.01 15.83.01 15.83.01zM61.64 42.118a1.887 1.887 0 011.846 1.855V61.65a1.844 1.844 0 01-1.846 1.846H43.964a1.86 1.86 0 01-1.855-1.855 1.86 1.86 0 011.855-1.856h15.83v-15.82c0-1.022.825-1.847 1.847-1.847zM61.64.5c1.021 0 1.855.825 1.855 1.846v17.722a1.844 1.844 0 01-1.846 1.846 1.844 1.844 0 01-1.847-1.846V4.202H44a1.86 1.86 0 01-1.855-1.856C42.145 1.325 42.978.5 44 .5h17.64z" fill="#313235" fill-rule="nonzero"/></svg>