<svg width="64" height="64" viewBox="0 0 64 64" xmlns="http://www.w3.org/2000/svg"><path d="M60.449 30.116c-.323.376-.78.582-1.291.582l-6.48-.018C50.471 17.495 43.892 10.8 38.792 7.536c6.382.977 11.518 3.37 15.282 7.207 3.46 3.532 5.71 8.274 6.714 14.09.072.45-.063.924-.34 1.283zM33.62 7.832c4.06 1.632 13.517 7.09 16.304 22.84l-16.304-.045V7.832zM14.08 30.582c2.671-15.247 12.908-21.1 16.843-22.804v22.84l-16.843-.036zm-10.084-.287a2.226 2.226 0 01-.394-.34 1.666 1.666 0 01-.377-1.31c1.03-5.808 3.334-10.532 6.83-14.027 3.908-3.944 9.287-6.338 16-7.198-5.261 3.352-12.594 10.263-14.718 23.153l-6.445-.018a1.858 1.858 0 01-.896-.26zm59.446-1.91c-1.084-6.346-3.585-11.553-7.43-15.488C50.768 7.545 43.247 4.686 33.62 4.39V1.836C33.62 1.1 33.02.5 32.267.5c-.744 0-1.353.6-1.353 1.336v2.572c-9.78.17-17.462 2.967-22.786 8.354-3.89 3.881-6.436 9.08-7.565 15.427-.215 1.2.125 2.456.968 3.486.34.377.672.664 1.03.888a4.555 4.555 0 002.304.654l26.049.063v23.61c.026 3.648 3.047 6.606 6.758 6.606 3.72 0 6.75-2.985 6.75-6.65 0-.736-.6-1.336-1.354-1.336-.744 0-1.353.6-1.353 1.335 0 2.196-1.82 3.989-4.052 3.989-2.232 0-4.051-1.793-4.051-3.989V33.298l25.528.071a4.42 4.42 0 003.388-1.568c.798-.986 1.13-2.232.914-3.415z" fill="#313235" fill-rule="nonzero"/></svg>