<svg width="64" height="64" viewBox="0 0 64 64" xmlns="http://www.w3.org/2000/svg"><path d="M50.084 5.253c3.469 3.28 5.244 8.372 5.19 15.121a22.704 22.704 0 01-4.822 15.534 16.845 16.845 0 01-7.306 4.778 32.94 32.94 0 01-10.433 1.47h-8.345v19.522c0 .726-.583 1.31-1.31 1.31H9.38a1.31 1.31 0 01-1.308-1.31V1.327A1.31 1.31 0 019.38.017H29.98c4.033-.08 8.058.315 11.993 1.184a17.606 17.606 0 018.112 4.052zm-1.515 28.871a20.33 20.33 0 004.15-13.777c0-5.96-1.488-10.496-4.41-13.122a15.25 15.25 0 00-6.857-3.487A49.33 49.33 0 0029.98 2.635H10.68V60.38h11.088V40.82c0-.726.583-1.309 1.3-1.309h9.645a30.02 30.02 0 009.644-1.335 14.085 14.085 0 006.212-4.052zM34.936 10.505a8.314 8.314 0 013.908 1.945 10.873 10.873 0 012.608 8.112 11.826 11.826 0 01-2.841 8.606 8.265 8.265 0 01-3.595 2.15c-1.712.395-3.46.565-5.217.53h-6.731a1.297 1.297 0 01-1.3-1.31V11.295c0-.726.583-1.309 1.3-1.309h6.39a24.453 24.453 0 015.478.52zm1.828 16.798a9.359 9.359 0 002.062-6.669 8.42 8.42 0 00-1.874-6.194 5.464 5.464 0 00-2.608-1.308 22.885 22.885 0 00-4.876-.53h-5.083v16.62h5.307a18.18 18.18 0 004.616-.449 5.4 5.4 0 002.456-1.47z" fill="#313235" fill-rule="nonzero"/></svg>