<svg width="64" height="64" viewBox="0 0 64 64" xmlns="http://www.w3.org/2000/svg"><path d="M45.153 40.423a1.408 1.408 0 00-.43.045c-4.141 1.317-9.044-.807-14.575-6.347-5.503-5.503-7.458-11.563-6.167-15.686.063-.215 2.878-3.03 8.435-8.444.287-.331.61-.627.932-.94l.547-.539c3.585-3.576 7.189-5.369 10.792-5.369 3.603 0 7.207 1.793 10.783 5.37 7.055 7.054 7.162 14.198.34 21.243L45.154 40.423zM30.094 55.482l-.26.26a4.38 4.38 0 01-.412.403c-6.92 6.48-13.947 6.256-20.894-.681-7.162-7.162-7.17-14.414-.027-21.558l.547-.574c.305-.322.6-.636.995-.977L20.78 21.617c-.17 4.42 2.295 9.242 7.458 14.405 4.92 4.93 9.555 7.43 13.804 7.502L30.094 55.482zm1.91-48.852l-.511.484c-.386.376-.771.735-1.04 1.058L8.25 30.383c-.376.332-.744.709-1.12 1.103l-.511.52c-8.166 8.166-8.157 17.165.018 25.34 4.096 4.105 8.417 6.149 12.719 6.149 4.025 0 8.031-1.784 11.84-5.351.207-.17.386-.359.575-.565l25.94-25.94c7.825-8.077 7.7-16.96-.358-25-8.166-8.184-17.166-8.184-25.35-.009z" fill="#313235" fill-rule="nonzero"/></svg>