<svg width="64" height="64" xmlns="http://www.w3.org/2000/svg"><path d="M44.495 60.307c-7.682 0-12.486-2.743-14.61-8.229a1.279 1.279 0 00-.341-.806c-.538-1.668-.798-3.622-.887-5.764.197.108.403.188.645.188h30.387c.242 0 .448-.08.636-.188-.377 9.923-5.53 14.799-15.83 14.799zM7.745 51.2c-3.362-3.37-5.038-6.785-4.975-10.147.054-3.245 1.72-6.543 4.957-9.788l.51-.529c.278-.296.556-.591.933-.914l9.483-9.51c.206 3.88 2.528 8.076 6.965 12.53.708.7 1.39 1.336 2.08 1.928-1.193 2.67-1.775 5.88-1.775 9.582 0 2.805.34 5.315 1.022 7.538-6.365 5.934-12.818 5.71-19.2-.69zM29.91 9.017c.26-.304.556-.582.852-.86l.52-.511c6.606-6.615 13.293-6.615 19.89 0 6.31 6.328 6.535 12.746.78 19.083-2.16-.663-4.625-1.021-7.449-1.021-7.413 0-12.495 2.357-15.453 6.668a43.804 43.804 0 01-1.542-1.434c-5.073-5.1-7.054-9.6-5.88-13.4.027-.09.018-.17.027-.251l8.255-8.274zm30.423 34.179c-.197-.108-.403-.189-.637-.189H29.311c-.242 0-.448.081-.645.189.385-9.923 5.539-14.8 15.83-14.8 10.298 0 15.452 4.886 15.838 14.8zm-5.692-15.418c6.015-7.18 5.486-14.951-1.578-22.032-7.637-7.664-16.044-7.655-23.681 0l-.475.466c-.359.34-.709.681-.969.977L7.35 27.859c-.358.314-.708.663-1.049 1.03l-.466.476C2.097 33.12.161 37.038.09 40.999c-.072 4.124 1.864 8.184 5.763 12.092 3.828 3.846 7.861 5.764 11.877 5.764 3.478 0 6.947-1.452 10.272-4.33 2.716 5.441 8.121 8.462 16.502 8.462 12.666 0 18.59-6.875 18.59-18.644-.008-7.996-2.742-13.705-8.452-16.565z" fill="#313235" fill-rule="nonzero"/></svg>