<svg width="24" height="24" viewBox="0 0 24 24" xmlns="http://www.w3.org/2000/svg"><path d="M16.686 22.615c-2.881 0-4.683-1.028-5.48-3.086a.48.48 0 00-.127-.302c-.202-.625-.3-1.358-.333-2.161.074.04.151.07.242.07h11.395c.09 0 .168-.03.239-.07-.141 3.72-2.074 5.55-5.936 5.55zM2.904 19.2c-1.26-1.264-1.889-2.545-1.865-3.805.02-1.217.645-2.454 1.858-3.67l.192-.199c.104-.11.208-.222.35-.343l3.556-3.566c.077 1.455.948 3.028 2.612 4.699.265.262.52.5.78.723-.448 1.001-.666 2.205-.666 3.593 0 1.052.128 1.993.383 2.827-2.386 2.225-4.807 2.141-7.2-.259zm8.313-15.818a4.13 4.13 0 01.32-.323l.194-.192c2.477-2.48 4.985-2.48 7.459 0 2.366 2.373 2.45 4.78.292 7.157-.81-.25-1.734-.384-2.793-.384-2.78 0-4.686.884-5.795 2.501-.191-.171-.38-.343-.578-.538-1.903-1.912-2.645-3.6-2.205-5.025.01-.033.007-.064.01-.094l3.096-3.102zm11.408 12.816a.494.494 0 00-.238-.07H10.992c-.091 0-.168.03-.242.07.144-3.72 2.077-5.55 5.936-5.55 3.862 0 5.795 1.833 5.94 5.55zm-2.134-5.781c2.255-2.693 2.057-5.607-.592-8.262-2.864-2.874-6.017-2.871-8.88 0l-.179.174a6.127 6.127 0 00-.363.367l-7.72 7.751a5.31 5.31 0 00-.394.387l-.175.178C.787 12.42.061 13.889.034 15.375c-.027 1.546.699 3.069 2.161 4.534 1.435 1.442 2.948 2.162 4.454 2.162 1.304 0 2.605-.545 3.852-1.624 1.018 2.04 3.045 3.173 6.188 3.173 4.75 0 6.972-2.578 6.972-6.991-.004-2.999-1.03-5.14-3.17-6.212z" fill="#5CB615" fill-rule="nonzero"/></svg>