<svg width="24" height="24" viewBox="0 0 24 24" xmlns="http://www.w3.org/2000/svg"><path d="M11.829.027c3.768 0 6.689.975 8.685 2.9 2.07 1.997 3.123 4.996 3.123 8.908.003 7.721-4.08 11.805-11.808 11.805C4.108 23.64.024 19.56.024 11.835.024 4.111 4.104.027 11.829.027zm0 .672C4.444.7.696 4.447.696 11.835c0 7.385 3.744 11.133 11.133 11.133 7.391 0 11.136-3.744 11.136-11.133C22.968 4.444 19.22.7 11.829.7zM8.175 6.504c.185 0 .336.151.336.336v10a.337.337 0 01-.336.336.337.337 0 01-.336-.336v-10c0-.185.15-.336.336-.336zm7.254-.033c.184 0 .336.15.336.336v10a.337.337 0 01-.336.336.337.337 0 01-.337-.336v-10c0-.185.152-.336.337-.336z" fill="#5CB615" fill-rule="nonzero"/></svg>