<svg width="24" height="24" viewBox="0 0 24 24" xmlns="http://www.w3.org/2000/svg"><path d="M22.044 5.007c.595 0 1.593.285 1.593 2.211l.003 8.69c0 1.926-.998 2.211-1.593 2.211h-2.74c-.591 0-1.58-.285-1.58-2.211l-.003-8.69c0-1.922.989-2.211 1.58-2.211h2.74zm-7.768 0c.92 0 1.63.252 2.107.75.46.48.696 1.176.696 2.07v5.472c0 1.832-.995 2.844-2.803 2.844h-3.173l1.282 1.302 4.361-.001c.185 0 .333.148.333.332a.331.331 0 01-.333.333l-4.44.003a.341.341 0 01-.054.004l-.047-.005-11.852.005a.331.331 0 01-.333-.333c0-.185.148-.333.333-.333l4.253-.002 1.27-1.303-3.052.001c-1.809 0-2.804-1.008-2.804-2.843v-5.47c0-.894.235-1.59.696-2.07.477-.497 1.187-.75 2.108-.75l11.452-.006zm-4.102 11.137H6.805l-1.269 1.304 5.916-.003-1.26-1.279-.018-.022zM22.071 5.679h-2.767c-.249 0-.907 0-.907 1.54l.003 8.689c0 1.475.605 1.536.874 1.539h2.773c.229 0 .921 0 .921-1.54l-.007-8.689c0-1.475-.636-1.536-.89-1.539zm-7.795-.003l-11.452.006c-.733 0-1.281.185-1.63.545-.34.353-.512.894-.512 1.607v5.472c0 1.465.7 2.178 2.138 2.178l11.452-.007c1.439 0 2.138-.712 2.138-2.178V7.827c0-.716-.171-1.257-.51-1.607-.344-.363-.892-.544-1.624-.544z" fill="#5CB615" fill-rule="nonzero"/></svg>