<svg width="24" height="24" viewBox="0 0 24 24" xmlns="http://www.w3.org/2000/svg"><path d="M4.965 11.148c.605 0 .995.323.995 1.018 0 .337-.091.582-.252.75-.175.181-.43.269-.747.269-.312 0-.571-.088-.743-.269-.16-.168-.252-.417-.252-.75 0-.695.397-1.018.999-1.018zm17.674 3.56V9.044c-.01-.501-.39-.921-.86-.958h-2.115v7.583h2.06c.505 0 .915-.43.915-.961zm-3.947 1.717v-.249h-.016V7.38c0-.746-.579-1.348-1.291-1.348H6.289C2.776 6.146.985 8.119.985 11.894c0 3.772 1.788 5.751 5.32 5.882h11.097c.712 0 1.29-.605 1.29-1.35zm3.016-9.361c1.035 0 1.895.88 1.916 1.97v5.674c0 1.089-.854 1.98-1.9 1.98h-2.057c-.124 1.183-1.092 2.107-2.265 2.107H6.289C2.23 18.644 0 16.193 0 11.895c0-4.307 2.229-6.75 6.276-6.882h11.112c1.153 0 2.108.895 2.256 2.054h1.143l-.004-.003h.925z" fill="#313235" fill-rule="nonzero"/></svg>