<svg width="64" height="64" xmlns="http://www.w3.org/2000/svg"><path d="M13.24 29.728c1.613 0 2.652.86 2.652 2.716 0 .896-.242 1.55-.672 1.999-.466.484-1.147.717-1.99.717-.833 0-1.524-.233-1.98-.717-.431-.449-.673-1.112-.673-2 0-1.855 1.058-2.715 2.662-2.715zm47.13 9.492V24.117c-.027-1.336-1.04-2.456-2.295-2.555h-5.638v20.222h5.495c1.344 0 2.438-1.148 2.438-2.564zM49.846 43.8v-.663h-.044V19.68c0-1.99-1.542-3.595-3.442-3.595H16.77c-9.366.305-14.144 5.567-14.144 15.633 0 10.057 4.769 15.336 14.19 15.686h29.588c1.9 0 3.442-1.614 3.442-3.603zm8.04-24.963c2.762 0 5.056 2.348 5.11 5.253v15.13c0 2.904-2.277 5.28-5.064 5.28h-5.486c-.332 3.155-2.913 5.62-6.042 5.62H16.771C5.943 49.717 0 43.182 0 31.718c0-11.483 5.943-18 16.735-18.349h29.634c3.074 0 5.62 2.385 6.014 5.477h3.048l-.01-.009h2.466z" fill="#313235" fill-rule="nonzero"/></svg>