<svg width="64" height="64" xmlns="http://www.w3.org/2000/svg"><path d="M49.09 0c3.298 0 5.673.78 7.269 2.384 1.595 1.605 2.366 3.971 2.366 7.252v43.697c0 3.317-.78 5.701-2.384 7.297-1.587 1.577-3.962 2.34-7.252 2.34H26.366c-3.29 0-5.665-.763-7.251-2.34-1.605-1.587-2.384-3.98-2.384-7.297V40.231c-4.311-.146-7.682-1.368-10.04-3.642-2.617-2.518-3.944-6.292-3.944-11.222s1.327-8.704 3.944-11.222c2.356-2.272 5.731-3.494 10.03-3.642v-.867c0-3.227.78-5.584 2.376-7.198C20.728.798 23.104 0 26.367 0h22.722zm0 1.793H26.365c-2.76 0-4.714.618-5.987 1.9-1.255 1.264-1.865 3.209-1.865 5.943v.866c4.308.146 7.69 1.367 10.048 3.643 2.618 2.518 3.944 6.292 3.944 11.222s-1.326 8.704-3.944 11.222c-2.357 2.274-5.736 3.495-10.04 3.642l.001 13.102c0 5.576 2.277 7.843 7.843 7.843H49.09c5.575 0 7.843-2.267 7.843-7.843V9.636c0-2.788-.6-4.75-1.837-5.988-1.237-1.237-3.21-1.855-6.006-1.855zM37.74 50.143c1.614 0 2.662.85 2.662 2.67 0 .879-.242 1.524-.672 1.963-.466.476-1.156.709-1.99.709-.833 0-1.524-.233-1.99-.709-.43-.439-.672-1.084-.672-1.963 0-1.82 1.049-2.67 2.662-2.67zM17.627 12.28c-4.258 0-7.52 1.058-9.699 3.155-2.25 2.17-3.397 5.513-3.397 9.932 0 4.419 1.138 7.762 3.388 9.932 2.17 2.097 5.432 3.155 9.699 3.155 4.267 0 7.52-1.058 9.69-3.155 2.25-2.17 3.388-5.513 3.388-9.932 0-4.42-1.139-7.763-3.388-9.932-2.16-2.097-5.423-3.155-9.681-3.155zm0 20.733a1.094 1.094 0 110 2.187 1.094 1.094 0 010-2.187zm.009-17.282c2.097 0 3.881.735 5.01 2.07.978 1.148 1.372 2.645 1.112 4.214-.35 2.124-1.855 3.45-2.5 4.024-.26.233-.548.457-.826.69-.806.655-1.909 1.56-1.909 2.134v1.748a.899.899 0 01-.896.896.899.899 0 01-.896-.896v-1.748c0-1.434 1.362-2.546 2.572-3.532.278-.224.538-.44.77-.636.548-.475 1.677-1.48 1.92-2.967.17-1.058-.073-2.008-.709-2.761-.789-.932-2.088-1.443-3.648-1.443-1.327 0-2.438.43-3.21 1.255-.734.77-1.137 1.873-1.137 3.092v.377a.899.899 0 01-.897.896.899.899 0 01-.896-.896v-.377c0-1.676.573-3.218 1.622-4.32 1.12-1.192 2.68-1.82 4.518-1.82z" fill="#313235" fill-rule="nonzero"/></svg>