<svg width="24" height="24" viewBox="0 0 24 24" xmlns="http://www.w3.org/2000/svg"><path d="M10.726 1.412c-.313.292-.467.756-.467 1.381 0 1.227.588 1.802 1.852 1.802 1.267 0 1.859-.571 1.859-1.802 0-.622-.158-1.085-.47-1.378-.303-.286-.767-.43-1.386-.43-.622 0-1.085.144-1.388.427zm1.385 4.164c-1.819 0-2.864-1.015-2.864-2.783 0-.9.262-1.603.777-2.087C10.518.239 11.22 0 12.11 0c.887 0 1.59.239 2.087.706.518.484.78 1.186.78 2.087 0 1.768-1.045 2.783-2.867 2.783zm5.213 9.826a.631.631 0 00.46-.76c0-.003 0-.007-.002-.01l-1.436-5.146a.963.963 0 01-.05-.138l-.02-.067c-.215-1.039-1.17-1.792-2.266-1.792h-3.197c-1.092 0-2.047.753-2.265 1.792-.003.016-.01.03-.014.043a.37.37 0 01-.04.111L7.042 14.64a.627.627 0 00.447.763h.007c.165.047.34.027.487-.06a.603.603 0 00.296-.37l.639-3.44c.047-.251.269-.416.544-.403.259.02.457.232.46.491v10.387a.636.636 0 001.275 0v-6.189c0-.272.225-.49.504-.49h1.425c.279 0 .508.222.508.49v6.192c0 .35.285.632.638.632.35 0 .636-.282.636-.632V11.624a.5.5 0 01.46-.491c.272-.01.494.151.541.403l.646 3.472a.614.614 0 00.289.333c.144.084.319.104.48.06zm1.436-1.026a1.61 1.61 0 01-1.147 1.97c-.006 0-.01.004-.016.004a1.675 1.675 0 01-1.681-.491v6.148c0 .89-.74 1.617-1.647 1.617-.911 0-1.647-.727-1.647-1.617v-5.698h-.404v5.701c0 .89-.739 1.617-1.647 1.617-.907 0-1.647-.726-1.647-1.617V15.86a1.667 1.667 0 01-1.684.49 1.609 1.609 0 01-1.163-1.956c0-.003.004-.006.004-.01L7.519 9.23a.99.99 0 01.057-.168c.323-1.486 1.688-2.558 3.25-2.558h3.198c1.563 0 2.924 1.072 3.247 2.551.03.071.053.138.067.206l1.422 5.115z" fill="#5CB615" fill-rule="nonzero"/></svg>