<svg width="24" height="24" viewBox="0 0 24 24" xmlns="http://www.w3.org/2000/svg"><path d="M20.124 9.365a.498.498 0 00-.306.148l-3.58 3.6a.52.52 0 00-.134.48c.501 2.178-.238 4.283-2.262 6.323a.238.238 0 01-.175.074.25.25 0 01-.175-.074l-4.826-4.864c-.007-.01-.01-.02-.017-.03-.01-.01-.02-.014-.03-.02l-4.747-4.777a.235.235 0 01.007-.336l.037-.037c1.997-2.013 4.097-2.776 6.242-2.259.175.04.353-.01.477-.134l3.577-3.604a.525.525 0 00.148-.312c.084-.88.514-1.718 1.317-2.49l6.958 6.99c-.783.784-1.627 1.228-2.51 1.322m3.213-2.068L16.397.323A1.079 1.079 0 0015.64 0c-.255 0-.494.097-.719.323-.887.89-1.408 1.875-1.556 2.927l-3.257 3.278c-1.721-.326-4.242-.094-6.918 2.598l.36.363-.4-.326a1.27 1.27 0 00-.003 1.788l4.403 4.434-7.365 7.361a.514.514 0 00-.003.726.506.506 0 00.719.007l.003-.003 7.375-7.362 4.494 4.528c.239.242.558.376.894.376.336 0 .652-.134.958-.44 2.148-2.158 2.999-4.487 2.531-6.93l3.257-3.278c1.053-.158 2.04-.696 2.962-1.62a.98.98 0 00.282-.69c0-.289-.118-.56-.32-.763" fill="#5CB615" fill-rule="nonzero"/></svg>