<svg width="24" height="24" viewBox="0 0 24 24" xmlns="http://www.w3.org/2000/svg"><path d="M18.733 5.61a.423.423 0 00-.014.09c-.07 1.651-.968 2.451-2.743 2.451-.645 0-1.166-.117-1.583-.333.66-.978 1.51-1.784 2.602-2.09a.486.486 0 00.35-.592c0-.007-.004-.01-.004-.017a.514.514 0 00-.632-.332c-1.3.366-2.302 1.243-3.082 2.35-.269-.421-.407-.969-.407-1.641 0-1.782.904-2.649 2.76-2.649h2.215a.53.53 0 01.541.518l-.003 2.245zm-.713 7.758v1.792a.529.529 0 01-.538.517H6.266a.526.526 0 01-.538-.514v-1.792c0-.285.242-.517.538-.517h11.216a.524.524 0 01.538.514zm-2.13 8.951a.333.333 0 01-.337.326H8.198c-.188 0-.34-.148-.343-.376l-.645-5.614h9.321l-.642 5.664zM7.791 6.3c-1.782 0-2.683-.807-2.753-2.444a.378.378 0 00-.014-.107V1.509a.54.54 0 01.548-.53h2.225c1.863 0 2.767.87 2.767 2.661 0 .65-.141 1.184-.407 1.607-1.234-1.973-2.595-2.36-2.692-2.383a.511.511 0 00-.616.343.49.49 0 00.347.601h.006c.02.004 1.157.36 2.202 2.155-.427.222-.968.336-1.613.336zm10.403-4.43h-2.219c-2.403 0-3.778 1.32-3.778 3.627 0 .874.195 1.61.605 2.228l.26.323c-.485.88-.855 1.835-1.14 2.766-.256-1.976-.71-3.485-1.237-4.605l.138-.15a.09.09 0 01.023-.028c.49-.618.736-1.425.736-2.393C11.58 1.291 10.235 0 7.795 0H5.57c-.864 0-1.567.676-1.567 1.51v2.305c0 .037.007.08.017.124.118 2.155 1.452 3.342 3.768 3.342.797 0 1.48-.152 2.057-.45.521 1.176.972 2.796 1.17 5.021 0 .007.007.014.007.02H6.266c-.858 0-1.557.673-1.557 1.496v1.792c0 .796.66 1.445 1.48 1.485l.651 5.674c0 .72.612 1.305 1.358 1.305h7.352c.75 0 1.358-.585 1.354-1.25l.659-5.729c.82-.04 1.479-.689 1.479-1.485v-1.792c0-.823-.7-1.496-1.56-1.496H12.68c.242-.927.629-2.117 1.207-3.21.571.3 1.26.467 2.09.467 2.303 0 3.634-1.17 3.762-3.32a.532.532 0 00.017-.128V3.37c0-.83-.703-1.502-1.56-1.502z" fill="#313235" fill-rule="nonzero"/></svg>