<svg width="64" height="64" xmlns="http://www.w3.org/2000/svg"><path d="M49.954 14.96c-.018.08-.036.162-.036.242-.188 4.401-2.581 6.535-7.314 6.535-1.721 0-3.11-.314-4.222-.888 1.757-2.608 4.025-4.76 6.938-5.575.69-.18 1.111-.878.932-1.578 0-.018-.009-.027-.009-.044a1.37 1.37 0 00-1.685-.888c-3.469.977-6.14 3.317-8.22 6.266-.717-1.12-1.084-2.582-1.084-4.375 0-4.75 2.411-7.063 7.359-7.063h5.907c.78-.018 1.425.6 1.443 1.38l-.009 5.988zm-1.9 20.688v4.778c0 .762-.646 1.38-1.434 1.38H16.708c-.78.018-1.416-.6-1.434-1.371v-4.778c0-.762.645-1.38 1.434-1.38H46.62c.788-.01 1.434.61 1.434 1.371zm-5.683 23.87c0 .475-.403.87-.896.87H21.862c-.502 0-.905-.395-.914-1.004l-1.721-14.97h24.856L42.37 59.519zm-21.593-42.72c-4.751 0-7.153-2.152-7.342-6.517 0-.098-.009-.197-.035-.287v-5.97c0-.78.654-1.416 1.46-1.416h5.935c4.965 0 7.377 2.322 7.377 7.1 0 1.73-.377 3.155-1.085 4.284-3.29-5.261-6.92-6.292-7.18-6.355a1.364 1.364 0 00-1.64.914c-.188.7.224 1.417.923 1.605h.018c.054.009 3.083.959 5.871 5.745-1.138.592-2.581.897-4.302.897zM48.52 4.984h-5.916c-6.409 0-10.075 3.522-10.075 9.671 0 2.331.52 4.294 1.613 5.943l.69.86c-1.29 2.35-2.276 4.895-3.038 7.378-.681-5.27-1.891-9.295-3.299-12.28l.368-.404c.018-.027.036-.053.062-.071 1.31-1.65 1.964-3.8 1.964-6.382C30.879 3.442 27.294 0 20.787 0h-5.934c-2.304 0-4.177 1.802-4.177 4.025v6.149c0 .098.018.215.044.331.314 5.746 3.873 8.91 10.049 8.91 2.124 0 3.944-.403 5.485-1.201 1.39 3.137 2.59 7.458 3.12 13.392 0 .018.018.035.018.053H16.708c-2.286 0-4.15 1.793-4.15 3.99v4.777c0 2.124 1.757 3.854 3.944 3.962l1.739 15.13c0 1.918 1.631 3.478 3.621 3.478h19.604c1.998 0 3.62-1.56 3.612-3.334l1.757-15.274c2.187-.108 3.944-1.838 3.944-3.962v-4.778c0-2.196-1.865-3.989-4.16-3.989H33.812c.645-2.474 1.676-5.647 3.218-8.56 1.523.798 3.36 1.246 5.575 1.246 6.14 0 9.69-3.12 10.03-8.856.027-.107.045-.224.045-.34V8.99c0-2.214-1.873-4.006-4.16-4.006z" fill="#313235" fill-rule="nonzero"/></svg>