<svg width="24" height="24" viewBox="0 0 24 24" xmlns="http://www.w3.org/2000/svg"><path d="M10.518 1.01c3.361 0 5.966.87 7.74 2.588 1.772 1.713 2.704 4.26 2.773 7.57l.004.4c0 .858-.056 1.676-.169 2.437.05-.04.101-.087.156-.141.289-.29.652-.716 1.005-1.13.356-.42.726-.853 1.032-1.16a.335.335 0 11.474.475c-.286.285-.646.709-.995 1.12-.36.423-.733.86-1.042 1.169-.326.333-.666.497-1.005.497-.333 0-.666-.161-.988-.484-.266-.265-.774-.854-1.61-1.825l-.427-.494a.339.339 0 01.033-.474.339.339 0 01.474.034l.427.497c.8.928 1.328 1.543 1.573 1.788.072.073.14.131.206.176l-.055.325c.158-.857.239-1.802.239-2.81 0-3.318-.864-5.835-2.571-7.486-1.644-1.593-4.095-2.4-7.274-2.4-3.18 0-5.63.807-7.274 2.4C1.536 5.73.672 8.25.672 11.568c0 3.318.864 5.835 2.572 7.486 1.647 1.593 4.094 2.4 7.274 2.4 1.943 0 3.627-.303 5.005-.901a.337.337 0 11.269.618c-1.463.632-3.237.955-5.274.955-3.362 0-5.967-.87-7.742-2.588C.934 17.756 0 15.074 0 11.568c0-3.506.934-6.188 2.776-7.97 1.775-1.717 4.38-2.588 7.742-2.588zm2.48 3.331c.706 0 1.12.283 1.345.518.302.32.46.763.46 1.287v10.202c0 .524-.161.968-.46 1.287-.222.239-.639.521-1.345.521h-5.63c-.706 0-1.12-.282-1.344-.52-.303-.32-.461-.764-.461-1.288V7.662a.684.684 0 01.195-.47l2.608-2.65a.68.68 0 01.481-.2zm0 .672H8.844l-2.609 2.65v8.688c0 .69.36 1.136 1.133 1.136h5.63c.773 0 1.133-.447 1.133-1.136V6.15c0-.69-.36-1.137-1.133-1.137zm-.215 4.555c.185 0 .336.151.336.336v5.933a.337.337 0 01-.336.336H7.54a.337.337 0 01-.336-.336V9.904c0-.185.152-.336.336-.336h5.244zM8.944 14.21H7.875v1.29h1.069v-1.29zm1.748 0H9.616v1.29h1.076v-1.29zm1.755 0h-1.083v1.29h1.083v-1.29zm-4.572-1.974v1.301h4.572v-1.3H7.875zm1.069-1.996H7.876l-.001 1.324h1.069V10.24zm1.748 0H9.616v1.324h1.076V10.24zm1.755 0h-1.083v1.324h1.083V10.24z" fill="#313235" fill-rule="nonzero"/></svg>