<svg width="64" height="64" viewBox="0 0 64 64" xmlns="http://www.w3.org/2000/svg"><path d="M25.042 23.298v15.3c0 1.031.233 1.757.7 2.215.475.448 1.21.672 2.267.672h7.87c1.058 0 1.793-.224 2.268-.672.475-.458.7-1.184.7-2.214V23.298c0-1.022-.225-1.748-.7-2.205-.475-.457-1.21-.682-2.268-.682h-7.87c-1.048 0-1.784.225-2.259.7-.484.466-.708 1.183-.708 2.187zm4.912-5.79c-.062.062-.098.223-.098.447v.547h4.195v-.547c0-.224-.036-.394-.108-.448-.054-.053-.224-.09-.457-.09h-3.075c-.107-.008-.367 0-.457.09zM28.01 43.402c-1.595 0-2.787-.403-3.648-1.228-.86-.834-1.282-1.999-1.282-3.567v-15.31c0-1.542.422-2.698 1.273-3.532.843-.834 1.999-1.237 3.54-1.255v-.565c0-.752.225-1.353.673-1.783.448-.44 1.076-.664 1.855-.664h3.075c.78 0 1.407.216 1.855.655.449.439.673 1.049.673 1.801v.565c1.541.018 2.707.421 3.54 1.237.86.843 1.273 1.999 1.273 3.55v15.31c0 1.568-.421 2.742-1.282 3.567-.851.825-2.043 1.228-3.639 1.228-.036-.009-7.906-.009-7.906-.009zm3.137-16.878l-2.178 5.136 2.752-.368.09-.009c.161 0 .305.054.43.162a.622.622 0 01.224.484l-.009 3.155 2.447-5.504-3.047.413a.68.68 0 01-.52-.153.635.635 0 01-.224-.484l.035-2.832zm-3.128 6.552a.667.667 0 01-.61-.242.615.615 0 01-.089-.627l3.908-9.233a.68.68 0 01.735-.376.643.643 0 01.529.627l-.063 5.405 3.451-.466a.69.69 0 01.61.242c.143.188.17.43.08.636l-4.168 9.367a.657.657 0 01-.735.368.628.628 0 01-.52-.628l.01-5.503c-.01.009-3.138.43-3.138.43zM3.144 19.452v19.496c0 2.43.592 4.249 1.757 5.432 1.21 1.22 3.128 1.838 5.71 1.838l42.658-.018c2.581 0 4.508-.619 5.71-1.838 1.165-1.183 1.765-3.003 1.765-5.432V19.425c0-2.41-.591-4.221-1.757-5.378-1.2-1.192-3.119-1.801-5.718-1.801l-42.65.027c-2.599 0-4.526.6-5.718 1.801-1.165 1.148-1.757 2.958-1.757 5.378zm7.476 29.302c-3.326 0-5.88-.878-7.601-2.617C1.36 44.47.527 42.05.527 38.939V19.452c0-3.101.842-5.512 2.5-7.162 1.713-1.703 4.267-2.563 7.602-2.563L53.278 9.7c3.325 0 5.88.86 7.592 2.573 1.658 1.649 2.5 4.051 2.5 7.152v19.496c0 3.102-.842 5.53-2.491 7.198-1.721 1.739-4.276 2.617-7.601 2.617l-42.658.018zm51.46 2.95c.726 0 1.309.564 1.309 1.272a1.291 1.291 0 01-1.31 1.273H1.81A1.29 1.29 0 01.5 52.985v-.009c0-.699.583-1.273 1.309-1.273h60.27z" fill="#313235" fill-rule="nonzero"/></svg>