<svg width="24" height="24" viewBox="0 0 24 24" xmlns="http://www.w3.org/2000/svg"><path d="M14.161 0c1.224 0 2.115.3 2.723.914.598.609.89 1.49.89 2.7v.318h.643a.357.357 0 01.239.097l3.277 3.279a.333.333 0 01.097.238v8.141c0 .44-.272.716-.712.716h-3.544V20c0 1.244-.292 2.138-.893 2.736-.595.592-1.486.877-2.72.877h-8.52c-1.234 0-2.125-.285-2.72-.877-.602-.598-.894-1.492-.894-2.736V3.613c0-1.233.289-2.12.887-2.719C3.513.296 4.404 0 5.64 0h8.521zm-.003.672H5.64c-1.048 0-1.785.229-2.252.696-.467.467-.689 1.2-.689 2.245V20c0 2.09.85 2.941 2.941 2.941h8.521c2.088 0 2.942-.85 2.942-2.941l-.001-3.597h-3.536c-.457 0-.729-.275-.729-.736V4.66c0-.447.279-.726.73-.726l3.535-.001v-.319c0-1.025-.228-1.754-.699-2.228-.477-.48-1.21-.713-2.245-.713zM9.896 18.803c.605 0 .998.32.998 1.002 0 .33-.09.571-.252.736-.175.178-.43.266-.746.266s-.572-.088-.746-.266c-.162-.165-.253-.41-.253-.736 0-.682.394-1.002.999-1.002zM18.08 4.605h-4.514c-.016 0-.037 0-.053.003l-.003.026v11.033c0 .02 0 .04.003.06a.29.29 0 00.053.004h7.748c.014 0 .027 0 .04-.003.004-.014.004-.027.004-.04V7.881h-.975c-.746 0-1.32-.198-1.714-.591-.393-.394-.588-.968-.588-1.711l-.001-.975zm1.654 8.84a.337.337 0 010 .672h-4.588a.337.337 0 01-.336-.335c0-.185.151-.337.336-.337h4.588zm0-1.966c.185 0 .337.151.337.336a.337.337 0 01-.337.336h-4.588a.337.337 0 01-.336-.336c0-.185.151-.336.336-.336h4.588zm0-1.966c.185 0 .337.15.337.336a.337.337 0 01-.337.336h-4.588a.337.337 0 01-.336-.336c0-.185.151-.336.336-.336h4.588zm1.149-2.303l-2.13-2.128v.498c0 1.126.504 1.63 1.63 1.63h.5z" fill="#5CB615" fill-rule="nonzero"/></svg>