<svg width="64" height="64" viewBox="0 0 64 64" xmlns="http://www.w3.org/2000/svg"><path d="M37.764 0c3.262 0 5.638.798 7.26 2.438C46.62 4.061 47.4 6.41 47.4 9.636v.851h1.712c.04 0 .079.003.117.008l-.117-.008a.888.888 0 01.5.152c.004.005.01.008.015.012.043.028.084.06.122.096l8.74 8.74c.17.17.26.394.26.636v21.71c0 1.174-.727 1.91-1.9 1.91l-9.449-.001v9.591c0 3.317-.78 5.701-2.384 7.297-1.586 1.577-3.962 2.34-7.251 2.34H15.04c-3.29 0-5.665-.763-7.252-2.34-1.604-1.596-2.384-3.98-2.384-7.297V9.636c0-3.29.77-5.656 2.366-7.252C9.367.79 11.742 0 15.041 0h22.723zm-.01 1.793H15.042c-2.797 0-4.76.61-6.006 1.855-1.246 1.246-1.837 3.2-1.837 5.988v43.697c0 5.576 2.268 7.843 7.843 7.843h22.723c5.566 0 7.843-2.267 7.843-7.843l-.001-9.591h-9.429c-1.219 0-1.945-.735-1.945-1.963V12.424c0-1.193.744-1.937 1.945-1.937h9.429v-.851c0-2.734-.609-4.68-1.864-5.943-1.273-1.282-3.227-1.9-5.987-1.9zM26.39 50.143c1.613 0 2.662.85 2.662 2.67 0 .879-.242 1.524-.672 1.963-.466.476-1.148.709-1.99.709-.843 0-1.524-.233-1.99-.709-.43-.439-.672-1.093-.672-1.963 0-1.82 1.048-2.67 2.662-2.67zM48.215 12.28H36.177c-.045 0-.099 0-.143.01-.01.044-.01.089-.01.134v29.355c0 .054 0 .108.01.162.044.009.098.009.143.009h20.661c.036 0 .072 0 .108-.01.009-.035.009-.071.009-.107l-.001-20.814h-2.599c-1.99 0-3.523-.528-4.571-1.577-1.049-1.049-1.569-2.581-1.569-4.562v-2.6zm4.41 23.574c.493 0 .897.404.897.897a.899.899 0 01-.897.896H40.39a.899.899 0 01-.896-.896c0-.493.403-.897.896-.897h12.235zm0-5.243c.493 0 .897.403.897.896a.899.899 0 01-.897.896H40.39a.899.899 0 01-.896-.896c0-.493.403-.896.896-.896h12.235zm0-5.244c.493 0 .897.403.897.896a.899.899 0 01-.897.897H40.39a.899.899 0 01-.896-.897c0-.493.403-.896.896-.896h12.235zm3.063-6.141l-5.681-5.675v1.329c0 3.002 1.345 4.347 4.348 4.347l1.333-.001z" fill="#313235" fill-rule="nonzero"/></svg>