<svg width="64" height="64" viewBox="0 0 64 64" xmlns="http://www.w3.org/2000/svg"><path d="M31.543.072c10.048 0 17.837 2.6 23.162 7.735 5.521 5.325 8.327 13.32 8.327 23.754.009 20.59-10.882 31.48-31.49 31.48-20.588 0-31.48-10.882-31.48-31.48C.063 10.962 10.946.07 31.543.07zm0 1.792c-19.693 0-29.688 9.995-29.688 29.697 0 19.693 9.986 29.687 29.688 29.687 19.71 0 29.696-9.985 29.696-29.687.01-19.711-9.985-29.697-29.696-29.697zm5.244 10.81c4.544.834 8.058 2.833 10.442 5.952 2.438 3.191 3.675 7.548 3.675 12.953 0 6.39-1.73 11.294-5.127 14.575-3.196 3.047-7.804 4.648-13.701 4.737l-.524.004c-6.15 0-10.936-1.604-14.207-4.76-3.398-3.28-5.128-8.183-5.128-14.574 0-5.325 1.201-9.636 3.568-12.818 2.321-3.11 5.737-5.136 10.174-6.015a.893.893 0 01.221-.017l.108.012a.9.9 0 01.02 1.771C18.151 16.117 14.01 21.862 14.01 31.57c0 11.643 5.898 17.541 17.542 17.541 11.644 0 17.55-5.898 17.55-17.541 0-9.833-4.257-15.606-12.638-17.139a.894.894 0 01.102-1.77h.11a.894.894 0 01.11.014zm-5.235-4.83c.493 0 .896.402.896.895v13.114a.9.9 0 01-.784.89l-.112.007a.899.899 0 01-.897-.897V8.74c0-.493.404-.896.897-.896z" fill="#313235" fill-rule="nonzero"/></svg>