<svg width="24" height="24" viewBox="0 0 24 24" xmlns="http://www.w3.org/2000/svg"><path d="M11.829.027c3.768 0 6.689.975 8.685 2.9 2.07 1.997 3.123 4.996 3.123 8.908.003 7.721-4.08 11.805-11.808 11.805C4.108 23.64.024 19.56.024 11.835.024 4.111 4.104.027 11.829.027zm0 .672C4.444.7.696 4.447.696 11.835c0 7.385 3.744 11.133 11.133 11.133 7.391 0 11.136-3.744 11.136-11.133C22.968 4.444 19.22.7 11.829.7zm1.898 4.048l.068.006c1.704.313 3.022 1.062 3.916 2.232.914 1.197 1.378 2.83 1.378 4.857 0 2.397-.649 4.235-1.923 5.466-1.168 1.114-2.84 1.713-4.974 1.773l-.36.005c-2.306 0-4.1-.602-5.328-1.785-1.274-1.23-1.922-3.07-1.922-5.466 0-1.996.45-3.613 1.337-4.806.87-1.167 2.152-1.926 3.815-2.256l.068-.007.066.007a.338.338 0 01-.002.662c-3.06.609-4.612 2.763-4.612 6.404 0 4.366 2.212 6.578 6.578 6.578s6.581-2.212 6.581-6.578c0-3.688-1.596-5.852-4.74-6.427a.335.335 0 01.054-.665zm-1.895-1.806c.185 0 .336.151.336.336v4.918a.337.337 0 01-.269.33l-.067.006a.337.337 0 01-.336-.336V3.277c0-.185.151-.336.336-.336z" fill="#313235" fill-rule="nonzero"/></svg>