<svg width="64" height="64" viewBox="0 0 64 64" xmlns="http://www.w3.org/2000/svg"><path d="M31.98.5c10.048 0 17.838 2.6 23.162 7.736 5.522 5.324 8.327 13.32 8.327 23.753.01 20.59-10.882 31.48-31.489 31.48C11.39 63.47.5 52.587.5 31.99S11.382.5 31.98.5zm0 1.793c-19.693 0-29.687 9.994-29.687 29.696 0 19.693 9.985 29.687 29.687 29.687 19.711 0 29.696-9.985 29.696-29.687.01-19.71-9.985-29.696-29.696-29.696zm5.244 10.81c4.544.833 8.058 2.832 10.442 5.952 2.438 3.19 3.675 7.547 3.675 12.952 0 6.391-1.73 11.294-5.127 14.575-3.195 3.047-7.804 4.649-13.701 4.738l-.524.004c-6.149 0-10.935-1.605-14.207-4.76-3.397-3.28-5.127-8.184-5.127-14.575 0-5.324 1.2-9.636 3.567-12.818 2.322-3.11 5.737-5.136 10.174-6.014a.893.893 0 01.221-.017l.108.011a.9.9 0 01.02 1.771c-8.156 1.623-12.298 7.368-12.298 17.076 0 11.644 5.898 17.542 17.542 17.542 11.644 0 17.55-5.898 17.55-17.542 0-9.833-4.257-15.606-12.638-17.138a.894.894 0 01.102-1.77h.11a.894.894 0 01.11.013zM31.989 8.27c.493 0 .896.404.896.897v13.114a.9.9 0 01-.784.889l-.112.007a.899.899 0 01-.896-.896V9.168c0-.493.403-.897.896-.897z" fill="#313235" fill-rule="nonzero"/></svg>