<svg width="24" height="24" viewBox="0 0 24 24" xmlns="http://www.w3.org/2000/svg"><path d="M12.323 22.629c2.42-.05 10.316-.952 10.316-10.787S14.706 1.052 12.276.995c-.326-.01-.71-.01-1.052-.01-2.4.02-10.24.864-10.24 10.786 0 9.943 7.897 10.83 10.317 10.858.346.01.716 0 1.022 0zM12.293.01c1.899.05 11.33.837 11.33 11.832 0 11.005-9.401 11.734-11.28 11.771-.215 0-.464.01-.71.01-.117 0-.235 0-.342-.01C.55 23.466 0 13.718 0 11.771 0 9.825.541.097 11.21 0h.326c.256 0 .531 0 .756.01zm-.972 17.624c.474 0 .776.305.776.786v.077c0 .461-.305.767-.776.767-.521 0-.827-.306-.827-.767v-.077c0-.48.306-.786.777-.786h.05zM14.36 5.26c.796.581 1.163 1.368 1.163 2.537 0 1.426-.582 2.252-1.997 3.933-1.634 1.88-1.761 2.037-1.761 3.906a.245.245 0 01-.246.245h-.537a.25.25 0 01-.246-.198 3.87 3.87 0 01-.06-.73c0-1.139.326-1.868 1.455-3.216l.205-.246c1.741-2.053 2.094-2.685 2.094-3.717 0-.767-.225-1.28-.746-1.694-.296-.236-.817-.511-2.145-.511-.689 0-1.317.087-2.104.275a.232.232 0 01-.198-.03.342.342 0 01-.108-.158l-.077-.423a.253.253 0 01.148-.276c.434-.198 1.543-.413 2.578-.413 1.096.006 1.963.245 2.582.716z" fill="#5CB615" fill-rule="nonzero"/></svg>