<svg width="64" height="64" xmlns="http://www.w3.org/2000/svg"><path d="M32.86 60.343c6.454-.135 27.51-2.537 27.51-28.764 0-26.228-21.154-28.773-27.635-28.926-.87-.027-1.891-.027-2.806-.027C23.53 2.68 2.626 4.93 2.626 31.39c0 26.515 21.056 28.881 27.51 28.953.923.027 1.909 0 2.725 0zM32.78.027c5.064.134 30.216 2.232 30.216 31.552 0 29.346-25.071 31.292-30.082 31.39-.573 0-1.237.027-1.891.027-.314 0-.627 0-.914-.027C1.47 62.575 0 36.58 0 31.39 0 26.2 1.443.26 29.894 0h.869c.681 0 1.416 0 2.017.027zm-2.59 46.996c1.263 0 2.07.816 2.07 2.097v.207c0 1.228-.816 2.043-2.07 2.043-1.39 0-2.206-.815-2.206-2.043v-.207c0-1.281.816-2.097 2.07-2.097h.135zm8.102-32.995c2.125 1.55 3.102 3.648 3.102 6.768 0 3.8-1.55 6.005-5.325 10.487-4.356 5.01-4.696 5.432-4.696 10.416a.652.652 0 01-.655.654h-1.434a.668.668 0 01-.654-.529 10.319 10.319 0 01-.162-1.945c0-3.039.87-4.984 3.882-8.578l.546-.655c4.643-5.476 5.585-7.161 5.585-9.913 0-2.044-.6-3.415-1.99-4.518-.789-.627-2.178-1.362-5.719-1.362-1.838 0-3.514.233-5.611.735a.619.619 0 01-.53-.081.911.911 0 01-.286-.421l-.206-1.13a.675.675 0 01.394-.735c1.157-.529 4.115-1.102 6.875-1.102 2.923.018 5.235.654 6.884 1.909z" fill="#313235" fill-rule="nonzero"/></svg>