<svg width="24" height="24" viewBox="0 0 24 24" xmlns="http://www.w3.org/2000/svg"><path d="M19.096 19.492l2.672.969-3.264-6.797c-1.18 1.136-2.84 1.761-4.91 1.906l3.307 7.075.93-2.581a.995.995 0 011.265-.572zm-11.234 3.21l3.27-7.19c-2.043-.235-3.65-.974-4.742-2.258l-3.372 7.223 2.585-.981a.995.995 0 011.26.568l1 2.639zM12.64.993c-4.65 0-6.911 2.228-6.911 6.81 0 4.581 2.259 6.81 6.91 6.81 4.656 0 6.915-2.225 6.915-6.807 0-4.585-2.262-6.813-6.914-6.813zm9.956 19.069a.95.95 0 01-.131 1.015.978.978 0 01-.978.336l-2.74-.988-.971 2.625c-.199.376-.528.571-.894.571h-.027a.978.978 0 01-.867-.561l-3.49-7.462c-.1 0-.198-.007-.295-.01l-3.493 7.472a.987.987 0 01-.867.565h-.027a.973.973 0 01-.867-.515l-1.025-2.696-2.646.982c-.427.097-.803-.027-1.042-.316a.962.962 0 01-.13-1.015l3.63-7.765c-.66-1.173-1.012-2.659-1.012-4.49C4.723 2.486 7.637 0 12.639 0c5.001 0 7.919 2.49 7.919 7.805 0 2.121-.474 3.785-1.348 5.022l3.385 7.234zM9.808 7.113a.25.25 0 00.06.265l1.03 1.029a.553.553 0 01.144.467l-.242 1.442c-.017.1.02.198.1.252a.21.21 0 00.226.014l1.267-.686a.528.528 0 01.515.01l1.253.676c.068.04.155.033.226-.014a.242.242 0 00.097-.249l-.242-1.452a.544.544 0 01.151-.46l1.025-1.025a.253.253 0 00.061-.266.23.23 0 00-.182-.158l-1.421-.212a.536.536 0 01-.4-.306l-.629-1.304a.228.228 0 00-.302-.1.243.243 0 00-.101.1l-.636 1.321a.542.542 0 01-.386.29l-1.429.214a.205.205 0 00-.185.152zm.202 1.821l-.86-.86a1.239 1.239 0 01.69-2.1l1.165-.176.524-1.095a1.228 1.228 0 012.219 0l.528 1.095 1.166.175c.457.067.837.383.985.827.151.45.04.938-.296 1.274l-.86.864.205 1.22c.08.474-.115.945-.511 1.22-.38.262-.878.293-1.284.074l-1.042-.561-1.032.561a1.234 1.234 0 01-1.799-1.294c-.003-.003.202-1.224.202-1.224z" fill="#5CB615" fill-rule="nonzero"/></svg>