<svg width="24" height="24" viewBox="0 0 24 24" xmlns="http://www.w3.org/2000/svg"><path d="M18.408 0c1.237 0 2.128.292 2.726.894.599.602.888 1.49.888 2.72V20c0 1.244-.293 2.138-.894 2.736-.595.592-1.486.877-2.72.877h-8.52c-1.234 0-2.125-.285-2.72-.877-.602-.595-.894-1.492-.894-2.736v-4.913c-1.617-.055-2.88-.513-3.765-1.366-.981-.945-1.479-2.36-1.479-4.208 0-1.85.498-3.264 1.48-4.209.883-.852 2.148-1.31 3.76-1.365v-.326c0-1.21.293-2.094.891-2.699C7.773.3 8.664 0 9.887 0h8.521zm0 .672h-8.52c-1.036 0-1.769.232-2.246.713-.47.474-.7 1.203-.7 2.228l.001.325c1.616.055 2.883.513 3.768 1.366.981.945 1.479 2.36 1.479 4.209 0 1.848-.498 3.263-1.48 4.208-.883.853-2.15 1.31-3.764 1.366V20c0 2.09.854 2.941 2.941 2.941h8.521c2.091 0 2.942-.85 2.942-2.941V3.613c0-1.045-.226-1.781-.69-2.245-.463-.464-1.203-.696-2.252-.696zm-4.255 18.131c.605 0 .998.32.998 1.002 0 .33-.09.571-.252.736-.175.178-.433.266-.746.266s-.571-.088-.746-.266c-.162-.165-.252-.407-.252-.736 0-.682.393-1.002.998-1.002zM6.61 4.605c-1.597 0-2.82.397-3.637 1.183C2.13 6.602 1.7 7.855 1.7 9.513c0 1.657.427 2.91 1.27 3.724.814.787 2.038 1.183 3.638 1.183s2.82-.396 3.633-1.183c.844-.813 1.27-2.067 1.27-3.724 0-1.658-.426-2.911-1.27-3.725-.81-.786-2.033-1.183-3.63-1.183zm0 .975c.185 0 .336.151.336.336V6.4c.459.046.882.18 1.22.39.145.09.226.215.226.353a.367.367 0 01-.367.366.514.514 0 01-.232-.067l-.003-.003a2.608 2.608 0 00-.844-.298v1.986l.083.013c.803.128 1.702.528 1.702 1.687 0 1.002-.673 1.667-1.784 1.796v.503a.337.337 0 01-.337.336.337.337 0 01-.336-.336v-.493a3.357 3.357 0 01-1.603-.576.396.396 0 01-.185-.343.379.379 0 01.383-.373c.09.004.178.03.255.084.382.254.767.41 1.15.467V9.805l-.043-.006c-1.312-.233-1.594-1.016-1.594-1.644 0-.975.632-1.638 1.636-1.754v-.485c0-.185.152-.336.337-.336zm.338 4.322l-.002 1.99c.642-.098 1.029-.474 1.029-1.031 0-.381-.128-.785-1.027-.959zM5.39 8.108c0 .335.108.725.882.914l.001-1.885c-.55.093-.883.449-.883.97z" fill="#5CB615" fill-rule="nonzero"/></svg>