<svg width="64" height="64" viewBox="0 0 64 64" xmlns="http://www.w3.org/2000/svg"><path d="M58.432 17.01s.224-.035.224-.913c0-.834-.295-1.067-.295-1.067-.135-.108-.44-.18-1.444-.18H7.107c-.96 0-1.166-.053-1.533.296-.009 0-.215.225-.206 1.05.009.77.367.985.367.985.197.144.296.242 1.3.242h49.829c.932-.009 1.497-.296 1.568-.412zM55.95 47.694V20.596a.743.743 0 00-.224-.564c-.17-.162-.484-.207-.86-.26H9.025c-.565.098-1.03.421-1.03.824V47.73c0 .206.07.403.25.538.224.206.619.278 1.13.278l45.31.027c.655 0 1.264-.404 1.264-.879zM33.406 59.767c0-.376 0-1.344-1.354-1.362h-.224c-1.308 0-1.308.986-1.308 1.362 0 .35 0 1.363 1.326 1.363 1.56-.018 1.56-.986 1.56-1.363zM30.188 7.572l-9.242 4.921h21.558l-8.632-4.966a4.393 4.393 0 01-1.748.422h-.269a4.473 4.473 0 01-1.667-.377zm1.65-4.733c-1.31 0-1.31.986-1.31 1.372 0 .385 0 1.362 1.354 1.39 1.524-.019 1.524-1.005 1.524-1.363 0-.377 0-1.363-1.354-1.39.01-.009-.215-.009-.215-.009zm28.297 10.622c.44.422.708.986.708 1.551v2.214c0 1.174-1.057 2.07-2.626 2.402.099.305.197.61.197.941v27.133c0 1.784-1.667 3.218-3.738 3.218H33.218v5.325c1.479.403 2.653 1.55 2.653 3.531 0 2.519-1.891 3.693-3.729 3.72h-.323c-1.846-.027-3.737-1.174-3.737-3.72 0-2.044 1.228-3.2 2.68-3.576v-5.27l-21.334-.028c-1.425.099-2.384-.466-2.877-.914a3.105 3.105 0 01-1.013-2.259V20.587c0-.331.099-.663.197-.94-.789-.162-1.452-.422-1.891-.843a2.207 2.207 0 01-.744-1.551l.027-2.214c0-1.48 1.676-2.537 3.989-2.537h8.775l12.513-6.66a4.034 4.034 0 01-.322-1.622c0-2.546 1.89-3.693 3.764-3.72h.296c1.847.054 3.729 1.228 3.729 3.738 0 .565-.099 1.084-.296 1.533l11.68 6.731h9.465c1.497-.054 2.671.296 3.415.96zm-16.94 28.12c.662 0 1.227.537 1.227 1.173a1.201 1.201 0 01-1.228 1.175H17.38a1.207 1.207 0 01-1.228-1.175V27.06c0-.636.565-1.174 1.228-1.174a1.207 1.207 0 011.228 1.174v12.657l4.15-6.194c.314-.493.932-.69 1.48-.475l8.434 3.128 5.656-6.821h-1.694a1.19 1.19 0 01-1.228-1.148v-.026c0-.664.538-1.175 1.228-1.175h4.374c.592 0 1.111.422 1.21.986l.592 3.792c.125.627-.34 1.219-1.031 1.335h-.17c-.592 0-1.13-.42-1.21-.986l-.189-1.219-6.167 7.413c-.34.413-.905.556-1.398.377L24.308 35.6l-4.025 5.98h22.911z" fill="#313235" fill-rule="nonzero"/></svg>