<svg width="24" height="24" viewBox="0 0 24 24" xmlns="http://www.w3.org/2000/svg"><path d="M11.812 0c7.697 0 11.812 4.074 11.812 11.812 0 7.738-4.074 11.812-11.812 11.812C4.074 23.624 0 19.55 0 11.812 0 4.074 4.074 0 11.812 0zm0 22.639c7.156 0 10.827-3.64 10.827-10.827 0-7.187-3.63-10.827-10.827-10.827S.985 4.655.985 11.812c0 7.156 3.63 10.827 10.827 10.827zm0-20.138c.259 0 .47.195.49.454v3.74a.5.5 0 01-.49.492.491.491 0 01-.491-.491V2.992a.49.49 0 01.49-.491zm-4.625 9.244c0 .272-.222.49-.491.49H2.95a.491.491 0 010-.981h3.741a.49.49 0 01.495.49zm.608 3.277a.493.493 0 01.696.033l.003.004a.473.473 0 01.02.669l-.02.02-2.588 2.578a.458.458 0 01-.373.148.491.491 0 01-.343-.834c-.003 0 2.605-2.618 2.605-2.618zm3.95 1.388c.272 0 .49.222.49.49v3.692a.491.491 0 01-.981 0V16.9a.487.487 0 01.49-.49zm4.003-1.32l2.618 2.618a.493.493 0 01.004.695l-.004.004a.504.504 0 01-.342.138.483.483 0 01-.343-.138l-2.622-2.619a.493.493 0 01-.004-.696l.004-.003a.491.491 0 01.689 0zm4.844-3.732a.491.491 0 010 .981H16.9a.491.491 0 010-.981h3.69zm-5.147-2.645a.522.522 0 01-.353-.138.503.503 0 010-.7l2.629-2.618a.493.493 0 01.69.7l-2.66 2.618a.565.565 0 01-.306.138z" fill="#313235" fill-rule="nonzero"/></svg>