<svg width="64" height="64" xmlns="http://www.w3.org/2000/svg"><path d="M31.498 0c20.527 0 31.498 10.864 31.498 31.498S52.132 62.996 31.498 62.996 0 52.132 0 31.498 10.864 0 31.498 0zm0 60.37c19.084 0 28.872-9.708 28.872-28.872S50.69 2.626 31.498 2.626c-19.191 0-28.872 9.789-28.872 28.872 0 19.084 9.681 28.872 28.872 28.872zm0-53.701c.69 0 1.255.52 1.309 1.21v9.976a1.334 1.334 0 01-1.309 1.31 1.31 1.31 0 01-1.309-1.31V7.978c0-.726.583-1.31 1.309-1.31zm-12.334 24.65a1.31 1.31 0 01-1.309 1.308H7.87a1.31 1.31 0 01-1.309-1.308A1.31 1.31 0 017.87 30.01h9.976a1.306 1.306 0 011.318 1.309zm1.623 8.74a1.316 1.316 0 011.855.089l.009.009a1.26 1.26 0 01.054 1.784l-.054.053-6.902 6.875a1.22 1.22 0 01-.995.395 1.31 1.31 0 01-1.29-1.327c.008-.34.143-.663.376-.896-.01 0 6.947-6.983 6.947-6.983zm10.532 3.701a1.31 1.31 0 011.308 1.309v9.842a1.31 1.31 0 01-1.308 1.309 1.31 1.31 0 01-1.309-1.31V45.07a1.299 1.299 0 011.309-1.309zm10.675-3.522l6.983 6.982c.511.511.52 1.345.009 1.856l-.009.009a1.343 1.343 0 01-.914.367c-.34 0-.673-.125-.915-.367l-6.991-6.983a1.315 1.315 0 01-.01-1.856l.01-.008a1.31 1.31 0 011.837 0zm12.917-9.95a1.31 1.31 0 011.309 1.309 1.31 1.31 0 01-1.31 1.308H45.07a1.31 1.31 0 01-1.309-1.308 1.31 1.31 0 011.309-1.309h9.842zm-13.723-7.054c-.35 0-.69-.135-.942-.368a1.342 1.342 0 010-1.864l7.01-6.983a1.316 1.316 0 011.847.152 1.318 1.318 0 01-.01 1.712l-7.09 6.983c-.233.206-.52.332-.815.368z" fill="#313235" fill-rule="nonzero"/></svg>