<svg width="64" height="64" viewBox="0 0 64 64" xmlns="http://www.w3.org/2000/svg"><path d="M31.498.009c1.829 0 3.003 2.151 4.15 4.222.681 1.246 1.623 2.958 2.313 3.146.753.197 2.402-.798 3.72-1.595 2.07-1.255 4.033-2.439 5.557-1.551 1.55.896 1.497 3.209 1.443 5.656-.027 1.452-.071 3.433.457 3.962.53.529 2.52.484 3.962.457l.522-.01c2.248-.042 4.302.021 5.134 1.453.879 1.524-.304 3.487-1.55 5.557-.798 1.327-1.802 2.976-1.596 3.72.188.69 1.9 1.632 3.146 2.313 2.08 1.138 4.222 2.322 4.222 4.15 0 1.829-2.151 3.003-4.222 4.15-1.246.681-2.958 1.623-3.146 2.313-.197.753.798 2.402 1.596 3.72 1.255 2.07 2.438 4.033 1.55 5.557-.896 1.55-3.209 1.497-5.656 1.443-1.452-.027-3.433-.071-3.962.457-.528.53-.484 2.52-.457 3.962.054 2.447.099 4.76-1.443 5.656-1.524.879-3.487-.304-5.557-1.55-1.327-.798-2.976-1.802-3.72-1.596-.69.188-1.632 1.9-2.313 3.146l-.238.432c-1.074 1.942-2.21 3.8-3.912 3.8-1.829 0-3.003-2.152-4.15-4.223-.681-1.246-1.623-2.958-2.313-3.146-.753-.197-2.402.798-3.729 1.596-2.07 1.255-4.033 2.438-5.557 1.55-1.55-.896-1.497-3.209-1.443-5.656.027-1.452.072-3.433-.457-3.962-.53-.528-2.519-.484-3.962-.457-2.447.054-4.76.099-5.656-1.443-.879-1.524.305-3.487 1.55-5.557.798-1.327 1.802-2.976 1.596-3.72-.188-.69-1.9-1.632-3.146-2.313l-.43-.238C1.864 34.336 0 33.2 0 31.498c0-1.829 2.151-3.003 4.222-4.15 1.246-.681 2.958-1.623 3.146-2.313.197-.753-.798-2.402-1.595-3.729-1.255-2.07-2.439-4.033-1.551-5.557.896-1.55 3.209-1.497 5.656-1.443 1.452.027 3.433.072 3.962-.457.529-.53.484-2.519.457-3.962-.054-2.447-.099-4.76 1.443-5.656 1.524-.879 3.487.305 5.557 1.55 1.327.798 2.976 1.802 3.72 1.596.69-.188 1.632-1.9 2.313-3.146l.24-.429C28.653 1.874 29.796.009 31.498.009zm0 1.81c-.762 0-1.81 1.9-2.573 3.3-1.021 1.864-1.998 3.63-3.424 4.015-.215.054-.439.09-.672.08-1.335 0-2.85-.914-4.446-1.882-1.246-.753-3.128-1.891-3.738-1.542-.627.368-.582 2.591-.546 4.061.044 2.16.09 4.204-.977 5.27-1.067 1.067-3.11 1.022-5.271.978-1.47-.036-3.702-.081-4.06.546-.35.61.788 2.492 1.541 3.738 1.13 1.865 2.196 3.63 1.793 5.118-.386 1.435-2.142 2.403-4.016 3.424-1.39.762-3.298 1.811-3.298 2.573s1.9 1.81 3.298 2.573c1.865 1.021 3.63 1.998 4.016 3.424.394 1.488-.663 3.244-1.793 5.118-.753 1.255-1.891 3.137-1.542 3.738.368.627 2.591.582 4.061.555 2.16-.044 4.204-.09 5.27.977 1.067 1.067 1.022 3.11.978 5.271-.036 1.47-.081 3.702.546 4.06.61.35 2.492-.788 3.738-1.541 1.587-.96 3.11-1.874 4.446-1.874.224 0 .448.027.672.09 1.435.386 2.403 2.142 3.424 4.016.762 1.39 1.811 3.298 2.573 3.298s1.81-1.9 2.573-3.298c1.021-1.865 1.998-3.63 3.424-4.016 1.488-.394 3.244.672 5.118 1.793 1.246.753 3.128 1.891 3.738 1.542.627-.368.582-2.59.555-4.061-.044-2.16-.09-4.204.977-5.27 1.067-1.067 3.11-1.031 5.271-.978 1.47.027 3.702.081 4.06-.555.35-.61-.788-2.492-1.541-3.738-1.13-1.865-2.196-3.63-1.793-5.118.386-1.435 2.142-2.403 4.016-3.424 1.39-.762 3.298-1.811 3.298-2.573s-1.9-1.81-3.298-2.573c-1.865-1.021-3.63-1.998-4.016-3.424-.394-1.488.672-3.244 1.793-5.118.753-1.246 1.891-3.128 1.542-3.738-.368-.627-2.59-.582-4.06-.546-2.161.044-4.205.09-5.272-.977-1.066-1.067-1.03-3.11-.977-5.271.027-1.47.081-3.702-.555-4.06-.61-.35-2.492.788-3.738 1.541-1.865 1.13-3.63 2.196-5.118 1.793-1.434-.386-2.403-2.142-3.424-4.016-.762-1.39-1.811-3.298-2.573-3.298zm11.393 15.104c.385.305.457.87.152 1.255L21.351 45.911a.883.883 0 01-.708.35.899.899 0 01-.708-1.452l21.7-27.733a.897.897 0 011.256-.153zM38.947 35.12c1.595 0 2.85.43 3.729 1.282.914.879 1.38 2.17 1.38 3.828s-.466 2.949-1.38 3.827c-.87.852-2.125 1.282-3.72 1.282-1.596 0-2.85-.43-3.73-1.282-.913-.878-1.38-2.17-1.38-3.827 0-1.659.467-2.95 1.372-3.828.878-.851 2.133-1.282 3.729-1.282zm.009 1.802c-2.295 0-3.317 1.022-3.317 3.317 0 2.294 1.022 3.316 3.317 3.316 2.294 0 3.316-1.022 3.316-3.316 0-2.295-1.022-3.317-3.316-3.317zM24.03 17.641c1.596 0 2.85.43 3.73 1.281.914.879 1.38 2.17 1.38 3.828s-.466 2.949-1.38 3.827c-.88.852-2.134 1.282-3.73 1.282-1.595 0-2.85-.43-3.728-1.282-.915-.878-1.38-2.17-1.38-3.827 0-1.659.465-2.95 1.38-3.828.878-.851 2.133-1.282 3.728-1.282zm0 1.801c-2.294 0-3.316 1.022-3.316 3.317 0 2.294 1.022 3.316 3.316 3.316 2.295 0 3.317-1.022 3.317-3.316 0-2.295-1.022-3.317-3.317-3.317z" fill="#313235" fill-rule="nonzero"/></svg>