<svg width="24" height="24" viewBox="0 0 24 24" xmlns="http://www.w3.org/2000/svg"><path d="M11.812.003c.685 0 1.126.807 1.556 1.584.256.467.608 1.109.867 1.18.283.073.901-.3 1.395-.599.777-.47 1.513-.914 2.084-.581.582.336.562 1.203.541 2.12-.01.545-.026 1.288.172 1.486.198.199.944.182 1.486.172.917-.02 1.784-.037 2.12.54.33.572-.114 1.308-.58 2.085-.3.497-.677 1.116-.6 1.395.071.259.713.612 1.18.867.78.427 1.584.87 1.584 1.556s-.807 1.126-1.583 1.557c-.468.255-1.11.608-1.18.867-.074.282.299.9.598 1.395.47.776.914 1.512.582 2.084-.337.581-1.204.561-2.121.541-.545-.01-1.288-.027-1.486.172-.198.198-.182.944-.172 1.485.02.918.037 1.785-.54 2.121-.572.33-1.308-.114-2.085-.581-.497-.3-1.116-.676-1.395-.599-.259.071-.611.713-.867 1.18-.43.783-.87 1.587-1.556 1.587s-1.126-.807-1.557-1.583c-.255-.468-.608-1.11-.867-1.18-.282-.074-.9.299-1.398.598-.777.47-1.513.914-2.084.582-.582-.337-.561-1.204-.541-2.121.01-.545.027-1.288-.172-1.486-.198-.198-.944-.182-1.485-.172-.918.02-1.785.037-2.121-.54-.33-.572.114-1.308.581-2.085.3-.497.676-1.116.598-1.395-.07-.259-.712-.611-1.18-.867l-.292-.162C.618 12.824 0 12.412 0 11.812c0-.686.807-1.126 1.583-1.557.467-.255 1.11-.608 1.18-.867.074-.282-.3-.9-.598-1.398-.47-.777-.915-1.513-.582-2.084.336-.582 1.204-.561 2.121-.541.545.01 1.288.027 1.486-.172.198-.198.181-.944.171-1.485-.02-.918-.037-1.785.542-2.121.57-.33 1.307.114 2.084.581.497.3 1.116.676 1.395.598.258-.07.611-.712.867-1.18.433-.776.877-1.583 1.563-1.583zm0 .68c-.286 0-.68.712-.965 1.236-.383.7-.75 1.362-1.284 1.506a.894.894 0 01-.252.03c-.5 0-1.069-.342-1.667-.705-.468-.283-1.173-.71-1.402-.579-.235.138-.218.972-.205 1.523.017.81.034 1.577-.366 1.977-.4.4-1.167.383-1.977.366-.551-.013-1.388-.03-1.523.205-.13.229.296.934.579 1.402.423.699.823 1.361.672 1.919-.145.538-.804.9-1.506 1.284-.521.286-1.237.68-1.237.965 0 .285.713.679 1.237.964.7.384 1.361.75 1.506 1.285.148.557-.249 1.216-.672 1.919-.283.47-.71 1.176-.579 1.402.138.235.972.218 1.523.208.81-.017 1.577-.034 1.977.366.4.4.383 1.167.366 1.977-.013.551-.03 1.388.205 1.522.229.132.934-.295 1.402-.578.595-.36 1.166-.702 1.667-.702.084 0 .168.01.252.033.538.145.9.804 1.284 1.506.286.521.68 1.237.965 1.237.285 0 .679-.712.964-1.237.384-.699.75-1.361 1.285-1.506.557-.147 1.216.253 1.919.673.467.282 1.173.709 1.402.578.235-.138.218-.972.208-1.523-.017-.81-.034-1.576.366-1.976.4-.4 1.167-.387 1.977-.367.551.01 1.388.03 1.522-.208.132-.229-.295-.935-.578-1.402-.423-.699-.823-1.361-.672-1.92.145-.537.803-.9 1.506-1.283.52-.286 1.237-.68 1.237-.965 0-.286-.713-.679-1.237-.965-.7-.383-1.361-.75-1.506-1.284-.148-.558.252-1.216.672-1.919.283-.467.71-1.173.578-1.402-.137-.235-.971-.218-1.522-.205-.81.017-1.577.034-1.977-.366-.4-.4-.386-1.166-.366-1.977.01-.55.03-1.388-.208-1.522-.23-.131-.935.296-1.402.578-.7.423-1.362.823-1.92.672-.537-.144-.9-.803-1.284-1.506-.285-.52-.679-1.237-.964-1.237zm4.272 5.663a.336.336 0 01.057.47l-8.134 10.4a.331.331 0 01-.266.132.337.337 0 01-.265-.545l8.137-10.4a.336.336 0 01.471-.057zm-1.479 6.824c.598 0 1.069.161 1.398.48.343.33.518.814.518 1.436s-.175 1.106-.518 1.435c-.326.32-.796.48-1.395.48-.598 0-1.069-.16-1.398-.48-.343-.33-.518-.813-.518-1.435 0-.622.175-1.106.515-1.436.33-.319.8-.48 1.398-.48zm.003.675c-.86 0-1.243.384-1.243 1.244s.383 1.244 1.243 1.244c.86 0 1.244-.383 1.244-1.244 0-.86-.383-1.244-1.244-1.244zm-5.596-7.23c.598 0 1.069.161 1.398.48.343.33.518.814.518 1.436s-.175 1.106-.518 1.435c-.33.32-.8.481-1.398.481-.599 0-1.07-.161-1.399-.48-.342-.33-.517-.814-.517-1.436s.175-1.106.517-1.435c.33-.32.8-.48 1.399-.48zm0 .676c-.86 0-1.244.383-1.244 1.243 0 .861.383 1.244 1.244 1.244.86 0 1.243-.383 1.243-1.244 0-.86-.383-1.243-1.243-1.243z" fill="#5CB615" fill-rule="nonzero"/></svg>