<svg width="64" height="64" xmlns="http://www.w3.org/2000/svg"><path d="M57.81 59.599c0 .376-.42.762-.842.762H24.341c-.422 0-.807-.448-.807-.762v-45.41c0-.286.448-.762.807-.762h17.81v6.266c0 2.582.897 4.813 2.573 6.427 1.676 1.631 3.935 2.474 6.588 2.474h6.499v31.005zm-36.902-45.41V47.65H6.073c-.34 0-.762-.42-.762-.68V3.316c0-.287.394-.69.762-.69h31.381c.368 0 .762.34.762.69v7.475H24.341c-1.811 0-3.433 1.632-3.433 3.397zm23.87.027L56.932 25.96h-5.62c-1.945 0-3.594-.583-4.742-1.713-1.156-1.129-1.783-2.707-1.783-4.553v-5.477h-.01zm15.605 12.03a1.932 1.932 0 00-.573-1.13L45.62 11.375a1.893 1.893 0 00-1.156-.547c-.08-.027-.161-.027-.26-.027h-3.361V3.317C40.843 1.524 39.292 0 37.454 0H6.082C4.298 0 2.694 1.56 2.694 3.317V46.96c0 1.74 1.63 3.317 3.388 3.317h14.826v9.322c0 1.793 1.604 3.397 3.433 3.397h32.636c1.864 0 3.46-1.586 3.46-3.397v-33.04c0-.098-.027-.206-.054-.314z" fill="#313235" fill-rule="nonzero"/></svg>