<svg width="64" height="64" viewBox="0 0 64 64" xmlns="http://www.w3.org/2000/svg"><path d="M59.325 56.012c-.027.027-.744.735-1.936.79-2.366.089-3.693-1.04-4.778-1.964l-.286-.242c-1.166-.968-2.17-1.81-4.482-1.81-1.3-.1-4.231-.287-4.536-.332-1.237-.323-2.877-1.139-2.877-4.563-.475-10.55-.636-22.265.036-24.632a8.895 8.895 0 01.681-1.783c.188-.574.762-2.313 4.007-2.313 1.945 0 3.2.672 4.347 2.438.09.099 8.65 9.6 10.496 20.49 1.282 7.468 1.05 12.147-.672 13.921zm-26.953-25.26a1.329 1.329 0 00-1.192 0l-4.5 2.269c.009-1.246 0-2.456-.018-3.595l2.958-1.488c.457-.233.744-.699.744-1.219l-.045-19.576 3.272-.045v19.675c0 .52.287.986.744 1.22l3.02 1.523a173.957 173.957 0 00-.009 3.765l-4.974-2.528zm-8.785 17.112c0 3.308-1.64 4.124-2.805 4.428-.377.063-3.317.296-4.608.35-2.303 0-3.307.834-4.472 1.81l-.287.243c-1.085.914-2.367 2.052-4.778 1.963-1.192-.054-1.909-.762-1.936-.79-1.72-1.774-1.954-6.453-.7-13.902 1.847-10.89 10.417-20.4 10.64-20.679 1.014-1.577 2.268-2.25 4.214-2.25 2.904 0 3.675 1.318 4.105 2.537.197.368.385.86.583 1.56.68 2.357.51 14.064.044 24.73zm39.073-6.22c-1.981-11.707-10.801-21.477-11.035-21.701-1.505-2.349-3.62-3.496-6.462-3.496-3.335 0-5.665 1.48-6.454 3.935-.305.547-.556 1.201-.816 2.115-.224.78-.367 2.223-.448 3.998l-1.174-.591V7.08c0-1.479-1.183-2.68-2.635-2.68h-3.317c-1.452 0-2.635 1.201-2.635 2.68V25.86l-1.112.565c-.09-1.811-.224-3.281-.457-4.07-.26-.905-.51-1.578-.717-1.891-.887-2.69-3.218-4.168-6.552-4.168-2.85 0-4.957 1.147-6.32 3.307-.376.413-9.187 10.183-11.177 21.89-1.48 8.72-1.04 13.75 1.434 16.277.242.251 1.56 1.506 3.729 1.605.143.009.278.009.412.009 3.137 0 5.047-1.623 6.203-2.609l.269-.224c1.013-.842 1.452-1.13 2.796-1.192 1.399 0 4.769-.305 5.181-.421 3.147-.834 4.886-3.344 4.886-7.073.098-2.294.286-7 .376-11.796l5.127-2.581 5.611 2.832c.09 4.76.278 9.403.377 11.68 0 3.738 1.739 6.256 4.867 7.081.421.117 3.792.421 5.199.421h.027c1.344 0 1.766.35 2.77 1.193l.268.224c1.157.986 3.066 2.608 6.203 2.608.135 0 .278 0 .413-.009 2.16-.099 3.486-1.353 3.728-1.595 2.474-2.528 2.914-7.557 1.435-16.278z" fill="#313235" fill-rule="nonzero"/></svg>