<svg width="64" height="64" viewBox="0 0 64 64" xmlns="http://www.w3.org/2000/svg"><path d="M3.198 50.114v7.834c0 .78.619 1.416 1.38 1.416h41.045a1.389 1.389 0 001.353-1.416v-9.815c0-.448.206-.86.565-1.12.35-.26.807-.332 1.219-.18 1.174.412 2.286.502 3.012.529.215 0 .493 0 .717-.018 2.026-.036 8.273-.744 8.273-8.766 0-7.718-5.7-8.73-8.184-8.812h-.905c-.44 0-1.613.045-2.931.484-.412.135-.86.054-1.21-.206a1.38 1.38 0 01-.547-1.12v-8.785a1.389 1.389 0 00-1.353-1.416H34.454c-.43 0-.834-.215-1.085-.564a1.413 1.413 0 01-.197-1.237c.332-1.076.493-2.223.493-3.523 0-7.754-5.736-8.749-8.201-8.811h-.888c-2.411.036-8.058.95-8.058 8.757 0 1.309.17 2.519.493 3.577.134.42.054.878-.197 1.237-.251.35-.655.564-1.085.564H4.58a1.4 1.4 0 00-1.381 1.416v6.858h.7c.922.035 2.231.161 3.692.672 2.644.842 7.162 3.388 7.162 10.9 0 7.502-4.509 10.057-7.207 10.917a11.587 11.587 0 01-3.63.6c-.233.028-.475.037-.717.028m42.434 12.02H4.578C2.328 62.134.5 60.252.5 57.948v-9.304c0-.395.17-.771.457-1.031.287-.26.672-.386 1.058-.34.421.053.789.08 1.04.08.233 0 .502 0 .735-.027a9.612 9.612 0 002.94-.484c3.54-1.13 5.324-3.917 5.324-8.282 0-4.384-1.784-7.162-5.306-8.274-1.31-.466-2.483-.52-2.923-.538h-.887c-.215.01-.547.027-.941.063a1.334 1.334 0 01-1.04-.35 1.404 1.404 0 01-.448-1.03v-8.31c0-2.303 1.829-4.185 4.078-4.185h9.448a17.078 17.078 0 01-.206-2.618c0-8.38 5.548-11.455 10.738-11.518h.941c5.262.143 10.855 3.263 10.855 11.581 0 .896-.071 1.748-.197 2.555h9.466c2.232 0 4.051 1.873 4.051 4.186v7.027c.852-.143 1.56-.18 1.99-.18h.96c5.225.153 10.818 3.272 10.818 11.582 0 8.39-5.826 11.455-10.81 11.527-.188.027-.547.027-.914.027a14.224 14.224 0 01-2.044-.206v8.04c0 2.322-1.82 4.195-4.051 4.195" fill="#313235" fill-rule="nonzero"/></svg>