<svg width="64" height="64" viewBox="0 0 64 64" xmlns="http://www.w3.org/2000/svg"><path d="M60.678 60.44a.58.58 0 00-.027-.592L42.123 35.359c-2.868.843-6.588 1.3-10.496 1.3-3.64 0-7.108-.403-9.86-1.138L3.257 60.278c-.027.08 0 .215.054.305a.366.366 0 00.331.215h56.426a.71.71 0 00.61-.359zM25.289 30.778l-1.756 2.357c4.956 1.058 12.029 1.004 16.797-.134l-1.676-2.223a1.319 1.319 0 01-.278-.789V3.198H25.567v23.538c.027.108 0 .216 0 .35v2.895c0 .287-.107.583-.278.798zm37.62 27.518c.745 1.139.771 2.385.162 3.46-.61 1.085-1.739 1.73-3.003 1.73H3.642c-1.129 0-2.169-.591-2.725-1.569-.582-1.003-.546-2.169.054-3.137l21.844-29.248v-2.438a.758.758 0 010-.35V3.207h-3.19c-.745 0-1.38-.618-1.38-1.353 0-.762.627-1.354 1.38-1.354h24.784c.744 0 1.38.592 1.38 1.354 0 .735-.636 1.353-1.38 1.353h-3.28v26.326l21.78 28.764zm-23.376-2.823c.753-.018 3.782-.296 3.782-3.944 0-3.64-3.02-3.944-3.791-3.962h-.386c-.798.009-3.747.278-3.747 3.944s2.985 3.953 3.783 3.962h.359zm.053-10.613c3.218.071 6.481 2.169 6.481 6.669 0 4.508-3.254 6.588-6.48 6.642h-.458c-3.236-.045-6.498-2.125-6.498-6.67 0-4.553 3.253-6.614 6.49-6.641h.465zm-14.279 2.25c.422-.01 2.107-.162 2.107-2.196 0-2.017-1.676-2.188-2.116-2.197h-.206c-.439.01-2.088.162-2.088 2.197 0 2.034 1.667 2.196 2.106 2.205h.072c.045 0 .09-.01.125-.01zm.054-7.09c2.313.053 4.796 1.622 4.796 4.903 0 3.307-2.492 4.858-4.805 4.894h-.287c-2.321-.036-4.813-1.587-4.813-4.912 0-3.335 2.5-4.877 4.813-4.895h.081l.215.01z" fill="#313235" fill-rule="nonzero"/></svg>