<?xml version="1.0" encoding="UTF-8"?>
<svg width="24px" height="24px" viewBox="0 0 24 24" version="1.1" xmlns="http://www.w3.org/2000/svg" xmlns:xlink="http://www.w3.org/1999/xlink">
    <title>1.Light/Quimica_1Light</title>
    <g id="Symbols" stroke="none" stroke-width="1" fill="none" fill-rule="evenodd">
        <g id="1.Light/Quimica_1Light" fill="#5CB615" fill-rule="nonzero">
            <path d="M22.5983193,22.4773109 C22.6184874,22.4369748 22.6487395,22.3563025 22.5882353,22.2554622 L15.6403361,13.0722689 C14.5647059,13.3882353 13.1697479,13.5596639 11.7042017,13.5596639 C10.3394958,13.5596639 9.03865546,13.4084034 8.00672269,13.1327731 L1.06554622,22.4168067 C1.05546218,22.4470588 1.06554622,22.497479 1.08571429,22.5310924 C1.10588235,22.5714286 1.14621849,22.6117647 1.21008403,22.6117647 L22.3697479,22.6117647 C22.5042017,22.6084034 22.5781513,22.5176471 22.5983193,22.4773109 L22.5983193,22.4773109 Z M9.32773109,11.3546218 L8.66890756,12.2386555 C10.5277311,12.6352941 13.1798319,12.6151261 14.9680672,12.1882353 L14.3394958,11.3546218 C14.2756303,11.2739496 14.2352941,11.1630252 14.2352941,11.0588235 L14.2352941,1.01176471 L9.43193277,1.01176471 L9.43193277,9.83865546 C9.44201681,9.8789916 9.43193277,9.91932773 9.43193277,9.9697479 L9.43193277,11.0554622 C9.43193277,11.1630252 9.39159664,11.2739496 9.32773109,11.3546218 Z M23.4352941,21.6739496 C23.7142857,22.1008403 23.7243697,22.5680672 23.4957983,22.9714286 C23.2672269,23.3781513 22.8436975,23.6201681 22.3697479,23.6201681 L1.21008403,23.6201681 C0.786554622,23.6201681 0.396638655,23.3983193 0.188235294,23.0319328 C-0.0302521008,22.6554622 -0.0168067227,22.2184874 0.208403361,21.8554622 L8.4,10.887395 L8.4,9.97310924 C8.38991597,9.92268908 8.38991597,9.87226891 8.4,9.84201681 L8.4,1.01512605 L7.20336134,1.01512605 C6.92436975,1.01512605 6.68571429,0.783193277 6.68571429,0.507563025 C6.68571429,0.221848739 6.9210084,0 7.20336134,0 L16.497479,0 C16.7764706,0 17.0151261,0.221848739 17.0151261,0.507563025 C17.0151261,0.783193277 16.7764706,1.01512605 16.497479,1.01512605 L15.2672269,1.01512605 L15.2672269,10.887395 L23.4352941,21.6739496 Z M14.6689076,20.6151261 C14.9512605,20.6084034 16.087395,20.5042017 16.087395,19.1361345 C16.087395,17.7714286 14.9546218,17.6571429 14.6655462,17.6504202 L14.5210084,17.6504202 C14.2218487,17.6537815 13.1159664,17.7546218 13.1159664,19.1294118 C13.1159664,20.5042017 14.2352941,20.6117647 14.5344538,20.6151261 L14.6689076,20.6151261 L14.6689076,20.6151261 Z M14.6890756,16.6352941 C15.8957983,16.6621849 17.1193277,17.4487395 17.1193277,19.1361345 C17.1193277,20.8268908 15.8991597,21.6067227 14.6890756,21.6268908 L14.5176471,21.6268908 C13.3042017,21.610084 12.0806723,20.8302521 12.0806723,19.1260504 C12.0806723,17.4184874 13.3008403,16.6453782 14.5142857,16.6352941 L14.6890756,16.6352941 L14.6890756,16.6352941 Z M9.33445378,17.4789916 C9.49243697,17.4756303 10.1243697,17.4184874 10.1243697,16.6554622 C10.1243697,15.8991597 9.49579832,15.8352941 9.33109244,15.8319328 L9.25378151,15.8319328 C9.08907563,15.8352941 8.47058824,15.892437 8.47058824,16.6554622 C8.47058824,17.4184874 9.09579832,17.4789916 9.2605042,17.4823529 L9.28739496,17.4823529 C9.30420168,17.4823529 9.3210084,17.4789916 9.33445378,17.4789916 L9.33445378,17.4789916 Z M9.35462185,14.8201681 C10.2218487,14.8403361 11.1529412,15.4285714 11.1529412,16.6588235 C11.1529412,17.8991597 10.2184874,18.4806723 9.3512605,18.4941176 L9.24369748,18.4941176 C8.37310924,18.4806723 7.43865546,17.8991597 7.43865546,16.6521008 C7.43865546,15.4016807 8.37647059,14.8235294 9.24369748,14.8168067 L9.27394958,14.8168067 L9.35462185,14.8201681 L9.35462185,14.8201681 Z" id="Quimica_1Light"></path>
        </g>
    </g>
</svg>