<svg width="64" height="64" viewBox="0 0 64 64" xmlns="http://www.w3.org/2000/svg"><path d="M13.505.5c.502 0 .906.403.906.905 0 1.426.645 2.59 1.909 3.451 1.371.933 3.37 1.426 5.781 1.426h6.32c3.2 0 4.733 1.694 5.459 3.119a7.418 7.418 0 01.761 3.014v2.101c10.883.34 16.628 6.332 16.628 17.383v14.199c0 5.996-1.363 10.29-4.168 13.113-2.877 2.887-7.27 4.285-13.455 4.285-11.527 0-17.622-6.014-17.622-17.398v-10.72a.882.882 0 010-.252V31.9c0-11.112 5.808-17.108 16.807-17.388v-2.08a5.69 5.69 0 00-.592-2.268c-.717-1.38-2.008-2.08-3.818-2.08H22.1c-5.772 0-9.501-2.617-9.501-6.678 0-.502.403-.905.905-.905zm35.962 35.773l1.004-.134a121.562 121.562 0 01-16.654 1.139h-.359c-5.21 0-10.461-.34-15.632-1.002v9.83c0 10.345 5.324 15.588 15.82 15.588 5.683 0 9.663-1.228 12.173-3.755 2.456-2.474 3.648-6.347 3.648-11.841v-9.825zm-15.82-19.961c-10.497 0-15.821 5.243-15.821 15.587l-.001 2.56.478.063c5.07.64 10.22.954 15.326.954h.179c5.22 0 10.482-.342 15.66-1.019V31.9c-.01-10.344-5.334-15.587-15.822-15.587zm0 4.437c.501 0 .905.403.905.905v9.475a.914.914 0 01-.906.905.903.903 0 01-.905-.905v-9.475c0-.502.404-.905.905-.905z" fill="#313235" fill-rule="nonzero"/></svg>