<svg width="64" height="64" viewBox="0 0 64 64" xmlns="http://www.w3.org/2000/svg"><path d="M24.269 56.121l7.413-19.146a1.351 1.351 0 00-.054-1.103 1.323 1.323 0 00-.852-.681l-13.561-3.316 23.153-24.57-7.279 18.268a1.34 1.34 0 00.054 1.112c.17.35.484.591.86.69l14.835 3.612-24.57 25.134zm28.397-26.254a1.313 1.313 0 00-.96-.933l-15.623-3.81L45.36 1.847a1.353 1.353 0 00-.502-1.622A1.297 1.297 0 0043.2.421L13.728 31.686c-.323.34-.44.843-.314 1.3.134.457.493.816.95.923l14.324 3.505-9.197 23.736c-.224.591-.018 1.263.502 1.604a1.296 1.296 0 001.65-.18l30.69-31.408c.342-.331.467-.833.333-1.3z" fill="#313235" fill-rule="nonzero"/></svg>