<svg width="24" height="24" viewBox="0 0 24 24" xmlns="http://www.w3.org/2000/svg"><path d="M9.1 21.045l2.78-7.18a.507.507 0 00-.02-.413.496.496 0 00-.319-.255l-5.086-1.244 8.683-9.214-2.73 6.85a.502.502 0 00.343.677l5.563 1.354-9.213 9.425zM19.75 11.2a.492.492 0 00-.36-.35L13.53 9.422l3.48-8.73a.507.507 0 00-.19-.608.487.487 0 00-.621.074L5.148 11.882a.515.515 0 00-.118.488c.05.171.185.306.357.346l5.371 1.314-3.449 8.901a.505.505 0 00.188.602.486.486 0 00.618-.067l11.51-11.779a.49.49 0 00.125-.487z" fill="#5CB615" fill-rule="nonzero"/></svg>