<svg width="64" height="64" viewBox="0 0 64 64" xmlns="http://www.w3.org/2000/svg"><path d="M61.911.233a1.968 1.968 0 00-2.07.359l-9.017 8.55c-5.531-4.23-12.388-6.507-19.442-6.453C15.516 2.662 2.142 14.073.233 29.257c-1.91 15.184 8.273 29.347 23.682 32.96 15.408 3.612 31.193-4.456 36.742-18.788.35-.915-.126-1.937-1.076-2.286a1.912 1.912 0 00-1.425.036 1.818 1.818 0 00-.977 1.004C52.993 52.93 42.129 59.877 30.234 59.41 18.34 58.945 8.094 51.164 4.84 40.13 1.578 29.087 6.032 17.273 15.883 10.837c9.851-6.436 22.885-6.06 32.314.95l-8.318 7.915a1.728 1.728 0 00-.43 1.954c.287.672.968 1.112 1.72 1.112l18.932-1.139c.932-.054 1.685-.77 1.739-1.676l1.147-17.82a1.838 1.838 0 00-1.076-1.9z" fill="#313235" fill-rule="nonzero"/></svg>