<svg width="64" height="64" viewBox="0 0 64 64" xmlns="http://www.w3.org/2000/svg"><path d="M60.762 30.405c0 1.13-.807 1.981-1.335 1.981H33.18V18.851h26.246c.448 0 1.335.896 1.335 1.981v9.573zm-4.23 28.468c0 1.13-.807 1.981-1.336 1.981H33.19V35.04h23.341v23.834zm-49.256-.009V35.326c0-.107-.035-.197-.062-.296h23.251v25.815H8.603c-.52 0-1.335-.851-1.327-1.98zM3.234 30.405v-9.582c0-1.085.887-1.98 1.335-1.98h25.896v13.534H4.561c-.52 0-1.327-.851-1.327-1.972zM15.182 6.141c1.085-1.623 2.358-2.59 3.792-2.887.314-.062.627-.09.95-.09 1.165 0 2.411.413 3.72 1.238 2.841 1.792 5.53 8.031 6.58 11.222-3.344.359-10.38.538-13.24-1.264-1.667-1.048-2.671-2.294-2.967-3.675-.305-1.398.08-2.922 1.165-4.544zm24.982-1.748c1.667-1.058 3.236-1.443 4.67-1.139 1.434.296 2.707 1.264 3.791 2.887 2.179 3.253 1.56 6.086-1.792 8.21-2.86 1.811-9.887 1.632-13.24 1.264 1.04-3.19 3.72-9.42 6.57-11.222zm19.272 11.805H48.823c1.954-1.372 3.227-3.075 3.639-4.975.448-2.07-.09-4.33-1.56-6.534-1.47-2.197-3.379-3.595-5.512-4.034-2.125-.448-4.455.08-6.723 1.524-2.985 1.882-5.37 6.669-6.777 10.21-1.398-3.55-3.782-8.328-6.758-10.21C22.864.745 20.542.207 18.409.655c-2.133.44-4.042 1.837-5.512 4.034-1.47 2.196-2.008 4.454-1.56 6.534.412 1.9 1.694 3.594 3.64 4.975H4.56C2.436 16.198.5 18.403.5 20.823v9.582c0 2.465 1.9 4.634 4.06 4.634h.036c-.027.099-.062.189-.062.296v23.538c0 2.465 1.9 4.635 4.07 4.635h46.583c2.16 0 4.06-2.16 4.06-4.626V35.04h.18c2.16 0 4.06-2.16 4.06-4.625v-9.591c.01-2.42-1.927-4.625-4.051-4.625z" fill="#313235" fill-rule="nonzero"/></svg>