<svg width="64" height="64" xmlns="http://www.w3.org/2000/svg"><path d="M59.832 49.631a1.444 1.444 0 000-2.043L48.726 36.473l-4.804 4.715a1.36 1.36 0 01-1.928-.01l-.009-.008a1.372 1.372 0 01.018-1.936l4.787-4.706-4.822-4.832-7.243 7.234a1.363 1.363 0 01-1.936 0 1.363 1.363 0 010-1.936l7.233-7.243-4.813-4.813-4.267 4.204a1.372 1.372 0 01-1.927-1.954l.01-.01 4.248-4.176-4.823-4.823-8.022 8.032a1.363 1.363 0 01-1.936 0 1.363 1.363 0 010-1.936l8.022-8.023-4.822-4.831-3.998 3.935a1.382 1.382 0 01-1.945-.018 1.382 1.382 0 01.018-1.945l3.989-3.917-4.348-4.348a1.453 1.453 0 00-2.043-.009l-.01.01-10.19 10.2a1.455 1.455 0 000 2.053l44.423 44.45a1.461 1.461 0 002.043 0l10.2-10.2zm1.936-3.997a4.177 4.177 0 011.228 2.967 4.14 4.14 0 01-1.228 2.967l-10.192 10.2a4.177 4.177 0 01-2.966 1.228 4.12 4.12 0 01-2.958-1.228L1.228 17.318A4.12 4.12 0 010 14.36c0-1.12.43-2.17 1.228-2.967l10.192-10.2c1.577-1.587 4.347-1.587 5.925 0l44.423 44.44zM50.662 49.73a1.694 1.694 0 00-.618-2.304 1.67 1.67 0 00-2.286.61s0 .009-.009.009a1.68 1.68 0 00.61 2.294 1.681 1.681 0 002.303-.609zm.413-4.087a3.752 3.752 0 011.389 5.109 3.752 3.752 0 01-5.11 1.39 3.73 3.73 0 01-1.756-2.287 3.709 3.709 0 01.376-2.841 3.738 3.738 0 015.092-1.38c0 .009 0 .009.009.009z" fill="#313235" fill-rule="nonzero"/></svg>