<svg width="24" height="24" viewBox="0 0 24 24" xmlns="http://www.w3.org/2000/svg"><path d="M20.286 1c1.052 0 1.872.279 2.44.824.588.568.887 1.411.887 2.504v14.41c0 1.092-.299 1.936-.887 2.504-.568.548-1.388.827-2.44.827h-7.762c-1.052 0-1.872-.28-2.44-.824-.588-.568-.887-1.411-.887-2.504V4.328c0-1.093.299-1.936.887-2.504.571-.545 1.392-.824 2.44-.824h7.762zM6.03 10.876c.575 0 1.029.154 1.345.463.333.32.497.784.497 1.382v7.469c0 .598-.168 1.062-.497 1.381-.313.306-.767.464-1.341.464H1.852c-.575 0-1.028-.154-1.344-.464-.333-.319-.501-.783-.501-1.381V12.72c0-.598.168-1.062.497-1.382.32-.305.77-.463 1.345-.463H6.03zm14.256-9.204h-7.762c-1.785 0-2.655.867-2.655 2.656v14.41c0 1.788.867 2.655 2.655 2.655h7.762c1.788 0 2.655-.867 2.655-2.655V4.328c0-1.789-.867-2.656-2.655-2.656zM6.034 11.548H1.852c-.81 0-1.173.363-1.173 1.173v7.469c0 .81.363 1.173 1.173 1.173h4.182c.81 0 1.173-.363 1.173-1.173V12.72c0-.81-.363-1.173-1.173-1.173zm-2.226 8.366c.219 0 .36.115.36.357 0 .117-.027.198-.09.262-.065.064-.155.094-.27.094a.382.382 0 01-.269-.094c-.057-.057-.09-.145-.09-.262 0-.242.14-.357.36-.357zm12.599-1.448c.363 0 .598.188.598.595 0 .194-.054.339-.151.436-.104.108-.259.158-.447.158-.189 0-.343-.05-.447-.158-.098-.097-.152-.242-.152-.436 0-.407.236-.595.599-.595zM6.474 3.306c.034.03.834.71 1.126 1.002.387.386.39.83.007 1.21-.148.148-1.032.907-1.133.991A.337.337 0 016.037 6c.258-.22.616-.53.854-.74h-.575c-1.785 0-2.655.87-2.655 2.655V9.23a.336.336 0 11-.673.003V7.914c0-1.092.3-1.936.888-2.504.568-.548 1.388-.823 2.44-.823h.601a36.472 36.472 0 00-.88-.77.336.336 0 11.437-.511z" fill="#5CB615" fill-rule="nonzero"/></svg>