<svg width="64" height="64" viewBox="0 0 64 64" xmlns="http://www.w3.org/2000/svg"><path d="M24.264 25.824c.018-.072.018-.152.018-.233v-6.077h-10.98v6.068c0 .08.009.161.018.233h2.886c.08 0 .27.027.35.045.69.125 1.165.78 1.057 1.479-1.362 9.098-3.657 28.164-3.684 28.36.01 4.07 2.905 4.742 4.635 4.77h.528c1.73-.037 4.626-.709 4.626-4.886-.01-.036-1.596-15.892-3.442-28.119a1.298 1.298 0 011.246-1.64h2.742zM25.591.144A1.31 1.31 0 0126.9 1.451v24.13c0 1.622-.906 2.85-2.089 2.85h-1.739c1.757 12.065 3.245 26.864 3.263 27.017.009 5.566-3.863 7.565-7.18 7.628h-.61c-3.316-.054-7.197-2.053-7.197-7.539.036-.331 2.106-17.541 3.487-27.106h-2.026c-1.192 0-2.098-1.228-2.098-2.85 0-24.139 0-24.166.01-24.22.026-.699.618-1.254 1.317-1.228h.027c.708.027 1.264.61 1.255 1.318v15.444h4.016V1.452A1.31 1.31 0 0118.582.09a1.31 1.31 0 011.362 1.246v15.57H24.3V1.451c-.018-.717.565-1.3 1.291-1.309zm19.98 60.324c1.676-.036 4.482-.69 4.482-4.732-.01 0-1.013-9.968-2.322-20.007a1.203 1.203 0 01-.036-.314v-.054c0-.529.314-.986.771-1.2V2.921a9.5 9.5 0 00-8.166 9.403v21.781h1.524c.717 0 1.309.592 1.309 1.31 0 .053-.01.214-.01.268-1.218 9.16-2.545 20.16-2.545 20.168.01 3.944 2.815 4.598 4.482 4.616h.51zm4.894-23.941a776.198 776.198 0 012.187 19.083c.01 5.459-3.791 7.413-7.036 7.476h-.6c-3.255-.045-7.055-2-7.055-7.386.009-.153 1.21-10.111 2.375-18.976h-1.344c-.717 0-1.3-.583-1.3-1.309v-23.09c0-6.678 5.405-12.092 12.083-12.1.717 0 1.3.582 1.3 1.308v33.891c0 .44-.225.86-.61 1.103z" fill="#313235" fill-rule="nonzero"/></svg>