<svg width="24" height="24" viewBox="0 0 24 24" xmlns="http://www.w3.org/2000/svg"><path d="M11.829.027c3.768 0 6.689.975 8.685 2.9 2.07 1.997 3.123 4.996 3.123 8.908.003 7.721-4.08 11.805-11.808 11.805C4.108 23.64.024 19.56.024 11.835.024 4.111 4.104.027 11.829.027zm0 .672C4.444.7.696 4.447.696 11.835c0 7.385 3.744 11.133 11.133 11.133 7.391 0 11.136-3.744 11.136-11.133C22.968 4.444 19.22.7 11.829.7zm-.884 6.508a.34.34 0 01.171.292l-.001 3.812a.33.33 0 01.119-.124l6.608-3.97a.332.332 0 01.34-.004.34.34 0 01.17.293v7.902a.334.334 0 01-.335.337.346.346 0 01-.172-.048l-6.608-3.932a.34.34 0 01-.122-.127l.001 3.764a.334.334 0 01-.171.292.301.301 0 01-.162.047.346.346 0 01-.171-.047L4 11.758a.337.337 0 01-.003-.578l6.608-3.97a.332.332 0 01.34-.003zm6.736.894l-5.617 3.375 5.617 3.344V8.1zm-7.237-.007L4.827 11.47l5.617 3.344V8.094z" fill="#313235" fill-rule="nonzero"/></svg>