<svg width="24" height="24" viewBox="0 0 24 24" xmlns="http://www.w3.org/2000/svg"><path d="M3.31 18.266c.488 0 .804.252.804.796 0 .262-.074.454-.201.588-.142.142-.347.212-.602.212-.252 0-.46-.067-.602-.212-.13-.13-.201-.326-.201-.588 0-.544.316-.796.803-.796zm2.925 0c.488 0 .804.252.804.796 0 .262-.074.454-.202.588-.141.142-.346.212-.598.212-.256 0-.46-.067-.602-.212-.131-.13-.202-.326-.202-.588-.003-.544.313-.796.8-.796zm16.404 1.778v-1.967c0-.88-.209-1.54-.619-1.966-.423-.44-1.099-.662-2.01-.662H3.617c-.911 0-1.59.222-2.01.662-.41.427-.619 1.086-.619 1.966v1.967c0 .88.209 1.54.619 1.966.423.44 1.099.662 2.01.662H20.01c.911 0 1.587-.222 2.01-.662.41-.427.619-1.086.619-1.966zm.09-4.615c.592.615.895 1.505.895 2.648v1.967c0 1.143-.303 2.033-.895 2.648-.618.642-1.532.965-2.722.965H3.617c-1.19 0-2.104-.323-2.723-.965C.3 22.077 0 21.187 0 20.044v-1.967c0-1.143.3-2.033.894-2.648.619-.64 1.533-.965 2.723-.965h2.265V5.576a.491.491 0 01.982 0v8.891h13.14c1.193 0 2.107.323 2.725.962zm-9.16-9.886C13.54 2.639 11.668.904 11.65.887a.494.494 0 01.66-.732c.09.08 2.208 2.027 2.245 5.358.006.124.12 3.395-2.212 5.479a.49.49 0 01-.696-.04.49.49 0 01.04-.697c1.987-1.768 1.886-4.682 1.883-4.712zm-3.105.033C10.444 3.798 9.32 2.77 9.31 2.76a.493.493 0 01.659-.73c.06.054 1.455 1.335 1.479 3.52.003.074.077 2.225-1.46 3.603a.49.49 0 01-.692-.037l-.003-.003a.49.49 0 01.04-.696c1.194-1.066 1.13-2.824 1.13-2.84z" fill="#5CB615" fill-rule="nonzero"/></svg>