<svg width="64" height="64" viewBox="0 0 64 64" xmlns="http://www.w3.org/2000/svg"><path d="M9.33 49.125c1.299 0 2.141.672 2.141 2.124 0 .7-.197 1.21-.537 1.569-.377.376-.924.565-1.605.565-.672 0-1.228-.18-1.604-.565-.35-.35-.538-.87-.538-1.569 0-1.452.842-2.124 2.142-2.124zm7.797 0c1.3 0 2.143.672 2.143 2.124 0 .7-.197 1.21-.538 1.569-.377.376-.923.565-1.596.565-.68 0-1.228-.18-1.604-.565-.35-.35-.538-.87-.538-1.569-.009-1.452.834-2.124 2.133-2.124zm43.743 4.742v-5.244c0-2.349-.556-4.105-1.65-5.244-1.129-1.174-2.93-1.766-5.36-1.766H10.145c-2.43 0-4.24.592-5.36 1.766-1.094 1.139-1.65 2.895-1.65 5.244v5.244c0 2.348.556 4.105 1.65 5.243 1.129 1.175 2.93 1.766 5.36 1.766H53.86c2.43 0 4.231-.591 5.36-1.766 1.094-1.138 1.65-2.895 1.65-5.243zm.242-12.307c1.577 1.64 2.384 4.015 2.384 7.063v5.244c0 3.047-.807 5.423-2.384 7.063-1.65 1.712-4.088 2.572-7.26 2.572H10.144c-3.173 0-5.611-.86-7.26-2.572C1.297 59.29.5 56.914.5 53.867v-5.244c0-3.048.798-5.423 2.384-7.063 1.65-1.703 4.088-2.573 7.26-2.573h6.042v-23.7a1.31 1.31 0 011.309-1.308c.717 0 1.309.591 1.309 1.308v23.709h35.038c3.182 0 5.62.86 7.27 2.564zM36.686 15.198c-.08-7.745-5.073-12.37-5.118-12.415a1.316 1.316 0 01-.09-1.855 1.322 1.322 0 011.847-.099c.242.215 5.889 5.405 5.987 14.288.018.332.323 9.053-5.898 14.61a1.31 1.31 0 01-1.855-.107 1.31 1.31 0 01.107-1.855c5.298-4.715 5.029-12.487 5.02-12.567zm-8.282.09c-.054-4.742-3.048-7.485-3.075-7.512a1.315 1.315 0 01.027-1.856 1.322 1.322 0 011.73-.09c.161.144 3.881 3.56 3.944 9.386.009.197.206 5.934-3.89 9.609a1.306 1.306 0 01-1.847-.099l-.009-.009a1.31 1.31 0 01.108-1.855c3.182-2.842 3.012-7.53 3.012-7.575z" fill="#313235" fill-rule="nonzero"/></svg>