<svg width="64" height="64" xmlns="http://www.w3.org/2000/svg"><path d="M35.178 0c.039 0 .078.003.116.008L35.178 0a.888.888 0 01.427.11c.076.04.146.09.209.15l17.479 17.479a.878.878 0 01.26.636v41.95c0 1.407-1.237 2.644-2.644 2.644H10.707c-1.38 0-2.644-1.264-2.644-2.644V2.645C8.063 1.308 9.37 0 10.707 0h24.47zm-.897 1.792H10.707c-.34 0-.852.512-.852.852v57.68c0 .386.467.852.852.852h40.202c.412 0 .851-.439.851-.851V19.27h-7.843c-2.814 0-5.226-.923-6.974-2.661-1.747-1.74-2.662-4.15-2.662-6.974V1.792zm-6.875 28.872c.493 0 .897.404.897.897v23.475a.899.899 0 01-.897.897.899.899 0 01-.896-.897V31.561c0-.493.403-.897.896-.897zm12.97 4.025c.493 0 .897.403.897.896l.001 1.178c1.286.115 2.477.486 3.423 1.072.412.251.636.61.636.995 0 .565-.457 1.031-1.03 1.031a1.482 1.482 0 01-.646-.18l-.009-.008c-.809-.437-1.58-.708-2.375-.823v5.329l.018.003c2.277.286 4.992 1.326 4.992 4.67-.016 2.793-1.908 4.63-5.01 4.95v1.19a.899.899 0 01-.897.896.899.899 0 01-.896-.896v-1.18a9.051 9.051 0 01-4.311-1.572c-.35-.242-.52-.556-.52-.96a1.07 1.07 0 011.075-1.057c.26.009.502.09.717.233 1.01.675 2.029 1.096 3.04 1.259l-.002-5.603c-3.658-.627-4.445-2.79-4.445-4.53 0-2.66 1.715-4.475 4.446-4.804v-1.193c0-.493.403-.896.896-.896zM18.577 16.636c.493 0 .896.404.896.897v37.459a.899.899 0 01-.896.896.899.899 0 01-.896-.896v-37.46c0-.492.403-.896.896-.896zm22.698 29.727l-.001 5.375c1.785-.239 2.858-1.259 2.858-2.788 0-1.026-.357-2.122-2.857-2.587zm-4.09-4.906c0 .882.288 1.918 2.293 2.432l.001-5.026c-1.435.268-2.294 1.21-2.294 2.594zm13.31-23.979L36.074 3.064v6.572c0 4.76 3.083 7.843 7.843 7.843l6.578-.001z" fill="#313235" fill-rule="nonzero"/></svg>