<svg width="24" height="24" viewBox="0 0 24 24" xmlns="http://www.w3.org/2000/svg"><path d="M13.192 0a.36.36 0 01.239.097l6.554 6.555a.333.333 0 01.097.239v15.73c0 .529-.464.992-.991.992H4.015c-.518 0-.991-.474-.991-.991V.992c0-.501.49-.992.991-.992h9.177zm-.337.672h-8.84c-.128 0-.32.192-.32.32v21.63c0 .144.176.32.32.32h15.076c.154 0 .32-.166.32-.32L19.41 7.226h-2.941c-1.056 0-1.96-.345-2.615-.997-.656-.653-.999-1.557-.999-2.616V.672zm-2.578 10.827c.185 0 .336.151.336.336v8.804a.337.337 0 01-.336.336.337.337 0 01-.336-.336v-8.804c0-.185.151-.336.336-.336zm4.864 1.51c.185 0 .336.15.336.336v.441c.483.043.93.182 1.284.402.155.094.239.229.239.373a.387.387 0 01-.387.387.556.556 0 01-.242-.067l-.003-.004a2.653 2.653 0 00-.89-.308l-.001 1.998.007.001c.854.108 1.872.498 1.872 1.751-.006 1.048-.715 1.737-1.878 1.857v.446a.337.337 0 01-.337.336.337.337 0 01-.336-.336v-.443a3.394 3.394 0 01-1.617-.59.414.414 0 01-.195-.359.401.401 0 01.404-.396.511.511 0 01.269.087c.378.253.76.411 1.14.472l-.001-2.102-.02-.002c-1.355-.24-1.647-1.046-1.647-1.696 0-.997.643-1.678 1.667-1.801v-.447c0-.185.151-.337.336-.337zm-8.175-6.77c.185 0 .337.15.337.336v14.047a.337.337 0 01-.337.336.337.337 0 01-.336-.336V6.575c0-.185.152-.336.336-.336zm8.513 11.147l-.002 2.016c.67-.09 1.073-.472 1.073-1.046 0-.384-.134-.795-1.071-.97zm-1.534-1.84c0 .33.107.719.858.912v-1.884c-.537.1-.858.454-.858.972zm4.99-8.992L13.529 1.15v2.463c0 1.785 1.156 2.942 2.94 2.942l2.468-.001z" fill="#5CB615" fill-rule="nonzero"/></svg>