<svg width="24" height="24" viewBox="0 0 24 24" xmlns="http://www.w3.org/2000/svg"><path d="M11.69.01c3.105 0 5.633 2.333 5.633 5.197v3.418c.702.14 1.278.416 1.724.83.7.646 1.059 1.607 1.076 2.858v7.509c-.017 1.25-.377 2.212-1.076 2.857-.669.615-1.634.931-2.87.931h-9.24c-1.238 0-2.203-.316-2.868-.934-.696-.65-1.049-1.61-1.049-2.86l.004-6.962-.003-.308v-.23c0-1.25.352-2.212 1.048-2.86.45-.418 1.035-.698 1.75-.836l.001-3.413C5.82 2.339 8.348.01 11.454.01h.235zm4.486 9.234h-9.24c-1.049 0-1.849.248-2.38.743-.54.497-.817 1.284-.817 2.326l.001.042.002.262v.237l-.003 6.961c0 1.042.276 1.825.82 2.333.528.49 1.332.743 2.38.743h9.237c2.145 0 3.2-1.005 3.227-3.076V12.32c-.027-2.07-1.082-3.075-3.227-3.075zm-4.598 5.808c1.264 0 1.99.726 1.99 1.99.003 1.264-.723 1.99-1.99 1.99-1.264 0-1.99-.726-1.99-1.99s.726-1.99 1.99-1.99zm0 .72c-.867 0-1.27.403-1.27 1.27s.403 1.27 1.27 1.27 1.27-.403 1.27-1.27-.403-1.27-1.27-1.27zM11.69.685h-.235c-2.733 0-4.955 2.027-4.955 4.52l-.001 3.33c.143-.01.29-.015.441-.015h9.237c.161 0 .317.005.469.016l-.001-3.33c0-2.491-2.222-4.521-4.955-4.521z" fill="#313235" fill-rule="nonzero"/></svg>