<svg width="24" height="24" viewBox="0 0 24 24" xmlns="http://www.w3.org/2000/svg"><path d="M11.808 22.639c7.187 0 10.827-3.64 10.827-10.824C22.635 4.63 18.992.988 11.808.988 4.625.988.985 4.632.985 11.815S4.629 22.64 11.808 22.64zm0-22.639c7.731 0 11.816 4.087 11.816 11.815 0 7.724-4.085 11.809-11.816 11.809C4.084 23.624 0 19.539 0 11.815 0 4.087 4.084 0 11.808 0zm2.121 12.413l3.227-3.119-3.227-3.13v1.18c0 .273-.295.555-.564.555H8.518a.17.17 0 00-.121.05.16.16 0 00-.05.122v9.657h2.564V11.18c0-.272.222-.49.49-.49h1.957c.145.01.282.073.383.174.094.094.182.249.182.38.006 0 .006 1.17.006 1.17zm.306-7.32l3.748 3.633a.77.77 0 01-.027 1.156l-3.687 3.57c-.28.229-.602.266-.877.138a.778.778 0 01-.45-.703v-1.213h-1.043v6.544c0 .273-.222.491-.49.491H7.851a.491.491 0 01-.49-.49V8.066c0-.309.12-.598.339-.817.218-.218.507-.34.817-.34l4.427.004V5.691c0-.303.171-.568.447-.7a.789.789 0 01.843.101z" fill="#313235" fill-rule="nonzero"/></svg>