<svg width="24" height="24" viewBox="0 0 24 24" xmlns="http://www.w3.org/2000/svg"><path d="M23.277 19.798c.185 0 .336.152.336.336a.337.337 0 01-.336.337H.337A.337.337 0 010 20.134c0-.184.151-.336.336-.336h22.941zM20.01 4.027c1.217 0 2.141.353 2.75 1.049.571.655.864 1.623.864 2.877v5.926c0 1.254-.29 2.222-.864 2.877-.609.7-1.533 1.052-2.75 1.052H3.624c-1.217 0-2.142-.353-2.75-1.048C.299 16.1.01 15.133.01 13.879V7.953c0-1.254.29-2.222.864-2.877.608-.696 1.533-1.05 2.75-1.05H20.01zm0 .672H3.624C1.617 4.7.682 5.734.682 7.956v5.926c0 2.222.935 3.257 2.942 3.257H20.01c2.007 0 2.941-1.035 2.941-3.257v-5.93c0-2.22-.934-3.253-2.94-3.253zm-4.289 1.68c.669 0 1.297.226 1.365.25.319.117.527.386.54.699.014.312-.17.598-.48.743l-.591.275-.088.42.377.202.591-.276a.856.856 0 01.373-.087c.242 0 .471.114.612.313.148.208.175.48.08.746-.09.245-.204.477-.335.702-.313.538-.68.908-1.09 1.1a2.19 2.19 0 01-.924.184c-.618 0-1.2-.188-1.34-.238h-.014l-4.538 2.114-.01.01c-.091.235-.199.46-.326.676-.313.538-.68.907-1.09 1.099a2.202 2.202 0 01-.924.185 4.38 4.38 0 01-1.368-.249c-.32-.118-.53-.386-.541-.7-.01-.312.175-.597.484-.742l.592-.276.087-.42-.376-.201-.592.275a.856.856 0 01-.373.088.74.74 0 01-.612-.313c-.148-.208-.175-.48-.08-.746.09-.246.204-.478.336-.703.312-.538.679-.907 1.089-1.099.262-.12.574-.185.924-.185.618 0 1.2.188 1.341.239h.014l4.534-2.114.01-.01c.09-.236.198-.461.326-.676.316-.538.683-.908 1.093-1.1a2.19 2.19 0 01.924-.184zm0 .673c-.225 0-.45.034-.642.121-.679.32-1.076 1.419-1.076 1.419a.71.71 0 01-.322.356l-4.585 2.141a.752.752 0 01-.272.05.63.63 0 01-.209-.033s-.565-.209-1.136-.209c-.225 0-.45.03-.642.121-.679.32-1.076 1.419-1.076 1.419-.033.097-.006.158.06.158a.2.2 0 00.088-.024l.662-.309a.524.524 0 01.216-.044.536.536 0 01.248.054l.66.353a.367.367 0 01.174.377l-.155.732a.589.589 0 01-.289.363l-.662.31c-.128.064-.124.151.01.201 0 0 .565.209 1.136.209.225 0 .45-.03.642-.121.68-.32 1.076-1.419 1.076-1.419a.717.717 0 01.323-.353l4.584-2.144a.752.752 0 01.273-.05c.07 0 .14.01.208.033 0 0 .565.208 1.136.208.225 0 .45-.03.642-.12.68-.32 1.076-1.42 1.076-1.42.034-.097.007-.157-.06-.157a.2.2 0 00-.088.023l-.662.31a.524.524 0 01-.215.043.536.536 0 01-.249-.053l-.659-.353a.373.373 0 01-.175-.377l.155-.733a.586.586 0 01.289-.366l.662-.31c.128-.06.125-.147-.01-.197 0 0-.565-.209-1.136-.209z" fill="#5CB615" fill-rule="nonzero"/></svg>