<svg width="24" height="24" viewBox="0 0 24 24" xmlns="http://www.w3.org/2000/svg"><path d="M22.605 21.042c-.01.585-.242 1.573-1.69 1.573-1.446 0-1.671-.968-1.681-1.553v-.191c.02-.585.255-1.553 1.64-1.584.02.01.03.01.05.01.01 0 .03 0 .04-.01 1.396.03 1.631.999 1.641 1.57v.185zM4.38 20.871v.171c0 .595-.235 1.573-1.69 1.573-1.436 0-1.668-.968-1.668-1.553v-.191c.01-.595.255-1.584 1.69-1.584 1.433 0 1.658.989 1.668 1.584zm2.228-8.316c-.947 0-3.156-.303-3.156-3.106 0-1.577.693-2.572 2.037-2.945.222-.06.366-.373.366-.595 0-4.548 4.01-4.9 5.234-4.9.703 0 4.215.15 5.052 3.236a.518.518 0 00.477.37c1.174.03 3.913.484 3.913 3.933 0 3.66-3.096 3.943-4.054 3.943l-9.869.064zm14.827 5.774v-3.216a.515.515 0 00-.507-.505h-8.66V13.53l4.206-.03c.847 0 5.072-.232 5.072-4.951 0-3.358-2.272-4.726-4.53-4.921C15.835.182 11.891 0 11.088 0c-1.028 0-6.087.272-6.252 5.657C3.808 6.05 2.434 7.03 2.434 9.45c0 3.035 2.161 4.114 4.174 4.114l4.646-.03v1.079H2.686a.546.546 0 00-.367.151.517.517 0 00-.14.36l.01 3.206C.628 18.551.02 19.782 0 20.85v.222c.01 1.18.723 2.552 2.686 2.552 1.976 0 2.699-1.382 2.709-2.562v-.222c-.02-1.069-.622-2.295-2.192-2.52l-.01-2.703h17.22v2.712c-1.56.222-2.168 1.44-2.198 2.521v.222c.01 1.18.723 2.552 2.7 2.552 1.966 0 2.685-1.382 2.709-2.562v-.222c-.02-1.069-.629-2.299-2.189-2.51z" fill="#5CB615" fill-rule="nonzero"/></svg>