<svg width="64" height="64" viewBox="0 0 64 64" xmlns="http://www.w3.org/2000/svg"><path d="M53.607 0c6.39 0 9.501 3.155 9.501 9.636v43.697c0 3.326-.753 5.71-2.312 7.288-1.56 1.577-3.909 2.348-7.19 2.348h-22.99c-3.282 0-5.639-.77-7.199-2.348-1.56-1.578-2.312-3.962-2.312-7.288V41.87l-.906.905c.136 1.02.101 2.047-.11 3.05l-.087.374a8.786 8.786 0 01-8.506 6.58c-.771 0-1.533-.099-2.277-.296a1.796 1.796 0 01-.807-3.003l2.412-2.411-.296-2.107-2.107-.304-2.41 2.41a1.795 1.795 0 01-3.003-.807 8.786 8.786 0 018.489-11.052c.402.01.814.037 1.218.09l8.398-8.399V9.636c0-6.57 3.021-9.636 9.502-9.636h22.992zm-.01 1.793H30.616c-5.477 0-7.709 2.268-7.709 7.843v15.47l5.262-5.26a9.018 9.018 0 01.11-3.05l.087-.375a8.786 8.786 0 018.507-6.579c.762 0 1.524.099 2.276.305a1.796 1.796 0 01.807 3.003l-2.411 2.41.296 2.107 2.106.296 2.411-2.411a1.795 1.795 0 013.003.807 8.786 8.786 0 01-8.489 11.052 11.15 11.15 0 01-1.218-.09L22.897 40.076v13.257c0 2.833.583 4.805 1.793 6.033 1.21 1.228 3.137 1.82 5.916 1.82h22.992c2.778 0 4.715-.592 5.916-1.82 1.2-1.228 1.792-3.2 1.792-6.033V9.636c0-5.495-2.303-7.843-7.708-7.843zm-11.49 48.35c1.613 0 2.662.85 2.662 2.67 0 .879-.242 1.524-.673 1.963-.466.476-1.147.709-1.99.709-.842 0-1.523-.233-1.99-.709-.43-.439-.672-1.093-.672-1.963.01-1.82 1.058-2.67 2.662-2.67zm-5.235-38.508c-.619 0-1.228.08-1.82.242a6.981 6.981 0 00-4.939 8.56L13.297 37.253a6.894 6.894 0 00-3.62 0 6.995 6.995 0 00-4.94 8.569l3.048-3.048 4.33.619.618 4.32-3.048 3.048a6.894 6.894 0 003.621 0 6.995 6.995 0 004.94-8.57L35.07 25.386a6.894 6.894 0 003.621 0 6.995 6.995 0 004.94-8.57l-3.048 3.048-4.33-.618-.618-4.33 3.047-3.047a7.27 7.27 0 00-1.81-.233z" fill="#313235" fill-rule="nonzero"/></svg>