<svg width="64" height="64" viewBox="0 0 64 64" xmlns="http://www.w3.org/2000/svg"><path d="M52.698.58c6.39 0 9.5 3.155 9.5 9.636v43.697c0 3.326-.752 5.71-2.312 7.288-1.56 1.577-3.908 2.348-7.188 2.348H29.706c-3.28 0-5.638-.77-7.198-2.348-1.56-1.578-2.312-3.962-2.312-7.288l-.001-11.464-.905.905c.136 1.02.101 2.047-.11 3.05l-.087.374a8.786 8.786 0 01-8.506 6.58c-.771 0-1.533-.099-2.277-.296a1.796 1.796 0 01-.807-3.003l2.411-2.411-.295-2.107-2.107-.304-2.411 2.41a1.795 1.795 0 01-3.003-.807 8.786 8.786 0 018.489-11.052c.403.01.815.037 1.219.09l8.398-8.399V10.216c0-6.57 3.021-9.636 9.502-9.636h22.992zm-.01 1.793H29.707c-5.477 0-7.709 2.268-7.709 7.843v15.47l5.262-5.26a9.018 9.018 0 01.11-3.05l.087-.375a8.786 8.786 0 018.507-6.579c.761 0 1.523.099 2.276.305a1.796 1.796 0 01.807 3.003l-2.411 2.41.296 2.107 2.106.296 2.411-2.411a1.795 1.795 0 013.003.807 8.786 8.786 0 01-8.489 11.052 11.15 11.15 0 01-1.219-.09L21.988 40.656v13.257c0 2.833.583 4.805 1.793 6.033 1.21 1.228 3.137 1.82 5.916 1.82h22.992c2.778 0 4.714-.592 5.916-1.82 1.2-1.228 1.792-3.2 1.792-6.033V10.216c0-5.495-2.303-7.843-7.708-7.843zm-11.49 48.35c1.613 0 2.661.85 2.661 2.67 0 .879-.242 1.524-.672 1.963-.466.476-1.147.709-1.99.709-.842 0-1.524-.233-1.99-.709-.43-.439-.672-1.093-.672-1.963.009-1.82 1.058-2.67 2.662-2.67zm-5.235-38.508c-.619 0-1.229.08-1.82.242a6.981 6.981 0 00-4.939 8.56L12.388 37.833a6.894 6.894 0 00-3.621 0 6.995 6.995 0 00-4.939 8.569l3.048-3.048 4.33.619.618 4.32-3.048 3.048a6.894 6.894 0 003.621 0 6.995 6.995 0 004.94-8.57L34.16 25.966a6.894 6.894 0 003.621 0 6.995 6.995 0 004.939-8.57l-3.048 3.048-4.329-.618-.618-4.33 3.047-3.047a7.27 7.27 0 00-1.81-.233z" fill="#313235" fill-rule="nonzero"/></svg>