<svg width="64" height="64" viewBox="0 0 64 64" xmlns="http://www.w3.org/2000/svg"><path d="M56.964 56.856c2.294-2.402 3.442-4.813 3.406-7.153-.045-2.25-1.192-4.518-3.406-6.732a13.847 13.847 0 00-2.797-2.205c-1.891-1.165-3.774-1.586-5.665-1.272-1.936.331-3.854 1.443-5.719 3.298-.448.448-.87.914-1.264 1.416a1.216 1.216 0 01-.385.323c-1.076.6-2.788.09-5.226-1.586-2.805-1.928-6.05-5.074-8.246-7.27l-.26-.25c-2.196-2.197-5.343-5.433-7.27-8.247-1.667-2.43-2.187-4.133-1.586-5.217.08-.153.197-.287.331-.395.583-.466.924-.77 1.417-1.255 1.864-1.864 2.975-3.791 3.307-5.718.323-1.883-.098-3.774-1.255-5.63a13.64 13.64 0 00-2.232-2.832c-2.214-2.223-4.482-3.37-6.731-3.406C11.106 2.67 8.64 3.827 6.23 6.13a17.813 17.813 0 00-1.972 2.366c-2.268 3.272-2.152 8.319.233 14.315 2.608 6.544 7.717 13.724 14.763 20.769l.009.009.224.224c7.063 7.063 14.243 12.164 20.786 14.772 5.952 2.375 11.07 2.483 14.208.314 1.138-.816 1.936-1.48 2.483-2.044zm1.855-15.749c2.716 2.707 4.123 5.584 4.177 8.542.054 3.057-1.335 6.087-4.132 9.018a20.194 20.194 0 01-2.734 2.285c-2.089 1.452-4.509 2.125-7.35 2.125-2.86 0-6.042-.69-9.475-2.062-6.866-2.725-14.36-8.04-21.647-15.328l-.224-.224c-.036-.036-.072-.08-.107-.116-7.225-7.216-12.531-14.7-15.274-21.576-2.725-6.839-2.734-12.755-.036-16.663l.188-.25c.233-.333 1.183-1.65 2.205-2.636C7.35 1.425 10.353.054 13.436.09c2.95.053 5.827 1.46 8.543 4.177 1.075 1.084 1.963 2.205 2.626 3.343 1.47 2.384 2.017 4.894 1.587 7.422-.422 2.474-1.784 4.885-4.034 7.135-.421.421-.744.717-1.156 1.067.107.376.412 1.147 1.308 2.456 1.802 2.626 4.84 5.745 6.956 7.87l.26.25c2.124 2.125 5.253 5.155 7.87 6.965 1.318.897 2.089 1.21 2.456 1.309.35-.412.654-.735 1.076-1.156 2.25-2.26 4.652-3.613 7.135-4.034 2.536-.421 5.037.108 7.457 1.614 1.094.636 2.223 1.523 3.299 2.599zM47.113 2.895c-8.856 0-13.159 4.303-13.159 13.168 0 8.972 4.177 13.158 13.159 13.158 8.856 0 13.167-4.302 13.167-13.158 0-8.865-4.311-13.168-13.167-13.168zm0 28.953c-9.977 0-15.785-5.029-15.785-15.785C31.328 5.306 37.136.269 47.113.269c9.976 0 15.793 5.037 15.793 15.794 0 10.747-5.817 15.776-15.793 15.785zm-6.302-9.502a1.315 1.315 0 010-1.855l4.437-4.437-4.437-4.437a1.315 1.315 0 010-1.856c.511-.51 1.345-.51 1.856 0l4.437 4.437 4.455-4.455c.51-.51 1.344-.51 1.855 0 .51.511.51 1.345 0 1.856l-4.455 4.455 4.446 4.455c.511.51.511 1.344 0 1.855-.51.511-1.344.511-1.855 0l-4.455-4.455-4.428 4.437c-.511.511-1.336.52-1.847.01 0 0-.009 0-.009-.01z" fill="#313235" fill-rule="nonzero"/></svg>