<svg width="24" height="24" viewBox="0 0 24 24" xmlns="http://www.w3.org/2000/svg"><path d="M23.598 9.287c.04-.094.078-.275-.097-.457l-7.496-7.684c-.212-.218-.639-.218-.85 0L8.32 8.148h.376c.952 0 1.658.245 2.158.753.501.507.743 1.213.743 2.165v6.793h9.378c.306 0 .555-.212.555-.47v-7.285c0-.275.222-.497.494-.497h1.049c.292-.004.46-.168.524-.32zM10.61 20.706v-9.64c0-.673-.151-1.15-.457-1.463-.306-.309-.783-.46-1.456-.46H3.904c-.665 0-1.14.154-1.452.47-.31.316-.46.79-.46 1.45v9.643c0 .679.15 1.16.46 1.469.306.302.78.454 1.452.454h4.793c.673 0 1.147-.148 1.453-.454.309-.31.46-.79.46-1.47zM24.207 8.13c.41.42.527 1.012.306 1.543-.236.565-.8.928-1.44.928h-.55v6.786c0 .81-.693 1.47-1.547 1.47h-9.378v1.851c0 .958-.245 1.67-.753 2.175-.5.5-1.206.743-2.15.743h-4.79c-.949 0-1.651-.242-2.152-.743C1.249 22.38 1 21.667 1 20.709v-9.64c0-.938.245-1.64.746-2.148.508-.518 1.214-.77 2.158-.77H6.94c.004-.003.007-.01.014-.017l7.5-7.684c.58-.595 1.683-.595 2.265 0l7.489 7.681zM6.3 20.272c.51 0 .813.306.813.82 0 .253-.07.45-.211.595-.142.148-.35.226-.602.226-.249 0-.457-.078-.598-.226-.142-.144-.212-.346-.212-.595-.004-.51.299-.82.81-.82zm9.465-6.494c.273-.007.273-.128.273-.245 0-.115 0-.246-.226-.249h-.057c-.195 0-.211.098-.211.245 0 .145.016.246.221.25zm.081-1.489c.582.01 1.183.4 1.183 1.244 0 .84-.598 1.23-1.193 1.24-.682-.007-1.284-.397-1.284-1.247 0-.85.602-1.237 1.197-1.24.01.003.087 0 .097.003zm-.097-5.93c.097-.006 2.843-.147 4.695 1.94a.499.499 0 01-.37.83.503.503 0 01-.37-.164C18.18 7.25 15.8 7.358 15.784 7.358c-2.528.027-3.852 1.442-3.906 1.5a.491.491 0 01-.699.03.499.499 0 01-.033-.703c.063-.074 1.647-1.795 4.605-1.825zm.003 1.974c.084 0 2.272-.08 3.677 1.499a.499.499 0 01-.04.702.492.492 0 01-.7-.04c-1.088-1.227-2.89-1.17-2.91-1.166-1.802.02-2.877 1.176-2.888 1.19a.492.492 0 01-.366.161.504.504 0 01-.333-.128.502.502 0 01-.037-.702c.054-.057 1.362-1.49 3.597-1.516zm.01 2.02c.044-.007 1.516-.057 2.464 1.008a.499.499 0 01-.04.703.495.495 0 01-.7-.04c-.625-.703-1.677-.686-1.697-.676-1.059.013-1.674.665-1.698.692a.492.492 0 01-.366.162.504.504 0 01-.333-.128.499.499 0 01-.033-.703c.033-.04.914-1.001 2.403-1.018z" fill="#5CB615" fill-rule="nonzero"/></svg>