<svg width="24" height="24" viewBox="0 0 24 24" xmlns="http://www.w3.org/2000/svg"><path d="M22.639 15.39V4.64c0-1.475-1.247-2.679-2.78-2.679H3.765c-1.533 0-2.783 1.2-2.783 2.68V15.39c0 1.294.873 2.376 2.124 2.622a.484.484 0 01.393.467v2.602c0 .326.336.632.69.632.117 0 .359 0 .604-.316l2.541-3.147a.494.494 0 01.387-.181h12.131c1.54-.003 2.787-1.203 2.787-2.68zm-2.78-14.38c2.074 0 3.765 1.627 3.765 3.63v10.75c0 2.003-1.691 3.63-3.765 3.63H7.966L5.58 21.975c-.353.457-.82.692-1.388.692-.908 0-1.674-.726-1.674-1.583v-2.235A3.592 3.592 0 010 15.389V4.64c0-2.003 1.69-3.63 3.765-3.63h16.094zM5.694 9.622c.857.333 1.926.743 1.926 2.134 0 1.23-.874 1.936-2.393 1.936-.76 0-1.412-.164-1.677-.262a.353.353 0 01-.226-.417l.064-.258a.353.353 0 01.178-.226c.091-.05.195-.06.293-.03.91.28 1.996.266 2.413-.01.125-.077.326-.276.326-.72 0-.692-.477-.91-1.324-1.236-.834-.323-1.869-.726-1.869-2.04 0-.565.198-1.036.575-1.359.638-.547 1.802-.631 3.055-.279.189.05.303.24.256.43l-.064.25a.361.361 0 01-.175.221.384.384 0 01-.286.034 4.039 4.039 0 00-1.116-.165c-1.233 0-1.233.582-1.233.827 0 .642.464.854 1.277 1.17zm8.8-2.864a.364.364 0 01.37.356v6.094a.362.362 0 01-.37.357h-.259a.364.364 0 01-.37-.357V9.074l-1.613 2.961a.377.377 0 01-.326.192h-.276a.375.375 0 01-.329-.195L9.771 9.11v4.1a.362.362 0 01-.37.357h-.258a.364.364 0 01-.37-.356V7.118c0-.199.165-.357.37-.357h.279c.138 0 .265.074.33.195l2.05 3.866 2.107-3.872a.379.379 0 01.33-.192h.255zm3.896 2.864c.857.333 1.926.743 1.926 2.134 0 1.23-.874 1.936-2.393 1.936-.76 0-1.412-.164-1.678-.262a.353.353 0 01-.225-.417l.064-.258a.353.353 0 01.178-.226c.09-.05.195-.06.293-.03.91.28 1.996.266 2.413-.01.124-.077.326-.276.326-.72 0-.692-.477-.91-1.324-1.236-.834-.323-1.873-.726-1.873-2.04 0-.565.199-1.036.579-1.359.638-.547 1.801-.631 3.055-.279.188.05.303.242.256.43l-.064.25a.361.361 0 01-.175.221.386.386 0 01-.286.034 4.034 4.034 0 00-1.112-.165c-1.234 0-1.234.582-1.234.827-.007.642.457.854 1.274 1.17z" fill="#5CB615" fill-rule="nonzero"/></svg>