<svg width="64" height="64" xmlns="http://www.w3.org/2000/svg"><path d="M60.37 41.04V12.374c0-3.935-3.326-7.144-7.413-7.144H10.039c-4.087 0-7.422 3.2-7.422 7.144V41.04c0 3.45 2.33 6.337 5.665 6.991.61.126 1.05.646 1.05 1.246v6.938c0 .87.895 1.685 1.837 1.685.313 0 .959 0 1.613-.842l6.777-8.39a1.318 1.318 0 011.03-.484h32.35c4.105-.01 7.43-3.21 7.43-7.144zM52.957 2.694c5.53 0 10.04 4.338 10.04 9.68V41.04c0 5.342-4.51 9.68-10.04 9.68H21.244L14.88 58.6c-.942 1.218-2.188 1.846-3.702 1.846-2.42 0-4.464-1.936-4.464-4.222v-5.96C2.707 48.99 0 45.341 0 41.04V12.374c0-5.342 4.509-9.68 10.04-9.68h42.917zM15.184 25.658c2.286.888 5.136 1.981 5.136 5.692 0 3.28-2.33 5.163-6.382 5.163-2.025 0-3.764-.44-4.472-.699a.94.94 0 01-.601-1.111l.17-.69a.941.941 0 01.475-.601.99.99 0 01.78-.08c2.43.743 5.325.707 6.436-.028.332-.206.87-.735.87-1.918 0-1.847-1.273-2.43-3.532-3.299-2.223-.86-4.984-1.936-4.984-5.44 0-1.506.529-2.761 1.533-3.622 1.703-1.46 4.804-1.685 8.148-.744a.948.948 0 01.681 1.148l-.17.663a.963.963 0 01-.466.591 1.023 1.023 0 01-.762.09 10.77 10.77 0 00-2.976-.44c-3.29 0-3.29 1.552-3.29 2.206 0 1.712 1.237 2.277 3.406 3.12zm23.467-7.637a.97.97 0 01.986.95v16.251a.964.964 0 01-.986.95h-.69a.97.97 0 01-.986-.95V24.197l-4.303 7.897c-.179.314-.51.511-.87.511h-.734a1 1 0 01-.879-.52l-4.132-7.79v10.936a.964.964 0 01-.986.95h-.69a.97.97 0 01-.986-.95v-16.25c0-.53.44-.95.986-.95h.744a.99.99 0 01.878.52l5.468 10.307 5.62-10.326c.18-.314.511-.51.879-.51h.681zm10.389 7.637c2.285.888 5.136 1.981 5.136 5.692 0 3.28-2.33 5.163-6.382 5.163-2.026 0-3.765-.44-4.473-.699a.94.94 0 01-.6-1.111l.17-.69a.941.941 0 01.475-.601.99.99 0 01.78-.08c2.429.743 5.324.707 6.436-.028.331-.206.869-.735.869-1.918 0-1.847-1.273-2.43-3.532-3.299-2.223-.86-4.992-1.936-4.992-5.44 0-1.506.528-2.761 1.541-3.622 1.703-1.46 4.805-1.685 8.148-.744a.953.953 0 01.681 1.148l-.17.663a.963.963 0 01-.466.591c-.233.126-.51.162-.762.09a10.757 10.757 0 00-2.967-.44c-3.29 0-3.29 1.552-3.29 2.206-.017 1.712 1.22 2.277 3.398 3.12z" fill="#313235" fill-rule="nonzero"/></svg>