<svg width="24" height="24" viewBox="0 0 24 24" xmlns="http://www.w3.org/2000/svg"><path d="M12.215 19.183h-.712c-2.034-.03-6.747-.786-6.747-7.25 0-6.45 4.673-7.19 6.686-7.21h.141c.202 0 .407 0 .588.01 2.044.05 6.787.85 6.787 7.24.003 6.39-4.713 7.17-6.743 7.21m10.901-7.94h-3.015c-.05 0-.101.02-.155.03-.13-2.305-.854-3.922-1.849-5.034a.22.22 0 00.05-.03l2.186-2.165a.522.522 0 000-.72.507.507 0 00-.723 0L17.425 5.49a.22.22 0 01-.03.05c-1.819-1.515-4.094-1.778-5.072-1.818V.504A.506.506 0 0011.815 0a.502.502 0 00-.507.504v3.217c-1.005.02-3.25.252-5.04 1.768-.02-.02-.03-.04-.05-.06L4.104 3.324a.495.495 0 00-.712 0 .503.503 0 000 .72l2.114 2.104c.02.01.04.02.06.04-.964 1.113-1.677 2.74-1.798 5.09-.04-.01-.08-.03-.12-.03H.507A.506.506 0 000 11.75a.5.5 0 00.508.504h3.14c.04 0 .07-.01.103-.02.06 2.367.71 4.024 1.627 5.197-.02.01-.04.02-.06.04l-2.105 2.08a.515.515 0 000 .72c.101.101.232.152.357.152a.54.54 0 00.326-.121c.08-.03.151-.061.212-.121l1.919-1.91c.02-.02.03-.05.05-.08 1.809 1.667 4.165 1.96 5.23 2v2.924c0 .272.226.504.508.504a.513.513 0 00.508-.504v-2.924c.998-.03 3.445-.303 5.304-2.014.02.03.04.07.07.101l1.91 1.903c.104.1.225.14.356.14a.51.51 0 00.366-.14.522.522 0 000-.72L18.41 17.56a.252.252 0 00-.124-.081c.954-1.173 1.627-2.85 1.677-5.247.04.01.08.02.131.02h3.015a.5.5 0 00.508-.504.499.499 0 00-.501-.504" fill="#313235" fill-rule="nonzero"/></svg>