<svg width="24" height="24" viewBox="0 0 24 24" xmlns="http://www.w3.org/2000/svg"><path d="M22.3 5.587l-1.986 1.196c-3.583-3.986-7.26-4.857-9.674-4.894 2.296-.918 4.484-1.14 6.528-.642 1.93.474 3.708 1.597 5.29 3.341a.665.665 0 01.169.518.671.671 0 01-.326.48zM8.816 3.029c1.58-.29 6.172-.575 10.625 4.285l-5.99 3.607-4.635-7.892zM7.242 14.662C4.909 9.11 6.993 5.08 7.995 3.62l4.595 7.819-5.348 3.223zm-3.304 1.993a.693.693 0 01-.592.068.682.682 0 01-.423-.377c-.894-2.158-1.126-4.208-.69-6.1.508-2.25 1.943-4.256 4.25-5.987-1.093 2.165-2.22 6.05-.115 10.93l-2.43 1.466zM23.215 3.93C21.497 2.037 19.545.813 17.413.29c-2.867-.696-5.966-.134-9.226 1.674l-.508-.867a.511.511 0 00-.692-.182.483.483 0 00-.195.656l.01.017.52.89c-3.37 2.078-5.414 4.619-6.08 7.553-.48 2.088-.232 4.34.74 6.683.181.437.554.78 1.055.948.195.057.363.084.528.084.309 0 .628-.084.904-.25l8.628-5.2 6.505 11.076c.14.24.45.323.692.182a.483.483 0 00.195-.656l-.01-.016-6.524-11.103 8.88-5.351a1.68 1.68 0 00.797-1.193 1.638 1.638 0 00-.417-1.305z" fill="#5CB615" fill-rule="nonzero"/></svg>