<svg width="64" height="64" viewBox="0 0 64 64" xmlns="http://www.w3.org/2000/svg"><path d="M57.385 16.722a2.992 2.992 0 01-2.985-2.994c0-1.65 1.336-3.003 2.985-3.003a2.993 2.993 0 012.985 3.003 2.992 2.992 0 01-2.985 2.994M43.213 40.17a3 3 0 01-2.984-3.002 2.992 2.992 0 012.984-2.994 2.986 2.986 0 012.985 2.994c0 1.649-1.335 3.002-2.985 3.002m-24.47-10.8a2.984 2.984 0 01-2.985-2.986v-.018a2.992 2.992 0 012.985-2.993 2.984 2.984 0 012.976 2.993 2.992 2.992 0 01-2.976 3.003M5.62 52.683a2.992 2.992 0 01-2.985-2.993 2.992 2.992 0 012.985-2.994 2.997 2.997 0 012.985 2.994c-.009 1.649-1.344 2.993-2.985 2.993M57.376 8.072c-3.093 0-5.611 2.536-5.611 5.647 0 1.55.627 2.958 1.64 3.989l-8.39 14.144a5.211 5.211 0 00-1.81-.323c-1.82 0-3.416.888-4.446 2.232l-14.521-6.409a5.18 5.18 0 00.098-.986c0-3.11-2.519-5.638-5.611-5.638-3.101 0-5.611 2.537-5.611 5.647 0 1.578.672 3.048 1.792 4.106L7.144 44.285a5.53 5.53 0 00-1.533-.242C2.52 44.043 0 46.57 0 49.68c0 3.11 2.519 5.647 5.611 5.647a5.635 5.635 0 005.602-5.665 5.625 5.625 0 00-1.783-4.079l7.762-13.795a5.577 5.577 0 001.542.224c1.81 0 3.415-.887 4.437-2.231l14.52 6.408a5.18 5.18 0 00-.098.986c0 3.11 2.519 5.648 5.611 5.648a5.63 5.63 0 004.034-9.538l8.426-14.225a5.45 5.45 0 001.712.296c3.101 0 5.611-2.528 5.611-5.638.01-3.11-2.51-5.647-5.611-5.647" fill="#313235" fill-rule="nonzero"/></svg>