<svg width="64" height="64" viewBox="0 0 64 64" xmlns="http://www.w3.org/2000/svg"><path d="M2.911 16.748c0-.753.6-1.363 1.345-1.363h1.918c-.045-.555-.117-1.084-.117-1.676 0-.25.045-.457.054-.699H4.256a1.364 1.364 0 01-1.345-1.362c0-.753.6-1.363 1.345-1.363H6.38C7.5 4.136 11.785.784 18.786.784c2.518 0 4.715.43 6.525 1.282.672.322.968 1.129.655 1.81a1.336 1.336 0 01-1.766.672c-.01 0-.01-.008-.018-.008-1.452-.682-3.272-1.031-5.396-1.031-5.504 0-8.66 2.25-9.663 6.776h7.619c.744 0 1.345.61 1.345 1.363s-.601 1.362-1.345 1.362h-7.95c-.01.233-.046.448-.046.7 0 .6.054 1.138.108 1.684h7.897c.744 0 1.345.61 1.345 1.363s-.601 1.362-1.345 1.362H9.347c1.228 3.882 4.347 5.782 9.439 5.782 2.151 0 3.989-.359 5.45-1.058a1.344 1.344 0 011.783.654 1.363 1.363 0 01-.645 1.811c-1.82.879-4.043 1.318-6.597 1.318-6.606 0-10.766-3.012-12.164-8.507H4.256a1.366 1.366 0 01-1.345-1.371zm48.323-13.14l-8.139 8.335 3.29.027a1.871 1.871 0 011.82 1.919v.008l.008 7.924c0 .117.09.215.206.215h5.612c.116 0 .206-.09.206-.206l-.01-7.968a1.859 1.859 0 011.784-1.892l3.335-.027c.009 0-8.112-8.336-8.112-8.336zM41.087 14.65a1.825 1.825 0 01-1.64-1.066 1.952 1.952 0 01.242-2.026l10.236-10.47c.188-.268.619-.51 1.103-.573.618-.08 1.237.17 1.622.672L62.654 11.46c.546.673.627 1.47.322 2.125a1.825 1.825 0 01-1.64 1.066l-4.42.036.01 7.135c0 1.623-1.3 2.94-2.895 2.94h-5.603a2.92 2.92 0 01-2.895-2.94l-.009-7.135-4.437-.036zm17.255 45.338c.735-.224 2.465-.851 2.465-1.73v-3.8a9.744 9.744 0 01-1.676.699c-1.9.583-4.392.905-7.01.905-2.626 0-5.109-.322-7.01-.905a10.517 10.517 0 01-1.711-.69v3.791c0 .879 1.73 1.506 2.465 1.74C49.208 61 54.98 61 58.342 59.987zm-20.087 0c1.326-.403 2.142-1.004 2.456-1.47v-4.195a10.51 10.51 0 01-1.677.7c-1.9.582-4.392.905-7.01.905-2.616 0-5.108-.314-7.009-.906a10.517 10.517 0 01-1.712-.69v4.222c.278.44 1.094 1.013 2.492 1.434 3.317 1.013 9.125 1.013 12.46 0zm-20.106 0c1.318-.403 2.134-.995 2.456-1.47v-4.132c-.493.251-1.048.475-1.685.672-1.9.583-4.392.906-7.01.906-2.617 0-5.109-.323-7.009-.906a10.517 10.517 0 01-1.712-.69v4.186c.26.403 1.022.977 2.492 1.434 3.325 1.022 9.134 1.022 12.468 0zM5.654 49.86c-1.165.359-1.963.825-2.286 1.282.305.466 1.112.941 2.304 1.309 3.317 1.013 9.16 1.013 12.468 0 1.542-.475 2.098-.968 2.304-1.273-.421-.663-1.703-1.12-2.322-1.309-3.325-1.013-9.133-1.013-12.468-.009zm20.105-7.565c-1.183.359-1.99.834-2.294 1.3.206.314.77.816 2.321 1.29 3.326 1.013 9.134 1.013 12.469 0 1.532-.465 2.088-.967 2.312-1.281-.421-.655-1.703-1.12-2.321-1.309-3.344-1.022-9.161-1.022-12.487 0zm20.106-7.449c-1.48.458-2.062.942-2.295 1.264.287.475 1.112.96 2.313 1.327 3.316 1.013 9.151 1.013 12.477 0 1.533-.475 2.088-.968 2.304-1.282-.422-.654-1.703-1.12-2.322-1.309-3.334-1.012-9.143-1.012-12.477 0zM43.4 46.892v4.222c.278.44 1.093 1.013 2.492 1.434 3.316 1.013 9.151 1.013 12.468 0 1.327-.403 2.142-1.003 2.456-1.47v-4.195a9.744 9.744 0 01-1.676.7c-1.91.582-4.401.896-7.01.896-2.608 0-5.1-.314-7.01-.896-.6-.18-1.174-.413-1.72-.69zm1.703-6.848a10.422 10.422 0 01-1.703-.69v4.186c.26.403 1.013.986 2.483 1.434 3.334 1.013 9.134 1.013 12.477 0 1.318-.403 2.133-.995 2.447-1.46V39.38c-.502.251-1.04.475-1.676.672-1.9.583-4.392.906-7.01.906-2.626-.01-5.109-.332-7.018-.915zm-21.809 6.759v4.177c.26.412 1.022.986 2.492 1.434 3.317 1.013 9.152 1.013 12.469 0 1.479-.448 2.196-1.076 2.456-1.461v-4.132c-.538.269-1.103.493-1.686.672-1.909.583-4.4.905-7.009.905-2.608 0-5.091-.313-7.01-.905a10.517 10.517 0 01-1.712-.69zm35.819-14.566c3.621 1.111 4.383 2.967 4.383 4.338V58.25c0 1.372-.762 3.236-4.383 4.348-1.927.582-4.41.905-7.01.905-2.6 0-5.091-.323-7.01-.896-1.424-.44-2.401-.995-3.065-1.587a8.42 8.42 0 01-3.003 1.587c-1.918.582-4.4.905-7.009.905-2.608 0-5.091-.323-7.01-.905-1.308-.395-2.321-.95-3.083-1.587-.77.654-1.775 1.22-3.003 1.587-1.91.582-4.401.905-7.01.905-2.608 0-5.1-.323-7.009-.905-1.784-.547-3.056-1.354-3.8-2.33A1.332 1.332 0 01.5 59.163v-7.566c0-.322.045-.645.125-.95l.01-.018c.439-1.506 1.864-2.644 4.248-3.379 3.828-1.165 10.2-1.165 14.02 0 .672.206 1.21.44 1.702.69v-3.917c0-.332.045-.645.135-.959.43-1.524 1.855-2.653 4.249-3.388 3.809-1.165 10.2-1.165 14.028 0 .582.179 1.156.412 1.694.69v-3.792c0-.331.044-.645.125-.959.43-1.515 1.865-2.653 4.249-3.388 3.827-1.156 10.2-1.156 14.028.009z" fill="#313235" fill-rule="nonzero"/></svg>