<svg width="64" height="64" viewBox="0 0 64 64" xmlns="http://www.w3.org/2000/svg"><path d="M44.91 60.87c3.065 0 8.201-1.174 8.201-9.036v-.484h-42.12v.493c0 .108-.009.216-.018.323 0 .018-.376 3.729 1.766 6.203 1.434 1.658 3.783 2.492 6.983 2.492l24.686-.01c.062 0 .134 0 .197.01.018.009.125.009.305.009zM14.415 4.426c-2.303 1.434-3.424 3.944-3.424 7.664v36.634h42.12c0-13.445-.018-36.67-.018-36.67 0-.08 0-.161.01-.233 0-.018.26-3.8-1.964-6.283-1.425-1.596-3.666-2.403-6.678-2.403l-24.802.01c-.063 0-.116 0-.17-.01h-.224c-.646-.009-2.895.081-4.85 1.291zm41.215 7.62s.018 27.222.018 39.788c0 10.963-8.56 11.662-10.747 11.662-.323 0-.502-.018-.502-.018s-12.02.01-24.686.01S8.446 51.842 8.446 51.842v-1.685c-.01-.045-.027-.08-.027-.125s.018-.08.027-.126V12.09C8.446 1.118 17.266.5 19.256.5c.25 0 .394.009.394.009S32.28.5 44.461.5c12.173.009 11.17 11.545 11.17 11.545zM32.03 53.958c1.461 0 2.34.905 2.34 2.429 0 .744-.207 1.336-.61 1.766-.412.439-1.013.663-1.73.663-.717 0-1.318-.224-1.73-.663-.403-.43-.61-1.022-.61-1.766 0-1.524.87-2.43 2.34-2.43z" fill="#313235" fill-rule="nonzero"/></svg>