<svg width="24" height="24" viewBox="0 0 24 24" xmlns="http://www.w3.org/2000/svg"><path d="M11.808 22.639c7.187 0 10.83-3.64 10.83-10.824 0-7.186-3.643-10.83-10.83-10.83C4.625.985.985 4.629.985 11.815c0 7.183 3.64 10.824 10.823 10.824zm0-22.639c7.463 0 11.816 3.768 11.816 11.815S19.27 23.624 11.808 23.624C4.346 23.624 0 19.862 0 11.815 0 3.768 4.346 0 11.808 0zm2.79 16.245c.76 0 1.005-.245 1.005-1.001 0-.76-.245-1.005-1.005-1.005-.76 0-1.001.245-1.001 1.005 0 .76.242 1.001 1.001 1.001zm0-2.988c1.254 0 1.99.635 1.99 1.99 0 1.351-.733 1.987-1.99 1.987-1.253 0-1.986-.636-1.986-1.987s.73-1.99 1.986-1.99zm-5.573-5.67c-.756 0-1.001.245-1.001 1.005 0 .756.245 1.001 1.001 1.001.76 0 1.005-.242 1.005-1.001-.003-.763-.248-1.005-1.005-1.005zm0 2.988c-1.254 0-1.986-.632-1.986-1.987 0-1.354.732-1.99 1.986-1.99s1.99.636 1.99 1.99c0 1.355-.736 1.987-1.99 1.987zm7.26-4.508a.492.492 0 01.088.69L8.04 17.471a.492.492 0 01-.776-.601l8.33-10.72a.488.488 0 01.685-.09l.007.006z" fill="#5CB615" fill-rule="nonzero"/></svg>