<svg width="64" height="64" viewBox="0 0 64 64" xmlns="http://www.w3.org/2000/svg"><path d="M31.49 60.37c19.163 0 28.88-9.708 28.88-28.863 0-19.164-9.717-28.88-28.88-28.88-19.156 0-28.864 9.716-28.864 28.88 0 19.155 9.708 28.863 28.863 28.863zm0-60.37c19.898 0 31.506 10.048 31.506 31.507 0 21.459-11.608 31.49-31.507 31.49C11.59 62.996 0 52.965 0 31.506 0 10.048 11.59 0 31.49 0zm7.439 43.321c2.026 0 2.68-.654 2.68-2.671 0-2.026-.654-2.68-2.68-2.68-2.026 0-2.671.654-2.671 2.68 0 2.026.645 2.671 2.67 2.671zm0-7.969c3.343 0 5.306 1.694 5.306 5.307 0 3.603-1.954 5.297-5.306 5.297-3.344 0-5.298-1.694-5.298-5.297 0-3.604 1.945-5.307 5.298-5.307zM24.067 20.231c-2.017 0-2.67.654-2.67 2.68 0 2.017.653 2.671 2.67 2.671 2.026 0 2.68-.645 2.68-2.671-.009-2.035-.663-2.68-2.68-2.68zm0 7.968c-3.343 0-5.297-1.685-5.297-5.297 0-3.612 1.954-5.306 5.297-5.306 3.344 0 5.307 1.694 5.307 5.306s-1.963 5.297-5.307 5.297zM43.43 16.18a1.31 1.31 0 01.233 1.838L21.44 46.593a1.313 1.313 0 01-1.838.233 1.313 1.313 0 01-.233-1.838l22.212-28.585a1.302 1.302 0 011.829-.242l.018.018z" fill="#313235" fill-rule="nonzero"/></svg>