<svg width="24" height="24" viewBox="0 0 24 24" xmlns="http://www.w3.org/2000/svg"><path d="M12.292 20.04c1.974-.074 7.436-.914 7.725-7.737h-.814a.491.491 0 010-.982h.82c-.225-6.904-5.704-7.815-7.73-7.906v.995a.49.49 0 01-.491.49.49.49 0 01-.491-.49V3.395h-.054c-1.812.017-7.644.655-7.845 7.926h.985a.491.491 0 010 .982h-.975c.323 7.048 6.07 7.72 7.889 7.747v-.837a.49.49 0 01.49-.49.49.49 0 01.491.49v.827zm10.83-8.719a.491.491 0 010 .982h-2.127c-.313 7.882-6.982 8.655-8.706 8.719v2.11a.49.49 0 01-.49.492.49.49 0 01-.491-.491v-2.104h-.004c-1.445-.017-8.51-.565-8.857-8.726H.481a.49.49 0 010-.978h1.95C2.644 2.94 9.79 2.43 11.25 2.42h.06V.49A.49.49 0 0111.8 0a.49.49 0 01.491.49v1.944c1.785.08 8.471.93 8.713 8.887h2.118zM10.495 7.879c-.262.255-.393.676-.393 1.254s.13.998.393 1.25c.252.246.666.367 1.22.367.562 0 .975-.125 1.23-.37.263-.252.394-.672.394-1.247 0-.578-.131-.999-.393-1.25-.256-.246-.67-.374-1.227-.374-.558 0-.972.128-1.224.37zm1.22 3.852c-.82 0-1.459-.215-1.902-.642-.46-.444-.693-1.1-.693-1.953 0-.854.232-1.512.693-1.96.443-.426 1.082-.645 1.902-.645.824 0 1.462.215 1.91.645.46.448.695 1.106.695 1.957 0 .85-.235 1.509-.695 1.956-.444.427-1.086.642-1.91.642zm3.644 4.205v-.181c0-.397-.084-.955-.474-1.362-.437-.45-1.102-.544-1.583-.544h-3.167c-.48 0-1.146.094-1.576.544-.39.407-.474.968-.474 1.362v.181h7.274zm-2.057-3.069c.965 0 1.754.293 2.289.847.49.511.75 1.217.75 2.04v.864a.294.294 0 01-.296.296H7.398a.294.294 0 01-.295-.296v-.867c0-.823.258-1.53.746-2.04.53-.555 1.32-.847 2.282-.847l3.17.003z" fill="#313235" fill-rule="nonzero"/></svg>