<svg width="24" height="24" viewBox="0 0 24 24" xmlns="http://www.w3.org/2000/svg"><path d="M10.672 13.716c.064-.111.108-.222.145-.33-.948.626-2.625 1.446-5.056 1.359.525.396 1.429.712 2.888.305 1.008-.282 1.69-.732 2.023-1.334zm.794-1.89a.513.513 0 01.366.35c.013.04.286 1.016-.28 2.03-.47.848-1.357 1.46-2.634 1.816a5.776 5.776 0 01-1.55.232c-2.407 0-3.183-1.896-3.193-1.92a.51.51 0 01.07-.497.495.495 0 01.464-.192c4.135.545 6.252-1.657 6.273-1.677a.516.516 0 01.484-.141zm-7.543-.712c.158 0 .33-.01.497-.03.551-.064 1.07-.252 1.07-.252s.365-.195.04-.467c0 0-.343-.397-.918-.397-.333 0-.74.131-1.204.551-.49.444-.07.595.515.595zm1.916.67a6.193 6.193 0 01-1.305.308 5.563 5.563 0 01-.608.037c-.887 0-1.445-.289-1.664-.86-.09-.239-.228-.867.477-1.506.595-.534 1.227-.807 1.88-.807.719 0 1.307.357 1.623.686.316.296.474.686.43 1.079-.054.497-.403.847-.709 1.008l-.124.054zm2.39-2.461c-.24.42-.081.571.232.571.255 0 .618-.1.957-.235.525-.209.972-.548.972-.548s.3-.3-.118-.508c0 0-.312-.218-.736-.218-.393 0-.887.195-1.307.938zm.232 1.583c-.747 0-1.083-.437-1.19-.625-.172-.296-.296-.79.084-1.46.712-1.26 1.674-1.448 2.184-1.448.599 0 1.056.242 1.24.353.529.286.67.716.707.951.1.612-.266 1.036-.383 1.15-.034.034-.071.064-.108.094a5.751 5.751 0 01-1.203.679c-.353.138-.868.306-1.331.306zm4.863 4.934c1.93.115 3.24.864 4.004 1.483-.121-.511-.518-1.12-1.62-1.543-1.13-.437-1.896-.246-2.384.06zm7.691.242c1.066-2.447 1.439-4.581 1.567-5.737-1.624.695-3.725.494-4.898.04-1.153-.444-2.847-1.815-3.59-3.29-.265.392-.602.913-.951 1.505-.01.017-.027.027-.04.044.124.403.238.83.346 1.274.114-.03.225-.064.37-.074.104-.007.201-.014.299-.014 1.832 0 2.494 1.25 2.601 1.98a1.27 1.27 0 01-.215 1.056 1.26 1.26 0 01-1.018.48c-.138 0-.236-.017-.236-.017-.033-.006-.087-.02-.117-.026a6.68 6.68 0 01-1.24-.532c-.007-.003-.007-.01-.014-.013.02.71-.05 1.321-.202 1.855.65-.16 1.442-.14 2.39.222 1.036.397 1.735.995 2.078 1.778.45 1.032.084 1.99.07 2.03a.502.502 0 01-.407.317c-.02.003-.04.003-.06.003a.5.5 0 01-.41-.212c-.06-.087-1.597-2.151-5.126-1.889-.027.004-.05-.013-.078-.017a5.2 5.2 0 01-.437.293c.538.81 1.399 1.452 2.67 1.94 3.102 1.193 4.887 1.045 6.648-2.996zM8.79 17.222c3.375-.945 4.8-2.195 3.765-6.733-.636-2.783-1.674-4.844-2.283-5.886-.736 1.294-2.057 2.3-3.882 2.938-.985.346-3.19.467-5.331-.48.05 1.384.249 4.225 1.035 6.336 1.335 3.566 3.398 4.742 6.696 3.825zm4.874-6.33c.037.189.067.374.094.552.171.151.397.306.639.443a5.83 5.83 0 001.028.444.6.6 0 00.067.003c.115 0 .32-.037.242-.339 0 0-.114-1.15-1.61-1.15-.07 0-.148.004-.225.01a.93.93 0 00-.235.037zm9.714-1.912a.51.51 0 01.28.457c0 .128-.038 3.19-1.722 7.052-1.368 3.143-2.894 4.259-4.786 4.259-.948 0-1.987-.28-3.143-.726-1.523-.585-2.565-1.388-3.214-2.427-.524.225-1.099.423-1.734.602-.8.225-1.55.336-2.246.336-2.605 0-4.467-1.58-5.663-4.783C.007 10.69.03 6.405.03 6.224a.514.514 0 01.252-.437.518.518 0 01.505 0c2.147 1.24 4.477 1.068 5.267.793 1.341-.467 3.065-1.405 3.66-3.204a.506.506 0 01.4-.339.491.491 0 01.484.202c.06.08 1.14 1.583 2.088 4.164a27.06 27.06 0 011.156-1.71.507.507 0 01.524-.189c.195.05.347.215.377.414.208 1.364 2.144 3.075 3.297 3.519 1.194.457 3.526.571 4.804-.407a.513.513 0 01.534-.05zm-3.223 4.323s-.266-.619-1.08-.619c-.204 0-.443.037-.722.134-.69.243-.014.545.669.703.477.108.961.114.961.114s.36-.037.172-.332zm-2.135-1.44c.367-.127.72-.19 1.052-.19 1.103 0 1.738.688 1.97 1.149.208.366.232.776.06 1.133-.181.383-.56.638-1.015.689-.037.003-.07.006-.107.006h-.01c-.06 0-.612-.01-1.177-.14-.46-.108-1.684-.387-1.738-1.402-.01-.212.027-.918.965-1.244z" fill="#5CB615" fill-rule="nonzero"/></svg>