<svg width="24" height="24" viewBox="0 0 24 24" xmlns="http://www.w3.org/2000/svg"><path d="M18.81 23.63c-1.025 0-2.205-.255-3.489-.766-2.659-1.062-5.573-3.133-8.43-5.987l-.004-.003-.097-.098v-.003c-2.857-2.857-4.928-5.771-5.987-8.43-.988-2.47-1.025-4.561-.11-5.886.003-.007.01-.013.013-.017l.02-.027c.306-.426.582-.756.813-.978C3.52-.457 5.482-.454 7.38 1.44c.355.35.665.74.92 1.17 1.25 2.01.229 3.717-.85 4.793a6.45 6.45 0 01-.622.55c-.36.428.114 1.322.578 1.998.763 1.112 2.027 2.416 2.908 3.297l.104.104c.884.884 2.185 2.145 3.297 2.908.68.464 1.57.938 1.997.578.168-.219.353-.427.551-.622 1.08-1.076 2.783-2.097 4.793-.85.427.255.82.564 1.17.92 1.893 1.897 1.896 3.86.004 5.84-.226.235-.555.507-.979.816l-.026.02-.017.014c-.636.437-1.449.655-2.397.655zM7.368 16.403c2.793 2.79 5.627 4.81 8.202 5.836 1.15.46 2.201.699 3.126.719.867.017 1.58-.161 2.12-.534l.045-.03a6.71 6.71 0 00.884-.733c.843-.885 1.247-1.711 1.233-2.528-.013-.783-.417-1.56-1.227-2.37a5.181 5.181 0 00-1.035-.817l-.01-.007c-.642-.4-1.294-.547-1.933-.44-.676.114-1.358.514-2.037 1.193a6.04 6.04 0 00-.514.585.403.403 0 01-.037.04c-1.26 1.16-3.745-.99-6.246-3.492l-.104-.104c-2.5-2.5-4.652-4.985-3.492-6.245.013-.014.023-.027.04-.037.209-.158.404-.33.585-.515.676-.675 1.08-1.361 1.193-2.037.108-.638-.04-1.287-.44-1.932l-.007-.01c-.225-.38-.5-.727-.817-1.036C6.087 1.1 5.311.696 4.527.682c-.81-.013-1.636.394-2.52 1.237-.205.195-.45.494-.733.884a.259.259 0 00-.03.044c-.37.541-.552 1.254-.535 2.121.017.924.26 1.977.72 3.126 1.028 2.575 3.045 5.412 5.838 8.202l.05.05.007.007.044.05z" fill="#5CB615" fill-rule="nonzero"/></svg>