<svg width="24" height="24" viewBox="0 0 24 24" xmlns="http://www.w3.org/2000/svg"><path d="M20.02 12.024c1.422 0 2.622-.727 2.622-1.584 0-.343-.198-.615-.363-.786l-.003-.004c-.219-.228-.42-.82-.989-2.877a26.277 26.277 0 00-.252-.89l-1.512-4.8a.098.098 0 00-.091-.065l-15.237.044a.095.095 0 00-.09.06c-.206.653-.512 1.641-.841 2.7-.935 3.015-1.607 5.173-1.735 5.472-.08.178-.174.346-.282.508-.165.262-.259.416-.259.632 0 .86 1.2 1.583 2.622 1.583.955 0 1.839-.326 2.306-.847l.148-.165.292-.034c.168 0 .326.071.44.199.468.524 1.352.847 2.307.847.944 0 1.825-.32 2.295-.837l.148-.162.29-.03c.164 0 .319.07.43.192.47.517 1.35.837 2.295.837.945 0 1.826-.32 2.296-.837l.145-.158.285-.034h.004c.161 0 .32.067.43.188.474.525 1.355.844 2.3.848zm1.143 9.875v-9.035a5.07 5.07 0 01-1.146.141c-1.066 0-2.054-.326-2.73-.88-.675.557-1.667.88-2.732.88-1.066 0-2.054-.323-2.73-.88-.672.557-1.664.88-2.733.88-1.072 0-2.07-.33-2.746-.894-.675.565-1.67.894-2.746.894-.403 0-.783-.057-1.146-.141v9.032c0 .427.376.776.837.776h5.388V16.68c0-.703.592-1.274 1.318-1.274h3.65c.73 0 1.321.571 1.321 1.274v5.993h5.361c.46 0 .837-.346.834-.773zm-7.18.773V16.68c0-.161-.151-.292-.336-.292h-3.644c-.185 0-.336.13-.336.292v5.993h4.316zm9.64-12.235c0 .867-.578 1.613-1.475 2.077V21.9c0 .968-.817 1.758-1.819 1.758H3.294c-1.005 0-1.822-.79-1.822-1.758v-9.385C.578 12.054 0 11.304 0 10.437c0-.51.229-.87.41-1.16.074-.117.151-.235.208-.37.118-.272 1.032-3.22 1.698-5.374.33-1.066.635-2.05.844-2.713.148-.444.558-.74 1.025-.743l15.24-.043c.457-.007.891.299 1.032.75l1.513 4.803c.06.188.154.527.262.927.198.716.605 2.195.766 2.474.41.427.626.925.626 1.449z" fill="#5CB615" fill-rule="nonzero"/></svg>