<svg width="24" height="24" viewBox="0 0 24 24" xmlns="http://www.w3.org/2000/svg"><path d="M20.632 20.615c2.605-2.602 2.689-5.24.259-7.835-.054-.064-.101-.104-.145-.148l-.107-.104-1.14-1.14-8.09 8.094.56.558c.128.148.246.26.367.373l.215.209c2.68 2.679 5.399 2.675 8.08-.007zm-17.6-9.512l.205.211c.114.118.225.239.346.343l.393.393 8.095-8.094-1.076-1.075C9.697 1.624 8.387.99 7.079.99c-1.351 0-2.706.67-4.047 2.014-2.686 2.69-2.686 5.412 0 8.098zm1.657 1.657l6.01 6.01 8.09-8.094-6.01-6.01-8.09 8.094zm16.948-.65c2.773 2.962 2.676 6.24-.3 9.214-1.532 1.533-3.145 2.303-4.755 2.303-1.61 0-3.217-.763-4.747-2.296l-.198-.192a5.96 5.96 0 01-.41-.416l-.85-.85c-.014-.01-.03-.018-.04-.028l-6.72-6.719c-.01-.01-.014-.027-.027-.04l-.69-.69c-.12-.1-.255-.241-.392-.386l-.189-.195c-3.065-3.065-3.065-6.444 0-9.512C5.341-.72 8.67-.763 11.694 2.17l1.415 1.416c.007.006.017.01.024.016l6.726 6.716c.003.004.003.01.01.017l1.57 1.567c.067.067.137.134.198.208zm-10.403-.934a.765.765 0 110 1.082.771.771 0 010-1.082zm-.676 3.49c.3-.3.78-.3 1.079 0 .3.299.3.783 0 1.079-.3.299-.783.299-1.079 0a.76.76 0 010-1.08zm5.331-4.253a.765.765 0 11-1.08 1.083.765.765 0 011.08-1.083zM7.82 11.9c.299-.299.783-.299 1.078 0a.764.764 0 01-1.079 1.079.767.767 0 010-1.079zm4.252-4.252c.299-.3.783-.3 1.079 0 .299.3.299.783 0 1.08-.3.298-.78.298-1.08 0a.76.76 0 010-1.08z" fill="#313235" fill-rule="nonzero"/></svg>