<svg width="64" height="64" viewBox="0 0 64 64" xmlns="http://www.w3.org/2000/svg"><path d="M55.018 54.974c6.947-6.938 7.171-13.975.69-20.894-.143-.17-.268-.278-.385-.395l-.287-.278-3.038-3.038-21.576 21.584 1.497 1.488c.34.394.655.69.977.995l.574.556c7.144 7.144 14.396 7.135 21.548-.018zM8.085 29.607l.547.564c.305.314.6.637.923.915l1.049 1.048L32.188 10.55 29.32 7.682c-3.46-3.353-6.956-5.038-10.443-5.038-3.603 0-7.215 1.784-10.792 5.37-7.162 7.17-7.162 14.43 0 21.593zm4.42 4.419L28.53 50.053l21.575-21.585L34.08 12.441 12.504 34.026zm45.194-1.73c7.395 7.897 7.135 16.636-.798 24.569-4.088 4.087-8.39 6.14-12.684 6.14-4.293 0-8.578-2.035-12.656-6.122l-.53-.511c-.385-.368-.77-.735-1.093-1.111l-2.267-2.268c-.036-.027-.081-.045-.108-.072L9.645 35.003c-.027-.027-.036-.072-.072-.108l-1.837-1.837c-.323-.27-.682-.646-1.05-1.031l-.501-.52c-8.175-8.175-8.175-17.183 0-25.367 8.058-8.058 16.932-8.175 25-.35l3.773 3.774c.018.018.045.027.063.045l17.936 17.91c.009.008.009.026.027.044l4.186 4.177c.179.18.367.359.529.556zm-27.743-2.492a2.029 2.029 0 012.878 0 2.04 2.04 0 010 2.886 2.029 2.029 0 01-2.878 0 2.056 2.056 0 010-2.886zm-1.801 9.304a2.029 2.029 0 012.877 0 2.029 2.029 0 010 2.877 2.029 2.029 0 01-2.877 0 2.029 2.029 0 010-2.877zM42.37 27.77a2.04 2.04 0 010 2.886 2.029 2.029 0 01-2.877 0 2.04 2.04 0 010-2.886 2.029 2.029 0 012.877 0zm-21.522 3.962a2.029 2.029 0 012.878 0 2.029 2.029 0 010 2.877c-.798.79-2.089.798-2.878 0a2.045 2.045 0 010-2.877zm11.34-11.339a2.029 2.029 0 012.877 0 2.029 2.029 0 010 2.877 2.029 2.029 0 01-2.878 0 2.029 2.029 0 010-2.877z" fill="#313235" fill-rule="nonzero"/></svg>