<svg width="24" height="24" viewBox="0 0 24 24" xmlns="http://www.w3.org/2000/svg"><path d="M11.808 22.639c7.187 0 10.827-3.64 10.827-10.824C22.635 4.63 18.992.988 11.808.988 4.625.988.985 4.628.985 11.815c0 7.18 3.644 10.824 10.823 10.824zm0-22.639c7.731 0 11.816 4.087 11.816 11.815 0 7.724-4.085 11.809-11.816 11.809C4.084 23.624 0 19.539 0 11.815 0 4.087 4.084 0 11.808 0zm-.393 5.933a.372.372 0 01.363.44l-.087.444a.37.37 0 01-.363.299H8.192v10.198c0 .205-.165.37-.37.37h-.488a.369.369 0 01-.37-.37V7.116h-3.21a.369.369 0 01-.37-.37v-.443c0-.206.166-.37.37-.37h7.661zm8.77 11.196a.371.371 0 01-.316.562h-.548a.375.375 0 01-.32-.182l-3.36-5.63-1.453 1.818v3.62c0 .206-.164.37-.37.37h-.48a.369.369 0 01-.37-.37V6.31c0-.205.165-.37.37-.37h.48c.206 0 .37.165.37.37v5.523l4.572-5.755a.373.373 0 01.289-.138h.564c.205.004.37.172.367.377 0 .08-.027.158-.077.225l-3.463 4.37 3.745 6.218z" fill="#5CB615" fill-rule="nonzero"/></svg>