<svg width="24" height="24" viewBox="0 0 24 24" xmlns="http://www.w3.org/2000/svg"><path d="M17.415 15.966l-1.264.007.44-.464a.5.5 0 00-.245-.83l-3.751-.847 2.171-5.664a.502.502 0 00-.198-.605.493.493 0 00-.625.084l-7.277 7.916a.5.5 0 00-.111.467l-1.483.007c-1.227 0-4.084-.4-4.084-4.11 0-2.085.891-3.4 2.649-3.903a.501.501 0 00.36-.481l-.007-.138c0-5.943 5.126-6.407 6.696-6.407.89 0 5.381.205 6.45 4.242a.494.494 0 00.464.37c1.513.044 5.039.632 5.039 5.163-.004 4.82-3.997 5.193-5.224 5.193zm-5.95 1.016a.508.508 0 00-.026-.414.488.488 0 00-.326-.249l-3.14-.712 4.941-5.378-1.448 3.781a.494.494 0 00.023.414.493.493 0 00.326.252l3.452.78-5.317 5.58 1.516-4.054zm6.522-12.35C16.575.225 11.674 0 10.686 0c-1.27 0-7.55.35-7.684 7.18C1.742 7.644 0 8.844 0 11.923c0 3.768 2.622 5.109 5.072 5.109l4.511-.02c.017 0 .03-.007.044-.01l.712.161-2.15 5.782a.5.5 0 00.46.675.505.505 0 00.356-.151l6.188-6.494 2.222-.014c1.035 0 6.205-.299 6.205-6.191.004-5.143-3.933-6.007-5.633-6.138z" fill="#313235" fill-rule="nonzero"/></svg>