<svg width="24" height="24" viewBox="0 0 24 24" xmlns="http://www.w3.org/2000/svg"><path d="M20.313 19.533l-.091.06a1.305 1.305 0 01-.723.219l-1.13-.007c-.268-.76-.93-1.207-1.855-1.207-.92 0-1.583.444-1.852 1.197l-3.875-.007c-.273-.75-.932-1.19-1.853-1.19-.92 0-1.576.437-1.848 1.187H5.795c-.272-.746-.931-1.187-1.849-1.187-.917 0-1.573.437-1.849 1.184H.992v-2.364h21.354c-.46 1.053-1.361 1.664-2.033 2.115zm-3.802 2.14c-.68 0-1.005-.339-1.005-1.031 0-.696.33-1.035 1.005-1.035.676 0 1.005.34 1.005 1.035 0 .696-.33 1.032-1.005 1.032zm-7.58 0c-.679 0-1.008-.339-1.008-1.031 0-.696.33-1.035 1.008-1.035.676 0 1.005.34 1.005 1.035.003.696-.33 1.032-1.005 1.032zm-4.992 0c-.675 0-1.005-.339-1.005-1.031 0-.696.33-1.035 1.005-1.035.68 0 1.009.34 1.009 1.035 0 .696-.33 1.032-1.009 1.032zM.985 14.132h3.358v-3.54H.985v3.54zm4.343 0h2.8v-3.54h-2.8v3.54zm3.785 0h3.095v-3.54H9.113v3.54zm5.079-5.546v6.131c0 .279.221.504.49.504h7.88a4.6 4.6 0 01.03 1.26.466.466 0 00-.242-.073H.985v-1.27h11.714c.272 0 .49-.226.49-.505v-4.548a.499.499 0 00-.49-.504H.985v-.992l13.207-.003zm-4.02-2.756h1.573L10.04 7.576H8.467l1.704-1.747zM9.001 4.82h5.452V3.022H9.002V4.82zm12.79 8.067c.228.478.4.915.53 1.325h-7.149V8.585h.269c.044.003 4.4.259 6.35 4.302zm.88-.447c-2.205-4.571-6.981-4.853-7.21-4.864H11.43l1.684-1.724c.006-.007.006-.017.013-.023h1.815c.272 0 .49-.226.49-.505V3.022h7.527c.272 0 .49-.225.49-.504a.496.496 0 00-.49-.505H.491A.496.496 0 000 2.518c0 .279.222.504.49.504h7.527v2.302c0 .28.222.505.49.505h.273L7.076 7.576H.49A.5.5 0 000 8.08l-.001 6.552c0 .003 0 .007.003.007V16.9L0 16.91l.003.01v3.361c0 .28.222.505.491.505H1.96c.06 1.166.803 1.892 1.98 1.892 1.176 0 1.919-.723 1.98-1.89H6.95c.06 1.167.804 1.89 1.98 1.89 1.173 0 1.916-.723 1.977-1.886l3.623.007c.064 1.16.807 1.879 1.977 1.879 1.166 0 1.905-.713 1.976-1.866l1.002.007h.02c.45 0 .87-.13 1.25-.386l.091-.06c1.388-.929 4.272-2.865 1.825-7.934z" fill="#313235" fill-rule="nonzero"/></svg>