<svg width="64" height="64" viewBox="0 0 64 64" xmlns="http://www.w3.org/2000/svg"><path d="M61.721 4.5c.726 0 1.309.6 1.309 1.345 0 .744-.583 1.344-1.309 1.344h-20.07v6.14c0 .744-.582 1.345-1.308 1.345h-4.84c-.018.018-.018.044-.036.062l-4.49 4.599h10.755c.61.027 13.347.78 19.227 12.97 6.526 13.517-1.165 18.68-4.867 21.154l-.242.161a5.88 5.88 0 01-3.334 1.031h-.054l-2.671-.018c-.188 3.075-2.16 4.975-5.27 4.975-3.12 0-5.101-1.918-5.271-5.01l-9.663-.018c-.162 3.101-2.142 5.028-5.27 5.028-3.138 0-5.119-1.927-5.28-5.037h-2.752c-.161 3.11-2.142 5.037-5.28 5.037-3.137 0-5.118-1.936-5.28-5.046H1.819c-.717 0-1.309-.6-1.309-1.345v-8.963c0-.01-.009-.018-.009-.027 0-.01.009-.018.009-.027v-6.033C.5 38.167.5 38.158.5 38.15V20.68c0-.358.134-.699.385-.95.242-.25.574-.394.924-.394h17.56l4.544-4.661h-.726c-.717 0-1.309-.6-1.309-1.345V7.19H1.808C1.093 7.19.5 6.59.5 5.845.5 5.1 1.083 4.5 1.809 4.5zM44.53 51.415c-1.802 0-2.68.906-2.68 2.761 0 1.847.87 2.752 2.68 2.752 1.802 0 2.68-.896 2.68-2.752 0-1.855-.878-2.76-2.68-2.76zm-20.213 0c-1.81 0-2.689.906-2.689 2.761 0 1.847.879 2.752 2.69 2.752 1.8 0 2.688-.896 2.68-2.752 0-1.855-.88-2.76-2.68-2.76zm-13.31 0c-1.802 0-2.68.906-2.68 2.761 0 1.847.878 2.752 2.68 2.752 1.81 0 2.688-.896 2.688-2.752 0-1.855-.878-2.76-2.689-2.76zM60.09 45.58H3.144v6.302h2.95c.734-1.99 2.482-3.156 4.93-3.156 2.446 0 4.203 1.175 4.93 3.164h3.441c.726-1.998 2.474-3.164 4.93-3.164 2.456 0 4.213 1.175 4.94 3.173l10.334.018c.717-2.007 2.483-3.19 4.94-3.19 2.464 0 4.23 1.191 4.947 3.217l3.012.018a3.48 3.48 0 001.927-.582l.242-.162c1.793-1.2 4.195-2.832 5.423-5.638zM38.344 22.024l-35.218.009v2.644h31.238c.718 0 1.31.6 1.31 1.345v12.127c0 .744-.584 1.345-1.31 1.345H3.126v3.388H60.1c.242 0 .448.08.645.197.126-.995.108-2.115-.08-3.361H39.653c-.717 0-1.309-.6-1.309-1.345v-16.35zm3.335 0h-.717v15.005h19.065a27.609 27.609 0 00-1.416-3.532c-5.199-10.783-16.816-11.464-16.932-11.473zM12.08 27.375H3.126v9.439h8.955v-9.439zm10.093 0h-7.467v9.439h7.467v-9.439zm10.882 0H24.8v9.439h8.256v-9.439zm-1.237-12.701h-4.195l-4.545 4.66h4.195l4.545-4.66zm7.224-7.485H24.504v4.796h14.54V7.189z" fill="#313235" fill-rule="nonzero"/></svg>