<?xml version="1.0" encoding="UTF-8"?>
<svg width="24px" height="24px" viewBox="0 0 24 24" version="1.1" xmlns="http://www.w3.org/2000/svg" xmlns:xlink="http://www.w3.org/1999/xlink">
    <title>1.Light/TV_Contenidos audiovisuales_1Light</title>
    <g id="Symbols" stroke="none" stroke-width="1" fill="none" fill-rule="evenodd">
        <g id="1.Light/TV_Contenidos-audiovisuales_1Light" fill="#5CB615" fill-rule="nonzero">
            <path d="M3.79831933,18.1092437 C2.54789916,18.1092437 1.58991597,17.7697479 0.941176471,17.1008403 C0.319327731,16.4554622 0.00336134454,15.5176471 0.00336134454,14.3176471 L0.00336134454,6.78487395 C0.00336134454,5.58487395 0.319327731,4.65378151 0.941176471,4.01848739 C1.58319328,3.35966387 2.54453782,3.02689076 3.79495798,3.02689076 L19.8218487,3.01680672 C21.0722689,3.01680672 22.0336134,3.34957983 22.6756303,4.00840336 C23.297479,4.64705882 23.6134454,5.57815126 23.6134454,6.77478992 L23.6134454,14.307563 C23.6134454,15.507563 23.297479,16.4453782 22.6756303,17.0907563 C22.0302521,17.7596639 21.0689076,18.0991597 19.8184874,18.0991597 L3.79831933,18.1092437 L3.79831933,18.1092437 Z M19.8252101,3.68907563 L3.79831933,3.69915966 C1.69747899,3.69915966 0.675630252,4.70756303 0.675630252,6.78487395 L0.675630252,14.3176471 C0.675630252,15.3394958 0.927731092,16.1159664 1.42521008,16.6336134 C1.9394958,17.1680672 2.73613445,17.4369748 3.79831933,17.4369748 L19.8252101,17.4268908 C20.8840336,17.4268908 21.6840336,17.1579832 22.1983193,16.6235294 C22.6957983,16.1092437 22.9478992,15.3294118 22.9478992,14.307563 L22.9478992,6.77478992 C22.9445378,4.69747899 21.9260504,3.68907563 19.8252101,3.68907563 Z M15.0857143,20.0722689 L8.52773109,20.0722689 C8.34285714,20.0722689 8.19159664,19.9210084 8.19159664,19.7361345 C8.19159664,19.5512605 8.34285714,19.4 8.52773109,19.4 L15.0857143,19.4 C15.2705882,19.4 15.4218487,19.5512605 15.4218487,19.7361345 C15.4218487,19.9210084 15.2705882,20.0722689 15.0857143,20.0722689 L15.0857143,20.0722689 Z" id="TV_Contenidos-audiovisuales_1Light"></path>
        </g>
    </g>
</svg>