<svg width="64" height="64" viewBox="0 0 64 64" xmlns="http://www.w3.org/2000/svg"><path d="M10.62 49.496c-3.335 0-5.89-.905-7.62-2.689-1.657-1.72-2.5-4.221-2.5-7.421V19.298c0-3.2.843-5.683 2.5-7.377 1.713-1.757 4.276-2.644 7.61-2.644l42.74-.027c3.334 0 5.897.887 7.61 2.644 1.658 1.703 2.5 4.186 2.5 7.377V39.36c0 3.2-.842 5.7-2.5 7.422-1.722 1.783-4.285 2.689-7.62 2.689l-42.72.026zm42.738-38.453l-42.738.027c-5.602 0-8.327 2.689-8.327 8.228v20.088c0 2.725.672 4.795 1.999 6.175 1.371 1.426 3.495 2.143 6.328 2.143l42.738-.027c2.824 0 4.957-.717 6.329-2.142 1.326-1.372 1.998-3.451 1.998-6.176V19.27c-.009-5.54-2.724-8.228-8.327-8.228zM40.72 54.73H23.232a.899.899 0 01-.897-.896c0-.493.404-.896.897-.896H40.72c.493 0 .896.403.896.896a.899.899 0 01-.896.896z" fill="#313235" fill-rule="nonzero"/></svg>