<svg width="64" height="64" viewBox="0 0 64 64" xmlns="http://www.w3.org/2000/svg"><path d="M10.129 48.291c-3.335 0-5.89-.905-7.62-2.689C.853 43.882.01 41.38.01 38.18V18.093c0-3.2.843-5.683 2.5-7.377 1.713-1.757 4.276-2.644 7.61-2.644l42.74-.027c3.334 0 5.897.887 7.61 2.644 1.658 1.703 2.5 4.186 2.5 7.377v20.088c0 3.2-.842 5.7-2.5 7.421-1.722 1.784-4.285 2.69-7.62 2.69l-42.72.026zM52.867 9.838l-42.738.026c-5.602 0-8.327 2.69-8.327 8.229V38.18c0 2.725.672 4.796 1.999 6.176 1.371 1.426 3.495 2.143 6.328 2.143l42.738-.027c2.824 0 4.957-.717 6.329-2.143 1.326-1.371 1.998-3.45 1.998-6.175V18.066c-.009-5.54-2.725-8.228-8.327-8.228zM40.23 53.526H22.74a.899.899 0 01-.897-.896c0-.493.404-.897.897-.897h17.488c.493 0 .896.404.896.897a.899.899 0 01-.896.896z" fill="#313235" fill-rule="nonzero"/></svg>