<svg width="64" height="64" xmlns="http://www.w3.org/2000/svg"><path d="M32.896 59.76c4.966-5.593 19.747-25.214 19.783-37.243.036-12.792-6.938-19.855-19.64-19.89h-.098c-12.647 0-19.63 7.018-19.666 19.782-.036 12.137 14.673 31.767 19.621 37.351zM33.04 0c13.974.045 22.292 8.462 22.248 22.525-.045 13.688-17.112 35.693-21.468 40.077a1.29 1.29 0 01-1.829.018l-.018-.018c-4.356-4.366-21.351-26.38-21.306-40.211C10.71 8.363 19.039 0 32.94 0h.099zm-.063 26.478c3.487 0 5.333-1.855 5.333-5.369 0-3.513-1.846-5.369-5.333-5.369s-5.342 1.856-5.342 5.37c0 3.513 1.846 5.368 5.342 5.368zm0-13.364c4.975 0 7.942 2.994 7.942 7.995 0 5.002-2.967 7.996-7.942 7.996s-7.942-2.994-7.942-7.996c0-5.001 2.967-7.995 7.942-7.995z" fill="#313235" fill-rule="nonzero"/></svg>