<svg width="64" height="64" viewBox="0 0 64 64" xmlns="http://www.w3.org/2000/svg"><path d="M31.93 60.26c4.966-5.593 19.747-25.214 19.783-37.243.035-12.792-6.938-19.855-19.64-19.89h-.098c-12.648 0-19.63 7.018-19.666 19.782-.036 12.137 14.673 31.767 19.62 37.351zM32.073.5c13.975.045 22.293 8.462 22.248 22.525-.045 13.688-17.112 35.693-21.468 40.077a1.29 1.29 0 01-1.828.018l-.018-.018C26.65 58.736 9.655 36.722 9.7 22.89 9.745 8.863 18.072.5 31.975.5h.098zm-.062 26.478c3.486 0 5.333-1.855 5.333-5.369 0-3.513-1.847-5.369-5.333-5.369-3.487 0-5.343 1.856-5.343 5.37 0 3.513 1.847 5.368 5.343 5.368zm0-13.364c4.974 0 7.941 2.994 7.941 7.995 0 5.002-2.967 7.996-7.941 7.996-4.975 0-7.942-2.994-7.942-7.996 0-5.001 2.967-7.995 7.942-7.995z" fill="#313235" fill-rule="nonzero"/></svg>