<svg width="64" height="64" xmlns="http://www.w3.org/2000/svg"><path d="M52.984 60.352c.627 0 1.174-.404 1.246-.583l-.01-6.696c-.062-.107-.6-.51-1.227-.51H10.452c-.664 0-1.157.376-1.228.537v6.74c.044.117.546.512 1.228.512h42.532zm-38.74-29.804v19.29H49.2v-19.29c0-11.653-5.889-17.56-17.479-17.56-11.608 0-17.479 5.898-17.479 17.56zm38.749 19.37c2.061 0 3.863 1.47 3.863 3.155v6.768c0 1.676-1.81 3.155-3.863 3.155H10.452c-2.098 0-3.864-1.443-3.864-3.155v-6.768c0-1.712 1.775-3.155 3.864-3.155h1.156v-19.38c0-13.22 6.956-20.203 20.105-20.203 13.159 0 20.123 6.983 20.123 20.204v19.37h1.157v.01zm-21.27-42.47a1.322 1.322 0 01-1.319-1.326V1.318A1.32 1.32 0 0131.722 0a1.32 1.32 0 011.318 1.318V6.13a1.32 1.32 0 01-1.318 1.318c0 .009 0 .009 0 0zM7.51 23.557c0 .726-.591 1.318-1.317 1.327H1.398a1.32 1.32 0 01-1.317-1.318v-.009c0-.735.591-1.326 1.317-1.326h4.787c.735 0 1.326.591 1.326 1.326zm54.257-1.237a1.32 1.32 0 011.318 1.318 1.32 1.32 0 01-1.318 1.318h-4.795a1.32 1.32 0 01-1.318-1.318v-.009c0-.726.591-1.327 1.318-1.327l4.795.018zM11.375 11.303L7.987 7.897a1.336 1.336 0 010-1.873c.51-.511 1.344-.52 1.855-.01l.009.01 3.388 3.406a1.34 1.34 0 01-.018 1.882 1.275 1.275 0 01-.905.377c-.368 0-.7-.144-.941-.386zm37.18-.009a1.322 1.322 0 01-1.326-1.318c0-.35.144-.69.395-.94l3.388-3.407c.51-.51 1.344-.52 1.855-.009l.01.01c.51.519.51 1.353 0 1.873l-3.389 3.406a1.309 1.309 0 01-.932.385zm-8.864 22.212v-3.057h-5.217a1.32 1.32 0 01-1.318-1.317v-5.244H30.1v5.244c0 .726-.583 1.317-1.309 1.326h-5.217v3.066h5.217a1.32 1.32 0 011.318 1.317v5.244h3.056v-5.244c0-.726.583-1.326 1.318-1.326l5.208-.01zm.322-5.701c1.237 0 2.313.986 2.313 2.115v4.124c0 1.13-1.085 2.115-2.313 2.115h-4.221v4.249c0 1.264-.968 2.321-2.107 2.321H29.58c-1.139 0-2.107-1.066-2.107-2.321v-4.24h-4.221c-1.255 0-2.313-.968-2.313-2.115v-4.124c0-1.147 1.058-2.115 2.313-2.115h4.221v-4.249c0-1.237.986-2.321 2.107-2.321h4.105c1.12 0 2.107 1.084 2.107 2.321v4.24h4.221z" fill="#313235" fill-rule="nonzero"/></svg>