<svg width="64" height="64" viewBox="0 0 64 64" xmlns="http://www.w3.org/2000/svg"><path d="M52.894 60.343c.628 0 1.174-.404 1.237-.583l-.009-6.696c-.063-.107-.6-.51-1.228-.51H10.371c-.663 0-1.156.376-1.228.537v6.74c.045.117.547.512 1.228.512h42.523zm-38.74-29.795v19.29h34.949v-19.29c0-11.653-5.88-17.56-17.48-17.56-11.59 0-17.47 5.907-17.47 17.56zm38.74 19.361c2.062 0 3.863 1.47 3.863 3.155v6.768c0 1.676-1.81 3.155-3.863 3.155H10.371c-2.098 0-3.863-1.443-3.863-3.155v-6.768c0-1.712 1.774-3.155 3.863-3.155h1.156V30.54c0-13.212 6.956-20.204 20.105-20.204 13.159 0 20.115 6.983 20.115 20.204V49.9h1.147v.01zM31.632 7.458a1.322 1.322 0 01-1.317-1.327V1.327A1.32 1.32 0 0131.632.009a1.32 1.32 0 011.318 1.318V6.14a1.32 1.32 0 01-1.318 1.318zM7.431 23.556c0 .726-.592 1.318-1.318 1.327H1.318A1.327 1.327 0 010 23.556v-.009c0-.735.592-1.326 1.318-1.326h4.786c.726.009 1.318.6 1.327 1.335zm54.247-1.237a1.32 1.32 0 011.318 1.318 1.32 1.32 0 01-1.318 1.318h-4.795a1.32 1.32 0 01-1.318-1.318v-.009c0-.726.592-1.327 1.318-1.327l4.795.018zM11.285 11.303L7.897 7.906a1.336 1.336 0 010-1.874c.51-.51 1.344-.52 1.855-.008l.01.008L13.15 9.43a1.34 1.34 0 01-.018 1.882 1.275 1.275 0 01-.906.377c-.358 0-.69-.135-.94-.386zm37.172-.009a1.327 1.327 0 01-1.326-1.318c0-.35.143-.69.394-.94l3.388-3.407c.511-.51 1.345-.52 1.856-.009l.009.01c.51.519.51 1.353 0 1.873l-3.389 3.406a1.258 1.258 0 01-.932.385z" fill="#313235" fill-rule="nonzero"/></svg>