<svg width="24" height="24" viewBox="0 0 24 24" xmlns="http://www.w3.org/2000/svg"><path d="M19.869 22.632c.235 0 .44-.151.467-.219l-.003-2.51c-.024-.04-.225-.192-.46-.192H3.918c-.248 0-.433.141-.46.202v2.527c.017.044.205.192.46.192h15.95zM5.34 11.455v7.234h13.11v-7.234c0-4.37-2.209-6.584-6.555-6.584-4.353 0-6.555 2.211-6.555 6.584zm14.531 7.264c.773 0 1.449.552 1.449 1.184v2.537c0 .629-.679 1.184-1.449 1.184H3.92c-.786 0-1.448-.542-1.448-1.184v-2.537c0-.642.665-1.184 1.448-1.184h.434v-7.267c0-4.958 2.608-7.576 7.54-7.576 4.934 0 7.546 2.618 7.546 7.576v7.264h.433v.003zM11.896 2.793a.496.496 0 01-.494-.497V.494a.495.495 0 01.988 0V2.3a.495.495 0 01-.494.494c0 .004 0 .004 0 0zm-9.08 6.04a.5.5 0 01-.493.498H.524a.495.495 0 01-.494-.494v-.003c0-.276.222-.498.494-.498H2.32c.276 0 .498.222.498.498zm20.347-.463a.495.495 0 010 .988h-1.798a.495.495 0 01-.494-.494V8.86c0-.273.221-.498.494-.498l1.798.007zM4.266 4.239L2.995 2.96a.501.501 0 010-.702.493.493 0 01.696-.004l.003.004 1.27 1.277a.502.502 0 01-.006.706.495.495 0 01-.692-.003zm13.942-.004a.496.496 0 01-.35-.847l1.271-1.277a.493.493 0 01.696-.003l.004.003a.501.501 0 010 .702l-1.271 1.278a.49.49 0 01-.35.144zm-3.324 8.33v-1.147h-1.956a.495.495 0 01-.494-.494V8.958h-1.147v1.966a.497.497 0 01-.49.498H8.84v1.15h1.957c.272 0 .494.221.494.494v1.966h1.146v-1.966c0-.273.218-.498.494-.498l1.953-.003zm.121-2.138c.464 0 .867.37.867.793v1.546c0 .424-.406.794-.867.794h-1.583v1.593c0 .474-.363.87-.79.87h-1.54c-.426 0-.79-.4-.79-.87v-1.59H8.72c-.47 0-.867-.363-.867-.793v-1.546c0-.43.397-.794.867-.794h1.584V8.837c0-.464.37-.87.79-.87h1.539c.42 0 .79.406.79.87v1.59h1.583z" fill="#313235" fill-rule="nonzero"/></svg>