<svg width="24" height="24" viewBox="0 0 24 24" xmlns="http://www.w3.org/2000/svg"><path d="M21.686 23.613H1.366a.337.337 0 01-.336-.336v-2.622c0-1.791.558-3.317 1.61-4.413 1.15-1.19 2.868-1.822 4.965-1.822h7.842c2.098 0 3.815.632 4.965 1.825 1.055 1.096 1.61 2.622 1.61 4.414v2.622a.336.336 0 01-.336.332zm-19.983-.672H21.35v-2.286c0-1.613-.491-2.978-1.422-3.946-1.036-1.072-2.541-1.617-4.48-1.617H7.604c-1.94 0-3.445.545-4.48 1.617-.932.968-1.422 2.33-1.422 3.946v2.286zm9.821-11.126c-3.858 0-5.899-2.04-5.899-5.899 0-1.96.525-3.459 1.56-4.46C8.183.49 9.642 0 11.525 0c1.882 0 3.344.49 4.349 1.455 1.042 1.002 1.566 2.505 1.566 4.461 0 3.859-2.043 5.9-5.916 5.9zm0-11.143c-1.7 0-3.005.427-3.872 1.267-.897.871-1.355 2.209-1.355 3.977 0 1.768.458 3.102 1.355 3.966.867.837 2.172 1.257 3.872 1.257 1.701 0 3.012-.423 3.883-1.26.904-.867 1.361-2.202 1.361-3.966 0-1.765-.457-3.106-1.361-3.977C14.533 1.1 13.229.672 11.524.672z" fill="#313235" fill-rule="nonzero"/></svg>