<svg width="24" height="24" viewBox="0 0 24 24" xmlns="http://www.w3.org/2000/svg"><path d="M22.118 19.79a.514.514 0 00.52-.504V7.854H.986v11.435c0 .28.235.504.52.504l20.613-.003zM1.506 3.985a.514.514 0 00-.521.504V6.9h21.654V4.49a.514.514 0 00-.521-.504H1.506zm20.612-.958c.83 0 1.506.655 1.506 1.459v14.8c0 .803-.676 1.459-1.506 1.459H1.506C.676 20.748 0 20.092 0 19.289V4.49C0 3.682.676 3.03 1.506 3.03c0-.003 20.612-.003 20.612-.003zm-17.09 3.15a.676.676 0 01-.685-.666c0-.366.306-.666.686-.666.38 0 .685.296.685.666a.676.676 0 01-.685.665zm2.058 0a.673.673 0 01-.686-.663v-.003c0-.366.306-.666.686-.666.38 0 .685.296.685.666a.676.676 0 01-.685.665zm-4.111 0a.676.676 0 01-.686-.666c0-.366.306-.666.686-.666.38 0 .686.296.686.666a.676.676 0 01-.686.665zm10.084 7.33l.702-.692-.944-.138a.827.827 0 01-.605-.433l-.4-.82-.4.813a.81.81 0 01-.612.44l-.941.138.699.69a.8.8 0 01.222.685l-.158.938.803-.427a.816.816 0 01.753-.007l.817.434-.161-.938a.816.816 0 01.225-.682zm1.099-1.404a.622.622 0 01.5.416c.081.229.021.481-.15.652l-.888.871c-.003.003-.007.013-.007.024l.209 1.23a.62.62 0 01-.262.622.619.619 0 01-.65.037l-1.092-.582c-.003 0-.003-.003-.006-.003-.004 0-.004 0-.004.003l-1.095.582a.643.643 0 01-.296.074.595.595 0 01-.353-.111.62.62 0 01-.262-.622l.208-1.23c0-.01-.003-.02-.007-.024l-.884-.87a.625.625 0 01-.15-.653.622.622 0 01.5-.416l1.223-.179c.007 0 .01-.006.014-.01l.548-1.119a.627.627 0 011.13 0l.547 1.12c.003.003.007.01.014.01l1.213.178zm5.798 1.405l.703-.693-.945-.138a.827.827 0 01-.605-.433l-.4-.82-.396.813a.81.81 0 01-.612.44l-.941.138.699.69a.79.79 0 01.222.685l-.158.938.803-.427a.816.816 0 01.753-.007l.817.434-.158-.938a.812.812 0 01.218-.682zm1.1-1.405a.631.631 0 01.352 1.068l-.887.871c-.003.003-.007.013-.007.024l.209 1.23a.62.62 0 01-.262.622.619.619 0 01-.65.037l-1.095-.582-.007-.003c-.003 0-.003 0-.003.003l-1.093.582a.643.643 0 01-.295.074.595.595 0 01-.353-.111.62.62 0 01-.262-.622l.208-1.23c0-.01-.003-.02-.007-.024l-.884-.87a.625.625 0 01-.151-.653.622.622 0 01.5-.416l1.224-.179c.007 0 .01-.006.014-.01l.548-1.119a.627.627 0 011.129 0l.548 1.12c.003.003.007.01.013.01l1.21.178zM6.16 13.508l.703-.693-.945-.138a.827.827 0 01-.605-.433l-.4-.82-.4.813a.81.81 0 01-.611.44l-.942.138.7.69a.79.79 0 01.221.685l-.161.938.803-.427a.816.816 0 01.753-.007l.817.434-.161-.938a.83.83 0 01.228-.682zm1.1-1.405a.622.622 0 01.5.416c.081.229.02.481-.15.652l-.888.874c-.007.004-.01.014-.007.024l.208 1.23a.62.62 0 01-.262.622.619.619 0 01-.649.037l-1.092-.582c-.003 0-.003-.003-.007-.003-.003 0-.003 0-.003.003l-1.096.582a.643.643 0 01-.296.074.595.595 0 01-.353-.111.628.628 0 01-.265-.622l.208-1.23c0-.01-.003-.02-.006-.024l-.885-.87a.625.625 0 01-.15-.652.622.622 0 01.5-.417l1.224-.178c.006 0 .01-.007.013-.01l.548-1.12a.627.627 0 011.13 0l.547 1.12c.004.003.007.01.014.01-.007-.004 1.217.175 1.217.175z" fill="#5CB615" fill-rule="nonzero"/></svg>