<svg width="64" height="64" xmlns="http://www.w3.org/2000/svg"><path d="M58.98 52.773c.762 0 1.39-.6 1.39-1.344V20.943H2.626v30.495c0 .744.628 1.344 1.39 1.344l54.964-.009zM4.016 10.626a1.37 1.37 0 00-1.39 1.345v6.427H60.37V11.97a1.37 1.37 0 00-1.39-1.345H4.016zM58.98 8.072c2.214 0 4.016 1.748 4.016 3.89v39.467c0 2.142-1.802 3.89-4.016 3.89H4.016C1.802 55.328 0 53.579 0 51.438V11.97C0 9.82 1.802 8.08 4.016 8.08c0-.01 54.964-.01 54.964-.01zM13.41 16.47a1.802 1.802 0 01-1.829-1.775c0-.977.816-1.775 1.829-1.775 1.012 0 1.828.789 1.828 1.775 0 .977-.816 1.775-1.828 1.775zm5.485 0a1.794 1.794 0 01-1.828-1.766v-.01c0-.976.815-1.774 1.828-1.774 1.013 0 1.829.789 1.829 1.775 0 .977-.816 1.775-1.829 1.775zm-10.962 0a1.802 1.802 0 01-1.829-1.775c0-.977.816-1.775 1.829-1.775s1.828.789 1.828 1.775c0 .977-.815 1.775-1.828 1.775zm26.89 19.55l1.874-1.847-2.519-.368a2.205 2.205 0 01-1.613-1.156l-1.067-2.187-1.067 2.169a2.16 2.16 0 01-1.631 1.174l-2.51.368 1.865 1.837c.475.466.699 1.183.591 1.829l-.421 2.5 2.142-1.138a2.176 2.176 0 012.008-.018l2.178 1.157-.43-2.501a2.177 2.177 0 01.6-1.82zm2.932-3.748c.618.09 1.138.52 1.335 1.112a1.67 1.67 0 01-.403 1.739l-2.367 2.321c-.009.01-.017.036-.017.063l.555 3.28a1.652 1.652 0 01-.699 1.66 1.65 1.65 0 01-1.73.098l-2.913-1.551c-.009 0-.009-.009-.018-.009s-.009 0-.009.009l-2.922 1.55c-.242.126-.511.198-.789.198-.34 0-.672-.099-.941-.296a1.652 1.652 0 01-.7-1.658l.557-3.28c0-.028-.01-.055-.018-.064l-2.358-2.321a1.666 1.666 0 01-.403-1.74 1.659 1.659 0 011.335-1.11l3.263-.476c.018 0 .027-.018.036-.027l1.461-2.984a1.67 1.67 0 011.506-.942c.645 0 1.219.359 1.506.942l1.46 2.984c.01.01.019.027.037.027l3.236.475zm15.462 3.747l1.873-1.846-2.519-.368a2.205 2.205 0 01-1.613-1.156l-1.067-2.187-1.057 2.169a2.16 2.16 0 01-1.632 1.174l-2.51.368 1.865 1.837c.475.466.708 1.183.591 1.829l-.42 2.5 2.141-1.138a2.176 2.176 0 012.008-.018l2.178 1.157-.42-2.501a2.165 2.165 0 01.582-1.82zm2.93-3.747c.62.09 1.14.52 1.345 1.112a1.67 1.67 0 01-.403 1.739l-2.366 2.321c-.01.01-.018.036-.018.063l.556 3.28a1.652 1.652 0 01-.7 1.66 1.65 1.65 0 01-1.73.098l-2.922-1.551-.018-.009c-.009 0-.009 0-.009.009l-2.913 1.55c-.242.126-.51.198-.789.198-.34 0-.672-.099-.94-.296a1.652 1.652 0 01-.7-1.658l.556-3.28c0-.028-.01-.055-.018-.064l-2.358-2.321a1.666 1.666 0 01-.403-1.74 1.659 1.659 0 011.336-1.11l3.262-.476c.018 0 .027-.018.036-.027l1.461-2.984a1.67 1.67 0 011.506-.942c.646 0 1.22.359 1.506.942l1.461 2.984c.01.01.018.027.036.027l3.227.475zM16.43 36.02l1.874-1.846-2.52-.368a2.205 2.205 0 01-1.613-1.156l-1.066-2.187-1.067 2.169a2.16 2.16 0 01-1.631 1.174l-2.51.368L9.76 36.01c.475.466.708 1.183.592 1.829l-.43 2.5 2.142-1.138a2.176 2.176 0 012.008-.018l2.178 1.157-.43-2.501a2.212 2.212 0 01.61-1.82zm2.931-3.747c.619.09 1.139.52 1.336 1.112a1.67 1.67 0 01-.403 1.739l-2.367 2.33c-.018.01-.027.036-.018.063l.556 3.28a1.652 1.652 0 01-.7 1.659 1.65 1.65 0 01-1.73.099l-2.912-1.551c-.01 0-.01-.009-.018-.009-.01 0-.01 0-.01.009l-2.921 1.55c-.242.126-.511.198-.79.198-.34 0-.671-.099-.94-.296a1.674 1.674 0 01-.708-1.658l.555-3.28c0-.028-.009-.055-.018-.064l-2.357-2.321a1.666 1.666 0 01-.403-1.74 1.659 1.659 0 011.335-1.11l3.263-.476c.018 0 .027-.018.036-.027l1.46-2.984a1.67 1.67 0 011.507-.942c.645 0 1.219.359 1.506.942l1.46 2.984c.01.01.019.027.037.027-.018-.009 3.244.466 3.244.466z" fill="#313235" fill-rule="nonzero"/></svg>