<svg width="24" height="24" viewBox="0 0 24 24" xmlns="http://www.w3.org/2000/svg"><path d="M17.714 4.753h-1.532l-.834 3.449h2.534l.357-2.995c-.004-.222-.236-.454-.525-.454zm-1.489 17.375L17.761 9.22h-2.658l-2.79 11.573a.51.51 0 01-.616.377h-.003a.508.508 0 01-.38-.609v-.003L14.047 9.22H3.513l1.532 12.847c.004.343.239.575.525.575h10.134a.52.52 0 00.521-.514zM3.56 4.753a.518.518 0 00-.521.514l.353 2.935h10.907l.83-3.45H3.56zm17.885-2.145a.508.508 0 11-.5.888L17.012 1.31l-.585 2.423h1.29c.851 0 1.547.69 1.547 1.533l-2.017 16.915c.003.786-.689 1.472-1.54 1.472H5.57a1.54 1.54 0 01-1.546-1.533L2.02 5.331c-.003-.904.69-1.593 1.543-1.593h11.812L16.17.424a.51.51 0 01.75-.327l4.524 2.511zM8.141 13.872c.962-.951.27-1.791.064-2l-.094-.094c-.121-.114-.494-.427-.985-.427-.306 0-.659.121-1.025.484-.955.948-.256 1.802-.06 2.004l.097.097c.124.125.487.427.968.427.306.003.662-.121 1.035-.49zm.8-2.709c.83.847 1.126 2.232-.077 3.425-.659.656-1.321.794-1.761.794-.858 0-1.466-.505-1.691-.723-.04-.04-.08-.077-.118-.118-.817-.854-1.112-2.242.077-3.422.653-.648 1.311-.783 1.752-.783.857 0 1.472.498 1.697.713.04.033.084.077.121.114zm.666 7.597c.534-.531.151-.999.037-1.113-.017-.017-.037-.037-.054-.05-.067-.064-.272-.239-.548-.239-.168 0-.366.067-.568.272-.531.525-.141 1.002-.037 1.113l.054.054c.07.067.272.238.538.238.171 0 .37-.07.578-.275zm.685-1.903l.084.084c.595.609.837 1.664-.047 2.541-.477.474-.968.572-1.3.572-.454 0-.911-.195-1.254-.528l-.078-.077c-.591-.612-.823-1.667.05-2.535.471-.47.966-.568 1.295-.568.642-.003 1.096.36 1.25.511z" fill="#313235" fill-rule="nonzero"/></svg>