<svg width="64" height="64" viewBox="0 0 64 64" xmlns="http://www.w3.org/2000/svg"><path d="M41.198 60.87c4.643 0 7.557-1.936 8.641-5.602H14.13c.394 1.344 1.021 2.482 1.926 3.352 1.56 1.488 3.837 2.25 6.777 2.25h18.366zM16.064 18.91c-1.263 1.21-2.025 2.895-2.312 5.01h36.482c-.44-3.378-2.098-5.601-4.948-6.614a3.985 3.985 0 01-2.277.708H20.752a3.944 3.944 0 01-2.133-.628c-.977.377-1.855.86-2.555 1.524zm3.299-14.44v9.555c0 .762.627 1.38 1.39 1.38h22.256c.762 0 1.39-.618 1.39-1.38V4.471c0-.762-.628-1.38-1.39-1.38H20.752c-.762 0-1.389.618-1.389 1.38zm-5.737 47.238c0 .34.045.627.063.95h36.58c.018-.323.072-.61.072-.95l.027-25.17H13.626v25.17zm33.228-36.58c3.962 1.712 6.14 5.45 6.14 10.702l-.026 25.887c0 7.476-4.285 11.77-11.77 11.77H22.832c-3.648 0-6.543-1.005-8.605-2.986C12.085 58.441 11 55.482 11 51.718V25.84c0-3.774 1.094-6.732 3.254-8.793.77-.735 1.703-1.291 2.716-1.757a3.834 3.834 0 01-.224-1.246V4.489C16.746 2.284 18.547.5 20.76.5h22.257c2.214 0 4.016 1.793 4.016 3.989v9.555c-.01.367-.081.726-.18 1.085zm-23.422-1.524a1.312 1.312 0 01-1.317-1.309V6.201a1.318 1.318 0 012.635 0v6.095c0 .726-.591 1.309-1.318 1.309zm5.63 0a1.312 1.312 0 01-1.318-1.309V6.201a1.318 1.318 0 012.635 0v6.095c0 .726-.591 1.309-1.317 1.309zm5.638 0a1.312 1.312 0 01-1.318-1.309V6.201a1.318 1.318 0 012.635 0v6.095a1.318 1.318 0 01-1.317 1.309zm5.629 0a1.312 1.312 0 01-1.318-1.309V6.201a1.318 1.318 0 012.635 0v6.095c0 .726-.591 1.309-1.317 1.309zm-3.254 31.982c2.142-1.318 3.236-3.612 3.236-6.812 0-7.153-5.432-8.04-7.763-8.095l-.869-.009c-2.295.01-7.637.816-7.637 8.05 0 3.254 1.085 5.566 3.227 6.866l.627.385v1.417c0 .475.108.815.314.994.242.216.645.323 1.192.323h5.594c.376 0 .878-.054 1.156-.305.26-.233.314-.672.314-1.012v-1.417l.61-.385zm-4.464-17.524c1.721.036 10.326.735 10.326 10.703 0 4.67-1.972 7.233-3.854 8.614 0 1.568-.637 2.465-1.174 2.94-.717.654-1.703.986-2.931.986h-5.594c-1.228 0-2.223-.332-2.949-.995-.529-.466-1.183-1.363-1.183-2.922-1.882-1.372-3.854-3.944-3.854-8.677 0-10.111 8.542-10.658 10.254-10.667l.96.018zM30.81 41.239a1.317 1.317 0 01-1.864 0l-.772-.761-.762.761a1.317 1.317 0 01-1.864 0 1.304 1.304 0 010-1.846l.762-.762-.762-.762a1.304 1.304 0 010-1.846c.51-.511 1.344-.511 1.855 0l.762.762.771-.762c.511-.511 1.345-.511 1.856 0 .51.51.51 1.335 0 1.846l-.771.762.77.762c.53.51.53 1.336.019 1.846zm7.323-2.608l.77.762c.512.51.512 1.336 0 1.846a1.317 1.317 0 01-1.864 0l-.77-.761-.772.761a1.317 1.317 0 01-1.864 0 1.304 1.304 0 010-1.846l.77-.762-.77-.762a1.304 1.304 0 010-1.846c.511-.511 1.345-.511 1.856 0l.77.762.771-.762c.511-.511 1.345-.511 1.856 0 .51.51.51 1.335 0 1.846l-.753.762zm-4.06 4.49l.394.924c.287.663-.036 1.425-.7 1.712-.16.072-.34.099-.51.099-.475 0-.906-.278-1.139-.717-.233.43-.663.717-1.138.717-.17 0-.34-.036-.511-.099a1.308 1.308 0 01-.708-1.712l.394-.923a1.307 1.307 0 011.721-.7c.09.037.162.108.233.162.08-.054.144-.116.233-.161a1.329 1.329 0 011.73.699z" fill="#313235" fill-rule="nonzero"/></svg>