<svg width="24" height="24" viewBox="0 0 24 24" xmlns="http://www.w3.org/2000/svg"><path d="M11.331 22.645c1.741 0 2.834-.726 3.24-2.1H1.18c.148.504.383.93.723 1.257.584.558 1.438.843 2.54.843h6.888zM1.906 6.911c-.474.454-.76 1.086-.867 1.879h13.68c-.164-1.267-.786-2.1-1.855-2.48a1.494 1.494 0 01-.854.265H3.664c-.296 0-.568-.088-.8-.236-.367.142-.696.323-.958.572zm1.237-5.415v3.583a.52.52 0 00.52.518h8.347a.52.52 0 00.521-.518V1.496a.52.52 0 00-.52-.518H3.663a.52.52 0 00-.521.518zM.992 19.21c0 .128.016.235.023.356h13.718c.006-.12.027-.228.027-.356l.01-9.439H.992v9.44zm12.46-13.718c1.486.642 2.303 2.044 2.303 4.014l-.01 9.707c0 2.804-1.607 4.414-4.414 4.414H4.444c-1.368 0-2.454-.377-3.227-1.12-.804-.773-1.21-1.882-1.21-3.294V9.51c0-1.415.41-2.524 1.22-3.297.289-.276.639-.484 1.018-.66a1.438 1.438 0 01-.084-.466V1.503c0-.827.676-1.496 1.506-1.496h8.346c.83 0 1.506.672 1.506 1.496v3.583c-.003.138-.03.272-.067.406zM4.67 4.921a.492.492 0 01-.494-.49V2.144a.494.494 0 01.988 0V4.43c0 .273-.222.491-.494.491zm2.11 0a.492.492 0 01-.493-.49V2.144a.494.494 0 01.988 0V4.43c0 .273-.222.491-.494.491zm2.115 0a.492.492 0 01-.494-.49V2.144a.494.494 0 01.988 0V4.43a.494.494 0 01-.494.491zm2.111 0a.492.492 0 01-.494-.49V2.144a.494.494 0 01.988 0V4.43c0 .273-.222.491-.494.491zm-1.22 11.993c.803-.494 1.213-1.354 1.213-2.554 0-2.683-2.037-3.015-2.91-3.036l-.327-.003c-.86.003-2.864.306-2.864 3.018 0 1.22.407 2.088 1.21 2.575l.236.145v.53c0 .18.04.307.118.374.09.08.242.121.447.121h2.097c.141 0 .33-.02.434-.114.097-.088.117-.252.117-.38v-.531l.229-.145zM8.11 10.343c.645.013 3.872.275 3.872 4.013 0 1.752-.74 2.713-1.445 3.23 0 .589-.239.925-.44 1.103-.27.245-.64.37-1.1.37H6.901c-.46 0-.834-.125-1.106-.373-.198-.175-.444-.511-.444-1.096-.706-.514-1.445-1.48-1.445-3.254 0-3.791 3.203-3.997 3.845-4l.36.007zm-.676 4.941a.494.494 0 01-.7 0l-.288-.286-.286.286a.494.494 0 01-.7 0 .489.489 0 01.001-.692l.286-.286-.286-.286a.489.489 0 010-.692.493.493 0 01.696 0l.286.285.289-.285a.493.493 0 01.696 0c.191.191.191.5 0 .692l-.29.286.29.286c.198.191.198.5.006.692zm2.747-.978l.289.286a.489.489 0 01-.35.837.494.494 0 01-.35-.145l-.289-.286-.289.286a.494.494 0 01-.7 0 .489.489 0 01.001-.692l.29-.286-.29-.286a.489.489 0 010-.692.493.493 0 01.696 0l.289.285.29-.285a.493.493 0 01.695 0c.191.191.191.5 0 .692l-.282.286zM8.659 15.99l.148.346a.49.49 0 01-.454.68.487.487 0 01-.427-.27.494.494 0 01-.427.27.49.49 0 01-.457-.679l.148-.347a.49.49 0 01.645-.262c.034.013.06.04.088.06.03-.02.053-.043.087-.06a.498.498 0 01.649.262z" fill="#5CB615" fill-rule="nonzero"/></svg>