<?xml version="1.0" encoding="UTF-8"?>
<svg width="24px" height="24px" viewBox="0 0 24 24" version="1.1" xmlns="http://www.w3.org/2000/svg" xmlns:xlink="http://www.w3.org/1999/xlink">
    <title>1.Light/Ver _1Light</title>
    <g id="Symbols" stroke="none" stroke-width="1" fill="none" fill-rule="evenodd">
        <g id="1.Light/Ver-_1Light" fill="#5CB615" fill-rule="nonzero">
            <path d="M11.8453782,18.7882353 C16.5310924,18.7882353 21.3109244,13.7193277 22.4806723,12.394958 C21.307563,11.0705882 16.497479,5.99831933 11.8151261,5.99831933 C7.12941176,5.99831933 2.32605042,11.0672269 1.14957983,12.394958 C2.32941176,13.7159664 7.16302521,18.7882353 11.8453782,18.7882353 Z M23.512605,12.0789916 C23.6605042,12.2605042 23.6638655,12.5226891 23.5159664,12.7042017 C23.2806723,12.9932773 17.6739496,19.7731092 11.8453782,19.7731092 C6.02016807,19.7731092 0.352941176,12.9966387 0.114285714,12.707563 C-0.0369747899,12.5260504 -0.0369747899,12.2638655 0.114285714,12.0789916 C0.349579832,11.789916 5.98655462,5.00672269 11.8151261,5.00672269 C17.6369748,5.01008403 23.2739496,11.789916 23.512605,12.0789916 Z M11.9394958,9.45042017 C12.5378151,9.46386555 14.8537815,9.69915966 14.8537815,12.4957983 C14.8537815,15.2957983 12.5310924,15.5142857 11.9495798,15.5277311 C11.8655462,15.5277311 11.7647059,15.5310924 11.6705882,15.5277311 C11.0588235,15.5210084 8.76638655,15.2991597 8.76638655,12.4789916 C8.76638655,9.66218487 11.0386555,9.45378151 11.6470588,9.45042017 C11.7478992,9.44705882 11.8521008,9.44705882 11.9394958,9.45042017 L11.9394958,9.45042017 Z" id="Ver-_1Light"></path>
        </g>
    </g>
</svg>