<svg width="64" height="64" xmlns="http://www.w3.org/2000/svg"><path d="M31.588 50.102c12.495 0 25.241-13.517 28.36-17.049-3.128-3.531-15.955-17.057-28.441-17.057-12.495 0-25.304 13.517-28.441 17.057C6.212 36.576 19.1 50.102 31.588 50.102zM62.7 32.211c.395.484.404 1.183.01 1.667-.628.77-15.58 18.85-31.122 18.85C16.054 52.728.94 34.658.305 33.887a1.312 1.312 0 010-1.676c.627-.771 15.66-18.86 31.202-18.86 15.525.01 30.557 18.089 31.193 18.86zM31.84 25.2c1.595.036 7.771.663 7.771 8.121 0 7.467-6.194 8.05-7.744 8.085-.225 0-.493.01-.744 0-1.632-.018-7.745-.61-7.745-8.13 0-7.511 6.06-8.067 7.682-8.076.269-.009.547-.009.78 0z" fill="#313235" fill-rule="nonzero"/></svg>