<svg width="24" height="24" viewBox="0 0 24 24" xmlns="http://www.w3.org/2000/svg"><path d="M19.815 21.652c1.308-.044 2.777-.679 2.844-3.28h-2.854l.01 3.28zm-18.797-3.28c0 .315.05 1.536.824 2.37.5.537 1.254.826 2.222.88l-.01-3.247H1.018v-.004zM2.272 2.515C1.46 3.04 1.045 3.995 1.03 5.339h2.984L4 2.02c-.373.01-1.092.087-1.728.497zm20.4 2.827c.007-.148.04-1.5-.796-2.41-.481-.521-1.2-.81-2.121-.888l.01 3.298h2.907zm-2.88 9.022l.006 3.005h2.87V14.36c0 .004-2.876.004-2.876.004zm2.874-8.02h-2.901l.01 3.008h2.894l-.003-3.008zm-2.888 4.01l.01 3.008h2.88v-3.008h-2.89zM4.985 2.018l.06 19.624h13.782l-.06-19.63c-4.152 0-11.6.006-13.782.006zM1.022 17.37h3.025l-.01-3.009H1.022v3.009zm3.002-8.017l-.01-3.008H1.017v3.008h3.006zm-3.002 1.002v3.008h3.015l-.01-3.008H1.022zM19.284 1.01c4.713 0 4.366 4.44 4.366 4.44l.004 12.75c0 4.094-2.931 4.464-3.99 4.464-.235 0-.377-.02-.377-.02H4.38c-4.639 0-4.343-4.42-4.343-4.42v-12.8c0-4.125 3.187-4.414 4.09-4.414.152 0 .24.007.24.007S14.57 1.01 19.283 1.01zM8.897 15.37l6.01-3.533-6.01-3.533v7.066zm7.24-3.967a.503.503 0 010 .868l-7.485 4.403a.476.476 0 01-.49 0 .506.506 0 01-.246-.434V7.437c0-.178.094-.343.245-.434.152-.09.34-.09.491 0l7.486 4.4z" fill="#313235" fill-rule="nonzero"/></svg>