<svg width="64" height="64" viewBox="0 0 64 64" xmlns="http://www.w3.org/2000/svg"><path d="M44.558 20.311c.807 0 1.434.207 1.873.619.458.43.69 1.067.69 1.9 0 .825-.232 1.461-.69 1.892-.439.412-1.066.618-1.873.618-.807 0-1.434-.206-1.873-.618-.449-.43-.682-1.058-.682-1.892 0-.833.233-1.47.682-1.9.439-.412 1.066-.619 1.873-.619zm-5.172 5.02c.807 0 1.434.206 1.873.628.458.43.69 1.066.69 1.9 0 .824-.232 1.46-.69 1.891-.439.412-1.066.619-1.873.619-.807 0-1.434-.207-1.873-.619-.449-.43-.69-1.058-.69-1.891 0-.834.232-1.47.69-1.9.43-.413 1.057-.628 1.873-.628zm5.172 5.029c.807 0 1.434.206 1.873.618.458.43.69 1.067.69 1.9 0 .825-.232 1.461-.69 1.892-.439.412-1.066.618-1.873.618-.807 0-1.434-.206-1.873-.618-.449-.43-.682-1.058-.682-1.892 0-.824.233-1.47.682-1.9.439-.412 1.066-.618 1.873-.618zm5.18-5.029c.808 0 1.435.206 1.874.628.457.43.69 1.066.69 1.9 0 .824-.233 1.46-.69 1.891-.439.412-1.066.619-1.873.619-.816 0-1.434-.207-1.873-.619-.458-.43-.682-1.058-.682-1.891 0-.834.233-1.47.682-1.9.439-.413 1.066-.628 1.873-.628zm-26.657 3.612c.278-.268.323-.887.323-1.237 0-.34-.045-.968-.323-1.237-.206-.197-.654-.304-1.255-.304-.17 0-.206.018-.269.018h-.098c-.036 0-.072 0-.063-.01-.116.01-.224.019-.332.019-.286 0-.546-.054-.761-.189-.341-.215-.574-.591-.7-1.111-.053-.206-.053-.386-.053-.565 0-.036-.01-.072-.01-.098.01-.036.01-.063.01-.09.009-.09.026-.188.026-.242 0-.35-.044-.977-.322-1.246-.206-.197-.655-.305-1.255-.305-.592 0-1.03.108-1.237.305-.287.269-.323.896-.323 1.246 0 .206.027.367.054.538 0 .009 0 .018.009.027.009.062-.009.107 0 .17.036.44-.036.816-.242 1.102-.251.341-.663.547-1.22.628-.026.009-.053.009-.089.009-.071 0-.134-.01-.215-.01h-.009c-.09 0-.18.01-.26.01-.063 0-.116-.01-.179-.018h-.009c-.099-.009-.188-.036-.305-.036-.591 0-1.03.108-1.237.314-.278.269-.322.887-.322 1.237 0 .591.116 1.04.313 1.237.206.188.655.305 1.246.305.296 0 .296 0 .511-.036h.01c.044 0 .187-.018.232-.018h.01c.089-.01.187-.01.277-.01.287 0 .547.055.753.189.34.215.574.583.7 1.103.044.17.035.304.044.448 0 .053.009.098.009.143a3.378 3.378 0 00-.036.278c-.018.108-.045.233-.045.323 0 .591.117 1.048.314 1.237.206.188.654.295 1.237.295.592 0 1.049-.107 1.255-.304.278-.27.323-.888.323-1.237 0-.09-.045-.224-.054-.34a10.89 10.89 0 01-.027-.198c-.01-.08-.01-.161-.01-.251 0-.108-.026-.206-.017-.323.054-.529.242-.94.556-1.192.26-.215.618-.314 1.04-.314h.143c.027 0 .116.01.143.01h.01c.107.026.17.026.25.026h.233c.583.01 1.04-.107 1.246-.296zm-.887-5.36c1.147.054 2.052.404 2.707 1.022.753.717 1.13 1.757 1.13 3.101 0 1.354-.377 2.394-1.14 3.11-.636.601-1.514.942-2.688 1.005 0 1.353-.386 2.393-1.139 3.11-.717.672-1.756 1.022-3.074 1.022-1.318 0-2.34-.34-3.066-1.022-.708-.681-1.093-1.676-1.12-2.94-1.237-.036-2.214-.376-2.904-1.03-.744-.709-1.13-1.749-1.13-3.102 0-1.345.386-2.393 1.13-3.102.69-.654 1.667-1.003 2.904-1.04.027-1.263.403-2.25 1.12-2.93.726-.69 1.748-1.04 3.066-1.04 1.318 0 2.357.35 3.074 1.04.7.654 1.085 1.595 1.13 2.796zm37.468 23c.331-1.093.78-3.477.797-4.517.099-7.52-3.737-16.367-5.808-21.118-.305-.708-.583-1.327-.798-1.856l-.098-.25c-.135-.332-.26-.619-.359-.852a2.112 2.112 0 00-.116-.242l-.027-.054-.072-.143-.135-.242c-.376-.664-.78-1.21-1.228-1.64-1.667-1.596-4.14-2.394-7.34-2.394a14.26 14.26 0 00-3.676.475c-.385.108-1.47.547-2.034.798-.305.17-1.148.645-1.453.851a10.29 10.29 0 01-5.736 1.748A10.24 10.24 0 0125.85 15.4a36.378 36.378 0 00-1.461-.86c-.52-.233-1.64-.69-2.035-.798a14.143 14.143 0 00-3.666-.475c-3.209 0-5.674.807-7.341 2.393-.448.422-.852.977-1.282 1.74l-.098.188-.01.009-.071.152c-.027.054-.054.116-.117.242-.116.26-.25.583-.403.941l-.063.152c-.224.538-.493 1.157-.798 1.865-2.061 4.75-5.907 13.598-5.808 21.127.009 1.04.457 3.424.789 4.518.475 1.532 1.533 2.662 2.922 3.119.529.17 1.407.34 2.088.385.727 0 2.268-.35 2.985-.672.628-.278 1.22-.663 1.829-1.183.34-.296.493-.475 1.228-1.38l.305-.368c.197-.25.394-.502.582-.753.493-.645 1.058-1.38 1.766-2.052 2.151-2.044 4.885-3.541 8.14-4.455a23.111 23.111 0 016.229-.852c2.115 0 4.213.287 6.23.852 3.262.914 5.996 2.41 8.138 4.455.709.672 1.264 1.407 1.766 2.061.188.251.386.502.583.744l.296.368c.735.905.887 1.084 1.237 1.38.77.654 1.434.995 1.873 1.183.744.332 2.465.672 3.155.672.35 0 1.13-.134 1.883-.385 1.398-.466 2.465-1.604 2.94-3.128zm-3.38-28.486c1.793 4.303 6.93 14.817 6.804 24.005-.018 1.327-.52 3.962-.915 5.226-.78 2.536-2.599 4.168-4.598 4.822-.816.269-1.918.52-2.716.52-1.067 0-3.164-.421-4.24-.905a10.493 10.493 0 01-2.51-1.587c-.6-.52-.869-.86-1.855-2.088-.7-.86-1.318-1.802-2.124-2.573-1.856-1.775-4.222-3.039-7.028-3.818a20.857 20.857 0 00-5.512-.753c-1.865 0-3.72.25-5.513.753-2.806.788-5.163 2.043-7.027 3.818-.807.771-1.426 1.703-2.134 2.573-.995 1.219-1.255 1.568-1.855 2.088-1.004.852-1.856 1.309-2.465 1.587-.995.448-2.913.905-4.043.905h-.25c-.79-.072-1.901-.251-2.717-.52-1.99-.654-3.81-2.286-4.598-4.822-.385-1.264-.887-3.908-.905-5.226-.126-9.179 5.01-19.693 6.803-24.005.188-.457.35-.851.484-1.156.126-.287.18-.376.215-.448l.188-.359c.484-.86 1.04-1.658 1.757-2.33 2.17-2.07 5.262-3.12 9.17-3.12 1.605 0 3.03.225 4.356.574.78.206 2.51.968 2.546.986 0 0 1.327.744 1.739 1.031a7.599 7.599 0 004.24 1.29c1.479 0 2.967-.43 4.24-1.29.42-.287 1.747-1.03 1.747-1.03.027-.019 1.757-.78 2.537-.987a16.855 16.855 0 014.356-.573c3.909 0 6.992 1.048 9.17 3.119.7.672 1.264 1.47 1.748 2.33l.18.359c.035.072.089.161.214.448.162.305.323.708.511 1.156z" fill="#313235" fill-rule="nonzero"/></svg>