<svg width="64" height="64" viewBox="0 0 64 64" xmlns="http://www.w3.org/2000/svg"><path d="M52.84 57.739c3.487-.117 7.404-1.81 7.584-8.749h-7.61l.026 8.749zM2.716 48.99c0 .843.134 4.097 2.196 6.32 1.336 1.434 3.343 2.205 5.925 2.348L10.81 49H2.716v-.009zM6.059 6.71c-2.169 1.398-3.271 3.943-3.316 7.529h7.96l-.036-8.856c-.995.027-2.913.233-4.608 1.326zm54.4 7.538c.018-.395.108-3.998-2.124-6.427-1.282-1.39-3.2-2.16-5.656-2.367l.027 8.794h7.753zm-7.681 24.058l.018 8.013h7.654v-8.022c0 .009-7.672.009-7.672.009zm7.663-21.387h-7.735l.027 8.022h7.717l-.009-8.022zm-7.7 10.693l.028 8.023h7.681v-8.023h-7.708zM13.294 5.382l.161 52.33h36.751l-.161-52.347c-11.07 0-30.934.018-36.751.018zM2.725 46.32h8.067l-.027-8.022h-8.04v8.022zm8.004-21.378l-.026-8.022H2.716v8.022h8.013zm-8.004 2.671v8.023h8.04l-.027-8.023H2.725zm48.7-24.918c12.566 0 11.643 11.84 11.643 11.84l.009 34c0 10.917-7.816 11.903-10.64 11.903-.627 0-1.004-.054-1.004-.054H11.68C-.69 60.383.099 48.596.099 48.596V14.463c0-10.999 8.497-11.77 10.908-11.77.404 0 .637.018.637.018s27.213-.017 39.78-.017zM23.726 40.986l16.027-9.42-16.027-9.421v18.841zm19.307-10.577c.637.376.852 1.201.466 1.846-.116.189-.278.35-.466.467L23.072 44.464a1.27 1.27 0 01-1.308 0 1.35 1.35 0 01-.655-1.156V19.832c0-.475.251-.914.655-1.156a1.27 1.27 0 011.308 0l19.962 11.733z" fill="#313235" fill-rule="nonzero"/></svg>