<svg width="24" height="24" viewBox="0 0 24 24" xmlns="http://www.w3.org/2000/svg"><path d="M22.097 19.758a.52.52 0 00.521-.514v-7.362H.998v7.358c0 .286.232.515.521.515h20.578v.003zM1.516 4.975a.52.52 0 00-.521.514v1.718h21.62V5.489a.516.516 0 00-.52-.514H1.515zm-.518 5.93h21.624v-2.72H.998v2.72zm22.626-3.208v3.698c0 .037-.014.067-.02.097v7.748a1.5 1.5 0 01-1.503 1.493H1.516c-.83 0-1.503-.67-1.503-1.493v-7.785c-.003-.02-.013-.04-.013-.06V7.697c0-.02.01-.04.013-.06V5.492A1.5 1.5 0 011.516 4h20.581c.83 0 1.503.669 1.503 1.492V7.6c.01.03.024.064.024.097zM18.76 17.46c.591-.01 1.586-.242 1.586-1.657 0-1.419-1.001-1.657-1.6-1.67l-.191-.004c-.175.003-.706.057-1.096.406.165.347.265.763.265 1.268 0 .497-.097.907-.255 1.25.393.346.931.407 1.106.41l.185-.003zm-3.61 0c.591-.01 1.586-.242 1.586-1.657 0-1.419-1.002-1.657-1.6-1.67l-.191-.004c-.585.006-1.567.228-1.567 1.657 0 1.435.995 1.664 1.587 1.674h.185zm3.616-4.306c1.187.03 2.565.74 2.565 2.645 0 1.91-1.375 2.612-2.555 2.636h-.215c-.34-.007-1.089-.088-1.7-.592-.488.403-1.113.582-1.695.592h-.215c-1.18-.02-2.558-.723-2.558-2.65 0-1.929 1.372-2.624 2.545-2.634l.218.003c.578.013 1.2.195 1.688.592.608-.511 1.361-.592 1.704-.595l.218.003z" fill="#313235" fill-rule="nonzero"/></svg>