<svg width="64" height="64" xmlns="http://www.w3.org/2000/svg"><path d="M58.98 52.773c.762 0 1.39-.6 1.39-1.344V20.943H2.626V51.43c0 .744.619 1.344 1.39 1.344H58.98zM4.016 10.626c-.762 0-1.39.61-1.39 1.345v6.427H60.37V11.97c0-.744-.619-1.345-1.39-1.345H4.016zM58.98 8.081c2.214 0 4.016 1.748 4.016 3.89v39.467c0 2.142-1.802 3.89-4.016 3.89H4.016C1.802 55.328 0 53.58 0 51.438V11.97c0-2.142 1.802-3.89 4.016-3.89H58.98zM14.11 27.075l8.91 7.834c.268.242.43.582.43.94 0 .36-.153.7-.422.942l-8.91 7.978c-.25.224-.573.34-.896.34-.358 0-.708-.134-.968-.403a1.251 1.251 0 01.072-1.802l7.852-7.036-7.843-6.902a1.245 1.245 0 01-.09-1.802 1.362 1.362 0 011.865-.09zm35.334 7.574c.726 0 1.318.573 1.318 1.273 0 .699-.592 1.272-1.318 1.272H28.325c-.726 0-1.318-.573-1.318-1.272 0-.7.583-1.273 1.318-1.273h21.118zM13.41 16.47c-1.013 0-1.829-.798-1.829-1.766 0-.977.816-1.775 1.829-1.775 1.012 0 1.828.789 1.828 1.775 0 .968-.816 1.766-1.828 1.766zm5.485 0c-1.013 0-1.828-.798-1.828-1.766 0-.977.815-1.775 1.828-1.775 1.013 0 1.82.789 1.82 1.775 0 .968-.807 1.766-1.82 1.766zm-10.962 0c-1.013 0-1.829-.798-1.829-1.766 0-.977.816-1.775 1.829-1.775s1.828.789 1.828 1.775c0 .968-.815 1.766-1.828 1.766z" fill="#313235" fill-rule="nonzero"/></svg>