<svg width="64" height="64" viewBox="0 0 64 64" xmlns="http://www.w3.org/2000/svg"><path d="M60.627 31.662c.143-.328.385-1.175-.422-1.976L33.781 3.303c-.448-.446-1.094-.7-1.766-.7-.681 0-1.327.254-1.775.7L3.807 29.686c-.807.801-.565 1.648-.422 1.976.27.637.995 1.32 2.196 1.32h3.317c.753 0 1.362.601 1.362 1.34v25.015c0 1.102 1.05 1.995 2.33 1.995h38.446c1.29 0 2.34-.893 2.34-1.995V34.321c0-.738.609-1.339 1.362-1.339h3.693c1.2 0 1.927-.683 2.196-1.32zm1.524-3.852c1.335 1.33 1.712 3.205.995 4.89-.771 1.794-2.618 2.95-4.715 2.95h-2.322v23.678c0 2.577-2.268 4.672-5.064 4.672H12.59c-2.788 0-5.065-2.095-5.065-4.672V35.651H5.572c-2.097 0-3.935-1.157-4.714-2.95-.718-1.686-.341-3.553.995-4.882L28.277 1.427c1.918-1.903 5.53-1.903 7.44 0L62.15 27.81zM31.889 51.67c1.766-.037 1.766-1.175 1.766-1.612 0-.392 0-1.585-1.56-1.621h-.241c-1.506.018-1.506 1.174-1.506 1.602.009.447.009 1.612 1.541 1.63zm.287-5.902c2.089.046 4.213 1.394 4.213 4.29 0 2.905-2.115 4.243-4.213 4.28h-.304c-2.116-.028-4.24-1.366-4.24-4.299 0-2.932 2.115-4.262 4.204-4.28h.018l.322.01zm-.34-23.459c.394-.036 11.267-.573 18.59 7.459a1.313 1.313 0 01-.107 1.885c-.26.227-.583.337-.915.337a1.41 1.41 0 01-1.022-.446c-6.453-7.067-16.34-6.557-16.457-6.566-10.622.118-16.26 6.083-16.313 6.138a1.38 1.38 0 01-1.928.09 1.32 1.32 0 01-.098-1.885c.269-.282 6.516-6.893 18.25-7.012zm.009 7.814c.331-.018 8.954-.3 14.449 5.71a1.313 1.313 0 01-.108 1.885 1.39 1.39 0 01-1.927-.11c-4.625-5.063-12.262-4.853-12.343-4.817-7.646.082-12.127 4.863-12.172 4.909a1.39 1.39 0 01-1.013.446c-.323 0-.654-.11-.914-.346a1.313 1.313 0 01-.108-1.885c.224-.228 5.351-5.701 14.136-5.792zm.053 7.986c.207-.009 5.88-.209 9.52 3.78a1.313 1.313 0 01-.108 1.885 1.39 1.39 0 01-1.927-.11c-2.76-3.014-7.395-2.886-7.413-2.886-4.58.054-7.323 2.923-7.35 2.95a1.366 1.366 0 01-1.013.437c-.332 0-.654-.118-.914-.346a1.32 1.32 0 01-.099-1.885c.144-.145 3.532-3.76 9.304-3.825z" fill="#313235" fill-rule="nonzero"/></svg>