<svg width="24" height="24" fill="none" xmlns="http://www.w3.org/2000/svg"><mask id="a" style="mask-type:alpha" maskUnits="userSpaceOnUse" x="3" y="4" width="19" height="18"><path fill-rule="evenodd" clip-rule="evenodd" d="M3 4.85h18.302v17.11H3V4.85Z" fill="#fff"/></mask><g mask="url(#a)"><path fill-rule="evenodd" clip-rule="evenodd" d="m17.197 5.234-.561-.384-.768 1.122.56.384c2.168 1.485 3.514 3.953 3.514 6.44 0 4.158-3.646 7.804-7.803 7.804s-7.803-3.646-7.803-7.803c0-2.485 1.344-4.951 3.508-6.436l.56-.385-.77-1.122-.56.385c-2.566 1.762-4.098 4.587-4.098 7.558 0 4.881 4.282 9.163 9.163 9.163s9.163-4.282 9.163-9.163c0-2.975-1.534-5.802-4.105-7.563Z" fill="#1E6CA7"/></g><path fill-rule="evenodd" clip-rule="evenodd" d="M12.14 13.477a.68.68 0 0 0 .68-.68V2h-1.36v10.797c0 .375.304.68.68.68Z" fill="#1E6CA7"/></svg>