<?xml version="1.0" encoding="UTF-8"?>
<svg width="24px" height="24px" viewBox="0 0 24 24" version="1.1" xmlns="http://www.w3.org/2000/svg" xmlns:xlink="http://www.w3.org/1999/xlink">
    <title>2. Regular/Agenda_2Regular</title>
    <g id="Symbols" stroke="none" stroke-width="1" fill="none" fill-rule="evenodd">
        <g id="2.-Regular/Agenda_2Regular" fill="#5CB615" fill-rule="nonzero">
            <path d="M16.9394958,0.0201680672 C18.7478992,0.0201680672 20.2235294,1.49243697 20.2235294,3.30420168 L20.2235294,20.302521 C20.2235294,22.1109244 18.7512605,23.5831933 16.9394958,23.5831933 L6.49915966,23.5831933 C4.5697479,23.5831933 3.00336134,22.0134454 3.00336134,20.087395 L3.00336134,3.19663866 C3.00336134,2.34957983 3.33277311,1.55294118 3.93109244,0.951260504 C4.52941176,0.349579832 5.32605042,0.0201680672 6.17647059,0.0201680672 L16.9394958,0.0201680672 Z M16.9529705,1.39162288 L6.17647059,1.39159664 C5.69579832,1.39159664 5.24201681,1.57983193 4.90252101,1.91932773 C4.56302521,2.25882353 4.37478992,2.71260504 4.37478992,3.19663866 L4.37478992,20.087395 C4.37478992,21.2605042 5.32941176,22.2151261 6.50252101,22.2151261 L16.9523613,22.2141681 L16.9529705,1.39162288 L16.9529705,1.39162288 Z M18.8553613,15.9891681 L18.3243613,15.9891681 L18.3250904,21.623808 C18.6535667,21.2803018 18.8554622,20.8147679 18.8554622,20.302521 L18.8553613,15.9891681 Z M12.1361345,12.410084 C13.8638655,12.410084 14.9831933,13.589916 14.9831933,15.4151261 L14.9831933,16.4806723 C14.9798319,16.8168067 14.707563,17.0890756 14.3714286,17.0890756 L7.08403361,17.0890756 C6.74789916,17.0890756 6.47563025,16.8168067 6.47563025,16.4806723 L6.47563025,15.4151261 C6.47563025,13.589916 7.59159664,12.410084 9.32268908,12.410084 L12.1361345,12.410084 Z M12.1327731,13.6268908 L9.31932773,13.6268908 C7.90084034,13.6268908 7.68907563,14.7462185 7.68907563,15.4151261 L7.68907563,15.8722689 L13.7630252,15.8722689 L13.7630252,15.4151261 C13.7630252,14.7462185 13.5512605,13.6268908 12.1327731,13.6268908 Z M18.8553613,8.98816807 L18.3243613,8.98816807 L18.3243613,14.6181681 L18.8553613,14.6181681 L18.8553613,8.98816807 Z M10.7176471,5.89915966 C12.5731092,5.89915966 13.6352941,6.96134454 13.6352941,8.81680672 C13.6352941,10.6655462 12.5731092,11.7277311 10.7176471,11.7277311 C8.86890756,11.7277311 7.80672269,10.6655462 7.80672269,8.81680672 C7.80672269,6.96134454 8.86890756,5.89915966 10.7176471,5.89915966 Z M10.7176471,7.21008403 C9.59831933,7.21008403 9.11764706,7.6907563 9.11764706,8.81680672 C9.11764706,9.93613445 9.59495798,10.4168067 10.7176471,10.4168067 C11.8436975,10.4168067 12.3243697,9.9394958 12.3243697,8.81680672 C12.3243697,7.6907563 11.8436975,7.21008403 10.7176471,7.21008403 Z M18.3250904,1.98291472 L18.3243613,7.61616807 L18.8553613,7.61616807 L18.8554622,3.30420168 C18.8554622,2.79195476 18.6535667,2.32642091 18.3250904,1.98291472 Z" id="Agenda_2Regular"></path>
        </g>
    </g>
</svg>