<?xml version="1.0" encoding="UTF-8"?>
<svg width="24px" height="24px" viewBox="0 0 24 24" version="1.1" xmlns="http://www.w3.org/2000/svg" xmlns:xlink="http://www.w3.org/1999/xlink">
    <title>2. Regular/Añadir_2Regular</title>
    <g id="Symbols" stroke="none" stroke-width="1" fill="none" fill-rule="evenodd">
        <g id="2.-Regular/Añadir_2Regular" fill="#5CB615" fill-rule="nonzero">
            <path d="M22.5344538,10.6621849 L12.9613445,10.6621849 L12.9613445,1.08907563 C12.9277311,0.453781513 12.3831933,-0.0302521008 11.7512605,0.00336134454 C11.1663866,0.0336134454 10.6957983,0.504201681 10.6655462,1.08907563 L10.6655462,10.6655462 L1.08907563,10.6655462 C0.453781513,10.6991597 -0.0302521008,11.2436975 0.00336134454,11.8756303 C0.0336134454,12.4605042 0.504201681,12.9310924 1.08907563,12.9613445 L10.6655462,12.9613445 L10.6655462,22.5378151 C10.6991597,23.1731092 11.2436975,23.6571429 11.8756303,23.6235294 C12.4605042,23.5932773 12.9310924,23.1226891 12.9613445,22.5378151 L12.9613445,12.9613445 L22.5378151,12.9613445 C23.1731092,12.9277311 23.6571429,12.3831933 23.6235294,11.7512605 C23.589916,11.1630252 23.1226891,10.6957983 22.5344538,10.6621849" id="Path"></path>
        </g>
    </g>
</svg>