<?xml version="1.0" encoding="UTF-8"?>
<svg width="24px" height="24px" viewBox="0 0 24 24" version="1.1" xmlns="http://www.w3.org/2000/svg" xmlns:xlink="http://www.w3.org/1999/xlink">
    <title>2. Regular/Buscar_2Regular</title>
    <g id="Symbols" stroke="none" stroke-width="1" fill="none" fill-rule="evenodd">
        <g id="2.-Regular/Buscar_2Regular" fill="#5CB615" fill-rule="nonzero">
            <path d="M16.1008403,2.86722689 C19.4789747,6.35454048 19.6299151,11.8020983 16.5536616,15.4645855 L23.3983193,22.3092437 C23.6605042,22.5714286 23.6605042,22.9983193 23.3983193,23.2605042 C23.2672269,23.3882353 23.0991597,23.4588235 22.9210084,23.4588235 C22.7428571,23.4588235 22.5714286,23.3882353 22.4470588,23.2605042 L15.611504,16.4245295 C13.9083766,17.9083833 11.7186511,18.7321726 9.44537815,18.7260843 C4.24537815,18.7260843 0.0302521008,14.5109244 0.0302521008,9.31092437 C0.0302521008,6.81344538 1.02184874,4.42016807 2.78655462,2.65210084 C6.52436975,-0.964705882 12.4840336,-0.867226891 16.1008403,2.86722689 Z M9.44537815,1.24029658 C4.98823529,1.24029658 1.37478992,4.85378151 1.37478992,9.31092437 C1.37478992,11.4521008 2.22521008,13.502521 3.73781513,15.0184874 C6.90084034,18.1579832 12.0134454,18.1378151 15.1529412,14.9747899 C18.2756303,11.8285714 18.2756303,6.75294118 15.1529412,3.60672269 C13.6403361,2.08403361 11.5865546,1.23361345 9.44537815,1.24029658 Z" id="Buscar_2Regular"></path>
        </g>
    </g>
</svg>