<?xml version="1.0" encoding="UTF-8"?>
<svg width="24px" height="24px" viewBox="0 0 24 24" version="1.1" xmlns="http://www.w3.org/2000/svg" xmlns:xlink="http://www.w3.org/1999/xlink">
    <title>2. Regular/Calendario_2Regular</title>
    <defs>
        <filter id="filter-1">
            <feColorMatrix in="SourceGraphic" type="matrix" values="0 0 0 0 0.360784 0 0 0 0 0.713725 0 0 0 0 0.082353 0 0 0 1.000000 0"></feColorMatrix>
        </filter>
    </defs>
    <g id="Symbols" stroke="none" stroke-width="1" fill="none" fill-rule="evenodd">
        <g id="Calendario_2Regular" filter="url(#filter-1)">
            <g transform="translate(0.000000, 2.000000)">
                <path d="M20.4739496,0.0168067227 C22.1882353,0.0168067227 23.5865546,1.41176471 23.5865546,3.12941176 L23.5865546,16.507563 C23.5865546,18.2756303 22.1445378,19.7176471 20.3764706,19.7176471 L3.12268908,19.7176471 C1.40840336,19.7176471 0.0100840336,18.3226891 0.0100840336,16.605042 L0.0100840336,3.12941176 C0.0100840336,1.41512605 1.40504202,0.0168067227 3.12268908,0.0168067227 L20.4739496,0.0168067227 Z M22.295084,5.92580672 L1.30008403,5.92580672 L1.30084034,16.605042 C1.30084034,17.610084 2.11764706,18.4268908 3.12268908,18.4268908 L20.3764706,18.4268908 C21.4352941,18.4268908 22.2957983,17.5663866 22.2957983,16.507563 L22.295084,5.92580672 Z M11.287395,8.51092437 C12.2655462,8.51092437 12.9781513,8.73277311 13.4218487,9.17647059 C13.7613445,9.51596639 13.9327731,9.97983193 13.9327731,10.5613445 C13.9327731,10.9983193 13.8218487,11.4184874 13.6,11.8184874 C13.3781513,12.2184874 12.9815126,12.7294118 12.4134454,13.3546218 L11.1731092,14.7092437 L14.0504202,14.7092437 L14.0504202,15.7714286 L9.50588235,15.7714286 C9.4789916,15.7008403 9.46554622,15.589916 9.46554622,15.4453782 C9.46554622,15.2302521 9.49579832,15.0386555 9.55966387,14.8705882 C9.62352941,14.702521 9.73109244,14.5310924 9.88235294,14.3495798 L11.2672269,12.6621849 C11.697479,12.1411765 11.9932773,11.7445378 12.1512605,11.4689076 C12.312605,11.1932773 12.389916,10.9176471 12.389916,10.6420168 C12.389916,10.3361345 12.2957983,10.107563 12.107563,9.95294118 C11.8991597,9.77142857 11.5394958,9.68067227 11.0252101,9.68067227 C10.5815126,9.68067227 10.1142857,9.72436975 9.6302521,9.81512605 L9.6302521,8.7092437 C9.85210084,8.65210084 10.1142857,8.60840336 10.4168067,8.56806723 C10.7193277,8.53109244 11.0084034,8.51092437 11.287395,8.51092437 Z M20.4739496,1.30756303 L3.12268908,1.30756303 C2.11764706,1.30756303 1.30084034,2.12436975 1.30084034,3.12941176 L1.30008403,4.63780672 L22.295084,4.63780672 L22.2957983,3.12941176 C22.2957983,2.12436975 21.4789916,1.30756303 20.4739496,1.30756303 Z M6.55462185,2.01680672 C7.13613445,2.01680672 7.52941176,2.41008403 7.52941176,2.99495798 C7.52941176,3.3512605 7.38823529,3.57310924 7.26722689,3.69411765 C7.14621849,3.81848739 6.9210084,3.9697479 6.55462185,3.9697479 C6.18823529,3.9697479 5.96302521,3.81848739 5.84201681,3.69411765 C5.72436975,3.57310924 5.57983193,3.3512605 5.57983193,2.99495798 C5.57983193,2.41008403 5.97310924,2.01680672 6.55462185,2.01680672 Z M17.0588235,2.01680672 C17.4084034,2.01680672 17.6268908,2.15462185 17.7478992,2.26890756 C17.8789916,2.39327731 18.0336134,2.61848739 18.0336134,2.99159664 C18.0336134,3.34789916 17.892437,3.5697479 17.7714286,3.6907563 C17.6504202,3.81848739 17.4252101,3.9697479 17.0588235,3.9697479 C16.692437,3.9697479 16.4672269,3.81848739 16.3462185,3.69411765 C16.2285714,3.57310924 16.0840336,3.3512605 16.0840336,2.99495798 C16.0840336,2.41008403 16.4773109,2.01680672 17.0588235,2.01680672 Z" fill="#313235" fill-rule="nonzero"></path>
            </g>
        </g>
    </g>
</svg>