<?xml version="1.0" encoding="UTF-8"?>
<svg width="24px" height="24px" viewBox="0 0 24 24" version="1.1" xmlns="http://www.w3.org/2000/svg" xmlns:xlink="http://www.w3.org/1999/xlink">
    <title>2. Regular/Chip_Sim card_2Regular</title>
    <g id="Symbols" stroke="none" stroke-width="1" fill="none" fill-rule="evenodd">
        <g id="2.-Regular/Chip_Sim-card_2Regular" fill="#5CB615" fill-rule="nonzero">
            <path d="M17.7815126,1.24344979e-13 C18.3596639,1.24344979e-13 19.1731092,0.127731092 19.7579832,0.746218487 C20.1915966,1.20672269 20.4201681,1.85882353 20.4201681,2.63865546 L20.4201681,20.9714286 C20.4201681,21.7512605 20.1915966,22.4033613 19.7579832,22.8638655 C19.4352941,23.2033613 18.8302521,23.610084 17.7815126,23.610084 L6.6487395,23.610084 C6.07058824,23.610084 5.25714286,23.4823529 4.67226891,22.8638655 C4.23865546,22.4033613 4.01008403,21.7512605 4.01008403,20.9714286 L4.01008403,4.92436975 C4.01008403,4.73613445 4.08739496,4.55798319 4.22521008,4.4302521 L8.81008403,0.178151261 C8.93445378,0.0638655462 9.09915966,1.24344979e-13 9.26722689,1.24344979e-13 L17.7815126,1.24344979e-13 Z M17.7815126,1.34453782 L9.53277311,1.34453782 L5.35462185,5.21680672 L5.35462185,20.9714286 C5.35462185,21.8655462 5.75462185,22.2655462 6.6487395,22.2655462 L17.7815126,22.2655462 C18.6756303,22.2655462 19.0756303,21.8655462 19.0756303,20.9714286 L19.0756303,2.63865546 C19.0756303,1.74453782 18.6756303,1.34453782 17.7815126,1.34453782 Z M17.1294118,8.99495798 C17.4991597,8.99495798 17.8016807,9.29747899 17.8016807,9.66722689 L17.8016807,20 C17.8016807,20.3697479 17.502521,20.6722689 17.1294118,20.6722689 L7.29747899,20.6722689 C6.92773109,20.6722689 6.62521008,20.3697479 6.62521008,20 L6.62521008,9.66722689 C6.62521008,9.29747899 6.92773109,8.99495798 7.29747899,8.99495798 L17.1294118,8.99495798 Z M9.89508403,17.394 L7.96908403,17.394 L7.9697479,19.3277311 L9.89508403,19.327 L9.89508403,17.394 Z M13.173084,17.394 L11.240084,17.394 L11.240084,19.327 L13.173084,19.327 L13.173084,17.394 Z M16.457084,17.394 L14.517084,17.394 L14.517084,19.327 L16.4571429,19.3277311 L16.457084,17.394 Z M16.457084,13.616 L7.96908403,13.616 L7.96908403,16.05 L16.457084,16.05 L16.457084,13.616 Z M9.89508403,10.339 L7.9697479,10.3394958 L7.96908403,12.272 L9.89508403,12.272 L9.89508403,10.339 Z M13.173084,10.339 L11.240084,10.339 L11.240084,12.272 L13.173084,12.272 L13.173084,10.339 Z M16.4571429,10.3394958 L14.517084,10.339 L14.517084,12.272 L16.457084,12.272 L16.4571429,10.3394958 Z" id="Chip_Sim-card_2Regular"></path>
        </g>
    </g>
</svg>