<?xml version="1.0" encoding="UTF-8"?>
<svg width="24px" height="24px" viewBox="0 0 24 24" version="1.1" xmlns="http://www.w3.org/2000/svg" xmlns:xlink="http://www.w3.org/1999/xlink">
    <title>2. Regular/Play_2Regular</title>
    <g id="Symbols" stroke="none" stroke-width="1" fill="none" fill-rule="evenodd">
        <g id="2.-Regular/Play_2Regular" fill="#5CB615" fill-rule="nonzero">
            <path d="M11.794958,-5.32907052e-14 C15.5428571,-5.32907052e-14 18.4571429,0.978151261 20.4605042,2.90756303 C22.5411765,4.91092437 23.5932773,7.90252101 23.5932773,11.7983193 C23.5932773,15.6941176 22.5378151,18.6823529 20.4605042,20.6857143 C18.4571429,22.6151261 15.5428571,23.5932773 11.794958,23.5932773 C8.04705882,23.5932773 5.13277311,22.6151261 3.13277311,20.6857143 C1.05546218,18.6857143 0.00336134453,15.697479 0.00336134453,11.8016807 C0.00336134453,7.90588235 1.05546218,4.91428571 3.13277311,2.91092437 C5.13277311,0.981512605 8.05042017,-5.32907052e-14 11.794958,-5.32907052e-14 Z M11.794958,1.30756303 C4.83697479,1.30756303 1.30756303,4.83697479 1.30756303,11.8016807 C1.30756303,18.7596639 4.83697479,22.2890756 11.794958,22.2890756 C18.7563025,22.2890756 22.2890756,18.7596639 22.2890756,11.8016807 C22.2890756,4.84033613 18.7563025,1.30756303 11.794958,1.30756303 Z M8.72605042,6.66218487 L16.7092437,11.2705882 C16.8907563,11.3747899 17.0016807,11.5663866 17.0016807,11.7747899 C17.0016807,11.9831933 16.8907563,12.1747899 16.7092437,12.2789916 L8.72605042,16.8907563 C8.63529412,16.9411765 8.53445378,16.9680672 8.43697479,16.9680672 C8.33613445,16.9680672 8.23529412,16.9411765 8.14453782,16.8907563 C7.96302521,16.7865546 7.85210084,16.594958 7.85210084,16.3865546 L7.85210084,7.16638655 C7.85210084,6.95798319 7.96302521,6.76638655 8.14453782,6.66218487 C8.32605042,6.55798319 8.54789916,6.55798319 8.72605042,6.66218487 Z M9.01848739,8.17478992 L9.01848739,15.3747899 L15.2537815,11.7747899 L9.01848739,8.17478992 Z" id="Play_2Regular"></path>
        </g>
    </g>
</svg>