<?xml version="1.0" encoding="UTF-8"?>
<svg width="24px" height="24px" viewBox="0 0 24 24" version="1.1" xmlns="http://www.w3.org/2000/svg" xmlns:xlink="http://www.w3.org/1999/xlink">
    <title>2. Regular/TV_Contenidos audiovisuales_2Regular</title>
    <g id="Symbols" stroke="none" stroke-width="1" fill="none" fill-rule="evenodd">
        <g id="2.-Regular/TV_Contenidos-audiovisuales_2Regular" fill="#5CB615" fill-rule="nonzero">
            <path d="M19.4957983,18.4420168 L4.13109244,18.4319328 C2.78655462,18.4319328 1.74453782,18.0588235 1.03529412,17.3193277 C0.346218487,16.610084 0,15.594958 0,14.3042017 L0,7.10756303 C0,4.46554622 1.46554622,3.01344538 4.12773109,3.01344538 L19.4957983,3.02352941 C22.1579832,3.02352941 23.6235294,4.4789916 23.6235294,7.11764706 L23.6235294,14.3142857 C23.6235294,15.605042 23.2773109,16.6201681 22.5915966,17.3294118 C21.8789916,18.0689076 20.8369748,18.4420168 19.4957983,18.4420168 L19.4957983,18.4420168 Z M4.12773109,4.35798319 C3.15966387,4.35798319 2.44033613,4.58991597 1.99327731,5.04705882 C1.56302521,5.48739496 1.34453782,6.17983193 1.34453782,7.10756303 L1.34453782,14.3042017 C1.34453782,16.2033613 2.22857143,17.087395 4.12773109,17.087395 L19.492437,17.097479 C21.3915966,17.097479 22.2756303,16.2134454 22.2756303,14.3142857 L22.2756303,7.11764706 C22.2756303,6.18991597 22.0571429,5.49747899 21.6235294,5.05714286 C21.1764706,4.6 20.4605042,4.36806723 19.4890756,4.36806723 L4.12773109,4.35798319 Z M14.7563025,21.097479 L8.85714286,21.087395 C8.48739496,21.087395 8.18487395,20.7848739 8.18487395,20.4151261 C8.18487395,20.0453782 8.48739496,19.7428571 8.85714286,19.7428571 L14.7563025,19.7529412 C15.1260504,19.7529412 15.4285714,20.0554622 15.4285714,20.4252101 C15.4285714,20.794958 15.1260504,21.097479 14.7563025,21.097479 Z" id="TV_Contenidos-audiovisuales_2Regular"></path>
        </g>
    </g>
</svg>