<svg width="24" height="24" viewBox="0 0 24 24" xmlns="http://www.w3.org/2000/svg"><path d="M17.292 19.99h-.006c-.239.003-.521-.084-.817-.276a2.482 2.482 0 01-.182-.127.755.755 0 00-1.042.114.71.71 0 00.101 1.002c.007.003.01.01.017.013.084.067.182.134.29.205.184.118.369.208.55.286-.38.645-1.015.968-1.94.968-1.139 0-1.582-1.163-1.68-1.476a41.74 41.74 0 000-1.126v-1.391h1.483c.248.393.689.655 1.196.655.78 0 1.412-.619 1.412-1.382 0-.763-.635-1.381-1.412-1.381-.507 0-.948.265-1.196.655H12.58V9.324h1.049v2.347a1.377 1.377 0 00-.589 1.116c0 .76.636 1.381 1.412 1.381.504 0 .945-.262 1.193-.652l2.696-.007v1.5a1.369 1.369 0 00-.675 1.17c0 .759.631 1.38 1.415 1.38.776 0 1.411-.618 1.411-1.38 0-.492-.268-.922-.668-1.167v-2.229a.715.715 0 00-.216-.51.763.763 0 00-.524-.212l-3.429.006a1.376 1.376 0 00-.544-.494V9.324h2.622a.73.73 0 00.74-.722V6.83c.403-.242.675-.672.675-1.17 0-.763-.635-1.381-1.412-1.381-.776 0-1.412.618-1.412 1.382 0 .49.27.924.67 1.166v1.049h-4.418V4.05c0-.211.007-.984.01-1.294.135-.312.64-1.307 1.675-1.307.92 0 1.56.322 1.939.968-.827.356-1.378 1.072-1.634 1.778l-.077.225a.72.72 0 00.49.904c.387.121.8-.09.925-.477l.06-.178c.115-.316.498-1.072 1.322-1.045h.003c3.61 0 3.893 3.442 3.893 4.497 0 .387-.054 1.553-.569 2.598a4.681 4.681 0 00-2.107-.74.735.735 0 00-.817.64c-.044.4.249.756.645.8h.007c.793.084 1.425.373 1.886.853.884 1.153.955 2.76.955 3.227.003 1.049-.28 4.434-3.89 4.49m-7.879 2.19c-.904 0-1.54-.307-1.922-.929.218-.084.437-.188.655-.326a.717.717 0 00.225-.985l-.01-.016a.75.75 0 00-1.025-.209c-.302.195-.568.283-.823.28-.037-.004-.068.01-.101.01-.01 0-.017-.004-.027-.004-3.61 0-3.893-3.442-3.893-4.497 0-.38.054-1.506.538-2.538.047.753.575 1.29 1.21 1.532.01.004.121.044.131.044a.735.735 0 00.226.037c.292 0 .548-.198.658-.49.138-.37-.1-.797-.477-.942a.419.419 0 01-.222-.164c.481-.02.921-.128 1.288-.343a.714.714 0 00.259-.975l-.01-.02a.748.748 0 00-1.016-.242c-.211.124-.5.171-.87.14-.35-.03-.619-.124-.807-.268-.834-1.15-.904-2.696-.904-3.156 0-1.052.282-4.498 3.986-4.498.252.01.47.047.663.158.35.205.8.094 1.015-.249a.72.72 0 00-.239-.984l-.017-.01a2.854 2.854 0 00-.396-.189c.386-.605 1.015-.907 1.909-.907 1.14 0 1.583 1.163 1.684 1.475a41.74 41.74 0 000 1.126v.921H9.756a1.414 1.414 0 00-1.196-.655c-.78 0-1.412.618-1.412 1.381 0 .76.632 1.379 1.412 1.379.484 0 .934-.246 1.196-.656h1.345v1.452H5.998a1.414 1.414 0 00-1.196-.655c-.78 0-1.415.618-1.415 1.381 0 .76.631 1.378 1.415 1.378a1.41 1.41 0 001.196-.655h5.096v1.223h-2.51a.737.737 0 00-.744.723v2.225c-.413.246-.669.69-.672 1.17 0 .76.635 1.378 1.412 1.378.776 0 1.412-.618 1.412-1.378 0-.497-.27-.928-.673-1.17V11.98h1.772v5.788H5.669v-.175l-.003-.013c.42-.242.682-.693.685-1.177 0-.763-.635-1.381-1.412-1.381-.776 0-1.411.618-1.411 1.381 0 .494.269.925.669 1.167 0 .017-.007.027-.007.043l.013.891c.01.4.34.716.74.713H11.1v.353c0 .212-.007.985-.01 1.294-.141.323-.646 1.314-1.678 1.314m13.25-14.057c0-2.615-1.28-5.647-4.92-5.916C17.175.78 15.955 0 14.26 0c-1.174 0-1.953.612-2.44 1.213C11.305.561 10.528 0 9.412 0 7.75 0 6.51.79 5.934 2.195c-3.623.229-4.924 3.29-4.924 5.926 0 .676.1 2.292.965 3.687C1.11 13.2 1.01 14.824 1.01 15.5c0 2.615 1.28 5.65 4.921 5.92.568 1.428 1.788 2.205 3.486 2.205 1.173 0 1.953-.612 2.437-1.214.514.652 1.294 1.214 2.41 1.214 1.69 0 2.907-.774 3.479-2.195 3.623-.232 4.924-3.295 4.924-5.926 0-.676-.1-2.293-.964-3.688.86-1.391.96-3.015.96-3.694" fill="#5CB615" fill-rule="nonzero"/></svg>