<svg width="24" height="24" viewBox="0 0 24 24" xmlns="http://www.w3.org/2000/svg"><path d="M16.94.02a3.289 3.289 0 013.284 3.284v16.999a3.286 3.286 0 01-3.285 3.28H6.5a3.5 3.5 0 01-3.496-3.496V3.197c0-.847.33-1.644.928-2.246a3.141 3.141 0 012.245-.93H16.94zm.013 1.372H6.176c-.48 0-.934.188-1.273.527-.34.34-.528.794-.528 1.278v16.89a2.13 2.13 0 002.128 2.128h10.45V1.391zm1.902 14.597h-.53v5.635c.329-.344.53-.81.53-1.321v-4.314zm-6.719-3.579c1.728 0 2.847 1.18 2.847 3.005v1.066a.613.613 0 01-.612.608H7.084a.608.608 0 01-.608-.608v-1.066c0-1.825 1.116-3.005 2.847-3.005h2.813zm-.003 1.217H9.319c-1.418 0-1.63 1.12-1.63 1.788v.457h6.074v-.457c0-.669-.212-1.788-1.63-1.788zm6.722-4.639h-.53v5.63h.53v-5.63zM10.718 5.9c1.855 0 2.917 1.062 2.917 2.918 0 1.849-1.062 2.91-2.917 2.91-1.85 0-2.911-1.061-2.911-2.91 0-1.856 1.062-2.918 2.91-2.918zm0 1.311c-1.12 0-1.6.48-1.6 1.607 0 1.12.477 1.6 1.6 1.6 1.126 0 1.606-.478 1.606-1.6 0-1.126-.48-1.607-1.606-1.607zm7.607-5.227v5.633h.53V3.304c0-.512-.201-.978-.53-1.321z" fill="#313235" fill-rule="nonzero"/></svg>