<svg width="24" height="24" viewBox="0 0 24 24" xmlns="http://www.w3.org/2000/svg"><path d="M12.387 22.121h-.04c-2.189 0-3.897-.602-5.076-1.792-1.184-1.196-1.789-2.94-1.795-5.186-.014-3.99 4.722-10.807 6.853-13.29 1.943 2.278 6.908 9.061 6.922 13.246.016 4.514-2.424 7.009-6.864 7.022M12.86.211a.75.75 0 00-1.046 0c-1.593 1.62-7.828 9.786-7.812 14.935.007 2.622.78 4.78 2.232 6.249 1.446 1.459 3.56 2.229 6.118 2.229h.04c5.237-.017 8.357-3.204 8.343-8.528-.02-5.533-6.897-13.89-7.875-14.884" fill="#5CB615" fill-rule="nonzero"/></svg>