<svg width="24" height="24" viewBox="0 0 24 24" xmlns="http://www.w3.org/2000/svg"><path d="M12.713.01c.648 0 1.176.528 1.176 1.177v2.225c.941.151 1.748.4 2.531.783l1.644-1.644a1.197 1.197 0 011.687 0L21.07 3.87c.464.467.464 1.22 0 1.687L19.429 7.2c.37.743.632 1.593.783 2.531h2.225c.649 0 1.176.528 1.176 1.177v1.805c0 .648-.527 1.176-1.176 1.176h-2.225c-.151.938-.414 1.788-.783 2.531l1.643 1.644c.464.467.464 1.22 0 1.687l-1.317 1.318a1.197 1.197 0 01-1.688 0l-1.647-1.644a8.768 8.768 0 01-2.53.783v2.226c0 .652-.525 1.176-1.177 1.176h-1.805a1.178 1.178 0 01-1.177-1.176v-2.226c-.938-.15-1.788-.413-2.531-.783L5.556 21.07a1.197 1.197 0 01-1.687 0L2.55 19.748a1.197 1.197 0 010-1.687l1.64-1.64c-.38-.673-.652-1.759-.78-2.535H1.188A1.178 1.178 0 01.01 12.709v-1.805c0-.649.528-1.176 1.177-1.176h2.225c.127-.78.4-1.862.78-2.535l-1.64-1.64a1.197 1.197 0 010-1.687l1.317-1.318a1.197 1.197 0 011.687 0L7.2 4.192c.743-.37 1.593-.632 2.531-.784V1.187c0-.65.528-1.177 1.177-1.177h1.805zm-.168 1.345h-1.47v2.188c0 .591-.45 1.092-1.072 1.186-.843.132-1.596.36-2.238.686-.491.256-1.07.175-1.439-.195l-.01-.01-1.603-1.603-1.106 1.106L5.21 6.316l.01.01c.44.44.417 1.082.168 1.486-.245.4-.524 1.324-.659 2.195-.094.608-.605 1.069-1.186 1.069H1.355v1.469h2.188c.581 0 1.092.46 1.186 1.068.135.871.414 1.795.66 2.195.248.407.272 1.046-.169 1.486l-.01.01-1.603 1.604 1.106 1.105 1.603-1.603.01-.01c.37-.37.948-.447 1.439-.195.645.326 1.398.555 2.242.686.622.094 1.072.595 1.072 1.186l-.003 2.189h1.469v-2.189c0-.591.45-1.092 1.072-1.186h.003c.847-.131 1.56-.35 2.246-.69.5-.248 1.062-.17 1.431.199l.01.01 1.604 1.603 1.106-1.105-1.614-1.614c-.37-.37-.447-.948-.195-1.439.326-.645.555-1.398.686-2.242.094-.621.595-1.072 1.187-1.072h2.188v-1.469H20.08c-.592 0-1.093-.45-1.187-1.072-.131-.844-.36-1.597-.686-2.239-.252-.49-.174-1.069.195-1.438l1.614-1.614-1.106-1.106-1.603 1.607-.01.01c-.37.37-.932.447-1.432.198-.686-.339-1.399-.557-2.246-.689h-.003c-.622-.094-1.072-.595-1.072-1.186V1.355zm-.733 5.835c2.981 0 4.622 1.64 4.622 4.622 0 2.981-1.644 4.622-4.622 4.622-2.982 0-4.622-1.64-4.622-4.622S8.83 7.19 11.812 7.19zm0 1.344c-2.236 0-3.278 1.042-3.278 3.278 0 2.235 1.042 3.277 3.278 3.277 2.235 0 3.277-1.042 3.277-3.277 0-2.236-1.042-3.278-3.277-3.278z" fill="#313235" fill-rule="nonzero"/></svg>