<svg width="24" height="24" xmlns="http://www.w3.org/2000/svg"><path d="M11.69.007c.31 0 .586.181.74.487L23.506 22.41s0 .003.003.003a.866.866 0 01-.023.854.875.875 0 01-.753.4H.887a.868.868 0 01-.753-.4.883.883 0 01-.026-.854L10.95.497c.155-.309.43-.49.74-.49zm.007 1.953L1.61 22.35H22L11.697 1.96zm.128 17.072c.424 0 .666.242.666.665 0 .424-.246.666-.666.666-.42 0-.665-.242-.665-.666 0-.423.242-.665.665-.665zm0-11.792a.66.66 0 01.659.66v9.256a.66.66 0 01-1.318 0V7.9a.66.66 0 01.66-.659z" fill="#313235" fill-rule="nonzero"/></svg>