<svg width="24" height="24" xmlns="http://www.w3.org/2000/svg"><path d="M21.876 17.092c.195-.195.312-.447.312-.672l-.01-3.415c0-.35-.333-.79-.538-1.042a645.958 645.958 0 01-3.438-4.555 1.258 1.258 0 00-.646-.437v7.86c1.392.261 2.323 1.19 2.575 2.57h1.059c.235.004.487-.114.686-.309zm-5.163 3.15c1.34 0 2.026-.672 2.026-2.007 0-1.334-.685-2.017-2.026-2.017-1.342 0-2.017.683-2.017 2.017 0 1.335.675 2.007 2.017 2.007zm-3.409-2.837c.262-1.452 1.274-2.4 2.78-2.605V3.734c0-.117-.148-.255-.353-.255H1.855c-.205 0-.352.124-.352.245V17.15c0 .087.097.164.215.205.322-1.62 1.56-2.605 3.398-2.605 1.859 0 3.106.995 3.418 2.652h4.77v.003zm-8.188 2.837c1.341 0 2.027-.672 2.027-2.007 0-1.334-.686-2.017-2.027-2.017-1.341 0-2.017.683-2.017 2.017 0 1.335.676 2.007 2.017 2.007zm18.531-7.234l.01 3.416c0 .611-.275 1.237-.743 1.704-.47.467-1.099.74-1.724.74H20.16c-.255 1.764-1.519 2.836-3.448 2.836-1.93 0-3.194-1.072-3.44-2.837H8.556c-.246 1.765-1.51 2.837-3.439 2.837-1.94 0-3.203-1.082-3.439-2.857C.757 18.76.03 18.037.03 17.15V3.724c0-.948.814-1.707 1.822-1.707h13.88c1.007 0 1.82.77 1.82 1.717V5.49c.727.098 1.423.487 1.843 1.062a406.727 406.727 0 003.408 4.515c.296.383.844 1.092.844 1.942zm-11.193-2.907V8.908l-2.33.003a.737.737 0 01-.736-.733V5.866H8.192v2.319c0 .403-.33.733-.733.733l-2.33.003v1.187h2.333a.73.73 0 01.733.729l.003 2.32h1.194l-.004-2.32c0-.403.33-.733.733-.733h2.333v-.003zm.269-2.652c.652 0 1.2.504 1.2 1.099v1.916c0 .595-.552 1.099-1.2 1.099h-1.86v1.855c0 .65-.507 1.197-1.102 1.197H7.84c-.599 0-1.103-.548-1.103-1.197v-1.852H4.871c-.65 0-1.2-.5-1.2-1.099V8.551c0-.595.55-1.099 1.2-1.099h1.862V5.597c0-.65.507-1.197 1.106-1.197H9.76c.599 0 1.106.548 1.106 1.197v1.852h1.856z" fill="#313235" fill-rule="nonzero"/></svg>