<svg width="24" height="24" viewBox="0 0 24 24" xmlns="http://www.w3.org/2000/svg"><path d="M21.869 3.03c.968 0 1.755.757 1.755 1.688v14.34c0 .93-.787 1.687-1.755 1.687H1.755C.787 20.745 0 19.988 0 19.057V4.717c0-.93.787-1.687 1.755-1.687h20.114zm-2.44 9.09h-.616v.877a.63.63 0 01-.537.611c-.37.058-.696.155-.972.29a.655.655 0 01-.74-.118l-.682-.656-.464.447.683.656c.202.198.245.5.104.74-.104.178-.218.554-.279.91-.05.3-.32.518-.632.518h-.91v.592h.91c.313 0 .585.221.632.517.06.357.175.733.279.911.145.242.1.545-.104.743l-.172.165h5.943a.274.274 0 00.273-.266v-5.72l-.461.443a.662.662 0 01-.736.117 3.463 3.463 0 00-.978-.289.627.627 0 01-.541-.611v-.878zm2.716-3.907H1.479v10.844c0 .145.121.262.272.262h12.467c.058-.114.125-.225.219-.316l.444-.423a6.182 6.182 0 01-.115-.356h-.497c-.649 0-1.18-.508-1.18-1.137v-.793c0-.625.528-1.136 1.18-1.136h.497c.03-.114.071-.235.115-.356l-.444-.427a1.117 1.117 0 010-1.617l.602-.578a1.22 1.22 0 011.677 0l.444.427c.117-.04.242-.078.366-.111v-.478c0-.625.528-1.136 1.18-1.136h.823c.65 0 1.18.511 1.18 1.136v.478c.125.033.246.07.367.11l.443-.426c.178-.162.394-.262.626-.306v-3.66zm-2.975 6.118c1.492 0 2.42.894 2.42 2.33 0 1.435-.928 2.329-2.42 2.329-1.493 0-2.42-.894-2.42-2.33 0-1.435.927-2.329 2.42-2.329zm0 1.237c-.797 0-1.136.326-1.136 1.096 0 .766.34 1.092 1.136 1.092.796 0 1.136-.326 1.136-1.092 0-.767-.34-1.096-1.136-1.096zM8.659 10.9c.679 0 1.11.094 1.388.356.235.216.35.552.35 1.016 0 .463-.108.81-.323 1.052-.252.285-.645.416-1.217.416h-.696v1.496h-.988V10.9H8.66zm-3.556 0l1.563 4.333h-1.06l-.359-1.09H3.842l-.336 1.09h-.941l1.448-4.333h1.09zm6.991 0v4.333h-.988v-4.333h.988zm-7.56 1.083h-.013l-.45 1.445h.937l-.474-1.445zm4.084-.367h-.463v1.382h.49c.316 0 .45-.044.575-.165.114-.114.172-.3.172-.551 0-.236-.05-.407-.165-.515-.121-.107-.303-.15-.609-.15zm13.254-7.163H1.755a.267.267 0 00-.273.262v2.074h20.663V4.714a.267.267 0 00-.273-.262zm-16.88.5c.38 0 .685.297.685.66a.675.675 0 01-.685.662c-.38 0-.686-.3-.686-.662 0-.363.306-.66.686-.66zm2.06 0c.38 0 .686.297.686.66a.675.675 0 01-.686.662c-.38 0-.686-.3-.686-.662-.003-.363.303-.66.686-.66zm-4.118 0c.38 0 .686.297.686.66a.675.675 0 01-.686.662c-.38 0-.685-.3-.685-.662 0-.363.306-.66.685-.66z" fill="#313235" fill-rule="nonzero"/></svg>