<svg width="24" height="24" xmlns="http://www.w3.org/2000/svg"><path d="M17.304 15.6l-4.847.03v-3.028c.007-.01.02-.014.027-.024l2.571-3.506a.734.734 0 00-.154-1.022.724.724 0 00-1.012.148l-.003.004-1.432 1.953v-1.24a.726.726 0 10-1.452 0v4.288l-1.846-1.869a.722.722 0 00-1.022-.01l-.006.007a.731.731 0 00-.004 1.032l2.878 2.91v.357H5.21c-1.13 0-3.761-.366-3.761-3.764 0-1.91.813-3.113 2.417-3.57a.728.728 0 00.527-.716l-.006-.118c0-5.57 4.833-6 6.316-6 .84 0 5.082.192 6.087 3.956.08.31.36.532.679.542 1.415.04 4.702.585 4.702 4.79.004 4.5-3.724 4.85-4.867 4.85m.733-11.069C16.541.225 11.694 0 10.706 0c-1.274 0-7.53.346-7.761 7.072C1.66 7.59 0 8.844 0 11.866c0 3.852 2.692 5.226 5.21 5.226h5.795v5.802c0 .403.326.73.726.73.4 0 .726-.33.726-.73V17.09l4.847-.03c2.914 0 6.32-1.654 6.32-6.313 0-4.215-2.794-5.956-5.587-6.215" fill="#313235" fill-rule="nonzero"/></svg>