<svg width="24" height="24" viewBox="0 0 24 24" xmlns="http://www.w3.org/2000/svg"><path d="M11.402 10.887a.878.878 0 00-.222-.373L7.33 6.7a.907.907 0 00-.635-.265H4.272v-.858c0-.719.155-1.25.46-1.566.317-.336.858-.504 1.587-.504l13.742-.01c.739 0 1.27.168 1.586.504.31.316.46.847.46 1.566v6.616c0 .729-.154 1.263-.46 1.586-.326.346-.857.514-1.586.514l-8.602.01v-3.105a.67.67 0 00-.057-.3zM7.217 9.271v-.632l2.02 1.993h-.615c-.306 0-.723-.057-1.039-.366-.242-.246-.366-.582-.366-.995zm2.8 10.894H1.442V7.909h4.33v1.362c0 .816.278 1.529.806 2.05.521.521 1.224.79 2.04.79h1.395v8.054h.004zm10.047-4.407c1.136 0 2.02-.326 2.618-.965.589-.611.878-1.489.878-2.611V5.563c0-1.126-.29-1.993-.878-2.605-.595-.632-1.482-.948-2.618-.948l-13.741.01c-1.136 0-2.02.316-2.619.945-.578.601-.877 1.479-.877 2.601v.858h-1.53C.605 6.424 0 7.035 0 7.744v12.582c0 .71.595 1.311 1.297 1.311h8.864c.703 0 1.298-.602 1.298-1.31v-2.142h11.375a.725.725 0 00.722-.74.73.73 0 00-.722-.74H11.462v-.947h8.602z" fill="#5CB615" fill-rule="nonzero"/></svg>