<?xml version="1.0" encoding="UTF-8"?>
<svg width="24px" height="24px" viewBox="0 0 24 24" version="1.1" xmlns="http://www.w3.org/2000/svg" xmlns:xlink="http://www.w3.org/1999/xlink">
    <title>2.Regular/Audio_Sonido_2Regular</title>
    <g id="Symbols" stroke="none" stroke-width="1" fill="none" fill-rule="evenodd">
        <g id="2.Regular/Audio_Sonido_2Regular" fill="#5CB615" fill-rule="nonzero">
            <path d="M20.3260504,4.11932773 C20.4571429,4.24033613 23.5663866,7.14117647 23.6201681,12.0890756 C23.6268908,12.2537815 23.794958,17.1277311 20.3697479,20.2436975 C20.1277311,20.4621849 19.8252101,20.5731092 19.5260504,20.5731092 C19.1764706,20.5731092 18.8302521,20.4252101 18.5815126,20.1428571 C18.1176471,19.6117647 18.1613445,18.7983193 18.6823529,18.3243697 C21.2268908,16.0117647 21.0957983,12.1966387 21.092437,12.1596639 C21.0487395,8.33445378 18.7294118,6.11932773 18.6285714,6.02521008 C18.1176471,5.54789916 18.0773109,4.73445378 18.5478992,4.21008403 C19.0151261,3.69243697 19.8084034,3.6487395 20.3260504,4.11932773 Z M19.3310924,12.1327731 C19.3344538,12.2302521 19.4487395,15.5310924 17.1193277,17.6453782 C16.8773109,17.8638655 16.5747899,17.9747899 16.2756303,17.9747899 C15.9260504,17.9747899 15.5798319,17.8302521 15.3310924,17.5445378 C14.8672269,17.0168067 14.907563,16.2033613 15.4319328,15.7260504 C16.8537815,14.4319328 16.8033613,12.2235294 16.8,12.2 C16.7764706,9.97815126 15.4151261,8.67058824 15.3983193,8.65714286 C14.8806723,8.18319328 14.8369748,7.3697479 15.3042017,6.83865546 C15.7680672,6.31092437 16.5714286,6.26722689 17.0890756,6.74117647 C17.1831933,6.82857143 19.2941176,8.79831933 19.3310924,12.1327731 Z M11.6504202,18.2504202 L11.6504202,5.59159664 C9.43865546,5.69243697 7.91260504,6.4487395 6.94117647,7.89411765 C6.75630252,8.36134454 6.31932773,8.6907563 5.78823529,8.6907563 C5.78151261,8.6907563 5.77478992,8.68403361 5.77142857,8.68403361 C5.76134454,8.68403361 5.75462185,8.6907563 5.74453782,8.6907563 L2.53445378,8.6907563 L2.54453782,15.1647059 L5.73445378,15.1613445 C6.20840336,15.1613445 6.60840336,15.4403361 6.82689076,15.8336134 C6.84705882,15.8739496 6.89747899,15.8941176 6.91428571,15.9344538 C7.86218487,17.3798319 9.45546218,18.1563025 11.6504202,18.2504202 L11.6504202,18.2504202 Z M12.0773109,3.00672269 C13.2773109,3.00672269 14.1815126,3.92773109 14.1815126,5.05714286 L14.1815126,18.794958 C14.1815126,19.9210084 13.2840336,20.8352941 12.1781513,20.8352941 C8.32941176,20.8352941 6.22184874,19.2689076 5.07226891,17.7361345 L1.28067227,17.7394958 C0.58487395,17.7394958 0.0168067227,17.1647059 0.0168067227,16.4554622 L0.00672268908,7.40672269 C0.00672268908,7.06722689 0.137815126,6.74117647 0.376470588,6.49915966 C0.61512605,6.25714286 0.934453782,6.11932773 1.27058824,6.11932773 L5.08907563,6.11596639 C6.24201681,4.58319328 8.33613445,3.00672269 12.0773109,3.00672269 Z" id="Audio_Sonido_2Regular"></path>
        </g>
    </g>
</svg>