<svg width="24" height="24" viewBox="0 0 24 24" xmlns="http://www.w3.org/2000/svg"><path d="M11.815 22.171c-6.877 0-10.363-3.485-10.363-10.356 0-6.877 3.486-10.363 10.363-10.363 6.874 0 10.356 3.486 10.356 10.363 0 6.87-3.485 10.356-10.356 10.356zm0-22.171C4.087 0 0 4.084 0 11.815c0 7.724 4.084 11.809 11.815 11.809 7.724 0 11.809-4.085 11.809-11.809C23.624 4.084 19.539 0 11.815 0zm-5.21 13.728V9.18l3.805 2.286c-.003 0-3.805 2.262-3.805 2.262zm10.911-2.27l-3.805 2.263V9.173l3.805 2.286zM5.519 7.265a.724.724 0 00-.37.632v7.106a.727.727 0 001.1.625l5.943-3.536c.03-.017.043-.05.07-.07v2.977a.727.727 0 001.096.626l5.943-3.537a.725.725 0 00.003-1.243l-5.943-3.577a.727.727 0 00-1.099.622v3.022c-.027-.02-.037-.05-.067-.067l-5.943-3.57a.732.732 0 00-.733-.01z" fill="#5CB615" fill-rule="nonzero"/></svg>