<svg width="24" height="24" viewBox="0 0 24 24" xmlns="http://www.w3.org/2000/svg"><path d="M21.68 15.805c-.255.256-.635.407-1.132.44a69.917 69.917 0 01-2.252.004c-.525-.024-.928-.175-1.2-.444a1.514 1.514 0 01-.373-.689h5.327a1.48 1.48 0 01-.37.689zm-2.725-9.039l2.8 6.8h-4.85l2.05-6.8zm-3.274 14.37c.55 0 .961.135 1.227.4.134.138.235.316.305.538h-10.8c.068-.222.172-.4.303-.538.262-.265.676-.4 1.227-.4h7.738zM11.16 5.264h.205c.01 0 .02.007.03.007.01 0 .259-.004.47-.004v.004h.37c.01 0 .02-.007.03-.007h.202v14.323H11.16V5.264zm-4.44 8.302H1.868l2.8-6.8 2.05 6.8zm-.192 2.239c-.27.269-.676.417-1.197.444a69.917 69.917 0 01-2.252-.003c-.497-.034-.877-.182-1.136-.441a1.48 1.48 0 01-.37-.689h5.328a1.514 1.514 0 01-.373.689zm17.096-1.466c0-.033-.017-.063-.02-.1a.672.672 0 00-.041-.202L20.02 5.435c.162.07.31.152.424.262a.716.716 0 00.51.216c.196 0 .39-.081.538-.24a.801.801 0 00-.023-1.095c-.524-.524-1.237-.813-2.121-.857-.07-.003-4-.007-6.28-.007.092-.06.176-.12.25-.195.34-.343.514-.85.514-1.506 0-.662-.171-1.17-.514-1.512-.326-.333-.8-.501-1.405-.501-.004 0-.01 0-.014.003V0h-.175c-.605 0-1.079.168-1.405.5-.34.344-.514.851-.514 1.513 0 .656.171 1.163.514 1.506.07.074.158.138.25.195-2.283 0-6.213 0-6.28.007-.884.044-1.597.333-2.12.857a.798.798 0 00-.024 1.096c.144.161.339.239.534.239a.71.71 0 00.51-.216c.112-.11.263-.194.421-.262L.067 14.037c-.027.064-.03.134-.04.202-.003.033-.02.067-.02.1v.004c0 1.102.309 1.97.91 2.578.515.518 1.207.81 2.061.87a78.378 78.378 0 002.417.007c.9-.043 1.63-.336 2.165-.874.595-.595.894-1.438.91-2.497 0-.007 0-.014.004-.02 0-.024.003-.04.003-.064 0-.044-.016-.08-.023-.121-.007-.037 0-.074-.01-.114l-2.67-8.84c1.097 0 2.62 0 3.907-.004v14.323H7.95c-.952 0-1.708.282-2.26.837-.57.574-.86 1.391-.86 2.423 0 .427.333.773.743.773.024 0 .044-.01.067-.013.02.003.04.013.064.013h12.229c.023 0 .043-.01.067-.013.02.003.04.013.064.013.41 0 .743-.346.743-.773 0-1.035-.29-1.849-.86-2.423-.552-.555-1.308-.837-2.256-.837h-1.735V5.264c1.288 0 2.814 0 3.91.003l-2.666 8.84c-.013.04-.007.078-.013.115-.007.04-.024.077-.024.12 0 .021.003.041.003.065 0 .006 0 .013.004.02.017 1.059.32 1.902.91 2.497.538.538 1.268.83 2.169.874a77.96 77.96 0 002.41-.007c.85-.06 1.546-.352 2.06-.87.595-.612.905-1.479.905-2.582z" fill="#313235" fill-rule="nonzero"/></svg>