<svg width="24" height="24" viewBox="0 0 24 24" xmlns="http://www.w3.org/2000/svg"><path d="M6.239 4.968c.37 0 .672.303.672.672l-.001 8.474h12.774c1.284 0 2.279.36 2.961 1.066.656.679.989 1.65.989 2.884v1.647c0 1.234-.333 2.202-.989 2.884-.682.71-1.68 1.066-2.961 1.066H3.95c-1.284 0-2.28-.36-2.962-1.066C.333 21.913 0 20.945 0 19.711v-1.647c0-1.234.333-2.202.988-2.884.683-.71 1.678-1.066 2.962-1.066h1.616V5.64c0-.37.303-.672.673-.672zm13.445 10.49H3.95c-.905 0-1.574.223-1.994.656-.406.42-.611 1.076-.611 1.95v1.647c0 .874.205 1.53.611 1.95.42.433 1.09.655 1.994.655h15.734c.904 0 1.573-.222 1.993-.655.407-.42.612-1.076.612-1.95v-1.647c0-.874-.205-1.53-.612-1.95-.42-.433-1.089-.655-1.993-.655zM3.919 17.917c.703 0 1.14.434 1.14 1.133 0 .346-.101.622-.3.823-.198.202-.49.31-.84.31s-.638-.108-.84-.31c-.202-.201-.3-.477-.3-.823 0-.7.438-1.133 1.14-1.133zm3.291 0c.703 0 1.14.434 1.14 1.133 0 .346-.101.622-.3.823-.198.202-.494.31-.84.31-.35 0-.639-.108-.84-.31-.202-.201-.3-.477-.3-.823 0-.7.438-1.133 1.14-1.133zM12.857.222c1.274 1.227 1.92 3.049 1.92 5.418 0 2.36-.643 4.178-1.906 5.405a.676.676 0 01-1.143-.48.67.67 0 01.205-.484c.991-.965 1.496-2.457 1.496-4.44 0-1.99-.508-3.486-1.506-4.451a.67.67 0 01-.017-.951.67.67 0 01.951-.017zm-2.692 1.687c.884.847 1.33 2.104 1.33 3.731 0 1.62-.446 2.874-1.324 3.728a.674.674 0 01-1.14-.484c0-.181.075-.356.206-.48.608-.592.918-1.52.918-2.76 0-1.24-.31-2.178-.925-2.767a.674.674 0 01.935-.968z" fill="#5CB615" fill-rule="nonzero"/></svg>