<svg width="24" height="24" viewBox="0 0 24 24" xmlns="http://www.w3.org/2000/svg"><path d="M20.212 18.924c1.186-1.14 1.842-2.93 1.95-5.327l-20.683-.024.29 6.306s.03.37.197.37h14.935c.057-.007 1.862.067 3.31-1.325zM3.805 9.354l-.02 2.676 13.31-.017c-.107-.746-.39-1.34-.836-1.774-.955-.918-2.407-.878-2.42-.884-.084-.01-4.115-.007-7.086-.007-1.385.003-2.541.003-2.948.007zm2.424-5.082h3.405v-.796H6.229v.796zm0 3.617h3.405V5.724H6.229V7.89zM22.9 12.141c.4 0 .723.326.723.726 0 3.194-.82 5.59-2.437 7.126-1.674 1.594-3.658 1.708-4.192 1.708-.077 0-.124-.004-.134-.004H1.966c-1.146 0-1.61-1.052-1.64-1.758l-.323-7.065a.72.72 0 01.72-.763l1.613.003.024-2.91a1.172 1.172 0 01.255-.844c.168-.205.49-.454 1.08-.46.157-.004.554-.004 1.092-.004v-5.15c0-.4.322-.726.722-.726h4.85c.4 0 .723.326.723.726V7.9c1.463.004 2.599.004 2.73.004.054 0 2.043-.071 3.449 1.287.76.733 1.176 1.731 1.284 2.948l4.356.003zM5.368 16.407a.487.487 0 000 .975.487.487 0 000-.975zm0 1.95c-.8 0-1.449-.656-1.449-1.46 0-.803.65-1.458 1.45-1.458.8 0 1.448.655 1.448 1.458 0 .804-.652 1.46-1.449 1.46zm4.84-1.95a.488.488 0 000 .975.485.485 0 00.484-.488.485.485 0 00-.484-.487zm0 1.95c-.8 0-1.448-.656-1.448-1.46 0-.803.652-1.458 1.448-1.458.8 0 1.45.655 1.45 1.458a1.453 1.453 0 01-1.45 1.46zm4.844-1.95a.487.487 0 000 .975.485.485 0 00.484-.488.485.485 0 00-.484-.487zm0 1.95c-.8 0-1.449-.656-1.449-1.46 0-.803.65-1.458 1.45-1.458.8 0 1.448.655 1.448 1.458 0 .804-.649 1.46-1.449 1.46z" fill="#5CB615" fill-rule="nonzero"/></svg>