<svg width="24" height="24" viewBox="0 0 24 24" xmlns="http://www.w3.org/2000/svg"><path d="M19.267 20.047c.575 0 .78-.208.78-.79 0-.581-.205-.79-.78-.79-.575 0-.78.209-.78.79.004.582.205.79.78.79zm0-2.77c1.227 0 1.957.74 1.957 1.98s-.733 1.98-1.957 1.98c-1.223 0-1.956-.74-1.956-1.98s.733-1.98 1.956-1.98zm0-4.672c.575 0 .78-.208.78-.79 0-.581-.205-.79-.78-.79-.575 0-.78.209-.78.79.004.585.205.79.78.79zm0-2.77c1.227 0 1.957.74 1.957 1.98s-.733 1.98-1.957 1.98c-1.223 0-1.956-.74-1.956-1.98 0-1.237.733-1.98 1.956-1.98zm.024-6.245c-.575 0-.78.208-.78.79 0 .581.205.79.78.79.575 0 .78-.209.78-.79 0-.585-.205-.79-.78-.79zm0 2.77c-1.227 0-1.957-.74-1.957-1.98s.733-1.98 1.957-1.98c1.223 0 1.956.74 1.956 1.98 0 1.237-.73 1.98-1.956 1.98zm2.884 15.506l.007-5.352a.264.264 0 00-.266-.265H1.778a.266.266 0 00-.262.269l-.007 5.35c0 .149.118.266.266.266h20.138a.27.27 0 00.262-.268zM1.516 1.758l-.007 5.351c0 .145.118.27.266.27h20.138a.267.267 0 00.265-.27l.007-5.351a.264.264 0 00-.266-.266H1.78a.263.263 0 00-.263.266zm.255 12.995H21.91a.267.267 0 00.266-.269l.007-5.351a.264.264 0 00-.266-.266H1.778a.263.263 0 00-.262.266l-.007 5.351c0 .151.118.269.262.269zm21.886-5.617l-.007 5.351c0 .377-.12.723-.319 1.009.202.289.326.638.326 1.018l-.007 5.352c0 .968-.78 1.758-1.74 1.758H1.77c-.958 0-1.737-.79-1.737-1.758l.006-5.352c0-.376.118-.722.316-1.008a1.775 1.775 0 01-.326-1.019l.007-5.35c0-.377.118-.724.316-1.01A1.775 1.775 0 01.027 7.11l.007-5.351C.034.79.814 0 1.77 0H21.91c.958 0 1.738.79 1.738 1.758l-.007 5.351c0 .377-.117.723-.319 1.009.212.289.336.638.336 1.018zM3.321 5.123a.74.74 0 01-.736-.747.74.74 0 01.736-.746h6.82a.74.74 0 01.736.746.74.74 0 01-.736.747h-6.82zm6.82 5.95a.74.74 0 01.736.745c0 .41-.33.747-.736.747h-6.82a.74.74 0 01-.736-.747.74.74 0 01.736-.746h6.82zm0 7.485a.74.74 0 01.736.746.74.74 0 01-.736.746h-6.82a.74.74 0 01-.736-.746.74.74 0 01.736-.746h6.82z" fill="#5CB615" fill-rule="nonzero"/></svg>