<svg width="24" height="24" viewBox="0 0 24 24" xmlns="http://www.w3.org/2000/svg"><path d="M18.26 19.607c0 .897-.198 1.532-.611 1.932-.41.4-1.049.592-1.953.592H9.087c-.904 0-1.546-.192-1.953-.592-.413-.4-.611-1.035-.611-1.932V6.575c0-.874.198-1.5.615-1.91.417-.416 1.055-.618 1.95-.618h6.611c.908 0 1.546.198 1.956.602.41.406.609 1.035.609 1.926l-.003 13.032zM10.675 2.024c0-.148.017-.34.104-.424.088-.087.286-.108.434-.108h2.578c.124 0 .35.014.434.101.09.088.104.306.104.43v.535h-3.654v-.534zm8.05 1.573c-.682-.673-1.63-1.005-2.884-1.032v-.541c0-.626-.181-1.123-.544-1.483C14.936.181 14.429 0 13.79 0h-2.578c-.636 0-1.143.185-1.506.548-.363.36-.545.854-.545 1.476v.534h-.074c-1.317 0-2.309.346-3.025 1.059-.706.702-1.049 1.67-1.049 2.958v13.032c0 1.317.347 2.296 1.06 2.991.705.69 1.693 1.026 3.018 1.026h6.612c1.324 0 2.312-.337 3.018-1.026.713-.699 1.059-1.677 1.059-2.991V6.575c-.007-1.304-.35-2.28-1.056-2.978z" fill="#313235" fill-rule="nonzero"/></svg>