<svg width="24" height="24" viewBox="0 0 24 24" xmlns="http://www.w3.org/2000/svg"><path d="M18.728 19.775V6.464c0-.982-.232-1.684-.706-2.145-.474-.464-1.197-.689-2.209-.689H8.97c-1.002 0-1.721.232-2.205.706-.478.47-.71 1.163-.71 2.128v13.31c0 .992.232 1.695.71 2.155.474.458 1.193.68 2.205.68h6.843c1.012 0 1.732-.222 2.205-.68.478-.46.71-1.166.71-2.154zM10.237 1.812v.8h4.31v-.8c0-.44-.139-.575-.182-.619-.044-.043-.182-.178-.636-.178h-2.672c-.447 0-.585.138-.632.185-.05.044-.188.182-.188.612zM18.765 3.6c.679.662 1.008 1.597 1.008 2.864v13.31c0 1.275-.333 2.216-1.018 2.878-.68.656-1.64.975-2.942.975H8.97c-1.301 0-2.262-.32-2.941-.972-.686-.662-1.019-1.603-1.019-2.877V6.468c0-1.244.333-2.176 1.012-2.844.692-.68 1.654-1.009 2.948-1.009h.222v-.803c0-.562.164-1.009.487-1.328.326-.32.79-.484 1.378-.484h2.672c.589 0 1.053.161 1.375.477.323.316.484.767.484 1.335v.8h.225c1.305 0 2.27.322 2.952.988zm-2.101 15.408v-5.946H8.116v5.946c0 .794.662 1.44 1.479 1.44h5.593c.814 0 1.476-.646 1.476-1.44zm.52-6.96c.29 0 .525.224.525.507v6.453c0 1.355-1.133 2.454-2.524 2.454h-5.59c-1.392 0-2.524-1.099-2.524-2.454v-6.453c0-.283.235-.508.52-.508h9.594z" fill="#313235" fill-rule="nonzero"/></svg>