<svg width="24" height="24" xmlns="http://www.w3.org/2000/svg"><path d="M18.731 19.771V6.461c0-.982-.232-1.685-.706-2.145-.474-.464-1.196-.69-2.208-.69H8.97c-1.002 0-1.721.233-2.205.707-.478.47-.71 1.163-.71 2.128v13.31c0 .992.232 1.698.71 2.155.474.457 1.193.679 2.205.679h6.847c1.008 0 1.73-.222 2.205-.679.474-.457.706-1.163.71-2.155zm-8.494-17.96v.8h4.31v-.8c0-.44-.139-.574-.182-.618-.044-.043-.182-.178-.636-.178h-2.668c-.448 0-.589.138-.636.185-.047.044-.188.182-.188.612zM18.765 3.6c.679.662 1.008 1.597 1.008 2.86v13.311c0 1.278-.333 2.219-1.018 2.878-.68.655-1.64.975-2.938.975H8.97c-1.298 0-2.26-.32-2.938-.975-.686-.66-1.019-1.6-1.019-2.878V6.461c0-1.244.33-2.172 1.012-2.84.69-.68 1.654-1.01 2.948-1.01h.225v-.8c0-.56.165-1.008.488-1.324.322-.326.786-.487 1.371-.487h2.67c.587 0 1.051.158 1.374.477.326.316.487.767.487 1.335v.8h.225c1.305 0 2.273.322 2.952.988zm-2.098 15.408V6.363H8.116v12.645c0 .794.662 1.44 1.479 1.44h5.593c.814 0 1.48-.646 1.48-1.44zm.521-13.66c.29 0 .521.225.521.507v13.153c0 1.355-1.13 2.454-2.524 2.454h-5.59c-1.392 0-2.524-1.099-2.524-2.454V5.855c0-.282.235-.507.52-.507h9.597z" fill="#313235" fill-rule="nonzero"/></svg>