<svg width="24" height="24" viewBox="0 0 24 24" xmlns="http://www.w3.org/2000/svg"><path d="M17.923 18.346c1.546-.138 4.178-.92 4.178-4.672 0-3.735-2.619-4.541-4.178-4.692v9.364zm-1.526.619V7.029H1.527v11.936c0 1.132.265 1.936.806 2.457.538.514 1.368.763 2.538.763h8.181c1.17 0 2-.249 2.538-.763.541-.518.807-1.321.807-2.457zm7.227-5.291c0 5.24-4.222 6.034-5.765 6.148-.131 1.116-.518 1.996-1.197 2.645-.84.8-2.02 1.19-3.613 1.19H4.87c-1.594 0-2.774-.39-3.614-1.19C.41 21.661 0 20.514 0 18.968V6.3a.75.75 0 01.763-.736H17.16c.42 0 .763.33.763.736v1.214c1.603.137 5.7 1.008 5.7 6.16zM6.544 4.35c0-.253-.097-.404-.282-.676-.198-.282-.444-.635-.447-1.143-.003-.518.252-.86.437-1.116.178-.242.296-.403.293-.743A.647.647 0 017.2.03h.007a.65.65 0 01.662.629c.007.75-.32 1.196-.538 1.492-.148.199-.195.273-.192.37 0 .121.078.235.222.444.215.309.511.732.508 1.385a.647.647 0 01-.662.635.645.645 0 01-.662-.635zm3.281.057c-.02-.08-.154-.286-.225-.394-.165-.252-.323-.487-.33-.766-.013-.343.192-.635.37-.89.064-.095.175-.25.192-.31-.017-.353.262-.618.625-.635.346.01.672.285.69.638.02.4-.22.74-.41 1.016l-.102.147c.024.037.05.078.081.121.178.273.403.609.427.979a.644.644 0 01-.615.679c-.017 0-.03.003-.047.003-.34-.007-.629-.259-.656-.588z" fill="#313235" fill-rule="nonzero"/></svg>