<svg width="24" height="24" viewBox="0 0 24 24" xmlns="http://www.w3.org/2000/svg"><path d="M17.718 2.01c.156 0 .306.054.425.153l.033.03a.17.17 0 01.016.015l5.243 5.244.023.025a.68.68 0 01.02.023l-.043-.048c.08.078.138.175.17.28l.008.032a.63.63 0 01.02.162V21.1c0 .252-.023.578-.218.85-.141.199-.42.438-.951.438l-.486.002h-10.51c-.81 0-1.313-.507-1.313-1.32V3.31c0-.8.504-1.298 1.31-1.3h6.253zm-12.75 8.521c.178 0 .35.07.477.195L8.36 13.64a.66.66 0 01.198.474v7.237c0 .595-.413 1.009-1.008 1.009l-3.21.006H1.021C.41 22.366 0 21.953 0 21.338V11.55c0-.599.42-1.019 1.022-1.019h3.946zm12.077-7.174l-5.546.001v17.687h10.79V8.601h-1.95c-.988 0-1.818-.309-2.403-.893-.585-.585-.89-1.416-.89-2.4l-.001-1.95zM4.097 11.875H1.345v9.147H7.21v-6.03h-.86c-.72 0-1.281-.199-1.668-.585-.386-.387-.585-.948-.585-1.668v-.864zm2.044 7.281a.504.504 0 110 1.009H2.427a.504.504 0 110-1.009H6.14zm14.239-2.06c.37 0 .672.302.672.672 0 .37-.302.672-.672.672h-6.972a.674.674 0 01-.672-.672c0-.37.303-.672.672-.672h6.972zm-14.239.312a.504.504 0 110 1.009H2.427a.504.504 0 110-1.009H6.14zm0-1.747a.504.504 0 110 1.008H2.427a.504.504 0 110-1.008H6.14zm14.239-1.87c.37 0 .672.303.672.673 0 .37-.302.672-.672.672h-6.972a.674.674 0 01-.672-.672c0-.37.303-.672.672-.672h6.972zm-13.583.192l-1.692-1.692v.448c0 .885.36 1.244 1.245 1.244h.447zm13.583-3.475c.37 0 .672.302.672.672 0 .37-.302.672-.672.672h-6.972a.674.674 0 01-.672-.672c0-.37.303-.672.672-.672h6.972zM6.914 3.906c.034.03.837.712 1.136 1.012.447.45.45 1.005.007 1.448-.151.152-.978.86-1.14 1.002a.533.533 0 01-.329.118.504.504 0 01-.33-.888c.175-.149.36-.308.527-.454H5.91c-.823 0-1.438.189-1.825.562-.4.386-.605 1.015-.605 1.872v.998a.504.504 0 11-1.008 0v-.998c0-1.14.305-2.017.914-2.598.581-.558 1.428-.844 2.524-.844h.89c-.273-.24-.533-.46-.537-.464a.502.502 0 01-.057-.709.502.502 0 01.71-.057zm14.424 3.351l-2.949-2.949v1c0 .621.172 1.122.498 1.448.326.326.827.501 1.452.501h.999z" fill="#5CB615" fill-rule="nonzero"/></svg>