<svg width="24" height="24" xmlns="http://www.w3.org/2000/svg"><path d="M22.178 17.173c0 .242-.117.514-.31.713-.2.211-.463.33-.685.33h-1.062c-.31-1.735-1.553-2.77-3.405-2.77-.185 0-.356.01-.531.03V7.244l.991-.01c.377 0 .814.232 1.026.53.474.673 3.099 4.297 3.435 4.75.202.273.541.733.541 1.106v3.553zm-5.465 4.007c-1.352 0-2.037-.713-2.037-2.108 0-1.408.685-2.12 2.037-2.12 1.34 0 2.026.712 2.026 2.117 0 1.398-.685 2.11-2.026 2.11zm-3.416-2.962H8.541c-.31-1.734-1.553-2.77-3.405-2.77-1.862 0-3.106 1.036-3.415 2.77a.284.284 0 01-.272-.279V3.802a.277.277 0 01.269-.283l12.746.01c.144 0 .272.121.272.273v12.154c-.763.474-1.254 1.247-1.439 2.262zM5.133 21.18c-1.351 0-2.037-.713-2.037-2.108 0-1.405.686-2.117 2.037-2.117 1.34 0 2.027.712 2.027 2.117 0 1.395-.686 2.108-2.027 2.108zm17.64-9.577c-.33-.44-2.951-4.074-3.395-4.709-.49-.702-1.351-1.163-2.202-1.163h-.01l-.984.01v-1.94c0-.984-.774-1.777-1.718-1.777l-12.746-.01C.77 2.013 0 2.816 0 3.801v14.134c0 .975.753 1.768 1.69 1.785.24 1.849 1.517 2.961 3.446 2.961 1.92 0 3.193-1.112 3.425-2.961h4.716c.232 1.849 1.506 2.961 3.436 2.961 1.919 0 3.193-1.112 3.425-2.961h1.042c.608 0 1.237-.279 1.707-.773.464-.49.733-1.136.733-1.778v-3.563c.004-.87-.548-1.614-.847-2.004z" fill="#313235" fill-rule="nonzero"/></svg>