<svg width="24" height="24" viewBox="0 0 24 24" xmlns="http://www.w3.org/2000/svg"><path d="M20.477 9.29l-1.859-.903a.715.715 0 00-1.025.655l.04 13.163H6.294l.04-13.163A.73.73 0 006 8.427a.7.7 0 00-.69-.044l-1.925.921-1.751-3.902L7.58 1.95c.39 2.174 1.912 3.354 4.386 3.354 2.424 0 3.957-1.207 4.367-3.341l5.684 3.449-1.54 3.879zm2.8-4.806l-7.18-4.35c-.01-.003-.016-.003-.026-.01a.873.873 0 00-.29-.084c-.013-.003-.026-.01-.043-.01-.027 0-.047.014-.074.014a.782.782 0 00-.172.037c-.026.01-.05.023-.077.037a.727.727 0 00-.161.11.36.36 0 00-.047.054c-.03.034-.068.06-.091.101-.013.024-.017.05-.024.07-.01.02-.013.038-.02.055a.792.792 0 00-.047.228c0 .007-.003.01-.003.017 0 2.114-.972 3.1-3.056 3.1s-3.055-.986-3.055-3.1a.728.728 0 00-.356-.629.71.71 0 00-.713-.003L.363 4.471a.731.731 0 00-.296.927l2.323 5.173c.08.179.225.313.407.38.181.067.38.057.55-.027l1.557-.742-.037 12.742c0 .192.074.377.209.515a.704.704 0 00.507.211h12.77a.718.718 0 00.716-.726l-.04-12.736 1.519.736a.712.712 0 00.971-.38l2.054-5.173a.728.728 0 00-.296-.887z" fill="#5CB615" fill-rule="nonzero"/></svg>