<svg width="24" height="24" viewBox="0 0 24 24" xmlns="http://www.w3.org/2000/svg"><path d="M17.57 6.047c.289.29.289.756 0 1.042l-4.723 4.723 4.72 4.72a.738.738 0 11-1.03 1.061l-.016-.017-4.716-4.719-4.706 4.706a.737.737 0 01-1.042.003l-.003-.003a.738.738 0 010-1.045l4.706-4.706-4.706-4.706a.735.735 0 01-.037-1.042.735.735 0 011.042-.037l.037.037 4.706 4.706 4.719-4.72a.74.74 0 011.049-.003c-.004 0-.004 0 0 0zm-5.762 16.1c6.955 0 10.34-3.38 10.34-10.332 0-6.954-3.382-10.34-10.336-10.34-6.955 0-10.333 3.382-10.333 10.34-.003 6.951 3.378 10.333 10.33 10.333zm0-22.147c7.463 0 11.816 3.771 11.816 11.815 0 8.047-4.353 11.809-11.816 11.809C4.346 23.624 0 19.862 0 11.815 0 3.771 4.346 0 11.808 0z" fill="#313235" fill-rule="nonzero"/></svg>