<svg width="24" height="24" viewBox="0 0 24 24" xmlns="http://www.w3.org/2000/svg"><path d="M11.758 17.024L1.751 11.86l1.906-.995 7.318 3.778a1.695 1.695 0 001.556.006l7.462-3.784 1.946.998-10.181 5.16zm10.181-1.25l-10.181 5.162-10.007-5.163 1.906-.991 7.318 3.774a1.695 1.695 0 001.556.007l7.462-3.785 1.946.995zM11.758 2.737l10.181 5.207-10.181 5.166L1.751 7.945l10.007-5.207zm11.9 9.126a1.73 1.73 0 00-.942-1.543l-.824-.42.817-.414a1.73 1.73 0 00.003-3.082l-10.18-5.207a1.72 1.72 0 00-.78-.188c-.273 0-.542.064-.79.195L.954 6.412A1.728 1.728 0 00.96 9.48l.814.42-.82.427a1.724 1.724 0 00-.928 1.536c0 .649.36 1.237.934 1.533l.814.42-.82.427a1.728 1.728 0 00.006 3.069l10.007 5.163c.245.127.514.188.783.188.266 0 .531-.06.773-.185l10.182-5.163a1.73 1.73 0 00.003-3.082l-.823-.42.817-.417c.588-.29.954-.884.954-1.533z" fill="#5CB615" fill-rule="nonzero"/></svg>