<svg width="24" height="24" xmlns="http://www.w3.org/2000/svg"><path d="M11.916 13.697c4.457.048 7.072 2.898 7.183 3.019a.738.738 0 01-1.096.988c-.023-.023-2.312-2.49-6.124-2.53-.06.006-3.92-.122-6.249 2.483a.739.739 0 01-1.102-.981c2.8-3.14 7.203-2.985 7.388-2.979zm-.108 8.45c6.955 0 10.34-3.38 10.34-10.332 0-6.954-3.382-10.34-10.34-10.34-6.95 0-10.332 3.382-10.332 10.34 0 6.951 3.381 10.333 10.332 10.333zm0-22.147c7.463 0 11.816 3.768 11.816 11.815S19.27 23.624 11.808 23.624C4.346 23.624 0 19.862 0 11.815 0 3.768 4.346 0 11.808 0zm-3.58 10.07c-.426 0-.783-.134-1.031-.386-.246-.249-.367-.592-.367-1.015 0-.867.538-1.405 1.399-1.405.863 0 1.398.538 1.398 1.405 0 .423-.124.766-.366 1.015-.25.252-.606.387-1.032.387zm7.167 0c-.427 0-.783-.134-1.032-.386-.245-.252-.366-.595-.366-1.015 0-.867.537-1.405 1.398-1.405.864 0 1.398.538 1.398 1.405 0 .423-.124.766-.37 1.015-.245.252-.601.387-1.028.387z" fill="#313235" fill-rule="nonzero"/></svg>