<svg width="24" height="24" viewBox="0 0 24 24" xmlns="http://www.w3.org/2000/svg"><path d="M22.094 17.95V4.41a.221.221 0 00-.225-.225H11.318a.766.766 0 01-.767-.767V1.775a.221.221 0 00-.225-.225H1.755a.221.221 0 00-.226.225V17.95c0 .127.098.225.226.225h20.11a.224.224 0 00.23-.225zm-.228-15.298c.968 0 1.758.787 1.758 1.755V17.95c0 .968-.787 1.754-1.758 1.754H1.755A1.756 1.756 0 010 17.95V1.775C0 .807.787.02 1.755.02h8.571c.968 0 1.755.787 1.755 1.755v.88h9.785v-.003zM6.92 8.067c0-1.351.417-2.054 1.513-2.054 1.095 0 1.512.703 1.512 2.054s-.417 2.047-1.512 2.047c-1.096 0-1.513-.696-1.513-2.047zm2.165 0c0-1.089-.185-1.449-.652-1.449-.468 0-.652.357-.652 1.45 0 1.088.184 1.384.652 1.384.467 0 .652-.296.652-1.385zm-6.474 0c0-1.351.417-2.054 1.512-2.054 1.096 0 1.513.703 1.513 2.054s-.417 2.047-1.513 2.047c-1.095 0-1.512-.696-1.512-2.047zm2.164 0c0-1.089-.184-1.449-.652-1.449-.467 0-.652.357-.652 1.45 0 1.088.185 1.384.652 1.384.468 0 .652-.296.652-1.385zm13.093 0c0-1.351.417-2.054 1.513-2.054 1.095 0 1.512.703 1.512 2.054s-.417 2.047-1.512 2.047c-1.1 0-1.513-.696-1.513-2.047zm2.161 0c0-1.089-.185-1.449-.652-1.449s-.652.357-.652 1.45c0 1.088.185 1.384.652 1.384s.652-.296.652-1.385zM11.166 9.5h.663V6.75h-.636V6.2c.232-.034.625-.068.904-.068.404 0 .542.098.542.387v2.985h.558v.581h-2.034v-.585h.003zm-7.993 6.48h.662V13.23h-.632v-.551c.232-.034.626-.067.905-.067.403 0 .54.097.54.386v2.985h.559v.582H3.173v-.585zM14.655 9.5h.663V6.75h-.632V6.2c.232-.034.625-.068.904-.068.403 0 .541.098.541.387v2.985h.558v.581h-2.034v-.585zm-7.734 5.052c0-1.351.417-2.054 1.513-2.054 1.095 0 1.512.703 1.512 2.054 0 1.352-.417 2.047-1.512 2.047-1.096 0-1.513-.695-1.513-2.047zm2.165 0c0-1.089-.185-1.448-.652-1.448-.468 0-.652.356-.652 1.448 0 1.093.184 1.385.652 1.385.467 0 .652-.296.652-1.385zm8.783 0c0-1.351.417-2.054 1.513-2.054 1.095 0 1.512.703 1.512 2.054 0 1.352-.417 2.047-1.512 2.047-1.1 0-1.513-.695-1.513-2.047zm2.161 0c0-1.089-.185-1.448-.652-1.448s-.652.356-.652 1.448c0 1.093.185 1.385.652 1.385s.652-.296.652-1.385zm-8.864 1.432h.663v-2.75h-.636v-.55c.232-.034.625-.068.904-.068.404 0 .542.098.542.387v2.985h.558v.581h-2.034v-.585h.003zm3.49 0h.662v-2.75h-.632v-.55c.232-.034.625-.068.904-.068.403 0 .541.098.541.387v2.985h.558v.581h-2.034v-.585z" fill="#5CB615" fill-rule="nonzero"/></svg>