<?xml version="1.0" encoding="UTF-8"?>
<svg width="24px" height="24px" viewBox="0 0 24 24" version="1.1" xmlns="http://www.w3.org/2000/svg" xmlns:xlink="http://www.w3.org/1999/xlink">
    <title>2.Regular/Carpeta_2Regular</title>
    <g id="Symbols" stroke="none" stroke-width="1" fill="none" fill-rule="evenodd">
        <g id="2.Regular/Carpeta_2Regular" fill="#5CB615" fill-rule="nonzero">
            <path d="M1.75798319,1.54957983 C1.6302521,1.54957983 1.53277311,1.64705882 1.53277311,1.77478992 L1.53277311,17.9495798 C1.53277311,18.0773109 1.6302521,18.1747899 1.75798319,18.1747899 L21.8689076,18.1747899 C21.9932773,18.1747899 22.0941176,18.0739496 22.0941176,17.9495798 L22.0941176,4.41008403 C22.0941176,4.28235294 21.9966387,4.18487395 21.8689076,4.18487395 L11.3176471,4.18487395 C10.8941176,4.18487395 10.5512605,3.84201681 10.5512605,3.41848739 L10.5512605,1.77478992 C10.5512605,1.64705882 10.4537815,1.54957983 10.3260504,1.54957983 L1.75798319,1.54957983 Z M21.8689076,19.7042017 L1.75798319,19.7042017 C0.789915966,19.7042017 0,18.9176471 0,17.9462185 L0,1.77478992 C0,0.806722689 0.786554622,0.0201680672 1.75798319,0.0201680672 L10.3260504,0.0201680672 C11.2941176,0.0201680672 12.0840336,0.806722689 12.0840336,1.77478992 L12.0840336,2.65210084 L21.8689076,2.65210084 C22.8369748,2.65210084 23.6235294,3.43865546 23.6235294,4.40672269 L23.6235294,17.9495798 C23.6235294,18.9176471 22.8369748,19.7042017 21.8689076,19.7042017 Z" id="Carpeta_2Regular"></path>
        </g>
    </g>
</svg>