<svg width="24" height="24" viewBox="0 0 24 24" xmlns="http://www.w3.org/2000/svg"><path d="M1.758 1.55a.221.221 0 00-.225.225V17.95c0 .127.097.225.225.225h20.11c.125 0 .226-.101.226-.225V4.41a.221.221 0 00-.225-.225H11.318a.766.766 0 01-.767-.767V1.775a.221.221 0 00-.225-.225H1.758zm20.11 18.154H1.759A1.76 1.76 0 010 17.946V1.775C0 .807.787.02 1.758.02h8.568c.968 0 1.758.787 1.758 1.755v.877h9.785c.968 0 1.755.787 1.755 1.755V17.95c0 .968-.787 1.754-1.755 1.754z" fill="#5CB615" fill-rule="nonzero"/></svg>