<svg width="24" height="24" xmlns="http://www.w3.org/2000/svg"><path d="M22.175 15.906V12.44a.271.271 0 00-.27-.275h-9.562c-1.012 0-1.832.843-1.832 1.879v.255c0 1.035.823 1.88 1.832 1.88h9.563a.268.268 0 00.269-.273zm-1.822 3.684l-.003-1.92h-8.007c-1.809 0-3.284-1.512-3.284-3.367v-.256c0-1.859 1.472-3.368 3.284-3.368h7.99l-.004-1.798c.027-.548-.094-.962-.35-1.244-.258-.286-.655-.437-1.142-.44L2.975 7.2v-.01a2.908 2.908 0 01-1.52-.44v12.726c-.026.537.095.95.353 1.23.263.289.676.447 1.167.45l15.862-.003c.407 0 .787-.161 1.072-.457.286-.296.444-.69.444-1.106zM1.455 4.097v.04c0 .38.138.74.384 1.026.033-.971.82-1.755 1.791-1.755l13.473-.968v-.894l-14.081.992c-.454.003-.837.165-1.123.457a1.576 1.576 0 00-.444 1.102zm16.37-.215L3.681 4.897c-.242.004-.4.148-.4.327v.406c0 .024-.01.047-.014.07l15.254.004v-1.52c0-.177-.158-.325-.35-.325l-.342.023h-.004zm4.08 6.794c.949 0 1.719.79 1.719 1.764v3.466c0 .971-.774 1.765-1.718 1.765h-.104l.003 1.919c0 .813-.306 1.58-.867 2.155a2.907 2.907 0 01-2.101.894l-15.869.003c-.894-.007-1.68-.336-2.215-.921-.535-.585-.793-1.375-.746-2.29V4.098c0-.813.309-1.58.867-2.154a2.907 2.907 0 012.1-.894L17.779.003c.215-.006.4.058.545.199a.746.746 0 01.228.544V2.42a1.805 1.805 0 011.422 1.762v1.73c.41.155.773.387 1.062.7.535.585.79 1.378.743 2.302l.004 1.762h.124zm-9.334 2.396c.646 0 1.17.538 1.17 1.2 0 .662-.524 1.2-1.17 1.2-.645 0-1.166-.538-1.166-1.2 0-.662.521-1.2 1.166-1.2z" fill="#313235" fill-rule="nonzero"/></svg>