<svg width="24" height="24" viewBox="0 0 24 24" xmlns="http://www.w3.org/2000/svg"><path d="M19.069 19.392h-.34c-.06 0-.12 0-.181-.01a.536.536 0 00-.178-.03c-.491-.142-.992-.757-.992-3.755 0-3.765.783-3.782 1.435-3.805h.132l.13.01c1.305.053 3.05.51 3.05 3.795-.007 3.27-1.752 3.73-3.056 3.795m-14.524-7.59c.02 0 .12-.01.14-.01h.21c.57.02 1.354.04 1.354 3.805 0 3.754-.783 3.771-1.436 3.795h-.272c-1.3-.064-3.035-.525-3.035-3.795 0-3.284 1.734-3.745 3.039-3.795M21.264 10.8C21.156 3.835 17.778 0 11.687 0c-6.12 0-9.512 3.89-9.57 10.951C.744 11.791 0 13.358 0 15.597c0 3.294 1.593 5.186 4.484 5.317l.333.01h.13c2.33-.08 2.811-2.188 2.811-5.327 0-3.15-.48-5.258-2.77-5.338a2.142 2.142 0 00-.36 0c-.06 0-.12 0-.14.01a5.64 5.64 0 00-.854.104c.221-5.862 2.92-8.837 8.057-8.837 5.136 0 7.832 2.965 8.064 8.807-.192-.02-.37-.06-.572-.07-.06-.01-.117-.01-.161-.01a1.909 1.909 0 00-.34 0c-2.336.08-2.806 2.187-2.806 5.337 0 2.054.211 3.66 1.011 4.551-1.042.582-2.295.962-3.76 1.157-.182-.686-.724-1.096-1.547-1.116-1.052-.03-1.704.564-1.735 1.667-.02.53.111.961.39 1.267.283.306.703.49 1.234.5h.08c.491 0 .895-.14 1.184-.42.09-.09.151-.211.212-.335 2.255-.236 4.134-.898 5.586-1.963.05.013.08.02.131.02h.151l.33-.01c2.887-.135 4.484-2.024 4.484-5.318-.003-2.376-.847-4.013-2.363-4.8" fill="#313235" fill-rule="nonzero"/></svg>