<svg width="24" height="24" viewBox="0 0 24 24" xmlns="http://www.w3.org/2000/svg"><path d="M17.252 19.862l-.013-.003c-.202 0-.484-.08-.77-.266-.3-.191-.49-.4-.565-.615a.818.818 0 00-1.032-.497.786.786 0 00-.507 1.008c.195.561.601 1.042 1.213 1.435.158.101.32.185.477.256-.37.565-.968.85-1.815.85-1.062 0-1.489-1.089-1.59-1.401a40.46 40.46 0 000-1.11V4.101c0-.209.007-.955.01-1.27.138-.317.622-1.241 1.58-1.241.854 0 1.442.276 1.809.84-.794.377-1.328 1.093-1.577 1.785l-.074.219 1.553.474.054-.165c.134-.37.467-.975 1.23-.985h.01c3.416 0 3.785 3.069 3.785 4.39 0 .37-.05 1.465-.517 2.467a4.713 4.713 0 00-1.634-.632c.04-.544-.185-1.059-.551-1.435l-.084-.087c-.31-.32-.787-.293-1.113.01-.326.302-.302.843.007 1.16.11.114.134.194.11.272h-.006c-.124.013-.276.03-.417.047a6.644 6.644 0 00-.494.09.794.794 0 00-.608.955c.1.43.544.7.974.595.142-.03.26-.054.347-.064.117-.013.248-.03.363-.04.41-.044 1.801-.101 2.696.83.857 1.126.924 2.696.924 3.153.01 1.318-.356 4.336-3.775 4.393M9.43 22.034c-.837 0-1.415-.27-1.785-.814.189-.077.38-.171.568-.292.612-.394 1.022-.874 1.214-1.436a.791.791 0 00-.508-1.008.817.817 0 00-1.032.498c-.074.215-.265.423-.564.615-.286.185-.558.265-.77.262-.037-.004-.07.01-.108.013-.01 0-.02-.003-.027-.003-3.415 0-3.784-3.072-3.784-4.39 0-.387.053-1.573.588-2.612.239.084.497.145.78.175.077.74.601 1.27 1.233 1.506.014.007.128.047.141.05.085.03.169.04.25.04.322 0 .608-.211.732-.537.155-.407-.108-.877-.521-1.032-.155-.057-.208-.124-.219-.208.989-.407 1.45-1.338 1.54-2.195l.02-.216a.806.806 0 00-.766-.84.801.801 0 00-.86.75l-.014.144c-.111 1.066-.985.988-1.274.972-.33-.027-.578-.118-.746-.246-.807-1.12-.878-2.632-.878-3.079 0-1.32.37-4.39 3.88-4.39h.006c.763 0 1.13.612 1.26.978l.064.195c.111.33.42.532.757.532a.814.814 0 00.265-.044.81.81 0 00.515-1.022l-.06-.178c-.26-.723-.814-1.452-1.668-1.815.373-.535.954-.81 1.778-.81 1.062 0 1.49 1.092 1.59 1.401-.003.273-.007.945 0 1.11v15.421c0 .209-.007.952-.01 1.271-.141.31-.625 1.234-1.587 1.234M22.664 8.148c0-2.622-1.277-5.66-4.911-5.95C17.165.793 15.914.003 14.24.003c-1.146 0-1.922.572-2.42 1.16-.524-.629-1.297-1.16-2.39-1.16-1.67 0-2.917.787-3.509 2.185-3.613.256-4.914 3.321-4.914 5.963 0 .673.1 2.273.944 3.66-.843 1.392-.944 2.996-.944 3.668 0 2.622 1.277 5.66 4.91 5.953.589 1.402 1.84 2.195 3.513 2.195 1.146 0 1.923-.572 2.42-1.16.525.629 1.298 1.16 2.39 1.16 1.67 0 2.918-.787 3.51-2.185 3.616-.255 4.914-3.321 4.914-5.963 0-.672-.101-2.269-.945-3.66.844-1.395.945-2.999.945-3.671" fill="#313235" fill-rule="nonzero"/></svg>