<?xml version="1.0" encoding="UTF-8"?>
<svg width="24px" height="24px" viewBox="0 0 24 24" version="1.1" xmlns="http://www.w3.org/2000/svg" xmlns:xlink="http://www.w3.org/1999/xlink">
    <title>2.Regular/Chat_hablar_2Regular</title>
    <g id="Symbols" stroke="none" stroke-width="1" fill="none" fill-rule="evenodd">
        <g id="2.Regular/Chat_hablar_2Regular" fill="#5CB615" fill-rule="nonzero">
            <path d="M20.2084034,1.02352941 C22.0907563,1.02352941 23.6201681,2.54621849 23.6201681,4.41848739 L23.6201681,15.9983193 C23.6201681,17.8705882 22.0907563,19.3932773 20.2084034,19.3932773 L7.55630252,19.3932773 L4.91428571,22.7747899 C4.50420168,23.3193277 4.02689076,23.3193277 3.87226891,23.3193277 C3.21680672,23.3193277 2.63865546,22.7613445 2.63865546,22.1260504 L2.63865546,19.3226891 C1.12268908,19.0134454 0.013445378,17.6621849 0.013445378,15.994958 L0.013445378,4.41848739 C0.013445378,2.54621849 1.54621849,1.02352941 3.42857143,1.02352941 L20.2084034,1.02352941 Z M20.205042,2.36806723 L3.42521008,2.36806723 C2.28571429,2.36806723 1.35798319,3.28907563 1.35798319,4.41848739 L1.35798319,15.9983193 C1.35798319,17.1680672 2.19831933,18.0487395 3.31092437,18.0487395 C3.68067227,18.0487395 3.98319328,18.3512605 3.98319328,18.7210084 L3.98319328,21.7831933 L6.69915966,18.3109244 C6.82689076,18.1495798 7.02184874,18.0521008 7.2302521,18.0521008 L20.205042,18.0521008 C21.3445378,18.0521008 22.2722689,17.1310924 22.2722689,16.0016807 L22.2722689,4.41848739 C22.2722689,3.28571429 21.3445378,2.36806723 20.205042,2.36806723 Z M14.3831933,12.189916 C14.7529412,12.189916 15.0554622,12.492437 15.0554622,12.8621849 C15.0554622,13.2319328 14.7529412,13.5344538 14.3831933,13.5344538 L4.65210084,13.5344538 C4.28235294,13.5344538 3.97983193,13.2319328 3.97983193,12.8621849 C3.97983193,12.492437 4.28235294,12.189916 4.65210084,12.189916 L14.3831933,12.189916 Z M18.9714286,6.94621849 C19.3411765,6.94621849 19.6436975,7.2487395 19.6436975,7.61848739 C19.6436975,7.98823529 19.3411765,8.2907563 18.9714286,8.2907563 L4.65210084,8.2907563 C4.28235294,8.2907563 3.97983193,7.98823529 3.97983193,7.61848739 C3.97983193,7.2487395 4.28235294,6.94621849 4.65210084,6.94621849 L18.9714286,6.94621849 Z" id="Chat_hablar_2Regular"></path>
        </g>
    </g>
</svg>