<svg width="24" height="24" xmlns="http://www.w3.org/2000/svg"><path d="M14.538 0c1.328 0 2.292.326 2.944.998.642.66.955 1.624.955 2.952v1.465h2.047c.834 0 1.371.538 1.371 1.372v8.42c-.003.83-.54 1.368-1.371 1.368l-2.047-.001v3.107c0 2.658-1.277 3.95-3.9 3.95H5.917c-2.625 0-3.9-1.292-3.9-3.95V3.95c0-2.622 1.312-3.95 3.9-3.95h8.622zm0 1.345H5.916c-1.839 0-2.555.729-2.555 2.605v15.73c0 .969.189 1.63.575 2.024.387.393 1.032.582 1.98.582h8.622c.948 0 1.593-.192 1.98-.582.386-.39.574-1.055.574-2.023v-3.107h-2.087c-.834 0-1.371-.537-1.371-1.37V7.878c0-.158.074-.31.201-.403l2.622-1.96a.519.519 0 01.303-.1l.332-.001V3.95c0-.958-.188-1.62-.571-2.014-.383-.393-1.035-.591-1.983-.591zM10.215 18.37c.693 0 1.143.363 1.146 1.15 0 .376-.104.658-.289.846-.201.205-.494.303-.857.303s-.655-.098-.857-.303c-.185-.191-.29-.47-.29-.847 0-.783.455-1.15 1.147-1.15zM20.484 6.424h-3.556L14.642 8.13v7.072c0 .283.08.363.363.363h5.479c.282 0 .363-.08.363-.363V6.787c0-.283-.08-.363-.363-.363zm-.702 3.405c.184 0 .336.15.336.336v4.252a.335.335 0 01-.336.336h-4.05a.337.337 0 01-.337-.336v-4.252c0-.185.151-.336.336-.336h4.05zm-3.04 3.576h-.673l.002.676.672-.001v-.675zm1.348 0h-.675v.675h.675v-.675zm1.355 0h-.682v.675h.682v-.675zm-3.377-1.557v.884h3.377v-.884h-3.377zm.675-1.348h-.676v.676h.676V10.5zm1.347 0h-.675v.676h.675V10.5zm1.355 0h-.682v.676h.682v-.675z" fill="#313235" fill-rule="nonzero"/></svg>