<svg width="24" height="24" viewBox="0 0 24 24" xmlns="http://www.w3.org/2000/svg"><path d="M18.918 21.91l2.961-2.962-1.849-1.849a.732.732 0 01-.208-.444l-.219-2.245-2.326-2.326-.662.662a.724.724 0 01-.655.199.736.736 0 01-.373-.199l-1.85-1.849-2.96 2.962 1.848 1.849a.726.726 0 010 1.025l-.665.665 2.316 2.316 2.319.135c.178.01.343.087.467.212l1.856 1.848zm4.494-3.473c.138.138.212.32.212.51a.725.725 0 01-.212.512l-3.983 3.986a.72.72 0 01-1.022 0l-2.165-2.164-2.32-.135a.734.734 0 01-.47-.212l-3.022-3.021a.722.722 0 010-1.022l.666-.666-1.849-1.849a.722.722 0 010-1.021L13.23 9.37a.745.745 0 011.025 0l1.853 1.853.662-.663a.726.726 0 011.025 0l3.022 3.022a.732.732 0 01.208.44l.219 2.246 2.168 2.168zM10.615 6.578l.666-.665-2.138-2.138-2.229-.067a.713.713 0 01-.49-.212L4.706 1.782l-2.958 2.96 1.714 1.719c.125.124.199.289.212.463l.148 2.155 2.148 2.148.659-.659 3.94-3.936a.36.36 0 01.046-.054zm1.072.978a.645.645 0 01-.047.05l-5.16 5.157a.725.725 0 01-1.021 0L2.605 9.909a.734.734 0 01-.212-.464l-.148-2.158L.212 5.25a.726.726 0 010-1.025L4.195.242a.722.722 0 011.022 0l2.027 2.024 2.228.067c.185.006.36.08.491.212l2.854 2.853c.134.138.212.32.212.511a.725.725 0 01-.212.511l-1.13 1.136z" fill="#313235" fill-rule="nonzero"/></svg>