<svg width="24" height="24" xmlns="http://www.w3.org/2000/svg"><path d="M15.163 16.736V15.53H13.19a.738.738 0 01-.74-.732v-1.95h-1.213V14.8c0 .403-.33.733-.74.733h-1.97v1.2h1.97c.407 0 .74.33.74.733v1.95h1.22l-.007-1.947a.738.738 0 01.74-.733h1.973zm.155-2.669c.716 0 1.32.558 1.32 1.224v1.684c0 .662-.604 1.223-1.32 1.223h-1.389l.004 1.375c0 .71-.565 1.304-1.237 1.304h-1.704c-.67 0-1.234-.595-1.234-1.304v-1.375H8.37c-.726 0-1.318-.548-1.318-1.223v-1.68c0-.663.602-1.224 1.318-1.224H9.76v-1.379c0-.709.565-1.307 1.237-1.307h1.698c.669 0 1.233.598 1.233 1.307v1.375h1.389zm4.346 8.094c2.514 0 2.514-2.168 2.514-2.88v-9.009H1.513v9.029c0 .033 0 .067-.004.1 0 0-.054 1.244.693 2.02.457.478 1.193.72 2.174.72h14.908c.06 0 .121.004.182.014.013 0 .09.006.198.006zM2.534 4.441c-.252.157-1.021.641-1.021 2.416V8.81h20.662V6.88c0-.036 0-.077.003-.114 0 0 .064-1.23-.672-2.006-.464-.488-1.21-.733-2.225-.733h-1.378v.215c0 .403-.33.73-.74.73a.737.737 0 01-.74-.73v-.215l-9.156.007v.211c0 .404-.33.73-.74.73a.737.737 0 01-.739-.73v-.211c-.887 0-1.428.003-1.428.003-.044 0-.088-.003-.131-.007-.004 0-.044-.003-.105-.003-.275-.003-.991.037-1.59.413zm16.75-1.88c4.713 0 4.366 4.316 4.366 4.316l.004 12.404c0 3.983-2.931 4.343-3.99 4.343-.232 0-.377-.02-.377-.02H4.38C-.26 23.603.037 19.3.037 19.3V6.854c0-4.007 3.187-4.293 4.09-4.293.152 0 .236.007.236.007l1.429-.003V.733c0-.404.329-.733.74-.733.41 0 .739.326.739.733v1.835l9.16-.007V.733c0-.404.329-.733.739-.733s.74.326.74.733v1.832h1.374V2.56z" fill="#313235" fill-rule="nonzero"/></svg>