<svg width="24" height="24" xmlns="http://www.w3.org/2000/svg"><path d="M5.763.034c1.019.02 2.024.517 2.988 1.482.367.36.683.763.945 1.2.517.834.706 1.697.558 2.561-.148.864-.629 1.708-1.436 2.515a6.848 6.848 0 01-.594.53c-.081.142-.03.589.594 1.503.727 1.056 1.937 2.306 2.784 3.153l.1.101c.848.847 2.098 2.057 3.153 2.783.915.625 1.362.672 1.503.595.165-.208.34-.41.531-.595.807-.807 1.654-1.29 2.518-1.435.864-.145 1.724.04 2.561.558.44.262.844.578 1.2.944.965.965 1.462 1.97 1.482 2.989.02 1.055-.477 2.117-1.472 3.163-.35.366-.837.716-.998.833l-.02.014a.185.185 0 00-.03.023c-.68.467-1.537.7-2.528.7-1.042 0-2.229-.256-3.513-.77-2.622-1.046-5.492-3.083-8.3-5.89l-.1-.1C4.882 14.087 2.85 11.217 1.8 8.595.802 6.084.775 3.939 1.733 2.555l.02-.03.013-.02c.115-.162.468-.65.834-1C3.645.512 4.708.014 5.763.035zm-.024 1.344c-.685-.01-1.431.356-2.208 1.103-.185.174-.41.447-.672.813l-.03.04c-.673.992-.595 2.727.218 4.767.978 2.454 2.911 5.166 5.587 7.842l.047.047.013.013.05.04c2.676 2.68 5.389 4.61 7.843 5.587 2.04.814 3.774.894 4.766.219l.04-.027c.363-.262.636-.488.814-.672.743-.78 1.116-1.523 1.102-2.209-.013-.665-.37-1.341-1.089-2.064a4.604 4.604 0 00-.934-.736l-.02-.01c-.558-.35-1.093-.47-1.634-.38-.582.098-1.183.457-1.792 1.062a4.8 4.8 0 00-.474.538c-.023.027-.047.054-.07.078-.286.265-.8.537-1.614.329-.46-.118-.978-.376-1.583-.79-1.15-.786-2.457-2.057-3.344-2.941l-.101-.1c-.884-.885-2.151-2.196-2.941-3.342-.414-.605-.673-1.123-.79-1.583-.205-.814.067-1.328.332-1.617a.506.506 0 01.078-.07 4.8 4.8 0 00.538-.475c.605-.605.96-1.206 1.062-1.791.09-.541-.034-1.076-.38-1.634l-.01-.02a4.724 4.724 0 00-.736-.934c-.726-.713-1.402-1.07-2.068-1.083zm15.009.995c.316.027.605.188.793.44l1.362 1.516c.215.242.315.562.275.881a1.09 1.09 0 01-.44.75l-3.62 3.183.793.88c.232.26.302.589.185.885-.118.295-.393.487-.743.514l-5.52.427c-.026.003-.053.003-.077.003a.908.908 0 01-.897-1.116l1.163-5.442c.07-.336.296-.585.598-.669.303-.084.622.024.854.28l.803.887 3.637-3.126c.222-.216.528-.32.834-.293zm-.111 1.445l-3.724 3.204a1.024 1.024 0 01-1.419-.09l-.36-.4-.84 3.935 3.933-.306-.336-.37a1.006 1.006 0 01-.015-1.328l.089-.09c.003-.003.006-.007.01-.007l3.768-3.317-1.106-1.23z" fill="#313235" fill-rule="nonzero"/></svg>