<svg width="24" height="24" viewBox="0 0 24 24" xmlns="http://www.w3.org/2000/svg"><path d="M21.123 17.659c.76-.01 1.146-.427 1.146-1.24 0-.81-.38-1.224-1.123-1.227-.013 0-.027-.007-.037-.007a18.473 18.473 0 01-.245 2.467l.12.01h.139v-.003zm-.599-6.33c.202-.195.303-.484.303-.86 0-.377-.1-.666-.303-.864-.198-.188-.477-.282-.833-.282-.088 0-.168.006-.246.016-.013.004-.016 0-.023-.01-.01-.01-.007-.013-.004-.03.017-.124.03-.252.03-.39 0-.558-.15-.988-.45-1.28-.289-.28-.702-.42-1.237-.42-.53 0-.944.14-1.233.423a1.424 1.424 0 00-.346.592c-.004.006-.007.013-.014.016-.007.004-.013.004-.023.004a2.669 2.669 0 00-.377-.03c-.531 0-.948.14-1.234.423-.09.087-.16.185-.225.296-.013.023-.017.027-.043.03-.027.003-.03 0-.05-.02-.256-.252-.633-.38-1.11-.38-.477 0-.85.128-1.106.38a1.088 1.088 0 00-.208.31s-.068.04-.111.026c-.057-.02-.078-.09-.078-.09-.04-.32-.134-.596-.322-.78-.232-.226-.565-.34-.992-.34-.427 0-.756.114-.992.34a1.207 1.207 0 00-.279.473c-.003.007-.006.017-.016.017-.02 0-.03-.013-.037-.013-.189-.145-.407-.212-.716-.212-.353 0-.636.094-.827.282a.958.958 0 00-.222.367c-.003.013-.007.027-.024.037-.016.01-.03.006-.053.003a1.432 1.432 0 00-.212-.013c-.356 0-.635.094-.824.282a.74.74 0 00-.117.171c-.017.03-.024.047-.054.06-.034.01-.06.004-.094-.01a1.125 1.125 0 00-.353-.056c-.296 0-.524.077-.686.235a.687.687 0 00-.128.178c-.02.037-.033.057-.07.074-.04.02-.067.01-.114.003a1.29 1.29 0 00-.263-.023c-.292 0-.524.08-.682.235-.165.162-.249.4-.249.71v.413H9.58a.197.197 0 01.044-.007h1.835c.013 0 .03.003.044.007H19.7c.353-.014.628-.108.823-.293zm-.783 2.753c0-.067 0-.601.004-1.069h-.037c-.007 0-.01.004-.017.004h-3.92l-1.633.003H11.55c-.037 0-.068-.003-.101-.007H9.637c-.034.004-.064.007-.104.007H6.914l-3.022.02v.87c.024 5.497 1.163 7.352 4.515 7.352.188 0 .366-.01.54-.023h5.692a8.31 8.31 0 001.122 0h.125c.033-.007.064-.014.1-.017 2.73-.283 3.711-2.151 3.755-7.14zM2.726 17.66c.01 0 .044-.004.06-.004a18.523 18.523 0 01-.245-2.46c-.736.013-1.112.423-1.112 1.227 0 .81.383 1.227 1.142 1.24h.155v-.003zm18.427-3.87c1.156.011 2.504.707 2.504 2.633 0 1.923-1.354 2.625-2.514 2.642h-.198a16.455 16.455 0 01-.437-.03c-.622 1.879-1.832 3.257-4.195 3.56a.63.63 0 01-.24.046h-.261a7.248 7.248 0 01-1.217-.003l-5.6.003c-.161.014-.37.024-.588.024-3.025 0-4.562-1.351-5.298-3.634-.181.024-.289.03-.356.034h-.208c-1.16-.017-2.515-.72-2.515-2.642 0-1.91 1.325-2.605 2.474-2.629v-.985a1.476 1.476 0 01-.212-.171 1.41 1.41 0 01-.41-.995v-.44c0-.878.367-1.419.673-1.718.265-.262.716-.585 1.495-.545.293-.36.743-.581 1.385-.494.222-.316.609-.49.978-.463.01-.014.048.02.058.006.4-.548.86-.72 1.768-.72.074 0 .188.021.262.028.36-.303.928-.72 1.805-.72.897 0 1.462.414 1.818.72.28-.084.602-.135.975-.135.343 0 .646.044.904.118.333-.208.777-.39 1.358-.447.06-.074.125-.145.192-.208.38-.374 1.072-.817 2.198-.817 1.13 0 1.819.443 2.202.817.302.292.649.77.8 1.495.323.135.561.313.73.478.332.322.729.91.729 1.872 0 .965-.4 1.55-.733 1.876a2.633 2.633 0 01-.35.268v1.18c.004 0 .007-.003.014-.003h.01zM11.079 2.493c-.776.222-1.069.706-.874 1.446l.037.138 2.387-.68c-.024-.046-.058-.09-.074-.144-.209-.723-.703-.981-1.476-.76zm-7.92 5.029a.696.696 0 01-.668-.508.704.704 0 01.48-.867l5.933-1.69-.043-.155c-.303-1.133 0-2.639 1.838-3.16 1.835-.528 2.867.598 3.19 1.718.017.057.014.114.017.171l5.828-1.66a.69.69 0 01.858.484.704.704 0 01-.481.867L3.345 7.494a.56.56 0 01-.185.027z" fill="#313235" fill-rule="nonzero"/></svg>