<svg width="24" height="24" viewBox="0 0 24 24" xmlns="http://www.w3.org/2000/svg"><path d="M10.171 19.644c.599 0 1.083.171 1.432.507.367.353.552.847.552 1.476 0 .628-.185 1.123-.552 1.476-.346.336-.83.507-1.432.507-.601 0-1.082-.171-1.432-.507-.366-.353-.55-.848-.55-1.476 0-.629.184-1.123.55-1.476.35-.336.834-.507 1.432-.507zm6.555 0c.598 0 1.082.171 1.432.507.363.353.551.847.551 1.476 0 .628-.185 1.123-.551 1.476-.346.336-.83.507-1.432.507s-1.082-.171-1.432-.507c-.366-.353-.551-.848-.551-1.476 0-.629.185-1.123.551-1.476.35-.336.834-.507 1.432-.507zm-6.555 1.344c-.49 0-.638.148-.638.639 0 .49.148.639.638.639.491 0 .64-.148.64-.64 0-.49-.149-.638-.64-.638zm6.555 0c-.49 0-.639.148-.639.639 0 .49.148.639.64.639.49 0 .638-.148.638-.64 0-.49-.148-.638-.639-.638zM2.31.013c1.64 0 3.022 1.06 3.284 2.521.059.327.266 1.521.526 3.025h3.642l.017.001 4.168-4.38a.669.669 0 01.488-.209c.184 0 .36.078.487.209l1.126 1.186V2.3c0-.37.303-.672.672-.672h1.967c.37 0 .672.302.672.672v3.3a.666.666 0 01.218-.036h3.348a.674.674 0 01.652.837l-.907 3.63c-.454 1.815-.918 3.694-1.062 4.239-.32 1.23-.783 2.134-1.419 2.77-.669.669-1.512 1.008-2.507 1.008h-7.51c-1.005 0-1.895-.34-2.578-.978-.709-.669-1.17-1.634-1.364-2.867C6.074 13.217 4.487 4.01 4.266 2.77c-.145-.807-.985-1.412-1.96-1.412H.686A.674.674 0 01.013.686c0-.37.303-.673.673-.673h1.623zm18.83 7.721a.674.674 0 01-.487 1.137h-1.294v3.916c0 .816-.51 1.327-1.328 1.327h-7.21c-.82 0-1.328-.507-1.328-1.327V8.87H8.198a.674.674 0 01-.487-1.137l.79-.83H6.35c.514 2.978 1.111 6.46 1.212 7.09.148.93.467 1.633.958 2.097.43.406.988.615 1.654.615h7.506c.82 0 1.983-.286 2.625-2.773.141-.541.605-2.414 1.059-4.229.259-1.038.507-2.04.699-2.796h-1.709l.784.826zm-6.705-5.112l-4.67 4.907h.4c.37 0 .673.303.673.673v4.568h7.176V8.198c0-.37.303-.672.673-.672h.403l-.89-.938a.674.674 0 01-.186-.464V2.971h-.621v1.083a.674.674 0 01-1.16.464l-1.798-1.896z" fill="#313235" fill-rule="nonzero"/></svg>