<svg width="24" height="24" xmlns="http://www.w3.org/2000/svg"><path d="M10.171 19.644c.599 0 1.083.171 1.432.507.367.353.552.847.552 1.476 0 .628-.185 1.123-.552 1.476-.346.336-.83.507-1.432.507-.601 0-1.082-.171-1.432-.507-.366-.353-.55-.848-.55-1.476 0-.629.184-1.123.55-1.476.35-.336.834-.507 1.432-.507zm6.555 0c.598 0 1.082.171 1.432.507.363.353.551.847.551 1.476 0 .628-.185 1.123-.551 1.476-.346.336-.83.507-1.432.507s-1.082-.171-1.432-.507c-.366-.353-.551-.848-.551-1.476 0-.629.185-1.123.551-1.476.35-.336.834-.507 1.432-.507zm-6.555 1.344c-.49 0-.638.148-.638.639 0 .49.148.639.638.639.491 0 .64-.148.64-.64 0-.49-.149-.638-.64-.638zm6.555 0c-.49 0-.639.148-.639.639 0 .49.148.639.64.639.49 0 .638-.148.638-.64 0-.49-.148-.638-.639-.638zM16.68.007c1.452 0 2.188.743 2.188 2.211v3.345h4.057a.674.674 0 01.652.837l-.039.155-.09.36-.778 3.115c-.26 1.037-.522 2.096-.726 2.914l-.097.387c-.107.427-.191.756-.24.938-.319 1.23-.782 2.134-1.418 2.77-.669.669-1.512 1.008-2.507 1.008h-7.51c-1.005 0-1.895-.34-2.578-.978-.709-.669-1.17-1.634-1.364-2.867C6.074 13.217 4.487 4.01 4.266 2.77c-.145-.807-.985-1.412-1.96-1.412H.686A.674.674 0 01.013.686c0-.37.303-.673.673-.673h1.623c1.64 0 3.022 1.06 3.284 2.521.059.327.266 1.52.526 3.024h3.87v-3.34c0-1.448.757-2.211 2.19-2.211h4.5zm-6.69 6.897H6.351l.17.984.122.71c.427 2.481.838 4.884.92 5.395.148.931.467 1.634.958 2.098.43.406.988.615 1.654.615h7.506c.82 0 1.983-.286 2.625-2.773.04-.155.107-.418.192-.758l.091-.363.776-3.108c.259-1.038.507-2.04.699-2.796l-3.198-.001.001 4.169c-.003 1.469-.74 2.215-2.188 2.215h-4.5c-1.453 0-2.19-.743-2.19-2.212V6.904zm6.69-5.889h-4.5c-.871 0-1.18.316-1.18 1.203v8.858c0 .91.285 1.203 1.18 1.203h4.5c.89 0 1.18-.292 1.18-1.203V2.218c0-.91-.286-1.203-1.18-1.203zm-2.252 8.777c.43 0 .71.225.706.709 0 .235-.064.407-.178.524-.125.128-.306.188-.528.188-.222 0-.403-.06-.528-.188-.114-.117-.178-.292-.178-.524 0-.484.276-.71.706-.71z" fill="#313235" fill-rule="nonzero"/></svg>