<svg width="24" height="24" viewBox="0 0 24 24" xmlns="http://www.w3.org/2000/svg"><path d="M10.171 19.644c.599 0 1.083.171 1.432.507.367.353.552.847.552 1.476 0 .628-.185 1.123-.552 1.476-.346.336-.83.507-1.432.507-.601 0-1.082-.171-1.432-.507-.366-.353-.55-.848-.55-1.476 0-.629.184-1.123.55-1.476.35-.336.834-.507 1.432-.507zm6.555 0c.598 0 1.082.171 1.432.507.363.353.551.847.551 1.476 0 .628-.185 1.123-.551 1.476-.346.336-.83.507-1.432.507s-1.082-.171-1.432-.507c-.366-.353-.551-.848-.551-1.476 0-.629.185-1.123.551-1.476.35-.336.834-.507 1.432-.507zm-6.555 1.344c-.49 0-.638.148-.638.639 0 .49.148.639.638.639.491 0 .64-.148.64-.64 0-.49-.149-.638-.64-.638zm6.555 0c-.49 0-.639.148-.639.639 0 .49.148.639.64.639.49 0 .638-.148.638-.64 0-.49-.148-.638-.639-.638zM2.31.013c1.64 0 3.022 1.06 3.284 2.521.059.327.266 1.521.526 3.025h3.897V4.131a.515.515 0 01.006-.094l-.005.09c0-.57.504-1.014 1.502-1.314.784-.235 1.819-.366 2.908-.366s2.124.131 2.907.366c.894.268 1.392.652 1.486 1.14a.559.559 0 01.024.178v1.431l4.08.001a.674.674 0 01.652.837l-.907 3.63c-.454 1.815-.918 3.691-1.062 4.239-.32 1.23-.783 2.134-1.419 2.77-.669.669-1.512 1.008-2.507 1.008h-7.51c-1.005 0-1.895-.34-2.578-.978-.709-.669-1.17-1.634-1.364-2.867C6.074 13.217 4.487 4.01 4.266 2.77c-.145-.807-.985-1.412-1.96-1.412H.686A.674.674 0 01.013.686c0-.37.303-.673.673-.673h1.623zM18.844 13.51c0 .572-.505 1.015-1.503 1.315-.783.238-1.818.366-2.91.366-1.093 0-2.125-.131-2.912-.366-.998-.3-1.502-.743-1.502-1.315V6.903l-3.666.001.109.63.122.708c.448 2.604.895 5.215.981 5.751.148.931.467 1.634.958 2.098.43.406.988.615 1.654.615h7.506c.82 0 1.983-.286 2.625-2.773l.151-.594.085-.34c.183-.728.434-1.739.693-2.773l.13-.518c.259-1.04.507-2.04.699-2.8h-3.22v6.601zm-1.009-1.986a5.087 5.087 0 01-.494.178c-.783.235-1.818.366-2.907.366-1.09 0-2.125-.13-2.911-.366l-.16-.054-.037-.011a4.917 4.917 0 01-.012-.005l.209.07a4.786 4.786 0 01-.494-.178l-.004 1.953c.044.05.256.252.992.443.665.172 1.522.266 2.413.266.891 0 1.748-.094 2.414-.266.736-.188.948-.39.991-.443v-1.953zm-.3-3.013l-.194.061c-.783.236-1.818.367-2.907.367h-.004c-1.092 0-2.124-.131-2.91-.367a4.637 4.637 0 01-.492-.175l-.003 1.947c.04.05.249.252.992.444.665.171 1.522.265 2.413.265.891 0 1.748-.094 2.414-.265.743-.192.951-.397.991-.444l.001-1.949a4.25 4.25 0 01-.302.116zm.3-3.243a5.087 5.087 0 01-.494.178c-.783.236-1.818.367-2.907.367-1.09 0-2.125-.131-2.908-.367l-.094-.032-.106-.033a4.862 4.862 0 01-.028-.01l.228.075a4.724 4.724 0 01-.38-.13l-.114-.048-.007 1.95c.04.05.249.252.992.444.665.17 1.522.265 2.413.265.891 0 1.748-.094 2.414-.265.743-.192.951-.397.991-.444v-1.95zM14.43 3.455c-.89 0-1.748.095-2.413.266-.615.161-.864.326-.955.407.05.044.15.116.332.198.147.066.348.138.623.208.665.172 1.522.266 2.413.266.891 0 1.748-.094 2.414-.266.571-.147.826-.302.932-.388l.022-.018c-.09-.08-.34-.246-.954-.407-.666-.171-1.523-.266-2.414-.266z" fill="#313235" fill-rule="nonzero"/></svg>