<svg width="24" height="24" viewBox="0 0 24 24" xmlns="http://www.w3.org/2000/svg"><path d="M11.812.017c3.761 0 6.675.975 8.672 2.897 2.07 1.997 3.123 4.989 3.123 8.898s-1.052 6.9-3.123 8.897c-1.997 1.923-4.914 2.898-8.672 2.898-3.758 0-6.676-.975-8.673-2.898C1.07 18.713.017 15.721.017 11.812c0-3.906 1.049-6.901 3.122-8.898C5.133.992 8.05.017 11.812.017zm0 1.348c-3.399 0-6.004.847-7.738 2.52-1.798 1.732-2.71 4.4-2.71 7.93 0 3.53.912 6.195 2.71 7.93 1.734 1.673 4.34 2.52 7.738 2.52 3.398 0 6.003-.847 7.738-2.52 1.798-1.732 2.709-4.4 2.709-7.93 0-3.53-.911-6.195-2.71-7.93-1.734-1.673-4.339-2.52-7.737-2.52zm3.849 3.388c.85 0 1.566.252 2.067.726.538.51.81 1.24.81 2.165 0 .884-.252 1.593-.75 2.1-.504.518-1.24.79-2.13.79-.892 0-1.628-.272-2.132-.79a2.433 2.433 0 01-.208-.245l-3.177 1.59c.044.225.064.467.064.723 0 .259-.02.5-.064.73l3.173 1.586c.081-.111.175-.215.276-.313.497-.474 1.213-.726 2.067-.726.854 0 1.57.252 2.08.72.539.51.81 1.24.81 2.164 0 .884-.251 1.593-.749 2.1-.504.519-1.24.79-2.13.79-.892 0-1.628-.271-2.132-.79-.497-.507-.75-1.212-.75-2.1 0-.208.017-.407.044-.595l-3.233-1.617c-.044.05-.084.101-.131.148-.505.518-1.24.79-2.132.79-.89 0-1.626-.272-2.13-.79-.498-.507-.75-1.213-.75-2.1 0-.925.272-1.654.81-2.165.497-.474 1.217-.726 2.067-.726.85 0 1.566.252 2.067.726.07.067.138.14.199.215l3.23-1.614a3.839 3.839 0 01-.044-.601c0-.925.272-1.654.81-2.165.498-.474 1.214-.726 2.068-.726zm-.004 9.68c-1.049 0-1.536.491-1.536 1.547 0 .524.124.914.366 1.163.25.255.642.383 1.17.383.528 0 .921-.128 1.17-.383.242-.249.366-.639.366-1.163 0-1.056-.487-1.546-1.536-1.546zm-8.336-4.167c-1.049 0-1.536.49-1.536 1.546 0 .524.124.914.366 1.163.249.255.642.383 1.17.383.528 0 .921-.128 1.17-.383a1.108 1.108 0 00.238-.377c.084-.215.128-.477.128-.786 0-.296-.037-.545-.114-.753a.515.515 0 01-.047-.108c-.222-.464-.672-.685-1.375-.685zM15.657 6.1c-1.049 0-1.536.49-1.536 1.546 0 .524.124.914.366 1.163.25.256.642.383 1.17.383.528 0 .921-.127 1.17-.383.242-.249.366-.642.366-1.163 0-1.055-.487-1.546-1.536-1.546z" fill="#313235" fill-rule="nonzero"/></svg>