<svg width="24" height="24" xmlns="http://www.w3.org/2000/svg"><path d="M19.079 19.496a3.054 3.054 0 01-3.052-3.052 3.056 3.056 0 013.052-3.052 3.057 3.057 0 013.055 3.052 3.06 3.06 0 01-3.055 3.052M7.792 8.739a2.942 2.942 0 015.882 0 2.942 2.942 0 01-5.882 0m-4.43 8.528c-.999 0-1.806-.81-1.806-1.808a1.807 1.807 0 013.614 0c0 1.002-.81 1.808-1.809 1.808m7.385 4.81a1.244 1.244 0 11.003-2.487c.686 0 1.244.558 1.244 1.244 0 .685-.558 1.243-1.247 1.243M3.365 3.987A1.244 1.244 0 113.368 1.5c.686 0 1.244.557 1.244 1.243S4.05 3.987 3.365 3.987m17.19.608a1.43 1.43 0 11-.002 2.859 1.43 1.43 0 01.002-2.859m-1.476 7.274c-1.11 0-2.114.413-2.908 1.072l-1.825-1.603a4.41 4.41 0 00.85-2.599c0-.114-.026-.221-.033-.332l2.88-.85a2.945 2.945 0 002.512 1.418 2.953 2.953 0 002.95-2.951 2.957 2.957 0 00-3.028-2.878A2.953 2.953 0 0017.6 6.024c0 .023.007.047.007.073l-2.81.83a4.462 4.462 0 00-4.068-2.645c-1.19 0-2.329.474-3.163 1.318L5.778 4.067c.219-.396.356-.843.356-1.328a2.77 2.77 0 00-5.539.004 2.77 2.77 0 002.766 2.766c.488 0 .938-.138 1.335-.36l2 1.715a4.392 4.392 0 00-.43 1.879c0 .951.305 1.832.816 2.558l-1.63 1.593a3.282 3.282 0 00-2.094-.756 3.333 3.333 0 00-3.331 3.324 3.337 3.337 0 003.331 3.331 3.332 3.332 0 003.331-3.33c0-.485-.11-.945-.296-1.359l1.765-1.724a4.433 4.433 0 005.096.037L15.17 14.1a4.504 4.504 0 00-.67 2.346c0 .595.122 1.156.33 1.677l-1.993.918a2.75 2.75 0 00-2.09-.971 2.77 2.77 0 00-2.77 2.766 2.772 2.772 0 002.77 2.766 2.767 2.767 0 002.766-2.766c0-.141-.02-.276-.04-.41l2.164-.995c.837.965 2.06 1.59 3.439 1.59a4.58 4.58 0 004.578-4.575 4.578 4.578 0 00-4.575-4.578" fill="#313235" fill-rule="nonzero"/></svg>