<svg width="24" height="24" viewBox="0 0 24 24" xmlns="http://www.w3.org/2000/svg"><path d="M18.802 0C21.39 0 22.7 1.328 22.7 3.95v15.73c0 2.66-1.274 3.95-3.9 3.95H10.18c-2.625 0-3.9-1.29-3.9-3.95v-3.916a1.007 1.007 0 01-.964-1.008v-.628c-.09-.024-.178-.054-.266-.084l-.426.427a1.008 1.008 0 01-1.426 0l-.88-.878a1.008 1.008 0 010-1.425l.423-.43a6.13 6.13 0 01-.084-.266H2.03c-.558 0-1.009-.45-1.009-1.008V9.22c0-.558.45-1.008 1.009-1.008h.635c.023-.091.054-.178.084-.266L2.32 7.52a1.008 1.008 0 010-1.425l.877-.88a1.008 1.008 0 011.426 0l.426.426a6.13 6.13 0 01.266-.084v-.628c0-.558.45-1.009 1.008-1.009l-.044.002.005-.25c.042-1.185.354-2.06.95-2.673C7.887.326 8.852 0 10.18 0h8.622zm0 1.345H10.18c-.948 0-1.597.194-1.983.591-.383.393-.568 1.043-.572 1.986.529.03.951.468.951 1.012v.629c.091.024.179.054.266.084l.427-.427a1.008 1.008 0 011.425 0l.877.877a1.008 1.008 0 010 1.426l-.426.427c.03.087.057.174.084.265h.628c.558 0 1.009.45 1.009 1.009v1.243c0 .558-.45 1.009-1.009 1.009h-.628c-.024.09-.054.178-.084.265l.426.427a1.008 1.008 0 010 1.425l-.877.878a1.008 1.008 0 01-1.425 0l-.427-.427a6.13 6.13 0 01-.266.084v.628c0 .558-.45 1.009-1.008 1.009l.057-.004v3.92c0 .968.188 1.63.575 2.023.387.393 1.035.582 1.98.582h8.622c.948 0 1.593-.192 1.98-.582.386-.39.574-1.055.574-2.023V3.95c0-1.876-.716-2.605-2.554-2.605zM14.506 18.37c.692 0 1.146.366 1.146 1.15 0 .376-.104.655-.289.846-.202.205-.494.303-.857.303s-.656-.098-.857-.303c-.185-.188-.29-.47-.29-.847 0-.786.451-1.15 1.147-1.15zM7.568 4.928l-1.24.003V6.39c-.582.06-1.08.215-1.493.464l-.924-.925-.88.878.92.924c-.242.403-.4.9-.464 1.493H2.03v1.243h1.458c.064.592.219 1.09.464 1.493l-.924.924.88.877.925-.924c.413.249.914.4 1.492.464v1.459h1.244V13.3c.582-.06 1.08-.214 1.493-.463l.924.924.877-.877-.924-.924c.242-.404.4-.901.464-1.493h1.459V9.224H10.4c-.06-.592-.218-1.09-.463-1.493l.924-.928-.877-.877-.924.924c-.414-.248-.915-.4-1.493-.463v-1.46zm-.622 2.164c.83 0 1.5.236 1.987.706.507.491.766 1.177.766 2.047 0 .871-.259 1.557-.766 2.047-.488.468-1.157.706-1.987.706-.83 0-1.499-.235-1.986-.706-.508-.49-.767-1.176-.767-2.047 0-.87.26-1.556.767-2.047.487-.467 1.156-.706 1.986-.706zm0 1.009c-1.106 0-1.744.551-1.744 1.744 0 1.194.638 1.745 1.744 1.745 1.106 0 1.745-.551 1.745-1.745 0-1.193-.639-1.744-1.745-1.744z" fill="#313235" fill-rule="nonzero"/></svg>