<svg width="24" height="24" xmlns="http://www.w3.org/2000/svg"><path d="M16.35.01c.178 0 .35.07.474.198l6.554 6.555a.66.66 0 01.198.474v14.995c0 .823-.534 1.355-1.354 1.358-.363.003-.726.003-1.093.003H8.541c-.854 0-1.385-.534-1.385-1.391v-4.94a6.95 6.95 0 01-2.098-1.183L1.16 20.128a.672.672 0 11-.968-.934l3.913-4.065a6.963 6.963 0 013.05-11l.001-2.74C7.156.54 7.687.012 8.538.01h7.812zm-.674 1.347l-7.175.001v2.444a6.96 6.96 0 015.893 11.815 6.91 6.91 0 01-4.922 2.04c-.33 0-.654-.023-.972-.067v4.659H22.23V7.912h-2.602c-1.146 0-2.135-.38-2.85-1.099-.716-.719-1.1-1.704-1.1-2.85V1.357zM9.472 5.08a5.614 5.614 0 00-5.613 5.62 5.614 5.614 0 005.62 5.614 5.618 5.618 0 003.966-9.59 5.575 5.575 0 00-3.973-1.644zm7.55-2.77v1.654c0 .783.242 1.439.702 1.903.46.463 1.12.705 1.9.705h1.653L17.022 2.31z" fill="#313235" fill-rule="nonzero"/></svg>