<svg width="24" height="24" viewBox="0 0 24 24" xmlns="http://www.w3.org/2000/svg"><path d="M21.738 17.973c.52-.33.53-.52.32-.938-.216-.376-.62-.52-.986-.396l-4.427 1.502a7.326 7.326 0 00-.376.151c-.34.212-.73.326-1.13.326H9.321a.722.722 0 01-.723-.722v-.004c0-.393.32-.726.723-.726h5.818c.377 0 .77-.393.77-.773 0-.346-.215-.706-.608-.706h-.33c-.964.02-2.974.068-4.874-1.122-.01-.01-.984-.568-4.104-.646v5.247l5.536 2.67c.404.231.888.339 1.473.339.5 0 .914-.078 1.25-.232.03-.02 5.721-2.85 7.486-3.97zM4.555 21.237v-7.93a.263.263 0 00-.263-.262H1.714a.268.268 0 00-.269.263v7.929a.277.277 0 00.27.272h2.57a.275.275 0 00.27-.272zm18.773-4.877c.346.658.682 1.892-.82 2.84-1.819 1.15-7.395 3.933-7.637 4.057-.538.242-1.167.37-1.87.37-.846 0-1.57-.175-2.147-.514L6 20.773v.464c0 .948-.76 1.721-1.714 1.721H1.714A1.72 1.72 0 010 21.237v-7.93c0-.944.766-1.71 1.714-1.71h2.572c.645 0 1.193.36 1.492.88 3.718.06 4.911.743 5.123.888 1.492.938 3.15.9 4.047.88h.373a2.02 2.02 0 011.445.639c.367.387.589.928.589 1.516l3.247-1.13c1.042-.356 2.158.068 2.679 1.006-.004-.004.047.084.047.084zM2.975 13.835c.51 0 .857.347.857.86 0 .502-.346.851-.857.851-.501 0-.857-.35-.857-.85 0-.511.356-.86.857-.86zM15.654 1.45c-3.449 0-5.123 1.684-5.123 5.143 0 3.458 1.674 5.14 5.123 5.14 3.452 0 5.13-1.682 5.13-5.14-.004-3.46-1.681-5.143-5.13-5.143zm0 11.734c-4.236 0-6.568-2.34-6.568-6.588C9.082 2.339 11.416 0 15.654 0c4.238 0 6.571 2.343 6.571 6.592 0 4.252-2.336 6.591-6.571 6.591zm-2.78-6.93v.678h1.718c.4 0 .722.323.722.723l.004 1.724h.675V7.654c0-.4.323-.726.723-.726h1.718v-.68h-1.718a.724.724 0 01-.723-.725V3.802h-.679l.004 1.724c0 .4-.323.723-.72.726h-1.724zm.998 2.127h-1.348c-.591 0-1.092-.467-1.092-1.019V5.825c0-.554.5-1.022 1.092-1.022h1.345V3.45c0-.595.467-1.096 1.015-1.096h1.533c.551 0 1.015.5 1.015 1.1V4.8h1.348c.591 0 1.092.467 1.092 1.018v1.537c0 .55-.5 1.018-1.092 1.018h-1.348v1.355c0 .595-.464 1.096-1.015 1.096H14.89c-.552 0-1.015-.501-1.015-1.096l-.004-1.348z" fill="#5CB615" fill-rule="nonzero"/></svg>