<svg width="24" height="24" xmlns="http://www.w3.org/2000/svg"><path d="M7.613 19.365a.722.722 0 01-.722-.723v-4.669a.724.724 0 011.445 0v4.669a.722.722 0 01-.723.723zm0 .403a.736.736 0 110 1.472.736.736 0 010-1.472zM22.208 9.012V5.29a7.469 7.469 0 01-1.68.712c-1.439.434-3.311.666-5.284.666-1.97 0-3.846-.232-5.274-.666-.676-.205-1.247-.453-1.701-.732v3.452c.175.107.32.259.417.443l.242.491c.386.242.887.464 1.459.635 1.304.397 3.031.609 4.867.609 1.835 0 3.553-.212 4.857-.609 1.2-.356 1.855-.897 2.097-1.28zm0 5.697v-3.771a7.241 7.241 0 01-1.68.743c-1.432.423-3.304.665-5.274.665-1.97 0-3.852-.242-5.284-.665-.01-.01-.03-.01-.037-.02l2.356 4.732a20.82 20.82 0 002.965.212c1.835 0 3.553-.222 4.857-.608 1.2-.35 1.855-.891 2.097-1.288zm0 5.304V16.64a6.84 6.84 0 01-1.68.743c-1.432.433-3.304.675-5.274.675-.763 0-1.486-.05-2.202-.114l2.027 4.06c.037.068.037.145.057.212h.094c1.825 0 3.557-.212 4.867-.605.962-.296 2.111-.807 2.111-1.597zM7.664 10.36L1.687 22.145l11.87.047L7.663 10.36zm2.716-8.273c-1.11.337-1.805.784-2.017 1.254.202.49.908.945 2.027 1.27 1.304.397 3.032.61 4.857.61 1.835 0 3.563-.213 4.867-.61 1.103-.325 1.815-.769 2.027-1.253-.262-.608-1.217-1.022-2.037-1.274-1.304-.387-3.032-.608-4.867-.608-1.835.003-3.566.225-4.857.611zM20.518.7c2.087.625 3.14 1.63 3.14 2.988V20.01c0 1.351-1.053 2.353-3.14 2.978-1.439.434-3.321.666-5.284.666-.192 0-.858 0-1.063-.01-.02 0-.047-.01-.077-.01h-.05L1.16 23.587h-.02c-.599 0-1.1-.495-1.11-1.11-.01-.191.037-.376.125-.54L6.645 9.15c.047-.078.108-.145.175-.212V3.68c0-.212.03-.424.088-.636v-.01C7.207 2.003 8.228 1.213 9.95.692c1.438-.426 3.31-.665 5.28-.665 1.977.007 3.86.249 5.288.672z" fill="#313235" fill-rule="nonzero"/></svg>