<svg width="24" height="24" xmlns="http://www.w3.org/2000/svg"><path d="M20.245 20.363c-1.233.366-2.863.571-4.588.571-1.116 0-2.181-.094-3.14-.252 1.154-.974 2.128-2.114 2.337-3.31.017-.095.03-.199.047-.303.255.01.51.02.77.02 1.865 0 3.643-.225 5.001-.632a6.486 6.486 0 001.533-.669v3.11c.003.726-1.066 1.196-1.96 1.465zm-18.39-3.24a17.41 17.41 0 01-.181-1.56H6.86v6.124c-1.886-1.038-4.716-2.92-5.006-4.564zM1.5 10.208c1.388 0 2.293-.598 3.106-1.136.669-.44 1.314-.857 2.256-1.011v6.057H1.587a103.04 103.04 0 01-.101-3.913h.013v.003zm7.61-5.16c.427.256.945.478 1.56.66 1.358.406 3.133.631 5.002.631 1.865 0 3.643-.225 5.001-.631a6.95 6.95 0 001.536-.642V8.48c-.215.363-.82.864-1.95 1.203-1.327.4-3.176.602-5.014.561.003-.467.003-.78.003-.83a.726.726 0 00-.269-.544.782.782 0 00-.595-.162c-1.317.205-2.02-.255-2.907-.843-.652-.43-1.368-.895-2.363-1.14V5.05h-.004zm1.963-3.035c1.227-.366 2.857-.571 4.585-.571 1.731 0 3.361.202 4.588.571.763.229 1.644.609 1.893 1.167-.202.433-.86.84-1.883 1.15-1.226.366-2.853.567-4.584.567-1.732 0-3.358-.201-4.585-.57-1.036-.31-1.691-.724-1.886-1.164.205-.434.847-.84 1.872-1.15zm4.152 9.678c.147.003.295.01.447.01 1.865 0 3.643-.225 5.001-.632a6.627 6.627 0 001.533-.669v3.469c-.215.36-.823.864-1.95 1.203-1.226.367-2.853.572-4.584.572-.209 0-.414-.01-.619-.017.1-1.267.148-2.74.172-3.936zM8.309 8.044c1.002.138 1.667.571 2.363 1.028.804.531 1.701 1.123 3.116 1.123h.004c-.007.894-.03 2.44-.101 3.923H8.306V8.044h.003zm0 13.704v-6.185h5.298a17.537 17.537 0 01-.178 1.56c-.293 1.677-3.234 3.596-5.12 4.625zM20.662.632C19.304.225 17.526 0 15.657 0c-1.869 0-3.644.225-5.005.632-1.644.494-2.622 1.247-2.907 2.239a2.194 2.194 0 00-.088.615V6.55h-.023c-1.836 0-2.895.7-3.832 1.318-.888.588-1.58 1.059-2.87.854a.727.727 0 00-.902.699c0 .228-.017 5.613.397 7.953.544 3.106 6.252 5.875 6.9 6.181a.717.717 0 00.62.004c.292-.138 1.616-.78 3.031-1.725 1.321.35 2.955.552 4.676.552 1.862 0 3.637-.226 5.005-.632 1.986-.599 2.991-1.557 2.991-2.85V3.491c.007-1.304-1.001-2.262-2.988-2.86z" fill="#313235" fill-rule="nonzero"/></svg>