<svg width="24" height="24" xmlns="http://www.w3.org/2000/svg"><path d="M20.756 22.138c-.914 0-1.381-.43-1.391-1.277v-.185c.013-.592.265-1.288 1.351-1.311.017 0 .03.01.047.01s.034-.01.05-.01c1.09.02 1.335.712 1.345 1.31v.162c-.01.864-.48 1.3-1.402 1.3zm-16.43-1.472v.174c-.013.864-.484 1.301-1.405 1.301-.918 0-1.385-.43-1.392-1.28v-.004l.004-.175c.013-.601.269-1.317 1.401-1.317 1.13-.004 1.379.706 1.392 1.3zm3.953-9.298v-1.31c.161.063.32.13.5.187.828.25 1.903.384 3.033.384s2.205-.138 3.028-.384c.175-.05.33-.117.488-.184v1.304c0 .134-.29.363-.921.551-1.389.413-3.815.413-5.2 0-.639-.182-.928-.413-.928-.548zm.924-9.573c.693-.208 1.614-.32 2.599-.32.985 0 1.912.115 2.601.32.407.121.656.259.797.376-.118.098-.346.232-.79.363-1.378.414-3.818.414-5.197 0-.433-.127-.668-.265-.796-.373.128-.104.36-.238.786-.366zM8.28 6.908c.161.063.32.13.5.184.828.25 1.903.384 3.033.384s2.205-.138 3.028-.384c.175-.05.33-.117.488-.184v1.415c-.125.14-.414.35-.918.5-1.378.414-3.818.414-5.197 0-.568-.17-.83-.37-.934-.484V6.908zm.5-2.952c.828.249 1.903.383 3.033.383s2.205-.137 3.028-.383c.182-.053.333-.117.488-.181V5.17c-.121.14-.417.35-.918.5-1.378.414-3.815.414-5.197 0-.571-.167-.83-.37-.93-.48V3.768c.157.067.312.135.497.188zM23.655 20.64c-.017-1.11-.605-2.38-2.141-2.69v-2.292a.746.746 0 00-.747-.743h-8.242c.004-.03.02-.057.02-.09v-1.116c.851-.047 1.648-.169 2.293-.36 1.64-.49 1.987-1.348 1.987-1.977V2.35c0-.629-.347-1.486-1.987-1.977-1.657-.494-4.407-.494-6.064 0-1.079.323-1.724.837-1.926 1.53-.04.14-.064.292-.064.447v9.021c0 .629.346 1.486 1.99 1.977.639.191 1.429.313 2.272.36v1.116c0 .03.014.057.017.09H2.911a.743.743 0 00-.75.746l.01 2.293C.65 18.269.057 19.536.031 20.639c-.004.074-.004.158-.004.235.013 1.27.776 2.753 2.887 2.753 2.115 0 2.884-1.49 2.901-2.766v-.222c-.023-1.11-.612-2.384-2.148-2.69L3.661 16.4h16.352v1.553c-1.526.316-2.12 1.586-2.147 2.7v.22c.01 1.272.773 2.754 2.887 2.754 2.11 0 2.884-1.49 2.9-2.766.004-.081.004-.165 0-.222z" fill="#313235" fill-rule="nonzero"/></svg>