<svg width="24" height="24" viewBox="0 0 24 24" xmlns="http://www.w3.org/2000/svg"><path d="M22.918 18.745c.37 0 .672.302.672.672 0 .37-.303.672-.672.672H.713a.674.674 0 01-.673-.672c0-.37.303-.672.673-.672h22.205zM19.68 3.01c1.317 0 2.33.393 3.005 1.166.628.72.944 1.762.944 3.1v5.926c0 1.337-.32 2.38-.944 3.099-.676.773-1.688 1.166-3.005 1.166H3.95c-1.318 0-2.33-.393-3.005-1.163C.319 15.582 0 14.54 0 13.202V7.276c0-1.338.32-2.38.945-3.1C1.62 3.403 2.629 3.01 3.95 3.01h15.73zm0 1.345L3.95 4.358c-.928 0-1.577.232-1.99.706-.407.464-.615 1.21-.615 2.212v5.926c0 1.001.208 1.748.615 2.215.413.474 1.065.706 1.99.706h15.73c.925 0 1.577-.232 1.99-.706.407-.467.616-1.214.616-2.215V7.276c0-1.002-.209-1.748-.615-2.215-.414-.474-1.066-.706-1.99-.706zm-5.22 1.563c.504 0 .9.137 1.193.413.306.29.46.71.46 1.247 0 .514-.144.925-.427 1.21-.282.286-.712.447-1.23.447s-.941-.154-1.227-.447l-.045-.052-2.375 1.186a2.482 2.482 0 010 .596l2.374 1.186c.027-.03.054-.058.083-.086.29-.272.69-.413 1.194-.413s.904.138 1.193.413c.306.29.46.71.46 1.248 0 .514-.144.924-.427 1.21-.282.285-.712.447-1.23.447s-.941-.155-1.227-.447c-.285-.293-.423-.696-.423-1.21 0-.074.003-.146.008-.215l-2.424-1.213-.104.093c-.278.223-.664.346-1.114.346-.518 0-.941-.154-1.227-.447-.285-.292-.427-.696-.427-1.21 0-.538.155-.958.46-1.247.29-.272.69-.413 1.194-.413s.904.137 1.193.413l.028.03 2.421-1.21a2.612 2.612 0 01-.008-.215c0-.538.154-.958.46-1.247.29-.272.69-.413 1.194-.413z" fill="#5CB615" fill-rule="nonzero"/></svg>