<svg width="24" height="24" viewBox="0 0 24 24" xmlns="http://www.w3.org/2000/svg"><path d="M21.775 11.987c.181-.182.306-.394.333-.572l-.01-.222.01-9.354a.324.324 0 00-.326-.323h-9.61c-.132.03-.354.158-.532.34l-9.774 9.77c-.35.35-.377.713-.337.774l9.691 9.687c.067.05.44.014.78-.329l9.775-9.771zm1.849-10.145l-.007 9.331.007.252c0 .034-.007.145-.01.178a2.635 2.635 0 01-.764 1.456l-9.778 9.771c-.52.521-1.163.794-1.754.794a1.62 1.62 0 01-1.17-.464l-9.69-9.688c-.377-.376-.532-.934-.424-1.53.094-.497.36-.99.756-1.387L10.568.783c.403-.403.894-.672 1.388-.763.024-.007.131-.017.152-.017L21.782 0c1.015 0 1.838.827 1.842 1.842zM18.76 6.914c.75-.75.743-1.485-.02-2.252-.387-.386-.767-.581-1.143-.581-.37 0-.74.188-1.11.558-.75.75-.742 1.485.02 2.252.764.766 1.5.776 2.253.023zM15.412 3.57c1.348-1.348 3.035-1.341 4.396.023 1.365 1.365 1.372 3.049.024 4.397-.672.672-1.425 1.008-2.182 1.008-.766 0-1.529-.343-2.215-1.028-1.364-1.365-1.374-3.052-.023-4.4z" fill="#5CB615" fill-rule="nonzero"/></svg>