<svg width="24" height="24" viewBox="0 0 24 24" xmlns="http://www.w3.org/2000/svg"><path d="M15.845 0c1.331 0 2.3.323 2.965.992.666.669.985 1.633.985 2.958v15.73c0 1.338-.326 2.313-.992 2.975-.665.656-1.63.975-2.958.975H7.98c-1.328 0-2.296-.32-2.958-.975-.67-.662-.992-1.637-.992-2.974V3.95c0-1.305.323-2.263.988-2.938C5.691.332 6.658 0 7.98 0h7.865zm0 1.345H7.98c-1.849 0-2.605.756-2.605 2.605v15.73c0 1.9.706 2.606 2.605 2.606h7.865c1.9 0 2.605-.706 2.605-2.605V3.95c0-.952-.195-1.61-.591-2.01-.397-.4-1.059-.595-2.014-.595zm-3.929 16.81c.837 0 1.331.5 1.331 1.337 0 .41-.118.737-.346.972-.229.235-.578.366-.988.366-.41 0-.753-.127-.985-.366-.232-.239-.346-.565-.346-.972 0-.837.497-1.337 1.334-1.337zM10.837 3.929h2.205c.578 0 1.045.464 1.049 1.042 0 .037 0 .071-.007.108v5.842h1.788a.598.598 0 01.454.995l-3.97 4.571a.59.59 0 01-.45.209.603.603 0 01-.454-.209l-3.96-4.571a.598.598 0 01.06-.847.608.608 0 01.394-.148h1.725V5.015c-.01-.299.107-.585.326-.79a1.08 1.08 0 01.84-.296zm2.047 1.204h-2.01v6.39a.601.601 0 01-.602.601H9.264l2.642 3.056 2.652-3.056h-1.072a.601.601 0 01-.602-.601v-6.39z" fill="#5CB615" fill-rule="nonzero"/></svg>