<svg width="24" height="24" xmlns="http://www.w3.org/2000/svg"><path d="M16.526 0a.68.68 0 01.464.185l6.555 6.218a.669.669 0 01.208.488v15.412c0 .705-.622 1.327-1.328 1.327H7.67c-.706 0-1.328-.622-1.328-1.327V16.4c0-.11.027-.213.073-.304a37.13 37.13 0 01-.167-.167l-.08-.08c-2.169-2.168-3.742-4.387-4.552-6.42-.786-1.977-.8-3.674-.033-4.78.006-.01.013-.017.02-.027l.01-.014a5.92 5.92 0 01.659-.786c.833-.797 1.687-1.19 2.537-1.173.52.01 1.032.172 1.533.483V1.328C6.341.645 6.987 0 7.67 0h8.857zm-1.01 1.344H7.714a.102.102 0 00-.027.027v3.006c.097.13.188.267.272.406.837 1.351.588 2.8-.696 4.088a5.28 5.28 0 01-.433.39c-.004.077.033.41.605 1.183.488.661 1.185 1.398 1.738 1.957l.305.305c.575.575 1.429 1.408 2.185 1.966.773.572 1.106.609 1.183.605a5.28 5.28 0 01.39-.433c1.284-1.288 2.733-1.533 4.084-.7.35.209.67.461.952.75.77.77 1.17 1.577 1.183 2.4.017.85-.38 1.708-1.173 2.538-.28.292-.663.568-.787.659l-.013.01-.027.02c-.548.376-1.237.565-2.03.565-.82 0-1.752-.202-2.757-.602-1.585-.632-3.283-1.729-4.982-3.21v4.998c.004.007.01.01.014.014h14.703l.006-.007V8.218h-2.94c-1.147 0-2.135-.38-2.851-1.099-.716-.719-1.1-1.704-1.1-2.85V1.344zM3.199 4.794a4.52 4.52 0 00-.497.601l-.02.03c-.484.716-.417 1.993.185 3.51.937 2.352 2.83 4.54 4.252 5.966l.037.033.013.014.037.037c1.422 1.422 3.61 3.314 5.963 4.252 1.513.605 2.79.672 3.51.185l.03-.02c.336-.242.514-.404.601-.498 1.066-1.116 1.07-2.003.01-3.059a3.529 3.529 0 00-.682-.54l-.02-.01c-.511-.32-1.321-.616-2.434.5a3.62 3.62 0 00-.353.4c-.023.027-.047.054-.07.077-.25.229-.693.467-1.385.29-.373-.095-.787-.3-1.264-.63-.69-.47-1.486-1.172-2.588-2.275l-.078-.077c-1.102-1.103-1.801-1.9-2.275-2.588-.33-.478-.535-.891-.629-1.264-.175-.693.06-1.136.29-1.385a.506.506 0 01.077-.07 3.62 3.62 0 00.4-.354c1.112-1.112.82-1.922.5-2.433l-.01-.02a3.43 3.43 0 00-.54-.683c-1.06-1.059-1.944-1.055-3.06.01zm18.887 2.079l-5.223-4.955v2.35c0 .784.246 1.44.706 1.9.46.46 1.12.706 1.9.706l2.617-.001z" fill="#313235" fill-rule="nonzero"/></svg>