<svg width="24" height="24" viewBox="0 0 24 24" xmlns="http://www.w3.org/2000/svg"><path d="M17.795 6.793l1.385-4.279 2.454 4.28h-3.839zm-.467 1.446h4.148l-7.537 10.46 3.389-10.46zm-11.032 0l3.388 10.46L2.151 8.24h4.145zm.793-2.296L5.634 1.445h4.79L7.089 5.943zM13.2 1.445h4.79l-1.456 4.498L13.2 1.445zM8.272 6.793l3.54-4.773 3.54 4.773h-7.08zm7.52 1.446l-3.98 12.292L7.832 8.24h7.96zM4.444 2.514l1.385 4.28H1.987l2.457-4.28zM23.62 7.53l.004-.013c0-.013-.007-.024-.007-.037a.826.826 0 00-.067-.269c-.007-.017-.01-.034-.02-.047L19.63.37c-.006-.014-.023-.02-.033-.034a.656.656 0 00-.199-.198 3.129 3.129 0 00-.094-.054c-.03-.017-.054-.037-.087-.047-.054-.017-.104-.013-.155-.017-.023-.003-.044-.017-.067-.017H4.632c-.024 0-.044.017-.064.017-.054.004-.104 0-.158.017-.034.01-.057.034-.087.047-.034.017-.064.03-.094.054a.697.697 0 00-.199.198c-.01.01-.027.017-.033.034l-3.9 6.793c-.01.017-.01.034-.02.047-.01.024-.016.044-.027.067a.694.694 0 00-.04.202c0 .013-.007.027-.007.04 0 .004.004.01.004.014a.78.78 0 00.05.249c.01.02.02.036.027.053.017.034.03.07.054.104l11.079 15.385.003.004c.06.08.141.144.229.195.023.01.043.023.067.033.09.04.192.07.296.07a.752.752 0 00.363-.103.751.751 0 00.228-.195l.004-.004L23.486 7.94c.023-.033.037-.07.053-.104.01-.017.02-.033.027-.053a.666.666 0 00.054-.253z" fill="#5CB615" fill-rule="nonzero"/></svg>