<svg width="24" height="24" xmlns="http://www.w3.org/2000/svg"><path d="M11.815 0c3.748 0 6.669.982 8.676 2.914 2.084 2.007 3.14 5.002 3.14 8.901 0 3.9-1.056 6.89-3.14 8.901-2.007 1.933-4.928 2.914-8.676 2.914s-6.669-.981-8.676-2.914C1.055 18.706 0 15.711 0 11.816c0-3.897 1.055-6.892 3.14-8.902C5.145.982 8.066 0 11.814 0zm0 1.345c-3.388 0-5.993.853-7.741 2.537-1.812 1.745-2.73 4.414-2.73 7.933 0 3.52.918 6.185 2.73 7.933 1.748 1.684 4.353 2.538 7.741 2.538s5.993-.854 7.741-2.538c1.812-1.745 2.73-4.414 2.73-7.933 0-3.52-.918-6.185-2.73-7.933-1.748-1.684-4.353-2.537-7.74-2.537zm-.003 2.608c.37 0 .672.302.672.672l.001.906c.923.092 1.778.364 2.46.785.312.192.484.464.484.766 0 .44-.357.797-.797.797a1.11 1.11 0 01-.49-.138l-.01-.007a5.078 5.078 0 00-1.646-.583l-.001 3.826.231.033c1.063.173 1.89.531 2.46 1.067.622.585.942 1.378.942 2.357 0 1.095-.4 2.02-1.157 2.675-.615.535-1.46.87-2.473.985v.914a.672.672 0 11-1.345 0v-.894a6.759 6.759 0 01-3.234-1.166c-.269-.188-.4-.43-.4-.736 0-.45.373-.817.834-.817.195.007.383.067.544.175.748.497 1.503.807 2.254.921V12.47c-2.754-.451-3.346-2.07-3.346-3.37 0-1.99 1.292-3.341 3.344-3.57v-.905c0-.37.303-.672.673-.672zm.676 8.707v3.83c1.238-.192 1.98-.919 1.98-1.99 0-.726-.249-1.5-1.98-1.84zm-2.471-5.02c-.373.333-.572.807-.572 1.372 0 .53.158.914.501 1.21.272.234.672.417 1.195.544L11.14 7.14c-.458.077-.84.246-1.123.5z" fill="#313235" fill-rule="nonzero"/></svg>