<svg width="24" height="24" viewBox="0 0 24 24" xmlns="http://www.w3.org/2000/svg"><path d="M16.212.03c.275 0 .534.104.733.293l6.363 6.161c.205.202.316.467.316.746v14.767c0 .9-.774 1.66-1.691 1.66H7.314c-.9 0-1.69-.776-1.69-1.66l.04-3.328h-2.76A2.913 2.913 0 010 15.758v-4.914a2.913 2.913 0 012.904-2.911h2.72V1.69c0-.87.806-1.66 1.69-1.66h8.898zM15.16 1.492H7.318c-.088 0-.226.132-.232.202v6.242h7.637a2.91 2.91 0 012.904 2.911v4.914a2.913 2.913 0 01-2.904 2.911H7.126l-.04 3.335c0 .06.12.191.232.191h14.615c.117 0 .232-.114.232-.201V8.276h-2.773c-1.217 0-2.27-.397-3.042-1.143-.78-.753-1.19-1.785-1.19-2.978V1.492zm-.44 7.903H2.903c-.8 0-1.449.652-1.449 1.452v4.914c0 .8.65 1.452 1.45 1.452h11.814c.8 0 1.45-.652 1.45-1.452v-4.914c0-.8-.65-1.452-1.45-1.452zm-7.322 1.748v.622l-2.124 3.072h2.138v.746H3.993v-.595l2.158-3.099H4.057v-.746h3.341zm1.762-.004v4.444H8.145V11.14H9.16zm2.497 0c.696 0 1.136.098 1.422.364.242.221.356.564.356 1.038 0 .474-.11.83-.332 1.08-.26.292-.663.43-1.248.43h-.716v1.532h-1.015V11.14h1.533zm-.037.737h-.474v1.418h.501v-.003c.326 0 .46-.047.592-.168.117-.118.174-.306.174-.565 0-.239-.05-.417-.168-.528-.124-.11-.312-.154-.625-.154zm4.998-9.839v2.118c0 .79.26 1.455.747 1.929.497.48 1.196.733 2.03.733h2.161l-4.938-4.78z" fill="#5CB615" fill-rule="nonzero"/></svg>