<svg width="24" height="24" viewBox="0 0 24 24" xmlns="http://www.w3.org/2000/svg"><path d="M16.212.03c.279 0 .54.104.736.3l6.356 6.15c.135.135.212.296.262.465a.735.735 0 01.058.285v14.767c0 .9-.774 1.66-1.691 1.66H7.314c-.9 0-1.69-.776-1.69-1.66l.04-3.328h-2.76A2.913 2.913 0 010 15.758v-4.914a2.913 2.913 0 012.904-2.911h2.72V1.69c0-.87.806-1.66 1.69-1.66h8.898zm-1.06 1.462H7.312c-.087 0-.225.132-.232.202v6.242h7.637a2.91 2.91 0 012.904 2.911v4.914a2.913 2.913 0 01-2.904 2.911H7.119l-.04 3.335c0 .06.121.191.232.191h14.622c.117 0 .232-.114.232-.201V8.276h-2.777c-1.217 0-2.269-.397-3.042-1.143-.78-.757-1.193-1.785-1.193-2.978V1.492zm-.433 7.903H2.904c-.8 0-1.449.652-1.449 1.452v4.914c0 .8.65 1.452 1.45 1.452h11.814c.8 0 1.45-.652 1.45-1.452v-4.914c0-.8-.65-1.452-1.45-1.452zm-6.09 1.694c.43 0 .897.064 1.24.182l-.155.753a4.34 4.34 0 00-1.065-.155c-.545 0-.72.195-.72.474 0 .87 2.266.272 2.266 2.007 0 .396-.138.712-.37.934-.312.292-.733.424-1.371.424-.565-.004-1.025-.074-1.472-.232l.154-.773c.39.137.901.221 1.227.221.598 0 .877-.154.877-.564 0-.83-2.265-.229-2.265-1.973 0-.901.709-1.298 1.654-1.298zm-3.98.084c.696 0 1.136.098 1.422.363.238.222.356.565.356 1.039s-.111.83-.333 1.079c-.259.292-.662.43-1.247.43h-.713v1.533H3.123v-4.444h1.526zm7.694 0c.844 0 1.402.131 1.771.5.357.35.538.902.538 1.702 0 .807-.175 1.364-.538 1.741-.332.336-.843.5-1.637.5h-1.506v-4.443h1.372zm-.044.74h-.312v2.96h.43c.454 0 .78-.137.954-.396.175-.259.236-.558.236-1.102 0-.636-.098-.935-.313-1.17-.202-.215-.5-.292-.995-.292zm-7.687-.004h-.478v1.415h.501v-.003c.326 0 .46-.047.592-.168.118-.118.175-.306.175-.565 0-.238-.05-.417-.168-.524-.125-.111-.313-.155-.622-.155zm12.003-9.872v2.118c0 .79.259 1.455.746 1.929.498.48 1.197.733 2.03.733h2.162l-4.938-4.78z" fill="#5CB615" fill-rule="nonzero"/></svg>