<svg width="24" height="24" viewBox="0 0 24 24" xmlns="http://www.w3.org/2000/svg"><path d="M16.208 0c.28 0 .538.104.737.296L23.3 6.447c.138.131.215.292.265.464a.735.735 0 01.058.286v14.766c0 .9-.774 1.66-1.691 1.66H7.314c-.9 0-1.687-.776-1.687-1.66l.04-3.324h-2.76A2.914 2.914 0 010 15.728v-4.911a2.91 2.91 0 012.904-2.911h2.72V1.66C5.624.79 6.43 0 7.31 0h8.897zm-1.052 1.459H7.314c-.084 0-.225.134-.232.205v6.242h7.637a2.91 2.91 0 012.905 2.91v4.912a2.91 2.91 0 01-2.905 2.91H7.123l-.04 3.335c0 .06.117.192.231.192h14.619v-.004c.117 0 .232-.114.232-.201V8.242h-2.777c-1.217 0-2.265-.397-3.038-1.146-.78-.753-1.194-1.785-1.194-2.978v-2.66zm-.437 7.906H2.908c-.8 0-1.45.648-1.45 1.452v4.91c0 .8.65 1.453 1.45 1.453h11.811c.8 0 1.45-.652 1.45-1.452v-4.911c0-.8-.65-1.452-1.45-1.452zM6.161 11.24l1.597 4.42H6.679l-.37-1.112H4.874L4.53 15.66h-.965l1.483-4.42H6.16zm2.515 0l1.035 3.207.965-3.207h.981l-1.469 4.42H9.136l-1.54-4.42h1.08zm4.561 0v4.42h-1.008v-4.42h1.008zM5.58 12.346h-.014l-.46 1.472h.958l-.484-1.472zM16.615 2.003v2.118c0 .79.259 1.455.75 1.93.497.48 1.196.732 2.027.732h2.16l-4.937-4.78z" fill="#5CB615" fill-rule="nonzero"/></svg>