<svg width="24" height="24" xmlns="http://www.w3.org/2000/svg"><path d="M16.212.027c.279 0 .54.104.736.3l6.356 6.15c.135.131.212.296.262.468a.735.735 0 01.058.285v14.767c0 .9-.774 1.66-1.691 1.66H7.314c-.9 0-1.687-.776-1.687-1.66l.04-3.328h-2.76a2.913 2.913 0 01-2.904-2.911v-4.914a2.913 2.913 0 012.905-2.911h2.719V1.687c0-.867.803-1.66 1.687-1.66h8.898zm-1.06 1.465H7.312c-.087 0-.225.132-.232.202v6.242h7.637a2.91 2.91 0 012.904 2.911v4.914a2.913 2.913 0 01-2.904 2.911H7.119l-.04 3.335c0 .06.121.191.232.191h14.622c.117 0 .232-.114.232-.201V8.276h-2.777c-1.217 0-2.269-.397-3.042-1.143-.78-.757-1.193-1.785-1.193-2.978V1.492zm-.433 7.903H2.904c-.8 0-1.449.652-1.449 1.452v4.914c0 .8.65 1.452 1.45 1.452h11.814c.8 0 1.45-.652 1.45-1.452v-4.914c0-.8-.65-1.452-1.45-1.452zm-11.307 1.71l1.395 2.468 1.442-2.467h.776v4.417h-.924v-2.545l-.918 1.536h-.776l-.945-1.563v2.572h-.844v-4.417h.794zm6.09 0c.693 0 1.13.098 1.416.364.238.218.356.561.356 1.032 0 .47-.111.827-.33 1.072-.258.29-.658.427-1.24.427h-.709v1.523H7.987v-4.417h1.516zm4.202-.002l-.995 2.712h1.022v-1.052h.924v1.052h.518v.693h-.518v1.015h-.924v-1.015h-1.943a.934.934 0 01-.027-.226c0-.181.034-.386.135-.672l.917-2.507h.891zm-4.242.732h-.47v1.409h.494c.322 0 .457-.044.588-.168.118-.118.175-.303.175-.562 0-.238-.05-.413-.168-.524-.121-.111-.31-.155-.619-.155zm7.153-9.798v2.118c0 .79.259 1.455.746 1.929.498.48 1.197.733 2.03.733h2.162l-4.938-4.78z" fill="#313235" fill-rule="nonzero"/></svg>