<svg width="24" height="24" viewBox="0 0 24 24" xmlns="http://www.w3.org/2000/svg"><path d="M16.212.03c.279 0 .54.104.736.3l6.356 6.15c.135.132.212.296.262.465a.735.735 0 01.058.285v14.767c0 .9-.774 1.66-1.691 1.66H7.314c-.9 0-1.69-.776-1.69-1.66l.04-3.328h-2.76A2.913 2.913 0 010 15.758v-4.914a2.913 2.913 0 012.904-2.911h2.72V1.69c0-.87.806-1.66 1.69-1.66h8.898zm-1.056 1.462H7.314c-.087 0-.225.132-.232.202v6.242h7.637a2.91 2.91 0 012.905 2.911v4.914a2.913 2.913 0 01-2.905 2.911H7.123l-.04 3.335c0 .06.12.191.231.191h14.619c.117 0 .232-.114.232-.201V8.276h-2.777c-1.217 0-2.269-.397-3.042-1.143-.78-.753-1.19-1.782-1.19-2.978V1.492zm-.437 7.903H2.904c-.8 0-1.449.652-1.449 1.452v4.914c0 .8.65 1.452 1.45 1.452h11.814c.8 0 1.45-.652 1.45-1.452v-4.914c0-.8-.65-1.452-1.45-1.452zm-5.953 1.613c.424 0 .888.064 1.227.182l-.154.746a4.263 4.263 0 00-1.056-.154c-.541 0-.712.191-.712.47 0 .86 2.242.269 2.242 1.987 0 .393-.135.706-.367.924-.309.29-.726.417-1.354.417-.558-.007-1.012-.077-1.456-.232l.155-.763c.386.134.894.218 1.213.218.592 0 .867-.154.867-.558 0-.823-2.242-.225-2.242-1.953 0-.894.7-1.284 1.637-1.284zm3.792 0c.424 0 .887.064 1.227.182l-.155.746a4.263 4.263 0 00-1.055-.154c-.541 0-.713.191-.713.47 0 .86 2.242.269 2.242 1.987 0 .393-.134.706-.366.924-.31.29-.726.417-1.355.417-.554-.007-1.012-.077-1.455-.232l.154-.763c.387.134.894.218 1.214.218.591 0 .867-.154.867-.558 0-.823-2.242-.225-2.242-1.953 0-.894.7-1.284 1.637-1.284zm-7.11 0c.38 0 .868.084 1.15.199l-.127.732a3.558 3.558 0 00-.945-.154c-.944 0-1.163.622-1.163 1.496 0 .52.098.958.316 1.2.192.218.47.316.965.316.211 0 .551-.04.81-.091l.104.733c-.262.077-.746.134-1.106.134-.78 0-1.267-.185-1.597-.531-.373-.4-.534-.971-.534-1.734 0-1.375.622-2.3 2.128-2.3zm11.167-8.971v2.118c0 .79.259 1.455.746 1.929.498.48 1.197.733 2.03.733h2.162l-4.938-4.78z" fill="#5CB615" fill-rule="nonzero"/></svg>