<svg width="24" height="24" viewBox="0 0 24 24" xmlns="http://www.w3.org/2000/svg"><path d="M16.212.03c.275 0 .534.104.733.293l6.36 6.158c.13.127.208.292.261.464a.735.735 0 01.058.285v14.767c0 .9-.774 1.66-1.691 1.66H7.314c-.9 0-1.69-.776-1.69-1.66l.04-3.328h-2.76A2.913 2.913 0 010 15.758v-4.91a2.913 2.913 0 012.904-2.912h2.72V1.691c0-.87.806-1.66 1.69-1.66h8.898zm-1.056 1.462H7.314c-.087 0-.225.132-.232.202v6.242h7.637a2.91 2.91 0 012.905 2.911v4.911a2.91 2.91 0 01-2.905 2.91H7.123l-.04 3.335c0 .06.12.192.231.192h14.619v.003c.117 0 .232-.114.232-.201V8.276h-2.777c-1.217 0-2.265-.397-3.038-1.143-.78-.757-1.194-1.785-1.194-2.978V1.492zm-.437 7.906H2.904c-.8 0-1.449.652-1.449 1.452v4.911c0 .8.65 1.452 1.45 1.452h11.814c.8 0 1.45-.652 1.45-1.452v-4.91c0-.8-.65-1.453-1.45-1.453zm-10.43 2v2.777c0 .484-.08.746-.279.944-.178.172-.46.252-.9.252-.192 0-.32-.013-.6-.05l-.063-.679c.178.034.377.047.46.047.377 0 .495-.1.495-.534v-2.757h.887zm9.476-.074c.386 0 .847.081 1.099.189l-.114.648a3.468 3.468 0 00-.921-.14c-.787 0-1.11.466-1.11 1.313 0 .437.057.797.229 1.036.141.198.376.312.753.312.141 0 .336-.016.474-.04v-.82h-.548v-.639h1.428v1.987c-.37.114-.96.198-1.388.198-1.398.003-1.872-.766-1.872-2 0-1.217.642-2.044 1.97-2.044zm-7.311.074c.608 0 .995.084 1.247.32.212.195.312.494.312.91 0 .417-.097.73-.289.945-.228.256-.581.377-1.092.377h-.625v1.344h-.888v-3.896h1.335zm4.813 0l-.067.642H9.526v.945h1.338v.665H9.526v.995h1.771v.642H8.64v-3.889h2.628zm-4.85.642H6v1.24h.44c.286 0 .404-.04.518-.147.1-.101.155-.27.155-.494 0-.212-.047-.363-.148-.46-.108-.098-.273-.139-.548-.139zM16.618 2.034V4.15c0 .79.26 1.456.747 1.93.497.48 1.196.732 2.027.732h2.161l-4.935-4.78z" fill="#313235" fill-rule="nonzero"/></svg>