<svg width="24" height="24" xmlns="http://www.w3.org/2000/svg"><path d="M19.087 22.171c.118 0 .232-.117.232-.205V8.24h-2.736c-1.196 0-2.232-.394-2.991-1.143-.767-.757-1.17-1.785-1.17-2.975V1.452H4.69c-.088 0-.229.135-.236.205v20.31c0 .07.121.204.236.204h14.396zm-.366-15.384L13.844 1.99v2.128c0 .79.255 1.458.74 1.932.487.481 1.179.733 2 .733 0 .004 2.137.004 2.137.004zm1.714-.337c.199.195.313.468.313.747v14.77c0 .897-.76 1.657-1.66 1.657H4.69c-.884 0-1.66-.774-1.66-1.658V1.657C3.03.79 3.82 0 4.69 0h8.763c.272 0 .528.104.722.296l6.26 6.154zm-13.66 7.133a.733.733 0 010-1.025l.934-.951-.934-.952a.733.733 0 010-1.025.702.702 0 01.995-.013l.013.013.935.952.934-.952a.702.702 0 01.995-.01l.01.01a.733.733 0 010 1.025l-.934.952.934.951a.733.733 0 010 1.025.706.706 0 01-.998.01l-.01-.01-.935-.951-.934.951a.707.707 0 01-1.002.007c.004-.003 0-.007-.003-.007zM17.16 9.627a.733.733 0 010 1.025l-.934.951.934.952a.733.733 0 010 1.025.706.706 0 01-.998.01l-.01-.01-.935-.951-.934.95a.707.707 0 01-1.002.008l-.006-.007a.733.733 0 010-1.025l.934-.952-.934-.95a.733.733 0 010-1.026.702.702 0 01.995-.014l.013.014.934.951.935-.951a.702.702 0 01.995-.014l.013.014zm-2.45 5.839c1.032.023 2.07.709 2.07 2.188a.72.72 0 01-.712.726.72.72 0 01-.713-.726c0-.215 0-.72-.675-.736h-.105c-.658.003-.658.51-.658.726 0 1.512-1.039 2.188-2.064 2.195h-.158c-1.032-.027-2.07-.71-2.07-2.185 0-.215 0-.72-.676-.736h-.105c-.658.003-.658.51-.658.726a.72.72 0 01-.713.726.72.72 0 01-.713-.726c0-1.496 1.036-2.172 2.068-2.178h.154c1.032.023 2.07.709 2.07 2.188 0 .215 0 .72.676.736h.105c.658-.003.658-.511.658-.726 0-1.513 1.04-2.188 2.064-2.195l.155-.003z" fill="#313235" fill-rule="nonzero"/></svg>