<svg width="24" height="24" viewBox="0 0 24 24" xmlns="http://www.w3.org/2000/svg"><path d="M16.242.03c.279 0 .541.104.736.3l6.356 6.15c.138.132.216.293.266.465a.735.735 0 01.057.285v14.767c0 .9-.773 1.66-1.69 1.66H7.346c-.9 0-1.69-.776-1.69-1.66l.04-3.328H2.934A2.913 2.913 0 01.03 15.758v-4.91a2.913 2.913 0 012.904-2.912h2.72V1.691c0-.87.803-1.66 1.69-1.66h8.898zM15.19 1.492H7.348c-.087 0-.225.132-.232.202v6.242h7.637a2.91 2.91 0 012.904 2.911v4.911a2.913 2.913 0 01-2.904 2.91H7.156l-.04 3.335c0 .06.121.192.232.192h14.618v.003c.118 0 .232-.114.232-.201V8.276h-2.776c-1.217 0-2.27-.397-3.039-1.143-.78-.757-1.193-1.785-1.193-2.978V1.492zm-.437 7.906H2.938c-.8 0-1.449.652-1.449 1.452v4.911c0 .8.649 1.452 1.449 1.452h11.815c.8 0 1.449-.652 1.449-1.452v-4.91c0-.8-.65-1.453-1.45-1.453zM4.813 11.2c.71 0 1.157.097 1.45.37.245.225.362.575.362 1.059s-.11.847-.336 1.099c-.265.299-.676.437-1.27.437h-.727v1.56H3.261V11.2h1.552zm4.098 0c.71 0 1.156.097 1.449.37.245.225.363.575.363 1.059s-.111.847-.336 1.099c-.266.299-.676.437-1.271.437H8.39v1.56H7.358V11.2h1.553zm6.027 0l-.08.746h-1.369v3.778h-1.032v-3.778h-1.402V11.2h3.883zm-10.165.75H4.29v1.442H4.8v-.004c.33 0 .47-.047.602-.171.117-.118.178-.31.178-.575 0-.245-.054-.424-.172-.534-.124-.111-.316-.158-.635-.158zm4.098 0h-.484v1.442h.51v-.004c.33 0 .471-.047.602-.171.118-.118.178-.31.178-.575 0-.245-.053-.424-.171-.534-.124-.111-.316-.158-.635-.158zm7.778-9.916V4.15c0 .787.259 1.456.746 1.93.497.48 1.197.732 2.027.732h2.161l-4.934-4.78z" fill="#5CB615" fill-rule="nonzero"/></svg>