<svg width="24" height="24" xmlns="http://www.w3.org/2000/svg"><path d="M9.182 22.178v-5.27c0-.4.319-.723.709-.723h3.993c.393 0 .71.323.71.723v5.267h4.493c.118 0 .236-.135.236-.209V1.654c-.007-.07-.148-.209-.236-.209H4.684c-.09 0-.232.135-.235.209v20.312c0 .074.12.209.235.209l4.498.003zm9.909 1.446H4.687c-.884 0-1.657-.774-1.657-1.654V1.657C3.03.79 3.82.003 4.687.003h14.404c.867 0 1.657.79 1.657 1.654V21.97c-.003.88-.777 1.654-1.657 1.654zm-8.488-1.483h2.572v-4.51h-2.572v4.51zm-2.53-16.01h1.603v-1.63H8.072v1.63zm2.315 1.445H7.363a.715.715 0 01-.71-.722V3.778c0-.4.32-.723.71-.723h3.025c.394 0 .71.323.71.723v3.076c0 .4-.32.722-.71.722zm3.66-1.445h1.604v-1.63H14.05v1.63zm2.317 1.445h-3.026a.715.715 0 01-.709-.722V3.778c0-.4.32-.723.71-.723h3.025c.393 0 .709.323.709.723v3.076c0 .4-.32.722-.71.722zm-8.293 4.592h1.604v-1.63H8.072v1.63zm2.316 1.445H7.363a.715.715 0 01-.71-.722V9.815c0-.4.32-.723.71-.723h3.025c.394 0 .71.323.71.723v3.076c0 .4-.32.722-.71.722zm3.66-1.445h1.604v-1.63H14.05v1.63zm2.317 1.445h-3.026a.715.715 0 01-.709-.722V9.815c0-.4.32-.723.71-.723h3.025c.393 0 .709.323.709.723v3.076c0 .4-.32.722-.71.722z" fill="#313235" fill-rule="nonzero"/></svg>