<svg width="24" height="24" viewBox="0 0 24 24" xmlns="http://www.w3.org/2000/svg"><path d="M21.153 4.568c-.37.363-6.272 5.583-7.335 6.551l-3.18 1.05 1.04-3.097c.719-.635 6.99-6.161 7.401-6.568.756-.753 1.677-.4 2.077 0 .273.276.444.68.44 1.062 0 .38-.16.743-.443 1.002zM19.19 18.813c0 .891-.239 1.557-.736 2.037-.538.521-1.365.784-2.454.784H5.213c-1.089 0-1.916-.263-2.453-.784-.494-.477-.736-1.142-.736-2.033V6.427c0-2.377 1.734-2.877 3.19-2.877h9.66a1661.951 1661.951 0 01-4.592 4.053c-.228.202-.4.46-.497.753l-1.247 3.708a1.733 1.733 0 002.195 2.205l3.734-1.23c.222-.074.427-.192.595-.343.037-.034 2.151-1.9 4.131-3.654-.003-.003-.003 9.771-.003 9.771zM23.624 3.57a3.594 3.594 0 00-1.036-2.501c-1.213-1.214-3.391-1.543-4.94 0-.051.05-.236.218-.522.474-.376-.014-.75-.02-1.126-.02H5.213C2.047 1.526 0 3.449 0 6.427v12.386c0 1.45.454 2.626 1.355 3.49.93.9 2.228 1.354 3.862 1.354h10.786c1.63 0 2.931-.454 3.863-1.351.897-.867 1.354-2.04 1.354-3.493L21.21 7.24a90.345 90.345 0 001.365-1.23 3.377 3.377 0 001.049-2.44z" fill="#5CB615" fill-rule="nonzero"/></svg>