<svg width="24" height="24" viewBox="0 0 24 24" xmlns="http://www.w3.org/2000/svg"><path d="M17.886 14.936c-1.2 1.89-2.155 3.103-3.785 4.807l-.05.05-.02.024c-.29.299-.717.71-1.026.93a2.305 2.305 0 01-.87.398.92.92 0 01-.169.023h-.08l-.044.003-.054-.003h-.013a1.53 1.53 0 01-.212-.03 2.304 2.304 0 01-.844-.39c-.319-.232-.766-.662-1.052-.961-1.643-1.725-2.608-2.948-3.818-4.85-.225-.354-.42-.71-.625-1.063h.238a.735.735 0 00.703-.524L7.69 8.358l1.879 9.53a.737.737 0 00.685.598h.037a.734.734 0 00.703-.528l1.2-3.98h1.23a.736.736 0 00.706-.534l.753-2.599.911 2.636c.1.295.38.497.692.497h1.963c-.184.32-.356.639-.564.958M2.806 8.042c-.275-1.173-.52-3.331.942-4.598.639-.555 1.53-.888 2.507-.938.091-.003.179-.007.27-.007 1.014 0 2.07.293 3.051.844.437.245.888.507 1.402.82.558.32 1.247.313 1.802-.013.49-.296.941-.558 1.378-.807.985-.551 2.04-.844 3.052-.844.087 0 .182.004.269.007.978.05 1.869.383 2.508.938 1.462 1.267 1.216 3.428.937 4.598-.34 1.445-.91 2.938-1.67 4.447h-2.249l-1.496-4.32a.697.697 0 00-.712-.497.737.737 0 00-.686.535l-1.237 4.282h-1.227a.731.731 0 00-.702.528l-.508 1.68-1.876-9.505a.737.737 0 00-.682-.599.716.716 0 00-.743.525l-2.222 7.267H4.42c-.723-1.476-1.28-2.924-1.613-4.343m20.08 4.447h-1.99c.646-1.385 1.147-2.76 1.463-4.1.611-2.596.107-4.754-1.412-6.075-.884-.766-2.087-1.227-3.388-1.294a5.952 5.952 0 00-.347-.01c-1.263 0-2.558.353-3.764 1.032-.478.269-.948.541-1.415.824a.331.331 0 01-.326 0c-.501-.303-.965-.572-1.412-.824C9.089 1.363 7.792 1.01 6.528 1.01c-.115 0-.229.003-.343.01-1.301.067-2.508.528-3.388 1.294C1.27 3.635.767 5.794 1.378 8.388c.31 1.311.79 2.649 1.409 3.997H.737A.74.74 0 000 13.13c0 .41.33.743.736.743h2.78c.336.622.7 1.244 1.1 1.869 1.266 1.993 2.275 3.274 4.006 5.082.168.175.753.773 1.25 1.136.427.313.908.531 1.392.636.144.033.292.053.44.064h.02c.04.003.084.003.128.003h.04c.047 0 .088-.003.132-.003h.016a2.44 2.44 0 00.44-.064 3.72 3.72 0 001.392-.636c.498-.36 1.083-.961 1.25-1.136l.041-.043c1.704-1.785 2.71-3.063 3.966-5.04.377-.587.72-1.179 1.04-1.767h2.725a.744.744 0 00.736-.743.75.75 0 00-.743-.743" fill="#5CB615" fill-rule="nonzero"/></svg>