<svg width="24" height="24" xmlns="http://www.w3.org/2000/svg"><path d="M19.71 19.745V6.41H3.914v13.355c-.004.053-.054 1.112.598 1.801.407.43 1.028.646 1.852.646h10.884c.04 0 1.126.03 1.829-.649.423-.41.635-1.022.635-1.818zM7.604 2.79v2.175h8.414V2.8c.01-.222-.024-.753-.31-1.049-.17-.185-.43-.272-.79-.272l-6.225.003c-.067-.003-.474-.027-.753.229-.221.208-.336.571-.336 1.079zm15.298 2.178a.722.722 0 110 1.445h-1.748v13.335c0 1.21-.366 2.175-1.09 2.867-1.024.982-2.423 1.046-2.772 1.046-.044 0-.07 0-.078-.004H6.363c-1.244 0-2.225-.373-2.91-1.112-1.08-1.153-.982-2.763-.98-2.83L2.472 6.41H.723a.722.722 0 110-1.445H6.16V2.79c0-.941.276-1.667.82-2.158C7.725-.04 8.66.027 8.764.04l6.155-.006c.964 0 1.54.4 1.848.736.757.81.7 1.953.693 2.08l.003 2.115h5.439v.003zM9.348 18.736a.722.722 0 01-.723-.723v-7.395a.722.722 0 111.446 0v7.395a.726.726 0 01-.723.723zm4.928 0a.722.722 0 01-.723-.723v-7.395a.722.722 0 111.445 0v7.395c0 .4-.322.723-.722.723z" fill="#313235" fill-rule="nonzero"/></svg>