<svg width="24" height="24" viewBox="0 0 24 24" xmlns="http://www.w3.org/2000/svg"><path d="M22.192 19.22V2.474a1.02 1.02 0 00-1.019-1.015h-2.628c-.128 1.082-1.096 1.92-2.222 1.92a2.29 2.29 0 01-2.256-1.944l-2.595.024a1.02 1.02 0 00-1.018 1.015v4.662c.003.04 0 .077 0 .118v11.963c0 .561.457 1.015 1.018 1.015h2.652c.175-1.035 1.113-1.808 2.199-1.808 1.085 0 2.023.77 2.235 1.831l2.615-.023a1.012 1.012 0 001.019-1.012zm-12.128 2.837l.8-.45a2.47 2.47 0 01-1.872-2.39v-.07a.697.697 0 01-.226-.23l-4.773-8.46a.728.728 0 01.276-.991h.003l4.72-2.642v-3.17l-1.496.84a2.114 2.114 0 01-.968 2.504c-.88.491-2.004.286-2.649-.477l-1.96 1.096a.823.823 0 00-.319 1.12v.002l7.334 13.006a.837.837 0 001.13.312zm-1.072-5.714V8.497L5.63 10.383l3.362 5.96zM21.173 0a2.483 2.483 0 012.484 2.474V19.22a2.482 2.482 0 01-2.484 2.474h-2.652c-.679 0-1.27-.484-1.402-1.156a.813.813 0 00-1.593 0 1.436 1.436 0 01-1.402 1.156h-.796a1.287 1.287 0 01-.488.48l-2.06 1.154c-.531.299-1.156.373-1.741.208a2.269 2.269 0 01-1.378-1.082L.326 9.455a2.25 2.25 0 01-.205-1.734 2.262 2.262 0 011.082-1.375l2.044-1.143a1.34 1.34 0 011.738.36c.191.245.554.32.827.165a.656.656 0 00.289-.79 1.338 1.338 0 01.595-1.664L8.739 2.13c.095-.054.202-.077.303-.118A2.474 2.474 0 0111.472 0h2.632c.716 0 1.311.514 1.412 1.227a.817.817 0 001.613 0A1.422 1.422 0 0118.545 0h2.628zm-8.245 16.007h6.927V5.745h-6.927v10.262zm7.66-11.721c.404 0 .733.326.733.73v11.72c0 .403-.33.73-.733.73h-8.39a.732.732 0 01-.732-.73V5.016c0-.404.329-.73.732-.73h8.39z" fill="#313235" fill-rule="nonzero"/></svg>