<svg width="24" height="24" viewBox="0 0 24 24" xmlns="http://www.w3.org/2000/svg"><path d="M13.079 21.687v-9.465h7.906c-.07.968-.158 1.852-.272 2.524-.447 2.592-4.989 5.52-7.634 6.941m-9.082-6.94c-.118-.673-.209-1.557-.28-2.525h7.903v9.465c-2.642-1.421-7.176-4.35-7.623-6.94M7.96 3.048c1.055-.71 2.06-1.382 3.664-1.54v9.237H3.63c-.12-2.36-.148-4.88-.158-6.144 2.014.104 3.274-.74 4.488-1.553m13.267 1.553a142.684 142.684 0 01-.155 6.144H13.08V1.51c1.6.158 2.605.834 3.664 1.54 1.21.813 2.46 1.66 4.484 1.553m1.459-.824a.741.741 0 00-.276-.551.77.77 0 00-.605-.165c-1.946.306-2.971-.376-4.262-1.244C16.273.965 14.83 0 12.353 0h-.01C9.866 0 8.423.965 7.15 1.818c-1.291.868-2.31 1.55-4.232 1.248a.734.734 0 00-.626.13.759.759 0 00-.282.579c0 .322-.02 7.933.548 11.22.733 4.262 8.581 8.128 9.476 8.555.003.003.006 0 .01.003a.685.685 0 00.595 0c.003-.003.01 0 .013-.003.894-.427 8.753-4.293 9.486-8.555.568-3.287.548-10.894.548-11.217" fill="#313235" fill-rule="nonzero"/></svg>