<svg width="24" height="24" xmlns="http://www.w3.org/2000/svg"><path d="M20.736 14.753c.437-2.561.508-8.1.518-10.175-2.017.098-3.28-.736-4.501-1.553-1.21-.81-2.353-1.576-4.4-1.58h-.007c-2.047 0-3.19.767-4.403 1.58-1.217.814-2.467 1.647-4.498 1.553.01 2.074.081 7.614.525 10.175.494 2.864 5.95 6.131 8.38 7.344 2.433-1.213 7.895-4.487 8.386-7.344zm1.95-10.985c0 .323.023 7.94-.538 11.234-.746 4.332-9.133 8.383-9.49 8.554a.702.702 0 01-.612-.003c-.355-.168-8.735-4.222-9.481-8.551-.572-3.294-.552-10.911-.548-11.234a.716.716 0 01.887-.7c1.936.307 2.958-.382 4.252-1.25C8.43.965 9.872 0 12.35 0h.01c2.477.003 3.916.968 5.19 1.822 1.294.867 2.319 1.553 4.279 1.247a.738.738 0 01.857.7zM10.565 14.071l5.98-6.05a.71.71 0 011.011 0 .728.728 0 010 1.021l-6.484 6.561a.71.71 0 01-1.008 0l-2.911-2.948a.728.728 0 010-1.021.71.71 0 011.012 0l2.4 2.437z" fill="#313235" fill-rule="nonzero"/></svg>