<svg width="24" height="24" xmlns="http://www.w3.org/2000/svg"><path d="M6.326 16.094c.124 0 .256.014.393.047.578.141 1.513.672 1.234 2.649-.098.7-.05 1.318.141 1.835.195.531.484.884.854 1.046 2.484 1.089 5.91.322 8.934-2 2.205-1.705 3.634-4.024 4.03-6.535a.736.736 0 01.048-.168c.064-.255.117-.52.15-.79.475-3.61-2.17-4.447-3.33-4.639-.104-.01-.283-.036-.444-.06a4.967 4.967 0 00-.981-.017.744.744 0 01-.575-.205 5.03 5.03 0 01-.935-1.24 5.306 5.306 0 01-.43-4.03l.024-.074c.01-.034.023-.105.003-.145-.02-.044-.108-.114-.29-.178-.134-.044-.547-.185-.698.171a6.248 6.248 0 00.528 4.73c.137.255.295.497.463.73a.754.754 0 01-.124 1.021c-.706.588-1.146 1.53-1.318 2.797-.037.232-.053.44-.053.622a.787.787 0 01-.01.127c-.04.239.006.572.05.898.09.659.208 1.475-.356 2.107-.474.528-1.288.746-2.558.7a.739.739 0 01-.209-.04 10.2 10.2 0 00-.568-.169c-.72-.158-1.852-.32-2.5-.292-.03.003-.061 0-.091 0-.017.003-.034 0-.05 0a6 6 0 00-2.865.558 6.226 6.226 0 00-3.243 3.529c-.101.269.104.387.201.444.296.171.46.198.807-.28.118-.16.232-.325.346-.49.599-.857 1.214-1.745 2.27-2.286l.117-.06c.245-.125.591-.313 1.035-.313m5.076 7.563c-1.083 0-2.115-.198-3.042-.608-.747-.33-1.318-.985-1.654-1.896-.28-.756-.353-1.62-.222-2.571.074-.545.03-.948-.108-.982-.077-.017-.137.003-.373.134l-.15.081c-.724.373-1.19 1.039-1.729 1.809-.117.171-.238.342-.363.514-1.018 1.405-2.164 1.035-2.753.696-1.089-.632-1.095-1.728-.837-2.313a7.673 7.673 0 014.004-4.326 7.59 7.59 0 013.556-.692h.024c.833-.03 2.067.15 2.897.336.225.06.414.11.582.164 1.058.03 1.27-.181 1.294-.208.097-.111.033-.561-.014-.89-.057-.397-.12-.848-.057-1.298.004-.239.03-.504.07-.777.179-1.351.633-2.443 1.349-3.257a7.78 7.78 0 01-.834-6.282c.259-.74 1.146-1.607 2.585-1.113.72.246 1.035.676 1.173.995.245.561.097 1.08.03 1.27a3.798 3.798 0 00.76 3.51c.386-.01.713.017.944.044.158.023.306.047.43.06 2.602.427 5.144 2.31 4.616 6.32-.047.36-.118.719-.209 1.058l-.006.027c-.474 2.857-2.098 5.483-4.582 7.402-2.37 1.828-5.001 2.793-7.381 2.793" fill="#313235" fill-rule="nonzero"/></svg>