<svg width="24" height="24" xmlns="http://www.w3.org/2000/svg"><path d="M11.166 17.435l-6.863-6.874A1.013 1.013 0 015.734 9.13l5.137 5.143V1.012a1.014 1.014 0 012.026 0v13.26l5.05-5.055a1.014 1.014 0 011.458 1.405c-.007.01-.017.017-.027.027l-6.776 6.786c-.192.189-.45.293-.716.296-.273 0-.528-.107-.72-.296zm11.446-.74c.558 0 1.012.455 1.012 1.013v4.904c0 .558-.454 1.012-1.012 1.012h-21.6A1.013 1.013 0 010 22.612v-4.904a1.014 1.014 0 012.027 0V21.6h19.576v-3.892a1.006 1.006 0 011.009-1.012z" fill="#313235" fill-rule="nonzero"/></svg>