<svg width="24" height="24" xmlns="http://www.w3.org/2000/svg"><path d="M22.918 18.745c.37 0 .672.302.672.672 0 .37-.303.672-.672.672H.713a.674.674 0 01-.673-.672c0-.37.303-.672.673-.672h22.205zM19.68 3.01c1.317 0 2.33.393 3.005 1.166.628.72.944 1.762.944 3.1v5.926c0 1.337-.32 2.38-.944 3.099-.676.773-1.688 1.166-3.005 1.166H3.95c-1.318 0-2.33-.393-3.005-1.163C.319 15.582 0 14.54 0 13.202V7.276c0-1.338.32-2.38.945-3.1C1.62 3.403 2.629 3.01 3.95 3.01h15.73zm0 1.345L3.95 4.358c-.928 0-1.577.232-1.99.706-.407.464-.615 1.21-.615 2.212v5.926c0 1.001.208 1.748.615 2.215.413.474 1.065.706 1.99.706h15.73c.925 0 1.577-.232 1.99-.706.407-.467.616-1.214.616-2.215V7.276c0-1.002-.209-1.748-.615-2.215-.414-.474-1.066-.706-1.99-.706zm-7.184 1.112c.135 0 .263.054.357.148l2.269 2.272a.504.504 0 01.148.357v5.986c0 .45-.316.767-.767.767H9.136c-.464 0-.776-.313-.776-.78V6.24c0-.464.312-.773.776-.773h3.361zm-.447 1.008H9.368v7.513h4.894V8.69h-1.008c-.743 0-1.204-.537-1.204-1.404v-.81zm1.358 5.701c.185 0 .337.152.337.337a.34.34 0 01-.34.336h-3.176a.337.337 0 01-.337-.336c0-.185.152-.337.337-.337h3.18zm0-1.36c.185 0 .337.15.337.335a.34.34 0 01-.34.336h-3.176a.337.337 0 01-.337-.336c0-.185.152-.336.337-.336h3.18zm0-1.366c.185 0 .337.152.337.337a.34.34 0 01-.34.336h-3.176a.337.337 0 01-.337-.336c0-.185.152-.337.337-.337h3.18zm-.686-2.538v.374c0 .484.179.732.532.732h.574l-1.106-1.106z" fill="#313235" fill-rule="nonzero"/></svg>