<svg width="24" height="24" viewBox="0 0 24 24" xmlns="http://www.w3.org/2000/svg"><path d="M18.366 17.872c-.403.32-.863.541-1.334.686 1.002-.7 1.543-1.566 1.543-2.807 0-1.287-.968-2.151-1.856-2.655.142-.128.276-.266.404-.414.138.06.252.131.376.222.101.074.195.145.296.202.867.507 1.452 1.469 1.526 2.507.037.528-.037 1.53-.955 2.26m-5.025.8v-4.071a6.007 6.007 0 002.027-.585c.602.205 1.802.844 1.802 1.734 0 1.103-.602 1.862-3.829 2.921m.686 3.577h-2.622c.175-.501.588-.716 1.311-.716s1.136.215 1.31.716M7.893 8.938v-.235h9.174v.329c-.044 2.756-2.222 4.198-4.357 4.198-2.309 0-4.79-1.13-4.817-4.292m-2.42-3.321c.222-1.27 1.06-2.444 2.296-3.22 3.17-1.984 6.108-.276 6.259-.189.01.004.89.498 1.032 1.325.087.5-.111 1.065-.588 1.68-.095-.08-.394-.426-.454-1.61a.704.704 0 00-.272-.52c-.084-.065-2.118-1.58-5.13-.122-1.055.511-1.795 1.133-2.225 2.66a3.903 3.903 0 00.097 2.372l.004.004v.94c0 .169.013.33.027.492-1.029-1.157-1.24-2.676-1.046-3.812m15.25 9.896c-.107-1.493-.957-2.881-2.218-3.62-.057-.034-.11-.078-.168-.118a4.334 4.334 0 00-.42-.28 5.74 5.74 0 00.558-2.443l.003-1.055a.702.702 0 00-.702-.703H7.745A2.447 2.447 0 017.74 6.01c.323-1.136.82-1.452 1.486-1.778 1.697-.82 2.918-.417 3.415-.175.114 1.136.464 1.916 1.042 2.323.46.326.978.34 1.28.249a.721.721 0 00.33-.205c.948-1.063 1.335-2.121 1.153-3.147-.269-1.502-1.694-2.279-1.72-2.292-.152-.094-3.78-2.235-7.702.215-1.58.988-2.649 2.508-2.938 4.175-.332 1.922.222 4.702 2.878 6.208.053.03.11.027.168.044.867 1.674 2.578 2.76 4.803 2.968v5.61c-1.3.269-2.033 1.23-2.033 2.743 0 .39.315.702.702.702h4.225c.39 0 .703-.316.703-.702 0-1.577-.79-2.561-2.192-2.783v-.094a9.239 9.239 0 001.748.158c1.23 0 2.867-.236 4.155-1.26 1.035-.821 1.576-2.085 1.479-3.456" fill="#5CB615" fill-rule="nonzero"/></svg>