<svg width="24" height="24" xmlns="http://www.w3.org/2000/svg"><path d="M18 13.936a.737.737 0 011.096.988c-.111.121-2.723 2.968-7.204 3.019-.016 0-.08.003-.184.003-.884 0-4.673-.171-7.18-2.978a.736.736 0 111.1-.982c2.342 2.619 6.187 2.485 6.224 2.485 3.835-.047 6.124-2.511 6.148-2.535zm-6.192 8.212c6.955 0 10.34-3.382 10.34-10.333 0-6.954-3.382-10.336-10.34-10.336-6.95 0-10.332 3.382-10.332 10.336 0 6.951 3.381 10.333 10.332 10.333zm0-22.148c7.463 0 11.816 3.768 11.816 11.815S19.27 23.624 11.808 23.624C4.346 23.624 0 19.862 0 11.815 0 3.768 4.346 0 11.808 0zm-3.58 10.07c-.426 0-.783-.134-1.031-.386-.246-.249-.367-.592-.367-1.015 0-.867.538-1.405 1.399-1.405.863 0 1.398.538 1.398 1.405 0 .427-.124.766-.366 1.015-.25.249-.606.387-1.032.387zm7.167 0c-.427 0-.783-.134-1.032-.386-.245-.249-.37-.592-.37-1.015 0-.867.538-1.405 1.399-1.405.863 0 1.398.538 1.398 1.405 0 .423-.124.766-.366 1.015-.246.249-.602.387-1.029.387z" fill="#313235" fill-rule="nonzero"/></svg>