<svg width="24" height="24" xmlns="http://www.w3.org/2000/svg"><path d="M11.815 0c3.748 0 6.669.982 8.676 2.914 2.084 2.007 3.14 5.002 3.14 8.901 0 3.9-1.056 6.89-3.14 8.901-2.007 1.933-4.928 2.914-8.676 2.914-2.964 0-5.411-.614-7.298-1.827a.672.672 0 01-.371-.25 9.019 9.019 0 01-1.007-.837C1.055 18.706 0 15.711 0 11.816c0-3.897 1.055-6.892 3.14-8.902C5.145.982 8.066 0 11.814 0zm0 1.345c-3.388 0-5.993.853-7.741 2.537-1.812 1.745-2.73 4.414-2.73 7.933 0 2.286.388 4.211 1.155 5.76l3.45-3.404a.67.67 0 01.952.007l.232.235c.81-1.61 1.65-3.986 1.879-7.142a1.623 1.623 0 01-.548-.38c-.326-.34-.49-.787-.49-1.331 0-.545.164-.989.49-1.331.326-.34.773-.525 1.28-.525.508 0 .952.182 1.281.525.33.342.491.79.491 1.33 0 .542-.165.989-.49 1.332a1.632 1.632 0 01-.673.427c-.182 2.554-.74 4.642-1.382 6.258l5.832-5.76a1.625 1.625 0 01-.137-.713c.013-.471.215-.901.605-1.285.39-.383.82-.581 1.29-.591.478-.014.921.168 1.281.524.36.357.548.8.534 1.278-.013.47-.215.9-.605 1.284-.39.383-.82.578-1.29.591a1.687 1.687 0 01-.726-.141l-5.721 5.647c1.596-.612 3.627-1.143 6.094-1.318.087-.255.232-.487.427-.672.34-.326.786-.49 1.33-.49.545 0 .992.167 1.332.494.34.326.524.773.524 1.28 0 .508-.181.951-.524 1.284-.343.333-.787.491-1.331.491-.545 0-.989-.168-1.331-.49a1.672 1.672 0 01-.38-.549c-3.167.229-5.546 1.076-7.16 1.89l.269.272a.67.67 0 01-.007.95l-3.476 3.446c1.59.856 3.604 1.288 6.014 1.288 3.388 0 5.993-.854 7.741-2.538 1.812-1.745 2.73-4.414 2.73-7.933 0-3.52-.918-6.185-2.73-7.933-1.748-1.684-4.353-2.537-7.74-2.537zM6.417 15.603L3.215 18.76a7.52 7.52 0 001.431 1.486l3.22-3.177-.723-.733-.326-.33-.4-.403zm11.482-2.326c-.275 0-.37.088-.4.118-.054.054-.11.131-.11.31v.013c-.004.003-.004.006 0 .006.003.172.056.246.11.296.03.03.125.118.4.118.276 0 .37-.088.4-.118.054-.054.111-.13.111-.312s-.057-.26-.11-.313c-.031-.03-.125-.118-.4-.118zm-1.297-6.699c-.044 0-.178.004-.38.205-.202.202-.202.323-.205.363-.004.067.01.158.13.28.132.127.226.144.303.14.044 0 .179-.003.38-.205.202-.201.202-.322.205-.363.004-.07-.013-.161-.134-.282-.121-.121-.222-.141-.3-.138zm-6.854-1.53c-.182 0-.259.058-.313.112-.03.03-.117.12-.117.4 0 .279.087.37.117.4.05.053.125.107.296.11h.02c.178 0 .256-.057.31-.11.03-.03.117-.121.117-.4 0-.28-.087-.37-.117-.4-.054-.054-.132-.111-.313-.111z" fill="#313235" fill-rule="nonzero"/></svg>