<svg width="24" height="24" viewBox="0 0 24 24" xmlns="http://www.w3.org/2000/svg"><path d="M15.634 23.68c-.04 0-.081 0-.121-.003H8.259c-.504.01-1.23-.037-1.735-.524-.507-.49-.574-1.21-.585-1.711v-.01l.004-8.054a.566.566 0 00-.064-.188l-4.276.007h-.006C.568 13.19.218 12.699.1 12.407c-.202-.501-.017-1.08.504-1.587L11.059.43c.1-.104.393-.4.823-.4h.007c.182 0 .454.06.713.33l10.443 10.178c.535.51.73 1.22.488 1.805-.212.52-.72.844-1.328.833l-4.38.004a.38.38 0 00-.067.044l-.024 8.258c.01.74-.174 1.281-.56 1.66-.357.364-.865.539-1.54.539zm-.115-1.31h.02c.25.006.575-.014.723-.155.145-.144.172-.467.168-.716v-.01l.024-8.346c0-.703.736-1.267 1.344-1.267l4.414-.007h.01a.231.231 0 00.1-.017c.017-.023.02-.181-.177-.37l-.007-.006L11.872 1.472 1.53 11.752l-.006.006a1.04 1.04 0 00-.108.118c.05.006.114.013.195.013l4.454-.007c.783 0 1.193.972 1.193 1.496l-.003 8.05c.007.404.07.676.185.787.114.111.393.165.806.155h7.274z" fill="#313235" fill-rule="nonzero"/></svg>