<svg width="24" height="24" xmlns="http://www.w3.org/2000/svg"><path d="M22.612 10.887H3.362l8.688-9.19a1.015 1.015 0 00-.074-1.431 1.01 1.01 0 00-1.398.04L.276 11.203c-.044.047-.068.108-.105.162-.033.05-.074.097-.097.154A1.046 1.046 0 000 11.9v.007c.003.128.03.252.077.373.024.06.064.108.101.158.034.05.054.11.098.158l10.117 10.702a1.01 1.01 0 001.429.044s.003 0 .003-.003a1.014 1.014 0 00.04-1.432L3.362 12.91h19.25c.559 0 1.013-.454 1.013-1.015 0-.558-.454-1.012-1.012-1.009" fill="#313235" fill-rule="nonzero"/></svg>