<svg width="24" height="24" viewBox="0 0 24 24" xmlns="http://www.w3.org/2000/svg"><path d="M3.103 22.31c-.3 0-.569-.108-.77-.31a1.068 1.068 0 01-.303-.86l.007-14.575a1.21 1.21 0 01.736-1.147c.548-.245 1.257-.134 1.688.26.006.006.013.013.02.016l2.853 2.854 5.748-5.886.007-.007c.874-.873 1.882-.863 2.766.02l6.061 6.03.02.021c.383.417.528.85.434 1.294-.088.404-.363.726-.625.988l-.017.017-6.145 5.778 3.096 3.093.01.01c.38.397.49 1.072.262 1.607-.212.497-.679.793-1.25.793H3.197c-.034.003-.064.003-.094.003zm.218-1.295h14.38a.22.22 0 00.064-.007c.027-.043.02-.164-.01-.211l-3.184-3.184a1.14 1.14 0 01-.329-.84c.01-.306.134-.591.353-.81l.013-.013 6.226-5.853c.201-.205.252-.295.265-.329a.725.725 0 00-.11-.155l-6.048-6.02c-.188-.188-.36-.292-.48-.296-.152 0-.333.145-.458.273L8.175 9.536l-.007.007c-.46.46-1.2.47-1.65.02L3.58 6.625c-.05-.037-.178-.054-.256-.037l-.003 14.427z" fill="#5CB615" fill-rule="nonzero"/></svg>