<svg width="24" height="24" viewBox="0 0 24 24" xmlns="http://www.w3.org/2000/svg"><path d="M11.778 23.68h-.007c-.181 0-.453-.06-.712-.329L.615 13.176c-.538-.51-.73-1.22-.487-1.808.211-.518.709-.834 1.307-.834h.02l4.38-.003a.273.273 0 00.068-.047l.023-8.259c-.01-.74.175-1.284.561-1.664.387-.38.931-.55 1.671-.53h7.25c.505-.01 1.23.036 1.735.524.507.49.575 1.21.585 1.71v.01l-.004 8.054c.004.047.03.125.064.189l4.276-.007h.007c1.028.007 1.378.497 1.495.79.202.5.017 1.079-.504 1.586l-10.454 10.39c-.107.108-.4.404-.83.404zM1.432 11.846a.202.202 0 00-.094.017c-.017.024-.02.182.178.37l.007.007 10.269 10.003 10.342-10.279.007-.007a1.04 1.04 0 00.108-.117 1.418 1.418 0 00-.192-.014l-4.454.007c-.783 0-1.193-.971-1.193-1.496l.003-8.05c-.006-.404-.07-.676-.184-.787-.115-.11-.394-.165-.807-.154H8.12c-.249-.007-.575.013-.723.154-.144.145-.171.467-.168.716v.01l-.023 8.346c0 .703-.736 1.268-1.345 1.268l-4.413.003h-.01c0 .003-.004.003-.007.003z" fill="#313235" fill-rule="nonzero"/></svg>