<svg width="24" height="24" xmlns="http://www.w3.org/2000/svg"><path d="M15.785 23.69a.912.912 0 01-.68-.305l-4.987-5.056c-.017-.016-.03-.033-.044-.05a.952.952 0 01-.118-.998.91.91 0 01.817-.525l2.188-.02-.003-3.475c0-.797.645-1.443 1.442-1.443h2.783c.797 0 1.442.646 1.442 1.443l.004 3.485 2.191.017c.353 0 .666.202.82.524a.946.946 0 01-.164 1.046l-5.012 5.052a.903.903 0 01-.68.306zm-4.007-5.593l4.007 4.061 4.03-4.06-1.62-.014h-.013a.923.923 0 01-.898-.934l-.003-3.89a.098.098 0 00-.098-.097H14.4a.098.098 0 00-.097.098l.006 3.889c.007.5-.39.92-.894.934h-.013l-1.624.013zm-2.447-6.205h-2.78A1.442 1.442 0 015.11 10.45l-.003-3.482-2.188-.017a.905.905 0 01-.82-.524.946.946 0 01.12-.998c.014-.017.027-.034.044-.047L7.271.332a.9.9 0 011.237-.11c.043.033.08.07.117.11l4.985 5.05c.017.016.03.033.044.05a.952.952 0 01.117.998.91.91 0 01-.816.525l-2.185.016.003 3.48c0 .793-.645 1.441-1.442 1.441zm-2.88-5.33l.003 3.885c0 .054.043.098.097.098h2.78a.098.098 0 00.098-.098l-.004-3.886a.922.922 0 01.894-.934h.014l1.62-.014L7.95 1.556 3.926 5.613l1.617.014h.013c.505.013.901.434.894.934z" fill="#313235" fill-rule="nonzero"/></svg>