<svg width="24" height="24" viewBox="0 0 24 24" xmlns="http://www.w3.org/2000/svg"><path d="M14.571 22.393c-.087 0-.171-.01-.258-.027-.404-.087-.726-.363-.989-.625l-.016-.017-5.775-6.137-3.096 3.095-.01.01c-.397.38-1.072.491-1.607.263-.497-.216-.793-.683-.79-1.254V3.197a1.082 1.082 0 01.306-.86c.222-.223.525-.33.86-.303l14.575.006a1.21 1.21 0 011.147.736c.245.548.134 1.258-.26 1.688a.09.09 0 00-.016.02l-2.86 2.85 5.885 5.748.007.007c.44.44.659.908.652 1.395-.007.474-.232.934-.672 1.371l-6.03 6.058-.02.02c-.333.306-.683.46-1.033.46zm-.332-1.56c.205.202.295.253.33.266.02-.01.07-.037.154-.11l6.02-6.048c.188-.188.292-.36.296-.48.003-.152-.145-.333-.273-.458L14.8 8.175l-.007-.007c-.46-.46-.47-1.2-.02-1.65l2.938-2.938c.037-.05.054-.178.037-.256L3.32 3.318V17.7c0 .03.003.05.007.06a.29.29 0 00.211-.01l3.184-3.183c.218-.218.527-.34.84-.33.306.01.592.135.81.354l.014.013 5.852 6.229z" fill="#5CB615" fill-rule="nonzero"/></svg>