<svg width="24" height="24" xmlns="http://www.w3.org/2000/svg"><path d="M21.234 22.376c-.03 0-.06 0-.095-.003l-14.574-.007H6.55c-.504 0-.924-.275-1.133-.736-.245-.548-.134-1.257.26-1.687a.09.09 0 00.016-.02l2.854-2.854-5.882-5.748-.007-.007c-.874-.874-.864-1.882.02-2.766l6.03-6.057.02-.02c.417-.384.85-.528 1.295-.434.403.087.726.363.988.625l.017.017 5.774 6.138L19.9 5.72l.01-.01c.397-.38 1.073-.49 1.607-.262.497.215.793.682.79 1.254v14.504c.023.336-.084.638-.306.86-.198.202-.467.31-.766.31zm-14.646-1.3l14.427.006V6.703a.21.21 0 00-.007-.061.29.29 0 00-.211.01l-3.18 3.18c-.45.45-1.19.44-1.65-.024l-.014-.013-5.856-6.222c-.205-.202-.295-.252-.329-.265a.725.725 0 00-.155.11l-6.02 6.044c-.188.188-.292.36-.296.48-.003.152.145.334.273.458l5.966 5.829.007.006c.46.46.47 1.2.02 1.65l-2.938 2.939c-.037.047-.054.178-.037.252z" fill="#313235" fill-rule="nonzero"/></svg>