<svg width="24" height="24" viewBox="0 0 24 24" xmlns="http://www.w3.org/2000/svg"><path d="M15.345 12.844c.037-.41.026-.82-.027-1.227-.01-.067-.024-.135-.034-.202a4.115 4.115 0 00-.09-.403c-.02-.067-.038-.138-.061-.202a3.651 3.651 0 00-.128-.316 2.686 2.686 0 00-.212-.386l-.06-.098c-.02-.027-.037-.064-.06-.09 1.3-1.48 2.524-2.454 3.411-2.707 1.99-.568 3.334.205 3.89 2.226.554 2.027-.206 3.398-2.196 3.966-.9.252-2.497.05-4.433-.561m4.158 6.534c-.142.756-.646 1.435-1.496 2.024-1.704 1.18-3.217.884-4.377-.857-.558-.837-.877-2.525-.894-4.68.034-.006.06-.02.09-.026.176-.037.347-.088.515-.152.06-.023.118-.05.178-.074a3.17 3.17 0 00.41-.218c.044-.03.091-.054.132-.08.16-.118.309-.246.443-.39.027-.03.05-.068.078-.101.1-.121.191-.253.275-.39.017-.027.037-.047.054-.074 1.96.813 3.375 1.734 3.936 2.571.575.867.797 1.69.656 2.447m-9.419 1.187c-.578.867-1.247 1.378-1.99 1.522-.743.138-1.543-.084-2.393-.675-1.704-1.177-1.993-2.72-.837-4.464.544-.82 1.94-1.731 3.875-2.541.017.03.044.054.061.084.08.127.168.248.266.363.037.04.067.084.104.124.134.141.282.27.447.38.044.027.094.05.138.077.329.202.692.34 1.072.41.05.01.094.03.144.04-.013 2.159-.332 3.843-.887 4.68m-6.245-7.147c-.992-.282-1.681-.763-2.05-1.431-.37-.67-.418-1.52-.142-2.532.276-1.008.75-1.714 1.405-2.09.393-.219.84-.33 1.29-.32.367 0 .764.06 1.19.185.888.256 2.105 1.227 3.396 2.703a3.048 3.048 0 00-.33.591c-.027.06-.047.125-.07.189a4.434 4.434 0 00-.158.548c-.014.073-.03.147-.044.225a5.414 5.414 0 00-.044 1.378c-1.932.612-3.53.82-4.443.554m7.98-11.922c2.063.01 3.15 1.126 3.142 3.23 0 .951-.618 2.454-1.717 4.175-.034-.014-.074-.017-.108-.027a3.823 3.823 0 00-.47-.111 5.288 5.288 0 00-.854-.077c-.249 0-.48.02-.706.053l-.128.02a4.092 4.092 0 00-.53.128c-.028.007-.058.01-.082.02C9.274 7.19 8.656 5.682 8.662 4.71c0-2.1 1.093-3.213 3.156-3.213m.162 12.951c-.057 0-.111.003-.168.01h-.091c-1.388-.03-1.738-.71-1.879-1.217a.523.523 0 00-.027-.077c-.02-.077-.03-.161-.044-.245-.006-.05-.02-.098-.026-.152a4.988 4.988 0 01-.024-.45c0-.834.215-1.422.639-1.755.027-.02.06-.037.12-.074.33-.205.777-.309 1.328-.309.555 0 .995.101 1.318.3.017.013.094.063.114.073.434.326.656.918.656 1.765.007.296-.027.588-.101.877v.004c-.145.558-.484 1.2-1.815 1.25m11.412-5.412c-.78-2.837-2.908-4.053-5.698-3.267-.544.155-1.099.467-1.644.854.229-.656.38-1.301.38-1.89.01-2.95-1.71-4.719-4.605-4.732h-.003C8.924 0 7.193 1.761 7.193 4.703c-.003.608.148 1.27.383 1.939-.544-.387-1.099-.7-1.647-.857-1.358-.39-2.601-.296-3.596.272C1.338 6.63.608 7.664.232 9.052c-.777 2.844.423 5.015 3.213 5.805.37.108.787.155 1.217.161-.403.337-.756.7-1.012 1.086-1.623 2.45-1.163 4.898 1.227 6.545.925.645 1.876.975 2.79.975.236 0 .47-.02.7-.068 1.122-.215 2.134-.961 2.927-2.151.232-.35.414-.773.565-1.223.148.443.326.86.554 1.203.985 1.476 2.25 2.232 3.627 2.232.898 0 1.846-.323 2.79-.978 1.17-.807 1.903-1.836 2.115-2.982.211-1.14-.095-2.376-.888-3.57v-.003c-.259-.39-.618-.753-1.028-1.092.386-.004.77-.054 1.142-.152 2.794-.79 3.997-2.961 3.22-5.805" fill="#313235" fill-rule="nonzero"/></svg>