<svg width="24" height="24" viewBox="0 0 24 24" xmlns="http://www.w3.org/2000/svg"><path d="M15.304 21.738l-.689-3.328c1.435-.49 3.032-1.53 3.788-3.704l3.308.682c-1.056 4.044-3.906 5.701-6.407 6.35m-2.978.403c-.208.004-.444.007-.686.007-.117 0-.235 0-.35-.003-.433-.007-.957-.04-1.525-.115l.675-3.264c.43.06.8.084 1.046.088.07.003.148.003.222.003.147 0 .295-.003.423-.003a8.39 8.39 0 001.045-.091l.673 3.26c-.565.071-1.09.108-1.523.118M1.92 15.388l3.311-.682c.706 2.037 2.135 3.092 3.49 3.617.097.037.19.06.288.094L8.32 21.75c-2.497-.645-5.337-2.302-6.4-6.363m-.443-3.613c0-.696.05-1.331.124-1.94l3.25.673c-.05.4-.08.823-.08 1.284 0 .534.04 1.025.104 1.482l-3.24.669a15.977 15.977 0 01-.158-2.168m6.803-9.93l.69 3.342c-1.466.494-3.083 1.57-3.81 3.872l-3.3-.683c1.008-4.218 3.899-5.895 6.42-6.53m2.921-.367l.212-.003c.292 0 .595.006.857.013a14.26 14.26 0 011.613.141l-.672 3.25a8.518 8.518 0 00-1.102-.104 26.642 26.642 0 00-.535-.006h-.131c-.242.003-.605.02-1.032.08l-.676-3.27c.545-.07 1.046-.098 1.466-.101m.904 15.896c-.117.003-.255.003-.393.003l-.202-.003a6.784 6.784 0 01-2.259-.43c-2.023-.784-3.005-2.471-3.005-5.16 0-4.783 3.26-5.526 5.207-5.543h.118c.171 0 .346.003.5.007 4.79.114 5.308 3.94 5.308 5.58 0 1.64-.514 5.462-5.274 5.546m9.63-8.988l-3.297.679c-.736-2.232-2.34-3.311-3.798-3.822l.685-3.318c2.525.679 5.375 2.377 6.41 6.46m.414 3.456c0 .76-.06 1.445-.151 2.097l-3.25-.668a9.546 9.546 0 00.02-2.763l3.243-.67c.08.626.138 1.281.138 2.004M12.306.013A37.117 37.117 0 0011.412 0c-.078 0-.151 0-.225.003C8.817.023 0 .837 0 11.775 0 22.729 8.9 23.587 11.27 23.62c.122.004.246.004.37.004.25 0 .494-.004.713-.007 2.255-.04 11.27-.888 11.27-11.775C23.624.982 14.619.067 12.307.013" fill="#5CB615" fill-rule="nonzero"/></svg>