<svg width="24" height="24" viewBox="0 0 24 24" xmlns="http://www.w3.org/2000/svg"><path d="M12.632 19.684v-2.561c0-.4-.326-.723-.726-.723-.4 0-.726.323-.726.723v2.564c-1.963-.1-6.69-.978-7.2-6.89H6.56c.4 0 .726-.323.726-.723 0-.4-.326-.723-.726-.723H3.946c.195-6.595 5.264-7.452 7.237-7.53v2.68c0 .4.326.723.726.723.4 0 .726-.323.726-.723V3.839c2.07.137 7.012 1.15 7.23 7.512H17.13c-.4 0-.726.323-.726.723 0 .4.326.723.726.723h2.71c-.498 5.882-5.237 6.776-7.207 6.887m10.3-8.333h-1.618c-.238-7.791-6.652-8.83-8.682-8.958V.723c0-.4-.326-.723-.726-.723-.4 0-.726.323-.726.723v1.653c-1.896.074-8.477.918-8.686 8.975H.756c-.4 0-.726.323-.726.723 0 .4.326.723.726.723h1.775c.555 7.334 6.716 8.242 8.649 8.336V22.9c0 .4.326.723.726.723.4 0 .726-.323.726-.723v-1.772c1.933-.104 8.114-1.028 8.649-8.332h1.65a.722.722 0 100-1.445" fill="#313235" fill-rule="nonzero"/></svg>