<svg width="24" height="24" viewBox="0 0 24 24" xmlns="http://www.w3.org/2000/svg"><path d="M17.402 10.086a.722.722 0 01-.521-.219L14.807 7.78a.74.74 0 01-.215-.525v-2.83a.737.737 0 111.472 0v2.521l1.859 1.872a.749.749 0 010 1.05.736.736 0 01-.521.218zm4.676 9.832c.225-.387.53-1.325-.286-2.864-1.254-2.38-3.667-2.548-3.687-2.548a.732.732 0 01-.609-.387C17.41 13.961 15.2 10.1 9.8 10.1c-2.686 0-4.528 1.294-5.607 2.38-1.637 1.66-2.511 3.882-2.5 5.126-.051 1.008 0 1.808.066 2.313H3.17c.266-1.523 1.402-2.44 3.09-2.44 1.687 0 2.823.917 3.088 2.44h4.088c.255-1.523 1.384-2.43 3.069-2.43 1.687 0 2.823.907 3.078 2.43h2.495zm-3.893.74v-.01c0-1.137-.548-1.678-1.677-1.678-1.13 0-1.667.544-1.667 1.677v.01c0 1.126.537 1.68 1.667 1.68s1.677-.554 1.677-1.68zm-10.249 0v-.021c0-1.136-.547-1.677-1.677-1.677-1.126 0-1.677.544-1.677 1.677 0 1.136.548 1.69 1.677 1.69 1.12 0 1.667-.544 1.677-1.67zm.521-11.984v.037c.42-.067.874-.098 1.342-.098 5.384 0 8.06 3.358 8.786 4.454a6.64 6.64 0 012.098.763c1.109-1.166 1.667-2.897 1.667-5.156 0-4.642-2.343-6.995-6.951-6.995-4.599 0-6.942 2.35-6.942 6.995zM21.88 14.73c.44.424.864.958 1.217 1.63 1.627 3.093-.077 4.763-.148 4.834a.746.746 0 01-.51.208h-2.855c-.275 1.513-1.401 2.42-3.078 2.42-1.678 0-2.804-.907-3.07-2.42H9.339c-.276 1.503-1.402 2.41-3.079 2.41-1.677 0-2.803-.907-3.079-2.41H1.123a.742.742 0 01-.716-.585c-.01-.047-.286-1.324-.185-3.24-.01-1.492.901-4.08 2.931-6.134.854-.87 2.128-1.86 3.846-2.404-.01-.117-.01-.245-.01-.363C6.989 3.215 9.98.2 15.402.2c5.432 0 8.424 3.015 8.424 8.477-.004 2.585-.66 4.622-1.947 6.054z" fill="#313235" fill-rule="nonzero"/></svg>