<svg width="24" height="24" viewBox="0 0 24 24" xmlns="http://www.w3.org/2000/svg"><path d="M10.908 1.738c-.205.198-.25.612-.25.92 0 .253.031.707.25.915.211.205.655.235.9.235.246 0 .693-.03.908-.238.205-.199.249-.605.249-.911 0-.31-.044-.72-.252-.921-.205-.199-.605-.239-.908-.239-.242.004-.682.034-.897.239zm.9 3.573c-.837 0-1.489-.219-1.94-.656-.47-.453-.705-1.122-.705-1.996 0-.87.235-1.546.706-1.997C10.316.222 10.97 0 11.809 0c.836 0 1.492.222 1.946.659.47.454.709 1.13.709 2 0 .87-.239 1.543-.71 1.996-.453.437-1.109.656-1.946.656zM8.945 8.376c-.195.206-.286.478-.32.73h6.377c-.037-.252-.125-.521-.323-.726-.32-.336-.857-.404-1.254-.404h-3.23c-.397 0-.931.068-1.25.4zm-1.543 2.232a.3.3 0 01-.3-.302v-.884c0-.844.263-1.567.76-2.084.541-.568 1.348-.864 2.33-.864h3.23c.985 0 1.788.3 2.333.864.5.517.766 1.24.766 2.084v.884a.303.303 0 01-.3.302H7.403zm-3.597 4.148c-.205.199-.249.612-.249.921 0 .31.044.716.249.915.212.205.656.235.9.235.246 0 .693-.03.908-.239.205-.198.25-.605.25-.91 0-.31-.045-.72-.253-.922-.205-.198-.605-.238-.904-.238-.245 0-.686.03-.901.238zm.9 3.57c-.836 0-1.488-.222-1.939-.655-.47-.45-.705-1.123-.705-1.997 0-.87.235-1.546.705-2 .454-.437 1.106-.659 1.943-.659s1.493.222 1.946.659c.471.457.71 1.13.71 2 0 .87-.239 1.543-.713 1.997-.454.437-1.11.655-1.946.655zM1.52 22.121h6.377c-.037-.252-.125-.521-.323-.73-.323-.336-.86-.403-1.254-.403H3.09c-.393 0-.928.07-1.247.404-.198.205-.286.477-.323.729zm4.804-2.632c.981 0 1.788.3 2.332.864.501.52.763 1.244.763 2.087v.881a.3.3 0 01-.299.303H.303A.303.303 0 010 23.32v-.884c0-.844.262-1.566.756-2.084.541-.565 1.348-.867 2.33-.867l3.237.003zm11.69-4.743c-.205.202-.248.612-.248.921 0 .252.03.706.248.915.212.205.656.235.901.235.246 0 .693-.03.908-.239.205-.198.249-.605.249-.91 0-.31-.044-.72-.253-.922-.205-.198-.605-.238-.904-.238-.248.003-.689.033-.9.238zm-1.045 2.918c-.47-.454-.706-1.123-.706-1.997 0-.874.235-1.546.706-1.996.45-.44 1.106-.663 1.943-.663s1.492.222 1.946.66c.47.453.71 1.129.71 2 0 .87-.24 1.542-.713 1.996-.45.437-1.106.655-1.943.655s-1.49-.222-1.943-.655zm-1.24 4.45h6.376c-.037-.252-.124-.52-.322-.73-.323-.335-.861-.402-1.254-.402h-3.234c-.393 0-.928.07-1.247.403-.198.205-.286.477-.32.73zm7.133-1.768c.5.521.763 1.244.763 2.084v.884a.303.303 0 01-.3.303h-8.82a.3.3 0 01-.299-.303v-.884c0-.843.262-1.563.756-2.084.542-.564 1.348-.864 2.33-.864h3.233c.989 0 1.792.3 2.337.864zm-7.863-3.14a.751.751 0 01-1.032.25l-2.178-1.335-2.181 1.334a.75.75 0 01-1.029-.245s0-.003-.003-.003a.753.753 0 01.249-1.032l2.211-1.355v-2.568a.75.75 0 011.5 0v2.568l2.211 1.355a.75.75 0 01.252 1.032z" fill="#5CB615" fill-rule="nonzero"/></svg>