<svg width="24" height="24" viewBox="0 0 24 24" xmlns="http://www.w3.org/2000/svg"><path d="M18.825 22.208c.28 0 .48-.147.508-.205l-.01-18.719c-.024 0-.242-.155-.498-.155H15.65c.003.037.01.068.01.101l.01.232-.003.128c-.064 1.812-1.853 2.067-3.775 2.067-1.923 0-3.711-.255-3.778-2.1l-.004-.095.004-.151.01-.121c0-.02.006-.044.006-.064H4.95c-.258 0-.477.158-.514.222l.014 18.706c.02.003.222.154.5.154h13.876zM11.887 1.415c-2.006 0-2.309 1.005-2.35 1.882l-.006.169c.014.322.027.783 2.356.783 2.33 0 2.347-.464 2.353-.736V3.37a2.86 2.86 0 00-.117-.753c-.091-.299-.377-1.203-2.236-1.203zm6.938.303c1.025 0 1.923.732 1.923 1.566v18.773c0 .85-.88 1.567-1.923 1.567H4.953c-1.042 0-1.923-.72-1.923-1.567V3.281c0-.834.898-1.567 1.92-1.567h3.546C9.06.618 10.226 0 11.887 0c2.024 0 2.962.85 3.395 1.718h3.543zm-7.771 2.04a.663.663 0 01-.666-.659c0-.363.296-.659.666-.659h1.67a.66.66 0 01.663.66.66.66 0 01-.663.658h-1.67zm6.894 10.097a.66.66 0 01.662.66.66.66 0 01-.662.658h-2.346a.66.66 0 01-.626-.44l-.38-1.076-.309 1.042a.663.663 0 01-.635.474h-.702L11.857 17.6a.665.665 0 01-1.257-.141l-1.049-5.204-.743 2.387a.665.665 0 01-.635.464H5.827a.663.663 0 01-.666-.659c0-.363.296-.659.666-.659h1.859l1.371-4.403a.653.653 0 01.67-.464.659.659 0 01.614.528l1.153 5.724.42-.931a.66.66 0 01.605-.39h.636l.75-2.538a.666.666 0 011.263-.033l.908 2.568c-.004.006 1.872.006 1.872.006z" fill="#5CB615" fill-rule="nonzero"/></svg>