<svg width="24" height="24" viewBox="0 0 24 24" xmlns="http://www.w3.org/2000/svg"><path d="M5.022 8.897A1.01 1.01 0 014.01 7.89c0-.269.108-.528.296-.72l6.86-6.873a1.016 1.016 0 011.432 0l6.78 6.786a1.014 1.014 0 01-1.405 1.46c-.01-.008-.017-.018-.027-.028L12.894 3.46v13.26a1.014 1.014 0 01-2.027 0V3.46l-5.133 5.14c-.188.19-.447.298-.712.298zm17.59 7.799c.558 0 1.012.454 1.012 1.012v4.904c0 .558-.454 1.012-1.012 1.012h-21.6A1.013 1.013 0 010 22.612v-4.904a1.014 1.014 0 012.027 0V21.6h19.576v-3.892a1.008 1.008 0 011.009-1.012z" fill="#5CB615" fill-rule="nonzero"/></svg>