<svg width="24" height="24" viewBox="0 0 24 24" xmlns="http://www.w3.org/2000/svg"><path d="M9.862 20.81c4.182 0 5.456-1.684 5.456-7.21 0-3.459-.535-5.345-1.785-6.296-.81-.618-2.01-.917-3.67-.917-1.675 0-2.885.305-3.695.934-1.237.958-1.761 2.834-1.761 6.279 0 5.526 1.274 7.21 5.455 7.21zm.01-18.343c-3.29 0-3.869.72-3.869 2.232 0 .4.05.696.128.928.975-.48 2.205-.716 3.731-.716 1.533 0 2.763.242 3.738.723.077-.229.138-.518.138-.931.003-1.516-.575-2.236-3.866-2.236zm9.103 9.442c.403 0 .73.333.73.74v1.973c0 .407-.327.74-.73.74a.735.735 0 01-.73-.74v-1.234h-1.469c0 .074.004.138.004.212 0 1.903-.151 3.543-.598 4.874l2.37.73a.74.74 0 01.517.746l-.158 2.971a.734.734 0 01-.73.7h-.04a.739.739 0 01-.692-.777l.127-2.394-2.023-.621c-.998 1.58-2.736 2.46-5.694 2.46-2.968 0-4.706-.887-5.701-2.474l-2.07.635.127 2.394a.734.734 0 01-.692.776h-.04a.739.739 0 01-.73-.699L.595 19.95a.738.738 0 01.518-.747l2.42-.742c-.44-1.328-.592-2.965-.592-4.861 0-.07.004-.145.004-.212H1.479v1.234c0 .407-.326.74-.73.74a.735.735 0 01-.729-.74v-1.973c0-.407.326-.74.73-.74h2.245c.094-1.543.356-3.065 1.035-4.282l-2.914-.894a.74.74 0 01-.518-.746l.158-2.972a.735.735 0 01.77-.699c.403.023.713.37.692.776l-.127 2.394 2.743.843c-.192-.46-.293-.995-.293-1.626 0-2.206 1.173-3.123 2.787-3.49A.742.742 0 017.36.218a.722.722 0 011.032 0l.773.784a16.221 16.221 0 011.379 0l.773-.784a.726.726 0 011.035 0c.269.273.276.7.037.989 1.627.36 2.81 1.277 2.81 3.492 0 .619-.097 1.146-.282 1.6l2.658-.817-.127-2.393a.737.737 0 01.692-.776c.387-.03.75.292.77.699l.158 2.971a.734.734 0 01-.518.746l-2.867.881c.588 1.035.924 2.417 1.039 4.3h2.252zm-9.19-3.953c.403 0 .73.333.73.74v9.52c0 .406-.327.739-.73.739a.735.735 0 01-.73-.74v-9.52a.733.733 0 01.73-.739z" fill="#5CB615" fill-rule="nonzero"/></svg>