<?xml version="1.0" encoding="UTF-8"?>
<svg width="24px" height="24px" viewBox="0 0 24 24" version="1.1" xmlns="http://www.w3.org/2000/svg" xmlns:xlink="http://www.w3.org/1999/xlink">
    <title>2.Regular/Internet pendrive_2Regular</title>
    <g id="Symbols" stroke="none" stroke-width="1" fill="none" fill-rule="evenodd">
        <g id="2.Regular/Internet-pendrive_2Regular" fill="#5CB615" fill-rule="nonzero">
            <path d="M11.6268908,15.1563025 C12.1647059,15.1563025 12.5142857,15.4420168 12.5142857,16.0571429 C12.5142857,16.3529412 12.4336134,16.5714286 12.2890756,16.7193277 C12.1344538,16.8806723 11.9058824,16.9579832 11.6268908,16.9579832 C11.3478992,16.9579832 11.1193277,16.8806723 10.9647059,16.7193277 C10.8201681,16.5714286 10.7394958,16.3529412 10.7394958,16.0571429 C10.7394958,15.4420168 11.0890756,15.1563025 11.6268908,15.1563025 Z M11.7344538,5.47226891 C4.8302521,5.47226891 1.47563025,8.90084034 1.47563025,15.9495798 C1.47563025,16.3563025 1.15294118,16.6857143 0.752941176,16.6857143 C0.352941176,16.6857143 0.0302521008,16.3563025 0.0302521008,15.9495798 C0.0302521008,8.13109244 4.07731092,4 11.7310924,4 C12.1277311,4 12.4538073,4.32941176 12.4538073,4.73613445 C12.4571429,5.14285714 12.1310924,5.47226891 11.7344538,5.47226891 L11.7344538,5.47226891 Z M12.4336134,8.71596639 C12.4336134,9.12268908 12.1109244,9.45210084 11.7109244,9.45210084 C7.40168067,9.45210084 5.30756303,11.5932773 5.30756303,15.9932773 C5.30756303,16.4 4.98487395,16.7294118 4.58487395,16.7294118 C4.18823529,16.7294118 3.86218487,16.4 3.86218487,15.9932773 C3.86218487,10.7495798 6.57478992,7.97983193 11.7109244,7.97983193 C12.1109244,7.97983193 12.4336134,8.3092437 12.4336134,8.71596639 Z M22.2151261,17.7680672 L22.2151261,14.2386555 C22.2117647,14.1546218 22.1445378,14.0739496 22.0638655,14.0605042 L21.1663866,14.0605042 L21.1663866,17.9495798 L22.0537815,17.9495798 C22.1411765,17.9495798 22.2151261,17.8689076 22.2151261,17.7680672 L22.2151261,17.7680672 Z M19.3310924,19.2605042 C19.5495798,19.2605042 19.7344538,19.0655462 19.7344538,18.8403361 L19.7344538,18.6857143 L19.7243697,18.6857143 L19.7243697,13.2067227 C19.7243697,12.9781513 19.5394958,12.7865546 19.3210084,12.7865546 L12.3361345,12.7865546 C10.3731092,12.8504202 9.40840336,13.9058824 9.40840336,16.0201681 C9.40840336,18.1277311 10.3731092,19.189916 12.3596639,19.2638655 L19.3310924,19.2638655 L19.3310924,19.2605042 Z M22.0403361,12.5882353 C22.9142857,12.5882353 23.6403361,13.3210084 23.6571429,14.2252101 L23.6571429,17.7680672 C23.6571429,18.6789916 22.9344538,19.4218487 22.0504202,19.4218487 L21.0857143,19.4218487 C20.8470588,20.1815126 20.1512605,20.7327731 19.3310924,20.7327731 L12.3092437,20.7327731 C9.54621849,20.6319328 7.96638655,18.9109244 7.96638655,16.0168067 C7.96638655,13.1159664 9.54957983,11.4016807 12.312605,11.3109244 L19.3210084,11.3109244 C20.1277311,11.3109244 20.8168067,11.8453782 21.0655462,12.5882353 L22.0403361,12.5882353 L22.0403361,12.5882353 Z" id="Internet-pendrive_2Regular"></path>
        </g>
    </g>
</svg>