<svg width="24" height="24" viewBox="0 0 24 24" xmlns="http://www.w3.org/2000/svg"><path d="M20.603 5.388l-.044.686c-.04.605-.38 3.731-3.2 5.687l-1.076.743 1.194.528c4.38 1.953 4.49 6.376 4.494 6.558a.65.65 0 11-1.298-.003c-.006-.558-.265-4.958-5.724-5.957a4.245 4.245 0 00-.07-2.107c3.865-1.338 4.325-4.595 4.38-5.352l.003-.776-.979-.01 1.627-1.65 1.637 1.65-.944.003zM3.184 19.59a.656.656 0 01-.652.645.649.649 0 01-.645-.638c.003-.189.114-4.646 4.578-6.582l1.197-.52-1.07-.754C3.827 9.791 3.48 6.68 3.444 6.074l-.114-.679-.874-.007 1.634-1.65 1.633 1.65-1.032.004.054.783c.054.753.51 4.007 4.38 5.348-.111.356-.175.75-.175 1.196 0 .326.04.622.097.894-5.59.972-5.855 5.416-5.862 5.977zm10.397-6.87c0 .288-.03.537-.09.739-.061.212-.152.376-.276.494-.3.286-.827.343-1.22.343-.39 0-.922-.057-1.214-.34a1.077 1.077 0 01-.276-.497 2.605 2.605 0 01-.09-.736c0-.336.043-.609.124-.83.06-.169.138-.31.242-.407.296-.286.823-.347 1.213-.347.39 0 .921.061 1.217.347.104.1.182.242.242.406.084.222.128.491.128.827zm10.03-7.332L20.59 2.346a.876.876 0 00-1.216-.141l-3.153 3.19a.898.898 0 00-.108.948c.151.31.45.497.783.497l.77.007c-.279 1.086-1.12 2.71-3.627 3.429-.507-.397-1.186-.609-2.04-.609-.854 0-1.526.212-2.034.605-2.507-.72-3.348-2.34-3.623-3.425l.763-.007c.34 0 .642-.191.793-.5.148-.313.104-.683-.158-1.006L4.788 2.353l-.145-.145a.874.874 0 00-.645-.184c-.232.026-.437.144-.528.265L.398 5.392a.898.898 0 00-.111.947c.148.31.45.501.783.501l.992.007c.191 1.26.81 3.526 2.776 5.348-4.356 2.551-4.41 7.338-4.41 7.392 0 1.152.941 2.1 2.118 2.11 1.15 0 2.1-.937 2.117-2.09.007-.437.232-3.973 5.1-4.619.003.004.006.014.013.017.518.5 1.27.753 2.232.753.961 0 1.714-.252 2.235-.75l.007-.01c4.632.639 4.954 3.9 4.965 4.599a2.123 2.123 0 002.117 2.104 2.122 2.122 0 002.118-2.118c0-.05-.05-4.796-4.323-7.358 2.014-1.842 2.639-4.171 2.83-5.378l.989-.01a.868.868 0 00.793-.504.92.92 0 00-.128-.945z" fill="#313235" fill-rule="nonzero"/></svg>