<svg width="24" height="24" viewBox="0 0 24 24" xmlns="http://www.w3.org/2000/svg"><path d="M21.413 5.388l-.043.686c-.04.605-.38 3.731-3.2 5.687l-1.076.743 1.193.528c4.38 1.953 4.491 6.376 4.495 6.558a.65.65 0 11-1.298-.003c-.007-.558-.266-4.958-5.724-5.957a4.245 4.245 0 00-.07-2.107c3.865-1.338 4.325-4.595 4.379-5.352l.003-.776-.978-.01 1.627-1.65 1.637 1.65-.945.003zM3.995 19.59a.656.656 0 01-.652.645.649.649 0 01-.646-.638c.004-.189.115-4.646 4.579-6.582l1.196-.52-1.069-.754c-2.766-1.95-3.112-5.062-3.15-5.667l-.114-.679-.873-.007 1.633-1.65 1.634 1.65-1.032.004.054.783c.053.753.51 4.007 4.38 5.348-.111.356-.175.75-.175 1.196 0 .326.04.622.097.894-5.59.972-5.855 5.416-5.862 5.977zm10.397-6.87c0 .288-.03.537-.091.739-.06.212-.151.376-.276.494-.299.286-.827.343-1.22.343-.39 0-.921-.057-1.213-.34a1.077 1.077 0 01-.276-.497 2.605 2.605 0 01-.09-.736c0-.336.043-.609.124-.83.06-.169.137-.31.242-.407.295-.286.823-.347 1.213-.347.39 0 .921.061 1.217.347.104.1.181.242.242.406.084.222.128.491.128.827zm10.03-7.332L21.4 2.346a.876.876 0 00-1.217-.141l-3.153 3.19a.898.898 0 00-.107.948c.15.31.45.497.783.497l.77.007c-.28 1.086-1.12 2.71-3.627 3.429-.508-.397-1.187-.609-2.04-.609-.854 0-1.527.212-2.034.605-2.508-.72-3.348-2.34-3.624-3.425l.763-.007c.34 0 .642-.191.794-.5.147-.313.104-.683-.158-1.006L5.598 2.353l-.144-.145a.874.874 0 00-.646-.184c-.232.026-.437.144-.527.265L1.208 5.392a.898.898 0 00-.11.947c.147.31.45.501.783.501l.991.007c.192 1.26.81 3.526 2.777 5.348-4.357 2.551-4.41 7.338-4.41 7.392 0 1.152.94 2.1 2.117 2.11 1.15 0 2.101-.937 2.118-2.09.007-.437.232-3.973 5.1-4.619.002.004.006.014.013.017.517.5 1.27.753 2.231.753.962 0 1.715-.252 2.236-.75l.007-.01c4.631.639 4.954 3.9 4.964 4.599a2.123 2.123 0 002.118 2.104 2.122 2.122 0 002.118-2.118c0-.05-.05-4.796-4.323-7.358 2.013-1.842 2.638-4.171 2.83-5.378l.988-.01a.868.868 0 00.794-.504.92.92 0 00-.128-.945z" fill="#313235" fill-rule="nonzero"/></svg>