<svg width="24" height="24" viewBox="0 0 24 24" xmlns="http://www.w3.org/2000/svg"><path d="M22.141 15.306V4.808c0-1.304-1.102-2.366-2.46-2.366H3.943c-1.358 0-2.46 1.062-2.46 2.366V15.31c0 1.146.77 2.098 1.868 2.316.346.067.595.36.595.703v2.54c0 .182.212.364.417.364.087 0 .222 0 .383-.208l2.488-3.08a.76.76 0 01.584-.275h11.866c1.355 0 2.457-1.059 2.457-2.363zM19.681 1.01c2.171 0 3.943 1.704 3.943 3.798V15.31c0 2.094-1.769 3.795-3.943 3.795H8.178l-2.255 2.79a1.93 1.93 0 01-1.56.77c-1.032 0-1.9-.824-1.9-1.798v-2.007A3.75 3.75 0 010 15.306V4.808C0 2.714 1.771 1.01 3.943 1.01H19.68zm-4.999 7.577c.057-.226.155-.774-.107-.992-.118-.098-.313-.161-.521-.171l-.07-.004c-.273 0-.566.08-.845.232-.174.094-.356.195-.55.306l-.02.013-.024.01a1.652 1.652 0 01-.78.192c-.28 0-.555-.07-.797-.205a18.113 18.113 0 00-.578-.32 1.798 1.798 0 00-.847-.231l-.067.003c-.209.01-.404.074-.521.172-.266.218-.165.77-.111.991.195.79.581 1.624 1.15 2.478.473.709.833 1.146 1.485 1.794.11.108.222.206.29.263.06-.047.15-.128.248-.222l.003-.007.05-.047c.64-.642.999-1.072 1.47-1.778.56-.854.95-1.688 1.142-2.477zm-.55-2.595c.537.026 1.041.208 1.407.514.636.528.844 1.381.589 2.413-.236.948-.686 1.93-1.348 2.921a11.85 11.85 0 01-1.65 2l-.017.017c-.071.07-.313.31-.521.45-.179.125-.38.209-.579.253-.057.01-.117.02-.181.023h-.135a1.483 1.483 0 01-.181-.023 1.606 1.606 0 01-.578-.252c-.205-.145-.45-.384-.521-.45a11.643 11.643 0 01-1.667-2.021c-.66-.988-1.113-1.973-1.345-2.921-.255-1.032-.044-1.89.588-2.413.367-.306.868-.488 1.412-.515.05 0 .098-.003.145-.003.527 0 1.062.138 1.566.407.188.1.38.208.588.326.02.013.044.016.067.016a.142.142 0 00.068-.016c.208-.121.4-.229.588-.33a3.338 3.338 0 011.566-.406c.04.006.091.01.138.01z" fill="#5CB615" fill-rule="nonzero"/></svg>