<svg width="24" height="24" viewBox="0 0 24 24" xmlns="http://www.w3.org/2000/svg"><path d="M20.84 19.405c.72 0 1.305.568 1.305 1.27 0 .693-.582 1.261-1.305 1.261-.712 0-1.294-.568-1.294-1.26 0-.703.582-1.271 1.294-1.271zM7.516 17.25c1.58-.356 3.042-.49 3.852-.54v5.354c-1.62-.424-3.022-2.242-3.852-4.814zm-4.037 1.557c.79-.501 1.697-.878 2.615-1.177.555 1.684 1.335 3.103 2.282 4.141-2.124-.507-3.754-1.499-4.897-2.964zm-1.966-6.182h3.744c.05 1.27.209 2.484.464 3.61-1.045.326-2.094.763-3.022 1.341-.702-1.347-1.11-3.005-1.186-4.95zm1.163-6.558c.948.588 1.996 1.022 3.032 1.348a20.703 20.703 0 00-.464 3.765H1.503c.067-2.014.463-3.718 1.173-5.113zm5.71-4.218C7.43 2.887 6.65 4.313 6.095 6.02c-.918-.299-1.825-.675-2.635-1.186C4.602 3.35 6.242 2.36 8.387 1.849zm2.982-.3v5.385a24.961 24.961 0 01-3.852-.527c.83-2.592 2.222-4.424 3.852-4.857zm-4.642 9.63c.04-1.182.178-2.329.403-3.38 1.768.413 3.368.54 4.236.577v2.804H6.726zm4.642 1.446v2.639c-.87.05-2.47.191-4.225.588a17.075 17.075 0 01-.404-3.227h4.63zm9.472-10.75c.72 0 1.305.569 1.305 1.261 0 .703-.582 1.27-1.305 1.27a1.283 1.283 0 01-1.294-1.27c0-.689.582-1.26 1.294-1.26zm0 8.797c.72 0 1.305.568 1.305 1.27 0 .703-.582 1.271-1.305 1.271a1.283 1.283 0 01-1.294-1.27c0-.703.582-1.27 1.294-1.27zm-2.669 1.994a2.764 2.764 0 002.666 1.993c1.54 0 2.783-1.224 2.783-2.716 0-1.493-1.244-2.716-2.783-2.716-1.274 0-2.34.847-2.666 1.993h-5.324V9.9h3.429c.403 0 .729-.32.74-.713l.05-5.328h1.105a2.764 2.764 0 002.666 1.993c1.54 0 2.783-1.213 2.783-2.716 0-1.492-1.244-2.706-2.783-2.706-1.274 0-2.34.847-2.666 1.983h-1.835c-.403 0-.74.32-.74.723l-.057 5.318h-2.685V.723a.725.725 0 00-.74-.723C4.195 0 .007 4.084.007 11.805v.118c.02 2.88.622 5.24 1.778 7.069.02.037.03.087.06.114.02.02.04.02.05.037 1.947 2.948 5.382 4.477 10.223 4.477.416 0 .74-.326.74-.723v-7.536h2.685l.057 5.325c0 .393.336.712.74.712h1.838a2.755 2.755 0 002.666 1.984c1.54 0 2.783-1.214 2.783-2.706 0-1.493-1.244-2.716-2.783-2.716-1.274 0-2.34.847-2.666 1.993h-1.106l-.05-5.324a.736.736 0 00-.74-.713h-3.428v-1.25h5.317z" fill="#313235" fill-rule="nonzero"/></svg>