<svg width="24" height="24" viewBox="0 0 24 24" xmlns="http://www.w3.org/2000/svg"><path d="M20.948 7.647l-.8.797-5.019-4.965.82-.813c2.236-2.216 4.138-.84 4.858-.145.087.087.185.185.265.269.7.73 2.094 2.662-.124 4.857zM1.822 20.605l1.16 1.15-1.379.252.219-1.402zm3.092-3.018l-2.023-2L14.097 4.5l2.02 2L4.915 17.587zm-.191 3.848l-2.629-2.601.266-1.728 4.06 4.017-1.697.312zm3.216-.853l-1.996-1.974L17.146 7.523l1.967 1.946c.003 0-11.174 11.113-11.174 11.113zm14.185-18.79c-.097-.101-.198-.202-.299-.3-1.647-1.6-4.326-2.403-6.91.155L1.344 15.076a.632.632 0 00-.148.215.73.73 0 00-.024.08c-.01.034-.027.068-.034.101L.01 22.793a.71.71 0 00.215.629c.172.161.41.232.639.191l7.042-1.294c.013 0 .023.007.037.007a.713.713 0 00.366-.114c.014-.007.027-.02.044-.027.037-.024.077-.04.108-.07l.01-.014c.006-.007.016-.014.023-.02L21.987 8.669c2.55-2.531 1.744-5.21.137-6.877z" fill="#5CB615" fill-rule="nonzero"/></svg>