<svg width="24" height="24" viewBox="0 0 24 24" xmlns="http://www.w3.org/2000/svg"><path d="M12.992 16.783a.735.735 0 011.045-.077c.31.269.343.74.077 1.052a42.31 42.31 0 01-1.801 1.943c-2.216 2.225-3.89 3.398-5.429 3.798-.4.104-.79.155-1.176.155-1.335 0-2.599-.619-3.846-1.872-3.475-3.496-1.684-6.73 2.074-10.511 3.758-3.779 6.975-5.58 10.447-2.084 1.133 1.142 1.738 2.279 1.842 3.479a.746.746 0 01-.672.81.756.756 0 01-.803-.68c-.074-.836-.535-1.673-1.412-2.554-1.234-1.244-2.343-1.65-3.6-1.328-1.254.326-2.763 1.409-4.753 3.412-1.99 2.003-3.066 3.52-3.388 4.78-.326 1.264.08 2.38 1.317 3.623 1.237 1.244 2.347 1.65 3.6 1.325 1.254-.326 2.763-1.409 4.753-3.412a42.545 42.545 0 001.725-1.859zm8.773-14.877c1.606 1.617 2.164 3.267 1.704 5.052-.4 1.55-1.563 3.234-3.778 5.462-2.353 2.367-4.494 3.96-6.619 3.96-1.267 0-2.53-.568-3.832-1.876-1.089-1.092-1.684-2.181-1.828-3.33a.74.74 0 01.645-.831.75.75 0 01.827.649c.098.803.558 1.61 1.402 2.46 2.38 2.39 4.406 1.882 8.353-2.084 3.946-3.97 4.45-6.01 2.074-8.403-2.374-2.39-4.407-1.886-8.35 2.084-.692.699-1.254 1.314-1.718 1.882a.742.742 0 01-1.045.1.746.746 0 01-.1-1.048 27.45 27.45 0 011.814-1.986C15.072.212 18.29-1.59 21.764 1.906z" fill="#5CB615" fill-rule="nonzero"/></svg>