<svg width="24" height="24" viewBox="0 0 24 24" xmlns="http://www.w3.org/2000/svg"><path d="M8.346 7.92a.962.962 0 110-1.923c.535 0 .965.43.965.961a.966.966 0 01-.965.961zm.007 2.974a.962.962 0 110 1.923.962.962 0 110-1.923zm3.27-3.153a.724.724 0 01-.726-.723c0-.4.327-.722.727-.722h6.675c.4 0 .726.322.726.722 0 .4-.326.723-.726.723h-6.675zm6.774 3.392c.4 0 .726.322.726.722 0 .4-.326.723-.726.723H11.72a.724.724 0 01-.726-.723c0-.4.326-.722.726-.722h6.676zM8.353 15.708a.962.962 0 110 1.922.962.962 0 110-1.922zm10.044.238c.4 0 .726.323.726.723 0 .4-.326.723-.726.723H11.72a.724.724 0 01-.726-.723c0-.4.326-.723.726-.723h6.676zm1.899 5.768V1.91c0-.232-.175-.44-.249-.467l-14.346.003c-.047.024-.222.232-.222.464v19.805c0 .246.158.437.229.464h14.37c.053-.017.218-.202.218-.464zM20.077 0c.874 0 1.67.91 1.67 1.91v19.804c0 1.036-.765 1.91-1.67 1.91H5.701c-.908 0-1.67-.874-1.67-1.91V1.91C4.03.911 4.826 0 5.7 0h14.376z" fill="#5CB615" fill-rule="nonzero"/></svg>