<svg width="24" height="24" viewBox="0 0 24 24" xmlns="http://www.w3.org/2000/svg"><path d="M4.635 12.627c.552 0 .723-.165.723-.703 0-.54-.168-.706-.723-.706-.554 0-.722.165-.722.706 0 .535.171.703.722.703zm0-2.847c1.372 0 2.192.8 2.192 2.141 0 1.321-.84 2.141-2.192 2.141-1.354 0-2.195-.82-2.195-2.141.004-1.341.824-2.141 2.195-2.141zm16.017 3.213l1.197-1.112-1.54-1.402H8.97a.74.74 0 01-.673-.427c-.494-1.089-1.55-1.617-3.22-1.617-2.434 0-3.57 1.106-3.57 3.486 0 2.376 1.136 3.486 3.57 3.486 1.58 0 2.608-.44 3.055-1.311.047-.091.155-.36.155-.363a.733.733 0 01.682-.454h5.405l1.103-1.55a.747.747 0 011.186-.03l.82 1.039.626-.982a.747.747 0 011.143-.128l1.401 1.365zm2.77-1.643a.719.719 0 01.235.52.726.726 0 01-.228.525l-2.283 2.121a.75.75 0 01-1.028-.013l-1.247-1.217-.696 1.089a.745.745 0 01-.588.34.706.706 0 01-.619-.28l-.854-1.079-.75 1.052a.738.738 0 01-.604.31H9.455c-.003.01-.01.016-.013.027-.494.958-1.65 2.1-4.37 2.1-3.25 0-5.042-1.748-5.042-4.92 0-3.174 1.792-4.922 5.042-4.922 2.491 0 3.728 1.032 4.34 2.044h11.183c.185 0 .366.07.5.192l2.327 2.11z" fill="#313235" fill-rule="nonzero"/></svg>