<svg width="24" height="24" xmlns="http://www.w3.org/2000/svg"><path d="M20.326 11.797c-1.546 1.33-4.047 2.322-7.432 2.948a25.944 25.944 0 01-3.677.426c-.188-1.297-1.257-2.013-3.015-2.184a6.202 6.202 0 00-.646-.034c-.991 0-1.754.262-2.252.793-.907-.726-1.486-1.707-1.728-3.015-.36-1.96.199-3.546 1.715-4.85 1.546-1.331 4.043-2.323 7.425-2.948 3.381-.625 6.067-.592 7.99.1 1.879.68 2.971 1.96 3.331 3.917.366 1.956-.195 3.542-1.71 4.847M5.834 16.785c-1.825-.178-1.761-.85-1.714-1.341.047-.478.097-1.019 1.435-1.019.162 0 .326.01.501.027 1.829.178 1.765.85 1.714 1.345-.047.477-.097 1.015-1.435 1.015-.154 0-.326-.01-.5-.027M23.488 6.68c-.457-2.484-1.896-4.178-4.279-5.039-2.168-.78-5.113-.837-8.753-.161-3.64.672-6.373 1.774-8.118 3.28C.42 6.411-.319 8.51.138 10.997c.33 1.795 1.193 3.183 2.551 4.14-.007.058-.023.108-.027.166-.171 1.794.958 2.75 3.035 2.95.226.024.44.034.646.034.32 0 .608-.033.88-.087.222.397.424.931.28 1.442-.219.766-1.157 1.294-1.906 1.603a.736.736 0 00.558 1.362c1.529-.629 2.457-1.493 2.76-2.565.221-.776.073-1.64-.38-2.487.245-.242.433-.542.557-.911a26.462 26.462 0 004.074-.454c3.64-.672 6.373-1.775 8.121-3.277 1.916-1.65 2.66-3.748 2.202-6.232" fill="#313235" fill-rule="nonzero"/></svg>