<svg width="24" height="24" viewBox="0 0 24 24" xmlns="http://www.w3.org/2000/svg"><path d="M20.242 19.822c0 .776-.181 1.341-.555 1.728-.366.376-1.015.591-1.788.591H8.595c-.09-.09-.202-.333-.239-.417-.171-.37-.716-1.479-1.465-3.005l-.034-.067c-1.092-2.218-2.45-4.978-3.25-6.689-.088-.188-.26-.655.077-.924a.703.703 0 01.447-.155c.188 0 .383.07.541.198.262.209.521.545.86 1.123a1.462 1.462 0 001.648.669 1.477 1.477 0 001.075-1.425v-8.82c.061-.965.461-1.157 1.093-1.157.77 0 1.1.333 1.1 1.116v3.483c0 .46.214.9.58 1.18.256.194.569.299.885.299.134 0 .265-.02.396-.058.125-.033.266-.053.427-.053.767 0 .877.39.925.554.11.387.37.71.722.898a1.45 1.45 0 001.146.097c.135-.043.293-.067.474-.067.77 0 .878.376.928.561a1.466 1.466 0 001.872 1.005 1.49 1.49 0 01.468-.067c.695 0 .981.29.981.995v8.407h-.01zm-.981-10.87c-.34 0-.65.046-.928.14-.286-1.028-1.13-1.64-2.34-1.64-.34 0-.655.047-.93.141-.29-1.022-1.13-1.623-2.334-1.623-.295 0-.571.037-.82.107V2.595C11.91.995 10.928 0 9.348 0c-1.52 0-2.45.924-2.555 2.541v.054c0 .31-.003 6.192 0 8.86-.406-.692-.773-1.176-1.213-1.526a2.333 2.333 0 00-1.449-.517c-.484 0-.961.158-1.358.477-.78.625-.971 1.69-.49 2.716.816 1.738 2.19 4.531 3.297 6.777.689 1.398 1.284 2.605 1.452 2.97.175.38.588 1.272 1.526 1.272h9.345c1.18 0 2.184-.37 2.833-1.04.646-.668.972-1.596.972-2.762v-8.397c-.004-1.526-.942-2.474-2.447-2.474z" fill="#313235" fill-rule="nonzero"/></svg>