<svg width="24" height="24" xmlns="http://www.w3.org/2000/svg"><path d="M22.148 21.096l-3.862-.635V1.644l3.862.635v18.817zM1.543 2.282l4.094-.645v18.82l-4.094.649V2.282zm11.055.797l4.178-1.3v18.769l-4.178 1.3V3.08zM7.143 1.792l3.95 1.28v18.76l-3.95-1.28V1.791zM23.025.894L17.654.01c-.017-.003-.037.003-.054.003C17.576.01 17.556 0 17.533 0c-.05 0-.094.017-.141.027-.027.007-.058-.003-.084.007l-5.46 1.697L6.623.037c-.03-.01-.057 0-.088-.007C6.484.02 6.44 0 6.387 0c-.024 0-.044.01-.064.013-.017.004-.034-.006-.054-.003L.666.894a.755.755 0 00-.636.746v20.343a.754.754 0 00.874.743l5.425-.857 5.284 1.714a.778.778 0 00.458.004l5.516-1.718 5.193.857a.775.775 0 00.612-.168.757.757 0 00.265-.575V1.637a.754.754 0 00-.632-.743z" fill="#313235" fill-rule="nonzero"/></svg>