<svg width="24" height="24" viewBox="0 0 24 24" xmlns="http://www.w3.org/2000/svg"><path d="M12.405 17.331c.457 0 .908.172 1.25.518l4.263 4.259c.037.023.137-.014.188-.04a.24.24 0 00.141-.226V1.775a.25.25 0 00-.245-.252H6.782a.245.245 0 00-.25.245v20.074c0 .134.088.202.142.225.054.027.158.06.262-.023l4.209-4.199c.339-.329.79-.514 1.26-.514m5.59 6.293a1.76 1.76 0 01-1.076-.37l-4.34-4.326a.253.253 0 00-.362.006l-4.28 4.256c-.61.477-1.327.548-1.939.245a1.766 1.766 0 01-.988-1.593V1.775C5.01.797 5.803 0 6.782 0h11.22c.974 0 1.771.797 1.771 1.778v20.064c0 .682-.38 1.29-.991 1.593a1.725 1.725 0 01-.787.189" fill="#5CB615" fill-rule="nonzero"/></svg>