<svg width="24" height="24" viewBox="0 0 24 24" xmlns="http://www.w3.org/2000/svg"><path d="M11.852 23.543h-.02c-.06 0-.114 0-.165-.004h-.02a2.903 2.903 0 01-.48-.067 4.16 4.16 0 01-1.533-.689c-.548-.396-1.194-1.049-1.379-1.237-1.905-1.966-3.018-3.361-4.413-5.526-1.745-2.71-2.945-5.402-3.563-8-.672-2.823-.118-5.166 1.556-6.605C2.807.585 4.135.084 5.566.01c1.51-.077 3.076.306 4.528 1.113.494.272 1.002.568 1.556.894.111.06.246.06.36 0 .551-.33 1.062-.622 1.56-.898C15.018.316 16.585-.067 18.094.01c1.435.074 2.76.575 3.731 1.408C23.5 2.854 24.054 5.2 23.382 8.024c-.619 2.594-1.816 5.284-3.564 7.996-1.381 2.148-2.487 3.536-4.366 5.476a.584.584 0 01-.044.05c-.184.192-.826.84-1.374 1.234a4.106 4.106 0 01-1.533.689c-.158.037-.32.06-.48.067H12c-.05.007-.097.007-.148.007zm-.02-1.345h.104a1.3 1.3 0 00.256-.037l.02-.003a2.758 2.758 0 001.035-.47c.346-.25.824-.7 1.15-1.033a.585.585 0 01.04-.047c1.859-1.916 2.89-3.21 4.249-5.317 1.664-2.588 2.803-5.14 3.388-7.583.276-1.157.32-2.202.128-3.103-.192-.894-.612-1.623-1.247-2.171-.75-.642-1.789-1.026-2.925-1.086-1.264-.06-2.581.265-3.812.951-.487.27-.988.558-1.532.88l-.014.008a1.724 1.724 0 01-1.7-.007l-.007-.004A53.221 53.221 0 009.439 2.3c-1.227-.686-2.545-1.012-3.802-.948-1.14.057-2.178.444-2.924 1.086-.64.548-1.06 1.277-1.25 2.171-.192.901-.152 1.947.124 3.103.584 2.447 1.72 4.998 3.384 7.583 1.358 2.108 2.39 3.398 4.25 5.318.322.336.833.817 1.196 1.079.31.225.662.386 1.035.47l.02.004c.084.02.172.03.256.037h.104v-.004z" fill="#5CB615" fill-rule="nonzero"/></svg>