<svg width="24" height="24" viewBox="0 0 24 24" xmlns="http://www.w3.org/2000/svg"><path d="M12.938 5.479H1.445v.874h9.933c.4 0 .723.33.723.74v4.036c0 .407-.323.74-.723.74H1.445v1.5H22c.08-.216.141-.435.165-.666a2.567 2.567 0 00-.037-.75H13.66a.73.73 0 01-.723-.74V5.48zm8.517 4.995a6.837 6.837 0 00-.709-.85c-2.645-2.7-4.998-3.64-6.36-3.967v4.817h7.07zm-1.536 5.284a6.9 6.9 0 001.1-.918H1.444v1.063c12.605 0 16.713.02 17.9.03h.01a.983.983 0 00.564-.175zM3.536 10.393V7.832h-2.09v2.561h2.09zm1.446 0h2.245V7.832H4.982v2.561zm3.69 0h1.983V7.832H8.672v2.561zm-8.46 6.77A.75.75 0 010 16.642v-11.9c0-.406.323-.739.723-.739h12.4c.138-.003 4.067-.1 8.642 4.575 1.361 1.392 1.98 2.83 1.835 4.272-.205 2.054-1.9 3.476-2.887 4.142a2.438 2.438 0 01-1.358.416h-.02c-1.21-.01-5.446-.03-18.612-.03a.72.72 0 01-.511-.215zm22.685 1.116c.4 0 .723.33.723.74a.73.73 0 01-.723.739H.723a.73.73 0 01-.723-.74c0-.41.323-.739.723-.739h22.174z" fill="#313235" fill-rule="nonzero"/></svg>