<svg width="24" height="24" viewBox="0 0 24 24" xmlns="http://www.w3.org/2000/svg"><path d="M18.242 18.37H5.388c-.054 0-.107-.047-.114-.05v-6.491c0-.004.003-.007.003-.014l-.003-.01-.003-2.877c0-.007.003-.01.003-.017 0-.007-.003-.01-.003-.017V5.378c.013-.037.084-.09.12-.09h12.854a.204.204 0 01.118.083v6.437c0 .004-.003.007-.003.01 0 .004.003.007.003.01v2.888c0 .003-.003.007-.003.013l.003.014v3.556c-.013.024-.074.07-.121.07zm4.655-5.829c.4 0 .727-.326.727-.726 0-.4-.327-.726-.727-.726h-3.082V9.634h3.082c.4 0 .727-.326.727-.726 0-.4-.327-.726-.727-.726h-3.082v-2.84c0-.808-.733-1.513-1.57-1.513h-2.793V.726c0-.4-.326-.726-.726-.726-.4 0-.726.326-.726.726V3.83h-1.455V.726a.727.727 0 00-1.452 0V3.83H9.636V.726c0-.4-.326-.726-.726-.726-.4 0-.726.326-.726.726V3.83H5.392c-.837 0-1.57.705-1.57 1.512v2.84H.729a.727.727 0 000 1.452h3.093v1.456H.729c-.4 0-.726.326-.726.726 0 .4.326.726.726.726h3.093v1.456H.729c-.4 0-.726.326-.726.726 0 .4.326.726.726.726h3.093v2.87c0 .817.72 1.503 1.57 1.503h2.793v3.072c0 .4.326.726.726.726.4 0 .726-.326.726-.726v-3.072h1.455v3.072c0 .4.326.726.726.726.4 0 .727-.326.727-.726v-3.072H14v3.072c0 .4.326.726.726.726.4 0 .726-.326.726-.726v-3.072h2.793c.837 0 1.57-.703 1.57-1.503v-2.87h3.082c.4 0 .727-.326.727-.726 0-.4-.327-.726-.727-.726h-3.082V12.54h3.082z" fill="#5CB615" fill-rule="nonzero"/></svg>