<svg width="24" height="24" viewBox="0 0 24 24" xmlns="http://www.w3.org/2000/svg"><path d="M5.755 13.95l3.455-1.977-3.455-1.98v3.957zm5.28-2.605a.73.73 0 01.367.628.73.73 0 01-.367.629l-5.647 3.23a.726.726 0 01-.73 0 .728.728 0 01-.366-.625V8.739a.732.732 0 011.096-.625l5.647 3.23zm11.126 7.848V4.43c0-1.042-.232-1.785-.719-2.265-.487-.481-1.237-.716-2.29-.716h-7.451c-1.042 0-1.795.242-2.29.733-.487.49-.719 1.226-.719 2.248v.599c3.516.49 5.533 2.74 5.533 6.947 0 4.199-2.007 6.437-5.522 6.938v.716c.05.8.282 1.419.709 1.842.487.474 1.237.706 2.289.706h7.452c1.052 0 1.802-.232 2.289-.706.487-.484.72-1.223.72-2.279zm-15.058-1.62c3.858 0 5.66-1.785 5.66-5.597 0-3.821-1.802-5.606-5.66-5.606-3.85 0-5.64 1.788-5.64 5.606 0 3.812 1.79 5.597 5.64 5.597zM22.484 1.14c.77.774 1.14 1.843 1.14 3.291v14.763c0 1.456-.38 2.538-1.16 3.301-.77.763-1.852 1.13-3.314 1.13H11.7c-1.461 0-2.544-.367-3.324-1.12-.689-.686-1.062-1.61-1.139-2.837v-.655c-.05 0-.087.01-.134.01C2.608 19.022 0 16.773 0 11.976 0 7.17 2.612 4.921 7.103 4.921c.05 0 .087.01.127.01v-.504c0-1.429.37-2.49 1.15-3.27C9.156.376 10.239 0 11.7 0h7.453c1.462 0 2.551.376 3.331 1.14zm-7.993 18.79c-.219-.221-.33-.527-.33-.91 0-.787.474-1.258 1.264-1.258s1.264.47 1.264 1.257c0 .384-.11.69-.33.911-.221.222-.544.343-.934.343s-.712-.117-.934-.343z" fill="#5CB615" fill-rule="nonzero"/></svg>