<?xml version="1.0" encoding="UTF-8"?>
<svg width="24px" height="24px" viewBox="0 0 24 24" version="1.1" xmlns="http://www.w3.org/2000/svg" xmlns:xlink="http://www.w3.org/1999/xlink">
    <title>2.Regular/Movil_Dispositivo_Terminales_2Regular</title>
    <g id="Symbols" stroke="none" stroke-width="1" fill="none" fill-rule="evenodd">
        <g id="2.Regular/Movil_Dispositivo_Terminales_2Regular" fill="#5CB615" fill-rule="nonzero">
            <path d="M15.8453782,-5.32907052e-13 C17.1764706,-5.32907052e-13 18.1445378,0.322689076 18.810084,0.991596639 C19.4756303,1.6605042 19.794958,2.62521008 19.794958,3.94957983 L19.794958,19.6806723 C19.794958,21.0184874 19.4689076,21.9932773 18.8033613,22.6554622 C18.1378151,23.3109244 17.1731092,23.6302521 15.8453782,23.6302521 L7.97983193,23.6302521 C6.65210084,23.6302521 5.68403361,23.3109244 5.02184874,22.6554622 C4.35294118,21.9932773 4.0302521,21.0184874 4.0302521,19.6806723 L4.0302521,3.94957983 C4.0302521,2.64537815 4.35294118,1.68739496 5.0184874,1.01176471 C5.6907563,0.332773109 6.65882353,-5.32907052e-13 7.97983193,-5.32907052e-13 L15.8453782,-5.32907052e-13 Z M15.8453782,1.34453782 L7.97983193,1.34453782 C6.13109244,1.34453782 5.37478992,2.10084034 5.37478992,3.94957983 L5.37478992,19.6806723 C5.37478992,21.5798319 6.08067227,22.2857143 7.97983193,22.2857143 L15.8453782,22.2857143 C17.7445378,22.2857143 18.4504202,21.5798319 18.4504202,19.6806723 L18.4504202,3.94957983 C18.4504202,2.99831933 18.2554622,2.3394958 17.8588235,1.9394958 C17.4621849,1.5394958 16.8,1.34453782 15.8453782,1.34453782 Z M11.9159664,18.1546218 C12.7529412,18.1546218 13.2470588,18.6554622 13.2470588,19.492437 C13.2470588,19.902521 13.1294118,20.2285714 12.9008403,20.4638655 C12.6722689,20.6991597 12.3226891,20.8302521 11.912605,20.8302521 C11.502521,20.8302521 11.1596639,20.702521 10.9277311,20.4638655 C10.6957983,20.2252101 10.5815126,19.8991597 10.5815126,19.492437 C10.5815126,18.6554622 11.0789916,18.1546218 11.9159664,18.1546218 Z" id="Movil_Dispositivo_Terminales_2Regular"></path>
        </g>
    </g>
</svg>