<svg width="24" height="24" viewBox="0 0 24 24" xmlns="http://www.w3.org/2000/svg"><path d="M22.35 12.474a.768.768 0 00.554-.73.776.776 0 00-.447-.699l.941-.94a.775.775 0 00-1.095-1.097l-1.964 1.963h-.635l.246-.245a.775.775 0 00-1.096-1.096l-1.341 1.341H13.74l3.798-3.798h2.552a.777.777 0 000-1.553h-1.146a.76.76 0 00-.185-.763.764.764 0 00-.68-.202V3.61a.777.777 0 00-1.552 0v2.38l-3.936 3.936V6.24L14.027 4.8a.775.775 0 00-1.096-1.096l-.34.34v-.69l2.03-2.03A.775.775 0 0013.527.23l-.978.981a.767.767 0 00-.73-.555.761.761 0 00-.729.555L10.111.23a.775.775 0 00-1.096 1.095l2.03 2.03v.552l-.205-.202A.775.775 0 009.745 4.8l1.3 1.3v3.772L7.247 6.074V3.607a.777.777 0 00-1.553 0v1.062a.77.77 0 00-.763.185.762.762 0 00-.185.763H3.684a.777.777 0 000 1.553h2.467l3.799 3.798H6.252L4.911 9.627a.775.775 0 00-1.096 1.096l.246.245h-.774L1.324 9.005A.775.775 0 00.23 10.101l.944.941a.761.761 0 00.104 1.429L.23 13.519a.775.775 0 001.095 1.096l2.098-2.097h.689l-.3.299a.775.775 0 001.097 1.096l1.395-1.395H9.99l-3.94 3.94H3.67a.777.777 0 000 1.553h1.046a.767.767 0 00.202.678c.15.151.35.229.548.229.073 0 .144-.02.215-.044v1.15a.777.777 0 001.553 0v-2.552l3.798-3.798v3.771l-1.3 1.301a.775.775 0 001.095 1.096l.205-.202v.636l-2.03 2.03a.775.775 0 001.095 1.096l1.012-1.012a.773.773 0 00.7.447c.309 0 .57-.185.695-.447l1.012 1.012a.774.774 0 101.096-1.096l-2.03-2.03v-.773l.339.339a.774.774 0 101.096-1.096l-1.435-1.438v-3.695l3.936 3.94v2.467a.777.777 0 001.553 0v-1.133c.043.007.087.027.13.027a.757.757 0 00.75-.908h1.13c.43 0 .776-.345.776-.776a.775.775 0 00-.776-.776h-2.464l-3.94-3.94h3.772l1.395 1.395a.77.77 0 00.548.225.775.775 0 00.548-1.321l-.3-.299h.552l2.097 2.098a.774.774 0 101.096-1.096l-1.035-1.042z" fill="#5CB615" fill-rule="nonzero"/></svg>