<svg width="24" height="24" viewBox="0 0 24 24" xmlns="http://www.w3.org/2000/svg"><path d="M13.045 18.153a.714.714 0 011.005 0 .696.696 0 010 .995c-.679.669-1.411 1.018-2.181 1.028h-.044c-.78 0-1.53-.346-2.222-1.031a.696.696 0 010-.995.714.714 0 011.005 0c.424.42.844.621 1.237.621.39-.006.794-.215 1.2-.618zm8.027-1.358c.746-.01 1.126-.413 1.126-1.197 0-.776-.37-1.17-1.099-1.183l-.047.417c-.003.107-.017.192-.02.3a16.35 16.35 0 01-.182 1.656c.027 0 .047.004.064.004l.158.003zm-1.395-4.06v-1.019a.742.742 0 01-.013-.124c-.003-.128-.014-.24-.017-.363H3.903l-.01 2.527c.01.04.013.081.013.121.138 5.17 1.479 7.378 4.477 7.378.188 0 .367-.01.538-.02l5.687-.003c.437.027.77.027 1.12.003h.12c.034-.006.068-.013.102-.017 1.516-.15 3.55-1.079 3.714-7.337 0-.044.003-.084.013-.125v-1.022zM8.383 4.216c-3.025 0-4.205 1.435-4.44 5.607h3.153c.195-2.085.914-3.748 2.165-4.945a6.81 6.81 0 01.678-.558 10.612 10.612 0 00-1.257-.094l-.299-.01zm3.593.608c-.658.27-1.25.609-1.727 1.062-.972.931-1.543 2.252-1.725 3.933h6.901c-.181-1.68-.753-3.005-1.724-3.933-.474-.453-1.066-.793-1.725-1.062zm3.254-.601c-.443 0-.813.05-1.217.097.24.175.468.356.676.558 1.25 1.197 1.973 2.86 2.165 4.945h2.692c-.474-4.66-2.242-5.429-3.6-5.567l-.175-.017a6.813 6.813 0 00-.504-.016h-.037zM2.703 16.795l.023-.003a19.888 19.888 0 01-.181-1.647c0-.115-.02-.185-.02-.296l-.051-.427c-.69.03-1.049.42-1.049 1.176 0 .784.377 1.187 1.126 1.197h.152zm18.403-3.792c1.163.01 2.518.696 2.518 2.592 0 1.896-1.362 2.588-2.532 2.605h-.198a2.58 2.58 0 01-.316-.024c-.007 0-.01-.003-.017-.006-.558 2.064-1.737 4.074-4.279 4.42a.682.682 0 01-.248.047h-.26a7.159 7.159 0 01-.584.024c-.219 0-.424-.014-.625-.024H8.97a7.182 7.182 0 01-.588.024c-3.24 0-4.702-2.037-5.365-4.485-.12.014-.221.02-.292.02h-.198C1.36 18.18 0 17.488 0 15.593c0-1.873 1.324-2.562 2.474-2.589l.007-1.778H.713A.709.709 0 010 10.523c0-.39.32-.703.713-.703h1.801c.202-3.741 1.2-7.012 5.87-7.012.221 0 .43.01.634.027h1.695a1.469 1.469 0 01-.125-.598c0-.4.111-.713.33-.921.211-.202.517-.303.907-.303s.696.101.908.303c.218.212.333.521.333.921 0 .232-.048.427-.121.598h1.663a9.815 9.815 0 011.217.004l.215.013c.091.01.168.02.256.034 3.852.534 4.615 4.89 4.78 7.452.003.107.02.188.03.306l-.003 2.1.003.26zM9.657 15.561c0 .39-.32.703-.712.703a.709.709 0 01-.713-.703v-2.198c0-.39.32-.702.713-.702.393 0 .712.315.712.702v2.198zm4.961-2.9c.394 0 .713.315.713.702v2.198c0 .39-.32.703-.713.703a.709.709 0 01-.712-.703v-2.198c0-.387.32-.702.712-.702z" fill="#5CB615" fill-rule="nonzero"/></svg>