<svg width="24" height="24" xmlns="http://www.w3.org/2000/svg"><path d="M20.32 21.97V8.242h-2.74c-1.2 0-2.225-.397-2.995-1.15-.76-.746-1.17-1.781-1.17-2.971V1.452H5.681c-.084 0-.219.135-.229.202V21.97c0 .067.114.205.229.205h14.4c.124-.004.238-.118.238-.205zM19.73 6.79l-4.887-4.807v2.138c0 .783.255 1.462.743 1.936.484.474 1.18.736 1.996.736h2.148V6.79zm1.7-.336c.2.191.314.464.314.743V21.97c0 .9-.76 1.654-1.664 1.654H5.68c-.884 0-1.654-.777-1.654-1.654V1.654C4.027.794 4.817 0 5.68 0h8.77a1 1 0 01.722.3l6.259 6.154zm-3.918 7.109c.218-.222.332-.474.332-.763 0-.29-.124-.598-.332-.803a1.116 1.116 0 00-.743-.34c-.219-.02-.525.04-.81.33-.306.309-4.935 4.47-5.402 4.884l-.78 2.36 2.387-.831c3.17-2.854 5.17-4.662 5.348-4.837zm1.008-2.602c.474.484.753 1.17.753 1.839 0 .686-.266 1.308-.763 1.798-.256.252-3.072 2.797-5.392 4.884l-.084.078a1.197 1.197 0 01-.437.252l-2.712.917c-.131.04-.266.058-.39.058-.037 0-.078 0-.104-.01-.02.01-.037.01-.058.01H7.576a.725.725 0 01-.712-.726c0-.397.323-.727.712-.727h.696c.01-.067.02-.144.047-.211l.343-1.056H7.576a.725.725 0 01-.712-.726c0-.407.323-.726.712-.726h1.56l.084-.252c.077-.212.198-.407.363-.551l.514-.464h-2.52a.725.725 0 01-.713-.726c0-.407.323-.726.712-.726h4.138c.515-.454.989-.891 1.425-1.278H7.576a.718.718 0 01-.712-.726c0-.396.323-.726.712-.726h7.16c.114-.117.192-.184.219-.211 1.122-1.126 2.692-.884 3.566.006z" fill="#313235" fill-rule="nonzero"/></svg>