<svg width="24" height="24" viewBox="0 0 24 24" xmlns="http://www.w3.org/2000/svg"><path d="M17.368 20.746H4.864A4.871 4.871 0 010 15.882c0-1.085.376-2.124 1.09-3.005a5.09 5.09 0 012.453-1.674c.064-1.953.753-3.73 1.96-5.028 1.287-1.388 3.095-2.151 5.085-2.151a7.468 7.468 0 016.713 4.211h.07a6.265 6.265 0 016.26 6.26c0 3.451-2.814 6.251-6.263 6.251zM10.585 5.365a5.81 5.81 0 00-2.313.46A5.282 5.282 0 006.484 7.09c-1.035 1.116-1.603 2.68-1.603 4.407 0 .333-.155.77-.888.975a3.757 3.757 0 00-1.862 1.25c-.356.444-.786 1.183-.786 2.161a3.525 3.525 0 003.519 3.52h12.504a4.92 4.92 0 004.914-4.915 4.92 4.92 0 00-4.914-4.914c-.06 0-.131.003-.202.007-.05.003-.097.003-.148.007-.181.006-.631-.04-.853-.602l-.004-.01a6.117 6.117 0 00-5.576-3.61z" fill="#5CB615" fill-rule="nonzero"/></svg>