<?xml version="1.0" encoding="UTF-8"?>
<svg width="24px" height="24px" viewBox="0 0 24 24" version="1.1" xmlns="http://www.w3.org/2000/svg" xmlns:xlink="http://www.w3.org/1999/xlink">
    <title>2.Regular/Ordenador_2Regular</title>
    <g id="Symbols" stroke="none" stroke-width="1" fill="none" fill-rule="evenodd">
        <g id="2.Regular/Ordenador_2Regular" fill="#5CB615" fill-rule="nonzero">
            <path d="M19.4957983,18.7781513 L4.13109244,18.7680672 C2.78655462,18.7680672 1.74453782,18.394958 1.03529412,17.6554622 C0.346218487,16.9462185 0,15.9310924 0,14.6403361 L0,7.10756303 C0,4.46554622 1.46554622,3.01344538 4.12773109,3.01344538 L19.4957983,3.02352941 C22.1579832,3.02352941 23.6235294,4.4789916 23.6235294,7.11764706 L23.6235294,14.6504202 C23.6235294,15.9411765 23.2773109,16.9563025 22.5915966,17.6655462 C21.8789916,18.405042 20.8369748,18.7781513 19.4957983,18.7781513 L19.4957983,18.7781513 Z M4.12773109,4.35798319 C3.15966387,4.35798319 2.44033613,4.58991597 1.99327731,5.04705882 C1.56302521,5.48739496 1.34453782,6.17983193 1.34453782,7.10756303 L1.34453782,14.6403361 C1.34453782,16.5394958 2.22857143,17.4235294 4.12773109,17.4235294 L19.492437,17.4336134 C21.3915966,17.4336134 22.2756303,16.5495798 22.2756303,14.6504202 L22.2756303,7.11764706 C22.2756303,6.18991597 22.0571429,5.49747899 21.6235294,5.05714286 C21.1764706,4.6 20.4605042,4.36806723 19.4890756,4.36806723 L4.12773109,4.35798319 Z M22.9512605,21.4336134 L0.672268908,21.4235294 C0.302521008,21.4235294 0,21.1210084 0,20.7512605 C0,20.3815126 0.302521008,20.0789916 0.672268908,20.0789916 L22.9512605,20.0890756 C23.3210084,20.0890756 23.6235294,20.3915966 23.6235294,20.7613445 C23.6235294,21.1310924 23.3210084,21.4336134 22.9512605,21.4336134 Z" id="Ordenador_2Regular"></path>
        </g>
    </g>
</svg>