<svg width="24" height="24" viewBox="0 0 24 24" xmlns="http://www.w3.org/2000/svg"><path d="M19.496 18.778l-15.365-.01c-1.344 0-2.386-.373-3.096-1.113C.346 16.946 0 15.931 0 14.64V7.108c0-2.642 1.466-4.095 4.128-4.095l15.368.01c2.662 0 4.128 1.456 4.128 4.095v7.532c0 1.291-.347 2.306-1.032 3.016-.713.739-1.755 1.112-3.096 1.112zM4.128 4.358c-.968 0-1.688.232-2.135.69-.43.44-.648 1.132-.648 2.06v7.532c0 1.9.884 2.784 2.783 2.784l15.364.01c1.9 0 2.784-.884 2.784-2.784V7.118c0-.928-.219-1.62-.652-2.06-.448-.458-1.163-.69-2.135-.69l-15.361-.01zM22.95 21.434l-22.279-.01A.674.674 0 010 20.75c0-.37.303-.672.672-.672l22.28.01c.369 0 .672.303.672.672 0 .37-.303.673-.673.673z" fill="#5CB615" fill-rule="nonzero"/></svg>