<svg width="24" height="24" xmlns="http://www.w3.org/2000/svg"><path d="M1.012 8.447A1.013 1.013 0 010 7.435V1.012C0 .454.454 0 1.012 0h6.427a1.014 1.014 0 010 2.027H2.024v5.412c0 .554-.454 1.008-1.012 1.008zM7.449 21.6a1.014 1.014 0 010 2.027h-6.43a1.013 1.013 0 01-1.012-1.012v-6.427a1.013 1.013 0 012.023 0V21.6H7.45zm15.156-6.44c.558 0 1.012.453 1.012 1.011v6.424c0 .558-.454 1.012-1.012 1.012h-6.43a1.014 1.014 0 010-2.024h5.415v-5.412a1.016 1.016 0 011.015-1.011zM22.612.027c.558 0 1.012.45 1.012 1.012v6.423a1.014 1.014 0 01-2.027 0V2.054h-5.415a1.013 1.013 0 010-2.024h6.43V.027z" fill="#313235" fill-rule="nonzero"/></svg>