<svg width="24" height="24" viewBox="0 0 24 24" xmlns="http://www.w3.org/2000/svg"><path d="M16.76 22.128c-3.422 0-5.13-1.506-5.358-4.673H22.12c-.232 3.17-1.94 4.673-5.361 4.673zm-6.663-2.824c-2.282 2.145-4.504 2.067-6.8-.228-2.366-2.37-2.366-4.676-.006-7.042l.188-.195c.1-.105.198-.212.343-.34l3.163-3.17c.232 1.352 1.089 2.784 2.588 4.29.29.285.572.547.847.786-.373.941-.561 2.044-.561 3.304 0 .928.104 1.765.306 2.521a.306.306 0 01-.068.074zm1.44-15.54c.093-.107.197-.204.302-.305l.195-.188C14.4.897 16.699.9 19.062 3.27c2.293 2.295 2.353 4.53.205 6.823-.74-.195-1.57-.299-2.504-.299-2.629 0-4.474.797-5.59 2.266-.178-.162-.356-.32-.538-.501C8.82 9.74 8.108 8.15 8.515 6.84c.003-.016 0-.033.003-.05l3.018-3.025zM22.12 15.964h-10.72c.233-3.166 1.94-4.672 5.359-4.672 3.422 0 5.13 1.502 5.361 4.672zm-1.375-5.277c2.296-2.763 2.084-5.748-.632-8.47-2.944-2.952-6.191-2.955-9.136 0l-.171.164a5.174 5.174 0 00-.363.37l-7.63 7.653c-.142.121-.276.263-.41.404l-.165.168C.8 12.413.06 13.926.034 15.462.007 17.06.75 18.63 2.245 20.128 3.721 21.61 5.277 22.35 6.83 22.35c1.331 0 2.656-.552 3.926-1.64 1.042 1.875 3.015 2.91 6.007 2.91 4.7 0 6.898-2.551 6.898-6.914-.004-2.857-.948-4.928-2.915-6.02z" fill="#5CB615" fill-rule="nonzero"/></svg>