<svg width="24" height="24" viewBox="0 0 24 24" xmlns="http://www.w3.org/2000/svg"><path d="M11.795 0c3.748 0 6.662.978 8.666 2.908 2.08 2.003 3.132 4.995 3.132 8.89 0 3.896-1.055 6.884-3.132 8.888-2.004 1.93-4.918 2.907-8.666 2.907s-6.662-.978-8.662-2.907c-2.078-2-3.13-4.989-3.13-8.884 0-3.896 1.052-6.888 3.13-8.891C5.133.98 8.05 0 11.795 0zm0 1.308c-6.958 0-10.487 3.529-10.487 10.494 0 6.958 3.529 10.487 10.487 10.487 6.961 0 10.494-3.53 10.494-10.487 0-6.962-3.533-10.494-10.494-10.494zm-3.274 5.23c.37 0 .672.302.672.672v9.177c0 .37-.302.672-.672.672a.674.674 0 01-.672-.672V7.21c0-.37.302-.672.672-.672zm6.555 0c.37 0 .672.302.672.672v9.177c0 .37-.303.672-.672.672a.674.674 0 01-.673-.672V7.21c0-.37.303-.672.673-.672z" fill="#313235" fill-rule="nonzero"/></svg>