<svg width="24" height="24" xmlns="http://www.w3.org/2000/svg"><path d="M14.05 5.01c.972 0 1.732.269 2.253.8.507.514.763 1.247.763 2.178v5.136c0 1.906-1.1 3.002-3.016 3.002l-2.644.001.668.69 4.346-.002a.66.66 0 010 1.318l-15.73.006a.66.66 0 010-1.317l4.242-.003.658-.689-2.531.003c-1.916 0-3.015-1.093-3.015-3.002V7.995c0-.931.255-1.664.763-2.178.52-.531 1.28-.8 2.252-.8L14.05 5.01zm7.822.007c.521 0 1.738.235 1.738 2.42l.003 8.255c0 2.185-1.216 2.42-1.737 2.42h-2.397a1.537 1.537 0 01-1.345-.732c-.255-.407-.38-.958-.38-1.688l-.006-8.255c0-.73.124-1.28.383-1.687.3-.471.777-.733 1.345-.733h2.396zM19.476 6.29c-.152 0-.212.047-.266.138-.07.11-.185.386-.185 1.008l.004 8.255c0 .622.114.898.184 1.009.058.09.115.138.266.138h2.397c.154 0 .215-.05.275-.142.07-.11.188-.386.188-1.001l-.003-8.256c0-.618-.118-.894-.188-1.005-.057-.09-.121-.14-.276-.14h-2.396V6.29zm-9.904 9.837l-2.159.001-.659.69 3.487-.002-.669-.689zm4.478-9.827L3.06 6.308c-1.21 0-1.725.504-1.725 1.687v5.136c0 1.2.518 1.711 1.725 1.711l10.991-.007c1.21 0 1.725-.51 1.725-1.71V7.987c0-1.183-.514-1.687-1.725-1.687z" fill="#313235" fill-rule="nonzero"/></svg>