<svg width="24" height="24" xmlns="http://www.w3.org/2000/svg"><path d="M18.822 22.208c.279 0 .48-.15.51-.205l-.01-18.719c0 .017-.231-.155-.5-.155h-3.177c.004.034.01.064.014.101l.003.094.004.138-.004.128c-.06 1.812-1.852 2.067-3.775 2.067-1.922 0-3.71-.255-3.778-2.097v-.098l.004-.151.006-.121c0-.024.007-.04.01-.064H4.95c-.258 0-.477.158-.514.222l.014 18.706c.02.003.222.154.5.154h13.873zM11.887 1.415c-2.006 0-2.309 1.005-2.35 1.882l-.006.169c.014.322.027.783 2.356.783 2.33 0 2.343-.46 2.353-.736V3.37a2.86 2.86 0 00-.117-.753c-.094-.299-.377-1.203-2.236-1.203zm6.935.303c1.025 0 1.923.732 1.923 1.566v18.773c0 .85-.881 1.567-1.923 1.567H4.95c-1.042 0-1.923-.72-1.923-1.567V3.281c0-.834.9-1.567 1.923-1.567h3.546C9.06.618 10.226 0 11.887 0c2.024 0 2.962.85 3.395 1.718h3.54zm-7.772 2.04a.66.66 0 01-.662-.659.66.66 0 01.662-.659h1.671c.366 0 .666.296.666.66 0 .362-.3.658-.666.658h-1.67z" fill="#313235" fill-rule="nonzero"/></svg>