<svg width="24" height="24" viewBox="0 0 24 24" xmlns="http://www.w3.org/2000/svg"><path d="M12.306 22.171c2.316-.043 9.872-.91 9.872-10.329 0-9.415-7.593-10.33-9.92-10.387-.315-.006-.688-.013-1.028-.01-2.296.024-9.785.824-9.785 10.333 0 9.52 7.553 10.367 9.87 10.4.332.007.695 0 .99-.007zM12.292.013c1.893.044 11.332.827 11.332 11.829 0 11.012-9.406 11.741-11.295 11.775-.208.003-.453.007-.695.007-.115 0-.229 0-.34-.004C9.408 23.597 0 22.897 0 11.778 0 .658 9.345.02 11.22.003c.35-.006.743 0 1.072.01zm-1.008 17.26c.635 0 1.049.418 1.049 1.016 0 .669-.407 1.069-1.012 1.069-.645 0-1.049-.4-1.049-.992v-.077c.004-.598.417-1.015 1.012-1.015zm3.173-12.07c.837.619 1.23 1.47 1.23 2.68 0 1.478-.611 2.359-2.013 4.013-1.607 1.859-1.67 1.933-1.67 3.667a.48.48 0 01-.481.48h-.531a.485.485 0 01-.474-.39 3.825 3.825 0 01-.068-.759c0-1.3.458-2.07 1.483-3.304l.195-.235c1.687-1.997 2.006-2.555 2.006-3.496 0-.67-.191-1.106-.642-1.466-.258-.205-.712-.443-1.953-.443-.675 0-1.27.077-2 .262a.483.483 0 01-.584-.346c-.004-.01-.004-.02-.007-.03l-.077-.41a.48.48 0 01.265-.525c.454-.215 1.567-.437 2.639-.437 1.13-.003 2.03.245 2.682.74z" fill="#5CB615" fill-rule="nonzero"/></svg>