<svg width="24" height="24" viewBox="0 0 24 24" xmlns="http://www.w3.org/2000/svg"><path d="M17.086 0c1.33 0 2.299.323 2.964.992.666.669.985 1.633.985 2.958v15.73c0 1.338-.326 2.313-.991 2.975-.662.656-1.63.975-2.958.975H9.22c-1.328 0-2.296-.32-2.958-.975-.669-.662-.991-1.637-.991-2.974v-4.275c-1.548-.107-2.778-.592-3.66-1.443C.56 12.951.03 11.455.03 9.513c0-1.943.53-3.44 1.58-4.45.884-.853 2.116-1.338 3.667-1.444.051-1.137.373-1.99.98-2.607C6.935.332 7.904 0 9.22 0h7.866zm0 1.345H9.22c-1.734 0-2.507.665-2.596 2.274 1.547.108 2.776.593 3.658 1.443 1.05 1.012 1.58 2.508 1.58 4.45 0 1.943-.53 3.44-1.58 4.451-.884.852-2.116 1.337-3.667 1.443v4.275c0 1.899.706 2.605 2.605 2.605h7.866c1.899 0 2.605-.706 2.605-2.605V3.95c0-.952-.195-1.61-.592-2.01-.396-.4-1.059-.595-2.013-.595zm-3.93 16.81c.837 0 1.335.5 1.335 1.337 0 .41-.118.737-.346.972-.229.235-.579.366-.992.366-.41 0-.753-.127-.985-.366-.232-.239-.346-.565-.346-.972 0-.837.497-1.337 1.334-1.337zM5.946 4.94c-1.509 0-2.652.367-3.401 1.09-.777.745-1.17 1.919-1.17 3.482 0 1.563.393 2.736 1.17 3.482.75.723 1.895 1.089 3.401 1.089 1.506 0 2.652-.366 3.402-1.089.776-.746 1.17-1.92 1.17-3.482 0-1.563-.394-2.737-1.17-3.483-.75-.722-1.893-1.089-3.402-1.089zm0 .555a.42.42 0 01.42.42v.372c.447.055.86.191 1.197.398.245.151.282.35.282.453a.482.482 0 01-.484.485.622.622 0 01-.282-.078l-.007-.003c-.239-.13-.47-.218-.705-.267v1.745l.096.014c1.418.25 1.725 1.1 1.725 1.789 0 .574-.212 1.058-.608 1.405-.31.265-.721.436-1.213.502v.395a.42.42 0 01-.84 0l-.001-.384a3.467 3.467 0 01-1.583-.59.508.508 0 01-.235-.438.494.494 0 01.5-.49.598.598 0 01.32.1c.332.221.666.365.998.43L5.525 9.91C4.15 9.656 3.852 8.823 3.852 8.15c0-1.018.645-1.718 1.673-1.862l.001-.373a.42.42 0 01.42-.42zm.421 4.541v1.716c.519-.11.826-.433.826-.896 0-.332-.108-.656-.826-.82zm-1.52-1.93c0 .195 0 .567.678.769V7.274c-.43.107-.678.403-.678.834z" fill="#5CB615" fill-rule="nonzero"/></svg>