<svg width="24" height="24" viewBox="0 0 24 24" xmlns="http://www.w3.org/2000/svg"><path d="M22.303 6.141l.01-.437a1.438 1.438 0 00-.38-.027L3.7 5.667a.952.952 0 00-.336.054v.437c.074.017.198.034.37.027h.621c.054 0 .101-.01.145-.01l16.618.01c.064-.01.118.007.172.007h.675a.95.95 0 00.337-.05zm-.895 11.5l.01-10.061c-.026-.05-.09-.067-.181-.077l-16.79-.01c-.108.016-.192.067-.192.094v10.05c.027.07.108.097.263.097l16.645.01c.155 0 .235-.08.245-.104zm-8.611 4.846c.423-.01.423-.225.423-.373 0-.14 0-.376-.36-.383h-.07c-.316 0-.343.182-.343.373-.003.151-.003.377.35.383zm-.508-19.54L9.654 4.36l6.228.01-2.453-1.442a1.571 1.571 0 01-.542.097h-.1c-.162 0-.333-.027-.498-.077zm.498-1.814c-.316.01-.343.181-.343.376 0 .192.027.383.353.383.423-.01.423-.225.423-.373 0-.14 0-.376-.36-.383l-.073-.003zM23.32 4.79c.215.192.333.454.343.723l-.01.826c0 .474-.353.858-.911 1.04.01.06.027.13.027.197l-.01 10.061c0 .773-.713 1.412-1.597 1.412l-7.654-.01v1.684c.498.201.884.655.884 1.388 0 1.018-.756 1.492-1.506 1.51h-.117c-.74-.01-1.5-.482-1.5-1.52 0-.743.387-1.187.888-1.388v-1.674H4.555c-.626.023-1.002-.212-1.22-.41a1.309 1.309 0 01-.434-.985V7.58c0-.06.01-.121.017-.182a1.527 1.527 0 01-.579-.316 1 1 0 01-.332-.732v-.827c0-.673.712-1.16 1.687-1.16h3.167l4.467-2.39a1.796 1.796 0 01-.064-.464C11.264.481 12.02.01 12.77 0v.01h.117c.74.007 1.5.487 1.5 1.51 0 .157-.017.295-.054.42l4.178 2.43h3.402c.605-.024 1.102.13 1.408.42zm-6.373 10.538c.272 0 .497.208.497.48a.493.493 0 01-.497.481H7.479a.488.488 0 01-.497-.477V9.987c0-.273.215-.478.497-.478.272 0 .497.209.497.478v4.544l1.436-2.181a.494.494 0 01.595-.185l3.069 1.143 1.996-2.434h-.534a.488.488 0 01-.498-.477v-.004c0-.262.226-.474.498-.474h1.607c.245 0 .45.168.497.404l.215 1.395a.495.495 0 01-.417.55c-.027 0-.053.011-.08.011a.495.495 0 01-.488-.41l-.054-.346-2.191 2.669a.538.538 0 01-.568.15l-3.032-1.135-1.402 2.12h8.323z" fill="#5CB615" fill-rule="nonzero"/></svg>