<svg width="24" height="24" viewBox="0 0 24 24" xmlns="http://www.w3.org/2000/svg"><path d="M4.662 18.692h16.595c-1.738-2.51-1.553-5.875-1.543-6.05V8.124c0-2.208-.622-3.899-1.845-5.038-1.943-1.805-4.827-1.63-4.857-1.64-.02.01-.04 0-.05 0-.02 0-.038.01-.058 0-.175-.01-4.245-.233-5.943 3.109 3.973.104 6.283 2.208 6.283 6.561 0 4.487-2.447 6.581-6.626 6.581-.477 0-.924-.036-1.347-.087-.172.377-.377.74-.609 1.082zm9.963 2.878c.387-.427.504-1.005.541-1.429H10.75c.03.424.144 1.005.534 1.439.37.396.914.598 1.67.598.757-.003 1.301-.205 1.671-.608zM1.455 11.116c0 3.502 1.644 5.133 5.167 5.133 3.523 0 5.166-1.63 5.166-5.133.004-3.503-1.64-5.133-5.166-5.133-3.523 0-5.167 1.63-5.167 5.133zm21.9 7.741c.242.192.329.511.221.8a.705.705 0 01-.679.48h-6.272c-.04.66-.222 1.634-.91 2.394-.643.723-1.574 1.09-2.76 1.09-1.187 0-2.118-.367-2.76-1.09-.69-.763-.864-1.738-.904-2.393H3.02a.71.71 0 01-.678-.48.701.701 0 01.225-.8c.494-.408.904-.935 1.24-1.564C1.368 16.491 0 14.474 0 11.116c0-3.993 1.943-6.087 5.331-6.494C7.14-.128 12.441-.02 12.955.01c.437-.03 3.603-.118 5.902 2.017 1.536 1.418 2.313 3.465 2.313 6.097v4.565c-.007.087-.222 4.208 2.185 6.168zm-15.21-5.025l-2.037-2.024a.715.715 0 01-.216-.51V8.554c0-.4.326-.723.73-.723.4 0 .73.323.73.723v2.44l1.824 1.812s.595.48.595.88c0 .458-.35.65-.75.66-.369.01-.739-.377-.876-.515z" fill="#5CB615" fill-rule="nonzero"/></svg>