<svg width="24" height="24" viewBox="0 0 24 24" xmlns="http://www.w3.org/2000/svg"><path d="M9.161 22.108V5.472l.034-.01h6.249v2.024c0 1.022.353 1.902 1.022 2.551.662.642 1.556.981 2.591.981h2.108l-.03 11.093-11.974-.003zM2.51 17.482l.004-15.976 11.482-.02v2.47h-4.8c-.817 0-1.536.71-1.536 1.516v11.994l-5.15.016zM16.943 6.121l3.489 3.392h-1.378c-.639 0-1.173-.192-1.55-.558-.37-.36-.565-.868-.565-1.47V6.122h.004zm5.66 3.593a1.001 1.001 0 00-.245-.43l-5.19-5.042a1.014 1.014 0 00-.706-.286h-.965v-2.47C15.497.679 14.808 0 13.992 0H2.512c-.816 0-1.505.682-1.505 1.486v15.996c0 .794.702 1.49 1.506 1.49h5.146v3.136c0 .82.702 1.516 1.536 1.516h11.933c.833 0 1.533-.696 1.533-1.516V10.01a.674.674 0 00-.058-.296z" fill="#5CB615" fill-rule="nonzero"/></svg>