<svg width="24" height="24" xmlns="http://www.w3.org/2000/svg"><path d="M1.664 22.134H22.15l-6.692-8.813c-1.052.29-2.363.447-3.751.447-1.284 0-2.508-.141-3.516-.386l-6.528 8.752zm7.923-10.618l-.414.545c1.617.278 3.728.268 5.294-.03l-.383-.515a.71.71 0 01-.151-.437v-9.59H9.738v8.397c0 .01-.01.04-.01.06 0 .02.01.04.01.06v1.073c0 .155-.054.31-.151.437zm13.808 9.802c.323.507.343 1.072.08 1.54a1.516 1.516 0 01-1.324.766H1.44a1.43 1.43 0 01-1.224-.706 1.37 1.37 0 01.02-1.402l7.983-10.69v-.813a.416.416 0 010-.158V1.49h-.92A.758.758 0 016.54.743.753.753 0 017.301 0h9.089a.747.747 0 010 1.492h-.938v9.338l7.943 10.488zm-7.398-2.336c0-1.335-1.11-1.446-1.395-1.456l-.111-.003h-.027c-.293.003-1.375.1-1.375 1.445s1.096 1.452 1.388 1.456h.135c.275 0 1.385-.105 1.385-1.442zm-1.503-2.45l.135.002c1.183.03 2.38.797 2.38 2.448 0 1.653-1.197 2.42-2.38 2.44h-.168c-1.187-.017-2.384-.78-2.384-2.447 0-1.67 1.194-2.43 2.38-2.44l.037-.004zm-5.106.83c.155-.004.773-.061.773-.807 0-.743-.618-.804-.776-.807h-.077c-.162 0-.767.057-.767.803 0 .75.612.807.773.81h.074zm.024-2.606c.847.02 1.761.592 1.761 1.802 0 1.213-.918 1.781-1.768 1.798h-.104c-.854-.013-1.768-.581-1.768-1.801 0-1.227.914-1.792 1.764-1.799h.115z" fill="#313235" fill-rule="nonzero"/></svg>