<svg width="24" height="24" xmlns="http://www.w3.org/2000/svg"><path d="M5.676.03a.66.66 0 01.658.66c0 1.065 1.278 1.444 2.474 1.444h2.303c1.042 0 1.852.468 2.279 1.315.282.555.31 1.096.312 1.229v.465c1.805.11 3.233.655 4.253 1.623 1.196 1.137 1.801 2.827 1.801 5.022v5.173c0 2.276-.527 3.916-1.617 5.009-1.105 1.12-2.783 1.664-5.129 1.664-2.134 0-3.798-.555-4.944-1.644-1.197-1.136-1.802-2.827-1.802-5.022v-5.176c0-2.195.605-3.886 1.802-5.022 1.035-.984 2.487-1.532 4.321-1.63l.001-.434c0-.024-.013-.37-.188-.693-.208-.386-.555-.564-1.092-.564H8.805c-1.076 0-1.997-.239-2.662-.69-.726-.493-1.126-1.23-1.126-2.07A.66.66 0 015.676.03zm12.766 13.728l.746-.094a45.352 45.352 0 01-6.114.417h-.128c-1.787 0-3.59-.109-5.368-.322v3.21c0 3.6 1.778 5.35 5.432 5.35 1.977 0 3.351-.416 4.198-1.27.83-.837 1.234-2.172 1.234-4.084v-3.207zM13.01 6.44c-3.657 0-5.432 1.752-5.432 5.355v.64l.274.035c1.689.198 3.4.296 5.098.296h.12c1.793 0 3.596-.11 5.373-.329l-.001-.645c.003-3.604-1.775-5.352-5.432-5.352zm0 .962a.66.66 0 01.659.659v3.452a.66.66 0 01-1.318 0V8.06a.66.66 0 01.66-.66z" fill="#313235" fill-rule="nonzero"/></svg>