<svg width="24" height="24" viewBox="0 0 24 24" xmlns="http://www.w3.org/2000/svg"><path d="M20.09 2.01c1.107 0 1.977.3 2.592.89.639.616.962 1.51.962 2.663v13.872c0 1.15-.323 2.047-.962 2.662-.615.592-1.489.891-2.595.891H12.72c-1.106 0-1.976-.299-2.591-.89-.639-.616-.962-1.513-.962-2.663V5.563c0-1.15.323-2.047.962-2.662.611-.592 1.485-.89 2.591-.89h7.372zM5.766 11.52c1.33 0 2.124.793 2.124 2.124v7.19c-.003 1.327-.797 2.124-2.124 2.124H2.14c-1.33 0-2.124-.793-2.124-2.124v-7.19c0-1.331.793-2.125 2.124-2.125h3.624zM20.09 3.354h-7.372c-1.526 0-2.208.682-2.208 2.208v13.872c0 1.526.682 2.209 2.208 2.209h7.372c1.526 0 2.208-.683 2.208-2.209V5.563c0-1.526-.682-2.208-2.208-2.208zM5.765 12.864H2.14c-.581 0-.78.198-.78.78v7.19c0 .581.195.78.78.78h3.624c.581 0 .78-.199.78-.78v-7.19c0-.585-.199-.78-.78-.78zM4.09 19.953c.275 0 .454.141.454.447 0 .145-.04.255-.115.33a.46.46 0 01-.336.117c-.144 0-.262-.037-.34-.118-.073-.074-.114-.181-.114-.329 0-.306.175-.447.45-.447zm12.296-.961c.46 0 .76.238.76.753 0 .248-.071.43-.192.554-.135.135-.33.198-.568.198-.24 0-.434-.063-.569-.198-.124-.124-.191-.31-.191-.554 0-.515.3-.753.76-.753zM6.337 4.074c.033.03.84.716 1.139 1.015.484.487.487 1.086.006 1.566-.15.152-.981.864-1.146 1.006a.55.55 0 01-.38.147.587.587 0 01-.383-1.035l.344-.296h-.078c-1.64 0-2.404.763-2.404 2.404v.766a.587.587 0 01-.588.588.587.587 0 01-.588-.588v-.766c0-1.167.326-2.068.965-2.686.615-.595 1.495-.894 2.615-.894h.115a54.914 54.914 0 00-.38-.33.587.587 0 01-.068-.83.587.587 0 01.83-.067z" fill="#5CB615" fill-rule="nonzero"/></svg>