<svg width="24" height="24" viewBox="0 0 24 24" xmlns="http://www.w3.org/2000/svg"><path d="M22.49 9.57c-.3.296-3.53 3.176-8.858 7.896l-.229.184-4.51 1.493c-.064.017-.125.003-.165-.037a.152.152 0 01-.037-.161l1.556-4.579c2.945-2.601 8.619-7.627 9.015-8.023.477-.477 1.042-.682 1.593-.682.619 0 1.217.258 1.64.682.431.43.687 1.049.683 1.65 0 .589-.239 1.133-.689 1.577zm-2.364 9.102c0 1.096-.286 1.957-.844 2.555-.591.632-1.472.951-2.621.951H5.91c-1.15 0-2.03-.32-2.622-.951-.561-.598-.844-1.456-.844-2.555V5.012c0-2.3 1.23-3.567 3.466-3.567h10.75c1.986 0 3.173 1.022 3.411 2.868a3.76 3.76 0 00-1.825 1.005c-.306.306-4.84 4.33-8.948 7.963-.212.185-.37.423-.46.692l-1.513 4.511a1.6 1.6 0 001.52 2.114c.17 0 .339-.027.504-.08l4.51-1.493c.206-.067.4-.178.562-.322l.171-.152c1.846-1.633 3.873-3.435 5.536-4.914v5.035h-.003zm4.498-10.675a3.861 3.861 0 00-1.106-2.68 3.84 3.84 0 00-2.007-1.035C21.229 1.634 19.42 0 16.657 0H5.911C2.882 0 1 1.92 1 5.012v13.66c0 1.476.413 2.67 1.234 3.543.874.935 2.107 1.409 3.674 1.409h10.75c1.562 0 2.803-.474 3.676-1.409.82-.874 1.237-2.067 1.237-3.543v-6.326c1.05-.938 1.782-1.596 1.933-1.748.73-.719 1.116-1.62 1.12-2.601z" fill="#5CB615" fill-rule="nonzero"/></svg>