<svg width="24" height="24" viewBox="0 0 24 24" xmlns="http://www.w3.org/2000/svg"><path d="M3.5 10.33a.697.697 0 01.02-.397.706.706 0 01.668-.491h.757V7.603H1.432V9.44h.823a.85.85 0 01.128.01c.38.07.676.44.619.823-.494 3.345-1.331 10.35-1.341 10.42.003 1.194.793 1.473 1.455 1.483h.185c.659-.014 1.449-.293 1.449-1.557-.007.007-.585-5.808-1.25-10.289zM5.663.002c.393 0 .712.323.712.723V9.6c0 .736-.43 1.287-.998 1.287h-.36c.626 4.39 1.143 9.614 1.15 9.668.003 2.245-1.533 3.045-2.847 3.069h-.239c-1.307-.017-2.847-.82-2.847-3.012.014-.145.733-6.165 1.234-9.728l-.464.003c-.571 0-1.002-.55-1.002-1.287V.77c0-.397.32-.746.713-.746a.7.7 0 01.713.699v5.442h.984V.723A.72.72 0 013.126 0c.393 0 .713.323.713.723v5.442h1.106L4.95.726c0-.4.32-.723.713-.723zm7.27 22.179c.636-.014 1.399-.283 1.399-1.503-.004 0-.367-3.64-.84-7.31a.812.812 0 01-.017-.159v-.023c0-.236.11-.444.282-.575V1.55a3.246 3.246 0 00-2.497 3.17v7.767h.315c.394 0 .713.323.713.723 0 .03-.003.1-.007.135a639.68 639.68 0 00-.927 7.411c.006 1.15.766 1.419 1.401 1.426h.178zm2.037-8.464c.444 3.519.777 6.857.78 6.89.004 2.202-1.502 2.989-2.793 3.016h-.225c-1.291-.017-2.8-.8-2.8-2.955.003-.08.417-3.546.833-6.736h-.221a.717.717 0 01-.713-.723V4.72c0-2.589 2.08-4.693 4.635-4.693.394 0 .713.323.713.723v12.46c0 .198-.08.377-.209.508z" fill="#313235" fill-rule="nonzero"/></svg>