<svg width="24" height="24" viewBox="0 0 24 24" xmlns="http://www.w3.org/2000/svg"><path d="M11.839.027c3.754 0 6.675.981 8.685 2.914 2.084 2.01 3.14 5.005 3.14 8.911 0 3.903-1.056 6.9-3.14 8.908-2.01 1.932-4.93 2.91-8.685 2.91-3.755 0-6.676-.98-8.683-2.914C1.076 18.75.02 15.755.02 11.85c0-3.903 1.056-6.901 3.136-8.911C5.163 1.008 8.084.027 11.84.027zm0 1.307c-6.975 0-10.511 3.54-10.511 10.518 0 6.975 3.536 10.511 10.51 10.511 6.979 0 10.518-3.536 10.518-10.51-.003-6.98-3.54-10.519-10.517-10.519zm-.854 5.98a.67.67 0 01.343.585l-.001 3.162a.664.664 0 01.159-.133l5.986-3.597a.674.674 0 011.019.575v7.16a.678.678 0 01-.34.584.693.693 0 01-.333.088.659.659 0 01-.342-.094l-5.987-3.563a.684.684 0 01-.162-.135v3.113a.678.678 0 01-.339.585.657.657 0 01-.333.087.659.659 0 01-.342-.094l-5.987-3.563a.675.675 0 01-.33-.575c0-.235.125-.457.327-.578l5.986-3.597a.674.674 0 01.676-.01zm6.161 1.778L13.14 11.5l4.007 2.383v-4.79zM9.983 9.09L5.98 11.492l4.003 2.387v-4.79z" fill="#5CB615" fill-rule="nonzero"/></svg>