<svg width="24" height="24" viewBox="0 0 24 24" xmlns="http://www.w3.org/2000/svg"><path d="M11.686.027c3.186 0 5.778 2.434 5.778 5.422V8.51c.607.163 1.118.438 1.53.823.739.696 1.125 1.715 1.139 3.026v7.317c-.017 1.315-.4 2.33-1.14 3.026-.712.665-1.72 1.001-3.001 1.001H7.12c-1.28 0-2.29-.34-2.995-1.005-.74-.699-1.116-1.717-1.116-3.032l.003-6.773a115.57 115.57 0 01-.002-.298v-.226c0-1.315.376-2.336 1.115-3.032.415-.391.934-.67 1.552-.833l.001-3.056c0-2.992 2.592-5.422 5.778-5.422h.229zm4.309 9.697H7.121c-.914 0-1.603.212-2.044.626-.447.42-.675 1.099-.675 2.013l.003.3v.228l-.003 6.776c0 .918.228 1.597.679 2.02.44.414 1.126.626 2.043.626h8.871c.914 0 1.603-.212 2.047-.629.454-.423.69-1.106.703-2.023v-7.288c-.014-.918-.25-1.6-.703-2.023-.444-.417-1.133-.626-2.047-.626zm-4.42 5.315c.625 0 1.13.178 1.492.53.38.367.575.885.575 1.537 0 .652-.192 1.17-.575 1.536-.36.353-.864.531-1.489.531-.625 0-1.126-.178-1.492-.531-.38-.366-.575-.884-.575-1.536s.192-1.17.571-1.536c.363-.353.868-.531 1.493-.531zm.003 1.395c-.517 0-.672.158-.672.675 0 .518.158.673.672.673.518 0 .676-.158.676-.673 0-.517-.158-.675-.676-.675zm.108-15.019h-.229c-2.42 0-4.386 1.809-4.386 4.034L7.07 8.333h9.002V5.45c0-2.222-1.97-4.034-4.386-4.034z" fill="#5CB615" fill-rule="nonzero"/></svg>