<svg width="24" height="24" viewBox="0 0 24 24" xmlns="http://www.w3.org/2000/svg"><path d="M19.778 0c2.588 0 3.9 1.328 3.9 3.95v15.73c0 2.66-1.275 3.95-3.9 3.95h-8.622c-2.625 0-3.899-1.29-3.899-3.95L7.26 17a3.634 3.634 0 01-4.536 3.01 1.008 1.008 0 01-.454-1.687l.786-.787-.053-.373-.373-.054-.787.78a1.007 1.007 0 01-1.687-.45A3.636 3.636 0 014 12.888l3.257-3.26V3.95c0-1.328.313-2.293.955-2.952C8.864.326 9.829 0 11.156 0h8.622zm0 1.345h-8.622c-.948 0-1.596.194-1.983.591-.386.397-.571 1.056-.571 2.014L8.6 8.284l.962-.963a3.697 3.697 0 01.047-.998l.054-.246a3.636 3.636 0 013.516-2.719c.316 0 .632.04.938.128a1.008 1.008 0 01.454 1.687l-.787.787.054.373.373.054.786-.787a1.007 1.007 0 011.687.45c.162.605.162 1.244.007 1.85a3.625 3.625 0 01-3.848 2.702L8.6 14.844v4.837c0 .968.189 1.63.575 2.023.387.393 1.032.582 1.98.582h8.622c.948 0 1.593-.192 1.98-.582.387-.39.575-1.055.575-2.023V3.95c0-1.876-.716-2.605-2.555-2.605zM15.48 18.37c.692 0 1.146.366 1.146 1.15 0 .376-.104.655-.289.846-.202.205-.494.303-.857.303s-.655-.098-.857-.303c-.185-.188-.29-.47-.29-.847.004-.786.455-1.15 1.147-1.15zm-2.3-14.004a2.618 2.618 0 00-2.534 3.3v.001l-6.302 6.306a2.618 2.618 0 00-3.21 3.21l1.143-1.143 1.623.232.232 1.624-1.143 1.143a2.623 2.623 0 003.21-3.213l1.059-1.06v-.006l.007-.001 5.24-5.24c.38.104.78.119 1.167.045l.191-.045a2.618 2.618 0 001.852-3.21l-1.143 1.143-1.623-.232-.232-1.623 1.143-1.143a2.726 2.726 0 00-.68-.088z" fill="#5CB615" fill-rule="nonzero"/></svg>