<svg width="24" height="24" viewBox="0 0 24 24" xmlns="http://www.w3.org/2000/svg"><path d="M19.556 1.345c.236 0 .296.137.128.305l-.854.854a.976.976 0 00-.245.733l.175 1.227a.609.609 0 00.487.487l1.227.175c.03.003.06.007.09.007.223 0 .495-.101.643-.249l.854-.854c.063-.064.124-.097.174-.097.078 0 .131.077.131.222 0 0 .007 1.936-.87 2.816-.864.864-2.75.871-2.814.871h-.003c-.235 0-.565.134-.733.303l-9.768 9.768a1.192 1.192 0 00-.302.736s.006 1.936-.871 2.817c-.864.863-2.75.87-2.813.87h-.004c-.235 0-.292-.138-.127-.306l.853-.854a.976.976 0 00.246-.732l-.175-1.227a.609.609 0 00-.488-.488l-1.226-.174c-.03-.004-.06-.007-.091-.007-.222 0-.494.1-.642.249l-.854.853c-.064.064-.124.098-.175.098-.077 0-.13-.077-.13-.222 0 0-.008-1.936.87-2.817.864-.864 2.75-.87 2.813-.87h.004c.235 0 .564-.135.732-.303l9.768-9.768c.168-.168.303-.497.303-.736 0 0-.007-1.936.87-2.817.868-.864 2.753-.87 2.817-.87M19.56 0c-.457.007-.911.05-1.355.134-1.045.195-1.855.575-2.41 1.133-.561.562-.945 1.385-1.14 2.447-.07.394-.114.794-.124 1.194l-9.593 9.59a7.962 7.962 0 00-1.23.134c-1.046.195-1.856.575-2.41 1.13-.562.56-.945 1.384-1.14 2.446-.08.437-.121.881-.128 1.325-.003.302.078.598.232.86.262.437.733.703 1.244.703.41 0 .81-.175 1.126-.491l.686-.686.416.06.061.418-.686.685c-.467.464-.615 1.106-.38 1.674.236.568.79.921 1.453.925h.006c.454-.007.908-.05 1.355-.135 1.045-.195 1.855-.575 2.41-1.133.561-.56.944-1.384 1.14-2.447.07-.393.114-.793.124-1.193l9.59-9.59a7.962 7.962 0 001.23-.134c1.045-.195 1.855-.575 2.41-1.13.561-.561.945-1.385 1.136-2.447.08-.437.121-.88.128-1.324a1.656 1.656 0 00-.232-.86 1.447 1.447 0 00-1.244-.703c-.41 0-.81.175-1.126.49l-.682.683-.417-.06-.06-.417.685-.683c.468-.467.615-1.112.38-1.677S20.23.003 19.566 0h-.006z" fill="#313235" fill-rule="nonzero"/></svg>