<svg width="24" height="24" viewBox="0 0 24 24" xmlns="http://www.w3.org/2000/svg"><path d="M4.776.034c1.019.02 2.027.517 2.995 1.485.367.36.683.763.948 1.204.518.837.706 1.7.562 2.564-.145.864-.632 1.715-1.439 2.521a5.978 5.978 0 01-.598.531c-.088.148.02.532.275.995.243.438.615.95 1.126 1.553l5.315-5.314a7.9 7.9 0 01.12-1.126c.189-1.029.562-1.829 1.107-2.373.54-.541 1.324-.911 2.336-1.1.43-.08.867-.124 1.304-.13.662.003 1.217.356 1.449.92.232.565.087 1.207-.377 1.671l-.632.632.047.323.326.047.632-.639a1.579 1.579 0 011.12-.487c.504 0 .974.265 1.237.7.154.258.235.554.232.853a7.767 7.767 0 01-.125 1.277c-.185 1.029-.558 1.829-1.102 2.373-.542.538-1.325.908-2.337 1.096-.383.07-.77.114-1.16.128l-5.323 5.325c.639.544 1.177.933 1.63 1.179.443.242.813.34.958.255.164-.211.34-.41.53-.598.807-.807 1.658-1.294 2.522-1.438.864-.145 1.728.04 2.564.56.44.263.844.582 1.204.945.968.968 1.469 1.973 1.486 2.995.02 1.056-.478 2.125-1.476 3.17-.35.366-.84.72-.998.834l-.02.013a.185.185 0 00-.03.024c-.65.447-1.463.682-2.418.699-.043.003-.08.003-.12.003-.888 0-1.876-.185-2.938-.554-2.098-.727-4.403-2.138-6.717-4.1a7.49 7.49 0 01-.11.95c-.189 1.025-.562 1.825-1.106 2.37-.541.54-1.325.91-2.336 1.099-.43.08-.868.124-1.308.131-.662 0-1.217-.353-1.449-.918-.232-.564-.087-1.203.377-1.667l.638-.632-.047-.326-.326-.047-.632.632a1.579 1.579 0 01-1.119.487 1.45 1.45 0 01-1.24-.699 1.612 1.612 0 01-.232-.85c.007-.427.047-.857.124-1.277.185-1.03.558-1.83 1.103-2.374.54-.537 1.327-.907 2.336-1.095.383-.071.773-.115 1.163-.128l-.162.01C2.707 12.404 1.302 10.098.578 8.003.198 6.901.017 5.88.034 4.968c.02-.951.255-1.761.699-2.407l.02-.03.013-.02c.118-.161.471-.649.837-.998C2.653.51 3.721.013 4.776.033zm13.896 15.754c-.585.101-1.186.457-1.795 1.066-.171.168-.33.35-.474.538l-.07.077c-.236.215-.646.46-1.278.393-.376-.04-.79-.185-1.257-.437-.552-.3-1.191-.764-1.94-1.407L9.856 18.02c2.187 1.859 4.348 3.184 6.293 3.859 1.832.635 3.341.645 4.252.024l.04-.027c.363-.263.639-.488.814-.673.746-.78 1.116-1.526 1.106-2.215-.014-.669-.37-1.344-1.093-2.067a4.62 4.62 0 00-.934-.74l-.02-.01c-.562-.35-1.096-.474-1.64-.383zm.158-13.6c-.064 0-1.865.007-2.696.834-.77.77-.828 2.39-.833 2.655v.037c0 .225-.128.541-.29.703l-9.337 9.341a1.16 1.16 0 01-.703.29h-.06c-.313.006-1.88.078-2.635.833-.77.77-.83 2.39-.834 2.655v.037c0 .138.05.212.124.212.047 0 .108-.03.168-.09l.82-.821a.953.953 0 01.616-.239c.027 0 .057.004.084.007l1.173.168a.588.588 0 01.467.467l.168 1.173a.92.92 0 01-.232.7l-.817.816c-.16.158-.104.293.121.293.061 0 1.863-.007 2.69-.834.77-.77.828-2.39.833-2.655v-.037c0-.225.128-.541.29-.703l9.347-9.338c.158-.158.474-.289.7-.289h.02c.198-.002 1.88-.042 2.672-.833.77-.77.829-2.391.833-2.656v-.037c0-.138-.05-.211-.124-.211-.047 0-.108.026-.168.09l-.817.817a.953.953 0 01-.615.239.708.708 0 01-.084-.007l-1.173-.168a.588.588 0 01-.467-.467l-.168-1.173a.92.92 0 01.231-.7l.817-.816c.162-.162.104-.293-.12-.293zm-14.077-.81c-.69-.013-1.435.36-2.215 1.106-.185.175-.41.45-.672.813l-.03.04c-.616.908-.612 2.408.016 4.233.667 1.938 1.986 4.093 3.836 6.276l2.004-2.007c-.607-.71-1.052-1.322-1.346-1.852-.265-.478-.417-.898-.464-1.281-.077-.645.172-1.066.39-1.304a.506.506 0 01.078-.07c.191-.145.37-.303.54-.475.61-.608.965-1.21 1.066-1.795.091-.541-.033-1.079-.383-1.64l-.01-.02a4.62 4.62 0 00-.74-.935c-.726-.72-1.401-1.075-2.07-1.089z" fill="#5CB615" fill-rule="nonzero"/></svg>