<svg width="24" height="24" viewBox="0 0 24 24" xmlns="http://www.w3.org/2000/svg"><path d="M22.151 9.244c.027-.068.017-.121-.043-.182l-7.342-7.526c-.117-.12-.37-.12-.484 0L7.98 7.996c.897.034 1.586.29 2.09.797.538.545.8 1.294.8 2.293v6.406h8.945c.178 0 .3-.114.3-.218V10.14c0-.403.325-.733.729-.733h1.025c.202-.003.269-.127.282-.164zM9.411 20.52v-9.442c0-.592-.124-1.005-.376-1.26-.252-.256-.662-.38-1.253-.38H3.086c-.582 0-.992.127-1.25.39-.256.258-.38.668-.38 1.247v9.442c0 .598.124 1.011.376 1.264.252.252.662.373 1.254.373h4.696c.591 0 1.001-.121 1.25-.373.255-.25.38-.663.38-1.261zM23.147 8.034c.47.48.605 1.163.35 1.774a1.754 1.754 0 01-1.63 1.06h-.3v6.4c0 .927-.786 1.683-1.754 1.683h-8.945v1.57c0 1.008-.265 1.761-.81 2.306-.534.538-1.28.797-2.275.797H3.086c-.995 0-1.741-.26-2.28-.797C.263 22.286 0 21.533 0 20.524v-9.442c0-.985.262-1.73.8-2.279.545-.554 1.294-.823 2.286-.823h2.867L13.24.51c.663-.678 1.906-.678 2.565 0l7.341 7.524zM5.432 19.546c.497 0 .797.303.797.804 0 .245-.071.44-.209.584-.138.145-.343.219-.588.219-.245 0-.447-.077-.588-.219-.138-.14-.209-.339-.209-.584.004-.505.3-.804.797-.804zm9.27-5.993c.27-.003.27-.124.27-.242s0-.239-.222-.245h-.054c-.192 0-.205.097-.205.238-.004.148.013.249.212.249zm.061-1.459c.595.017 1.18.4 1.18 1.22 0 .824-.585 1.204-1.167 1.217-.665-.007-1.257-.386-1.257-1.22s.589-1.214 1.17-1.217h.074zm-.077-5.805c.09-.007 2.786-.144 4.598 1.896a.489.489 0 01-.726.652c-1.492-1.677-3.825-1.573-3.842-1.573-2.477.027-3.775 1.412-3.825 1.469a.488.488 0 01-.72-.655c.071-.075 1.62-1.759 4.515-1.789zm.006 1.933c.088 0 2.229-.08 3.6 1.465a.489.489 0 01-.04.69.485.485 0 01-.686-.04c-1.072-1.204-2.827-1.154-2.85-1.14-1.765.02-2.817 1.153-2.827 1.163a.475.475 0 01-.36.158.488.488 0 01-.363-.81c.058-.058 1.338-1.463 3.526-1.486zm.014 1.976c.04-.006 1.486-.057 2.41.989a.489.489 0 01-.04.689.485.485 0 01-.686-.04c-.615-.69-1.654-.676-1.66-.663-1.04.01-1.638.652-1.664.68a.492.492 0 01-.686.033.488.488 0 01-.034-.686c.034-.044.898-.985 2.36-1.002z" fill="#5CB615" fill-rule="nonzero"/></svg>