<svg width="24" height="24" viewBox="0 0 24 24" xmlns="http://www.w3.org/2000/svg"><path d="M21.331 6.17a.822.822 0 11-.003-1.644.822.822 0 01.003 1.644M7.17 10.768a.822.822 0 11.057-1.644.822.822 0 01-.057 1.644M21.33 3.027a2.329 2.329 0 00-2.33 2.323c0 .56.21 1.068.542 1.468l-2.867 4.8a2.245 2.245 0 00-.538-.067c-.676 0-1.28.293-1.708.757L9.48 10.139c.007-.063.02-.124.02-.191a2.326 2.326 0 00-2.326-2.323 2.329 2.329 0 00-2.33 2.323c0 .575.226 1.113.596 1.53l-2.65 4.668a2.306 2.306 0 00-.43-.043A2.329 2.329 0 00.03 18.425a2.332 2.332 0 004.662 0c0-.591-.228-1.122-.595-1.533l2.653-4.675c.14.027.279.054.423.054.676 0 1.28-.293 1.708-.757l4.95 2.168c-.002.064-.02.125-.02.192a2.33 2.33 0 002.327 2.33 2.33 2.33 0 002.33-2.327v-.003c0-.548-.2-1.045-.518-1.445l2.877-4.817c.165.037.33.06.507.06a2.326 2.326 0 002.327-2.322 2.331 2.331 0 00-2.33-2.323" fill="#313235" fill-rule="nonzero"/></svg>