<svg width="24" height="24" xmlns="http://www.w3.org/2000/svg"><path d="M10.662 13.669c.06-.108.104-.215.141-.32-.927.606-2.561 1.409-4.95 1.322.513.386 1.397.692 2.826.295.992-.275 1.657-.712 1.983-1.297zm1.136-1.5c.014.041.28.989-.272 1.977-.46.824-1.328 1.419-2.581 1.768a5.634 5.634 0 01-1.516.225c-2.357 0-3.12-1.845-3.126-1.865a.493.493 0 01.07-.484.476.476 0 01.454-.185c4.047.531 6.12-1.61 6.141-1.634a.506.506 0 01.474-.14c.171.04.31.17.356.339zm-7.744-1.031c.154 0 .322-.01.487-.03a5.243 5.243 0 001.049-.246s.36-.188.04-.454c0 0-.336-.386-.897-.386-.326 0-.723.128-1.18.534-.484.437-.074.582.5.582zm1.875.649a6.033 6.033 0 01-1.277.299c-.208.023-.41.037-.595.037-.867 0-1.418-.283-1.627-.837-.09-.232-.225-.844.467-1.462.585-.521 1.204-.787 1.84-.787.702 0 1.28.346 1.59.666.308.285.463.665.42 1.052-.055.484-.394.823-.697.981-.043.02-.08.037-.12.05zm2.34-2.39c-.232.41-.08.558.228.558.253 0 .606-.098.938-.229.511-.205.952-.534.952-.534s.292-.293-.115-.491c0 0-.306-.212-.72-.212-.389-.003-.87.185-1.283.908zm.228 1.54c-.732 0-1.058-.428-1.166-.61-.168-.288-.289-.766.08-1.418.7-1.227 1.641-1.412 2.139-1.412.584 0 1.032.236 1.213.347.514.279.655.695.692.924.098.592-.262 1.005-.373 1.12-.033.033-.07.063-.104.09-.054.04-.561.414-1.18.659-.343.138-.847.3-1.3.3zm12.064 4.934a19.668 19.668 0 001.466-5.11c-1.59.525-3.49.316-4.585-.104-1.072-.41-2.608-1.613-3.442-2.961-.205.312-.44.682-.682 1.086.11.363.211.746.309 1.139.04-.003.077-.013.12-.017.102-.007.2-.013.293-.013 1.795 0 2.44 1.217 2.548 1.926.111.507-.08.857-.212 1.025-.228.3-.591.467-.994.467-.138 0-.232-.017-.232-.017-.034-.006-.088-.02-.118-.026a7.094 7.094 0 01-.978-.397 6.216 6.216 0 01-.188 1.634c.584-.095 1.273-.054 2.08.255 1.015.387 1.698.971 2.034 1.728a2.722 2.722 0 01.067 1.973.487.487 0 01-.4.306c-.02.003-.04.003-.06.003a.488.488 0 01-.4-.208c-.058-.081-1.486-1.953-4.72-1.836a5.112 5.112 0 01-.454.337c.508.645 1.271 1.173 2.357 1.59 2.944 1.125 4.538.991 6.191-2.78zm-11.808.971c3.217-.894 4.487-2.01 3.513-6.259a20.526 20.526 0 00-2.004-5.3c-.776 1.135-2.037 2.026-3.71 2.608-.949.33-2.992.457-5.04-.326.071 1.425.293 3.862.985 5.704 1.268 3.371 3.14 4.44 6.256 3.573zm4.632-1.173c-.017.023-.03.05-.044.074 1.846.128 3.103.84 3.839 1.435-.118-.497-.504-1.089-1.583-1.499-1.019-.393-1.735-.269-2.212-.01zm.575-4c.11.077.225.151.346.218.48.273 1.008.43 1.008.43a.6.6 0 00.068.004c.11 0 .312-.037.235-.33 0 0-.111-1.119-1.577-1.119-.067 0-.134.004-.205.007.05.276.091.541.125.79zm9.253-2.827a.74.74 0 01.41.666c0 .127-.04 3.153-1.704 6.954-1.388 3.167-2.988 4.283-4.92 4.283-.965 0-2.01-.276-3.157-.713-1.459-.558-2.477-1.318-3.15-2.29a13.98 13.98 0 01-1.54.522c-.816.225-1.579.34-2.288.34-2.646 0-4.538-1.594-5.751-4.817C-.02 10.768 0 6.553.003 6.375a.743.743 0 011.11-.636c2.03 1.164 4.215 1.012 4.954.753 1.26-.437 2.88-1.307 3.429-2.96a.745.745 0 01.588-.498.737.737 0 01.713.295c.053.074 1.005 1.392 1.899 3.654.49-.753.857-1.244.88-1.27a.738.738 0 011.321.332c.185 1.207 1.994 2.817 3.073 3.23 1.085.417 3.3.525 4.464-.362a.751.751 0 01.78-.071zm-3.267 4.424s-.259-.602-1.059-.602c-.201 0-.433.037-.705.131-.676.235-.014.531.655.686.467.104.941.11.941.11s.353-.036.168-.325zm-2.087-1.399a3.128 3.128 0 011.028-.185c1.08 0 1.701.67 1.93 1.12.201.356.225.753.06 1.102-.178.373-.55.622-.995.672-.033.004-.07.004-.104.004h-.01c-.06 0-.598-.01-1.153-.135-.45-.104-1.647-.376-1.7-1.364-.01-.209.023-.898.944-1.214z" fill="#313235" fill-rule="nonzero"/></svg>