<svg width="24" height="24" xmlns="http://www.w3.org/2000/svg"><path d="M18.558 23.617c-1.039 0-2.229-.256-3.51-.767-2.618-1.045-5.485-3.079-8.288-5.882l-.007-.007-.09-.087-.008-.007c-2.803-2.803-4.837-5.67-5.882-8.289C-.222 6.071-.245 3.93.71 2.548l.02-.03.014-.02c.118-.162.467-.65.833-.999C2.618.504 3.684.01 4.736.027c1.015.02 2.02.518 2.985 1.482.363.357.682.76.945 1.2.517.834.705 1.694.558 2.558-.148.864-.629 1.708-1.436 2.515a6.848 6.848 0 01-.595.53c-.077.142-.03.585.595 1.5.723 1.055 1.933 2.302 2.78 3.15l.1.1c.848.847 2.095 2.054 3.15 2.78.911.625 1.358.672 1.5.595.164-.208.34-.407.53-.595.807-.807 1.651-1.287 2.515-1.435.864-.148 1.724.04 2.558.558.437.262.84.578 1.2.944.965.965 1.462 1.967 1.482 2.985.02 1.052-.474 2.118-1.472 3.16-.35.366-.837.716-.998.833l-.02.014c-.01.007-.02.013-.03.023-.68.46-1.537.693-2.525.693zM7.711 16.024c2.672 2.672 5.381 4.601 7.832 5.58 2.037.81 3.771.887 4.76.214l.04-.026c.363-.263.635-.488.81-.67 1.465-1.532 1.469-2.81.01-4.265a4.677 4.677 0 00-.931-.736l-.02-.01c-.558-.346-1.093-.47-1.63-.38-.582.098-1.184.454-1.789 1.059a4.8 4.8 0 00-.474.538c-.023.027-.047.054-.07.077-.286.266-.8.538-1.614.33-.46-.118-.978-.374-1.58-.787-1.146-.787-2.453-2.054-3.337-2.938l-.101-.1c-.884-.885-2.151-2.192-2.938-3.342-.413-.602-.672-1.12-.787-1.58-.205-.813.068-1.327.33-1.613a.506.506 0 01.077-.07 4.8 4.8 0 00.538-.475c.605-.605.961-1.206 1.059-1.788.09-.541-.034-1.072-.38-1.63l-.01-.02a4.583 4.583 0 00-.736-.931c-1.456-1.456-2.733-1.453-4.266.013a6.268 6.268 0 00-.669.81l-.03.04c-.672.989-.592 2.723.219 4.76.978 2.45 2.907 5.16 5.58 7.832l.046.047.014.013.047.048z" fill="#313235" fill-rule="nonzero"/></svg>