<svg width="24" height="24" viewBox="0 0 24 24" xmlns="http://www.w3.org/2000/svg"><path d="M20.733 21.66v-8.55c-.293.05-.585.077-.88.08-1.023 0-1.98-.293-2.677-.8-.699.507-1.657.8-2.675.8-1.022 0-1.98-.293-2.676-.8-.699.507-1.657.8-2.675.8-1.029 0-1.99-.296-2.69-.814-.699.515-1.66.814-2.689.814-.305 0-.598-.034-.88-.08v8.547c0 .286.259.518.578.518h5.039v-5.63c0-.82.685-1.49 1.532-1.49h3.567c.847 0 1.532.67 1.532 1.49v5.63h5.009c.326.003.585-.232.585-.514zm-7.036.518v-5.633c0-.007-.026-.044-.087-.044h-3.566c-.06 0-.088.037-.088.044v5.63c-.003.003 3.741.003 3.741.003zM1.664 9.94c-.145.23-.215.347-.215.491 0 .619.954 1.311 2.326 1.311.867 0 1.664-.289 2.08-.753 0 0 .226-.168.296-.212.115-.067.32-.063.32-.063a.831.831 0 01.611.279c.41.457 1.207.746 2.074.746.86 0 1.654-.286 2.074-.743 0 0 .175-.175.29-.232.104-.05.309-.034.309-.034.211.04.45.095.605.263.423.463 1.216.75 2.077.75.857 0 1.66-.3 2.074-.737 0 0 .205-.171.286-.222.107-.067.316-.05.316-.05.228 0 .45.097.605.265.416.457 1.21.743 2.07.743 1.372 0 2.326-.692 2.326-1.314 0-.256-.154-.467-.285-.602l-.004-.003c-.255-.266-.447-.81-1.028-2.925-.105-.37-.189-.685-.246-.863L19.17 1.445 4.454 1.49c-.202.635-.484 1.553-.79 2.538-.948 3.052-1.577 5.079-1.708 5.381a4.227 4.227 0 01-.292.531zm21.96.495c0 .894-.569 1.67-1.446 2.171v9.056c0 1.082-.907 1.963-2.023 1.963H3.469c-1.116 0-2.024-.881-2.024-1.963v-9.056C.568 12.101 0 11.328 0 10.43c0-.571.255-.971.44-1.267.068-.104.135-.208.189-.33.12-.288 1.008-3.149 1.653-5.24.323-1.042.622-2.006.827-2.659A1.296 1.296 0 014.343.04L19.27 0h.003c.568 0 1.065.36 1.24.9l1.483 4.707c.06.185.15.52.258.914.185.666.558 2.027.72 2.35.423.457.649.995.649 1.563z" fill="#5CB615" fill-rule="nonzero"/></svg>