<svg width="24" height="24" xmlns="http://www.w3.org/2000/svg"><path d="M10.84 18.1c-.534 1.2-1.337 2.014-2.094 2.125-.544.078-1.116-.198-1.68-.83l-.202-.225-.313-.027c-.867-.074-1.432-.35-1.68-.824-.343-.655-.111-1.75.608-2.86.89-1.388 3.835-2.945 5.355-3.614.309 1.563.682 4.757.006 6.256m-7.062-7.735C2.521 9.86 1.668 9.092 1.55 8.37c-.084-.521.208-1.06.867-1.597l.238-.195.027-.296c.078-.827.37-1.364.864-1.6.209-.1.464-.15.746-.15.646 0 1.446.251 2.256.729 1.455.847 3.089 3.653 3.788 5.102-1.637.292-4.985.645-6.558.003m8.111-6.729c.535-1.2 1.338-2.013 2.094-2.128a1.71 1.71 0 01.185-.013c.49 0 .992.282 1.493.843l.201.226.313.027c.867.074 1.432.353 1.68.823.343.656.111 1.751-.608 2.864-.887 1.388-3.832 2.945-5.351 3.613-.306-1.566-.68-4.756-.007-6.255m7.062 7.731c1.257.508 2.115 1.274 2.229 1.997.084.524-.209 1.062-.87 1.6l-.24.191-.03.3c-.077.823-.366 1.36-.864 1.6-.682.326-1.835.107-3.001-.582-1.456-.847-3.09-3.654-3.788-5.106 1.647-.286 4.995-.642 6.564 0m-2.716 9.758c2.02 1.62 4.28 2.531 6.256 2.531.09 0 .181-.003.269-.007.191-.01.373-.07.53-.171a.709.709 0 00.223-.978c-.01-.014-.017-.027-.027-.04a.8.8 0 00-.908-.27c-1.6.048-3.573-.756-5.354-2.188l-.085-.064a12.569 12.569 0 01-2.547-2.79c.258.226.517.424.783.579 1.062.625 2.117.944 3.052.944.524 0 1.012-.1 1.442-.306.649-.309 1.445-.991 1.67-2.484 1.147-1.042 1.271-2.053 1.16-2.736-.202-1.257-1.348-2.396-3.146-3.122-1.015-.414-2.464-.508-3.882-.461 1.19-.743 2.316-1.62 2.887-2.514 1.025-1.583 1.27-3.146.672-4.283-.326-.618-1.038-1.378-2.608-1.593-1.09-1.1-2.155-1.217-2.87-1.11-1.318.196-2.512 1.288-3.275 3-.433.964-.53 2.345-.48 3.7C9.213 5.63 8.299 4.555 7.358 4.01c-1.664-.975-3.3-1.21-4.494-.639-.649.313-1.446.992-1.67 2.484C.043 6.897-.078 7.91.033 8.592c.201 1.257 1.35 2.396 3.142 3.122.858.35 2.03.474 3.234.474.215 0 .434-.006.652-.013-1.19.746-2.32 1.623-2.89 2.517-1.026 1.584-1.268 3.147-.67 4.283.327.618 1.043 1.378 2.609 1.59.894.897 1.768 1.136 2.45 1.136.152 0 .29-.01.42-.03 1.318-.195 2.515-1.288 3.274-2.999.219-.484.35-1.079.424-1.714a14.068 14.068 0 003.479 4.1" fill="#313235" fill-rule="nonzero"/></svg>