<svg width="24" height="24" viewBox="0 0 24 24" xmlns="http://www.w3.org/2000/svg"><path d="M17.316 21.28V6.414a.29.29 0 00-.06-.158H6.552a.3.3 0 00-.06.158v14.864c0 .068.03.128.05.158l10.72.004a.252.252 0 00.053-.158zM9.595 1.463V4.78h4.618V1.462H9.595zm7.744 3.328c.777 0 1.456.756 1.456 1.62v14.867c0 .881-.666 1.624-1.456 1.624h-1.253c-.098.655-.67.72-.824.723h-.08c-.162-.004-.727-.064-.824-.723H9.491c-.098.655-.67.72-.824.723h-.08c-.162-.004-.726-.064-.824-.723H6.466c-.79 0-1.453-.743-1.453-1.62V6.413c0-.863.68-1.62 1.453-1.62h1.65v-3.73c0-.576.5-1.06 1.092-1.06h5.389c.581 0 1.092.494 1.092 1.06v3.73h1.65V4.79zM14.338 18.54V12.65h-4.87v5.892h4.87zm-4.87-9.267v1.913h4.87V9.274h-4.87zm5.243-1.459c.692 0 1.11.746 1.11 1.466v9.26c0 .834-.478 1.466-1.11 1.466H9.1c-.632 0-1.11-.629-1.11-1.466V9.277c0-.719.414-1.465 1.11-1.465l5.61.003z" fill="#5CB615" fill-rule="nonzero"/></svg>