<svg width="24" height="24" xmlns="http://www.w3.org/2000/svg"><path d="M19.496 18.442l-15.365-.01c-1.344 0-2.386-.373-3.096-1.113C.346 16.61 0 15.595 0 14.304V7.108c0-2.642 1.466-4.095 4.128-4.095l15.368.01c2.662 0 4.128 1.456 4.128 4.095v7.196c0 1.291-.347 2.306-1.032 3.015-.713.74-1.755 1.113-3.096 1.113zM4.128 4.358c-.968 0-1.688.232-2.135.69-.43.44-.648 1.132-.648 2.06v7.196c0 1.9.884 2.783 2.783 2.783l15.364.01c1.9 0 2.784-.884 2.784-2.783V7.118c0-.928-.219-1.62-.652-2.06-.448-.458-1.163-.69-2.135-.69l-15.361-.01zm10.628 16.74l-5.899-.01a.674.674 0 01-.672-.673c0-.37.302-.672.672-.672l5.9.01c.37 0 .672.302.672.672 0 .37-.303.672-.673.672z" fill="#313235" fill-rule="nonzero"/></svg>