<svg width="24" height="24" viewBox="0 0 24 24" xmlns="http://www.w3.org/2000/svg"><path d="M12.353 1.445c-4.454 0-6.914 2.494-6.928 7.026-.013 4.026 4.78 10.897 6.908 13.364 1.936-2.259 6.961-9.102 6.975-13.32.013-4.545-2.444-7.053-6.921-7.07h-.034zm-.017 22.179a.71.71 0 01-.504-.212C10.235 21.792 3.983 13.624 4 8.467 4.017 3.163 7.14 0 12.353 0h.037c5.237.017 8.356 3.2 8.34 8.518-.014 5.532-6.908 13.899-7.89 14.894a.716.716 0 01-.504.212zm.03-17.362c-1.146 0-1.707.568-1.707 1.731 0 1.167.558 1.735 1.707 1.735 1.15 0 1.708-.568 1.708-1.731 0-1.167-.561-1.731-1.708-1.735zm0 4.914c-1.932 0-3.132-1.22-3.132-3.18 0-1.959 1.2-3.18 3.132-3.18 1.933 0 3.133 1.221 3.133 3.18 0 1.96-1.2 3.18-3.133 3.18z" fill="#5CB615" fill-rule="nonzero"/></svg>