<svg width="24" height="24" viewBox="0 0 24 24" xmlns="http://www.w3.org/2000/svg"><path d="M19.882 22.1v-2.248a.39.39 0 00-.208-.064H4.05a.413.413 0 00-.208.057v2.266a.41.41 0 00.208.054h15.624a.38.38 0 00.208-.064zM5.684 11.463v6.844H18.04v-6.844c0-4.175-2.02-6.205-6.181-6.205-4.155 0-6.175 2.03-6.175 6.205zm13.99 6.87c.887 0 1.66.656 1.66 1.402v2.484c0 .75-.776 1.406-1.66 1.406H4.05c-.9 0-1.66-.642-1.66-1.406v-2.484c0-.76.76-1.401 1.66-1.401h.182v-6.87c0-4.942 2.71-7.665 7.627-7.665 4.92 0 7.63 2.723 7.63 7.664v6.87h.185zM11.862 3.228a.728.728 0 01-.726-.73V.73c0-.403.326-.729.726-.729.4 0 .726.326.726.73v1.767a.73.73 0 01-.726.73zM3.21 8.894a.73.73 0 01-.726.73H.726a.73.73 0 010-1.46h1.761c.4 0 .726.327.723.73zm19.687-.696c.4 0 .727.326.727.73 0 .4-.323.73-.727.73h-1.76a.728.728 0 01-.727-.73c0-.404.326-.73.726-.73h1.761zM4.218 4.568l-1.243-1.25a.728.728 0 011.022-1.036L4 2.286l1.244 1.25a.732.732 0 01-.515 1.247.743.743 0 01-.51-.215zm13.83.067a.729.729 0 01-.512-1.243l1.244-1.25a.722.722 0 011.022-.004l.003.003a.73.73 0 010 1.029l-1.244 1.25a.728.728 0 01-.514.215z" fill="#313235" fill-rule="nonzero"/></svg>