<svg width="24" height="24" xmlns="http://www.w3.org/2000/svg"><path d="M21.876 19.326a.267.267 0 00.272-.262V8.21H1.476v10.85c0 .145.12.263.272.263h20.128v.003zM1.748 4.45a.267.267 0 00-.272.262v2.077h20.672V4.711a.267.267 0 00-.272-.262H1.748zm20.128-1.422c.964 0 1.748.756 1.748 1.684v14.35c0 .927-.784 1.684-1.748 1.684H1.748C.783 20.745 0 19.988 0 19.06V4.71c0-.928.783-1.684 1.748-1.684h20.128zM5.005 6.18a.672.672 0 01-.682-.659c0-.363.306-.659.682-.659a.67.67 0 01.682.659.67.67 0 01-.682.659zm2.054 0a.67.67 0 01-.683-.659c0-.363.306-.659.683-.659a.67.67 0 01.682.659.672.672 0 01-.682.659zm-4.104 0a.67.67 0 01-.683-.659c0-.363.306-.659.683-.659a.67.67 0 01.682.659.672.672 0 01-.682.659zm9.996 7.176l.498-.487-.656-.094a.973.973 0 01-.716-.511l-.265-.545-.266.538a.97.97 0 01-.722.518l-.65.094.498.484a.922.922 0 01.262.803l-.11.642.534-.279a.967.967 0 01.887-.01l.555.293-.11-.642a.939.939 0 01.261-.804zm1.204-1.294a.623.623 0 01.35 1.062l-.885.864c-.007.007-.01.017-.007.024l.209 1.22a.623.623 0 01-.615.726.66.66 0 01-.296-.07l-1.093-.575c-.003 0-.003-.004-.006-.004-.004 0-.004 0-.007.004l-1.092.574a.65.65 0 01-.652-.037.614.614 0 01-.263-.618l.209-1.22c.003-.01 0-.017-.007-.024l-.884-.864a.613.613 0 01-.151-.648.623.623 0 01.5-.414l1.22-.178c.004 0 .01-.007.014-.01l.548-1.11a.619.619 0 01.561-.349c.242 0 .458.135.562.35l.544 1.109c.004.003.007.01.014.01l1.227.178zm5.526 1.294l.497-.487-.655-.094a.972.972 0 01-.723-.525l-.262-.53-.266.537a.97.97 0 01-.722.518l-.65.094.498.484a.932.932 0 01.263.803l-.111.642.534-.279a.977.977 0 01.454-.114c.148 0 .302.037.437.104l.554.293-.11-.642a.939.939 0 01.262-.804zm1.203-1.294a.623.623 0 01.35 1.062l-.884.864c-.007.007-.01.017-.007.024l.208 1.22a.623.623 0 01-.615.726.66.66 0 01-.296-.07l-1.092-.575c-.003 0-.003-.004-.007-.004-.003 0-.003 0-.003.004l-1.093.574a.651.651 0 01-.652-.037.614.614 0 01-.262-.618l.208-1.22c.004-.01 0-.017-.006-.024l-.884-.864a.623.623 0 01.35-1.062l1.22-.178c.003 0 .01-.007.013-.01l.544-1.11a.627.627 0 011.126 0l.545 1.11c.003.003.007.01.014.01l1.223.178zM6.222 13.356l.497-.487-.655-.094a.973.973 0 01-.716-.511l-.266-.545-.265.538a.97.97 0 01-.723.518l-.652.094.497.484a.932.932 0 01.263.803l-.108.642.535-.279a.977.977 0 01.453-.114c.152 0 .303.037.437.104l.555.293-.111-.642a.927.927 0 01.259-.804zm1.203-1.294a.623.623 0 01.346 1.062l-.884.864c-.006.007-.01.017-.006.024l.208 1.22a.619.619 0 01-.265.618.607.607 0 01-.353.108.66.66 0 01-.296-.07l-1.093-.575c-.003 0-.003-.004-.006-.004-.004 0-.004 0-.004.004l-1.092.574a.65.65 0 01-.652-.037.614.614 0 01-.262-.618l.208-1.22c0-.01 0-.017-.007-.024l-.884-.864a.623.623 0 01.35-1.062l1.22-.178c.003 0 .01-.007.013-.01l.545-1.11a.627.627 0 011.126 0l.545 1.11c.003.003.006.01.013.01l1.23.178z" fill="#313235" fill-rule="nonzero"/></svg>