<svg width="24" height="24" viewBox="0 0 24 24" xmlns="http://www.w3.org/2000/svg"><path d="M15.227 22.185c1.445 0 2.376-.538 2.807-1.577H5.72c.131.32.303.599.528.82.52.505 1.29.76 2.296.76h6.682v-.003zm-7.7-20.48v3.508c0 .148.117.27.265.27h8.09a.267.267 0 00.266-.27V1.704a.264.264 0 00-.266-.265h-8.09a.268.268 0 00-.266.265zm10.702 6.907c-.189-.955-.69-1.6-1.5-1.923a1.686 1.686 0 01-.847.235h-8.09c-.286 0-.555-.077-.79-.205a2.502 2.502 0 00-.75.468c-.363.35-.595.837-.716 1.425H18.23zM5.439 19.059c0 .037.006.07.006.11h12.858c0-.036.006-.07.006-.107l.01-9.008H5.44v9.005zm12.12-13.587c1.423.7 2.196 2.121 2.196 4.078l-.01 9.509c0 2.857-1.691 4.565-4.518 4.565h-6.68c-1.39 0-2.497-.39-3.293-1.163-.827-.804-1.247-1.947-1.247-3.402v-9.51c0-1.455.42-2.598 1.257-3.401a3.74 3.74 0 01.864-.609 1.694 1.694 0 01-.034-.322v-3.51c0-.94.763-1.704 1.701-1.704h8.09c.939 0 1.702.767 1.702 1.705v3.509c0 .087-.014.171-.027.255zm-8.793-.655a.717.717 0 01-.716-.72v-1.25a.72.72 0 01.716-.72.72.72 0 01.716.72v1.25a.715.715 0 01-.716.72zm2.05 0a.717.717 0 01-.715-.72v-1.25a.72.72 0 01.716-.72c.396 0 .716.323.716.72v1.25c0 .397-.32.72-.716.72zm2.048 0a.717.717 0 01-.716-.72v-1.25a.72.72 0 01.716-.72.72.72 0 01.716.72v1.25a.715.715 0 01-.716.72zm2.047 0a.717.717 0 01-.716-.72v-1.25a.72.72 0 01.716-.72c.397 0 .716.323.716.72v1.25a.715.715 0 01-.716.72zm-1.26 11.99c.78-.484 1.176-1.328 1.176-2.504 0-2.626-1.977-2.955-2.824-2.975-.097-.004-.201-.004-.299-.004h-.017c-.833.004-2.776.303-2.776 2.958 0 1.197.397 2.044 1.173 2.525l.229.14v.519c0 .178.037.299.114.366.087.08.235.118.43.118h2.034c.138 0 .32-.02.423-.115.094-.084.111-.248.111-.37v-.52l.225-.138zm-1.617-6.437c.618.013 3.75.269 3.75 3.933 0 1.717-.715 2.658-1.4 3.166 0 .578-.233.907-.428 1.079-.262.239-.622.363-1.065.363h-2.034c-.447 0-.807-.124-1.069-.366-.191-.169-.43-.501-.43-1.073-.686-.504-1.402-1.448-1.402-3.186 0-3.711 3.106-3.916 3.728-3.92.138-.027.239 0 .35.004zm-.663 4.84a.476.476 0 01-.675 0l-.28-.279-.278.28a.476.476 0 01-.676 0 .485.485 0 010-.68l.28-.279-.28-.279a.485.485 0 010-.679.475.475 0 01.676 0l.279.28.279-.28a.475.475 0 01.675 0 .485.485 0 010 .68l-.279.278.28.28a.479.479 0 010 .678zm2.663-.958l.279.28a.485.485 0 010 .678.476.476 0 01-.676 0l-.279-.279-.279.28a.476.476 0 01-.676 0 .485.485 0 010-.68l.28-.279-.28-.279a.485.485 0 010-.679.475.475 0 01.676 0l.279.28.279-.28a.475.475 0 01.676 0 .485.485 0 010 .68l-.28.278zM12.558 15.9l.145.34a.479.479 0 01-.44.665.47.47 0 01-.414-.262.47.47 0 01-.414.262.48.48 0 01-.437-.666l.145-.339c.1-.245.386-.36.625-.255.034.013.057.037.084.057.027-.02.05-.044.084-.057a.474.474 0 01.622.255z" fill="#313235" fill-rule="nonzero"/></svg>