<svg width="24" height="24" viewBox="0 0 24 24" xmlns="http://www.w3.org/2000/svg"><path d="M19.966 21.141c1.856-.148 2.155-1.633 2.202-2.52h-2.202v2.52zm-18.443-2.5c.033.426.164 1.206.682 1.76.353.377.86.606 1.52.696V18.64H1.522zM2.534 2.938c-.238.152-.917.616-1.005 2.169h2.195V2.543c-.342.04-.79.138-1.19.396zm19.64 2.152c-.02-.404-.124-1.237-.668-1.822-.353-.38-.87-.615-1.543-.71v2.532h2.212zm-2.208 12.027h2.212v-2.505h-2.212v2.505zm0-8.017h2.209V6.593h-2.209v2.508zm0 4.007h2.209V10.6h-2.209v2.508zM5.2 2.519v18.622h13.29V2.513c-4.066 0-10.927.006-13.29.006zM1.513 17.138h2.211v-2.504H1.513v2.504zm0-8.027h2.211V6.613H1.513v2.498zm0 1.502v2.515h2.211v-2.515H1.513zM19.284 1.01c4.713 0 4.366 4.44 4.366 4.44s.004 7.752.004 12.75c0 4.094-2.931 4.467-3.99 4.467-.232 0-.377-.02-.377-.02H4.38c-4.639 0-4.343-4.423-4.343-4.423S.034 10.23.034 5.427c0-4.124 3.186-4.417 4.09-4.417.152 0 .236.007.236.007S14.57 1.01 19.284 1.01zM9.143 14.936l5.27-3.099-5.27-3.1v6.2zm7.116-3.751c.228.134.37.383.37.652a.756.756 0 01-.37.652l-7.486 4.4a.729.729 0 01-.74 0 .756.756 0 01-.37-.652v-8.8c0-.269.142-.518.37-.652a.728.728 0 01.74 0l7.486 4.4z" fill="#5CB615" fill-rule="nonzero"/></svg>