<svg width="24" height="24" viewBox="0 0 24 24" xmlns="http://www.w3.org/2000/svg"><path d="M11.829 16.434c.803 0 1.442.221 1.899.662.474.457.716 1.116.716 1.953s-.242 1.496-.716 1.953c-.457.44-1.096.662-1.9.662-.803 0-1.441-.222-1.899-.662-.474-.457-.716-1.116-.716-1.953s.242-1.496.716-1.953c.458-.44 1.096-.662 1.9-.662zm.043-4.602a8.07 8.07 0 015.624 2.276.674.674 0 01-.938.964 6.66 6.66 0 00-2.064-1.368 6.67 6.67 0 00-2.622-.53 6.69 6.69 0 00-4.763 1.972.66.66 0 01-.477.202.674.674 0 01-.474-1.15 7.998 7.998 0 012.504-1.704 8.026 8.026 0 013.21-.662zm.004-4.904a12.227 12.227 0 018.585 3.506.674.674 0 01-.942.961 10.858 10.858 0 00-3.401-2.266 10.843 10.843 0 00-4.242-.853c-1.49 0-2.931.292-4.286.87a10.962 10.962 0 00-3.435 2.316l-.014.014a.67.67 0 01-.951 0 .674.674 0 010-.952l.017-.016a12.236 12.236 0 018.669-3.58zm.003-4.901c2.208 0 4.356.43 6.38 1.28a16.37 16.37 0 015.166 3.446.67.67 0 01.007.951.67.67 0 01-.951.007 15.072 15.072 0 00-10.602-4.34c-2.047 0-4.027.4-5.892 1.19a15.146 15.146 0 00-4.794 3.224l-.02.02a.666.666 0 01-.948.003.674.674 0 010-.95l.02-.024a16.53 16.53 0 015.217-3.51 16.362 16.362 0 016.417-1.297z" fill="#5CB615" fill-rule="nonzero"/></svg>