<svg width="24" height="24" xmlns="http://www.w3.org/2000/svg"><path d="M20.695 10.11h-1.852A7.354 7.354 0 0 0 18.19 8l1.37-1.37a.997.997 0 0 0 0-1.406l-1.1-1.098a.997.997 0 0 0-1.407 0l-1.37 1.37a7.307 7.307 0 0 0-2.109-.653V2.99c0-.54-.44-.98-.98-.98H11.09c-.541 0-.98.44-.98.98v1.854A7.354 7.354 0 0 0 8 5.496l-1.37-1.37a.997.997 0 0 0-1.406 0L4.126 5.224a.997.997 0 0 0 0 1.406l1.367 1.367c-.317.56-.543 1.465-.65 2.112H2.99c-.54 0-.98.44-.98.98v1.505c0 .54.44.98.98.98h1.854c.107.65.333 1.552.65 2.112l-1.367 1.367a.997.997 0 0 0 0 1.406l1.098 1.098a.997.997 0 0 0 1.406 0L8 18.187a7.354 7.354 0 0 0 2.11.653v1.855c0 .54.439.98.98.98h1.504c.54 0 .98-.44.98-.98V18.84a7.307 7.307 0 0 0 2.11-.652l1.37 1.37a.997.997 0 0 0 1.405 0l1.098-1.099a.997.997 0 0 0 0-1.406l-1.367-1.367a7.354 7.354 0 0 0 .653-2.109h1.854c.541 0 .98-.44.98-.98v-1.505a.984.984 0 0 0-.982-.983Zm-8.852-.998c1.863 0 2.731.868 2.731 2.731s-.868 2.731-2.73 2.731c-1.864 0-2.732-.868-2.732-2.73 0-1.864.868-2.732 2.731-2.732Z" fill="#313235" fill-rule="nonzero"/></svg>