<svg width="24" height="24" viewBox="0 0 24 24" xmlns="http://www.w3.org/2000/svg"><path d="M12.932 12l8.712-8.726a.63.63 0 00.028-.89c-.008-.012-.02-.02-.028-.029a.63.63 0 00-.89-.028c-.012.009-.02.02-.029.028L12 11.067 3.274 2.355a.63.63 0 00-.89-.028c-.012.009-.02.02-.029.028a.63.63 0 00-.028.891c.009.011.02.02.028.028L11.067 12l-8.712 8.725a.63.63 0 00-.028.89c.009.012.02.02.028.029.12.126.286.199.46.196a.618.618 0 00.46-.196L12 12.932l8.725 8.712a.63.63 0 00.89.028c.012-.008.02-.02.029-.028a.63.63 0 00.028-.89c-.008-.012-.02-.02-.028-.029L12.932 12z" fill="#313235" fill-rule="nonzero"/></svg>