<svg width="24" height="24" viewBox="0 0 24 24" xmlns="http://www.w3.org/2000/svg"><path d="M12.925 14.67c-1.166.217-2.241.334-3.222.365-.078-1.143-.95-1.765-2.42-1.907a5.5 5.5 0 00-.512-.026c-.91 0-1.577.278-1.961.843-.922-.655-1.51-1.613-1.74-2.86-.638-3.473 2.031-5.79 7.933-6.882 2.91-.538 5.23-.507 6.897.093 1.675.605 2.644 1.747 2.966 3.495.636 3.474-2.036 5.79-7.941 6.88m-5.532 1.86c-.14 0-.283-.009-.437-.023-1.802-.173-1.718-1.039-1.678-1.453.056-.586.274-1.13 1.49-1.13.137 0 .283.01.434.023.647.062 1.129.23 1.398.482.148.137.336.39.28.975-.053.585-.272 1.126-1.487 1.126M21.67 7.643c-.373-2.034-1.55-3.42-3.496-4.12-1.807-.653-4.269-.692-7.322-.13-8.017 1.482-9.095 5.082-8.591 7.841.274 1.499.994 2.655 2.137 3.437.034.022.07.034.107.045-.017.084-.037.165-.045.257-.137 1.432.762 2.194 2.417 2.353.18.017.35.026.513.026.308 0 .588-.037.837-.098.224.383.44.935.264 1.481-.188.566-.768 1.056-1.726 1.451a.412.412 0 00.31.762c1.191-.49 1.928-1.148 2.194-1.955.21-.641.101-1.358-.297-2.076.325-.243.547-.593.659-1.053a22.058 22.058 0 003.442-.384C21.096 14 22.177 10.4 21.67 7.643" fill="#313235" fill-rule="nonzero"/></svg>