<svg width="24" height="24" viewBox="0 0 24 24" xmlns="http://www.w3.org/2000/svg"><path d="M17.87 4.908h-1.534l-.833 3.449h2.534l.357-2.995c-.004-.222-.236-.454-.525-.454zm-1.49 17.375l1.536-12.908h-2.659l-2.79 11.574a.51.51 0 01-.615.376h-.003a.508.508 0 01-.38-.608v-.004l2.733-11.338H3.667L5.2 22.222c.004.343.239.575.525.575h10.134a.52.52 0 00.521-.514zM3.715 4.908a.518.518 0 00-.521.514l.352 2.935h10.908l.83-3.449H3.714zM21.6 2.764a.508.508 0 11-.5.887l-3.933-2.185-.585 2.424h1.29c.85 0 1.547.689 1.547 1.532l-2.017 16.915c.003.786-.69 1.472-1.54 1.472H5.725a1.54 1.54 0 01-1.547-1.533L2.175 5.486c-.003-.904.69-1.593 1.543-1.593H15.53L16.326.58a.51.51 0 01.75-.326l4.524 2.51zM8.296 14.028c.961-.952.269-1.792.064-2l-.094-.095c-.121-.114-.494-.426-.985-.426-.306 0-.659.12-1.025.484-.955.947-.256 1.801-.06 2.003l.097.097c.124.125.487.427.968.427.306.004.662-.12 1.035-.49zm.8-2.71c.83.847 1.126 2.232-.077 3.425-.66.656-1.321.794-1.762.794-.857 0-1.465-.504-1.69-.723-.04-.04-.081-.077-.118-.118-.817-.853-1.113-2.242.077-3.421.652-.65 1.311-.784 1.752-.784.857 0 1.472.498 1.697.713.04.034.084.077.121.114zm.666 7.597c.534-.531.15-.998.037-1.113a.739.739 0 00-.054-.05c-.067-.064-.272-.239-.548-.239-.168 0-.367.067-.568.272-.531.525-.141 1.002-.037 1.113l.054.054c.07.067.272.239.537.239.172 0 .37-.071.579-.276zm.685-1.903l.084.084c.595.609.837 1.664-.047 2.542-.477.474-.968.571-1.3.571-.454 0-.911-.195-1.254-.528l-.078-.077c-.591-.612-.823-1.667.05-2.534.471-.471.965-.569 1.295-.569.642-.003 1.096.36 1.25.511z" fill="#313235" fill-rule="nonzero"/></svg>