<svg width="24" height="24" viewBox="0 0 24 24" xmlns="http://www.w3.org/2000/svg"><path d="M2.74 8.83a.579.579 0 01-.58-.578V2.74c0-.32.26-.58.58-.58h5.512a.581.581 0 010 1.16H3.32v4.932c0 .32-.26.577-.58.577zm5.524 11.86a.581.581 0 010 1.16H2.74a.583.583 0 01-.58-.58v-5.513c0-.32.258-.58.577-.58a.59.59 0 01.58.577v4.933c.003.002 4.947.002 4.947.002zm13.002-5.524a.59.59 0 01.577.58v5.523c0 .32-.257.577-.577.577h-5.523a.581.581 0 010-1.16h4.946v-4.943c0-.32.258-.577.577-.577zm0-13.006c.32 0 .58.258.58.577v5.538a.576.576 0 11-1.154 0V3.317h-4.938a.579.579 0 110-1.157h5.512z" fill="#313235" fill-rule="nonzero"/></svg>