<svg width="24" height="24" viewBox="0 0 24 24" xmlns="http://www.w3.org/2000/svg"><path d="M20.54 19.504a.963.963 0 01-.606.246c-.74.028-1.154-.325-1.493-.613l-.09-.076c-.364-.302-.677-.566-1.4-.566-.406-.03-1.322-.09-1.417-.103-.387-.101-.9-.356-.9-1.426-.148-3.297-.199-6.958.012-7.697a2.78 2.78 0 01.212-.558c.06-.18.239-.723 1.253-.723.607 0 1 .21 1.358.762.028.031 2.703 3 3.28 6.404.4 2.333.328 3.795-.21 4.35zm-8.424-7.894a.415.415 0 00-.372 0l-1.407.709c.003-.39 0-.768-.005-1.123l.924-.465a.425.425 0 00.233-.381l-.014-6.118 1.022-.014v6.149c0 .162.09.308.233.38l.944.477c-.006.372-.006.77-.003 1.176l-1.555-.79zm-2.745 5.348c0 1.033-.513 1.288-.877 1.383-.117.02-1.036.093-1.44.11-.72 0-1.033.26-1.397.565l-.09.076c-.339.286-.74.642-1.493.614a.963.963 0 01-.605-.247c-.538-.555-.61-2.017-.218-4.345.577-3.403 3.255-6.375 3.325-6.462.316-.493.708-.703 1.316-.703.908 0 1.149.412 1.283.793.062.115.12.269.182.487.213.737.16 4.395.014 7.729zm12.21-1.944c-.619-3.659-3.375-6.712-3.448-6.782-.47-.734-1.132-1.092-2.02-1.092-1.042 0-1.77.462-2.016 1.23-.096.17-.174.375-.255.66-.07.244-.115.695-.14 1.25l-.367-.185V4.213a.832.832 0 00-.824-.838h-1.036a.832.832 0 00-.824.838v5.868l-.347.176c-.028-.565-.07-1.025-.143-1.271-.081-.283-.16-.493-.224-.591-.277-.84-1.006-1.303-2.048-1.303-.89 0-1.549.359-1.975 1.034-.117.129-2.87 3.182-3.493 6.84-.462 2.726-.324 4.297.449 5.087a1.778 1.778 0 001.294.504c.98 0 1.577-.507 1.938-.815l.084-.07c.317-.263.454-.353.874-.373.437 0 1.49-.095 1.62-.131.982-.26 1.526-1.045 1.526-2.21.03-.717.09-2.188.117-3.687l1.603-.806 1.753.885c.028 1.487.087 2.938.118 3.65 0 1.168.543 1.955 1.52 2.213.132.036 1.186.131 1.625.131h.009c.42 0 .552.11.865.373l.084.07c.362.308.958.815 1.939.815.042 0 .087 0 .129-.003a1.803 1.803 0 001.165-.499c.773-.79.91-2.36.448-5.086z" fill="#313235" fill-rule="nonzero"/></svg>