<svg width="24" height="24" viewBox="0 0 24 24" xmlns="http://www.w3.org/2000/svg"><path d="M21.022 18.28V5.72c0-.945-.213-1.625-.664-2.07-.443-.452-1.123-.673-2.076-.673h-6.274c-.936 0-1.616.221-2.067.69-.451.45-.673 1.125-.673 2.052v.485c3.093.353 4.866 2.274 4.866 5.935 0 3.653-1.773 5.575-4.857 5.928v.582c.047.757.269 1.322.664 1.717.442.443 1.123.659 2.067.659h6.274c.953 0 1.625-.213 2.076-.659.45-.453.664-1.134.664-2.087zm-12.877-.97c3.476 0 5.168-1.692 5.168-5.17 0-3.48-1.692-5.183-5.168-5.183-3.479 0-5.168 1.7-5.168 5.182s1.69 5.171 5.168 5.171zM20.941 3.067c.607.616.902 1.479.902 2.652v12.56c0 1.183-.295 2.062-.91 2.667-.609.608-1.477.897-2.65.897h-6.275c-1.174 0-2.034-.289-2.65-.897-.54-.54-.838-1.288-.894-2.274l-.008-.55c-.106.009-.205.009-.311.009-3.781 0-5.989-1.913-5.989-5.992 0-4.09 2.208-6.002 5.989-6.002.098 0 .205 0 .303.008v-.426c0-1.148.294-2.01.91-2.636.616-.624 1.485-.927 2.65-.927h6.274c1.182 0 2.05.294 2.659.91zm-5.793 13.997c.664 0 1.059.395 1.059 1.067 0 .32-.09.583-.272.773-.188.196-.46.294-.787.294-.328 0-.6-.098-.787-.294-.18-.188-.28-.45-.28-.773.002-.672.403-1.067 1.067-1.067zM6.333 9.403a.41.41 0 01.409.409v4.812a.41.41 0 01-.818 0v-4.81c0-.226.185-.411.409-.411zm3.487-.017a.41.41 0 01.41.412v4.81a.41.41 0 01-.819 0v-4.81c0-.227.182-.41.41-.412z" fill="#313235" fill-rule="nonzero"/></svg>