<svg width="24" height="24" viewBox="0 0 24 24" xmlns="http://www.w3.org/2000/svg"><path d="M21.554 18.3a.28.28 0 01.28.28.28.28 0 01-.28.28H2.436a.28.28 0 01-.28-.28.28.28 0 01.28-.28h19.118zM18.831 5.155c1.014 0 1.785.294 2.292.874.476.546.72 1.353.72 2.398v4.938c0 1.045-.241 1.852-.72 2.398-.507.583-1.278.877-2.292.877H5.176c-1.014 0-1.784-.294-2.291-.874-.48-.55-.72-1.356-.72-2.4V8.427c0-1.045.24-1.852.72-2.398.507-.58 1.277-.874 2.29-.874h13.656zm0 .56H5.176c-1.672 0-2.451.863-2.451 2.715v4.938c0 1.852.779 2.714 2.45 2.714h13.656c1.673 0 2.451-.862 2.451-2.714V8.428c0-1.852-.778-2.712-2.45-2.712zm-4.098 2.465c.14.028.415.104.869.23l.235.065a.283.283 0 01.196.344.282.282 0 01-.345.196l-.235-.064-.357-.099c.35.55.525 1.257.525 2.11 0 1.151-.322 2.04-.952 2.633-.608.571-1.49.86-2.622.86-.563 0-1.07-.073-1.504-.216a.28.28 0 01-.168-.358.281.281 0 01.344-.174 4.32 4.32 0 001.33.188c.987 0 1.738-.238 2.239-.709.515-.485.776-1.232.776-2.224 0-.868-.201-1.55-.597-2.032a7.23 7.23 0 00-.059.407 7.558 7.558 0 01-.086.563.28.28 0 01-.549-.118c.028-.134.053-.33.078-.515.025-.201.053-.409.087-.566.087-.406.386-.602.795-.52zm-2.787-.843c.563 0 1.067.073 1.504.213a.28.28 0 01-.173.532 4.32 4.32 0 00-1.33-.187c-.987 0-1.738.238-2.239.708-.515.485-.776 1.233-.776 2.225 0 .863.199 1.543.59 2.024.022-.118.041-.255.057-.391a7.25 7.25 0 01.087-.56.279.279 0 01.546.117c-.028.134-.053.328-.078.515a7.212 7.212 0 01-.087.566c-.07.34-.297.532-.613.532a.941.941 0 01-.177-.016c-.14-.028-.414-.104-.868-.23l-.236-.064a.279.279 0 11.12-.547l.029.009.235.064c.137.038.259.072.365.1-.354-.55-.53-1.26-.53-2.117 0-1.15.32-2.039.952-2.633.608-.571 1.49-.86 2.622-.86z" fill="#313235" fill-rule="nonzero"/></svg>