<svg width="24" height="24" viewBox="0 0 24 24" xmlns="http://www.w3.org/2000/svg"><path d="M11.994 2.156c3.14 0 5.574.813 7.238 2.418 1.725 1.663 2.602 4.162 2.602 7.423.003 6.434-3.4 9.837-9.84 9.837-6.434 0-9.838-3.4-9.838-9.837 0-6.437 3.4-9.84 9.838-9.84zm0 .56c-6.154 0-9.278 3.124-9.278 9.28 0 6.155 3.12 9.278 9.278 9.278 6.16 0 9.28-3.12 9.28-9.277.003-6.16-3.12-9.28-9.28-9.28zM8.949 7.554a.28.28 0 01.28.28v8.333a.28.28 0 01-.28.28.28.28 0 01-.28-.28V7.834a.28.28 0 01.28-.28zm6.045-.028a.28.28 0 01.28.28v8.333a.28.28 0 01-.28.28.28.28 0 01-.28-.28V7.806a.28.28 0 01.28-.28z" fill="#313235" fill-rule="nonzero"/></svg>