<svg width="24" height="24" viewBox="0 0 24 24" xmlns="http://www.w3.org/2000/svg"><path d="M15.45 22.826c1.74 0 2.833-.726 3.24-2.1H5.298c.148.504.383.93.723 1.256.585.558 1.438.844 2.541.844h6.887zM6.023 7.092c-.474.453-.76 1.085-.867 1.879h13.68c-.164-1.268-.786-2.101-1.855-2.481a1.494 1.494 0 01-.854.266H7.782c-.296 0-.568-.088-.8-.236-.366.141-.696.323-.958.572zm1.237-5.415V5.26a.52.52 0 00.521.517h8.346a.52.52 0 00.521-.517V1.677a.52.52 0 00-.52-.518H7.781a.52.52 0 00-.52.518zM5.11 19.39c0 .128.017.235.023.356h13.718c.007-.12.027-.228.027-.356l.01-9.439H5.11v9.439zM17.57 5.673c1.486.642 2.303 2.044 2.303 4.014l-.01 9.707c0 2.804-1.607 4.414-4.414 4.414H8.562c-1.368 0-2.454-.377-3.227-1.12-.803-.773-1.21-1.882-1.21-3.294V9.69c0-1.415.41-2.524 1.22-3.297.29-.276.639-.484 1.019-.66a1.438 1.438 0 01-.084-.467V1.683c0-.827.675-1.496 1.506-1.496h8.346c.83 0 1.506.673 1.506 1.496v3.583c-.004.138-.03.273-.068.407zm-8.783-.571a.492.492 0 01-.494-.491V2.325a.494.494 0 01.988 0v2.286c0 .272-.222.49-.494.49zm2.111 0a.492.492 0 01-.494-.491V2.325a.494.494 0 01.988 0v2.286c0 .272-.222.49-.494.49zm2.114 0a.492.492 0 01-.494-.491V2.325a.494.494 0 01.989 0v2.286a.494.494 0 01-.495.49zm2.111 0a.492.492 0 01-.494-.491V2.325a.494.494 0 01.988 0v2.286c0 .272-.221.49-.494.49zm-1.22 11.993c.804-.494 1.214-1.355 1.214-2.555 0-2.682-2.037-3.015-2.911-3.035l-.326-.003c-.86.003-2.864.306-2.864 3.018 0 1.22.406 2.088 1.21 2.575l.235.145v.53c0 .179.04.307.118.374.09.08.242.12.447.12h2.097c.141 0 .33-.02.434-.113.097-.088.118-.253.118-.38v-.531l.228-.145zm-1.674-6.571c.646.013 3.872.275 3.872 4.013 0 1.751-.739 2.713-1.445 3.23 0 .589-.239.925-.44 1.103-.27.245-.639.37-1.1.37H11.02c-.46 0-.833-.125-1.106-.374-.198-.174-.443-.51-.443-1.095-.706-.515-1.446-1.48-1.446-3.254 0-3.792 3.204-3.997 3.846-4l.36.007zm-.675 4.94a.494.494 0 01-.7 0l-.289-.285-.285.286a.494.494 0 01-.7 0 .489.489 0 010-.693l.286-.285-.286-.286a.489.489 0 010-.692.493.493 0 01.696 0l.286.285.29-.285a.493.493 0 01.695 0c.191.191.191.5 0 .692l-.29.286.29.285c.198.192.198.501.007.693zm2.746-.977l.289.285a.489.489 0 01-.35.837.494.494 0 01-.35-.144l-.288-.286-.29.286a.494.494 0 01-.7 0 .489.489 0 01.001-.693l.29-.285-.29-.286a.489.489 0 010-.692.493.493 0 01.696 0l.29.285.288-.285a.493.493 0 01.696 0c.192.191.192.5 0 .692l-.282.286zm-1.523 1.684l.148.346a.49.49 0 01-.454.679.487.487 0 01-.427-.269.494.494 0 01-.427.269.49.49 0 01-.457-.679l.148-.346a.49.49 0 01.646-.262c.033.013.06.04.087.06.03-.02.054-.044.087-.06a.498.498 0 01.65.262z" fill="#313235" fill-rule="nonzero"/></svg>