<svg width="24" height="24" viewBox="0 0 24 24" xmlns="http://www.w3.org/2000/svg"><path d="M12 2.156c6.414 0 9.843 3.395 9.843 9.843 0 6.449-3.395 9.844-9.844 9.844-6.448 0-9.843-3.395-9.843-9.844 0-6.448 3.395-9.843 9.843-9.843zm0 18.866c5.963 0 9.022-3.034 9.022-9.023 0-5.988-3.025-9.022-9.023-9.022-5.997 0-9.022 3.059-9.022 9.022 0 5.964 3.025 9.023 9.022 9.023zM12 4.24c.215 0 .392.163.408.378v3.118a.417.417 0 01-.409.409.41.41 0 01-.409-.409V4.65c0-.227.182-.409.41-.409zm-3.855 7.703a.41.41 0 01-.409.41h-3.12a.41.41 0 010-.819h3.117a.408.408 0 01.412.41zm.507 2.731a.411.411 0 01.58.028l.003.003c.16.149.165.398.016.558l-.016.016-2.157 2.149a.381.381 0 01-.311.123.41.41 0 01-.286-.694c-.003 0 2.171-2.183 2.171-2.183zm3.291 1.157a.41.41 0 01.41.41v3.075a.41.41 0 01-.819 0V16.24a.406.406 0 01.41-.409zm3.336-1.1l2.183 2.182c.16.16.162.42.002.58l-.002.002a.42.42 0 01-.286.115.402.402 0 01-.286-.115l-2.185-2.182a.41.41 0 01-.003-.58l.003-.003a.41.41 0 01.574 0zm4.037-3.11a.41.41 0 010 .818H16.24a.41.41 0 010-.818h3.076zm-4.289-2.204a.435.435 0 01-.294-.115.42.42 0 010-.583l2.19-2.182a.411.411 0 01.575.583l-2.216 2.182a.471.471 0 01-.255.115z" fill="#313235" fill-rule="nonzero"/></svg>