<svg width="24" height="24" viewBox="0 0 24 24" xmlns="http://www.w3.org/2000/svg"><path d="M22.305 19.894a.514.514 0 00.521-.504V7.958H1.172v11.435c0 .28.236.505.521.505l20.612-.004zM1.693 4.09a.514.514 0 00-.52.504v2.41h21.653v-2.41a.514.514 0 00-.52-.504H1.692zm20.612-.958c.83 0 1.506.656 1.506 1.46v14.8c0 .802-.676 1.458-1.506 1.458H1.693c-.83.003-1.506-.652-1.506-1.456v-14.8c0-.806.676-1.458 1.506-1.458 0-.004 20.612-.004 20.612-.004zM5.216 6.281a.676.676 0 01-.686-.666c0-.366.306-.665.686-.665.38 0 .686.296.686.665a.676.676 0 01-.686.666zm2.057 0a.673.673 0 01-.685-.662v-.004c0-.366.305-.665.685-.665.38 0 .686.296.686.665a.676.676 0 01-.686.666zm-4.11 0a.676.676 0 01-.686-.666c0-.366.305-.665.685-.665.38 0 .686.296.686.665a.676.676 0 01-.686.666zm10.083 7.33l.703-.692-.945-.137a.827.827 0 01-.605-.434l-.4-.82-.4.813a.81.81 0 01-.611.44l-.942.138.7.69a.8.8 0 01.221.685l-.158.938.804-.427a.816.816 0 01.753-.007l.816.434-.16-.938a.816.816 0 01.224-.682zm1.1-1.404a.622.622 0 01.5.417c.081.228.02.48-.15.652l-.888.87c-.004.004-.007.014-.007.024l.208 1.23a.62.62 0 01-.262.622.619.619 0 01-.649.037l-1.092-.582c-.003 0-.003-.003-.007-.003-.003 0-.003 0-.003.003l-1.096.582a.643.643 0 01-.296.074.595.595 0 01-.353-.111.62.62 0 01-.262-.622l.209-1.23c0-.01-.004-.02-.007-.024l-.884-.87a.625.625 0 01-.151-.652.622.622 0 01.5-.417l1.224-.178c.007 0 .01-.007.013-.01l.548-1.12a.627.627 0 011.13 0l.548 1.12c.003.003.006.01.013.01l1.213.178zm5.798 1.405l.702-.693-.944-.137a.827.827 0 01-.605-.434l-.4-.82-.397.813a.81.81 0 01-.612.44l-.94.138.698.69a.79.79 0 01.222.685l-.158.938.804-.427a.816.816 0 01.752-.007l.817.434-.158-.938a.812.812 0 01.219-.682zm1.099-1.405a.631.631 0 01.353 1.069l-.887.87c-.004.004-.007.014-.007.024l.208 1.23a.62.62 0 01-.262.622.619.619 0 01-.649.037l-1.096-.582-.006-.003c-.004 0-.004 0-.004.003l-1.092.582a.643.643 0 01-.296.074.595.595 0 01-.353-.111.62.62 0 01-.262-.622l.208-1.23c0-.01-.003-.02-.006-.024l-.884-.87a.625.625 0 01-.152-.652.622.622 0 01.501-.417l1.224-.178c.007 0 .01-.007.013-.01l.548-1.12a.627.627 0 011.13 0l.547 1.12c.004.003.007.01.014.01l1.21.178zM6.349 13.612l.702-.693-.944-.137a.827.827 0 01-.605-.434l-.4-.82-.4.813a.81.81 0 01-.612.44l-.941.138.699.69a.79.79 0 01.222.685l-.161.938.803-.427a.816.816 0 01.753-.007l.817.434-.162-.938a.83.83 0 01.229-.682zm1.099-1.405a.622.622 0 01.5.417c.082.228.021.48-.15.652l-.888.874c-.007.003-.01.013-.007.023l.209 1.23a.62.62 0 01-.262.622.619.619 0 01-.65.037l-1.091-.581c-.004 0-.004-.004-.007-.004-.004 0-.004 0-.004.004l-1.095.581a.643.643 0 01-.296.074.595.595 0 01-.353-.11.628.628 0 01-.266-.622l.209-1.23c0-.01-.004-.02-.007-.024l-.884-.87a.625.625 0 01-.151-.653.622.622 0 01.5-.417l1.224-.178c.007 0 .01-.007.014-.01l.547-1.12a.627.627 0 011.13 0l.548 1.12c.003.003.006.01.013.01-.007-.003 1.217.175 1.217.175z" fill="#313235" fill-rule="nonzero"/></svg>