<svg width="24" height="24" viewBox="0 0 24 24" xmlns="http://www.w3.org/2000/svg"><path d="M9.673 10.199c.005-.023.005-.048.005-.073v-1.9H6.247v1.897c0 .025.003.05.006.073h.902c.025 0 .084.008.109.014.216.04.364.244.33.462-.425 2.843-1.142 8.801-1.15 8.863.002 1.272.907 1.482 1.447 1.49h.166c.54-.011 1.445-.221 1.445-1.527-.003-.01-.499-4.966-1.076-8.787a.406.406 0 01.39-.512h.857zm.414-8.025a.41.41 0 01.41.409v7.54c0 .507-.284.89-.653.89H9.3c.55 3.771 1.014 8.396 1.02 8.443.003 1.74-1.207 2.365-2.244 2.384h-.19c-1.037-.017-2.25-.641-2.25-2.356.012-.103.659-5.481 1.09-8.47h-.633c-.373 0-.655-.384-.655-.89 0-7.544 0-7.553.002-7.57a.4.4 0 01.412-.383h.008c.222.008.395.19.393.412v4.826h1.255V2.583a.41.41 0 01.389-.426.41.41 0 01.426.39v4.865h1.361v-4.83a.403.403 0 01.403-.408zm6.244 18.851c.524-.011 1.4-.216 1.4-1.479-.002 0-.316-3.115-.725-6.252a.376.376 0 01-.011-.098v-.017c0-.165.098-.308.24-.375V3.042a2.969 2.969 0 00-2.551 2.938v6.807h.476c.224 0 .41.185.41.409l-.004.084c-.38 2.863-.795 6.3-.795 6.303.003 1.232.88 1.437 1.4 1.442h.16zm1.53-7.482c.389 3.031.68 5.933.683 5.964.003 1.706-1.185 2.316-2.199 2.336h-.188c-1.016-.014-2.204-.625-2.204-2.308.003-.048.378-3.16.742-5.93h-.42a.407.407 0 01-.406-.409V5.98A3.78 3.78 0 0117.645 2.2c.224 0 .406.182.406.409v10.59c0 .138-.07.27-.19.345z" fill="#313235" fill-rule="nonzero"/></svg>