<svg width="24" height="24" viewBox="0 0 24 24" xmlns="http://www.w3.org/2000/svg"><path d="M18.468 2.181c1.997 0 2.97.986 2.97 3.011v13.656c0 1.04-.236 1.784-.724 2.277-.487.493-1.22.734-2.246.734h-7.185c-1.025 0-1.762-.24-2.25-.734-.487-.493-.722-1.238-.722-2.277v-3.584l-.283.284c.038.287.033.576-.016.859l-.045.211a2.746 2.746 0 01-3.37 1.964.56.56 0 01-.252-.939l.753-.753-.092-.658-.658-.096-.754.754a.56.56 0 01-.938-.252 2.746 2.746 0 013.034-3.426l2.623-2.626V5.192c0-2.053.945-3.01 2.97-3.01h7.185zm-.003.56h-7.182c-1.711 0-2.409.71-2.409 2.451v4.834l1.644-1.643a2.825 2.825 0 01.017-.859l.045-.211a2.746 2.746 0 013.37-1.96.56.56 0 01.252.937l-.754.754.093.658.658.093.754-.754a.56.56 0 01.938.252 2.746 2.746 0 01-3.034 3.426l-3.986 3.985v4.144c0 .885.182 1.501.56 1.885.379.384.981.569 1.85.569h7.184c.869 0 1.474-.185 1.849-.569.375-.384.56-1 .56-1.885V5.192c0-1.717-.72-2.45-2.409-2.45zm-3.59 15.11c.503 0 .831.266.831.834 0 .275-.076.477-.21.614-.146.148-.359.221-.622.221s-.476-.073-.622-.221c-.134-.137-.21-.342-.21-.614.003-.568.33-.834.832-.834zM13.237 5.817a2.182 2.182 0 00-2.112 2.75l-5.255 5.256A2.186 2.186 0 003.196 16.5l.953-.953 1.353.193.193 1.35-.953.953a2.186 2.186 0 002.675-2.678l5.258-5.252a2.186 2.186 0 002.675-2.678l-.952.953-1.353-.194-.193-1.353.952-.952a2.272 2.272 0 00-.566-.073z" fill="#313235" fill-rule="nonzero"/></svg>