<svg width="24" height="24" viewBox="0 0 24 24" xmlns="http://www.w3.org/2000/svg"><path d="M8.336 3.262c.297.292.554.62.767.975 1.042 1.675.19 3.098-.708 3.994a4.72 4.72 0 01-.519.457c-.257.307-.167 1.094 1.636 3.086l4.04-4.036a.438.438 0 00.078-.19c.003-.322.034-.644.092-.96.135-.743.393-1.309.765-1.681.367-.367.924-.622 1.653-.76.325-.061.652-.095.983-.1.325 0 .583.156.689.417.106.26.034.555-.193.781l-.678.678a.293.293 0 00-.04.118l.13.896.896.13a.293.293 0 00.118-.04l.68-.675c.2-.199.4-.241.535-.241.328 0 .661.252.664.734a5.526 5.526 0 01-.092.96c-.135.743-.393 1.309-.765 1.681-.367.367-.924.622-1.653.76a6.125 6.125 0 01-.986.098.455.455 0 00-.193.078l-4.042 4.04.125.113c1.903 1.696 2.661 1.777 2.962 1.525.14-.182.294-.356.46-.518.896-.897 2.319-1.748 3.994-.71.355.214.683.472.974.768 1.577 1.58 1.58 3.216.003 4.866a6.335 6.335 0 01-.815.68l-.022.017-.014.012c-.53.358-1.21.54-2.003.54-.714 0-1.518-.148-2.384-.445-1.926-.659-4.073-2.015-6.208-3.919l-.814.815a.438.438 0 00-.079.19 5.526 5.526 0 01-.092.962c-.135.742-.392 1.308-.765 1.68-.367.367-.924.622-1.653.76a6.125 6.125 0 01-.986.097c-.324-.002-.582-.16-.689-.42-.106-.26-.033-.554.194-.781l.675-.675a.255.255 0 00.039-.118l-.129-.896-.893-.13a.293.293 0 00-.118.04l-.678.678a.748.748 0 01-.535.24c-.328 0-.661-.254-.664-.739.003-.322.034-.644.093-.96.134-.743.392-1.309.764-1.681.367-.367.925-.622 1.653-.76.325-.058.655-.092.986-.097a.455.455 0 00.193-.079l.813-.812-.25-.284c-1.768-2.035-3.03-4.069-3.664-5.904-.633-1.835-.6-3.398.096-4.403a.061.061 0 01.01-.014l.018-.023c.255-.355.484-.63.68-.818 1.65-1.577 3.286-1.574 4.866.003zm8.787 1.345c-.05 0-1.552.008-2.244.692-.633.633-.69 1.957-.694 2.203v.04a.951.951 0 01-.241.586l-7.782 7.784a.967.967 0 01-.585.241c-.056 0-1.558.006-2.247.695-.633.633-.69 1.957-.694 2.203v.04c0 .115.042.177.103.177.04 0 .087-.025.14-.076l.684-.68a.794.794 0 01.512-.2.59.59 0 01.07.006l.978.14a.49.49 0 01.39.39l.14.977a.767.767 0 01-.194.583l-.68.68c-.135.132-.087.244.1.244.05 0 1.552-.005 2.241-.694.634-.634.69-1.958.694-2.204v-.04c0-.188.107-.451.242-.585l7.784-7.782a.967.967 0 01.585-.24l.06-.002c.286-.007 1.564-.073 2.184-.694.634-.633.69-1.957.694-2.203v-.04c0-.115-.041-.177-.103-.177-.039 0-.09.023-.14.076l-.68.68a.794.794 0 01-.513.2.59.59 0 01-.07-.006l-.978-.14a.49.49 0 01-.39-.39l-.14-.977a.767.767 0 01.194-.583l.68-.68c.135-.135.088-.244-.1-.244zM11.797 14.86l-2.135 2.133.296.26c1.974 1.706 3.936 2.923 5.697 3.527 1.65.565 3.028.554 3.88-.029l.036-.025c.328-.235.574-.442.737-.61.703-.737 1.039-1.426 1.028-2.107-.011-.652-.348-1.3-1.023-1.975a4.22 4.22 0 00-.862-.68l-.009-.006c-.535-.333-1.078-.456-1.61-.367-.563.095-1.132.429-1.698.995a4.721 4.721 0 00-.428.487l-.031.034c-.41.378-1.014.355-1.801-.065-.564-.304-1.246-.816-2.077-1.572zM5.967 2.632c-.682-.014-1.37.322-2.107 1.028a5.409 5.409 0 00-.639.779c-.585.857-.594 2.24-.022 3.896.634 1.844 1.94 3.906 3.778 5.973l2.14-2.139-.182-.201c-.658-.743-1.115-1.36-1.392-1.88-.42-.784-.44-1.386-.064-1.795.01-.011.02-.022.033-.03.174-.132.336-.275.488-.43.563-.562.899-1.134.994-1.697.09-.532-.034-1.073-.367-1.61l-.005-.009a4.22 4.22 0 00-.681-.863c-.675-.675-1.322-1.01-1.975-1.022z" fill="#313235" fill-rule="nonzero"/></svg>