<svg width="24" height="24" viewBox="0 0 24 24" xmlns="http://www.w3.org/2000/svg"><path d="M11.996 22.826c7.186 0 10.83-3.64 10.83-10.823 0-7.187-3.644-10.83-10.83-10.83-7.183 0-10.824 3.643-10.824 10.83 0 7.183 3.64 10.823 10.824 10.823zm0-22.639c7.462 0 11.815 3.769 11.815 11.816S19.458 23.81 11.996 23.81.187 20.05.187 12.003 4.535.187 11.996.187zm.497 11.933l3.49 3.493a.49.49 0 01-.014.696.49.49 0 01-.682 0l-3.637-3.634a.505.505 0 01-.145-.35v-4.92a.491.491 0 01.982 0l.006 4.715z" fill="#313235" fill-rule="nonzero"/></svg>