<svg width="24" height="25" viewBox="0 0 24 25" xmlns="http://www.w3.org/2000/svg"><path d="M14.65 3.157h1.408a.29.29 0 01.2.082L21.718 8.7a.277.277 0 01.082.199v13.028c0 .54-.311.851-.85.851h-11.4c-.563 0-.874-.313-.874-.88v-4.772c0-.026.004-.051.01-.075A5.5 5.5 0 016.63 15.88l-3.991 4.123a.28.28 0 11-.4-.39l3.995-4.128a5.522 5.522 0 012.445-8.976V4.026c0-.55.319-.866.87-.869h5.103zm1.127.56H9.548c-.24 0-.31.07-.31.309v2.34a5.52 5.52 0 016.61 5.414 5.53 5.53 0 01-1.616 3.904 5.502 5.502 0 01-3.905 1.616c-.373 0-.737-.037-1.09-.107V21.9c0 .257.062.32.317.32h11.398c.224 0 .288-.068.291-.292V9.179h-2.454c-.88 0-1.633-.288-2.179-.831-.546-.543-.832-1.297-.832-2.18v-2.45zm-5.45 3.102a4.961 4.961 0 103.507 1.45 4.928 4.928 0 00-3.507-1.45zm6.011-2.704V6.17c0 1.487.961 2.45 2.451 2.45h2.056l-4.507-4.504z" fill="#313235" fill-rule="nonzero"/></svg>