<svg width="24" height="24" fill="none" xmlns="http://www.w3.org/2000/svg"><path fill-rule="evenodd" clip-rule="evenodd" d="M11.998 2C6.488 2 2 6.488 2 12s4.487 10 9.998 10a9.97 9.97 0 0 0 5.33-1.544.353.353 0 0 0 .113-.496.36.36 0 0 0-.496-.112 9.257 9.257 0 0 1-4.951 1.432c-5.119 0-9.282-4.164-9.282-9.284 0-5.12 4.167-9.288 9.286-9.288s9.282 4.164 9.282 9.284a9.261 9.261 0 0 1-1.432 4.952.36.36 0 0 0 .608.384A9.965 9.965 0 0 0 22 11.996C21.996 6.488 17.513 2 11.998 2Zm.003 3.583a.355.355 0 0 0-.357.356l-.002 5.705H5.941a.355.355 0 0 0-.357.356c0 .197.159.356.357.356h5.701v5.702a.355.355 0 0 0 .609.252.354.354 0 0 0 .104-.252v-5.701h5.701a.354.354 0 0 0 .356-.356.355.355 0 0 0-.356-.356l-5.698-.004V5.94A.362.362 0 0 0 12 5.583Zm6.788 13.921a.716.716 0 1 0 0-1.432.716.716 0 0 0 0 1.432Z" fill="#003"/></svg>