<svg width="24" height="24" fill="none" xmlns="http://www.w3.org/2000/svg"><path fill-rule="evenodd" clip-rule="evenodd" d="M20.072 15.347a.354.354 0 0 0 .108-.256.359.359 0 0 0-.104-.26L13.428 8.18l3.076-3.076c.528-.528.68-1.288.392-1.98A1.795 1.795 0 0 0 15.216 2H2v13.211c0 .748.432 1.392 1.124 1.68a1.788 1.788 0 0 0 1.98-.392l3.076-3.076 8.472 8.472a.37.37 0 0 0 .516 0 .362.362 0 0 0 0-.516l-8.984-8.984-3.592 3.592c-.38.38-.864.372-1.188.236a1.077 1.077 0 0 1-.676-1.008V2.724h12.48c.536 0 .872.352 1.008.676.136.324.144.808-.236 1.188L12.388 8.18l7.168 7.167a.37.37 0 0 0 .516 0Zm1.928 1.2a.728.728 0 1 0-1.456 0 .728.728 0 0 0 1.456 0Z" fill="#003"/></svg>