<svg width="24" height="24" fill="none" xmlns="http://www.w3.org/2000/svg"><path fill-rule="evenodd" clip-rule="evenodd" d="M20.82 17.924H4.059a11.642 11.642 0 0 0 1.854-6.296V9.036c0-3.48 2.764-6.296 6.18-6.296s6.18 2.816 6.18 6.296v2.592c0 .816.11 1.628.256 2.48a.38.38 0 0 0 .435.296c.181-.036.326-.26.29-.444A10.734 10.734 0 0 1 19 11.628V9.036C19.003 5.148 15.912 2 12.092 2S5.185 5.148 5.185 9.036v2.592c0 2.296-.762 4.592-2.108 6.444-.075.112-.11.26-.036.372.075.112.18.224.326.224h6.29c-.074.26-.11.48-.11.74 0 1.444 1.127 2.592 2.545 2.592 1.417 0 2.544-1.148 2.544-2.592 0-.26-.035-.48-.11-.74h6.29c.22 0 .366-.148.366-.372s-.145-.372-.361-.372Zm-6.91 1.484c0 1.036-.801 1.852-1.818 1.852s-1.818-.816-1.818-1.852c0-.26.075-.52.145-.74h3.31c.11.22.18.48.18.74Zm5.819-2.592a.733.733 0 0 0 .726-.74.733.733 0 0 0-.726-.74.733.733 0 0 0-.726.74c0 .409.325.74.726.74Z" fill="#003"/></svg>