<svg width="24" height="24" fill="none" xmlns="http://www.w3.org/2000/svg"><path fill-rule="evenodd" clip-rule="evenodd" d="M14.33 21.982A3.246 3.246 0 0 0 16.682 23c.852 0 1.703-.341 2.351-1.018 1.297-1.355 1.297-3.56 0-4.914L8.113 5.658a1.793 1.793 0 0 0-2.612 0 1.995 1.995 0 0 0 0 2.729l9.88 10.312a.356.356 0 0 0 .52 0 .391.391 0 0 0 0-.544L6.027 7.838a1.198 1.198 0 0 1 0-1.636 1.094 1.094 0 0 1 1.566 0l10.915 11.415c1.008 1.052 1.008 2.768 0 3.82a2.512 2.512 0 0 1-3.657 0L3.93 10.029a4.31 4.31 0 0 1-1.193-3.005c0-1.137.426-2.205 1.192-3.006A3.947 3.947 0 0 1 6.807 2.77c1.088 0 2.11.445 2.877 1.246l9.837 10.277a.356.356 0 0 0 .52 0 .391.391 0 0 0 0-.543L10.204 3.473C9.296 2.524 8.09 2 6.807 2c-1.282 0-2.489.524-3.397 1.473A5.104 5.104 0 0 0 2 7.023c0 1.34.502 2.6 1.41 3.549l10.92 11.41Zm6.932-5.65c.407 0 .738-.347.738-.772 0-.425-.331-.771-.738-.771s-.738.346-.738.771c0 .425.331.771.738.771Z" fill="#003"/></svg>