<svg width="24" height="24" fill="none" xmlns="http://www.w3.org/2000/svg"><path fill-rule="evenodd" clip-rule="evenodd" d="M15.514 5.214v.7l-.002.004c-.001 0-.003.002-.003.004V18.786c0 1.774-1.4 3.214-3.127 3.214H6.127C4.401 22 3 20.56 3 18.786V5.214C3 3.44 4.401 2 6.127 2h6.26c1.726 0 3.127 1.44 3.127 3.214Zm-3.132-2.5H6.127c-1.339 0-2.433 1.12-2.433 2.5v.352h11.122v-.352c0-1.38-1.09-2.5-2.434-2.5Zm0 18.568H6.127c-1.343 0-2.433-1.12-2.433-2.5v-.357h7.3c.191 0 .347-.16.347-.356a.352.352 0 0 0-.347-.357h-7.3V6.279h11.122v12.503c0 1.38-1.09 2.5-2.434 2.5Zm.699-2.5c.382 0 .694-.32.694-.713a.705.705 0 0 0-.694-.714.705.705 0 0 0-.694.714c0 .393.311.713.694.713Zm5.596-2.35a.35.35 0 0 1-.494.014.362.362 0 0 1-.013-.503 5.727 5.727 0 0 0-.098-7.881.357.357 0 0 1 0-.503.339.339 0 0 1 .49 0 6.441 6.441 0 0 1 .115 8.873Zm-1.633-1.682a4.057 4.057 0 0 0-.11-5.518.353.353 0 1 0-.5.503 3.335 3.335 0 0 1 .094 4.53.362.362 0 0 0 .023.503.34.34 0 0 0 .235.096.333.333 0 0 0 .258-.114Z" fill="#313235"/></svg>