<svg width="24" height="24" fill="none" xmlns="http://www.w3.org/2000/svg"><path fill-rule="evenodd" clip-rule="evenodd" d="M12 17.927c1.773 0 3.213-1.494 3.213-3.333v-.74c0-.204-.16-.37-.356-.37a.364.364 0 0 0-.357.37v.74c0 1.432-1.12 2.593-2.5 2.593s-2.5-1.161-2.5-2.593v-9.26C9.5 3.9 10.62 2.74 12 2.74s2.5 1.161 2.5 2.593v4.073c0 .204.16.37.357.37a.364.364 0 0 0 .356-.37V5.333C15.213 3.493 13.773 2 12 2c-1.773 0-3.213 1.494-3.213 3.333v9.26c0 1.84 1.44 3.334 3.213 3.334Zm4.643 3.703c0 .204-.16.37-.356.37H7.713a.364.364 0 0 1-.357-.37c0-.204.16-.37.357-.37h3.926v-1.48l.002-.009a.037.037 0 0 0 .002-.009C9.053 19.572 7 17.329 7 14.594c0-.204.16-.37.356-.37.197 0 .357.166.357.37 0 2.451 1.924 4.447 4.287 4.447s4.287-1.996 4.287-4.447c0-.204.16-.37.357-.37.196 0 .356.166.356.37 0 2.736-2.052 4.978-4.643 5.168 0 .002 0 .006.002.01l.002.009v1.48h3.926c.197 0 .357.165.357.37Zm-1.787-9.26a.728.728 0 0 1-.713-.74c0-.408.32-.74.713-.74.393 0 .713.332.713.74s-.32.74-.713.74Z" fill="#003"/></svg>