<svg width="24" height="24" fill="none" xmlns="http://www.w3.org/2000/svg"><path fill-rule="evenodd" clip-rule="evenodd" d="m19.252 12.492 2.643-2.876a.374.374 0 0 0-.201-.62l-3.828-.773.45-3.885a.373.373 0 0 0-.153-.346.372.372 0 0 0-.378-.039l-3.55 1.628-1.914-3.405c-.134-.235-.518-.235-.652 0L9.755 5.581l-3.55-1.628a.378.378 0 0 0-.528.384l.452 3.886-3.827.773a.384.384 0 0 0-.283.25.374.374 0 0 0 .081.37l2.648 2.876-2.643 2.877a.374.374 0 0 0 .201.62l3.828.773-.45 3.885a.373.373 0 0 0 .153.346c.11.081.254.096.374.038l3.55-1.628 1.913 3.405a.373.373 0 0 0 .652 0l1.914-3.405 3.55 1.628a.378.378 0 0 0 .532-.384l-.211-1.825a.377.377 0 0 0-.748.086l.134 1.162-3.257-1.493a.374.374 0 0 0-.485.158L12 21.857l-1.755-3.126a.379.379 0 0 0-.485-.159l-3.257 1.494.413-3.564a.376.376 0 0 0-.298-.413l-3.51-.706 2.426-2.641a.372.372 0 0 0 0-.51l-2.427-2.64 3.511-.706a.373.373 0 0 0 .298-.413l-.413-3.564L9.76 6.403a.374.374 0 0 0 .485-.159L12 3.127l1.76 3.127c.096.168.307.24.485.158l3.257-1.493-.413 3.563a.376.376 0 0 0 .297.413l3.511.706-2.427 2.641a.372.372 0 0 0 0 .51l2.427 2.64-1.19.241a.376.376 0 0 0 .15.735l1.841-.37a.384.384 0 0 0 .283-.25.374.374 0 0 0-.081-.37l-2.648-2.886Zm-1.63 3.376a.75.75 0 0 1 0 1.499.75.75 0 0 1 0-1.499Zm-8.337.188c0-.207.168-.375.374-.375a.744.744 0 0 0 .749-.75v-1.877h-.374a.375.375 0 0 1 0-.75h.374v-1.69c0-1.138.925-2.065 2.062-2.065.47 0 .93.164 1.295.461.163.13.187.365.058.529a.374.374 0 0 1-.528.057 1.312 1.312 0 0 0-2.134 1.018v1.69h1.875a.375.375 0 0 1 0 .75h-1.875v1.878c0 .274-.072.528-.202.749h3.386a.375.375 0 0 1 0 .75H9.66a.375.375 0 0 1-.374-.375Z" fill="#003"/></svg>