<svg width="24" height="24" fill="none" xmlns="http://www.w3.org/2000/svg"><path fill-rule="evenodd" clip-rule="evenodd" d="m14.804 14.296 7.091 7.096c.14.136.14.364-.003.504a.357.357 0 0 1-.505 0l-6.851-6.852A7.434 7.434 0 0 1 9.5 17C5.364 17 2 13.636 2 9.5S5.364 2 9.5 2s7.5 3.364 7.496 7.5c0 .392-.036.788-.108 1.22a.355.355 0 0 1-.412.292.355.355 0 0 1-.292-.412c.068-.388.1-.748.1-1.1A6.792 6.792 0 0 0 9.5 2.716 6.793 6.793 0 0 0 2.716 9.5 6.793 6.793 0 0 0 9.5 16.284a6.734 6.734 0 0 0 4.792-1.996c.14-.14.364-.14.504 0l.004.004.004.004Zm1.124-.864a.716.716 0 1 0 0-1.432.716.716 0 0 0 0 1.432Z" fill="#003"/></svg>