<svg width="24" height="24" fill="none" xmlns="http://www.w3.org/2000/svg"><path fill-rule="evenodd" clip-rule="evenodd" d="M20.881 18.582a.354.354 0 0 0 .146-.473c-1.11-2.166-3.489-3.72-6.363-4.274 2.176-.932 3.706-3.125 3.706-5.679C18.37 4.761 15.66 2 12.325 2 8.991 2 6.281 4.76 6.281 8.156c0 2.554 1.53 4.747 3.71 5.679C5.976 14.619 3 17.375 3 20.649c0 .193.155.351.345.351.19 0 .345-.158.345-.351 0-3.49 3.873-6.332 8.635-6.332 3.578 0 6.827 1.657 8.088 4.12a.347.347 0 0 0 .468.145ZM6.971 8.156c0-3.008 2.4-5.453 5.354-5.453s5.355 2.445 5.355 5.453c0 3.008-2.401 5.454-5.355 5.454-2.953 0-5.354-2.445-5.354-5.454Zm14.34 12.84c.38 0 .689-.316.689-.703a.697.697 0 0 0-.69-.703c-.38 0-.69.316-.69.703 0 .387.31.703.69.703Z" fill="#003"/></svg>