<svg width="24" height="24" viewBox="0 0 24 24" fill="none" xmlns="http://www.w3.org/2000/svg">
<path fill-rule="evenodd" clip-rule="evenodd" d="M7.11769 2H17.7016C18.8666 2 19.8193 2.96457 19.8148 4.144V22H5V4.144C5 2.96 5.95273 2 7.11769 2ZM8.53098 17.8949H16.2883C16.5818 17.8949 16.8211 17.6571 16.8211 17.36C16.8211 17.0629 16.5863 16.8251 16.2928 16.8251H8.53098C8.23749 16.8251 8.00269 17.0629 8.00269 17.36C8.00269 17.6571 8.23749 17.8949 8.53098 17.8949ZM16.2883 14.3246H8.53098C8.23749 14.3246 8.00269 14.0869 8.00269 13.7897C8.00269 13.4926 8.23749 13.2549 8.53098 13.2549H16.2928C16.5863 13.2549 16.8211 13.4926 16.8211 13.7897C16.8211 14.0869 16.5818 14.3246 16.2883 14.3246ZM13.2901 10.3931H16.2883C16.5818 10.3931 16.8166 10.1509 16.8166 9.85371C16.8166 9.55657 16.5818 9.31886 16.2883 9.31886H14.5138C14.5228 9.25943 14.5273 9.2 14.5273 9.14057V8.24914H15.4078C15.7013 8.24914 15.9361 8.01143 15.9361 7.71429C15.9361 7.41714 15.7013 7.17943 15.4078 7.17943H14.5273V6.288C14.5273 5.99543 14.7621 5.75314 15.0556 5.75314C15.2001 5.75314 15.3401 5.81257 15.4394 5.92229C15.6426 6.13714 15.9768 6.14629 16.189 5.94514C16.4012 5.73943 16.4102 5.40114 16.2116 5.18629C15.9135 4.86171 15.4936 4.67886 15.0556 4.67886C14.1797 4.67886 13.4662 5.40114 13.4662 6.288V7.184C13.1727 7.184 12.9379 7.42171 12.9379 7.71886C12.9379 8.016 13.1727 8.25371 13.4662 8.25371V9.14514C13.4662 9.24571 13.3895 9.32343 13.2901 9.32343C12.9966 9.32343 12.7618 9.56114 12.7618 9.85829C12.7618 10.1554 12.9966 10.3931 13.2901 10.3931Z" fill="#313235"/>
</svg>
