<svg width="24" height="24" viewBox="0 0 24 24" fill="none" xmlns="http://www.w3.org/2000/svg">
<path fill-rule="evenodd" clip-rule="evenodd" d="M10.2132 7.61744L17.0473 3.72583L14.1118 2.05399C14.0112 1.982 13.872 1.982 13.7675 2.05399L7.21187 5.80162C7.24668 5.80162 10.2132 7.61744 10.2132 7.61744ZM20.6674 5.80162L18.1148 4.33777L11.2149 8.26137L13.9416 9.9772L20.6674 5.80162ZM14.456 18.8563V10.8651L21.1818 6.68953V14.4688C21.1818 14.6127 21.1122 14.7167 21.0116 14.7887L14.456 18.8563ZM7.03783 9.61724C9.62528 9.61724 11.7641 11.793 11.7641 14.5047C11.7641 15.3607 11.3851 16.3246 10.832 17.3245L13.4194 18.8963V10.8651L6.6936 6.68953V9.65323C6.74631 9.65323 6.80788 9.64406 6.86888 9.63498C6.92873 9.62607 6.98802 9.61724 7.03783 9.61724ZM7.03783 10.3332C4.8294 10.3332 3 12.189 3 14.5087C3 16.7205 6.58918 21.648 6.76322 21.856C6.83284 21.928 6.9334 22 7.03783 22C7.13838 22 7.24668 21.928 7.31243 21.856C7.31243 21.856 8.07049 20.7521 8.86336 19.3243C8.9279 19.2093 8.99161 19.1012 9.05526 18.9933L9.05531 18.9932C9.12895 18.8683 9.20252 18.7435 9.27719 18.6083L9.2977 18.5733C10.1876 17.0542 11.037 15.6042 11.037 14.5047C11.0757 12.225 9.24625 10.3332 7.03783 10.3332ZM7.03783 15.5766C6.31458 15.5766 5.72669 14.9727 5.72669 14.2208C5.72669 13.4729 6.31071 12.8649 7.03783 12.8649C7.76494 12.8649 8.34896 13.4689 8.34896 14.2208C8.34896 14.9727 7.76108 15.5766 7.03783 15.5766Z" fill="#313235"/>
</svg>
