<svg width="24" height="24" viewBox="0 0 24 24" fill="none" xmlns="http://www.w3.org/2000/svg">
<path fill-rule="evenodd" clip-rule="evenodd" d="M8.78702 6.28343V2.71314C8.78702 2.32 8.46709 2 8.07404 2C7.68099 2 7.36106 2.32 7.36106 2.71314V6.28343C7.36106 6.67657 7.68099 6.99657 8.07404 6.99657C8.46709 6.99657 8.78702 6.67657 8.78702 6.28343ZM19.8565 4.13943C21.0402 4.13943 22 5.09943 22 6.28343V9.49714H2V6.28343C2 5.09943 2.95978 4.13943 4.14351 4.13943H6.28702V6.28343C6.28702 7.27086 7.08684 8.07086 8.07404 8.07086C9.06124 8.07086 9.86106 7.27086 9.86106 6.28343V4.13943H14.1481V6.28343C14.1481 7.27086 14.9479 8.07086 15.9351 8.07086C16.9223 8.07086 17.7221 7.27086 17.7221 6.28343V4.13943H19.8565ZM16.6435 2.71314V6.28343C16.6435 6.67657 16.3236 6.99657 15.9305 6.99657C15.5375 6.99657 15.2176 6.67657 15.2176 6.28343V2.71314C15.2176 2.32 15.5375 2 15.9305 2C16.3236 2 16.6435 2.32 16.6435 2.71314ZM22 10.5714V22H2V10.5714H22ZM14.2303 18.9646C14.5274 18.9646 14.7651 19.2023 14.7651 19.4994C14.7651 19.792 14.5274 20.0343 14.2349 20.0297H9.76965C9.47258 20.0297 9.23492 19.792 9.23492 19.4949C9.23492 19.1977 9.47258 18.96 9.76965 18.96C10.0713 18.96 10.3044 18.7269 10.3044 18.4251V16.816H10.1261C9.82907 16.816 9.59141 16.5783 9.59141 16.2811C9.59141 15.984 9.82907 15.7463 10.1261 15.7463H10.2998V14.3246C10.2998 13.1406 11.2642 12.1806 12.4433 12.1806C12.9324 12.1806 13.4122 12.3497 13.7916 12.656C14.0201 12.8434 14.0567 13.1817 13.8693 13.4103C13.6819 13.6389 13.3437 13.6754 13.1152 13.488C12.9232 13.3326 12.6901 13.2503 12.4433 13.2503C11.8537 13.2503 11.3739 13.7303 11.3739 14.32V15.7463H12.9826C13.2797 15.7463 13.5174 15.9886 13.5174 16.2857C13.5174 16.5829 13.2797 16.8206 12.9826 16.8206H11.3739V18.4297C11.3739 18.6171 11.3419 18.7954 11.2824 18.9646H14.2303Z" fill="#313235"/>
</svg>
