<svg width="24" height="24" viewBox="0 0 24 24" fill="none" xmlns="http://www.w3.org/2000/svg">
<path fill-rule="evenodd" clip-rule="evenodd" d="M15.6921 4.14351H16.9902L16.847 3.86015L16.8101 3.78702C16.1957 2.68099 15.0038 2 13.7427 2H7.50163C5.76929 2 4.36033 3.24771 4.07391 4.85649H15.0084C14.9715 4.46801 15.2948 4.14351 15.6921 4.14351ZM7.50163 22H13.8535C15.5859 22 16.9948 20.7523 17.2812 19.1435H4.06929C4.36033 20.7477 5.76929 22 7.50163 22ZM14.9715 14.5C14.9715 14.8931 15.2948 15.213 15.6921 15.213V15.2313H17.3552V18.1929H4V6.05393H12.3014L11.941 6.41042C11.7609 6.58867 11.7239 6.76691 11.7239 6.90859C11.7239 7.05027 11.7609 7.22852 11.941 7.40676L12.1212 7.58501C12.0149 7.79982 11.9087 8.04662 11.8348 8.29799H11.5807C11.1834 8.29799 10.8601 8.61792 10.8601 9.01097V10.4735C10.8601 10.8665 11.1834 11.1865 11.5807 11.1865H11.7978C11.8406 11.273 11.8781 11.3646 11.9171 11.4597L11.9171 11.4597C11.9748 11.6007 12.0356 11.7493 12.1212 11.8995L11.941 12.0777C11.7609 12.2559 11.7239 12.4342 11.7239 12.5759C11.7239 12.7176 11.7609 12.8958 11.941 13.074L13.022 14.1435C13.313 14.4269 13.7842 14.4269 14.0707 14.1435L14.2508 13.9653C14.4679 14.0704 14.7174 14.1755 14.9715 14.2486V14.5ZM20.7829 8.85558H20.1685C20.0946 8.42596 19.9144 8.03291 19.6649 7.63985L20.0992 7.21024C20.1731 7.13711 20.1731 7.03199 20.0992 6.99543L19.1614 6.06764C19.1245 6.03108 19.0875 6.03108 19.0552 6.03108C19.0182 6.03108 18.9812 6.03108 18.9489 6.06764L18.5147 6.49726C18.1543 6.28245 17.7201 6.1042 17.2859 5.99909V5.39122C17.2859 5.28611 17.212 5.21298 17.1057 5.21298H15.7707C15.6644 5.21298 15.5905 5.28611 15.5905 5.39122V5.99909C15.1562 6.07221 14.759 6.25046 14.3617 6.49726L13.9274 6.06764C13.8905 6.03108 13.8535 6.03108 13.8212 6.03108C13.7842 6.03108 13.7473 6.03108 13.7149 6.06764L12.8141 6.99543C12.7772 7.03199 12.7772 7.06856 12.7772 7.10055C12.7772 7.13711 12.7772 7.17367 12.8141 7.20567L13.2484 7.63528C13.0312 7.99177 12.8511 8.42139 12.7448 8.85101H12.1304C12.0242 8.85101 11.9503 8.92413 11.9503 9.02925V10.3501C11.9503 10.4552 12.0242 10.5283 12.1304 10.5283H12.7448C12.8187 10.958 12.9989 11.351 13.2484 11.7441L12.8141 12.1737C12.7772 12.2102 12.7772 12.2468 12.7772 12.2788C12.7772 12.3154 12.7772 12.3519 12.8141 12.3839L13.7519 13.3117C13.7889 13.3483 13.8258 13.3483 13.8582 13.3483C13.8951 13.3483 13.9321 13.3483 13.9644 13.3117L14.3986 12.8821C14.759 13.0969 15.1932 13.2751 15.6274 13.3803V13.9881C15.6274 14.0932 15.7014 14.1664 15.8076 14.1664H17.1427C17.2489 14.1664 17.3228 14.0932 17.3228 13.9881V13.3803C17.7571 13.3071 18.1543 13.1289 18.5516 12.8821L18.9859 13.3117C19.0228 13.3483 19.0598 13.3483 19.0921 13.3483C19.1291 13.3483 19.166 13.3483 19.1984 13.3117L20.1361 12.3839C20.2101 12.3108 20.2101 12.2057 20.1361 12.1691L19.7019 11.7395C19.919 11.383 20.0992 10.9534 20.2054 10.5238H20.8198C20.9261 10.5238 21 10.4506 21 10.3455V9.02468C20.963 8.9287 20.8891 8.85558 20.7829 8.85558ZM16.4497 12C17.3875 12 18.256 11.4333 18.6163 10.574C18.9766 9.71481 18.7965 8.71389 18.1082 8.03291C17.4198 7.39305 16.4082 7.17825 15.5443 7.53474C14.6804 7.89122 14.103 8.75046 14.103 9.67825C14.103 10.9625 15.1516 12 16.4497 12Z" fill="#000033"/>
</svg>
