<svg width="24" height="24" viewBox="0 0 24 24" fill="none" xmlns="http://www.w3.org/2000/svg">
<path fill-rule="evenodd" clip-rule="evenodd" d="M21.3741 5.00982L12 11.0351L2.62589 5.00982C2.66382 5.00491 2.70175 5 2.73969 5H21.2603C21.2991 5 21.33 5.00405 21.3638 5.00847C21.3672 5.00892 21.3706 5.00937 21.3741 5.00982ZM12 12.2873C12.1043 12.2873 12.2039 12.2578 12.294 12.1989L22 5.96247V18.234C22 18.6563 21.6681 19 21.2603 19H2.73969C2.33191 19 2 18.6563 2 18.234V5.96247L11.706 12.1989C11.7961 12.2578 11.8957 12.2873 12 12.2873Z" fill="#000033"/>
</svg>
