<svg width="24" height="24" viewBox="0 0 24 24" fill="none" xmlns="http://www.w3.org/2000/svg">
<path fill-rule="evenodd" clip-rule="evenodd" d="M12 2C6.5 2 2 6.5 2 12C2 17.5 6.5 22 12 22C17.5 22 22 17.5 22 12C22 6.5 17.5 2 12 2ZM12.536 16.644C12.536 16.928 12.284 17.18 12 17.18C11.716 17.18 11.464 16.928 11.464 16.644V9.856C11.464 9.572 11.716 9.32 12 9.32C12.284 9.32 12.536 9.572 12.536 9.856V16.644ZM11.284 7.176C11.284 7.572 11.608 7.892 12 7.892C12.392 7.892 12.716 7.572 12.716 7.176C12.716 6.78 12.392 6.46 12 6.46C11.604 6.46 11.284 6.784 11.284 7.176Z" fill="#000033"/>
</svg>
