<svg width="24" height="24" viewBox="0 0 24 24" fill="none" xmlns="http://www.w3.org/2000/svg">
<path fill-rule="evenodd" clip-rule="evenodd" d="M19.7767 2H14.5907C13.3676 2 12.3674 3.01257 12.3674 4.25069H21.9953C22 3.01257 20.9998 2 19.7767 2ZM4.18535 4.625H11.2581V6.87569H2V6.83729C2 5.59918 2.96231 4.625 4.18535 4.625ZM14.5907 18.1243H16.8139V19.6216H2V7.99863H11.2581V14.7507C11.2581 16.6271 12.7371 18.1243 14.5907 18.1243ZM2 20.7877C2 21.9874 2.96231 23 4.18535 23H14.6665C15.8516 23 16.8139 22.0258 16.8139 20.7877V20.7493L2 20.7877ZM16.8139 17.0014H14.5907C13.3676 17.0014 12.3674 15.9888 12.3674 14.7507H22C22 15.9888 20.9998 17.0014 19.7767 17.0014H16.8139ZM21.9953 5.37843H12.3674V13.6277H21.9953V5.37843Z" fill="#000033"/>
</svg>
