<svg width="24" height="24" viewBox="0 0 24 24" fill="none" xmlns="http://www.w3.org/2000/svg">
<path fill-rule="evenodd" clip-rule="evenodd" d="M17.3926 13.2515C17.2123 13.2515 16.996 13.2515 16.8197 13.2893L15.2452 10.405C16.1426 9.5066 16.6755 8.26809 16.6755 6.87845C16.6755 4.17473 14.6002 2 12.024 2C9.44792 2 7.36859 4.17473 7.36859 6.87425C7.36859 8.26389 7.94151 9.4982 8.79888 10.4008L7.1883 13.2893C7.04407 13.2515 6.83173 13.2515 6.65144 13.2515C4.07532 13.2515 2 15.4262 2 18.1257C2 20.8253 4.07131 23 6.64744 23C8.97516 23 10.9062 21.1989 11.2268 18.8731H12.7692C13.1258 21.1989 15.0248 23 17.3486 23C19.9247 23 22 20.8253 22 18.1257C22 15.4262 19.9688 13.2515 17.3926 13.2515ZM12.024 3.4988C13.8149 3.4988 15.2452 4.9976 15.2452 6.87425C15.2452 7.62575 14.9928 8.33946 14.6002 8.89784C14.4199 8.44862 14.0633 8.03299 13.5625 7.77269C13.847 7.43263 13.9912 6.98341 13.9912 6.4964C13.9912 5.37125 13.0938 4.43083 12.02 4.43083C10.9463 4.43083 10.0489 5.37125 10.0489 6.4964C10.0489 6.98341 10.2292 7.43683 10.4776 7.81048C9.97676 8.07497 9.62019 8.44862 9.4399 8.93563C9.04327 8.33527 8.79487 7.62155 8.79487 6.87005C8.79888 5.0018 10.2292 3.4988 12.024 3.4988ZM12.02 11.7527C11.3069 11.7527 10.5897 11.5638 9.98077 11.2657L8.65465 13.7427C10.0128 14.4186 11.0144 15.7705 11.2668 17.3826H12.8053C13.0537 15.7663 14.0593 14.4186 15.4175 13.7427L14.0593 11.2657C13.4503 11.5638 12.7332 11.7527 12.02 11.7527ZM9.22756 20.1535C9.04728 19.7043 8.69071 19.2887 8.1899 19.0284C8.47436 18.6883 8.61859 18.2391 8.61859 17.7521C8.61859 16.6269 7.72115 15.6865 6.64744 15.6865C5.57372 15.6865 4.68029 16.6269 4.68029 17.7521C4.68029 18.2391 4.86058 18.6925 5.10897 19.0662C4.60817 19.3307 4.2516 19.7043 4.07131 20.1913C3.67468 19.591 3.42628 18.8772 3.42628 18.1299C3.42628 16.2533 4.85657 14.7545 6.64744 14.7545C8.4383 14.7545 9.86859 16.2533 9.86859 18.1299C9.8726 18.8772 9.6242 19.591 9.22756 20.1535ZM18.9311 19.0284C19.4319 19.2887 19.7885 19.7043 19.9688 20.1535C20.3614 19.591 20.6098 18.8772 20.6058 18.1257C20.6058 16.2491 19.1755 14.7503 17.3846 14.7503C15.5938 14.7503 14.1635 16.2491 14.1635 18.1257C14.1635 18.8772 14.4119 19.591 14.8085 20.1913C14.9888 19.7043 15.3454 19.3307 15.8462 19.0662C15.5978 18.6925 15.4175 18.2391 15.4175 17.7521C15.4175 16.6269 16.3149 15.6865 17.3886 15.6865C18.4623 15.6865 19.3598 16.6269 19.3598 17.7521C19.3598 18.2391 19.2155 18.6883 18.9311 19.0284Z" fill="#000033"/>
</svg>
