<svg width="24" height="24" viewBox="0 0 24 24" fill="none" xmlns="http://www.w3.org/2000/svg">
<path fill-rule="evenodd" clip-rule="evenodd" d="M18.3333 5.39268C18.2311 3.5003 16.6858 2 14.826 2H8.51126C6.65143 2 5.10616 3.5003 5.00393 5.39268H18.3333ZM12.1916 21.996H14.826C16.6858 21.996 18.2311 20.4957 18.3333 18.6033H12.1916V21.996ZM5 17.5351V6.46489H18.3333V17.5351H12.1916V9.35747L14.0789 11.2859C14.189 11.3939 14.3266 11.4299 14.4682 11.4299C14.6098 11.4299 14.7513 11.3939 14.8575 11.2859C15.0698 11.0698 15.0698 10.7498 14.8575 10.5337L11.6647 7.35307L8.50732 10.5337C8.295 10.7498 8.295 11.0698 8.50732 11.2859C8.71965 11.5019 9.03421 11.5019 9.24653 11.2859L11.1417 9.35747V22H8.50732C6.61211 22 5.10616 20.4997 5 18.6073H9.56109C9.84026 18.6073 10.088 18.3553 10.088 18.0712C10.088 17.7872 9.84026 17.5351 9.56109 17.5351H5Z" fill="#313235"/>
</svg>
