<svg width="24" height="24" viewBox="0 0 24 24" fill="none" xmlns="http://www.w3.org/2000/svg">
<path fill-rule="evenodd" clip-rule="evenodd" d="M6.74554 17.713C7.86161 18.8556 9.36161 19.5 10.933 19.5C12.5 19.5 14 18.8556 15.1116 17.7495L15.1473 17.713C16.2634 16.5704 16.8571 15.0713 16.8571 13.4625C16.8571 11.4607 15.4643 9.13894 14.3482 7.28336L11.5223 2.35649C11.4152 2.14168 11.1741 2 10.9286 2C10.683 2 10.4732 2.14168 10.3348 2.35649C10.3348 2.35649 7.75446 6.89031 7.50893 7.28336C6.39286 9.10695 5 11.4241 5 13.426C5 15.0713 5.62946 16.5704 6.74554 17.713ZM18.0848 17.713H19.4777C19.7545 17.713 20 17.4616 20 17.1782C20 16.8949 19.7545 16.6435 19.4777 16.6435H18.0848C17.808 16.6435 17.5625 16.8949 17.5625 17.1782C17.5625 17.4616 17.808 17.713 18.0848 17.713ZM17.8036 20.4644C17.6652 20.4644 17.5268 20.4278 17.4196 20.3227L16.4777 19.3583C16.2679 19.1435 16.2679 18.8236 16.4777 18.6088C16.6875 18.394 17 18.394 17.2098 18.6088L18.1518 19.5731C18.3616 19.7879 18.3616 20.1079 18.1518 20.3227C18.0804 20.4278 17.942 20.4644 17.8036 20.4644ZM14.4196 21.4653C14.4196 21.7486 14.6652 22 14.942 22C15.2232 22 15.4643 21.7486 15.4643 21.4607V20.0393C15.4643 19.7559 15.2188 19.5046 14.942 19.5046C14.6652 19.5046 14.4196 19.7559 14.4196 20.0393V21.4653Z" fill="#000033"/>
</svg>
