<svg width="24" height="24" viewBox="0 0 24 24" fill="none" xmlns="http://www.w3.org/2000/svg">
<path fill-rule="evenodd" clip-rule="evenodd" d="M11.9785 2C7.86192 2 4.52855 5.38861 4.52855 9.56843C4.52855 13.7483 7.86586 17.1369 11.9824 17.1369C16.0989 17.1369 19.4363 13.7483 19.4363 9.56843C19.4363 5.38861 16.0989 2 11.9785 2ZM13.9305 12.989H9.67226C9.3889 12.989 9.14096 12.7373 9.14096 12.4496C9.14096 12.1618 9.3889 11.9101 9.67226 11.9101C9.95561 11.9101 10.2036 11.6224 10.2036 11.3706V9.92807H9.67226C9.3889 9.92807 9.2118 9.67632 9.2118 9.38861C9.2118 9.1009 9.3889 8.84915 9.67226 8.84915H10.2036V7.40659C10.2036 6.25175 10.9867 5.42458 12.1201 5.42458C12.4743 5.42458 12.9702 5.46054 13.4346 5.89211C13.6471 6.10789 13.6825 6.43157 13.47 6.64735C13.2575 6.86314 12.9387 6.8991 12.7262 6.68332C12.62 6.57542 12.4429 6.5035 12.1201 6.5035C11.5889 6.5035 11.2701 6.86314 11.2701 7.40659V8.85315H12.6908C12.9741 8.85315 13.2221 9.06893 13.2221 9.39261C13.2221 9.71628 12.9741 9.93207 12.6908 9.93207H11.2701V11.4066C11.2701 11.5602 11.2184 11.6875 11.1592 11.8335L11.1591 11.8336C11.149 11.8585 11.1387 11.8839 11.1284 11.9101H13.9305C14.2138 11.9101 14.4618 12.1618 14.4618 12.4496C14.4618 12.7373 14.2138 12.989 13.9305 12.989ZM5.66198 15.3706L4.06416 18.3237C3.9579 18.5035 3.99332 18.7552 4.09958 18.9391C4.24126 19.1189 4.45377 19.1908 4.66629 19.1189L7.68089 18.1838L8.6018 21.6044C8.67264 21.8202 8.84974 21.964 9.06225 22H9.13309C9.31019 22 9.48729 21.8921 9.59355 21.7123L11.5456 18.1798C9.2118 18.0719 7.15353 17.025 5.66198 15.3706ZM18.2635 15.3706C16.7719 17.029 14.6428 18.1079 12.3012 18.1838L14.3594 21.7163C14.4657 21.8961 14.6428 21.968 14.8199 21.968H14.8907C15.1033 21.9321 15.2804 21.7882 15.3158 21.5724L16.2367 18.1518L19.3221 19.0869C19.5346 19.1588 19.7472 19.0869 19.8888 18.9071C20.0305 18.7273 20.0305 18.5115 19.9243 18.2917L18.2635 15.3706Z" fill="#313235"/>
</svg>
