<svg width="24" height="24" viewBox="0 0 24 24" fill="none" xmlns="http://www.w3.org/2000/svg">
<path fill-rule="evenodd" clip-rule="evenodd" d="M21.6863 5.06729C21.6863 3.94123 20.8011 3.1037 19.0532 2.58269C17.8515 2.22415 16.2773 2.02807 14.619 2.02527C12.9664 2.02527 11.3922 2.22135 10.1905 2.57989C8.7451 3.01406 7.88515 3.66953 7.63305 4.53507V4.53787C7.58543 4.70874 7.56022 4.88521 7.56022 5.06729V7.6079C7.56022 7.62996 7.56639 7.64996 7.5725 7.66977C7.57647 7.68267 7.58042 7.69549 7.58263 7.70874C6.34734 7.72555 2 8.17093 2 13.5743C2 19.0337 6.46779 19.4622 7.65826 19.479H7.7507C7.75313 19.4851 7.75398 19.4922 7.75484 19.4995C7.75598 19.509 7.75714 19.5187 7.7619 19.5267C8.12045 20.2438 8.91597 20.776 10.1933 21.1569C11.4034 21.5155 12.9748 21.7115 14.6218 21.7115C16.2689 21.7115 17.8431 21.5155 19.0532 21.1569C20.8011 20.6359 21.6863 19.7984 21.6863 18.6723V5.06729ZM10.5434 3.73955C9.61345 4.01687 9.03361 4.38661 8.85434 4.78437C9.02241 5.18773 9.61625 5.56308 10.5546 5.8432C11.6443 6.16813 13.0924 6.3474 14.6303 6.3474C16.1709 6.3474 17.619 6.16813 18.7087 5.8432C19.6359 5.56588 20.2297 5.19614 20.4062 4.79838C20.1905 4.28577 19.3922 3.94123 18.7003 3.73675C17.6106 3.41182 16.1597 3.23255 14.619 3.23255C13.0812 3.23535 11.6331 3.41462 10.5434 3.73955ZM7.67507 18.2718C3.65266 18.2157 3.21849 14.9692 3.21849 13.5771C3.21849 9.55748 5.98039 8.93283 7.62465 8.91602H7.73389C7.87395 8.91602 8.01961 8.91883 8.14846 8.92163C12.2045 9.01687 12.6415 12.2298 12.6415 13.6079C12.6415 14.9861 12.2073 18.1961 8.17647 18.269C8.07563 18.2718 7.95798 18.2718 7.84314 18.2718H7.67507ZM8.53782 16.5211C8.53782 16.8544 8.26611 17.1261 7.92997 17.1261C7.59384 17.1261 7.32213 16.8544 7.32213 16.5211V14.1849H4.97759C4.64146 14.1849 4.36975 13.9132 4.36975 13.5799C4.36975 13.2466 4.64146 12.9748 4.97759 12.9748H7.32213V10.6723C7.32213 10.339 7.59384 10.0673 7.92997 10.0673C8.26611 10.0673 8.53782 10.339 8.53782 10.6723V12.9748H10.888C11.2241 12.9748 11.4958 13.2466 11.4958 13.5799C11.4958 13.9132 11.2241 14.1849 10.888 14.1849H8.53782V16.5211ZM18.7031 20.0001C19.507 19.7592 20.4678 19.3334 20.4678 18.6723V15.8656C20.07 16.1121 19.5966 16.325 19.0616 16.4847C17.8599 16.8432 16.2857 17.0393 14.6331 17.0393C14.1317 17.0393 13.6247 17.0197 13.1317 16.9833C13.1126 16.9817 13.0953 16.9756 13.0783 16.9696C13.0654 16.965 13.0525 16.9605 13.0392 16.958C12.0448 18.6135 10.3613 19.1877 9.20168 19.3782C9.45938 19.5799 9.87115 19.7984 10.5434 19.9973C11.6415 20.3222 13.0896 20.5015 14.6218 20.5015C16.1541 20.5071 17.605 20.3278 18.7031 20.0001ZM13.8627 13.6135C13.8627 13.1149 13.8123 12.6723 13.7423 12.255C14.0224 12.2774 14.3277 12.2886 14.6359 12.2914C16.2913 12.2914 17.8627 12.0953 19.0644 11.7368C19.6022 11.5771 20.0728 11.3642 20.4706 11.1177V14.2606C20.2689 14.5855 19.7143 15.0365 18.7143 15.3334C17.3641 15.7368 15.4314 15.9132 13.549 15.804C13.7423 15.1821 13.8627 14.465 13.8627 13.6135ZM8.77871 7.6107C8.77871 7.64706 8.76997 7.68051 8.7609 7.71524C8.75739 7.72867 8.75383 7.7423 8.7507 7.75636C10.0364 7.89642 12.4454 8.50146 13.4258 11.0393C13.4986 11.0253 13.5714 11.0225 13.6471 11.0365C13.9188 11.0813 14.3669 11.0813 14.6331 11.0813C16.1709 11.0813 17.619 10.902 18.7115 10.5771C19.7143 10.2774 20.2689 9.82919 20.4678 9.50426V6.40622C20.0868 6.63591 19.6218 6.83479 19.0616 7.00286C17.8627 7.3614 16.2885 7.56028 14.6331 7.56028C12.9776 7.56028 11.4062 7.3642 10.2045 7.00286C9.63585 6.83479 9.16527 6.62751 8.77871 6.38941V7.6107Z" fill="#313235"/>
</svg>
