<svg width="24" height="24" viewBox="0 0 24 24" fill="none" xmlns="http://www.w3.org/2000/svg">
<path fill-rule="evenodd" clip-rule="evenodd" d="M11.43 4.23126C11.43 4.56739 11.7017 4.8391 12.0351 4.8391C12.3712 4.8363 12.6401 4.56459 12.6401 4.23126V2.75787C12.6401 2.42173 12.3684 2.15002 12.0351 2.15002C11.7017 2.15002 11.43 2.42173 11.43 2.75787V4.23126ZM18.5449 17.4273C19.2844 17.4273 19.9286 17.9736 19.9286 18.5954V20.6654C19.9286 21.2901 19.2816 21.8363 18.5449 21.8363H5.52525C4.77455 21.8363 4.1415 21.3013 4.1415 20.6654V18.5954C4.1415 17.9623 4.77455 17.4273 5.52525 17.4273H5.67651V11.7018C5.67651 7.5842 7.93422 5.31529 12.0323 5.31529C16.1331 5.31529 18.3908 7.5842 18.3908 11.7018V17.4273H18.5449ZM6.8866 17.4049V11.7018C6.8866 8.22285 8.57007 6.53098 12.0323 6.53098C15.5 6.53098 17.1835 8.22285 17.1835 11.7018V17.4049H6.8866ZM18.7185 18.6934V20.5674C18.6681 20.601 18.6065 20.6206 18.5449 20.6206H5.52525C5.46363 20.6206 5.4048 20.6066 5.35158 20.5758V18.6878C5.4048 18.657 5.46363 18.6402 5.52525 18.6402H18.5449C18.6065 18.6402 18.6653 18.6598 18.7185 18.6934ZM4.82497 9.56179C4.82497 9.89512 4.55606 10.1668 4.21993 10.1696H2.75494C2.41881 10.1668 2.1499 9.89512 2.1499 9.56179C2.1499 9.22565 2.42161 8.95395 2.75494 8.95395H4.22273C4.55606 8.95395 4.82777 9.22565 4.82497 9.56179ZM21.8362 9.5898C21.8362 9.25367 21.5645 8.98196 21.2311 8.98196H19.7633C19.43 8.98196 19.1583 9.25367 19.1583 9.5898C19.1583 9.92593 19.43 10.1976 19.7633 10.1976H21.2311C21.5673 10.1976 21.8362 9.92313 21.8362 9.5898ZM5.66531 5.95675L4.62889 4.91473C4.3908 4.67664 4.3908 4.29288 4.62889 4.05479C4.86419 3.81949 5.24514 3.81669 5.48043 4.05199L5.48324 4.05479L6.51965 5.0968C6.75494 5.3377 6.75494 5.72145 6.51405 5.95955C6.402 6.07159 6.25074 6.13322 6.09108 6.13602C5.93142 6.13322 5.77735 6.06879 5.66531 5.95675ZM16.5869 5.39932C16.5841 5.73546 16.853 6.00997 17.1891 6.01277C17.3488 6.01277 17.5028 5.94834 17.6177 5.8335L18.6541 4.79148C18.8894 4.55619 18.8894 4.17243 18.6541 3.93434L18.6513 3.93154C18.416 3.69624 18.0351 3.69904 17.7998 3.93434L16.7633 4.97636C16.6513 5.0884 16.5869 5.23966 16.5869 5.39932ZM14.3544 12.489V11.7943H12.8754C12.5869 11.7943 12.3516 11.5562 12.3516 11.2677V9.78588H11.6597V11.2677C11.6597 11.559 11.4244 11.7943 11.1359 11.7943H9.65971V12.489H11.1359C11.4244 12.489 11.6597 12.7243 11.6597 13.0156V14.4974H12.3516V13.0156C12.3516 12.7243 12.5869 12.489 12.8754 12.489H14.3544ZM15.4048 11.5086C15.4048 11.094 15.0239 10.7411 14.5757 10.7411C14.5757 10.7411 13.3992 10.7411 13.402 10.7355V9.55899C13.402 9.10801 13.0491 8.72706 12.6345 8.72706H11.3796C10.965 8.72706 10.6121 9.11081 10.6121 9.56179V10.7411H9.44122C8.99304 10.7411 8.61209 11.0912 8.61209 11.5086V12.7719C8.61209 13.1892 8.99304 13.5422 9.44122 13.5422H10.6149V14.7187C10.6149 15.1696 10.9678 15.5506 11.3824 15.5506H12.6373C13.0547 15.5506 13.4048 15.1696 13.4048 14.7187V13.5394H14.5757C15.0239 13.5394 15.4048 13.1864 15.4048 12.7719V11.5086Z" fill="#313235"/>
</svg>
