<svg width="24" height="24" viewBox="0 0 24 24" fill="none" xmlns="http://www.w3.org/2000/svg">
<path fill-rule="evenodd" clip-rule="evenodd" d="M20.2549 2.18217C21.2045 3.14295 21.6863 4.53231 21.6863 6.31662C21.6863 8.09813 21.2045 9.48749 20.2549 10.4455C20.1373 10.5659 19.9804 10.6275 19.8263 10.6275C19.6639 10.6275 19.5014 10.5603 19.381 10.4287C19.1429 10.171 19.1513 9.7648 19.3978 9.5155C20.098 8.80962 20.451 7.73399 20.451 6.31662C20.451 4.89645 20.098 3.81802 19.3978 3.10934C19.1513 2.86004 19.1457 2.45107 19.3838 2.19617C19.6218 1.94127 20.0112 1.93287 20.2549 2.18217ZM4.28852 9.5155C4.53501 9.762 4.54062 10.1738 4.30532 10.4315C4.18207 10.5631 4.02241 10.6275 3.85994 10.6275C3.70588 10.6275 3.55182 10.5687 3.43137 10.4455C2.48179 9.48749 2 8.09813 2 6.31662C2 4.53511 2.48179 3.14575 3.43137 2.18217C3.67787 1.93287 4.06723 1.94127 4.30532 2.19897C4.54342 2.45668 4.53501 2.86284 4.29132 3.11214C3.59104 3.82082 3.2381 4.89925 3.2381 6.31662C3.23529 7.73399 3.59104 8.80962 4.28852 9.5155ZM19.2521 18.2718C19.2521 17.9133 18.9748 17.6247 18.6331 17.6247V17.6275H17.2521L13.7171 7.69477C13.9272 7.33063 14.0364 6.87404 14.0364 6.31942C14.0364 5.56032 13.8403 4.97488 13.4454 4.57712C13.0672 4.19617 12.521 4.00289 11.8235 4.00289C11.1261 4.00289 10.5826 4.19617 10.2045 4.57712C9.81513 4.97208 9.61625 5.55752 9.61625 6.31662C9.61625 6.87124 9.72549 7.33063 9.93557 7.69197L6.40056 17.6247H5.07283C4.73109 17.6247 4.45378 17.9161 4.45378 18.2718V21.0421C4.45378 21.4007 4.73109 21.6892 5.07283 21.6892H18.6331C18.9748 21.6892 19.2521 21.3979 19.2521 21.0421V18.2718ZM11.0644 5.50149C10.8908 5.68077 10.8515 6.04211 10.8515 6.31382C10.8515 6.58553 10.888 6.94687 11.0616 7.12334C11.2437 7.30542 11.6162 7.33343 11.8235 7.33343C12.0784 7.33343 12.4174 7.29701 12.591 7.12054C12.7675 6.94687 12.8039 6.58553 12.8039 6.31382C12.8039 6.04211 12.7675 5.68077 12.591 5.50149C12.4174 5.32502 12.0784 5.28861 11.8263 5.28861C11.5742 5.29141 11.2353 5.32782 11.0644 5.50149ZM7.71989 17.6219L10.9664 8.49869C11.2213 8.57993 11.5042 8.62474 11.8235 8.62474C12.1457 8.62474 12.4342 8.57712 12.6891 8.49869L15.9412 17.6219H14.7871L12.4118 10.9833C12.4104 10.9791 12.4083 10.9763 12.4062 10.9735C12.4041 10.9707 12.402 10.9679 12.4006 10.9637C12.3881 10.9305 12.3696 10.9035 12.3505 10.8758C12.3438 10.8661 12.3371 10.8562 12.3305 10.846C12.3222 10.8346 12.3147 10.8224 12.3072 10.8102C12.2945 10.7897 12.2819 10.7694 12.2661 10.7536C12.251 10.7385 12.2328 10.7264 12.2147 10.7143C12.2026 10.7062 12.1905 10.6981 12.1793 10.6892C12.1666 10.681 12.1544 10.6722 12.1424 10.6635L12.1424 10.6635C12.1173 10.6454 12.0928 10.6277 12.0644 10.6163C12.0602 10.6149 12.0574 10.6128 12.0546 10.6107C12.0518 10.6086 12.049 10.6065 12.0448 10.6051C12.0268 10.597 12.0089 10.5955 11.9909 10.594H11.9909C11.9781 10.5929 11.9652 10.5918 11.9524 10.5883C11.9132 10.5771 11.8739 10.5687 11.8319 10.5687C11.7868 10.5687 11.7442 10.5788 11.6994 10.5894L11.6919 10.5911C11.6824 10.5932 11.6724 10.5942 11.6624 10.5951C11.6459 10.5966 11.6291 10.5982 11.6134 10.6051C11.6112 10.6063 11.6094 10.6079 11.6075 10.6095C11.6047 10.612 11.6016 10.6147 11.5966 10.6163C11.5616 10.6317 11.5317 10.6538 11.5016 10.6761L11.5016 10.6762L11.5015 10.6762L11.4874 10.6867L11.4762 10.6948C11.4656 10.7033 11.4545 10.7106 11.4437 10.7177C11.426 10.7294 11.4089 10.7408 11.395 10.7564C11.3738 10.7799 11.3566 10.8073 11.3401 10.8337L11.3305 10.8488C11.3025 10.8852 11.2773 10.9217 11.2605 10.9665C11.2591 10.9707 11.257 10.9735 11.2549 10.9763C11.2528 10.9791 11.2507 10.9819 11.2493 10.9861L8.90196 17.6219H7.71989ZM11.1681 14.9413L11.8319 13.0617L12.507 14.9413H11.1681ZM18.014 18.9161V20.3951H5.68908V18.9161H18.014ZM12.5966 17.6247H13.465L12.9664 16.2354H10.7115L10.2213 17.6247H12.5966ZM6.23249 9.05612C6.35294 9.17937 6.507 9.23819 6.66106 9.23819C6.82353 9.23819 6.98599 9.17096 7.10924 9.04211C7.34454 8.78721 7.33613 8.37544 7.09244 8.12894C6.70588 7.73959 6.5098 7.12894 6.5098 6.31382C6.5098 5.49869 6.70588 4.88805 7.09244 4.49589C7.33613 4.24659 7.34454 3.83763 7.10644 3.58273C6.86835 3.32502 6.47899 3.31942 6.23249 3.56592C5.59384 4.21018 5.27171 5.13455 5.27171 6.31102C5.27171 7.49029 5.59384 8.41466 6.23249 9.05612ZM16.563 8.12894C16.3165 8.37824 16.3109 8.78441 16.5462 9.04211C16.6667 9.17096 16.8319 9.23819 16.9916 9.24099C17.1457 9.24099 17.2997 9.18217 17.4202 9.06172C18.0588 8.41746 18.3838 7.49589 18.3838 6.31662C18.3838 5.14015 18.0616 4.21578 17.423 3.57152C17.1765 3.32222 16.7871 3.32782 16.549 3.58553C16.3109 3.84323 16.3165 4.25219 16.563 4.50149C16.9524 4.89085 17.1485 5.50429 17.1485 6.31662C17.1485 7.12894 16.9496 7.73959 16.563 8.12894Z" fill="#313235"/>
</svg>
