<svg width="24" height="24" viewBox="0 0 24 24" fill="none" xmlns="http://www.w3.org/2000/svg">
<path fill-rule="evenodd" clip-rule="evenodd" d="M17.9089 21.6862H5.9061C5.1694 21.6862 4.52515 21.042 4.52515 20.3081V3.38096C4.52515 2.65827 5.18341 2.00281 5.9061 2.00281H17.9089C18.6316 2.00281 19.2898 2.66107 19.2898 3.38096V20.3081C19.287 21.042 18.6428 21.6862 17.9089 21.6862ZM9.65119 20.4818V16.0896C9.65119 15.7563 9.91729 15.4874 10.2422 15.4874H13.5699C13.8977 15.4874 14.161 15.7563 14.161 16.0896V20.479H17.9061C18.0041 20.479 18.1021 20.3669 18.1021 20.3053V3.37815C18.0965 3.31933 17.9789 3.20449 17.9061 3.20449H5.90329C5.82766 3.20449 5.71002 3.31653 5.70722 3.37815V20.3053C5.70722 20.3669 5.80806 20.479 5.90329 20.479L9.65119 20.4818ZM12.9789 20.4509H10.8361V16.6919H12.9789V20.4509ZM8.72682 7.10924H10.0629V5.7507H8.72682V7.10924ZM8.13578 8.31372H10.6568C10.9817 8.31372 11.2478 8.04481 11.2478 7.71148V5.14846C11.2478 4.81513 10.9845 4.54622 10.6568 4.54622H8.13578C7.81085 4.54622 7.54475 4.81513 7.54475 5.14846V7.71148C7.54475 8.04481 7.80805 8.31372 8.13578 8.31372ZM13.7072 7.10924H15.0433V5.7507H13.7072V7.10924ZM13.1162 8.31372H15.6372C15.9621 8.31372 16.2282 8.04481 16.2282 7.71148V5.14846C16.2282 4.81513 15.9649 4.54622 15.6372 4.54622H13.1162C12.7912 4.54622 12.5251 4.81513 12.5251 5.14846V7.71148C12.5251 8.04481 12.7884 8.31372 13.1162 8.31372ZM8.72682 12.14H10.0629V10.7815H8.72682V12.14ZM8.13578 13.3445H10.6568C10.9817 13.3445 11.2478 13.0756 11.2478 12.7423V10.1793C11.2478 9.84593 10.9845 9.57702 10.6568 9.57702H8.13578C7.81085 9.57702 7.54475 9.84593 7.54475 10.1793V12.7423C7.54475 13.0756 7.80805 13.3445 8.13578 13.3445ZM13.7072 12.14H15.0433V10.7815H13.7072V12.14ZM13.1162 13.3445H15.6372C15.9621 13.3445 16.2282 13.0756 16.2282 12.7423V10.1793C16.2282 9.84593 15.9649 9.57702 15.6372 9.57702H13.1162C12.7912 9.57702 12.5251 9.84593 12.5251 10.1793V12.7423C12.5251 13.0756 12.7884 13.3445 13.1162 13.3445Z" fill="#313235"/>
</svg>
