<svg width="24" height="24" viewBox="0 0 24 24" fill="none" xmlns="http://www.w3.org/2000/svg">
<path fill-rule="evenodd" clip-rule="evenodd" d="M17.7997 7.54379C17.7997 6.49057 17.5252 5.71185 16.9594 5.16003C16.3936 4.60541 15.5868 4.3365 14.5 4.3365H14.3123V3.66984C14.3123 3.19645 14.1779 2.8211 13.9062 2.55779C13.6373 2.29169 13.2507 2.16003 12.7605 2.16003H10.5364C10.049 2.16003 9.66247 2.29449 9.39356 2.5662C9.12465 2.8295 8.9874 3.20205 8.9874 3.66984V4.3365H8.79972C7.72129 4.3365 6.91737 4.61101 6.34314 5.17684C5.77451 5.73426 5.5 6.50737 5.5 7.54379V18.6362C5.5 19.7007 5.77731 20.485 6.34874 21.034C6.91457 21.5802 7.71569 21.8463 8.79692 21.8463H14.5028C15.584 21.8463 16.3852 21.5802 16.951 21.034C17.5224 20.485 17.7997 19.7007 17.7997 18.6362V7.54379ZM9.85294 3.66984V4.3365H13.444V3.66984C13.444 3.30561 13.3308 3.19252 13.2935 3.15525L13.2927 3.15443C13.2563 3.11802 13.1415 3.00597 12.7633 3.00597H10.5392C10.1667 3.00597 10.049 3.12082 10.0098 3.16003C9.97059 3.19645 9.85294 3.31129 9.85294 3.66984ZM16.9314 18.6362V7.54379C16.9314 6.72586 16.7381 6.14043 16.3431 5.75667C15.9482 5.37012 15.3459 5.18244 14.5028 5.18244H8.79692C7.96218 5.18244 7.36275 5.37572 6.95938 5.77068C6.56162 6.16284 6.36835 6.73987 6.36835 7.54379V18.6362C6.36835 19.4626 6.56162 20.0508 6.95938 20.4317C7.35434 20.8127 7.95378 20.9976 8.79692 20.9976H14.5028C15.3431 20.9976 15.9454 20.8127 16.3403 20.4317C16.7353 20.0508 16.9286 19.4626 16.9314 18.6362ZM15.2115 18.0004V7.46256H8.08543V18.0004C8.08543 18.6614 8.63725 19.1992 9.31793 19.1992H13.979C14.6569 19.1992 15.2115 18.6614 15.2115 18.0004ZM16.0798 7.03959C16.0798 6.80429 15.8866 6.61662 15.6457 6.61662H7.64846C7.41036 6.61662 7.21429 6.80429 7.21429 7.03959V18.0004C7.21429 19.1292 8.15826 20.0452 9.31793 20.0452H13.9762C15.1387 20.0452 16.0798 19.1292 16.0798 18.0004V7.03959Z" fill="#313235"/>
</svg>
