<svg width="24" height="24" viewBox="0 0 24 24" fill="none" xmlns="http://www.w3.org/2000/svg">
<path fill-rule="evenodd" clip-rule="evenodd" d="M21.6423 8.05545C21.6647 8.13388 21.6647 8.2095 21.6535 8.28512C21.6703 8.37475 21.6843 8.46438 21.6871 8.56521V20.0123C21.6871 20.9366 20.8692 21.69 19.8609 21.69H3.82884C2.82053 21.69 2.00269 20.9366 2.00269 20.0123V8.56521C2.00269 8.40276 2.03349 8.24871 2.08111 8.10027C2.08251 8.09326 2.08251 8.08696 2.08251 8.08066C2.08251 8.07436 2.08251 8.06806 2.08391 8.06105L3.41712 3.32201C3.46473 2.58819 4.18735 2.00281 5.06962 2.00281H18.6173C19.4968 2.00281 20.2166 2.58539 20.2699 3.31921L21.6423 8.05545ZM18.8218 3.40323C18.8218 3.45365 18.8274 3.50126 18.8442 3.54888L19.8105 6.88189H14.4133L13.9511 3.22678H18.6145C18.7294 3.22958 18.8218 3.3052 18.8218 3.40323ZM4.86236 3.40323C4.86236 3.45085 4.85676 3.49846 4.84275 3.54608L3.90166 6.8847H8.9432L9.32972 3.22958H5.06962C4.95479 3.22958 4.86236 3.30801 4.86236 3.40323ZM19.8553 20.4548C20.057 20.4548 20.2334 20.2448 20.2334 20.0067V8.55961C20.2334 8.32153 20.057 8.11147 19.8553 8.11147H14.4945L14.4973 10.5734C14.4973 10.9123 14.1724 11.1868 13.7719 11.1868H9.593C9.19248 11.1868 8.86758 10.9123 8.86758 10.5734V8.11147H3.82324C3.62158 8.11147 3.44793 8.32153 3.44793 8.55961V20.0067C3.44793 20.2448 3.62158 20.4548 3.82324 20.4548H19.8553ZM13.0493 8.11147V9.95723H10.3184V8.11147H13.0493ZM12.9568 6.88189L12.4919 3.23238H10.7806L10.394 6.88189H12.9568Z" fill="#313235"/>
</svg>
