<svg width="24" height="24" viewBox="0 0 24 24" fill="none" xmlns="http://www.w3.org/2000/svg">
<path fill-rule="evenodd" clip-rule="evenodd" d="M16.9331 7.18244H20.3925C21.1992 7.18244 21.8463 7.8351 21.8463 8.64463V20.3757C21.8463 21.188 21.1964 21.8463 20.3925 21.8463H3.61942C2.8155 21.8463 2.16003 21.1852 2.16003 20.3757V8.64463C2.16003 7.8351 2.8155 7.18244 3.61942 7.18244H7.0732V6.8267C7.0732 4.25807 9.24687 2.16003 11.9135 2.16003H12.1012C14.7679 2.16003 16.9331 4.25807 16.9331 6.8267V7.18244ZM8.30289 6.8267C8.30289 4.94435 9.92754 3.39813 11.9135 3.39813H12.1012C14.0872 3.39813 15.7035 4.94435 15.7035 6.8267V7.18244H8.30289V6.8267ZM20.6166 12.2889C18.9528 13.5102 16.3113 14.0648 12.0788 14.0648C7.73987 14.0648 5.04799 13.4794 3.39253 12.174V8.64743C3.39253 8.52418 3.49897 8.42334 3.62222 8.42334H20.3953C20.5186 8.42334 20.6166 8.52418 20.6166 8.64743V12.2889ZM11.4205 16.4345H12.5942V15.3029H11.4205V16.4345ZM20.3953 20.6054C20.5186 20.6054 20.6166 20.5074 20.6166 20.3757H20.6138V13.7539C19.0228 14.6642 16.8799 15.1432 13.8211 15.2665V16.6558C13.8211 17.0032 13.667 17.2917 13.3869 17.4738C13.1824 17.6054 12.9275 17.6726 12.5998 17.6726H11.4037C11.0844 17.6726 10.8211 17.6054 10.6166 17.4738C10.3449 17.2917 10.188 17.0032 10.188 16.6558V15.2609C7.11242 15.1208 4.97236 14.6166 3.38973 13.6754V20.3757C3.38973 20.5074 3.49617 20.6054 3.61942 20.6054H20.3953Z" fill="#313235"/>
</svg>
