<svg width="24" height="24" viewBox="0 0 24 24" fill="none" xmlns="http://www.w3.org/2000/svg">
<path fill-rule="evenodd" clip-rule="evenodd" d="M19.5705 11.9243C19.9067 11.9243 20.1784 12.2016 20.1784 12.5405V14.1848C20.1784 14.5237 19.9067 14.801 19.5705 14.801C19.2344 14.801 18.9627 14.5237 18.9627 14.1848V13.1568H17.7386C17.7386 13.1876 17.7393 13.2163 17.74 13.245L17.74 13.2451C17.7407 13.2738 17.7414 13.3025 17.7414 13.3333C17.7414 14.9187 17.6153 16.2856 17.2428 17.3949L19.2176 18.0027C19.4865 18.0868 19.663 18.3417 19.6489 18.6246L19.5173 21.1007C19.5005 21.4285 19.2316 21.6834 18.9095 21.6834H18.8758C18.5397 21.6638 18.282 21.3753 18.2988 21.0363L18.4053 19.0419L16.719 18.5237C15.887 19.8402 14.4389 20.5741 11.9739 20.5741C9.5005 20.5741 8.05233 19.8346 7.2232 18.5125L5.49771 19.0419L5.60415 21.0363C5.62376 21.3753 5.36326 21.6666 5.02712 21.6834H4.99351C4.67418 21.6834 4.40528 21.4285 4.38567 21.1007L4.25402 18.6246C4.24001 18.3417 4.41648 18.0839 4.68539 18.0027L6.70219 17.3837C6.33524 16.2772 6.20919 14.9131 6.20919 13.3333C6.20919 13.3035 6.20991 13.273 6.21062 13.2429C6.21131 13.2135 6.212 13.1845 6.212 13.1568H4.99071V14.1848C4.99071 14.5237 4.719 14.801 4.38287 14.801C4.04673 14.801 3.77502 14.5237 3.77502 14.1848V12.5405C3.77502 12.2016 4.04673 11.9243 4.38287 11.9243H6.25401C6.33244 10.6386 6.55093 9.36968 7.11676 8.35567L4.68819 7.61058C4.41928 7.52654 4.24281 7.27164 4.25682 6.98873L4.38847 4.51254C4.40808 4.17361 4.69659 3.9075 5.02992 3.92991C5.36606 3.94952 5.62376 4.23803 5.60695 4.57697L5.50051 6.57136L7.78622 7.27444C7.62656 6.89069 7.54253 6.44531 7.54253 5.9187C7.54253 4.08117 8.52011 3.31647 9.86465 3.01114C9.66297 2.77025 9.66857 2.41171 9.89266 2.18201C10.1308 1.94112 10.5145 1.94112 10.7526 2.18201L11.3969 2.83467C11.5901 2.82627 11.7862 2.82347 11.9823 2.82347C12.1728 2.82347 12.3604 2.82627 12.5453 2.83467L13.1896 2.18201C13.4277 1.94112 13.8142 1.94112 14.0523 2.18201C14.2764 2.40891 14.282 2.76465 14.0831 3.00554C15.4389 3.30526 16.4249 4.06997 16.4249 5.9159C16.4249 6.43131 16.3436 6.87108 16.1896 7.24923L18.4053 6.56856L18.2988 4.57417C18.282 4.23523 18.5397 3.94392 18.8758 3.92711C19.198 3.9019 19.5005 4.17081 19.5173 4.50974L19.6489 6.98593C19.6658 7.26884 19.4865 7.52654 19.2176 7.60778L16.8282 8.34167C17.3184 9.20441 17.5985 10.3557 17.6938 11.9243H19.5705ZM8.76101 5.9159C8.76101 4.6554 9.2428 4.05596 11.9851 4.05596C14.7274 4.05596 15.2092 4.6554 15.2064 5.9187C15.2064 6.26324 15.156 6.50414 15.0915 6.69461C14.2792 6.29405 13.254 6.09237 11.9767 6.09237C10.705 6.09237 9.67978 6.28845 8.86745 6.68901C8.80303 6.49573 8.76101 6.24923 8.76101 5.9159ZM16.5229 13.3333C16.5229 17.9383 15.4613 19.3417 11.9767 19.3417C8.4921 19.3417 7.43048 17.9383 7.43048 13.3333C7.43048 10.4621 7.86745 8.89909 8.89826 8.10077C9.57333 7.57696 10.5817 7.32206 11.9767 7.32206C13.3604 7.32206 14.3604 7.57136 15.0355 8.08677C16.0775 8.87948 16.5229 10.4509 16.5229 13.3333ZM12.5201 9.24643C12.5201 8.90749 12.2484 8.63018 11.9123 8.63018C11.5761 8.63018 11.3016 8.90749 11.3044 9.24643V17.1792C11.3044 17.5181 11.5761 17.7954 11.9123 17.7954C12.2484 17.7954 12.5201 17.5181 12.5201 17.1792V9.24643Z" fill="#313235"/>
</svg>
