<svg width="24" height="24" viewBox="0 0 24 24" fill="none" xmlns="http://www.w3.org/2000/svg">
<path fill-rule="evenodd" clip-rule="evenodd" d="M16.5564 10.686H18.2361C18.6501 10.686 18.9861 10.35 18.9861 9.93595C18.9861 9.77895 18.9831 8.60395 18.9761 8.45195C18.8071 4.25895 16.3301 1.94995 12.0001 1.94995C7.49508 1.94995 5.01308 4.42995 5.01308 8.93495C5.01308 9.34895 5.34908 9.68495 5.76308 9.68495C6.17708 9.68495 6.51308 9.34895 6.51308 8.93495C6.51308 5.24395 8.30808 3.44995 12.0001 3.44995C15.5481 3.44995 17.3401 5.10595 17.4781 8.51095C17.4801 8.58195 17.4821 8.87895 17.4841 9.18595H16.7729C16.7755 9.10324 16.7768 9.01947 16.7768 8.93465C16.7768 5.85365 15.0808 4.15765 11.9998 4.15765C8.91878 4.15765 7.22278 5.85365 7.22278 8.93465C7.22278 12.0157 8.91878 13.7137 11.9998 13.7137C14.4354 13.7137 16.0054 12.6525 16.5564 10.686ZM15.2722 9.18595C15.2753 9.10393 15.2768 9.02016 15.2768 8.93465C15.2768 6.69865 14.2358 5.65765 11.9998 5.65765C9.76378 5.65765 8.72278 6.69865 8.72278 8.93465C8.72278 11.1717 9.76378 12.2137 11.9998 12.2137C13.5373 12.2137 14.5097 11.721 14.9673 10.686H14.1056C13.8863 11.0088 13.5079 11.1634 12.9996 11.1634C12.1606 11.1634 11.6756 10.7424 11.6756 9.83835C11.6756 8.93435 12.1606 8.51435 12.9996 8.51435C13.6013 8.51435 14.0209 8.73035 14.2101 9.18595H15.2722ZM19.2447 20.5571H4.75268C4.78368 19.9501 4.96568 18.9991 5.70068 18.1391C6.85568 16.7891 8.96668 16.1051 11.9787 16.1051C14.9927 16.1051 17.1127 16.7911 18.2777 18.1441C19.0177 19.0021 19.2077 19.9511 19.2447 20.5571ZM4.03368 22.0571H19.9697C20.3377 22.0571 20.6507 21.7901 20.7097 21.4271C20.7257 21.3331 21.0647 19.1031 19.4367 17.1901C17.9767 15.4751 15.4667 14.6051 11.9787 14.6051C8.49068 14.6051 5.98768 15.4741 4.53968 17.1901C2.92168 19.1051 3.27768 21.3381 3.29468 21.4321C3.35568 21.7931 3.66768 22.0571 4.03368 22.0571Z" fill="#313235"/>
</svg>
