<svg width="24" height="24" viewBox="0 0 24 24" fill="none" xmlns="http://www.w3.org/2000/svg">
<path fill-rule="evenodd" clip-rule="evenodd" d="M21.2468 15.6344C20.9527 15.0742 20.5997 14.6288 20.2328 14.2758C21.3056 13.0826 21.8518 11.3851 21.8546 9.23104C21.8546 4.67923 19.3616 2.16663 14.835 2.16663C10.3168 2.16663 7.82385 4.67923 7.82385 9.23104C7.82385 9.32908 7.82385 9.43552 7.83225 9.53356C6.40088 9.98734 5.33926 10.8109 4.62778 11.5364C2.9359 13.2478 2.1768 15.4047 2.1852 16.6484C2.10146 18.2396 2.3293 19.3022 2.33917 19.3482L2.33927 19.3487C2.40369 19.6316 2.65019 19.8361 2.9359 19.8361H4.65019C4.87988 21.0882 5.81825 21.8445 7.21601 21.8445C8.61377 21.8445 9.55214 21.0882 9.78183 19.8361H13.1964C13.4177 21.0966 14.3561 21.8529 15.7538 21.8529C17.1516 21.8529 18.0899 21.0966 18.3196 19.8361H20.6978C20.863 19.8361 21.0087 19.7688 21.1235 19.6624L21.1248 19.6612C21.1998 19.5864 22.5942 18.1955 21.2468 15.6344ZM9.04794 9.22824V9.25905C9.39808 9.20303 9.77623 9.17782 10.1656 9.17782C14.653 9.17782 16.8827 11.9761 17.4877 12.8893C17.8715 12.9565 18.5241 13.1218 19.2356 13.5252C20.16 12.5532 20.625 11.1106 20.625 9.22824C20.625 5.3599 18.6726 3.39912 14.8322 3.39912C11.0003 3.39912 9.04794 5.3571 9.04794 9.22824ZM16.0675 10.2226C16.188 10.3459 16.3448 10.4047 16.5017 10.4047C16.6586 10.4047 16.8154 10.3431 16.9359 10.2226C17.174 9.97894 17.174 9.58958 16.9359 9.34869L15.3869 7.78847V5.68763C15.3869 5.34869 15.1124 5.07138 14.7734 5.07138C14.4345 5.07138 14.16 5.34589 14.16 5.68763V8.04617C14.16 8.21143 14.2244 8.3683 14.3392 8.48314L16.0675 10.2226ZM20.16 16.2114C20.8406 17.4943 20.5857 18.2758 20.3981 18.598H18.3196C18.1067 17.3291 17.16 16.5728 15.7538 16.5728C14.3505 16.5728 13.4093 17.3291 13.1964 18.598H9.79023C9.56895 17.3291 8.62217 16.5644 7.21601 16.5644C5.80985 16.5644 4.86307 17.3291 4.64178 18.598H3.46531C3.40929 18.1778 3.36728 17.5111 3.40929 16.6708C3.40089 15.6344 4.12918 13.7829 5.49332 12.3991C6.39248 11.4943 7.92749 10.4159 10.1656 10.4159C14.667 10.4159 16.5073 13.6344 16.5801 13.766C16.6866 13.9565 16.8743 14.0798 17.0871 14.0882C17.1039 14.0882 19.1151 14.2282 20.16 16.2114ZM17.1544 19.2142V19.2058C17.1544 18.259 16.6978 17.8081 15.7566 17.8081C14.8154 17.8081 14.3673 18.2618 14.3673 19.2058V19.2142C14.3673 20.1526 14.8154 20.6148 15.7566 20.6148C16.6978 20.6148 17.1544 20.1526 17.1544 19.2142ZM8.61377 19.1974V19.2142C8.60536 20.1526 8.14878 20.6064 7.21601 20.6064C6.27483 20.6064 5.81825 20.1442 5.81825 19.1974C5.81825 18.2534 6.27763 17.7997 7.21601 17.7997C8.15718 17.7997 8.61377 18.2506 8.61377 19.1974Z" fill="#313235"/>
</svg>
