<svg width="24" height="24" viewBox="0 0 24 24" fill="none" xmlns="http://www.w3.org/2000/svg">
<path fill-rule="evenodd" clip-rule="evenodd" d="M17.4744 21.6812C16.6061 21.6812 15.6173 21.4683 14.5473 21.0397C12.3624 20.1686 9.97024 18.4711 7.63131 16.1321L7.6257 16.1265L7.55287 16.0537L7.54727 16.0481C5.20834 13.712 3.51366 11.3198 2.63971 9.13494C1.80778 7.04251 1.78537 5.25539 2.58369 4.10133L2.60049 4.07612L2.6117 4.05931C2.70694 3.92486 3.00105 3.5187 3.30638 3.22738C4.17752 2.39825 5.06268 1.98368 5.94223 2.00049C6.79097 2.0173 7.6285 2.43186 8.43243 3.23579C8.73775 3.53551 9.00105 3.87164 9.21954 4.23579C9.65091 4.93046 9.80778 5.65035 9.68453 6.37024C9.56128 7.09013 9.16072 7.79321 8.48845 8.46548C8.33159 8.62234 8.16632 8.7708 7.99265 8.90805C7.92542 9.0257 7.96744 9.39825 8.48845 10.1602C9.09349 11.0397 10.1019 12.0817 10.8078 12.7876L10.8918 12.8716C11.5977 13.5775 12.6397 14.5859 13.5193 15.191C14.2812 15.712 14.6537 15.7512 14.7714 15.6868C14.9086 15.5131 15.0543 15.345 15.2139 15.191C15.8862 14.5187 16.5921 14.1153 17.312 13.9949C18.0319 13.8744 18.749 14.0285 19.4464 14.4599C19.8134 14.6784 20.1495 14.9417 20.4464 15.247C21.2504 16.0509 21.6649 16.8884 21.6817 17.7372C21.6985 18.6167 21.284 19.5019 20.4548 20.373C20.1762 20.665 19.7926 20.9442 19.642 21.0538L19.6229 21.0677L19.6061 21.0789C19.5977 21.0845 19.5893 21.0901 19.5809 21.0985C19.0151 21.4879 18.3008 21.6812 17.4744 21.6812ZM8.42682 15.3422C10.6565 17.5747 12.917 19.1826 14.9618 19.9977C16.6621 20.6756 18.1075 20.7428 18.9338 20.1798L18.9674 20.1574C19.27 19.9389 19.4969 19.7512 19.6453 19.5971C20.2644 18.9473 20.5753 18.3282 20.5641 17.7568C20.5529 17.2022 20.256 16.6391 19.6565 16.0369C19.424 15.7988 19.1635 15.5943 18.8778 15.4235L18.861 15.4151C18.396 15.1237 17.9506 15.0229 17.4997 15.0985C17.0151 15.1798 16.5137 15.4795 16.0067 15.9837C15.8638 16.1237 15.7321 16.2722 15.6117 16.4319C15.5921 16.4543 15.5725 16.4767 15.5529 16.4963C15.3148 16.7176 14.8862 16.9445 14.2083 16.7708C13.8246 16.6728 13.3932 16.4571 12.889 16.1125C11.931 15.4571 10.8414 14.3983 10.1019 13.6616L10.0179 13.5775C9.28117 12.8408 8.22514 11.7484 7.56688 10.7932C7.22234 10.289 7.00666 9.85763 6.90862 9.47388C6.73775 8.79601 6.96464 8.36744 7.18593 8.12654C7.20554 8.10413 7.22794 8.08453 7.25035 8.06772C7.41002 7.94727 7.55848 7.81562 7.69853 7.67276C8.20273 7.16856 8.49965 6.66716 8.58369 6.17976C8.65932 5.72878 8.55568 5.2834 8.26716 4.81842L8.25876 4.80161C8.08789 4.5159 7.88061 4.25539 7.64531 4.0229C7.04027 3.42906 6.47724 3.13214 5.92262 3.12094C5.35119 3.11254 4.72935 3.41786 4.08229 4.03971C3.92822 4.18537 3.74055 4.41226 3.52206 4.71758L3.49685 4.75119C2.93663 5.57752 3.00105 7.0229 3.67893 8.72318C4.49405 10.768 6.1047 13.0285 8.33439 15.2582L8.3736 15.2974L8.38481 15.3086L8.42682 15.3422ZM12.6033 11.8492C12.1859 11.8548 11.8414 11.5215 11.8358 11.1041C11.8358 11.0425 11.8414 10.9809 11.8554 10.9193L12.8246 6.38424C12.8834 6.10413 13.0711 5.89685 13.3232 5.82682C13.5753 5.75679 13.8414 5.84643 14.0347 6.05931L14.7041 6.79881L17.7349 4.19377C17.9198 4.0145 18.1747 3.92766 18.4296 3.95007C18.6929 3.97248 18.9338 4.10693 19.0907 4.31702L20.2251 5.58032C20.4044 5.782 20.4884 6.04811 20.4548 6.31422C20.424 6.56352 20.2924 6.79041 20.0879 6.93887L17.0711 9.59153L17.7321 10.3254C17.9254 10.5411 17.9842 10.8156 17.8862 11.0621C17.7882 11.3086 17.5585 11.4683 17.2672 11.4907L12.6677 11.8464C12.6453 11.8492 12.6229 11.8492 12.6033 11.8492ZM13.7518 7.41506L13.0515 10.6952L16.3288 10.4403L16.0487 10.1321C15.7405 9.78761 15.7658 9.25819 16.1103 8.95007C16.1131 8.94727 16.1159 8.94447 16.1187 8.94447L19.2588 6.17976L18.3372 5.15455L15.2335 7.82402C14.8834 8.12094 14.3624 8.08733 14.0515 7.74839L13.7518 7.41506Z" fill="#313235"/>
</svg>
