<svg width="24" height="24" viewBox="0 0 24 24" fill="none" xmlns="http://www.w3.org/2000/svg">
<path fill-rule="evenodd" clip-rule="evenodd" d="M18.8286 6.35226C19.08 6.02196 19.0548 5.54848 18.7532 5.24682C18.4241 4.91773 17.8905 4.91773 17.5614 5.24682L12 10.8083L6.43856 5.24682L6.35226 5.1714C6.02196 4.92001 5.54848 4.94515 5.24682 5.24682C4.91773 5.57591 4.91773 6.10947 5.24682 6.43856L10.8083 12L5.24682 17.5614L5.1714 17.6477C4.92001 17.978 4.94515 18.4515 5.24682 18.7532C5.57591 19.0823 6.10947 19.0823 6.43856 18.7532L12 13.1917L17.5614 18.7532L17.6477 18.8286C17.978 19.08 18.4515 19.0548 18.7532 18.7532C19.0823 18.4241 19.0823 17.8905 18.7532 17.5614L13.1917 12L18.7532 6.43856L18.8286 6.35226Z" fill="#313235"/>
</svg>
