<svg width="24" height="24" viewBox="0 0 24 24" fill="none" xmlns="http://www.w3.org/2000/svg">
<path fill-rule="evenodd" clip-rule="evenodd" d="M11.0687 3.34998C11.9006 3.34998 15.937 3.54045 17.1779 7.21272C19.5084 7.43961 21.8361 8.927 21.8333 12.5236C21.8333 16.4872 18.9986 17.8906 16.5644 17.8906L14.7101 17.899V19.7281C14.7101 20.1931 14.3404 20.574 13.8894 20.574H10.0939C9.63449 20.574 9.27314 20.1931 9.27314 19.7281V17.9242L6.49443 17.941C4.3908 17.941 2.1499 16.7673 2.1499 13.4788C2.1499 10.8962 3.53365 9.83176 4.60648 9.39198C4.79136 3.64129 10.0126 3.34998 11.0687 3.34998ZM16.5672 16.6469L14.7213 16.6553V15.5236H16.1639C16.4944 15.5236 16.7913 15.3163 16.9202 15.0082C17.049 14.6917 16.9762 14.3276 16.7521 14.0867L12.6345 9.70571C12.3292 9.38358 11.7633 9.38358 11.458 9.70571L7.23673 14.1707C7.01264 14.4116 6.93981 14.7757 7.06866 15.0923C7.19751 15.4088 7.49443 15.6077 7.83337 15.6077H9.27594V16.6805L6.49723 16.6973C5.55326 16.6973 3.36279 16.3892 3.36279 13.4816C3.36279 11.8514 4.04066 10.8318 5.37679 10.4396C5.64289 10.3584 5.81937 10.1063 5.81937 9.82336L5.81096 9.72252C5.81096 4.96062 9.83897 4.59647 11.0743 4.59647C11.7745 4.59647 15.3123 4.75333 16.1499 7.96902C16.2143 8.23512 16.4468 8.4256 16.7129 8.434C17.8894 8.46762 20.6289 8.9326 20.6289 12.5236C20.6261 16.3472 17.5252 16.6469 16.5672 16.6469ZM13.5028 19.3303H10.4804V15.2183C10.4804 14.7533 10.1107 14.3696 9.65129 14.3696L8.74093 14.3612L12.0462 10.871L15.2451 14.2771H14.3432C13.8922 14.2771 13.5224 14.6525 13.514 15.1259L13.5028 19.3303Z" fill="#313235"/>
</svg>
