<svg width="24" height="24" viewBox="0 0 24 24" fill="none" xmlns="http://www.w3.org/2000/svg">
<path fill-rule="evenodd" clip-rule="evenodd" d="M12.4566 16.2703H21.084C21.4145 16.2703 21.6862 16.542 21.6834 16.8837C21.6862 17.2171 21.4145 17.4888 21.0812 17.4916H12.1905C12.014 17.7185 11.7591 17.8865 11.4566 17.9426C10.7087 18.077 9.66105 18.3627 8.90755 18.9622C8.40615 19.3627 7.69187 19.3627 7.18767 18.9622C6.43137 18.3627 5.38375 18.077 4.63865 17.9426C4.06162 17.8361 3.64145 17.3319 3.64145 16.7381V14.6933L2.67787 14.2563C2.26611 14.0742 2 13.6596 2 13.2059C2 12.7465 2.2577 12.3431 2.67787 12.1526L4.35574 11.3963V7.41316C4.35574 6.49439 4.59944 5.77451 5.08403 5.27591C5.58263 4.7633 6.31652 4.5 7.2689 4.5H18.7227C19.6722 4.5 20.4061 4.7605 20.9047 5.27591C21.3865 5.77451 21.633 6.49439 21.633 7.41316V12.8473C21.633 13.7661 21.3893 14.4916 20.9075 14.9958C20.4061 15.5196 19.6694 15.7857 18.7227 15.7857L12.4566 15.7885V16.2703ZM13.3221 12.1554L8.46217 9.97058C8.16806 9.83893 7.82912 9.83893 7.535 9.97058L5.54341 10.8641V7.41596C5.54341 6.82212 5.67506 6.38515 5.93277 6.11904C6.19887 5.84454 6.64705 5.70448 7.2661 5.70448L18.7199 5.69888C19.3361 5.69888 19.7843 5.83893 20.0532 6.11344C20.3109 6.37955 20.4425 6.81652 20.4425 7.41036V12.8473C20.4425 13.4468 20.3109 13.8893 20.0504 14.161C19.7815 14.4412 19.3333 14.584 18.7199 14.584L12.5882 14.5868L13.3193 14.2591C13.7311 14.0742 13.9972 13.6624 13.9972 13.2087C14.0056 12.7521 13.7395 12.3403 13.3221 12.1554ZM12.7003 13.2059L7.97478 11.0826L3.29972 13.2059L8.0252 15.3291L12.7003 13.2059ZM7.93276 18.0014C7.99999 18.0574 8.09523 18.0546 8.16245 18.0014C9.11483 17.2451 10.3641 16.9005 11.2465 16.7409L11.2493 15.1919L8.46217 16.444C8.16806 16.5784 7.82912 16.5756 7.535 16.444L4.84593 15.2339V16.7353C5.73109 16.8977 6.98038 17.2451 7.93276 18.0014Z" fill="#313235"/>
</svg>
