<svg width="24" height="24" viewBox="0 0 24 24" fill="none" xmlns="http://www.w3.org/2000/svg">
<path fill-rule="evenodd" clip-rule="evenodd" d="M4.07557 7.84459C4.14559 8.0995 4.38089 8.26756 4.63299 8.26756C4.68621 8.26756 4.73943 8.26196 4.78705 8.24515L18.759 4.26756C19.0672 4.18073 19.2464 3.8558 19.1596 3.54487C19.0756 3.23395 18.759 3.05468 18.4453 3.14151L13.5882 4.52527C13.5875 4.51336 13.5871 4.50146 13.5868 4.48955C13.5857 4.45384 13.5847 4.41812 13.5742 4.38241C13.3053 3.44964 12.4453 2.51126 10.9159 2.95104C9.38369 3.38521 9.13159 4.64011 9.38369 5.58409L9.4201 5.71294L4.47613 7.1219C4.168 7.20874 3.98873 7.53367 4.07557 7.84459ZM11.2324 4.07709C10.5854 4.26196 10.3417 4.66532 10.5041 5.28157L10.535 5.39641L12.5237 4.83059C12.517 4.817 12.5091 4.80375 12.5013 4.79037L12.5013 4.79036C12.4864 4.76512 12.4713 4.73943 12.4621 4.71014C12.2885 4.1079 11.8767 3.89221 11.2324 4.07709ZM21.7142 15.6849C21.7142 14.0799 20.591 13.5001 19.6274 13.4917H19.619C19.6157 13.4917 19.6134 13.4926 19.6115 13.4934C19.6108 13.4937 19.6102 13.4939 19.6096 13.4941C19.609 13.4943 19.6084 13.4945 19.6078 13.4945V12.5113C19.7198 12.4384 19.8207 12.36 19.8991 12.2872C20.1764 12.0155 20.5097 11.5281 20.5097 10.7241C20.5097 9.92303 20.1792 9.43283 19.9019 9.16392C19.7618 9.02667 19.563 8.87821 19.2941 8.76616C19.168 8.16112 18.8795 7.76336 18.6274 7.51966C18.3081 7.20874 17.7338 6.83899 16.7927 6.83899C15.8543 6.83899 15.2772 7.20874 14.9607 7.51966C14.9047 7.57289 14.8515 7.63171 14.8011 7.69333C14.3165 7.74095 13.9467 7.89221 13.6694 8.06588C13.4537 8.00426 13.2016 7.96784 12.9159 7.96784C12.605 7.96784 12.3361 8.00986 12.1036 8.07989C11.8067 7.82499 11.3361 7.48045 10.5882 7.48045C9.85708 7.48045 9.38369 7.82779 9.08397 8.07989C9.06212 8.0779 9.03605 8.07451 9.00874 8.07095L9.00873 8.07095C8.95903 8.06448 8.90526 8.05748 8.86548 8.05748C8.10918 8.05748 7.72543 8.20034 7.39209 8.65692C7.38789 8.66252 7.37809 8.65832 7.36828 8.65412C7.35848 8.64992 7.34868 8.64571 7.34447 8.65132C7.03635 8.62891 6.71422 8.77457 6.52935 9.03787C5.99433 8.96504 5.61898 9.14992 5.37529 9.44964C4.72543 9.41602 4.35008 9.68493 4.12879 9.90342C3.87389 10.1527 3.56856 10.6037 3.56856 11.3348V11.7017C3.56856 12.0127 3.69181 12.3124 3.9103 12.5309C3.96352 12.5841 4.02515 12.6317 4.08677 12.6737V13.4945C3.12879 13.5141 2.02515 14.0939 2.02515 15.6849C2.02515 17.2872 3.154 17.8726 4.12038 17.8866H4.29405C4.35008 17.8838 4.43971 17.8782 4.59097 17.8586C5.20442 19.7606 6.48453 20.8866 9.00554 20.8866C9.18761 20.8866 9.36128 20.8782 9.49573 20.867L14.1624 20.8642C14.3305 20.8754 14.5013 20.8866 14.6862 20.8866C14.8711 20.8866 15.042 20.8782 15.1764 20.867H15.3949C15.4649 20.867 15.5321 20.853 15.5938 20.8278C17.563 20.5757 18.5714 19.4272 19.0896 17.8614C19.2184 17.8726 19.4005 17.8838 19.4537 17.8866H19.619C20.5854 17.8726 21.7142 17.2872 21.7142 15.6849ZM19.1036 11.4412C19.2716 11.2788 19.3557 11.0379 19.3557 10.7241C19.3557 10.4104 19.2716 10.1695 19.1036 10.0043C18.9383 9.84739 18.7058 9.76896 18.4089 9.76896C18.3361 9.76896 18.2688 9.77457 18.2044 9.78297C18.1932 9.78577 18.1904 9.78297 18.1848 9.77457C18.1779 9.76761 18.1786 9.76449 18.1806 9.75568L18.182 9.74936C18.196 9.64571 18.2072 9.53927 18.2072 9.42443C18.2072 8.95944 18.0812 8.6009 17.8319 8.3572C17.591 8.12471 17.2464 8.00706 16.8011 8.00706C16.3585 8.00706 16.0139 8.12471 15.773 8.36C15.6414 8.49165 15.5462 8.65692 15.4845 8.853C15.4817 8.8586 15.4789 8.8642 15.4733 8.867C15.4677 8.8698 15.4621 8.8698 15.4537 8.8698C15.3557 8.8558 15.2492 8.84459 15.14 8.84459C14.6974 8.84459 14.3501 8.96224 14.112 9.19753C14.0364 9.27036 13.9775 9.3516 13.9243 9.44403C13.9131 9.46364 13.9103 9.46644 13.8879 9.46924C13.8655 9.47204 13.8627 9.46924 13.8459 9.45244C13.633 9.24235 13.3193 9.13591 12.9215 9.13591C12.5237 9.13591 12.2128 9.24235 11.9999 9.45244C11.9271 9.52527 11.8711 9.6149 11.8263 9.71014C11.8263 9.71014 11.7702 9.74375 11.7338 9.73255C11.6862 9.71574 11.6694 9.65692 11.6694 9.65692C11.6358 9.39081 11.5574 9.16112 11.4005 9.00706C11.2072 8.81938 10.9299 8.72415 10.5742 8.72415C10.2184 8.72415 9.94391 8.81938 9.74784 9.00706C9.64419 9.1107 9.56856 9.24515 9.51534 9.40202L9.51431 9.40416C9.51178 9.40953 9.50872 9.41602 9.50134 9.41602C9.49068 9.41602 9.4834 9.41152 9.47808 9.40822C9.475 9.40632 9.47258 9.40482 9.47052 9.40482C9.31366 9.28437 9.13159 9.22835 8.87389 9.22835C8.57977 9.22835 8.34447 9.30678 8.18481 9.46364C8.10358 9.54487 8.04195 9.64852 7.99994 9.76896C7.99714 9.78017 7.99433 9.79137 7.98033 9.79978C7.96769 9.80736 7.95733 9.80582 7.94101 9.80338L7.93551 9.80258C7.87949 9.79417 7.82066 9.79137 7.75904 9.79137C7.46212 9.79137 7.22963 9.8698 7.07277 10.0267C7.03075 10.0687 7.00274 10.1191 6.97473 10.1695L6.97085 10.1766C6.95945 10.1974 6.95267 10.2098 6.92991 10.2199C6.9019 10.2283 6.87949 10.2227 6.85148 10.2115C6.76744 10.1835 6.6666 10.1639 6.55736 10.1639C6.31086 10.1639 6.12038 10.2283 5.98593 10.36C5.94391 10.402 5.9075 10.4524 5.87949 10.5085C5.86268 10.5393 5.85148 10.5561 5.82066 10.5701C5.79282 10.584 5.77267 10.5806 5.74428 10.5759C5.7384 10.5749 5.73216 10.5738 5.72543 10.5729C5.6582 10.5589 5.58537 10.5533 5.50694 10.5533C5.26324 10.5533 5.06996 10.6205 4.93831 10.7494C4.80106 10.8838 4.73103 11.0827 4.73103 11.3404V11.6849H9.98313C9.99433 11.6821 10.0083 11.6793 10.0195 11.6793H11.549C11.5602 11.6793 11.5742 11.6821 11.5854 11.6849H18.4173C18.7114 11.6737 18.9411 11.5953 19.1036 11.4412ZM19.6022 16.7157C20.2352 16.7073 20.5574 16.36 20.5574 15.6821C20.5574 15.0071 20.2408 14.6625 19.6218 14.6597C19.6158 14.6597 19.6098 14.6581 19.6042 14.6566C19.5994 14.6553 19.5949 14.6541 19.591 14.6541C19.563 15.3656 19.5013 16.0603 19.3865 16.7101L19.4113 16.712C19.4406 16.7142 19.4699 16.7164 19.4873 16.7185H19.6022V16.7157ZM18.4537 12.8446C18.4509 13.2339 18.4509 13.6793 18.4509 13.7354C18.4145 17.8922 17.5966 19.4496 15.3221 19.6849C15.2951 19.6874 15.2725 19.692 15.2485 19.6968L15.238 19.6989H15.1344C14.8431 19.7185 14.5686 19.7213 14.1988 19.6989H9.45652C9.31086 19.7101 9.1624 19.7185 9.00554 19.7185C6.21282 19.7185 5.26324 18.1723 5.24363 13.5925V12.867L7.76184 12.8502H9.94391C9.97511 12.8502 9.99907 12.8478 10.0248 12.8452L10.0307 12.8446H11.5406L11.547 12.8452C11.5725 12.8478 11.5962 12.8502 11.6246 12.8502H13.7814L15.1428 12.8474H18.4089C18.4117 12.8474 18.4138 12.8467 18.4159 12.846L18.4176 12.8455C18.4186 12.8451 18.4196 12.8449 18.4208 12.8447L18.4229 12.8446H18.4537ZM4.27165 16.7157C4.27531 16.7157 4.28272 16.7152 4.29106 16.7146L4.29109 16.7146H4.29111C4.30187 16.7138 4.31418 16.7129 4.32207 16.7129C4.21002 16.0855 4.1484 15.3992 4.11758 14.6625C3.50414 14.6737 3.19041 15.0155 3.19041 15.6849C3.19041 16.36 3.50974 16.7073 4.14279 16.7185H4.27165V16.7157Z" fill="#313235"/>
</svg>
