<svg width="24" height="24" viewBox="0 0 24 24" fill="none" xmlns="http://www.w3.org/2000/svg">
<path fill-rule="evenodd" clip-rule="evenodd" d="M21.7143 9.61345L21.7087 14.0728C21.7087 14.3866 21.6079 14.6751 21.4426 14.9132C21.6107 15.1541 21.7143 15.4454 21.7143 15.7619L21.7087 20.2213C21.7087 21.028 21.0589 21.6863 20.2578 21.6863H3.47624C2.67792 21.6863 2.02806 21.028 2.02806 20.2213L2.03367 15.7619C2.03367 15.4482 2.1317 15.1597 2.29697 14.9216C2.1289 14.6807 2.02526 14.3894 2.02526 14.0728L2.03086 9.61345C2.03086 9.29972 2.1289 9.0112 2.29417 8.77311C2.1261 8.53221 2.02246 8.2409 2.02246 7.92437L2.02806 3.46499C2.02806 2.65826 2.67792 2 3.47624 2H20.2578C21.0561 2 21.7059 2.65826 21.7059 3.46499L21.7003 7.92437C21.7003 8.2381 21.6023 8.52661 21.4342 8.76471C21.6107 9.0056 21.7143 9.29692 21.7143 9.61345ZM3.26336 3.46499L3.25776 7.92437C3.25776 8.04482 3.35579 8.14846 3.47904 8.14846H20.2606C20.3838 8.14846 20.4818 8.04762 20.4818 7.92437L20.4874 3.46499C20.4874 3.34174 20.3894 3.2437 20.2662 3.2437H3.48184C3.3614 3.2437 3.26336 3.34174 3.26336 3.46499ZM18.0757 7.29972C17.0533 7.29972 16.4454 6.68347 16.4454 5.64986C16.4454 4.61625 17.0561 4 18.0757 4C19.0953 4 19.7059 4.61625 19.7059 5.64986C19.7059 6.68067 19.0981 7.29972 18.0757 7.29972ZM17.4258 5.64986C17.4258 5.16527 17.5967 4.9916 18.0757 4.9916C18.5547 4.9916 18.7255 5.16247 18.7255 5.64986C18.7255 6.13445 18.5547 6.30812 18.0757 6.30812C17.5967 6.30812 17.4258 6.13445 17.4258 5.64986ZM18.0561 10.1961C19.0785 10.1961 19.6863 10.8123 19.6863 11.8459C19.6863 12.8796 19.0757 13.4958 18.0561 13.4958C17.0365 13.4958 16.4258 12.8796 16.4258 11.8459C16.4258 10.8151 17.0365 10.1961 18.0561 10.1961ZM18.7059 11.8459C18.7059 12.3305 18.5351 12.5042 18.0561 12.5042C17.5771 12.5042 17.409 12.3333 17.4062 11.8459C17.4062 11.3613 17.5771 11.1877 18.0561 11.1877C18.5351 11.1877 18.7059 11.3613 18.7059 11.8459ZM18.0561 16.3978C19.0785 16.3978 19.6863 17.014 19.6863 18.0476C19.6863 19.0812 19.0757 19.6975 18.0561 19.6975C17.0365 19.6975 16.4258 19.0812 16.4258 18.0476C16.4258 17.014 17.0365 16.3978 18.0561 16.3978ZM18.0561 18.7059C18.5351 18.7059 18.7059 18.5322 18.7059 18.0476C18.7059 17.563 18.5351 17.3894 18.0561 17.3894C17.5771 17.3894 17.4062 17.563 17.4062 18.0476C17.409 18.5322 17.5771 18.7059 18.0561 18.7059ZM20.4846 15.7619L20.479 20.2213C20.479 20.3417 20.381 20.4426 20.2606 20.4454H3.47904C3.35579 20.4454 3.25776 20.3473 3.25776 20.2241L3.26336 15.7647C3.26336 15.6415 3.3614 15.5406 3.48184 15.5406H20.2634C20.3866 15.5406 20.4846 15.6387 20.4846 15.7619ZM20.2578 14.2941H3.47624C3.35579 14.2941 3.25776 14.1961 3.25776 14.07L3.26336 9.61064C3.26336 9.48739 3.3614 9.38936 3.48184 9.38936H20.2634C20.3866 9.38936 20.4846 9.48739 20.4846 9.61064L20.479 14.07C20.479 14.1933 20.381 14.2941 20.2578 14.2941ZM4.15411 5.64706C4.15411 5.9916 4.42862 6.26891 4.76756 6.26891H10.451C10.79 6.26891 11.0645 5.9916 11.0645 5.64706C11.0645 5.30252 10.79 5.02521 10.451 5.02521H4.76756C4.42862 5.02521 4.15411 5.30252 4.15411 5.64706ZM10.451 11.2269C10.79 11.2269 11.0645 11.5042 11.0645 11.8487C11.0645 12.1905 10.79 12.4706 10.451 12.4706H4.76756C4.42862 12.4706 4.15411 12.1933 4.15411 11.8487C4.15411 11.5042 4.42862 11.2269 4.76756 11.2269H10.451ZM11.0645 18.0868C11.0645 17.7423 10.79 17.465 10.451 17.465H4.76756C4.42862 17.465 4.15411 17.7423 4.15411 18.0868C4.15411 18.4314 4.42862 18.7087 4.76756 18.7087H10.451C10.79 18.7087 11.0645 18.4314 11.0645 18.0868Z" fill="#313235"/>
</svg>
