<svg width="24" height="24" viewBox="0 0 24 24" fill="none" xmlns="http://www.w3.org/2000/svg">
<path fill-rule="evenodd" clip-rule="evenodd" d="M19.9271 16.958C21.2073 17.2157 21.6974 18.2745 21.7115 19.1989C21.7143 19.2465 21.7143 19.3165 21.7115 19.3838C21.6974 20.4482 21.0532 21.6891 19.2941 21.6891C17.5322 21.6891 16.8963 20.4538 16.8879 19.395V19.2101C16.9104 18.2829 17.4061 17.2241 18.6779 16.9608V15.6667H5.05046L5.05606 16.958C6.33617 17.2129 6.82636 18.2745 6.84597 19.1989V19.3838C6.83196 20.4482 6.19051 21.6891 4.42861 21.6891C2.66952 21.6891 2.03367 20.4538 2.02246 19.395C2.02246 19.3306 2.02246 19.2605 2.02526 19.1989C2.04767 18.2801 2.54067 17.2241 3.80957 16.9608L3.80116 15.0505C3.80116 14.8852 3.86559 14.7283 3.98324 14.6107C4.10088 14.493 4.26055 14.4286 4.42581 14.4286H11.2185C11.2172 14.4159 11.2142 14.4044 11.2114 14.3933C11.2079 14.3798 11.2045 14.3668 11.2045 14.353V13.423C10.5014 13.3838 9.84316 13.283 9.31095 13.1233C7.9412 12.7143 7.65269 12.0001 7.65269 11.4762V3.95807C7.65269 3.82922 7.6723 3.70317 7.70591 3.58552C7.87398 3.0085 8.41179 2.57993 9.31095 2.31102C10.6919 1.89926 12.9832 1.89926 14.3641 2.31102C15.7311 2.71998 16.0196 3.43426 16.0196 3.95807V11.4762C16.0196 12.0001 15.7311 12.7143 14.3641 13.1233C13.8263 13.283 13.1625 13.3838 12.4538 13.423V14.353C12.4538 14.3688 12.4493 14.3829 12.4449 14.3967C12.4415 14.4073 12.4382 14.4177 12.437 14.4286H19.3053C19.647 14.4286 19.9271 14.7059 19.9271 15.0477V16.958ZM9.66949 3.49589C10.2465 3.32222 11.014 3.22978 11.8347 3.22978C12.6555 3.22978 13.4286 3.32502 14.0028 3.49589C14.3417 3.59673 14.549 3.71157 14.6667 3.80961C14.5686 3.89084 14.3782 4.00289 14.0084 4.11213C12.86 4.45667 10.8263 4.45667 9.67789 4.11213C9.31655 4.00569 9.12047 3.89084 9.01403 3.80121C9.12047 3.71438 9.31375 3.60233 9.66949 3.49589ZM8.89918 10.381V11.4734C8.89918 11.5855 9.14008 11.7788 9.67229 11.93C10.8263 12.2746 12.8487 12.2746 14.0056 11.93C14.5322 11.7732 14.7731 11.5827 14.7731 11.4706V10.3838L14.7521 10.3928L14.752 10.3928C14.6277 10.4458 14.5048 10.4981 14.3669 10.5379C13.6807 10.7424 12.7843 10.8572 11.8431 10.8572C10.902 10.8572 10.0056 10.7452 9.31655 10.5379C9.19469 10.4995 9.08555 10.4557 8.97743 10.4123L8.89918 10.381ZM5.60508 19.2213V19.367C5.59387 20.0869 5.20172 20.451 4.43422 20.451C3.66951 20.451 3.28016 20.0925 3.27456 19.3838V19.381L3.27736 19.2353C3.28856 18.7339 3.50145 18.1373 4.44542 18.1373C5.38659 18.1345 5.59387 18.7255 5.60508 19.2213ZM19.2969 20.4482C18.535 20.4482 18.1456 20.0897 18.1372 19.3838V19.2297C18.1484 18.7367 18.3585 18.1569 19.2633 18.1373C19.2703 18.1373 19.2766 18.1394 19.2829 18.1415L19.2829 18.1415L19.2829 18.1415C19.2892 18.1436 19.2955 18.1457 19.3025 18.1457C19.3095 18.1457 19.3165 18.1436 19.3235 18.1415C19.3305 18.1394 19.3375 18.1373 19.3445 18.1373C20.2521 18.1541 20.4566 18.7311 20.465 19.2297V19.3642C20.4566 20.0841 20.0644 20.4482 19.2969 20.4482ZM8.9679 7.7838L8.89918 7.75637V8.94965C8.98602 9.04488 9.2045 9.21015 9.67789 9.35301C10.8263 9.69754 12.86 9.69754 14.0084 9.35301C14.4286 9.22696 14.6695 9.05329 14.7731 8.93564V7.75637L14.7521 7.76534L14.752 7.76535C14.6276 7.81834 14.5048 7.87066 14.3669 7.91044C13.6807 8.11492 12.7843 8.22976 11.8431 8.22976C10.902 8.22976 10.0056 8.11772 9.31655 7.91044C9.19111 7.87327 9.07915 7.8284 8.9679 7.7838L8.9679 7.7838ZM9.31655 5.297C10.0056 5.50428 10.902 5.61633 11.8431 5.61633C12.7843 5.61633 13.6807 5.50148 14.3669 5.297C14.5094 5.25478 14.6296 5.2051 14.7507 5.15499L14.7731 5.14574V6.3082C14.6723 6.42585 14.4258 6.59952 14.0084 6.72557C12.86 7.0701 10.8291 7.0701 9.67789 6.72557C9.2017 6.58551 8.98602 6.41744 8.90198 6.32501V5.14014L8.92233 5.1488C9.04699 5.20191 9.17043 5.25449 9.31655 5.297Z" fill="#313235"/>
</svg>
