<svg width="24" height="24" viewBox="0 0 24 24" fill="none" xmlns="http://www.w3.org/2000/svg">
<path fill-rule="evenodd" clip-rule="evenodd" d="M15.0475 2C16.6049 2 18.0867 2.18767 19.2183 2.52661C20.8738 3.02521 21.7141 3.82352 21.7085 4.91035V17.7534C21.7085 18.8319 20.871 19.6302 19.2155 20.1288C18.0755 20.4677 16.5965 20.6554 15.0447 20.6554C13.6105 20.6554 12.2492 20.4873 11.1483 20.196C9.96905 20.9831 8.86541 21.5181 8.62171 21.633C8.54048 21.6694 8.45365 21.689 8.36401 21.689C8.27718 21.689 8.18754 21.6694 8.10631 21.6302C7.5657 21.3753 2.80941 19.0672 2.35563 16.4789C2.0196 14.5775 2.02463 10.2619 2.02508 9.87336C2.0251 9.86353 2.0251 9.85621 2.0251 9.85151C2.0251 9.66663 2.11194 9.49297 2.2576 9.37812C2.40605 9.26327 2.59653 9.22406 2.7758 9.26888C3.8399 9.43791 4.41603 9.05593 5.14423 8.57312L5.16795 8.5574L5.16962 8.55629C5.95072 8.04116 6.8329 7.45936 8.36121 7.45936H8.38082V4.90475C8.38082 4.72828 8.40603 4.55461 8.45365 4.39215C8.69174 3.56582 9.50687 2.93837 10.8766 2.52661C12.0111 2.18767 13.49 2 15.0475 2ZM15.0475 3.20168C13.6077 3.20168 12.2492 3.37254 11.2267 3.67786C10.3724 3.93557 9.8374 4.2745 9.66653 4.63584C9.82899 5.00279 10.3752 5.34732 11.2379 5.60503C12.2604 5.91315 13.6161 6.08122 15.0587 6.08122C16.5012 6.08122 17.857 5.91315 18.8794 5.60783C19.7309 5.35013 20.2799 5.01119 20.448 4.64985C20.2407 4.18486 19.5068 3.86834 18.871 3.67786C17.8486 3.36974 16.49 3.20168 15.0475 3.20168ZM9.5909 6.20727L9.5937 6.20894V7.60502C10.4228 7.8095 11.0195 8.19605 11.5629 8.55459C12.3024 9.04479 12.8878 9.42854 13.9858 9.25767C14.1623 9.23526 14.3472 9.28008 14.4816 9.39213C14.6161 9.50697 14.7057 9.66944 14.7057 9.84591C14.7057 9.88792 14.7057 10.1484 14.7029 10.5378C16.2351 10.5714 17.7757 10.4033 18.8822 10.07C19.8233 9.78708 20.3275 9.36972 20.5068 9.0672V6.22127C20.1595 6.42575 19.7337 6.60502 19.2267 6.75628C18.0951 7.09522 16.6133 7.28289 15.0587 7.28289C13.5012 7.28289 12.0223 7.09522 10.8906 6.75628C10.3794 6.60542 9.9489 6.42112 9.5937 6.20894V6.20727H9.5909ZM5.8363 9.56092C5.15872 10.0089 4.40542 10.507 3.24919 10.507V10.5042H3.23798C3.24359 11.2549 3.26319 12.5322 3.32202 13.7647H7.71696V8.71706C6.93265 8.84591 6.39483 9.19325 5.83741 9.56019L5.8363 9.56092ZM3.54611 16.2688C3.48448 15.9159 3.43406 15.4677 3.39485 14.9691H7.71696V20.0728C6.14553 19.2072 3.787 17.6386 3.54611 16.2688ZM18.871 18.9691C17.843 19.2744 16.4844 19.4453 15.0475 19.4453C14.1175 19.4453 13.2295 19.3669 12.4312 19.2352C13.392 18.4229 14.2043 17.4733 14.378 16.4761C14.3863 16.4298 14.3936 16.3805 14.401 16.33C14.4062 16.2951 14.4115 16.2596 14.4172 16.224L14.4173 16.224C14.6301 16.2324 14.843 16.2408 15.0587 16.2408C16.6133 16.2408 18.0951 16.0532 19.2267 15.7142C19.7113 15.5686 20.1399 15.3809 20.504 15.1568V17.7478C20.5068 18.3529 19.6161 18.745 18.871 18.9691ZM14.6861 11.7423C14.7268 11.7432 14.7675 11.7444 14.8082 11.7456C14.891 11.7481 14.9742 11.7507 15.0587 11.7507C16.6133 11.7507 18.0951 11.563 19.2267 11.2241C19.7113 11.0784 20.1399 10.8879 20.504 10.6666V13.5574C20.3247 13.8571 19.8177 14.2773 18.8794 14.5602C17.857 14.8655 16.5012 15.0364 15.0587 15.0364C14.928 15.0364 14.799 15.0316 14.6704 15.0269L14.6703 15.0269L14.6698 15.0268C14.6276 15.0253 14.5854 15.0237 14.5433 15.0224C14.6273 13.9663 14.6665 12.7395 14.6861 11.7423ZM10.8934 9.56019C10.3136 9.17924 9.75897 8.8179 8.92423 8.70305H8.92143V13.7647H13.4088C13.4676 12.5294 13.4872 11.2409 13.4928 10.4958H13.49C12.3108 10.4958 11.5629 10.0028 10.8934 9.56019ZM8.92423 20.1232V14.9691H13.3388C13.2996 15.4677 13.2519 15.9159 13.1903 16.2688C12.9466 17.6666 10.4957 19.266 8.92423 20.1232Z" fill="#313235"/>
</svg>
