<svg width="24" height="24" viewBox="0 0 24 24" fill="none" xmlns="http://www.w3.org/2000/svg">
<path fill-rule="evenodd" clip-rule="evenodd" d="M21.7142 4.92988C21.7142 3.85145 20.8738 3.05313 19.2184 2.55453C18.0867 2.2156 16.6049 2.02792 15.0391 2.01392C13.4817 2.01392 11.9999 2.20159 10.8682 2.54053C9.49849 2.95229 8.68337 3.57974 8.44527 4.40607C8.39765 4.57134 8.37244 4.74221 8.37244 4.91868V7.4761H8.36124C6.83292 7.4761 5.95074 8.0579 5.16964 8.57303L5.16796 8.57414L5.16099 8.57879C4.42481 9.06958 3.84526 9.45596 2.7758 9.28562C2.59653 9.24081 2.40325 9.28002 2.2576 9.39487C2.11194 9.50971 2.0251 9.68338 2.0251 9.86826C2.0251 9.87296 2.0251 9.88028 2.02508 9.89011C2.02463 10.2787 2.0196 14.5942 2.35564 16.4957C2.80942 19.0867 7.56852 21.3949 8.10914 21.6498C8.19037 21.689 8.28001 21.7086 8.36684 21.7086C8.45368 21.7086 8.54331 21.6918 8.62454 21.6526C8.86824 21.5377 9.97188 21.0027 11.1512 20.2156C12.2492 20.5097 13.6105 20.675 15.0447 20.675C16.5993 20.675 18.0811 20.4873 19.2184 20.1484C20.8738 19.6526 21.7142 18.8515 21.7142 17.773V4.92988ZM9.66376 4.66378C9.83463 4.29963 10.3696 3.9635 11.224 3.70579C12.2436 3.40047 13.6021 3.2324 15.0447 3.2296C16.4901 3.2296 17.8486 3.39767 18.8682 3.70299C19.5041 3.89627 20.2408 4.2128 20.4453 4.67498C20.2772 5.03913 19.7282 5.37806 18.8766 5.63296C17.8542 5.93829 16.4985 6.10635 15.0559 6.10635C13.6161 6.10635 12.2576 5.93829 11.2352 5.63296C10.3696 5.37526 9.82622 5.03072 9.66376 4.66378ZM9.58813 6.24081V7.63296C10.4201 7.83745 11.0223 8.2268 11.5657 8.58534C12.3052 9.07554 12.8906 9.4621 13.9915 9.28843C14.168 9.26322 14.3556 9.30803 14.4873 9.42288C14.6217 9.53773 14.7086 9.70019 14.7114 9.87666C14.7114 9.91868 14.7114 10.1792 14.7086 10.5657C14.7481 10.5667 14.7873 10.5679 14.8264 10.5692L14.8265 10.5692L14.8267 10.5692L14.8268 10.5692C14.9039 10.5717 14.9807 10.5741 15.0587 10.5741C16.5013 10.5741 17.857 10.4061 18.8794 10.0979C19.8206 9.81504 20.3248 9.39767 20.5069 9.09515V6.24921C20.1568 6.45369 19.731 6.63296 19.2268 6.78422C18.0951 7.12316 16.6133 7.31083 15.0587 7.31083C13.5013 7.31083 12.0223 7.12596 10.8878 6.78702C10.3724 6.63296 9.93827 6.45089 9.58813 6.24081ZM13.1932 16.2968C12.9159 17.8739 9.82903 19.7142 8.36684 20.4425C6.90746 19.7142 3.82342 17.8739 3.54611 16.294C3.29681 14.8739 3.24639 11.8599 3.23799 10.5321C4.37804 10.5265 5.15956 10.0363 5.84023 9.58534L5.84927 9.57942C6.54621 9.12221 7.20659 8.68899 8.36684 8.68899H8.36964C9.53771 8.69179 10.196 9.12596 10.8963 9.58815L10.9026 9.59234C11.5732 10.0338 12.3174 10.5237 13.4957 10.5237H13.4985C13.4901 11.8486 13.4397 14.8711 13.1932 16.2968ZM10.5853 12.1988C10.8206 11.9635 11.2044 11.9635 11.4397 12.1988C11.675 12.4341 11.675 12.815 11.4397 13.0503L7.79261 16.6834C7.68057 16.7954 7.5265 16.8599 7.36684 16.8599C7.20718 16.8599 7.05311 16.7954 6.94107 16.6834L5.30241 15.0503C5.06712 14.815 5.06712 14.4341 5.30241 14.1988C5.54051 13.9635 5.92146 13.9635 6.15676 14.1988L7.36684 15.4061L10.5853 12.1988ZM18.871 18.9971C19.6161 18.773 20.5041 18.3781 20.5041 17.773V15.182C20.1371 15.4033 19.7086 15.5937 19.224 15.7394C18.0951 16.0783 16.6133 16.266 15.0559 16.266C14.8837 16.266 14.7169 16.2589 14.5497 16.2517L14.5497 16.2517L14.4229 16.2464C14.4168 16.2843 14.4112 16.3221 14.4057 16.3595L14.4057 16.3596L14.4057 16.3596C14.3985 16.408 14.3915 16.4555 14.3836 16.5013V16.5041C14.21 17.5013 13.3977 18.4509 12.4341 19.2632C13.2296 19.3977 14.1147 19.4733 15.0447 19.4733C16.4845 19.4733 17.843 19.3052 18.871 18.9971ZM14.6918 11.7702C14.6722 12.7674 14.6329 13.9915 14.5517 15.0475C14.5932 15.0489 14.6346 15.0505 14.6762 15.052L14.6766 15.052L14.6767 15.052C14.8032 15.0568 14.9302 15.0615 15.0587 15.0615C16.5041 15.0615 17.8598 14.8935 18.8794 14.5881C19.8178 14.3052 20.3248 13.8879 20.5069 13.5853V10.6946C20.1399 10.9159 19.7114 11.1064 19.2268 11.252C18.0951 11.5909 16.6133 11.7786 15.0587 11.7786C14.995 11.7786 14.9327 11.7765 14.8711 11.7743C14.8108 11.7723 14.7513 11.7702 14.6918 11.7702Z" fill="#313235"/>
</svg>
