<svg width="24" height="24" viewBox="0 0 24 24" fill="none" xmlns="http://www.w3.org/2000/svg">
<path fill-rule="evenodd" clip-rule="evenodd" d="M21.6848 8.26877C21.6841 8.27087 21.6834 8.27297 21.6834 8.27437C21.6834 8.3472 21.6666 8.41442 21.6386 8.48445C21.633 8.50126 21.6246 8.51526 21.6162 8.52927C21.612 8.53757 21.6081 8.54612 21.6042 8.55477C21.5948 8.5753 21.5851 8.5964 21.5714 8.6161L12.3389 21.4368L12.3361 21.4396C12.2857 21.5068 12.2185 21.56 12.1456 21.602C12.1288 21.6132 12.112 21.6217 12.0924 21.6301C12.014 21.6637 11.9327 21.6889 11.8431 21.6889C11.7563 21.6889 11.6722 21.6637 11.5966 21.6301C11.5868 21.6259 11.5777 21.621 11.5686 21.616C11.5595 21.6111 11.5504 21.6062 11.5406 21.602C11.4678 21.56 11.4005 21.5068 11.3501 21.4396L11.3473 21.4368L2.11485 8.6161C2.10106 8.5964 2.09142 8.5753 2.08204 8.55477C2.07809 8.54612 2.07419 8.53757 2.07003 8.52927C2.06637 8.52012 2.06152 8.51097 2.05625 8.50104C2.05345 8.49577 2.05054 8.49028 2.04763 8.48445C2.02242 8.41722 2.00841 8.35 2.00561 8.27717C2.00561 8.27577 2.00491 8.27367 2.00421 8.27157C2.00351 8.26947 2.00281 8.26736 2.00281 8.26596C2.00281 8.26036 2.00421 8.25476 2.00561 8.24916C2.00701 8.24356 2.00841 8.23795 2.00841 8.23235C2.01121 8.17633 2.02242 8.11751 2.04202 8.06428C2.04622 8.05448 2.04973 8.04538 2.05323 8.03627C2.05673 8.02717 2.06023 8.01807 2.06443 8.00826C2.06884 8.00238 2.07094 7.99573 2.07315 7.98871C2.07515 7.98235 2.07725 7.9757 2.08124 7.96905L5.33052 2.30801C5.33432 2.29851 5.34199 2.29287 5.34915 2.28761C5.35255 2.28511 5.35583 2.2827 5.35854 2.28C5.40055 2.21557 5.45657 2.15955 5.5238 2.11473C5.54536 2.09796 5.56693 2.08734 5.59024 2.07585C5.59419 2.07391 5.59818 2.07194 5.60223 2.06991C5.61281 2.06521 5.6224 2.05903 5.63204 2.05282C5.64537 2.04423 5.6588 2.03557 5.67506 2.0307C5.70876 2.02016 5.74088 2.01914 5.7738 2.01808C5.78466 2.01774 5.7956 2.01739 5.80671 2.01669C5.81479 2.01669 5.82287 2.01345 5.83126 2.01009C5.84033 2.00646 5.84975 2.00269 5.85993 2.00269H17.8291C17.8401 2.00269 17.8503 2.00626 17.8606 2.00988C17.8686 2.01266 17.8766 2.01547 17.8851 2.01669C17.8956 2.01739 17.9062 2.01774 17.9168 2.0181C17.9484 2.01914 17.9804 2.02021 18.0139 2.0307C18.0331 2.03644 18.0483 2.04611 18.0641 2.05613C18.0714 2.06077 18.0788 2.06548 18.0868 2.06991L18.0868 2.06995C18.112 2.08394 18.1372 2.09794 18.1652 2.11473C18.2324 2.15955 18.2885 2.21277 18.3305 2.28C18.3343 2.28504 18.3392 2.28895 18.3439 2.29274C18.3498 2.29738 18.3554 2.30185 18.3585 2.30801L21.6078 7.96905C21.6137 7.9769 21.6168 7.98612 21.6201 7.99576C21.6215 7.99988 21.6229 8.00407 21.6246 8.00826C21.633 8.02507 21.6414 8.04468 21.647 8.06428C21.6638 8.11751 21.6778 8.17633 21.6806 8.23235C21.6806 8.23795 21.682 8.24286 21.6834 8.24776C21.6848 8.25266 21.6862 8.25756 21.6862 8.26316C21.6862 8.26456 21.6855 8.26666 21.6848 8.26877ZM7.90754 6.95224L6.69466 3.20436H10.6862L7.90754 6.95224ZM16.8291 7.66092L17.9831 4.09511L20.0279 7.66092H16.8291ZM16.4397 8.8654H19.8963L13.6162 17.5825L16.4397 8.8654ZM10.07 17.5825L7.24648 8.8654H3.79272L10.07 17.5825ZM16.9915 3.20436H13L15.7787 6.95224L16.9915 3.20436ZM8.89353 7.66092L11.8431 3.68335L14.7927 7.66092H8.89353ZM11.8431 19.1091L15.1596 8.8654H8.52659L11.8431 19.1091ZM5.70307 4.09511L6.85713 7.66092H3.65546L5.70307 4.09511Z" fill="#313235"/>
</svg>
