<svg width="24" height="24" viewBox="0 0 24 24" fill="none" xmlns="http://www.w3.org/2000/svg">
<path fill-rule="evenodd" clip-rule="evenodd" d="M20.7927 9.8966C20.8935 9.99463 20.9552 10.1207 20.9972 10.2551C21.0308 10.3308 21.0476 10.4148 21.0448 10.5016V20.5829C21.0448 21.2663 20.4622 21.8462 19.7675 21.8462H9.82352C9.12884 21.8462 8.54341 21.2663 8.54341 20.5829V17.9694H4.2549C3.58543 17.9694 3 17.3896 3 16.7285V3.39801C3 2.72854 3.57423 2.15991 4.2549 2.15991H13.8207C14.5014 2.15991 15.0756 2.72574 15.0756 3.39801V5.45683H15.8795C16.098 5.45683 16.3081 5.54086 16.4678 5.69492L20.7927 9.8966ZM4.2549 3.41481L4.2521 16.7285L8.54341 16.7145V6.72013C8.54341 6.04786 9.14285 5.45683 9.82352 5.45683H13.8235V3.39801L4.2549 3.41481ZM9.79551 6.72013V20.5829L19.7731 20.5857L19.7983 11.342H18.042C17.1793 11.342 16.4342 11.0591 15.8823 10.524C15.3249 9.98343 15.0308 9.24954 15.0308 8.398V6.71173H9.82352L9.79551 6.72013ZM16.2801 7.26075L19.1877 10.0871H18.0392C17.507 10.0871 17.0616 9.92741 16.7479 9.62209C16.4398 9.32237 16.2773 8.8994 16.2773 8.398V7.26075H16.2801Z" fill="#313235"/>
</svg>
