<svg width="24" height="24" viewBox="0 0 24 24" fill="none" xmlns="http://www.w3.org/2000/svg">
<path fill-rule="evenodd" clip-rule="evenodd" d="M13.1932 10.8963C13.8571 10.9972 14.5237 11.1428 15.1624 11.4482C16.3585 12.0112 17.2044 13.126 17.4229 14.4313C17.675 15.8739 17.1988 17.3921 16.1456 18.493C15.3557 19.3165 14.3193 19.8571 13.1904 20.0336V20.6834C13.1904 21.2212 12.7674 21.6582 12.2464 21.6582C11.7254 21.6582 11.3025 21.2212 11.3025 20.6834V20.0504C9.8991 19.8683 8.56017 19.3417 7.40891 18.5154C6.98034 18.1988 6.8767 17.5994 7.17642 17.1568C7.18062 17.1512 7.18412 17.1463 7.18762 17.1414C7.19112 17.1365 7.19462 17.1316 7.19882 17.126C7.49854 16.7115 8.07837 16.6162 8.49294 16.9159C9.33047 17.5126 10.2941 17.9131 11.3081 18.0812V12.6022C10.2576 12.4201 9.17641 12.0924 8.31087 11.1624C7.52375 10.3165 7.16241 9.18766 7.29406 7.98318C7.46493 6.54341 8.24364 5.24649 9.43411 4.42016C9.99994 4.03641 10.6358 3.77591 11.3053 3.64706V2.97479C11.2969 2.44538 11.7198 2.0084 12.2492 2C12.7786 2.0084 13.2016 2.44538 13.1932 2.97479V3.59103C14.4313 3.7619 15.5994 4.27451 16.5658 5.07002C16.9691 5.41736 17.0307 6.0196 16.7002 6.43977C16.696 6.44537 16.6911 6.45097 16.6862 6.45657C16.6813 6.46218 16.6764 6.46778 16.6722 6.47338C16.3445 6.86273 15.7618 6.91035 15.3725 6.57982C14.7926 6.09523 14.0139 5.72548 13.1932 5.57142V10.8963ZM9.67221 9.80951C9.17081 9.27169 9.12039 8.63864 9.17081 8.20167C9.26325 7.36694 9.77305 6.5238 10.4705 6.05041C10.7338 5.87394 11.0167 5.75629 11.3053 5.66386V10.605C10.661 10.4706 10.0924 10.2633 9.67221 9.80951ZM14.8067 17.1204C14.3557 17.5938 13.7954 17.8739 13.1932 18.0252V12.8739C13.6162 12.9524 14.0195 13.0476 14.3669 13.2157C15.2044 13.619 15.4845 14.2857 15.5714 14.7759C15.7086 15.5854 15.4173 16.4818 14.8067 17.1204Z" fill="#313235"/>
</svg>
