<svg width="24" height="24" viewBox="0 0 24 24" fill="none" xmlns="http://www.w3.org/2000/svg">
<path fill-rule="evenodd" clip-rule="evenodd" d="M21.0647 6.43137C21.6446 7.014 21.9891 7.84873 21.9863 8.66386C21.9835 9.48178 21.6614 10.2325 21.0535 10.8319C20.9275 10.958 20.3168 11.507 19.4429 12.2885V17.5602C19.4429 18.7899 19.0955 19.7843 18.4121 20.5126C17.6838 21.2913 16.6502 21.6862 15.3476 21.6862H6.38968C5.08436 21.6862 4.05635 21.2913 3.32806 20.5126C2.64459 19.7843 2.30005 18.7899 2.30005 17.5602V6.17646C2.30005 3.59944 3.86867 2 6.39248 2H15.3476C17.6502 2 19.1572 3.36134 19.3925 5.56862C20.0199 5.68627 20.6137 5.98039 21.0647 6.43137ZM18.2384 17.5602C18.2384 18.4734 18.0003 19.1905 17.5353 19.689C17.0423 20.2157 16.3084 20.4818 15.3505 20.4818H6.39248C5.4345 20.4818 4.70061 20.2157 4.20761 19.689C3.73982 19.1905 3.50453 18.4762 3.50453 17.5602V6.17646C3.50453 4.2605 4.52974 3.20448 6.39248 3.20448H15.3505C17.0059 3.20448 17.9947 4.05602 18.1936 5.59383C17.6334 5.72268 17.1039 5.99999 16.6726 6.43137C16.4177 6.68627 12.639 10.0392 9.21601 13.0672C9.03954 13.2213 8.90788 13.4202 8.83225 13.6442L7.57175 17.4033C7.40929 17.8851 7.53253 18.4117 7.89108 18.7731C8.14598 19.028 8.48211 19.1652 8.83785 19.1652C8.98071 19.1652 9.12077 19.1428 9.25802 19.098L13.0171 17.8543C13.188 17.7983 13.3505 17.7059 13.4849 17.5854L13.6278 17.4594C15.1647 16.0988 16.8527 14.5983 18.2388 13.3662L18.2404 13.3648L18.2412 13.3641V17.5602H18.2384ZM20.2076 9.97478C19.9583 10.2213 17.2664 12.6218 12.8266 16.5546L12.6362 16.7087L8.87707 17.9524C8.82385 17.9664 8.77343 17.9552 8.73982 17.9215C8.7034 17.8851 8.6922 17.8347 8.709 17.7871L10.0059 13.972C12.4597 11.8039 17.188 7.61624 17.5185 7.28571C17.9163 6.88795 18.3869 6.71708 18.8462 6.71708C19.3616 6.71708 19.8602 6.93277 20.2132 7.28571C20.5717 7.64425 20.7846 8.15966 20.7818 8.66106C20.7818 9.15125 20.5829 9.60503 20.2076 9.97478Z" fill="#313235"/>
</svg>
