<svg width="24" height="24" viewBox="0 0 24 24" fill="none" xmlns="http://www.w3.org/2000/svg">
<path fill-rule="evenodd" clip-rule="evenodd" d="M12.0002 2C18.44 2 21.8462 5.40336 21.8462 11.8459C21.8462 18.2829 18.4428 21.6863 12.0002 21.6863C5.56327 21.6863 2.15991 18.2829 2.15991 11.8459C2.15991 5.40336 5.56327 2 12.0002 2ZM12.0002 20.479C17.7313 20.479 20.6389 17.5742 20.6389 11.8459C20.6389 6.11205 17.7341 3.20728 12.0002 3.20728C6.27196 3.20728 3.3672 6.11205 3.3672 11.8459C3.3672 17.5742 6.27196 20.479 12.0002 20.479ZM16.6837 16.1401C16.5409 15.8403 16.1823 15.7143 15.8826 15.8571C15.1823 16.1877 14.3084 16.3557 13.2804 16.3529C10.821 16.3529 9.33078 15.437 8.75375 13.5798H12.3168C12.6529 13.5798 12.9218 13.3109 12.9218 12.9748C12.9218 12.6387 12.6501 12.3697 12.3168 12.3697H8.53246C8.53037 12.3479 8.52826 12.3261 8.52615 12.3043C8.5028 12.0626 8.47924 11.8188 8.47924 11.549C8.47924 11.4719 8.48526 11.4018 8.49129 11.3316C8.49534 11.2844 8.4994 11.2372 8.50165 11.1877H12.3112C12.6445 11.1877 12.9134 10.9188 12.9134 10.5854C12.9134 10.2521 12.6445 9.98319 12.3112 9.98319H8.64731C9.11229 7.82073 10.6305 6.7451 13.2804 6.7451C14.2944 6.7451 15.1627 6.90756 15.8574 7.22969C16.1599 7.36975 16.5185 7.2381 16.6585 6.93557C16.7986 6.63305 16.6669 6.27451 16.3644 6.13445C15.5101 5.73669 14.4708 5.53782 13.2804 5.53782C9.96383 5.53782 7.92742 7.10364 7.40641 9.98319H6.3784C6.06467 9.9944 5.80977 10.2465 5.79857 10.563C5.78456 10.8964 6.04507 11.1765 6.3784 11.1877H7.28036C7.27894 11.2182 7.27734 11.2485 7.27575 11.2788C7.27104 11.368 7.26635 11.457 7.26635 11.549C7.26916 11.8235 7.28036 12.0952 7.30557 12.3697H6.3784C6.04226 12.3697 5.77336 12.6387 5.77336 12.9748C5.77336 13.3109 6.04507 13.5798 6.3784 13.5798H7.49885C8.14871 16.1625 10.1431 17.5602 13.2776 17.5602C14.4848 17.5602 15.5325 17.3557 16.3952 16.9496H16.398C16.7005 16.8067 16.8294 16.4454 16.6865 16.1457C16.6865 16.1443 16.6858 16.1436 16.6851 16.1429C16.6844 16.1422 16.6837 16.1415 16.6837 16.1401Z" fill="#313235"/>
</svg>
