<svg width="24" height="24" viewBox="0 0 24 24" fill="none" xmlns="http://www.w3.org/2000/svg">
<path fill-rule="evenodd" clip-rule="evenodd" d="M19.1578 3.95515L21.676 6.49016C21.8581 6.71145 21.8945 7.02237 21.7825 7.27727C21.6592 7.53777 21.4071 7.69744 21.1214 7.69744L20.2979 7.70584C20.1382 8.71144 19.6172 10.6526 17.9394 12.1876C21.4996 14.3221 21.5416 18.2773 21.5416 18.3193C21.5416 19.2913 20.7489 20.084 19.7769 20.084C18.8105 20.084 18.0178 19.2969 18.0122 18.3305C18.0038 17.7478 17.7349 15.0308 13.8749 14.4985C13.8741 14.4994 13.8735 14.5002 13.873 14.501C13.8719 14.503 13.8713 14.505 13.8693 14.507C13.4352 14.9215 12.8077 15.1316 12.0066 15.1316C11.2055 15.1316 10.578 14.9215 10.1466 14.5041C10.143 14.5023 10.1406 14.4982 10.1385 14.4947C10.1374 14.4928 10.1364 14.4911 10.1354 14.4901C6.07943 15.028 5.89175 17.9747 5.88615 18.3389C5.87215 19.2997 5.07943 20.0812 4.12145 20.0812C3.14106 20.0728 2.35675 19.2829 2.35675 18.3221C2.35675 18.2773 2.40156 14.2885 6.03181 12.1624C4.39316 10.6442 3.87775 8.75626 3.71809 7.70584L2.89176 7.70024C2.61445 7.70024 2.36235 7.54058 2.2391 7.28287C2.11585 7.02237 2.15227 6.71425 2.33154 6.49296L4.89176 3.90753C4.96739 3.80669 5.13825 3.70865 5.33153 3.68624C5.52481 3.66383 5.71809 3.71985 5.86935 3.8403L5.98979 3.96075L8.44917 6.44534C8.66766 6.71425 8.70407 7.02237 8.58083 7.28287C8.45478 7.54058 8.20268 7.70024 7.91976 7.70024L7.28391 7.70584C7.5136 8.6106 8.21388 9.96074 10.3035 10.5602C10.7265 10.2324 11.2867 10.056 11.9982 10.056C12.7097 10.056 13.2755 10.2324 13.6985 10.563C15.7881 9.96354 16.4884 8.6106 16.7209 7.70584L16.0794 7.70024C15.8021 7.70024 15.5528 7.54338 15.4268 7.28567C15.3035 7.02797 15.3371 6.71705 15.5164 6.49576L18.1438 3.8375C18.4548 3.5938 18.9085 3.64702 19.1578 3.95515ZM19.1326 7.06158L19.169 6.49016L19.9562 6.48736L18.592 5.11201L17.2363 6.48736L18.0514 6.49576L18.0486 7.14282C18.0038 7.77307 17.62 10.4873 14.3987 11.6022C14.4884 11.8991 14.5416 12.2268 14.5416 12.5994C14.5416 12.8767 14.508 13.126 14.4576 13.3585C19.0066 14.1904 19.2223 17.8571 19.2279 18.3221C19.2279 18.6246 19.4716 18.8655 19.7685 18.8655C20.0682 18.8655 20.3091 18.6218 20.3091 18.3249C20.3063 18.1736 20.2139 14.4873 16.564 12.8599L15.5696 12.4201L16.466 11.8011C18.8161 10.1708 19.099 7.56579 19.1326 7.06158ZM4.11025 18.8627C4.40716 18.8627 4.64806 18.6218 4.65366 18.3249C4.65926 17.8571 4.88055 14.154 9.53881 13.3445C9.49119 13.1176 9.45758 12.8711 9.45758 12.5994C9.45758 12.2268 9.5108 11.8991 9.60323 11.6022C6.37915 10.4845 5.9982 7.77307 5.95338 7.14562L5.90856 6.49296L6.7685 6.49016L5.40716 5.11481L4.04582 6.49016L4.77411 6.49576L4.86935 7.06158C4.90016 7.56579 5.18867 10.1596 7.49399 11.7843L8.38475 12.4117L7.38755 12.8459C3.66767 14.4593 3.57523 18.1736 3.57243 18.3305C3.57243 18.619 3.81333 18.8599 4.11025 18.8627ZM13.3175 12.5994C13.3175 12.8403 13.2923 13.0476 13.2419 13.2156C13.1915 13.3921 13.1158 13.5294 13.0122 13.6274C12.7629 13.8655 12.3231 13.9131 11.9954 13.9131C11.6705 13.9131 11.2279 13.8655 10.9842 13.6302C10.8805 13.5322 10.8049 13.3921 10.7545 13.2156C10.7041 13.0448 10.6789 12.8431 10.6789 12.6022C10.6789 12.3221 10.7153 12.0952 10.7825 11.9103C10.8329 11.7703 10.8973 11.6526 10.9842 11.5714C11.2307 11.3333 11.6705 11.2829 11.9954 11.2829C12.3203 11.2829 12.7629 11.3333 13.0094 11.5714C13.0962 11.6554 13.1607 11.7731 13.2111 11.9103C13.2811 12.0952 13.3175 12.3193 13.3175 12.5994Z" fill="#313235"/>
</svg>
