<svg width="24" height="24" viewBox="0 0 24 24" fill="none" xmlns="http://www.w3.org/2000/svg">
<path fill-rule="evenodd" clip-rule="evenodd" d="M8.34597 2.1499C8.81096 2.1499 9.18911 2.52805 9.18911 2.99304V8.34597C9.18911 8.81096 8.81096 9.18911 8.34597 9.18911H2.99304C2.52805 9.18911 2.1499 8.81096 2.1499 8.34317C2.1499 7.87819 2.52805 7.50003 2.99304 7.50003H7.50003V2.99304C7.50003 2.52805 7.87819 2.1499 8.34597 2.1499ZM9.18911 15.6401C9.18911 15.1751 8.81096 14.7969 8.34597 14.7969H2.99304C2.55046 14.8137 2.19752 15.1695 2.18071 15.6093C2.16111 16.0743 2.52525 16.4664 2.99304 16.4832H7.50284V20.993C7.52805 21.4244 7.86978 21.7689 8.30115 21.7913C8.76614 21.8165 9.1639 21.458 9.18911 20.993V15.6401ZM21.8025 15.6737C21.8193 15.2059 21.4552 14.8137 20.9902 14.7969H15.6373C15.1723 14.7969 14.7941 15.1723 14.7941 15.6401V20.9958C14.7941 21.4608 15.1723 21.8389 15.6373 21.8389C16.1051 21.8389 16.4832 21.4608 16.4832 20.9958V16.486H20.9902C21.4328 16.4692 21.7857 16.1135 21.8025 15.6737ZM14.7969 8.34597C14.7969 8.81096 15.1751 9.18911 15.6401 9.18911H20.993C21.4356 9.1723 21.7885 8.81656 21.8053 8.37678C21.8221 7.909 21.458 7.51684 20.993 7.50003H16.4832V2.99304C16.458 2.56167 16.1163 2.21713 15.6849 2.19472C15.2199 2.16951 14.8222 2.52805 14.7969 2.99304V8.34597Z" fill="#313235"/>
</svg>
