<svg width="24" height="24" viewBox="0 0 24 24" fill="none" xmlns="http://www.w3.org/2000/svg">
<path fill-rule="evenodd" clip-rule="evenodd" d="M21.6665 7.78703C21.6973 7.85986 21.7141 7.94109 21.7141 8.02512V20.3304C21.7141 21.0811 21.0699 21.7141 20.3052 21.7141H8.12316C7.37246 21.7141 6.7142 21.0671 6.7142 20.3304L6.74782 17.5573H4.4453C3.11198 17.5573 2.02515 16.4677 2.02515 15.1315V11.0391C2.02515 9.70299 3.11198 8.61335 4.4453 8.61335H6.7114V3.40889C6.7114 2.68341 7.38087 2.02515 8.12036 2.02515H15.5349C15.7674 2.02515 15.9859 2.11198 16.1483 2.27445L21.4452 7.40047C21.5601 7.50972 21.6245 7.64417 21.6665 7.78703ZM20.3052 20.4985C20.4032 20.4985 20.4985 20.4032 20.4985 20.3304V8.89627H18.1847C17.1707 8.89627 16.294 8.56573 15.6525 7.94389C15.0027 7.31364 14.6581 6.4565 14.6581 5.46211V3.24363H8.12316C8.05033 3.24363 7.93549 3.35287 7.92988 3.4117V8.61335H14.294C15.6301 8.61335 16.7142 9.70299 16.7142 11.0391V15.1315C16.7142 16.4677 15.6273 17.5573 14.294 17.5573H7.9635L7.92988 20.336C7.92988 20.3864 8.03072 20.4957 8.12316 20.4957H20.3052V20.4985ZM3.24083 15.1343C3.24083 15.801 3.78144 16.3444 4.44811 16.3444H14.294C14.9607 16.3444 15.5013 15.801 15.5013 15.1343V11.0419C15.5013 10.3753 14.9607 9.83184 14.294 9.83184H4.44811C3.78144 9.83184 3.24083 10.3753 3.24083 11.0419V15.1343ZM19.9858 7.67778L19.9887 7.68058V7.67778H19.9858ZM19.9858 7.67778L15.8738 3.69461V5.45931C15.8738 6.11477 16.0895 6.67219 16.4957 7.06714C16.9102 7.4677 17.4929 7.67778 18.1847 7.67778H19.9858ZM6.01112 11.3332H4.71701V15.1035H5.57695V13.8038H6.18199C6.67779 13.8038 7.01952 13.689 7.24081 13.4397C7.42848 13.2296 7.52092 12.9271 7.52092 12.5237C7.52092 12.1203 7.42288 11.829 7.2184 11.6414C6.97471 11.4145 6.60216 11.3332 6.01112 11.3332ZM6.50132 13.0139C6.39207 13.1175 6.27443 13.1568 5.99992 13.1568V13.1596H5.57415V11.9579H5.97751C6.24362 11.9579 6.40328 11.9971 6.50692 12.0895C6.60496 12.182 6.64978 12.3304 6.64978 12.5349C6.64978 12.7562 6.59936 12.9159 6.50132 13.0139ZM8.13156 11.3332H9.42568C10.0167 11.3332 10.3893 11.4145 10.633 11.6414C10.8374 11.829 10.9355 12.1203 10.9355 12.5237C10.9355 12.9271 10.843 13.2296 10.6554 13.4397C10.4341 13.689 10.0923 13.8038 9.59654 13.8038H8.9915V15.1035H8.13156V11.3332ZM9.91587 13.0139C9.80663 13.1175 9.68898 13.1568 9.41447 13.1568V13.1596H8.9887V11.9579H9.39206C9.65817 11.9579 9.81783 11.9971 9.92147 12.0895C10.0195 12.182 10.0643 12.3304 10.0643 12.5349C10.0643 12.7562 10.0139 12.9159 9.91587 13.0139ZM12.3808 11.9551H11.2128V11.3332H14.4481L14.3808 11.9551H13.2408V15.1035H12.3808V11.9551Z" fill="#313235"/>
</svg>
