<svg width="24" height="24" viewBox="0 0 24 24" fill="none" xmlns="http://www.w3.org/2000/svg">
<path fill-rule="evenodd" clip-rule="evenodd" d="M21.6385 7.78703C21.6693 7.85986 21.6861 7.94109 21.6861 8.02512V20.3304C21.6861 21.0811 21.0418 21.7141 20.2771 21.7141H8.0951C7.3444 21.7141 6.68894 21.0671 6.68894 20.3304L6.72255 17.5573H4.42284C3.08952 17.5573 2.00269 16.4677 2.00269 15.1315V11.0391C2.00269 9.70299 3.08952 8.61335 4.42284 8.61335H6.68894V3.40889C6.68894 2.68341 7.35841 2.02515 8.0951 2.02515H15.5096C15.7393 2.02515 15.9662 2.11758 16.1287 2.27725L21.42 7.40047C21.532 7.50972 21.5964 7.64417 21.6385 7.78703ZM20.2771 20.4985C20.3752 20.4985 20.4704 20.4032 20.4704 20.3304V8.89627H18.1567C17.1427 8.89627 16.2659 8.56573 15.6217 7.94389C14.9718 7.31364 14.6273 6.4565 14.6273 5.46211V3.24363H8.0923C8.01947 3.24363 7.90462 3.35287 7.89902 3.4117V8.61335H14.2631C15.5993 8.61335 16.6833 9.70299 16.6833 11.0391V15.1315C16.6833 16.4677 15.5965 17.5573 14.2631 17.5573H7.93263L7.89902 20.336C7.89902 20.3864 7.99986 20.4957 8.0923 20.4957H20.2771V20.4985ZM3.21276 15.1343C3.21276 15.801 3.75338 16.3444 4.42004 16.3444H14.2659C14.9326 16.3444 15.4732 15.801 15.4732 15.1343V11.0419C15.4732 10.3753 14.9326 9.83184 14.2659 9.83184H4.42004C3.75338 9.83184 3.21276 10.3753 3.21276 11.0419V15.1343ZM15.8458 3.69741L19.9606 7.68058H18.1595C17.4648 7.68058 16.8822 7.4705 16.4676 7.06994C16.0615 6.67499 15.8458 6.12037 15.8458 5.46211V3.69741ZM12.1791 14.9943V14.4116C12.3948 14.4509 12.6497 14.4761 12.9186 14.4761C13.2211 14.4761 13.4004 14.4369 13.5292 14.3528C13.6581 14.266 13.7281 14.1259 13.7281 13.9271C13.7281 13.7338 13.6581 13.6021 13.5433 13.5209C13.4088 13.4229 13.2015 13.392 12.8234 13.392H12.7197V12.8514H12.8486C13.1875 12.8514 13.3612 12.8094 13.4928 12.6946C13.5797 12.6189 13.6385 12.4957 13.6385 12.3164C13.6385 12.1764 13.5993 12.0559 13.5152 11.9803C13.406 11.8822 13.2239 11.8402 12.9326 11.8402C12.6945 11.8402 12.4256 11.8626 12.2099 11.8935V11.322C12.4592 11.2688 12.7729 11.2408 13.0587 11.2408C13.5236 11.2408 13.9186 11.35 14.1455 11.5769C14.3024 11.7338 14.4004 11.9495 14.4004 12.2576C14.4004 12.6413 14.2323 12.9103 13.9102 13.0727C14.2996 13.2128 14.532 13.5041 14.532 13.9859C14.532 14.2716 14.4452 14.5209 14.2715 14.7002C14.0278 14.9551 13.6329 15.0839 13.0727 15.0839C12.7505 15.0811 12.4256 15.0475 12.1791 14.9943ZM4.26878 11.3108H4.93265L6.10071 13.3752L7.30518 11.3108H7.95224V15.0055H7.18194V12.8766L6.41443 14.1624H5.76738L4.97746 12.8542V15.0055H4.26878V11.3108ZM8.75616 11.3108H10.0251C10.6021 11.3108 10.969 11.3921 11.2071 11.6133C11.406 11.7982 11.504 12.0839 11.504 12.4789C11.504 12.8738 11.4116 13.1708 11.2295 13.3752C11.0139 13.6189 10.6777 13.731 10.1931 13.731H9.59929V15.0055H8.75616V11.3108ZM10.5069 12.9579C10.4004 13.0587 10.2856 13.0979 10.0167 13.0979V13.1007H9.59929V11.9215H9.99425C10.252 11.9215 10.4088 11.9579 10.5125 12.0503C10.6105 12.1428 10.6525 12.2884 10.6525 12.4873C10.6525 12.703 10.6049 12.8598 10.5069 12.9579Z" fill="#313235"/>
</svg>
