<svg width="24" height="24" viewBox="0 0 24 24" fill="none" xmlns="http://www.w3.org/2000/svg">
<path fill-rule="evenodd" clip-rule="evenodd" d="M21.6386 7.78703C21.6694 7.85986 21.6862 7.94109 21.6862 8.02512V20.3304C21.6862 21.0811 21.0419 21.7141 20.2772 21.7141H8.09521C7.34452 21.7141 6.68625 21.0671 6.68625 20.3304L6.71987 17.5573H4.42016C3.08683 17.5573 2 16.4677 2 15.1315V11.0391C2 9.70299 3.08683 8.61335 4.42016 8.61335H6.68625V3.40889C6.68625 2.68341 7.35852 2.02515 8.09521 2.02515H15.5097C15.7394 2.02515 15.9551 2.11198 16.1204 2.26884L21.4201 7.40047C21.5293 7.50692 21.5938 7.64417 21.6386 7.78703ZM20.2772 20.4985C20.3753 20.4985 20.4705 20.4032 20.4705 20.3304V8.89627H18.1568C17.1428 8.89627 16.2688 8.56573 15.6246 7.94389C14.9747 7.31364 14.6302 6.4565 14.6302 5.46211V3.24363H8.09521C8.02238 3.24363 7.90754 3.35287 7.90194 3.4117V8.61335H14.2661C15.6022 8.61335 16.6862 9.70299 16.6862 11.0391V15.1315C16.6862 16.4677 15.6022 17.5573 14.2661 17.5573H7.93555L7.90194 20.336C7.90194 20.3864 8.00278 20.4957 8.09521 20.4957H20.2772V20.4985ZM3.21288 15.1343C3.21288 15.801 3.75349 16.3444 4.42016 16.3444H14.2661C14.9327 16.3444 15.4733 15.801 15.4733 15.1343V11.0419C15.4733 10.3753 14.9327 9.83184 14.2661 9.83184H4.42016C3.75349 9.83184 3.21288 10.3753 3.21288 11.0419V15.1343ZM19.9606 7.67778L19.9635 7.68058V7.67778H19.9606ZM19.9606 7.67778L15.8487 3.69461V5.45931C15.8487 6.11757 16.0644 6.67219 16.4705 7.06714C16.8851 7.4677 17.4677 7.67778 18.1596 7.67778H19.9606ZM11.8291 13.1399C11.8291 12.1259 12.3641 11.4369 13.4705 11.4369C13.7927 11.4369 14.1764 11.5041 14.3865 11.5937L14.2913 12.1343C14.0588 12.0671 13.7787 12.0167 13.5238 12.0167C12.8683 12.0167 12.5994 12.4061 12.5994 13.1119C12.5994 13.4761 12.647 13.7758 12.7899 13.9747C12.9075 14.1399 13.1036 14.2352 13.4173 14.2352C13.535 14.2352 13.6974 14.2212 13.8123 14.2016V13.5181H13.3557V12.9859H14.5462V14.6413C14.238 14.7366 13.745 14.8066 13.3893 14.8066C12.224 14.8094 11.8291 14.168 11.8291 13.1399ZM4.03921 14.2016L4.09243 14.7674C4.32492 14.7982 4.43136 14.8094 4.59103 14.8094C4.95797 14.8094 5.19326 14.7422 5.34172 14.5993C5.50699 14.4341 5.57421 14.2156 5.57421 13.8122V11.4985H4.83472V13.7954C4.83472 14.1567 4.73668 14.2408 4.42296 14.2408C4.35293 14.2408 4.18767 14.2296 4.03921 14.2016ZM7.37813 11.4985H6.26609V14.745H7.00558V13.6245H7.52659C7.95236 13.6245 8.24647 13.5237 8.43695 13.3108C8.59661 13.1315 8.67784 12.871 8.67784 12.5237C8.67784 12.1764 8.59381 11.9271 8.41734 11.7646C8.20726 11.5685 7.88513 11.4985 7.37813 11.4985ZM7.36692 13.0671C7.60502 13.0671 7.70306 13.0335 7.7983 12.9439C7.88233 12.8598 7.92715 12.7198 7.92715 12.5321C7.92715 12.3556 7.88793 12.2296 7.8039 12.1484C7.71426 12.0671 7.57701 12.0335 7.34732 12.0335H6.99998V13.0671H7.36692ZM11.3893 11.4985H9.19885V14.7394H11.4145V14.2044H9.93834V13.3752H11.0532V12.8206H9.93834V12.0335H11.3333L11.3893 11.4985Z" fill="#313235"/>
</svg>
