<svg width="24" height="24" viewBox="0 0 24 24" fill="none" xmlns="http://www.w3.org/2000/svg">
<path fill-rule="evenodd" clip-rule="evenodd" d="M21.6665 7.78703C21.6973 7.85986 21.7141 7.94109 21.7141 8.02512V20.3304C21.7141 21.0811 21.0699 21.7141 20.3052 21.7141H8.12316C7.37246 21.7141 6.7142 21.0671 6.7142 20.3304L6.74782 17.5573H4.4453C3.11198 17.5573 2.02515 16.4705 2.02515 15.1343V11.0391C2.02515 9.70299 3.11198 8.61335 4.4453 8.61335H6.7114V3.40889C6.7114 2.68341 7.38087 2.02515 8.12036 2.02515H15.5349C15.7674 2.02515 15.9859 2.11198 16.1483 2.27445L21.4452 7.40047C21.5601 7.50972 21.6245 7.64417 21.6665 7.78703ZM20.3052 20.4985C20.4032 20.4985 20.4985 20.4032 20.4985 20.3304V8.89627H18.1847C17.1707 8.89627 16.294 8.56573 15.6525 7.94389C15.0027 7.31364 14.6581 6.4565 14.6581 5.46211V3.24363H8.12316C8.05033 3.24363 7.93549 3.35287 7.92988 3.4117V8.61335H14.294C15.6301 8.61335 16.7142 9.70299 16.7142 11.0391V15.1343C16.7142 16.4705 15.6273 17.5573 14.294 17.5573H7.9635L7.92988 20.336C7.92988 20.3864 8.03072 20.4957 8.12316 20.4957H20.3052V20.4985ZM3.24083 15.1343C3.24083 15.801 3.78144 16.3416 4.44811 16.3416H14.294C14.9607 16.3416 15.5013 15.7982 15.5013 15.1343V11.0391C15.5013 10.3725 14.9607 9.82904 14.294 9.82904H4.44811C3.78144 9.82904 3.24083 10.3725 3.24083 11.0391V15.1343ZM19.9858 7.67778L19.9887 7.68058V7.67778H19.9858ZM19.9858 7.67778L15.8738 3.69461V5.45931C15.8738 6.11477 16.0895 6.67219 16.4957 7.06714C16.9102 7.4677 17.4929 7.67778 18.1847 7.67778H19.9858ZM11.4145 13.1932C11.4145 12.0419 12.0223 11.2632 13.2744 11.2632C13.6385 11.2632 14.0755 11.3388 14.3108 11.4397L14.2044 12.0531C13.9411 11.9775 13.6245 11.9187 13.3332 11.9187C12.5909 11.9187 12.2856 12.3584 12.2856 13.1596C12.2856 13.5741 12.3388 13.9131 12.5013 14.1371C12.6357 14.3248 12.857 14.4341 13.21 14.4341C13.3444 14.4341 13.5265 14.4173 13.6553 14.3976V13.6245H13.1399V13.0223H14.4901V14.899C14.1399 15.0055 13.5825 15.0867 13.1792 15.0867C11.8598 15.0839 11.4145 14.3584 11.4145 13.1932ZM4.35007 11.3332H5.61337C6.18759 11.3332 6.55454 11.4145 6.78983 11.6329C6.98871 11.815 7.08675 12.1007 7.08675 12.4929C7.08675 12.885 6.99431 13.182 6.81224 13.3864C6.59656 13.6273 6.26322 13.7422 5.78143 13.7422H5.1904V15.0111H4.35007V11.3332ZM5.60216 13.1119C5.87107 13.1119 5.98311 13.0755 6.09236 12.9719C6.19039 12.8738 6.23801 12.7198 6.23801 12.5041C6.23801 12.3052 6.196 12.1596 6.09796 12.0699C5.99712 11.9775 5.84026 11.9411 5.58255 11.9411H5.1904V13.1119H5.60216ZM8.29683 11.3332H7.67778V15.0083H8.41448V12.7786L10.1035 15.0083H10.7758V11.3332H10.0391V13.6862L8.29683 11.3332Z" fill="#313235"/>
</svg>
