<svg width="24" height="24" viewBox="0 0 24 24" fill="none" xmlns="http://www.w3.org/2000/svg">
<path fill-rule="evenodd" clip-rule="evenodd" d="M19.287 7.99717C19.287 7.91314 19.2702 7.83191 19.2394 7.75908C19.1973 7.61622 19.1357 7.47897 19.0265 7.37533L13.8136 2.2493C13.6512 2.08683 13.4383 2 13.2086 2H5.90889C5.1834 2 4.52234 2.65826 4.52234 3.38375V20.3024C4.52234 21.0391 5.1722 21.6862 5.90889 21.6862H17.9004C18.6511 21.6862 19.287 21.0531 19.287 20.3024V7.99717ZM17.9032 20.4705C17.9985 20.4705 18.0937 20.3753 18.0937 20.3024V8.86832H15.8164C14.8192 8.86832 13.9565 8.53779 13.3234 7.91594C12.682 7.28569 12.3458 6.42855 12.3458 5.43416V3.21568H5.91169C5.83886 3.21568 5.72682 3.32492 5.72121 3.38375V20.3024C5.72121 20.3613 5.81925 20.4705 5.91169 20.4705H17.9032ZM17.5895 7.65264L17.5867 7.64984H17.5895V7.65264ZM17.5867 7.64984H15.8164C15.1329 7.64984 14.5587 7.43975 14.1525 7.03919C13.752 6.64424 13.5391 6.08962 13.5391 5.43136V3.66666L17.5867 7.64984ZM16.1133 18.3781V10.7955L7.6988 10.7815V18.3669L16.1133 18.3781ZM17.1497 10.6638C17.1497 10.1652 16.6707 9.72826 16.1273 9.72826H7.68759C7.13577 9.72826 6.66519 10.1568 6.66519 10.6638V18.4957C6.66519 19.0027 7.13297 19.4313 7.68759 19.4313H16.1273C16.6707 19.4313 17.1497 18.9943 17.1497 18.4957V10.6638ZM9.51672 14.1372C9.04333 14.1372 8.65677 13.745 8.65677 13.2633C8.65677 12.7815 9.04053 12.3893 9.51672 12.3893C9.9901 12.3893 10.3739 12.7815 10.3739 13.2633C10.3739 13.745 9.9901 14.1372 9.51672 14.1372ZM8.36266 17.4061C8.4635 17.5321 8.61196 17.5966 8.76042 17.5966C8.87806 17.5966 8.99571 17.5574 9.09655 17.4761L11.1862 15.7058L12.5979 17.0588C12.8052 17.2576 13.1329 17.2464 13.329 17.0364C13.5251 16.8235 13.5167 16.4901 13.3066 16.2913L12.5895 15.605L13.7156 14.6946L14.8976 15.6134C15.1217 15.7899 15.4495 15.7478 15.6231 15.5153C15.7968 15.2829 15.752 14.9523 15.5251 14.7759L14.0237 13.605C13.836 13.4565 13.5727 13.4593 13.3878 13.6106L11.8276 14.8739L11.5587 14.6162C11.3682 14.4341 11.0741 14.4257 10.8725 14.5938L8.42989 16.6638C8.2114 16.8515 8.18059 17.182 8.36266 17.4061Z" fill="#313235"/>
</svg>
