<svg width="24" height="24" viewBox="0 0 24 24" fill="none" xmlns="http://www.w3.org/2000/svg">
<path fill-rule="evenodd" clip-rule="evenodd" d="M16.6989 9.7564C17.2087 10.1205 17.6793 10.5323 18.1079 10.9889C19.2311 12.1906 19.8166 13.7424 19.755 15.3558C19.6961 16.9665 18.9987 18.4651 17.7942 19.5743C16.0435 21.1905 14.1107 21.4735 14.0295 21.4847C13.4328 21.6219 12.8278 21.6863 12.22 21.6863C12.1779 21.6863 12.1359 21.6833 12.0939 21.6803C12.0659 21.6783 12.0379 21.6763 12.0099 21.6751C11.9972 21.6761 11.9845 21.6772 11.9718 21.6785C11.945 21.681 11.9179 21.6835 11.8894 21.6835C11.7073 21.6835 11.5253 21.6639 11.3404 21.6387C9.14993 21.409 7.0631 20.3334 5.71576 18.6107C2.31241 14.2606 5.11632 7.56872 8.62332 4.68638C10.1947 3.39786 12.0603 2.44829 13.8754 2.01691C14.0967 1.96369 14.3292 2.04212 14.4749 2.21859C14.6205 2.39506 14.6541 2.63876 14.5617 2.84884C14.4917 3.01411 12.8502 6.94408 16.6989 9.7564ZM16.9875 18.6808C16.4636 19.1625 15.8642 19.5547 15.2143 19.8432C16.5925 17.6247 15.3236 14.4062 13.7242 12.9973C12.9847 12.3446 12.1023 11.8656 11.2424 11.6443C10.9202 11.5631 10.5925 11.762 10.5141 12.0841C10.4833 12.2102 10.4945 12.3418 10.5421 12.4595L10.5431 12.4621C10.5721 12.5395 11.2028 14.2212 9.69055 15.4062C9.44125 15.5967 9.21436 15.8096 9.01268 16.0421C8.21436 16.9637 7.98467 18.2522 8.41884 19.3922C7.74657 18.9833 7.14153 18.4735 6.65694 17.8544C3.74938 14.1373 6.32921 8.12615 9.38242 5.61915C10.5029 4.69478 11.7718 3.97489 13.1387 3.4847C12.797 5.15696 12.7101 8.33063 16.0015 10.7396C16.4524 11.0617 16.8698 11.4259 17.234 11.818C18.1359 12.7816 18.6037 14.0225 18.5589 15.3082C18.5113 16.5939 17.9538 17.79 16.9875 18.6808ZM11.2172 20.3866C11.2116 20.3866 10.5785 20.2746 10.0071 19.7088C9.22556 18.9385 9.18635 17.678 9.91183 16.8432C10.0603 16.6724 10.2312 16.5127 10.4216 16.367C11.6373 15.4118 11.937 14.1682 11.8922 13.185C12.2676 13.3838 12.6177 13.6247 12.937 13.9076C14.1835 15.0057 15.2844 17.7396 14.1051 19.3558C13.6233 20.0085 12.8754 20.4118 12.0659 20.4595C12.0539 20.4595 12.0416 20.4598 12.0292 20.4601H12.0291H12.029C12.0038 20.4607 11.9782 20.4613 11.9538 20.4595C11.8894 20.4623 11.8222 20.4595 11.755 20.4567L11.755 20.4567C11.6467 20.4492 11.5408 20.4342 11.435 20.4193L11.4347 20.4193C11.3819 20.4118 11.3291 20.4044 11.276 20.3978C11.2673 20.3949 11.2572 20.3935 11.2467 20.3921L11.2466 20.3921C11.2368 20.3907 11.2266 20.3893 11.2172 20.3866Z" fill="#313235"/>
</svg>
