<svg width="24" height="24" viewBox="0 0 24 24" fill="none" xmlns="http://www.w3.org/2000/svg">
<path fill-rule="evenodd" clip-rule="evenodd" d="M21.6862 7.98329C21.6862 7.18778 21.0336 6.54352 20.2297 6.54352H16.5826V4.87966C16.5826 4.20739 15.9412 3.67798 15.1232 3.67798H8.55741C7.73949 3.67798 7.10083 4.20739 7.10083 4.87966V6.54072H3.45658C2.65266 6.54072 2 7.18778 2 7.98049V19.4679C2 20.2606 2.65266 20.9048 3.45658 20.9048H20.2297C21.0336 20.9048 21.6862 20.2606 21.6862 19.4679V7.98329ZM8.33332 4.94688V6.54352H15.3557V4.94688C15.2857 4.91047 15.2073 4.89086 15.1288 4.89366H8.56021C8.48178 4.89086 8.40335 4.90767 8.33332 4.94688ZM20.4566 19.4651V7.98049C20.4566 7.85444 20.3557 7.7536 20.2297 7.7536H3.45658C3.33053 7.7536 3.22969 7.85444 3.22969 7.98049V19.4651C3.22969 19.5883 3.33053 19.6892 3.45658 19.6892H20.2269C20.3529 19.692 20.4538 19.5911 20.4566 19.4651ZM15.3445 14.3446V13.0981H13.0896C12.7535 13.1009 12.479 12.8292 12.4734 12.4931V10.269H11.2073V12.4931C11.2073 12.8264 10.9328 13.1009 10.5938 13.1009L8.33892 13.1037V14.3502L10.5938 14.3474C10.9356 14.3474 11.2101 14.6191 11.2101 14.9525L11.2129 17.1766L12.479 17.1794L12.4762 14.9553C12.4762 14.7956 12.5406 14.6387 12.6554 14.5267C12.7703 14.4119 12.9272 14.3474 13.0896 14.3474L15.3445 14.3446ZM16.577 12.8348C16.577 12.3278 16.084 11.8852 15.5266 11.8852H13.7031V10.0925C13.7031 9.54071 13.2549 9.05612 12.7423 9.05612H10.9412C10.4286 9.05612 9.98038 9.54071 9.98038 10.0925V11.888H8.16245C7.59383 11.888 7.11204 12.3222 7.11204 12.8376V14.6163C7.11204 15.1317 7.59383 15.5659 8.16526 15.5659H9.98598V17.3586C9.98598 17.9189 10.4258 18.395 10.9468 18.395H12.7479C13.2689 18.395 13.7087 17.9217 13.7087 17.3586V15.5631H15.5266C16.084 15.5631 16.577 15.1177 16.577 14.6135V12.8348Z" fill="#313235"/>
</svg>
