<svg width="24" height="24" viewBox="0 0 24 24" fill="none" xmlns="http://www.w3.org/2000/svg">
<path fill-rule="evenodd" clip-rule="evenodd" d="M16.905 6.80671C19.2299 6.15125 21.003 7.16526 21.6529 9.5294C22.2999 11.8991 21.2971 13.7087 18.9694 14.3669C18.6585 14.4482 18.3392 14.4902 18.017 14.493C18.3588 14.7759 18.6585 15.0784 18.8742 15.4033V15.4061C19.5352 16.4005 19.7901 17.4313 19.6137 18.3809C19.4372 19.3361 18.8266 20.1932 17.8518 20.8655C17.0647 21.4117 16.2747 21.6806 15.5268 21.6806C14.3784 21.6806 13.3252 21.0504 12.5044 19.8207C12.314 19.535 12.1655 19.1876 12.0423 18.8179C11.9162 19.1932 11.7649 19.5462 11.5717 19.8375C10.9106 20.8291 10.0675 21.4509 9.1319 21.6302C8.94142 21.6694 8.74535 21.6862 8.54927 21.6862C7.78736 21.6862 6.99465 21.4117 6.22434 20.8739C4.23275 19.5014 3.849 17.4622 5.20193 15.4201C5.41482 15.098 5.70894 14.7955 6.04507 14.5154C5.68653 14.5098 5.33919 14.4706 5.03107 14.3809C2.70614 13.7227 1.70614 11.9131 2.3532 9.54341C2.66692 8.38654 3.27477 7.5238 4.1039 7.04761C4.93303 6.57422 5.96944 6.49579 7.10109 6.82072C7.55767 6.95237 8.01986 7.21288 8.47364 7.535C8.27756 6.97758 8.15151 6.42576 8.15431 5.91876C8.15431 3.46778 9.59689 2 12.0114 2H12.0142C14.426 2.0112 15.8602 3.48459 15.8518 5.94397C15.8518 6.43417 15.7257 6.97198 15.5353 7.5182C15.989 7.19607 16.4512 6.93557 16.905 6.80671ZM14.6277 5.93837C14.6333 4.18487 13.7285 3.2549 12.0086 3.2465C10.2888 3.2465 9.3784 4.17367 9.3784 5.92436C9.3728 6.73389 9.8882 7.99159 10.7986 9.42296C10.8116 9.41735 10.8272 9.41424 10.8428 9.41113C10.8505 9.40957 10.8583 9.40802 10.8658 9.40615C11.0058 9.36133 11.1515 9.32772 11.3084 9.29971L11.3616 9.29131L11.4148 9.2829C11.6025 9.25489 11.7958 9.23808 12.003 9.23808C12.1963 9.24088 12.3896 9.25209 12.5801 9.2801C12.6249 9.2857 12.6697 9.29411 12.7145 9.30251C12.8462 9.32492 12.9778 9.35573 13.1067 9.39495C13.1183 9.39842 13.1308 9.40094 13.1435 9.40349L13.1435 9.40349C13.1616 9.40711 13.1799 9.41079 13.1963 9.41735C14.1123 7.98318 14.6277 6.73108 14.6277 5.93837ZM14.947 12.7031C14.9778 12.3613 14.9694 12.0196 14.9246 11.6807C14.9204 11.6526 14.9155 11.6246 14.9106 11.5966C14.9057 11.5686 14.9008 11.5406 14.8966 11.5126C14.877 11.4005 14.8518 11.2857 14.821 11.1765C14.8154 11.1578 14.8101 11.1388 14.8048 11.1198C14.7942 11.0818 14.7836 11.0439 14.7705 11.0084C14.7397 10.9188 14.7033 10.8319 14.6641 10.7451C14.6137 10.633 14.5549 10.5238 14.4876 10.423L14.4372 10.3417C14.4301 10.3322 14.4235 10.3212 14.4167 10.3099C14.4075 10.2947 14.3981 10.279 14.3868 10.2661C15.4708 9.0336 16.4904 8.22128 17.2299 8.01119C18.8882 7.53781 20.0086 8.18206 20.4708 9.86553C20.933 11.5546 20.2999 12.6975 18.6417 13.1708C17.891 13.3809 16.5605 13.2129 14.947 12.7031ZM18.412 18.1484C18.2943 18.7787 17.8742 19.3445 17.1655 19.8347C15.7453 20.8179 14.4848 20.5714 13.5184 19.1204C13.0535 18.4229 12.7874 17.0168 12.7734 15.2213C12.7883 15.2183 12.8017 15.2137 12.8147 15.2092C12.8261 15.2053 12.8372 15.2015 12.849 15.1989C12.9946 15.168 13.1375 15.126 13.2776 15.0728C13.3028 15.063 13.3273 15.0525 13.3518 15.042C13.3763 15.0315 13.4008 15.021 13.426 15.0112C13.5465 14.958 13.6613 14.8963 13.7677 14.8291C13.7875 14.8154 13.8082 14.8034 13.8283 14.7916L13.8283 14.7916L13.8284 14.7915C13.8452 14.7817 13.8617 14.7721 13.877 14.7619C14.0114 14.6638 14.1347 14.5574 14.2467 14.437C14.2599 14.4222 14.2721 14.4054 14.2844 14.3885L14.2844 14.3885C14.2931 14.3765 14.3019 14.3645 14.3112 14.3529C14.3952 14.2521 14.4708 14.1428 14.5409 14.028C14.5479 14.0168 14.5556 14.007 14.5633 13.9972C14.571 13.9874 14.5787 13.9776 14.5857 13.9664C16.2187 14.6442 17.398 15.4117 17.8658 16.1092C18.3448 16.8319 18.5296 17.5182 18.412 18.1484ZM8.90501 20.4061C9.52406 20.2857 10.0815 19.8599 10.5633 19.1372C11.0255 18.4397 11.2916 17.0364 11.3028 15.2381C11.2818 15.2339 11.2621 15.2276 11.2425 15.2213C11.2229 15.215 11.2033 15.2087 11.1823 15.2045C10.8658 15.1456 10.5633 15.0308 10.2888 14.8627C10.2706 14.8515 10.2509 14.841 10.2313 14.8305C10.2117 14.82 10.1921 14.8095 10.1739 14.7983C10.0367 14.7059 9.91341 14.5994 9.80137 14.4818C9.78596 14.465 9.77195 14.4475 9.75795 14.4299L9.75794 14.4299C9.74394 14.4124 9.72993 14.3949 9.71453 14.3781C9.6333 14.2829 9.56047 14.1821 9.49324 14.0756C9.48624 14.063 9.47714 14.0518 9.46804 14.0406L9.46803 14.0406L9.46803 14.0406C9.45893 14.0294 9.44982 14.0182 9.44282 14.0056C7.82938 14.6807 6.66692 15.4398 6.21314 16.1232C5.24955 17.577 5.49045 18.8627 6.91061 19.8431C7.6193 20.3361 8.28596 20.521 8.90501 20.4061ZM5.3588 13.1821C4.53247 12.9468 3.95824 12.5462 3.65012 11.9888C3.34199 11.4314 3.30278 10.7227 3.53247 9.87954C3.76216 9.0392 4.15712 8.45097 4.70334 8.13724C5.03107 7.95517 5.40361 7.86274 5.77896 7.87114C6.08429 7.87114 6.41482 7.92156 6.77056 8.0252C7.51005 8.23808 8.52406 9.04761 9.59969 10.2773C9.49044 10.4258 9.40361 10.591 9.32518 10.7703C9.30945 10.8057 9.29648 10.8424 9.28337 10.8796C9.2778 10.8954 9.2722 10.9113 9.26635 10.9272C9.21313 11.0756 9.16831 11.2297 9.1347 11.3837C9.12961 11.4117 9.12395 11.4397 9.11823 11.4679C9.11136 11.5019 9.1044 11.5362 9.09829 11.5714C9.06187 11.8039 9.04226 12.0364 9.04226 12.2717C9.04226 12.4258 9.04787 12.5742 9.06187 12.7199C7.45123 13.2297 6.1207 13.4033 5.3588 13.1821ZM12.1431 14.0392C12.0955 14.0392 12.0507 14.042 12.003 14.0476H11.9274C10.7706 14.0224 10.4792 13.4566 10.3616 13.0336C10.356 13.0112 10.3476 12.9888 10.3392 12.9692C10.3263 12.9197 10.3183 12.867 10.3103 12.8134L10.3028 12.7647C10.3001 12.7446 10.2961 12.7252 10.2921 12.7054L10.2921 12.7054C10.2877 12.6839 10.2833 12.662 10.2804 12.6386C10.2692 12.5154 10.2607 12.3893 10.2607 12.2633C10.2607 11.5686 10.44 11.0784 10.793 10.8011C10.8068 10.7907 10.8228 10.7814 10.8449 10.7685L10.8449 10.7685C10.8586 10.7606 10.8745 10.7513 10.8938 10.7395C11.1683 10.5686 11.5409 10.4818 12.0002 10.4818C12.4624 10.4818 12.8294 10.5658 13.0983 10.7311C13.1123 10.7423 13.1767 10.7843 13.1935 10.7927C13.5549 11.0644 13.7397 11.5574 13.7397 12.2633C13.7453 12.5098 13.7173 12.7535 13.6557 12.9944V12.9972C13.5353 13.4622 13.2523 13.9972 12.1431 14.0392Z" fill="#313235"/>
</svg>
