<svg width="24" height="24" viewBox="0 0 24 24" fill="none" xmlns="http://www.w3.org/2000/svg">
<path fill-rule="evenodd" clip-rule="evenodd" d="M3.46499 20.2366H20.2241C21.0308 20.2366 21.6863 19.5812 21.6863 18.7744V7.48871C21.6863 6.68199 21.0308 6.02653 20.2241 6.02653H12.07V5.29544C12.07 4.48871 11.4118 3.83325 10.605 3.83325H3.46499C2.65546 3.83325 2 4.48871 2 5.29544V18.7716C2 19.5812 2.65826 20.2366 3.46499 20.2366ZM3.27731 5.29544C3.27731 5.18899 3.35854 5.10776 3.46499 5.10776H10.605C10.7115 5.10776 10.7927 5.18899 10.7927 5.29544V6.66518C10.7927 7.01813 11.0784 7.30384 11.4314 7.30384H20.2241C20.3305 7.30384 20.4118 7.38507 20.4118 7.49152V18.7744C20.4118 18.8781 20.3277 18.9621 20.2241 18.9621H3.46499C3.35854 18.9621 3.27731 18.8809 3.27731 18.7744V5.29544Z" fill="#313235"/>
</svg>
