<svg width="24" height="24" viewBox="0 0 24 24" fill="none" xmlns="http://www.w3.org/2000/svg">
<path fill-rule="evenodd" clip-rule="evenodd" d="M21.7058 8.61895L21.7142 18.9046C21.7142 20.9411 20.2548 21.6918 19.0027 21.717H18.8599C17.5321 21.7002 16.0699 20.9495 16.0699 18.8934V15.0223C16.0671 14.1736 15.3781 13.4873 14.5293 13.4873H14.0475V20.3416C14.0475 21.0755 13.3893 21.7198 12.6386 21.7198H3.43411C2.68341 21.7198 2.02515 21.0755 2.02515 20.3416V3.42288C2.02795 2.70299 2.70022 2.04753 3.43691 2.04753H12.6414C13.3781 2.04753 14.0503 2.70579 14.0503 3.42568V12.2772H14.5321C16.0475 12.2772 17.2772 13.5041 17.28 15.0195L17.2828 18.8906C17.2828 20.28 18.2352 20.5013 18.8038 20.5097H18.9859C19.5545 20.4985 20.5097 20.2772 20.5097 18.9046L20.5041 10.8094C20.1035 11.0111 19.661 11.1203 19.21 11.1315L19.0419 11.1343H18.9719C18.4425 11.1259 16.4649 10.9355 16.4649 8.5041C16.4649 6.42847 17.8963 5.9971 18.6386 5.91307L15.8122 3.05593C15.5769 2.81783 15.5797 2.43688 15.8178 2.20159C16.0559 1.9663 16.4369 1.9691 16.6722 2.20719L21.0055 6.58534C21.0138 6.59364 21.0224 6.60194 21.0311 6.61035C21.0489 6.62746 21.067 6.64498 21.0839 6.66377L21.0895 6.67217L21.0923 6.67777C21.4509 7.06713 21.7114 7.64696 21.7114 8.5153C21.7114 8.54739 21.7092 8.57512 21.7068 8.60617L21.7058 8.61895ZM12.6414 3.25481C12.717 3.25481 12.8347 3.36685 12.8403 3.42568V20.336C12.8403 20.3976 12.7394 20.5097 12.6414 20.5097H3.43691C3.33887 20.5097 3.23803 20.4004 3.23803 20.3388V3.42848C3.24363 3.36685 3.36128 3.25481 3.43691 3.25481H12.6414ZM20.4985 8.71698C20.4733 9.16796 20.3136 9.90466 19.1876 9.92426L19.0335 9.92146H18.9803C17.6666 9.90466 17.6666 8.88225 17.6666 8.4985C17.6666 8.11755 17.6666 7.10354 18.9579 7.09234H19.0027L19.168 7.09514C19.647 7.10634 19.9523 7.2464 20.1484 7.43687L20.1988 7.48729C20.5013 7.82063 20.5041 8.28561 20.5041 8.5153V8.54892C20.5041 8.55312 20.5027 8.55732 20.5013 8.56152C20.4999 8.56572 20.4985 8.56993 20.4985 8.57413V8.71698ZM10.4341 5.78141L10.4285 8.78141L5.77024 8.77861L5.77864 5.78141H10.4341ZM10.605 4.57694C11.1596 4.57694 11.6442 5.11755 11.6442 5.7366V8.82623C11.6442 9.45368 11.168 9.98589 10.605 9.98589H5.60497C5.04195 9.98589 4.56296 9.45368 4.56296 8.82623V5.7366C4.56296 5.11755 5.05035 4.57694 5.60497 4.57694H10.605Z" fill="#313235"/>
</svg>
