<svg width="24" height="24" viewBox="0 0 24 24" fill="none" xmlns="http://www.w3.org/2000/svg">
<path fill-rule="evenodd" clip-rule="evenodd" d="M17.7397 6.95491H20.3784C21.1459 6.95491 21.8434 7.73082 21.8434 8.58516V11.5123C21.8434 12.3331 21.2663 13.0249 20.5492 13.1258V20.2126C20.5492 21.0977 19.877 21.8456 19.0843 21.8456H4.85739C4.06467 21.8456 3.3924 21.0977 3.3924 20.2126V13.1202C2.70613 12.9913 2.15991 12.3106 2.15991 11.5151V8.58796C2.15991 7.73362 2.85739 6.95491 3.6249 6.95491H6.20192C5.83218 6.58236 5.57447 6.15939 5.47363 5.69721C5.32237 5.00533 5.49884 4.26024 5.98063 3.53755C6.96383 2.06696 8.51284 1.74763 10.0254 2.70562C10.8518 3.22662 11.5212 4.40029 11.9722 5.4227C12.426 4.40029 13.0927 3.22942 13.919 2.70562C15.4316 1.74763 16.9806 2.06696 17.9638 3.53755C18.4456 4.26024 18.6221 5.00533 18.4708 5.69721C18.37 6.15939 18.1123 6.58236 17.7397 6.95491ZM14.6165 3.74763C15.5296 3.1706 16.2943 3.32746 16.8882 4.21542C17.1851 4.66079 17.2971 5.06976 17.2159 5.4367C17.1375 5.80085 16.863 6.13418 16.4064 6.4227C15.6837 6.87928 13.8714 6.89048 12.7845 6.80365C13.1459 5.79805 13.8882 4.20982 14.6165 3.74763ZM8.31677 3.4087C7.83778 3.4087 7.41481 3.6776 7.05346 4.21822C6.75654 4.66079 6.6445 5.07256 6.72573 5.44231C6.80416 5.80645 7.07867 6.13978 7.53525 6.4283C8.25514 6.88488 10.0675 6.89609 11.1543 6.80925C10.7958 5.80085 10.0535 4.20982 9.32517 3.75043C8.96663 3.52354 8.62769 3.4087 8.31677 3.4087ZM3.44002 8.58516C3.44002 8.39188 3.58848 8.21821 3.6249 8.19861H11.3084V11.8989H3.6361C3.57728 11.8765 3.44282 11.7224 3.44282 11.5123V8.58516H3.44002ZM20.5604 11.5151C20.5604 11.728 20.4204 11.8877 20.3756 11.9017H12.5857V8.20141L20.3476 8.19861C20.4092 8.22101 20.5604 8.39468 20.5604 8.58796V11.5151ZM19.0843 20.5991H12.5885V13.1454H19.2691V20.2126C19.2663 20.4255 19.1263 20.5851 19.0843 20.5991ZM4.67251 13.1454V20.2126C4.67251 20.4255 4.81257 20.5823 4.87139 20.5991H11.3056V13.1454H4.67251Z" fill="#313235"/>
</svg>
