<svg width="24" height="24" viewBox="0 0 24 24" fill="none" xmlns="http://www.w3.org/2000/svg">
<path fill-rule="evenodd" clip-rule="evenodd" d="M12.0196 21.7787H12.0364C12.0784 21.7787 12.1176 21.7787 12.1596 21.7731H12.1765C12.3109 21.7675 12.4454 21.7479 12.577 21.7171C13.0364 21.6162 13.4734 21.4201 13.8543 21.1428C14.3109 20.8151 14.8459 20.2745 15 20.1148C15.014 20.1008 15.0252 20.0868 15.0364 20.0728L15.0364 20.0728C16.6022 18.4566 17.5238 17.2997 18.6751 15.5098C20.1316 13.2493 21.1288 11.0084 21.6442 8.84592C22.2045 6.49297 21.7423 4.53779 20.3473 3.34171C19.5378 2.64704 18.4342 2.22967 17.2381 2.16804C15.9804 2.10362 14.6751 2.42295 13.4678 3.09241C13.0532 3.32211 12.6274 3.5658 12.1681 3.84031C12.0728 3.89073 11.9608 3.89073 11.8683 3.84031C11.4061 3.5686 10.9832 3.32211 10.5714 3.09521C9.36133 2.42295 8.05601 2.10362 6.7983 2.16804C5.60503 2.22967 4.49858 2.64704 3.68906 3.33891C2.2941 4.53779 1.83192 6.49017 2.39214 8.84311C2.90755 11.0084 3.90755 13.2521 5.36133 15.5098C6.52379 17.3137 7.45096 18.4762 9.0392 20.1148C9.19326 20.2717 9.73108 20.8151 10.1877 21.1456C10.5686 21.4229 11.0056 21.6162 11.465 21.7199C11.5966 21.7507 11.7311 21.7675 11.8655 21.7759H11.8823C11.9244 21.7787 11.9692 21.7787 12.0196 21.7787ZM12.1064 20.6582H12.0196V20.661H11.9328C11.8627 20.6554 11.7899 20.647 11.7199 20.6302L11.7031 20.6274C11.3921 20.5574 11.098 20.4229 10.8403 20.2353C10.5378 20.0168 10.112 19.6162 9.84312 19.3361C8.2941 17.7367 7.43416 16.661 6.3025 14.9047C4.91595 12.7507 3.96917 10.6246 3.48178 8.58541C3.25208 7.62183 3.21847 6.75068 3.37813 5.99998C3.5378 5.25488 3.88794 4.64704 4.42015 4.19045C5.042 3.65544 5.90755 3.33331 6.85713 3.28569C7.90475 3.23247 9.00278 3.50418 10.0252 4.07561C10.4286 4.2969 10.8431 4.53779 11.2969 4.8067L11.3025 4.8095C11.7423 5.0616 12.2801 5.0616 12.7199 4.8151L12.7311 4.8095C13.1849 4.54059 13.6022 4.2997 14.0084 4.07561C15.0336 3.50418 16.1316 3.23247 17.1849 3.28289C18.1316 3.33331 18.9972 3.65264 19.6218 4.18765C20.1512 4.64423 20.5014 5.25208 20.661 5.99718C20.8207 6.74788 20.7843 7.61902 20.5546 8.58261C20.0672 10.619 19.1176 12.7451 17.7311 14.9019C16.5994 16.6582 15.7395 17.7367 14.1905 19.3333C14.1793 19.3445 14.1681 19.3585 14.1569 19.3725L14.1568 19.3725C13.8851 19.6498 13.4874 20.0252 13.1989 20.2325C12.9412 20.4229 12.647 20.5546 12.3361 20.6246L12.3193 20.6274C12.2493 20.6442 12.1793 20.6554 12.1064 20.6582Z" fill="#313235"/>
</svg>
