<svg width="24" height="24" viewBox="0 0 24 24" fill="none" xmlns="http://www.w3.org/2000/svg">
<path fill-rule="evenodd" clip-rule="evenodd" d="M12.2549 2.0112C12.0308 2.0028 11.7703 2 11.5182 2H11.3221C9.34733 2.01681 2 2.69748 2 11.8123C2 20.9411 9.41735 21.6554 11.3949 21.6862C11.4958 21.689 11.5994 21.689 11.7031 21.689C11.8991 21.689 12.098 21.6862 12.2941 21.6834C14.1708 21.647 21.6862 20.9439 21.6862 11.8711C21.6862 2.81793 14.1821 2.05602 12.2549 2.0112ZM11.3333 3.22969H11.5182C11.7535 3.22969 11.9888 3.23249 12.2241 3.23809C14.7003 3.29972 20.4538 4.2577 20.4566 11.8683C20.4566 19.479 14.7339 20.4061 12.2745 20.451C12.1008 20.4538 11.9047 20.4566 11.7031 20.4566C11.605 20.4566 11.507 20.4566 11.4117 20.4538C8.95237 20.4201 3.23249 19.507 3.23249 11.8123C3.23249 4.13165 8.89635 3.2521 11.3333 3.22969ZM15.6722 6.04481C16.2605 6.04481 16.7395 6.521 16.7395 7.11204V16.577C16.7395 17.1652 16.2633 17.6442 15.6722 17.6442H13.5126C12.9244 17.6442 12.4454 17.168 12.4454 16.577V13.6554H11.2409V16.5742C11.2409 17.1624 10.7619 17.6414 10.1737 17.6386H8.014C7.42576 17.6386 6.94677 17.1624 6.94677 16.5714V7.11204C6.94677 6.5238 7.42296 6.04481 8.014 6.04481H10.1737C10.7619 6.04481 11.2409 6.521 11.2409 7.10924V9.90755H12.4426V7.11204C12.4426 6.5238 12.9187 6.04481 13.5098 6.04481H15.6722ZM13.5126 7.11204H15.6722V16.577H13.5126V12.591H10.1737V16.577H8.014V7.11204H10.1737V10.972H13.5126V7.11204Z" fill="#313235"/>
</svg>
