<svg width="24" height="24" viewBox="0 0 24 24" fill="none" xmlns="http://www.w3.org/2000/svg">
<path fill-rule="evenodd" clip-rule="evenodd" d="M3.43137 19.2899H20.2549C21.0448 19.2899 21.6863 18.6204 21.6891 17.7997V6.01254C21.6891 5.19181 21.0476 4.52515 20.2577 4.52515H3.43137C2.64146 4.52515 2 5.19181 2 6.01254V17.7997C2 18.6204 2.64146 19.2899 3.43137 19.2899ZM3.20728 6.01254C3.20448 5.88649 3.30532 5.78285 3.43137 5.78005H20.2577C20.3838 5.78285 20.4846 5.88649 20.4818 6.01254V17.7997C20.4846 17.9257 20.3838 18.0293 20.2577 18.0321H3.43137C3.30532 18.0293 3.20448 17.9257 3.20728 17.7997V6.01254ZM10.8627 14.3039H4.62185C4.28852 14.3039 4.01961 14.0237 4.01961 13.6764C4.01961 13.3291 4.29132 13.049 4.62185 13.049H10.8627C11.1961 13.049 11.465 13.3291 11.465 13.6764C11.465 14.0237 11.1933 14.3039 10.8627 14.3039ZM4.62185 10.9537H8.85714C9.18768 10.9537 9.45938 10.6736 9.46218 10.3263C9.46218 9.97893 9.19048 9.69882 8.85714 9.69882H4.62185C4.28852 9.69882 4.01681 9.97893 4.01681 10.3263C4.01681 10.6736 4.28852 10.9537 4.62185 10.9537ZM16.1148 8.08257C16.6835 8.08257 17.1289 8.23943 17.437 8.54756C17.7563 8.86688 17.9188 9.34307 17.9188 9.95932C17.9188 10.5756 17.7563 11.049 17.437 11.3711C17.1289 11.6792 16.6835 11.8333 16.1148 11.8333C15.5462 11.8333 15.1008 11.6764 14.7955 11.3711C14.4762 11.0518 14.3165 10.5784 14.3165 9.95932C14.3165 9.34307 14.4762 8.86968 14.7955 8.55036C15.1036 8.23663 15.549 8.08257 16.1148 8.08257ZM15.5238 9.32907C15.6611 9.18901 15.9524 9.1694 16.1148 9.1694C16.2801 9.1694 16.5714 9.19181 16.7115 9.33187C16.8543 9.47193 16.8739 9.78565 16.8739 9.95932C16.8739 10.133 16.8543 10.4439 16.7143 10.584C16.6106 10.6876 16.3978 10.7436 16.1148 10.7436C15.8347 10.7436 15.6247 10.6876 15.521 10.584C15.3838 10.4467 15.3613 10.133 15.3613 9.95932C15.3613 9.78565 15.3838 9.46912 15.5238 9.32907ZM17.2157 12.6512C17.8824 12.6512 18.4314 12.8641 18.8011 13.2618C19.1401 13.6288 19.3193 14.1386 19.3193 14.7352V15.3599C19.3193 15.4775 19.2269 15.5728 19.1148 15.5728H13.1233C13.0084 15.5728 12.916 15.4775 12.9188 15.3627V14.7352C12.9188 14.1386 13.098 13.6288 13.4342 13.2618C13.8011 12.8641 14.3501 12.6512 15.0168 12.6512H17.2157ZM15.0168 13.7408H17.2157C17.4762 13.7408 17.8347 13.7885 18.042 14.0181C18.1569 14.1498 18.2269 14.3123 18.2493 14.4859H13.9804C14.0084 14.3207 14.0672 14.1498 14.1877 14.0181C14.3978 13.7885 14.7535 13.7408 15.0168 13.7408Z" fill="#313235"/>
</svg>
