<svg width="24" height="24" viewBox="0 0 24 24" fill="none" xmlns="http://www.w3.org/2000/svg">
<path fill-rule="evenodd" clip-rule="evenodd" d="M12 1C5.93488 1 1 5.93488 1 12C1 18.0651 5.93488 23 12 23C18.0651 23 23 18.0651 23 12C23 5.93488 18.0651 1 12 1ZM10.625 6.95787C10.625 6.19848 11.2406 5.58287 12 5.58287C12.7594 5.58287 13.375 6.19848 13.375 6.95787C13.375 7.71727 12.7594 8.33287 12 8.33287C11.2406 8.33287 10.625 7.71727 10.625 6.95787ZM10.625 11.6329C10.625 10.8244 11.241 10.1671 12 10.1671C12.759 10.1671 13.375 10.8244 13.375 11.6329V16.0329C13.375 16.8427 12.759 17.5 12 17.5C11.241 17.5 10.625 16.8441 10.625 16.0329V11.6329ZM2.83288 12C2.83818 17.0607 6.93934 21.1618 12 21.1671C17.0607 21.1618 21.1618 17.0607 21.1671 12C21.1618 6.93934 17.0607 2.83818 12 2.83288C6.93934 2.83818 2.83818 6.93934 2.83288 12Z" fill="#313235"/>
</svg>
