<svg width="24" height="24" viewBox="0 0 24 24" fill="none" xmlns="http://www.w3.org/2000/svg">
<path fill-rule="evenodd" clip-rule="evenodd" d="M4.63016 19.3024C6.30523 20.9158 8.7422 21.7338 11.8738 21.7338C15.0083 21.7338 17.4453 20.9158 19.1175 19.2996C20.8542 17.6273 21.7366 15.1259 21.7366 11.871C21.7366 8.61613 20.857 6.11474 19.1175 4.43967C17.4425 2.82623 15.0055 2.0083 11.8738 2.0083C8.7422 2.0083 6.30803 2.82903 4.63296 4.44247C2.89627 6.11754 2.01392 8.61893 2.01392 11.8738C2.01392 15.1287 2.89347 17.6273 4.63016 19.3024ZM3.6874 8.05031C4.49142 5.66212 6.17 4.13721 8.70938 3.48842C8.29174 3.92194 7.90887 4.44609 7.56573 5.05591C7.0724 5.93339 6.68544 6.94838 6.41671 8.05031H3.6874ZM11.2632 8.05031V3.23048C10.2554 3.42171 9.30356 4.24705 8.54052 5.60493C8.13556 6.32607 7.80979 7.15228 7.57079 8.05031H11.2632ZM11.2632 9.17075H7.32426C7.17335 10.026 7.09514 10.9286 7.09514 11.8542C7.09514 13.0064 7.21631 14.1228 7.44803 15.1567H11.2632V9.17075ZM11.2632 16.2772H7.753C7.96682 16.9376 8.23045 17.5514 8.54052 18.1035C9.30116 19.459 10.2549 20.2862 11.2632 20.4779V16.2772ZM12.3836 16.2772H15.681C15.4671 16.9376 15.2035 17.5514 14.8934 18.1035C14.1844 19.3654 13.3122 20.1674 12.3836 20.4279V16.2772ZM15.9859 15.1567H12.3836V9.17075H16.1097C16.2606 10.026 16.3388 10.9286 16.3388 11.8542C16.3388 13.0064 16.2177 14.1228 15.9859 15.1567ZM16.8511 16.2772C16.5975 17.1412 16.2677 17.942 15.8682 18.6525C15.4878 19.3286 15.0586 19.8994 14.5872 20.3581C17.1603 19.8256 18.917 18.461 19.8441 16.2772H16.8511ZM20.2279 15.1567H17.1301C17.3464 14.1108 17.4593 12.9965 17.4593 11.8542C17.4593 10.9343 17.3861 10.0329 17.2446 9.17075H20.3658C20.5344 9.98942 20.6189 10.8906 20.6189 11.8738C20.6189 13.0952 20.4883 14.1897 20.2279 15.1567ZM6.30403 15.1567C6.08764 14.1109 5.97469 12.9968 5.97469 11.8542C5.97469 10.9346 6.04786 10.0331 6.18924 9.17075H3.38723C3.21879 9.98935 3.13436 10.8905 3.13436 11.8738C3.13436 13.0952 3.26485 14.1897 3.52505 15.1567H6.30403ZM3.90849 16.2772C4.78458 18.3425 6.40216 19.6751 8.75045 20.2641C8.31539 19.8222 7.91865 19.2832 7.56573 18.6525C7.16643 17.9412 6.83681 17.1407 6.58318 16.2772H3.90849ZM12.3836 8.05031H15.8632C15.6242 7.15228 15.2984 6.32607 14.8934 5.60493C14.1844 4.34306 13.3122 3.54109 12.3836 3.28052V8.05031ZM15.8682 5.05591C16.3614 5.93445 16.7483 6.94911 17.017 8.05031H20.0654C19.2187 5.53749 17.4029 3.97969 14.6329 3.39352C15.0878 3.84471 15.5017 4.4009 15.8682 5.05591Z" fill="#313235"/>
</svg>
