<svg width="24" height="24" viewBox="0 0 24 24" fill="none" xmlns="http://www.w3.org/2000/svg">
<path fill-rule="evenodd" clip-rule="evenodd" d="M3.22963 15.2912C3.22963 9.41728 6.02514 6.56014 11.7786 6.56014C12.1092 6.56014 12.3809 6.28563 12.3781 5.9467C12.3781 5.60776 12.1064 5.33325 11.7758 5.33325C5.39769 5.33325 2.02515 8.77582 2.02515 15.2912C2.02515 15.6302 2.29405 15.9047 2.62739 15.9047C2.96072 15.9047 3.22963 15.6302 3.22963 15.2912ZM12.4285 15.3809C12.4285 14.8683 12.1372 14.6302 11.689 14.6302C11.2408 14.6302 10.9495 14.8683 10.9495 15.3809C10.9495 15.6274 11.0167 15.8094 11.1372 15.9327C11.266 16.0671 11.4565 16.1316 11.689 16.1316C11.9215 16.1316 12.112 16.0671 12.2408 15.9327C12.3613 15.8094 12.4285 15.6274 12.4285 15.3809ZM12.3613 9.26322C12.3613 9.60215 12.0924 9.87666 11.759 9.87666C8.16799 9.87666 6.4229 11.661 6.4229 15.3276C6.4229 15.6666 6.15399 15.9411 5.82066 15.9411C5.49013 15.9411 5.21842 15.6666 5.21842 15.3276C5.21842 10.9579 7.47892 8.64977 11.759 8.64977C12.0924 8.64977 12.3613 8.92428 12.3613 9.26322ZM20.5125 13.8655V16.8066C20.5125 16.8907 20.4509 16.9579 20.3781 16.9579H19.6386V13.717H20.3865C20.4537 13.7282 20.5097 13.7954 20.5125 13.8655ZM18.1092 18.0503C18.2912 18.0503 18.4453 17.8879 18.4453 17.7002V17.5713H18.4369V13.0055C18.4369 12.815 18.2828 12.6554 18.1007 12.6554H12.28C10.6442 12.7086 9.84026 13.5881 9.84026 15.35C9.84026 17.1063 10.6442 17.9915 12.2996 18.0531H18.1092V18.0503ZM21.7142 13.8542C21.7002 13.1007 21.0951 12.4901 20.3669 12.4901H19.5545C19.3472 11.8711 18.773 11.4257 18.1007 11.4257H12.2604C9.95791 11.5013 8.63858 12.9299 8.63858 15.3472C8.63858 17.759 9.95511 19.1932 12.2576 19.2772H18.1092C18.7926 19.2772 19.3725 18.8178 19.5713 18.1848H20.3753C21.1119 18.1848 21.7142 17.5657 21.7142 16.8066V13.8542Z" fill="#313235"/>
</svg>
