<svg width="24" height="24" viewBox="0 0 24 24" fill="none" xmlns="http://www.w3.org/2000/svg">
<path fill-rule="evenodd" clip-rule="evenodd" d="M11.6698 2C11.9219 2 12.188 2.0056 12.4149 2.0112C14.3421 2.05602 21.8463 2.81793 21.8463 11.8683C21.8463 20.9411 14.3337 21.647 12.4541 21.6806C12.2721 21.6834 12.0676 21.6862 11.8603 21.6862H11.8601C11.7565 21.6862 11.6529 21.6862 11.5522 21.6834C9.57739 21.6554 2.16003 20.9411 2.16003 11.8123C2.16003 2.69748 9.50736 2.01961 11.4821 2.0028C11.5438 2 11.6054 2 11.6698 2ZM11.6698 3.22969L11.4934 3.23249C11.1432 3.23529 10.7258 3.2577 10.2721 3.31652L10.8351 6.04201C11.1908 5.99159 11.4934 5.97758 11.695 5.97478H11.8043C11.9555 5.97478 12.1124 5.97758 12.2497 5.98039C12.4597 5.98599 12.7819 6.0056 13.1684 6.06722L13.7286 3.35854C13.2272 3.28571 12.7651 3.2521 12.3841 3.24089C12.1656 3.23529 11.9135 3.22969 11.6698 3.22969ZM9.05918 3.53781L9.63341 6.32212C8.41212 6.73389 7.06479 7.63024 6.45975 9.54901L3.70905 8.98038C4.54939 5.46498 6.95835 4.06722 9.05918 3.53781ZM3.49337 10.1961C3.43174 10.7031 3.38972 11.2325 3.38972 11.8123C3.38972 12.4678 3.44575 13.056 3.52138 13.619L6.22165 13.0616C6.16843 12.6807 6.13482 12.2717 6.13482 11.8263C6.13482 11.4426 6.16003 11.0896 6.20204 10.7563L3.49337 10.1961ZM3.75947 14.8235L6.51857 14.2549C7.1068 15.9524 8.29728 16.8319 9.42613 17.2689C9.47309 17.2867 9.51911 17.3008 9.56528 17.3149L9.56532 17.3149C9.599 17.3252 9.63277 17.3355 9.66702 17.3473L9.0928 20.126C7.01157 19.5882 4.64462 18.2073 3.75947 14.8235ZM14.3393 17.3417L14.9135 20.1148C16.9975 19.5742 19.3729 18.1933 20.2524 14.8235L17.4961 14.2549C16.8659 16.0672 15.5354 16.9327 14.3393 17.3417ZM11.8603 20.4566C12.062 20.4566 12.2581 20.4538 12.4317 20.4509C12.7931 20.4425 13.23 20.4117 13.7006 20.3529L13.1404 17.6358C12.7735 17.689 12.4681 17.7087 12.2693 17.7115C12.2181 17.7115 12.163 17.7121 12.1059 17.7128L12.1056 17.7128H12.1056H12.1056H12.1056H12.1055H12.1055H12.1055H12.1054C12.0439 17.7135 11.9801 17.7143 11.9163 17.7143C11.8547 17.7143 11.7903 17.7143 11.7314 17.7115C11.527 17.7087 11.2188 17.689 10.8603 17.6386L10.2973 20.3585C10.7707 20.4201 11.2076 20.4481 11.569 20.4538C11.6642 20.4566 11.7621 20.4566 11.8601 20.4566H11.8603ZM12.2469 16.479C12.1488 16.4818 12.034 16.4818 11.9191 16.4818L11.7511 16.479C11.4541 16.4762 10.6726 16.4313 9.8687 16.1204C8.18243 15.4678 7.36451 14.0616 7.36451 11.8207C7.36451 7.83472 10.0816 7.21568 11.7034 7.20167H11.8015C11.9443 7.20167 12.09 7.20447 12.2188 7.20727C16.2104 7.30251 16.6418 10.4902 16.6418 11.8571C16.6418 13.2241 16.2132 16.4089 12.2469 16.479ZM17.5242 9.55461L20.272 8.98878C19.4093 5.58543 17.034 4.17086 14.9303 3.60504L14.3589 6.36974C15.5746 6.79551 16.9107 7.69467 17.5242 9.55461ZM20.6166 11.8683C20.6166 12.5014 20.5662 13.0728 20.4905 13.6162L17.7819 13.0588C17.8379 12.6863 17.8743 12.2941 17.8743 11.8599C17.8743 11.4622 17.8435 11.1008 17.7987 10.7563L20.5017 10.1989C20.569 10.7199 20.6166 11.2661 20.6166 11.8683Z" fill="#313235"/>
</svg>
