<svg width="24" height="24" viewBox="0 0 24 24" fill="none" xmlns="http://www.w3.org/2000/svg">
<path fill-rule="evenodd" clip-rule="evenodd" d="M17.687 11.023C17.897 11.0762 18.0623 11.2387 18.1211 11.4516C18.1799 11.6645 18.1211 11.8942 17.9699 12.051L8.68417 21.67C8.56652 21.7877 8.41526 21.8493 8.2612 21.8493C8.14915 21.8493 8.03711 21.8157 7.93627 21.7485C7.69817 21.5916 7.60293 21.2835 7.70658 21.0118L10.4069 13.9614L6.29481 12.9446C6.08753 12.8942 5.92226 12.7317 5.86344 12.5216C5.80462 12.3115 5.85784 12.0818 6.0063 11.925L14.9223 2.35355C15.1211 2.14066 15.4349 2.10425 15.6758 2.26391C15.9166 2.42358 16.0119 2.7373 15.9054 3.00901L13.1856 9.91376L17.687 11.023ZM11.7682 13.7541L9.87464 18.6981L16.3788 11.9586L12.2332 10.9362C12.0651 10.8942 11.9223 10.7793 11.8438 10.6196C11.7654 10.4628 11.757 10.2751 11.8214 10.1098L13.6365 5.50481L7.58613 12.0006L11.3536 12.9334C11.5217 12.9754 11.6646 13.0902 11.743 13.2471C11.8214 13.404 11.8298 13.5888 11.7682 13.7541Z" fill="#313235"/>
</svg>
