<svg width="24" height="24" viewBox="0 0 24 24" fill="none" xmlns="http://www.w3.org/2000/svg">
<path fill-rule="evenodd" clip-rule="evenodd" d="M21.8463 13.8406C21.8463 13.2355 21.6782 12.7818 21.4654 12.4484C21.6754 12.1011 21.8463 11.6165 21.8491 10.947C21.8491 9.41762 20.6698 8.66411 19.4654 8.59969H16.0536L13.9836 8.53806C13.9864 7.71173 13.9892 6.18232 13.9892 4.92462L13.9948 4.79297L13.9976 4.69493C13.9976 3.10669 13.062 2.15991 11.499 2.15991C10.681 2.15991 10.0144 2.41201 9.5718 2.8882C9.27768 3.20753 8.93594 3.78736 9.00317 4.73694L9.02278 4.96663C9.02332 4.97183 9.02386 4.97701 9.02439 4.98217C9.03224 5.05766 9.03977 5.13013 9.04239 5.22714L9.04519 5.26916C9.0704 6.3812 9.0844 7.78456 8.97516 8.90781C8.85751 10.1403 7.63903 10.9022 7.09001 11.1823C6.84351 10.9918 6.53819 10.8742 6.20485 10.8742H3.61382C2.8127 10.8742 2.16003 11.5269 2.16003 12.3308V19.9274C2.16003 20.7313 2.80989 21.384 3.61382 21.384H6.20485C6.54379 21.3812 6.87152 21.2608 7.13202 21.0423C7.15194 21.0466 7.1716 21.052 7.19123 21.0574C7.2351 21.0695 7.27886 21.0815 7.3253 21.0815L10.1292 21.1179C10.2889 21.1179 10.5438 21.1907 10.8603 21.2832L11.0676 21.342C11.8379 21.5689 12.7959 21.849 15.0536 21.849C18.667 21.849 19.5662 21.5185 20.1292 19.9918C20.1432 19.9582 20.1544 19.919 20.16 19.8826C20.2357 19.426 20.2413 19.0339 20.1712 18.6865C20.9079 18.2243 21.3197 17.5437 21.3197 16.7566C21.3197 16.2664 21.2245 15.8826 21.0984 15.5885C21.583 15.1039 21.8463 14.496 21.8463 13.8406ZM20.2245 12.0283C19.992 12.2776 20.006 12.6697 20.2553 12.9022C20.4962 13.1263 20.6194 13.44 20.6194 13.8406C20.6194 14.272 20.3953 14.6445 19.9528 14.9414C19.8099 15.0423 19.7147 15.1991 19.6922 15.37C19.6698 15.5409 19.7231 15.7173 19.8351 15.849C20.0004 16.0451 20.09 16.356 20.09 16.7509C20.09 17.314 19.5942 17.6417 19.1796 17.8126C19.16 17.821 19.1432 17.8294 19.1236 17.8406C18.8267 18.003 18.7147 18.3756 18.8771 18.6753C18.9612 18.8266 19.0424 19.0703 18.9584 19.6165C18.7119 20.2804 18.4962 20.6137 15.0564 20.6137C12.9856 20.6137 12.1572 20.3724 11.4288 20.1603L11.4177 20.1571L11.2021 20.0955C10.7931 19.9778 10.4682 19.8854 10.1404 19.8854L7.66424 19.8518V12.3308C7.66424 12.3224 7.66284 12.3147 7.66144 12.307C7.66003 12.2993 7.65863 12.2916 7.65863 12.2832V12.2748C8.41774 11.8854 10.0256 10.8462 10.1993 9.02546C10.3141 7.81537 10.2973 6.33078 10.2721 5.17392C10.2721 5.15152 10.2693 5.12912 10.2665 5.10671L10.2665 5.10669C10.2612 5.01444 10.2535 4.93708 10.2456 4.85825L10.2441 4.84339L10.2273 4.65291C10.1993 4.24114 10.2805 3.93022 10.471 3.72574C10.7287 3.44563 11.1712 3.3896 11.499 3.3896C12.3897 3.3896 12.7707 3.77896 12.7679 4.75375L12.7623 4.8742V4.90781C12.7623 6.73134 12.7539 9.1291 12.7539 9.1291C12.7511 9.46523 13.0172 9.73974 13.3505 9.74815L16.034 9.82658H19.4261C19.7847 9.84619 20.6166 9.99465 20.6166 10.9442C20.6166 11.4176 20.4906 11.7818 20.2581 11.9946L20.2245 12.0283ZM5.65023 13.7117C5.65023 13.2636 5.3365 12.9498 4.88833 12.9498C4.43735 12.9498 4.12642 13.2608 4.12642 13.7117C4.12642 14.1599 4.44015 14.4736 4.88833 14.4736C5.3365 14.4736 5.65023 14.1599 5.65023 13.7117ZM6.20485 20.1515C6.3253 20.1515 6.42334 20.0563 6.42894 19.9358V12.3168C6.42334 12.1963 6.3253 12.1011 6.20485 12.1011H3.61382C3.48777 12.1011 3.38692 12.2047 3.38692 12.3308V19.9246C3.38692 20.0507 3.49057 20.1515 3.61382 20.1515H6.20485Z" fill="#313235"/>
</svg>
