<svg width="24" height="24" viewBox="0 0 24 24" fill="none" xmlns="http://www.w3.org/2000/svg">
<path fill-rule="evenodd" clip-rule="evenodd" d="M4.46523 6.95213C4.46523 6.33869 3.94983 5.84009 3.31397 5.84009C2.67532 5.84009 2.15991 6.33869 2.15991 6.95213C2.15991 7.56558 2.67532 8.06138 3.31397 8.06418C3.94983 8.06418 4.46523 7.56558 4.46523 6.95213ZM5.44563 6.94933C5.44563 7.3583 5.80417 7.68883 6.24395 7.68883H21.0479C21.4904 7.68883 21.8462 7.3583 21.8462 6.94933C21.8462 6.54037 21.4876 6.20984 21.0479 6.20984H6.24395C5.80137 6.20984 5.44563 6.54037 5.44563 6.94933ZM21.0479 11.2519C21.4876 11.2519 21.8462 11.5824 21.8462 11.9913C21.8462 12.4003 21.4904 12.7308 21.0479 12.7308H6.24395C5.80417 12.7308 5.44563 12.4003 5.44563 11.9913C5.44563 11.5824 5.80137 11.2519 6.24395 11.2519H21.0479ZM4.46523 11.9913C4.46523 11.3779 3.94983 10.8793 3.31397 10.8793C2.67532 10.8793 2.15991 11.3779 2.15991 11.9913C2.15991 12.6048 2.67532 13.1034 3.31397 13.1034C3.94983 13.1034 4.46523 12.6048 4.46523 11.9913ZM21.0479 16.2939C21.4876 16.2939 21.8462 16.6244 21.8462 17.0334C21.8462 17.4395 21.4904 17.7729 21.0479 17.7729H6.24395C5.80417 17.7729 5.44563 17.4395 5.44563 17.0334C5.44563 16.6272 5.80137 16.2939 6.24395 16.2939H21.0479ZM4.46523 17.0334C4.46523 16.4199 3.94983 15.9213 3.31397 15.9213C2.67532 15.9213 2.15991 16.4171 2.15991 17.0334C2.15991 17.644 2.67532 18.1426 3.31397 18.1454C3.94983 18.1454 4.46523 17.644 4.46523 17.0334Z" fill="#313235"/>
</svg>
