<svg width="24" height="24" viewBox="0 0 24 24" fill="none" xmlns="http://www.w3.org/2000/svg">
<path fill-rule="evenodd" clip-rule="evenodd" d="M21.631 21.6821C21.8047 21.5281 21.8775 21.2872 21.8131 21.0631L19.5218 13.0435C19.4742 12.8698 19.3509 12.7297 19.1856 12.6569C19.0204 12.5841 18.8327 12.5897 18.673 12.6681L15.9784 14.0126L15.8103 13.9594C16.9756 12.0603 17.984 9.9034 17.9896 8.1471C18.0008 4.402 15.7739 2.16111 12.0316 2.1499H12.0036C8.27527 2.1499 6.04558 4.37679 6.03438 8.11069C6.02877 9.79696 6.99796 11.9398 8.14082 13.8586L7.81869 13.951L5.57499 12.6821C5.41813 12.5925 5.22765 12.5785 5.05679 12.6457C4.88872 12.7129 4.75987 12.8502 4.70384 13.0239L2.17723 21.0491C2.10721 21.276 2.17443 21.5196 2.3481 21.6793C2.52457 21.8362 2.77667 21.8754 2.99236 21.783L7.22205 19.9454L11.6506 21.7605C11.6786 21.7717 11.7094 21.7802 11.7403 21.7886L11.8523 21.8138C11.9756 21.8446 12.0988 21.8362 12.2164 21.7886L16.8215 19.9426L20.9896 21.7802C21.068 21.8138 21.152 21.8306 21.2333 21.8306C21.3761 21.8306 21.519 21.7802 21.631 21.6821ZM7.23886 8.10789C7.25006 5.03786 8.93914 3.34878 12.0008 3.34878H12.026C15.1016 3.35719 16.7907 5.05747 16.7823 8.1359C16.7739 10.9762 13.3873 15.5645 11.9868 17.2003C10.4657 15.4356 7.23045 10.8222 7.23886 8.10789ZM20.3005 20.1555L17.3621 18.8614L16.6954 14.993L18.5582 14.0631L20.3005 20.1555ZM3.72345 20.1471L5.63102 14.0911L7.0988 14.9202L6.64222 18.8782L3.72345 20.1471ZM11.4097 18.3544C10.8551 17.7605 9.82429 16.4748 8.80468 14.9174L8.28928 15.0687L7.8523 18.8978L11.3957 20.3516L11.4097 18.3544ZM12.6142 18.3068L12.6002 20.3348L16.1492 18.9146L15.4994 15.1219L15.1352 15.007C14.11 16.5337 13.0904 17.7774 12.6142 18.3068ZM10.9139 7.78015C10.9139 8.52805 11.2613 8.87539 12.0092 8.87539C12.7571 8.87539 13.1072 8.52805 13.1072 7.78015C13.1072 7.03226 12.7571 6.68212 12.0092 6.68212C11.2641 6.68212 10.9139 7.02945 10.9139 7.78015ZM12.012 10.0827C13.4321 10.0827 14.3145 9.20032 14.3145 7.78015C14.3145 6.35999 13.4321 5.47763 12.012 5.47763C10.5918 5.47763 9.70945 6.35999 9.70945 7.78015C9.70945 9.20032 10.5918 10.0827 12.012 10.0827Z" fill="#313235"/>
</svg>
