<svg width="24" height="24" viewBox="0 0 24 24" fill="none" xmlns="http://www.w3.org/2000/svg">
<path fill-rule="evenodd" clip-rule="evenodd" d="M21.6861 18.5769L21.5572 4.97757C21.546 3.85152 20.6553 3.02239 18.9074 2.51819C17.7057 2.17366 16.1483 1.97198 14.4816 2.00559C12.829 2.01959 11.2603 2.23248 10.0643 2.60223C8.62451 3.0476 7.77297 3.71427 7.52927 4.57981V4.58261C7.48165 4.75068 7.45925 4.92715 7.45925 5.10922L7.47605 6.74506L7.17913 6.74226C5.5713 6.75627 3.69175 7.71425 3.69175 10.3641V11.0168C3.36683 11.0784 2.97467 11.2156 2.63854 11.521C2.34722 11.7871 2.00269 12.2801 2.00269 13.1204L2.00549 18.4033C1.99988 18.4929 1.95787 19.3108 2.5489 19.9411C2.95786 20.3781 3.5433 20.5993 4.28839 20.5993L8.871 20.5965C9.24635 20.815 9.69733 21.0111 10.2435 21.168C11.406 21.5013 12.9046 21.6834 14.4844 21.6834H14.6665C16.3107 21.6694 17.8794 21.4565 19.0838 21.0867C20.8205 20.5489 21.6973 19.703 21.6861 18.5769ZM10.4256 3.75348C9.50966 4.03919 8.92422 4.40894 8.74215 4.8039C8.90742 5.21006 9.50686 5.58541 10.4564 5.85711C11.5461 6.17364 12.997 6.35571 14.5292 6.3221C16.0671 6.30809 17.5096 6.11482 18.5937 5.77868C19.5152 5.49297 20.1063 5.11762 20.2799 4.71986C20.0614 4.21286 19.2575 3.87393 18.5656 3.67505C17.4732 3.36133 16.0222 3.19886 14.49 3.21007C12.955 3.22687 11.5096 3.41735 10.4256 3.75348ZM4.90463 10.3669C4.90463 8.28287 6.336 7.96075 7.18754 7.95234H7.45644C8.15392 7.96915 9.78136 8.24086 9.78136 10.3837V10.9355C9.7795 10.943 9.77514 10.9505 9.77079 10.9579L9.77078 10.9579C9.7686 10.9617 9.76642 10.9654 9.76456 10.9691L4.90463 10.9747V10.3669ZM3.43965 19.126C3.61052 19.3052 3.89343 19.3921 4.28279 19.3921L10.3948 19.3893C10.5741 19.3977 10.9914 19.3697 11.2323 19.14C11.392 18.9887 11.4704 18.759 11.4704 18.4397C11.4676 16.689 11.4704 13.126 11.4704 13.126C11.4732 13.0784 11.4928 12.6974 11.2547 12.4481C11.0839 12.2689 10.7954 12.1764 10.3948 12.1764L4.29679 12.182H4.27719C4.26436 12.182 4.25153 12.1814 4.23762 12.1808H4.23759C4.22114 12.18 4.20319 12.1792 4.18195 12.1792C4.01388 12.1792 3.66654 12.2212 3.45366 12.4173C3.294 12.5658 3.21557 12.7983 3.21557 13.1232V18.4509L3.21552 18.4572C3.21485 18.5206 3.21101 18.8866 3.43965 19.126ZM7.30518 13.6638C7.72255 13.6722 9.34159 13.8319 9.34159 15.7198C9.34159 17.6134 7.71695 17.759 7.31079 17.7674H7.11751C6.69174 17.7618 5.08671 17.6134 5.08671 15.7086C5.08671 13.8067 6.67493 13.6666 7.1007 13.6638H7.14552C7.18545 13.6619 7.2228 13.6626 7.25757 13.6632C7.27402 13.6635 7.28989 13.6638 7.30518 13.6638ZM7.29118 16.6386C8.20994 16.6218 8.20994 16.0139 8.20994 15.7198C8.20994 15.4257 8.20994 14.8123 7.27997 14.7898L7.15112 14.787H7.11751C6.22396 14.7955 6.22396 15.3865 6.22396 15.7058C6.22396 16.0251 6.22396 16.6246 7.13432 16.6386H7.29118ZM20.4704 18.5882C20.476 19.2492 19.5236 19.6834 18.7225 19.9327C17.6273 20.2688 16.1847 20.4621 14.6525 20.4733C13.6021 20.4845 12.6161 20.4033 11.7421 20.2576C11.8514 20.1904 11.9578 20.1148 12.0587 20.0223C12.3444 19.759 12.6861 19.266 12.6861 18.4341V16.9243C13.2547 16.9747 13.8402 17.0111 14.4452 17.0111H14.6329C16.2827 16.9971 17.8514 16.7842 19.0474 16.4145C19.5824 16.252 20.0502 16.0335 20.4452 15.7842L20.4704 18.5882ZM12.6889 15.7142C12.6889 14.3725 12.6889 13.1764 12.6861 13.1764C12.6917 13.1092 12.7169 12.6526 12.504 12.1652C13.1119 12.224 13.7421 12.2632 14.3976 12.2632H14.5909C16.2435 12.2464 17.8093 12.0336 19.0054 11.6638C19.5404 11.4985 20.0082 11.2829 20.4032 11.0336L20.4312 14.1764C20.2351 14.5013 19.6861 14.9551 18.6889 15.2632C17.6021 15.5994 16.1567 15.7926 14.6245 15.8067C13.955 15.8123 13.3108 15.7758 12.6889 15.7142ZM8.69453 6.95795C9.92142 7.36691 10.9998 8.40612 10.9998 10.3865V10.7058C12.0223 10.9411 13.2687 11.0672 14.5769 11.056C16.1119 11.042 17.5572 10.8487 18.6413 10.5126C19.6385 10.2044 20.1875 9.75346 20.3836 9.42573L20.3555 6.3277C19.9774 6.56019 19.518 6.76467 18.9578 6.93554C17.7617 7.30529 16.1959 7.51817 14.5432 7.53498H14.35C12.7701 7.53498 11.2744 7.35291 10.1203 7.01957C9.55167 6.85711 9.07829 6.65543 8.69173 6.42014L8.69453 6.95795Z" fill="#313235"/>
</svg>
