<svg width="24" height="24" viewBox="0 0 24 24" fill="none" xmlns="http://www.w3.org/2000/svg">
<path fill-rule="evenodd" clip-rule="evenodd" d="M11.8587 21.9138C11.5646 21.9138 11.3265 21.6757 11.3265 21.3816V2.78221C11.3265 2.48809 11.5646 2.25 11.8587 2.25C11.8879 2.25 11.9166 2.25236 11.9446 2.25689C11.9569 2.25604 11.9694 2.2556 11.9819 2.2556C12.034 2.2556 12.086 2.25697 12.1377 2.2597C17.4833 2.34577 21.7914 6.71098 21.7858 12.0763C21.783 16.0147 19.4273 19.5693 15.7999 21.1043C14.6166 21.604 13.3445 21.8669 12.0601 21.8745C11.998 21.8998 11.93 21.9138 11.8587 21.9138ZM12.3909 8.03824V3.36554C12.7525 3.44624 13.1091 3.63382 13.4553 3.92507C13.9539 4.34523 14.4105 4.95868 14.8055 5.74579C15.0981 6.3263 15.3452 6.97488 15.5432 7.67412C14.5447 7.89279 13.4878 8.01416 12.3909 8.03824ZM12.3909 11.5525V9.10281C13.5793 9.07764 14.7286 8.94301 15.7933 8.71035C15.9743 9.60642 16.0816 10.5639 16.1093 11.5525H12.3909ZM12.3909 12.6169V15.2543C13.5623 15.2791 14.6957 15.4103 15.7475 15.6368C15.9537 14.6907 16.0764 13.672 16.1081 12.6169H12.3909ZM17.173 12.6169C17.1404 13.7602 17.0067 14.8673 16.7802 15.8976C17.6974 16.1654 18.5324 16.5115 19.2506 16.9275C20.0863 15.6803 20.6093 14.206 20.7074 12.6169H17.173ZM20.7092 11.5525C20.6215 10.0575 20.1516 8.61785 19.3555 7.36785C18.6257 7.80445 17.7697 8.16708 16.8254 8.44622C17.027 9.42719 17.1455 10.4738 17.174 11.5525H20.7092ZM12.3909 20.7647V16.3189C13.4647 16.3429 14.5003 16.4612 15.4802 16.6702C15.2936 17.2876 15.0679 17.8631 14.8055 18.3844C14.4105 19.1715 13.9567 19.785 13.4553 20.2052C13.1091 20.4964 12.7525 20.684 12.3909 20.7647ZM18.7257 6.50119C18.1126 6.85749 17.3825 7.16437 16.5739 7.40763C16.3565 6.63356 16.0832 5.91348 15.7578 5.2668C15.4707 4.69656 15.1521 4.20149 14.8084 3.78665C16.0614 4.21406 17.2127 4.92682 18.164 5.88305C18.3618 6.08085 18.5492 6.28719 18.7257 6.50119ZM18.5972 17.7839C17.996 17.4507 17.2903 17.1616 16.5138 16.9317C16.3068 17.627 16.0539 18.2759 15.7578 18.8634C15.4708 19.4334 15.1523 19.9283 14.8088 20.3431C16.2911 19.8369 17.5941 18.9436 18.5972 17.7839ZM6.81948 21.4236C6.50296 21.4236 6.15562 21.3676 6.03517 21.348L6.02117 21.3452L5.99596 21.3396C4.90912 21.1407 3.93153 20.1463 3.23966 18.5385C2.52818 16.8802 2.15002 14.6673 2.15002 12.1351V12.0511V12.0455C2.15002 9.51329 2.52537 7.30041 3.23966 5.63935C3.93153 4.03151 4.90912 3.03711 5.99596 2.83823L6.02117 2.83543L6.03517 2.83263L6.06116 2.82855C6.20803 2.80541 6.56522 2.74911 6.87551 2.757C8.74665 2.79902 9.73265 3.79341 9.73265 5.62534C9.73545 5.95868 9.69623 6.28921 9.615 6.61414C9.46654 7.24719 9.15001 7.73739 8.67662 8.07352C8.20324 8.40965 7.58979 8.57772 6.84189 8.57772C6.67943 8.57772 6.51416 8.56932 6.3517 8.54971C6.30968 8.58332 6.12761 8.7738 6.00436 9.57772C5.88391 10.3508 5.86991 11.3564 5.86991 12.0427V12.1323C5.86991 12.8214 5.88391 13.8242 6.00436 14.5973C6.13041 15.4012 6.30968 15.5917 6.3517 15.6253C6.51416 15.6057 6.67663 15.5973 6.84189 15.5973C7.58699 15.5973 8.20604 15.7654 8.67662 16.1015C9.14721 16.4377 9.46654 16.9306 9.615 17.5609C9.69623 17.883 9.73545 18.2164 9.73265 18.5497C9.73265 20.3844 8.74385 21.376 6.87551 21.418L6.81948 21.4236ZM6.18083 20.292L6.21164 20.2976C6.48615 20.3424 6.70184 20.362 6.8559 20.3592C7.50856 20.3452 7.98475 20.1883 8.26766 19.8942C8.54217 19.6085 8.67382 19.1715 8.67382 18.5553C8.67662 18.3116 8.64861 18.0707 8.58979 17.8326C8.58699 17.827 8.58699 17.8214 8.58699 17.8158C8.47214 17.3228 8.16682 16.6673 6.8503 16.6673C6.70184 16.6673 6.55618 16.6757 6.40772 16.6954C6.37971 16.6982 6.3517 16.701 6.32369 16.6982C6.04918 16.687 5.65982 16.5693 5.3629 16.0707C5.20044 15.8018 5.07999 15.4405 4.99316 14.9727C4.86711 14.2948 4.81108 13.4208 4.81108 12.1351V12.0455C4.81108 10.7598 4.86711 9.88304 4.99316 9.20797C5.07999 8.74019 5.20044 8.37884 5.3629 8.10993C5.65982 7.61134 6.04918 7.49369 6.32369 7.48248C6.3517 7.48248 6.37971 7.48248 6.40772 7.48529C6.55338 7.50489 6.70184 7.5133 6.8503 7.5133C8.16962 7.5133 8.47494 6.85784 8.58699 6.36484C8.58699 6.36204 8.58769 6.35924 8.58839 6.35644C8.58909 6.35363 8.58979 6.35083 8.58979 6.34803C8.64861 6.11274 8.67662 5.86904 8.67382 5.62534C8.67382 5.0063 8.53937 4.56932 8.26766 4.28641C7.98195 3.99229 7.50576 3.83543 6.8531 3.81862C6.69904 3.81582 6.48055 3.83543 6.20884 3.88025L6.17803 3.88585C5.46655 4.02311 4.75506 4.81302 4.21725 6.05952C3.76067 7.12394 3.21445 9.0259 3.21445 12.0399V12.1351C3.21445 15.1491 3.76067 17.0511 4.21725 18.1155C4.75226 19.362 5.46655 20.1519 6.17523 20.2892L6.18083 20.292Z" fill="#313235"/>
</svg>
