<svg width="24" height="24" viewBox="0 0 24 24" fill="none" xmlns="http://www.w3.org/2000/svg">
<path fill-rule="evenodd" clip-rule="evenodd" d="M16.0247 18.5827C15.9378 18.5827 15.8482 18.5687 15.7614 18.5435L10.3047 16.9004L10.1059 17.5322C10.0415 17.7423 9.89862 17.9132 9.70255 18.014C9.5849 18.0785 9.45605 18.1093 9.3244 18.1093C9.24316 18.1093 9.15913 18.0981 9.0779 18.0701L6.80899 17.3586C6.37762 17.2241 6.13672 16.7619 6.27117 16.3306L6.45645 15.7416L3.24611 14.775C3.19124 15.0124 2.97976 15.1877 2.72496 15.1877C2.42804 15.1877 2.18994 14.9468 2.18994 14.6527V9.36978C2.18994 9.07286 2.43084 8.83477 2.72496 8.83477C2.97708 8.83477 3.19009 9.01178 3.24578 9.2476L15.7614 5.47902C16.0359 5.39499 16.33 5.44821 16.5625 5.62188C16.809 5.80395 16.9546 6.09807 16.9546 6.4118V17.6135C16.9546 17.9244 16.809 18.2213 16.5653 18.4006C16.4028 18.521 16.2152 18.5827 16.0247 18.5827ZM3.29358 13.6723L15.8846 17.465V6.56026L3.29358 10.3502V13.6723ZM19.0835 8.21572C18.9434 8.21572 18.8034 8.1625 18.6969 8.05606C18.4841 7.84317 18.4841 7.49583 18.6969 7.28295L20.2432 5.73673C20.456 5.52384 20.8034 5.52384 21.0163 5.73673C21.2292 5.94961 21.2292 6.29695 21.0163 6.50984L19.4701 8.05606C19.3636 8.1625 19.2236 8.21572 19.0835 8.21572ZM19.1507 12.325C18.8482 12.325 18.6045 12.0813 18.6045 11.7787C18.6045 11.4762 18.8482 11.2325 19.1507 11.2325H21.3356C21.6381 11.2325 21.8818 11.4762 21.8818 11.7787C21.8818 12.0813 21.6381 12.325 21.3356 12.325H19.1507ZM7.39722 16.4006L9.14512 16.9496L9.21515 16.7255L7.46725 16.1765L7.39722 16.4006ZM20.2348 17.7563C20.3412 17.8628 20.4813 17.916 20.6213 17.916C20.7614 17.916 20.9014 17.8628 21.0079 17.7563C21.2208 17.5435 21.2208 17.1961 21.0079 16.9832L19.5009 15.4762C19.288 15.2633 18.9406 15.2633 18.7278 15.4762C18.5149 15.6891 18.5149 16.0364 18.7278 16.2493L20.2348 17.7563Z" fill="#313235"/>
</svg>
