<svg width="24" height="24" viewBox="0 0 24 24" fill="none" xmlns="http://www.w3.org/2000/svg">
<path fill-rule="evenodd" clip-rule="evenodd" d="M11.9927 2.15991C14.9142 2.15991 16.5221 3.77056 16.5221 6.69212V13.412C16.5221 16.3336 14.9142 17.9442 11.9927 17.9442C9.0711 17.9442 7.46326 16.3336 7.46326 13.412V6.69212C7.46326 3.77056 9.0711 2.15991 11.9927 2.15991ZM15.3008 13.412V6.69212C15.3008 4.46523 14.2196 3.3812 11.9927 3.3812C9.76578 3.3812 8.68455 4.46243 8.68455 6.69212V13.412C8.68455 15.6389 9.76578 16.7229 11.9927 16.7229C14.2196 16.7229 15.3008 15.6389 15.3008 13.412ZM12.9703 20.891C12.9703 20.3616 12.5417 19.933 12.0151 19.933C11.4885 19.933 11.0599 20.3616 11.0599 20.891C11.0599 21.4176 11.4885 21.8462 12.0151 21.8462C12.5417 21.8462 12.9703 21.4176 12.9703 20.891ZM15.3428 18.9778C15.8694 18.9778 16.298 19.4064 16.298 19.933C16.298 20.4624 15.8694 20.891 15.3428 20.891C14.8162 20.891 14.3876 20.4624 14.3876 19.933C14.3876 19.4064 14.8162 18.9778 15.3428 18.9778ZM18.9703 17.6529C18.9703 17.1263 18.5417 16.6977 18.0151 16.6977C17.4885 16.6977 17.0599 17.1263 17.0599 17.6529C17.0599 18.1795 17.4885 18.6081 18.0151 18.6081C18.5417 18.6081 18.9703 18.1823 18.9703 17.6529ZM18.9703 13.4428C19.4212 13.4428 19.7854 13.807 19.7854 14.258C19.7854 14.7089 19.4212 15.0731 18.9703 15.0731C18.5193 15.0731 18.1551 14.7089 18.1551 14.258C18.1551 13.8098 18.5193 13.4428 18.9703 13.4428ZM9.59771 19.933C9.59771 19.4064 9.16914 18.9778 8.64253 18.9778C8.11592 18.9778 7.68455 19.4064 7.68735 19.933C7.68735 20.4624 8.11592 20.891 8.64253 20.891C9.16914 20.891 9.59771 20.4624 9.59771 19.933ZM5.97026 16.6977C6.49687 16.6977 6.92544 17.1263 6.92544 17.6529C6.92544 18.1823 6.49687 18.6081 5.97026 18.6081C5.44365 18.6081 5.01508 18.1795 5.01508 17.6529C5.01508 17.1263 5.44365 16.6977 5.97026 16.6977ZM5.01508 15.0759C5.46606 15.0759 5.8302 14.7117 5.8302 14.2608C5.8302 13.8098 5.46606 13.4428 5.01508 13.4456C4.5641 13.4456 4.19995 13.8098 4.19995 14.2608C4.19995 14.7117 4.5641 15.0759 5.01508 15.0759Z" fill="#313235"/>
</svg>
