<svg width="24" height="24" viewBox="0 0 24 24" fill="none" xmlns="http://www.w3.org/2000/svg">
<path fill-rule="evenodd" clip-rule="evenodd" d="M15.2379 2H8.47088C6.28867 2 4.99988 3.24271 4.99988 5.472V18.848C4.99988 21.0774 6.28885 22.321 8.47088 22.321H15.2379C17.4199 22.321 18.7089 21.0774 18.7089 18.848V5.472C18.7089 3.24271 17.4201 2 15.2379 2ZM8.47088 3.5H15.2379C16.6036 3.5 17.2089 4.0836 17.2089 5.472V18.848C17.2089 20.2367 16.6033 20.821 15.2379 20.821H8.47088C7.10548 20.821 6.49988 20.2367 6.49988 18.848V5.472C6.49988 4.0836 7.10513 3.5 8.47088 3.5ZM10.8474 17.1605C10.8474 16.4775 11.2444 16.1605 11.8544 16.1605C12.4644 16.1605 12.8614 16.4775 12.8614 17.1605C12.8614 17.4875 12.7694 17.7315 12.6074 17.8955C12.4304 18.0745 12.1714 18.1605 11.8544 18.1605C11.5374 18.1605 11.2784 18.0745 11.1014 17.8955C10.9394 17.7315 10.8474 17.4875 10.8474 17.1605Z" fill="#313235"/>
</svg>
