<svg width="24" height="24" viewBox="0 0 24 24" fill="none" xmlns="http://www.w3.org/2000/svg">
<path fill-rule="evenodd" clip-rule="evenodd" d="M14.1372 6.43698L17.1876 9.57703C17.2156 9.61064 17.2688 9.66387 17.3025 9.68908C17.4397 9.80112 17.605 9.85994 17.7786 9.85994C17.8067 9.85994 17.8375 9.85714 17.8655 9.85434C18.0672 9.83193 18.2492 9.72829 18.3305 9.61905L21.4761 6.39216C21.6638 6.15686 21.703 5.82353 21.5742 5.54902C21.4481 5.27451 21.182 5.10364 20.8907 5.10364L19.7366 5.09244L19.7338 3.10924C19.7338 2.4986 19.2436 2 18.6414 2H16.9243C16.3221 2 15.8319 2.4986 15.8319 3.11204L15.8347 5.09524L14.689 5.10364C14.3921 5.10364 14.1288 5.27451 13.9999 5.54902C13.8711 5.82353 13.9075 6.15686 14.1372 6.43698ZM2.76464 7.26611C2.76464 6.91877 3.04195 6.63866 3.38089 6.63866H3.75624C3.75281 6.59407 3.74859 6.55053 3.74439 6.50715L3.74439 6.50715C3.73487 6.40884 3.72543 6.31138 3.72543 6.20448C3.72543 6.18347 3.72753 6.16457 3.72963 6.14566C3.73173 6.12675 3.73383 6.10784 3.73383 6.08683H3.38089C3.03915 6.08683 2.76464 5.80672 2.76464 5.45938C2.76464 5.11204 3.04195 4.83193 3.38089 4.83193H3.8963C4.33327 3.02241 5.68061 2.03081 7.82907 2.03081C8.63019 2.03081 9.33047 2.17087 9.9131 2.44258C10.2212 2.58824 10.3585 2.96078 10.2156 3.27451C10.0728 3.59104 9.70582 3.72829 9.3977 3.58263C8.98033 3.38655 8.45092 3.28571 7.83187 3.28571C6.4033 3.28571 5.53495 3.78711 5.1708 4.83193H7.21002C7.55176 4.83193 7.82627 5.11204 7.82627 5.45938C7.82627 5.80672 7.54896 6.08683 7.21002 6.08683H4.97193C4.97193 6.10784 4.96982 6.12675 4.96772 6.14566C4.96562 6.16457 4.96352 6.18347 4.96352 6.20448C4.96352 6.31122 4.9713 6.40888 4.97892 6.50451L4.97893 6.50455L4.97893 6.50456C4.98251 6.54946 4.98605 6.59391 4.98873 6.63866H7.20722C7.54896 6.63866 7.82347 6.91877 7.82347 7.26611C7.82347 7.61345 7.54615 7.89356 7.20722 7.89356H5.30806C5.73383 8.71989 6.55736 9.12045 7.83187 9.12045C8.46212 9.12045 8.99433 9.01961 9.4117 8.81793C9.72263 8.66947 10.0868 8.80672 10.2324 9.11765C10.3781 9.43137 10.2464 9.80672 9.93831 9.95238C9.35288 10.2325 8.64419 10.3753 7.82907 10.3753C5.80666 10.3753 4.48733 9.5014 3.97193 7.89076H3.38089C3.03915 7.89356 2.76464 7.61064 2.76464 7.26611ZM19.8711 20.1989C20.4005 20.0364 20.4789 19.874 20.4789 19.874V19.0224C20.46 19.0302 20.4413 19.0382 20.4225 19.0462L20.4225 19.0462L20.4225 19.0462L20.4224 19.0462L20.4224 19.0462L20.4224 19.0462L20.4223 19.0463L20.4223 19.0463L20.4223 19.0463L20.4223 19.0463L20.4222 19.0463L20.4222 19.0463C20.3604 19.0726 20.2983 19.099 20.2296 19.1204C19.6302 19.3053 18.8459 19.4062 18.0251 19.4062C17.2044 19.4062 16.4201 19.3053 15.8179 19.1204C15.7499 19.0999 15.6896 19.0747 15.629 19.0495L15.629 19.0495L15.6286 19.0494C15.6069 19.0403 15.5851 19.0313 15.563 19.0224V19.8796C15.5714 19.8992 15.6638 20.0504 16.168 20.2045C17.1596 20.4986 18.8851 20.4986 19.8711 20.1989ZM14.3305 19.8824C14.238 19.972 14.0476 20.1008 13.7282 20.1989C12.745 20.4986 11.0111 20.4986 10.0279 20.1961C9.67501 20.0868 9.49293 19.9636 9.4145 19.888V18.972C9.44345 18.9832 9.47146 18.995 9.49947 19.0068C9.55549 19.0305 9.61151 19.0542 9.67501 19.0728C10.2744 19.2577 11.0588 19.3585 11.8795 19.3585C12.7002 19.3585 13.4845 19.2577 14.084 19.0728C14.1422 19.0565 14.1945 19.0342 14.2462 19.0121C14.2742 19.0002 14.302 18.9884 14.3305 18.9776V19.8824ZM7.57697 20.1989C7.9159 20.0952 8.09798 19.9608 8.17921 19.8796V18.9916C8.14705 19.0034 8.11654 19.016 8.08594 19.0286L8.08591 19.0287L8.08589 19.0287C8.03654 19.0491 7.98696 19.0695 7.92991 19.0868C7.32767 19.2717 6.54615 19.3725 5.72543 19.3725C4.9047 19.3725 4.12038 19.2717 3.52094 19.0868C3.45872 19.0685 3.40487 19.0455 3.35079 19.0223L3.35068 19.0222C3.32202 19.0099 3.2933 18.9976 3.26324 18.986V19.8908C3.34167 19.9664 3.52375 20.0896 3.87949 20.1989C4.85988 20.4986 6.59097 20.4986 7.57697 20.1989ZM3.4173 17.6891C3.50694 17.6303 3.64139 17.563 3.87108 17.493C4.85148 17.1933 6.58817 17.1933 7.57137 17.4902C7.80666 17.563 7.94111 17.6303 8.03075 17.6891C7.94111 17.7479 7.80666 17.8151 7.57697 17.8852C6.59657 18.1849 4.85428 18.1877 3.87669 17.8852C3.6554 17.8179 3.50974 17.7479 3.4173 17.6891ZM10.0223 15.1681C9.79545 15.2381 9.661 15.3053 9.56856 15.3641C9.6582 15.423 9.79265 15.4902 10.0279 15.563C11.0083 15.8627 12.745 15.8627 13.7254 15.563C13.9439 15.4958 14.0868 15.4286 14.182 15.3697C14.0924 15.3109 13.9579 15.2409 13.7226 15.1709C12.745 14.8683 11.0027 14.8683 10.0223 15.1681ZM15.717 13.0784C15.8095 13.0224 15.9439 12.9552 16.1708 12.8852C17.154 12.5826 18.8907 12.5854 19.8711 12.8852C20.1036 12.9552 20.2408 13.0252 20.3305 13.084C20.2352 13.1401 20.0924 13.2101 19.8739 13.2773C18.8963 13.577 17.154 13.577 16.1764 13.2773C15.9411 13.2045 15.8067 13.1373 15.717 13.0784ZM15.5658 16.6947V17.6106C15.6442 17.6863 15.8291 17.8095 16.1764 17.916C17.154 18.2157 18.8963 18.2157 19.8739 17.916C20.196 17.8151 20.3893 17.6863 20.4789 17.5966V16.6947C20.46 16.7025 20.4413 16.7105 20.4225 16.7185C20.3606 16.7448 20.2984 16.7712 20.2296 16.7927C19.6246 16.9776 18.8431 17.0784 18.0251 17.0784C17.2072 17.0784 16.4229 16.9776 15.8207 16.7927C15.7527 16.7721 15.6924 16.747 15.6318 16.7218L15.6316 16.7217L15.6315 16.7217C15.6098 16.7126 15.588 16.7036 15.5658 16.6947ZM15.6505 14.4144C15.7046 14.4376 15.7584 14.4607 15.8207 14.479C16.4229 14.6639 17.2044 14.7647 18.0279 14.7647C18.8487 14.7647 19.633 14.6639 20.2324 14.479C20.2895 14.4617 20.3391 14.4412 20.3884 14.4208C20.4191 14.4082 20.4496 14.3955 20.4817 14.3838V15.2717C20.4005 15.3529 20.2184 15.4874 19.8767 15.591C18.8963 15.8908 17.1568 15.8908 16.1792 15.591C15.8235 15.479 15.6414 15.3557 15.563 15.2801V14.3782C15.5931 14.3898 15.6218 14.4021 15.6505 14.4144L15.6505 14.4144L15.6505 14.4144L15.6505 14.4144ZM9.4145 17.5658C9.49293 17.6415 9.67501 17.7647 10.0307 17.8739C11.0083 18.1737 12.7506 18.1737 13.7282 17.8739C14.0672 17.7703 14.2464 17.6387 14.3305 17.5574V16.6667C14.3014 16.6777 14.273 16.6894 14.2445 16.7013L14.2445 16.7013L14.2445 16.7013L14.2445 16.7013C14.1933 16.7225 14.1415 16.7439 14.084 16.7619C13.4817 16.9468 12.6974 17.0476 11.8795 17.0476C11.0616 17.0476 10.2772 16.9468 9.67501 16.7619C9.61152 16.7414 9.5555 16.7183 9.49947 16.6953C9.47146 16.6838 9.44345 16.6723 9.4145 16.6611V17.5658ZM21.7142 13.2157C21.7142 12.7227 21.4565 12.056 20.2268 11.6807C19.0223 11.3165 17.0279 11.3137 15.8095 11.6863C15.0055 11.93 14.5237 12.3305 14.3697 12.8655V12.8711C14.3389 12.9832 14.3221 13.1008 14.3221 13.2185V14.0616C14.2408 14.028 14.1652 13.9972 14.0728 13.9692C12.8711 13.5994 10.8655 13.5994 9.661 13.9692C8.85708 14.2129 8.37529 14.6106 8.22122 15.1485V15.1513C8.19041 15.2633 8.17361 15.381 8.17361 15.5014V16.3866C8.15253 16.3786 8.13164 16.3704 8.11065 16.3622L8.11049 16.3621L8.11047 16.3621L8.11046 16.3621C8.0506 16.3386 7.98989 16.3148 7.9215 16.2941C6.71422 15.9272 4.71702 15.9244 3.50974 16.2941C2.71142 16.5406 2.22683 16.9384 2.07277 17.4734V17.4762C2.04195 17.5882 2.02515 17.7087 2.02515 17.8263V20.1457C2.02515 20.3417 2.12319 20.5126 2.26324 20.6275C2.52094 20.9608 2.94391 21.2269 3.52094 21.4034C4.12319 21.5882 4.9075 21.6891 5.72543 21.6891C6.54335 21.6891 7.32487 21.5882 7.92991 21.4034C8.26324 21.3025 8.55176 21.1597 8.78985 20.986C9.02515 21.1541 9.31926 21.2969 9.67221 21.4034C10.2744 21.5882 11.0588 21.6891 11.8767 21.6891C12.6946 21.6891 13.4761 21.5882 14.0812 21.4034C14.4145 21.3025 14.7058 21.1597 14.9439 20.986C15.1596 21.1429 15.4369 21.2885 15.8151 21.4034C16.4229 21.5882 17.2044 21.6891 18.0195 21.6891C18.8375 21.6891 19.619 21.5882 20.2268 21.4034C21.4565 21.0252 21.7142 20.3613 21.7142 19.8683V13.2157ZM16.3221 6.34454L15.7843 6.35014L17.7814 8.40616L19.7843 6.35014L19.2632 6.34454C19.0448 6.33894 18.8543 6.2521 18.7142 6.09804C18.5714 5.94678 18.4985 5.7479 18.5041 5.53782L18.5013 3.2549H17.07L17.0728 5.55462C17.0812 5.7423 17.0055 5.94118 16.8655 6.09524C16.7198 6.2521 16.5293 6.33894 16.3221 6.34454Z" fill="#313235"/>
</svg>
