<svg width="24" height="24" viewBox="0 0 24 24" fill="none" xmlns="http://www.w3.org/2000/svg">
<path fill-rule="evenodd" clip-rule="evenodd" d="M14.1219 6.44956C14.2507 6.72407 14.514 6.89494 14.8081 6.89494L15.9566 6.90615L15.9594 8.88373C15.9594 9.49438 16.4496 9.99018 17.0518 9.99018H18.7689C19.3712 9.99018 19.8614 9.49438 19.8614 8.88093L19.8586 6.90335L21.0042 6.89494C21.3011 6.89494 21.5644 6.72407 21.6933 6.44956C21.8221 6.17506 21.7829 5.84452 21.556 5.56721L18.5056 2.43556C18.4776 2.40195 18.4244 2.34873 18.3908 2.32072C18.2339 2.19187 18.035 2.13024 17.8306 2.15545C17.6289 2.17786 17.4468 2.2815 17.3656 2.39075L14.2227 5.60643C14.0322 5.84452 13.993 6.17225 14.1219 6.44956ZM2.8866 7.45517C2.8866 7.11063 3.16391 6.83052 3.50284 6.83052H3.87819C3.87497 6.77473 3.8697 6.72058 3.86442 6.66635C3.85591 6.57899 3.84738 6.4914 3.84738 6.39634C3.84738 6.37534 3.84948 6.35573 3.85158 6.33612C3.85368 6.31651 3.85578 6.2969 3.85578 6.2759H3.50004C3.1583 6.2759 2.88379 5.99578 2.88379 5.65125C2.88379 5.30671 3.16111 5.0266 3.50004 5.0266H4.01545C4.45242 3.22268 5.79976 2.23388 7.94821 2.23388C8.75213 2.23388 9.45241 2.37114 10.0322 2.64565C10.3404 2.79131 10.4748 3.16386 10.332 3.47758C10.1891 3.79131 9.81656 3.92856 9.51404 3.7829C9.09667 3.58682 8.57006 3.48598 7.94821 3.48598C6.51964 3.48598 5.6541 3.98458 5.28715 5.0266H7.32356C7.6653 5.0266 7.93981 5.30671 7.93981 5.65125C7.93981 5.99578 7.6625 6.2759 7.32356 6.2759H5.08827C5.08827 6.2969 5.08617 6.31651 5.08407 6.33612C5.08197 6.35573 5.07987 6.37534 5.07987 6.39634C5.07987 6.49989 5.08746 6.59585 5.09499 6.69102L5.095 6.69106C5.09867 6.73747 5.10233 6.78369 5.10508 6.83052H7.32356C7.6653 6.83052 7.93981 7.11063 7.93981 7.45517C7.93981 7.7997 7.6625 8.07981 7.32356 8.07981H5.42441C5.84738 8.90334 6.6709 9.3067 7.94821 9.3067C8.57846 9.3067 9.10788 9.20586 9.52804 9.00418C9.83617 8.85572 10.2031 8.99298 10.3488 9.3039C10.4944 9.61763 10.3628 9.99018 10.0547 10.1386C9.46922 10.4187 8.76054 10.5616 7.94821 10.5616C5.92581 10.5616 4.60368 9.69046 4.09108 8.08542H3.50004C3.16111 8.07981 2.8866 7.7997 2.8866 7.45517ZM17.9146 3.60363L15.9118 5.65405L16.4328 5.65965C16.6541 5.66525 16.8446 5.75209 16.9874 5.90615C17.1303 6.06021 17.2031 6.25909 17.1947 6.46917L17.1975 8.74088H18.6289L18.6261 6.44676C18.6205 6.25629 18.6933 6.05741 18.8362 5.90615C18.979 5.75209 19.1695 5.66525 19.374 5.65965L19.9118 5.65405L17.9146 3.60363ZM19.9958 20.3515C20.5252 20.1918 20.6037 20.0266 20.6037 20.0266V19.175C20.5848 19.1829 20.566 19.1908 20.5472 19.1988L20.5472 19.1988C20.4853 19.2252 20.4231 19.2516 20.3544 19.2731C19.7493 19.458 18.9678 19.5588 18.1499 19.5588C17.332 19.5588 16.5504 19.458 15.9454 19.2731C15.8775 19.2525 15.8171 19.2274 15.7565 19.2022L15.7565 19.2021C15.7347 19.1931 15.7128 19.1839 15.6905 19.175V20.0294C15.7017 20.0518 15.7941 20.2002 16.2955 20.3543C17.2731 20.6512 19.0098 20.6512 19.9958 20.3515ZM14.4496 20.0406C14.36 20.1274 14.1667 20.2563 13.8474 20.3543C12.8726 20.6512 11.1303 20.6512 10.1471 20.3571C9.79415 20.2479 9.61208 20.1218 9.53365 20.049V19.1358C9.56258 19.147 9.59058 19.1588 9.61858 19.1707L9.61859 19.1707L9.61861 19.1707C9.67463 19.1943 9.73066 19.218 9.79415 19.2367C10.3992 19.4215 11.1807 19.5224 11.9986 19.5224C12.8166 19.5224 13.6009 19.4215 14.2031 19.2367C14.2607 19.2187 14.3124 19.1972 14.3636 19.176L14.3637 19.176C14.3922 19.1642 14.4206 19.1524 14.4496 19.1414V20.0406ZM7.69611 20.3543C8.03785 20.2507 8.21712 20.1162 8.30115 20.035V19.1498C8.26903 19.1616 8.23854 19.1742 8.20797 19.1868L8.20794 19.1869L8.20788 19.1869C8.15851 19.2073 8.10892 19.2278 8.05186 19.2451C7.44962 19.4299 6.6653 19.5308 5.84738 19.5308C5.02945 19.5308 4.24514 19.4299 3.6429 19.2451C3.57941 19.2264 3.52338 19.2027 3.46736 19.1791C3.43935 19.1673 3.41134 19.1554 3.38239 19.1442V20.0434C3.45802 20.119 3.6401 20.2423 3.99864 20.3515C4.97903 20.654 6.72132 20.6512 7.69611 20.3543ZM3.53645 17.8501C3.62889 17.7913 3.76335 17.7241 3.99304 17.654C4.97343 17.3543 6.71292 17.3543 7.69331 17.654C7.9258 17.7269 8.06306 17.7969 8.15269 17.8529C8.05746 17.9117 7.9118 17.979 7.69611 18.0462C6.71572 18.3459 4.97903 18.3431 3.99864 18.0462C3.77455 17.979 3.62889 17.9089 3.53645 17.8501ZM10.1443 15.3347C9.9258 15.4019 9.78294 15.472 9.69051 15.528C9.78014 15.5868 9.9146 15.6568 10.1499 15.7269C11.1303 16.0238 12.8726 16.0238 13.8474 15.7269C14.0659 15.6596 14.2087 15.5924 14.3039 15.5336C14.2143 15.4748 14.0799 15.4047 13.8446 15.3347C12.867 15.0378 11.1247 15.0378 10.1443 15.3347ZM15.839 13.2535C15.9314 13.1947 16.0715 13.1274 16.2927 13.0602C17.2759 12.7577 19.0126 12.7605 19.9958 13.0602C20.2283 13.133 20.3656 13.2003 20.4552 13.2591C20.36 13.3179 20.2171 13.3851 19.9986 13.4524C19.0182 13.7521 17.2787 13.7493 16.3011 13.4524C16.0658 13.3823 15.9286 13.3123 15.839 13.2535ZM15.6877 16.8585V17.7717C15.7661 17.8473 15.951 17.9706 16.2983 18.0742C17.2815 18.3739 19.0154 18.3739 19.9986 18.0742C20.3235 17.9734 20.5168 17.8417 20.6037 17.7549V16.8585C20.5778 16.8688 20.5528 16.8794 20.5279 16.89L20.5279 16.89C20.4718 16.9137 20.4164 16.9372 20.3544 16.9566C19.7549 17.1386 18.9706 17.2423 18.1499 17.2423C17.3292 17.2423 16.5476 17.1414 15.9454 16.9566C15.8855 16.9389 15.8323 16.9169 15.7801 16.8953L15.7801 16.8953L15.7801 16.8953C15.7493 16.8825 15.7189 16.8699 15.6877 16.8585ZM15.7671 14.5853C15.8231 14.6089 15.8791 14.6326 15.9426 14.6512C16.5476 14.8333 17.3292 14.9341 18.1471 14.9341C18.965 14.9341 19.7465 14.8333 20.3516 14.6484C20.4206 14.6275 20.4787 14.6034 20.5388 14.5786L20.5388 14.5786L20.5388 14.5786C20.5591 14.5702 20.5796 14.5617 20.6009 14.5532V15.4383C20.5196 15.5196 20.3376 15.654 19.9958 15.7577C19.0182 16.0574 17.2787 16.0574 16.2983 15.7577C15.9398 15.6484 15.7605 15.5252 15.6821 15.4496V14.5504C15.711 14.5616 15.7391 14.5734 15.7671 14.5853ZM9.53365 17.7269C9.61208 17.8025 9.79415 17.9257 10.1499 18.035C11.1331 18.3319 12.867 18.3347 13.8474 18.035C14.1863 17.9313 14.3656 17.8025 14.4468 17.7185V16.8305C14.4177 16.8415 14.3893 16.8533 14.3608 16.8651C14.3096 16.8863 14.2578 16.9078 14.2003 16.9257C13.6009 17.1106 12.8166 17.2115 11.9958 17.2115C11.1751 17.2115 10.3936 17.1106 9.79135 16.9257C9.72786 16.9052 9.67184 16.8822 9.61581 16.8591L9.6157 16.8591C9.58773 16.8476 9.55975 16.8361 9.53084 16.8249V17.7269H9.53365ZM21.8361 13.3907C21.8361 12.9005 21.5784 12.2367 20.3488 11.8613C19.1443 11.4916 17.1443 11.4916 15.937 11.8669C15.1359 12.1106 14.6541 12.5056 14.5 13.0406C14.4664 13.1526 14.4496 13.2731 14.4496 13.3935V14.2339C14.3684 14.2003 14.2927 14.1694 14.2003 14.1414C12.9986 13.7717 10.993 13.7717 9.78855 14.1414C8.98743 14.3851 8.50283 14.7801 8.35157 15.3151C8.31796 15.4271 8.30115 15.5448 8.30115 15.668V16.5504C8.28002 16.5424 8.25908 16.5342 8.23804 16.5259C8.17817 16.5025 8.11745 16.4787 8.04905 16.458C6.84457 16.091 4.84178 16.091 3.6373 16.458C2.83618 16.7017 2.35158 17.0966 2.19752 17.6316V17.6344C2.16671 17.7465 2.1499 17.8669 2.1499 17.9846V20.2955C2.1499 20.4944 2.24514 20.6624 2.388 20.7773C2.6429 21.1078 3.06587 21.3739 3.6429 21.5504C4.24234 21.7353 5.02665 21.8361 5.84738 21.8361C6.6681 21.8361 7.45242 21.7353 8.05185 21.5504C8.38519 21.4467 8.6737 21.3039 8.9118 21.133C9.14709 21.3011 9.44121 21.4439 9.79415 21.5504C10.3964 21.7353 11.1779 21.8361 11.9986 21.8361C12.8194 21.8361 13.6037 21.7353 14.2031 21.5504C14.5364 21.4467 14.8278 21.3039 15.0659 21.133C15.2815 21.2899 15.5588 21.4355 15.937 21.5504C16.542 21.7353 17.3235 21.8361 18.1415 21.8361C18.9594 21.8361 19.7437 21.7353 20.3488 21.5504C21.5784 21.175 21.8361 20.5112 21.8361 20.021V13.3907Z" fill="#313235"/>
</svg>
