<svg width="24" height="24" viewBox="0 0 24 24" fill="none" xmlns="http://www.w3.org/2000/svg">
<path fill-rule="evenodd" clip-rule="evenodd" d="M2.55005 11.8179C2.55005 18.9776 7.4296 21.6078 12.0066 21.6863H12.0072C12.3012 21.6863 12.6146 21.6863 12.8666 21.6835C14.326 21.6583 19.2531 21.2269 21.3596 16.6751C21.4716 16.4314 21.4156 16.1429 21.2167 15.9636C21.0206 15.7843 20.7265 15.7479 20.494 15.8824C19.1327 16.6555 17.6649 16.8011 16.9002 16.8179C16.7041 16.8235 16.466 16.8235 16.2531 16.8235C14.7349 16.7983 9.76854 16.2381 9.76854 10.0056C9.76854 5.40616 12.4128 3.87675 14.6313 3.40336C14.9198 3.34174 15.1215 3.08683 15.1187 2.79272C15.1131 2.4986 14.903 2.2493 14.6117 2.19608C13.805 2.04762 13.1495 2.01401 12.8162 2.0084L11.9366 2C7.39879 2.05882 2.55005 4.66667 2.55005 11.8179ZM3.78814 11.8179C3.78814 4.17087 9.6845 3.29972 11.7713 3.23529C10.0851 4.29692 8.53324 6.28571 8.53604 10.0028C8.53604 15.8487 12.5136 17.9916 16.2475 18.0504C16.4856 18.0504 16.7433 18.0504 16.9394 18.042C17.4744 18.0308 18.3204 17.9636 19.2615 17.7031C17.1943 20.1597 13.931 20.4286 12.8414 20.4482C12.5893 20.4566 12.2895 20.4566 12.0206 20.4566C10.0879 20.4258 3.78814 19.7059 3.78814 11.8179Z" fill="#313235"/>
</svg>
