<svg width="24" height="24" viewBox="0 0 24 24" fill="none" xmlns="http://www.w3.org/2000/svg">
<path fill-rule="evenodd" clip-rule="evenodd" d="M14.7201 16.0843V10.8154C14.7201 9.46523 15.4652 8.72014 16.8154 8.72014H17.7117V8.71173C17.7117 7.877 17.5409 7.25515 17.1991 6.86579C16.8546 6.47084 16.3112 6.27756 15.5409 6.27756H5.45123C4.68092 6.27756 4.1375 6.47084 3.79297 6.86579C3.45403 7.25515 3.28036 7.877 3.28036 8.71173V13.6501C3.28036 14.4848 3.45123 15.1067 3.79297 15.496C4.1375 15.891 4.68092 16.0843 5.45123 16.0843H14.7201ZM14.7201 17.2019H5.45123C4.35319 17.2019 3.51005 16.8742 2.94703 16.2327C2.42322 15.6333 2.15991 14.765 2.15991 13.6501V8.71173C2.15991 7.59689 2.42602 6.72854 2.94703 6.1291C3.51005 5.48484 4.35039 5.15991 5.45123 5.15991H15.5409C16.6389 5.15991 17.482 5.48764 18.0451 6.1291C18.5689 6.72854 18.8322 7.59689 18.8322 8.71173V8.72014H19.7537C21.1235 8.72014 21.849 9.44563 21.849 10.8154V17.3056C21.8462 18.6753 21.1235 19.4008 19.7509 19.4008H16.8154C15.4456 19.4008 14.7201 18.6753 14.7201 17.3056V17.2019ZM7.90221 19.4036H12.8182C13.1291 19.4036 13.3784 19.1515 13.3784 18.8434C13.3784 18.5353 13.1263 18.2832 12.8182 18.2832H7.90221C7.59409 18.2832 7.34198 18.5353 7.34198 18.8434C7.34198 19.1515 7.59409 19.4036 7.90221 19.4036ZM18.2832 17.5997C17.9974 17.5997 17.8266 17.4876 17.7341 17.3924C17.6445 17.3 17.5353 17.1319 17.5353 16.8518C17.5353 16.3952 17.8294 16.1011 18.2832 16.1011C18.7369 16.1011 19.0311 16.3952 19.0311 16.8518C19.0311 17.1319 18.9246 17.3 18.8322 17.3924C18.7397 17.4848 18.5689 17.5997 18.2832 17.5997ZM16.8154 9.83778C16.0871 9.83778 15.8406 10.0843 15.8406 10.8126V17.3028C15.8406 17.6781 15.9106 17.9386 16.0479 18.0759C16.1851 18.2103 16.4428 18.2804 16.8182 18.2804H19.7566C20.1319 18.2804 20.3896 18.2131 20.5269 18.0759C20.6641 17.9414 20.7341 17.6809 20.7341 17.3028V10.8154C20.7341 10.0675 20.5073 9.84058 19.7594 9.84058H16.8154V9.83778Z" fill="#313235"/>
</svg>
