<svg width="24" height="24" viewBox="0 0 24 24" fill="none" xmlns="http://www.w3.org/2000/svg">
<path fill-rule="evenodd" clip-rule="evenodd" d="M5.16948 9.03081C5.43278 4.4986 8.2199 2 13.0154 2C18.0182 2 20.8866 4.82913 20.8894 9.7619C20.8894 13.4762 19.3235 15.3782 17.7689 16.3473L17.7577 20.4594C17.7521 21.1429 17.1947 21.6919 16.5112 21.6863H9.45799C8.76892 21.6863 8.21149 21.1345 8.21149 20.4566V19.3501C7.17228 19.1877 6.38516 18.8067 5.86135 18.2129C5.42998 17.7339 5.20589 17.1064 5.2339 16.465L5.21429 15.1765L3.77452 14.8011C3.34875 14.6919 3.01541 14.3697 2.89217 13.9496C2.77172 13.5322 2.88096 13.0812 3.18348 12.7675C3.74651 12.1821 4.2339 11.5266 4.62886 10.8151C4.95379 10.2241 5.13306 9.62185 5.16948 9.03081ZM19.6401 9.7619C19.6401 10.7087 19.5168 11.5378 19.3011 12.2717H15.2283C15.1191 12.0112 14.9426 11.7815 14.7185 11.6078L15.909 8.37535C16.6261 8.19048 17.1583 7.55462 17.1583 6.79272C17.1583 5.88796 16.4132 5.15126 15.4944 5.15126C14.8249 5.15126 14.2507 5.54342 13.9874 6.10644H12.5392V3.2437C12.5791 3.2423 12.6188 3.24072 12.6585 3.23915L12.6586 3.23915C12.7778 3.23442 12.8971 3.22969 13.021 3.22969C17.2003 3.22969 19.6401 5.31373 19.6401 9.7619ZM16.5112 20.4566L16.5224 15.6218C17.5112 15.1597 18.2815 14.4566 18.8137 13.5042H15.2311C14.9818 14.1036 14.3852 14.5294 13.6905 14.5294C12.7717 14.5294 12.0266 13.7927 12.0266 12.888C12.0266 12.0392 12.6821 11.3501 13.5168 11.2633L14.6457 8.19608C14.3151 8 14.063 7.69748 13.9314 7.33613H12.1807L10.5868 8.96919C10.6765 9.17087 10.7269 9.39216 10.7269 9.62465C10.7269 10.5294 9.979 11.2661 9.06303 11.2661C8.14427 11.2661 7.39917 10.5294 7.39917 9.62465C7.39917 8.71989 8.14427 7.98599 9.06303 7.98599C9.27872 7.98599 9.49161 8.02801 9.69329 8.10924L11.2899 6.47339V3.37255C8.35995 3.87115 6.61205 5.72829 6.41597 9.10364C6.36836 9.91036 6.11626 10.6919 5.7269 11.4034C5.28152 12.2073 4.7297 12.9524 4.09104 13.6134L6.44679 14.2269L6.4804 16.5042C6.4804 16.5042 6.2311 18.2101 9.45519 18.2101V20.4566H16.5112ZM9.06303 10.0364C9.28992 10.0364 9.4776 9.85434 9.4776 9.62745C9.4776 9.54062 9.44399 9.46218 9.39637 9.39496C9.39 9.39071 9.38322 9.38687 9.37635 9.38297L9.37635 9.38296L9.37633 9.38295C9.36508 9.37657 9.35357 9.37003 9.34315 9.36134C9.33177 9.3516 9.32417 9.33902 9.31651 9.32635C9.31096 9.31718 9.30539 9.30795 9.29833 9.29972C9.2283 9.2521 9.14987 9.21849 9.06303 9.21849C8.83334 9.21849 8.64567 9.40056 8.64567 9.62745C8.64847 9.85434 8.83614 10.0364 9.06303 10.0364ZM15.4916 7.20168C15.2647 7.20168 15.077 7.01961 15.077 6.79272C15.077 6.56583 15.2647 6.38375 15.4916 6.38375C15.7213 6.38375 15.909 6.56863 15.909 6.79272C15.909 7.01961 15.7213 7.20168 15.4916 7.20168ZM14.1023 12.888C14.1023 12.6611 13.9174 12.4762 13.6877 12.4762C13.458 12.479 13.2731 12.6611 13.2731 12.888C13.2731 13.1148 13.4608 13.2969 13.6877 13.2969C13.9146 13.2969 14.1023 13.1148 14.1023 12.888Z" fill="#313235"/>
</svg>
