<svg width="24" height="24" viewBox="0 0 24 24" fill="none" xmlns="http://www.w3.org/2000/svg">
<path fill-rule="evenodd" clip-rule="evenodd" d="M4.88233 2.1499C4.15124 2.1499 3.67505 2.53366 3.67505 3.36279C3.67505 3.76054 3.78429 4.05466 3.98037 4.25634C4.19045 4.47203 4.50138 4.57567 4.88233 4.57567C5.26328 4.57567 5.57421 4.47203 5.78429 4.25634C5.98037 4.05746 6.08961 3.76054 6.08961 3.36279C6.08961 2.53366 5.61342 2.1499 4.88233 2.1499ZM8.43414 2.1499C7.70305 2.1499 7.22686 2.53366 7.22686 3.36279C7.22686 3.76054 7.33611 4.05466 7.53219 4.25634C7.74227 4.47203 8.05319 4.57567 8.43414 4.57567C8.8151 4.57567 9.12602 4.47203 9.3361 4.25634C9.53218 4.05746 9.64143 3.76054 9.64143 3.36279C9.64143 2.53366 9.16804 2.1499 8.43414 2.1499ZM10.7759 3.36279C10.7759 2.53366 11.2521 2.1499 11.9832 2.1499C12.7142 2.1499 13.1904 2.53366 13.1904 3.36279C13.1904 3.76054 13.0812 4.05746 12.8851 4.25634C12.675 4.47203 12.3641 4.57567 11.9832 4.57567C11.6022 4.57567 11.2913 4.47203 11.0812 4.25634C10.8851 4.05466 10.7759 3.76054 10.7759 3.36279ZM4.88233 5.42721C4.15124 5.42721 3.67505 5.81376 3.67505 6.64009C3.67505 7.03785 3.78429 7.33477 3.98037 7.53365C4.19045 7.74933 4.50138 7.85297 4.88233 7.85297C5.26328 7.85297 5.57421 7.74933 5.78429 7.53365C5.98037 7.33477 6.08961 7.03785 6.08961 6.64009C6.08961 5.81096 5.61342 5.42721 4.88233 5.42721ZM7.22686 6.64009C7.22686 5.81376 7.70305 5.42721 8.43414 5.42721C9.16804 5.42721 9.64143 5.81096 9.64143 6.64009C9.64143 7.03785 9.53218 7.33477 9.3361 7.53365C9.12602 7.74933 8.8151 7.85297 8.43414 7.85297C8.05319 7.85297 7.74227 7.74933 7.53219 7.53365C7.33611 7.33477 7.22686 7.03785 7.22686 6.64009ZM17.8851 21.5616H11.4369C10.7899 21.5616 10.5042 20.951 10.3837 20.6933C10.2661 20.444 9.85711 19.6177 9.38092 18.6597L9.27357 18.4434L9.27352 18.4433C8.53158 16.9486 7.64327 15.1591 7.10642 14.0266C6.77588 13.3264 6.90754 12.5981 7.44535 12.1695C8.00277 11.7241 8.80109 11.7353 9.38372 12.1975C9.68624 12.4384 9.93834 12.7689 10.2185 13.2423V7.18631V7.14989C10.2885 6.04625 10.9327 5.4132 11.9804 5.4132C13.07 5.4132 13.7479 6.09387 13.7479 7.18631V9.56726C13.9327 9.51684 14.1232 9.49163 14.3137 9.49443C15.1428 9.49443 15.7226 9.90619 15.9243 10.6037C16.1316 10.5364 16.3501 10.5056 16.5686 10.5056C17.4033 10.5056 17.9831 10.923 18.182 11.6261C18.3893 11.5617 18.605 11.528 18.8235 11.5308C19.8655 11.5308 20.5098 12.1779 20.5098 13.2227V18.9594C20.5098 19.7577 20.2829 20.3908 19.8403 20.8474C19.3977 21.3039 18.6974 21.5616 17.8851 21.5616ZM17.8851 20.4412H11.5182C11.4706 20.3684 11.4313 20.2955 11.4033 20.2199C11.2801 19.9566 10.8879 19.1667 10.3893 18.1639C9.62742 16.6345 8.68344 14.7297 8.12322 13.5504C8.04759 13.3908 7.98877 13.1751 8.14563 13.0518C8.27168 12.951 8.49857 12.9314 8.69185 13.0827C8.95795 13.2927 9.21846 13.7213 9.5798 14.3908C9.99156 15.1527 10.5014 15.1163 10.703 15.0658C11.0896 14.9678 11.3473 14.5841 11.3445 14.1079C11.3422 13.7762 11.3437 9.58442 11.3443 7.89021V7.88858L11.3445 7.20592C11.3753 6.76894 11.4902 6.53365 11.9888 6.53365C12.4593 6.53365 12.6358 6.71012 12.6358 7.18631V11.1835C12.6358 11.4916 12.8879 11.7437 13.196 11.7437C13.5042 11.7437 13.7563 11.4916 13.7563 11.1835C13.7563 10.7605 13.9047 10.6121 14.3221 10.6121C14.7395 10.6121 14.8879 10.7605 14.8879 11.1835V12.1975C14.8879 12.5056 15.14 12.7577 15.4481 12.7577C15.7563 12.7577 16.0084 12.5056 16.0084 12.1975C16.0084 11.7745 16.1568 11.6261 16.5742 11.6261C16.9916 11.6261 17.14 11.7745 17.14 12.1975V13.2227C17.14 13.5308 17.3921 13.7829 17.7002 13.7829C18.0084 13.7829 18.2605 13.5308 18.2605 13.2227C18.2605 12.7997 18.4089 12.6513 18.8263 12.6513C19.2437 12.6513 19.3921 12.7997 19.3921 13.2227V18.9622C19.3921 19.458 19.2689 19.8305 19.0392 20.0686C18.8095 20.3067 18.3893 20.4412 17.8851 20.4412ZM4.88233 8.70451C4.15124 8.70451 3.67505 9.09107 3.67505 9.9174C3.67505 10.3152 3.78429 10.6121 3.98037 10.811C4.19045 11.0266 4.50138 11.1331 4.88233 11.1331C5.26328 11.1331 5.57421 11.0294 5.78429 10.811C5.98037 10.6121 6.08961 10.3152 6.08961 9.9174C6.08961 9.08827 5.61342 8.70451 4.88233 8.70451ZM7.22686 9.9174C7.22686 9.09107 7.70305 8.70451 8.43414 8.70451C9.16804 8.70451 9.64143 9.08827 9.64143 9.9174C9.64143 10.3152 9.53218 10.6121 9.3361 10.811C9.12602 11.0294 8.8151 11.1331 8.43414 11.1331C8.05319 11.1331 7.74227 11.0266 7.53219 10.811C7.33611 10.6121 7.22686 10.3152 7.22686 9.9174Z" fill="#313235"/>
</svg>
