<svg width="24" height="24" viewBox="0 0 24 24" fill="none" xmlns="http://www.w3.org/2000/svg">
<path fill-rule="evenodd" clip-rule="evenodd" d="M12.4037 2.17112C13.978 2.20753 21.8463 2.86019 21.8463 12.0283C21.8463 21.2019 14.0088 21.8126 12.4373 21.8406C12.2693 21.8434 12.0788 21.8462 11.8855 21.8462H11.8853C11.7789 21.8462 11.6754 21.8462 11.5718 21.8434C10.0004 21.821 2.16003 21.2383 2.16003 11.9722C2.16003 10.3476 2.61101 2.23834 11.5074 2.15991C11.8043 2.15991 12.132 2.16551 12.4037 2.17112ZM12.4149 20.6389C14.3449 20.6025 20.6418 19.877 20.6418 12.0311C20.6418 4.18512 14.3141 3.42322 12.3757 3.3784C12.1124 3.37 11.7987 3.36439 11.5214 3.37C9.60821 3.3868 3.36732 4.05907 3.36732 11.9778C3.36732 19.9106 9.66143 20.6165 11.5914 20.6445C11.8659 20.6473 12.1684 20.6445 12.4149 20.6389ZM10.2553 12.3084C10.2553 14.7061 9.42054 15.0283 8.60541 15.0283C7.78468 15.0283 6.94715 14.7061 6.94715 12.3084C6.94715 9.89661 7.78468 9.57168 8.60541 9.57168C9.37292 9.57168 10.2553 9.8826 10.2553 12.3084ZM8.60541 8.47924C9.86312 8.47924 11.3673 9.14311 11.3673 12.3084C11.3673 15.4652 9.86592 16.1291 8.60541 16.1291C7.34211 16.1291 5.8351 15.468 5.8351 12.3084C5.8351 9.14311 7.34211 8.47924 8.60541 8.47924ZM17.3477 9.00585C17.3477 8.78456 17.1684 8.60529 16.9471 8.60529H16.6782C16.457 8.60529 16.2777 8.78456 16.2777 9.00585V13.6809L13.0368 8.78456C12.9612 8.67252 12.8351 8.60529 12.7007 8.60529H12.4878C12.2665 8.60529 12.0872 8.78456 12.0872 9.00585V15.5913C12.0872 15.8126 12.2665 15.9918 12.4878 15.9918H12.7567C12.978 15.9918 13.1572 15.8126 13.1572 15.5913V10.919L16.3897 15.8126C16.4654 15.9246 16.5914 15.9918 16.7259 15.9918H16.9471C17.1684 15.9918 17.3477 15.8126 17.3477 15.5913V9.00585Z" fill="#313235"/>
</svg>
