<svg width="24" height="24" viewBox="0 0 24 24" fill="none" xmlns="http://www.w3.org/2000/svg">
<path fill-rule="evenodd" clip-rule="evenodd" d="M21.8455 17.5132C21.8287 16.5496 21.3777 15.6224 20.5038 14.7485C20.1592 14.4039 19.8007 14.1238 19.4533 13.9165C18.669 13.4319 17.8511 13.2555 17.0192 13.3955C16.2152 13.5328 15.4393 13.9698 14.7167 14.6924C14.6242 14.7821 14.5514 14.8605 14.4814 14.9389C14.3665 14.8885 14.1872 14.7933 13.9323 14.6196C13.148 14.0818 12.2012 13.163 11.5626 12.5244L11.4814 12.4431C10.8371 11.8045 9.92113 10.8605 9.38332 10.0734C9.20965 9.8185 9.11441 9.63923 9.06399 9.52438C9.14802 9.44875 9.23206 9.37312 9.31049 9.29189C10.036 8.5692 10.4702 7.79329 10.6074 6.98937C10.7475 6.16024 10.571 5.33951 10.0948 4.5692C9.86231 4.17984 9.5794 3.8213 9.25727 3.50197C8.38332 2.63082 7.45334 2.17984 6.49256 2.16024C5.49536 2.14623 4.51777 2.58601 3.57659 3.48517C3.24886 3.79889 2.94634 4.21626 2.81469 4.40113C1.94634 5.66164 1.94074 7.54399 2.80348 9.70085C3.64102 11.8101 5.25727 14.0986 7.47575 16.3311C7.49256 16.3563 7.51497 16.3759 7.53738 16.3955L7.61301 16.4712C9.86231 18.7205 12.1732 20.3563 14.3021 21.2051C15.3749 21.6336 16.3749 21.8493 17.2769 21.8493C18.19 21.8493 18.9744 21.628 19.6634 21.149C19.8147 21.0398 20.2152 20.7485 20.5206 20.4291C21.4197 19.4908 21.8651 18.5076 21.8455 17.5132ZM20.585 17.5356C20.599 18.1882 20.2713 18.8661 19.6102 19.558C19.3833 19.7961 19.0388 20.0454 18.8903 20.1518C17.9996 20.7681 16.5066 20.7233 14.7699 20.0314C12.8007 19.2471 10.6354 17.7065 8.50377 15.5776L8.45895 15.5328L8.42813 15.4992C6.29928 13.3703 4.75867 11.2051 3.97435 9.23587C3.27407 7.48237 3.22926 6.01738 3.87631 5.08741C4.0948 4.78209 4.28528 4.55239 4.44774 4.39553C5.13962 3.73447 5.82309 3.40393 6.47015 3.42074C7.0948 3.43194 7.73346 3.75968 8.36371 4.38993C8.61301 4.63363 8.8315 4.91094 9.01077 5.21346C9.3357 5.73727 9.45054 6.24987 9.36091 6.77368C9.27127 7.3171 8.95194 7.86332 8.41693 8.39833C8.27127 8.54399 8.17603 8.63082 8.00517 8.76528C7.93794 8.8157 7.88472 8.87732 7.8455 8.95015C7.61301 9.37032 7.76987 9.95295 8.3413 10.7877C8.94074 11.6616 9.90993 12.6616 10.585 13.3339L10.6662 13.4151C11.3441 14.0902 12.3469 15.0622 13.2152 15.6588C14.05 16.2303 14.6354 16.3871 15.05 16.1518C15.12 16.1126 15.1844 16.0594 15.2349 15.995C15.3497 15.8521 15.4702 15.7121 15.6018 15.5832C16.1368 15.0482 16.6858 14.7317 17.2265 14.6392C17.7447 14.5552 18.2713 14.67 18.8035 14.9978C19.1004 15.1742 19.3721 15.3899 19.613 15.6364C20.2461 16.2723 20.5738 16.9109 20.585 17.5356ZM14.0836 8.66724C14.0136 8.72046 13.9996 8.74847 13.994 8.77928C13.9884 8.8129 13.9996 8.84931 14.022 8.87452L14.9463 9.90533C14.9968 9.96976 15.0248 9.99497 15.0696 9.99777C15.0738 9.99357 15.0969 9.98307 15.12 9.97257L15.12 9.97256C15.1431 9.96206 15.1662 9.95155 15.1704 9.94735L17.6326 7.83251C17.8903 7.60842 18.2825 7.63363 18.5122 7.88573L18.98 8.40113L19.7419 4.83251L19.7307 4.8297L16.134 5.10982L16.585 5.61402C16.8175 5.87452 16.7951 6.27228 16.5374 6.50477L16.5346 6.50758L14.0836 8.66724ZM13.0864 9.72046L13.9744 10.7037C14.2124 11.0174 14.571 11.2191 14.9631 11.2499C15.3413 11.2863 15.7138 11.1602 15.9912 10.9025L17.9884 9.18545L18.12 9.3311C18.4337 9.68124 18.8959 9.8241 19.3273 9.70646C19.7615 9.59161 20.0892 9.23587 20.1872 8.77928L20.9772 5.09021C21.0612 4.69525 20.9603 4.29469 20.6998 3.99777C20.4646 3.72886 20.1172 3.5748 19.7531 3.5748L19.6522 3.5776L15.9127 3.86612C15.4365 3.90253 15.0388 4.18825 14.8707 4.60842C14.7054 5.02858 14.7979 5.50758 15.1144 5.86052L15.2265 5.98377L13.2965 7.68405C13.2573 7.71206 13.2209 7.74287 13.1872 7.77368C12.6214 8.28349 12.5766 9.15463 13.0864 9.72046Z" fill="#313235"/>
</svg>
