<svg width="24" height="24" viewBox="0 0 24 24" fill="none" xmlns="http://www.w3.org/2000/svg">
<path fill-rule="evenodd" clip-rule="evenodd" d="M18.5426 10.0504C18.547 10.056 18.5514 10.0616 18.556 10.0672C19.021 10.6331 19.2675 11.3782 19.2647 12.3081C19.2647 13.2381 19.0154 13.9832 18.5504 14.549L18.5084 14.5994C18.402 14.7059 18.2899 14.8123 18.1723 14.9076C17.8978 15.1317 17.5952 15.3249 17.2675 15.4902L17.2507 16.5966C17.2311 19.0588 15.8081 21.6863 11.881 21.6863C7.95378 21.6863 6.53081 19.0588 6.5112 16.5966L6.4944 15.4902C6.16667 15.3277 5.86415 15.1345 5.58964 14.9076C5.47199 14.8123 5.35994 14.7087 5.2535 14.5994L5.21148 14.549C4.7493 13.9832 4.5 13.2381 4.5 12.3081C4.5 11.3782 4.7493 10.6331 5.21148 10.0672C5.21989 10.0588 5.22619 10.0504 5.23249 10.042C5.2388 10.0336 5.2451 10.0252 5.2535 10.0168C5.29301 9.9694 5.32834 9.93731 5.36735 9.90188C5.38365 9.88707 5.4006 9.87168 5.41877 9.85434C5.46919 9.80392 5.52521 9.7479 5.58964 9.70588C6.32633 9.10644 7.2591 8.72829 8.34034 8.58543C7.93417 7.93557 7.72689 7.12045 7.72689 6.14566C7.72689 4.81513 8.10784 3.77311 8.85854 3.05042C9.57843 2.35294 10.5952 2 11.881 2C13.1667 2 14.1835 2.35294 14.9062 3.05042C15.6569 3.77311 16.0378 4.81513 16.0378 6.14566C16.0378 7.12045 15.8277 7.93557 15.4244 8.58543C16.5056 8.72829 17.4412 9.10644 18.1751 9.70588C18.2395 9.7507 18.2955 9.80392 18.3459 9.85434C18.3617 9.86869 18.3764 9.88171 18.3905 9.89416C18.4341 9.93277 18.4717 9.96598 18.514 10.0168C18.5252 10.028 18.5339 10.0392 18.5426 10.0504ZM9.72969 3.93838C10.2115 3.47339 10.9398 3.2381 11.8866 3.2381C12.8361 3.2381 13.5616 3.47619 14.0434 3.93838C14.542 4.42017 14.7969 5.16247 14.7969 6.14566C14.7969 6.94398 14.6204 7.57423 14.2899 8.04202C14.2143 8.14846 14.1359 8.2577 14.0434 8.34734C14.0434 8.34734 14.0014 8.37815 13.9482 8.42577C13.7773 8.51261 13.6429 8.66387 13.6092 8.86555C13.5868 9.0056 13.6232 9.14006 13.6849 9.2549C13.6961 9.29692 13.7101 9.33053 13.7213 9.35294C13.8053 9.51541 13.8165 9.55182 13.8669 9.7507C13.9258 9.98039 13.9622 10.2297 13.9622 10.5154C13.9622 11.2269 13.7829 11.7563 13.4328 12.0924C13.091 12.4202 12.57 12.5854 11.8838 12.5854C11.1975 12.5854 10.6765 12.4202 10.3375 12.0924C9.98459 11.7563 9.80532 11.2241 9.80532 10.5154C9.80532 10.2297 9.84454 9.97759 9.90336 9.7507C9.95378 9.55182 9.96779 9.51541 10.049 9.35294C10.063 9.33053 10.0742 9.29692 10.0882 9.2549C10.1527 9.14006 10.1863 9.0056 10.1639 8.86555C10.1303 8.66387 9.9958 8.51261 9.82493 8.42577C9.77171 8.37815 9.72969 8.34734 9.72969 8.34734C9.63978 8.26272 9.56735 8.16063 9.4959 8.05991L9.48319 8.04202C9.15266 7.57423 8.97619 6.94398 8.97619 6.14566C8.97619 5.16247 9.22829 4.42017 9.72969 3.93838ZM17.6345 13.7227C17.3739 13.9832 17.0574 14.1877 16.7101 14.3613C16.5364 14.4482 16.3627 14.5322 16.1695 14.5966C15.7297 14.7395 15.2339 14.8207 14.6989 14.8403C14.6636 14.8425 14.6299 14.8458 14.5964 14.8492C14.5423 14.8546 14.4888 14.8599 14.43 14.8599H9.34314C9.29294 14.8599 9.24522 14.855 9.19729 14.85L9.19727 14.85C9.15694 14.8458 9.11646 14.8416 9.07423 14.8403C8.53922 14.8179 8.04342 14.7395 7.60364 14.5966C7.41036 14.5322 7.23669 14.4482 7.06303 14.3613C6.71569 14.1877 6.39916 13.986 6.13866 13.7227C5.88375 13.3838 5.7493 12.916 5.7493 12.3081C5.7493 11.7031 5.88655 11.2353 6.14146 10.8908C6.7409 10.2857 7.59524 9.92437 8.62045 9.80672C8.58683 10.0336 8.56443 10.2661 8.56443 10.5182C8.56443 11.577 8.87255 12.4062 9.47759 12.986C10.0574 13.5406 10.8697 13.8235 11.8894 13.8235C12.9118 13.8235 13.7213 13.5406 14.3011 12.986C14.9062 12.4062 15.2115 11.577 15.2115 10.5182C15.2115 10.2689 15.1919 10.0336 15.1583 9.80672C16.1835 9.92717 17.035 10.2857 17.6373 10.8908C17.8922 11.2325 18.0294 11.7031 18.0294 12.3081C18.0238 12.916 17.8894 13.3838 17.6345 13.7227ZM13.9622 16.098L13.9594 16.3529C13.9538 17.0784 13.6737 18.2885 11.8866 18.2885C10.0994 18.2885 9.81933 17.0784 9.81373 16.3529L9.81092 16.098H13.9622ZM11.8866 20.4538C15.5784 20.4538 16.0014 17.7507 16.0126 16.5854L16.0182 15.9216C15.7577 15.9804 15.486 16.0252 15.2059 16.0532L15.2003 16.3641C15.1891 17.8235 14.3123 19.521 11.8838 19.521C9.45798 19.5182 8.58123 17.8207 8.56723 16.3641L8.56162 16.0532C8.28151 16.0252 8.0098 15.9804 7.7493 15.9216L7.7605 16.5854C7.77171 17.7507 8.19188 20.4538 11.8866 20.4538Z" fill="#313235"/>
</svg>
