<svg width="24" height="24" viewBox="0 0 24 24" fill="none" xmlns="http://www.w3.org/2000/svg">
<path fill-rule="evenodd" clip-rule="evenodd" d="M11.9862 21.821C8.86299 21.821 6.43442 21.0058 4.76776 19.398C3.03666 17.7313 2.15991 15.2411 2.15991 11.9946C2.15991 8.74815 3.03666 6.25515 4.76776 4.58568C6.43442 2.97784 8.86579 2.15991 11.9862 2.15991C15.1095 2.15991 17.5381 2.97504 19.2075 4.58288C20.9414 6.25235 21.8182 8.74535 21.8182 11.9918C21.8182 15.2383 20.9386 17.7285 19.2075 19.398C17.5381 21.0058 15.1095 21.821 11.9862 21.821ZM11.9862 3.24955C6.18792 3.24955 3.24675 6.19072 3.24675 11.9946C3.24675 17.793 6.18792 20.7341 11.9862 20.7341C17.7874 20.7341 20.7313 17.793 20.7313 11.9946C20.7313 6.19353 17.7874 3.24955 11.9862 3.24955ZM9.25795 16.3756C8.94983 16.3756 8.69773 16.1235 8.69773 15.8154V8.16832C8.69773 7.86019 8.94983 7.60809 9.25795 7.60809C9.56607 7.60809 9.81818 7.86019 9.81818 8.16832V15.8154C9.81818 16.1235 9.56607 16.3756 9.25795 16.3756ZM14.7201 16.3756C14.412 16.3756 14.1599 16.1235 14.1599 15.8154V8.16832C14.1599 7.86019 14.412 7.60809 14.7201 7.60809C15.0283 7.60809 15.2804 7.86019 15.2804 8.16832V15.8154C15.2804 16.1235 15.0283 16.3756 14.7201 16.3756Z" fill="#313235"/>
</svg>
