<svg width="24" height="24" viewBox="0 0 24 24" fill="none" xmlns="http://www.w3.org/2000/svg">
<path fill-rule="evenodd" clip-rule="evenodd" d="M21.8463 9.64854C21.8267 8.66535 21.034 7.86703 20.0816 7.86703H19.2413V7.86983H18.5634C18.3589 6.92865 17.5354 6.21997 16.5522 6.21997H7.47656C4.04799 6.32921 2.16003 8.36563 2.16003 11.9539C2.16003 15.5365 4.04799 17.5785 7.49617 17.7046H16.5662C17.5634 17.7046 18.3981 16.9735 18.5858 16.0099H20.0956C21.062 16.0099 21.8463 15.2032 21.8463 14.2144V9.64854ZM16.5662 16.4777C17.0368 16.4777 17.4177 16.0827 17.4177 15.5981V15.3992H17.4037V8.32921C17.4037 7.84462 17.0228 7.44966 16.5522 7.44966H7.49617C4.76227 7.5365 3.36732 9.0547 3.36732 11.9567C3.36732 14.8586 4.76228 16.3796 7.51578 16.4777H16.5662ZM20.639 9.66535V14.2172C20.639 14.5281 20.3953 14.783 20.0956 14.7858H18.6138V9.09952H20.1292C20.4093 9.12473 20.6334 9.37403 20.639 9.66535ZM7.43735 12.0659C7.43735 11.4329 7.076 11.1387 6.51858 11.1387C5.96396 11.1387 5.59981 11.4329 5.59981 12.0659C5.59981 12.3712 5.68384 12.5953 5.8323 12.7494C5.99197 12.9146 6.23006 12.9959 6.51858 12.9959C6.80709 12.9959 7.04239 12.9146 7.20485 12.7494C7.35331 12.5953 7.43735 12.3712 7.43735 12.0659Z" fill="#313235"/>
</svg>
