<svg width="24" height="24" viewBox="0 0 24 24" fill="none" xmlns="http://www.w3.org/2000/svg">
<path fill-rule="evenodd" clip-rule="evenodd" d="M18.8945 4.0055C21.1578 6.27441 21.3343 8.7618 19.4211 11.0643C21.0598 11.9747 21.8469 13.7002 21.8497 16.0811C21.8497 19.717 20.0178 21.843 16.1018 21.843C13.6088 21.843 11.9645 20.9803 11.0962 19.4173C10.0374 20.3248 8.93373 20.7842 7.82449 20.7842C6.53037 20.7842 5.23345 20.168 4.00376 18.9327C2.75726 17.6834 2.13821 16.3752 2.16062 15.0447C2.18303 13.7646 2.79928 12.5041 3.99816 11.3052L4.13541 11.1652C4.24746 11.0475 4.3595 10.9299 4.47715 10.829L10.8357 4.45088C10.9085 4.36404 11.0206 4.2548 11.1382 4.14276L11.2811 4.0055C13.7349 1.54332 16.4407 1.54612 18.8945 4.0055ZM11.9604 5.07837L11.9604 5.07837L11.9604 5.07838C11.8863 5.14972 11.8131 5.2202 11.7461 5.29682L9.23065 7.81783C9.22925 7.82483 9.22925 7.83183 9.22925 7.83883C9.22925 7.84584 9.22925 7.85284 9.22785 7.85984C8.88891 8.95228 9.48275 10.2772 10.9954 11.7926C11.1253 11.9225 11.2532 12.038 11.3807 12.1532L11.3807 12.1532L11.3808 12.1533L11.4435 12.21C12.3735 10.9859 13.9113 10.322 16.1018 10.322C16.8805 10.322 17.5724 10.4089 18.1886 10.5713C19.9785 8.66096 19.9281 6.79822 18.0178 4.88505C16.0486 2.91026 14.1326 2.90746 12.1606 4.88505L11.9982 5.04191L11.9604 5.07837ZM10.5472 18.2464C8.64522 20.0335 6.79367 19.9691 4.88051 18.0559C2.90852 16.0811 2.90852 14.1596 4.87491 12.1876L5.03177 12.0251L5.07999 11.9749C5.14832 11.9034 5.22008 11.8283 5.31748 11.7422L7.95334 9.10074C8.14662 10.2268 8.8609 11.4201 10.1102 12.675C10.3511 12.9131 10.5864 13.1316 10.8161 13.3304C10.5052 14.1147 10.3483 15.0335 10.3483 16.0839C10.3483 16.857 10.4351 17.5545 10.6032 18.1848C10.592 18.2044 10.578 18.2184 10.5472 18.2464ZM16.099 20.5993C13.2475 20.5993 11.8245 19.3444 11.634 16.7058H20.5668C20.3735 19.3472 18.9505 20.5993 16.099 20.5993ZM20.5668 15.4621H11.634C11.8273 12.8234 13.2503 11.5685 16.099 11.5685C18.9505 11.5685 20.3735 12.8206 20.5668 15.4621Z" fill="#313235"/>
</svg>
