<svg width="24" height="24" viewBox="0 0 24 24" fill="none" xmlns="http://www.w3.org/2000/svg">
<path fill-rule="evenodd" clip-rule="evenodd" d="M15.8624 2.47823L21.5235 8.16731C21.7336 8.37739 21.8456 8.6491 21.8484 8.93762C21.8484 9.20652 21.7448 9.45862 21.5571 9.6463C20.7952 10.4138 19.9717 10.8676 19.0949 11.016L16.5627 13.5679C16.91 15.5931 16.1874 17.5202 14.4198 19.3018C14.1453 19.5791 13.8064 19.7135 13.4731 19.7135C13.1565 19.7135 12.8484 19.5931 12.6131 19.355L9.09491 15.8088L3.22657 21.6659C3.10612 21.7864 2.94365 21.848 2.78679 21.848C2.62433 21.848 2.46466 21.7864 2.34141 21.6631C2.09772 21.4166 2.10052 21.016 2.34421 20.7724L8.20976 14.918L4.76718 11.4502C4.53469 11.2149 4.40584 10.904 4.40584 10.5735C4.40584 10.2401 4.53189 9.92921 4.76718 9.69392L4.798 9.6603C6.98847 7.45582 9.0613 7.21213 10.5179 7.46423L13.0473 4.91521C13.1846 4.03846 13.6271 3.22053 14.3638 2.47823C14.7952 2.04406 15.4507 2.06367 15.8624 2.47823ZM18.3582 9.97683C18.4591 9.87319 18.5907 9.81157 18.7336 9.79476C19.361 9.73033 19.9409 9.44182 20.5039 8.91801L15.1173 3.50344C14.5963 4.08047 14.319 4.66311 14.2602 5.26815C14.2462 5.41381 14.1846 5.54826 14.0809 5.6519L11.1621 8.59028C11.0081 8.74714 10.7868 8.81156 10.5767 8.75834C8.90444 8.36058 7.25738 8.96002 5.68315 10.5455L5.65514 10.5763L9.49547 14.439C9.5015 14.4438 9.50856 14.4476 9.51576 14.4515C9.52531 14.4566 9.53511 14.4618 9.54309 14.4698C9.55108 14.4778 9.55633 14.4876 9.56145 14.4972C9.56531 14.5044 9.56909 14.5114 9.57391 14.5174L13.4955 18.4614C15.0809 16.8536 15.6635 15.2037 15.2742 13.5006C15.2238 13.2906 15.2882 13.0665 15.4395 12.9152L18.3582 9.97683Z" fill="#313235"/>
</svg>
