<svg width="24" height="24" viewBox="0 0 24 24" fill="none" xmlns="http://www.w3.org/2000/svg">
<path fill-rule="evenodd" clip-rule="evenodd" d="M11.9862 21.821C8.86299 21.821 6.43442 21.0058 4.76776 19.398C3.03666 17.7313 2.15991 15.2411 2.15991 11.9946C2.15991 8.74815 3.03666 6.25515 4.76776 4.58568C6.43442 2.97784 8.86579 2.15991 11.9862 2.15991C15.1095 2.15991 17.5381 2.97504 19.2075 4.58288C20.9414 6.25235 21.8182 8.74535 21.8182 11.9918C21.8182 15.2383 20.9386 17.7285 19.2075 19.398C17.5381 21.0058 15.1095 21.821 11.9862 21.821ZM11.9862 3.24955C6.18792 3.24955 3.24675 6.19072 3.24675 11.9946C3.24675 17.793 6.18792 20.7341 11.9862 20.7341C17.7874 20.7341 20.7313 17.793 20.7313 11.9946C20.7313 6.19353 17.7874 3.24955 11.9862 3.24955ZM9.18792 16.3C9.10389 16.3 9.01986 16.2776 8.94423 16.2355C8.79296 16.1487 8.70053 15.989 8.70053 15.8154V8.1319C8.70053 7.95823 8.79296 7.79857 8.94423 7.71173C9.09549 7.6249 9.28036 7.6249 9.42882 7.71173L16.0815 11.5521C16.2327 11.6389 16.3252 11.7986 16.3252 11.9722C16.3252 12.1459 16.2327 12.3056 16.0815 12.3924L9.42882 16.2355C9.35319 16.2776 9.26916 16.3 9.18792 16.3ZM9.67252 14.9722L14.8686 11.9722L9.67252 8.97224V14.9722Z" fill="#313235"/>
</svg>
