<svg width="24" height="24" viewBox="0 0 24 24" fill="none" xmlns="http://www.w3.org/2000/svg">
<path fill-rule="evenodd" clip-rule="evenodd" d="M7.29132 21.8518H13.8459C14.9524 21.8518 15.7563 21.5857 16.3109 21.0395C16.8655 20.4876 17.1373 19.6753 17.1373 18.5605V16.1094C17.5272 16.1093 17.906 16.109 18.2504 16.1088C19.0599 16.1082 19.6798 16.1077 19.8095 16.1095C20.3333 16.1095 20.6835 15.7566 20.6835 15.2327V8.44843C20.6835 8.29997 20.6246 8.15711 20.5182 8.05347L17.7871 5.32238C17.6835 5.21593 17.5406 5.15711 17.3922 5.15711H17.1303C17.0851 4.21834 16.8171 3.51149 16.3137 3.00305C15.7507 2.43722 14.944 2.15991 13.8459 2.15991H7.29132C6.18207 2.15991 5.37255 2.43162 4.82073 2.98624C4.26891 3.54086 4 4.34759 4 5.45123V18.5605C4 19.6753 4.26891 20.4848 4.82633 21.0395C5.37815 21.5857 6.18487 21.8518 7.29132 21.8518ZM16.0084 5.15711C15.9294 3.82992 15.2846 3.28036 13.8459 3.28036H7.29132C6.4958 3.28036 5.94678 3.44283 5.61345 3.77616C5.28011 4.10949 5.12045 4.65851 5.12045 5.45123V18.5605C5.12045 20.1431 5.70868 20.7313 7.29132 20.7313H13.8459C15.4286 20.7313 16.0168 20.1431 16.0168 18.5605V16.1095H13.3473C12.8151 16.1095 12.4594 15.7509 12.4594 15.2187V6.04226C12.4594 5.51285 12.8151 5.15711 13.3473 5.15711H16.0084ZM13.5798 14.9862H19.5602V9.28876H18.7619C17.3641 9.28876 16.563 8.48764 16.563 7.08988V6.27756H13.5798V14.9862ZM17.6835 6.80417V7.08988C17.6835 7.47924 17.7675 7.75935 17.93 7.92182C18.0924 8.08428 18.3725 8.16832 18.7619 8.16832H19.0476L17.6835 6.80417ZM14.9272 10.7874H18.2129C18.4454 10.7874 18.6331 10.5997 18.6331 10.3672C18.6331 10.1347 18.4454 9.94703 18.2129 9.94703H14.9272C14.6947 9.94703 14.507 10.1347 14.507 10.3672C14.507 10.5997 14.6947 10.7874 14.9272 10.7874ZM14.9272 12.426H18.2129C18.4454 12.426 18.6331 12.2383 18.6331 12.0058C18.6331 11.7734 18.4454 11.5857 18.2129 11.5857H14.9272C14.6947 11.5857 14.507 11.7734 14.507 12.0058C14.507 12.2383 14.6947 12.426 14.9272 12.426ZM18.2129 14.0647H14.9272C14.6947 14.0647 14.507 13.877 14.507 13.6445C14.507 13.412 14.6947 13.2243 14.9272 13.2243H18.2129C18.4454 13.2243 18.6331 13.412 18.6331 13.6445C18.6331 13.877 18.4454 14.0647 18.2129 14.0647ZM9.7479 19.2131C9.94118 19.412 10.2269 19.5185 10.5686 19.5185C10.9104 19.5185 11.2045 19.4092 11.395 19.2131C11.5854 19.0171 11.6835 18.7453 11.6835 18.4036C11.6835 17.7061 11.2689 17.2888 10.5714 17.2888C9.87395 17.2888 9.45938 17.7061 9.45938 18.4036C9.45938 18.7425 9.55462 19.0143 9.7479 19.2131Z" fill="#313235"/>
</svg>
