<svg width="24" height="24" viewBox="0 0 24 24" fill="none" xmlns="http://www.w3.org/2000/svg">
<path fill-rule="evenodd" clip-rule="evenodd" d="M11.8431 5.44811C16.0532 3.35287 20.8992 3.69741 21.1093 3.71422C21.4342 3.73943 21.6863 4.00833 21.6891 4.33046V17.4229C21.6891 17.7674 21.409 18.0447 21.0616 18.0447C16.1933 18.0447 12.4986 19.8347 12.1709 19.9971C12.1597 20.0055 12.1429 20.0139 12.1401 20.0139C12.07 20.0504 11.9972 20.0588 11.9216 20.0672C11.9083 20.0685 11.8963 20.073 11.8846 20.0773C11.8717 20.0821 11.8592 20.0868 11.8459 20.0868C11.7451 20.0868 11.6471 20.0644 11.5546 20.0167L11.553 20.0159C11.4544 19.9662 7.64883 18.0475 2.63026 18.0475C2.28292 18.0475 2.00281 17.7674 2.00281 17.4257V4.33326C2.00281 4.00833 2.25211 3.73943 2.57984 3.71422C2.78992 3.69741 7.63586 3.35007 11.8431 5.44811ZM20.4314 16.8123C16.7955 16.9187 13.8824 17.9131 12.4706 18.4985V6.51814C15.5378 5.01394 19.0644 4.90469 20.4314 4.9299V16.8123ZM3.25491 4.9299C4.62186 4.91309 8.14006 5.01113 11.2157 6.51814V18.4985C9.80673 17.9159 6.89076 16.9187 3.25491 16.8123V4.9299Z" fill="#313235"/>
</svg>
