<svg width="24" height="24" viewBox="0 0 24 24" fill="none" xmlns="http://www.w3.org/2000/svg">
<path fill-rule="evenodd" clip-rule="evenodd" d="M12.0004 2.15991C18.4401 2.15991 21.8463 5.56327 21.8463 12.0059C21.8463 18.4428 18.4429 21.8462 12.0004 21.8462C5.56059 21.8462 2.16003 18.4428 2.16003 12.0059C2.16003 5.56327 5.5634 2.15991 12.0004 2.15991ZM12.0004 20.6389C17.7315 20.6389 20.639 17.7341 20.639 12.0059C20.639 6.27476 17.7343 3.3672 12.0004 3.3672C6.27208 3.3672 3.36732 6.27476 3.36732 12.0059C3.36732 17.7341 6.27208 20.6389 12.0004 20.6389ZM15.2469 16.9498C15.2469 16.7285 15.0648 16.5465 14.8435 16.5465H10.1236C10.9415 15.6753 11.2385 14.919 11.2385 13.8574C11.2385 13.3588 11.1712 12.8434 11.0396 12.3168H13.1488C13.3729 12.3168 13.5522 12.1375 13.5522 11.9134V11.5157C13.5522 11.2944 13.3729 11.1123 13.1488 11.1123H10.6726C10.5018 10.5381 10.3477 9.89381 10.3477 9.25235C10.3477 7.79577 11.1124 7.1179 12.7511 7.1179C13.2749 7.1179 13.9387 7.19072 14.6222 7.31958C14.7343 7.33918 14.8603 7.30837 14.9528 7.23274C15.0452 7.15711 15.0984 7.04226 15.0984 6.92182V6.55487C15.0984 6.3784 14.9836 6.22154 14.8155 6.16832C14.0872 5.94423 13.1628 5.86299 12.5914 5.86299C10.3421 5.86299 9.05079 7.10389 9.05079 9.26355C9.05079 9.97224 9.19085 10.6501 9.35331 11.1935L8.69225 11.2383C8.48216 11.2551 8.3169 11.4288 8.3169 11.6417V11.9134C8.3169 12.1375 8.49617 12.3168 8.72026 12.3168H9.71746C9.88552 12.8798 9.96115 13.3616 9.96115 13.8434C9.96115 14.5885 9.79309 15.1851 8.92194 16.0255C8.45695 16.4708 8.22446 16.6977 8.22446 17.1431C8.22446 17.3056 8.25527 17.4456 8.3169 17.5661C8.38412 17.7005 8.52418 17.7846 8.67544 17.7846H14.8435C15.0676 17.7846 15.2469 17.6053 15.2469 17.3812V16.9498Z" fill="#313235"/>
</svg>
