<svg width="24" height="24" viewBox="0 0 24 24" fill="none" xmlns="http://www.w3.org/2000/svg">
<path fill-rule="evenodd" clip-rule="evenodd" d="M20.7319 6.1415C20.9111 6.30116 21.0092 6.51965 21.0176 6.74374L21.0092 7.43282C21.0092 7.82777 20.7151 8.1471 20.2501 8.29836C20.252 8.30999 20.2543 8.32207 20.2566 8.33446V8.33447C20.2642 8.37578 20.2725 8.42053 20.2725 8.46363L20.2641 16.8474C20.2641 17.4916 19.6703 18.0239 18.9336 18.0239L12.5554 18.0154V19.4188C12.97 19.5869 13.2921 19.965 13.2921 20.5757C13.2921 21.4244 12.6618 21.8194 12.0372 21.8334H11.9392C11.3229 21.825 10.6899 21.4328 10.6899 20.5673C10.6899 19.9482 11.012 19.5785 11.4294 19.4104V18.0154H5.09322C4.57221 18.0351 4.25849 17.839 4.07641 17.6737C3.84392 17.4636 3.71227 17.1667 3.71507 16.853V8.46643C3.71507 8.42861 3.7198 8.3908 3.72452 8.35298C3.7261 8.34038 3.72767 8.32777 3.72907 8.31517C3.5414 8.25634 3.37613 8.16951 3.24728 8.05186C3.07361 7.8978 2.97277 7.67371 2.96997 7.44122V6.75214C2.96997 6.19192 3.56381 5.78576 4.37613 5.78576H7.01479L10.7375 3.79416C10.7039 3.66811 10.6843 3.53926 10.6843 3.40761C10.6843 2.55046 11.3145 2.15831 11.9392 2.1499V2.15831H12.0372C12.6534 2.16391 13.2865 2.56447 13.2865 3.41601C13.2865 3.54766 13.2725 3.66251 13.2417 3.76615L16.7235 5.79136H19.5582C20.0624 5.77175 20.477 5.9006 20.7319 6.1415ZM11.6674 3.40761C11.6674 3.24514 11.6899 3.10228 11.9532 3.09388L12.0148 3.09668C12.3145 3.10228 12.3145 3.29836 12.3145 3.41601C12.3145 3.53926 12.3145 3.71853 11.9616 3.72693C11.6899 3.72693 11.6674 3.56727 11.6674 3.40761ZM11.5386 4.60649L9.34252 5.78296L14.533 5.79136L12.4882 4.58968C12.3425 4.6429 12.1913 4.67091 12.0372 4.67091H11.9532C11.8187 4.67091 11.6759 4.6485 11.5386 4.60649ZM19.8831 7.26755L19.8915 6.9034C19.7879 6.88099 19.6815 6.87539 19.575 6.88099L4.38174 6.87259C4.2865 6.86979 4.19126 6.8866 4.10162 6.91741V7.28156C4.16325 7.29556 4.26689 7.30957 4.40975 7.30396H4.92795C4.95153 7.30396 4.97355 7.30164 4.99443 7.29944H4.99443H4.99444H4.99444H4.99445H4.99445C5.01326 7.29745 5.03115 7.29556 5.0484 7.29556L18.8971 7.30396C18.9304 7.29871 18.9604 7.30222 18.9892 7.30559C19.0064 7.3076 19.0232 7.30957 19.04 7.30957H19.603C19.6983 7.31237 19.7935 7.29836 19.8831 7.26755ZM19.138 16.8502L19.1464 8.46643C19.124 8.42441 19.0708 8.41041 18.9952 8.402L5.00358 8.3936C4.91395 8.40761 4.84392 8.44962 4.84392 8.47203V16.8474C4.86633 16.9062 4.93356 16.9286 5.06241 16.9286L18.9336 16.937C19.0624 16.937 19.1296 16.8698 19.138 16.8502ZM12.3145 20.5785C12.3145 20.7017 12.3145 20.881 11.9616 20.8894C11.6674 20.8838 11.6674 20.6961 11.6703 20.5701C11.6703 20.4104 11.6927 20.2591 11.956 20.2591H12.0148C12.3145 20.2647 12.3145 20.4608 12.3145 20.5785ZM15.8355 15.3236C15.8355 15.0967 15.6478 14.923 15.421 14.923H8.48538L9.65344 13.1555L12.1801 14.1023C12.3481 14.1583 12.5358 14.1079 12.6534 13.9762L14.4798 11.7521L14.5246 12.0407C14.5582 12.2367 14.7291 12.3824 14.9308 12.3824C14.942 12.3824 14.9532 12.3803 14.9644 12.3782C14.9756 12.3761 14.9868 12.374 14.998 12.374C15.2193 12.3404 15.3733 12.1359 15.3453 11.9146L15.166 10.7521C15.1268 10.5561 14.956 10.416 14.7515 10.416H13.4125C13.1857 10.416 12.998 10.5925 12.998 10.811V10.8138C13.0036 11.0379 13.1885 11.2171 13.4125 11.2115H13.8579L12.1941 13.2395L9.63664 12.2872C9.45737 12.2143 9.25008 12.2788 9.14084 12.4412L7.94476 14.2591V10.472C7.94476 10.2479 7.75709 10.0743 7.5302 10.0743C7.2949 10.0743 7.11563 10.2451 7.11563 10.472V15.3264C7.12123 15.5505 7.30611 15.7297 7.5302 15.7241H15.421C15.645 15.7269 15.8299 15.5477 15.8355 15.3236Z" fill="#313235"/>
</svg>
