<svg width="24" height="24" viewBox="0 0 24 24" fill="none" xmlns="http://www.w3.org/2000/svg">
<path fill-rule="evenodd" clip-rule="evenodd" d="M23.0001 12.0276C23.0001 1.78198 14.2101 1.05261 12.4477 1.01191C12.1409 1.00252 11.7746 0.996259 11.4491 1.00252C9.70236 1.01817 1 1.61294 1 11.9681C1 22.3233 9.76183 22.9744 11.518 22.9963C11.6212 22.9994 11.7276 22.9994 11.8339 22.9994H11.8341C12.0595 22.9994 12.288 22.9963 12.4821 22.9932C14.2414 22.9619 23.0001 22.2826 23.0001 12.0276ZM21.6549 12.0285C21.6549 20.7997 14.6179 21.6073 12.4611 21.648C12.1856 21.6543 11.8475 21.6605 11.5376 21.6543C9.38079 21.623 2.34691 20.8341 2.34691 11.969C2.34691 3.11323 9.32132 2.36821 11.4593 2.34629C11.7755 2.34316 12.123 2.34943 12.4172 2.35569C14.5834 2.4089 21.6549 3.26036 21.6549 12.0285ZM11.5084 17.0862C12.1001 17.0862 12.4851 17.4744 12.4851 18.0316C12.4851 18.6545 12.1063 19.027 11.5429 19.027C10.9418 19.027 10.5662 18.6545 10.5662 18.1036V18.0316C10.5693 17.4744 10.9543 17.0862 11.5084 17.0862ZM15.6092 8.33975C15.6092 7.21283 15.243 6.42085 14.4635 5.84487C13.8563 5.38471 13.0173 5.15306 11.9655 5.15619C10.9669 5.15619 9.9308 5.3628 9.5082 5.56314C9.32351 5.65079 9.22334 5.85113 9.26091 6.05147L9.3329 6.43337C9.33447 6.43807 9.33525 6.44277 9.33603 6.44746C9.33682 6.45216 9.3376 6.45685 9.33916 6.46155C9.40177 6.69945 9.64281 6.84345 9.88384 6.78397C10.5631 6.6118 11.1172 6.53981 11.7464 6.53981C12.9015 6.53981 13.3241 6.76206 13.5651 6.95301C13.9846 7.28796 14.163 7.6949 14.163 8.31784C14.163 9.19434 13.8656 9.71397 12.2942 11.5734L12.1126 11.7925C11.1579 12.9414 10.7322 13.6582 10.7322 14.8697C10.729 15.1076 10.7509 15.3455 10.7948 15.5771C10.8386 15.79 11.0233 15.9402 11.2362 15.9402H11.7307C11.978 15.9402 12.1784 15.7399 12.1784 15.4926C12.1784 13.8773 12.2379 13.8085 13.7342 12.0774C15.0395 10.5373 15.6092 9.7171 15.6092 8.33975Z" fill="#313235"/>
</svg>
