<svg width="24" height="24" viewBox="0 0 24 24" fill="none" xmlns="http://www.w3.org/2000/svg">
<path d="M14.5814 8.78089C14.6766 8.98257 14.8811 9.10862 15.1024 9.10582H15.136L20.9455 8.76969C21.2284 8.75849 21.4581 8.5372 21.4805 8.25428L21.8335 2.73609C21.8475 2.50639 21.713 2.29071 21.5001 2.19827C21.2845 2.10583 21.0352 2.14785 20.8643 2.30751L18.2929 4.75569C16.517 3.37754 14.3293 2.63244 12.0828 2.63524C6.6038 2.63524 2.15002 6.94056 2.15002 12.2347C2.15002 17.5288 6.6038 21.8341 12.08 21.8341C16.2032 21.8341 19.9427 19.3243 21.3853 15.5876C21.545 15.1646 21.3293 14.6941 20.9063 14.5344L20.8811 14.526C20.4441 14.3635 19.9567 14.5792 19.7803 15.0106C18.587 18.103 15.4917 20.1814 12.08 20.1814C7.54778 20.1842 3.86151 16.6184 3.86151 12.2347C3.86151 7.85092 7.54778 4.2851 12.08 4.2851C13.8979 4.2851 15.6402 4.85933 17.0688 5.91535L14.699 8.16465C14.531 8.32151 14.4833 8.57081 14.5814 8.78089Z" fill="#313235"/>
</svg>
