<svg width="24" height="24" viewBox="0 0 24 24" fill="none" xmlns="http://www.w3.org/2000/svg">
<path fill-rule="evenodd" clip-rule="evenodd" d="M17.7244 14.3369C17.7965 14.2686 17.8697 14.1992 17.944 14.1231C21.3417 10.7058 21.8487 5.15675 21.6499 3.5209C21.549 2.74779 20.944 2.13995 20.1653 2.0391C18.2325 1.81782 12.9048 2.47328 9.61064 5.787C9.54456 5.85309 9.47391 5.92831 9.40205 6.00481C9.37645 6.03207 9.35069 6.05949 9.32493 6.08672C8.87115 5.80661 8.04762 5.42846 6.96919 5.5293C5.56302 5.66375 4.22129 6.55451 2.9972 8.15115C2.67787 8.5293 2.70028 8.89345 2.7451 9.07552C2.91036 9.7814 3.7535 10.1399 4.92157 10.6329C5.20728 10.7534 5.4902 10.8794 5.77311 11.0083L5.48459 11.5853C5.08683 12.4677 4.71148 13.5545 5.31092 14.1063L9.63025 18.4509C9.83473 18.6553 10.1064 18.759 10.4538 18.759C10.8908 18.759 11.451 18.5965 12.1541 18.2688L12.7087 17.9971C12.8571 18.3164 13 18.6441 13.1345 18.9691L13.1427 18.9887C13.6314 20.1522 13.9843 20.9924 14.6835 21.1568C14.7423 21.1708 14.8179 21.182 14.9076 21.182C15.0952 21.182 15.3389 21.1259 15.577 20.9215C17.1905 19.6694 18.0756 18.3192 18.2073 16.9075C18.3137 15.7562 17.8796 14.8878 17.5994 14.4565C17.6407 14.4162 17.6824 14.3767 17.7244 14.3369ZM20.0168 3.2688C19.2409 3.18196 17.4902 3.2828 15.563 3.83462L19.8655 8.16235C20.423 6.20157 20.521 4.42286 20.4286 3.67496C20.4006 3.46488 20.2297 3.29401 20.0168 3.2688ZM17.0728 13.2492C16.9131 13.4089 16.7703 13.5517 16.6162 13.689L15.9944 14.2268C14.8067 15.2576 13.465 16.1988 12.3109 16.8122L11.6247 17.1455C10.8796 17.4957 10.5294 17.5265 10.4482 17.5181L6.23529 13.2828C6.23529 13.1764 6.26891 12.843 6.59664 12.1147L6.92997 11.4425C7.56303 10.2604 8.52381 8.86824 9.4986 7.73378L10.0364 7.12874C10.1765 6.96628 10.3389 6.80381 10.479 6.66375C11.5686 5.56572 12.9132 4.80381 14.2577 4.2772L19.4258 9.47328C18.9076 10.8178 18.1541 12.1624 17.0728 13.2492L17.0728 13.2492ZM14.3669 7.10633C15.6275 7.10633 16.381 7.86544 16.381 9.13154C16.381 10.4004 15.6275 11.1568 14.3669 11.1568C13.1064 11.1568 12.3529 10.4004 12.3529 9.13154C12.3529 7.86544 13.1064 7.10633 14.3669 7.10633ZM14.3669 9.92146C14.9468 9.92146 15.1513 9.71417 15.1513 9.13434C15.1513 8.55171 14.9468 8.34723 14.3669 8.34723C13.7899 8.34723 13.5826 8.55451 13.5826 9.13434C13.5826 9.71417 13.7899 9.92146 14.3669 9.92146ZM6.14006 17.5237C6.63025 18.0167 6.63025 18.3976 6.14006 18.8906C5.73389 19.2996 4.71429 20.1764 3.28291 20.3948C3.4874 19.0195 4.28011 18.0279 4.78151 17.5237C5.02801 17.2772 5.2437 17.154 5.46218 17.154C5.67787 17.154 5.89636 17.2772 6.14006 17.5237ZM3.91036 16.6497C4.88235 15.675 6.04202 15.6722 7.0112 16.6497C7.98039 17.6273 7.98039 18.7926 7.0112 19.7674C6.43698 20.3444 4.85994 21.6862 2.61625 21.6862C2.27731 21.6862 2 21.4089 2 21.0671C2 18.8934 3.19608 17.3668 3.91036 16.6497ZM16.9776 16.815C17.0476 16.1315 16.8375 15.5937 16.6611 15.28C15.7367 16.0671 14.7339 16.8038 13.7843 17.3892C13.958 17.7562 14.1176 18.1259 14.2689 18.4873L14.2868 18.5299L14.2868 18.53C14.476 18.9808 14.7344 19.5966 14.9244 19.8626C16.1961 18.843 16.874 17.829 16.9776 16.815ZM6.38095 9.92706C6.05322 9.773 5.72269 9.62734 5.39776 9.49009C4.94678 9.29961 4.30252 9.0251 4.02801 8.83182C5.02241 7.56572 6.04202 6.86824 7.05882 6.7646C7.66947 6.70577 8.15686 6.87384 8.47899 7.0335C7.71148 7.93826 6.98039 8.94667 6.38095 9.92706Z" fill="#313235"/>
</svg>
