<svg width="24" height="24" viewBox="0 0 24 24" fill="none" xmlns="http://www.w3.org/2000/svg">
<path fill-rule="evenodd" clip-rule="evenodd" d="M18.5673 2.1499C20.5897 2.1555 21.8446 3.41881 21.8362 5.44962C21.8306 7.50564 19.3516 10.4608 18.9762 10.8362C18.7409 11.0743 18.3544 11.0743 18.1191 10.839L18.1163 10.8362C18.0687 10.7885 18.0238 10.7381 17.9818 10.6849C17.9566 10.979 17.7185 11.2115 17.4216 11.2311C17.3964 11.2339 17.3208 11.2423 17.2087 11.2591C16.8754 11.3068 16.5673 11.0743 16.5196 10.7437C16.472 10.4104 16.7017 10.1023 17.035 10.0519C17.1415 10.035 17.2451 10.0238 17.3516 10.0126C17.3701 10.0111 17.387 10.0147 17.4035 10.0182C17.417 10.021 17.4302 10.0238 17.444 10.0238C16.5897 8.9118 15.2759 6.9174 15.2787 5.42721C15.2816 4.42721 15.5869 3.59528 16.1639 3.02105C16.7353 2.44962 17.5617 2.1499 18.5561 2.1499H18.5673ZM20.6177 5.44682C20.6149 6.58407 19.3348 8.49443 18.5505 9.47202C17.7857 8.50564 16.4916 6.57287 16.4972 5.43281C16.4972 4.75214 16.6737 4.23393 17.021 3.8894C17.3656 3.54766 17.881 3.37399 18.5533 3.37399H18.5645C19.9314 3.37959 20.6233 4.07427 20.6177 5.44682ZM6.78016 11.6037C7.92302 11.6037 8.65971 12.3432 8.65971 13.4888C8.65971 14.6345 7.92022 15.374 6.78016 15.374C5.63731 15.374 4.90061 14.6345 4.90061 13.4888C4.90061 12.3432 5.64011 11.6037 6.78016 11.6037ZM6.78016 14.1555C7.25075 14.1555 7.44123 13.9622 7.44123 13.4916C7.44123 13.0182 7.24795 12.8278 6.78016 12.8278C6.31238 12.8278 6.1191 13.021 6.1191 13.4916C6.1191 13.9622 6.30957 14.1555 6.78016 14.1555ZM18.9958 5.26754C18.9958 5.58127 18.867 5.70732 18.5561 5.70732C18.2451 5.70732 18.1191 5.57847 18.1191 5.26754C18.1191 4.95382 18.2451 4.82777 18.5561 4.82777C18.8698 4.82777 18.9958 4.95662 18.9958 5.26754ZM18.5561 4.01264C19.3152 4.01264 19.8082 4.50564 19.8082 5.26474C19.8082 6.02665 19.318 6.51684 18.5561 6.51684C17.797 6.51684 17.3068 6.02385 17.3068 5.26474C17.3068 4.50564 17.797 4.01264 18.5561 4.01264ZM18.1695 18.2199C18.2871 17.9034 18.1303 17.5532 17.8138 17.4328C17.5 17.3151 17.1499 17.4748 17.0322 17.7885C16.9734 17.9454 16.8726 18.1023 16.7325 18.2535C16.5028 18.5 16.5168 18.8866 16.7633 19.1163L16.7661 19.1191C17.0126 19.346 17.3964 19.3319 17.6233 19.0855C17.8698 18.8165 18.0547 18.5252 18.1695 18.2199ZM15.6093 19.021C15.9118 18.8726 16.2787 19.0014 16.4244 19.3039C16.5729 19.6065 16.444 19.9734 16.1415 20.1191C15.895 20.2395 15.6317 20.3516 15.3544 20.4524C15.0435 20.57 14.6933 20.416 14.5757 20.1023C14.5757 20.1009 14.575 20.0995 14.5743 20.0981C14.5736 20.0967 14.5729 20.0953 14.5729 20.0939C14.4552 19.7801 14.6121 19.4272 14.9286 19.3095C15.1611 19.2255 15.388 19.1303 15.6093 19.021ZM13.867 14.993C13.7325 15.3011 13.8754 15.6625 14.1835 15.7969C14.373 15.8714 14.5689 15.9427 14.7627 16.0132C14.8239 16.0355 14.8849 16.0577 14.9454 16.0799C15.2619 16.1947 15.6121 16.0294 15.7269 15.7129C15.8418 15.3964 15.6765 15.0462 15.36 14.9314C15.1135 14.8446 14.867 14.7549 14.6289 14.6597C14.3264 14.556 13.9958 14.6989 13.867 14.993ZM14.7942 11.811C14.458 11.8082 14.1835 11.5336 14.1863 11.1975C14.1863 10.937 14.3544 10.7073 14.6009 10.6233C14.8726 10.5336 15.1415 10.4524 15.402 10.3852C15.7269 10.2983 16.0631 10.4916 16.1471 10.8194C16.2311 11.1471 16.0407 11.4804 15.7129 11.5645C15.4776 11.6289 15.2311 11.6989 14.9874 11.7829C14.9258 11.7997 14.8614 11.811 14.7942 11.811ZM12.1443 12.3852C12.1415 12.7213 12.416 12.9958 12.7521 12.9958C12.9314 12.9958 13.1023 12.9174 13.2199 12.7801C13.332 12.6457 13.4916 12.5112 13.6905 12.3796C13.9734 12.1947 14.0519 11.8166 13.867 11.5336C13.6821 11.2507 13.304 11.1723 13.021 11.3572C12.7213 11.5533 12.4748 11.7661 12.2872 11.993C12.1947 12.1023 12.1443 12.2423 12.1443 12.3852ZM13.0098 15.0911C12.8698 15.0911 12.7325 15.0406 12.6233 14.951C12.3432 14.7269 12.1163 14.444 11.965 14.1191C11.8278 13.8109 11.9622 13.4496 12.2675 13.3095C12.5757 13.1723 12.9342 13.3095 13.0743 13.6149C13.1359 13.7521 13.2423 13.881 13.3992 14.0098C13.6597 14.2255 13.6961 14.6121 13.4804 14.8726C13.3628 15.0098 13.1891 15.0911 13.0098 15.0911ZM16.0855 15.8278C15.9314 16.1275 16.0463 16.4972 16.346 16.6513C16.5337 16.7465 16.7073 16.8614 16.8642 17.0014C16.9762 17.1079 17.1275 17.1667 17.2815 17.1667C17.4496 17.1639 17.6065 17.0967 17.7213 16.9762C17.9566 16.7325 17.9454 16.3432 17.7017 16.1107C17.4944 15.9146 17.2367 15.7381 16.909 15.5673C16.6093 15.4132 16.2395 15.528 16.0855 15.8278ZM11.1863 20.2031C11.5365 20.1639 11.8306 20.3824 11.8782 20.7157C11.9286 21.049 11.6989 21.36 11.3656 21.4104C11.0855 21.4524 10.8166 21.4888 10.5589 21.5196C10.2255 21.5616 9.92301 21.3263 9.881 20.993V20.9874C9.83898 20.6541 10.0771 20.3488 10.4104 20.3067C10.6597 20.2787 10.9202 20.2423 11.1863 20.2031ZM14.2115 20.1975C14.1303 19.8726 13.7998 19.6765 13.4748 19.7577C13.2255 19.8193 12.9734 19.8782 12.7213 19.9314C12.3908 20.0014 12.1779 20.3235 12.2479 20.6541C12.3152 20.9846 12.6373 21.1947 12.9678 21.1275C13.2367 21.0714 13.5028 21.0098 13.7689 20.9426C14.0939 20.8614 14.2928 20.5308 14.2115 20.2031V20.1975ZM6.76616 20.3123C7.93422 18.9202 10.1863 15.6681 10.1919 13.7577C10.1947 12.6513 9.90341 11.7941 9.32358 11.2087C8.74655 10.6261 7.89501 10.3292 6.78857 10.3264H6.77176C4.55327 10.3264 3.37681 11.5056 3.3684 13.7381C3.3628 15.6653 5.60089 18.9202 6.76616 20.3123ZM9.50845 21.0266C9.47484 20.6933 9.18632 20.444 8.85299 20.4636C8.51685 20.4916 8.27316 20.5056 8.15551 20.5112C9.41601 18.8866 11.402 15.9314 11.4104 13.7605C11.4132 12.3376 10.993 11.1583 10.1891 10.3488C9.388 9.53925 8.21433 9.10788 6.79417 9.10507H6.77176C3.88661 9.10507 2.15832 10.8334 2.14992 13.7325C2.14151 16.7129 5.81098 21.1331 6.33198 21.6569L6.33759 21.6625C6.57568 21.8978 6.95943 21.895 7.19473 21.6569C7.26476 21.5897 7.39081 21.4496 7.55047 21.2591C7.6261 21.5392 7.8782 21.7325 8.16671 21.7353C8.18072 21.7353 8.19193 21.7353 8.20313 21.7325C8.23988 21.7299 8.29057 21.7267 8.35409 21.7227C8.49391 21.714 8.69591 21.7013 8.94823 21.6821C9.28436 21.6569 9.53366 21.3628 9.50845 21.0266Z" fill="#313235"/>
</svg>
