<svg width="24" height="24" viewBox="0 0 24 24" fill="none" xmlns="http://www.w3.org/2000/svg">
<path fill-rule="evenodd" clip-rule="evenodd" d="M11.7003 8.33887C11.7143 8.32487 11.7283 8.31086 11.7395 8.29685L12.6807 7.35008C12.7927 7.23803 12.8571 7.08397 12.8571 6.92431C12.8571 6.76464 12.7927 6.61338 12.6807 6.49854L10.3025 4.12038C10.1933 4.01114 10.0476 3.94952 9.89356 3.94391L8.03641 3.88789L6.34734 2.20162C6.11204 1.96632 5.73109 1.96632 5.4958 2.20162L2.17647 5.52094C1.94118 5.75904 1.94118 6.13999 2.17647 6.37529L3.87115 8.07277L3.9944 9.87108C4.0056 10.0167 4.06723 10.154 4.17087 10.2576L6.54902 12.6358C6.66106 12.7478 6.81513 12.8123 6.97479 12.8123C7.13445 12.8123 7.28852 12.7478 7.40056 12.6358L11.7003 8.33887ZM10.8459 7.48173L11.4006 6.92711L9.61905 5.14559L7.7619 5.08957C7.60784 5.08677 7.46218 5.02235 7.35294 4.9131L5.92157 3.48453L3.45658 5.95232L4.88515 7.38369C4.9888 7.48733 5.05042 7.62459 5.06162 7.77024L5.18487 9.56576L6.97479 11.3557L7.52381 10.8067L10.8067 7.52655C10.8179 7.50974 10.8319 7.49573 10.8459 7.48173ZM21.6863 17.7899C21.6863 17.6302 21.6247 17.4789 21.5098 17.3641L19.7031 15.5574L19.521 13.6862C19.507 13.549 19.4454 13.4173 19.3473 13.3193L16.8291 10.8011C16.591 10.5658 16.2101 10.5658 15.9748 10.8011L15.423 11.3529L13.8796 9.80946C13.6527 9.58257 13.2521 9.58257 13.0252 9.80946L9.70588 13.1288C9.47059 13.3641 9.47059 13.745 9.70588 13.9803L11.2465 15.5209L10.6919 16.0756C10.4566 16.3109 10.4566 16.6918 10.6919 16.9271L13.2101 19.4453C13.3165 19.549 13.4538 19.6134 13.6022 19.6218L15.535 19.7338L17.3389 21.5378C17.4566 21.6554 17.6106 21.7142 17.7647 21.7142C17.9188 21.7142 18.0728 21.6554 18.1905 21.5378L21.5098 18.2156C21.6218 18.1036 21.6863 17.9495 21.6863 17.7899ZM20.2325 17.7899L17.7647 20.2576L16.2185 18.717C16.1148 18.6134 15.9776 18.549 15.8291 18.5406L13.8964 18.4285L11.9664 16.4985L12.521 15.9439C12.7563 15.7086 12.7563 15.3249 12.521 15.0896L10.9804 13.549L13.4482 11.0812L14.9888 12.6218C15.0728 12.7058 15.1849 12.7646 15.2997 12.7871C15.5014 12.8263 15.7031 12.7646 15.8459 12.6218L16.3978 12.07L18.3361 14.0083L18.5182 15.8795C18.5322 16.0195 18.5938 16.1512 18.6919 16.2492L20.2325 17.7899Z" fill="#313235"/>
</svg>
