<svg width="24" height="24" viewBox="0 0 24 24" fill="none" xmlns="http://www.w3.org/2000/svg">
<path fill-rule="evenodd" clip-rule="evenodd" d="M21.6863 10.9748C21.6863 14.8431 18.8487 16.2157 16.4202 16.2157L16.0224 16.2213C15.8571 16.6078 15.6387 16.9692 15.3782 17.2941L18.7087 20.6527C18.944 20.8908 18.944 21.2745 18.7087 21.5126C18.591 21.6303 18.437 21.6891 18.2829 21.6891C18.1289 21.6891 17.9748 21.6303 17.8571 21.5126L14.5238 18.1485C14.521 18.1457 14.5189 18.1415 14.5168 18.1373C14.5147 18.1331 14.5126 18.1289 14.5098 18.1261C13.7423 18.6947 12.7983 19.0336 11.7731 19.0336C9.87955 19.0336 8.2521 17.888 7.53221 16.2465L5.87395 16.2493C3.42577 16 2 14.3782 2 11.9104C2 9.38375 3.38655 8.33613 4.45658 7.90756C4.64706 2.28852 9.85994 2 10.9216 2C11.7451 2 15.7871 2.18767 17.0308 5.78431C19.3557 6 21.6863 7.45378 21.6863 10.9748ZM5.93557 15.0364C4.69188 14.9076 3.20448 14.2605 3.20448 11.9104C3.20448 10.3137 3.88235 9.30812 5.22129 8.92717C5.47899 8.85154 5.65826 8.61345 5.65826 8.34174L5.65266 8.22969C5.65266 3.57423 9.68627 3.21569 10.9216 3.21569C11.6218 3.21569 15.1597 3.37535 15.9972 6.52101C16.0672 6.78151 16.2969 6.96359 16.563 6.97199C17.7423 7.0056 20.4818 7.46218 20.4818 10.9748C20.4818 14.7115 17.3725 15.0028 16.4174 15.0028H16.3613C16.3894 14.7899 16.409 14.5742 16.409 14.3557C16.409 11.7731 14.3333 9.67787 11.7731 9.67787C9.21288 9.67787 7.13445 11.7731 7.13445 14.3557C7.13445 14.5854 7.15686 14.8095 7.18767 15.0336L5.93557 15.0364ZM11.7731 17.8151C9.87955 17.8151 8.33894 16.2605 8.33894 14.3529C8.33894 12.4426 9.87955 10.8908 11.7731 10.8908C13.6667 10.8908 15.2045 12.4454 15.2045 14.3529C15.2073 16.2633 13.6667 17.8151 11.7731 17.8151Z" fill="#313235"/>
</svg>
