<svg width="24" height="24" viewBox="0 0 24 24" fill="none" xmlns="http://www.w3.org/2000/svg">
<path fill-rule="evenodd" clip-rule="evenodd" d="M21.6695 14.098C21.6695 10.6638 19.3446 9.24644 17.0224 9.03356C15.7787 5.52656 11.7451 5.34448 10.9216 5.34448C9.86278 5.34448 4.6583 5.6274 4.46502 11.1064C3.39499 11.5266 2.01404 12.5462 2.01404 15.0111C2.01404 18.1484 4.25493 19.2661 6.35297 19.2661L16.4118 19.21C18.8376 19.21 21.6695 17.8711 21.6695 14.098ZM20.465 14.098C20.465 17.7394 17.3642 18.0224 16.409 18.0224L6.35017 18.0756C5.409 18.0756 3.22132 17.7759 3.22132 15.0083C3.22132 13.4537 3.89919 12.4761 5.23533 12.1008C5.50143 12.028 5.6807 11.7871 5.6751 11.5182L5.6695 11.4229C5.6695 6.8879 9.69191 6.53496 10.9272 6.53496C11.6247 6.53496 15.1541 6.68902 15.9888 9.75625C16.0589 10.0083 16.2885 10.1876 16.5547 10.196C17.7311 10.2296 20.465 10.675 20.465 14.098ZM11.8432 13.8151C12.5631 13.8151 12.8992 13.4845 12.8992 12.7759C12.8992 12.0672 12.5659 11.7366 11.8432 11.7366C11.1233 11.7366 10.7871 12.0672 10.7871 12.7759C10.7871 13.4845 11.1233 13.8151 11.8432 13.8151ZM13.7843 12.7759C13.7843 11.5798 13.0589 10.8655 11.8432 10.8655C10.6275 10.8655 9.90479 11.5798 9.90479 12.7759C9.90479 13.9719 10.6275 14.6862 11.8432 14.6862C13.0589 14.6862 13.7843 13.9719 13.7843 12.7759ZM15.1849 12.9635V12.5854H14.5659C14.3306 12.5854 14.1289 12.4173 14.0897 12.1876C14.0477 11.9327 13.9748 11.7058 13.8796 11.5125C13.7871 11.3305 13.8236 11.1092 13.9692 10.9663L14.4342 10.5069L14.1429 10.2212L13.6779 10.6778C13.5238 10.8319 13.2885 10.8627 13.1009 10.7562C12.9692 10.6834 12.6975 10.605 12.4398 10.563C12.2045 10.5238 12.0336 10.3277 12.0336 10.0924V9.48174H11.6499V10.0924C11.6499 10.3249 11.479 10.5238 11.2437 10.563C10.986 10.6022 10.7115 10.6834 10.5827 10.7562C10.395 10.8627 10.1569 10.8319 10.0056 10.6778L9.54065 10.2212L9.24933 10.5069L9.71432 10.9663C9.85998 11.112 9.89639 11.3305 9.80395 11.5125C9.70591 11.7086 9.63589 11.9327 9.59667 12.1848C9.55746 12.4145 9.35577 12.5854 9.12048 12.5854H8.50143V12.9635H9.12048C9.35577 12.9635 9.56026 13.1316 9.59667 13.3641C9.63869 13.619 9.70591 13.8347 9.80676 14.0392C9.89639 14.2212 9.85998 14.4397 9.71432 14.5826L9.24933 15.042L9.54065 15.3277L10.0056 14.8683C10.1541 14.7254 10.3754 14.689 10.5631 14.7787C10.7591 14.8739 10.986 14.9439 11.2437 14.9859C11.479 15.0224 11.6499 15.2212 11.6499 15.4565V16.0672H12.0336V15.4565C12.0336 15.224 12.2045 15.0252 12.4398 14.9859C12.6947 14.9467 12.9244 14.8767 13.1233 14.7787C13.3082 14.689 13.5322 14.7226 13.6807 14.8683L14.1457 15.3277L14.437 15.042L13.972 14.5826C13.8264 14.4397 13.7899 14.2212 13.8796 14.0392C13.9804 13.8319 14.0477 13.6162 14.0897 13.3641C14.1289 13.1344 14.3306 12.9635 14.5659 12.9635H15.1849ZM16.1485 12.4873C16.1485 12.0168 15.7619 11.6358 15.2857 11.6358V11.633H14.9608C14.9384 11.5546 14.9132 11.4817 14.888 11.4089L15.1905 11.112C15.3558 10.9495 15.4454 10.7366 15.4454 10.5069C15.4454 10.2773 15.3558 10.0644 15.1905 9.90191L14.7647 9.48174C14.437 9.15961 13.8628 9.15961 13.535 9.48174L13.2325 9.77866C13.1541 9.75345 13.0757 9.73104 13.0028 9.71143V9.3837C13.0028 8.91311 12.6163 8.53216 12.1401 8.53216H11.5547C11.0785 8.53216 10.6919 8.91311 10.6919 9.3837V9.71143C10.6163 9.73104 10.5406 9.75345 10.4622 9.77866L10.1597 9.48174C9.83197 9.15961 9.25774 9.15961 8.93 9.48174L8.50143 9.90191C8.33617 10.0616 8.24653 10.2773 8.24653 10.5069C8.24653 10.7366 8.33617 10.9523 8.49863 11.112L8.80395 11.4117C8.77594 11.4873 8.75353 11.5602 8.73112 11.6358H8.39779C7.9216 11.6358 7.53505 12.0168 7.53505 12.4873V13.0644C7.53505 13.535 7.9216 13.9159 8.39779 13.9159H8.73112C8.75353 13.9943 8.77874 14.0672 8.80395 14.14L8.80395 14.14L8.50143 14.4397C8.1625 14.7731 8.1625 15.3165 8.50143 15.6498L8.93 16.07C9.25774 16.3921 9.83197 16.3921 10.1597 16.07L10.4622 15.7703C10.535 15.7955 10.6107 15.8179 10.6891 15.8403V16.168C10.6891 16.6386 11.0757 17.0196 11.5519 17.0196H12.1373C12.6135 17.0196 13 16.6386 13 16.168V15.8403C13.0785 15.8207 13.1541 15.7955 13.2269 15.7703L13.5322 16.07C13.86 16.3921 14.4342 16.3921 14.7619 16.07L15.1877 15.6498C15.5266 15.3165 15.5266 14.7731 15.1877 14.4397L14.8824 14.14C14.9104 14.0672 14.9328 13.9916 14.9552 13.9159L14.9552 13.9159H15.2857C15.7619 13.9159 16.1485 13.535 16.1485 13.0644V12.4873Z" fill="#313235"/>
</svg>
