<svg width="24" height="24" viewBox="0 0 24 24" fill="none" xmlns="http://www.w3.org/2000/svg">
<path fill-rule="evenodd" clip-rule="evenodd" d="M12.5939 21.675H11.0897C10.549 21.675 10.1093 21.2352 10.1093 20.6946V18.8402C9.32775 18.7142 8.61907 18.4957 8.00002 18.1876L6.63027 19.5573C6.24092 19.9439 5.61346 19.9439 5.22411 19.5573L4.12607 18.4565C3.73952 18.0671 3.73952 17.4397 4.12607 17.0503L5.49302 15.6834C5.17649 15.1231 4.9496 14.2184 4.84316 13.5713H2.98882C2.4482 13.5713 2.00842 13.1315 2.00842 12.5909V11.0867C2.00842 10.5461 2.4482 10.1063 2.98882 10.1063H4.84316C4.9496 9.45648 5.17649 8.55452 5.49302 7.9943L4.12607 6.62735C3.73952 6.23799 3.73952 5.61054 4.12607 5.22119L5.22411 4.12315C5.61346 3.73659 6.24092 3.73659 6.63027 4.12315L8.00002 5.49289C8.61907 5.18477 9.32775 4.96628 10.1093 4.84023V2.98869C10.1093 2.44808 10.549 2.0083 11.0897 2.0083H12.5939C13.1345 2.0083 13.5742 2.44808 13.5742 2.98869V4.84303C14.3586 4.96909 15.0308 5.17637 15.6835 5.4957L17.0532 4.12595C17.4426 3.73939 18.07 3.73939 18.4594 4.12595L19.5574 5.22399C19.944 5.61334 19.944 6.24079 19.5574 6.63015L18.1905 7.9999C18.4986 8.61895 18.7171 9.32763 18.8432 10.1091H20.6975C21.2381 10.1091 21.6779 10.5489 21.6779 11.0895V12.5937C21.6779 13.1344 21.2381 13.5741 20.6975 13.5741H18.8432C18.7171 14.3556 18.4986 15.0643 18.1905 15.6834L19.5602 17.0531C19.9468 17.4425 19.9468 18.0699 19.5602 18.4593L18.4622 19.5573C18.0728 19.9439 17.4454 19.9439 17.056 19.5573L15.6835 18.1876C15.0308 18.5069 14.3586 18.7142 13.5742 18.8402V20.6946C13.5742 21.238 13.1373 21.675 12.5939 21.675ZM11.2297 20.5545H12.4538V18.7422V18.731C12.4538 18.238 12.8292 17.8206 13.3474 17.7422H13.3502C14.056 17.633 14.6499 17.4509 15.2213 17.168C15.6387 16.9607 16.1065 17.0251 16.4146 17.3332L16.423 17.3416L17.7591 18.6778L18.6807 17.7562L17.3446 16.4201L17.3362 16.4117C17.028 16.1035 16.9636 15.6217 17.1737 15.2128C17.4454 14.675 17.6359 14.0475 17.7451 13.3444C17.8235 12.8262 18.2409 12.4509 18.7339 12.4509H20.5574V11.2268H18.7339C18.2409 11.2268 17.8235 10.8514 17.7451 10.3332C17.6359 9.63015 17.4454 9.0027 17.1737 8.46768C16.9636 8.05872 17.028 7.57693 17.3362 7.26881L17.3446 7.2604L18.6807 5.92427L17.7591 5.0027L16.423 6.34163L16.4146 6.35004C16.1065 6.65816 15.6387 6.72259 15.2213 6.5153C14.6499 6.23239 14.056 6.05032 13.3502 5.94107H13.3474C12.8292 5.86264 12.4538 5.44528 12.4538 4.95228V3.12875H11.2297V4.95228C11.2297 5.44528 10.8544 5.86264 10.3362 5.94107C9.63307 6.05032 9.00562 6.24079 8.47061 6.5125C8.06164 6.72539 7.57985 6.65816 7.27173 6.35004L7.26332 6.34163L5.92719 5.0055L5.00562 5.92707L6.34176 7.2632L6.35016 7.27161C6.71711 7.63855 6.6975 8.17357 6.49022 8.5097C6.28573 8.84303 6.05324 9.61334 5.9412 10.3388C5.86276 10.8458 5.43699 11.2296 4.9524 11.2296H3.12887V12.4537H4.9524C5.43699 12.4537 5.86276 12.8374 5.9412 13.3444C6.05324 14.0699 6.28573 14.8402 6.49022 15.1736C6.6975 15.5125 6.71711 16.0447 6.35016 16.4117L6.34176 16.4201L5.00562 17.7562L5.92719 18.6778L7.26332 17.3416L7.27173 17.3332C7.57985 17.0251 8.06164 16.9607 8.47061 17.1708C9.00842 17.4425 9.63587 17.633 10.339 17.7422C10.8572 17.8206 11.2325 18.238 11.2325 18.731L11.2297 20.5545ZM11.8432 15.6946C9.35856 15.6946 7.99162 14.3276 7.99162 11.843C7.99162 9.35844 9.35856 7.99149 11.8432 7.99149C14.3278 7.99149 15.6947 9.35844 15.6947 11.843C15.6947 14.3276 14.3249 15.6946 11.8432 15.6946ZM11.8432 9.11194C9.98041 9.11194 9.11206 9.98029 9.11206 11.843C9.11206 13.7058 9.98041 14.5741 11.8432 14.5741C13.7059 14.5741 14.5742 13.7058 14.5742 11.843C14.5742 9.98029 13.7059 9.11194 11.8432 9.11194Z" fill="#313235"/>
</svg>
