<svg width="24" height="24" viewBox="0 0 24 24" fill="none" xmlns="http://www.w3.org/2000/svg">
<path fill-rule="evenodd" clip-rule="evenodd" d="M8.58825 17.0602H4.1821C3.46782 17.0602 2.94121 16.881 2.57147 16.5168C2.19892 16.1443 2.01685 15.6149 2.01685 14.895V6.68772C2.01685 5.27036 2.76474 4.52246 4.1821 4.52246H8.58545C9.9804 4.52246 10.7507 5.28996 10.7507 6.68772V8.62733L11.9804 8.62608L11.972 8.05186C11.9692 7.8978 12.0224 7.75774 12.1204 7.6597C12.2129 7.56727 12.3361 7.51685 12.465 7.51685C12.5798 7.51685 12.6947 7.55606 12.7955 7.63449L13.3069 8.01736C13.6635 7.5134 14.2658 7.25914 15.098 7.25914H19.5014C20.2156 7.25914 20.7423 7.43842 21.112 7.80256C21.4846 8.17231 21.6666 8.70171 21.6666 9.4216V17.6316C21.6666 19.049 20.9187 19.7969 19.5014 19.7969H15.098C13.7031 19.7969 12.9328 19.0294 12.9328 17.6316V15.7437C12.9328 15.7121 12.9354 15.6811 12.9405 15.6508L11.7507 15.6569L11.7395 16.2787C11.7339 16.5756 11.521 16.8025 11.2409 16.8025C11.1261 16.8025 11.0112 16.7633 10.9104 16.6877L10.3859 16.297C10.3825 16.3021 10.379 16.3073 10.3754 16.3123C10.0112 16.8137 9.42578 17.0602 8.58825 17.0602ZM9.48868 15.6287C9.48049 15.6387 9.47259 15.649 9.46499 15.6597C9.41457 15.7297 9.26051 15.9426 8.58825 15.9426H4.1849C3.38379 15.9426 3.14009 15.6989 3.14009 14.8978V6.68772C3.14009 6.28996 3.21292 6.01545 3.36138 5.86699C3.50984 5.71853 3.78435 5.6429 4.1821 5.6429H8.58545C9.36695 5.6429 9.63026 5.90621 9.63026 6.68772V8.62847L9.21569 8.62889C9.01402 8.60928 8.81794 8.68211 8.67788 8.82776C8.55183 8.95662 8.4818 9.13028 8.48461 9.30395L8.4818 10.6429C8.4678 10.8278 8.52662 11.007 8.64707 11.1443C8.77312 11.2871 8.95239 11.3684 9.13726 11.3684H9.16808L9.63026 11.3707V12.4244C9.63026 12.5516 9.67325 12.6693 9.74542 12.7636L8.30533 13.8417C8.15688 13.951 8.07284 14.1191 8.07284 14.2955C8.07284 14.472 8.15968 14.6401 8.30814 14.7493L9.48868 15.6287ZM10.7507 12.011L10.8908 11.9062C10.9916 11.8306 11.1064 11.7913 11.2213 11.7913C11.3529 11.7913 11.4762 11.8418 11.5658 11.9342C11.6639 12.0322 11.7171 12.1723 11.7143 12.3263L11.7059 12.9034L12.9328 12.9046V12.2972L12.7731 12.416C12.6751 12.4888 12.5602 12.528 12.4454 12.528C12.1653 12.528 11.9496 12.3011 11.9468 12.0042L11.9356 11.3824L10.7507 11.3764V12.011ZM14.0532 12.9058L14.4706 12.9062C14.6723 12.8894 14.8655 12.9622 15.0084 13.1051C15.1344 13.2339 15.2045 13.4076 15.2017 13.5812L15.2045 14.9202C15.2185 15.105 15.1596 15.2843 15.0392 15.4216C14.9075 15.57 14.7171 15.6541 14.5182 15.6429L14.0445 15.6453C14.0502 15.6772 14.0532 15.7101 14.0532 15.7437V17.6316C14.0532 18.4132 14.3165 18.6765 15.098 18.6765H19.5014C19.8991 18.6765 20.1736 18.6008 20.3221 18.4524C20.4705 18.3039 20.5434 18.0294 20.5434 17.6316V9.4216C20.5434 8.62048 20.2997 8.37679 19.4986 8.37679H15.098C14.4211 8.37679 14.263 8.59143 14.2038 8.6888L15.3809 9.57006C15.5294 9.6821 15.6134 9.84737 15.6134 10.0238C15.6134 10.2003 15.5266 10.3656 15.3781 10.4776L13.9635 11.5302C14.0202 11.6177 14.0532 11.7219 14.0532 11.8334V12.9058ZM6.87117 14.9594C6.87117 14.6261 6.68069 14.4692 6.38377 14.4692C6.08966 14.4692 5.89638 14.6261 5.89638 14.9594C5.89638 15.1219 5.9412 15.2395 6.01963 15.3207C6.10366 15.4076 6.22971 15.4496 6.38377 15.4496C6.53784 15.4496 6.66389 15.4076 6.74792 15.3207C6.82635 15.2395 6.87117 15.1191 6.87117 14.9594ZM17.7871 17.6821C17.7871 17.3487 17.5966 17.1919 17.2997 17.1919C17.0056 17.1919 16.8123 17.3459 16.8123 17.6821C16.8123 17.8445 16.8571 17.9622 16.9356 18.0434C17.0196 18.1302 17.1456 18.1723 17.2997 18.1723C17.4538 18.1723 17.5798 18.1302 17.6638 18.0434C17.7423 17.9622 17.7871 17.8417 17.7871 17.6821ZM12.1569 10.5448L9.32214 10.5308L9.32774 9.47202L12.2129 9.46922C12.3781 9.46922 12.535 9.40479 12.6499 9.28715C12.7647 9.1695 12.8291 9.01264 12.8263 8.84737L12.8235 8.70171L14.5854 10.021L12.7759 11.3684L12.7731 11.1583C12.7703 10.8222 12.493 10.5476 12.1569 10.5448ZM9.10085 14.2955L10.9104 15.6429L10.9132 15.43C10.9188 15.0966 11.1933 14.8221 11.5266 14.8193L14.3613 14.8053L14.3585 13.7465L11.4734 13.7437C11.3081 13.7437 11.1541 13.6793 11.0364 13.5616C10.9216 13.444 10.8571 13.2871 10.8599 13.1219L10.8627 12.9762L9.10085 14.2955Z" fill="#313235"/>
</svg>
