<svg width="24" height="24" viewBox="0 0 24 24" fill="none" xmlns="http://www.w3.org/2000/svg">
<path fill-rule="evenodd" clip-rule="evenodd" d="M10.4705 17.042H16.4789C17.308 17.042 18.0111 16.7591 18.5713 16.1989C19.1007 15.6695 19.4873 14.916 19.7534 13.8908C19.9523 13.1204 21.1932 8.90756 21.6553 7.35574C21.6694 7.30532 21.6778 7.2493 21.6778 7.19608C21.6778 6.88515 21.4257 6.63585 21.1175 6.63585H7.09232C6.88224 5.40896 6.71137 4.42297 6.65255 4.10084C6.43406 2.88235 5.2828 2 3.91585 2H2.56291C2.25479 2 2.00269 2.2521 2.00269 2.56022C2.00269 2.86835 2.25479 3.12045 2.56291 3.12045H3.91585C4.72818 3.12045 5.42846 3.62465 5.5489 4.29692C5.73098 5.31373 7.0503 12.986 7.18476 13.8375C7.34722 14.8655 7.73098 15.6695 8.32201 16.2269C8.89064 16.7591 9.63294 17.042 10.4705 17.042ZM8.2912 13.6639C8.21277 13.1569 7.71417 10.2521 7.2856 7.7563H20.3668C19.8458 9.51541 18.8542 12.888 18.6666 13.6106C18.1315 15.6835 17.1623 15.9216 16.4789 15.9216H10.4705C9.91305 15.9216 9.45086 15.7507 9.08952 15.4118C8.68056 15.0252 8.41445 14.4398 8.2912 13.6639ZM10.4705 21.6863C9.96907 21.6863 9.56851 21.5434 9.2772 21.2633C8.97187 20.9692 8.81781 20.5574 8.81781 20.0336C8.81781 19.5098 8.97187 19.098 9.2772 18.8039C9.56851 18.5238 9.97187 18.381 10.4705 18.381C10.9691 18.381 11.3724 18.5238 11.6637 18.8039C11.9691 19.098 12.1231 19.5098 12.1231 20.0336C12.1231 20.5574 11.9691 20.9692 11.6637 21.2633C11.3724 21.5434 10.9719 21.6863 10.4705 21.6863ZM9.93826 20.0336C9.93826 19.6246 10.0615 19.5014 10.4705 19.5014C10.8766 19.5014 11.0027 19.6246 11.0027 20.0336C11.0027 20.4426 10.8794 20.5658 10.4705 20.5658C10.0615 20.5658 9.93826 20.4426 9.93826 20.0336ZM15.9327 21.6863C15.4313 21.6863 15.0307 21.5434 14.7394 21.2633C14.4341 20.9692 14.28 20.5574 14.28 20.0336C14.28 19.5098 14.4341 19.098 14.7394 18.8039C15.0307 18.5238 15.4341 18.381 15.9327 18.381C16.4313 18.381 16.8346 18.5238 17.1259 18.8039C17.4285 19.098 17.5853 19.5098 17.5853 20.0336C17.5853 20.5574 17.4313 20.9692 17.1259 21.2633C16.8346 21.5434 16.4341 21.6863 15.9327 21.6863ZM15.4004 20.0336C15.4004 19.6246 15.5237 19.5014 15.9327 19.5014C16.3388 19.5014 16.4649 19.6246 16.4649 20.0336C16.4649 20.4426 16.3416 20.5658 15.9327 20.5658C15.5237 20.5658 15.4004 20.4426 15.4004 20.0336Z" fill="#313235"/>
</svg>
