<svg width="24" height="24" viewBox="0 0 24 24" fill="none" xmlns="http://www.w3.org/2000/svg">
<path fill-rule="evenodd" clip-rule="evenodd" d="M20.8866 10.9971C20.8866 2.77305 14.0071 2.07557 12.2452 2.03635C12.0459 2.03012 11.8236 2.02851 11.609 2.02695C11.534 2.02641 11.4599 2.02587 11.388 2.02515C9.57569 2.03355 2.8418 2.6526 2.8418 10.9467C2.8418 15.1344 4.57569 17.3781 6.52247 18.563V19.21C6.52247 20.0307 6.76337 20.6722 7.24516 21.0924C7.69894 21.5013 8.36281 21.7114 9.21154 21.7114H14.5477C15.3936 21.7114 16.0491 21.5013 16.5029 21.0924C16.9734 20.6722 17.2059 20.0307 17.2059 19.21V18.5546C19.1527 17.3613 20.8866 15.1344 20.8866 10.9971ZM16.5197 17.4565C18.5533 16.21 19.5813 14.0364 19.5813 10.9999C19.5813 7.97473 18.5561 5.80386 16.5337 4.54615C14.8502 3.49854 12.9538 3.35008 12.2143 3.33047C11.9594 3.32207 11.6849 3.32207 11.4328 3.32207H11.3908C9.20874 3.33327 4.14432 4.10078 4.14432 10.9523C4.14432 14.0392 5.17233 16.2296 7.20314 17.4649L7.82499 17.8431V19.2156C7.82499 19.5209 7.87261 19.9243 8.1051 20.126C8.32359 20.3249 8.71014 20.4229 9.20874 20.4229H14.5449C14.895 20.4229 15.3628 20.3753 15.6205 20.1428C15.853 19.9355 15.9006 19.5237 15.9006 19.2156V17.8347L16.5197 17.4565ZM8.12191 13.9775C9.44964 13.9551 11.0043 13.1596 11.0043 11.0083C11.0043 10.8431 10.9931 10.6862 10.9791 10.5434C10.769 8.73383 9.36281 8.05876 8.11631 8.02795C8.04348 8.02515 7.95384 8.02235 7.87261 8.02515C6.66253 8.03635 5.18633 8.72263 5.01827 10.6162C5.00706 10.7366 5.00146 10.8627 5.00146 10.9943C5.00146 13.168 6.55608 13.9607 7.88942 13.9803H7.98746C8.01242 13.9803 8.03738 13.9796 8.06114 13.9788C8.08269 13.9782 8.10325 13.9775 8.12191 13.9775ZM9.69894 11.0083C9.69894 12.4425 8.69334 12.675 8.0911 12.6862H7.90062C7.17233 12.675 6.30118 12.3753 6.30118 10.9943C6.30118 10.9019 6.30398 10.8123 6.31239 10.7282C6.42163 9.51254 7.3432 9.32207 7.88101 9.31646H7.88381L8.08269 9.31926C8.62051 9.33047 9.54488 9.52655 9.67933 10.689C9.69334 10.7899 9.69894 10.8963 9.69894 11.0083ZM15.8866 12.6862C16.4889 12.675 17.4945 12.4425 17.4945 11.0083C17.4945 10.8963 17.4889 10.7899 17.4748 10.689C17.3404 9.52655 16.416 9.33047 15.8782 9.31926L15.6793 9.31646H15.6765C15.1387 9.32207 14.2171 9.51254 14.1079 10.7282C14.0995 10.8123 14.0967 10.9019 14.0967 10.9943C14.0967 12.3753 14.9678 12.675 15.6961 12.6862H15.8866ZM18.7998 11.0083C18.7998 10.8431 18.7886 10.6862 18.7718 10.5406C18.5617 8.73103 17.1555 8.05596 15.9118 8.02795C15.8362 8.02515 15.741 8.02515 15.6681 8.02515C14.458 8.03635 12.9819 8.72263 12.8138 10.6162C12.8026 10.7366 12.797 10.8627 12.797 10.9943C12.797 13.168 14.3516 13.9607 15.6849 13.9803H15.783C15.8079 13.9803 15.8329 13.9796 15.8567 13.9788H15.8567H15.8567C15.8782 13.9782 15.8988 13.9775 15.9174 13.9775C17.2452 13.9551 18.7998 13.1596 18.7998 11.0083ZM11.2984 14.591C11.6317 14.731 11.7858 15.1092 11.6457 15.4369L11.2816 16.2941C11.1751 16.5406 10.9342 16.689 10.6821 16.689C10.5981 16.689 10.5113 16.6722 10.43 16.6386C10.0967 16.4985 9.94264 16.1204 10.0827 15.7927L10.4468 14.9355C10.5869 14.6078 10.9706 14.4565 11.2984 14.591ZM13.3852 15.7899L13.0211 14.9355C12.881 14.605 12.4973 14.4537 12.1667 14.591C11.8362 14.7282 11.6793 15.1064 11.8194 15.4369L12.1835 16.2913C12.29 16.5378 12.5309 16.6862 12.7858 16.6862C12.8698 16.6862 12.9566 16.6694 13.0379 16.6358C13.3684 16.4985 13.5253 16.1204 13.3852 15.7899Z" fill="#313235"/>
</svg>
