<svg width="24" height="24" viewBox="0 0 24 24" fill="none" xmlns="http://www.w3.org/2000/svg">
<path fill-rule="evenodd" clip-rule="evenodd" d="M2 11.8431C2 6.42297 6.41457 2 11.8431 2C17.2717 2 21.6863 6.42297 21.6863 11.8431C21.6863 17.2717 17.2717 21.6863 11.8431 21.6863C6.41457 21.6863 2 17.2717 2 11.8431ZM11.2409 3.29132V11.1737H9.07003C8.98599 8.68627 8.33053 6.35014 7.23529 4.61345C8.43698 3.84034 9.81513 3.38655 11.2409 3.29132ZM7.81233 11.1737C7.73109 8.96359 7.16807 6.90196 6.22969 5.36975C4.52381 6.84034 3.46779 8.92717 3.29132 11.1737H7.81233ZM3.28291 12.4286H7.80392C7.69748 14.6415 7.08403 16.7255 6.12045 18.2325C4.45658 16.7423 3.43978 14.6611 3.28291 12.4286ZM11.2409 12.4286H9.06162C8.94398 14.9524 8.2577 17.2801 7.11204 19.0056C8.34454 19.8179 9.76751 20.2997 11.2409 20.4034V12.4286ZM12.4958 20.395V12.4286H14.5714C14.6891 14.9412 15.3922 17.3193 16.5238 19.0308C15.3221 19.8235 13.9328 20.2913 12.4958 20.395ZM17.5238 18.2689C16.5518 16.7619 15.9412 14.6667 15.8319 12.4314H20.3978C20.2437 14.7507 19.1653 16.8123 17.5238 18.2689ZM12.4986 11.1737H14.5742C14.6583 8.67787 15.3193 6.33894 16.4258 4.59944C15.2437 3.84594 13.8964 3.39496 12.4986 3.29132V11.1737ZM20.3978 11.1737H15.8319C15.916 8.97759 16.4958 6.86835 17.4342 5.34454C19.1513 6.81793 20.2185 8.91317 20.3978 11.1737Z" fill="#313235"/>
</svg>
