<svg width="24" height="24" viewBox="0 0 24 24" fill="none" xmlns="http://www.w3.org/2000/svg">
<path fill-rule="evenodd" clip-rule="evenodd" d="M15.577 21.3976C15.8935 21.5713 16.238 21.6581 16.5826 21.6581C17.0083 21.6581 17.4313 21.5293 17.7954 21.2716C18.4901 20.7786 18.8347 19.9382 18.6946 19.0811L17.9831 14.7534C17.9775 14.7197 17.9859 14.6889 18.0083 14.6665L21.0223 11.6049C21.6162 11.0027 21.815 10.1259 21.5461 9.31359C21.2856 8.52928 20.6274 7.96626 19.8318 7.84581L15.6666 7.21556C15.647 7.21276 15.6302 7.19875 15.6218 7.18195C15.619 7.17915 15.619 7.17914 15.619 7.17634L13.7562 3.24078C13.3949 2.47607 12.6554 2.00269 11.8319 2.00269C11.0083 2.00269 10.2688 2.47607 9.9103 3.24358L8.04756 7.17915C8.04595 7.18076 8.04526 7.18144 8.04497 7.18226C8.04476 7.18287 8.04476 7.18356 8.04476 7.18475C8.03635 7.20155 8.01955 7.21556 7.99994 7.21836L3.83468 7.84861C3.03917 7.96906 2.3809 8.52928 2.1204 9.31359C1.84869 10.1259 2.04757 11.0027 2.64141 11.6049L5.65541 14.6665C5.67501 14.6889 5.68622 14.7197 5.68062 14.7534L4.96913 19.0783C4.82628 19.9354 5.17081 20.7758 5.86829 21.2688C6.52655 21.7365 7.37809 21.7842 8.08397 21.3976L11.8123 19.3556C11.8235 19.35 11.8375 19.35 11.8487 19.3556L15.577 21.3976ZM12.3753 18.4032C12.2044 18.3108 12.0195 18.2632 11.8319 18.2632C11.6442 18.2632 11.4593 18.3108 11.2912 18.4032L7.56297 20.4452C7.06437 20.7169 6.6526 20.4928 6.49854 20.3836C6.22123 20.1875 5.95793 19.787 6.04476 19.2576L6.75624 14.9326C6.81787 14.5601 6.70022 14.1763 6.43692 13.9074L6.43412 13.9046L3.42012 10.8402C3.05597 10.4705 3.04477 9.98586 3.15401 9.65533C3.28566 9.25477 3.60219 8.98026 3.99715 8.92144L8.16521 8.29119H8.17081C8.54896 8.22956 8.86828 7.98867 9.03075 7.64133L10.8935 3.70856C11.0756 3.32201 11.4257 3.09232 11.8319 3.09232C12.238 3.09232 12.591 3.32201 12.773 3.70856L14.6358 7.64133C14.7954 7.98867 15.1176 8.22956 15.4957 8.29119H15.5013L19.6694 8.92424C20.0643 8.98306 20.3781 9.25757 20.5125 9.65813C20.6218 9.98866 20.6106 10.4733 20.2464 10.843L17.2296 13.9074L17.2268 13.9102C16.9635 14.1791 16.8459 14.5629 16.9075 14.9326L17.619 19.2576C17.7058 19.7898 17.4425 20.1875 17.1652 20.3836C17.0111 20.4928 16.5966 20.7169 16.1008 20.4452L12.3753 18.4032Z" fill="#313235"/>
</svg>
