<svg width="24" height="24" viewBox="0 0 24 24" fill="none" xmlns="http://www.w3.org/2000/svg">
<path fill-rule="evenodd" clip-rule="evenodd" d="M20.1456 11.2829C20.9495 11.5014 21.6862 12.1316 21.6862 13.4033C21.6862 15.0056 20.5266 15.5966 19.5322 15.6134H19.3641C18.3697 15.5994 17.2101 15.0084 17.2101 13.3949C17.2101 12.0168 18.0504 11.3921 18.9131 11.2325V9.49579C18.9131 7.85713 17.7535 7.58542 17.0616 7.56862L16.8403 7.56582C16.1624 7.57142 15.028 7.82912 15.028 9.48178L15.0308 9.55741V17.5518C15.0308 20.5462 12.8711 21.6498 11.0196 21.6834C10.9845 21.6834 10.9468 21.6841 10.9078 21.6848H10.9077C10.8657 21.6855 10.8222 21.6862 10.7787 21.6862H10.6723C8.73108 21.6582 6.65826 20.5518 6.65826 17.5322V16.1736H6.39775C5.99439 16.1736 5.66386 15.8207 5.66386 15.3837V14.1484C3.28851 13.5742 2 11.605 2 8.45377C2 8.11764 2.27731 7.84313 2.61625 7.84313H2.79832V4.66106C2.79552 4.54621 2.77311 3.34454 3.46778 2.63865C3.77871 2.31933 4.18767 2.15126 4.65266 2.14286C4.83193 2.01961 5.03921 2 5.12605 2H5.20168C5.36134 2.0028 5.97758 2.06723 5.97758 2.80392C5.97758 3.54341 5.35854 3.59944 5.20448 3.60224H5.13165C5.03081 3.60224 4.7563 3.57703 4.56302 3.38375C4.48459 3.39496 4.40896 3.43417 4.35294 3.49019C4.08963 3.7563 4.02521 4.38095 4.03081 4.64145V7.84593H4.2689C4.61064 7.84593 4.88515 8.12044 4.88515 8.45657C4.88515 10.3837 5.67787 11.3613 7.23809 11.3613C8.79831 11.3613 9.59102 10.3837 9.59102 8.45657C9.59102 8.12044 9.86833 7.84593 10.2073 7.84593H10.4622V4.66106C10.4678 4.43417 10.4202 3.77031 10.14 3.48739C10.06 3.40738 9.95063 3.36382 9.83752 3.36694C9.64425 3.57423 9.36133 3.60224 9.25769 3.60224H9.18486C9.0308 3.59944 8.41456 3.54061 8.41456 2.80392C8.41456 2.06723 9.0308 2.0056 9.18766 2.0028H9.26329C9.35013 2.0028 9.56581 2.02521 9.74789 2.15686C9.75762 2.15565 9.76682 2.15284 9.77596 2.15006C9.78785 2.14644 9.79963 2.14286 9.81231 2.14286C10.2885 2.14286 10.7115 2.31372 11.0308 2.64146C11.7227 3.34734 11.7031 4.54902 11.6975 4.68347V7.84593H11.8599C12.2017 7.84593 12.4762 8.12044 12.4762 8.45657C12.4762 11.5686 11.2213 13.5322 8.89915 14.1316V15.3865C8.89915 15.8235 8.57142 16.1764 8.16526 16.1764H7.88795V17.5294C7.88795 20.1428 9.84593 20.451 10.6863 20.465C10.7899 20.4678 10.9019 20.465 10.9944 20.4622C11.8347 20.4453 13.7927 20.1316 13.7927 17.549V9.49298C13.7927 7.18767 15.4285 6.35854 16.8263 6.34453C16.9103 6.34453 17.0084 6.34453 17.0896 6.34733C18.4986 6.38094 20.1456 7.22408 20.1456 9.49579V11.2829ZM7.24089 13.112C4.72549 13.112 3.41736 11.7871 3.2521 9.06441H3.67787C3.87675 11.2773 5.17647 12.577 7.24089 12.577C9.30251 12.577 10.605 11.2773 10.8011 9.06441H11.2269C11.0588 11.7871 9.75349 13.112 7.24089 13.112ZM19.5098 14.3949C20.1344 14.3837 20.451 14.0504 20.451 13.4061C20.451 12.7591 20.1316 12.423 19.4986 12.4117L19.3613 12.4089C18.4397 12.4202 18.4397 13.154 18.4397 13.3977C18.4397 14.0532 18.7563 14.3865 19.3781 14.3977C19.3809 14.3949 19.5098 14.3949 19.5098 14.3949ZM6.985 14.324L6.98495 14.324L6.98485 14.324C6.95556 14.3224 6.92615 14.3208 6.89635 14.3193V14.9552H7.66386V14.3165C7.5266 14.3249 7.38655 14.3333 7.23809 14.3333C7.15101 14.3333 7.06854 14.3287 6.985 14.324ZM19.9243 13.3641C19.9243 12.9776 19.6022 12.944 19.5182 12.9412L19.4734 12.944C19.3893 12.944 19.0728 12.972 19.0728 13.3613C19.0728 13.7535 19.3921 13.7843 19.479 13.7843H19.5182C19.5994 13.7815 19.9243 13.7507 19.9243 13.3641Z" fill="#313235"/>
</svg>
