<svg width="24" height="24" viewBox="0 0 24 24" fill="none" xmlns="http://www.w3.org/2000/svg">
<path fill-rule="evenodd" clip-rule="evenodd" d="M8.96632 21.2073C9.73943 21.549 10.5994 21.7143 11.5013 21.7143C13.4845 21.7143 15.6778 20.9104 17.6526 19.3865C19.7226 17.7871 21.0755 15.5994 21.4705 13.2185C21.4719 13.2143 21.4726 13.2108 21.4733 13.2073C21.474 13.2038 21.4747 13.2003 21.4761 13.1961C21.5517 12.9132 21.6106 12.6135 21.6498 12.3137C22.0895 8.972 19.9719 7.40338 17.8038 7.04764C17.7198 7.03855 17.6228 7.02393 17.5188 7.00826C17.4947 7.00462 17.4701 7.00092 17.4453 6.99722C17.252 6.97481 16.9803 6.9524 16.6582 6.9608C16.5209 6.80114 16.3977 6.61907 16.2884 6.42019C15.8907 5.6891 15.7982 4.84316 16.0251 4.03644C16.0812 3.87678 16.2044 3.4454 15.9999 2.97762C15.8851 2.71151 15.6218 2.35297 15.0223 2.14849C13.8235 1.73672 13.084 2.45941 12.8683 3.07566C12.3809 4.73952 12.5658 6.49582 13.3921 8.01962C13.4453 8.11766 13.5013 8.2129 13.563 8.31094C12.9663 8.98881 12.5882 9.89917 12.4397 11.0252C12.4061 11.2521 12.3837 11.4734 12.3809 11.6723C12.3277 12.0476 12.3809 12.423 12.4285 12.7535C12.4677 13.028 12.5209 13.4034 12.4397 13.4958C12.4201 13.5182 12.2436 13.6947 11.3613 13.6695C11.2236 13.6254 11.0696 13.5841 10.8861 13.5348L10.8767 13.5322C10.1848 13.3782 9.1568 13.2269 8.46212 13.2521H8.44251C7.44252 13.1989 6.41731 13.3978 5.47894 13.8291C3.91311 14.5546 2.72264 15.8487 2.14281 17.4342C1.92712 17.9216 1.93272 18.8347 2.84029 19.3613C3.33048 19.6443 4.28566 19.9524 5.1344 18.7815C5.23804 18.6387 5.33888 18.4958 5.43692 18.3529C5.8851 17.7115 6.27445 17.1569 6.87669 16.8459L7.00274 16.7787C7.19882 16.6695 7.24924 16.6527 7.31367 16.6667C7.42851 16.6947 7.46493 17.0308 7.4033 17.4846C7.29406 18.2773 7.35568 18.9972 7.58817 19.6274C7.86829 20.3865 8.34448 20.9328 8.96632 21.2073ZM7.59938 15.451C7.48453 15.423 7.37529 15.4118 7.27165 15.4118C6.92036 15.4118 6.64239 15.5534 6.44015 15.6564C6.42953 15.6618 6.41911 15.6671 6.40891 15.6723L6.31087 15.7227C5.43684 16.1708 4.92516 16.9039 4.42951 17.614L4.42011 17.6274C4.32488 17.7647 4.22964 17.902 4.1316 18.0364C3.84308 18.4342 3.70583 18.4118 3.45933 18.2689L3.45746 18.2678C3.37552 18.2198 3.20787 18.1215 3.29126 17.8992C3.77306 16.5882 4.73104 15.5434 5.99434 14.958C6.75344 14.6078 7.57137 14.4454 8.38089 14.493C8.38556 14.493 8.39023 14.4933 8.3949 14.4936C8.40423 14.4942 8.41357 14.4949 8.42291 14.493C8.43131 14.493 8.43971 14.4933 8.44812 14.4936C8.46492 14.4942 8.48173 14.4949 8.49854 14.493C9.03915 14.4706 9.98313 14.605 10.5826 14.7367C10.7562 14.7843 10.9159 14.8291 11.056 14.8768C11.112 14.8964 11.1708 14.9076 11.2296 14.9104C12.2884 14.9496 12.9663 14.7675 13.3613 14.3277C13.8282 13.8052 13.7353 13.131 13.6599 12.5842L13.6582 12.5714C13.657 12.5628 13.6559 12.5541 13.6547 12.5455C13.6194 12.2822 13.5836 12.0161 13.6162 11.8235C13.6218 11.7899 13.6246 11.7535 13.6246 11.7171C13.6246 11.5658 13.6386 11.3922 13.6694 11.1989C13.8123 10.1429 14.1792 9.35856 14.7674 8.86836C15.0195 8.65548 15.0672 8.28293 14.8711 8.01682C14.731 7.82355 14.5994 7.62187 14.4845 7.40898C13.8179 6.18209 13.6666 4.76473 14.0447 3.46781C14.1688 3.17557 14.5045 3.28494 14.6219 3.32318L14.6274 3.32496C14.7786 3.37818 14.8515 3.437 14.8683 3.47342C14.8851 3.50703 14.8739 3.56585 14.8655 3.59386C14.8627 3.60366 14.8592 3.61417 14.8557 3.62467C14.8522 3.63517 14.8487 3.64568 14.8459 3.65549C14.5181 4.78994 14.6442 5.98321 15.2044 7.01402C15.4173 7.40898 15.6806 7.75632 15.9831 8.04764C16.1092 8.17088 16.28 8.22971 16.4621 8.2185C16.8291 8.18769 17.1456 8.2157 17.28 8.23251C17.2976 8.23508 17.3155 8.23769 17.3334 8.24031C17.4523 8.25774 17.5743 8.27563 17.6498 8.28293C18.6162 8.44259 20.8206 9.14007 20.4257 12.1485C20.3977 12.3726 20.3529 12.5938 20.2996 12.8067C20.28 12.8515 20.2688 12.8992 20.2604 12.9468C19.9299 15.0392 18.7394 16.972 16.9019 18.3922C14.3809 20.3277 11.5265 20.9664 9.45652 20.0588C9.1484 19.9244 8.9075 19.6302 8.74503 19.1877C8.58537 18.7563 8.54616 18.2409 8.62739 17.6583C8.85988 16.0112 8.08117 15.5686 7.59938 15.451Z" fill="#313235"/>
</svg>
