<svg width="24" height="24" viewBox="0 0 24 24" fill="none" xmlns="http://www.w3.org/2000/svg">
<path fill-rule="evenodd" clip-rule="evenodd" d="M11.7731 6.60369C11.4314 6.60089 11.1568 6.33479 11.1596 6.00426L11.1736 3.43283C11.1765 3.1051 11.451 2.8418 11.7899 2.8418H11.7927C12.1344 2.8446 12.4089 3.1107 12.4061 3.44124L12.3921 6.01266C12.3893 6.34039 12.1148 6.60369 11.7759 6.60369H11.7731ZM4.39775 11.7381C4.78991 12.0995 5.35574 12.2844 6.08122 12.2844C6.80671 12.2844 7.37254 12.0995 7.76749 11.7381C8.17646 11.36 8.38374 10.8026 8.38374 10.0771C8.38374 9.35159 8.17646 8.79136 7.76749 8.41321C7.37534 8.04907 6.80671 7.867 6.08122 7.867C5.35574 7.867 4.78991 8.05187 4.39775 8.41601C3.99159 8.79417 3.78431 9.35439 3.78431 10.0799C3.78431 10.8054 3.99159 11.3628 4.39775 11.7381ZM15.3053 10.0855C15.3053 10.811 15.5126 11.3684 15.9215 11.7437C16.3137 12.1051 16.8795 12.29 17.6078 12.2928C18.3361 12.2928 18.9019 12.1079 19.2941 11.7465C19.6974 11.3712 19.9047 10.8138 19.9047 10.0883C19.9047 9.36279 19.7002 8.80257 19.2941 8.42442C18.8991 8.05747 18.3361 7.8754 17.6078 7.8754C16.8823 7.8754 16.3137 8.05747 15.9215 8.42162C15.5126 8.79977 15.3053 9.35999 15.3053 10.0855ZM16.5378 10.0855C16.5378 9.81657 16.577 9.46083 16.7731 9.27876C16.9692 9.09949 17.3333 9.06587 17.605 9.06587C17.8767 9.06587 18.2409 9.09949 18.4341 9.27876C18.6274 9.46083 18.6694 9.81657 18.6694 10.0855C18.6694 10.3544 18.6302 10.7073 18.4369 10.8866C18.2465 11.0631 17.8823 11.0995 17.6078 11.0995C17.3333 11.0995 16.9664 11.0631 16.7731 10.8838C16.577 10.7073 16.5378 10.3516 16.5378 10.0855ZM5.25209 9.27035C5.05882 9.45243 5.0168 9.80817 5.0168 10.0771C5.0168 10.3432 5.05882 10.6989 5.24929 10.8782C5.43977 11.0547 5.80671 11.0911 6.07842 11.0911C6.35013 11.0911 6.71708 11.0547 6.91316 10.8754C7.10643 10.6961 7.14845 10.3432 7.14845 10.0771C7.14845 9.81097 7.10643 9.45243 6.91316 9.27035C6.71708 9.09108 6.35293 9.05467 6.08122 9.05467C5.80952 9.05467 5.44257 9.09108 5.25209 9.27035ZM7.93836 6.06868L9.09522 7.19753C9.21567 7.31518 9.37533 7.3768 9.535 7.3768C9.69186 7.3768 9.84872 7.31798 9.96917 7.20313C10.2101 6.97064 10.2101 6.59249 9.97197 6.36L8.81511 5.23115C8.57702 4.99866 8.18486 4.99866 7.94397 5.22835C7.70027 5.46084 7.70027 5.83619 7.93836 6.06868ZM14.0252 7.374C13.8711 7.374 13.7115 7.31798 13.591 7.20313C13.3473 6.97344 13.3473 6.59809 13.5854 6.3628L14.7423 5.23395C14.9804 4.99865 15.3725 4.99865 15.6162 5.22835C15.8571 5.45804 15.8599 5.83619 15.619 6.06868L14.4622 7.19753C14.3445 7.31518 14.1848 7.374 14.0252 7.374ZM20.4509 15.7101L20.4117 19.6961H19.3725V16.9678C19.3725 16.6401 19.0952 16.374 18.7563 16.374C18.4173 16.374 18.14 16.6373 18.14 16.9678V19.6961H14.7143L14.7423 17.0939L14.7563 15.839C14.7563 15.7633 14.7423 15.5224 14.6919 15.4104C14.6386 15.2871 14.4958 15.1247 14.4958 15.1247L13.8851 14.3544L12.4762 12.5701V11.1499L14.4762 13.7437C14.4762 13.7437 14.7003 14.0491 14.7843 14.1415C14.8599 14.2255 15.056 14.3628 15.1624 14.3992C15.2941 14.4468 15.521 14.4496 15.6694 14.4468C15.7384 14.4454 15.8074 14.4461 15.8752 14.4468H15.8753H15.8753H15.8753H15.8754C15.9426 14.4475 16.0087 14.4482 16.0728 14.4468H16.084C16.1106 14.4449 16.1397 14.4456 16.167 14.4462C16.1801 14.4465 16.1927 14.4468 16.2045 14.4468H19.0056C19.3613 14.4468 19.8459 14.5056 20.1372 14.7998C20.3977 15.0603 20.4509 15.4384 20.4509 15.7101ZM11.2101 12.5617V11.1415L9.21007 13.7381C9.21007 13.7381 8.98598 14.0435 8.90195 14.1359C8.82632 14.2227 8.63024 14.3572 8.5238 14.3936C8.39214 14.4412 8.16245 14.444 8.01679 14.4412C7.94771 14.4398 7.87791 14.4405 7.80954 14.4412H7.8095H7.80949C7.74205 14.4419 7.67602 14.4426 7.61343 14.4412H4.68067C4.32492 14.4412 3.84313 14.5028 3.54902 14.797C3.29131 15.0575 3.23529 15.4356 3.23529 15.7073L3.27451 19.6933H4.31372V16.965C4.31372 16.6373 4.59103 16.3712 4.92997 16.3712C5.2689 16.3712 5.54621 16.6373 5.54621 16.965V19.6933H8.97197L8.94676 17.0883L8.92996 15.8334C8.92996 15.7577 8.94676 15.5168 8.99438 15.4048C9.0476 15.2815 9.19046 15.1191 9.19046 15.1191L9.8011 14.3488L11.2101 12.5617ZM21.6862 15.7129C21.6862 15.007 21.4593 14.4076 21.028 13.9762C20.5574 13.5056 19.8599 13.2563 19.0056 13.2591H16.2045C16.0168 13.2591 15.8375 13.2731 15.6666 13.2984L12.3585 9.00425L12.3557 9.00145L12.3501 8.99585C12.3446 8.98665 12.3379 8.98107 12.3307 8.97515C12.327 8.97206 12.3232 8.96888 12.3193 8.96503C12.2885 8.92862 12.2549 8.89501 12.2157 8.86699C12.2072 8.86022 12.1967 8.8555 12.1866 8.85097C12.18 8.848 12.1736 8.84511 12.168 8.84178C12.1559 8.83569 12.1442 8.82932 12.1327 8.82302C12.1071 8.80906 12.0822 8.79541 12.0532 8.78576C12.0518 8.78436 12.0497 8.78436 12.0476 8.78436C12.0455 8.78436 12.0434 8.78436 12.042 8.78296C12.0336 8.78296 12.0308 8.78296 12.0224 8.78016C12.0224 8.78016 12.0224 8.77736 12.0196 8.77736H12.014C11.9664 8.76335 11.9187 8.75775 11.8683 8.75495C11.8613 8.75495 11.855 8.75355 11.8487 8.75215C11.8424 8.75075 11.8361 8.74935 11.8291 8.74935C11.7731 8.74935 11.7171 8.76055 11.6638 8.77456C11.6554 8.77456 11.6498 8.77456 11.6414 8.77736C11.64 8.77876 11.6379 8.77876 11.6358 8.77876C11.6337 8.77876 11.6316 8.77876 11.6302 8.78016C11.592 8.7929 11.5584 8.8126 11.5274 8.83082C11.5243 8.83262 11.5212 8.83441 11.5182 8.83618C11.5126 8.83898 11.507 8.84147 11.5014 8.84396C11.4902 8.84894 11.479 8.85392 11.4678 8.86139C11.4286 8.8866 11.3949 8.92302 11.3641 8.95943C11.3609 8.96263 11.3569 8.96583 11.3527 8.96918C11.3459 8.97464 11.3385 8.9805 11.3333 8.98744L11.3277 8.99585L11.3249 8.99865L8.01679 13.29C7.84593 13.2647 7.66665 13.2479 7.47898 13.2479H4.67787C3.82633 13.2479 3.12885 13.4972 2.65826 13.9678C2.22689 14.402 2 15.0014 2 15.7045L2.05042 20.6317C2.05042 20.7689 2.16527 20.881 2.31092 20.881H9.95517C10.1008 20.881 10.2185 20.7717 10.2185 20.6317L10.168 15.8474L11.8403 13.7297L13.5182 15.853L13.4706 20.6373C13.4706 20.7745 13.5882 20.8866 13.7311 20.8866H21.3753C21.5182 20.8866 21.6358 20.7745 21.6358 20.6373L21.6862 15.7129Z" fill="#313235"/>
</svg>
