<svg width="24" height="24" viewBox="0 0 24 24" fill="none" xmlns="http://www.w3.org/2000/svg">
<path fill-rule="evenodd" clip-rule="evenodd" d="M17.2957 2.26195C17.6655 2.19192 18.0436 2.1555 18.4246 2.1499H18.4302C18.982 2.1527 19.4414 2.44682 19.6375 2.91741C19.8336 3.388 19.7103 3.92581 19.321 4.31517L18.7495 4.88379L18.7999 5.23113L19.1473 5.28155L19.7159 4.71292C19.9792 4.44962 20.3125 4.30396 20.6543 4.30396C21.0801 4.30396 21.4722 4.52525 21.6907 4.88939C21.8195 5.10788 21.8868 5.35438 21.884 5.60648C21.8784 5.97623 21.8448 6.34597 21.7775 6.71012C21.6179 7.59527 21.2985 8.28155 20.8308 8.74933C20.3686 9.21152 19.6935 9.52804 18.8224 9.69051C18.4834 9.75493 18.1417 9.79135 17.7971 9.80255L9.80556 17.7941C9.79716 18.1275 9.76074 18.4608 9.70192 18.7885C9.53945 19.6737 9.22013 20.36 8.75234 20.8277C8.29016 21.2927 7.61509 21.6093 6.74394 21.7717C6.37139 21.8418 5.99324 21.8782 5.61509 21.8838H5.60949C5.05767 21.881 4.59548 21.5868 4.39941 21.1135C4.20333 20.6401 4.32658 20.1051 4.71593 19.7185L5.28736 19.1471L5.23694 18.7997L4.8896 18.7493L4.31817 19.3207C4.05487 19.5841 3.72153 19.7297 3.3798 19.7297C2.95403 19.7297 2.56187 19.5084 2.34339 19.1443C2.21453 18.9258 2.14731 18.6793 2.15011 18.4272C2.15571 18.0574 2.18932 17.6877 2.25655 17.3236C2.41902 16.4384 2.73834 15.7521 3.20613 15.2843C3.66831 14.8222 4.34338 14.5056 5.21453 14.3432C5.55347 14.2787 5.8952 14.2423 6.23974 14.2311L14.2341 6.23953C14.2425 5.9062 14.2789 5.57287 14.3378 5.24514C14.5002 4.35998 14.8196 3.67371 15.2873 3.20592C15.7495 2.74094 16.4246 2.42441 17.2957 2.26195ZM18.5282 3.52525C18.6683 3.38519 18.6179 3.27035 18.4218 3.27035C18.3686 3.27035 16.7971 3.27595 16.0745 3.99584C15.3434 4.72973 15.349 6.34317 15.349 6.34317C15.349 6.54205 15.2369 6.81656 15.0969 6.95662L6.95682 15.0967C6.81677 15.2367 6.54226 15.3488 6.34618 15.3488H6.34338C6.29016 15.3488 4.71873 15.3544 3.99885 16.0743C3.26775 16.8081 3.27336 18.4216 3.27336 18.4216C3.27336 18.542 3.31817 18.6065 3.3826 18.6065C3.42462 18.6065 3.47504 18.5784 3.52826 18.5252L4.23974 17.8137C4.36299 17.6905 4.58988 17.6065 4.77475 17.6065C4.79996 17.6065 4.82517 17.6093 4.85038 17.6121L5.87279 17.7577C6.06887 17.7857 6.25094 17.9678 6.27895 18.1639L6.42461 19.1863C6.45262 19.3824 6.36019 19.6569 6.22013 19.7969L5.50865 20.5084C5.37139 20.6485 5.41901 20.7633 5.61509 20.7633H5.61789C5.67111 20.7633 7.24254 20.7577 7.96243 20.0378C8.69352 19.3039 8.68791 17.6905 8.68791 17.6905C8.68791 17.4916 8.79996 17.2171 8.94001 17.0771L17.0801 8.93701C17.2201 8.79695 17.4946 8.68491 17.6907 8.68491H17.6935C17.7467 8.68491 19.3181 8.6793 20.038 7.95942C20.7691 7.22553 20.7635 5.61208 20.7635 5.61208C20.7635 5.49163 20.7187 5.42721 20.6543 5.42721C20.6123 5.42721 20.5618 5.45522 20.5086 5.50844L19.7971 6.21992C19.6739 6.34317 19.447 6.42721 19.2621 6.42721C19.2369 6.42721 19.2117 6.42441 19.1865 6.42161L18.1641 6.27595C17.968 6.24794 17.7859 6.06586 17.7579 5.86978L17.6123 4.84738C17.5843 4.6513 17.6767 4.37679 17.8168 4.23673L18.5282 3.52525Z" fill="#313235"/>
</svg>
