<svg width="24" height="24" viewBox="0 0 24 24" fill="none" xmlns="http://www.w3.org/2000/svg">
<path fill-rule="evenodd" clip-rule="evenodd" d="M21.7143 4.06163C21.7115 2.92158 20.7843 2.00001 19.6443 2.00001H17.4538C16.86 1.99721 16.3558 2.43419 16.2745 3.02242C16.2241 3.35295 15.9384 3.59945 15.6023 3.59945C15.2661 3.59945 14.9804 3.35015 14.93 3.02242C14.846 2.42858 14.3502 2.00001 13.7535 2.00001H11.5603C10.5715 2.00001 9.71992 2.70309 9.53504 3.67788C9.50528 3.68979 9.47482 3.69993 9.4444 3.71007C9.38892 3.72855 9.3336 3.74698 9.28294 3.77592L7.57987 4.7283C7.08967 5.00001 6.87679 5.59384 7.08407 6.11485C7.17371 6.36135 7.07287 6.64146 6.84317 6.77311C6.61628 6.90196 6.31376 6.84034 6.1541 6.63586C5.81516 6.18488 5.19612 6.05603 4.70592 6.33614L3.00285 7.28852C2.56027 7.53502 2.23534 7.94678 2.10089 8.43417C1.96083 8.91877 2.02246 9.43977 2.27175 9.87955L8.38379 20.7115C8.63028 21.154 9.04485 21.479 9.53224 21.6134C10.0196 21.7507 10.5406 21.689 10.9832 21.4397L12.7003 20.479C12.874 20.3837 13.0084 20.2437 13.1065 20.0784H13.7703C14.339 20.0756 14.8292 19.6722 14.9384 19.1148C14.9916 18.8515 15.1989 18.6442 15.465 18.5882C15.832 18.5126 16.1905 18.7479 16.2661 19.1148C16.3754 19.675 16.8684 20.0784 17.4342 20.0784H19.6443C20.7843 20.0784 21.7115 19.1568 21.7143 18.0168V4.06163ZM20.493 4.06163V18.0168C20.493 18.4846 20.1121 18.8627 19.6443 18.8599L17.465 18.8795C17.2885 17.9944 16.507 17.3529 15.6023 17.3529C14.6975 17.3529 13.916 17.9972 13.7703 18.8599H11.5603C11.0925 18.8599 10.7115 18.4818 10.7115 18.014V8.04482C10.7115 8.03351 10.7118 8.02252 10.7121 8.01163C10.7128 7.99015 10.7134 7.96908 10.7115 7.94678V4.06163C10.7115 3.59665 11.0925 3.2157 11.5603 3.2157L13.7227 3.19609C13.8656 4.12606 14.6639 4.81233 15.6023 4.81513C16.5406 4.81513 17.3474 4.11766 17.4538 3.2157H19.6443C20.1121 3.2157 20.493 3.59665 20.493 4.06163ZM11.0532 20.0056L10.3866 20.3809C10.0533 20.5658 9.63588 20.4482 9.44541 20.1204L3.33338 9.28291V9.28011C3.1485 8.94958 3.26895 8.53221 3.59948 8.34734L5.23253 7.43418C5.77035 8.07003 6.70592 8.2409 7.43981 7.83193C8.1737 7.41737 8.50984 6.54342 8.24653 5.7451L9.49303 5.04482V7.68628L5.56026 9.88795H5.55746C5.26615 10.0532 5.1625 10.423 5.32777 10.7143L9.30535 17.7647C9.35297 17.8431 9.4174 17.9075 9.49303 17.9552V18.014C9.49583 18.958 10.1401 19.7787 11.0532 20.0056ZM9.49303 15.619V9.08123L6.69191 10.6527L9.49303 15.619ZM12.7731 15.3389H18.5462V6.78712H12.7731V15.3389ZM19.7675 6.17928C19.7675 5.84314 19.493 5.57143 19.1569 5.57143H12.1653C11.8292 5.57143 11.5546 5.84314 11.5546 6.17928V15.9468C11.5546 16.2829 11.8292 16.5546 12.1653 16.5546H19.1569C19.493 16.5546 19.7675 16.2829 19.7675 15.9468V6.17928Z" fill="#313235"/>
</svg>
