<svg width="24" height="24" viewBox="0 0 24 24" fill="none" xmlns="http://www.w3.org/2000/svg">
<path fill-rule="evenodd" clip-rule="evenodd" d="M2.1499 11.9958C2.1499 18.4328 5.55326 21.8362 11.9902 21.8362C18.4328 21.8362 21.8362 18.4328 21.8362 11.9958C21.8362 5.55326 18.4328 2.1499 11.9902 2.1499C5.55326 2.1499 2.1499 5.55326 2.1499 11.9958ZM3.35719 11.9958C3.35719 6.26475 6.26195 3.35719 11.9902 3.35719C17.7213 3.35719 20.6289 6.26475 20.6289 11.9958C20.6289 17.7241 17.7213 20.6289 11.9902 20.6289C6.26195 20.6289 3.35719 17.7241 3.35719 11.9958ZM11.6821 7.22833C11.8026 7.22833 11.9202 7.28436 11.9958 7.37959C12.0715 7.47483 12.0995 7.60088 12.0743 7.71853L11.9986 8.06307C11.9566 8.24794 11.7942 8.37679 11.6065 8.37679H9.22833V16.3572C9.22833 16.5785 9.04906 16.7605 8.82497 16.7605H8.44402C8.21993 16.7605 8.04066 16.5813 8.04066 16.3572V8.37679H5.60929C5.388 8.37679 5.20592 8.19752 5.20592 7.97343V7.62889C5.20592 7.40761 5.3852 7.22553 5.60929 7.22553H11.6821V7.22833ZM18.7269 16.5533C18.7998 16.4272 18.797 16.2704 18.7213 16.1471L15.7914 11.2816L18.4888 7.87819C18.5841 7.75775 18.6037 7.59248 18.5365 7.45242C18.4664 7.31237 18.3264 7.22553 18.1723 7.22553H17.7269C17.6037 7.22553 17.486 7.28156 17.4104 7.37679L13.9818 11.6933V7.62889C13.9818 7.4048 13.8026 7.22553 13.5785 7.22553H13.1975C12.9734 7.22553 12.7942 7.40761 12.7942 7.62889V16.3544C12.7942 16.5785 12.9734 16.7577 13.1975 16.7577H13.5785C13.8026 16.7577 13.9818 16.5757 13.9818 16.3544V13.5225L15.0126 12.2367L17.5981 16.5617C17.6709 16.6821 17.7998 16.7577 17.9426 16.7577H18.3768C18.5225 16.7577 18.6541 16.6793 18.7269 16.5533Z" fill="#313235"/>
</svg>
