<svg width="24" height="24" viewBox="0 0 24 24" fill="none" xmlns="http://www.w3.org/2000/svg">
<path fill-rule="evenodd" clip-rule="evenodd" d="M17.5517 6.55314C17.9887 7.15818 20.5489 10.5447 20.8851 10.9789L20.8981 10.996C21.1784 11.3639 21.6862 12.0303 21.6862 12.808V16.1442C21.6862 16.7184 21.4341 17.2982 20.9915 17.738C20.5489 18.1778 19.9663 18.4299 19.3921 18.4299H19.168C18.7142 19.4831 17.7226 20.1021 16.3473 20.1021C14.9719 20.1021 13.9803 19.4831 13.5265 18.4299H9.66379C9.21001 19.4831 8.21842 20.1021 6.84307 20.1021C5.45091 20.1021 4.44811 19.4691 4.00274 18.3935C3.49854 18.3122 3.05316 18.0937 2.69742 17.7408C2.25484 17.301 2.00274 16.7212 2.00274 16.147V11.7464C2.00274 11.4159 2.27165 11.147 2.60498 11.147H6.75623L4.99153 7.59516L4.98873 9.28703C4.99433 9.31504 5.03075 9.9761 4.58817 10.4523C4.4033 10.6512 4.06716 10.8921 3.51254 10.8949H3.49854C2.9159 10.8949 2.57137 10.6456 2.38369 10.4383C1.93271 9.93689 1.99994 9.23661 2.00834 9.15538C2.04756 8.82485 2.34728 8.58675 2.67781 8.62597C3.00834 8.66518 3.24644 8.9649 3.20722 9.29543C3.19882 9.39067 3.21842 9.56714 3.28285 9.63717C3.30915 9.66511 3.34799 9.66894 3.39483 9.67356C3.42782 9.67682 3.46479 9.68046 3.50414 9.69319C3.60218 9.69039 3.6694 9.67358 3.70302 9.63717C3.77585 9.55594 3.78985 9.36826 3.78705 9.32625L3.79265 5.13017C3.79265 4.90328 3.92711 4.696 4.13439 4.59796C4.13653 4.59689 4.13826 4.59582 4.13974 4.59491C4.14213 4.59343 4.14386 4.59236 4.14559 4.59236C4.18081 4.57593 4.21799 4.56933 4.25549 4.56268C4.26274 4.56139 4.26999 4.56011 4.27725 4.55875C4.29419 4.55429 4.31057 4.54869 4.32683 4.54314C4.36164 4.53124 4.39592 4.51953 4.43411 4.51953H4.43971L5.88229 4.53074C6.08116 4.53074 6.26324 4.62877 6.37528 4.79124L10.5742 10.8697V6.10776C10.5742 5.77723 10.8431 5.50833 11.1764 5.50833H15.4789C16.28 5.50833 17.0924 5.91729 17.5517 6.55314ZM5.55736 5.72961L9.29124 11.1386L8.09237 11.1358L5.4061 5.72681L5.55736 5.72961ZM20.4817 16.1498C20.4817 16.4075 20.3585 16.6792 20.14 16.8949C19.9327 17.0993 19.6778 17.217 19.4313 17.2282C19.4325 17.196 19.4359 17.165 19.4394 17.1338L19.4394 17.1337C19.4437 17.0943 19.4481 17.0547 19.4481 17.0125C19.4481 15.1049 18.2576 13.9229 16.3445 13.9229C14.4313 13.9229 13.2408 15.1077 13.2408 17.0125C13.2408 17.0567 13.2453 17.0973 13.2496 17.1373L13.2496 17.1373C13.253 17.1684 13.2564 17.1992 13.2576 17.231H9.9271C9.92833 17.1989 9.93174 17.1674 9.93517 17.1356C9.93952 17.0954 9.9439 17.0548 9.9439 17.0125C9.9439 15.1049 8.75343 13.9229 6.84027 13.9229C4.9271 13.9229 3.73663 15.1077 3.73663 17.0125V17.0181C3.71516 17.0041 3.69275 16.9917 3.67034 16.9792C3.62552 16.9543 3.5807 16.9294 3.54335 16.8921C3.32487 16.6764 3.20162 16.4047 3.20162 16.147V12.3486H11.1708C11.5041 12.3486 11.773 12.0797 11.773 11.7492V6.71H15.4733C15.8851 6.71 16.336 6.93409 16.5685 7.25622C17.0139 7.86686 19.5909 11.2758 19.9299 11.71C20.1372 11.9789 20.4817 12.4271 20.4817 12.8052V16.1498ZM16.3473 18.9061C15.0896 18.9061 14.4509 18.2702 14.4509 17.0153C14.4509 15.7604 15.0896 15.1246 16.3473 15.1246C17.605 15.1246 18.2464 15.7604 18.2464 17.0153C18.2464 18.2702 17.605 18.9061 16.3473 18.9061ZM4.94671 17.0153C4.94671 18.2702 5.58537 18.9061 6.84307 18.9061C8.10357 18.9061 8.74222 18.2702 8.73942 17.0153C8.73942 15.7604 8.10077 15.1246 6.84307 15.1246C5.58537 15.1246 4.94671 15.7604 4.94671 17.0153Z" fill="#313235"/>
</svg>
