<svg width="24" height="24" viewBox="0 0 24 24" fill="none" xmlns="http://www.w3.org/2000/svg">
<path fill-rule="evenodd" clip-rule="evenodd" d="M2.34645 16.9742C2.23437 16.8443 2.16992 16.6669 2.16992 16.4831V7.48223V5.26764C2.16992 4.88429 2.43891 4.57064 2.77235 4.57064H13.1089L13.1091 4.57063C13.226 4.56741 16.5007 4.47709 20.3129 8.88258C21.4477 10.1942 21.9633 11.5502 21.8428 12.9094C21.6719 14.8452 20.2597 16.1853 19.4359 16.8126C19.0968 17.0693 18.7045 17.2055 18.3039 17.2055H18.287C17.2783 17.196 13.7478 17.177 2.77235 17.177C2.61264 17.177 2.46133 17.1041 2.34645 16.9742ZM3.37478 5.96148H12.9548V11.3665C12.9548 11.753 13.2238 12.0635 13.5573 12.0635H20.6155C20.6575 12.3011 20.6659 12.5387 20.6463 12.77C20.6267 12.9886 20.5763 13.1945 20.509 13.3973H3.37478V11.9843H11.6547C11.9881 11.9843 12.2571 11.6706 12.2571 11.2873V7.48223C12.2571 7.09571 11.9881 6.78522 11.6547 6.78522H3.37478V5.96148ZM19.4639 9.8679C19.6965 10.1372 19.8898 10.4033 20.0551 10.6695H14.1625V6.1294C15.2973 6.43672 17.2587 7.32382 19.4639 9.8679ZM18.7746 15.6499C18.9988 15.482 19.3518 15.181 19.6909 14.785H3.37478V15.7861C13.8823 15.7861 17.3063 15.8051 18.2955 15.8146H18.3039C18.472 15.8146 18.6317 15.7608 18.7746 15.6499ZM5.11763 8.17924V10.5934H3.37478V8.17924H5.11763ZM6.32249 10.5934H8.19423V8.17924H6.32249V10.5934ZM11.0523 10.5934H9.39909V8.17924H11.0523V10.5934ZM21.8596 18.7231C21.8596 18.3365 21.5906 18.0261 21.2572 18.0261H2.77235C2.43891 18.0261 2.16992 18.3365 2.16992 18.7231C2.16992 19.1096 2.43891 19.4201 2.77235 19.4201H21.2572C21.5906 19.4201 21.8596 19.1096 21.8596 18.7231Z" fill="#313235"/>
</svg>
