<svg width="24" height="24" viewBox="0 0 24 24" fill="none" xmlns="http://www.w3.org/2000/svg">
<path fill-rule="evenodd" clip-rule="evenodd" d="M16.9949 4.69696C16.9166 3.47982 15.9519 2.5 14.75 2.5H9.75L9.59463 2.5055C8.41456 2.58929 7.5 3.62063 7.5 4.857V6.5H5.25H3.25L3.14823 6.50685C2.78215 6.55651 2.5 6.8703 2.5 7.25C2.5 7.66421 2.83579 8 3.25 8H4.5V18.75C4.5 20.5452 5.95479 22 7.75 22H16.75C18.5452 22 20 20.5452 20 18.75V8H21.25L21.3518 7.99315C21.7178 7.94349 22 7.6297 22 7.25C22 6.83579 21.6642 6.5 21.25 6.5H19.25H17V4.857L16.9949 4.69696ZM15.5 6.5V4.857C15.5 4.4103 15.2033 4.05805 14.8416 4.0065L14.75 4H9.75C9.37913 4 9.05389 4.31789 9.00605 4.74741L9 4.857V6.5H15.5ZM8.25 8H6V18.75C6 19.6684 6.70685 20.4212 7.60643 20.4942L7.75 20.5H16.75C17.7168 20.5 18.5 19.7168 18.5 18.75V8H16.25H8.25ZM10.25 10.5C10.6297 10.5 10.9435 10.7822 10.9932 11.1482L11 11.25V17.25C11 17.6642 10.6642 18 10.25 18C9.8703 18 9.55651 17.7178 9.50685 17.3518L9.5 17.25V11.25C9.5 10.8358 9.83579 10.5 10.25 10.5ZM14.9932 11.1482C14.9435 10.7822 14.6297 10.5 14.25 10.5C13.8358 10.5 13.5 10.8358 13.5 11.25V17.25L13.5068 17.3518C13.5565 17.7178 13.8703 18 14.25 18C14.6642 18 15 17.6642 15 17.25V11.25L14.9932 11.1482Z" fill="#313235"/>
</svg>
