<svg width="24" height="24" viewBox="0 0 24 24" fill="none" xmlns="http://www.w3.org/2000/svg">
<path fill-rule="evenodd" clip-rule="evenodd" d="M16.0337 4.45658C17.6751 4.65266 19.2774 5.66106 19.2774 8C19.2774 8.94398 19.0224 9.71989 18.5182 10.3165C18.9104 10.7451 19.2297 11.3894 19.2297 12.3557C19.2297 14.0252 18.3054 14.7619 17.5351 15.0868C17.3362 17.8571 15.1093 18.888 13.1121 18.9524V21.0868C13.1121 21.4174 12.8292 21.6863 12.4818 21.6863C12.1345 21.6863 11.8516 21.4174 11.8516 21.0868V18.8627C10.5014 18.6303 9.16251 17.93 8.57707 16.507C6.93561 16.3221 5.33337 15.3193 5.33337 12.9664C5.33337 11.8796 5.68351 11.1401 6.09528 10.6443C5.70592 10.2185 5.38379 9.57143 5.38379 8.60224C5.38379 7.28852 5.98043 6.33613 7.07847 5.87395C7.28295 3.0084 9.6583 2 11.7003 2C13.353 2 15.297 2.65546 16.0337 4.45658ZM17.972 12.3585C17.972 11.6331 17.7367 11.1401 17.2577 10.8487C17.0897 10.7479 16.9804 10.5686 16.972 10.3753C16.9636 10.1765 17.0561 9.9888 17.2157 9.87395C17.7591 9.47059 18.0224 8.85994 18.0224 8C18.0224 5.9944 16.4762 5.64706 15.5519 5.61905C15.283 5.61625 15.0449 5.43697 14.9664 5.17647C14.4482 3.33894 12.3362 3.19608 11.7031 3.19608C10.6835 3.19608 8.31657 3.4902 8.31657 6.22409C8.31657 6.4902 8.1401 6.79552 7.87119 6.86835C7.03365 7.10084 6.6443 7.64986 6.6443 8.59944C6.6443 9.32493 6.87679 9.81793 7.35578 10.1064C7.52665 10.2073 7.6359 10.3838 7.6471 10.5826C7.6555 10.7815 7.56307 10.9692 7.4034 11.084C6.85998 11.4874 6.59388 12.1036 6.59388 12.9636C6.59388 14.9776 8.1401 15.3165 9.06167 15.3389C9.33337 15.3417 9.57427 15.521 9.6527 15.7815C9.99164 16.986 11.0112 17.4566 11.8544 17.6415V16.437L9.35858 14.0504C9.35099 14.0447 9.34467 14.0377 9.33878 14.0312C9.33598 14.0281 9.33328 14.0251 9.33057 14.0224C9.11209 13.7871 9.12609 13.4202 9.36139 13.2017C9.61349 12.9692 10 12.972 10.2521 13.2045L11.8544 14.7339V9.62185C11.8544 9.29132 12.1373 9.02241 12.4846 9.02241C12.8348 9.02241 13.1149 9.29132 13.1149 9.62185V11.4398L14.3558 9.83753C14.5687 9.57143 14.9552 9.51541 15.2353 9.71148C15.2431 9.71535 15.2495 9.72056 15.2564 9.72617C15.2595 9.72869 15.2627 9.73129 15.2661 9.73389C15.5182 9.93277 15.5631 10.2969 15.367 10.549L13.1345 13.4258C13.1317 13.43 13.1275 13.4328 13.1233 13.4356C13.1191 13.4384 13.1149 13.4412 13.1121 13.4454V17.7591C14.2073 17.7143 16.297 17.2997 16.297 14.7311C16.297 14.465 16.479 14.1597 16.7507 14.0868C17.5715 13.8683 17.972 13.3025 17.972 12.3585Z" fill="#313235"/>
</svg>
