<svg width="24" height="24" viewBox="0 0 24 24" fill="none" xmlns="http://www.w3.org/2000/svg">
<path fill-rule="evenodd" clip-rule="evenodd" d="M19.8283 8.21316C19.7366 8.00258 19.6551 7.81535 19.5883 7.65539C19.5661 7.60254 19.5451 7.55168 19.5253 7.50372C19.4926 7.42459 19.4632 7.35335 19.437 7.29405C19.4121 7.23888 19.3962 7.20745 19.3851 7.18541C19.3787 7.17275 19.3739 7.16319 19.3698 7.15399L19.311 7.04475C19.1597 6.77584 18.986 6.52374 18.7647 6.31366C18.0841 5.6666 17.1205 5.33887 15.8992 5.33887C15.3978 5.33887 14.9524 5.40609 14.5379 5.51814C14.2942 5.58256 13.7535 5.82066 13.7423 5.82626C13.7423 5.82626 13.3278 6.05876 13.1961 6.14559C12.7984 6.4145 12.3334 6.54895 11.8712 6.54895C11.4062 6.54895 10.944 6.4145 10.5435 6.14559C10.4118 6.05876 9.99724 5.82626 9.99724 5.82626C9.98883 5.82066 9.44822 5.58256 9.20452 5.51814C8.79276 5.4089 8.34738 5.33887 7.84318 5.33887C6.62469 5.33887 5.6583 5.6666 4.98043 6.31366C4.75634 6.52374 4.58547 6.77584 4.43141 7.04475L4.37539 7.15399C4.3713 7.16319 4.36647 7.17275 4.36008 7.1854C4.34895 7.20745 4.33308 7.23888 4.30816 7.29405C4.27521 7.36406 4.23924 7.45073 4.19912 7.54738C4.18467 7.58219 4.16968 7.6183 4.1541 7.65539C4.08555 7.82025 4.00137 8.01407 3.90646 8.23257C3.22573 9.79988 1.99363 12.6366 2.02805 15.154C2.03645 15.5686 2.19051 16.3921 2.31376 16.7898C2.56026 17.5826 3.12609 18.0924 3.75074 18.2969C4.00564 18.3781 4.35018 18.4369 4.59948 18.4565C4.62189 18.4593 4.6499 18.4593 4.67791 18.4593C5.03085 18.4593 5.62749 18.3137 5.93841 18.1736C6.12889 18.0896 6.395 17.9439 6.70872 17.6778C6.86944 17.5411 6.9521 17.4393 7.1678 17.1736C7.20398 17.129 7.2439 17.0799 7.28855 17.0251C7.3524 16.9457 7.4141 16.8647 7.47574 16.7837C7.62503 16.5875 7.77399 16.3917 7.95242 16.2212C8.53505 15.6666 9.27175 15.2716 10.1485 15.0279C10.7087 14.8683 11.2886 14.7926 11.8712 14.7926C12.4538 14.7926 13.0365 14.8711 13.5939 15.0279C14.4706 15.2716 15.2101 15.6694 15.79 16.2212C15.9609 16.3845 16.1047 16.5723 16.2486 16.7601C16.317 16.8493 16.3853 16.9385 16.4566 17.0251C16.4868 17.0625 16.5148 17.0972 16.541 17.1296C16.7822 17.4285 16.8672 17.5338 17.0365 17.6778C17.3502 17.9439 17.6303 18.0896 17.8208 18.1736C18.1569 18.3249 18.8124 18.4565 19.1457 18.4565C19.395 18.4565 19.7395 18.3781 19.9944 18.2969C20.6191 18.0924 21.1877 17.5826 21.4314 16.7898C21.5547 16.3921 21.7087 15.5686 21.7143 15.154C21.7489 12.6262 20.5086 9.77637 19.8283 8.21316ZM20.2521 16.4369C20.353 16.1064 20.479 15.4033 20.4818 15.14C20.5126 12.8808 19.3377 10.1723 18.7038 8.71105L18.7003 8.70301C18.6666 8.62457 18.6339 8.5493 18.6026 8.47732L18.6025 8.47706L18.6023 8.47666C18.5455 8.34583 18.4933 8.22589 18.4482 8.11758L18.4118 8.02794L18.3671 7.92313C18.3452 7.87191 18.3251 7.82499 18.3082 7.78425L18.283 7.72822L18.2689 7.70021L18.2633 7.68901L18.2241 7.61618C18.1121 7.4229 18.0112 7.28565 17.9076 7.18481C17.465 6.76464 16.79 6.55175 15.8992 6.55175C15.5463 6.55175 15.2045 6.59657 14.86 6.68901C14.7675 6.71422 14.4818 6.83186 14.3026 6.9103C14.2017 6.96632 13.9832 7.08957 13.8964 7.14839C13.297 7.55175 12.5995 7.76464 11.874 7.76464C11.1485 7.76464 10.4482 7.55175 9.85158 7.14839C9.77027 7.09419 9.59144 6.9923 9.48284 6.93043L9.44262 6.90749C9.27735 6.83747 8.98043 6.71422 8.88519 6.68621C8.53785 6.59657 8.19892 6.54895 7.84598 6.54895C6.95522 6.54895 6.28015 6.76464 5.84037 7.182C5.73673 7.28284 5.63029 7.4229 5.52385 7.61338L5.49304 7.675L5.46783 7.72542L5.43981 7.78425C5.41488 7.84034 5.38687 7.90722 5.35578 7.98146L5.32217 8.06156L5.29976 8.11758C5.2326 8.27877 5.14998 8.4683 5.05931 8.67629L5.0593 8.67631L5.04766 8.70301L5.04417 8.71105C4.41029 10.1723 3.23539 12.8808 3.26615 15.14C3.26895 15.4033 3.3922 16.1092 3.49584 16.4369C3.6499 16.9355 4.00004 17.098 4.1457 17.1456C4.27735 17.1904 4.52105 17.2324 4.70032 17.2492C4.82357 17.2464 5.24934 17.154 5.43421 17.07C5.59108 16.9999 5.74514 16.8991 5.9048 16.7646C5.98043 16.7002 6.00844 16.6694 6.23533 16.3893L6.33057 16.2716C6.35996 16.2339 6.38865 16.1961 6.41735 16.1583L6.41741 16.1582L6.41746 16.1581C6.44616 16.1203 6.47485 16.0825 6.50424 16.0447L6.53506 16.0045C6.69223 15.799 6.86663 15.571 7.09528 15.3529C7.81516 14.6666 8.73113 14.1652 9.81236 13.8627C10.479 13.6778 11.1737 13.5826 11.8712 13.5826C12.5687 13.5826 13.2633 13.6778 13.93 13.8627C15.014 14.1652 15.9272 14.6666 16.6471 15.3529C16.8908 15.5854 17.0785 15.8291 17.2409 16.0447L17.3278 16.1569L17.4146 16.2688L17.507 16.3837C17.7339 16.6638 17.7647 16.6946 17.8376 16.7618C18.0365 16.9327 18.2101 17.0195 18.3222 17.0672C18.493 17.1428 18.9776 17.2408 19.1401 17.2408C19.2045 17.2408 19.4062 17.2044 19.5995 17.1428C19.7479 17.098 20.0981 16.9355 20.2521 16.4369ZM15.9272 8.35007C16.1793 8.35007 16.3754 8.4145 16.5126 8.54335C16.6555 8.6778 16.7283 8.87668 16.7283 9.13719C16.7283 9.39489 16.6555 9.59377 16.5126 9.72822C16.3754 9.85707 16.1793 9.9215 15.9272 9.9215C15.6751 9.9215 15.479 9.85707 15.3418 9.72822C15.1989 9.59377 15.1289 9.39769 15.1289 9.13719C15.1289 8.87668 15.2017 8.6778 15.3418 8.54335C15.4762 8.4145 15.6723 8.35007 15.9272 8.35007ZM14.3082 9.9187C14.5603 9.9187 14.7563 9.98313 14.8936 10.1148C15.0365 10.2492 15.1093 10.4481 15.1093 10.7086C15.1093 10.9663 15.0365 11.1652 14.8936 11.2997C14.7563 11.4285 14.5603 11.4929 14.3082 11.4929C14.0561 11.4929 13.86 11.4285 13.7227 11.2997C13.5827 11.1652 13.507 10.9691 13.507 10.7086C13.507 10.4481 13.5799 10.2492 13.7227 10.1148C13.86 9.98313 14.0561 9.9187 14.3082 9.9187ZM16.5126 11.6806C16.3754 11.5518 16.1793 11.4873 15.9272 11.4873C15.6723 11.4873 15.4762 11.5518 15.3418 11.6806C15.2017 11.8151 15.1289 12.0139 15.1289 12.2744C15.1289 12.5349 15.1989 12.731 15.3418 12.8655C15.479 12.9943 15.6751 13.0588 15.9272 13.0588C16.1793 13.0588 16.3754 12.9943 16.5126 12.8655C16.6555 12.731 16.7283 12.5321 16.7283 12.2744C16.7283 12.0139 16.6555 11.8151 16.5126 11.6806ZM17.5435 9.9187C17.7956 9.9187 17.9916 9.98313 18.1289 10.1148C18.2717 10.2492 18.3446 10.4481 18.3446 10.7086C18.3446 10.9663 18.2717 11.1652 18.1289 11.2997C17.9916 11.4285 17.7956 11.4929 17.5435 11.4929C17.2886 11.4929 17.0953 11.4285 16.958 11.2997C16.818 11.1652 16.7451 10.9691 16.7451 10.7086C16.7451 10.4481 16.818 10.2492 16.958 10.1148C17.0953 9.98313 17.2914 9.9187 17.5435 9.9187ZM9.98323 9.83186C9.79836 9.65539 9.52385 9.56856 9.16531 9.56856C9.14673 9.56856 9.13072 9.56898 9.11743 9.56934C9.09663 9.56989 9.0825 9.57027 9.07567 9.56856C9.08127 9.53214 9.08407 9.47892 9.08407 9.46212C9.08407 9.09797 8.98323 8.81786 8.79276 8.63579C8.60788 8.45932 8.33337 8.36968 7.97483 8.36968C7.61629 8.36968 7.34178 8.46212 7.1597 8.63579C6.96362 8.81786 6.86839 9.09517 6.86839 9.46212C6.86839 9.52094 6.87399 9.57136 6.87959 9.62178H6.85998C6.82917 9.61618 6.74514 9.61058 6.71432 9.61058C6.35578 9.61058 6.08127 9.70301 5.8992 9.87668C5.70872 10.056 5.61068 10.3333 5.61068 10.7002C5.61068 11.0672 5.70872 11.3473 5.8964 11.5237C6.08127 11.7002 6.35578 11.7898 6.71432 11.7898C6.80041 11.7898 6.83386 11.7876 6.87052 11.7851L6.88239 11.7842C6.87679 11.8207 6.86558 11.9075 6.86558 11.9411C6.86558 12.3081 6.96082 12.5854 7.1513 12.7618C7.33337 12.9411 7.61068 13.0279 7.96923 13.0279C8.32497 13.0279 8.59948 12.9411 8.78715 12.7646C8.98043 12.5826 9.07847 12.3081 9.07847 11.9439C9.07847 11.8935 9.07007 11.8291 9.05606 11.7674L9.05326 11.745H9.16531C9.52105 11.745 9.79836 11.6554 9.98323 11.4789C10.1765 11.2969 10.2745 11.0223 10.2745 10.6582C10.2745 10.294 10.1765 10.0195 9.98323 9.83186Z" fill="#313235"/>
</svg>
