<svg width="24" height="24" viewBox="0 0 24 24" fill="none" xmlns="http://www.w3.org/2000/svg">
<path fill-rule="evenodd" clip-rule="evenodd" d="M23 12.0297C23 1.91393 14.617 1.0626 12.4602 1.01252C12.2035 1.00313 11.9061 1 11.6181 1H11.4178C9.21087 1.01878 1 1.77621 1 11.964C1 22.1643 9.28913 22.9624 11.496 22.9969C11.5519 22.9969 11.6085 22.9976 11.6655 22.9984L11.6658 22.9984H11.6659H11.6659C11.7238 22.9992 11.7821 23 11.8404 23C12.072 23 12.3036 22.9969 12.504 22.9937C14.6013 22.9531 23 22.1674 23 12.0297ZM21.6258 12.0266C21.6258 20.5274 15.2305 21.5634 12.4789 21.6135C12.2849 21.6166 12.0626 21.6197 11.8341 21.6197L11.5117 21.6166C8.76323 21.579 2.37109 20.5587 2.37109 11.9609C2.37109 3.38185 8.70376 2.39906 11.4271 2.37402H11.6181C11.8936 2.37402 12.1784 2.37715 12.4257 2.38341C15.1929 2.44914 21.6258 3.52269 21.6258 12.0266ZM11.9969 15.9045C11.6181 15.9045 11.3082 15.5978 11.3082 15.216V5.71987C11.3082 5.34116 11.615 5.0313 11.9969 5.0313C12.3788 5.0313 12.6855 5.33803 12.6855 5.71987V15.216C12.6824 15.5947 12.3756 15.9045 11.9969 15.9045ZM12.7826 17.6228C12.7795 17.1909 12.4289 16.8404 11.9969 16.8404C11.5649 16.8404 11.2143 17.1909 11.2143 17.6228C11.2143 18.0579 11.5649 18.4085 11.9969 18.4085H12C12.432 18.4053 12.7826 18.0548 12.7826 17.6228Z" fill="#313235"/>
</svg>
