<svg width="24" height="24" xmlns="http://www.w3.org/2000/svg"><path d="M17.481 11.28a.689.689 0 0 1 0 1.377h-4.799v4.809a.689.689 0 0 1-1.377 0v-4.812h-4.79a.689.689 0 0 1 0-1.377h4.79V6.534a.689.689 0 0 1 1.377 0v4.746h4.8Zm-5.005 10.34c2.751-.05 9.147-1.087 9.147-9.592S15.19 2.45 12.426 2.384a33.14 33.14 0 0 0-.79-.01h-.206C8.707 2.4 2.377 3.38 2.377 11.966c0 8.599 6.392 9.62 9.14 9.657.32.003.64.003.959-.003Zm-.019-20.61C14.617 1.062 23 1.913 23 12.027c0 10.14-8.399 10.925-10.496 10.966-.197.003-.423.006-.651.006-.12 0-.238 0-.357-.003C9.286 22.966 1 22.167 1 11.966 1 1.776 9.208 1.019 11.418 1h.219c.282 0 .573.003.82.01Z" fill="#313235" fill-rule="nonzero"/></svg>