<svg width="24" height="24" xmlns="http://www.w3.org/2000/svg"><path d="M12 20.479c5.731 0 8.639-2.905 8.639-8.633 0-5.734-2.905-8.639-8.639-8.639-5.728 0-8.633 2.905-8.633 8.639 0 5.728 2.905 8.633 8.633 8.633ZM12 2c6.44 0 9.846 3.403 9.846 9.846 0 6.437-3.403 9.84-9.846 9.84-6.437 0-9.84-3.403-9.84-9.84C2.16 5.403 5.563 2 12 2Zm3.883 13.857a.6.6 0 0 1 .8.283c0 .003.004.003.004.006.142.3.014.66-.289.804h-.003c-.862.406-1.91.61-3.117.61-3.135 0-5.13-1.398-5.78-3.98h-1.12a.604.604 0 1 1 0-1.21h.928a10.058 10.058 0 0 1-.04-.821c0-.123.009-.24.014-.361h-.902a.602.602 0 0 1 0-1.204h1.028c.522-2.88 2.558-4.446 5.874-4.446 1.19 0 2.23.199 3.084.596a.603.603 0 1 1-.507 1.096c-.694-.322-1.563-.485-2.577-.485-2.65 0-4.168 1.076-4.633 3.238h3.664a.601.601 0 1 1 0 1.205h-3.81c-.005.123-.022.232-.022.361 0 .294.028.557.054.82h3.784a.604.604 0 1 1 0 1.21H8.754c.577 1.858 2.067 2.774 4.526 2.774 1.028.003 1.902-.165 2.603-.496Z" fill="#313235" fill-rule="nonzero"/></svg>