<svg width="24" height="24" xmlns="http://www.w3.org/2000/svg"><path d="M20.99 14.797a.845.845 0 0 1 0 1.69h-4.507v4.509a.845.845 0 0 1-1.689 0V15.64c0-.468.378-.843.843-.843h5.353Zm-12.644 0c.465 0 .843.378.843.843v5.353a.845.845 0 0 1-1.686 0v-4.51h-4.51a.84.84 0 0 1-.812-.874.846.846 0 0 1 .812-.812h5.353Zm0-12.647c.465 0 .843.378.843.843v5.353a.844.844 0 0 1-.843.843H2.993a.845.845 0 0 1 0-1.689H7.5V2.993c0-.465.378-.843.846-.843Zm7.294 7.04a.844.844 0 0 1-.843-.844V2.993a.845.845 0 0 1 1.686 0V7.5h4.51a.845.845 0 0 1 0 1.69H15.64Z" fill="#313235" fill-rule="nonzero"/></svg>