<svg width="24" height="24" xmlns="http://www.w3.org/2000/svg"><path d="M12.57 21.626c2.723-.025 9.056-1.008 9.056-9.592 0-8.599-6.392-9.62-9.144-9.657-.32-.003-.642-.003-.96.003-2.753.05-9.148 1.087-9.148 9.589 0 8.505 6.433 9.579 9.2 9.644.244.007.526.01.799.01 0 .003.197.003.197.003ZM12.504 1C14.714 1.031 23 1.833 23 12.034 23 22.224 14.79 22.981 12.582 23h-.21c-.281 0-.575-.003-.829-.013C9.386 22.937 1 22.086 1 11.97 1 1.833 9.396 1.044 11.496 1.006 11.831 1 12.169 1 12.504 1Zm-.498 8.264c.379 0 .689.307.689.689v7.15a.689.689 0 0 1-1.377 0v-7.15a.69.69 0 0 1 .688-.689Zm.007-2.373a.73.73 0 0 1 .757.708.73.73 0 0 1-.707.757h-.054a.736.736 0 0 1-.707-.757.74.74 0 0 1 .71-.708Z" fill="#313235" fill-rule="nonzero"/></svg>