<svg width="24" height="24" xmlns="http://www.w3.org/2000/svg"><path d="M5.998 12.586c.459 0 .602-.137.602-.585 0-.451-.14-.588-.602-.588-.463 0-.603.137-.603.588 0 .445.143.585.603.585Zm0-2.372c1.142 0 1.826.666 1.826 1.784 0 1.1-.7 1.784-1.826 1.784-1.13 0-1.83-.683-1.83-1.784.003-1.118.687-1.784 1.83-1.784Zm13.347 2.678.997-.928-1.283-1.168H9.61a.616.616 0 0 1-.561-.355c-.412-.908-1.291-1.348-2.684-1.348-2.028 0-2.974.922-2.974 2.905 0 1.98.946 2.905 2.974 2.905 1.317 0 2.174-.367 2.547-1.093.039-.075.129-.3.129-.302a.611.611 0 0 1 .568-.378h4.504l.92-1.292a.622.622 0 0 1 .988-.025l.683.866.521-.818a.623.623 0 0 1 .952-.106l1.169 1.137Zm2.308-1.37a.6.6 0 0 1 .196.434c0 .165-.07.322-.19.437l-1.902 1.768a.625.625 0 0 1-.858-.012l-1.039-1.014-.58.908a.62.62 0 0 1-.49.283.589.589 0 0 1-.515-.233l-.712-.899-.624.877a.615.615 0 0 1-.504.258h-4.42c-.003.008-.01.014-.012.022-.412.798-1.375 1.75-3.641 1.75-2.709 0-4.202-1.456-4.202-4.1C2.16 9.357 3.653 7.9 6.362 7.9c2.075 0 3.106.86 3.616 1.703h9.32a.63.63 0 0 1 .417.16l1.938 1.759Z" fill="#313235" fill-rule="nonzero"/></svg>