<svg width="24" height="24" xmlns="http://www.w3.org/2000/svg"><path d="M16.563 5.622a.98.98 0 0 1 .392.79v11.202a.98.98 0 0 1-.39.787.904.904 0 0 1-.804.143L10.304 16.9l-.198.632a.801.801 0 0 1-.403.482.782.782 0 0 1-.625.056l-2.269-.711a.822.822 0 0 1-.538-1.028l.185-.59-3.21-.966a.535.535 0 0 1-1.056-.123V9.37a.535.535 0 0 1 1.056-.122L15.76 5.479a.894.894 0 0 1 .802.143Zm2.938 9.854 1.507 1.507a.548.548 0 0 1-.773.773l-1.507-1.507a.548.548 0 0 1 .773-.773ZM15.885 6.56 3.294 10.35v3.322l12.59 3.793V6.56Zm-8.418 9.617-.07.224 1.748.549.07-.224-1.748-.55Zm13.869-4.944a.545.545 0 1 1 0 1.092H19.15a.545.545 0 1 1 0-1.092h2.185Zm-.32-5.496a.548.548 0 0 1 0 .773L19.47 8.056a.545.545 0 0 1-.773 0 .548.548 0 0 1 0-.773l1.546-1.546a.548.548 0 0 1 .773 0Z" fill="#313235" fill-rule="nonzero"/></svg>