<svg width="24" height="24" viewBox="0 0 24 24" xmlns="http://www.w3.org/2000/svg"><path d="M17.982 12.714h-5.236v5.248a.751.751 0 01-1.503 0v-5.248H6.018a.751.751 0 110-1.503h5.225V6.038a.751.751 0 011.503 0v5.177h5.236c.413 0 .751.334.751.75a.753.753 0 01-.75.749m-5.48-12.7C12.224.007 11.897 0 11.583 0h-.216C8.956.02 0 .847 0 11.962c0 11.13 9.04 12 11.452 12.035.126.003.26.003.39.003.249 0 .494-.003.706-.007C14.84 23.953 24 23.092 24 12.034 24.003.997 14.854.068 12.504.014" fill="#313235" fill-rule="nonzero"/></svg>