<svg width="24" height="24" xmlns="http://www.w3.org/2000/svg"><path d="M18.719 20.567v-1.874a.324.324 0 0 0-.174-.053H5.525a.344.344 0 0 0-.173.048v1.888c.053.03.112.045.173.045h13.02c.062 0 .123-.02.174-.054Zm-.174-3.14c.74 0 1.384.546 1.384 1.171v2.07c0 .625-.647 1.171-1.384 1.171H5.525c-.75 0-1.383-.535-1.383-1.17v-2.07c0-.634.633-1.169 1.383-1.169h.152v-5.728c0-4.118 2.257-6.387 6.355-6.387 4.101 0 6.359 2.27 6.359 6.387v5.725h.154Zm-4.19-4.938h-1.477a.527.527 0 0 0-.524.527v1.481h-.691v-1.481a.527.527 0 0 0-.524-.527H9.663v-.695h1.476a.524.524 0 0 0 .524-.526V9.786h.691v1.482c0 .29.236.526.524.526h1.476v.695Zm.218-1.748h-1.174V9.565c0-.451-.35-.832-.764-.832H11.38c-.415 0-.768.38-.768.832v1.179h-1.17c-.449 0-.83.353-.83.767v1.264c0 .414.378.767.827.767h1.173v1.177c0 .45.353.832.768.832h1.255c.414 0 .767-.381.767-.832v-1.18h1.17c.45 0 .83-.353.83-.77v-1.263c0-.412-.378-.765-.83-.765Zm-2.538-5.902a.607.607 0 0 1-.605-.608V2.758c0-.336.272-.608.605-.608.333 0 .605.272.605.608V4.23a.608.608 0 0 1-.605.608Zm-7.21 4.723a.609.609 0 0 1-.605.608H2.755a.608.608 0 0 1 0-1.216h1.468c.333 0 .605.272.602.608Zm16.406-.58c.334 0 .605.272.605.608a.607.607 0 0 1-.605.608h-1.468a.607.607 0 0 1-.605-.608c0-.336.272-.608.605-.608h1.468ZM5.665 5.957 4.63 4.915a.607.607 0 0 1 .852-.863l.002.003L6.52 5.097a.61.61 0 0 1-.429 1.039.62.62 0 0 1-.426-.18Zm11.524.056a.607.607 0 0 1-.426-1.037L17.8 3.934a.602.602 0 0 1 .851-.002l.003.002a.609.609 0 0 1 0 .857l-1.036 1.042a.607.607 0 0 1-.429.18Z" fill="#313235" fill-rule="nonzero"/></svg>