<svg width="24" height="24" xmlns="http://www.w3.org/2000/svg"><path d="M18.728 18.732c1.921-1.922 1.986-3.784.196-5.695a1.097 1.097 0 0 0-.101-.1l-.093-.09-.627-.625-5.893 5.89.165.163c.115.132.201.21.288.295l.177.17c1.98 1.975 3.907 1.975 5.888-.008ZM3.75 8.247c.017.947.521 1.922 1.496 2.897l.165.17c.084.087.165.174.255.253l.053.053 5.897-5.894-.577-.577c-.956-.924-1.897-1.386-2.843-1.386-.978 0-1.956.496-2.95 1.49C4.235 6.261 3.733 7.27 3.75 8.247Zm16.367 3.723c2.373 2.532 2.291 5.345-.258 7.89-1.313 1.317-2.697 1.976-4.08 1.976-1.379 0-2.76-.656-4.07-1.97l-.15-.142c-.125-.12-.249-.241-.355-.365l-.656-.655c-.01-.011-.025-.014-.036-.025l-5.364-5.362c-.009-.008-.011-.02-.02-.028l-.552-.551a4.844 4.844 0 0 1-.327-.323l-.138-.142c-1.274-1.275-1.935-2.62-1.96-3.995-.026-1.428.633-2.829 1.963-4.157C6.7 1.533 9.56 1.491 12.16 4.01l1.135 1.135c.005.005.014.005.02.011l5.363 5.361c.003.003.006.012.011.017l1.241 1.238c.065.067.132.13.188.2Zm-8.605-.484a.61.61 0 1 0 .864.862.61.61 0 0 0-.864-.862Zm-.54 2.784a.61.61 0 1 0 .863.863.61.61 0 0 0-.864-.863Zm4.254-3.392a.61.61 0 1 0-.862.863.61.61 0 0 0 .862-.863Zm-6.442 1.185a.61.61 0 1 0 .863.862.61.61 0 0 0-.863-.862Zm3.392-3.395a.61.61 0 1 0 .863.862.61.61 0 0 0-.863-.862Z" fill="#313235" fill-rule="nonzero"/></svg>