<svg width="24" height="24" xmlns="http://www.w3.org/2000/svg"><path d="M13.818 16.656v-1.42c3.11-.219 6.104-1 8.028-2.087v7.227c0 .81-.652 1.467-1.456 1.467H3.617a1.463 1.463 0 0 1-1.457-1.467v-7.418c1.916 1.171 4.913 2.014 8.025 2.26v1.438c0 .347.157.636.434.818.205.131.46.199.787.199h1.2c.319 0 .582-.068.778-.2a.94.94 0 0 0 .434-.817Zm1.883-9.48v-.35c0-1.89-1.62-3.428-3.605-3.428h-.185c-1.99 0-3.605 1.538-3.605 3.429v.35H15.7Zm4.689 0c.804 0 1.456.66 1.456 1.469v3.044c-1.91 1.384-5.955 2.376-9.767 2.376-3.885 0-8.02-1.09-9.919-2.6v-2.82c0-.81.653-1.468 1.46-1.468h3.456v-.35c0-2.575 2.17-4.667 4.837-4.667h.185c2.667 0 4.838 2.095 4.838 4.667v.35h3.454Zm-8.975 9.258v-1.131h1.174v1.131h-1.174Z" fill="#313235" fill-rule="nonzero"/></svg>