<svg width="24" height="24" viewBox="0 0 24 24" xmlns="http://www.w3.org/2000/svg"><path d="M13.86 4.34c-.08-.25-.317-1.004-1.866-1.004-1.673 0-1.925.838-1.958 1.57l-.006.346c.011.267.023.653 1.964.653 1.94 0 1.952-.384 1.96-.61v-.323a2.405 2.405 0 00-.095-.633zm3.912-.749c.855 0 1.603.611 1.603 1.306V20.54c0 .709-.734 1.305-1.603 1.305H6.212c-.868 0-1.602-.6-1.602-1.305V4.894c0-.695.75-1.305 1.602-1.305h2.955c.471-.914 1.443-1.429 2.827-1.429 1.686 0 2.468.709 2.829 1.431h2.95zm-6.476 1.7a.55.55 0 01-.552-.548.55.55 0 01.552-.55h1.392c.306 0 .555.247.555.55 0 .302-.25.549-.555.549h-1.392z" fill="#313235" fill-rule="nonzero"/></svg>