<svg width="24" height="24" xmlns="http://www.w3.org/2000/svg"><path d="M17.958 6.263c.118 0 .216.098.216.14l-.266 2.264h-1.606l-2.529 10.515a.62.62 0 0 1-.608.482c-.05 0-.092-.008-.143-.017a.621.621 0 0 1-.465-.745l2.457-10.235H6.51l-.258-2.188c0-.115.093-.216.216-.216h9.129l-.583 2.404h1.288l.575-2.404h1.081Zm-6.591 11.222c-.165.165-.325.224-.465.224a.635.635 0 0 1-.434-.2l-.042-.041c-.093-.093-.41-.482.025-.91.165-.166.325-.216.457-.216.224 0 .392.14.448.19l.042.042c.095.09.412.47-.031.91Zm-2.022-3.589c-.393 0-.692-.249-.79-.347-.026-.025-.06-.059-.076-.084-.157-.165-.731-.863.05-1.633.292-.3.583-.398.832-.398.4 0 .7.258.799.348.025.025.05.05.075.084.166.165.723.846-.05 1.624-.305.306-.597.406-.84.406Zm11.742-9.77L17.409 2.08a.611.611 0 0 0-.55-.026.6.6 0 0 0-.358.423l-.607 2.544H6.465C5.658 5.02 5 5.675 5 6.552l.25 2.112.148 1.244L6.63 20.224c0 .804.656 1.46 1.465 1.46h8.23c.807 0 1.456-.656 1.456-1.384l1.233-10.392.148-1.244.258-2.188c0-.804-.658-1.46-1.465-1.46h-.781l.347-1.45 2.955 1.641c.3.174.675.068.849-.24a.615.615 0 0 0-.238-.84Z" fill="#313235" fill-rule="nonzero"/></svg>