<svg width="24" height="24" xmlns="http://www.w3.org/2000/svg"><path d="M11.846 2C5.403 2 2 5.403 2 11.846c0 6.437 3.403 9.84 9.846 9.84 6.437 0 9.84-3.403 9.84-9.84 0-6.443-3.403-9.846-9.84-9.846ZM7.504 13.44l3.168-1.885L7.504 9.65v3.79Zm9.093-1.891-3.168-1.905v3.79l3.168-1.885ZM6.599 8.053a.603.603 0 0 1 .611.009l4.952 2.974c.026.014.034.04.056.056V8.574a.603.603 0 0 1 .916-.518l4.953 2.978a.604.604 0 0 1 0 1.036l-4.953 2.947a.61.61 0 0 1-.61.005.604.604 0 0 1-.306-.526v-2.482c-.022.017-.033.045-.058.059l-4.953 2.952a.61.61 0 0 1-.61.006.61.61 0 0 1-.306-.527V8.58a.618.618 0 0 1 .308-.527Z" fill="#313235" fill-rule="nonzero"/></svg>