<svg width="24" height="24" xmlns="http://www.w3.org/2000/svg"><path d="m17.6 7.655-4.064-3.997v1.773c0 .659.213 1.216.617 1.611.406.4.983.61 1.666.61h1.782v.003Zm1.43-.28c.165.163.26.39.26.622v12.308a1.4 1.4 0 0 1-1.384 1.381H5.91c-.737 0-1.384-.644-1.384-1.38V3.38C4.525 2.658 5.183 2 5.91 2h7.302c.227 0 .44.087.603.246l5.215 5.13ZM7.645 13.317a.588.588 0 0 0 .84 0l.779-.793.778.793a.592.592 0 0 0 .84 0 .61.61 0 0 0 0-.855l-.778-.793.779-.792a.61.61 0 0 0 0-.855.588.588 0 0 0-.84 0l-.78.793-.778-.793a.588.588 0 0 0-.84 0 .61.61 0 0 0 0 .855l.778.792-.778.793a.61.61 0 0 0 0 .855Zm8.655-3.295a.588.588 0 0 0-.84 0l-.779.793-.779-.793a.588.588 0 0 0-.84 0 .61.61 0 0 0 0 .855l.779.792-.779.793a.61.61 0 0 0 0 .855.592.592 0 0 0 .84 0l.779-.793.779.793a.592.592 0 0 0 .84 0 .61.61 0 0 0 0-.855l-.779-.793.78-.792a.616.616 0 0 0 0-.855Zm-2.042 4.866h-.129c-.857.006-1.72.569-1.72 1.83 0 .178 0 .601-.549.604h-.087c-.563-.014-.563-.434-.563-.613 0-1.23-.865-1.801-1.725-1.821h-.129c-.857.006-1.72.569-1.72 1.815a.6.6 0 0 0 .594.605.6.6 0 0 0 .594-.605c0-.18 0-.602.549-.605h.087c.563.014.563.434.563.613 0 1.23.865 1.802 1.725 1.821h.13c.856-.005 1.719-.568 1.719-1.829 0-.18 0-.602.546-.605h.087c.563.014.563.434.563.613a.6.6 0 0 0 .594.605.6.6 0 0 0 .594-.605c.003-1.232-.866-1.803-1.723-1.823Z" fill="#313235" fill-rule="nonzero"/></svg>