<svg width="24" height="24" xmlns="http://www.w3.org/2000/svg"><path d="M15.51 2c.23 0 .445.087.61.244l5.3 5.131c.112.107.177.241.219.384.03.073.047.154.047.238v12.305c0 .751-.644 1.384-1.409 1.384H8.098c-.75 0-1.409-.647-1.409-1.384l.034-2.77H4.42A2.427 2.427 0 0 1 2 15.106v-4.092a2.426 2.426 0 0 1 2.42-2.426h2.266V3.384C6.686 2.658 7.36 2 8.096 2h7.414Zm-.597 7.804H4.42c-.667 0-1.207.54-1.207 1.21v4.092c0 .667.54 1.21 1.207 1.21h10.493a1.21 1.21 0 0 0 1.207-1.21v-4.092c0-.667-.54-1.21-1.207-1.21Zm-10.39 1.748v1.26h1.09v-1.26h.706v3.095h-.706v-1.302h-1.09v1.302h-.705v-3.095h.706Zm5.777 0 .977 1.728 1.009-1.728h.543v3.095h-.647v-1.781l-.641 1.075h-.544l-.66-1.095v1.801h-.595v-3.095h.558Zm3.904 0v2.582h1.37v.513H13.5v-3.095h.705Zm-4.829 0-.053.51h-.935v2.582H7.68v-2.582H6.72v-.51h2.655Zm6.47-7.883v1.765c0 .658.217 1.213.626 1.608.414.4.997.61 1.689.61h1.804L15.846 3.67Z" fill="#313235" fill-rule="nonzero"/></svg>