<svg width="24" height="24" xmlns="http://www.w3.org/2000/svg"><path d="M7.854 21.686v-2.05h7.95v2.05h-7.95Zm0-3.131V16.5h7.947v2.054H7.854Zm0-3.258v-2.053h7.947v2.053H7.854Zm13.41-4.734c.408.4.532.97.324 1.479-.232.566-.81.933-1.47.933h-.745v7.274c0 .793-.704 1.434-1.57 1.434h-.77v-9.03a.616.616 0 0 0-.616-.617H7.238a.616.616 0 0 0-.616.617v9.033h-.857c-.866 0-1.569-.644-1.569-1.434v-7.274h-.625c-.66 0-1.238-.367-1.47-.933-.21-.513-.087-1.081.322-1.482l8.274-8.106c.62-.608 1.673-.608 2.292 0l8.274 8.106Z" fill="#313235" fill-rule="nonzero"/></svg>