<svg width="24" height="24" xmlns="http://www.w3.org/2000/svg"><path d="M7.866 17.092h4.156v4.594c-1.705-.412-3.23-2.173-4.156-4.594ZM5.86 15.703H2.535C2.185 14.571 2 13.291 2 11.846c0-1.188.123-2.266.359-3.235H5.71a16.768 16.768 0 0 0 .148 7.092Zm.395 1.39c.597 1.722 1.462 3.19 2.52 4.243-2.713-.658-4.62-2.073-5.708-4.244h3.188ZM7.627 7.22c.894-2.74 2.538-4.778 4.395-5.221v5.221H7.627Zm11.6 10.936c-.639 0-1.157.456-1.157 1.017 0 .565.515 1.025 1.157 1.025.63 0 1.146-.457 1.146-1.025 0-.56-.516-1.02-1.146-1.017Zm0-14.132c-.639 0-1.157.457-1.157 1.023 0 .56.515 1.016 1.157 1.016.63 0 1.146-.456 1.146-1.016 0-.566-.516-1.023-1.146-1.023Zm0 7.093c-.639 0-1.157.459-1.157 1.016 0 .566.515 1.023 1.157 1.023.63 0 1.146-.457 1.146-1.023 0-.557-.516-1.016-1.146-1.016Zm-7.205 1.6v1.007h3.149c.358 0 .647.255.655.575l.045 4.291h.98c.3-.924 1.236-1.6 2.373-1.6 1.356 0 2.46.978 2.46 2.183 0 1.201-1.104 2.187-2.46 2.187-1.137 0-2.076-.683-2.372-1.605h-1.628c-.358 0-.655-.257-.655-.574l-.045-4.291H12.02v.815H7.409a15.368 15.368 0 0 1-.499-3.88c0-1.117.12-2.196.35-3.213h4.762v.723h2.505l.044-4.291c0-.32.297-.577.656-.577h1.627c.3-.922 1.236-1.605 2.373-1.605 1.356 0 2.46.977 2.46 2.187 0 1.205-1.104 2.182-2.46 2.182-1.137 0-2.076-.683-2.373-1.599h-.98l-.045 4.286c-.008.325-.297.582-.655.582h-3.152v1.05h4.832c.297-.915 1.233-1.599 2.373-1.599 1.356 0 2.46.978 2.46 2.182 0 1.21-1.104 2.188-2.46 2.188-1.137 0-2.076-.683-2.373-1.605h-4.832ZM6.053 7.22H2.796c1.016-2.52 3.014-4.151 5.971-4.87C7.585 3.534 6.63 5.23 6.053 7.22Z" fill="#313235" fill-rule="nonzero"/></svg>