<svg width="24" height="24" viewBox="0 0 24 24" xmlns="http://www.w3.org/2000/svg"><path d="M18.845 7.336l-5.463-5.182A.56.56 0 0013 2H5.618c-.569 0-1.107.538-1.107 1.106v17.48c0 .588.518 1.106 1.107 1.106h12.297c.588 0 1.106-.518 1.106-1.107V7.742a.56.56 0 00-.176-.406zM15.31 18.681H8.209a.562.562 0 01-.56-.56c0-.309.252-.56.56-.56h7.1c.309 0 .56.251.56.56 0 .308-.251.56-.56.56zm0-3.006H8.209a.562.562 0 01-.56-.56c0-.308.252-.56.56-.56h7.1c.309 0 .56.252.56.56 0 .308-.251.56-.56.56zm0-3.003H8.209a.562.562 0 01-.56-.56c0-.308.252-.56.56-.56h7.1c.309 0 .56.252.56.56 0 .308-.251.56-.56.56zm.14-4.944c-.653 0-1.2-.204-1.583-.588-.384-.384-.588-.933-.588-1.583V3.6l4.353 4.13H15.45z" fill="#313235" fill-rule="nonzero"/></svg>