<svg width="24" height="24" xmlns="http://www.w3.org/2000/svg"><path d="M16.58 5.614c.251.182.4.477.4.787v11.185c0 .311-.149.605-.4.787a.94.94 0 0 1-.807.135l-5.462-1.642-.194.62a.801.801 0 0 1-.403.481.782.782 0 0 1-.625.056l-2.269-.711a.822.822 0 0 1-.538-1.028l.18-.574-3.18-.956c0 .286-.243.516-.546.516-.302 0-.546-.23-.546-.516v-5.51c0-.282.244-.515.546-.515.299 0 .54.224.546.504l12.49-3.753a.92.92 0 0 1 .807.134zm2.932 9.815 1.507 1.508a.548.548 0 0 1-.773.773l-1.507-1.507a.548.548 0 0 1 .773-.774zm-12.033.7-.07.225 1.747.549.07-.224-1.747-.55zm13.868-4.943a.545.545 0 1 1 0 1.092h-2.185a.545.545 0 1 1 0-1.092h2.185zm-.32-5.496a.548.548 0 0 1 0 .773L19.482 8.01a.545.545 0 0 1-.773 0 .548.548 0 0 1 0-.773l1.546-1.546a.548.548 0 0 1 .774 0z" fill="#313235" fill-rule="nonzero"/></svg>