<svg width="24" height="24" xmlns="http://www.w3.org/2000/svg"><path d="M11.993 2.16c2.79 0 4.325 1.555 4.325 4.375v6.79c0 2.821-1.535 4.376-4.328 4.376-2.79 0-4.325-1.555-4.325-4.376v-6.79c0-2.82 1.538-4.375 4.328-4.375Zm.022 17.754a.96.96 0 0 1 .955.966.962.962 0 0 1-.955.966.962.962 0 0 1-.955-.966.96.96 0 0 1 .955-.966Zm3.328-.967a.96.96 0 0 1 .955.967.962.962 0 0 1-.955.966.96.96 0 0 1-.955-.966.96.96 0 0 1 .955-.967Zm2.672-2.302a.96.96 0 0 1 .955.966.962.962 0 0 1-.955.966.962.962 0 0 1-.955-.966.96.96 0 0 1 .955-.966Zm.955-3.289a.82.82 0 0 1 .815.824.82.82 0 0 1-.815.826.82.82 0 0 1-.815-.826.818.818 0 0 1 .815-.824ZM8.643 18.947a.96.96 0 0 1 .955.967.962.962 0 0 1-.955.966.96.96 0 0 1-.956-.966.957.957 0 0 1 .956-.967ZM5.97 16.645a.96.96 0 0 1 .956.966.962.962 0 0 1-.956.966.962.962 0 0 1-.955-.966.96.96 0 0 1 .955-.966Zm-.14-2.465a.82.82 0 0 1-.815.826.82.82 0 0 1-.815-.826.818.818 0 0 1 .815-.824c.454.003.818.37.815.824Z" fill="#313235" fill-rule="nonzero"/></svg>