<svg width="24" height="24" xmlns="http://www.w3.org/2000/svg"><path d="M12.818 18.283c.308 0 .56.252.56.56 0 .309-.252.56-.56.56H7.902a.562.562 0 0 1-.56-.56c0-.308.252-.56.56-.56ZM15.544 5.16c1.1 0 1.94.325 2.504.97.521.599.787 1.467.787 2.582v.005h.916c1.37 0 2.095.726 2.095 2.096V17.3c0 1.37-.725 2.095-2.095 2.095h-2.938c-1.37 0-2.096-.725-2.096-2.095v-.1H5.451c-1.1 0-1.94-.326-2.504-.97-.524-.6-.787-1.468-.787-2.583V8.71c0-1.115.263-1.983.787-2.58.563-.641 1.406-.969 2.504-.969Zm4.207 4.678H16.81c-.728 0-.975.246-.975.975v6.49c0 .378.07.639.207.773.138.137.395.204.77.204h2.936c.376 0 .633-.07.77-.204.138-.137.208-.398.208-.773v-6.49c0-.748-.227-.975-.975-.975Zm-1.47 6.26c.453 0 .747.294.747.751 0 .28-.109.448-.199.54-.092.096-.263.208-.549.208-.285 0-.456-.112-.549-.207-.092-.093-.198-.26-.198-.54 0-.458.294-.752.747-.752Z" fill="#313235" fill-rule="nonzero"/></svg>