<svg width="24" height="24" xmlns="http://www.w3.org/2000/svg"><path d="M21.248 19.132H2.744a.562.562 0 0 1-.56-.56c0-.308.252-.56.56-.56h18.504c.308 0 .56.252.56.56 0 .308-.252.56-.56.56Zm-.193-13.26c-.563-.644-1.404-.972-2.504-.972H5.44c-1.098 0-1.94.328-2.504.972-.52.6-.787 1.468-.787 2.583v4.938c0 1.115.266 1.983.787 2.583.563.644 1.403.972 2.504.972h13.11c1.098 0 1.94-.328 2.504-.97.524-.599.787-1.467.787-2.582V8.455c0-1.115-.266-1.984-.787-2.583Zm-10.709 6.18c-.028.128-.053.319-.076.503-.028.205-.053.415-.09.577-.089.412-.369.648-.753.648-.07 0-.137-.009-.207-.023-.146-.028-.42-.106-.877-.232l-.235-.065a.422.422 0 0 1 .224-.812l.235.064.034.009c-.252-.521-.381-1.154-.381-1.888 0-2.342 1.32-3.63 3.714-3.63a5.33 5.33 0 0 1 1.247.137.423.423 0 0 1 .297.515.422.422 0 0 1-.493.303 4.57 4.57 0 0 0-1.05-.112c-1.933 0-2.875.913-2.875 2.79 0 .672.124 1.224.367 1.652l.006-.047c.025-.202.053-.41.09-.575a.423.423 0 0 1 .495-.327.423.423 0 0 1 .328.495c.003.012.003.012 0 .017Zm5.815-3.186a.422.422 0 0 1-.518.294l-.235-.064-.037-.011c.252.52.381 1.154.381 1.888 0 2.342-1.32 3.63-3.714 3.63a5.385 5.385 0 0 1-1.235-.134.42.42 0 1 1 .196-.818c.341.078.692.115 1.039.112 1.933 0 2.874-.913 2.874-2.79 0-.672-.123-1.224-.367-1.653l-.006.048a6.737 6.737 0 0 1-.09.574.423.423 0 0 1-.495.328.423.423 0 0 1-.328-.496c0-.003 0-.006.003-.006.028-.129.053-.319.076-.504.028-.204.053-.414.09-.577.103-.484.473-.725.957-.627.146.028.42.106.88.232l.235.065a.413.413 0 0 1 .294.51Z" fill="#313235" fill-rule="nonzero"/></svg>