<svg width="24" height="24" xmlns="http://www.w3.org/2000/svg"><path d="M20.639 14.214V9.663a.58.58 0 0 0-.51-.566h-1.515v5.686h1.482a.56.56 0 0 0 .543-.569Zm-.557-6.35c.952 0 1.745.799 1.764 1.782v4.566c0 .988-.784 1.795-1.75 1.795h-1.51c-.188.964-1.023 1.695-2.02 1.695h-9.07c-3.448-.126-5.336-2.168-5.336-5.748 0-3.588 1.888-5.625 5.317-5.734h9.075c.983 0 1.807.709 2.011 1.65h.678v-.003h.84v-.003ZM6.519 11.136c-.558 0-.92.294-.92.927 0 .305.085.53.233.684.163.165.398.246.687.246.288 0 .526-.081.686-.246.148-.154.232-.379.232-.684.003-.633-.361-.927-.918-.927Z" fill="#313235" fill-rule="nonzero"/></svg>