<svg width="24" height="24" viewBox="0 0 24 24" xmlns="http://www.w3.org/2000/svg"><path d="M15.923 7.856a.575.575 0 00-.907-.706l-6.944 8.927a.572.572 0 00.45.927c.171 0 .342-.075.454-.221l6.947-8.927zm-1.608 8.627c1.045 0 1.656-.526 1.656-1.655s-.61-1.656-1.656-1.656c-1.045 0-1.655.527-1.655 1.656s.608 1.655 1.655 1.655zM9.671 7.626c-1.048 0-1.655.53-1.655 1.656s.607 1.655 1.655 1.655c1.045 0 1.655-.53 1.655-1.655 0-1.13-.61-1.656-1.655-1.656zm2.32-5.476c6.218 0 9.845 3.14 9.845 9.846 0 6.706-3.627 9.84-9.846 9.84-6.218 0-9.84-3.134-9.84-9.84 0-6.706 3.622-9.846 9.84-9.846z" fill="#313235" fill-rule="nonzero"/></svg>