<svg width="24" height="24" xmlns="http://www.w3.org/2000/svg"><path d="M13.256 6.905c-.025-2.33-1.518-3.683-1.535-3.694a.603.603 0 0 1-.044-.86.62.62 0 0 1 .868-.045c.078.07 1.908 1.731 1.938 4.569.006.098.104 2.89-1.913 4.672a.616.616 0 0 1-.868-.05.604.604 0 0 1 .045-.855l.005-.006c1.574-1.389 1.504-3.708 1.504-3.73Zm-2.59.026c-.017-1.362-.886-2.174-.894-2.182a.606.606 0 0 1-.05-.855l.005-.005a.62.62 0 0 1 .868-.045c.054.047 1.283 1.162 1.303 3.053.003.059.07 1.927-1.286 3.123a.609.609 0 0 1-.409.154.612.612 0 0 1-.46-.204.603.603 0 0 1 .051-.857c.905-.801.871-2.168.871-2.182ZM7.846 18.53c.11-.11.171-.269.171-.485 0-.448-.263-.658-.67-.658-.405 0-.669.207-.669.658 0 .216.062.376.168.485.118.118.292.174.502.174.207 0 .38-.06.498-.174Zm-2.437 0c.107-.11.169-.269.169-.485 0-.448-.264-.658-.67-.658s-.67.207-.67.658c0 .216.062.376.169.485.117.118.291.174.501.174.21 0 .384-.06.501-.174Zm15.681-3.479c.493.51.745 1.24.745 2.185v1.622c0 .94-.252 1.678-.745 2.185-.515.526-1.277.795-2.269.795H5.164c-.992 0-1.753-.269-2.269-.795-.496-.51-.745-1.247-.745-2.188v-1.622c0-.941.25-1.675.745-2.185.516-.526 1.277-.795 2.269-.795H6.85v-7.33a.61.61 0 0 1 .617-.609c.338 0 .616.272.616.608v7.33h10.745c.986.003 1.75.27 2.263.799Z" fill="#313235" fill-rule="nonzero"/></svg>