<svg width="24" height="24" xmlns="http://www.w3.org/2000/svg"><path d="m19.595 14.445-6.375 1.832a1.25 1.25 0 0 1-1.227.972 1.243 1.243 0 0 1-1.255-1.232c0-.68.563-1.23 1.255-1.23.345 0 .656.135.882.356l6.381-1.835a.602.602 0 0 1 .748.4.59.59 0 0 1-.409.737ZM7.971 10.986a.61.61 0 0 1-.855 0l-.577-.566a.585.585 0 0 1 0-.837.61.61 0 0 1 .855 0l.577.565a.58.58 0 0 1 0 .838ZM5.95 14.93h-.818a.597.597 0 0 1-.602-.591c0-.325.272-.591.602-.591h.818c.333 0 .602.266.602.59a.597.597 0 0 1-.602.592Zm5.426-6.532c0-.328.272-.591.602-.591.333 0 .602.266.602.59V9.2a.597.597 0 0 1-.602.59.597.597 0 0 1-.602-.59v-.801Zm4.605 1.753.577-.566a.61.61 0 0 1 .854 0 .585.585 0 0 1 0 .838l-.577.566a.61.61 0 0 1-.851 0 .583.583 0 0 1-.003-.838ZM11.99 5.333c-6.437 0-9.84 3.34-9.84 9.653 0 1.44.182 2.742.54 3.874.079.246.312.414.578.414H20.71c.23 0 .44-.128.54-.33l.02-.042a.807.807 0 0 0 .037-.087c.35-1.12.53-2.409.53-3.829 0-6.314-3.404-9.653-9.847-9.653Z" fill="#313235" fill-rule="nonzero"/></svg>