<svg width="24" height="24" xmlns="http://www.w3.org/2000/svg"><path d="M2.72 21.849a.56.56 0 0 1-.395-.958l4.633-4.633a.561.561 0 0 1 .793.793l-4.636 4.633a.55.55 0 0 1-.395.165Zm5.037.003a.56.56 0 0 1-.4-.953l2.293-2.35a.562.562 0 0 1 .827.76c-.009.008-.014.016-.023.022L8.16 21.684a.561.561 0 0 1-.403.168ZM2.77 16.866a.56.56 0 0 1-.4-.953l2.293-2.35a.561.561 0 0 1 .801.785l-2.294 2.35a.55.55 0 0 1-.4.168ZM20.46 2.16h-7.586a1.401 1.401 0 0 0-.991 2.392l.697.698-6.221 6.22a1.402 1.402 0 0 0 0 1.981l4.196 4.2a1.402 1.402 0 0 0 1.98 0l6.222-6.225.708.712c.26.263.617.411.99.411.772 0 1.4-.627 1.402-1.4V3.56c0-.774-.624-1.401-1.397-1.401Z" fill="#313235" fill-rule="nonzero"/></svg>