<svg width="24" height="24" xmlns="http://www.w3.org/2000/svg"><path d="M11.587 11.86c-1.558 0-2.77-.409-3.61-1.219-.872-.84-1.315-2.086-1.315-3.705 0-1.62.443-2.869 1.314-3.712C8.816 2.412 10.03 2 11.586 2c1.558 0 2.774.412 3.617 1.224.877.843 1.32 2.093 1.32 3.712 0 1.619-.446 2.865-1.323 3.705-.84.81-2.056 1.219-3.613 1.219Zm8.193 9.832H3.394a.562.562 0 0 1-.56-.56v-1.639c0-1.569.487-2.905 1.411-3.868 1.008-1.05 2.504-1.608 4.33-1.608h6.009c1.826 0 3.328.554 4.336 1.605.93.966 1.42 2.302 1.42 3.871v1.639c0 .308-.252.56-.56.56Z" fill="#313235" fill-rule="nonzero"/></svg>