<svg width="24" height="24" xmlns="http://www.w3.org/2000/svg"><path d="M20.087 10.748a.124.124 0 0 1-.152.09l-.736-.188.426-1.67.736.188a.122.122 0 0 1 .09.148l-.364 1.432zm1.409-2.157a1.344 1.344 0 0 0-.83-.619l-.736-.188.202-.795c.095-.378.039-.77-.16-1.107a1.44 1.44 0 0 0-.894-.67L6.74 2.073a1.459 1.459 0 0 0-1.773 1.051v.006l-1.288 5.07a1.466 1.466 0 0 0 1.056 1.779l5.935 1.51-2.112 5.985h-2.58v-2.535a1.46 1.46 0 0 0-1.459-1.462H3.46c-.804 0-1.459.656-1.459 1.46v5.316c0 .807.655 1.46 1.46 1.46h1.053a1.46 1.46 0 0 0 1.459-1.463V18.7h3.014c.26 0 .493-.165.58-.409l2.294-6.501 5.204 1.325a1.458 1.458 0 0 0 1.773-1.056l.056-.216.737.188a1.357 1.357 0 0 0 1.647-.98l.364-1.435a1.34 1.34 0 0 0-.145-1.025z" fill="#313235" fill-rule="nonzero"/></svg>