<svg width="24" height="24" xmlns="http://www.w3.org/2000/svg"><path d="m6.655 10.357 2.729 2.384a.57.57 0 0 1 .006.857L6.66 16.027a.595.595 0 0 1-.409.154.61.61 0 0 1-.442-.188.566.566 0 0 1 .01-.801c.01-.006.015-.014.023-.02l2.244-1.997-2.238-1.958a.567.567 0 0 1-.062-.798c.006-.009.014-.014.02-.023a.615.615 0 0 1 .848-.039Zm10.681 2.255c.333 0 .605.26.605.58 0 .32-.272.58-.602.58H10.87a.596.596 0 0 1-.605-.58c0-.32.272-.583.605-.583l6.465.003Zm2.922 5.515a.22.22 0 0 0 .224-.215V8.248H3.204v9.664c0 .117.101.215.225.215h16.829ZM5.188 6.732a.548.548 0 0 0-.558-.537h-.003a.548.548 0 0 0-.557.537c0 .297.25.538.557.538a.548.548 0 0 0 .56-.538Zm1.678 0a.548.548 0 0 0-.558-.537h-.003a.548.548 0 0 0-.557.537c0 .297.25.538.557.538a.548.548 0 0 0 .56-.538Zm1.677 0a.548.548 0 0 0-.557-.537h-.003a.548.548 0 0 0-.557.537c0 .297.25.538.557.538a.548.548 0 0 0 .56-.538Zm11.715-2.207c.787 0 1.428.62 1.428 1.378v12.009c0 .759-.641 1.378-1.428 1.378H3.428c-.79 0-1.428-.616-1.428-1.375V5.903c0-.759.639-1.378 1.429-1.378h16.829Z" fill="#313235" fill-rule="nonzero"/></svg>