<svg width="24" height="24" xmlns="http://www.w3.org/2000/svg"><path d="M21.284 20.568a.716.716 0 1 1 0 1.432.716.716 0 0 1 0-1.432ZM2.108 2.108a.343.343 0 0 1 .5 0l4.5 4.536A10.704 10.704 0 0 1 12 5.464c4.252 0 8.108 2.5 9.82 6.396.036.068.036.176 0 .284A10.804 10.804 0 0 1 17.5 17l2.612 2.608a.343.343 0 0 1 0 .5.389.389 0 0 1-.252.108.389.389 0 0 1-.252-.108l-2.752-2.752A10.681 10.681 0 0 1 12 18.536c-4.248 0-8.144-2.5-9.856-6.396-.036-.068-.036-.176 0-.284A10.679 10.679 0 0 1 5.36 7.748a.382.382 0 0 1 .5.072.382.382 0 0 1-.072.5 10.626 10.626 0 0 0-2.928 3.716 10.093 10.093 0 0 0 9.144 5.82c1.536 0 3-.356 4.32-1l-1.572-1.572c-.752.608-1.716 1-2.752 1A4.297 4.297 0 0 1 7.716 12c0-1.032.392-2 1.036-2.748L2.108 2.608a.343.343 0 0 1 0-.5Zm9.928 4.036c-1.5 0-3 .356-4.356 1l1.568 1.572c.752-.608 1.716-1 2.752-1A4.297 4.297 0 0 1 16.284 12a4.193 4.193 0 0 1-1 2.752L17 16.5a10.72 10.72 0 0 0 4.18-4.536c-1.68-3.536-5.252-5.82-9.144-5.82ZM9.248 9.748c-.536.608-.82 1.396-.82 2.252A3.583 3.583 0 0 0 12 15.572c.856 0 1.644-.288 2.284-.788ZM12 8.432c-.856 0-1.64.32-2.248.82l5 5.004c.536-.608.82-1.396.82-2.252A3.583 3.583 0 0 0 12 8.432Z" fill="#313235" fill-rule="nonzero" opacity=".9"/></svg>