<svg width="24" height="24" xmlns="http://www.w3.org/2000/svg"><path d="M11.998 2C17.513 2 21.996 6.488 22 11.996c0 1.892-.536 3.74-1.544 5.332a.36.36 0 0 1-.608-.384 9.261 9.261 0 0 0 1.432-4.952c0-5.12-4.163-9.284-9.282-9.284s-9.286 4.168-9.286 9.288 4.163 9.284 9.282 9.284a9.257 9.257 0 0 0 4.951-1.432.36.36 0 0 1 .496.112.353.353 0 0 1-.112.496A9.97 9.97 0 0 1 11.998 22C6.488 22 2 17.512 2 12S6.487 2 11.998 2Zm6.79 16.072a.716.716 0 1 1 0 1.432.716.716 0 0 1 0-1.432ZM12.002 5.583c.192 0 .353.161.356.357v5.701l5.7.003a.355.355 0 0 1 .251.609.354.354 0 0 1-.252.104h-5.701v5.701a.354.354 0 0 1-.356.356.355.355 0 0 1-.356-.356v-5.701l-5.702-.001A.355.355 0 0 1 5.584 12c0-.198.159-.357.357-.357h5.701l.002-5.704c0-.198.159-.356.357-.356Z" fill="#313235" fill-rule="nonzero"/></svg>