<svg width="24" height="24" xmlns="http://www.w3.org/2000/svg"><path d="m12 1 9.471 9.654c.528.537.676 1.327.375 2.058-.3.74-.985 1.218-1.743 1.218H15.68V19a.371.371 0 0 1-.367.374.371.371 0 0 1-.367-.373v-5.823h5.157c.56 0 .919-.39 1.059-.748.14-.348.157-.848-.219-1.235L12 2.063 3.043 11.19c-.375.383-.358.895-.218 1.235.148.366.498.748 1.059.748H9.04v8.456a.352.352 0 0 1-.354.37.371.371 0 0 1-.367-.374V13.93H3.896c-.758 0-1.442-.475-1.743-1.218-.301-.731-.148-1.512.375-2.058L12 1Zm3.313 19.505a.74.74 0 0 1 .734.747.74.74 0 0 1-.734.748.74.74 0 0 1-.733-.748.74.74 0 0 1 .733-.747Z" fill="#313235" fill-rule="nonzero"/></svg>