<svg width="24" height="24" xmlns="http://www.w3.org/2000/svg"><path d="M8.18 21.272a.73.73 0 0 1-.727.728.73.73 0 0 1-.728-.728.728.728 0 0 1 1.456 0m.728-1.092a.354.354 0 0 1-.256-.108.37.37 0 0 1 0-.516l7.167-7.168 3.592 3.592c.38.38.864.372 1.188.236.324-.136.676-.472.676-1.008V2.728H8.785c-.536 0-.872.348-1.008.676-.136.324-.144.808.236 1.188l3.592 3.592-8.984 8.984a.362.362 0 0 1-.516 0 .37.37 0 0 1 0-.516l8.472-8.472L7.5 5.104a1.788 1.788 0 0 1-.392-1.98A1.795 1.795 0 0 1 8.789 2H22v13.216c0 .748-.432 1.392-1.124 1.68a1.788 1.788 0 0 1-1.98-.392l-3.076-3.076-6.651 6.648a.36.36 0 0 1-.26.104Z" fill="#003" fill-rule="nonzero"/></svg>