<svg width="24" height="24" xmlns="http://www.w3.org/2000/svg"><path d="m11.998 22-9.465-9.459c-.536-.546-.676-1.326-.383-2.057.3-.739.984-1.213 1.741-1.213H8.31V1.378a.37.37 0 0 1 .367-.374.37.37 0 0 1 .366.374v8.64H3.9c-.56 0-.919.39-1.059.747-.14.349-.156.857.219 1.239l8.95 8.938 8.952-8.947c.375-.382.358-.881.218-1.23-.148-.365-.498-.747-1.058-.747h-5.167V4.01a.37.37 0 0 1 .366-.373.37.37 0 0 1 .367.373v5.26h4.418c.757 0 1.44.475 1.741 1.214.3.73.148 1.52-.374 2.057L11.998 22Zm2.586-20.253c0 .416.334.748.733.748.408 0 .733-.34.733-.748A.742.742 0 0 0 15.317 1c-.4 0-.733.332-.733.747" fill="#0019A5" fill-rule="nonzero"/></svg>