<svg width="24" height="24" xmlns="http://www.w3.org/2000/svg"><g transform="translate(2 1)" fill="#0019A5" fill-rule="nonzero"><circle cx="13.313" cy="20.252" r="1"/><path d="M6.686 21a.371.371 0 0 1-.367-.374V12.93H1.896c-.758 0-1.442-.475-1.743-1.218-.301-.731-.148-1.512.375-2.058L10 0l9.471 9.654c.528.537.676 1.327.375 2.058-.3.74-.985 1.218-1.743 1.218H13.68V18a.371.371 0 0 1-.367.374.371.371 0 0 1-.367-.373v-5.823h5.157c.56 0 .919-.39 1.059-.748.14-.348.157-.848-.219-1.235L10 1.063 1.043 10.19c-.375.383-.358.895-.218 1.235.148.366.498.748 1.059.748H7.04v8.456a.352.352 0 0 1-.354.37Z"/></g></svg>