<svg width="24" height="24" xmlns="http://www.w3.org/2000/svg"><path d="M15.341 3.914a.358.358 0 0 1 0 .512l-6.915 6.911c-.26.26-.316.197-1.037-.52L4.591 8.01a1.112 1.112 0 0 0-1.226-.252 1.02 1.02 0 0 0-.632.965v12.544H15.22c.429 0 .789-.244.957-.648a1.17 1.17 0 0 0-.244-1.274l-3.528-3.527 8.973-8.981a.358.358 0 0 1 .513 0 .358.358 0 0 1 0 .512l-8.469 8.469 3.02 3.019c.544.544.696 1.353.404 2.07A1.743 1.743 0 0 1 15.217 22H2V8.727c0-.729.412-1.362 1.09-1.638a1.864 1.864 0 0 1 2.013.404l3.075 3.076 6.65-6.655a.358.358 0 0 1 .513 0ZM16.551 2a.729.729 0 1 1 0 1.457.729.729 0 0 1 0-1.457Z" fill="#313235" fill-rule="nonzero" opacity=".9"/></svg>