<svg width="24" height="24" xmlns="http://www.w3.org/2000/svg"><g transform="translate(2 2)" fill="#0019A5" fill-rule="nonzero"><path d="M19.992 20H6.782c-.726 0-1.345-.42-1.628-1.106a1.885 1.885 0 0 1 .403-2.066l3.014-3.015L.108 5.345a.362.362 0 0 1 0-.516.361.361 0 0 1 .515 0l7.361 7.366c1.533 1.534 1.533 1.534 1.441 1.757l-.024.064L6.08 17.34a1.18 1.18 0 0 0-.252 1.274c.168.411.523.655.958.655h12.475V6.719a1.03 1.03 0 0 0-.634-.967 1.114 1.114 0 0 0-1.226.252l-2.814 2.832c-.695.695-.695.695-.918.595l-.064-.024-6.95-6.97a.362.362 0 0 1 0-.516.361.361 0 0 1 .515 0l6.646 6.651 3.078-3.08a1.854 1.854 0 0 1 2.016-.411c.67.283 1.09.903 1.09 1.638V20h-.008Z"/><circle cx="5.453" cy=".727" r="1"/></g></svg>