<svg width="24" height="24" xmlns="http://www.w3.org/2000/svg"><path d="M18.39 19.016a.723.723 0 0 1-.708.735c-.391 0-.71-.33-.71-.735 0-.406.319-.736.71-.736.39 0 .709.33.709.736ZM17 3H7l-5 9.021L7 21h9.79a.362.362 0 0 0 .355-.368.362.362 0 0 0-.354-.367H7.409L2.82 12.02l4.59-8.286h9.177l4.591 8.286-2.559 4.605c-.1.174-.04.4.132.504a.347.347 0 0 0 .486-.136L22 12.02 17 3Zm-5 13.438a.362.362 0 0 0 .355-.368v-3.314h3.195a.362.362 0 0 0 .355-.367.362.362 0 0 0-.355-.368h-3.195V8.708A.362.362 0 0 0 12 8.34a.362.362 0 0 0-.355.368v3.313H8.45a.362.362 0 0 0-.355.368c0 .203.16.367.355.367h3.195v3.314c0 .203.16.368.355.368Z" fill="#313235" fill-rule="nonzero" opacity=".9"/></svg>