<svg width="24" height="24" xmlns="http://www.w3.org/2000/svg"><g transform="translate(4 2)" fill="#0019A5" fill-rule="nonzero"><path d="m16.13 13.668-7.457 4.334v-8.3l7.288-4.075v4.22c0 .19.155.343.346.343a.345.345 0 0 0 .347-.343V4.84l-4.17-2.422c-.01-.009-.023-.013-.032-.018L8.327 0 0 4.84v9.32L8.327 19l8.153-4.739a.343.343 0 0 0 .125-.47.35.35 0 0 0-.475-.123Zm-.52-8.639L8.327 9.104 4.992 7.236l7.274-4.154 3.344 1.947Zm-4.032-2.343L4.29 6.845 1.044 5.029 8.327.796l3.25 1.89ZM.693 5.623 4.09 7.522a.24.24 0 0 0 .058.03L7.98 9.699v8.3l-7.287-4.23V5.624Z"/><circle cx="16.307" cy="11.905" r="1"/></g></svg>