<svg width="24" height="24" xmlns="http://www.w3.org/2000/svg"><path d="M17.768 19.411c.426 0 .772.356.772.795a.783.783 0 0 1-.772.794.783.783 0 0 1-.772-.794c0-.44.346-.795.772-.795ZM12 2c1.772 0 3.192 1.227 3.424 2.77h4.652c1.08 0 1.924.873 1.924 1.98v11.875c0 1.111-.848 1.98-1.924 1.98-.228 0-.384-.16-.384-.395 0-.235.152-.395.384-.395.656 0 1.156-.52 1.156-1.19V11.5H2.768v7.12c0 .676.504 1.19 1.156 1.19h11.54c.228 0 .384.161.384.396 0 .234-.152.395-.384.395H3.924C2.844 20.6 2 19.728 2 18.62V6.75c0-1.111.844-1.98 1.924-1.98h4.652C8.768 3.227 10.228 2 12 2Zm8.08 3.556H3.924c-.656 0-1.156.519-1.156 1.19v3.96h18.468v-3.96c0-.675-.504-1.19-1.156-1.19ZM12 2.794c-1.348 0-2.424.869-2.656 1.98h5.312c-.232-1.111-1.308-1.98-2.656-1.98Z" fill="#313235" fill-rule="nonzero" opacity=".9"/></svg>