<svg width="24" height="24" xmlns="http://www.w3.org/2000/svg"><g transform="translate(2 2)" fill="#0019A5" fill-rule="nonzero"><circle cx="15.768" cy="18.206" r="1"/><path d="M20 4.75c0-1.107-.844-1.98-1.924-1.98h-4.652C13.192 1.227 11.772 0 10 0S6.768 1.227 6.576 2.77H1.924C.844 2.77 0 3.64 0 4.75v11.87c0 1.108.844 1.98 1.924 1.98h11.54c.232 0 .384-.16.384-.394 0-.235-.156-.396-.384-.396H1.924c-.652 0-1.156-.514-1.156-1.19V9.5h18.464v7.125c0 .67-.5 1.19-1.156 1.19-.232 0-.384.16-.384.395 0 .234.156.395.384.395 1.076 0 1.924-.869 1.924-1.98V4.75ZM10 .794c1.348 0 2.424.869 2.656 1.98H7.344C7.576 1.663 8.652.794 10 .794ZM.768 8.706v-3.96c0-.671.5-1.19 1.156-1.19H18.08c.652 0 1.156.515 1.156 1.19v3.96H.768Z"/></g></svg>