<svg width="24" height="24" xmlns="http://www.w3.org/2000/svg"><g transform="translate(2 2)" fill="#003" fill-rule="nonzero"><circle cx="18.307" cy="17.5" r="1"/><path d="M18.307 19.284H.69V7.856h17.27v7.5c0 .216.14.356.345.356.209 0 .344-.144.344-.356V3.928c0-1-.758-1.784-1.726-1.784h-3.454V.356c0-.216-.14-.356-.345-.356-.205 0-.344.144-.344.356V2.14H5.873V.356C5.873.14 5.733 0 5.529 0c-.205 0-.345.144-.345.356V2.14H1.726C.758 2.144 0 2.928 0 3.928V20h18.307c.21 0 .345-.144.345-.356 0-.216-.14-.36-.345-.36ZM1.726 2.856H5.18V4.64c0 .216.14.356.345.356.205 0 .344-.144.344-.356V2.856h6.91V4.64c0 .216.14.356.344.356.205 0 .345-.144.345-.356V2.856h3.454c.588 0 1.037.464 1.037 1.072v3.216H.69V3.928c0-.608.448-1.072 1.037-1.072Z"/><path d="M8.98 11.608c0-1.072-.863-1.964-1.935-1.964h-.623c-.379 0-1.071.144-1.45.428-.14.108-.175.356-.07.5.104.144.344.18.483.072.175-.144.693-.284 1.037-.284h.623a1.25 1.25 0 0 1 0 2.5h-.932c-.21 0-.345.144-.345.356 0 .216.14.356.345.356h.932a1.253 1.253 0 0 1 0 2.504h-.623c-.31 0-.862-.144-1.037-.284-.139-.108-.379-.072-.483.072-.105.144-.07.392.07.5.344.284 1.071.428 1.45.428h.623c1.072 0 1.935-.892 1.935-1.964 0-.68-.31-1.252-.828-1.608.518-.364.828-.936.828-1.612Zm3.455 5.176c.208 0 .344-.144.344-.356V10a.369.369 0 0 0-.174-.32.301.301 0 0 0-.345 0l-1.59.928c-.174.108-.209.32-.139.5.105.18.31.216.484.144l1.071-.644v5.82c.004.216.14.356.349.356Z"/></g></svg>