<svg width="24" height="24" xmlns="http://www.w3.org/2000/svg"><path d="M22 8.626a.739.739 0 0 1-.726.748.739.739 0 0 1-.726-.748c0-.413.326-.75.726-.75.4 0 .726.337.726.75Zm-.73 1.876a.37.37 0 0 0-.364.375c0 1.45-1.14 2.625-2.546 2.625a.37.37 0 0 0-.363.375v1.718l-1.922-1.982a.363.363 0 0 0-.26-.11h-3.999c-1.405 0-2.546-1.177-2.546-2.626V6.374c0-1.45 1.14-2.625 2.546-2.625h6.544c1.406 0 2.546 1.176 2.546 2.625a.37.37 0 0 0 .363.375.37.37 0 0 0 .363-.375C21.632 4.512 20.166 3 18.36 3h-6.544C10.01 3 8.544 4.512 8.544 6.374v.75H5.272C3.466 7.123 2 8.634 2 10.497V15c0 1.733 1.275 3.163 2.909 3.355v2.27a.364.364 0 0 0 .363.374.358.358 0 0 0 .256-.11l2.439-2.515h3.85c1.358 0 2.587-.878 3.062-2.188a.382.382 0 0 0-.214-.485.364.364 0 0 0-.47.22c-.373 1.018-1.327 1.705-2.384 1.705H7.813a.344.344 0 0 0-.256.11l-1.922 1.982V18a.37.37 0 0 0-.363-.374c-1.406 0-2.546-1.176-2.546-2.626v-4.502c0-1.45 1.14-2.626 2.546-2.626h3.272v3c0 1.862 1.466 3.374 3.272 3.374h3.85l2.438 2.516a.358.358 0 0 0 .396.081.377.377 0 0 0 .223-.345v-2.27c1.634-.188 2.91-1.618 2.91-3.356a.365.365 0 0 0-.364-.37Z" fill="#003" fill-rule="nonzero"/></svg>