<svg width="24" height="24" xmlns="http://www.w3.org/2000/svg"><g transform="translate(5 2)" fill="#313235" fill-rule="nonzero"><path d="M11.86 17.144H2.792v-8.32c0-.572.559-.964 1.047-.964h6.976c.489 0 1.047.392 1.047.964v8.32h-.004Zm-8.372-.716h7.672V8.82c0-.108-.176-.252-.348-.252H3.84c-.176 0-.348.144-.348.252v7.608h-.004Z"/><circle cx="14.301" cy="17.5" r="1"/><path d="M14.3 20 0 19.964V1.82C0 .82.766 0 1.742 0h7.324c.454 0 .977.216 1.29.536l3.73 3.784c.348.356.559.82.559 1.252v9.784c0 .216-.141.356-.348.356-.211 0-.348-.144-.348-.356V5.608c0-.252-.14-.536-.347-.752l-3.73-3.82c-.212-.18-.524-.32-.802-.32H1.746C1.188.716.7 1.216.7 1.824v17.464h13.602c.21 0 .347.144.347.356s-.136.356-.347.356Z"/></g></svg>