<svg width="24" height="24" xmlns="http://www.w3.org/2000/svg"><path d="M20.378 6.95h-.345a2.79 2.79 0 0 0-.344-.811l.243-.24a.488.488 0 0 0 .137-.338c0-.134-.07-.27-.137-.339l-.931-.95a.504.504 0 0 0-.724 0l-.243.238a4.551 4.551 0 0 0-.83-.339v-.338a.502.502 0 0 0-.516-.508h-.83C15.308 2.508 14.34 2 13.309 2H7.103C5.377 2 4 3.355 4 5.053v12.894C4 19.645 5.377 21 7.103 21h6.205c1.725 0 3.102-1.355 3.102-3.053v-3.73c0-.205-.137-.34-.344-.34-.207 0-.344.135-.344.34v3.73c0 1.325-1.068 2.376-2.414 2.376H7.103a2.4 2.4 0 0 1-2.38-2.037h7.208c.207 0 .344-.135.344-.339 0-.204-.137-.339-.344-.339H4.688V5.392h7.38c-.036.07-.036.134-.036.17 0 .134.035.268.137.338l.243.239a4.48 4.48 0 0 0-.345.812h-.344a.505.505 0 0 0-.516.508v1.325c0 .269.207.508.516.508h.31c.07.269.171.543.343.816l-.242.239a.435.435 0 0 0-.137.339c0 .134.035.269.137.338l.966.952a.504.504 0 0 0 .724 0l.243-.24c.242.135.516.24.83.34v.338c0 .27.207.508.516.508h1.346c.137 0 .273-.07.38-.134a.512.512 0 0 0 .136-.374v-.339c.274-.07.552-.169.83-.338l.243.239a.504.504 0 0 0 .723 0l.967-.917a.488.488 0 0 0 .137-.339c0-.134-.07-.269-.137-.338l-.243-.24a4.4 4.4 0 0 0 .344-.816h.345A.505.505 0 0 0 21 8.818V7.494c-.106-.304-.313-.543-.622-.543ZM7.103 2.678h6.205c.688 0 1.31.27 1.791.782a.484.484 0 0 0-.207.408v.304c-.274.07-.552.17-.83.34l-.242-.24a.504.504 0 0 0-.724 0l-.415.443H4.724a2.4 2.4 0 0 1 2.379-2.037Zm13.103 5.937h-.689l-.07.27c-.102.408-.243.781-.45 1.085l-.137.239.48.473-.688.678-.48-.474-.244.135c-.38.239-.759.374-1.103.443l-.274.035v.712h-.966v-.677l-.274-.07c-.415-.1-.794-.239-1.103-.443l-.243-.135-.48.474-.69-.678.482-.473-.137-.239a3.176 3.176 0 0 1-.45-1.086l-.07-.304h-.69v-.95h.69l.07-.27c.101-.408.243-.782.45-1.086l.137-.238-.481-.474.688-.677.481.473.243-.135c.38-.238.759-.373 1.103-.443l.274-.07v-.677h.966v.678l.274.07c.415.1.794.238 1.103.442l.243.135.481-.473.689.677-.481.474.136.238c.243.374.38.747.45 1.086l.071.27h.689v.985Zm-5.208-3.088a2.799 2.799 0 0 0-1.69 2.58c0 1.529 1.24 2.784 2.758 2.784a2.72 2.72 0 0 0 2.55-1.729c.416-1.05.208-2.24-.586-3.053a2.77 2.77 0 0 0-3.032-.582Zm2.966 3.392a2.045 2.045 0 0 1-1.898 1.29c-1.139 0-2.07-.951-2.07-2.102 0-.847.516-1.629 1.276-1.967.759-.339 1.655-.135 2.241.443.623.642.795 1.559.45 2.336ZM14 17.265c.38 0 .688.304.688.678a.684.684 0 0 1-.688.677.684.684 0 0 1-.689-.677c0-.374.305-.678.689-.678Z" fill="#313235" fill-rule="nonzero" opacity=".9"/></svg>