<svg width="24" height="24" xmlns="http://www.w3.org/2000/svg"><path d="M13.642 2c.21 0 .352.14.352.356V14.18a2.134 2.134 0 0 1 1.762 2.104 2.141 2.141 0 0 1-1.762 2.108v3.252c0 .212-.139.356-.352.356-.21 0-.352-.14-.352-.356v-3.252a2.141 2.141 0 0 1 0-4.216V2.356c0-.212.139-.356.352-.356Zm5.291 18.568c.391 0 .708.32.708.716a.712.712 0 0 1-.708.716.712.712 0 0 1-.707-.716c0-.395.317-.716.707-.716Zm0-18.568c.21 0 .352.14.352.356v4.68a2.141 2.141 0 0 1 0 4.216v7.892c0 .212-.142.356-.352.356-.209 0-.351-.14-.351-.356v-7.892a2.141 2.141 0 0 1 0-4.216v-4.68c0-.212.142-.356.351-.356Zm-5.291 12.86c-.775 0-1.41.644-1.41 1.428 0 .784.635 1.428 1.41 1.428.775 0 1.41-.644 1.41-1.428 0-.784-.635-1.428-1.41-1.428Zm-7.765-8c.636 0 1.201.216 1.624.644a.346.346 0 0 1 0 .5.336.336 0 0 1-.494 0c-.285-.284-.672-.428-1.13-.428-.988 0-1.763.784-1.763 1.784v2.284h2.47c.21 0 .352.144.352.356s-.139.356-.352.356h-2.47v2.5c0 .392-.138.788-.352 1.072h4.585c.213 0 .355.144.355.356s-.138.356-.351.356h-6c-.209 0-.351-.14-.351-.356 0-.212.138-.356.352-.356.6 0 1.059-.464 1.059-1.072v-2.5H2.35c-.209 0-.351-.14-.351-.356 0-.212.138-.356.352-.356h1.055V9.36c0-1.392 1.094-2.5 2.47-2.5Zm13.056.856c-.774 0-1.41.644-1.41 1.428 0 .784.636 1.428 1.41 1.428.775 0 1.411-.644 1.411-1.428 0-.784-.636-1.428-1.41-1.428Z" fill="#313235" fill-rule="nonzero"/></svg>