<svg width="24" height="24" xmlns="http://www.w3.org/2000/svg"><path d="M19.29 21.287H4.714v-6.428h14.221v2.501c0 .215.141.357.355.357s.355-.142.355-.357V3.787A1.766 1.766 0 0 0 17.865 2H4v20h15.286c.213 0 .355-.142.355-.357 0-.214-.137-.356-.35-.356Zm-14.576-7.14V8.788h14.221v5.357H4.715Zm13.152-11.43c.605 0 1.065.467 1.065 1.07v4.288H4.714V2.718h13.152ZM6.134 4.863h2.844c.214 0 .355-.142.355-.357s-.14-.356-.355-.356H6.134c-.214 0-.355.141-.355.356s.141.357.355.357Zm2.844 5.353H6.134c-.214 0-.355.142-.355.356 0 .215.141.357.355.357h2.844c.214 0 .355-.142.355-.357 0-.214-.14-.356-.355-.356ZM6.134 16.29c-.214 0-.355.142-.355.357s.141.356.355.356h2.844c.214 0 .355-.141.355-.356s-.14-.357-.355-.357H6.134Zm13.156 2.496a.712.712 0 0 0 0 1.427.712.712 0 0 0 0-1.427Z" fill="#003" fill-rule="nonzero"/></svg>