<svg width="24" height="24" xmlns="http://www.w3.org/2000/svg"><path d="M12.37 5.12c-.223 0-.37.149-.37.374s.147.374.37.374c2.48 0 4.447 1.983 4.447 4.494 0 .225.147.374.37.374s.37-.149.37-.374c0-2.96-2.262-5.242-5.187-5.242Zm8.52 2.995H21a.416.416 0 0 0 .26-.45C20.037 3.659 16.48 1 12.37 1c-.223 0-.37.149-.37.374s.147.373.37.373c3.779 0 7.036 2.434 8.15 6.1a.37.37 0 0 0 .37.268ZM8.335 6.879l-.408-.374-.446.374c-.038.038-2.11 1.983-4.85 1.983H2v7.412c0 3.369 3.148 4.792 5.557 5.616l.37.11.408-.11c2.37-.786 5.519-2.247 5.519-5.577v-7.45h-.63c-2.741 0-4.856-1.946-4.89-1.984Zm4.775 9.395c0 2.846-2.665 4.116-5.003 4.868l-.185.077-.147-.038c-2.37-.786-5.035-2.06-5.035-4.902V9.65c2.74-.04 4.817-1.798 5.187-2.171.446.412 2.48 2.098 5.187 2.17v6.626h-.004Zm8.15-7.038a.745.745 0 0 0-.74.748c0 .412.333.747.74.747.408 0 .74-.335.74-.747a.745.745 0 0 0-.74-.748ZM6.443 17.247l-2.11-2.132a.364.364 0 0 1 0-.522.355.355 0 0 1 .517 0l1.593 1.61L11 11.598a.355.355 0 0 1 .516 0 .364.364 0 0 1 0 .522l-5.073 5.127Z" fill="#0019A5" fill-rule="nonzero"/></svg>