<svg width="24" height="24" xmlns="http://www.w3.org/2000/svg"><path d="M22 11.49c0-.01-.005-.021-.005-.031-.005-.026-.005-.047-.01-.073a.254.254 0 0 0-.016-.036c-.01-.02-.015-.041-.03-.062a.157.157 0 0 0-.026-.036l-.041-.047a.223.223 0 0 0-.036-.03c-.01-.006-.015-.016-.025-.022l-.031-.015c-.005-.005-.016-.01-.02-.016l-6.401-2.829a.39.39 0 0 0-.323 0l-6.4 2.83a.07.07 0 0 0-.02.015c-.01.005-.021.005-.031.015-.01.006-.016.016-.026.021-.01.01-.025.02-.036.031-.015.016-.03.031-.04.047-.01.01-.021.02-.026.036l-.031.057-.015.036c-.005.026-.01.052-.01.078 0 .01-.006.015-.006.025v6.88c0 .155.087.295.22.362l6.4 3.233c.006.005.011 0 .021.005.052.02.108.036.16.036a.442.442 0 0 0 .158-.036c.005-.005.01 0 .02-.005l6.4-3.233a.405.405 0 0 0 .22-.362v-6.869c.006 0 .006-.005.006-.005Zm-6.8-2.38 5.458 2.41-5.458 2.758-5.458-2.757L15.2 9.11Zm-6 3.042 5.6 2.829v5.964L9.2 18.12v-5.97ZM21.2 18.12 15.6 20.95v-5.969l5.601-2.83v5.97Zm-3.6-12.28c0-.444.36-.807.8-.807.44 0 .798.363.798.807a.804.804 0 0 1-.799.807.8.8 0 0 1-.798-.807ZM8.053 8.066A2.817 2.817 0 0 0 7.033 7.04a.389.389 0 0 1-.194-.098 2.817 2.817 0 0 0-1.24-.29c-1.546 0-2.8 1.268-2.8 2.83s1.254 2.83 2.8 2.83c.22 0 .4.18.4.403 0 .222-.18.403-.4.403C3.614 13.119 2 11.489 2 9.483c0-2.007 1.613-3.636 3.6-3.636.41 0 .803.077 1.182.206C7.264 3.163 9.778 1 12.696 1c1.961 0 3.8.972 4.926 2.597a.409.409 0 0 1-.097.563.399.399 0 0 1-.558-.098 5.188 5.188 0 0 0-4.27-2.25c-2.571 0-4.783 1.935-5.147 4.5-.005.036-.005.072-.01.104.492.31.912.734 1.209 1.251a.408.408 0 0 1-.144.554.417.417 0 0 1-.553-.155Z" fill="#003" fill-rule="nonzero"/></svg>