<svg width="24" height="24" xmlns="http://www.w3.org/2000/svg"><g fill="#313235" fill-rule="nonzero" opacity=".9"><path d="M21.274 18.223H2.726V6.45l8.91 5.501c.057.035.122.05.182.05.061 0 .126-.015.182-.05l8.91-5.496v7.493c0 .214.164.388.364.388.2 0 .363-.174.363-.388V5.388c0-.214-.163-.388-.363-.388H2.364C2.162 5 2 5.174 2 5.388v13.224c0 .214.163.388.363.388h18.91c.2 0 .364-.174.364-.388 0-.214-.163-.389-.363-.389Zm-9.456-7.06L3.09 5.778h17.458l-8.729 5.387Z"/><circle cx="21.274" cy="16.277" r="1"/></g></svg>