<svg width="24" height="24" xmlns="http://www.w3.org/2000/svg"><g transform="translate(2 5)" fill="#0019A5" fill-rule="nonzero"><path d="M19.274 13.223H.726V1.45l8.91 5.501c.057.035.122.05.182.05.061 0 .126-.015.182-.05l8.91-5.496v7.493c0 .214.164.388.364.388.2 0 .363-.174.363-.388V.388c0-.214-.163-.388-.363-.388H.364C.162 0 0 .174 0 .388v13.224c0 .214.163.388.363.388h18.91c.2 0 .364-.174.364-.388 0-.214-.163-.389-.363-.389Zm-9.456-7.06L1.09.778h17.458L9.818 6.164Z"/><circle cx="19.274" cy="11.277" r="1"/></g></svg>