<svg width="24" height="24" xmlns="http://www.w3.org/2000/svg"><path d="M21.287 20.52c.394 0 .713.332.713.74 0 .409-.32.74-.713.74a.727.727 0 0 1-.713-.74c0-.408.319-.74.713-.74Zm-9.463-6.666c1.28 0 2.322 1.081 2.322 2.409 0 .754-.343 1.432-.868 1.873 1.197.374 1.938 1.242 1.938 2.385v1.11c0 .203-.16.369-.357.369a.364.364 0 0 1-.356-.37v-1.11c0-1.128-1.042-1.853-2.66-1.853-1.642 0-2.698.73-2.698 1.854v1.11c0 .203-.16.369-.356.369a.364.364 0 0 1-.357-.37v-1.11c0-1.137.74-2 1.943-2.38a2.439 2.439 0 0 1-.873-1.877c0-1.328 1.042-2.409 2.322-2.409ZM7.536 4.598c1.87 0 3.392 1.58 3.392 3.519 0 1.256-.64 2.361-1.6 2.982.814.19 1.536.512 2.121.953a.38.38 0 0 1 .078.517.353.353 0 0 1-.503.076c-.864-.66-2.103-1.02-3.488-1.02-2.793 0-4.823 1.475-4.823 3.5v6.49c0 .205-.16.37-.356.37a.364.364 0 0 1-.357-.37v-6.48c0-1.969 1.5-3.505 3.744-4.036a3.544 3.544 0 0 1-1.6-2.982c0-1.94 1.522-3.519 3.392-3.519Zm10.537 7.587c1.28 0 2.322 1.081 2.322 2.409a2.44 2.44 0 0 1-.891 1.892c1.27.417 2.14 1.389 2.14 2.55 0 .204-.16.37-.357.37a.359.359 0 0 1-.357-.36c0-1.143-1.257-2.039-2.857-2.039a3.22 3.22 0 0 0-1.787.517l-.256.185a.355.355 0 0 1-.499-.095.386.386 0 0 1 .092-.517l.274-.194c.256-.166.512-.294.773-.394a2.434 2.434 0 0 1-.92-1.915c0-1.328 1.043-2.41 2.323-2.41Zm-6.249 2.409c-.887 0-1.61.744-1.61 1.664 0 .92.723 1.669 1.61 1.669.887 0 1.61-.744 1.61-1.664 0-.92-.723-1.67-1.61-1.67Zm6.254-1.67c-.887 0-1.61.75-1.61 1.67 0 .92.723 1.669 1.61 1.669.887 0 1.609-.75 1.609-1.67 0-.92-.722-1.668-1.61-1.668ZM15.394 2c1.87 0 3.392 1.579 3.392 3.518 0 1.257-.64 2.362-1.6 2.983 1.774.422 3.095 1.484 3.548 2.94a.368.368 0 0 1-.339.483c-.15 0-.288-.1-.338-.256-.498-1.598-2.322-2.631-4.644-2.631-1.422 0-2.716.36-3.557.995a.345.345 0 0 1-.498-.08.375.375 0 0 1 .077-.517c.581-.441 1.317-.754 2.154-.944a3.544 3.544 0 0 1-1.587-2.973c0-1.94 1.523-3.518 3.392-3.518ZM7.541 5.333c-1.477 0-2.68 1.247-2.68 2.779 0 1.531 1.198 2.778 2.68 2.778 1.476 0 2.678-1.247 2.678-2.778 0-1.532-1.202-2.779-2.678-2.779Zm7.853-2.593c-1.476 0-2.679 1.247-2.679 2.778 0 1.532 1.203 2.779 2.68 2.779 1.476 0 2.678-1.247 2.678-2.779 0-1.531-1.202-2.778-2.679-2.778Z" fill="#313235" fill-rule="nonzero"/></svg>