<svg width="24" height="24" xmlns="http://www.w3.org/2000/svg"><path d="M21.287 18.515c-.393 0-.713.333-.713.743 0 .409.32.742.713.742.393 0 .713-.333.713-.742 0-.41-.32-.743-.713-.743Zm-2.358-4.087h-.43V9.964h-5.78c-.215 0-.357.147-.357.371s.142.371.357.371h5.104v3.717H11.97c-.105-2.641-1.425-3.94-1.498-4.017-.105-.076-.252-.109-.357-.076a.418.418 0 0 0-.251.295s-.105.633-.466.966c-.142.11-.284.224-.466.333.105-.518.214-1.337.214-2.34 0-3.051-2.856-5.392-2.997-5.502-.105-.11-.288-.11-.43 0a.38.38 0 0 0-.142.41s.252.856-.178 2.674c-.178.742-.75 1.56-1.394 2.38-.927 1.374-2.07 2.897-2.001 4.867.105 3.274 2.605 4.388 2.714 4.426.142.076.284.038.393-.076.11-.114.105-.295.073-.41 0 0-.57-1.151-.178-2.974a9.545 9.545 0 0 1 .891-2.27c0 .595.037 1.3.142 1.823.142.595.393 1.042.644 1.413.215.333.393.633.466 1.004.106.52.037 1.152-.036 1.523 0 0-.105.262-.105.371 0 .224.141.372.356.372H18.97c.215 0 .357-.148.357-.372 0-.223-.178-.37-.393-.37H15.579v-3.717h5.356v1.637c0 .223.142.37.357.37.214 0 .356-.147.356-.37v-2.38H18.93v.015ZM7.861 17.14c-.105-.485-.32-.857-.534-1.228-.252-.333-.466-.67-.572-1.151-.214-.966-.105-2.898-.105-2.898a.417.417 0 0 0-.214-.372c-.074-.038-.106-.038-.142-.038a.32.32 0 0 0-.283.148c-.037.076-1.248 1.599-1.714 3.645-.215 1.004-.178 1.86-.073 2.456-.645-.557-1.462-1.561-1.536-3.274-.073-1.714.928-3.084 1.892-4.388.677-.89 1.284-1.746 1.5-2.674a8.105 8.105 0 0 0 .25-2.047c.86.857 2.107 2.456 2.107 4.274 0 1.784-.32 2.864-.32 2.864-.036.148 0 .295.073.372.105.11.252.147.357.076.036 0 .859-.295 1.357-.78.215-.186.356-.448.466-.672.393.595.928 1.709.928 3.346 0 2.674-2.358 3.645-3.428 3.94.064-.447.133-1.08-.009-1.599Zm6.997 1.746H9.465c1.143-.632 2.358-1.746 2.5-3.716h2.893v3.716Z" fill="#313235" fill-rule="nonzero" opacity=".9"/></svg>