<svg width="24" height="24" xmlns="http://www.w3.org/2000/svg"><path d="M14.727 2.16H6.962c-.98 0-1.817.308-2.355.866-.538.551-.807 1.324-.807 2.29v6.978c0 1.27.779 2.056 2.03 2.056.284 0 .541-.042.774-.117.238.854.938 1.361 1.941 1.361.283 0 .544-.042.776-.117.24.845.938 1.347 1.938 1.347.247 0 .477-.03.681-.09v2.894c0 1.33.815 2.157 2.129 2.157 1.263 0 2.036-.77 2.123-2.112l.003-.045v-7.362c.339.575.641.978 1.006 1.27.358.285.784.428 1.204.428.403 0 .801-.132 1.129-.395.647-.518.807-1.406.406-2.255-.678-1.445-1.82-3.767-2.74-5.633-.57-1.162-1.064-2.165-1.207-2.468-.143-.314-.484-1.053-1.266-1.053m0 .82c.188 0 .34.163.532.586.146.314.642 1.322 1.216 2.488a443.414 443.414 0 0 1 2.731 5.616c.235.501.168.986-.18 1.263a.98.98 0 0 1-.624.219 1.13 1.13 0 0 1-.703-.255c-.258-.208-.501-.519-.812-1.045a.812.812 0 0 0-.913-.373.82.82 0 0 0-.597.79v7.353c-.076 1.207-.787 1.348-1.314 1.348-.862 0-1.319-.463-1.319-1.337V16.74a.819.819 0 0 0-.32-.653.803.803 0 0 0-.708-.134c-.151.039-.305.059-.462.056-.628 0-1.017-.255-1.16-.757a.812.812 0 0 0-1.036-.552 1.642 1.642 0 0 1-.521.076c-.63 0-1.02-.257-1.16-.764a.815.815 0 0 0-1.036-.558 1.624 1.624 0 0 1-.519.076c-.81 0-1.218-.418-1.218-1.238V5.317c0-.748.193-1.328.577-1.723.384-.398 1.014-.616 1.776-.616l7.77.003" fill="#313235" fill-rule="nonzero"/></svg>