<svg width="24" height="24" xmlns="http://www.w3.org/2000/svg"><g transform="translate(2 1)" fill="#0019A5" fill-rule="nonzero"><circle cx="17.515" cy="18.371" r="1"/><path d="M19.908 10.798 10.007 0 .11 10.798a.357.357 0 0 0-.073.416c.073.151.18.227.325.227h1.785V21h5.715v-6.75h4.286V21h5.36c.215 0 .355-.151.355-.374 0-.222-.144-.374-.356-.374h-4.642V13.5H7.153v6.75H2.867v-9.564H1.182l8.825-9.56 8.86 9.56h-1.712v5.439c0 .227.144.374.356.374.216 0 .356-.152.356-.374v-4.687h1.785c.144 0 .284-.076.324-.227.04-.147.037-.298-.068-.412Z"/></g></svg>