<svg width="24" height="24" xmlns="http://www.w3.org/2000/svg"><path d="M12 2c5.5 0 10 4.5 10 10a9.925 9.925 0 0 1-1.536 5.32c-.108.18-.32.216-.5.108s-.216-.32-.108-.5a9.256 9.256 0 0 0 1.428-4.964c0-5.072-4.18-9.248-9.284-9.248-5.104 0-9.284 4.176-9.284 9.284 0 5.108 4.176 9.284 9.284 9.284a9.43 9.43 0 0 0 4.964-1.428c.18-.108.392-.072.5.108.108.18.072.392-.108.5A10.14 10.14 0 0 1 12 22C6.5 22 2 17.5 2 12S6.5 2 12 2Zm6.784 16.068a.716.716 0 1 1 0 1.432.716.716 0 0 1 0-1.432ZM12 9.144c.216 0 .356.144.356.356V17c0 .216-.14.356-.356.356-.216 0-.356-.144-.356-.356V9.5c0-.216.144-.356.356-.356Zm0-2.5a.536.536 0 1 1 0 1.072.536.536 0 0 1 0-1.072Z" fill="#313235" fill-rule="nonzero"/></svg>