<svg width="24" height="24" xmlns="http://www.w3.org/2000/svg"><path d="M12.005 1C6.49 1 2 5.713 2 11.5S6.49 22 12.005 22a9.641 9.641 0 0 0 5.331-1.617.389.389 0 0 0 .11-.519.35.35 0 0 0-.494-.115 8.989 8.989 0 0 1-2.538 1.162c1.71-1.651 2.876-5.025 2.945-9.037h3.928a10.073 10.073 0 0 1-1.432 4.823.39.39 0 0 0 .11.518.35.35 0 0 0 .494-.115A10.864 10.864 0 0 0 22 11.505C22.01 5.713 17.519 1 12.005 1ZM2.718 11.874h3.928c.068 4.017 1.239 7.39 2.949 9.041-3.846-1.084-6.722-4.702-6.877-9.04Zm8.93 9.373c-2.337-.375-4.198-4.42-4.29-9.373h4.29v9.373ZM9.599 2.085C7.89 3.73 6.72 7.109 6.65 11.125H2.718c.155-4.338 3.031-7.956 6.881-9.04Zm2.049 9.04h-4.29c.092-4.952 1.953-8.997 4.29-9.372v9.373Zm.713 10.122v-9.373h4.29c-.092 4.953-1.953 8.998-4.29 9.373Zm0-10.121V1.753c2.337.375 4.198 4.42 4.29 9.373h-4.29Zm5.002 0c-.068-4.017-1.239-7.39-2.949-9.041 3.846 1.084 6.722 4.702 6.882 9.04h-3.933Zm2.145 7.496c0 .412-.32.748-.713.748-.394 0-.714-.336-.714-.748 0-.413.32-.75.714-.75.393 0 .713.337.713.75Z" fill="#0019A5" fill-rule="nonzero"/></svg>