<svg width="24" height="24" xmlns="http://www.w3.org/2000/svg"><g transform="translate(5 2)" fill="#313235" fill-rule="nonzero"><path d="M14.3 19.284H.7V5.716h4.882v-5h8.371V15.36c0 .216.14.356.348.356.21 0 .347-.144.347-.356V0H5.094l-.106.108L0 5.216V20h14.3c.212 0 .348-.144.348-.356 0-.216-.136-.36-.347-.36ZM1.188 5l3.696-3.784V5H1.187Z"/><circle cx="14.301" cy="17.5" r="1"/><path d="M11.164 15H3.488c-.21 0-.347.144-.347.356 0 .216.14.356.347.356h7.672c.211 0 .348-.144.348-.356.004-.212-.137-.356-.344-.356Zm0-3.572H3.488c-.21 0-.347.144-.347.356 0 .216.14.356.347.356h7.672c.211 0 .348-.144.348-.356.004-.212-.137-.356-.344-.356Z"/></g></svg>