<svg width="24" height="24" xmlns="http://www.w3.org/2000/svg"><path d="M20.391 19.16a.705.705 0 0 1-.695.713.705.705 0 0 1-.695-.714c0-.393.312-.713.695-.713.383 0 .695.32.695.713Zm-1.813-1.68a.357.357 0 0 1 0 .504.34.34 0 0 1-.49 0l-.428-.44a2.05 2.05 0 0 0-2.95 0l-3.478 3.619a2.742 2.742 0 0 1-3.943 0c-.989-1.016-1.074-2.617-.254-3.737-.989-.032-1.84-.38-2.486-1.034l-1.065-1.084c-.606-.618-.65-1.592-.093-2.168l1.595-1.656c.557-.576 1.501-.544 2.111.073l1.114 1.134c.753.764 2.38.197 3.872-1.349.766-.796 1.3-1.647 1.51-2.397.13-.471.196-1.13-.245-1.578l-1.114-1.134c-.606-.618-.65-1.588-.093-2.164l1.594-1.656c.277-.283.65-.43 1.056-.411.392.018.767.192 1.056.484l1.065 1.084c2.063 2.1.971 6.194-2.66 9.963-1.777 1.844-3.64 3.097-5.381 3.627-.281.083-.553.147-.816.193-.004.004-.004.009-.009.009l-.263.26c-.81.833-.81 2.192.005 3.029a2.051 2.051 0 0 0 2.954 0l3.47-3.619a2.73 2.73 0 0 1 3.938 0l.428.449ZM5.044 15.89c1.06 1.08 2.561.92 3.63.594 1.631-.494 3.386-1.683 5.084-3.444 3.341-3.467 4.437-7.15 2.664-8.952l-1.065-1.084a.905.905 0 0 0-.601-.279.666.666 0 0 0-.526.202L12.635 4.58c-.285.298-.245.815.09 1.158l1.113 1.134c.53.54.682 1.35.423 2.283-.24.878-.824 1.816-1.684 2.708-1.83 1.898-3.782 2.442-4.856 1.354l-1.114-1.135a.892.892 0 0 0-.637-.279.663.663 0 0 0-.49.201l-1.595 1.656c-.285.298-.245.814.09 1.157l1.069 1.07Z" fill="#313235" fill-rule="nonzero"/></svg>