<svg width="24" height="24" xmlns="http://www.w3.org/2000/svg"><path d="M11.16 3.783V2.357c0-.197.153-.357.34-.357.187 0 .34.16.34.357v1.426a.349.349 0 0 1-.34.357.349.349 0 0 1-.34-.357Zm8.5 6.79h-1.357c-.188 0-.34.16-.34.357 0 .197.152.357.34.357h1.358c.187 0 .339-.16.339-.357a.349.349 0 0 0-.34-.357Zm-14.958 0H3.339c-.187 0-.339.16-.339.357 0 .197.152.357.34.357h1.357c.188 0 .34-.16.34-.357 0-.197-.148-.357-.335-.357Zm1.205-3.04a.366.366 0 0 0-.126-.49l-1.18-.713a.33.33 0 0 0-.465.133.366.366 0 0 0 .126.489l1.18.713a.333.333 0 0 0 .466-.133Zm1.898-2.611a.337.337 0 0 0 .466.132.373.373 0 0 0 .126-.489l-.683-1.239a.336.336 0 0 0-.466-.133.373.373 0 0 0-.126.49l.683 1.239Zm6.924.128a.327.327 0 0 0 .17.046c.118 0 .23-.064.296-.179l.679-1.239a.366.366 0 0 0-.126-.49.33.33 0 0 0-.466.133l-.679 1.24a.372.372 0 0 0 .126.489Zm4.13 1.413a.337.337 0 0 0-.465-.133l-1.18.713a.373.373 0 0 0-.126.49.337.337 0 0 0 .466.132l1.18-.713c.165-.1.221-.32.126-.49Zm-1.58 4.467c0 1.427-.46 2.766-1.287 3.827h-.005a.33.33 0 0 1-.257.133.349.349 0 0 1-.34-.357c0-.087.036-.164.084-.228l-.005-.005a5.493 5.493 0 0 0 1.128-3.365c0-2.954-2.29-5.36-5.101-5.36-2.812 0-5.101 2.406-5.101 5.36 0 1.888.918 3.603 2.454 4.581.005.005.01.01.014.01.718.484 1.144 1.298 1.153 2.194h3.351c.657 0 1.188.558 1.188 1.248 0 .353-.139.668-.357.892.222.229.357.544.357.892 0 .69-.53 1.248-1.188 1.248H9.63c-.658 0-1.189-.558-1.189-1.248 0-.352.14-.668.357-.892a1.275 1.275 0 0 1-.357-.892c0-.585.383-1.074.901-1.207v-.018c0-.663-.322-1.271-.857-1.623-1.732-1.116-2.764-3.05-2.764-5.18 0-3.348 2.594-6.073 5.78-6.073 3.186 0 5.78 2.711 5.78 6.063Zm-3.398 9.822a.52.52 0 0 0-.51-.535H9.63a.52.52 0 0 0-.51.535.52.52 0 0 0 .51.535h3.742c.279 0 .51-.238.51-.535Zm-4.252-2.323a.52.52 0 0 0-.51.535.52.52 0 0 0 .51.535h3.742a.52.52 0 0 0 .51-.535.52.52 0 0 0-.51-.535H9.63Zm4.93-2.858c-.374 0-.678.32-.678.713 0 .394.304.714.679.714.374 0 .679-.32.679-.714 0-.393-.305-.713-.68-.713Z" fill="#313235" fill-rule="nonzero" opacity=".9"/></svg>