<svg width="24" height="24" xmlns="http://www.w3.org/2000/svg"><g fill="#313235" fill-rule="nonzero"><path d="M17.566 19.407a.73.73 0 0 1 .717-.74.73.73 0 0 1 .717.74.73.73 0 0 1-.717.74.726.726 0 0 1-.717-.74"/><path d="M18.283 22H5V3.854C5 2.834 5.804 2 6.797 2h10.057c.988 0 1.797.83 1.797 1.854v13.33c0 .204-.161.37-.359.37a.365.365 0 0 1-.358-.37V3.854c0-.612-.483-1.11-1.076-1.11H6.793c-.593 0-1.076.498-1.076 1.11V21.26h12.566c.198 0 .358.166.358.37s-.16.37-.358.37Z"/><path d="m9.127 8.637-1.87-1.93a.371.371 0 0 1 0-.521.349.349 0 0 1 .505 0l1.36 1.403 3.158-3.257a.345.345 0 0 1 .506 0 .376.376 0 0 1 0 .522L9.127 8.637ZM9.127 13.747l-1.87-1.93a.371.371 0 0 1 0-.521.349.349 0 0 1 .505 0l1.36 1.403 3.158-3.256a.345.345 0 0 1 .506 0 .376.376 0 0 1 0 .521l-3.659 3.783ZM9.127 19.009l-1.87-1.93a.371.371 0 0 1 0-.521.349.349 0 0 1 .505 0l1.36 1.403 3.158-3.257a.345.345 0 0 1 .506 0 .376.376 0 0 1 0 .522l-3.659 3.783Z"/></g></svg>