<svg width="24" height="24" xmlns="http://www.w3.org/2000/svg"><path d="M4.182 14.696A2.19 2.19 0 0 1 2 12.502c0-1.21.977-2.193 2.182-2.193 1.206 0 2.183.982 2.183 2.193a2.188 2.188 0 0 1-2.183 2.194Zm0-3.653c-.8 0-1.451.655-1.451 1.46 0 .804.651 1.458 1.451 1.458s1.452-.654 1.452-1.459a1.451 1.451 0 0 0-1.452-1.459Zm0 10.957A2.19 2.19 0 0 1 2 19.807c0-1.211.977-2.193 2.182-2.193 1.206 0 2.183.982 2.183 2.193A2.188 2.188 0 0 1 4.182 22Zm0-3.652c-.8 0-1.451.654-1.451 1.459 0 .804.651 1.459 1.451 1.459s1.452-.655 1.452-1.46c0-.804-.647-1.458-1.452-1.458Zm0-10.962A2.19 2.19 0 0 1 2 5.193C2 3.982 2.977 3 4.182 3c1.206 0 2.183.982 2.183 2.193a2.188 2.188 0 0 1-2.183 2.193Zm0-3.652c-.8 0-1.451.655-1.451 1.46 0 .804.651 1.458 1.451 1.458s1.452-.654 1.452-1.459c0-.804-.647-1.459-1.452-1.459ZM22 4.828a.364.364 0 0 0-.363-.364H7.821a.364.364 0 0 0 0 .73h13.816c.2.004.363-.16.363-.366Zm0 7.674a.364.364 0 0 0-.363-.364H7.821a.364.364 0 0 0 0 .73h13.816c.2 0 .363-.165.363-.366Zm-2.545 7.674a.364.364 0 0 0-.363-.365H7.822a.364.364 0 0 0 0 .73h11.27c.2 0 .363-.164.363-.365Zm1.089 0c0 .402.325.73.725.73a.729.729 0 0 0 0-1.46c-.4 0-.725.323-.725.73" fill="#313235" fill-rule="nonzero"/></svg>