<svg width="24" height="24" xmlns="http://www.w3.org/2000/svg"><path d="M12.5 2a6.18 6.18 0 0 1 4.461 1.889c.14.148.14.372 0 .516a.326.326 0 0 1-.49 0C15.416 3.293 14.05 2.74 12.5 2.74c-3.303 0-5.798 2.777-5.798 6.479 0 4.554 4.64 10.444 5.798 11.853 1.162-1.409 5.798-7.3 5.798-11.853 0-.556-.073-1.073-.175-1.593-.034-.184.072-.408.28-.444a.359.359 0 0 1 .422.296c.107.556.175 1.149.175 1.74 0 5.443-5.976 12.37-6.253 12.666A.347.347 0 0 1 12.5 22a.31.31 0 0 1-.247-.112C11.973 21.592 6 14.665 6 9.223 6 5.113 8.81 2 12.5 2Zm5.27 2.961c.388 0 .702.332.702.74 0 .41-.314.74-.702.74-.388 0-.703-.33-.703-.74 0-.408.315-.74.703-.74Z" fill="#313235" fill-rule="nonzero"/></svg>