<svg width="24" height="24" xmlns="http://www.w3.org/2000/svg"><path d="M21.246 21.246H13.7a3.398 3.398 0 0 1-3.396-3.396v-1.13c0-1.89-1.555-2.348-2.806-2.715-1.208-.358-1.957-.638-2.102-1.464V11.44a2.458 2.458 0 0 0-2.454-2.454h-.188V6.53h7.744c.193 2.42 3.86 7.899 4.019 8.136a.375.375 0 0 0 .314.164.387.387 0 0 0 .314-.164c.16-.237 3.826-5.715 4.02-8.136h1.705v10.57a.377.377 0 0 0 .753 0V5.773H19.13C18.86 3.618 17.072 2 14.83 2c-2.24 0-4.028 1.618-4.299 3.773H2V22h19.246a.377.377 0 0 0 0-.754ZM14.831 2.754a3.547 3.547 0 0 1 3.584 3.584c0 1.58-2.352 5.532-3.584 7.43-1.232-1.898-3.585-5.85-3.585-7.43a3.547 3.547 0 0 1 3.585-3.584ZM2.754 21.246V9.734h.188c.937 0 1.7.764 1.7 1.7v1.131c0 .02 0 .039.005.058.213 1.387 1.503 1.768 2.638 2.102 1.41.415 2.266.758 2.266 1.995V18c0 .024 0 .043.005.063a4.153 4.153 0 0 0 1.768 3.183h-8.57Zm13.87-14.908a1.792 1.792 0 1 0-3.584-.001 1.792 1.792 0 0 0 3.583.001ZM14.83 7.377a1.04 1.04 0 0 1-1.039-1.039c0-.575.464-1.038 1.039-1.038.57 0 1.039.463 1.039 1.038a1.04 1.04 0 0 1-1.04 1.039ZM22 19.357a.755.755 0 0 1-1.507 0 .755.755 0 0 1 1.507 0Z" fill="#313235" fill-rule="nonzero"/></svg>