<svg width="24" height="24" xmlns="http://www.w3.org/2000/svg"><g transform="translate(5 2)" fill="#003" fill-rule="nonzero"><circle cx="10.91" cy="11.428" r="1"/><path d="M13.297 7.856h-.34V5.712C12.957 2.564 10.509 0 7.5 0 4.49 0 2.043 2.564 2.043 5.716V7.86h-.34C.763 7.86 0 8.66 0 9.644v8.572C0 19.2.764 20 1.703 20h11.594c.94 0 1.703-.8 1.703-1.784V9.644c0-.984-.764-1.788-1.703-1.788Zm-10.57-2.14c0-2.756 2.142-5 4.773-5s4.773 2.244 4.773 5V7.86H2.727V5.716Zm11.593 12.5c0 .592-.458 1.072-1.023 1.072H1.703c-.565 0-1.023-.48-1.023-1.072V9.644c0-.592.458-1.072 1.023-1.072h11.594c.565 0 1.023.48 1.023 1.072v8.572Z"/><path d="m9.306 12.604-2.826 2.96-1.462-1.532a.328.328 0 0 0-.481 0 .367.367 0 0 0 0 .504l1.947 2.04 3.311-3.468a.367.367 0 0 0 0-.504.337.337 0 0 0-.489 0Z"/></g></svg>