<svg width="24" height="24" xmlns="http://www.w3.org/2000/svg"><path d="m20.866 20.04-3.762-.62V2.894l3.762.619v16.526ZM2.82 3.514l3.958-.624v16.526l-3.958.625V3.515Zm9.431.706 4.03-1.255v16.499l-4.03 1.252V4.221ZM7.6 2.975l3.835 1.243v16.493L7.6 19.468V2.975Zm13.743-.216-4.583-.753c-.011-.003-.02.002-.028.002-.014 0-.022-.008-.036-.008-.028 0-.05.011-.076.014-.014.003-.03-.003-.045.003l-4.728 1.47L7.314 2.02c-.014-.006-.031 0-.045-.003C7.24 2.01 7.216 2 7.188 2c-.012 0-.023.006-.037.008l-.028-.002-4.776.753A.41.41 0 0 0 2 3.165v17.356a.41.41 0 0 0 .409.409c.022 0 .042-.003.064-.006l4.681-.736 4.56 1.476a.39.39 0 0 0 .247.003l4.759-1.48 4.487.74a.409.409 0 0 0 .477-.403V3.165a.407.407 0 0 0-.342-.406Z" fill="#313235" fill-rule="nonzero"/></svg>