<svg width="24" height="24" xmlns="http://www.w3.org/2000/svg"><path d="M18.303 21.287H4.701v-9.285h1.045c.103 0 .246-.073.277-.178l1.465-2.322 2.51 4.466a.37.37 0 0 0 .312.178.364.364 0 0 0 .313-.178l1.848-3.429.943 1.322c.071.105.245.141.348.141h1.393c.21 0 .348-.141.348-.356s-.138-.357-.348-.357h-1.393L12.645 9.68c-.071-.105-.174-.142-.312-.142-.103 0-.21.073-.277.179l-1.777 3.323L7.8 8.61a.37.37 0 0 0-.312-.178.364.364 0 0 0-.313.178l-1.603 2.68h-.87V4.861c0-.608.455-1.07 1.044-1.07h1.746v1.787h7.677V3.787h1.741c.594 0 1.045.467 1.045 1.07v12.498c0 .215.138.357.348.357.21 0 .349-.142.349-.357V4.862c0-1.001-.768-1.788-1.746-1.788H15.16V2H7.492v1.07H5.746C4.768 3.07 4 3.856 4 4.857V22h14.303c.21 0 .349-.142.349-.357 0-.214-.139-.356-.349-.356ZM8.19 2.717h6.278v2.145H8.19V2.718Zm6.975 14.286H7.492c-.21 0-.348.142-.348.357s.138.357.348.357h7.677c.21 0 .348-.142.348-.357s-.143-.357-.353-.357Zm3.14 1.783a.706.706 0 0 0-.697.713c0 .394.312.714.696.714.384 0 .697-.32.697-.714a.706.706 0 0 0-.697-.713Z" fill="#313235" fill-rule="nonzero" opacity=".9"/></svg>