<svg width="24" height="24" xmlns="http://www.w3.org/2000/svg"><path d="M15.746 2c1.795 0 3.25 1.444 3.25 3.215v.66c.004.016.004.032.004.048s0 .032-.004.048v12.814c0 1.775-1.46 3.215-3.25 3.215H9.25C7.455 22 6 20.556 6 18.785V5.215C6 3.44 7.46 2 9.25 2Zm2.526 4.283H6.724v11.43h7.579c.198 0 .36.16.36.356a.359.359 0 0 1-.36.356h-7.58v.356c0 1.38 1.132 2.5 2.527 2.5h6.5c1.39 0 2.526-1.12 2.522-2.496V6.283Zm-1.802 11.07c.4 0 .723.32.723.716a.72.72 0 0 1-.723.716.72.72 0 0 1-.724-.716.72.72 0 0 1 .724-.716Zm-.724-14.637H9.25c-1.39 0-2.526 1.12-2.526 2.5v.351h11.548v-.352c0-1.38-1.131-2.5-2.526-2.5Z" fill="#313235" fill-rule="nonzero"/></svg>