<svg width="24" height="24" xmlns="http://www.w3.org/2000/svg"><path d="M20.147 2h-5.555c-1.037 0-1.853.825-1.853 1.876v.749H3.853C2.815 4.625 2 5.45 2 6.501v14.623C2 22.174 2.815 23 3.853 23h11.11c1.037 0 1.852-.825 1.852-1.876v-3c0-.225-.147-.374-.37-.374-.222 0-.37.149-.37.374v3c0 .638-.483 1.123-1.108 1.123H3.853c-.63 0-1.109-.49-1.109-1.123v-.375H12c.223 0 .37-.148.37-.374s-.147-.374-.37-.374H2.744V7.624h9.995v7.122c0 1.05.816 1.876 1.853 1.876h5.555c1.038 0 1.853-.825 1.853-1.876V3.876C22 2.826 21.185 2 20.147 2Zm-6.664 3.378h7.778v7.875h-7.778V5.378Zm1.11-2.625h5.554c.63 0 1.109.49 1.109 1.123v.749h-7.773v-.749c0-.638.48-1.123 1.11-1.123ZM2.743 6.876V6.5c0-.638.483-1.123 1.11-1.123h8.885v1.498H2.744Zm17.403 8.998h-5.555c-.63 0-1.109-.49-1.109-1.123v-.749h7.778v.749c-.005.638-.484 1.123-1.114 1.123Zm-6.664 4.501c0 .413.332.749.74.749.407 0 .74-.336.74-.749a.745.745 0 0 0-.74-.749.745.745 0 0 0-.74.749Z" fill="#313235" fill-rule="nonzero"/></svg>