<svg width="24" height="24" xmlns="http://www.w3.org/2000/svg"><path d="M12 11.644c.212 0 .356.144.356.356v9.644c0 .212-.14.356-.356.356-.216 0-.356-.144-.356-.356V12c0-.216.144-.356.356-.356Zm7.248 6.068a.716.716 0 1 1 0 1.432.716.716 0 0 1 0-1.432ZM12 2c5.5 0 10 4.5 10 10 0 1.68-.428 3.32-1.212 4.784-.108.18-.324.252-.5.144-.18-.108-.252-.324-.144-.5A8.971 8.971 0 0 0 21.288 12c0-5.108-4.18-9.284-9.284-9.284C6.9 2.716 2.716 6.892 2.716 12c0 2.392.896 4.64 2.536 6.392a.343.343 0 0 1 0 .5.324.324 0 0 1-.252.104.327.327 0 0 1-.252-.108A9.954 9.954 0 0 1 2 12C2 6.5 6.5 2 12 2Zm0 2.856c3.932 0 7.144 3.212 7.144 7.144 0 1.824-.68 3.536-1.892 4.856a.38.38 0 0 1-.5.036.38.38 0 0 1-.036-.5A6.459 6.459 0 0 0 18.428 12c0-3.536-2.892-6.428-6.428-6.428S5.572 8.464 5.572 12c0 1.644.608 3.18 1.712 4.356.144.144.144.356-.036.5-.036.072-.14.108-.212.108a.327.327 0 0 1-.252-.108A7.01 7.01 0 0 1 4.856 12c0-3.932 3.212-7.144 7.144-7.144Zm0 2.892a4.297 4.297 0 0 1 4.284 4.284c0 1.036-.396 2.036-1.072 2.824-.072.036-.176.108-.248.108a.667.667 0 0 1-.252-.072c-.144-.144-.18-.356-.036-.5.572-.644.896-1.5.896-2.356A3.583 3.583 0 0 0 12 8.464a3.583 3.583 0 0 0-3.572 3.572c0 .856.324 1.712.896 2.356.144.144.108.356-.036.5-.144.144-.356.108-.5-.036a4.322 4.322 0 0 1-1.072-2.824A4.297 4.297 0 0 1 12 7.748Z" fill="#313235" fill-rule="nonzero"/></svg>