<svg width="24" height="24" xmlns="http://www.w3.org/2000/svg"><path d="M9.943 21.274c0 .4-.31.726-.69.726-.38 0-.69-.326-.69-.726 0-.4.31-.727.69-.727.38 0 .69.326.69.727ZM21 7.819c0 .801-.62 1.453-1.38 1.453-.256 0-.49-.08-.699-.205l-4.714 4.963.477.503a1.134 1.134 0 0 1 0 1.54l-3.799 4a.337.337 0 0 1-.243.107.337.337 0 0 1-.244-.107.37.37 0 0 1 0-.512l3.8-4a.38.38 0 0 0 0-.512L8.603 9.165a.335.335 0 0 0-.487 0l-5.528 5.82a.327.327 0 0 1-.487 0 .375.375 0 0 1 0-.513l5.529-5.82a1.017 1.017 0 0 1 1.464 0l.477.503 4.715-4.967a1.511 1.511 0 0 1-.194-.735c0-.801.619-1.453 1.38-1.453.76 0 1.38.652 1.38 1.453 0 .8-.62 1.452-1.38 1.452-.257 0-.491-.08-.7-.205l-4.714 4.968 1.583 1.666 6.794-7.146a1.511 1.511 0 0 1-.195-.735c0-.801.62-1.453 1.38-1.453.76 0 1.38.652 1.38 1.453 0 .8-.62 1.452-1.38 1.452-.256 0-.49-.08-.699-.205l-6.789 7.151 1.584 1.667 4.719-4.968a1.511 1.511 0 0 1-.195-.735c0-.801.62-1.453 1.38-1.453.76 0 1.38.652 1.38 1.457Zm-2.07-4.366c0 .4.31.726.69.726.38 0 .69-.326.69-.726 0-.4-.31-.727-.69-.727-.38 0-.69.326-.69.727Zm-4.149 0c0 .4.31.726.69.726.38 0 .69-.326.69-.726 0-.4-.31-.727-.69-.727-.38 0-.69.326-.69.727Zm5.529 4.366c0-.4-.31-.726-.69-.726-.38 0-.69.326-.69.726 0 .4.31.727.69.727.38 0 .69-.326.69-.727Z" fill="#313235" fill-rule="nonzero" opacity=".9"/></svg>