<svg width="24" height="24" xmlns="http://www.w3.org/2000/svg"><path d="M19.123 21.287H5.693V7.714h4.823V2.718h8.267V17.36a.35.35 0 0 0 .344.357.35.35 0 0 0 .344-.357V2h-9.445l-.101.105L5 7.211V22h14.123a.35.35 0 0 0 .343-.357.348.348 0 0 0-.343-.356ZM6.177 7l3.647-3.78V7H6.177Zm13.638 12.503a.702.702 0 0 1-.688.713.702.702 0 0 1-.688-.713c0-.393.309-.713.688-.713.38 0 .688.315.688.713Zm-8.44-3.575v-1.787h-.343a.35.35 0 0 1-.344-.357.35.35 0 0 1 .344-.356h.344v-1.61c0-1.083.85-1.965 1.896-1.965.432 0 .855.155 1.19.439.15.123.172.347.053.502a.34.34 0 0 1-.485.055 1.156 1.156 0 0 0-.758-.279c-.666 0-1.204.563-1.204 1.248v1.61h1.724c.19 0 .344.16.344.356a.35.35 0 0 1-.344.357h-1.724v1.787c0 .26-.066.503-.185.713h3.113c.19 0 .344.16.344.357a.35.35 0 0 1-.344.356h-4.313A.35.35 0 0 1 10.34 17a.35.35 0 0 1 .343-.357c.388.005.693-.31.693-.713Z" fill="#313235" fill-rule="nonzero"/></svg>