<svg width="24" height="24" xmlns="http://www.w3.org/2000/svg"><g transform="translate(2 1)" fill="#0019A5" fill-rule="nonzero"><path d="M18.999 1.052a3.315 3.315 0 0 0-4.844 0l-.722.757L1.692 14.137c-.012.013-.02.021-.028.034l-.008.008c-.008.009-.012.021-.02.03 0 .004-.004.008-.004.008-.008.013-.012.025-.016.038v.004l-.017.042v.005L.012 20.524c-.033.13.004.27.092.367a.352.352 0 0 0 .349.096l5.922-1.663a.378.378 0 0 0 .257-.27.404.404 0 0 0-.092-.365l-4.082-4.282 11.227-11.79 3.826 4.017-8.597 9.019a.392.392 0 0 0 0 .535c.072.075.164.11.256.11a.366.366 0 0 0 .257-.11l8.85-9.293.722-.757c1.335-1.402 1.335-3.684 0-5.086ZM.869 20.086l1.264-4.947L5.58 18.76.87 20.086ZM18.49 5.603l-.465.488L14.2 2.075l.465-.489a2.618 2.618 0 0 1 3.825 0c1.055 1.108 1.055 2.91 0 4.017Z"/><circle cx="7.727" cy="17.438" r="1"/></g></svg>