<svg width="24" height="24" xmlns="http://www.w3.org/2000/svg"><path d="M13.819 6.754a2.7 2.7 0 0 0 .961-2.075C14.78 3.202 13.61 2 12.171 2c-1.438 0-2.608 1.202-2.608 2.679 0 .8.347 1.518.894 2.011C9.064 6.933 8 8.18 8 9.68v6.25h1.389v5.713c0 .197.156.357.347.357.192 0 .347-.16.347-.357v-6.427H8.694V9.68c0-1.257 1.038-2.322 2.262-2.322h2.088c1.224 0 2.262 1.065 2.262 2.322v5.536h-1.39v3.927c0 .196.156.356.348.356.191 0 .347-.16.347-.356v-3.214H16V9.68c-.004-1.394-.926-2.574-2.181-2.926ZM10.257 4.68c0-1.084.86-1.966 1.914-1.966 1.055 0 1.915.882 1.915 1.966 0 1.083-.86 1.966-1.92 1.966-1.054-.005-1.909-.883-1.909-1.966Zm4.697 16.608a.705.705 0 0 1-.695.713.705.705 0 0 1-.694-.713c0-.393.311-.713.694-.713.383 0 .695.32.695.713Z" fill="#313235" fill-rule="nonzero" opacity=".9"/></svg>