<svg width="24" height="24" xmlns="http://www.w3.org/2000/svg"><g fill="#313235" fill-rule="nonzero"><path d="m17.591 21-2.138-3.793a.383.383 0 0 1 .138-.52.364.364 0 0 1 .507.141l1.655 2.938.886-.908c.28-.286.389-.709.29-1.098l-2.215-8.465 4.167-4.27c.507-.519.507-1.36 0-1.879-.493-.5-1.346-.5-1.839 0l-4.167 4.27-8.263-2.269a1.088 1.088 0 0 0-1.07.297l-.887.908 7.139 4.225-4.674 4.79-2.48-.68a1.088 1.088 0 0 0-1.07.295l-.366.374 4.077 2.41c.436.257.986.184 1.341-.18l.237-.243 4.357-4.6a.362.362 0 0 1 .521-.01.383.383 0 0 1 .01.535l-4.598 4.847a1.825 1.825 0 0 1-2.238.301L2 15.512l1.048-1.074a1.828 1.828 0 0 1 1.787-.49l2.067.568 3.688-3.779-7.14-4.225 1.57-1.608a1.828 1.828 0 0 1 1.787-.49l7.85 2.156 3.864-3.958a2.002 2.002 0 0 1 2.882 0 2.124 2.124 0 0 1 0 2.953l-3.864 3.958 2.105 8.043c.17.651-.014 1.355-.479 1.831L17.591 21Z"/><path d="M14.22 14.9a.75.75 0 0 1 .74-.758c.408 0 .74.34.74.758a.75.75 0 0 1-.74.757.75.75 0 0 1-.74-.757"/></g></svg>