<svg width="24" height="24" xmlns="http://www.w3.org/2000/svg"><path d="m6.655 2.239 13.514 8.227c.477.288.784.792.818 1.331a1.77 1.77 0 0 1-.545 1.508c-.137.144-.341.108-.478-.036-.136-.144-.102-.36.035-.504.238-.216.34-.54.306-.9a1.074 1.074 0 0 0-.477-.791L6.352 2.85c-.34-.216-.75-.18-1.125.036-.34.216-.545.54-.545.9v16.527c0 .324.17.648.477.827.375.216.818.216 1.193.036l10.28-6.256c.17-.108.374-.036.477.144a.375.375 0 0 1-.137.503l-10.28 6.217a2.042 2.042 0 0 1-.92.216c-.34 0-.647-.072-.954-.252-.511-.324-.818-.863-.818-1.435V3.782c0-.612.34-1.188.852-1.507.58-.36 1.261-.36 1.803-.036ZM18.64 13.305c.376 0 .682.322.682.72 0 .397-.306.719-.682.719-.377 0-.682-.322-.682-.72 0-.397.305-.72.682-.72Z" fill="#313235" fill-rule="nonzero"/></svg>