<svg width="24" height="24" xmlns="http://www.w3.org/2000/svg"><path d="M12 22C6.488 22 2 17.516 2 12S6.488 2 12 2s10 4.488 10 10a9.98 9.98 0 0 1-1.54 5.33.36.36 0 0 1-.494.109.36.36 0 0 1-.11-.494 9.247 9.247 0 0 0 1.431-4.95C21.282 6.881 17.119 2.718 12 2.718 6.881 2.718 2.718 6.88 2.718 12S6.88 21.282 12 21.282a9.247 9.247 0 0 0 4.95-1.43.36.36 0 0 1 .493.11.36.36 0 0 1-.11.493A9.971 9.971 0 0 1 12 22Zm7.5-3.218a.714.714 0 0 0-1.426 0 .714.714 0 0 0 1.426 0Zm-2.962-1.887a.35.35 0 0 0 0-.503l-4.387-4.387 4.387-4.388a.35.35 0 0 0 0-.503.354.354 0 0 0-.502 0l-4.644 4.635a.35.35 0 0 0 0 .502l4.644 4.644c.068.068.16.105.251.105a.365.365 0 0 0 .251-.105Zm-6.07 0a.35.35 0 0 0 0-.503l-4.387-4.387 4.388-4.388a.35.35 0 0 0 0-.503.354.354 0 0 0-.503 0L5.323 11.75a.35.35 0 0 0 0 .502l4.643 4.644c.069.068.16.105.252.105a.365.365 0 0 0 .25-.105Z" fill="#313235" fill-rule="nonzero"/></svg>