<svg width="24" height="24" xmlns="http://www.w3.org/2000/svg"><g transform="translate(2 2)" fill="#313235" fill-rule="nonzero"><path d="m19.895 19.392-7.091-7.096-.004-.004-.004-.004a.355.355 0 0 0-.504 0A6.734 6.734 0 0 1 7.5 14.284 6.793 6.793 0 0 1 .716 7.5 6.793 6.793 0 0 1 7.5.716 6.793 6.793 0 0 1 14.284 7.5c0 .352-.032.712-.1 1.1a.355.355 0 0 0 .292.412.355.355 0 0 0 .412-.292 7.34 7.34 0 0 0 .108-1.22C15 3.364 11.636 0 7.5 0 3.364 0 0 3.364 0 7.5S3.364 15 7.5 15a7.434 7.434 0 0 0 5.036-1.956l6.852 6.852a.357.357 0 0 0 .503 0 .351.351 0 0 0 .004-.504Z"/><circle cx="13.928" cy="10.716" r="1"/></g></svg>