<svg width="24" height="24" xmlns="http://www.w3.org/2000/svg"><path d="M13.484 2c.224 0 .372.148.372.372v1.332a8.695 8.695 0 0 1 2.704 1.112l.92-.928a.334.334 0 0 1 .26-.112c.112 0 .184.036.26.112L20.108 6a.36.36 0 0 1 0 .52l-.924.924c.52.852.924 1.74 1.112 2.704h1.332c.224 0 .372.148.372.372v2.964c0 .224-.148.372-.372.372h-1.332a8.695 8.695 0 0 1-1.112 2.704l.924.924a.36.36 0 0 1 0 .52L18 20.108a.36.36 0 0 1-.52 0l-.924-.924c-.852.52-1.74.924-2.704 1.112v1.332c0 .224-.148.372-.372.372h-2.964c-.224 0-.372-.148-.372-.372v-1.332a8.695 8.695 0 0 1-2.704-1.112l-.92.924a.36.36 0 0 1-.52 0L3.888 18a.334.334 0 0 1-.112-.26c0-.112.036-.184.112-.26l.924-.924c-.52-.852-.924-1.74-1.112-2.704H2.372c-.224 0-.372-.148-.372-.372v-2.96c0-.224.148-.372.372-.372h1.332a8.695 8.695 0 0 1 1.112-2.704l-.924-.924a.334.334 0 0 1-.112-.26c0-.112.036-.184.112-.26L6 3.888a.334.334 0 0 1 .26-.112c.112 0 .184.036.26.112l.924.924c.852-.52 1.74-.924 2.704-1.112V2.372c0-.224.148-.372.372-.372h2.964Zm-.372.74h-2.224V4a.363.363 0 0 1-.296.372c-1.072.184-2.072.628-3 1.224-.148.112-.336.076-.484-.036l-.888-.888-1.556 1.556.888.888a.39.39 0 0 1 .036.484 7.404 7.404 0 0 0-1.224 3c-.036.184-.184.296-.372.296H2.74v2.22H4c.184 0 .336.112.372.296.184 1.072.628 2.072 1.224 3 .112.148.076.336-.036.484l-.888.888 1.556 1.556.888-.888a.39.39 0 0 1 .484-.036 7.404 7.404 0 0 0 3 1.224c.184.036.296.184.296.372-.005-.01-.007.398-.007.75l-.001.476v.018h2.224v-1.26c0-.184.112-.336.296-.372 1.072-.184 2.072-.628 3-1.224.148-.112.336-.076.484.036l.888.888 1.556-1.556-.888-.888a.39.39 0 0 1-.036-.484 7.404 7.404 0 0 0 1.224-3c.036-.184.184-.296.372-.296h1.26v-2.224h-1.26a.363.363 0 0 1-.372-.296c-.164-.953-.533-1.849-1.031-2.688l-.193-.312c-.112-.148-.076-.336.036-.484l.888-.888-1.556-1.556-.888.888a.39.39 0 0 1-.484.036 7.404 7.404 0 0 0-3-1.224c-.184-.036-.296-.184-.296-.372V2.74ZM12 6.072c3.26 0 5.924 2.668 5.924 5.928 0 .852-.184 1.704-.52 2.444-.076.184-.296.26-.484.184-.184-.076-.26-.296-.184-.484a5.31 5.31 0 0 0 .444-2.148 5.198 5.198 0 0 0-5.184-5.184c-2.852 0-5.184 2.336-5.184 5.188a5.198 5.198 0 0 0 5.184 5.184c.592 0 1.148-.112 1.664-.296.184-.076.408.036.484.224.076.188-.036.408-.224.484a5.799 5.799 0 0 1-1.92.328c-3.26 0-5.928-2.668-5.928-5.928S8.74 6.072 12 6.072Zm3.7 9.26a.74.74 0 1 1 0 1.48.74.74 0 0 1 0-1.48Z" fill="#313235" fill-rule="nonzero" opacity=".9"/></svg>