<svg width="24" height="24" xmlns="http://www.w3.org/2000/svg"><path d="M15.227 20.863c0 .391-.306.71-.68.71-.376 0-.681-.319-.681-.71 0-.39.305-.709.68-.709.375 0 .68.318.68.71ZM20 5.133v9.588c0 2.169-1.078 3.978-3.229 5.374a.33.33 0 0 1-.467-.114.364.364 0 0 1 .11-.49c1.963-1.278 2.918-2.838 2.918-4.77v-3.023H12.84v9.947a.348.348 0 0 1-.34.355c-.105 0-.34-.095-.34-.095C8.774 20.745 5 18.867 5 14.72V5.133h.34c3.9 0 6.916-2.897 6.946-2.924L12.5 2l.214.21c.03.026 3.045 2.923 6.946 2.923H20Zm-7.84 6.57H5.685v3.018c0 3.61 3.368 5.347 6.475 6.433v-9.452Zm0-8.462c-1.065.855-3.469 2.478-6.475 2.592v5.155h6.475V3.241Zm7.168 2.587c-3.04-.114-5.45-1.768-6.488-2.614v7.779h6.484V5.828h.004Z" fill="#313235" fill-rule="nonzero"/></svg>