<svg width="24" height="24" xmlns="http://www.w3.org/2000/svg"><g fill="#0019A5" fill-rule="nonzero"><path d="M18.436 6.615H15.62v-.96C15.62 3.655 13.98 2 12 2c-1.98 0-3.62 1.656-3.62 3.655v.964H5.564L4 19.656v.036c0 1.156.61 1.924 1.525 1.924h8c.23 0 .38-.156.38-.384 0-.232-.155-.384-.38-.384h-8c-.685 0-.76-.844-.76-1.116L6.25 7.387h11.5l1.486 12.345c0 .308-.076 1.116-.76 1.116h-.381c-.23 0-.38.156-.38.384 0 .232.154.384.38.384h.38c.915 0 1.525-.768 1.525-1.924L18.436 6.615Zm-9.291 0v-.96c0-1.575 1.295-2.883 2.855-2.883s2.855 1.308 2.855 2.883v.964h-5.71v-.004Z"/><path d="M15.806 20.464c-.42 0-.76.344-.76.768 0 .424.34.768.76.768s.76-.344.76-.768a.762.762 0 0 0-.76-.768Z"/></g></svg>