<svg width="24" height="24" xmlns="http://www.w3.org/2000/svg"><path d="M15.806 20.464c.42 0 .764.344.76.768 0 .424-.34.768-.76.768a.764.764 0 0 1-.76-.768c0-.424.34-.768.76-.768ZM12 2c1.98 0 3.62 1.656 3.62 3.655v.96h2.816L20 19.692c0 1.156-.61 1.924-1.525 1.924h-.38c-.226 0-.38-.152-.38-.384 0-.228.15-.384.38-.384h.38c.685 0 .76-.808.76-1.116L17.75 7.387H6.25L4.764 19.732c0 .272.076 1.116.76 1.116h8c.226 0 .381.152.381.384 0 .228-.15.384-.38.384h-8C4.61 21.616 4 20.848 4 19.692v-.036L5.564 6.62H8.38v-.964C8.38 3.655 10.02 2 12 2Zm0 .772c-1.56 0-2.855 1.308-2.855 2.883v.964h5.71v-.964c0-1.575-1.295-2.883-2.855-2.883Z" fill="#313235" fill-rule="nonzero"/></svg>