<svg width="24" height="24" xmlns="http://www.w3.org/2000/svg"><path d="M16.313 20.476a.843.843 0 0 0-.661-.328.843.843 0 0 0-.692.375H8.943a.847.847 0 0 0-.692-.375.84.84 0 0 0-.65.316c-1.89-.305-3.868-1.829-3.868-3.672v-2.639h16.538l.003 2.64c-.006 1.87-2.045 3.41-3.96 3.683m-12.768-8.26H20.45c.311 0 .563.251.563.556 0 .306-.252.56-.563.56H3.546a.562.562 0 0 1-.563-.56c0-.308.254-.557.563-.557M13.7 11.11c.179-.154.526-.149.633-.132a.42.42 0 0 0 .316-.081c.09-.07.149-.171.16-.283.022-.241.1-.406.235-.502.23-.165.614-.12.74-.09a.419.419 0 0 0 .395-.108c.263-.264.523-.381.77-.359.412.034.784.431.894.58.084.123.23.185.38.17.513-.05.905.037 1.163.264.302.272.361.68.375.826h-6.19c.022-.185.098-.26.129-.285m-3.152-4.731-2.039.03v-.03c0-.558.457-1.012 1.02-1.012s1.02.454 1.02 1.012m11.294 6.394c0-.714-.552-1.296-1.255-1.364-.009-.201-.079-.932-.642-1.442-.395-.356-.927-.527-1.585-.496-.233-.255-.715-.683-1.342-.737-.448-.045-.874.112-1.272.451-.285-.03-.776-.03-1.182.255a1.35 1.35 0 0 0-.51.714c-.266.017-.613.093-.896.331-.18.154-.384.443-.417.91H4.98V5.03c0-1.129.927-2.05 2.067-2.05.983 0 1.818.7 2.017 1.63a1.83 1.83 0 0 0-1.381 1.765v.199c0 .358.297.652.658.652h2.375a.656.656 0 0 0 .659-.652v-.2c0-.884-.636-1.627-1.482-1.795a2.895 2.895 0 0 0-2.846-2.423c-1.597 0-2.894 1.286-2.894 2.869v6.364h-.607c-.768 0-1.39.616-1.39 1.378 0 .535.308.991.757 1.221-.003.017-.012.034-.012.05v2.746c0 2.283 2.292 4.106 4.547 4.479a.848.848 0 0 0 1.58.073h5.845a.859.859 0 0 0 .779.504c.37 0 .68-.238.801-.563 2.286-.336 4.644-2.177 4.644-4.496l-.002-2.801c.44-.219.748-.675.748-1.208" fill="#313235" fill-rule="nonzero"/></svg>