<svg width="24" height="24" xmlns="http://www.w3.org/2000/svg"><path d="M22 8.073v6.65c0 1.519-.992 2.843-2.41 3.221a.356.356 0 0 1-.433-.265.368.368 0 0 1 .256-.449c1.101-.293 1.874-1.324 1.874-2.507v-6.65c0-1.897-1.38-3.326-3.214-3.326H5.927c-1.833 0-3.214 1.429-3.214 3.326v5.912c0 1.897 1.38 3.326 3.214 3.326.196 0 .356.165.356.368v2.063l2.25-2.327a.39.39 0 0 1 .114-.08.356.356 0 0 1 .137-.03h6.427c.197 0 .357.166.357.37 0 .203-.16.369-.357.369h-6.28L6.177 20.89a.351.351 0 0 1-.388.08.372.372 0 0 1-.22-.34v-2.606C3.513 17.85 2 16.17 2 13.975V8.064C2 5.745 3.687 4 5.927 4h12.142C20.309 4.005 22 5.755 22 8.073Zm-4.645 8.869a.727.727 0 0 0-.713.737c0 .407.32.738.713.738a.727.727 0 0 0 .714-.738.727.727 0 0 0-.714-.737Zm-3.57-3.7a.363.363 0 0 0 .357-.368V9.179a.367.367 0 0 0-.275-.359.358.358 0 0 0-.402.194l-1.467 3.037-1.468-3.037a.356.356 0 0 0-.402-.194.367.367 0 0 0-.274.36v3.694c0 .203.16.369.356.369a.363.363 0 0 0 .357-.37v-2.128l1.11 2.294c.12.25.517.25.64 0l1.112-2.294v2.129a.358.358 0 0 0 .356.369Zm-5.91-.737c-.216 0-.398-.033-.554-.104a.35.35 0 0 0-.466.194c-.078.189.009.406.187.482.252.109.521.16.837.16.804 0 1.362-.548 1.362-1.333 0-.728-.576-1.022-.996-1.24l-.055-.028c-.416-.217-.677-.392-.677-.615 0-.33.338-.482.677-.482.06 0 .26.005.461.061a.358.358 0 0 0 .44-.255.368.368 0 0 0-.248-.454 2.513 2.513 0 0 0-.653-.09c-.805 0-1.39.51-1.39 1.22 0 .724.672 1.07 1.07 1.278l.055.028c.425.218.598.331.598.577 0 .544-.457.6-.649.6Zm7.93 0c-.214 0-.397-.033-.552-.104a.35.35 0 0 0-.467.194c-.077.189.01.406.188.482.251.109.52.16.836.16.805 0 1.363-.548 1.363-1.333 0-.728-.576-1.022-.997-1.24l-.055-.028c-.416-.217-.676-.392-.676-.615 0-.33.338-.482.676-.482.06 0 .26.005.462.061a.358.358 0 0 0 .439-.255.368.368 0 0 0-.247-.454 2.513 2.513 0 0 0-.654-.09c-.804 0-1.39.51-1.39 1.22 0 .724.672 1.07 1.07 1.278l.055.028c.425.218.599.331.599.577 0 .544-.453.6-.65.6Z" fill="#003" fill-rule="nonzero"/></svg>