<svg width="24" height="24" xmlns="http://www.w3.org/2000/svg"><path d="M16.87 19.139c0-.393.312-.713.695-.713.383 0 .694.32.694.713a.705.705 0 0 1-.694.713.702.702 0 0 1-.695-.713ZM20 3.787v16.426c0 .983-.78 1.787-1.74 1.787H5.74C4.785 22 4 21.2 4 20.213V3.787C4 2.804 4.78 2 5.74 2h12.52c.96 0 1.74.804 1.74 1.787ZM4.694 4.5h14.607v-.713c0-.59-.467-1.07-1.042-1.07H5.741c-.575 0-1.042.48-1.042 1.07V4.5h-.005Zm14.612.718H4.694v13.569h10.783c.191 0 .347.16.347.357a.352.352 0 0 1-.347.356H4.694v.713c0 .59.468 1.07 1.042 1.07h12.519c.574 0 1.042-.48 1.042-1.07V5.218h.009Z" fill="#313235" fill-rule="nonzero"/></svg>