<svg width="24" height="24" xmlns="http://www.w3.org/2000/svg"><path d="M21.282 19.257c0 .41-.32.743-.713.743-.393 0-.713-.333-.713-.743s.32-.743.713-.743c.394 0 .713.333.713.743ZM22 14.422c0 .962-.128 1.915-.375 2.834a.352.352 0 0 1-.439.258.371.371 0 0 1-.246-.458 9.986 9.986 0 0 0 .347-2.634 9.904 9.904 0 0 0-1.956-5.935l-4.488 8.126a3.4 3.4 0 0 1-.334.414 3.45 3.45 0 0 1-2.5 1.077 3.46 3.46 0 0 1-2.504-1.076c-1.38-1.439-1.38-3.778 0-5.216a3.26 3.26 0 0 1 .365-.324c.01-.01.023-.014.032-.024l5.014-3.01a6.214 6.214 0 0 0-2.911-.734c-3.542 0-6.426 3.006-6.426 6.697 0 1.868.763 3.668 2.093 4.935a.381.381 0 0 1 .023.524.34.34 0 0 1-.265.12.346.346 0 0 1-.243-.1 7.613 7.613 0 0 1-2.326-5.483c0-4.106 3.204-7.44 7.139-7.44 1.303 0 2.55.366 3.638 1.038l-.443.266 2.495-1.495a8.996 8.996 0 0 0-5.695-2.039c-5.118 0-9.282 4.34-9.282 9.674 0 1.772.466 3.511 1.344 5.016a.38.38 0 0 1-.12.51.335.335 0 0 1-.182.052.353.353 0 0 1-.306-.18A10.678 10.678 0 0 1 2 14.421C2 8.678 6.484 4 12 4c2.413 0 4.63.896 6.357 2.386l2.034-1.219a.342.342 0 0 1 .43.057.38.38 0 0 1 .055.448l-1.17 2.12A10.652 10.652 0 0 1 22 14.422Zm-2.4-7.921-9.332 5.597a2.134 2.134 0 0 0-.265.243c-1.102 1.148-1.102 3.015 0 4.163a2.747 2.747 0 0 0 3.994 0c.087-.09.165-.181.233-.277l5.37-9.726Z" fill="#313235" fill-rule="nonzero" opacity=".9"/></svg>