<svg width="24" height="24" xmlns="http://www.w3.org/2000/svg"><g transform="translate(2 5)" fill="#0019A5" fill-rule="nonzero"><circle cx="19.274" cy="12.258" r="1"/><path d="M11.347 6.162a2.621 2.621 0 0 0 1.02-2.073c0-1.436-1.14-2.6-2.546-2.6s-2.546 1.164-2.546 2.6c0 .847.4 1.598 1.02 2.073-1.28.39-2.11 1.275-2.11 2.383v4.084c0 .205.164.371.364.371.2 0 .363-.166.363-.37V8.544c0-1.075 1.224-1.86 2.909-1.86 1.685 0 2.909.78 2.909 1.86v4.084c0 .205.163.371.363.371.2 0 .363-.166.363-.37V8.544c0-1.113-.829-1.993-2.109-2.383ZM8.001 4.084c0-1.022.814-1.859 1.82-1.859 1 0 1.82.832 1.82 1.86 0 1.027-.815 1.859-1.82 1.859-1 0-1.82-.832-1.82-1.86ZM6.344 5.501c-.344-.36-.815-.637-1.373-.813A2.614 2.614 0 0 0 6 2.606C6 1.17 4.86.005 3.454.005S.908 1.17.908 2.605c0 .861.41 1.622 1.042 2.093C.754 5.102 0 6.005 0 7.16v5.468c0 .205.163.371.363.371.2 0 .363-.166.363-.37V7.155c0-1.15 1.122-1.954 2.728-1.954 1 0 1.88.304 2.364.813.14.147.368.152.512.01a.37.37 0 0 0 .014-.524Zm-4.706-2.9c0-1.022.815-1.86 1.82-1.86 1 0 1.82.833 1.82 1.86 0 1.027-.814 1.86-1.82 1.86-1.005-.006-1.82-.838-1.82-1.86ZM18.91 10.028c0 .205.164.371.364.371.2 0 .363-.166.363-.37V7.155c0-1.155-.754-2.059-1.95-2.463a2.625 2.625 0 0 0 1.042-2.092C18.73 1.165 17.59 0 16.183 0c-1.405 0-2.546 1.165-2.546 2.601a2.6 2.6 0 0 0 1.029 2.083c-.554.176-1.029.451-1.373.813a.374.374 0 0 0 .01.523.356.356 0 0 0 .511-.01c.48-.509 1.364-.813 2.365-.813 1.606 0 2.727.804 2.727 1.954v2.877h.005Zm-4.542-7.427c0-1.022.815-1.86 1.82-1.86 1 0 1.82.833 1.82 1.86 0 1.027-.815 1.86-1.82 1.86-1.005-.006-1.82-.838-1.82-1.86Z"/></g></svg>