<svg width="24" height="24" xmlns="http://www.w3.org/2000/svg"><path d="M11.82 6.488c1.406 0 2.547 1.165 2.547 2.601 0 .847-.405 1.598-1.02 2.073 1.28.39 2.109 1.27 2.109 2.383v4.084c0 .205-.163.371-.363.371a.367.367 0 0 1-.363-.37v-4.085c0-1.08-1.224-1.86-2.91-1.86-1.684 0-2.908.785-2.908 1.86v4.084c0 .205-.163.371-.363.371a.367.367 0 0 1-.363-.37v-4.085c0-1.108.828-1.993 2.108-2.383a2.608 2.608 0 0 1-1.02-2.073c0-1.436 1.141-2.6 2.547-2.6ZM5.455 5.005C6.859 5.005 8 6.17 8 7.605c0 .852-.405 1.608-1.03 2.083.56.176 1.03.452 1.374.813a.37.37 0 0 1-.014.524.356.356 0 0 1-.512-.01c-.484-.509-1.364-.813-2.364-.813-1.606 0-2.728.803-2.728 1.954v5.473c0 .205-.163.371-.363.371A.367.367 0 0 1 2 17.63v-5.47c0-1.155.754-2.058 1.95-2.462a2.598 2.598 0 0 1-1.042-2.092c0-1.436 1.14-2.601 2.546-2.601Zm15.82 11.511c.4 0 .726.333.726.742 0 .41-.325.742-.726.742a.734.734 0 0 1-.726-.742c0-.41.325-.742.726-.742ZM18.184 5c1.405 0 2.545 1.165 2.545 2.601 0 .856-.414 1.617-1.042 2.092 1.196.404 1.95 1.308 1.95 2.463v2.872c0 .205-.163.371-.363.371a.367.367 0 0 1-.363-.37h-.005V12.15c0-1.15-1.121-1.954-2.727-1.954-1.001 0-1.885.304-2.365.813a.356.356 0 0 1-.512.01.374.374 0 0 1-.009-.523c.344-.362.82-.637 1.373-.813A2.6 2.6 0 0 1 15.637 7.6c0-1.436 1.14-2.601 2.546-2.601ZM11.82 7.225c-1.006 0-1.82.837-1.82 1.86 0 1.027.82 1.859 1.82 1.859 1.005 0 1.82-.832 1.82-1.86 0-1.027-.82-1.859-1.82-1.859ZM5.458 5.742c-1.005 0-1.82.837-1.82 1.859s.815 1.854 1.82 1.86c1.006 0 1.82-.833 1.82-1.86 0-1.027-.82-1.86-1.82-1.86Zm12.73 0c-1.005 0-1.82.837-1.82 1.859s.815 1.854 1.82 1.86c1.005 0 1.82-.833 1.82-1.86 0-1.027-.82-1.86-1.82-1.86Z" fill="#313235" fill-rule="nonzero"/></svg>