<svg width="24" height="24" xmlns="http://www.w3.org/2000/svg"><path d="M8.168 21.098a.35.35 0 0 1-.253-.11.385.385 0 0 1 0-.529l3.864-4.044.216.088c2.524 1.033 5.385.407 7.298-1.592 1.782-1.864 2.42-4.59 1.706-7.084l-4.093 4.279a1.733 1.733 0 0 1-2.536 0l-2.026-2.12a1.938 1.938 0 0 1 0-2.65l4.093-4.285c-2.387-.747-4.991-.08-6.769 1.781-1.914 2.003-2.507 4.998-1.52 7.64l.084.226-5.621 5.88a.345.345 0 0 1-.506 0 .385.385 0 0 1 0-.53l5.292-5.535c-.975-2.86-.293-6.056 1.766-8.21 2.11-2.21 5.276-2.902 8.064-1.76l.51.21L12.85 7.86a1.168 1.168 0 0 0 0 1.592l2.026 2.12a1.04 1.04 0 0 0 1.52 0L21.28 6.47l.2.533c1.091 2.915.433 6.229-1.681 8.442-2.058 2.154-5.111 2.864-7.844 1.848l-3.535 3.7a.353.353 0 0 1-.252.105Zm-.859 1.15c0 .412-.32.752-.718.752-.397 0-.718-.336-.718-.752s.32-.751.718-.751c.397 0 .718.34.718.751" fill="#313235" fill-rule="nonzero" opacity=".9"/></svg>