<svg width="24" height="24" xmlns="http://www.w3.org/2000/svg"><path d="M9.262 23a.355.355 0 0 1-.255-.112l-2.498-2.621a.387.387 0 0 1 0-.537c.381-.4.381-1.06 0-1.46a.956.956 0 0 0-1.391 0 .355.355 0 0 1-.256.112.34.34 0 0 1-.256-.112L2.108 15.65a.387.387 0 0 1 0-.537L14.482 2.113a.345.345 0 0 1 .511 0l2.498 2.622a.39.39 0 0 1 0 .537c-.381.4-.381 1.059 0 1.46.382.4 1.01.4 1.391 0a.345.345 0 0 1 .512 0l2.498 2.62a.387.387 0 0 1 0 .537l-9.299 9.777a.354.354 0 0 1-.516 0 .387.387 0 0 1 0-.537l9.052-9.499-2.01-2.113c-.66.449-1.553.366-2.135-.24a1.865 1.865 0 0 1-.228-2.24l-2.014-2.113L2.871 15.376l2.014 2.108a1.66 1.66 0 0 1 2.135.24c.577.605.656 1.542.228 2.24l2.27 2.382a.387.387 0 0 1 0 .537.342.342 0 0 1-.256.117Zm1.559-2.729c-.4 0-.726.342-.726.762s.326.761.726.761c.4 0 .725-.341.725-.761s-.32-.762-.725-.762Zm-.089-3.826 1.522-1.675 2.149.503a.35.35 0 0 0 .367-.141.405.405 0 0 0 .033-.41l-1.066-2.085 1.14-1.928a.392.392 0 0 0-.01-.415.352.352 0 0 0-.367-.156l-2.19.44-1.424-1.753a.348.348 0 0 0-.382-.117.38.38 0 0 0-.255.322l-.256 2.29-2.056.907a.385.385 0 0 0-.224.347.38.38 0 0 0 .214.351l1.968.937.219 2.358a.377.377 0 0 0 .242.322c.037.015.079.02.12.02a.326.326 0 0 0 .256-.117Zm-.265-4.51a.376.376 0 0 0 .219-.308l.186-1.64 1.023 1.26a.36.36 0 0 0 .345.126l1.586-.317-.814 1.376a.384.384 0 0 0-.01.381l.791 1.547-1.577-.37a.353.353 0 0 0-.344.107l-1.112 1.225-.162-1.748a.39.39 0 0 0-.21-.312l-1.41-.669 1.49-.659Z" fill="#003" fill-rule="nonzero"/></svg>