<svg width="24" height="24" xmlns="http://www.w3.org/2000/svg"><g transform="translate(2 2)" fill="#0019A5" fill-rule="nonzero"><path d="M10 10.504 4.744 5.256a.362.362 0 0 1 0-.504.362.362 0 0 1 .504 0l4.744 4.744L12.6 6.888a.362.362 0 0 1 .504 0 .362.362 0 0 1 0 .504L10 10.504Z"/><path d="M10 20C4.484 20 0 15.516 0 10S4.484 0 10 0s10 4.484 10 10a9.982 9.982 0 0 1-1.54 5.328.35.35 0 0 1-.492.112.35.35 0 0 1-.112-.492A9.212 9.212 0 0 0 19.288 10c0-5.116-4.16-9.288-9.288-9.288C4.884.712.712 4.884.712 10c0 5.116 4.16 9.288 9.288 9.288a9.222 9.222 0 0 0 4.948-1.432.356.356 0 1 1 .38.604A9.982 9.982 0 0 1 10 20Z"/><circle cx="16.784" cy="16.784" r="1"/></g></svg>