<svg width="24" height="24" xmlns="http://www.w3.org/2000/svg"><path d="M13.112 1c1.037 0 1.85.823 1.85 1.874v.752h6.669c.224 0 .369.155.369.378 0 .222-.145.373-.37.373H4.96v15.754c0 .638.48 1.125 1.112 1.125h11.854c.631 0 1.112-.487 1.112-1.125V8.503c0-.223.146-.374.37-.374.22 0 .369.147.369.374v11.623c0 1.05-.813 1.874-1.85 1.874H6.07c-1.038 0-1.851-.823-1.851-1.874V4.373H2.37C2.15 4.373 2 4.222 2 4c0-.222.145-.373.37-.373h6.667v-.752c0-1.05.814-1.874 1.851-1.874Zm1.481 6.003c.22 0 .37.147.37.374v10.876c0 .222-.15.374-.37.374s-.369-.147-.369-.374V7.377c0-.227.15-.374.37-.374Zm-5.186 0c.22 0 .369.147.369.374v10.876c0 .222-.15.374-.37.374s-.369-.147-.369-.374V7.377c0-.227.15-.374.37-.374ZM19.41 5.499c.41 0 .743.337.743.752a.747.747 0 0 1-.743.752.747.747 0 0 1-.743-.752c0-.415.333-.752.743-.752Zm-6.299-3.751h-2.224c-.63 0-1.112.487-1.112 1.126v.752h4.448v-.752c0-.639-.481-1.126-1.112-1.126Z" fill="#313235" fill-rule="nonzero"/></svg>