<svg width="24" height="24" xmlns="http://www.w3.org/2000/svg"><path d="M9.144 2C10.72 2 12 3.303 12 4.908V6h3.004L22 13.124v6.33h-2.228C19.448 20.908 18.168 22 16.64 22c-1.532 0-2.812-1.092-3.136-2.554-.028.004-.052.008-.08.008H4.856a.36.36 0 0 1-.356-.362c0-.2.16-.363.356-.363h6.428V4.91c0-1.206-.964-2.184-2.144-2.184H2.356A.36.36 0 0 1 2 2.363c0-.2.16-.363.356-.363Zm7.5 14.183c-1.38 0-2.5 1.14-2.5 2.546 0 1.405 1.12 2.546 2.5 2.546 1.376 0 2.5-1.14 2.5-2.546 0-1.405-1.12-2.546-2.5-2.546Zm-13.928 2.18c.395 0 .716.326.716.729 0 .402-.32.729-.716.729A.723.723 0 0 1 2 19.09c0-.402.32-.728.716-.728ZM14.708 6.725H12V18.73h1.424c0-1.808 1.44-3.275 3.216-3.275 1.776 0 3.216 1.47 3.216 3.275h1.428v-5.307l-6.576-6.697Zm-5.924 6.55a.36.36 0 0 1 .356.362c0 .2-.16.363-.356.363H2.356A.36.36 0 0 1 2 13.637c0-.2.16-.362.356-.362ZM5.572 9.637a.36.36 0 0 1 .356.363c0 .2-.16.363-.356.363H2.356A.36.36 0 0 1 2 10c0-.2.16-.363.356-.363Z" fill="#313235" fill-rule="nonzero" opacity=".9"/></svg>