<svg width="24" height="24" xmlns="http://www.w3.org/2000/svg"><g transform="translate(2 2)" fill="#003" fill-rule="nonzero"><path d="M20 11.124 13.004 4H10V2.908C10 1.303 8.72 0 7.144 0H.356A.36.36 0 0 0 0 .363c0 .2.16.362.356.362H7.14c1.18 0 2.144.978 2.144 2.183V16.73H2.856a.36.36 0 0 0-.356.363c0 .2.16.362.356.362h8.568c.028 0 .052-.004.08-.008C11.828 18.908 13.108 20 14.64 20c1.528 0 2.808-1.092 3.132-2.546H20v-6.33Zm-5.356 8.15c-1.38 0-2.5-1.14-2.5-2.545s1.12-2.546 2.5-2.546 2.5 1.14 2.5 2.546c0 1.405-1.124 2.546-2.5 2.546Zm4.64-2.545h-1.428c0-1.804-1.44-3.275-3.216-3.275-1.776 0-3.216 1.467-3.216 3.275H10V4.725h2.708l6.576 6.697v5.307Z"/><path d="M.356 8.363h3.216A.36.36 0 0 0 3.928 8a.36.36 0 0 0-.356-.363H.356A.36.36 0 0 0 0 8c0 .2.16.363.356.363Zm0 3.637h6.428a.36.36 0 0 0 .356-.363.36.36 0 0 0-.356-.362H.356a.36.36 0 0 0-.356.362c0 .2.16.363.356.363Z"/><circle cx=".716" cy="17.092" r="1"/></g></svg>