<svg width="24" height="24" xmlns="http://www.w3.org/2000/svg"><g transform="translate(2 2)" fill="#313235" fill-rule="nonzero"><circle cx="16.889" cy="16.15" r="1"/><circle cx="10.007" cy="14.629" r="1"/><path d="M10.007 12.596c-.224 0-.372-.149-.372-.373 0-1.076.48-2.185 1.295-3.001l1.076-1.077c.556-.556.48-1.705.036-2.293a2.21 2.21 0 0 0-1.775-.889h-.184c-.704 0-1.368.372-1.74 1-.112.185-.336.225-.516.149-.184-.112-.224-.337-.148-.517.48-.852 1.404-1.368 2.404-1.368h.184c.923 0 1.775.444 2.331 1.148.628.853.776 2.406-.112 3.258L11.41 9.71c-.627.704-1.035 1.629-1.035 2.517.004.216-.144.369-.368.369Z"/><path d="M.385 20a.333.333 0 0 1-.26-.112c-.112-.112-.148-.224-.112-.372l1.592-5.924A9.497 9.497 0 0 1 .757 9.63C.757 4.335 5.088 0 10.38 0 15.669 0 20 4.335 20 9.63c0 1.777-.48 3.482-1.404 4.999-.112.184-.336.224-.515.112-.184-.112-.224-.336-.112-.516a8.699 8.699 0 0 0 1.295-4.595c0-4.887-3.995-8.89-8.881-8.89C5.496.74 1.5 4.74 1.5 9.63c0 1.297.296 2.553.816 3.742.036.076.076.184.036.296L.905 19.111l5.403-1.444h.036c.076 0 .184 0 .26.036 1.183.516 2.443.816 3.775.816a8.69 8.69 0 0 0 4.59-1.297c.184-.112.408-.036.516.112.112.185.036.409-.112.517-1.48.924-3.219 1.369-4.994 1.369a9.781 9.781 0 0 1-3.995-.853L.5 19.996C.461 20 .425 20 .385 20Z"/></g></svg>