<svg width="24" height="24" xmlns="http://www.w3.org/2000/svg"><path d="M12 22C6.488 22 2 17.516 2 12S6.488 2 12 2s10 4.488 10 10a9.98 9.98 0 0 1-1.54 5.33.36.36 0 0 1-.494.109.36.36 0 0 1-.11-.494 9.247 9.247 0 0 0 1.431-4.95C21.282 6.881 17.119 2.718 12 2.718 6.881 2.718 2.718 6.88 2.718 12S6.88 21.282 12 21.282a9.247 9.247 0 0 0 4.95-1.43.36.36 0 0 1 .493.11.36.36 0 0 1-.11.493A9.971 9.971 0 0 1 12 22Zm7.5-3.218a.714.714 0 0 0-1.426 0 .714.714 0 0 0 1.426 0ZM8.965 17.484l8.926-5.178a.36.36 0 0 0 0-.621l-8.926-5.17a.355.355 0 0 0-.534.311v10.357a.36.36 0 0 0 .178.31.357.357 0 0 0 .178.046.426.426 0 0 0 .178-.055ZM17 12l-7.856 4.557V7.443L17 12Z" fill="#313235" fill-rule="nonzero" opacity=".9"/></svg>