<svg width="24" height="24" xmlns="http://www.w3.org/2000/svg"><path d="M11.773 2c5.387 0 9.778 4.489 9.778 10.037 0 2.303-.772 4.488-2.176 6.264l2.212-.34c.18-.04.368.115.408.303.036.193-.112.38-.296.418l-3.58.527-.515-3.662c-.036-.192.112-.38.296-.417.188-.037.372.115.408.303l.367 2.492c1.4-1.661 2.14-3.773 2.14-5.962 0-5.094-4.055-9.247-9.038-9.247-4.982 0-9.041 4.153-9.041 9.247s4.059 9.247 9.037 9.247c.92 0 1.808-.155 2.692-.417a.417.417 0 0 1 .48.262.43.43 0 0 1-.256.49 9.366 9.366 0 0 1-2.912.455C6.391 22 2 17.511 2 12S6.387 2 11.773 2Zm4.813 17.543.1.01a.755.755 0 0 1 .612.869.742.742 0 0 1-.85.625.755.755 0 0 1-.61-.868.742.742 0 0 1 .848-.626ZM11.773 4.451c.22 0 .368.151.368.376v7.018l3.023 3.097a.37.37 0 0 1 0 .528.38.38 0 0 1-.256.114.388.388 0 0 1-.255-.114l-3.136-3.208a.33.33 0 0 1-.112-.262V4.827c0-.225.148-.376.368-.376Z" fill="#313235" fill-rule="nonzero"/></svg>