<svg width="24" height="24" xmlns="http://www.w3.org/2000/svg"><path d="M12.034 14.353c1.712 0 3.283.72 4.5 2.003a.379.379 0 0 1 0 .53.438.438 0 0 1-.249.08.319.319 0 0 1-.252-.114c-1.072-1.135-2.5-1.78-3.999-1.78h-.036c-1.5 0-2.963.645-4.035 1.814a.33.33 0 0 1-.5 0 .379.379 0 0 1 0-.53c1.212-1.283 2.855-2.003 4.535-2.003h.036Zm-.032-4.198c2.711 0 5.283 1.173 7.215 3.33a.379.379 0 0 1 0 .529.33.33 0 0 1-.5 0c-1.788-2.004-4.18-3.1-6.715-3.1s-4.891 1.096-6.715 3.104a.312.312 0 0 1-.248.11.379.379 0 0 1-.252-.644c1.928-2.156 4.5-3.329 7.215-3.329Zm9.282-.377c.392.004.716.343.716.758 0 .42-.324.759-.716.759-.392 0-.716-.344-.716-.759 0-.419.324-.758.716-.758ZM11.998 6c2.891 0 5.607.949 7.926 2.724.144.114.18.343.072.529-.108.152-.356.19-.5.076a12.136 12.136 0 0 0-7.53-2.57c-3.64 0-6.963 1.511-9.39 4.235-.036.076-.108.11-.216.11a.379.379 0 0 1-.252-.644A13.063 13.063 0 0 1 11.998 6Z" fill="#313235" fill-rule="nonzero"/></svg>