<svg width="24" height="24" xmlns="http://www.w3.org/2000/svg"><path d="M11.644 2c4.043 0 7.315 3.36 7.315 7.514 0 .356 0 .752-.07 1.108 0 .176-.21.32-.386.284-.171 0-.311-.216-.276-.396.035-.356.07-.68.07-1.037 0-3.756-2.96-6.797-6.618-6.797-3.657 0-6.617 3.04-6.617 6.797 0 3.757 2.96 6.798 6.617 6.798 1.776 0 3.447-.716 4.701-1.969 0 0 .102-.144.277-.144.105 0 .175 0 .245.108l2.439 4.33c.07.143.07.287-.102.427a.39.39 0 0 1-.385.108l-3.17-.964-.94 3.577c-.03.144-.136.216-.276.252h-.035a.366.366 0 0 1-.316-.18l-2.543-4.437-2.403 4.441a.366.366 0 0 1-.316.18H8.82c-.136 0-.241-.108-.276-.252l-.939-3.577-3.135.964a.38.38 0 0 1-.386-.108c-.105-.112-.105-.252-.035-.396l2.193-4.076A7.584 7.584 0 0 1 4.325 9.51c0-4.153 3.276-7.51 7.32-7.51Zm4.908 13.059c-1.22 1.108-2.75 1.788-4.39 1.896l2.162 3.757.837-3.113c.035-.072.105-.18.176-.216.1-.036.17-.072.276-.036l2.68.824Zm-9.753-.036-1.706 3.144 2.648-.824c.102 0 .172 0 .277.036.105.036.14.108.175.216l.802 3.113 2.053-3.753c-1.6-.18-3.1-.86-4.25-1.932Zm11.147-3.049c.385 0 .697.32.697.716a.707.707 0 0 1-.697.716.707.707 0 0 1-.697-.716c0-.395.312-.716.697-.716ZM11.78 5.509c.522 0 .869.144 1.184.428.14.144.176.356.036.5-.14.144-.347.18-.487.036-.176-.144-.382-.216-.698-.216-.592 0-1.043.428-1.043 1.072v1.572h1.534c.207 0 .347.144.347.356s-.136.357-.347.357h-1.53v1.684c0 .252-.07.464-.176.68h2.96c.207 0 .347.14.347.356 0 .212-.136.356-.347.356H9.412c-.206 0-.346-.14-.346-.356 0-.212.136-.356.346-.356.35 0 .627-.288.627-.712V9.582h-.592c-.206 0-.346-.145-.346-.357s.136-.356.346-.356h.592V7.297c0-1.036.733-1.788 1.741-1.788Z" fill="#313235" fill-rule="nonzero"/></svg>