<svg width="24" height="24" xmlns="http://www.w3.org/2000/svg"><g fill="#0019A5" fill-rule="nonzero"><path d="M16.982 17.104a.19.19 0 0 0 .013-.073c0-.01.005-.023.005-.032 0-.014-.005-.023-.01-.037 0-.013.005-.027 0-.036l-1.603-7.497a3.545 3.545 0 0 0-1.98-2.474 2.673 2.673 0 0 0 1.271-2.276A2.682 2.682 0 0 0 12 2a2.682 2.682 0 0 0-2.678 2.679c0 .96.512 1.801 1.275 2.276a3.526 3.526 0 0 0-1.98 2.474L7.01 16.93c-.004.014 0 .023 0 .037 0 .014-.009.023-.009.036 0 .014.005.023.005.032l.013.069a.23.23 0 0 0 .023.06.455.455 0 0 0 .082.105.381.381 0 0 0 .12.064c.008.004.018.009.031.013.014.005.028 0 .037 0 .013 0 .023.01.036.01h2.144v4.287a.357.357 0 0 0 .713 0v-4.996H7.79l1.512-7.068c.275-1.28 1.404-2.212 2.683-2.217H12c1.28.005 2.404.937 2.678 2.217l1.513 7.068h-2.413v2.5a.357.357 0 0 0 .713 0V17.36h2.139a.4.4 0 0 0 .073-.01c.014-.004.018-.008.032-.013.023-.009.046-.018.064-.027.018-.01.036-.023.055-.037a.24.24 0 0 0 .045-.05.381.381 0 0 0 .037-.055.086.086 0 0 0 .046-.064ZM10.039 4.679c0-1.084.882-1.966 1.966-1.966 1.083 0 1.965.882 1.965 1.966A1.97 1.97 0 0 1 12 6.645a1.967 1.967 0 0 1-1.96-1.966ZM14.148 20.574a.714.714 0 0 0 0 1.426.714.714 0 0 0 0-1.426Z"/></g></svg>