<svg width="24" height="24" xmlns="http://www.w3.org/2000/svg"><path d="m11.652 16.618-5.894-5.893a.58.58 0 1 1 .776-.866c.014.014.031.028.042.042l4.9 4.91V2.737c.002-.32.26-.58.582-.58.322 0 .58.26.58.58v12.079l4.807-4.807a.58.58 0 0 1 .82.82l-5.79 5.79a.818.818 0 0 1-.196.13.546.546 0 0 1-.44 0 .722.722 0 0 1-.187-.13Zm9.61-.137c.32 0 .58.26.58.577v4.205c0 .319-.257.58-.577.58H2.733a.576.576 0 0 1-.577-.578v-4.204a.581.581 0 0 1 1.16 0v3.625h17.372V17.06a.573.573 0 0 1 .575-.58Z" fill="#313235" fill-rule="nonzero"/></svg>