<svg width="24" height="24" xmlns="http://www.w3.org/2000/svg"><path d="M11.914 14.439c-1.277 0-2.314-1.1-2.314-2.459 0-1.36 1.035-2.459 2.314-2.459 1.277 0 2.312 1.1 2.312 2.459 0 1.36-1.035 2.459-2.312 2.459zm0-7.374c-1.277 0-2.314-1.1-2.314-2.459 0-1.36 1.037-2.456 2.314-2.456 1.277 0 2.312 1.1 2.312 2.459 0 1.36-1.035 2.456-2.312 2.456zm0 14.745c-1.277 0-2.314-1.1-2.314-2.456 0-1.357 1.035-2.459 2.314-2.459 1.277 0 2.312 1.1 2.312 2.459 0 1.36-1.035 2.456-2.312 2.456z" fill="#313235" fill-rule="nonzero"/></svg>