<svg width="24" height="24" xmlns="http://www.w3.org/2000/svg"><path d="m9.248 19.7 2.316-5.984a.422.422 0 0 0-.017-.345.413.413 0 0 0-.266-.212l-4.238-1.037 7.235-7.678-2.274 5.709a.419.419 0 0 0 .286.563l4.635 1.129-7.677 7.854zm8.874-8.205a.41.41 0 0 0-.3-.292l-4.883-1.19 2.9-7.275a.423.423 0 0 0-.157-.507.405.405 0 0 0-.518.062l-9.21 9.77a.43.43 0 0 0-.099.406.412.412 0 0 0 .297.289l4.477 1.095-2.874 7.418a.421.421 0 0 0 .156.501.405.405 0 0 0 .515-.056l9.592-9.815a.409.409 0 0 0 .104-.406z" fill="#313235" fill-rule="nonzero"/></svg>