<svg width="24" height="24" xmlns="http://www.w3.org/2000/svg"><path d="M11.998 2.16c3.14 0 5.574.812 7.238 2.417C20.96 6.241 21.838 8.74 21.838 12c.003 6.435-3.4 9.838-9.84 9.838-6.435 0-9.838-3.4-9.838-9.838 0-6.437 3.4-9.84 9.838-9.84zm0 .56C5.843 2.72 2.72 5.843 2.72 12c0 6.154 3.12 9.278 9.278 9.278 6.16 0 9.28-3.12 9.28-9.278.002-6.16-3.12-9.28-9.28-9.28zM8.953 7.558a.28.28 0 0 1 .28.28v8.333a.28.28 0 0 1-.28.28.28.28 0 0 1-.28-.28V7.838a.28.28 0 0 1 .28-.28zm6.045-.028a.28.28 0 0 1 .28.28v8.333a.28.28 0 0 1-.28.28.28.28 0 0 1-.28-.28V7.81a.28.28 0 0 1 .28-.28z" fill="#313235" fill-rule="nonzero"/></svg>