<svg width="24" height="24" xmlns="http://www.w3.org/2000/svg"><path d="M12.003 2.16c6.415 0 9.843 3.395 9.843 9.843s-3.395 9.843-9.843 9.843-9.843-3.395-9.843-9.843S5.555 2.16 12.003 2.16zm0 18.866c5.964 0 9.023-3.034 9.023-9.023S18 2.981 12.003 2.981 2.981 6.04 2.981 12.003c0 5.964 3.025 9.023 9.022 9.023zm0-16.782c.216 0 .392.162.41.378V7.74a.417.417 0 0 1-.41.409.41.41 0 0 1-.409-.41V4.654c0-.227.182-.409.41-.409zM8.15 11.947a.41.41 0 0 1-.41.41H4.62a.41.41 0 0 1 0-.819h3.118a.408.408 0 0 1 .412.41zm.507 2.731a.411.411 0 0 1 .58.028l.002.003c.16.148.166.398.017.557l-.017.017-2.156 2.149a.381.381 0 0 1-.311.123.41.41 0 0 1-.286-.695c-.003 0 2.17-2.182 2.17-2.182zm3.291 1.157a.41.41 0 0 1 .41.409v3.076a.41.41 0 0 1-.819 0v-3.076a.406.406 0 0 1 .41-.409zm3.336-1.1 2.182 2.181c.16.16.163.42.003.58l-.003.003a.42.42 0 0 1-.285.115.402.402 0 0 1-.286-.115l-2.185-2.182a.41.41 0 0 1-.003-.58l.003-.003a.41.41 0 0 1 .574 0zm4.037-3.11a.41.41 0 0 1 0 .818h-3.076a.41.41 0 0 1 0-.818h3.076zM15.03 9.421a.435.435 0 0 1-.294-.115.42.42 0 0 1 0-.583l2.19-2.182a.411.411 0 0 1 .575.583l-2.216 2.182a.471.471 0 0 1-.255.115z" fill="#313235" fill-rule="nonzero"/></svg>