<svg width="24" height="24" xmlns="http://www.w3.org/2000/svg"><path d="M11.988 2.15c3.14 0 5.574.812 7.238 2.417 1.725 1.664 2.602 4.163 2.602 7.423.003 6.435-3.4 9.838-9.84 9.838-6.435 0-9.838-3.4-9.838-9.838 0-6.437 3.4-9.84 9.838-9.84zm0 .56c-6.155 0-9.278 3.123-9.278 9.28 0 6.154 3.12 9.278 9.278 9.278 6.16 0 9.28-3.12 9.28-9.278.002-6.16-3.12-9.28-9.28-9.28zm-.737 5.423c.087.05.143.143.143.244l-.002 3.177a.275.275 0 0 1 .1-.104l5.507-3.308a.277.277 0 0 1 .283-.003c.086.05.143.143.143.243v6.586a.278.278 0 0 1-.28.28.288.288 0 0 1-.143-.04l-5.507-3.276a.284.284 0 0 1-.103-.107l.002 3.137c0 .101-.054.194-.143.244a.251.251 0 0 1-.135.04.288.288 0 0 1-.142-.04l-5.51-3.28a.28.28 0 0 1-.003-.482l5.507-3.308a.277.277 0 0 1 .283-.003zm5.613.745-4.68 2.813 4.68 2.787v-5.6zm-6.03-.005-4.681 2.812 4.68 2.787v-5.6z" fill="#313235" fill-rule="nonzero"/></svg>