<svg width="24" height="24" xmlns="http://www.w3.org/2000/svg"><path d="M5.986 10.212v1.938H18.07V4.315H5.986v5.897zm-2.146 0h1.306V7.038H3.84v3.174zm7.325 3.462h1.715v-.69h-1.715v.69zm9.04 7.336v-6.513H3.84v6.513H6.27c0-.011-.008-.022-.008-.036V16.8a.83.83 0 0 1 .84-.824h9.84c.462 0 .84.367.84.824v4.174c0 .014-.005.025-.008.036h2.431zM7.1 20.974h9.84V16.8h-9.84v4.174zm11.81-10.751h1.293V7.049H18.91v3.174zm-.841 2.75h-4.35v.704h6.484c.463 0 .84.37.84.823v6.513a.832.832 0 0 1-.84.823H3.84a.834.834 0 0 1-.84-.823V14.5c0-.454.375-.823.84-.823h6.485v-.703H5.986a.834.834 0 0 1-.84-.824v-1.115H3.84a.834.834 0 0 1-.84-.823V7.038c0-.454.375-.824.84-.824h1.306V4.315a.83.83 0 0 1 .84-.823h5.616v-.376a.562.562 0 0 1-.162-.395c0-.316.263-.571.582-.571a.58.58 0 0 1 .586.571.553.553 0 0 1-.165.395v.376h5.63c.462 0 .84.367.84.823v1.91h1.294c.462 0 .84.368.84.824v3.174a.834.834 0 0 1-.84.823h-1.294v1.104a.838.838 0 0 1-.843.824zM9.513 8.022a.68.68 0 0 0 .686-.672.681.681 0 0 0-.686-.675.681.681 0 0 0-.687.675.68.68 0 0 0 .687.672zm1.526-.672c0 .826-.683 1.496-1.526 1.496-.844 0-1.527-.673-1.527-1.496 0-.826.683-1.496 1.527-1.496.843-.003 1.526.67 1.526 1.496zm3.504.653a.68.68 0 0 0 .687-.673.681.681 0 0 0-.687-.675.681.681 0 0 0-.686.675c0 .37.308.673.686.673zm0-2.171c.844 0 1.527.672 1.527 1.498 0 .827-.683 1.496-1.527 1.496-.843 0-1.526-.672-1.526-1.496 0-.823.683-1.498 1.526-1.498zm-.759 3.896c.233 0 .42.185.42.412a.416.416 0 0 1-.42.412h-3.512a.416.416 0 0 1-.42-.412c0-.227.187-.412.42-.412h3.512z" fill="#313235" fill-rule="nonzero"/></svg>