<svg width="24" height="24" xmlns="http://www.w3.org/2000/svg"><path d="M11.992 21.022h-.034c-1.947 0-3.473-.538-4.53-1.594-1.064-1.064-1.604-2.608-1.613-4.585-.011-3.796 4.586-9.93 6.132-11.676 1.552 1.748 6.174 7.886 6.185 11.64.008 3.994-2.171 6.204-6.14 6.215m.243-18.745a.41.41 0 0 0-.288-.12.42.42 0 0 0-.289.12C10.3 3.644 4.986 10.52 5 14.845c.006 2.171.647 3.958 1.852 5.166 1.198 1.198 2.963 1.834 5.106 1.834h.034c4.364-.014 6.963-2.644 6.95-7.042-.01-4.277-5.345-11.154-6.707-12.526" fill="#313235" fill-rule="nonzero"/></svg>