<?xml version="1.0" encoding="UTF-8"?>
<svg width="24px" height="24px" viewBox="0 0 24 24" version="1.1" xmlns="http://www.w3.org/2000/svg" xmlns:xlink="http://www.w3.org/1999/xlink">
    <!-- Generator: sketchtool 54.1 (76490) - https://sketchapp.com -->
    <title>99480C5E-E40A-4CF8-8842-CF975DCB4524</title>
    <desc>Created with sketchtool.</desc>
    <g id="Symbols" stroke="none" stroke-width="1" fill="none" fill-rule="evenodd">
        <g id="Sheet-of-assets" transform="translate(-163.000000, -14261.000000)">
            <g id="Assets/24/DataOnDemand" transform="translate(163.000000, 14261.000000)">
                <g id="icn_data_on_demand">
                    <g id="-----ICON-LAYERS-----">
                        <path d="M24,12 C24,18.62775 18.62775,24 12,24 C5.37225,24 0,18.62775 0,12 C0,5.37225 5.37225,0 12,0 C18.62775,0 24,5.37225 24,12" id="Background" fill="#954B97"></path>
                        <path d="M13.99809,17.8125 L10.38549,17.8125" id="Stroke1" stroke="#FFFFFF"></path>
                        <path d="M20.55027,9.1791375 L20.55027,15.0705125 C20.55027,16.5851375 19.28757,17.8127625 17.72967,17.8127625" id="Stroke2" stroke="#FFFFFF"></path>
                        <path d="M6.70755,17.8125 L6.27015,17.8125 C4.71225,17.8125 3.45045,16.584875 3.45045,15.071125 L3.45045,9.178875 C3.45045,7.665125 4.71225,6.4375 6.27015,6.4375 L17.72985,6.4375 C19.28775,6.4375 20.55045,7.665125 20.55045,9.178875" id="Stroke4" stroke="#FFFFFF"></path>
                        <path d="M10.28559,17.886 C10.28559,18.85025 9.48099,19.6325 8.48919,19.6325 C7.49739,19.6325 6.69369,18.85025 6.69369,17.886 C6.69369,16.920875 7.49739,16.1395 8.48919,16.1395 C9.48099,16.1395 10.28559,16.920875 10.28559,17.886 Z" id="Stroke6" stroke="#FFFFFF"></path>
                        <path d="M17.64642,17.886 C17.64642,18.85025 16.84182,19.6325 15.85002,19.6325 C14.85822,19.6325 14.05452,18.85025 14.05452,17.886 C14.05452,16.920875 14.85822,16.1395 15.85002,16.1395 C16.84182,16.1395 17.64642,16.920875 17.64642,17.886 Z" id="Stroke8" stroke="#FFFFFF"></path>
                        <path d="M7.437,11.6119 L11.9469,11.6119" id="Stroke10" stroke="#FFFFFF" stroke-linecap="round" stroke-linejoin="round"></path>
                        <path d="M14.95956,11.6119 L17.37876,11.6119" id="Stroke12" stroke="#FFFFFF" stroke-linecap="round" stroke-linejoin="round"></path>
                        <path d="M9.63696,14.7675 L11.94636,11.61225" id="Stroke14" stroke="#FFFFFF" stroke-linecap="round" stroke-linejoin="round"></path>
                        <path d="M9.76791,8.62885 L11.94681,11.611725" id="Stroke16" stroke="#FFFFFF" stroke-linecap="round" stroke-linejoin="round"></path>
                        <path d="M12.75087,14.7675 L15.03237,11.61225" id="Stroke18" stroke="#FFFFFF" stroke-linecap="round" stroke-linejoin="round"></path>
                        <path d="M12.91521,8.66385 L15.03291,11.611725" id="Stroke20" stroke="#FFFFFF" stroke-linecap="round" stroke-linejoin="round"></path>
                    </g>
                </g>
            </g>
        </g>
    </g>
</svg>