<?xml version="1.0" encoding="UTF-8"?>
<svg width="40px" height="40px" viewBox="0 0 40 40" version="1.1" xmlns="http://www.w3.org/2000/svg" xmlns:xlink="http://www.w3.org/1999/xlink">
    <!-- Generator: sketchtool 54.1 (76490) - https://sketchapp.com -->
    <title>455A4E58-56C2-4C51-94AB-66A82EE67632</title>
    <desc>Created with sketchtool.</desc>
    <defs>
        <circle id="path-1" cx="20" cy="20" r="20"></circle>
    </defs>
    <g id="Symbols" stroke="none" stroke-width="1" fill="none" fill-rule="evenodd">
        <g id="Assets/40/Configuration_Circle">
            <g id="icn_support_tickets">
                <g id="→-icn-service-multiplica">
                    <g>
                        <g id="Union">
                            <mask id="mask-2" fill="white">
                                <use xlink:href="#path-1"></use>
                            </mask>
                            <use id="Oval" fill="#00A9E0" fill-rule="nonzero" xlink:href="#path-1"></use>
                            <path d="M27.1033027,17.2069904 L28.8942529,15.451191 C29.035249,15.3119737 29.035249,15.0875638 28.8942529,14.9483466 L28.3822672,14.4465412 C28.2412711,14.3083629 28.0122774,14.3083629 27.8712814,14.4465412 L26.6983139,15.5966418 C26.6303158,15.6641725 26.5393184,15.7015742 26.442321,15.7015742 L25.7183412,15.7015742 C25.6233438,15.7015742 25.5313464,15.6641725 25.4633482,15.5966418 L24.6523708,14.8018568 C24.5843727,14.7343261 24.5463737,14.6449777 24.5463737,14.5504347 L24.5463737,13.8408423 C24.5463737,13.7462993 24.5843727,13.6569509 24.6523708,13.5904591 L25.8253382,12.4393196 C25.9663343,12.3001024 25.9663343,12.0767314 25.8253382,11.9375142 L25.3133524,11.4346699 C25.1723563,11.2975305 24.9433627,11.2975305 24.8023666,11.4346699 L23.0114163,13.1925472 C22.6304269,13.5665636 22.5354296,14.7779613 22.9344185,15.7857279 L19.6545096,19.2090173 L14.6266493,13.5738362 L15.1656343,12.4995778 L13.9626677,11.1988317 C13.7246743,10.9411759 13.3306853,10.9328644 13.0826921,11.1801309 L11.4217383,12.8372315 C11.1737452,13.084498 11.1657454,13.4948771 11.4047388,13.7535718 L12.6067054,15.053279 L13.592678,14.6283548 L18.631538,20.2749642 L15.8406155,23.1870979 C14.7676453,22.6416572 13.3166856,22.7050322 12.8966973,23.1174892 L11.1057471,24.8743276 C10.964751,25.0135449 10.964751,25.2369158 11.1057471,25.376133 L11.6177328,25.8789774 C11.7587289,26.0161167 11.9877226,26.0161167 12.1287186,25.8789774 L13.3016861,24.7278378 C13.3696842,24.661346 13.4606816,24.6239444 13.557679,24.6239444 L14.2816588,24.6239444 C14.3766562,24.6239444 14.4686536,24.661346 14.5366518,24.7278378 L15.3476292,25.5236617 C15.4156273,25.5901535 15.4536263,25.6795019 15.4536263,25.774045 L15.4536263,26.4846762 C15.4536263,26.5792193 15.4156273,26.6675287 15.3476292,26.7350595 L14.1746618,27.88516 C14.0336657,28.0243773 14.0336657,28.2487871 14.1746618,28.3880044 L14.6866476,28.8898098 C14.8276437,29.0279881 15.0566373,29.0279881 15.1976334,28.8898098 L16.9885837,27.1329714 C17.3985723,26.7298648 17.4685703,25.3615879 16.9555846,24.3164197 L19.0055276,22.1751756 L25.0583595,28.6404655 C25.4963473,29.107986 26.2203272,29.1225311 26.6753146,28.6716335 L27.632288,27.7241252 C28.0872754,27.2732276 28.101275,26.5293504 27.6632871,26.0607909 L21.5444571,19.5258924 L23.9403905,17.0272547 C25.0243604,17.7004843 26.6553151,17.6474987 27.1033027,17.2069904" id="Fill-1" fill="#FFFFFF" fill-rule="nonzero" mask="url(#mask-2)"></path>
                        </g>
                    </g>
                </g>
            </g>
        </g>
    </g>
</svg>