<?xml version="1.0" encoding="UTF-8"?>
<svg width="36px" height="36px" viewBox="0 0 36 36" version="1.1" xmlns="http://www.w3.org/2000/svg" xmlns:xlink="http://www.w3.org/1999/xlink">
    <!-- Generator: sketchtool 54.1 (76490) - https://sketchapp.com -->
    <title>FC2294CE-4607-41A4-A707-1B3300BB09AC</title>
    <desc>Created with sketchtool.</desc>
    <g id="Symbols" stroke="none" stroke-width="1" fill="none" fill-rule="evenodd">
        <rect id="Rectangle-Copy-1148" fill="#FFEFEF" x="-16" y="-21" width="72" height="80"></rect>
        <g id="Assets/36/Instagram">
            <g id="icn_instagram">
                <g id="-----ICON-LAYERS-----">
                    <rect id="Background" fill="#E34B88" x="0" y="0" width="36" height="36" rx="18"></rect>
                    <path d="M17.9967083,7.506625 C15.1459583,7.506625 14.7885,7.51870833 13.6689167,7.56979167 C12.5516667,7.62075 11.788625,7.79820833 11.1209583,8.05770833 C10.4307083,8.32591667 9.84533333,8.68483333 9.26175,9.268375 C8.67820833,9.85195833 8.31929167,10.4373333 8.05108333,11.1275833 C7.79158333,11.79525 7.614125,12.5582917 7.56316667,13.6755417 C7.51208333,14.795125 7.5,15.1525833 7.5,18.0033333 C7.5,20.8540417 7.51208333,21.2115 7.56316667,22.3310833 C7.614125,23.4483333 7.79158333,24.211375 8.05108333,24.8790417 C8.31929167,25.5692917 8.67820833,26.1546667 9.26175,26.73825 C9.84533333,27.3217917 10.4307083,27.6807083 11.1209583,27.9489583 C11.788625,28.2084167 12.5516667,28.385875 13.6689167,28.4368333 C14.7885,28.4879167 15.1459583,28.5 17.9967083,28.5 C20.8474167,28.5 21.204875,28.4879167 22.3244583,28.4368333 C23.4417083,28.385875 24.20475,28.2084167 24.8724167,27.9489583 C25.5626667,27.6807083 26.1480417,27.3217917 26.731625,26.73825 C27.3151667,26.1546667 27.6740833,25.5692917 27.9423333,24.8790417 C28.2017917,24.211375 28.37925,23.4483333 28.4302083,22.3310833 C28.4812917,21.2115 28.493375,20.8540417 28.493375,18.0033333 C28.493375,15.1525833 28.4812917,14.795125 28.4302083,13.6755417 C28.37925,12.5582917 28.2017917,11.79525 27.9423333,11.1275833 C27.6740833,10.4373333 27.3151667,9.85195833 26.731625,9.268375 C26.1480417,8.68483333 25.5626667,8.32591667 24.8724167,8.05770833 C24.20475,7.79820833 23.4417083,7.62075 22.3244583,7.56979167 C21.204875,7.51870833 20.8474167,7.506625 17.9967083,7.506625 Z M17.9967083,9.39791667 C20.7994167,9.39791667 21.1314167,9.408625 22.23825,9.459125 C23.2616667,9.50579167 23.8174583,9.67679167 24.1873333,9.82054167 C24.6772917,10.0109583 25.0269583,10.2384167 25.39425,10.60575 C25.7615833,10.9730417 25.9890417,11.3227083 26.1794583,11.8126667 C26.3232083,12.1825417 26.4942083,12.7383333 26.540875,13.76175 C26.591375,14.8685833 26.6020833,15.2005833 26.6020833,18.0033333 C26.6020833,20.8060417 26.591375,21.1380417 26.540875,22.244875 C26.4942083,23.2682917 26.3232083,23.8240833 26.1794583,24.1939583 C25.9890417,24.6839167 25.7615833,25.0335833 25.39425,25.400875 C25.0269583,25.7682083 24.6772917,25.9956667 24.1873333,26.1860833 C23.8174583,26.3298333 23.2616667,26.5008333 22.23825,26.5475 C21.1315833,26.598 20.799625,26.6087083 17.9967083,26.6087083 C15.19375,26.6087083 14.8618333,26.598 13.755125,26.5475 C12.7317083,26.5008333 12.1759167,26.3298333 11.8060417,26.1860833 C11.3160833,25.9956667 10.9664167,25.7682083 10.599125,25.400875 C10.2318333,25.0335833 10.0043333,24.6839167 9.81391667,24.1939583 C9.67016667,23.8240833 9.49916667,23.2682917 9.4525,22.244875 C9.402,21.1380417 9.39129167,20.8060417 9.39129167,18.0033333 C9.39129167,15.2005833 9.402,14.8685833 9.4525,13.76175 C9.49916667,12.7383333 9.67016667,12.1825417 9.81391667,11.8126667 C10.0043333,11.3227083 10.2317917,10.9730417 10.599125,10.60575 C10.9664167,10.2384167 11.3160833,10.0109583 11.8060417,9.82054167 C12.1759167,9.67679167 12.7317083,9.50579167 13.755125,9.459125 C14.8619583,9.408625 15.1939583,9.39791667 17.9967083,9.39791667 L17.9967083,9.39791667 Z" id="Fill1" fill="#FFFFFF"></path>
                    <path d="M18.0000203,21.4078969 C16.1178617,21.4078969 14.5921031,19.8821383 14.5921031,18.0000203 C14.5921031,16.1178617 16.1178617,14.5921031 18.0000203,14.5921031 C19.8821383,14.5921031 21.4078969,16.1178617 21.4078969,18.0000203 C21.4078969,19.8821383 19.8821383,21.4078969 18.0000203,21.4078969 Z M18.0000203,12.75 C15.1004864,12.75 12.75,15.1004864 12.75,18.0000203 C12.75,20.8995136 15.1004864,23.25 18.0000203,23.25 C20.8995136,23.25 23.25,20.8995136 23.25,18.0000203 C23.25,15.1004864 20.8995136,12.75 18.0000203,12.75 L18.0000203,12.75 Z" id="Fill4" fill="#FFFFFF"></path>
                    <path d="M24.5625,12.7500217 C24.5625,13.4749022 23.9748588,14.0625 23.2499783,14.0625 C22.5251412,14.0625 21.9375,13.4749022 21.9375,12.7500217 C21.9375,12.0251412 22.5251412,11.4375 23.2499783,11.4375 C23.9748588,11.4375 24.5625,12.0251412 24.5625,12.7500217" id="Fill5" fill="#FFFFFF"></path>
                </g>
            </g>
        </g>
    </g>
</svg>