<svg xmlns="http://www.w3.org/2000/svg" width="24" height="24" viewBox="0 0 24 24">
    <path fill="#86888C" d="M8.95 2l6.832.015c2.288 0 3.444 1.16 3.444 3.444l-.005 13.637c-.075 2.148-1.227 3.219-3.44 3.219L8.95 22.3c-2.29 0-3.444-1.145-3.444-3.444l-.001-3.597c-.566-.045-1.011-.518-1.011-1.096v-.123l-.087.087c-.215.215-.496.322-.778.322-.281 0-.563-.107-.777-.322l-.716-.715c-.43-.43-.43-1.126 0-1.556l.087-.087H2.1c-.607 0-1.1-.493-1.1-1.1V9.657c0-.607.493-1.1 1.1-1.1h.123l-.087-.087c-.43-.43-.43-1.126 0-1.555l.716-.716c.206-.206.485-.322.777-.322.292 0 .572.116.778.322l.087.087v-.123c0-.607.493-1.1 1.1-1.1l-.077.002C5.645 3.06 6.817 2 8.95 2zm.282 1.3l-.463.003c-1.288.043-1.862.565-1.95 1.78.505.1.887.546.887 1.08v.123l.087-.087c.207-.206.486-.322.778-.322.292 0 .572.116.778.322l.715.716c.43.429.43 1.126 0 1.555l-.087.087h.123c.608 0 1.1.493 1.1 1.1v1.012c0 .607-.492 1.1-1.1 1.1h-.123l.087.087c.207.207.322.486.322.778 0 .292-.115.57-.322.778l-.715.715c-.215.215-.496.322-.778.322-.281 0-.563-.107-.778-.322l-.087-.087v.123c0 .54-.388.987-.9 1.081v3.612c0 1.578.57 2.144 2.145 2.144l6.83.015c1.574 0 2.144-.566 2.144-2.145l-.002-13.594c-.045-1.43-.635-1.961-2.141-1.961L9.232 3.3zm3.134 14.19c.73 0 1.2.447 1.2 1.204 0 .358-.105.657-.314.873-.22.224-.526.33-.886.33-.361 0-.668-.106-.886-.33-.21-.215-.314-.514-.314-.873 0-.757.47-1.204 1.2-1.204zM6.606 6.163H5.594V7.35c-.471.05-.877.175-1.213.379l-.752-.752-.715.715.75.75c-.198.33-.326.734-.377 1.215H2.1v1.012h1.187c.05.48.179.885.378 1.213l-.751.752.715.715.752-.751c.336.202.742.327 1.213.378v1.187h1.012v-1.187c.47-.051.877-.176 1.213-.378l.752.75.715-.714-.751-.752c.199-.328.327-.732.378-1.213H10.1V9.657H8.913c-.051-.481-.18-.885-.378-1.214l.75-.751-.714-.715-.752.752c-.336-.204-.742-.33-1.213-.38V6.164zm-.506 2c1.215 0 2 .785 2 2 0 1.215-.785 2-2 2-1.215 0-2-.785-2-2 0-1.215.785-2 2-2zm0 1c-.634 0-1 .316-1 1 0 .684.366 1 1 1s1-.316 1-1c0-.684-.366-1-1-1z"/>
</svg>
