<svg xmlns="http://www.w3.org/2000/svg" width="24" height="24" viewBox="0 0 24 24">
    <path d="M17.726 21.499c-.197 0-.392-.037-.57-.115l-3.707-1.615c-.38-.166-.553-.608-.388-.988.167-.38.61-.552.987-.387l3.706 1.615c.045-.047.061-.116.053-.148l-2.018-5.113c-.108-.272-.047-.582.155-.794l4.045-4.233c.008-.018.018-.093.007-.123l-5.318-.052c-.307 0-.585-.189-.697-.475l-2.184-5.538L9.52 9.071c-.112.286-.39.475-.697.475H3.54c-.045.082-.036.157-.017.186l4.035 4.222c.202.212.263.522.155.794l-2.02 5.12c-.006.025.01.094.03.117l3.727-1.59c.38-.166.822.006.987.387.166.38-.008.821-.388.988l-3.702 1.614c-.56.245-1.28.091-1.712-.364-.42-.44-.56-1.141-.338-1.704l1.845-4.672-3.713-3.886c-.413-.434-.544-1.136-.319-1.709.234-.591.822-1.003 1.43-1.003h4.773l1.997-5.064c.227-.578.82-.982 1.441-.982.621 0 1.213.403 1.442.981l1.997 5.065h4.772c.61 0 1.197.412 1.43 1.001.226.575.095 1.277-.317 1.71l-3.714 3.887 1.845 4.673c.222.562.083 1.263-.34 1.704-.293.309-.72.478-1.139.478"/>
</svg>
