<svg xmlns="http://www.w3.org/2000/svg" width="24" height="24" viewBox="0 0 24 24">
    <path d="M4.852 17.368c-.091 0-.182-.018-.269-.054-.261-.108-.431-.363-.431-.646v-1.973C3.084 14.391 2.3 13.41 2.3 12.249V5.345C2.3 3.941 3.445 2.8 4.852 2.8h9.889c1.407 0 2.552 1.141 2.552 2.545v6.904c0 1.402-1.145 2.544-2.552 2.544H9.976c-.387 0-.7-.314-.7-.7 0-.387.313-.701.7-.701h4.765c.635 0 1.152-.512 1.152-1.143V5.345c0-.631-.517-1.145-1.152-1.145H4.852c-.635 0-1.151.514-1.151 1.145v6.904c0 .631.516 1.143 1.151 1.143.387 0 .7.314.7.701v.89l1.393-1.386c.273-.273.717-.271.99.001.272.275.271.718-.002.991l-2.587 2.575c-.134.133-.312.204-.494.204M19.148 21.2c-.182 0-.36-.071-.494-.204l-2.381-2.371H9.276c-.681 0-1.32-.265-1.803-.744-.274-.273-.275-.716-.003-.99.274-.274.718-.274.989-.002.219.216.509.335.817.335h7.286c.186 0 .362.074.494.205l1.392 1.386v-.89c0-.387.313-.701.7-.701.636 0 1.152-.513 1.152-1.144V9.177c0-.631-.516-1.145-1.152-1.145-.387 0-.7-.313-.7-.7 0-.387.313-.7.7-.7 1.407 0 2.553 1.141 2.553 2.545v6.903c0 1.161-.785 2.143-1.853 2.447V20.5c0 .283-.171.538-.432.646-.086.036-.177.054-.268.054"/>
</svg>
