<svg xmlns="http://www.w3.org/2000/svg" width="24" height="24" viewBox="0 0 24 24">
    <path d="M16.97 14c.173 0 .342.061.476.171 2.1 1.728 3.304 4.308 3.304 7.079 0 .414-.336.75-.75.75H4c-.414 0-.75-.336-.75-.75 0-2.771 1.204-5.351 3.305-7.079.133-.11.302-.171.476-.171h9.939zm-.277 1.5H7.307c-1.444 1.276-2.338 3.057-2.522 5h14.43c-.184-1.942-1.077-3.724-2.522-5zM12 2c2.895 0 5.25 2.355 5.25 5.25S14.895 12.5 12 12.5s-5.25-2.355-5.25-5.25S9.105 2 12 2zm0 1.5c-2.067 0-3.75 1.683-3.75 3.75S9.933 11 12 11s3.75-1.683 3.75-3.75S14.067 3.5 12 3.5z"/>
</svg>
