<svg xmlns="http://www.w3.org/2000/svg" width="24" height="24" viewBox="0 0 24 24">
    <path d="M11.947 2.3c.707 0 1.376.093 2.021.275.399.114.631.528.517.926-.112.4-.524.632-.925.518-.512-.146-1.044-.219-1.581-.219-3.173 0-5.729 2.577-5.729 5.744 0 2.283 3.339 7.649 5.596 10.555.043.056.097.072.137.075.029-.002.056-.002.082 0 .04.001.062.002.12-.074 2.257-2.907 5.596-8.273 5.596-10.556 0-1.613-.698-3.164-1.916-4.255-.308-.276-.335-.75-.058-1.058.276-.311.751-.334 1.058-.059 1.535 1.375 2.416 3.333 2.416 5.372 0 3.756-5.851 11.399-5.91 11.475-.333.43-.783.644-1.314.655l-.056.001c-.523 0-1.021-.242-1.342-.657-.057-.075-5.909-7.718-5.909-11.474C4.75 5.55 7.979 2.3 11.947 2.3zm.099 4.063c1.784 0 3.235 1.45 3.235 3.233 0 1.785-1.451 3.236-3.235 3.236-1.783 0-3.233-1.45-3.233-3.236 0-1.783 1.45-3.234 3.233-3.234zm0 1.5c-.956 0-1.733.777-1.733 1.733 0 .957.777 1.736 1.733 1.736.957 0 1.735-.779 1.735-1.736 0-.956-.778-1.734-1.735-1.734z"/>
</svg>
