<svg xmlns="http://www.w3.org/2000/svg" width="24" height="24" viewBox="0 0 24 24">
    <g fill="#86888C" fill-rule="evenodd">
        <path d="M14.312 19.762h-9.35c-1.94 0-3.561-1.39-3.856-3.305-.054-.354.188-.686.543-.741.354-.05.687.189.743.544.192 1.255 1.297 2.2 2.57 2.2h9.35c1.434 0 2.601-1.166 2.601-2.6V3.903c0-1.435-1.167-2.602-2.601-2.602h-9.35c-1.27 0-2.347.905-2.563 2.153-.062.354-.403.586-.752.53-.353-.061-.59-.397-.53-.75C1.442 1.36 3.06 0 4.963 0h9.349c2.15 0 3.902 1.75 3.902 3.903V15.86c0 2.15-1.752 3.902-3.902 3.902" transform="translate(3 2)"/>
        <path d="M2.818 14.744H.65c-.36 0-.65-.29-.65-.65 0-.36.29-.65.65-.65h2.168c.359 0 .65.29.65.65 0 .36-.291.65-.65.65M1.787 12.595c-.36 0-.65-.291-.65-.65v-4.32c0-.358.29-.65.65-.65.359 0 .65.292.65.65v4.32c0 .359-.291.65-.65.65M2.818 6.103H.65c-.36 0-.65-.292-.65-.65 0-.36.29-.652.65-.652h2.168c.359 0 .65.292.65.651 0 .36-.291.65-.65.65M6.746 13.738h5.82v-.25c0-.6-.224-1.606-1.73-1.606H8.47c-1.5 0-1.724 1.005-1.724 1.605v.251zm6.396 1.15H6.17c-.318 0-.575-.257-.575-.575v-.826c0-1.674 1.128-2.756 2.874-2.756h2.367c1.749 0 2.88 1.082 2.88 2.756v.826c0 .318-.258.575-.575.575zM9.74 6.023c-.953 0-1.36.408-1.36 1.366 0 .967.395 1.361 1.36 1.361.959 0 1.367-.407 1.367-1.36 0-.959-.408-1.367-1.366-1.367m0 3.877c-1.596 0-2.511-.915-2.511-2.51 0-1.6.915-2.517 2.51-2.517 1.6 0 2.518.917 2.518 2.516 0 1.596-.918 2.511-2.517 2.511" transform="translate(3 2)"/>
    </g>
</svg>
