<svg xmlns="http://www.w3.org/2000/svg" width="24" height="24" viewBox="0 0 24 24">
    <path fill="#666" stroke="#FFF" stroke-width=".2" d="M16.474 19.324c0-3.282-2.74-5.954-6.08-5.954h-2.05c-3.342 0-6.08 2.672-6.08 5.954 0 .437.353.791.789.791.436 0 .79-.354.79-.791 0-2.396 2.021-4.37 4.5-4.37h2.05c2.48 0 4.502 1.974 4.502 4.37 0 .437.353.791.79.791.435 0 .789-.354.789-.791zm5.263-6.62c0-1.862-1.549-3.372-3.435-3.372h-1.025c-1.886 0-3.435 1.51-3.435 3.372 0 .438.354.792.79.792.436 0 .79-.354.79-.792 0-.977.83-1.789 1.855-1.789h1.025c1.023 0 1.856.812 1.856 1.79 0 .437.353.791.79.791.435 0 .789-.354.789-.792h0zm-8.695-4.6c0-2.11-1.706-3.82-3.81-3.82-2.105 0-3.81 1.71-3.81 3.82s1.705 3.821 3.81 3.821c2.104 0 3.81-1.71 3.81-3.82h0zm-1.579 0c0 1.236-.999 2.238-2.231 2.238C7.999 10.342 7 9.34 7 8.104s1-2.237 2.232-2.237c1.232 0 2.231 1.001 2.231 2.237h0zm9.038-3.03c.02-1.016-.51-1.965-1.385-2.479-.876-.514-1.96-.514-2.835 0s-1.405 1.463-1.385 2.48c.03 1.53 1.275 2.756 2.802 2.756 1.527 0 2.773-1.225 2.803-2.756zm-1.579 0c.013.448-.217.867-.601 1.094-.384.227-.861.227-1.245 0-.384-.227-.614-.646-.601-1.093.02-.664.561-1.192 1.223-1.192.663 0 1.205.528 1.224 1.192h0z"/>
</svg>
