<svg width="24" height="24" xmlns="http://www.w3.org/2000/svg"><path d="M2.213 1.224a.67.67 0 0 1 1 0l4.14 4.309c1.429-.714 3.001-1.088 4.645-1.088 4.285 0 8.145 2.663 9.893 6.749a.862.862 0 0 1 0 .6c-.892 2.025-2.248 3.713-3.964 4.876l3.856 4.05a.755.755 0 0 1 .004 1.053.686.686 0 0 1-.5.227.686.686 0 0 1-.5-.227L2.213 2.273a.753.753 0 0 1 0-1.05Zm2.964 5.77 1 1.088c-1.072.903-2 2.066-2.644 3.414 1.572 3.373 4.857 5.548 8.465 5.548.82 0 1.608-.109 2.393-.336l1.18 1.201a10.585 10.585 0 0 1-3.573.639c-4.248 0-8.145-2.663-9.893-6.753a.862.862 0 0 1 0-.601c.68-1.688 1.752-3.074 3.072-4.2ZM7.962 9.96l5.5 5.77c-.464.152-.928.265-1.464.265-2.356 0-4.284-2.024-4.288-4.498 0-.562.108-1.05.252-1.537Zm4.072-4.015a8.867 8.867 0 0 0-3.572.752l1.072 1.126a4.01 4.01 0 0 1 2.464-.824c2.357 0 4.285 2.025 4.285 4.498 0 .937-.284 1.836-.784 2.587l1.464 1.496a9.612 9.612 0 0 0 3.536-4.087c-1.572-3.372-4.856-5.548-8.465-5.548Z" fill="#313235" fill-rule="nonzero"/></svg>