<svg width="24" height="24" xmlns="http://www.w3.org/2000/svg"><g fill="#003" fill-rule="nonzero"><path d="M16.9 11.16h-4.197a.693.693 0 0 1-.701-.68c0-.372.313-.68.701-.68H16.9a.693.693 0 0 0 .701-.68v-.194c0-2.969-2.421-5.47-5.395-5.572-1.536-.05-2.99.486-4.091 1.516-1.101 1.034-1.712 2.425-1.712 3.911 0 .373-.314.68-.702.68A.69.69 0 0 1 5 8.781c0-1.858.76-3.595 2.14-4.884a7.066 7.066 0 0 1 5.113-1.892c3.718.125 6.743 3.234 6.743 6.924v.194c.004 1.121-.94 2.037-2.096 2.037"/><path d="M14.8 12.179c.023-.02-.02.015 0 0h-2.097c-.964 0-1.747-.76-1.747-1.695s.783-1.695 1.747-1.695h3.844c-.066-2.068-1.555-3.827-3.51-4.291h-.005a4.634 4.634 0 0 0-.317-.057c-.055-.011-.114-.015-.168-.023-.075-.011-.15-.015-.224-.019-.11-.007-.211-.015-.321-.015-.153 0-.31.008-.458.023-.032.004-.06.011-.087.015-.117.015-.243.03-.356.053-.032.008-.059.015-.09.02-.114.022-.232.049-.345.083l-.075.023a9.118 9.118 0 0 0-.4.144c-.113.05-.23.103-.344.16a5.698 5.698 0 0 0-.376.22c-.016.011-.032.023-.051.034-.102.069-.204.145-.302.217-.016.015-.035.03-.055.05-.09.075-.18.151-.27.239-.02.019-.04.045-.059.064A4.315 4.315 0 0 0 7.45 8.793c0 1.394.67 2.637 1.716 3.447C6.642 12.985 5 14.748 5 16.96V21h14v-4.048c.004-2.215-1.673-4.024-4.2-4.773"/></g></svg>