<svg width="24" height="24" xmlns="http://www.w3.org/2000/svg"><g fill="#0019A5" fill-rule="nonzero"><path d="M18.667 3H12c-1.84 0-3.333 1.512-3.333 3.374v4.503c0 1.862 1.493 3.374 3.333 3.374h3.888l2.518 2.515a.368.368 0 0 0 .403.082.377.377 0 0 0 .228-.346v-2.25C20.7 14.063 22 12.61 22 10.876V6.374C22 4.512 20.506 3 18.667 3Z"/><path d="M15.333 15.374c0 1.733-1.299 2.813-2.963 3H8.112L5.594 20.89a.368.368 0 0 1-.403.081.377.377 0 0 1-.228-.345v-2.252C3.3 18.187 2 16.733 2 15v-4.502c0-1.863 1.494-3.375 3.333-3.375h2.224v3.749c0 2.482 1.996 4.502 4.448 4.502h3.328"/></g></svg>