<svg width="24" height="24" xmlns="http://www.w3.org/2000/svg"><path d="M7.557 7.123v3.749c0 2.482 1.996 4.502 4.448 4.502h3.328c0 1.733-1.299 2.813-2.963 3H8.112L5.594 20.89a.368.368 0 0 1-.403.081.377.377 0 0 1-.228-.345v-2.252C3.3 18.187 2 16.733 2 15v-4.502c0-1.863 1.494-3.375 3.333-3.375h2.224ZM18.667 3C20.507 3 22 4.512 22 6.374v4.503c0 1.733-1.3 3.187-2.963 3.374v2.251c0 .15-.09.288-.228.346a.368.368 0 0 1-.403-.082l-2.518-2.515H12c-1.84 0-3.333-1.512-3.333-3.374V6.374C8.667 4.512 10.16 3 12 3Z" fill="#313235" fill-rule="nonzero" opacity=".9"/></svg>