<svg width="24" height="24" xmlns="http://www.w3.org/2000/svg"><path d="M12.498 2c3.196 0 5.792 2.725 5.792 6.07v1.781c.935 0 1.699.804 1.71 1.789v8.571C20 21.2 19.236 22 18.293 22H6.707C5.764 22 5 21.2 5 20.211V11.64c0-.989.764-1.789 1.707-1.789v-1.78C6.707 4.72 9.303 2 12.498 2Zm0 10.532c-4.054 0-5.2 3.077-5.246 3.205a.521.521 0 0 0 0 .373c.046.132 1.192 3.205 5.246 3.205 4.055 0 5.2-3.077 5.246-3.205a.521.521 0 0 0 0-.373c-.046-.128-1.191-3.205-5.246-3.205Zm0 1.069c2.818 0 3.917 1.732 4.211 2.325-.294.584-1.409 2.325-4.21 2.325-2.822 0-3.918-1.733-4.212-2.325.294-.585 1.409-2.325 4.211-2.325Zm0 .352c-1.035 0-1.878.884-1.878 1.969 0 1.084.843 1.968 1.878 1.968s1.878-.88 1.878-1.968c0-1.085-.843-1.97-1.878-1.97Zm0 1.08c.47 0 .851.4.851.893 0 .492-.38.892-.85.892-.471 0-.852-.4-.852-.892 0-.493.38-.893.851-.893Zm0-11.6c-2.44 0-4.425 2.08-4.425 4.637v1.781h8.85v-1.78c0-2.558-1.985-4.638-4.425-4.638Z" fill="#313235" fill-rule="nonzero"/></svg>