<svg width="24" height="24" xmlns="http://www.w3.org/2000/svg"><path d="M4 13.787h16v-5H4v5Zm3.303-3.574h2.435c.276 0 .521.251.521.535a.544.544 0 0 1-.52.534H7.302a.544.544 0 0 1-.52-.534c0-.284.244-.535.52-.535ZM4 22h16v-7.144H4V22Zm3.303-5.713h2.435c.276 0 .521.251.521.535a.544.544 0 0 1-.52.534H7.302a.544.544 0 0 1-.52-.534c0-.284.244-.535.52-.535ZM17.913 2H4v5.713h16v-3.57C20 2.965 19.06 2 17.912 2ZM9.737 4.861H7.303a.544.544 0 0 1-.52-.535c0-.283.244-.534.52-.534h2.435c.276 0 .521.251.521.534a.54.54 0 0 1-.52.535Z" fill="#313235" fill-rule="nonzero"/></svg>