<svg width="24" height="24" xmlns="http://www.w3.org/2000/svg"><path d="M9.061 8.91a.778.778 0 0 1-1.074-.292A2.375 2.375 0 0 0 5.92 7.41c-1.295 0-2.354 1.078-2.354 2.408 0 1.33 1.054 2.407 2.354 2.407.431 0 .783.36.783.801 0 .442-.352.8-.783.8C3.757 13.828 2 12.032 2 9.82c0-2.213 1.757-4.01 3.92-4.01.226 0 .446.026.667.068C7.415 3.017 10.015 1 12.977 1c2.99 0 5.63 2.058 6.423 5a.804.804 0 0 1-.547.985.782.782 0 0 1-.963-.56c-.608-2.248-2.63-3.823-4.914-3.823-2.308 0-4.326 1.601-4.918 3.855.522.338.968.795 1.285 1.355A.808.808 0 0 1 9.06 8.91Zm6.43-.256a.378.378 0 0 0-.317 0l-5.872 2.628 6.028 3.085 6.028-3.085-5.867-2.628ZM8.67 18.643c0 .154.085.292.216.36L14.748 22v-6.596L8.67 12.298v6.345Zm7.252-3.24V22l5.862-2.998a.403.403 0 0 0 .216-.36v-6.344l-6.078 3.106Z" fill="#313235" fill-rule="nonzero"/></svg>