<svg width="24" height="24" xmlns="http://www.w3.org/2000/svg"><path d="M18.7 16.906a.7.7 0 0 1-.488-.196.722.722 0 0 1-.027-1.01 5.318 5.318 0 0 0-.09-7.385.722.722 0 0 1 0-1.01.699.699 0 0 1 .997 0 6.745 6.745 0 0 1 .117 9.377.693.693 0 0 1-.51.224Zm-1.138-1.911a4.381 4.381 0 0 0-.126-6.013.699.699 0 0 0-.997 0 .722.722 0 0 0 0 1.01 2.947 2.947 0 0 1 .085 4.038.726.726 0 0 0 .04 1.01.69.69 0 0 0 .48.188.681.681 0 0 0 .518-.233Zm-2.18-9.607C15.289 3.504 13.75 2 11.869 2H5.524c-1.882 0-3.42 1.504-3.515 3.388h13.374ZM2 6.458v11.084h13.396V6.458H2Zm.009 12.154C2.104 20.496 3.642 22 5.524 22h6.344c1.881 0 3.42-1.504 3.515-3.388H2.009Z" fill="#313235" fill-rule="nonzero"/></svg>