<svg width="24" height="24" xmlns="http://www.w3.org/2000/svg"><path d="M17.695 2.832C17.15 2.272 16.35 2 15.24 2H8.602c-2.157 0-3.25 1.106-3.25 3.291v13.104c0 2.216 1.063 3.291 3.25 3.291h6.639c2.188 0 3.25-1.075 3.25-3.291V5.29c0-1.106-.261-1.91-.796-2.46Zm-4.947 16.221c-.196.199-.48.305-.82.305-.343 0-.628-.106-.822-.305-.193-.199-.288-.47-.288-.81 0-.697.414-1.114 1.112-1.114.697 0 1.11.417 1.11 1.115-.004.339-.102.61-.292.81Zm2.86-7.123L12.3 15.74a.502.502 0 0 1-.378.173.502.502 0 0 1-.379-.174l-3.3-3.81a.498.498 0 0 1 .051-.705.506.506 0 0 1 .328-.123h1.437V6.179a.853.853 0 0 1 .232-.616.912.912 0 0 1 .743-.289h1.834c.482 0 .871.387.874.869 0 .03 0 .059-.005.09V11.1h1.49a.5.5 0 0 1 .38.829Z" fill="#313235" fill-rule="nonzero"/></svg>