<svg width="24" height="24" xmlns="http://www.w3.org/2000/svg"><g fill="#0019A5" fill-rule="nonzero"><path d="M17.237 2c-2.034 0-3.384.801-5.237 3.284C10.147 2.874 8.653 2 6.581 2 4.361 2 2 3.564 2 7c0 5.077 6.401 12.296 9.493 15.77.144.152.325.23.507.23s.4-.078.507-.23a73.347 73.347 0 0 0 2.947-3.435v-.04l2.654-3.435C20.724 12.195 22 9.292 22 7c.005-3.285-2.398-5-4.763-5Zm-.87 10.688h-3.818v4.008c0 .303-.256.571-.544.571-.289 0-.545-.268-.545-.571v-4.008H7.642c-.288 0-.544-.269-.544-.572 0-.303.256-.571.544-.571h3.818V7.537c0-.303.256-.572.545-.572.288 0 .544.27.544.572v4.008h3.818c.288 0 .545.268.545.571 0 .303-.257.572-.545.572Z"/><path d="M11.998 16.316c.215 0 .356-.142.356-.357v-3.577h3.57c.215 0 .357-.142.357-.357s-.142-.357-.356-.357h-3.57V8.091c0-.215-.142-.357-.357-.357s-.357.142-.357.357v3.577h-3.57c-.215 0-.357.142-.357.357s.142.357.357.357h3.57v3.577c0 .21.142.357.357.357ZM17.46 2c-2.108 0-3.392.824-5.463 3.471C9.995 2.898 8.533 2 6.357 2 4.249 2 2 3.429 2 6.543c0 4.868 6.574 11.949 9.75 15.352a.377.377 0 0 0 .252.105.4.4 0 0 0 .252-.105.385.385 0 0 0 .036-.5c-3.108-3.292-9.572-10.23-9.572-14.847 0-1.823 1.143-3.829 3.643-3.829 1.714 0 3.109.573 5.358 3.577a.329.329 0 0 0 .283.142.323.323 0 0 0 .284-.142c2.285-3.078 3.428-3.577 5.18-3.577 1.892 0 3.82 1.324 3.82 3.865 0 2.038-1.284 4.759-3.784 8.12l-2.643 3.293c-.105.142-.105.394.037.5.142.105.393.105.498-.037l2.68-3.293C20.714 11.627 22 8.797 22 6.58 22 3.575 19.714 2 17.46 2Zm-3.676 17.174a.715.715 0 0 0 0 1.43.715.715 0 0 0 0-1.43Z"/></g></svg>