<svg width="24" height="24" xmlns="http://www.w3.org/2000/svg"><path d="M17.237 2c-2.034 0-3.384.801-5.237 3.284C10.147 2.874 8.653 2 6.581 2 4.361 2 2 3.564 2 7c0 5.077 6.401 12.296 9.493 15.77.144.152.325.23.507.23s.4-.078.507-.23a73.347 73.347 0 0 0 2.947-3.435v-.04l2.654-3.435C20.724 12.195 22 9.292 22 7c.005-3.285-2.398-5-4.763-5Zm-.87 10.688h-3.818v4.008c0 .303-.256.571-.544.571-.289 0-.545-.268-.545-.571v-4.008H7.642c-.288 0-.544-.269-.544-.572 0-.303.256-.571.544-.571h3.818V7.537c0-.303.256-.572.545-.572.288 0 .544.27.544.572v4.008h3.818c.288 0 .545.268.545.571 0 .303-.257.572-.545.572Z" fill="#313235" fill-rule="nonzero"/></svg>