<svg width="24" height="24" xmlns="http://www.w3.org/2000/svg"><path d="M12 2C6.5 2 2 6.5 2 12s4.464 10 10 10c5.5 0 10-4.464 10-10 0-5.5-4.5-10-10-10Zm.536 8.392c.284 0 .536.252.536.536a.552.552 0 0 1-.536.536H9.18c-.036.18-.036.356-.036.536 0 .18 0 .356.036.536h3.356c.284 0 .536.252.536.536a.552.552 0 0 1-.536.536h-3a3.395 3.395 0 0 0 3 1.784c.608 0 1.18-.144 1.68-.464a.52.52 0 0 1 .716.18.52.52 0 0 1-.18.716 4.461 4.461 0 0 1-2.212.608c-1.892 0-3.5-1.18-4.18-2.856h-.824A.552.552 0 0 1 7 13.04c0-.284.252-.536.536-.536h.572c-.036-.144-.036-.324-.036-.5s0-.356.036-.536h-.572A.552.552 0 0 1 7 10.932c0-.284.252-.536.536-.536h.824a4.473 4.473 0 0 1 4.18-2.856c.784 0 1.572.216 2.252.608a.527.527 0 0 1 .18.752.527.527 0 0 1-.752.18 3.512 3.512 0 0 0-1.68-.464 3.408 3.408 0 0 0-3 1.784c-.004-.008 2.996-.008 2.996-.008Z" fill="#313235" fill-rule="nonzero" opacity=".9"/></svg>