<svg width="24" height="24" xmlns="http://www.w3.org/2000/svg"><path d="M18.608 12.185c1.28 0 2.322 1.081 2.322 2.409 0 .754-.343 1.432-.868 1.873 1.202.374 1.943 1.242 1.938 2.385V22h-6.07v-1.48c0-.749-.252-1.408-.691-1.943.11-1 .818-1.76 1.92-2.106a2.439 2.439 0 0 1-.873-1.877c0-1.328 1.042-2.41 2.322-2.41Zm-6.784 1.669c1.28 0 2.322 1.081 2.322 2.409 0 .754-.343 1.432-.868 1.873 1.197.374 1.938 1.242 1.938 2.385V22H8.432v-1.48c0-1.137.74-2 1.943-2.38a2.439 2.439 0 0 1-.873-1.877c0-1.328 1.042-2.409 2.322-2.409Zm-4.288-9.26c1.87 0 3.392 1.579 3.392 3.518 0 1.256-.64 2.361-1.6 2.982 1.44.342 2.57 1.09 3.195 2.106a2.831 2.831 0 0 0-.699-.09c-1.673 0-3.035 1.413-3.035 3.148 0 .593.155 1.138.43 1.612-.942.588-1.505 1.522-1.505 2.65v1.461H2v-6.852c0-1.967 1.5-3.504 3.744-4.035a3.544 3.544 0 0 1-1.6-2.982c0-1.94 1.522-3.518 3.392-3.518ZM15.399 2c1.87 0 3.392 1.579 3.392 3.518a3.548 3.548 0 0 1-1.628 2.997c2.259.526 3.767 2.063 3.772 4.03v.015a2.983 2.983 0 0 0-2.322-1.124c-1.674 0-3.036 1.413-3.036 3.148 0 .593.156 1.138.43 1.612-.69.432-1.175 1.053-1.385 1.797-.06-.042-.12-.09-.188-.132.27-.47.43-1.015.43-1.603a3.178 3.178 0 0 0-1.317-2.594c-.438-1.261-1.44-2.27-2.816-2.883.288-.37.522-.791.677-1.251.603-.465 1.358-.816 2.222-1.015a3.536 3.536 0 0 1-1.628-2.997C12.002 3.578 13.53 2 15.4 2Z" fill="#313235" fill-rule="nonzero"/></svg>