<svg width="24" height="24" xmlns="http://www.w3.org/2000/svg"><path d="M12 2C6.488 2 2 6.488 2 12s4.488 10 10 10 10-4.488 10-10S17.512 2 12 2Zm.38 10.38-4.644 4.638a.532.532 0 0 1-.38.156.535.535 0 0 1-.38-.914l4.265-4.265-4.264-4.264a.535.535 0 0 1 0-.758c.21-.21.549-.21.759 0l4.643 4.643a.54.54 0 0 1 0 .763Zm6.069 0-4.644 4.638a.532.532 0 0 1-.379.156.535.535 0 0 1-.38-.914l4.265-4.265-4.26-4.26a.535.535 0 0 1 0-.758c.21-.21.549-.21.759 0l4.643 4.644a.54.54 0 0 1-.004.758Z" fill="#003" fill-rule="nonzero"/></svg>