<svg width="24" height="24" xmlns="http://www.w3.org/2000/svg"><path d="m13.244 21.277 2.153 1.1A9.537 9.537 0 0 1 12 23c-.105 0-.206-.005-.31-.01l1.554-1.713Zm-5.378-6.013 4.427 2.356.224 2.822-2.181 2.404c-2.017-.355-3.832-1.348-5.25-2.773l.421-3.547 2.36-1.262Zm9.027-1.516 2.51.412 1.417 3.278c-.942 1.843-2.391 3.36-4.147 4.338l-3.105-1.579-.215-2.72 3.54-3.73ZM2.416 15.495l2.021.969-.297 2.515a10.726 10.726 0 0 1-1.724-3.484Zm11.472-6.901 2.168 4.443-3.356 3.537-4.244-2.26.737-4.933 4.695-.787Zm8.103 3.484c.004.139.009.278.009.422 0 1.253-.21 2.452-.594 3.566l-.974-2.256ZM6.403 7.25l1.752 1.833-.773 5.173-2.341 1.258-2.922-1.402A11.12 11.12 0 0 1 2 12.495c0-1.607.348-3.138.97-4.501l3.433-.744Zm12.712-2.121a10.681 10.681 0 0 1 2.72 5.48l-2.204 2.448-2.57-.423L14.79 7.97l1.056-2.184ZM11.995 2c.449 0 .883.034 1.313.091l1.641 3.062-1.115 2.308-4.925.83-1.783-1.866.402-3.316A9.6 9.6 0 0 1 11.995 2ZM6.367 3.828l-.288 2.347-2.405.518a10.273 10.273 0 0 1 2.693-2.865Zm8.335-1.434c1.249.369 2.4.983 3.398 1.794l-2.2.442Z" fill="#313235" fill-rule="nonzero" opacity=".9"/></svg>