<svg width="24" height="24" xmlns="http://www.w3.org/2000/svg"><path d="M20 10.917v1.23h-7.468V8.984h2.49c1.374 0 2.489-1.103 2.489-2.463s-1.115-2.464-2.49-2.464c-1.315 0-2.407 1.018-2.484 2.32-.005.05-.005.094-.005.144v2.463h-1.064V7.404c0-.873-.72-1.585-1.602-1.585-.883 0-1.598.707-1.598 1.58 0 .875.72 1.586 1.602 1.586h1.602v3.166H4v-1.23a1.95 1.95 0 0 1 1.957-1.936H7.74A2.605 2.605 0 0 1 7.204 7.4c0-1.455 1.196-2.64 2.666-2.64.683 0 1.302.258 1.775.676A3.553 3.553 0 0 1 15.026 3c1.961 0 3.554 1.576 3.554 3.517 0 .96-.391 1.829-1.02 2.464h.488C19.122 8.985 20 9.85 20 10.917ZM4 21.473c0 .293.237.527.532.527h6.931v-8.795H4v8.268Zm8.532.527h6.931a.527.527 0 0 0 .532-.527v-8.268h-7.463V22Z" fill="#003" fill-rule="nonzero"/></svg>