<svg width="24" height="24" xmlns="http://www.w3.org/2000/svg"><path d="M22 12.538c-.26 4.874-3.98 8.85-8.726 9.462 2.38-1.004 4.137-4.773 4.257-9.462Zm-15.54 0c.129 4.697 1.877 8.462 4.266 9.458C5.973 21.387 2.26 17.42 2 12.538Zm5.002 0v8.58c-2.097-.55-3.797-4.21-3.925-8.58h3.925Zm4.993 0c-.128 4.37-1.828 8.03-3.925 8.571v-8.57ZM13.266 2c4.753.609 8.466 4.576 8.726 9.458h-4.46C17.402 6.76 15.654 3.004 13.265 2Zm-1.804.879v8.579H7.537c.008-.375.032-.742.064-1.1a1.98 1.98 0 0 0 .768-3.653c.72-2.056 1.837-3.5 3.093-3.826ZM10.726 2c-1.433.6-2.649 2.21-3.405 4.414a1.985 1.985 0 0 0-.788 3.786c-.032.411-.064.826-.072 1.258H2C2.26 6.576 5.98 2.6 10.726 2Zm1.804.879c2.097.548 3.797 4.209 3.925 8.57H12.53ZM7.35 7.495c.492 0 .891.402.891.899 0 .496-.4.899-.892.899a.896.896 0 0 1-.892-.9c0-.496.4-.898.892-.898Z" fill="#313235" fill-rule="nonzero" opacity=".9"/></svg>