<svg width="24" height="24" xmlns="http://www.w3.org/2000/svg"><path d="M11.637 6.72c.195.466.311.977.311 1.513 0 1.38-.726 2.579-1.804 3.225 2.335.552 3.896 2.18 3.896 4.264V22H2.619v-6.278c0-2.085 1.56-3.712 3.896-4.268a3.66 3.66 0 0 1-.46-.334c.085-.523.36-1.14.48-1.367.627-1.211 1.673-2.06 3.082-2.509Zm8.255-1.35c.008.12.016.243.016.362 0 1.38-.726 2.579-1.804 3.226C20.439 9.51 22 11.137 22 13.22v6.637h-6.918v-4.136c0-1.99-1.126-3.7-2.982-4.676a4.75 4.75 0 0 0 .686-1.42 6.284 6.284 0 0 1 1.697-.668 3.722 3.722 0 0 1-1.469-1.669ZM5.046 2.66c1.118 0 2.032.926 2.056 2.071.383-.14.794-.23 1.225-.23 1.082 0 2.048.49 2.707 1.272l-1.705.441C7.645 6.75 6.36 7.8 5.613 9.246c-.032.066-.216.429-.38.898a3.932 3.932 0 0 1-.439-1.166 2.01 2.01 0 0 1-.654.116c-.192 0-.356-.03-.491-.07-.787-.235-1.142-.948-1.174-1.03L2 6.968h.99V4.781c0-1.17.922-2.122 2.056-2.122ZM16.29 2c.986 0 1.88.412 2.535 1.071l2.304-.634a.692.692 0 0 1 .846.506.725.725 0 0 1-.483.874h-.004l-.04.012-1.808.503-6.926 1.932a3.365 3.365 0 0 1-.04-.532C12.675 3.677 14.299 2 16.29 2Z" fill="#313235" fill-rule="nonzero" opacity=".9"/></svg>