<svg width="24" height="24" xmlns="http://www.w3.org/2000/svg"><g fill="#313235" fill-rule="nonzero"><path d="M3.649 9.024c.135.04.3.07.49.07.196 0 .416-.033.655-.116.084.416.236.808.44 1.166.163-.47.347-.832.379-.898C6.359 7.8 7.645 6.75 9.329 6.214l1.705-.44A3.523 3.523 0 0 0 8.327 4.5c-.43 0-.842.09-1.225.23-.024-1.145-.938-2.072-2.056-2.072-1.134 0-2.056.952-2.056 2.122v2.187H2l.475 1.026c.032.082.387.795 1.174 1.03"/><path d="M10.144 11.458a3.748 3.748 0 0 0 1.804-3.225c0-.536-.116-1.047-.311-1.512l-2.02.523c-1.41.45-2.455 1.298-3.082 2.509-.12.226-.395.844-.48 1.367.145.12.3.24.46.334-2.335.556-3.896 2.183-3.896 4.268V22h11.42v-6.278c0-2.085-1.56-3.712-3.895-4.264m9.497-7.126 1.808-.503.04-.012h.004a.725.725 0 0 0 .483-.873.692.692 0 0 0-.846-.507l-2.304.634A3.567 3.567 0 0 0 16.291 2c-1.992 0-3.616 1.677-3.616 3.732 0 .177.012.359.04.532l6.926-1.932Z"/><path d="M18.104 8.958a3.748 3.748 0 0 0 1.804-3.226c0-.12-.008-.243-.016-.362l-6.878 1.92a3.722 3.722 0 0 0 1.469 1.668 6.284 6.284 0 0 0-1.697.667 4.75 4.75 0 0 1-.686 1.421c1.856.977 2.982 2.686 2.982 4.676v4.136H22V13.22c0-2.084-1.56-3.711-3.896-4.263"/></g></svg>