<svg width="24" height="24" xmlns="http://www.w3.org/2000/svg"><path d="M16.814 18.124H14.59c-1.854 0-3.333-1.497-3.333-3.373V7.999H2v11.623h14.814v-1.498ZM11.258 4.625H4.185C2.962 4.625 2 5.599 2 6.837v.039h9.258V4.625ZM2 20.788C2 21.988 2.962 23 4.185 23h10.482c1.185 0 2.147-.974 2.147-2.212v-.039L2 20.788ZM14.59 17h5.187C21 17.001 22 15.99 22 14.751h-9.633c0 1.238 1 2.25 2.224 2.25ZM19.778 2H14.59c-1.223 0-2.224 1.013-2.224 2.25h9.628C22 3.014 21 2 19.777 2Zm-7.41 3.378h9.628v8.25h-9.628v-8.25Z" fill="#313235" fill-rule="nonzero" opacity=".9"/></svg>