<svg width="24" height="24" xmlns="http://www.w3.org/2000/svg"><path d="M12 11.284a.72.72 0 0 1 .716.716v9.284A.72.72 0 0 1 12 22a.718.718 0 0 1-.716-.716V12c0-.396.324-.716.716-.716ZM12 2c5.5 0 10 4.5 10 10 0 2.572-.964 5-2.752 6.892a.695.695 0 0 1-.5.216.848.848 0 0 1-.5-.18.727.727 0 0 1-.036-1c1.536-1.644 2.356-3.712 2.356-5.928 0-4.712-3.856-8.572-8.572-8.572-4.716 0-8.568 3.856-8.568 8.572a8.46 8.46 0 0 0 2.356 5.892.69.69 0 0 1-.036 1 .69.69 0 0 1-1-.036A9.82 9.82 0 0 1 2 12C2 6.5 6.5 2 12 2Zm0 2.856c3.932 0 7.144 3.212 7.144 7.144 0 1.824-.68 3.536-1.892 4.856-.284.284-.716.324-1 .036-.284-.284-.324-.716-.036-1A5.635 5.635 0 0 0 17.752 12c0-3.14-2.572-5.712-5.712-5.712C8.9 6.288 6.324 8.86 6.324 12c0 1.464.536 2.824 1.536 3.892a.69.69 0 0 1-.036 1 .815.815 0 0 1-.54.176.777.777 0 0 1-.536-.216A7.127 7.127 0 0 1 4.852 12C4.856 8.068 8.068 4.856 12 4.856Zm0 2.856a4.293 4.293 0 0 1 4.28 4.284c0 1.036-.396 2.036-1.072 2.824a.623.623 0 0 1-.532.252c-.18 0-.324-.072-.464-.18-.284-.252-.324-.716-.072-1 .464-.536.716-1.18.716-1.892A2.863 2.863 0 0 0 12 9.144 2.863 2.863 0 0 0 9.144 12c0 .68.252 1.356.716 1.892a.72.72 0 0 1-.072 1 .72.72 0 0 1-1-.072 4.322 4.322 0 0 1-1.072-2.824A4.297 4.297 0 0 1 12 7.712Z" fill="#313235" fill-rule="nonzero"/></svg>