<svg width="24" height="24" xmlns="http://www.w3.org/2000/svg"><path d="M18.793 9.591V22H5V9.591h13.793Zm-7.805 6.297H6.631v4.078h4.357v-4.078Zm-1.087 1.114v1.854H7.722v-1.854h2.18Zm6.713.37h-4.357a.547.547 0 0 0-.544.555c0 .308.242.555.544.555h4.357a.55.55 0 0 0 .544-.555.547.547 0 0 0-.544-.555Zm-5.626-6.666H6.631v4.073h4.357v-4.073Zm-1.087 1.11v1.853H7.722v-1.854h2.18Zm6.713.369h-4.357a.547.547 0 0 0-.544.555c0 .308.242.554.544.554h4.357a.55.55 0 0 0 .544-.554.547.547 0 0 0-.544-.555Zm2.18-7.037v3.334H5V5.148h13.793Zm0-3.148v2.039H5V2h13.793Z" fill="#313235" fill-rule="nonzero"/></svg>