<svg width="24" height="24" xmlns="http://www.w3.org/2000/svg"><path d="M20.93 5H3.07C2.48 5 2 5.514 2 6.145v10.71C2 17.486 2.48 18 3.07 18h17.86c.59 0 1.07-.514 1.07-1.145V6.145C22.005 5.514 21.52 5 20.93 5Zm-9.643 2.105h1.426c.297 0 .535.254.535.572 0 .318-.238.573-.535.573h-1.426c-.298 0-.535-.255-.535-.573 0-.318.237-.572.535-.572Zm0 2.29h1.426c.297 0 .535.255.535.573 0 .318-.238.573-.535.573h-1.426c-.298 0-.535-.255-.535-.573 0-.318.237-.573.535-.573Zm0 2.296h1.426c.297 0 .535.254.535.573 0 .318-.238.572-.535.572h-1.426c-.298 0-.535-.254-.535-.572 0-.319.237-.573.535-.573ZM7.71 7.105h1.427c.297 0 .535.254.535.572 0 .318-.238.573-.535.573H7.71c-.297 0-.535-.255-.535-.573 0-.318.242-.572.535-.572Zm0 2.29h1.427c.297 0 .535.255.535.573 0 .318-.238.573-.535.573H7.71c-.297 0-.535-.255-.535-.573 0-.318.242-.573.535-.573Zm0 2.296h1.427c.297 0 .535.254.535.573 0 .318-.238.572-.535.572H7.71c-.297 0-.535-.254-.535-.572 0-.319.242-.573.535-.573Zm-2.14 1.145H4.14c-.297 0-.535-.254-.535-.572 0-.319.238-.573.535-.573h1.427c.297 0 .534.254.534.573 0 .318-.237.572-.53.572Zm0-2.29H4.14c-.297 0-.535-.255-.535-.573 0-.318.242-.578.535-.578h1.427c.297 0 .534.255.534.573 0 .318-.237.578-.53.578Zm0-2.296H4.14c-.297 0-.535-.255-.535-.573 0-.318.238-.572.535-.572h1.427c.297 0 .534.254.534.572 0 .318-.237.573-.53.573Zm10.718 7.264H7.71c-.297 0-.535-.255-.535-.573 0-.318.238-.573.535-.573h8.573c.298 0 .535.255.535.573 0 .318-.237.573-.53.573Zm0-2.678h-1.427c-.297 0-.535-.254-.535-.572 0-.319.238-.573.535-.573h1.427c.297 0 .535.254.535.573 0 .318-.242.572-.535.572Zm0-2.29h-1.427c-.297 0-.535-.255-.535-.573 0-.318.234-.578.53-.578h1.427c.298 0 .535.255.535.573 0 .318-.237.578-.53.578Zm0-2.296h-1.427c-.297 0-.535-.255-.535-.573 0-.318.238-.572.535-.572h1.427c.297 0 .535.254.535.572 0 .318-.242.573-.535.573Zm3.571 4.586h-1.427c-.297 0-.535-.254-.535-.572 0-.319.238-.573.535-.573h1.427c.297 0 .535.254.535.573 0 .318-.242.572-.535.572Zm0-2.29h-1.427c-.297 0-.535-.255-.535-.573 0-.318.238-.573.535-.573h1.427c.297 0 .535.255.535.573 0 .318-.242.573-.535.573Zm0-2.296h-1.427c-.297 0-.535-.255-.535-.573 0-.318.238-.572.535-.572h1.427c.297 0 .535.254.535.572 0 .318-.242.573-.535.573Z" fill="#003" fill-rule="nonzero"/></svg>