<svg width="24" height="24" xmlns="http://www.w3.org/2000/svg"><path d="M9.07 7.18H4.237L9.07 2.241V7.18ZM19.385 2v20H4V8.254h6.117V2h9.268ZM14.4 17.36a.527.527 0 0 0-.524-.535H10.99c.058-.169.09-.347.09-.535v-1.609h1.574c.291 0 .524-.238.524-.535a.527.527 0 0 0-.524-.535H11.08v-1.426c0-.59.47-1.07 1.047-1.07.242 0 .47.083.658.238.224.188.555.151.739-.078a.545.545 0 0 0-.077-.754 2.083 2.083 0 0 0-1.32-.475c-1.154 0-2.098.96-2.098 2.144v1.426h-.17a.527.527 0 0 0-.524.535c0 .297.233.535.524.535h.174v1.609a.521.521 0 0 1-.523.535.527.527 0 0 0-.524.535c0 .297.233.534.524.534h4.372a.533.533 0 0 0 .519-.539Z" fill="#313235" fill-rule="nonzero"/></svg>