<svg width="24" height="24" xmlns="http://www.w3.org/2000/svg"><path d="M17.393 13.251c-.18 0-.397 0-.573.038l-1.575-2.884c.898-.898 1.43-2.137 1.43-3.527C16.675 4.175 14.6 2 12.024 2 9.448 2 7.369 4.175 7.369 6.874c0 1.39.573 2.624 1.43 3.527l-1.61 2.888c-.145-.038-.357-.038-.538-.038C4.075 13.251 2 15.426 2 18.126S4.071 23 6.647 23c2.328 0 4.26-1.801 4.58-4.127h1.542C13.126 21.2 15.025 23 17.35 23 19.925 23 22 20.825 22 18.126c0-2.7-2.031-4.875-4.607-4.875ZM12.024 3.5c1.79 0 3.221 1.499 3.221 3.375 0 .752-.252 1.465-.645 2.024a2.212 2.212 0 0 0-1.037-1.125c.284-.34.428-.79.428-1.277 0-1.125-.897-2.065-1.971-2.065s-1.971.94-1.971 2.065c0 .487.18.94.429 1.314-.501.265-.858.639-1.038 1.126a3.763 3.763 0 0 1-.645-2.066C8.799 5.002 10.229 3.5 12.024 3.5Zm-2.043 7.767a4.723 4.723 0 0 0 2.039.487c.713 0 1.43-.19 2.04-.487l1.357 2.477c-1.358.676-2.363 2.023-2.612 3.64h-1.538c-.253-1.613-1.254-2.964-2.612-3.64l1.326-2.477Zm-.753 8.888a2.212 2.212 0 0 0-1.038-1.126c.284-.34.429-.789.429-1.276 0-1.125-.898-2.065-1.972-2.065-1.073 0-1.967.94-1.967 2.065 0 .487.18.94.429 1.314-.5.265-.857.638-1.038 1.125-.396-.6-.645-1.314-.645-2.061 0-1.877 1.43-3.376 3.221-3.376 1.791 0 3.222 1.5 3.222 3.376a3.513 3.513 0 0 1-.641 2.024Zm10.74 0a2.212 2.212 0 0 0-1.037-1.126c.285-.34.429-.789.429-1.276 0-1.125-.898-2.065-1.971-2.065-1.074 0-1.972.94-1.972 2.065 0 .487.18.94.43 1.314-.502.265-.858.638-1.039 1.125a3.763 3.763 0 0 1-.645-2.065c0-1.877 1.43-3.376 3.222-3.376 1.79 0 3.22 1.5 3.22 3.376a3.542 3.542 0 0 1-.636 2.028Z" fill="#313235" fill-rule="nonzero"/></svg>