<svg width="24" height="24" xmlns="http://www.w3.org/2000/svg"><path d="M12 2C6.5 2 2 6.5 2 12s4.5 10 10 10 10-4.5 10-10S17.5 2 12 2Zm0 15.536a.715.715 0 1 1-.001-1.433.715.715 0 0 1 .001 1.433Zm2.5-6.32-1.036 1.036a3.128 3.128 0 0 0-.928 2.252.552.552 0 0 1-.536.536.552.552 0 0 1-.536-.536c0-1.144.428-2.216 1.252-3l1.036-1.036c.464-.464.392-1.464 0-1.964a2.048 2.048 0 0 0-1.572-.784H12c-.644 0-1.216.32-1.536.892-.144.252-.464.356-.716.18-.252-.144-.356-.464-.18-.716a2.836 2.836 0 0 1 2.464-1.428h.18c.928 0 1.82.428 2.392 1.18.68.888.788 2.492-.104 3.388Z" fill="#313235" fill-rule="nonzero" opacity=".9"/></svg>