<svg width="24" height="24" xmlns="http://www.w3.org/2000/svg"><path d="M16.464 20.045a.746.746 0 0 1-.325.973 9.15 9.15 0 0 1-4.142.982c-5.282 0-9.576-4.488-9.576-10 0-2.007.571-3.939 1.628-5.577l-1.253.19c-.379.061-.736-.218-.79-.614-.053-.396.21-.768.59-.824l3.722-.559.535 3.888c.053.395-.21.768-.589.824-.035.004-.067.01-.098.01a.705.705 0 0 1-.686-.625l-.223-1.56a8.771 8.771 0 0 0-1.45 4.842c0 4.712 3.674 8.548 8.186 8.548a7.86 7.86 0 0 0 3.54-.838.687.687 0 0 1 .931.34Zm5.528-2.053a.7.7 0 0 0-.79-.615l-1.252.191A10.255 10.255 0 0 0 21.568 12c0-5.517-4.297-10-9.575-10a9.153 9.153 0 0 0-4.097.959.74.74 0 0 0-.33.968c.165.364.58.517.927.345a7.797 7.797 0 0 1 3.5-.82c4.511 0 8.185 3.837 8.185 8.548 0 1.75-.509 3.422-1.44 4.832l-.214-1.55a.7.7 0 0 0-.79-.614c-.378.055-.646.428-.588.824l.535 3.887 3.723-.559a.728.728 0 0 0 .588-.828ZM8.163 14.723h7.664V9.267H8.163v5.456Zm0 1.64c0 1 .78 1.82 1.743 1.82h4.182c.958 0 1.743-.815 1.743-1.82v-.55H8.163v.55Zm5.92-10.55H9.903c-.958 0-1.743.815-1.743 1.82v.545h7.663v-.545c0-1.005-.78-1.82-1.738-1.82Z" fill="#313235" fill-rule="nonzero"/></svg>