<svg width="24" height="24" xmlns="http://www.w3.org/2000/svg"><path d="m15.88 13.95-.134.002h-.1c-1.334-.02-2.888-.812-2.888-2.986 0-.131.005-.257.016-.378.169-1.893 1.642-2.58 2.855-2.59.073 0 .168 0 .243.002 1.247.028 2.653.706 2.86 2.515a4.1 4.1 0 0 1 .026.468c.005 2.149-1.55 2.941-2.877 2.967m-2.465 2.66a.653.653 0 0 1-.854-.344l-.365-.857a.644.644 0 0 1 .348-.846.656.656 0 0 1 .854.345l.361.857a.642.642 0 0 1-.344.846m-1.854-1.202-.365.854a.651.651 0 0 1-.854.345.646.646 0 0 1-.35-.843v-.003l.364-.857a.66.66 0 0 1 .854-.345c.337.143.49.521.35.849m-3.476-1.46-.134.003h-.098c-1.333-.02-2.888-.812-2.888-2.986 0-.131.006-.257.017-.378.168-1.893 1.644-2.58 2.854-2.59.081-.004.171 0 .244.002 1.246.028 2.652.706 2.863 2.515a4.1 4.1 0 0 1 .025.468c0 2.149-1.552 2.941-2.883 2.967m4.16-11.939C11.973 2 11.665 2 11.385 2c-1.81.008-8.543.63-8.543 8.922 0 4.184 1.734 6.428 3.68 7.613v.647c0 .82.241 1.462.723 1.88.454.411 1.118.621 1.966.621h5.337c.845 0 1.501-.21 1.955-.621.47-.42.703-1.06.703-1.883v-.652c1.947-1.194 3.68-3.42 3.68-7.558 0-8.224-6.88-8.921-8.64-8.958" fill="#313235" fill-rule="nonzero"/></svg>