<svg width="24" height="24" xmlns="http://www.w3.org/2000/svg"><path d="m7.667 19.352.677.648h-4.79l-.105-.181A10.734 10.734 0 0 1 2 14.419C2 8.676 6.484 4 12 4a9.68 9.68 0 0 1 5.58 1.776l-3.72 2.229a6.19 6.19 0 0 0-1.86-.29c-3.542 0-6.426 3.004-6.426 6.695a6.85 6.85 0 0 0 2.093 4.942ZM20.291 8.605l-2.14 3.876c.179.614.28 1.267.28 1.938a6.836 6.836 0 0 1-2.094 4.933l-.68.648h4.79l.104-.181a10.734 10.734 0 0 0 1.449-5.4c0-2.152-.63-4.152-1.71-5.814Zm.658-3.51a.518.518 0 0 0-.645-.09L9.806 11.3a.306.306 0 0 0-.05.033c-.133.1-.26.215-.384.343-1.449 1.51-1.449 3.967 0 5.476A3.628 3.628 0 0 0 12 18.286a3.62 3.62 0 0 0 2.628-1.134c.123-.128.233-.262.329-.4a.322.322 0 0 0 .032-.052l6.042-10.938a.565.565 0 0 0-.082-.667Z" fill="#313235" fill-rule="nonzero"/></svg>