<svg width="24" height="24" xmlns="http://www.w3.org/2000/svg"><path d="M18.298 5a2.597 2.597 0 0 1 2.593 2.6c0 .846-.413 1.597-1.038 2.072 1.303.39 2.147 1.274 2.147 2.387V18h-5.556v-4.459c0-1.05-.569-1.972-1.536-2.58.356-.585 1-1.037 1.835-1.289A2.597 2.597 0 0 1 18.298 5ZM5.702 5a2.597 2.597 0 0 1 2.593 2.6c0 .846-.412 1.597-1.038 2.072.834.252 1.48.704 1.835 1.289-.967.608-1.536 1.53-1.536 2.58v4.454H2v-5.941c0-1.108.844-1.992 2.147-2.382A2.597 2.597 0 0 1 5.702 5Zm6.3 1.483a2.597 2.597 0 0 1 1.555 4.672c1.304.39 2.148 1.274 2.148 2.382v4.458H8.3v-4.458c0-1.108.844-1.992 2.147-2.382A2.604 2.604 0 0 1 9.41 9.083a2.6 2.6 0 0 1 2.593-2.6Z" fill="#313235" fill-rule="nonzero"/></svg>