<svg width="24" height="24" xmlns="http://www.w3.org/2000/svg"><path d="M18.333 6.465v11.07h-6.141V9.357l1.887 1.929c.11.108.248.144.39.144a.527.527 0 0 0 .388-.144.524.524 0 0 0 0-.752l-3.192-3.18-3.158 3.18a.524.524 0 0 0 0 .752.503.503 0 0 0 .74 0l1.895-1.929V22H8.507c-1.895 0-3.4-1.5-3.507-3.393h4.561c.28 0 .527-.252.527-.536a.548.548 0 0 0-.527-.536H5V6.465h13.333Zm0 12.138c-.102 1.893-1.647 3.393-3.507 3.393h-2.634v-3.393ZM14.826 2c1.86 0 3.405 1.5 3.507 3.393H5.003C5.107 3.5 6.652 2 8.512 2Z" fill="#313235" fill-rule="nonzero"/></svg>