<svg width="24" height="24" xmlns="http://www.w3.org/2000/svg"><path d="M21.254 3.624h-5.922v-.373c0-1.239-1-2.251-2.223-2.251h-2.222C9.663 1 8.664 2.012 8.664 3.25v.374H2.742A.749.749 0 0 0 2 4.376c0 .416.332.752.742.752h1.48v14.621c0 1.239 1 2.251 2.223 2.251h11.11c1.223 0 2.222-1.012 2.222-2.25V5.123h1.48a.749.749 0 0 0-.003-1.5ZM9.962 18.246a.576.576 0 0 1-.556.563.576.576 0 0 1-.555-.563V7.374c0-.298.26-.562.555-.562.295 0 .556.264.556.562v10.872Zm3.885-14.622h-3.703v-.373c0-.412.332-.752.743-.752h2.222c.407 0 .743.336.743.752v.373h-.005Zm1.298 14.622a.576.576 0 0 1-.555.563.576.576 0 0 1-.556-.563V7.374c0-.298.261-.562.556-.562.294 0 .555.264.555.562v10.872Z" fill="#0019A5" fill-rule="nonzero"/></svg>