<svg width="24" height="24" xmlns="http://www.w3.org/2000/svg"><path d="M11.784 2c5.403 0 9.78 4.475 9.777 9.998 0 2-.605 3.927-1.673 5.563l1.28-.18a.75.75 0 0 1 .82.618.686.686 0 0 1-.603.806l-3.806.581-.532-3.89c-.072-.401.212-.765.604-.839a.75.75 0 0 1 .82.618l.216 1.562a8.862 8.862 0 0 0 1.457-4.835c0-4.729-3.73-8.546-8.36-8.546-4.63 0-8.363 3.813-8.363 8.542 0 4.729 3.737 8.546 8.36 8.509 1.244 0 2.456-.254 3.557-.798a.754.754 0 0 1 .96.364c.14.364 0 .802-.356.982A9.704 9.704 0 0 1 11.78 22C6.374 22 2 17.529 2 12.002 2 6.475 6.382 2 11.784 2Zm-.004 2.729c.392 0 .713.327.713.728v6.246l2.633 2.692a.715.715 0 0 1 0 1.019.686.686 0 0 1-.496.22.693.693 0 0 1-.497-.22l-2.845-2.909a.716.716 0 0 1-.216-.507V5.453c0-.397.316-.724.708-.724Z" fill="#313235" fill-rule="nonzero"/></svg>