<svg width="24" height="24" xmlns="http://www.w3.org/2000/svg"><path d="M10.933 19.5a5.85 5.85 0 0 1-4.187-1.787A6.067 6.067 0 0 1 5 13.426c0-2.002 1.393-4.32 2.509-6.143.245-.393 2.826-4.927 2.826-4.927.138-.214.348-.356.594-.356.245 0 .486.142.593.356l2.826 4.927c1.116 1.856 2.51 4.178 2.51 6.18 0 1.608-.595 3.107-1.71 4.25l-.036.037C14 18.856 12.5 19.5 10.933 19.5Zm8.545-1.787h-1.393a.545.545 0 0 1-.523-.535c0-.283.246-.534.523-.534h1.393c.276 0 .522.25.522.534a.545.545 0 0 1-.522.535Zm-1.674 2.751a.53.53 0 0 1-.384-.141l-.942-.965a.525.525 0 0 1 0-.75.496.496 0 0 1 .732 0l.942.965c.21.215.21.535 0 .75-.072.105-.21.141-.348.141ZM14.942 22a.545.545 0 0 1-.522-.535V20.04c0-.283.245-.534.522-.534s.522.25.522.534v1.422c0 .288-.24.539-.522.539Z" fill="#313235" fill-rule="nonzero" opacity=".9"/></svg>