<svg xmlns="http://www.w3.org/2000/svg" width="24" height="24" viewBox="0 0 24 24">
    <path d="M12 0c6.627 0 12 5.373 12 12 0 6.628-5.373 12-12 12S0 18.628 0 12C0 5.373 5.373 0 12 0zm0 3.104l-.133.007c-.484.053-.93.388-1.108.838L9.038 8.311H4.929l-.13.008c-.477.053-.92.395-1.102.855l-.045.137c-.125.462-.003.995.32 1.334l3.197 3.346-1.588 4.024-.044.135c-.121.457.006.987.335 1.333.374.392.985.523 1.47.315l3.193-1.392.084-.044c.267-.167.38-.509.25-.806-.143-.327-.524-.477-.85-.334l-3.189 1.39.003-.008-.025-.012c-.016-.016-.03-.09-.025-.105l1.74-4.405.031-.103c.044-.206-.015-.425-.165-.581L4.906 9.753l-.008-.044c-.003-.023-.004-.048.002-.061.006-.017.045-.045.03-.045h4.548l.098-.007c.225-.035.418-.186.503-.402l1.881-4.77.04-.028.04.027 1.88 4.771.043.089c.115.196.326.32.558.32h4.55c.006.018.025.034.03.045.01.026-.004.101-.009.106l-3.482 3.644-.067.083c-.119.175-.146.4-.066.6l1.74 4.409v.028c-.004.027-.015.063-.026.075-.003.003-.04.01-.023.018l-3.19-1.39-.09-.033c-.304-.082-.63.069-.76.366-.142.327.007.708.334.85l3.192 1.392.124.046c.464.14 1.006 0 1.349-.358l.092-.11c.29-.38.373-.92.2-1.358L16.83 13.99l3.197-3.346.091-.107c.283-.376.36-.918.185-1.363l-.056-.123c-.227-.437-.695-.74-1.177-.74l-4.109-.001-1.72-4.36-.054-.12c-.224-.428-.697-.727-1.187-.727z"/>
</svg>
