<svg xmlns="http://www.w3.org/2000/svg" width="24" height="24" viewBox="0 0 24 24">
    <path d="M18.75 3c1.516 0 2.75 1.233 2.75 2.75v10c0 1.516-1.234 2.75-2.75 2.75h-3.57c-.415 0-.75-.336-.75-.75s.335-.75.75-.75h3.57c.69 0 1.25-.56 1.25-1.25v-10c0-.69-.56-1.25-1.25-1.25h-14c-.69 0-1.25.56-1.25 1.25v10c0 .69.56 1.25 1.25 1.25h1.913c.2 0 .39.08.531.22.141.142.22.333.22.533l-.004.814L9.2 17.16c.132-.104.295-.16.463-.16h2.03c.414 0 .75.336.75.75s-.336.75-.75.75h-1.77l-2.806 2.205c-.135.105-.299.16-.464.16-.112 0-.225-.025-.329-.076-.259-.126-.422-.39-.42-.677L5.91 18.5H4.75C3.233 18.5 2 17.266 2 15.75v-10C2 4.233 3.233 3 4.75 3h14zm-6.098 8.38c.414 0 .75.337.75.75 0 .415-.336.75-.75.75H5.608c-.414 0-.75-.335-.75-.75 0-.413.336-.75.75-.75h7.044zm4.996-3.047c.413 0 .75.336.75.75s-.337.75-.75.75H5.608c-.413 0-.75-.336-.75-.75s.337-.75.75-.75h12.04z"/>
</svg>
