<svg width="24" height="24" viewBox="0 0 24 24" fill="none" xmlns="http://www.w3.org/2000/svg">
<path fill-rule="evenodd" clip-rule="evenodd" d="M20.9373 10.0419V16.7192C21.5086 17.131 21.7526 17.9236 21.7165 18.5314C21.686 18.9543 21.6167 19.0524 21.4309 19.1896C21.1758 19.3773 20.9401 19.4361 20.6961 19.4361H20.2052C19.878 19.4361 19.5508 19.4361 19.3068 19.1896C19.1432 19.0271 19.0628 18.7779 19.0628 18.5314C19.0628 17.9544 19.39 16.9657 20.0416 16.7192V10.9494L18.3279 11.6917V15.6465C18.3279 16.3887 17.8371 16.9657 17.1854 17.131C15.8821 17.3802 14.0852 17.9544 12.6987 19.0271C12.3715 19.2736 12.0443 19.4389 11.6366 19.4389C11.2262 19.4389 10.9018 19.2736 10.5746 19.0271C9.27126 17.8732 7.39393 17.3774 6.08785 17.131C5.43619 16.9657 4.94537 16.3887 4.94537 15.6465V11.7729L2.98485 10.8654C2.57722 10.6189 2.25 10.2072 2.25 9.63021C2.25 9.05323 2.49402 8.56028 2.98485 8.39503L11.0626 4.60544C11.4703 4.52142 11.7975 4.52142 12.2051 4.68667L20.2857 8.39503C20.9748 8.66464 20.9522 9.49364 20.9381 10.014C20.9378 10.0234 20.9376 10.0327 20.9373 10.0419ZM3.06804 9.63021C3.06804 9.38373 3.14846 9.21848 3.39525 9.13446L11.473 5.4261C11.6366 5.34487 11.7171 5.34487 11.8807 5.4261L19.9584 9.13446C20.0555 9.18487 20.0389 9.21568 20.0389 9.21568H11.5534C11.3094 9.21568 11.1458 9.38093 11.1458 9.62741C11.1458 9.87389 11.3094 10.0391 11.5534 10.0391H19.8753L11.7975 13.7503C11.6339 13.8315 11.5534 13.8315 11.3898 13.7503L3.31206 10.0419C3.14846 9.96071 3.06804 9.79546 3.06804 9.63021ZM17.1827 16.2235C17.4295 16.2235 17.6735 15.977 17.6735 15.6465L17.5903 12.0194L12.1275 14.5766C11.8002 14.7418 11.3926 14.7418 11.0654 14.5766L5.76063 12.1034V15.6465C5.76063 15.893 5.92424 16.1422 6.25145 16.2235C7.63796 16.4727 9.67612 17.0497 11.1458 18.2849C11.473 18.5314 11.9611 18.5314 12.2883 18.2849C13.8384 17.0469 15.7962 16.4699 17.1827 16.2235ZM19.9557 18.5314H21.0177C21.0177 18.0356 20.6101 17.4587 20.4465 17.4587C20.2829 17.4587 19.9557 18.1197 19.9557 18.5314Z" fill="#313235"/>
</svg>
