<svg width="24" height="24" fill="none" xmlns="http://www.w3.org/2000/svg"><path d="m16.394 16.004 5.322 5.322c.112.109.112.285.003.392a.287.287 0 0 1-.2.081.275.275 0 0 1-.198-.081l-5.488-5.487c-1.285.498-2.577.747-3.868.747-3.269 0-6.532-1.602-9.692-4.761a.282.282 0 0 1 0-.398c1.75-1.75 3.53-3.028 5.322-3.824L2.273 2.673a.279.279 0 1 1 .395-.395l5.488 5.49c1.285-.498 2.577-.748 3.868-.748 3.269 0 6.532 1.603 9.692 4.762.05.054.081.126.081.2a.282.282 0 0 1-.081.198c-1.75 1.75-3.53 3.028-5.322 3.824Zm4.728-4.028c-2.989-2.92-6.048-4.4-9.098-4.4-1.143 0-2.289.21-3.431.62l.873.875c.622-.507 1.457-.762 2.49-.762 1.127 0 2.02.305 2.653.908.67.635 1.009 1.568 1.009 2.773 0 1.033-.252 1.868-.748 2.487l1.098 1.095c1.728-.73 3.45-1.932 5.154-3.596Zm-9.151-.804c.504 0 .832.263.829.837 0 .135-.02.252-.053.353l1.72 1.72c.392-.513.588-1.213.588-2.087 0-2.577-1.687-3.117-3.101-3.117-.874 0-1.574.201-2.09.6l1.75 1.75c.107-.04.225-.056.357-.056Zm-9.104.848c2.989 2.92 6.048 4.401 9.098 4.401 1.143 0 2.289-.207 3.431-.622L8.021 8.424c-1.728.73-3.45 1.933-5.154 3.597Z" fill="#313235"/></svg>