<svg xmlns="http://www.w3.org/2000/svg" width="24" height="24" fill="none"><path fill="#313235" d="M23 12.028C23 1.911 14.61 1.06 12.457 1.01c-.25-.006-.538-.009-.82-.009h-.22C9.212 1.019 1 1.776 1 11.966c0 10.201 8.286 11 10.496 11.03.113.004.228.004.341.004.232 0 .467-.003.667-.006C14.604 22.953 23 22.167 23 12.028ZM12.485 22.076a19.435 19.435 0 0 1-.648.01c-.11 0-.219 0-.329-.003-.96-.016-3.427-.194-5.6-1.562-2.651-1.669-3.99-4.549-3.99-8.555 0-4.004 1.326-6.872 3.956-8.521 2.15-1.356 4.602-1.518 5.556-1.528h.21c.272 0 .554.003.798.01.961.021 3.428.225 5.613 1.596 2.673 1.675 4.032 4.539 4.032 8.505 0 9.16-7.347 10.008-9.598 10.048Zm4.996-10.568a.458.458 0 0 1 0 .915h-5.027v5.04a.458.458 0 0 1-.914 0v-5.037H6.519a.458.458 0 0 1 0-.914h5.018V6.534a.458.458 0 0 1 .914 0v4.974h5.03Z"/></svg>