<svg width="24" height="24" viewBox="0 0 24 24" fill="none" xmlns="http://www.w3.org/2000/svg">
<path fill-rule="evenodd" clip-rule="evenodd" d="M23 12.0282C23 1.91093 14.6107 1.05948 12.457 1.00939C12.2066 1.00313 11.9186 1 11.6369 1H11.4178C9.21087 1.01878 1 1.77632 1 11.9656C1 22.1673 9.286 22.9656 11.496 22.9969C11.6086 23 11.7244 23 11.837 23H11.8372C12.0689 23 12.3036 22.9969 12.504 22.9937C14.6044 22.953 23 22.1673 23 12.0282ZM12.4852 22.0765C14.7359 22.0359 22.0828 21.1875 22.0828 12.0282C22.0828 8.06203 20.7243 5.19778 18.051 3.52305C15.866 2.15196 13.3993 1.94849 12.4383 1.92658C12.1941 1.92031 11.9124 1.91718 11.64 1.91718H11.4303C10.4755 1.92658 8.02448 2.08935 5.87394 3.44479C3.24446 5.09448 1.9172 7.96186 1.9172 11.9656C1.9172 15.9724 3.25698 18.8523 5.90838 20.5208C8.08083 21.8887 10.5475 22.0672 11.5085 22.0828C11.6181 22.0859 11.7277 22.0859 11.8372 22.0859C11.91 22.0849 11.9827 22.0842 12.0545 22.0836L12.0554 22.0836C12.2057 22.0822 12.3519 22.0808 12.4852 22.0765ZM17.4812 11.5085C17.7348 11.5085 17.9382 11.7151 17.9382 11.9656C17.9382 12.216 17.7316 12.4226 17.4812 12.4226H12.4539V17.4624C12.4539 17.716 12.2473 17.9195 11.9969 17.9195C11.7464 17.9195 11.5398 17.7129 11.5398 17.4624V12.4257H6.51878C6.26522 12.4257 6.06175 12.2191 6.06175 11.9687C6.06175 11.7183 6.26835 11.5117 6.51878 11.5117H11.5367V6.53443C11.5367 6.28088 11.7433 6.0774 11.9937 6.0774C12.2442 6.0774 12.4508 6.28401 12.4508 6.53443V11.5085H17.4812Z" fill="#313235"/>
</svg>
