<svg width="24" height="24" viewBox="0 0 24 24" fill="none" xmlns="http://www.w3.org/2000/svg">
<path fill-rule="evenodd" clip-rule="evenodd" d="M12.8627 7.39713C14.7502 8.48548 16.52 9.70476 16.52 11.9824C16.52 14.26 14.7502 15.4793 12.8599 16.5704C14.7474 17.6587 16.5172 18.878 16.5172 21.1556C16.5172 21.382 16.3156 21.5675 16.0663 21.5675C15.8171 21.5675 15.6155 21.382 15.6155 21.1556C15.6155 19.1753 13.8961 18.1251 12.0086 17.0559C10.1239 18.1251 8.40172 19.1753 8.40172 21.1556C8.40172 21.382 8.20009 21.5675 7.95086 21.5675C7.70163 21.5675 7.5 21.382 7.5 21.1556C7.5 18.8807 9.27264 17.6587 11.1601 16.5704C10.2556 16.0466 9.38745 15.4902 8.71816 14.8055C8.64255 14.7592 8.58094 14.6937 8.54734 14.6146C7.92006 13.9081 7.5028 13.0707 7.5028 11.9824C7.5028 9.70748 9.27544 8.48548 11.1629 7.39713C9.27264 6.30878 7.5028 5.0895 7.5028 2.81188C7.5028 2.58548 7.70443 2.39999 7.95366 2.39999C8.20289 2.39999 8.40452 2.58548 8.40452 2.81188C8.40452 4.79218 10.1267 5.84234 12.0114 6.9116C13.8961 5.84234 15.6183 4.79218 15.6183 2.81188C15.6183 2.58548 15.8199 2.39999 16.0691 2.39999C16.3184 2.39999 16.52 2.58548 16.52 2.81188C16.52 5.08677 14.7502 6.30878 12.8627 7.39713ZM10.0679 9.11012C10.642 8.67096 11.3141 8.27544 12.0086 7.88266C12.7059 8.27817 13.378 8.67369 13.9493 9.11012H10.0679ZM9.18582 9.93388H14.8342C15.2318 10.4058 15.4923 10.9459 15.5735 11.5841H8.44653C8.53054 10.9486 8.78817 10.4058 9.18582 9.93388ZM12.0086 16.0821C12.6919 15.6948 13.3528 15.3102 13.9185 14.8819H10.1015C10.6672 15.3074 11.3281 15.6948 12.0086 16.0821ZM9.21103 14.0582C8.80497 13.5863 8.53894 13.0462 8.45213 12.4106H15.5679C15.4811 13.0462 15.2122 13.589 14.809 14.0582H9.21103Z" fill="#313235"/>
</svg>
