<svg width="24" height="24" viewBox="0 0 24 24" fill="none" xmlns="http://www.w3.org/2000/svg">
<path fill-rule="evenodd" clip-rule="evenodd" d="M11.7759 4.09365C11.7759 4.327 11.9637 4.51482 12.1941 4.51482C12.4246 4.51482 12.6124 4.327 12.6124 4.09649V2.56832C12.6124 2.33781 12.4246 2.14999 12.1941 2.14999C11.9637 2.14999 11.7759 2.33781 11.7759 2.56832V4.09365ZM18.9462 17.998C19.6006 17.998 20.1725 18.4647 20.1725 18.9997V21.1483C20.1725 21.6804 19.5977 22.15 18.9462 22.15H5.4421C4.77629 22.15 4.21575 21.6918 4.21575 21.1483V18.9997C4.21575 18.4562 4.77913 17.998 5.4421 17.998H5.80915V11.8455C5.80915 7.648 8.01715 5.43115 12.1913 5.43115C16.3683 5.43115 18.5791 7.648 18.5791 11.8455V17.9952H18.9462V17.998ZM6.64569 17.9724V11.8483C6.64569 8.14601 8.50939 6.2735 12.1941 6.2735C15.8732 6.2735 17.7426 8.14886 17.7426 11.8483V17.9724H6.64569ZM19.3388 21.1255C19.3161 21.1824 19.1425 21.3105 18.9433 21.3105H5.4421C5.22585 21.3105 5.06651 21.1853 5.05229 21.1483V19.0083C5.07505 18.9571 5.23154 18.8375 5.4421 18.8375H18.9462C19.1453 18.8375 19.3161 18.9656 19.336 18.9997L19.3388 21.1255ZM4.50882 9.62865C4.50882 9.85916 4.32103 10.047 4.09056 10.0498H2.56829C2.33782 10.0498 2.15002 9.862 2.15002 9.6315V9.62865C2.15002 9.3953 2.33782 9.20748 2.56829 9.20748H4.08771C4.32103 9.20748 4.50882 9.3953 4.50882 9.62865ZM22.15 9.65426C22.15 9.42376 21.9622 9.23594 21.7318 9.23594L20.2095 9.23024C19.979 9.23024 19.7912 9.42091 19.7912 9.65142V9.65426C19.7912 9.88477 19.979 10.0726 20.2095 10.0726H21.7318C21.9622 10.0726 22.15 9.88477 22.15 9.65426ZM5.73517 5.7385L4.65963 4.65711C4.49744 4.49205 4.49744 4.2274 4.65963 4.06234C4.82181 3.90014 5.08643 3.89729 5.24862 4.0595L5.25146 4.06234L6.32701 5.14373C6.48919 5.30879 6.48635 5.57629 6.32131 5.74134C6.24449 5.81818 6.14206 5.86086 6.03393 5.86086C5.91727 5.86086 5.812 5.81533 5.73517 5.7385ZM17.1166 5.31732C17.1166 5.55068 17.3072 5.73565 17.5377 5.73565C17.6487 5.73605 17.7553 5.69198 17.8336 5.61328L18.9092 4.53189C19.0714 4.36684 19.0714 4.10219 18.9092 3.93713L18.9063 3.93429C18.7441 3.77208 18.4795 3.77492 18.3173 3.93713L17.2418 5.01852C17.1621 5.0982 17.1166 5.20634 17.1166 5.31732ZM14.7236 12.7874V11.817H13.0677C12.8372 11.817 12.6494 11.6292 12.6494 11.3987V9.73394H11.6791V11.3987C11.6791 11.6292 11.4942 11.817 11.2637 11.8199H9.6077V12.7931H11.2637C11.4942 12.7931 11.682 12.981 11.682 13.2115V14.8762H12.6522V13.2115C12.6522 12.981 12.8372 12.7903 13.0705 12.7903L14.7236 12.7874ZM15.5602 11.6491C15.5602 11.2906 15.2187 10.9775 14.8261 10.9775H13.4859V9.6315C13.4859 9.23878 13.1729 8.89444 12.8173 8.89444H11.5141C11.1584 8.89444 10.8454 9.23878 10.8454 9.6315V10.9804H9.50527C9.10692 10.9804 8.77117 11.2877 8.77117 11.652V12.961C8.77117 13.3253 9.10692 13.6326 9.50527 13.6326H10.8454V14.9787C10.8454 15.3771 11.1527 15.7157 11.5141 15.7157H12.8173C13.1786 15.7157 13.4859 15.3799 13.4859 14.9787V13.6298H14.8261C15.2159 13.6298 15.5602 13.3168 15.5602 12.9582V11.6491Z" fill="#313235"/>
</svg>
