<svg width="24" height="24" fill="none" xmlns="http://www.w3.org/2000/svg"><path d="M19.387 3.356v17.28c0 .639-.569 1.201-1.216 1.201H5.841c-.647 0-1.216-.563-1.216-1.201V3.353c-.003-.628.577-1.202 1.213-1.202h12.33c.636 0 1.219.574 1.219 1.205Zm-.812 17.28V3.356c0-.177-.219-.384-.407-.384H5.838c-.185 0-.406.207-.406.38v17.281c0 .188.204.384.406.384h4.05V16.33c0-.227.182-.41.406-.41h3.42c.225 0 .407.185.407.41v4.686h4.05c.2 0 .404-.194.404-.381Zm-7.874.353h2.607v-4.25h-2.607v4.25Zm-.39-13.622H8.533V5.57h1.778v1.796Zm.813-2.207a.409.409 0 0 0-.407-.41h-2.59a.407.407 0 0 0-.407.41v2.616c0 .224.182.409.406.409h2.591a.407.407 0 0 0 .407-.41V5.16Zm2.529 2.207V5.57h1.779v1.796h-1.779Zm2.588-2.207a.409.409 0 0 0-.406-.41h-2.588a.405.405 0 0 0-.406.41v2.616c0 .224.182.409.406.409h2.588a.405.405 0 0 0 .406-.41V5.16Zm-7.706 7.344V10.71h1.78v1.795h-1.78Zm2.589-2.207a.407.407 0 0 0-.407-.41h-2.59a.407.407 0 0 0-.407.41v2.616c0 .224.182.41.406.41h2.591a.407.407 0 0 0 .407-.41v-2.616Zm2.529 2.207V10.71h1.779v1.795h-1.779Zm2.588-2.207a.407.407 0 0 0-.406-.41l-2.588-.002a.405.405 0 0 0-.406.41v2.618c0 .227.182.41.406.41h2.588a.405.405 0 0 0 .406-.41v-2.616Z" fill="#313235"/></svg>