<svg width="24" height="24" fill="none" xmlns="http://www.w3.org/2000/svg"><path d="M6.347 7.228a.563.563 0 0 1-.572-.551.56.56 0 0 1 .572-.552.56.56 0 0 1 .571.552.56.56 0 0 1-.571.551Zm1.143-.551c0 .302.254.551.571.551a.558.558 0 0 0 .569-.551.558.558 0 0 0-.569-.552.56.56 0 0 0-.571.552Zm-2.855.551a.563.563 0 0 1-.571-.551.56.56 0 0 1 .571-.552.56.56 0 0 1 .572.552.56.56 0 0 1-.572.551Zm1.773 3.939h-.907l-1.208 3.61h.785l.28-.907h1.17l.3.907h.883l-1.303-3.61Zm-.473.902.395 1.204h-.782l.376-1.204h.011Zm2.199-.902h1.238c.566 0 .924.078 1.157.297.196.179.291.46.291.846 0 .386-.09.675-.269.876-.21.239-.538.348-1.014.348h-.58v1.246h-.823v-3.613Zm1.706 1.61c.095-.095.143-.249.143-.459 0-.196-.042-.339-.138-.428-.1-.09-.252-.127-.507-.127h-.386v1.152h.409c.263 0 .375-.037.479-.138Zm1.571-1.61h.824v3.61h-.824v-3.61Zm7.099 2.899c1.355 0 2.164.784 2.164 2.098 0 1.314-.81 2.098-2.165 2.098-1.356 0-2.165-.784-2.165-2.098 0-1.314.81-2.098 2.165-2.098Zm1.344 2.1c0-.876-.44-1.302-1.345-1.302s-1.344.426-1.344 1.303.44 1.302 1.344 1.302c.905 0 1.345-.425 1.345-1.302Z" fill="#313235"/><path d="M21.843 5.825c0-.67-.564-1.216-1.255-1.216H3.41c-.692 0-1.255.547-1.255 1.216v12.333c0 .67.563 1.216 1.255 1.216h17.177c.691 0 1.255-.546 1.255-1.216V5.825ZM3.41 5.405h17.177c.24 0 .434.188.434.42v2.008H2.977V5.825c0-.232.196-.42.434-.42Zm0 13.174a.426.426 0 0 1-.434-.42V8.625h18.045v3.622a.865.865 0 0 0-.423.224l-.426.415a3.904 3.904 0 0 0-.46-.14v-.493a.845.845 0 0 0-.857-.832h-.686a.847.847 0 0 0-.857.832v.493c-.16.039-.314.084-.46.14l-.425-.412a.908.908 0 0 0-1.224 0l-.499.485a.814.814 0 0 0-.255.593c0 .222.09.432.253.591l.422.41a3.414 3.414 0 0 0-.14.45h-.51a.847.847 0 0 0-.857.832v.664c0 .46.384.832.858.832h.51c.033.137.078.294.14.448l-.423.41a.786.786 0 0 0-.213.389H3.41Zm17.61-.423c0 .232-.195.42-.433.42v-.003h-5.13l.449-.431a.39.39 0 0 0 .067-.48c-.112-.19-.204-.537-.25-.8a.407.407 0 0 0-.405-.334l-.883-.036.037-.7h.846c.201 0 .375-.14.406-.334.045-.26.137-.613.25-.801a.387.387 0 0 0-.068-.476l-.625-.661.563-.485.625.605c.123.12.314.151.473.076a3.04 3.04 0 0 1 .846-.252.4.4 0 0 0 .345-.392l.036-.855.723.037v.818c0 .196.143.36.345.392.316.05.585.131.845.255a.418.418 0 0 0 .471-.076l.468-.431v4.944Z" fill="#313235"/></svg>