<svg width="24" height="24" fill="none" xmlns="http://www.w3.org/2000/svg"><path d="M16.641 13.583a.523.523 0 0 0 .549-.067l.004-.004.006-.005.005-.004.005-.004 4.473-4.415a.488.488 0 0 0 .168-.429.497.497 0 0 0-.168-.31l-4.47-4.429a.515.515 0 0 0-.569-.084.489.489 0 0 0-.283.44l-.02 2.247-3.392.002c-.53 0-.96.432-.96.961v2.46c0 .529.43.96.96.96l3.39-.005.02 2.243c0 .191.106.36.282.443Zm.258-2.767a.503.503 0 0 0-.502-.485c-.002 0-.005 0-.008-.003l-3.44.006a.4.4 0 0 1-.4-.4v-2.46a.4.4 0 0 1 .4-.4l3.448-.004a.503.503 0 0 0 .502-.484V6.58l.017-2.176 4.341 4.308-4.341 4.286-.017-2.177v-.005Zm-9.756 9.367a.51.51 0 0 1-.342-.135l-4.474-4.437a.498.498 0 0 1-.168-.31.488.488 0 0 1 .168-.43l4.474-4.414a.122.122 0 0 1 .01-.008l.01-.009a.515.515 0 0 1 .548-.064.485.485 0 0 1 .283.442l.02 2.244 3.39-.005c.529 0 .96.43.96.96v2.46a.96.96 0 0 1-.96.96l-3.393.003-.02 2.25a.491.491 0 0 1-.282.44.489.489 0 0 1-.224.053Zm-.05-.634.016-2.176v-.006a.501.501 0 0 1 .51-.484l3.44-.003a.4.4 0 0 0 .4-.4v-2.46a.4.4 0 0 0-.4-.4l-3.44.005a.501.501 0 0 1-.51-.485v-.005l-.017-2.177-4.342 4.283 4.342 4.308Z" fill="#313235"/></svg>