<svg width="24" height="24" fill="none" xmlns="http://www.w3.org/2000/svg"><path fill-rule="evenodd" clip-rule="evenodd" d="M7.513 12.02a.962.962 0 0 1-.96-.961l-.003-3.39-2.247-.02a.489.489 0 0 1-.44-.282.515.515 0 0 1 .085-.569l4.434-4.47a.498.498 0 0 1 .31-.169.488.488 0 0 1 .43.168l4.411 4.474a.122.122 0 0 1 .008.01.514.514 0 0 1 .073.559.485.485 0 0 1-.442.282l-2.244.02.006 3.387c0 .529-.432.96-.961.96h-2.46Zm7.463 9.728c.09.07.193.103.3.103.14 0 .274-.059.37-.17l4.433-4.471a.515.515 0 0 0 .084-.569.489.489 0 0 0-.44-.283l-2.246-.02-.003-3.392c0-.529-.431-.96-.96-.96h-2.46c-.53 0-.96.431-.96.96l.005 3.39-2.244.02a.485.485 0 0 0-.442.282.515.515 0 0 0 .064.55c.003.002.006.006.008.01a.122.122 0 0 0 .009.009l4.412 4.473a.52.52 0 0 0 .07.068Zm.302-.49-4.286-4.342 2.177-.017h.006a.5.5 0 0 0 .484-.51l-.005-3.44a.4.4 0 0 1 .4-.4h2.46a.4.4 0 0 1 .4.4l.006 3.44a.5.5 0 0 0 .484.51h.006l2.176.017-4.308 4.341Zm-8.165-10.2-.003-3.44a.508.508 0 0 0-.487-.512h-.006L4.441 7.09l4.308-4.336 4.285 4.342-2.176.017h-.006a.501.501 0 0 0-.484.51l.005 3.437a.4.4 0 0 1-.4.4h-2.46a.4.4 0 0 1-.4-.4Z" fill="#313235"/></svg>