<svg width="24" height="24" fill="none" xmlns="http://www.w3.org/2000/svg"><path d="M7.513 12.02a.962.962 0 0 1-.96-.961l-.003-3.39-2.247-.02a.489.489 0 0 1-.44-.282.515.515 0 0 1 .085-.569l4.434-4.47a.498.498 0 0 1 .31-.169.488.488 0 0 1 .43.168l4.411 4.474a.122.122 0 0 1 .008.01.514.514 0 0 1 .073.559.485.485 0 0 1-.442.282l-2.244.02.006 3.387c0 .529-.432.96-.961.96h-2.46Zm7.463 9.728a.486.486 0 0 0 .67-.067l4.433-4.471a.515.515 0 0 0 .084-.569.489.489 0 0 0-.44-.283l-2.246-.02-.003-3.392a.962.962 0 0 0-.96-.96h-2.46a.96.96 0 0 0-.96.96l.005 3.39-2.244.02a.485.485 0 0 0-.442.282.515.515 0 0 0 .064.55.027.027 0 0 1 .008.01.122.122 0 0 0 .009.009l4.412 4.473a.52.52 0 0 0 .07.068Zm.302-.49-4.286-4.342 2.177-.017h.006a.5.5 0 0 0 .484-.51l-.005-3.44a.4.4 0 0 1 .4-.4h2.46a.4.4 0 0 1 .4.4l.006 3.44a.5.5 0 0 0 .484.51h.006l2.176.017-4.308 4.341Zm-8.165-10.2a.4.4 0 0 0 .4.401h2.46a.4.4 0 0 0 .4-.4l-.005-3.437a.501.501 0 0 1 .484-.51h.006l2.176-.017L8.75 2.753 4.44 7.09l2.176.017h.006c.274.011.49.238.487.513l.003 3.44Z" fill="#313235"/></svg>