<svg xmlns="http://www.w3.org/2000/svg" width="24" height="24" fill="none"><path fill="#0B2739" d="M19.821 20.474a.638.638 0 0 0 .47-.187.67.67 0 0 0 .183-.538v-12.6c.003-.383-.188-.686-.518-.829-.36-.154-.827-.081-1.09.171L16.087 9.27a.143.143 0 0 1-.11.042.191.191 0 0 1-.134-.06l-5.168-5.237-.003-.003c-.274-.272-.848-.84-1.593-.157L4.023 8.92c-.334.33-.496.658-.502.997-.003.341.16.68.485 1.005l5.067 5.096c.04.036.059.084.062.134a.155.155 0 0 1-.042.11l-2.572 2.57c-.266.29-.341.788-.176 1.16.134.3.4.474.728.474l12.678.005a.609.609 0 0 0 .07.003Zm-.056-.56-12.684-.006c-.075 0-.165-.016-.22-.143-.076-.168-.04-.422.072-.549l2.56-2.56a.711.711 0 0 0 .205-.523.756.756 0 0 0-.224-.513L4.4 10.527c-.219-.218-.322-.414-.32-.602.003-.185.115-.39.337-.61l5.044-5.05c.275-.25.41-.259.816.145l5.168 5.238c.137.14.319.218.512.224a.707.707 0 0 0 .524-.204l2.77-2.77c.093-.085.311-.132.48-.06.123.054.179.152.179.314v12.616l.002.028c.006.045-.002.084-.02.101-.016.017-.052.025-.1.02-.008-.003-.02-.003-.028-.003Z"/></svg>