<svg width="24" height="24" fill="none" xmlns="http://www.w3.org/2000/svg"><path d="M11.946 21.858h.003c.174 0 .345-.087.515-.263l8.958-8.902c.376-.367.496-.801.33-1.185-.173-.41-.64-.67-1.164-.653l-3.519.023c-.08 0-.145-.079-.145-.174l.003-6.908c-.009-.554-.154-.958-.443-1.238-.314-.302-.768-.437-1.426-.425H8.84c-.575-.017-1.042.134-1.353.44-.3.293-.448.705-.44 1.229v6.9c0 .094-.064.173-.146.173l-3.778.005c-.415-.005-.745.2-.888.55-.166.403-.026.896.355 1.257l8.93 8.967c.13.134.272.204.426.204ZM2.781 11.651c.048-.118.162-.182.325-.182.003 0 .008 0 .005.003h.006l3.782-.006a.75.75 0 0 0 .736-.762V3.796c-.005-.355.084-.624.264-.8.246-.242.638-.28.924-.272h6.244c.487-.009.817.075 1.008.26.17.165.258.434.263.82l-.003 6.9c0 .42.331.762.737.762l3.524-.023h.008c.275-.01.53.113.608.295.087.201-.09.42-.204.532l-8.961 8.907-.003.003a.488.488 0 0 1-.087.076l-.003-.003a.024.024 0 0 1-.008-.008l-.005-.006-8.936-8.975-.006-.005c-.249-.236-.274-.474-.218-.608Z" fill="#313235"/></svg>