<svg xmlns="http://www.w3.org/2000/svg" width="24" height="24" fill="none"><path fill="#000" d="M16.631 13.603q.11.05.224.05c.115 0 .23-.042.325-.117l.004-.004.006-.005.005-.004.005-.004 4.473-4.414a.488.488 0 0 0 .168-.429.5.5 0 0 0-.168-.311l-4.47-4.429a.515.515 0 0 0-.569-.084.49.49 0 0 0-.283.44l-.02 2.247-3.392.002c-.53 0-.96.432-.96.961v2.46c0 .53.43.96.96.96l3.39-.005.02 2.244c0 .19.106.358.282.442m.258-2.767a.503.503 0 0 0-.502-.485q-.003 0-.008-.003l-3.44.006a.4.4 0 0 1-.4-.4v-2.46a.4.4 0 0 1 .4-.4l3.448-.004a.503.503 0 0 0 .502-.484V6.6l.017-2.176 4.341 4.308-4.341 4.286-.017-2.177zm-9.756 9.367a.5.5 0 0 1-.342-.135l-4.474-4.437a.5.5 0 0 1-.168-.31.49.49 0 0 1 .168-.43l4.474-4.414.01-.008.01-.009a.52.52 0 0 1 .548-.064.49.49 0 0 1 .283.442l.02 2.244 3.39-.006c.529 0 .96.432.96.961v2.46c0 .53-.431.96-.96.96l-3.393.003-.02 2.25c0 .187-.109.355-.282.44a.5.5 0 0 1-.224.053m-.05-.633.016-2.177v-.006a.5.5 0 0 1 .51-.484l3.44-.003a.4.4 0 0 0 .4-.4v-2.46a.4.4 0 0 0-.4-.4l-3.44.005a.5.5 0 0 1-.51-.484v-.006l-.017-2.177-4.342 4.283z"/></svg>