<svg width="24" height="24" viewBox="0 0 24 24" fill="none" xmlns="http://www.w3.org/2000/svg">
<path fill-rule="evenodd" clip-rule="evenodd" d="M7.5135 12.0193C6.98409 12.0193 6.55272 11.5879 6.55272 11.0585L6.54992 7.66914L4.30342 7.64954C4.11575 7.64954 3.94768 7.54029 3.86364 7.36662C3.77681 7.18455 3.80202 6.97447 3.92807 6.8176C3.93367 6.8092 3.93927 6.8036 3.94768 6.798L8.38185 2.32741C8.46028 2.23497 8.57233 2.17615 8.69278 2.15934C8.82163 2.14533 8.94768 2.17895 9.05132 2.26018C9.07653 2.27979 9.09894 2.3022 9.12135 2.32741L13.5331 6.8008C13.5359 6.8036 13.5387 6.8071 13.5415 6.8106C13.5443 6.8141 13.5471 6.8176 13.5499 6.8204C13.676 6.97727 13.7012 7.18455 13.6143 7.36942C13.5303 7.54589 13.3622 7.65234 13.1718 7.65234L10.9281 7.67194L10.9337 11.0585C10.9337 11.5879 10.5023 12.0193 9.97289 12.0193H7.5135ZM14.9757 21.7476C15.0653 21.8176 15.169 21.8512 15.2754 21.8512C15.4155 21.8512 15.5499 21.7924 15.6452 21.6803L20.0793 17.2098C20.0877 17.2042 20.0933 17.1986 20.0989 17.1902C20.225 17.0333 20.2502 16.8232 20.1634 16.6411C20.0793 16.4675 19.9113 16.3582 19.7236 16.3582L17.4771 16.3386L17.4743 12.9465C17.4743 12.417 17.0429 11.9857 16.5135 11.9857H14.0541C13.5247 11.9857 13.0933 12.417 13.0933 12.9465L13.0989 16.3358L10.8552 16.3554C10.6648 16.3554 10.4967 16.4619 10.4127 16.6383C10.3258 16.8232 10.351 17.0305 10.4771 17.1874C10.4799 17.1902 10.4827 17.1937 10.4855 17.1972C10.4883 17.2007 10.4911 17.2042 10.4939 17.207L14.9057 21.6803C14.9281 21.7056 14.9505 21.728 14.9757 21.7476ZM15.2782 21.2574L10.9925 16.9156L13.169 16.8988H13.1746C13.4491 16.8904 13.6648 16.6635 13.6592 16.389L13.6536 12.9493C13.6536 12.728 13.8328 12.5487 14.0541 12.5487H16.5135C16.7348 12.5487 16.9141 12.728 16.9141 12.9493L16.9197 16.389C16.9141 16.6635 17.1298 16.8904 17.4043 16.8988H17.4099L19.5863 16.9156L15.2782 21.2574ZM7.11294 11.0585L7.11014 7.61872C7.11294 7.34421 6.89726 7.11732 6.62275 7.10612H6.61715L4.44068 7.08931L8.7488 2.75318L13.0345 7.09491L10.858 7.11172H10.8524C10.5779 7.12012 10.3622 7.34982 10.3678 7.62152L10.3734 11.0585C10.3734 11.2798 10.1942 11.4591 9.97289 11.4591H7.5135C7.29222 11.4591 7.11294 11.2798 7.11294 11.0585Z" fill="#313235"/>
</svg>
