<svg width="24" height="24" viewBox="0 0 24 24" fill="none" xmlns="http://www.w3.org/2000/svg">
<path d="M7.16755 16.3344L7.12877 6.97852C7.15938 6.72257 6.97427 6.48917 6.71832 6.4586C6.60564 6.44573 6.48974 6.47471 6.39637 6.53911C6.24343 6.64375 6.16615 6.82727 6.19512 7.00756L6.25957 17.4548C6.25474 17.4822 6.25957 17.5096 6.27245 17.5353C6.28854 17.5546 6.30625 17.5724 6.32556 17.5885C6.37224 17.7027 6.46399 17.7945 6.57828 17.8412C6.59437 17.8605 6.61208 17.8782 6.6314 17.8943C6.65876 17.9056 6.68774 17.912 6.71832 17.9136L16.9708 17.9312C17.1028 17.9377 17.2332 17.8877 17.325 17.7895C17.5085 17.6157 17.5166 17.3243 17.3427 17.1408C17.2542 17.0458 17.1303 16.996 16.9999 16.9976L7.83072 16.9976L17.7378 7.09048C17.9213 6.90696 17.923 6.60915 17.7395 6.42565C17.5576 6.24376 17.2582 6.24378 17.0746 6.42731L7.16755 16.3344Z" fill="#313235"/>
</svg>
