<svg width="24" height="24" viewBox="0 0 24 24" fill="none" xmlns="http://www.w3.org/2000/svg">
<path d="M19.5287 11.6204H5.51798L11.9656 4.83675C12.1682 4.6774 12.2023 4.38147 12.043 4.17888C11.9724 4.0901 11.8699 4.02864 11.7584 4.00815C11.5763 3.974 11.3918 4.04912 11.2848 4.19709L4.08367 11.7706C4.0609 11.7866 4.04496 11.8093 4.03586 11.8366C4.03358 11.8617 4.03358 11.8867 4.03586 11.9118C3.98805 12.0256 3.98805 12.1553 4.03586 12.2691C4.03358 12.2942 4.03358 12.3192 4.03586 12.3443C4.04724 12.3716 4.06318 12.3966 4.08367 12.4194L11.1528 19.8495C11.2416 19.9474 11.3691 20.0043 11.5034 19.9997C11.7561 20.0066 11.9678 19.8063 11.9747 19.5536C11.9792 19.4238 11.9269 19.3009 11.8335 19.2098L5.51798 12.5582H19.5287C19.7883 12.5582 20 12.3488 20 12.0893C20 11.8321 19.7883 11.6204 19.5287 11.6204C19.5287 11.6227 19.5287 11.6227 19.5287 11.6204Z" fill="#313235"/>
</svg>
