<svg xmlns="http://www.w3.org/2000/svg" width="24" height="24" fill="none"><path fill="#000" d="M11.43 21.757q.168.067.35.067c.313 0 .641-.148.902-.423l8.974-8.93q.204-.194.205-.426.005-.258-.264-.518L12.694 2.57c-.367-.375-.801-.496-1.185-.33-.41.173-.67.641-.653 1.165l.023 3.518c0 .081-.079.146-.174.146l-6.908-.003c-.554.008-.958.154-1.238.443-.302.313-.437.764-.425 1.425v6.219c-.017.574.134 1.042.44 1.353q.441.451 1.229.44h6.9c.094 0 .173.064.173.145l.005 3.779c-.005.415.2.745.55.888m-.729-5.404H3.797v.006q-.535.007-.802-.263c-.24-.247-.28-.639-.271-.925V8.929c-.009-.488.075-.818.26-1.009.165-.17.434-.257.82-.263l6.9.003a.75.75 0 0 0 .762-.737l-.023-3.524V3.39c-.01-.275.113-.53.295-.608.201-.087.42.09.532.205l8.907 8.96.003.003q.061.06.076.087-.004.005-.011.011l-.006.006-8.975 8.935-.003.003-.002.003c-.236.25-.474.272-.608.218-.12-.047-.185-.168-.182-.336v-.005l-.006-3.782a.75.75 0 0 0-.762-.736"/></svg>