<svg xmlns="http://www.w3.org/2000/svg" width="24" height="24" fill="none"><path fill="#000" d="M3.716 20.292c.12.12.286.185.47.185h.023q.025-.003.048 0h12.599c.384 0 .683-.188.826-.518.154-.359.082-.827-.17-1.09l-2.78-2.779c-.064-.061-.052-.174.018-.243l5.238-5.169.003-.002c.271-.275.84-.85.156-1.594l-5.064-5.06c-.33-.332-.658-.495-.997-.5-.342-.006-.681.16-1.006.484L7.988 9.08a.2.2 0 0 1-.135.062.16.16 0 0 1-.109-.042L5.173 6.527c-.289-.266-.788-.342-1.16-.176a.77.77 0 0 0-.474.736l-.005 12.667a.67.67 0 0 0 .182.538m.527-13.434a.5.5 0 0 1 .204-.04c.132 0 .263.042.345.115l2.56 2.56c.14.138.325.21.524.205a.76.76 0 0 0 .512-.224L13.481 4.4c.218-.218.414-.322.602-.32q.279.006.61.337l5.045 5.042c.25.274.258.409-.145.815l-5.238 5.168a.74.74 0 0 0-.225.513.7.7 0 0 0 .205.524l2.77 2.77c.087.092.135.31.062.479-.053.123-.151.18-.314.18H4.226l-.014.002c-.045.005-.084-.003-.101-.02-.017-.016-.025-.053-.02-.1q.004-.015.003-.029L4.1 7.08c0-.073.017-.165.143-.221"/></svg>