<svg width="24" height="24" fill="none" xmlns="http://www.w3.org/2000/svg"><path d="M3.716 20.302c.12.12.286.185.47.185h.023c.016-.002.033-.002.048 0h12.599c.384 0 .683-.188.826-.518.154-.359.082-.827-.17-1.09l-2.78-2.779c-.064-.062-.052-.174.018-.244l5.238-5.168.003-.002c.271-.275.84-.85.156-1.594l-5.064-5.06c-.33-.332-.658-.495-.997-.5-.342-.006-.681.16-1.006.484L7.988 9.09a.195.195 0 0 1-.135.062.155.155 0 0 1-.109-.042L5.173 6.537c-.289-.266-.788-.342-1.16-.176a.766.766 0 0 0-.474.736l-.005 12.667a.672.672 0 0 0 .182.538Zm.527-13.434a.532.532 0 0 1 .204-.04c.132 0 .263.042.345.115l2.56 2.56c.14.138.325.21.524.205a.762.762 0 0 0 .512-.224l5.093-5.073c.218-.218.414-.322.602-.32.185.004.39.116.61.337l5.045 5.042c.25.274.258.409-.145.815l-5.238 5.168a.743.743 0 0 0-.225.513.707.707 0 0 0 .205.524l2.77 2.77c.087.092.135.31.062.479-.053.123-.151.18-.314.18H4.226a.105.105 0 0 1-.014.002c-.045.006-.084-.003-.101-.02s-.025-.053-.02-.1c.003-.009.003-.02.003-.029L4.1 7.09c0-.073.017-.165.143-.221Z" fill="#313235"/></svg>