<svg xmlns="http://www.w3.org/2000/svg" width="24" height="24" fill="none"><path fill="#0B2739" d="M7.508 21.431c.3.288.728.426 1.344.426l.043-.002.038-.001h6.219c.574.017 1.042-.134 1.353-.44.3-.294.448-.706.44-1.23v-6.899c0-.095.064-.173.145-.173l3.779-.006h.017c.409 0 .734-.204.874-.549.162-.4.022-.893-.356-1.255l-8.93-8.966c-.129-.135-.272-.205-.426-.205h-.003c-.173 0-.341.087-.515.264l-8.96 8.901c-.376.368-.497.802-.331 1.185.173.41.641.67 1.165.653l3.518-.022c.081 0 .146.078.146.173l-.003 6.908c.008.554.154.958.443 1.238m.411-.426c-.17-.165-.257-.434-.263-.82l.003-6.902a.75.75 0 0 0-.737-.762l-3.524.022H3.39c-.275.011-.53-.112-.608-.294-.087-.202.09-.42.205-.532l8.96-8.908.003-.003a.49.49 0 0 1 .087-.075l.003.002a.025.025 0 0 1 .008.009l.006.006 8.938 8.974.003.004.003.002c.25.235.271.473.218.608-.05.117-.165.182-.327.182h-.014l-3.782.005a.75.75 0 0 0-.737.762v6.908c.006.356-.084.624-.263.801-.246.24-.639.28-.924.272H8.928c-.488.008-.818-.076-1.009-.26"/></svg>