<svg width="24" height="24" viewBox="0 0 24 24" fill="none" xmlns="http://www.w3.org/2000/svg">
<path fill-rule="evenodd" clip-rule="evenodd" d="M3.71594 20.3018C3.83639 20.4223 4.00166 20.4867 4.18653 20.4867C4.1939 20.4867 4.20157 20.4864 4.20935 20.4861C4.22522 20.4855 4.24152 20.4848 4.25656 20.4867H16.856C17.2398 20.4867 17.5395 20.299 17.6823 19.9685C17.8364 19.61 17.7636 19.1422 17.5115 18.8789L17.5059 18.8733L14.7327 16.1002C14.6683 16.0385 14.6795 15.9265 14.7496 15.8565L19.9877 10.6884L19.9905 10.6856L19.9906 10.6854C20.2624 10.4109 20.8307 9.83671 20.1473 9.09175L20.1389 9.08335L15.0829 4.03293C14.7524 3.69959 14.4246 3.53713 14.0857 3.53153C13.744 3.52592 13.405 3.69119 13.0801 4.01612L7.98765 9.08895C7.95124 9.12816 7.90362 9.14777 7.8532 9.15057C7.82799 9.15057 7.78037 9.14497 7.74395 9.10856L5.18093 6.54553L5.17253 6.53713C4.88401 6.27102 4.38541 6.19539 4.01286 6.36066C3.70754 6.49511 3.53667 6.76402 3.53947 7.09735L3.53387 19.764C3.51706 19.9741 3.58149 20.1674 3.71594 20.3018ZM4.24255 6.86766C4.30138 6.84245 4.37421 6.82844 4.44704 6.82844C4.57869 6.82844 4.71034 6.87046 4.79157 6.94329L7.3518 9.50351C7.49185 9.64077 7.67673 9.7136 7.87561 9.708C8.06608 9.70239 8.25096 9.62116 8.38821 9.48391L13.4806 4.41108C13.6991 4.19259 13.8952 4.08895 14.0829 4.09175C14.2678 4.09455 14.4722 4.2066 14.6935 4.42788L19.7384 9.4699C19.9877 9.74441 19.9961 9.87886 19.5927 10.285L14.3546 15.4531C14.2145 15.5903 14.1361 15.7724 14.1305 15.9657C14.1249 16.1646 14.1977 16.3523 14.335 16.4895L17.1053 19.2598C17.1921 19.3523 17.2398 19.5707 17.1669 19.7388C17.1137 19.8621 17.0157 19.9181 16.8532 19.9181H4.23975C4.23555 19.9181 4.23065 19.9188 4.22575 19.9195C4.22085 19.9202 4.21594 19.9209 4.21174 19.9209C4.16692 19.9265 4.12771 19.9181 4.1109 19.9013C4.09409 19.8845 4.08569 19.8481 4.09129 19.8004C4.09409 19.792 4.09409 19.7808 4.09409 19.7724L4.0997 7.09175V7.08895C4.0997 7.01612 4.1165 6.92368 4.24255 6.86766Z" fill="#313235"/>
</svg>
