<svg width="24" height="24" viewBox="0 0 24 24" fill="none" xmlns="http://www.w3.org/2000/svg">
<path fill-rule="evenodd" clip-rule="evenodd" d="M13.3477 20.0056C13.5311 20.1835 13.8315 20.475 14.2201 20.475C14.433 20.475 14.6711 20.3882 14.9316 20.1501L14.94 20.1417L19.9877 15.0857C20.6487 14.4246 20.6543 13.7299 20.0045 13.0801L14.9316 7.98765C14.8924 7.95124 14.8728 7.90362 14.87 7.8532C14.87 7.82799 14.8756 7.78037 14.912 7.74395L17.475 5.18093L17.4834 5.17253C17.7496 4.88401 17.8252 4.38541 17.6599 4.01286C17.5255 3.71314 17.2594 3.53947 16.9316 3.53947H16.9204L4.25376 3.53387C4.04367 3.51706 3.8504 3.58149 3.71594 3.71594C3.58149 3.8504 3.51706 4.04087 3.53387 4.25376V16.856C3.53107 17.2398 3.72155 17.5423 4.05208 17.6851C4.41062 17.8392 4.87841 17.7664 5.14171 17.5143L5.14732 17.5087L7.92042 14.7356C7.95684 14.6963 8.00446 14.6935 8.02967 14.6935C8.08009 14.6935 8.12771 14.7159 8.16412 14.7524L13.3322 19.9905L13.335 19.9933C13.3392 19.9973 13.3434 20.0014 13.3477 20.0056ZM14.5479 19.744C14.2734 19.9933 14.1389 20.0017 13.7327 19.5983L8.56468 14.3518C8.42743 14.2117 8.24536 14.1333 8.05208 14.1277C7.8532 14.1221 7.66552 14.1949 7.52827 14.3322L4.75796 17.1025C4.66552 17.1893 4.44704 17.237 4.27897 17.1641C4.15572 17.1109 4.0997 17.0129 4.0997 16.8504V4.23695C4.0997 4.23275 4.099 4.22785 4.0983 4.22295C4.0976 4.21804 4.0969 4.21314 4.0969 4.20894C4.09129 4.16412 4.0997 4.12491 4.1165 4.1081C4.13331 4.09129 4.16972 4.08289 4.21734 4.08849C4.22575 4.09129 4.23695 4.09129 4.24536 4.09129L16.926 4.0969H16.9288C17.0017 4.0969 17.0941 4.1137 17.1501 4.23975C17.2257 4.40782 17.1893 4.66272 17.0773 4.78877L14.5171 7.349C14.3798 7.48905 14.307 7.67393 14.3126 7.87281C14.3182 8.06328 14.3994 8.24816 14.5367 8.38541L19.6123 13.4806C19.8308 13.6991 19.9344 13.8952 19.9316 14.0829C19.9288 14.2678 19.8168 14.4722 19.5955 14.6935L14.5479 19.744Z" fill="#313235"/>
</svg>
