<svg width="24" height="24" fill="none" xmlns="http://www.w3.org/2000/svg"><path d="M13 19V5l-.486.007-.364.011c-2.518.112-4.365.986-5.508 2.628l-.052.056-.057.073a.462.462 0 0 1-.119.151l-.08.055a.427.427 0 0 1-.22.066L2 8.05l.011 7.918 4.094-.004.1.012c.13.03.246.12.317.25l.045.069.046.052.012.009a.347.347 0 0 1-.062-.109c1.233 1.826 3.233 2.713 5.952 2.747L13 19ZM11.787 6.012 12 6v12l-.218-.014c-2.031-.155-3.483-.89-4.37-2.186l-.003-.017a.155.155 0 0 0-.013-.018L7.33 15.7l-.045-.075a1.423 1.423 0 0 0-1.17-.61l-3.109.003L3 8.995l3.127-.003.16-.01c.26-.03.502-.136.716-.3l.016-.01.106-.094a1.28 1.28 0 0 0 .167-.198l.033-.053.046-.045a.521.521 0 0 0 .116-.185c.854-1.208 2.282-1.927 4.3-2.085Zm6.698.088a.401.401 0 0 0-.562.031.413.413 0 0 0 .027.573c.267.234.745.801 1.177 1.537a8.318 8.318 0 0 1 1.16 4.154c.029.35-.031 1.228-.233 2.104-.335 1.457-.991 2.745-2.058 3.709a.406.406 0 0 0 .265.711c.1 0 .19-.034.264-.101 1.179-1.066 1.914-2.474 2.293-4.07a9.36 9.36 0 0 0 .273-2.186l-.004-.174a9.087 9.087 0 0 0-1.285-4.584c-.434-.733-.863-1.259-1.206-1.598l-.11-.106Zm-3.327 2.27a.39.39 0 0 1 .554-.029l.052.05.136.143.083.095c.194.225.386.488.567.788.526.873.845 1.88.857 3.01l.008.195c.022 1.196-.425 2.853-1.677 3.983a.395.395 0 0 1-.562-.034.412.412 0 0 1 .034-.578c.995-.897 1.372-2.188 1.398-3.4v-.121l-.014-.344c-.087-1.46-.756-2.592-1.417-3.183a.413.413 0 0 1-.02-.574Z" fill="#313235"/></svg>