<svg width="24" height="24" viewBox="0 0 24 24" fill="none" xmlns="http://www.w3.org/2000/svg">
<path fill-rule="evenodd" clip-rule="evenodd" d="M13 19V5L12.514 5.00731L12.1497 5.01804C9.63153 5.12952 7.78466 6.00392 6.64171 7.64621L6.59014 7.70201L6.53322 7.7752C6.48583 7.85726 6.45574 7.89389 6.41407 7.9263L6.33398 7.98051C6.25621 8.02617 6.18483 8.04672 6.11477 8.04672L2 8.05036L2.01137 15.9678L6.10516 15.9641L6.20514 15.9758C6.3354 16.0063 6.45101 16.0957 6.52155 16.2255L6.5674 16.295L6.61251 16.3474L6.62468 16.3557C6.6027 16.3304 6.58217 16.2975 6.5631 16.2472C7.79637 18.0727 9.79619 18.9599 12.5153 18.9939L13 19ZM11.787 6.01206L12 6V18L11.7819 17.9863C9.75103 17.8305 8.29906 17.0961 7.41274 15.8003L7.40897 15.7834C7.40593 15.7781 7.40149 15.7717 7.39582 15.7646L7.33052 15.6999L7.28571 15.6247C7.02938 15.255 6.59752 15.0151 6.11682 15.0151L3.00711 15.0185L3 8.99517L6.12721 8.99153L6.28614 8.98223C6.54727 8.95148 6.78911 8.84559 7.00295 8.68223L7.01872 8.67111L7.12474 8.57771C7.18991 8.5146 7.24461 8.44942 7.29212 8.38007L7.3246 8.32742L7.37122 8.28186C7.42108 8.22936 7.45514 8.17852 7.4869 8.09723C8.34149 6.88878 9.76913 6.16993 11.787 6.01206ZM18.4851 6.10046C18.3278 5.95543 18.0717 5.96898 17.9234 6.13107C17.7752 6.29761 17.7893 6.55749 17.9496 6.7042C18.2171 6.93824 18.6954 7.50534 19.1269 8.24132C19.8377 9.45397 20.2711 10.8548 20.2865 12.395C20.3156 12.7445 20.2556 13.623 20.0539 14.4994C19.7186 15.9561 19.0627 17.2439 17.9955 18.2076C17.8298 18.3564 17.8157 18.6161 17.9604 18.7817C18.0408 18.8706 18.1499 18.919 18.2604 18.919C18.3601 18.919 18.4504 18.8849 18.5245 18.8176C19.7039 17.7522 20.4391 16.3437 20.818 14.7489C21.0276 13.8669 21.0952 13.1089 21.0912 12.5621L21.0873 12.3878C21.0685 10.6691 20.5903 9.13597 19.8017 7.80388C19.3676 7.07059 18.9387 6.54542 18.5959 6.20641L18.4851 6.10046ZM15.1576 8.37059C15.3035 8.20804 15.551 8.19522 15.7121 8.34101L15.7635 8.39044L15.8997 8.53363L15.9831 8.62851C16.1765 8.85356 16.3694 9.11677 16.5499 9.41653C17.0758 10.2902 17.3952 11.297 17.4068 12.4267L17.4148 12.6216C17.4368 13.8176 16.9895 15.4747 15.7377 16.6047C15.6643 16.6712 15.5716 16.7061 15.4735 16.7061C15.3607 16.7061 15.2539 16.6591 15.1756 16.5711C15.0275 16.4047 15.042 16.1458 15.21 15.9934C16.2046 15.0956 16.582 13.8054 16.6076 12.5929L16.6078 12.472L16.5941 12.1277C16.5075 10.6676 15.8376 9.53611 15.1772 8.94524C15.018 8.79837 15.0066 8.53873 15.1576 8.37059Z" fill="#313235"/>
</svg>
