<svg width="24" height="24" viewBox="0 0 24 24" fill="none" xmlns="http://www.w3.org/2000/svg">
<path fill-rule="evenodd" clip-rule="evenodd" d="M5.57633 21.8279H18.1394C18.5791 21.8279 18.9657 21.4413 18.9657 21.0015V7.89302C18.9657 7.89278 18.9657 7.89254 18.9657 7.89229C18.9657 7.81666 18.9377 7.74663 18.8845 7.69341L13.4223 2.23123C13.3953 2.20567 13.364 2.18515 13.3299 2.17113C13.297 2.15752 13.261 2.14999 13.2234 2.14999H5.57633C5.15896 2.14999 4.75 2.55896 4.75 2.97632V21.0015C4.75 21.4329 5.14496 21.8279 5.57633 21.8279ZM12.9433 2.71022H5.57633C5.46989 2.71022 5.31022 2.86988 5.31022 2.97632V21.0015C5.31022 21.122 5.45588 21.2676 5.57633 21.2676H18.1394C18.2682 21.2676 18.4055 21.1304 18.4055 21.0015V8.1724H15.9545C15.0749 8.1724 14.3214 7.88389 13.7752 7.34047C13.229 6.79705 12.9433 6.04355 12.9433 5.1612V2.71022ZM13.5035 3.10777V5.1612C13.5035 6.64859 14.4671 7.61218 15.9545 7.61218H18.0103L13.5035 3.10777ZM7.7556 19.3349C7.7556 19.4889 7.88165 19.615 8.03571 19.615C8.18978 19.615 8.31583 19.4889 8.31583 19.3349V7.62899C8.31583 7.47492 8.18978 7.34887 8.03571 7.34887C7.88165 7.34887 7.7556 7.47492 7.7556 7.62899V19.3349ZM14.5679 19.3349C14.5679 19.4889 14.694 19.615 14.848 19.615C15.0021 19.615 15.1282 19.4889 15.1282 19.3349V18.9634C16.0975 18.8632 16.6889 18.2891 16.694 17.4161C16.694 16.3713 15.8452 16.0464 15.1338 15.9567L15.1282 15.956V14.2905C15.3767 14.3265 15.6176 14.4111 15.8704 14.5478L15.8732 14.5506C15.9349 14.5842 16.0049 14.6038 16.0749 14.6066C16.2542 14.6066 16.3971 14.4609 16.3971 14.2844C16.3971 14.164 16.327 14.052 16.1982 13.9735C15.9025 13.7902 15.53 13.6743 15.1282 13.6383V13.2704C15.1282 13.1164 15.0021 12.9903 14.848 12.9903C14.694 12.9903 14.5679 13.1164 14.5679 13.2704V13.6431C13.7144 13.746 13.1786 14.313 13.1786 15.1444C13.1786 15.6883 13.4244 16.3641 14.5679 16.56V18.3108C14.2523 18.26 13.9337 18.1284 13.6183 17.9175C13.5511 17.8727 13.4755 17.8475 13.3943 17.8447C13.2094 17.8447 13.0609 17.9903 13.0581 18.1752C13.0581 18.3013 13.1113 18.3993 13.2206 18.4749C13.6208 18.7529 14.0845 18.9202 14.5679 18.9662V19.3349ZM15.1282 18.3181C15.6863 18.2436 16.0217 17.9249 16.0217 17.4469C16.0217 17.1261 15.91 16.7835 15.1282 16.6383V18.3181ZM14.5679 15.8656V14.2947C14.1191 14.3782 13.8508 14.6727 13.8508 15.1052C13.8508 15.381 13.9407 15.7048 14.5679 15.8656ZM10.7948 19.629C10.6408 19.629 10.5147 19.5029 10.5147 19.3489V12.0127C10.5147 11.8587 10.6408 11.7326 10.7948 11.7326C10.9489 11.7326 11.0749 11.8587 11.0749 12.0127V19.3489C11.0749 19.5029 10.9489 19.629 10.7948 19.629Z" fill="#313235"/>
</svg>
