<svg width="24" height="24" fill="none" xmlns="http://www.w3.org/2000/svg"><path fill-rule="evenodd" clip-rule="evenodd" d="M16.821 2.401c1.854.456 3.552 1.52 5.046 3.166.28.307.412.72.363 1.135-.068.435-.316.81-.693 1.038l-7.724 4.654 5.675 9.656a.057.057 0 0 0 .004.007.42.42 0 0 1-.165.577.442.442 0 0 1-.602-.157l-5.657-9.633-7.505 4.522c-.24.144-.517.217-.786.217-.143 0-.29-.024-.46-.073-.435-.147-.76-.445-.917-.825-.845-2.037-1.061-3.996-.643-5.812.579-2.552 2.356-4.762 5.288-6.568l-.453-.775a.064.064 0 0 0-.004-.007l-.005-.008a.42.42 0 0 1 .17-.57c.21-.12.48-.05.602.158l.442.754c2.835-1.573 5.53-2.06 8.024-1.456Zm4.251 4.608-1.728 1.04c-3.116-3.467-6.314-4.224-8.413-4.256 1.996-.798 3.9-.991 5.677-.558 1.678.412 3.224 1.388 4.601 2.905.111.12.164.29.147.45a.584.584 0 0 1-.284.419ZM9.343 4.784c1.374-.251 5.368-.5 9.241 3.727l-5.21 3.137-4.03-6.864Zm-.713.514c-.871 1.27-2.684 4.774-.655 9.604l4.651-2.804-3.996-6.8ZM5.101 16.635a.603.603 0 0 1-.514.059.593.593 0 0 1-.368-.328c-.778-1.876-.98-3.66-.6-5.306.442-1.955 1.69-3.7 3.695-5.206-.95 1.883-1.929 5.262-.099 9.507l-2.114 1.274Z" fill="#313235"/></svg>