<svg xmlns="http://www.w3.org/2000/svg" width="24" height="24" fill="none"><path fill="#313235" d="M12.002 21.746c-1.558 0-2.764-.918-2.875-2.66l.001-.146H3.4a.421.421 0 0 1-.395-.271.4.4 0 0 1 .13-.457c1.37-1.093 1.798-2.928 1.927-4.143l.03-.329.015-.288.007-.24-.002-.29-.003-.077v-3.9c0-1.1.175-2.075.508-2.923l.117-.278.417-.773a5.46 5.46 0 0 1 .894-1.056c1.15-1.044 2.566-1.44 3.596-1.585l.312-.038.281-.024.247-.013.295-.005.23.007.229-.007.186.002.228.008.264.018.297.03c1.04.125 2.543.505 3.75 1.604 1.22 1.107 1.87 2.692 1.931 4.714l.005.323-.003 3.955-.003.204.007.31.013.255.023.29.016.155.042.331c.176 1.197.646 2.782 1.88 3.766a.407.407 0 0 1-.192.721l-.074.007h-1.726l-1.126-.003h-2.856l-.004.079c-.145 1.746-1.346 2.727-2.891 2.727Zm0-.8c1.147 0 1.967-.617 2.082-1.897l.009-.109H9.934l.003.052c.086 1.281.905 1.954 2.065 1.954Zm-.044-17.89a6.772 6.772 0 0 0-1.67.146c-.932.193-1.78.553-2.478 1.112l-.228.193-.166.16a4.748 4.748 0 0 0-.44.512l-.121.172-.392.721c-.325.723-.51 1.562-.547 2.512l-.007.362-.002 3.838.006.18.001.258c-.024 1.807-.441 3.564-1.519 4.865l-.046.053h13.406l1.908.003-.086-.103a6.044 6.044 0 0 1-.862-1.512l-.107-.284a9.14 9.14 0 0 1-.463-2.12c-.04-.39-.056-.741-.055-1.04l.006-.261V8.949c0-1.963-.568-3.44-1.674-4.445-.736-.67-1.665-1.09-2.7-1.303a7.143 7.143 0 0 0-1.764-.146Z"/></svg>