<svg width="24" height="24" viewBox="0 0 24 24" fill="none" xmlns="http://www.w3.org/2000/svg">
<path d="M12.022 21.4958C10.4641 21.4958 9.25788 20.5784 9.1474 18.8356L9.148 18.6901L3.42039 18.6903C3.24672 18.6903 3.08705 18.5838 3.02543 18.4185C2.96381 18.2533 3.01703 18.0684 3.15428 17.962C4.52506 16.8685 4.95341 15.0343 5.08212 13.8193L5.1113 13.4902L5.1275 13.2018L5.13406 12.9613L5.1322 12.6712L5.12907 12.595V8.69586C5.12907 7.59418 5.30378 6.61956 5.63685 5.77199L5.75372 5.49418L6.17109 4.72107C6.42599 4.33171 6.72011 3.97877 7.06465 3.66505C8.21556 2.62058 9.63112 2.2249 10.6611 2.0799L10.9728 2.04197L11.2543 2.01793L11.501 2.00498L11.7961 2.00014L12.0254 2.00678L12.2548 2.00014L12.4409 2.00153L12.6685 2.0098L12.9331 2.02774L13.2301 2.05814C14.2692 2.18334 15.7726 2.56281 16.9806 3.66225C18.1994 4.76925 18.8493 6.35405 18.9113 8.37581L18.9162 8.69866L18.9131 12.6544L18.9105 12.8584L18.9167 13.1674L18.9298 13.4231L18.9528 13.7126C18.9576 13.7634 18.9629 13.8154 18.9688 13.8685L19.0114 14.1992C19.1869 15.3965 19.6573 16.9807 20.891 17.9648C21.0282 18.074 21.0786 18.2589 21.0198 18.4214C20.9694 18.5606 20.8449 18.6608 20.6992 18.6865L20.6249 18.6931H18.8994L17.7733 18.6903L14.917 18.6901L14.913 18.7689C14.7685 20.5152 13.5666 21.4958 12.022 21.4958ZM12.022 20.6958C13.1692 20.6958 13.9894 20.0794 14.1037 18.799L14.113 18.6901H9.954L9.95683 18.7424C10.0428 20.0234 10.862 20.6958 12.022 20.6958ZM11.9785 2.8054C11.5862 2.78233 10.981 2.81379 10.3085 2.95242C9.37596 3.14466 8.52863 3.50464 7.82968 4.0637L7.60227 4.25746L7.43585 4.41712C7.273 4.58144 7.12448 4.75578 6.99627 4.92886L6.87506 5.10111L6.48347 5.822C6.15846 6.54548 5.9732 7.38353 5.93605 8.33412L5.92907 8.69586L5.92671 12.5337L5.93344 12.7132L5.93399 12.9719C5.90997 14.7792 5.49282 16.5363 4.41534 17.8371L4.369 17.89L17.7753 17.8903L19.683 17.893L19.5971 17.7901C19.2452 17.3458 18.96 16.8379 18.7353 16.2778L18.628 15.9935C18.3872 15.3148 18.2393 14.598 18.1648 13.8732C18.1247 13.4836 18.1094 13.1327 18.1102 12.834L18.1162 12.5726V8.69866C18.1162 6.73645 17.5477 5.2581 16.4421 4.25389C15.7058 3.58375 14.777 3.16384 13.7421 2.95111C13.0704 2.81303 12.4675 2.78217 11.9785 2.8054Z" fill="#313235"/>
</svg>
