<svg xmlns="http://www.w3.org/2000/svg" width="24" height="24" fill="none"><path fill="#0B2739" d="M7.141 2.156h9.703c.717 0 1.3.577 1.305 1.28v17.115c0 .493-.277.936-.725 1.154a1.303 1.303 0 0 1-1.37-.132l-3.731-3.672a.464.464 0 0 0-.644.006L7.976 21.54c-.437.336-.961.387-1.41.168a1.28 1.28 0 0 1-.725-1.154V3.439c0-.706.583-1.283 1.3-1.283m9.9 18.799a.44.44 0 0 0 .254-.401h.003V3.442a.45.45 0 0 0-.451-.445H7.144a.45.45 0 0 0-.451.445v17.115c0 .174.092.322.252.4a.45.45 0 0 0 .473-.044l3.664-3.603c.255-.249.591-.372.922-.372.336 0 .666.126.918.372l3.687 3.636c.095.067.274.087.431.009"/></svg>