<svg xmlns="http://www.w3.org/2000/svg" width="24" height="24" fill="none"><path fill="#0B2739" d="m20.387 3.32 1.417 4.856a.376.376 0 0 1 .003.177c.02.092.03.188.03.288v11.692c0 .83-.728 1.505-1.624 1.505H3.776c-.896 0-1.625-.675-1.625-1.505V8.641c.003-.145.028-.288.073-.428l.001-.018c0-.007 0-.013.002-.019L3.599 3.32c.034-.65.67-1.168 1.451-1.168h13.888c.78 0 1.418.518 1.449 1.168ZM4.59 3.372a.377.377 0 0 1-.014.098L3.535 7.16c.078-.012.157-.023.24-.023H9.25l.44-4.151H5.05c-.255 0-.459.174-.459.387ZM20.211 21c.35 0 .635-.3.635-.667h.003V8.641c0-.367-.286-.666-.636-.666h-5.745l.003 2.72c0 .23-.222.417-.496.417H9.689c-.274 0-.496-.188-.496-.417v-2.72H3.776c-.347 0-.633.3-.633.666v11.692c0 .367.286.667.633.667H20.21Zm-6.732-10.723V7.975h-3.297l.003 2.302h3.294Zm-.064-3.14-.53-4.145h-2.204l-.44 4.145h3.174Zm6-3.664a.286.286 0 0 1-.017-.098c0-.213-.205-.386-.457-.386h-5.059l.527 4.151h5.801c.092 0 .185.008.277.025l-1.072-3.692Z"/></svg>