<svg xmlns="http://www.w3.org/2000/svg" width="24" height="24" fill="none"><path fill="#000" d="M16.824 7.287h3.737c.712 0 1.28.574 1.28 1.291V20.55c0 .72-.571 1.291-1.283 1.291H3.435c-.703 0-1.28-.571-1.28-1.291V8.578c0-.717.577-1.291 1.28-1.291h3.737v-.575c0-2.507 2.126-4.557 4.734-4.557h.182c2.616 0 4.736 2.05 4.736 4.557zm-8.812-.575v.575h7.975v-.575c0-2.042-1.742-3.714-3.896-3.714h-.182c-2.146 0-3.897 1.672-3.897 3.714M3.43 8.13a.444.444 0 0 0-.436.448v3.703c1.725 1.4 4.523 2.034 9.08 2.034h.326c4.249-.037 6.913-.625 8.605-1.908V8.572a.446.446 0 0 0-.446-.442zm17.575 12.42s0-7.132-.003-7.132c-1.717 1.098-4.146 1.63-7.782 1.723v1.61q0 .38-.226.608c-.14.143-.342.219-.594.219h-.804A.83.83 0 0 1 11 17.36q-.227-.229-.227-.608V15.14l.008-.008c-3.66-.101-6.08-.667-7.79-1.807v7.23c0 .243.2.442.443.442h17.129a.444.444 0 0 0 .44-.448m-9.19-5.4-.216.008.016 1.594.762-.017.009-1.586v-.008z"/></svg>