<svg width="24" height="24" viewBox="0 0 24 24" fill="none" xmlns="http://www.w3.org/2000/svg">
<path fill-rule="evenodd" clip-rule="evenodd" d="M20.451 12.1359C20.6919 12.1359 20.888 12.3207 20.888 12.5532V14.2311C20.8824 14.4664 20.6863 14.6569 20.451 14.6513C20.2157 14.6569 20.0196 14.4692 20.014 14.2311V12.9734H18.2549C18.256 13.0261 18.2581 13.0769 18.2601 13.1278C18.2631 13.2041 18.2661 13.2804 18.2661 13.3627C18.2661 15.0574 18.1177 16.5028 17.6583 17.6485L20.0112 18.3347C20.2017 18.3908 20.3306 18.5672 20.3193 18.7577L20.1793 21.2871C20.1625 21.514 19.972 21.6877 19.7423 21.6849H19.7199C19.4846 21.6765 19.2997 21.4804 19.3053 21.2451V21.2423L19.4286 19.0406L17.2661 18.416C16.4146 19.7857 14.902 20.556 12.2745 20.556C9.64148 20.556 8.12887 19.7829 7.27733 18.4048L5.07565 19.0434L5.1961 21.2451C5.2045 21.4804 5.02243 21.6765 4.78714 21.6849H4.75912C4.53223 21.6877 4.34176 21.514 4.32495 21.2871L4.18489 18.7577C4.17649 18.5616 4.30534 18.3852 4.49582 18.3347L6.89078 17.6373C6.43419 16.4972 6.28854 15.0546 6.28854 13.3655C6.28854 13.2832 6.29156 13.2069 6.29459 13.1306L6.29459 13.1306C6.2966 13.0797 6.29862 13.0289 6.29974 12.9762H4.54064V14.2339C4.53503 14.4692 4.34176 14.6597 4.10366 14.6541C3.86837 14.6597 3.67229 14.472 3.66669 14.2339V12.556C3.66669 12.3235 3.86277 12.1359 4.10366 12.1359H6.32495C6.42579 10.3487 6.75912 9.06863 7.37817 8.15546L4.49862 7.31513C4.30814 7.26471 4.17929 7.08824 4.1877 6.89216L4.32775 4.36275C4.34176 4.13025 4.56024 3.93978 4.78714 3.96499C5.02803 3.97619 5.21291 4.17507 5.2017 4.40756L5.08125 6.60924L7.91599 7.43557C7.93166 7.43949 7.94597 7.4489 7.95986 7.45803C7.96583 7.46195 7.97172 7.46582 7.97761 7.46919L8.10926 7.35154C7.85716 6.93417 7.71991 6.42437 7.71991 5.78852C7.71991 3.94538 8.75632 3.20588 10.4342 2.95378L10.1849 2.71569C10.0196 2.56162 10.014 2.30112 10.1681 2.13866L10.1849 2.12185C10.3586 1.95938 10.6303 1.95938 10.8039 2.12185L11.5714 2.85854L11.7059 2.85348C11.894 2.84624 12.0839 2.83894 12.2829 2.83894C12.4448 2.83894 12.5978 2.84399 12.7496 2.84901C12.8237 2.85146 12.8976 2.8539 12.972 2.85574L13.7395 2.12185C13.9132 1.95938 14.1849 1.95938 14.3586 2.12185C14.5294 2.28711 14.5294 2.55042 14.3586 2.71569L14.1121 2.95098C15.8039 3.20028 16.846 3.93978 16.846 5.78852C16.846 6.42717 16.7087 6.93978 16.451 7.35994C16.4678 7.37534 16.4853 7.39005 16.5028 7.40475L16.5028 7.40476C16.5203 7.41947 16.5378 7.43417 16.5546 7.44958C16.5584 7.44771 16.5618 7.44553 16.5652 7.44336C16.5721 7.439 16.5789 7.43464 16.5883 7.43277L19.4258 6.60644L19.3025 4.40476C19.2941 4.16947 19.479 3.97059 19.7143 3.96218H19.7171C19.9468 3.93978 20.1513 4.10784 20.1737 4.33753C20.1737 4.34594 20.1737 4.35154 20.1765 4.35994L20.3165 6.88936C20.325 7.08543 20.1961 7.2619 20.0084 7.31233L17.1737 8.13866C17.8011 9.04902 18.1345 10.3179 18.2297 12.1303L20.451 12.1359ZM8.59666 5.79132C8.59666 4.39356 9.16529 3.68207 12.2857 3.68207C15.4034 3.68207 15.9748 4.39076 15.9748 5.79132C15.9748 6.2507 15.8908 6.60364 15.7339 6.88655C14.86 6.42157 13.7339 6.17787 12.2773 6.17787C10.832 6.17787 9.7087 6.41597 8.83475 6.87815C8.68069 6.59804 8.59666 6.2479 8.59666 5.79132ZM17.3894 13.3655C17.3894 18.1723 16.1485 19.7129 12.2773 19.7129C8.40618 19.7129 7.16529 18.1723 7.16529 13.3655C7.16529 10.3627 7.66389 8.71569 8.83195 7.85574C9.59946 7.29272 10.7283 7.01821 12.2773 7.01821C13.8151 7.01821 14.9356 7.28711 15.7003 7.84174C16.8852 8.69608 17.3894 10.3487 17.3894 13.3655ZM12.6443 9.19188C12.6443 8.95938 12.4482 8.77171 12.2073 8.77171C11.9664 8.77171 11.7703 8.95938 11.7703 9.19188V17.2927C11.7759 17.5308 11.972 17.7185 12.2073 17.7129C12.4454 17.7185 12.6387 17.528 12.6443 17.2927V9.19188Z" fill="#313235"/>
</svg>
