<svg width="24" height="24" fill="none" xmlns="http://www.w3.org/2000/svg"><path fill-rule="evenodd" clip-rule="evenodd" d="M19.907 6.403c-1.688-1.706-3.877-1.796-4.166-1.808a.635.635 0 0 1-.03-.001H4.293c-.532 0-1.075.238-1.487.658-.412.417-.65.97-.65 1.513v8.689c0 .54.236 1.092.65 1.51.353.358.81.568 1.322.63.395 1.123 1.367 1.767 2.765 1.767 1.39 0 2.358-.63 2.759-1.74h4.188c.4 1.107 1.367 1.74 2.759 1.74 1.39 0 2.358-.63 2.756-1.74h.35c.535 0 1.076-.24 1.488-.657.411-.418.65-.97.65-1.51v-3.477c0-2.4-.653-4.274-1.936-5.574Zm.709 9.972c-.26.264-.591.415-.91.415h-.18l.01-.094c.012-.11.024-.223.024-.343 0-1.883-1.107-3.006-2.961-3.006-1.854 0-2.961 1.123-2.961 3.006 0 .12.012.232.024.343l.01.094h-3.85l.01-.093a3.16 3.16 0 0 0 .025-.344c0-1.883-1.107-3.006-2.961-3.006-1.855 0-2.961 1.123-2.961 3.006 0 .096.01.184.019.273l.009.091a1.366 1.366 0 0 1-.577-.342c-.26-.263-.409-.6-.409-.921v-4.23h12.16c.194-.005 4.452-.112 5.888 2.924v1.306c0 .322-.152.658-.41.921Zm-6.163-.022c0 1.426.742 2.176 2.143 2.176 1.403 0 2.143-.753 2.143-2.176s-.742-2.177-2.143-2.177c-1.4 0-2.143.754-2.143 2.177Zm-7.56 2.176c-1.4 0-2.143-.75-2.143-2.176 0-1.423.742-2.177 2.143-2.177 1.4 0 2.143.754 2.143 2.177s-.74 2.176-2.143 2.176ZM4.29 5.426c-.317 0-.647.15-.908.414-.258.264-.409.6-.409.925v3.63h4.927v-4.97h-3.61Zm4.431 4.969h4.89v-4.97h-4.89v4.97Zm12.303 1.582c0-6.47-5.098-6.551-5.314-6.551h-1.28v4.969h.68c.163-.008 3.866-.157 5.914 2.244v-.662Z" fill="#313235"/></svg>