<svg width="24" height="24" viewBox="0 0 24 24" fill="none" xmlns="http://www.w3.org/2000/svg">
<path fill-rule="evenodd" clip-rule="evenodd" d="M19.9069 6.40327C18.2191 4.69684 16.0299 4.60713 15.7413 4.5953C15.7248 4.59463 15.7145 4.5942 15.7109 4.59375H4.2935C3.76129 4.59375 3.21787 4.83185 2.80611 5.25201C2.39435 5.66938 2.15625 6.2212 2.15625 6.76462V15.4537C2.15625 15.9943 2.39154 16.5461 2.80611 16.9635C3.15905 17.322 3.61563 17.5321 4.12824 17.5938C4.5232 18.717 5.49519 19.3613 6.89294 19.3613C8.2823 19.3613 9.25149 18.731 9.65205 17.6218H13.8397C14.2403 18.7282 15.2067 19.3613 16.5988 19.3613C17.9882 19.3613 18.9574 18.731 19.3551 17.6218H19.7053C20.2403 17.6218 20.7809 17.3809 21.1927 16.9635C21.6044 16.5461 21.8425 15.9943 21.8425 15.4537V11.9775C21.8425 9.57694 21.1899 7.70299 19.9069 6.40327ZM20.6156 16.3753C20.3551 16.6386 20.0246 16.7898 19.7053 16.7898H19.526C19.5291 16.7586 19.5324 16.7275 19.5357 16.6964C19.5476 16.5851 19.5596 16.4732 19.5596 16.3529C19.5596 14.4705 18.4532 13.3473 16.5988 13.3473C14.7445 13.3473 13.638 14.4705 13.638 16.3529C13.638 16.4732 13.65 16.5851 13.6619 16.6964L13.6619 16.6964C13.6653 16.7275 13.6686 16.7586 13.6717 16.7898H9.82292C9.82597 16.7586 9.8293 16.7276 9.83263 16.6965L9.83264 16.6964C9.84456 16.5851 9.85653 16.4732 9.85653 16.3529C9.85653 14.4705 8.75009 13.3473 6.89575 13.3473C5.0414 13.3473 3.93496 14.4705 3.93496 16.3529C3.93496 16.4491 3.94434 16.5375 3.95375 16.6263C3.95694 16.6564 3.96014 16.6865 3.96297 16.717C3.74449 16.6498 3.55121 16.5405 3.38594 16.3753C3.12544 16.112 2.97698 15.7758 2.97698 15.4537V11.224H15.131L15.1375 11.2239C15.3306 11.219 19.5888 11.1118 21.0246 14.1484V15.4537C21.0246 15.7758 20.8733 16.112 20.6156 16.3753ZM14.4532 16.3529C14.4532 17.7786 15.1955 18.5293 16.596 18.5293C17.9994 18.5293 18.7389 17.7758 18.7389 16.3529C18.7389 14.9299 17.9966 14.1764 16.596 14.1764C15.1955 14.1764 14.4532 14.9299 14.4532 16.3529ZM6.89294 18.5293C5.49238 18.5293 4.75009 17.7786 4.75009 16.3529C4.75009 14.9299 5.49238 14.1764 6.89294 14.1764C8.2935 14.1764 9.0358 14.9299 9.0358 16.3529C9.0358 17.7758 8.29631 18.5293 6.89294 18.5293ZM4.2907 5.42568C3.97418 5.42568 3.64365 5.57694 3.38314 5.84025C3.12544 6.10355 2.97418 6.43969 2.97418 6.76462V10.3949H7.90135V5.42568H4.2907ZM8.72208 10.3949H13.6128V5.42568H8.72208V10.3949ZM21.0246 11.9775C21.0246 5.50692 15.9266 5.42568 15.7109 5.42568H14.4308V10.3949H15.1114C15.2739 10.3865 18.977 10.238 21.0246 12.6386V11.9775Z" fill="#313235"/>
</svg>
