<svg width="24" height="24" viewBox="0 0 24 24" fill="none" xmlns="http://www.w3.org/2000/svg">
<path fill-rule="evenodd" clip-rule="evenodd" d="M10.6296 16.9182H17.1843C17.9378 16.9182 18.5736 16.6633 19.0806 16.1647C19.5708 15.6717 19.935 14.9574 20.1871 13.9826C20.3047 13.5288 20.6941 11.9658 21.0694 10.4532C21.1967 9.94402 21.3207 9.44661 21.4333 8.99476C21.5959 8.34287 21.7347 7.78582 21.8257 7.42516C21.8313 7.40275 21.8341 7.37754 21.8341 7.35513C21.8341 7.20107 21.7081 7.07502 21.554 7.07502H17.7165V5.59883C17.7165 6.46437 15.8846 6.85933 14.1787 6.85933C12.4767 6.85933 10.6432 6.46488 10.6409 5.6005L10.6409 5.60163V7.07222H10.8762C11.0302 7.07222 11.1563 7.19827 11.1563 7.35233C11.1563 7.50639 11.0302 7.63244 10.8762 7.63244H10.6409V8.20667V10.8117V13.4168C10.6409 14.2823 12.4756 14.6773 14.1787 14.6773C15.8846 14.6773 17.7165 14.2851 17.7165 13.4196V10.8145V8.20947L17.7165 8.20721L17.7165 8.20387V7.63524H21.1955C21.0335 8.27492 20.7935 9.24018 20.5414 10.2541L20.526 10.3159C20.3862 10.8739 20.2453 11.4391 20.1173 11.9528C19.8989 12.8291 19.7178 13.5554 19.6436 13.8397C19.4196 14.7025 19.0974 15.3495 18.6829 15.7641C18.2823 16.1647 17.7921 16.3607 17.1843 16.3607H10.6296C9.30191 16.3607 8.42796 15.4728 8.17586 13.8649C8.0358 12.9658 6.69687 4.92376 6.5372 4.0274C6.44196 3.50079 6.13944 3.0218 5.68286 2.68006C5.23468 2.34112 4.66325 2.15625 4.07502 2.15625H2.43636C2.2823 2.15625 2.15625 2.2823 2.15625 2.43636C2.15625 2.59042 2.2823 2.71647 2.43636 2.71647H4.07502C4.5428 2.71647 4.99378 2.86213 5.34392 3.12824C5.68846 3.38594 5.91255 3.73888 5.98258 4.12544C6.14224 5.019 7.47838 13.0526 7.62124 13.9518C7.7753 14.9154 8.12824 15.6633 8.67446 16.1787C9.18706 16.6633 9.86493 16.9182 10.6296 16.9182ZM11.9546 11.2347C11.3355 11.0498 11.2011 10.8509 11.2011 10.8117V8.92997C11.3857 9.03012 11.6085 9.11573 11.8577 9.18724C12.5179 9.37708 13.3631 9.46718 14.1787 9.46718C14.2587 9.46718 14.339 9.46631 14.4194 9.46456C15.4678 9.44184 16.5319 9.27037 17.1563 8.93216V10.8145C17.1563 10.8509 17.0246 11.0498 16.4028 11.2375C15.8117 11.414 15.0246 11.512 14.1787 11.512C13.3327 11.512 12.5428 11.414 11.9546 11.2347ZM11.2011 11.5372C11.839 11.8813 12.9271 12.0528 13.9927 12.0707C14.0548 12.0717 14.1168 12.0722 14.1787 12.0722C14.2586 12.0722 14.3389 12.0714 14.4192 12.0696C15.4676 12.0469 16.5319 11.8754 17.1563 11.5372V13.4196C17.1563 13.456 17.0246 13.6549 16.4028 13.8425C15.8117 14.019 15.0246 14.117 14.1787 14.117C13.3327 14.117 12.5428 14.019 11.9546 13.8425C11.3355 13.6577 11.2011 13.4588 11.2011 13.4196V11.5372ZM11.2011 5.59883L11.2011 5.60163C11.2011 5.64084 11.3355 5.83972 11.9546 6.0246C12.5428 6.20107 13.3327 6.29911 14.1787 6.29911C15.0246 6.29911 15.8117 6.20107 16.4028 6.0246C17.0246 5.83692 17.1563 5.63804 17.1563 5.59883H11.2011ZM11.2011 5.59883C11.1996 5.44604 11.0741 5.32152 10.921 5.32152C10.7679 5.32152 10.6424 5.44604 10.6409 5.59883H11.2011ZM11.2011 8.20667C11.2011 8.24344 11.3193 8.42053 11.8441 8.59485C11.8791 8.60648 11.9159 8.61809 11.9546 8.62964C12.5428 8.80611 13.3327 8.90695 14.1787 8.90695C15.0246 8.90695 15.8117 8.80891 16.4028 8.63244C17.0246 8.44477 17.1563 8.24589 17.1563 8.20947V6.32712C16.484 6.69127 15.3019 6.86213 14.1787 6.86213C13.0554 6.86213 11.8762 6.68846 11.2011 6.32432V8.20667ZM10.6297 21.8341C9.75852 21.8341 9.25712 21.3327 9.25712 20.4616C9.25712 19.5904 9.75852 19.089 10.6297 19.089C11.5008 19.089 12.0022 19.5904 12.0022 20.4616C12.0022 21.3327 11.5036 21.8341 10.6297 21.8341ZM9.81734 20.4616C9.81734 19.8985 10.0666 19.6492 10.6297 19.6492C11.1927 19.6492 11.442 19.8985 11.442 20.4616C11.442 21.0246 11.1927 21.2739 10.6297 21.2739C10.0666 21.2739 9.81734 21.0246 9.81734 20.4616ZM16.0919 21.8341C15.2207 21.8341 14.7193 21.3327 14.7193 20.4616C14.7193 19.5904 15.2207 19.089 16.0919 19.089C16.963 19.089 17.4644 19.5904 17.4644 20.4616C17.4644 21.3327 16.9658 21.8341 16.0919 21.8341ZM15.2795 20.4616C15.2795 19.8985 15.5288 19.6492 16.0918 19.6492C16.6549 19.6492 16.9042 19.8985 16.9042 20.4616C16.9042 21.0246 16.6549 21.2739 16.0918 21.2739C15.5288 21.2739 15.2795 21.0246 15.2795 20.4616Z" fill="#313235"/>
</svg>
