<svg width="24" height="24" viewBox="0 0 24 24" fill="none" xmlns="http://www.w3.org/2000/svg">
<path fill-rule="evenodd" clip-rule="evenodd" d="M17.1843 16.9182H10.6296C9.86493 16.9182 9.18706 16.6633 8.67446 16.1787C8.12824 15.6633 7.7753 14.9154 7.62124 13.9518C7.47838 13.0526 6.14224 5.019 5.98258 4.12544C5.91255 3.73888 5.68846 3.38594 5.34392 3.12824C4.99378 2.86213 4.5428 2.71647 4.07502 2.71647H2.43636C2.2823 2.71647 2.15625 2.59042 2.15625 2.43636C2.15625 2.2823 2.2823 2.15625 2.43636 2.15625H4.07502C4.66325 2.15625 5.23468 2.34112 5.68286 2.68006C6.13944 3.0218 6.44196 3.50079 6.5372 4.0274C6.59424 4.3476 6.80176 5.57965 7.05136 7.07222H10.3895L13.9602 3.31871C14.019 3.25709 14.0974 3.22348 14.1815 3.22348C14.2655 3.22348 14.3439 3.25709 14.4027 3.31871L15.7809 4.7725V4.07502C15.7809 3.90695 15.9182 3.7697 16.0862 3.7697H17.7249C17.8929 3.7697 18.0302 3.90695 18.0302 4.07502V7.07502H21.554C21.7081 7.07502 21.8341 7.20107 21.8341 7.35513C21.8341 7.37754 21.8313 7.40275 21.8257 7.42516C21.7347 7.78582 21.5959 8.34287 21.4333 8.99476C21.3207 9.44661 21.1967 9.94402 21.0694 10.4532C20.6941 11.9658 20.3047 13.5288 20.1871 13.9826C19.935 14.9574 19.5708 15.6717 19.0806 16.1647C18.5736 16.6633 17.9378 16.9182 17.1843 16.9182ZM18.4979 7.63524H21.1955C21.0335 8.27492 20.7935 9.24018 20.5414 10.2541L20.526 10.3159C20.3862 10.8739 20.2453 11.4391 20.1173 11.9528C19.8989 12.8291 19.7178 13.5554 19.6436 13.8397C19.4196 14.7025 19.0974 15.3495 18.6829 15.7641C18.2823 16.1647 17.7921 16.3607 17.1843 16.3607H10.6296C9.30191 16.3607 8.42796 15.4728 8.17586 13.8649C8.09197 13.3264 7.57804 10.2257 7.14498 7.63244H9.8566L8.76409 8.7809C8.71087 8.83692 8.68006 8.91255 8.68006 8.99098C8.68006 9.15905 8.81731 9.29631 8.98538 9.29631H10.3187V12.8145C10.3187 13.3551 10.6296 13.6661 11.1703 13.6661H17.1787C17.7193 13.6661 18.0302 13.3551 18.0302 12.8145V9.29631H19.3635C19.442 9.29631 19.5176 9.26549 19.5736 9.21227C19.6969 9.09743 19.6997 8.90415 19.5848 8.7809L18.4979 7.63524ZM10.7133 7.61776L9.69687 8.68566H10.624C10.7921 8.68566 10.9294 8.82292 10.9294 8.99098V12.8145C10.9294 13.0134 10.9714 13.0554 11.1703 13.0554H17.1787C17.3775 13.0554 17.4196 13.0134 17.4196 12.8145V8.99098C17.4196 8.82292 17.5568 8.68566 17.7249 8.68566H18.652L17.5036 7.47278C17.4504 7.41675 17.4196 7.34112 17.4196 7.26269V4.38034H16.3915V5.5372C16.3915 5.70527 16.2543 5.84252 16.0862 5.84252C16.0022 5.84252 15.921 5.80891 15.8649 5.74729L14.1815 3.97418L10.8936 7.42839C10.8684 7.51713 10.8003 7.5883 10.7133 7.61776ZM10.6296 21.8341C9.75849 21.8341 9.25709 21.3327 9.25709 20.4616C9.25709 19.5904 9.75849 19.089 10.6296 19.089C11.5008 19.089 12.0022 19.5904 12.0022 20.4616C12.0022 21.3327 11.5036 21.8341 10.6296 21.8341ZM9.81731 20.4616C9.81731 19.8985 10.0666 19.6492 10.6296 19.6492C11.1927 19.6492 11.442 19.8985 11.442 20.4616C11.442 21.0246 11.1927 21.2739 10.6296 21.2739C10.0666 21.2739 9.81731 21.0246 9.81731 20.4616ZM16.0918 21.8341C15.2207 21.8341 14.7193 21.3327 14.7193 20.4616C14.7193 19.5904 15.2207 19.089 16.0918 19.089C16.963 19.089 17.4644 19.5904 17.4644 20.4616C17.4644 21.3327 16.9658 21.8341 16.0918 21.8341ZM15.2795 20.4616C15.2795 19.8985 15.5288 19.6492 16.0918 19.6492C16.6548 19.6492 16.9041 19.8985 16.9041 20.4616C16.9041 21.0246 16.6548 21.2739 16.0918 21.2739C15.5288 21.2739 15.2795 21.0246 15.2795 20.4616Z" fill="#313235"/>
</svg>
