<svg width="24" height="24" viewBox="0 0 24 24" fill="none" xmlns="http://www.w3.org/2000/svg">
<path fill-rule="evenodd" clip-rule="evenodd" d="M10.6296 16.9182H17.1843C17.9378 16.9182 18.5736 16.6633 19.0806 16.1591C19.5708 15.6661 19.935 14.9518 20.1871 13.977C20.3047 13.5232 20.6941 11.9602 21.0694 10.4532C21.1967 9.94402 21.3207 9.44661 21.4333 8.99476C21.5959 8.34287 21.7347 7.78582 21.8257 7.42516C21.8313 7.40275 21.8341 7.37754 21.8341 7.35513C21.8341 7.20107 21.7081 7.07502 21.554 7.07502H17.7417V5.44757C17.7417 5.37194 17.7137 5.30191 17.6605 5.24869L14.6492 2.23748C14.596 2.18706 14.526 2.15625 14.4504 2.15625H14.4448H10.4504C10.0498 2.15625 9.80331 2.40555 9.80331 2.80051V7.07222H7.05136C6.80176 5.57965 6.59424 4.3476 6.5372 4.0274C6.44196 3.50079 6.13944 3.0218 5.68286 2.68006C5.23468 2.34393 4.66325 2.15625 4.07502 2.15625H2.43636C2.2823 2.15625 2.15625 2.2823 2.15625 2.43636C2.15625 2.59042 2.2823 2.71647 2.43636 2.71647H4.07502C4.5428 2.71647 4.99378 2.86213 5.34392 3.12824C5.68846 3.38594 5.91255 3.74168 5.98258 4.12544C6.14224 5.019 7.47838 13.0526 7.62124 13.9518C7.7753 14.9154 8.12824 15.6633 8.67446 16.1787C9.18706 16.6633 9.86493 16.9182 10.6296 16.9182ZM17.1731 5.72538V13.0022C17.1731 13.0246 17.1703 13.047 17.1647 13.0694C17.145 13.075 17.1226 13.0778 17.1002 13.0778H15.9013C15.4896 13.0778 10.9041 13.0778 10.4504 13.075C10.4252 13.0778 10.3971 13.075 10.3719 13.0666C10.3635 13.0414 10.3607 13.0134 10.3607 12.9854V2.80051C10.3579 2.7781 10.3607 2.75289 10.3691 2.72768C10.3943 2.71928 10.4224 2.71647 10.4476 2.71647H14.1647V4.07502C14.1675 4.57642 14.2627 4.95457 14.456 5.22908C14.6885 5.55681 15.0526 5.72488 15.5372 5.72768H15.8845L17.1731 5.72538ZM14.7277 3.11502L16.7761 5.16745H15.54C15.1198 5.16465 14.7305 5.033 14.7277 4.07222V3.11502ZM21.1955 7.63524H17.7417V13.0022C17.7417 13.3915 17.498 13.6352 17.1086 13.6352L16.6044 13.638H10.4504C10.0442 13.638 9.80331 13.3943 9.80331 12.9854V7.63244H7.14498C7.57804 10.2257 8.09197 13.3264 8.17586 13.8649C8.42796 15.4728 9.30191 16.3607 10.6296 16.3607H17.1843C17.7921 16.3607 18.2823 16.1647 18.6829 15.7641C19.0974 15.3495 19.4196 14.7025 19.6436 13.8397C19.7178 13.5554 19.8989 12.8291 20.1173 11.9528C20.2453 11.4391 20.3862 10.8739 20.526 10.3159L20.5414 10.2541C20.7935 9.24018 21.0335 8.27492 21.1955 7.63524ZM9.25709 20.4616C9.25709 21.3327 9.75849 21.8341 10.6296 21.8341C11.5036 21.8341 12.0022 21.3327 12.0022 20.4616C12.0022 19.5904 11.5008 19.089 10.6296 19.089C9.75849 19.089 9.25709 19.5904 9.25709 20.4616ZM10.6296 19.6492C10.0666 19.6492 9.81731 19.8985 9.81731 20.4616C9.81731 21.0246 10.0666 21.2739 10.6296 21.2739C11.1927 21.2739 11.442 21.0246 11.442 20.4616C11.442 19.8985 11.1927 19.6492 10.6296 19.6492ZM14.7193 20.4616C14.7193 21.3327 15.2207 21.8341 16.0918 21.8341C16.9658 21.8341 17.4644 21.3327 17.4644 20.4616C17.4644 19.5904 16.963 19.089 16.0918 19.089C15.2207 19.089 14.7193 19.5904 14.7193 20.4616ZM16.0918 19.6492C15.5288 19.6492 15.2795 19.8985 15.2795 20.4616C15.2795 21.0246 15.5288 21.2739 16.0918 21.2739C16.6548 21.2739 16.9041 21.0246 16.9041 20.4616C16.9041 19.8985 16.6548 19.6492 16.0918 19.6492ZM11.4644 7.63244H15.8341C15.9882 7.63244 16.1142 7.50639 16.1142 7.35233C16.1142 7.19827 15.9882 7.07222 15.8341 7.07222H11.4644C11.3103 7.07222 11.1843 7.19827 11.1843 7.35233C11.1843 7.50639 11.3103 7.63244 11.4644 7.63244ZM11.4644 9.54561H15.8341C15.9882 9.54561 16.1142 9.41956 16.1142 9.26549C16.1142 9.11143 15.9882 8.98538 15.8341 8.98538H11.4644C11.3103 8.98538 11.1843 9.11143 11.1843 9.26549C11.1843 9.41956 11.3103 9.54561 11.4644 9.54561ZM15.8341 11.456H11.4644C11.3103 11.456 11.1843 11.3299 11.1843 11.1759C11.1843 11.0218 11.3103 10.8957 11.4644 10.8957H15.8341C15.9882 10.8957 16.1142 11.0218 16.1142 11.1759C16.1142 11.3299 15.9882 11.456 15.8341 11.456Z" fill="#313235"/>
</svg>
