<svg width="24" height="24" viewBox="0 0 24 24" fill="none" xmlns="http://www.w3.org/2000/svg">
<path fill-rule="evenodd" clip-rule="evenodd" d="M7.71927 5.65485C7.71927 5.48678 7.60723 5.30751 7.47558 5.10303L7.46741 5.09004C7.29852 4.82158 7.10859 4.51967 7.10583 4.12824C7.10303 3.72488 7.29911 3.41115 7.47278 3.13384C7.60443 2.92376 7.71927 2.73888 7.71927 2.56801C7.71927 2.34112 7.90975 2.15625 8.14505 2.15625C8.38034 2.15625 8.57362 2.34112 8.57362 2.56521C8.57362 2.9645 8.37879 3.2775 8.2083 3.55138L8.20667 3.55401L8.19861 3.56704C8.07036 3.77434 7.96017 3.95246 7.96017 4.11984C7.96297 4.2907 8.07502 4.46717 8.20667 4.67166L8.21667 4.68755C8.3852 4.95538 8.57642 5.25928 8.57642 5.65205C8.57642 5.87894 8.38314 6.06101 8.14785 6.06101C7.91535 6.06661 7.72488 5.88454 7.71927 5.65485ZM16.9462 18.5876C17.9966 18.5428 21.8425 18.075 21.8425 13.554C21.8425 9.11703 18.1142 8.56802 16.9826 8.50079V7.2711C16.9826 7.04701 16.7893 6.86213 16.554 6.86213H2.58202C2.34673 6.86213 2.15625 7.04701 2.15625 7.2739V18.061C2.15625 19.3187 2.48398 20.2431 3.16465 20.8873C3.83412 21.5288 4.7893 21.8397 6.08342 21.8397H13.0582C14.3523 21.8397 15.3075 21.5288 15.977 20.8901C16.5512 20.3383 16.8621 19.5708 16.9462 18.5876ZM16.1282 18.061V7.68286H3.01059V18.0582C3.01059 19.0862 3.25709 19.8201 3.76409 20.3019C4.26829 20.7809 5.0246 21.0162 6.08342 21.0162H13.0554C14.1142 21.0162 14.8705 20.7837 15.3747 20.3019C15.8817 19.8201 16.1282 19.0862 16.1282 18.061ZM16.9826 17.7641C18.1198 17.7081 20.9882 17.1955 20.9882 13.5568C20.9882 9.94056 18.1394 9.39715 16.9826 9.32712V17.7641ZM10.3437 5.45364C10.3958 5.52237 10.47 5.62024 10.47 5.65485C10.4756 5.88454 10.6661 6.06661 10.8985 6.06661C11.1338 6.06661 11.3271 5.88454 11.3271 5.65765C11.3271 5.34392 11.1422 5.10583 11.0078 4.93496C10.9518 4.86493 10.8593 4.74729 10.8593 4.70807C10.8593 4.66605 10.9546 4.54 11.0078 4.47278L11.0156 4.46248C11.1543 4.27948 11.3243 4.05521 11.3243 3.74729V3.74449C11.3187 3.51199 11.1254 3.32992 10.8957 3.33552C10.6633 3.33552 10.47 3.5204 10.47 3.74729C10.47 3.7893 10.3775 3.90975 10.3215 3.98258C10.1787 4.16745 10.0022 4.39995 10.005 4.71367C10.0078 5.02281 10.1822 5.2461 10.3219 5.42486L10.3243 5.42796C10.3302 5.43586 10.3368 5.44449 10.3437 5.45364Z" fill="#313235"/>
</svg>
