<svg width="24" height="24" viewBox="0 0 24 24" fill="none" xmlns="http://www.w3.org/2000/svg">
<path fill-rule="evenodd" clip-rule="evenodd" d="M20.8091 7.89958V21.0078C20.8091 21.4476 20.4225 21.8341 19.9827 21.8341H7.41972C6.98835 21.8341 6.59339 21.4392 6.59339 21.0078V15.5456C6.59339 15.5011 6.60389 15.459 6.62253 15.4216C6.56049 15.3608 6.49848 15.2994 6.43653 15.2375L6.43373 15.2347L6.3721 15.1759L6.3693 15.1731C4.59059 13.3915 3.29927 11.5736 2.63821 9.91535C2.01636 8.35793 1.99675 7.0386 2.57658 6.19547C2.57938 6.18986 2.58219 6.18706 2.58779 6.18146L2.59899 6.16465C2.67182 6.06381 2.89031 5.76129 3.1144 5.54841C4.29291 4.42216 5.46167 4.349 6.59339 5.32439V2.98258C6.59339 2.56521 7.00235 2.15625 7.41972 2.15625H15.0668C15.1044 2.15625 15.1404 2.16377 15.1732 2.17739C15.2074 2.19141 15.2387 2.21193 15.2657 2.23748L20.7278 7.69967C20.7798 7.75163 20.8077 7.81962 20.809 7.89321C20.8091 7.89498 20.8091 7.89676 20.8091 7.89855C20.8091 7.89889 20.8091 7.89924 20.8091 7.89958ZM14.7867 2.71647H7.41972C7.31328 2.71647 7.15361 2.87614 7.15361 2.98258V5.71367C7.15361 5.76552 7.13934 5.8142 7.11452 5.85596C7.22623 5.99289 7.3283 6.13781 7.41972 6.2907C7.8623 7.00219 8.1256 8.11143 6.88191 9.35513C6.76146 9.47838 6.63261 9.59042 6.49535 9.69687C6.29927 9.94337 6.64101 10.5204 6.8623 10.8453C7.33289 11.5316 8.1144 12.3355 8.66062 12.8817L8.72504 12.9462C9.27126 13.4924 10.0752 14.2739 10.7615 14.7417C11.0864 14.9658 11.6634 15.3047 11.9099 15.1086C12.0164 14.9714 12.1284 14.8425 12.2517 14.7221C13.4953 13.4784 14.6018 13.7417 15.3161 14.1843C15.5878 14.3467 15.8343 14.54 16.0556 14.7669C17.2629 15.9742 17.2657 17.2291 16.0584 18.4896C15.864 18.6942 15.5927 18.8941 15.4723 18.9827L15.4421 19.005L15.4253 19.0162L15.4113 19.0274C15.0052 19.3075 14.4841 19.4504 13.8819 19.4504C13.2376 19.4504 12.4954 19.2907 11.6914 18.9686C10.2555 18.3961 8.69985 17.3511 7.15361 15.9263V21.0078C7.15361 21.1282 7.29927 21.2739 7.41972 21.2739H19.9827C20.1116 21.2739 20.2489 21.1366 20.2489 21.0078V8.17866H17.7979C16.9183 8.17866 16.1648 7.89014 15.6186 7.34673C15.0724 6.80331 14.7867 6.04981 14.7867 5.16745V2.71647ZM19.8537 7.61843H17.7979C16.3077 7.61843 15.3469 6.65485 15.3469 5.16745V3.11402L19.8537 7.61843ZM6.83148 14.8397C10.4897 18.498 13.7503 19.484 15.0892 18.5708L15.1144 18.5512C15.3553 18.3775 15.5346 18.2291 15.655 18.103C16.6494 17.061 16.6522 16.1534 15.6606 15.1619C15.4729 14.9714 15.2629 14.8033 15.0332 14.6661L15.0248 14.6605C14.2292 14.1647 13.4533 14.3131 12.6494 15.117C12.5374 15.2291 12.4309 15.3467 12.3357 15.4756C12.3273 15.4868 12.3161 15.498 12.3049 15.5092C11.7026 16.0638 10.7559 15.4168 10.4477 15.2039C9.72224 14.7081 8.89311 13.9013 8.33008 13.3411L8.26566 13.2767C7.70263 12.7137 6.89871 11.8845 6.40291 11.1591L6.4006 11.1557C6.18538 10.8413 5.54217 9.90199 6.09759 9.30191C6.1088 9.2907 6.1172 9.2823 6.1312 9.2711C6.25726 9.17586 6.3777 9.06942 6.48975 8.95737C7.29087 8.15625 7.44213 7.37754 6.94633 6.58202L6.94073 6.57362C6.80347 6.34392 6.63821 6.13384 6.44493 5.94617C5.45333 4.95457 4.54577 4.95737 3.50375 5.95177C3.3805 6.06942 3.22924 6.25149 3.05557 6.49238L3.03597 6.51759C2.1228 7.85373 3.1088 11.117 6.76426 14.7753L6.79507 14.8061L6.80067 14.8117L6.83148 14.8397Z" fill="#313235"/>
</svg>
