<svg width="24" height="24" viewBox="0 0 24 24" fill="none" xmlns="http://www.w3.org/2000/svg">
<path fill-rule="evenodd" clip-rule="evenodd" d="M17.1612 10.0386C16.7747 12.2823 12.6402 14.3131 12.1696 14.5372C12.1136 14.5624 12.0548 14.5764 11.996 14.5764C11.9372 14.5764 11.8755 14.5624 11.8195 14.5372C11.3489 14.3131 7.22007 12.2823 6.83351 10.0386C6.54075 8.35318 6.54465 4.51369 6.54498 4.17966L6.545 4.16185C6.545 4.033 6.60382 3.91535 6.70466 3.83692C6.8027 3.75849 6.93155 3.73048 7.052 3.75849C8.0492 3.91535 8.58141 3.56241 9.25368 3.11143L9.25584 3.10999C9.92757 2.66217 10.6865 2.15625 11.9932 2.15625H11.9988C13.3014 2.15625 14.0596 2.66174 14.7297 3.10852L14.7383 3.11423C15.4105 3.56241 15.9484 3.91815 16.954 3.75849C17.0744 3.74168 17.2033 3.7725 17.2929 3.85093C17.3825 3.92656 17.447 4.0414 17.447 4.16185C17.4467 4.17514 17.4466 4.2131 17.4464 4.27257L17.4464 4.27318C17.444 4.95505 17.4316 8.44972 17.1612 10.0386ZM16.3517 9.89294C16.0996 11.3691 13.2705 13.061 11.9932 13.6997C10.7159 13.061 7.89234 11.3691 7.63744 9.89294C7.41054 8.57362 7.36853 5.73048 7.36293 4.61843C8.398 4.67609 9.04287 4.24397 9.6668 3.82587L9.70466 3.80051L9.70962 3.7972C10.338 3.37825 10.9315 2.98258 11.9904 2.98258H11.996C13.0548 2.98258 13.6483 3.37825 14.2767 3.7972L14.2817 3.80051C14.9091 4.22068 15.5534 4.64645 16.6234 4.61283C16.6178 5.71928 16.5786 8.57082 16.3517 9.89294ZM21.6038 15.5764C21.615 15.4364 21.8643 12.1226 21.8335 10.9742C21.8111 10.005 21.1444 9.82012 20.6767 9.79491C20.094 9.79491 19.601 10.1843 19.4834 10.7585L19.1192 12.5372C18.573 12.2291 17.9091 12.3803 17.5898 12.8985L17.489 13.075C17.2621 13.4868 16.8335 14.2515 16.0128 14.6773C15.94 14.7081 15.559 14.9126 14.9372 15.7221C14.4666 16.3355 14.0688 17.019 13.7579 17.7613L13.3097 18.8425C13.0072 19.0722 12.8083 19.4364 12.8083 19.8481V20.5736C12.8083 21.2711 13.3713 21.8397 14.0632 21.8397H17.5926C18.2845 21.8397 18.8475 21.2711 18.8475 20.5736V19.8481C18.8475 19.5344 18.7299 19.2515 18.5422 19.0302L20.2005 17.6128C20.3259 17.5038 20.4592 17.4027 20.6263 17.276L20.6402 17.2655C20.8727 17.0918 21.0772 16.8509 21.2593 16.5456C21.4526 16.2179 21.5674 15.8957 21.6038 15.5764ZM20.7859 15.4952C20.7887 15.4756 21.0408 12.1002 21.0128 10.9938C21.0072 10.6745 20.9203 10.638 20.7019 10.624C20.4498 10.6324 20.3265 10.7501 20.2929 10.9238L19.7635 13.5064C19.7596 13.524 19.7515 13.5403 19.7432 13.5571L19.7432 13.5572L19.7432 13.5573L19.7431 13.5573C19.7396 13.5645 19.736 13.5717 19.7327 13.5792C19.7383 13.7949 19.6907 14.0134 19.5758 14.2039L19.573 14.2067L18.0016 16.8677C17.926 16.9966 17.7887 17.0694 17.6514 17.0694C17.5786 17.0694 17.5058 17.0526 17.4414 17.0134C17.2481 16.8957 17.1809 16.6436 17.2985 16.4448L18.8699 13.7865L18.8727 13.7837V13.7809C18.9652 13.624 18.8951 13.3523 18.7411 13.2599C18.5982 13.1703 18.3965 13.1703 18.2957 13.3355L18.2117 13.4812C17.9596 13.9322 17.433 14.8733 16.3797 15.4168L16.3777 15.418C16.3506 15.4345 16.0731 15.6029 15.5954 16.2291C15.1696 16.7837 14.8083 17.4084 14.5254 18.0834L14.3181 18.582H17.601C17.6626 18.582 17.7215 18.5904 17.7803 18.6016L19.6767 16.9798C19.8167 16.8593 19.968 16.7445 20.1164 16.6324C20.2985 16.4952 20.433 16.3327 20.559 16.1226C20.6879 15.8957 20.7663 15.6857 20.7859 15.4952ZM18.0296 20.5736V19.8481C18.0296 19.6072 17.8335 19.4112 17.5954 19.4112H14.066C13.8279 19.4112 13.6318 19.6072 13.6318 19.8481V20.5736C13.6318 20.8145 13.8279 21.0106 14.066 21.0106H17.5954C17.8335 21.0106 18.0296 20.8145 18.0296 20.5736ZM10.3517 20.5736V19.8481C10.3517 19.6072 10.1584 19.4112 9.91755 19.4112H6.38814C6.15004 19.4112 5.95396 19.6072 5.95396 19.8481V20.5736C5.95396 20.8145 6.14724 21.0106 6.38814 21.0106H9.91755C10.1584 21.0106 10.3517 20.8145 10.3517 20.5736ZM4.31531 16.9826C4.16685 16.8565 4.01279 16.7389 3.83631 16.6044C3.69346 16.4924 3.5562 16.3327 3.43856 16.1226C3.3041 15.9013 3.22847 15.6913 3.20606 15.5148C3.20326 15.4812 2.95116 12.1058 2.97917 10.9966C2.98758 10.6913 3.0576 10.6408 3.33491 10.624C3.50018 10.6296 3.66545 10.7473 3.70186 10.9294L4.22847 13.5092C4.23162 13.5234 4.23832 13.5367 4.24507 13.5501C4.25032 13.5605 4.25561 13.571 4.25928 13.582C4.25648 13.7977 4.3041 14.0162 4.41615 14.2095C4.41615 14.2123 4.41895 14.2123 4.41895 14.2123L5.98758 16.8705C6.06601 17.0022 6.20046 17.075 6.34052 17.075C6.41054 17.075 6.48337 17.0554 6.5478 17.0162C6.74388 16.9013 6.8083 16.6464 6.69066 16.4504L5.12203 13.7893L5.11923 13.7865C5.11923 13.7865 5.11923 13.7837 5.11643 13.7837C5.02399 13.6268 5.09402 13.3551 5.24528 13.2627C5.39374 13.1731 5.59262 13.1731 5.69346 13.3383L5.78029 13.4868C6.03239 13.9378 6.559 14.8761 7.61503 15.4224C7.61783 15.4224 7.90074 15.582 8.39654 16.2319C8.82791 16.7893 9.18645 17.414 9.46657 18.0862L9.67385 18.5848H6.39094C6.32931 18.5848 6.27049 18.5932 6.21166 18.6044L4.31531 16.9826ZM10.6739 18.8453C10.9764 19.075 11.1753 19.4392 11.1753 19.8509V20.5764C11.1753 21.2739 10.6122 21.8397 9.92315 21.8397H6.39374C5.70186 21.8397 5.14164 21.2739 5.14164 20.5764V19.8509C5.14164 19.5372 5.25928 19.2543 5.44696 19.033L3.7887 17.6156C3.65424 17.5008 3.51138 17.3915 3.37133 17.2851C3.11923 17.0946 2.90914 16.8509 2.73267 16.5484C2.5394 16.2235 2.42455 15.9013 2.39094 15.5932L2.38864 15.5621C2.36111 15.1894 2.1315 12.0816 2.15844 10.977C2.18085 10.0078 2.84752 9.82572 3.24248 9.80051C3.87553 9.7697 4.38533 10.1871 4.50298 10.7613L4.86713 12.54C5.41335 12.2375 6.07721 12.3859 6.39374 12.9041L6.49458 13.0806C6.72427 13.4924 7.15564 14.2543 7.98758 14.6885C8.0436 14.7137 8.42455 14.9182 9.0464 15.7277C9.51699 16.3439 9.91475 17.0302 10.2229 17.7669L10.6739 18.8453ZM14.7439 6.35513C14.5842 6.19266 14.3237 6.19266 14.164 6.35513L11.0576 9.49238L9.82231 8.24589C9.66265 8.08622 9.40214 8.08622 9.24248 8.24589C9.08281 8.40835 9.08281 8.67166 9.24248 8.83132L10.7663 10.3719C10.8475 10.4504 10.954 10.4924 11.0576 10.4924C11.1612 10.4924 11.2677 10.4504 11.3461 10.3719L14.7439 6.94056C14.9035 6.7781 14.9035 6.51479 14.7439 6.35513Z" fill="#313235"/>
</svg>
