<svg width="24" height="24" viewBox="0 0 24 24" fill="none" xmlns="http://www.w3.org/2000/svg">
<path fill-rule="evenodd" clip-rule="evenodd" d="M21.6863 14.3124C21.6863 11.8838 21.0196 10.007 19.7059 8.74094C18.8319 7.8978 17.6863 7.34878 16.2913 7.08547C15.9608 6.12749 15.4622 5.31797 14.7899 4.66811C13.5266 3.45242 11.7059 2.83337 9.37255 2.83337C7.04202 2.83337 5.22409 3.45242 3.96639 4.67091C2.66106 5.93702 2 7.81097 2 10.2423C2 12.6681 2.66387 14.5393 3.96919 15.7998C4.84034 16.6429 5.9916 17.1891 7.38936 17.4496C7.71709 18.4132 8.21569 19.2255 8.88796 19.8726C10.1429 21.0855 11.9608 21.6989 14.2913 21.6989C16.6247 21.6989 18.4454 21.0855 19.7059 19.8726C21.0196 18.6121 21.6863 16.7409 21.6863 14.3124ZM4.78431 5.05466C5.79552 4.19752 7.20168 3.73253 8.96919 3.67091V5.46923C7.80672 5.53085 6.86275 5.85018 6.14846 6.42161L4.78431 5.05466ZM4.19888 5.6401C3.35294 6.6569 2.89916 8.06587 2.83754 9.83337H4.63305C4.69188 8.67091 5.0084 7.72693 5.57143 7.00984L4.19888 5.6401ZM7.40336 8.1387C7.63585 7.93702 7.95238 7.81657 8.29132 7.79976C8.61625 7.78015 8.97479 7.86699 9.28852 8.04346C9.3091 8.05375 9.32864 8.06509 9.34776 8.0762L9.34777 8.07621C9.35988 8.08324 9.37182 8.09017 9.38375 8.09668C9.40056 8.08828 9.41667 8.07917 9.43277 8.07007C9.44888 8.06097 9.46498 8.05186 9.48179 8.04346C9.69188 7.92581 9.91877 7.86699 10.1457 7.83337L10.2003 7.8249C10.2947 7.81004 10.3898 7.79507 10.479 7.79976C10.8151 7.81657 11.1317 7.93982 11.3669 8.1415C11.375 8.14797 11.3803 8.15538 11.3855 8.16264C11.3893 8.16795 11.393 8.17318 11.3978 8.17791C11.7731 8.52525 11.9104 9.06867 11.7675 9.68211C11.7431 9.78792 11.7024 9.89521 11.6616 10.0029L11.6616 10.0029L11.6616 10.0029L11.6616 10.0029L11.6616 10.0029L11.6616 10.0029L11.6616 10.0029L11.6616 10.003L11.6616 10.003L11.6616 10.003L11.6616 10.003L11.6616 10.003L11.6616 10.003L11.6615 10.003L11.6615 10.003L11.6615 10.003C11.6462 10.0435 11.6308 10.0841 11.6162 10.1247C11.5378 10.3348 11.4454 10.5449 11.3305 10.7605C11.3085 10.8022 11.2874 10.8435 11.2664 10.8848C11.2152 10.9852 11.1644 11.0851 11.1008 11.1863C11.028 11.2984 10.9608 11.3964 10.8908 11.4916C10.7171 11.7325 10.5434 11.9398 10.2997 12.1891L10.29 12.1988L10.29 12.1988C10.2375 12.2516 10.1101 12.3794 10 12.458C9.92437 12.5112 9.84034 12.5533 9.7535 12.5897C9.69748 12.6121 9.63866 12.6345 9.57983 12.6457C9.54342 12.6569 9.4902 12.6625 9.43417 12.6681L9.38375 12.6709H9.38095C9.26891 12.6653 9.21569 12.6569 9.16527 12.6457C9.03361 12.6149 8.88796 12.5505 8.7619 12.4608C8.64426 12.3768 8.507 12.2395 8.46779 12.1975C8.31653 12.0407 8.19048 11.9006 8.07563 11.7577C7.93277 11.5841 7.80672 11.4048 7.66667 11.1919C7.62584 11.129 7.59431 11.0671 7.56267 11.0049C7.54221 10.9648 7.5217 10.9245 7.4986 10.8838C7.27451 10.4804 7.09244 10.0799 7.0028 9.68772C6.85154 9.04906 7 8.48604 7.40336 8.1387ZM8.37535 8.62329H8.33053C8.17927 8.63169 8.03641 8.68211 7.94118 8.76615C7.71989 8.95662 7.7619 9.30116 7.80672 9.48884C7.84034 9.63169 7.89916 9.78015 7.95798 9.92861C8.06162 10.1919 8.18767 10.4608 8.36134 10.7325C8.37563 10.755 8.38842 10.773 8.4019 10.7919L8.41737 10.8138C8.61625 11.1163 8.78431 11.3264 9.06723 11.6149C9.09244 11.6429 9.17647 11.7269 9.2465 11.7774C9.28291 11.8026 9.31933 11.8222 9.35574 11.8278L9.38655 11.8306H9.38936C9.44538 11.8194 9.48459 11.8026 9.51821 11.7746C9.58824 11.7241 9.67227 11.6401 9.69468 11.6149C9.95238 11.346 10.1176 11.1443 10.2941 10.8866C10.3305 10.8362 10.3641 10.7858 10.4033 10.7269L10.4034 10.7269C10.5294 10.5281 10.6303 10.3348 10.7227 10.1415C10.8263 9.91461 10.9076 9.69612 10.9608 9.48043C11.014 9.25074 11.0364 8.93702 10.8263 8.75774C10.7311 8.67371 10.5882 8.62329 10.4342 8.61489C10.4286 8.61489 10.423 8.61559 10.4174 8.61629L10.4174 8.61629L10.4174 8.61629C10.4118 8.61699 10.4062 8.61769 10.4006 8.61769C10.2241 8.61209 10.0504 8.6597 9.88235 8.75494C9.85368 8.77175 9.82466 8.78821 9.79517 8.80493L9.7951 8.80497L9.79503 8.80501L9.79501 8.80503C9.74099 8.83566 9.68539 8.86719 9.62745 8.9034L9.54062 8.95382L9.52941 8.96223C9.52941 8.96223 9.46499 9.00704 9.40336 9.00424C9.34174 9.00424 9.28011 8.96783 9.28011 8.96783L9.27171 8.96503L9.15686 8.909C9.05322 8.84738 8.96919 8.79976 8.88796 8.75494C8.88582 8.75387 8.88368 8.75321 8.88185 8.75265C8.87889 8.75173 8.87675 8.75107 8.87675 8.74934C8.70868 8.67091 8.53782 8.62329 8.37535 8.62329ZM20.8459 14.7325C20.7815 16.4972 20.3193 17.9006 19.4678 18.9118L18.098 17.5393C18.6639 16.8278 18.9832 15.8894 19.0476 14.7325H20.8459ZM14.7143 20.8586C16.4706 20.7942 17.8683 20.3376 18.8796 19.4916L17.5154 18.1247C16.8039 18.6849 15.8683 18.9986 14.7143 19.0603V20.8586ZM14.0553 18.2458C14.0001 18.241 13.945 18.2363 13.888 18.2339C12.9748 18.1807 12.2325 17.9482 11.6751 17.5337L11.6382 17.5067L11.6382 17.5067L11.6382 17.5067C11.5965 17.4763 11.5543 17.4456 11.5154 17.4132C11.535 17.4076 11.5546 17.4048 11.5742 17.402L11.5742 17.402C12.423 17.2227 13.1737 16.9342 13.8235 16.5337C14.1737 16.318 14.4986 16.0743 14.7871 15.7942C15.3725 15.2339 15.8235 14.5449 16.1485 13.7437C16.4846 12.9258 16.6835 11.9874 16.7423 10.9286C16.916 11.0379 17.0812 11.1555 17.2269 11.2956C17.8347 11.8838 18.1625 12.7689 18.2269 13.9034C18.2299 13.9523 18.2345 13.9997 18.239 14.0471C18.247 14.1301 18.2549 14.2131 18.2549 14.304C18.2549 14.4089 18.2455 14.5044 18.2359 14.6007L18.2359 14.6009C18.2317 14.6434 18.2275 14.686 18.2241 14.7297C18.1541 15.8502 17.8319 16.7241 17.2269 17.3068C16.6471 17.8642 15.7927 18.1667 14.7143 18.2311C14.6637 18.2342 14.6141 18.2387 14.5645 18.2432C14.4768 18.2512 14.3889 18.2591 14.2941 18.2591C14.2106 18.2591 14.1329 18.2524 14.0553 18.2458L14.0553 18.2458ZM13.888 20.8586V19.0603C12.7367 18.9986 11.7983 18.6849 11.0868 18.1275L9.71709 19.4972C10.7311 20.3432 12.1289 20.797 13.888 20.8586ZM9.12885 18.9146C8.80392 18.5253 8.53501 18.0771 8.32493 17.5757C8.66387 17.6065 9.0112 17.6261 9.36975 17.6233C9.7535 17.6233 10.1204 17.6009 10.4734 17.5673L9.12885 18.9146ZM7.14846 16.5561C7.43137 16.6233 7.72549 16.6765 8.03361 16.7157C8.33613 16.7549 8.64986 16.7774 8.97199 16.7886V14.9902C8.54062 14.9678 8.13445 14.9062 7.7619 14.8138C7.71985 14.803 7.67696 14.7939 7.63436 14.7848L7.63433 14.7848L7.63429 14.7848C7.56627 14.7703 7.49897 14.756 7.43697 14.7353C7.29888 14.6909 7.17252 14.6327 7.04482 14.5739L6.96919 14.5393C6.95518 14.5309 6.94118 14.5253 6.92717 14.5196C6.65266 14.3908 6.39776 14.2367 6.17087 14.0575L4.80112 15.4272C5.43417 15.9538 6.21569 16.3348 7.14846 16.5561ZM4.21008 14.8446C3.36134 13.8334 2.90196 12.43 2.83754 10.6625H4.63305C4.69468 11.8222 5.01401 12.7605 5.58263 13.472L4.21008 14.8446ZM9.10603 6.2851L9.10602 6.2851L9.10601 6.2851C9.06096 6.2889 9.01572 6.29271 8.96919 6.29556C7.88796 6.35718 7.03081 6.6597 6.45098 7.22553C5.84594 7.81377 5.52101 8.69892 5.45658 9.83337C5.45376 9.87854 5.44999 9.92243 5.44623 9.96623L5.44622 9.96625L5.44622 9.96627L5.44622 9.96629L5.44622 9.96631L5.44622 9.96632L5.44622 9.96634L5.44622 9.96636C5.43878 10.0529 5.43137 10.1391 5.43137 10.2339C5.43137 10.3302 5.43931 10.4185 5.44725 10.5068C5.45179 10.5573 5.45633 10.6078 5.45938 10.6597C5.51821 11.5813 5.7535 12.3236 6.16807 12.8838C6.18808 12.9107 6.20781 12.938 6.22757 12.9653C6.29634 13.0605 6.3655 13.1562 6.44818 13.2367C6.5051 13.2885 6.56945 13.3338 6.63404 13.3794L6.63405 13.3794L6.63406 13.3794L6.63406 13.3794L6.63407 13.3794L6.63407 13.3794L6.63408 13.3794L6.63408 13.3794L6.63413 13.3794C6.67441 13.4078 6.71478 13.4363 6.7535 13.4664C6.7702 13.4793 6.78648 13.4924 6.80274 13.5055C6.84651 13.5407 6.89012 13.5758 6.94118 13.6065C7.13445 13.7241 7.34734 13.825 7.57983 13.9062C7.63866 13.9286 7.69468 13.9482 7.7535 13.965C8.11485 14.0743 8.52661 14.1359 8.96919 14.1611C9.01568 14.164 9.06088 14.1678 9.10589 14.1716L9.10595 14.1716L9.10603 14.1716L9.10606 14.1716C9.19387 14.179 9.28094 14.1863 9.37535 14.1863C9.40336 14.1863 9.42927 14.1835 9.45518 14.1807C9.48109 14.1779 9.507 14.1751 9.53501 14.1751C9.59477 14.1732 9.65203 14.1689 9.7093 14.1645C9.73793 14.1624 9.76657 14.1602 9.79552 14.1583C9.83646 14.1554 9.87729 14.1527 9.91789 14.15C10.0717 14.1399 10.2223 14.13 10.3641 14.1079C10.3792 14.1062 10.3933 14.1025 10.4081 14.0987L10.4081 14.0987L10.4082 14.0986L10.4082 14.0986L10.4082 14.0986L10.4083 14.0986L10.4083 14.0986C10.4182 14.096 10.4286 14.0933 10.4398 14.0911C11.2185 13.9566 11.8487 13.6765 12.3109 13.2339C12.916 12.6541 13.2381 11.7774 13.3081 10.6569C13.31 10.6302 13.3124 10.6038 13.3149 10.5774C13.3199 10.5232 13.3249 10.4687 13.3249 10.4104C13.3261 10.3856 13.3281 10.3621 13.3301 10.3387C13.3331 10.3041 13.3361 10.2696 13.3361 10.2311C13.3361 10.1402 13.3282 10.0573 13.3203 9.97428C13.3157 9.92687 13.3112 9.87946 13.3081 9.83057L13.3039 9.76721C13.2997 9.70365 13.2955 9.6401 13.2913 9.58127C13.2241 8.895 13.0588 8.30676 12.7787 7.83057C12.6443 7.60368 12.4902 7.3992 12.3081 7.22273C12.2827 7.19733 12.2528 7.17643 12.2235 7.15595C12.2011 7.14029 12.1791 7.12488 12.1597 7.10788C11.5854 6.62329 10.7899 6.35158 9.79552 6.29276C9.74008 6.29054 9.68597 6.28657 9.6316 6.28257H9.6316H9.63159H9.63159H9.63159H9.63158H9.63158H9.63157L9.63156 6.28257C9.54859 6.27648 9.46504 6.27035 9.37535 6.27035C9.28093 6.27035 9.19385 6.27769 9.10603 6.2851ZM9.79552 5.47203V3.67091C11.5602 3.73533 12.9636 4.20312 13.9804 5.06307L12.6134 6.42721C11.902 5.85578 10.9552 5.53365 9.79552 5.47203ZM13.9608 15.4188L13.9496 15.4104L12.5938 14.0519C12.5655 14.0742 12.5373 14.0969 12.509 14.1196L12.509 14.1197L12.5089 14.1197L12.5089 14.1197L12.5088 14.1198C12.4058 14.2027 12.3019 14.2863 12.1877 14.3544C11.6779 14.6541 11.0784 14.8502 10.3922 14.9426C10.2442 14.9622 10.0862 14.9699 9.92846 14.9777H9.92844C9.88309 14.9799 9.83776 14.9821 9.79272 14.9846V16.783C9.81863 16.782 9.84484 16.7814 9.87095 16.7808L9.87106 16.7808C9.92397 16.7795 9.97647 16.7783 10.0252 16.7746C10.3277 16.7577 10.6162 16.7297 10.8936 16.6877C11.8095 16.5533 12.6106 16.29 13.2829 15.8978C13.5294 15.7577 13.7479 15.5953 13.9608 15.4188ZM14.549 14.8418L13.4958 13.7858L13.1793 13.472C13.5014 13.0687 13.7451 12.5925 13.9076 12.0435C14.0308 11.6261 14.1036 11.1667 14.1289 10.6653H15.9244C15.8936 11.5393 15.7675 12.3236 15.5406 13.0154C15.4426 13.3208 15.3221 13.6093 15.1849 13.8782C15.0028 14.2311 14.7927 14.5533 14.549 14.8418ZM15.3501 6.95662C15.1401 6.46643 14.8796 6.02665 14.563 5.6457L13.2577 6.95382L13.1933 7.01545C13.3697 7.23954 13.521 7.48604 13.6471 7.75214C13.7395 7.94262 13.8235 8.1387 13.888 8.35158C14 8.71012 14.07 9.10788 14.1092 9.52805C14.1176 9.62889 14.126 9.72973 14.1317 9.83618H15.9272C15.9272 9.79696 15.9244 9.76055 15.9216 9.72413C15.8908 9.03225 15.8011 8.3964 15.6443 7.81937C15.563 7.51405 15.465 7.22553 15.3501 6.95662ZM16.5322 7.97623C17.4706 8.20592 18.2577 8.59248 18.8964 9.13309L17.5322 10.4972C17.2969 10.3124 17.042 10.1499 16.7591 10.0182C16.7451 9.28435 16.6695 8.60368 16.5322 7.97623ZM20.8459 13.9062C20.7843 12.1415 20.3305 10.7325 19.4818 9.71573L18.112 11.0883C18.6751 11.8026 18.9916 12.7465 19.0504 13.9062H20.8459Z" fill="#313235"/>
</svg>
