<svg xmlns="http://www.w3.org/2000/svg" width="24" height="24" fill="none"><path fill="#0B2739" d="M16.095 19.65H7.902a.28.28 0 0 1-.28-.28v-8.612a.28.28 0 0 1 .28-.28h8.193a.28.28 0 0 1 .28.28v8.611a.28.28 0 0 1-.28.28Zm-.28-3.292V13.77H8.182v2.588h7.633Zm-2.176.56v2.171h2.176v-2.17H13.64Zm-.56 0h-2.171v2.171h2.17v-2.17Zm-2.732 0H8.182v2.171h2.165v-2.17ZM8.182 13.21h2.165v-2.171H8.182v2.17Zm2.726 0h2.17v-2.171h-2.17v2.17Zm2.73 0h2.177v-2.171H13.64v2.17Z"/><path fill="#0B2739" d="M16.639 21.834H7.36c-.622 0-1.106-.18-1.442-.535-.317-.333-.476-.801-.476-1.384V6.26a.29.29 0 0 1 .08-.199l3.824-3.824a.277.277 0 0 1 .2-.08h7.092c.621 0 1.106.179 1.442.534.317.334.476.801.476 1.384v15.84c0 .583-.16 1.05-.476 1.384-.336.356-.82.535-1.442.535ZM6.003 6.374v13.541c0 .902.456 1.359 1.358 1.359h9.278c.902 0 1.358-.457 1.358-1.359V4.075c0-.902-.456-1.359-1.358-1.359H9.66L6.003 6.375Z"/></svg>