<svg width="24" height="24" viewBox="0 0 24 24" fill="none" xmlns="http://www.w3.org/2000/svg">
<path fill-rule="evenodd" clip-rule="evenodd" d="M16.6336 21.8341H7.35627C6.73442 21.8341 6.24982 21.6548 5.91369 21.2991C5.59716 20.9658 5.4375 20.498 5.4375 19.9154V6.25989C5.4375 6.18426 5.46831 6.11423 5.51873 6.06101L9.34226 2.23748C9.39548 2.18426 9.46551 2.15625 9.54114 2.15625H16.6336C17.2554 2.15625 17.74 2.33552 18.0762 2.69126C18.3927 3.0246 18.5523 3.49238 18.5523 4.07502V19.9154C18.5523 20.498 18.3927 20.9658 18.0762 21.2991C17.74 21.6548 17.2554 21.8341 16.6336 21.8341ZM5.99772 6.37474V19.9154C5.99772 20.8173 6.45431 21.2739 7.35627 21.2739H16.6336C17.5355 21.2739 17.9921 20.8173 17.9921 19.9154V4.07502C17.9921 3.17306 17.5355 2.71647 16.6336 2.71647H9.65599L5.99772 6.37474ZM16.0902 19.6492H13.3535H10.6224H7.89688C7.74282 19.6492 7.61677 19.5232 7.61677 19.3691V16.638V13.4896V10.7585C7.61677 10.6044 7.74282 10.4784 7.89688 10.4784H10.6224H13.3535H16.0902C16.2442 10.4784 16.3703 10.6044 16.3703 10.7585V13.4896V16.638V19.3691C16.3703 19.5232 16.247 19.6492 16.0902 19.6492ZM15.81 16.3579V13.7697L13.3535 13.7697H10.6224L8.177 13.7697V16.3579H10.6224H13.3535H15.81ZM13.6336 16.9182H15.81V19.089H13.6336V16.9182ZM13.0734 16.9182V19.089H10.9025V16.9182H13.0734ZM10.3423 16.9182H8.177V19.089H10.3423V16.9182ZM8.177 13.2095H10.3423V11.0386H8.177V13.2095ZM10.9025 13.2095V11.0386H13.0734V13.2095H10.9025ZM13.6336 13.2095H15.81V11.0386H13.6336V13.2095Z" fill="#313235"/>
</svg>
