<svg width="24" height="24" viewBox="0 0 24 24" fill="none" xmlns="http://www.w3.org/2000/svg">
<path fill-rule="evenodd" clip-rule="evenodd" d="M14.2166 21.8341H7.03169C6.00648 21.8341 5.26978 21.5932 4.78239 21.1002C4.29499 20.6072 4.0625 19.8621 4.0625 18.8229V5.16745C4.0625 3.14224 5.03449 2.15625 7.03169 2.15625H14.2166C16.2418 2.15625 17.1857 3.11423 17.1857 5.16745V6.5316H18.9084C19.5275 6.5316 19.9112 6.91535 19.9112 7.5344V14.2795C19.9112 14.8957 19.5247 15.2795 18.9084 15.2795H17.1857V18.8229C17.1857 19.8621 16.9505 20.6072 16.4631 21.1002C15.9757 21.5932 15.2418 21.8341 14.2166 21.8341ZM16.6255 5.16745V6.5316H15.8048C15.7292 6.5316 15.6591 6.55961 15.6059 6.61283L13.9673 8.24589C13.9168 8.29911 13.886 8.36913 13.886 8.44477V14.2767C13.886 14.8957 14.2698 15.2795 14.8888 15.2795H16.6255V18.8229C16.6255 19.7081 16.4407 20.3243 16.0653 20.7081C15.69 21.0918 15.0849 21.2767 14.2166 21.2767H7.03169C6.16334 21.2767 5.5611 21.0918 5.18295 20.7081C4.8048 20.3243 4.62272 19.7081 4.62272 18.8229V5.16745C4.62272 3.45037 5.34261 2.71647 7.03169 2.71647H14.2166C15.928 2.71647 16.6255 3.42516 16.6255 5.16745ZM18.9084 14.7193L16.9056 14.7193L14.8916 14.7193C14.5807 14.7193 14.4491 14.5876 14.4491 14.2767V8.55961L15.9224 7.08902H18.9084C19.2194 7.08902 19.351 7.22068 19.351 7.5316V14.2767C19.351 14.5876 19.2194 14.7193 18.9084 14.7193ZM10.6255 17.8257C10.1213 17.8257 9.79359 18.0918 9.79359 18.6605C9.79359 18.935 9.86922 19.1366 10.0037 19.2739C10.1493 19.4224 10.3622 19.4952 10.6255 19.4952C10.8888 19.4952 11.1017 19.4224 11.2474 19.2739C11.3818 19.1366 11.4575 18.9322 11.4575 18.6605C11.4547 18.0918 11.1269 17.8257 10.6255 17.8257ZM18.5863 13.7753H17.4575H16.3342H15.211C15.0569 13.7753 14.9308 13.6492 14.9308 13.4952V12.3691V11.075V9.94897C14.9308 9.79491 15.0569 9.66886 15.211 9.66886H18.5863C18.7404 9.66886 18.8664 9.79491 18.8664 9.94897V11.075V12.3691V13.4924C18.8664 13.6492 18.7404 13.7753 18.5863 13.7753ZM18.3062 12.6492V13.2151H17.7376V12.6492H18.3062ZM18.3062 12.089H15.4928L15.4921 11.3551L16.3342 11.3551H17.4575L18.3062 11.3551V12.089ZM18.3062 10.7949H17.7376V10.2291H18.3062V10.7949ZM17.1773 10.7949V10.2291H16.6143V10.7949H17.1773ZM16.0541 10.7949V10.2291H15.4911L15.4916 10.7949H16.0541ZM15.4933 12.6492L15.4939 13.2151H16.0541V12.6492H15.4933ZM16.6143 12.6492V13.2151H17.1773V12.6492H16.6143Z" fill="#313235"/>
</svg>
