<svg width="24" height="24" viewBox="0 0 24 24" fill="none" xmlns="http://www.w3.org/2000/svg">
<path fill-rule="evenodd" clip-rule="evenodd" d="M17.8038 21.839C16.9495 21.839 15.9663 21.6261 14.8963 21.2004C12.6806 20.3152 10.252 18.5897 7.87105 16.2088L7.86824 16.206L7.78701 16.1247L7.78421 16.1219C5.40326 13.741 3.67777 11.3124 2.79541 9.09673C1.97469 7.0407 1.94387 5.29841 2.70578 4.19197C2.70718 4.18916 2.70928 4.18636 2.71138 4.18356C2.71348 4.18076 2.71558 4.17796 2.71698 4.17516L2.73379 4.15275C2.98869 3.79701 3.21838 3.5225 3.41446 3.33762C5.06432 1.76059 6.70018 1.76339 8.28001 3.34042C8.57693 3.63174 8.83463 3.95667 9.04471 4.31521C10.0867 5.99028 9.23519 7.41325 8.33603 8.30961C8.17357 8.47488 7.9999 8.62614 7.81782 8.76619C7.5181 9.12194 7.91306 9.86703 8.29962 10.4301C8.93547 11.3572 9.98869 12.4441 10.7226 13.178L10.8094 13.2648C11.5461 14.0015 12.6301 15.0519 13.5573 15.6878C14.1231 16.0743 14.8654 16.4693 15.2212 16.1696C15.3612 15.9875 15.5153 15.8138 15.6806 15.6513C16.5797 14.755 17.9999 13.9034 19.675 14.9427C20.0307 15.1556 20.3584 15.4133 20.6498 15.7102C22.2268 17.2872 22.2296 18.9259 20.6526 20.5757C20.4649 20.7718 20.1904 20.9987 19.8374 21.2564L19.815 21.2732L19.801 21.2844C19.2716 21.6542 18.5937 21.839 17.8038 21.839ZM8.2688 15.8138C10.5965 18.1415 12.9579 19.8222 15.1035 20.6766C16.0615 21.0603 16.9383 21.2592 17.7086 21.276C18.4313 21.29 19.0251 21.1415 19.4761 20.8306L19.5125 20.8054C19.8402 20.5701 20.0867 20.3628 20.2492 20.1948C20.9523 19.4581 21.2884 18.769 21.2772 18.0883C21.266 17.4357 20.9299 16.7886 20.2548 16.1135C19.9971 15.8502 19.7086 15.6233 19.3921 15.4329L19.3836 15.4273C18.8458 15.0939 18.3052 14.9707 17.773 15.0603C17.21 15.1556 16.6414 15.4889 16.0755 16.0547C15.9215 16.206 15.7786 16.3712 15.647 16.5421C15.6386 16.5533 15.6274 16.5645 15.6162 16.5757L15.6161 16.5757C14.5657 17.5421 12.4957 15.7494 10.4117 13.6654L10.3248 13.5785C8.2464 11.4973 6.45368 9.42446 7.42006 8.37684L7.4282 8.36835C7.4359 8.36012 7.44323 8.3523 7.45368 8.34603C7.62735 8.21437 7.78981 8.07152 7.94107 7.91746C8.5041 7.35163 8.84023 6.7802 8.93547 6.21998C9.02511 5.68776 8.90186 5.14715 8.56852 4.60933L8.56292 4.60093C8.37525 4.2872 8.14555 3.99589 7.88225 3.74098C7.20718 3.06591 6.56012 2.72978 5.90746 2.71858C5.22679 2.70457 4.53771 3.0407 3.80102 3.74379C3.63015 3.90625 3.42287 4.15555 3.18757 4.48328C3.17637 4.49729 3.16796 4.50849 3.16236 4.5197C2.85424 4.97068 2.70298 5.56451 2.71698 6.2872C2.73099 7.05751 2.93267 7.93426 3.31642 8.89225C4.17357 11.0379 5.85424 13.3992 8.17917 15.727L8.22119 15.769L8.22679 15.7746L8.2688 15.8138ZM12.2912 11.7242C12.1512 11.727 12.0167 11.6682 11.9215 11.5617C11.8206 11.4441 11.7814 11.2844 11.8178 11.1303L12.787 6.59533C12.8262 6.41606 12.9327 6.29 13.0839 6.25079C13.2352 6.21157 13.3921 6.26479 13.5153 6.39925L14.3612 7.33482H14.3724L17.6133 4.55051C17.7422 4.42726 17.9187 4.36283 18.0951 4.37964C18.2828 4.39645 18.4537 4.49449 18.5629 4.64575L19.7086 5.92026C19.8318 6.06031 19.8907 6.24799 19.8654 6.43286C19.843 6.60933 19.7478 6.769 19.6021 6.87264L16.3612 9.72418L17.2128 10.6682C17.336 10.8054 17.3724 10.9679 17.3164 11.1135C17.2604 11.2592 17.1203 11.3516 16.9355 11.3656L12.336 11.7214C12.3192 11.7242 12.3052 11.7242 12.2912 11.7242ZM13.28 6.97628L12.3865 11.1584L16.6049 10.8306L15.9467 10.0995C15.7394 9.86984 15.759 9.5197 15.9887 9.31241C15.9903 9.3108 15.991 9.31012 15.9918 9.30983C15.9924 9.30961 15.9931 9.30961 15.9943 9.30961L19.2492 6.44407L19.2828 6.41886C19.3024 6.40765 19.3136 6.38804 19.3164 6.36563C19.3192 6.34323 19.3136 6.32082 19.3024 6.30121L19.2996 6.29841L18.1428 5.01269L18.1427 5.01269C18.1343 5.00429 18.1259 4.99588 18.1203 4.98468C18.1063 4.96227 18.0839 4.94547 18.0559 4.94267C18.0391 4.93986 18.0251 4.94547 18.0111 4.95387C18.0093 4.95564 18.0073 4.9574 18.0051 4.95926L18.0051 4.95928C18.0005 4.9633 17.9953 4.96774 17.9915 4.97348L14.7422 7.76619C14.5069 7.96507 14.1596 7.94267 13.9523 7.71577L13.28 6.97628Z" fill="#313235"/>
</svg>
