<svg width="24" height="24" fill="none" xmlns="http://www.w3.org/2000/svg"><path d="M17.927 3.62c.756 0 1.445.54 1.445 1.131v15.964c0 .613-.661 1.131-1.443 1.131H6.053c-.782 0-1.443-.518-1.443-1.131V4.75c0-.591.69-1.132 1.443-1.132h3.15c.418-.946 1.376-1.459 2.785-1.459 1.717 0 2.462.74 2.782 1.46h3.157ZM9.775 4.75l-.005.154c.014.392.03.863 2.22.863 2.191 0 2.208-.474 2.22-.818v-.132a2.663 2.663 0 0 0-.11-.694c-.252-.782-.941-1.163-2.112-1.163-1.454 0-2.157.569-2.213 1.79Zm8.785 0c0-.081-.264-.33-.63-.33h-2.945a5.6 5.6 0 0 0 .011.084 1.8 1.8 0 0 1 .02.21l.006.19-.003.093c-.045 1.302-1.244 1.574-3.03 1.574-1.785 0-2.984-.272-3.032-1.591v-.194l.006-.092c.002-.072.013-.136.024-.201L9 4.42H6.05c-.369 0-.63.252-.63.33v15.964c0 .112.275.33.63.33h11.878c.358 0 .633-.221.633-.33V4.75Zm-7.88-.059c0-.221.182-.4.406-.4h1.801c.224 0 .406.179.406.4 0 .222-.182.4-.406.4h-1.8a.405.405 0 0 1-.407-.4Z" fill="#313235"/></svg>