<svg width="24" height="24" viewBox="0 0 24 24" fill="none" xmlns="http://www.w3.org/2000/svg">
<path fill-rule="evenodd" clip-rule="evenodd" d="M17.9265 3.61939C18.6828 3.61939 19.3719 4.16 19.3719 4.75104V20.7146C19.3719 21.3281 18.7108 21.8463 17.9293 21.8463H6.05258C5.27106 21.8463 4.61 21.3281 4.61 20.7146V4.75104C4.61 4.16 5.29908 3.61939 6.05258 3.61939H9.20384C9.62121 2.67261 10.5792 2.16 11.9882 2.16C13.7052 2.16 14.4503 2.8995 14.7697 3.61939H17.9265ZM9.77527 4.75104C9.83129 3.52975 10.5344 2.96112 11.9882 2.96112C13.159 2.96112 13.8481 3.34208 14.1002 4.12359C14.1674 4.35048 14.2038 4.58297 14.2094 4.81827V4.94992C14.1982 5.29446 14.1814 5.76785 11.991 5.76785C9.80048 5.76785 9.78367 5.29726 9.76966 4.9051L9.77527 4.75104ZM18.5596 4.75104V20.7146C18.5596 20.8239 18.2851 21.0452 17.9265 21.0452H6.04978C5.69403 21.0452 5.41952 20.8267 5.41952 20.7146V4.75104C5.41952 4.67261 5.68003 4.42051 6.04978 4.42051H8.99936C8.9956 4.44531 8.99144 4.46951 8.9873 4.49354C8.97604 4.55905 8.96499 4.62329 8.96294 4.69502L8.95734 4.78745V4.98073C9.00496 6.30006 10.2038 6.57177 11.9882 6.57177C13.7753 6.57177 14.9741 6.30006 15.019 4.99754L15.0218 4.9051L15.0162 4.71463C15.0142 4.64285 15.0051 4.57392 14.996 4.50479L14.996 4.50469C14.9923 4.47672 14.9886 4.44873 14.9854 4.42051H17.9293C18.2963 4.42051 18.5596 4.66981 18.5596 4.75104ZM10.68 4.69222C10.6828 4.91631 10.8649 5.09278 11.0862 5.09278H12.8873C13.1114 5.09278 13.2935 4.91351 13.2935 4.69222C13.2935 4.47093 13.1114 4.29166 12.8873 4.29166H11.0862C10.8621 4.29166 10.68 4.47093 10.68 4.69222Z" fill="#313235"/>
</svg>
