<svg width="24" height="24" viewBox="0 0 24 24" fill="none" xmlns="http://www.w3.org/2000/svg">
<path fill-rule="evenodd" clip-rule="evenodd" d="M20.0126 14.7439V17.4245C21.3124 17.601 21.8194 18.6262 21.8362 19.517V19.7018C21.8166 20.685 21.2171 21.8363 19.5785 21.8363C17.9314 21.8363 17.3376 20.6934 17.3292 19.7102V19.5254C17.3544 18.6234 17.8614 17.6094 19.1611 17.4245V15.164H4.81097L4.81937 17.4161C6.12749 17.6038 6.62889 18.6262 6.6457 19.517V19.7018C6.6373 20.685 6.03506 21.8363 4.388 21.8363C2.75214 21.8363 2.15831 20.6934 2.1499 19.7102V19.5254C2.16671 18.6346 2.67371 17.6094 3.97343 17.4245L3.96503 14.7523C3.96223 14.643 4.00705 14.5338 4.08268 14.4525C4.16391 14.3741 4.27315 14.3293 4.388 14.3265H11.5281V13.4273L7.65691 13.4525C5.97903 13.4525 4.17791 12.5534 4.17791 10.024C4.17791 8.00717 5.32357 7.19204 6.18071 6.86431C6.31797 2.37692 10.5337 2.15002 11.3908 2.15002C12.0603 2.15002 15.346 2.30129 16.3292 5.17243C18.2115 5.3349 20.1051 6.47495 20.1051 9.27327C20.1051 13.206 16.5841 13.3993 15.8782 13.3993L12.374 13.4245V14.3237H19.5897C19.8194 14.3265 20.007 14.5114 20.0126 14.7439ZM7.65691 12.6122C6.86699 12.6122 5.02665 12.3601 5.02665 10.024C5.02665 8.71025 5.60368 7.88112 6.72413 7.57019C6.90901 7.51977 7.02945 7.25927 7.02945 7.07439C7.02945 3.28448 10.3712 2.99036 11.3908 2.99036C11.9762 2.99036 14.9034 3.11641 15.6009 5.68784C15.6541 5.86431 15.8138 5.99036 15.9986 5.99596C16.9762 6.02117 19.2591 6.39932 19.2591 9.27327C19.2591 12.3237 16.6793 12.559 15.881 12.559L7.65691 12.6122ZM5.79976 19.685V19.5422C5.79136 19.0464 5.60368 18.2229 4.41041 18.2229C3.21433 18.2229 3.00985 19.0464 3.00144 19.5422V19.7018C3.00144 20.1892 3.19472 20.996 4.3908 20.996C5.60368 20.996 5.79976 20.1808 5.79976 19.685ZM19.5785 20.996C20.7858 20.996 20.979 20.1724 20.9874 19.685V19.531C20.979 19.0548 20.783 18.2481 19.6205 18.2229C19.6121 18.2313 19.5953 18.2313 19.5869 18.2313C19.5701 18.2313 19.5617 18.2313 19.5449 18.2229C18.3908 18.2481 18.1947 19.0548 18.1779 19.5422V19.7018C18.1863 20.1892 18.374 20.996 19.5785 20.996Z" fill="#313235"/>
</svg>
