<svg xmlns="http://www.w3.org/2000/svg" width="24" height="24" fill="none"><path fill="#0B2739" d="M20.018 14.749v2.68c1.3.177 1.806 1.202 1.823 2.093v.185c-.02.983-.619 2.134-2.257 2.134-1.648 0-2.241-1.143-2.25-2.126v-.185c.026-.902.532-1.916 1.832-2.1v-2.261H4.816l.008 2.252c1.309.188 1.81 1.21 1.827 2.1v.186c-.009.983-.61 2.134-2.258 2.134-1.636 0-2.23-1.143-2.238-2.126v-.185c.017-.89.524-1.916 1.824-2.1l-.009-2.673a.43.43 0 0 1 .118-.3.455.455 0 0 1 .305-.126h7.14v-.899l-3.871.025c-1.678 0-3.479-.899-3.479-3.428 0-2.017 1.146-2.832 2.003-3.16.137-4.487 4.353-4.714 5.21-4.714.67 0 3.955.151 4.938 3.022 1.883.163 3.776 1.303 3.776 4.101 0 3.933-3.52 4.126-4.227 4.126l-3.504.026v.899h7.216a.43.43 0 0 1 .423.42M7.662 12.617l8.224-.053c.798 0 3.378-.235 3.378-3.286 0-2.874-2.283-3.252-3.26-3.277a.432.432 0 0 1-.398-.308c-.697-2.572-3.625-2.698-4.21-2.698-1.02 0-4.361.294-4.361 4.084 0 .185-.12.446-.306.496-1.12.311-1.697 1.14-1.697 2.454 0 2.336 1.84 2.588 2.63 2.588M5.805 19.69v-.143c-.009-.496-.196-1.32-1.39-1.32-1.196 0-1.4.824-1.408 1.32v.16c0 .487.193 1.294 1.389 1.294 1.213 0 1.409-.815 1.409-1.311M19.584 21c1.207 0 1.4-.823 1.409-1.31v-.154c-.009-.476-.205-1.283-1.367-1.308-.009.008-.026.008-.034.008-.017 0-.025 0-.042-.008-1.154.025-1.35.832-1.367 1.32v.159c.008.487.196 1.294 1.4 1.294"/></svg>