<svg width="24" height="24" viewBox="0 0 24 24" fill="none" xmlns="http://www.w3.org/2000/svg">
<path fill-rule="evenodd" clip-rule="evenodd" d="M20.0127 14.7438V17.4245C21.3125 17.601 21.8195 18.6262 21.8363 19.5169V19.7018C21.8167 20.685 21.2172 21.8363 19.5786 21.8363C17.9315 21.8363 17.3377 20.6934 17.3293 19.7102V19.5253C17.3545 18.6234 17.8615 17.6094 19.1612 17.4245V15.164H4.81106L4.81946 17.4161C6.12758 17.6038 6.62899 18.6262 6.64579 19.5169V19.7018C6.63739 20.685 6.03515 21.8363 4.38809 21.8363C2.75223 21.8363 2.1584 20.6934 2.14999 19.7102V19.5253C2.1668 18.6346 2.6738 17.6094 3.97352 17.4245L3.96512 14.7522C3.96232 14.643 4.00714 14.5337 4.08277 14.4525C4.164 14.3741 4.27324 14.3293 4.38809 14.3265H11.5281V13.4273L7.657 13.4525C5.97913 13.4525 4.17801 12.5534 4.17801 10.0239C4.17801 8.00714 5.32366 7.19201 6.18081 6.86428C6.31806 2.37688 10.5337 2.14999 11.3909 2.14999C12.0604 2.14999 15.3461 2.30125 16.3293 5.1724C18.2116 5.33487 20.1052 6.47492 20.1052 9.27324C20.1052 13.206 16.5842 13.3993 15.8783 13.3993L12.3741 13.4245V14.3237H19.5898C19.8195 14.3265 20.0071 14.5113 20.0127 14.7438ZM7.657 12.6122C6.86708 12.6122 5.02674 12.3601 5.02674 10.0239C5.02674 8.71022 5.60378 7.88109 6.72422 7.57016C6.9091 7.51974 7.02955 7.25924 7.02955 7.07436C7.02955 3.28445 10.3713 2.99033 11.3909 2.99033C11.9763 2.99033 14.9035 3.11638 15.601 5.68781C15.6542 5.86428 15.8139 5.99033 15.9987 5.99593C16.9763 6.02114 19.2592 6.39929 19.2592 9.27324C19.2592 12.3237 16.6794 12.559 15.8811 12.559L7.657 12.6122ZM5.79985 19.685V19.5422C5.79145 19.0464 5.60378 18.2228 4.4105 18.2228C3.21442 18.2228 3.00994 19.0464 3.00153 19.5422V19.7018C3.00153 20.1892 3.19481 20.9959 4.39089 20.9959C5.60378 20.9959 5.79985 20.1808 5.79985 19.685ZM19.5786 20.9959C20.7858 20.9959 20.9791 20.1724 20.9875 19.685V19.5309C20.9791 19.0548 20.783 18.248 19.6206 18.2228C19.6122 18.2312 19.5954 18.2312 19.587 18.2312C19.5702 18.2312 19.5618 18.2312 19.545 18.2228C18.3909 18.248 18.1948 19.0548 18.178 19.5422V19.7018C18.1864 20.1892 18.3741 20.9959 19.5786 20.9959Z" fill="#313235"/>
</svg>
