<svg width="24" height="24" viewBox="0 0 24 24" fill="none" xmlns="http://www.w3.org/2000/svg">
<path fill-rule="evenodd" clip-rule="evenodd" d="M21.078 21.83C19.4479 21.83 17.5768 21.0711 15.8935 19.7242L15.8319 19.6682C14.4202 18.5369 13.3166 17.106 12.5716 15.5182C12.5464 16.3415 12.4343 17.1256 12.1682 17.7164C11.5492 19.1025 10.5941 19.9902 9.54657 20.1414C9.44573 20.1554 9.3365 20.1666 9.22166 20.1666C8.67548 20.1666 7.96684 19.9678 7.2386 19.2118C5.94457 19.0577 5.36477 18.4529 5.10709 17.9628C4.63093 17.0612 4.8354 15.8066 5.66727 14.5213C6.25547 13.6084 7.5383 12.7152 8.76231 12.0235C8.31416 12.0599 7.852 12.0823 7.39265 12.0823C6.39832 12.0823 5.42919 11.9815 4.72336 11.6903C3.26407 11.1022 2.33416 10.1921 2.17451 9.19523C2.08768 8.65198 2.19131 7.8399 3.15203 6.99982C3.31449 5.76771 3.9503 5.21606 4.46567 4.96964C5.40959 4.51599 6.72883 4.71201 8.07888 5.50449C9.0368 6.06174 9.97511 7.28265 10.7006 8.44476C10.5829 7.09783 10.6081 5.58569 11.0507 4.6028C11.6697 3.21387 12.6248 2.32899 13.6723 2.17498C14.2409 2.08817 15.0924 2.18898 15.9775 3.10466C17.2715 3.26148 17.8513 3.86633 18.109 4.35638C18.5852 5.25806 18.3807 6.51258 17.5488 7.7979C16.9634 8.71078 15.6778 9.60406 14.4566 10.2957C15.8739 10.1865 17.462 10.2089 18.4956 10.629C19.952 11.2198 20.882 12.1299 21.0416 13.1268C21.1284 13.67 21.0248 14.4821 20.0641 15.3222C19.9016 16.5543 19.2658 17.106 18.7504 17.3524C18.4143 17.512 18.0334 17.5904 17.6189 17.5904C16.8654 17.5904 16.0055 17.33 15.1344 16.8175C14.479 16.4367 13.8376 15.745 13.2634 14.975C13.9552 16.5319 15.014 17.932 16.3865 19.0325L16.4565 19.0885C18.0306 20.3515 19.7588 21.0459 21.2069 20.9983C21.4421 20.9815 21.6326 20.9703 21.7558 21.1439C21.8903 21.3315 21.8371 21.592 21.6354 21.718C21.5374 21.7796 21.4197 21.8188 21.2993 21.8244C21.2265 21.8272 21.1508 21.83 21.078 21.83ZM13.804 2.99265C13.0729 3.09906 12.3447 3.82153 11.8517 4.92483C11.2103 6.35296 11.6193 9.38284 11.8938 10.6262C13.1206 10.1221 15.9523 8.68558 16.801 7.36386C17.462 6.34176 17.6581 5.35887 17.3276 4.72881C17.0811 4.25837 16.5405 3.98395 15.7226 3.91394L15.5462 3.89714L15.4313 3.76833C14.9608 3.24468 14.479 2.97865 13.9973 2.97865C13.9328 2.97865 13.8684 2.98145 13.804 2.99265ZM5.05947 10.923C3.89988 10.4553 3.14083 9.76088 3.03159 9.06361C2.94757 8.54277 3.22206 8.02192 3.84667 7.51507L3.98111 7.40586L3.99792 7.23785C4.07074 6.45937 4.35924 5.94413 4.8522 5.7089C5.06227 5.6081 5.31436 5.55769 5.59165 5.55769C6.17984 5.55769 6.89128 5.78171 7.61952 6.20735C9.00879 7.01663 10.5185 9.71327 11.0479 10.8782C9.73983 11.147 6.55517 11.5334 5.05947 10.923ZM11.3588 17.3916C10.8658 18.4949 10.1376 19.2146 9.40652 19.3238C8.85754 19.4022 8.31136 19.1445 7.77918 18.5481L7.66434 18.4193L7.48788 18.4053C6.67001 18.3353 6.12943 18.0608 5.88295 17.5904C5.55244 16.9603 5.7485 15.9775 6.40672 14.9554C7.2554 13.6336 10.0899 12.1971 11.314 11.6931C11.5941 12.9364 12.0002 15.9663 11.3588 17.3916ZM18.151 11.3934C19.3078 11.8639 20.0669 12.5583 20.1789 13.2528C20.2629 13.7736 19.9885 14.2945 19.3666 14.8013L19.2294 14.9106L19.2126 15.0786C19.1398 15.857 18.8513 16.3723 18.3555 16.6075C17.6945 16.9239 16.6609 16.7363 15.5882 16.1063C14.2886 15.353 12.8993 12.9672 12.2915 11.6987C12.2901 11.6973 12.2894 11.6959 12.2887 11.6945C12.288 11.6931 12.2873 11.6917 12.2859 11.6903L12.2744 11.6665C12.2354 11.586 12.1932 11.4989 12.1626 11.4326C13.4735 11.1694 16.6553 10.7802 18.151 11.3934Z" fill="#313235"/>
</svg>
