<svg width="24" height="24" viewBox="0 0 24 24" fill="none" xmlns="http://www.w3.org/2000/svg">
<path fill-rule="evenodd" clip-rule="evenodd" d="M21.0779 21.83C19.4478 21.83 17.5768 21.0712 15.8934 19.7242L15.8318 19.6682C14.4201 18.5369 13.3165 17.106 12.5715 15.5182C12.5463 16.3415 12.4342 17.1256 12.1682 17.7164C11.5491 19.1026 10.594 19.9903 9.54648 20.1415C9.44564 20.1555 9.33641 20.1667 9.22157 20.1667C8.67539 20.1667 7.96675 19.9679 7.23851 19.2118C5.94447 19.0578 5.36468 18.4529 5.10699 17.9629C4.63084 17.0612 4.8353 15.8067 5.66718 14.5213C6.25538 13.6085 7.53821 12.7152 8.76221 12.0235C8.31406 12.0599 7.85191 12.0823 7.39256 12.0823C6.39823 12.0823 5.4291 11.9815 4.72327 11.6903C3.26398 11.1022 2.33407 10.1921 2.17442 9.19526C2.08759 8.65201 2.19122 7.83993 3.15194 6.99985C3.3144 5.76774 3.95021 5.21609 4.46558 4.96967C5.4095 4.51603 6.72874 4.71204 8.07879 5.50452C9.03671 6.06177 9.97502 7.28268 10.7005 8.44479C10.5828 7.09786 10.608 5.58572 11.0506 4.60283C11.6696 3.2139 12.6247 2.32902 13.6723 2.17501C14.2408 2.0882 15.0923 2.18901 15.9774 3.10469C17.2715 3.26151 17.8512 3.86637 18.1089 4.35641C18.5851 5.25809 18.3806 6.51261 17.5487 7.79793C16.9634 8.71081 15.6777 9.6041 14.4565 10.2958C15.8738 10.1865 17.4619 10.209 18.4955 10.629C19.9519 11.2198 20.8819 12.1299 21.0415 13.1268C21.1283 13.6701 21.0247 14.4821 20.064 15.3222C19.9015 16.5543 19.2657 17.106 18.7503 17.3524C18.4142 17.512 18.0333 17.5904 17.6188 17.5904C16.8653 17.5904 16.0054 17.33 15.1343 16.8176C14.4789 16.4367 13.8375 15.7451 13.2633 14.975C13.9551 16.5319 15.0139 17.9321 16.3864 19.0326L16.4564 19.0886C18.0305 20.3515 19.7587 21.046 21.2068 20.9983C21.442 20.9815 21.6325 20.9703 21.7558 21.144C21.8902 21.3316 21.837 21.592 21.6353 21.718C21.5373 21.7796 21.4196 21.8188 21.2992 21.8244C21.2264 21.8272 21.1507 21.83 21.0779 21.83ZM13.8039 2.99268C13.0729 3.09909 12.3446 3.82156 11.8516 4.92486C11.2102 6.35299 11.6192 9.38287 11.8937 10.6262C13.1205 10.1221 15.9522 8.68561 16.8009 7.36389C17.4619 6.34179 17.658 5.3589 17.3275 4.72884C17.081 4.2584 16.5404 3.98398 15.7225 3.91397L15.5461 3.89717L15.4312 3.76836C14.9607 3.24471 14.4789 2.97868 13.9972 2.97868C13.9327 2.97868 13.8683 2.98148 13.8039 2.99268ZM5.05938 10.923C3.89979 10.4554 3.14074 9.76091 3.0315 9.06365C2.94747 8.5428 3.22197 8.02195 3.84657 7.5151L3.98102 7.40589L3.99782 7.23788C4.07065 6.4594 4.35915 5.94416 4.85211 5.70894C5.06218 5.60813 5.31426 5.55772 5.59156 5.55772C6.17975 5.55772 6.89119 5.78174 7.61943 6.20738C9.0087 7.01666 10.5184 9.7133 11.0478 10.8782C9.73974 11.147 6.55508 11.5335 5.05938 10.923ZM11.3587 17.3916C10.8657 18.4949 10.1375 19.2146 9.40643 19.3238C8.85745 19.4022 8.31126 19.1446 7.77909 18.5481L7.66425 18.4193L7.48779 18.4053C6.66992 18.3353 6.12934 18.0609 5.88285 17.5904C5.55234 16.9604 5.74841 15.9775 6.40663 14.9554C7.25531 13.6337 10.0899 12.1971 11.3139 11.6931C11.594 12.9364 12.0001 15.9663 11.3587 17.3916ZM18.1509 11.3935C19.3077 11.8639 20.0668 12.5584 20.1788 13.2528C20.2629 13.7737 19.9884 14.2945 19.3666 14.8014L19.2293 14.9106L19.2125 15.0786C19.1397 15.8571 18.8512 16.3723 18.3554 16.6075C17.6944 16.924 16.6609 16.7364 15.5881 16.1063C14.2885 15.353 12.8992 12.9672 12.2914 11.6987C12.29 11.6973 12.2893 11.6959 12.2886 11.6945C12.2879 11.6931 12.2872 11.6917 12.2858 11.6903L12.2743 11.6665C12.2353 11.586 12.1931 11.4989 12.1625 11.4327C13.4734 11.1694 16.6552 10.7802 18.1509 11.3935Z" fill="#313235"/>
</svg>
