<svg width="24" height="24" fill="none" xmlns="http://www.w3.org/2000/svg"><path d="M19.395 6.557h-2.804V5.47a.41.41 0 0 0-.12-.289l-.678-.675a.82.82 0 0 0 .235-.568.812.812 0 0 0-.24-.577l-.967-.964a.818.818 0 0 0-1.16 0l-.59.588a.818.818 0 0 0 0 1.157l.966.961a.819.819 0 0 0 1.16 0l.016-.017.558.555v.919H8.258v-.92l.552-.548.01.011a.819.819 0 0 0 1.16 0l.967-.96a.818.818 0 0 0 0-1.158l-.588-.588a.823.823 0 0 0-1.163 0l-.966.964a.814.814 0 0 0-.003 1.151l-.672.67a.398.398 0 0 0-.12.288v1.087H4.632a.818.818 0 0 0-.82.818v1.364c0 .45.37.818.82.818h.785v1.252a.82.82 0 0 0 .82.818h1.297v7.37H6.261a.818.818 0 0 0-.821.817v1.213a.82.82 0 0 0 .82.818h11.513a.818.818 0 0 0 .821-.818v-1.213a.82.82 0 0 0-.82-.817h-1.275v-7.37h1.297c.454 0 .82-.364.82-.818V9.557h.782a.82.82 0 0 0 .82-.818V7.375a.824.824 0 0 0-.823-.818Zm0 2.182H17.81c-.003 0-.006 0-.009-.002H6.23l-.011.002H4.633V7.375h14.762v1.364Zm-1.602 2.067H6.238V9.554h11.555v1.252Zm-9.44 8.188v-7.367h7.322v7.367H8.353Zm-2.095 2.03v-1.212H17.77v1.213H6.258Zm3.52-18.05.59.588-.967.961-.588-.585.966-.964Zm4.46-.003.967.964-.589.585-.966-.96.588-.589Z" fill="#313235"/></svg>