<svg xmlns="http://www.w3.org/2000/svg" width="24" height="24" fill="none"><path fill="#0B2739" d="M19.38 6.552h-2.804V5.465a.409.409 0 0 0-.12-.289l-.678-.675a.82.82 0 0 0 .235-.568.812.812 0 0 0-.24-.577l-.967-.964a.818.818 0 0 0-1.16 0l-.59.588a.818.818 0 0 0 0 1.157l.966.961a.819.819 0 0 0 1.16 0l.016-.017.557.555v.919H8.244v-.92l.552-.548.01.011a.819.819 0 0 0 1.16 0l.967-.96a.818.818 0 0 0 0-1.158l-.588-.588a.823.823 0 0 0-1.163 0l-.966.964a.814.814 0 0 0-.003 1.151l-.672.67a.398.398 0 0 0-.12.288v1.087H4.617a.818.818 0 0 0-.82.818v1.364c0 .45.37.818.82.818h.785v1.252a.82.82 0 0 0 .82.818H7.52v7.37H6.246a.818.818 0 0 0-.821.817v1.213a.82.82 0 0 0 .82.818h11.513c.454 0 .821-.364.821-.818V19.81a.82.82 0 0 0-.82-.818h-1.275v-7.37h1.297c.454 0 .82-.364.82-.818V9.552h.782a.82.82 0 0 0 .82-.818V7.37a.824.824 0 0 0-.823-.818Zm0 2.182h-1.585c-.003 0-.006 0-.009-.002H6.215l-.011.002H4.618V7.37H19.38v1.364ZM17.778 10.8H6.223V9.55h11.555v1.252Zm-9.44 8.188v-7.367h7.322v7.367H8.338Zm-2.095 2.03v-1.212h11.513v1.213H6.243Zm3.52-18.05.59.588-.967.961-.589-.585.967-.964Zm4.46-.003.967.964-.589.585-.966-.96.588-.589Z"/></svg>