<svg width="24" height="24" fill="none" xmlns="http://www.w3.org/2000/svg"><path d="M19.37 16.574c0 .326-.267.59-.595.59H16.12a.592.592 0 0 1-.594-.59c0-.326.266-.59.593-.59h2.656c.328 0 .594.264.594.59ZM4.947 16.908a.455.455 0 0 0 .456-.454.455.455 0 0 0-.456-.454.455.455 0 0 0-.457.454c0 .25.205.454.457.454ZM7.093 16.454a.455.455 0 0 1-.913 0c0-.25.205-.454.457-.454s.456.203.456.454ZM8.277 16.908a.455.455 0 0 0 .456-.454.455.455 0 0 0-.456-.454.455.455 0 0 0-.457.454c0 .25.205.454.457.454Z" fill="#313235"/><path fill-rule="evenodd" clip-rule="evenodd" d="M14.48 8.326c-.618 0-1.109.17-1.462.507-.367.35-.552.855-.552 1.495 0 .64.185 1.142.552 1.496.353.337.844.506 1.463.506.619 0 1.11-.17 1.46-.506.366-.351.551-.855.551-1.496 0-.64-.185-1.142-.552-1.495-.353-.334-.843-.507-1.46-.507Zm0 .557c.922 0 1.455.457 1.455 1.445 0 .989-.533 1.446-1.454 1.446-.922 0-1.454-.457-1.454-1.446 0-.988.532-1.445 1.454-1.445Z" fill="#313235"/><path fill-rule="evenodd" clip-rule="evenodd" d="M13.962 5.7H15c.308 0 .56.25.557.557v.738c.197.042.387.103.572.178l.485-.482a.564.564 0 0 1 .792 0l.737.73a.556.556 0 0 1 0 .788l-.485.482c.076.184.135.373.18.568h.742c.308 0 .56.25.56.557v1.03a.56.56 0 0 1-.56.557h-.742a3.347 3.347 0 0 1-.18.568l.485.482c.1.1.155.228.163.36h1.666c1.031 0 1.869.832 1.869 1.857v2.007a1.864 1.864 0 0 1-1.869 1.858H4.03a1.864 1.864 0 0 1-1.869-1.858V14.67c0-1.025.838-1.858 1.869-1.858h6.63a.554.554 0 0 1 .163-.362l.485-.482a3.609 3.609 0 0 1-.18-.568h-.742a.56.56 0 0 1-.56-.557v-1.03a.56.56 0 0 1 .56-.557h.742a3.34 3.34 0 0 1 .18-.568l-.485-.482a.556.556 0 0 1 0-.788l.731-.727a.564.564 0 0 1 .793 0l.485.482c.184-.075.375-.134.571-.178v-.738a.56.56 0 0 1 .56-.557Zm3.446 8.268.605-.599h1.958c.723 0 1.309.582 1.309 1.3v2.008c0 .719-.586 1.3-1.309 1.3H4.03a1.304 1.304 0 0 1-1.309-1.3V14.67c0-.719.586-1.3 1.309-1.3h6.925l.6.595a.564.564 0 0 0 .792 0l.485-.479c.184.075.375.136.571.178v.738a.56.56 0 0 0 .56.557H15a.56.56 0 0 0 .56-.557v-.738c.196-.044.387-.103.572-.178l.484.482a.564.564 0 0 0 .793 0Zm-2.41-7.711v1.209c.483.052.9.178 1.245.384l.77-.766.734.727-.77.766c.204.334.336.746.386 1.236h1.216v1.03h-1.216c-.053.49-.185.903-.386 1.237l.77.766-.734.726-.77-.765c-.345.206-.76.334-1.244.384v1.208h-1.037v-1.208c-.481-.053-.899-.178-1.243-.384l-.77.765-.732-.726.77-.766c-.204-.334-.336-.746-.386-1.237h-1.216v-1.03h1.213c.053-.49.185-.902.387-1.236l-.768-.766.731-.727.77.766c.345-.206.76-.334 1.244-.384V6.257H15Z" fill="#313235"/></svg>