<svg width="24" height="24" fill="none" xmlns="http://www.w3.org/2000/svg"><path d="M15.68 13.316a3.626 3.626 0 0 1 2.485-.994s.008-.031.005-.034a3.674 3.674 0 0 1 3.67 3.672 3.67 3.67 0 0 1-3.67 3.672 3.632 3.632 0 0 1-2.865-1.409l-2.171.995a2.122 2.122 0 0 1-1.406 2.521 2.12 2.12 0 0 1-2.673-1.361 2.121 2.121 0 0 1 3.734-1.905l2.07-.961a3.66 3.66 0 0 1 .283-3.605l-1.921-1.658a3.602 3.602 0 0 1-2.163.745 3.494 3.494 0 0 1-2.204-.83l-1.782 1.749c.202.37.308.781.308 1.201a2.61 2.61 0 0 1-4.454 1.857 2.612 2.612 0 0 1-.77-1.851c0-1.44 1.171-2.608 2.614-2.608a2.575 2.575 0 0 1 1.806.728l1.656-1.655a3.463 3.463 0 0 1-.347-3.863L5.938 6.064A2.13 2.13 0 0 1 2.63 4.28a2.128 2.128 0 1 1 4.255.016c.002.423-.127.835-.365 1.185l1.832 1.642a3.548 3.548 0 0 1 6 1.078l2.785-.829a3.218 3.218 0 0 1 0-.232 2.271 2.271 0 0 1 4.456-.692 2.27 2.27 0 0 1-4.182 1.686l-2.823.829c.028.148.039.297.042.448a3.55 3.55 0 0 1-.83 2.247l1.88 1.658ZM20.882 7.1a1.458 1.458 0 1 0-2.916-.003 1.458 1.458 0 0 0 2.916.003ZM4.758 5.593c.003 0 .006 0 .009-.003A1.29 1.29 0 0 0 6.06 4.3v-.006c0-.718-.583-1.303-1.3-1.303-.717 0-1.302.583-1.302 1.3 0 .717.582 1.302 1.3 1.302ZM9.753 19.75a1.303 1.303 0 0 0 1.31 1.291 1.29 1.29 0 0 0 1.292-1.294v-.017a1.303 1.303 0 0 0-1.31-1.29 1.303 1.303 0 0 0-1.292 1.31Zm-4.995-6.372a1.782 1.782 0 1 0 .002 3.564 1.782 1.782 0 0 0-.002-3.564Zm6.289-6.698a2.741 2.741 0 1 0 0 5.485 2.741 2.741 0 0 0 2.742-2.743 2.741 2.741 0 0 0-2.742-2.742Zm7.12 6.473a2.843 2.843 0 0 0-.002 5.684 2.843 2.843 0 0 0 .003-5.684Z" fill="#313235"/></svg>