<svg xmlns="http://www.w3.org/2000/svg" width="24" height="24" fill="none"><path fill="#000" d="M15.68 13.311a3.63 3.63 0 0 1 2.485-.994s.008-.031.005-.034a3.674 3.674 0 0 1 3.67 3.672 3.67 3.67 0 0 1-3.67 3.673 3.63 3.63 0 0 1-2.865-1.41l-2.171.995q.054.244.059.496a2.12 2.12 0 0 1-4.137.664 2.121 2.121 0 0 1 3.733-1.905l2.07-.961a3.66 3.66 0 0 1 .283-3.605l-1.921-1.658a3.6 3.6 0 0 1-2.163.745 3.5 3.5 0 0 1-2.204-.83l-1.782 1.749c.202.37.308.781.308 1.201a2.61 2.61 0 0 1-4.454 1.857 2.61 2.61 0 0 1-.77-1.851c0-1.44 1.171-2.608 2.614-2.608a2.58 2.58 0 0 1 1.806.728l1.656-1.655a3.46 3.46 0 0 1-.347-3.863L5.938 6.06A2.13 2.13 0 0 1 2.63 4.275a2.128 2.128 0 1 1 4.255.016c.002.423-.127.835-.365 1.185l1.832 1.642a3.548 3.548 0 0 1 6 1.078l2.785-.829a3 3 0 0 1 0-.233 2.271 2.271 0 0 1 4.456-.691 2.27 2.27 0 0 1-4.182 1.686l-2.823.829c.028.148.039.297.042.448a3.55 3.55 0 0 1-.83 2.247zm5.202-6.216a1.458 1.458 0 1 0-2.916-.003 1.458 1.458 0 0 0 2.916.003M4.758 5.588q.005 0 .009-.003a1.29 1.29 0 0 0 1.294-1.29v-.006c0-.718-.583-1.303-1.3-1.303s-1.302.583-1.302 1.3.582 1.302 1.3 1.302m4.995 14.157a1.303 1.303 0 0 0 1.31 1.291 1.29 1.29 0 0 0 1.292-1.294v-.017a1.303 1.303 0 0 0-1.31-1.29 1.303 1.303 0 0 0-1.292 1.31m-4.995-6.372a1.782 1.782 0 1 0 .002 3.564 1.782 1.782 0 0 0-.002-3.564m6.289-6.698a2.741 2.741 0 1 0 0 5.485 2.74 2.74 0 0 0 2.742-2.743 2.74 2.74 0 0 0-2.742-2.742m7.12 6.474a2.843 2.843 0 0 0-.002 5.683 2.843 2.843 0 0 0 .003-5.683"/></svg>