<svg width="24" height="24" fill="none" xmlns="http://www.w3.org/2000/svg"><path d="M2.184 4.964c0 .222.182.4.41.4H3.84l.01.089a.92.92 0 0 0 .018.13A2.785 2.785 0 0 0 5.13 7.337a2.885 2.885 0 0 0 2.16.364 2.84 2.84 0 0 0 1.787-1.24 2.74 2.74 0 0 0 .406-1.096h11.905c.227 0 .409-.18.409-.4a.404.404 0 0 0-.41-.401H9.477a1.45 1.45 0 0 1-.01-.088c-.004-.043-.008-.087-.018-.13a2.785 2.785 0 0 0-1.264-1.754 2.872 2.872 0 0 0-2.157-.364A2.844 2.844 0 0 0 4.24 3.466c-.215.339-.35.714-.406 1.098h-1.24a.404.404 0 0 0-.41.4Zm2.48.44a1.959 1.959 0 0 1 .265-1.513 2.035 2.035 0 0 1 1.278-.885 2.061 2.061 0 0 1 1.54.26c.46.287.782.732.902 1.253a1.97 1.97 0 0 1-.266 1.513 2.035 2.035 0 0 1-1.277.885 2.065 2.065 0 0 1-1.54-.26 2.001 2.001 0 0 1-.903-1.253ZM17.26 13.41c-1.126 0-2.045-.9-2.045-2.006 0-1.106.919-2.005 2.045-2.005s2.042.899 2.042 2.005c0 1.107-.916 2.006-2.042 2.006Zm4.512-2.006c0-.221-.182-.4-.409-.4h-1.285a2.838 2.838 0 0 0-2.818-2.407 2.838 2.838 0 0 0-2.818 2.407H2.568a.404.404 0 0 0-.409.4c0 .221.182.4.409.4h11.874a2.838 2.838 0 0 0 2.818 2.407 2.838 2.838 0 0 0 2.818-2.406h1.285c.227 0 .41-.18.41-.4ZM9.4 19.841c-1.126 0-2.042-.9-2.045-2.006 0-1.106.919-2.005 2.045-2.005s2.042.899 2.042 2.005c0 1.107-.916 2.006-2.042 2.006Zm12.37-2.006c0-.22-.182-.4-.41-.4h-9.142A2.838 2.838 0 0 0 9.4 15.029a2.838 2.838 0 0 0-2.818 2.406H2.565a.404.404 0 0 0-.409.4c0 .222.182.401.41.401h4.016A2.838 2.838 0 0 0 9.4 20.642a2.838 2.838 0 0 0 2.818-2.406h9.143c.227 0 .409-.18.409-.4Z" fill="#313235"/></svg>