<svg width="24" height="24" viewBox="0 0 24 24" fill="none" xmlns="http://www.w3.org/2000/svg">
<path fill-rule="evenodd" clip-rule="evenodd" d="M7.86192 22H17.3328C18.8021 22 20 20.8454 20 19.4321V8.93872V4.57074C20 3.15171 18.8021 2 17.3328 2H7.56983C6.15362 2 5 3.1119 5 4.47689V19.2416C5 20.763 6.28344 22 7.86192 22ZM19.3775 4.57074V8.64013H18.2769V2.82313C18.9303 3.15251 19.3775 3.81243 19.3775 4.57074ZM17.3328 2.60003C17.4432 2.60003 17.5516 2.60852 17.6574 2.62485V21.3723C17.5516 21.3886 17.4432 21.3971 17.3328 21.3971H7.86192C6.62864 21.3971 5.62254 20.4303 5.62254 19.2387V4.47405C5.62254 3.43893 6.49587 2.59718 7.56983 2.59718V2.60003H17.3328ZM18.2769 15.3599V21.174C18.9303 20.8446 19.3775 20.1847 19.3775 19.4264V15.3599H18.2769ZM18.2769 14.7627H19.3775V9.23731H18.2769V14.7627ZM11.6916 11.7483C10.1131 11.7483 9.24272 10.9094 9.24272 9.39087C9.24272 7.86663 10.1131 7.02488 11.6916 7.02488C13.273 7.02488 14.1463 7.86379 14.1463 9.39087C14.1434 10.9094 13.273 11.7483 11.6916 11.7483ZM7.43706 16.3751C7.49607 16.4348 7.57868 16.4661 7.66424 16.4661H15.716C15.893 16.4661 16.0376 16.3267 16.0376 16.1561V15.1523C16.0376 14.4186 15.7986 13.793 15.3472 13.338C14.8544 12.846 14.1286 12.5844 13.2435 12.5844H10.1367C9.25157 12.5844 8.52577 12.8432 8.03304 13.338C7.58163 13.7901 7.34264 14.4186 7.34264 15.1523V16.1561C7.34264 16.2386 7.37805 16.3182 7.43706 16.3751ZM7.98584 15.1523C7.98584 13.9124 8.7677 13.2015 10.1367 13.2015H13.2465C14.6125 13.2015 15.3973 13.9124 15.3973 15.1523V15.8462H7.98584V15.1523ZM10.3314 8.04294C10.6294 7.76425 11.0867 7.62207 11.6916 7.62207C12.2964 7.62207 12.7537 7.76425 13.0547 8.04294C13.3645 8.33016 13.5209 8.78231 13.5209 9.38803C13.5209 9.9909 13.3645 10.4431 13.0547 10.7303C12.7537 11.009 12.2935 11.1483 11.6886 11.1483C11.0838 11.1483 10.6265 11.0061 10.3285 10.7303C10.0216 10.4459 9.86526 9.99374 9.86526 9.38803C9.86526 8.78231 10.0216 8.33016 10.3314 8.04294Z" fill="#313235"/>
</svg>
