<svg width="24" height="24" viewBox="0 0 24 24" fill="none" xmlns="http://www.w3.org/2000/svg">
<path fill-rule="evenodd" clip-rule="evenodd" d="M18.1878 3.52249C20.1346 4.22277 21.311 5.60932 21.6836 7.64294C22.1906 10.3992 21.1094 13.9987 13.087 15.4805C11.8433 15.713 10.6892 15.8362 9.64438 15.8642C9.53234 16.3236 9.31105 16.6737 8.98612 16.9174C9.38388 17.6345 9.49312 18.3516 9.28304 18.9931C9.01693 19.7998 8.28023 20.4581 7.08976 20.9483C7.03934 20.9707 6.98612 20.9791 6.9329 20.9791C6.77323 20.9791 6.61917 20.881 6.55474 20.7242C6.47071 20.5141 6.56875 20.2732 6.77883 20.1864C7.73682 19.7914 8.31665 19.3012 8.50432 18.7354C8.6808 18.1892 8.46511 17.6373 8.24102 17.2536C7.99172 17.3152 7.71161 17.3516 7.40348 17.3516C7.24102 17.3516 7.07015 17.3432 6.89088 17.3264C5.23542 17.1667 4.33626 16.4048 4.47351 14.9735C4.48023 14.8995 4.49413 14.8327 4.50802 14.766C4.5115 14.7493 4.51497 14.7326 4.51833 14.7158L4.51832 14.7158C4.48191 14.7046 4.4455 14.6934 4.41189 14.6709C3.26903 13.8894 2.54914 12.7326 2.27463 11.234C1.77043 8.47487 2.84886 4.87543 10.8657 3.39364C13.9189 2.83061 16.3811 2.86983 18.1878 3.52249ZM12.9385 14.6709C11.7732 14.8866 10.6976 15.0043 9.71721 15.0351C9.63878 13.8922 8.76763 13.2704 7.29704 13.1275C7.11777 13.1107 6.9469 13.1023 6.78444 13.1023C5.87407 13.1023 5.20741 13.3796 4.82365 13.9455C3.90208 13.29 3.31385 12.332 3.08416 11.0855C2.4455 7.61212 5.11497 5.2956 11.0169 4.20316C13.9273 3.66534 16.2466 3.69616 17.9133 4.2956C19.5884 4.90064 20.5575 6.0435 20.8797 7.79139C21.5155 11.2648 18.8433 13.5813 12.9385 14.6709ZM7.40629 16.5309C7.26623 16.5309 7.12337 16.5225 6.96931 16.5085C5.17032 16.335 5.25203 15.4713 5.2913 15.0562L5.29144 15.0547C5.34746 14.4693 5.56595 13.9258 6.78164 13.9258C6.91889 13.9258 7.06455 13.9343 7.21581 13.9483C7.86287 14.0099 8.34466 14.1779 8.61357 14.43C8.76203 14.5673 8.9497 14.8194 8.89368 15.4048C8.84046 15.9903 8.62197 16.5309 7.40629 16.5309Z" fill="#313235"/>
</svg>
