<svg width="24" height="24" viewBox="0 0 24 24" fill="none" xmlns="http://www.w3.org/2000/svg">
<path fill-rule="evenodd" clip-rule="evenodd" d="M11.0666 2.15625C11.8873 2.15625 15.9742 2.33832 17.1534 5.92936C18.5652 6.0358 21.8425 6.74168 21.8425 10.9434C21.8425 15.7501 17.5372 15.991 16.6689 15.991L16.2935 15.9994V19.9042C16.2935 20.624 15.7333 21.1619 14.6212 21.4924C13.8593 21.7165 12.8649 21.8397 11.8285 21.8397C10.7837 21.8397 9.79491 21.7165 9.0358 21.4924C7.91535 21.1619 7.35513 20.624 7.35513 19.9042V16.0414C7.34673 16.0414 7.34042 16.0435 7.33412 16.0456C7.32782 16.0477 7.32152 16.0498 7.31311 16.0498H6.39435C4.34673 16.0498 2.15625 14.9574 2.15625 11.8789C2.15625 9.37194 3.61003 8.38874 4.66325 8.00499C4.7725 2.43636 10.005 2.15625 11.0666 2.15625ZM16.2935 15.1731L16.6689 15.1647C17.6885 15.1647 21.0078 14.8677 21.005 10.9434C21.005 7.25149 18.0778 6.7725 16.8173 6.73888C16.6352 6.73328 16.4784 6.61003 16.4252 6.43356C15.54 3.14785 11.8033 2.98258 11.0666 2.98258C9.75569 2.98258 5.49238 3.35513 5.49238 8.19547L5.50079 8.30471C5.50079 8.48958 5.37754 8.65205 5.19827 8.69967C3.73328 9.11423 2.99098 10.1815 2.99098 11.8789C2.99098 14.8985 5.36353 15.2207 6.39435 15.2207H7.31311C7.31659 15.2207 7.32152 15.2221 7.32728 15.2238C7.33544 15.2262 7.34528 15.2291 7.35513 15.2291V11.3719C7.35513 11.2571 7.37194 11.1394 7.40555 11.033C7.56521 10.4784 8.10863 10.0582 9.0358 9.7837C10.5484 9.32992 13.1002 9.32992 14.6212 9.7837C15.7333 10.117 16.2935 10.6548 16.2935 11.3747V15.1731ZM9.2711 10.582C8.71087 10.7473 8.36073 10.9602 8.24308 11.2011C8.35233 11.4336 8.71087 11.6549 9.2795 11.8313C10.6436 12.2375 13.019 12.2375 14.3803 11.8313C14.9462 11.6661 15.3075 11.4448 15.4168 11.2123C15.2823 10.9042 14.7977 10.7053 14.3803 10.582C13.6941 10.3747 12.7921 10.2683 11.8313 10.2683C10.8593 10.2683 9.95737 10.3747 9.2711 10.582ZM15.4588 14.1394C15.3411 14.3383 15.0078 14.61 14.3887 14.7921C13.019 15.1983 10.6436 15.1983 9.2823 14.7921C8.63804 14.6016 8.30471 14.3355 8.19547 14.1478V12.2543C8.46437 12.4112 8.75009 12.5372 9.04981 12.6268C9.80331 12.8509 10.7977 12.9742 11.8341 12.9742C12.8789 12.9742 13.8733 12.8509 14.6268 12.6268C14.9182 12.5372 15.1983 12.4168 15.4616 12.2627C15.4588 12.2599 15.4588 14.1394 15.4588 14.1394ZM14.3887 17.7697C15.0078 17.5876 15.3411 17.3159 15.4588 17.117V15.2151C15.1983 15.3747 14.9182 15.5008 14.624 15.5876C13.8705 15.8117 12.8761 15.935 11.8397 15.935C10.7949 15.935 9.80051 15.8117 9.04701 15.5876C8.71087 15.4868 8.43636 15.3635 8.19266 15.2235V17.1254C8.30191 17.3215 8.62684 17.5792 9.2879 17.7697C10.6436 18.1759 13.019 18.1759 14.3887 17.7697ZM15.4588 19.9069C15.4588 20.2963 14.8733 20.5512 14.3803 20.6997C13.0078 21.1058 10.652 21.1058 9.2711 20.6997C8.7781 20.5512 8.19266 20.2935 8.19266 19.9069V18.2011C8.43636 18.3411 8.71087 18.4672 9.04701 18.5652C9.80051 18.7893 10.7949 18.9126 11.8397 18.9126C12.8761 18.9126 13.8705 18.7865 14.624 18.5652C14.9182 18.4812 15.2011 18.3551 15.4588 18.1927V19.9069Z" fill="#313235"/>
</svg>
