<svg width="24" height="24" viewBox="0 0 24 24" fill="none" xmlns="http://www.w3.org/2000/svg">
<path fill-rule="evenodd" clip-rule="evenodd" d="M14.5064 2.15625C19.3103 2.15625 21.8425 4.69126 21.8425 9.47558C21.8425 14.2683 19.3103 16.7949 14.5064 16.7949C13.9434 16.7949 13.4168 16.7501 12.9126 16.6745V18.9378C12.9126 19.8985 12.6661 20.6044 12.1619 21.1002C11.6661 21.6016 10.9574 21.8397 10.005 21.8397H5.06381C4.11703 21.8397 3.40835 21.5988 2.90415 21.1002C2.40275 20.6072 2.15625 19.8929 2.15625 18.9406V9.08342C2.15625 8.14785 2.40275 7.45037 2.90695 6.94897C3.41115 6.42796 4.11984 6.18146 5.06661 6.18146H7.71087C8.68846 3.55121 11.0274 2.15625 14.5064 2.15625ZM14.5064 15.9462C18.8117 15.9462 20.9882 13.7753 20.9882 9.47558C20.9882 5.18426 18.8117 3.00779 14.5064 3.00779C11.512 3.00779 9.55121 4.08902 8.63804 6.18146H10.005C10.9602 6.18146 11.6689 6.42796 12.1703 6.93216C12.6745 7.43356 12.9126 8.13104 12.9126 9.08342V15.8229C13.4084 15.9013 13.9434 15.9462 14.5064 15.9462ZM7.5344 17.9826C8.05821 17.9826 8.37194 18.2963 8.37194 18.8201C8.37194 19.075 8.29911 19.2823 8.15625 19.4308C8.00779 19.582 7.79491 19.6605 7.5372 19.6605C7.2795 19.6605 7.06661 19.582 6.91815 19.4308C6.7725 19.2823 6.69967 19.0778 6.69967 18.8201C6.69967 18.2935 7.01059 17.9826 7.5344 17.9826ZM12.0582 9.08342V18.9406C12.0582 19.6549 11.8957 20.1647 11.5652 20.498C11.2319 20.8285 10.7193 20.991 10.0022 20.991H5.06381C4.34673 20.991 3.84252 20.8285 3.50919 20.498C3.17026 20.1647 3.00779 19.6549 3.00779 18.9406V9.08342C3.00779 8.38594 3.17866 7.88454 3.50919 7.5428C3.85093 7.20387 4.35513 7.033 5.06381 7.033H10.0022C10.7165 7.033 11.2291 7.19547 11.5624 7.526C11.8957 7.85933 12.0582 8.36913 12.0582 9.08342ZM14.2067 9.96858L16.3355 12.0918C16.5008 12.2571 16.7697 12.2571 16.935 12.0946C17.1002 11.9294 17.1002 11.6577 16.935 11.4924L14.9322 9.49238V6.79491C14.9322 6.55961 14.7417 6.36914 14.5064 6.36914C14.2711 6.36914 14.0806 6.55961 14.0806 6.79491V9.66605C14.0806 9.7809 14.1254 9.88734 14.2067 9.96858Z" fill="#313235"/>
</svg>
