<svg width="24" height="24" viewBox="0 0 24 24" fill="none" xmlns="http://www.w3.org/2000/svg">
<path fill-rule="evenodd" clip-rule="evenodd" d="M12.6514 11.3019C13.4245 11.4056 14.2088 11.5428 14.9371 11.8817C16.1388 12.4392 16.9287 13.4476 17.1528 14.7193C17.4021 16.1002 16.9287 17.5596 15.8895 18.6156C14.9819 19.5372 13.8475 19.9966 12.6514 20.1366V21.1787C12.6346 21.5484 12.3237 21.8341 11.9539 21.8173C11.5842 21.8005 11.2985 21.4896 11.3153 21.1198V20.1562C9.77744 20.019 8.30125 19.4812 7.03515 18.5988C6.73262 18.3859 6.6598 17.9686 6.86988 17.6633V17.6605C7.08277 17.3579 7.49733 17.2851 7.79985 17.4952C8.84187 18.2235 10.052 18.6745 11.3153 18.8117V12.4784C10.1668 12.3103 8.96512 12.0134 8.04075 11.0498C7.27604 10.2487 6.9231 9.17866 7.05475 8.0358C7.20601 6.68006 8.02114 5.36073 9.178 4.60163C9.82506 4.18426 10.5562 3.91815 11.3181 3.82012V2.82852C11.3181 2.45597 11.615 2.15625 11.9847 2.15625C12.3545 2.15625 12.6542 2.45597 12.6542 2.82572V3.7781C14.0407 3.89294 15.3797 4.45037 16.3545 5.24869C16.6402 5.48398 16.685 5.90415 16.4497 6.19266C16.2172 6.48398 15.7971 6.5232 15.5113 6.2907C14.7662 5.68006 13.727 5.24028 12.6514 5.12544V11.3019ZM9.00433 10.1142C8.38248 9.46437 8.32366 8.70527 8.38248 8.18426C8.48893 7.22628 9.08837 6.25989 9.9091 5.71928C10.3349 5.44196 10.8139 5.25429 11.3153 5.16465V11.1198C10.4189 10.9742 9.60097 10.7389 9.00433 10.1142ZM14.9399 17.6717C14.3097 18.3131 13.5113 18.6492 12.6514 18.7725V12.652C13.276 12.7389 13.8587 12.8565 14.3713 13.0974C15.1696 13.4672 15.6878 14.1282 15.8391 14.9546C16.0127 15.9126 15.6766 16.9266 14.9399 17.6717Z" fill="#313235"/>
</svg>
