<svg width="24" height="24" viewBox="0 0 24 24" fill="none" xmlns="http://www.w3.org/2000/svg">
<path fill-rule="evenodd" clip-rule="evenodd" d="M11.4509 21.5708C11.5854 21.7333 11.7815 21.8257 11.9916 21.8257C12.2016 21.8229 12.3977 21.7305 12.5294 21.5708L21.661 12.1534L21.6778 12.1366C21.8683 11.907 21.9047 11.5904 21.7759 11.3243C21.661 11.0694 21.4089 10.9098 21.1316 10.9069H16.9355C16.8459 10.9069 16.7759 10.8257 16.7759 10.7221L16.7787 3.83692C16.7787 2.90975 16.0252 2.15625 15.098 2.15625H8.88791C7.96074 2.15625 7.20724 2.90975 7.20724 3.83692V10.7249C7.20724 10.8257 7.13441 10.9098 7.04757 10.9098H2.8767C2.59939 10.9098 2.34729 11.0722 2.23245 11.3243C2.10359 11.5904 2.14001 11.907 2.32768 12.1366L2.34449 12.1534L11.4509 21.5708ZM11.8627 21.1899L2.75906 11.7753C2.71424 11.7137 2.70584 11.6324 2.73945 11.5624C2.76186 11.5064 2.81788 11.4672 2.87951 11.4672H7.04757C7.44533 11.4672 7.76746 11.1338 7.76746 10.7221V3.84252C7.76746 3.22348 8.26886 2.72208 8.88791 2.72208H15.0952C15.7142 2.72208 16.2156 3.22348 16.2156 3.84252L16.2128 10.7249C16.2128 11.1338 16.535 11.47 16.9327 11.47H21.1316C21.1932 11.47 21.2493 11.5092 21.2717 11.5652C21.3025 11.6324 21.2969 11.7137 21.2521 11.7753L12.126 21.1899L12.1092 21.2067C12.0812 21.2431 12.0392 21.2655 11.9944 21.2655C11.9495 21.2627 11.9075 21.2431 11.8795 21.2067L11.8627 21.1899Z" fill="#313235"/>
</svg>
