<svg width="24" height="24" viewBox="0 0 24 24" fill="none" xmlns="http://www.w3.org/2000/svg">
<path fill-rule="evenodd" clip-rule="evenodd" d="M15.5495 21.8341H8.4487C7.42069 21.8341 6.6784 21.596 6.1826 21.103C5.6812 20.6072 5.4375 19.8593 5.4375 18.8229V5.16745C5.4375 4.15905 5.6812 3.42236 6.1798 2.91815C6.6868 2.40555 7.4291 2.15625 8.4487 2.15625H15.5495C16.5804 2.15625 17.3227 2.39995 17.8213 2.90135C18.3199 3.40275 18.5607 4.14224 18.5607 5.16745V18.8229C18.5607 19.8593 18.3171 20.6044 17.8157 21.103C17.3199 21.596 16.5776 21.8341 15.5495 21.8341ZM8.4487 2.71647C7.58596 2.71647 6.97532 2.90975 6.57756 3.31031C6.1854 3.70527 5.99492 4.31311 5.99492 5.16745V18.8229C5.99492 20.5652 6.70641 21.2739 8.4459 21.2739H15.5467C17.289 21.2739 17.9977 20.5652 17.9977 18.8229V5.16745C17.9977 4.29631 17.81 3.68286 17.4235 3.29631C17.0369 2.90975 16.4235 2.71647 15.5495 2.71647H8.4487ZM11.7904 15.8593C11.8437 15.921 11.9193 15.9546 12.0005 15.9546C12.0818 15.9546 12.1574 15.921 12.2106 15.8621L15.6616 11.935C15.7064 11.8845 15.7316 11.8173 15.7316 11.7501C15.7316 11.596 15.6056 11.47 15.4515 11.47H13.656V6.20667C13.6784 6.019 13.6196 5.83412 13.4963 5.69407C13.3703 5.54841 13.1854 5.46717 12.9921 5.46717H11.065C10.8605 5.44477 10.6588 5.51479 10.5103 5.65765C10.3703 5.7865 10.2946 5.96858 10.303 6.15625V11.47H8.56075C8.49352 11.47 8.4263 11.4952 8.37588 11.54C8.26103 11.6408 8.24983 11.8173 8.35067 11.935L11.7904 15.8593ZM11.1742 18.6605C11.1742 18.0918 11.5019 17.8257 12.0061 17.8257C12.5103 17.8257 12.8353 18.0918 12.8353 18.6605C12.8353 18.935 12.7624 19.1366 12.628 19.2739C12.4823 19.4224 12.2694 19.4952 12.0061 19.4952C11.7428 19.4952 11.5299 19.4224 11.3843 19.2739C11.2498 19.1366 11.1742 18.935 11.1742 18.6605ZM9.177 12.0302L12.0005 15.2515L14.8325 12.0302H13.3759C13.2218 12.0302 13.0958 11.9041 13.0958 11.7501V6.18706C13.0958 6.17306 13.0958 6.15905 13.0986 6.14505C13.1042 6.11703 13.0958 6.08622 13.0762 6.06381C13.0565 6.0414 13.0313 6.0274 13.0033 6.0274H11.0481C11.0369 6.0274 11.0257 6.0274 11.0117 6.0246C10.9697 6.019 10.9249 6.033 10.8941 6.06381C10.8745 6.07782 10.8633 6.10023 10.8605 6.12544V11.7501C10.8605 11.9041 10.7344 12.0302 10.5804 12.0302H9.177Z" fill="#313235"/>
</svg>
