<svg xmlns="http://www.w3.org/2000/svg" width="24" height="24" fill="none"><path fill="#0B2739" d="M20.902 6.99h-1.207v-.6a.95.95 0 0 0-.936-.957h-1.204a.948.948 0 0 0-.936.957v3.513a.177.177 0 0 1-.035-.008c-.014-.005-.028-.009-.043-.009H7.448a.158.158 0 0 0-.046.009.197.197 0 0 1-.038.008V6.39a.95.95 0 0 0-.936-.957H5.224a.948.948 0 0 0-.936.957v.6H3.087a.945.945 0 0 0-.936.955v8.1c0 .53.418.956.936.956h1.201v.6c0 .529.42.957.936.957h1.204a.948.948 0 0 0 .936-.957v-3.513c.014.001.026.005.038.008a.156.156 0 0 0 .046.009h9.093c.015 0 .03-.005.045-.01a.181.181 0 0 1 .033-.007v3.513c0 .529.42.957.936.957h1.204a.948.948 0 0 0 .936-.957V17h1.207a.945.945 0 0 0 .935-.955V7.948a.946.946 0 0 0-.935-.958ZM7.448 13.147v-2.303h9.093v2.303H7.448Zm10.11 4.454V6.39h1.204V17.6h-1.205ZM4.294 7.945v8.098H3.091V7.945h1.204Zm15.403 8.101V7.948h1.204v8.098h-1.204ZM5.195 17.605V6.395h1.202v11.21H5.195Z"/></svg>