<svg xmlns="http://www.w3.org/2000/svg" width="24" height="24" fill="none"><path fill="#0B2739" d="M20.902 6.99h-1.207v-.6a.95.95 0 0 0-.936-.957h-1.204a.95.95 0 0 0-.936.957v3.513l-.035-.008q-.02-.008-.043-.009H7.448a.2.2 0 0 0-.046.009l-.038.008V6.39a.95.95 0 0 0-.936-.957H5.224a.95.95 0 0 0-.936.957v.6H3.087a.945.945 0 0 0-.936.955v8.1c0 .53.418.956.936.956h1.201v.6c0 .529.42.957.936.957h1.204a.95.95 0 0 0 .936-.957v-3.513q.02.002.038.008a.2.2 0 0 0 .046.009h9.093q.023-.001.045-.01l.033-.007v3.513c0 .529.42.957.936.957h1.204a.95.95 0 0 0 .936-.957V17h1.207a.945.945 0 0 0 .935-.955V7.948a.946.946 0 0 0-.935-.958M7.448 13.147v-2.303h9.093v2.303zm10.11 4.454V6.39h1.204V17.6zM4.294 7.945v8.098H3.091V7.945zm15.403 8.101V7.948h1.204v8.098zM5.195 17.605V6.395h1.202v11.21z"/></svg>