<svg xmlns="http://www.w3.org/2000/svg" width="24" height="24" fill="none"><path fill="#0B2739" d="M3.437 3.002c-.79.003-1.434.65-1.437 1.44v3.265q0 .03.006.059c.053 1.318.447 2.341 1.177 3.043.756.727 1.856 1.097 3.267 1.097 1.38 0 2.459-.351 3.21-1.045q.417.82.728 1.812c.718 2.295.858 4.773.95 6.412l.002.043c.036.621.064 1.113.117 1.437a.27.27 0 0 0 .228.225q.02.004.043.003a.27.27 0 0 0 .265-.228c.332-2.039.973-4.861 2.165-7.133q.07.075.144.148c.753.727 1.85 1.095 3.259 1.095 1.411 0 2.506-.368 3.256-1.095.725-.696 1.118-1.709 1.173-3.016a.3.3 0 0 0 .01-.075V7.225c0-.784-.642-1.423-1.425-1.426H17.56c-1.408 0-2.506.368-3.259 1.095-.781.756-1.177 1.879-1.177 3.344 0 1.108.227 2.023.677 2.729q-.38.69-.714 1.49c-.59 1.414-.985 2.86-1.243 4.011-.131-2.182-.42-5.452-1.794-8.036.562-.736.844-1.734.844-2.973 0-1.472-.399-2.598-1.183-3.356-.755-.73-1.851-1.1-3.26-1.1-1.5-.004-2.06-.004-3.015 0m-.872 4.454V4.442a.88.88 0 0 1 .872-.875h3.01c2.578 0 3.884 1.309 3.884 3.889q0 1.506-.592 2.431c-.801-1.294-1.916-2.365-3.477-2.962a.272.272 0 0 0-.194.508c1.368.522 2.474 1.497 3.309 2.91q-.975.998-2.93.999c-2.577 0-3.883-1.309-3.883-3.886m11.096 2.782c0-2.591 1.311-3.903 3.9-3.903h3.016a.9.9 0 0 1 .89.89v2.958a.3.3 0 0 0-.006.055c0 2.59-1.311 3.9-3.9 3.9q-2.159-.001-3.125-1.207c.972-1.662 2.274-2.946 4.015-3.263a.27.27 0 0 0-.098-.53c-1.197.216-2.283.864-3.23 1.924a9.7 9.7 0 0 0-1.01 1.37q-.452-.875-.452-2.194"/></svg>