<svg xmlns="http://www.w3.org/2000/svg" width="24" height="24" fill="none"><path fill="#0B2739" d="M4.891 19.42c-.387 0-.753-.165-1.022-.45a1.61 1.61 0 0 1-.345-1.553l1.524-4.837c.09-.26.24-.493.445-.672 4.19-3.958 8.692-8.264 9.003-8.589a3.35 3.35 0 0 1 2.434-1.168 3.52 3.52 0 0 1 2.566 1.157 4.13 4.13 0 0 1 1.112 2.731A3.85 3.85 0 0 1 19.496 8.7c-.555.625-9.025 8.645-9.112 8.726-.143.14-.314.244-.501.3l-4.535 1.607c-.149.065-.303.09-.457.087m15.157 1.263c.308 0 .555.258.555.58 0 .32-.25.58-.555.58H3.936a.565.565 0 0 1-.555-.58c0-.319.25-.58.555-.58zM4.67 18.16c.081.09.207.126.322.092L9.527 16.7a.3.3 0 0 0 .112-.07c1.4-1.33 8.591-8.17 9.067-8.68a2.72 2.72 0 0 0 .756-1.91 2.92 2.92 0 0 0-.745-1.934 2.44 2.44 0 0 0-1.767-.787 2.36 2.36 0 0 0-1.712.787c-.355.39-5.062 4.865-7.868 7.534l-1.168 1.11a.35.35 0 0 0-.1.152L4.58 17.767a.39.39 0 0 0 .09.393"/></svg>