<svg width="24" height="24" viewBox="0 0 24 24" fill="none" xmlns="http://www.w3.org/2000/svg">
<path fill-rule="evenodd" clip-rule="evenodd" d="M21.1039 6.62124C21.6585 7.17866 21.9891 7.97418 21.9863 8.75569C21.9835 9.5344 21.6753 10.2515 21.0955 10.8257C20.9639 10.9546 20.3168 11.54 19.3868 12.3691C19.3868 12.3724 19.3878 12.3757 19.3886 12.3784C19.3891 12.3803 19.3896 12.382 19.3896 12.3831V17.8369C19.3896 19.0386 19.0535 20.005 18.3924 20.7109C17.6893 21.4616 16.6865 21.8425 15.4148 21.8425H6.27198C4.99747 21.8425 3.99747 21.4616 3.29439 20.7109C2.63612 20.005 2.29999 19.0386 2.29999 17.8369V6.21507C2.29999 3.71087 3.821 2.15625 6.27198 2.15625H15.412C17.7005 2.15625 19.1823 3.54 19.356 5.7753C20.0115 5.86213 20.6361 6.15345 21.1039 6.62124ZM18.5689 17.8397C18.5689 18.8257 18.3084 19.6044 17.7958 20.1535C17.2524 20.7333 16.4512 21.0274 15.4148 21.0274H6.27198C5.23556 21.0274 4.43444 20.7333 3.89383 20.1535C3.38122 19.6044 3.12072 18.8257 3.12072 17.8397V6.21787C3.12072 4.15905 4.26918 2.97978 6.27198 2.97978H15.4148C17.2608 2.97978 18.3784 4.00219 18.5381 5.7781C17.9274 5.87334 17.37 6.16185 16.9078 6.62404C16.6445 6.88734 12.7846 10.3131 9.28598 13.4056C9.13472 13.54 9.01988 13.7109 8.95265 13.9069L7.66693 17.7445C7.52688 18.1647 7.63332 18.6184 7.94425 18.9322C8.16553 19.1506 8.45405 19.2739 8.76497 19.2739C8.88822 19.2739 9.01147 19.2543 9.12912 19.2151L12.9667 17.9462C13.1151 17.8957 13.2552 17.8173 13.37 17.7137L13.5437 17.5596C15.2328 16.0638 17.1039 14.4027 18.5661 13.1002V17.8397H18.5689ZM13.0031 16.9434L12.8294 17.0974C12.7958 17.1282 12.7538 17.1506 12.7118 17.1647L8.87422 18.4336C8.75657 18.4728 8.61651 18.442 8.52688 18.3495C8.43724 18.2571 8.40363 18.1226 8.44565 18.0022L9.73136 14.1675C9.75097 14.1086 9.78458 14.0582 9.8294 14.019C12.3336 11.8089 17.1543 7.5372 17.4877 7.20107C18.0087 6.68006 18.5717 6.55961 18.9807 6.55961C19.0143 6.55961 19.0479 6.55961 19.0787 6.56241C19.6165 6.58762 20.1459 6.82012 20.5269 7.20107C20.9302 7.60443 21.1711 8.18426 21.1683 8.75289C21.1655 9.30751 20.9414 9.82292 20.5185 10.2403C20.3672 10.3915 19.1935 11.4588 13.0031 16.9434Z" fill="#313235"/>
</svg>
