<svg width="24" height="24" fill="none" xmlns="http://www.w3.org/2000/svg"><path d="M21.104 6.621c.555.558.885 1.353.882 2.135-.003.778-.31 1.495-.89 2.07-.132.129-.78.714-1.71 1.543l.003.01v5.457c0 1.202-.335 2.168-.997 2.874-.703.75-1.706 1.132-2.977 1.132H6.272c-1.275 0-2.275-.381-2.978-1.132-.658-.706-.994-1.672-.994-2.874V6.215c0-2.504 1.521-4.059 3.972-4.059h9.14c2.289 0 3.77 1.384 3.944 3.62a3.04 3.04 0 0 1 1.748.845ZM18.569 17.84h-.003V13.1a2460.084 2460.084 0 0 1-5.022 4.46l-.174.154a1.162 1.162 0 0 1-.403.232l-3.838 1.27a1.153 1.153 0 0 1-1.185-.284 1.157 1.157 0 0 1-.277-1.188l1.286-3.837a1.18 1.18 0 0 1 .333-.501c3.499-3.093 7.359-6.519 7.622-6.782a2.927 2.927 0 0 1 1.63-.846c-.16-1.776-1.277-2.798-3.123-2.798H6.272c-2.003 0-3.151 1.179-3.151 3.238V17.84c0 .986.26 1.764.773 2.314.54.58 1.342.873 2.378.873h9.143c1.036 0 1.837-.294 2.38-.873.513-.55.774-1.328.774-2.314Zm-5.566-.897c6.19-5.484 7.364-6.552 7.515-6.703.423-.417.648-.932.65-1.487a2.226 2.226 0 0 0-.641-1.552 2.22 2.22 0 0 0-1.448-.639c-.031-.002-.065-.002-.098-.002-.41 0-.972.12-1.493.641-.334.336-5.154 4.608-7.659 6.818a.337.337 0 0 0-.098.149l-1.285 3.834a.34.34 0 0 0 .428.432l3.838-1.27a.331.331 0 0 0 .117-.067l.174-.154Z" fill="#313235"/></svg>