<svg width="24" height="24" viewBox="0 0 24 24" fill="none" xmlns="http://www.w3.org/2000/svg">
<path fill-rule="evenodd" clip-rule="evenodd" d="M19.6296 11.9294H21.428C21.6577 11.9266 21.8453 12.1114 21.8453 12.3411C21.8453 12.5708 21.6577 12.7557 21.428 12.7557H19.2179C18.9154 13.3131 18.5876 13.8733 18.2235 14.4364C17.1534 16.0806 16.2991 17.145 14.8481 18.6324C14.8425 18.638 14.8369 18.6443 14.8313 18.6506C14.8257 18.657 14.8201 18.6633 14.8145 18.6689C14.6717 18.8145 14.1731 19.3131 13.7501 19.6156C13.3859 19.8761 12.977 20.061 12.5652 20.145C12.4476 20.1731 12.3215 20.1899 12.1927 20.1983H12.1843L12.1759 20.2011C12.1423 20.2039 12.1059 20.2039 12.0639 20.2039H12.0638H12.0302L11.921 20.2011L11.9126 20.1983H11.9041C11.7753 20.1899 11.6492 20.1731 11.5316 20.145C11.1226 20.0582 10.7109 19.8761 10.3467 19.6156C9.92376 19.3131 9.42516 18.8145 9.2823 18.6689C7.81171 17.1647 6.94897 16.0946 5.87334 14.4364C5.48958 13.8453 5.15065 13.2571 4.83692 12.6717H2.57362C2.34393 12.6717 2.15625 12.4868 2.15625 12.2571C2.15905 12.0274 2.34393 11.8425 2.57362 11.8425H4.42236C3.84533 10.6464 3.39995 9.46157 3.11984 8.30471C2.60163 6.14224 3.0302 4.34392 4.32432 3.24308C5.07782 2.60163 6.10303 2.22068 7.20947 2.16465C7.30751 2.15905 7.40555 2.15625 7.50359 2.15625C8.57922 2.15625 9.68006 2.45317 10.7081 3.01619C11.1114 3.23748 11.5148 3.46717 11.9098 3.70807C11.9518 3.73048 12.0022 3.74168 12.0498 3.74168C12.0974 3.74168 12.145 3.73048 12.1871 3.70807C12.5848 3.47278 12.9854 3.24308 13.3915 3.019C14.4168 2.45317 15.5176 2.15905 16.5932 2.15905C16.6913 2.15905 16.7921 2.16185 16.8901 2.16745C17.9994 2.22348 19.0246 2.60723 19.7753 3.24589C21.0694 4.34673 21.4952 6.14505 20.977 8.30751C20.6913 9.48958 20.2291 10.7025 19.6296 11.9294ZM3.93216 8.11423C3.48958 6.2683 3.82012 4.76129 4.86773 3.87054C5.48118 3.34953 6.32712 3.0358 7.25429 2.98818C7.33832 2.98538 7.42236 2.98258 7.50639 2.98258C8.43636 2.98258 9.40555 3.24589 10.3047 3.73888C10.6801 3.94617 11.0638 4.16465 11.5008 4.42236C11.6661 4.51479 11.8565 4.56521 12.0526 4.56521C12.2403 4.56521 12.4252 4.5204 12.6156 4.41675C13.0078 4.18426 13.3999 3.96017 13.7977 3.74168C14.6969 3.24869 15.6633 2.98538 16.596 2.98538C16.6801 2.98538 16.7641 2.98818 16.8481 2.99098C17.7725 3.0386 18.6212 3.35233 19.2319 3.87334C20.2767 4.76129 20.61 6.26829 20.1675 8.11703C19.8677 9.35793 19.3663 10.638 18.7025 11.9322H16.2795L14.9574 8.19547C14.9013 8.0218 14.7361 7.90695 14.554 7.91815C14.3747 7.92376 14.2151 8.0414 14.1647 8.21507L13.0638 11.9322H11.8649C11.6829 11.9322 11.5204 12.0498 11.4644 12.2263L10.7921 14.4112L9.033 5.68566C8.99378 5.49799 8.83412 5.36353 8.64364 5.35513C8.46437 5.32432 8.2823 5.46437 8.22628 5.64645L6.2907 11.8481H5.35513C4.71367 10.5792 4.22628 9.32992 3.93216 8.11423ZM17.5232 13.9882C16.484 15.5876 15.6577 16.6156 14.2515 18.0582L14.2431 18.0638L14.2179 18.0946C13.949 18.3691 13.5568 18.7389 13.2683 18.9462C12.9966 19.1394 12.6941 19.2739 12.3775 19.3411C12.3075 19.3579 12.2291 19.3691 12.1506 19.3719H12.1282L12.0358 19.3747L11.9714 19.3719H11.9574C11.8761 19.3663 11.7921 19.3551 11.7109 19.3355C11.3971 19.2655 11.1002 19.131 10.8397 18.9406C10.4616 18.6717 9.97978 18.1871 9.88734 18.089C8.45877 16.6268 7.62404 15.5904 6.57922 13.9826C6.30191 13.5512 6.0386 13.1142 5.7893 12.6661H6.59883C6.7809 12.6661 6.94337 12.5484 6.99659 12.3747L8.54 7.43636L10.3019 16.1759C10.3411 16.3691 10.512 16.5092 10.7109 16.5092C10.8929 16.5092 11.0554 16.3915 11.1114 16.2151L12.1759 12.7529H13.3775C13.5624 12.7529 13.7249 12.6324 13.7781 12.456L14.6016 9.67446L15.5932 12.4756C15.652 12.6408 15.8089 12.7529 15.9854 12.7529H18.2655C18.0274 13.1647 17.7893 13.5764 17.5232 13.9882Z" fill="#313235"/>
</svg>
