<svg width="24" height="24" fill="none" xmlns="http://www.w3.org/2000/svg"><path fill-rule="evenodd" clip-rule="evenodd" d="M19.63 11.93h1.798a.412.412 0 0 1 .417.411c0 .23-.187.415-.417.415h-2.21a25.37 25.37 0 0 1-.994 1.68c-1.07 1.645-1.925 2.709-3.376 4.196l-.017.019a.38.38 0 0 1-.016.018c-.143.145-.642.644-1.065.947-.364.26-.773.445-1.185.529a2.242 2.242 0 0 1-.372.053h-.009l-.008.003c-.034.003-.07.003-.112.003h-.034l-.109-.003-.008-.003h-.009a2.242 2.242 0 0 1-.372-.053 3.206 3.206 0 0 1-1.185-.53c-.423-.302-.922-.8-1.065-.946-1.47-1.504-2.333-2.574-3.409-4.233a24.286 24.286 0 0 1-1.036-1.764H2.574a.416.416 0 0 1-.418-.415.418.418 0 0 1 .418-.415h1.848C3.845 10.646 3.4 9.462 3.12 8.305c-.518-2.163-.09-3.961 1.204-5.062.754-.641 1.779-1.022 2.885-1.078.099-.006.197-.009.295-.009 1.075 0 2.176.297 3.204.86.403.221.807.451 1.202.692a.303.303 0 0 0 .277 0 46.17 46.17 0 0 1 1.205-.689c1.025-.566 2.126-.86 3.201-.86.098 0 .2.003.297.008 1.11.056 2.135.44 2.885 1.079 1.294 1.1 1.72 2.9 1.202 5.062-.286 1.182-.748 2.395-1.347 3.621ZM3.932 8.113c-.442-1.846-.112-3.353.936-4.243.613-.521 1.46-.835 2.386-.883.084-.003.168-.005.252-.005.93 0 1.9.263 2.799.756.375.207.759.426 1.196.683a1.132 1.132 0 0 0 1.115-.005c.392-.233.784-.457 1.182-.675.899-.493 1.865-.757 2.798-.757.084 0 .168.003.252.006.925.048 1.773.361 2.384.882 1.045.888 1.378 2.395.936 4.244-.3 1.24-.802 2.521-1.465 3.815h-2.424l-1.322-3.737a.399.399 0 0 0-.403-.277.417.417 0 0 0-.39.297l-1.1 3.717h-1.2a.42.42 0 0 0-.4.294l-.672 2.185-1.759-8.725a.415.415 0 0 0-.39-.33c-.179-.032-.36.108-.417.29l-1.935 6.202h-.936C4.714 10.58 4.226 9.33 3.932 8.114Zm13.591 5.874c-1.039 1.6-1.865 2.628-3.271 4.07l-.009.006-.025.03c-.269.275-.661.645-.95.852a2.398 2.398 0 0 1-.89.395c-.07.017-.149.028-.227.03h-.023l-.092.004-.065-.003h-.014a1.495 1.495 0 0 1-.246-.037 2.341 2.341 0 0 1-.871-.394c-.378-.27-.86-.754-.953-.852-1.428-1.462-2.263-2.499-3.308-4.106a24.1 24.1 0 0 1-.79-1.317h.81a.415.415 0 0 0 .398-.291L8.54 7.436l1.762 8.74c.04.193.21.333.409.333a.42.42 0 0 0 .4-.294l1.065-3.462h1.201c.185 0 .348-.12.401-.297l.824-2.782.991 2.802a.417.417 0 0 0 .392.277h2.28a28.85 28.85 0 0 1-.742 1.235Z" fill="#313235"/></svg>