<svg width="24" height="24" fill="none" xmlns="http://www.w3.org/2000/svg"><path d="m21.84 6.929-.014 10.098c.008.008.117.734-.356 1.305-.325.395-.83.602-1.496.614-.521.008-2.504.01-4.919.01-4.18 0-9.644-.008-11.013-.01h-.32a1.536 1.536 0 0 1-1.034-.435c-.35-.341-.53-.843-.53-1.487V6.937c-.005-.073-.041-.93.483-1.484.269-.286.644-.437 1.078-.437l16.585.005c.524.02 1.494.37 1.536 1.908ZM3.72 5.836c-.208 0-.365.06-.48.177-.174.182-.235.484-.255.703l7.757 4.921.001.002c.075.05 1.057.722 2.158.001l8.095-4.918c-.098-.818-.588-.88-.691-.883L3.719 5.836Zm17.114 11.98c.235-.278.18-.69.177-.72v-.002l.008-9.426-7.678 4.664c-.53.35-1.045.468-1.493.468a2.874 2.874 0 0 1-1.562-.483l-.007-.005-7.3-4.63v9.345c0 .414.096.717.284.902a.755.755 0 0 0 .45.199h.337c2.203.004 14.498.023 15.91 0 .412-.006.706-.112.874-.311Z" fill="#313235"/></svg>