<svg width="24" height="24" viewBox="0 0 24 24" fill="none" xmlns="http://www.w3.org/2000/svg">
<path fill-rule="evenodd" clip-rule="evenodd" d="M21.8396 6.92879L21.8256 17.0268C21.834 17.0352 21.9432 17.7607 21.4698 18.3322C21.1449 18.7271 20.6407 18.9344 19.974 18.9456C19.453 18.954 17.4698 18.9568 15.0552 18.9568C10.8752 18.9568 5.41148 18.9482 4.04239 18.9461C3.84629 18.9458 3.73419 18.9456 3.72191 18.9456C3.33536 18.9372 2.96561 18.7803 2.6883 18.5114C2.33816 18.1697 2.15889 17.6683 2.15889 17.024V6.93719C2.15328 6.86436 2.11687 6.00722 2.64068 5.4526C2.90959 5.16689 3.28494 5.01562 3.71911 5.01562L20.3045 5.02123C20.8284 5.04084 21.7975 5.39098 21.8396 6.92879ZM3.71911 5.83635L20.3045 5.83915C20.4082 5.84196 20.8984 5.90358 20.9964 6.72151L12.9012 11.6403C11.8 12.3605 10.8175 11.6894 10.743 11.6385L10.7415 11.6375L2.98522 6.71591C3.00482 6.49742 3.06645 6.1949 3.24012 6.01282C3.35496 5.89518 3.51183 5.83635 3.71911 5.83635ZM20.834 17.8167C20.6659 18.0156 20.3718 18.1221 19.96 18.1277C18.5482 18.1507 6.25347 18.1316 4.04973 18.1282H4.04966L3.71351 18.1277C3.54544 18.1137 3.38578 18.0436 3.26253 17.9288C3.07485 17.7439 2.97961 17.4414 2.97961 17.0268V7.68229L10.2793 12.3125L10.2858 12.317C10.3658 12.3718 10.9907 12.7999 11.848 12.7999C12.2961 12.7999 12.8115 12.6823 13.341 12.3322L21.0188 7.66829L21.0104 17.0941L21.0107 17.0959C21.0147 17.1269 21.0691 17.5383 20.834 17.8167Z" fill="#313235"/>
</svg>
