<svg width="24" height="24" fill="none" xmlns="http://www.w3.org/2000/svg"><path fill-rule="evenodd" clip-rule="evenodd" d="M11.997 2.156c6.442 0 9.846 3.406 9.846 9.846 0 6.437-3.404 9.84-9.846 9.84-6.437 0-9.84-3.403-9.84-9.84 0-6.44 3.403-9.846 9.84-9.846Zm0 18.866c5.988 0 9.022-3.034 9.022-9.02 0-5.989-3.034-9.022-9.022-9.022-5.986 0-9.02 3.036-9.02 9.022 0 5.986 3.036 9.02 9.02 9.02Zm4.523-4.216a.408.408 0 0 0-.535-.224c-.742.35-1.663.527-2.747.524-2.69 0-4.311-1.101-4.872-3.244h3.883a.412.412 0 0 0 0-.823h-4.05c-.04-.33-.07-.675-.07-1.045 0-.127.01-.245.021-.362.007-.07.013-.139.017-.21h4.087a.412.412 0 0 0 0-.823H8.26c.434-2.46 2.095-3.717 4.98-3.717 1.067 0 1.983.173 2.72.515a.407.407 0 0 0 .513-.188.408.408 0 0 0-.168-.557c-.846-.392-1.877-.591-3.065-.591-3.327 0-5.355 1.6-5.823 4.54H6.198a.412.412 0 0 0 0 .824H7.33c-.011.185-.02.375-.02.572.003.35.023.697.062 1.044H6.198a.412.412 0 0 0 0 .824h1.303c.588 2.664 2.54 4.064 5.74 4.064 1.204 0 2.246-.204 3.095-.605a.41.41 0 0 0 .184-.518Z" fill="#313235"/></svg>