<svg width="24" height="24" fill="none" xmlns="http://www.w3.org/2000/svg"><path d="M8.24 2.15a.58.58 0 0 1 .58.577V8.24a.59.59 0 0 1-.578.58H2.73a.579.579 0 1 1 0-1.157h4.933V2.73c0-.322.257-.58.577-.58Zm.58 13.594a.578.578 0 0 0-.58-.577s-5.51 0-5.51-.003a.58.58 0 1 0 0 1.16h4.93v4.932a.581.581 0 0 0 1.16 0v-5.512Zm13.016.003a.58.58 0 0 0-.58-.58h-5.515c-.32 0-.577.26-.577.58v5.512a.581.581 0 0 0 1.16 0v-4.933h4.932c.32 0 .58-.26.58-.58Zm-6.67-7.505c0 .32.261.577.58.577v.003h5.51a.581.581 0 0 0 0-1.16h-4.932V2.73a.579.579 0 1 0-1.157 0v5.512Z" fill="#313235"/></svg>