<svg width="24" height="24" viewBox="0 0 24 24" fill="none" xmlns="http://www.w3.org/2000/svg">
<path fill-rule="evenodd" clip-rule="evenodd" d="M11.8325 2.19625C11.7653 2.22706 11.7036 2.27189 11.6476 2.32231L5.75011 8.21657C5.52318 8.44629 5.52318 8.81328 5.75011 9.04019C5.97985 9.26711 6.34687 9.26711 6.5738 9.04019L11.4711 4.12925V16.2091C11.4711 16.5285 11.7316 16.789 12.051 16.789C12.3704 16.789 12.631 16.5285 12.631 16.2091V4.12925L17.4358 8.93654C17.6655 9.16346 18.0326 9.16346 18.2595 8.93654C18.4864 8.70682 18.4864 8.33983 18.2595 8.11291L12.4685 2.32231C12.4096 2.27189 12.3424 2.22987 12.2724 2.19625C12.1323 2.13462 11.9726 2.13462 11.8325 2.19625ZM21.84 17.0551C21.84 16.7358 21.5794 16.4752 21.2601 16.4752C20.9407 16.4752 20.6829 16.733 20.6829 17.0551V20.6802H3.30988V17.0551C3.30988 16.7358 3.04932 16.4752 2.72994 16.4752C2.41055 16.4752 2.14999 16.7358 2.14999 17.0551V21.2601C2.14999 21.5795 2.41055 21.84 2.72994 21.84H21.2601C21.5794 21.84 21.84 21.5795 21.84 21.2601V17.0551Z" fill="#313235"/>
</svg>
