<svg width="24" height="24" viewBox="0 0 24 24" fill="none" xmlns="http://www.w3.org/2000/svg">
<path fill-rule="evenodd" clip-rule="evenodd" d="M11.8324 2.19613C11.7652 2.22694 11.7035 2.27177 11.6475 2.32219L5.75002 8.21644C5.52309 8.44616 5.52309 8.81315 5.75002 9.04007C5.97976 9.26699 6.34678 9.26699 6.57371 9.04007L11.471 4.12913V16.209C11.471 16.5284 11.7315 16.7889 12.0509 16.7889C12.3703 16.7889 12.6309 16.5284 12.6309 16.209V4.12913L17.4357 8.93642C17.6654 9.16334 18.0325 9.16334 18.2594 8.93642C18.4863 8.7067 18.4863 8.33971 18.2594 8.11279L12.4684 2.32219C12.4095 2.27177 12.3423 2.22974 12.2723 2.19613C12.1322 2.13449 11.9725 2.13449 11.8324 2.19613ZM21.8399 17.055C21.8399 16.7357 21.5793 16.4751 21.26 16.4751C20.9406 16.4751 20.6828 16.7329 20.6828 17.055V20.6801H3.30979V17.055C3.30979 16.7357 3.04923 16.4751 2.72984 16.4751C2.41046 16.4751 2.1499 16.7357 2.1499 17.055V21.26C2.1499 21.5794 2.41046 21.8399 2.72984 21.8399H21.26C21.5793 21.8399 21.8399 21.5794 21.8399 21.26V17.055Z" fill="#313235"/>
</svg>
