<svg xmlns="http://www.w3.org/2000/svg" width="24" height="24" fill="none"><path fill="#000" d="M21.838 11.997c0-6.706-3.628-9.846-9.846-9.846-6.219 0-9.84 3.14-9.84 9.846s3.621 9.84 9.84 9.84 9.845-3.134 9.845-9.84m-9.846 9.02c-5.986 0-9.02-3.034-9.02-9.02 0-5.989 3.034-9.025 9.02-9.025 5.988 0 9.025 3.036 9.025 9.025 0 5.986-3.037 9.02-9.025 9.02M9.008 10.44c-.327 0-.599-.101-.787-.292-.185-.187-.277-.448-.277-.775 0-.667.398-1.068 1.064-1.068.667 0 1.065.4 1.065 1.068q0 .49-.277.775c-.188.19-.46.292-.788.292m5.185-.292c.188.19.46.292.787.292.328 0 .6-.101.787-.292q.278-.285.278-.775c0-.667-.398-1.068-1.065-1.068s-1.064.4-1.064 1.068q0 .492.277.775"/><path fill="#000" d="M7.1 13.5c0-.22.18-.4.4-.4h9.105a.4.4 0 0 1 0 .8H7.5a.4.4 0 0 1-.4-.4"/></svg>