<svg width="24" height="24" viewBox="0 0 24 24" fill="none" xmlns="http://www.w3.org/2000/svg">
<path fill-rule="evenodd" clip-rule="evenodd" d="M9.50079 3.85933C9.62684 4.41115 9.87894 4.98258 10.2403 5.55681C10.5316 6.01619 10.7613 6.31311 11.1478 6.73048L11.1578 6.74043L11.1578 6.74044L11.1578 6.74047C11.2064 6.78928 11.3296 6.91303 11.4336 6.99098C11.5316 7.06381 11.6408 7.11423 11.7529 7.13944C11.7865 7.14785 11.8201 7.15065 11.8537 7.15345H11.9322C11.9686 7.15065 12.0022 7.14785 12.033 7.13944C12.1422 7.11423 12.2515 7.06381 12.3495 6.99098C12.4525 6.91812 12.5713 6.79794 12.623 6.74564L12.638 6.73048C12.6419 6.72853 12.6445 6.72521 12.6466 6.72243C12.6476 6.72123 12.6484 6.72012 12.6492 6.71927C13.0386 6.31031 13.2711 6.01339 13.5568 5.55681C13.921 4.98258 14.1703 4.40835 14.2991 3.85933C14.4392 3.25989 14.3243 2.76129 13.977 2.45597C13.7753 2.2795 13.5008 2.17306 13.2011 2.15905C13.1731 2.15625 13.1478 2.15625 13.1226 2.15625C12.8313 2.15625 12.5372 2.23748 12.2599 2.39435C12.1562 2.45317 12.0498 2.51479 11.9378 2.58482C11.9266 2.59042 11.9126 2.59322 11.9013 2.59322C11.8916 2.59322 11.8831 2.59049 11.8751 2.58788C11.8717 2.58676 11.8683 2.58566 11.8649 2.58482C11.8354 2.56723 11.8067 2.55 11.7787 2.53316C11.6952 2.48296 11.6176 2.4363 11.54 2.39435C11.2627 2.23748 10.9686 2.15625 10.6801 2.15625C10.652 2.15625 10.6268 2.15625 10.6016 2.15905C10.3047 2.17306 10.0274 2.2795 9.82572 2.45597C9.47558 2.76129 9.36073 3.25989 9.50079 3.85933ZM10.2991 3.66325C10.2683 3.5316 10.2123 3.21507 10.3579 3.08902C10.4196 3.0358 10.526 2.99659 10.6829 2.99098C10.8313 2.99098 10.9938 3.0358 11.1478 3.12264C11.2075 3.156 11.2683 3.19266 11.3358 3.23331C11.3759 3.25751 11.4184 3.28313 11.4644 3.31031C11.5988 3.38594 11.7501 3.42796 11.907 3.42796L12.1675 3.41956L12.3607 3.30191L12.4105 3.2725L12.4105 3.27248C12.5002 3.21946 12.5831 3.17045 12.6661 3.12544C12.8201 3.0358 12.9798 2.99098 13.131 2.99098H13.1675C13.2823 2.99659 13.3887 3.033 13.4532 3.08902C13.596 3.21507 13.5428 3.5316 13.512 3.66325C13.4027 4.11984 13.1899 4.60723 12.8761 5.10303C12.6184 5.51479 12.4224 5.76689 12.0694 6.13944L12.0414 6.16745L12.0386 6.17026L12.0114 6.19607L12.0114 6.19608L12.0114 6.19612C11.9718 6.23385 11.9357 6.26835 11.9013 6.2935C11.8621 6.26269 11.8061 6.20947 11.7473 6.14785C11.3887 5.7697 11.1899 5.51759 10.9294 5.10303C10.6184 4.60723 10.4056 4.11984 10.2991 3.66325ZM5.61563 7.92936C5.2907 8.25149 5.12544 8.76409 5.12544 9.45877C5.12544 10.1506 5.2907 10.6661 5.61283 10.9826C5.92656 11.2907 6.41675 11.4448 7.07222 11.4448C7.72768 11.4448 8.22348 11.2907 8.5372 10.9798C8.86493 10.6605 9.0274 10.1478 9.0274 9.45597C9.0274 8.76129 8.86213 8.24869 8.5372 7.92656C8.22348 7.61563 7.73048 7.45877 7.07222 7.45877C6.41956 7.46157 5.92936 7.61843 5.61563 7.92936ZM5.04421 11.5876C5.51479 12.0526 6.19827 12.2851 7.07222 12.2851C7.94897 12.2851 8.63244 12.0498 9.10583 11.5876C9.59883 11.1058 9.84813 10.3915 9.84813 9.46157C9.84813 8.5316 9.59603 7.81451 9.10583 7.32992C8.63244 6.86493 7.94897 6.62684 7.07222 6.62684C6.19827 6.62684 5.51759 6.86493 5.04421 7.32992C4.55401 7.81451 4.30471 8.5316 4.30471 9.46157C4.30471 10.3915 4.55401 11.1058 5.04421 11.5876ZM15.4588 7.92936C15.1338 8.25149 14.9686 8.76409 14.9686 9.45877C14.9686 10.1506 15.1338 10.6661 15.456 10.9826C15.7697 11.2907 16.2599 11.4448 16.9154 11.4448C17.5708 11.4448 18.0666 11.2907 18.3803 10.9798C18.7081 10.6605 18.8705 10.1478 18.8705 9.45597C18.8705 8.76129 18.7053 8.24869 18.3803 7.92656C18.0666 7.61563 17.5736 7.45877 16.9154 7.45877C16.2627 7.46157 15.7725 7.61843 15.4588 7.92936ZM14.1478 9.45877C14.1478 10.3887 14.3971 11.103 14.8873 11.5848C15.3579 12.0498 16.0414 12.2851 16.9154 12.2823C17.7921 12.2823 18.4756 12.0498 18.949 11.5848C19.442 11.103 19.6913 10.3887 19.6913 9.45877C19.6913 8.5288 19.4392 7.81171 18.949 7.32712C18.4756 6.86213 17.7921 6.62404 16.9154 6.62404C16.0414 6.62404 15.3607 6.86213 14.8873 7.32712C14.3971 7.81171 14.1478 8.5288 14.1478 9.45877ZM12.7781 12.6801C12.9322 12.5288 13.0106 12.2627 13.0106 11.8929C13.0106 11.5204 12.9322 11.2543 12.7781 11.1002C12.6268 10.9518 12.3691 10.8761 12.0162 10.8761C11.6661 10.8761 11.4112 10.9518 11.2599 11.1002C11.1058 11.2543 11.0274 11.5204 11.0274 11.8929C11.0274 12.2627 11.1058 12.5288 11.2599 12.6801C11.4112 12.8285 11.6661 12.9041 12.019 12.9041C12.3691 12.9041 12.624 12.8285 12.7781 12.6801ZM13.3467 10.498C13.0358 10.1927 12.5904 10.0386 12.0162 10.0386C11.4448 10.0386 10.9966 10.1927 10.6885 10.498C10.3691 10.8145 10.2067 11.2851 10.2067 11.8929C10.2067 12.5008 10.3691 12.9686 10.6885 13.2851C10.9994 13.5876 11.4448 13.7417 12.0162 13.7417C12.5904 13.7417 13.0358 13.5876 13.3467 13.2851C13.6717 12.9686 13.8341 12.5008 13.8341 11.8929C13.8341 11.2851 13.6717 10.8145 13.3467 10.498ZM21.0218 20.9406V16.8929C21.0218 16.1675 20.8257 15.5568 20.4532 15.1338C20.0442 14.6689 19.4027 14.4196 18.6072 14.4196H15.2291C14.6997 14.4196 14.2515 14.54 13.8845 14.7473C14.2123 14.8537 14.5008 15.0218 14.7193 15.2711C15.061 15.6577 15.2403 16.1983 15.2403 16.8285V20.9406H21.0218ZM14.4168 16.8313V20.9406H14.4112V20.963H9.61563V16.8313C9.61563 16.5568 9.66605 16.1703 9.90695 15.8957C10.1647 15.6016 10.5652 15.5344 10.8705 15.5288C10.8779 15.5288 10.8853 15.528 10.8923 15.5273L10.8923 15.5273C10.8986 15.5266 10.9045 15.526 10.9098 15.526H13.1226C13.4336 15.526 13.8565 15.5904 14.1254 15.8957C14.3663 16.1703 14.4168 16.5568 14.4168 16.8313ZM8.80051 16.8313C8.80051 16.2011 8.97978 15.6605 9.31871 15.2739C9.5316 15.033 9.80611 14.8621 10.1254 14.7557C9.75569 14.5428 9.29911 14.4224 8.76409 14.4224H5.38594C4.58762 14.4224 3.95177 14.6689 3.5428 15.1338C3.17306 15.5568 2.97978 16.1675 2.97978 16.8957V20.9434H8.80331V16.8313H8.80051ZM21.8425 16.8929C21.8425 15.9294 21.5652 15.1058 21.0414 14.512C20.4756 13.8649 19.6324 13.5232 18.6016 13.5204H15.2235C14.1983 13.5204 13.3551 13.8649 12.7893 14.512C12.774 14.5303 12.7604 14.5511 12.7467 14.5722C12.7352 14.5897 12.7236 14.6075 12.7109 14.624H11.2795C11.2673 14.6082 11.2562 14.5913 11.245 14.5743C11.2304 14.5522 11.2157 14.5298 11.1983 14.5092C10.6324 13.8621 9.7893 13.5204 8.76129 13.5204H5.38314C4.35793 13.5204 3.51479 13.8649 2.94897 14.512C2.43076 15.103 2.15625 15.9294 2.15625 16.8929V21.4924C2.15625 21.6829 2.29631 21.8369 2.46998 21.8369H21.526C21.6997 21.8369 21.8425 21.6829 21.8425 21.4924V16.8929Z" fill="#313235"/>
</svg>
