<svg width="24" height="24" fill="none" xmlns="http://www.w3.org/2000/svg"><path fill-rule="evenodd" clip-rule="evenodd" d="M9.5 3.86c.127.551.379 1.123.74 1.697.292.46.521.756.908 1.173l.01.01c.048.05.172.173.276.251a.85.85 0 0 0 .319.148c.034.009.067.012.1.014h.08a.546.546 0 0 0 .1-.014.86.86 0 0 0 .317-.148c.103-.073.221-.193.273-.245l.015-.016a.025.025 0 0 0 .009-.008l.002-.003c.39-.409.622-.706.908-1.162.364-.574.613-1.149.742-1.698.14-.6.025-1.098-.322-1.403a1.266 1.266 0 0 0-.776-.297c-.028-.003-.053-.003-.078-.003-.292 0-.586.081-.863.238a8.6 8.6 0 0 0-.322.19.086.086 0 0 1-.037.01.083.083 0 0 1-.026-.006.141.141 0 0 0-.01-.003l-.086-.052c-.084-.05-.161-.097-.239-.139a1.75 1.75 0 0 0-.86-.238c-.028 0-.053 0-.078.003-.297.014-.575.12-.776.297-.35.305-.465.804-.325 1.403Zm.8-.197c-.032-.131-.088-.448.058-.574.062-.053.168-.092.325-.098.148 0 .31.045.465.132.06.033.12.07.188.11l.128.077a.901.901 0 0 0 .443.118l.26-.008.194-.118.05-.03c.09-.053.172-.102.255-.147a.93.93 0 0 1 .465-.134h.037a.484.484 0 0 1 .285.098c.143.126.09.443.059.574a4.84 4.84 0 0 1-.636 1.44 5.808 5.808 0 0 1-.807 1.036l-.028.028-.002.003-.028.026c-.04.038-.075.072-.11.098a1.655 1.655 0 0 1-.154-.146 5.904 5.904 0 0 1-.818-1.045c-.31-.496-.523-.983-.63-1.44ZM5.615 7.93c-.325.322-.49.835-.49 1.53 0 .692.165 1.207.487 1.524.314.308.804.462 1.46.462.655 0 1.15-.154 1.464-.465.328-.32.49-.832.49-1.524 0-.695-.165-1.207-.49-1.53-.314-.31-.807-.467-1.465-.467-.652.003-1.143.16-1.456.47Zm-.572 3.659c.47.465 1.154.697 2.028.697.877 0 1.56-.235 2.034-.697.493-.482.742-1.196.742-2.126 0-.93-.252-1.647-.742-2.132-.474-.465-1.157-.703-2.034-.703-.874 0-1.554.238-2.028.703-.49.485-.74 1.202-.74 2.132 0 .93.25 1.644.74 2.126ZM15.46 7.929c-.325.322-.49.835-.49 1.53 0 .692.165 1.207.487 1.524.314.308.804.462 1.46.462.655 0 1.15-.154 1.464-.465.328-.32.49-.832.49-1.524 0-.695-.165-1.207-.49-1.53-.313-.31-.806-.467-1.465-.467-.652.003-1.142.16-1.456.47Zm-1.311 1.53c0 .93.25 1.644.74 2.126.47.465 1.153.7 2.027.697.877 0 1.56-.232 2.034-.697.493-.482.742-1.196.742-2.126 0-.93-.252-1.647-.742-2.132-.473-.465-1.157-.703-2.034-.703-.874 0-1.554.238-2.028.703-.49.485-.74 1.202-.74 2.132Zm-1.37 3.221c.154-.151.233-.417.233-.787 0-.373-.079-.639-.233-.793-.151-.148-.409-.224-.762-.224-.35 0-.605.076-.756.224-.154.154-.233.42-.233.793 0 .37.079.636.233.787.151.149.406.224.759.224.35 0 .605-.075.76-.224Zm.569-2.182c-.311-.305-.757-.46-1.33-.46-.572 0-1.02.155-1.329.46-.319.317-.481.787-.481 1.395s.162 1.076.481 1.392c.311.303.757.457 1.328.457.574 0 1.02-.154 1.33-.457.326-.316.488-.784.488-1.392 0-.608-.162-1.079-.487-1.395Zm7.675 10.443v-4.048c0-.726-.196-1.336-.569-1.76-.409-.464-1.05-.713-1.846-.713H15.23c-.53 0-.977.12-1.345.327.328.107.617.275.835.524.342.387.521.927.521 1.557v4.113h5.782Zm-6.605-4.11v4.11h-.006v.022H9.616v-4.132c0-.274.05-.66.291-.935.258-.294.658-.362.963-.367l.022-.002a.164.164 0 0 1 .018-.001h2.213c.31 0 .734.064 1.002.37.241.274.292.66.292.935Zm-5.616 0c0-.63.179-1.17.518-1.557.213-.241.487-.412.806-.518-.37-.213-.826-.334-1.36-.334h-3.38c-.797 0-1.433.247-1.842.712-.37.423-.563 1.034-.563 1.762v4.047h5.823v-4.112h-.002Zm13.042.062c0-.964-.278-1.787-.802-2.381-.565-.647-1.409-.989-2.44-.992h-3.377c-1.026 0-1.869.345-2.435.992a.62.62 0 0 0-.042.06c-.012.018-.023.036-.036.052H11.28c-.013-.016-.024-.033-.035-.05-.015-.022-.03-.044-.047-.065-.566-.647-1.409-.989-2.437-.989H5.383c-1.025 0-1.868.345-2.434.992-.518.591-.793 1.417-.793 2.38v4.6c0 .19.14.345.314.345h19.056c.174 0 .317-.154.317-.345v-4.6Z" fill="#313235"/></svg>