<svg xmlns="http://www.w3.org/2000/svg" width="24" height="24" fill="none"><path fill="#000" d="M2.151 11.997c0-6.442 3.406-9.846 9.846-9.846 6.437 0 9.84 3.404 9.84 9.846 0 6.437-3.403 9.84-9.84 9.84-6.442 0-9.846-3.403-9.846-9.84m.824 0c0 5.983 3.036 9.017 9.022 9.017 5.983 0 9.017-3.034 9.017-9.017 0-5.989-3.034-9.022-9.017-9.022-5.989 0-9.022 3.033-9.022 9.022m10.431 1.983 3.84-2.285-3.84-2.308zm-.823-5.322a.4.4 0 0 1 .207-.358.42.42 0 0 1 .417.005l5.054 3.04a.41.41 0 0 1 0 .705l-5.056 3.012a.43.43 0 0 1-.21.056h-.003a.41.41 0 0 1-.41-.412zm-5.224 5.328 3.84-2.286-3.84-2.308zm-.824-5.322a.413.413 0 0 1 .625-.353l5.053 3.04a.41.41 0 0 1 0 .705l-5.056 3.011a.43.43 0 0 1-.21.056h-.003a.41.41 0 0 1-.409-.412z"/></svg>