<svg width="24" height="24" viewBox="0 0 24 24" fill="none" xmlns="http://www.w3.org/2000/svg">
<path fill-rule="evenodd" clip-rule="evenodd" d="M21.8089 7.91255C21.8285 7.96297 21.8425 8.01899 21.8425 8.07502V20.638C21.8425 21.2907 21.2795 21.8425 20.6128 21.8425H8.17586C7.5204 21.8425 6.94336 21.2795 6.94336 20.638L6.97978 17.6016H4.42236C3.17306 17.6016 2.15625 16.5848 2.15625 15.3327V11.1534C2.15625 9.90135 3.17306 8.88454 4.42236 8.88454H6.94336V3.36073C6.94336 2.73048 7.5288 2.15625 8.17586 2.15625H15.7473C15.9294 2.15625 16.1002 2.22628 16.2319 2.35233L21.6408 7.58762C21.7277 7.67446 21.7781 7.7893 21.8089 7.91255ZM21.0162 20.638V8.75849H18.4504C17.47 8.75849 16.624 8.44196 16.0078 7.84252C15.3859 7.24308 15.0554 6.41675 15.0554 5.45877V2.98538H8.17306C7.98818 2.98538 7.76689 3.18986 7.76689 3.36353V8.88454H14.4728C15.7221 8.88454 16.7389 9.90135 16.7389 11.1534V15.3327C16.7389 16.5848 15.7221 17.6016 14.4728 17.6016H7.80611L7.7697 20.6436C7.7697 20.8257 7.97418 21.0162 8.17586 21.0162H20.6128C20.8201 21.0162 21.0162 20.8313 21.0162 20.638ZM4.42236 16.7725H14.4756C15.2683 16.7725 15.9154 16.1254 15.9154 15.3299V11.1506C15.9154 10.3551 15.2711 9.70807 14.4756 9.70807H4.42236C3.62964 9.70807 2.98258 10.3551 2.98258 11.1506V15.3299C2.98258 16.1254 3.62684 16.7725 4.42236 16.7725ZM15.8817 5.45597V3.16465L20.8005 7.92936H18.4504C17.6913 7.92936 17.0442 7.69126 16.582 7.24589C16.1226 6.80331 15.8817 6.18426 15.8817 5.45597ZM9.17866 11.3215H8.22348L6.94617 15.1254H7.7753L8.06942 14.1703H9.30471L9.62124 15.1254H10.5512L9.17866 11.3215ZM8.68006 12.2711L9.09743 13.54H8.2739L8.66886 12.2711H8.68006ZM11.005 11.3215H11.8733V15.1254H11.005V11.3215Z" fill="#313235"/>
</svg>
