<svg width="24" height="24" viewBox="0 0 24 24" fill="none" xmlns="http://www.w3.org/2000/svg">
<path fill-rule="evenodd" clip-rule="evenodd" d="M21.8061 7.90975C21.8285 7.96017 21.8397 8.01339 21.8397 8.07222V20.6352C21.8397 21.2879 21.2767 21.8397 20.61 21.8397H8.17306C7.51759 21.8397 6.94336 21.2767 6.94336 20.6352L6.97978 17.5988H4.42236C3.17306 17.5988 2.15625 16.582 2.15625 15.3299V11.1506C2.15625 9.89855 3.17306 8.88174 4.42236 8.88174H6.94336V3.36073C6.94336 2.73048 7.5288 2.15625 8.17306 2.15625H15.7417C15.9238 2.15625 16.1002 2.22908 16.2263 2.35513L21.6324 7.58762C21.7221 7.67446 21.7753 7.7893 21.8061 7.90975ZM20.61 21.0162C20.8173 21.0162 21.0162 20.8313 21.0162 20.638V8.75849H18.4476C17.4672 8.75849 16.6212 8.44196 16.005 7.84252C15.3831 7.24308 15.0526 6.41675 15.0526 5.45877V2.98818H8.17026C7.98538 2.98818 7.76409 3.19266 7.76409 3.36633V8.88734H14.4672C15.7165 8.88734 16.7333 9.90415 16.7333 11.1562V15.3355C16.7333 16.5876 15.7165 17.6044 14.4672 17.6044H7.80051L7.76409 20.6464C7.76409 20.8285 7.96857 21.019 8.17026 21.019H20.61V21.0162ZM2.97978 15.3299C2.97978 16.1254 3.62404 16.7725 4.41956 16.7725H14.47C15.2627 16.7725 15.9098 16.1254 15.9098 15.3299V11.1506C15.9098 10.3551 15.2655 9.70807 14.47 9.70807H4.41956C3.62684 9.70807 2.97978 10.3551 2.97978 11.1506V15.3299ZM15.8789 3.16745L20.7977 7.92936H18.4476C17.6857 7.92936 17.0386 7.69126 16.5792 7.24589C16.1198 6.80331 15.8789 6.18426 15.8789 5.45597V3.16745ZM4.92096 13.2179C4.92096 13.8537 5.05541 14.3299 5.36633 14.6633C5.64084 14.9518 6.04701 15.1058 6.69687 15.1058C6.99659 15.1058 7.39995 15.0582 7.61843 14.9938L7.5316 14.3831C7.31591 14.4252 7.033 14.4588 6.85653 14.4588C6.44477 14.4588 6.21227 14.3775 6.05261 14.1955C5.87054 13.9938 5.7893 13.6296 5.7893 13.1955C5.7893 12.4672 5.97138 11.949 6.75849 11.949C6.98818 11.949 7.26269 11.9966 7.54561 12.0778L7.65205 11.4672C7.41675 11.3719 7.01059 11.3019 6.69407 11.3019C5.43916 11.3019 4.92096 12.0722 4.92096 13.2179ZM8.22908 14.2823L8.10023 14.9182C8.46998 15.047 8.84813 15.1058 9.31311 15.1114C9.83692 15.1114 10.1843 15.005 10.442 14.7641C10.6352 14.582 10.7473 14.3215 10.7473 13.9938C10.7473 13.1556 10.1067 12.9773 9.5757 12.8295C9.19986 12.7249 8.87894 12.6355 8.87894 12.3383C8.87894 12.1058 9.0218 11.9462 9.47278 11.9462C9.73048 11.9462 10.0526 11.9938 10.3523 12.075L10.4812 11.4532C10.1983 11.3551 9.81171 11.3019 9.45877 11.3019C8.67726 11.3019 8.09463 11.6268 8.09463 12.3719C8.09463 13.2237 8.74848 13.3971 9.28257 13.5387C9.65131 13.6365 9.96297 13.7191 9.96297 13.9994C9.96297 14.3355 9.73328 14.4644 9.24028 14.4644C8.97418 14.4644 8.55121 14.3943 8.22908 14.2823ZM11.2599 14.9182L11.3887 14.2823C11.7109 14.3943 12.1338 14.4644 12.3999 14.4644C12.8929 14.4644 13.1226 14.3355 13.1226 13.9994C13.1226 13.7191 12.811 13.6365 12.4422 13.5387C11.9081 13.3971 11.2543 13.2237 11.2543 12.3719C11.2543 11.6268 11.8369 11.3019 12.6184 11.3019C12.9714 11.3019 13.3579 11.3551 13.6408 11.4532L13.512 12.075C13.2123 11.9938 12.8901 11.9462 12.6324 11.9462C12.1815 11.9462 12.0386 12.1058 12.0386 12.3383C12.0386 12.6355 12.3595 12.7249 12.7354 12.8295C13.2664 12.9773 13.9069 13.1556 13.9069 13.9938C13.9069 14.3215 13.7949 14.582 13.6016 14.7641C13.3439 15.005 12.9966 15.1114 12.4728 15.1114C12.0106 15.1058 11.6296 15.047 11.2599 14.9182Z" fill="#313235"/>
</svg>
