<svg width="24" height="24" fill="none" xmlns="http://www.w3.org/2000/svg"><path d="M21.83 13.19a.136.136 0 0 0-.002.02.604.604 0 0 0 .015.075v7.3c0 .694-.564 1.258-1.253 1.258H3.411a1.257 1.257 0 0 1-1.255-1.258v-7.3c0-.023.003-.047.006-.07a.843.843 0 0 0 .005-.047.229.229 0 0 0-.002-.029c-.002-.016-.004-.031 0-.047l1.638-9.748c-.005-.625.558-1.188 1.247-1.188l13.899.017c.655 0 1.204.499 1.336 1.216l1.53 9.647v.011l.016.115c.002.01 0 .019 0 .028ZM4.613 3.411l-1.448 8.65c.078-.017.157-.025.24-.025h6.32c.224 0 .409.185.409.412v.887c0 .97.79 1.76 1.762 1.76h.196c.972 0 1.762-.79 1.762-1.76v-.887c0-.23.182-.412.409-.412h6.316c.065 0 .126.014.186.028l.06.014-1.355-8.552c-.053-.308-.274-.532-.527-.532L5.044 2.977a.434.434 0 0 0-.431.434Zm16.403 17.174h.003v-7.3a.29.29 0 0 0-.005-.049.549.549 0 0 1-.003-.02l-.006-.034a.429.429 0 0 0-.42-.325h-5.91v.476c0 1.423-1.16 2.58-2.583 2.58h-.196a2.582 2.582 0 0 1-2.58-2.58v-.476h-5.91a.437.437 0 0 0-.435.428v7.3a.44.44 0 0 0 .435.437h17.176c.24 0 .434-.196.434-.437Z" fill="#313235"/></svg>