<svg width="24" height="24" fill="none" xmlns="http://www.w3.org/2000/svg"><path d="M19.237 7.756a.39.39 0 0 1 .03.163v12.563c0 .652-.557 1.204-1.22 1.204H5.72c-.65 0-1.221-.563-1.221-1.204V3.204C4.5 2.574 5.083 2 5.721 2h7.502c.179 0 .353.07.479.193L19.06 7.43c.096.09.146.204.177.327Zm-.787 12.726V8.602h-2.544c-.972 0-1.81-.316-2.42-.916-.616-.602-.944-1.428-.944-2.383V2.829H5.724c-.182 0-.4.205-.4.378v17.275c0 .188.201.378.4.378H18.05c.207 0 .4-.185.4-.378ZM13.36 3.008V5.3c0 .728.24 1.347.695 1.79.456.445 1.098.683 1.851.683h2.33L13.36 3.008Zm2.386 9.813h-1.109l.448-1.3.661 1.3Zm-1.395.829h1.261L13.2 16.997l1.152-3.347Zm-6.187 0h1.3l1.165 3.39-2.465-3.39Zm1.734-1.258-.518-1.504h1.705l-1.187 1.504Zm4.017.006-1.205-1.51h1.726l-.521 1.51Zm-3.309.423 1.289-1.633L13.2 12.82h-2.594Zm-.277.829h3.157l-1.58 4.585-1.577-4.585Zm-1.605-2.143.454 1.314H8.035l.69-1.314Zm8.1 1.728a.412.412 0 0 0-.041-.179c0-.003 0-.008-.003-.008l-1.406-2.762c-.001-.003-.004-.005-.006-.007a.027.027 0 0 1-.005-.007.346.346 0 0 0-.118-.13.245.245 0 0 0-.05-.03.175.175 0 0 1-.02-.013c-.01-.008-.019-.014-.03-.018a.332.332 0 0 0-.083-.012l-.021-.002c-.006 0-.01-.002-.016-.004a.039.039 0 0 0-.015-.004H8.803c-.006 0-.011.002-.016.004-.005.002-.01.004-.015.004a.71.71 0 0 1-.022.002.33.33 0 0 0-.082.012.092.092 0 0 0-.03.016c-.005.005-.01.009-.018.012a.222.222 0 0 0-.039.024l-.011.007a.4.4 0 0 0-.122.132l-.007.008-1.448 2.762-.001.005-.002.006a.448.448 0 0 0-.043.19l.001.01c0 .01.003.019.005.028l.004.013c.008.059.025.11.056.157l.005.014c.002.005.003.01.006.014l4.552 6.258c.01.017.027.028.043.04a.355.355 0 0 1 .024.018l.016.015a.386.386 0 0 0 .247.098c.079 0 .149-.031.213-.07.02-.015.034-.029.05-.045l.024-.019c.016-.012.033-.023.044-.04l4.51-6.258c.004-.005.005-.01.007-.016 0-.004.001-.008.004-.012a.394.394 0 0 0 .059-.164c.002-.01.005-.02.005-.032 0-.003 0-.006.002-.008v-.009Z" fill="#313235"/></svg>