<svg width="24" height="24" viewBox="0 0 24 24" fill="none" xmlns="http://www.w3.org/2000/svg">
<path fill-rule="evenodd" clip-rule="evenodd" d="M21.8061 7.91255C21.8257 7.96297 21.8397 8.01619 21.8397 8.07502V20.638C21.8397 21.2907 21.2767 21.8425 20.61 21.8425H8.17306C7.51759 21.8425 6.94336 21.2795 6.94336 20.638L6.97978 17.6016H4.42236C3.17306 17.6016 2.15625 16.5848 2.15625 15.3327V11.1534C2.15625 9.90135 3.17306 8.88454 4.42236 8.88454H6.94336V3.36073C6.94336 2.73048 7.5288 2.15625 8.17306 2.15625H15.7445C15.9238 2.15625 16.0946 2.22628 16.2263 2.34953L21.6352 7.58762C21.7249 7.67446 21.7753 7.7893 21.8061 7.91255ZM21.0134 20.638V8.75849H18.4476C17.4672 8.75849 16.6212 8.44196 16.005 7.84252C15.3831 7.24308 15.0526 6.41675 15.0526 5.45877V2.98538H8.17026C7.98538 2.98538 7.76409 3.18986 7.76409 3.36353V8.88454H14.47C15.7193 8.88454 16.7361 9.90135 16.7361 11.1534V15.3327C16.7361 16.5848 15.7193 17.6016 14.47 17.6016H7.80331L7.76689 20.6436C7.76689 20.8257 7.97138 21.0162 8.17306 21.0162H20.61C20.8173 21.0162 21.0134 20.8313 21.0134 20.638ZM4.41956 16.7725H14.4728C15.2655 16.7725 15.9126 16.1254 15.9126 15.3299V11.1506C15.9126 10.3551 15.2683 9.70807 14.4728 9.70807H4.41956C3.62684 9.70807 2.97978 10.3551 2.97978 11.1506V15.3299C2.97978 16.1254 3.62404 16.7725 4.41956 16.7725ZM15.8789 5.45597V3.16465L20.7977 7.92936H18.4476C17.6885 7.92936 17.0414 7.69126 16.5792 7.24589C16.1198 6.80331 15.8789 6.18426 15.8789 5.45597ZM3.60723 11.7081H4.31311V12.9686H5.40275V11.7081H6.10863V14.8033H5.40275V13.5008H4.31311V14.8033H3.60723V11.7081ZM7.46717 12.2179H6.50919V11.7081H9.16465L9.11143 12.2179H8.17586V14.8005H7.46998V12.2179H7.46717ZM10.089 11.7081H9.5316V14.8033H10.1254V13.0022L10.7865 14.0974H11.3299L11.9714 13.0218V14.8033H12.6184V11.7081H12.075L11.0666 13.4364L10.089 11.7081ZM13.2879 11.7081H13.9938V14.2907H15.3635V14.8033H13.2879V11.7081Z" fill="#313235"/>
</svg>
