<svg width="24" height="24" fill="none" xmlns="http://www.w3.org/2000/svg"><path d="m7.89 15.019.129-.644c.325.115.75.185 1.022.185.499 0 .732-.13.732-.471 0-.282-.315-.366-.688-.465-.54-.143-1.2-.319-1.2-1.18 0-.75.59-1.08 1.378-1.08.358 0 .748.053 1.033.15l-.128.628a3.618 3.618 0 0 0-.888-.129c-.454 0-.6.163-.6.395 0 .301.325.392.705.497.536.15 1.183.33 1.183 1.176 0 .33-.115.594-.308.778-.26.244-.61.353-1.143.353a3.628 3.628 0 0 1-1.227-.193Z" fill="#313235"/><path fill-rule="evenodd" clip-rule="evenodd" d="M5.946 11.434H4.674v3.703h.844v-1.278h.593c.488 0 .824-.114 1.04-.358.185-.207.277-.504.277-.9 0-.394-.098-.68-.297-.865-.238-.221-.605-.302-1.185-.302Zm.482 1.65c-.11.1-.221.14-.493.14v.002h-.417v-1.179h.397c.258 0 .415.036.519.129.098.09.14.238.14.437 0 .216-.048.372-.146.47ZM12.358 11.434h-1.143v3.703h1.255c.661 0 1.087-.138 1.364-.418.303-.313.448-.778.448-1.45 0-.667-.151-1.127-.448-1.418-.308-.308-.773-.417-1.476-.417Zm.062 3.084c.378 0 .65-.115.795-.33.146-.217.196-.466.196-.92 0-.53-.081-.778-.26-.975-.168-.179-.418-.243-.83-.243h-.26v2.468h.359Z" fill="#313235"/><path fill-rule="evenodd" clip-rule="evenodd" d="M21.809 7.907c.022.05.034.104.034.162v12.563c0 .653-.564 1.205-1.23 1.205H8.176c-.656 0-1.233-.563-1.233-1.205l.037-3.036H4.422a2.27 2.27 0 0 1-2.266-2.269v-4.18A2.27 2.27 0 0 1 4.422 8.88h2.521V3.36c0-.63.586-1.205 1.233-1.205h7.571c.18 0 .35.07.482.194l5.409 5.235c.09.087.143.199.17.322ZM20.613 21.01c.207 0 .406-.185.406-.379V8.75h-2.566c-.98 0-1.826-.316-2.442-.913-.622-.602-.953-1.429-.953-2.384V2.98H8.173c-.185 0-.406.204-.406.378v5.518h6.706a2.27 2.27 0 0 1 2.266 2.269v4.18a2.27 2.27 0 0 1-2.266 2.268H7.806l-.036 3.042c0 .182.204.373.406.373h12.437v.003Zm-17.63-5.687c0 .796.644 1.443 1.44 1.443h10.053c.792 0 1.44-.647 1.44-1.443v-4.179c0-.795-.645-1.443-1.44-1.443H4.422c-.792 0-1.44.648-1.44 1.443v4.18ZM15.882 3.16 20.8 7.921h-2.35c-.761 0-1.406-.235-1.868-.68-.46-.443-.7-1.062-.7-1.79V3.158Z" fill="#313235"/></svg>