<svg width="24" height="24" viewBox="0 0 24 24" fill="none" xmlns="http://www.w3.org/2000/svg">
<path fill-rule="evenodd" clip-rule="evenodd" d="M19.3617 7.91255C19.3841 7.96297 19.3925 8.01619 19.3925 8.07502V20.638C19.3925 21.2907 18.8351 21.8425 18.1712 21.8425H5.84629C5.19643 21.8425 4.625 21.2795 4.625 20.638V3.36073C4.625 2.73048 5.20763 2.15625 5.84629 2.15625H13.3477C13.527 2.15625 13.695 2.22628 13.8239 2.34953L19.1852 7.58482C19.2805 7.67726 19.3309 7.7921 19.3617 7.91255ZM18.5746 20.638C18.5746 20.8313 18.3813 21.0162 18.174 21.0162H5.84909C5.65021 21.0162 5.44853 20.8257 5.44853 20.638V3.36353C5.44853 3.18986 5.66702 2.98538 5.84909 2.98538H12.667V5.45597C12.667 6.41115 12.9919 7.23748 13.6082 7.83972C14.2216 8.43916 15.0592 8.75569 16.0312 8.75569H18.5746V20.638ZM13.4849 3.16465L18.3617 7.92656H16.0284C15.2749 7.92656 14.6334 7.68846 14.1768 7.24308C13.723 6.80051 13.4849 6.18146 13.4849 5.45317V3.16465ZM16.4709 18.7361C16.4569 18.7585 16.4009 18.7949 16.3477 18.7949H7.67822C7.65326 18.7949 7.63027 18.789 7.61161 18.7842C7.59887 18.7809 7.58814 18.7781 7.58018 18.7781C7.57178 18.7781 7.56618 18.7809 7.56618 18.7921V10.8313C7.58578 10.8145 7.625 10.7921 7.67542 10.7921H16.3505C16.3699 10.7921 16.3901 10.7975 16.4078 10.8022C16.4361 10.8098 16.458 10.8156 16.4597 10.7949L16.4709 18.7361ZM16.3477 9.96297C16.8435 9.96297 17.2777 10.3523 17.2777 10.7949V18.7921C17.2777 19.2347 16.8435 19.624 16.3477 19.624H7.67542C7.17122 19.624 6.74545 19.2431 6.74545 18.7921V10.7949C6.74545 10.3439 7.17122 9.96297 7.67262 9.96297H16.3477ZM9.03116 13.2375C9.03116 12.9938 9.22724 12.7977 9.46534 12.7977C9.70623 12.7977 9.90231 12.9938 9.89951 13.2375C9.89951 13.4784 9.70623 13.6773 9.46534 13.6773C9.22724 13.6773 9.03116 13.4784 9.03116 13.2375ZM9.46534 14.5036C8.77346 14.5036 8.21324 13.935 8.21324 13.2375C8.21324 12.54 8.77626 11.9714 9.46534 11.9714C10.1572 11.9714 10.7202 12.54 10.7202 13.2375C10.7202 13.935 10.1572 14.5036 9.46534 14.5036ZM16.048 15.0414L14.3785 13.7501C14.23 13.638 14.0228 13.638 13.8715 13.7557L12.0228 15.2403L11.6194 14.8565C11.4681 14.7137 11.2356 14.7053 11.076 14.8397L8.35889 17.1254C8.18522 17.2711 8.16282 17.5316 8.30567 17.7081C8.3869 17.8061 8.50455 17.8565 8.6222 17.8565C8.71464 17.8565 8.80987 17.8257 8.8855 17.7613L11.3225 15.7109L13.0003 17.3075C13.1656 17.4616 13.4233 17.456 13.5802 17.2879C13.737 17.1198 13.7286 16.8593 13.5634 16.7025L12.625 15.8117L14.132 14.6016L15.5494 15.6969C15.7286 15.8369 15.9863 15.8033 16.1236 15.6212C16.2609 15.4392 16.2272 15.1815 16.048 15.0414Z" fill="#313235"/>
</svg>
