<svg width="24" height="24" viewBox="0 0 24 24" fill="none" xmlns="http://www.w3.org/2000/svg">
<path fill-rule="evenodd" clip-rule="evenodd" d="M5.31651 2.15625L20.6358 2.15905C21.2661 2.15905 21.8431 2.82852 21.8403 3.56801V20.1619C21.8403 20.9154 21.2773 21.5736 20.633 21.5736H9.37253C9.3081 21.5736 9.24368 21.5568 9.18766 21.5232C8.96357 21.6044 8.73107 21.6689 8.49298 21.7109C8.10922 21.8005 7.71987 21.8425 7.33051 21.8425C7.3025 21.8425 7.27519 21.8404 7.24788 21.8383C7.22057 21.8362 7.19326 21.8341 7.16525 21.8341C7.15646 21.8341 7.14844 21.8349 7.14079 21.8356C7.1338 21.8363 7.12711 21.8369 7.12043 21.8369C7.09802 21.8369 7.07561 21.8333 7.0532 21.8296C7.03639 21.8269 7.01959 21.8241 7.00278 21.8229C5.50978 21.7305 4.06441 21.033 3.14844 19.8649C1.26329 17.4644 2.33612 13.9546 4.10642 11.8453V3.56801C4.10642 2.82852 4.68345 2.15625 5.31651 2.15625ZM5.31371 2.99098H8.5462V8.32152L4.93555 8.31311V3.56801C4.93555 3.25149 5.18766 2.99098 5.31371 2.99098ZM5.53499 11.582C3.59382 13.1759 1.95236 16.9938 3.7983 19.3495C4.09242 19.7165 4.44536 20.033 4.84592 20.2823C4.60222 19.5624 4.75908 18.7669 5.25768 18.1927C5.38934 18.0442 5.53499 17.9069 5.69466 17.7837C6.63137 17.0506 6.25748 16.0149 6.23108 15.9418L6.22967 15.9378C6.19606 15.8565 6.19046 15.7669 6.21006 15.6829C6.26609 15.4588 6.49018 15.3215 6.71427 15.3747C7.26889 15.5148 7.84032 15.8257 8.31651 16.2431C9.33051 17.1366 10.1232 19.1506 9.2997 20.5792C9.68625 20.3971 10.0448 20.1591 10.3585 19.8705C10.9636 19.3215 11.3221 18.554 11.3529 17.7389C11.3809 16.921 11.0784 16.1282 10.5154 15.5344C10.2829 15.2823 10.0196 15.0526 9.73107 14.8481C7.64704 13.3243 7.66665 11.3271 7.87673 10.2431C7.02519 10.554 6.23528 11.0078 5.53499 11.582ZM12.1849 17.7697C12.1456 18.8089 11.6891 19.7893 10.9187 20.4868C10.827 20.5711 10.7352 20.6423 10.6453 20.7119L10.6106 20.7389H16.3249V15.3579L11.4089 15.3355C11.9328 16.0442 12.2185 16.8873 12.1849 17.7697ZM17.1512 20.7417H20.6358C20.7871 20.7417 21.0168 20.4812 21.014 20.1647V15.3831L17.1512 15.3635V20.7417ZM7.18766 20.9966C7.02519 21.0022 6.85992 20.991 6.69466 20.9518C6.69186 20.9518 6.2941 20.8817 5.93836 20.5288C5.45096 20.0414 5.42575 19.2599 5.87953 18.7417H5.88233C5.97757 18.6296 6.08682 18.5316 6.20166 18.442C6.82631 17.9714 7.18485 17.2235 7.15684 16.4392C7.36973 16.5568 7.57981 16.7025 7.77309 16.8705C8.5602 17.5624 9.26049 19.2879 8.51539 20.3075C8.21567 20.7165 7.74788 20.963 7.23808 20.9966C7.22501 20.9947 7.21444 20.9953 7.20386 20.996H7.20384L7.1942 20.9965L7.18766 20.9966ZM21.014 8.35233V3.56801C21.014 3.25429 20.7619 2.99098 20.633 2.99379H17.1512V8.34392L21.014 8.35233ZM9.37533 8.32432V2.99098L16.3221 2.99379V8.34112L9.37533 8.32432ZM10.6582 14.5204C10.6947 14.5092 10.7339 14.498 10.7787 14.498L12.3893 14.5064V9.16745L4.93275 9.15065V11.0078C4.94536 10.9966 4.95797 10.9847 4.97057 10.9728C4.98318 10.9609 4.99578 10.949 5.00838 10.9378C6.01959 10.1114 7.21567 9.50359 8.38093 9.22628C8.53499 9.18986 8.69466 9.24308 8.7955 9.36633C8.89634 9.48678 8.92155 9.65485 8.85712 9.80051C8.81231 9.90415 7.77309 12.3887 10.2129 14.1703C10.3669 14.2795 10.5154 14.3971 10.6582 14.5204ZM13.2213 14.5092V9.16745L21.014 9.18706V14.5484L13.2213 14.5092Z" fill="#313235"/>
</svg>
