<svg xmlns="http://www.w3.org/2000/svg" width="24" height="24" fill="none"><path fill="#000" d="m5.317 2.151 15.319.003c.63 0 1.207.67 1.204 1.409v16.594c0 .753-.563 1.412-1.207 1.412H9.373a.36.36 0 0 1-.185-.05 4 4 0 0 1-.695.187q-.577.133-1.162.131-.043 0-.083-.004l-.083-.004q-.014 0-.024.002h-.02a.4.4 0 0 1-.068-.006q-.025-.005-.05-.007c-1.493-.093-2.939-.79-3.855-1.958-1.885-2.4-.812-5.91.958-8.02V3.563c0-.74.577-1.412 1.21-1.412m-.003.835c-.126 0-.378.26-.378.577v4.745l3.61.009V2.986zm.221 8.591c-1.941 1.594-3.583 5.412-1.737 7.768.294.367.647.683 1.048.932a2.14 2.14 0 0 1 .412-2.09q.197-.223.437-.408c.936-.733.562-1.77.536-1.842l-.001-.004a.42.42 0 0 1-.02-.255.42.42 0 0 1 .504-.308c.555.14 1.126.45 1.603.868 1.014.894 1.806 2.908.983 4.336a4.2 4.2 0 0 0 1.058-.709 3.03 3.03 0 0 0 .995-2.131 3.05 3.05 0 0 0-.838-2.205 5 5 0 0 0-.784-.686c-2.084-1.524-2.064-3.52-1.854-4.605a8 8 0 0 0-2.342 1.339m6.65 6.188a3.86 3.86 0 0 1-1.54 2.942l-.034.027h5.714v-5.381l-4.916-.022c.524.708.81 1.551.776 2.434m4.966 2.972h3.485c.151 0 .38-.26.378-.577v-4.782l-3.863-.02zm-9.963.255h.006l.01-.001h.034c.51-.033.978-.28 1.277-.689.745-1.02.045-2.745-.742-3.436a3.6 3.6 0 0 0-.616-.432 2.4 2.4 0 0 1-.955 2.003 2 2 0 0 0-.32.3H5.88c-.454.518-.429 1.3.058 1.787.356.353.754.423.757.423.165.039.33.05.493.045M21.014 8.347V3.563c0-.314-.252-.577-.381-.574h-3.482v5.35zM9.375 8.32l6.947.017V2.99l-6.947-.003zm1.283 6.196a.4.4 0 0 1 .12-.022l1.611.008V9.162l-7.456-.016v1.857l.038-.035.037-.035c1.012-.827 2.208-1.434 3.373-1.712a.41.41 0 0 1 .415.14c.1.12.126.289.061.434-.045.104-1.084 2.589 1.356 4.37q.23.165.445.35m2.563-.01 7.793.038v-5.36l-7.793-.02z"/></svg>