<svg xmlns="http://www.w3.org/2000/svg" width="24" height="24" fill="none"><path fill="#000" d="M3.433 20.178h17.101a1.269 1.269 0 0 0 1.28-1.26V7.332a1.27 1.27 0 0 0-.378-.896 1.26 1.26 0 0 0-.899-.361h-8.538V5.08a1.27 1.27 0 0 0-.378-.896 1.26 1.26 0 0 0-.9-.361H3.434A1.26 1.26 0 0 0 2.181 5.08v13.84a1.266 1.266 0 0 0 1.252 1.258M3 5.08c0-.24.196-.437.434-.437h7.286c.23.014.409.205.409.437v1.407a.41.41 0 0 0 .409.411h9a.433.433 0 0 1 .431.437v11.586a.437.437 0 0 1-.431.437H3.433A.435.435 0 0 1 3 18.92z"/></svg>