<svg width="24" height="24" viewBox="0 0 24 24" fill="none" xmlns="http://www.w3.org/2000/svg">
<path fill-rule="evenodd" clip-rule="evenodd" d="M3.40835 20.1684H20.5092C20.8453 20.174 21.1703 20.0424 21.4112 19.8043C21.652 19.569 21.7865 19.244 21.7893 18.9079V7.32248C21.7865 6.98634 21.652 6.66141 21.4112 6.42612C21.1703 6.19082 20.8481 6.05917 20.512 6.06477H11.9742V5.07037C11.9714 4.73424 11.8369 4.40931 11.596 4.17402C11.3551 3.93872 11.033 3.80707 10.6969 3.81267H3.40835C2.71928 3.81547 2.16185 4.3757 2.15625 5.07037V18.9107C2.16185 19.6026 2.71928 20.1628 3.40835 20.1684ZM2.97418 5.07037C2.97418 4.82948 3.17026 4.6334 3.40835 4.6334H10.6941C10.9238 4.64741 11.103 4.83788 11.103 5.07037V6.47654C11.103 6.70343 11.2851 6.8883 11.512 6.8883H20.512C20.6268 6.8883 20.7361 6.93592 20.8173 7.01715C20.8985 7.09839 20.9434 7.21043 20.9434 7.32528V18.9107C20.9434 19.0256 20.8985 19.1376 20.8173 19.2188C20.7361 19.3029 20.6268 19.3477 20.512 19.3477H3.40835C3.16745 19.3477 2.97418 19.1516 2.97418 18.9107V5.07037Z" fill="#313235"/>
</svg>
