<svg width="24" height="24" fill="none" xmlns="http://www.w3.org/2000/svg"><path fill-rule="evenodd" clip-rule="evenodd" d="M2.16 8.252c0 .32.26.577.58.577.32 0 .58-.257.58-.577V3.32h4.932a.581.581 0 0 0 0-1.16H2.74c-.32 0-.58.26-.58.58v5.512ZM8.844 21.27c0-.32-.261-.58-.58-.58 0 0-4.944 0-4.947-.002v-4.933a.59.59 0 0 0-.58-.577c-.32 0-.577.26-.577.58v5.512c0 .32.26.577.58.58h5.524c.319 0 .58-.26.58-.58Zm12.423-6.103a.59.59 0 0 1 .576.58v5.523c0 .32-.257.577-.576.577h-5.524a.581.581 0 0 1 0-1.16h4.946v-4.943c0-.32.258-.577.578-.577Zm.58-12.429c0-.32-.261-.577-.58-.577h-5.513a.579.579 0 1 0 0 1.157h4.938v4.958a.576.576 0 1 0 1.154 0V2.737Z" fill="#313235"/></svg>