<svg width="24" height="24" fill="none" xmlns="http://www.w3.org/2000/svg"><path fill-rule="evenodd" clip-rule="evenodd" d="m21.416 10.719-8.272-8.107c-.621-.608-1.672-.608-2.29 0L2.58 10.72c-.409.4-.535.969-.325 1.481.233.566.807.933 1.468.933h.63v7.275c0 .79.704 1.434 1.57 1.434h1.472a.02.02 0 0 0 .007-.002l.007-.001.012.003h9.106c.004 0 .008 0 .011-.002l.011-.001c.005 0 .008.001.012.003l.01.003h1.385c.865 0 1.568-.645 1.568-1.434v-7.278h.745c.662 0 1.239-.367 1.471-.933.21-.512.084-1.078-.325-1.481Zm-.434 1.17c-.081.194-.314.423-.712.423h-1.156a.408.408 0 0 0-.41.41v7.683c0 .339-.335.616-.747.616h-.975v-8.213a.41.41 0 0 0-.41-.409H7.397a.41.41 0 0 0-.408.41v8.212H5.926c-.412 0-.748-.274-.748-.613v-7.684a.41.41 0 0 0-.409-.409H3.724c-.395 0-.63-.23-.708-.423-.05-.117-.096-.355.137-.582l8.274-8.112c.3-.295.846-.295 1.146 0l8.272 8.106c.232.23.187.465.137.585Zm-4.82 3.39H7.804v-2.062h8.356v2.062Zm0 5.74H7.804v-2.051h8.356v2.05Zm-8.357-2.87h8.356V16.1H7.805v2.05Z" fill="#313235"/></svg>