<svg width="24" height="24" viewBox="0 0 24 24" fill="none" xmlns="http://www.w3.org/2000/svg">
<path fill-rule="evenodd" clip-rule="evenodd" d="M17.2608 7.06554H20.5774C21.2412 7.06554 21.8463 7.75462 21.8435 8.51092V11.5081C21.8435 12.2784 21.2496 12.9535 20.5746 12.9535H20.5185V20.4045C20.5185 21.1748 19.9247 21.8499 19.2496 21.8499H4.69222C4.01435 21.8499 3.42051 21.172 3.42051 20.4017V13.0459C3.42051 13.0197 3.42732 12.9969 3.4343 12.9735C3.43628 12.9669 3.43826 12.9603 3.44012 12.9535H3.42891C2.75384 12.9535 2.16 12.2756 2.16 11.5053V8.51092C2.16 7.75462 2.76505 7.06554 3.42891 7.06554H6.68381C6.07597 6.63417 5.67541 6.10476 5.54656 5.51092C5.4065 4.86106 5.57457 4.15518 6.03395 3.4689C6.49334 2.78263 7.08998 2.34565 7.75664 2.2084C8.42331 2.06834 9.1488 2.23641 9.85748 2.68459C10.7875 3.27282 11.5326 4.76582 11.9695 5.87506C12.4093 4.76862 13.1544 3.27282 14.0872 2.68459C14.7959 2.23361 15.5241 2.06834 16.188 2.2084C16.8547 2.34565 17.4513 2.78263 17.9107 3.4689C18.3701 4.15798 18.5382 4.86386 18.3981 5.51092C18.2692 6.10476 17.8715 6.63697 17.2608 7.06554ZM14.555 3.37646C15.076 3.04593 15.5662 2.92548 16.0143 3.02072C16.4625 3.11316 16.8603 3.41568 17.1992 3.92268C17.8799 4.93949 17.6866 5.82464 16.639 6.48851C15.7454 7.05434 13.5494 6.99831 12.5017 6.88347C12.8267 5.88627 13.6642 3.93949 14.555 3.37646ZM7.93311 3.02072C7.48493 3.11316 7.08717 3.41568 6.74824 3.92268C6.4093 4.42969 6.28886 4.90588 6.38409 5.34285C6.47653 5.77422 6.79026 6.16358 7.31126 6.49131C8.20482 7.05434 10.4037 6.99831 11.4485 6.88627C11.1208 5.88907 10.2805 3.93949 9.3925 3.37927C8.98353 3.12156 8.59418 2.99271 8.23003 2.99271C8.12919 2.99271 8.03115 3.00111 7.93311 3.02072ZM3.01435 11.5053V8.51092C3.01435 8.17198 3.29166 7.89187 3.43171 7.89187H11.5241V12.1216H3.42891C3.26645 12.1216 3.01435 11.8555 3.01435 11.5053ZM20.9919 11.5053C20.9919 11.8583 20.7398 12.1244 20.5746 12.1244H12.3729V7.89467H20.5746C20.7146 7.89467 20.9919 8.17478 20.9919 8.51372V11.5053ZM19.6698 20.4017C19.6698 20.7546 19.4177 21.0207 19.2524 21.0207H12.3757V12.9535H19.6698V20.4017ZM4.27765 13.0431V20.3989C4.27485 20.7518 4.52975 21.0179 4.69222 21.0179H11.5241V12.9507H4.25804C4.25989 12.9575 4.26188 12.9641 4.26385 12.9707C4.27084 12.9941 4.27765 13.0169 4.27765 13.0431Z" fill="#313235"/>
</svg>
