<svg width="24" height="24" fill="none" xmlns="http://www.w3.org/2000/svg"><path d="M17.26 7.066h3.317c.664 0 1.27.689 1.266 1.445v2.997c0 .77-.593 1.446-1.268 1.446h-.056v7.45c0 .77-.594 1.446-1.27 1.446H4.693c-.678 0-1.271-.678-1.271-1.448v-7.356c0-.026.006-.05.013-.072a.845.845 0 0 0 .006-.02H3.43c-.675 0-1.269-.678-1.269-1.449V8.511c0-.756.605-1.445 1.269-1.445h3.255c-.608-.432-1.009-.961-1.137-1.555-.14-.65.028-1.356.487-2.042.46-.686 1.056-1.123 1.723-1.26.666-.14 1.392.027 2.1.476.93.588 1.676 2.08 2.113 3.19.44-1.106 1.184-2.602 2.117-3.19.709-.451 1.437-.617 2.101-.477.667.138 1.263.575 1.723 1.26.46.69.627 1.396.487 2.043-.129.594-.526 1.126-1.137 1.555Zm-2.705-3.69c-.89.563-1.728 2.51-2.053 3.507 1.047.115 3.243.171 4.137-.394 1.048-.664 1.24-1.55.56-2.566-.339-.507-.737-.81-1.185-.902-.448-.096-.938.025-1.459.355Zm-6.622-.355c-.448.092-.846.395-1.185.902-.339.507-.46.983-.364 1.42.093.431.406.82.927 1.148.894.563 3.093.507 4.137.395-.327-.997-1.168-2.947-2.056-3.507-.408-.257-.798-.386-1.162-.386-.1 0-.199.008-.297.028Zm-4.919 8.484c0 .35.252.617.415.617h8.095v-4.23H3.432c-.14 0-.418.28-.418.619v2.994Zm17.978 0V8.514c0-.34-.277-.62-.417-.62h-8.202v4.23h8.202c.165 0 .417-.266.417-.619Zm-1.322 8.897v-7.449h-7.294v8.068h6.876c.166 0 .418-.266.418-.62ZM4.278 13.043V20.4c-.003.353.252.619.414.619h6.832V12.95H4.258l.006.02a.246.246 0 0 1 .014.072Z" fill="#313235"/></svg>