<svg xmlns="http://www.w3.org/2000/svg" width="24" height="24" fill="none"><path fill="#0B2739" d="M17.26 7.06h3.317c.664 0 1.27.69 1.266 1.446v2.997c0 .77-.593 1.445-1.268 1.445h-.056V20.4c0 .77-.594 1.446-1.27 1.446H4.693c-.678 0-1.271-.678-1.271-1.448V13.04q.001-.039.013-.072l.006-.02H3.43c-.675 0-1.269-.678-1.269-1.449V8.506c0-.756.605-1.445 1.269-1.445h3.255c-.608-.432-1.009-.961-1.137-1.555-.14-.65.028-1.356.487-2.042.46-.686 1.056-1.123 1.723-1.26.666-.14 1.392.027 2.1.476.93.588 1.676 2.08 2.113 3.19.44-1.106 1.184-2.602 2.117-3.19.709-.451 1.437-.617 2.101-.477.667.138 1.263.575 1.723 1.26.46.69.627 1.396.487 2.043-.129.594-.526 1.126-1.137 1.555m-2.705-3.689c-.89.563-1.728 2.51-2.053 3.507 1.047.115 3.243.171 4.137-.394 1.048-.664 1.24-1.55.56-2.566q-.51-.762-1.185-.902c-.448-.096-.938.025-1.459.355m-6.622-.355c-.448.092-.846.395-1.185.902q-.508.762-.364 1.42c.093.431.406.82.927 1.148.894.563 3.093.507 4.137.395-.327-.997-1.168-2.947-2.055-3.507q-.616-.386-1.163-.386-.15-.001-.297.028M3.014 11.5c0 .35.252.617.415.617h8.095v-4.23H3.432c-.14 0-.418.28-.418.619zm17.978 0V8.51c0-.34-.277-.62-.417-.62h-8.202v4.23h8.202c.165 0 .417-.266.417-.619m-1.322 8.897v-7.448h-7.294v8.067h6.877c.165 0 .417-.266.417-.62M4.278 13.038v7.356c-.003.353.252.619.414.619h6.832v-8.067H4.258l.006.02a.3.3 0 0 1 .014.072"/></svg>