<svg width="24" height="24" viewBox="0 0 24 24" fill="none" xmlns="http://www.w3.org/2000/svg">
<path fill-rule="evenodd" clip-rule="evenodd" d="M18.0946 5.94336C18.0946 5.94336 19.7417 5.93776 20.2907 5.94336C20.3714 5.94336 20.5725 5.97052 20.6617 5.98255C20.6871 5.98598 20.7034 5.98818 20.7053 5.98818C20.9882 6.04701 21.2263 6.16745 21.414 6.35233C21.6997 6.63804 21.8453 7.0414 21.8453 7.54841C21.8453 8.05541 21.6997 8.45597 21.414 8.74168C21.3047 8.85373 21.1703 8.93496 21.0218 9.00219C21.0156 9.13694 21.0061 9.34009 20.9918 9.64795C20.9604 10.3192 20.9058 11.4883 20.8117 13.5316C20.776 14.2993 20.7404 15.0645 20.7086 15.746C20.6456 17.0986 20.5979 18.1219 20.596 18.1815C20.582 19.9238 20.3355 21.7361 18.5596 21.8397C18.5288 21.8425 18.4336 21.8369 18.4336 21.8369H18.3299C18.3299 21.8369 18.131 21.8369 18.0918 21.8397L17.8313 21.8369H15.5932L15.3551 21.8397H6.50639C4.49519 21.8397 4.14505 20.8845 3.71647 19.4168C3.35513 19.3159 3.04421 19.1562 2.79771 18.9098C2.37194 18.484 2.15625 17.8761 2.15625 17.1002C2.15625 16.3271 2.36914 15.7165 2.79491 15.2907C2.97418 15.1114 3.18986 14.977 3.43076 14.8733C3.7753 12.4896 4.73048 11.2291 6.5344 11.047C6.62684 11.0386 6.80891 11.0302 6.90415 11.0274C7.10303 11.019 7.70247 11.0134 7.70247 11.0134H12.5876C12.582 10.8558 12.5768 10.7093 12.5719 10.5732C12.5405 9.69324 12.5245 9.24477 12.5148 9.00219C12.3691 8.93496 12.2347 8.85373 12.1226 8.74168C11.8397 8.45597 11.6941 8.05541 11.6941 7.54841C11.6941 7.0414 11.8397 6.64084 12.1226 6.35513C12.3943 6.08342 12.7697 5.94336 13.2375 5.94336H15.4336V3.5232C15.4336 2.7697 16.0246 2.15625 16.7529 2.15625C17.5036 2.15625 18.0946 2.7697 18.0946 3.5232V5.94336ZM16.2599 5.94336V3.5232C16.2599 3.24308 16.4812 3.01619 16.7753 3.01619C17.047 3.01619 17.2655 3.24308 17.2655 3.5232V5.95177H16.2599V5.94336ZM20.8341 8.11984C20.7193 8.23468 20.54 8.29911 20.2935 8.29911H13.2347V8.2879C12.9882 8.2879 12.8061 8.23188 12.6969 8.11984C12.5792 8.00219 12.5204 7.81171 12.5204 7.54561C12.5204 7.2795 12.5792 7.08902 12.6969 6.97138C12.8089 6.85653 12.9882 6.80051 13.2347 6.80051H20.2879C20.5344 6.80051 20.7137 6.85653 20.8285 6.97138C20.9462 7.08902 21.005 7.2795 21.005 7.54561C21.0078 7.81171 20.9518 8.00219 20.8341 8.11984ZM19.977 13.4896C19.7697 17.921 19.7613 18.1422 19.7613 18.1647C19.7417 20.3915 19.2403 20.8817 18.3803 20.9714C18.371 20.9714 18.3617 20.9739 18.3523 20.9764C18.3477 20.9776 18.343 20.9788 18.3383 20.9798H18.2963C18.1647 20.991 18.0442 20.9882 17.8565 20.9798H15.5624C15.498 20.9854 15.4308 20.9882 15.3579 20.9882C15.2151 20.9882 15.0862 20.9798 14.9602 20.9602C15.2011 20.596 15.3355 20.1394 15.4756 19.6324L15.5372 19.414C15.8929 19.3131 16.2011 19.1534 16.4448 18.9098C16.8705 18.4868 17.0862 17.8761 17.0862 17.1002C17.0862 16.3243 16.8705 15.7165 16.4448 15.2907C16.4263 15.2722 16.4048 15.2568 16.3833 15.2413C16.3689 15.231 16.3546 15.2207 16.3411 15.2095C16.4728 15.2431 16.6044 15.2655 16.7389 15.2683H16.7725C17.2907 15.2683 17.7837 15.0246 18.2459 14.5456C18.7165 14.0526 18.9518 13.5288 18.9406 12.977C18.9294 12.4504 18.6969 11.9434 18.2431 11.4728C17.7893 11.0022 17.3019 10.7613 16.7949 10.7529C16.2515 10.7697 15.7585 10.991 15.2879 11.4784C15.0722 11.7025 14.9126 11.935 14.7977 12.1731C14.4336 11.7221 13.9826 11.3915 13.4252 11.2039C13.3987 10.4573 13.3742 9.81216 13.3572 9.36285L13.3572 9.36176L13.3495 9.15905H20.1787C20.1448 9.85321 20.0796 11.2658 20.0101 12.7711L19.977 13.4896ZM13.4364 20.935C13.8089 20.8789 14.047 20.7725 14.2095 20.5764C14.3999 20.3523 14.5008 20.0134 14.6436 19.5008H4.60163C4.95457 20.638 5.22068 20.9882 6.50079 20.9882C6.63804 20.9882 7.5204 20.9826 7.64645 20.9714H11.568C11.8705 20.991 12.1058 20.9882 12.3467 20.9714L13.3047 20.9574C13.3436 20.9531 13.3741 20.9471 13.4066 20.9407L13.4066 20.9407L13.4364 20.935ZM15.4168 13.0274C15.4112 12.7221 15.5652 12.4056 15.8705 12.0862C16.1731 11.7725 16.4728 11.6128 16.7669 11.6128H16.7781C17.0638 11.6184 17.3607 11.7753 17.6549 12.0806C17.9518 12.3887 18.1058 12.6941 18.1086 12.9938C18.1142 13.3019 17.963 13.6184 17.6577 13.9378C17.3579 14.2487 17.0554 14.4056 16.7669 14.4056H16.7501C16.4672 14.3999 16.1703 14.2431 15.8733 13.935C15.5764 13.6268 15.4252 13.3243 15.4168 13.0274ZM3.36353 18.2879C3.55961 18.484 3.83412 18.5988 4.18146 18.6408V18.6436H15.0442C15.3943 18.5988 15.6717 18.4868 15.8649 18.2907C16.1226 18.033 16.2543 17.6324 16.2543 17.1002C16.2543 16.5652 16.1226 16.1647 15.8649 15.9098C15.638 15.6829 15.2991 15.5624 14.8677 15.5428H7.95737C7.87894 15.9938 7.64925 16.4308 7.25429 16.8397C6.7753 17.3383 6.25989 17.5932 5.72768 17.6044H5.69407C5.14785 17.6044 4.62404 17.3467 4.13384 16.8397C3.81731 16.5092 3.61283 16.1619 3.49799 15.8033C3.48678 15.8117 3.4754 15.8199 3.46402 15.8282C3.42988 15.8529 3.39574 15.8775 3.36633 15.9069C3.11143 16.1619 2.97978 16.5624 2.97978 17.0974C2.97978 17.6324 3.10863 18.033 3.36353 18.2879ZM4.35793 15.5428H7.10863C7.0358 15.7697 6.89294 16.0022 6.66886 16.2319C6.34673 16.5652 6.0246 16.7389 5.71087 16.7445C5.41115 16.7613 5.05261 16.5792 4.71928 16.2319C4.49799 16.0022 4.35513 15.7725 4.2851 15.5484L4.28508 15.5471L4.28489 15.5459C4.2846 15.5451 4.28391 15.5444 4.2823 15.5428H4.35793ZM13.4588 12.1562C13.2095 12.033 12.9378 11.9266 12.6184 11.8985C12.3635 11.8789 11.5932 11.8705 11.5932 11.8733H7.66885C7.66885 11.8733 6.96858 11.8705 6.73608 11.8873C5.33552 11.9742 4.61003 12.8621 4.2907 14.6829H14.949C14.7109 13.3439 14.2487 12.5484 13.4588 12.1562Z" fill="#313235"/>
</svg>
