<svg width="24" height="24" viewBox="0 0 24 24" fill="none" xmlns="http://www.w3.org/2000/svg">
<path fill-rule="evenodd" clip-rule="evenodd" d="M9.57703 17.3935C9.4986 17.6232 9.45938 17.8837 9.45938 18.1666C9.45938 19.4243 10.2493 20.203 11.5238 20.203H18.5238C19.493 20.203 20.2689 19.9313 20.8235 19.3935C21.381 18.8529 21.6891 18.0154 21.6891 17.0322V9.24505C21.6891 8.46354 20.944 8.119 20.6275 7.97334C20.3291 7.8365 19.3623 7.36005 18.2312 6.80266L18.1513 6.76326C18.0121 6.69494 17.8705 6.62538 17.7269 6.55484C15.9388 5.67669 13.8447 4.64822 12.5042 4.01816C11.6499 3.6176 10.7619 3.77726 10.2409 4.42712C9.97479 4.75486 9.84314 5.15542 9.84314 5.55878C9.84594 5.99855 9.9972 6.42432 10.2745 6.76606C10.5658 7.13021 10.9692 7.43553 11.5462 7.77446L4.15966 7.77726H4.11765C2.77031 7.8641 2 8.64001 2 9.90612C2 11.2226 2.82913 12.0406 4.15966 12.0434H7.06443C7.0056 12.2507 6.97479 12.4803 6.97479 12.7268C6.97479 13.7296 7.47899 14.4299 8.32773 14.6708C8.2521 14.9033 8.21008 15.1638 8.21008 15.4467C8.21008 16.4523 8.71989 17.1554 9.57703 17.3935ZM20.2465 18.8109C19.8487 19.1974 19.2661 19.3907 18.5182 19.3907L11.5266 19.3879C10.7031 19.3879 10.2857 18.9761 10.2857 18.1638C10.2829 17.9873 10.3081 17.8137 10.3613 17.6456C10.4314 17.4327 10.4118 17.203 10.3053 17.007C10.1989 16.8109 10.0168 16.6652 9.80112 16.6064C9.29132 16.4635 9.03361 16.0714 9.03361 15.4411C9.03081 15.2647 9.05602 15.0882 9.10924 14.9201C9.13725 14.8361 9.15126 14.7493 9.15126 14.6624C9.14846 14.2983 8.90476 13.9789 8.55462 13.8809C8.05042 13.738 7.79552 13.3459 7.79552 12.7184C7.79552 12.5476 7.81513 12.3907 7.85434 12.2535C7.87395 12.1834 7.88515 12.1078 7.88515 12.035C7.88235 11.584 7.51541 11.2226 7.06443 11.2226H4.16247C3.28571 11.2226 2.82353 10.7661 2.82353 9.90332C2.82353 9.3739 2.96078 8.66522 4.17087 8.58679H11.5462C11.916 8.58679 12.2409 8.34029 12.3389 7.98735C12.437 7.63161 12.2829 7.25626 11.9664 7.07138C11.4398 6.76326 11.126 6.51956 10.9188 6.25906C10.7535 6.05458 10.6639 5.80528 10.6639 5.55598C10.6639 5.32628 10.7395 5.1078 10.8824 4.93133C11.1597 4.58399 11.6471 4.51676 12.1485 4.75205C13.5966 5.42993 15.9188 6.57278 17.7843 7.49155C18.902 8.04337 19.9608 8.56158 20.2801 8.71004C20.7003 8.90332 20.8655 9.05458 20.8655 9.24505V17.0322C20.8655 17.7941 20.6443 18.4243 20.2465 18.8109Z" fill="#313235"/>
</svg>
