<svg width="24" height="24" viewBox="0 0 24 24" fill="none" xmlns="http://www.w3.org/2000/svg">
<path fill-rule="evenodd" clip-rule="evenodd" d="M14.1092 17.3947C14.1877 17.6244 14.2269 17.8849 14.2269 18.1678C14.2269 19.4255 13.437 20.2042 12.1625 20.2042H5.16527C4.19608 20.2042 3.42017 19.9325 2.86555 19.3947C2.30812 18.8541 2 18.0165 2 17.0333V9.24623C2 8.46471 2.7423 8.12018 3.06162 7.97452C3.35995 7.83767 4.3268 7.36121 5.45792 6.80381L5.53782 6.76443C5.67697 6.69611 5.81865 6.62653 5.9623 6.55597C7.75032 5.67784 9.84439 4.64939 11.1849 4.01934C12.0364 3.61598 12.9244 3.77844 13.4454 4.4283C13.7115 4.75603 13.8431 5.15659 13.8431 5.55995C13.8431 5.98012 13.6975 6.40589 13.4118 6.76724C13.1204 7.13138 12.7171 7.4367 12.1401 7.77564L19.5266 7.78124H19.5686C20.916 7.86808 21.6863 8.64399 21.6863 9.91009C21.6863 11.2266 20.8571 12.0445 19.5238 12.0445H16.6218C16.6807 12.2518 16.7115 12.4815 16.7115 12.728C16.7115 13.7308 16.2073 14.4311 15.3585 14.672C15.4342 14.9045 15.4762 15.165 15.4762 15.4479C15.4762 16.4535 14.9664 17.1566 14.1092 17.3947ZM3.43978 18.8121C3.83754 19.1986 4.42017 19.3919 5.16807 19.3919L12.1597 19.3891C12.9832 19.3891 13.4006 18.9773 13.4006 18.165C13.4006 17.9745 13.3753 17.798 13.3249 17.6468C13.2549 17.4339 13.2745 17.2042 13.381 17.0081C13.4874 16.8121 13.6695 16.6664 13.8852 16.6076C14.395 16.4647 14.6527 16.0726 14.6527 15.4423C14.6527 15.249 14.6275 15.0726 14.577 14.9213C14.549 14.8345 14.535 14.7504 14.535 14.6636C14.5378 14.2994 14.7815 13.9801 15.1317 13.8821C15.6359 13.7392 15.8908 13.3471 15.8908 12.7196C15.8908 12.5487 15.8711 12.3919 15.8319 12.2546C15.8123 12.1846 15.8011 12.109 15.8011 12.0361C15.8039 11.5852 16.1709 11.2238 16.6218 11.2238H19.5238C20.4006 11.2238 20.8627 10.7672 20.8627 9.90449C20.8627 9.37508 20.7255 8.6664 19.5154 8.58796H12.1401C11.7703 8.58796 11.4454 8.34147 11.3473 7.98852C11.2493 7.63278 11.4034 7.25743 11.7199 7.07256C12.2465 6.76443 12.5602 6.52074 12.7675 6.26023C12.9328 6.05575 13.0224 5.80645 13.0224 5.55715C13.0224 5.32746 12.9468 5.10897 12.8039 4.9325C12.5266 4.58516 12.0392 4.51794 11.5378 4.75323C10.0896 5.4311 7.76751 6.57396 5.90196 7.49273C4.78431 8.04455 3.72549 8.56275 3.40616 8.71121C2.98599 8.90449 2.82073 9.05575 2.82073 9.24623V17.0333C2.82073 17.7952 3.04202 18.4255 3.43978 18.8121Z" fill="#313235"/>
</svg>
