<svg width="24" height="24" viewBox="0 0 24 24" fill="none" xmlns="http://www.w3.org/2000/svg">
<path fill-rule="evenodd" clip-rule="evenodd" d="M17.3906 9.737C17.6203 9.65857 17.8808 9.61936 18.1638 9.61936C19.4215 9.61936 20.2002 10.4093 20.203 11.6838V18.6838C20.203 19.653 19.9313 20.4289 19.3935 20.9835C18.8528 21.5409 18.0153 21.849 17.0321 21.849H9.24499C8.46348 21.849 8.11894 21.104 7.97328 20.7874C7.83644 20.4891 7.35999 19.5223 6.8026 18.3912L6.7632 18.3112C6.69488 18.1721 6.62532 18.0305 6.55478 17.8868C5.67663 16.0988 4.64816 14.0047 4.0181 12.6642C3.61754 11.8098 3.7772 10.9219 4.42706 10.4009C4.75479 10.1348 5.15536 10.0031 5.55872 10.0031C5.99849 10.0059 6.42426 10.1572 6.766 10.4345C7.13015 10.7258 7.43547 11.1292 7.7744 11.7062L7.7772 4.31964V4.27762C7.86404 2.93028 8.63995 2.15997 9.90606 2.15997C11.2226 2.15997 12.0405 2.9863 12.0405 4.31964V7.2244C12.2478 7.16558 12.4775 7.13476 12.724 7.13476C13.7268 7.13476 14.4271 7.63896 14.668 8.4877C14.9005 8.41207 15.161 8.37006 15.4439 8.37006C16.4495 8.37006 17.1526 8.87986 17.3906 9.737ZM18.808 20.4065C19.1946 20.0087 19.3878 19.4261 19.3878 18.6782L19.385 11.6866C19.385 10.8631 18.9733 10.4457 18.161 10.4457C17.9705 10.4457 17.794 10.4709 17.6427 10.5213C17.4299 10.5913 17.2002 10.5717 17.0041 10.4653C16.808 10.3589 16.6624 10.1768 16.6035 9.96109C16.4607 9.45129 16.0685 9.19359 15.4383 9.19359C15.245 9.19359 15.0685 9.2188 14.9173 9.26922C14.8332 9.29723 14.7464 9.31123 14.6596 9.31123C14.2954 9.30843 13.9761 9.06473 13.878 8.71459C13.7352 8.21039 13.343 7.95549 12.7156 7.95549C12.5447 7.95549 12.3878 7.9751 12.2506 8.01431C12.1806 8.03392 12.1049 8.04513 12.0321 8.04513C11.5811 8.04233 11.2198 7.67538 11.2198 7.2244V4.32244C11.2198 3.44569 10.7632 2.9835 9.90045 2.9835C9.37104 2.9835 8.66236 3.12076 8.58393 4.33084V11.7062C8.58393 12.0759 8.33743 12.4009 7.98449 12.4989C7.62874 12.5969 7.25339 12.4429 7.06852 12.1264C6.7604 11.5997 6.5167 11.286 6.2562 11.0787C6.05171 10.9135 5.80241 10.8238 5.55311 10.8238C5.32342 10.8238 5.10493 10.8995 4.92846 11.0423C4.58113 11.3196 4.5139 11.807 4.74919 12.3084C5.42706 13.7566 6.56992 16.0787 7.48869 17.9443C8.04051 19.0619 8.55872 20.1208 8.70718 20.4401C8.90045 20.8603 9.05171 21.0255 9.24219 21.0255H17.0293C17.7912 21.0255 18.4215 20.8042 18.808 20.4065Z" fill="#313235"/>
</svg>
