<svg width="24" height="24" viewBox="0 0 24 24" fill="none" xmlns="http://www.w3.org/2000/svg">
<path fill-rule="evenodd" clip-rule="evenodd" d="M19.8397 11.2851C19.7837 3.75289 15.5008 2.15625 11.9013 2.15625C8.30191 2.15625 3.96017 3.76129 3.96017 11.4112C2.79491 12.0638 2.15625 13.3579 2.15625 15.2235C2.15625 17.8901 3.43636 19.4027 5.75849 19.5288H6.13384C7.69967 19.47 8.30751 18.2571 8.30751 15.2151C8.30751 12.1731 7.69967 10.9518 6.15065 10.9013H5.76409C5.43356 10.9182 5.10583 10.9714 4.7893 11.061C4.88734 5.71087 7.2739 2.99379 11.9013 2.99379C16.5288 2.99379 18.8985 5.69407 19.0134 11.0106C18.7669 10.9602 18.5176 10.9266 18.2683 10.9098H17.8733C16.3075 10.9686 15.6913 12.1815 15.6913 15.2319C15.6913 17.3803 16.0022 18.5764 16.7333 19.1619C15.5708 19.8369 14.2739 20.2431 12.935 20.3579C12.8901 19.7725 12.3831 19.3299 11.7949 19.3635C11.4644 19.3159 11.131 19.4196 10.8873 19.6492C10.6408 19.8817 10.512 20.2123 10.5316 20.5512C10.5008 20.8845 10.6016 21.2179 10.8117 21.4784C11.0498 21.7221 11.3775 21.8537 11.7137 21.8369C12.0498 21.8733 12.3859 21.7641 12.6408 21.5372C12.7361 21.4364 12.8117 21.3187 12.8621 21.1871C14.5848 21.0806 16.2487 20.5008 17.6773 19.5148C17.7333 19.5176 17.7921 19.5176 17.8481 19.5148H18.2487C20.5708 19.4056 21.8425 17.8425 21.8425 15.2095C21.8425 13.2431 21.1366 11.8957 19.8397 11.2851ZM5.81451 11.7445H6.10863C6.69126 11.7445 7.48678 11.7949 7.48678 15.2319C7.48678 18.6534 6.67341 18.6854 6.03601 18.7105L6.0274 18.7109H5.79771C3.90415 18.6016 2.97698 17.4644 2.97698 15.2235C2.97698 12.9826 3.90415 11.8369 5.81451 11.7445ZM17.6184 18.6941H18.2095C20.103 18.6016 21.047 17.4896 21.0442 15.2403C21.0442 12.991 20.1254 11.8537 18.2319 11.7613H17.9938L17.9878 11.7616C17.35 11.7895 16.5344 11.8252 16.5344 15.2487C16.5344 18.1086 17.0946 18.6016 17.6184 18.6941Z" fill="#313235"/>
</svg>
