<svg xmlns="http://www.w3.org/2000/svg" width="24" height="24" fill="none"><path fill="#313235" d="M19.835 11.28c-.056-7.532-4.34-9.129-7.939-9.129-3.6 0-7.94 1.605-7.94 9.255-1.166.653-1.805 1.947-1.805 3.813 0 2.666 1.28 4.179 3.602 4.305h.376c1.566-.059 2.174-1.272 2.174-4.314s-.608-4.263-2.157-4.314h-.387c-.33.017-.658.07-.975.16.098-5.35 2.485-8.067 7.112-8.067 4.628 0 6.997 2.7 7.112 8.017a5.62 5.62 0 0 0-.745-.101h-.395c-1.566.059-2.182 1.272-2.182 4.322 0 2.148.311 3.344 1.042 3.93a9.109 9.109 0 0 1-3.798 1.196 1.08 1.08 0 0 0-1.14-.995 1.093 1.093 0 0 0-.908.286 1.147 1.147 0 0 0-.355.902c-.031.334.07.667.28.927.238.244.566.376.902.359a1.2 1.2 0 0 0 .927-.3c.095-.1.17-.218.221-.35a9.514 9.514 0 0 0 4.815-1.672c.056.003.115.003.171 0h.4c2.323-.11 3.595-1.673 3.595-4.306 0-1.966-.706-3.313-2.003-3.924Zm-14.025.46h.294c.582 0 1.378.05 1.378 3.487 0 3.421-.814 3.453-1.451 3.479H5.792c-1.893-.11-2.82-1.247-2.82-3.487 0-2.241.927-3.387 2.838-3.48Zm11.803 6.95c-.523-.093-1.084-.586-1.084-3.446 0-3.424.816-3.46 1.454-3.487h.244c1.893.092 2.812 1.229 2.812 3.478.003 2.25-.941 3.362-2.835 3.454h-.59Z"/></svg>