<svg width="24" height="24" viewBox="0 0 24 24" fill="none" xmlns="http://www.w3.org/2000/svg">
<path fill-rule="evenodd" clip-rule="evenodd" d="M21.8425 5.99396C21.8425 4.32449 20.4336 2.96875 18.7053 2.96875H5.2935C3.56521 2.96875 2.15625 4.32449 2.15625 5.99396V14.9519C2.15625 16.2965 3.00219 17.4393 4.25429 17.8315V19.6942C4.25429 20.4085 4.89294 21.0136 5.64925 21.0136C6.12264 21.0136 6.51479 20.8203 6.80611 20.4393L8.79771 17.9772H18.7053C20.4336 17.9772 21.8425 16.6186 21.8425 14.9519V5.99396ZM21.0218 5.99396V14.9519C21.0218 16.1816 19.9826 17.1816 18.7025 17.1844H8.59323C8.46437 17.1844 8.34673 17.2405 8.26829 17.3357L6.15065 19.9575C5.94617 20.2209 5.74449 20.2208 5.64645 20.2208C5.34953 20.2208 5.07222 19.9631 5.07222 19.6942V17.5262C5.07222 17.3385 4.93776 17.176 4.74449 17.1368C3.70247 16.9295 2.97418 16.0304 2.97418 14.9519V5.99396C2.97418 4.76427 4.01619 3.76147 5.2935 3.76147H18.7053C19.9826 3.76147 21.0218 4.76427 21.0218 5.99396ZM14.7809 9.35811C14.8593 9.03878 14.935 8.45334 14.5596 8.13962C14.3915 8.00236 14.1478 7.91553 13.8789 7.90152L13.8033 7.89872C13.5064 7.89872 13.1927 7.98276 12.9013 8.13962C12.7529 8.21805 12.5988 8.30488 12.4336 8.40012C12.2711 8.48696 12.117 8.52617 11.9602 8.52617C11.7977 8.52617 11.638 8.48696 11.498 8.40853C11.3159 8.30488 11.1647 8.22085 11.0162 8.13962C10.7221 7.98276 10.4112 7.89872 10.1142 7.89872L10.0358 7.90152C9.7725 7.91553 9.5232 7.99956 9.35793 8.13962C8.97978 8.45334 9.05541 9.03878 9.13104 9.35811C9.30191 10.0584 9.64365 10.7923 10.1394 11.5402C10.5484 12.1536 10.8621 12.5318 11.4224 13.0948C11.5204 13.1928 11.6577 13.3189 11.7445 13.3777C11.8005 13.4141 11.8593 13.4449 11.9182 13.4561H11.9266L11.9602 13.4617C12.0526 13.4449 12.1114 13.4169 12.1675 13.3805C12.2487 13.3245 12.3747 13.2124 12.47 13.1172L12.4728 13.1116L12.5008 13.0836C13.0526 12.529 13.3607 12.1564 13.7697 11.543C14.2711 10.7923 14.61 10.0584 14.7809 9.35811ZM15.0946 7.53738C14.7893 7.28528 14.3719 7.13402 13.9238 7.11161C13.8817 7.10881 13.8425 7.10881 13.8089 7.10881C13.3719 7.10881 12.9238 7.22645 12.5092 7.45054C12.3523 7.53458 12.1927 7.62421 12.019 7.72225C11.9994 7.73065 11.9826 7.73626 11.963 7.73626C11.9406 7.73626 11.921 7.73065 11.9041 7.72225C11.8648 7.70006 11.8263 7.67816 11.7883 7.65662C11.6585 7.58295 11.536 7.51339 11.4168 7.45054C10.9994 7.22365 10.5512 7.10881 10.117 7.10881C10.0778 7.10881 10.0358 7.10881 9.99659 7.11161C9.54561 7.13122 9.13104 7.28528 8.82572 7.53738C8.30191 7.97155 8.12544 8.68584 8.33832 9.54018C8.5316 10.3301 8.90695 11.148 9.45317 11.9688C9.89014 12.627 10.2403 13.05 10.8369 13.6466C10.8957 13.7054 11.0974 13.9043 11.2683 14.022C11.4168 14.1228 11.5848 14.1984 11.7501 14.2321C11.7977 14.2405 11.8481 14.2489 11.9013 14.2517H11.9041C11.921 14.2545 11.9322 14.2545 11.949 14.2545H11.9658C11.9826 14.2545 11.9966 14.2545 12.0106 14.2517H12.0162C12.0694 14.2489 12.1198 14.2433 12.1675 14.2321C12.3327 14.1984 12.5008 14.1256 12.6464 14.022C12.8201 13.9043 13.0218 13.7054 13.0806 13.6466L13.0806 13.6466C13.0834 13.6438 13.089 13.6382 13.0918 13.6326C13.6801 13.0444 14.0302 12.6242 14.4644 11.9688C15.0106 11.1452 15.3887 10.3273 15.582 9.54018C15.7921 8.68584 15.6212 7.97435 15.0946 7.53738Z" fill="#313235"/>
</svg>
