<svg width="24" height="24" viewBox="0 0 24 24" fill="none" xmlns="http://www.w3.org/2000/svg">
<path fill-rule="evenodd" clip-rule="evenodd" d="M15.0075 21.8418H17.9459C18.8198 21.8418 19.5313 21.1976 19.5313 20.4049V13.1219H20.2568C20.9122 13.1219 21.4893 12.7634 21.7302 12.2116C21.9571 11.6934 21.8366 11.1191 21.422 10.7102L13.1615 2.59533C12.5649 2.00989 11.4333 2.00989 10.8366 2.59533L2.57891 10.7158C2.16154 11.1219 2.0439 11.699 2.26799 12.2172C2.51168 12.769 3.08871 13.1247 3.74137 13.1247H4.35202V20.4076C4.35202 21.2004 5.0607 21.8446 5.93465 21.8446H9.0439C9.27359 21.8474 9.46406 21.6654 9.46967 21.4329V17.388H14.5817V21.4301C14.5845 21.6626 14.775 21.8446 15.0075 21.8418ZM17.9459 21.0183H15.4333L15.4305 16.9735C15.4305 16.7466 15.24 16.5617 15.0047 16.5617H9.04109C8.8086 16.5589 8.61813 16.7438 8.61532 16.9735V21.0211H5.93185C5.53129 21.0211 5.20356 20.7466 5.20356 20.4077V12.713C5.20356 12.4861 5.01308 12.3012 4.77779 12.3012H3.74137C3.36602 12.3012 3.14194 12.0911 3.0551 11.895C2.96266 11.685 3.01588 11.4385 3.18675 11.2872L11.4473 3.17236C11.7246 2.89785 12.2736 2.89785 12.5537 3.17236L20.8114 11.2844C20.9851 11.4357 21.0383 11.6822 20.9431 11.8922C20.8562 12.0883 20.6321 12.2984 20.2568 12.2984H19.1027C18.8702 12.2956 18.6798 12.4805 18.6769 12.7102V20.4049C18.6769 20.7438 18.3492 21.0183 17.9459 21.0183Z" fill="#313235"/>
</svg>
