<svg width="24" height="24" fill="none" xmlns="http://www.w3.org/2000/svg"><path d="m5.753 10.72 5.894 5.893a.721.721 0 0 0 .188.13c.14.06.3.06.44 0a.818.818 0 0 0 .196-.13l5.79-5.79a.58.58 0 0 0-.82-.82l-4.808 4.806V2.732a.58.58 0 0 0-.58-.58c-.322 0-.58.26-.582.58v12.076l-4.9-4.91a.289.289 0 0 0-.027-.029l-.015-.014a.58.58 0 1 0-.776.866Zm16.084 6.333a.58.58 0 0 0-.58-.577.573.573 0 0 0-.574.58v3.625H3.311v-3.625a.581.581 0 0 0-1.16 0v4.204c0 .32.258.577.577.577h18.533c.319 0 .576-.26.576-.58v-4.204Z" fill="#313235"/></svg>