<svg width="24" height="24" viewBox="0 0 24 24" fill="none" xmlns="http://www.w3.org/2000/svg">
<path fill-rule="evenodd" clip-rule="evenodd" d="M23 12.037C23 1.83164 14.7109 1.03336 12.5009 1.00206C12.1659 0.998926 11.831 0.998926 11.496 1.00519C9.39556 1.04275 1 1.83164 1 11.9713C1 22.0859 9.38617 22.9374 11.543 22.9906C11.7965 22.9969 12.0908 23 12.3725 23H12.5822C14.7891 22.9812 23 22.2236 23 12.037ZM22.0828 12.037C22.0828 16.0378 20.7524 18.9053 18.1292 20.5551C15.9787 21.9075 13.5276 22.0734 12.5729 22.0828H12.3694C12.0939 22.0828 11.809 22.0796 11.5618 22.0734C10.6039 22.0483 8.13404 21.848 5.94906 20.4768C3.27262 18.802 1.91719 15.9376 1.91719 11.9713C1.91719 2.81148 9.26096 1.96312 11.5117 1.92242C11.8372 1.91616 12.1628 1.91616 12.4883 1.91929C13.4493 1.93181 15.9192 2.11338 18.0916 3.4814C20.7399 5.14995 22.0828 8.03 22.0828 12.037ZM12.0063 9.49507C12.2598 9.49507 12.4633 9.70168 12.4633 9.95212V17.1022C12.4633 17.3557 12.2567 17.5592 12.0063 17.5592C11.7558 17.5592 11.5492 17.3526 11.5492 17.1022V9.95525C11.5461 9.70168 11.7527 9.49507 12.0063 9.49507ZM12.7137 7.61052C12.7137 7.21608 12.3944 6.89677 12 6.89677C11.6056 6.89677 11.2863 7.21608 11.2863 7.61052C11.2863 8.00496 11.6056 8.32427 12 8.32427C12.3944 8.32427 12.7137 8.00496 12.7137 7.61052Z" fill="#313235"/>
</svg>
