<svg xmlns="http://www.w3.org/2000/svg" width="24" height="24" fill="none"><path fill="#0B2739" d="M2.156 11.997c0 6.437 3.404 9.837 9.838 9.837 4.813 0 7.93-1.901 9.198-5.547a.28.28 0 0 0 .079-.238q.565-1.768.566-4.05c0-3.263-.877-5.762-2.602-7.425-1.667-1.605-4.101-2.418-7.241-2.418-6.437 0-9.838 3.404-9.838 9.84m18.61 3.812h-3.77c.29-1.195.443-2.493.443-3.832 0-1.116-.106-2.204-.31-3.227h3.793q.352 1.451.352 3.247 0 2.154-.509 3.812m-4.349 0h-4.18V8.75h4.319c.21 1.019.32 2.108.32 3.227 0 1.345-.158 2.645-.459 3.832m-4.18.56h4.025a10.8 10.8 0 0 1-.91 2.177c-.854 1.521-1.948 2.431-3.114 2.603zm-.588-.56H7.246a15.7 15.7 0 0 1-.46-3.832c0-1.12.11-2.209.32-3.227h4.543zm-4.248.56h4.248v4.804c-1.249-.082-2.428-1.008-3.339-2.627a10.8 10.8 0 0 1-.91-2.177m-.585 0c.257.892.594 1.718 1.004 2.448.586 1.043 1.284 1.826 2.05 2.317-3.268-.46-5.425-2.056-6.453-4.765zm-.148-.56H3.225q-.509-1.658-.509-3.812 0-1.796.354-3.247h3.463a16.6 16.6 0 0 0-.31 3.227c0 1.339.154 2.637.445 3.832m10.18.56h3.726c-1.07 2.821-3.365 4.433-6.863 4.816.798-.487 1.524-1.289 2.131-2.368.412-.73.749-1.556 1.005-2.448M3.223 8.19C4.152 5.156 6.352 3.374 9.8 2.868c-.738.494-1.41 1.26-1.979 2.27-.502.893-.894 1.928-1.164 3.053zM8.31 5.41c.909-1.62 2.09-2.546 3.34-2.628V8.19H7.233c.256-1.025.618-1.966 1.076-2.782m3.928 2.78V2.806c1.168.171 2.26 1.079 3.114 2.603.458.816.82 1.757 1.076 2.782zm3.605-3.052c-.59-1.047-1.291-1.833-2.06-2.323 3.685.422 6.022 2.222 6.986 5.376h-3.763c-.27-1.125-.662-2.16-1.164-3.053"/></svg>