<svg width="24" height="24" viewBox="0 0 24 24" fill="none" xmlns="http://www.w3.org/2000/svg">
<path fill-rule="evenodd" clip-rule="evenodd" d="M17.5708 12.5204H12.7809C12.7473 12.5204 12.7137 12.512 12.6801 12.5008V13.991H15.7977C16.0246 13.991 16.2179 14.1703 16.2179 14.3999L16.2683 19.1282H17.5288C17.5372 19.1282 17.5435 19.1303 17.5498 19.1324C17.5561 19.1345 17.5624 19.1366 17.5708 19.1366C17.7641 18.1731 18.638 17.442 19.6885 17.442C20.8761 17.442 21.8425 18.3831 21.8425 19.54C21.8425 20.7025 20.8733 21.6464 19.6885 21.6464C18.638 21.6464 17.7641 20.9098 17.5708 19.9434C17.554 19.9518 17.5456 19.9518 17.5288 19.9518H15.8481C15.6212 19.9518 15.4364 19.7697 15.428 19.5484L15.3775 14.8145H12.6801V21.4336C12.6801 21.6605 12.4952 21.8425 12.2599 21.8425C8.23188 21.8425 5.37474 20.5708 3.74449 18.131C3.73768 18.1242 3.72811 18.1188 3.71802 18.1131C3.7032 18.1047 3.68726 18.0956 3.67726 18.0806C3.64364 18.0302 3.61843 17.9826 3.60163 17.9238C2.66045 16.4083 2.17306 14.4588 2.16465 12.1002C2.16465 12.0918 2.15625 12.0834 2.15625 12.0834C2.15625 12.0798 2.15625 12.0778 2.15689 12.076C2.15777 12.0735 2.15982 12.0714 2.16465 12.0666C2.15625 12.0442 2.15625 12.019 2.15625 12.0022C2.15625 5.56521 5.65485 2.15625 12.2599 2.15625C12.4952 2.15625 12.6801 2.34393 12.6801 2.56521V9.35793H15.3775L15.428 4.62404C15.4364 4.39995 15.6212 4.22068 15.8481 4.22068H17.5288C17.5372 4.22068 17.5435 4.22278 17.5498 4.22488C17.5561 4.22698 17.5624 4.22908 17.5708 4.22908C17.7641 3.26269 18.638 2.526 19.6885 2.526C20.8761 2.526 21.8425 3.46717 21.8425 4.62964C21.8425 5.7865 20.8733 6.72768 19.6885 6.72768C18.638 6.72768 17.7641 5.99939 17.5708 5.033C17.5624 5.033 17.5561 5.0351 17.5498 5.0372C17.5435 5.0393 17.5372 5.0414 17.5288 5.0414H16.2683L16.2179 9.7697C16.2179 9.99659 16.0246 10.1787 15.7977 10.1787H12.6801V11.7277C12.6913 11.7249 12.7025 11.7211 12.7137 11.7174C12.7361 11.7099 12.7585 11.7025 12.7809 11.7025H17.5708C17.7725 10.7445 18.638 10.0162 19.6885 10.0162C20.8761 10.0162 21.8425 10.9574 21.8425 12.1114C21.8425 13.2739 20.8733 14.2179 19.6885 14.2179C18.638 14.2179 17.7725 13.4868 17.5708 12.5204ZM11.8397 3.01619V8.06942C11.1759 8.0358 9.69687 7.93776 8.08342 7.55401C8.84813 5.0386 10.2263 3.2879 11.8397 3.01619ZM7.26829 7.33552C7.81171 5.5316 8.67166 4.08902 9.72208 3.18986C7.41675 3.59042 5.71087 4.56521 4.59603 6.11423C5.40275 6.65485 6.33552 7.04981 7.26829 7.33552ZM4.14785 6.80891C5.0386 7.39715 6.04701 7.82572 7.04701 8.12824C6.7865 9.21787 6.64364 10.414 6.61843 11.6745H3.01339C3.04701 9.72488 3.42516 8.10583 4.14785 6.80891ZM3.01339 12.4952C3.07222 14.3803 3.45877 15.9546 4.16465 17.2151C5.0302 16.6324 6.04701 16.2067 7.05541 15.9042C6.80331 14.8537 6.65205 13.6997 6.61843 12.4952H3.01339ZM11.8369 15.9518C11.1731 15.9854 9.68566 16.0918 8.08902 16.4756C8.84813 18.9742 10.2347 20.7193 11.8369 20.9798V15.9518ZM20.9994 19.5428C20.9994 18.8369 20.4112 18.2627 19.6885 18.2627C18.9602 18.2627 18.3719 18.8341 18.3691 19.5428C18.3691 20.2543 18.9574 20.8285 19.6885 20.8285C20.4112 20.8285 20.9994 20.2543 20.9994 19.5428ZM4.61003 17.9098C5.39995 17.3775 6.32432 16.9854 7.2739 16.6969C7.81171 18.484 8.66886 19.9182 9.71367 20.8089C7.42516 20.4168 5.72768 19.4504 4.61003 17.9098ZM7.45883 11.6745L7.45877 11.6773V11.6745H7.45883ZM11.8369 11.6745H7.45883C7.48421 10.4962 7.62703 9.37393 7.87054 8.34953C9.57642 8.76689 11.1394 8.86493 11.8369 8.89014V11.6745ZM11.8397 12.4952V15.1338C11.1506 15.1591 9.57922 15.2627 7.87334 15.6829C7.63804 14.6997 7.49519 13.6268 7.46157 12.4952H11.8397ZM20.9994 4.62964C20.9994 3.92376 20.4112 3.34393 19.6885 3.34393C18.9602 3.34393 18.3719 3.92656 18.3691 4.62964C18.3691 5.33552 18.9574 5.90695 19.6885 5.90695C20.4112 5.90695 20.9994 5.33552 20.9994 4.62964ZM19.6885 10.8313C20.4112 10.8313 20.9994 11.4056 20.9994 12.1086C20.9994 12.8201 20.4112 13.3943 19.6885 13.3943C18.9574 13.3943 18.3691 12.8201 18.3691 12.1086C18.3719 11.4056 18.9602 10.8313 19.6885 10.8313Z" fill="#313235"/>
</svg>
