<svg xmlns="http://www.w3.org/2000/svg" width="24" height="24" fill="none"><path fill="#0B2739" d="M21.834 14.104q.005.015.006.033c0 .876-.241 1.563-.712 2.042-.398.4-.947.63-1.627.678-.081.005-.972.008-1.056.008-.062 0-.919 0-.98-.003-.718-.034-1.292-.266-1.71-.683-.467-.47-.705-1.143-.714-1.997v-.012l-.001-.017-.001-.016q0-.022.007-.04l.007-.028.001-.025q-.001-.019.004-.036l2.373-7.866-1.713-.001-2.161-.002v12.72h1.708c.754 0 1.353.219 1.78.647.442.446.666 1.087.666 1.905a.42.42 0 0 1-.412.429H6.7a.42.42 0 0 1-.411-.429c0-.818.227-1.46.67-1.905.425-.428 1.022-.647 1.775-.647h1.709V6.14l-2.162.002-1.712.001 2.375 7.866a.1.1 0 0 1 .004.036q0 .012.002.025l.005.026a.2.2 0 0 1 .006.042l-.001.014-.002.02v.01c-.008.858-.246 1.527-.714 1.998-.414.417-.992.65-1.709.683-.058.003-.918.003-.977.003-.087 0-.978-.003-1.056-.008-.684-.048-1.23-.278-1.63-.678-.474-.48-.715-1.166-.715-2.04v-.002q0-.018.006-.033l.005-.023.004-.029a.2.2 0 0 1 .019-.083l3.204-7.78c-.367.057-.68.172-.893.385a.4.4 0 0 1-.583-.012.446.446 0 0 1 .014-.607c.41-.412.972-.636 1.672-.67.056-.003 4.14-.006 5.916-.006a1.3 1.3 0 0 1-.666-.341q-.405-.408-.406-1.194c0-.52.137-.921.406-1.193q.384-.387 1.084-.395h.084c.482 0 .857.132 1.115.395.269.27.406.672.406 1.193s-.135.922-.406 1.194a1.3 1.3 0 0 1-.664.341c1.776 0 5.862.003 5.916.006.7.034 1.263.26 1.672.67a.44.44 0 0 1 .014.607.4.4 0 0 1-.297.132.4.4 0 0 1-.286-.12c-.215-.213-.529-.328-.893-.384l3.207 7.779q.015.041.02.09l.002.022zM11.425 4.322c.118.117.333.148.507.154h.09c.18 0 .417-.028.543-.154.126-.13.154-.384.154-.578 0-.19-.028-.45-.154-.58-.126-.125-.364-.15-.543-.15h-.079c-.173.002-.397.03-.518.15-.126.13-.154.39-.154.58 0 .194.028.449.154.578m1.305 1.817h-1.47v12.72h1.47zm8.073 7.57-2.77-6.718-2.028 6.714zm-1.361 2.29c.479-.033.854-.182 1.112-.442.233-.233.378-.566.434-.989l-5.106-.003c.059.423.204.76.44.992.268.271.663.42 1.17.445.079.003.888.003.947.003.081 0 .91 0 1.003-.006m-4.182 3.717H8.73c-.532 0-.938.138-1.204.407q-.302.311-.387.862h9.712q-.084-.553-.387-.862-.401-.407-1.204-.407M3.19 13.712l4.798-.003L5.96 6.994zm4.482 1.846c.235-.233.38-.569.437-.992l-5.107.003c.059.423.202.756.437.989.258.26.633.409 1.112.442.09.006.922.006 1.003.006.056 0 .866 0 .944-.003.507-.025.905-.173 1.174-.445"/></svg>