<svg width="24" height="24" fill="none" xmlns="http://www.w3.org/2000/svg"><path fill-rule="evenodd" clip-rule="evenodd" d="M21.731 12.25a.418.418 0 0 0-.02-.594l-1.974-1.854a.43.43 0 0 0-.286-.112H9.813C9.342 8.822 8.345 7.9 6.24 7.9 3.608 7.9 2.16 9.357 2.16 12c0 2.645 1.448 4.102 4.081 4.102 1.748 0 2.97-.597 3.532-1.723l.031-.068.031-.07h4.647a.416.416 0 0 0 .342-.178l.801-1.157.902 1.173a.377.377 0 0 0 .35.163.417.417 0 0 0 .333-.196l.732-1.18 1.249 1.252c.16.16.417.166.582.009l1.942-1.86.016-.017Zm-2.238.983 1.325-1.269-1.532-1.437H9.555a.417.417 0 0 1-.381-.249c-.46-1.036-1.42-1.54-2.933-1.54-2.185 0-3.246 1.067-3.246 3.26 0 2.196 1.061 3.263 3.246 3.263 1.429 0 2.367-.425 2.787-1.263.042-.081.14-.333.14-.333a.417.417 0 0 1 .39-.266h4.708l1-1.446a.415.415 0 0 1 .334-.179c.137-.022.26.056.341.162l.883 1.149.692-1.115a.415.415 0 0 1 .647-.076c-.003.003 1.33 1.34 1.33 1.34ZM7.272 12.001c0-.964-.574-1.54-1.532-1.54-.958.002-1.532.576-1.532 1.54 0 .96.574 1.538 1.532 1.538.96 0 1.532-.575 1.532-1.538Zm-.835 0c0 .504-.196.7-.697.7-.502 0-.698-.196-.698-.7s.196-.7.698-.7c.501 0 .697.196.697.7Z" fill="#313235"/></svg>