<svg width="24" height="24" viewBox="0 0 24 24" fill="none" xmlns="http://www.w3.org/2000/svg">
<path fill-rule="evenodd" clip-rule="evenodd" d="M5.31838 17.1845C4.27719 17.1845 3.47735 16.9105 2.93851 16.3679C2.41932 15.8478 2.15832 15.0927 2.15832 14.1223V8.04263C2.15832 7.07503 2.42213 6.32276 2.94132 5.8082C3.47735 5.27686 4.27719 5.00839 5.32118 5.00839L18.6742 5C19.7154 5 20.5153 5.26847 21.0513 5.80261C21.5705 6.31717 21.8343 7.06664 21.8343 8.03424V14.1167C21.8343 15.0843 21.5705 15.8422 21.0541 16.3623C20.5153 16.9049 19.7154 17.1789 18.6742 17.1789L5.31838 17.1845ZM2.9778 14.1251V8.04263C2.9778 7.28757 3.16303 6.72267 3.52787 6.36471C3.90112 5.98997 4.50451 5.80261 5.31838 5.80261L18.6714 5.79422C19.4853 5.79422 20.0859 5.98438 20.4619 6.35632C20.8268 6.71707 21.012 7.28197 21.012 8.03424V14.1195C21.012 14.8774 20.824 15.4451 20.4591 15.8142C20.0831 16.1945 19.4797 16.3875 18.6714 16.3875L5.31557 16.3931C4.50731 16.3931 3.90674 16.2001 3.52787 15.8198C3.16303 15.4507 2.9778 14.883 2.9778 14.1251ZM10.7629 15.515C10.2633 15.515 9.89007 15.3891 9.62065 15.1319C9.35123 14.8718 9.21933 14.5082 9.21933 14.0188V9.24235C9.21933 8.76134 9.35123 8.40059 9.61785 8.14051C9.88165 7.88043 10.2437 7.75459 10.7264 7.749V7.57281C10.7264 7.33791 10.7966 7.15054 10.9369 7.0163C11.0772 6.87927 11.2736 6.80936 11.5178 6.80936H12.4804C12.7246 6.80936 12.921 6.87648 13.0613 7.01351C13.2017 7.15054 13.2718 7.3407 13.2718 7.57561V7.75179C13.7545 7.75739 14.1194 7.88323 14.3804 8.13771C14.6498 8.40059 14.7789 8.76134 14.7789 9.24514V14.0216C14.7789 14.511 14.647 14.8774 14.3776 15.1347C14.111 15.3919 13.7377 15.5178 13.2382 15.5178C13.2269 15.515 10.7629 15.515 10.7629 15.515ZM11.341 7.57561C11.341 7.5057 11.3522 7.45536 11.3719 7.43578C11.3999 7.40782 11.4813 7.40502 11.515 7.40782H12.4776C12.5506 7.40782 12.6039 7.419 12.6207 7.43578C12.6432 7.45256 12.6544 7.5057 12.6544 7.57561V7.7462H11.341V7.57561ZM9.83394 14.016V9.24235C9.83394 8.92914 9.9041 8.70541 10.0557 8.55999C10.2044 8.41178 10.4345 8.34186 10.7629 8.34186H13.2269C13.5581 8.34186 13.7882 8.41178 13.937 8.5544C14.0857 8.69702 14.1559 8.92354 14.1559 9.24235V14.016C14.1559 14.3376 14.0857 14.5642 13.937 14.7068C13.7882 14.8466 13.5581 14.9165 13.2269 14.9165H10.7629C10.4317 14.9165 10.2016 14.8466 10.0528 14.7068C9.90691 14.5642 9.83394 14.3376 9.83394 14.016ZM11.0632 11.8515L11.7451 10.2491L11.7339 11.1328C11.7339 11.1915 11.7592 11.2447 11.8041 11.2838C11.849 11.3202 11.9079 11.3398 11.9668 11.3314L12.921 11.2027L12.1549 12.9198L12.1577 11.9354C12.1577 11.8767 12.1324 11.8208 12.0875 11.7844C12.0482 11.7508 12.0033 11.7341 11.9528 11.7341L11.9247 11.7369L11.0632 11.8515ZM10.7657 12.2934C10.6927 12.3046 10.6226 12.2738 10.5748 12.2179C10.5299 12.1619 10.5187 12.0864 10.5468 12.0221L11.7704 9.14167C11.8125 9.05498 11.9051 9.00744 12.0005 9.02422C12.0959 9.041 12.1661 9.12489 12.1661 9.21997L12.1465 10.9063L13.2269 10.7609C13.2999 10.7525 13.3701 10.7804 13.4178 10.8364C13.4627 10.8951 13.4711 10.9706 13.443 11.0349L12.138 13.9573C12.0987 14.044 12.0033 14.0915 11.9079 14.072C11.8125 14.0552 11.7451 13.9741 11.7451 13.8762L11.7479 12.1591C11.7451 12.1619 10.7657 12.2934 10.7657 12.2934ZM21.8399 18.5017C21.8399 18.2808 21.6575 18.1046 21.4302 18.1046H2.55964C2.33232 18.1046 2.1499 18.2836 2.1499 18.5017V18.5045C2.15271 18.7254 2.33793 18.9016 2.55964 18.8988H21.4302C21.6519 18.9016 21.8371 18.7254 21.8399 18.5017Z" fill="#313235"/>
</svg>
