<svg width="24" height="24" viewBox="0 0 24 24" fill="none" xmlns="http://www.w3.org/2000/svg">
<path fill-rule="evenodd" clip-rule="evenodd" d="M14.9359 2.15997C16.583 2.15997 18.146 2.35885 19.3393 2.7202C21.0031 3.2244 21.8463 4.01151 21.8435 5.05913V18.9471C21.8435 19.9947 21.0003 20.7818 19.3393 21.286C18.1376 21.6474 16.5746 21.8462 14.9331 21.8462C13.2945 21.8462 11.7314 21.6474 10.5325 21.2888C8.86868 20.7846 8.02835 19.9975 8.02835 18.9471V18.7006C8.00826 18.6901 7.98818 18.6806 7.96823 18.6712C7.91861 18.6476 7.86981 18.6245 7.82386 18.5885C6.94431 17.8911 5.73703 17.5605 4.87708 17.4065C4.35888 17.314 3.98353 16.8631 3.98353 16.3336V13.9023L2.75664 13.3533C2.38969 13.188 2.16 12.835 2.16 12.4289C2.1572 12.0283 2.39249 11.667 2.75664 11.5045L8.03115 9.14317V5.05913C8.03115 4.89387 8.05075 4.7314 8.09557 4.57454H8.09837C8.33087 3.76502 9.14879 3.14037 10.5353 2.7202C11.7286 2.35885 13.2917 2.15997 14.9359 2.15997ZM10.7706 3.50731C11.8883 3.17118 13.3673 2.9835 14.9359 2.9835C16.5045 2.9835 17.9835 3.17118 19.104 3.50731C20.2076 3.84065 20.8407 4.27762 20.9919 4.80703C20.9902 4.81403 20.9862 4.81775 20.9822 4.8216C20.9797 4.82392 20.9772 4.82628 20.9751 4.82944C20.7902 5.31403 20.146 5.737 19.1124 6.05073C17.9975 6.38686 16.5157 6.57454 14.9471 6.57454C13.3785 6.57454 11.8995 6.38686 10.7818 6.05073C9.72302 5.7286 9.07316 5.29443 8.9079 4.79303C8.90614 4.78775 8.90328 4.78358 8.9007 4.77982C8.89917 4.77759 8.89774 4.7755 8.89669 4.77342C9.06196 4.26642 9.70622 3.83224 10.7706 3.50731ZM3.08997 12.258C3.01994 12.2888 2.97793 12.3504 2.97793 12.4289C2.97793 12.5045 3.01994 12.5717 3.08997 12.5997L8.49053 15.0199C8.54095 15.0423 8.59697 15.0423 8.64459 15.0199L14.048 12.5997C14.118 12.5689 14.16 12.5073 14.16 12.4289C14.16 12.3504 14.118 12.2888 14.048 12.2552L8.64739 9.83504C8.62218 9.82384 8.59417 9.81824 8.56896 9.81824C8.54375 9.81824 8.51854 9.82384 8.49333 9.83504L3.08997 12.258ZM5.02554 16.5997C4.89669 16.5773 4.80426 16.4653 4.80426 16.3364V14.2692L8.16 15.7734C8.4205 15.8883 8.71742 15.8883 8.97792 15.7734L12.4457 14.2216V16.3392C12.4457 16.4681 12.3533 16.5801 12.2244 16.6026C11.272 16.7734 9.92751 17.1432 8.9135 17.9471C8.74543 18.0815 8.50454 18.0815 8.33367 17.9471C7.31966 17.1404 5.97232 16.7706 5.02554 16.5997ZM19.104 20.4989C17.9807 20.8378 16.4989 21.0227 14.9359 21.0227C13.3757 21.0227 11.8939 20.835 10.7734 20.4989C9.49613 20.1124 8.84907 19.5913 8.84907 18.9443V18.8266C9.05636 18.7958 9.25243 18.7118 9.4177 18.5857C10.2973 17.8883 11.5073 17.5577 12.3673 17.4037C12.639 17.3533 12.8799 17.1992 13.0395 16.9751C13.6558 17.0367 14.2945 17.0731 14.9471 17.0731C16.597 17.0731 18.1572 16.8743 19.3477 16.5129C20.0199 16.3084 20.5886 16.0227 21.0255 15.6866V18.9415C21.0283 19.5913 20.3813 20.1124 19.104 20.4989ZM10.5466 6.83784C9.82386 6.61936 9.26084 6.34205 8.84907 6.01431V9.06193C8.8685 9.06841 8.88853 9.07129 8.9086 9.07418C8.93194 9.07754 8.95534 9.08091 8.97792 9.08994L14.1096 11.3869C14.3869 11.3981 14.667 11.4065 14.9499 11.4065C16.5185 11.4065 18.0003 11.2188 19.1152 10.8827C20.2244 10.5465 20.8211 10.0339 21.0283 9.64457V6.03112C20.6166 6.35045 20.0592 6.62216 19.3477 6.83784C18.1572 7.19919 16.597 7.39807 14.9471 7.39807C13.3001 7.39807 11.737 7.19919 10.5466 6.83784ZM13.2636 13.8547L14.3841 13.3533C14.751 13.188 14.9807 12.835 14.9807 12.4289C14.9807 12.3589 14.9667 12.2916 14.9527 12.2244C16.6026 12.2244 18.1628 12.0255 19.3533 11.667C20.0283 11.4625 20.597 11.1796 21.0311 10.8434V14.4989C20.8239 14.8855 20.2216 15.3981 19.118 15.7342C18.0031 16.0703 16.5213 16.258 14.9527 16.258C14.3757 16.258 13.8127 16.2272 13.2636 16.1768V13.8547Z" fill="#313235"/>
</svg>
