<svg width="24" height="24" viewBox="0 0 24 24" fill="none" xmlns="http://www.w3.org/2000/svg">
<path fill-rule="evenodd" clip-rule="evenodd" d="M19.3897 3.57642C19.3897 2.83412 18.8043 2.15625 18.1656 2.15625H5.8463C5.20764 2.15625 4.62221 2.83412 4.62501 3.57642V20.4224C4.62501 21.1787 5.19644 21.8397 5.8491 21.8397L18.1656 21.8425C18.8183 21.8425 19.3897 21.1815 19.3897 20.4252V3.57642ZM18.569 3.57642V20.4252C18.569 20.7669 18.3281 21.0218 18.1712 21.0246L5.8407 21.0218C5.68383 21.0218 5.44294 20.7641 5.44294 20.4224V3.57642C5.44294 3.24869 5.70624 2.97698 5.8407 2.97698H18.1712C18.3057 2.97698 18.569 3.24869 18.569 3.57642ZM7.74546 8.71927C7.29168 8.71927 6.92473 8.35233 6.92473 7.89855C6.92473 7.44477 7.29168 7.07782 7.74546 7.07782C8.19924 7.07782 8.56619 7.44477 8.56619 7.89855C8.56619 8.35233 8.19924 8.71927 7.74546 8.71927ZM8.56619 11.9994C8.56619 11.5456 8.19924 11.1787 7.74546 11.1787C7.29448 11.1787 6.92473 11.5456 6.92473 11.9994C6.92473 12.4532 7.29168 12.8201 7.74546 12.8201C8.19924 12.8201 8.56619 12.4532 8.56619 11.9994ZM10.6222 8.71928C10.3953 8.71928 10.2076 8.5372 10.2076 8.31031C10.2076 8.08342 10.3925 7.90135 10.6222 7.90135H16.3533C16.583 7.90135 16.7679 8.08622 16.7679 8.31031C16.7679 8.5344 16.583 8.71928 16.3533 8.71928H10.6222ZM16.7679 12.4083C16.7679 12.1843 16.583 11.9994 16.3533 11.9994H10.6222C10.3925 11.9994 10.2076 12.1815 10.2076 12.4083C10.2076 12.6352 10.3953 12.8173 10.6222 12.8173H16.3533C16.583 12.8173 16.7679 12.6324 16.7679 12.4083ZM7.74546 15.2823C8.19924 15.2823 8.56619 15.6492 8.56619 16.103C8.56619 16.5568 8.19924 16.9238 7.74546 16.9238C7.29168 16.9238 6.92473 16.554 6.92473 16.1002C6.92473 15.6464 7.29448 15.2823 7.74546 15.2823ZM16.7679 16.5092C16.7679 16.2851 16.583 16.1002 16.3533 16.1002H10.6222C10.3925 16.1002 10.2076 16.2823 10.2076 16.5092C10.2076 16.7361 10.3953 16.9182 10.6222 16.9182H16.3533C16.583 16.9182 16.7679 16.7361 16.7679 16.5092Z" fill="#313235"/>
</svg>
