<svg width="24" height="24" fill="none" xmlns="http://www.w3.org/2000/svg"><path d="m21.83 21.321-2.343-8.192a.418.418 0 0 0-.232-.263.418.418 0 0 0-.348.008l-2.823 1.41-.505-.163c1.241-2.003 2.331-4.29 2.337-6.049.011-3.692-2.188-5.906-5.877-5.917h-.028c-1.81 0-3.303.532-4.32 1.544-1.02 1.014-1.563 2.513-1.57 4.337-.002 1.753 1.046 4.006 2.256 5.992l-.664.194-2.364-1.337a.412.412 0 0 0-.594.233l-2.58 8.192a.41.41 0 0 0 .554.501l4.399-1.91 4.664 1.905.115.028a.436.436 0 0 0 .246-.02l4.782-1.916 4.334 1.91a.41.41 0 0 0 .56-.487ZM6.942 8.038c.003-1.624.45-2.888 1.328-3.76.868-.865 2.126-1.302 3.737-1.302h.025c3.275.008 5.073 1.815 5.062 5.093-.008 3.057-3.76 8.044-5.098 9.562-1.334-1.515-5.065-6.5-5.054-9.593Zm13.856 12.67-3.5-1.544-.705-4.116-.017-.092 2.255-1.127 1.966 6.878Zm-17.57-.009 2.156-6.853 1.838 1.04-.496 4.295-3.499 1.518Zm8.38-2.278-.019 2.424-4.04-1.656.466-4.068.016-.14.799-.23c1.095 1.69 2.221 3.085 2.779 3.67Zm4.15-3.381.711 4.163-4.059 1.625.017-2.454c.563-.6 1.636-1.93 2.692-3.536l.639.202Zm-5.065-7.338c0-.88.448-1.325 1.325-1.325.88 0 1.325.446 1.325 1.325 0 .88-.445 1.325-1.325 1.325-.88 0-1.325-.445-1.325-1.325Zm1.325 2.146c1.322 0 2.146-.823 2.146-2.146 0-1.322-.824-2.146-2.146-2.146s-2.143.821-2.143 2.146.82 2.146 2.143 2.146Z" fill="#313235"/></svg>