<svg width="24" height="24" viewBox="0 0 24 24" fill="none" xmlns="http://www.w3.org/2000/svg">
<path fill-rule="evenodd" clip-rule="evenodd" d="M21.8244 21.316L19.4824 13.124C19.446 13.0064 19.3647 12.9111 19.2499 12.8607C19.1406 12.8131 19.0118 12.8159 18.9025 12.8691L16.0787 14.2783L15.5745 14.1158C16.8155 12.1126 17.9052 9.82651 17.9108 8.06708C17.922 4.37452 15.7229 2.16123 12.0335 2.15002H12.0055C10.1958 2.15002 8.70262 2.68234 7.68572 3.69373C6.66601 4.70792 6.12254 6.20679 6.11694 8.03066C6.11413 9.78448 7.16186 12.037 8.37206 14.0234L7.70813 14.2167L5.34375 12.8803C5.2345 12.8187 5.10563 12.8102 4.99077 12.8551C4.87592 12.8999 4.78627 12.9952 4.74985 13.1128L2.16977 21.3048C2.13895 21.4001 2.14455 21.5037 2.18377 21.5934C2.27622 21.8007 2.51714 21.896 2.72444 21.8063L7.12264 19.8956L11.787 21.8007L11.9018 21.8287C11.9831 21.8455 12.0699 21.8399 12.1483 21.8091L16.9303 19.8928L21.2641 21.8035C21.3537 21.8427 21.449 21.8483 21.5414 21.8231C21.7599 21.7615 21.886 21.5345 21.8244 21.316ZM6.93774 8.03346C6.94055 6.40851 7.38877 5.14497 8.26561 4.27366C9.13404 3.40796 10.3919 2.9709 12.0027 2.9709H12.0279C15.3027 2.97931 17.1012 4.78636 17.09 8.06428C17.0816 11.1209 13.3305 16.1078 11.9915 17.6263C10.658 16.1106 6.92654 11.1265 6.93774 8.03346ZM20.7935 20.7025L17.2945 19.1588L16.5886 15.0432L16.5717 14.9507L18.8269 13.8244L20.7935 20.7025ZM3.22309 20.6941L5.38017 13.8413L7.21788 14.8807L6.72204 19.1756L3.22309 20.6941ZM11.6049 18.4163C11.0474 17.8308 9.92123 16.4356 8.82589 14.7462L8.02749 14.9759L8.01068 15.116L7.54565 19.184L11.5853 20.8397L11.6049 18.4163ZM15.7537 15.0347L15.115 14.833C14.0589 16.4384 12.986 17.7691 12.4229 18.3687L12.4061 20.8229L16.4653 19.198L15.7537 15.0347ZM10.6888 7.69726C10.6888 8.57698 11.1342 9.02244 12.0139 9.02244C12.8935 9.02244 13.3389 8.57698 13.3389 7.69726C13.3389 6.81755 12.8935 6.37209 12.0139 6.37209C11.137 6.37209 10.6888 6.81755 10.6888 7.69726ZM12.0139 9.84332C13.3361 9.84332 14.1597 9.01964 14.1597 7.69726C14.1597 6.37489 13.3361 5.55121 12.0139 5.55121C10.6916 5.55121 9.87081 6.37209 9.87081 7.69726C9.87081 9.02244 10.6916 9.84332 12.0139 9.84332Z" fill="#313235"/>
</svg>
