<svg xmlns="http://www.w3.org/2000/svg" width="24" height="24" fill="none"><path fill="#0B2739" d="M19 9.152c.014-4.465-2.596-7.138-6.98-7.152h-.031C7.627 2 5.014 4.655 5 9.11c-.014 4.39 5.318 11.38 6.685 12.767l.006.005c.16.16.416.157.573-.006 1.367-1.391 6.722-8.378 6.736-12.724m-.819-.003c-.01 3.82-4.648 10.05-6.206 11.825-1.553-1.773-6.168-8.005-6.157-11.859.012-4.053 2.202-6.281 6.17-6.281h.032c3.985.011 6.173 2.254 6.162 6.315M12 10.407c-1.097 0-1.676-.589-1.676-1.705 0-1.115.582-1.704 1.676-1.704 1.094 0 1.673.589 1.673 1.704 0 1.116-.58 1.705-1.673 1.705m2.492-1.705c0-1.588-.931-2.538-2.492-2.538-1.56 0-2.492.95-2.492 2.538 0 1.588.931 2.539 2.492 2.539 1.56 0 2.492-.95 2.492-2.539"/></svg>