<svg width="24" height="24" viewBox="0 0 24 24" fill="none" xmlns="http://www.w3.org/2000/svg">
<path fill-rule="evenodd" clip-rule="evenodd" d="M7.20833 9.33144V6.48678C7.20833 4.09743 9.31478 2.15625 11.903 2.15625H12.0991C14.6873 2.15625 16.7938 4.10023 16.7938 6.48678V9.33556C17.3784 9.45118 17.8593 9.68207 18.2307 10.0274C18.8134 10.5652 19.1131 11.3663 19.1271 12.4084V18.6661C19.1131 19.7081 18.8134 20.5092 18.2307 21.047C17.6733 21.5596 16.8694 21.8229 15.8386 21.8229H8.13831C7.10749 21.8229 6.30357 21.5596 5.74895 21.0442C5.16912 20.5036 4.875 19.7025 4.875 18.6605L4.8778 12.8593C4.875 12.5428 4.875 12.414 4.875 12.414V12.4112C4.875 11.3691 5.16912 10.568 5.74895 10.0274C6.12364 9.6792 6.61212 9.44606 7.20833 9.33144ZM16.2279 9.26181V6.48678C16.2279 4.41115 14.3764 2.71928 12.0991 2.71928H11.903C9.6257 2.71928 7.77416 4.40835 7.77416 6.48678V9.26035C7.89305 9.25258 8.01538 9.24869 8.14111 9.24869H15.8386C15.9722 9.24869 16.102 9.25306 16.2279 9.26181ZM10.3484 16.3495C10.3484 17.4027 10.9534 18.0078 12.0067 18.0078C13.0627 18.0078 13.6677 17.4027 13.6649 16.3495C13.6649 15.2963 13.0599 14.6913 12.0067 14.6913C10.9534 14.6913 10.3484 15.2963 10.3484 16.3495ZM12.0067 15.2907C11.284 15.2907 10.9478 15.6268 10.9478 16.3495C10.9478 17.0722 11.284 17.4084 12.0067 17.4084C12.7293 17.4084 13.0655 17.0722 13.0655 16.3495C13.0655 15.6268 12.7293 15.2907 12.0067 15.2907ZM5.47444 12.4083L5.47471 12.431C5.47541 12.4817 5.47724 12.6142 5.47724 12.8565V12.8593L5.47444 18.6604C5.47444 19.5288 5.70413 20.1815 6.15791 20.6044C6.59769 21.0134 7.26716 21.2235 8.14111 21.2235H15.8386C17.6257 21.2235 18.5053 20.3859 18.5277 18.6604V12.414C18.5053 10.6885 17.6257 9.85093 15.8386 9.85093H8.13831C7.26436 9.85093 6.59769 10.0582 6.15511 10.47C5.70413 10.8845 5.47444 11.54 5.47444 12.4083Z" fill="#313235"/>
</svg>
