<svg width="24" height="24" fill="none" xmlns="http://www.w3.org/2000/svg"><path fill-rule="evenodd" clip-rule="evenodd" d="M19.39 19.103c-.003-2.602 0-7.885 0-7.885v-.003c.005-.08.072-1.128-.65-1.924-.51-.555-1.26-.838-2.235-.838-2.255 0-7.099.006-8.572.009V7.067c0-3.762 2.944-4.082 3.849-4.09.129-.003.283 0 .409.003.73.017 3.165.274 3.762 2.823a.403.403 0 0 0 .49.305.41.41 0 0 0 .302-.492c-.73-3.124-3.655-3.435-4.535-3.457l-.216-.001c-.075 0-.15 0-.223-.002-.776.009-4.653.278-4.656 4.913v1.404c-.442.033-1.151.168-1.709.683-.518.476-.778 1.157-.778 2.023v7.913c-.003.045-.07 1.123.67 1.924.506.546 1.248.827 2.204.827l8.972-.006c.047.006 1.291.084 2.145-.72.513-.479.77-1.16.77-2.014Zm-1.258-9.26c.493.537.445 1.302.442 1.341 0 0-.002 5.308 0 7.919 0 .616-.17 1.09-.507 1.409-.55.52-1.397.507-1.544.504h-.021l-9 .006c-.715 0-1.255-.188-1.6-.558-.498-.535-.46-1.305-.456-1.341v-7.947c0-.622.17-1.098.507-1.412.47-.44 1.157-.482 1.409-.482.05 0 .082.002.093.003h.069l1.23-.001c1.977-.003 5.814-.007 7.748-.007.734 0 1.283.187 1.63.566Zm-6.154 7.08c.818-.013 1.795-.358 1.795-1.91 0-1.557-.986-1.904-1.812-1.927l-.185-.003h-.047c-.807.009-1.774.345-1.774 1.91 0 1.575.975 1.92 1.796 1.93h.227Zm2.608-1.912c0-2.519-2.076-2.731-2.608-2.745-.062-.003-.132-.003-.205-.003h-.053c-.546.002-2.58.193-2.58 2.73 0 2.544 2.054 2.743 2.6 2.751h.09c.055 0 .109 0 .16-.002.517-.009 2.596-.205 2.596-2.731Z" fill="#313235"/></svg>