<svg width="24" height="24" viewBox="0 0 24 24" fill="none" xmlns="http://www.w3.org/2000/svg">
<path fill-rule="evenodd" clip-rule="evenodd" d="M11.9539 21.8074C11.9927 21.8074 12.0297 21.7994 12.0633 21.785C13.3647 21.7852 14.6518 21.5248 15.8447 21.0203C19.4581 19.4909 21.8055 15.9503 21.8083 12.0287C21.8111 6.63095 17.4413 2.2528 12.0436 2.25C12.0223 2.25 12.0015 2.25241 11.9815 2.25696C11.9724 2.25606 11.9632 2.2556 11.9539 2.2556C11.7999 2.2556 11.6738 2.38165 11.6738 2.53571V21.5273C11.6738 21.6814 11.7999 21.8074 11.9539 21.8074ZM12.234 8.16503V2.81852C12.744 2.86308 13.2405 3.08721 13.7214 3.4909C14.262 3.94468 14.7494 4.59734 15.1696 5.43487C15.5119 6.11735 15.7949 6.8885 16.0128 7.72274C14.8276 8.00247 13.5578 8.15195 12.234 8.16503ZM12.234 11.7458V8.72527C13.6098 8.71191 14.936 8.55396 16.1441 8.26885C16.3833 9.35339 16.5172 10.5295 16.5346 11.7458H12.234ZM12.234 12.306V15.5422C13.591 15.5554 14.8999 15.7093 16.0947 15.9874C16.3642 14.8472 16.5149 13.5995 16.5344 12.306H12.234ZM17.0975 12.306C17.0777 13.6455 16.9207 14.9398 16.6396 16.125C17.7425 16.4259 18.7328 16.8373 19.5535 17.3448C20.5705 15.9139 21.1888 14.18 21.2464 12.3052C21.2396 12.3058 21.2326 12.306 21.2256 12.306H17.0975ZM21.2469 11.7466C21.1952 9.98849 20.6422 8.29292 19.6668 6.85405C18.8368 7.38537 17.8237 7.8157 16.6898 8.12919C16.9405 9.25902 17.0802 10.4825 17.0977 11.7458H21.2256C21.2328 11.7458 21.2398 11.7461 21.2469 11.7466ZM15.955 16.5309C14.7842 16.258 13.5341 16.1152 12.234 16.1025V21.2164C12.7445 21.1714 13.2429 20.9453 13.7214 20.5441C14.2592 20.0931 14.7466 19.4377 15.1696 18.6001C15.4828 17.9777 15.7459 17.2815 15.955 16.5309ZM16.4996 16.6691C16.2798 17.4602 16.0022 18.1949 15.671 18.8522C15.2016 19.7841 14.6506 20.5098 14.0464 21.0062C16.1175 20.5466 17.9263 19.3892 19.2135 17.7935C18.4634 17.3379 17.5345 16.9538 16.4996 16.6691ZM16.558 7.58285C17.6266 7.28547 18.5797 6.87816 19.3365 6.39762C19.0962 6.08612 18.8348 5.78874 18.5534 5.5077C17.309 4.25724 15.7401 3.40287 14.0442 3.02696C14.6492 3.5234 15.201 4.24975 15.671 5.18277C16.0322 5.89975 16.3298 6.70883 16.558 7.58285ZM6.64579 21.306C6.37388 21.306 6.0674 21.2599 5.92711 21.2388L5.88949 21.2332L5.86988 21.2304L5.85308 21.2276C4.83907 21.0399 3.9119 20.0819 3.24243 18.5273C2.52815 16.8662 2.14999 14.6366 2.14999 12.0875V11.9923C2.14999 9.44328 2.52815 7.21359 3.24243 5.55252C3.9119 3.9979 4.83907 3.03711 5.85308 2.85224L5.86988 2.84944L5.88949 2.84664L5.90334 2.84443C6.03875 2.8228 6.39627 2.7657 6.69901 2.77381C8.45532 2.81303 9.34887 3.70658 9.34887 5.42647C9.35167 5.743 9.31526 6.06233 9.23683 6.37045C9.04355 7.19118 8.44411 8.16597 6.6738 8.16597C6.50013 8.16597 6.32366 8.15756 6.15279 8.13515C5.81946 8.17157 5.64579 8.83824 5.57296 9.2388C5.4189 10.0707 5.39929 11.208 5.39929 11.9923V12.0847C5.39929 12.869 5.4161 14.0091 5.57296 14.841C5.64859 15.2416 5.82226 15.9111 6.15279 15.9447C6.32646 15.9223 6.50013 15.9139 6.6738 15.9139C8.44411 15.9139 9.04635 16.8887 9.23683 17.7094C9.31526 18.0175 9.35167 18.334 9.34887 18.6506C9.34887 20.3704 8.45812 21.264 6.69901 21.3032L6.64579 21.306ZM5.94271 20.7066L5.97352 20.7122C6.27044 20.7598 6.51134 20.7822 6.68501 20.7794C7.44131 20.7626 7.97632 20.5777 8.32366 20.2192C8.657 19.8747 8.81946 19.362 8.81946 18.6534C8.82226 18.3789 8.79145 18.1071 8.72422 17.8438L8.72142 17.8354C8.50294 16.8971 7.83347 16.4433 6.671 16.4433C6.50854 16.4433 6.34607 16.4517 6.18641 16.4741C6.1724 16.4769 6.1584 16.4769 6.14439 16.4769C5.33188 16.4434 5.12054 15.3189 5.04983 14.9427L5.04915 14.9391C4.88669 14.0651 4.86708 12.8943 4.86708 12.0875V11.9923C4.86708 11.1856 4.88669 10.0147 5.04915 9.14076L5.04983 9.13714C5.12054 8.76095 5.33188 7.63646 6.14439 7.60574H6.1444C6.1584 7.60574 6.17241 7.60574 6.18641 7.60854C6.34607 7.63095 6.50854 7.63936 6.671 7.63936C7.83347 7.63936 8.50574 7.18277 8.72142 6.2472L8.72422 6.2388C8.79145 5.97269 8.82226 5.70098 8.81946 5.42927C8.81946 4.72059 8.657 4.20798 8.32366 3.86345C7.97632 3.5021 7.44131 3.32003 6.68501 3.30322C6.50854 3.30042 6.27044 3.32283 5.97352 3.37045L5.94271 3.37605C4.32086 3.67577 2.67941 6.73179 2.67941 11.9923V12.0875C2.67941 15.2192 3.25083 17.2052 3.72983 18.3172C4.31526 19.6814 5.12198 20.5525 5.94271 20.7066Z" fill="#313235"/>
</svg>
