<svg width="24" height="24" fill="none" xmlns="http://www.w3.org/2000/svg"><path d="M16.252 18.559a.628.628 0 0 1-.19-.028l-6.041-1.827a.536.536 0 0 1-.018.076l-.241.765a.55.55 0 0 1-.275.327.539.539 0 0 1-.428.042l-2.325-.728a.561.561 0 0 1-.367-.703l.24-.765a.555.555 0 0 1 .016-.042l-3.88-1.174v.502a.276.276 0 0 1-.278.277.276.276 0 0 1-.277-.277V8.996a.277.277 0 1 1 .554 0v.499l13.32-4.029a.663.663 0 0 1 .588.104.744.744 0 0 1 .294.596v11.659a.754.754 0 0 1-.294.6.667.667 0 0 1-.398.134Zm0-12.566c-.01 0-.017.002-.025.004l-.006.001-13.336 4.034c-.062.02-.106.09-.106.17v3.595c0 .08.044.151.106.17l13.336 4.034c.034.011.064.003.095-.02a.186.186 0 0 0 .07-.15V6.168a.183.183 0 0 0-.07-.151.105.105 0 0 0-.064-.025Zm-9.35 10.655 2.325.729.24-.765-2.324-.728-.241.764Zm11.947-8.465a.279.279 0 0 1-.199-.476l1.963-1.964a.279.279 0 1 1 .395.395l-1.963 1.964a.28.28 0 0 1-.196.081Zm2.686 3.827h-2.779a.281.281 0 0 1-.28-.28.28.28 0 0 1 .28-.28h2.779a.28.28 0 0 1 0 .56Zm-.93 5.65a.28.28 0 0 0 .395 0 .279.279 0 0 0 0-.395L19.036 15.3a.279.279 0 1 0-.395.395l1.964 1.963Z" fill="#313235"/></svg>