<svg width="24" height="24" viewBox="0 0 24 24" fill="none" xmlns="http://www.w3.org/2000/svg">
<path fill-rule="evenodd" clip-rule="evenodd" d="M18.1367 8.22714C18.2095 8.29717 20.9658 11.3504 21.5849 15.0087C22.047 17.7341 21.9098 19.3056 21.1367 20.0955C21.061 20.1711 20.6465 20.5633 19.9714 20.5941C19.9294 20.5969 19.8846 20.5969 19.8426 20.5969H19.8426C18.8622 20.5969 18.2655 20.0899 17.9042 19.7818L17.8201 19.7117C17.5064 19.4484 17.3748 19.3392 16.9546 19.3392H16.9462C16.5064 19.3392 15.4532 19.2439 15.3215 19.2075C14.344 18.9498 13.8005 18.1627 13.8005 16.9946C13.7697 16.2832 13.7109 14.8322 13.6829 13.3448L11.9294 12.4596L10.3272 13.2664C10.2991 14.765 10.2403 16.2355 10.2095 16.9526C10.2095 18.1179 9.66609 18.9022 8.68289 19.1627C8.55404 19.1991 7.50082 19.2944 7.06385 19.2944C6.64368 19.314 6.50642 19.4036 6.1899 19.6669L6.10586 19.7369C5.74452 20.0451 5.14788 20.5521 4.16749 20.5521C4.12547 20.5521 4.08345 20.5521 4.03864 20.5493C3.36076 20.5185 2.949 20.1263 2.87337 20.0479C2.10026 19.258 1.96301 17.6865 2.42519 14.961C3.04704 11.3028 5.80054 8.24955 5.91819 8.1207C6.34396 7.44563 7.00222 7.08708 7.89298 7.08708C8.93499 7.08708 9.66329 7.54927 9.9406 8.3896C10.005 8.48764 10.0835 8.69773 10.1647 8.98064C10.2375 9.22714 10.2795 9.68652 10.3075 10.2523L10.6549 10.0759V4.20753C10.6549 3.74535 11.0246 3.37 11.4784 3.37H12.5148C12.9686 3.37 13.3384 3.74535 13.3384 4.20753V10.0899L13.7053 10.2748C13.7305 9.72014 13.7753 9.26916 13.8454 9.02546C13.9266 8.73974 14.005 8.53526 14.1003 8.36439C14.3468 7.59689 15.0751 7.1347 16.1171 7.1347C17.005 7.1347 17.6661 7.49324 18.1367 8.22714ZM11.7473 11.6053C11.8622 11.5465 12.0022 11.5465 12.1199 11.6053L13.6745 12.3952C13.6717 11.989 13.6717 11.5913 13.6773 11.2187L12.7333 10.7425C12.5905 10.6697 12.5008 10.5241 12.5008 10.3616V4.21313L11.4784 4.22714L11.4924 10.3448C11.4924 10.5073 11.4028 10.6529 11.2599 10.7257L10.3356 11.1907C10.3412 11.5465 10.344 11.9246 10.3412 12.314L11.7473 11.6053ZM19.9378 19.7453C20.3103 19.7285 20.5344 19.5072 20.5428 19.4988C21.0807 18.9442 21.1535 17.482 20.7529 15.1487C20.1759 11.7453 17.5008 8.77616 17.4728 8.74535C17.1143 8.19352 16.7221 7.98344 16.1143 7.98344C15.1003 7.98344 14.921 8.52686 14.8622 8.70613C14.7697 8.8882 14.7109 9.04226 14.6493 9.26355C14.4392 10.003 14.4896 13.6641 14.6381 16.961C14.6381 18.0311 15.1507 18.286 15.5372 18.3868C15.5965 18.3955 15.9737 18.4216 16.348 18.4475C16.5752 18.4632 16.8012 18.4788 16.9546 18.4904C17.6741 18.4904 17.9882 18.7514 18.3503 19.0523L18.3552 19.0563L18.4448 19.1319L18.4449 19.132C18.7838 19.4205 19.1983 19.7734 19.9378 19.7453ZM9.37477 16.9526C9.37477 17.9862 8.86217 18.2411 8.49802 18.3364C8.38037 18.356 7.46161 18.4288 7.05824 18.4456C6.33836 18.4456 6.02463 18.7061 5.66048 19.0115L5.57085 19.0871L5.54457 19.1093C5.21108 19.3908 4.81198 19.7278 4.07785 19.7005C3.7053 19.6837 3.48121 19.4624 3.47281 19.454C2.93499 18.8994 2.86217 17.4372 3.25432 15.1095C3.80592 11.8561 6.27724 8.99697 6.5552 8.67539C6.56801 8.66057 6.57617 8.65113 6.57925 8.64731C6.89578 8.15431 7.28794 7.94422 7.89578 7.94422C8.80334 7.94422 9.04424 8.35599 9.17869 8.73694C9.24032 8.85179 9.29914 9.00585 9.36076 9.22434C9.57365 9.96103 9.52043 13.6193 9.37477 16.9526Z" fill="#313235"/>
</svg>
