<svg width="24" height="24" viewBox="0 0 24 24" fill="none" xmlns="http://www.w3.org/2000/svg">
<path fill-rule="evenodd" clip-rule="evenodd" d="M16.919 2.16551L21.5016 2.91902C21.7005 2.95263 21.8462 3.1235 21.8434 3.32518V20.6837C21.8434 20.7061 21.8406 20.7313 21.8378 20.7537C21.8014 20.975 21.5885 21.1235 21.3672 21.0871L16.8798 20.3476L12.1207 21.8266C12.0423 21.8518 11.9554 21.8518 11.8742 21.8238L7.31397 20.3476L2.6333 21.0843L2.62662 21.0851C2.60692 21.0876 2.58903 21.0899 2.56888 21.0899C2.34479 21.0899 2.15991 20.9078 2.15991 20.6809V3.32518C2.15991 3.1235 2.30557 2.94983 2.50725 2.91902L7.28316 2.16551C7.28736 2.16551 7.29226 2.16621 7.29717 2.16691C7.30207 2.16762 7.30697 2.16832 7.31117 2.16832C7.3167 2.16721 7.32179 2.16567 7.32661 2.16421C7.33402 2.16197 7.3408 2.15991 7.34759 2.15991C7.36586 2.15991 7.38295 2.16468 7.4004 2.16955C7.40969 2.17215 7.41909 2.17477 7.42882 2.17672C7.43481 2.17792 7.44131 2.17758 7.44788 2.17724C7.45668 2.17678 7.46562 2.17631 7.47364 2.17952L12.0059 3.64731L16.7341 2.17672C16.7422 2.17351 16.7511 2.17398 16.7599 2.17443C16.7665 2.17478 16.773 2.17512 16.779 2.17392C16.7895 2.17274 16.7996 2.1701 16.8098 2.16741C16.8239 2.1637 16.8383 2.15991 16.8546 2.15991C16.8616 2.15991 16.8672 2.16201 16.8728 2.16411C16.8784 2.16621 16.884 2.16832 16.891 2.16832C16.8942 2.16832 16.8974 2.1675 16.9008 2.16665C16.9062 2.16527 16.9121 2.16378 16.919 2.16551ZM2.98064 3.67532L6.93862 3.05067V19.5773L2.98064 20.2019V3.67532ZM21.0255 20.1991L17.2636 19.5801V3.05347L21.0255 3.67252V20.1991ZM16.4428 3.1263L12.412 4.3812V20.877L16.4428 19.6249V3.1263ZM7.75935 3.1347L11.5941 4.3784V20.8714L7.75935 19.6277V3.1347Z" fill="#313235"/>
</svg>
