<svg width="24" height="24" fill="none" xmlns="http://www.w3.org/2000/svg"><path fill-rule="evenodd" clip-rule="evenodd" d="M19.262 4.591c0-.591-.686-1.132-1.443-1.132h-3.154C14.345 2.742 13.601 2 11.884 2c-1.412 0-2.367.513-2.787 1.457H5.943c-.754 0-1.443.54-1.443 1.134v15.964c0 .613.661 1.131 1.443 1.131h11.876c.782 0 1.443-.515 1.443-1.131V4.59Zm-7.381-1.79c-1.457 0-2.157.569-2.216 1.79l-.005.154c.014.392.03.866 2.218.866s2.207-.474 2.219-.818V4.66a2.624 2.624 0 0 0-.11-.692c-.246-.787-.935-1.168-2.106-1.168Zm6.571 17.754V4.59c0-.081-.26-.33-.63-.33h-2.944c.014.098.025.193.031.294l.008.19-.002.093c-.045 1.305-1.244 1.574-3.028 1.574-1.785 0-2.984-.272-3.031-1.591v-.194l.005-.092c.002-.066.012-.128.021-.188.005-.029.01-.058.013-.087h-2.95c-.37 0-.63.253-.63.331v15.964c0 .112.275.33.63.33h11.877c.356 0 .63-.221.63-.33ZM10.98 4.933a.405.405 0 0 1-.406-.4c0-.222.182-.401.406-.401h1.801c.224 0 .406.179.406.4 0 .221-.182.4-.406.4H10.98Zm7.036 9.07c0-.222-.182-.4-.406-.4l-2.577.002-.815-2.291a.403.403 0 0 0-.395-.266.402.402 0 0 0-.378.285l-.675 2.272h-.664a.41.41 0 0 0-.39.283l-.268.874-1.02-5.028a.403.403 0 0 0-.378-.322.391.391 0 0 0-.409.28l-1.21 3.857H6.153a.402.402 0 0 0-.406.4.403.403 0 0 0 .406.401H8.73c.179 0 .336-.115.389-.283l.826-2.633 1.023 5.042a.403.403 0 0 0 .378.322h.02c.179 0 .336-.114.389-.283l.653-2.112h.666a.403.403 0 0 0 .39-.285l.406-1.367.493 1.386a.41.41 0 0 0 .383.266h2.863c.224 0 .406-.179.406-.4Z" fill="#313235"/></svg>