<svg xmlns="http://www.w3.org/2000/svg" width="24" height="24" fill="none"><path fill="#000" d="M11.492 17.443h.967c2.336 0 4.23-1.843 4.23-4.116V6.366c0-2.273-1.894-4.116-4.23-4.116h-.967c-2.335 0-4.23 1.843-4.23 4.116v6.961c0 2.273 1.895 4.116 4.23 4.116M7.867 6.366c0-.944.378-1.829 1.06-2.496a3.65 3.65 0 0 1 2.565-1.032h.967c.97 0 1.88.367 2.565 1.032a3.45 3.45 0 0 1 1.06 2.496v6.961c0 .944-.377 1.829-1.06 2.496a3.65 3.65 0 0 1-2.565 1.032h-.967c-.97 0-1.879-.367-2.565-1.032a3.46 3.46 0 0 1-1.06-2.496z"/><path fill="#000" d="M17.817 15.617a.303.303 0 0 0-.396.156c-.176.4-.402.78-.677 1.126a5.22 5.22 0 0 1-4.115 1.967h-1.257a5.24 5.24 0 0 1-4.16-2.026 5 5 0 0 1-.631-1.067.303.303 0 0 0-.396-.156.29.29 0 0 0-.16.385 5.7 5.7 0 0 0 2.71 2.84c.822.409 1.71.615 2.637.615h.302v1.705h-1.172a.3.3 0 0 0-.302.294c0 .162.136.294.302.294h2.946a.3.3 0 0 0 .302-.294.3.3 0 0 0-.302-.294h-1.173v-1.705h.351c1.81 0 3.487-.8 4.595-2.196.308-.386.562-.809.756-1.259a.29.29 0 0 0-.16-.385"/></svg>