<svg xmlns="http://www.w3.org/2000/svg" width="24" height="24" fill="none"><path fill="#0B2739" d="M21.838 12.006a.412.412 0 0 1-.411.412l-2.827-.003v1.65h2.835a.414.414 0 0 1 0 .826h-2.829v2.647c0 .572-.53 1.073-1.132 1.073h-2.582v2.82a.412.412 0 0 1-.824 0v-2.82h-1.65v2.82a.412.412 0 0 1-.823 0v-2.82h-1.65v2.82a.414.414 0 0 1-.826 0v-2.82H6.536c-.602 0-1.132-.501-1.132-1.073v-2.647H2.567a.412.412 0 0 1 0-.823h2.837v-1.65H2.567a.412.412 0 0 1 0-.824h2.837v-1.65H2.567a.412.412 0 0 1 0-.826h2.835V6.496c0-.566.54-1.081 1.131-1.081h2.583V2.572a.412.412 0 0 1 .826 0v2.843h1.65V2.572a.412.412 0 0 1 .823 0v2.843h1.65V2.572c0-.227.185-.412.412-.412.227 0 .412.185.41.412v2.846h2.582c.594 0 1.131.515 1.131 1.08v2.623h2.83a.412.412 0 0 1 0 .823H18.6v1.65h2.827c.227 0 .412.185.412.412Zm-4.37 5.781c.155 0 .306-.14.306-.246V6.499c0-.1-.162-.255-.305-.255H6.536c-.143 0-.305.154-.305.255V17.54c0 .11.143.246.305.246h10.933Z"/></svg>