<svg width="24" height="24" viewBox="0 0 24 24" fill="none" xmlns="http://www.w3.org/2000/svg">
<path fill-rule="evenodd" clip-rule="evenodd" d="M20.9443 3.07034C21.5522 3.68658 21.8463 4.54933 21.8463 5.723V18.2832C21.8463 19.4653 21.5522 20.3448 20.9359 20.9499C20.3281 21.5577 19.4598 21.8462 18.2861 21.8462H12.0116C10.8379 21.8462 9.97796 21.5577 9.36171 20.9499C8.8211 20.4093 8.52418 19.6614 8.46816 18.6754L8.45975 18.1264C8.35332 18.1348 8.25529 18.1348 8.14887 18.1348H8.14883C4.36732 18.1348 2.16003 16.2216 2.16003 12.1432C2.16003 8.05353 4.36732 6.14037 8.14883 6.14037C8.24687 6.14037 8.35331 6.14037 8.45135 6.14877V5.723C8.45135 4.57454 8.74547 3.71179 9.36171 3.08714C9.97796 2.46249 10.8463 2.15997 12.0116 2.15997H18.2861C19.4682 2.15997 20.3365 2.45409 20.9443 3.07034ZM21.0256 5.723V18.2832C21.0256 19.2356 20.8127 19.9163 20.3617 20.3701C19.9107 20.8154 19.2385 21.0283 18.2861 21.0283H12.0116C11.0676 21.0283 10.3869 20.8126 9.94435 20.3701C9.54939 19.9751 9.3281 19.4093 9.28048 18.653V18.0703C12.3645 17.7174 14.1376 15.7958 14.1376 12.1432C14.1376 8.4821 12.3645 6.56053 9.27208 6.20759V5.723C9.27208 4.79583 9.49337 4.12076 9.94435 3.66978C10.3953 3.20199 11.076 2.9807 12.0116 2.9807H18.2861C19.2385 2.9807 19.9191 3.20199 20.3617 3.65297C20.8127 4.09835 21.0256 4.77902 21.0256 5.723ZM13.3169 12.1432C13.3169 15.6222 11.625 17.314 8.14883 17.314C4.66984 17.314 2.98076 15.625 2.98076 12.1432C2.98076 8.66137 4.66984 6.96109 8.14883 6.96109C11.625 6.96109 13.3169 8.66417 13.3169 12.1432ZM16.2105 18.1348C16.2105 17.4625 15.8155 17.0675 15.1516 17.0675C14.4878 17.0675 14.0872 17.4625 14.0844 18.1348C14.0844 18.4569 14.1852 18.7202 14.3645 18.9079C14.5522 19.104 14.8239 19.202 15.1516 19.202C15.4794 19.202 15.7511 19.104 15.9387 18.9079C16.1208 18.7174 16.2105 18.4541 16.2105 18.1348ZM6.3365 9.40647C6.5634 9.40647 6.74547 9.59135 6.74547 9.81544V14.6278C6.74547 14.8547 6.56059 15.0367 6.3365 15.0367C6.11242 15.0367 5.92754 14.8519 5.92754 14.6278V9.81824C5.92754 9.59135 6.11242 9.40647 6.3365 9.40647ZM10.2329 9.80143C10.2329 9.57454 10.0508 9.38967 9.8239 9.38967C9.59701 9.39247 9.41494 9.57454 9.41494 9.80143V14.611C9.41494 14.835 9.59701 15.0199 9.8239 15.0199C10.048 15.0199 10.2329 14.8378 10.2329 14.611V9.80143Z" fill="#313235"/>
</svg>
