<svg width="24" height="24" viewBox="0 0 24 24" fill="none" xmlns="http://www.w3.org/2000/svg">
<path fill-rule="evenodd" clip-rule="evenodd" d="M20.9443 3.08434C21.5522 3.69219 21.8463 4.56053 21.8463 5.7342V18.2916C21.8463 19.4737 21.5522 20.342 20.9359 20.9499C20.3281 21.5577 19.4598 21.8547 18.2861 21.8547H12.0116C10.8379 21.8547 9.97796 21.5577 9.36171 20.9527C8.8211 20.4205 8.52418 19.6726 8.45975 18.6866V18.1292C8.40656 18.1292 8.35546 18.1313 8.30436 18.1334L8.30429 18.1334C8.25317 18.1355 8.20205 18.1376 8.14883 18.1376C4.36732 18.1348 2.16003 16.23 2.16003 12.1432C2.16003 8.06473 4.36732 6.15157 8.14883 6.15157C8.20314 6.15157 8.25527 6.15376 8.30633 6.1559C8.35533 6.15796 8.40334 6.15997 8.45135 6.15997V5.7314C8.45135 4.57454 8.74547 3.71179 9.36171 3.09555C9.97796 2.4737 10.8463 2.15997 12.0116 2.15997H18.2861C19.4682 2.16558 20.3365 2.4681 20.9443 3.08434ZM21.0256 5.7342V18.2916C21.0256 19.2412 20.8127 19.9219 20.3617 20.3645C19.9107 20.8182 19.2385 21.0311 18.2861 21.0311H12.0116C11.0676 21.0311 10.3869 20.8154 9.94435 20.3645C9.54099 19.9807 9.3281 19.4037 9.28048 18.6502V18.0675C12.3645 17.7062 14.1376 15.793 14.1376 12.1432C14.1376 8.49331 12.3645 6.58014 9.27208 6.2188V5.7342C9.27208 4.80703 9.49337 4.13476 9.94435 3.67538C10.3953 3.216 11.076 2.9863 12.0116 2.9863H18.2861C19.2385 2.9863 19.9107 3.20759 20.3617 3.65857C20.8127 4.10955 21.0256 4.79023 21.0256 5.7342ZM13.3169 12.1432C13.3169 15.6222 11.625 17.314 8.14883 17.314C4.66984 17.314 2.98076 15.6222 2.98076 12.1432C2.98076 8.66418 4.66984 6.9723 8.14883 6.9723C11.625 6.9723 13.3169 8.66418 13.3169 12.1432ZM10.3253 12.146L6.80149 14.1824V10.1096L10.3253 12.146ZM11.3533 11.7902C11.5494 11.9051 11.6166 12.1544 11.5018 12.3504C11.4654 12.4121 11.4149 12.4625 11.3533 12.4989L6.59701 15.2468C6.47096 15.3196 6.3141 15.3196 6.18805 15.2468C6.062 15.174 5.98356 15.0395 5.98356 14.8911V9.40087C5.98356 9.17398 6.16844 8.99191 6.39253 8.99191C6.46536 8.99191 6.53538 9.01151 6.59701 9.04793C6.59701 9.04513 11.3533 11.7902 11.3533 11.7902ZM14.0872 18.1348C14.0872 18.4625 14.1796 18.723 14.3645 18.9107C14.5522 19.104 14.8239 19.2048 15.1516 19.202C15.4794 19.202 15.7511 19.1012 15.9387 18.9107C16.1236 18.723 16.2161 18.4625 16.2161 18.1348C16.2161 17.4681 15.8183 17.0675 15.1516 17.0675C14.485 17.0675 14.0872 17.4653 14.0872 18.1348Z" fill="#313235"/>
</svg>
