<svg width="24" height="24" viewBox="0 0 24 24" fill="none" xmlns="http://www.w3.org/2000/svg">
<path fill-rule="evenodd" clip-rule="evenodd" d="M14.3232 6.23948C14.4157 6.4412 14.6146 6.57007 14.8359 6.57287L16.2227 6.58408L16.2255 8.81419C16.2227 9.31849 16.6262 9.72753 17.1304 9.73314H18.8815C19.3802 9.73314 19.7864 9.32129 19.7864 8.81419L19.7836 6.58408L21.1648 6.57287C21.3862 6.57007 21.5851 6.4412 21.6775 6.23948C21.7728 6.03496 21.7476 5.78561 21.5767 5.57549L18.45 2.36479C18.3296 2.2079 18.1362 2.12946 17.9429 2.15467C17.7916 2.17428 17.6572 2.24993 17.5983 2.33398L14.3988 5.6063C14.256 5.78561 14.2279 6.03216 14.3232 6.23948ZM2.90367 7.22846C2.90367 6.99312 3.09138 6.80261 3.32392 6.80261H3.92347C3.91962 6.75486 3.91513 6.70774 3.91065 6.66068C3.89883 6.53655 3.88705 6.41278 3.88705 6.2787C3.88705 6.23512 3.89137 6.19586 3.89569 6.1566C3.89915 6.1252 3.90261 6.09379 3.90386 6.06017H3.32392C3.09138 6.05737 2.90367 5.86686 2.90367 5.63432C2.90367 5.39898 3.09138 5.20847 3.32392 5.20847H3.98791C4.33811 3.28654 5.6773 2.23872 7.86539 2.23872C8.65266 2.23872 9.33906 2.3732 9.90499 2.63936C10.1151 2.74022 10.2076 2.99236 10.1095 3.20529C10.0143 3.41541 9.76771 3.51067 9.55759 3.41541C9.55619 3.41541 9.55549 3.41471 9.55479 3.41401C9.55409 3.41331 9.55339 3.41261 9.55199 3.41261C9.09812 3.19969 8.52938 3.09042 7.86539 3.09042C6.14518 3.09042 5.159 3.79364 4.84521 5.20847H7.22661C7.45915 5.20847 7.64686 5.39898 7.64686 5.63432C7.64686 5.86966 7.45915 6.06017 7.22661 6.06017H4.74155C4.74037 6.09089 4.73769 6.12062 4.73499 6.15061C4.73129 6.19172 4.72754 6.23334 4.72754 6.2787C4.72754 6.46369 4.74387 6.62963 4.76043 6.79798L4.76116 6.80541H7.22942C7.46195 6.80541 7.64966 6.99592 7.64966 7.23126C7.64966 7.4666 7.46195 7.65711 7.22942 7.65711H4.91525C5.29908 8.87023 6.27405 9.46418 7.86539 9.46418C8.53779 9.46418 9.11213 9.35211 9.5688 9.13358C9.77892 9.03552 10.0283 9.12798 10.1263 9.3381C10.2272 9.55103 10.1347 9.80318 9.9246 9.90404C9.35587 10.1786 8.66106 10.3159 7.86259 10.3159C5.79777 10.3159 4.49781 9.37452 4.06075 7.65711H3.32392C3.09138 7.65431 2.90367 7.4638 2.90367 7.22846ZM18.0074 3.12124L15.4635 5.72678L16.4917 5.73518C16.8139 5.74359 17.0688 6.01254 17.0604 6.33473V6.33753L17.0632 8.81419C17.0632 8.85062 17.0912 8.88143 17.1276 8.88143H18.8815C18.9179 8.88143 18.9459 8.85342 18.9459 8.817L18.9431 6.32633C18.9375 6.00974 19.1869 5.74639 19.5006 5.73518L20.5429 5.72678C20.5457 5.72678 18.0074 3.12124 18.0074 3.12124ZM20.2291 20.7436C20.4588 20.6736 20.9995 20.4775 20.9995 20.2029V19.015C20.8314 19.1047 20.6549 19.1775 20.4756 19.2335C19.8817 19.4156 19.1028 19.5165 18.2847 19.5165C17.4638 19.5165 16.6878 19.4156 16.0938 19.2335C15.9089 19.1775 15.7296 19.1047 15.5587 19.0178V20.2029C15.5587 20.4775 16.0994 20.6736 16.3292 20.7464C17.3742 21.0602 19.1785 21.0602 20.2291 20.7436ZM14.7182 20.2842C14.6202 20.4298 14.3652 20.6175 13.9506 20.7436C12.9084 21.0602 11.0929 21.0602 10.0563 20.7436C9.61922 20.6119 9.36427 20.4326 9.27742 20.2954V18.9758C9.44832 19.0626 9.62763 19.1355 9.81254 19.1915C10.4065 19.3764 11.1853 19.4745 12.0034 19.4745C12.8215 19.4745 13.6004 19.3736 14.1943 19.1915C14.3736 19.1327 14.5501 19.0626 14.7182 18.973V20.2842ZM7.66647 20.7436C8.07832 20.6175 8.33327 20.4326 8.43413 20.2842V18.9926C8.28004 19.071 8.10633 19.1411 7.90742 19.2027C7.31347 19.3848 6.53461 19.4857 5.71653 19.4857C4.89844 19.4857 4.11958 19.3848 3.52563 19.2027C3.34073 19.1467 3.16142 19.0738 2.99052 18.987V20.2954C3.07177 20.4214 3.30991 20.6007 3.76938 20.7436C4.80879 21.063 6.62426 21.063 7.66647 20.7436ZM3.04655 17.9784C3.14741 17.8355 3.39676 17.6898 3.76097 17.5778C4.80319 17.264 6.61866 17.264 7.65807 17.5806C7.85138 17.6394 8.25202 17.7823 8.3837 17.9896C8.31926 18.0849 8.14556 18.2389 7.66367 18.3874C6.62986 18.704 4.80319 18.704 3.76658 18.3874C3.39396 18.2726 3.14181 18.1241 3.04655 17.9784ZM10.0451 15.2132C9.67526 15.3252 9.42311 15.4737 9.32785 15.6194C9.39229 15.7175 9.5688 15.8744 10.0535 16.0228C11.0929 16.3394 12.9084 16.3394 13.9506 16.0228C14.4297 15.8772 14.6034 15.7203 14.6734 15.6222C14.5417 15.4177 14.1411 15.272 13.9478 15.2132C12.9028 14.8938 11.0845 14.8938 10.0451 15.2132ZM15.612 13.28C15.6848 13.1792 15.8669 13.0279 16.3292 12.885C17.3714 12.5684 19.1869 12.5684 20.2291 12.885C20.4224 12.9438 20.823 13.0895 20.9547 13.294C20.8875 13.3921 20.7138 13.5462 20.2347 13.6947C19.1953 14.0113 17.3714 14.0113 16.3348 13.6947C15.9594 13.5798 15.7016 13.4285 15.612 13.28ZM15.5587 16.6504V17.97C15.6456 18.1073 15.9005 18.2866 16.3376 18.4183C17.3742 18.7348 19.1981 18.7348 20.2347 18.4183C20.6493 18.2922 20.9043 18.1045 21.0023 17.9588V16.6476C20.8342 16.7373 20.6577 16.8101 20.4784 16.8661C19.8817 17.0482 19.1028 17.1463 18.2875 17.1463C17.4723 17.1463 16.6934 17.0482 16.0966 16.8661C15.9089 16.8101 15.7296 16.7373 15.5587 16.6504ZM15.5587 14.2942C15.7296 14.3811 15.9061 14.4539 16.091 14.5099C16.6878 14.6921 17.4638 14.7929 18.2847 14.7957C19.1028 14.7957 19.8817 14.6949 20.4756 14.5128C20.6745 14.4511 20.8426 14.3811 20.9995 14.3026V15.5942C20.9015 15.7399 20.6465 15.9248 20.2347 16.0509C19.1897 16.3674 17.377 16.3674 16.3348 16.0509C15.8753 15.9108 15.64 15.7287 15.5587 15.6026V14.2942ZM9.27462 16.6224V17.928C9.35587 18.0568 9.59401 18.2361 10.0535 18.3762C11.0901 18.6928 12.914 18.6928 13.9506 18.3762C14.4128 18.2361 14.637 18.04 14.7182 17.9196V16.628C14.5501 16.712 14.3736 16.7821 14.1915 16.8381C13.5948 17.0202 12.8159 17.1211 12.0006 17.1211C11.1853 17.1211 10.4093 17.023 9.80974 16.8381C9.62483 16.7821 9.44552 16.7092 9.27462 16.6224ZM21.84 13.4257C21.84 12.9971 21.6019 12.4171 20.47 12.0697C19.2737 11.7055 17.2817 11.7055 16.0854 12.0669C15.3402 12.2966 14.8919 12.6525 14.7575 13.1259C14.7322 13.224 14.7182 13.3221 14.7182 13.4257V14.6108C14.5501 14.524 14.3708 14.4511 14.1887 14.3951C12.9924 14.0309 10.9948 14.0309 9.80413 14.3951C9.05609 14.6248 8.61063 14.9778 8.47615 15.4541C8.44813 15.5522 8.43413 15.6502 8.43413 15.7539V16.9782C8.28004 16.8998 8.11194 16.8269 7.90181 16.7625C6.70831 16.3983 4.71634 16.3983 3.52003 16.7625C2.77479 16.9922 2.32933 17.348 2.19205 17.8187L2.18925 17.8243C2.16403 17.9196 2.15002 18.0204 2.15002 18.1213V20.4859C2.15002 20.626 2.22007 20.7548 2.33773 20.8333C2.57027 21.1387 2.96811 21.3908 3.52563 21.5617C4.12239 21.7438 4.90125 21.8447 5.71653 21.8447C6.53181 21.8447 7.31066 21.7438 7.90742 21.5617C8.29124 21.4468 8.60503 21.2703 8.84597 21.0658C9.08411 21.2647 9.4007 21.4384 9.80974 21.5617C10.4093 21.7438 11.1853 21.8447 12.0006 21.8447C12.8159 21.8447 13.592 21.7438 14.1915 21.5617C14.5361 21.4608 14.8555 21.2927 15.1301 21.0658C15.3374 21.2507 15.6428 21.4244 16.0882 21.5617C16.6878 21.741 17.4666 21.8419 18.2791 21.8419C19.0916 21.8419 19.8677 21.741 20.47 21.5589C21.6019 21.2115 21.84 20.6288 21.84 20.2001V13.4257Z" fill="#313235"/>
</svg>
