<svg xmlns="http://www.w3.org/2000/svg" width="24" height="24" fill="none"><path fill="#0B2739" d="M18.083 16.927c0-.322.185-.47.468-.47.283 0 .465.148.468.47 0 .154-.042.266-.118.345-.084.084-.201.123-.35.123-.148 0-.269-.04-.35-.123-.076-.076-.118-.19-.118-.345Z"/><path fill="#0B2739" d="M5.167 16.636h10.099v.38c0 1.222.593 1.816 1.815 1.816h2.938c1.221 0 1.815-.594 1.815-1.818v-6.49c0-.61-.148-1.056-.45-1.362-.306-.305-.752-.453-1.365-.453h-1.47v-.286c0-1.045-.244-1.852-.72-2.398-.508-.58-1.278-.874-2.292-.874H5.167c-1.014 0-1.784.294-2.29.874-.48.546-.72 1.353-.72 2.398v4.941c0 1.045.243 1.852.72 2.398.506.58 1.276.874 2.29.874Zm0-.56c-1.672 0-2.45-.863-2.45-2.715V8.423c0-1.852.778-2.714 2.45-2.714h10.37c1.672 0 2.451.862 2.451 2.714v.286h-.907c-.608 0-1.054.154-1.362.465-.305.31-.454.75-.454 1.353v5.549H5.167Zm10.659-5.55c0-.89.364-1.254 1.255-1.254h2.938c.902 0 1.255.35 1.255 1.255v6.49c0 .902-.35 1.255-1.255 1.255h-2.938c-.902 0-1.255-.35-1.255-1.255v-6.49ZM7.624 18.837h5.462a.28.28 0 0 0 .28-.28.28.28 0 0 0-.28-.28H7.624a.28.28 0 0 0-.28.28c0 .155.126.28.28.28Z"/></svg>