<svg width="24" height="24" viewBox="0 0 24 24" fill="none" xmlns="http://www.w3.org/2000/svg">
<path fill-rule="evenodd" clip-rule="evenodd" d="M19.3857 18.0087H21.3773C21.607 18.0087 21.7947 18.1964 21.7947 18.4289V21.4317C21.7947 21.6642 21.6098 21.8519 21.3773 21.8519H2.63222C2.40252 21.8519 2.21485 21.6642 2.21485 21.4317V18.4289C2.21485 18.1964 2.39972 18.0087 2.63222 18.0087H4.65743V9.56894H2.57899C2.39412 9.56894 2.23446 9.45129 2.17843 9.27482C2.12521 9.09835 2.18964 8.90787 2.3409 8.80423L11.7667 2.2356C11.9095 2.13476 12.1 2.13476 12.2429 2.2356L21.6686 8.80423C21.8171 8.90787 21.8815 9.09835 21.8283 9.27482C21.7751 9.45129 21.6126 9.56894 21.4305 9.56894H19.3857V18.0087ZM20.9571 21.0115H3.04958V18.849H20.9571V21.0115ZM5.49216 18.0087H7.10841V9.56894H5.49216V18.0087ZM20.0944 8.7286L12.0048 3.09275L3.91233 8.7286H5.06639C5.06779 8.7286 5.06919 8.7279 5.07059 8.7272C5.07199 8.7265 5.07339 8.7258 5.07479 8.7258C5.07619 8.7258 5.07759 8.7265 5.07899 8.7272C5.0804 8.7279 5.0818 8.7286 5.0832 8.7286H7.51737C7.51877 8.7286 7.52017 8.7279 7.52157 8.7272C7.52297 8.7265 7.52437 8.7258 7.52577 8.7258C7.52717 8.7258 7.52857 8.7265 7.52997 8.7272C7.53138 8.7279 7.53278 8.7286 7.53418 8.7286H10.7863C10.7877 8.7286 10.7891 8.7279 10.7905 8.7272C10.7919 8.7265 10.7933 8.7258 10.7947 8.7258C10.7961 8.7258 10.7975 8.7265 10.7989 8.7272C10.8003 8.7279 10.8017 8.7286 10.8031 8.7286H13.2373C13.2387 8.7286 13.2401 8.7279 13.2415 8.7272C13.2429 8.7265 13.2443 8.7258 13.2457 8.7258C13.2471 8.7258 13.2485 8.7265 13.2499 8.7272C13.2513 8.7279 13.2527 8.7286 13.2541 8.7286H16.5062C16.5076 8.7286 16.509 8.7279 16.5104 8.7272L16.5125 8.72621L16.5139 8.72585L16.5146 8.7258C16.516 8.7258 16.5174 8.7265 16.5188 8.7272C16.5202 8.7279 16.5216 8.7286 16.523 8.7286H18.9571C18.9585 8.7286 18.9599 8.7279 18.9613 8.7272C18.9627 8.7265 18.9641 8.7258 18.9655 8.7258C18.9669 8.7258 18.9683 8.7265 18.9698 8.7272C18.9712 8.7279 18.9726 8.7286 18.974 8.7286H20.0944ZM13.6658 18.0087H16.1V9.56894H13.6658V18.0087ZM12.8311 18.0087H11.2148V9.56894H12.8311V18.0087ZM7.94314 18.0087H10.3773V9.56894H7.94314V18.0087ZM18.551 18.0087H16.9347V9.56894H18.551V18.0087Z" fill="#313235"/>
</svg>
