<svg xmlns="http://www.w3.org/2000/svg" width="24" height="24" fill="none"><path fill="#0B2739" d="M19.799 4.712a.87.87 0 0 1 .812.86h.003V18.39H20.6q.002.033.007.062.006.037.007.078c0 3.093-2.692 3.3-3.232 3.308l-.28.003c-1.563-.022-3.236-.907-3.236-3.327s1.661-3.294 3.216-3.309l.291.003c.863.02 1.748.314 2.378.958V8.133l-9.6-2.56-.01 9.01h-.017c-.174 2.796-2.695 2.998-3.216 3.006a5 5 0 0 1-.285 0c-1.56-.022-3.233-.907-3.233-3.327s1.658-3.297 3.216-3.309q.074.003.15.002l.144.001c.857.02 1.742.311 2.372.955V3.018c0-.474.393-.863.877-.863l.112.017zm-9.65-1.691-.003 1.669 9.6 2.557V5.57l-.126-.026zM6.81 16.738h.077c.717-.014 2.384-.278 2.384-2.46s-1.675-2.456-2.395-2.473c-.084-.003-.18-.003-.266-.003-.71.006-2.359.26-2.359 2.46 0 2.204 1.667 2.467 2.38 2.476q.091.001.179 0m10.553 4.249c.717-.011 2.384-.277 2.387-2.454 0-2.182-1.678-2.456-2.398-2.473l-.266-.003c-.709.006-2.359.258-2.359 2.457 0 2.204 1.667 2.467 2.381 2.476z"/></svg>