<svg width="24" height="24" viewBox="0 0 24 24" fill="none" xmlns="http://www.w3.org/2000/svg">
<path fill-rule="evenodd" clip-rule="evenodd" d="M16.8763 4.0246C20.8147 4.21507 21.0136 8.07222 21.0136 8.86213C21.0136 9.31031 20.9491 10.7977 20.1564 12.005C20.9519 13.2067 21.0164 14.6913 21.0164 15.1394C21.0164 15.935 20.8147 19.8397 16.8791 19.9882C16.4449 21.1899 15.4561 21.8453 14.0612 21.8453C13.064 21.8453 12.4001 21.2711 12.0052 20.6689C11.641 21.2067 10.9912 21.8453 9.92673 21.8453C8.52897 21.8453 7.53738 21.1843 7.106 19.977C3.16763 19.7893 2.96875 15.9294 2.96875 15.1394C2.96875 14.6885 3.03318 13.2011 3.82869 11.9966C3.03318 10.7949 2.96875 9.31031 2.96875 8.86213C2.96875 8.06661 3.17043 4.16185 7.106 4.01619C7.54018 2.81451 8.52897 2.15625 9.92393 2.15625C10.9211 2.15625 11.5822 2.73048 11.98 3.33272C12.3441 2.79491 12.994 2.15625 14.0584 2.15625C15.4533 2.15625 16.4449 2.81731 16.8763 4.0246ZM16.6522 19.1619C19.9183 19.1058 20.1732 16.0722 20.1732 15.1366C20.1732 14.7249 20.1088 13.2963 19.3105 12.2627C18.8819 11.8089 18.2965 11.5372 17.5626 11.4588H17.5598C17.3329 11.4336 17.1676 11.2319 17.19 11.005C17.218 10.7781 17.4253 10.6156 17.655 10.6436C17.8931 10.6689 18.1312 10.7165 18.3609 10.7809C18.3646 10.7753 18.3681 10.7694 18.3715 10.7635C18.3783 10.7516 18.3852 10.7398 18.3945 10.7305C18.501 10.6324 18.8119 10.3327 18.4365 9.94617C18.2685 9.7893 18.2377 9.50639 18.3973 9.34112C18.557 9.17866 18.8007 9.15065 18.9659 9.30471L19.0444 9.38034C19.4449 9.7921 19.6746 10.4672 19.1592 11.1198C19.2993 11.1955 19.4309 11.2823 19.557 11.3747C20.1228 10.3943 20.1732 9.22908 20.1732 8.85933C20.1732 7.91535 19.9183 4.83692 16.6522 4.83132C15.8175 4.83132 15.4281 5.5428 15.3161 5.85653L15.2629 6.01619C15.1872 6.23468 14.9547 6.35233 14.7335 6.2851C14.7335 6.2823 14.7307 6.2823 14.7279 6.2823C14.5122 6.21507 14.3917 5.98538 14.4589 5.7697C14.4691 5.74082 14.4799 5.70897 14.4911 5.67606L14.4912 5.67592C14.5017 5.64502 14.5125 5.61319 14.5234 5.58202C14.7447 4.96858 15.2293 4.34953 16.0052 4.11143C15.6662 3.36073 15.0136 2.97698 14.0584 2.97698C13.008 2.97698 12.5234 4.00779 12.4197 4.25709C12.4169 4.48678 12.4113 5.20667 12.4113 5.39715V8.85653H16.5962V7.86213C16.1424 7.69407 15.8147 7.26829 15.8147 6.76689C15.8147 6.11703 16.3553 5.59322 17.0192 5.59322C17.683 5.59322 18.2237 6.11984 18.2237 6.76689C18.2237 7.2711 17.8931 7.69967 17.4365 7.86493V9.26829C17.4337 9.49799 17.2461 9.68006 17.0164 9.67726H14.5682V11.7109C14.9239 11.8145 15.2096 12.075 15.3441 12.4168H18.1676C18.4029 12.4168 18.5906 12.5988 18.5906 12.8257V14.6212C19.0556 14.7837 19.3665 15.2207 19.3721 15.7137C19.3721 16.3635 18.8315 16.8873 18.1676 16.8873C17.5038 16.8873 16.9631 16.3607 16.9631 15.7137C16.9687 15.2207 17.2825 14.7809 17.7503 14.6184V13.2375H15.3469C15.176 13.6829 14.7363 14.0022 14.2208 14.0022C13.557 14.0022 13.0164 13.4756 13.0164 12.8285C13.0164 12.3523 13.3105 11.9434 13.7251 11.7585V9.67726H12.4085V16.3887H13.7811C13.9547 15.9462 14.3917 15.6268 14.9071 15.6268C15.571 15.6268 16.1116 16.1534 16.1116 16.8005C16.1116 17.4476 15.571 17.9742 14.9071 17.9742C14.3917 17.9742 13.9519 17.6577 13.7811 17.2123H12.4113V18.6016C12.4197 18.7613 12.4141 19.3971 12.4113 19.5904C12.487 19.8425 12.9015 21.0218 14.0556 21.0218C15.0136 21.0218 15.6662 20.638 16.0052 19.8845C15.7923 19.8173 15.5766 19.7137 15.3581 19.5764C15.2797 19.526 15.2012 19.4728 15.1284 19.414C15.1276 19.4131 15.1264 19.4122 15.1252 19.4114L15.1199 19.4078L15.1188 19.4069L15.1172 19.4056C14.9435 19.2655 14.9183 19.0134 15.0584 18.8397C15.2068 18.6633 15.4645 18.6352 15.6494 18.7725C15.7026 18.8145 15.7587 18.8537 15.8175 18.8901C16.1172 19.0806 16.3973 19.1871 16.6466 19.1619H16.6522ZM17.0192 7.11984C16.8203 7.12264 16.6578 6.96577 16.655 6.76689C16.655 6.57362 16.8175 6.41395 17.0164 6.41395C17.2152 6.41395 17.3777 6.57362 17.3777 6.76689C17.3805 6.96297 17.2181 7.11984 17.0192 7.11984ZM18.1676 15.3607C18.3665 15.3607 18.529 15.5176 18.529 15.7137C18.529 15.907 18.3665 16.0666 18.1648 16.0666C17.9688 16.0694 17.8063 15.9098 17.8035 15.7137C17.8035 15.5204 17.9659 15.3607 18.1676 15.3607ZM14.5822 12.8285C14.5822 12.6352 14.4197 12.4756 14.2209 12.4756C14.0192 12.4756 13.8567 12.6324 13.8595 12.8285C13.8623 13.0274 14.022 13.1843 14.2209 13.1815C14.4197 13.1815 14.5822 13.0246 14.5822 12.8285ZM14.5458 16.8033C14.5458 16.61 14.711 16.4504 14.9099 16.4504C15.1088 16.4504 15.2713 16.61 15.2713 16.8033C15.2713 16.9966 15.1088 17.1562 14.9099 17.1562C14.711 17.1591 14.5486 16.9994 14.5458 16.8033ZM6.10881 16.2627C5.90993 16.2655 5.75026 16.1086 5.74466 15.9098C5.74466 15.7137 5.90993 15.5568 6.10881 15.5568C6.30769 15.5568 6.47015 15.7137 6.47015 15.9098C6.47295 16.103 6.31049 16.2627 6.10881 16.2627ZM9.57939 14.4196C9.57939 14.2263 9.41693 14.0666 9.21805 14.0666C9.01637 14.0694 8.8539 14.2263 8.85671 14.4224C8.85951 14.6184 9.01917 14.7781 9.21805 14.7753C9.41693 14.7753 9.57659 14.6184 9.57939 14.4196ZM6.3553 9.25989C6.3525 9.45877 6.19004 9.61563 5.99116 9.61283C5.79508 9.61563 5.63262 9.45597 5.62981 9.25989C5.62981 9.06381 5.79228 8.90695 5.99116 8.90695C6.19284 8.90695 6.3553 9.06661 6.3553 9.25989ZM9.19004 7.14785C9.38892 7.14785 9.55418 6.99098 9.55418 6.79491C9.55418 6.60163 9.39172 6.44196 9.19004 6.44196C8.99116 6.44196 8.82869 6.59883 8.82869 6.79491C8.83149 6.99378 8.99396 7.15065 9.19004 7.14785ZM9.92393 21.0218C8.97715 21.0218 8.33009 20.6436 7.98836 19.9069C8.23206 19.8425 8.47855 19.7361 8.72785 19.5764C8.91833 19.4588 8.97715 19.2095 8.85951 19.0218C8.85811 19.0204 8.8567 19.0183 8.8553 19.0162C8.8539 19.0141 8.8525 19.012 8.8511 19.0106C8.72225 18.8201 8.46175 18.7669 8.26847 18.8929C7.97435 19.0806 7.69704 19.1899 7.44214 19.1619C7.4274 19.1619 7.41457 19.1647 7.40142 19.1677C7.39208 19.1698 7.38258 19.1719 7.37211 19.1731C7.36651 19.1731 7.36091 19.1724 7.3553 19.1717C7.3497 19.171 7.3441 19.1703 7.3385 19.1703C4.06399 19.1703 3.80909 16.0834 3.80909 15.1394C3.80909 14.7613 3.86511 13.5512 4.47015 12.5568C4.54578 12.596 4.62701 12.6268 4.70825 12.6548C4.5906 13.3719 5.03598 13.8845 5.5962 14.0974L5.68864 14.131C5.90713 14.2095 6.14522 14.0974 6.22645 13.8817C6.30208 13.6689 6.19004 13.4364 5.97715 13.3607C5.97575 13.3607 5.97435 13.36 5.97295 13.3593C5.97155 13.3586 5.97015 13.3579 5.96875 13.3579L5.89592 13.3327C5.55138 13.2039 5.50937 12.9798 5.53458 12.8089C5.55418 12.8089 5.57449 12.8103 5.5948 12.8117C5.61511 12.8131 5.63542 12.8145 5.65502 12.8145C6.0836 12.8145 6.45614 12.7221 6.76987 12.5344C6.96315 12.4224 7.03037 12.1759 6.91833 11.9826C6.91693 11.9798 6.91553 11.9777 6.91413 11.9756C6.91273 11.9735 6.91133 11.9714 6.90993 11.9686C6.78668 11.7725 6.52897 11.7137 6.3329 11.8313C6.11161 11.963 5.81749 12.0134 5.46175 11.9826C5.1032 11.9518 4.8315 11.8537 4.64102 11.6941C3.87631 10.6633 3.81189 9.2739 3.81189 8.86493C3.81189 7.92096 4.06679 4.83412 7.42253 4.83412H7.42533C7.67463 4.82572 7.89872 4.87894 8.0976 4.99659C8.29648 5.11423 8.55138 5.04981 8.67463 4.85373C8.78948 4.66325 8.73065 4.41395 8.54018 4.29911C8.53738 4.29631 8.53177 4.2935 8.52897 4.2935C8.36371 4.19827 8.18444 4.12824 7.99956 4.08342C8.3441 3.35513 8.99116 2.98258 9.93234 2.98258C11.0836 2.98258 11.501 4.16185 11.5766 4.41395C11.5738 4.61003 11.5682 5.24308 11.5766 5.39995V6.38594H10.3245C10.1424 5.92376 9.69704 5.62124 9.20124 5.62404C8.53738 5.62404 7.99676 6.14785 7.99676 6.79771C7.99676 7.44757 8.53738 7.97138 9.20124 7.97138C9.71665 7.97138 10.1536 7.65205 10.3245 7.20667H11.5794V8.85093H7.12561C6.94354 8.38874 6.49816 8.08622 6.00236 8.08902C5.3385 8.08902 4.79788 8.61563 4.79788 9.26269C4.79788 9.90975 5.3385 10.4364 6.00236 10.4364C6.51777 10.4364 6.95474 10.117 7.12841 9.67166H11.5794V11.1226H9.22645C8.99676 11.1198 8.80909 11.3047 8.80629 11.5316V13.3243C8.3413 13.4896 8.02757 13.9266 8.02477 14.4196C8.02477 15.0666 8.56539 15.5932 9.22925 15.5932C9.89312 15.5932 10.4337 15.0666 10.4337 14.4196C10.4337 13.9154 10.106 13.4924 9.64942 13.3243V11.9406H11.5822V17.2767H6.54018V17.005C6.99676 16.8369 7.32449 16.4112 7.32449 15.9069C7.32449 15.2599 6.78388 14.7333 6.12001 14.7333C5.45614 14.7333 4.91553 15.2599 4.91553 15.9069C4.91553 16.4112 5.24326 16.8369 5.69984 17.005V17.6885C5.69984 17.9154 5.88752 18.0974 6.12001 18.0974H11.5822V18.6016C11.5822 18.7949 11.5766 19.512 11.5738 19.7445C11.4589 19.9994 10.9772 21.0218 9.92393 21.0218Z" fill="#313235"/>
</svg>
