<svg width="24" height="24" viewBox="0 0 24 24" fill="none" xmlns="http://www.w3.org/2000/svg">
<path fill-rule="evenodd" clip-rule="evenodd" d="M20.5306 14.9682C21.3794 15.8141 21.8192 16.7133 21.836 17.6376C21.8528 18.5928 21.4186 19.5396 20.5446 20.4556C20.2813 20.7189 19.9956 20.957 19.6903 21.1698C19.0376 21.6236 18.2813 21.8337 17.3934 21.8337C16.4998 21.8337 15.5054 21.618 14.4326 21.1895C12.2869 20.3379 9.9452 18.6768 7.66789 16.3995L7.59786 16.3295C7.59226 16.3239 7.58666 16.3176 7.58106 16.3113C7.57546 16.305 7.56985 16.2987 7.56425 16.2931C5.30655 14.0382 3.64828 11.6993 2.79114 9.5508C1.9396 7.41354 1.9368 5.5648 2.77994 4.34352L2.83876 4.26508C2.91159 4.16144 3.20851 3.74968 3.52784 3.44156C4.4466 2.56761 5.38498 2.13903 6.34856 2.15024C7.27013 2.16705 8.16929 2.60682 9.01803 3.45556C9.35417 3.7945 9.63148 4.14464 9.83876 4.50038C10.2981 5.24548 10.469 6.02979 10.3346 6.81971C10.2029 7.59282 9.77714 8.34632 9.07405 9.0494C8.9424 9.18105 8.84156 9.27349 8.71271 9.38273C8.74632 9.50038 8.84156 9.74127 9.12167 10.1502C9.6847 10.971 10.6343 11.9458 11.2953 12.6096L11.3766 12.6881C12.0404 13.3519 13.018 14.2987 13.836 14.8645C14.2477 15.1446 14.4886 15.2427 14.6035 15.2735C14.7127 15.1446 14.8079 15.0438 14.9396 14.9121C15.6427 14.2063 16.3934 13.7833 17.1693 13.6516C17.962 13.52 18.7435 13.6853 19.4998 14.1558C19.8416 14.3547 20.1945 14.632 20.5306 14.9682ZM19.9508 19.8897C20.6679 19.139 21.0264 18.3855 21.0152 17.6544C21.0012 16.9514 20.6427 16.2427 19.9508 15.5508C19.6903 15.2847 19.3962 15.0522 19.0769 14.8617C18.4858 14.4976 17.8976 14.3659 17.3065 14.464C16.7015 14.5676 16.1021 14.9149 15.5194 15.4948C15.3794 15.6348 15.2477 15.7805 15.1245 15.9374C15.0909 15.9794 15.0516 16.013 15.004 16.0382C14.6679 16.2259 14.1329 16.0662 13.371 15.5424C12.4942 14.9402 11.4802 13.957 10.7939 13.2707L10.7127 13.1923C10.0264 12.506 9.04324 11.4948 8.441 10.6152C7.91999 9.85612 7.75753 9.32391 7.9452 8.98497C7.97041 8.93735 8.00683 8.89534 8.04884 8.86172C8.23092 8.71606 8.33736 8.62083 8.49142 8.46957C9.07405 7.88693 9.42139 7.28469 9.52504 6.68245C9.62588 6.09422 9.49422 5.50318 9.13288 4.92335C8.9396 4.59842 8.70711 4.3015 8.4354 4.03819C7.74352 3.34352 7.03484 2.98497 6.33176 2.97377C5.62027 2.95696 4.84997 3.31831 4.09646 4.03819C3.86957 4.26508 3.66509 4.51438 3.48022 4.77769C2.77153 5.8001 2.80795 7.37713 3.55305 9.25108C4.36817 11.2959 5.96481 13.5396 8.16649 15.7413L8.16929 15.7441L8.23932 15.8141C10.4466 18.0214 12.6903 19.6152 14.7351 20.4304C16.5951 21.1726 18.1945 21.2063 19.1749 20.5284C19.5306 20.2735 19.7799 20.0662 19.9508 19.8897ZM12.7603 7.14184C12.7603 4.37153 14.1049 3.02699 16.8724 3.02699C19.6399 3.02699 20.9872 4.37153 20.9872 7.14184C20.9872 9.90934 19.6399 11.2539 16.8724 11.2539C14.0657 11.2539 12.7603 9.94576 12.7603 7.14184ZM16.8724 12.0746C13.7547 12.0746 11.9396 10.5032 11.9396 7.14183C11.9396 3.78049 13.7547 2.20626 16.8724 2.20626C19.99 2.20626 21.8079 3.78049 21.8079 7.14183C21.8079 10.5004 19.99 12.0718 16.8724 12.0746ZM14.9032 8.52559C14.7435 8.68525 14.7435 8.94576 14.9032 9.10542C14.9032 9.10822 14.906 9.10822 14.906 9.10822C15.0657 9.26789 15.3234 9.26508 15.483 9.10542L16.8668 7.71887L18.2589 9.11102C18.4186 9.27069 18.6791 9.27069 18.8388 9.11102C18.9984 8.95136 18.9984 8.69085 18.8388 8.53119L17.4494 7.13903L18.8416 5.74688C19.0012 5.58721 19.0012 5.32671 18.8416 5.16705C18.6819 5.00738 18.4214 5.00738 18.2617 5.16705L16.8696 6.5592L15.483 5.17265C15.3234 5.01298 15.0628 5.01298 14.9032 5.17265C14.7435 5.33231 14.7435 5.59282 14.9032 5.75248L16.2897 7.13903L14.9032 8.52559Z" fill="#313235"/>
</svg>
