<svg width="24" height="24" viewBox="0 0 24 24" fill="none" xmlns="http://www.w3.org/2000/svg">
<path fill-rule="evenodd" clip-rule="evenodd" d="M12.0031 21.8378C11.4371 21.8378 11.0718 21.1784 10.7165 20.5371L10.7062 20.5185C10.4933 20.1292 10.1992 19.5941 9.9835 19.5353C9.74933 19.474 9.23773 19.7817 8.82419 20.0303L8.81824 20.0339C8.17118 20.4261 7.55773 20.7958 7.08154 20.5185C6.59786 20.2389 6.61369 19.5184 6.63047 18.7553L6.63056 18.751L6.63093 18.7311C6.63933 18.2793 6.65056 17.6758 6.4877 17.5129C6.32473 17.3499 5.71777 17.3613 5.26849 17.3697L5.24961 17.3701C4.4849 17.3869 3.76221 17.4009 3.4821 16.9191C3.20789 16.4434 3.57653 15.8308 3.96541 15.1845L3.9667 15.1824L3.98007 15.1601C4.22705 14.7496 4.52857 14.2483 4.4653 14.0199C4.40647 13.8042 3.87146 13.5101 3.4821 13.2972L3.46878 13.2899C2.82309 12.9337 2.15997 12.5678 2.15997 12.0003C2.15997 11.4343 2.81946 11.069 3.46075 10.7137L3.4793 10.7034C3.86866 10.4905 4.40367 10.1964 4.46249 9.9807C4.52382 9.74654 4.21617 9.23494 3.96749 8.82141L3.96389 8.81544C3.57174 8.16838 3.20199 7.55493 3.4793 7.07874C3.75889 6.59506 4.47939 6.61089 5.2425 6.62767L5.24681 6.62776L5.26677 6.62813H5.26678C5.71856 6.63653 6.32205 6.64776 6.4849 6.4849C6.64787 6.32193 6.63652 5.71498 6.62811 5.26571L6.62776 5.24681C6.61095 4.4821 6.59695 3.75941 7.07874 3.4793C7.55441 3.20509 8.16703 3.57373 8.8133 3.96261L8.81544 3.96389L8.83767 3.97727L8.83767 3.97727C9.24826 4.22425 9.74955 4.52577 9.9779 4.46249C10.1936 4.40367 10.4877 3.86866 10.7006 3.4793L10.7111 3.4604C11.0692 2.81922 11.4372 2.15997 12.0031 2.15997C12.5691 2.15997 12.9345 2.81946 13.2898 3.46075L13.3 3.4793C13.5129 3.86866 13.807 4.40367 14.0227 4.46249C14.258 4.52412 14.7734 4.21319 15.1852 3.96389C15.8322 3.57174 16.4457 3.20199 16.9219 3.4793C17.4056 3.75889 17.3897 4.47939 17.373 5.24251L17.3729 5.24681L17.3725 5.26675C17.3641 5.71854 17.3529 6.32205 17.5157 6.4849C17.6787 6.64787 18.2856 6.63652 18.7349 6.62811L18.7538 6.62776C19.5185 6.61095 20.2412 6.59695 20.5213 7.07874C20.7955 7.55441 20.4269 8.16703 20.038 8.81331L20.0367 8.81544L20.0233 8.83767L20.0233 8.8377C19.7764 9.24829 19.4748 9.74955 19.5381 9.9779C19.5969 10.1936 20.132 10.4877 20.5213 10.7006C21.1712 11.0563 21.8406 11.4261 21.8406 11.9975C21.8406 12.5635 21.1812 12.9289 20.5399 13.2842L20.5213 13.2944C20.132 13.5073 19.5969 13.8014 19.5381 14.0171C19.4765 14.2524 19.7874 14.7678 20.0367 15.1796C20.4289 15.8266 20.7986 16.4401 20.5213 16.9163C20.2417 17.4 19.5212 17.3841 18.7581 17.3674L18.7538 17.3673L18.7339 17.3669C18.2821 17.3585 17.6786 17.3473 17.5157 17.5101C17.3527 17.6731 17.3641 18.28 17.3725 18.7293L17.3729 18.7482C17.3897 19.5129 17.4037 20.2356 16.9219 20.5157C16.4462 20.7899 15.8336 20.4213 15.1873 20.0324L15.1852 20.0311L15.1629 20.0177C14.7524 19.7708 14.2511 19.4692 14.0227 19.5325C13.807 19.5913 13.5129 20.1264 13.3 20.5157L13.2985 20.5186C12.9404 21.1703 12.5737 21.8378 12.0031 21.8378ZM9.91908 18.9695C9.9891 18.9695 10.0591 18.9779 10.1292 18.9975C10.5773 19.118 10.8799 19.667 11.1992 20.2524C11.4373 20.6866 11.765 21.2832 12.0031 21.2832C12.2412 21.2832 12.5689 20.6894 12.807 20.2524C13.1264 19.6698 13.4317 19.118 13.8771 18.9975C14.3364 18.8758 14.8778 19.1996 15.4553 19.545L15.4765 19.5577L15.4779 19.5586L15.4779 19.5586C15.8672 19.7939 16.4543 20.1486 16.6446 20.0395C16.8394 19.9254 16.8268 19.2389 16.8184 18.7795L16.8182 18.7706L16.8181 18.7661C16.8042 18.0927 16.791 17.4562 17.1236 17.1236C17.4569 16.7902 18.0955 16.8014 18.7706 16.8182L18.7973 16.8187C19.2565 16.8272 19.9296 16.8396 20.0395 16.6446C20.1486 16.4543 19.7939 15.8672 19.5586 15.4779L19.5586 15.4779L19.5577 15.4765C19.2048 14.8939 18.8715 14.342 18.9975 13.8771C19.118 13.4289 19.667 13.1264 20.2524 12.807C20.6866 12.5689 21.2832 12.2412 21.2832 12.0031C21.2832 11.765 20.6894 11.4373 20.2524 11.1992C19.6698 10.8799 19.118 10.5745 18.9975 10.1292C18.8758 9.6698 19.1996 9.12842 19.545 8.55095L19.5577 8.52972L19.5586 8.52836C19.7939 8.13899 20.1486 7.55191 20.0395 7.36165C19.9247 7.16558 19.23 7.17958 18.7706 7.19079L18.7661 7.19088C18.0927 7.20485 17.4562 7.21806 17.1236 6.88546C16.7902 6.55213 16.8014 5.91347 16.8182 5.2384L16.8187 5.21171C16.8272 4.75247 16.8396 4.07939 16.6446 3.9695C16.4543 3.86038 15.8672 4.21517 15.4779 4.45047L15.4765 4.45129C14.8939 4.80423 14.342 5.13756 13.8771 5.01151C13.4289 4.89107 13.1264 4.34205 12.807 3.75661C12.5689 3.32244 12.2412 2.7258 12.0031 2.7258C11.765 2.7258 11.4373 3.31964 11.1992 3.75661C10.8799 4.33924 10.5745 4.89107 10.1292 5.01151C10.0619 5.02832 9.99191 5.03953 9.91908 5.03672C9.50171 5.03672 9.02832 4.75101 8.52972 4.44849L8.52836 4.44767L8.52836 4.44766C8.13899 4.21237 7.55191 3.85758 7.36165 3.9667C7.16558 4.08154 7.17958 4.77622 7.19079 5.2356L7.19088 5.24008C7.20485 5.9135 7.21806 6.55007 6.88546 6.88266C6.55287 7.21526 5.9163 7.20205 5.24288 7.18808L5.2384 7.18798C4.77902 7.17678 4.08154 7.16277 3.9695 7.35885C3.86038 7.54911 4.21517 8.1362 4.45047 8.52556L4.45129 8.52692C4.80423 9.10955 5.13756 9.66137 5.01151 10.1264C4.89107 10.5745 4.34205 10.8771 3.75661 11.1964C3.32244 11.4345 2.7258 11.7622 2.7258 12.0003C2.7258 12.2384 3.31964 12.5661 3.75661 12.8042C4.33924 13.1236 4.89107 13.4289 5.01151 13.8743C5.13476 14.3392 4.80423 14.8883 4.45129 15.4737L4.44259 15.4882L4.44259 15.4882C4.20735 15.8802 3.86159 16.4564 3.9695 16.6418C4.0836 16.8366 4.7701 16.824 5.2295 16.8156L5.2384 16.8154L5.24288 16.8153C5.9163 16.8014 6.55287 16.7882 6.88546 17.1208C7.21806 17.4534 7.20485 18.0899 7.19088 18.7633L7.19079 18.7678C7.17958 19.2272 7.16558 19.9247 7.36165 20.0367C7.55191 20.1458 8.139 19.791 8.52837 19.5557L8.52972 19.5549C9.02552 19.2552 9.50171 18.9695 9.91908 18.9695ZM8.33084 16.3336C8.33084 16.4877 8.45689 16.6138 8.61095 16.6138C8.69779 16.6138 8.77902 16.5745 8.83224 16.5045L15.611 7.83784C15.7062 7.7174 15.6838 7.54093 15.5633 7.44569C15.4429 7.35045 15.2664 7.37286 15.1712 7.49331L8.38966 16.16C8.35045 16.2104 8.33084 16.272 8.33084 16.3336ZM8.50451 10.4625C8.77902 10.7286 9.17118 10.8631 9.66978 10.8631C10.1684 10.8631 10.5605 10.7286 10.835 10.4625C11.1208 10.188 11.2664 9.78462 11.2664 9.26642C11.2664 8.74821 11.1208 8.34485 10.835 8.07034C10.5605 7.80423 10.1684 7.66978 9.66978 7.66978C9.17118 7.66978 8.77902 7.80423 8.50451 8.07034C8.2188 8.34485 8.07314 8.74821 8.07314 9.26642C8.07314 9.78462 8.2188 10.188 8.50451 10.4625ZM9.66978 8.2328C8.95269 8.2328 8.63336 8.55213 8.63336 9.26922C8.63336 9.9863 8.95269 10.3056 9.66978 10.3056C10.3869 10.3056 10.7062 9.9863 10.7062 9.26922C10.7062 8.55213 10.3869 8.2328 9.66978 8.2328ZM13.1684 15.9247C13.4429 16.1908 13.835 16.3252 14.3336 16.3252C14.8322 16.3252 15.2244 16.1908 15.4961 15.9247C15.7818 15.6502 15.9275 15.2468 15.9275 14.7286C15.9275 14.2104 15.7818 13.807 15.4961 13.5325C15.2216 13.2664 14.8294 13.132 14.3308 13.132C13.8322 13.132 13.4401 13.2664 13.1656 13.5325C12.8827 13.807 12.737 14.2104 12.737 14.7286C12.737 15.2468 12.8827 15.6502 13.1684 15.9247ZM14.3336 13.695C13.6166 13.695 13.2972 14.0143 13.2972 14.7314C13.2972 15.4485 13.6166 15.7678 14.3336 15.7678C15.0507 15.7678 15.3701 15.4485 15.3701 14.7314C15.3701 14.0143 15.0507 13.695 14.3336 13.695Z" fill="#313235"/>
</svg>
