<svg width="24" height="24" viewBox="0 0 24 24" fill="none" xmlns="http://www.w3.org/2000/svg">
<path fill-rule="evenodd" clip-rule="evenodd" d="M5.16963 16.3846H18.8251C19.8391 16.3846 20.6094 16.0905 21.1164 15.5079C21.5954 14.9616 21.8363 14.1549 21.8363 13.1101V8.17173C21.8363 7.12692 21.5926 6.32019 21.1164 5.77397C20.6094 5.19414 19.8391 4.90002 18.8251 4.90002H5.16963C4.15563 4.90002 3.38532 5.19414 2.87832 5.77397C2.39932 6.32019 2.15843 7.12692 2.15843 8.17173V13.1101C2.15843 14.1549 2.39932 14.9616 2.87832 15.5107C3.38532 16.0905 4.15563 16.3846 5.16963 16.3846ZM2.71865 8.17453C2.71865 6.32299 3.49736 5.46025 5.16963 5.46025H18.8251C20.4974 5.46025 21.2761 6.32019 21.2761 8.17173V13.1129C21.2761 14.9644 20.4974 15.8272 18.8251 15.8272H5.16963C3.49736 15.8272 2.71865 14.9644 2.71865 13.1129V8.17453ZM21.5478 18.6031H2.43014C2.27607 18.6031 2.15002 18.4771 2.15002 18.323C2.15002 18.1689 2.27607 18.0429 2.43014 18.0429H21.5478C21.7018 18.0429 21.8279 18.1689 21.8279 18.323C21.8279 18.4771 21.7018 18.6031 21.5478 18.6031ZM10.5366 13.9841C10.9708 14.1269 11.4778 14.1997 12.0408 14.1997C13.1724 14.1997 14.0548 13.9112 14.6626 13.3398C15.2929 12.746 15.615 11.858 15.615 10.7067C15.615 9.85434 15.4403 9.14829 15.0933 8.59802C15.187 8.6237 15.2922 8.65277 15.4086 8.68493L15.4086 8.68494L15.4469 8.69554L15.6822 8.75997C15.8307 8.79918 15.9876 8.71235 16.0268 8.56389C16.066 8.41543 15.9792 8.26137 15.8307 8.21935L15.5954 8.15493C15.1416 8.02888 14.8671 7.95325 14.7271 7.92523C14.3181 7.844 14.0184 8.04008 13.9315 8.44624C13.8979 8.60311 13.8699 8.81039 13.8447 9.01207L13.8356 9.07887C13.8134 9.24304 13.7909 9.40913 13.7663 9.52748C13.7635 9.54708 13.7607 9.56669 13.7607 9.5863C13.7607 9.74036 13.8867 9.86641 14.0408 9.86641C14.1724 9.86641 14.2873 9.77397 14.3153 9.64512C14.3489 9.48546 14.3769 9.28098 14.4021 9.0821C14.4189 8.93928 14.4389 8.79489 14.4596 8.67372C14.8563 9.15511 15.0576 9.83803 15.0576 10.7067C15.0576 11.6983 14.7971 12.4462 14.2817 12.9308C13.7803 13.4014 13.0296 13.6395 12.0436 13.6395C11.5394 13.6395 11.0912 13.5751 10.713 13.4518C10.5702 13.4098 10.4189 13.4855 10.3685 13.6255C10.3153 13.7712 10.3909 13.9308 10.5366 13.9841ZM8.89227 12.6916C8.54203 12.1402 8.36571 11.4315 8.36571 10.5751C8.36571 9.42383 8.68504 8.53588 9.31809 7.94204C9.92593 7.37061 10.8083 7.0821 11.9399 7.0821C12.503 7.0821 13.0072 7.15493 13.4441 7.29498C13.5898 7.3482 13.6654 7.50787 13.6122 7.65353C13.5618 7.79078 13.4133 7.86921 13.2705 7.8272C12.8923 7.70395 12.4441 7.63952 11.9399 7.63952C10.9539 7.63952 10.2032 7.87762 9.70185 8.3482C9.18644 8.8328 8.92593 9.5807 8.92593 10.5723C8.92593 11.4368 9.12527 12.1173 9.51812 12.5983C9.53792 12.4804 9.5569 12.3421 9.57299 12.2053C9.5982 12.0065 9.62621 11.802 9.65983 11.6451C9.69624 11.4939 9.8475 11.4014 9.99596 11.4378C10.1416 11.4715 10.2341 11.6171 10.206 11.7628C10.1799 11.8884 10.1561 12.0654 10.1326 12.2412C10.1309 12.2535 10.1293 12.2659 10.1276 12.2782C10.1024 12.4799 10.0744 12.6871 10.0408 12.844C9.97075 13.1829 9.74386 13.3762 9.42734 13.3762C9.36851 13.3762 9.30969 13.3706 9.25086 13.3594C9.11081 13.3314 8.8363 13.2558 8.38252 13.1297L8.14722 13.0653C7.99596 13.0317 7.90072 12.8832 7.93434 12.732C7.96795 12.5807 8.11641 12.4855 8.26767 12.5191C8.27187 12.5205 8.27678 12.5219 8.28168 12.5233C8.28658 12.5247 8.29148 12.5261 8.29568 12.5275L8.53098 12.5919L8.57317 12.6036C8.69127 12.6362 8.79781 12.6656 8.89227 12.6916Z" fill="#313235"/>
</svg>
