<svg width="24" height="24" viewBox="0 0 24 24" fill="none" xmlns="http://www.w3.org/2000/svg">
<path fill-rule="evenodd" clip-rule="evenodd" d="M5.16951 16.3845H18.825C19.839 16.3845 20.6093 16.0904 21.1163 15.5077C21.5953 14.9615 21.8362 14.1548 21.8362 13.11V8.17161C21.8362 7.12679 21.5925 6.32007 21.1163 5.77385C20.6093 5.19402 19.839 4.8999 18.825 4.8999H5.16951C4.1555 4.8999 3.3852 5.19402 2.87819 5.77385C2.3992 6.32007 2.15831 7.12679 2.15831 8.17161V13.11C2.15831 14.1548 2.3992 14.9615 2.87819 15.5105C3.3852 16.0904 4.1555 16.3845 5.16951 16.3845ZM2.71853 8.17441C2.71853 6.32287 3.49724 5.46013 5.16951 5.46013H18.825C20.4972 5.46013 21.276 6.32007 21.276 8.17161V13.1128C21.276 14.9643 20.4972 15.8271 18.825 15.8271H5.16951C3.49724 15.8271 2.71853 14.9643 2.71853 13.1128V8.17441ZM21.5477 18.603H2.43001C2.27595 18.603 2.1499 18.4769 2.1499 18.3229C2.1499 18.1688 2.27595 18.0428 2.43001 18.0428H21.5477C21.7017 18.0428 21.8278 18.1688 21.8278 18.3229C21.8278 18.4769 21.7017 18.603 21.5477 18.603ZM10.5365 13.9839C10.9706 14.1268 11.4776 14.1996 12.0407 14.1996C13.1723 14.1996 14.0547 13.9111 14.6625 13.3397C15.2928 12.7458 15.6149 11.8579 15.6149 10.7066C15.6149 9.85422 15.4402 9.14817 15.0932 8.5979C15.1868 8.62358 15.2921 8.65265 15.4084 8.68481L15.4084 8.68482L15.4468 8.69542L15.6821 8.75985C15.8306 8.79906 15.9874 8.71223 16.0267 8.56377C16.0659 8.41531 15.979 8.26125 15.8306 8.21923L15.5953 8.1548C15.1415 8.02875 14.867 7.95312 14.7269 7.92511C14.318 7.84388 14.0182 8.03996 13.9314 8.44612C13.8978 8.60298 13.8698 8.81027 13.8446 9.01195L13.8355 9.07875C13.8133 9.24292 13.7908 9.40901 13.7661 9.52735C13.7633 9.54696 13.7605 9.56657 13.7605 9.58618C13.7605 9.74024 13.8866 9.86629 14.0407 9.86629C14.1723 9.86629 14.2872 9.77385 14.3152 9.645C14.3488 9.48534 14.3768 9.28085 14.402 9.08197C14.4188 8.93916 14.4388 8.79477 14.4595 8.6736C14.8562 9.15499 15.0575 9.8379 15.0575 10.7066C15.0575 11.6982 14.797 12.4461 14.2816 12.9307C13.7802 13.4013 13.0295 13.6394 12.0435 13.6394C11.5393 13.6394 11.0911 13.575 10.7129 13.4517C10.5701 13.4097 10.4188 13.4853 10.3684 13.6254C10.3152 13.7711 10.3908 13.9307 10.5365 13.9839ZM8.89215 12.6914C8.54191 12.1401 8.36559 11.4314 8.36559 10.575C8.36559 9.42371 8.68492 8.53576 9.31797 7.94192C9.92581 7.37049 10.8082 7.08198 11.9398 7.08198C12.5028 7.08198 13.007 7.1548 13.444 7.29486C13.5897 7.34808 13.6653 7.50775 13.6121 7.6534C13.5617 7.79066 13.4132 7.86909 13.2704 7.82707C12.8922 7.70382 12.444 7.6394 11.9398 7.6394C10.9538 7.6394 10.2031 7.87749 9.70172 8.34808C9.18632 8.83268 8.92581 9.58057 8.92581 10.5722C8.92581 11.4367 9.12514 12.1172 9.518 12.5981C9.5378 12.4803 9.55678 12.342 9.57287 12.2052C9.59808 12.0063 9.62609 11.8019 9.65971 11.645C9.69612 11.4937 9.84738 11.4013 9.99584 11.4377C10.1415 11.4713 10.2339 11.617 10.2059 11.7626C10.1798 11.8883 10.156 12.0653 10.1325 12.2411C10.1308 12.2534 10.1291 12.2657 10.1275 12.2781C10.1023 12.4797 10.0743 12.687 10.0407 12.8439C9.97063 13.1828 9.74374 13.3761 9.42721 13.3761C9.36839 13.3761 9.30957 13.3705 9.25074 13.3593C9.11069 13.3313 8.83618 13.2556 8.3824 13.1296L8.1471 13.0652C7.99584 13.0316 7.9006 12.8831 7.93422 12.7318C7.96783 12.5806 8.11629 12.4853 8.26755 12.5189C8.27175 12.5204 8.27665 12.5218 8.28156 12.5232C8.28646 12.5246 8.29136 12.526 8.29556 12.5274L8.53085 12.5918L8.57305 12.6034C8.69115 12.6361 8.79769 12.6655 8.89215 12.6914Z" fill="#313235"/>
</svg>
