<svg width="24" height="24" viewBox="0 0 24 24" fill="none" xmlns="http://www.w3.org/2000/svg">
<path fill-rule="evenodd" clip-rule="evenodd" d="M21.8351 9.43365L21.8267 19.4981C21.8351 19.5093 21.9443 20.2348 21.4681 20.8062C21.1404 21.1984 20.6362 21.4056 19.9695 21.4168C19.1488 21.4308 14.8939 21.4308 12.4317 21.428L12.3897 21.0191V21.428H9.6446C7.02275 21.428 4.56337 21.4252 4.03115 21.4168C3.36169 21.4056 2.85748 21.2012 2.52975 20.8062C2.05356 20.2348 2.16281 19.5093 2.17681 19.428L2.16281 9.43925C2.18521 8.49247 2.56337 8.03029 2.87709 7.8062L3.00874 7.72216L10.4485 3.01908C10.4487 3.01899 10.449 3.01878 10.4494 3.01845C10.4781 2.99877 11.1131 2.5625 11.9919 2.5625C12.5522 2.5653 13.0984 2.72777 13.569 3.03309L21.104 7.79779C21.4345 8.03309 21.8127 8.49807 21.8351 9.43365ZM3.33928 8.48407L10.9079 3.69975C11.2384 3.49527 11.6194 3.38323 12.0059 3.38043C12.6054 3.38043 13.0539 3.67199 13.1055 3.70551L13.1096 3.70816L20.6446 8.47286C20.8771 8.63813 21.0031 8.97707 21.0143 9.44205V9.46446C21.0093 9.46649 21.0039 9.46814 20.9983 9.46984C20.9886 9.47282 20.9785 9.4759 20.9695 9.48127L12.9331 14.4925C12.597 14.7138 12.2384 14.8258 11.8715 14.8258C11.2864 14.8258 10.8465 14.5406 10.7763 14.4951L10.7678 14.4897L2.98353 9.57931V9.45046C2.99474 8.97707 3.12359 8.63813 3.33928 8.48407ZM20.8351 20.2852C20.667 20.4869 20.3701 20.5933 19.9555 20.6017C19.1404 20.6157 14.8939 20.6157 12.4289 20.6129H12.3897C8.72023 20.6157 4.71463 20.6129 4.04516 20.6017C3.63059 20.5933 3.33648 20.4897 3.16841 20.288C2.94169 20.017 2.98165 19.6247 2.99284 19.515L2.99474 19.4953L2.98633 10.5457L10.3057 15.1647L10.3072 15.1659C10.3521 15.1975 10.9853 15.6437 11.8715 15.6437C12.4009 15.6437 12.9107 15.4869 13.3785 15.1815L21.0143 10.4168L21.0115 19.5653L21.0119 19.5687C21.0166 19.61 21.0622 20.01 20.8351 20.2852Z" fill="#313235"/>
</svg>
