<svg width="24" height="24" viewBox="0 0 24 24" fill="none" xmlns="http://www.w3.org/2000/svg">
<path fill-rule="evenodd" clip-rule="evenodd" d="M21.8458 17.6473C21.829 16.7258 21.3893 15.8266 20.5405 14.9779C20.2044 14.6417 19.8514 14.3672 19.5041 14.1711C18.7506 13.7033 17.9691 13.5325 17.1736 13.6669C16.4005 13.7986 15.6498 14.2215 14.9439 14.9274C14.8094 15.0591 14.717 15.1599 14.6078 15.2888C14.4901 15.2552 14.2492 15.1599 13.8402 14.8798C13.0251 14.3196 12.0475 13.3672 11.3809 12.7033L11.2996 12.6221C10.633 11.9554 9.68058 10.9723 9.12596 10.1627C8.84585 9.75096 8.74781 9.51287 8.717 9.39522C8.84305 9.29158 8.96349 9.17953 9.07834 9.06189C9.78142 8.356 10.2072 7.6053 10.3388 6.82939C10.4733 6.03668 10.3052 5.25236 9.84305 4.50727C9.63856 4.15432 9.36125 3.80418 9.02512 3.46525C8.17638 2.61651 7.27722 2.17673 6.35565 2.15993C5.39207 2.15712 4.45369 2.57449 3.54053 3.44844C3.23399 3.74165 2.95029 4.1287 2.81009 4.31996L2.81009 4.31997L2.78982 4.3476C1.94669 5.57169 1.94949 7.42043 2.80103 9.55769C3.65817 11.7033 5.31644 14.0451 7.59655 16.3252L7.61335 16.342L7.67778 16.4064C9.95509 18.6865 12.2968 20.3476 14.4453 21.2019C15.5181 21.6305 16.5125 21.8462 17.4061 21.8462C18.2912 21.8462 19.0475 21.6333 19.633 21.2272C19.6582 21.2103 19.6834 21.1935 19.7086 21.1739C19.8571 21.0675 20.2548 20.779 20.5545 20.4652C21.4313 19.5493 21.8627 18.6025 21.8458 17.6473ZM21.0251 17.6641C21.0363 18.3952 20.6806 19.1459 19.9607 19.8994C19.7142 20.1571 19.3472 20.4232 19.1876 20.5381C18.2016 21.2188 16.605 21.1823 14.7478 20.44C12.703 19.6277 10.4593 18.0311 8.25201 15.8238L8.18198 15.7538L8.16798 15.7398C5.9719 13.5409 4.38086 11.2972 3.56574 9.25797C2.81784 7.38402 2.78422 5.80698 3.49291 4.78458C3.67498 4.51847 3.88226 4.27197 4.10915 4.04508C4.84585 3.3392 5.58254 2.98065 6.29963 2.98065H6.34165C7.04473 2.99466 7.75341 3.3532 8.44529 4.04508C8.71419 4.30839 8.94949 4.6053 9.14277 4.93023C9.50411 5.50727 9.63576 6.0983 9.53492 6.68934C9.43128 7.29158 9.08394 7.89382 8.50131 8.47645C8.34725 8.63051 8.24361 8.72575 8.06153 8.86861C8.01952 8.90222 7.9831 8.94424 7.95789 8.99186C7.76742 9.32799 7.92988 9.86301 8.45089 10.6277C9.04473 11.4933 10.0307 12.5129 10.7226 13.2047L10.8038 13.2832C11.4901 13.9722 12.5069 14.9582 13.3781 15.5549C14.1428 16.0787 14.675 16.244 15.0139 16.0507C15.0587 16.0255 15.0979 15.9919 15.1316 15.9498C15.2548 15.793 15.3865 15.6445 15.5265 15.5073C16.1092 14.9246 16.7114 14.5745 17.3136 14.4737C17.9075 14.3756 18.4985 14.5073 19.0867 14.8714C19.4061 15.0619 19.7002 15.2944 19.9607 15.5605C20.6526 16.2524 21.0111 16.961 21.0251 17.6641ZM13.9775 8.40923C13.8711 8.49046 13.8206 8.57449 13.8094 8.67253C13.7954 8.77337 13.8262 8.87701 13.8935 8.95544L14.8402 10.0087C14.9271 10.1207 15.0195 10.1711 15.1204 10.1795C15.2156 10.1879 15.3108 10.1571 15.3809 10.0899L17.9215 7.90502C18.0895 7.75937 18.3444 7.77337 18.4929 7.94144L19.0503 8.55769C19.0811 8.5941 19.154 8.65012 19.2296 8.63051C19.3136 8.6053 19.3416 8.51567 19.35 8.47925L20.1568 4.70334C20.1764 4.63332 20.1596 4.55769 20.112 4.50166C20.0671 4.45404 20.0027 4.42603 19.9383 4.42883H19.9187L16.0867 4.72015C16.0391 4.72295 15.9523 4.74256 15.9215 4.81819C15.8907 4.89662 15.9411 4.96945 15.9719 5.00306L16.5209 5.61371C16.6722 5.78458 16.6582 6.04508 16.4873 6.19634C16.4901 6.19914 13.9775 8.40923 13.9775 8.40923ZM13.2856 9.50446L14.21 10.5297C14.4117 10.7986 14.717 10.9694 15.0531 10.9975C15.3781 11.0311 15.7002 10.919 15.9355 10.6977L18.154 8.79018L18.4369 9.11231C18.6862 9.39522 19.0727 9.51847 19.4397 9.42603C19.7982 9.33079 20.0699 9.03388 20.1512 8.65292L20.9579 4.87701C21.0307 4.54368 20.9467 4.21035 20.7282 3.96105C20.5293 3.73416 20.2436 3.6053 19.9355 3.6053L19.8486 3.60811L16.0195 3.90502C15.6246 3.93584 15.294 4.17113 15.1568 4.51567C15.0195 4.86301 15.0979 5.26077 15.3613 5.55488L15.6358 5.85741L13.4649 7.76777C13.4341 7.79018 13.4033 7.81539 13.3753 7.8406C12.8907 8.27477 12.8514 9.01987 13.2856 9.50446Z" fill="#313235"/>
</svg>
