<svg width="24" height="24" fill="none" xmlns="http://www.w3.org/2000/svg"><path fill-rule="evenodd" clip-rule="evenodd" d="M20.25 8.525c.017-2.11-.537-3.7-1.621-4.726a5.502 5.502 0 0 0-2.535-1.266 15.894 15.894 0 0 0-3.748-.37H5.909a.41.41 0 0 0-.409.41v18.86a.41.41 0 0 0 .409.408h4.275a.408.408 0 0 0 .408-.409v-6.1H13.2a10.295 10.295 0 0 0 3.26-.46 5.265 5.265 0 0 0 2.284-1.493 7.096 7.096 0 0 0 1.507-4.854Zm-.798-.009a6.353 6.353 0 0 1-1.297 4.305 4.401 4.401 0 0 1-1.94 1.267 9.382 9.382 0 0 1-3.015.417h-3.014a.407.407 0 0 0-.406.409v6.112H6.315V2.98h6.03c1.205-.025 2.41.09 3.586.345a4.765 4.765 0 0 1 2.143 1.09c.913.82 1.378 2.237 1.378 4.1ZM13.895 5.44c.454.09.874.3 1.221.608.605.698.9 1.614.815 2.535a3.696 3.696 0 0 1-.888 2.69c-.31.316-.697.548-1.123.672a6.65 6.65 0 0 1-1.63.165h-2.104a.405.405 0 0 1-.406-.409V5.687c0-.227.182-.409.406-.409h1.998a7.643 7.643 0 0 1 1.711.162Zm1.216 3.166a2.924 2.924 0 0 1-.645 2.084c-.21.218-.473.378-.767.46-.473.108-.958.153-1.443.14h-1.658V6.095h1.588c.513 0 1.023.056 1.524.165.303.06.585.202.815.41a2.63 2.63 0 0 1 .586 1.935Z" fill="#313235"/></svg>