<svg width="24" height="24" viewBox="0 0 24 24" fill="none" xmlns="http://www.w3.org/2000/svg">
<path fill-rule="evenodd" clip-rule="evenodd" d="M11.9975 21.8378C5.56336 21.8378 2.16 18.4373 2.16 12.0003C2.16 5.56333 5.56056 2.15997 11.9975 2.15997C15.1376 2.15997 17.5718 2.9723 19.2356 4.57734C20.9611 6.24121 21.8379 8.7398 21.8379 12.0003C21.8407 18.4345 18.4373 21.8378 11.9975 21.8378ZM11.9975 2.7202C5.84348 2.7202 2.72023 5.84345 2.72023 12.0003C2.72023 18.1544 5.84068 21.2776 11.9975 21.2776C18.1572 21.2776 21.2777 18.1572 21.2777 12.0003C21.2805 5.84065 18.1572 2.7202 11.9975 2.7202ZM14.9975 16.4233C14.8435 16.4233 14.7174 16.2972 14.7174 16.1432V7.80983C14.7174 7.65577 14.8435 7.52972 14.9975 7.52972C15.1516 7.52972 15.2777 7.65577 15.2777 7.80983V16.1432C15.2777 16.2972 15.1516 16.4233 14.9975 16.4233ZM8.95272 16.4513C8.79866 16.4513 8.67261 16.3252 8.67261 16.1712V7.83784C8.67261 7.68378 8.79866 7.55773 8.95272 7.55773C9.10678 7.55773 9.23283 7.68378 9.23283 7.83784V16.1712C9.23283 16.3252 9.10678 16.4513 8.95272 16.4513Z" fill="#313235"/>
</svg>
