<svg xmlns="http://www.w3.org/2000/svg" width="24" height="24" fill="none"><path fill="#0B2739" d="M14.998 16.423a.28.28 0 0 1-.28-.28V7.81a.28.28 0 0 1 .28-.28c.154 0 .28.126.28.28v8.333c0 .154-.126.28-.28.28M8.953 16.451a.28.28 0 0 1-.28-.28V7.838a.28.28 0 0 1 .28-.28.28.28 0 0 1 .28.28v8.333c0 .154-.126.28-.28.28"/><path fill="#0B2739" d="M11.998 21.838c-6.435 0-9.838-3.4-9.838-9.838s3.4-9.84 9.838-9.84c3.14 0 5.574.812 7.238 2.417C20.96 6.241 21.838 8.74 21.838 12c.003 6.435-3.4 9.838-9.84 9.838m0-19.118C5.844 2.72 2.72 5.843 2.72 12c0 6.154 3.12 9.278 9.278 9.278 6.16 0 9.28-3.12 9.28-9.278.003-6.16-3.12-9.28-9.28-9.28"/></svg>