<svg width="24" height="24" viewBox="0 0 24 24" fill="none" xmlns="http://www.w3.org/2000/svg">
<path fill-rule="evenodd" clip-rule="evenodd" d="M7.82947 21.8743H19.9359C20.258 21.8743 20.583 21.8743 20.9079 21.8771C21.4737 21.8771 21.7987 21.5493 21.7987 20.9835V7.79464C21.8042 7.71676 21.7771 7.63702 21.7174 7.57734L16.3813 2.24121C16.3543 2.21563 16.323 2.19509 16.2888 2.18107C16.2559 2.16748 16.22 2.15997 16.1824 2.15997C13.2384 2.15997 8.47653 2.15997 7.82947 2.16558C7.24684 2.16558 6.91351 2.49891 6.91351 3.07594V3.95766C5.44915 4.00692 4.29944 4.42213 3.49894 5.19639C2.61098 6.05353 2.16 7.33644 2.16 9.00871C2.16 10.681 2.61098 11.9639 3.49894 12.821C4.29893 13.5922 5.44769 14.0096 6.9107 14.0596V20.9499C6.9107 21.5437 7.23844 21.8743 7.82947 21.8743ZM15.9023 2.723C12.9471 2.723 8.45952 2.723 7.82947 2.7258C7.55776 2.7258 7.47373 2.80703 7.47373 3.07594V3.95643C8.95678 3.99955 10.1199 4.41523 10.9275 5.19639C11.8155 6.05353 12.2664 7.33644 12.2664 9.00871C12.2664 10.681 11.8155 11.9639 10.9275 12.821C10.1193 13.6001 8.95761 14.0182 7.47093 14.0611V20.9499C7.47093 21.2356 7.54936 21.314 7.82947 21.314H20.9079C21.1628 21.314 21.2384 21.2356 21.2412 20.9807V8.05913C19.5298 8.05913 18.5213 8.05913 18.244 8.05633C17.5819 8.05379 17.0403 7.83908 16.6457 7.44359C16.1686 6.96744 15.9054 6.22801 15.9023 5.28042V2.723ZM16.4625 3.11796L16.4625 5.28042C16.4653 6.10395 16.6978 7.4877 18.2412 7.49611C18.3246 7.49611 18.4726 7.49633 18.6849 7.49665C19.1269 7.49733 19.8471 7.49842 20.8406 7.49879L16.4625 3.11796ZM10.2328 18.0479H18.5129C18.667 18.0479 18.7931 17.9219 18.7931 17.7678C18.7931 17.6138 18.667 17.4877 18.5129 17.4877H10.2328C10.0788 17.4877 9.95272 17.6138 9.95272 17.7678C9.95272 17.9219 10.0788 18.0479 10.2328 18.0479ZM18.5129 14.7706H11.3897C11.2356 14.7706 11.1096 14.6446 11.1096 14.4905C11.1096 14.3364 11.2356 14.2104 11.3897 14.2104H18.5157C18.6698 14.2104 18.7959 14.3364 18.7959 14.4905C18.7959 14.6446 18.667 14.7706 18.5129 14.7706ZM13.1768 11.4933H18.5129C18.667 11.4933 18.7931 11.3673 18.7931 11.2132C18.7931 11.0591 18.667 10.9331 18.5129 10.9331H13.1768C13.0227 10.9331 12.8967 11.0591 12.8967 11.2132C12.8967 11.3673 13.0227 11.4933 13.1768 11.4933ZM7.21322 4.51291C5.75384 4.51291 4.63619 4.87986 3.88549 5.59975C3.10958 6.34765 2.71743 7.49331 2.71743 9.00871C2.71743 10.5241 3.10958 11.6698 3.88549 12.4177C4.63339 13.1404 5.75384 13.5045 7.21322 13.5045C8.67261 13.5045 9.79026 13.1404 10.541 12.4177C11.3141 11.6698 11.709 10.5241 11.709 9.00871C11.709 7.49331 11.3169 6.34765 10.541 5.59975C9.79306 4.87706 8.67261 4.51291 7.21322 4.51291ZM7.45132 11.8091V12.328C7.45132 12.4821 7.32527 12.6082 7.17121 12.6082C7.01715 12.6082 6.8911 12.4821 6.8911 12.328V11.8261C6.34282 11.7911 5.81394 11.6097 5.35888 11.2944C5.24404 11.2132 5.18801 11.1124 5.18801 10.9807C5.19082 10.7874 5.34768 10.6334 5.54096 10.6362C5.62499 10.639 5.70622 10.6642 5.77345 10.7118C6.14513 10.9596 6.51877 11.104 6.8911 11.145V9.26169C5.59191 9.07726 5.31687 8.33641 5.31687 7.74261C5.31687 6.82709 5.92753 6.21447 6.8911 6.1374V5.84625C6.8911 5.69219 7.01715 5.56614 7.17121 5.56614C7.32527 5.56614 7.45132 5.69219 7.45132 5.84625V6.14808C7.85651 6.19237 8.23058 6.31329 8.52975 6.49891C8.66421 6.58014 8.73703 6.69779 8.73703 6.82384C8.73703 7.00871 8.58577 7.15997 8.4009 7.15997C8.32527 7.15717 8.25524 7.13476 8.18801 7.10115L8.18521 7.09835C7.93683 6.96098 7.69729 6.87418 7.45132 6.832V8.63044C8.19424 8.73673 9.05076 9.09464 9.05076 10.1712C9.05574 11.0828 8.4517 11.6865 7.45132 11.8091ZM7.45132 9.34117V11.1307C8.01756 11.0366 8.35608 10.698 8.35608 10.202C8.35608 9.86294 8.2424 9.5007 7.45132 9.34117ZM6.8911 6.81192C6.34402 6.87351 6.01154 7.2025 6.01154 7.70339C6.01154 8.01608 6.11767 8.38645 6.8911 8.54857V6.81192Z" fill="#313235"/>
</svg>
