<svg xmlns="http://www.w3.org/2000/svg" width="24" height="24" fill="none"><path fill="#0B2739" d="m20.543 3.522.083.084c.448.465 2.552 2.922-.117 5.566L9.024 20.587l-.007.003c-.003 0-.005 0-.007.002a.104.104 0 0 0-.006.01.053.053 0 0 1-.008.013.416.416 0 0 1-.294.12.075.075 0 0 1-.021-.004c-.007-.002-.014-.004-.021-.004L2.64 21.83a.41.41 0 0 1-.485-.465l.959-6.224c0-.005.003-.008.005-.012a.039.039 0 0 0 .006-.01.368.368 0 0 1 .104-.205L14.783 3.486c2.093-2.07 4.26-1.426 5.591-.132.058.056.114.112.169.168M19.09 9.416l.83-.824c2.016-1.997.745-3.756.106-4.42l-.11-.11c-.04-.042-.082-.085-.123-.125-.652-.633-2.386-1.885-4.423.126l-.846.837zM4.335 20.685l-1.073-1.062-.199 1.294zm1.79-3.49 9.83-9.723-2.015-1.995L4.111 15.2zm-2.709 1.42 1.905 1.888 2.515-.462-4.025-3.98zm5.286 1.129 9.807-9.746-1.97-1.946-9.829 9.722z"/></svg>