<svg xmlns="http://www.w3.org/2000/svg" width="24" height="24" fill="none"><path fill="#000" d="M11.992 6.577c-.698 0-1.241-.185-1.617-.546-.392-.378-.59-.936-.59-1.664s.198-1.289.59-1.667c.376-.364.92-.549 1.617-.549s1.243.185 1.621.55c.393.377.591.94.591 1.666 0 .725-.198 1.286-.59 1.664-.379.361-.925.546-1.622.546M10.952 3.3c-.224.215-.336.574-.336 1.067q0 .74.334 1.064.325.313 1.042.314.716-.001 1.044-.314c.225-.213.337-.571.337-1.061 0-.493-.115-.852-.34-1.067-.218-.21-.568-.317-1.041-.317-.474 0-.824.106-1.04.314m-2.047 6.857h6.182v-.154c0-.336-.07-.813-.403-1.16-.37-.386-.936-.465-1.342-.465h-2.695c-.409 0-.972.081-1.342.465-.333.345-.4.824-.4 1.16zm-.583.835a.253.253 0 0 1-.252-.253v-.736c0-.703.219-1.306.633-1.737.451-.47 1.123-.72 1.941-.72h2.695c.818 0 1.49.25 1.944.72.415.434.636 1.034.636 1.737v.736c0 .138-.112.25-.25.253zM4.7 15.212q0 .742.334 1.065c.215.208.565.314 1.042.314.476 0 .826-.104 1.042-.314q.336-.324.336-1.061c0-.49-.112-.85-.336-1.065q-.33-.316-1.042-.316-.718-.002-1.042.31c-.222.216-.334.575-.334 1.068m1.373 2.211c-.698 0-1.241-.185-1.62-.546-.391-.378-.587-.936-.587-1.664 0-.726.198-1.286.588-1.664.375-.364.921-.549 1.619-.549.697 0 1.244.185 1.619.549.392.378.59.941.59 1.667 0 .725-.198 1.285-.59 1.664-.375.358-.919.543-1.62.543m3.095 3.426c0-.336-.07-.813-.403-1.157-.37-.384-.936-.465-1.345-.465H4.728c-.409 0-.975.081-1.339.465-.333.347-.4.82-.4 1.16v.154c-.003-.003 6.179-.003 6.179-.003zM7.42 18.392c.82 0 1.493.25 1.944.72.417.434.636 1.036.636 1.737v.736c0 .14-.112.252-.252.252H2.403a.25.25 0 0 1-.252-.252v-.736c0-.703.219-1.303.633-1.737.451-.47 1.124-.723 1.941-.723zm9.118-3.185q0 .741.333 1.062c.216.207.566.314 1.04.314q.715-.002 1.044-.314.336-.325.336-1.062 0-.74-.336-1.067-.328-.312-1.045-.314c-.473 0-.823.107-1.039.314q-.332.326-.333 1.067m-.247 1.664q-.588-.569-.588-1.664c0-.728.196-1.288.588-1.666.376-.364.922-.55 1.616-.55.698 0 1.244.186 1.622.55.395.378.591.938.591 1.666 0 .726-.198 1.286-.59 1.664q-.57.544-1.623.546c-.694 0-1.24-.184-1.616-.546m4.715 3.972c0-.336-.07-.812-.404-1.157-.37-.384-.935-.465-1.344-.465h-2.692c-.41 0-.972.081-1.34.465-.333.348-.4.821-.4 1.16V21h6.18zm.193-1.737c.417.435.638 1.034.638 1.737v.737c0 .14-.111.252-.252.252h-7.344a.25.25 0 0 1-.252-.252v-.737c0-.703.218-1.305.633-1.737.45-.47 1.123-.72 1.941-.72h2.695c.818 0 1.49.25 1.94.72m-7.297-2.585a.418.418 0 0 0 .437-.712l-1.941-1.187v-2.258a.418.418 0 0 0-.835 0v2.258l-1.944 1.19a.414.414 0 0 0-.137.572.414.414 0 0 0 .571.137l1.925-1.177z"/></svg>