<svg width="24" height="24" fill="none" xmlns="http://www.w3.org/2000/svg"><path d="M9.35 4.479c0 1.473.872 2.32 2.387 2.32 1.518 0 2.39-.847 2.39-2.32 0-.75-.22-1.336-.65-1.74-.415-.389-1-.588-1.74-.588-.742 0-1.328.2-1.74.588-.428.404-.647.99-.647 1.74Zm.844 0c0-.521.128-.908.389-1.151.252-.236.639-.356 1.157-.356.515 0 .902.12 1.154.359.26.243.392.63.392 1.148 0 1.025-.493 1.501-1.549 1.501-1.053 0-1.543-.479-1.543-1.501Zm5.887 10.507a.526.526 0 0 1-.4-.05.512.512 0 0 1-.24-.278l-.539-2.893c-.039-.21-.224-.345-.45-.336a.416.416 0 0 0-.384.409v8.655a.528.528 0 0 1-.53.527.529.529 0 0 1-.532-.527v-5.16a.418.418 0 0 0-.423-.409h-1.188a.414.414 0 0 0-.42.41v5.156a.53.53 0 0 1-1.062 0v-8.655a.414.414 0 0 0-.383-.41c-.23-.01-.415.127-.454.337l-.532 2.865a.503.503 0 0 1-.247.309.516.516 0 0 1-.406.05h-.006a.523.523 0 0 1-.372-.636l1.21-4.336a.308.308 0 0 0 .034-.092.159.159 0 0 1 .004-.015l.007-.022c.182-.865.977-1.493 1.888-1.493h2.664c.913 0 1.708.628 1.888 1.493l.016.056c.012.04.026.079.042.115l1.196 4.289a.526.526 0 0 1-.381.642Zm.241.787a1.341 1.341 0 0 0 .956-1.641l-1.185-4.264a.869.869 0 0 0-.056-.17c-.27-1.233-1.404-2.127-2.706-2.127h-2.664c-1.303 0-2.44.894-2.709 2.132a.825.825 0 0 0-.047.14l-1.2 4.294-.002.009a1.34 1.34 0 0 0 .97 1.63 1.39 1.39 0 0 0 1.403-.41v5.127c0 .742.616 1.347 1.372 1.347.756 0 1.373-.605 1.373-1.347v-4.75h.336v4.747a1.36 1.36 0 0 0 1.372 1.348c.757 0 1.373-.605 1.373-1.348v-5.123a1.396 1.396 0 0 0 1.414.406Z" fill="#313235"/></svg>