<svg width="24" height="24" viewBox="0 0 24 24" fill="none" xmlns="http://www.w3.org/2000/svg">
<path fill-rule="evenodd" clip-rule="evenodd" d="M11.8452 4.22685L12.0049 4.07559C14.5623 1.52097 17.3746 1.52097 19.9264 4.07839C22.4446 6.591 22.4839 9.36691 20.0385 11.8907L11.932 19.9972C11.8732 20.0616 11.8172 20.1204 11.7528 20.1736C10.5623 21.2885 9.31018 21.8459 8.05248 21.8459C6.70794 21.8459 5.3578 21.2072 4.07769 19.9243C1.52307 17.3697 1.52027 14.5574 4.07209 12.0056L4.23175 11.8431C4.3494 11.7198 4.46425 11.6022 4.58189 11.4986L11.5203 4.55738C11.5884 4.4756 11.6805 4.38645 11.7772 4.29291C11.7997 4.27112 11.8224 4.24908 11.8452 4.22685ZM16.1141 14.6358C16.0693 14.633 16.0245 14.6386 15.9797 14.6498C14.6855 15.0616 13.1533 14.3977 11.425 12.6666C9.70514 10.9467 9.0945 9.05318 9.49786 7.76467C9.51747 7.69744 10.397 6.81789 12.1337 5.12601C12.2051 5.04343 12.2837 4.96796 12.3637 4.8911L12.3637 4.89109C12.3841 4.8715 12.4045 4.85181 12.425 4.83189L12.5959 4.66382C13.7163 3.54618 14.8424 2.98595 15.9684 2.98595C17.0945 2.98595 18.2205 3.54618 19.3382 4.66382C21.5427 6.86831 21.5763 9.1008 19.4446 11.3025L16.1141 14.6358ZM11.4082 19.3417L11.327 19.4229C11.2878 19.4677 11.243 19.5098 11.1981 19.549C9.03567 21.5742 6.8396 21.5042 4.66873 19.3361C2.43063 17.098 2.42783 14.8319 4.66032 12.5994L4.83119 12.4201L4.83311 12.4181C4.92767 12.318 5.0197 12.2205 5.14212 12.1148L8.49786 8.75906C8.44464 10.14 9.21495 11.647 10.8284 13.2605C12.3662 14.8011 13.8144 15.5826 15.1421 15.605L11.4082 19.3417Z" fill="#313235"/>
</svg>
