<svg xmlns="http://www.w3.org/2000/svg" width="24" height="24" fill="none"><path fill="#0B2739" d="m15.791 2.424 5.785 5.812a.9.9 0 0 1 .266.636c0 .216-.084.42-.236.574-.767.77-1.59 1.219-2.467 1.35l-2.715 2.732c.39 2.036-.319 3.977-2.109 5.775-.255.255-.518.367-.798.367s-.546-.112-.745-.313l-3.745-3.773-6.146 6.134-.003.003a.422.422 0 0 1-.6-.006.429.429 0 0 1 .003-.605l6.138-6.134-3.67-3.695a1.058 1.058 0 0 1 .003-1.49l.333.271-.3-.302c2.23-2.244 4.331-2.437 5.765-2.165l2.715-2.731c.123-.877.557-1.698 1.296-2.44.188-.188.387-.269.6-.269a.899.899 0 0 1 .63.269Zm2.852 7.658a.415.415 0 0 1 .255-.123c.736-.079 1.44-.448 2.092-1.1l-5.798-5.827c-.67.644-1.028 1.341-1.098 2.075a.437.437 0 0 1-.123.26l-2.98 3.004a.423.423 0 0 1-.399.112c-1.787-.432-3.537.204-5.201 1.882l-.031.03a.196.196 0 0 0-.006.281l3.955 3.98a.122.122 0 0 0 .009.005l.017.012a.113.113 0 0 1 .007.013l.007.012 4.022 4.054c.04.039.092.061.146.061.056 0 .109-.022.145-.061 1.687-1.7 2.303-3.454 1.885-5.27a.433.433 0 0 1 .113-.4l2.983-3Z"/></svg>