<svg width="24" height="24" fill="none" xmlns="http://www.w3.org/2000/svg"><path d="M19.42 2.156c.605.033 1.19.344 1.692.902 1.028 1.143.96 2.442-.182 3.473-.244.219-3.006 2.74-3.709 3.384l1.392 8.854a.41.41 0 0 1-.224.434l-1.442.706c0 .003-.003.003-.003.003a.413.413 0 0 1-.546-.196l-3.017-6.353a49.813 49.813 0 0 0-2.174 2.092c-.773.78-1.392 1.401-2.46 2.236l.239 3.103a.408.408 0 0 1-.23.4l-1.25.603a.41.41 0 0 1-.528-.16l-1.83-3.078-2.812-1.849a.41.41 0 0 1-.118-.568l.704-1.073a.406.406 0 0 1 .372-.185l2.854.207c.805-1.024 1.435-1.636 2.217-2.396l.016-.015a49.584 49.584 0 0 0 2.117-2.157L4.157 7.59c-.017-.009-.034-.017-.05-.028a.412.412 0 0 1-.127-.566l.902-1.434a.426.426 0 0 1 .406-.188l8.79 1.294c.706-.764 3.286-3.543 3.566-3.795.555-.502 1.168-.76 1.776-.717Zm-3.045 7.67a.41.41 0 0 1 .13-.368S20.103 6.17 20.38 5.92c.795-.717.837-1.518.12-2.313-.358-.398-.736-.611-1.126-.63-.384-.012-.787.15-1.185.51-.21.187-2.305 2.433-3.66 3.898a.417.417 0 0 1-.36.126L5.432 6.226l-.51.812 6.43 2.972a.412.412 0 0 1 .132.647 49.7 49.7 0 0 1-2.53 2.608c-.81.787-1.449 1.409-2.292 2.498a.401.401 0 0 1-.353.16l-2.832-.207-.347.532 2.549 1.675c.05.034.095.079.126.132l1.686 2.837.658-.316-.235-3.042a.411.411 0 0 1 .16-.359c1.13-.867 1.753-1.496 2.541-2.289l.01-.01a51.148 51.148 0 0 1 2.62-2.493.405.405 0 0 1 .355-.096c.126.028.233.11.289.227l3.07 6.474.795-.39-1.378-8.773Z" fill="#313235"/></svg>