<svg width="24" height="24" fill="none" xmlns="http://www.w3.org/2000/svg"><path fill-rule="evenodd" clip-rule="evenodd" d="M15.415 3.714h1.849c.714 0 1.3.56 1.3 1.252V6.89a.444.444 0 0 1-.015.107c-.106 1.792-1.215 2.767-3.134 2.767-.692 0-1.266-.14-1.742-.39-.482.911-.804 1.903-1.006 2.676h4.003c.717 0 1.3.56 1.3 1.246v1.493c0 .664-.55 1.205-1.233 1.238l-.549 4.773c.003.555-.504 1.043-1.129 1.043H8.933c-.622 0-1.131-.488-1.131-1.087l-.544-4.729c-.683-.033-1.232-.574-1.232-1.238v-1.493c0-.686.582-1.246 1.297-1.246h3.963a.02.02 0 0 0-.003-.009.02.02 0 0 1-.002-.008c-.166-1.854-.541-3.204-.975-4.185-.482.25-1.05.375-1.714.375-1.93 0-3.042-.988-3.14-2.784a.481.481 0 0 1-.014-.103V3.414c0-.695.585-1.258 1.305-1.258h1.854c2.034 0 3.154 1.076 3.157 3.031 0 .807-.204 1.479-.613 1.994-.009.006-.014.014-.02.023l-.115.126c.44.933.818 2.19 1.03 3.838.239-.776.547-1.572.95-2.306l-.215-.269c-.342-.515-.504-1.129-.504-1.857 0-1.921 1.145-3.022 3.148-3.022Zm-6.82 3.692c-1.485 0-2.236-.673-2.295-2.037a.315.315 0 0 0-.011-.09V3.414a.45.45 0 0 1 .457-.443H8.6c1.552 0 2.305.726 2.305 2.219 0 .54-.117.986-.339 1.339-1.028-1.644-2.162-1.967-2.243-1.986a.426.426 0 0 0-.513.286.409.409 0 0 0 .289.5h.005c.017.004.964.3 1.835 1.796-.356.185-.807.28-1.345.28Zm9.117-.575a.353.353 0 0 0-.011.076c-.059 1.375-.807 2.042-2.286 2.042-.538 0-.972-.098-1.32-.277.55-.815 1.258-1.488 2.169-1.743a.405.405 0 0 0 .29-.5l-.002-.007a.428.428 0 0 0-.526-.277c-1.084.305-1.919 1.036-2.569 1.958-.224-.35-.339-.807-.339-1.367 0-1.485.754-2.207 2.3-2.207h1.846a.441.441 0 0 1 .45.431l-.002 1.871Zm-.594 6.465v1.493a.44.44 0 0 1-.448.432H7.323a.438.438 0 0 1-.449-.429V13.3a.44.44 0 0 1 .449-.431h9.347a.437.437 0 0 1 .448.428Zm-2.056 7.731c.154 0 .28-.123.28-.271l.535-4.72H8.11l.538 4.678c.002.19.128.313.285.313h6.13Z" fill="#313235"/></svg>