<svg width="24" height="24" viewBox="0 0 24 24" fill="none" xmlns="http://www.w3.org/2000/svg">
<path fill-rule="evenodd" clip-rule="evenodd" d="M11.9976 21.8378C5.5634 21.8378 2.16003 18.4373 2.16003 12.0003C2.16003 5.56333 5.56059 2.15997 11.9976 2.15997C15.1376 2.15997 17.5718 2.9723 19.2357 4.57734C20.9612 6.24121 21.8379 8.7398 21.8379 12.0003C21.8407 18.4345 18.4373 21.8378 11.9976 21.8378ZM11.9976 2.7202C5.84351 2.7202 2.72026 5.84345 2.72026 12.0003C2.72026 18.1544 5.84071 21.2776 11.9976 21.2776C18.1572 21.2776 21.2777 18.1572 21.2777 12.0003C21.2805 5.84065 18.1572 2.7202 11.9976 2.7202ZM8.95555 16.3252C8.91073 16.3252 8.86592 16.314 8.8267 16.2916C8.74547 16.244 8.69785 16.16 8.69785 16.0675V7.83504C8.69785 7.74261 8.74827 7.65577 8.8267 7.61095C8.90793 7.56333 9.00597 7.56333 9.0872 7.61095L16.2161 11.7258C16.2973 11.7734 16.3449 11.8575 16.3449 11.9499C16.3449 12.0423 16.2945 12.1292 16.2161 12.174L9.0844 16.2916C9.04519 16.314 9.00037 16.3252 8.95555 16.3252ZM9.21606 8.28602V15.6166L15.5634 11.9527L9.21606 8.28602Z" fill="#313235"/>
</svg>
