<svg xmlns="http://www.w3.org/2000/svg" width="24" height="24" fill="none"><path fill="#0B2739" d="M11.995 2.155c6.443 0 9.846 3.406 9.846 9.846 0 6.437-3.403 9.84-9.846 9.84-6.437 0-9.84-3.403-9.84-9.84 0-6.44 3.403-9.846 9.84-9.846m0 18.866c5.99 0 9.023-3.034 9.023-9.02 0-5.989-3.037-9.022-9.023-9.022S2.975 6.012 2.975 12c0 5.983 3.037 9.02 9.02 9.02m3.12-3.88a.206.206 0 0 0-.204-.204v-.003h-5.31c1.058-1.003 1.428-1.793 1.428-2.95 0-.574-.087-1.17-.266-1.778h2.42a.206.206 0 0 0 .204-.205v-.409a.206.206 0 0 0-.204-.205h-2.678c-.199-.633-.386-1.366-.386-2.103 0-1.602.87-2.381 2.658-2.381.546 0 1.238.073 1.947.207a.22.22 0 0 0 .17-.045.2.2 0 0 0 .073-.156v-.376a.21.21 0 0 0-.143-.196c-.72-.224-1.641-.302-2.21-.302-2.199 0-3.409 1.16-3.409 3.263 0 .812.188 1.585.379 2.157l-.936.064a.203.203 0 0 0-.19.205V12c0 .112.092.205.204.205H9.83c.207.658.303 1.207.303 1.764 0 .793-.188 1.468-1.126 2.373-.457.442-.647.627-.647.994a.74.74 0 0 0 .07.336c.036.07.106.112.184.112h6.297a.206.206 0 0 0 .205-.204z"/></svg>