<svg xmlns="http://www.w3.org/2000/svg" width="24" height="24" fill="none"><path fill="#313235" d="M12 18.042c-1.921 0-3.417-.501-4.44-1.487C6.5 15.53 5.959 13.998 5.959 12c0-1.664.376-3.01 1.115-4.005.726-.972 1.793-1.605 3.18-1.88a.28.28 0 0 1 .33.221.28.28 0 0 1-.221.331c-2.55.507-3.843 2.303-3.843 5.336 0 3.639 1.843 5.482 5.481 5.482 3.639 0 5.485-1.843 5.485-5.482 0-3.073-1.33-4.877-3.95-5.356a.28.28 0 0 1 .101-.549c1.42.26 2.518.886 3.264 1.86.761.998 1.148 2.359 1.148 4.048 0 1.997-.54 3.53-1.602 4.555-1.028.98-2.524 1.481-4.446 1.481Z"/><path fill="#313235" d="M11.72 8.967c0 .154.126.28.28.28.154 0 .28-.126.28-.28V4.869a.281.281 0 0 0-.28-.28.28.28 0 0 0-.28.28v4.098Z"/><path fill="#313235" d="M2.16 12c0 6.437 3.403 9.838 9.838 9.838 6.44 0 9.843-3.404 9.84-9.838 0-3.26-.877-5.759-2.602-7.423-1.664-1.605-4.098-2.417-7.238-2.417C5.56 2.16 2.16 5.563 2.16 12Zm.56 0c0-6.156 3.124-9.28 9.278-9.28 6.16 0 9.283 3.12 9.28 9.28 0 6.157-3.12 9.278-9.28 9.278-6.157 0-9.278-3.124-9.278-9.278Z"/></svg>