<svg xmlns="http://www.w3.org/2000/svg" width="24" height="24" fill="none"><path fill="#0B2739" d="M11.998 2.155c6.415 0 9.843 3.395 9.843 9.843s-3.395 9.843-9.843 9.843-9.843-3.395-9.843-9.843 3.395-9.843 9.843-9.843m0 18.866c5.964 0 9.023-3.034 9.023-9.023s-3.026-9.022-9.023-9.022-9.022 3.059-9.022 9.022c0 5.964 3.025 9.023 9.022 9.023m.41-16.404a.407.407 0 0 0-.41-.378.408.408 0 0 0-.409.409v3.087a.41.41 0 0 0 .41.409.417.417 0 0 0 .408-.41zm-4.264 7.325a.41.41 0 0 1-.41.41h-3.12a.41.41 0 0 1 0-.819h3.118a.408.408 0 0 1 .412.41m1.087 2.76a.411.411 0 0 0-.58-.029s-2.174 2.182-2.171 2.182a.41.41 0 0 0 .286.695.381.381 0 0 0 .31-.123l2.157-2.149.017-.017a.394.394 0 0 0-.017-.557zm2.711 1.128a.41.41 0 0 1 .41.41v3.075a.41.41 0 0 1-.819 0v-3.076a.406.406 0 0 1 .41-.409m5.518 1.081-2.182-2.182a.41.41 0 0 0-.574 0l-.003.003a.41.41 0 0 0 .003.58l2.185 2.182c.076.076.18.115.286.115a.42.42 0 0 0 .285-.115l.003-.003a.411.411 0 0 0-.003-.58m1.855-5.291a.41.41 0 0 1 0 .818h-3.076a.41.41 0 0 1 0-.818zM14.732 9.3a.435.435 0 0 0 .294.116.471.471 0 0 0 .255-.115l2.216-2.182a.412.412 0 0 0 .003-.535.411.411 0 0 0-.578-.048l-2.19 2.182a.42.42 0 0 0 0 .583"/></svg>