<svg width="24" height="24" fill="none" xmlns="http://www.w3.org/2000/svg"><path d="M3.434 21.404h12.83c.697 0 1.266-.585 1.266-1.31V17.58c.21.036.425.059.638.064.115 0 .227 0 .286-.008 1.558-.023 3.378-.98 3.378-3.602 0-2.597-1.748-3.572-3.38-3.62h-.3c-.135 0-.356.012-.622.057V8.276c0-.723-.569-1.309-1.266-1.309h-2.958a5.21 5.21 0 0 0 .061-.798c0-2.6-1.748-3.574-3.392-3.619h-.294c-1.622.02-3.356.98-3.356 3.6 0 .274.023.546.065.817H3.437c-.703 0-1.274.589-1.274 1.309v2.596c0 .123.05.238.14.322.087.081.204.12.325.11.123-.012.227-.017.294-.02h.277c.137.005.504.022.913.168 1.101.347 1.659 1.216 1.659 2.585 0 1.365-.558 2.236-1.664 2.589a3.005 3.005 0 0 1-.919.15c-.073.01-.157.01-.23.01-.078 0-.193-.01-.325-.026a.42.42 0 0 0-.33.107.437.437 0 0 0-.143.322v2.907c0 .72.571 1.308 1.274 1.308Zm-.43-1.308v-2.448c.075.003.15 0 .223-.008a3.62 3.62 0 0 0 1.135-.188c.843-.269 2.252-1.067 2.252-3.412 0-2.347-1.412-3.143-2.238-3.406a3.917 3.917 0 0 0-1.154-.21h-.219V8.281a.438.438 0 0 1 .431-.442H6.92a.42.42 0 0 0 .339-.177.441.441 0 0 0 .062-.386 3.85 3.85 0 0 1-.154-1.118c0-2.44 1.764-2.726 2.518-2.737h.277c.77.02 2.563.33 2.563 2.754 0 .406-.05.764-.154 1.1a.441.441 0 0 0 .062.387.42.42 0 0 0 .339.177h3.493a.434.434 0 0 1 .423.442v2.745a.431.431 0 0 0 .17.35c.11.082.25.107.379.065.411-.138.778-.152.916-.152h.282c.776.026 2.558.342 2.558 2.754 0 2.507-1.953 2.728-2.585 2.74-.07.005-.157.005-.225.005a3.194 3.194 0 0 1-.94-.165.404.404 0 0 0-.382.056.429.429 0 0 0-.176.35v3.067a.434.434 0 0 1-.423.443H3.434a.438.438 0 0 1-.43-.443Z" fill="#313235"/></svg>