<svg width="24" height="24" viewBox="0 0 24 24" fill="none" xmlns="http://www.w3.org/2000/svg">
<path fill-rule="evenodd" clip-rule="evenodd" d="M3.43442 21.4044H16.2636C16.961 21.4044 17.5297 20.819 17.5297 20.0935V17.5809C17.7397 17.6173 17.9554 17.6397 18.1683 17.6453H18.1684C18.2832 17.6453 18.3952 17.6453 18.454 17.6369C20.0115 17.6145 21.8322 16.6565 21.8322 14.0346C21.8322 11.438 20.0843 10.4632 18.4512 10.4156H18.1515C18.0171 10.4156 17.7958 10.4268 17.5297 10.4716V8.27554C17.5297 7.55285 16.961 6.96742 16.2636 6.96742H13.3056C13.3448 6.71531 13.3672 6.44921 13.3672 6.1691C13.3672 3.56966 11.6193 2.59487 9.97504 2.55005H9.68092C8.05907 2.56966 6.32518 3.53044 6.32518 6.14949C6.32518 6.424 6.34759 6.69571 6.3896 6.96742H3.43722C2.73414 6.96742 2.16271 7.55565 2.16271 8.27554V10.8722C2.16271 10.9954 2.21313 11.1103 2.30277 11.1943C2.3896 11.2755 2.50725 11.3148 2.6277 11.3035C2.75095 11.2923 2.85459 11.2867 2.92182 11.2839H3.19913C3.33638 11.2895 3.70333 11.3064 4.11229 11.452C5.21313 11.7993 5.77056 12.6677 5.77056 14.0374C5.77056 15.4016 5.21313 16.2727 4.10669 16.6257C3.70893 16.7601 3.35879 16.7741 3.18792 16.7769C3.11509 16.7853 3.03106 16.7853 2.95823 16.7853C2.8798 16.7853 2.76495 16.7769 2.6333 16.7601C2.51285 16.7461 2.39241 16.7853 2.30277 16.8666C2.21313 16.9478 2.15991 17.0655 2.15991 17.1887V20.0963C2.15991 20.8162 2.73134 21.4044 3.43442 21.4044ZM3.00305 20.0963V17.6481C3.07868 17.6509 3.15431 17.6481 3.22714 17.6397C3.61369 17.6369 3.99745 17.5753 4.36159 17.452C5.20473 17.1831 6.61369 16.3848 6.61369 14.0402C6.61369 11.6929 5.20193 10.8974 4.3756 10.6341C3.91902 10.4744 3.51005 10.4352 3.22154 10.424H3.00305V8.28114C3.00025 8.04024 3.19353 7.84137 3.43442 7.83856H6.91902C7.05347 7.83856 7.17952 7.77134 7.25795 7.66209C7.33638 7.55005 7.36159 7.40719 7.31958 7.27554C7.21874 6.94501 7.16551 6.56686 7.16551 6.15789C7.16551 3.71812 8.93022 3.4324 9.68372 3.4212H9.96103C10.7313 3.44081 12.5241 3.75173 12.5241 6.1747C12.5241 6.58086 12.4736 6.9394 12.37 7.27554C12.328 7.40719 12.3532 7.55005 12.4316 7.66209C12.5101 7.77134 12.6361 7.83856 12.7706 7.83856H16.2636C16.5016 7.84417 16.6921 8.04305 16.6865 8.28114V11.0262C16.6837 11.1635 16.7481 11.2923 16.8574 11.3764C16.9666 11.4576 17.1067 11.4828 17.2355 11.4408C17.6473 11.3035 18.0143 11.2895 18.1515 11.2895H18.4344C19.2103 11.3148 20.9918 11.6313 20.9918 14.043C20.9918 16.55 19.0395 16.7713 18.4064 16.7825C18.3364 16.7881 18.2495 16.7881 18.1823 16.7881C17.9554 16.7797 17.6081 16.7517 17.2411 16.6229C17.1123 16.5753 16.9694 16.5977 16.8602 16.6789C16.7481 16.7601 16.6837 16.889 16.6837 17.029V20.0963C16.6893 20.3344 16.4988 20.5332 16.2608 20.5388H3.43442C3.19633 20.5388 3.00305 20.34 3.00305 20.0963Z" fill="#313235"/>
</svg>
