<svg width="24" height="24" viewBox="0 0 24 24" fill="none" xmlns="http://www.w3.org/2000/svg">
<path fill-rule="evenodd" clip-rule="evenodd" d="M21.8363 12.0184C21.8363 2.85591 13.9764 2.20044 12.3937 2.15843C12.206 2.15002 11.9764 2.15002 11.7635 2.15002H11.4918C2.601 2.23126 2.15002 10.3377 2.15002 11.9595C2.15002 13.5814 2.60941 21.7046 11.559 21.8279C11.6486 21.8363 11.7466 21.8363 11.8446 21.8363H11.8447C11.9502 21.8363 12.0565 21.8341 12.1593 21.8319H12.1594H12.1595C12.2558 21.8299 12.3491 21.8279 12.4357 21.8279C14.0016 21.7971 21.8363 21.1892 21.8363 12.0184ZM21.0156 12.0184C21.0156 20.2145 14.4357 20.9652 12.4189 21.0072C12.337 21.0072 12.2495 21.008 12.159 21.0089H12.159H12.1589C11.9679 21.0108 11.7631 21.0129 11.5674 21.0072C9.55058 20.9848 2.97075 20.2453 2.97075 11.9595C2.97075 3.69064 9.50297 2.98756 11.503 2.97075C11.7887 2.97075 12.108 2.97075 12.3797 2.97916C14.4049 3.02678 21.0156 3.82229 21.0156 12.0184ZM11.5842 16.8447C11.9792 16.8447 12.2313 17.0996 12.2313 17.5002V17.5646C12.2313 17.9483 11.9764 18.2032 11.5842 18.2032C11.15 18.2032 10.8951 17.9483 10.8951 17.5646V17.5002C10.8951 17.0996 11.15 16.8447 11.5422 16.8447H11.5842ZM15.0856 8.64862C15.0856 7.67383 14.7803 7.01837 14.1164 6.53378C13.601 6.14162 12.8783 5.94274 11.9652 5.93714C11.1024 5.93714 10.178 6.11641 9.81669 6.28168C9.72706 6.32369 9.67664 6.41333 9.69344 6.51137L9.75787 6.86431C9.77467 6.91473 9.80549 6.96235 9.8475 6.99596C9.89792 7.02958 9.95675 7.03798 10.0128 7.02117C10.6682 6.86431 11.192 6.79148 11.7663 6.79148C12.8727 6.79148 13.3069 7.02117 13.5534 7.21725C13.9876 7.56179 14.1752 7.99036 14.1752 8.62902C14.1752 9.48896 13.8811 10.0156 12.4301 11.7271L12.2593 11.9315C11.3181 13.0548 11.0464 13.6626 11.0464 14.6122C11.0464 14.8503 11.0632 15.0408 11.0968 15.2201C11.122 15.3209 11.2032 15.3853 11.3013 15.3853H11.7495C11.8643 15.3853 11.9539 15.2929 11.9539 15.1808C11.9539 13.6234 12.0604 13.4918 13.4217 11.9259C14.601 10.5254 15.0856 9.8363 15.0856 8.64862Z" fill="#313235"/>
</svg>
