<svg width="24" height="24" fill="none" xmlns="http://www.w3.org/2000/svg"><path fill-rule="evenodd" clip-rule="evenodd" d="M20.725 4.5c.703 0 1.275.555 1.275 1.235v12.53c0 .68-.572 1.235-1.275 1.235H3.275C2.572 19.503 2 18.948 2 18.268V5.738c0-.683.572-1.235 1.275-1.235 0-.003 17.45-.003 17.45-.003ZM2.834 5.738a.435.435 0 0 1 .44-.427h17.451a.435.435 0 0 1 .441.427v2.04H2.834v-2.04Zm18.332 12.527c0 .236-.199.427-.44.427l-17.451.003a.435.435 0 0 1-.441-.427V8.587h18.332v9.678ZM5.676 6.603c.006.316.265.57.581.563.322 0 .58-.253.58-.563a.57.57 0 0 0-.58-.563.572.572 0 0 0-.58.563ZM8 7.166a.57.57 0 0 1-.58-.56v-.003c0-.31.258-.563.58-.563.321 0 .58.25.58.563 0 .31-.259.563-.58.563Zm-4.061-.563c.006.316.265.57.58.563.322 0 .581-.253.581-.563a.57.57 0 0 0-.58-.563.572.572 0 0 0-.581.563Zm9.118 6.77.595-.586-.8-.117a.7.7 0 0 1-.512-.367L12 11.61l-.339.688a.686.686 0 0 1-.518.373l-.796.117.591.583c.151.148.223.376.188.58l-.133.795.68-.362a.691.691 0 0 1 .637-.005l.692.367-.137-.794a.691.691 0 0 1 .19-.578Zm1.354-.837a.527.527 0 0 0-.424-.352l-1.027-.151c-.004 0-.007-.004-.01-.006l-.001-.003-.464-.947a.53.53 0 0 0-.956 0l-.464.947-.002.003c-.003.002-.005.006-.01.006l-1.035.15a.527.527 0 0 0-.425.353.529.529 0 0 0 .129.553l.748.736c.003.003.006.012.006.02l-.177 1.042a.525.525 0 0 0 .222.527c.086.062.19.093.299.093a.544.544 0 0 0 .25-.062l.928-.492v-.003H12l.003.001s.001.002.003.002l.925.492a.524.524 0 0 0 .549-.031.525.525 0 0 0 .222-.527l-.177-1.042c0-.008.003-.017.006-.02l.751-.736a.53.53 0 0 0 .128-.553Zm4.485.837.595-.586-.8-.117a.7.7 0 0 1-.512-.367l-.338-.694-.336.688a.686.686 0 0 1-.518.373l-.797.117.592.583a.67.67 0 0 1 .188.58l-.134.795.68-.362a.691.691 0 0 1 .637-.005l.692.367-.134-.794a.687.687 0 0 1 .185-.578Zm1.358-.837a.534.534 0 0 0-.427-.352l-1.025-.151c-.004 0-.007-.004-.009-.006l-.002-.003-.464-.947a.53.53 0 0 0-.956 0l-.464.947-.002.003c-.002.002-.005.006-.01.006l-1.035.15a.527.527 0 0 0-.424.353.53.53 0 0 0 .128.553l.748.736c.003.003.006.012.006.02l-.176 1.042a.525.525 0 0 0 .222.527c.085.062.19.093.298.093a.545.545 0 0 0 .25-.062l.926-.492v-.003h.003l.005.003.928.492a.524.524 0 0 0 .55-.031.524.524 0 0 0 .221-.527l-.176-1.042c0-.008.003-.017.005-.02l.752-.736a.53.53 0 0 0 .128-.553Zm-13.037.837.595-.586-.8-.117a.7.7 0 0 1-.512-.367l-.338-.694-.34.688a.686.686 0 0 1-.517.373l-.797.117.592.583a.67.67 0 0 1 .188.58l-.137.795.68-.362a.691.691 0 0 1 .638-.005l.691.367-.136-.794a.702.702 0 0 1 .193-.578Zm1.355-.837a.527.527 0 0 0-.424-.352s-1.036-.151-1.03-.148c-.005 0-.007-.004-.01-.007l-.002-.002-.464-.948a.53.53 0 0 0-.956 0l-.464.948s0 .002-.002.002c-.002.003-.005.007-.009.007l-1.036.15a.526.526 0 0 0-.424.353.529.529 0 0 0 .128.552l.749.737c.002.003.005.012.005.02l-.176 1.042a.531.531 0 0 0 .774.558l.928-.493v-.002h.005c.001.002.002.002.003.002l.925.493a.524.524 0 0 0 .55-.032.524.524 0 0 0 .221-.526l-.176-1.042c-.003-.008 0-.017.006-.02l.75-.74a.53.53 0 0 0 .129-.552Z" fill="#313235"/></svg>