<svg xmlns="http://www.w3.org/2000/svg" width="24" height="24" fill="none"><path fill="#0B2739" d="M15.33 18.27c0-.34.195-.497.498-.497.302 0 .498.157.498.496q-.002.244-.125.364c-.087.09-.216.132-.373.132s-.286-.042-.373-.132c-.08-.08-.126-.201-.126-.364"/><path fill="#0B2739" d="M19.06 20.776h-6.467c-.877 0-1.56-.232-2.034-.686-.49-.474-.74-1.177-.74-2.087V5.992c0-.91.25-1.614.74-2.087.476-.454 1.16-.686 2.034-.686h6.467c.877 0 1.56.232 2.034.686.49.473.74 1.177.74 2.087V18c0 .91-.25 1.614-.74 2.087-.473.457-1.157.69-2.034.69M12.593 3.78c-1.488 0-2.213.723-2.213 2.213V18c0 1.49.722 2.213 2.213 2.213h6.467c1.49 0 2.213-.723 2.213-2.213V5.992c0-1.49-.722-2.213-2.213-2.213zM5.03 19.278c0-.202.117-.297.3-.297.181 0 .299.095.299.297 0 .098-.022.165-.076.218q-.08.08-.224.079a.32.32 0 0 1-.224-.079c-.047-.048-.075-.12-.075-.218"/><path fill="#0B2739" d="M3.7 20.748h3.484c.479 0 .857-.132 1.117-.386.275-.266.415-.653.415-1.152v-6.224c0-.498-.137-.885-.415-1.151-.263-.258-.641-.387-1.12-.387H3.696c-.479 0-.854.132-1.12.387-.275.266-.415.653-.415 1.151v6.224c0 .499.14.886.418 1.152.263.257.641.386 1.12.386m0-8.74h3.484c.675 0 .977.303.977.978v6.224c0 .675-.302.978-.977.978H3.699c-.675 0-.978-.303-.978-.978v-6.224c0-.675.303-.977.978-.977M7.088 7.597a.28.28 0 0 0 .463.213c.084-.07.82-.703.944-.827.319-.316.316-.686-.006-1.008a22 22 0 0 0-.883-.787L7.55 5.14a.28.28 0 1 0-.365.426c.007.005.446.378.733.642h-.5c-.877 0-1.56.23-2.034.686-.49.473-.74 1.176-.74 2.087v1.098c0 .154.127.28.281.28a.28.28 0 0 0 .28-.283V8.98c0-1.488.726-2.213 2.213-2.213h.479c-.198.175-.496.433-.712.616a.28.28 0 0 0-.098.213"/></svg>