<svg width="24" height="24" viewBox="0 0 24 24" fill="none" xmlns="http://www.w3.org/2000/svg">
<path fill-rule="evenodd" clip-rule="evenodd" d="M10.4588 2.5763C10.4588 2.34941 10.274 2.16734 10.0499 2.16734C9.82299 2.17014 9.64092 2.35221 9.64652 2.5763V7.40543H8.28518V2.53989C8.27397 2.3158 8.0835 2.13933 7.85941 2.15053C7.63532 2.16173 7.45885 2.35221 7.47005 2.5763V7.40263H6.21515V2.5763C6.21795 2.35501 6.04428 2.17294 5.82299 2.16454H5.81459C5.5961 2.15613 5.41123 2.3298 5.40283 2.54829C5.40002 2.5651 5.40002 2.5735 5.40002 10.1169C5.40002 10.6239 5.68294 11.0077 6.05549 11.0077H6.68854C6.25717 13.9965 5.61011 19.3746 5.5989 19.4783C5.5989 21.1925 6.81179 21.8172 7.8482 21.834H8.03868C9.07509 21.8144 10.2852 21.1897 10.2824 19.4503L10.2761 19.3899C10.2188 18.8323 9.77774 14.5442 9.26277 11.0077H9.80619C10.1759 11.0077 10.4588 10.6239 10.4588 10.1169V2.5763ZM9.64092 10.1197C9.64092 10.1449 9.64092 10.1701 9.63532 10.1925H8.77818C8.74176 10.1925 8.70535 10.1981 8.67173 10.2066C8.45605 10.2654 8.33 10.4895 8.38882 10.7052C8.91573 14.194 9.3749 18.6287 9.45283 19.3814L9.45284 19.3815L9.45284 19.3815C9.46025 19.453 9.46421 19.4913 9.46445 19.4923C9.46445 20.7976 8.55969 21.0077 8.01907 21.0189H7.85381C7.31319 21.0105 6.40843 20.8004 6.40563 19.5287L6.42679 19.3556C6.54916 18.3508 7.17203 13.2359 7.55689 10.6659C7.5905 10.4474 7.44204 10.243 7.22635 10.2038C7.20114 10.1981 7.14232 10.1897 7.11711 10.1897H6.21515C6.21235 10.1673 6.20955 10.1421 6.20955 10.1169V8.22056H9.64092V10.1197ZM16.2936 21.0189C16.8174 21.0077 17.6941 20.8032 17.6941 19.5399C17.6937 19.5399 17.6854 19.4611 17.6701 19.3159L17.67 19.3154C17.589 18.5473 17.3125 15.9255 16.9687 13.2878C16.9602 13.257 16.9574 13.2234 16.9574 13.1897V13.1729C16.9574 13.0077 17.0555 12.8648 17.1983 12.7976V3.03568C15.7362 3.24297 14.6465 4.49507 14.6465 5.97406V12.7808H15.1227C15.3468 12.7808 15.5317 12.9657 15.5317 13.1897C15.5317 13.1981 15.531 13.215 15.5303 13.2318L15.5303 13.2319C15.5296 13.2487 15.5289 13.2654 15.5289 13.2738C15.1479 16.1365 14.7334 19.5735 14.7334 19.5763C14.7362 20.8088 15.6129 21.0133 16.1339 21.0189H16.2936ZM18.5065 19.5007C18.5037 19.4699 18.2123 16.5679 17.823 13.5371C17.9434 13.4615 18.0135 13.3298 18.0135 13.1925V2.60151C18.0135 2.37462 17.8314 2.19255 17.6073 2.19255C15.5205 2.19535 13.8314 3.88722 13.8314 5.97406V13.1897C13.8314 13.4166 14.0135 13.5987 14.2376 13.5987H14.6577C14.2936 16.369 13.9182 19.4811 13.9154 19.5287C13.9154 21.2122 15.1031 21.8228 16.1199 21.8368H16.3076C17.3216 21.8172 18.5093 21.2066 18.5065 19.5007Z" fill="#313235"/>
</svg>
