<svg width="24" height="24" fill="none" xmlns="http://www.w3.org/2000/svg"><path fill-rule="evenodd" clip-rule="evenodd" d="M10.459 2.576a.41.41 0 0 0-.41-.409.403.403 0 0 0-.402.41v4.828H8.285V2.54a.41.41 0 0 0-.426-.39.41.41 0 0 0-.389.426v4.827H6.215V2.576a.407.407 0 0 0-.392-.411h-.008a.4.4 0 0 0-.412.383c-.003.017-.003.026-.003 7.569 0 .507.283.89.655.89h.634c-.432 2.99-1.079 8.368-1.09 8.471 0 1.714 1.213 2.34 2.25 2.356h.19c1.036-.02 2.246-.644 2.243-2.384l-.006-.06c-.057-.558-.498-4.846-1.013-8.382h.543c.37 0 .653-.384.653-.891v-7.54ZM9.64 10.12c0 .025 0 .05-.006.073h-.857a.406.406 0 0 0-.39.513c.528 3.488.987 7.923 1.065 8.675l.011.111c0 1.306-.904 1.516-1.445 1.527h-.165c-.54-.008-1.446-.219-1.448-1.49l.02-.173c.123-1.005.746-6.12 1.13-8.69a.408.408 0 0 0-.33-.462.716.716 0 0 0-.109-.014h-.902a.591.591 0 0 1-.005-.073V8.22h3.43v1.899Zm6.653 10.899c.523-.011 1.4-.216 1.4-1.48l-.024-.223c-.08-.768-.358-3.39-.701-6.028a.372.372 0 0 1-.012-.098v-.017c0-.165.098-.308.241-.375V3.036a2.969 2.969 0 0 0-2.552 2.938v6.807h.477a.411.411 0 0 1 .407.45l-.001.043c-.381 2.863-.796 6.3-.796 6.302.003 1.233.88 1.437 1.4 1.443h.16Zm2.212-1.518c-.002-.031-.294-2.933-.683-5.964a.408.408 0 0 0 .19-.345V2.603a.407.407 0 0 0-.406-.41 3.78 3.78 0 0 0-3.776 3.782v7.216c0 .227.183.409.407.409h.42c-.364 2.77-.74 5.882-.743 5.93 0 1.683 1.188 2.294 2.205 2.308h.188c1.014-.02 2.201-.63 2.198-2.336Z" fill="#313235"/></svg>