<svg xmlns="http://www.w3.org/2000/svg" width="24" height="24" fill="none"><path fill="#0B2739" d="M10.983 15.216c.045.025.093.04.143.04a.252.252 0 0 0 .135-.04.278.278 0 0 0 .143-.244v-3.134a.284.284 0 0 0 .1.104l5.508 3.277c.044.025.092.04.142.04a.278.278 0 0 0 .28-.28V8.392c0-.101-.056-.194-.142-.244a.277.277 0 0 0-.283.003l-5.507 3.308a.274.274 0 0 0-.098.101V8.387c0-.1-.056-.193-.143-.244a.277.277 0 0 0-.283.003L5.47 11.454a.28.28 0 0 0 .003.482l5.51 3.28Zm-.14-.734-4.68-2.787 4.68-2.812v5.6Zm1.35-2.781 4.681-2.813v5.6l-4.68-2.787Z"/><path fill="#0B2739" d="M2.16 12c0 6.437 3.403 9.838 9.838 9.838 6.44 0 9.843-3.404 9.84-9.838 0-3.26-.877-5.759-2.602-7.423-1.664-1.605-4.098-2.417-7.238-2.417C5.56 2.16 2.16 5.563 2.16 12Zm.56 0c0-6.156 3.123-9.28 9.278-9.28 6.16 0 9.283 3.12 9.28 9.28 0 6.157-3.12 9.278-9.28 9.278-6.157 0-9.278-3.124-9.278-9.278Z"/></svg>