<svg width="24" height="24" viewBox="0 0 24 24" fill="none" xmlns="http://www.w3.org/2000/svg">
<path fill-rule="evenodd" clip-rule="evenodd" d="M21.8362 11.9958C21.8362 5.55607 18.4328 2.1499 11.9902 2.1499C5.55326 2.1499 2.1499 5.55607 2.1499 11.9958C2.1499 18.4328 5.55326 21.8362 11.9902 21.8362C18.4328 21.8362 21.8362 18.4328 21.8362 11.9958ZM21.0126 11.9958C21.0126 17.9818 17.979 21.0154 11.9902 21.0154C6.00704 21.0154 2.97063 17.9818 2.97063 11.9958C2.97063 6.00985 6.00424 2.97343 11.9902 2.97343C17.9762 2.97343 21.0126 6.00705 21.0126 11.9958ZM13.7577 12.4944L16.4468 9.895L13.7577 7.28716V8.27035C13.7577 8.49724 13.5112 8.73254 13.2872 8.73254H9.24794C9.21153 8.73254 9.17511 8.74654 9.1471 8.77455C9.11909 8.79976 9.10508 8.83618 9.10508 8.87539V16.923H11.2423V11.4664C11.2423 11.2395 11.4272 11.0575 11.6513 11.0575H13.2816C13.402 11.0659 13.5168 11.1191 13.6009 11.2031C13.6793 11.2816 13.7521 11.4104 13.7521 11.5196C13.7577 11.5196 13.7577 12.4944 13.7577 12.4944ZM17.1359 9.42161L14.0126 6.3936C13.811 6.23113 13.5393 6.19752 13.3096 6.30957C13.0799 6.41881 12.937 6.6401 12.937 6.8922V7.91181L9.24794 7.90901C8.99024 7.90901 8.74934 8.00985 8.56727 8.19192C8.3852 8.37399 8.28436 8.61489 8.28436 8.87259V17.332C8.28436 17.5561 8.46643 17.7409 8.69332 17.7409H11.6569C11.881 17.7409 12.0659 17.5589 12.0659 17.332V11.8782H12.9342V12.8894C12.9342 13.1415 13.0827 13.3684 13.3096 13.4748C13.5393 13.5813 13.8082 13.5505 14.0407 13.36L17.1135 10.3852C17.1359 10.3684 17.1555 10.3488 17.1723 10.3292C17.4132 10.0687 17.3964 9.66251 17.1359 9.42161Z" fill="#313235"/>
</svg>
