<svg width="24" height="24" fill="none" xmlns="http://www.w3.org/2000/svg"><path fill-rule="evenodd" clip-rule="evenodd" d="M21.836 11.996c0-6.44-3.403-9.846-9.846-9.846-6.437 0-9.84 3.406-9.84 9.846 0 6.437 3.403 9.84 9.84 9.84 6.443 0 9.846-3.403 9.846-9.84Zm-.823 0c0 5.986-3.034 9.02-9.023 9.02-5.983 0-9.02-3.034-9.02-9.02s3.034-9.022 9.02-9.022 9.023 3.033 9.023 9.022Zm-7.255.499 2.689-2.6-2.69-2.608v.983c0 .227-.246.463-.47.463H9.248a.142.142 0 0 0-.1.042.133.133 0 0 0-.043.1v8.048h2.137v-5.456a.41.41 0 0 1 .41-.41h1.63c.12.009.235.062.319.146a.504.504 0 0 1 .151.317c.006 0 .006.975.006.975Zm3.378-3.073-3.123-3.028a.658.658 0 0 0-.703-.084.64.64 0 0 0-.373.582v1.02l-3.689-.003c-.258 0-.499.101-.68.283a.956.956 0 0 0-.284.68v8.46a.41.41 0 0 0 .41.41h2.963a.41.41 0 0 0 .409-.41v-5.454h.868v1.011c0 .253.149.48.376.586.23.106.498.076.73-.115l3.074-2.975a.642.642 0 0 0 .022-.964Z" fill="#313235"/></svg>