<svg xmlns="http://www.w3.org/2000/svg" width="24" height="24" fill="none"><path fill="#313235" d="M18.045 12.979h-4.35v.703h6.485c.462 0 .84.37.84.823v6.513a.832.832 0 0 1-.84.823H3.815a.834.834 0 0 1-.84-.823v-6.513c0-.454.375-.823.84-.823H10.3v-.703H5.96a.834.834 0 0 1-.84-.824V11.04H3.815a.834.834 0 0 1-.84-.823V7.043c0-.454.375-.824.84-.824h1.306V4.32a.83.83 0 0 1 .84-.823h5.616V3.12a.562.562 0 0 1-.162-.395c0-.316.263-.571.582-.571a.58.58 0 0 1 .586.571.553.553 0 0 1-.165.395v.376h5.63c.462 0 .84.367.84.823v1.91h1.294c.462 0 .84.368.84.824v3.174a.834.834 0 0 1-.84.823h-1.294v1.104a.838.838 0 0 1-.843.824Zm-12.084-.824h12.084V4.32H5.961v7.835Zm-.84-1.938V7.043H3.815v3.174h1.306Zm7.733 3.462v-.69H11.14v.69h1.714Zm7.326.823H3.815v6.513h2.429a.05.05 0 0 0-.004-.016.06.06 0 0 1-.005-.02v-4.174a.83.83 0 0 1 .84-.824h9.841c.462 0 .84.367.84.824v4.174c0 .01-.002.018-.005.026a.131.131 0 0 0-.003.01h2.431v-6.513ZM7.076 20.98h9.84v-4.174h-9.84v4.174ZM20.18 10.228V7.054h-1.295v3.174h1.294ZM10.174 7.354a.682.682 0 0 0-.686-.675.681.681 0 0 0-.687.675.68.68 0 0 0 .687.672.681.681 0 0 0 .686-.672Zm.84 0c0 .826-.683 1.496-1.526 1.496-.844 0-1.527-.673-1.527-1.496 0-.826.683-1.496 1.527-1.496.843-.003 1.526.67 1.526 1.496Zm3.504-1.518c.843 0 1.527.672 1.527 1.498 0 .827-.684 1.496-1.527 1.496-.843 0-1.526-.672-1.526-1.496 0-.823.683-1.498 1.526-1.498Zm-.338 4.308a.416.416 0 0 0-.42-.412h-3.513a.416.416 0 0 0-.42.412c0 .227.187.412.42.412h3.512c.233 0 .42-.185.42-.412Zm.338-2.137a.681.681 0 0 0 .687-.673.682.682 0 0 0-.687-.675.681.681 0 0 0-.686.675c0 .37.308.673.686.673Z"/></svg>