<svg width="24" height="24" fill="none" xmlns="http://www.w3.org/2000/svg"><path fill-rule="evenodd" clip-rule="evenodd" d="M18.07 12.974h-4.35v.703h6.484c.463 0 .84.37.84.823v6.513a.832.832 0 0 1-.84.823H3.84a.834.834 0 0 1-.84-.823V14.5c0-.454.375-.823.84-.823h6.485v-.703H5.986a.834.834 0 0 1-.84-.824v-1.115H3.84a.834.834 0 0 1-.84-.823V7.038c0-.454.375-.824.84-.824h1.306V4.315a.83.83 0 0 1 .84-.823h5.616v-.376a.562.562 0 0 1-.162-.395c0-.316.263-.571.582-.571a.58.58 0 0 1 .586.571.553.553 0 0 1-.165.395v.376h5.63c.462 0 .84.367.84.823v1.91h1.294c.462 0 .84.368.84.824v3.174a.834.834 0 0 1-.84.823h-1.294v1.104a.838.838 0 0 1-.843.824ZM5.986 12.15V4.315H18.07v7.835H5.986Zm-.84-1.938H3.84V7.038h1.306v3.174Zm7.734 3.462v-.69h-1.715v.69h1.715Zm7.324.823v6.513h-2.43l.002-.01a.083.083 0 0 0 .006-.026V16.8a.832.832 0 0 0-.84-.824H7.1a.83.83 0 0 0-.84.824v4.174a.06.06 0 0 0 .004.02c.002.005.004.01.004.016H3.84v-6.513h16.364ZM7.101 20.974h9.84V16.8h-9.84v4.174Zm13.104-10.751H18.91V7.049h1.294v3.174ZM10.198 7.349a.68.68 0 0 1-.686.672.68.68 0 0 1-.687-.672c0-.373.308-.675.687-.675.378 0 .686.302.686.675Zm.84 0c0 .826-.683 1.496-1.526 1.496-.844 0-1.527-.673-1.527-1.496 0-.826.683-1.496 1.527-1.496.843-.003 1.526.67 1.526 1.496Zm4.19-.02a.68.68 0 0 1-.686.673.681.681 0 0 1-.686-.673c0-.372.308-.675.686-.675.379 0 .687.303.687.675Zm-.686-1.498c.844 0 1.527.672 1.527 1.498 0 .827-.683 1.496-1.527 1.496-.843 0-1.526-.672-1.526-1.496 0-.823.683-1.498 1.526-1.498Zm-.338 4.308a.416.416 0 0 0-.42-.412h-3.513a.416.416 0 0 0-.42.412c0 .227.187.412.42.412h3.512c.233 0 .42-.185.42-.412Z" fill="#313235"/></svg>