<svg width="24" height="24" fill="none" xmlns="http://www.w3.org/2000/svg"><path fill-rule="evenodd" clip-rule="evenodd" d="M18.705 2.15c1.966.006 3.137 1.185 3.131 3.157-.005 2.005-2.504 5-2.857 5.356a.413.413 0 0 1-.585 0c-.353-.356-2.843-3.353-2.835-5.373.003-.966.294-1.765.84-2.31.54-.541 1.336-.83 2.289-.83h.017Zm2.302 3.157c-.005 1.297-1.53 3.498-2.322 4.442-.79-.946-2.305-3.148-2.302-4.456.002-.75.201-1.328.596-1.723.392-.39.966-.588 1.709-.588h.014c1.512.006 2.308.81 2.305 2.325ZM6.685 9.254c2.83.008 4.516 1.708 4.507 4.546-.008 2.941-3.714 7.386-4.244 7.916a.415.415 0 0 1-.585.003l-.003-.003c-.857-.863-4.216-5.202-4.21-7.944.003-1.398.423-2.55 1.205-3.33.781-.78 1.924-1.191 3.308-1.191l.022.003Zm-.03 11.551c1.052-1.22 3.7-4.8 3.708-7.01.005-1.186-.314-2.113-.944-2.749-.63-.635-1.552-.96-2.737-.963h-.02c-1.173 0-2.089.316-2.72.947-.632.63-.957 1.554-.96 2.742-.008 2.112 2.521 5.706 3.672 7.033Zm.898-7.282c0 .593-.288.885-.882.885-.594 0-.882-.292-.882-.885 0-.594.288-.886.882-.886.594 0 .882.289.882.886Zm-.882-1.717c1.056 0 1.712.658 1.712 1.717 0 1.058-.656 1.717-1.712 1.717S4.96 14.58 4.96 13.523c0-1.06.655-1.717 1.711-1.717Zm12.473-6.681c0 .32-.131.448-.448.448-.32 0-.448-.129-.448-.448 0-.32.132-.448.448-.448.32 0 .448.128.448.448Zm-.448-1.28c.776 0 1.278.501 1.278 1.28s-.502 1.28-1.278 1.28-1.277-.501-1.277-1.28.501-1.28 1.277-1.28Zm-4.258 7.336a.418.418 0 0 0 .547.398c.255-.087.51-.163.753-.227a.415.415 0 0 0-.213-.804c-.263.07-.532.148-.803.24a.418.418 0 0 0-.284.393Zm1.34 8.176a.416.416 0 0 1 .383.737.137.137 0 0 1-.01.004l-.01.004c-.246.12-.51.233-.784.334a.416.416 0 0 1-.291-.779c.25-.09.487-.19.712-.3Zm1.333-2.4a.405.405 0 0 0 .283.112.416.416 0 0 0 .286-.717 3.37 3.37 0 0 0-.762-.521.414.414 0 0 0-.56.176.414.414 0 0 0 .176.56c.21.104.403.233.577.39Zm.115-5.916a.416.416 0 0 1-.056-.83 4.43 4.43 0 0 1 .305-.036.41.41 0 0 1 .437.384v.008a.414.414 0 0 1-.39.44c-.078.009-.16.02-.237.031-.02.003-.04.003-.06.003Zm.88 7.235a.413.413 0 0 0-.242-.535c-.003 0-.005 0-.01-.003a.41.41 0 0 0-.525.247c-.07.185-.187.367-.347.54-.011.012-.022.023-.03.034a.417.417 0 0 0 .052.585.417.417 0 0 0 .586-.053c.221-.235.398-.512.515-.815Zm-2.886-2.28a.4.4 0 0 1-.14-.025l-.153-.056c-.21-.076-.418-.152-.62-.233a.417.417 0 0 1 .302-.776c.247.098.499.19.754.28a.416.416 0 0 1 .008.832.307.307 0 0 1-.15-.022Zm-3.552 4.927a.407.407 0 0 0-.467-.342c-.262.04-.516.073-.768.105l-.037.005h-.002a.413.413 0 0 0-.356.462c.03.227.235.39.462.361.264-.03.538-.07.818-.112h.003a.412.412 0 0 0 .347-.47v-.009Zm1.888-.798a.416.416 0 0 1 .202.806c-.266.068-.538.13-.81.185a.413.413 0 0 1-.49-.322.413.413 0 0 1 .322-.49c.258-.056.519-.115.776-.18Zm-1.204-7.737c0 .23.185.418.414.42.123 0 .241-.053.317-.148.151-.174.328-.325.524-.448a.416.416 0 0 0 .115-.547.418.418 0 0 0-.57-.148c-.29.19-.526.395-.705.608a.41.41 0 0 0-.095.263Zm-3.55 8.462a.414.414 0 0 1 .446.378v.003a.412.412 0 0 1-.378.446h-.003a34.9 34.9 0 0 1-.756.05h-.025c-.216 0-.429-.165-.446-.38-.02-.228.11-.421.334-.446l.09-.006c.114-.003.375-.017.739-.045Zm3.964-5.997a.416.416 0 0 0 .264.095.395.395 0 0 0 .319-.157.414.414 0 0 0-.059-.582 1.357 1.357 0 0 1-.386-.476.412.412 0 0 0-.53-.2c-.21.09-.31.331-.224.544.143.303.353.569.616.776Z" fill="#313235"/></svg>