<svg width="24" height="24" viewBox="0 0 24 24" fill="none" xmlns="http://www.w3.org/2000/svg">
<path fill-rule="evenodd" clip-rule="evenodd" d="M13.4581 6.74306C13.4333 4.36272 11.9236 2.92536 11.8606 2.86536L11.8587 2.86351C11.6906 2.70945 11.6794 2.45174 11.8307 2.28368C11.9819 2.11841 12.2396 2.10441 12.4077 2.25287C12.4833 2.32009 14.248 3.94194 14.2788 6.71785C14.2844 6.82149 14.3797 9.54698 12.4357 11.2837C12.2676 11.4349 12.0071 11.4209 11.8559 11.2501C11.7046 11.082 11.7186 10.8215 11.8895 10.6702C13.545 9.19684 13.4609 6.76827 13.4581 6.74306ZM21.8363 17.1884C21.8363 16.2361 21.5842 15.4938 21.0912 14.9812C20.5758 14.4489 19.8139 14.18 18.8195 14.18H7.86988V6.77107C7.86988 6.54698 7.68501 6.36211 7.46092 6.36211C7.23683 6.36211 7.05195 6.54418 7.05195 6.77107V14.1772H5.164C4.1724 14.1772 3.4105 14.4489 2.89509 14.9812C2.39929 15.4938 2.14999 16.2361 2.14999 17.1884V18.8271C2.14999 19.7795 2.39929 20.5218 2.89509 21.0344C3.4105 21.5694 4.1724 21.8383 5.164 21.8383H18.8223C19.8139 21.8383 20.5758 21.5694 21.0912 21.0344C21.5842 20.5218 21.8363 19.7795 21.8363 18.8271V17.1884ZM21.0155 18.8271V17.1884C21.0155 16.4545 20.8419 15.9055 20.5001 15.5498C20.1472 15.1828 19.5842 14.998 18.8251 14.998H5.164C4.4049 14.998 3.83907 15.1828 3.48893 15.5498C3.14719 15.9055 2.97352 16.4545 2.97352 17.1884V18.8271C2.97352 19.561 3.14719 20.11 3.48893 20.4657C3.84187 20.8327 4.4049 21.0176 5.164 21.0176H18.8251C19.5842 21.0176 20.1472 20.8327 20.5001 20.4657C20.8419 20.11 21.0155 19.561 21.0155 18.8271ZM5.57857 18.0092C5.57857 17.5554 5.31526 17.3453 4.9091 17.3453C4.50294 17.3453 4.23963 17.5554 4.23963 18.0092C4.23963 18.2277 4.29845 18.3901 4.4077 18.4994C4.52534 18.6198 4.69901 18.6758 4.9091 18.6758C5.12198 18.6758 5.29285 18.617 5.4105 18.4994C5.51694 18.3873 5.57857 18.2277 5.57857 18.0092ZM8.01554 18.0092C8.01554 17.5554 7.75223 17.3453 7.34607 17.3453C6.93991 17.3453 6.6766 17.5554 6.67941 18.0092C6.67941 18.2277 6.73823 18.3901 6.84747 18.4994C6.96512 18.6198 7.13599 18.6758 7.34887 18.6758C7.55896 18.6758 7.72983 18.617 7.84747 18.4994C7.95392 18.3873 8.01554 18.2277 8.01554 18.0092ZM9.91039 4.42496C9.9501 4.46245 10.8534 5.31532 10.8699 6.77107C10.8699 6.77132 10.8699 6.77203 10.8699 6.77319C10.8714 6.83701 10.9054 8.26586 9.92871 9.13802C9.75784 9.28928 9.74383 9.54978 9.89509 9.71785L9.89789 9.72065C10.0492 9.88872 10.3069 9.90273 10.4749 9.75146C11.755 8.60301 11.6934 6.81029 11.6906 6.74866C11.671 4.92794 10.5085 3.86071 10.4581 3.81589C10.2957 3.68984 10.066 3.70104 9.9175 3.8439C9.75504 4.00076 9.75223 4.26127 9.9091 4.42373C9.90925 4.42388 9.90968 4.42429 9.91039 4.42496Z" fill="#313235"/>
</svg>
