<svg width="24" height="24" fill="none" xmlns="http://www.w3.org/2000/svg"><path d="M10.464 13.293v.649c0 .154-.126.28-.28.28a.281.281 0 0 1-.28-.28v-.632a3.73 3.73 0 0 1-1.947-.654.434.434 0 0 1-.204-.375.414.414 0 0 1 .42-.41c.1.003.196.034.28.09.481.32.969.502 1.451.543V10.15c-.91-.117-1.986-.539-1.986-1.864 0-1.137.774-1.89 1.986-1.966v-.367a.28.28 0 0 1 .28-.28c.154 0 .28.126.28.28v.377c.526.047 1.011.198 1.398.438.16.098.25.235.25.387 0 .22-.18.397-.401.4a.547.547 0 0 1-.255-.073l-.003-.003a2.936 2.936 0 0 0-.989-.34v2.249c.667.084 1.175.288 1.516.607.341.32.515.753.515 1.286 0 1.135-.765 1.88-2.03 2.012Zm0-3.065v2.263c.325-.044.6-.15.804-.314.264-.21.4-.507.4-.857 0-.434-.148-.9-1.204-1.092Zm-.56-3.108c-.72.06-1.16.476-1.16 1.119 0 .4.14.872 1.16 1.068V7.12Z" fill="#313235"/><path d="M9.966 17.788A7.809 7.809 0 0 1 4.442 4.457 7.808 7.808 0 0 1 15.677 15.3l6.087 6.084a.28.28 0 0 1-.196.479.28.28 0 0 1-.199-.084l-6.087-6.084a7.747 7.747 0 0 1-5.316 2.093Zm0-15.056a7.248 7.248 0 1 0 5.123 2.123 7.195 7.195 0 0 0-5.123-2.123Z" fill="#313235"/></svg>