<svg width="24" height="24" viewBox="0 0 24 24" fill="none" xmlns="http://www.w3.org/2000/svg">
<path fill-rule="evenodd" clip-rule="evenodd" d="M21.8425 11.1114C21.8425 16.0106 17.5344 16.2571 16.6717 16.2571H16.2823C16.1002 16.7865 15.8257 17.2795 15.4672 17.7081L18.8649 21.1366C19.0246 21.2991 19.0246 21.5596 18.8649 21.7221L18.8621 21.7249C18.7025 21.8845 18.4448 21.8817 18.2851 21.7221L14.8845 18.2907C14.075 18.9686 13.0554 19.3383 11.9994 19.3383C10.0246 19.3383 8.34953 18.0638 7.72768 16.2851L5.90415 16.2879C4.74729 16.1703 2.15625 15.5316 2.15625 12.0666C2.15625 9.50639 3.61003 8.50919 4.65765 8.12544C4.7725 2.44757 10.0022 2.15625 11.061 2.15625C11.8845 2.15625 15.9714 2.34392 17.1422 6.00779C18.5596 6.11423 21.8425 6.83132 21.8425 11.1114ZM5.94617 15.4644C4.59323 15.3243 2.97698 14.6212 2.97698 12.0666C2.97698 10.3327 3.72208 9.24028 5.18706 8.82012C5.36353 8.7697 5.48678 8.60723 5.48398 8.42236L5.47838 8.30751C5.47838 3.36353 9.75289 2.97978 11.061 2.97978C11.8033 2.97978 15.5456 3.15065 16.4392 6.50639C16.4868 6.68286 16.6436 6.80891 16.8257 6.81451C18.089 6.85093 21.0274 7.33832 21.0274 11.1086C21.0274 15.1142 17.6969 15.4252 16.6745 15.4252H16.4812C16.5148 15.2067 16.5344 14.9854 16.5344 14.7613C16.5344 12.2347 14.5064 10.1871 12.0022 10.1871C9.49799 10.1871 7.46998 12.2347 7.46998 14.7585C7.46998 14.9938 7.49238 15.2263 7.526 15.4532L5.94617 15.4644ZM11.9994 18.5092C9.95177 18.5092 8.2879 16.8285 8.2879 14.7641C8.2879 12.6997 9.95177 11.019 11.9994 11.019C14.047 11.019 15.7137 12.6997 15.7137 14.7641C15.7137 16.8285 14.047 18.5092 11.9994 18.5092Z" fill="#313235"/>
</svg>
