<svg width="24" height="24" viewBox="0 0 24 24" fill="none" xmlns="http://www.w3.org/2000/svg">
<path fill-rule="evenodd" clip-rule="evenodd" d="M4 4.70148C4 4.31446 4.31692 4 4.70399 4C4.81285 4 4.92171 4.02419 5.01848 4.07257L20.6102 11.8275C20.7457 11.8953 20.857 12.0041 20.9247 12.1396C21.0989 12.4879 20.961 12.9112 20.6126 13.0878L5.04993 20.925C4.80801 21.0459 4.52013 21.0193 4.30482 20.8548C4.08951 20.6903 3.9879 20.417 4.04355 20.1533L5.62812 12.4419L4.01693 4.85145C4.00484 4.80307 4 4.75227 4 4.70148ZM20.2957 12.4564L4.70399 4.7039L6.34904 12.4371L4.73302 20.2936L20.2957 12.4564Z" fill="#313235"/>
</svg>
