<svg width="24" height="24" viewBox="0 0 24 24" fill="none" xmlns="http://www.w3.org/2000/svg">
<path d="M9.76602 11.1158C9.6095 11.1158 9.48145 10.987 9.48145 10.8296C9.48145 10.7209 9.54121 10.6207 9.63796 10.5721L14.1143 8.32267C14.2566 8.25399 14.4245 8.31122 14.4957 8.45431C14.564 8.59454 14.5071 8.76339 14.3705 8.83493L9.89408 11.0872C9.85139 11.1072 9.80871 11.1158 9.76602 11.1158Z" fill="#313235"/>
<path fill-rule="evenodd" clip-rule="evenodd" d="M13.0529 8.61438C13.0529 7.7959 13.5196 7.41528 14.2396 7.41528C14.9596 7.41528 15.4263 7.7959 15.4206 8.61438C15.4206 9.00645 15.3125 9.29836 15.1218 9.49582C14.9169 9.71046 14.6095 9.81348 14.2368 9.81348C13.864 9.81348 13.5595 9.71046 13.3517 9.49582C13.1611 9.29836 13.0529 9.00645 13.0529 8.61438ZM14.1115 13.4108C14.1514 13.4308 14.1969 13.4423 14.2396 13.4423C14.3477 13.4423 14.4473 13.3822 14.4929 13.282C14.564 13.1418 14.5043 12.9701 14.3648 12.8985L9.88843 10.6491C9.74899 10.5805 9.58109 10.6348 9.50995 10.7751C9.4388 10.9181 9.49572 11.0899 9.63516 11.1614L14.1115 13.4108Z" fill="#313235"/>
<path fill-rule="evenodd" clip-rule="evenodd" d="M8.57935 10.8668C8.57935 10.0483 9.04605 9.66772 9.76603 9.66772C10.4832 9.66772 10.9499 10.0483 10.947 10.8668C10.947 11.2589 10.8389 11.5508 10.6482 11.7483C10.4433 11.9629 10.136 12.0659 9.76318 12.0659C9.39039 12.0659 9.08589 11.9629 8.87815 11.7483C8.68748 11.5508 8.57935 11.2589 8.57935 10.8668ZM13.0529 13.1162C13.0529 12.2977 13.5196 11.9171 14.2396 11.9171C14.9595 11.9171 15.4262 12.2977 15.4206 13.1162C15.4206 13.5083 15.3124 13.8002 15.1217 13.9977C14.9169 14.2123 14.6095 14.3153 14.2367 14.3153C13.8639 14.3153 13.5594 14.2123 13.3517 13.9977C13.161 13.8002 13.0529 13.5083 13.0529 13.1162Z" fill="#313235"/>
<path fill-rule="evenodd" clip-rule="evenodd" d="M18.9408 16.7334H5.06773C4.03756 16.7334 3.25498 16.433 2.7399 15.8406C2.25327 15.2796 2.00854 14.4554 2.00854 13.388V8.3426C2.00854 7.27514 2.25327 6.45094 2.7399 5.89289C3.25498 5.30049 4.03756 5 5.06773 5H18.9408C19.971 5 20.7536 5.30049 21.2686 5.89289C21.7524 6.45094 22 7.27514 22 8.3426V13.388C22 14.4554 21.7553 15.2796 21.2686 15.8377C20.7536 16.433 19.971 16.7334 18.9408 16.7334ZM5.06773 5.57236C3.36881 5.57236 2.57769 6.4538 2.57769 8.34546V13.3908C2.57769 15.2825 3.36881 16.1639 5.06773 16.1639H18.9408C20.6397 16.1639 21.4308 15.2825 21.4308 13.3908V8.3426C21.4308 6.45094 20.6397 5.57236 18.9408 5.57236H5.06773ZM2.28458 19H21.7069C21.8634 19 21.9915 18.8712 21.9915 18.7138C21.9915 18.5564 21.8634 18.4276 21.7069 18.4276H2.28458C2.12806 18.4276 2 18.5564 2 18.7138C2 18.8712 2.12806 19 2.28458 19Z" fill="#313235"/>
</svg>
