<svg width="24" height="24" fill="none" xmlns="http://www.w3.org/2000/svg"><path d="M14.112 14.053c.378-.359.905-.54 1.568-.54.664 0 1.19.181 1.572.543.4.378.602.93.602 1.638 0 .678-.188 1.216-.557 1.594-.381.39-.922.586-1.614.586-.692 0-1.232-.197-1.613-.586-.37-.378-.558-.916-.558-1.594 0-.24.025-.468.073-.672l-3.193-1.597a1.817 1.817 0 0 1-.233.294c-.38.39-.921.586-1.613.586s-1.233-.196-1.614-.585c-.37-.379-.557-.916-.557-1.594 0-.706.202-1.258.602-1.639.378-.358.905-.54 1.569-.54.664 0 1.19.182 1.569.54.106.1.201.216.28.345l3.19-1.597a3.057 3.057 0 0 1-.073-.68c0-.707.202-1.258.602-1.64.379-.358.905-.54 1.57-.54.663 0 1.19.182 1.568.54.4.379.602.93.602 1.64 0 .677-.188 1.215-.557 1.593-.381.39-.922.585-1.614.585-.692 0-1.232-.196-1.613-.585a1.767 1.767 0 0 1-.286-.386l-3.168 1.582c.064.233.098.493.098.779 0 .288-.034.549-.1.784l3.164 1.583c.09-.163.2-.311.334-.437Zm3.179-5.499c0-1.073-.54-1.619-1.61-1.619-1.068 0-1.611.546-1.611 1.62 0 .526.134.93.397 1.201.272.277.678.417 1.213.417s.942-.14 1.213-.417c.264-.269.398-.675.398-1.202Zm-8.748 5.19c.535 0 .941-.14 1.21-.411.101-.1.182-.224.244-.364l.008-.02a.55.55 0 0 0 .009-.02l.003-.005a2.08 2.08 0 0 0 .137-.795c0-.295-.042-.55-.123-.765l-.017-.028a.316.316 0 0 1-.023-.067c-.232-.507-.717-.762-1.448-.762-1.07 0-1.61.543-1.61 1.619 0 .526.134.93.397 1.201.272.278.678.418 1.213.418Zm7.137 3.57c.535 0 .942-.14 1.213-.418.264-.272.398-.675.398-1.205 0-1.072-.54-1.619-1.61-1.619-.785 0-1.286.295-1.496.874l-.01.03-.005.01c-.067.204-.1.44-.1.708 0 .527.134.93.397 1.202.272.277.678.417 1.213.417Z" fill="#313235"/><path d="M4.594 19.221c1.653 1.591 4.081 2.398 7.221 2.398 3.14 0 5.569-.807 7.221-2.398 1.715-1.652 2.583-4.143 2.583-7.406s-.868-5.753-2.583-7.406c-1.652-1.591-4.08-2.398-7.22-2.398-3.14 0-5.572.807-7.222 2.398C2.88 6.062 2.01 8.555 2.01 11.815c0 3.264.869 5.754 2.583 7.406Zm.39-14.409c1.543-1.487 3.84-2.24 6.831-2.24 2.989 0 5.289.756 6.832 2.24 1.6 1.541 2.412 3.9 2.412 7.003 0 3.104-.813 5.462-2.412 7.003-1.543 1.487-3.843 2.24-6.832 2.24s-5.288-.753-6.832-2.24c-1.6-1.54-2.412-3.9-2.412-7.003s.813-5.462 2.412-7.003Z" fill="#313235"/></svg>