<svg width="24" height="24" viewBox="0 0 24 24" fill="none" xmlns="http://www.w3.org/2000/svg">
<path fill-rule="evenodd" clip-rule="evenodd" d="M8.78841 16.3125H4.09159C2.68483 16.3125 2 15.6523 2 14.2962V6.01632C2 4.66019 2.68483 4 4.09159 4H8.79126C10.1809 4 10.8829 4.67944 10.8829 6.01632V8.33636L12.0898 8.33512L12.0813 7.64468C12.0784 7.50439 12.1384 7.41636 12.1897 7.36685C12.2553 7.30358 12.341 7.26782 12.4351 7.26782C12.5207 7.26782 12.6035 7.29808 12.6805 7.35035L13.2642 7.77233C13.3773 7.46949 13.5563 7.22796 13.7991 7.05335C14.1415 6.80853 14.6009 6.6875 15.2087 6.6875H19.9084C21.298 6.6875 22 7.36694 22 8.70382V16.9809C22.0029 18.3398 21.318 19 19.9113 19H15.2116C13.8048 19 13.12 18.3398 13.12 16.9837V14.6653L11.9272 14.6702L11.9158 15.3634C11.9186 15.5724 11.7645 15.7292 11.562 15.7292C11.4763 15.7292 11.3936 15.7017 11.3166 15.6467L10.7391 15.2326C10.4698 15.9592 9.8277 16.3125 8.78841 16.3125ZM13.2969 8.48253C13.2743 8.47043 13.2538 8.45549 13.2358 8.43827L12.6605 8.02154L12.6662 8.4314C12.6691 8.55244 12.6206 8.66522 12.5321 8.75049C12.4437 8.83577 12.3267 8.88253 12.2011 8.88528L10.6252 8.88684C10.6161 8.8877 10.6069 8.88813 10.5975 8.88813C10.5884 8.88813 10.5793 8.88771 10.5704 8.88689L9.41899 8.88803L9.41614 9.91132L10.5642 9.91594C10.5751 9.9147 10.5862 9.91406 10.5975 9.91406C10.6095 9.91406 10.6214 9.91479 10.6331 9.91621L12.1526 9.92232C12.4066 9.92508 12.6177 10.1259 12.6206 10.3707L12.6263 10.7943L13.2041 10.3798C13.2237 10.361 13.2461 10.3449 13.2706 10.3321L14.5667 9.40243L13.2969 8.48253ZM13.12 11.1196L12.6605 11.449C12.5892 11.504 12.5036 11.5343 12.4208 11.5343C12.2183 11.5343 12.0642 11.3747 12.0613 11.1657L12.0499 10.4725L10.8828 10.4677V11.8472L11.2966 11.548C11.3736 11.493 11.4564 11.4655 11.542 11.4655C11.6361 11.4655 11.7217 11.5013 11.7874 11.5645C11.8387 11.6141 11.8987 11.7021 11.8958 11.8424L11.8872 12.5328L13.12 12.5341V11.1196ZM13.6907 12.5347V10.7104L15.066 9.72427C15.1773 9.6445 15.2401 9.52621 15.2401 9.39968C15.2401 9.27314 15.1773 9.15486 15.066 9.07508L13.7498 8.12347C13.8584 7.66266 14.1596 7.23766 15.2116 7.23766H19.9113C20.9785 7.23766 21.4322 7.67503 21.4322 8.70382V16.9837C21.4322 18.0372 21.007 18.4498 19.9113 18.4498H15.2116C14.1187 18.4498 13.6907 18.04 13.6907 16.9837V14.6629L14.6038 14.6592C14.755 14.6674 14.9034 14.6042 15.0061 14.4941C15.1003 14.3923 15.1459 14.2548 15.1345 14.1173L15.1316 13.039C15.1345 12.9097 15.0803 12.7804 14.9833 12.6841C14.8748 12.5741 14.7236 12.5218 14.5667 12.5356L13.6907 12.5347ZM10.3121 12.2598L8.91108 13.2728C8.79979 13.3525 8.73701 13.4708 8.73701 13.5974C8.73701 13.7239 8.79979 13.8422 8.91108 13.922L10.2514 14.8829C10.0994 15.5019 9.66278 15.7596 8.79126 15.7596H4.09159C2.99872 15.7596 2.57069 15.3497 2.57069 14.2934V6.01632C2.57069 5.48817 2.68483 5.11957 2.92167 4.89125C3.15851 4.66294 3.54087 4.55016 4.09159 4.55016H8.79126C9.85846 4.55016 10.3122 4.98753 10.3122 6.01632V8.33695L9.41043 8.33788C9.25635 8.32412 9.10511 8.37639 8.99383 8.48642C8.89681 8.5827 8.84259 8.71198 8.84545 8.84127L8.84259 9.91957C8.83118 10.0571 8.87683 10.1947 8.971 10.2964C9.06802 10.401 9.20498 10.4615 9.34766 10.4615H9.37334L10.3121 10.4653V12.2598ZM10.6945 14.5144C10.7248 14.5289 10.7517 14.5484 10.7743 14.5716L11.3565 14.9893L11.3622 14.5656C11.3651 14.3208 11.5762 14.12 11.8273 14.1173L14.5638 14.1063L14.561 13.0857L11.7788 13.083C11.6533 13.083 11.5363 13.0362 11.4478 12.9509C11.3594 12.8657 11.3137 12.7501 11.3137 12.6318L11.3194 12.222L9.41614 13.5974L10.6945 14.5144ZM6.93933 14.2603C6.93933 13.933 6.74529 13.7789 6.44282 13.7789C6.14036 13.7789 5.94347 13.933 5.94632 14.2603C5.94632 14.4198 5.99198 14.5354 6.07187 14.6152C6.15748 14.7004 6.28588 14.7417 6.44282 14.7417C6.59976 14.7417 6.72817 14.7004 6.81378 14.6152C6.89367 14.5354 6.93933 14.4171 6.93933 14.2603ZM18.0593 16.9341C18.0593 16.6067 17.8653 16.4527 17.5628 16.4527C17.2603 16.4527 17.0634 16.604 17.0663 16.9341C17.0663 17.0936 17.112 17.2091 17.1919 17.2889C17.2775 17.3742 17.4059 17.4154 17.5628 17.4154C17.7197 17.4154 17.8481 17.3742 17.9338 17.2889C18.0137 17.2091 18.0593 17.0909 18.0593 16.9341Z" fill="#313235"/>
</svg>
