<svg width="24" height="24" viewBox="0 0 24 24" fill="none" xmlns="http://www.w3.org/2000/svg">
<path d="M9.76608 11.1157C9.60957 11.1157 9.48151 10.9869 9.48151 10.8295C9.48151 10.7207 9.54127 10.6206 9.63802 10.5719L14.1144 8.32255C14.2567 8.25386 14.4246 8.3111 14.4957 8.45419C14.564 8.59442 14.5071 8.76327 14.3705 8.83481L9.89414 11.0871C9.85146 11.1071 9.80877 11.1157 9.76608 11.1157Z" fill="#313235"/>
<path fill-rule="evenodd" clip-rule="evenodd" d="M13.0529 8.61451C13.0529 7.79603 13.5196 7.41541 14.2396 7.41541C14.9596 7.41541 15.4263 7.79603 15.4206 8.61451C15.4206 9.00657 15.3125 9.29848 15.1218 9.49594C14.9169 9.71058 14.6095 9.81361 14.2368 9.81361C13.864 9.81361 13.5595 9.71058 13.3517 9.49594C13.1611 9.29848 13.0529 9.00657 13.0529 8.61451ZM14.1115 13.4109C14.1514 13.4309 14.1969 13.4424 14.2396 13.4424C14.3477 13.4424 14.4473 13.3823 14.4929 13.2821C14.564 13.1419 14.5043 12.9702 14.3648 12.8986L9.88843 10.6493C9.74899 10.5806 9.58109 10.6349 9.50995 10.7752C9.4388 10.9183 9.49572 11.09 9.63516 11.1615L14.1115 13.4109Z" fill="#313235"/>
<path fill-rule="evenodd" clip-rule="evenodd" d="M8.57941 10.8667C8.57941 10.0482 9.04611 9.6676 9.76609 9.6676C10.4832 9.6676 10.9499 10.0482 10.9471 10.8667C10.9471 11.2588 10.8389 11.5507 10.6483 11.7481C10.4434 11.9628 10.136 12.0658 9.76324 12.0658C9.39045 12.0658 9.08595 11.9628 8.87821 11.7481C8.68755 11.5507 8.57941 11.2588 8.57941 10.8667ZM13.0529 13.1161C13.0529 12.2976 13.5196 11.917 14.2396 11.917C14.9596 11.917 15.4263 12.2976 15.4206 13.1161C15.4206 13.5082 15.3125 13.8001 15.1218 13.9975C14.9169 14.2122 14.6096 14.3152 14.2368 14.3152C13.864 14.3152 13.5595 14.2122 13.3517 13.9975C13.1611 13.8001 13.0529 13.5082 13.0529 13.1161Z" fill="#313235"/>
<path fill-rule="evenodd" clip-rule="evenodd" d="M18.9408 16.7334H5.06773C4.03756 16.7334 3.25498 16.433 2.7399 15.8406C2.25327 15.2796 2.00854 14.4554 2.00854 13.388V8.3426C2.00854 7.27514 2.25327 6.45094 2.7399 5.89289C3.25498 5.30049 4.03756 5 5.06773 5H18.9408C19.971 5 20.7536 5.30049 21.2686 5.89289C21.7524 6.45094 22 7.27514 22 8.3426V13.388C22 14.4554 21.7553 15.2796 21.2686 15.8377C20.7536 16.433 19.971 16.7334 18.9408 16.7334ZM5.06773 5.57236C3.36881 5.57236 2.57769 6.4538 2.57769 8.34546V13.3908C2.57769 15.2825 3.36881 16.1639 5.06773 16.1639H18.9408C20.6397 16.1639 21.4308 15.2825 21.4308 13.3908V8.3426C21.4308 6.45094 20.6397 5.57236 18.9408 5.57236H5.06773ZM2.28458 19H21.7069C21.8634 19 21.9915 18.8712 21.9915 18.7138C21.9915 18.5564 21.8634 18.4276 21.7069 18.4276H2.28458C2.12806 18.4276 2 18.5564 2 18.7138C2 18.8712 2.12806 19 2.28458 19Z" fill="#313235"/>
</svg>
