<svg width="24" height="24" fill="none" xmlns="http://www.w3.org/2000/svg"><path d="M20.446 4.849a.433.433 0 0 1 .162.31v.028c0 .53.006 6.763-.46 9.485-.615 3.583-7.677 6.983-7.98 7.126l-.005.003a.39.39 0 0 1-.339 0l-.009-.003c-.3-.143-7.352-3.543-7.969-7.126-.47-2.72-.465-8.954-.465-9.485V5.16a.428.428 0 0 1 .157-.325.414.414 0 0 1 .35-.082c1.738.282 2.681-.348 3.768-1.074l.02-.012c1.061-.712 2.263-1.516 4.316-1.516h.005c2.054.003 3.258.807 4.317 1.516l.01.006c1.088.728 2.031 1.36 3.772 1.083a.448.448 0 0 1 .35.093ZM11.58 3.006c-1.552.1-2.518.733-3.448 1.355-1.048.703-2.137 1.429-3.922 1.275.006 1.005.028 3.44.146 5.66h7.224v-8.29Zm-6.916 11.52c.451 2.614 5.233 5.331 6.916 6.213v-8.605H4.41c.064.92.145 1.762.254 2.393Zm7.745 6.213c1.684-.882 6.474-3.599 6.922-6.212.11-.628.19-1.474.252-2.393h-7.174v8.605ZM19.78 5.63c-1.804.146-2.882-.571-3.924-1.266-.928-.622-1.894-1.258-3.446-1.356v8.289h7.227c.118-2.224.14-4.667.143-5.667Z" fill="#313235"/></svg>