<svg width="24" height="24" fill="none" xmlns="http://www.w3.org/2000/svg"><path fill-rule="evenodd" clip-rule="evenodd" d="M10.63 16.918h6.554c.754 0 1.39-.255 1.897-.756.49-.493.854-1.207 1.106-2.182.118-.454.507-2.017.882-3.53l.364-1.458.393-1.57a.28.28 0 0 0-.272-.35H7.05c-.25-1.493-.46-2.728-.516-3.047a2.16 2.16 0 0 0-.851-1.345 2.675 2.675 0 0 0-1.608-.524H2.436a.28.28 0 0 0-.28.28c0 .154.126.28.28.28h1.639c.468 0 .919.146 1.269.41.342.257.569.61.639.997.05.271.204 1.19.401 2.369l.142.844v.016c0 .037.006.073.02.107.442 2.641.988 5.935 1.075 6.493.154.963.507 1.711 1.053 2.227.513.484 1.19.74 1.956.74Zm-3.444-9.04-.04-.246h14.05c-.163.64-.402 1.605-.655 2.62l-.015.061-.408 1.633v.004c-.22.876-.4 1.603-.474 1.887-.224.863-.547 1.51-.961 1.924-.4.4-.89.597-1.499.597H10.63c-1.33 0-2.202-.888-2.454-2.496-.082-.52-.568-3.444-.99-5.984Zm3.444 13.956c-.872 0-1.373-.501-1.373-1.372 0-.872.501-1.373 1.373-1.373.87 0 1.372.501 1.372 1.373 0 .87-.501 1.372-1.372 1.372Zm-.813-1.372c0-.564.25-.813.813-.813s.812.25.812.813-.25.812-.812.812c-.563 0-.813-.25-.813-.812Zm6.275 1.372c-.871 0-1.373-.501-1.373-1.372 0-.872.502-1.373 1.373-1.373s1.372.501 1.372 1.373c0 .87-.501 1.372-1.372 1.372Zm-.812-1.372c0-.564.249-.813.812-.813.563 0 .812.25.812.813s-.25.812-.812.812c-.563 0-.812-.25-.812-.812Z" fill="#313235"/></svg>