<svg width="24" height="24" viewBox="0 0 24 24" fill="none" xmlns="http://www.w3.org/2000/svg">
<path fill-rule="evenodd" clip-rule="evenodd" d="M21.3882 12.8021C22.186 12.4193 22.7 11.8033 22.7 11.0874C22.7 10.6546 22.5087 10.244 22.1442 9.8916C22.0053 9.66863 21.662 8.51715 21.4803 7.90776L21.4629 7.8495C21.3673 7.51932 21.2836 7.23909 21.2298 7.08371L19.8852 3.11882C19.7597 2.74703 19.3743 2.49454 18.9679 2.50009L5.42007 2.53616C5.00473 2.53893 4.64019 2.7831 4.50872 3.14934C4.32346 3.69594 4.05154 4.50889 3.75872 5.38844C3.16708 7.16695 2.35433 9.60027 2.24975 9.82501C2.20396 9.92507 2.14359 10.0138 2.08398 10.1015C2.07747 10.1111 2.07097 10.1207 2.06449 10.1302L2.06043 10.1362C1.89975 10.3738 1.69995 10.6692 1.69995 11.0874C1.69995 11.8033 2.2139 12.422 3.00872 12.8021V20.5488C3.00872 21.3479 3.73481 21.9999 4.62824 21.9999H19.7717C20.6621 21.9999 21.3882 21.3479 21.3882 20.5488V12.8021ZM21.8274 11.0902C21.8274 11.7977 20.7607 12.3971 19.4968 12.3971C18.6571 12.3943 17.8743 12.1307 17.4529 11.6979C17.3543 11.598 17.2139 11.5425 17.0705 11.5425H17.0675L16.8135 11.5702L16.685 11.7006C16.2667 12.1279 15.4838 12.3915 14.6442 12.3915C13.8045 12.3915 13.0217 12.1279 12.6033 11.7006C12.5047 11.6007 12.3673 11.5425 12.2209 11.5425L11.9639 11.5675L11.8324 11.7006C11.4141 12.1279 10.6312 12.3915 9.79158 12.3915C8.94298 12.3915 8.15712 12.1251 7.74178 11.6923C7.64019 11.5869 7.49975 11.5286 7.35035 11.5286L7.09039 11.5564L6.95892 11.6923C6.54358 12.1224 5.75772 12.3915 4.90911 12.3915C3.64517 12.3915 2.57844 11.795 2.57844 11.0847C2.57844 10.9071 2.6621 10.7795 2.80852 10.5631C2.90413 10.4299 2.9878 10.2911 3.05951 10.1441C3.17306 9.89715 3.77067 8.11586 4.60135 5.62705L4.86499 4.83938C5.05378 4.27505 5.22246 3.77086 5.34836 3.39906C5.36031 3.36854 5.39318 3.34911 5.42903 3.34911L18.9739 3.31304C19.0097 3.31304 19.0426 3.33524 19.0545 3.36576L20.3992 7.32788C20.45 7.47493 20.5306 7.74684 20.6233 8.06314C21.1282 9.76119 21.3075 10.2495 21.5017 10.4382L21.5047 10.441C21.6511 10.5825 21.8274 10.8072 21.8274 11.0902ZM20.5127 13.0907V20.5488C20.5157 20.9012 20.181 21.187 19.7717 21.187H15.0057V16.2399C15.0057 15.66 14.4798 15.1883 13.8314 15.1883H10.5864C9.94099 15.1883 9.41509 15.66 9.41509 16.2399V21.187H4.62525C4.21589 21.187 3.88123 20.8984 3.88123 20.546V13.0907C4.20394 13.1601 4.54158 13.2072 4.90015 13.2072C5.85633 13.2072 6.74079 12.9353 7.34139 12.4692C7.94198 12.9353 8.82943 13.2072 9.78262 13.2072C10.7328 13.2072 11.6143 12.9409 12.2119 12.4803C12.8125 12.9409 13.691 13.2072 14.6382 13.2072C15.5854 13.2072 16.4669 12.9409 17.0675 12.4803C17.6681 12.9381 18.5466 13.2072 19.4938 13.2072C19.8374 13.2045 20.178 13.1656 20.5127 13.0907ZM14.1302 21.187V16.2399C14.1302 16.1067 13.9958 15.9985 13.8314 15.9985H10.5924C10.428 15.9985 10.2936 16.1067 10.2936 16.2399V21.187H14.1302Z" fill="#313235"/>
</svg>
