<svg width="24" height="24" viewBox="0 0 24 24" fill="none" xmlns="http://www.w3.org/2000/svg">
<path fill-rule="evenodd" clip-rule="evenodd" d="M10.6296 16.9182H17.1843C17.9378 16.9182 18.5736 16.6633 19.0806 16.1619C19.5708 15.6689 19.935 14.9546 20.1871 13.9798C20.3047 13.526 20.6941 11.963 21.0694 10.4504C21.1967 9.94122 21.3207 9.44381 21.4333 8.99196C21.5959 8.34007 21.7347 7.78301 21.8257 7.42236C21.8313 7.39995 21.8341 7.37474 21.8341 7.35233C21.8341 7.19827 21.7081 7.07222 21.554 7.07222H7.04981C6.80051 5.57922 6.59042 4.34392 6.5344 4.0246C6.44196 3.50079 6.13944 3.0218 5.68286 2.68006C5.23468 2.34112 4.66325 2.15625 4.07502 2.15625H2.43636C2.2823 2.15625 2.15625 2.2823 2.15625 2.43636C2.15625 2.59042 2.2823 2.71647 2.43636 2.71647H4.07502C4.5428 2.71647 4.99378 2.86213 5.34392 3.12544C5.68566 3.38314 5.91255 3.73608 5.98258 4.12264C6.03275 4.39399 6.18687 5.3132 6.38449 6.49189L6.526 7.33552V7.35233C6.526 7.38874 6.5316 7.42516 6.54561 7.45877C6.98818 10.1002 7.5344 13.3943 7.62124 13.9518C7.7753 14.9154 8.12824 15.6633 8.67446 16.1787C9.18706 16.6633 9.86493 16.9182 10.6296 16.9182ZM7.18577 7.8773L7.14505 7.63244H21.1955C21.0335 8.27212 20.7935 9.23738 20.5414 10.2513L20.526 10.3131C20.3866 10.8696 20.2461 11.4334 20.1183 11.946L20.1173 11.9499C19.8989 12.8263 19.7178 13.5526 19.6436 13.8369C19.4196 14.6997 19.0974 15.3467 18.6829 15.7613C18.2823 16.1619 17.7921 16.3579 17.1843 16.3579H10.6296C9.29911 16.3579 8.42796 15.47 8.17586 13.8621C8.09446 13.3412 7.6083 10.4179 7.18583 7.87768L7.18577 7.8773ZM10.6296 21.8341C9.75849 21.8341 9.25709 21.3327 9.25709 20.4616C9.25709 19.5904 9.75849 19.089 10.6296 19.089C11.5008 19.089 12.0022 19.5904 12.0022 20.4616C12.0022 21.3327 11.5008 21.8341 10.6296 21.8341ZM9.81731 20.4616C9.81731 19.8985 10.0666 19.6492 10.6296 19.6492C11.1927 19.6492 11.442 19.8985 11.442 20.4616C11.442 21.0246 11.1927 21.2739 10.6296 21.2739C10.0666 21.2739 9.81731 21.0246 9.81731 20.4616ZM16.0918 21.8341C15.2207 21.8341 14.7193 21.3327 14.7193 20.4616C14.7193 19.5904 15.2207 19.089 16.0918 19.089C16.963 19.089 17.4644 19.5904 17.4644 20.4616C17.4644 21.3327 16.963 21.8341 16.0918 21.8341ZM15.2795 20.4616C15.2795 19.8985 15.5288 19.6492 16.0918 19.6492C16.6548 19.6492 16.9041 19.8985 16.9041 20.4616C16.9041 21.0246 16.6548 21.2739 16.0918 21.2739C15.5288 21.2739 15.2795 21.0246 15.2795 20.4616Z" fill="#313235"/>
</svg>
