<svg width="24" height="24" viewBox="0 0 24 24" fill="none" xmlns="http://www.w3.org/2000/svg">
<path fill-rule="evenodd" clip-rule="evenodd" d="M19.8649 11.8117H21.4364C21.6633 11.8117 21.8481 11.9966 21.8425 12.2179C21.8425 12.4448 21.6576 12.6268 21.4308 12.6268H19.8341C19.4644 19.1394 13.7865 19.6885 12.4644 19.7249V21.4308C12.4644 21.6576 12.2795 21.8397 12.0526 21.8397C11.8257 21.8397 11.6408 21.6576 11.6408 21.4308V19.7305C10.3215 19.6969 4.66325 19.1647 4.2739 12.6296H2.56801C2.34112 12.6296 2.15625 12.4448 2.15625 12.2207C2.15625 11.9966 2.34112 11.8117 2.56801 11.8117H4.24308C4.31311 4.63524 10.3803 4.18426 11.6436 4.17306V2.56521C11.6436 2.33832 11.8285 2.15625 12.0554 2.15625C12.2823 2.15625 12.4672 2.33832 12.4672 2.56521V4.18146C13.8733 4.23468 19.7697 4.86493 19.8649 11.8117ZM12.47 16.5176V18.9069C14.0526 18.8649 18.6745 18.2375 19.019 12.6296H16.498C16.2711 12.6296 16.0862 12.4476 16.0862 12.2207C16.0862 11.9966 16.2711 11.8117 16.498 11.8117H19.0442C18.9546 5.7753 14.1338 5.06381 12.47 5.00219V7.48118C12.47 7.70807 12.2851 7.89014 12.0582 7.89014C11.8313 7.89014 11.6464 7.70807 11.6464 7.48118V4.99378C10.0834 5.01339 5.13384 5.57362 5.06942 11.8145H7.51199C7.73888 11.8145 7.92376 11.9966 7.92376 12.2235C7.92376 12.4504 7.73888 12.6324 7.51199 12.6324H5.10023C5.46157 18.2627 10.0722 18.8761 11.6464 18.9126V16.5176C11.6464 16.2907 11.8313 16.1086 12.0582 16.1086C12.2851 16.1086 12.47 16.2907 12.47 16.5176Z" fill="#313235"/>
</svg>
