<svg width="24" height="24" viewBox="0 0 24 24" fill="none" xmlns="http://www.w3.org/2000/svg">
<path fill-rule="evenodd" clip-rule="evenodd" d="M15.9871 21.596C16.2757 21.7557 16.5838 21.8341 16.8919 21.8341C17.2673 21.8341 17.6398 21.7165 17.9731 21.4812C18.6034 21.0386 18.9143 20.2767 18.7855 19.5008L18.0516 15.047C18.0292 14.9266 18.0684 14.8033 18.1524 14.7165L21.2589 11.5652C21.7939 11.0218 21.9731 10.2263 21.7294 9.49238C21.4913 8.7753 20.9143 8.2795 20.1888 8.17026L15.9003 7.5204C15.7883 7.50359 15.693 7.43076 15.6426 7.32432L13.7238 3.2711C13.3961 2.58482 12.735 2.15625 11.9955 2.15625C11.2561 2.15625 10.595 2.58202 10.2701 3.2711L8.35129 7.32432C8.30367 7.42796 8.20843 7.50079 8.09639 7.51759L3.80507 8.16745C3.07958 8.2767 2.50255 8.7725 2.26445 9.48958C2.01796 10.2235 2.20003 11.019 2.73504 11.5624L5.83868 14.7165C5.92272 14.8033 5.96193 14.9266 5.94232 15.047L5.20843 19.5008C5.07958 20.2767 5.3905 21.0358 6.02076 21.4812C6.6202 21.9042 7.36249 21.949 8.00395 21.596L11.8415 19.4924C11.9395 19.4392 12.0544 19.4392 12.1496 19.4924L15.9871 21.596ZM12.4185 19.0022C12.2869 18.9294 12.1412 18.8929 11.9955 18.8929C11.8499 18.8929 11.7042 18.9294 11.5698 19.0022L7.73224 21.1058C7.28406 21.3523 6.76305 21.3215 6.34289 21.0246C5.8919 20.7025 5.66782 20.1535 5.76025 19.5904L6.49415 15.1366C6.54457 14.8425 6.44933 14.5372 6.23924 14.3215L3.1356 11.1703C2.74905 10.7753 2.6202 10.2011 2.79667 9.66605C2.96753 9.15345 3.3765 8.80051 3.8891 8.72208L8.18042 8.07222C8.47734 8.0246 8.72944 7.83412 8.85549 7.56241L10.7743 3.50919C11.0096 3.01059 11.4661 2.71367 11.9955 2.71367C12.525 2.71367 12.9815 3.01059 13.2168 3.50919L15.1356 7.55961C15.2617 7.83412 15.5138 8.0246 15.8135 8.07222L20.1048 8.72208C20.6174 8.80051 21.0264 9.15345 21.1972 9.66605C21.3765 10.2011 21.2448 10.7781 20.8583 11.1703L17.7518 14.3243C17.5418 14.5372 17.4465 14.8425 17.4969 15.1366L18.2308 19.5904C18.3233 20.1562 18.0992 20.7053 17.6482 21.0246C17.228 21.3215 16.707 21.3523 16.2561 21.1058L12.4185 19.0022Z" fill="#313235"/>
</svg>
