<svg width="24" height="24" viewBox="0 0 24 24" fill="none" xmlns="http://www.w3.org/2000/svg">
<path fill-rule="evenodd" clip-rule="evenodd" d="M18.9083 11.524H21.4221C21.6603 11.524 21.8453 11.7201 21.8397 11.9443C21.8397 12.1797 21.6547 12.3647 21.4165 12.3647H18.9027C18.8607 12.3647 18.8271 12.3563 18.7934 12.3479C18.7514 14.346 18.1909 15.7444 17.395 16.7225C17.4399 16.7393 17.4735 16.7561 17.4987 16.7897L19.0989 18.3759C19.2586 18.5468 19.2586 18.8074 19.0989 18.9756C19.0148 19.0597 18.9027 19.0933 18.7934 19.0933C18.6841 19.0933 18.5833 19.0597 18.4964 18.9756L16.9046 17.3894C16.8863 17.3711 16.8725 17.3484 16.8598 17.3277C16.855 17.3199 16.8504 17.3123 16.8458 17.3054C15.296 18.7318 13.2559 18.9588 12.4236 18.984V21.4221C12.4236 21.6491 12.2302 21.8425 12.0004 21.8425C11.765 21.8425 11.5772 21.6491 11.5772 21.4221V18.984C10.6889 18.9504 8.72436 18.7066 7.21667 17.3166C7.21003 17.3265 7.20471 17.3365 7.19966 17.3459C7.19191 17.3604 7.18481 17.3736 7.17463 17.3838L5.57445 18.9756C5.52401 19.026 5.46516 19.0513 5.3979 19.0765C5.32223 19.1353 5.22695 19.1774 5.12607 19.1774C5.02238 19.1774 4.91308 19.1353 4.82901 19.0513C4.66647 18.8915 4.66647 18.6197 4.82901 18.4515L6.58332 16.7168C6.60014 16.7 6.61695 16.6916 6.63376 16.6832C5.8687 15.7052 5.32784 14.3236 5.2774 12.3507C5.27538 12.3513 5.27339 12.3519 5.2714 12.3525C5.24571 12.3603 5.22174 12.3675 5.19052 12.3675H2.57307C2.33766 12.3675 2.1499 12.1853 2.1499 11.9471C2.1499 11.7201 2.33486 11.5268 2.57307 11.5268H5.19052C5.21294 11.5268 5.23536 11.5343 5.25778 11.5417C5.26899 11.5455 5.2802 11.5492 5.29141 11.552C5.39229 9.59311 5.98641 8.23674 6.7907 7.30915C6.77388 7.29233 6.75707 7.28392 6.74026 7.27552L4.97754 5.52121C4.80939 5.35026 4.80939 5.08123 4.97754 4.92149C5.14008 4.75334 5.41191 4.75334 5.57165 4.92149L7.33437 6.6758C7.34277 6.68421 7.34908 6.69262 7.35539 6.70102C7.36169 6.70943 7.368 6.71784 7.3764 6.72624C8.86729 5.46236 10.7393 5.26899 11.5772 5.25217V2.57026C11.5772 2.33486 11.765 2.1499 12.0004 2.1499C12.2302 2.1499 12.4236 2.33486 12.4236 2.57026V5.25217C13.2391 5.2858 15.1363 5.50439 16.6524 6.76828C16.6608 6.75987 16.6692 6.74306 16.6776 6.72625L16.6776 6.72624L18.4992 4.92149C18.6617 4.75334 18.9336 4.75334 19.1017 4.92149C19.2614 5.08403 19.2614 5.35306 19.1017 5.52121L17.2801 7.32596C17.2717 7.33437 17.2549 7.34277 17.2381 7.35118C18.0676 8.27878 18.6701 9.62674 18.7794 11.5492C18.7952 11.5462 18.8106 11.5422 18.8258 11.5383C18.8539 11.531 18.8811 11.524 18.9083 11.524ZM11.7398 18.1433H12.3339C14.0265 18.1096 17.9583 17.4595 17.9555 12.1321C17.9555 6.80471 14.0013 6.13774 12.2974 6.0957C12.1461 6.08729 11.9752 6.08729 11.807 6.08729H11.6893C10.0107 6.10411 6.11532 6.72064 6.11532 12.0985C6.11532 17.4875 10.0443 18.1181 11.7398 18.1433Z" fill="#313235"/>
</svg>
