<svg width="24" height="24" fill="none" xmlns="http://www.w3.org/2000/svg"><path d="M9.474 3.002a.417.417 0 0 1-.404-.432c.003-.235.151-.412.415-.42h.37c.417 0 .773.291.888.728.036.143.09.404.145.704h2.925c.13 0 .25.061.328.168a.434.434 0 0 1 .067.375s-.285 1.045-.44 1.589c-.148.535-.512.857-.963.857h-1.401c-.594 0-.941-.555-1.014-1.07a86.878 86.878 0 0 0-.241-1.418l-.003-.014c-.076-.42-.149-.801-.193-.97-.024-.094-.097-.1-.101-.1-.2.006-.378.003-.378.003Zm1.566 1.434a73.528 73.528 0 0 1 .157.936c.01.062.08.35.204.35h1.4c.09 0 .15-.132.18-.244.082-.285.2-.706.292-1.042H11.04Zm1.095 5.82c.608 0 1.082.167 1.41.498.341.342.515.852.515 1.507 0 .659-.174 1.166-.519 1.508-.327.327-.8.493-1.409.493-.608 0-1.081-.168-1.409-.494-.339-.344-.513-.848-.513-1.507 0-.655.171-1.165.513-1.507.33-.33.807-.499 1.412-.499Zm.846 2.899c.177-.174.264-.476.264-.894 0-.417-.09-.72-.267-.896-.17-.171-.454-.258-.843-.258-.386 0-.672.084-.84.258-.174.176-.264.479-.264.896 0 .418.09.717.26.894.169.17.455.258.844.258.39 0 .675-.087.846-.258ZM11.473 6.95l-.016-.002h-.008c-.079.003-.373.031-.373.41 0 .38.297.408.375.411h.04c.075 0 .375-.03.375-.409 0-.375-.302-.406-.378-.409l-.015-.001Zm1.242-.002.015.002.016.001c.075.003.378.034.378.41 0 .377-.3.408-.375.408h-.034c-.081-.003-.375-.03-.375-.412 0-.378.294-.406.372-.409h.003Zm8.304 13.989h-2.437v-8.251h2.437v8.25Zm-3.253 0-2.207.011v-5.077a.417.417 0 0 0-.41-.425H9.088a.417.417 0 0 0-.41.426v5.098l-2.232.009L6.44 9.254c.02-.042.152-.143.303-.143h10.73c.127 0 .239.073.28.1a.148.148 0 0 0 .014.01v11.716ZM14.738 16.3v4.65l-5.24.018V16.3h5.24Zm-11.77 4.637v-8.251h2.438v8.25H2.968ZM21.84 12.26a.417.417 0 0 0-.409-.426v-.003h-2.844v-2.61c0-.513-.52-.962-1.115-.962H6.745c-.594 0-1.115.449-1.115.961v2.614H2.56a.415.415 0 0 0-.41.426v9.103c0 .235.182.476.41.476h18.868c.227 0 .412-.24.412-.476V12.26Z" fill="#313235"/></svg>