<svg width="24" height="24" viewBox="0 0 24 24" fill="none" xmlns="http://www.w3.org/2000/svg">
<path fill-rule="evenodd" clip-rule="evenodd" d="M22 14.7702C22 8.37766 18.5396 5 11.9972 5C5.4576 5 2 8.38047 2 14.7702C2 16.2382 2.18497 17.5657 2.55208 18.7131C2.60899 18.8847 2.76836 19 2.95048 19H21.041C21.2003 19 21.3455 18.9128 21.4166 18.7722L21.4394 18.7272C21.4479 18.7103 21.4565 18.6878 21.4622 18.6681C21.8179 17.5319 22 16.2186 22 14.7702ZM21.1662 14.7702C21.1662 16.0329 21.0211 17.1804 20.7365 18.1844H3.26352C2.98179 17.1804 2.83665 16.0329 2.83665 14.7702C2.83665 8.82764 5.91861 5.81559 12 5.81559C18.0814 5.81559 21.1662 8.82764 21.1662 14.7702ZM12 16.7023C12.424 16.7023 12.7627 16.4042 12.848 16.0133L12.1565 16.2101C11.9374 16.2748 11.7069 16.1511 11.6386 15.9345C11.576 15.718 11.7012 15.493 11.9203 15.4283H11.9232L12.6261 15.2258C12.461 15.0627 12.2362 14.9699 12 14.9727C11.5105 14.9727 11.115 15.3608 11.115 15.8361C11.115 16.3142 11.5105 16.7023 12 16.7023ZM13.4741 14.9896C13.1639 14.4749 12.6033 14.1599 12 14.1599C11.0524 14.1599 10.2812 14.9136 10.2812 15.8389C10.2812 16.7642 11.0495 17.5151 11.9972 17.5151C12.9448 17.5151 13.716 16.7614 13.716 15.8361C13.716 15.8231 13.7137 15.8108 13.7115 15.7988C13.7095 15.7876 13.7075 15.7767 13.7075 15.7658L19.823 14.0137H19.8287C20.0478 13.9518 20.173 13.724 20.1076 13.5102V13.5074C20.0421 13.2909 19.8116 13.1699 19.5925 13.2346L13.4741 14.9896ZM11.9858 8.38047C11.7553 8.38047 11.5703 8.20048 11.5674 7.97268V7.14584C11.5674 6.92085 11.7553 6.73805 11.9829 6.73805C12.2134 6.73805 12.4013 6.92085 12.4013 7.14584V7.97268C12.4013 8.20048 12.2134 8.38329 11.9858 8.38047ZM7.3045 9.49136L6.70404 8.90639C6.53899 8.7489 6.27718 8.7489 6.11497 8.90639L6.10928 8.91201C5.95276 9.06951 5.95276 9.32543 6.11497 9.48292L6.71542 10.0679C6.87763 10.2254 7.13944 10.2254 7.3045 10.0679L7.31019 10.0623C7.4667 9.90478 7.4667 9.64885 7.3045 9.49136ZM4.89983 13.693C5.13034 13.693 5.31531 13.8759 5.31531 14.1008C5.31531 14.3258 5.12749 14.5086 4.89983 14.5086H4.05179C3.82413 14.5086 3.63631 14.3258 3.63631 14.1008C3.63631 13.8759 3.82413 13.693 4.05179 13.693H4.89983ZM16.7382 10.1073C16.8179 10.1832 16.9232 10.2254 17.0341 10.2254C17.1423 10.2254 17.2504 10.1804 17.3301 10.1073L17.9277 9.5223L17.9334 9.51667C18.0928 9.35637 18.0899 9.10044 17.9277 8.94576C17.7655 8.78546 17.5009 8.78546 17.3386 8.94576L16.7382 9.53074L16.7353 9.53355C16.576 9.69385 16.576 9.94978 16.7382 10.1073Z" fill="#313235"/>
</svg>
