<svg width="24" height="24" fill="none" xmlns="http://www.w3.org/2000/svg"><path d="M22 14.77C22 8.378 18.54 5 11.997 5 5.457 5 2 8.38 2 14.77c0 1.468.185 2.796.552 3.943A.418.418 0 0 0 2.95 19h18.091c.16 0 .305-.087.376-.228l.022-.045a.37.37 0 0 0 .023-.059c.356-1.136.538-2.45.538-3.898Zm-.834 0c0 1.263-.145 2.41-.43 3.414H3.264c-.282-1.004-.427-2.151-.427-3.414 0-5.942 3.082-8.954 9.163-8.954s9.166 3.012 9.166 8.954ZM12 16.702a.875.875 0 0 1-.885-.866c0-.475.396-.863.885-.863a.876.876 0 0 1 .626.253l-.703.202h-.003a.41.41 0 0 0-.281.506.42.42 0 0 0 .518.276l.691-.197a.867.867 0 0 1-.848.69Zm1.474-1.712A1.72 1.72 0 0 0 12 14.16c-.948 0-1.719.754-1.719 1.679s.768 1.676 1.716 1.676 1.719-.754 1.719-1.679a.15.15 0 0 0-.005-.037c-.002-.011-.004-.022-.004-.033l6.116-1.752h.006a.403.403 0 0 0 .279-.504v-.003a.414.414 0 0 0-.515-.272l-6.119 1.755Zm-1.488-6.61a.414.414 0 0 1-.419-.407v-.827c0-.225.188-.408.416-.408.23 0 .418.183.418.408v.827a.41.41 0 0 1-.415.407ZM7.304 9.491l-.6-.585a.426.426 0 0 0-.589 0l-.006.006a.4.4 0 0 0 .006.57l.6.586a.426.426 0 0 0 .59 0l.005-.006a.4.4 0 0 0-.005-.57ZM4.9 13.693c.23 0 .415.183.415.408a.413.413 0 0 1-.415.408h-.848a.413.413 0 0 1-.416-.408c0-.225.188-.408.416-.408H4.9Zm11.838-3.586a.428.428 0 0 0 .592 0l.598-.585.005-.005a.398.398 0 0 0-.005-.571.42.42 0 0 0-.59 0l-.6.585-.003.003a.401.401 0 0 0 .003.573Z" fill="#313235"/></svg>