<svg width="24" height="24" fill="none" xmlns="http://www.w3.org/2000/svg"><path fill-rule="evenodd" clip-rule="evenodd" d="M14.66 10.646a.516.516 0 0 1-.092-.008c-.395-.07-.395-.434-.395-.555V8.725h-.39c-.71 0-1.249-.574-1.249-1.333V3.49c0-.737.6-1.334 1.334-1.334H20.5c.736 0 1.333.597 1.333 1.334v3.902c0 .736-.596 1.333-1.333 1.333h-4.258c-.33.493-.97 1.45-1.005 1.51l-.005.006c-.08.121-.27.405-.573.405Zm-.792-7.93a.773.773 0 0 0-.773.774v3.902c0 .456.282.773.689.773h.67c.153 0 .28.126.28.28v1.532a.36.36 0 0 1 .016-.025l.014-.02a416.55 416.55 0 0 1 1.095-1.641.273.273 0 0 1 .233-.124H20.5a.775.775 0 0 0 .773-.773V3.49a.775.775 0 0 0-.773-.774h-6.633Zm1.131 3.558a.826.826 0 1 1 0-1.652.826.826 0 0 1 0 1.652Zm0-1.093a.268.268 0 0 0-.266.267c0 .145.12.266.266.266.146 0 .266-.12.266-.266A.268.268 0 0 0 15 5.18Zm1.359.267a.826.826 0 1 0 1.652 0 .826.826 0 0 0-1.652 0Zm.56 0c0-.146.12-.267.266-.267.146 0 .266.12.266.267 0 .145-.12.266-.266.266a.268.268 0 0 1-.266-.266Zm2.451.826a.826.826 0 1 1 0-1.652.826.826 0 0 1 0 1.652Zm0-1.093a.268.268 0 0 0-.266.267c0 .145.12.266.266.266.146 0 .266-.12.266-.266a.268.268 0 0 0-.266-.267Zm-13.361 9.51c.6.636 1.479.958 2.613.958 1.135 0 2.014-.322 2.614-.955.566-.602.854-1.445.854-2.513 0-1.067-.289-1.913-.854-2.512-.6-.636-1.48-.958-2.614-.958s-2.014.322-2.613.958c-.566.602-.855 1.445-.855 2.512 0 1.068.286 1.91.855 2.51Zm2.613-5.42c-2.403 0-2.907 1.583-2.907 2.91 0 2.404 1.582 2.908 2.907 2.908 2.404 0 2.908-1.583 2.908-2.908 0-1.324-.504-2.91-2.908-2.91ZM2.156 21.554c0 .154.126.28.28.28h12.37a.28.28 0 0 0 .28-.277v-1.042c0-1.27-.33-2.238-.977-2.894-.647-.655-1.617-.986-2.877-.986H6.01c-1.26 0-2.227.33-2.877.983-.65.653-.978 1.628-.978 2.894v1.042Zm12.37-.28v-.762c0-1.115-.274-1.955-.812-2.499-.538-.543-1.376-.818-2.482-.818H6.01c-1.107 0-1.942.275-2.482.818-.54.544-.813 1.387-.813 2.499v.762h11.81Z" fill="#313235"/></svg>