<svg width="24" height="24" fill="none" xmlns="http://www.w3.org/2000/svg"><path d="M21.84 12.005a.41.41 0 0 0-.41-.41h-1.766c-.202-6.638-5.78-7.347-7.27-7.415V2.56a.408.408 0 0 0-.409-.41.408.408 0 0 0-.409.41v1.61h-.05c-1.218.008-7.18.434-7.36 7.428H2.54a.408.408 0 0 0 0 .816h1.64c.29 6.809 6.184 7.266 7.39 7.28h.003v1.756a.41.41 0 1 0 .82 0v-1.761c1.438-.054 7.002-.699 7.262-7.275h1.776a.41.41 0 0 0 .409-.41Zm-3 .409c-.242 5.693-4.799 6.394-6.445 6.456v-.69a.408.408 0 0 0-.41-.41.408.408 0 0 0-.409.41v.698c-1.517-.022-6.313-.583-6.582-6.464h.813a.41.41 0 0 0 0-.819h-.821c.168-6.066 5.034-6.599 6.545-6.613h.045v.847c0 .228.182.41.41.41a.408.408 0 0 0 .409-.41V5c1.69.076 6.262.836 6.45 6.596h-.684a.41.41 0 0 0 0 .819h.678Zm-7.945-3.69c.21-.202.555-.309 1.02-.309.466 0 .81.107 1.024.311.219.21.328.561.328 1.043 0 .48-.11.83-.328 1.04-.213.206-.558.31-1.027.31-.462 0-.807-.102-1.017-.306-.22-.21-.329-.561-.329-1.043 0-.483.11-.833.329-1.047Zm-.57 2.678c.37.356.903.535 1.588.535.687 0 1.222-.18 1.592-.535.385-.373.58-.923.58-1.632 0-.71-.195-1.26-.58-1.633-.373-.359-.905-.538-1.593-.538-.684 0-1.217.182-1.587.538-.384.373-.577.923-.577 1.635 0 .713.193 1.26.577 1.63Zm4.628 4.044h-6.07v-.152c0-.328.07-.796.396-1.136.36-.375.915-.454 1.316-.454h2.641c.401 0 .957.079 1.321.454.325.34.396.805.396 1.136v.152Zm.193-1.854c-.446-.463-1.105-.707-1.91-.707l-2.644-.003c-.802 0-1.461.244-1.904.707-.407.426-.623 1.015-.623 1.702v.724c0 .137.11.247.247.247h7.213c.137 0 .246-.11.246-.247v-.72c0-.688-.216-1.277-.625-1.703Z" fill="#313235"/></svg>