<svg width="24" height="24" fill="none" xmlns="http://www.w3.org/2000/svg"><path fill-rule="evenodd" clip-rule="evenodd" d="M11.534 5.156c-.002.222.182.4.41.404a.41.41 0 0 0 .414-.398l.014-2.602a.405.405 0 0 0-.409-.404h-.003a.406.406 0 0 0-.412.398l-.014 2.602ZM8.25 5.078l1.16 1.143a.422.422 0 0 0 .582.002.397.397 0 0 0 .003-.568l-1.16-1.143a.42.42 0 0 0-.583-.003.395.395 0 0 0-.002.569Zm5.95 1.26a.41.41 0 0 1-.29-.117.395.395 0 0 1-.002-.569l1.16-1.14c.16-.16.42-.16.582-.003a.395.395 0 0 1 .003.569l-1.16 1.143a.422.422 0 0 1-.294.117ZM4.766 9.271c0-.507.12-.877.361-1.104.233-.218.608-.33 1.115-.333.507 0 .882.115 1.118.333.238.225.361.597.361 1.104 0 .507-.12.877-.361 1.098-.236.221-.614.33-1.12.33-.508 0-.883-.109-1.116-.327-.238-.224-.358-.594-.358-1.1Zm1.476 2.233c-.728 0-1.294-.185-1.686-.552-.406-.381-.614-.944-.614-1.678s.208-1.3.614-1.684c.392-.367.958-.554 1.686-.554.726 0 1.294.187 1.69.554.408.384.615.95.615 1.684s-.207 1.297-.616 1.68c-.395.365-.963.55-1.689.55Zm14.776 3.462-.045 4.431h-1.652v-3.16c0-.22-.185-.4-.412-.4a.407.407 0 0 0-.412.4V19.4h-4.053l.03-2.415h.009v-.722l.006-.485-.002-.108-.001-.1v-.117a.04.04 0 0 0-.003-.014.03.03 0 0 1-.003-.011V13.82c0-.221-.185-.4-.412-.4a.407.407 0 0 0-.411.4v.431l-1.247-1.593V9.744l2.348 3.076s.156.227.31.328c.115.075.37.137.533.137h3.56c.434 0 1.036.084 1.428.482.28.286.429.7.429 1.199Zm-9.434-2.437V9.744L9.237 12.82s-.156.227-.31.328c-.115.075-.373.137-.533.137H4.84c-.434 0-1.037.084-1.429.482-.28.286-.428.7-.428 1.199l.044 4.434h1.656v-3.16c0-.221.185-.4.412-.4.227 0 .411.179.411.4v3.16h4.05l-.027-2.415H9.52v-.725l-.005-.482.001-.104.002-.1v-.118l.001-.013.001-.012v-1.608c0-.221.185-.4.412-.4.227 0 .412.179.412.4v.431l1.246-1.593v-.132h-.005Zm10.258 2.437c0-.712-.23-1.317-.662-1.754-.467-.476-1.168-.728-2.022-.728h-2.804c-.272 0-.54-.02-.773-.134-.14-.07-.429-.359-.429-.359l-2.815-3.69V8.3l-.002-.005h-.003l-.001-.001-.002-.002-.003-.006a.42.42 0 0 0-.081-.076c-.03-.028-.112-.058-.112-.058l-.011-.003a.411.411 0 0 0-.118-.017c-.045 0-.087 0-.115.008a.082.082 0 0 0-.013.005l-.012.004a.425.425 0 0 0-.135.078c-.022.02-.044.04-.064.065l-.003.005-2.818 3.692s-.285.289-.428.359c-.233.115-.499.134-.773.134H4.837c-.852 0-1.552.252-2.022.729-.432.436-.659 1.041-.659 1.753l.048 4.98c0 .14.12.255.263.255h7.658c.143 0 .26-.115.26-.255l-.044-3.683v-.69L12 13.45l1.662 2.124v.691l-.045 3.681c0 .14.117.255.26.255h7.656c.145 0 .26-.115.26-.255l.05-4.98Zm-5.205-6.793c-.24.227-.364.597-.364 1.104 0 .504.123.876.361 1.098.235.218.61.328 1.12.328.51 0 .883-.11 1.116-.328.238-.224.358-.594.358-1.101s-.12-.88-.361-1.104c-.233-.218-.608-.33-1.115-.33-.504 0-.88.112-1.115.333Zm-1.188 1.1c0 .735.21 1.3.62 1.682.392.367.96.551 1.686.549.728 0 1.294-.185 1.686-.552.406-.381.613-.947.613-1.68 0-.735-.207-1.3-.613-1.682-.392-.37-.96-.554-1.686-.554s-1.294.187-1.687.554c-.411.384-.619.95-.619 1.684Z" fill="#313235"/></svg>