<svg width="24" height="24" fill="none" xmlns="http://www.w3.org/2000/svg"><path fill-rule="evenodd" clip-rule="evenodd" d="M5.17 16.385h13.655c1.014 0 1.784-.295 2.291-.877.48-.546.72-1.353.72-2.398V8.172c0-1.045-.243-1.852-.72-2.398-.507-.58-1.277-.874-2.29-.874H5.17c-1.014 0-1.785.294-2.292.874-.479.546-.72 1.353-.72 2.398v4.938c0 1.045.241 1.852.72 2.4.507.58 1.278.875 2.292.875Zm-2.451-8.21c0-1.852.778-2.715 2.45-2.715h13.656c1.672 0 2.451.86 2.451 2.712v4.94c0 1.852-.779 2.715-2.45 2.715H5.17c-1.673 0-2.451-.863-2.451-2.714V8.175Zm18.829 10.428H2.43a.28.28 0 0 1-.28-.28.28.28 0 0 1 .28-.28h19.118a.28.28 0 0 1 .28.28.28.28 0 0 1-.28.28ZM15.25 6.861c-.294 0-.552.053-.77.154-.342.16-.647.468-.91.916-.107.18-.197.367-.272.563l-.009.008-3.779 1.762h-.01a3.643 3.643 0 0 0-1.118-.199c-.292 0-.552.053-.77.154-.343.16-.648.468-.908.916-.11.188-.205.381-.28.586a.672.672 0 0 0 .067.622.617.617 0 0 0 .51.26.713.713 0 0 0 .31-.073l.493-.23.314.169-.073.35-.493.23a.663.663 0 0 0-.403.619c.008.26.185.484.451.582.059.023.583.207 1.14.207.291 0 .552-.053.77-.154.342-.16.647-.467.908-.916.106-.179.196-.367.272-.563l.008-.008 3.782-1.762h.01c.118.042.603.199 1.118.199.294 0 .552-.053.77-.154.342-.16.648-.468.908-.916.11-.188.205-.381.28-.585a.672.672 0 0 0-.067-.622.624.624 0 0 0-.51-.26.713.713 0 0 0-.31.072l-.494.23-.313-.168.072-.35.494-.23c.257-.12.411-.359.4-.62-.011-.26-.185-.484-.45-.582l-.005-.001a3.688 3.688 0 0 0-1.133-.206Zm0 .56c.476 0 .947.174.947.174.112.042.114.115.008.165l-.552.258a.489.489 0 0 0-.24.305l-.13.61a.31.31 0 0 0 .146.314l.55.294c.064.031.136.048.206.045a.437.437 0 0 0 .18-.036l.552-.258a.167.167 0 0 1 .072-.02c.056 0 .079.051.05.132 0 0-.33.916-.896 1.182-.16.076-.347.101-.535.101-.476 0-.946-.173-.946-.173a.524.524 0 0 0-.174-.028.627.627 0 0 0-.227.041l-3.82 1.788a.598.598 0 0 0-.27.294s-.33.916-.896 1.182c-.16.075-.347.1-.535.1-.476 0-.947-.173-.947-.173-.112-.042-.115-.115-.008-.168l.552-.258a.49.49 0 0 0 .24-.302l.13-.611a.306.306 0 0 0-.146-.314l-.55-.294a.447.447 0 0 0-.207-.045.437.437 0 0 0-.179.037l-.552.258a.166.166 0 0 1-.072.02c-.056 0-.079-.051-.05-.133 0 0 .33-.915.896-1.182.16-.075.347-.1.535-.1.476 0 .946.173.946.173.056.02.115.028.174.028a.627.627 0 0 0 .227-.042l3.82-1.784a.592.592 0 0 0 .27-.297s.33-.916.896-1.182a1.3 1.3 0 0 1 .535-.101Z" fill="#313235"/></svg>