<svg width="24" height="24" viewBox="0 0 24 24" fill="none" xmlns="http://www.w3.org/2000/svg">
<path fill-rule="evenodd" clip-rule="evenodd" d="M17.2845 2.25647C17.6318 2.19204 17.9848 2.15563 18.3405 2.15002H18.3461C18.6822 2.15002 18.9511 2.31809 19.0632 2.587C19.1752 2.85591 19.0996 3.16123 18.8615 3.39932L18.1304 4.13042C18.1024 4.17523 18.0856 4.22565 18.0828 4.27607L18.2229 5.26207L19.2088 5.40213C19.2593 5.39652 19.3097 5.38252 19.3517 5.35451L20.0828 4.62341C20.2929 4.41613 20.503 4.37131 20.643 4.37131C20.9848 4.37131 21.3293 4.63462 21.3321 5.13882C21.3265 5.48336 21.2929 5.8279 21.2313 6.16963C21.0856 6.96515 20.8111 7.57019 20.4133 7.96795C20.0212 8.36011 19.4273 8.63462 18.6458 8.78028C18.2985 8.8447 17.9455 8.88112 17.5898 8.88672H17.587C17.5086 8.90072 17.4301 8.93154 17.3657 8.97916L8.97636 17.3685C8.92874 17.4329 8.89512 17.5086 8.88392 17.5898C8.87832 17.9343 8.8447 18.2789 8.78308 18.6206C8.63742 19.4161 8.36291 20.0212 7.96515 20.4189C7.57299 20.8111 6.97916 21.0856 6.19764 21.2313C5.8503 21.2957 5.49736 21.3321 5.14162 21.3377H5.13882C4.80269 21.3377 4.53378 21.1724 4.42173 20.9035C4.30969 20.6346 4.38532 20.3293 4.62341 20.0912L5.35451 19.3601C5.38252 19.3153 5.39932 19.2649 5.40213 19.2145L5.26207 18.2257L4.27607 18.0856C4.22285 18.0884 4.17523 18.1052 4.13042 18.1332L3.39932 18.8643C3.18924 19.0716 2.97916 19.1164 2.8391 19.1164C2.49736 19.1164 2.15283 18.8531 2.15002 18.3489C2.15563 18.0044 2.18924 17.6598 2.25086 17.3181C2.39652 16.5226 2.67103 15.9175 3.06879 15.5198C3.46095 15.1276 4.05479 14.8531 4.8363 14.7074C5.18364 14.643 5.53658 14.6066 5.89232 14.601H5.89512C5.97355 14.587 6.05199 14.5562 6.11641 14.5086L14.5058 6.11921C14.5534 6.05479 14.587 5.97916 14.5982 5.89792C14.6038 5.55339 14.6374 5.20885 14.699 4.86711C14.8447 4.07159 15.1192 3.46655 15.517 3.06879C15.9091 2.67664 16.503 2.40213 17.2845 2.25647ZM18.4497 2.99036C18.5926 2.8475 18.545 2.72706 18.3405 2.72706C18.2873 2.72706 16.6682 2.73266 15.9231 3.47776C15.1696 4.23126 15.1752 5.89512 15.1752 5.89512C15.1752 6.0996 15.0576 6.38252 14.9147 6.52818L6.52257 14.9175C6.37972 15.0604 6.0968 15.178 5.89232 15.178H5.88952C5.8335 15.178 4.21445 15.1836 3.47215 15.9287C2.71865 16.685 2.72425 18.3489 2.72425 18.3489C2.72425 18.4722 2.76907 18.5394 2.8363 18.5394C2.88112 18.5394 2.93154 18.5114 2.98756 18.4553L3.72425 17.7187C3.8503 17.5898 4.0856 17.503 4.27607 17.503C4.30129 17.503 4.32649 17.5058 4.35171 17.5086L5.40493 17.6598C5.60381 17.6906 5.79428 17.8783 5.82229 18.08L5.97355 19.1332C6.00156 19.3349 5.90633 19.6178 5.76347 19.7607L5.02678 20.4946C4.88392 20.6374 4.93154 20.7579 5.13602 20.7579H5.13882C5.19484 20.7579 6.81389 20.7523 7.55619 20.01C8.30969 19.2565 8.30409 17.5926 8.30409 17.5926C8.30409 17.3881 8.42173 17.1024 8.56459 16.9595L16.9567 8.56459C17.0996 8.42173 17.3825 8.30409 17.587 8.30409H17.5898C17.6458 8.30409 19.2649 8.29848 20.0072 7.55619C20.7607 6.80269 20.7551 5.13882 20.7551 5.13882C20.7551 5.01557 20.7102 4.94834 20.643 4.94834C20.5982 4.94834 20.5478 4.97636 20.4918 5.03238L19.7579 5.76627C19.6318 5.89512 19.3965 5.98196 19.206 5.98196C19.1808 5.98196 19.1556 5.97916 19.1304 5.97636L18.0772 5.82509C17.8755 5.79428 17.685 5.60661 17.657 5.40493L17.5058 4.35171C17.4778 4.15002 17.573 3.86711 17.7159 3.72425L18.4497 2.99036Z" fill="#313235"/>
</svg>
