<svg width="24" height="24" viewBox="0 0 24 24" fill="none" xmlns="http://www.w3.org/2000/svg">
<path fill-rule="evenodd" clip-rule="evenodd" d="M7.04894 14.3801C5.21154 12.3135 3.90531 10.2511 3.27047 8.40703C2.69904 6.75157 2.70745 5.36781 3.29288 4.51067C3.29848 4.49947 3.30689 4.48826 3.31809 4.47426C3.55058 4.14652 3.75787 3.90003 3.93154 3.73196C4.66823 3.02608 5.35731 2.68994 6.03798 2.70395C6.69064 2.71515 7.3377 3.05129 8.01277 3.72636C8.27607 3.98406 8.50577 4.27257 8.69344 4.5891L8.69904 4.5975C9.03238 5.13532 9.15563 5.67594 9.06599 6.20815C8.97075 6.77117 8.63462 7.3426 8.07159 7.90563C7.92033 8.05969 7.75787 8.20255 7.5842 8.3342C7.57375 8.34047 7.56642 8.34829 7.55872 8.35652L7.55058 8.36501C7.17523 8.77397 7.19484 9.37622 7.61501 10.1605C7.91711 10.7263 8.43193 11.4078 9.18851 12.2421L7.04894 14.3801ZM9.58443 11.8465C7.78101 9.85428 7.69073 9.06744 7.94834 8.75997C8.13322 8.61991 8.30409 8.46865 8.46655 8.30339C9.36571 7.40703 10.2173 5.98406 9.17523 4.30899C8.96235 3.95325 8.70465 3.62552 8.40773 3.3342C6.8279 1.75717 5.19204 1.75437 3.54218 3.3314C3.3461 3.51907 3.11641 3.79358 2.86151 4.14933L2.8447 4.17173L2.8447 4.17174C2.8419 4.17454 2.8363 4.18014 2.8335 4.18574C2.13882 5.19134 2.10521 6.75437 2.73826 8.5891C3.40045 10.5095 4.75296 12.6472 6.65122 14.7776L5.8391 15.5891C5.78308 15.6283 5.71865 15.6563 5.64862 15.6675H5.64582C5.31529 15.6731 4.98476 15.7067 4.65983 15.7656C3.93154 15.9028 3.37411 16.1577 3.00717 16.5247C2.63462 16.8972 2.37692 17.463 2.24246 18.2053C2.18364 18.5219 2.15283 18.844 2.15002 19.1661C2.15283 19.6507 2.48616 19.9056 2.81389 19.9056C2.94834 19.9056 3.15002 19.8636 3.3489 19.6647L4.02678 18.9869C4.06319 18.9645 4.10241 18.9532 4.14442 18.9476L5.03798 19.0765L5.16683 19.9729C5.16403 20.0149 5.15002 20.0541 5.12762 20.0905L4.45255 20.7656C4.22565 20.9925 4.15283 21.2866 4.25927 21.5471C4.36571 21.8076 4.62341 21.9645 4.94554 21.9673H4.94834C5.27888 21.9617 5.60941 21.928 5.93434 21.8692C6.66263 21.732 7.22005 21.4771 7.587 21.1101C7.95955 20.7376 8.21725 20.1717 8.35171 19.4294C8.41053 19.1129 8.44134 18.7908 8.44414 18.4687C8.45535 18.4014 8.48056 18.3342 8.52257 18.2782L9.33757 17.4632C11.4723 19.3668 13.6189 20.7231 15.545 21.3818C16.4105 21.6787 17.2144 21.8272 17.9287 21.8272C18.7215 21.8272 19.4021 21.6451 19.9315 21.2866L19.9455 21.2754L19.968 21.2586C20.3209 21.0009 20.5954 20.774 20.7831 20.5779C22.3601 18.928 22.3573 17.2922 20.7803 15.7124C20.489 15.4154 20.1612 15.1577 19.8055 14.9448C18.1304 13.9056 16.7074 14.7572 15.8111 15.6535C15.6458 15.816 15.4918 15.9897 15.3517 16.1717C15.0447 16.429 14.2596 16.3393 12.2656 14.5352L16.3069 10.4939C16.3629 10.4546 16.4273 10.4266 16.4974 10.4154H16.5002C16.8307 10.4098 17.1612 10.3762 17.4862 10.3174C18.2145 10.1801 18.7719 9.92524 19.1388 9.55829C19.5114 9.18574 19.7691 8.61991 19.9035 7.87762C19.9623 7.56109 19.9932 7.23896 19.996 6.91683C19.9932 6.43504 19.6598 6.18294 19.3321 6.18294C19.1976 6.18294 18.996 6.22496 18.7971 6.42383L18.1164 7.0989C18.08 7.12131 18.0408 7.13252 17.9988 7.13812L17.1024 7.00927L16.9736 6.11291C16.9792 6.07089 16.9904 6.03168 17.0128 5.99526L17.6906 5.31739C17.9175 5.0905 17.9904 4.79638 17.8839 4.53588C17.7775 4.27538 17.5198 4.11851 17.1976 4.11571L17.1948 4.11851C16.8643 4.12411 16.5366 4.15773 16.2116 4.21935C15.4834 4.35661 14.9259 4.61151 14.559 4.97846C14.1864 5.35101 13.9287 5.91683 13.7943 6.65913C13.7355 6.97566 13.7046 7.29778 13.7018 7.61991C13.6906 7.68714 13.6654 7.75437 13.6234 7.81039L9.58443 11.8465ZM11.8682 14.9325L9.73387 17.0669C11.8072 18.9089 13.8779 20.2185 15.7271 20.8524C17.3769 21.4182 18.7551 21.407 19.6066 20.8244L19.643 20.7992C19.9708 20.5639 20.2173 20.3566 20.3797 20.1885C21.0828 19.4518 21.4189 18.7628 21.4077 18.0821C21.3965 17.4294 21.0604 16.7824 20.3853 16.1073C20.1276 15.844 19.8391 15.6143 19.5226 15.4266L19.5142 15.421C18.9792 15.0877 18.4357 14.9645 17.9035 15.0541C17.3405 15.1493 16.7719 15.4827 16.206 16.0485C16.052 16.1997 15.9091 16.365 15.7775 16.5359C15.7691 16.5471 15.7579 16.5583 15.7467 16.5695L15.7467 16.5695C15.3377 16.9476 14.7327 16.9252 13.9455 16.5051C13.3814 16.2011 12.6994 15.6882 11.8682 14.9325ZM17.1948 4.67874C17.3825 4.67874 17.4301 4.78798 17.2957 4.92243L16.615 5.60311C16.4806 5.73756 16.3937 5.99806 16.4217 6.18574L16.5618 7.16333C16.5898 7.35101 16.7635 7.52467 16.9511 7.55269L17.9287 7.69274C17.9511 7.69554 17.9764 7.69834 17.9988 7.69834C18.1752 7.69834 18.3937 7.61711 18.5114 7.49946L19.192 6.81879C19.2425 6.76557 19.2929 6.74316 19.3321 6.74316C19.3937 6.74316 19.4357 6.80479 19.4357 6.91963C19.4357 6.91963 19.4413 8.46305 18.7411 9.16333C18.052 9.85241 16.5506 9.85801 16.5002 9.85801H16.4974C16.3097 9.85801 16.0464 9.96725 15.9119 10.0989L8.12762 17.8804C7.99316 18.0149 7.88672 18.2782 7.88672 18.4659C7.88672 18.4659 7.89232 20.0093 7.19204 20.7095C6.50297 21.3986 5.00156 21.4042 4.95114 21.4042C4.76347 21.4042 4.71585 21.2922 4.8503 21.1605L5.53098 20.4799C5.66543 20.3454 5.75227 20.0849 5.72425 19.8972L5.5842 18.9196C5.55619 18.732 5.38252 18.5583 5.19484 18.5303L4.21725 18.3902C4.19484 18.3874 4.16963 18.3846 4.14722 18.3846C3.97075 18.3846 3.75227 18.4659 3.63462 18.5835L2.95114 19.2642C2.89792 19.3146 2.8503 19.3398 2.81109 19.3398C2.74946 19.3398 2.70745 19.2782 2.70745 19.1633C2.70745 19.1633 2.70185 17.6199 3.40213 16.9196C4.0912 16.2306 5.5926 16.225 5.64302 16.225H5.64862C5.8363 16.225 6.0996 16.1157 6.23406 15.9841L14.0156 8.19975C14.15 8.06529 14.2565 7.80199 14.2565 7.61431C14.2565 7.61431 14.2509 6.07089 14.9511 5.37061C15.643 4.68714 17.1444 4.67874 17.1948 4.67874Z" fill="#313235"/>
</svg>
