<svg width="24" height="24" viewBox="0 0 24 24" fill="none" xmlns="http://www.w3.org/2000/svg">
<path fill-rule="evenodd" clip-rule="evenodd" d="M5.16123 16.3846H18.8167C19.8307 16.3846 20.6038 16.0905 21.108 15.5079C21.587 14.9616 21.8279 14.1549 21.8279 13.1101V8.17173C21.8279 7.12692 21.5842 6.32019 21.108 5.77397C20.601 5.19414 19.8307 4.90002 18.8167 4.90002H5.16123C4.14722 4.90002 3.37692 5.19414 2.86991 5.77397C2.39092 6.32019 2.15002 7.12692 2.15002 8.17173V13.1101C2.15002 14.1549 2.39372 14.9616 2.86991 15.5107C3.37692 16.0905 4.14722 16.3846 5.16123 16.3846ZM2.71025 8.17453C2.71025 6.32299 3.48896 5.46025 5.16123 5.46025H18.8167C20.489 5.46025 21.2677 6.32019 21.2677 8.17173V13.1129C21.2677 14.9644 20.489 15.8272 18.8167 15.8272H5.16123C3.48896 15.8272 2.71025 14.9644 2.71025 13.1129V8.17453ZM14.9932 18.6031H8.98476C8.8307 18.6031 8.70465 18.4771 8.70465 18.323C8.70465 18.1689 8.8307 18.0429 8.98476 18.0429H14.9932C15.1472 18.0429 15.2733 18.1689 15.2733 18.323C15.2733 18.4771 15.15 18.6031 14.9932 18.6031ZM15.2425 6.86358C14.9483 6.86358 14.6906 6.9168 14.4722 7.01764C14.1332 7.1745 13.8279 7.48263 13.5646 7.93081C13.4581 8.11008 13.3685 8.29775 13.2929 8.49383L13.2845 8.50223L9.50577 10.2641H9.49456C9.37692 10.2221 8.89232 10.0653 8.37692 10.0653C8.0856 10.0653 7.82509 10.1185 7.60661 10.2193C7.26487 10.379 6.95955 10.6871 6.69904 11.1353C6.5898 11.323 6.49456 11.5162 6.41893 11.7207C6.3405 11.942 6.36291 12.1689 6.48616 12.3426C6.60381 12.5078 6.79428 12.6059 6.99596 12.6031C7.10241 12.6031 7.20885 12.5779 7.30689 12.5302L7.79988 12.3006L8.11361 12.4686L8.04078 12.8188L7.54778 13.0485C7.29008 13.1689 7.13602 13.407 7.14442 13.6647C7.15283 13.9224 7.3293 14.1493 7.5954 14.2473C7.65423 14.2697 8.17804 14.4546 8.73546 14.4546C9.02678 14.4546 9.28728 14.4014 9.50577 14.3006C9.8475 14.1409 10.1528 13.8328 10.4133 13.3846C10.5198 13.2053 10.6094 13.0176 10.685 12.8216L10.6934 12.8132L14.475 11.0513H14.4862C14.6038 11.0933 15.0884 11.2501 15.6038 11.2501C15.8979 11.2501 16.1556 11.1969 16.3741 11.0961C16.7159 10.9364 17.0212 10.6283 17.2817 10.1801C17.3909 9.99243 17.4862 9.79915 17.5618 9.59467C17.6402 9.37338 17.6178 9.14649 17.4946 8.97282C17.3769 8.80756 17.1864 8.70952 16.9848 8.71232C16.8783 8.71232 16.7719 8.73753 16.6738 8.78515L16.178 9.01484L15.8643 8.84677L15.9371 8.49663L16.4301 8.26694C16.6878 8.14649 16.8419 7.9084 16.8307 7.64789C16.8195 7.38739 16.6458 7.1633 16.3797 7.06526L16.3634 7.0599C16.2581 7.0248 15.7662 6.86096 15.2425 6.86358ZM15.2425 7.421C15.7187 7.421 16.1892 7.59467 16.1892 7.59467C16.3013 7.63669 16.3041 7.70952 16.1976 7.75994L15.6458 8.01764C15.5282 8.08207 15.4385 8.19131 15.4049 8.32296L15.2761 8.93361C15.2565 9.05966 15.3153 9.18291 15.4245 9.24733L15.9736 9.54145C16.038 9.57226 16.108 9.58907 16.1808 9.58627C16.2425 9.58627 16.3041 9.57506 16.3601 9.54985L16.9119 9.29215C16.9343 9.28095 16.9595 9.27254 16.9848 9.27254C17.0408 9.27254 17.0632 9.32296 17.0352 9.4042C17.0352 9.4042 16.7046 10.3202 16.1388 10.5863C15.9792 10.6619 15.7915 10.6871 15.6038 10.6871C15.1276 10.6871 14.657 10.5134 14.657 10.5134C14.601 10.4938 14.5422 10.4854 14.4834 10.4854C14.4049 10.4854 14.3293 10.4994 14.2565 10.5274L10.4357 12.3118C10.3153 12.3762 10.2201 12.4798 10.1668 12.6059C10.1668 12.6059 9.8363 13.5218 9.27047 13.7879C9.11081 13.8636 8.92313 13.8888 8.73546 13.8888C8.25927 13.8888 7.78868 13.7151 7.78868 13.7151C7.67664 13.6731 7.67383 13.6003 7.78028 13.5471L8.3321 13.2893C8.44974 13.2249 8.53938 13.1157 8.57299 12.9868L8.70185 12.379C8.72145 12.2529 8.66543 12.1297 8.55619 12.0653L8.00717 11.7711C7.94274 11.7403 7.86991 11.7235 7.79988 11.7263C7.73826 11.7263 7.67664 11.7375 7.62061 11.7627L7.06879 12.0204C7.04638 12.0316 7.02117 12.0401 6.99596 12.0401C6.93994 12.0401 6.91753 11.9896 6.94554 11.9084C6.94554 11.9084 7.27607 10.9924 7.8419 10.7263C8.00156 10.6507 8.18924 10.6255 8.37692 10.6255C8.85311 10.6255 9.32369 10.7992 9.32369 10.7992C9.37972 10.8188 9.43854 10.8272 9.49736 10.8272C9.5758 10.8272 9.65143 10.8132 9.72425 10.7851L13.545 9.00364C13.6654 8.93921 13.7607 8.83557 13.8139 8.70672C13.8139 8.70672 14.1444 7.79075 14.7102 7.52464C14.8671 7.45181 15.0548 7.4238 15.2425 7.421Z" fill="#313235"/>
</svg>
