<svg width="24" height="24" viewBox="0 0 24 24" fill="none" xmlns="http://www.w3.org/2000/svg">
<path fill-rule="evenodd" clip-rule="evenodd" d="M20.542 17.8714C20.5392 17.8714 20.5392 17.8098 20.5392 17.8098C20.5252 17.1039 20.3095 16.5997 19.8922 16.2019C19.7717 16.0899 19.6289 15.9974 19.4804 15.9162C20.514 14.9918 21.0798 13.468 19.6373 11.849C19.035 11.1739 17.4552 10.2664 16.7857 10.1263C16.7633 10.1235 16.6989 10.1039 16.6989 10.1039C16.9958 9.3896 17.1667 8.54927 17.1667 7.59689C17.1667 7.18232 17.1331 6.79577 17.077 6.42602C17.0851 6.42475 17.0932 6.42354 17.1013 6.42233C17.147 6.41554 17.1935 6.40862 17.2339 6.3896C17.2591 6.3756 17.3039 6.35039 17.3263 6.33358C17.3992 6.28876 17.4748 6.23274 17.5224 6.19353L17.6597 6.08148C18.4132 5.44563 18.9146 4.28036 17.8417 3.07588C16.7661 1.8714 15.4916 2.15991 14.7241 2.77336C14.6994 2.79308 14.6813 2.81931 14.6639 2.84441C14.6616 2.84783 14.6592 2.85123 14.6569 2.85459C13.8053 2.40921 12.7689 2.16832 11.542 2.16271V2.15991H11.5V2.16271C10.2731 2.16832 9.23389 2.40641 8.38515 2.85459L8.38515 2.85459C8.36554 2.82658 8.34594 2.79857 8.31793 2.77336C7.55042 2.15991 6.27591 1.8686 5.20028 3.07588C4.13025 4.28036 4.62885 5.44843 5.38515 6.08148L5.52241 6.19353C5.57283 6.23274 5.64846 6.28876 5.72129 6.33358C5.73821 6.34809 5.77599 6.36885 5.80223 6.38327C5.8064 6.38556 5.81027 6.38769 5.81373 6.3896C5.86067 6.41446 5.91578 6.42025 5.96832 6.42578L5.97059 6.42602C5.91457 6.79577 5.88095 7.18232 5.88095 7.59689C5.88095 8.54927 6.04902 9.3896 6.34874 10.1039C6.34874 10.1039 6.28151 10.1235 6.2619 10.1263C5.58964 10.2636 4.01261 11.1739 3.41036 11.849C1.96779 13.468 2.53361 14.9918 3.56723 15.9162C3.41597 15.9974 3.27871 16.0899 3.15546 16.2019C2.73249 16.5997 2.51401 17.1011 2.5 17.8098V17.8714C2.5 17.8714 2.5028 17.9526 2.51401 18.0087C2.52801 18.0871 2.56162 18.2411 2.56723 18.258L3.22829 20.7397C3.22829 20.7444 3.23176 20.7482 3.23533 20.7521C3.23816 20.7553 3.24106 20.7584 3.2423 20.7622C3.2455 20.7707 3.24749 20.7797 3.24949 20.7887C3.25274 20.8034 3.25604 20.8183 3.26471 20.8322C3.35714 21.0059 3.48039 21.1599 3.62045 21.2916C4.01541 21.6585 4.57003 21.8434 5.26471 21.8434C5.95938 21.8434 6.51401 21.6585 6.90896 21.2944C7.23389 20.9974 7.42717 20.5997 7.5028 20.1151V20.1123C8.53361 20.7537 9.84454 21.0731 11.4944 21.0731H11.5476C13.1975 21.0731 14.5112 20.7537 15.5392 20.1123V20.1151C15.612 20.6025 15.8081 21.0002 16.1303 21.2944C16.528 21.6585 17.0798 21.8434 17.7773 21.8434C18.472 21.8434 19.0238 21.6585 19.4216 21.2916C19.5616 21.1627 19.6849 21.0059 19.7773 20.8322C19.786 20.8183 19.7893 20.8034 19.7925 20.7887C19.7945 20.7797 19.7965 20.7707 19.7997 20.7622C19.8011 20.758 19.8039 20.7545 19.8067 20.7509C19.8095 20.7474 19.8123 20.7439 19.8137 20.7397L20.4748 18.258C20.4757 18.2514 20.4807 18.2303 20.4873 18.202C20.5006 18.1456 20.5205 18.0609 20.528 18.0087C20.5392 17.9554 20.542 17.8714 20.542 17.8714ZM11.5224 3.02546C10.0098 3.03106 8.83613 3.40641 8.03501 4.14591C7.20588 4.91621 6.78291 6.07588 6.78291 7.59689C6.78291 9.1179 7.20588 10.2748 8.03501 11.0423C8.7549 11.7061 9.79692 12.0591 11.105 12.1263V8.77056C10.8529 8.70893 10.6345 8.60249 10.4608 8.44002C10.3011 8.29437 10.1751 8.10949 10.1162 7.89381C10.1022 7.83498 10.0938 7.76495 10.091 7.65851C10.0884 7.56018 10.1109 7.50976 10.1324 7.46179L10.1359 7.45403C10.2059 7.30277 10.2983 7.16551 10.4216 7.05347C10.6905 6.80697 11.0574 6.68092 11.5028 6.66411V6.65851C11.5074 6.65851 11.5112 6.65936 11.5146 6.66012C11.5174 6.66075 11.5199 6.66131 11.5224 6.66131C11.5266 6.66131 11.5301 6.66061 11.5336 6.65991C11.5371 6.65921 11.5406 6.65851 11.5448 6.65851V6.66411C11.9874 6.68092 12.3543 6.80417 12.6261 7.05347C12.7493 7.16832 12.8389 7.30277 12.9118 7.45403L12.9152 7.46179C12.9367 7.50976 12.9592 7.56018 12.9566 7.65851C12.9538 7.76495 12.9454 7.83498 12.9314 7.89381C12.8725 8.10949 12.7493 8.29437 12.5896 8.44002C12.416 8.60249 12.1975 8.70893 11.9454 8.77056V12.1263C13.2507 12.0563 14.2955 11.7033 15.0126 11.0423C15.8445 10.2748 16.2675 9.1179 16.2675 7.59689C16.2675 6.07588 15.8445 4.91621 15.0126 4.14591C14.2087 3.40641 13.035 3.02826 11.5224 3.02546ZM7.41036 3.52686C6.82773 4.06748 6.42717 4.76776 6.17787 5.58848C6.16475 5.5793 6.15041 5.56951 6.13685 5.56025L6.13681 5.56022L6.1368 5.56021C6.12142 5.54971 6.10705 5.5399 6.09664 5.53246L5.98179 5.43722C5.62045 5.1347 5.12745 4.49605 5.89216 3.6389C6.58403 2.85739 7.2507 3.09269 7.63725 3.36159C7.60531 3.38739 7.57068 3.4105 7.53618 3.43351C7.49203 3.46296 7.44811 3.49226 7.41036 3.52686ZM8.10504 7.1263C7.98739 7.01706 7.92577 6.85459 7.92577 6.64171C7.92577 6.42882 7.98459 6.26355 8.10504 6.15431C8.21989 6.04787 8.38515 5.99465 8.60084 5.99465C8.81373 5.99465 8.98179 6.04787 9.09664 6.15431C9.21429 6.26355 9.27591 6.42882 9.27591 6.64171C9.27591 6.85459 9.21429 7.01706 9.09664 7.1263C8.98179 7.23274 8.81373 7.28596 8.60084 7.28596C8.38796 7.28596 8.22269 7.22994 8.10504 7.1263ZM14.444 7.28596C14.2311 7.28596 14.063 7.23274 13.9482 7.1263C13.8277 7.01706 13.7689 6.85459 13.7689 6.64171C13.7689 6.42882 13.8277 6.26635 13.9482 6.15711C14.063 6.05067 14.2311 5.99465 14.444 5.99465C14.6569 5.99465 14.8249 6.04787 14.9398 6.15711C15.0602 6.26635 15.119 6.42882 15.119 6.64171C15.119 6.85459 15.0574 7.01706 14.9398 7.1263C14.8221 7.23274 14.6541 7.28596 14.444 7.28596ZM19.6317 17.7313C19.6345 17.7594 19.6401 17.8322 19.6345 17.8882C19.6317 17.9414 19.6092 18.0255 19.5952 18.0535C19.4216 18.6641 18.9566 20.4596 18.9566 20.4596C18.909 20.5381 18.8585 20.6109 18.7913 20.6725C18.57 20.8798 18.2283 20.9834 17.7745 20.9834C17.3207 20.9834 16.9734 20.877 16.7521 20.6725C16.5196 20.4624 16.4048 20.1291 16.402 19.6865L16.5812 17.9946C16.5824 17.9862 16.5852 17.9778 16.5879 17.9694C16.5916 17.9582 16.5952 17.947 16.5952 17.9358C16.5952 17.8907 16.5997 17.8501 16.6043 17.8086C16.606 17.7933 16.6077 17.7779 16.6092 17.7622L16.6317 17.5409C16.6849 17.2355 16.8025 16.9946 16.9874 16.8238C17.2367 16.5913 17.6204 16.4736 18.1218 16.4736C18.6232 16.4736 19.0042 16.5885 19.2535 16.821C19.4832 17.0339 19.598 17.3112 19.6317 17.7313ZM15.7941 17.2047C15.8978 16.8042 16.0826 16.4624 16.3655 16.2019C16.5812 16.0059 16.8417 15.8574 17.1387 15.7566C17.1723 15.4512 17.2003 15.1375 17.2003 14.8042C17.2003 13.258 16.8249 12.0255 16.091 11.1263C16.068 11.1556 16.0451 11.1849 16.0223 11.2143L16.0222 11.2143L16.0221 11.2144L16.0221 11.2145L16.0221 11.2145C15.9008 11.3702 15.7805 11.5247 15.6345 11.6613C14.6681 12.5521 13.2871 13.003 11.5448 13.0115V13.0143C11.5406 13.0143 11.5371 13.0136 11.5336 13.0129C11.5301 13.0122 11.5266 13.0115 11.5224 13.0115C11.5199 13.0115 11.5174 13.012 11.5146 13.0126C11.5112 13.0134 11.5074 13.0143 11.5028 13.0143V13.0115C9.7549 13.003 8.37955 12.5521 7.41036 11.6613C7.26578 11.5262 7.14326 11.3691 7.02074 11.2119C6.99847 11.1833 6.97619 11.1547 6.95378 11.1263C6.21989 12.0255 5.84454 13.258 5.84454 14.8042C5.84454 15.1375 5.86975 15.4512 5.90616 15.7566C6.20588 15.8546 6.46359 16.0059 6.67927 16.2019C6.96218 16.4624 7.14426 16.8042 7.2479 17.2047C7.27031 17.2467 7.28711 17.2916 7.29272 17.3392L7.29832 17.3868C7.30476 17.4158 7.30749 17.4466 7.31025 17.4777L7.31025 17.4777L7.31025 17.4777L7.31025 17.4777L7.31026 17.4777L7.31026 17.4777L7.31026 17.4777L7.31026 17.4777C7.3123 17.5007 7.31435 17.5238 7.31793 17.5465L7.46919 18.9918C8.40196 19.807 9.71849 20.2103 11.4972 20.2103H11.5028V20.2075H11.5448V20.2103H11.5504C13.3291 20.2103 14.6457 19.807 15.5784 18.9918L15.7325 17.5465C15.7361 17.5239 15.7381 17.5007 15.7402 17.4778L15.7402 17.4777C15.7429 17.4466 15.7457 17.4158 15.7521 17.3868L15.7577 17.3392C15.7549 17.2916 15.7745 17.2467 15.7941 17.2047ZM6.64006 19.6865C6.63725 20.1291 6.51961 20.4624 6.28992 20.6725C6.06583 20.877 5.72129 20.9806 5.26751 20.9806C4.81373 20.9806 4.47199 20.877 4.2479 20.6697C4.18347 20.6109 4.13025 20.5381 4.08263 20.4568C4.08263 20.4568 3.61485 18.6613 3.44398 18.0507C3.43557 18.0255 3.41036 17.9414 3.40756 17.8882C3.40196 17.8322 3.40756 17.7566 3.41036 17.7313C3.44398 17.314 3.55882 17.0339 3.78852 16.821C4.03782 16.5913 4.41877 16.4736 4.92017 16.4736C5.42157 16.4736 5.80252 16.5913 6.05462 16.8238C6.2395 16.9946 6.35434 17.2355 6.41036 17.5409L6.43277 17.7622C6.4341 17.7754 6.43558 17.7887 6.43707 17.802C6.44188 17.845 6.44678 17.8888 6.44678 17.9358C6.44678 17.9476 6.4498 17.9594 6.45283 17.9711C6.45485 17.979 6.45686 17.9868 6.45798 17.9946L6.64006 19.6865ZM4.09664 12.4092C2.79972 13.8658 3.77451 14.9554 4.2535 15.3588L4.25354 15.3588C4.31515 15.4092 4.37676 15.4596 4.42997 15.4988C4.47199 15.5353 4.54202 15.5829 4.62045 15.6333C4.65046 15.6308 4.67972 15.6278 4.70875 15.6248L4.70884 15.6248L4.70892 15.6248L4.70901 15.6248L4.70909 15.6248L4.70918 15.6248L4.70921 15.6248C4.77759 15.6178 4.84473 15.6109 4.91737 15.6109C4.93137 15.6109 4.94398 15.6123 4.95658 15.6137C4.96919 15.6151 4.98179 15.6165 4.9958 15.6165C4.99212 15.5728 4.98828 15.5291 4.98444 15.4854C4.96494 15.2633 4.94538 15.0406 4.94538 14.8042C4.94538 13.3672 5.2563 12.1655 5.83894 11.1963C5.2619 11.4876 4.46359 11.9974 4.09664 12.4092ZM15.4104 3.35879C15.7969 3.08988 16.4608 2.85459 17.1555 3.6361C17.9202 4.49605 17.4244 5.1347 17.0658 5.43442L16.951 5.52966C16.9286 5.54367 16.895 5.56607 16.8669 5.58568C16.6176 4.76495 16.2171 4.06467 15.6345 3.52406C15.5964 3.48916 15.5529 3.45965 15.5092 3.42994L15.5092 3.42993C15.4756 3.40718 15.4419 3.3843 15.4104 3.35879ZM18.9454 12.4092C18.5812 11.9974 17.7829 11.4876 17.2059 11.1991C17.7913 12.1683 18.0994 13.37 18.0994 14.807C18.0994 15.0635 18.0764 15.304 18.0533 15.545L18.0462 15.6193C18.0602 15.6193 18.0728 15.6179 18.0854 15.6165L18.0854 15.6165L18.0855 15.6165C18.0981 15.6151 18.1107 15.6137 18.1247 15.6137C18.2007 15.6137 18.2695 15.6208 18.3384 15.628L18.3384 15.628C18.366 15.6308 18.3936 15.6337 18.4216 15.6361C18.4972 15.5857 18.5672 15.5381 18.612 15.5016C18.6653 15.4596 18.7297 15.4092 18.7913 15.3616C19.2703 14.9554 20.2423 13.863 18.9454 12.4092Z" fill="#313235"/>
</svg>
