<svg width="24" height="24" fill="none" xmlns="http://www.w3.org/2000/svg"><path fill-rule="evenodd" clip-rule="evenodd" d="M21.843 10.123c0 .641-.202 1.103-.435 1.42.233.325.434.818.437 1.538 0 1.518-1.182 2.123-2.218 2.179h-3.493l-2.33.07c0 .328 0 .83.002 1.408l.003 2.505.003.135.003.095c0 1.504-.852 2.37-2.334 2.37-.77 0-1.398-.233-1.807-.675-.392-.42-.574-1.017-.523-1.723l.02-.233c.013-.103.022-.207.024-.31.026-1.143.04-2.589-.072-3.757-.14-1.46-1.645-2.308-2.166-2.56a1.24 1.24 0 0 1-.862.35H3.4c-.686 0-1.244-.56-1.244-1.247v-7.81c0-.688.558-1.246 1.244-1.246h2.695c.327 0 .641.13.874.362a.685.685 0 0 1 .249-.053l2.865-.04c.193 0 .441-.07.789-.167l.02-.006.214-.063c.773-.227 1.734-.509 4.014-.509 3.764 0 4.479.395 5.003 1.832.086.513.08.927-.023 1.291.779.432 1.205 1.085 1.205 1.866 0 .55-.123.952-.275 1.24.527.472.813 1.08.813 1.738Zm-1.278 1.697a.411.411 0 0 1 .023-.58c.294-.269.44-.644.437-1.115 0-.647-.42-1.072-.773-1.313l-.01-.008a.405.405 0 0 1-.068-.595c.206-.238.313-.607.313-1.064 0-.7-.58-1.087-1.067-1.291l-.034-.017a.41.41 0 0 1-.168-.555c.154-.285.185-.644.117-1.09-.3-.812-.45-1.218-4.218-1.218-2.162 0-3.025.252-3.787.476l-.224.065c-.398.115-.717.204-1.02.204l-2.753.037v.082a.235.235 0 0 1 .005.04v7.81l-.002.024-.003.024v.123c.672.328 2.42 1.348 2.6 3.208.114 1.23.097 2.736.072 3.91a.307.307 0 0 1-.006.05c-.005.101-.01.182-.022.27l-.017.204c-.036.484.067.857.305 1.112.253.271.673.414 1.213.414 1.037 0 1.519-.495 1.519-1.63l-.006-.123a1121.73 1121.73 0 0 1-.008-4.339.407.407 0 0 1 .394-.409l2.74-.081h3.482c.336-.02 1.426-.171 1.426-1.364 0-.55-.152-.978-.437-1.239l-.023-.022ZM5.492 10.254c0 .454-.316.768-.767.768-.454 0-.768-.317-.768-.768 0-.45.317-.767.768-.767.454 0 .767.314.767.767Zm.603-6.806c.23 0 .414.182.425.409v7.857a.427.427 0 0 1-.425.406H3.4a.43.43 0 0 1-.429-.431v-7.81c0-.238.194-.431.429-.431h2.695Z" fill="#313235"/></svg>