<svg width="24" height="24" fill="none" xmlns="http://www.w3.org/2000/svg"><path d="M21.842 4.055a1.904 1.904 0 0 0-1.905-1.899H17.7c-.504 0-.924.364-.997.869a.909.909 0 0 1-.894.767.906.906 0 0 1-.89-.767 1.003 1.003 0 0 0-.998-.869h-2.235a1.902 1.902 0 0 0-1.88 1.65c-.12.037-.24.073-.35.135l-1.736.972a.933.933 0 0 0-.42 1.162.756.756 0 1 1-1.305.731.947.947 0 0 0-1.213-.25l-1.74.973a1.735 1.735 0 0 0-.664 2.364l6.245 11.064c.226.404.599.695 1.047.821a1.73 1.73 0 0 0 1.322-.16l1.754-.983a.91.91 0 0 0 .372-.434h.821c.482 0 .896-.342.989-.815a.9.9 0 0 1 1.765 0c.092.473.507.815.988.815h2.255a1.9 1.9 0 0 0 1.905-1.896V4.055Zm-.832 0v14.25a1.065 1.065 0 0 1-1.073 1.067h-2.255a.185.185 0 0 1-.176-.148 1.733 1.733 0 0 0-3.395 0 .18.18 0 0 1-.174.148h-2.255a1.072 1.072 0 0 1-1.072-1.07V4.052c0-.588.481-1.07 1.072-1.07h2.238c.09.003.166.07.174.16a1.74 1.74 0 0 0 1.714 1.476 1.738 1.738 0 0 0 1.715-1.476.174.174 0 0 1 .173-.157h2.238c.594 0 1.076.48 1.076 1.07Zm-9.185 16.149-1.24.694a.91.91 0 0 1-.695.079.917.917 0 0 1-.55-.429L3.104 9.484a.897.897 0 0 1-.082-.69.89.89 0 0 1 .429-.548l1.737-.972a.114.114 0 0 1 .148.034 1.601 1.601 0 0 0 2.036.414 1.59 1.59 0 0 0 .703-1.95c-.025-.05-.002-.112.048-.14l1.653-.927v2.776l-4.659 2.61c0 .004-.002.004-.002.004a.412.412 0 0 0-.154.563l4.367 7.745c.072.129.212.21.36.21a.23.23 0 0 0 .083-.02l.036-.011a1.9 1.9 0 0 0 1.876 1.622h.143ZM5.887 10.61l3.89-2.18v9.076l-3.89-6.896Zm6.826 5.165V6.63h6.311v9.145h-6.31Zm7.14-9.557a.414.414 0 0 0-.414-.415v-.002h-7.143a.415.415 0 0 0-.415.414v9.975c0 .23.185.414.415.414h7.143a.415.415 0 0 0 .414-.414V6.218Z" fill="#313235"/></svg>