<svg xmlns="http://www.w3.org/2000/svg" width="24" height="24" fill="none"><path fill="#0B2739" d="M21.837 4.05a1.904 1.904 0 0 0-1.905-1.899h-2.238c-.504 0-.924.364-.997.869a.909.909 0 0 1-.894.767.906.906 0 0 1-.89-.767 1.003 1.003 0 0 0-.998-.869H11.68a1.902 1.902 0 0 0-1.88 1.65c-.12.037-.24.073-.35.135l-1.736.972a.933.933 0 0 0-.418 1.162.756.756 0 1 1-1.305.731.947.947 0 0 0-1.213-.25l-1.74.973a1.735 1.735 0 0 0-.664 2.364l6.244 11.064c.227.404.6.695 1.048.821.443.126.919.067 1.322-.16l1.754-.983a.91.91 0 0 0 .372-.434h.821c.482 0 .896-.342.989-.815a.9.9 0 0 1 1.765 0c.092.473.506.815.988.815h2.255a1.9 1.9 0 0 0 1.905-1.896zm-.832 0V18.3a1.065 1.065 0 0 1-1.073 1.067h-2.255a.185.185 0 0 1-.176-.149 1.733 1.733 0 0 0-3.395 0 .18.18 0 0 1-.174.149h-2.255a1.072 1.072 0 0 1-1.072-1.07V4.047c0-.588.481-1.07 1.072-1.07h2.238c.09.003.166.07.174.16a1.74 1.74 0 0 0 1.714 1.476 1.738 1.738 0 0 0 1.715-1.476.174.174 0 0 1 .173-.157h2.238c.594 0 1.076.48 1.076 1.07M11.82 20.2l-1.24.694a.91.91 0 0 1-.695.079.917.917 0 0 1-.55-.429L3.098 9.48a.897.897 0 0 1-.08-.69.89.89 0 0 1 .428-.548l1.737-.972a.114.114 0 0 1 .148.034 1.602 1.602 0 0 0 2.036.414 1.59 1.59 0 0 0 .703-1.95c-.025-.05-.002-.112.048-.14L9.77 4.7v2.776l-4.658 2.61c0 .004-.003.004-.003.004a.412.412 0 0 0-.154.563l4.367 7.745c.072.129.212.21.36.21.03 0 .057-.01.083-.02l.036-.011c.137.93.935 1.62 1.876 1.622zm-5.938-9.594 3.89-2.18v9.076zm6.826 5.165V6.625h6.311v9.145zm7.14-9.557a.414.414 0 0 0-.414-.415v-.003H12.29a.415.415 0 0 0-.415.415v9.975c0 .23.185.414.415.414h7.143a.415.415 0 0 0 .414-.414z"/></svg>