<svg width="24" height="24" fill="none" xmlns="http://www.w3.org/2000/svg"><path d="M11.992 2.15c6.22 0 9.848 3.14 9.848 9.848 0 6.707-3.628 9.842-9.848 9.842-6.22 0-9.842-3.135-9.842-9.842 0-6.707 3.623-9.848 9.842-9.848Zm0 18.87c5.99 0 9.027-3.035 9.027-9.022 0-5.99-3.037-9.027-9.027-9.027-5.987 0-9.021 3.037-9.021 9.027 0 5.987 3.034 9.021 9.021 9.021Zm3.323-6.013-2.908-2.911-.006-3.93a.41.41 0 0 0-.818 0v4.1c0 .11.045.214.12.292l3.032 3.029c.157.154.41.154.569 0a.408.408 0 0 0 .011-.58Z" fill="#313235"/></svg>