<svg width="24" height="24" viewBox="0 0 24 24" fill="none" xmlns="http://www.w3.org/2000/svg">
<path fill-rule="evenodd" clip-rule="evenodd" d="M11.9922 2.15002C18.2119 2.15002 21.84 5.29067 21.84 11.9978C21.84 18.705 18.2119 21.84 11.9922 21.84C5.77256 21.84 2.15002 18.705 2.15002 11.9978C2.15002 5.29067 5.77256 2.15002 11.9922 2.15002ZM11.9922 21.0191C17.9822 21.0191 21.0191 17.985 21.0191 11.9978C21.0191 6.0079 17.9822 2.97091 11.9922 2.97091C6.0051 2.97091 2.97091 6.0079 2.97091 11.9978C2.97091 17.985 6.0051 21.0191 11.9922 21.0191ZM15.315 15.0068L12.4069 12.0959L12.4013 8.16517C12.4013 7.94104 12.2164 7.75613 11.9922 7.75613C11.7681 7.75613 11.5832 7.93823 11.5832 8.16517V12.2668C11.5832 12.376 11.628 12.4797 11.7037 12.5582L14.735 15.5867C14.8919 15.7408 15.1441 15.7408 15.3038 15.5867C15.4691 15.4298 15.4719 15.1693 15.315 15.0068Z" fill="#313235"/>
</svg>
