<svg width="24" height="24" viewBox="0 0 24 24" fill="none" xmlns="http://www.w3.org/2000/svg">
<path fill-rule="evenodd" clip-rule="evenodd" d="M16.9994 2.16565C18.2347 2.22728 19.3831 2.65865 20.2263 3.38414C21.6913 4.63064 22.1842 6.64464 21.6156 9.05361C21.2011 10.7847 20.4616 12.5802 19.4167 14.3953L19.3803 14.5494C19.3597 14.632 19.3402 14.7123 19.3215 14.789C19.2896 14.9206 19.2602 15.0417 19.2319 15.146C19.0246 15.9584 18.7865 16.7147 18.5064 17.4598C18.0638 18.6586 17.7081 19.4346 17.1002 20.5382L17.0386 20.639C17.0297 20.6538 17.0203 20.6694 17.0104 20.6859C16.9111 20.8511 16.7636 21.0966 16.6184 21.2749C16.4335 21.5074 16.2123 21.6783 15.9686 21.7763C15.8817 21.8071 15.7837 21.8379 15.666 21.8379H15.5512C15.4251 21.8379 15.3271 21.8071 15.2627 21.7847C14.9966 21.6783 14.7753 21.5074 14.5876 21.2693C14.3971 21.0312 14.173 20.6502 14.1114 20.5354L14.0582 20.4206C13.9854 20.2609 13.8845 19.9976 13.7221 19.5718L13.7087 19.5367C13.3822 18.6795 12.4549 16.2445 11.977 16.076C11.5456 16.2469 10.596 18.7483 10.2851 19.5718C10.2738 19.6013 10.2628 19.6299 10.2521 19.6579C10.1062 20.039 10.0138 20.2802 9.94335 20.429V20.4458L9.89293 20.5382C9.82851 20.653 9.60722 21.0368 9.41114 21.2777C9.22627 21.5102 9.00498 21.6811 8.76128 21.7791C8.67444 21.8099 8.57641 21.8407 8.45876 21.8407H8.34391C8.21786 21.8407 8.11982 21.8099 8.0554 21.7875C7.78929 21.6811 7.568 21.5102 7.38033 21.2721C7.22765 21.0833 7.06673 20.8121 6.96843 20.6463L6.96576 20.6418L6.91534 20.5606C6.29629 19.4402 5.94055 18.6615 5.49797 17.4626C5.21786 16.7175 4.97977 15.9584 4.77529 15.146C4.73583 15.003 4.69202 14.8209 4.64388 14.6207C4.63734 14.5935 4.63072 14.566 4.62402 14.5382L4.59041 14.4009C3.54839 12.5858 2.8089 10.7903 2.39153 9.05921C1.8145 6.64745 2.3075 4.63064 3.77529 3.38414C4.61562 2.66145 5.76128 2.22728 6.99937 2.16565C8.29629 2.10123 9.61562 2.41775 10.8425 3.09843C11.2123 3.30571 11.5876 3.51859 11.9966 3.75949C12.4195 3.51019 12.7865 3.30291 13.1506 3.09843C14.3803 2.41775 15.7053 2.09562 16.9994 2.16565ZM18.6632 14.0396C19.6828 12.2749 20.4027 10.5354 20.8033 8.86593C21.3019 6.77069 20.9069 5.0452 19.6828 4.00599C18.9742 3.39815 18.005 3.0368 16.9518 2.98358C15.8201 2.91915 14.6436 3.20767 13.5512 3.81271L13.4947 3.84457C13.1203 4.05583 12.7345 4.27351 12.3131 4.5242L12.3091 4.52654C12.2472 4.56319 12.1474 4.62224 11.9966 4.62224C11.8369 4.62224 11.7305 4.55781 11.6716 4.5214C11.2319 4.26369 10.8285 4.034 10.4335 3.81271C9.34671 3.21047 8.18145 2.92196 7.03579 2.98358C5.97977 3.0368 5.01338 3.40095 4.3075 4.00599C3.08621 5.0424 2.68845 6.76789 3.18985 8.86313C3.59041 10.5354 4.3103 12.2749 5.32991 14.0368L5.37472 14.146L5.42234 14.3421C5.43743 14.4032 5.45191 14.4625 5.46589 14.5197C5.50381 14.675 5.53806 14.8152 5.5708 14.936C5.77248 15.7259 5.99937 16.4542 6.27108 17.1741C6.69966 18.3337 7.04139 19.0816 7.62683 20.146L7.67444 20.2245C7.75568 20.3645 7.89573 20.6054 8.02458 20.7623C8.12262 20.8883 8.22907 20.9752 8.33551 21.0172L8.44755 21.02C8.5568 20.9724 8.66324 20.8855 8.75848 20.7651C8.88173 20.6138 9.03299 20.3673 9.11702 20.2217V20.2105L9.17024 20.118C9.22346 20.0228 9.36632 19.6474 9.50358 19.2833C10.5148 16.6138 11.1814 15.2581 11.9966 15.2581C12.8145 15.2581 13.4784 16.6138 14.4896 19.2833C14.6268 19.6474 14.7697 20.0228 14.8229 20.118L14.8761 20.2217C14.9602 20.3673 15.1114 20.611 15.2319 20.7595C15.3299 20.8855 15.4363 20.9724 15.5428 21.0144L15.6548 21.0172C15.7641 20.9696 15.8705 20.8827 15.9658 20.7623C16.0752 20.63 16.1866 20.4439 16.2695 20.3052C16.2885 20.2735 16.3059 20.2444 16.3215 20.2189L16.3775 20.1236C16.9518 19.0788 17.2935 18.3309 17.7221 17.1741C17.9938 16.457 18.2235 15.7259 18.4223 14.9416C18.4611 14.7986 18.502 14.6306 18.5467 14.4464C18.5537 14.4176 18.5608 14.3885 18.568 14.3589L18.6632 14.0396Z" fill="#313235"/>
</svg>
