<svg width="24" height="24" viewBox="0 0 24 24" fill="none" xmlns="http://www.w3.org/2000/svg">
<path fill-rule="evenodd" clip-rule="evenodd" d="M2.17 14.444C2.17 14.4426 2.1707 14.4405 2.1714 14.4384C2.1721 14.4363 2.1728 14.4342 2.1728 14.4328V11.472C2.1728 11.4706 2.1721 11.4692 2.1714 11.4678L2.1714 11.4678C2.1707 11.4664 2.17 11.465 2.17 11.4636V7.01826V5.06308C2.17 4.93143 2.21201 4.80538 2.29045 4.71294C2.36608 4.6205 2.46972 4.57008 2.57896 4.57008H13.1084L13.1149 4.57004C13.3114 4.56842 16.5342 4.54179 20.3017 9.07989C21.4137 10.4188 21.9179 11.7914 21.8031 13.1611C21.6378 15.1163 20.2512 16.4889 19.4417 17.1303C19.1308 17.3768 18.7722 17.5085 18.3997 17.5085H18.3857C17.3241 17.4973 13.6602 17.4776 2.58176 17.4776C2.35487 17.4776 2.1728 17.2564 2.1728 16.9846V14.4524C2.1728 14.4524 2.17 14.4468 2.17 14.444ZM2.98793 5.55608H13.1224C13.1252 5.55888 13.1392 5.55888 13.156 5.55608V11.5449C13.156 11.8194 13.3381 12.0379 13.565 12.0379H20.9151C20.9907 12.3824 21.0215 12.7241 20.9907 13.0603C20.9627 13.3768 20.8843 13.6709 20.7806 13.9538C20.7778 13.9538 20.775 13.9531 20.7722 13.9524C20.7694 13.9517 20.7666 13.951 20.7638 13.951H2.99073V11.9566H11.9179C12.1448 11.9566 12.3269 11.7382 12.3269 11.4636V7.01826C12.3269 6.74655 12.1448 6.52527 11.9179 6.52527H2.98793V5.55608ZM20.5636 11.0491L20.565 11.0519V11.0491H20.5636ZM20.5636 11.0491C20.3564 10.6298 20.0768 10.205 19.7218 9.77737C17.282 6.83899 15.1168 5.94824 13.9739 5.67653V11.0491H20.5636ZM18.9879 16.3068C19.296 16.0631 19.8283 15.5813 20.2708 14.9342H2.99073V16.4889C13.7554 16.4889 17.3409 16.5113 18.3913 16.5197C18.5958 16.5309 18.8087 16.4552 18.9879 16.3068ZM5.37448 10.9706H2.99073V7.51126H5.37448V10.9706ZM6.19241 10.9706H8.47252V7.51126H6.19241V10.9706ZM11.5089 10.9706H9.29045V7.51126H11.5089V10.9706ZM21.8563 18.9286C21.8563 18.6569 21.6742 18.4356 21.4473 18.4356H2.57896C2.35207 18.4356 2.17 18.6569 2.17 18.9286C2.17 19.2003 2.35207 19.4216 2.57896 19.4216H21.4473C21.6742 19.4216 21.8563 19.2003 21.8563 18.9286Z" fill="#313235"/>
</svg>
