<svg width="24" height="24" viewBox="0 0 24 24" fill="none" xmlns="http://www.w3.org/2000/svg">
<path fill-rule="evenodd" clip-rule="evenodd" d="M15.0374 8.10533C15.228 8.11349 19.2091 8.34216 21.0469 12.0444C23.0865 16.1496 20.6827 17.7177 19.5256 18.469L19.45 18.518C19.1334 18.7249 18.7832 18.8311 18.4078 18.8311H18.391L17.5561 18.8256C17.4973 19.7594 16.8809 20.3365 15.9087 20.3365C14.9338 20.3365 14.3146 19.7539 14.2614 18.8147L11.2412 18.8093C11.1908 19.7512 10.5717 20.3365 9.5939 20.3365C8.61333 20.3365 7.99417 19.7512 7.94374 18.8066H7.08365C7.03322 19.7512 6.41406 20.3365 5.43349 20.3365C4.45293 20.3365 3.83377 19.7485 3.78334 18.8038H2.56183C2.3377 18.8038 2.1528 18.6214 2.1528 18.3955V15.6732C2.1528 15.6719 2.1521 15.6705 2.15139 15.6691C2.15069 15.6678 2.14999 15.6664 2.14999 15.6651C2.14999 15.6637 2.15069 15.6623 2.15139 15.661C2.1521 15.6596 2.1528 15.6583 2.1528 15.6569V13.8248C2.14999 13.8248 2.14999 13.8221 2.14999 13.8194V8.51367C2.14999 8.40478 2.19202 8.30133 2.27046 8.22511C2.34611 8.14888 2.44977 8.10533 2.55903 8.10533H8.0474L9.46782 6.68975H9.24089C9.01676 6.68975 8.83186 6.50736 8.83186 6.28141V4.41666H2.55903C2.3349 4.41666 2.14999 4.23426 2.14999 4.00832C2.14999 3.78237 2.3321 3.59998 2.55903 3.59998H21.2851C21.512 3.59998 21.6941 3.78237 21.6941 4.00832C21.6941 4.23426 21.512 4.41666 21.2851 4.41666H15.0122V6.28141C15.0122 6.50736 14.8301 6.68975 14.6032 6.68975H13.0903C13.0875 6.69247 13.0861 6.69587 13.0847 6.69928C13.0833 6.70268 13.0819 6.70608 13.0791 6.7088L11.6755 8.10533H15.0374ZM19.0045 17.8374L19.0802 17.7884C19.6405 17.4236 20.3913 16.9282 20.7752 16.0761H2.97647V17.9899H3.8982C4.12794 17.3855 4.67425 17.0316 5.4391 17.0316C6.20394 17.0316 6.75305 17.3883 6.97999 17.9926H8.05581C8.28274 17.3855 8.82905 17.0316 9.5967 17.0316C10.3643 17.0316 10.9135 17.3883 11.1404 17.9953L14.3707 18.0008C14.5948 17.391 15.1467 17.0316 15.9144 17.0316C16.6848 17.0316 17.2367 17.3937 17.4608 18.0089L18.4022 18.0144C18.5983 18.0171 18.8196 17.9572 19.0045 17.8374ZM15.9115 19.5225C15.3456 19.5225 15.0739 19.2476 15.0739 18.6868C15.0739 18.1233 15.3484 17.8483 15.9115 17.8483C16.4747 17.8483 16.7492 18.1233 16.7492 18.6868C16.7492 19.2503 16.4747 19.5225 15.9115 19.5225ZM8.75341 18.6868C8.75341 19.2476 9.02797 19.5225 9.5939 19.5225C10.157 19.5225 10.4344 19.2503 10.4316 18.6868C10.4316 18.1233 10.157 17.8483 9.5939 17.8483C9.02797 17.8483 8.75341 18.1233 8.75341 18.6868ZM5.43349 19.5225C4.87037 19.5225 4.59581 19.2476 4.59581 18.6868C4.59581 18.1233 4.87037 17.8483 5.43349 17.8483C5.99942 17.8483 6.27398 18.1233 6.27398 18.6868C6.27398 19.2503 5.99942 19.5225 5.43349 19.5225ZM5.76969 13.4137H2.97087V10.5472H5.76969V13.4137ZM6.59056 13.4137H8.92431V10.5472H6.59056V13.4137ZM12.3255 13.4137H9.74518V10.5472H12.3255V13.4137ZM13.9784 8.92201V13.8874C13.9784 14.1134 14.1633 14.2958 14.3875 14.2958H20.9545C21.0133 14.6742 21.0189 15.0144 20.9797 15.3166C20.918 15.2812 20.8536 15.2567 20.778 15.2567H2.97087V14.2277H12.7345C12.9614 14.2277 13.1435 14.0453 13.1435 13.8194V10.1361C13.1435 9.91019 12.9586 9.7278 12.7345 9.7278H2.97087V8.92473L13.9784 8.92201ZM11.9389 6.68975H10.6277L9.20727 8.10533H10.5184L11.9389 6.68975ZM9.65273 5.87307H14.197V4.41666H9.65273V5.87307ZM20.7555 13.4791C20.6463 13.147 20.5034 12.7931 20.3129 12.4065C18.7042 9.16446 15.1297 8.92919 15.0228 8.92215C15.0217 8.92208 15.021 8.92204 15.0206 8.92201H14.7965V13.4791H20.7555Z" fill="#313235"/>
</svg>
