<svg width="24" height="24" viewBox="0 0 24 24" fill="none" xmlns="http://www.w3.org/2000/svg">
<path fill-rule="evenodd" clip-rule="evenodd" d="M21.7929 6.78348C21.8069 6.55939 21.636 6.36331 21.4092 6.3493H16.58V4.3353L16.5803 4.32558C16.5836 4.21704 16.6108 3.3279 16.0394 2.71625C15.6949 2.3465 15.2187 2.15883 14.6136 2.15883H9.35873L9.34895 2.15843C9.25423 2.15385 8.55385 2.12003 8.00019 2.60981C7.58282 2.98516 7.37834 3.55098 7.37834 4.29608V6.3493H2.54081C2.33352 6.36331 2.17106 6.52577 2.15705 6.73306C2.14305 6.95715 2.31392 7.15322 2.54081 7.16723H4.23548V18.7022L4.23514 18.7148C4.23036 18.8588 4.18997 20.0764 5.0142 20.9543C5.56322 21.5454 6.33913 21.8395 7.33913 21.8395H16.6444C16.9218 21.8395 18.045 21.7919 18.8545 21.0048C19.4288 20.4585 19.7229 19.6882 19.7229 18.7134V7.16723H21.4092C21.6164 7.15322 21.7789 6.99076 21.7929 6.78348ZM8.19907 4.29608V6.3493H15.7621V4.30168L15.7623 4.29327C15.7644 4.21079 15.7793 3.62877 15.4428 3.27087C15.2551 3.06639 14.9834 2.97675 14.6164 2.97675H9.31952L9.30685 2.97643C9.22345 2.97373 8.83235 2.96109 8.54921 3.22325C8.31111 3.43614 8.19627 3.79468 8.19907 4.29608ZM18.905 18.7134V7.16723H5.05341V18.7303L5.05317 18.7403C5.04991 18.8535 5.02323 19.7797 5.61644 20.3997C6.00299 20.8087 6.58282 21.0216 7.33632 21.0216H16.594L16.5989 21.0216C16.682 21.0229 17.6513 21.0376 18.2971 20.4081C18.7005 20.0244 18.905 19.4501 18.905 18.7134ZM9.87974 17.6546C9.65285 17.6546 9.47078 17.4726 9.47078 17.2457V10.9543C9.48478 10.7275 9.68086 10.5566 9.90495 10.5706C10.1122 10.5846 10.2747 10.7471 10.2887 10.9543V17.2457C10.2887 17.4726 10.1066 17.6546 9.87974 17.6546ZM13.6641 17.2457C13.6641 17.4726 13.8461 17.6546 14.073 17.6546C14.2999 17.6546 14.482 17.4726 14.482 17.2457V10.9543C14.468 10.7471 14.3055 10.5846 14.0982 10.5706C13.8741 10.5566 13.6781 10.7275 13.6641 10.9543V17.2457Z" fill="#313235"/>
</svg>
