<svg xmlns="http://www.w3.org/2000/svg" width="24" height="24" fill="none"><path fill="#0B2739" d="M21.813 6.783a.41.41 0 0 0-.384-.434H16.6V4.325c.004-.108.03-.997-.54-1.609-.345-.37-.821-.557-1.426-.557H9.369c-.095-.005-.795-.039-1.349.45-.417.376-.622.942-.622 1.687V6.35H2.561a.41.41 0 0 0 0 .818h1.694v11.548c-.005.144-.045 1.361.78 2.24.548.59 1.324.885 2.324.885h9.305c.278 0 1.401-.048 2.21-.835.575-.546.869-1.317.869-2.292V7.167h1.686a.41.41 0 0 0 .384-.384ZM8.219 4.296c-.003-.501.112-.86.35-1.073.283-.262.674-.25.758-.247h5.309c.367 0 .64.09.827.295.336.358.321.94.32 1.022V6.35H8.218V4.296Zm10.706 14.417c0 .737-.204 1.311-.608 1.695-.646.63-1.615.615-1.698.614H7.356c-.753 0-1.333-.213-1.72-.622-.593-.62-.566-1.546-.563-1.66V7.167h13.852v11.546ZM9.9 17.655a.408.408 0 0 1-.41-.41v-6.29a.41.41 0 0 1 .819 0v6.29a.408.408 0 0 1-.41.41Zm3.784-.41c0 .228.182.41.409.41a.408.408 0 0 0 .409-.41v-6.29a.41.41 0 0 0-.818 0v6.29Z"/></svg>