<svg width="24" height="24" viewBox="0 0 24 24" fill="none" xmlns="http://www.w3.org/2000/svg">
<path fill-rule="evenodd" clip-rule="evenodd" d="M15.6583 4.64645C17.2997 4.79771 18.944 5.76129 18.944 8.07502C18.944 9.06101 18.6583 9.85653 18.0896 10.4448C18.6247 10.9406 18.8964 11.638 18.8964 12.5232C18.8964 14.1983 17.9132 14.8873 17.1569 15.1703C16.9804 18.8705 13.3417 19.0582 12.5966 19.0582H12.5854V21.4364C12.5854 21.6605 12.3922 21.8425 12.1541 21.8425C11.916 21.8425 11.7227 21.6633 11.7227 21.4364V18.991C10.6303 18.8313 8.92997 18.3019 8.28291 16.5708C6.64146 16.428 5 15.47 5 13.145C5 12.1562 5.28571 11.3579 5.85714 10.7669C5.43137 10.3691 5.05042 9.72208 5.05042 8.69126C5.05042 7.39435 5.66387 6.46717 6.78711 6.04421C6.96359 2.34392 10.6022 2.15625 11.3473 2.15625C11.9272 2.15625 14.7759 2.2795 15.6583 4.64645ZM17.0672 10.6969C16.944 10.5204 16.986 10.2739 17.1625 10.1478C17.7787 9.69687 18.0784 9.019 18.0784 8.06942C18.0784 5.85373 16.3501 5.46998 15.3193 5.43636C15.1289 5.43076 14.9664 5.30751 14.916 5.13664C14.3417 3.12264 12.0364 2.96577 11.3445 2.96577C10.4734 2.96577 7.63585 3.20387 7.63585 6.25989C7.63585 6.44196 7.51541 6.67166 7.33053 6.72208C6.37255 6.98258 5.91036 7.62404 5.91036 8.68286C5.91036 9.49799 6.18487 10.0582 6.7451 10.3943C6.85994 10.4616 6.93557 10.5848 6.94398 10.7193C6.94958 10.8509 6.89076 10.9798 6.77871 11.061C6.17087 11.5064 5.86275 12.2039 5.86275 13.1394C5.86275 15.4532 7.78711 15.7473 8.61625 15.7669C8.80392 15.7669 8.96639 15.8873 9.02241 16.0666C9.43698 17.5204 10.7815 17.9938 11.7199 18.1534V16.5848C11.7152 16.5813 11.7101 16.5788 11.7048 16.5762C11.6975 16.5726 11.69 16.569 11.6835 16.5624L9.08683 14.1002C9.08134 14.0966 9.07705 14.0917 9.07239 14.0864C9.06991 14.0836 9.06734 14.0807 9.06443 14.0778C8.91877 13.9182 8.92997 13.6717 9.08964 13.526C9.26331 13.3691 9.52941 13.3691 9.70028 13.5288L11.7227 15.4448V9.73048C11.7227 9.50639 11.916 9.32432 12.1541 9.32432C12.3922 9.32432 12.5854 9.50639 12.5854 9.73048V12.2039L14.2577 10.0722C14.4062 9.89294 14.6695 9.85653 14.8627 9.98818C14.8669 9.99098 14.8711 9.99448 14.8753 9.99799C14.8795 10.0015 14.8838 10.005 14.888 10.0078C15.0588 10.1422 15.0868 10.3887 14.9524 10.5596L12.6471 13.4952C12.6375 13.508 12.6242 13.5171 12.6109 13.5263C12.601 13.5331 12.591 13.54 12.5826 13.5484V18.2431H12.5938C13.465 18.2431 16.3025 18.005 16.3025 14.949C16.3025 14.7669 16.423 14.5344 16.6106 14.484C17.5518 14.2347 18.028 13.5736 18.028 12.5232C18.028 11.7109 17.7563 11.1506 17.1933 10.8117C17.1429 10.7837 17.1008 10.7445 17.0672 10.6969Z" fill="#313235"/>
</svg>
