<svg xmlns="http://www.w3.org/2000/svg" width="24" height="24" fill="none"><path fill="#0B2739" d="M21.154 11.52c.24.302.675.874.675 1.518l.008 2.89c0 .471-.204.947-.565 1.306a1.887 1.887 0 0 1-1.314.563h-1.076c-.123 1.51-1.115 2.409-2.725 2.409-1.608 0-2.594-.9-2.726-2.41h-4.4c-.123 1.51-1.115 2.41-2.726 2.41-1.608 0-2.6-.9-2.725-2.41h-.174a1.253 1.253 0 0 1-1.255-1.248V5.052c0-.686.558-1.25 1.258-1.25l10.832.006c.697 0 1.258.563 1.258 1.25V6.83h1.05c.656 0 1.328.333 1.706.857.398.532 2.619 3.47 2.899 3.832M9.022 16.982h4.418c.115-.891.549-1.544 1.24-1.91V5.06a.433.433 0 0 0-.436-.434L3.406 4.618a.436.436 0 0 0-.434.434V16.55a.438.438 0 0 0 .437.432h.188c.179-1.412 1.16-2.247 2.708-2.247 1.552 0 2.538.835 2.717 2.247m11.667-.328c.204-.204.328-.473.325-.726l-.008-2.89c0-.364-.309-.77-.497-1.017l-.005-.006a545.484 545.484 0 0 1-2.913-3.851c-.221-.305-.647-.516-1.042-.516h-1.048v7.146c.205-.042.426-.059.656-.059 1.552 0 2.538.835 2.717 2.247h1.084c.255 0 .518-.115.731-.328m-4.532 2.737c1.263 0 1.93-.661 1.93-1.919s-.664-1.919-1.93-1.919-1.93.661-1.93 1.919.666 1.919 1.93 1.919m-9.852 0c1.264 0 1.93-.661 1.93-1.919s-.664-1.919-1.93-1.919-1.93.661-1.93 1.919.667 1.919 1.93 1.919"/></svg>