<svg width="24" height="24" viewBox="0 0 24 24" fill="none" xmlns="http://www.w3.org/2000/svg">
<path fill-rule="evenodd" clip-rule="evenodd" d="M15.5401 2.21367L21.6437 5.91115C21.8174 6.01479 21.8874 6.22768 21.8118 6.42096L20.0667 10.8187C20.0247 10.9252 19.9407 11.0092 19.837 11.0484C19.7306 11.0904 19.6157 11.0848 19.5149 11.0372L17.9323 10.2697L17.9659 21.4322C17.9659 21.5414 17.9238 21.645 17.8482 21.7235C17.7726 21.8019 17.6689 21.8439 17.5625 21.8439H6.69416C6.58771 21.8439 6.48407 21.8019 6.40844 21.7235C6.33281 21.6478 6.29079 21.5414 6.29079 21.4322L6.32441 10.2641L4.71096 11.0372C4.61292 11.0848 4.49808 11.0904 4.39724 11.0512C4.2936 11.012 4.21236 10.9364 4.16754 10.8355L2.19275 6.43496C2.10592 6.24168 2.17875 6.01479 2.36082 5.90835L8.72217 2.21087C8.84822 2.13804 9.00228 2.13804 9.12833 2.21087C9.25438 2.2837 9.33001 2.41815 9.33001 2.56661C9.33001 4.47698 10.246 5.40695 12.1311 5.40695C14.0191 5.40695 14.9351 4.47978 14.9351 2.56942C14.9351 2.51339 14.9435 2.46017 14.9659 2.40975C14.9659 2.40975 14.9687 2.40695 14.9687 2.40415C14.9703 2.39925 14.9717 2.39458 14.9731 2.39002C14.9764 2.37893 14.9795 2.36843 14.9855 2.35653C14.9948 2.33786 15.0091 2.32416 15.0234 2.31047C15.0306 2.30362 15.0378 2.29677 15.0443 2.2893C15.0462 2.28744 15.048 2.28526 15.0499 2.28308C15.0536 2.27872 15.0574 2.27436 15.0611 2.2725C15.0919 2.24168 15.1255 2.21928 15.1619 2.20247L15.162 2.20246C15.1732 2.19686 15.1844 2.19126 15.1984 2.18566C15.232 2.17446 15.2656 2.16886 15.2992 2.16605C15.3042 2.16504 15.3089 2.16367 15.3135 2.16233C15.3216 2.15994 15.3295 2.15765 15.3384 2.15765C15.3426 2.15765 15.3461 2.15905 15.3496 2.16045C15.3531 2.16185 15.3566 2.16325 15.3608 2.16325C15.386 2.16605 15.4084 2.17166 15.4308 2.17726L15.4309 2.17726C15.4673 2.18566 15.4981 2.19407 15.5289 2.21087C15.5317 2.21087 15.5373 2.21087 15.5401 2.21367ZM17.6998 9.24168L19.4757 10.1044L20.9294 6.43776L15.6914 3.26689C15.4561 5.18006 14.2152 6.23048 12.1283 6.23048C10.0359 6.23048 8.78939 5.18006 8.5569 3.25289L3.08071 6.43496L4.73337 10.1156L6.5541 9.24168C6.68295 9.18286 6.82861 9.19126 6.94626 9.26689C7.0639 9.34252 7.13393 9.47418 7.13393 9.61423L7.10032 21.0204H17.1535L17.1199 9.61423C17.1199 9.47138 17.19 9.33972 17.3076 9.26409C17.428 9.19126 17.5737 9.18286 17.6998 9.24168Z" fill="#313235"/>
</svg>
