<svg width="24" height="24" viewBox="0 0 24 24" fill="none" xmlns="http://www.w3.org/2000/svg">
<path fill-rule="evenodd" clip-rule="evenodd" d="M5.31477 17.2967C4.27196 17.2967 3.47303 17.0224 2.93201 16.4818C2.41341 15.9603 2.1499 15.2024 2.1499 14.2326V8.14518C2.1499 7.17543 2.41341 6.42298 2.93201 5.90958C3.46743 5.37717 4.26916 5.10825 5.31196 5.10825L18.6778 5.1001C19.7206 5.1001 20.5224 5.36902 21.0578 5.90143C21.5764 6.41755 21.8399 7.16999 21.8399 8.13703V14.2245C21.8399 15.1942 21.5764 15.9521 21.0578 16.4737C20.5196 17.0142 19.7178 17.2886 18.675 17.2886L5.31477 17.2967ZM18.6806 5.64338L5.31477 5.65153C3.56274 5.65153 2.71055 6.46645 2.71055 8.14518V14.2326C2.71055 15.0584 2.92079 15.6859 3.33568 16.1042C3.76457 16.5361 4.42894 16.7534 5.31477 16.7534L18.6806 16.7453C19.5637 16.7453 20.2308 16.528 20.6597 16.0961C21.0746 15.6805 21.2849 15.0503 21.2849 14.2245V8.13703C21.2821 6.4583 20.4327 5.64338 18.6806 5.64338ZM9.25893 18.8831H14.7281C14.8822 18.8831 15.0084 18.7609 15.0084 18.6115C15.0084 18.4621 14.8822 18.3398 14.7281 18.3398H9.25893C9.10476 18.3398 8.97861 18.4621 8.97861 18.6115C8.97861 18.7609 9.10476 18.8831 9.25893 18.8831Z" fill="#313235"/>
</svg>
