<svg xmlns="http://www.w3.org/2000/svg" width="24" height="24" fill="none"><path fill="#0B2739" d="M11.999 12.007c-3.162 0-4.834-1.642-4.834-4.747 0-1.577.43-2.783 1.278-3.589.818-.776 2.013-1.171 3.556-1.171 1.542 0 2.74.395 3.563 1.171.854.806 1.284 2.015 1.284 3.59 0 3.104-1.675 4.746-4.847 4.746ZM3.675 21.5h16.65a.273.273 0 0 0 .275-.268v-2.11c0-1.44-.455-2.669-1.32-3.55-.941-.96-2.349-1.47-4.067-1.47H8.787c-1.718 0-3.126.51-4.068 1.467-.862.882-1.319 2.11-1.319 3.55v2.11c0 .15.124.271.275.271Zm16.374-.54H3.951v-1.84c0-1.301.402-2.396 1.165-3.175.848-.863 2.082-1.301 3.671-1.301h6.426c1.589 0 2.823.438 3.671 1.3.763.78 1.165 1.878 1.165 3.176v1.84ZM8.826 4.06c-.736.701-1.11 1.778-1.11 3.2 0 1.423.374 2.497 1.11 3.192.71.673 1.779 1.011 3.173 1.011 1.393 0 2.467-.34 3.18-1.014.742-.698 1.116-1.772 1.116-3.192 0-1.42-.374-2.499-1.115-3.2-.716-.673-1.785-1.016-3.181-1.016-1.394 0-2.463.343-3.173 1.02Z"/></svg>