<svg xmlns="http://www.w3.org/2000/svg" width="24" height="24" fill="none"><path fill="#313235" d="M16.898 6.68a.322.322 0 0 1-.322-.322v-.521c0-.347.3-.583.519-.754l.045-.035c.028-.023.055-.044.075-.063l.023-.02c.198-.176.294-.268.294-.49 0-.364-.337-.618-.636-.618-.364 0-.636.266-.636.619a.32.32 0 0 1-.336.308.319.319 0 0 1-.308-.308c0-.71.563-1.264 1.28-1.264.694 0 1.28.58 1.28 1.264 0 .523-.297.784-.515.974l-.023.02a3.06 3.06 0 0 1-.148.123c-.082.062-.244.194-.272.255v.51a.315.315 0 0 1-.32.322ZM17.24 7.277a.322.322 0 0 0-.095-.23.315.315 0 0 0-.238-.095h-.009a.328.328 0 0 0-.324.327c0 .087.036.169.098.227a.319.319 0 0 0 .235.096.317.317 0 0 0 .238-.098.31.31 0 0 0 .095-.227Z"/><path fill="#313235" d="M14.568 10.638c.03.006.062.008.093.008.306 0 .497-.292.576-.413v-.001c.037-.059.676-1.017 1.006-1.51h4.219a1.4 1.4 0 0 0 1.372-1.372V3.526a1.368 1.368 0 0 0-.409-.96 1.386 1.386 0 0 0-.963-.41h-7.017c-.762 0-1.457.656-1.457 1.373v3.823a1.4 1.4 0 0 0 1.373 1.373h.812v1.358c0 .12 0 .485.395.555Zm-1.123-7.922h7.017c.425 0 .812.387.812.813v3.826a.844.844 0 0 1-.812.812h-4.37a.273.273 0 0 0-.233.124 416.55 416.55 0 0 0-1.095 1.641l-.014.02a.36.36 0 0 0-.017.025V8.445a.281.281 0 0 0-.28-.28h-1.092a.844.844 0 0 1-.813-.813V3.53c0-.41.443-.813.897-.813ZM8.621 15.65c-1.134 0-2.014-.323-2.613-.959-.569-.6-.855-1.442-.855-2.51 0-1.067.289-1.91.855-2.512.6-.636 1.479-.958 2.613-.958 1.135 0 2.014.322 2.614.958.566.6.854 1.445.854 2.512 0 1.068-.289 1.91-.854 2.513-.6.633-1.48.955-2.614.955Zm0-6.379c-1.328 0-2.907.504-2.907 2.91 0 1.328.504 2.908 2.907 2.908 2.404 0 2.908-1.583 2.908-2.908 0-1.324-.504-2.91-2.908-2.91ZM2.156 21.554c0 .154.126.28.28.28h12.37a.28.28 0 0 0 .28-.277v-1.042c0-1.27-.33-2.238-.977-2.894-.647-.655-1.617-.986-2.877-.986H6.01c-1.26 0-2.227.33-2.877.983-.65.653-.978 1.628-.978 2.894v1.042Zm12.37-.28H2.716v-.762c0-1.112.272-1.955.813-2.499.54-.543 1.375-.818 2.482-.818h5.22c1.107 0 1.945.275 2.483.818.537.544.812 1.384.812 2.499v.762Z"/></svg>