<svg xmlns="http://www.w3.org/2000/svg" width="24" height="24" fill="none"><path fill="#000" d="M7.87 9.885a.61.61 0 0 1-.604.603.584.584 0 0 1-.58-.603.61.61 0 0 1 .603-.603c.327 0 .587.27.58.603"/><path fill="#000" fill-rule="evenodd" d="M19.673 8.079a.38.38 0 0 1 .386.005h.002c.117.071.189.2.189.342v7.184a.4.4 0 0 1-.199.347.34.34 0 0 1-.186.051.37.37 0 0 1-.2-.056l-3.273-1.885v1.762c0 1.198-.947 2.171-2.113 2.171H5.863c-1.166 0-2.113-.973-2.113-2.17V8.17C3.75 6.974 4.697 6 5.863 6h8.414c1.166 0 2.113.973 2.113 2.17v1.798zm-5.394 9.413c.89 0 1.616-.746 1.616-1.66V8.17c0-.915-.726-1.66-1.616-1.66H5.863c-.89 0-1.616.745-1.616 1.66v7.66c0 .915.726 1.66 1.616 1.66zm2.12-4.004 3.354 1.93V8.62L16.4 10.55z" clip-rule="evenodd"/></svg>