<svg xmlns="http://www.w3.org/2000/svg" width="24" height="24" fill="none"><path fill="#0B2739" d="M20.952 8.221c.303.076.563.269.72.538.16.266.207.585.126.888l-.372 1.462-.002.007-.001.007a1.166 1.166 0 0 1-1.423.835l-.955-.241-.107.423a1.28 1.28 0 0 1-1.557.927l-5.499-1.4-2.406 6.82a.42.42 0 0 1-.395.28H5.818l-.014-.003-.014-.002v1.798c0 .706-.574 1.28-1.28 1.28H3.434a1.28 1.28 0 0 1-1.283-1.28v-5.431c0-.706.574-1.283 1.283-1.283h1.073c.706 0 1.28.577 1.28 1.283v2.804q.009 0 .014-.003t.014-.003h2.966l2.283-6.468-6.282-1.6a1.27 1.27 0 0 1-.788-.585 1.28 1.28 0 0 1-.14-.972l1.317-5.179c.176-.686.871-1.1 1.557-.927l12.6 3.207c.686.177 1.1.874.927 1.56l-.258 1.014zm-3.361 4.036a.44.44 0 0 0 .535-.322s1.317-5.179 1.314-5.182a.44.44 0 0 0-.32-.538L6.521 3.011a.445.445 0 0 0-.538.322L4.667 8.51a.44.44 0 0 0 .05.333.43.43 0 0 0 .272.204l12.596 3.21zm3.025-1.355.373-1.463a.343.343 0 0 0-.241-.411l-.955-.244-.538 2.115.955.244.003.002h.003a.33.33 0 0 0 .4-.243M4.95 20.562h.002V15.13a.444.444 0 0 0-.442-.443H3.434a.444.444 0 0 0-.442.443v5.43c0 .247.196.444.442.446h1.073a.444.444 0 0 0 .443-.442"/></svg>