<svg width="24" height="24" viewBox="0 0 24 24" fill="none" xmlns="http://www.w3.org/2000/svg">
<path fill-rule="evenodd" clip-rule="evenodd" d="M20.9574 8.221C21.2599 8.29663 21.5204 8.48991 21.6773 8.75881C21.8369 9.02492 21.8845 9.34425 21.8033 9.64677L21.4308 11.109C21.4308 11.1118 21.4301 11.1139 21.4294 11.116C21.4287 11.1181 21.428 11.1202 21.428 11.123C21.2655 11.7476 20.6268 12.1202 20.005 11.9577L19.0498 11.7168L18.9434 12.1398C18.7697 12.826 18.0722 13.2406 17.3859 13.0669L11.8873 11.6664L9.48118 18.4871C9.42236 18.6552 9.26549 18.7672 9.08622 18.7672H5.82292C5.81731 18.7672 5.81311 18.7658 5.80891 18.7644C5.80471 18.763 5.80051 18.7616 5.79491 18.7616V20.5599C5.79491 21.2658 5.22068 21.84 4.51479 21.84H3.43916C2.73048 21.84 2.15625 21.2658 2.15625 20.5599V15.1286C2.15625 14.4227 2.73048 13.8456 3.43916 13.8456H4.51199C5.21787 13.8456 5.7921 14.4227 5.7921 15.1286V17.9325C5.79771 17.9325 5.80191 17.9311 5.80611 17.9297C5.81031 17.9283 5.81451 17.9269 5.82012 17.9269H8.7865L11.0694 11.4591L4.7865 9.85965C4.45317 9.77562 4.17586 9.56834 3.99939 9.27422C3.82572 8.9801 3.7753 8.63276 3.85933 8.30223L5.17586 3.12296C5.35233 2.43669 6.04701 2.02212 6.73328 2.19579L19.3327 5.40307C20.019 5.57954 20.4336 6.27702 20.2599 6.9633L20.0022 7.9773L20.9574 8.221ZM17.596 12.2574C17.8341 12.3162 18.0722 12.1706 18.131 11.9353C18.131 11.9353 19.4476 6.75601 19.4448 6.75321C19.5064 6.51792 19.3635 6.27702 19.1254 6.2154L6.526 3.01092C6.2907 2.95209 6.04981 3.09495 5.98818 3.33304L4.67166 8.50952C4.64365 8.62156 4.66045 8.74201 4.72208 8.84285C4.7837 8.94649 4.87894 9.01932 4.99379 9.04733L17.5904 12.2574H17.596ZM20.6212 10.9017L20.9938 9.43949C21.0386 9.25741 20.9294 9.07814 20.7529 9.02772L19.7977 8.78402L19.2599 10.8989L20.2151 11.1426C20.2167 11.1442 20.2174 11.1449 20.2182 11.1452C20.2188 11.1454 20.2195 11.1454 20.2207 11.1454C20.3971 11.1902 20.5764 11.0809 20.6212 10.9017ZM4.95457 20.5627C4.95457 20.8064 4.75569 21.0053 4.51199 21.0053H3.43916C3.19266 21.0025 2.99659 20.8064 2.99659 20.5599V15.1286C2.99659 14.8849 3.19547 14.686 3.43916 14.686H4.51479C4.75849 14.686 4.95737 14.8849 4.95737 15.1286V20.5627H4.95457Z" fill="#313235"/>
</svg>
