<svg width="24" height="24" viewBox="0 0 24 24" fill="none" xmlns="http://www.w3.org/2000/svg">
<path fill-rule="evenodd" clip-rule="evenodd" d="M20.0874 8.1977C19.9926 7.98497 19.9085 7.79615 19.8398 7.63535C19.8299 7.61228 19.8202 7.58959 19.8107 7.56736C19.763 7.45589 19.7203 7.356 19.6776 7.27732C19.6462 7.20724 19.629 7.17518 19.6175 7.15387C19.6144 7.14817 19.6118 7.14323 19.6094 7.13855L19.5525 7.02753C19.3988 6.7611 19.2196 6.51408 18.9976 6.30593C18.3063 5.66481 17.3275 5.34009 16.0871 5.34009C15.5778 5.34009 15.1254 5.40947 14.7043 5.51771C14.4568 5.58155 13.9077 5.81746 13.8991 5.82301C13.8991 5.82301 13.4781 6.05337 13.3443 6.14218C12.9403 6.40862 12.468 6.54184 11.9986 6.54184C11.5291 6.54184 11.0597 6.40862 10.6528 6.14218C10.5219 6.05337 10.1009 5.82301 10.1009 5.82301C10.0895 5.81746 9.54037 5.58155 9.29284 5.51771C8.87176 5.40947 8.41938 5.34009 7.9101 5.34009C6.66961 5.34009 5.68803 5.66481 4.99951 6.30593C4.77189 6.51408 4.59549 6.7611 4.44186 7.02753L4.38211 7.13855C4.37971 7.14324 4.37705 7.14817 4.37398 7.15387C4.36251 7.17519 4.34525 7.20725 4.31382 7.27732C4.27527 7.36257 4.22974 7.47048 4.17725 7.5949C4.17164 7.6082 4.16595 7.62168 4.16019 7.63535C4.0908 7.79814 4.00562 7.9895 3.90962 8.20519C3.21838 9.75818 1.96574 12.5724 2.00072 15.0679C2.00641 15.4759 2.16574 16.2946 2.28808 16.6859C2.53845 17.4714 3.11602 17.9765 3.74764 18.1791C4.00655 18.2624 4.35935 18.3179 4.60972 18.3401H4.68938C5.04787 18.3401 5.65674 18.1985 5.97255 18.0598C6.16602 17.9737 6.43631 17.8322 6.75496 17.5685C6.92256 17.427 7.00659 17.3262 7.23907 17.0474C7.27101 17.0091 7.30576 16.9675 7.34391 16.9219C7.41276 16.8394 7.47894 16.7551 7.54499 16.671C7.69455 16.4805 7.84343 16.2909 8.02106 16.1253C8.61285 15.5758 9.36112 15.1872 10.2517 14.943C10.8207 14.7876 11.4096 14.7099 12.0014 14.7099C12.5904 14.7099 13.1822 14.7903 13.7512 14.943C14.6417 15.1845 15.3928 15.5758 15.9818 16.1253C16.1588 16.2903 16.3072 16.4804 16.4552 16.6701C16.5214 16.7549 16.5875 16.8396 16.6561 16.9219L16.6784 16.949C16.9733 17.3072 17.059 17.4115 17.245 17.5685C17.5637 17.8322 17.8482 17.9737 18.0417 18.0598C18.3831 18.2096 19.0489 18.3401 19.3874 18.3401C19.6407 18.3401 19.9906 18.2624 20.2495 18.1791C20.884 17.9765 21.4615 17.4714 21.7091 16.6859C21.8343 16.2946 21.9936 15.4786 21.9993 15.0679C22.0343 12.5665 20.7781 9.74746 20.0874 8.1977ZM20.9124 16.4556C21.0177 16.117 21.16 15.3787 21.1657 15.0568C21.197 12.7282 19.9792 9.98889 19.322 8.51793C19.289 8.44324 19.2571 8.37178 19.2266 8.30353C19.1675 8.17143 19.1138 8.05139 19.0688 7.94342L19.0375 7.86571C19.0066 7.79138 18.9772 7.72432 18.9514 7.66558L18.9237 7.60204C18.9066 7.56319 18.8952 7.54098 18.8867 7.52711L18.8782 7.51046L18.8554 7.46605L18.8127 7.39111C18.6932 7.18573 18.5652 7.01643 18.4229 6.88321C17.8937 6.38919 17.1085 6.14218 16.0927 6.14218C15.6973 6.14218 15.316 6.18936 14.9262 6.28928C14.8039 6.32258 14.4596 6.45858 14.2804 6.53629C14.1837 6.58902 13.9162 6.73612 13.8195 6.79995C13.2789 7.15243 12.6501 7.34116 11.9986 7.34116C11.347 7.34116 10.7183 7.15243 10.1805 6.79995C10.0809 6.73612 9.8135 6.58625 9.71677 6.53351C9.55175 6.46135 9.1961 6.31981 9.07092 6.2865C8.68398 6.18659 8.30273 6.1394 7.90725 6.1394C6.88869 6.1394 6.10627 6.38919 5.57707 6.88044C5.43481 7.01088 5.30678 7.18296 5.17022 7.41887L5.13892 7.47715L5.13607 7.47993L5.11331 7.52711C5.10994 7.5337 5.10656 7.54072 5.10248 7.54921C5.09624 7.56218 5.08836 7.57856 5.07633 7.60204C5.0483 7.66304 5.017 7.73519 4.98244 7.81487L4.98243 7.81487L4.94829 7.89346L4.92838 7.94064C4.87279 8.07079 4.80851 8.21619 4.7369 8.37818L4.73685 8.37828L4.67516 8.51793L4.67162 8.52588C4.01638 9.99875 2.80026 12.7324 2.8315 15.0596C2.83435 15.3815 2.9766 16.1198 3.08187 16.4584C3.23267 16.933 3.5684 17.2827 4.00939 17.4242C4.17726 17.4769 4.45608 17.5297 4.67231 17.5435C4.90277 17.5435 5.39214 17.4353 5.61975 17.3354C5.81891 17.2494 6.00669 17.13 6.20016 16.969C6.30828 16.8774 6.35664 16.8219 6.58995 16.5416L6.68668 16.4278L6.6867 16.4278L6.68672 16.4278C6.7493 16.3501 6.81188 16.2724 6.87162 16.1947C7.0281 15.9949 7.20734 15.7673 7.43211 15.5591C8.11495 14.9263 8.98272 14.4628 10.0155 14.1798C10.6557 14.0049 11.3214 13.9161 11.9929 13.9161C12.6643 13.9161 13.3301 14.0049 13.9703 14.1798C15.0059 14.4628 15.8737 14.9263 16.5537 15.5591C16.7697 15.7592 16.9411 15.9773 17.0956 16.1738L17.0956 16.1739L17.1142 16.1975C17.1739 16.2752 17.2365 16.3529 17.2991 16.4278L17.393 16.5416C17.6263 16.8219 17.6747 16.8774 17.7856 16.969C18.0303 17.1716 18.2408 17.2771 18.3803 17.3354C18.6164 17.4381 19.1627 17.5435 19.3817 17.5435C19.4927 17.5435 19.7402 17.5019 19.9792 17.4242C20.4231 17.2799 20.7616 16.9274 20.9124 16.4556ZM9.87894 9.65029C9.67124 9.45879 9.38388 9.35055 9.0197 9.3339C9.00548 8.96199 8.88314 8.67057 8.66122 8.46797C8.4336 8.25426 8.10357 8.14602 7.68533 8.14602C7.26709 8.14602 6.94274 8.25426 6.71229 8.46797C6.48467 8.6789 6.36518 8.9842 6.35664 9.37553C5.96401 9.38663 5.65389 9.49487 5.43481 9.69747C5.19867 9.91673 5.07633 10.2415 5.07633 10.6578C5.07633 11.0769 5.19867 11.3988 5.43481 11.6181C5.65389 11.8207 5.96401 11.9261 6.35664 11.9372C6.36518 12.3286 6.48752 12.6366 6.71229 12.8476C6.94274 13.0585 7.26709 13.164 7.68533 13.164C8.10357 13.164 8.4336 13.0557 8.66122 12.8476C8.90021 12.6255 9.02255 12.3036 9.02255 11.8845C9.39526 11.8651 9.67409 11.7596 9.87609 11.5736C10.1179 11.3516 10.2374 11.0297 10.2374 10.6106C10.2374 10.1943 10.1179 9.87233 9.87894 9.65029ZM16.713 8.51238C16.5736 8.38471 16.3744 8.32087 16.1184 8.32087C15.8623 8.32087 15.6631 8.38471 15.5237 8.51238C15.3815 8.6456 15.3075 8.84265 15.3075 9.10076C15.3075 9.35888 15.3815 9.55315 15.5237 9.68637C15.6631 9.81404 15.8623 9.87788 16.1184 9.87788C16.3744 9.87788 16.5736 9.81404 16.713 9.68637C16.8581 9.55315 16.9321 9.3561 16.9321 9.10076C16.9321 8.84265 16.8581 8.6456 16.713 8.51238ZM15.0713 10.0694C14.9319 9.93893 14.7328 9.8751 14.4767 9.8751C14.2178 9.8751 14.0186 9.94171 13.8821 10.0694C13.737 10.2026 13.663 10.3997 13.663 10.6578C13.663 10.9159 13.7398 11.1102 13.8821 11.2434C14.0215 11.371 14.2206 11.4349 14.4767 11.4349C14.7328 11.4349 14.9319 11.371 15.0713 11.2434C15.2164 11.1102 15.2904 10.9131 15.2904 10.6578C15.2904 10.3997 15.2164 10.2026 15.0713 10.0694ZM16.1184 11.4321C16.3744 11.4321 16.5736 11.4959 16.713 11.6236C16.8581 11.7568 16.9321 11.9539 16.9321 12.212C16.9321 12.4673 16.8581 12.6644 16.713 12.7976C16.5736 12.9253 16.3744 12.9891 16.1184 12.9891C15.8623 12.9891 15.6631 12.9253 15.5237 12.7976C15.3815 12.6644 15.3075 12.4701 15.3075 12.212C15.3075 11.9567 15.3815 11.7568 15.5237 11.6236C15.6631 11.4959 15.8623 11.4321 16.1184 11.4321ZM18.3575 10.0694C18.2181 9.93893 18.0189 9.8751 17.7629 9.8751C17.5068 9.8751 17.3076 9.94171 17.1682 10.0694C17.026 10.2026 16.952 10.3997 16.952 10.6578C16.952 10.9159 17.0231 11.1102 17.1682 11.2434C17.3076 11.371 17.5039 11.4349 17.7629 11.4349C18.0189 11.4349 18.2181 11.371 18.3575 11.2434C18.5026 11.1102 18.5766 10.9131 18.5766 10.6578C18.5766 10.3997 18.5026 10.2026 18.3575 10.0694ZM9.30137 10.9936C9.38957 10.9103 9.4038 10.7188 9.4038 10.6106C9.4038 10.5051 9.38957 10.3108 9.30137 10.2276C9.23594 10.1665 9.09368 10.1332 8.90305 10.1332C8.86941 10.1332 8.8523 10.1354 8.83937 10.137C8.83153 10.138 8.82522 10.1388 8.8177 10.1388H8.7864C8.77502 10.1388 8.76364 10.1388 8.76649 10.136L8.75855 10.1366C8.72459 10.1391 8.6929 10.1415 8.66122 10.1415C8.57017 10.1415 8.48766 10.1249 8.41938 10.0833C8.31126 10.0166 8.23729 9.90008 8.19746 9.73911C8.18039 9.67527 8.18038 9.61976 8.18038 9.56426C8.18038 9.55831 8.17957 9.55236 8.17881 9.54683C8.17815 9.54205 8.17754 9.53759 8.17754 9.53373C8.18038 9.52263 8.18038 9.5143 8.18038 9.50598V9.50597C8.18151 9.49502 8.18307 9.48364 8.18456 9.47286C8.18683 9.45629 8.18892 9.44112 8.18892 9.43104C8.18892 9.32279 8.17469 9.12852 8.08649 9.04525C8.02106 8.9842 7.8788 8.95089 7.68817 8.95089C7.50039 8.95089 7.36098 8.9842 7.29554 9.04525C7.2045 9.12852 7.19312 9.32279 7.19312 9.43104C7.19312 9.49231 7.20098 9.5408 7.20916 9.59123L7.20916 9.59123L7.21019 9.59756C7.21019 9.60034 7.21019 9.60311 7.21303 9.60589C7.21446 9.6156 7.21375 9.62393 7.21303 9.63225C7.21232 9.64058 7.21161 9.6489 7.21303 9.65862C7.22441 9.79461 7.20165 9.91118 7.13621 9.99999C7.05655 10.1055 6.92567 10.1693 6.74927 10.1943C6.74074 10.197 6.7322 10.197 6.72082 10.197C6.70978 10.197 6.69941 10.1964 6.68874 10.1957H6.68873H6.68872C6.67739 10.195 6.66572 10.1943 6.65254 10.1943H6.64969C6.6351 10.1943 6.62051 10.195 6.6063 10.1957L6.60628 10.1957H6.60627H6.60626C6.59278 10.1964 6.57965 10.197 6.56718 10.197C6.54951 10.197 6.53408 10.1949 6.51691 10.1924L6.51028 10.1915H6.50744C6.49547 10.1904 6.48392 10.1886 6.47214 10.1867C6.45313 10.1836 6.43354 10.1804 6.4107 10.1804C6.22292 10.1804 6.08351 10.2137 6.01807 10.2775C5.92987 10.3608 5.91564 10.5523 5.91564 10.6605C5.91564 10.8437 5.95263 10.9825 6.01522 11.0435C6.08066 11.1018 6.22292 11.1379 6.4107 11.1379H6.41071C6.50459 11.1379 6.50459 11.1379 6.57287 11.1268H6.57572C6.58283 11.1268 6.59774 11.1254 6.61266 11.124L6.61267 11.124L6.61271 11.124C6.62764 11.1226 6.64258 11.1213 6.64969 11.1213H6.65254C6.68099 11.1185 6.71229 11.1185 6.74074 11.1185C6.83178 11.1185 6.91429 11.1351 6.97973 11.1768C7.08785 11.2434 7.16182 11.3572 7.20165 11.5181C7.21231 11.5576 7.21339 11.5909 7.21445 11.6238C7.21481 11.6348 7.21516 11.6458 7.21588 11.6569C7.21588 11.6656 7.21666 11.6736 7.2174 11.6811L7.2174 11.6811C7.21808 11.6881 7.21872 11.6947 7.21872 11.7013C7.21303 11.7318 7.21019 11.7596 7.20734 11.7874L7.2033 11.8099L7.2033 11.8099C7.19831 11.8372 7.19312 11.8656 7.19312 11.8873C7.19312 12.0704 7.2301 12.212 7.2927 12.2703C7.35814 12.3286 7.50039 12.3619 7.68533 12.3619C7.87311 12.3619 8.01821 12.3286 8.08365 12.2675C8.17185 12.1842 8.18608 11.9927 8.18608 11.8845C8.18608 11.8699 8.18216 11.8515 8.17802 11.8321C8.17428 11.8146 8.17036 11.7962 8.169 11.779C8.16616 11.7596 8.16331 11.7402 8.16047 11.718C8.15762 11.693 8.15762 11.668 8.15762 11.6403C8.15762 11.6261 8.15609 11.6125 8.15454 11.5987C8.15243 11.58 8.1503 11.5611 8.15193 11.5403C8.169 11.3766 8.22875 11.2489 8.32833 11.1712C8.41084 11.1046 8.52465 11.0741 8.65837 11.0741H8.70389C8.70816 11.0741 8.71741 11.0748 8.72665 11.0755C8.7359 11.0762 8.74515 11.0769 8.74942 11.0769H8.75226C8.7864 11.0852 8.80632 11.0852 8.83192 11.0852H8.9059C9.09083 11.088 9.23594 11.0519 9.30137 10.9936Z" fill="#313235"/>
</svg>
