<svg width="24" height="24" viewBox="0 0 24 24" fill="none" xmlns="http://www.w3.org/2000/svg">
<path fill-rule="evenodd" clip-rule="evenodd" d="M20.0874 8.19758C19.9926 7.98484 19.9085 7.79602 19.8398 7.63523C19.8299 7.61215 19.8202 7.58946 19.8107 7.56724C19.763 7.45577 19.7203 7.35587 19.6776 7.2772C19.6462 7.20712 19.629 7.17506 19.6175 7.15374C19.6144 7.14804 19.6118 7.14311 19.6094 7.13843L19.5525 7.02741C19.3988 6.76097 19.2196 6.51396 18.9976 6.30581C18.3063 5.66469 17.3275 5.33997 16.0871 5.33997C15.5778 5.33997 15.1254 5.40935 14.7043 5.51759C14.4568 5.58143 13.9077 5.81734 13.8991 5.82289C13.8991 5.82289 13.4781 6.05325 13.3443 6.14206C12.9403 6.4085 12.468 6.54172 11.9986 6.54172C11.5291 6.54172 11.0597 6.4085 10.6528 6.14206C10.5219 6.05325 10.1009 5.82289 10.1009 5.82289C10.0895 5.81734 9.54037 5.58143 9.29284 5.51759C8.87176 5.40935 8.41938 5.33997 7.9101 5.33997C6.66961 5.33997 5.68803 5.66469 4.99951 6.30581C4.77189 6.51396 4.59549 6.76097 4.44186 7.02741L4.38211 7.13843C4.37971 7.14311 4.37705 7.14805 4.37398 7.15375C4.36251 7.17506 4.34525 7.20713 4.31382 7.2772C4.27527 7.36245 4.22974 7.47036 4.17725 7.59478C4.17164 7.60808 4.16595 7.62156 4.16019 7.63523C4.0908 7.79802 4.00562 7.98938 3.90962 8.20506C3.21838 9.75806 1.96574 12.5723 2.00072 15.0678C2.00641 15.4757 2.16574 16.2945 2.28808 16.6858C2.53845 17.4713 3.11602 17.9764 3.74764 18.179C4.00655 18.2623 4.35935 18.3178 4.60972 18.34H4.68938C5.04787 18.34 5.65674 18.1984 5.97255 18.0596C6.16602 17.9736 6.43631 17.8321 6.75496 17.5684C6.92256 17.4269 7.00659 17.3261 7.23907 17.0473C7.27101 17.009 7.30576 16.9673 7.34391 16.9217C7.41276 16.8393 7.47894 16.755 7.54499 16.6709C7.69455 16.4804 7.84343 16.2908 8.02106 16.1252C8.61285 15.5757 9.36112 15.1871 10.2517 14.9429C10.8207 14.7874 11.4096 14.7097 12.0014 14.7097C12.5904 14.7097 13.1822 14.7902 13.7512 14.9429C14.6417 15.1843 15.3928 15.5757 15.9818 16.1252C16.1588 16.2901 16.3072 16.4803 16.4552 16.67C16.5214 16.7547 16.5875 16.8394 16.6561 16.9217L16.6784 16.9489C16.9733 17.3071 17.059 17.4113 17.245 17.5684C17.5637 17.8321 17.8482 17.9736 18.0417 18.0596C18.3831 18.2095 19.0489 18.34 19.3874 18.34C19.6407 18.34 19.9906 18.2623 20.2495 18.179C20.884 17.9764 21.4615 17.4713 21.7091 16.6858C21.8343 16.2945 21.9936 15.4785 21.9993 15.0678C22.0343 12.5663 20.7781 9.74734 20.0874 8.19758ZM20.9124 16.4555C21.0177 16.1169 21.16 15.3786 21.1657 15.0567C21.197 12.7281 19.9792 9.98877 19.322 8.51781C19.289 8.44312 19.2571 8.37166 19.2266 8.30341C19.1675 8.17131 19.1138 8.05127 19.0688 7.9433L19.0375 7.86558C19.0066 7.79125 18.9772 7.72419 18.9514 7.66546L18.9237 7.60192C18.9066 7.56307 18.8952 7.54086 18.8867 7.52699L18.8782 7.51033L18.8554 7.46593L18.8127 7.39099C18.6932 7.18561 18.5652 7.01631 18.4229 6.88309C17.8937 6.38907 17.1085 6.14206 16.0927 6.14206C15.6973 6.14206 15.316 6.18924 14.9262 6.28915C14.8039 6.32246 14.4596 6.45845 14.2804 6.53617C14.1837 6.5889 13.9162 6.73599 13.8195 6.79983C13.2789 7.15231 12.6501 7.34103 11.9986 7.34103C11.347 7.34103 10.7183 7.15231 10.1805 6.79983C10.0809 6.73599 9.8135 6.58612 9.71677 6.53339C9.55175 6.46123 9.1961 6.31968 9.07092 6.28638C8.68398 6.18646 8.30273 6.13928 7.90725 6.13928C6.88869 6.13928 6.10627 6.38907 5.57707 6.88032C5.43481 7.01076 5.30678 7.18284 5.17022 7.41874L5.13892 7.47703L5.13607 7.4798L5.11331 7.52699C5.10994 7.53357 5.10656 7.5406 5.10248 7.54909C5.09624 7.56205 5.08836 7.57844 5.07633 7.60192C5.0483 7.66291 5.017 7.73506 4.98244 7.81475L4.98243 7.81475L4.94829 7.89334L4.92838 7.94052C4.87279 8.07067 4.80851 8.21607 4.7369 8.37805L4.73685 8.37816L4.67516 8.51781L4.67162 8.52576C4.01638 9.99863 2.80026 12.7323 2.8315 15.0594C2.83435 15.3814 2.9766 16.1196 3.08187 16.4582C3.23267 16.9328 3.5684 17.2825 4.00939 17.4241C4.17726 17.4768 4.45608 17.5295 4.67231 17.5434C4.90277 17.5434 5.39214 17.4352 5.61975 17.3353C5.81891 17.2492 6.00669 17.1299 6.20016 16.9689C6.30828 16.8773 6.35664 16.8218 6.58995 16.5415L6.68668 16.4277L6.6867 16.4277L6.68672 16.4277C6.7493 16.35 6.81188 16.2723 6.87162 16.1946C7.0281 15.9947 7.20734 15.7672 7.43211 15.559C8.11495 14.9262 8.98272 14.4627 10.0155 14.1796C10.6557 14.0048 11.3214 13.916 11.9929 13.916C12.6643 13.916 13.3301 14.0048 13.9703 14.1796C15.0059 14.4627 15.8737 14.9262 16.5537 15.559C16.7697 15.7591 16.9411 15.9772 17.0956 16.1737L17.0956 16.1737L17.1142 16.1974C17.1739 16.2751 17.2365 16.3528 17.2991 16.4277L17.393 16.5415C17.6263 16.8218 17.6747 16.8773 17.7856 16.9689C18.0303 17.1715 18.2408 17.277 18.3803 17.3353C18.6164 17.438 19.1627 17.5434 19.3817 17.5434C19.4927 17.5434 19.7402 17.5018 19.9792 17.4241C20.4231 17.2798 20.7616 16.9273 20.9124 16.4555ZM9.87894 9.65017C9.67124 9.45867 9.38388 9.35043 9.0197 9.33377C9.00548 8.96187 8.88314 8.67045 8.66122 8.46785C8.4336 8.25414 8.10357 8.1459 7.68533 8.1459C7.26709 8.1459 6.94274 8.25414 6.71229 8.46785C6.48467 8.67878 6.36518 8.98407 6.35664 9.37541C5.96401 9.38651 5.65389 9.49475 5.43481 9.69735C5.19867 9.91661 5.07633 10.2413 5.07633 10.6576C5.07633 11.0767 5.19867 11.3987 5.43481 11.6179C5.65389 11.8205 5.96401 11.926 6.35664 11.9371C6.36518 12.3284 6.48752 12.6365 6.71229 12.8474C6.94274 13.0584 7.26709 13.1638 7.68533 13.1638C8.10357 13.1638 8.4336 13.0556 8.66122 12.8474C8.90021 12.6254 9.02255 12.3035 9.02255 11.8844C9.39526 11.8649 9.67409 11.7595 9.87609 11.5735C10.1179 11.3515 10.2374 11.0295 10.2374 10.6105C10.2374 10.1942 10.1179 9.8722 9.87894 9.65017ZM16.713 8.51225C16.5736 8.38459 16.3744 8.32075 16.1184 8.32075C15.8623 8.32075 15.6631 8.38459 15.5237 8.51225C15.3815 8.64547 15.3075 8.84253 15.3075 9.10064C15.3075 9.35875 15.3815 9.55303 15.5237 9.68625C15.6631 9.81392 15.8623 9.87775 16.1184 9.87775C16.3744 9.87775 16.5736 9.81392 16.713 9.68625C16.8581 9.55303 16.9321 9.35598 16.9321 9.10064C16.9321 8.84253 16.8581 8.64547 16.713 8.51225ZM15.0713 10.0693C14.9319 9.93881 14.7328 9.87498 14.4767 9.87498C14.2178 9.87498 14.0186 9.94159 13.8821 10.0693C13.737 10.2025 13.663 10.3995 13.663 10.6576C13.663 10.9158 13.7398 11.11 13.8821 11.2433C14.0215 11.3709 14.2206 11.4348 14.4767 11.4348C14.7328 11.4348 14.9319 11.3709 15.0713 11.2433C15.2164 11.11 15.2904 10.913 15.2904 10.6576C15.2904 10.3995 15.2164 10.2025 15.0713 10.0693ZM16.1184 11.432C16.3744 11.432 16.5736 11.4958 16.713 11.6235C16.8581 11.7567 16.9321 11.9538 16.9321 12.2119C16.9321 12.4672 16.8581 12.6643 16.713 12.7975C16.5736 12.9251 16.3744 12.989 16.1184 12.989C15.8623 12.989 15.6631 12.9251 15.5237 12.7975C15.3815 12.6643 15.3075 12.47 15.3075 12.2119C15.3075 11.9565 15.3815 11.7567 15.5237 11.6235C15.6631 11.4958 15.8623 11.432 16.1184 11.432ZM18.3575 10.0693C18.2181 9.93881 18.0189 9.87498 17.7629 9.87498C17.5068 9.87498 17.3076 9.94159 17.1682 10.0693C17.026 10.2025 16.952 10.3995 16.952 10.6576C16.952 10.9158 17.0231 11.11 17.1682 11.2433C17.3076 11.3709 17.5039 11.4348 17.7629 11.4348C18.0189 11.4348 18.2181 11.3709 18.3575 11.2433C18.5026 11.11 18.5766 10.913 18.5766 10.6576C18.5766 10.3995 18.5026 10.2025 18.3575 10.0693ZM9.30137 10.9935C9.38957 10.9102 9.4038 10.7187 9.4038 10.6105C9.4038 10.505 9.38957 10.3107 9.30137 10.2275C9.23594 10.1664 9.09368 10.1331 8.90305 10.1331C8.86941 10.1331 8.8523 10.1352 8.83937 10.1369C8.83153 10.1379 8.82522 10.1386 8.8177 10.1386H8.7864C8.77502 10.1386 8.76364 10.1386 8.76649 10.1359L8.75855 10.1365C8.72459 10.139 8.6929 10.1414 8.66122 10.1414C8.57017 10.1414 8.48766 10.1248 8.41938 10.0831C8.31126 10.0165 8.23729 9.89996 8.19746 9.73898C8.18039 9.67515 8.18038 9.61964 8.18038 9.56413C8.18038 9.55818 8.17957 9.55223 8.17881 9.54671C8.17815 9.54193 8.17754 9.53747 8.17754 9.5336C8.18038 9.5225 8.18038 9.51418 8.18038 9.50585V9.50585C8.18151 9.4949 8.18307 9.48352 8.18456 9.47273C8.18683 9.45617 8.18892 9.441 8.18892 9.43091C8.18892 9.32267 8.17469 9.12839 8.08649 9.04513C8.02106 8.98407 7.8788 8.95077 7.68817 8.95077C7.50039 8.95077 7.36098 8.98407 7.29554 9.04513C7.2045 9.12839 7.19312 9.32267 7.19312 9.43091C7.19312 9.49219 7.20098 9.54068 7.20916 9.59111L7.20916 9.59111L7.21019 9.59744C7.21019 9.60021 7.21019 9.60299 7.21303 9.60576C7.21446 9.61548 7.21375 9.6238 7.21303 9.63213C7.21232 9.64046 7.21161 9.64878 7.21303 9.6585C7.22441 9.79449 7.20165 9.91106 7.13621 9.99987C7.05655 10.1053 6.92567 10.1692 6.74927 10.1941C6.74074 10.1969 6.7322 10.1969 6.72082 10.1969C6.70978 10.1969 6.69941 10.1963 6.68874 10.1956H6.68873H6.68872C6.67739 10.1949 6.66572 10.1941 6.65254 10.1941H6.64969C6.6351 10.1941 6.62051 10.1949 6.6063 10.1956L6.60628 10.1956H6.60627H6.60626C6.59278 10.1963 6.57965 10.1969 6.56718 10.1969C6.54951 10.1969 6.53408 10.1947 6.51691 10.1923L6.51028 10.1914H6.50744C6.49547 10.1903 6.48392 10.1884 6.47214 10.1865C6.45313 10.1834 6.43354 10.1803 6.4107 10.1803C6.22292 10.1803 6.08351 10.2136 6.01807 10.2774C5.92987 10.3607 5.91564 10.5522 5.91564 10.6604C5.91564 10.8436 5.95263 10.9824 6.01522 11.0434C6.08066 11.1017 6.22292 11.1378 6.4107 11.1378H6.41071C6.50459 11.1378 6.50459 11.1378 6.57287 11.1267H6.57572C6.58283 11.1267 6.59774 11.1253 6.61266 11.1239L6.61267 11.1239L6.61271 11.1239C6.62764 11.1225 6.64258 11.1211 6.64969 11.1211H6.65254C6.68099 11.1184 6.71229 11.1184 6.74074 11.1184C6.83178 11.1184 6.91429 11.135 6.97973 11.1766C7.08785 11.2433 7.16182 11.357 7.20165 11.518C7.21231 11.5575 7.21339 11.5908 7.21445 11.6237C7.21481 11.6347 7.21516 11.6456 7.21588 11.6568C7.21588 11.6655 7.21666 11.6734 7.2174 11.681L7.2174 11.681C7.21808 11.688 7.21872 11.6946 7.21872 11.7012C7.21303 11.7317 7.21019 11.7595 7.20734 11.7872L7.2033 11.8098L7.2033 11.8098C7.19831 11.8371 7.19312 11.8655 7.19312 11.8871C7.19312 12.0703 7.2301 12.2119 7.2927 12.2702C7.35814 12.3284 7.50039 12.3617 7.68533 12.3617C7.87311 12.3617 8.01821 12.3284 8.08365 12.2674C8.17185 12.1841 8.18608 11.9926 8.18608 11.8844C8.18608 11.8698 8.18216 11.8514 8.17802 11.832C8.17428 11.8144 8.17036 11.796 8.169 11.7789C8.16616 11.7595 8.16331 11.7401 8.16047 11.7178C8.15762 11.6929 8.15762 11.6679 8.15762 11.6401C8.15762 11.626 8.15609 11.6124 8.15454 11.5986C8.15243 11.5799 8.1503 11.561 8.15193 11.5402C8.169 11.3765 8.22875 11.2488 8.32833 11.1711C8.41084 11.1045 8.52465 11.074 8.65837 11.074H8.70389C8.70816 11.074 8.71741 11.0746 8.72665 11.0753C8.7359 11.076 8.74515 11.0767 8.74942 11.0767H8.75226C8.7864 11.0851 8.80632 11.0851 8.83192 11.0851H8.9059C9.09083 11.0878 9.23594 11.0518 9.30137 10.9935Z" fill="#313235"/>
</svg>
