<svg width="24" height="24" fill="none" xmlns="http://www.w3.org/2000/svg"><path d="M2.293 8.476a.3.3 0 0 1-.208-.083.28.28 0 0 1 0-.402l.02-.02a14.12 14.12 0 0 1 4.458-2.9A14.396 14.396 0 0 1 12.046 4c1.889 0 3.723.355 5.452 1.058a14.061 14.061 0 0 1 4.415 2.845.28.28 0 0 1 .003.402.303.303 0 0 1-.416.003 13.445 13.445 0 0 0-4.23-2.727 13.842 13.842 0 0 0-5.227-1.014c-1.822 0-3.591.345-5.255 1.028a13.543 13.543 0 0 0-4.272 2.779l-.018.016a.28.28 0 0 1-.205.086Z" fill="#313235"/><path d="M4.675 11.492a.294.294 0 0 0 .413-.003l.011-.01a9.884 9.884 0 0 1 3.088-2.014 10.082 10.082 0 0 1 3.854-.758c1.321 0 2.603.25 3.814.744a9.794 9.794 0 0 1 3.059 1.97.3.3 0 0 0 .416-.003.277.277 0 0 0-.003-.403 10.411 10.411 0 0 0-3.245-2.087 10.646 10.646 0 0 0-4.041-.788c-1.419 0-2.792.27-4.085.804a10.448 10.448 0 0 0-3.27 2.135l-.014.013a.276.276 0 0 0 .003.4ZM7.261 14.59a.301.301 0 0 0 .208.083.278.278 0 0 0 .202-.082 6.169 6.169 0 0 1 1.911-1.26 6.368 6.368 0 0 1 2.453-.487c.832 0 1.64.16 2.401.471a6.142 6.142 0 0 1 1.891 1.212.3.3 0 0 0 .416-.005.277.277 0 0 0-.005-.402 6.725 6.725 0 0 0-2.071-1.328 6.901 6.901 0 0 0-2.63-.515 6.91 6.91 0 0 0-2.682.534 6.739 6.739 0 0 0-2.094 1.377.28.28 0 0 0 0 .402Z" fill="#313235"/><path fill-rule="evenodd" clip-rule="evenodd" d="M12 20c-1.281 0-1.988-.683-1.988-1.922 0-1.24.707-1.923 1.989-1.923.623 0 1.11.162 1.452.48.356.33.536.814.536 1.442 0 1.24-.707 1.923-1.988 1.923Zm0-3.278c-.956 0-1.4.43-1.4 1.355 0 .926.444 1.356 1.4 1.356.958 0 1.402-.43 1.402-1.355 0-.469-.12-.816-.356-1.036-.228-.212-.578-.32-1.045-.32Z" fill="#313235"/></svg>