<svg xmlns="http://www.w3.org/2000/svg" width="24" height="24" fill="none"><path fill="#000" d="M20.42 19.714a.79.79 0 0 0 .11-.846l-2.821-6.028c.728-1.03 1.123-2.417 1.123-4.185 0-4.428-2.431-6.504-6.6-6.504S5.637 4.224 5.637 8.658c0 1.527.294 2.765.843 3.742l-3.025 6.471a.8.8 0 0 0 .109.846c.199.241.513.345.868.263l2.205-.818.854 2.247a.81.81 0 0 0 .723.428h.022a.82.82 0 0 0 .723-.47l2.91-6.227.08.003q.082.005.167.005l2.907 6.219c.132.28.412.462.723.468h.023c.305 0 .58-.163.745-.477l.81-2.187 2.282.823c.303.07.62-.039.815-.28M12.232 2.978c3.877 0 5.762 1.857 5.762 5.677 0 3.818-1.882 5.673-5.761 5.673-3.877 0-5.76-1.857-5.76-5.675s1.886-5.675 5.76-5.675m-1.254 12.1L8.252 21.07l-.832-2.199a.83.83 0 0 0-1.05-.473l-2.154.818 2.81-6.02c.91 1.07 2.249 1.686 3.952 1.882m8.862 4.124-2.227-.807a.83.83 0 0 0-1.053.476l-.776 2.151-2.756-5.896c1.726-.12 3.11-.641 4.092-1.588zM9.874 8.078a.17.17 0 0 1 .154-.126l1.19-.179a.45.45 0 0 0 .323-.24l.53-1.102a.2.2 0 0 1 .083-.084.19.19 0 0 1 .252.084l.524 1.087c.062.135.185.23.333.255l1.185.177c.07.01.13.061.152.131a.21.21 0 0 1-.051.222l-.854.854c-.101.1-.146.244-.126.384l.201 1.21a.2.2 0 0 1-.08.207.18.18 0 0 1-.189.011l-1.044-.563a.44.44 0 0 0-.429-.008l-1.056.571a.18.18 0 0 1-.188-.011.21.21 0 0 1-.084-.21l.202-1.202a.46.46 0 0 0-.12-.39L9.923 8.3a.21.21 0 0 1-.05-.222m-.55.802.718.717s-.17 1.016-.168 1.02a1.026 1.026 0 0 0 1.499 1.078l.86-.468.868.468a1.03 1.03 0 0 0 1.07-.062c.33-.23.493-.622.426-1.017L14.426 9.6l.717-.72c.28-.28.372-.686.246-1.061a1.02 1.02 0 0 0-.82-.69l-.972-.145-.44-.913a1.024 1.024 0 0 0-1.849 0l-.437.913-.972.146a1.032 1.032 0 0 0-.574 1.75"/></svg>