<svg width="24" height="24" fill="none" xmlns="http://www.w3.org/2000/svg"><path fill-rule="evenodd" clip-rule="evenodd" d="M9.688 4.484c0 1.476.851 2.322 2.336 2.322 1.487 0 2.342-.846 2.342-2.322 0-.75-.213-1.336-.636-1.742-.406-.387-.98-.586-1.706-.586s-1.297.196-1.703.588c-.42.407-.633.992-.633 1.74Zm.829 0c0-.518.129-.905.38-1.148.245-.239.626-.356 1.127-.356.504 0 .885.117 1.132.356.254.243.383.633.383 1.148 0 1.025-.482 1.501-1.515 1.501-1.028 0-1.507-.479-1.507-1.501Zm5.958 10.059a.524.524 0 0 0 .028-.4l-1.583-4.48a1.92 1.92 0 0 0-1.804-1.266h-2.179c-.762 0-1.454.454-1.756 1.157-.017.034-.031.067-.045.1L7.55 14.146c-.092.269.05.56.32.655a.508.508 0 0 0 .395-.016.525.525 0 0 0 .271-.297l.824-2.446a.413.413 0 0 1 .535-.235.416.416 0 0 1 .252.49l-.375 1.166-.754 2.795h.49c.227 0 .412.185.415.41l.02 3.831a.518.518 0 1 0 1.036 0l-.02-3.83c0-.226.183-.41.41-.414h1.313c.227 0 .412.185.415.412l-.017 3.832c0 .288.232.524.518.524a.52.52 0 0 0 .518-.524l.02-3.832a.414.414 0 0 1 .415-.409h.492l-.764-2.812-.373-1.152a.409.409 0 0 1 .266-.515.415.415 0 0 1 .521.263l.827 2.449a.52.52 0 0 0 .658.31.508.508 0 0 0 .297-.257Zm.74.364c.162-.325.187-.69.07-1.037l-1.592-4.473a.966.966 0 0 0-.07-.174 2.732 2.732 0 0 0-2.515-1.652h-2.18a2.73 2.73 0 0 0-2.506 1.633 1.334 1.334 0 0 0-.076.182L6.761 13.87c-.118.338-.093.714.07 1.033.154.314.425.555.759.667.235.084.487.1.73.047l-.251.936a.413.413 0 0 0 .398.518h.621l.017 3.42c0 .743.602 1.348 1.345 1.348.742 0 1.344-.605 1.344-1.35l-.017-3.418h.48l-.017 3.42a1.35 1.35 0 0 0 1.347 1.348c.742 0 1.347-.605 1.347-1.345l.017-3.42h.622a.411.411 0 0 0 .4-.518l-.252-.936c.241.056.493.04.726-.045a1.32 1.32 0 0 0 .767-.67Z" fill="#313235"/></svg>