<svg width="24" height="24" viewBox="0 0 24 24" fill="none" xmlns="http://www.w3.org/2000/svg">
<path d="M3.67506 10.2885V10.2661C3.68067 9.87118 3.86834 9.48743 4.23529 9.12328L9.2605 4.07567L9.2773 4.05886C9.62464 3.73953 9.98599 3.61908 10.3557 3.69751C10.6919 3.77034 10.9608 4.00004 11.1793 4.21852L11.1933 4.23253L16.0056 9.34737L18.5854 6.76754L18.5938 6.75914C18.9244 6.44261 19.4874 6.35017 19.9328 6.54065C20.3473 6.71712 20.5938 7.10648 20.5938 7.57987V19.6695C20.6134 19.9496 20.5238 20.2017 20.3389 20.3866C20.1541 20.5715 19.8991 20.6611 19.6218 20.6387L7.47618 20.6331C7.06162 20.6443 6.68347 20.4006 6.521 20.0196C6.31652 19.5631 6.40896 18.9692 6.73669 18.6135L6.75069 18.5967L9.12884 16.2185L4.22408 11.4286L4.21848 11.423C3.85714 11.0701 3.67506 10.6863 3.67506 10.2885Z" fill="#313235"/>
</svg>
