<svg width="24" height="24" viewBox="0 0 24 24" fill="none" xmlns="http://www.w3.org/2000/svg">
<path fill-rule="evenodd" clip-rule="evenodd" d="M6.2381 7.10507C7.20169 5.82776 8.94678 4.51404 12.0644 4.51404C13.0616 4.51404 13.8151 5.28155 13.8151 6.22272V17.6709C13.8151 18.6093 13.0672 19.3712 12.1457 19.3712C8.93838 19.3712 7.18208 18.0659 6.2241 16.7885L3.06443 16.7913C2.4846 16.7913 2.01121 16.3124 2.01121 15.7213L2.00281 8.1807C2.00281 7.89779 2.11205 7.62608 2.31093 7.4244C2.50701 7.22272 2.77592 7.10788 3.05603 7.10788L6.2381 7.10507ZM18.9384 5.44121C18.507 5.04905 17.8459 5.08547 17.4566 5.51964C17.0644 5.95662 17.098 6.63449 17.5238 7.03225C17.6078 7.11068 19.5406 8.95381 19.577 12.1443C19.5798 12.1751 19.6863 15.3544 17.5686 17.2815C17.1345 17.6765 17.098 18.3544 17.4846 18.797C17.6919 19.0322 17.9804 19.1555 18.2717 19.1555C18.521 19.1555 18.7731 19.0659 18.9748 18.881C21.8291 16.2843 21.6919 12.2227 21.6835 12.0855C21.6387 7.95942 19.0476 5.54205 18.9384 5.44121ZM18.1093 12.1191C18.0812 9.33757 16.3193 7.69611 16.2437 7.62888C15.8095 7.23393 15.1429 7.27034 14.7563 7.71012C14.3642 8.15269 14.4034 8.83056 14.8347 9.22552C14.8487 9.23673 15.9832 10.3236 16.0028 12.1779C16.0056 12.1947 16.0476 14.0378 14.8628 15.1163C14.4286 15.5112 14.3922 16.1891 14.7787 16.6317C14.986 16.8698 15.2745 16.9902 15.5658 16.9902C15.8151 16.9902 16.0672 16.9006 16.2689 16.7157C18.2069 14.9514 18.1121 12.2015 18.1093 12.1191V12.1191Z" fill="#313235"/>
</svg>
