<svg width="24" height="24" viewBox="0 0 24 24" fill="none" xmlns="http://www.w3.org/2000/svg">
<path fill-rule="evenodd" clip-rule="evenodd" d="M0 12.0034C0 3.82812 4.41548 0 11.9966 0C19.5777 0 24 3.82812 24 12.0034C24 20.1787 19.5777 24 11.9966 24C4.41548 24 0 20.1787 0 12.0034ZM11.9966 2.00114C14.8924 2.00114 17.1429 2.60899 18.7718 3.83495L3.8008 18.8059C2.59192 17.1838 2.00114 14.93 2.00114 12.0034C2.00114 5.18042 5.17701 2.00114 11.9966 2.00114ZM11.9966 21.9989C9.08366 21.9989 6.84007 21.4115 5.21799 20.2163L20.1821 5.25555C21.3944 6.88446 21.9989 9.12464 21.9989 12.0034C21.9989 18.823 18.8196 21.9989 11.9966 21.9989Z" fill="#313235"/>
</svg>
