<svg width="24" height="24" viewBox="0 0 24 24" fill="none" xmlns="http://www.w3.org/2000/svg">
<path fill-rule="evenodd" clip-rule="evenodd" d="M12.2549 2.0112C14.182 2.05602 21.6862 2.81793 21.6862 11.8711C21.6862 20.9411 14.1736 21.647 12.2941 21.6806C12.1176 21.6862 11.9159 21.6862 11.7143 21.6862C11.6078 21.6862 11.4986 21.6862 11.3949 21.6834C9.41735 21.6554 2.0028 20.9411 2.0028 11.8123C2.0028 2.69748 9.35012 2.01961 11.3249 2.0028C11.354 2.0028 11.3824 2.00212 11.4111 2.00143L11.4111 2.00142L11.4111 2.00142C11.4405 2.00072 11.4702 2 11.5014 2C11.7563 2 12.0252 2.0056 12.2549 2.0112ZM17.1092 13.2801H13.8879C13.7255 13.2801 13.5686 13.3445 13.451 13.4622C13.3361 13.577 13.2717 13.7339 13.2717 13.8963L13.2801 17.1148C13.2801 17.2661 13.1764 17.3669 13.1428 17.3725H10.5686C10.5322 17.3641 10.4286 17.2661 10.4286 17.1148V13.8935C10.4286 13.5546 10.154 13.2773 9.81231 13.2773H6.59103C6.43416 13.2773 6.33613 13.1736 6.33052 13.14V10.5742C6.33893 10.5378 6.43697 10.4342 6.59103 10.4342H9.81231C10.1512 10.4342 10.4286 10.1596 10.4286 9.81791V6.59663C10.4286 6.45657 10.5294 6.34173 10.5658 6.33052L13.1232 6.32772C13.168 6.34173 13.2717 6.45657 13.2717 6.59663V9.81511C13.2717 10.154 13.5462 10.4314 13.8879 10.4314H17.1092C17.2437 10.4314 17.3585 10.5294 17.3753 10.577L17.3781 13.1316C17.3641 13.1764 17.2493 13.2801 17.1092 13.2801ZM14.5014 9.20167H17.1092C17.9075 9.20167 18.6078 9.84032 18.6078 10.5686V13.1456C18.6078 13.8739 17.9075 14.5126 17.1092 14.5126H14.5042L14.5098 17.1148C14.5098 17.9243 13.8851 18.605 13.1428 18.605H10.5658C9.82631 18.605 9.19886 17.9243 9.19886 17.1176V14.5126H6.59383C5.78431 14.5126 5.10363 13.8851 5.10363 13.1456V10.577C5.10363 9.83472 5.78431 9.21007 6.59383 9.21007H9.19886V6.60503C9.19886 5.79551 9.82351 5.10924 10.5658 5.10924H13.1344C13.8627 5.10924 14.5014 5.80671 14.5014 6.60503V9.20167Z" fill="#313235"/>
</svg>
