<svg width="24" height="24" viewBox="0 0 24 24" fill="none" xmlns="http://www.w3.org/2000/svg">
<path d="M20.2773 8.57141L15.1092 8.57422L15.1064 3.41176C15.1064 2.67507 14.5322 2.0028 13.9019 2.0028L9.77309 2C9.14284 2 8.56861 2.67227 8.56861 3.40896L8.57141 8.57422L3.40896 8.57702C2.65826 8.57702 2 9.14004 2 9.7815V13.9103C2 14.5518 2.65826 15.1148 3.40896 15.1148L8.57702 15.112L8.57982 20.2745C8.57982 21.0252 9.14284 21.6834 9.7843 21.6834H13.9131C14.5546 21.6834 15.1176 21.0252 15.1176 20.2745L15.1148 15.1064L20.2773 15.1036C21.014 15.1036 21.6862 14.5294 21.6862 13.8991V9.77029C21.6862 9.14284 21.014 8.57141 20.2773 8.57141Z" fill="#313235"/>
</svg>
