<svg width="24" height="24" viewBox="0 0 24 24" fill="none" xmlns="http://www.w3.org/2000/svg">
<path fill-rule="evenodd" clip-rule="evenodd" d="M19.0294 7.37534C19.1946 7.5378 19.2899 7.76469 19.2899 7.99719V20.3053C19.2899 21.0532 18.6568 21.6862 17.9061 21.6862H5.90896C5.17226 21.6862 4.52521 21.042 4.52521 20.3053V3.38095C4.52521 2.65826 5.18347 2 5.90896 2H13.2115C13.4384 2 13.6512 2.08683 13.8137 2.2465L19.0294 7.37534ZM17.6008 7.65545L17.598 7.65265H17.6008V7.65545ZM17.598 7.65265H15.8193C15.1358 7.65265 14.5588 7.44257 14.1526 7.04201C13.7493 6.64705 13.5364 6.08963 13.5364 5.43137V3.65826L17.598 7.65265ZM8.06582 13.493C7.91456 13.493 7.76049 13.4341 7.64565 13.3165C7.41316 13.0812 7.41316 12.6975 7.64565 12.4622L8.42436 11.6694L7.64565 10.8767C7.41316 10.6414 7.41316 10.2577 7.64565 10.0224C7.87814 9.7871 8.25349 9.7871 8.48598 10.0224L9.26469 10.8151L10.0434 10.0224C10.2759 9.7871 10.6512 9.7871 10.8837 10.0224C11.1162 10.2577 11.1162 10.6414 10.8837 10.8767L10.105 11.6694L10.8837 12.4622C11.1162 12.6975 11.1162 13.0812 10.8837 13.3165C10.7661 13.4341 10.6148 13.493 10.4636 13.493C10.3123 13.493 10.161 13.4341 10.0434 13.3165L9.26469 12.5238L8.48598 13.3165C8.37114 13.4341 8.21988 13.493 8.06582 13.493ZM16.3011 10.0224C16.0686 9.7871 15.6933 9.7871 15.4608 10.0224L14.682 10.8151L13.9033 10.0224C13.6708 9.7871 13.2955 9.7871 13.063 10.0224C12.8305 10.2577 12.8305 10.6414 13.063 10.8767L13.8417 11.6694L13.063 12.4622C12.8305 12.6975 12.8305 13.0812 13.063 13.3165C13.1807 13.4341 13.3319 13.493 13.4832 13.493C13.6372 13.493 13.7885 13.4341 13.9033 13.3165L14.682 12.5238L15.4608 13.3165C15.5784 13.4341 15.7297 13.493 15.8809 13.493C16.0322 13.493 16.1862 13.4341 16.3011 13.3165C16.5336 13.0812 16.5336 12.6975 16.3011 12.4622L15.5224 11.6694L16.3011 10.8767C16.5308 10.6414 16.5308 10.2577 16.3011 10.0224ZM14.1302 14.8879H14.2591C15.1162 14.9075 15.9846 15.479 15.9818 16.7115C15.9818 17.0448 15.7157 17.3165 15.3879 17.3165C15.0602 17.3165 14.7941 17.0448 14.7941 16.7115C14.7941 16.5322 14.7941 16.112 14.2311 16.098H14.1442C13.598 16.1008 13.598 16.5238 13.598 16.7031C13.598 17.9636 12.7353 18.5266 11.8781 18.5322H11.7493C10.8893 18.5126 10.0238 17.9411 10.0238 16.7115C10.0238 16.5322 10.0238 16.112 9.46077 16.098H9.37394C8.82492 16.1008 8.82492 16.5238 8.82492 16.7031C8.82492 17.0364 8.55881 17.3081 8.23108 17.3081C7.90335 17.3081 7.63725 17.0364 7.63725 16.7031C7.63725 15.4566 8.49999 14.8935 9.35713 14.8879H9.48598C10.3459 14.9075 11.2115 15.479 11.2115 16.7087C11.2115 16.8879 11.2115 17.3081 11.7745 17.3221H11.8613C12.4103 17.3193 12.4103 16.8963 12.4103 16.7171C12.4103 15.4566 13.2731 14.8935 14.1302 14.8879Z" fill="#313235"/>
</svg>
