<svg width="24" height="24" viewBox="0 0 24 24" fill="none" xmlns="http://www.w3.org/2000/svg">
<path fill-rule="evenodd" clip-rule="evenodd" d="M20.2549 19.2899H3.43137C2.64146 19.2899 2 18.6204 2 17.7997V6.01254C2 5.19181 2.64146 4.52515 3.43137 4.52515H20.2577C21.0476 4.52515 21.6891 5.19181 21.6891 6.01254V17.7997C21.6863 18.6204 21.0448 19.2899 20.2549 19.2899ZM10.8627 14.3039C11.1961 14.3039 11.465 14.0237 11.465 13.6764C11.465 13.3291 11.1933 13.049 10.8627 13.049H4.62185C4.28852 13.049 4.01961 13.3291 4.01961 13.6764C4.01961 14.0237 4.29132 14.3039 4.62185 14.3039H10.8627ZM9.46218 10.3263C9.46218 10.6736 9.19048 10.9537 8.85714 10.9537H4.62185C4.28852 10.9537 4.01681 10.6736 4.01681 10.3263C4.01681 9.97893 4.28852 9.69882 4.62185 9.69882H8.85714C9.19048 9.69882 9.46218 9.97893 9.46218 10.3263ZM16.1148 8.08257C15.5462 8.08257 15.1008 8.23943 14.7955 8.54756C14.4762 8.86688 14.3165 9.34307 14.3165 9.95932C14.3165 10.5756 14.4762 11.049 14.7955 11.3683C15.1008 11.6764 15.5462 11.8305 16.1148 11.8305C16.6863 11.8305 17.1289 11.6736 17.437 11.3683C17.7563 11.049 17.9188 10.5728 17.9188 9.95652C17.9188 9.34027 17.7563 8.86688 17.437 8.54475C17.1289 8.23663 16.6863 8.08257 16.1148 8.08257ZM15.0168 12.6512H17.2157C17.8824 12.6512 18.4286 12.8641 18.8011 13.2618C19.1401 13.6288 19.3193 14.1386 19.3193 14.7352V15.3599C19.3193 15.4775 19.2269 15.5728 19.1148 15.5728H13.1233C13.0112 15.5728 12.9188 15.4775 12.9188 15.3599V14.7352C12.9188 14.1386 13.0952 13.6288 13.4342 13.2618C13.8011 12.8641 14.3501 12.6512 15.0168 12.6512Z" fill="#313235"/>
</svg>
