<svg width="24" height="24" viewBox="0 0 24 24" fill="none" xmlns="http://www.w3.org/2000/svg">
<path fill-rule="evenodd" clip-rule="evenodd" d="M2.15997 12.0058C2.15997 5.56327 5.56333 2.15991 12.0003 2.15991C18.4429 2.15991 21.8462 5.56327 21.8462 12.0058C21.8462 18.4428 18.4401 21.8462 12.0003 21.8462C5.56333 21.8462 2.15997 18.4428 2.15997 12.0058ZM12.6502 7.83217C12.6502 8.16551 12.3812 8.43721 12.0451 8.43721C11.709 8.43721 11.4401 8.16831 11.4401 7.83217V4.80697C11.4401 4.47363 11.709 4.20193 12.0451 4.20193C12.3812 4.20193 12.6502 4.47083 12.6502 4.80697V7.83217ZM16.1768 12.6501H19.1992C19.5325 12.6501 19.8042 12.3812 19.8042 12.0451C19.8042 11.7089 19.5325 11.44 19.1992 11.44H16.1768C15.8406 11.44 15.5717 11.7089 15.5717 12.0451C15.5717 12.3812 15.8434 12.6501 16.1768 12.6501ZM16.6361 17.552C16.8714 17.7873 17.2524 17.7845 17.4877 17.5492C17.7258 17.3112 17.7258 16.9302 17.4877 16.6921L15.3504 14.5549C15.1151 14.3196 14.7314 14.3196 14.4961 14.5549C14.2608 14.7901 14.2608 15.1739 14.4961 15.4092L16.6333 17.5492L16.6361 17.552ZM11.9611 19.8041C12.2972 19.8041 12.5661 19.5324 12.5661 19.1991V16.1739C12.5661 15.8378 12.2972 15.5689 11.9611 15.5689C11.6249 15.5689 11.356 15.8406 11.356 16.1739V19.1991C11.356 19.5352 11.6249 19.8041 11.9611 19.8041ZM9.44848 15.3504L7.31123 17.4904C7.07593 17.7257 6.69218 17.7257 6.45689 17.4904C6.22159 17.2551 6.22159 16.8714 6.45689 16.6361L8.59414 14.4988C8.83503 14.2691 9.21879 14.2803 9.44848 14.5212C9.66977 14.7509 9.66977 15.1179 9.44848 15.3504ZM4.80703 11.356C4.4737 11.356 4.20199 11.6277 4.20199 11.961C4.20199 12.2944 4.4737 12.5661 4.80703 12.5661H7.83223C8.16837 12.5661 8.43727 12.2972 8.43727 11.961C8.43727 11.6249 8.16557 11.356 7.83223 11.356H4.80703ZM14.5577 8.6557L16.695 6.51845C16.9303 6.28316 17.3112 6.28316 17.5493 6.51845C17.7874 6.75374 17.7846 7.1347 17.5493 7.37279L15.4093 9.51004C15.174 9.74534 14.793 9.74534 14.5549 9.51004C14.3224 9.27475 14.3224 8.8938 14.5577 8.6557Z" fill="#313235"/>
</svg>
