<svg width="24" height="24" viewBox="0 0 24 24" fill="none" xmlns="http://www.w3.org/2000/svg">
<path fill-rule="evenodd" clip-rule="evenodd" d="M11.0716 2.1499C11.8923 2.1499 15.9371 2.34038 17.1808 6.01264C19.5057 6.23953 21.8363 7.72692 21.8335 11.3236C21.8335 15.2787 18.9987 16.6849 16.5646 16.6849L15.5898 16.6933L8.81388 21.7549C8.74945 21.8109 8.66262 21.8361 8.58138 21.8361C8.49175 21.8361 8.40211 21.8025 8.32928 21.7465C8.18643 21.6233 8.13601 21.4216 8.21724 21.2479L10.0436 17.0434L6.49735 16.7633C4.11081 16.6205 2.15002 15.57 2.15002 12.2787C2.15002 9.69611 3.52817 8.63168 4.601 8.18911C4.79428 2.44122 10.0072 2.1499 11.0716 2.1499ZM9.57298 20.1667L15.8979 15.2703C15.9931 15.1639 16.0352 15.0042 15.9931 14.8614C15.9539 14.7185 15.8391 14.6065 15.6934 14.57C15.6934 14.57 12.6654 13.9678 12.6318 13.8642C12.5898 13.7325 14.4105 9.15269 14.4105 9.15269C14.4749 8.97062 14.4105 8.75213 14.2424 8.64569C14.0772 8.54485 13.8643 8.57566 13.7354 8.72132L7.79707 15.3123C7.69623 15.4216 7.66262 15.5756 7.70744 15.7185C7.74665 15.8586 7.8559 15.965 7.99595 16.0014C7.99595 16.0014 10.9903 16.6653 11.0576 16.7073C11.0785 16.7225 11.0632 16.752 11.046 16.7852C11.0379 16.8008 11.0293 16.8172 11.024 16.8333L9.57298 20.1667Z" fill="#313235"/>
</svg>
