<svg width="24" height="24" viewBox="0 0 24 24" fill="none" xmlns="http://www.w3.org/2000/svg">
<path fill-rule="evenodd" clip-rule="evenodd" d="M2.14999 11.9958C2.14999 5.55326 5.55335 2.1499 11.9903 2.1499C18.4329 2.1499 21.8362 5.55326 21.8362 11.9958C21.8362 18.4328 18.4329 21.8361 11.9903 21.8361C5.55335 21.8361 2.14999 18.4328 2.14999 11.9958ZM18.727 16.5532C18.6542 16.6793 18.5225 16.7577 18.3769 16.7577H17.9427C17.8026 16.7577 17.671 16.6821 17.5981 16.5616L15.0127 12.2367L13.9847 13.5224V16.3544C13.9847 16.5756 13.8054 16.7577 13.5813 16.7577H13.1976C12.9763 16.7577 12.7942 16.5784 12.7942 16.3544V7.62608C12.7942 7.40479 12.9735 7.22272 13.1976 7.22272H13.5813C13.8026 7.22272 13.9847 7.40199 13.9847 7.62608V11.6905L17.4133 7.37398C17.4889 7.27874 17.6065 7.22272 17.7298 7.22272H18.1752C18.3292 7.22272 18.4693 7.31236 18.5365 7.44961C18.6037 7.58967 18.5841 7.75493 18.4889 7.87538L15.7942 11.2787L18.7242 16.1443C18.797 16.2731 18.7998 16.4272 18.727 16.5532ZM11.9987 8.06306C11.9567 8.24793 11.7942 8.37678 11.6066 8.37678H9.22841V16.3572C9.22841 16.5784 9.04914 16.7605 8.82505 16.7605H8.4441C8.22001 16.7605 8.04074 16.5812 8.04074 16.3572V8.37678H5.60937C5.38808 8.37678 5.20601 8.19751 5.20601 7.97342V7.62888C5.20601 7.4076 5.38528 7.22552 5.60937 7.22552H11.6822C11.8026 7.22552 11.9203 7.28154 11.9959 7.37678C12.0715 7.47202 12.1024 7.59527 12.0743 7.71572L11.9987 8.06306Z" fill="#313235"/>
</svg>
