<svg width="24" height="24" viewBox="0 0 24 24" xmlns="http://www.w3.org/2000/svg"><path d="M13.556 14.966c-.37.255-.767.505-1.188.757a22.33 22.33 0 01-1.185-.757h2.373zm-3.762-1.243a2.986 2.986 0 01-.577-1.244h6.305a3.038 3.038 0 01-.577 1.244h-5.15zm1.35-4.975c.381-.263.79-.524 1.224-.784.435.26.846.518 1.227.784h-2.45zm3.824 1.244c.277.367.465.778.557 1.243h-6.31c.092-.465.28-.876.557-1.243h5.196zm1.913 1.851c0-2.263-1.613-3.554-3.303-4.61 1.69-1.057 3.303-2.348 3.303-4.611A.634.634 0 0016.237 2a.633.633 0 00-.645.622c0 1.84-1.459 2.823-3.22 3.877C10.608 5.443 9.15 4.462 9.15 2.622A.634.634 0 008.506 2a.633.633 0 00-.645.622c0 2.263 1.614 3.554 3.303 4.61-1.69 1.057-3.303 2.35-3.303 4.611 0 1.165.429 2.07 1.07 2.82.04.062.09.116.149.16.588.634 1.325 1.157 2.081 1.628-1.689 1.056-3.302 2.347-3.302 4.61 0 .342.288.622.644.622a.633.633 0 00.644-.621c0-1.84 1.462-2.821 3.221-3.877 1.762 1.056 3.222 2.04 3.222 3.877 0 .341.288.621.644.621a.633.633 0 00.644-.621c0-2.264-1.613-3.555-3.302-4.611 1.692-1.053 3.305-2.345 3.305-4.608z" fill="#313235" fill-rule="nonzero"/></svg>