<svg width="18" height="18" viewBox="0 0 18 18" xmlns="http://www.w3.org/2000/svg"><path d="M14.996.25a1.748 1.748 0 011.582.985l.04.102.938 2.968c.128.41.194.837.194 1.267V16A1.75 1.75 0 0116 17.75H2A1.75 1.75 0 01.25 16V5.571c0-.43.066-.856.195-1.266l.862-2.731A1.75 1.75 0 012.997.25zm1.254 5.538h-4.5V8a.75.75 0 01-.648.743L11 8.75H7a.75.75 0 01-.743-.648L6.25 8V5.788h-4.5V16a.25.25 0 00.193.243L2 16.25h14a.25.25 0 00.25-.25V5.788zm-6 0h-2.5V7.25h2.5V5.788zM6.698 1.75H3.003c-.114 0-.213.078-.254.233l-.727 2.305h4.325l.351-2.538zm3.069 0H8.212L7.86 4.288h2.277l-.37-2.538zm5.233 0h-3.717l.371 2.538h4.323l-.767-2.426-.012-.02a.249.249 0 00-.14-.086L15 1.75z" fill="#313235" fill-rule="nonzero"/></svg>