<svg width="21" height="18" viewBox="0 0 21 18" xmlns="http://www.w3.org/2000/svg"><path d="M19.243 15.504a.75.75 0 01.102 1.493l-.102.007H1.3a.75.75 0 01-.101-1.493l.101-.007h17.943zM16.22.5c2.1 0 3.802 1.702 3.802 3.801v5.897c0 2.1-1.702 3.802-3.802 3.802H4.302A3.802 3.802 0 01.5 10.198V4.301c0-2.099 1.702-3.8 3.802-3.8zm0 1.5H4.302A2.301 2.301 0 002 4.301v5.897A2.302 2.302 0 004.302 12.5h11.917a2.302 2.302 0 002.302-2.302V4.301c0-1.27-1.03-2.3-2.302-2.3z" fill="#313235" fill-rule="nonzero"/></svg>