<svg width="24" height="24" viewBox="0 0 24 24" xmlns="http://www.w3.org/2000/svg"><path d="M16.639 6.263c.117 0 .215.098.215.14l-.266 2.264h-1.605l-2.53 10.515a.62.62 0 01-.607.482c-.05 0-.093-.008-.143-.017a.621.621 0 01-.465-.745l2.457-10.235H5.19l-.257-2.188c0-.115.092-.216.215-.216h9.13l-.583 2.404h1.288l.574-2.404h1.082zm-6.591 11.222c-.166.165-.325.224-.465.224a.635.635 0 01-.435-.2l-.042-.041c-.092-.093-.409-.482.026-.91.165-.166.325-.216.456-.216.224 0 .392.14.448.19l.042.042c.096.09.412.47-.03.91zm-2.023-3.589c-.392 0-.692-.249-.79-.347-.025-.025-.059-.059-.075-.084-.157-.165-.731-.863.05-1.633.291-.3.583-.398.832-.398.4 0 .7.258.798.348.026.025.05.05.076.084.165.165.723.846-.05 1.624-.306.306-.597.406-.84.406zm11.742-9.77L16.09 2.08a.611.611 0 00-.55-.026.6.6 0 00-.358.423l-.608 2.544H5.146c-.807 0-1.465.655-1.465 1.532l.249 2.112.148 1.244 1.233 10.316c0 .804.655 1.46 1.465 1.46h8.23c.806 0 1.456-.656 1.456-1.384l1.233-10.392.148-1.244.258-2.188c0-.804-.658-1.46-1.465-1.46h-.782l.348-1.45 2.955 1.641c.3.174.675.068.849-.24a.615.615 0 00-.239-.84z" fill="#313235" fill-rule="nonzero"/></svg>