<svg width="24" height="24" viewBox="0 0 24 24" xmlns="http://www.w3.org/2000/svg"><path d="M19.936 9.975c-.25.246-2.942 2.647-7.381 6.58l-.19.154-3.418 1.255c-.053.014-.325.112-.48-.042-.15-.155-.047-.407-.03-.457l1.244-3.347a.635.635 0 01.168-.25c2.482-2.193 7.073-6.26 7.397-6.585a1.852 1.852 0 011.328-.569c.516 0 1.014.216 1.367.569.359.358.572.874.569 1.375 0 .493-.2.947-.574 1.317m1.778-1.311a3.218 3.218 0 00-.921-2.233 3.2 3.2 0 00-1.673-.862C18.885 3.36 17.378 2 15.076 2H6.118C3.594 2 2.025 3.6 2.025 6.176V17.56c0 1.23.345 2.224 1.031 2.953.728.778 1.756 1.173 3.062 1.173h8.958c1.302 0 2.336-.395 3.064-1.173.684-.729 1.028-1.723 1.028-2.953V12.29a79.742 79.742 0 001.61-1.457c.611-.6.933-1.35.936-2.168" fill="#313235" fill-rule="nonzero"/></svg>