<svg width="20" height="24" viewBox="0 0 20 24" xmlns="http://www.w3.org/2000/svg"><path d="M15.087 16.422c-1.43 0-2.635-.396-3.6-1.188-2.102-1.728-2.239-4.682-2.246-4.808a.502.502 0 01.475-.52.5.5 0 01.511.478c0 .027.13 2.636 1.886 4.075 1.065.87 2.54 1.153 4.37.833a.501.501 0 01.209.98c-.014.004-.027.004-.038.007a9.297 9.297 0 01-1.567.143M12.6 21.418a.454.454 0 01-.133-.02c-3.107-.875-5.924-3.15-7.348-5.932-1.117-2.185-1.301-4.498-.527-6.694C5.41 6.294 8.105 4.74 10.84 5.17c2.804.437 4.986 2.865 4.962 5.528a.497.497 0 01-.493.5h-.002a.496.496 0 01-.488-.506c.016-2.179-1.796-4.173-4.125-4.535-2.271-.349-4.495.912-5.164 2.94-.682 1.936-.518 3.975.472 5.908 1.298 2.548 3.879 4.63 6.73 5.433a.497.497 0 01.34.614.492.492 0 01-.47.366M11.785 24a.445.445 0 01-.117-.014c-1.931-.475-3.915-1.51-5.589-2.92C2.357 17.928-.62 10.65 2.976 5.932c2.004-2.63 5.566-3.88 8.847-3.112.013 0 5.084.792 6.487 6.684.017.058.53 1.911-.423 3.213-.564.764-1.485 1.158-2.739 1.171.021.003-.863.11-1.686-.56-.745-.601-1.189-1.615-1.321-3.008-.048-.492-.25-.881-.601-1.158-.465-.359-1.175-.498-1.907-.372-.22.02-1.823.222-1.963 2.055-.163 2.146 1.496 5.789 5.57 6.793a.5.5 0 01-.232.969c-4.624-1.147-6.501-5.358-6.314-7.843.164-2.183 1.919-2.9 2.824-2.97.966-.172 1.936.037 2.626.569.57.444.911 1.082.983 1.854.102 1.09.427 1.889.94 2.312a1.48 1.48 0 001.023.355c.983-.013 1.643-.27 2.012-.772.655-.89.266-2.346.263-2.358-1.257-5.264-5.672-5.952-5.716-5.956-2.968-.69-6.116.409-7.889 2.738-3.192 4.19-.38 10.948 2.954 13.765 1.557 1.311 3.401 2.278 5.187 2.715a.502.502 0 01.365.601.496.496 0 01-.48.383m7.221-18.327a.493.493 0 01-.406-.216c-1.233-1.816-3.254-3.309-5.41-3.988-3.212-1.022-6.705-.36-9.57 1.816a15.9 15.9 0 00-2.26 2.111.49.49 0 01-.687.047l-.01-.01a.504.504 0 01-.037-.707 16.958 16.958 0 012.4-2.243C6.15.117 9.965-.6 13.485.513c2.36.747 4.573 2.382 5.928 4.373a.507.507 0 01-.126.697.493.493 0 01-.28.09" fill="#313235" fill-rule="nonzero"/></svg>