<svg width="24" height="24" viewBox="0 0 24 24" xmlns="http://www.w3.org/2000/svg"><path d="M8.955 8.6a.802.802 0 110-1.603.802.802 0 110 1.602zm.006 2.478a.802.802 0 110 1.603.802.802 0 110-1.603zm2.725-2.627a.604.604 0 01-.605-.602c0-.334.272-.603.605-.603h5.563a.604.604 0 110 1.204l-5.563.001zm5.645 2.826a.604.604 0 110 1.204h-5.563a.604.604 0 01-.606-.601c0-.334.272-.603.606-.603h5.563zM8.96 15.09a.802.802 0 110 1.602.802.802 0 110-1.602zm8.37.199c.333 0 .605.268.605.602a.604.604 0 01-.605.602h-5.563a.604.604 0 01-.606-.602c0-.334.272-.602.606-.602h5.563zm1.582 4.806V3.591c0-.193-.145-.367-.207-.39L6.75 3.205a.545.545 0 00-.185.387v16.504c0 .205.131.364.19.387h11.975c.045-.014.182-.168.182-.387zM18.731 2c.728 0 1.392.76 1.392 1.591v16.504c0 .863-.638 1.591-1.392 1.591H6.751c-.757 0-1.392-.728-1.392-1.59V3.59C5.359 2.759 6.022 2 6.75 2h11.98z" fill="#313235" fill-rule="nonzero"/></svg>