<svg width="24" height="24" viewBox="0 0 24 24" xmlns="http://www.w3.org/2000/svg"><path d="M17.24 18.748l-.663-3.868 1.863-.93 1.742 6.092-2.941-1.294zm-4.761 1.47l.014-2.028c.476-.532 1.493-1.773 2.521-3.305l.364.118.647 3.792-3.546 1.423zm-.574-11.232c-.891 0-1.306-.415-1.306-1.305 0-.891.415-1.306 1.306-1.306.89 0 1.305.415 1.305 1.306.003.888-.412 1.305-1.305 1.305zm-.633 11.25L7.728 18.78l.437-3.829.516-.15c1.02 1.557 2.05 2.842 2.605 3.439l-.014 1.994zm-4.754-1.471L3.6 20.034l1.908-6.056 1.468.829-.457 3.958zm15.174 2.179l-2.294-8.025a.601.601 0 00-.849-.376l-2.695 1.345-.168-.053c1.166-1.902 2.174-4.06 2.18-5.815.01-3.743-2.216-5.984-5.958-5.995h-.028c-3.726 0-5.956 2.227-5.97 5.961-.005 1.686.964 3.83 2.107 5.748l-.322.092-2.244-1.269a.599.599 0 00-.871.342l-2.527 8.025a.605.605 0 00.815.737l4.23-1.838 4.429 1.816a.477.477 0 00.09.028l.111.025c.12.03.247.02.364-.025l4.605-1.844 4.169 1.838a.613.613 0 00.641-.098.598.598 0 00.185-.62z" fill="#313235" fill-rule="nonzero"/></svg>