<svg width="24" height="24" viewBox="0 0 24 24" xmlns="http://www.w3.org/2000/svg"><path d="M16.238 2c1.11 0 1.919.269 2.473.826.552.555.818 1.362.818 2.463v13.109c0 1.115-.268 1.927-.826 2.479-.552.546-1.358.812-2.465.812H9.683c-1.106 0-1.913-.266-2.465-.812-.554-.552-.826-1.364-.826-2.48v-3.562c-1.288-.09-2.314-.493-3.05-1.202-.874-.843-1.317-2.09-1.317-3.709 0-1.619.443-2.865 1.317-3.708.736-.712 1.764-1.112 3.056-1.202.042-.947.31-1.658.818-2.17C7.779 2.276 8.586 2 9.683 2zm-3.272 15.129c-.697 0-1.112.417-1.112 1.115 0 .339.093.61.289.81.196.198.479.305.82.305.342 0 .625-.107.821-.306.19-.199.289-.47.294-.81 0-.697-.414-1.114-1.112-1.114zM6.956 6.118c-1.256 0-2.21.305-2.836.907-.647.622-.974 1.6-.974 2.902 0 1.303.327 2.28.974 2.902.625.602 1.58.908 2.835.908s2.21-.306 2.835-.908c.647-.622.975-1.6.975-2.902s-.328-2.28-.975-2.902c-.625-.602-1.58-.907-2.835-.907zm-.28 6.039a.46.46 0 110 0zm0-5.317c.655 0 1.215.233 1.573.656.311.367.437.843.362 1.344-.11.673-.577 1.084-.776 1.26-.079.07-.163.138-.244.205-.14.115-.507.412-.51.519v.51a.403.403 0 01-.807 0v-.513c0-.485.43-.832.804-1.14.076-.062.154-.126.222-.185.148-.13.45-.398.515-.785a.828.828 0 00-.176-.694c-.205-.241-.547-.373-.961-.373-.347 0-.639.11-.838.322-.19.202-.294.488-.294.81v.11a.403.403 0 01-.807 0v-.11c0-.527.183-1.011.513-1.361.356-.376.849-.575 1.423-.575z" fill="#313235" fill-rule="nonzero"/></svg>