<svg width="24" height="24" viewBox="0 0 24 24" xmlns="http://www.w3.org/2000/svg"><path d="M18.674 19.403c.748 0 1.331-.193 1.729-.58.398-.386.619-1.016.619-1.778V9.258c0-.191-.165-.342-.586-.536-.319-.148-1.378-.666-2.495-1.218-1.866-.919-4.188-2.062-5.636-2.74-.502-.235-.99-.168-1.266.18a.986.986 0 00-.219.624c0 .25.09.499.255.704.207.26.521.504 1.048.812.316.185.47.56.372.916a.823.823 0 01-.793.6H4.327c-1.21.078-1.347.786-1.347 1.316 0 .863.462 1.32 1.339 1.32H7.22c.45 0 .818.36.82.811a.823.823 0 01-.03.219c-.04.137-.06.294-.06.465 0 .627.256 1.02.76 1.162a.819.819 0 01.554 1.04 1.642 1.642 0 00-.075.52c0 .63.258 1.023.767 1.166a.82.82 0 01.505.4.806.806 0 01.056.64 1.624 1.624 0 00-.076.517c0 .813.417 1.224 1.24 1.224l6.992.003zM9.616 18.18c0-.283.039-.543.117-.773-.857-.238-1.367-.941-1.367-1.947 0-.283.042-.543.118-.776-.849-.24-1.353-.94-1.353-1.944 0-.246.03-.476.09-.683H4.316c-1.33-.003-2.16-.82-2.16-2.137 0-1.267.77-2.042 2.118-2.13h.042l7.386-.002c-.577-.339-.98-.644-1.271-1.008a1.934 1.934 0 01-.432-1.208c0-.403.132-.804.398-1.131.521-.65 1.41-.81 2.263-.41 1.449.681 3.776 1.827 5.648 2.746 1.165.574 2.17 1.07 2.476 1.21.316.145 1.061.49 1.061 1.272v7.787c0 .983-.308 1.82-.865 2.361-.555.538-1.33.81-2.3.81h-7c-1.274 0-2.064-.78-2.064-2.037z" fill="#313235" fill-rule="nonzero"/></svg>