<svg width="24" height="24" viewBox="0 0 24 24" xmlns="http://www.w3.org/2000/svg"><path d="M20.429 19.608l-3.222-.53V3.395l3.222.53v15.683zm-9.216.613l-3.289-1.067V3.518l3.289 1.067v15.636zM21.16 2.773l-4.477-.737c-.014-.002-.03.003-.044.003-.02-.003-.037-.011-.06-.011-.041 0-.078.014-.117.022-.022.006-.047-.002-.07.006l-4.546 1.415L7.49 2.056c-.022-.006-.047 0-.073-.006-.039-.008-.078-.025-.12-.025-.02 0-.037.009-.053.009-.014.002-.028-.006-.045-.003l-4.67.737A.627.627 0 002 3.389v16.958a.627.627 0 00.725.62l4.521-.715 4.404 1.431a.633.633 0 00.38 0l4.597-1.43 4.328.713a.634.634 0 00.734-.619V3.392a.634.634 0 00-.53-.619z" fill="#313235" fill-rule="nonzero"/></svg>