<svg width="24" height="24" viewBox="0 0 24 24" xmlns="http://www.w3.org/2000/svg"><path d="M21.022 20.195l-3.762-.619V3.05l3.762.619v16.526zM2.977 3.672l3.958-.625v16.527l-3.958.624V3.672zm9.431.706l4.031-1.255V19.62l-4.03 1.252V4.378zM7.756 3.13l3.834 1.244v16.493l-3.834-1.244V3.131zm13.742-.216l-4.583-.753c-.01-.003-.02.003-.028.003-.014 0-.022-.009-.036-.009-.028 0-.05.011-.076.014-.014.003-.03-.003-.045.003l-4.728 1.47L7.47 2.177c-.014-.006-.03 0-.045-.003-.028-.006-.053-.017-.081-.017-.011 0-.022.006-.036.009l-.029-.003-4.775.753a.41.41 0 00-.348.407v17.355a.41.41 0 00.41.41c.022 0 .041-.004.064-.006l4.68-.737 4.56 1.476a.39.39 0 00.247.003l4.76-1.48 4.487.74a.409.409 0 00.476-.403V3.322a.407.407 0 00-.342-.407z" fill="#313235" fill-rule="nonzero"/></svg>