<svg width="24" height="24" viewBox="0 0 24 24" xmlns="http://www.w3.org/2000/svg"><path d="M9.705 5.73c-.52.51-.784 1.306-.784 2.365 0 1.056.263 1.852.784 2.359.502.493 1.266.742 2.27.742 1.002 0 1.767-.25 2.274-.742.524-.51.787-1.303.787-2.359s-.263-1.851-.787-2.364c-.507-.496-1.272-.745-2.272-.745-1.006 0-1.77.25-2.272.745zm2.27 6.261c-1.214 0-2.16-.325-2.813-.963-.678-.664-1.023-1.65-1.023-2.933 0-1.28.345-2.272 1.023-2.936.655-.644 1.602-.971 2.812-.971 1.21 0 2.16.327 2.818.969.684.666 1.031 1.655 1.031 2.938 0 1.283-.347 2.269-1.03 2.933-.66.641-1.606.963-2.819.963zm-6.71-1.316c-.21.204-.316.549-.316 1.02 0 .47.106.812.314 1.016.201.2.532.3.977.3.449 0 .779-.1.984-.3.21-.204.316-.546.316-1.014 0-.47-.106-.812-.316-1.017-.205-.198-.535-.302-.984-.302-.442-.003-.77.098-.974.297zm.978 3.132c-.655 0-1.168-.177-1.524-.521-.367-.362-.554-.897-.554-1.591 0-.695.187-1.23.554-1.592.356-.347.869-.526 1.524-.526.658 0 1.171.176 1.527.524.37.361.557.899.557 1.59 0 .695-.188 1.23-.557 1.592-.353.347-.869.524-1.527.524zm10.532-3.146c-.21.204-.316.549-.316 1.02 0 .467.106.809.316 1.014.205.198.535.3.984.3.448 0 .775-.102.98-.3.207-.205.314-.547.314-1.015 0-.47-.107-.812-.317-1.02-.202-.198-.532-.299-.977-.299-.449 0-.78.101-.984.3zm-.543 2.61c-.37-.36-.558-.896-.558-1.59 0-.695.188-1.23.558-1.592.356-.35.868-.526 1.527-.526.658 0 1.17.176 1.526.524.367.361.555.899.555 1.593 0 .692-.185 1.227-.555 1.589-.356.347-.868.52-1.526.52-.659.004-1.171-.173-1.527-.517zm4.826 4.342v-.549c0-.566-.165-1.045-.487-1.38-.353-.376-.888-.567-1.546-.567h-1.208c.563.653.894 1.507.967 2.496h2.274zm-3.045 1.362v-.942c0-1.028-.305-1.896-.885-2.512-.636-.67-1.61-1.028-2.818-1.028H9.632c-1.207 0-2.173.358-2.809 1.028-.58.613-.885 1.482-.885 2.512v.942h12.075zM5.17 17.63c.07-.989.395-1.843.958-2.496H4.974c-.658 0-1.193.194-1.546.566-.314.333-.487.812-.487 1.378v.552h2.23zm15.967-2.496c.462.488.706 1.157.706 1.93v.709a.634.634 0 01-.628.639h-2.417v.924c0 .244-.196.44-.44.44H5.593a.442.442 0 01-.44-.44v-.91h-2.36a.638.638 0 01-.637-.642v-.706c0-.773.244-1.442.706-1.938.504-.524 1.233-.804 2.112-.804H7.07c.698-.423 1.57-.639 2.566-.639h4.678c.989 0 1.852.208 2.55.622h2.164c.877.003 1.605.28 2.11.815z" fill="#313235" fill-rule="nonzero"/></svg>