<svg width="14" height="21" viewBox="0 0 14 21" xmlns="http://www.w3.org/2000/svg"><path d="M10.238 0c2.182 0 3.47 1.243 3.47 3.472v13.376c0 2.23-1.288 3.473-3.47 3.473H3.47C1.289 20.321 0 19.077 0 16.848V3.472C0 1.242 1.289 0 3.47 0zm0 1.5H3.47C2.105 1.5 1.5 2.084 1.5 3.472v13.376c0 1.389.606 1.973 1.97 1.973h6.768c1.365 0 1.97-.584 1.97-1.973V3.472c0-1.388-.604-1.972-1.97-1.972zM6.854 14.16c.61 0 1.007.317 1.007 1 0 .328-.092.572-.254.735-.177.18-.436.265-.753.265s-.576-.085-.753-.265c-.162-.163-.254-.407-.254-.735 0-.683.397-1 1.007-1z" fill="#313235" fill-rule="nonzero"/></svg>