<svg width="24" height="24" viewBox="0 0 24 24" xmlns="http://www.w3.org/2000/svg"><path d="M20.905 5.552c0-.546-.423-.997-.967-1.048l-9.285-2.482L10.487 2c-.442 0-.82.266-.983.644a1.046 1.046 0 00-.084.41v8.254c-.622-.46-1.384-.678-2.098-.695-.09-.002-.196-.002-.297-.002-1.543.014-3.344.924-3.344 3.448 0 2.52 1.812 3.442 3.361 3.465h.115c.061 0 .12 0 .17-.003 1.485-.025 3.188-.885 3.334-3.148h.028V5.79l8.952 2.445v7.233c-.621-.46-1.389-.678-2.103-.695l-.292-.003c-1.543.014-3.344.925-3.344 3.448 0 2.521 1.812 3.443 3.361 3.465h.115c.062 0 .12 0 .171-.002 1.549-.028 3.361-.947 3.361-3.449 0-.05-.01-.09-.014-.137h.014V5.552h-.005z" fill="#313235" fill-rule="nonzero"/></svg>