<svg width="24" height="24" viewBox="0 0 24 24" xmlns="http://www.w3.org/2000/svg"><path d="M19.957 19.896c.717-.75 1.076-1.504 1.064-2.235-.014-.703-.372-1.412-1.064-2.104a4.327 4.327 0 00-.874-.69c-.591-.363-1.18-.495-1.77-.397-.605.104-1.205.451-1.787 1.031-.14.14-.272.286-.395.443a.38.38 0 01-.12.1c-.337.188-.872.028-1.634-.495-.877-.603-1.89-1.586-2.577-2.272l-.081-.079c-.686-.686-1.67-1.697-2.272-2.577-.52-.759-.683-1.29-.496-1.63a.4.4 0 01.104-.123 5.12 5.12 0 00.443-.392c.582-.583.93-1.185 1.033-1.787.101-.589-.03-1.18-.392-1.76a4.263 4.263 0 00-.697-.885c-.692-.694-1.4-1.053-2.104-1.064-.712-.017-1.482.345-2.235 1.064a5.567 5.567 0 00-.617.74c-.708 1.022-.672 2.6.073 4.473.815 2.045 2.412 4.289 4.614 6.49l.003.003.07.07c2.207 2.208 4.45 3.801 6.495 4.617 1.86.742 3.46.775 4.44.098.356-.255.605-.463.776-.639zm.58-4.922c.849.846 1.288 1.745 1.305 2.67.017.955-.417 1.902-1.291 2.818a6.31 6.31 0 01-.854.714c-.653.454-1.41.664-2.297.664-.894 0-1.888-.216-2.961-.644-2.146-.852-4.488-2.513-6.765-4.79l-.07-.07-.034-.037c-2.257-2.255-3.915-4.594-4.773-6.742-.851-2.137-.854-3.986-.01-5.207l.058-.079c.073-.103.37-.515.69-.823.918-.874 1.856-1.303 2.82-1.292.921.017 1.82.457 2.67 1.306.335.339.613.689.82 1.045.46.745.63 1.529.496 2.319-.132.773-.558 1.527-1.26 2.23a5.527 5.527 0 01-.362.333c.034.118.129.359.409.767.563.821 1.513 1.796 2.174 2.46l.08.078c.665.664 1.642 1.61 2.46 2.177.412.28.653.378.768.409.109-.13.204-.23.336-.362.703-.706 1.454-1.128 2.23-1.26.792-.132 1.574.033 2.33.504a5.17 5.17 0 011.03.812zm-3.658-11.94c-2.768 0-4.112 1.344-4.112 4.114 0 2.804 1.305 4.112 4.112 4.112 2.767 0 4.114-1.344 4.114-4.112 0-2.77-1.347-4.115-4.114-4.115zm0 9.047c-3.118 0-4.933-1.572-4.933-4.933 0-3.361 1.815-4.936 4.933-4.936 3.117 0 4.935 1.575 4.935 4.936 0 3.359-1.818 4.93-4.935 4.933zm-1.97-2.97a.41.41 0 010-.58l1.387-1.386-1.387-1.386a.41.41 0 01.58-.58l1.387 1.386 1.392-1.392a.41.41 0 01.58.58l-1.392 1.392 1.389 1.392a.41.41 0 01-.58.58l-1.392-1.392-1.384 1.387a.407.407 0 01-.577.002s-.003 0-.003-.002z" fill="#313235" fill-rule="nonzero"/></svg>