<svg width="24" height="24" viewBox="0 0 24 24" xmlns="http://www.w3.org/2000/svg"><path d="M19.493 19.44c.667-.698.997-1.387.986-2.048-.011-.636-.345-1.283-.983-1.921a4.046 4.046 0 00-.818-.645c-.538-.333-1.073-.45-1.6-.364-.549.093-1.1.415-1.644.955a4.708 4.708 0 00-.37.415.647.647 0 01-.176.148c-.409.233-.983.073-1.812-.493-.869-.596-1.874-1.568-2.552-2.249l-.079-.078c-.68-.681-1.655-1.684-2.249-2.552-.566-.826-.725-1.4-.496-1.81a.561.561 0 01.149-.176c.17-.137.271-.227.417-.37.54-.54.863-1.092.955-1.644.09-.527-.03-1.062-.355-1.586a3.808 3.808 0 00-.65-.832c-.642-.638-1.289-.972-1.925-.983-.68-.017-1.35.32-2.047.986a5.32 5.32 0 00-.58.698c-.653.944-.61 2.42.095 4.19.787 1.972 2.33 4.143 4.46 6.278l.022.02.07.07c2.14 2.14 4.316 3.688 6.294 4.475 1.75.698 3.258.74 4.16.118A.266.266 0 0118.82 20c.145-.104.456-.336.672-.56zm.854-4.824c.869.869 1.32 1.793 1.336 2.754.02.989-.425 1.966-1.319 2.902a6.826 6.826 0 01-.857.722l-.022.014c-.009.009-.02.014-.028.023-.63.434-1.412.655-2.323.655-.902 0-1.899-.218-2.974-.644-2.13-.849-4.443-2.487-6.698-4.742l-.061-.065c-.006-.003-.012-.01-.017-.017-2.252-2.249-3.891-4.565-4.74-6.694-.86-2.157-.857-4.037.009-5.292.134-.184.431-.599.762-.913C4.35 2.423 5.314 2.006 6.317 2c.958.017 1.885.468 2.753 1.336.342.342.625.7.835 1.065.476.767.65 1.582.51 2.406-.135.8-.57 1.571-1.292 2.294-.084.084-.17.168-.26.246.05.118.145.303.33.577.538.785 1.462 1.734 2.11 2.381l.078.079c.647.644 1.597 1.568 2.384 2.109.271.185.456.28.574.33.076-.086.151-.165.25-.26.72-.72 1.492-1.157 2.293-1.291.827-.14 1.642.036 2.423.518a5.32 5.32 0 011.042.826zM16.622 3.462c-2.507 0-3.625 1.118-3.625 3.628 0 2.507 1.118 3.624 3.625 3.624 2.51 0 3.627-1.117 3.627-3.624.003-2.51-1.117-3.63-3.627-3.628zm0 8.46c-3.053 0-4.832-1.541-4.832-4.832 0-3.294 1.779-4.835 4.832-4.835s4.837 1.543 4.837 4.835c0 3.29-1.784 4.832-4.837 4.832zm-2.07-2.765a.602.602 0 010-.852l1.215-1.215-1.215-1.216a.602.602 0 11.851-.852l1.216 1.216 1.221-1.221a.602.602 0 11.852.851L17.47 7.09l1.22 1.22a.605.605 0 01-.853.855l-1.216-1.224-1.216 1.216a.605.605 0 01-.854 0z" fill="#313235" fill-rule="nonzero"/></svg>