<svg width="24" height="24" viewBox="0 0 24 24" xmlns="http://www.w3.org/2000/svg"><path d="M11.815 21.627c-.535 0-.871-.43-.98-.574-.194-.25-.364-.557-.527-.854-.137-.25-.386-.706-.526-.807-.18.014-.645.294-.9.448-.672.406-1.367.827-1.974.474-.617-.356-.6-1.174-.583-1.967.006-.291.017-.826-.056-.986-.16-.072-.695-.061-.986-.056-.793.017-1.61.034-1.966-.582-.353-.611.067-1.303.473-1.975.154-.255.434-.72.448-.9-.104-.14-.557-.389-.81-.526-.296-.162-.604-.333-.854-.526C2 12.35 2 11.946 2 11.816c0-.536.431-.872.574-.981.25-.194.558-.364.855-.527.249-.137.705-.386.806-.526-.014-.18-.294-.645-.448-.9-.406-.672-.826-1.367-.473-1.974.355-.617 1.173-.6 1.966-.583.291.006.826.017.986-.056.073-.16.062-.695.056-.986-.017-.793-.033-1.61.583-1.966.61-.353 1.305.067 1.975.473.254.154.72.434.899.448.14-.104.39-.557.526-.807.163-.297.334-.605.527-.854.445-.574.849-.574.98-.574.535 0 .871.431.98.574.194.25.365.557.527.854.14.25.39.703.53.807.179-.014.644-.294.896-.448.672-.406 1.367-.826 1.975-.473.616.355.6 1.173.583 1.966-.006.291-.017.826.056.986.16.073.694.062.986.056.792-.017 1.61-.034 1.966.583.353.61-.067 1.305-.473 1.974-.155.255-.435.72-.449.9.104.14.558.389.807.526.297.163.605.333.854.527.575.445.575.848.575.98 0 .535-.432.871-.575.98-.249.194-.557.365-.854.527-.25.137-.706.387-.807.527.014.179.294.644.449.896.406.672.826 1.367.473 1.975-.356.616-1.177.6-1.966.583-.292-.006-.827-.017-.986.056-.073.16-.062.694-.056.986.016.792.033 1.61-.583 1.966-.61.353-1.303-.067-1.975-.473-.255-.155-.72-.435-.9-.449-.14.104-.388.558-.526.807-.162.297-.333.605-.526.854-.443.577-.846.577-.978.577zM9.801 18.27c.093 0 .185.011.275.036.551.149.874.734 1.215 1.353.135.244.373.678.527.818.154-.14.392-.574.527-.818.341-.622.663-1.207 1.215-1.353.569-.15 1.18.219 1.77.575.225.134.617.372.818.428.054-.204.045-.672.04-.938-.014-.717-.031-1.395.38-1.804.412-.412 1.087-.395 1.805-.381.266.005.736.017.938-.04-.056-.201-.294-.593-.429-.817-.358-.591-.728-1.205-.574-1.77.149-.552.734-.875 1.353-1.216.244-.135.678-.373.818-.527-.14-.154-.574-.392-.818-.526-.622-.342-1.207-.664-1.353-1.216-.151-.569.219-1.18.574-1.77.135-.225.373-.617.429-.818-.205-.054-.672-.045-.938-.04-.718.014-1.395.031-1.804-.38-.41-.412-.395-1.087-.381-1.804.005-.267.016-.737-.04-.942-.201.056-.593.294-.817.429-.592.358-1.205.725-1.77.574-.553-.148-.875-.734-1.216-1.353-.135-.244-.373-.678-.527-.818-.154.14-.392.574-.527.818-.341.622-.664 1.207-1.215 1.353-.09.023-.182.037-.275.037-.487 0-1-.309-1.498-.611-.225-.135-.617-.373-.818-.429-.054.205-.045.673-.04.942.014.717.031 1.394-.38 1.803-.412.41-1.087.395-1.804.381-.267-.005-.737-.016-.942.04.056.201.294.593.429.818.358.59.728 1.204.574 1.77-.148.552-.734.874-1.353 1.216-.244.134-.678.372-.818.526.14.154.574.392.818.527.622.341 1.207.664 1.353 1.215.151.57-.218 1.18-.574 1.77-.135.225-.373.617-.429.819.205.053.673.044.942.039.717-.014 1.394-.03 1.803.38.412.413.395 1.088.381 1.805-.005.266-.016.736.04.938.201-.056.593-.294.818-.428.498-.3 1.01-.611 1.498-.611z" fill="#313235" fill-rule="nonzero"/></svg>