<svg width="24" height="24" viewBox="0 0 24 24" xmlns="http://www.w3.org/2000/svg"><path d="M18.574 9.636a.62.62 0 00-.375.182l-2.919 2.938a.627.627 0 00-.165.586c.39 1.703-.193 3.353-1.779 4.96L9.415 14.36c-.012-.014-.017-.034-.031-.048-.014-.014-.034-.02-.048-.03l-3.84-3.864.028-.03C7.098 8.8 8.745 8.202 10.417 8.599a.61.61 0 00.586-.168l2.919-2.938a.623.623 0 00.179-.384c.059-.605.336-1.187.857-1.764l5.387 5.414c-.563.524-1.143.812-1.77.877m2.79-1.628L15.702 2.32a1.041 1.041 0 00-1.499 0c-.736.743-1.179 1.56-1.316 2.437l-2.53 2.55c-1.456-.253-3.529-.01-5.72 2.195l-.03.034a1.23 1.23 0 00-.362.88c0 .33.13.641.362.876L8.05 14.76l-5.865 5.854a.634.634 0 00-.003.891.626.626 0 00.885.003l5.869-5.857 3.518 3.546a1.2 1.2 0 00.86.359c.333 0 .672-.135.947-.412 1.767-1.782 2.49-3.709 2.142-5.734l2.533-2.552c.876-.148 1.7-.602 2.462-1.37a.995.995 0 00.291-.708 1.093 1.093 0 00-.325-.77" fill="#313235" fill-rule="nonzero"/></svg>