<svg width="24" height="24" viewBox="0 0 24 24" xmlns="http://www.w3.org/2000/svg"><path d="M17.227 6.734c-.006.028-.009.056-.011.084-.05 1.23-.692 1.804-2.009 1.804a2.85 2.85 0 01-.98-.154c.49-.672 1.098-1.21 1.857-1.426a.596.596 0 00.423-.728l-.003-.011a.623.623 0 00-.767-.407c-.983.278-1.76.905-2.378 1.698a2.525 2.525 0 01-.171-.933c0-1.333.641-1.952 2.02-1.952h1.79c.125 0 .229.098.229.221v1.804zm-.577 6.42v1.454a.225.225 0 01-.23.221H7.37a.227.227 0 01-.23-.221v-1.454c0-.123.104-.221.23-.221h9.053c.123 0 .227.098.227.221zm-1.787 7.339H8.927c-.036 0-.067-.03-.07-.132l-.496-4.339h7.065l-.499 4.407c.003.036-.028.064-.064.064zM8.597 7.118c-1.322 0-1.964-.575-2.014-1.787a.482.482 0 00-.012-.11V3.43c0-.13.107-.233.236-.233h1.795c1.381 0 2.025.625 2.025 1.964 0 .341-.053.638-.148.896-.986-1.417-2.017-1.7-2.092-1.72a.617.617 0 00-.743.418c-.092.31.101.638.42.733.014.003.785.252 1.547 1.463-.283.109-.617.17-1.014.168zm8.4-3.6h-1.79c-2.07 0-3.255 1.146-3.255 3.146 0 .748.168 1.384.53 1.935l.131.163c-.232.44-.434.896-.605 1.364-.207-1.157-.501-2.095-.837-2.84l.028-.034c.011-.011.017-.022.028-.034.426-.537.639-1.232.639-2.061C11.863 3.15 10.676 2 8.602 2H6.807c-.81 0-1.47.639-1.47 1.429v1.87c0 .043.005.088.013.13.107 1.834 1.286 2.885 3.247 2.885.585 0 1.095-.104 1.549-.3.372.9.686 2.106.84 3.728H7.37c-.807 0-1.462.636-1.462 1.415v1.454c0 .697.526 1.274 1.212 1.389l.51 4.429c0 .694.583 1.257 1.3 1.257h5.936c.717 0 1.3-.563 1.296-1.193l.513-4.496c.686-.115 1.213-.692 1.213-1.39v-1.453c0-.779-.656-1.415-1.465-1.415h-3.639c.18-.666.446-1.473.827-2.238.45.2.98.311 1.596.311 1.947 0 3.12-1.036 3.238-2.868a.553.553 0 00.017-.134V4.93c0-.776-.658-1.412-1.465-1.412z" fill="#313235" fill-rule="nonzero"/></svg>