<svg width="24" height="24" viewBox="0 0 24 24" xmlns="http://www.w3.org/2000/svg"><path d="M11.83 2c3.122 0 5.551.815 7.22 2.423 1.734 1.67 2.611 4.162 2.611 7.409 0 3.246-.88 5.737-2.61 7.406-1.67 1.608-4.099 2.423-7.222 2.423s-5.552-.815-7.218-2.423c-1.731-1.667-2.608-4.157-2.608-7.403 0-3.247.877-5.74 2.608-7.41C6.277 2.819 8.709 2 11.829 2zm0 1.09c-5.8 0-8.74 2.94-8.74 8.745 0 5.798 2.94 8.74 8.74 8.74 5.8 0 8.744-2.942 8.744-8.74 0-5.801-2.944-8.745-8.745-8.745zM9.271 7.552l6.652 3.84a.484.484 0 010 .84l-6.652 3.844a.5.5 0 01-.241.064.484.484 0 01-.487-.485V7.972a.484.484 0 01.728-.42zm.243 1.26v6l5.196-3-5.196-3z" fill="#313235" fill-rule="nonzero"/></svg>