<svg width="24" height="24" viewBox="0 0 24 24" xmlns="http://www.w3.org/2000/svg"><path d="M12.425 21.013c2.017-.042 8.597-.792 8.597-8.988s-6.61-8.992-8.636-9.04c-.272-.008-.591-.008-.877-.008-2 .017-8.532.72-8.532 8.989 0 8.285 6.58 9.025 8.597 9.047.288.009.596 0 .851 0zM12.4 2.165c1.583.042 9.443.697 9.443 9.86 0 9.17-7.835 9.778-9.401 9.81-.18 0-.387.008-.591.008-.098 0-.196 0-.286-.009-8.95-.123-9.409-8.246-9.409-9.868 0-1.622.451-9.729 9.342-9.81h.272c.213 0 .442 0 .63.009zm-.81 14.686c.395 0 .647.255.647.655v.065c0 .384-.254.638-.647.638-.434 0-.689-.254-.689-.638v-.065c0-.4.255-.655.647-.655h.042zM14.123 6.54c.664.485.969 1.14.969 2.115 0 1.188-.485 1.877-1.664 3.277-1.361 1.566-1.468 1.698-1.468 3.255 0 .112-.09.205-.204.205h-.448a.209.209 0 01-.205-.166c-.034-.179-.05-.37-.05-.608 0-.95.271-1.557 1.212-2.68l.171-.205c1.451-1.711 1.745-2.238 1.745-3.098 0-.638-.187-1.067-.621-1.412-.247-.196-.681-.425-1.788-.425-.574 0-1.098.073-1.753.23a.193.193 0 01-.165-.026.285.285 0 01-.09-.131L9.7 6.518a.21.21 0 01.123-.23c.361-.165 1.286-.345 2.148-.345.914.006 1.636.205 2.152.597z" fill="#313235" fill-rule="nonzero"/></svg>