<svg width="24" height="24" viewBox="0 0 24 24" xmlns="http://www.w3.org/2000/svg"><path d="M11.997 21.022c5.988 0 9.022-3.034 9.022-9.02 0-5.989-3.036-9.022-9.022-9.022-5.986 0-9.02 3.036-9.02 9.022 0 5.986 3.036 9.02 9.02 9.02zm0-18.866c6.442 0 9.846 3.406 9.846 9.846 0 6.437-3.404 9.84-9.846 9.84-6.437 0-9.84-3.403-9.84-9.84 0-6.44 3.403-9.846 9.84-9.846zm1.767 10.345l2.69-2.6-2.69-2.607v.983c0 .227-.246.462-.47.462h-4.04a.142.142 0 00-.1.042.133.133 0 00-.043.1v8.048h2.138v-5.456a.41.41 0 01.409-.41h1.63c.12.01.235.062.32.146a.504.504 0 01.15.317c.006 0 .006.975.006.975zM14.02 6.4l3.123 3.028a.642.642 0 01-.022.964l-3.073 2.974c-.232.19-.501.222-.731.115a.648.648 0 01-.375-.585v-1.011h-.869v5.453a.41.41 0 01-.409.41H8.7a.41.41 0 01-.41-.41v-8.46c0-.257.102-.498.284-.68a.956.956 0 01.68-.283l3.69.003v-1.02a.64.64 0 01.372-.582.657.657 0 01.703.084z" fill="#313235" fill-rule="nonzero"/></svg>