<svg width="24" height="24" viewBox="0 0 24 24" xmlns="http://www.w3.org/2000/svg"><path d="M5.955 10.218v1.938h12.084V4.322H5.955v5.896zm-2.146 0h1.305V7.044H3.81v3.174zm7.325 3.462h1.714v-.689h-1.714v.69zm9.04 7.336v-6.512H3.808v6.512h2.429c0-.011-.009-.022-.009-.036v-4.174a.83.83 0 01.84-.823h9.84c.463 0 .841.367.841.823v4.174c0 .014-.005.025-.008.036h2.431zM7.07 20.98h9.84v-4.174H7.07v4.174zm11.81-10.75h1.293V7.054H18.88v3.174zm-.841 2.75h-4.35v.703h6.484c.462 0 .84.37.84.823v6.513a.832.832 0 01-.84.824H3.81a.834.834 0 01-.84-.824v-6.513c0-.453.375-.823.84-.823h6.485v-.703h-4.34a.834.834 0 01-.84-.824v-1.115H3.81a.834.834 0 01-.84-.823V7.044c0-.454.375-.823.84-.823h1.305v-1.9a.83.83 0 01.84-.823h5.617v-.375a.562.562 0 01-.162-.395c0-.317.263-.572.582-.572a.58.58 0 01.586.572.553.553 0 01-.166.395v.375h5.63c.463 0 .84.367.84.824v1.91h1.295c.462 0 .84.367.84.823v3.174a.834.834 0 01-.84.824h-1.294v1.103a.838.838 0 01-.843.824zM9.48 8.027a.68.68 0 00.687-.672.681.681 0 00-.687-.675.681.681 0 00-.686.675.68.68 0 00.686.672zm1.527-.672c0 .826-.684 1.496-1.527 1.496-.843 0-1.526-.672-1.526-1.496 0-.826.683-1.496 1.526-1.496.843-.002 1.527.67 1.527 1.496zm3.504.653a.68.68 0 00.686-.672.681.681 0 00-.686-.676.681.681 0 00-.686.676c0 .37.308.672.686.672zm0-2.171c.843 0 1.527.672 1.527 1.499 0 .826-.684 1.495-1.527 1.495-.843 0-1.526-.672-1.526-1.495 0-.824.683-1.5 1.526-1.5zm-.759 3.896c.233 0 .42.185.42.412a.416.416 0 01-.42.412H10.24a.416.416 0 01-.42-.412c0-.227.188-.412.42-.412h3.513z" fill="#313235" fill-rule="nonzero"/></svg>