<svg width="24" height="24" viewBox="0 0 24 24" xmlns="http://www.w3.org/2000/svg"><path d="M6.66 20.812c1.054-1.222 3.7-4.801 3.71-7.011.005-1.185-.315-2.113-.945-2.748-.63-.636-1.552-.961-2.737-.964h-.02c-1.173 0-2.089.317-2.719.947-.633.63-.958 1.554-.96 2.742-.01 2.112 2.52 5.706 3.671 7.034zM6.691 9.26c2.83.008 4.516 1.709 4.507 4.546-.008 2.941-3.714 7.387-4.243 7.916a.415.415 0 01-.586.003l-.003-.003c-.857-.863-4.215-5.202-4.21-7.944.003-1.398.423-2.549 1.205-3.33.781-.78 1.924-1.19 3.308-1.19l.022.002zm-.014 5.154c.594 0 .883-.291.883-.885 0-.597-.289-.885-.883-.885-.594 0-.882.291-.882.885 0 .594.288.885.882.885zm0-2.602c1.056 0 1.712.658 1.712 1.717 0 1.059-.656 1.717-1.712 1.717s-1.711-.658-1.711-1.717c0-1.059.655-1.717 1.711-1.717zm12.014-2.056c.793-.944 2.317-3.146 2.322-4.443.003-1.515-.792-2.32-2.305-2.325h-.014c-.742 0-1.316.2-1.709.588-.395.395-.593.972-.596 1.723-.003 1.308 1.512 3.51 2.302 4.457zm.02-7.6c1.966.006 3.137 1.185 3.132 3.157-.006 2.006-2.505 5-2.858 5.356a.413.413 0 01-.585 0c-.353-.356-2.843-3.353-2.835-5.373.003-.966.294-1.764.84-2.31.541-.541 1.337-.83 2.29-.83h.016zm-.009 3.423c.317 0 .449-.129.449-.448 0-.32-.13-.448-.449-.448-.316 0-.448.129-.448.448 0 .32.13.448.448.448zm0-1.728c.776 0 1.278.501 1.278 1.28s-.502 1.28-1.278 1.28c-.775 0-1.277-.501-1.277-1.28s.502-1.28 1.277-1.28zm-3.843 7.753a.418.418 0 01-.414-.417c0-.176.115-.333.283-.392.271-.093.54-.171.804-.241a.415.415 0 01.213.804c-.244.064-.5.14-.754.227a.417.417 0 01-.132.02zm.925 7.76a.416.416 0 01.383.736l-.02.009a8.35 8.35 0 01-.783.333.415.415 0 01-.291-.779c.249-.09.487-.19.71-.3zm1.616-2.289a.405.405 0 01-.283-.112 2.517 2.517 0 00-.577-.39.414.414 0 01-.176-.56.414.414 0 01.56-.176c.316.165.566.336.762.52.168.158.173.421.016.59a.431.431 0 01-.302.128zm-.168-6.028a.416.416 0 01-.056-.83c.165-.022.274-.036.305-.036a.411.411 0 01.437.384v.009a.414.414 0 01-.39.44c-.078.008-.159.019-.237.03-.02.003-.04.003-.06.003zm.639 6.7c.215.082.322.32.24.535-.117.303-.294.58-.515.815a.417.417 0 01-.585.054.417.417 0 01-.023-.62c.16-.173.278-.355.348-.54a.41.41 0 01.523-.247c.006.003.009.003.012.003zm-2.645-1.745a.4.4 0 01-.14-.025c-.26-.095-.52-.188-.773-.289a.417.417 0 01.303-.775c.246.098.498.19.753.28a.416.416 0 01.009.832.307.307 0 01-.152-.023zm-4.02 4.586a.407.407 0 01.468.341v.009a.412.412 0 01-.347.47h-.003c-.28.042-.554.082-.818.112a.417.417 0 01-.462-.36.413.413 0 01.356-.463h.003c.263-.034.53-.067.804-.11zm2.356-.457a.416.416 0 01.202.807c-.266.067-.538.129-.81.185a.413.413 0 01-.49-.322.413.413 0 01.323-.49c.257-.057.518-.116.775-.18zm-.79-7.316a.42.42 0 01-.319-.684c.18-.213.415-.417.706-.608a.418.418 0 01.569.149.416.416 0 01-.115.546 2.361 2.361 0 00-.524.448.403.403 0 01-.316.149zM8.81 20.857a.414.414 0 01.445.378v.002a.412.412 0 01-.378.446h-.003c-.252.02-.504.036-.756.05h-.025c-.216 0-.429-.165-.446-.38-.02-.228.11-.42.334-.446l.09-.006c.114-.002.375-.016.739-.044zm4.227-5.902a.417.417 0 01-.263-.096 2.16 2.16 0 01-.617-.776.419.419 0 01.224-.543.412.412 0 01.53.199c.075.168.204.325.386.476a.414.414 0 01.06.583.395.395 0 01-.32.157z" fill="#313235" fill-rule="nonzero"/></svg>