<svg width="24" height="24" viewBox="0 0 24 24" xmlns="http://www.w3.org/2000/svg"><path d="M13.38 2.156c.023 0 .046.003.068.009l-.068-.009a.279.279 0 01.183.07.09.09 0 01.016.011L19.04 7.7c.021.021.039.046.052.072l.007.019c.007.013.011.027.014.04a.312.312 0 01.008.068v13.109c0 .44-.387.826-.826.826H5.733c-.432 0-.827-.395-.827-.826V2.983c0-.418.41-.827.827-.827h7.647zm-.28.56H5.732c-.107 0-.267.16-.267.267v18.025c0 .12.146.266.267.266h12.563c.128 0 .266-.137.266-.266V8.178H16.11c-.88 0-1.633-.288-2.18-.831-.546-.544-.831-1.297-.831-2.18v-2.45zM10.95 11.74a.28.28 0 01.28.28v7.336a.28.28 0 01-.28.28.28.28 0 01-.28-.28V12.02a.28.28 0 01.28-.28zm4.053 1.258a.28.28 0 01.28.28l.001.368a2.46 2.46 0 011.07.335c.128.078.198.19.198.31a.322.322 0 01-.322.323.463.463 0 01-.202-.056l-.002-.003a2.211 2.211 0 00-.742-.257v1.664l.005.002c.711.09 1.56.415 1.56 1.46-.005.872-.596 1.446-1.565 1.547v.371a.28.28 0 01-.28.28.28.28 0 01-.28-.28l-.002-.369a2.828 2.828 0 01-1.346-.49.345.345 0 01-.163-.3.334.334 0 01.337-.331.426.426 0 01.224.073c.315.21.633.342.949.393v-1.752l-.049-.007c-1.101-.207-1.34-.871-1.34-1.407 0-.831.535-1.398 1.388-1.502l.001-.372a.28.28 0 01.28-.28zM8.192 7.355a.28.28 0 01.28.28v11.706a.28.28 0 01-.28.28.28.28 0 01-.28-.28V7.635a.28.28 0 01.28-.28zm7.094 9.29v1.68c.557-.075.892-.394.892-.872 0-.32-.112-.663-.892-.808zm-1.279-1.534c0 .276.09.6.716.76v-1.57c-.448.084-.716.378-.716.81zm4.16-7.493l-4.508-4.504v2.053c0 1.488.964 2.451 2.452 2.451h2.055z" fill="#313235" fill-rule="nonzero"/></svg>