<svg width="24" height="24" viewBox="0 0 24 24" xmlns="http://www.w3.org/2000/svg"><path d="M20.857 14.647a.845.845 0 010 1.69H16.35v4.509a.845.845 0 01-1.689 0V15.49c0-.468.378-.843.843-.843h5.353zm-12.644 0c.465 0 .843.378.843.843v5.353a.845.845 0 01-1.686 0v-4.51H2.86a.84.84 0 01-.812-.874.846.846 0 01.812-.812h5.353zM8.213 2c.465 0 .843.378.843.843v5.353a.844.844 0 01-.843.843H2.86a.845.845 0 010-1.689h4.507V2.843c0-.465.378-.843.846-.843zm7.294 7.04a.844.844 0 01-.843-.844V2.843a.845.845 0 011.686 0V7.35h4.51a.845.845 0 010 1.69h-5.353z" fill="#313235" fill-rule="nonzero"/></svg>