<svg width="24" height="24" viewBox="0 0 24 24" xmlns="http://www.w3.org/2000/svg"><path d="M12.467 20.228c1.973-.074 7.435-.914 7.724-7.738h-.813a.491.491 0 010-.981h.82c-.225-6.905-5.704-7.816-7.73-7.906v.995a.49.49 0 01-.492.49.49.49 0 01-.49-.49V3.582h-.054c-1.812.017-7.644.656-7.846 7.927h.985a.491.491 0 010 .981h-.974c.322 7.049 6.07 7.721 7.889 7.748V19.4a.49.49 0 01.49-.49.49.49 0 01.491.49v.827zm10.83-8.72a.491.491 0 010 .982H21.17c-.313 7.882-6.982 8.655-8.706 8.72v2.11a.49.49 0 01-.491.491.49.49 0 01-.49-.49v-2.105h-.004c-1.446-.017-8.511-.565-8.857-8.726H.655a.49.49 0 010-.978h1.95c.215-8.383 7.361-8.894 8.82-8.904h.06V.678a.49.49 0 01.491-.49.49.49 0 01.491.49v1.943c1.785.08 8.47.931 8.713 8.888h2.117zM10.67 8.067c-.262.256-.393.676-.393 1.254s.13.999.393 1.25c.252.246.665.367 1.22.367.561 0 .975-.124 1.23-.37.262-.252.393-.672.393-1.247 0-.578-.13-.998-.393-1.25-.255-.246-.669-.373-1.227-.373s-.971.127-1.223.37zm1.22 3.853c-.82 0-1.459-.216-1.903-.642-.46-.444-.692-1.1-.692-1.953 0-.854.232-1.513.692-1.96.444-.427 1.083-.645 1.903-.645.823 0 1.462.215 1.91.645.46.447.695 1.106.695 1.956 0 .85-.235 1.51-.696 1.957-.444.426-1.086.642-1.91.642zm3.644 4.205v-.182c0-.397-.084-.954-.474-1.361-.437-.45-1.103-.545-1.583-.545h-3.167c-.48 0-1.146.094-1.576.545-.39.407-.474.968-.474 1.361v.182h7.274zm-2.057-3.07c.964 0 1.754.293 2.289.848.49.51.75 1.217.75 2.04v.864a.294.294 0 01-.297.296H7.573a.294.294 0 01-.296-.296v-.867c0-.824.259-1.53.746-2.04.531-.555 1.321-.848 2.283-.848l3.17.004z" fill="#313235" fill-rule="nonzero"/></svg>