<svg width="24" height="24" viewBox="0 0 24 24" xmlns="http://www.w3.org/2000/svg"><path d="M18.482 2c2.157 0 3.25 1.106 3.25 3.291v13.11c0 2.215-1.063 3.29-3.25 3.29h-7.185c-2.188 0-3.25-1.075-3.25-3.29l.002-2.236a3.029 3.029 0 01-3.78 2.51.84.84 0 01-.378-1.406l.655-.656-.045-.31-.31-.045-.656.65a.839.839 0 01-1.406-.375 3.03 3.03 0 013.204-3.793l2.714-2.717V5.291c0-1.106.261-1.91.796-2.46C9.387 2.272 10.19 2 11.297 2h7.185zm0 1.12h-7.185c-.79 0-1.33.163-1.653.493-.322.331-.476.88-.476 1.678v3.611l.801-.801a3.08 3.08 0 01.04-.832l.044-.205a3.03 3.03 0 012.93-2.266c.263 0 .527.034.782.107a.84.84 0 01.378 1.406l-.656.655.045.311.311.045.656-.655a.839.839 0 011.406.375c.134.504.134 1.036.005 1.54a3.02 3.02 0 01-3.207 2.253L9.167 14.37l.001 4.03c0 .807.157 1.36.479 1.687.322.328.86.484 1.65.484h7.185c.79 0 1.327-.16 1.65-.484.322-.325.479-.88.479-1.686V5.29c0-1.563-.597-2.17-2.13-2.17zm-3.583 14.188c.577 0 .955.305.955.958 0 .314-.087.546-.24.706-.169.17-.412.252-.715.252-.302 0-.546-.081-.714-.252-.154-.157-.241-.392-.241-.706.003-.655.378-.958.955-.958zm-1.916-11.67a2.188 2.188 0 00-2.112 2.751L5.62 13.644a2.182 2.182 0 00-2.675 2.675l.952-.952 1.353.193.194 1.353-.953.953a2.186 2.186 0 002.675-2.678l.882-.884V14.3l.005-.001 4.368-4.366c.308.084.632.098.945.042l.187-.042a2.182 2.182 0 001.543-2.675l-.952.952-1.353-.193-.193-1.353.952-.953a2.272 2.272 0 00-.566-.072z" fill="#313235" fill-rule="nonzero"/></svg>