<svg width="24" height="24" viewBox="0 0 24 24" xmlns="http://www.w3.org/2000/svg"><path d="M18.597 2.983c.204 0 .252.12.109.264l-.734.733a.842.842 0 00-.21.628l.151 1.053c.028.202.219.39.42.42l1.054.152c.025.002.05.005.075.005.19 0 .426-.087.552-.216l.734-.733c.056-.056.106-.084.151-.084.067 0 .112.067.112.19 0 0 .006 1.664-.748 2.417-.742.743-2.361.748-2.417.748h-.003c-.204 0-.487.118-.63.26l-8.392 8.396c-.143.143-.26.428-.26.633 0 0 .005 1.664-.749 2.417-.742.742-2.36.748-2.417.748h-.003c-.204 0-.252-.12-.109-.263l.737-.734a.842.842 0 00.21-.628l-.151-1.053a.53.53 0 00-.418-.42l-1.053-.151a.687.687 0 00-.076-.006.842.842 0 00-.552.216l-.736.737c-.056.056-.107.084-.151.084-.068 0-.113-.068-.113-.19 0 0-.005-1.665.748-2.421.743-.745 2.362-.75 2.418-.75h.003c.204 0 .487-.118.63-.261l8.392-8.39a1.04 1.04 0 00.26-.633s-.005-1.664.748-2.417c.745-.745 2.365-.75 2.418-.75m0-.578a6.336 6.336 0 00-1.056.107c-.782.145-1.376.42-1.768.812-.398.398-.672 1.003-.818 1.798a6.393 6.393 0 00-.1 1.031.486.486 0 01-.093.221l-8.39 8.39a.533.533 0 01-.22.092h-.003a6.336 6.336 0 00-1.056.107c-.782.145-1.376.42-1.768.812-.398.398-.672 1.003-.818 1.798a6.393 6.393 0 00-.1 1.031c.002.504.347.768.688.768.14 0 .35-.045.56-.252l.732-.732a.3.3 0 01.145-.047l.986.14.14.989a.31.31 0 01-.047.145l-.731.731c-.238.239-.314.544-.202.813.112.269.38.434.717.434h.003a6.336 6.336 0 001.056-.107c.781-.145 1.375-.42 1.767-.812.398-.398.673-1.003.818-1.798.062-.342.096-.686.101-1.031a.486.486 0 01.093-.221l8.389-8.39a.533.533 0 01.221-.092h.003a6.336 6.336 0 001.056-.106c.782-.146 1.375-.42 1.768-.813.397-.398.672-1.003.817-1.798.062-.342.096-.686.101-1.031-.002-.504-.347-.767-.689-.767-.14 0-.35.044-.56.252l-.731.73a.32.32 0 01-.143.048l-.986-.14-.14-.986a.31.31 0 01.048-.145l.73-.731c.239-.239.314-.544.202-.813-.112-.269-.38-.437-.717-.437h-.005z" fill="#313235" fill-rule="nonzero"/></svg>