<svg width="24" height="24" viewBox="0 0 24 24" xmlns="http://www.w3.org/2000/svg"><path d="M8.517 7.081c-.118-.109-.174-.266-.174-.473 0-.21.059-.37.174-.476.112-.104.274-.157.482-.157.207 0 .37.05.481.157.115.109.177.269.177.476 0 .207-.062.367-.177.473-.112.104-.274.157-.481.157-.208 0-.37-.053-.482-.157zM19.576 17.6a1.02 1.02 0 00-.306-.888c-.199-.184-.52-.282-.952-.282-.431 0-.75.095-.952.282-.208.194-.314.507-.314.939 0 .014-.009.028-.009.045l-.176 1.678c.003.366.092.641.272.806.173.16.459.244.843.244.38 0 .664-.084.84-.244.042-.042.076-.092.11-.143 0-.002.568-1.815.644-2.437zM6.592 20.176c.18-.165.267-.437.272-.806l-.176-1.678c0-.014-.009-.028-.009-.045 0-.429-.106-.745-.31-.938-.205-.188-.524-.283-.956-.283-.431 0-.75.095-.952.283-.2.185-.35.49-.306.888.073.624.645 2.434.645 2.434.03.053.064.103.109.143.176.16.457.243.84.243.384.006.667-.078.843-.24zm-1.817-7.798c-1.093 1.235-.387 2.154.131 2.591l.163.135c.028.022.072.053.112.078.022 0 .047-.006.07-.006-.014-.196-.04-.386-.04-.59 0-1.138.208-2.124.575-2.978-.367.216-.765.496-1.011.77zm1.739-7.204a4.58 4.58 0 011.151-1.76c-.395-.156-.781-.036-1.145.376-.443.504-.435.966-.006 1.384zm5.35-1.91c-1.428 0-2.526.35-3.266 1.039-.765.711-1.154 1.798-1.154 3.226 0 1.429.39 2.51 1.154 3.219.62.574 1.507.896 2.616.991V8.608a1.375 1.375 0 01-.411-.255 1.096 1.096 0 01-.314-.485s-.045-.15-.045-.266c0-.098.056-.238.056-.238.073-.148.148-.255.266-.367.272-.25.642-.378 1.095-.386.457.008.827.137 1.096.386.12.11.196.219.266.367 0 0 .056.143.056.238 0 .112-.042.266-.042.266a1.08 1.08 0 01-.314.485c-.118.11-.258.193-.412.255v3.131c1.11-.092 1.997-.414 2.62-.991.764-.709 1.15-1.793 1.15-3.219 0-1.428-.386-2.515-1.15-3.226-.74-.69-1.838-1.04-3.267-1.04zm5.345.526c-.364-.412-.751-.532-1.146-.375.51.481.896 1.067 1.154 1.759.429-.418.437-.88-.008-1.384zm1.745 8.588c-.244-.274-.642-.554-1.011-.767.367.854.571 1.84.571 2.977 0 .205-.025.395-.04.591.023 0 .048.006.07.006a1.8 1.8 0 00.113-.079l.165-.134c.518-.44 1.224-1.359.132-2.594zm1.23 3.426c.45.42.683.96.703 1.7 0 .031-.006.149-.017.219a6.184 6.184 0 01-.042.269l-.65 2.456c-.006.028-.025.05-.037.079-.005.02-.005.039-.016.056-.006.01-.017.02-.023.03-.02.028-.036.054-.061.076-.09.143-.185.286-.309.4-.428.396-1.016.597-1.753.597-.737 0-1.328-.201-1.754-.596a2.032 2.032 0 01-.57-.975c-.995.546-2.23.818-3.743.818-.02 0-.031-.003-.05-.003l-.051.003c-1.513 0-2.745-.272-3.742-.818-.107.386-.289.717-.569.975-.431.395-1.022.596-1.754.596-.736 0-1.324-.201-1.753-.596a1.968 1.968 0 01-.31-.4c-.02-.023-.043-.049-.06-.077-.008-.01-.02-.02-.025-.03-.008-.017-.008-.04-.017-.056-.011-.028-.028-.05-.036-.079l-.65-2.456s-.034-.188-.045-.27a1.881 1.881 0 01-.017-.218c.023-.736.25-1.277.703-1.7.065-.059.138-.104.21-.154-.915-.96-1.386-2.504.023-4.093.605-.683 1.913-1.456 2.641-1.563.054-.008.076-.028.135-.039-.011-.022 0 0-.009-.022-.268-.698-.411-1.496-.411-2.404 0-.35.036-.677.078-.997-.02-.011-.045-.005-.064-.017a2.568 2.568 0 01-.28-.193l-.14-.112c-.81-.683-1.348-1.941-.2-3.235 1.14-1.286 2.496-.986 3.323-.336.84-.41 1.84-.636 3.022-.636 1.182 0 2.182.227 3.023.636.826-.65 2.184-.95 3.322.336 1.148 1.294.61 2.552-.202 3.235l-.137.112c-.053.042-.135.101-.283.193-.02.012-.042.009-.067.017.042.322.078.647.078.997 0 .908-.143 1.706-.412 2.404l-.008.022c.056.011.078.031.132.04.728.106 2.036.879 2.644 1.562 1.406 1.589.935 3.13.02 4.093.07.047.145.095.21.154zM14.73 7.238c-.208 0-.37-.053-.482-.157-.118-.106-.177-.266-.177-.473 0-.207.06-.37.177-.474.112-.106.277-.16.482-.16.207 0 .37.054.481.16.118.107.174.267.174.474 0 .207-.059.367-.174.473-.112.104-.274.157-.481.157z" fill="#313235" fill-rule="nonzero"/></svg>