<svg width="24" height="24" viewBox="0 0 24 24" xmlns="http://www.w3.org/2000/svg"><path d="M11.996 22.826c7.186 0 10.827-3.64 10.827-10.823 0-7.187-3.644-10.827-10.827-10.827S1.172 4.816 1.172 12.003c0 7.18 3.644 10.823 10.824 10.823zm0-22.639c7.731 0 11.815 4.088 11.815 11.816 0 7.724-4.084 11.808-11.815 11.808-7.724 0-11.809-4.084-11.809-11.808C.188 4.275 4.272.187 11.996.187zm-.393 5.933a.372.372 0 01.363.44l-.088.444a.37.37 0 01-.363.3H8.38v10.198c0 .205-.165.37-.37.37h-.487a.369.369 0 01-.37-.37V7.303h-3.21a.369.369 0 01-.37-.37V6.49c0-.205.165-.37.37-.37h7.66zm8.77 11.197a.371.371 0 01-.317.561h-.547a.375.375 0 01-.32-.181l-3.361-5.63-1.452 1.818v3.62c0 .205-.165.37-.37.37h-.48a.369.369 0 01-.37-.37V6.497c0-.205.164-.37.37-.37h.48c.205 0 .37.165.37.37v5.522l4.571-5.754a.373.373 0 01.29-.138h.564c.205.003.37.171.366.376 0 .081-.027.158-.077.226l-3.462 4.37 3.744 6.218z" fill="#313235" fill-rule="nonzero"/></svg>