<svg width="24" height="24" viewBox="0 0 24 24" xmlns="http://www.w3.org/2000/svg"><path d="M17.603 16.154l-1.264.007.44-.464a.5.5 0 00-.245-.83l-3.752-.848 2.172-5.663a.502.502 0 00-.198-.605.493.493 0 00-.626.084L6.853 15.75a.5.5 0 00-.11.467l-1.483.006c-1.227 0-4.084-.4-4.084-4.11 0-2.084.89-3.399 2.648-3.903a.501.501 0 00.36-.48l-.007-.138c0-5.943 5.126-6.407 6.696-6.407.891 0 5.382.205 6.45 4.242a.494.494 0 00.465.37c1.512.043 5.038.632 5.038 5.163-.003 4.82-3.996 5.193-5.223 5.193zm-5.95 1.015a.508.508 0 00-.027-.413.488.488 0 00-.326-.25l-3.14-.712 4.942-5.378-1.449 3.782a.494.494 0 00.024.413.493.493 0 00.326.252l3.452.78-5.318 5.58 1.516-4.054zm6.521-12.35C16.762.413 11.861.188 10.874.188c-1.271 0-7.55.35-7.685 7.18C1.93 7.83.187 9.03.187 12.11c0 3.768 2.622 5.11 5.073 5.11l4.51-.02c.018 0 .03-.007.044-.01l.713.16-2.151 5.782a.5.5 0 00.46.676.505.505 0 00.357-.152l6.188-6.494 2.222-.013c1.035 0 6.205-.3 6.205-6.192.003-5.143-3.933-6.006-5.634-6.138z" fill="#313235" fill-rule="nonzero"/></svg>