<svg width="24" height="24" viewBox="0 0 24 24" xmlns="http://www.w3.org/2000/svg"><path d="M16.639 6.266h-1.082l-.577 2.4h1.611l.269-2.26c-.006-.045-.104-.14-.221-.14zm-1.42 13.964l1.224-10.322H14.68l-2.227 9.282a.625.625 0 01-1.216-.29l2.157-8.992H5.336l1.221 10.246c.003.19.101.286.219.286h8.23a.209.209 0 00.212-.21zM5.142 6.266a.213.213 0 00-.213.213l.26 2.188h8.505l.577-2.4h-9.13zM19.768 4.13a.62.62 0 01.24.843v.003a.618.618 0 01-.843.24c-.003 0-.003-.002-.005-.002l-2.956-1.647-.35 1.456h.782c.807 0 1.465.653 1.465 1.457l-1.639 13.824c.003.73-.65 1.383-1.46 1.383H6.777a1.46 1.46 0 01-1.462-1.456L3.684 6.552c-.003-.877.652-1.53 1.459-1.53h9.431l.608-2.546a.609.609 0 01.356-.423.624.624 0 01.554.025l3.676 2.05zM8.863 13.496c.781-.779.218-1.462.053-1.63l-.076-.076c-.1-.095-.4-.347-.798-.347-.25 0-.535.098-.835.395-.776.773-.207 1.467-.05 1.635l.078.079c.104.1.395.35.787.35.247-.003.538-.104.84-.406zm.65-2.21c.675.689.916 1.82-.062 2.795-.535.535-1.073.644-1.429.644-.697 0-1.19-.408-1.37-.585l-.097-.098c-.664-.697-.902-1.83.064-2.793.53-.526 1.067-.638 1.423-.638.697 0 1.193.406 1.375.58.028.027.065.061.096.095zm.54 6.196c.434-.434.12-.813.028-.908l-.042-.042a.672.672 0 00-.442-.193c-.138 0-.297.056-.465.221-.432.429-.115.815-.028.908l.044.045a.656.656 0 00.437.196c.138 0 .297-.06.468-.227zm.563-1.546l.065.064c.484.496.678 1.356-.04 2.07-.389.387-.787.468-1.056.468-.367 0-.74-.16-1.02-.432l-.064-.064c-.476-.501-.67-1.359.042-2.067.384-.381.785-.462 1.054-.462.52-.003.885.297 1.02.423z" fill="#313235" fill-rule="nonzero"/></svg>