<svg width="24" height="24" viewBox="0 0 24 24" xmlns="http://www.w3.org/2000/svg"><path d="M16.867 7.735c.303 0 .538.077.703.232.171.161.259.4.259.713 0 .309-.088.548-.26.709-.164.154-.4.232-.702.232-.302 0-.537-.078-.702-.232-.168-.161-.256-.397-.256-.71 0-.312.088-.55.256-.712.165-.155.4-.232.702-.232zm-1.94 1.882c.303 0 .539.078.703.236.172.161.26.4.26.712 0 .31-.088.548-.26.71-.164.154-.4.232-.702.232-.303 0-.538-.078-.703-.232-.168-.162-.259-.397-.259-.71 0-.312.088-.55.26-.712.16-.155.396-.236.702-.236zm1.94 1.886c.303 0 .538.077.703.232.171.161.259.4.259.713 0 .309-.088.548-.26.709-.164.155-.4.232-.702.232-.302 0-.537-.077-.702-.232-.168-.161-.256-.397-.256-.71 0-.309.088-.55.256-.712.165-.155.4-.232.702-.232zm1.943-1.886c.303 0 .538.078.703.236.171.161.259.4.259.712 0 .31-.088.548-.26.71-.164.154-.4.232-.702.232-.306 0-.538-.078-.702-.232-.172-.162-.256-.397-.256-.71 0-.312.088-.55.256-.712.164-.155.4-.236.702-.236zm-9.996 1.355c.104-.1.12-.333.12-.464 0-.128-.016-.363-.12-.464-.078-.074-.246-.114-.471-.114-.064 0-.077.007-.1.007h-.038c-.013 0-.027 0-.023-.004-.044.004-.084.007-.125.007a.53.53 0 01-.285-.07c-.128-.081-.216-.222-.263-.417-.02-.078-.02-.145-.02-.212 0-.013-.003-.027-.003-.037.003-.013.003-.024.003-.034.004-.033.01-.07.01-.09 0-.131-.017-.367-.12-.468-.078-.074-.246-.114-.471-.114-.222 0-.387.04-.464.114-.108.101-.121.337-.121.468 0 .077.01.137.02.201 0 .004 0 .007.003.01.004.024-.003.04 0 .064.014.165-.013.306-.09.414-.095.127-.25.205-.458.235-.01.003-.02.003-.033.003-.027 0-.05-.003-.08-.003H5.68c-.034 0-.067.003-.098.003-.023 0-.043-.003-.067-.006h-.003c-.037-.004-.07-.014-.115-.014-.221 0-.386.04-.463.118-.105.1-.121.333-.121.464 0 .222.043.39.117.464.078.07.246.114.467.114.111 0 .111 0 .192-.014h.003c.017 0 .071-.006.088-.006h.003c.034-.004.07-.004.104-.004.108 0 .205.02.283.07.127.082.215.22.262.414.017.064.013.115.017.168 0 .02.003.037.003.054-.007.037-.01.07-.013.104-.007.04-.017.088-.017.121 0 .222.043.394.117.464.078.07.246.111.464.111.222 0 .394-.04.47-.114.105-.1.122-.333.122-.464 0-.034-.017-.084-.02-.128l-.01-.074c-.004-.03-.004-.06-.004-.094 0-.04-.01-.077-.006-.12.02-.2.09-.354.208-.448a.6.6 0 01.39-.117h.054l.053.003h.004c.04.01.064.01.094.01h.087c.219.003.39-.04.468-.11zm-.333-2.01c.43.02.77.151 1.015.383.282.27.423.659.423 1.163 0 .508-.14.898-.426 1.167-.24.225-.569.353-1.009.376 0 .508-.144.898-.427 1.166-.269.253-.659.384-1.153.384s-.877-.128-1.15-.384c-.265-.255-.41-.628-.42-1.102-.463-.014-.83-.141-1.089-.387-.279-.265-.423-.655-.423-1.163 0-.504.144-.897.423-1.163.26-.245.626-.376 1.09-.39.01-.474.15-.843.42-1.099.272-.259.655-.39 1.15-.39.493 0 .883.131 1.152.39.262.246.407.599.424 1.049zm14.05 8.625c.125-.41.293-1.304.3-1.694.036-2.82-1.402-6.138-2.179-7.92-.114-.265-.218-.497-.299-.695l-.037-.094c-.05-.125-.097-.232-.134-.32a.792.792 0 00-.044-.09l-.01-.02L20.1 6.7l-.05-.091a2.67 2.67 0 00-.461-.615c-.625-.598-1.553-.898-2.753-.898-.467 0-.918.058-1.378.179-.145.04-.551.205-.763.299-.114.064-.43.242-.545.32a3.859 3.859 0 01-4.299 0 13.642 13.642 0 00-.548-.324 8.385 8.385 0 00-.763-.299 5.304 5.304 0 00-1.375-.178c-1.203 0-2.127.303-2.752.898-.169.158-.32.366-.481.652l-.037.07-.003.004-.027.057-.044.09c-.044.098-.094.219-.151.353l-.024.058c-.084.201-.185.433-.299.699-.773 1.781-2.215 5.099-2.178 7.922.003.39.171 1.284.296 1.695.178.574.574.998 1.095 1.17.199.063.528.127.784.144.272 0 .85-.131 1.119-.252.235-.104.457-.249.686-.444.127-.11.185-.178.46-.518l.114-.137c.074-.095.148-.189.219-.283.185-.242.397-.517.662-.77.807-.766 1.832-1.327 3.052-1.67a8.667 8.667 0 012.336-.32c.794 0 1.58.108 2.337.32 1.223.343 2.248.904 3.052 1.67.265.253.474.528.662.774.07.094.144.188.218.279l.111.137c.276.34.333.407.464.518.29.245.538.373.703.444.279.124.924.252 1.183.252.13 0 .423-.05.706-.145.524-.174.924-.601 1.102-1.173zM21.264 6.905c.672 1.613 2.598 5.556 2.551 9.002-.006.497-.195 1.485-.343 1.96-.292.95-.974 1.562-1.724 1.808-.306.1-.72.195-1.018.195-.4 0-1.187-.158-1.59-.34a3.935 3.935 0 01-.942-.595c-.225-.195-.326-.323-.695-.783-.263-.323-.494-.676-.797-.965-.696-.665-1.583-1.14-2.635-1.432a7.821 7.821 0 00-2.068-.282c-.699 0-1.394.094-2.067.282-1.052.296-1.936.767-2.635 1.432-.303.29-.535.639-.8.965-.373.457-.47.588-.696.783-.376.32-.696.49-.924.595-.373.168-1.093.34-1.516.34H3.27a5.08 5.08 0 01-1.019-.195c-.746-.246-1.428-.858-1.724-1.809-.145-.474-.333-1.465-.34-1.96-.047-3.442 1.88-7.384 2.552-9.001.07-.172.13-.32.181-.434.047-.107.067-.141.08-.168l.071-.134c.182-.323.39-.622.66-.874.813-.777 1.972-1.17 3.438-1.17a6.32 6.32 0 011.633.215c.293.077.942.363.955.37 0 0 .498.279.652.386a2.85 2.85 0 003.18 0c.158-.107.655-.386.655-.386.01-.007.66-.293.952-.37a6.32 6.32 0 011.633-.215c1.466 0 2.622.393 3.439 1.17.262.252.474.551.655.874l.068.134c.013.027.033.06.08.168.06.115.121.266.192.434z" fill="#313235" fill-rule="nonzero"/></svg>