<svg width="24" height="24" viewBox="0 0 24 24" fill="none" xmlns="http://www.w3.org/2000/svg">
<path fill-rule="evenodd" clip-rule="evenodd" d="M21.7598 17.9464C21.7598 17.543 21.5189 16.896 21.1127 16.5711L21.0315 10.0164V10.0021C21.0316 9.5245 21.0318 8.60653 20.222 8.23492L12.2892 4.6719C11.8831 4.50943 11.4797 4.50943 11.0735 4.6719L3.14076 8.23492C2.57493 8.47582 2.25 9.04445 2.25 9.61027C2.25 10.2573 2.57493 10.7419 3.14076 10.9856L11.0707 14.5486C11.2304 14.6299 11.3929 14.7111 11.6366 14.7111C11.7962 14.7111 12.0399 14.6299 12.2024 14.5486L19.813 11.1481V16.5711C19.4097 16.8932 19.166 17.5402 19.166 17.9464C19.166 18.1873 19.2472 18.3498 19.4097 18.5122C19.6534 18.7559 19.9755 18.7559 20.3004 18.7559H20.7878C21.0315 18.7559 21.3536 18.6747 21.5161 18.5122C21.6786 18.431 21.7598 18.1901 21.7598 17.9464ZM12.6113 15.2769C12.3676 15.3582 12.0455 15.4394 11.7206 15.4394C11.3985 15.4394 11.0735 15.3582 10.8298 15.2769L5.0007 12.6859V15.3582C5.0007 16.1677 5.56653 16.8148 6.29482 16.9772C7.59174 17.2209 9.37325 17.7055 10.6674 18.7587C10.9923 19.0024 11.3957 19.1649 11.8018 19.1649C12.208 19.1649 12.6113 19.0024 12.9363 18.7587C14.2332 17.7055 16.0147 17.2209 17.3088 16.9772C18.0371 16.8148 18.6029 16.1677 18.6029 15.3582V12.6047L12.6113 15.2769Z" fill="#313235"/>
</svg>
