<svg width="24" height="24" viewBox="0 0 24 24" fill="none" xmlns="http://www.w3.org/2000/svg">
<path fill-rule="evenodd" clip-rule="evenodd" d="M19.9667 4.04799C21.1992 5.27768 21.8519 7.076 21.8434 9.26368C21.835 13.8771 15.9163 20.8435 15.0731 21.6698C14.9499 21.7903 14.7958 21.8463 14.6418 21.8463C14.4877 21.8463 14.3224 21.7903 14.2104 21.6698C13.7874 21.2609 12.8406 20.16 11.7398 18.6334C10.4681 20.2469 8.38686 20.4345 7.70339 20.4401C7.60535 20.4485 7.49331 20.4485 7.38686 20.4485H7.216C6.15437 20.4345 2.15997 20.0536 2.15997 15.2021C2.15997 10.3645 6.11516 10.0032 7.17398 9.99477H7.54093C7.50731 9.72866 7.4849 9.46255 7.49331 9.21326C7.49331 7.03679 8.15437 5.23566 9.40087 4.01438C10.6502 2.79309 12.4905 2.16564 14.695 2.16003C16.9023 2.16844 18.7286 2.8183 19.9667 4.04799ZM16.8547 8.60541C16.8547 9.90793 16.0339 10.7175 14.7118 10.7175C13.3897 10.7175 12.5661 9.90793 12.5661 8.60541C12.5661 7.30289 13.3869 6.49337 14.7118 6.49337C16.0339 6.49337 16.8547 7.30289 16.8547 8.60541ZM11.5353 15.2329C11.5353 18.6558 9.11235 19.2105 7.67818 19.2357C7.58854 19.2413 7.4821 19.2413 7.38686 19.2413H7.23C5.79583 19.2161 3.38126 18.6698 3.38126 15.1993C3.38126 11.7455 5.76221 11.2133 7.18798 11.1993H7.64457C9.09555 11.2385 11.5353 11.8099 11.5353 15.2329ZM10.0983 14.6026H8.06473V12.6222C8.06473 12.2889 7.79303 12.02 7.45409 12.02C7.11796 12.02 6.84345 12.2889 6.84345 12.6222V14.6026H4.81544C4.4793 14.6026 4.20479 14.8715 4.20479 15.2049C4.20479 15.5382 4.4765 15.8071 4.81544 15.8071H6.84345V17.8155C6.84345 18.1488 7.11516 18.4177 7.45409 18.4177C7.79023 18.4177 8.06473 18.1488 8.06473 17.8155V15.8071H10.0983C10.4345 15.8071 10.709 15.5382 10.709 15.2049C10.709 14.8715 10.4373 14.6026 10.0983 14.6026Z" fill="#313235"/>
</svg>
