<svg width="24" height="24" viewBox="0 0 24 24" fill="none" xmlns="http://www.w3.org/2000/svg">
<path fill-rule="evenodd" clip-rule="evenodd" d="M8.19888 3.97199C8.39215 4.52101 9.11204 4.9944 10.2969 5.34454C11.5462 5.71148 13.1877 5.91877 14.9384 5.91877C16.6891 5.91877 18.3305 5.71148 19.5798 5.34454C20.7367 5.0028 21.4482 4.54622 21.6583 4.01681C21.6583 4.0084 21.6667 4 21.6667 4C21.5098 3.42577 20.8095 2.94118 19.5686 2.57423C18.3277 2.20728 16.6779 2 14.9272 2C13.1765 2 11.5266 2.20728 10.2773 2.57423C9.10084 2.92437 8.38095 3.40896 8.19047 3.95518L8.19048 3.95518C8.19531 3.96002 8.19736 3.96207 8.19823 3.96454C8.19888 3.96636 8.19888 3.96842 8.19888 3.97199ZM11.6274 13.5714C11.6274 13.2381 11.3501 12.9664 11.0112 12.9664H8.63585V10.6583C8.63585 10.3249 8.35854 10.0532 8.01961 10.0532C7.67787 10.0532 7.40336 10.3249 7.40336 10.6583V12.9664H5.03361C4.69187 12.9664 4.41736 13.2381 4.41736 13.5714C4.41736 13.9048 4.69468 14.1765 5.03361 14.1765H7.40336V16.5182C7.40336 16.8515 7.68067 17.1232 8.01961 17.1232C8.36134 17.1232 8.63585 16.8515 8.63585 16.5182V14.1765H11.0112C11.3529 14.1765 11.6274 13.9048 11.6274 13.5714ZM12.6667 12.3838C12.6387 12.2409 12.605 12.0952 12.563 11.9496C12.4734 11.6331 12.3445 11.3137 12.1765 11C12.1064 10.8711 12.028 10.7451 11.9412 10.619L11.9338 10.6087C11.9276 10.5999 11.9211 10.5906 11.9132 10.5826C11.8347 10.4734 11.7479 10.3641 11.6555 10.2633C11.6443 10.2521 11.6338 10.2409 11.6233 10.2297L11.6232 10.2297C11.6127 10.2185 11.6022 10.2073 11.591 10.1961C11.5042 10.1036 11.4118 10.0168 11.3109 9.93277L11.2101 9.84874C11.1148 9.77311 11.0112 9.70308 10.9048 9.63585C10.8599 9.60504 10.8123 9.57423 10.7647 9.54622C10.6611 9.4846 10.5462 9.43138 10.4314 9.37816L10.4314 9.37815C10.4145 9.37012 10.3977 9.36187 10.3807 9.35358L10.3807 9.35357C10.3386 9.33294 10.2961 9.3121 10.2521 9.29412C10.1567 9.2555 10.0539 9.22242 9.94978 9.18888L9.87675 9.16527C9.85521 9.15837 9.83394 9.15122 9.81261 9.14404C9.76458 9.12788 9.71624 9.11162 9.66386 9.09804C9.52101 9.06162 9.36694 9.03361 9.21008 9.0084C9.17914 9.00364 9.14921 8.99737 9.11922 8.99108C9.07861 8.98256 9.03789 8.97402 8.9944 8.96919C8.7591 8.93838 8.507 8.91597 8.24089 8.91036C8.22989 8.91036 8.21622 8.90983 8.20081 8.90923C8.18092 8.90845 8.15813 8.90756 8.13445 8.90756C7.96638 8.90756 7.71428 8.90476 7.71428 8.90476C6.05042 8.91877 3.2577 9.54342 3.2577 13.5742C3.2577 14.9692 3.69748 18.2241 7.7647 18.2801H7.93557C8.0056 18.2801 8.07003 18.2801 8.13445 18.2773C8.17927 18.2773 8.22969 18.2773 8.27171 18.2745C8.5014 18.2717 8.71708 18.2549 8.92437 18.2297C8.98879 18.2213 9.05042 18.2129 9.11484 18.2017C9.2577 18.1821 9.39496 18.1569 9.52661 18.1261C9.56769 18.1186 9.60878 18.1086 9.64986 18.0987C9.6704 18.0937 9.69094 18.0887 9.71148 18.084C9.85434 18.0476 9.98879 18.0056 10.1204 17.958L10.1547 17.9468C10.1777 17.9393 10.2007 17.9318 10.2213 17.9244C10.3725 17.8655 10.5126 17.8011 10.6471 17.7283C10.6844 17.7096 10.7193 17.6885 10.7541 17.6673L10.7541 17.6673C10.7716 17.6567 10.789 17.6461 10.8067 17.6359L10.8068 17.6358L10.8068 17.6358C10.8852 17.5882 10.9636 17.5406 11.0364 17.4902C11.0896 17.4538 11.1429 17.4146 11.1961 17.3754C11.2491 17.3356 11.2987 17.2923 11.3475 17.2496L11.3866 17.2157L11.4205 17.1863C11.4547 17.1569 11.4888 17.1275 11.5182 17.098C11.7731 16.8487 11.972 16.5714 12.1373 16.2857C12.6835 15.3333 12.7871 14.2605 12.7871 13.6022C12.7871 13.5042 12.7843 13.395 12.7787 13.2801C12.7773 13.2661 12.7766 13.2507 12.7759 13.2353L12.7759 13.2353C12.7752 13.2199 12.7745 13.2045 12.7731 13.1905C12.7675 13.098 12.7591 13.0028 12.7479 12.9048C12.7457 12.8758 12.7417 12.8486 12.7373 12.8189L12.7373 12.8189L12.7339 12.7955C12.7199 12.6919 12.7031 12.5854 12.6835 12.4762C12.6807 12.4482 12.6751 12.4146 12.6667 12.3838ZM13.6162 11.1401C14.0476 11.1681 14.4874 11.1849 14.9384 11.1849C16.6891 11.1849 18.3389 10.986 19.5714 10.6162C20.8039 10.2493 21.479 9.69188 21.7059 9.27171V5.32773C21.2493 5.68627 20.6302 5.97479 19.8375 6.20728C18.507 6.60224 16.7647 6.81793 14.9328 6.81793C13.1008 6.81793 11.3585 6.60224 10.028 6.20728C9.21848 5.97479 8.58823 5.66947 8.13165 5.30812V7.69188C8.08157 7.69188 8.03081 7.69119 7.9797 7.69049C7.92788 7.68979 7.8757 7.68908 7.82353 7.68908H7.70308C6.4986 7.69748 2.02521 8.10364 2.02521 13.5686C2.02521 19.042 6.54061 19.4706 7.7451 19.4874H7.93277C7.96954 19.4874 8.00489 19.4867 8.03988 19.486C8.0742 19.4853 8.10818 19.4846 8.14285 19.4846C8.19327 20.1513 8.90476 20.7031 10.2773 21.1092C11.535 21.479 13.1849 21.6835 14.9272 21.6835C16.6695 21.6835 18.3193 21.4762 19.5686 21.1092C20.9916 20.6891 21.7115 20.1148 21.7115 19.4146V15.8711C21.2297 16.2409 20.591 16.5546 19.8431 16.7703C18.521 17.1625 16.7787 17.3782 14.9384 17.3782C14.2605 17.3782 13.6078 17.3389 12.9776 17.2801C13.1597 17.028 13.3193 16.7395 13.4622 16.4258C13.9384 16.4622 14.4286 16.4818 14.9356 16.4818C16.6863 16.4818 18.3361 16.2745 19.577 15.9076C20.8095 15.5406 21.4846 14.9832 21.7115 14.563V10.5826C21.2297 10.9496 20.591 11.2549 19.8431 11.4706C18.521 11.8655 16.7787 12.0812 14.9384 12.0812C14.5742 12.0812 14.2157 12.07 13.8627 12.0504C13.7983 11.7255 13.7171 11.4174 13.6162 11.1401Z" fill="#313235"/>
</svg>
