<svg width="24" height="24" viewBox="0 0 24 24" fill="none" xmlns="http://www.w3.org/2000/svg">
<path fill-rule="evenodd" clip-rule="evenodd" d="M11.4301 4.23125C11.4301 4.56739 11.7018 4.83909 12.0351 4.83909C12.3713 4.83629 12.6402 4.56459 12.6402 4.23125V2.75787C12.6402 2.42173 12.3685 2.15002 12.0351 2.15002C11.7018 2.15002 11.4301 2.42173 11.4301 2.75787V4.23125ZM18.5449 17.4273C19.2844 17.4273 19.9287 17.9735 19.9287 18.5982V20.6682C19.9287 21.2928 19.2816 21.8391 18.5449 21.8391H5.52534C4.77464 21.8391 4.14159 21.304 4.14159 20.6682V18.5982C4.14159 17.9651 4.77464 17.4301 5.52534 17.4301H5.6766V11.7018C5.6766 7.58419 7.9343 5.31528 12.0323 5.31528C16.1332 5.31528 18.3909 7.58419 18.3909 11.7018V17.4273H18.5449ZM18.7186 20.5674V18.6934C18.6654 18.6598 18.6065 18.6402 18.5449 18.6402H5.52534C5.46371 18.6402 5.40489 18.657 5.35167 18.6878V20.5758C5.40489 20.6066 5.46371 20.6206 5.52534 20.6206H18.5449C18.6065 20.6206 18.6682 20.601 18.7186 20.5674ZM12.8783 12.4889H14.3545V11.7943H12.8783C12.5897 11.7943 12.3545 11.559 12.3545 11.2677V9.78586H11.6626V11.2677C11.6654 11.5562 11.4301 11.7943 11.1388 11.7943H9.66258V12.4889H11.1388C11.4273 12.4889 11.6626 12.727 11.6626 13.0155V14.4973H12.3545V13.0155C12.3545 12.727 12.5897 12.4889 12.8783 12.4889ZM14.5729 10.741H13.3993V9.56458C13.3993 9.1136 13.0491 8.73264 12.6346 8.73264H11.3797C10.9651 8.73264 10.6122 9.1136 10.6122 9.56458V10.7438H9.4413C8.99312 10.7438 8.61217 11.0968 8.61217 11.5114V12.7747C8.61217 13.1892 8.99032 13.5422 9.43849 13.5422H10.6122V14.7186C10.6122 15.1696 10.9651 15.5506 11.3797 15.5506H12.6346C13.0491 15.5506 13.4021 15.1696 13.4021 14.7186V13.5394H14.5729C15.0211 13.5394 15.4021 13.1864 15.4021 12.7691V11.5057C15.4021 11.094 15.0239 10.741 14.5729 10.741ZM4.82506 9.56177C4.82506 9.89511 4.55615 10.1668 4.22002 10.1696H2.75503C2.4189 10.1668 2.14999 9.89511 2.14999 9.56177C2.14999 9.22564 2.4217 8.95393 2.75503 8.95393H4.22282C4.55615 8.95393 4.82786 9.22564 4.82506 9.56177ZM21.8362 9.58979C21.8362 9.25365 21.5645 8.98194 21.2312 8.98194H19.7634C19.4301 8.98194 19.1584 9.25365 19.1584 9.58979C19.1584 9.92592 19.4301 10.1976 19.7634 10.1976H21.2312C21.5673 10.1976 21.8362 9.92312 21.8362 9.58979ZM5.66539 5.95674L4.62898 4.91472C4.39089 4.67663 4.39089 4.29288 4.62898 4.05478C4.86427 3.81949 5.24523 3.81669 5.48052 4.05198L5.48332 4.05478L6.51973 5.0968C6.75503 5.33769 6.75503 5.72145 6.51413 5.95954C6.40209 6.07159 6.25083 6.13321 6.09116 6.13601C5.9315 6.13321 5.77744 6.06878 5.66539 5.95674ZM16.5869 5.39932C16.5841 5.73545 16.853 6.00996 17.1892 6.01276C17.3488 6.01276 17.5029 5.94834 17.6178 5.83349L18.6542 4.79148C18.8895 4.55618 18.8895 4.17243 18.6542 3.93433L18.6514 3.93153C18.4161 3.69624 18.0351 3.69904 17.7998 3.93433L16.7634 4.97635C16.6514 5.08839 16.5869 5.23965 16.5869 5.39932Z" fill="#313235"/>
</svg>
