<svg width="24" height="24" viewBox="0 0 24 24" fill="none" xmlns="http://www.w3.org/2000/svg">
<path fill-rule="evenodd" clip-rule="evenodd" d="M20.9692 11.112C21.2241 11.4314 21.6863 12.0336 21.6863 12.7423V15.6218C21.6863 16.1513 21.4622 16.6751 21.0672 17.07C20.6639 17.465 20.1345 17.6947 19.6162 17.6947H18.7423C18.535 19.1849 17.4706 20.0896 15.8459 20.0896C14.1457 20.0896 13.0672 19.1008 12.9328 17.4902H8.9888C8.85714 19.1036 7.77591 20.0896 6.07563 20.0896C4.36695 20.0896 3.28571 19.0952 3.15406 17.4734C2.5042 17.3893 2 16.8767 2 16.2465V4.91596C2 4.23248 2.59384 3.68066 3.31933 3.68066H15.0196C15.7451 3.68066 16.3389 4.24089 16.3389 4.92436V6.37254C17.0308 6.41456 17.7087 6.7591 18.0952 7.30251C18.4706 7.81232 20.6807 10.7339 20.9692 11.112ZM20.4482 15.6218V12.7507C20.4482 12.4682 20.1871 12.1199 20.0194 11.8961L19.9944 11.8627C19.0196 10.591 18.056 9.31372 17.098 8.028C16.9412 7.80671 16.6359 7.64985 16.3389 7.61624V14.2661C17.6331 14.4314 18.493 15.2213 18.7227 16.4622H19.6134C19.8039 16.4622 20.0168 16.3641 20.1849 16.1989C20.3501 16.0336 20.4482 15.8179 20.4482 15.6218ZM15.8431 18.8543C16.9748 18.8543 17.5434 18.2857 17.5434 17.1597C17.5434 16.0336 16.9748 15.4566 15.8431 15.4566C14.7143 15.4566 14.1429 16.0336 14.1429 17.1597C14.1457 18.2857 14.7143 18.8543 15.8431 18.8543ZM7.77591 17.1597C7.77591 18.2857 7.20728 18.8543 6.07563 18.8543C4.94678 18.8543 4.36695 18.2857 4.36975 17.1597C4.36975 16.0336 4.94678 15.4566 6.07563 15.4566C7.20448 15.4566 7.77591 16.0336 7.77591 17.1597ZM10.7059 8.2661H12.479C12.9076 8.2661 13.2857 8.60223 13.2913 8.98879V10.5994C13.2913 10.986 12.9104 11.3221 12.4818 11.3221H10.7087V13.0924C10.7087 13.5294 10.3782 13.8992 9.9888 13.8992H8.36415C7.97759 13.8992 7.64706 13.5294 7.64706 13.0924L7.63866 11.3221H5.86555C5.42857 11.3221 5.06443 10.9944 5.06443 10.5994V8.98599C5.06443 8.59103 5.42857 8.2633 5.86555 8.2633H7.63866V6.49579C7.63866 6.06722 7.97759 5.68907 8.36415 5.68907H9.98039C10.3669 5.68907 10.7059 6.06722 10.7059 6.49579V8.2661Z" fill="#313235"/>
</svg>
