<svg width="24" height="24" viewBox="0 0 24 24" fill="none" xmlns="http://www.w3.org/2000/svg">
<path fill-rule="evenodd" clip-rule="evenodd" d="M21.7086 7.73387C21.7086 7.73387 21.9971 4.13444 18.07 4.13444C18.07 4.13444 16.9299 4.13444 16.9243 4.1372V2.61064C16.9243 2.27171 16.647 2 16.3081 2C15.9663 2 15.6918 2.27451 15.6918 2.61064V4.13725L8.0616 4.14005V2.61064C8.0616 2.27171 7.78429 2 7.44535 2C7.10362 2 6.82911 2.27451 6.82911 2.61064V4.14005H5.63864C5.63864 4.14005 5.56581 4.13444 5.43976 4.13444C4.68626 4.13444 2.03081 4.37254 2.03081 7.71426V18.0868C2.03081 18.0868 1.78431 21.6722 5.64984 21.6722H18.0728C18.0728 21.6722 18.1904 21.6862 18.3865 21.6862C19.2688 21.6862 21.7114 21.3865 21.7114 18.0672L21.7086 7.73387ZM18.3865 20.4677C20.4817 20.4677 20.4817 18.661 20.4817 18.0672L20.4789 10.5602H3.2605V18.0868C3.2605 18.1148 3.2605 18.1428 3.2577 18.1708C3.2577 18.1708 3.21288 19.2072 3.83472 19.8543C4.21567 20.252 4.82912 20.4537 5.64704 20.4537H18.0672C18.1176 20.4537 18.168 20.4565 18.2184 20.4649C18.2254 20.4635 18.2441 20.4642 18.2726 20.4652H18.2726C18.3014 20.4663 18.34 20.4677 18.3865 20.4677ZM14.7646 13.8851C15.2408 13.8851 15.661 14.2661 15.661 14.7002V16.1064C15.661 16.549 15.252 16.9215 14.7646 16.9215H13.4005L13.4033 18.2716C13.4033 18.7506 13.0252 19.154 12.5798 19.154H11.1596C10.7114 19.154 10.3361 18.7506 10.3361 18.2716V16.9187H8.97196C8.49016 16.9187 8.0812 16.5462 8.0812 16.1036V14.703C8.0812 14.2604 8.49016 13.8879 8.97196 13.8879H10.3361V12.5378C10.3361 12.056 10.7142 11.6498 11.1596 11.6498H12.5742C13.0224 11.6498 13.3977 12.056 13.3977 12.5378V13.8851H14.7646Z" fill="#313235"/>
</svg>
