<svg width="24" height="24" viewBox="0 0 24 24" fill="none" xmlns="http://www.w3.org/2000/svg">
<path d="M11.8935 21.689C11.7423 21.689 11.5938 21.661 11.4538 21.605C11.0196 21.4285 10.7535 21.0027 10.7591 20.4985L10.7563 16.8487C10.7451 16.8291 10.7339 16.8095 10.7171 16.7927L3.83471 16.773C3.21847 16.7814 2.76469 16.6274 2.45096 16.3053C2.13723 15.9831 1.99158 15.5293 2.00838 14.9131V8.87389C1.99998 8.45372 2.0392 7.84868 2.44536 7.42851C2.85152 7.00834 3.45376 6.94952 3.87113 6.94112H3.87953L10.591 6.94392C10.647 6.93551 10.6975 6.91871 10.7479 6.8907L10.7395 3.33047V3.32487C10.7451 2.46773 11.154 2.17641 11.3977 2.07837C11.8151 1.9103 12.2969 2.06437 12.7199 2.49854L21.3781 11.21C21.465 11.2941 21.7143 11.5406 21.7115 11.8991C21.7115 12.0504 21.661 12.2772 21.4369 12.4929L12.9608 21.1988C12.6554 21.5181 12.2689 21.689 11.8935 21.689Z" fill="#313235"/>
</svg>
