<svg width="24" height="24" viewBox="0 0 24 24" fill="none" xmlns="http://www.w3.org/2000/svg">
<path d="M10.2809 20.588H10.2585C9.86355 20.5824 9.4798 20.392 9.11565 20.0278L4.06804 15.0026L4.05123 14.9858C3.7319 14.6385 3.61145 14.2771 3.68989 13.9074C3.76271 13.5712 3.99241 13.3023 4.21089 13.0838L4.2249 13.0698L9.34254 8.25751L6.76271 5.67768L6.75431 5.66928C6.43778 5.33874 6.34535 4.77572 6.53582 4.33034C6.71229 3.91577 7.10165 3.66928 7.57504 3.66928H19.6647C19.9448 3.64967 20.1969 3.7393 20.3818 3.92418C20.5666 4.10905 20.6563 4.36395 20.6339 4.64126L20.6283 16.7869C20.6395 17.2015 20.3958 17.5796 20.0148 17.7421C19.5582 17.9466 18.9644 17.8541 18.6086 17.5264L18.5918 17.5124L16.2165 15.1343L11.4266 20.039L11.421 20.0446C11.0624 20.406 10.6787 20.588 10.2809 20.588Z" fill="#313235"/>
</svg>
