<svg width="24" height="24" viewBox="0 0 24 24" fill="none" xmlns="http://www.w3.org/2000/svg">
<path fill-rule="evenodd" clip-rule="evenodd" d="M19.0833 7.48615L13.6211 2.30409C13.5175 2.20605 13.3802 2.15002 13.2374 2.15002H5.85644C5.28781 2.15002 4.75 2.68784 4.75 3.25647V20.7354C4.75 21.3237 5.26821 21.8419 5.85644 21.8419H18.1533C18.7416 21.8419 19.2598 21.3237 19.2598 20.7354V7.89231C19.2598 7.73825 19.1954 7.59259 19.0833 7.48615ZM8.71638 19.0688C8.71638 19.3769 8.46428 19.629 8.15616 19.629C7.84803 19.629 7.59593 19.3769 7.59593 19.0688V7.64301C7.59593 7.33489 7.84803 7.08279 8.15616 7.08279C8.46428 7.08279 8.71638 7.33489 8.71638 7.64301V19.0688ZM10.9153 19.643C11.2234 19.643 11.4755 19.3909 11.4755 19.0828V12.0268C11.4755 11.7186 11.2234 11.4665 10.9153 11.4665C10.6071 11.4665 10.355 11.7186 10.355 12.0268V19.0828C10.355 19.3909 10.6071 19.643 10.9153 19.643ZM16.3214 18.6766C16.0693 18.8951 15.7332 19.038 15.3326 19.0968V19.4049C15.3326 19.6374 15.1449 19.8251 14.9125 19.8251C14.68 19.8251 14.4923 19.6374 14.4923 19.4049V19.1052C14.0413 19.0408 13.6099 18.8727 13.2346 18.615C13.1029 18.5225 13.0357 18.3993 13.0357 18.2452C13.0385 18.0155 13.2262 17.8307 13.4559 17.8307C13.5511 17.8335 13.6463 17.8643 13.7248 17.9175C13.9573 18.0772 14.2178 18.1948 14.4895 18.2648V16.6878C13.397 16.4553 13.1562 15.7691 13.1562 15.2144C13.1562 14.3797 13.666 13.7971 14.4895 13.6486V13.3405C14.4895 13.108 14.6772 12.9203 14.9096 12.9203C15.1421 12.9203 15.3298 13.108 15.3298 13.3405V13.6402C15.694 13.6906 16.0301 13.8027 16.3046 13.9707C16.5119 14.0968 16.5427 14.2649 16.5427 14.3545C16.5427 14.5786 16.3606 14.7607 16.1365 14.7607C16.0525 14.7578 15.9713 14.7354 15.8956 14.6934L15.89 14.6906C15.7136 14.5926 15.5259 14.5198 15.3298 14.4721V15.9623C16.5679 16.164 16.834 16.8951 16.834 17.4861C16.8368 17.9735 16.6575 18.3853 16.3214 18.6766ZM14.1057 7.29007C14.4895 7.67383 15.0357 7.87831 15.6884 7.87831H17.8704L13.5175 3.74946V5.70744C13.5175 6.3573 13.722 6.90632 14.1057 7.29007ZM15.3326 16.8251V18.2761C15.7528 18.1752 15.9993 17.9035 15.9993 17.5198C15.9993 17.2396 15.9124 16.9679 15.3326 16.8251ZM13.9937 15.178C13.9937 15.4105 14.0637 15.657 14.4923 15.8083V14.4889C14.173 14.5954 13.9937 14.8363 13.9937 15.178Z" fill="#313235"/>
</svg>
