<svg width="24" height="24" viewBox="0 0 24 24" fill="none" xmlns="http://www.w3.org/2000/svg">
<path fill-rule="evenodd" clip-rule="evenodd" d="M6.97757 11.6667L8.23526 9.10366L7.37812 7.27733H6.5658C6.27169 7.27733 6.03639 7.03084 6.03639 6.72551C6.03639 6.42019 6.27449 6.1737 6.5658 6.1737H9.30249C9.5966 6.1737 9.83189 6.42019 9.83189 6.72551C9.83189 7.03084 9.5938 7.27733 9.30249 7.27733H8.55739L9.15963 8.56024H14.3165V5.99443C14.3165 5.73392 14.4901 5.50983 14.7338 5.45381C14.8879 5.4174 16.2716 5.12328 17.0868 5.80675C17.3417 6.01964 17.647 6.42019 17.647 7.11207C17.647 7.41739 17.4089 7.66389 17.1176 7.66389C16.8235 7.66389 16.5854 7.41739 16.5854 7.11207C16.5854 6.84036 16.4985 6.73392 16.4201 6.66949C16.1904 6.47622 15.7394 6.44821 15.3781 6.47622V8.98041L16.7142 11.6807C16.7142 11.6807 16.3641 11.8151 16.238 11.8683C16.1176 11.9188 15.7282 12.098 15.7282 12.098L14.8459 10.3165L12.8767 14.2717C13.182 14.5574 13.3557 14.986 13.3557 15.535C13.3557 16.2661 13.0532 16.7843 12.5294 17.028L12.8459 17.6862H13.3277C13.6218 17.6862 13.8571 17.9355 13.8571 18.2409C13.8571 18.5462 13.619 18.7927 13.3277 18.7927H12.5182C12.3165 18.7927 12.1316 18.675 12.0448 18.4874L11.4061 17.1568C10.7535 17.0448 10.3333 16.6106 10.2128 15.9412H9.47055C9.47055 15.9412 9.48456 15.7311 9.48456 15.3893C9.48195 15.0532 9.47207 14.8624 9.47071 14.8375H9.47335L9.47309 14.8347H10.2885C10.3697 14.605 10.4986 14.4174 10.661 14.2661L8.81509 10.3417L7.96916 12.07C7.96916 12.07 7.5798 11.8908 7.44815 11.8375C7.36196 11.8031 7.14317 11.7255 7.03659 11.6877L6.97757 11.6667ZM6.97757 11.6667L5.27729 15.14C5.19326 15.3109 5.20166 15.5154 5.2969 15.6807C5.39214 15.8431 5.56581 15.944 5.75068 15.944H9.47335C9.28288 18.0812 7.96636 19.3053 5.76749 19.3053C3.38935 19.3053 2.02521 17.8851 2.02521 15.4061C2.02521 12.9272 3.38935 11.507 5.76749 11.507C6.21286 11.507 6.60782 11.5714 6.97757 11.6667ZM9.47309 14.8347C9.35215 13.57 8.83966 12.6214 7.97196 12.0728L6.61902 14.8375H9.47071L9.47055 14.8347H9.47309ZM11.8371 13.8872L11.837 13.8872C11.814 13.8848 11.7913 13.8823 11.7675 13.8823C11.744 13.8823 11.7228 13.8847 11.701 13.8871H11.701H11.7009L11.7009 13.8871L11.7009 13.8871C11.6889 13.8884 11.6767 13.8898 11.6638 13.8907L9.67783 9.66668H13.9747L11.8739 13.8907C11.8614 13.8898 11.8492 13.8885 11.8371 13.8872ZM11.7675 14.9888C11.3641 14.9888 11.2409 15.1176 11.2409 15.5378C11.2409 15.9552 11.3697 16.0868 11.7675 16.0868C12.1736 16.0868 12.2941 15.958 12.2941 15.5378C12.2941 15.1148 12.1736 14.9888 11.7675 14.9888ZM21.7142 15.4061C21.7142 12.93 20.3501 11.507 17.9719 11.507C17.5097 11.507 17.098 11.577 16.7198 11.6779L18.4285 15.1372C18.5629 15.4089 18.4593 15.7423 18.1988 15.8823C18.1204 15.9244 18.0363 15.944 17.9551 15.944C17.7618 15.944 17.577 15.8347 17.4817 15.6442L15.7282 12.098C14.7562 12.7339 14.2296 13.8655 14.2296 15.4061C14.2296 17.8851 15.5938 19.3053 17.9719 19.3053C20.3501 19.3053 21.7142 17.8851 21.7142 15.4061Z" fill="#313235"/>
</svg>
