<svg width="24" height="24" viewBox="0 0 24 24" fill="none" xmlns="http://www.w3.org/2000/svg">
<path fill-rule="evenodd" clip-rule="evenodd" d="M11.2605 5.27171V4.28851C11.2605 3.95518 10.9916 3.68347 10.6582 3.68347H6.61622C6.28288 3.68347 6.01398 3.95518 6.01398 4.28851V5.27171H11.2605ZM15.7787 16.0812C15.7787 16.7507 15.2381 17.2969 14.5714 17.2969C13.9047 17.2969 13.3641 16.7507 13.3641 16.0812C13.3641 15.4118 13.9047 14.8655 14.5714 14.8655C15.2381 14.8655 15.7787 15.4118 15.7787 16.0812ZM10.535 17.2969C11.2017 17.2969 11.7423 16.7507 11.7423 16.0812C11.7423 15.4118 11.1989 14.8655 10.535 14.8655C9.86832 14.8655 9.3277 15.4118 9.3277 16.0812C9.3277 16.7507 9.87112 17.2969 10.535 17.2969ZM7.70585 16.0812C7.70585 16.7507 7.16524 17.2969 6.49857 17.2969C5.8347 17.2969 5.29129 16.7507 5.29129 16.0812C5.29129 15.4118 5.8319 14.8655 6.49857 14.8655C7.16524 14.8655 7.70585 15.4118 7.70585 16.0812ZM21.112 12.1176C21.4454 12.1176 21.7143 12.3894 21.7143 12.7227C21.7143 15.3838 21.0308 17.381 19.6834 18.6611C18.2885 19.9888 16.6358 20.084 16.1904 20.084C16.1431 20.084 16.1094 20.0825 16.0915 20.0817L16.0784 20.0812H3.66664C2.71146 20.0812 2.3277 19.2045 2.29969 18.6162L2.02798 12.7283C2.01958 12.563 2.0812 12.4006 2.19325 12.2801C2.30809 12.1597 2.46496 12.0924 2.62742 12.0924L3.97196 12.0952L3.99157 9.66947C3.97196 9.46498 4.01958 9.19047 4.20445 8.96638C4.34451 8.79552 4.61342 8.58823 5.10361 8.58263C5.18255 8.58091 5.33823 8.58025 5.54939 8.57935H5.54941H5.54943H5.54945C5.68297 8.57878 5.83867 8.57811 6.01118 8.57703V6.48179H11.2577V8.57983C12.4762 8.58263 13.4229 8.58263 13.5322 8.58263L13.5399 8.58274L13.5497 8.58273C13.7358 8.58226 15.2917 8.57839 16.4061 9.65546C17.0392 10.2661 17.3865 11.098 17.4762 12.112L21.112 12.1176ZM6.90473 16.0784C6.90473 15.8543 6.72266 15.6723 6.49857 15.6723C6.27728 15.6723 6.09521 15.8543 6.09521 16.0784C6.09521 16.3025 6.27448 16.4846 6.49857 16.4846C6.72266 16.4846 6.90473 16.3025 6.90473 16.0784ZM10.535 15.6723C10.7591 15.6723 10.9383 15.8543 10.9383 16.0784C10.9383 16.3025 10.7563 16.4846 10.535 16.4846C10.3109 16.4846 10.1316 16.3025 10.1316 16.0784C10.1316 15.8543 10.3137 15.6723 10.535 15.6723ZM14.9776 16.0784C14.9776 15.8543 14.7955 15.6723 14.5714 15.6723C14.3473 15.6723 14.168 15.8543 14.168 16.0784C14.168 16.3025 14.3473 16.4846 14.5714 16.4846C14.7955 16.4846 14.9776 16.3025 14.9776 16.0784Z" fill="#313235"/>
</svg>
