<svg width="24" height="24" viewBox="0 0 24 24" fill="none" xmlns="http://www.w3.org/2000/svg">
<path fill-rule="evenodd" clip-rule="evenodd" d="M20.9047 10.3529C21.2128 9.11202 21.5041 7.94115 21.6582 7.33331L21.647 7.33051C21.6582 7.28569 21.6638 7.24087 21.6638 7.19326C21.6638 6.88513 21.4117 6.63303 21.1036 6.63303H17.7142V5.40055C17.7142 5.38934 17.7114 5.37534 17.7086 5.36413V5.36133L17.7002 5.32772L17.6974 5.31651L17.689 5.2913L17.6862 5.2829L17.6694 5.24929V5.24648C17.6638 5.23528 17.6582 5.22408 17.6526 5.21567L17.647 5.20727C17.6442 5.20307 17.6414 5.19957 17.6386 5.19606C17.6358 5.19256 17.633 5.18906 17.6302 5.18486L17.6246 5.17646C17.6204 5.17226 17.6162 5.16735 17.612 5.16245C17.6078 5.15755 17.6036 5.15265 17.5994 5.14845L14.5882 2.13445C14.584 2.13025 14.5791 2.12605 14.5742 2.12185C14.5693 2.11765 14.5644 2.11344 14.5602 2.10924L14.5518 2.10364C14.5476 2.10084 14.5441 2.09805 14.5406 2.09525L14.5406 2.09524L14.5406 2.09523C14.5371 2.09243 14.5336 2.08963 14.5294 2.08683L14.521 2.08123C14.5098 2.07283 14.5014 2.06723 14.4901 2.06162H14.4873L14.4537 2.04482L14.4453 2.04202L14.4201 2.03361L14.4089 2.03081L14.3753 2.02241C14.3753 2.02241 14.3501 2.01681 14.3389 2.01681H14.3277C14.3193 2.01401 14.3081 2.01401 14.2997 2.01401H10.2941C9.81509 2.01401 9.50697 2.32213 9.50697 2.79832V6.63583H7.09802C6.88794 5.40895 6.71707 4.42296 6.65825 4.10083C6.43976 2.88235 5.2885 2 3.92156 2H2.57423C2.26611 2 2.01401 2.2521 2.01401 2.56022C2.01401 2.86834 2.26611 3.12044 2.57423 3.12044H3.92436C4.73669 3.12044 5.43696 3.62464 5.55741 4.29691C5.73668 5.31371 7.0588 12.9859 7.19046 13.8375C7.35292 14.8655 7.73667 15.6694 8.32771 16.2268C8.89633 16.759 9.63863 17.042 10.4762 17.042H16.745C17.5742 17.042 18.2772 16.759 18.8375 16.2016C19.3697 15.6694 19.7534 14.9159 20.0195 13.8907C20.1114 13.5342 20.3689 12.5016 20.6573 11.3447L20.6574 11.3444L20.6576 11.3437L20.9047 10.3529ZM16.098 7.19045C16.098 7.42295 15.9103 7.61062 15.6778 7.61062H11.3081C11.0756 7.61062 10.8879 7.42295 10.8879 7.19045C10.8879 6.95796 11.0756 6.77029 11.3081 6.77029H15.6778C15.9103 6.77029 16.098 6.95796 16.098 7.19045ZM12.1232 20.0335C12.1232 19.5097 11.9691 19.098 11.6638 18.8039C11.3725 18.5237 10.9692 18.3809 10.4706 18.3809C9.97196 18.3809 9.5686 18.5237 9.27728 18.8039C8.97196 19.098 8.8179 19.5097 8.8179 20.0335C8.8179 20.5573 8.97196 20.9691 9.27728 21.2632C9.5686 21.5433 9.97196 21.6862 10.4706 21.6862C10.9692 21.6862 11.3725 21.5433 11.6638 21.2632C11.9691 20.9691 12.1232 20.5573 12.1232 20.0335ZM14.7394 18.8039C15.0308 18.5237 15.4313 18.3809 15.9327 18.3809C16.4341 18.3809 16.8347 18.5237 17.126 18.8039C17.4313 19.098 17.5854 19.5097 17.5854 20.0335C17.5854 20.5573 17.4285 20.9691 17.126 21.2632C16.8347 21.5433 16.4313 21.6862 15.9327 21.6862C15.4341 21.6862 15.0308 21.5433 14.7394 21.2632C14.4341 20.9691 14.2801 20.5573 14.2801 20.0335C14.2801 19.5097 14.4341 19.098 14.7394 18.8039ZM15.6778 9.52098C15.9103 9.52098 16.098 9.3333 16.098 9.10081C16.098 8.86832 15.9103 8.68064 15.6778 8.68064H11.3081C11.0756 8.68064 10.8879 8.86832 10.8879 9.10081C10.8879 9.3333 11.0756 9.52098 11.3081 9.52098H15.6778ZM16.098 11.014C16.098 11.2465 15.9103 11.4341 15.6778 11.4341H11.3081C11.0756 11.4341 10.8879 11.2465 10.8879 11.014C10.8879 10.7815 11.0756 10.5938 11.3081 10.5938H15.6778C15.9103 10.5938 16.098 10.7815 16.098 11.014ZM16.8823 5.86833H15.3837C14.7226 5.86553 14.3697 5.56301 14.1904 5.31091C13.9803 5.01119 13.8767 4.60783 13.8739 4.07562V2.85714H10.3473V12.7731H16.8851C16.8823 12.1736 16.8823 8.33611 16.8823 5.86833ZM14.7142 3.45097L16.2885 5.028H15.3865C15.0336 5.028 14.717 4.95237 14.7142 4.07282V3.45097Z" fill="#313235"/>
</svg>
