<svg width="24" height="24" viewBox="0 0 24 24" fill="none" xmlns="http://www.w3.org/2000/svg">
<path fill-rule="evenodd" clip-rule="evenodd" d="M21.1036 6.63306C21.2772 6.63306 21.4397 6.71149 21.5461 6.84874C21.6526 6.986 21.689 7.16247 21.647 7.33334C21.5538 7.70094 21.4104 8.27653 21.2429 8.94918L21.2426 8.9501L21.2421 8.95245L21.2404 8.95902L21.2393 8.96368C21.1308 9.39933 21.0122 9.8752 20.8907 10.3613C20.5153 11.8739 20.126 13.4342 20.0083 13.8907C19.7422 14.9131 19.3557 15.6694 18.8263 16.1988C18.266 16.7563 17.563 17.0392 16.7338 17.0392H10.479C9.64142 17.0392 8.89633 16.7591 8.3305 16.2241C7.73667 15.6638 7.35572 14.8599 7.19325 13.8347C7.0532 12.944 5.70867 5.15407 5.55741 4.30814C5.43696 3.63867 4.73668 3.13167 3.92436 3.13167H2.57143C2.2633 3.13167 2.0112 2.87957 2.0112 2.57145C2.0112 2.26333 2.2633 2.01123 2.57143 2.01123H3.92156C5.2913 2.01123 6.43976 2.89358 6.65824 4.11206C6.70866 4.38377 6.88233 5.37816 7.09802 6.63306H10.3529V5.44259C10.3529 4.9664 10.7731 4.59665 11.605 4.34736C12.2577 4.15128 13.1204 4.04203 14.028 4.04203C14.9355 4.04203 15.7983 4.15128 16.4509 4.34736C17.2828 4.59665 17.703 4.9664 17.703 5.44259V6.63306H21.1036ZM10.4706 18.3781C9.96915 18.3781 9.56859 18.521 9.27728 18.8011C8.97196 19.0952 8.8179 19.507 8.8179 20.0308C8.8179 20.5546 8.97196 20.9663 9.27728 21.2605C9.56859 21.5406 9.97195 21.6834 10.4706 21.6834C10.9691 21.6834 11.3725 21.5406 11.6638 21.2605C11.9691 20.9663 12.1232 20.5546 12.1232 20.0308C12.1232 19.507 11.9691 19.0952 11.6638 18.8011C11.3725 18.521 10.972 18.3781 10.4706 18.3781ZM15.9327 18.3781C15.4313 18.3781 15.0308 18.521 14.7394 18.8011C14.4341 19.0952 14.2801 19.507 14.2801 20.0308C14.2801 20.5546 14.4341 20.9663 14.7394 21.2605C15.0308 21.5406 15.4341 21.6834 15.9327 21.6834C16.4313 21.6834 16.8347 21.5406 17.126 21.2605C17.4285 20.9663 17.5854 20.5546 17.5854 20.0308C17.5854 19.507 17.4313 19.0952 17.126 18.8011C16.8347 18.521 16.4341 18.3781 15.9327 18.3781ZM12.014 5.10365C12.5686 4.9608 13.2829 4.88237 14.0252 4.88237C14.7675 4.88237 15.4817 4.9608 16.0364 5.10365C16.549 5.23531 16.7562 5.37536 16.8319 5.44259L16.8291 5.44539L16.8263 5.44819L16.8179 5.45379L16.8151 5.45659C16.8095 5.4622 16.8011 5.4678 16.7927 5.4734L16.7899 5.4762L16.7786 5.48461L16.7758 5.48741L16.7646 5.49581L16.759 5.49861L16.7478 5.50701L16.745 5.50982C16.7338 5.51542 16.7226 5.52382 16.7114 5.53222L16.7114 5.53222L16.7058 5.53503L16.6918 5.54343L16.6834 5.54623L16.6694 5.55463L16.661 5.56024L16.6442 5.56864L16.6386 5.57144L16.6162 5.58264L16.6106 5.58545L16.591 5.59665L16.5826 5.60225L16.5658 5.61066L16.5546 5.61626L16.5378 5.61346L16.5265 5.61906L16.5041 5.62746L16.4957 5.63026L16.4621 5.64427L16.4509 5.64707L16.4257 5.65547L16.4117 5.66108L16.3893 5.66948L16.3753 5.67508L16.3501 5.68348L16.3361 5.68909L16.3053 5.70029L16.2941 5.70309L16.252 5.7171L16.238 5.7227L16.2072 5.7311L16.1904 5.73671L16.1596 5.74511L16.14 5.75071L16.1064 5.75911L16.0896 5.76472L16.0364 5.77872C15.4817 5.92158 14.7675 6.00001 14.0252 6.00001C13.2829 6.00001 12.5686 5.92158 12.014 5.77872L11.9607 5.76472L11.9439 5.75911L11.9103 5.75071L11.8907 5.74511L11.8599 5.73671L11.8431 5.7311L11.8123 5.7227L11.7983 5.7171L11.7563 5.70309L11.7451 5.70029L11.7142 5.68909L11.7002 5.68348L11.675 5.67508L11.661 5.66948L11.6386 5.66108L11.6246 5.65547L11.5994 5.64707L11.5882 5.64427L11.5546 5.63026L11.5462 5.62746L11.5238 5.61906L11.5126 5.61346L11.4958 5.60505L11.4846 5.59945L11.4677 5.59105L11.4593 5.58545L11.4397 5.57704L11.4341 5.57424L11.4089 5.56304L11.4033 5.56024L11.3865 5.55183L11.3781 5.54623L11.3641 5.53783L11.3557 5.53503L11.3417 5.52662L11.3361 5.52382C11.3314 5.52027 11.3261 5.51722 11.321 5.51425C11.3141 5.51019 11.3073 5.50627 11.3025 5.50141L11.2997 5.49861L11.2885 5.49021L11.2829 5.48741L11.2717 5.479L11.2689 5.4762L11.2577 5.4678L11.2549 5.465C11.2507 5.4622 11.2472 5.4594 11.2437 5.45661L11.2437 5.4566C11.2402 5.45379 11.2367 5.45099 11.2325 5.44819L11.2297 5.44539L11.2212 5.43979L11.2184 5.43699L11.2156 5.43419C11.2941 5.37256 11.5014 5.23531 12.014 5.10365ZM16.0364 13.5994C16.6498 13.4398 16.8263 13.2717 16.8627 13.2297L16.8599 11.605L16.8487 11.6106C16.8394 11.6141 16.8302 11.618 16.8208 11.6221C16.8073 11.6278 16.7935 11.6337 16.7786 11.6386L16.7562 11.647C16.7408 11.6526 16.7261 11.6582 16.7114 11.6638C16.6967 11.6695 16.682 11.6751 16.6666 11.6807L16.6554 11.6835C16.6414 11.6877 16.6274 11.6926 16.6134 11.6975C16.5994 11.7024 16.5854 11.7073 16.5714 11.7115L16.5462 11.7199C16.5288 11.7262 16.5105 11.7316 16.4918 11.7372L16.4918 11.7372C16.4774 11.7415 16.4627 11.7458 16.4481 11.7507C15.7955 11.9468 14.9299 12.0532 14.0224 12.0532C13.1148 12.0532 12.2521 11.944 11.5994 11.7479C11.5726 11.7412 11.5475 11.7327 11.5214 11.7238L11.5014 11.7171L11.4761 11.7087L11.4761 11.7087C11.4481 11.7003 11.4201 11.6919 11.3921 11.6807L11.3809 11.6779C11.3501 11.6667 11.3193 11.6554 11.2913 11.6442L11.2689 11.6358L11.2544 11.6305C11.2359 11.6238 11.2165 11.6167 11.1988 11.6078L11.1876 11.6022V13.2297C11.2269 13.2745 11.4005 13.4426 12.014 13.5994C12.5686 13.7423 13.2829 13.8207 14.0252 13.8207C14.7675 13.8207 15.4817 13.7423 16.0364 13.5994ZM16.8627 10.6246L16.8571 10.6302L16.8543 10.633V10.6358L16.8487 10.6414L16.8459 10.6442L16.8403 10.6498L16.8375 10.6527L16.8319 10.6583L16.8291 10.6611L16.8235 10.6667L16.8207 10.6695L16.8151 10.6751L16.8095 10.6779L16.8011 10.6835L16.7955 10.6863L16.7871 10.6919L16.7814 10.6947L16.773 10.7003L16.7674 10.7059L16.759 10.7115L16.7506 10.7171L16.7422 10.7227L16.7338 10.7283L16.7226 10.7339L16.7142 10.7395L16.703 10.7451L16.6946 10.7507L16.6834 10.7563L16.6722 10.7619L16.661 10.7675L16.6498 10.7731L16.6358 10.7787L16.6218 10.7843L16.6078 10.7899L16.5938 10.7955L16.5798 10.8011L16.5658 10.8095L16.5518 10.8151L16.535 10.8235L16.5181 10.8291L16.5013 10.8375L16.4845 10.8431L16.4649 10.8515L16.4481 10.8571L16.4285 10.8655L16.4089 10.8711L16.3865 10.8795L16.3669 10.8879L16.3445 10.8963L16.3249 10.9047L16.3025 10.9132L16.2829 10.9188L16.2576 10.9272L16.2296 10.9356L16.2016 10.944L16.1764 10.9524L16.1484 10.9608L16.1148 10.9692L16.0924 10.9748L16.0364 10.9888C15.4817 11.1316 14.7675 11.2101 14.0252 11.2101C13.2829 11.2101 12.5686 11.1316 12.014 10.9888L11.9579 10.9748L11.9355 10.9692L11.9019 10.9608L11.8739 10.9524L11.8487 10.944L11.8207 10.9356L11.7983 10.93L11.7731 10.9216L11.7535 10.916L11.7311 10.9076L11.7114 10.8991L11.689 10.8907L11.6694 10.8823L11.647 10.8739L11.6274 10.8683L11.6078 10.8599L11.591 10.8543L11.5714 10.8459L11.5546 10.8403L11.5378 10.8319L11.521 10.8263L11.5042 10.8179L11.4902 10.8123L11.4761 10.8039L11.4621 10.7983L11.4481 10.7927L11.4341 10.7871L11.4201 10.7815L11.4061 10.7759L11.3949 10.7703L11.3837 10.7647L11.3725 10.7591L11.3613 10.7535L11.3501 10.7479L11.3389 10.7423L11.3305 10.7367L11.3193 10.7311L11.3109 10.7255L11.2997 10.7199L11.2913 10.7143L11.2829 10.7087L11.2773 10.7031L11.2689 10.6975L11.2633 10.6947L11.2549 10.6891L11.2493 10.6863L11.2409 10.6807L11.2381 10.6779L11.2325 10.6723L11.2297 10.6695L11.224 10.6639L11.2212 10.6611L11.2156 10.6555L11.2128 10.6527L11.2072 10.647L11.2044 10.6442L11.1988 10.6386V10.6358L11.196 10.633L11.1932 10.6302L11.1904 10.6274V8.9972L11.2016 9.0028C11.2193 9.01164 11.2387 9.01873 11.2571 9.02546L11.2572 9.02546L11.2717 9.03081L11.2941 9.03921C11.3221 9.05042 11.3529 9.06162 11.3837 9.07282L11.3949 9.07563C11.4229 9.08683 11.4509 9.09523 11.479 9.10364L11.5042 9.11204L11.5242 9.11881C11.5503 9.12766 11.5754 9.13615 11.6022 9.14285C12.2549 9.33893 13.1176 9.44817 14.028 9.44817C14.9383 9.44817 15.7955 9.34173 16.4481 9.14565C16.4628 9.14078 16.4774 9.13643 16.4918 9.13215C16.5105 9.1266 16.5288 9.12117 16.5462 9.11484L16.5714 9.10644C16.5854 9.10224 16.5994 9.09733 16.6134 9.09243C16.6274 9.08753 16.6414 9.08263 16.6554 9.07843L16.6666 9.07563C16.682 9.07002 16.6967 9.06442 16.7114 9.05882C16.7261 9.05322 16.7408 9.04762 16.7562 9.04201L16.7786 9.03361C16.7935 9.02867 16.8073 9.02276 16.8208 9.01702C16.8302 9.013 16.8394 9.00906 16.8487 9.0056L16.8599 9L16.8627 10.6246ZM16.8571 8.02521L16.8627 8.01961L16.8683 6.38936L16.8571 6.39497C16.8478 6.39843 16.8386 6.40237 16.8292 6.40639C16.8157 6.41213 16.8019 6.41804 16.7871 6.42298L16.7646 6.43138C16.7492 6.43698 16.7345 6.44258 16.7198 6.44818C16.7051 6.45378 16.6904 6.45939 16.675 6.46499L16.6638 6.46779C16.6498 6.472 16.6358 6.4769 16.6218 6.4818C16.6078 6.4867 16.5938 6.4916 16.5798 6.49581L16.5546 6.50421C16.5372 6.51054 16.5189 6.51597 16.5002 6.52152C16.4858 6.5258 16.4712 6.53014 16.4565 6.53502C15.8039 6.7311 14.9439 6.84034 14.0336 6.84034C13.1232 6.84034 12.2605 6.7311 11.6078 6.53502C11.581 6.52831 11.5559 6.51982 11.5298 6.51097C11.5232 6.50873 11.5166 6.50647 11.5098 6.50421L11.4846 6.49581C11.4565 6.4874 11.4285 6.479 11.4005 6.46779L11.3893 6.46499C11.3585 6.45379 11.3277 6.44258 11.2997 6.43138L11.2773 6.42298C11.2661 6.41877 11.2542 6.41387 11.2423 6.40897C11.2304 6.40407 11.2184 6.39917 11.2072 6.39497L11.196 6.38936V8.01961L11.1988 8.02241L11.2016 8.02521L11.2044 8.02801V8.03081L11.21 8.03642L11.2128 8.03922L11.2184 8.04482L11.2212 8.04762L11.2269 8.05322L11.2297 8.05602L11.2353 8.06163L11.2381 8.06443L11.2437 8.07003L11.2465 8.07283L11.2549 8.07843L11.2605 8.08123L11.2689 8.08683L11.2745 8.08964L11.2829 8.09524L11.2885 8.10084L11.2969 8.10644L11.3053 8.11205L11.3165 8.11765L11.3249 8.12325L11.3361 8.12885L11.3445 8.13445L11.3557 8.14006L11.3669 8.14566L11.3781 8.15126L11.3893 8.15686L11.4005 8.16247L11.4117 8.16807L11.4257 8.17367L11.4397 8.17927L11.4537 8.18487L11.4677 8.19048L11.4818 8.19608L11.4958 8.20448L11.5098 8.21008L11.5266 8.21849L11.5434 8.22409L11.5602 8.23249L11.577 8.23809L11.5966 8.2465L11.6134 8.2521L11.633 8.2605L11.6526 8.26611L11.675 8.27451L11.6946 8.28291L11.717 8.29132L11.7367 8.29972L11.7591 8.30812L11.7787 8.31372L11.8039 8.32213L11.8263 8.32773L11.8543 8.33613L11.8795 8.34454L11.9075 8.35294L11.9411 8.36134L11.9635 8.36695L12.0196 8.38095C12.5742 8.52381 13.2885 8.60224 14.0308 8.60224C14.7731 8.60224 15.4873 8.52381 16.042 8.38095L16.098 8.36695L16.1204 8.36134L16.154 8.35294L16.182 8.34454L16.2072 8.33613L16.2352 8.32773L16.2576 8.32213L16.2829 8.31372L16.3025 8.30812L16.3249 8.29972L16.3445 8.29132L16.3669 8.28291L16.3865 8.27451L16.4089 8.26611L16.4285 8.2605L16.4481 8.2521L16.4649 8.2465L16.4845 8.23809L16.5013 8.23249L16.5181 8.22409L16.535 8.21849L16.5518 8.21008L16.5658 8.20448L16.5798 8.19608L16.5938 8.19048L16.6078 8.18487L16.6218 8.17927L16.6358 8.17367L16.6498 8.16807L16.661 8.16247L16.6722 8.15686L16.6834 8.15126L16.6946 8.14566L16.703 8.14006L16.7142 8.13445L16.7226 8.12885L16.7338 8.12325L16.7422 8.11765L16.7506 8.11205L16.759 8.10644L16.7674 8.10084L16.773 8.09524L16.7815 8.08964L16.7871 8.08683L16.7955 8.08123L16.8011 8.07843L16.8095 8.07283L16.8151 8.07003L16.8207 8.06443L16.8235 8.06163L16.8291 8.05602L16.8319 8.05322L16.8375 8.04762L16.8403 8.04482L16.8459 8.03922L16.8487 8.03642L16.8543 8.03081V8.02801L16.8571 8.02521Z" fill="#313235"/>
</svg>
