<svg width="24" height="24" viewBox="0 0 24 24" fill="none" xmlns="http://www.w3.org/2000/svg">
<path fill-rule="evenodd" clip-rule="evenodd" d="M21.6176 7.33612L16.1554 2.15406C16.0518 2.05602 15.9145 2 15.7717 2H8.39072C7.82209 2 7.28428 2.53781 7.28428 3.10644V4.61344C6.86691 4.35294 6.43834 4.21848 6.00697 4.21008C5.29549 4.19607 4.58401 4.52661 3.89213 5.18767C3.65779 5.41124 3.4364 5.7151 3.3525 5.83026L3.34311 5.84313L3.33471 5.85433C3.33191 5.85854 3.32911 5.86204 3.32631 5.86554C3.3235 5.86904 3.3207 5.87254 3.3179 5.87674C2.68205 6.79831 2.69325 8.21287 3.34871 9.85993C4.02378 11.5546 5.33751 13.4033 7.14423 15.2101L7.14983 15.2157L7.20305 15.2717L7.20865 15.2773C7.23106 15.2997 7.25417 15.3221 7.27728 15.3445C7.30039 15.3669 7.3235 15.3893 7.34591 15.4117C7.30669 15.4902 7.28428 15.577 7.28428 15.6638V20.5854C7.28428 21.1736 7.80249 21.6918 8.39072 21.6918H20.6876C21.2758 21.6918 21.7941 21.1736 21.7941 20.5854V7.74228C21.7941 7.58822 21.7296 7.44257 21.6176 7.33612ZM20.4047 7.72828H18.2226C17.57 7.72828 17.0238 7.5238 16.64 7.14005C16.2563 6.75629 16.0518 6.20727 16.0518 5.55742V3.59944L20.4047 7.72828ZM4.23667 6.5238C3.83051 7.12324 3.88653 8.18766 4.39073 9.44816C5.17224 11.4089 6.74927 13.2325 7.93414 14.4201L7.96495 14.4482L7.97616 14.4594L8.00417 14.4874C9.18904 15.6722 11.0126 17.2493 12.9733 18.0308C14.2338 18.535 15.2983 18.591 15.9005 18.1848L15.9257 18.168C16.2086 17.9636 16.3543 17.8291 16.4271 17.7535C17.3151 16.8235 17.3179 16.0868 16.4355 15.2045C16.2675 15.0308 16.0742 14.8795 15.8669 14.7535L15.8501 14.7451C15.4243 14.479 14.7493 14.2353 13.8221 15.1624C13.7156 15.2661 13.6176 15.3781 13.528 15.4958C13.5112 15.5182 13.4916 15.5406 13.4691 15.5602C13.2619 15.7507 12.8921 15.9467 12.3151 15.8011C12.0042 15.7227 11.6596 15.5518 11.2619 15.2773C10.6876 14.8823 10.0238 14.2997 9.10501 13.3809L9.04058 13.3165C8.12181 12.3977 7.53638 11.7339 7.14423 11.1596C6.86972 10.7619 6.69885 10.4173 6.62042 10.1064C6.47196 9.5294 6.67084 9.15965 6.86131 8.95237C6.88092 8.93276 6.90333 8.91315 6.92574 8.89354C7.04339 8.80671 7.15543 8.70867 7.25907 8.60223C8.18904 7.67506 7.94254 6.99999 7.67644 6.57422L7.66803 6.55741C7.54198 6.35013 7.39072 6.15966 7.21705 5.98879C6.3375 5.10644 5.59801 5.10924 4.66804 5.99719C4.58961 6.07002 4.45516 6.21848 4.25347 6.49859L4.23667 6.5238Z" fill="#313235"/>
</svg>
