<svg width="24" height="24" viewBox="0 0 24 24" fill="none" xmlns="http://www.w3.org/2000/svg">
<path fill-rule="evenodd" clip-rule="evenodd" d="M20.098 14.112C20.465 14.4678 20.8179 14.9104 21.112 15.4706C22.4678 18.0476 21.0476 19.4398 20.9888 19.4958C20.874 19.605 20.7227 19.6667 20.563 19.6667H18.1849C17.9552 20.9272 17.0168 21.6835 15.6191 21.6835C14.2213 21.6835 13.2829 20.9272 13.0616 19.6667H9.64427C9.41457 20.9188 8.4762 21.6751 7.07844 21.6751C5.68068 21.6751 4.73951 20.9188 4.51262 19.6667H2.79833C2.50982 19.6639 2.26332 19.4622 2.20169 19.1821L2.2016 19.1816C2.19171 19.1355 1.96388 18.0729 2.04483 16.4818C2.03643 15.2381 2.79833 13.0812 4.49021 11.3697C5.20169 10.6443 6.26332 9.82073 7.69189 9.36975C7.68348 9.27171 7.68348 9.16526 7.68348 9.06722C7.68348 4.5098 10.1765 2 14.6947 2C19.2213 2 21.7143 4.5098 21.7143 9.06442C21.7143 11.2213 21.1681 12.9188 20.098 14.112ZM20.2605 18.4342C20.4482 18.1148 20.7031 17.3305 20.0224 16.0476C18.9776 14.0616 16.9664 13.9244 16.9496 13.9244C16.7367 13.9132 16.5434 13.7899 16.4426 13.6022C16.3698 13.4706 14.5294 10.2521 10.028 10.2521C7.78993 10.2521 6.25491 11.3305 5.35575 12.2353C3.99161 13.6162 3.26332 15.4706 3.27172 16.507C3.2297 17.3473 3.27172 18.014 3.32774 18.4342H4.50421C4.7255 17.1653 5.67228 16.4006 7.07844 16.4006C8.4846 16.4006 9.43138 17.1681 9.65267 18.4342H13.0588C13.2717 17.1653 14.2129 16.409 15.6163 16.409C17.0224 16.409 17.9692 17.1681 18.1821 18.4342H20.2605ZM17.0168 19.0504V19.042C17.0168 18.0952 16.5602 17.6443 15.6191 17.6443C14.6807 17.6443 14.2297 18.098 14.2297 19.042V19.0504C14.2297 19.9888 14.6779 20.451 15.6191 20.451C16.5574 20.451 17.0168 19.9888 17.0168 19.0504ZM8.4762 19.0336V19.0504C8.4678 19.9888 8.01121 20.4426 7.07844 20.4426C6.13726 20.4426 5.68068 19.9804 5.68068 19.0336C5.68068 18.0868 6.13726 17.633 7.07844 17.633C8.01962 17.633 8.4762 18.0868 8.4762 19.0336ZM16.7983 10.0616C16.6835 10.1765 16.5266 10.2409 16.3642 10.2409C16.2101 10.2381 16.0532 10.1793 15.9328 10.0588L14.2045 8.31933C14.0896 8.20168 14.0252 8.04762 14.0252 7.88235V5.52661C14.0252 5.18767 14.2997 4.91036 14.6387 4.91036C14.9804 4.91036 15.2521 5.18767 15.2521 5.52661V7.62745L16.7983 9.18767C17.0364 9.43137 17.0364 9.82073 16.7983 10.0616Z" fill="#313235"/>
</svg>
