<svg width="24" height="24" viewBox="0 0 24 24" fill="none" xmlns="http://www.w3.org/2000/svg">
<path fill-rule="evenodd" clip-rule="evenodd" d="M21.14 11.8656C22.1876 13.5798 21.4929 14.7423 20.9831 15.1149C20.8795 15.1905 20.7562 15.2297 20.6302 15.2297H18.6162C18.3977 16.2465 17.6162 16.8627 16.4565 16.8627C15.2969 16.8627 14.5154 16.2465 14.2969 15.2297H11.6806C11.4593 16.2437 10.6778 16.8543 9.52098 16.8543C8.36412 16.8543 7.58541 16.2437 7.36132 15.2297H6.0504C5.77309 15.2297 5.535 15.042 5.46777 14.7703C5.45937 14.7367 5.26609 13.9216 5.33612 12.7059C5.32772 11.8011 5.88794 10.2745 7.15684 8.99443C8.05039 8.09247 9.59941 7.01685 11.9159 7.01685C15.521 7.01685 17.3557 9.05885 17.8963 9.78994C18.5742 9.90199 20.2016 10.3222 21.14 11.8656ZM10.5546 14.6219C10.5546 15.3277 10.2269 15.6555 9.52378 15.6555C8.8179 15.6555 8.49017 15.3277 8.49297 14.6219C8.49297 13.916 8.8207 13.5882 9.52378 13.5882C10.2269 13.5882 10.5546 13.916 10.5546 14.6219ZM17.4873 14.6275C17.4873 15.3333 17.1596 15.6611 16.4565 15.6611C15.7534 15.6611 15.4257 15.3333 15.4257 14.6275C15.4257 13.9216 15.7534 13.5938 16.4565 13.5938C17.1596 13.5938 17.4873 13.9216 17.4873 14.6275ZM4.92716 13.4818C4.92716 13.1513 4.65825 12.8824 4.32772 12.8824H3.0224C2.69187 12.8824 2.42297 13.1513 2.42297 13.4818C2.42297 13.8123 2.69187 14.0812 3.0224 14.0812H4.32772C4.65825 14.0812 4.92716 13.8123 4.92716 13.4818ZM4.58262 10.8824C4.91315 10.8824 5.18206 11.1513 5.18206 11.4818C5.18206 11.8123 4.91315 12.0813 4.58262 12.0813H2.59944C2.26891 12.0813 2 11.8123 2 11.4818C2 11.1513 2.26891 10.8824 2.59944 10.8824H4.58262ZM5.21007 10.1065C5.5406 10.1065 5.80951 9.83756 5.80951 9.50703C5.80951 9.1765 5.5434 8.90759 5.21007 8.90759H3.66946C3.33893 8.90759 3.07002 9.1765 3.07002 9.50703C3.07002 9.83756 3.33893 10.1065 3.66946 10.1065H5.21007Z" fill="#313235"/>
</svg>
