<svg width="24" height="24" viewBox="0 0 24 24" fill="none" xmlns="http://www.w3.org/2000/svg">
<path fill-rule="evenodd" clip-rule="evenodd" d="M17.3641 6.51258H19.07C19.7618 6.51258 20.21 6.96076 20.2128 7.65544V14.6694C20.2128 15.3641 19.7646 15.8123 19.07 15.8123H17.3641V18.4005C17.3641 20.6162 16.3025 21.6918 14.1148 21.6918H6.92995C4.74228 21.6918 3.68066 20.6162 3.68066 18.4005V5.2913C3.68066 3.10644 4.7731 2 6.92995 2H14.1148C15.2212 2 16.0251 2.27171 16.5686 2.83193C17.1036 3.38095 17.3641 4.18486 17.3641 5.2913V6.51258ZM10.5126 19.224C10.8151 19.224 11.0588 19.1428 11.2268 18.9719C11.3781 18.8151 11.4649 18.5826 11.4677 18.266C11.4677 17.6134 11.0924 17.3081 10.5126 17.3081C9.93274 17.3081 9.55739 17.6106 9.55739 18.266C9.55739 18.5798 9.64422 18.8151 9.79828 18.9719C9.96635 19.1428 10.21 19.224 10.5126 19.224ZM19.3697 14.6694C19.3697 14.9047 19.3024 14.9719 19.0671 14.9719H14.5013C14.2661 14.9719 14.1988 14.9047 14.1988 14.6694V8.77588L16.1036 7.35012H19.0671C19.3024 7.35012 19.3697 7.41734 19.3697 7.65264V14.6694ZM18.4845 10.1904H15.1092C14.9551 10.1904 14.8291 10.3165 14.8291 10.4705V14.014C14.8291 14.168 14.9551 14.2941 15.1092 14.2941H18.4845C18.6386 14.2941 18.7646 14.168 18.7646 14.014V10.4705C18.7646 10.3165 18.6386 10.1904 18.4845 10.1904ZM17.0756 13.1708V13.7338H16.5125V13.1708H17.0756ZM15.3921 11.8739V12.6106H18.2044V11.8739H15.3921ZM16.5125 11.3137V10.7507H17.0756V11.3137H16.5125ZM17.6358 11.3137H18.2016L18.2044 10.7507H17.6358V11.3137ZM15.9523 10.7507V11.3137H15.3921V10.7507H15.9523ZM15.9523 13.1708H15.3921V13.7338H15.9523V13.1708ZM17.6358 13.7338V13.1708H18.2044V13.7338H17.6358Z" fill="#313235"/>
</svg>
