<svg width="24" height="24" viewBox="0 0 24 24" fill="none" xmlns="http://www.w3.org/2000/svg">
<path fill-rule="evenodd" clip-rule="evenodd" d="M21.6862 17.7394C21.6694 16.8907 21.2548 16.0532 20.4509 15.2493C20.1512 14.9439 19.8151 14.6806 19.4509 14.4621C18.7562 14.0308 18.0364 13.8739 17.3165 13.9972C16.5966 14.1204 15.8907 14.521 15.2184 15.1932C15.0616 15.3501 14.9131 15.5154 14.7759 15.689C14.6582 15.7563 14.2857 15.717 13.5238 15.1932C12.6442 14.5882 11.6022 13.5798 10.8963 12.8739L10.8123 12.7899C10.1064 12.084 9.09802 11.042 8.49298 10.1624C7.97197 9.40054 7.93276 9.02799 7.99718 8.91035C8.17085 8.77309 8.33892 8.62744 8.49298 8.46777C9.16524 7.79551 9.5686 7.08963 9.68905 6.36974C9.8095 5.64986 9.65824 4.93557 9.22687 4.2409C9.00838 3.87395 8.74508 3.53782 8.43976 3.2409C7.63584 2.43699 6.79831 2.01962 5.94957 2.00562H5.89915C5.03641 2.00562 4.16807 2.41738 3.31373 3.2325C3.00841 3.52382 2.71429 3.92998 2.61905 4.06443L2.60785 4.08124L2.59104 4.10645C1.79553 5.2605 1.81514 7.04761 2.64987 9.13724C3.52101 11.3221 5.21848 13.7142 7.55741 16.0532L7.56301 16.0588L7.63584 16.1316L7.64144 16.1372C9.98037 18.4761 12.3725 20.1736 14.5574 21.0448C15.6274 21.4705 16.619 21.6862 17.4845 21.6862C18.3109 21.6862 19.0251 21.4929 19.5882 21.1036C19.5966 21.098 19.605 21.0924 19.6134 21.084L19.6302 21.0728C19.7646 20.9775 20.1708 20.6834 20.4621 20.3781C21.2884 19.5069 21.703 18.619 21.6862 17.7394ZM12.6022 11.7955C12.1848 11.8011 11.8403 11.4678 11.8347 11.0504C11.8347 10.9888 11.8403 10.9271 11.8543 10.8655L12.8235 6.33053C12.8823 6.05042 13.07 5.84313 13.3221 5.77311C13.5742 5.70308 13.8403 5.79271 14.0336 6.0056L14.703 6.74509L17.7338 4.14006C17.9187 3.96079 18.1736 3.87395 18.4285 3.89636C18.6918 3.91877 18.9327 4.05323 19.0896 4.26331L20.224 5.52661C20.4033 5.72829 20.4873 5.99439 20.4537 6.2605C20.4229 6.5098 20.2912 6.73669 20.0868 6.88515L17.07 9.5406L17.731 10.2745C17.9271 10.4902 17.9831 10.7647 17.8851 11.0112C17.7871 11.2577 17.5546 11.4173 17.2661 11.4397L12.6666 11.7955H12.6022Z" fill="#313235"/>
</svg>
