<svg width="24" height="24" viewBox="0 0 24 24" fill="none" xmlns="http://www.w3.org/2000/svg">
<path fill-rule="evenodd" clip-rule="evenodd" d="M13.2464 6.22687C13.2633 3.50139 14.7618 2 17.4789 2C20.21 2 21.7142 3.5126 21.7086 6.26049C21.7086 9.00837 20.2044 10.521 17.4733 10.521C17.0812 10.521 16.7198 10.4846 16.3809 10.4229L12.6162 14.7843C12.5322 14.8823 12.4313 14.9607 12.3221 15.0252V18.8263L16.2885 20.5013C16.5518 20.6134 16.703 20.8991 16.647 21.182C16.591 21.4649 16.3445 21.6694 16.056 21.6694L7.72546 21.6862C7.44255 21.6862 7.19886 21.4873 7.13723 21.21C7.07841 20.9299 7.21846 20.647 7.47616 20.5265L11.1176 18.8403V15.042C11.014 14.9831 10.9159 14.9159 10.8319 14.8263L4.68066 8.3165C4.35013 7.96636 4.25769 7.44816 4.44537 7.00278C4.63584 6.5546 5.07001 6.26609 5.5518 6.26329L6.36132 6.26049L5.33892 5.22968C5.2941 5.18486 5.22968 5.15965 5.16525 5.15965H2.63025C2.29692 5.15965 2.02521 4.88794 2.02521 4.55181C2.02521 4.21568 2.29692 3.94397 2.63025 3.94397H5.16525C5.549 3.94397 5.92435 4.09803 6.19326 4.36974L8.0644 6.25208L13.2464 6.22687ZM17.4789 9.30529C17.4562 9.30529 17.4356 9.30384 17.4153 9.30242C17.3957 9.30104 17.3763 9.29969 17.3557 9.29969L18.2604 8.25207C18.4621 8.03639 18.5854 7.74227 18.5854 7.42295C18.5854 6.75068 18.0475 6.20727 17.3809 6.20727H17.3697L14.4565 6.22127C14.4705 4.17366 15.4313 3.21568 17.4789 3.21568C19.5153 3.21568 20.5069 4.21288 20.5069 6.26329C20.5069 8.33891 19.5433 9.30529 17.4789 9.30529ZM16.3893 8.46496H6.49578L5.56301 7.47617L17.3781 7.42015L16.4649 8.47896C16.4505 8.47896 16.4376 8.47528 16.4251 8.47168C16.4132 8.46828 16.4016 8.46496 16.3893 8.46496Z" fill="#313235"/>
</svg>
