<svg width="24" height="24" viewBox="0 0 24 24" fill="none" xmlns="http://www.w3.org/2000/svg">
<path fill-rule="evenodd" clip-rule="evenodd" d="M20.2576 4.52246C21.0447 4.52246 21.6862 5.14151 21.6862 5.90061V17.909C21.6862 18.6681 21.0447 19.2871 20.2576 19.2871H3.43137C2.64145 19.2899 2 18.6709 2 17.9118V5.90061C2 5.14151 2.64145 4.52246 3.43137 4.52246H20.2576ZM4.63024 6.19472C4.93276 6.18912 5.18206 6.43002 5.18766 6.73254C5.18206 7.03506 4.93276 7.27595 4.62744 7.27035C4.31932 7.27035 4.07002 7.02945 4.07002 6.73254V6.72973C4.07842 6.42721 4.32772 6.18912 4.63024 6.19472ZM20.4817 17.9118C20.4817 18.0294 20.3809 18.1274 20.2576 18.1274H3.42857C3.30532 18.1274 3.20448 18.0294 3.20448 17.9118V8.24794H20.4817V17.9118ZM6.86553 6.73254C6.85992 6.43002 6.61062 6.18912 6.3081 6.19472H6.3053C6.00278 6.18912 5.75349 6.43002 5.74788 6.73254C5.74788 7.02945 5.99718 7.27035 6.3053 7.27035C6.61062 7.27595 6.85992 7.03506 6.86553 6.73254ZM7.98597 6.19472C8.28849 6.18912 8.53779 6.43002 8.54339 6.73254C8.53779 7.03506 8.28849 7.27595 7.98317 7.27035C7.67225 7.27035 7.42295 7.02945 7.42295 6.73254V6.72973C7.43135 6.42721 7.68065 6.18912 7.98317 6.19472H7.98597ZM8.94115 11.9314C9.15403 11.7297 9.16244 11.3964 8.96076 11.1835C8.74787 10.9622 8.39773 10.9454 8.16524 11.1471L5.87113 13.1527C5.75349 13.2535 5.68626 13.3992 5.68626 13.5532C5.68626 13.7073 5.75068 13.853 5.86553 13.9538L8.15964 15.9902C8.26328 16.0854 8.40053 16.1359 8.54059 16.1359C8.69745 16.1359 8.84591 16.0742 8.95515 15.9622C8.96356 15.9566 8.96916 15.951 8.97476 15.9426C9.16524 15.7241 9.14283 15.3908 8.92434 15.1975L7.08121 13.556L8.92154 11.9482C8.92434 11.9454 8.92784 11.9426 8.93134 11.9398C8.93485 11.937 8.93835 11.9342 8.94115 11.9314ZM15.4789 11.1471L17.773 13.1527C17.8879 13.2535 17.9551 13.3992 17.9579 13.5504C17.9579 13.7045 17.8907 13.8502 17.7758 13.951L15.4817 15.993C15.3753 16.0854 15.2408 16.1387 15.098 16.1387C14.9439 16.1387 14.7927 16.077 14.6862 15.965C14.4817 15.7549 14.4873 15.4216 14.6946 15.2171C14.7002 15.2115 14.7086 15.2031 14.717 15.1975L16.5602 13.556L14.7198 11.951C14.4985 11.7605 14.4705 11.4272 14.661 11.2059C14.6638 11.2017 14.6673 11.1982 14.6708 11.1947L14.6708 11.1947L14.6708 11.1947C14.6743 11.1912 14.6778 11.1877 14.6806 11.1835C14.8963 10.9622 15.2436 10.9454 15.4789 11.1471ZM13.2633 11.7941C13.3921 11.5196 13.2633 11.2003 12.9803 11.0771C12.7002 10.9538 12.3725 11.0743 12.2381 11.3516L10.3781 15.3543C10.2493 15.6261 10.3781 15.9454 10.661 16.0686C10.7339 16.0994 10.8123 16.1162 10.8907 16.1162C11.1092 16.1191 11.3081 15.993 11.4033 15.7969L13.2633 11.7941Z" fill="#313235"/>
</svg>
