<svg width="24" height="24" viewBox="0 0 24 24" fill="none" xmlns="http://www.w3.org/2000/svg">
<path fill-rule="evenodd" clip-rule="evenodd" d="M2.62745 6.374C2.29972 6.3768 2.02801 6.1135 2.02521 5.78297C2.02521 5.45804 2.29412 5.19473 2.62745 5.19473H3.67787C3.7479 4.85019 3.87675 4.51966 4.07283 4.21154C4.5014 3.54767 5.17927 3.07989 5.95238 2.91182C6.72829 2.73535 7.54342 2.8726 8.21848 3.29277C8.89916 3.71014 9.36975 4.3656 9.54622 5.13311C9.54957 5.14485 9.54991 5.1576 9.55025 5.17015C9.55047 5.17855 9.55069 5.18687 9.55182 5.19473H21.056C21.3865 5.19473 21.6583 5.46084 21.6583 5.78577C21.6583 6.1107 21.3893 6.3768 21.056 6.3768H9.55462C9.48459 6.72694 9.35014 7.05748 9.15686 7.35719C8.72829 8.02386 8.06162 8.48605 7.27731 8.65691C6.5014 8.83339 5.68627 8.69613 5.0112 8.27596C4.33893 7.8642 3.86274 7.20313 3.68347 6.43563C3.67962 6.42215 3.67842 6.40868 3.67713 6.3943C3.67655 6.38775 3.67595 6.38101 3.67507 6.374H2.62745ZM21.0336 11.5057C21.3669 11.5057 21.6358 11.769 21.6358 12.0967C21.6358 12.4216 21.3669 12.6849 21.0336 12.6849H19.9524C19.6751 14.0267 18.4594 15.0407 17.0084 15.0407C15.5574 15.0407 14.3445 14.0267 14.0644 12.6849H2.60224C2.27451 12.6877 2.0028 12.4244 2 12.0939C2 11.769 2.26891 11.5029 2.60224 11.5029H14.0616C14.3417 10.1611 15.5546 9.14711 17.0056 9.14711C18.4566 9.14711 19.6723 10.1611 19.9496 11.5029H21.0336V11.5057ZM21.633 18.3936C21.633 18.0659 21.3641 17.8026 21.0308 17.8026L12.2493 17.8054C11.9692 16.4636 10.7563 15.4496 9.30532 15.4496C7.85434 15.4496 6.64145 16.4636 6.36134 17.8054H2.60224C2.26891 17.8054 2 18.0687 2 18.3936C2.0028 18.7241 2.27451 18.9874 2.60224 18.9846H6.36134C6.64145 20.3264 7.85434 21.3404 9.30532 21.3404C10.7563 21.3404 11.9692 20.3264 12.2493 18.9846H21.0308C21.3641 18.9846 21.633 18.7185 21.633 18.3936Z" fill="#313235"/>
</svg>
