<svg width="24" height="24" viewBox="0 0 24 24" fill="none" xmlns="http://www.w3.org/2000/svg">
<path fill-rule="evenodd" clip-rule="evenodd" d="M21.6862 11.5182V8.52665C21.6862 8.50869 21.6815 8.49263 21.677 8.47736C21.6737 8.46644 21.6706 8.45593 21.6694 8.44542V6.74234C21.6694 5.96643 21.028 5.33618 20.2409 5.33618H3.43977C2.65266 5.33618 2.0112 5.96643 2.0112 6.74234V8.47903C2.0102 8.48406 2.00847 8.48945 2.00667 8.49507C2.00345 8.5051 2 8.51588 2 8.52665V11.5182C2 11.5302 2.00313 11.5401 2.00621 11.5498L2.00621 11.5498L2.00621 11.5498C2.00817 11.556 2.01011 11.5621 2.0112 11.5687V17.874C2.0112 18.6499 2.65266 19.2801 3.43977 19.2801H20.2409C21.028 19.2801 21.6694 18.6499 21.6694 17.874V11.6023C21.6707 11.5898 21.6741 11.5774 21.6776 11.5649C21.6819 11.5494 21.6862 11.5338 21.6862 11.5182ZM3.43977 6.51825C3.31652 6.51825 3.21568 6.61629 3.21568 6.73954V7.93282H20.4622V6.73954C20.4622 6.61909 20.3613 6.51825 20.2409 6.51825H3.43977ZM20.2409 18.0925C20.3641 18.0925 20.4622 17.9944 20.4622 17.874V12.1121H3.21568V17.874C3.21568 17.9944 3.31652 18.0925 3.43977 18.0925H20.2409ZM14.507 16.3446C15.0196 16.3362 15.6302 16.1261 15.6302 15.1765C15.6302 14.2269 15.014 14.014 14.4958 14H14.3501C13.8459 14.0028 13.2437 14.2101 13.2437 15.1681C13.2437 16.1289 13.8543 16.339 14.3641 16.3474L14.507 16.3446ZM19.5238 15.1793C19.5238 13.5883 18.3641 12.9972 17.3753 12.9748C17.3193 12.972 17.2521 12.9692 17.1904 12.9692C16.9748 12.972 16.3613 13.0168 15.8403 13.4006C15.4454 13.1177 14.9664 12.9832 14.521 12.972C14.465 12.9692 14.4005 12.9692 14.3361 12.9692C13.3501 12.9776 12.1961 13.5575 12.1961 15.1653C12.1961 16.7731 13.3557 17.3586 14.3473 17.3726H14.521C14.9748 17.3642 15.4594 17.2297 15.8543 16.944C16.3529 17.3137 16.9299 17.3726 17.1988 17.3754H17.3725C18.3641 17.3586 19.5238 16.7731 19.5238 15.1793Z" fill="#313235"/>
</svg>
