<svg width="24" height="24" viewBox="0 0 24 24" fill="none" xmlns="http://www.w3.org/2000/svg">
<path fill-rule="evenodd" clip-rule="evenodd" d="M9.03363 3.86274C9.2129 4.37814 9.88796 4.82632 10.9972 5.15685C12.1681 5.50419 13.7031 5.69746 15.3417 5.69746C16.9804 5.69746 18.5182 5.50419 19.6862 5.15685C20.7703 4.83752 21.4369 4.40615 21.633 3.90475C21.633 3.89635 21.6414 3.88795 21.6414 3.88795C21.4958 3.34733 20.8403 2.89075 19.6778 2.54342C18.5182 2.19328 16.972 2 15.3333 2C13.6975 2 12.1513 2.19328 10.9804 2.54342C9.87956 2.87114 9.20449 3.33053 9.02522 3.84593C9.03005 3.85076 9.03211 3.85282 9.03298 3.85529C9.03363 3.85711 9.03363 3.85917 9.03363 3.86274ZM11.5266 12.1064C11.2857 11.8711 10.902 11.8711 10.6611 12.1064L7.40058 15.3333L6.17649 14.1204C5.9356 13.8851 5.55185 13.8851 5.31095 14.1204L5.30815 14.1232C5.07286 14.3613 5.07566 14.7422 5.31095 14.9775L6.96921 16.6218C7.2101 16.8599 7.59666 16.8599 7.83475 16.6218L11.5266 12.9635L11.5322 12.9579C11.7647 12.7226 11.7647 12.3417 11.5266 12.1064ZM13.5994 11.4285L13.603 11.1849C13.6073 10.8955 13.6112 10.6311 13.6134 10.4201H13.6106C12.4146 10.4201 11.6583 9.92434 10.9776 9.47616C10.8403 9.38652 10.7031 9.29689 10.563 9.21285L10.5266 9.19045C10.381 9.10081 10.2297 9.01958 10.0756 8.94395L10.0728 8.94115C9.7255 8.77308 9.35575 8.66104 8.9748 8.61342C8.80393 8.58821 8.62186 8.5714 8.42018 8.5714H8.41738C7.23889 8.5714 6.57269 9.00852 5.86639 9.47194L5.85997 9.47616C5.1737 9.92714 4.40899 10.4285 3.23813 10.4285H3.22693C3.23813 11.7647 3.28855 14.7983 3.54065 16.2296C3.82076 17.8179 6.944 19.6722 8.42018 20.4033C9.10926 20.0559 9.78152 19.6722 10.4286 19.252L10.4314 19.2492C10.7899 19.0167 11.1485 18.7618 11.4874 18.4985L11.5014 18.4873C12.3473 17.8235 13.0532 17.0896 13.2605 16.3921C13.2651 16.3769 13.2698 16.3617 13.2746 16.3466C13.2873 16.3059 13.3 16.2656 13.3081 16.2268C13.3417 16.0308 13.3725 15.8011 13.3978 15.5546C13.4286 15.2773 13.4538 14.9691 13.4762 14.6498L13.4902 14.4537C13.507 14.1764 13.5238 13.8935 13.5378 13.6078L13.5462 13.4481C13.5714 12.7479 13.5882 12.0364 13.5994 11.4285ZM15.0394 10.6578C15.1409 10.6608 15.2422 10.6638 15.3445 10.6638C16.9832 10.6638 18.5266 10.479 19.6862 10.1316C20.8375 9.78428 21.4705 9.26047 21.6834 8.86272V5.14004C21.2577 5.47898 20.675 5.75068 19.9327 5.96917C18.6862 6.34172 17.056 6.5462 15.3417 6.5462C13.6246 6.5462 11.9944 6.34172 10.7479 5.96917C9.9888 5.74788 9.40057 5.46217 8.972 5.12324V7.38653C8.79833 7.37253 8.61626 7.36132 8.42018 7.36132H8.41458C6.86866 7.36132 5.97558 7.94721 5.18683 8.46466L5.1821 8.46776C4.4314 8.95795 3.83757 9.34171 2.75914 9.18204C2.57707 9.13722 2.38379 9.17644 2.23533 9.29129C2.08968 9.40613 2.00004 9.5798 2.00004 9.76747C2.00004 9.77152 2.00004 9.77747 2.00003 9.78526C1.99973 10.1489 1.99612 14.5173 2.33617 16.4397C2.79275 19.0475 7.60786 21.3725 8.16248 21.6246C8.33055 21.703 8.52102 21.703 8.68629 21.6246C9.60505 21.1848 10.493 20.6806 11.3389 20.112C12.4678 20.4005 13.8599 20.5685 15.3417 20.5685C16.972 20.5685 18.5154 20.3753 19.6862 20.0279C21.0168 19.6302 21.6918 19.0868 21.6918 18.4285V15.0868C21.2381 15.4341 20.6414 15.731 19.9411 15.9327C18.7031 16.3053 17.0728 16.5097 15.3473 16.5097C15.1086 16.5097 14.8738 16.5 14.6396 16.4902C14.5935 16.4883 14.5474 16.4864 14.5014 16.4845C14.5014 16.4765 14.5042 16.4675 14.507 16.4582C14.5092 16.4512 14.5114 16.4441 14.5126 16.4369C14.5546 16.2072 14.5882 15.9355 14.619 15.6442C14.6665 15.6459 14.714 15.6476 14.7615 15.6494C14.9551 15.6566 15.1494 15.6638 15.3473 15.6638C16.986 15.6638 18.5294 15.4705 19.6918 15.1232C20.8431 14.7759 21.4762 14.252 21.689 13.8543V10.098C21.2353 10.4453 20.6386 10.7339 19.9383 10.9355C18.7003 11.3081 17.07 11.5126 15.3445 11.5126C15.2126 11.5126 15.0837 11.5079 14.9545 11.5032C14.911 11.5016 14.8673 11.5 14.8235 11.4986C14.8283 11.2315 14.831 10.9848 14.8335 10.7652C14.8339 10.7269 14.8343 10.6893 14.8347 10.6526C14.9033 10.6537 14.9714 10.6558 15.0394 10.6578Z" fill="#313235"/>
</svg>
