<svg width="24" height="24" viewBox="0 0 24 24" fill="none" xmlns="http://www.w3.org/2000/svg">
<path fill-rule="evenodd" clip-rule="evenodd" d="M5.42575 3.99993C5.62182 4.54895 6.36412 5.02233 7.5798 5.37247C8.86271 5.73942 10.549 5.9467 12.3445 5.9439C14.1428 5.9439 15.8291 5.73662 17.112 5.36967C18.3024 5.02794 19.0307 4.57135 19.2464 4.04194C19.2464 4.03354 19.2576 4.02514 19.2576 4.02514C19.098 3.45091 18.3781 2.96632 17.1036 2.59937C15.8291 2.23243 14.1344 2.02515 12.3361 2.02515C10.5378 2.02515 8.8431 2.23243 7.56019 2.59937C6.35291 2.94951 5.61342 3.4341 5.41734 3.98032C5.4225 3.9872 5.4245 3.98986 5.42526 3.99283C5.42575 3.99469 5.42575 3.99669 5.42575 3.99993ZM19.3052 5.35566C18.8375 5.71421 18.2016 6.00272 17.3865 6.23521C16.0195 6.62737 14.2296 6.84305 12.3473 6.84585C10.4677 6.84585 8.67783 6.63017 7.31089 6.23521C6.47616 6.00272 5.82911 5.6974 5.36132 5.33886V9.31363C5.61342 9.81503 6.43695 10.3164 7.5798 10.6498C8.86551 11.0195 10.549 11.2156 12.3473 11.2156C14.1456 11.2156 15.8403 11.0167 17.1148 10.6498C18.3781 10.28 19.0699 9.72539 19.3052 9.30243V5.35566ZM12.3473 12.1091C14.238 12.1091 16.0279 11.8935 17.3865 11.4985C18.154 11.2828 18.8094 10.9775 19.3052 10.6105V14.5937C19.0699 15.0167 18.3781 15.5713 17.1148 15.9383C15.8403 16.3052 14.1456 16.5125 12.3473 16.5125C10.549 16.5125 8.86271 16.3052 7.5798 15.9383C6.43695 15.6077 5.61342 15.1119 5.36132 14.6021V10.6217C5.85992 10.9719 6.51258 11.2772 7.31089 11.5013C8.67783 11.8935 10.4649 12.1091 12.3473 12.1091ZM17.3865 16.7982C16.0279 17.1931 14.238 17.4088 12.3473 17.4088C10.4649 17.4088 8.67783 17.1931 7.30809 16.7982C6.50978 16.5629 5.84591 16.2604 5.35852 15.9102V19.4424C5.35852 20.1427 6.10081 20.7141 7.56019 21.1371C8.8543 21.5041 10.549 21.7113 12.3361 21.7113C14.126 21.7113 15.8207 21.5069 17.1036 21.1371C18.5657 20.7169 19.3052 20.1427 19.3052 19.4424V15.9018C18.8094 16.2688 18.154 16.5825 17.3865 16.7982Z" fill="#313235"/>
</svg>
