<svg width="24" height="24" viewBox="0 0 24 24" fill="none" xmlns="http://www.w3.org/2000/svg">
<path fill-rule="evenodd" clip-rule="evenodd" d="M8.53714 3.96161C8.53779 3.96344 8.53779 3.96549 8.53779 3.96906C8.72826 4.51528 9.42574 4.98867 10.5798 5.33881C11.7983 5.71415 13.4033 5.92144 15.1064 5.92144C16.8179 5.92144 18.4145 5.71415 19.633 5.33881C20.7618 4.99987 21.4537 4.54329 21.6582 4.01948C21.6582 4.01108 21.6666 3.99427 21.6666 3.99427C21.5181 3.42285 20.8347 2.94106 19.6246 2.57411C18.4145 2.20156 16.8095 2.00269 15.098 2.00269C13.3949 2.00269 11.7815 2.20156 10.563 2.57411C9.41733 2.92145 8.71986 3.40324 8.52938 3.95226C8.53421 3.95709 8.53627 3.95914 8.53714 3.96161ZM15.1036 11.1875C13.4005 11.1875 11.7955 10.9886 10.577 10.6217C10.3725 10.5545 10.1736 10.4816 9.98596 10.406L10.5378 11.5265C11.8039 11.885 13.4089 12.0839 15.1036 12.0839C16.8963 12.0839 18.6022 11.8682 19.8851 11.4704C20.619 11.2547 21.2352 10.9466 21.7142 10.5825V14.5685C21.4901 14.983 20.8319 15.5404 19.6302 15.9158C18.4201 16.2799 16.8151 16.4872 15.1036 16.4872C14.3389 16.4872 13.605 16.4368 12.9131 16.3556L13.3809 17.3107C13.9411 17.3528 14.5182 17.3864 15.1008 17.3864C16.8935 17.3864 18.5994 17.1707 19.8823 16.7729C20.6162 16.5572 21.2324 16.2491 21.7114 15.8766V19.4228C21.7114 20.1203 21.0027 20.6945 19.619 21.1175C18.4005 21.4816 16.7871 21.6917 15.0924 21.6917C14.7955 21.6917 14.4985 21.6833 14.2044 21.6665C14.14 21.6833 14.0644 21.6917 13.9915 21.6917H13.9663L2.98879 21.6497C2.74789 21.6245 2.5014 21.5572 2.32213 21.3752C2.13165 21.1987 2.02521 20.9522 2.02521 20.6945C2.02521 20.5376 2.05882 20.3696 2.13165 20.2295L7.66944 9.22394C7.77588 8.99985 7.97476 8.81778 8.22126 8.73375C8.28305 8.71457 8.34645 8.70998 8.41271 8.70519C8.43357 8.70368 8.4547 8.70215 8.47616 8.70014V5.31079C8.91874 5.66934 9.52938 5.97466 10.3193 6.20715C11.619 6.60491 13.3165 6.82059 15.1008 6.82059C16.8879 6.82059 18.591 6.60491 19.8823 6.20715C20.6554 5.97466 21.266 5.68334 21.7114 5.3276V9.27436C21.4873 9.69733 20.8291 10.2548 19.6274 10.6273C18.4229 10.9886 16.8179 11.1875 15.1036 11.1875ZM8.80949 10.815L11.4173 16.1063L11.9187 17.1287L13.5574 20.4424H13.1708L3.43417 20.4004L8.53779 10.2576L8.80949 10.815ZM8.49017 17.983C8.14843 17.983 7.87392 17.7029 7.87392 17.3612V13.3388C7.87392 12.9942 8.15123 12.7169 8.49017 12.7169C8.8291 12.7169 9.10641 12.997 9.10641 13.3388V17.3612C9.10641 17.7057 8.8291 17.983 8.49017 17.983ZM8.49017 18.3331C8.8375 18.3331 9.11761 18.6161 9.11761 18.9662C9.11761 19.3163 8.8375 19.5993 8.49017 19.5993C8.14283 19.5993 7.86272 19.3163 7.86272 18.9662C7.86272 18.6161 8.14283 18.3331 8.49017 18.3331Z" fill="#313235"/>
</svg>
