<svg width="24" height="24" viewBox="0 0 24 24" fill="none" xmlns="http://www.w3.org/2000/svg">
<path fill-rule="evenodd" clip-rule="evenodd" d="M9.85431 5.34452C8.62743 4.99439 7.88233 4.521 7.68065 3.97478C7.68065 3.97154 7.68065 3.96955 7.68017 3.96768C7.6794 3.96471 7.67741 3.96206 7.67225 3.95517C7.87113 3.40896 8.61622 2.92437 9.83471 2.57423C11.1288 2.20728 12.8375 2 14.6498 2C16.4621 2 18.1736 2.20448 19.4565 2.57423C20.7394 2.94397 21.4677 3.42576 21.6274 3.99999C21.6274 3.99999 21.6162 4.00839 21.6162 4.0168C21.4005 4.54621 20.6638 5.00279 19.4649 5.34452C18.1708 5.71147 16.4733 5.91875 14.6582 5.91875C12.8431 5.91875 11.1484 5.71147 9.85431 5.34452ZM7.43976 14.5798C7.43976 15.8851 8.10922 16.5209 9.48457 16.5209C10.8599 16.5209 11.5322 15.8879 11.5322 14.5798C11.5322 13.2745 10.8627 12.6386 9.48457 12.6386C8.10922 12.6386 7.43976 13.2745 7.43976 14.5798ZM9.48457 17.731C11.563 17.731 12.8039 16.5518 12.8039 14.5798C12.8039 12.605 11.5658 11.4285 9.48457 11.4285C7.40614 11.4285 6.16525 12.605 6.16525 14.5798C6.16525 16.5546 7.40614 17.731 9.48457 17.731ZM7.09242 18.2352C7.46497 18.4089 7.89914 18.5377 8.38093 18.6106C8.68905 18.6582 8.91314 18.9103 8.91314 19.2072V20.4313L10.0084 20.4761C10.0336 20.4761 10.0532 20.4565 10.0532 20.4313V19.2072C10.0532 18.9103 10.2801 18.6582 10.5882 18.6106C10.8067 18.577 11.0084 18.5293 11.2044 18.4761C11.4397 18.4117 11.6638 18.3333 11.8823 18.2324C12.126 18.1176 12.4201 18.1652 12.6106 18.3473L13.3081 19.0111L13.5014 19.1932L13.5658 19.2548L14.4089 18.5265L13.4565 17.5462C13.3893 17.4817 13.3445 17.4033 13.3137 17.3221C13.2577 17.1708 13.2577 17.0027 13.3361 16.8515C13.4061 16.7198 13.4593 16.5742 13.5126 16.4285L13.5126 16.4285C13.605 16.1792 13.6834 15.9159 13.731 15.6302C13.7815 15.3361 14.0476 15.1204 14.3613 15.1204H15.6526L15.7002 14.084L14.3641 14.0392C14.0504 14.0392 13.7843 13.8235 13.7338 13.5294C13.6554 13.0728 13.5238 12.661 13.3389 12.3053C13.3137 12.2577 13.2997 12.2072 13.2913 12.1568C13.2801 12.1092 13.2801 12.0644 13.2801 12.0196V12.0196C13.2857 11.8683 13.3417 11.7198 13.4593 11.6078L13.9355 11.1568L14.4145 10.703L13.6498 9.90193L12.6162 10.8067C12.4229 10.9888 12.1316 11.0364 11.8879 10.9243C11.5014 10.7451 11.098 10.6274 10.6302 10.5546L10.5966 10.5462C10.2885 10.4986 10.0616 10.2465 10.0616 9.94955V8.72266L8.96636 8.68064V8.70305L8.91874 9.95235C8.91874 10.2493 8.69465 10.5014 8.38653 10.549C7.90474 10.6218 7.47057 10.7479 7.09802 10.9243C6.85433 11.0392 6.55741 10.9944 6.36413 10.8095L5.40895 9.90473L4.56582 10.6302L5.5182 11.6106C5.71988 11.8039 5.76469 12.098 5.62184 12.3361C5.45377 12.6162 5.31091 13.14 5.24369 13.535C5.19327 13.8263 4.92716 14.042 4.61624 14.042H3.32773L3.28011 15.0812L4.61624 15.1232C4.92716 15.1232 5.19607 15.3389 5.24369 15.6302C5.31091 16.0252 5.45377 16.5462 5.62184 16.8291C5.76189 17.0644 5.71988 17.3613 5.5182 17.5518L4.56582 18.4565L5.33052 19.2576L6.36413 18.3501C6.48458 18.2352 6.64984 18.1736 6.81231 18.1736C6.90475 18.1736 7.00278 18.1932 7.09242 18.2352ZM19.7422 11.4649C18.4005 11.8515 16.6386 12.0644 14.7731 12.0728L15.3165 11.5518C15.4453 11.4313 15.5406 11.2913 15.6078 11.1372C17.0728 11.07 18.4341 10.8767 19.4957 10.563C20.7674 10.1848 21.4593 9.62182 21.6918 9.19885L21.6526 5.25489C21.1848 5.61903 20.5461 5.91035 19.7254 6.15124C18.3529 6.5574 16.5518 6.7899 14.6526 6.8067C12.7563 6.82351 10.9495 6.62183 9.5686 6.24088C8.72547 6.01679 8.07281 5.71707 7.59662 5.36133L7.63023 8.74507L7.64984 8.74787V9.45095C7.40895 9.50977 7.18206 9.5798 6.96077 9.65823L6.31371 9.04479C5.81231 8.5686 4.93837 8.5686 4.43417 9.04479L3.66947 9.76747C3.41737 10.0056 3.27731 10.3221 3.27731 10.661C3.27731 10.9972 3.41737 11.3165 3.66666 11.5546L4.30812 12.1624C4.21848 12.3893 4.14845 12.6218 4.09803 12.8235H3.32773C2.59944 12.8235 2.00841 13.3837 2.00841 14.0756V15.07C2.00841 15.759 2.59944 16.3221 3.32773 16.3221H4.09803C4.14845 16.5266 4.21568 16.759 4.30812 16.9831L3.66666 17.591C3.41456 17.8291 3.27451 18.1456 3.27451 18.4845C3.27451 18.8207 3.41456 19.14 3.66386 19.3781L4.42857 20.1064C4.93277 20.5854 5.80671 20.5826 6.30811 20.1064L6.95517 19.4929C7.17645 19.5742 7.40334 19.6414 7.64424 19.6974V20.4313C7.64424 21.1204 8.23527 21.6834 8.96356 21.6834H10.0112C10.3557 21.6834 10.6694 21.5545 10.9047 21.3473C12.0168 21.5601 13.3081 21.675 14.6526 21.675C16.4565 21.675 18.1652 21.4705 19.4593 21.1008C20.9327 20.6778 21.6778 20.1036 21.6778 19.4061V15.8655C21.1764 16.2324 20.5153 16.5462 19.7422 16.7618C18.4677 17.126 16.8179 17.3305 15.0616 17.3585L14.6638 16.9831C14.731 16.8207 14.7843 16.6442 14.8347 16.4705C16.5826 16.4593 18.2268 16.2576 19.4677 15.9019C20.7422 15.5322 21.4397 14.9775 21.6778 14.5574V10.577C21.1764 10.9439 20.5153 11.2493 19.7422 11.4649Z" fill="#313235"/>
</svg>
