<svg width="24" height="24" viewBox="0 0 24 24" fill="none" xmlns="http://www.w3.org/2000/svg">
<path fill-rule="evenodd" clip-rule="evenodd" d="M20.8852 14.6067C20.3334 15.1978 19.5379 15.4975 18.5295 15.4975L14.4679 15.5031V16.279H21.0869C21.4258 16.2818 21.6947 16.5619 21.6891 16.8981C21.6947 17.2342 21.423 17.5115 21.0869 17.5171H14.4707V18.2874C14.4763 18.6235 14.2046 18.9009 13.8684 18.9065C10.872 18.9065 8.61481 20.0816 8.51852 20.1318C8.51688 20.1326 8.51586 20.1332 8.51549 20.1333C8.43426 20.1726 8.34742 20.195 8.25779 20.1978C8.25358 20.1978 8.25008 20.1992 8.24658 20.2006C8.24308 20.202 8.23958 20.2034 8.23538 20.2034C8.13734 20.2006 8.0421 20.1782 7.95527 20.1305C7.93286 20.1165 5.63314 18.9037 2.60234 18.9037C2.269 18.9037 2.0001 18.6263 2.0001 18.2846V9.9541C1.99449 9.63477 2.23539 9.36586 2.55472 9.33785C2.62194 9.33225 3.44547 9.27343 4.58272 9.39668V7.03253C4.58272 6.03254 4.85443 5.24262 5.38664 4.6796C5.93846 4.09977 6.72838 3.80565 7.73958 3.80565L18.5295 3.80005C19.5407 3.80005 20.3306 4.09136 20.8824 4.674C21.4146 5.23422 21.6863 6.02413 21.6863 7.02413V12.2482C21.6863 13.2482 21.4146 14.0409 20.8852 14.6067ZM13.2634 17.6796C11.339 17.7692 9.75918 18.2706 8.83482 18.6376V11.4863C10.4959 10.6768 12.3586 10.5591 13.2634 10.5563V17.6796ZM7.63034 18.6348C6.21577 18.0773 4.71998 17.7524 3.20457 17.6768V10.5591C3.68076 10.5619 4.42306 10.5984 5.26059 10.7468C5.44547 10.7804 5.63314 10.8168 5.82362 10.8617C5.83762 10.8645 5.85163 10.8687 5.86563 10.8729C5.87964 10.8771 5.89364 10.8813 5.90765 10.8841C6.07572 10.9261 6.24378 10.9681 6.41465 11.0213C6.49306 11.0465 6.57426 11.0745 6.65546 11.1025L6.65549 11.1025L6.65555 11.1026C6.7788 11.1418 6.89924 11.181 7.02249 11.2286C7.22698 11.307 7.43146 11.3939 7.63314 11.4919L7.63034 18.6348Z" fill="#313235"/>
</svg>
