<svg width="24" height="24" viewBox="0 0 24 24" fill="none" xmlns="http://www.w3.org/2000/svg">
<path fill-rule="evenodd" clip-rule="evenodd" d="M21.7142 9.38092C21.7142 4.62464 19.084 2 14.3249 2C10.8851 2 8.54899 3.37534 7.52658 5.94116H5.07281C4.08682 5.94116 3.35013 6.20726 2.80952 6.74788C2.28291 7.28289 2.02521 8.01398 2.02521 8.98877V18.6358C2.02521 19.6358 2.28291 20.3753 2.81792 20.9019C3.35293 21.4285 4.08682 21.6862 5.07281 21.6862H9.91593C10.9019 21.6862 11.6442 21.4257 12.1708 20.9019C12.7058 20.3753 12.9635 19.6358 12.9635 18.6358V16.661C13.3977 16.7114 13.8487 16.745 14.3249 16.745C19.084 16.745 21.7142 14.1288 21.7142 9.38092ZM11.7114 8.98877V18.6358C11.7114 19.2772 11.5798 19.7366 11.2857 20.0195C11 20.294 10.5518 20.4369 9.91593 20.4369H5.07281C4.43696 20.4369 3.98598 20.294 3.70307 20.0195C3.41176 19.7366 3.2773 19.2772 3.2773 18.6358V8.98877C3.2773 8.36412 3.41176 7.91594 3.70307 7.62463C3.99719 7.33331 4.43976 7.19045 5.07281 7.19045H9.91593C10.5602 7.19045 11.0112 7.33331 11.2941 7.61622C11.577 7.89914 11.7114 8.34731 11.7114 8.98877ZM16.1708 12.0812C16.2941 12.2016 16.4537 12.2633 16.6134 12.2633C16.7758 12.2633 16.9327 12.2016 17.056 12.0812C17.2997 11.8375 17.2997 11.4425 17.056 11.196L15.1568 9.30249V6.74788C15.1568 6.40334 14.8767 6.12323 14.5294 6.12323C14.1848 6.12323 13.9019 6.40334 13.9019 6.74788V9.56299C13.9019 9.72826 13.9691 9.88792 14.0868 10.0056L16.1708 12.0812ZM8.3137 18.5209C8.3137 18.0055 8.00838 17.7002 7.49577 17.7002C6.98317 17.7002 6.67785 18.0055 6.67785 18.5209C6.67785 18.773 6.74788 18.9719 6.89073 19.1176C7.03359 19.2632 7.24367 19.3417 7.49577 19.3417C7.74787 19.3417 7.95796 19.2632 8.10081 19.1176C8.24367 18.9719 8.3137 18.773 8.3137 18.5209Z" fill="#313235"/>
</svg>
