<svg width="24" height="24" viewBox="0 0 24 24" fill="none" xmlns="http://www.w3.org/2000/svg">
<path fill-rule="evenodd" clip-rule="evenodd" d="M20.7899 9.8966C20.8892 9.99588 20.9607 10.1195 20.9972 10.2551C21.028 10.3336 21.0448 10.4176 21.0448 10.5016V20.5829C21.0448 21.2691 20.4622 21.8462 19.7675 21.8462H9.82352C9.12884 21.8462 8.54341 21.2691 8.54341 20.5829V17.9694H4.2521C3.58543 17.9694 3 17.3896 3 16.7313V3.40081C3 2.72854 3.57423 2.15991 4.2549 2.15991H13.8179C14.4986 2.15991 15.0728 2.72854 15.0728 3.40081V5.45683H15.8767C16.0952 5.45683 16.3081 5.54086 16.465 5.69492L20.7899 9.8966ZM13.8207 5.45683H9.82352C9.14005 5.45683 8.54341 6.04786 8.54341 6.72013V16.7145L4.2493 16.7313L4.2521 3.41761L13.8207 3.40081V5.45683ZM18.0364 10.0899C17.5042 10.0899 17.0588 9.93021 16.7479 9.62489C16.4398 9.32797 16.2801 8.9022 16.2801 8.4008V7.26355L19.1877 10.0899H18.0364Z" fill="#313235"/>
</svg>
