<svg width="24" height="24" viewBox="0 0 24 24" fill="none" xmlns="http://www.w3.org/2000/svg">
<path fill-rule="evenodd" clip-rule="evenodd" d="M15.1232 11.1736C16.3529 11.7787 17.2128 12.9412 17.4285 14.2941C17.6722 15.8179 17.196 17.3725 16.1372 18.4986C15.4145 19.2745 14.4706 19.8067 13.4341 20.0224V20.4005C13.4341 21.0952 12.9047 21.6582 12.2493 21.6582C11.591 21.6582 11.0616 21.0952 11.0616 20.4005V20.0672C9.77589 19.8487 8.5602 19.3305 7.51259 18.5546C6.97477 18.1568 6.84312 17.3753 7.21847 16.8039C7.23528 16.7787 7.25208 16.7535 7.27169 16.7283C7.64704 16.2213 8.36413 16.1148 8.87113 16.493C9.52379 16.9776 10.2689 17.3249 11.0588 17.5154V12.8347C10.098 12.6414 9.12603 12.2913 8.31651 11.3977C7.51259 10.5154 7.14284 9.33052 7.27729 8.07002C7.43416 6.61344 8.25768 5.20447 9.43135 4.39215C9.92715 4.05322 10.479 3.80672 11.0616 3.66666V3.2577C11.0616 2.56302 11.5938 2 12.2493 2C12.9047 2 13.4341 2.56302 13.4341 3.2577V3.60224C14.5658 3.80392 15.6246 4.30252 16.5042 5.04481C17.014 5.49859 17.0896 6.2717 16.675 6.81512C16.6592 6.83885 16.6384 6.86258 16.6197 6.88398L16.6162 6.88794C16.2016 7.36133 15.4818 7.40895 15.0084 6.99439C14.5798 6.62464 14.028 6.33332 13.4369 6.16806V10.661C14.0028 10.7619 14.5714 10.9019 15.1232 11.1736ZM10.0336 9.65265C9.71987 9.30811 9.58821 8.86833 9.64143 8.35013C9.71987 7.63304 10.1484 6.90195 10.7367 6.49579C10.8196 6.43753 10.9097 6.3936 10.9998 6.34968L10.9998 6.34967C11.0223 6.33869 11.0448 6.32772 11.0672 6.31652V10.2521C10.6554 10.1316 10.3053 9.95236 10.0336 9.65265ZM14.4537 16.7311C14.1624 17.0448 13.8123 17.2521 13.4369 17.4033V13.2381C13.6806 13.2969 13.9215 13.3557 14.1232 13.4566C14.7983 13.7899 15.0196 14.3361 15.0896 14.7367C15.2101 15.4201 14.9636 16.1848 14.4537 16.7311Z" fill="#313235"/>
</svg>
