<svg width="24" height="24" viewBox="0 0 24 24" fill="none" xmlns="http://www.w3.org/2000/svg">
<path fill-rule="evenodd" clip-rule="evenodd" d="M17.6946 2.83193C17.1512 2.27171 16.3501 2 15.2408 2H8.60219C6.44534 2 5.35291 3.10644 5.35291 5.2913V18.3949C5.35291 20.6106 6.41453 21.6862 8.60219 21.6862H15.2408C17.4285 21.6862 18.4901 20.6106 18.4901 18.3949V5.2913C18.4901 4.18486 18.2296 3.38095 17.6946 2.83193ZM12.7478 19.0532C12.5518 19.252 12.2688 19.3585 11.9271 19.3585C11.5854 19.3585 11.2997 19.252 11.1064 19.0532C10.9131 18.8543 10.8179 18.5826 10.8179 18.2436C10.8179 17.5462 11.2324 17.1288 11.9299 17.1288C12.6274 17.1288 13.0391 17.5462 13.0391 18.2436C13.0363 18.5826 12.9383 18.8543 12.7478 19.0532ZM12.2997 15.7394L15.6078 11.9299C15.6862 11.8375 15.731 11.7226 15.7282 11.5994C15.7282 11.3249 15.5041 11.1008 15.2268 11.1008H13.7366V6.23248C13.7422 6.20166 13.7422 6.17365 13.7422 6.14284C13.7394 5.66105 13.3501 5.2745 12.8683 5.2745H11.0336C10.7534 5.25209 10.4817 5.35853 10.2913 5.56301C10.1344 5.72828 10.0504 5.95236 10.0588 6.17925V11.1008H8.6218C8.50135 11.1008 8.38651 11.1456 8.29407 11.2241C8.08399 11.4033 8.06158 11.7198 8.24365 11.9299L11.5434 15.7394C11.6386 15.8487 11.7758 15.9131 11.9215 15.9131C12.0672 15.9131 12.2044 15.8487 12.2997 15.7394Z" fill="#313235"/>
</svg>
