<svg width="24" height="24" viewBox="0 0 24 24" fill="none" xmlns="http://www.w3.org/2000/svg">
<path fill-rule="evenodd" clip-rule="evenodd" d="M10.9482 3C11.8654 3 16.4357 3.2163 17.7504 7.33209C19.3312 7.45568 23 8.25907 23 13.0732C23 18.5918 18.1824 18.8637 17.2183 18.8637L15.8472 18.873L12.6574 21.7775C12.4727 21.9258 12.2504 22 12.0219 22C11.7903 22 11.5711 21.9258 11.4052 21.7868L8.27177 18.9224L5.72681 18.9317C3.4354 18.9317 1 17.6803 1 14.1516C1 11.2748 2.61838 10.1532 3.79539 9.71443C3.92373 3.32753 9.76181 3 10.9482 3ZM16.5546 16.9881L17.0148 16.5123C17.115 16.398 17.1431 16.2496 17.0899 16.1075C17.0336 15.9685 16.9052 15.885 16.7487 15.885H14.6796C14.5982 15.885 14.5418 15.8201 14.5418 15.746L14.5231 10.5734V10.5703C14.5231 10.3695 14.3603 10.2088 14.1568 10.2088H9.83381C9.63347 10.2088 9.46756 10.3757 9.46756 10.5734V15.6409C9.46756 15.7182 9.40182 15.7831 9.32982 15.7831H7.25128C7.09789 15.7831 6.96642 15.8758 6.9132 16.0179C6.85373 16.1508 6.8819 16.3053 6.9852 16.4103L7.54553 16.9974L12.0125 21.0792L16.5546 16.9881Z" fill="#313235"/>
</svg>
