<svg width="24" height="24" viewBox="0 0 24 24" fill="none" xmlns="http://www.w3.org/2000/svg">
<path fill-rule="evenodd" clip-rule="evenodd" d="M9.26889 10.4971C8.49299 9.06016 7.42576 8.07416 6.09523 7.56716C5.81792 7.46072 5.67787 7.1498 5.78431 6.86968C5.89075 6.59237 6.20167 6.45232 6.48179 6.55876C8.06161 7.1638 9.31931 8.31506 10.2185 9.98452L10.3109 10.161L9.53378 10.9829C9.50502 10.9503 9.48372 10.9126 9.46497 10.8725C9.40055 10.7464 9.33612 10.6204 9.26889 10.4971ZM9.53462 10.9898C8.78983 11.5568 7.78252 11.8501 6.53221 11.8501C3.61905 11.8501 2.01401 10.259 2.01401 7.37108V4.48313C2.01401 3.57837 2.7507 2.84448 3.65546 2.84448H6.55742C7.97478 2.84448 9.08122 3.22263 9.84872 3.96773C10.6386 4.73804 11.042 5.87529 11.042 7.34867C11.042 8.49713 10.7927 9.43831 10.3109 10.161C11.224 12.0278 11.6393 14.2904 11.8456 16.1688C12.2292 14.8372 12.6919 13.6374 13.2233 12.6386C12.8373 11.9526 12.6386 11.0903 12.6386 10.0686C12.6386 8.59517 13.0392 7.45792 13.8319 6.68761C14.5994 5.94252 15.7059 5.56436 17.1232 5.56436H20.028C20.9327 5.56436 21.6666 6.29826 21.6694 7.20302V10.091C21.6694 12.9789 20.0644 14.5699 17.1512 14.5699C15.7815 14.5699 14.7283 14.2394 13.9664 13.5587C13.9951 13.5318 14.01 13.4911 14.0251 13.4499C14.0336 13.4267 14.0421 13.4034 14.0532 13.3823C15.1316 11.2366 16.479 10.0041 18.0588 9.71562C18.3529 9.6624 18.5462 9.38228 18.493 9.08817C18.4397 8.79405 18.1596 8.60077 17.8655 8.65399C16.0032 8.99285 14.4433 10.334 13.225 12.6383L13.9664 13.5587C13.1645 15.2125 12.5495 17.3143 12.1377 19.8124C12.1407 20.0644 11.9647 20.2917 11.7087 20.3458C11.4173 20.4075 11.1316 20.2198 11.07 19.9285L11.0658 19.9047L11.0616 19.8809C11.0094 19.5569 10.9815 19.0795 10.9461 18.475L10.944 18.4383L10.9387 18.3453C10.8321 16.4668 10.6593 13.4218 9.53462 10.9898Z" fill="#313235"/>
</svg>
