<svg width="24" height="24" viewBox="0 0 24 24" fill="none" xmlns="http://www.w3.org/2000/svg">
<path fill-rule="evenodd" clip-rule="evenodd" d="M2.16 11.8459C2.16 5.40336 5.56336 2 12.0003 2C18.4429 2 21.8463 5.40336 21.8463 11.8459C21.8463 18.2829 18.4429 21.6863 12.0003 21.6863C5.56336 21.6863 2.16 18.2857 2.16 11.8459ZM13.2805 17.5602C14.4877 17.5602 15.5354 17.3557 16.3981 16.9496C16.6978 16.8095 16.8267 16.4482 16.6838 16.1485C16.541 15.8459 16.1824 15.7171 15.8799 15.8599C15.1796 16.1877 14.3029 16.3557 13.2777 16.3557C10.8183 16.3557 9.32807 15.4398 8.75104 13.5826H12.3113C12.6418 13.5826 12.9135 13.3137 12.9135 12.9804C12.9135 12.6471 12.6446 12.3782 12.3113 12.3782H8.52975L8.5282 12.3632C8.50071 12.0995 8.47373 11.8405 8.47373 11.5546C8.47373 11.4815 8.48033 11.414 8.48697 11.3462C8.49177 11.2971 8.49659 11.2478 8.49894 11.1961H12.3113C12.6418 11.1961 12.9135 10.9244 12.9135 10.5938C12.9135 10.2633 12.6446 9.9916 12.3113 9.9916H8.6474C9.11519 7.82633 10.6306 6.7507 13.2805 6.7507C14.2973 6.7507 15.1628 6.91317 15.8575 7.23529C16.16 7.37535 16.5185 7.2437 16.6586 6.94118C16.7987 6.63866 16.667 6.28011 16.3645 6.14006C15.5101 5.7451 14.4709 5.54342 13.2805 5.54342C9.96393 5.54342 7.92751 7.10924 7.4065 9.9888H6.38129C6.05076 9.9888 5.77905 10.2605 5.77905 10.591C5.77905 10.9216 6.04796 11.1933 6.38129 11.1933H7.28325C7.28189 11.2219 7.28036 11.2506 7.27882 11.2793C7.27406 11.3686 7.26925 11.4586 7.26925 11.5518C7.26925 11.8375 7.28605 12.1092 7.30846 12.3753H6.38129C6.05076 12.3753 5.77905 12.6443 5.77905 12.9776C5.77905 13.3081 6.04796 13.5798 6.38129 13.5798H7.50174C8.1488 16.1625 10.1432 17.5602 13.2805 17.5602Z" fill="#313235"/>
</svg>
