<svg width="24" height="24" viewBox="0 0 24 24" fill="none" xmlns="http://www.w3.org/2000/svg">
<path fill-rule="evenodd" clip-rule="evenodd" d="M21.4229 7.37534C21.5938 7.54621 21.6862 7.76469 21.6862 7.99999V20.3053C21.6862 21.056 21.042 21.689 20.2773 21.689H8.09803C7.34733 21.689 6.68907 21.042 6.68907 20.3053L6.72268 17.5322H4.42296C3.08403 17.5266 2.0028 16.4425 2 15.1064V11.014C2 9.67505 3.08403 8.59102 4.42016 8.58822H6.68626V3.38375C6.68626 2.65826 7.35853 2 8.09523 2H15.5098C15.7395 2 15.9552 2.08683 16.1204 2.2437L21.4229 7.37534ZM15.8459 3.66946L19.9635 7.65265H18.1596C17.465 7.65265 16.8823 7.44257 16.4678 7.04201C16.0616 6.64705 15.8459 6.09243 15.8459 5.43417V3.66946ZM4.42016 16.3165C3.7535 16.3165 3.21288 15.7731 3.21288 15.1064V11.0112C3.21288 10.3417 3.7535 9.8011 4.42016 9.8011H14.2661C14.9327 9.8011 15.4734 10.3445 15.4734 11.0112V15.1064C15.4734 15.7731 14.9327 16.3165 14.2661 16.3165H4.42016ZM8.7871 11.2549H9.63304V14.958H8.7871V11.2549ZM5.32772 14.4622L7.12604 11.8795H5.38095V11.2577H8.16525V11.7759L6.39495 14.3361H8.17646V14.958H5.32772V14.4622ZM11.7143 11.2549H10.4426H10.437V14.958H11.2829V13.6806H11.8795C12.3669 13.6806 12.7031 13.5658 12.9187 13.3221C13.1036 13.1148 13.1961 12.8179 13.1961 12.4229C13.1961 12.028 13.1008 11.7423 12.8991 11.5574C12.661 11.3361 12.2941 11.2549 11.7143 11.2549ZM11.7059 13.0476C11.9776 13.0476 12.0896 13.0084 12.1989 12.9075C12.2969 12.8095 12.3445 12.6526 12.3445 12.437C12.3445 12.2381 12.3025 12.0896 12.2045 11.9972C12.1008 11.9047 11.944 11.8683 11.6835 11.8683H11.2885V13.0504H11.7059V13.0476Z" fill="#313235"/>
</svg>
