<svg width="24" height="24" viewBox="0 0 24 24" fill="none" xmlns="http://www.w3.org/2000/svg">
<path fill-rule="evenodd" clip-rule="evenodd" d="M21.6386 7.78704C21.6694 7.85987 21.6862 7.9411 21.6862 8.02513V20.3304C21.6862 21.0811 21.042 21.7142 20.2773 21.7142H8.09523C7.34453 21.7142 6.68907 21.0671 6.68907 20.3304L6.72269 17.5601H4.42297C3.08964 17.5601 2.00281 16.4705 2.00281 15.1344V11.0391C2.00281 9.703 3.08964 8.61337 4.42297 8.61337H6.68907V3.4089C6.68907 2.68341 7.36134 2.02515 8.09523 2.02515H15.5098C15.7423 2.02515 15.9608 2.11198 16.1232 2.27445L21.4201 7.40049C21.5322 7.50973 21.5966 7.64418 21.6386 7.78704ZM19.9579 7.6778L19.9608 7.6806V7.6778H19.9579ZM19.9579 7.6778L15.8459 3.69461V5.45931C15.8459 6.11757 16.0616 6.6722 16.4678 7.06715C16.8823 7.46771 17.465 7.6778 18.1596 7.6778H19.9579ZM4.42017 16.3444C3.7535 16.3444 3.21289 15.801 3.21289 15.1344V11.0391C3.21289 10.3725 3.7535 9.82905 4.42017 9.82905H14.2661C14.9328 9.82905 15.4734 10.3725 15.4734 11.0391V15.1344C15.4734 15.801 14.9328 16.3444 14.2661 16.3444H4.42017ZM6.20728 11.3949H7.13445L8.46498 15.0783H7.56582L7.2577 14.1512H6.06162L5.77591 15.0783H4.97199L6.20728 11.3949ZM7.05322 13.5433L6.64986 12.3164H6.63865L6.2549 13.5433H7.05322ZM9.22968 11.3949H8.33053L9.61344 15.0783H10.4902L11.7143 11.3949H10.8963L10.0924 14.0671L9.22968 11.3949ZM12.1905 11.3949H13.0308V15.0783H12.1905V11.3949Z" fill="#313235"/>
</svg>
