<svg width="24" height="24" viewBox="0 0 24 24" fill="none" xmlns="http://www.w3.org/2000/svg">
<path fill-rule="evenodd" clip-rule="evenodd" d="M21.6386 7.78704C21.6694 7.85987 21.6862 7.9411 21.6862 8.02513V20.3304C21.6862 21.0811 21.042 21.7142 20.2773 21.7142H8.09523C7.34453 21.7142 6.68626 21.0671 6.68626 20.3304L6.71988 17.5601H4.42016C3.08683 17.5601 2 16.4705 2 15.1344V11.0391C2 9.703 3.08683 8.61337 4.42016 8.61337H6.68626V3.4089C6.68626 2.68341 7.35853 2.02515 8.09523 2.02515H15.5098C15.7395 2.02515 15.9552 2.11198 16.1204 2.26884L21.4201 7.40049C21.5294 7.50693 21.5938 7.64418 21.6386 7.78704ZM19.9579 7.6778L19.9607 7.6806V7.6778H19.9579ZM19.9579 7.6778L15.8459 3.69461V5.45931C15.8459 6.11757 16.0616 6.6722 16.4678 7.06715C16.8823 7.46771 17.465 7.6778 18.1596 7.6778H19.9579ZM4.42016 16.3444C3.7535 16.3444 3.21288 15.801 3.21288 15.1344V11.0391C3.21288 10.3725 3.7535 9.82905 4.42016 9.82905H14.2661C14.9327 9.82905 15.4734 10.3725 15.4734 11.0391V15.1344C15.4734 15.801 14.9327 16.3444 14.2661 16.3444H4.42016ZM5.84873 11.2968H4.57703V14.9999H5.41736V13.7226H6.014C6.50139 13.7226 6.83752 13.6078 7.05321 13.3641C7.23808 13.1596 7.33052 12.8599 7.33052 12.4649C7.33052 12.0699 7.23528 11.7842 7.0336 11.5994C6.79551 11.3781 6.42856 11.2968 5.84873 11.2968ZM6.33052 12.9495C6.22128 13.0503 6.10923 13.0895 5.83753 13.0895V13.0924H5.42016V11.9103H5.81512C6.07562 11.9103 6.23248 11.9467 6.33613 12.0391C6.43416 12.1316 6.47618 12.28 6.47618 12.4789C6.47618 12.6946 6.42856 12.8515 6.33052 12.9495ZM7.93276 11.2968H9.07562C9.7787 11.2968 10.2465 11.4061 10.5546 11.7142C10.8515 12.0055 11.0056 12.4677 11.0056 13.1344C11.0056 13.8066 10.8599 14.2716 10.5546 14.5853C10.2773 14.8683 9.85152 15.0027 9.19046 15.0027H7.93276V11.2968ZM9.92996 14.0559C9.7843 14.2716 9.51259 14.3865 9.13444 14.3865H8.7759V11.9159H9.0364C9.44816 11.9159 9.69746 11.9803 9.86553 12.1596C10.0448 12.3529 10.126 12.6022 10.126 13.1344C10.126 13.5909 10.0756 13.8402 9.92996 14.0559ZM11.6498 11.2968H14.0924L14.028 11.9075H12.4958V12.8066H13.7087V13.4397H12.4958V14.9999H11.6498V11.2968Z" fill="#313235"/>
</svg>
