<svg width="24" height="24" viewBox="0 0 24 24" fill="none" xmlns="http://www.w3.org/2000/svg">
<path fill-rule="evenodd" clip-rule="evenodd" d="M19.1974 7.76742C19.2283 7.84025 19.2451 7.92148 19.2451 8.00551V20.2856C19.2451 21.0335 18.612 21.6665 17.8613 21.6665H5.89495C5.15826 21.6665 4.5112 21.0223 4.5112 20.2856V3.40048C4.5112 2.67779 5.16946 2.01953 5.89495 2.01953H13.1778C13.4047 2.01953 13.6204 2.10637 13.7801 2.26603L18.9846 7.38367C19.091 7.48731 19.1554 7.62456 19.1974 7.76742ZM17.5504 7.66098L13.5084 3.68339V5.44529C13.5084 6.10076 13.7185 6.65538 14.1218 7.05033C14.528 7.44809 15.1022 7.66098 15.7829 7.66098H17.5504ZM7.66806 9.731H16.0882C16.6316 9.731 17.1106 10.168 17.105 10.6638V18.4789C17.105 18.9775 16.6288 19.4145 16.0854 19.4145H7.66525C7.11344 19.4145 6.64565 18.9831 6.64565 18.4789V10.6638C6.64565 10.1596 7.11344 9.731 7.66806 9.731ZM9.49438 14.1316C9.02099 14.1316 8.63724 13.7422 8.63724 13.2604C8.63724 12.7786 9.02099 12.3893 9.49438 12.3893C9.96777 12.3893 10.3515 12.7786 10.3515 13.2604C10.3487 13.7422 9.96497 14.1316 9.49438 14.1316ZM8.34032 17.3948C8.44396 17.5209 8.58962 17.5853 8.73808 17.5853C8.85573 17.5853 8.97338 17.5433 9.06581 17.4621L11.1526 15.6946L12.5616 17.0447C12.7689 17.2436 13.0966 17.2324 13.2927 17.0223C13.4888 16.8122 13.4776 16.4789 13.2703 16.28L12.556 15.5937L13.682 14.6834L14.8613 15.6021C15.0854 15.7786 15.4131 15.7366 15.5868 15.5041C15.7577 15.2744 15.7157 14.9439 15.4888 14.7674L13.9902 13.5993C13.8053 13.4509 13.542 13.4565 13.3571 13.6049L11.7997 14.8654L11.5308 14.6077C11.3403 14.4285 11.0462 14.4201 10.8445 14.5881L8.40755 16.6526C8.18906 16.8402 8.15825 17.1708 8.34032 17.3948Z" fill="#313235"/>
</svg>
