<svg width="24" height="24" viewBox="0 0 24 24" fill="none" xmlns="http://www.w3.org/2000/svg">
<path fill-rule="evenodd" clip-rule="evenodd" d="M19.2899 7.99999C19.2899 7.91595 19.2731 7.83192 19.2423 7.75909C19.2002 7.61623 19.133 7.47898 19.0294 7.37534L13.8165 2.2493C13.6512 2.08964 13.4383 2 13.2087 2H5.90895C5.18346 2 4.5224 2.65826 4.5224 3.38655V20.3053C4.5224 21.042 5.16946 21.689 5.90895 21.689H17.9033C18.6652 21.6806 19.2787 21.0672 19.2899 20.3053V7.99999ZM13.5392 3.66946L17.5896 7.65265H15.8137C15.133 7.65265 14.5588 7.44257 14.1498 7.04201C13.7521 6.64705 13.5392 6.09243 13.5392 5.43417V3.66946ZM6.23388 7.06441C6.23388 5.94117 6.58122 5.35293 7.49438 5.35293C8.40755 5.35293 8.75488 5.93837 8.75488 7.06441C8.75488 8.19046 8.40755 8.77029 7.49438 8.77029C6.58122 8.77029 6.23388 8.18766 6.23388 7.06441ZM7.49438 5.85713C7.88374 5.85713 8.0378 6.15685 8.0378 7.06441C8.0378 7.97198 7.88374 8.21847 7.49438 8.21847C7.10503 8.21847 6.95097 7.97478 6.95097 7.06441C6.95097 6.15405 7.10503 5.85713 7.49438 5.85713ZM9.25628 12.3949C9.25628 11.2717 9.60362 10.6835 10.5168 10.6835C11.4299 10.6835 11.7773 11.2689 11.7773 12.3949C11.7773 13.521 11.4299 14.1008 10.5168 14.1008C9.60362 14.1008 9.25628 13.5182 9.25628 12.3949ZM10.514 11.1877C10.9033 11.1877 11.0574 11.4874 11.0574 12.3949C11.0574 13.3025 10.9061 13.549 10.514 13.549C10.1246 13.549 9.97057 13.3053 9.97057 12.3949C9.97057 11.4846 10.1246 11.1877 10.514 11.1877ZM12.5056 12.3949C12.5056 11.2717 12.8529 10.6835 13.7661 10.6835C14.6792 10.6835 15.0266 11.2689 15.0266 12.3949C15.0266 13.521 14.6792 14.1008 13.7661 14.1008C12.8529 14.1008 12.5056 13.5182 12.5056 12.3949ZM13.7633 11.1877C14.1526 11.1877 14.3067 11.4874 14.3067 12.3949C14.3067 13.3025 14.1554 13.549 13.7633 13.549C13.3739 13.549 13.2199 13.3053 13.2199 12.3949C13.2199 11.4846 13.3739 11.1877 13.7633 11.1877ZM12.4215 17.5266C12.4215 16.4033 12.7689 15.8151 13.682 15.8151C14.5952 15.8151 14.9425 16.4005 14.9425 17.5266C14.9425 18.6526 14.5952 19.2325 13.682 19.2325C12.7689 19.2325 12.4215 18.6498 12.4215 17.5266ZM13.6792 16.3193C14.0686 16.3193 14.2227 16.619 14.2227 17.5266C14.2227 18.4341 14.0714 18.6806 13.6792 18.6806C13.2899 18.6806 13.1358 18.4369 13.1358 17.5266C13.1358 16.6162 13.2899 16.3193 13.6792 16.3193ZM6.61483 13.5658H7.16665V11.2745H6.64004V10.8151C6.83332 10.7871 7.16105 10.7591 7.39354 10.7591C7.72968 10.7591 7.84452 10.8403 7.84452 11.0812V13.5686H8.30951V14.0532H6.61483V13.5658ZM10.2367 8.25489H9.68485V8.74228H11.3795V8.25769H10.9145V5.7703C10.9145 5.5294 10.7997 5.44817 10.4636 5.44817C10.2311 5.44817 9.90334 5.47618 9.71006 5.50419V5.96358H10.2367V8.25489ZM15.8389 13.5658H16.3907V11.2745H15.8641V10.8151C16.0574 10.7871 16.3851 10.7591 16.6176 10.7591C16.9537 10.7591 17.0686 10.8403 17.0686 11.0812V13.5686H17.5336V14.0532H15.8389V13.5658ZM16.3907 18.6862H15.8389V19.1708H17.5336V18.689H17.0686V16.2017C17.0686 15.9608 16.9537 15.8795 16.6176 15.8795C16.3851 15.8795 16.0574 15.9075 15.8641 15.9355V16.3949H16.3907V18.6862ZM9.73527 18.6862H10.2871V16.3949H9.76048V15.9355C9.95376 15.9075 10.2815 15.8795 10.514 15.8795C10.8501 15.8795 10.965 15.9608 10.965 16.2017V18.689H11.4299V19.1708H9.73527V18.6862ZM7.24788 18.6862H6.69606V19.1708H8.39074V18.689H7.92575V16.2017C7.92575 15.9608 7.81091 15.8795 7.47477 15.8795C7.24228 15.8795 6.91455 15.9075 6.72127 15.9355V16.3949H7.24788V18.6862Z" fill="#313235"/>
</svg>
