<svg width="24" height="24" viewBox="0 0 24 24" fill="none" xmlns="http://www.w3.org/2000/svg">
<path fill-rule="evenodd" clip-rule="evenodd" d="M21.6386 7.76189C21.6694 7.83752 21.6862 7.91595 21.6862 7.99719V20.3025C21.6862 21.0532 21.042 21.6862 20.2773 21.6862H8.09803C7.34733 21.6862 6.68907 21.0392 6.68907 20.3025L6.72268 17.5294H4.42296C3.08403 17.5266 2.0028 16.4425 2 15.1064V11.014C2 9.67505 3.08403 8.59102 4.42016 8.58822H6.68626V3.38375C6.68626 2.65826 7.35853 2 8.09523 2H15.5098C15.7423 2 15.958 2.08683 16.1232 2.2465L21.4201 7.37254C21.5322 7.48458 21.5966 7.61904 21.6386 7.76189ZM15.8459 3.66946L19.9635 7.65265H18.1596C17.4678 7.65265 16.8851 7.43976 16.4706 7.04201C16.0616 6.64705 15.8459 6.09243 15.8459 5.43417V3.66946ZM4.42016 16.3165C3.7535 16.3165 3.21288 15.7731 3.21288 15.1064V11.0112C3.21288 10.3417 3.7535 9.8011 4.42016 9.8011H14.2661C14.9327 9.8011 15.4734 10.3445 15.4734 11.0112V15.1064C15.4734 15.7731 14.9327 16.3165 14.2661 16.3165H4.42016ZM7.81791 14.8123L7.94677 14.168C8.2717 14.2829 8.69746 14.3529 8.96917 14.3529C9.46777 14.3529 9.70026 14.2241 9.70026 13.8823C9.70026 13.5999 9.38562 13.5163 9.01324 13.4174C8.47344 13.274 7.81231 13.0984 7.81231 12.2381C7.81231 11.4874 8.40335 11.1568 9.19046 11.1568C9.549 11.1568 9.93836 11.2101 10.2241 11.3081L10.0952 11.9356C9.7927 11.8543 9.46777 11.8067 9.20727 11.8067C8.75349 11.8067 8.60783 11.9692 8.60783 12.2017C8.60783 12.5025 8.93249 12.5929 9.31254 12.6986C9.84898 12.8479 10.4958 13.0279 10.4958 13.8739C10.4958 14.2045 10.3809 14.4678 10.1877 14.6526C9.92715 14.8963 9.57701 15.0056 9.0448 15.0056C8.57422 15.0028 8.19046 14.9439 7.81791 14.8123ZM5.87394 11.2269H4.60224V14.9299H5.44537V13.6526H6.03921C6.5266 13.6526 6.86273 13.5378 7.07842 13.2941C7.26329 13.0868 7.35573 12.7899 7.35573 12.3949C7.35573 12 7.25769 11.7143 7.05881 11.5294C6.82072 11.3081 6.45377 11.2269 5.87394 11.2269ZM6.35573 12.8767C6.24649 12.9776 6.13445 13.0168 5.86274 13.0168V13.0196H5.44537V11.8403H5.84313C6.10083 11.8403 6.25769 11.8767 6.36134 11.9692C6.45937 12.0588 6.50139 12.2073 6.50139 12.4061C6.50139 12.6218 6.45377 12.7787 6.35573 12.8767ZM12.2857 11.2269H11.1456H11.1428V14.9299H12.3977C13.0588 14.9299 13.4846 14.7927 13.7619 14.5126C14.0644 14.1989 14.2101 13.7339 14.2101 13.0616C14.2101 12.3949 14.0588 11.9356 13.7619 11.6442C13.4538 11.3361 12.9888 11.2269 12.2857 11.2269ZM12.3473 14.3109C12.7255 14.3109 12.9972 14.1961 13.1428 13.9804C13.2885 13.7647 13.3389 13.5154 13.3389 13.0616C13.3389 12.5322 13.2577 12.2829 13.0784 12.0868C12.9103 11.9075 12.661 11.8431 12.2493 11.8431H11.9888V14.3109H12.3473Z" fill="#313235"/>
</svg>
