<svg width="24" height="24" viewBox="0 0 24 24" fill="none" xmlns="http://www.w3.org/2000/svg">
<path fill-rule="evenodd" clip-rule="evenodd" d="M21.6386 7.76189C21.6694 7.83752 21.6862 7.91595 21.6862 7.99719V20.3025C21.6862 21.0532 21.042 21.6862 20.2773 21.6862H8.09803C7.34733 21.6862 6.68907 21.0392 6.68907 20.3025L6.72268 17.5294H4.42296C3.08403 17.5266 2.0028 16.4425 2 15.1064V11.014C2 9.67505 3.08403 8.59102 4.42016 8.58822H6.68626V3.38375C6.68626 2.65826 7.35853 2 8.09523 2H15.5098C15.7423 2 15.958 2.08683 16.1232 2.2465L21.4201 7.37254C21.5322 7.48178 21.5966 7.61904 21.6386 7.76189ZM15.8459 3.66946L19.9607 7.65265H18.1568C17.465 7.65265 16.8823 7.43976 16.4678 7.04201C16.0616 6.64705 15.8459 6.09243 15.8459 5.43417V3.66946ZM4.42016 16.3165C3.7535 16.3165 3.21288 15.7731 3.21288 15.1064V11.014C3.21288 10.3445 3.7535 9.80391 4.42016 9.80391H14.2661C14.9327 9.80391 15.4734 10.3473 15.4734 11.014V15.1064C15.4734 15.7731 14.9327 16.3165 14.2661 16.3165H4.42016ZM4.7675 13.0616C4.7675 13.6975 4.90195 14.1736 5.21288 14.507C5.48739 14.7955 5.89355 14.9496 6.54341 14.9496C6.84313 14.9496 7.24649 14.9019 7.46497 14.8375L7.37814 14.2269C7.16245 14.2689 6.87954 14.3025 6.70307 14.3025C6.29131 14.3025 6.05882 14.2213 5.89915 14.0392C5.71708 13.8375 5.63585 13.4734 5.63585 13.0392C5.63585 12.3109 5.81792 11.7927 6.60503 11.7927C6.83472 11.7927 7.10923 11.8403 7.39215 11.9215L7.49859 11.3109C7.26329 11.2157 6.85713 11.1456 6.54061 11.1456C5.28571 11.1456 4.7675 11.9159 4.7675 13.0616ZM8.07562 14.126L7.94677 14.7619C8.31651 14.8907 8.69466 14.9496 9.15965 14.9552C9.68346 14.9552 10.0308 14.8487 10.2885 14.6078C10.4818 14.4257 10.5938 14.1652 10.5938 13.8375C10.5938 12.9994 9.95322 12.821 9.42223 12.6732C9.0464 12.5686 8.72548 12.4792 8.72548 12.1821C8.72548 11.9496 8.86833 11.7899 9.31931 11.7899C9.57701 11.7899 9.89914 11.8375 10.1989 11.9187L10.3277 11.2969C10.0448 11.1989 9.65825 11.1456 9.30531 11.1456C8.5238 11.1456 7.94116 11.4706 7.94116 12.2157C7.94116 13.0674 8.59501 13.2408 9.12911 13.3824C9.49785 13.4802 9.80951 13.5628 9.80951 13.8431C9.80951 14.1792 9.57982 14.3081 9.08682 14.3081C8.82071 14.3081 8.39775 14.2381 8.07562 14.126ZM11.1064 14.7619L11.2353 14.126C11.5574 14.2381 11.9804 14.3081 12.2465 14.3081C12.7395 14.3081 12.9692 14.1792 12.9692 13.8431C12.9692 13.5628 12.6575 13.4802 12.2888 13.3824C11.7547 13.2408 11.1008 13.0674 11.1008 12.2157C11.1008 11.4706 11.6835 11.1456 12.465 11.1456C12.8179 11.1456 13.2045 11.1989 13.4874 11.2969L13.3585 11.9187C13.0588 11.8375 12.7367 11.7899 12.479 11.7899C12.028 11.7899 11.8851 11.9496 11.8851 12.1821C11.8851 12.4792 12.2061 12.5686 12.5819 12.6732C13.1129 12.821 13.7535 12.9994 13.7535 13.8375C13.7535 14.1652 13.6414 14.4257 13.4482 14.6078C13.1905 14.8487 12.8431 14.9552 12.3193 14.9552C11.8571 14.9496 11.4762 14.8907 11.1064 14.7619Z" fill="#313235"/>
</svg>
