<svg width="24" height="24" viewBox="0 0 24 24" fill="none" xmlns="http://www.w3.org/2000/svg">
<path fill-rule="evenodd" clip-rule="evenodd" d="M21.6807 14.0097C21.6891 13.9761 21.6891 13.8529 21.6723 13.682H21.6751V6.48032C21.6751 5.68761 21.0308 5.04055 20.2353 5.04055H12.0392V4.27864C12.0392 3.48312 11.3922 2.83887 10.5994 2.83887H3.45099C2.64707 2.83887 2.00281 3.48312 2.00281 4.27864V17.7884C2.00281 18.5812 2.64987 19.2282 3.45099 19.2282H11.8431C11.8908 19.5223 12.014 19.9229 12.3333 20.259C12.5938 20.5476 13.0924 20.8809 13.9608 20.8809H19.4902C19.5882 20.8921 20.4622 20.9313 21.0924 20.3431C21.3614 20.0882 21.6891 19.6232 21.6807 18.8361V14.0097ZM11.8151 13.9537C11.8151 13.161 12.1429 12.6932 12.4118 12.4411C12.7311 12.147 13.1149 12.0153 13.4174 11.9677V11.4271C13.4174 8.94811 15.1681 8.05455 16.6667 8.04055H16.944C18.4482 8.08256 20.2073 8.99013 20.2073 11.4439V12.0069L20.2073 12.0069C20.2885 12.0237 20.3698 12.0406 20.4454 12.0714V6.48312C20.4454 6.36828 20.3557 6.27024 20.2325 6.27024H11.423C11.0868 6.27024 10.8095 5.99293 10.8095 5.65679V4.28144C10.8095 4.15819 10.7199 4.06856 10.5966 4.06856H3.44819C3.32494 4.06856 3.2269 4.15819 3.2269 4.28144V17.7912C3.2269 17.9145 3.32494 18.0041 3.44819 18.0041H11.8151V15.9005C11.8008 15.9034 11.7878 15.9072 11.7748 15.911C11.7498 15.9184 11.7251 15.9257 11.6919 15.9257H10.6695C10.4398 15.9257 10.2605 15.738 10.2605 15.5167V15.4103C10.2605 15.1806 10.4398 15.0013 10.6695 15.0013H10.7507V13.2086H10.7003C10.4706 13.2086 10.2913 13.0265 10.2913 12.7997V12.71C10.2913 12.4971 10.4538 12.3263 10.6583 12.3011C10.8459 12.2842 11.0196 12.2758 11.084 12.2758C11.6555 12.2758 11.6891 12.7352 11.6891 12.8249V15.0013C11.7311 15.0013 11.7703 15.0097 11.8123 15.0265V13.9537H11.8151ZM6.63586 9.20301C6.63586 7.6596 5.94118 7.33747 5.35855 7.33747C4.77312 7.33747 4.07844 7.6596 4.07844 9.20301C4.07844 10.7408 4.77312 11.0658 5.35855 11.0658C5.94118 11.0658 6.63586 10.7436 6.63586 9.20301ZM5.69188 9.20301C5.69188 10.1302 5.4818 10.1302 5.35855 10.1302C5.2241 10.1302 5.02242 10.1302 5.02242 9.20301C5.02242 8.27304 5.2325 8.27304 5.35855 8.27304C5.4846 8.27304 5.69188 8.27304 5.69188 9.20301ZM8.26891 10.1302C8.39216 10.1302 8.60225 10.1302 8.60225 9.20301C8.60225 8.27304 8.39496 8.27304 8.26891 8.27304C8.14286 8.27304 7.93278 8.27304 7.93278 9.20301C7.93278 10.1302 8.13446 10.1302 8.26891 10.1302ZM9.54622 9.20301C9.54622 7.6596 8.85155 7.33747 8.26891 7.33747C7.68348 7.33747 6.9888 7.6596 6.9888 9.20301C6.9888 10.7408 7.68348 11.0658 8.26891 11.0658C8.85155 11.0658 9.54622 10.7436 9.54622 9.20301ZM5.87676 14.9957C6.10365 14.9957 6.28572 15.1778 6.28572 15.4047V15.5111C6.28572 15.738 6.10365 15.9201 5.87676 15.9201H4.85155C4.62466 15.9201 4.44258 15.738 4.44258 15.5111V15.4047C4.44258 15.1778 4.62466 14.9957 4.85155 14.9957H4.93558V13.2086H4.88516C4.65827 13.2086 4.4762 13.0265 4.4762 12.7997V12.71C4.4762 12.4999 4.63586 12.3235 4.84594 12.3039C5.03082 12.287 5.20169 12.2786 5.26891 12.2786C5.84034 12.2786 5.87116 12.7324 5.87116 12.8221L5.87676 14.9957ZM8.60225 14.1134C8.60225 15.0405 8.39216 15.0405 8.26891 15.0405C8.13446 15.0405 7.93278 15.0405 7.93278 14.1134C7.93278 13.1834 8.14286 13.1834 8.26891 13.1834C8.39496 13.1834 8.60225 13.1834 8.60225 14.1134ZM8.26891 12.2478C8.85155 12.2478 9.54622 12.57 9.54622 14.1134C9.54622 15.654 8.85155 15.9761 8.26891 15.9761C7.68348 15.9761 6.9888 15.6512 6.9888 14.1134C6.9888 12.5728 7.68348 12.2478 8.26891 12.2478ZM16.9188 9.26464C17.6891 9.28705 18.9804 9.59237 18.9804 11.4411H18.9776V11.9145L14.6415 11.9229V11.4243C14.6415 9.55875 15.9188 9.27304 16.6723 9.26464H16.9188ZM16.8011 17.3879H16.6975C16.0056 17.3767 16.0056 16.8389 16.0056 16.6372C16.0056 16.4355 16.0056 15.9005 16.6835 15.8949H16.7927C17.4958 15.9117 17.4958 16.4439 17.4958 16.6428C17.4958 16.8445 17.4958 17.3739 16.8011 17.3879ZM16.6751 14.668H16.8207C17.7675 14.6904 18.7227 15.3123 18.7227 16.6456C18.7227 17.9817 17.7703 18.598 16.8235 18.6148H16.6891C15.7339 18.6008 14.7787 17.9845 14.7787 16.6372C14.7787 15.287 15.7311 14.6764 16.6751 14.668Z" fill="#313235"/>
</svg>
