<svg width="24" height="24" viewBox="0 0 24 24" fill="none" xmlns="http://www.w3.org/2000/svg">
<path fill-rule="evenodd" clip-rule="evenodd" d="M21.6666 7.78704C21.6974 7.85987 21.7142 7.9411 21.7142 8.02513V20.3304C21.7142 21.0811 21.07 21.7142 20.3053 21.7142H8.12323C7.37534 21.7142 6.71427 21.0671 6.71427 20.3304L6.74789 17.5573H4.44537C3.11204 17.5573 2.02521 16.4677 2.02521 15.1316V11.0391C2.02521 9.703 3.11204 8.61337 4.44537 8.61337H6.71147V3.4089C6.71147 2.68341 7.38094 2.02515 8.12043 2.02515H15.535C15.7675 2.02515 15.986 2.11198 16.1484 2.27445L21.4453 7.40049C21.5602 7.50973 21.6246 7.64418 21.6666 7.78704ZM19.9859 7.6778L19.9888 7.6806V7.6778H19.9859ZM19.9859 7.6778L15.8739 3.69461V5.45931C15.8739 6.11477 16.0896 6.6722 16.4958 7.06715C16.9103 7.46771 17.493 7.6778 18.1876 7.6778H19.9859ZM4.44817 16.3444C3.78151 16.3444 3.24089 15.801 3.24089 15.1344V11.0419C3.24089 10.3753 3.78151 9.83185 4.44817 9.83185H14.2941C14.9608 9.83185 15.5014 10.3753 15.5014 11.0419V15.1344C15.5014 15.801 14.9608 16.3444 14.2941 16.3444H4.44817ZM5.7871 11.3333H4.49299V15.1035H5.35293V13.8038H5.95797C6.45377 13.8038 6.79551 13.689 7.01679 13.4397C7.20447 13.2296 7.29691 12.9271 7.29691 12.5237C7.29691 12.1204 7.19887 11.829 6.99438 11.6414C6.75069 11.4145 6.37814 11.3333 5.7871 11.3333ZM6.2773 13.0139C6.16806 13.1176 6.05041 13.1568 5.7759 13.1568V13.1596H5.35013V11.9579H5.75349C6.0196 11.9579 6.17926 11.9971 6.2829 12.0896C6.38094 12.182 6.42576 12.3304 6.42576 12.5349C6.42576 12.7562 6.37534 12.9159 6.2773 13.0139ZM7.90755 11.3333H9.20166C9.7927 11.3333 10.1652 11.4145 10.4089 11.6414C10.6134 11.829 10.7115 12.1204 10.7115 12.5237C10.7115 12.9271 10.619 13.2296 10.4314 13.4397C10.2101 13.689 9.86833 13.8038 9.37253 13.8038H8.76749V15.1035H7.90755V11.3333ZM9.69186 13.0139C9.58261 13.1176 9.46497 13.1568 9.19046 13.1568V13.1596H8.76469V11.9579H9.16805C9.43416 11.9579 9.59382 11.9971 9.69746 12.0896C9.7955 12.182 9.84032 12.3304 9.84032 12.5349C9.84032 12.7562 9.7899 12.9159 9.69186 13.0139ZM12.1568 11.9551H10.9888V11.3333H14.2241L14.1568 11.9551H13.0168V15.1035H12.1568V11.9551Z" fill="#313235"/>
</svg>
