<svg width="24" height="24" viewBox="0 0 24 24" fill="none" xmlns="http://www.w3.org/2000/svg">
<path fill-rule="evenodd" clip-rule="evenodd" d="M21.6386 7.78704C21.6694 7.85987 21.6862 7.9411 21.6862 8.02513V20.3304C21.6862 21.0811 21.042 21.7142 20.2773 21.7142H8.09523C7.34453 21.7142 6.68626 21.0671 6.68626 20.3304L6.71988 17.5601H4.42016C3.08683 17.5601 2 16.4705 2 15.1344V11.0391C2 9.703 3.08683 8.61337 4.42016 8.61337H6.68626V3.4089C6.68626 2.68341 7.35853 2.02515 8.09523 2.02515H15.5098C15.7395 2.02515 15.9552 2.11198 16.1204 2.26884L21.4201 7.40049C21.5322 7.50973 21.5966 7.64418 21.6386 7.78704ZM19.9607 7.6778L19.9635 7.6806V7.6778H19.9607ZM19.9607 7.6778L15.8487 3.69461V5.45931C15.8487 6.11757 16.0644 6.6722 16.4706 7.06715C16.8851 7.46771 17.4678 7.6778 18.1624 7.6778H19.9607ZM4.42016 16.3444C3.7535 16.3444 3.21288 15.801 3.21288 15.1344V11.0391C3.21288 10.3725 3.7535 9.82905 4.42016 9.82905H14.5994C15.2661 9.82905 15.8067 10.3725 15.8067 11.0391V15.1344C15.8067 15.801 15.2661 16.3444 14.5994 16.3444H4.42016ZM3.82353 11.4845H6.0224L5.96638 12.0223H4.56582V12.8122H5.68627V13.3697H4.56582V14.2016H6.04761V14.7394H3.82353V11.4845ZM6.59943 11.4845H7.14565L8.68906 13.5713V11.4845H9.34172V14.7422H8.74508L7.24929 12.7646V14.7422H6.59663V11.4845H6.59943ZM12.2493 11.4845H10.0504V14.7394H12.2745V14.2016H10.7927V13.3697H11.9131V12.8122H10.7927V12.0223H12.1933L12.2493 11.4845ZM13.6218 13.1176L12.6274 11.4845H13.4033L14.0504 12.5601L14.6414 11.4845H15.4313L14.3641 13.0783L15.4033 14.7394H14.5798L13.9327 13.6358L13.3473 14.7394H12.5434L13.6218 13.1176Z" fill="#313235"/>
</svg>
