<svg width="24" height="24" viewBox="0 0 24 24" fill="none" xmlns="http://www.w3.org/2000/svg">
<path fill-rule="evenodd" clip-rule="evenodd" d="M21.6765 12.9678C21.6758 12.9762 21.6751 12.9846 21.6751 12.9944C21.6762 13.0074 21.6781 13.0213 21.68 13.0353C21.6831 13.0576 21.6863 13.0802 21.6863 13.1008V20.2297C21.6863 21.0336 21.0364 21.6863 20.2353 21.6863H3.45379C2.65547 21.6863 2.00281 21.0336 2.00281 20.2297V13.098C2.00281 13.0602 2.00753 13.0224 2.01226 12.9846C2.01384 12.972 2.01541 12.9594 2.01681 12.9468C2.01681 12.9373 2.01563 12.9279 2.01445 12.9184C2.01248 12.9027 2.01051 12.8869 2.01401 12.8711L3.60505 3.39496C3.63866 2.61905 4.27732 2 5.05603 2L18.6331 2.01401C19.3866 2.01401 20.014 2.57983 20.1625 3.38936L21.6779 12.9412C21.6779 12.951 21.6772 12.9594 21.6765 12.9678ZM13.4342 12.2829C13.4342 11.9356 13.7143 11.6527 14.0616 11.6527V11.6555H20.2017L18.9244 3.60504C18.8936 3.42297 18.7647 3.27731 18.6331 3.27731L5.05323 3.26331C4.94679 3.26331 4.85995 3.35014 4.85995 3.45658C4.85995 3.4902 4.85715 3.52661 4.85155 3.56022L3.4902 11.6527H9.62466C9.972 11.6555 10.2521 11.9356 10.2521 12.2829V13.1513C10.2549 13.9748 10.9216 14.6415 11.7451 14.6415H11.9384C12.7647 14.6415 13.4314 13.9748 13.4342 13.1513V12.2829Z" fill="#313235"/>
</svg>
