<svg width="24" height="24" viewBox="0 0 24 24" fill="none" xmlns="http://www.w3.org/2000/svg">
<path fill-rule="evenodd" clip-rule="evenodd" d="M21.6666 7.78704C21.6974 7.85987 21.7142 7.9411 21.7142 8.02513V20.3304C21.7142 21.0811 21.07 21.7142 20.3053 21.7142H8.12323C7.37534 21.7142 6.71427 21.0671 6.71427 20.3304L6.74789 17.5573H4.44537C3.11204 17.5573 2.02521 16.4705 2.02521 15.1344V11.0391C2.02521 9.703 3.11204 8.61337 4.44537 8.61337H6.71147V3.4089C6.71147 2.68341 7.38094 2.02515 8.12043 2.02515H15.535C15.7675 2.02515 15.986 2.11198 16.1484 2.27445L21.4453 7.40049C21.5602 7.50973 21.6246 7.64418 21.6666 7.78704ZM19.9859 7.6778L19.9888 7.6806V7.6778H19.9859ZM19.9859 7.6778L15.8739 3.69461V5.45931C15.8739 6.11477 16.0896 6.6722 16.4958 7.06715C16.9103 7.46771 17.493 7.6778 18.1876 7.6778H19.9859ZM4.44817 16.3416C3.78151 16.3416 3.24089 15.801 3.24089 15.1344V11.0391C3.24089 10.3725 3.78151 9.82905 4.44817 9.82905H14.2941C14.9608 9.82905 15.5014 10.3725 15.5014 11.0391V15.1344C15.5014 15.7982 14.9608 16.3416 14.2941 16.3416H4.44817ZM11.3865 13.1932C11.3865 12.0419 11.9944 11.2632 13.2465 11.2632C13.6106 11.2632 14.0476 11.3389 14.2829 11.4397L14.1764 12.0531C13.9131 11.9775 13.5966 11.9187 13.3053 11.9187C12.563 11.9187 12.2577 12.3585 12.2577 13.1596C12.2577 13.5741 12.3109 13.9131 12.4734 14.1372C12.6078 14.3248 12.8291 14.4341 13.182 14.4341C13.3165 14.4341 13.4986 14.4173 13.6274 14.3977V13.6246H13.112V13.0223H14.4622V14.8991C14.112 15.0055 13.5546 15.0867 13.1512 15.0867C11.8319 15.0839 11.3865 14.3585 11.3865 13.1932ZM4.32212 11.3333H5.58542C6.15965 11.3333 6.5266 11.4145 6.76189 11.633C6.96077 11.815 7.05881 12.1008 7.05881 12.4929C7.05881 12.8851 6.96637 13.182 6.7843 13.3865C6.56861 13.6274 6.23528 13.7422 5.75349 13.7422H5.16246V15.0111H4.32212V11.3333ZM5.57422 13.112C5.84313 13.112 5.95517 13.0755 6.06441 12.9719C6.16245 12.8739 6.21007 12.7198 6.21007 12.5041C6.21007 12.3052 6.16806 12.1596 6.07002 12.0699C5.96918 11.9775 5.81231 11.9411 5.55461 11.9411H5.16246V13.112H5.57422ZM8.26889 11.3333H7.64985V15.0083H8.38654V12.7786L10.0756 15.0083H10.7479V11.3333H10.0112V13.6862L8.26889 11.3333Z" fill="#313235"/>
</svg>
