<svg width="24" height="24" viewBox="0 0 24 24" fill="none" xmlns="http://www.w3.org/2000/svg">
<path fill-rule="evenodd" clip-rule="evenodd" d="M19.2871 7.99719C19.2871 7.91315 19.2703 7.83192 19.2395 7.75909C19.2002 7.61904 19.1358 7.48178 19.0266 7.37534L13.8137 2.2493C13.6512 2.08683 13.4355 2 13.2087 2H5.90895C5.18346 2 4.5224 2.65826 4.5224 3.38375V20.3025C4.5224 21.0392 5.16946 21.6862 5.90895 21.6862H17.9005C18.6512 21.6862 19.2871 21.0532 19.2871 20.3025V7.99719ZM13.5392 5.43417V3.66946L17.5896 7.65265H15.8165C15.133 7.65265 14.5588 7.43976 14.1526 7.04201C13.7521 6.64705 13.5392 6.09243 13.5392 5.43417ZM14.7297 12.3193L10.9874 11.2885V10.6779L14.7297 11.7087V12.3193ZM13.8529 18.4089H13.9566C14.4692 18.3977 14.7297 18.1176 14.7297 17.5714C14.7297 17.028 14.4692 16.7451 13.951 16.7311H13.8389C13.0826 16.7395 13.0826 17.3613 13.0826 17.5658C13.0826 18.1176 13.3403 18.4005 13.8529 18.4089ZM9.18906 16.4005H9.07421C8.56441 16.3921 8.3039 16.1092 8.3039 15.5574C8.3039 15.3529 8.3039 14.7311 9.06021 14.7255H9.16945C9.68765 14.7367 9.95096 15.0224 9.95096 15.5686C9.95096 16.1092 9.69046 16.3893 9.18906 16.4005ZM10.8081 9.535L15.1358 10.7283C15.4888 10.7731 15.7661 11.0812 15.7745 11.4622V17.577C15.7745 18.9467 14.8109 19.4481 13.9846 19.465H13.8417C13.0182 19.4537 12.0518 18.9495 12.0518 17.5686C12.0518 16.1876 13.0126 15.689 13.8361 15.6806L13.979 15.6834C14.2283 15.689 14.4888 15.7451 14.7353 15.8515V13.4145L10.993 12.3809L10.979 15.7115C10.9089 16.9636 9.99578 17.4397 9.20306 17.4566H9.06021C8.23388 17.4453 7.27029 16.9411 7.27029 15.5602C7.27029 14.1792 8.23108 13.6806 9.0546 13.6722H9.19746C9.44676 13.6778 9.70726 13.7339 9.95376 13.8403V10.2493C9.95376 9.84312 10.2759 9.51539 10.6736 9.51539L10.8081 9.535Z" fill="#313235"/>
</svg>
