<svg width="24" height="24" viewBox="0 0 24 24" fill="none" xmlns="http://www.w3.org/2000/svg">
<path fill-rule="evenodd" clip-rule="evenodd" d="M18.4342 6.69752C18.5518 6.86558 18.7395 6.95802 18.93 6.95802C19.0476 6.95802 19.168 6.92161 19.2773 6.85158C19.5518 6.6611 19.619 6.28856 19.4313 6.01405C18.3053 4.37819 16.465 3.03646 14.5042 2.42302C11.5742 1.50985 8.40896 2.09809 5.81513 4.03926C5.12605 4.55466 4.45659 5.16811 3.82914 5.86839C3.60785 6.11489 3.62745 6.49584 3.87395 6.71713C4.12045 6.94122 4.5014 6.91881 4.72269 6.67231C5.29692 6.03085 5.90476 5.47063 6.53221 5.00284C8.81232 3.29416 11.5854 2.77315 14.14 3.57147C15.8515 4.10649 17.4566 5.27455 18.4342 6.69752ZM12.9132 21.6555C12.9608 21.6667 13.0084 21.6723 13.056 21.6723C13.3277 21.6723 13.5742 21.4874 13.6386 21.2073C13.7171 20.8852 13.5182 20.5602 13.1961 20.4818C11.7675 20.1373 10.2969 19.3754 9.05322 18.3418C7.63305 17.1597 6.42017 15.1961 5.89076 13.2157C5.29972 11.0028 5.57983 9.00004 6.68067 7.57427C8.07843 5.76755 10.5602 4.91041 12.8627 5.44262L12.8879 5.44822L12.9132 5.45102C12.9496 5.45662 16.4089 5.98884 17.3949 10.0645L17.4005 10.0897C17.4818 10.367 17.619 11.2745 17.2185 11.8096C16.958 12.1569 16.4762 12.339 15.7843 12.3446H15.7479L15.7115 12.3502L15.7107 12.3502C15.6931 12.3512 15.3623 12.3694 15.0448 12.1149C14.6639 11.8124 14.4202 11.2129 14.3417 10.3866C14.2773 9.71432 13.9748 9.1513 13.465 8.75914C12.8655 8.29976 12.0252 8.11768 11.1569 8.26054C11.0196 8.27735 10.5322 8.34738 10.0224 8.64429C9.47338 8.96362 8.80112 9.60227 8.70588 10.8292C8.61624 11.9944 9.04481 13.3782 9.84873 14.535C10.535 15.5154 11.8095 16.7983 14.0028 17.3334C14.3277 17.4118 14.6526 17.2129 14.7311 16.8908C14.8095 16.5658 14.6106 16.2409 14.2885 16.1625C12.4594 15.7171 11.4034 14.6555 10.8375 13.8432C10.07 12.7423 9.85434 11.6107 9.90756 10.9188C9.94957 10.3586 10.1765 9.96082 10.5966 9.70312C10.9244 9.50143 11.2549 9.45942 11.2885 9.45662H11.3081L11.3389 9.45101C11.8795 9.36138 12.4005 9.45942 12.7339 9.71432C12.9748 9.89919 13.1148 10.1625 13.1456 10.5014C13.2577 11.6779 13.647 12.5378 14.2969 13.0589C14.9496 13.5771 15.6302 13.5659 15.8235 13.549C16.8963 13.535 17.6919 13.1905 18.1849 12.5294C18.986 11.4538 18.6106 9.95241 18.563 9.77314C17.9496 7.24934 16.5042 5.888 15.4005 5.18772C14.2941 4.48744 13.2997 4.29696 13.112 4.26615C10.3669 3.6387 7.40056 4.67231 5.72829 6.84037C4.39216 8.57146 4.03642 10.9468 4.72829 13.5294C5.32773 15.7703 6.65546 17.9188 8.28291 19.2717C9.66666 20.4202 11.3109 21.2689 12.9132 21.6555ZM13.7171 19.5995C13.6639 19.5995 13.6106 19.5911 13.5546 19.577C10.9748 18.86 8.63585 16.9972 7.45098 14.7115C6.51541 12.9104 6.36415 11 7.0112 9.18491C7.35574 8.1541 8.09243 7.28295 9.08683 6.72833C10.056 6.18772 11.2017 5.98603 12.3165 6.1569C13.4398 6.33057 14.4902 6.88239 15.2717 7.71432C16.0896 8.58267 16.5322 9.67791 16.5238 10.7956C16.521 11.1261 16.2521 11.3922 15.9216 11.3922H15.9159C15.5826 11.3894 15.3165 11.1177 15.3193 10.7843C15.3333 9.13169 13.9328 7.62189 12.1316 7.34458C10.3753 7.07567 8.66386 8.03085 8.15126 9.57146L8.14565 9.58267C7.61344 11.0757 7.74229 12.6583 8.5182 14.1569C9.53781 16.1233 11.6414 17.7955 13.8767 18.4174C14.1961 18.507 14.3837 18.8376 14.2969 19.1569C14.2241 19.423 13.9832 19.5995 13.7171 19.5995ZM12.6835 14.5911C13.507 15.2577 14.5294 15.5911 15.7395 15.5911C16.154 15.5911 16.5882 15.5518 17.0448 15.4762C17.3725 15.4202 17.591 15.1093 17.535 14.7815C17.479 14.4538 17.168 14.2353 16.8403 14.2913C15.4117 14.535 14.2689 14.325 13.4482 13.6639C12.1241 12.597 11.9943 10.6618 11.9864 10.5432C11.9862 10.5404 11.9861 10.5386 11.986 10.5378C11.972 10.2073 11.6947 9.94681 11.3613 9.96082C11.0308 9.97482 10.7703 10.2521 10.7843 10.5855C10.7871 10.6891 10.902 13.1457 12.6835 14.5911Z" fill="#313235"/>
</svg>
