<svg width="24" height="24" viewBox="0 0 24 24" fill="none" xmlns="http://www.w3.org/2000/svg">
<path fill-rule="evenodd" clip-rule="evenodd" d="M20.2297 6.5434C21.0336 6.5434 21.6862 7.18766 21.6862 7.98318V19.4677C21.6862 20.2605 21.0336 20.9047 20.2297 20.9047H3.45658C2.65266 20.9047 2 20.2605 2 19.4677V7.98318C2 7.19046 2.65266 6.5434 3.45658 6.5434H7.10083V4.88234C7.10083 4.21007 7.73948 3.68066 8.55741 3.68066H15.1232C15.9411 3.68066 16.5826 4.21007 16.5826 4.88234V6.5434H20.2297ZM8.33332 4.94677V6.5434H15.3557V4.94677C15.3165 4.92156 15.2381 4.89355 15.1288 4.89355H8.56301C8.45097 4.89075 8.37254 4.92156 8.33332 4.94677ZM13.7031 11.8851H15.5238C16.084 11.8851 16.577 12.3277 16.577 12.8319V14.6078C16.577 15.1148 16.0868 15.5574 15.5266 15.5574H13.7087V17.3529C13.7087 17.9159 13.2689 18.3921 12.7479 18.3921H10.944C10.423 18.3921 9.98318 17.9187 9.98318 17.3557V15.563H8.16245C7.59102 15.563 7.10923 15.1288 7.10923 14.6134V12.8375C7.10923 12.3221 7.58822 11.8879 8.15965 11.8879H9.97757V10.0924C9.97757 9.5406 10.4258 9.056 10.9384 9.056H12.7395C13.2521 9.056 13.7031 9.5406 13.7031 10.0924V11.8851Z" fill="#313235"/>
</svg>
