<svg width="24" height="24" viewBox="0 0 24 24" fill="none" xmlns="http://www.w3.org/2000/svg">
<path fill-rule="evenodd" clip-rule="evenodd" d="M21.66 9.56296C22.2847 11.8543 21.3183 13.6022 19.0718 14.2408C18.744 14.3361 18.3771 14.3753 17.9877 14.3753C17.8629 14.3753 17.7321 14.3633 17.6019 14.3514C17.5539 14.347 17.5059 14.3426 17.4583 14.3389C18.027 14.7254 18.5312 15.1596 18.8505 15.6386C20.1586 17.6106 19.7889 19.5826 17.8589 20.9131C17.1082 21.4341 16.3407 21.7002 15.6068 21.7002C15.4163 21.7002 15.2286 21.6806 15.0438 21.6442C14.1474 21.4705 13.3323 20.8683 12.6908 19.9047C12.3855 19.4453 12.181 18.8431 12.0382 18.1988C11.8981 18.8515 11.6908 19.4593 11.3827 19.9215C10.7384 20.8851 9.92331 21.4873 9.02695 21.661C8.84488 21.6974 8.66001 21.7142 8.47233 21.7142C7.73564 21.7142 6.96533 21.4453 6.21463 20.9215C5.26785 20.2688 4.67682 19.4397 4.50595 18.5265C4.33508 17.6134 4.58438 16.619 5.22583 15.6526C5.54516 15.1736 6.05217 14.7338 6.62359 14.3473C6.58837 14.3507 6.55297 14.3543 6.51751 14.3579C6.34994 14.3749 6.18087 14.3921 6.02135 14.3921C5.632 14.3921 5.26225 14.3529 4.93172 14.2576C3.83088 13.9439 3.01015 13.3501 2.56197 12.5377C2.11379 11.7282 2.03816 10.703 2.34628 9.57977C2.65441 8.45372 3.23984 7.61898 4.03536 7.1624C4.83368 6.70582 5.83648 6.63299 6.93732 6.94951C7.58438 7.13439 8.25665 7.58257 8.8925 8.12879C8.53116 7.33327 8.27905 6.52374 8.28466 5.81226C8.28466 3.44251 9.67681 2.02515 12.0101 2.02515H12.0129C13.1558 2.03075 14.0998 2.38369 14.744 3.04475C15.3883 3.70582 15.7272 4.6722 15.7216 5.83747C15.7216 6.52935 15.4723 7.32486 15.1166 8.10638C15.7524 7.56296 16.4247 7.11758 17.0718 6.93271C19.3183 6.29685 21.0326 7.27725 21.66 9.56296ZM12.0118 14.3646C12.0141 14.3654 12.0163 14.3661 12.0185 14.3669C12.0606 14.3501 12.1054 14.3361 12.1502 14.3333C13.1306 14.2997 13.6852 13.9075 13.8981 13.1092C13.8981 13.1064 13.8995 13.1043 13.9009 13.1022C13.9023 13.1001 13.9037 13.098 13.9037 13.0952C13.9051 13.0924 13.9051 13.0889 13.9051 13.0854C13.9051 13.0819 13.9051 13.0784 13.9065 13.0756C13.9625 12.8599 13.9905 12.5994 13.9905 12.3025C13.9905 11.5069 13.772 10.9411 13.3435 10.6218C13.3329 10.6147 13.3246 10.6044 13.3163 10.5942C13.3115 10.5881 13.3067 10.5822 13.3015 10.577C13.2917 10.5721 13.2815 10.5688 13.2711 10.5655C13.2577 10.5612 13.2441 10.5569 13.2314 10.549C12.9261 10.3585 12.5115 10.2632 11.9989 10.2632C11.4919 10.2632 11.0718 10.3613 10.758 10.5574C10.7445 10.5658 10.7298 10.5682 10.7148 10.5705C10.7051 10.5721 10.6951 10.5737 10.6852 10.577C10.6805 10.5826 10.6762 10.5885 10.6718 10.5944C10.6631 10.6062 10.6544 10.618 10.6432 10.6274C10.2202 10.9523 10.0073 11.5181 10.0073 12.3025C10.0073 12.5994 10.0382 12.8627 10.0942 13.0896V13.1064C10.0965 13.1121 10.1001 13.1173 10.1039 13.1226C10.1093 13.1304 10.1149 13.1384 10.1166 13.1484C10.3323 13.9299 10.9233 14.3221 11.9177 14.3445C11.9517 14.3445 11.9808 14.3542 12.0118 14.3646Z" fill="#313235"/>
</svg>
