<svg width="24" height="24" viewBox="0 0 24 24" fill="none" xmlns="http://www.w3.org/2000/svg">
<path fill-rule="evenodd" clip-rule="evenodd" d="M21.6862 7.44999C21.6862 6.64328 21.0307 5.98782 20.224 5.98782H12.0672V5.25393C12.0672 4.44721 11.4117 3.79175 10.605 3.79175H3.46218C2.65546 3.79175 2 4.44721 2 5.25393V18.7329C2 19.5396 2.65546 20.195 3.46218 20.195H20.224C21.0307 20.195 21.6862 19.5396 21.6862 18.7329V7.44999ZM5.43696 8.78612C4.5238 8.78612 4.17646 9.37436 4.17646 10.4976C4.17646 11.6236 4.5238 12.2035 5.43696 12.2035C6.35012 12.2035 6.69746 11.6236 6.69746 10.4976C6.69746 9.37155 6.35012 8.78612 5.43696 8.78612ZM5.43696 9.29032C5.82631 9.29032 5.98037 9.59004 5.98037 10.4976C5.98037 11.4052 5.82631 11.6517 5.43696 11.6517C5.04761 11.6517 4.89354 11.408 4.89354 10.4976C4.89354 9.58724 5.04761 9.29032 5.43696 9.29032ZM9.02798 8.78612C8.11482 8.78612 7.76748 9.37436 7.76748 10.4976C7.76748 11.6236 8.11482 12.2035 9.02798 12.2035C9.94114 12.2035 10.2885 11.6236 10.2885 10.4976C10.2885 9.37155 9.94114 8.78612 9.02798 8.78612ZM9.02798 9.29032C9.41733 9.29032 9.57139 9.59004 9.57139 10.4976C9.57139 11.4052 9.41733 11.6517 9.02798 11.6517C8.63863 11.6517 8.48456 11.408 8.48456 10.4976C8.48456 9.58724 8.63863 9.29032 9.02798 9.29032ZM16.8907 10.4976C16.8907 9.37436 17.238 8.78612 18.1512 8.78612C19.0643 8.78612 19.4117 9.37155 19.4117 10.4976C19.4117 11.6236 19.0643 12.2035 18.1512 12.2035C17.238 12.2035 16.8907 11.6236 16.8907 10.4976ZM18.6918 10.4976C18.6918 9.59004 18.5377 9.29032 18.1484 9.29032C17.759 9.29032 17.605 9.58724 17.605 10.4976C17.605 11.408 17.759 11.6517 18.1484 11.6517C18.5377 11.6517 18.6918 11.4052 18.6918 10.4976ZM11.3053 11.6909H11.8571V9.39957H11.3277V8.94018C11.521 8.91217 11.8487 8.88416 12.0812 8.88416C12.4173 8.88416 12.5322 8.96539 12.5322 9.20629V11.6937H12.9971V12.1783H11.3025V11.6909H11.3053ZM5.19606 17.0914H4.64425V17.5788H6.33892V17.0942H5.87393V14.6068C5.87393 14.3659 5.75909 14.2847 5.42295 14.2847C5.19046 14.2847 4.86273 14.3127 4.66946 14.3407V14.8001H5.19606V17.0914ZM14.2128 11.6909H14.7646V9.39957H14.238V8.94018C14.4313 8.91217 14.759 8.88416 14.9915 8.88416C15.3277 8.88416 15.4425 8.96539 15.4425 9.20629V11.6937H15.9075V12.1783H14.2128V11.6909ZM7.76748 15.9009C7.76748 14.7777 8.11482 14.1895 9.02798 14.1895C9.94114 14.1895 10.2885 14.7749 10.2885 15.9009C10.2885 17.027 9.94114 17.6068 9.02798 17.6068C8.11482 17.6068 7.76748 17.027 7.76748 15.9009ZM9.57139 15.9009C9.57139 14.9934 9.41733 14.6937 9.02798 14.6937C8.63863 14.6937 8.48456 14.9906 8.48456 15.9009C8.48456 16.8113 8.63863 17.055 9.02798 17.055C9.41733 17.055 9.57139 16.8085 9.57139 15.9009ZM18.1512 14.1895C17.238 14.1895 16.8907 14.7777 16.8907 15.9009C16.8907 17.027 17.238 17.6068 18.1512 17.6068C19.0643 17.6068 19.4117 17.027 19.4117 15.9009C19.4117 14.7749 19.0643 14.1895 18.1512 14.1895ZM18.1484 14.6937C18.5377 14.6937 18.6918 14.9934 18.6918 15.9009C18.6918 16.8085 18.5377 17.055 18.1484 17.055C17.759 17.055 17.605 16.8113 17.605 15.9009C17.605 14.9906 17.759 14.6937 18.1484 14.6937ZM11.8571 17.0942H11.3053H11.3025V17.5816H12.9971V17.097H12.5322V14.6096C12.5322 14.3687 12.4173 14.2875 12.0812 14.2875C11.8487 14.2875 11.521 14.3155 11.3277 14.3435V14.8029H11.8571V17.0942ZM14.2128 17.0942H14.7646V14.8029H14.238V14.3435C14.4313 14.3155 14.759 14.2875 14.9915 14.2875C15.3277 14.2875 15.4425 14.3687 15.4425 14.6096V17.097H15.9075V17.5816H14.2128V17.0942Z" fill="#313235"/>
</svg>
