<svg width="24" height="24" viewBox="0 0 24 24" fill="none" xmlns="http://www.w3.org/2000/svg">
<path fill-rule="evenodd" clip-rule="evenodd" d="M12.1435 2.00141C12.194 2.00211 12.244 2.0028 12.2941 2.0028C14.2689 2.03081 21.6863 2.7451 21.6863 11.8767C21.6863 20.9916 14.3389 21.6695 12.3641 21.6863H12.1653C11.916 21.6863 11.6555 21.6835 11.4314 21.6779C9.5014 21.6302 2 20.8683 2 11.8179C2 2.7451 9.5154 2.03922 11.3922 2.0056C11.5742 2.0028 11.7815 2 11.9888 2C12.041 2 12.0924 2.00071 12.1435 2.00141ZM12.4594 6.15126C12.7227 6.07843 12.972 5.96358 13.1849 5.80392L15.3669 4.21849C15.4923 4.12895 15.5943 4.01605 15.6943 3.90538L15.7227 3.87395C16.6358 4.22409 17.5462 4.7647 18.3277 5.58263C18.1961 5.76751 18.0868 5.97199 18.0168 6.19328L17.1849 8.7535C17.0924 9.02521 17.0616 9.31372 17.0812 9.60504L15.9272 10.0896C15.7787 9.86834 15.5966 9.66947 15.3697 9.5098L13.1905 7.92717C12.9748 7.7647 12.7227 7.65546 12.4594 7.58543V6.15126ZM8.31652 4.21569C8.18487 4.12045 8.07843 4 7.97199 3.87955C7.05602 4.23249 6.14005 4.77031 5.35574 5.58543C5.46498 5.7535 5.56022 5.93277 5.62185 6.12605L6.45378 8.69187C6.54622 8.96078 6.57703 9.2549 6.55462 9.54902L7.7479 10.1008C7.89916 9.87395 8.08683 9.66666 8.31933 9.5014L10.5014 7.91596C10.7115 7.7563 10.9608 7.64706 11.2269 7.57703V6.14846C10.9608 6.07563 10.7115 5.96078 10.493 5.79552L8.31652 4.21569ZM7.89356 16.1232C7.64706 16.0336 7.38655 15.9832 7.12605 15.986H4.41176C4.28011 15.986 4.15126 16 4.02521 16.0224C3.64706 15.1625 3.38375 14.1429 3.28291 12.9216C3.30333 12.9097 3.32417 12.8987 3.34494 12.8878L3.34498 12.8878C3.37833 12.8702 3.41152 12.8526 3.44258 12.8319L5.61905 11.2493C5.82353 11.1064 6 10.9216 6.14566 10.7171L7.37535 11.2857C7.36694 11.5434 7.40056 11.8039 7.48459 12.0588L8.45938 15.0616H8.5098C8.5168 15.0728 8.52451 15.0826 8.53221 15.0924C8.53991 15.1022 8.54762 15.112 8.55462 15.1232L7.89356 16.1232ZM16.4174 16.028H19.1485C19.3277 16.028 19.5042 16.056 19.6807 16.0952C20.0476 15.2437 20.3053 14.2297 20.4034 13.014C20.3752 12.9964 20.3455 12.9812 20.3158 12.966C20.2747 12.945 20.2335 12.924 20.1961 12.8964L18.014 11.3081C17.8095 11.1653 17.6302 10.9776 17.4846 10.7647L16.3109 11.2577C16.3193 11.5238 16.2885 11.7955 16.2017 12.0588L15.3669 14.6246C15.2997 14.8291 15.2017 15.014 15.0896 15.1849L15.6863 16.1569C15.9216 16.0756 16.1681 16.028 16.4174 16.028ZM13.4314 20.1709L14.2661 17.605C14.3473 17.3389 14.493 17.0896 14.6751 16.8711L14.1401 15.9972C13.8487 16.1288 13.5294 16.2073 13.1933 16.2073H10.4594C10.1064 16.2073 9.77591 16.112 9.47619 15.9608L8.89356 16.8403C9.07003 17.0588 9.21008 17.3053 9.29412 17.5714L10.126 20.1344C10.1391 20.1735 10.1455 20.2135 10.1518 20.2534C10.1564 20.2821 10.161 20.3108 10.1681 20.3389C10.6499 20.4062 11.0924 20.4398 11.4594 20.4482C11.6751 20.4538 11.9244 20.4566 12.1653 20.4566H12.3501C12.6527 20.4538 13.0028 20.437 13.3866 20.3978C13.3932 20.3677 13.3981 20.3373 13.403 20.3069C13.4105 20.2607 13.4179 20.2148 13.4314 20.1709Z" fill="#313235"/>
</svg>
