<svg width="24" height="24" viewBox="0 0 24 24" fill="none" xmlns="http://www.w3.org/2000/svg">
<path d="M14.3896 18.1638C14.3896 17.8809 14.3504 17.6232 14.272 17.3907C15.1291 17.1526 15.6389 16.4495 15.6389 15.4411C15.6389 15.1582 15.5969 14.8977 15.5213 14.6652C16.37 14.4243 16.8742 13.724 16.8742 12.7212C16.8742 12.4747 16.8434 12.245 16.7846 12.0378H19.6865C21.0199 12.0378 21.849 11.2198 21.849 9.9033C21.849 8.6372 21.0787 7.86129 19.7314 7.77446H12.3028C12.8798 7.43552 13.2832 7.1302 13.5745 6.76605C13.863 6.40751 14.0059 5.97894 14.0059 5.55877C14.0059 5.15541 13.8742 4.75765 13.6081 4.42712C13.0871 3.77726 12.1992 3.6176 11.3448 4.01816C9.89665 4.69883 7.56892 5.84449 5.69778 6.76605C4.53252 7.34028 3.52412 7.83608 3.2216 7.97614C2.90227 8.12179 2.15997 8.46633 2.15997 9.24784V17.0349C2.15997 18.0181 2.4681 18.8557 3.02552 19.3963C3.58014 19.9341 4.35605 20.2058 5.32803 20.2058H12.3252C13.5997 20.2002 14.3896 19.4215 14.3896 18.1638Z" fill="#313235"/>
</svg>
