<svg width="24" height="24" viewBox="0 0 24 24" fill="none" xmlns="http://www.w3.org/2000/svg">
<path d="M18.1637 9.61928C17.8808 9.61928 17.6231 9.6585 17.3906 9.73693C17.1525 8.87979 16.4494 8.36998 15.441 8.36998C15.1581 8.36998 14.8976 8.412 14.6651 8.48763C14.4242 7.63889 13.724 7.13469 12.7212 7.13469C12.4747 7.13469 12.245 7.1655 12.0377 7.22433V4.32237C12.0377 2.98904 11.2198 2.15991 9.90324 2.15991C8.63714 2.15991 7.86123 2.93022 7.77439 4.27755V11.7061C7.43546 11.1291 7.13014 10.7257 6.76599 10.4344C6.40745 10.1459 5.97888 10.003 5.55871 10.003C5.15535 10.003 4.75759 10.1347 4.42706 10.4008C3.7772 10.9218 3.61754 11.8098 4.0181 12.6641C4.69877 14.1123 5.84443 16.44 6.76599 18.3111C7.34022 19.4764 7.83602 20.4848 7.97607 20.7873C8.12173 21.1066 8.46627 21.8489 9.24778 21.8489H17.0349C18.0181 21.8489 18.8556 21.5408 19.3962 20.9834C19.934 20.4288 20.2057 19.6529 20.2057 18.6809V11.6837C20.2001 10.4092 19.4214 9.61928 18.1637 9.61928Z" fill="#313235"/>
</svg>
