<svg width="24" height="24" viewBox="0 0 24 24" fill="none" xmlns="http://www.w3.org/2000/svg">
<path d="M14.7579 2.15991H6.97365C5.99046 2.15991 5.15013 2.46803 4.60951 3.02546C4.0717 3.58008 3.79999 4.35599 3.79999 5.32517V12.3224C3.79999 13.5941 4.5815 14.384 5.8364 14.384C6.11931 14.384 6.37701 14.3448 6.60951 14.2663C6.8476 15.1235 7.55068 15.6333 8.55628 15.6333C8.84199 15.6333 9.1025 15.5941 9.33219 15.5156C9.57589 16.3644 10.2734 16.8686 11.2762 16.8686C11.5227 16.8686 11.7524 16.8378 11.9596 16.7789V19.6809C11.9596 21.0142 12.7776 21.8433 14.0941 21.8433C15.3602 21.8433 16.1361 21.0702 16.2229 19.7257C16.2229 19.7117 16.2257 19.6949 16.2257 19.6809V12.2971C16.5647 12.8742 16.8672 13.2775 17.2341 13.5689C17.5927 13.8546 18.0212 14.0002 18.4414 14.0002C18.8448 14.0002 19.2425 13.8686 19.5731 13.6025C20.2229 13.0815 20.3826 12.1935 19.982 11.342C19.3014 9.89379 18.1557 7.56326 17.2369 5.69492C16.6627 4.52965 16.1669 3.52405 16.0269 3.21873C15.884 2.90221 15.5395 2.15991 14.7579 2.15991Z" fill="#313235"/>
</svg>
