<svg width="24" height="24" viewBox="0 0 24 24" fill="none" xmlns="http://www.w3.org/2000/svg">
<path fill-rule="evenodd" clip-rule="evenodd" d="M12.0364 21.7787H12.0196C11.9691 21.7787 11.9243 21.7787 11.8823 21.7759H11.8655C11.731 21.7675 11.5966 21.7507 11.4649 21.7199C11.0056 21.6162 10.5686 21.4201 10.1876 21.1456C9.73105 20.8151 9.19323 20.2717 9.03917 20.1148C7.45093 18.4762 6.52376 17.3137 5.3613 15.5098C3.90752 13.2521 2.90752 11.0084 2.39211 8.84311C1.83189 6.49017 2.29407 4.53779 3.68903 3.33891C4.49855 2.64704 5.605 2.22967 6.79827 2.16804C8.05598 2.10362 9.3613 2.42295 10.5714 3.09521C10.9831 3.32211 11.4061 3.5686 11.8683 3.84031C11.9607 3.89073 12.0728 3.89073 12.168 3.84031C12.6302 3.5658 13.0532 3.32211 13.4677 3.09241C14.675 2.42295 15.9803 2.10362 17.238 2.16804C18.4341 2.22967 19.5378 2.64704 20.3473 3.34171C21.7423 4.53779 22.2044 6.49297 21.6442 8.84592C21.1288 11.0084 20.1316 13.2493 18.675 15.5098C17.5238 17.2997 16.5994 18.4566 15.0364 20.0728L15.0364 20.0728C15.0252 20.0868 15.014 20.1008 15 20.1148C14.8459 20.2745 14.3081 20.8151 13.8543 21.1428C13.4733 21.4201 13.0364 21.6162 12.577 21.7171C12.4453 21.7479 12.3109 21.7675 12.1764 21.7731H12.1596C12.1176 21.7787 12.0784 21.7787 12.0364 21.7787Z" fill="#313235"/>
</svg>
