<svg width="24" height="24" viewBox="0 0 24 24" fill="none" xmlns="http://www.w3.org/2000/svg">
<path fill-rule="evenodd" clip-rule="evenodd" d="M5.13725 2.8418H18.549C20.2801 2.8418 21.6862 4.19754 21.689 5.8642V14.825C21.689 16.4944 20.2801 17.8502 18.5518 17.8502H8.64144L6.65265 20.3123C6.35573 20.6905 5.96638 20.8866 5.49579 20.8866C4.73949 20.8866 4.09803 20.2843 4.09803 19.5673V17.7045C2.84594 17.3124 2 16.1723 2 14.825V5.8642C2 4.19754 3.40896 2.8418 5.13725 2.8418ZM14.3053 11.8446C14.8543 11.0211 15.2297 10.2031 15.4229 9.41601C15.633 8.55887 15.4622 7.84739 14.9411 7.40761C14.6358 7.15271 14.2185 7.00145 13.7703 6.97904C13.7311 6.97624 13.6891 6.97624 13.6498 6.97624C13.6414 6.97624 13.6323 6.97764 13.6232 6.97904C13.6141 6.98044 13.605 6.98184 13.5966 6.98184C13.4033 6.98745 13.2073 7.00985 13.014 7.06028C13.0028 7.06308 12.9923 7.06658 12.9818 7.07008C12.9713 7.07358 12.9608 7.07708 12.9496 7.07988C12.7451 7.13871 12.5434 7.21434 12.3501 7.31798C12.2927 7.35033 12.2341 7.38269 12.1743 7.41577C12.0734 7.47147 11.9689 7.52922 11.8599 7.59249C11.8431 7.60089 11.8235 7.60649 11.8039 7.60649C11.7843 7.60649 11.7647 7.60089 11.7479 7.59249C11.6987 7.56517 11.6508 7.5385 11.604 7.51243C11.4829 7.44493 11.3688 7.3814 11.2577 7.32078C11.0644 7.21714 10.8599 7.14151 10.6554 7.08268C10.6471 7.0803 10.6387 7.0774 10.6302 7.07443C10.6186 7.07043 10.6067 7.06629 10.5938 7.06308C10.4005 7.01266 10.2073 6.99025 10.0112 6.98464C10.0028 6.98464 9.99368 6.98324 9.98458 6.98184C9.97547 6.98044 9.96637 6.97904 9.95797 6.97904C9.91875 6.97904 9.87673 6.97904 9.83752 6.98184C9.38934 7.00425 8.97478 7.15551 8.66945 7.41041C8.14284 7.84739 7.96917 8.55887 8.17926 9.41601C8.37534 10.2031 8.75069 11.0211 9.2969 11.8446C9.73388 12.5 10.084 12.923 10.6807 13.5196C10.6866 13.5253 10.694 13.5324 10.7026 13.5407C10.7798 13.6149 10.9584 13.7867 11.112 13.895C11.2605 13.9986 11.4286 14.0715 11.5938 14.1051C11.6414 14.1163 11.6919 14.1247 11.7451 14.1275H11.7507C11.7647 14.1303 11.7815 14.1303 11.7955 14.1303H11.7955H11.8095C11.8183 14.1303 11.8263 14.1295 11.834 14.1288C11.841 14.1281 11.8476 14.1275 11.8543 14.1275H11.8599C11.9131 14.1247 11.9636 14.1163 12.0112 14.1051C12.1764 14.0687 12.3417 13.9986 12.4902 13.895C12.643 13.789 12.8154 13.6222 12.8946 13.5456C12.9054 13.5351 12.9145 13.5264 12.9215 13.5196L12.9356 13.5056C13.5238 12.9174 13.8711 12.4944 14.3053 11.8446Z" fill="#313235"/>
</svg>
