<svg width="24" height="24" viewBox="0 0 24 24" fill="none" xmlns="http://www.w3.org/2000/svg">
<path fill-rule="evenodd" clip-rule="evenodd" d="M21.6862 11.8683C21.6862 2.81512 14.182 2.05322 12.2549 2.0084C11.9692 2.0028 11.6302 2 11.3221 2C9.34732 2.01961 2 2.69468 2 11.8123C2 20.9411 9.41455 21.6554 11.3921 21.6834C11.6461 21.6881 11.9197 21.6849 12.1601 21.6821C12.2061 21.6816 12.2509 21.6811 12.2941 21.6806C14.1736 21.6442 21.6862 20.9383 21.6862 11.8683ZM13.507 6.70307H15.6666C15.8935 6.70307 16.0756 6.88514 16.0756 7.11203V16.5798C16.0756 16.8039 15.8935 16.9888 15.6666 16.9888H13.507C13.2829 16.9888 13.098 16.8067 13.098 16.5798V13.0028H10.5826V16.5798C10.5826 16.8039 10.4005 16.9888 10.1737 16.9888H8.01399C7.7899 16.9888 7.60503 16.8067 7.60503 16.5798V7.11203C7.60503 6.88794 7.7871 6.70307 8.01399 6.70307H10.1737C10.3977 6.70307 10.5826 6.88514 10.5826 7.11203V10.563H13.098V7.11203C13.098 6.88794 13.2801 6.70307 13.507 6.70307Z" fill="#313235"/>
</svg>
