<svg width="24" height="24" viewBox="0 0 24 24" fill="none" xmlns="http://www.w3.org/2000/svg">
<path fill-rule="evenodd" clip-rule="evenodd" d="M20.4133 4.52246C21.1556 4.52246 21.8334 5.10509 21.8334 5.74655V18.063C21.8334 18.7045 21.1556 19.2871 20.4133 19.2871H3.56737C2.81106 19.2871 2.15 18.7129 2.15 18.063L2.1528 5.74655C2.1528 5.09389 2.81667 4.52246 3.57017 4.52246H20.4133ZM4.79145 8.8838C4.79145 7.6289 5.80265 6.60649 7.04635 6.60649C8.29004 6.60649 9.30125 7.6289 9.30125 8.8838C9.30125 10.1387 8.29004 11.1611 7.04635 11.1611C5.80265 11.1611 4.79145 10.1415 4.79145 8.8838ZM19.7242 12.5364C19.9931 12.7465 20.0463 13.1359 19.839 13.4076C19.6318 13.6793 19.2452 13.7325 18.9819 13.528L16.1164 11.3152L12.9203 13.881L14.8895 15.7549C15.136 15.9902 15.1472 16.3852 14.9147 16.6345C14.6822 16.8838 14.2928 16.895 14.0463 16.6597L10.6682 13.4468L5.80826 17.5336C5.69621 17.6289 5.55616 17.6765 5.4161 17.6765C5.23963 17.6765 5.06316 17.6009 4.94271 17.4524C4.72423 17.1863 4.76064 16.7941 5.02114 16.5757L10.2984 12.1359C10.5365 11.9342 10.8895 11.9454 11.1136 12.1611L12.0099 13.0154L15.7214 10.0379C15.9427 9.86139 16.2564 9.85578 16.4777 10.0295L19.7242 12.5364ZM6.02114 8.8866C6.02114 9.45522 6.48052 9.92021 7.04635 9.92021C7.60937 9.92021 8.06876 9.45522 8.07156 8.8866C8.07156 8.31517 7.61217 7.85299 7.04635 7.85299C6.48052 7.85299 6.02114 8.31517 6.02114 8.8866Z" fill="#313235"/>
</svg>
