<svg width="24" height="24" viewBox="0 0 24 24" fill="none" xmlns="http://www.w3.org/2000/svg">
<path fill-rule="evenodd" clip-rule="evenodd" d="M20.7982 10.332C21.3416 10.6597 21.6861 11.2423 21.6861 11.8838C21.6861 12.5252 21.3388 13.1023 20.7982 13.4272C21.3416 13.7577 21.6861 14.3375 21.6861 14.9818C21.6861 15.6681 21.2996 16.2955 20.6862 16.6036L12.5938 20.6905C12.3361 20.8221 12.0559 20.8865 11.7758 20.8865C11.4901 20.8865 11.2044 20.8193 10.9439 20.6849L2.99155 16.6008C2.38652 16.2899 2.00556 15.6653 2.00276 14.9846C1.99996 14.3403 2.3445 13.7605 2.88791 13.43C2.3473 13.1023 2.00556 12.5224 2.00276 11.8838C1.99996 11.2451 2.3445 10.6597 2.88791 10.332C2.3473 10.007 2.00556 9.4272 2.00276 8.78855C2.00276 8.10508 2.38091 7.48043 2.98595 7.16671L10.9383 3.04628C11.2016 2.90902 11.4901 2.8418 11.7758 2.8418C12.0587 2.8418 12.3417 2.90902 12.5994 3.04068L20.6918 7.16111C21.3024 7.47203 21.6889 8.10228 21.6861 8.78855C21.6861 9.4272 21.3388 10.007 20.7982 10.332ZM19.8654 8.78295L11.773 4.66252L3.82068 8.78295L11.773 12.867L19.8654 8.78295ZM3.82068 14.979L11.773 19.0658L19.8682 14.979L18.8234 14.4468L12.5938 17.5924C12.336 17.7241 12.0559 17.7885 11.7758 17.7885C11.4901 17.7885 11.2044 17.7185 10.9439 17.5868L4.84029 14.4524L3.82068 14.979ZM3.82068 11.881L4.84029 11.3544L10.9439 14.4916C11.2044 14.6261 11.4901 14.6933 11.7758 14.6933C12.0559 14.6933 12.336 14.6289 12.5938 14.4972L18.8234 11.3516L19.8682 11.8838L11.7758 15.9706L3.82068 11.881Z" fill="#313235"/>
</svg>
