<svg width="24" height="24" viewBox="0 0 24 24" fill="none" xmlns="http://www.w3.org/2000/svg">
<path fill-rule="evenodd" clip-rule="evenodd" d="M8.56828 4.13005C8.56892 4.13187 8.56892 4.13393 8.56892 4.1375C8.7594 4.68372 9.46528 5.1571 10.6249 5.50444C11.8518 5.87979 13.4709 6.07867 15.188 6.07867C16.9134 6.07867 18.5241 5.87979 19.751 5.50444C20.8882 5.16551 21.5857 4.70613 21.793 4.17671C21.793 4.16831 21.8014 4.15991 21.8014 4.15991C21.6529 3.58848 20.9639 3.10669 19.7454 2.73414C18.5241 2.36719 16.9078 2.15991 15.1824 2.15991C13.4653 2.15991 11.8378 2.36719 10.6109 2.73414C9.45688 3.09268 8.751 3.57447 8.56052 4.12069C8.56535 4.12552 8.56741 4.12758 8.56828 4.13005ZM14.3532 12.2915L8.88545 14.7313L8.5101 14.5632L3.40087 12.314L8.86024 9.88258L8.86864 9.87418L11.3084 10.9442L14.1796 12.2159H14.188L14.3532 12.2915ZM12.5437 16.3083L12.5857 14.44L9.71458 15.7173L9.37564 15.8686C9.21598 15.9442 9.04231 15.9778 8.87705 15.9778C8.70338 15.9778 8.53811 15.9442 8.37284 15.8686L5.26081 14.482V16.2523L5.27472 16.2556C5.5203 16.3135 5.78982 16.3771 6.06473 16.4596C6.45408 16.5688 6.86865 16.7089 7.28321 16.8826C7.70618 17.0674 8.12915 17.2803 8.5129 17.5464C8.53515 17.5642 8.55662 17.5765 8.57938 17.5896L8.5794 17.5896C8.59961 17.6012 8.62084 17.6133 8.64455 17.6305C8.68657 17.6557 8.72859 17.6809 8.7678 17.7145C8.86864 17.7901 9.00029 17.7901 9.09273 17.7145C9.31682 17.5408 9.55772 17.3896 9.80702 17.2579C10.0059 17.1487 10.2132 17.0422 10.4289 16.9498C10.9835 16.7089 11.5577 16.5268 12.0619 16.4092C12.0871 16.4008 12.1039 16.4008 12.1291 16.4008C12.1964 16.384 12.2692 16.3672 12.3448 16.3504C12.4093 16.3336 12.4765 16.3167 12.5437 16.3083ZM15.1908 11.3448C16.9162 11.3448 18.5353 11.1515 19.7538 10.7789C20.9639 10.412 21.6277 9.85737 21.8462 9.44001V5.49604C21.398 5.85178 20.7846 6.1431 20.0031 6.37559C18.7034 6.76494 16.9863 6.98063 15.1852 6.98063C13.384 6.98063 11.6754 6.76494 10.3644 6.37559C9.56892 6.1431 8.95548 5.83497 8.5073 5.47923V8.70051C8.46092 8.70824 8.42403 8.72308 8.38572 8.73849C8.38237 8.73983 8.37902 8.74118 8.37565 8.74253L2.89106 11.1851C2.44289 11.384 2.15997 11.8154 2.15997 12.314C2.15997 12.8041 2.44289 13.2355 2.89106 13.4344L4.01151 13.933V16.2579C4.01151 16.8882 4.46809 17.426 5.08994 17.5436C5.94428 17.6949 7.13195 18.017 7.99469 18.6893C8.15156 18.8153 8.32803 18.8966 8.5101 18.947V19.5856C8.5101 20.2831 9.21318 20.8574 10.6081 21.2803C11.8434 21.6473 13.4709 21.8545 15.1796 21.8545C16.8882 21.8545 18.5129 21.6445 19.7426 21.2803C21.1347 20.8574 21.849 20.2831 21.849 19.5856V16.0394C21.3672 16.4036 20.7454 16.7201 20.0059 16.9358C18.7146 17.3335 16.9947 17.5492 15.188 17.5492C14.4513 17.5492 13.7454 17.4988 13.0563 17.4316C13.4149 17.2747 13.681 16.9666 13.7874 16.5941C14.244 16.6277 14.709 16.6529 15.1908 16.6529C16.9162 16.6529 18.5353 16.4456 19.7538 16.0786C20.9639 15.7061 21.6277 15.1487 21.8518 14.7341V10.7481C21.37 11.1123 20.7482 11.4204 20.0087 11.6361C18.807 12.0002 17.2384 12.2075 15.5717 12.2327C15.5549 11.877 15.3896 11.5605 15.1151 11.3448H15.1908Z" fill="#313235"/>
</svg>
