<svg width="24" height="24" viewBox="0 0 24 24" fill="none" xmlns="http://www.w3.org/2000/svg">
<path fill-rule="evenodd" clip-rule="evenodd" d="M11.6698 2C11.9247 2 12.188 2.0028 12.4149 2.0112C14.3448 2.05602 21.8462 2.81793 21.8462 11.8711C21.8462 20.944 14.3336 21.6471 12.4541 21.6835C12.1544 21.6891 11.8518 21.6891 11.5521 21.6863C9.57734 21.6555 2.15997 20.9412 2.15997 11.8123C2.15997 2.69468 9.50731 2.01681 11.4849 2H11.6698ZM9.63616 6.32493L9.05913 3.54062C6.95829 4.06723 4.55213 5.46498 3.70899 8.98319L6.45969 9.55182C7.06473 7.63025 8.41487 6.73389 9.63616 6.32493ZM11.9191 16.4818C12.0339 16.4818 12.1488 16.4818 12.2468 16.479C16.216 16.409 16.6418 13.2269 16.6418 11.8599C16.6418 10.493 16.2104 7.30532 12.2188 7.21008C12.0927 7.20728 11.9443 7.20448 11.8014 7.20448H11.7034C10.0815 7.21849 7.36445 7.83753 7.36445 11.8263C7.36445 14.0616 8.18238 15.4678 9.86865 16.1232C10.4709 16.3473 11.1067 16.4706 11.751 16.4818H11.9191ZM14.342 17.3417L14.9135 20.1148C17.0003 19.577 19.3729 18.1933 20.2552 14.8235L17.4989 14.2549C16.8659 16.0672 15.5381 16.9328 14.342 17.3417ZM9.09274 20.126C7.01151 19.591 4.64737 18.2073 3.75941 14.8235L6.51852 14.2549C7.10955 15.9524 8.29723 16.8319 9.42608 17.2689C9.47532 17.2893 9.52354 17.3035 9.57198 17.3177C9.60344 17.327 9.63499 17.3363 9.66697 17.3473L9.09274 20.126ZM14.9331 3.60504C17.0339 4.17087 19.4093 5.58543 20.272 8.98879L17.5269 9.55462C16.9107 7.69468 15.5745 6.79832 14.3616 6.36975L14.9331 3.60504Z" fill="#313235"/>
</svg>
