<svg width="24" height="24" viewBox="0 0 24 24" fill="none" xmlns="http://www.w3.org/2000/svg">
<path fill-rule="evenodd" clip-rule="evenodd" d="M15.7726 18.5079C15.8567 18.5331 15.9491 18.5471 16.0387 18.5471C16.232 18.5471 16.4197 18.4855 16.5794 18.3734C16.8315 18.1913 16.9799 17.8972 16.9799 17.5863V6.40143C16.9799 6.09051 16.8315 5.79639 16.5794 5.61431C16.3469 5.44625 16.0471 5.39583 15.7726 5.47986L3.2823 9.23294C3.2758 8.95265 3.03463 8.72916 2.73622 8.72916C2.4337 8.72916 2.19 8.96165 2.19 9.24457V14.7544C2.19 15.0401 2.4337 15.2698 2.73622 15.2698C3.03858 15.2698 3.28218 15.0403 3.28244 14.7548L6.46281 15.7105L6.28244 16.2838C6.14799 16.7152 6.38888 17.1773 6.82025 17.3118L9.08916 18.0233C9.17039 18.0513 9.25443 18.0625 9.33566 18.0625C9.46731 18.0625 9.59617 18.0317 9.71381 17.9673C9.90989 17.8664 10.0527 17.6955 10.1172 17.4855L10.3117 16.867L15.7726 18.5079ZM19.0948 8.16894C18.9547 8.16894 18.8147 8.11572 18.7082 8.00927C18.4953 7.79639 18.4953 7.44905 18.7082 7.23616L20.2544 5.68994C20.4673 5.47706 20.8147 5.47706 21.0275 5.68994C21.2404 5.90283 21.2404 6.25017 21.0275 6.46305L19.4813 8.00927C19.3749 8.11572 19.2348 8.16894 19.0948 8.16894ZM19.162 12.2782C18.8595 12.2782 18.6158 12.0345 18.6158 11.732C18.6158 11.4294 18.8595 11.1857 19.162 11.1857H21.3469C21.6494 11.1857 21.8931 11.4294 21.8931 11.732C21.8931 12.0345 21.6494 12.2782 21.3469 12.2782H19.162ZM7.40849 16.3538L9.15639 16.9028L9.22642 16.6787L7.47852 16.1297L7.40849 16.3538ZM20.246 17.7096C20.3525 17.816 20.4925 17.8692 20.6326 17.8692C20.7726 17.8692 20.9127 17.816 21.0191 17.7096C21.232 17.4967 21.232 17.1493 21.0191 16.9364L19.5121 15.4294C19.2992 15.2166 18.9519 15.2166 18.739 15.4294C18.5261 15.6423 18.5261 15.9897 18.739 16.2026L20.246 17.7096Z" fill="#313235"/>
</svg>
