<svg width="24" height="24" viewBox="0 0 24 24" fill="none" xmlns="http://www.w3.org/2000/svg">
<path fill-rule="evenodd" clip-rule="evenodd" d="M18.7263 5.83412C18.998 5.59602 19.0204 5.18986 18.7795 4.92375C16.0915 1.98304 12.1124 2.15579 11.9127 2.16446L11.9084 2.16465C7.58345 2.20947 5.26973 4.65484 5.17169 4.75848C4.92519 5.02179 4.9476 5.43075 5.21651 5.66885C5.48542 5.90694 5.90278 5.88734 6.14928 5.62403L6.15094 5.62232C6.21912 5.552 8.21344 3.49465 11.9532 3.45316C11.9896 3.44756 15.519 3.2907 17.7963 5.78089C17.9252 5.92375 18.1045 5.99658 18.2865 5.99658C18.4434 5.99658 18.6003 5.94336 18.7263 5.83412ZM11.97 10.7473C12.8664 10.7473 13.5666 10.9798 14.054 11.4392C14.5582 11.9125 14.8159 12.6184 14.8159 13.5288C14.8159 14.442 14.561 15.145 14.054 15.6184C13.5694 16.0722 12.8692 16.3047 11.97 16.3047C11.0737 16.3047 10.3734 16.0722 9.88878 15.6184C9.38738 15.145 9.12967 14.442 9.12967 13.5288C9.12967 12.6184 9.38457 11.9125 9.88878 11.4392C10.3734 10.9798 11.0708 10.7473 11.97 10.7473ZM13.7011 17.5232C14.7543 17.5232 15.6199 17.8341 16.2025 18.428C16.7347 18.9714 17.0204 19.7249 17.0204 20.61V21.5344C17.0204 21.7081 16.8776 21.8509 16.6983 21.8509H7.25292C7.07365 21.8509 6.93079 21.7081 6.93079 21.5344V20.61C6.93079 19.7277 7.21091 18.9714 7.74592 18.428C8.32575 17.8341 9.1885 17.5232 10.2445 17.5232H13.7011ZM11.914 4.99938C12.026 4.98818 15.2333 4.88454 17.2809 7.12263C17.5246 7.38594 17.4994 7.7949 17.2277 8.03019C16.956 8.27109 16.5414 8.24588 16.2977 7.98257C14.6759 6.20947 11.9756 6.2851 11.9476 6.2879C9.26413 6.31871 7.65908 7.99938 7.64508 8.01899C7.51343 8.15624 7.33696 8.22907 7.15488 8.22907C6.99802 8.22907 6.83836 8.17305 6.71231 8.06381C6.4434 7.82291 6.42099 7.41955 6.66189 7.15344C6.74592 7.06381 8.65348 5.0358 11.914 4.99938ZM14.5246 10.1731C14.7683 10.4392 15.1829 10.4616 15.4574 10.2263C15.7291 9.98818 15.7515 9.58201 15.5106 9.31591C14.1771 7.85697 12.1162 7.89004 11.9434 7.89281C11.9387 7.89289 11.9354 7.89294 11.9336 7.89294C9.76553 7.91535 8.49102 9.27389 8.4378 9.33271C8.1941 9.59882 8.21651 9.99938 8.48261 10.2403C8.60866 10.3523 8.76833 10.4055 8.92519 10.4055C9.10446 10.4055 9.28373 10.3355 9.41259 10.1983C9.4518 10.1562 10.3762 9.19826 11.9672 9.18145C11.9677 9.18145 11.9686 9.18144 11.9701 9.18142C12.05 9.18028 13.5978 9.15823 14.5246 10.1731Z" fill="#313235"/>
</svg>
