<svg width="24" height="24" viewBox="0 0 24 24" fill="none" xmlns="http://www.w3.org/2000/svg">
<path fill-rule="evenodd" clip-rule="evenodd" d="M20.8939 3.11509C21.5353 3.75375 21.849 4.65011 21.849 5.85179V18.1571C21.849 19.3728 21.5353 20.272 20.8855 20.9106C20.2412 21.5409 19.3364 21.849 18.1208 21.849H11.9107C10.6922 21.849 9.79023 21.5409 9.14877 20.9106C8.57174 20.3448 8.26081 19.5717 8.19639 18.5521V18.003C8.17855 18.003 8.1607 18.0037 8.14253 18.0044L8.14245 18.0044C8.12356 18.0051 8.10431 18.0059 8.08434 18.0059C4.34205 18.0059 2.15997 16.1347 2.15997 12.1375C2.15997 8.1375 4.34205 6.26635 8.08434 6.26635C8.10115 6.26635 8.11796 6.26706 8.13476 6.26776L8.1348 6.26776C8.15159 6.26846 8.16839 6.26916 8.18518 6.26916V5.85179C8.18518 4.66691 8.49891 3.77616 9.14037 3.1319C9.79303 2.47924 10.6978 2.15991 11.9107 2.15991H18.1208C19.342 2.16271 20.2496 2.47364 20.8939 3.11509ZM8.08714 16.8014C11.3 16.8014 12.7958 15.3196 12.7958 12.1375C12.7958 8.95543 11.3 7.47084 8.08714 7.47084C4.87706 7.47084 3.38126 8.95263 3.38126 12.1375C3.38126 15.3196 4.87706 16.8014 8.08714 16.8014ZM13.9639 18.0087C13.9639 17.3532 14.3589 16.961 15.0171 16.961C15.6782 16.961 16.0703 17.3532 16.0703 18.0087C16.0703 18.328 15.9779 18.5829 15.7958 18.7678C15.611 18.9554 15.342 19.0535 15.0171 19.0535C14.6922 19.0535 14.4233 18.9554 14.2384 18.7678C14.0563 18.5857 13.9639 18.328 13.9639 18.0087ZM6.26642 9.30557C6.60255 9.30557 6.87426 9.57448 6.87426 9.90781V14.6193C6.87426 14.9526 6.60255 15.2243 6.26642 15.2243C5.93028 15.2243 5.65857 14.9554 5.65857 14.6193V9.91061C5.65857 9.57728 5.93308 9.30557 6.26642 9.30557ZM10.3252 9.89381C10.3252 9.56327 10.0535 9.29156 9.7174 9.29156C9.38126 9.29156 9.10955 9.56047 9.10955 9.89381V14.6053C9.10955 14.9414 9.38126 15.2103 9.7174 15.2103C10.0535 15.2103 10.3252 14.9386 10.3252 14.6053V9.89381Z" fill="#313235"/>
</svg>
