<svg width="24" height="24" viewBox="0 0 24 24" fill="none" xmlns="http://www.w3.org/2000/svg">
<path fill-rule="evenodd" clip-rule="evenodd" d="M20.8911 3.1235C21.541 3.75935 21.8491 4.65851 21.8491 5.85459V18.1543C21.8491 19.3756 21.5326 20.2776 20.8827 20.9106C20.2412 21.5381 19.3393 21.8518 18.1236 21.8518H11.9163C10.6978 21.8518 9.79866 21.5381 9.1488 20.9106C8.57177 20.3392 8.26365 19.5689 8.19922 18.5549V18.0087H8.08437C4.34488 18.0087 2.16 16.1347 2.16 12.1403C2.16 8.14591 4.34488 6.27196 8.08437 6.27196H8.19082V5.85179C8.19082 4.66972 8.49894 3.77896 9.1488 3.1347C9.79586 2.48484 10.6978 2.15991 11.9163 2.15991H18.1236C19.3421 2.16551 20.2496 2.47924 20.8911 3.1235ZM12.8015 12.1431C12.8015 15.3252 11.3001 16.8042 8.08717 16.8042C4.88269 16.8042 3.38129 15.3252 3.38129 12.1431C3.38129 8.96103 4.88269 7.48204 8.08717 7.48204C11.3001 7.48204 12.8015 8.96103 12.8015 12.1431ZM9.28325 8.92462C9.73984 9.25515 9.95272 9.71173 9.95272 10.3588C9.95272 11.1291 9.62219 11.5997 8.92471 12.4204C8.146 13.314 8.146 13.314 8.146 14.0955C8.146 14.3168 7.96393 14.496 7.73984 14.496H7.47933C7.28605 14.496 7.11799 14.3616 7.08157 14.1711C7.05916 14.0535 7.04516 13.933 7.04516 13.7678C7.04516 13.0871 7.29166 12.6725 7.81266 12.0535L7.9107 11.9386C8.74264 10.961 8.85468 10.7341 8.85468 10.3476C8.85468 10.0731 8.78465 9.91061 8.60258 9.76776C8.49894 9.68372 8.30566 9.58848 7.75104 9.58848C7.43451 9.58848 7.1516 9.6249 6.81266 9.71173C6.70622 9.73694 6.59138 9.72014 6.49614 9.66131C6.4009 9.60249 6.33647 9.50725 6.31407 9.39801L6.27485 9.19913C6.24124 9.01706 6.33367 8.83778 6.50174 8.75935C6.78185 8.6305 7.37009 8.52966 7.86869 8.52966C8.45692 8.52686 8.93311 8.66131 9.28325 8.92462ZM7.62499 14.7594C8.03115 14.7594 8.30846 15.0367 8.30846 15.4176C8.30846 15.8378 8.03395 16.1067 7.6418 16.1067C7.23003 16.1067 6.95832 15.8406 6.95832 15.4568V15.4204C6.96112 15.0367 7.23844 14.7594 7.62499 14.7594ZM13.9695 18.0087C13.9695 17.3504 14.3589 16.9638 15.0171 16.9638C15.681 16.9638 16.0704 17.3504 16.0704 18.0087C16.0704 18.328 15.9807 18.5857 15.7959 18.7622C15.6082 18.9554 15.3421 19.0507 15.0171 19.0507C14.6922 19.0507 14.4261 18.9554 14.2384 18.7622C14.0592 18.5857 13.9695 18.328 13.9695 18.0087Z" fill="#313235"/>
</svg>
