<svg width="24" height="24" viewBox="0 0 24 24" fill="none" xmlns="http://www.w3.org/2000/svg">
<path fill-rule="evenodd" clip-rule="evenodd" d="M14.122 6.44956C14.2508 6.72407 14.5141 6.89494 14.8082 6.89494L15.9567 6.90614L15.9595 8.88373C15.9595 9.49437 16.4497 9.99017 17.0519 9.99017H18.769C19.3712 9.99017 19.8614 9.49437 19.8614 8.88093L19.8586 6.90334L21.0043 6.89494C21.3012 6.89494 21.5645 6.72407 21.6934 6.44956C21.8222 6.17505 21.783 5.84452 21.5561 5.56721L18.5057 2.43556C18.4777 2.40195 18.4245 2.34873 18.3909 2.32072C18.234 2.19187 18.0351 2.13024 17.8306 2.15545C17.629 2.17786 17.4469 2.2815 17.3657 2.39075L14.2228 5.60643C14.0323 5.84452 13.9931 6.17225 14.122 6.44956ZM3.50293 6.83051C3.164 6.83051 2.88669 7.11063 2.88669 7.45516C2.88669 7.7997 3.1612 8.07981 3.50013 8.08541H4.09117C4.60377 9.69045 5.9259 10.5616 7.9483 10.5616C8.76063 10.5616 9.46931 10.4187 10.0547 10.1386C10.3629 9.99017 10.4945 9.61762 10.3489 9.3039C10.2032 8.99297 9.83625 8.85572 9.52813 9.00418C9.10796 9.20586 8.57855 9.3067 7.9483 9.3067C6.67099 9.3067 5.84747 8.90334 5.4245 8.07981H7.32365C7.66259 8.07981 7.9399 7.7997 7.9399 7.45516C7.9399 7.11063 7.66539 6.83051 7.32365 6.83051H5.10517C5.10242 6.7837 5.09876 6.73749 5.09509 6.69109L5.09509 6.69108L5.09509 6.69108L5.09509 6.69107L5.09509 6.69106L5.09509 6.69105L5.09509 6.69105L5.09509 6.69104L5.09508 6.69103L5.09508 6.69103L5.09508 6.69102L5.09508 6.69101C5.08755 6.59584 5.07996 6.49989 5.07996 6.39634C5.07996 6.37533 5.08206 6.35573 5.08416 6.33612C5.08626 6.31651 5.08836 6.2969 5.08836 6.27589H7.32365C7.66259 6.27589 7.9399 5.99578 7.9399 5.65124C7.9399 5.30671 7.66539 5.0266 7.32365 5.0266H5.28724C5.65419 3.98458 6.51973 3.48598 7.9483 3.48598C8.57015 3.48598 9.09676 3.58682 9.51412 3.7829C9.81665 3.92856 10.1892 3.7913 10.3321 3.47758C10.4749 3.16385 10.3405 2.79131 10.0323 2.64565C9.4525 2.37114 8.75222 2.23388 7.9483 2.23388C5.79985 2.23388 4.45251 3.22268 4.01554 5.0266H3.50013C3.1612 5.0266 2.88389 5.30671 2.88389 5.65124C2.88389 5.99578 3.1584 6.27589 3.50013 6.27589H3.85587C3.85587 6.2969 3.85377 6.31651 3.85167 6.33612C3.84957 6.35573 3.84747 6.37533 3.84747 6.39634C3.84747 6.49139 3.856 6.57898 3.86451 6.66634C3.86979 6.72058 3.87506 6.77472 3.87828 6.83051H3.50293ZM19.9959 20.3515C20.5253 20.1918 20.6037 20.0266 20.6037 20.0266V19.175C20.5848 19.1828 20.5661 19.1908 20.5473 19.1988L20.5473 19.1988L20.5473 19.1988L20.5472 19.1988L20.5472 19.1988L20.5472 19.1989L20.5471 19.1989L20.5471 19.1989L20.5471 19.1989L20.5471 19.1989C20.4852 19.2252 20.4231 19.2516 20.3544 19.2731C19.7494 19.4579 18.9679 19.5588 18.15 19.5588C17.332 19.5588 16.5505 19.4579 15.9455 19.2731C15.8776 19.2525 15.8172 19.2274 15.7566 19.2022L15.7566 19.2021C15.7347 19.193 15.7129 19.1839 15.6906 19.175V20.0294C15.7018 20.0518 15.7942 20.2002 16.2956 20.3543C17.2732 20.6512 19.0099 20.6512 19.9959 20.3515ZM14.4497 20.0406C14.3601 20.1274 14.1668 20.2563 13.8475 20.3543C12.8727 20.6512 11.1304 20.6512 10.1472 20.3571C9.79424 20.2479 9.61216 20.1218 9.53373 20.049V19.1358C9.56268 19.147 9.59069 19.1588 9.6187 19.1707C9.67472 19.1943 9.73074 19.218 9.79424 19.2367C10.3993 19.4215 11.1808 19.5224 11.9987 19.5224C12.8166 19.5224 13.601 19.4215 14.2032 19.2367C14.2607 19.2187 14.3125 19.1972 14.3637 19.176C14.3922 19.1642 14.4206 19.1524 14.4497 19.1414V20.0406ZM7.6962 20.3543C8.03794 20.2507 8.21721 20.1162 8.30124 20.035V19.1498C8.26909 19.1616 8.23857 19.1742 8.20797 19.1869L8.20794 19.1869L8.20793 19.1869C8.15857 19.2073 8.10899 19.2278 8.05194 19.2451C7.4497 19.4299 6.66539 19.5308 5.84747 19.5308C5.02954 19.5308 4.24523 19.4299 3.64299 19.2451C3.5795 19.2264 3.52347 19.2027 3.46745 19.1791C3.43944 19.1672 3.41143 19.1554 3.38248 19.1442V20.0434C3.45811 20.119 3.64019 20.2423 3.99873 20.3515C4.97912 20.654 6.72141 20.6512 7.6962 20.3543ZM3.53655 17.8501C3.62898 17.7913 3.76344 17.724 3.99313 17.654C4.97352 17.3543 6.71301 17.3543 7.6934 17.654C7.92589 17.7269 8.06315 17.7969 8.15278 17.8529C8.05755 17.9117 7.91189 17.979 7.6962 18.0462C6.71581 18.3459 4.97912 18.3431 3.99873 18.0462C3.77464 17.979 3.62898 17.9089 3.53655 17.8501ZM10.1444 15.3347C9.92589 15.4019 9.78303 15.472 9.6906 15.528C9.78023 15.5868 9.91468 15.6568 10.15 15.7269C11.1304 16.0238 12.8727 16.0238 13.8475 15.7269C14.0659 15.6596 14.2088 15.5924 14.304 15.5336C14.2144 15.4748 14.0799 15.4047 13.8446 15.3347C12.8671 15.0378 11.1248 15.0378 10.1444 15.3347ZM15.839 13.2535C15.9315 13.1946 16.0715 13.1274 16.2928 13.0602C17.276 12.7577 19.0127 12.7605 19.9959 13.0602C20.2284 13.133 20.3656 13.2002 20.4553 13.2591C20.36 13.3179 20.2172 13.3851 19.9987 13.4523C19.0183 13.7521 17.2788 13.7493 16.3012 13.4523C16.0659 13.3823 15.9287 13.3123 15.839 13.2535ZM15.6878 16.8585V17.7717C15.7662 17.8473 15.9511 17.9705 16.2984 18.0742C17.2816 18.3739 19.0155 18.3739 19.9987 18.0742C20.3236 17.9733 20.5169 17.8417 20.6037 17.7549V16.8585C20.5779 16.8688 20.5529 16.8794 20.528 16.89C20.4719 16.9137 20.4165 16.9371 20.3544 16.9565C19.755 17.1386 18.9707 17.2423 18.15 17.2423C17.3292 17.2423 16.5477 17.1414 15.9455 16.9565C15.8856 16.9389 15.8324 16.9169 15.7802 16.8953L15.7802 16.8953L15.7802 16.8953L15.7802 16.8953C15.7494 16.8825 15.719 16.8699 15.6878 16.8585ZM15.7672 14.5852C15.8232 14.6089 15.8792 14.6326 15.9427 14.6512C16.5477 14.8333 17.3292 14.9341 18.1472 14.9341C18.9651 14.9341 19.7466 14.8333 20.3516 14.6484C20.4207 14.6275 20.4788 14.6034 20.5389 14.5786L20.5389 14.5786L20.5389 14.5786C20.5592 14.5702 20.5797 14.5617 20.6009 14.5532V15.4383C20.5197 15.5196 20.3376 15.654 19.9959 15.7577C19.0183 16.0574 17.2788 16.0574 16.2984 15.7577C15.9399 15.6484 15.7606 15.5252 15.6822 15.4495V14.5504C15.7111 14.5616 15.7391 14.5734 15.7672 14.5852ZM9.53373 17.7269C9.61216 17.8025 9.79424 17.9257 10.15 18.035C11.1332 18.3319 12.8671 18.3347 13.8475 18.035C14.1864 17.9313 14.3657 17.8025 14.4469 17.7184V16.8305C14.4178 16.8415 14.3894 16.8533 14.3609 16.8651L14.3609 16.8651C14.3097 16.8863 14.2579 16.9078 14.2004 16.9257C13.601 17.1106 12.8166 17.2114 11.9959 17.2114C11.1752 17.2114 10.3937 17.1106 9.79144 16.9257C9.72794 16.9052 9.67192 16.8822 9.6159 16.8591L9.61579 16.8591C9.58781 16.8476 9.55984 16.8361 9.53093 16.8249V17.7269H9.53373ZM21.8362 13.3907C21.8362 12.9005 21.5785 12.2367 20.3488 11.8613C19.1444 11.4916 17.1444 11.4916 15.9371 11.8669C15.136 12.1106 14.6542 12.5056 14.5001 13.0406C14.4665 13.1526 14.4497 13.2731 14.4497 13.3935V14.2339C14.3685 14.2002 14.2928 14.1694 14.2004 14.1414C12.9987 13.7717 10.9931 13.7717 9.78863 14.1414C8.98752 14.3851 8.50292 14.7801 8.35166 15.3151C8.31805 15.4271 8.30124 15.5448 8.30124 15.668V16.5504C8.28011 16.5424 8.25918 16.5342 8.23813 16.5259C8.17826 16.5025 8.11754 16.4787 8.04914 16.4579C6.84466 16.091 4.84187 16.091 3.63739 16.4579C2.83627 16.7016 2.35167 17.0966 2.19761 17.6316V17.6344C2.1668 17.7465 2.14999 17.8669 2.14999 17.9846V20.2955C2.14999 20.4944 2.24523 20.6624 2.38809 20.7773C2.64299 21.1078 3.06596 21.3739 3.64299 21.5504C4.24243 21.7352 5.02674 21.8361 5.84747 21.8361C6.66819 21.8361 7.4525 21.7352 8.05194 21.5504C8.38528 21.4467 8.67379 21.3039 8.91189 21.133C9.14718 21.3011 9.4413 21.4439 9.79424 21.5504C10.3965 21.7352 11.178 21.8361 11.9987 21.8361C12.8194 21.8361 13.6038 21.7352 14.2032 21.5504C14.5365 21.4467 14.8278 21.3039 15.0659 21.133C15.2816 21.2899 15.5589 21.4355 15.9371 21.5504C16.5421 21.7352 17.3236 21.8361 18.1416 21.8361C18.9595 21.8361 19.7438 21.7352 20.3488 21.5504C21.5785 21.175 21.8362 20.5112 21.8362 20.021V13.3907Z" fill="#313235"/>
</svg>
