<svg width="24" height="24" viewBox="0 0 24 24" fill="none" xmlns="http://www.w3.org/2000/svg">
<path d="M21.2811 16.2296C21.1466 16.1063 20.9477 16.0839 20.7881 16.1736C19.3567 16.9859 17.8161 17.1344 17.0178 17.154C16.8189 17.1624 16.5696 17.1624 16.3455 17.1624C14.7405 17.14 9.50797 16.5461 9.50797 9.99152C9.50797 5.15679 12.3007 3.54615 14.6424 3.04475C14.8693 2.99713 15.0122 2.77304 14.9645 2.54615C14.9281 2.38089 14.7965 2.25204 14.6312 2.22122C13.8245 2.07277 13.1634 2.04195 12.8357 2.03355L11.9393 2.02515C9.73766 2.05596 2.55 2.84587 2.55 11.8431C2.55 13.4649 3.00658 21.5657 12.0066 21.7142C12.3035 21.7142 12.6228 21.7142 12.8805 21.7058C14.3427 21.6834 19.2755 21.2492 21.3763 16.7142C21.4547 16.5489 21.4155 16.3528 21.2811 16.2296Z" fill="#313235"/>
</svg>
