<svg width="24" height="24" viewBox="0 0 24 24" fill="none" xmlns="http://www.w3.org/2000/svg">
<path fill-rule="evenodd" clip-rule="evenodd" d="M12.0829 6.42025V6.05627C12.0829 6.03666 12.0716 5.74814 11.926 5.47924C11.7523 5.15711 11.4638 5.00865 11.0156 5.00865H9.09686C8.2005 5.00865 7.433 4.80977 6.87838 4.43442C6.27334 4.02265 5.94 3.40921 5.94 2.70893C5.94 2.40641 6.1865 2.15991 6.48902 2.15991C6.79154 2.15991 7.03804 2.40641 7.03804 2.70893C7.03804 3.59688 8.10246 3.91341 9.09966 3.91341H11.0184C11.8868 3.91341 12.5618 4.30277 12.9176 5.00865C13.1725 5.51005 13.1781 5.99744 13.1781 6.05346V6.4233C14.6809 6.51395 15.8721 6.96884 16.7243 7.77615C17.7187 8.72573 18.2257 10.1319 18.2257 11.961V16.2719C18.2257 18.1683 17.7859 19.5352 16.8812 20.4456C15.9568 21.3756 14.559 21.8265 12.6039 21.8265C10.828 21.8265 9.4414 21.3672 8.48342 20.4568C7.48622 19.51 6.98202 18.1011 6.98202 16.2719V11.961C6.98202 10.1319 7.48622 8.72293 8.48342 7.77615C9.3431 6.95932 10.5545 6.50327 12.0829 6.42025ZM12.6039 8.30276C12.3013 8.30276 12.0548 8.54926 12.0548 8.85178V11.7285C12.0576 12.031 12.3013 12.2775 12.6039 12.2775C12.9064 12.2775 13.1529 12.031 13.1529 11.7285V8.85178C13.1501 8.54926 12.9064 8.30276 12.6039 8.30276ZM17.3602 13.3924C15.7803 13.5549 14.1949 13.6333 12.6067 13.6333C11.0184 13.6361 9.43299 13.5549 7.85316 13.3924C7.57585 13.3644 7.38258 13.1711 7.42179 12.9638C7.46101 12.7565 7.71591 12.6109 7.99322 12.6417C9.52543 12.7986 11.066 12.877 12.6067 12.8742C14.1473 12.877 15.6879 12.7986 17.2201 12.6417C17.4974 12.6137 17.7523 12.7565 17.7915 12.9638C17.8307 13.1711 17.6375 13.3644 17.3602 13.3924Z" fill="#313235"/>
</svg>
