<svg width="24" height="24" viewBox="0 0 24 24" fill="none" xmlns="http://www.w3.org/2000/svg">
<path d="M20.6241 5.70172C20.6241 5.1555 20.2011 4.70452 19.6577 4.6541L10.372 2.17231L10.2067 2.1499C9.76415 2.1499 9.386 2.41601 9.22353 2.79416C9.17031 2.92021 9.1395 3.05747 9.1395 3.20312V11.458C8.51765 10.9986 7.75574 10.7802 7.04146 10.7633C6.95182 10.7605 6.84538 10.7605 6.74454 10.7605C5.20112 10.7746 3.4 11.6849 3.4 14.2087C3.4 16.7297 5.21233 17.6513 6.76135 17.6737H6.87619C6.93782 17.6737 6.99664 17.6737 7.04706 17.6709C8.53165 17.6457 10.2347 16.7858 10.3804 14.5225H10.4084V5.93982L19.3608 8.3852V15.6177C18.7389 15.1583 17.9714 14.9398 17.2571 14.923L16.9658 14.9202C15.4224 14.9342 13.6213 15.8446 13.6213 18.3684C13.6213 20.8894 15.4336 21.811 16.9826 21.8334H17.0975C17.1591 21.8334 17.2179 21.8334 17.2683 21.8306C18.8174 21.8026 20.6297 20.8838 20.6297 18.3824C20.6297 18.332 20.6185 18.2928 20.6157 18.2451H20.6297V5.70172H20.6241Z" fill="#313235"/>
</svg>
