<svg width="24" height="24" viewBox="0 0 24 24" fill="none" xmlns="http://www.w3.org/2000/svg">
<path fill-rule="evenodd" clip-rule="evenodd" d="M13.0714 2C18.1106 2 20.8866 4.72549 20.8866 9.67227C20.8866 10.6751 20.7689 11.5378 20.57 12.2913H15.388C15.2731 12.0168 15.0882 11.7787 14.8529 11.5966L16.1022 8.22129C16.8529 8.03081 17.4104 7.36695 17.4104 6.57143C17.4104 5.62745 16.6288 4.85994 15.6653 4.85994C14.965 4.85994 14.3599 5.26891 14.0854 5.85714H12.5672V2.01681C12.6232 2.01494 12.679 2.01245 12.7347 2.00996C12.8461 2.00498 12.9575 2 13.0714 2ZM13.7745 14.6443C14.4804 14.6471 15.1162 14.2241 15.3908 13.5742H20.0994C19.4608 14.9216 18.5308 15.7787 17.6176 16.2997L17.6064 20.8319C17.6008 21.3081 17.2115 21.6891 16.7353 21.6863H9.34033C8.86414 21.6891 8.47479 21.3081 8.46918 20.8319V19.2997C7.29832 19.1821 6.43557 18.8179 5.90056 18.2101C5.43837 17.6891 5.31512 17.0728 5.34874 16.6667L5.32353 14.9916L3.49159 14.5182C3.19748 14.4426 2.96218 14.2185 2.87535 13.9244C2.79131 13.6331 2.86974 13.3193 3.07983 13.1008C3.71848 12.437 4.2507 11.7199 4.66246 10.9748C5.03221 10.2997 5.24229 9.61345 5.28151 8.93277C5.5084 5.06723 7.61484 2.70588 11.2591 2.14006V6.2437L9.58683 7.95238C9.37675 7.86555 9.15266 7.82353 8.92577 7.82073C7.96498 7.82073 7.18067 8.58824 7.18067 9.53221C7.18067 10.4762 7.96218 11.2437 8.92577 11.2437C9.88655 11.2437 10.6681 10.4762 10.6681 9.53221C10.6681 9.29692 10.6176 9.06443 10.5224 8.84874L12.1919 7.14286H14.0294C14.1667 7.52381 14.4328 7.83753 14.7801 8.03922L13.5952 11.2409C12.7185 11.3305 12.0322 12.0504 12.0322 12.9356C12.0322 13.8796 12.8137 14.6471 13.7745 14.6443ZM15.6681 7.0028C15.9062 7.0028 16.1022 6.80952 16.1022 6.57423C16.1022 6.33894 15.9062 6.14566 15.6681 6.14566C15.4272 6.14566 15.2311 6.33894 15.2311 6.57423C15.2339 6.81513 15.43 7.0056 15.6681 7.0028ZM9.17227 9.18768C9.17771 9.19403 9.18846 9.20216 9.20117 9.21176C9.22766 9.23178 9.26266 9.25823 9.27591 9.28852C9.32913 9.35854 9.35994 9.44258 9.36274 9.52941C9.36274 9.76471 9.16666 9.95798 8.92577 9.95798C8.68767 9.96078 8.49159 9.76751 8.48879 9.52941C8.48879 9.29412 8.68487 9.10084 8.92577 9.10084C9.0182 9.10364 9.10224 9.13726 9.17227 9.18768ZM13.7717 12.5042C13.5336 12.5042 13.3375 12.6975 13.3375 12.9328C13.3403 13.1709 13.5364 13.3641 13.7717 13.3613C14.0126 13.3613 14.2087 13.1681 14.2087 12.9328C14.2087 12.6975 14.0126 12.5042 13.7717 12.5042Z" fill="#313235"/>
</svg>
