<svg width="24" height="24" viewBox="0 0 24 24" fill="none" xmlns="http://www.w3.org/2000/svg">
<path fill-rule="evenodd" clip-rule="evenodd" d="M20.5953 15.3992C20.2956 15.0967 19.9595 14.8305 19.5953 14.6121C19.0519 14.2759 18.4945 14.1079 17.9343 14.1079C17.7774 14.1079 17.6205 14.1219 17.4609 14.1499C16.741 14.2703 16.0379 14.6737 15.3656 15.346C15.1948 15.5168 15.0883 15.6373 14.9231 15.8418C14.8866 15.8586 14.8474 15.867 14.8054 15.867C14.6205 15.867 14.2648 15.7521 13.6738 15.3488C12.7914 14.7437 11.7522 13.7353 11.0463 13.0266L10.9623 12.9454C10.2564 12.2395 9.248 11.1975 8.64296 10.3152C8.11915 9.55325 8.07993 9.1807 8.14716 9.06305C8.35164 8.89779 8.46929 8.79415 8.64296 8.62048C9.31523 7.94821 9.71859 7.24233 9.84184 6.52524C9.96228 5.80536 9.80822 5.08547 9.37685 4.39079C9.15836 4.02385 8.89506 3.68771 8.58974 3.3908C7.78021 2.58408 6.93988 2.16671 6.09394 2.1499H6.04072C5.18078 2.1499 4.30963 2.56447 3.45809 3.37959C3.15787 3.66329 2.86849 4.06344 2.76836 4.20189L2.76835 4.20189L2.76342 4.20872L2.74941 4.22553L2.73261 4.25074C1.93709 5.4048 1.9567 7.19191 2.78863 9.28434C3.66258 11.472 5.35725 13.8642 7.69618 16.2031L7.70178 16.2059L7.77461 16.2787L7.78021 16.2843C10.1191 18.6233 12.5113 20.3207 14.699 21.1919C15.769 21.6177 16.7606 21.8333 17.6289 21.8333C18.4553 21.8333 19.1695 21.6401 19.7326 21.2507L19.7578 21.2311L19.7746 21.2199C19.909 21.1247 20.3152 20.8305 20.6065 20.528C21.4384 19.6569 21.853 18.7689 21.8334 17.8894C21.8166 17.0434 21.402 16.2059 20.5953 15.3992ZM16.769 12.0574C13.7158 12.0574 11.9371 10.514 11.9371 7.21992C11.9371 3.92021 13.7158 2.37679 16.769 2.37679C19.8222 2.37679 21.6037 3.92021 21.6037 7.21992C21.6037 10.5196 19.8222 12.0574 16.769 12.0574ZM15.5505 9.28994C15.3124 9.52524 14.9343 9.52244 14.699 9.28714C14.4637 9.05185 14.4637 8.6709 14.7018 8.4328L15.9175 7.21432L14.7018 5.99583C14.4665 5.75774 14.4665 5.37679 14.7018 5.14149C14.9399 4.9062 15.3208 4.9062 15.5561 5.14149L16.7718 6.35998L17.9931 5.13869C18.2228 4.92581 18.5785 4.92581 18.811 5.13869C19.0547 5.36558 19.0715 5.74653 18.8446 5.99303L17.6233 7.21712L18.8446 8.43841C19.0799 8.6737 19.0799 9.05745 18.8446 9.29275L18.8418 9.29555C18.6065 9.52804 18.2256 9.52804 17.9903 9.29275L16.769 8.06866L15.5533 9.28714L15.5505 9.28994Z" fill="#313235"/>
</svg>
