<svg width="24" height="24" viewBox="0 0 24 24" fill="none" xmlns="http://www.w3.org/2000/svg">
<path fill-rule="evenodd" clip-rule="evenodd" d="M19.3947 8.15711C19.3947 7.92462 19.2995 7.69773 19.1342 7.53806L13.9185 2.40921C13.7589 2.24675 13.546 2.15991 13.3163 2.15991H6.00816C5.28827 2.15991 4.63 2.82098 4.63 3.53806V20.468C4.63 21.1991 5.27146 21.8462 6.00816 21.8462H18.0082C18.7617 21.8462 19.3947 21.2187 19.3947 20.468V8.15711ZM13.644 3.81257L17.7168 7.81818V7.82098H15.9269C15.2463 7.82098 14.6664 7.60249 14.2631 7.20753C13.8569 6.81257 13.644 6.24675 13.644 5.59409V3.81257ZM15.8681 13.4624C15.7168 13.6081 14.053 15.1151 11.4143 17.4932L9.42552 18.1851L10.0754 16.2187C10.4647 15.8714 14.3247 12.4036 14.5768 12.1487C14.8149 11.9078 15.067 11.8574 15.2519 11.8742C15.4815 11.8826 15.7028 11.9862 15.8709 12.1571C16.0446 12.3252 16.1482 12.5857 16.1482 12.8266C16.1482 13.0675 16.0502 13.2776 15.8681 13.4624ZM13.7364 11.2944C14.672 10.3504 15.9801 10.5521 16.7084 11.2944C17.1062 11.6977 17.3359 12.2692 17.3359 12.8322C17.3359 13.4036 17.1118 13.9218 16.7 14.3308C16.4871 14.5381 14.1398 16.6585 12.207 18.4008L12.137 18.4652C12.0278 18.5633 11.9073 18.6361 11.7729 18.6753L9.51236 19.44C9.40031 19.4708 9.29107 19.4876 9.18743 19.4876C9.15662 19.4876 9.123 19.4876 9.10059 19.4792C9.08379 19.4876 9.06978 19.4876 9.05297 19.4876H7.58799C7.26306 19.4876 6.99415 19.2131 6.99415 18.8826C6.99415 18.5521 7.26306 18.2776 7.58799 18.2776H8.16782C8.16845 18.2733 8.16909 18.269 8.16973 18.2647C8.17757 18.2118 8.18632 18.1529 8.20704 18.1011L8.49275 17.2215H7.58799C7.26306 17.2215 6.99415 16.947 6.99415 16.6165C6.99415 16.2776 7.26306 16.0115 7.58799 16.0115H8.88771L8.95774 15.8014C9.02216 15.6249 9.1258 15.4624 9.26026 15.342L9.68883 14.9554H7.58799C7.26306 14.9554 6.99415 14.6809 6.99415 14.3504C6.99415 14.0115 7.26306 13.7453 7.58799 13.7453H11.0362C11.2445 13.5603 11.4461 13.3787 11.6403 13.2037C11.8431 13.021 12.0378 12.8455 12.2238 12.6809H7.58799C7.26306 12.6809 6.99415 12.4148 6.99415 12.0759C6.99415 11.7453 7.26306 11.4708 7.58799 11.4708H13.5544C13.6496 11.3728 13.7112 11.3168 13.7364 11.2944Z" fill="#313235"/>
</svg>
