<svg width="24" height="24" viewBox="0 0 24 24" fill="none" xmlns="http://www.w3.org/2000/svg">
<path fill-rule="evenodd" clip-rule="evenodd" d="M3.67505 3.36278C3.67505 2.53365 4.15124 2.1499 4.88233 2.1499C5.61342 2.1499 6.08961 2.53365 6.08961 3.36278C6.08961 3.76054 5.98037 4.05746 5.78429 4.25634C5.5742 4.47203 5.26328 4.57567 4.88233 4.57567C4.50138 4.57567 4.19045 4.47203 3.98037 4.25634C3.78429 4.05466 3.67505 3.76054 3.67505 3.36278ZM7.22686 3.36278C7.22686 2.53365 7.70305 2.1499 8.43414 2.1499C9.16803 2.1499 9.64142 2.53365 9.64142 3.36278C9.64142 3.76054 9.53218 4.05746 9.3361 4.25634C9.12602 4.47203 8.81509 4.57567 8.43414 4.57567C8.05319 4.57567 7.74227 4.47203 7.53218 4.25634C7.33611 4.05466 7.22686 3.76054 7.22686 3.36278ZM11.9832 2.1499C11.2521 2.1499 10.7759 2.53365 10.7759 3.36278C10.7759 3.76054 10.8851 4.05466 11.0812 4.25634C11.2913 4.47203 11.6022 4.57567 11.9832 4.57567C12.3641 4.57567 12.675 4.47203 12.8851 4.25634C13.0812 4.05746 13.1904 3.76054 13.1904 3.36278C13.1904 2.53365 12.7142 2.1499 11.9832 2.1499ZM3.67505 6.64009C3.67505 5.81376 4.15124 5.42721 4.88233 5.42721C5.61342 5.42721 6.08961 5.81096 6.08961 6.64009C6.08961 7.03785 5.98037 7.33477 5.78429 7.53364C5.5742 7.74933 5.26328 7.85297 4.88233 7.85297C4.50138 7.85297 4.19045 7.74933 3.98037 7.53364C3.78429 7.33477 3.67505 7.03785 3.67505 6.64009ZM8.43414 5.42721C7.70305 5.42721 7.22686 5.81376 7.22686 6.64009C7.22686 7.03785 7.33611 7.33477 7.53218 7.53364C7.74227 7.74933 8.05319 7.85297 8.43414 7.85297C8.81509 7.85297 9.12602 7.74933 9.3361 7.53364C9.53218 7.33477 9.64142 7.03785 9.64142 6.64009C9.64142 5.81096 9.16803 5.42721 8.43414 5.42721ZM3.67505 9.91739C3.67505 9.09106 4.15124 8.70451 4.88233 8.70451C5.61342 8.70451 6.08961 9.08826 6.08961 9.91739C6.08961 10.3152 5.98037 10.6121 5.78429 10.8109C5.5742 11.0294 5.26328 11.1331 4.88233 11.1331C4.50138 11.1331 4.19045 11.0266 3.98037 10.8109C3.78429 10.6121 3.67505 10.3152 3.67505 9.91739ZM8.43414 8.70451C7.70305 8.70451 7.22686 9.09106 7.22686 9.91739C7.22686 10.3152 7.33611 10.6121 7.53218 10.8109C7.74227 11.0266 8.05319 11.1331 8.43414 11.1331C8.81509 11.1331 9.12602 11.0294 9.3361 10.8109C9.53218 10.6121 9.64142 10.3152 9.64142 9.91739C9.64142 9.08826 9.16803 8.70451 8.43414 8.70451ZM11.4369 21.5616H17.8851C18.6974 21.5616 19.3977 21.3067 19.8431 20.8501C20.2885 20.3936 20.5125 19.7605 20.5125 18.9622V13.2255C20.5125 12.1807 19.8683 11.5336 18.8263 11.5336C18.6078 11.5308 18.3921 11.5644 18.1848 11.6289C17.9859 10.9258 17.4061 10.5084 16.5714 10.5084C16.3529 10.5084 16.1344 10.5392 15.9271 10.6065C15.7254 9.90899 15.1456 9.49723 14.3165 9.49723C14.126 9.49442 13.9355 9.51963 13.7507 9.57005V7.18911C13.7507 6.09667 13.0728 5.416 11.9832 5.416C10.9355 5.416 10.2913 6.04905 10.2213 7.15269V7.18911V13.2451C9.94114 12.7717 9.68904 12.4412 9.38652 12.2003C8.80389 11.7381 8.00557 11.7269 7.44815 12.1723C6.91034 12.6009 6.77868 13.3292 7.10922 14.0294C7.6461 15.162 8.53449 16.9517 9.27646 18.4464L9.38372 18.6625C9.46717 18.8309 9.54871 18.9952 9.62704 19.1532C9.99306 19.8911 10.2891 20.4879 10.3837 20.6933C10.5042 20.951 10.7899 21.5616 11.4369 21.5616Z" fill="#313235"/>
</svg>
