<svg width="24" height="24" viewBox="0 0 24 24" fill="none" xmlns="http://www.w3.org/2000/svg">
<path fill-rule="evenodd" clip-rule="evenodd" d="M18.5506 4.8999C19.6514 4.8999 20.4917 5.22763 21.0548 5.87189C21.5758 6.47133 21.8419 7.33967 21.8419 8.45452V13.3957C21.8419 14.5105 21.5786 15.3789 21.0548 15.9783C20.4917 16.6198 19.6486 16.9475 18.5506 16.9475H5.44134C4.3405 16.9475 3.50016 16.6198 2.93714 15.9755C2.41613 15.3761 2.15002 14.5077 2.15002 13.3929V8.45452C2.15002 7.33967 2.41613 6.47133 2.93714 5.87189C3.50016 5.22763 4.3433 4.8999 5.44134 4.8999H18.5506ZM2.74386 19.1324H21.248C21.5562 19.1324 21.8083 18.8803 21.8083 18.5722C21.8083 18.264 21.5562 18.0119 21.248 18.0119H2.74386C2.43574 18.0119 2.18364 18.264 2.18364 18.5722C2.18364 18.8803 2.43574 19.1324 2.74386 19.1324ZM10.3461 12.0512C10.3181 12.18 10.2929 12.3705 10.2705 12.5554L10.2565 12.6586C10.2337 12.8291 10.2111 12.9972 10.1808 13.1324C10.0912 13.5441 9.81108 13.7794 9.42732 13.7794C9.3573 13.7794 9.29007 13.771 9.22004 13.757C9.09786 13.7335 8.88502 13.6746 8.5501 13.5818L8.34329 13.5245L8.108 13.4601C7.88391 13.3985 7.75226 13.166 7.81388 12.9419C7.87551 12.7178 8.108 12.5862 8.33209 12.6478L8.56738 12.7122L8.601 12.7206C8.3489 12.1996 8.22004 11.5666 8.22004 10.8327C8.22004 8.49093 9.53937 7.20242 11.9343 7.20242C12.3545 7.19962 12.7719 7.24444 13.1808 7.33967C13.4049 7.4013 13.5366 7.63099 13.4777 7.85508C13.4189 8.07077 13.2032 8.20242 12.9847 8.1576C12.6402 8.07917 12.2873 8.04275 11.9343 8.04556C10.0016 8.04556 9.06038 8.95872 9.06038 10.8355C9.06038 11.5077 9.18363 12.0596 9.42732 12.4881L9.43293 12.4405C9.45814 12.2388 9.48615 12.0315 9.52256 11.8663C9.57018 11.6394 9.79147 11.4937 10.0184 11.5385C10.2453 11.5862 10.3909 11.8075 10.3461 12.0343C10.3479 12.0414 10.3485 12.044 10.348 12.0464C10.3478 12.0478 10.3471 12.0491 10.3461 12.0512ZM15.643 9.1604C15.8671 9.22202 16.0996 9.09037 16.1612 8.86628C16.2228 8.64499 16.0912 8.4153 15.8671 8.35648L15.6318 8.29205C15.5473 8.26887 15.469 8.24729 15.3967 8.22734C15.0758 8.13885 14.8711 8.08242 14.7522 8.05956C14.2677 7.96152 13.8979 8.20242 13.7943 8.68701C13.764 8.82218 13.7414 8.9903 13.7186 9.16073C13.714 9.19516 13.7093 9.22968 13.7046 9.26404C13.6822 9.44892 13.657 9.63939 13.629 9.76824C13.6262 9.76824 13.6262 9.77104 13.6262 9.77384C13.5814 10.0007 13.727 10.222 13.9539 10.2696C14.1808 10.3145 14.4021 10.1688 14.4497 9.94191C14.4861 9.77665 14.5142 9.56936 14.5394 9.36768L14.545 9.32006C14.7887 9.74863 14.9119 10.3005 14.9119 10.9727C14.9119 12.8495 13.9707 13.7626 12.038 13.7626C11.6906 13.7654 11.3405 13.729 10.9988 13.6506C10.7719 13.5974 10.545 13.7346 10.4917 13.9615C10.4385 14.1884 10.5758 14.4153 10.8027 14.4685C11.206 14.561 11.6234 14.6058 12.038 14.603C14.4329 14.603 15.7522 13.3145 15.7522 10.9727C15.7522 10.2388 15.6234 9.60578 15.3713 9.08477L15.4077 9.09597L15.643 9.1604Z" fill="#313235"/>
</svg>
