<svg width="24" height="24" viewBox="0 0 24 24" fill="none" xmlns="http://www.w3.org/2000/svg">
<path fill-rule="evenodd" clip-rule="evenodd" d="M19.5322 8.58681H20.3389C21.0812 8.58681 21.6863 9.19185 21.6891 9.93975C21.6891 9.97897 21.6863 10.0182 21.6779 10.0546L20.2297 18.0014C20.1961 18.7157 19.605 19.2899 18.8852 19.2899H4.11485C3.37255 19.2899 2.76751 18.6792 2.76751 17.9341C2.76751 17.9254 2.76827 17.9173 2.769 17.9097C2.76967 17.9027 2.77031 17.896 2.77031 17.8893L2 5.93975V5.91454C2.0056 5.14143 2.63866 4.51958 3.41457 4.52518H9.54342C10.3249 4.52518 10.9608 5.14143 10.9608 5.90053V6.30109H18.0616C18.8431 6.30109 19.479 6.91734 19.479 7.67644L19.5434 8.48877C19.5452 8.50959 19.5415 8.52934 19.5378 8.54935C19.5356 8.56164 19.5333 8.57402 19.5322 8.58681ZM9.54342 5.77448H3.41457C3.30812 5.77448 3.2381 5.84171 3.2381 5.89773L3.68908 12.8921L4.2465 9.87252C4.28011 9.15544 4.87115 8.58401 5.59104 8.58401H18.3081V8.58121L18.2437 7.72126C18.2437 7.61482 18.1709 7.55039 18.0644 7.55039H10.3417C10 7.55039 9.72269 7.27028 9.72269 6.92574V5.89773C9.72269 5.83891 9.64986 5.77448 9.54342 5.77448Z" fill="#313235"/>
</svg>
