<svg width="24" height="24" viewBox="0 0 24 24" fill="none" xmlns="http://www.w3.org/2000/svg">
<path fill-rule="evenodd" clip-rule="evenodd" d="M12.0964 17.5197L19.777 16.1892C20.1076 16.122 20.4185 16.3573 20.4689 16.7046C20.5249 17.0491 20.3092 17.3741 19.9787 17.4245L12.242 18.7718C12.2028 20.3629 11.2392 21.4749 9.57537 21.769C9.33167 21.811 9.09918 21.8362 8.87509 21.8362C8.20842 21.8362 7.61459 21.6514 7.13279 21.2928C6.48854 20.8166 6.07117 20.0379 5.91151 19.0407C5.62019 17.2396 6.3905 15.8839 7.93391 15.3741L6.21683 4.64021L3.74065 4.15281C3.41852 4.09399 3.20283 3.76906 3.25885 3.42452C3.32328 3.08279 3.64541 2.8559 3.96754 2.92312L6.85268 3.48335C7.10198 3.53097 7.29526 3.74105 7.33448 4.00155L9.12719 15.1612C9.39049 15.1528 9.6482 15.1696 9.88069 15.22L9.09357 10.2957C9.05996 10.0856 9.07677 9.8923 9.13279 9.71022C9.03755 9.57017 8.95632 9.41611 8.92551 9.23404L8.1468 4.3685C8.05156 3.77466 8.4129 3.22284 8.94231 3.122L14.4857 2.16122C14.7574 2.1192 15.0375 2.19483 15.256 2.37691C15.4577 2.54497 15.5866 2.78587 15.6342 3.06318L16.3905 7.76905L17.4353 7.58418C17.7154 7.53376 18.0039 7.60379 18.2448 7.78586C18.5025 7.97914 18.679 8.27886 18.735 8.61499L19.6426 14.2732C19.6902 14.6178 19.6174 14.9595 19.4325 15.2284C19.2616 15.4805 19.0123 15.6458 18.7322 15.6962L11.8723 16.8839C11.9591 17.0856 12.0319 17.2928 12.0964 17.5197ZM9.35688 4.32648L10.7939 4.07718L11.0095 5.45813C11.0347 5.56738 11.0908 5.66822 11.1776 5.73544C11.242 5.78586 11.3233 5.81107 11.4101 5.81107C11.4353 5.81107 11.4493 5.81107 11.4745 5.80267L12.9199 5.55057C13.1384 5.51696 13.2812 5.30127 13.2504 5.07438L13.0263 3.69343L14.4633 3.44133L15.1944 7.97073L10.0768 8.85869L9.35688 4.32648ZM15.4297 11.727C15.6454 11.685 15.7994 11.4749 15.7602 11.2508L15.4297 9.20042L17.5417 8.83908L18.4409 14.4665L11.186 15.7298L10.2868 10.1024L12.707 9.67661L13.0347 11.7186C13.0515 11.8279 13.1076 11.9287 13.1944 11.9959C13.2588 12.0464 13.3485 12.0716 13.4269 12.0716C13.4521 12.0716 13.4689 12.0716 13.4913 12.0632L15.4297 11.727Z" fill="#313235"/>
</svg>
