<svg width="24" height="24" viewBox="0 0 24 24" fill="none" xmlns="http://www.w3.org/2000/svg">
<path fill-rule="evenodd" clip-rule="evenodd" d="M16.0462 2.52686C17.0826 2.79016 17.937 3.23834 18.5868 3.86019C19.6989 4.91061 20.2619 6.53526 20.2647 8.68092C20.2647 10.7986 19.7521 12.4568 18.7409 13.6081C18.1387 14.3084 17.3515 14.8294 16.4104 15.1571C15.5224 15.468 14.4356 15.6249 13.1807 15.6249H11.1527V21.0171C11.1527 21.4736 10.7885 21.8462 10.3403 21.8462H6.31232C5.86415 21.8462 5.5 21.4736 5.5 21.0171V2.98904C5.5 2.52966 5.86415 2.15991 6.31232 2.15991H12.3796C13.8501 2.15991 15.0826 2.28316 16.0462 2.52686ZM14.0854 11.1851C14.3319 11.1123 14.5448 10.9834 14.7409 10.7846C15.1078 10.412 15.2983 9.69212 15.2983 8.70613C15.2983 8.08148 15.2115 7.25235 14.7857 6.83498C14.6317 6.69212 14.388 6.57168 14.077 6.49605C13.6737 6.39801 13.1275 6.34759 12.4552 6.34759H11.1499V11.3224H12.5812C13.4272 11.3224 13.8669 11.2495 14.0854 11.1851Z" fill="#313235"/>
</svg>
