<svg width="24" height="24" viewBox="0 0 24 24" fill="none" xmlns="http://www.w3.org/2000/svg">
<path fill-rule="evenodd" clip-rule="evenodd" d="M19.2076 4.58288C17.5382 2.97504 15.1096 2.15991 11.9863 2.15991C8.86308 2.15991 6.43451 2.97504 4.76784 4.58568C3.03675 6.25515 2.16 8.74815 2.16 11.9946C2.16 15.2411 3.03675 17.7313 4.76784 19.4008C6.43451 21.0087 8.86308 21.8238 11.9863 21.8238C15.1096 21.8238 17.5382 21.0087 19.2076 19.4008C20.9387 17.7313 21.8183 15.2411 21.8183 11.9946C21.8183 8.74815 20.9387 6.25235 19.2076 4.58288ZM9.78185 15.8042C9.78185 16.1123 9.54375 16.3644 9.24964 16.3644C8.95552 16.3644 8.71742 16.1123 8.71742 15.8042V8.15711C8.71742 7.84899 8.95552 7.59689 9.24964 7.59689C9.54375 7.59689 9.78185 7.84899 9.78185 8.15711V15.8042ZM14.7426 16.3728C15.0339 16.3728 15.272 16.1207 15.272 15.8126V8.16551C15.272 7.85739 15.0339 7.60529 14.7426 7.60529C14.4513 7.60529 14.2132 7.85739 14.2132 8.16551V15.8126C14.2132 16.1207 14.4513 16.3728 14.7426 16.3728Z" fill="#313235"/>
</svg>
