<svg width="24" height="24" viewBox="0 0 24 24" fill="none" xmlns="http://www.w3.org/2000/svg">
<path fill-rule="evenodd" clip-rule="evenodd" d="M20.3522 3.24369C20.4334 3.32212 20.5259 3.41456 20.6015 3.49299C21.9404 4.88514 22.6127 7.11763 20.4811 9.22127L9.24018 20.3977C9.23738 20.4005 9.23388 20.4026 9.23038 20.4047C9.22688 20.4068 9.22337 20.4089 9.22057 20.4117C9.21743 20.4133 9.21605 20.4158 9.21445 20.4186C9.21321 20.4208 9.21183 20.4233 9.20937 20.4257C9.18883 20.4463 9.1658 20.4593 9.14277 20.4724C9.13125 20.4789 9.11973 20.4855 9.10853 20.493C9.10602 20.4946 9.10376 20.4963 9.1016 20.4979C9.09653 20.5017 9.09202 20.505 9.08612 20.507C8.99088 20.563 8.88724 20.6022 8.778 20.6022C8.7724 20.6022 8.76679 20.6008 8.76119 20.5994C8.75559 20.598 8.74999 20.5966 8.74438 20.5966L2.87885 21.6722C2.83963 21.6806 2.80322 21.6834 2.76681 21.6834C2.60994 21.6834 2.45868 21.6246 2.34384 21.5154C2.20378 21.3781 2.13656 21.1848 2.16737 20.9916L3.10854 14.8963C3.11197 14.8774 3.11856 14.8607 3.12508 14.8441C3.1292 14.8336 3.1333 14.8231 3.13655 14.8123C3.14075 14.8011 3.14426 14.7899 3.14776 14.7787C3.15126 14.7675 3.15476 14.7563 3.15896 14.7451C3.18977 14.6778 3.22899 14.6162 3.28221 14.563L14.5931 3.37254C16.7472 1.24089 18.9825 1.90756 20.3522 3.24369ZM13.9096 5.75069L15.5959 7.42015L6.2598 16.6582L4.57352 14.9916L13.9096 5.75069ZM7.11694 17.507L8.7808 19.1512L18.0945 9.89074L16.4559 8.26889L7.11694 17.507ZM3.7472 18.7283L5.11974 20.07L7.5175 19.6022L4.13375 16.2549L3.7472 18.7283Z" fill="#313235"/>
</svg>
