<svg width="24" height="24" viewBox="0 0 24 24" fill="none" xmlns="http://www.w3.org/2000/svg">
<path fill-rule="evenodd" clip-rule="evenodd" d="M9.27836 4.6417C9.27836 6.19072 10.2139 7.1179 11.777 7.1179C13.3456 7.11509 14.2784 6.19072 14.2784 4.6389C14.2784 3.84619 14.0459 3.22434 13.5921 2.79016C13.1551 2.3728 12.5445 2.15991 11.777 2.15991C11.0123 2.15991 10.4016 2.3728 9.96183 2.79297C9.50805 3.22714 9.27836 3.84899 9.27836 4.6417ZM16.2251 15.905C17.0347 15.6893 17.5193 14.8574 17.3036 14.0479C17.3036 14.0479 16.1635 9.8826 16.1635 9.877C16.1523 9.81537 16.1327 9.75375 16.1047 9.68932C15.819 8.39801 14.6481 7.46523 13.3064 7.46523H10.7433C9.40161 7.46523 8.22794 8.40081 7.94222 9.69493C7.92262 9.74255 7.90581 9.79016 7.89461 9.84058L6.74054 14.0507C6.52766 14.8574 7.00665 15.6865 7.81337 15.9022C8.20273 16.0143 8.61729 15.961 8.97584 15.7622L9.01505 15.7369V20.3308C9.01505 21.1823 9.6369 21.8238 10.4604 21.8238C11.2784 21.8238 11.875 21.1963 11.875 20.3308V15.877H12.1551V20.3308C12.1551 21.1935 12.7714 21.8462 13.5893 21.8462C14.41 21.8462 15.0291 21.1935 15.0291 20.3308V15.7369C15.3876 15.9582 15.8218 16.0171 16.2251 15.905Z" fill="#313235"/>
</svg>
