<svg width="24" height="24" viewBox="0 0 24 24" fill="none" xmlns="http://www.w3.org/2000/svg">
<path fill-rule="evenodd" clip-rule="evenodd" d="M15.8048 2.16077C17.1829 2.13276 18.5891 2.78822 19.9056 4.10475C22.4603 6.65657 22.4995 9.4717 20.0149 12.0319L12.0849 19.9647L12.0817 19.9681C12.0185 20.034 11.9605 20.0945 11.8944 20.1496C10.6871 21.2784 9.41823 21.8442 8.14372 21.8442C6.77958 21.8442 5.40983 21.1944 4.11011 19.8947C2.79078 18.5781 2.13812 17.2 2.16053 15.7994C2.18574 14.4521 2.8384 13.1272 4.10451 11.8611L4.25017 11.7098C4.37062 11.5837 4.48826 11.4633 4.61151 11.3569L11.3874 4.57814C11.4654 4.4835 11.5848 4.36949 11.7072 4.25261L11.7096 4.25041L11.8636 4.10475C13.1297 2.84145 14.4546 2.18598 15.8048 2.16077ZM15.9308 14.3849L19.1437 11.172C21.1605 9.09074 21.1297 7.05993 19.0401 4.9731C17.9869 3.91988 16.9252 3.38486 15.886 3.38486H15.83C14.8076 3.40167 13.7656 3.93668 12.732 4.9703L12.5583 5.13836C12.4659 5.2252 12.3734 5.31483 12.2894 5.41007L9.78238 7.91708C9.77995 7.92803 9.7791 7.93951 9.77823 7.9513C9.7771 7.96663 9.77593 7.98247 9.77118 7.99831C9.3258 9.36525 9.91963 10.8386 11.5863 12.5053C12.7096 13.6286 14.3538 14.8695 15.8356 14.3961C15.8557 14.3894 15.8748 14.3887 15.8936 14.388C15.9061 14.3876 15.9185 14.3871 15.9308 14.3849Z" fill="#313235"/>
</svg>
