<svg width="24" height="24" viewBox="0 0 24 24" fill="none" xmlns="http://www.w3.org/2000/svg">
<path fill-rule="evenodd" clip-rule="evenodd" d="M10.314 7.97504C9.82656 8.22714 9.25793 8.35599 8.59126 8.35599C6.6781 8.35599 5.56325 7.36159 5.45681 5.54647L5.44841 5.52966L5.44 5.40921V3.44002C5.44 2.73414 6.02544 2.15991 6.74252 2.15991H8.59687C10.6249 2.15991 11.7453 3.26075 11.7453 5.26075C11.7453 6.08708 11.538 6.76776 11.1263 7.29437L10.9862 7.45403C9.88258 5.05627 8.41479 4.6277 8.31675 4.60249C8.09827 4.54367 7.87138 4.67252 7.81255 4.89381C7.74813 5.10389 7.87698 5.33078 8.10107 5.39521C8.12067 5.40081 9.35597 5.79577 10.314 7.97504ZM13.6669 9.53246C13.3055 10.2383 13.0254 10.9918 12.8182 11.7117H16.5352C17.3448 11.7117 18.003 12.3616 18.003 13.1543V14.6361C18.003 15.3168 17.5156 15.8826 16.8742 16.0395H7.14028C6.49883 15.8938 6.00303 15.3168 6.00303 14.6361V13.1543C6.00303 12.3616 6.66409 11.7117 7.47081 11.7117H11.2299C11.0478 10.0927 10.7005 8.877 10.314 7.97784C10.5128 7.8742 10.7005 7.74255 10.8742 7.58848L10.9918 7.45683C11.4372 8.42042 11.8238 9.69493 12.0394 11.3952C12.2775 10.6193 12.5829 9.79297 12.9946 9.02266L13.003 9.03106L13.0282 9.05627C13.2047 9.25515 13.4288 9.40081 13.6669 9.53246ZM13.6669 9.53246C14.2691 8.36439 15.1095 7.37 16.2635 7.03946C16.482 6.98064 16.6137 6.75375 16.5548 6.53526C16.5548 6.53246 16.5548 6.52966 16.552 6.52966C16.4848 6.31117 16.2523 6.18792 16.0338 6.25515C14.6641 6.64451 13.6837 7.74535 12.9918 9.02546L12.7789 8.75095C12.44 8.22434 12.2775 7.59128 12.2775 6.84899C12.2747 4.8826 13.4204 3.75655 15.4232 3.75655H17.2691C17.9862 3.75655 18.5633 4.33078 18.5633 5.02826L18.5464 7.1347C18.4316 8.94983 17.3252 9.93862 15.4204 9.93862C14.7229 9.93582 14.1459 9.79857 13.6669 9.53246ZM16.6585 17.0395H7.35317L7.72572 20.5689C7.72572 21.2748 8.31115 21.849 9.02824 21.849H14.9694C15.6949 21.849 16.2803 21.272 16.2803 20.6333L16.6585 17.0395Z" fill="#313235"/>
</svg>
