<svg width="24" height="24" viewBox="0 0 24 24" fill="none" xmlns="http://www.w3.org/2000/svg">
<path fill-rule="evenodd" clip-rule="evenodd" d="M16.8585 7.49852H17.4888C18.035 7.49852 18.4776 7.92709 18.4776 8.4537V8.52373C18.4776 11.2492 17.2507 12.6834 16.1414 13.4201V14.6722C16.1414 15.3052 15.9454 15.7982 15.556 16.1372C15.2227 16.4341 14.7633 16.5881 14.1975 16.6162V20.7674C14.1975 21.2912 13.7577 21.7142 13.2171 21.7142H11.43C10.8893 21.7142 10.4496 21.2912 10.4496 20.7674V16.6162C9.88934 16.5853 9.43276 16.4313 9.10503 16.1372C8.71568 15.8066 8.50559 15.2996 8.50559 14.675V13.4285C7.39635 12.6918 6.16946 11.2548 6.16946 8.49292C6.16946 7.92149 6.61484 7.49292 7.16106 7.49292H7.63725V3.62738C7.63725 2.74223 8.38234 2.02515 9.29551 2.02515C10.2087 2.02515 10.9538 2.74503 10.9538 3.62738V7.49292L13.542 7.49572V3.62738C13.542 2.74223 14.2871 2.02515 15.2003 2.02515C16.1162 2.02515 16.8585 2.74503 16.8585 3.62738V7.49852ZM9.29831 3.25203C9.08542 3.25203 8.90615 3.4229 8.90615 3.63019V7.49572H9.69046V3.63019C9.69046 3.4229 9.51399 3.25203 9.29831 3.25203ZM12.937 20.4929H11.7185V16.8318H12.937V20.4929ZM14.8081 3.63019C14.8081 3.4229 14.9874 3.25203 15.2003 3.25203C15.4159 3.25203 15.5924 3.4229 15.5924 3.63019V7.49852H14.8081V3.63019Z" fill="#313235"/>
</svg>
