<svg width="24" height="24" viewBox="0 0 24 24" fill="none" xmlns="http://www.w3.org/2000/svg">
<path fill-rule="evenodd" clip-rule="evenodd" d="M8.82386 6.05627L9.50733 6.75094L9.35047 7.74814C9.28885 8.10948 9.38688 8.46523 9.59977 8.74254C9.6726 8.84057 9.76223 8.92741 9.86588 9.00024C10.0816 9.1515 10.3309 9.22713 10.5802 9.22713C10.7818 9.22713 10.9863 9.17951 11.1712 9.07587L11.7762 8.74254L11.9863 8.62769L12.1964 8.74254L12.8042 9.07587C13.2132 9.29996 13.7286 9.27195 14.1096 9.00024C14.2132 8.92461 14.3 8.84057 14.3757 8.74254C14.5914 8.46803 14.6866 8.11228 14.6278 7.74814L14.4653 6.75654L15.1488 6.05907C15.4877 5.71453 15.6026 5.21593 15.4513 4.75094C15.3 4.29997 14.9163 3.97223 14.4513 3.90221L13.5297 3.76495L13.1096 2.8798C12.8995 2.43442 12.4681 2.15991 11.9863 2.15991C11.5017 2.15991 11.0704 2.43722 10.8603 2.8798L10.4429 3.76215L9.52134 3.90221C9.05915 3.97223 8.6754 4.29716 8.52694 4.74814C8.37008 5.21033 8.48492 5.70893 8.82386 6.05627ZM10.8995 4.93302L9.70341 5.11509L10.5914 6.10108C10.7286 6.24114 10.7986 6.46523 10.765 6.65851L10.5549 7.94142L11.6838 7.38399C11.7762 7.33357 11.8799 7.30836 11.9835 7.30836C12.0956 7.30836 12.2104 7.33918 12.3056 7.398L13.3897 7.99184L13.3925 7.99464C13.3925 7.99464 13.3953 7.99464 13.3981 7.99184L13.202 6.65851C13.1684 6.45682 13.2468 6.22713 13.3953 6.08428L14.272 5.19352L13.0283 4.92742C12.8295 4.8994 12.6474 4.76215 12.5577 4.58288L12.0003 3.40361L11.4149 4.57167C11.3225 4.77055 11.118 4.91621 10.8995 4.93302ZM15.695 11.8154C15.695 11.2663 15.1936 10.7874 14.6222 10.7874V10.793H9.38688C8.81546 10.793 8.31406 11.2719 8.31406 11.8182V21.8462H15.695V11.8154ZM2.16 14.7201C2.16 14.1655 2.71743 13.821 3.23283 13.821H7.08437V21.8406H3.23283C2.6418 21.8406 2.16 21.4176 2.16 20.9218V14.7201ZM20.7734 16.1991C21.3953 16.1991 21.8463 16.5352 21.8463 16.9974V21.0198C21.8463 21.4904 21.4037 21.8406 20.7706 21.8406H16.9191V16.1991H20.7734Z" fill="#313235"/>
</svg>
