<svg width="24" height="24" viewBox="0 0 24 24" fill="none" xmlns="http://www.w3.org/2000/svg">
<path fill-rule="evenodd" clip-rule="evenodd" d="M21.8462 12.0058C21.8462 5.56327 18.4401 2.15991 12.0003 2.15991C5.56335 2.15991 2.16 5.56327 2.16 12.0058C2.16 18.4428 5.56055 21.8461 12.0003 21.8461C18.4429 21.8461 21.8462 18.4428 21.8462 12.0058ZM10.132 16.5464H14.8434C15.0647 16.5464 15.2468 16.7257 15.2496 16.9526V17.384C15.2496 17.6081 15.0675 17.7873 14.8462 17.7873H8.67819C8.52693 17.7873 8.38688 17.7033 8.31965 17.5688C8.25803 17.4484 8.22721 17.3055 8.22721 17.1459C8.22721 16.7005 8.45971 16.4736 8.92469 16.0282C9.79304 15.1879 9.9639 14.5913 9.9639 13.8462C9.9639 13.3644 9.88827 12.8826 9.72021 12.3196H8.72301C8.49892 12.3196 8.31965 12.1403 8.31965 11.9162V11.6445C8.31965 11.4316 8.48492 11.2551 8.695 11.2411L9.35606 11.1963C9.1964 10.6529 9.05354 9.97502 9.05354 9.26634C9.05354 7.10388 10.3421 5.86579 12.5942 5.86579C13.1656 5.86579 14.0899 5.94702 14.8182 6.17111C14.9863 6.22433 15.1011 6.38119 15.1011 6.55766V6.92181C15.1011 7.04225 15.0479 7.1571 14.9555 7.23273C14.8631 7.31116 14.7398 7.34197 14.625 7.31956C13.9415 7.19071 13.2776 7.11788 12.7538 7.11788C11.1152 7.11788 10.3505 7.79575 10.3505 9.25233C10.3505 9.89379 10.5045 10.5408 10.6754 11.1123H13.1572C13.3813 11.1123 13.5605 11.2943 13.5605 11.5156V11.9134C13.5605 12.1375 13.3813 12.3168 13.1572 12.3168H11.0479C11.1796 12.8406 11.2468 13.3588 11.2468 13.8574C11.2468 14.919 10.9499 15.6753 10.132 16.5464Z" fill="#313235"/>
</svg>
