<svg width="24" height="24" viewBox="0 0 24 24" fill="none" xmlns="http://www.w3.org/2000/svg">
<path d="M21.308 3.71425C21.0952 3.69744 16.1176 3.3361 11.8403 5.52656C7.5658 3.3389 2.59103 3.69464 2.37815 3.71425C2.16527 3.73105 2 3.90752 2 4.12041V17.5797C2 17.8066 2.18487 17.9887 2.40896 17.9887C7.64983 17.9887 11.6134 20.0195 11.6526 20.0391C11.7114 20.0699 11.7759 20.0867 11.8431 20.0867C11.8683 20.0867 11.8935 20.0699 11.9215 20.0643C11.9607 20.0559 12 20.0559 12.0336 20.0363L12.0504 20.0279H12.056L12.0588 20.0251C12.3109 19.899 16.1848 17.9887 21.2772 17.9887C21.5041 17.9887 21.6862 17.8066 21.6862 17.5797V4.12041C21.6862 3.90752 21.5209 3.73105 21.308 3.71425Z" fill="#313235"/>
</svg>
