<svg width="24" height="24" viewBox="0 0 24 24" fill="none" xmlns="http://www.w3.org/2000/svg">
<path fill-rule="evenodd" clip-rule="evenodd" d="M19.234 4.57847C17.5617 2.96783 15.1276 2.1499 11.9959 2.1499C8.86427 2.1499 6.4329 2.96783 4.76344 4.57847C3.02954 6.25354 2.14999 8.74933 2.14999 12.0042C2.14999 15.2591 3.02954 17.7549 4.76344 19.4272C6.4357 21.0378 8.86987 21.8558 11.9987 21.8558C15.1276 21.8558 17.5645 21.0378 19.2368 19.4272C20.9735 17.7549 21.853 15.2563 21.853 12.0042C21.853 8.75213 20.9707 6.25354 19.234 4.57847ZM11.4889 4.88659C11.4889 4.57847 11.741 4.32637 12.0491 4.32637C12.3573 4.32637 12.6094 4.57847 12.6094 4.88659V8.98463C12.6094 9.29275 12.3573 9.54485 12.0491 9.54485C11.741 9.54485 11.4889 9.29275 11.4889 8.98463V4.88659ZM12.0743 18.0967C13.9959 18.0967 15.4945 17.5925 16.5309 16.5925C17.6094 15.5532 18.1556 14.0154 18.1528 12.0154C18.1528 10.3348 17.7634 8.97342 16.9931 7.96502C16.234 6.97342 15.1248 6.33757 13.6906 6.07427C13.3853 6.01824 13.094 6.21992 13.0379 6.52525C12.9819 6.83057 13.1836 7.12188 13.4889 7.17791C15.8727 7.61488 17.0323 9.19751 17.0323 12.0182C17.0323 13.6961 16.601 14.965 15.7522 15.7829C14.9315 16.5729 13.6934 16.9734 12.0743 16.9734C10.4553 16.9734 9.21721 16.5729 8.39648 15.7829C7.54775 14.965 7.11637 13.6989 7.11637 12.0182C7.11637 9.23673 8.24242 7.6597 10.5617 7.19751C10.8643 7.13869 11.0631 6.84177 11.0015 6.53925C10.9427 6.23673 10.6458 6.03785 10.3433 6.09948C8.9455 6.37679 7.86427 7.02104 7.12478 8.00984C6.37688 9.01264 5.99873 10.36 5.99873 12.0182C5.99873 14.0126 6.54495 15.5532 7.62057 16.5897C8.65699 17.5897 10.1528 18.0967 12.0743 18.0967Z" fill="#313235"/>
</svg>
