<svg width="24" height="24" viewBox="0 0 24 24" fill="none" xmlns="http://www.w3.org/2000/svg">
<path fill-rule="evenodd" clip-rule="evenodd" d="M20.0476 14.381C19.9636 14.1653 19.7563 14.0252 19.5266 14.0252H16.8095V3.38655C16.8095 2.53221 16.2773 2 15.423 2H9.41456C8.56862 2 8.04201 2.53221 8.04201 3.38655V3.64426C6.75069 3.73389 5.72548 4.13725 4.98598 4.85154C4.10923 5.69468 3.66666 6.94398 3.66666 8.56302C3.66666 10.1821 4.10923 11.4286 4.98598 12.2745C5.72548 12.986 6.75069 13.3922 8.04201 13.4818V14.0252H5.32492C5.0168 14.0252 4.7647 14.2745 4.7647 14.5854C4.7647 14.7423 4.82912 14.8936 4.94677 15L12.0476 21.5574C12.2633 21.7563 12.5938 21.7563 12.8067 21.5574L19.9048 14.9972C20.0756 14.8403 20.1316 14.5966 20.0476 14.381ZM4.7871 8.56303C4.7871 5.9944 6.0336 4.7451 8.60223 4.7451C11.1709 4.7451 12.4174 5.9944 12.4174 8.56303C12.4174 11.1317 11.1681 12.3782 8.60223 12.3782C6.0364 12.3782 4.7871 11.1317 4.7871 8.56303ZM8.60223 11.8571C8.40895 11.8571 8.25209 11.7003 8.25209 11.507V11.2306C7.76395 11.1838 7.29521 11.0142 6.88795 10.7339C6.75629 10.6415 6.69187 10.521 6.69187 10.3697C6.69467 10.1401 6.87954 9.95798 7.10923 9.96078C7.20447 9.96358 7.29691 9.9916 7.37534 10.0448C7.66719 10.2387 7.9606 10.3612 8.25209 10.4112V8.87295C7.06974 8.67391 6.81512 7.96708 6.81512 7.40056C6.81512 6.53776 7.37049 5.94922 8.25209 5.84345V5.56583C8.25209 5.37255 8.40895 5.21569 8.60223 5.21569C8.79551 5.21569 8.95237 5.37255 8.95237 5.56583V5.85354C9.30863 5.90196 9.63789 6.0138 9.90755 6.17927C10.112 6.30532 10.1428 6.47059 10.1428 6.55742C10.1428 6.77871 9.96358 6.96078 9.73949 6.96078C9.65545 6.95798 9.57422 6.93557 9.50139 6.89636L9.49579 6.89356C9.31163 6.79354 9.13287 6.72322 8.95237 6.68105V8.13119C10.1644 8.33084 10.4258 9.04841 10.4258 9.62745C10.4258 10.1064 10.2493 10.5098 9.91876 10.7983C9.6707 11.0115 9.34161 11.1512 8.95237 11.2108V11.5098C8.95237 11.7003 8.79551 11.8571 8.60223 11.8571ZM9.59943 9.65546C9.59943 10.0276 9.35879 10.2911 8.95237 10.3918V8.98183C9.51374 9.12132 9.59943 9.38533 9.59943 9.65546ZM8.25209 6.65951V8.0175C7.64145 7.85242 7.64145 7.53048 7.64145 7.36415C7.64145 6.99024 7.86499 6.73844 8.25209 6.65951Z" fill="#313235"/>
</svg>
