<svg width="24" height="24" viewBox="0 0 24 24" fill="none" xmlns="http://www.w3.org/2000/svg">
<path fill-rule="evenodd" clip-rule="evenodd" d="M20.2549 4.52246C21.042 4.52246 21.6862 5.13871 21.6862 5.90061V17.9118C21.6862 18.6709 21.0448 19.2899 20.2549 19.2899H3.42857C2.63865 19.2899 2 18.6737 2 17.9118V5.90061C2 5.14151 2.64146 4.52246 3.42857 4.52246H20.2549ZM4.62745 6.19473C4.93837 6.19473 5.18767 6.43282 5.18767 6.73254C5.18767 7.02946 4.93837 7.27035 4.62745 7.27035C4.31652 7.27035 4.06722 7.02946 4.06722 6.73254C4.06722 6.43562 4.31652 6.19473 4.62745 6.19473ZM20.479 17.9118C20.479 18.0322 20.3781 18.1275 20.2549 18.1275H3.43137C3.30812 18.1275 3.20728 18.0294 3.20728 17.9118V8.24794H20.479V17.9118ZM6.86554 6.73254C6.86554 6.43282 6.61624 6.19473 6.30812 6.19473C5.99719 6.19473 5.74789 6.43562 5.74789 6.73254C5.74789 7.02946 5.99719 7.27035 6.30812 7.27035C6.61624 7.27035 6.86554 7.02946 6.86554 6.73254ZM7.98318 6.19473C8.29411 6.19473 8.5434 6.43282 8.5434 6.73254C8.5434 7.02946 8.29411 7.27035 7.98318 7.27035C7.67226 7.27035 7.42296 7.02946 7.42296 6.73254C7.42296 6.43562 7.67226 6.19473 7.98318 6.19473ZM14.1036 12.4216C14.042 12.2395 13.8851 12.1107 13.6947 12.0827L12.6947 11.937C12.6891 11.937 12.6863 11.9342 12.6835 11.9286L12.2381 11.021C12.1512 10.8446 11.972 10.7353 11.7759 10.7353C11.5798 10.7353 11.4033 10.8446 11.3165 11.021L10.8711 11.9286C10.8683 11.9342 10.8627 11.937 10.8599 11.937L9.86273 12.0827C9.67225 12.1107 9.51539 12.2423 9.45377 12.4216C9.38934 12.6093 9.43696 12.811 9.57982 12.951L10.3025 13.6569C10.3053 13.6597 10.3081 13.6709 10.3081 13.6765L10.1372 14.6737C10.1036 14.8698 10.1877 15.0631 10.3529 15.1779C10.5098 15.2871 10.7143 15.2984 10.8823 15.2087L11.7759 14.7381C11.7787 14.7353 11.7815 14.7353 11.7843 14.7381L12.675 15.2087C12.7507 15.2479 12.8347 15.2675 12.9159 15.2675C13.0168 15.2675 13.1176 15.2367 13.2045 15.1779C13.3725 15.0659 13.4538 14.8726 13.4201 14.6737L13.2493 13.6765C13.2465 13.6709 13.2493 13.6625 13.2549 13.6569L13.9776 12.951C14.1204 12.811 14.168 12.6093 14.1036 12.4216ZM19.3249 12.0827C19.5154 12.1107 19.6722 12.2395 19.7339 12.4216C19.7983 12.6093 19.7507 12.811 19.6078 12.951L18.8851 13.6569C18.8795 13.6625 18.8767 13.6709 18.8795 13.6765L19.0504 14.6737C19.084 14.8726 19.0028 15.0659 18.8347 15.1779C18.7479 15.2367 18.647 15.2675 18.5462 15.2675C18.465 15.2675 18.3809 15.2479 18.3053 15.2087L17.4145 14.7381C17.4117 14.7353 17.4089 14.7353 17.4061 14.7381L16.5126 15.2087C16.3445 15.2984 16.14 15.2871 15.9832 15.1779C15.8179 15.0631 15.7339 14.8698 15.7675 14.6737L15.9383 13.6765C15.9383 13.6709 15.9355 13.6597 15.9327 13.6569L15.2101 12.951C15.0672 12.811 15.0196 12.6093 15.084 12.4216C15.1456 12.2423 15.3025 12.1107 15.493 12.0827L16.4902 11.937C16.493 11.937 16.4986 11.9342 16.5014 11.9286L16.9467 11.021C17.0336 10.8446 17.2101 10.7353 17.4061 10.7353C17.6022 10.7353 17.7815 10.8446 17.8683 11.021L18.3137 11.9286C18.3165 11.9342 18.3193 11.937 18.3249 11.937L19.3249 12.0827ZM8.47058 12.4216C8.40895 12.2395 8.25209 12.1107 8.06161 12.0827L7.05881 11.937C7.05321 11.937 7.05041 11.9342 7.04761 11.9286L6.60223 11.021C6.5154 10.8446 6.33613 10.7353 6.14005 10.7353C5.94397 10.7353 5.7675 10.8446 5.68067 11.021L5.23529 11.9286C5.23249 11.9342 5.22688 11.937 5.22408 11.937L4.22689 12.0827C4.03641 12.1107 3.87955 12.2423 3.81792 12.4216C3.7535 12.6093 3.80112 12.811 3.94397 12.951L4.66666 13.6569C4.66946 13.6597 4.67226 13.6709 4.67226 13.6765L4.5014 14.6737C4.46778 14.8698 4.55182 15.0631 4.71708 15.1779C4.87394 15.2871 5.07843 15.2984 5.24649 15.2087L6.14005 14.7381C6.14285 14.7353 6.14565 14.7353 6.14845 14.7381L7.04201 15.2087C7.11764 15.2479 7.20167 15.2675 7.2829 15.2675C7.38374 15.2675 7.48458 15.2367 7.57142 15.1779C7.73948 15.0659 7.82072 14.8726 7.7871 14.6737L7.61624 13.6765C7.61343 13.6709 7.61624 13.6625 7.62184 13.6569L8.34453 12.951C8.48738 12.811 8.535 12.6093 8.47058 12.4216Z" fill="#313235"/>
</svg>
