<svg width="24" height="24" viewBox="0 0 24 24" fill="none" xmlns="http://www.w3.org/2000/svg">
<path fill-rule="evenodd" clip-rule="evenodd" d="M21.0451 3.9923C20.5353 3.4993 19.807 3.25 18.8854 3.25H12.7454C11.8238 3.25 11.0983 3.4993 10.5857 3.9923C10.0535 4.5049 9.78461 5.25 9.78461 6.21078V17.771C9.78461 18.729 10.0535 19.4769 10.5857 19.9895C11.0955 20.4825 11.8238 20.7318 12.7454 20.7318H18.8882C19.8098 20.7318 20.5353 20.4825 21.0479 19.9895C21.5801 19.4769 21.849 18.7318 21.849 17.771V6.21078C21.8462 5.2528 21.5773 4.5077 21.0451 3.9923ZM4.51851 10.1043C4.79022 10.1043 5.00871 9.88584 5.00871 9.61414V8.97548C5.00871 7.60854 5.64456 6.97268 7.01151 6.97268H7.07593C6.98069 7.05392 6.88266 7.13795 6.79022 7.21918C6.58294 7.39285 6.55492 7.70097 6.72859 7.91106C6.90226 8.11834 7.21039 8.14635 7.42047 7.97268L7.42887 7.96428C7.56613 7.84663 8.2552 7.2528 8.38405 7.12675C8.78461 6.72619 8.78181 6.22479 8.37845 5.82142C8.12915 5.57213 7.45688 4.9979 7.42887 4.97549C7.22159 4.79902 6.91347 4.82423 6.737 5.03151C6.56053 5.23879 6.58574 5.54692 6.79302 5.72339C6.86305 5.78221 6.98069 5.88305 7.10955 5.9979H7.01431C6.08154 5.9979 5.34764 6.25 4.83504 6.74299C4.30003 7.2584 4.03112 8.0119 4.03112 8.98108V9.61974C4.02832 9.88584 4.2468 10.1043 4.51851 10.1043ZM15.8014 18.6561C16.0003 18.6561 16.1628 18.6029 16.2748 18.4909C16.3756 18.3872 16.4345 18.2332 16.4345 18.0287C16.4345 17.6001 16.1852 17.4012 15.8014 17.4012C15.4177 17.4012 15.1684 17.6001 15.1684 18.0287C15.1684 18.236 15.2272 18.3872 15.328 18.4909C15.4401 18.6029 15.6025 18.6561 15.8014 18.6561ZM6.94988 11.1744H3.93028C2.82104 11.1744 2.15997 11.8354 2.15997 12.9447V18.9363C2.15997 20.0455 2.82104 20.7066 3.93028 20.7066H6.94988C8.05912 20.7066 8.72019 20.0455 8.72019 18.9363V12.9447C8.71739 11.8354 8.05632 11.1744 6.94988 11.1744ZM5.55493 18.9503C5.67537 18.9503 5.77061 18.9194 5.83784 18.8522C5.89666 18.7906 5.93308 18.6982 5.93028 18.5777C5.93028 18.3228 5.77902 18.2052 5.55212 18.2052C5.32523 18.2052 5.17678 18.3228 5.17678 18.5777C5.17678 18.6982 5.21039 18.7906 5.27201 18.8522C5.33924 18.9166 5.43448 18.9503 5.55493 18.9503Z" fill="#313235"/>
</svg>
