<svg width="24" height="24" viewBox="0 0 24 24" fill="none" xmlns="http://www.w3.org/2000/svg">
<path fill-rule="evenodd" clip-rule="evenodd" d="M11.9987 2.1499C15.1304 2.1499 17.5645 2.96783 19.2368 4.57847C20.9735 6.25354 21.853 8.75213 21.853 12.0042C21.853 15.2563 20.9735 17.7549 19.2368 19.4272C17.5645 21.0378 15.1276 21.8558 11.9987 21.8558C8.86987 21.8558 6.4357 21.0378 4.76344 19.4272C3.02954 17.7549 2.14999 15.2591 2.14999 12.0042C2.14999 8.74933 3.02954 6.25354 4.76624 4.57847C6.4357 2.96783 8.86707 2.1499 11.9987 2.1499ZM17.0407 15.2423C17.3517 15.2423 17.601 14.9902 17.601 14.6821V8.71572C17.601 8.61488 17.5729 8.51404 17.5197 8.4272C17.3629 8.1639 17.0183 8.07706 16.7522 8.23673L11.7634 11.2339C11.6738 11.2899 11.5982 11.3684 11.5505 11.4664V8.71012C11.5505 8.60928 11.5225 8.50844 11.4693 8.4216C11.3124 8.1583 10.9679 8.07146 10.7018 8.23113L5.71301 11.2283C5.63458 11.2759 5.56736 11.3432 5.51974 11.4216C5.36287 11.6877 5.44971 12.0322 5.71582 12.1891L10.7046 15.1583C10.7914 15.2087 10.8895 15.2367 10.9903 15.2367C11.3012 15.2367 11.5505 14.9846 11.5505 14.6765V11.9594C11.5982 12.0575 11.6738 12.1387 11.7662 12.1947L16.755 15.1639C16.8418 15.2143 16.9399 15.2423 17.0407 15.2423Z" fill="#313235"/>
</svg>
