<svg width="24" height="24" viewBox="0 0 24 24" fill="none" xmlns="http://www.w3.org/2000/svg">
<path fill-rule="evenodd" clip-rule="evenodd" d="M21.8362 11.9958C21.8362 5.55606 18.4301 2.1499 11.9903 2.1499C5.55335 2.1499 2.14999 5.55606 2.14999 11.9958C2.14999 18.4328 5.55335 21.8361 11.9903 21.8361C18.4301 21.8361 21.8362 18.4328 21.8362 11.9958ZM13.2088 6.14149C13.4413 6.02945 13.713 6.06306 13.9119 6.22553L17.0351 9.25073C17.1668 9.37118 17.2452 9.54205 17.2424 9.72132C17.2396 9.9118 17.1556 10.0911 17.0099 10.2143L13.9427 13.1835C13.7102 13.374 13.4413 13.4048 13.2088 13.2955C12.9847 13.1891 12.8391 12.9622 12.8391 12.7129V11.7017H11.9707V17.1499C11.9707 17.374 11.7886 17.5588 11.5617 17.5588H8.60097C8.37688 17.5588 8.192 17.3768 8.192 17.1499V8.70451C8.1892 8.44961 8.29004 8.20311 8.47211 8.02384C8.65419 7.84457 8.89508 7.74373 9.15278 7.74373H12.8363V6.72413C12.8363 6.47202 12.9819 6.24513 13.2088 6.14149Z" fill="#313235"/>
</svg>
