<svg width="24" height="24" viewBox="0 0 24 24" fill="none" xmlns="http://www.w3.org/2000/svg">
<path fill-rule="evenodd" clip-rule="evenodd" d="M7.4721 6.66131C7.23681 6.66131 7.04633 6.47364 7.04633 6.24114V2.58008C7.04633 2.35039 7.23681 2.15991 7.4721 2.15991H9.34885C9.58415 2.15991 9.77462 2.34759 9.77462 2.58008V3.73134H10.6794V2.58008C10.6794 2.35039 10.8699 2.15991 11.1052 2.15991H12.7326C12.9679 2.15991 13.1584 2.34759 13.1584 2.58008V3.80697L14.0968 3.79297V2.58008C14.0968 2.35039 14.2872 2.15991 14.5225 2.15991H16.4749C16.7102 2.15991 16.9007 2.34759 16.9007 2.58008V6.24395C16.9007 6.47644 16.7102 6.66411 16.4749 6.66411H16.1864V6.65851H8.02672V6.66411H7.4721V6.66131ZM7.66818 16.398C7.66818 16.1655 7.85866 15.9778 8.09395 15.9778H8.87546C8.86426 15.9302 8.85866 15.8826 8.86146 15.8294L9.67378 8.8882H9.23681C9.00151 8.8882 8.81104 8.70053 8.81104 8.46804V7.32518H15.2032V8.46804C15.2032 8.69773 15.0127 8.8882 14.7774 8.8882H14.3404L15.1528 15.8294C15.1584 15.8798 15.1528 15.9302 15.1388 15.9778H15.8278C16.0631 15.9778 16.2536 16.1655 16.2536 16.398V18.4876H7.66538V16.398H7.66818ZM17.7018 19.5773C17.7018 19.3448 17.5113 19.1571 17.276 19.1571H6.64577C6.41048 19.1571 6.22 19.3476 6.22 19.5773V21.426C6.22 21.6585 6.41048 21.8462 6.64577 21.8462H17.276C17.5113 21.8462 17.7018 21.6585 17.7018 21.426V19.5773Z" fill="#313235"/>
</svg>
