<svg width="24" height="24" viewBox="0 0 24 24" fill="none" xmlns="http://www.w3.org/2000/svg">
<path fill-rule="evenodd" clip-rule="evenodd" d="M2 9.75766C2 14.091 5.51259 17.6036 9.84591 17.6036C11.7402 17.6087 13.5649 16.9222 14.9841 15.6858L20.6806 21.3823C20.7842 21.4887 20.9271 21.5475 21.0756 21.5475C21.224 21.5475 21.3641 21.4887 21.4733 21.3823C21.6918 21.1638 21.6918 20.808 21.4733 20.5895L15.7694 14.8857C18.333 11.8336 18.2072 7.29402 15.3921 4.38793C12.3781 1.2759 7.41174 1.19467 4.29691 4.20866C2.82633 5.68205 2 7.67643 2 9.75766ZM14.6691 14.4831C17.2409 11.8617 17.2325 7.65395 14.6386 5.03779C14.631 5.02833 14.6222 5.02015 14.6138 5.01238C14.6098 5.00865 14.6058 5.00501 14.6022 5.00138C13.3417 3.73527 11.6302 3.02659 9.84591 3.0322C6.13164 3.0322 3.12044 6.04339 3.12044 9.75766C3.12044 11.542 3.82912 13.2506 5.08962 14.5139C7.69677 17.1406 11.934 17.1664 14.5746 14.5775C14.5929 14.5542 14.6133 14.5319 14.6358 14.5111C14.6466 14.5013 14.6577 14.492 14.6691 14.4831ZM14.2436 5.46636C11.8431 3.06581 7.95236 3.06581 5.55461 5.46636C3.15686 7.86691 3.15406 11.7577 5.55461 14.1554C7.95516 16.5531 11.8459 16.5559 14.2436 14.1554C16.6414 11.7548 16.6442 7.86411 14.2436 5.46636ZM11.7535 12.5448C11.4061 12.8445 10.9383 13.035 10.3809 13.105V13.6512C10.3809 13.8613 10.21 14.0322 10.0028 14.0322C9.79268 14.0322 9.62182 13.8613 9.62182 13.6512V13.1274C8.93555 13.077 8.27728 12.8473 7.70866 12.4579C7.54059 12.3403 7.45656 12.1834 7.45656 11.9929C7.45936 11.7016 7.69745 11.4691 7.98877 11.4719C8.11202 11.4747 8.22967 11.514 8.33051 11.5812C8.75908 11.8669 9.19045 12.0378 9.62182 12.0938V9.96494C7.97196 9.72124 7.62183 8.76607 7.62183 8.00136C7.62183 6.8277 8.39773 6.04059 9.62182 5.92854V5.66244C9.62182 5.45235 9.79268 5.28149 10.0028 5.28149C10.2129 5.28149 10.3809 5.45235 10.3809 5.66244V5.93975C10.8879 5.99857 11.3613 6.14983 11.7395 6.38232C12.0028 6.54479 12.042 6.75487 12.042 6.86691C12.042 7.14983 11.8123 7.37952 11.5294 7.38232H11.5266C11.4201 7.37952 11.3165 7.34871 11.2212 7.29829L11.2128 7.29548C10.9523 7.14983 10.6694 7.04619 10.3781 6.98736V9.00416C12.0672 9.24786 12.4229 10.2198 12.4229 10.9985C12.4257 11.6316 12.1932 12.1666 11.7535 12.5448ZM8.67224 7.95374C8.67224 8.31509 8.79549 8.69884 9.61902 8.88651V6.95935C9.02238 7.04338 8.67224 7.40193 8.67224 7.95374ZM10.3781 10.0798V12.077C11 11.9593 11.3697 11.5812 11.3697 11.0378C11.3697 10.6456 11.2409 10.2647 10.3781 10.0798Z" fill="#313235"/>
</svg>
