<svg width="24" height="24" viewBox="0 0 24 24" fill="none" xmlns="http://www.w3.org/2000/svg">
<path fill-rule="evenodd" clip-rule="evenodd" d="M21.6863 14.154C21.6863 9.93829 18.4062 9.23241 16.9888 9.12597C15.8123 5.51813 11.7283 5.33325 10.9048 5.33325C9.84594 5.33325 4.61345 5.61897 4.5014 11.21C3.45098 11.5938 2 12.5741 2 15.0952C2 18.1792 4.18487 19.2772 6.22969 19.2772L16.5154 19.2212C17.381 19.2212 21.6863 18.9747 21.6863 14.154ZM16.0616 13.0896V12.4929C16.0588 12.1092 15.7479 11.7982 15.3641 11.7982H14.8796C14.8431 11.6414 14.7955 11.4901 14.7367 11.3417L15.1317 10.9495C15.4062 10.6806 15.409 10.2408 15.1401 9.96631L15.1345 9.9607L14.6975 9.52653C14.4202 9.25482 13.9776 9.25482 13.7003 9.52653L13.3053 9.91869C13.1541 9.85986 13 9.81224 12.8431 9.77583V9.29404C12.8403 8.91028 12.5294 8.59936 12.1457 8.60216H11.549C11.1653 8.60216 10.8515 8.91028 10.8515 9.29404V9.77583C10.6947 9.81224 10.5406 9.85986 10.3894 9.91869L9.9944 9.52653C9.86274 9.39488 9.68347 9.32205 9.4986 9.32205H9.4958C9.30812 9.32205 9.12885 9.39488 8.9972 9.52653L8.55462 9.9579C8.28011 10.2268 8.27731 10.6666 8.54902 10.9411L8.55462 10.9467L8.94678 11.3361C8.88796 11.4873 8.84034 11.6414 8.80672 11.7982H8.32213C7.93837 11.7982 7.62465 12.1064 7.62185 12.4929V13.0896C7.62465 13.4733 7.93837 13.7842 8.32213 13.7814H8.80672C8.83753 13.9187 8.88235 14.0868 8.94678 14.2436L8.55462 14.633C8.28011 14.9019 8.27731 15.3417 8.54902 15.6162L8.55462 15.6218L8.9916 16.0559C9.12605 16.1876 9.30252 16.2604 9.4902 16.2604H9.493C9.68067 16.2604 9.85714 16.1876 9.9888 16.0559L10.3838 15.6638C10.5266 15.7198 10.6835 15.7702 10.8459 15.8066V16.2884C10.8487 16.6722 11.1597 16.9831 11.5434 16.9803H12.1401C12.5238 16.9803 12.8347 16.6722 12.8375 16.2884V15.8066C13 15.7702 13.1513 15.7226 13.2997 15.661L13.6947 16.0559C13.9692 16.3276 14.4174 16.3276 14.6919 16.0559L15.1289 15.6218C15.4034 15.3501 15.4034 14.9103 15.1317 14.6358L15.1289 14.633L14.7367 14.2408C14.7927 14.098 14.8431 13.9467 14.8796 13.7814H15.3641C15.7479 13.7814 16.0616 13.4733 16.0616 13.0896ZM11.8431 10.9635C12.9944 10.9635 13.6835 11.647 13.6835 12.7898C13.6835 13.9355 12.9972 14.6162 11.8431 14.6162C10.6891 14.6162 10.0028 13.9327 10.0028 12.7898C10.0028 11.647 10.6919 10.9635 11.8431 10.9635Z" fill="#313235"/>
</svg>
