<svg width="24" height="24" viewBox="0 0 24 24" fill="none" xmlns="http://www.w3.org/2000/svg">
<path fill-rule="evenodd" clip-rule="evenodd" d="M21.6863 5.9033C21.6863 5.14419 21.0448 4.52515 20.2577 4.52515H3.42857C2.63866 4.52515 2 5.14419 2 5.9033V17.9145C2 18.6736 2.63866 19.2899 3.42857 19.2899H20.2577C21.0448 19.2899 21.6863 18.6708 21.6863 17.9117V5.9033ZM5.19048 6.73243C5.18487 6.42991 4.93838 6.18901 4.63585 6.19461H4.63305C4.33053 6.18901 4.08123 6.42711 4.07283 6.72963V6.73243C4.07283 7.02935 4.32213 7.27024 4.63025 7.27024C4.94118 7.27024 5.19048 7.02935 5.19048 6.73243ZM20.4818 17.9117C20.4818 18.0321 20.381 18.1274 20.2577 18.1274H3.42857C3.30532 18.1274 3.20448 18.0293 3.20448 17.9117V8.24784H20.4818V17.9117ZM15.4202 12.3235C15.8067 12.3235 16.1176 12.6232 16.1176 12.9957V13.5812C16.1176 13.9509 15.8067 14.2534 15.4202 14.2534H14.9188C14.8796 14.4187 14.8291 14.5728 14.7675 14.7184L15.1737 15.1106C15.4398 15.3627 15.4482 15.78 15.1989 16.0462L15.1737 16.0714L14.7283 16.4999C14.4482 16.7632 14.0112 16.7632 13.7339 16.4999L13.3277 16.105C13.1709 16.1666 13.0084 16.2142 12.8431 16.2534V16.7352C12.8431 17.105 12.5294 17.4075 12.1457 17.4075H11.5378C11.1513 17.4075 10.8403 17.105 10.8403 16.7352V16.2534C10.6751 16.217 10.5126 16.1666 10.3557 16.105L9.94958 16.4999C9.66667 16.7548 9.2381 16.7548 8.95518 16.4999L8.5098 16.0686C8.2465 15.8137 8.2381 15.3935 8.4902 15.1302L8.5098 15.1106L8.91317 14.724C8.85154 14.5728 8.80112 14.4131 8.76471 14.2534H8.26331C7.87675 14.2534 7.56583 13.9509 7.56583 13.5812V12.9957C7.56583 12.626 7.87675 12.3235 8.26331 12.3235H8.76471C8.79832 12.1862 8.84594 12.0153 8.91317 11.8529L8.5098 11.4635C8.37815 11.3403 8.30532 11.1666 8.30532 10.9845C8.30532 10.7997 8.37815 10.6288 8.51261 10.5027L8.95518 10.0742C9.2381 9.81926 9.66667 9.81926 9.94958 10.0742L10.3557 10.4663C10.507 10.4075 10.6695 10.3599 10.8403 10.3207V9.83887C10.8403 9.46912 11.1541 9.1666 11.5378 9.1666H12.1457C12.5322 9.1666 12.8431 9.46912 12.8431 9.83887V10.3207C13.014 10.3599 13.1709 10.4047 13.3277 10.4691L13.7339 10.0742C14.014 9.80806 14.451 9.80806 14.7283 10.0742L15.1737 10.5027C15.437 10.7548 15.4482 11.1722 15.1961 11.4383C15.1932 11.4412 15.1906 11.4441 15.1881 11.4469L15.1881 11.4469C15.1834 11.4522 15.1792 11.4571 15.1737 11.4607L14.7647 11.8529C14.8263 11.9985 14.8768 12.1554 14.916 12.3207C14.9188 12.3235 15.4202 12.3235 15.4202 12.3235ZM11.8431 14.8837C12.8964 14.8837 13.5014 14.3011 13.5014 13.2871C13.5014 12.273 12.8964 11.6932 11.8431 11.6932C10.7899 11.6932 10.1849 12.273 10.1849 13.2871C10.1849 14.3011 10.7899 14.8837 11.8431 14.8837ZM6.31092 6.19461C6.61345 6.18901 6.86274 6.42991 6.86835 6.73243C6.86274 7.03495 6.61345 7.27585 6.30812 7.27024C6 7.27024 5.7507 7.02935 5.7507 6.73243C5.7563 6.42991 6.0056 6.18901 6.30812 6.19461H6.31092ZM8.54622 6.73243C8.54062 6.42991 8.29132 6.18901 7.9888 6.19461C7.68627 6.18901 7.43697 6.42711 7.42857 6.72963V6.73243C7.42857 7.02935 7.67787 7.27024 7.98599 7.27024C8.29132 7.27585 8.54062 7.03495 8.54622 6.73243Z" fill="#313235"/>
</svg>
