<svg width="24" height="24" viewBox="0 0 24 24" fill="none" xmlns="http://www.w3.org/2000/svg">
<path fill-rule="evenodd" clip-rule="evenodd" d="M20.9047 5.48029C20.3417 4.83603 19.5013 4.5083 18.4005 4.5083H5.2913C4.19327 4.5083 3.35013 4.83603 2.78711 5.48029C2.26611 6.07972 2 6.94807 2 8.06291V13.0013C2 14.1161 2.26611 14.9844 2.78711 15.5839C3.35013 16.2281 4.19047 16.5559 5.2913 16.5559H18.4005C19.4985 16.5559 20.3417 16.2281 20.9047 15.5867C21.4285 14.9872 21.6918 14.1189 21.6918 13.0041V8.06291C21.6918 6.94807 21.4257 6.07972 20.9047 5.48029ZM21.6582 18.1777C21.6582 18.4858 21.4061 18.7379 21.098 18.7379H2.59384C2.28571 18.7379 2.03361 18.4858 2.03361 18.1777C2.03361 17.8696 2.28571 17.6175 2.59384 17.6175H21.098C21.4061 17.6175 21.6582 17.8696 21.6582 18.1777ZM11.0056 10.2702L12.9859 9.27859C12.9905 9.28316 12.9948 9.28802 12.9991 9.29299C13.0082 9.30326 13.0176 9.31397 13.0308 9.32341C13.2689 9.5671 13.6218 9.69595 14.0532 9.69595C14.4845 9.69595 14.8403 9.5615 15.0756 9.32341C15.3109 9.08531 15.4313 8.74358 15.4313 8.31501C15.4313 7.86683 15.3025 7.51669 15.0476 7.2758C14.8067 7.04611 14.4733 6.93126 14.0532 6.93126C13.633 6.93126 13.2997 7.04891 13.0588 7.2758C12.8039 7.51669 12.675 7.86683 12.675 8.31501C12.675 8.37663 12.6778 8.43545 12.6834 8.49428L10.6666 9.50268L10.6414 9.47747C10.4005 9.24778 10.0672 9.13293 9.64703 9.13293C9.22686 9.13293 8.89353 9.25058 8.65263 9.47747C8.39773 9.71836 8.26888 10.0685 8.26888 10.5167C8.26888 10.9452 8.38653 11.2814 8.62462 11.5251C8.86272 11.7688 9.21846 11.8976 9.64703 11.8976C10.0756 11.8976 10.4257 11.7716 10.6638 11.5307L12.6834 12.5419C12.6778 12.5979 12.675 12.6567 12.675 12.7183C12.675 13.1469 12.7899 13.4831 13.028 13.7267C13.2661 13.9704 13.619 14.0993 14.0504 14.0993C14.4817 14.0993 14.8375 13.9648 15.0728 13.7267C15.3081 13.4887 15.4285 13.1469 15.4285 12.7183C15.4285 12.2702 15.2997 11.92 15.0448 11.6791C14.8039 11.4494 14.4705 11.3346 14.0504 11.3346C13.6302 11.3346 13.2969 11.4522 13.056 11.6791C13.0308 11.7043 13.0056 11.7296 12.9831 11.7548L11.0056 10.766C11.0252 10.6007 11.0252 10.4354 11.0056 10.2702Z" fill="#313235"/>
</svg>
