<svg width="24" height="24" viewBox="0 0 24 24" fill="none" xmlns="http://www.w3.org/2000/svg">
<path fill-rule="evenodd" clip-rule="evenodd" d="M2.01678 11.843C2.01678 5.12316 5.61061 2.01953 11.8431 2.01953C18.0727 2.01953 21.6694 5.12316 21.6694 11.843C21.6694 18.5629 18.0755 21.6693 11.8431 21.6693C5.61061 21.6693 2.01678 18.5629 2.01678 11.843ZM10.4481 12.4509C10.4817 12.2604 10.5013 12.0587 10.5013 11.843C10.5013 11.6301 10.4845 11.4313 10.4369 11.2464L13.084 9.92146C13.1372 9.99149 13.196 10.0615 13.2576 10.1259C13.6778 10.5573 14.2912 10.7842 15.0335 10.7842C15.7758 10.7842 16.3893 10.5573 16.8094 10.1259C17.224 9.70297 17.4341 9.11474 17.4341 8.37525C17.4341 7.60494 17.2072 6.9971 16.759 6.57133C16.3445 6.17638 15.745 5.96629 15.0363 5.96629C14.3277 5.96629 13.731 6.17638 13.3137 6.57133C12.8655 6.9971 12.6386 7.60494 12.6386 8.37525C12.6386 8.55172 12.6526 8.71698 12.675 8.87665L9.98314 10.2212C9.93272 10.1568 9.8767 10.0979 9.81787 10.0419C9.40331 9.64695 8.80387 9.43687 8.09519 9.43687C7.38651 9.43687 6.78987 9.64695 6.37251 10.0419C5.92433 10.4677 5.69744 11.0755 5.69744 11.8458C5.69744 12.5825 5.90752 13.1735 6.32209 13.5965C6.74225 14.0279 7.3557 14.2548 8.09799 14.2548C8.84029 14.2548 9.45373 14.0279 9.87389 13.5965C9.91311 13.5573 9.94952 13.5153 9.98314 13.4733L12.6778 14.8206C12.6526 14.9775 12.6414 15.1427 12.6414 15.3164C12.6414 16.0531 12.8515 16.6441 13.266 17.0671C13.6862 17.4985 14.2996 17.7253 15.0419 17.7253C15.7842 17.7253 16.3977 17.4985 16.8178 17.0671C17.2324 16.6441 17.4425 16.0559 17.4425 15.3164C17.4425 14.5461 17.2156 13.9382 16.7674 13.5125C16.3529 13.1175 15.7534 12.9074 15.0447 12.9074C14.3361 12.9074 13.7394 13.1175 13.3221 13.5125C13.238 13.5909 13.1624 13.6805 13.0924 13.773L10.4481 12.4509Z" fill="#313235"/>
</svg>
