<svg width="24" height="24" viewBox="0 0 24 24" fill="none" xmlns="http://www.w3.org/2000/svg">
<path fill-rule="evenodd" clip-rule="evenodd" d="M20.6027 5.16764C20.6027 5.15539 20.6026 5.14616 20.6026 5.14005L20.5942 5.06442C20.5382 4.72829 20.2189 4.4986 19.8828 4.55462C18.2497 4.81232 17.3954 4.2409 16.3169 3.51821L16.3159 3.51751C15.2545 2.8062 14.0558 2.0028 11.992 2H11.9864C9.93344 2 8.73367 2.79779 7.67637 3.50083L7.65867 3.5126L7.65003 3.51839C6.57568 4.23836 5.72439 4.80884 4.11525 4.55462C3.93878 4.5098 3.74831 4.55182 3.60545 4.66386C3.46259 4.77871 3.37576 4.95238 3.37576 5.13725C3.37296 5.40616 3.35615 11.7535 3.83234 14.4986C4.45419 18.1092 11.4374 21.4846 11.7343 21.6274C11.8968 21.7031 12.0844 21.7031 12.2441 21.6274C12.541 21.4874 19.5326 18.112 20.1545 14.5014C20.6089 11.8186 20.6032 5.69517 20.6027 5.16764ZM8.49621 11.6975L10.5018 13.7255C10.5018 13.7255 15.4822 8.68347 15.485 8.68627L15.4934 8.67787C15.7259 8.45098 16.0984 8.45378 16.3281 8.68627C16.5606 8.92157 16.5606 9.30252 16.3281 9.53781L10.922 15.0056L10.9192 15.0084C10.6895 15.2381 10.3113 15.2381 10.0816 15.0056L7.65307 12.549C7.42058 12.3137 7.42058 11.9328 7.65307 11.6975L7.66147 11.6891C7.89396 11.4622 8.26651 11.465 8.49621 11.6975Z" fill="#313235"/>
</svg>
