<svg width="24" height="24" viewBox="0 0 24 24" fill="none" xmlns="http://www.w3.org/2000/svg">
<path d="M12.2913 21.6863C12.2045 21.6863 12.1148 21.6667 12.0336 21.6274C11.2885 21.2717 4.7479 18.0504 4.13726 14.4986C3.66387 11.7563 3.68068 5.41737 3.68068 5.14846C3.68068 4.95798 3.76751 4.78151 3.91597 4.66386C4.06443 4.54902 4.25771 4.5098 4.43698 4.55462C6.03922 4.81232 6.88516 4.23809 7.96079 3.51541C9.02241 2.80392 10.2241 2 12.2885 2H12.2969C14.3613 2.0028 15.563 2.80672 16.6218 3.51821C17.6975 4.2409 18.549 4.80672 20.1737 4.55182C20.3473 4.52381 20.5406 4.57143 20.6751 4.68907C20.8095 4.80672 20.902 4.97199 20.9048 5.15126C20.9048 5.42017 20.9216 11.7591 20.4566 14.5014C19.8459 18.0532 13.2969 21.2745 12.5518 21.6302C12.4678 21.6667 12.3782 21.6863 12.2913 21.6863Z" fill="#313235"/>
</svg>
