<svg width="24" height="24" viewBox="0 0 24 24" fill="none" xmlns="http://www.w3.org/2000/svg">
<path fill-rule="evenodd" clip-rule="evenodd" d="M21.6862 10.6695C21.6862 10.2269 21.5014 9.80391 21.1736 9.47057C21.042 9.26329 20.6918 7.99439 20.5238 7.38374C20.5103 7.3348 20.4971 7.28687 20.4843 7.24024C20.4119 6.97729 20.3509 6.7555 20.3081 6.62464L19.0476 2.62185C18.9271 2.2493 18.5854 2 18.1905 2H18.1877L5.4902 2.03641C5.10364 2.03922 4.76191 2.28571 4.63866 2.65546C4.48978 3.12851 4.2812 3.80124 4.05175 4.54129C4.01355 4.66452 3.97476 4.78961 3.93558 4.91596C3.87971 5.09592 3.82181 5.28252 3.76276 5.47285C3.23263 7.18151 2.60923 9.19079 2.52101 9.39494C2.47808 9.49596 2.42149 9.58559 2.36561 9.67409C2.35951 9.68376 2.35341 9.69341 2.34734 9.70307C2.19328 9.94396 2.00281 10.2437 2.00281 10.6695C2.00281 11.8683 3.32213 12.8095 5.0056 12.8095C5.90196 12.8095 6.73389 12.535 7.29411 12.0644C7.85994 12.5378 8.68627 12.8095 9.58262 12.8095C10.1008 12.8095 10.6134 12.7171 11.0588 12.5378C11.3613 12.4173 11.633 12.2605 11.8571 12.0756C12.4202 12.5378 13.2437 12.8095 14.1316 12.8095C15.0224 12.8095 15.8487 12.5378 16.4089 12.0756C16.972 12.5378 17.7955 12.8095 18.6834 12.8095C20.3669 12.8095 21.6862 11.8683 21.6862 10.6695ZM18.6806 13.6302C17.8543 13.6302 17.056 13.4285 16.4061 13.0644C15.7591 13.4285 14.9608 13.6302 14.1316 13.6302C13.3025 13.6302 12.5042 13.4285 11.8543 13.0644C11.7003 13.1512 11.535 13.2297 11.3613 13.2997C10.8151 13.5154 10.2017 13.6302 9.57982 13.6302C8.74509 13.6302 7.94117 13.4229 7.29131 13.056C6.64145 13.4257 5.83753 13.6302 5.0028 13.6302C4.35574 13.6302 3.75911 13.5014 3.2297 13.2885V20.0756C3.2297 20.9635 3.90757 21.6862 4.7451 21.6862H9.23809V16.042C9.23809 15.3613 9.72828 14.8095 10.3361 14.8095H13.3725C13.9776 14.8095 14.4706 15.3613 14.4706 16.042V21.6862H18.9383C19.7731 21.6862 20.4538 20.9635 20.4538 20.0756V13.2885C19.9243 13.4986 19.3277 13.6302 18.6806 13.6302Z" fill="#313235"/>
</svg>
