<svg width="24" height="24" viewBox="0 0 24 24" fill="none" xmlns="http://www.w3.org/2000/svg">
<path fill-rule="evenodd" clip-rule="evenodd" d="M11.3851 2C11.6652 2 11.9733 2 12.2451 2.0112C14.0069 2.04762 20.8865 2.74509 20.8865 10.9691C20.8865 15.1064 19.1526 17.3333 17.2058 18.5265V19.1792C17.2058 20.0027 16.9733 20.6414 16.5027 21.0615C16.049 21.4733 15.3935 21.6834 14.5476 21.6834H9.21145C8.36272 21.6834 7.69885 21.4733 7.24507 21.0615C6.76328 20.6442 6.52239 20.0027 6.52239 19.182V18.5349C4.57562 17.3501 2.84173 15.1064 2.84173 10.9215C2.84173 2.63025 9.5756 2.0084 11.3851 2ZM8.08541 13.9495C8.063 13.9495 8.04059 13.9502 8.01818 13.9509C7.99577 13.9516 7.97336 13.9523 7.95095 13.9523H7.85291C6.51959 13.9327 4.96497 13.14 4.96497 10.9663C4.96497 10.8347 4.97057 10.7086 4.98178 10.5882C5.14985 8.69465 6.62603 8.00838 7.83611 7.99717C7.91734 7.99437 8.00698 7.99717 8.0798 7.99997C9.3263 8.02798 10.7325 8.70585 10.9425 10.5154C10.9593 10.661 10.9677 10.8179 10.9677 10.9832C10.9677 13.1316 9.41593 13.9243 8.08541 13.9495ZM15.8809 13.9495C15.8585 13.9495 15.8361 13.9502 15.8137 13.9509C15.7913 13.9516 15.7688 13.9523 15.7464 13.9523H15.6456C14.3123 13.9327 12.7577 13.14 12.7577 10.9663C12.7577 10.8347 12.7633 10.7086 12.7745 10.5882C12.9425 8.69465 14.4159 8.00838 15.6288 7.99717C15.7016 7.99717 15.7969 7.99717 15.8725 7.99997C17.119 8.02798 18.5251 8.70585 18.7324 10.5154C18.7492 10.661 18.7576 10.8179 18.7576 10.9832C18.7632 13.1316 17.2086 13.9243 15.8809 13.9495ZM13.4159 16.6106C13.0854 16.7506 12.7044 16.5966 12.5616 16.266L12.1974 15.4089C12.0574 15.0812 12.2142 14.7002 12.5448 14.563C12.8753 14.4257 13.2563 14.577 13.3991 14.9075L13.7605 15.7646C13.9033 16.0924 13.7464 16.4705 13.4159 16.6106ZM11.1974 16.2632L11.5616 15.4089C11.7016 15.0812 11.5476 14.703 11.2114 14.5602C10.8809 14.4257 10.5 14.577 10.3571 14.9047L9.99296 15.7618V15.7646C9.85851 16.0952 10.0126 16.4705 10.3431 16.6078C10.6764 16.7478 11.0574 16.5938 11.1974 16.2632Z" fill="#313235"/>
</svg>
