<svg width="24" height="24" viewBox="0 0 24 24" fill="none" xmlns="http://www.w3.org/2000/svg">
<path fill-rule="evenodd" clip-rule="evenodd" d="M21.6862 11.8459C21.6862 5.14004 18.0588 2 11.8403 2C5.62183 2 2 5.14004 2 11.8459C2 18.5517 5.62183 21.6862 11.8403 21.6862C18.0588 21.6862 21.6862 18.5517 21.6862 11.8459ZM5.77309 15.8935C8.10641 13.2801 11.7759 13.4089 11.9299 13.4145C15.6442 13.4537 17.8235 15.8263 17.9159 15.9271C18.1456 16.1792 18.1232 16.5686 17.8711 16.7955C17.7534 16.9019 17.605 16.9523 17.4593 16.9523C17.2912 16.9523 17.1232 16.8851 17.0027 16.7506L17.0002 16.748C16.9191 16.6629 15.0225 14.6745 11.8991 14.6414C11.8967 14.6417 11.887 14.6417 11.8704 14.6417H11.8703C11.542 14.642 8.53955 14.6451 6.69186 16.7114C6.46497 16.9663 6.07841 16.9887 5.82351 16.7618C5.56861 16.5377 5.5462 16.1484 5.77309 15.8935ZM8.85711 10.3921C9.21285 10.3921 9.50977 10.2801 9.71705 10.07C9.91873 9.86271 10.0224 9.577 10.0224 9.22406C10.0224 8.50137 9.5742 8.05319 8.85711 8.05319C8.13723 8.05319 7.69185 8.50137 7.69185 9.22406C7.69185 9.577 7.79549 9.86271 7.99717 10.07C8.20445 10.2801 8.50137 10.3921 8.85711 10.3921ZM15.689 10.07C15.4817 10.2801 15.1848 10.3921 14.8291 10.3921C14.4705 10.3921 14.1736 10.2801 13.9719 10.07C13.7703 9.86271 13.6666 9.577 13.6666 9.22406C13.6666 8.50137 14.112 8.05319 14.8319 8.05319C15.549 8.05319 15.9971 8.50137 15.9971 9.22406C15.9971 9.577 15.8935 9.86271 15.689 10.07Z" fill="#313235"/>
</svg>
