<svg width="24" height="24" viewBox="0 0 24 24" fill="none" xmlns="http://www.w3.org/2000/svg">
<path fill-rule="evenodd" clip-rule="evenodd" d="M20.1288 9.2661V11.0056C20.7759 11.1541 21.6863 11.6246 21.6863 13.0924C21.6863 15.0784 20.0196 15.2353 19.605 15.2409C19.5658 15.2437 19.5238 15.2437 19.479 15.2437H19.4062C18.9692 15.2381 17.3249 15.0812 17.3249 13.0812C17.3249 11.5686 18.2577 11.1176 18.902 10.986V9.2661C18.902 7.58263 17.7059 7.29972 16.9944 7.28291L16.7675 7.28011C16.0672 7.28571 14.8964 7.54902 14.8964 9.2493L14.8992 9.32213V17.4846C14.8992 20.5294 12.6975 21.6499 10.8123 21.6835C10.7479 21.6863 10.6695 21.6863 10.591 21.6863H10.4594C8.48179 21.6583 6.36975 20.535 6.36975 17.4622V15.6022H6.10644C5.82073 15.6022 5.57983 15.3529 5.57983 15.0532V13.8964C3.2605 13.395 2 11.5238 2 8.49299C2 8.26891 2.18207 8.08963 2.40896 8.08963H2.59104V4.72269C2.58824 4.61064 2.56863 3.41457 3.2493 2.71148C3.56863 2.38655 3.98599 2.21569 4.46218 2.21569C4.46779 2.21569 4.47339 2.21709 4.47899 2.21849C4.48459 2.21989 4.4902 2.22129 4.4958 2.22129C4.68907 2.02241 4.96639 2.0028 5.07003 2H5.14846C5.31092 2.0028 5.93557 2.06443 5.93557 2.80952C5.93557 3.55462 5.31092 3.61344 5.15406 3.61625H5.07843C4.98039 3.61344 4.72549 3.59104 4.53221 3.41457C4.52248 3.41578 4.51328 3.41858 4.50414 3.42136C4.49224 3.42499 4.48046 3.42857 4.46779 3.42857C4.32493 3.42857 4.22409 3.46779 4.14006 3.55462C3.86274 3.83753 3.81513 4.4958 3.82073 4.70308V8.09804C4.02521 8.12045 4.17927 8.28851 4.18207 8.49299C4.18207 10.5826 5.31933 12.1008 6.88515 12.1008C8.46778 12.1008 9.70588 10.5154 9.70588 8.49299C9.70868 8.27731 9.87955 8.10084 10.0952 8.09243V4.71989C10.1008 4.493 10.056 3.83473 9.77591 3.55182C9.68907 3.46499 9.59103 3.42857 9.44818 3.42857C9.4355 3.42857 9.42372 3.42499 9.41182 3.42136C9.40269 3.41858 9.39348 3.41578 9.38375 3.41457C9.19047 3.59104 8.93277 3.61344 8.83473 3.61625H8.7591C8.60224 3.61344 7.97759 3.55462 7.97759 2.80952C7.97759 2.06443 8.60224 2.0028 8.7619 2H8.84033C8.94398 2 9.22129 2.02241 9.41456 2.22129C9.42196 2.22129 9.42779 2.21973 9.4333 2.21825C9.43822 2.21693 9.44289 2.21569 9.44818 2.21569C9.90196 2.20728 10.3417 2.38655 10.6611 2.71148C11.3501 3.41457 11.3277 4.60784 11.3249 4.7423V8.08963H11.4482C11.6723 8.08683 11.8543 8.26891 11.8571 8.49299C11.8571 11.4734 10.6387 13.3305 8.39496 13.8711V15.056C8.39496 15.3529 8.15406 15.605 7.86835 15.605H7.59944V17.4622C7.59944 20.1429 9.61064 20.4594 10.4762 20.4734C10.5798 20.4734 10.6947 20.4734 10.7871 20.4706C11.6555 20.4566 13.6695 20.1316 13.6695 17.4846L13.6667 9.2661C13.6667 6.91877 15.3277 6.07843 16.7535 6.06723C16.8431 6.07003 16.9384 6.07003 17.0196 6.07003C18.4566 6.10364 20.1288 6.96358 20.1288 9.2661ZM19.5126 13.633H19.563C19.6695 13.6302 20.0924 13.591 20.0896 13.0896C20.0896 12.5854 19.6695 12.5434 19.5602 12.5406H19.507C19.3978 12.5406 18.9832 12.577 18.9832 13.084C18.9832 13.591 19.4006 13.6302 19.5126 13.633Z" fill="#313235"/>
</svg>
