<svg width="24" height="24" viewBox="0 0 24 24" fill="none" xmlns="http://www.w3.org/2000/svg">
<path d="M11.4678 21.6863C10.5742 21.6863 9.72831 21.5238 8.9608 21.1877C8.37257 20.9272 7.9384 20.4258 7.66669 19.6947C7.4426 19.0869 7.38097 18.3866 7.49022 17.6107C7.58265 16.9608 7.49582 16.6023 7.23812 16.5378C7.09246 16.5014 6.97761 16.5603 6.77313 16.6695L6.64988 16.7367C5.98882 17.0757 5.56024 17.6919 5.10646 18.3418C5.00562 18.4874 4.90478 18.6331 4.79834 18.7787C4.06725 19.7871 3.27173 19.6247 2.73392 19.311C1.86557 18.8067 1.944 17.9804 2.10927 17.6163C2.6891 16.0364 3.86557 14.7563 5.41179 14.0392C6.33896 13.6135 7.35016 13.4174 8.34176 13.4706C8.35016 13.4706 8.36136 13.4706 8.36977 13.4734C9.03363 13.4426 10.0953 13.5967 10.7927 13.7535C10.9832 13.8039 11.1485 13.8516 11.2997 13.8992C12.2185 13.93 12.4986 13.7563 12.5939 13.6527C12.7451 13.4846 12.6919 13.1149 12.6359 12.7199C12.5883 12.3782 12.5322 11.9944 12.5967 11.6247C12.5911 11.493 12.6107 11.2577 12.6471 11.0196C12.8039 9.84037 13.2101 8.90479 13.8516 8.23532C13.7619 8.09807 13.6779 7.95801 13.5967 7.81236C12.7815 6.30535 12.5967 4.56866 13.0784 2.9244C13.2661 2.38379 13.9244 1.74793 15.0084 2.11768C15.5462 2.30255 15.7815 2.61628 15.8824 2.84877C16.0644 3.26334 15.944 3.65549 15.8992 3.77874C15.6499 4.6611 15.7507 5.58547 16.1821 6.38378C16.3165 6.62748 16.4762 6.85437 16.6555 7.05045C17.014 7.03364 17.3193 7.05885 17.5238 7.08406C17.6555 7.10367 17.7843 7.12608 17.8936 7.13448C19.9972 7.48182 22.0644 9.01123 21.6359 12.2773C21.5967 12.5743 21.5378 12.8712 21.4622 13.1513C21.4594 13.1625 21.4566 13.1709 21.4538 13.1821C21.0616 15.5659 19.7059 17.7591 17.6331 19.3642C15.6415 20.8796 13.4482 21.6863 11.4678 21.6863Z" fill="#313235"/>
</svg>
