<svg width="24" height="24" viewBox="0 0 24 24" fill="none" xmlns="http://www.w3.org/2000/svg">
<path fill-rule="evenodd" clip-rule="evenodd" d="M18.8487 2.20728L21.507 4.88515C21.7451 5.12604 21.7451 5.521 21.5014 5.75349C21.3781 5.87674 21.224 5.93557 21.0588 5.93557C20.9579 5.93557 20.8599 5.90475 20.7703 5.85433L18.5238 8.12044L19.7283 9.33612C19.9663 9.57701 19.9663 9.96357 19.7283 10.2129C19.605 10.3277 19.4509 10.3949 19.2941 10.3949C19.14 10.3949 18.9832 10.3277 18.8599 10.2129L18.6806 10.0308L10.4762 18.2969C10.3613 18.4117 10.2073 18.479 10.042 18.479C9.88794 18.479 9.73108 18.4117 9.60783 18.2969L8.68066 17.3641C8.67646 17.3683 8.67436 17.3725 8.67225 17.3767C8.67015 17.3809 8.66805 17.3851 8.66385 17.3893L7.60503 18.4565C7.48458 18.5798 7.32772 18.6386 7.17086 18.6386C7.0168 18.6386 6.85993 18.5798 6.73668 18.4565L6.41736 18.1344L3.05322 21.5322C2.92997 21.6554 2.77591 21.7142 2.61905 21.7142C2.45378 21.7142 2.29972 21.6554 2.18487 21.5322C1.93838 21.2913 1.93838 20.8963 2.18487 20.6554L5.54621 17.2633L5.29971 17.014C5.05321 16.7731 5.05321 16.3781 5.29971 16.1372L6.35853 15.0616C6.36274 15.0574 6.36694 15.0553 6.37114 15.0532C6.37534 15.0511 6.37954 15.049 6.38374 15.0448L5.60503 14.2605C5.49019 14.1456 5.42576 13.9888 5.42576 13.8235C5.42576 13.6582 5.49019 13.5014 5.60503 13.3865L6.65545 12.3193L13.1961 5.73949V5.73109L13.8039 5.12044L13.647 4.96358C13.4089 4.72268 13.4089 4.32773 13.647 4.08683C13.8935 3.83753 14.2801 3.83753 14.5182 4.08683L15.619 5.19327L17.8655 2.91877C17.7507 2.68627 17.7843 2.39776 17.972 2.20728C18.2185 1.96639 18.6022 1.96639 18.8487 2.20728ZM17.6582 7.24929L16.4846 6.06722L18.7086 3.82633L19.8823 5.0084L17.6582 7.24929ZM15.1904 8.48178C15.0924 8.58822 14.9524 8.63864 14.8123 8.63864C14.6806 8.63864 14.5406 8.58822 14.4341 8.49018L12.7283 6.78711L13.4818 6.028L15.1876 7.72268C15.3949 7.92716 15.4033 8.2745 15.1904 8.48178ZM13.7115 11.6218C13.8431 11.6218 13.9832 11.563 14.0896 11.465C14.2941 11.2493 14.2941 10.9103 14.0868 10.7059L11.4622 8.06161L10.7087 8.82071L13.3333 11.465C13.4341 11.563 13.5714 11.6218 13.7115 11.6218ZM11.2269 12.6302C11.1288 12.7367 10.9888 12.7955 10.8487 12.7955C10.7171 12.7955 10.577 12.7367 10.4706 12.6386L8.68906 10.8543L9.44536 10.0952L11.2269 11.8711C11.4314 12.084 11.4398 12.4229 11.2269 12.6302ZM9.73388 15.1932C9.87113 15.1932 10.0028 15.1428 10.1092 15.0364C10.3249 14.8291 10.3249 14.4902 10.1092 14.2829L7.69747 11.8515L6.94397 12.6134L9.35573 15.0364C9.46217 15.1428 9.60222 15.1932 9.73388 15.1932ZM7.79551 16.5154L7.17086 17.1428L6.60503 16.5714L7.22968 15.9355C7.23388 15.9313 7.23598 15.9271 7.23808 15.9229C7.24018 15.9187 7.24229 15.9145 7.24649 15.9103L7.82072 16.4958C7.81591 16.5022 7.81111 16.5049 7.80631 16.5077C7.80271 16.5097 7.79911 16.5118 7.79551 16.5154Z" fill="#313235"/>
</svg>
