<svg width="24" height="24" viewBox="0 0 24 24" fill="none" xmlns="http://www.w3.org/2000/svg">
<path fill-rule="evenodd" clip-rule="evenodd" d="M19.2815 5.60785C19.2815 5.60785 19.2871 14.1148 19.2871 18.042C19.2871 21.4678 16.612 21.6863 15.9286 21.6863C15.8277 21.6863 15.7717 21.6834 15.7717 21.6834C15.7717 21.6834 12.0154 21.6863 8.05742 21.6863C4.09945 21.6863 4.53642 18.0476 4.53642 18.0476V5.62746C4.53642 2.19889 7.29272 2.00562 7.91456 2.00562C7.993 2.00562 8.03781 2.00842 8.03781 2.00842C8.03781 2.00842 11.9846 2.00562 15.7885 2.00562C19.5952 2.00282 19.2815 5.60785 19.2815 5.60785ZM6.60925 3.57984C6.39076 3.7143 5.7297 4.12606 5.7297 5.62186V16.7787H18.0994C18.0994 12.5406 18.0938 5.61065 18.0938 5.61065C18.0938 5.57669 18.0963 5.54273 18.0989 5.5065L18.0989 5.50645L18.0994 5.49861C18.0994 5.49861 18.161 4.4846 17.5868 3.84595C17.2199 3.43979 16.6176 3.23251 15.7941 3.23251L8.04342 3.23531C8.02941 3.23531 8.01611 3.23461 8.0028 3.23391C7.98949 3.23321 7.97619 3.23251 7.96218 3.23251H7.92017C7.7409 3.2297 7.12745 3.25491 6.60925 3.57984ZM11.0854 19.2269C11.0854 18.7143 11.3935 18.4061 11.9062 18.4061C12.4188 18.4061 12.7269 18.7143 12.7269 19.2269C12.7269 19.4762 12.6569 19.6779 12.514 19.8235C12.3683 19.9692 12.1583 20.0476 11.9062 20.0476C11.6541 20.0476 11.444 19.9692 11.2983 19.8235C11.1555 19.6779 11.0854 19.4762 11.0854 19.2269Z" fill="#313235"/>
</svg>
