<svg width="24" height="24" viewBox="0 0 24 24" fill="none" xmlns="http://www.w3.org/2000/svg">
<path fill-rule="evenodd" clip-rule="evenodd" d="M21.6862 11.8739C21.6862 11.5377 21.4229 11.2744 21.0868 11.2744V11.2716H19.549C19.2521 5.05035 14.1652 4.14559 12.4454 4.02514V2.62459C12.4454 2.29685 12.1736 2.02515 11.8459 2.02515C11.5098 2.02515 11.2465 2.29685 11.2465 2.62459V3.99993C9.7927 4.04755 4.28851 4.65539 4.0084 11.2716H2.60224C2.27451 11.2716 2.0028 11.5349 2.0028 11.8711C2.0028 12.1988 2.27451 12.4705 2.60224 12.4705H4.0168C4.39495 18.8402 9.73108 19.5265 11.2493 19.5909V21.1119C11.2493 21.4481 11.5126 21.7114 11.8487 21.7114C12.1764 21.7114 12.4482 21.4481 12.4482 21.1119V19.5769C14.1288 19.4733 19.1988 18.633 19.5434 12.4733H21.0868C21.4229 12.4733 21.6862 12.2016 21.6862 11.8739ZM17.2885 11.8767C17.2885 12.2044 17.5602 12.4761 17.8879 12.4761V12.4789H18.3417C18.0224 17.4621 14.1344 18.2772 12.4454 18.3809V17.9159C12.4454 17.5881 12.1736 17.3164 11.8459 17.3164C11.5098 17.3164 11.2465 17.5881 11.2465 17.9159V18.3949C9.64704 18.322 5.56022 17.6274 5.21568 12.4761H5.80111C6.13725 12.4761 6.40055 12.2044 6.40055 11.8767C6.40055 11.5405 6.13725 11.2772 5.80111 11.2772H5.20728C5.46498 5.90189 9.68626 5.25203 11.2465 5.21282V5.82906C11.2465 6.16519 11.5098 6.4285 11.8459 6.4285C12.1736 6.4285 12.4454 6.16519 12.4454 5.82906V5.22962C14.168 5.35847 18.0784 6.22122 18.3501 11.2772H17.8879C17.5602 11.2772 17.2885 11.5405 17.2885 11.8767ZM13.9019 9.68339C13.9019 10.3865 13.7087 10.9243 13.3333 11.2828C12.9664 11.6274 12.4454 11.8038 11.7731 11.8038C11.1008 11.8038 10.5798 11.6274 10.2213 11.2828C9.84592 10.9215 9.65265 10.3865 9.65265 9.68339C9.65265 8.98872 9.84592 8.4509 10.2213 8.09236C10.5826 7.73942 11.1008 7.56575 11.7731 7.56575C12.4454 7.56575 12.9664 7.74222 13.3333 8.09236C13.7115 8.4509 13.9019 8.98872 13.9019 9.68339ZM15.549 15.801V15.0895C15.549 14.4201 15.3333 13.8431 14.9299 13.4257C14.4986 12.9719 13.8515 12.7394 13.0672 12.7394H10.4762C9.69466 12.7394 9.0448 12.9719 8.61343 13.4257C8.21287 13.8431 8.00559 14.4173 8.00559 15.0895V15.801C8.00559 15.9271 8.11763 16.0391 8.24649 16.0391H15.2997C15.4369 16.0391 15.549 15.9299 15.549 15.801Z" fill="#313235"/>
</svg>
