<svg width="24" height="24" viewBox="0 0 24 24" fill="none" xmlns="http://www.w3.org/2000/svg">
<path fill-rule="evenodd" clip-rule="evenodd" d="M11.2493 5.97344C11.2465 6.21994 11.4061 6.43283 11.633 6.51966C11.6891 6.54487 11.7479 6.56448 11.8123 6.56448H11.8151C11.8218 6.56448 11.8267 6.56272 11.8326 6.5606L11.8375 6.55888L11.8467 6.56143C11.8525 6.56316 11.857 6.56448 11.8627 6.56448H11.8655C12.2073 6.56448 12.4818 6.30397 12.4846 5.97905L12.4986 3.43283C12.5014 3.1079 12.2269 2.8446 11.8851 2.8418H11.8823C11.5406 2.8418 11.2661 3.1023 11.2633 3.42723L11.2493 5.97344ZM6.11484 12.3796C5.38655 12.3796 4.82072 12.2003 4.42857 11.839C4.0196 11.4664 3.81512 10.9146 3.81512 10.1947C3.81512 9.47764 4.02241 8.92302 4.42857 8.54767C4.82072 8.18632 5.38935 8.00705 6.11484 8.00705C6.84313 8.00705 7.40895 8.18912 7.80391 8.54767C8.21287 8.92302 8.42016 9.47764 8.42016 10.1947C8.42016 10.9118 8.21287 11.4636 7.80391 11.839C7.40895 12.1975 6.84033 12.3796 6.11484 12.3796ZM8.71707 12.853L11.2521 9.60369C11.3193 9.51965 11.4594 9.56447 11.4594 9.66811V13.4468C11.4594 13.4888 11.4454 13.5252 11.4201 13.5589L10.2549 15.0126C10.2269 15.0463 10.2129 15.0883 10.2129 15.1303V17.0294L10.2577 20.6345C10.2605 20.7717 10.1428 20.8838 9.99998 20.8838H5.58263V17.0098C5.58263 16.6849 5.30532 16.4216 4.96358 16.4216C4.62184 16.4216 4.34453 16.6849 4.34453 17.0098V20.8838H2.33894C2.19328 20.8838 2.07563 20.7717 2.07563 20.6345L2.02521 15.7605C2.02521 15.0659 2.2521 14.472 2.68347 14.0463C3.15406 13.5813 3.85434 13.3348 4.70588 13.3348H7.51259C7.7843 13.3348 8.05041 13.318 8.2857 13.2031C8.42856 13.1359 8.71707 12.853 8.71707 12.853ZM21.7142 15.7661C21.7142 15.0687 21.4874 14.4748 21.056 14.0491C20.5854 13.5841 19.8851 13.3376 19.0308 13.3348H16.2269C15.9552 13.3348 15.6862 13.3152 15.4538 13.2031C15.3137 13.1359 15.0252 12.853 15.0252 12.853L12.4734 9.58408C12.4117 9.50565 12.2829 9.54767 12.2829 9.6457V13.4384C12.2829 13.486 12.2997 13.5337 12.3305 13.5729L13.4902 15.0182C13.5182 15.0519 13.5322 15.0911 13.5322 15.1331V17.0406L13.4902 20.5336C13.4874 20.7269 13.6526 20.8866 13.8571 20.8866H18.0224C18.084 20.8866 18.1288 20.8418 18.1288 20.7857V17.0098C18.1288 16.6849 18.4061 16.4216 18.7479 16.4216C19.0868 16.4216 19.3641 16.6849 19.3641 17.0098V20.7857C19.3641 20.8418 19.4117 20.8866 19.4706 20.8866H21.4033C21.549 20.8866 21.6638 20.7745 21.6638 20.6401L21.7142 15.7661ZM15.9411 11.8418C15.5322 11.4692 15.3221 10.9174 15.3221 10.1975C15.3221 9.48044 15.5294 8.92582 15.9383 8.55327C16.3333 8.19193 16.8991 8.00985 17.6274 8.00985C18.3529 8.00985 18.9215 8.19473 19.3137 8.55327C19.7198 8.92582 19.9271 9.48044 19.9271 10.1975C19.9271 10.9146 19.7198 11.4664 19.3137 11.8418C18.9215 12.2003 18.3557 12.3824 17.6274 12.3824C16.9019 12.3796 16.3333 12.2003 15.9411 11.8418ZM9.18486 7.15271L8.0252 6.03507C7.7843 5.80538 7.7871 5.43283 8.0308 5.20314C8.2717 4.97345 8.66385 4.97625 8.90475 5.20594L10.0644 6.32358C10.3053 6.55327 10.3025 6.92862 10.0616 7.15551C9.94116 7.26756 9.7843 7.32638 9.62744 7.32638C9.62323 7.32638 9.61903 7.32498 9.61483 7.32358C9.61063 7.32218 9.60643 7.32078 9.60223 7.32078C9.59802 7.32078 9.59382 7.32218 9.58962 7.32358C9.58542 7.32498 9.58122 7.32638 9.57702 7.32638C9.51539 7.32638 9.45657 7.30957 9.40055 7.28436C9.31931 7.25635 9.24648 7.21154 9.18486 7.15271ZM13.6863 7.15551C13.7479 7.21434 13.8207 7.25635 13.8963 7.28436C13.9496 7.30957 14.0084 7.32918 14.07 7.32918C14.0742 7.32918 14.0784 7.32778 14.0826 7.32638C14.0868 7.32498 14.091 7.32358 14.0952 7.32358C14.0994 7.32358 14.1036 7.32498 14.1078 7.32638C14.112 7.32778 14.1162 7.32918 14.1204 7.32918C14.2801 7.32918 14.4398 7.27036 14.5602 7.15271L15.7199 6.03507C15.958 5.80257 15.958 5.43283 15.7143 5.20314C15.4706 4.97625 15.0812 4.97625 14.8403 5.20874L13.6806 6.32358C13.4426 6.55327 13.4426 6.92582 13.6863 7.15551Z" fill="#313235"/>
</svg>
