<svg width="24" height="24" viewBox="0 0 24 24" fill="none" xmlns="http://www.w3.org/2000/svg">
<path d="M18.1389 2.1499C17.7747 2.1555 17.4162 2.19192 17.0604 2.25915C16.2481 2.41041 15.6207 2.70172 15.1977 3.12469C14.7719 3.55046 14.4778 4.18912 14.3266 5.01544C14.2649 5.35438 14.2313 5.69892 14.2257 6.04345C14.2201 6.06306 14.2117 6.08267 14.2033 6.09948L6.09688 14.2059C6.08007 14.2143 6.06047 14.2227 6.04086 14.2283C5.68512 14.2339 5.33218 14.2703 4.98484 14.3348C4.16971 14.486 3.54506 14.7773 3.12209 15.2003C2.69632 15.6261 2.40221 16.2647 2.25095 17.0911C2.18652 17.4384 2.15291 17.7913 2.15011 18.1443C2.14731 18.346 2.20053 18.542 2.30137 18.7157C2.46943 18.9958 2.77195 19.1667 3.09688 19.1667C3.28456 19.1667 3.56747 19.1107 3.83638 18.839L4.50585 18.1695L5.19772 18.2675L5.29576 18.9594L4.62909 19.6289C4.51705 19.7381 4.43022 19.867 4.37139 20.0098C4.17531 20.4832 4.3994 21.0266 4.87279 21.2283C5.01565 21.2899 5.16971 21.3207 5.32377 21.3179H5.32937C5.69072 21.3123 6.05206 21.2759 6.405 21.2115C7.22013 21.0602 7.84478 20.7689 8.26775 20.346C8.69351 19.9202 8.98763 19.2815 9.13889 18.4552C9.20052 18.1163 9.23413 17.7717 9.23973 17.4272C9.24533 17.4076 9.25374 17.388 9.26214 17.3712L17.3686 9.26474C17.3854 9.25633 17.405 9.24793 17.4246 9.24233C17.7803 9.23673 18.1333 9.20031 18.4806 9.13589C19.2929 8.98463 19.9204 8.69331 20.3434 8.27034C20.7691 7.84457 21.0632 7.20592 21.2145 6.37959C21.2789 6.03225 21.3125 5.67931 21.3153 5.32637C21.3181 5.12469 21.2649 4.92861 21.1613 4.75494C20.9932 4.47483 20.6907 4.30396 20.3658 4.30396C20.1781 4.30396 19.8952 4.35998 19.6263 4.63169L18.9568 5.30116L18.2649 5.20312L18.1669 4.51124L18.8392 3.84178C18.9512 3.73253 19.038 3.60368 19.0969 3.46082C19.2929 2.98744 19.0688 2.44402 18.5955 2.24234C18.4526 2.18071 18.2985 2.1499 18.1445 2.1527L18.1389 2.1499V2.1499Z" fill="#313235"/>
</svg>
