<svg width="24" height="24" viewBox="0 0 24 24" fill="none" xmlns="http://www.w3.org/2000/svg">
<path fill-rule="evenodd" clip-rule="evenodd" d="M21.8363 9.89156C21.8363 9.7291 21.7466 9.58344 21.6038 9.51061C21.4609 9.44058 21.2901 9.45459 21.1612 9.55263C20.094 10.3678 18.15 10.2725 17.1584 9.89156C16.1976 9.52182 14.5842 8.09605 14.4105 6.9588C14.3853 6.79073 14.2621 6.65628 14.0968 6.61426C13.9371 6.56664 13.7607 6.63387 13.6598 6.76832C13.6374 6.79633 13.2201 7.35935 12.6962 8.19409C11.9063 6.04283 11.0072 4.79073 10.9567 4.72351C10.8643 4.59465 10.7074 4.53023 10.5534 4.55544C10.3993 4.57785 10.2705 4.68709 10.2201 4.83835C9.72426 6.33695 8.28729 7.11846 7.16964 7.50781C6.50858 7.73751 4.56741 7.88036 2.77749 6.84675C2.64864 6.77112 2.48898 6.77112 2.36013 6.84675C2.23128 6.92238 2.15285 7.05964 2.15004 7.2109C2.15004 7.2129 2.15004 7.2155 2.15004 7.21868C2.14977 7.45651 2.14579 10.9701 3.08282 13.4854C4.08001 16.1549 5.63183 17.4714 7.80269 17.4714C8.37972 17.4714 9.00437 17.3789 9.67104 17.1913C10.1976 17.0428 10.6794 16.8775 11.1164 16.6899C11.657 17.5554 12.5254 18.2249 13.7943 18.7123C14.7579 19.0848 15.6234 19.3173 16.4133 19.3173C17.9903 19.3173 19.2621 18.3873 20.4021 15.7683C21.8055 12.5498 21.8363 9.99801 21.8363 9.89156ZM12.5842 10.7655C13.4469 14.5498 12.2593 15.5918 9.44695 16.3789C6.69905 17.1436 4.97917 16.1633 3.86713 13.1885C3.21167 11.4294 3.0464 9.06243 3.00438 7.90837C4.78589 8.69549 6.62342 8.59465 7.44695 8.30893C8.96796 7.77672 10.0688 6.93919 10.6822 5.86076C11.1892 6.7291 12.0548 8.44619 12.5842 10.7655ZM9.17244 11.1157C8.55059 11.1157 8.27048 10.7515 8.18084 10.5946C8.03799 10.3481 7.93435 9.93918 8.25087 9.37896C8.84471 8.32854 9.64863 8.17168 10.0716 8.17168C10.5702 8.17168 10.9511 8.37336 11.1052 8.4658C11.5422 8.70389 11.6626 9.06243 11.6934 9.25851C11.7775 9.76831 11.4694 10.1213 11.3741 10.2165C11.3461 10.2445 11.3153 10.2697 11.2845 10.2949L11.2845 10.2949L11.2845 10.2949L11.2845 10.2949L11.2845 10.2949L11.2845 10.2949L11.2845 10.2949C11.2369 10.3313 10.8055 10.6507 10.2817 10.8607C9.98756 10.9756 9.55899 11.1157 9.17244 11.1157ZM9.17244 10.2725C8.90913 10.2725 8.78028 10.1465 8.97916 9.79632C9.3321 9.17448 9.74107 9.01481 10.0688 9.01481C10.4189 9.01481 10.6794 9.19689 10.6794 9.19689C11.0268 9.37056 10.7775 9.61985 10.7775 9.61985C10.7775 9.61985 10.4049 9.90277 9.96796 10.0764C9.68784 10.1913 9.38532 10.2725 9.17244 10.2725ZM6.98757 11.8467C6.93435 11.8663 6.44415 12.0428 5.90074 12.1044C5.72427 12.1241 5.5534 12.1353 5.39374 12.1353C4.65424 12.1353 4.18645 11.8944 4.00718 11.421C3.92875 11.2193 3.81671 10.6983 4.40494 10.1661C4.90354 9.71789 5.43015 9.491 5.97076 9.491C6.5702 9.491 7.0604 9.78792 7.3237 10.0624C7.58701 10.3089 7.71586 10.6339 7.68225 10.9644C7.63743 11.379 7.34611 11.6703 7.08841 11.8047L6.98757 11.8467ZM5.8055 11.2641C5.66824 11.2809 5.52539 11.2893 5.39374 11.2893C4.90074 11.2893 4.5506 11.1633 4.96516 10.7935C5.35452 10.4434 5.69345 10.3341 5.97076 10.3341C6.44695 10.3341 6.73267 10.6647 6.73267 10.6647C7.00438 10.8916 6.69905 11.054 6.69905 11.054C6.69905 11.054 6.26488 11.2137 5.8055 11.2641ZM11.6766 11.8832C11.8223 11.9196 11.9399 12.0316 11.982 12.1745C11.9932 12.2081 12.2201 13.0204 11.7495 13.8663C11.3573 14.5722 10.6178 15.082 9.55339 15.3817C9.0716 15.5162 8.64303 15.575 8.26208 15.575C6.2739 15.575 5.62077 14.0225 5.60138 13.9764L5.60102 13.9756C5.545 13.8355 5.57021 13.6787 5.65984 13.561C5.75228 13.4434 5.89794 13.379 6.04639 13.4014C9.49457 13.8523 11.2565 12.0232 11.2733 12.0036C11.3797 11.8916 11.531 11.8495 11.6766 11.8832ZM11.0156 13.4574C11.0688 13.3649 11.1052 13.2725 11.1332 13.1829C10.3433 13.7039 8.93154 14.3818 6.92034 14.3145C7.35732 14.6423 8.11082 14.9056 9.3265 14.5694C10.1696 14.3341 10.7383 13.9588 11.0156 13.4574ZM19.7719 12.6927C19.9315 12.9336 19.9483 13.2025 19.8195 13.4378C19.6794 13.6899 19.3909 13.8607 19.052 13.8916C19.024 13.8944 18.9988 13.8944 18.9707 13.8944H18.9623C18.9175 13.8944 18.4974 13.886 18.0688 13.8019L18.0679 13.8017C17.7171 13.7316 16.7914 13.5465 16.7495 12.8776C16.7411 12.7403 16.7663 12.2753 17.4805 12.0596C17.7579 11.9756 18.0268 11.9336 18.2789 11.9336C19.1136 11.9336 19.5954 12.3902 19.7719 12.6927ZM17.2116 17.5694C17.2284 17.5442 17.6066 16.9364 17.3321 16.1913C17.1276 15.6282 16.6178 15.1521 15.8195 14.7767C14.8615 14.3229 14.0604 14.2977 13.4469 14.4546C13.2649 14.97 12.9792 15.393 12.6066 15.7487C15.4077 15.9588 16.4525 17.4882 16.4946 17.5498C16.559 17.6507 16.6738 17.7179 16.8055 17.7375C16.8223 17.7403 16.8391 17.7431 16.8559 17.7431C17.0044 17.7431 17.1416 17.6787 17.2116 17.5694ZM13.6346 10.4826C13.5653 10.4806 13.5086 10.4884 13.4526 10.4962C13.4294 10.4994 13.4063 10.5025 13.3825 10.505C13.3844 10.5134 13.3866 10.5215 13.3887 10.5296C13.3931 10.5458 13.3975 10.562 13.3993 10.5806C13.5562 11.2641 13.6402 11.8635 13.6738 12.4098C14.0996 12.6198 14.5226 12.7543 14.573 12.7683C14.5982 12.7767 14.643 12.7879 14.671 12.7935C14.671 12.7935 14.7495 12.8103 14.8643 12.8187C15.2032 12.8411 15.5142 12.7459 15.7186 12.5638C15.8335 12.4602 16.01 12.2389 15.9371 11.8972C15.8755 11.4238 15.3825 10.589 13.8755 10.4938C13.8027 10.4854 13.7214 10.4826 13.6346 10.4826Z" fill="#313235"/>
</svg>
