<svg width="24" height="24" viewBox="0 0 24 24" fill="none" xmlns="http://www.w3.org/2000/svg">
<path fill-rule="evenodd" clip-rule="evenodd" d="M17.5434 2H19.7814C20.8319 2 21.6862 2.85154 21.6862 3.89916V18.1484C21.6862 19.196 20.8319 20.0476 19.7814 20.0476H17.5265C17.0448 20.0476 16.6302 19.703 16.5378 19.2325C16.4565 18.8123 16.084 18.5098 15.6554 18.5098C15.2268 18.5098 14.8543 18.8123 14.7731 19.2325C14.6806 19.7058 14.2633 20.0476 13.7843 20.0476H12.9635C12.8823 20.2269 12.7647 20.3837 12.591 20.4818L10.8375 21.4649C10.5742 21.6134 10.2829 21.6862 9.98875 21.6862C9.83189 21.6862 9.67222 21.6666 9.51536 21.6218C9.06718 21.4958 8.69463 21.2044 8.46774 20.8011L2.22966 9.73668C2.00277 9.33332 1.94675 8.86273 2.07 8.41735C2.19605 7.97198 2.48737 7.59943 2.89353 7.37254L4.63022 6.40055C5.04198 6.17086 5.55178 6.2745 5.8431 6.64985C6.06999 6.94397 6.48736 7.0308 6.81229 6.84593C7.13722 6.66386 7.28287 6.2633 7.14842 5.91876C6.97755 5.47618 7.15122 4.98599 7.56579 4.7563L9.30248 3.78431C9.41172 3.72269 9.53217 3.68627 9.65262 3.64986C9.77587 2.72269 10.5686 2.0028 11.5322 2.0028H13.7703C14.2745 2.0028 14.6946 2.36695 14.7675 2.86835C14.8319 3.30532 15.2156 3.63585 15.6582 3.63585C16.1036 3.63585 16.4873 3.30532 16.5518 2.86835C16.619 2.36414 17.0392 2 17.5434 2ZM5.28008 10.4482L9.65262 17.9692L9.64701 8.0364L5.28008 10.4482ZM11.7282 6.06162C11.7282 5.83192 11.9131 5.64705 12.1428 5.64705V5.64425H19.2856C19.5153 5.64425 19.7002 5.82912 19.7002 6.05882V16.0336C19.7002 16.2633 19.5153 16.4481 19.2856 16.4481H12.1428C11.9131 16.4481 11.7282 16.2633 11.7282 16.0336V6.06162Z" fill="#313235"/>
</svg>
