<svg width="24" height="24" viewBox="0 0 24 24" fill="none" xmlns="http://www.w3.org/2000/svg">
<path fill-rule="evenodd" clip-rule="evenodd" d="M2.15002 11.9958C2.15002 5.28995 5.77187 2.1499 11.9903 2.1499C18.2088 2.1499 21.8363 5.28995 21.8363 11.9958C21.8363 18.7017 18.2088 21.8361 11.9903 21.8361C5.77187 21.8361 2.15002 18.7017 2.15002 11.9958ZM15.0239 15.909C15.1808 15.909 15.3377 15.8502 15.4581 15.7297C15.699 15.4888 15.699 15.0995 15.4637 14.8586L12.6122 12.0098V8.1639C12.6122 7.82216 12.3377 7.54765 11.9959 7.54765C11.6542 7.54765 11.3797 7.82496 11.3797 8.1639V12.2647C11.3797 12.43 11.4441 12.5869 11.559 12.7017L14.5898 15.7297C14.7102 15.8474 14.8643 15.909 15.0239 15.909Z" fill="#313235"/>
</svg>
