<svg width="24" height="24" viewBox="0 0 24 24" fill="none" xmlns="http://www.w3.org/2000/svg">
<path d="M15.4313 21.7143H15.3165C15.1596 21.7143 15.042 21.6751 14.9691 21.6499C14.6638 21.5294 14.4201 21.3418 14.2128 21.0785C14.014 20.8348 13.7899 20.4454 13.7283 20.3306L13.6526 20.1653C13.5798 20.0028 13.4846 19.7535 13.3361 19.3614C13.0728 18.6667 12.3137 16.6695 11.8403 16.1485C11.3669 16.6695 10.6106 18.6695 10.3473 19.3614C10.2016 19.7479 10.1064 19.9944 10.0336 20.1569L10.0252 20.1961L9.95235 20.3306C9.89072 20.4454 9.66664 20.8348 9.46215 21.0841C9.26327 21.339 9.01958 21.5266 8.74507 21.6359C8.64143 21.6723 8.52378 21.7115 8.37532 21.7115H8.26328C8.10641 21.7115 7.98877 21.6723 7.91594 21.6471C7.61062 21.5266 7.36692 21.339 7.16244 21.0757C7.00278 20.8796 6.83751 20.5995 6.73947 20.4314L6.69465 20.3558C6.07841 19.2409 5.72827 18.4734 5.28849 17.2858C5.01398 16.5547 4.77869 15.8068 4.57421 14.9972C4.53219 14.8376 4.48177 14.6303 4.42575 14.4062L4.39774 14.2914C3.37253 12.5071 2.64704 10.7367 2.23808 9.03087C1.65545 6.5911 2.15965 4.54348 3.65824 3.27178C4.51539 2.53508 5.68065 2.09531 6.93835 2.03088C8.23246 1.96086 9.577 2.28298 10.8123 2.96926C11.1456 3.15693 11.4818 3.34741 11.8431 3.56029C12.2156 3.34461 12.549 3.15413 12.8739 2.97206C14.1092 2.28578 15.4565 1.96086 16.7535 2.03088C18.0084 2.09531 19.1736 2.53508 20.0336 3.27458C21.5294 4.54628 22.0336 6.5911 21.4509 9.03087C21.042 10.7367 20.3137 12.5043 19.2913 14.2914L19.2661 14.3894C19.21 14.6219 19.1596 14.8348 19.112 15.0056C18.9103 15.8012 18.6778 16.5491 18.3977 17.2886C17.9607 18.4706 17.6106 19.2381 17.0084 20.3278L16.9495 20.4286C16.8515 20.5967 16.6862 20.874 16.521 21.0785C16.3221 21.3334 16.0784 21.521 15.8039 21.6303C15.7002 21.6751 15.5798 21.7143 15.4313 21.7143Z" fill="#313235"/>
</svg>
