<svg width="24" height="24" viewBox="0 0 24 24" fill="none" xmlns="http://www.w3.org/2000/svg">
<path fill-rule="evenodd" clip-rule="evenodd" d="M21.0491 11.9349C19.1976 8.13659 15.1808 7.90129 14.9819 7.89289H12.1724L13.1612 6.88729H14.5533C14.8867 6.88729 15.1556 6.61278 15.1556 6.27665V4.62119H21.0995C21.4329 4.62119 21.7018 4.34668 21.7018 4.01055C21.7018 3.67161 21.4329 3.3999 21.0995 3.3999H2.75223C2.4189 3.3999 2.14999 3.67441 2.14999 4.01055C2.14999 4.34948 2.4189 4.62119 2.75223 4.62119H8.6962V6.27665C8.6962 6.53715 8.85586 6.75564 9.07995 6.84527L8.04634 7.89289H2.75223C2.59257 7.89289 2.43851 7.95732 2.32646 8.07216C2.21442 8.18701 2.14999 8.34107 2.14999 8.50353V18.3663C2.14999 18.7052 2.4189 18.9769 2.75223 18.9769H3.75783C3.84187 19.9797 4.53094 20.624 5.56735 20.624C6.60657 20.624 7.29004 19.9825 7.37687 18.9797H7.83346C7.92029 19.9825 8.60656 20.624 9.64298 20.624C10.6794 20.624 11.3657 19.9825 11.4525 18.9825L14.0239 18.9881C14.1136 19.9881 14.797 20.6268 15.8334 20.6268C16.8643 20.6268 17.5477 19.9937 17.6402 19.0021L18.2648 19.0049H18.2816C18.6822 19.0049 19.0743 18.8845 19.4133 18.6604L19.4861 18.61C20.5785 17.8845 23.1247 16.1898 21.0491 11.9349ZM15.0323 13.2542V9.12258C15.5589 9.1674 18.5449 9.55675 19.9707 12.4783C20.1051 12.7528 20.2088 13.0077 20.2984 13.2542H15.0323ZM18.755 17.6324L18.8306 17.5847L18.8376 17.5801C19.3154 17.2616 19.9024 16.8702 20.2676 16.2486H3.35447V17.75H3.99313C4.29285 17.2234 4.84467 16.9125 5.56735 16.9125C6.29004 16.9125 6.84186 17.2262 7.14158 17.7528H8.06875C8.36847 17.2262 8.92029 16.9125 9.64298 16.9125C10.3685 16.9125 10.9203 17.2262 11.22 17.7528L14.2564 17.7584C14.5561 17.229 15.1108 16.9125 15.8362 16.9125C16.5673 16.9125 17.122 17.2346 17.4189 17.7724L18.276 17.778C18.4441 17.8088 18.6093 17.7304 18.755 17.6324ZM15.8362 19.3999C15.3881 19.3999 15.2144 19.2234 15.2144 18.7696C15.2144 18.3158 15.3881 18.1394 15.8362 18.1394C16.2844 18.1394 16.4581 18.3158 16.4581 18.7696C16.4581 19.2234 16.2844 19.3999 15.8362 19.3999ZM9.02393 18.7696C9.02393 19.2234 9.1976 19.3999 9.64578 19.3999C10.094 19.3999 10.2676 19.2234 10.2676 18.7696C10.2676 18.3158 10.094 18.1394 9.64578 18.1394C9.1976 18.1394 9.02393 18.3158 9.02393 18.7696ZM5.57296 19.3999C5.12478 19.3999 4.95111 19.2234 4.95111 18.7696C4.95111 18.3158 5.12478 18.1394 5.57296 18.1394C6.01833 18.1394 6.1948 18.3158 6.1948 18.7696C6.192 19.2234 6.01833 19.3999 5.57296 19.3999ZM5.87268 9.80045H3.35727V13.1842H5.87268V9.80045ZM7.27884 13.187H9.53653V9.80045H7.27884V13.187ZM11.4581 6.88729H10.741L9.75222 7.89289H10.4693L11.4581 6.88729ZM9.90348 5.666H13.9539V4.62119H9.90348V5.666ZM13.2424 13.187H10.9399V9.80045H13.2424V13.187Z" fill="#313235"/>
</svg>
