<svg width="24" height="24" viewBox="0 0 24 24" fill="none" xmlns="http://www.w3.org/2000/svg">
<path d="M21.4874 5.75629L15.3838 2.05882C15.381 2.05602 15.3754 2.05602 15.3726 2.05602C15.3418 2.03922 15.311 2.02801 15.2745 2.01961C15.2521 2.01401 15.2297 2.0056 15.2045 2.0056C15.1961 2.0056 15.1877 2 15.1821 2C15.1681 2 15.1541 2.0056 15.1429 2.0084C15.1065 2.0112 15.0729 2.01961 15.042 2.03081C15.028 2.03641 15.0196 2.04202 15.0056 2.04762C14.9692 2.06443 14.9356 2.08683 14.9048 2.11765L14.888 2.13445C14.8684 2.15686 14.8432 2.17367 14.8292 2.20168C14.8208 2.21849 14.8208 2.23529 14.8124 2.2493C14.8124 2.2521 14.8124 2.2549 14.8096 2.2549C14.7871 2.30812 14.7759 2.36134 14.7787 2.41456C14.7787 4.32212 13.86 5.25209 11.9776 5.25209C10.0925 5.25209 9.17653 4.32492 9.17653 2.41176C9.17653 2.26611 9.1009 2.13165 8.97485 2.05602C8.8488 1.98319 8.69474 1.98319 8.56869 2.05322L2.20457 5.75068C2.0225 5.85432 1.94967 6.08402 2.0365 6.27729L4.01129 10.675C4.0561 10.7759 4.14014 10.8543 4.24098 10.8907C4.34182 10.9299 4.45666 10.9243 4.5519 10.8767L6.16534 10.1036L6.13172 21.2716C6.13172 21.3809 6.17374 21.4873 6.24937 21.5657C6.325 21.6414 6.42864 21.6862 6.53788 21.6862H17.4062C17.5126 21.6862 17.6191 21.6414 17.6919 21.5657C17.7675 21.4873 17.8095 21.3837 17.8095 21.2716L17.7759 10.1092L19.3586 10.8767C19.4594 10.9243 19.577 10.9299 19.6807 10.8907C19.7843 10.8487 19.8684 10.7647 19.9104 10.661L21.6555 6.26049C21.7311 6.07281 21.6611 5.85993 21.4874 5.75629Z" fill="#313235"/>
</svg>
