<svg width="24" height="24" viewBox="0 0 24 24" fill="none" xmlns="http://www.w3.org/2000/svg">
<path fill-rule="evenodd" clip-rule="evenodd" d="M20.2464 10.8964C21.0363 10.8964 21.6778 11.5546 21.6778 12.367V15.2549C21.6778 16.0644 21.0363 16.7227 20.2464 16.7227H20.1596L20.1624 18.3193C20.1624 18.9972 19.9075 19.6358 19.4397 20.1148C18.9719 20.5966 18.3501 20.8599 17.6918 20.8599L4.47897 20.8655C3.73387 20.8599 3.08121 20.5854 2.63304 20.098C2.18766 19.6106 1.97197 18.9524 2.01119 18.1905V5.42302C2.01119 4.74515 2.26889 4.1065 2.73388 3.62751C3.20166 3.14852 3.8207 2.88241 4.48177 2.88241L16.8094 2.01407C16.9887 2.00847 17.14 2.06169 17.2632 2.17934C17.3865 2.29698 17.4537 2.45945 17.4537 2.63312V4.02807C18.14 4.18213 18.6358 4.78157 18.6358 5.49305V6.93562C18.9775 7.06167 19.28 7.25494 19.5209 7.51825C19.9663 8.00564 20.1792 8.6667 20.14 9.43421L20.1428 10.8992H20.2464V10.8964ZM5.03078 4.84599C4.22126 4.84599 3.5658 5.49865 3.53779 6.30817C3.33611 6.07008 3.21847 5.77036 3.21847 5.45663V5.42302C3.21847 5.07568 3.35012 4.75075 3.58821 4.50426C3.82631 4.25776 4.14563 4.12331 4.52378 4.1205L16.2492 3.29418V4.04207L5.03078 4.84599ZM4.73947 6.69472C4.73947 6.70838 4.73635 6.71995 4.73328 6.73134C4.73131 6.73865 4.72936 6.74588 4.72826 6.75355L17.4313 6.75635V5.49025C17.4313 5.34179 17.2996 5.21854 17.14 5.21854L16.8543 5.24095H16.8487L5.07 6.08408C4.86832 6.08688 4.73667 6.21013 4.73667 6.35579V6.69472H4.73947ZM20.4705 15.2521V12.3642C20.4705 12.2381 20.3696 12.1345 20.2464 12.1345H12.2829C11.4425 12.1345 10.7562 12.8376 10.7562 13.7003V13.9132C10.7562 14.7759 11.4397 15.479 12.2829 15.479H20.2464C20.3696 15.4818 20.4705 15.3782 20.4705 15.2521ZM13.4481 13.8908C13.4481 13.339 13.0139 12.8908 12.4761 12.8908C11.9383 12.8908 11.5013 13.339 11.5041 13.8908C11.5041 14.4426 11.9383 14.8908 12.4761 14.8908C13.0139 14.8908 13.4481 14.4426 13.4481 13.8908Z" fill="#313235"/>
</svg>
