<svg width="24" height="24" viewBox="0 0 24 24" fill="none" xmlns="http://www.w3.org/2000/svg">
<path fill-rule="evenodd" clip-rule="evenodd" d="M21.6862 5.9033C21.6862 5.14419 21.0448 4.52515 20.2577 4.52515H3.42857C2.63865 4.52515 2 5.14419 2 5.9033V17.9145C2 18.6736 2.63865 19.2898 3.42857 19.2898H20.2577C21.0448 19.2898 21.6862 18.6708 21.6862 17.9117V5.9033ZM5.18767 6.73243C5.18207 6.4299 4.93277 6.18901 4.63025 6.19461H4.62745C4.32493 6.18901 4.07563 6.4299 4.07002 6.73243C4.07002 7.02934 4.31932 7.27024 4.62745 7.27024C4.93277 7.27584 5.18207 7.03495 5.18767 6.73243ZM20.4818 17.9117C20.4818 18.0321 20.3809 18.1274 20.2577 18.1274H3.42857C3.30532 18.1274 3.20448 18.0293 3.20448 17.9117V8.24783H20.4818V17.9117ZM6.65545 10.3571L9.38374 12.7408C9.50979 12.8501 9.57982 13.0069 9.58262 13.1694C9.58262 13.3347 9.51259 13.4887 9.38934 13.598L6.66106 16.0265C6.54901 16.1274 6.40335 16.1834 6.25209 16.1806C6.08403 16.1806 5.92436 16.1134 5.80952 15.9929C5.59103 15.7688 5.59663 15.4103 5.82072 15.1918C5.82492 15.189 5.82842 15.1855 5.83193 15.182C5.83543 15.1785 5.83893 15.175 5.84313 15.1722L8.08682 13.175L5.84873 11.217C5.61064 11.0125 5.58543 10.6568 5.78711 10.4187C5.78991 10.4145 5.79341 10.411 5.79691 10.4075C5.80041 10.404 5.80391 10.4005 5.80672 10.3963C6.0308 10.1582 6.40615 10.1414 6.65545 10.3571ZM17.3361 12.612C17.6694 12.612 17.9411 12.8725 17.9411 13.1918C17.9411 13.5111 17.6694 13.7716 17.3389 13.7716H10.8711C10.5434 13.7772 10.2745 13.5167 10.2661 13.1918C10.2661 12.8725 10.5378 12.6092 10.8711 12.6092L17.3361 12.612ZM6.30812 6.19461C6.61064 6.18901 6.85993 6.4299 6.86554 6.73243C6.85993 7.03495 6.61064 7.27584 6.30531 7.27024C5.99719 7.27024 5.74789 7.02934 5.74789 6.73243C5.75349 6.4299 6.00279 6.18901 6.30531 6.19461H6.30812ZM8.5434 6.73243C8.5378 6.4299 8.2885 6.18901 7.98598 6.19461H7.98318C7.68066 6.18901 7.43136 6.4299 7.42576 6.73243C7.42576 7.02934 7.67506 7.27024 7.98318 7.27024C8.2885 7.27584 8.5378 7.03495 8.5434 6.73243Z" fill="#313235"/>
</svg>
