<svg width="24" height="24" viewBox="0 0 24 24" fill="none" xmlns="http://www.w3.org/2000/svg">
<path fill-rule="evenodd" clip-rule="evenodd" d="M2.58263 8.66936C2.43978 8.66936 2.29692 8.61614 2.18768 8.50689C1.96919 8.2884 1.96919 7.93266 2.18768 7.71417L2.20448 7.69457C3.46499 6.44247 4.92717 5.45927 6.55182 4.7702C8.2437 4.05311 10.0448 3.68896 11.8992 3.68896C13.7395 3.68896 15.5294 4.04751 17.2157 4.75619C18.8263 5.43406 20.2773 6.40045 21.521 7.62734C21.7423 7.84583 21.7451 8.19877 21.5266 8.42006C21.3081 8.64135 20.9552 8.64415 20.7339 8.42566C19.591 7.29961 18.2605 6.41165 16.7815 5.78981C15.2325 5.13995 13.5882 4.80941 11.8992 4.80941C10.1933 4.80941 8.54342 5.14275 6.9888 5.80101C5.4958 6.43406 4.15126 7.33602 2.9944 8.48728L2.97759 8.50409C2.87115 8.61333 2.72549 8.66936 2.58263 8.66936ZM4.65827 11.5629C4.76751 11.6722 4.91037 11.7282 5.05322 11.7282C5.19888 11.7282 5.34174 11.675 5.45098 11.5629L5.46219 11.5517C6.29132 10.7282 7.2549 10.0783 8.32493 9.62174C9.45378 9.13995 10.6555 8.89625 11.8964 8.89625C13.1205 8.89625 14.3109 9.13434 15.4314 9.60773C16.4902 10.0531 17.4426 10.689 18.2661 11.4957C18.4874 11.7114 18.8431 11.7086 19.0588 11.4873C19.2745 11.266 19.2717 10.9103 19.0504 10.6946C18.1261 9.787 17.0532 9.07552 15.8655 8.57132C14.605 8.04191 13.2717 7.773 11.8964 7.773C10.5042 7.773 9.15406 8.04751 7.88516 8.58812C6.68348 9.10073 5.60224 9.82902 4.67227 10.7562L4.65827 10.7702C4.43978 10.9887 4.43978 11.3444 4.65827 11.5629ZM7.13165 14.6245C7.2409 14.7338 7.38376 14.7898 7.52661 14.7898C7.66947 14.7898 7.81233 14.7366 7.92437 14.6217C8.42857 14.1175 9.01401 13.717 9.66387 13.4369C10.3698 13.1315 11.1176 12.9775 11.8936 12.9775C12.6499 12.9775 13.3866 13.1259 14.0784 13.4201C14.7171 13.689 15.2969 14.0727 15.7983 14.5601C16.0196 14.7758 16.3754 14.7702 16.591 14.5489C16.8067 14.3276 16.8011 13.9719 16.5798 13.7562C15.9776 13.1736 15.2829 12.7114 14.5154 12.3892C13.6835 12.0391 12.8011 11.8598 11.8936 11.8598C10.9664 11.8598 10.0644 12.0447 9.21849 12.4117C8.43698 12.7478 7.7367 13.2268 7.13165 13.8318C6.91317 14.0503 6.91317 14.4061 7.13165 14.6245ZM10.2745 19.5013C10.6555 19.8682 11.1877 20.0531 11.8571 20.0531C12.5266 20.0531 13.0588 19.8682 13.4398 19.5013C13.8347 19.1203 14.0364 18.5713 14.0364 17.8738C14.0364 17.1764 13.8347 16.6273 13.4398 16.2464C13.0588 15.8794 12.5266 15.6946 11.8571 15.6946C11.1877 15.6946 10.6555 15.8794 10.2745 16.2464C9.87955 16.6273 9.67787 17.1764 9.67787 17.8738C9.67787 18.5713 9.87955 19.1203 10.2745 19.5013Z" fill="#313235"/>
</svg>
