<svg width="24" height="24" viewBox="0 0 24 24" fill="none" xmlns="http://www.w3.org/2000/svg">
<path fill-rule="evenodd" clip-rule="evenodd" d="M9.46644 4.48458C9.46644 6.0336 10.3824 6.95796 11.9146 6.95796C13.4496 6.95796 14.3684 6.0336 14.3684 4.48178C14.3684 3.68907 14.1415 3.06442 13.6933 2.63025C13.2619 2.21288 12.6653 2 11.9146 2C11.1639 2 10.5673 2.21288 10.1359 2.63585C9.69052 3.07282 9.46644 3.69467 9.46644 4.48458ZM17.0939 14.7787C17.2703 14.4145 17.2983 13.9999 17.1667 13.6078C17.1667 13.6078 15.6485 9.23806 15.6457 9.24366C15.6205 9.16243 15.5925 9.09521 15.5701 9.05039C15.1219 7.99437 14.0995 7.3109 12.965 7.3109H10.867C9.73814 7.3109 8.71854 7.98597 8.27316 9.02238C8.23675 9.10081 8.21154 9.16243 8.19193 9.22686L6.66533 13.619C6.53368 14.0027 6.56169 14.4201 6.74096 14.7843C6.91743 15.1428 7.21995 15.4117 7.58129 15.535C7.74656 15.5938 7.91462 15.6246 8.08549 15.6246H8.08829L7.92022 16.2548C7.87261 16.4369 7.90902 16.6302 8.02387 16.7786C8.13591 16.9271 8.30958 17.0139 8.49725 17.0139H8.89781L8.91462 20.1596C8.91462 21.0083 9.51405 21.6638 10.3124 21.6834H10.3488C10.6961 21.6918 11.0295 21.5601 11.276 21.3164C11.5589 21.0363 11.7129 20.6274 11.7129 20.1568L11.6961 17.0111H12.1667L12.1527 20.1596C12.1527 21.0279 12.7129 21.6666 13.4832 21.6834H13.5196C14.021 21.6834 14.3292 21.4789 14.5028 21.308C14.7745 21.0363 14.9202 20.6386 14.9202 20.1624L14.937 17.0111H15.3376C15.5224 17.0111 15.6989 16.9243 15.8109 16.7758C15.9258 16.6274 15.9622 16.4341 15.9146 16.252L15.7465 15.6218C15.9146 15.6302 16.0827 15.5994 16.2395 15.535C16.6149 15.4089 16.9174 15.14 17.0939 14.7787Z" fill="#313235"/>
</svg>
