<svg width="24" height="24" viewBox="0 0 24 24" xmlns="http://www.w3.org/2000/svg"><path d="M19.144 11.172l-3.213 3.213c-.03.006-.062 0-.095.011-1.482.474-3.126-.767-4.25-1.89-1.666-1.667-2.26-3.14-1.815-4.508.009-.028.006-.056.011-.08L12.29 5.41c.084-.095.177-.185.27-.272l.173-.168c1.034-1.033 2.076-1.568 3.098-1.585h.056c1.04 0 2.1.535 3.154 1.588 2.09 2.087 2.12 4.118.104 6.2zm.762-7.067c-1.317-1.317-2.723-1.972-4.101-1.944-1.35.025-2.675.68-3.941 1.944l-.154.145c-.124.118-.244.233-.323.328l-6.775 6.779c-.124.106-.241.227-.362.353l-.145.151c-1.267 1.266-1.92 2.591-1.944 3.939-.023 1.4.63 2.778 1.95 4.095 1.299 1.3 2.669 1.95 4.033 1.95 1.274 0 2.543-.566 3.75-1.695.068-.056.127-.118.19-.185l7.93-7.933c2.485-2.56 2.446-5.375-.108-7.927z" fill="#313235" fill-rule="nonzero"/></svg>