<svg width="24" height="24" viewBox="0 0 24 24" fill="none" xmlns="http://www.w3.org/2000/svg">
<path fill-rule="evenodd" clip-rule="evenodd" d="M21.6949 18.1589C21.8686 18.299 21.8966 18.5567 21.7565 18.7304C21.6809 18.8256 21.5633 18.8816 21.4428 18.8816H15.9638C15.9554 19.3914 15.849 20.3018 15.2439 20.9853C14.7369 21.5595 14.0002 21.8452 13.0703 21.8452C12.1375 21.8452 11.4008 21.5595 10.8938 20.9853C10.2804 20.2962 10.1823 19.383 10.1823 18.8844H4.70333C4.47924 18.8844 4.29717 18.7024 4.29717 18.4783C4.29717 18.355 4.35319 18.2374 4.44843 18.1617C4.891 17.792 5.26635 17.3074 5.56047 16.7248C3.3896 16.0833 2.15991 14.3578 2.15991 11.4166C2.15991 7.92084 3.89661 6.13092 6.8882 5.85922C8.40081 2.03288 12.7005 2.15053 13.0675 2.16734C13.3224 2.15053 15.9778 2.03569 17.8994 3.8256C19.1431 4.99367 19.779 6.69115 19.779 8.86762V12.7528C19.7734 12.8144 19.5829 16.4194 21.6949 18.1589ZM5.68372 18.0609H20.4568C18.7818 15.9657 18.9526 12.8704 18.961 12.7248V8.86482C18.961 6.92644 18.4148 5.43344 17.342 4.43064C15.6333 2.8312 13.1235 2.97966 13.0983 2.98807C13.0941 2.98807 13.0899 2.98597 13.0857 2.98386C13.0815 2.98176 13.0773 2.97966 13.0731 2.97966C13.0632 2.97966 13.0563 2.98255 13.0505 2.98494C13.0464 2.98662 13.0429 2.98807 13.0395 2.98807C12.8742 2.97126 9.26075 2.77518 7.79857 5.82C11.272 5.84521 13.3084 7.62672 13.3084 11.4194C13.3084 15.2318 11.2495 17.0133 7.73414 17.0133C7.25235 17.0133 6.80137 16.9797 6.3756 16.9068C6.18232 17.3298 5.95543 17.7248 5.68372 18.0609ZM14.6305 20.4418C15.0647 19.9573 15.1375 19.2682 15.1459 18.8844H11.0002C11.0002 19.271 11.0731 19.9601 11.5073 20.4418C11.8518 20.8284 12.3812 21.0245 13.0703 21.0245C13.7622 21.0245 14.286 20.8284 14.6305 20.4418ZM7.73694 16.1869C4.53806 16.1869 2.97784 14.6267 2.97784 11.4166C2.97784 8.19815 4.54086 6.64073 7.73694 6.64073C10.933 6.64073 12.496 8.20095 12.496 11.4166C12.496 14.6267 10.9358 16.1869 7.73694 16.1869ZM9.45403 13.7024C9.56047 13.7024 9.65851 13.6603 9.73974 13.5791C9.90501 13.4194 9.90501 13.1589 9.73974 13.0077L8.14591 11.4054V9.23737C8.14591 9.00767 7.96664 8.8284 7.73694 8.8284C7.50725 8.8284 7.32798 9.00767 7.32798 9.23737V11.5707C7.32798 11.6799 7.3728 11.7864 7.45123 11.8648L9.15991 13.5791C9.23834 13.6575 9.34479 13.7024 9.45403 13.7024Z" fill="#313235"/>
</svg>
