<svg width="24" height="24" viewBox="0 0 24 24" fill="none" xmlns="http://www.w3.org/2000/svg">
<path fill-rule="evenodd" clip-rule="evenodd" d="M16.8294 7.29156H20.5661C21.2776 7.29156 21.8462 7.86579 21.8462 8.58288V20.5549C21.8462 21.2748 21.2748 21.8462 20.5633 21.8462H3.44002C2.73694 21.8462 2.15991 21.2748 2.15991 20.5549V8.58288C2.15991 7.86579 2.73694 7.29156 3.44002 7.29156H7.17672V6.71734C7.17672 4.21033 9.30277 2.15991 11.9106 2.15991H12.0927C14.7089 2.15991 16.8294 4.21033 16.8294 6.71734V7.29156ZM8.01706 6.71733C8.01706 4.67532 9.76776 3.00305 11.9134 3.00305H12.0955C14.2495 3.00305 15.9918 4.67532 15.9918 6.71733V7.29156H8.01706V6.71733ZM3.43442 8.1347C3.19072 8.1375 2.99465 8.33918 2.99745 8.58288V12.286C4.72294 13.6865 7.52126 14.3196 12.0787 14.3196H12.4036C16.6529 14.2832 19.3168 13.6949 21.0087 12.412V8.57728C21.0058 8.33078 20.807 8.1347 20.5633 8.1347H3.43442ZM21.0087 20.5549C21.0115 20.7986 20.8154 21.0002 20.5689 21.003H3.44002C3.19633 21.003 2.99745 20.8042 2.99745 20.5605V13.3308C4.70613 14.4708 7.1263 15.0367 10.7874 15.1375L10.779 15.1459V16.7565C10.779 17.0087 10.8546 17.2131 11.0059 17.3644C11.1571 17.5073 11.356 17.5829 11.5997 17.5829H12.4036C12.6557 17.5829 12.8574 17.5073 12.9974 17.3644C13.1487 17.2131 13.2243 17.0087 13.2243 16.7565V15.1459C16.8602 15.0535 19.2888 14.5213 21.0059 13.4232C21.0087 13.4232 21.0087 20.5549 21.0087 20.5549ZM11.8182 15.1543L12.3896 15.1459V15.1543L12.3812 16.7397L11.6193 16.7566L11.6025 15.1627L11.8182 15.1543Z" fill="#313235"/>
</svg>
