<svg width="24" height="24" viewBox="0 0 24 24" fill="none" xmlns="http://www.w3.org/2000/svg">
<path fill-rule="evenodd" clip-rule="evenodd" d="M20.4508 12.1359C20.6917 12.1359 20.8878 12.3207 20.8878 12.5532V14.2311C20.8822 14.4664 20.6861 14.6569 20.4508 14.6513C20.2155 14.6569 20.0194 14.4692 20.0138 14.2311V12.9734H18.2547C18.2559 13.0261 18.2579 13.0769 18.2599 13.1278C18.2629 13.2041 18.2659 13.2804 18.2659 13.3627C18.2659 15.0574 18.1175 16.5028 17.6581 17.6485L20.011 18.3347C20.2015 18.3908 20.3304 18.5672 20.3192 18.7577L20.1791 21.2871C20.1623 21.514 19.9718 21.6877 19.7421 21.6849H19.7197C19.4844 21.6765 19.2996 21.4804 19.3052 21.2451V21.2423L19.4284 19.0406L17.2659 18.416C16.4144 19.7857 14.9018 20.556 12.2743 20.556C9.64129 20.556 8.12869 19.7829 7.27715 18.4048L5.07547 19.0434L5.19592 21.2451C5.20432 21.4804 5.02225 21.6765 4.78695 21.6849H4.75894C4.53205 21.6877 4.34157 21.514 4.32477 21.2871L4.18471 18.7577C4.17631 18.5616 4.30516 18.3852 4.49564 18.3347L6.89059 17.6373C6.43401 16.4972 6.28835 15.0546 6.28835 13.3655C6.28835 13.2832 6.29138 13.2069 6.2944 13.1306L6.2944 13.1306C6.29642 13.0797 6.29844 13.0289 6.29956 12.9762H4.54045V14.2339C4.53485 14.4692 4.34157 14.6597 4.10348 14.6541C3.86818 14.6597 3.67211 14.472 3.6665 14.2339V12.556C3.6665 12.3235 3.86258 12.1359 4.10348 12.1359H6.32477C6.42561 10.3487 6.75894 9.06863 7.37799 8.15546L4.49844 7.31513C4.30796 7.26471 4.17911 7.08824 4.18751 6.89216L4.32757 4.36275C4.34157 4.13025 4.56006 3.93978 4.78695 3.96499C5.02785 3.97619 5.21272 4.17507 5.20152 4.40756L5.08107 6.60924L7.9158 7.43557C7.93148 7.43949 7.94579 7.4489 7.95968 7.45803C7.96565 7.46195 7.97154 7.46582 7.97743 7.46919L8.10908 7.35154C7.85698 6.93417 7.71973 6.42437 7.71973 5.78852C7.71973 3.94538 8.75614 3.20588 10.434 2.95378L10.1847 2.71569C10.0194 2.56162 10.0138 2.30112 10.1679 2.13866L10.1847 2.12185C10.3584 1.95938 10.6301 1.95938 10.8038 2.12185L11.5713 2.85854L11.7057 2.85348C11.8938 2.84624 12.0837 2.83894 12.2828 2.83894C12.4446 2.83894 12.5976 2.84399 12.7494 2.84901C12.8236 2.85146 12.8974 2.8539 12.9718 2.85574L13.7393 2.12185C13.913 1.95938 14.1847 1.95938 14.3584 2.12185C14.5292 2.28711 14.5292 2.55042 14.3584 2.71569L14.1119 2.95098C15.8038 3.20028 16.8458 3.93978 16.8458 5.78852C16.8458 6.42717 16.7085 6.93978 16.4508 7.35994C16.4676 7.37534 16.4851 7.39005 16.5026 7.40475L16.5026 7.40476C16.5201 7.41947 16.5377 7.43417 16.5545 7.44958C16.5582 7.44771 16.5616 7.44553 16.565 7.44336C16.5719 7.439 16.5787 7.43464 16.5881 7.43277L19.4256 6.60644L19.3024 4.40476C19.294 4.16947 19.4788 3.97059 19.7141 3.96218H19.7169C19.9466 3.93978 20.1511 4.10784 20.1735 4.33753C20.1735 4.34594 20.1735 4.35154 20.1763 4.35994L20.3164 6.88936C20.3248 7.08543 20.1959 7.2619 20.0082 7.31233L17.1735 8.13866C17.801 9.04902 18.1343 10.3179 18.2295 12.1303L20.4508 12.1359ZM8.59648 5.79132C8.59648 4.39356 9.1651 3.68207 12.2856 3.68207C15.4032 3.68207 15.9746 4.39076 15.9746 5.79132C15.9746 6.2507 15.8906 6.60364 15.7337 6.88655C14.8598 6.42157 13.7337 6.17787 12.2771 6.17787C10.8318 6.17787 9.70852 6.41597 8.83457 6.87815C8.68051 6.59804 8.59648 6.2479 8.59648 5.79132ZM17.3892 13.3655C17.3892 18.1723 16.1483 19.7129 12.2771 19.7129C8.406 19.7129 7.1651 18.1723 7.1651 13.3655C7.1651 10.3627 7.6637 8.71569 8.83177 7.85574C9.59928 7.29272 10.7281 7.01821 12.2771 7.01821C13.815 7.01821 14.9354 7.28711 15.7001 7.84174C16.885 8.69608 17.3892 10.3487 17.3892 13.3655ZM12.6441 9.19188C12.6441 8.95938 12.448 8.77171 12.2071 8.77171C11.9662 8.77171 11.7701 8.95938 11.7701 9.19188V17.2927C11.7757 17.5308 11.9718 17.7185 12.2071 17.7129C12.4452 17.7185 12.6385 17.528 12.6441 17.2927V9.19188Z" fill="#313235"/>
</svg>
