<svg width="24" height="24" viewBox="0 0 24 24" fill="none" xmlns="http://www.w3.org/2000/svg">
<path fill-rule="evenodd" clip-rule="evenodd" d="M21.6863 14.3122C21.6863 11.8837 21.0196 10.0069 19.7059 8.74082C18.8319 7.89768 17.6863 7.34866 16.2913 7.08535C15.9608 6.12737 15.4622 5.31785 14.7899 4.66799C13.5266 3.4523 11.7059 2.83325 9.37255 2.83325C7.04202 2.83325 5.22409 3.4523 3.96639 4.67079C2.66106 5.93689 2 7.81084 2 10.2422C2 12.668 2.66387 14.5391 3.96919 15.7996C4.84034 16.6428 5.9916 17.189 7.38936 17.4495C7.71709 18.4131 8.21569 19.2254 8.88796 19.8725C10.1429 21.0854 11.9608 21.6988 14.2913 21.6988C16.6247 21.6988 18.4454 21.0854 19.7059 19.8725C21.0196 18.612 21.6863 16.7408 21.6863 14.3122ZM4.78431 5.05454C5.79552 4.1974 7.20168 3.73241 8.96919 3.67079V5.46911C7.80672 5.53073 6.86275 5.85006 6.14846 6.42149L4.78431 5.05454ZM4.19888 5.63997C3.35294 6.65678 2.89916 8.06574 2.83754 9.83325H4.63305C4.69188 8.67079 5.0084 7.72681 5.57143 7.00972L4.19888 5.63997ZM7.40336 8.13857C7.63585 7.93689 7.95238 7.81645 8.29132 7.79964C8.61625 7.78003 8.97479 7.86687 9.28852 8.04334C9.3091 8.05363 9.32864 8.06497 9.34776 8.07608L9.34777 8.07609C9.35988 8.08311 9.37182 8.09005 9.38375 8.09656C9.40056 8.08815 9.41667 8.07905 9.43277 8.06995C9.44888 8.06084 9.46498 8.05174 9.48179 8.04334C9.69188 7.92569 9.91877 7.86687 10.1457 7.83325L10.2003 7.82478C10.2947 7.80992 10.3898 7.79494 10.479 7.79964C10.8151 7.81645 11.1317 7.93969 11.3669 8.14138C11.375 8.14785 11.3803 8.15526 11.3855 8.16252C11.3893 8.16783 11.393 8.17306 11.3978 8.17779C11.7731 8.52513 11.9104 9.06855 11.7675 9.68199C11.7431 9.7878 11.7024 9.89508 11.6616 10.0028L11.6616 10.0028L11.6616 10.0028L11.6616 10.0028L11.6616 10.0028L11.6616 10.0028L11.6616 10.0028L11.6616 10.0028L11.6616 10.0028L11.6616 10.0029L11.6616 10.0029L11.6616 10.0029L11.6616 10.0029L11.6615 10.0029L11.6615 10.0029L11.6615 10.0029C11.6462 10.0434 11.6308 10.084 11.6162 10.1246C11.5378 10.3347 11.4454 10.5447 11.3305 10.7604C11.3085 10.802 11.2874 10.8434 11.2664 10.8847C11.2152 10.9851 11.1644 11.085 11.1008 11.1862C11.028 11.2982 10.9608 11.3963 10.8908 11.4915C10.7171 11.7324 10.5434 11.9397 10.2997 12.189L10.29 12.1987L10.29 12.1987C10.2375 12.2515 10.1101 12.3792 10 12.4579C9.92437 12.5111 9.84034 12.5531 9.7535 12.5896C9.69748 12.612 9.63866 12.6344 9.57983 12.6456C9.54342 12.6568 9.4902 12.6624 9.43417 12.668L9.38375 12.6708H9.38095C9.26891 12.6652 9.21569 12.6568 9.16527 12.6456C9.03361 12.6148 8.88796 12.5503 8.7619 12.4607C8.64426 12.3767 8.507 12.2394 8.46779 12.1974C8.31653 12.0405 8.19048 11.9005 8.07563 11.7576C7.93277 11.584 7.80672 11.4047 7.66667 11.1918C7.62584 11.1289 7.59431 11.067 7.56267 11.0048C7.54221 10.9646 7.5217 10.9244 7.4986 10.8837C7.27451 10.4803 7.09244 10.0798 7.0028 9.68759C6.85154 9.04894 7 8.48591 7.40336 8.13857ZM8.37535 8.62317H8.33053C8.17927 8.63157 8.03641 8.68199 7.94118 8.76603C7.71989 8.9565 7.7619 9.30104 7.80672 9.48871C7.84034 9.63157 7.89916 9.78003 7.95798 9.92849C8.06162 10.1918 8.18767 10.4607 8.36134 10.7324C8.37563 10.7549 8.38842 10.7728 8.4019 10.7918L8.41737 10.8136C8.61625 11.1162 8.78431 11.3262 9.06723 11.6148C9.09244 11.6428 9.17647 11.7268 9.2465 11.7772C9.28291 11.8024 9.31933 11.822 9.35574 11.8277L9.38655 11.8305H9.38936C9.44538 11.8192 9.48459 11.8024 9.51821 11.7744C9.58824 11.724 9.67227 11.64 9.69468 11.6148C9.95238 11.3459 10.1176 11.1442 10.2941 10.8865C10.3305 10.8361 10.3641 10.7856 10.4033 10.7268L10.4034 10.7268C10.5294 10.5279 10.6303 10.3347 10.7227 10.1414C10.8263 9.91448 10.9076 9.696 10.9608 9.48031C11.014 9.25062 11.0364 8.93689 10.8263 8.75762C10.7311 8.67359 10.5882 8.62317 10.4342 8.61476C10.4286 8.61476 10.423 8.61546 10.4174 8.61616L10.4174 8.61617L10.4174 8.61617C10.4118 8.61687 10.4062 8.61757 10.4006 8.61757C10.2241 8.61196 10.0504 8.65958 9.88235 8.75482C9.85368 8.77163 9.82466 8.78808 9.79517 8.80481L9.7951 8.80485L9.79503 8.80489L9.79501 8.8049C9.74099 8.83554 9.68539 8.86707 9.62745 8.90328L9.54062 8.9537L9.52941 8.9621C9.52941 8.9621 9.46499 9.00692 9.40336 9.00412C9.34174 9.00412 9.28011 8.96771 9.28011 8.96771L9.27171 8.9649L9.15686 8.90888C9.05322 8.84726 8.96919 8.79964 8.88796 8.75482C8.88582 8.75375 8.88368 8.75309 8.88185 8.75252C8.87889 8.75161 8.87675 8.75095 8.87675 8.74922C8.70868 8.67079 8.53782 8.62317 8.37535 8.62317ZM20.8459 14.7324C20.7815 16.4971 20.3193 17.9005 19.4678 18.9117L18.098 17.5391C18.6639 16.8276 18.9832 15.8893 19.0476 14.7324H20.8459ZM14.7143 20.8585C16.4706 20.794 17.8683 20.3375 18.8796 19.4915L17.5154 18.1246C16.8039 18.6848 15.8683 18.9985 14.7143 19.0601V20.8585ZM14.0553 18.2456C14.0001 18.2409 13.945 18.2361 13.888 18.2338C12.9748 18.1806 12.2325 17.9481 11.6751 17.5335L11.6382 17.5066L11.6382 17.5066L11.6382 17.5066C11.5965 17.4762 11.5543 17.4455 11.5154 17.4131C11.535 17.4075 11.5546 17.4047 11.5742 17.4019L11.5742 17.4019C12.423 17.2226 13.1737 16.9341 13.8235 16.5335C14.1737 16.3178 14.4986 16.0741 14.7871 15.794C15.3725 15.2338 15.8235 14.5447 16.1485 13.7436C16.4846 12.9257 16.6835 11.9873 16.7423 10.9285C16.916 11.0377 17.0812 11.1554 17.2269 11.2954C17.8347 11.8837 18.1625 12.7688 18.2269 13.9033C18.2299 13.9522 18.2345 13.9996 18.239 14.047C18.247 14.13 18.2549 14.2129 18.2549 14.3038C18.2549 14.4088 18.2455 14.5043 18.2359 14.6006L18.2359 14.6007C18.2317 14.6432 18.2275 14.6859 18.2241 14.7296C18.1541 15.8501 17.8319 16.724 17.2269 17.3066C16.6471 17.8641 15.7927 18.1666 14.7143 18.231C14.6637 18.234 14.6141 18.2386 14.5645 18.2431C14.4768 18.251 14.3889 18.259 14.2941 18.259C14.2106 18.259 14.1329 18.2523 14.0553 18.2456L14.0553 18.2456ZM13.888 20.8585V19.0601C12.7367 18.9985 11.7983 18.6848 11.0868 18.1274L9.71709 19.4971C10.7311 20.3431 12.1289 20.7968 13.888 20.8585ZM9.12885 18.9145C8.80392 18.5251 8.53501 18.0769 8.32493 17.5755C8.66387 17.6064 9.0112 17.626 9.36975 17.6232C9.7535 17.6232 10.1204 17.6008 10.4734 17.5671L9.12885 18.9145ZM7.14846 16.5559C7.43137 16.6232 7.72549 16.6764 8.03361 16.7156C8.33613 16.7548 8.64986 16.7772 8.97199 16.7884V14.9901C8.54062 14.9677 8.13445 14.9061 7.7619 14.8136C7.71985 14.8029 7.67696 14.7937 7.63436 14.7847L7.63433 14.7847L7.63429 14.7847C7.56627 14.7702 7.49897 14.7559 7.43697 14.7352C7.29888 14.6907 7.17252 14.6326 7.04482 14.5738L6.96919 14.5391C6.95518 14.5307 6.94118 14.5251 6.92717 14.5195C6.65266 14.3907 6.39776 14.2366 6.17087 14.0573L4.80112 15.4271C5.43417 15.9537 6.21569 16.3347 7.14846 16.5559ZM4.21008 14.8445C3.36134 13.8333 2.90196 12.4299 2.83754 10.6624H4.63305C4.69468 11.822 5.01401 12.7604 5.58263 13.4719L4.21008 14.8445ZM9.10603 6.28497L9.10602 6.28497L9.10601 6.28498C9.06096 6.28877 9.01572 6.29259 8.96919 6.29544C7.88796 6.35706 7.03081 6.65958 6.45098 7.22541C5.84594 7.81364 5.52101 8.6988 5.45658 9.83325C5.45376 9.87841 5.44999 9.92231 5.44623 9.96611L5.44622 9.96613L5.44622 9.96615L5.44622 9.96617L5.44622 9.96618L5.44622 9.9662L5.44622 9.96622L5.44622 9.96624C5.43878 10.0528 5.43137 10.139 5.43137 10.2338C5.43137 10.3301 5.43931 10.4184 5.44725 10.5067C5.45179 10.5572 5.45633 10.6076 5.45938 10.6596C5.51821 11.5812 5.7535 12.3234 6.16807 12.8837C6.18808 12.9106 6.20781 12.9379 6.22757 12.9652C6.29634 13.0604 6.3655 13.1561 6.44818 13.2366C6.5051 13.2884 6.56945 13.3337 6.63404 13.3793L6.63405 13.3793L6.63406 13.3793L6.63406 13.3793L6.63407 13.3793L6.63407 13.3793L6.63408 13.3793L6.63408 13.3793L6.63413 13.3793C6.67441 13.4077 6.71478 13.4362 6.7535 13.4663C6.7702 13.4792 6.78648 13.4923 6.80274 13.5054C6.84651 13.5406 6.89012 13.5757 6.94118 13.6064C7.13445 13.724 7.34734 13.8248 7.57983 13.9061C7.63866 13.9285 7.69468 13.9481 7.7535 13.9649C8.11485 14.0741 8.52661 14.1358 8.96919 14.161C9.01568 14.1638 9.06088 14.1676 9.10589 14.1714L9.10595 14.1714L9.10603 14.1714L9.10606 14.1714C9.19387 14.1789 9.28094 14.1862 9.37535 14.1862C9.40336 14.1862 9.42927 14.1834 9.45518 14.1806C9.48109 14.1778 9.507 14.175 9.53501 14.175C9.59477 14.1731 9.65203 14.1688 9.7093 14.1644C9.73793 14.1622 9.76657 14.16 9.79552 14.1582C9.83646 14.1553 9.87729 14.1526 9.91789 14.1499C10.0717 14.1398 10.2223 14.1299 10.3641 14.1078C10.3792 14.1061 10.3933 14.1024 10.4081 14.0985L10.4081 14.0985L10.4082 14.0985L10.4082 14.0985L10.4082 14.0985L10.4083 14.0985L10.4083 14.0985C10.4182 14.0959 10.4286 14.0932 10.4398 14.091C11.2185 13.9565 11.8487 13.6764 12.3109 13.2338C12.916 12.654 13.2381 11.7772 13.3081 10.6568C13.31 10.6301 13.3124 10.6037 13.3149 10.5772C13.3199 10.5231 13.3249 10.4686 13.3249 10.4103C13.3261 10.3854 13.3281 10.362 13.3301 10.3386C13.3331 10.3039 13.3361 10.2695 13.3361 10.231C13.3361 10.1401 13.3282 10.0571 13.3203 9.97416C13.3157 9.92675 13.3112 9.87934 13.3081 9.83045L13.3039 9.76708C13.2997 9.70353 13.2955 9.63998 13.2913 9.58115C13.2241 8.89488 13.0588 8.30664 12.7787 7.83045C12.6443 7.60356 12.4902 7.39908 12.3081 7.22261C12.2827 7.19721 12.2528 7.17631 12.2235 7.15583C12.2011 7.14017 12.1791 7.12475 12.1597 7.10776C11.5854 6.62317 10.7899 6.35146 9.79552 6.29264C9.74008 6.29042 9.68597 6.28644 9.6316 6.28245H9.6316H9.63159H9.63159H9.63159H9.63158H9.63158H9.63157L9.63156 6.28245C9.54859 6.27636 9.46504 6.27023 9.37535 6.27023C9.28093 6.27023 9.19385 6.27757 9.10603 6.28497ZM9.79552 5.47191V3.67079C11.5602 3.73521 12.9636 4.203 13.9804 5.06294L12.6134 6.42709C11.902 5.85566 10.9552 5.53353 9.79552 5.47191ZM13.9608 15.4187L13.9496 15.4103L12.5938 14.0517C12.5655 14.074 12.5373 14.0967 12.509 14.1195L12.509 14.1195L12.5089 14.1196L12.5089 14.1196L12.5088 14.1197C12.4058 14.2026 12.3019 14.2862 12.1877 14.3543C11.6779 14.654 11.0784 14.8501 10.3922 14.9425C10.2442 14.9621 10.0862 14.9698 9.92846 14.9776H9.92844C9.88309 14.9798 9.83776 14.982 9.79272 14.9845V16.7828C9.81863 16.7819 9.84484 16.7813 9.87095 16.7807L9.87106 16.7807C9.92397 16.7794 9.97647 16.7782 10.0252 16.7744C10.3277 16.7576 10.6162 16.7296 10.8936 16.6876C11.8095 16.5531 12.6106 16.2898 13.2829 15.8977C13.5294 15.7576 13.7479 15.5952 13.9608 15.4187ZM14.549 14.8417L13.4958 13.7856L13.1793 13.4719C13.5014 13.0685 13.7451 12.5924 13.9076 12.0433C14.0308 11.626 14.1036 11.1666 14.1289 10.6652H15.9244C15.8936 11.5391 15.7675 12.3234 15.5406 13.0153C15.4426 13.3206 15.3221 13.6092 15.1849 13.8781C15.0028 14.231 14.7927 14.5531 14.549 14.8417ZM15.3501 6.9565C15.1401 6.46631 14.8796 6.02653 14.563 5.64558L13.2577 6.9537L13.1933 7.01532C13.3697 7.23941 13.521 7.48591 13.6471 7.75202C13.7395 7.9425 13.8235 8.13857 13.888 8.35146C14 8.71 14.07 9.10776 14.1092 9.52793C14.1176 9.62877 14.126 9.72961 14.1317 9.83605H15.9272C15.9272 9.79684 15.9244 9.76042 15.9216 9.72401C15.8908 9.03213 15.8011 8.39628 15.6443 7.81925C15.563 7.51392 15.465 7.22541 15.3501 6.9565ZM16.5322 7.97611C17.4706 8.2058 18.2577 8.59236 18.8964 9.13297L17.5322 10.4971C17.2969 10.3122 17.042 10.1498 16.7591 10.0181C16.7451 9.28423 16.6695 8.60356 16.5322 7.97611ZM20.8459 13.9061C20.7843 12.1414 20.3305 10.7324 19.4818 9.7156L18.112 11.0882C18.6751 11.8024 18.9916 12.7464 19.0504 13.9061H20.8459Z" fill="#313235"/>
</svg>
