<svg width="24" height="24" viewBox="0 0 24 24" fill="none" xmlns="http://www.w3.org/2000/svg">
<path fill-rule="evenodd" clip-rule="evenodd" d="M11.9984 23C4.80498 23 1 19.1982 1 12.0016C1 4.80498 4.80185 1 11.9984 1C15.509 1 18.2305 1.90819 20.0907 3.70263C22.0198 5.56285 23 8.3563 23 12.0016C23.0031 19.195 19.1981 23 11.9984 23ZM11.9984 1.62633C5.11815 1.62633 1.62633 5.11815 1.62633 12.0016C1.62633 18.8819 5.11502 22.3737 11.9984 22.3737C18.885 22.3737 22.3737 18.885 22.3737 12.0016C22.3768 5.11502 18.885 1.62633 11.9984 1.62633ZM10.1069 16.7304C10.1601 16.8024 10.2478 16.8463 10.3418 16.8463C10.4326 16.8463 10.5203 16.8024 10.5767 16.7304L17.4413 7.85836C17.5415 7.72996 17.5164 7.54206 17.388 7.44185C17.2596 7.34164 17.0717 7.36669 16.9715 7.49509L10.3418 16.0602L7.68925 12.5935C7.58904 12.4619 7.40427 12.4369 7.27274 12.5371C7.14121 12.6373 7.11616 12.8221 7.21637 12.9536L10.1069 16.7304Z" fill="#313235"/>
</svg>
