<svg width="24" height="24" viewBox="0 0 24 24" fill="none" xmlns="http://www.w3.org/2000/svg">
<path fill-rule="evenodd" clip-rule="evenodd" d="M21.8462 14.44C21.8462 12.989 20.8014 12.4624 19.905 12.454C19.8519 12.4575 19.8187 12.4577 19.7785 12.4581C19.753 12.4583 19.7246 12.4585 19.6865 12.4596V11.0479C19.6109 8.19072 19.1151 4.36159 15.7594 3.92462C15.7033 3.91621 15.6389 3.90781 15.5829 3.90221L15.4008 3.891C15.0619 3.8686 14.6641 3.8686 14.3812 3.891H12.8378C12.9834 3.71734 13.0703 3.49044 13.0703 3.19072C13.0703 2.85459 12.975 2.59128 12.7874 2.41481C12.6053 2.24675 12.3448 2.15991 12.0143 2.15991C11.6837 2.15991 11.4232 2.24395 11.2439 2.41481C11.0563 2.59128 10.9638 2.85179 10.9638 3.19072C10.9638 3.49044 11.0507 3.71734 11.1963 3.891L9.61369 3.877C9.52994 3.877 9.4462 3.87498 9.3608 3.87292L9.36079 3.87292C9.27196 3.87078 9.18134 3.8686 9.08708 3.8686C5.39801 3.8686 4.45683 6.21033 4.29156 9.77616H2.56327C2.34198 9.77616 2.15991 9.95263 2.15991 10.1711C2.15991 10.3896 2.33918 10.5661 2.56327 10.5661H4.26635L4.26075 11.0563L4.26916 12.4624L4.22575 12.4604C4.18438 12.4584 4.15113 12.4568 4.10669 12.4568H4.10389C3.20753 12.4652 2.16271 12.989 2.16271 14.4428C2.16271 15.8966 3.21313 16.426 4.11229 16.44H4.27476C4.32798 16.4372 4.55487 16.4232 4.67532 16.4092C5.19633 18.468 6.384 20.1991 9.08708 20.1991C9.26916 20.1991 9.44283 20.1907 9.58568 20.1795H14.3532C14.5213 20.1907 14.6921 20.1991 14.8742 20.1991C15.0563 20.1991 15.2299 20.1907 15.3728 20.1795H15.5941C15.6501 20.1795 15.7033 20.1683 15.7509 20.1459C17.8798 19.8742 18.849 18.2692 19.3028 16.3812C19.3276 16.3864 19.3501 16.3919 19.3719 16.3973C19.4092 16.4065 19.4442 16.4151 19.4848 16.4204C19.5885 16.4316 19.6753 16.4372 19.7313 16.4372H19.8938C20.7958 16.4232 21.8462 15.891 21.8462 14.44ZM5.09829 9.77336C5.28316 6.01145 6.35599 4.66131 9.08428 4.66131C9.15616 4.66131 9.185 4.66336 9.24267 4.66746L9.24268 4.66746L9.24268 4.66746L9.27476 4.66972L9.33918 4.67252C9.92182 4.67252 10.4596 4.72294 10.961 4.81257C10.5969 5.02266 10.2664 5.26916 9.96944 5.55207C8.90501 6.56047 8.30277 7.97784 8.16832 9.77336H5.09829ZM18.8826 12.9974V11.0507C18.877 10.8826 18.8686 10.7229 18.8602 10.5633H5.07308L5.06748 11.0591L5.07868 13.003C5.19913 17.4932 6.40081 19.4064 9.08708 19.4064C9.25235 19.4064 9.40641 19.398 9.56047 19.3868H14.384C14.7369 19.4064 15.0423 19.4092 15.3504 19.3868H15.468C15.4932 19.3784 15.5185 19.3728 15.5465 19.37C17.7117 19.1543 18.7706 17.1291 18.8826 12.9974ZM21.0395 14.4428C21.0395 15.4764 20.314 15.6417 19.8826 15.6473L19.7453 15.6501C19.7365 15.6494 19.7266 15.6489 19.7152 15.6483L19.7151 15.6483L19.715 15.6483L19.7149 15.6483L19.7148 15.6483C19.6795 15.6465 19.6295 15.6439 19.5493 15.6333C19.5157 15.6333 19.4932 15.6305 19.4596 15.6193C19.5997 14.7874 19.6557 14.0367 19.6809 13.2495C19.7622 13.2467 19.8154 13.2467 19.8966 13.2467C20.3224 13.2495 21.0395 13.412 21.0395 14.4428ZM13.7678 16.7341C13.6081 16.5801 13.3532 16.5801 13.1963 16.7341C12.8098 17.1123 12.4204 17.3056 12.0423 17.3112C11.6641 17.3 11.2439 17.1235 10.8434 16.7313C10.6837 16.5773 10.4288 16.5773 10.272 16.7313C10.1151 16.8882 10.1151 17.1375 10.272 17.2916C10.821 17.8322 11.4092 18.1039 12.0199 18.1039H12.0535C12.6529 18.0955 13.2299 17.821 13.7678 17.2944C13.9246 17.1375 13.9246 16.8882 13.7678 16.7341ZM12.1431 5.1347C11.5213 5.3728 10.9806 5.69773 10.5353 6.1207C9.6305 6.97784 9.11229 8.20753 8.98624 9.77336H15.3028C15.1739 8.20473 14.6557 6.97784 13.7537 6.1207C13.3084 5.69773 12.7678 5.37 12.1431 5.1347ZM13.3224 4.80977C13.8238 4.72014 14.3616 4.66972 14.9442 4.66972V4.66411H14.9946C15.0462 4.66517 15.0907 4.66503 15.1343 4.6649C15.2067 4.66468 15.2766 4.66447 15.3728 4.66972L15.4456 4.67812L15.4456 4.67812C15.4821 4.68092 15.5185 4.68372 15.5437 4.68652C17.4708 4.8826 18.5213 6.51005 18.8098 9.77056H16.1151C15.9806 7.97504 15.3756 6.55767 14.314 5.54927C14.0143 5.26635 13.6837 5.02266 13.3224 4.80977ZM4.26075 15.6473C4.29437 15.6473 4.43162 15.6389 4.50725 15.6305C4.36719 14.8294 4.30837 14.0087 4.28316 13.2411C4.21313 13.2439 4.17392 13.2439 4.11229 13.2439C3.68652 13.2467 2.96944 13.4092 2.96944 14.44C2.96944 15.4736 3.69493 15.6389 4.1263 15.6445L4.26075 15.6473ZM9.56607 12.1627C9.78736 12.1627 9.96944 12.3392 9.96944 12.5577V14.4092C9.96944 14.6277 9.78736 14.8042 9.56607 14.8042C9.34198 14.8042 9.16271 14.6277 9.16271 14.4092V12.5577C9.16271 12.342 9.34198 12.1627 9.56607 12.1627ZM14.793 12.5577C14.793 12.3392 14.6109 12.1627 14.3896 12.1627C14.1655 12.1627 13.9862 12.342 13.9862 12.5577V14.4092C13.9862 14.6277 14.1655 14.8042 14.3896 14.8042C14.6109 14.8042 14.793 14.6277 14.793 14.4092V12.5577Z" fill="#313235"/>
</svg>
