<svg width="24" height="24" viewBox="0 0 24 24" fill="none" xmlns="http://www.w3.org/2000/svg">
<path d="M11.9814 21.8425C9.07379 21.8425 7.46875 20.3859 7.46875 17.7361V5.43916C7.46875 3.32152 8.75166 2.15625 11.0822 2.15625C13.4099 2.15625 14.6928 3.32152 14.6928 5.44196V16.0918C14.6928 17.6492 13.7124 18.5456 11.9982 18.5456C10.2839 18.5456 9.30348 17.652 9.30348 16.0918V7.11143C9.30348 6.88454 9.50516 6.70247 9.75446 6.70247C10.0038 6.70247 10.2026 6.88734 10.2026 7.11143V16.0918C10.2026 17.2067 10.7741 17.7249 11.9954 17.7249C13.2195 17.7249 13.7881 17.2067 13.7881 16.0918V5.44196C13.7881 3.7837 12.9001 2.97698 11.0766 2.97698C9.25306 2.97698 8.36511 3.7837 8.36511 5.44196V17.7389C8.36511 19.9182 9.58079 21.0246 11.9758 21.0246C14.3707 21.0246 15.5864 19.9182 15.5864 17.7389L15.5752 7.10583C15.5752 6.87894 15.7769 6.69687 16.0234 6.69687H16.0262C16.2755 6.69687 16.4772 6.87894 16.4772 7.10583L16.4912 17.7417C16.494 20.3859 14.8889 21.8425 11.9814 21.8425Z" fill="#313235"/>
</svg>
