<svg width="24" height="24" viewBox="0 0 24 24" fill="none" xmlns="http://www.w3.org/2000/svg">
<path fill-rule="evenodd" clip-rule="evenodd" d="M17.9266 3.6193C18.6829 3.6193 19.372 4.15991 19.372 4.75095V20.7145C19.372 21.328 18.7109 21.8462 17.9294 21.8462H6.05268C5.27117 21.8462 4.61011 21.328 4.61011 20.7145V4.75095C4.61011 4.15991 5.29918 3.6193 6.05268 3.6193H9.20395C9.62131 2.67252 10.5793 2.15991 11.9883 2.15991C13.7053 2.15991 14.4504 2.89941 14.7698 3.6193H17.9266ZM9.77537 4.75095C9.8314 3.52966 10.5345 2.96103 11.9883 2.96103C13.1591 2.96103 13.8482 3.34198 14.1003 4.1235C14.1675 4.35039 14.2039 4.58288 14.2095 4.81818V4.94983C14.1983 5.29437 14.1815 5.76776 11.9911 5.76776C9.80058 5.76776 9.78378 5.29717 9.76977 4.90501L9.77537 4.75095ZM18.5597 4.75095V20.7145C18.5597 20.8238 18.2852 21.0451 17.9266 21.0451H6.04988C5.69414 21.0451 5.41963 20.8266 5.41963 20.7145V4.75095C5.41963 4.67252 5.68014 4.42042 6.04988 4.42042H8.99946C8.9957 4.44522 8.99154 4.46942 8.98741 4.49345C8.97614 4.55896 8.9651 4.62319 8.96305 4.69493L8.95745 4.78736V4.98064C9.00507 6.29997 10.2039 6.57168 11.9883 6.57168C13.7754 6.57168 14.9743 6.29997 15.0191 4.99745L15.0219 4.90501L15.0163 4.71453C15.0143 4.64276 15.0052 4.57383 14.9961 4.5047L14.9961 4.50459C14.9924 4.47663 14.9887 4.44864 14.9855 4.42042H17.9294C18.2964 4.42042 18.5597 4.66972 18.5597 4.75095ZM10.6801 4.69212C10.6829 4.91621 10.865 5.09269 11.0863 5.09269H12.8874C13.1115 5.09269 13.2936 4.91341 13.2936 4.69212C13.2936 4.47084 13.1115 4.29156 12.8874 4.29156H11.0863C10.8622 4.29156 10.6801 4.47084 10.6801 4.69212Z" fill="#313235"/>
</svg>
