<svg width="24" height="24" viewBox="0 0 24 24" fill="none" xmlns="http://www.w3.org/2000/svg">
<path fill-rule="evenodd" clip-rule="evenodd" d="M11.0579 3.3501C11.8786 3.3501 15.9657 3.54619 17.1422 7.30266C18.5568 7.41191 21.8371 8.15424 21.8399 12.5466C21.8399 17.5721 17.5288 17.827 16.666 17.827L14.5679 17.8354L14.5594 19.9223C14.5594 20.2893 14.2821 20.5778 13.9264 20.5778H10.0522C9.70768 20.5778 9.41915 20.2893 9.41915 19.9223V17.869L6.37699 17.8858C4.33768 17.8858 2.1499 16.7345 2.1499 13.5242C2.1499 10.8939 3.60375 9.87141 4.65702 9.47083C4.76627 3.64703 9.99621 3.3501 11.0579 3.3501ZM16.666 16.9754L14.5679 16.9838L14.5763 15.4011H16.2458C16.5007 15.4011 16.7304 15.247 16.8285 15.0005C16.9265 14.7624 16.8789 14.4823 16.7052 14.2946L12.5033 9.80698C12.3801 9.67813 12.2148 9.6109 12.0439 9.6109C11.8702 9.6109 11.7162 9.67813 11.5929 9.80698L7.293 14.3814C7.11092 14.5691 7.0605 14.8492 7.16134 15.0873C7.25939 15.3339 7.48909 15.4963 7.744 15.4963H9.42195V17.0202L6.37979 17.037C5.36014 17.037 2.97627 16.6953 2.97627 13.527C2.97627 11.7454 3.72421 10.6221 5.18926 10.1964C5.36294 10.1459 5.48619 9.97506 5.48619 9.78737L5.47779 9.66692C5.47779 4.59105 9.7553 4.19888 11.0635 4.19888C11.803 4.19888 15.5455 4.37816 16.4335 7.81809C16.4839 8.00578 16.638 8.13183 16.8201 8.13183C18.0862 8.17385 21.0219 8.67808 21.0219 12.5438C21.0163 16.6532 17.6856 16.9754 16.666 16.9754ZM13.7443 17.3676L13.7359 19.7262H10.2399V15.2974C10.2399 14.9333 9.95139 14.6419 9.60684 14.6419H8.1838L12.0411 10.5381L15.8004 14.5495H14.3858C14.0412 14.5495 13.7527 14.8464 13.7527 15.205L13.7443 17.3676Z" fill="#313235"/>
</svg>
