<svg width="24" height="24" viewBox="0 0 24 24" fill="none" xmlns="http://www.w3.org/2000/svg">
<path fill-rule="evenodd" clip-rule="evenodd" d="M21.0779 21.8299C19.4478 21.8299 17.5768 21.071 15.8934 19.7241L15.8318 19.6681C14.4201 18.5368 13.3165 17.1059 12.5715 15.5181C12.5463 16.3414 12.4342 17.1255 12.1682 17.7163C11.5491 19.1024 10.594 19.9901 9.54648 20.1413C9.44564 20.1553 9.33641 20.1665 9.22157 20.1665C8.67539 20.1665 7.96675 19.9677 7.23851 19.2117C5.94447 19.0576 5.36468 18.4528 5.10699 17.9627C4.63084 17.0611 4.8353 15.8065 5.66718 14.5212C6.25538 13.6083 7.53821 12.7151 8.76221 12.0234C8.31406 12.0598 7.85191 12.0822 7.39256 12.0822C6.39823 12.0822 5.4291 11.9814 4.72327 11.6902C3.26398 11.1021 2.33407 10.192 2.17442 9.19514C2.08759 8.65189 2.19122 7.83981 3.15194 6.99973C3.3144 5.76762 3.95021 5.21597 4.46558 4.96955C5.4095 4.5159 6.72874 4.71192 8.07879 5.50439C9.03671 6.06165 9.97502 7.28256 10.7005 8.44467C10.5828 7.09774 10.608 5.5856 11.0506 4.60271C11.6696 3.21378 12.6247 2.3289 13.6723 2.17489C14.2408 2.08808 15.0923 2.18889 15.9774 3.10457C17.2715 3.26139 17.8512 3.86624 18.1089 4.35629C18.5851 5.25797 18.3806 6.51249 17.5487 7.79781C16.9634 8.71069 15.6777 9.60397 14.4565 10.2956C15.8738 10.1864 17.4619 10.2088 18.4955 10.6289C19.9519 11.2197 20.8819 12.1298 21.0415 13.1267C21.1283 13.6699 21.0247 14.482 20.064 15.3221C19.9015 16.5542 19.2657 17.1059 18.7503 17.3523C18.4142 17.5119 18.0333 17.5903 17.6188 17.5903C16.8653 17.5903 16.0054 17.3299 15.1343 16.8174C14.4789 16.4366 13.8375 15.7449 13.2633 14.9749C13.9551 16.5318 15.0139 17.9319 16.3864 19.0324L16.4564 19.0884C18.0305 20.3514 19.7587 21.0458 21.2068 20.9982C21.442 20.9814 21.6325 20.9702 21.7558 21.1438C21.8902 21.3315 21.837 21.5919 21.6353 21.7179C21.5373 21.7795 21.4196 21.8187 21.2992 21.8243C21.2264 21.8271 21.1507 21.8299 21.0779 21.8299ZM13.8039 2.99256C13.0729 3.09897 12.3446 3.82144 11.8516 4.92474C11.2102 6.35287 11.6192 9.38275 11.8937 10.6261C13.1205 10.122 15.9522 8.68549 16.8009 7.36377C17.4619 6.34167 17.658 5.35878 17.3275 4.72872C17.081 4.25828 16.5404 3.98385 15.7225 3.91385L15.5461 3.89705L15.4312 3.76823C14.9607 3.24459 14.4789 2.97856 13.9972 2.97856C13.9327 2.97856 13.8683 2.98136 13.8039 2.99256ZM5.05938 10.9229C3.89979 10.4553 3.14074 9.76079 3.0315 9.06352C2.94747 8.54268 3.22197 8.02183 3.84657 7.51498L3.98102 7.40577L3.99782 7.23775C4.07065 6.45928 4.35915 5.94404 4.85211 5.70881C5.06218 5.608 5.31426 5.5576 5.59156 5.5576C6.17975 5.5576 6.89119 5.78162 7.61943 6.20726C9.0087 7.01653 10.5184 9.71318 11.0478 10.8781C9.73974 11.1469 6.55508 11.5334 5.05938 10.9229ZM11.3587 17.3915C10.8657 18.4948 10.1375 19.2145 9.40643 19.3237C8.85745 19.4021 8.31126 19.1445 7.77909 18.548L7.66425 18.4192L7.48779 18.4052C6.66992 18.3352 6.12934 18.0608 5.88285 17.5903C5.55234 16.9603 5.74841 15.9774 6.40663 14.9553C7.25531 13.6335 10.0899 12.197 11.3139 11.693C11.594 12.9363 12.0001 15.9662 11.3587 17.3915ZM18.1509 11.3933C19.3077 11.8638 20.0668 12.5582 20.1788 13.2527C20.2629 13.7736 19.9884 14.2944 19.3666 14.8013L19.2293 14.9105L19.2125 15.0785C19.1397 15.8569 18.8512 16.3722 18.3554 16.6074C17.6944 16.9238 16.6609 16.7362 15.5881 16.1062C14.2885 15.3529 12.8992 12.9671 12.2914 11.6986C12.29 11.6972 12.2893 11.6958 12.2886 11.6944C12.2879 11.693 12.2872 11.6916 12.2858 11.6902L12.2743 11.6664C12.2353 11.5859 12.1931 11.4988 12.1625 11.4325C13.4734 11.1693 16.6552 10.7801 18.1509 11.3933Z" fill="#313235"/>
</svg>
