<svg width="24" height="24" viewBox="0 0 24 24" fill="none" xmlns="http://www.w3.org/2000/svg">
<path fill-rule="evenodd" clip-rule="evenodd" d="M21.8425 5.87194C21.8425 5.20247 21.2795 4.65625 20.5876 4.65625H3.41115C2.71928 4.65625 2.15625 5.20247 2.15625 5.87194V18.2053C2.15625 18.8747 2.71928 19.421 3.41115 19.421H20.5876C21.2795 19.421 21.8425 18.8747 21.8425 18.2053V5.87194ZM3.41115 5.45177C3.17306 5.45177 2.97698 5.64224 2.97698 5.87194V7.88034H21.0218V5.87194C21.0218 5.63944 20.8285 5.45177 20.5876 5.45177H3.41115ZM20.5876 18.6226C20.8257 18.6226 21.0218 18.435 21.0218 18.2025V8.67306H2.97698V18.2025C2.97698 18.435 3.17026 18.6226 3.41115 18.6226H20.5876ZM6.89575 13.7347L8.90975 15.5386C9.07502 15.6871 9.08622 15.9392 8.93216 16.1016C8.85093 16.1857 8.74168 16.2277 8.62964 16.2277C8.5316 16.2277 8.43076 16.1913 8.34953 16.1212L6.00779 14.0232C5.92376 13.9476 5.87614 13.8411 5.87614 13.7291C5.87614 13.617 5.92656 13.5106 6.01059 13.435L8.35233 11.3733C8.5204 11.2277 8.7809 11.2389 8.93216 11.4013C9.08622 11.5638 9.07222 11.8159 8.90415 11.9644L6.89575 13.7347ZM5.7781 6.72628C5.7781 7.0288 6.033 7.2781 6.34953 7.2781C6.66325 7.2781 6.91815 7.0288 6.91815 6.72628C6.91815 6.41815 6.66605 6.17166 6.34953 6.17166C6.033 6.17166 5.7781 6.42096 5.7781 6.72628ZM8.06101 7.2781C7.74449 7.2781 7.48958 7.0288 7.48958 6.72628C7.48958 6.42096 7.74449 6.17166 8.06101 6.17166C8.37754 6.17166 8.63244 6.41815 8.63244 6.72628C8.63244 7.0288 8.37754 7.2781 8.06101 7.2781ZM4.06381 6.72628C4.06381 7.0288 4.31871 7.2781 4.63524 7.2781C4.95177 7.2781 5.20667 7.0288 5.20667 6.72628C5.20667 6.41815 4.95177 6.17166 4.63524 6.17166C4.31871 6.17166 4.06381 6.42096 4.06381 6.72628ZM15.5988 11.3761L17.9406 13.4378C18.0246 13.5134 18.075 13.617 18.075 13.7319C18.075 13.8439 18.0274 13.9504 17.9434 14.026L15.6016 16.124C15.5232 16.1941 15.4224 16.2305 15.3215 16.2305C15.2095 16.2305 15.1002 16.1885 15.019 16.1044C14.8649 15.942 14.8761 15.6899 15.0414 15.5414L17.0582 13.7347L15.047 11.9672C14.8789 11.8187 14.8649 11.5666 15.019 11.4041C15.1731 11.2417 15.4336 11.2305 15.5988 11.3761ZM13.3019 11.8579C13.3943 11.6562 13.3019 11.421 13.0946 11.3313C12.8873 11.2417 12.6436 11.3313 12.5512 11.5302L10.652 15.6394C10.5596 15.8411 10.652 16.0764 10.8593 16.1661C10.9154 16.1913 10.9714 16.2025 11.0274 16.2025C11.1843 16.2025 11.3355 16.1156 11.4027 15.9672L13.3019 11.8579Z" fill="#313235"/>
</svg>
