<svg width="24" height="24" viewBox="0 0 24 24" fill="none" xmlns="http://www.w3.org/2000/svg">
<path fill-rule="evenodd" clip-rule="evenodd" d="M18.1647 12.3215C17.2403 12.3243 16.3495 12.6801 15.6801 13.3159L13.8005 11.6577C14.3299 11.0274 14.6212 10.2319 14.6296 9.41118C14.6268 9.25992 14.6156 9.11146 14.5876 8.963L17.4112 8.13387C18.0078 9.23751 19.3859 9.64647 20.4868 9.04983C21.4168 8.54563 21.8761 7.4672 21.5932 6.44759C21.2571 5.24031 20.005 4.53162 18.7977 4.86776C17.7865 5.14787 17.0974 6.08905 17.1366 7.13947C17.1338 7.2179 17.1338 7.29353 17.1366 7.37196L14.3523 8.20109C13.6633 6.36636 11.6184 5.43919 9.7837 6.12826C9.23188 6.33555 8.73888 6.67728 8.35233 7.12266L6.5204 5.4812C6.75849 5.13106 6.88734 4.7193 6.88454 4.29633C6.89014 3.11986 5.94056 2.16188 4.76409 2.15627C3.58762 2.15067 2.63524 3.10305 2.62964 4.27952C2.62404 5.45599 3.57362 6.41398 4.75009 6.41958C5.17306 6.42238 5.58482 6.29913 5.93776 6.06384L7.88454 7.7221C7.20107 8.9602 7.33832 10.4896 8.23188 11.5848L6.57642 13.2403C6.09281 12.7703 5.44408 12.5088 4.7697 12.512C3.32712 12.512 2.15625 13.6801 2.15625 15.1199C2.15625 15.8145 2.43356 16.4812 2.92656 16.9714C3.94617 17.991 5.59603 17.9882 6.61563 16.9714C7.10863 16.4784 7.38314 15.8117 7.38034 15.1143C7.38034 14.6941 7.2739 14.2823 7.07222 13.9126L8.85373 12.1647C9.46998 12.6885 10.2487 12.9798 11.0582 12.9938C11.8397 12.9882 12.5988 12.7249 13.2207 12.2487L15.1422 13.907C14.7305 14.5148 14.512 15.2291 14.512 15.963C14.5148 16.498 14.6324 17.0274 14.8593 17.512L12.7893 18.4728C12.103 17.5232 10.7781 17.3103 9.82852 17.9938C9.07782 18.5344 8.76689 19.5008 9.05541 20.3776C9.41675 21.4924 10.6156 22.1003 11.7277 21.7389C12.6044 21.4532 13.1955 20.6353 13.1927 19.7137C13.1899 19.5456 13.1703 19.3804 13.1338 19.2179L15.3047 18.2235C15.991 19.1115 17.0498 19.6297 18.1703 19.6325C20.1983 19.6325 21.8397 17.9882 21.8397 15.9602C21.8397 13.9322 20.1955 12.2907 18.1703 12.2879C18.1731 12.2907 18.1647 12.3215 18.1647 12.3215ZM19.4252 5.64087C20.2319 5.64087 20.8817 6.29633 20.8817 7.10025C20.8817 7.90697 20.2263 8.55683 19.4224 8.55683C18.6156 8.55683 17.9658 7.90137 17.9658 7.09745C17.9658 6.29353 18.6184 5.64087 19.4252 5.64087ZM3.45877 4.29073C3.45877 5.00782 4.0414 5.59325 4.75849 5.59325C4.76129 5.59325 4.76409 5.59325 4.76689 5.59045C5.48118 5.59325 6.06101 5.01342 6.06101 4.29913V4.29353C6.06101 3.57644 5.47838 2.99101 4.76129 2.99101C4.04421 2.99101 3.45877 3.57364 3.45877 4.29073ZM11.0638 21.0414C10.3467 21.047 9.75849 20.4672 9.75289 19.7501C9.74729 19.033 10.3271 18.4448 11.0442 18.4392C11.7613 18.4336 12.3495 19.0134 12.3551 19.7305V19.7473C12.3551 20.4644 11.7781 21.0414 11.0638 21.0414ZM2.97698 15.1591C2.97698 16.1423 3.7753 16.9406 4.75849 16.9406C5.74449 16.9406 6.54 16.1423 6.54 15.1591C6.54 14.1759 5.74168 13.3776 4.75849 13.3776C3.7753 13.3776 2.97698 14.1759 2.97698 15.1591ZM8.30471 9.42238C8.30471 7.90698 9.5316 6.68008 11.047 6.68008C12.5624 6.68008 13.7893 7.90698 13.7893 9.42238C13.7893 10.9378 12.5624 12.1647 11.047 12.1647C9.5344 12.1647 8.30471 10.935 8.30471 9.42238ZM15.3243 15.9938C15.3243 17.5624 16.596 18.8369 18.1647 18.8369C19.7333 18.8369 21.005 17.5652 21.0078 15.9966C21.0078 14.428 19.7361 13.1535 18.1675 13.1535C16.5988 13.1535 15.3243 14.4252 15.3243 15.9938Z" fill="#313235"/>
</svg>
