<svg width="24" height="24" viewBox="0 0 24 24" fill="none" xmlns="http://www.w3.org/2000/svg">
<path fill-rule="evenodd" clip-rule="evenodd" d="M21.598 13.1264V9.31734C21.6007 9.28988 21.6007 9.25967 21.5952 9.22946V6.71938C21.5952 6.39258 21.4607 6.08225 21.2272 5.85431C20.9938 5.62637 20.678 5.4973 20.3512 5.50004H3.53861C2.86028 5.4973 2.30829 6.04106 2.30005 6.71938V17.9543C2.30829 18.6299 2.85479 19.1737 3.53037 19.1737H20.3512C20.6835 19.1737 20.9993 19.0446 21.2355 18.8139C21.4689 18.5805 21.6007 18.2646 21.598 17.9378V13.2143C21.6007 13.1841 21.6007 13.1566 21.598 13.1264ZM3.1047 12.7364V9.72378H20.7961V12.7364H3.1047ZM3.53861 6.30744C3.42327 6.3047 3.31342 6.34864 3.23103 6.42828C3.14864 6.50792 3.10196 6.61502 3.10196 6.73037V8.93012H20.7796V6.73037C20.7796 6.49693 20.5874 6.30744 20.3539 6.30744H3.53861ZM20.667 18.2509C20.5819 18.3306 20.4693 18.3745 20.3539 18.369H3.54136C3.42601 18.3717 3.31616 18.3278 3.23378 18.2482C3.15139 18.1685 3.1047 18.0587 3.1047 17.9461V13.5328H20.7961V17.9461C20.7961 18.0614 20.7494 18.1713 20.667 18.2509Z" fill="#313235"/>
</svg>
