<svg width="24" height="24" viewBox="0 0 24 24" fill="none" xmlns="http://www.w3.org/2000/svg">
<path fill-rule="evenodd" clip-rule="evenodd" d="M21.8425 8.34673L21.8397 8.35793C21.8397 8.36914 21.8341 8.38034 21.8285 8.39154C21.8229 8.44757 21.8033 8.50359 21.7725 8.55401C21.7698 8.55946 21.769 8.56426 21.7684 8.56871C21.7676 8.5734 21.767 8.57771 21.7641 8.58202L12.3355 21.6689C12.3249 21.683 12.3099 21.6938 12.2946 21.7047C12.2856 21.7112 12.2766 21.7176 12.2683 21.7249C12.2515 21.7417 12.2375 21.7557 12.2179 21.7697C12.1506 21.8117 12.0778 21.8397 11.9966 21.8397C11.9182 21.8397 11.8453 21.8117 11.7781 21.7697L11.7781 21.7697C11.7613 21.7557 11.7445 21.7417 11.7277 21.7249C11.7195 21.7167 11.71 21.7096 11.7004 21.7024C11.6868 21.6922 11.6731 21.682 11.6633 21.6689L2.23468 8.58202C2.22991 8.57725 2.22875 8.57158 2.22762 8.56603C2.22675 8.5618 2.2259 8.55764 2.22348 8.55401C2.19266 8.50639 2.17306 8.45037 2.16745 8.39154C2.16635 8.38602 2.16481 8.38093 2.16335 8.37611C2.16111 8.3687 2.15905 8.36191 2.15905 8.35513L2.15625 8.34392C2.15905 8.2795 2.17586 8.21507 2.20667 8.15905C2.20667 8.15345 2.20667 8.14785 2.20947 8.14224L5.526 2.36353C5.5288 2.36073 5.5323 2.35793 5.5358 2.35513C5.5393 2.35233 5.5428 2.34953 5.54561 2.34673C5.58482 2.2823 5.64365 2.23468 5.71087 2.20387C5.71727 2.20067 5.72327 2.19665 5.72932 2.1926C5.73916 2.18602 5.74915 2.17933 5.76129 2.17586C5.78189 2.17024 5.80123 2.16963 5.821 2.16901C5.8308 2.1687 5.84071 2.16838 5.85093 2.16745C5.8569 2.16626 5.86185 2.16405 5.86665 2.1619C5.87312 2.15902 5.87931 2.15625 5.88734 2.15625H18.1114C18.1182 2.15625 18.1249 2.15928 18.1316 2.1623C18.1361 2.16432 18.1406 2.16633 18.145 2.16745C18.1553 2.16838 18.1652 2.1687 18.175 2.16901C18.1947 2.16963 18.2141 2.17024 18.2347 2.17586C18.2468 2.17933 18.2568 2.18601 18.2666 2.1926C18.2727 2.19665 18.2787 2.20067 18.2851 2.20387C18.3523 2.23468 18.4112 2.2851 18.4504 2.34673C18.4524 2.34878 18.4552 2.35046 18.4581 2.35217C18.4631 2.35514 18.4682 2.35821 18.47 2.36353L21.7865 8.14505C21.7878 8.14761 21.7885 8.15077 21.7891 8.15371C21.7899 8.15718 21.7906 8.16034 21.7921 8.16185C21.8257 8.21788 21.8425 8.2823 21.8425 8.34673ZM7.90695 7.45317L6.45597 2.97698H11.2235L7.90695 7.45317ZM16.8061 7.93496L18.2179 3.58482L20.7165 7.93496H16.8061ZM16.54 8.75569H20.6212L13.2067 19.0498L16.54 8.75569ZM10.7893 19.0498L7.45597 8.75569H3.37474L10.7893 19.0498ZM17.5428 2.97698H12.7725L16.0946 7.45317L17.5428 2.97698ZM8.57922 7.93496L8.5813 7.93216H15.4196L11.9994 3.32152L8.5813 7.93216H8.57922V7.93496ZM11.9994 20.089L15.6689 8.75569H8.32992L11.9994 20.089ZM5.7837 3.58202L7.19266 7.93216H3.2823L5.7837 3.58202Z" fill="#313235"/>
</svg>
