<svg width="24" height="24" viewBox="0 0 24 24" fill="none" xmlns="http://www.w3.org/2000/svg">
<path fill-rule="evenodd" clip-rule="evenodd" d="M18.993 3.86931L21.5673 6.47155C21.6989 6.63681 21.7241 6.86651 21.6317 7.05698C21.5421 7.24746 21.3572 7.3651 21.1499 7.3651L20.1247 7.37631C19.993 8.42393 19.4832 10.5892 17.5337 12.2278C21.3236 14.3175 21.3684 18.4379 21.3684 18.4828C21.3684 19.3595 20.6569 20.0766 19.7801 20.0766C18.909 20.0766 18.1975 19.3651 18.1919 18.4912C18.1863 18.1074 17.9902 15.0094 13.909 14.3679C13.8938 14.3871 13.879 14.4068 13.8643 14.4264C13.8274 14.4756 13.7906 14.5248 13.7465 14.5668C13.3012 14.9926 12.6625 15.2082 11.8418 15.2082C11.021 15.2082 10.3824 14.9926 9.93981 14.5668C9.89686 14.5238 9.86138 14.4759 9.8259 14.428C9.80816 14.404 9.79042 14.38 9.77175 14.3567C5.57567 14.9757 5.37959 18.1074 5.37399 18.4968C5.35998 19.3623 4.6485 20.071 3.78575 20.071C2.9034 20.0626 2.19752 19.3511 2.19752 18.4799C2.19752 18.4351 2.24233 14.2783 6.10508 12.1914C4.18631 10.5416 3.68771 8.33149 3.56166 7.3651L2.53085 7.3567C2.32637 7.3567 2.14149 7.23905 2.05186 7.04858C1.96222 6.8609 1.99023 6.63121 2.12469 6.46594L4.72413 3.83289C4.78015 3.75446 4.9062 3.68723 5.04626 3.67043C5.18631 3.65362 5.32637 3.69284 5.43841 3.78247L5.52525 3.87211L8.05466 6.44073C8.21432 6.63401 8.24233 6.86651 8.1527 7.05418C8.06026 7.24466 7.87819 7.3623 7.67091 7.3623L6.75214 7.37071C6.92581 8.30908 7.57006 9.95334 9.9062 10.6788C9.9118 10.6732 9.916 10.6669 9.9202 10.6606C9.92441 10.6543 9.92861 10.648 9.93421 10.6424C10.3768 10.211 11.0182 9.99536 11.8362 9.99536C12.6569 9.99536 13.2984 10.211 13.7409 10.6424C13.7448 10.6463 13.7481 10.6502 13.7517 10.6544C13.7557 10.6592 13.7601 10.6644 13.7661 10.6704C16.1135 9.92813 16.7521 8.24466 16.9258 7.37071L16.0098 7.3623C15.8082 7.3623 15.6233 7.24746 15.5337 7.05698C15.444 6.86931 15.4692 6.63681 15.6009 6.47435L18.1919 3.83569C18.4776 3.6032 18.811 3.64242 18.993 3.86931ZM4.55046 18.4828C4.54485 18.9029 4.20032 19.2475 3.77735 19.2475C3.35998 19.2447 3.01824 18.9001 3.01824 18.4828C3.01824 18.4407 3.10508 14.3763 7.04345 12.6592L7.71292 12.3679L7.11628 11.9449C4.67651 10.2194 4.37679 7.47155 4.34317 6.93933L4.25914 6.55838L3.20592 6.54718L5.10788 4.62001L7.00424 6.54718L5.85018 6.55278L5.88099 6.99256C5.92581 7.6116 6.30116 10.2783 9.46642 11.3819C9.32637 11.7292 9.25074 12.1382 9.25074 12.606C9.25074 12.9673 9.30116 13.2895 9.38519 13.5808C4.77455 14.3791 4.55886 18.0234 4.55046 18.4828ZM19.346 6.93653L19.3712 6.54998L20.4804 6.54718L18.5757 4.62001L16.6849 6.54718L17.7942 6.55838L17.811 6.99536C17.7689 7.6144 17.3936 10.2811 14.2227 11.3847C14.3628 11.7321 14.4412 12.1382 14.4412 12.6088C14.4412 12.9757 14.3908 13.3007 14.304 13.5948C18.7914 14.4211 19.007 18.0262 19.0154 18.4828C19.0182 18.9085 19.3628 19.2531 19.7829 19.2531C20.2059 19.2531 20.5505 18.9085 20.5505 18.4828L20.5502 18.4767C20.5434 18.2976 20.3933 14.3757 16.5953 12.6788L15.9286 12.3791L16.528 11.9617C19.007 10.2363 19.3096 7.47155 19.346 6.93653ZM10.993 14.2503C11.2283 14.3371 11.5112 14.3819 11.8418 14.3819C12.1695 14.3819 12.4496 14.3371 12.6877 14.2531C12.8838 14.183 13.0491 14.0934 13.1779 13.9673C13.3096 13.8385 13.4104 13.6704 13.4832 13.4715C13.5701 13.2307 13.6205 12.9421 13.6205 12.6032C13.6205 12.1998 13.5505 11.8693 13.4244 11.606C13.3572 11.4631 13.2787 11.3371 13.1751 11.2363C13.0351 11.1018 12.853 10.9982 12.6345 10.9281C12.4104 10.8553 12.1471 10.8189 11.8418 10.8189C11.5365 10.8189 11.2731 10.8553 11.0463 10.9281C10.8306 10.9982 10.6541 11.099 10.514 11.2335C10.4104 11.3343 10.332 11.4631 10.2647 11.606C10.1415 11.8693 10.0715 12.1998 10.0715 12.6032C10.0715 12.9421 10.1191 13.2278 10.2059 13.4659C10.2787 13.6676 10.3768 13.8385 10.5112 13.9673C10.6373 14.0906 10.8026 14.183 10.993 14.2503Z" fill="#313235"/>
</svg>
