<svg width="24" height="24" viewBox="0 0 24 24" fill="none" xmlns="http://www.w3.org/2000/svg">
<path fill-rule="evenodd" clip-rule="evenodd" d="M8.23954 2.15002C8.55887 2.15002 8.81937 2.40773 8.81937 2.72706V8.23966C8.81377 8.55619 8.55887 8.81389 8.24234 8.81949H2.72973C2.41041 8.81949 2.1499 8.56179 2.1499 8.24246C2.1499 7.92313 2.41041 7.66263 2.72973 7.66263H7.66251V2.72986C7.66251 2.40773 7.92021 2.15002 8.23954 2.15002ZM8.81937 15.7439C8.81937 15.4245 8.55887 15.1668 8.23954 15.1668C8.23954 15.1668 2.72973 15.1668 2.72973 15.164C2.41041 15.164 2.1499 15.4217 2.1499 15.7439C2.1499 16.066 2.41041 16.3237 2.72973 16.3237H7.65971V21.2565C7.65971 21.5758 7.92021 21.8363 8.23954 21.8363C8.55887 21.8363 8.81937 21.5758 8.81937 21.2565V15.7439ZM21.8362 15.7467C21.8362 15.4273 21.5757 15.1668 21.2563 15.1668H15.7409C15.4216 15.1668 15.1639 15.4273 15.1639 15.7467V21.2593C15.1639 21.5786 15.4244 21.8391 15.7437 21.8391C16.0631 21.8391 16.3236 21.5786 16.3236 21.2593V16.3265H21.2563C21.5757 16.3265 21.8362 16.066 21.8362 15.7467ZM15.1667 8.24246C15.1667 8.56179 15.4272 8.81949 15.7465 8.81949V8.82229H21.2563C21.5757 8.82229 21.8362 8.56179 21.8362 8.24246C21.8362 7.92313 21.5757 7.66263 21.2563 7.66263H16.3236V2.72986C16.3236 2.41053 16.0659 2.15002 15.7465 2.15002C15.4272 2.15002 15.1667 2.41053 15.1667 2.72986V8.24246Z" fill="#313235"/>
</svg>
