<svg width="24" height="24" viewBox="0 0 24 24" fill="none" xmlns="http://www.w3.org/2000/svg">
<path fill-rule="evenodd" clip-rule="evenodd" d="M6.96251 2.15991H14.7272C15.5087 2.15991 15.8505 2.89941 15.9933 3.21313C16.1349 3.5129 16.6202 4.50022 17.185 5.64916L17.2006 5.68092C18.1194 7.54647 19.2622 9.8686 19.9401 11.314C20.3407 12.1627 20.181 13.0507 19.5339 13.5689C19.2062 13.8322 18.8085 13.9638 18.4051 13.9638C17.9849 13.9638 17.5592 13.821 17.2006 13.5353C16.8365 13.2439 16.5339 12.8406 16.195 12.2664V19.6277C16.195 19.6347 16.1943 19.6424 16.1936 19.6501C16.1929 19.6578 16.1922 19.6655 16.1922 19.6725C16.1054 21.0143 15.3323 21.7846 14.069 21.7846C12.7552 21.7846 11.9401 20.9582 11.9401 19.6277V16.7341C11.7356 16.793 11.5059 16.8238 11.2594 16.8238C10.2594 16.8238 9.56195 16.3224 9.32106 15.4764C9.08856 15.5521 8.82806 15.5941 8.54515 15.5941C7.54235 15.5941 6.84207 15.0871 6.60397 14.2327C6.37148 14.3084 6.11377 14.3504 5.83086 14.3504C4.57876 14.3504 3.80005 13.5633 3.80005 12.2944V5.31677C3.80005 4.35039 4.06896 3.57728 4.60677 3.02546C5.14459 2.46804 5.98212 2.15991 6.96251 2.15991ZM15.2594 3.56607C15.0662 3.14311 14.9149 2.98064 14.7272 2.98064L6.95691 2.97784C6.19501 2.97784 5.56475 3.19633 5.181 3.59409C4.79725 3.98904 4.60397 4.56888 4.60397 5.31677V12.2916C4.60397 13.1123 5.01293 13.5297 5.82246 13.5297C5.99893 13.5325 6.1726 13.5073 6.34067 13.454C6.55075 13.384 6.78044 13.4064 6.97652 13.5101C7.1726 13.6165 7.31826 13.7958 7.37708 14.0115C7.51714 14.5185 7.90649 14.7762 8.53674 14.7762C8.71321 14.779 8.88968 14.7537 9.05775 14.7005C9.26784 14.6305 9.49753 14.6501 9.69361 14.7537C9.88968 14.8602 10.0325 15.0395 10.0942 15.2523C10.237 15.7537 10.6264 16.0087 11.2538 16.0087C11.4107 16.0115 11.5648 15.9918 11.716 15.9526C11.9597 15.8826 12.223 15.933 12.4247 16.0871C12.6264 16.2411 12.744 16.482 12.744 16.7397V19.6333C12.744 20.5073 13.2006 20.9694 14.0634 20.9694C14.59 20.9694 15.3014 20.8294 15.3771 19.6221V12.2692C15.3771 11.9022 15.6208 11.5773 15.9737 11.4792C16.3267 11.384 16.702 11.5353 16.8869 11.8518C17.1978 12.3784 17.4415 12.6893 17.6992 12.8966C17.9037 13.0619 18.1558 13.1515 18.4023 13.1515C18.6348 13.1515 18.8505 13.0759 19.0269 12.933C19.3743 12.6557 19.4415 12.1711 19.2062 11.6697C18.5311 10.2355 17.3911 7.91621 16.4751 6.05347C15.9009 4.8882 15.4051 3.8798 15.2594 3.56607Z" fill="#313235"/>
</svg>
