<svg width="24" height="24" viewBox="0 0 24 24" fill="none" xmlns="http://www.w3.org/2000/svg">
<path fill-rule="evenodd" clip-rule="evenodd" d="M12.0092 21.7921H12.0092H12.0288H12.0289C12.0765 21.7921 12.1185 21.7921 12.1577 21.7893H12.1717C12.2949 21.7809 12.4182 21.7641 12.5386 21.7361C12.9728 21.638 13.3846 21.4532 13.7459 21.1899C14.1045 20.935 14.5723 20.4924 14.8888 20.1647C14.893 20.1591 14.8972 20.1542 14.9014 20.1493C14.9056 20.1444 14.9098 20.1394 14.914 20.1338C16.5162 18.4784 17.4602 17.2963 18.6395 15.4644C20.1213 13.1619 21.1381 10.8817 21.6619 8.68567C22.2109 6.37194 21.7711 4.46158 20.421 3.30471C19.6339 2.63245 18.5611 2.22628 17.393 2.16746C16.1521 2.10583 14.8608 2.42236 13.6647 3.08903C13.2389 3.32432 12.802 3.57362 12.3286 3.85653C12.1409 3.96018 11.9112 3.95738 11.7235 3.85373C11.2473 3.57362 10.8132 3.32152 10.3902 3.08903C9.19131 2.42236 7.90279 2.10583 6.66189 2.16746C5.49383 2.22908 4.4182 2.63245 3.63388 3.30752C2.28094 4.46438 1.84117 6.37474 2.39019 8.68567C2.91399 10.8845 3.9308 13.1675 5.4154 15.4644C6.60027 17.3075 7.54705 18.4924 9.1689 20.1647C9.48822 20.4924 9.95321 20.9322 10.3118 21.1899C10.6731 21.4532 11.0849 21.638 11.519 21.7361C11.6395 21.7641 11.7627 21.7837 11.886 21.7893H11.9C11.9336 21.7921 11.97 21.7921 12.0092 21.7921ZM6.68991 2.73048C6.78514 2.72488 6.88038 2.72208 6.97562 2.72208C8.02324 2.72208 9.10447 3.0162 10.1157 3.57922C10.533 3.81172 10.9644 4.05822 11.435 4.33833L11.4378 4.34113C11.7963 4.54561 12.2417 4.54841 12.6031 4.34393L12.6087 4.34113C13.0793 4.06102 13.5134 3.81172 13.9336 3.57922C15.04 2.96578 16.2249 2.67166 17.3622 2.73048C18.407 2.78371 19.3622 3.13945 20.0541 3.73329C20.6535 4.24589 21.0484 4.92936 21.2249 5.7613C21.3986 6.57922 21.3622 7.5204 21.1157 8.55682C20.6059 10.6913 19.6143 12.9126 18.1661 15.1619C16.9868 16.991 16.0933 18.1114 14.4798 19.7753C14.4714 19.7837 14.463 19.7921 14.4546 19.8033C14.1549 20.1114 13.7319 20.5064 13.4154 20.7361C13.1157 20.9518 12.7767 21.1058 12.4154 21.1871L12.407 21.1899C12.3174 21.2123 12.2249 21.2235 12.1325 21.2291H12.1213C12.0933 21.2319 12.0625 21.2319 12.026 21.2319H12.0232C12.0034 21.2319 11.9843 21.231 11.967 21.2303C11.9526 21.2297 11.9395 21.2291 11.928 21.2291H11.9196C11.8272 21.2235 11.7347 21.2123 11.6451 21.1899L11.6367 21.1871C11.2753 21.1086 10.9364 20.9546 10.6367 20.7361C10.309 20.5008 9.86918 20.0862 9.56946 19.7753C7.95881 18.1114 7.06245 16.991 5.88598 15.1619C4.44061 12.9154 3.44901 10.6941 2.9392 8.55682C2.69271 7.5204 2.65629 6.57922 2.82996 5.7613C3.00643 4.92936 3.39859 4.24589 3.99803 3.73329C4.68991 3.13945 5.64789 2.78371 6.68991 2.73048Z" fill="#313235"/>
</svg>
