<svg width="24" height="24" viewBox="0 0 24 24" fill="none" xmlns="http://www.w3.org/2000/svg">
<path fill-rule="evenodd" clip-rule="evenodd" d="M20.9442 3.07028C21.5521 3.68652 21.8462 4.54927 21.8462 5.72294V18.2832C21.8462 19.4652 21.5521 20.3448 20.9358 20.9498C20.328 21.5577 19.4596 21.8462 18.286 21.8462H12.0115C10.8378 21.8462 9.97784 21.5577 9.36159 20.9498C8.82098 20.4092 8.52406 19.6613 8.46804 18.6753L8.45963 18.1263C8.3532 18.1347 8.25517 18.1347 8.14874 18.1347H8.14871C4.36719 18.1347 2.15991 16.2215 2.15991 12.1431C2.15991 8.05347 4.36719 6.1403 8.14871 6.1403C8.24675 6.1403 8.35319 6.1403 8.45123 6.14871V5.72294C8.45123 4.57448 8.74535 3.71173 9.36159 3.08708C9.97784 2.46243 10.8462 2.15991 12.0115 2.15991H18.286C19.468 2.15991 20.3364 2.45403 20.9442 3.07028ZM21.0255 5.72294V18.2832C21.0255 19.2355 20.8126 19.9162 20.3616 20.37C19.9106 20.8154 19.2383 21.0283 18.286 21.0283H12.0115C11.0675 21.0283 10.3868 20.8126 9.94423 20.37C9.54927 19.975 9.32798 19.4092 9.28036 18.6529V18.0703C12.3644 17.7173 14.1375 15.7958 14.1375 12.1431C14.1375 8.48204 12.3644 6.56047 9.27196 6.20753V5.72294C9.27196 4.79577 9.49325 4.1207 9.94423 3.66972C10.3952 3.20193 11.0759 2.98064 12.0115 2.98064H18.286C19.2383 2.98064 19.919 3.20193 20.3616 3.65291C20.8126 4.09829 21.0255 4.77896 21.0255 5.72294ZM13.3168 12.1431C13.3168 15.6221 11.6249 17.314 8.14871 17.314C4.66972 17.314 2.98064 15.6249 2.98064 12.1431C2.98064 8.66131 4.66972 6.96103 8.14871 6.96103C11.6249 6.96103 13.3168 8.66411 13.3168 12.1431ZM16.2103 18.1347C16.2103 17.4624 15.8154 17.0675 15.1515 17.0675C14.4876 17.0675 14.0871 17.4624 14.0843 18.1347C14.0843 18.4568 14.1851 18.7201 14.3644 18.9078C14.5521 19.1039 14.8238 19.2019 15.1515 19.2019C15.4792 19.2019 15.7509 19.1039 15.9386 18.9078C16.1207 18.7173 16.2103 18.454 16.2103 18.1347ZM6.33638 9.40641C6.56327 9.40641 6.74535 9.59128 6.74535 9.81537V14.6277C6.74535 14.8546 6.56047 15.0367 6.33638 15.0367C6.11229 15.0367 5.92742 14.8518 5.92742 14.6277V9.81818C5.92742 9.59128 6.11229 9.40641 6.33638 9.40641ZM10.2327 9.80137C10.2327 9.57448 10.0507 9.3896 9.82378 9.3896C9.59689 9.39241 9.41481 9.57448 9.41481 9.80137V14.6109C9.41481 14.835 9.59689 15.0199 9.82378 15.0199C10.0479 15.0199 10.2327 14.8378 10.2327 14.6109V9.80137Z" fill="#313235"/>
</svg>
