<svg width="24" height="24" viewBox="0 0 24 24" fill="none" xmlns="http://www.w3.org/2000/svg">
<path fill-rule="evenodd" clip-rule="evenodd" d="M20.9445 3.08428C21.5523 3.69213 21.8464 4.56047 21.8464 5.73414V18.2916C21.8464 19.4736 21.5523 20.342 20.9361 20.9498C20.3282 21.5577 19.4599 21.8546 18.2862 21.8546H12.0117C10.838 21.8546 9.97808 21.5577 9.36184 20.9526C8.82122 20.4204 8.5243 19.6725 8.45988 18.6865V18.1291C8.40668 18.1291 8.35558 18.1312 8.30448 18.1333L8.30441 18.1333C8.25329 18.1354 8.20217 18.1375 8.14895 18.1375C4.36744 18.1347 2.16016 16.2299 2.16016 12.1431C2.16016 8.06467 4.36744 6.15151 8.14895 6.15151C8.20327 6.15151 8.25539 6.1537 8.30645 6.15584C8.35545 6.1579 8.40346 6.15991 8.45147 6.15991V5.73134C8.45147 4.57448 8.74559 3.71173 9.36184 3.09549C9.97808 2.47364 10.8464 2.15991 12.0117 2.15991H18.2862C19.4683 2.16551 20.3366 2.46804 20.9445 3.08428ZM21.0257 5.73414V18.2916C21.0257 19.2411 20.8128 19.9218 20.3618 20.3644C19.9109 20.8182 19.2386 21.0311 18.2862 21.0311H12.0117C11.0677 21.0311 10.387 20.8154 9.94447 20.3644C9.54111 19.9806 9.32822 19.4036 9.2806 18.6501V18.0675C12.3646 17.7061 14.1377 15.793 14.1377 12.1431C14.1377 8.49325 12.3646 6.58008 9.2722 6.21874V5.73414C9.2722 4.80697 9.49349 4.1347 9.94447 3.67532C10.3955 3.21593 11.0761 2.98624 12.0117 2.98624H18.2862C19.2386 2.98624 19.9109 3.20753 20.3618 3.65851C20.8128 4.10949 21.0257 4.79016 21.0257 5.73414ZM13.317 12.1431C13.317 15.6221 11.6251 17.314 8.14895 17.314C4.66996 17.314 2.98088 15.6221 2.98088 12.1431C2.98088 8.66411 4.66996 6.97224 8.14895 6.97224C11.6251 6.97224 13.317 8.66411 13.317 12.1431ZM10.3254 12.1459L6.80161 14.1823V10.1095L10.3254 12.1459ZM11.3534 11.7902C11.5495 11.905 11.6167 12.1543 11.5019 12.3504C11.4655 12.412 11.4151 12.4624 11.3534 12.4988L6.59713 15.2467C6.47108 15.3196 6.31422 15.3196 6.18817 15.2467C6.06212 15.1739 5.98369 15.0395 5.98369 14.891V9.40081C5.98369 9.17392 6.16856 8.99184 6.39265 8.99184C6.46548 8.99184 6.53551 9.01145 6.59713 9.04787C6.59713 9.04507 11.3534 11.7902 11.3534 11.7902ZM14.0873 18.1347C14.0873 18.4624 14.1798 18.7229 14.3646 18.9106C14.5523 19.1039 14.824 19.2047 15.1518 19.2019C15.4795 19.2019 15.7512 19.1011 15.9389 18.9106C16.1237 18.7229 16.2162 18.4624 16.2162 18.1347C16.2162 17.468 15.8184 17.0675 15.1518 17.0675C14.4851 17.0675 14.0873 17.4652 14.0873 18.1347Z" fill="#313235"/>
</svg>
