<svg width="24" height="24" viewBox="0 0 24 24" fill="none" xmlns="http://www.w3.org/2000/svg">
<path fill-rule="evenodd" clip-rule="evenodd" d="M11.9938 21.8341C5.55961 21.8341 2.15625 18.4336 2.15625 11.9994C2.15625 5.56521 5.55961 2.15625 11.9938 2.15625C15.1338 2.15625 17.568 2.96858 19.2319 4.57362C20.9574 6.23748 21.8341 8.73608 21.8341 11.9966C21.8341 18.4336 18.4308 21.8341 11.9938 21.8341ZM11.9938 2.71647C9.00499 2.71647 6.69967 3.47838 5.14505 4.97698C3.5344 6.5316 2.71647 8.89294 2.71647 11.9966C2.71647 14.2172 3.13521 16.0593 3.96343 17.4962C3.97424 17.4789 3.98715 17.4626 4.00219 17.4476L4.00779 17.442L7.33272 14.1591C7.44196 14.0498 7.62124 14.0526 7.72768 14.1619L8.19266 14.6324C8.94418 13.2435 9.78696 11.0609 9.97899 8.07067C9.74124 8.02096 9.53683 7.90925 9.36914 7.73328C9.14224 7.49519 9.0218 7.17306 9.0218 6.7837C9.0218 6.39435 9.13944 6.07222 9.36914 5.83412C9.59883 5.59603 9.90695 5.46717 10.2739 5.46717C10.6408 5.46717 10.9434 5.59042 11.1787 5.83412C11.414 6.07782 11.526 6.39435 11.526 6.7837C11.526 7.17306 11.4084 7.49519 11.1787 7.73328C11.0065 7.91172 10.7888 8.0288 10.5372 8.07627C10.3495 11.0642 9.52771 13.2813 8.7697 14.7333L14.8105 8.77027C14.6668 8.56209 14.5982 8.33089 14.6044 8.07782C14.6128 7.74729 14.7585 7.43916 15.0386 7.16465C15.3187 6.89014 15.6268 6.74448 15.9602 6.73608C16.2991 6.72768 16.6016 6.85093 16.8621 7.10863C17.1226 7.36633 17.2487 7.66605 17.2403 8.00499C17.2319 8.33552 17.0834 8.64364 16.8061 8.91815C16.5288 9.19266 16.2179 9.33832 15.8845 9.34673H15.8481C15.617 9.34673 15.4043 9.28437 15.2111 9.15967L9.25709 15.0414C10.7059 14.3031 12.8726 13.5236 15.7652 13.3377C15.8074 13.0738 15.9242 12.8495 16.1142 12.6661C16.3579 12.4308 16.6745 12.3187 17.0638 12.3187C17.4532 12.3187 17.7753 12.4364 18.0134 12.6661C18.2515 12.8957 18.3803 13.2039 18.3803 13.5708C18.3803 13.9378 18.2571 14.2403 18.0134 14.4756C17.7697 14.7109 17.456 14.8229 17.0638 14.8229C16.6717 14.8229 16.3523 14.7053 16.1142 14.4756C15.945 14.3123 15.8352 14.1179 15.7828 13.8924C12.7984 14.0871 10.623 14.9304 9.23468 15.6829L9.72488 16.1787C9.83412 16.2879 9.83132 16.4672 9.72208 16.5736L6.32882 19.9282C7.79001 20.8223 9.68861 21.2739 11.9938 21.2739C14.9826 21.2739 17.2879 20.5148 18.8453 19.0162C20.4588 17.4616 21.2767 15.1002 21.2767 11.9994C21.2767 8.89855 20.4588 6.5344 18.8453 4.97978C17.2879 3.47838 14.9826 2.71647 11.9938 2.71647ZM5.85777 19.6136C5.60498 19.4296 5.36734 19.2305 5.14505 19.0162C4.81408 18.6973 4.51659 18.3441 4.25279 17.9573C4.29232 17.9369 4.34004 17.8996 4.39995 17.8397L7.5288 14.7529L8.05821 15.2907L8.32992 15.5652L9.13104 16.3775L5.88734 19.5792C5.87654 19.59 5.86665 19.6015 5.85777 19.6136ZM16.5736 13.9966C16.4672 13.8957 16.414 13.7641 16.4112 13.5904V13.5764C16.4112 13.3915 16.4616 13.2599 16.5736 13.1506C16.6857 13.0414 16.8481 12.9882 17.0638 12.9882C17.2795 12.9882 17.442 13.047 17.554 13.1506C17.6661 13.2543 17.7165 13.3915 17.7165 13.5736C17.7165 13.7557 17.6661 13.8873 17.554 13.9966C17.442 14.1058 17.2795 14.1591 17.0638 14.1591C16.8481 14.1591 16.6857 14.1058 16.5736 13.9966ZM9.85093 6.2907C9.95457 6.18146 10.0918 6.12824 10.2739 6.12824C10.456 6.12824 10.5876 6.17866 10.6969 6.2907C10.8061 6.40275 10.8593 6.56521 10.8593 6.7809C10.8593 6.99659 10.8033 7.16185 10.6969 7.2711C10.5904 7.38034 10.456 7.43356 10.2739 7.43356H10.2571C10.0834 7.43076 9.95457 7.37754 9.85093 7.2711C9.74168 7.15905 9.68846 6.99659 9.68846 6.7809C9.68846 6.56521 9.74729 6.39995 9.85093 6.2907ZM15.8649 8.68006C15.7081 8.68566 15.5764 8.62684 15.4476 8.50079C15.3187 8.37474 15.2627 8.24589 15.2627 8.09463C15.2655 7.94056 15.3411 7.7893 15.5008 7.63524C15.6605 7.48118 15.8145 7.40275 15.9742 7.39995C16.131 7.39435 16.2627 7.45317 16.3915 7.57922C16.5204 7.70527 16.5792 7.83412 16.5736 7.98538C16.5708 8.13944 16.4924 8.2907 16.3355 8.44477C16.1787 8.59883 16.0246 8.67726 15.8649 8.68006Z" fill="#313235"/>
</svg>
