<svg width="24" height="24" viewBox="0 0 24 24" fill="none" xmlns="http://www.w3.org/2000/svg">
<path fill-rule="evenodd" clip-rule="evenodd" d="M8.90501 5.73426L9.67812 6.51017L9.49885 7.61101C9.43162 8.02558 9.60249 8.42894 9.94423 8.66984C10.1235 8.79869 10.3364 8.86312 10.5493 8.86312C10.7201 8.86312 10.8938 8.8211 11.0535 8.73426L11.9862 8.22726L12.919 8.73426C13.2664 8.92194 13.7089 8.89673 14.0311 8.66984C14.3728 8.42894 14.5409 8.02558 14.4736 7.61101L14.2916 6.50737L15.0647 5.73146C15.356 5.44015 15.454 5.01718 15.3224 4.62782C15.1935 4.24407 14.8658 3.96956 14.4708 3.91073L13.4204 3.75387L12.9442 2.76508C12.7678 2.39253 12.398 2.16003 11.9862 2.16003C11.5717 2.16003 11.2047 2.39533 11.0255 2.76788L10.5521 3.75667L9.50165 3.91354C9.10669 3.97516 8.77896 4.24687 8.65011 4.63062C8.51846 5.01998 8.61649 5.44295 8.90501 5.73426ZM9.49885 5.15723C9.42882 5.08721 9.40641 4.98636 9.44002 4.89113C9.46804 4.80429 9.53806 4.74267 9.6249 4.73146L10.8574 4.54659C11.0059 4.53258 11.1487 4.43174 11.2131 4.30009L11.779 3.12362C11.8574 2.95555 12.1067 2.95555 12.1879 3.12362L12.7566 4.30849C12.8154 4.42894 12.9442 4.52418 13.0787 4.54379L14.342 4.73146C14.4288 4.74267 14.4988 4.80709 14.5269 4.89113C14.5577 4.98636 14.5353 5.08721 14.468 5.15723L13.5661 6.062C13.4624 6.15723 13.4092 6.3197 13.4316 6.45695L13.6473 7.74827C13.6669 7.84911 13.6277 7.94435 13.5465 8.00037C13.4792 8.04519 13.3924 8.05079 13.3196 8.01157L12.2047 7.40933C12.1375 7.37012 12.0619 7.35051 11.9834 7.35051C11.9134 7.35051 11.8406 7.36732 11.779 7.40093L10.6473 8.01157C10.5745 8.05359 10.4904 8.04799 10.4204 8.00037C10.3392 7.94435 10.3028 7.84911 10.3196 7.74827L10.5353 6.45695C10.5549 6.3253 10.5044 6.16844 10.412 6.0732L9.49885 5.15723ZM21.0115 20.9808V17.3001C20.9946 17.2973 20.9778 17.2973 20.961 17.2973H15.6109C15.5941 17.2973 15.5773 17.2973 15.5633 17.3001V20.9808C15.5699 20.9808 15.5772 20.9814 15.5848 20.9821L15.5849 20.9821C15.5933 20.9828 15.6021 20.9836 15.6109 20.9836H20.961C20.9778 20.9836 20.9946 20.9836 21.0115 20.9808ZM14.6781 21.0032H9.32798L9.28036 21.0004V20.5438L9.32798 11.7147L14.7285 11.7175L14.6781 21.0032ZM3.04507 20.9836H8.39521C8.41201 20.9836 8.42882 20.9808 8.44283 20.978V14.8519C8.42882 14.8463 8.41201 14.8435 8.39521 14.8435H3.04507C3.02826 14.8435 3.01145 14.8463 2.99745 14.8519V20.9808C3.00865 20.9836 3.02826 20.9836 3.04507 20.9836ZM3.04507 21.8491H15.6109V21.8435H20.9582C21.4792 21.8435 21.8462 21.5718 21.8462 21.2105V17.062C21.8462 16.6586 21.4008 16.4485 20.961 16.4485H15.6109C15.6039 16.4485 15.5955 16.4499 15.5871 16.4514C15.5787 16.4528 15.5703 16.4542 15.5633 16.4542V11.7147C15.5633 11.2637 15.1487 10.8659 14.6781 10.8659H9.32798C8.85739 10.8659 8.44283 11.2637 8.44283 11.7147V14.006C8.43614 14.006 8.42882 14.0041 8.42116 14.0021C8.41278 13.9999 8.40399 13.9976 8.39521 13.9976H3.04507C2.61649 13.9976 2.15991 14.2861 2.15991 14.7147V21.1124C2.15991 21.5074 2.55767 21.8491 3.04507 21.8491Z" fill="#313235"/>
</svg>
