<svg width="24" height="24" viewBox="0 0 24 24" fill="none" xmlns="http://www.w3.org/2000/svg">
<path fill-rule="evenodd" clip-rule="evenodd" d="M2.1499 11.9904C2.1499 18.4273 5.55326 21.8279 11.9874 21.8279C18.4272 21.8279 21.8306 18.4245 21.8278 11.9904C21.8278 8.72986 20.951 6.23126 19.2255 4.56739C17.5617 2.96235 15.1275 2.15002 11.9874 2.15002C5.55046 2.15002 2.1499 5.55339 2.1499 11.9904ZM2.71013 11.9904C2.71013 5.8335 5.83338 2.71025 11.9874 2.71025C18.1471 2.71025 21.2703 5.8307 21.2675 11.9904C21.2675 18.1472 18.1471 21.2677 11.9874 21.2677C5.83057 21.2677 2.71013 18.1444 2.71013 11.9904ZM11.9902 18.0324C10.0687 18.0324 8.57287 17.531 7.55046 16.545C6.48884 15.5198 5.94822 13.9876 5.94822 11.9904C5.94822 10.3265 6.32357 8.97916 7.06307 7.98476C7.78856 7.01277 8.85578 6.37972 10.2423 6.10521C10.3936 6.07439 10.5421 6.17243 10.5729 6.3265C10.6037 6.47776 10.5056 6.62621 10.3516 6.65703C7.80256 7.16403 6.50845 8.95955 6.50845 11.9932C6.50845 15.6318 8.35158 17.475 11.9902 17.475C15.6289 17.475 17.4748 15.6318 17.4748 11.9932C17.4748 8.92033 16.1443 7.11641 13.5253 6.63742C13.374 6.60941 13.2732 6.46375 13.3012 6.31249C13.3292 6.16123 13.4748 6.06039 13.6261 6.0884C15.0463 6.3489 16.1443 6.97355 16.8894 7.94834C17.6513 8.94554 18.0379 10.3069 18.0379 11.996C18.0379 13.9932 17.4972 15.5254 16.4356 16.5506C15.4076 17.531 13.9118 18.0324 11.9902 18.0324ZM11.7101 8.95675C11.7101 9.11081 11.8362 9.23686 11.9902 9.23686C12.1443 9.23686 12.2704 9.11081 12.2704 8.95675V4.85871C12.2704 4.70465 12.1443 4.5786 11.9902 4.5786C11.8362 4.5786 11.7101 4.70465 11.7101 4.85871V8.95675Z" fill="#313235"/>
</svg>
