<svg width="24" height="24" viewBox="0 0 24 24" fill="none" xmlns="http://www.w3.org/2000/svg">
<path fill-rule="evenodd" clip-rule="evenodd" d="M21.8362 12.0184C21.8362 2.85591 13.9762 2.20044 12.3936 2.15843C12.2059 2.15002 11.9762 2.15002 11.7633 2.15002H11.4916C2.60088 2.23126 2.1499 10.3377 2.1499 11.9595C2.1499 13.5814 2.60929 21.7046 11.5589 21.8279C11.6485 21.8363 11.7465 21.8363 11.8445 21.8363H11.8446C11.9501 21.8363 12.0564 21.8341 12.1592 21.8319H12.1593H12.1594C12.2557 21.8299 12.3489 21.8279 12.4356 21.8279C14.0014 21.7971 21.8362 21.1892 21.8362 12.0184ZM21.0154 12.0184C21.0154 20.2145 14.4356 20.9652 12.4188 21.0072C12.3369 21.0072 12.2494 21.008 12.1589 21.0089H12.1588H12.1588C11.9678 21.0108 11.763 21.0129 11.5673 21.0072C9.55046 20.9848 2.97063 20.2453 2.97063 11.9595C2.97063 3.69064 9.50284 2.98756 11.5028 2.97075C11.7886 2.97075 12.1079 2.97075 12.3796 2.97916C14.4048 3.02678 21.0154 3.82229 21.0154 12.0184ZM11.5841 16.8447C11.979 16.8447 12.2311 17.0996 12.2311 17.5002V17.5646C12.2311 17.9483 11.9762 18.2032 11.5841 18.2032C11.1499 18.2032 10.895 17.9483 10.895 17.5646V17.5002C10.895 17.0996 11.1499 16.8447 11.5421 16.8447H11.5841ZM15.0855 8.64862C15.0855 7.67383 14.7802 7.01837 14.1163 6.53378C13.6009 6.14162 12.8782 5.94274 11.965 5.93714C11.1023 5.93714 10.1779 6.11641 9.81657 6.28168C9.72693 6.32369 9.67651 6.41333 9.69332 6.51137L9.75775 6.86431C9.77455 6.91473 9.80536 6.96235 9.84738 6.99596C9.8978 7.02958 9.95662 7.03798 10.0126 7.02117C10.6681 6.86431 11.1919 6.79148 11.7661 6.79148C12.8726 6.79148 13.3068 7.02117 13.5533 7.21725C13.9874 7.56179 14.1751 7.99036 14.1751 8.62902C14.1751 9.48896 13.881 10.0156 12.43 11.7271L12.2591 11.9315C11.318 13.0548 11.0463 13.6626 11.0463 14.6122C11.0463 14.8503 11.0631 15.0408 11.0967 15.2201C11.1219 15.3209 11.2031 15.3853 11.3012 15.3853H11.7493C11.8642 15.3853 11.9538 15.2929 11.9538 15.1808C11.9538 13.6234 12.0603 13.4918 13.4216 11.9259C14.6009 10.5254 15.0855 9.8363 15.0855 8.64862Z" fill="#313235"/>
</svg>
