<svg width="24" height="24" viewBox="0 0 24 24" fill="none" xmlns="http://www.w3.org/2000/svg">
<path d="M21.4962 2.19636C21.2777 2.10673 21.0228 2.14874 20.8491 2.30841L18.0312 4.98068C16.3029 3.65855 14.16 2.94706 11.9555 2.96387C6.99756 2.95547 2.81829 6.52129 2.22165 11.2664C1.62501 16.0115 4.80708 20.4373 9.62221 21.5661C14.4373 22.695 19.3701 20.174 21.104 15.695C21.2132 15.4092 21.0648 15.0899 20.7679 14.9807C20.625 14.9275 20.4625 14.9303 20.3225 14.9919C20.1824 15.0535 20.0704 15.1656 20.0172 15.3056C18.709 18.6642 15.3141 20.835 11.597 20.6894C7.87991 20.5437 4.67823 18.1123 3.66143 14.6642C2.64182 11.2132 4.03397 7.52129 7.11241 5.51009C10.1908 3.49889 14.2637 3.61653 17.2104 5.80701L14.611 8.2804C14.4401 8.43726 14.3869 8.68096 14.4766 8.89104C14.5662 9.10113 14.7791 9.23838 15.0144 9.23838L20.9303 8.88264C21.2217 8.86583 21.4569 8.64174 21.4738 8.35883L21.8323 2.7902C21.8631 2.5409 21.7287 2.30281 21.4962 2.19636Z" fill="#313235"/>
</svg>
