<svg width="24" height="24" viewBox="0 0 24 24" fill="none" xmlns="http://www.w3.org/2000/svg">
<path fill-rule="evenodd" clip-rule="evenodd" d="M2.1499 11.9904C2.1499 18.4273 5.55326 21.8279 11.9874 21.8279C18.4272 21.8279 21.8306 18.4245 21.8278 11.9904C21.8278 8.72986 20.951 6.23126 19.2255 4.56739C17.5617 2.96235 15.1275 2.15002 11.9874 2.15002C5.55046 2.15002 2.1499 5.55339 2.1499 11.9904ZM2.71013 11.9904C2.71013 5.8335 5.83338 2.71025 11.9874 2.71025C18.1471 2.71025 21.2703 5.8307 21.2675 11.9904C21.2675 18.1472 18.1471 21.2677 11.9874 21.2677C5.83057 21.2677 2.71013 18.1444 2.71013 11.9904ZM10.9734 15.206C11.0182 15.2313 11.0659 15.2453 11.1163 15.2453C11.1639 15.2453 11.2115 15.2313 11.2507 15.206C11.3404 15.1556 11.3936 15.0632 11.3936 14.9623V11.8277C11.4174 11.8699 11.452 11.9061 11.4944 11.9315L17.0014 15.2088C17.0463 15.2341 17.0939 15.2481 17.1443 15.2481C17.1919 15.2481 17.2395 15.2369 17.2816 15.2116C17.3712 15.1612 17.4244 15.0688 17.4244 14.968V8.38252C17.4244 8.28168 17.3684 8.18924 17.2816 8.13882C17.1919 8.0884 17.0855 8.0884 16.9986 8.14162L11.4916 11.4497C11.45 11.4747 11.4167 11.51 11.3936 11.5511V8.37691C11.3936 8.27607 11.3376 8.18364 11.2507 8.13322C11.1611 8.0828 11.0547 8.0828 10.9678 8.13602L5.46083 11.4441C5.37679 11.4946 5.32637 11.587 5.32637 11.685C5.32637 11.7831 5.37959 11.8755 5.46363 11.9259L10.9734 15.206ZM10.8334 14.4722L6.1527 11.685L10.8334 8.87271V14.4722ZM12.1835 11.6906L16.8642 14.4778V8.87832L12.1835 11.6906Z" fill="#313235"/>
</svg>
