<svg width="24" height="24" viewBox="0 0 24 24" fill="none" xmlns="http://www.w3.org/2000/svg">
<path fill-rule="evenodd" clip-rule="evenodd" d="M21.8362 11.996C21.8362 5.55619 18.4328 2.15002 11.9902 2.15002C5.55326 2.15002 2.1499 5.55619 2.1499 11.996C2.1499 18.4329 5.55326 21.8363 11.9902 21.8363C18.4328 21.8363 21.8362 18.4329 21.8362 11.996ZM21.0126 11.996C21.0126 17.982 17.979 21.0156 11.9902 21.0156C6.00704 21.0156 2.97063 17.982 2.97063 11.996C2.97063 6.00997 6.00424 2.97355 11.9902 2.97355C17.9762 2.97355 21.0126 6.00717 21.0126 11.996ZM13.7577 12.4946L16.4468 9.89512L13.7577 7.28728V8.27047C13.7577 8.49736 13.5112 8.73266 13.2872 8.73266H9.24794C9.21153 8.73266 9.17511 8.74666 9.1471 8.77467C9.11909 8.79988 9.10508 8.8363 9.10508 8.87551V16.9231H11.2423V11.4666C11.2423 11.2397 11.4272 11.0576 11.6513 11.0576H13.2816C13.402 11.066 13.5168 11.1192 13.6009 11.2032C13.6793 11.2817 13.7521 11.4105 13.7521 11.5198C13.7577 11.5198 13.7577 12.4946 13.7577 12.4946ZM17.1359 9.42173L14.0126 6.39372C13.811 6.23126 13.5393 6.19764 13.3096 6.30969C13.0799 6.41893 12.937 6.64022 12.937 6.89232V7.91193L9.24794 7.90913C8.99024 7.90913 8.74934 8.00997 8.56727 8.19204C8.3852 8.37411 8.28436 8.61501 8.28436 8.87271V17.3321C8.28436 17.5562 8.46643 17.7411 8.69332 17.7411H11.6569C11.881 17.7411 12.0659 17.559 12.0659 17.3321V11.8783H12.9342V12.8895C12.9342 13.1416 13.0827 13.3685 13.3096 13.475C13.5393 13.5814 13.8082 13.5506 14.0407 13.3601L17.1135 10.3853C17.1359 10.3685 17.1555 10.3489 17.1723 10.3293C17.4132 10.0688 17.3964 9.66263 17.1359 9.42173Z" fill="#313235"/>
</svg>
