<svg width="24" height="24" viewBox="0 0 24 24" fill="none" xmlns="http://www.w3.org/2000/svg">
<path fill-rule="evenodd" clip-rule="evenodd" d="M14.8942 2.16003C16.5553 2.16003 18.1295 2.35891 19.3228 2.71746C20.9951 3.22166 21.841 4.00877 21.8438 5.05919V18.9471C21.8438 19.9948 20.9979 20.7819 19.3256 21.2861C18.1183 21.6474 16.5469 21.8463 14.897 21.8463C13.25 21.8463 11.6785 21.6474 10.4712 21.2889C8.79897 20.7847 7.95304 19.9976 7.95304 18.9471V17.4794C7.3648 17.3057 6.81578 17.02 6.33399 16.6418L2.855 20.118C2.69813 20.2721 2.44603 20.2721 2.28637 20.118C2.1211 19.9612 2.1183 19.7006 2.27517 19.5382L5.73735 16.0788C4.95024 15.2161 4.46564 14.0732 4.46564 12.8155C4.46564 10.6138 5.93903 8.75107 7.95304 8.15443V5.05639C7.95304 4.89393 7.97545 4.72866 8.02026 4.5718V4.569C8.25276 3.75947 9.07629 3.13763 10.4684 2.71746C11.6645 2.35891 13.2359 2.16003 14.8942 2.16003ZM14.8942 2.98076C13.3172 2.98076 11.827 3.16564 10.7065 3.50457C9.63651 3.8267 8.98665 4.26368 8.81578 4.76788C8.81718 4.77208 8.81928 4.77558 8.82138 4.77908C8.82348 4.78258 8.82559 4.78608 8.82699 4.79029C8.99505 5.29169 9.64771 5.72866 10.7149 6.05079C11.8382 6.38973 13.3256 6.5746 14.9026 6.5746C16.4796 6.5746 17.967 6.38693 19.0903 6.05079C20.1295 5.73707 20.7794 5.3141 20.9642 4.8295C20.9669 4.82409 20.9703 4.81998 20.9734 4.81623C20.9767 4.81223 20.9796 4.80863 20.981 4.80429C20.8298 4.27488 20.1939 3.83791 19.0847 3.50457C17.9642 3.16564 16.4768 2.98076 14.8942 2.98076ZM8.77096 6.00877C9.18553 6.3365 9.75416 6.61382 10.4824 6.8351C11.6813 7.19365 13.2528 7.39253 14.9054 7.39253C16.5609 7.39253 18.1323 7.19365 19.3312 6.8351C20.0567 6.61662 20.6113 6.35051 21.0203 6.03118V9.64183C20.813 10.0284 20.2107 10.5438 19.0959 10.8799C17.9726 11.2189 16.4852 11.4037 14.897 11.4037C14.8659 11.403 14.8128 11.4027 14.7454 11.4022L14.7451 11.4022H14.7451H14.7451H14.7451C14.5452 11.4009 14.2204 11.3988 13.9754 11.3841C13.3424 9.34771 11.46 7.95835 9.32839 7.95555C9.14071 7.95555 8.95304 7.96956 8.77096 7.98917V6.00877ZM13.3732 12.8183C13.3704 10.5858 11.5609 8.77628 9.32839 8.77348C7.09589 8.77628 5.28637 10.5858 5.28357 12.8183C5.28637 15.0508 7.09589 16.8603 9.32839 16.8631C11.5609 16.8603 13.3704 15.0508 13.3732 12.8183ZM14.897 21.0256C16.4684 21.0256 17.9558 20.8407 19.0875 20.5018C20.3704 20.1152 21.0203 19.5942 21.0231 18.9471V15.6922C20.5833 16.0284 20.0119 16.3169 19.334 16.5186C18.1379 16.8799 16.5665 17.076 14.9082 17.076C13.9698 17.076 13.0707 17.0144 12.2303 16.8939C12.1743 16.8855 12.1183 16.8631 12.0707 16.8323C11.1099 17.499 9.93623 17.7875 8.77376 17.6474V18.9471C8.77376 19.5914 9.42643 20.1152 10.7093 20.5018C11.8382 20.8407 13.3284 21.0256 14.897 21.0256ZM14.1939 12.8155C14.1939 12.611 14.1771 12.4093 14.1519 12.2105C14.4488 12.2189 14.7682 12.2217 14.8998 12.2217H14.911C16.5693 12.2217 18.1379 12.0228 19.3368 11.6642C20.0147 11.4598 20.5889 11.174 21.0259 10.8379V14.4962C20.8186 14.8799 20.2135 15.3981 19.1015 15.7315C17.981 16.0676 16.4937 16.2553 14.9138 16.2553C14.2051 16.2553 13.5301 16.2077 12.8802 16.1376C13.7205 15.2385 14.1911 14.0508 14.1939 12.8155Z" fill="#313235"/>
</svg>
