<svg width="24" height="24" viewBox="0 0 24 24" fill="none" xmlns="http://www.w3.org/2000/svg">
<path fill-rule="evenodd" clip-rule="evenodd" d="M9.11254 21.3364C9.88005 21.6725 10.726 21.835 11.6195 21.835C13.5999 21.835 15.7932 21.0283 17.7848 19.5129C19.8576 17.9078 21.2134 15.7145 21.6055 13.3308C21.6069 13.3252 21.6083 13.3203 21.6097 13.3154C21.6111 13.3105 21.6125 13.3056 21.6139 13.3C21.6896 13.0199 21.7484 12.7229 21.7876 12.426C22.2162 9.15992 20.149 7.63051 18.0453 7.28317C17.9609 7.27668 17.8648 7.26183 17.7648 7.24637C17.7353 7.24182 17.7055 7.23721 17.6756 7.23275C17.4711 7.20754 17.1658 7.18233 16.8072 7.19913C16.6279 7.00306 16.4683 6.77617 16.3338 6.53247C15.9025 5.73415 15.8016 4.80978 16.0509 3.92743C16.0957 3.80418 16.2162 3.41202 16.0341 2.99745C15.9333 2.76496 15.698 2.45123 15.1602 2.26636C14.0761 1.89661 13.4179 2.53247 13.2302 3.07308C12.7484 4.71734 12.9333 6.45404 13.7484 7.96104C13.8296 8.1067 13.9137 8.24675 14.0033 8.38401C13.3618 9.05348 12.9557 9.98905 12.7988 11.1683C12.7624 11.4064 12.7428 11.6417 12.7484 11.7734C12.6853 12.1353 12.7377 12.5107 12.7846 12.847L12.7876 12.8686L12.7883 12.8738C12.8441 13.2668 12.8962 13.634 12.7456 13.8014C12.6532 13.905 12.3702 14.0787 11.4515 14.0479C11.3002 14.0003 11.1349 13.9526 10.9445 13.9022C10.247 13.7454 9.18537 13.5913 8.5215 13.6221C8.5131 13.6193 8.5019 13.6193 8.49349 13.6193C7.5019 13.5661 6.49069 13.7622 5.56352 14.1879C4.0173 14.905 2.84083 16.1851 2.261 17.765C2.09573 18.1291 2.0173 18.9554 2.88565 19.4596C3.42346 19.7734 4.21898 19.9358 4.95007 18.9274C5.05651 18.7818 5.15735 18.6361 5.25818 18.4905L5.2582 18.4904L5.26373 18.4825C5.71546 17.8356 6.14324 17.223 6.80162 16.8854L6.92486 16.8182C7.12935 16.7089 7.24419 16.6501 7.38985 16.6865C7.64755 16.751 7.73439 17.1095 7.64195 17.7594C7.53271 18.5353 7.59433 19.2355 7.81842 19.8434C8.09013 20.5745 8.5243 21.0759 9.11254 21.3364ZM7.58593 15.8546C7.48509 15.8322 7.38985 15.821 7.30021 15.821C6.98224 15.821 6.73283 15.9528 6.53406 16.0579C6.52796 16.0611 6.52191 16.0643 6.5159 16.0675L6.41226 16.1235C5.56352 16.5577 5.05372 17.2888 4.56072 17.9975C4.46268 18.1375 4.36184 18.2804 4.261 18.4204C3.93607 18.8658 3.68677 18.9414 3.29741 18.7173C2.91646 18.4961 2.97809 18.2131 3.03131 18.0815C3.54391 16.6865 4.56352 15.5773 5.90526 14.9554C6.70918 14.5857 7.58033 14.4148 8.44027 14.4624H8.47669C8.49909 14.4652 8.5187 14.4652 8.54111 14.4652C9.11534 14.4428 10.0845 14.5773 10.7344 14.7229C10.9165 14.7706 11.0845 14.8182 11.2302 14.8686C11.2666 14.8826 11.3086 14.8882 11.3478 14.891C12.3618 14.9358 13.0033 14.765 13.359 14.3644C13.7703 13.9059 13.6854 13.2957 13.6101 12.7555L13.6083 12.7426C13.5663 12.4512 13.5243 12.1515 13.5719 11.8406C13.5719 11.6753 13.5887 11.4848 13.6195 11.2832C13.7708 10.1515 14.1742 9.30278 14.8156 8.76776C14.9865 8.6221 15.0173 8.37 14.8856 8.18793C14.7372 7.98345 14.5999 7.76776 14.4767 7.54367C13.7708 6.23835 13.6111 4.73415 14.0229 3.32799C14.0509 3.24395 14.2246 2.84059 14.8772 3.06468C15.0145 3.1123 15.1882 3.19353 15.2498 3.32799C15.3086 3.45684 15.2582 3.6025 15.2526 3.6165C15.2498 3.6235 15.247 3.6312 15.2442 3.6389C15.2414 3.64661 15.2386 3.65431 15.2358 3.66132C14.9165 4.76496 15.0397 5.92743 15.5831 6.93023C15.7904 7.31118 16.0453 7.64731 16.3394 7.93303C16.4263 8.01706 16.5495 8.06188 16.6672 8.05067C17.0649 8.01706 17.4011 8.04787 17.5523 8.06468L17.5696 8.06726C17.6968 8.08622 17.8367 8.10706 17.9305 8.1151C18.9781 8.28877 21.3702 9.04507 20.9417 12.3028C20.9137 12.5269 20.8716 12.751 20.81 13.0031C20.7932 13.0423 20.7792 13.0815 20.7736 13.1235C20.4291 15.3168 19.1826 17.342 17.2638 18.8238C14.6307 20.849 11.6363 21.5129 9.44867 20.5521C9.07893 20.3896 8.79601 20.0479 8.60834 19.5409C8.43187 19.0675 8.38705 18.5073 8.47669 17.8742C8.67837 16.4316 8.10414 15.9806 7.58593 15.8546Z" fill="#313235"/>
</svg>
