<svg width="24" height="24" viewBox="0 0 24 24" fill="none" xmlns="http://www.w3.org/2000/svg">
<path fill-rule="evenodd" clip-rule="evenodd" d="M21.8399 9.88991C21.8399 9.72743 21.7502 9.58177 21.6074 9.50894C21.4645 9.43891 21.2936 9.45291 21.162 9.55096C20.0975 10.3661 18.1534 10.2709 17.159 9.88991C16.1982 9.52014 14.5847 8.09431 14.411 6.957C14.3858 6.79173 14.2597 6.65447 14.0972 6.61245C13.932 6.57604 13.7611 6.63206 13.6602 6.76932C13.6378 6.79733 13.2204 7.36038 12.6966 8.19515C11.9067 6.0438 11.0075 4.79164 10.957 4.72441C10.8646 4.59556 10.7077 4.52833 10.5537 4.55634C10.3996 4.58155 10.2679 4.6908 10.2203 4.83926C9.72449 6.33793 8.28746 7.11948 7.16976 7.50885C6.51147 7.73855 4.57021 7.88142 2.78021 6.84776C2.64855 6.77492 2.48888 6.77492 2.36003 6.84776C2.23117 6.92339 2.15273 7.06065 2.14993 7.21192L2.14992 7.22093C2.14956 7.46932 2.14451 10.9727 3.08275 13.4839C4.07999 16.1535 5.63188 17.4701 7.80284 17.4701C8.3827 17.4701 9.00738 17.3776 9.67407 17.1899C10.2035 17.0415 10.6825 16.8762 11.1195 16.6885C11.6602 17.5541 12.5285 18.2236 13.7975 18.711C14.7611 19.0836 15.6267 19.3161 16.4167 19.3161C17.9938 19.3161 19.2655 18.3861 20.4056 15.7669C21.8091 12.5483 21.8399 9.99635 21.8399 9.88991ZM12.5874 10.7667C13.4501 14.5484 12.2624 15.5904 9.44997 16.3776C6.70195 17.1423 4.98199 16.1619 3.8699 13.1898C3.21441 11.4306 3.04913 9.06354 3.00711 7.90943C4.79151 8.69938 6.62912 8.59853 7.44989 8.31001C8.97096 7.77777 10.0718 6.9402 10.6853 5.86172C11.1923 6.7301 12.0579 8.44727 12.5874 10.7667ZM19.6381 15.428C20.5261 13.3887 20.837 11.6099 20.9435 10.6462C19.5905 11.2261 17.8397 11.058 16.8621 10.6799C15.9012 10.3101 14.4894 9.16719 13.8703 7.93744C13.649 8.26519 13.3689 8.69938 13.0776 9.1924C13.0728 9.20036 13.0662 9.20651 13.0594 9.21292C13.0542 9.21777 13.0488 9.22277 13.044 9.22881C13.1476 9.56496 13.2429 9.92072 13.3325 10.2905L13.3655 10.2816C13.4495 10.259 13.5341 10.2363 13.6406 10.2289L13.6564 10.2278H13.6564H13.6564H13.6564H13.6564H13.6564C13.7374 10.2226 13.8137 10.2177 13.8899 10.2177C15.4166 10.2177 15.9685 11.2597 16.0581 11.8676C16.1505 12.3018 15.9881 12.6043 15.8788 12.7472C15.6855 13.0021 15.3746 13.1478 15.0301 13.1478C14.9152 13.1478 14.834 13.1337 14.834 13.1337C14.8164 13.1302 14.7922 13.1245 14.7705 13.1194L14.7703 13.1193L14.7703 13.1193L14.7359 13.1113C14.6799 13.0945 14.1813 12.9405 13.7023 12.6687C13.6995 12.6673 13.6981 12.6652 13.6967 12.6631C13.6953 12.661 13.6939 12.6589 13.6911 12.6575C13.7079 13.2486 13.649 13.7584 13.523 14.2038C14.0636 14.0694 14.7247 14.0862 15.5147 14.3887C16.3774 14.7192 16.9601 15.2179 17.2458 15.8706C17.6094 16.7035 17.3344 17.4786 17.3066 17.5571L17.3047 17.5625C17.2486 17.7082 17.117 17.8062 16.9657 17.8258C16.9489 17.8286 16.9321 17.8286 16.9153 17.8286C16.7808 17.8286 16.652 17.7642 16.5735 17.6522C16.5231 17.5793 15.2429 15.8594 12.3016 16.0779C12.2883 16.0795 12.276 16.0753 12.2635 16.0709C12.255 16.068 12.2463 16.065 12.2372 16.0638C12.1224 16.1507 12.0019 16.2291 11.873 16.3076C12.3212 16.9827 13.0384 17.5177 14.0972 17.9239C16.6828 18.9183 18.1702 18.7951 19.6381 15.428ZM9.17545 11.114C8.55358 11.114 8.27345 10.7499 8.18381 10.593C8.04095 10.3465 7.9373 9.93473 8.25384 9.37728C8.84771 8.32681 9.64886 8.16994 10.0747 8.16994C10.5733 8.16994 10.9542 8.37163 11.1083 8.46407C11.5481 8.70218 11.6658 9.06074 11.6966 9.25683C11.7806 9.76665 11.4753 10.1196 11.3772 10.2149C11.3492 10.2428 11.3184 10.268 11.2877 10.2932L11.2876 10.2932L11.2876 10.2932L11.2876 10.2932L11.2876 10.2933L11.2876 10.2933L11.2876 10.2933L11.2876 10.2933L11.2876 10.2933C11.24 10.3297 10.8086 10.649 10.2847 10.8591C9.99061 10.974 9.56202 11.114 9.17545 11.114ZM9.17545 10.2709C8.91494 10.2709 8.78328 10.1448 8.98217 9.79466C9.33232 9.17559 9.7441 9.01312 10.0718 9.01312C10.4248 9.01312 10.6853 9.1952 10.6853 9.1952C11.0327 9.36888 10.7834 9.61819 10.7834 9.61819C10.7834 9.61819 10.4108 9.90111 9.97381 10.0748C9.69088 10.1868 9.38835 10.2709 9.17545 10.2709ZM6.99048 11.8452C6.93726 11.8648 6.44704 12.0413 5.9036 12.1029C5.72712 12.1225 5.55624 12.1337 5.39657 12.1337C4.65705 12.1337 4.19204 11.8928 4.00996 11.4166C3.93432 11.2177 3.81947 10.6939 4.40774 10.1616C4.90356 9.71623 5.43019 9.48933 5.97363 9.48933C6.5731 9.48933 7.06331 9.78626 7.32663 10.0608C7.58995 10.3073 7.72161 10.6322 7.68519 10.96C7.64037 11.3746 7.34904 11.6659 7.09413 11.8004C7.05772 11.8172 7.02411 11.8312 6.9905 11.8452L6.99048 11.8452ZM5.80836 11.2625C5.66829 11.2793 5.52543 11.2877 5.39377 11.2877C4.90636 11.2877 4.5562 11.1617 4.96518 10.7919C5.35175 10.4418 5.6907 10.3325 5.96803 10.3325C6.44704 10.3325 6.73277 10.663 6.73277 10.663C7.00449 10.89 6.69915 11.0524 6.69915 11.0524C6.69915 11.0524 6.26776 11.2093 5.80836 11.2625ZM11.6798 11.8816C11.8254 11.918 11.9431 12.0301 11.9851 12.1729C11.9963 12.2065 12.2232 13.0189 11.7526 13.8649C11.3604 14.5708 10.6209 15.0806 9.55642 15.3775C9.07461 15.512 8.64602 15.5708 8.26505 15.5708C6.2768 15.5708 5.62362 14.0183 5.60423 13.9722L5.60387 13.9713C5.54784 13.8313 5.57305 13.6744 5.66269 13.5567C5.75233 13.4391 5.9008 13.3747 6.04926 13.3971C9.46388 13.8468 11.2278 12.0488 11.2755 12.0001L11.2764 11.9992C11.38 11.8928 11.5341 11.848 11.6798 11.8816ZM11.0187 13.4559C11.0719 13.3634 11.1083 13.271 11.1391 13.1814C10.3492 13.7024 8.95135 14.3859 6.92605 14.3131C7.36305 14.6436 8.11658 14.9069 9.33232 14.568C10.1727 14.3327 10.7413 13.9573 11.0187 13.4559ZM16.5651 16.4616C15.9292 15.9462 14.8368 15.3215 13.2289 15.2263C13.635 14.9714 14.2737 14.8117 15.2149 15.1759C16.1337 15.5288 16.4643 16.0358 16.5651 16.4616ZM13.5118 11.1028C13.5426 11.2597 13.5678 11.4138 13.5902 11.5622C13.7331 11.6883 13.9208 11.8172 14.1224 11.932C14.5314 12.1645 14.9796 12.3018 14.9796 12.3018C14.9796 12.3018 15.002 12.3046 15.0357 12.3046C15.1309 12.3046 15.3018 12.2738 15.2373 12.0217C15.2373 12.0217 15.1421 11.0636 13.8955 11.0636C13.8367 11.0636 13.7723 11.0664 13.7079 11.072C13.621 11.0748 13.5622 11.0888 13.5118 11.1028ZM18.921 13.1113C18.921 13.1113 18.6997 12.5959 18.0218 12.5959C17.8509 12.5959 17.652 12.6267 17.4195 12.708C16.8453 12.9096 17.4083 13.1618 17.977 13.2934C18.3747 13.3831 18.7781 13.3887 18.7781 13.3887C18.7781 13.3887 19.0778 13.3578 18.921 13.1113ZM18.019 11.7527C17.7417 11.7527 17.4475 11.806 17.1422 11.9124C16.3606 12.1841 16.3298 12.7724 16.3382 12.9489C16.3828 13.7892 17.3893 14.0242 17.7788 14.1152L17.7865 14.117C18.2571 14.2262 18.7165 14.2346 18.7669 14.2346H18.7753C18.8037 14.2346 18.8298 14.2323 18.8578 14.2297L18.865 14.229C19.2431 14.187 19.5597 13.9741 19.7109 13.6548C19.8538 13.3578 19.8342 13.0161 19.6605 12.7108C19.4672 12.327 18.9378 11.7527 18.019 11.7527Z" fill="#313235"/>
</svg>
