<svg width="24" height="24" viewBox="0 0 24 24" fill="none" xmlns="http://www.w3.org/2000/svg">
<path d="M21.842 5.4118V9.08687C21.842 9.31656 21.6487 9.49863 21.419 9.49863C21.1893 9.50423 21.0017 9.32216 20.9961 9.09247V6.58547L15.0241 14.8656C14.9036 15.0224 14.6935 15.0813 14.5087 15.0056L6.97926 11.7787L2.95124 18.7367C2.828 18.9328 2.57309 19 2.36861 18.8936C2.16973 18.7815 2.0969 18.5294 2.20895 18.3306L6.42743 11.0505C6.53668 10.8628 6.77197 10.7871 6.97085 10.8768L14.5255 14.1149L20.5059 5.82636H17.6879C17.4582 5.82636 17.2706 5.64149 17.265 5.4118C17.2678 5.1821 17.4582 4.99723 17.6879 5.00003H21.419C21.6487 5.00003 21.842 5.1793 21.842 5.4118Z" fill="#313235"/>
</svg>
