<svg width="24" height="24" viewBox="0 0 24 24" fill="none" xmlns="http://www.w3.org/2000/svg">
<path fill-rule="evenodd" clip-rule="evenodd" d="M12.2986 12.3068C9.13675 12.3068 7.46495 10.6651 7.46495 7.56019C7.46495 5.98339 7.8946 4.77713 8.7429 3.97115C9.5609 3.19492 10.7562 2.80005 12.2986 2.80005C13.8409 2.80005 15.039 3.19492 15.8625 3.97115C16.7163 4.77713 17.146 5.9861 17.146 7.56019C17.146 10.6651 15.4714 12.3068 12.2986 12.3068ZM3.97537 21.8H20.6245C20.776 21.8 20.9 21.6783 20.9 21.5323V19.4227C20.9 17.9811 20.4455 16.7532 19.5807 15.8715C18.6388 14.9114 17.2314 14.4029 15.5127 14.4029H9.08717C7.36855 14.4029 5.96115 14.9114 5.01921 15.8688C4.15715 16.7505 3.69995 17.9784 3.69995 19.42V21.5296C3.69995 21.6783 3.82389 21.8 3.97537 21.8ZM20.3491 21.2591H4.25079V19.42C4.25079 18.1191 4.65291 17.0237 5.41582 16.2447C6.26411 15.382 7.498 14.9438 9.08717 14.9438H15.5127C17.1019 14.9438 18.3358 15.382 19.1841 16.2447C19.947 17.0237 20.3491 18.1218 20.3491 19.42V21.2591ZM9.12573 4.36062C9.83632 3.68446 10.9049 3.34097 12.2986 3.34097C13.695 3.34097 14.7636 3.68446 15.4797 4.35791C16.2206 5.05841 16.5951 6.13756 16.5951 7.55749C16.5951 8.97742 16.2206 10.0512 15.4797 10.7489C14.7663 11.4224 13.6922 11.7632 12.2986 11.7632C10.9049 11.7632 9.83632 11.4251 9.12573 10.7516C8.39036 10.0566 8.01579 8.98282 8.01579 7.56019C8.01579 6.13756 8.39036 5.06112 9.12573 4.36062Z" fill="#313235"/>
</svg>
