<svg width="24" height="24" viewBox="0 0 24 24" fill="none" xmlns="http://www.w3.org/2000/svg">
<path fill-rule="evenodd" clip-rule="evenodd" d="M23 12.0282C23 1.91093 14.6138 1.05948 12.4602 1.00939C12.2066 1.00313 11.9124 1 11.6306 1H11.4178C9.21087 1.01878 1 1.77632 1 11.9656C1 22.1673 9.286 22.9656 11.496 22.9969C11.6087 23 11.7245 23 11.8404 23C12.072 23 12.3036 22.9969 12.504 22.9937C14.6044 22.9562 23 22.1673 23 12.0282ZM22.0828 12.0282C22.0828 21.1875 14.7359 22.0359 12.4852 22.0766C12.3539 22.0808 12.2082 22.0822 12.0579 22.0836H12.0579H12.0578H12.0576C11.9859 22.0842 11.9131 22.0849 11.8404 22.0859L11.5117 22.0828C10.5507 22.0703 8.08082 21.8887 5.90837 20.5208C3.2601 18.8492 1.91719 15.9755 1.91719 11.9656C1.91719 7.96187 3.24445 5.09448 5.86767 3.44479C8.02134 2.08936 10.4724 1.92658 11.4271 1.91719H11.6306C11.9061 1.91719 12.191 1.92032 12.4382 1.92658C13.3993 1.95162 15.866 2.15196 18.0509 3.52305C20.7274 5.20091 22.0828 8.06204 22.0828 12.0282ZM11.9969 15.6781C11.7433 15.6781 11.5398 15.4715 11.5398 15.2211V5.72368C11.5398 5.47012 11.7464 5.26665 11.9969 5.26665C12.2473 5.26665 12.4539 5.47325 12.4539 5.72368V15.2211C12.4539 15.4747 12.2473 15.6781 11.9969 15.6781ZM12.7168 17.5626C12.7168 17.1651 12.3944 16.8458 12 16.8458C11.6056 16.8458 11.2863 17.1651 11.2832 17.5626C11.2832 17.957 11.6056 18.2795 12 18.2795C12.3976 18.2795 12.7168 17.957 12.7168 17.5626Z" fill="#313235"/>
</svg>
