<?xml version="1.0" encoding="UTF-8"?>
<svg width="24px" height="24px" viewBox="0 0 24 24" version="1.1" xmlns="http://www.w3.org/2000/svg" xmlns:xlink="http://www.w3.org/1999/xlink">
    <title>3. Masa/Agenda_3Masa</title>
    <g id="Symbols" stroke="none" stroke-width="1" fill="none" fill-rule="evenodd">
        <g id="3.-Masa/Agenda_3Masa" fill="#5CB615" fill-rule="nonzero">
            <path d="M16.9394958,0.0201680672 C18.7478992,0.0201680672 20.2235294,1.49243697 20.2235294,3.30420168 L20.2235294,20.302521 C20.2235294,22.1109244 18.7512605,23.5831933 16.9394958,23.5831933 L6.49915966,23.5831933 C6.12724258,23.5831933 5.76881447,23.5248659 5.43249441,23.4169025 C4.33184322,23.1147824 3.46565022,22.2461806 3.16658103,21.1437922 C3.06056364,20.8105139 3.00336134,20.4554603 3.00336134,20.087395 L3.00336134,3.19663866 C3.00336134,2.79871119 3.0760589,2.41191091 3.21518127,2.05122265 C3.49811622,1.23706627 4.12696938,0.585588163 4.92529091,0.273858032 C5.31528598,0.107436539 5.73875432,0.0201680672 6.17647059,0.0201680672 L16.9394958,0.0201680672 Z M18.8553613,15.9891681 L18.3243613,15.9891681 L18.3250904,21.623808 C18.6535667,21.2803018 18.8554622,20.8147679 18.8554622,20.302521 L18.8553613,15.9891681 Z M12.1394958,12.4537815 L9.30252101,12.4537815 C8.42184874,12.4537815 7.69243697,12.7630252 7.19159664,13.3478992 C6.72773109,13.8957983 6.4789916,14.6453782 6.4789916,15.5159664 L6.4789916,15.5159664 L6.4789916,16.5848739 C6.4789916,16.9478992 6.73445378,17.2436975 7.04705882,17.2436975 L7.04705882,17.2436975 L14.3983193,17.2436975 C14.7109244,17.2436975 14.9663866,16.9478992 14.9663866,16.5848739 L14.9663866,16.5848739 L14.9630252,15.5159664 C14.9630252,14.6420168 14.7176471,13.892437 14.2504202,13.3478992 C13.7495798,12.7630252 13.0201681,12.4537815 12.1394958,12.4537815 L12.1394958,12.4537815 Z M18.8553613,8.98816807 L18.3243613,8.98816807 L18.3243613,14.6181681 L18.8553613,14.6181681 L18.8553613,8.98816807 Z M10.7176471,5.89579832 C8.86890756,5.89579832 7.80672269,6.96470588 7.80672269,8.81680672 C7.80672269,10.6689076 8.86218487,11.7277311 10.7176471,11.7277311 C12.5731092,11.7277311 13.6386555,10.6722689 13.6386555,8.81680672 C13.6386555,6.96134454 12.5731092,5.89579832 10.7176471,5.89579832 Z M18.3250904,1.98291472 L18.3243613,7.61616807 L18.8553613,7.61616807 L18.8554622,3.30420168 C18.8554622,2.79195476 18.6535667,2.32642091 18.3250904,1.98291472 Z" id="Agenda_3Masa"></path>
        </g>
    </g>
</svg>