<?xml version="1.0" encoding="UTF-8"?>
<svg width="24px" height="24px" viewBox="0 0 24 24" version="1.1" xmlns="http://www.w3.org/2000/svg" xmlns:xlink="http://www.w3.org/1999/xlink">
    <title>3. Masa/Audio_Sonido_3Masa</title>
    <g id="Symbols" stroke="none" stroke-width="1" fill="none" fill-rule="evenodd">
        <g id="3.-Masa/Audio_Sonido_3Masa" fill="#5CB615" fill-rule="nonzero">
            <path d="M20.3260504,4.12941176 C19.8084034,3.65882353 19.0151261,3.70252101 18.5478992,4.22352941 C18.0773109,4.74789916 18.1176471,5.56134454 18.6285714,6.03865546 C18.7294118,6.13277311 21.0487395,8.34453782 21.092437,12.1731092 C21.0957983,12.210084 21.2235294,16.0252101 18.6823529,18.3378151 C18.1613445,18.8117647 18.1176471,19.6252101 18.5815126,20.1563025 C18.8302521,20.4386555 19.1764706,20.5865546 19.5260504,20.5865546 C19.8252101,20.5865546 20.1277311,20.4789916 20.3697479,20.2571429 C23.794958,17.1411765 23.6302521,12.2672269 23.6201681,12.102521 C23.5663866,7.1512605 20.4571429,4.25042017 20.3260504,4.12941176 Z M19.3310924,12.1428571 C19.297479,8.80504202 17.1831933,6.83529412 17.092437,6.75462185 C16.5714286,6.28067227 15.7714286,6.32436975 15.307563,6.85210084 C14.8369748,7.38319328 14.8840336,8.19663866 15.4016807,8.67058824 C15.4184874,8.68403361 16.7798319,9.98823529 16.8033613,12.2134454 C16.8067227,12.2336134 16.8571429,14.4453782 15.4352941,15.7394958 C14.9142857,16.2134454 14.8705882,17.0268908 15.3344538,17.5579832 C15.5831933,17.8436975 15.9294118,17.9882353 16.2789916,17.9882353 C16.5781513,17.9882353 16.8806723,17.8806723 17.1226891,17.6588235 C19.4487395,15.5411765 19.3344538,12.2403361 19.3310924,12.1428571 Z M12.0773109,3.01680672 C8.33613445,3.01680672 6.24201681,4.59327731 5.08571429,6.12605042 L1.26722689,6.12941176 C0.931092437,6.12941176 0.608403361,6.26722689 0.373109244,6.5092437 C0.134453782,6.7512605 0.00336134454,7.07731092 0.00336134454,7.41680672 L0.0134453782,16.4655462 C0.0134453782,17.1747899 0.581512605,17.7495798 1.27731092,17.7495798 L5.06890756,17.7462185 C6.21848739,19.2789916 8.32605042,20.8453782 12.1747899,20.8453782 C13.2806723,20.8453782 14.1781513,19.9310924 14.1781513,18.805042 L14.1781513,5.06722689 C14.1781513,3.93781513 13.2739496,3.01680672 12.0773109,3.01680672 Z" id="Audio_Sonido_3Masa"></path>
        </g>
    </g>
</svg>