<?xml version="1.0" encoding="UTF-8"?>
<svg width="24px" height="24px" viewBox="0 0 24 24" version="1.1" xmlns="http://www.w3.org/2000/svg" xmlns:xlink="http://www.w3.org/1999/xlink">
    <title>3. Masa/Copiar_3Masa</title>
    <g id="Symbols" stroke="none" stroke-width="1" fill="none" fill-rule="evenodd">
        <g id="3.-Masa/Copiar_3Masa" fill="#5CB615" fill-rule="nonzero">
            <path d="M1.52941176,15.0857143 L1.52941176,1.80840336 C1.52941176,1.65378151 1.65714286,1.52605042 1.81176471,1.52605042 L15.0857143,1.52605042 C15.2403361,1.52605042 15.3680672,1.65378151 15.3680672,1.80840336 L15.3680672,15.0857143 C15.3680672,15.2403361 15.2403361,15.3680672 15.0857143,15.3680672 L1.81176471,15.3680672 C1.65378151,15.3680672 1.52941176,15.2436975 1.52941176,15.0857143 Z M21.8722689,6.72268908 L16.9008403,6.72268908 L16.9008403,1.81176471 C16.9008403,0.813445378 16.087395,0 15.0890756,0 L1.81512605,0 C0.816806723,0 0.00336134454,0.813445378 0.00336134454,1.81176471 L0.00336134454,15.0890756 C0.00336134454,16.087395 0.816806723,16.9008403 1.81512605,16.9008403 L6.72268908,16.9008403 L6.72268908,21.8722689 C6.72268908,22.8369748 7.5092437,23.6235294 8.47394958,23.6235294 L21.8689076,23.6235294 C22.8336134,23.6235294 23.6201788,22.8369748 23.6201788,21.8722689 L23.6201788,8.47394958 C23.6235294,7.5092437 22.8369748,6.72268908 21.8722689,6.72268908 Z" id="Copiar_3Masa"></path>
        </g>
    </g>
</svg>