<?xml version="1.0" encoding="UTF-8"?>
<svg width="24px" height="24px" viewBox="0 0 24 24" version="1.1" xmlns="http://www.w3.org/2000/svg" xmlns:xlink="http://www.w3.org/1999/xlink">
    <title>3. Masa/Documento_Archivo PDF_3Masa</title>
    <g id="Symbols" stroke="none" stroke-width="1" fill="none" fill-rule="evenodd">
        <g id="3.-Masa/Documento_Archivo-PDF_3Masa" fill="#5CB615" fill-rule="nonzero">
            <path d="M16.2117647,0.0302521008 C16.487395,0.0302521008 16.7462185,0.134453782 16.9445378,0.322689076 L23.3042017,6.48067227 C23.4352941,6.60840336 23.512605,6.77310924 23.5663866,6.94453782 C23.6033613,7.03193277 23.6235294,7.12941176 23.6235294,7.2302521 L23.6235294,21.9966387 C23.6235294,22.897479 22.8504202,23.6571429 21.9327731,23.6571429 L7.31428571,23.6571429 C6.41344538,23.6571429 5.62352941,22.8806723 5.62352941,21.9966387 L5.66386555,18.6722689 L2.90420168,18.6722689 C1.30420168,18.6722689 2.19149143e-10,17.3647059 2.19149143e-10,15.7613445 L2.19149143e-10,10.8470588 C2.19149143e-10,9.24369748 1.30420168,7.93613445 2.90420168,7.93613445 L5.62352941,7.93613445 L5.62352941,1.6907563 C5.62352941,0.820168067 6.4302521,0.0302521008 7.31428571,0.0302521008 L16.2117647,0.0302521008 Z M14.7193277,9.39495798 L2.90420168,9.39495798 C2.10420168,9.39495798 1.45546219,10.0470588 1.45546219,10.8470588 L1.45546219,15.7613445 C1.45546219,16.5613445 2.10420168,17.2134454 2.90420168,17.2134454 L14.7193277,17.2134454 C15.5193277,17.2134454 16.1680672,16.5613445 16.1680672,15.7613445 L16.1680672,10.8470588 C16.1680672,10.0470588 15.5193277,9.39495798 14.7193277,9.39495798 Z M8.4907563,11.1563025 C9.33445378,11.1563025 9.89579832,11.287395 10.2655462,11.6571429 C10.6218487,12.0067227 10.8067227,12.5613445 10.8067227,13.3613445 C10.8067227,14.1680672 10.6319328,14.7260504 10.2655462,15.102521 C9.93277311,15.4420168 9.42184874,15.6033613 8.62857143,15.6033613 L7.11932773,15.6033613 L7.11932773,11.1563025 L8.4907563,11.1563025 Z M4.6184874,11.1563025 C5.31428571,11.1563025 5.75462185,11.2537815 6.04033613,11.5193277 C6.28235294,11.7411765 6.39663866,12.0840336 6.39663866,12.5579832 C6.39663866,13.0319328 6.28571429,13.3915966 6.06386555,13.6369748 C5.80504202,13.9294118 5.40168067,14.0672269 4.81680672,14.0672269 L4.10084034,14.0672269 L4.10084034,15.6 L3.09243697,15.6 L3.09243697,11.1563025 L4.6184874,11.1563025 Z M14.5109244,11.1563025 L14.4336134,11.8890756 L12.594958,11.8890756 L12.594958,12.9680672 L14.0504202,12.9680672 L14.0504202,13.7277311 L12.594958,13.7277311 L12.594958,15.6 L11.5798319,15.6 L11.5798319,11.1563025 L14.5109244,11.1563025 Z M8.44369748,11.8991597 L8.13109244,11.8991597 L8.13109244,14.8638655 L8.56134454,14.8638655 C9.01512605,14.8638655 9.34117647,14.7260504 9.51596639,14.4672269 C9.6907563,14.2084034 9.7512605,13.9092437 9.7512605,13.3613445 C9.7512605,12.7226891 9.65378151,12.4235294 9.43865546,12.1915966 C9.23697479,11.9764706 8.93781513,11.8991597 8.44369748,11.8991597 Z M4.57815126,11.892437 L4.10420168,11.892437 L4.10420168,13.3109244 L4.60504202,13.3109244 L4.60504202,13.307563 C4.93109244,13.307563 5.06554622,13.2605042 5.19663866,13.1394958 C5.31428571,13.0218487 5.37142857,12.8336134 5.37142857,12.5747899 C5.37142857,12.3361345 5.3210084,12.1579832 5.20336134,12.0470588 C5.0789916,11.9361345 4.8907563,11.892437 4.57815126,11.892437 Z M16.6151261,2.03361345 L16.6151261,4.1512605 C16.6151261,4.94117647 16.8739496,5.60672269 17.3613445,6.08067227 C17.8588235,6.56134454 18.5579832,6.81344538 19.3915966,6.81344538 L21.549,6.8132521 L16.6151261,2.03361345 Z" id="Documento_Archivo-PDF_3Masa"></path>
        </g>
    </g>
</svg>