<?xml version="1.0" encoding="UTF-8"?>
<svg width="24px" height="24px" viewBox="0 0 24 24" version="1.1" xmlns="http://www.w3.org/2000/svg" xmlns:xlink="http://www.w3.org/1999/xlink">
    <title>3. Masa/Factura_Plan_Documento_3Masa</title>
    <g id="Symbols" stroke="none" stroke-width="1" fill="none" fill-rule="evenodd">
        <g id="3.-Masa/Factura_Plan_Documento_3Masa" fill="#5CB615" fill-rule="nonzero">
            <path d="M20.2134454,6.40336134 L13.6588235,0.18487395 C13.5344538,0.0672268908 13.3697479,0 13.1983193,0 L4.34117647,0 C3.65882353,0 3.01344538,0.645378151 3.01344538,1.32773109 L3.01344538,22.302521 C3.01344538,23.0084034 3.63529412,23.6302521 4.34117647,23.6302521 L19.097479,23.6302521 C19.8033613,23.6302521 20.4252101,23.0084034 20.4252101,22.302521 L20.4252101,6.8907563 C20.4252101,6.70588235 20.3478992,6.53109244 20.2134454,6.40336134 Z M15.9714286,20.0168067 L7.45042017,20.0168067 C7.08067227,20.0168067 6.77815126,19.7142857 6.77815126,19.3445378 C6.77815126,18.9747899 7.08067227,18.6722689 7.45042017,18.6722689 L15.9714286,18.6722689 C16.3411765,18.6722689 16.6436975,18.9747899 16.6436975,19.3445378 C16.6436975,19.7142857 16.3411765,20.0168067 15.9714286,20.0168067 Z M15.9714286,16.410084 L7.45042017,16.410084 C7.08067227,16.410084 6.77815126,16.107563 6.77815126,15.7378151 C6.77815126,15.3680672 7.08067227,15.0655462 7.45042017,15.0655462 L15.9714286,15.0655462 C16.3411765,15.0655462 16.6436975,15.3680672 16.6436975,15.7378151 C16.6436975,16.107563 16.3411765,16.410084 15.9714286,16.410084 Z M15.9714286,12.8067227 L7.45042017,12.8067227 C7.08067227,12.8067227 6.77815126,12.5042017 6.77815126,12.1344538 C6.77815126,11.7647059 7.08067227,11.4621849 7.45042017,11.4621849 L15.9714286,11.4621849 C16.3411765,11.4621849 16.6436975,11.7647059 16.6436975,12.1344538 C16.6436975,12.5042017 16.3411765,12.8067227 15.9714286,12.8067227 Z M16.1394958,6.87394958 C15.3563025,6.87394958 14.7008403,6.62857143 14.2403361,6.16806723 C13.7798319,5.70756303 13.5344538,5.0487395 13.5344538,4.26890756 L13.5344538,1.91932773 L18.7579832,6.87394958 L16.1394958,6.87394958 L16.1394958,6.87394958 Z" id="Factura_Plan_Documento_3Masa"></path>
        </g>
    </g>
</svg>