<?xml version="1.0" encoding="UTF-8"?>
<svg width="24px" height="24px" viewBox="0 0 24 24" version="1.1" xmlns="http://www.w3.org/2000/svg" xmlns:xlink="http://www.w3.org/1999/xlink">
    <title>3. Masa/Maletin _3Masa</title>
    <g id="Symbols" stroke="none" stroke-width="1" fill="none" fill-rule="evenodd">
        <g id="3.-Masa/Maletin-_3Masa" fill="#5CB615" fill-rule="nonzero">
            <path d="M13.989916,17.3983193 L13.989916,15.6941176 C17.7210084,15.4319328 21.3142857,14.4941176 23.6235294,13.189916 L23.6235294,21.8621849 C23.6235294,22.8336134 22.8403361,23.6235294 21.8756303,23.6235294 L1.74789916,23.6235294 C0.783193277,23.6235294 3.94430453e-31,22.8336134 3.94430453e-31,21.8621849 L3.94430453e-31,12.9613445 C2.29915966,14.3663866 5.89579832,15.3781513 9.6302521,15.6739496 L9.6302521,17.3983193 C9.6302521,17.8151261 9.81848739,18.1613445 10.1512605,18.3798319 C10.3966387,18.5378151 10.702521,18.6184874 11.0957983,18.6184874 L12.5344538,18.6184874 C12.9176471,18.6184874 13.2336134,18.5378151 13.4689076,18.3798319 C13.805042,18.1613445 13.989916,17.8151261 13.989916,17.3983193 Z M16.2487395,6.02352941 L16.2487395,5.60336134 C16.2487395,3.33445378 14.3058824,1.48907563 11.9226891,1.48907563 L11.7008403,1.48907563 C9.31428571,1.48907563 7.37478992,3.33445378 7.37478992,5.60336134 L7.37478992,6.02352941 L16.2487395,6.02352941 Z M21.8756303,6.02352941 C22.8403361,6.02352941 23.6235294,6.81344538 23.6235294,7.78487395 L23.6235294,11.4386555 C21.3310924,13.0991597 16.4773109,14.2890756 11.902521,14.2890756 C7.24033613,14.2890756 2.2789916,12.9815126 -1.77635684e-15,11.1697479 L-1.77635684e-15,7.78487395 C-1.77635684e-15,6.81344538 0.783193277,6.02352941 1.7512605,6.02352941 L5.89915966,6.02352941 L5.89915966,5.60336134 C5.89915966,2.51428571 8.50420168,0.00336134454 11.7042017,0.00336134454 L11.9260504,0.00336134454 C15.1260504,0.00336134454 17.7310924,2.51764706 17.7310924,5.60336134 L17.7310924,6.02352941 L21.8756303,6.02352941 Z M11.1058824,17.1327731 L11.1058824,15.7747899 L12.5142857,15.7747899 L12.5142857,17.1327731 L11.1058824,17.1327731 Z" id="Maletin-_3Masa"></path>
        </g>
    </g>
</svg>