<?xml version="1.0" encoding="UTF-8"?>
<svg width="24px" height="24px" viewBox="0 0 24 24" version="1.1" xmlns="http://www.w3.org/2000/svg" xmlns:xlink="http://www.w3.org/1999/xlink">
    <title>3. Masa/Millenials_3Masa</title>
    <g id="Symbols" stroke="none" stroke-width="1" fill="none" fill-rule="evenodd">
        <g id="3.-Masa/Millenials_3Masa" fill="#5CB615" fill-rule="nonzero">
            <path d="M12.3966387,10.3361345 C13.4722689,10.3361345 14.312605,10.6151261 14.897479,11.1663866 C15.502521,11.7344538 15.8117647,12.5815126 15.8117647,13.6739496 C15.8117647,14.7697479 15.5058824,15.6134454 14.897479,16.1815126 C14.3159664,16.7260504 13.4756303,17.005042 12.3966387,17.005042 C11.3210084,17.005042 10.4806723,16.7260504 9.89915966,16.1815126 C9.29747899,15.6134454 8.98823529,14.7697479 8.98823529,13.6739496 C8.98823529,12.5815126 9.29411765,11.7344538 9.89915966,11.1663866 C10.4806723,10.6151261 11.3176471,10.3361345 12.3966387,10.3361345 L12.3966387,10.3361345 Z M14.4739496,18.4672269 C15.7378151,18.4672269 16.7764706,18.8403361 17.4756303,19.5529412 C18.1142857,20.205042 18.4571429,21.1092437 18.4571429,22.1714286 L18.4571429,23.2806723 C18.4571429,23.4890756 18.2857143,23.6605042 18.0705882,23.6605042 L6.73613445,23.6605042 C6.5210084,23.6605042 6.34957983,23.4890756 6.34957983,23.2806723 L6.34957983,22.1714286 C6.34957983,21.112605 6.68571429,20.205042 7.32773109,19.5529412 C8.02352941,18.8403361 9.05882353,18.4672269 10.3260504,18.4672269 L14.4739496,18.4672269 Z M20.5680672,3.34789916 C20.8571429,3.66722689 20.8302521,4.15462185 20.5042017,4.44033613 C20.3529412,4.57142857 20.1647059,4.63529412 19.9764706,4.63529412 C19.7579832,4.63529412 19.5428571,4.54789916 19.3882353,4.37647059 C16.6554622,1.38823529 12.4201681,1.57647059 12.3764706,1.58319328 C7.83193277,1.63361345 5.43529412,4.16470588 5.41176471,4.18823529 C5.11596639,4.50420168 4.61512605,4.52773109 4.29243697,4.24201681 C3.9697479,3.95630252 3.94285714,3.46554622 4.23865546,3.14957983 C4.35630252,3.02521008 7.13277311,0.0907563025 12.3226891,0.0369747899 C12.4840336,0.0302521008 17.3142857,-0.211764706 20.5680672,3.34789916 L20.5680672,3.34789916 Z M12.3294118,3.43865546 C12.4638655,3.42521008 16.312605,3.30084034 18.7697479,5.98655462 C19.0621849,6.30252101 19.0319328,6.79327731 18.7058824,7.07563025 C18.3798319,7.36470588 17.8823529,7.33445378 17.589916,7.01848739 C15.6436975,4.8907563 12.4033613,4.98151261 12.3697479,4.98487395 C9.14957983,5.02184874 7.22352941,7.03865546 7.20672269,7.06218487 C7.0487395,7.22689076 6.83697479,7.31428571 6.61848739,7.31428571 C6.4302521,7.31428571 6.23865546,7.24705882 6.08739496,7.11596639 C5.76470588,6.82689076 5.73781513,6.34285714 6.02689076,6.02352941 C6.12773109,5.91596639 8.41680672,3.48235294 12.3294118,3.43865546 Z M16.5815126,9.71092437 C16.2521008,9.99327731 15.7546218,9.96638655 15.4621849,9.64705882 C14.3294118,8.40672269 12.4235294,8.45714286 12.3932773,8.45714286 C10.4840336,8.47731092 9.37478992,9.62689076 9.32773109,9.67731092 C9.17310924,9.84201681 8.95798319,9.92605042 8.74285714,9.92605042 C8.55462185,9.92605042 8.36302521,9.86218487 8.21176471,9.72773109 C7.89243697,9.43865546 7.86554622,8.95798319 8.15798319,8.63865546 C8.22184874,8.56806723 9.7512605,6.93781513 12.3529412,6.91092437 C12.4369748,6.91092437 15.0016807,6.82016807 16.6453782,8.61848739 C16.9344538,8.93781513 16.907563,9.42521008 16.5815126,9.71092437 Z" id="Millenials_3Masa"></path>
        </g>
    </g>
</svg>