<?xml version="1.0" encoding="UTF-8"?>
<svg width="24px" height="24px" viewBox="0 0 24 24" version="1.1" xmlns="http://www.w3.org/2000/svg" xmlns:xlink="http://www.w3.org/1999/xlink">
    <title>3. Masa/Museo_3Masa</title>
    <g id="Symbols" stroke="none" stroke-width="1" fill="none" fill-rule="evenodd">
        <g id="3.-Masa/Museo_3Masa" fill="#5CB615" fill-rule="nonzero">
            <path d="M7.28739496,18.6184874 L9.65714286,18.6184874 L9.65714286,9.19663866 L7.28739496,9.19663866 L7.28739496,18.6184874 L7.28739496,18.6184874 Z M14.0067227,18.6184874 L16.3764706,18.6184874 L16.3764706,9.19663866 L14.0067227,9.19663866 L14.0067227,18.6184874 L14.0067227,18.6184874 Z M22.887395,9.19663866 C23.210084,9.19663866 23.4957983,8.98823529 23.589916,8.6789916 C23.6840336,8.3697479 23.5697479,8.03697479 23.307563,7.8487395 L12.2319328,0.131092437 C11.9798319,-0.043697479 11.6470588,-0.043697479 11.3915966,0.131092437 L0.315966387,7.8487395 C0.0504201681,8.03361345 -0.0605042017,8.3697479 0.0336134454,8.67563025 C0.131092437,8.98487395 0.413445378,9.19327731 0.736134454,9.19327731 L2.93109244,9.19327731 L2.93109244,18.6151261 L0.796638655,18.6151261 C0.389915966,18.6151261 0.0605042017,18.9478992 0.0605042017,19.3546218 L0.0605042017,22.8806723 C0.0605042017,23.287395 0.389915966,23.6201681 0.796638655,23.6201681 L22.8235294,23.6201681 C23.2302521,23.6201681 23.5596639,23.287395 23.5596639,22.8806723 L23.5596639,19.3546218 C23.5596639,18.9478992 23.2302521,18.6151261 22.8235294,18.6151261 L20.7294118,18.6151261 L20.7294118,9.19327731 L22.887395,9.19327731 L22.887395,9.19663866 Z" id="Museo_3Masa"></path>
        </g>
    </g>
</svg>