<?xml version="1.0" encoding="UTF-8"?>
<svg width="24px" height="24px" viewBox="0 0 24 24" version="1.1" xmlns="http://www.w3.org/2000/svg" xmlns:xlink="http://www.w3.org/1999/xlink">
    <title>3. Masa/Paragüas _3Masa</title>
    <g id="Symbols" stroke="none" stroke-width="1" fill="none" fill-rule="evenodd">
        <g id="3.-Masa/Paragüas-_3Masa" fill="#5CB615" fill-rule="nonzero">
            <path d="M12.6689076,3.01848739 C14.3327731,3.76470588 17.7478992,6.35630252 18.5210084,12.4941176 C18.5243697,12.5109244 18.5344538,12.5243697 18.5344538,12.5378151 L12.6621849,12.5210084 C12.6655462,12.5243697 12.6689076,3.01848739 12.6689076,3.01848739 Z M4.97142857,12.5042017 C5.88907563,6.77647059 9.42521008,3.93613445 11.1563025,3.05546218 L11.1630252,12.5210084 L4.97142857,12.5042017 Z M23.6302521,10.4336134 C23.7176471,10.9344538 23.5798319,11.4655462 23.2504202,11.8789916 C22.8806723,12.3092437 22.3630252,12.5445378 21.8117647,12.5478992 L19.9798319,12.5445378 C19.9966387,12.4705882 20.0033613,12.3932773 19.9966387,12.3159664 C19.0319328,4.65882353 14.3495798,2.01680672 12.6722689,1.43529412 C16.1680672,1.58655462 18.907563,2.6487395 20.8369748,4.61848739 C22.2823529,6.09411765 23.2235294,8.05378151 23.6302521,10.4336134 Z M11.1495798,1.43865546 C9.52268908,2.12773109 4.54117647,5.1697479 3.46218487,12.4941176 L3.46218487,12.5008403 L1.88571429,12.497479 C1.5394958,12.4907563 1.20336134,12.3966387 0.907563025,12.2184874 C0.742857143,12.1176471 0.598319328,11.989916 0.47394958,11.8453782 C0.11092437,11.405042 -0.0336134454,10.8705882 0.0605042017,10.3563025 C0.484033613,7.97647059 1.44201681,6.02689076 2.90420168,4.56470588 C4.85378151,2.59831933 7.6302521,1.55294118 11.1495798,1.43865546 Z M15.8789916,20.2016807 C16.2857143,20.1983193 16.6184874,20.5277311 16.6218487,20.9344538 C16.6218487,22.4168067 15.3983193,23.6235294 13.8957983,23.6235294 C12.4134454,23.6235294 11.2,22.4504202 11.1697479,20.994958 L11.1663866,20.9445378 L11.1663866,12.5210084 L12.6521008,12.5210084 L12.6521008,20.9344538 C12.6521008,21.6067227 13.2067227,22.1579832 13.892437,22.1579832 C14.5747899,22.1579832 15.1294118,21.610084 15.1294118,20.9344538 C15.1394958,20.5277311 15.4722689,20.1983193 15.8789916,20.2016807 L15.8789916,20.2016807 Z M12.6487395,1.43529412 L11.1764706,1.43529412 C11.1764706,1.42184874 11.1697479,1.40840336 11.1697479,1.39495798 L11.1697479,0.732773109 C11.1731092,0.32605042 11.5058824,-0.00336134454 11.912605,4.05383192e-16 C12.3193277,-0.00336134454 12.6521008,0.32605042 12.6554622,0.732773109 L12.6554622,1.39159664 C12.6588235,1.40840336 12.6521008,1.41848739 12.6487395,1.43529412 L12.6487395,1.43529412 Z" id="Paragüas-_3Masa"></path>
        </g>
    </g>
</svg>