<svg xmlns="http://www.w3.org/2000/svg" width="24" height="24" fill="none"><path fill="#00001E" d="M5.348 2h13.296c.4 0 .718.326.723.73V22h-9.345v-5.454H8.223v5.45H4.63V2.725c0-.4.322-.726.718-.726m6.11 18.544h6.469V3.456H6.065v17.088h.718V15.09h4.675zm-4.675-7.455h4.675V9.818H6.783zm3.593-2.178V12H7.86v-1.089zm2.158 2.178h4.675V9.818h-4.675zm3.594-2.178V12H13.61v-1.089zm-3.594 7.45h4.675V15.09h-4.675zm3.594-2.182v1.089H13.61v-1.09zM6.783 8.003h4.675V4.727H6.783zm3.593-2.183v1.09H7.86V5.82zm2.158 2.183h4.675V4.727h-4.675zm3.594-2.183v1.09H13.61V5.82z"/></svg>