<svg xmlns="http://www.w3.org/2000/svg" width="24" height="24" fill="none"><path fill="#00001E" d="M19.934 5.57H4.062c-1.139 0-2.064.932-2.064 2.075v8.707c0 1.143.925 2.075 2.064 2.075h15.872c1.139 0 2.064-.932 2.064-2.075V7.645a2.07 2.07 0 0 0-2.064-2.075m.636 10.782a.64.64 0 0 1-.636.646H4.062a.64.64 0 0 1-.635-.646V7.645c0-.357.285-.646.635-.646h15.872c.35 0 .636.289.636.646zM4.17 13.96V8.245a.535.535 0 1 1 1.07 0v5.714a.535.535 0 1 1-1.07 0m2.82-5.71v5.714a.535.535 0 1 1-1.07 0V8.249a.535.535 0 1 1 1.07 0m3.583 0v5.714a.535.535 0 1 1-1.071 0V8.249a.535.535 0 1 1 1.071 0m-2.857 5.71V8.245a.535.535 0 1 1 1.071 0v5.714a.535.535 0 1 1-1.071 0m4.818-5.71v7.503a.535.535 0 1 1-1.072 0V8.25a.535.535 0 1 1 1.072 0m2.325 0v5.714a.535.535 0 1 1-1.072 0V8.249a.535.535 0 1 1 1.072 0m1.068 5.7V8.234a.535.535 0 1 1 1.071 0v5.714a.535.535 0 1 1-1.071 0m3.928-5.7v7.503a.535.535 0 1 1-1.071 0V8.25a.535.535 0 1 1 1.071 0M6.991 15.752c0 .297-.24.536-.536.536H4.684a.535.535 0 1 1 0-1.072h1.771c.297 0 .536.24.536.536m3.582 0c0 .297-.24.536-.536.536H8.252a.535.535 0 1 1 0-1.072h1.785c.293 0 .536.24.536.536m4.286 0c0 .297-.24.536-.536.536h-.714a.535.535 0 1 1 0-1.072h.714c.297 0 .536.24.536.536m3.221 0c0 .297-.24.536-.535.536h-1.43a.535.535 0 1 1 0-1.072h1.43c.292 0 .535.24.535.536"/></svg>