<svg xmlns="http://www.w3.org/2000/svg" width="24" height="24" fill="none"><path fill="#003" d="M22.372 8.429a4.47 4.47 0 0 0-3.75-4.4V2H9.04L3.622 7.418V22h15v-9.171a4.47 4.47 0 0 0 3.75-4.4m-13.75-3.99V7h-2.56zM5.051 20.571V8.43h5v-5h7.143v.6a4.457 4.457 0 0 0 0 8.8v7.742zm12.857-8.75a3.393 3.393 0 1 1 0-6.785 3.393 3.393 0 0 1 0 6.785"/><path fill="#003" d="M19.597 6.74a.54.54 0 0 0-.757 0l-.932.931-.932-.932a.535.535 0 1 0-.757.757l.932.933-.932.932a.54.54 0 0 0 0 .757.55.55 0 0 0 .583.116.5.5 0 0 0 .174-.116l.932-.932.932.932a.534.534 0 0 0 .913-.379.54.54 0 0 0-.156-.378l-.932-.932.932-.933a.54.54 0 0 0 0-.757m-4.546 9.903H7.194a.714.714 0 1 0 0 1.428h7.857a.714.714 0 0 0 0-1.428m0-3.572H7.194a.714.714 0 1 0 0 1.429h7.857a.714.714 0 1 0 0-1.428"/></svg>