<svg xmlns="http://www.w3.org/2000/svg" width="24" height="24" fill="none"><path fill="#00001E" d="M12.17 5.852a3.87 3.87 0 0 0-2.785-1 .74.74 0 0 0-.496.229.714.714 0 0 0 .568 1.195A2.413 2.413 0 0 1 12.02 8.59c.007.19.09.368.228.496.11.096.243.16.386.186h.114a.71.71 0 0 0 .492-.228.71.71 0 0 0 .182-.51 3.82 3.82 0 0 0-1.238-2.67z"/><path fill="#00001E" d="M9.178 4.135A4.234 4.234 0 0 1 13.78 8.35c.01.189.093.366.232.493a.71.71 0 0 0 .482.182h.036a.714.714 0 0 0 .678-.714 5.67 5.67 0 0 0-1.849-4.116 5.63 5.63 0 0 0-4.262-1.467.71.71 0 0 0-.489.229.71.71 0 0 0-.182.514.714.714 0 0 0 .753.664M2.714 12.7h1.428a.714.714 0 1 0 0-1.427H2.714a.714.714 0 1 0 0 1.427m0 2.142H6.64a.714.714 0 1 0 0-1.428H2.714a.714.714 0 1 0 0 1.428"/><path fill="#00001E" d="m21.918 14.79-.325-1.04a1.7 1.7 0 0 0-1.353-1.117l-7.888-2.002-3.63-3.64H2.713a.714.714 0 0 0 0 1.427h5.415l3.509 3.498 8.302 2.11h.093a.27.27 0 0 1 .218.157l.31 1.053a.3.3 0 0 1 0 .203l-.714 2.278h-2.673a3.399 3.399 0 0 0-6.782 0H2.714a.714.714 0 1 0 0 1.427h7.906a3.402 3.402 0 0 0 6.318 0h3.927L21.85 16c.173-.381.197-.813.068-1.21m-6.193 3.412v.043q-.03.15-.082.293v.046a2 2 0 0 1-.133.271v.032q-.078.135-.178.257a1.974 1.974 0 0 1-3.034 0 2 2 0 0 1-.178-.257l-.022-.032a3 3 0 0 1-.128-.271v-.046a2 2 0 0 1-.083-.293.2.2 0 0 0 0-.043 2.4 2.4 0 0 1-.028-.325 1 1 0 0 1 0-.16 1.974 1.974 0 0 1 3.926 0q.006.08 0 .16-.015.166-.06.325"/></svg>