<svg xmlns="http://www.w3.org/2000/svg" width="24" height="24" fill="none"><path fill="#00001E" d="M2 12C2 6.488 6.488 2 12 2s10 4.488 10 10-4.488 10-10 10S2 17.512 2 12m17.67 1.147.557 1.243q.302-1.035.338-2.166zm.813-2.372a8.57 8.57 0 0 0-2.55-4.95l-2.414.48-.928 1.824 2.02 3.949 2.263.356zm-14.25 4.721-.275 2.574a8.55 8.55 0 0 0 4.968 2.43l1.499-1.676-.197-2.386-3.93-1.997zM3.91 14.83c.27.754.636 1.463 1.093 2.107l.16-1.5zm10.6 5.366-1.34-.599-.86.964a8.5 8.5 0 0 0 2.2-.365m-1.875-4.758 2.962-2.975-1.91-3.739-4.15.663-.65 4.15zm4.223-10.494a8.4 8.4 0 0 0-1.974-1.014l.68 1.275zm-3.39-1.384a8 8 0 0 0-1.463-.124 8.54 8.54 0 0 0-4 .992l-.31 2.363 1.563 1.558 4.378-.704.983-1.937zM6.643 6.552l.178-1.376a8.8 8.8 0 0 0-1.696 1.71zm-2.3 1.609A8.4 8.4 0 0 0 3.436 12c0 .503.046.992.128 1.467l2.203 1.07 2.052-1.052.686-4.378L6.973 7.58zm9.141 10.402 2.4 1.07a8.64 8.64 0 0 0 3.802-3.844l-1.042-2.308-2.198-.348-3.149 3.159z"/></svg>