<svg xmlns="http://www.w3.org/2000/svg" width="24" height="24" fill="none"><path fill="#00001E" d="M12.254 5.96a5.795 5.795 0 0 0-5.79 5.79 5.795 5.795 0 0 0 5.79 5.79 5.795 5.795 0 0 0 5.79-5.79 5.795 5.795 0 0 0-5.79-5.79m4.686 5.254h-1.711c-.064-1.479-.393-2.764-.896-3.693a4.72 4.72 0 0 1 2.607 3.693m-5.222-3.957v3.957h-1.364c.096-1.918.7-3.41 1.364-3.957m0 5.028v3.958c-.664-.547-1.268-2.04-1.364-3.958zm1.072 3.958v-3.958h1.364c-.097 1.915-.7 3.411-1.364 3.958m0-5.029V7.257c.664.546 1.268 2.04 1.364 3.957zm-2.611-3.693c-.507.929-.832 2.214-.897 3.693h-1.71a4.71 4.71 0 0 1 2.607-3.693m-2.61 4.764h1.71c.064 1.479.393 2.765.896 3.693a4.73 4.73 0 0 1-2.607-3.693m6.76 3.693c.507-.928.832-2.214.896-3.693h1.711a4.71 4.71 0 0 1-2.607 3.693"/><path fill="#00001E" d="M12.357 2.003c-5.318 0-9.643 4.325-9.643 9.643 0 1.375.283 2.7.843 3.943l-1.532 5.507a.715.715 0 0 0 .879.883l5.51-1.533a9.6 9.6 0 0 0 3.943.843c5.318 0 9.643-4.325 9.643-9.643s-4.325-9.643-9.643-9.643m0 17.858a8.16 8.16 0 0 1-3.571-.815.72.72 0 0 0-.504-.046l-4.539 1.26 1.26-4.542a.72.72 0 0 0-.046-.504 8.16 8.16 0 0 1-.814-3.571c0-4.529 3.686-8.215 8.214-8.215s8.215 3.686 8.215 8.215c0 4.528-3.682 8.218-8.215 8.218"/></svg>