<svg xmlns="http://www.w3.org/2000/svg" width="24" height="24" fill="none"><path fill="#003" d="m21.815 20.904-2.456-2.455c.819-.202 1.542-.822 1.542-1.674V7.966c0-1.028-.9-1.927-1.927-1.927H16.84l-2.386-2.213a.64.64 0 0 0-.436-.173L9.622 3.65a.64.64 0 0 0-.437.172L6.88 5.97 3.096 2.185a.64.64 0 0 0-.907 0 .64.64 0 0 0 0 .907l2.951 2.95-.48-.003c-1.028 0-1.928.9-1.928 1.927v8.81c0 1.009.734 1.743 1.744 1.743h13.136l3.292 3.292c.125.125.29.187.456.187a.642.642 0 0 0 .455-1.094M9.875 4.934l3.89.004 2.386 2.213c.118.11.276.173.437.173h2.386c.304 0 .642.338.642.642v8.81c0 .19-.415.458-.826.458h-.646l-2.976-2.977a4.3 4.3 0 0 0 .965-2.712 4.317 4.317 0 0 0-4.313-4.313 4.3 4.3 0 0 0-2.712.965L7.794 6.883zm-.705 5.143 4.115 4.114a3 3 0 0 1-1.469.382 3.03 3.03 0 0 1-3.028-3.028c0-.532.14-1.032.382-1.468m.852-.966a3 3 0 0 1 1.794-.594 3.03 3.03 0 0 1 3.029 3.028c0 .672-.224 1.292-.595 1.795zm-5.546 8.123c-.309 0-.46-.15-.46-.459V7.966c0-.304.339-.642.64-.642l1.776.015 1.806 1.805a4.3 4.3 0 0 0-.734 2.4 4.317 4.317 0 0 0 4.313 4.313c.888 0 1.714-.271 2.4-.733l2.11 2.11z"/></svg>