<svg xmlns="http://www.w3.org/2000/svg" width="24" height="24" fill="none"><path fill="#003" d="M4.31 7.42 9.617 2h10.078v20H4.31zM9.206 7V4.44L6.7 7zM5.71 20.57h12.588V3.43h-7.693v5H5.711zm8.157-10.197a2.24 2.24 0 0 0-1.427-.517c-1.253 0-2.273 1.043-2.278 2.322v1.248a.707.707 0 0 0-.698.713c0 .393.313.713.698.713v1.426a.35.35 0 0 1-.349.356.707.707 0 0 0-.698.713c0 .393.313.713.698.713h4.372c.385 0 .698-.32.698-.713a.707.707 0 0 0-.698-.713h-2.658q.035-.171.036-.356v-1.426h1.396c.385 0 .698-.32.698-.713a.707.707 0 0 0-.698-.713h-1.396v-1.248c0-.489.39-.891.872-.891.206 0 .394.069.55.196.3.247.744.202.985-.105a.727.727 0 0 0-.103-1.005"/></svg>