<svg xmlns="http://www.w3.org/2000/svg" width="24" height="24" fill="none"><path fill="#00001E" d="M4.444 21.68c.336.212.71.32 1.08.32.369 0 .739-.108 1.045-.284l13.176-8.112c.034 0 .068-.036.102-.072.472-.432.71-1.108.642-1.752a2.04 2.04 0 0 0-.978-1.572L6.603 2.28c-.642-.396-1.42-.36-2.091.032A2 2 0 0 0 3.5 4.064v15.9c0 .716.336 1.36.944 1.716m.743-18.152a.85.85 0 0 1 .404-.108c.098 0 .2.036.302.072l12.98 7.932a.64.64 0 0 1 .302.5.9.9 0 0 1-.17.5l-13.112 8.04c-.268.144-.57.072-.774-.036-.098-.072-.268-.212-.268-.464v-15.9c0-.284.234-.464.336-.536"/></svg>