<svg xmlns="http://www.w3.org/2000/svg" width="24" height="24" fill="none"><path fill="#003" d="M20.364 2.208a.654.654 0 0 1 .956 0 .73.73 0 0 1-.004 1.004L20.16 4.425v9.06c0 .568-.207 1.1-.593 1.504l-6.084 6.389a1.97 1.97 0 0 1-1.432.622c-.52 0-1.039-.209-1.433-.622l-7.555-7.934c-.381-.4-.593-.936-.593-1.504s.208-1.1.593-1.504L9.15 4.044c.381-.4.892-.623 1.433-.623h8.624zM18.61 13.985c.13-.136.2-.313.2-.504V5.847l-.875.918a.65.65 0 0 1-.952 0 .736.736 0 0 1 0-1.004l.87-.922H10.58a.66.66 0 0 0-.476.209l-6.085 6.388a.73.73 0 0 0 0 1.004l7.551 7.933a.654.654 0 0 0 .957 0zm-1.995-2.399c-2.276 0-4.059-1.95-4.059-4.44a.517.517 0 0 0-.506-.53.517.517 0 0 0-.507.53c0 2.49-1.782 4.44-4.059 4.44a.517.517 0 0 0-.506.532c0 .295.225.531.506.531 2.39 0 4.06 1.677 4.06 4.08 0 .296.225.532.506.532a.517.517 0 0 0 .506-.532c0-2.403 1.67-4.08 4.06-4.08a.517.517 0 0 0 .506-.531.52.52 0 0 0-.507-.532m-6.846.495c.996-.531 1.796-1.408 2.28-2.494.486 1.086 1.286 1.963 2.281 2.494a4.76 4.76 0 0 0-2.28 2.295 4.76 4.76 0 0 0-2.28-2.295"/></svg>