<svg xmlns="http://www.w3.org/2000/svg" width="24" height="24" fill="none"><path fill="#003" d="M9.534 7.355a.713.713 0 0 0-.707.716v10.354c0 .392.316.716.707.716a.71.71 0 0 0 .706-.716V8.07a.716.716 0 0 0-.706-.716M13.763 8.07v10.355c0 .392.316.716.707.716a.71.71 0 0 0 .707-.716V8.07a.713.713 0 0 0-.707-.716.713.713 0 0 0-.707.716"/><path fill="#003" d="M15.177 4.5h5.64a.713.713 0 0 1 .004 1.427h-1.41v13.93c0 1.18-.952 2.143-2.117 2.143H6.714c-1.165 0-2.117-.964-2.117-2.144V5.931h-1.41a.71.71 0 0 1-.707-.716c0-.396.32-.715.707-.715h5.64v-.356c0-1.18.951-2.144 2.116-2.144h2.117c1.165 0 2.117.964 2.117 2.144zm-4.23-1.072a.713.713 0 0 0-.707.716h.004V4.5h3.527v-.356a.713.713 0 0 0-.707-.716zm7.05 16.424V5.927H6.007v13.925c0 .396.32.716.707.716H17.29a.713.713 0 0 0 .707-.716"/></svg>