<svg width="24" height="24" fill="none" xmlns="http://www.w3.org/2000/svg"><path fill-rule="evenodd" clip-rule="evenodd" d="M21.513 12.221c-1.608 1.608-3.244 2.813-4.894 3.608l4.88 4.88a.561.561 0 0 1-.395.958.558.558 0 0 1-.395-.166l-5.2-5.199c-1.226.454-2.459.681-3.694.681-3.266 0-6.51-1.588-9.644-4.723a.562.562 0 0 1 0-.793C3.779 9.86 5.415 8.656 7.067 7.86L2.185 2.978a.561.561 0 0 1 0-.793.558.558 0 0 1 .79 0l5.201 5.199c1.227-.454 2.46-.68 3.695-.68 3.266 0 6.51 1.587 9.642 4.725a.562.562 0 0 1 0 .793Zm-1.197-.398c-2.787-2.655-5.624-4-8.445-4-.935 0-1.874.149-2.812.446l.515.513c.572-.34 1.283-.513 2.123-.513 2.325 0 3.659 1.339 3.659 3.675 0 .84-.171 1.549-.504 2.118l.924.924c1.518-.672 3.036-1.728 4.54-3.163Zm-8.498-1.37c-.18 0-.347.026-.499.074l-1.123-1.124c.41-.196.91-.294 1.502-.294.896 0 1.59.227 2.064.678.498.473.75 1.199.75 2.154 0 .586-.095 1.087-.285 1.496l-1.09-1.09c.045-.14.073-.305.073-.498 0-.846-.546-1.395-1.392-1.395Zm-8.448 1.41c2.787 2.655 5.624 4 8.445 4 .933 0 1.871-.149 2.813-.443l-2.171-2.17-.012.01-.4-.4c-.123-.123-.328-.33-.54-.55-.261-.265-.53-.54-.684-.694l-.41-.406.004-.003L7.91 8.703c-1.52.672-3.036 1.728-4.54 3.16Z" fill="#313235"/></svg>