<svg width="24" height="24" fill="none" xmlns="http://www.w3.org/2000/svg"><path fill-rule="evenodd" clip-rule="evenodd" d="M9.807 11.35c-1.443 0-2.58-.392-3.39-1.17-.843-.81-1.266-1.981-1.266-3.488 0-1.502.423-2.678 1.266-3.488.81-.784 1.947-1.179 3.39-1.179 1.442 0 2.59.392 3.4 1.18.849.809 1.275 1.988 1.275 3.487 0 1.507-.426 2.678-1.275 3.487-.81.779-1.95 1.171-3.4 1.171ZM6.353 6.692c0-1.163.305-2.045.896-2.622.58-.56 1.446-.84 2.558-.84 1.123 0 1.989.28 2.566.84.602.577.907 1.457.907 2.622 0 1.162-.305 2.045-.907 2.622-.577.554-1.435.834-2.566.834-1.124 0-1.98-.282-2.558-.834-.59-.572-.896-1.454-.896-2.622Zm4.12 13.244c-.641 0-1.131-.16-1.49-.482H3.067A1.065 1.065 0 0 1 2 18.394v-1.352c0-1.451.457-2.695 1.33-3.6.947-.994 2.334-1.515 4-1.515h1.813c.336-.224.776-.344 1.33-.344l8.874-.009c.698 0 1.227.185 1.577.552.345.353.521.866.521 1.532v4.177c0 .666-.168 1.179-.512 1.537-.362.37-.9.564-1.586.564h-8.874Zm-.907-2.101v-4.168c0-.328.067-.577.185-.698.112-.12.367-.185.72-.185l8.873-.008c.342 0 .6.073.72.193.112.112.177.359.177.69v4.176c0 .33-.065.585-.177.706-.168.168-.52.193-.72.193h-8.873c-.2 0-.56-.025-.72-.193-.12-.12-.185-.37-.185-.706Zm-1.171.417H3.202l-.003-1.213c0-1.129.344-2.092.994-2.773.715-.742 1.804-1.137 3.135-1.137h1.084c-.025.168-.05.344-.05.538v4.168c.002.14.013.28.033.417Zm12.689 3.462a.601.601 0 1 0 0-1.204H8.764a.601.601 0 1 0 0 1.204h12.32Z" fill="#313235"/></svg>