<svg width="24" height="24" fill="none" xmlns="http://www.w3.org/2000/svg"><path fill-rule="evenodd" clip-rule="evenodd" d="M15.204 21.692c1.107 0 1.91-.266 2.465-.813.555-.551.827-1.364.827-2.479V5.292c0-1.103-.266-1.907-.82-2.465C17.12 2.27 16.313 2 15.204 2H8.65c-1.1 0-1.908.277-2.468.843-.554.563-.823 1.361-.823 2.448v13.11c0 1.114.269 1.927.826 2.479.552.546 1.359.812 2.465.812h6.554ZM6.48 5.292c0-1.541.63-2.172 2.171-2.172h6.554c.796 0 1.348.163 1.678.496.33.334.493.883.493 1.675v13.11c0 1.582-.588 2.17-2.17 2.17H8.65c-1.583 0-2.17-.588-2.17-2.17V5.29Zm5.064 10.447c.096.11.233.174.379.174a.492.492 0 0 0 .375-.174l3.308-3.81a.499.499 0 0 0-.378-.828h-1.49V6.232c.005-.03.005-.058.005-.09a.872.872 0 0 0-.874-.868h-1.837a.9.9 0 0 0-.7.247.86.86 0 0 0-.272.658v4.922H8.622a.506.506 0 0 0-.328.123.498.498 0 0 0-.05.706l3.3 3.81Zm.384 3.62c-.341 0-.627-.107-.82-.306-.194-.199-.289-.47-.289-.81 0-.697.415-1.114 1.112-1.114.697 0 1.11.417 1.11 1.115 0 .341-.099.613-.29.81-.19.195-.481.305-.823.305ZM9.72 12.104l2.202 2.546 2.21-2.546h-.894a.5.5 0 0 1-.501-.502V6.277h-1.675v5.325a.5.5 0 0 1-.502.502h-.84Z" fill="#313235"/></svg>