<svg width="24" height="24" fill="none" xmlns="http://www.w3.org/2000/svg"><path fill-rule="evenodd" clip-rule="evenodd" d="M2.014 4.48V7H3.09l-1.073.003c0 2.902 1.602 4.844 4.515 4.844 1.23 0 2.225-.285 2.965-.833.197.424.372.882.525 1.374.675 2.16.807 4.504.894 6.053l.002.037c.035.604.063 1.082.115 1.406a.54.54 0 0 0 .526.453h.01a.543.543 0 0 0 .531-.453c.13-.804.527-3.244 1.5-5.569.117-.282.239-.551.364-.808.757.65 1.825.99 3.173.99 2.8 0 4.39-1.466 4.508-4.137a.535.535 0 0 0 .008-.087V7.2c0-.896-.737-1.624-1.642-1.624h-2.876c-2.909 0-4.51 1.586-4.51 4.462 0 1.022.202 1.88.593 2.562-.216.405-.42.839-.613 1.3a21.003 21.003 0 0 0-.775 2.217c-.188-1.858-.579-4.063-1.533-5.936.492-.725.748-1.676.748-2.835 0-2.905-1.603-4.504-4.513-4.504v1.075c2.314 0 3.437 1.12 3.437 3.426 0 .697-.103 1.286-.31 1.768-.77-1.108-1.806-2.02-3.205-2.555a.54.54 0 0 0-.387 1.008c1.185.454 2.159 1.286 2.91 2.486-.567.481-1.38.719-2.445.719-2.314 0-3.44-1.464-3.44-3.769H3.09V4.483a.57.57 0 0 1 .565-.566H6.53V2.842H3.655c-.902 0-1.638.734-1.641 1.638Zm15.124 2.166c-2.317 0-3.443 1.109-3.443 3.389 0 .551.065 1.034.198 1.449.225-.329.46-.63.703-.903.947-1.059 2.037-1.708 3.241-1.927a.538.538 0 1 1 .194 1.062c-1.362.247-2.547 1.193-3.536 2.815.57.597 1.448.89 2.642.89 2.306 0 3.435-1.099 3.445-3.355V7.2a.563.563 0 0 0-.568-.554h-2.876Z" fill="#313235"/></svg>