<svg width="24" height="24" fill="none" xmlns="http://www.w3.org/2000/svg"><path fill-rule="evenodd" clip-rule="evenodd" d="M8.346 2.15c.465 0 .843.378.843.843v5.353a.844.844 0 0 1-.843.843H2.993a.845.845 0 0 1 0-1.689H7.5V2.993c0-.465.378-.843.846-.843Zm.843 13.49a.844.844 0 0 0-.843-.843H2.993a.845.845 0 0 0-.812.812.84.84 0 0 0 .812.874h4.51v4.51a.845.845 0 0 0 1.686 0V15.64Zm12.613.034a.845.845 0 0 0-.812-.877h-5.353a.842.842 0 0 0-.843.843v5.356a.844.844 0 0 0 1.69 0v-4.51h4.506a.845.845 0 0 0 .813-.812Zm-7.005-7.328c0 .465.378.843.843.843h5.353a.845.845 0 0 0 0-1.689h-4.51V2.993a.845.845 0 0 0-1.686 0v5.353Z" fill="#313235"/></svg>