<svg width="24" height="24" fill="none" xmlns="http://www.w3.org/2000/svg"><path fill-rule="evenodd" clip-rule="evenodd" d="M9.445 4.154c.123.507.356 1.025.692 1.543.26.401.48.67.83 1.028.041.042.192.19.321.283.152.11.328.185.493.222l.27.03.246-.028c.18-.039.355-.114.51-.224.128-.09.277-.238.33-.29.35-.36.563-.626.82-1.02a5.109 5.109 0 0 0 .69-1.544c.17-.711 0-1.356-.476-1.76a1.749 1.749 0 0 0-1.031-.391c-.364-.02-.75.067-1.095.252a2.097 2.097 0 0 0-1.09-.252c-.39.02-.756.16-1.034.392-.473.403-.647 1.048-.476 1.759Zm1.297-.305c-.022-.104-.07-.353.05-.451a.381.381 0 0 1 .23-.076h.031a.82.82 0 0 1 .378.104c.079.042.157.087.266.151l.18.09.38-.009.157-.092.247-.14a.736.736 0 0 1 .409-.104c.092.006.18.034.23.079.12.098.072.347.05.45-.09.362-.26.74-.515 1.135a4.63 4.63 0 0 1-.662.818l-.012.012c-.024.026-.069.07-.114.108a1.1 1.1 0 0 1-.126-.12 4.76 4.76 0 0 1-.666-.82c-.252-.396-.426-.774-.513-1.135Zm-5 4.88c-.24.232-.361.632-.361 1.193 0 .557.12.96.361 1.19.233.221.63.336 1.177.336.546 0 .944-.115 1.179-.339.24-.23.364-.63.364-1.187 0-.56-.123-.961-.367-1.194-.238-.227-.633-.341-1.18-.341-.54 0-.938.114-1.173.341Zm-.851 3.263c.467.453 1.15.68 2.028.68.874 0 1.557-.23 2.03-.68.493-.471.743-1.169.743-2.07 0-.905-.25-1.603-.743-2.073-.473-.454-1.156-.684-2.03-.684-.877 0-1.56.23-2.031.684-.49.47-.737 1.168-.737 2.073 0 .901.25 1.599.74 2.07Zm10.694-3.264c-.24.233-.361.633-.361 1.194 0 .557.12.96.361 1.19.233.221.63.336 1.177.336.546 0 .944-.115 1.179-.339.24-.23.364-.63.364-1.187 0-.56-.123-.961-.367-1.194-.238-.227-.633-.341-1.179-.341-.54 0-.938.114-1.174.341Zm-1.594 1.194c0 .901.25 1.599.74 2.07.47.45 1.154.68 2.028.68.874 0 1.557-.23 2.03-.68.494-.471.743-1.169.743-2.07 0-.905-.25-1.603-.742-2.073-.474-.454-1.157-.684-2.031-.684-.877 0-1.56.23-2.03.684-.491.47-.737 1.168-.737 2.073Zm-1.652 2.84c.05-.05.106-.199.106-.47 0-.275-.056-.426-.109-.477-.053-.053-.207-.106-.476-.106-.27 0-.42.053-.47.103-.054.05-.11.202-.11.477 0 .274.053.422.106.473.05.05.205.104.474.104.272 0 .426-.054.479-.104Zm.851-1.827c-.31-.296-.759-.448-1.33-.448-.572 0-1.017.152-1.328.448-.32.309-.482.762-.482 1.356 0 .591.16 1.045.482 1.353.311.294.756.446 1.328.446.571 0 1.02-.152 1.33-.446.322-.308.488-.762.488-1.353 0-.59-.166-1.047-.488-1.356Zm7.266 9.53v-3.266c0-.387-.08-.927-.456-1.314-.415-.431-1.073-.524-1.55-.524h-3.377c-.247 0-.54.028-.824.112.112.073.219.157.314.255.342.353.52.84.52 1.415v3.322h5.373Zm-6.605-3.325v3.325h-.002v.014H9.87V17.14c0-.177.03-.417.176-.569.087-.092.239-.14.418-.173l.038-.007c.079-.015.156-.03.25-.03h2.21c.073 0 .135.012.197.023.02.004.039.008.058.01.194.032.362.082.454.18.149.151.18.392.18.566Zm-4.689-1.412c.09-.092.19-.17.3-.243a2.903 2.903 0 0 0-.854-.124H5.23c-.477 0-1.132.093-1.547.521-.372.387-.45.93-.45 1.317v3.266h5.414V17.14c-.003-.571.174-1.062.515-1.412Zm-6.846 5.958h12.608v.003h6.446c.173 0 .316-.14.316-.314v-4.173c0-.877-.277-1.622-.801-2.163-.566-.588-1.409-.899-2.437-.899H15.07c-1.025 0-1.869.31-2.434.9-.016.016-.03.035-.043.055-.011.016-.023.033-.036.048h-1.431l-.032-.042c-.015-.022-.03-.043-.05-.062-.565-.588-1.408-.899-2.436-.899H5.23c-1.026 0-1.869.31-2.435.9-.518.537-.792 1.282-.792 2.159v4.173c0 .174.14.314.313.314Z" fill="#313235"/></svg>