<svg width="24" height="24" fill="none" xmlns="http://www.w3.org/2000/svg"><path fill-rule="evenodd" clip-rule="evenodd" d="M19.287 7.997a.612.612 0 0 0-.047-.238.843.843 0 0 0-.213-.384L13.814 2.25A.85.85 0 0 0 13.209 2h-7.3c-.725 0-1.387.658-1.387 1.384v16.918c0 .737.648 1.384 1.387 1.384h11.992c.75 0 1.386-.633 1.386-1.384V7.997Zm-1.193 12.305V8.868h-2.278c-1 0-1.86-.33-2.493-.952-.638-.63-.977-1.487-.977-2.482V3.216H5.912c-.073 0-.185.109-.19.168v16.918c0 .06.097.169.19.169h11.991c.096 0 .19-.096.19-.169ZM13.539 3.67v1.765c0 .658.213 1.213.614 1.608.406.398.98.61 1.663.61h1.774L13.54 3.67Zm1.19 8.65v-.61l-3.742-1.031v.61l3.743 1.031Zm0 5.255c0 .544-.26.824-.772.835v.003h-.104c-.513-.009-.77-.292-.77-.843 0-.205 0-.827.756-.835h.112c.515.011.779.297.779.84ZM9.19 16.4c.502-.01.762-.29.762-.834 0-.546-.263-.83-.782-.843H9.06c-.756.005-.756.63-.756.832 0 .551.258.834.77.843h.115v.003Zm6.577-4.943a.73.73 0 0 0-.63-.729L10.8 9.53l-.135-.02c-.397 0-.72.331-.72.735v3.59a2.068 2.068 0 0 0-.756-.167h-.143c-.823.008-1.784.507-1.784 1.888 0 1.38.966 1.885 1.79 1.896h.143c.795-.017 1.708-.493 1.776-1.745l.014-3.33 3.742 1.033v2.437a2.068 2.068 0 0 0-.756-.168l-.143-.003c-.821.006-1.785.507-1.785 1.888 0 1.38.967 1.885 1.79 1.896h.143c.826-.014 1.79-.518 1.79-1.888v-6.115Z" fill="#313235"/></svg>