<svg width="24" height="24" fill="none" xmlns="http://www.w3.org/2000/svg"><path fill-rule="evenodd" clip-rule="evenodd" d="M2.16 8.356a.844.844 0 0 0 1.686.003v-4.51H8.36a.846.846 0 0 0 0-1.689H3.003a.844.844 0 0 0-.843.843v5.353Zm7.02 12.68a.845.845 0 0 0-.813-.876H3.852v-4.51a.844.844 0 0 0-1.686 0v5.356c0 .465.378.843.843.843h5.358a.845.845 0 0 0 .813-.812Zm11.817-6.243c.465 0 .844.378.844.843v5.353a.844.844 0 0 1-.844.843H15.64a.845.845 0 0 1 0-1.686h4.512v-4.51a.846.846 0 0 1 .846-.843Zm.85-11.767a.842.842 0 0 0-.844-.844v.003h-5.358a.844.844 0 0 0 0 1.686h4.512v4.507a.846.846 0 0 0 1.69 0V3.026Z" fill="#313235"/></svg>