<svg width="24" height="24" fill="none" xmlns="http://www.w3.org/2000/svg"><path fill-rule="evenodd" clip-rule="evenodd" d="M21.686 6.007c0-1.745-1.476-3.165-3.285-3.165H5.286C3.476 2.842 2 4.262 2 6.007v8.748c0 1.353.824 2.51 2.053 2.96v1.673c0 .812.723 1.498 1.583 1.498.66 0 1.075-.352 1.3-.64l1.88-2.326H18.4c1.812 0 3.285-1.417 3.285-3.162V6.007Zm-1.235 0v8.748c0 1.087-.919 1.97-2.048 1.97H8.515c-.19 0-.37.086-.487.229L5.955 19.52c-.134.173-.246.173-.32.173-.17 0-.346-.151-.346-.302v-2.118a.601.601 0 0 0-.496-.585c-.916-.182-1.558-.975-1.558-1.93V6.007c0-1.087.92-1.972 2.05-1.972h13.116c1.131 0 2.05.885 2.05 1.972Zm-6.216 3.148c.048-.187.13-.644-.09-.826a.763.763 0 0 0-.434-.143l-.058-.003c-.227 0-.47.068-.703.194-.146.078-.297.162-.46.255l-.017.01-.02.01c-.198.106-.422.159-.65.159a1.37 1.37 0 0 1-.663-.17c-.188-.107-.336-.191-.482-.267a1.498 1.498 0 0 0-.706-.193l-.056.002a.763.763 0 0 0-.434.143c-.221.182-.137.642-.092.827.162.658.484 1.353.958 2.064.395.591.694.955 1.238 1.496.092.09.185.17.24.218.051-.039.127-.106.208-.184l.003-.006.042-.04a8.706 8.706 0 0 0 1.224-1.481c.468-.712.793-1.406.952-2.065Zm.715-1.733c-.306-.255-.726-.407-1.174-.429a.74.74 0 0 1-.115-.008c-.437 0-.885.114-1.305.339-.157.084-.317.173-.49.274a.118.118 0 0 1-.056.014.098.098 0 0 1-.056-.014 25.516 25.516 0 0 0-.49-.272A2.774 2.774 0 0 0 9.9 6.99l-.062.001c-.454.023-.872.174-1.177.429-.527.437-.703 1.151-.49 2.011.193.79.571 1.61 1.12 2.434.44.661.79 1.087 1.39 1.684l.014.014c.073.07.261.249.42.361.148.104.314.174.482.21.047.008.098.017.15.02h.113c.053-.003.104-.012.151-.02a1.36 1.36 0 0 0 .482-.21c.174-.118.375-.317.434-.375l.014-.014a9.874 9.874 0 0 0 1.375-1.667c.552-.826.928-1.644 1.124-2.434.213-.86.039-1.572-.49-2.011Z" fill="#313235"/></svg>