<svg width="24" height="24" fill="none" xmlns="http://www.w3.org/2000/svg"><path fill-rule="evenodd" clip-rule="evenodd" d="M3.23 15.291c0-5.874 2.795-8.73 8.549-8.73.33 0 .602-.275.6-.614a.61.61 0 0 0-.603-.614c-6.378 0-9.75 3.443-9.75 9.958 0 .34.268.614.601.614a.607.607 0 0 0 .603-.614Zm9.198.09c0-.513-.29-.75-.739-.75-.448 0-.74.237-.74.75 0 .246.068.428.188.552.129.134.32.199.552.199.232 0 .423-.065.552-.2.12-.123.188-.305.188-.551Zm-.067-6.118a.607.607 0 0 1-.602.614c-3.591 0-5.336 1.784-5.336 5.45a.607.607 0 0 1-.602.614.61.61 0 0 1-.603-.613c0-4.37 2.26-6.678 6.541-6.678.333 0 .602.274.602.613Zm8.151 4.603v2.94c0 .085-.061.152-.134.152h-.74v-3.24h.748a.161.161 0 0 1 .127.148ZM18.11 18.05a.35.35 0 0 0 .336-.35v-.129h-.008v-4.565c0-.19-.154-.35-.336-.35H12.28c-1.636.053-2.44.932-2.44 2.694 0 1.756.804 2.642 2.46 2.703h5.81v-.003Zm3.605-4.196c-.014-.753-.619-1.364-1.347-1.364h-.813a1.543 1.543 0 0 0-1.453-1.064h-5.84c-2.303.075-3.622 1.504-3.622 3.921 0 2.412 1.316 3.846 3.619 3.93h5.851c.684 0 1.263-.46 1.462-1.092h.804c.737 0 1.34-.62 1.34-1.378v-2.953Z" fill="#313235"/></svg>