<svg width="24" height="24" fill="none" xmlns="http://www.w3.org/2000/svg"><path fill-rule="evenodd" clip-rule="evenodd" d="M16.025 18.583a.952.952 0 0 1-.264-.04L10.305 16.9l-.2.632a.801.801 0 0 1-.402.482.782.782 0 0 1-.625.056l-2.269-.711a.822.822 0 0 1-.538-1.028l.185-.59-3.21-.966a.535.535 0 0 1-1.056-.122V9.37a.535.535 0 0 1 1.056-.122L15.76 5.479a.894.894 0 0 1 .802.143.98.98 0 0 1 .392.79v11.201a.98.98 0 0 1-.39.788.904.904 0 0 1-.54.182Zm-12.731-4.91 12.59 3.792V6.56l-12.59 3.79v3.322Zm15.79-5.457a.545.545 0 0 1-.387-.933l1.546-1.546a.548.548 0 0 1 .773.773L19.47 8.056a.545.545 0 0 1-.386.16Zm.067 4.109a.545.545 0 1 1 0-1.092h2.185a.545.545 0 1 1 0 1.092H19.15ZM7.397 16.401l1.748.549.07-.224-1.748-.55-.07.225Zm12.838 1.355a.545.545 0 0 0 .773 0 .548.548 0 0 0 0-.773L19.5 15.476a.548.548 0 0 0-.773.773l1.507 1.507Z" fill="#313235"/></svg>