<svg width="24" height="24" fill="none" xmlns="http://www.w3.org/2000/svg"><path fill-rule="evenodd" clip-rule="evenodd" d="m16.846 2.168 4.476.737c.303.05.527.311.527.62v16.954a.63.63 0 0 1-.221.48.646.646 0 0 1-.51.14l-4.328-.715-4.596 1.431a.648.648 0 0 1-.38-.003l-4.405-1.428-4.52.714a.628.628 0 0 1-.73-.619V3.527a.63.63 0 0 1 .53-.622l4.67-.737a.066.066 0 0 1 .024.002c.007.001.014.003.02.001.007 0 .013-.003.02-.005.01-.003.022-.006.034-.006.03 0 .055.007.081.015l.042.01a.13.13 0 0 0 .033.002c.013 0 .026 0 .04.004l4.356 1.412 4.549-1.415c.012-.005.025-.004.038-.004.01 0 .021 0 .032-.002l.033-.008a.325.325 0 0 1 .084-.014c.012 0 .022.003.033.006l.023.005c.006 0 .012 0 .018-.002.01 0 .019-.002.027 0ZM3.42 4.062l3.412-.538v15.684l-3.412.54V4.062ZM20.591 19.74l-3.218-.53V3.53l3.218.53v15.68ZM16.115 3.642l-3.482 1.084v15.641l3.482-1.084V3.642Zm-8.028.011 3.291 1.067v15.633l-3.29-1.067V3.653Z" fill="#313235"/></svg>