<svg width="24" height="24" fill="none" xmlns="http://www.w3.org/2000/svg"><path fill-rule="evenodd" clip-rule="evenodd" d="M11.993 2.16c2.921 0 4.53 1.61 4.53 4.532v6.72c0 2.922-1.609 4.532-4.53 4.532-2.922 0-4.53-1.61-4.53-4.532v-6.72c0-2.921 1.608-4.532 4.53-4.532ZM15.3 13.412v-6.72c0-2.227-1.081-3.31-3.308-3.31s-3.308 1.08-3.308 3.31v6.72c0 2.227 1.08 3.311 3.308 3.311 2.227 0 3.308-1.084 3.308-3.31Zm-2.33 7.48a.957.957 0 0 0-.956-.959.957.957 0 0 0 0 1.913.956.956 0 0 0 .955-.955Zm2.372-1.914a.956.956 0 1 1-.003 1.913.956.956 0 0 1 .003-1.913Zm3.627-1.325a.956.956 0 0 0-1.91 0 .956.956 0 0 0 1.91 0Zm0-4.21a.814.814 0 1 1 0 1.63.814.814 0 1 1 0-1.63Zm-9.372 6.49a.956.956 0 1 0-1.913.002.956.956 0 0 0 1.913-.002ZM5.97 16.698a.956.956 0 0 1 0 1.91.956.956 0 0 1 0-1.91Zm-.955-1.622a.814.814 0 0 0 .815-.815.814.814 0 1 0-.815.815Z" fill="#313235"/></svg>