<svg width="24" height="24" fill="none" xmlns="http://www.w3.org/2000/svg"><path fill-rule="evenodd" clip-rule="evenodd" d="M19.395 8.157a.866.866 0 0 0-.26-.619L13.917 2.41a.834.834 0 0 0-.602-.249H6.008c-.72 0-1.378.661-1.378 1.378v16.93c0 .731.641 1.378 1.378 1.378h12c.754 0 1.387-.627 1.387-1.378V8.158Zm-1.188 12.311V9.028h-2.283c-1 0-1.854-.33-2.496-.958-.633-.622-.975-1.484-.975-2.476V3.37H6.008c-.07 0-.182.112-.19.168v16.93c0 .056.095.171.19.171h12c.104-.003.199-.098.199-.17Zm-.49-12.65-4.073-4.005v1.781c0 .653.213 1.219.619 1.614.403.395.983.613 1.664.613h1.79v-.003Zm-1.849 5.645a.883.883 0 0 0 .277-.636.97.97 0 0 0-.277-.67.93.93 0 0 0-.62-.283c-.181-.017-.436.034-.674.275-.255.258-4.112 3.725-4.502 4.07l-.65 1.966 1.99-.692c2.64-2.378 4.307-3.885 4.456-4.03Zm1.468-.636c0-.558-.233-1.13-.628-1.533-.728-.742-2.036-.944-2.972-.005l-.03.028c-.032.03-.084.079-.152.148H7.588a.604.604 0 0 0-.594.605c0 .34.269.605.594.605h4.636c-.17.15-.346.309-.529.474-.21.19-.43.389-.659.59H7.588a.598.598 0 0 0-.594.606c0 .33.269.605.594.605h2.1l-.428.386c-.137.12-.238.283-.302.46l-.07.21h-1.3a.598.598 0 0 0-.594.605c0 .33.269.605.594.605h.905l-.286.88a.737.737 0 0 0-.037.163l-.002.013h-.58a.604.604 0 0 0-.594.605c0 .33.269.605.594.605h1.465c.017 0 .03 0 .047-.008.023.008.056.008.087.008.104 0 .216-.014.325-.047l2.26-.765a.998.998 0 0 0 .365-.21l.07-.065c1.933-1.74 4.28-3.86 4.493-4.07.415-.409.636-.927.636-1.498Z" fill="#313235"/></svg>