<svg width="24" height="24" fill="none" xmlns="http://www.w3.org/2000/svg"><path fill-rule="evenodd" clip-rule="evenodd" d="M9.973 6.112v-.386c0-.379 0-1.079-1.624-1.079H7.245c-.963 0-1.59-.143-2.03-.46-.474-.344-.707-.873-.707-1.624 0-.308.253-.56.56-.56.309 0 .56.252.56.56 0 .54 0 .966 1.614.966h1.104c.924 0 1.6.194 2.067.589.448.378.678.921.678 1.61v.382c1.55.087 2.777.557 3.65 1.397 1.011.972 1.524 2.42 1.524 4.303v.99a.556.556 0 0 1 0 .106v.717c.101.123.182.27.255.402.03.056.075.137.114.2a5.661 5.661 0 0 0 .21-.121l.006-.004c.294-.176.655-.393 1.003-.192.35.201.342.633.333.98v.07c0 .055-.002.116 0 .168.052.002.113.001.168 0h.07c.345-.008.776-.017.98.333.203.346-.013.705-.188.997l-.007.012a2.96 2.96 0 0 0-.12.21c.06.04.142.084.198.115.306.168.686.378.686.787 0 .409-.38.619-.686.787-.056.03-.137.076-.199.115.024.045.055.097.083.144l.038.066.003.006c.176.293.393.654.193 1.002-.202.35-.633.342-.98.334l-.071-.001h-.168c-.002.052 0 .113 0 .168V20.272c.009.344.017.776-.333.98-.346.202-.705-.014-.997-.189l-.011-.007a2.982 2.982 0 0 0-.21-.12c-.04.061-.085.142-.115.198-.168.306-.378.687-.787.687-.41 0-.62-.381-.788-.687a3.882 3.882 0 0 0-.114-.198 5.496 5.496 0 0 0-.21.12l-.007.004c-.269.161-.596.357-.917.233-.853.445-1.91.668-3.147.668-1.81 0-3.218-.476-4.19-1.412-1.011-.975-1.524-2.423-1.524-4.302V11.81c0-1.88.513-3.328 1.524-4.303.866-.836 2.081-1.303 3.613-1.395Zm5.731 8.157c-.016 0-.032 0-.048-.002-.107.057-.199.224-.29.39-.1.18-.198.359-.314.39-.122.033-.302-.076-.482-.185-.196-.118-.391-.236-.507-.167-.115.068-.111.297-.107.526.004.21.008.42-.08.507-.088.087-.296.082-.504.078-.23-.005-.462-.01-.53.11-.068.119.05.314.17.51.108.18.216.358.183.479-.032.116-.21.214-.392.314-.203.112-.41.225-.41.366s.207.255.41.367c.181.1.36.198.392.314.032.122-.077.302-.186.482-.118.196-.236.391-.167.507.068.115.297.111.526.107.21-.004.42-.008.507.08.087.088.082.296.078.504-.002.09-.004.18.002.26a.555.555 0 0 1 .226.287c.111-.017.25-.101.39-.186.18-.108.359-.217.48-.184.117.03.216.21.315.392.112.203.226.41.367.41.14 0 .254-.207.366-.41.1-.181.198-.36.314-.392.122-.032.302.077.482.185.196.12.391.237.507.168.115-.069.111-.297.107-.526-.004-.21-.008-.42.08-.507.088-.087.297-.083.506-.08.23.005.46.01.528-.108.067-.117-.05-.31-.168-.506-.109-.18-.218-.36-.185-.483.03-.116.21-.215.392-.314.203-.113.41-.226.41-.367 0-.14-.207-.254-.41-.366-.182-.1-.361-.198-.392-.314-.032-.122.077-.302.186-.482.118-.196.236-.391.167-.507-.068-.115-.297-.111-.526-.107-.21.004-.42.008-.507-.08-.087-.088-.082-.296-.078-.504.005-.23.01-.463-.11-.53-.118-.068-.313.05-.508.169-.179.108-.359.217-.48.184-.117-.032-.215-.21-.315-.392-.094-.171-.19-.344-.302-.395a.55.55 0 0 1-.093.008Zm-.56-.776v.203c-.076.106-.14.222-.199.33-.03.055-.075.136-.114.198a2.9 2.9 0 0 1-.21-.12l-.012-.007c-.292-.176-.651-.391-.997-.19-.35.205-.342.636-.333.981v.07c0 .055.002.116 0 .168a3.584 3.584 0 0 1-.168 0h-.07c-.348-.008-.78-.017-.98.333-.201.348.016.71.192 1.003l.003.006.038.066.083.144a3.97 3.97 0 0 1-.2.115c-.304.168-.685.378-.685.787 0 .409.38.619.686.787.056.03.137.076.199.115a2.96 2.96 0 0 1-.12.21l-.008.011c-.175.293-.39.652-.189.997.205.35.633.342.98.334l.071-.001h.168c.002.052 0 .113 0 .168v.046c-.706.393-1.623.593-2.729.593-1.51 0-2.658-.37-3.414-1.098-.782-.756-1.18-1.93-1.18-3.495v-2.755c1.525.186 3.058.278 4.594.275a37.318 37.318 0 0 0 4.594-.274Zm-9.187-1.13c1.524.19 3.058.287 4.593.284a36.31 36.31 0 0 0 4.594-.283v-.555c0-1.565-.398-2.739-1.179-3.495-.756-.729-1.905-1.098-3.415-1.098s-2.658.37-3.414 1.098c-.782.756-1.18 1.93-1.18 3.495v.554Zm4.033-1.032c0 .308.252.56.56.56.309 0 .56-.252.56-.56V8.846a.562.562 0 0 0-.56-.56.562.562 0 0 0-.56.56v2.485Zm4.056 5.16c0 .45.28.73.731.73.451 0 .731-.28.731-.73 0-.452-.28-.732-.73-.732-.452 0-.732.28-.732.731Zm.247 2.576c0 .154.126.28.28.28.087 0 .168-.039.218-.109l2.32-2.963a.28.28 0 0 0-.048-.393.28.28 0 0 0-.392.048l-2.32 2.964a.282.282 0 0 0-.058.173Zm.484-2.745c-.14 0-.17.028-.17.171 0 .143.027.17.17.17.143 0 .171-.027.171-.17 0-.143-.03-.17-.17-.17Zm1.157 2.33c0 .452.28.732.731.732.448 0 .731-.28.731-.731 0-.451-.28-.731-.73-.731-.452 0-.732.28-.732.73Zm.731-.167c-.14 0-.17.028-.17.17 0 .143.027.171.17.171.143 0 .171-.028.171-.17 0-.143-.03-.171-.17-.171Z" fill="#313235"/></svg>