<svg width="24" height="24" fill="none" xmlns="http://www.w3.org/2000/svg"><path fill-rule="evenodd" clip-rule="evenodd" d="M20.265 8.6c0-2.13-.558-3.731-1.656-4.762-.641-.61-1.487-1.05-2.518-1.311-.975-.241-2.23-.367-3.731-.367H6.094a.598.598 0 0 0-.594.602v18.482c-.003.33.263.6.594.602h4.162a.598.598 0 0 0 .594-.602v-5.773h2.34c1.268 0 2.363-.157 3.257-.465.933-.32 1.709-.832 2.305-1.518 1.003-1.138 1.513-2.782 1.513-4.888Zm-1.19 0c0 1.8-.407 3.176-1.214 4.087-.459.529-1.064.924-1.798 1.176-.767.266-1.734.4-2.874.4h-2.933a.6.6 0 0 0-.596.603v5.776H6.688V3.364h5.672c1.403 0 2.563.115 3.445.334.83.21 1.499.552 1.992 1.02.849.795 1.277 2.103 1.277 3.882Zm-4.76 1.977c.362-.367.546-1.014.546-1.927 0-.832-.17-1.423-.512-1.753-.165-.154-.406-.275-.712-.348-.364-.087-.848-.131-1.434-.131H10.85v4.686h1.46c.747 0 1.145-.067 1.344-.126.25-.073.465-.202.661-.4Zm.849-4.554c-.322-.306-.742-.521-1.252-.645-.454-.109-1.028-.165-1.712-.165h-1.946a.598.598 0 0 0-.594.602v5.891c-.003.33.263.6.594.602h2.053c.722 0 1.269-.056 1.67-.17a2.683 2.683 0 0 0 1.178-.706c.594-.603.894-1.535.894-2.779 0-1.17-.297-2.053-.885-2.63Z" fill="#313235"/></svg>