<svg width="24" height="24" fill="none" xmlns="http://www.w3.org/2000/svg"><path fill-rule="evenodd" clip-rule="evenodd" d="M3.614 21.416h12.568c.799 0 1.449-.67 1.449-1.493v-2.216a3.319 3.319 0 0 0 .703.022c1.619-.022 3.512-1.014 3.512-3.734 0-2.689-1.815-3.7-3.512-3.75h-.3c-.095 0-.235.003-.403.022V8.36c0-.821-.648-1.49-1.446-1.49h-2.664c.02-.183.031-.373.031-.57 0-2.694-1.818-3.702-3.532-3.75h-.291c-1.687.022-3.49 1.014-3.49 3.734 0 .202.01.398.03.588H3.614c-.801 0-1.454.667-1.454 1.49v2.541c0 .182.073.353.204.473a.604.604 0 0 0 .48.157c.097-.012.181-.015.238-.018l.027-.001h.275c.12.006.455.023.832.157.983.308 1.479 1.092 1.479 2.327 0 1.233-.499 2.014-1.49 2.33a2.743 2.743 0 0 1-.857.14c-.05.006-.11.006-.163.006H3.15a4.09 4.09 0 0 1-.297-.025.591.591 0 0 0-.485.154.65.65 0 0 0-.207.476v2.846c0 .821.653 1.49 1.454 1.49Zm-.216-1.493v-2.19c.006 0 .008 0 .017.005.221 0 .67-.026 1.17-.196.877-.28 2.35-1.112 2.35-3.541 0-2.437-1.473-3.263-2.33-3.535a3.983 3.983 0 0 0-1.199-.218l-.005-1.886a.22.22 0 0 1 .215-.224h3.415a.619.619 0 0 0 .499-.26.653.653 0 0 0 .09-.566 3.46 3.46 0 0 1-.144-1.03c0-2.119 1.42-2.455 2.26-2.466h.267c.863.023 2.311.378 2.311 2.485 0 .372-.048.703-.143 1.011a.636.636 0 0 0 .09.566c.115.165.3.26.498.26h3.423c.115 0 .208.101.208.224v2.687c0 .204.092.395.252.512a.61.61 0 0 0 .554.093c.376-.124.709-.138.835-.138h.274c.863.026 2.303.387 2.303 2.482 0 2.196-1.605 2.457-2.347 2.47-.062.006-.137.006-.19.006a2.95 2.95 0 0 1-.864-.15.607.607 0 0 0-.56.083.635.635 0 0 0-.257.516v3c0 .12-.093.22-.208.22H3.614a.217.217 0 0 1-.216-.22Z" fill="#313235"/></svg>