<svg width="24" height="24" fill="none" xmlns="http://www.w3.org/2000/svg"><path fill-rule="evenodd" clip-rule="evenodd" d="M20.23 4.522c.804 0 1.456.63 1.456 1.404v11.958c0 .773-.652 1.403-1.456 1.403H3.457c-.804 0-1.457-.63-1.457-1.403V5.926c0-.773.653-1.404 1.457-1.404H20.23Zm-17 1.404c0-.12.1-.219.227-.219H20.23c.126 0 .227.098.227.219v1.73H3.23v-1.73Zm17.227 11.96c0 .121-.101.22-.227.22v-.004H3.457a.222.222 0 0 1-.227-.218V8.842h17.227v9.045ZM5.602 6.602a.56.56 0 0 0 .569.549.558.558 0 0 0 .568-.55.558.558 0 0 0-.568-.548.56.56 0 0 0-.569.549Zm2.28.549a.558.558 0 0 1-.568-.55.56.56 0 0 1 .568-.548c.317 0 .569.246.569.549a.56.56 0 0 1-.569.549ZM3.894 6.6c0 .303.252.55.568.55a.56.56 0 0 0 .569-.55.558.558 0 0 0-.569-.548.56.56 0 0 0-.568.549Zm8.899 6.53.414-.406-.546-.078a.811.811 0 0 1-.597-.426l-.22-.454-.222.448a.808.808 0 0 1-.602.432l-.541.078.415.403c.176.171.26.435.218.67l-.092.535.445-.232a.806.806 0 0 1 .74-.009l.462.244-.093-.535a.782.782 0 0 1 .219-.67Zm1.42-.734a.519.519 0 0 0-.417-.344l-1.023-.149c-.004 0-.007-.003-.01-.006l-.001-.002-.454-.924a.515.515 0 0 0-.468-.292.516.516 0 0 0-.467.292l-.457.924c-.003.003-.008.008-.011.008l-1.017.149a.519.519 0 0 0-.291.885l.736.72c.006.005.009.011.006.02l-.174 1.016c-.033.202.048.4.219.516a.542.542 0 0 0 .543.03l.91-.478.004-.003h.002l.003.001s.001.002.003.002l.91.479c.079.039.163.058.247.058a.519.519 0 0 0 .513-.605l-.175-1.016c-.002-.006 0-.014.006-.02l.737-.72a.523.523 0 0 0 .126-.54Zm4.188.734.414-.406-.546-.078a.81.81 0 0 1-.602-.437l-.219-.443-.221.448a.808.808 0 0 1-.602.432l-.541.078.415.403c.173.171.26.435.218.67l-.092.535.445-.232a.815.815 0 0 1 .378-.096c.123 0 .252.031.364.087l.462.244-.092-.535a.782.782 0 0 1 .219-.67Zm1.42-.734a.519.519 0 0 0-.418-.344l-1.02-.149c-.003 0-.006-.003-.008-.006l-.003-.002-.453-.924a.523.523 0 0 0-.939 0l-.453.924c-.003.003-.009.008-.012.008l-1.016.149a.519.519 0 0 0-.292.885l.737.72c.006.005.008.011.006.02l-.174 1.016c-.034.202.047.4.218.516a.542.542 0 0 0 .544.03l.91-.478c0-.003 0-.003.003-.003l.003.001s.001.002.003.002l.91.479a.55.55 0 0 0 .246.058.52.52 0 0 0 .513-.605l-.174-1.016c-.002-.006 0-.014.006-.02l.737-.72a.523.523 0 0 0 .126-.54Zm-12.636.734.414-.406-.546-.078a.81.81 0 0 1-.596-.426l-.222-.454-.221.448a.808.808 0 0 1-.602.432l-.544.078.415.403c.174.171.26.435.218.67l-.09.535.446-.232a.814.814 0 0 1 .378-.096.82.82 0 0 1 .364.087l.463.244-.093-.535a.772.772 0 0 1 .216-.67Zm1.42-.734a.519.519 0 0 0-.417-.344l-1.026-.149c-.004 0-.006-.003-.009-.006l-.002-.002-.454-.924a.523.523 0 0 0-.938 0l-.454.924c-.002.003-.008.008-.01.008l-1.018.149a.519.519 0 0 0-.291.885l.737.72c.005.005.005.011.005.02l-.173 1.016c-.034.202.047.4.218.516a.542.542 0 0 0 .544.03l.91-.478v-.003h.003l.002.001.003.002.91.479c.08.039.163.058.247.058a.516.516 0 0 0 .515-.605l-.173-1.016c-.003-.006 0-.014.005-.02l.737-.72a.518.518 0 0 0 .129-.54Z" fill="#313235"/></svg>