<svg width="24" height="24" fill="none" xmlns="http://www.w3.org/2000/svg"><path fill-rule="evenodd" clip-rule="evenodd" d="M18.567 2.15c2.023.006 3.278 1.269 3.27 3.3-.006 2.056-2.485 5.01-2.86 5.386a.606.606 0 0 1-.858.003l-.003-.003a1.73 1.73 0 0 1-.134-.151.6.6 0 0 1-.56.546c-.026.003-.101.011-.213.028a.61.61 0 0 1-.174-1.207c.107-.017.21-.028.317-.04.018 0 .035.003.052.006a.192.192 0 0 0 .04.006c-.854-1.112-2.168-3.106-2.165-4.597.003-1 .308-1.832.885-2.406.571-.571 1.398-.871 2.392-.871h.011Zm2.05 3.297c-.002 1.137-1.282 3.048-2.067 4.025-.764-.966-2.058-2.899-2.053-4.04 0-.68.177-1.198.524-1.542.345-.342.86-.516 1.532-.516h.011c1.367.006 2.06.7 2.054 2.073ZM6.78 11.604c1.143 0 1.88.74 1.88 1.885 0 1.146-.74 1.885-1.88 1.885-1.143 0-1.88-.74-1.88-1.885 0-1.146.74-1.885 1.88-1.885Zm0 2.552c.47 0 .661-.194.661-.664 0-.474-.193-.664-.66-.664-.469 0-.662.193-.662.664 0 .47.19.664.661.664Zm12.216-8.888c0 .313-.129.44-.44.44-.31 0-.437-.13-.437-.44 0-.314.126-.44.437-.44.314 0 .44.129.44.44Zm-.44-1.255c.76 0 1.252.493 1.252 1.252 0 .762-.49 1.252-1.252 1.252-.759 0-1.25-.493-1.25-1.252 0-.76.491-1.252 1.25-1.252ZM18.17 18.22a.608.608 0 1 0-1.137-.431c-.059.156-.16.313-.3.465a.61.61 0 0 0 .031.862l.003.003c.247.227.63.213.857-.033a2.69 2.69 0 0 0 .546-.866Zm-2.56.801a.61.61 0 1 1 .533 1.098c-.247.12-.51.233-.788.334a.603.603 0 0 1-.778-.35l-.002-.005-.001-.004a.608.608 0 0 1 .356-.784c.232-.084.459-.18.68-.289Zm-1.742-4.028a.613.613 0 0 0 .316.804c.19.075.386.146.58.216l.182.067a.611.611 0 0 0 .415-1.148 18.777 18.777 0 0 1-.731-.272.613.613 0 0 0-.762.333Zm.927-3.182a.612.612 0 0 1-.608-.613c0-.26.168-.49.415-.575.272-.09.54-.17.801-.238a.607.607 0 0 1 .745.434.608.608 0 0 1-.434.746 11.64 11.64 0 0 0-.726.218.732.732 0 0 1-.193.028Zm-2.65.574a.608.608 0 0 0 .608.61c.18 0 .35-.077.468-.215.112-.134.272-.269.47-.4a.61.61 0 1 0-.669-1.023c-.3.196-.546.41-.734.636a.609.609 0 0 0-.143.392Zm.866 2.706a.612.612 0 0 1-.387-.14 2.324 2.324 0 0 1-.658-.832.615.615 0 0 1 .303-.81.613.613 0 0 1 .806.306c.062.137.168.266.325.395.26.216.297.602.081.863a.625.625 0 0 1-.47.218Zm3.075.737c-.154.3-.039.67.261.823.188.096.361.21.518.35a.608.608 0 0 0 .857-.025.611.611 0 0 0-.02-.865 3.463 3.463 0 0 0-.792-.544.611.611 0 0 0-.823.26Zm-4.899 4.375c.35-.039.645.18.692.513a.61.61 0 0 1-.512.694c-.28.043-.55.079-.807.11a.606.606 0 0 1-.678-.527v-.005a.61.61 0 0 1 .53-.681c.249-.028.51-.065.775-.104Zm3.025-.005a.607.607 0 0 0-.736-.44c-.25.062-.502.12-.754.174a.61.61 0 0 0 .247 1.196c.269-.056.535-.118.8-.185a.61.61 0 0 0 .443-.74v-.005Zm-7.445.114c1.168-1.392 3.42-4.644 3.426-6.554.003-1.107-.289-1.964-.868-2.55-.577-.582-1.429-.879-2.535-.882h-.017c-2.219 0-3.395 1.18-3.404 3.412-.005 1.927 2.233 5.182 3.398 6.575Zm2.742.715a.624.624 0 0 0-.655-.563c-.336.028-.58.042-.697.047 1.26-1.624 3.246-4.58 3.254-6.75.003-1.423-.417-2.603-1.22-3.412-.802-.81-1.976-1.241-3.396-1.244h-.022c-2.885 0-4.614 1.729-4.622 4.628-.008 2.98 3.661 7.4 4.182 7.924l.006.006a.606.606 0 0 0 .857-.006c.07-.067.196-.207.355-.398.076.28.328.474.617.476.014 0 .025 0 .036-.002l.151-.01c.14-.009.342-.021.594-.04a.61.61 0 0 0 .56-.656Z" fill="#313235"/></svg>