<svg width="24" height="24" fill="none" xmlns="http://www.w3.org/2000/svg"><path fill-rule="evenodd" clip-rule="evenodd" d="M17.296 2.262a6.59 6.59 0 0 1 1.128-.112h.006c.552.003 1.011.297 1.207.768.196.47.073 1.008-.316 1.397l-.572.569.05.347.348.05.569-.568c.263-.263.596-.409.938-.409.426 0 .818.221 1.037.586.128.218.196.465.193.717-.006.37-.04.74-.107 1.103-.16.885-.479 1.572-.946 2.04-.463.462-1.138.778-2.009.94-.339.065-.68.101-1.025.113l-7.992 7.991a6.58 6.58 0 0 1-.103.995c-.163.885-.482 1.571-.95 2.039-.462.465-1.137.781-2.008.944-.373.07-.75.106-1.129.112h-.006c-.551-.003-1.014-.297-1.21-.77-.196-.474-.073-1.009.317-1.395l.571-.572-.05-.347-.348-.05-.57.57a1.331 1.331 0 0 1-.94.41c-.425 0-.817-.221-1.036-.586a1.379 1.379 0 0 1-.193-.717c.006-.37.04-.74.106-1.103.163-.886.482-1.572.95-2.04.462-.462 1.137-.778 2.008-.94.34-.065.681-.102 1.026-.113l7.994-7.991a6.58 6.58 0 0 1 .104-.995c.162-.885.481-1.571.95-2.039.461-.465 1.136-.781 2.008-.944Zm1.232 1.263c.14-.14.09-.255-.106-.255-.053 0-1.625.006-2.348.726-.73.734-.725 2.347-.725 2.347a.993.993 0 0 1-.252.614l-8.14 8.14a.993.993 0 0 1-.61.252h-.004c-.053 0-1.624.005-2.344.725-.731.734-.726 2.348-.726 2.348 0 .12.045.185.11.185.041 0 .092-.028.145-.082l.712-.711a.825.825 0 0 1 .535-.207c.025 0 .05.002.075.005l1.023.146c.196.028.378.21.406.406l.145 1.022a.814.814 0 0 1-.204.611l-.711.712c-.138.14-.09.254.106.254h.003c.053 0 1.624-.005 2.344-.725.731-.734.726-2.347.726-2.347 0-.2.112-.474.252-.614l8.14-8.14a.993.993 0 0 1 .61-.252h.003c.054 0 1.625-.006 2.345-.725.731-.734.725-2.348.725-2.348 0-.12-.044-.185-.109-.185-.042 0-.092.028-.145.082l-.712.711a.825.825 0 0 1-.535.207c-.025 0-.05-.002-.076-.005l-1.022-.146a.507.507 0 0 1-.406-.406l-.146-1.022a.814.814 0 0 1 .205-.611l.711-.712Z" fill="#313235"/></svg>