<svg width="24" height="24" fill="none" xmlns="http://www.w3.org/2000/svg"><path fill-rule="evenodd" clip-rule="evenodd" d="M19.845 15.956c.453.42.683.96.703 1.697 0 .03-.006.149-.017.219a6.167 6.167 0 0 1-.042.268l-.65 2.457c-.003.017-.012.031-.02.047a.264.264 0 0 0-.017.031l-.004.02c-.002.012-.005.025-.012.037l-.01.01a.52.52 0 0 1-.075.096 1.96 1.96 0 0 1-.307.4c-.429.395-1.017.597-1.754.597-.734 0-1.328-.202-1.753-.597a2.02 2.02 0 0 1-.572-.974c-.994.546-2.23.818-3.74.818l-.025-.002a.26.26 0 0 0-.048 0l-.027.002c-1.513 0-2.745-.272-3.743-.818-.106.386-.288.717-.568.974-.432.395-1.02.597-1.754.597s-1.325-.202-1.753-.597a1.895 1.895 0 0 1-.311-.4.786.786 0 0 0-.02-.025c-.014-.016-.028-.032-.039-.05-.003-.006-.008-.011-.012-.016-.005-.005-.01-.01-.013-.015a.153.153 0 0 1-.008-.029c-.002-.01-.005-.019-.009-.028l-.016-.034c-.008-.014-.016-.028-.02-.044l-.647-2.457s-.037-.187-.045-.268a1.88 1.88 0 0 1-.017-.219c.022-.737.25-1.277.703-1.697.058-.053.123-.097.186-.14l.021-.014c-.916-.961-1.386-2.502.023-4.09.605-.684 1.913-1.457 2.638-1.563.027-.004.047-.012.066-.02.02-.006.04-.014.069-.02l-.009-.022c-.268-.697-.414-1.496-.414-2.4 0-.353.036-.675.078-.998a.084.084 0 0 0-.032-.008c-.011-.001-.022-.003-.032-.008a2.567 2.567 0 0 1-.28-.194l-.14-.112c-.81-.683-1.348-1.94-.2-3.235 1.14-1.286 2.497-.986 3.323-.336.84-.41 1.84-.636 3.022-.636 1.182 0 2.182.227 3.023.636.826-.65 2.182-.95 3.32.336 1.145 1.294.61 2.552-.2 3.235l-.137.112c-.053.042-.134.101-.283.194-.01.006-.023.008-.035.01a.145.145 0 0 0-.03.006c.04.323.08.645.08.998 0 .907-.144 1.703-.413 2.4l-.008.023c.027.005.046.012.065.02a.3.3 0 0 0 .067.019c.728.106 2.036.88 2.641 1.563 1.406 1.588.936 3.129.02 4.09l.056.038c.055.036.109.072.157.116ZM8.261 4.46c.74-.692 1.837-1.04 3.266-1.04s2.527.35 3.266 1.04c.765.711 1.151 1.798 1.151 3.227 0 1.428-.386 2.51-1.15 3.218-.62.574-1.508.897-2.617.989V8.762c.154-.064.294-.145.412-.255a1.08 1.08 0 0 0 .313-.484s.042-.154.042-.266c0-.098-.056-.238-.056-.238a1.132 1.132 0 0 0-.269-.367c-.268-.25-.638-.379-1.095-.387-.454.008-.823.137-1.095.387a1.197 1.197 0 0 0-.266.367s-.056.14-.056.238c0 .115.045.266.045.266.072.207.16.342.313.484.118.11.258.19.412.255v3.132c-1.112-.092-1.997-.415-2.616-.989-.765-.709-1.154-1.79-1.154-3.218 0-1.429.39-2.516 1.154-3.227Zm-2.081.87a4.532 4.532 0 0 1 1.148-1.755c-.395-.157-.781-.037-1.146.375-.44.499-.434.964-.002 1.38Zm2 1.908c-.118-.109-.174-.266-.174-.473 0-.21.056-.37.174-.479.112-.104.274-.157.481-.157.208 0 .37.053.482.157.115.11.177.269.177.476 0 .208-.062.367-.177.474-.112.103-.277.157-.482.157-.207.002-.366-.05-.481-.155Zm11.056 10.513a1.012 1.012 0 0 0-.306-.885c-.198-.185-.518-.28-.95-.28-.43 0-.75.095-.952.283-.207.193-.313.507-.313.935a.074.074 0 0 1-.004.02c-.002.008-.005.016-.005.025l-.176 1.675c.003.37.092.642.271.807.174.16.46.244.844.244.38 0 .663-.082.84-.244a.913.913 0 0 0 .11-.143l.034-.116c.124-.41.543-1.791.607-2.32Zm-3.12-1.795c-.323.297-.527.683-.631 1.142-.004.014-.01.026-.015.038-.008.02-.017.04-.019.063l-.002.028a1.267 1.267 0 0 0-.007.058 1.29 1.29 0 0 1-.007.057l-.146 1.384c-.86.725-2.07 1.092-3.712 1.092l-.025-.001a.26.26 0 0 0-.05 0 .3.3 0 0 1-.025.001c-1.645 0-2.852-.364-3.715-1.092l-.145-1.384-.001-.013-.01-.102-.003-.028a.215.215 0 0 0-.02-.068c-.006-.01-.01-.021-.014-.033-.104-.459-.31-.845-.63-1.142a2.243 2.243 0 0 0-.695-.423 7.857 7.857 0 0 1-.05-.79c0-1.348.31-2.426.885-3.247.033.038.064.078.095.118.055.07.11.14.177.201.988.92 2.397 1.384 4.176 1.384 1.781 0 3.188-.465 4.18-1.383.062-.058.114-.125.165-.192a2.18 2.18 0 0 1 .103-.128c.577.82.885 1.902.885 3.247 0 .277-.025.535-.05.79-.26.103-.496.238-.695.423Zm-9.86 4.375c.179-.165.265-.437.271-.807l-.176-1.675a.07.07 0 0 0-.006-.022c-.003-.008-.006-.016-.006-.023 0-.428-.106-.745-.31-.935-.205-.188-.524-.283-.956-.283-.431 0-.75.095-.95.28-.198.185-.35.487-.305.885.076.625.645 2.434.645 2.434.03.053.064.104.109.143.176.16.456.244.84.244.387.003.67-.081.843-.241Zm-1.684-5.207c-.518-.437-1.224-1.356-.132-2.591.247-.275.644-.558 1.011-.77-.367.854-.574 1.837-.574 2.977 0 .13.011.25.022.37.007.074.013.146.017.22a.59.59 0 0 0-.07.006l-.033-.022c-.03-.02-.059-.04-.079-.056l-.162-.134Zm12.3-11.177c-.365-.412-.751-.53-1.146-.375.51.479.896 1.067 1.151 1.756.429-.414.437-.88-.006-1.38Zm.73 7.818c.37.213.768.493 1.012.768 1.092 1.235.386 2.15-.132 2.593l-.165.135a1.8 1.8 0 0 1-.112.078.59.59 0 0 0-.07-.005c.004-.063.01-.124.015-.185.012-.134.024-.266.024-.406 0-1.14-.204-2.124-.571-2.978Zm-3.691-4.53c.112.104.274.158.482.158.207 0 .37-.05.481-.157.118-.107.174-.266.174-.474 0-.21-.056-.37-.174-.476-.112-.106-.274-.16-.481-.16-.205 0-.37.054-.482.16-.118.107-.177.266-.177.473 0 .21.06.37.177.477Z" fill="#313235"/></svg>