<svg width="24" height="24" fill="none" xmlns="http://www.w3.org/2000/svg"><path fill-rule="evenodd" clip-rule="evenodd" d="M2.346 16.974a.757.757 0 0 1-.176-.491V5.268c0-.384.269-.697.602-.697H13.11c.117-.004 3.392-.094 7.204 4.311 1.135 1.312 1.65 2.668 1.53 4.027-.171 1.936-1.583 3.276-2.407 3.903-.34.257-.732.393-1.132.393h-.017c-1.009-.01-4.54-.028-15.515-.028a.568.568 0 0 1-.426-.203ZM3.375 5.961h9.58v5.405c0 .387.269.697.602.697h7.059c.041.238.05.476.03.707a2.76 2.76 0 0 1-.137.627H3.375v-1.413h8.28c.333 0 .602-.313.602-.697V7.482c0-.386-.269-.697-.602-.697h-8.28v-.824Zm16.089 3.907c.233.27.426.535.591.801h-5.893V6.13c1.135.308 3.097 1.195 5.302 3.739Zm-.69 5.782c.225-.168.578-.47.917-.865H3.375v1.001c10.507 0 13.931.019 14.92.029h.009a.755.755 0 0 0 .47-.165ZM5.119 8.18v2.413H3.375V8.18h1.743Zm1.204 2.413h1.872V8.18H6.322v2.414Zm4.73 0H9.4V8.18h1.653v2.414Zm10.808 8.13c0-.387-.27-.697-.603-.697H2.772c-.333 0-.602.31-.602.697 0 .387.269.697.602.697h18.485c.334 0 .603-.31.603-.697Z" fill="#313235"/></svg>