<svg width="24" height="24" fill="none" xmlns="http://www.w3.org/2000/svg"><path fill-rule="evenodd" clip-rule="evenodd" d="M16.45 5.992c.647 0 1.213.63 1.213 1.35v12.39c0 .733-.555 1.352-1.213 1.352h-1.045c-.081.546-.558.6-.686.602h-.068c-.134-.003-.605-.053-.686-.602H9.91c-.081.546-.557.6-.686.602h-.067c-.135-.003-.605-.053-.687-.602H7.39c-.66 0-1.211-.619-1.211-1.35V7.344c0-.72.566-1.35 1.21-1.35h1.375V2.885c0-.479.418-.882.91-.882h4.491c.485 0 .91.412.91.882v3.11h1.376v-.003Zm-6.454-.009V3.218h3.849v2.765h-3.85Zm6.434 1.362v12.389a.21.21 0 0 1-.045.132l-8.933-.003a.252.252 0 0 1-.042-.132V7.345c0-.048.028-.101.05-.132h8.92c.022.028.05.084.05.132Zm-2.482 5.196v4.91H9.89v-4.91h4.06ZM9.89 9.728v1.594h4.06V9.728h-4.06Zm5.295.006c0-.6-.348-1.221-.925-1.221L9.584 8.51c-.58 0-.924.622-.924 1.221v7.72c0 .697.398 1.221.924 1.221h4.675c.527 0 .925-.526.925-1.221V9.734Z" fill="#313235"/></svg>