<svg width="24" height="24" fill="none" xmlns="http://www.w3.org/2000/svg"><path fill-rule="evenodd" clip-rule="evenodd" d="M18.396 17.368 5.593 17.36c-1.12 0-1.99-.311-2.58-.927-.574-.591-.863-1.437-.863-2.513V7.923c0-2.202 1.221-3.412 3.44-3.412l12.806.009c2.219 0 3.44 1.213 3.44 3.411v5.998c0 1.075-.288 1.921-.86 2.512-.593.616-1.462.927-2.58.927ZM5.59 5.632c-.807 0-1.406.193-1.779.574-.358.367-.54.944-.54 1.717v5.997c0 1.583.736 2.32 2.319 2.32l12.804.008c1.582 0 2.32-.737 2.32-2.32V7.932c0-.773-.183-1.35-.544-1.717-.373-.38-.97-.574-1.78-.574l-12.8-.008Zm3.941 13.94 4.916.01c.308 0 .56-.253.56-.561a.562.562 0 0 0-.56-.56l-4.916-.009a.562.562 0 0 0-.56.56c0 .309.252.56.56.56Z" fill="#313235"/></svg>