<svg width="24" height="24" viewBox="0 0 24 24" fill="none" xmlns="http://www.w3.org/2000/svg">
<path d="M18.7043 6.16631C19.1244 5.63476 19.8959 5.54445 20.4275 5.96458C20.959 6.38472 21.0493 7.1562 20.6292 7.68774L12.6096 17.834C12.3893 18.1127 12.059 18.2822 11.7041 18.2987C11.3492 18.3152 11.0046 18.177 10.7594 17.92L7.21219 14.2008C6.74457 13.7106 6.76294 12.934 7.25323 12.4664C7.74351 11.9988 8.52005 12.0172 8.98767 12.5074L11.0042 14.6217C11.1441 14.7684 11.3407 14.8472 11.5432 14.8378C11.7457 14.8284 11.9342 14.7317 12.0599 14.5726L18.7043 6.16631Z" fill="#0066FF"/>
<path d="M11.2643 12.866L15.3571 7.68783C15.7773 7.15629 15.6869 6.3848 15.1554 5.96467C14.6239 5.54454 13.8524 5.63485 13.4322 6.1664L9.50554 11.1344C9.6828 11.2468 9.84934 11.3824 10.0008 11.5412L11.2643 12.866Z" fill="#0066FF"/>
<path d="M7.14359 14.1226L8.62692 12.246C8.75851 12.3085 8.88111 12.3957 8.98767 12.5074L10.3876 13.9752L8.85105 15.9191L7.21219 14.2008C7.18802 14.1755 7.16516 14.1494 7.14359 14.1226Z" fill="#0066FF"/>
<path d="M5.86011 14.7275C5.81383 14.6977 5.7708 14.6624 5.73212 14.6218L3.71559 12.5075C3.24797 12.0173 2.47144 11.9989 1.98115 12.4665C1.49087 12.9341 1.47249 13.7107 1.94012 14.2009L5.48731 17.9201C5.73251 18.1771 6.07711 18.3153 6.432 18.2988C6.78688 18.2823 7.11719 18.1128 7.33749 17.8341L7.97432 17.0284L6.1991 15.1671C6.06839 15.0301 5.95542 14.8826 5.86011 14.7275Z" fill="#0066FF"/>
</svg>
