<svg width="24" height="24" viewBox="0 0 24 24" xmlns="http://www.w3.org/2000/svg"><path d="M19.345 18.86c-1.084.538-2.443.81-4.034.81-3.812 0-6.126-1.494-7.02-4.527h5.519c.515 0 .935-.44.935-.986 0-.544-.417-.986-.935-.986H7.944c-.04-.434-.081-.863-.081-1.342 0-.207.028-.386.036-.588h5.91c.516 0 .936-.44.936-.986s-.417-.986-.935-.986H8.129c.723-3.53 3.073-5.286 7.182-5.286 1.574 0 2.916.266 3.994.79.47.23 1.026.014 1.244-.479.216-.493.014-1.078-.457-1.308-1.324-.647-2.935-.972-4.781-.972-5.143 0-8.3 2.557-9.107 7.255h-1.59c-.516 0-.936.44-.936.986s.42.986.935.986h1.398c-.005.196-.02.386-.02.588 0 .465.023.908.06 1.342H4.612c-.515 0-.935.44-.935.986 0 .543.42.986.935.986H6.35c1.006 4.216 4.098 6.496 8.958 6.496 1.871 0 3.496-.336 4.832-.998.468-.232.67-.817.448-1.31-.218-.493-.773-.706-1.243-.471" fill="#313235" fill-rule="nonzero"/></svg>