<svg width="24" height="24" viewBox="0 0 24 24" xmlns="http://www.w3.org/2000/svg"><path d="M16.877 18.9c.326-.21.296-.26.178-.488-.117-.219-.326-.29-.53-.219l-3.584 1.254c-.04.01-.077 0-.117.01a1.858 1.858 0 01-.948.279H7.385a.743.743 0 01-.74-.746.75.75 0 01.74-.746h4.49c.199 0 .414-.219.414-.417 0-.168-.087-.36-.286-.37l-.245.01c-.76.01-2.35.05-3.859-.897-.01-.01-.72-.39-2.89-.468v3.765l4.164 2.02c.296.168.642.239 1.056.239.366 0 .662-.05.897-.158.017-.013 4.4-2.212 5.751-3.069zm-13.35 2.44v-5.658a.272.272 0 00-.28-.279H1.758a.28.28 0 00-.279.28v5.656c0 .148.128.27.279.27h1.49a.27.27 0 00.278-.27zm12.51-4.562c.88-.31 1.845.05 2.29.857.534 1.036.275 1.933-.663 2.528-1.412.897-5.725 3.065-5.91 3.156-.453.199-.957.3-1.529.3-.682 0-1.274-.138-1.748-.417l-3.492-1.684A1.754 1.754 0 013.247 23.1H1.758A1.76 1.76 0 010 21.339v-5.657c0-.975.79-1.771 1.758-1.771h1.49c.564 0 1.055.269 1.38.686 2.932.05 3.906.608 4.075.716 1.105.695 2.356.665 3.018.658.118-.01.229-.01.296-.01.897.02 1.61.706 1.728 1.614l2.292-.797zM2.511 16.11c.34 0 .585.246.585.588 0 .343-.242.595-.585.595a.577.577 0 01-.592-.595c0-.342.252-.588.592-.588zm19.637-8.171V2.28a.268.268 0 00-.269-.27h-1.49a.272.272 0 00-.278.27v5.657a.28.28 0 00.279.279h1.489a.279.279 0 00.269-.28zm-3.516-.42V3.753l-4.165-2.02c-.306-.168-.642-.239-1.055-.239-.363 0-.662.05-.898.158-.02.01-4.41 2.212-5.751 3.069-.326.208-.306.259-.178.487.11.219.326.29.534.219l3.58-1.254c.04-.01.077-.01.118-.01.275-.178.601-.28.938-.28h4.5c.404 0 .74.33.74.747a.75.75 0 01-.74.746h-4.5c-.189 0-.404.219-.404.407 0 .178.088.37.286.37h.235c.77-.02 2.357-.05 3.87.894.01.013.712.393 2.89.47zM21.879.519c.968 0 1.748.787 1.748 1.762v5.657c0 .975-.78 1.771-1.748 1.771h-1.49a1.758 1.758 0 01-1.38-.686c-2.932-.05-3.906-.608-4.075-.716-1.105-.695-2.356-.679-3.018-.658h-.306c-.897-.01-1.61-.706-1.714-1.614l-2.29.807a1.894 1.894 0 01-2.292-.854c-.534-1.045-.275-1.933.652-2.528 1.422-.897 5.735-3.065 5.92-3.156.988-.447 2.396-.397 3.277.121l3.492 1.684A1.751 1.751 0 0120.393.526h1.486V.519zm-.706 5.805c.336 0 .575.249.575.589a.555.555 0 01-.575.578.557.557 0 01-.575-.578c.004-.34.242-.589.575-.589zm-10.928 3.957c-.174.15-.13.463-.09.638.104.444.316.915.621 1.395.253.397.448.642.797 1.005.024.024.108.115.182.165.027.007.053.01.077.017.074-.074.151-.158.175-.182.356-.37.544-.612.796-1.005.306-.48.518-.951.622-1.395.04-.175.084-.49-.087-.638a.555.555 0 00-.33-.118 1.04 1.04 0 00-.534.138l-.457.269-.4.01-.508-.28a1.006 1.006 0 00-.49-.137h-.04a.58.58 0 00-.334.118zm.34 4.016a7.14 7.14 0 01-.972-1.226c-.39-.616-.662-1.23-.8-1.826-.195-.823 0-1.56.532-2.02.309-.269.719-.427 1.16-.45a2.4 2.4 0 011.273.309l.01.007c.004-.004.01-.004.014-.007.4-.225.847-.33 1.274-.31.437.024.847.182 1.156.451.534.46.73 1.197.534 2.02-.14.599-.41 1.214-.803 1.826-.3.47-.551.786-.955 1.21-.057.06-.232.232-.376.34a1.515 1.515 0 01-.561.255l-.276.03h-.003a1.738 1.738 0 01-.286-.03 1.496 1.496 0 01-.558-.256c-.141-.1-.313-.272-.363-.323z" fill="#313235" fill-rule="nonzero"/></svg>