<svg width="24" height="24" viewBox="0 0 24 24" xmlns="http://www.w3.org/2000/svg"><path d="M16.116 2.017a2.74 2.74 0 012.737 2.737v14.165a2.738 2.738 0 01-2.737 2.734h-8.7a2.916 2.916 0 01-2.913-2.914V4.664c0-.706.274-1.37.773-1.871a2.618 2.618 0 011.871-.776h8.97zm.011 1.143h-8.98c-.4 0-.779.157-1.062.44-.282.282-.44.66-.44 1.064v14.075c0 .978.796 1.774 1.774 1.774l8.708-.001V3.16zm1.586 12.165h-.443l.001 4.694c.274-.286.442-.674.442-1.1v-3.594zm-5.6-2.983c1.44 0 2.373.983 2.373 2.504v.888a.511.511 0 01-.51.507H7.903a.507.507 0 01-.507-.507v-.888c0-1.521.93-2.504 2.373-2.504h2.344zm-.002 1.014H9.766c-1.182 0-1.358.933-1.358 1.49v.38h5.061v-.38c0-.557-.176-1.49-1.358-1.49zm5.602-3.866h-.443v4.692h.443V9.49zM10.93 6.916c1.547 0 2.432.885 2.432 2.431 0 1.541-.885 2.426-2.432 2.426-1.54 0-2.425-.885-2.425-2.426 0-1.546.885-2.431 2.425-2.431zm0 1.092c-.932 0-1.333.401-1.333 1.34 0 .932.398 1.333 1.333 1.333.939 0 1.34-.398 1.34-1.334 0-.938-.401-1.339-1.34-1.339zm6.34-4.355l-.001 4.694h.443V4.754c0-.427-.168-.815-.442-1.101z" fill="#313235" fill-rule="nonzero"/></svg>