<svg width="24" height="24" viewBox="0 0 24 24" xmlns="http://www.w3.org/2000/svg"><path d="M17.697 11.039a.74.74 0 010 1.479h-5.152v5.163a.74.74 0 01-1.48 0v-5.167H5.924a.74.74 0 010-1.479h5.143V5.943a.74.74 0 011.479 0v5.096h5.152zM12.323 22.14c2.954-.054 9.822-1.166 9.822-10.299S15.237 1.556 12.269 1.486c-.282-.007-.565-.01-.847-.01H11.2c-2.924.027-9.721 1.079-9.721 10.299 0 9.233 6.864 10.33 9.815 10.37.343.003.686.003 1.029-.004zm-.02-22.13c2.319.056 11.32.97 11.32 11.831 0 10.887-9.018 11.731-11.27 11.775-.212.003-.454.007-.7.007-.127 0-.255 0-.382-.004C8.897 23.587 0 22.73 0 11.775 0 .834 8.813.02 11.187 0h.235c.302 0 .615.003.88.01z" fill="#313235" fill-rule="nonzero"/></svg>