<svg width="24" height="24" viewBox="0 0 24 24" xmlns="http://www.w3.org/2000/svg"><path d="M18.761 14.067c-.312.313-.692.558-1.109.767a4.907 4.907 0 01-.649.282 6.502 6.502 0 01-1.764.292c-.111.007-.209.024-.323.024H8.812c-.111 0-.212-.02-.323-.024a6.634 6.634 0 01-1.765-.292 4.907 4.907 0 01-.648-.282c-.417-.209-.797-.45-1.11-.767-.305-.406-.467-.968-.467-1.697 0-.726.165-1.288.47-1.701.72-.726 1.745-1.16 2.976-1.3-.04.271-.068.55-.068.853 0 1.27.37 2.265 1.096 2.961.696.666 1.67 1.005 2.894 1.005 1.227 0 2.199-.34 2.894-1.005.726-.696 1.093-1.69 1.093-2.961 0-.3-.024-.582-.064-.854 1.23.145 2.252.575 2.975 1.3.306.411.47.976.47 1.702-.006.73-.168 1.29-.474 1.697zm-9.388 2.85h4.982l-.004.307c-.006.87-.343 2.322-2.487 2.322-2.145 0-2.48-1.452-2.488-2.322l-.003-.306zm7.442.586c-.013 1.398-.52 4.642-4.951 4.642-4.434 0-4.938-3.244-4.951-4.642l-.014-.797c.313.07.639.124.975.158l.007.373c.016 1.748 1.069 3.785 3.98 3.788 2.914 0 3.966-2.037 3.98-3.788l.006-.373a8.08 8.08 0 00.975-.158l-.007.797zM9.275 2.326c.579-.558 1.453-.84 2.589-.84 1.14 0 2.01.285 2.588.84.598.578.904 1.469.904 2.649 0 .958-.211 1.714-.608 2.275-.09.128-.185.26-.296.367 0 0-.05.037-.114.094a.73.73 0 00-.407.528.74.74 0 00.09.467c.014.05.031.09.045.118.1.194.114.238.174.477.07.275.115.575.115.917 0 .854-.216 1.49-.636 1.893-.41.393-1.035.592-1.858.592-.824 0-1.45-.199-1.856-.592-.423-.403-.639-1.042-.639-1.893 0-.342.047-.645.118-.917.06-.239.077-.283.175-.477a.604.604 0 00.047-.118.719.719 0 00.09-.467.73.73 0 00-.406-.528c-.064-.057-.114-.094-.114-.094-.115-.108-.205-.239-.296-.367-.397-.56-.609-1.317-.609-2.275 0-1.18.303-2.07.905-2.649zm10.592 7.355c-.017-.02-.03-.04-.05-.06-.067-.082-.125-.125-.202-.196a1.53 1.53 0 00-.205-.178c-.88-.72-2.003-1.173-3.3-1.344.483-.78.735-1.758.735-2.928 0-1.597-.457-2.847-1.358-3.714C14.62.424 13.4 0 11.857 0 10.314 0 9.094.424 8.23 1.26c-.9.868-1.358 2.118-1.358 3.715 0 1.17.249 2.148.736 2.928-1.297.17-2.416.625-3.3 1.344-.078.05-.145.118-.205.178-.074.07-.132.114-.199.195-.02.02-.03.04-.05.06-.555.68-.854 1.574-.854 2.69 0 1.116.3 2.01.854 2.689l.05.06c.128.131.262.256.404.37a5.6 5.6 0 001.085.7l.02 1.327c.024 2.955 1.732 6.108 6.444 6.108 4.713 0 6.42-3.153 6.444-6.108l.02-1.328c.393-.198.756-.43 1.086-.699.14-.114.275-.242.403-.37l.05-.06c.558-.68.858-1.573.858-2.69.003-1.115-.293-2.01-.85-2.688z" fill="#313235" fill-rule="nonzero"/></svg>