<svg width="24" height="24" viewBox="0 0 24 24" xmlns="http://www.w3.org/2000/svg"><path d="M11.662.03c3.09 0 5.6 2.404 5.6 5.358a.623.623 0 01-1.244.04v-.04c0-2.265-1.952-4.11-4.356-4.11h-.222c-2.4 0-4.356 1.845-4.356 4.11v3.16h8.998c1.24 0 2.215.333 2.901.988.71.682 1.08 1.68 1.093 2.972v7.119c-.017 1.29-.384 2.292-1.093 2.971-.686.66-1.66.992-2.9.992h-9.09c-1.24 0-2.218-.333-2.9-.992-.71-.682-1.07-1.687-1.07-2.978l.004-6.78c0-.142-.002-.218-.003-.256v-.066c0-1.294.36-2.296 1.068-2.979.455-.438 1.04-.733 1.747-.88l.001-3.27C5.84 2.433 8.351.03 11.44.03h.222zm4.424 9.758H6.993c-1.852.004-2.716.86-2.722 2.703v.192l.003.147v.004L4.27 19.62c0 1.859.863 2.723 2.722 2.723h9.093c1.852 0 2.726-.867 2.75-2.73v-7.095c-.024-1.863-.898-2.73-2.75-2.73zm-4.535 9.436c.488 0 .804.252.804.796 0 .262-.071.457-.202.588-.141.145-.346.212-.602.212-.255 0-.46-.07-.601-.212-.128-.13-.202-.326-.202-.588 0-.544.316-.796.803-.796zm.004-2.8c1.637 0 2.9.45 3.761 1.334a.625.625 0 01-.013.88.625.625 0 01-.881-.013c-.615-.635-1.58-.958-2.867-.958-1.288 0-2.26.323-2.874.962a.623.623 0 01-.894-.86c.86-.892 2.127-1.345 3.768-1.345zm.003-3.308c2.393 0 4.235.649 5.476 1.926a.625.625 0 01-.014.88.625.625 0 01-.88-.013c-.999-1.028-2.542-1.55-4.585-1.55-2.05 0-3.597.525-4.592 1.56a.623.623 0 11-.894-.864c1.24-1.287 3.089-1.939 5.489-1.939z" fill="#313235" fill-rule="nonzero"/></svg>