<svg width="24" height="24" viewBox="0 0 24 24" xmlns="http://www.w3.org/2000/svg"><path d="M19.084 22.165c.114 0 .229-.115.229-.202V8.242H16.58c-1.197 0-2.232-.397-2.992-1.143-.766-.756-1.173-1.785-1.173-2.978V1.459h-7.72c-.088 0-.223.13-.23.202v6.776l.048 9.573-.047 3.96c0 .06.117.191.228.191h14.39v.004zm-.376-15.382L13.844 2v2.118c0 .79.255 1.455.736 1.93.487.48 1.18.732 1.996.732h2.132v.003zm1.98.128a.735.735 0 01.057.286v14.766c0 .9-.763 1.66-1.664 1.66H4.69c-.884 0-1.664-.776-1.664-1.66l.047-3.956-.047-9.567V1.66C3.027.79 3.82 0 4.69 0h8.76c.272 0 .537.11.729.303l6.252 6.147c.131.125.208.29.255.46zM15.51 18.672l.773.29-1.334-2.949c-.528.448-1.214.713-2.044.807l1.391 3.076.29-.797a.726.726 0 01.924-.427zM9.797 19.9l1.408-3.11c-.817-.134-1.486-.446-1.98-.954l-1.418 3.133.776-.292a.723.723 0 01.921.427l.293.796zm2.396-10.141c-2.087 0-3.018.948-3.018 3.072 0 2.125.93 3.07 3.018 3.07 2.088 0 3.019-.949 3.019-3.07 0-2.124-.931-3.072-3.019-3.072zm3.46 5.482l1.74 3.85a.737.737 0 01-.094.765.723.723 0 01-.716.256l-1.18-.44-.42 1.142c-.151.3-.393.448-.659.448h-.02a.72.72 0 01-.635-.424l-1.62-3.58-1.62 3.58a.717.717 0 01-.636.424h-.02a.718.718 0 01-.635-.39l-.444-1.2-1.123.42c-.326.077-.605-.02-.776-.236a.737.737 0 01-.094-.766l1.845-4.074c.017-.04.05-.07.074-.104-.255-.568-.4-1.25-.4-2.077 0-2.753 1.462-4.044 3.973-4.044s3.977 1.29 3.977 4.044c0 .974-.192 1.758-.541 2.373.006.01.016.02.023.033zm-4.115-2.8l-.652.105.54.487c.092.094.135.242.115.373l-.12.753.524-.346c.016-.01.03-.024.047-.034l.003-.003a.4.4 0 01.427.02l.551.306-.131-.696a.465.465 0 01.118-.376l.514-.532-.69-.067a.426.426 0 01-.308-.228l-.323-.693-.242.686a.418.418 0 01-.373.245zm-.827 1.026l-.377-.387a.817.817 0 01-.184-.82.775.775 0 01.618-.535l.504-.077.229-.49c.255-.559 1.13-.559 1.391 0l.232.497.505.077a.776.776 0 01.618.531.813.813 0 01-.185.82l-.376.39.09.555a.81.81 0 01-.319.786.76.76 0 01-.81.048l-.444-.25-.447.25a.752.752 0 01-.813-.047.796.796 0 01-.316-.784l.084-.564z" fill="#313235" fill-rule="nonzero"/></svg>