<svg width="24" height="24" viewBox="0 0 24 24" xmlns="http://www.w3.org/2000/svg"><path d="M10.171 19.647c.599 0 1.083.171 1.432.508.367.353.552.847.552 1.475 0 .629-.185 1.123-.552 1.476-.346.336-.83.507-1.432.507-.601 0-1.082-.171-1.432-.507-.366-.353-.55-.847-.55-1.476 0-.628.184-1.122.55-1.475.35-.337.834-.508 1.432-.508zm6.555 0c.598 0 1.082.171 1.432.508.363.353.551.847.551 1.475 0 .629-.185 1.123-.551 1.476-.346.336-.83.507-1.432.507s-1.082-.171-1.432-.507c-.366-.353-.551-.847-.551-1.476 0-.628.185-1.122.551-1.475.35-.337.834-.508 1.432-.508zm-6.555 1.345c-.49 0-.638.147-.638.638s.148.639.638.639c.491 0 .64-.148.64-.639 0-.49-.149-.638-.64-.638zm6.555 0c-.49 0-.639.147-.639.638s.148.639.64.639c.49 0 .638-.148.638-.639 0-.49-.148-.638-.639-.638zM2.306 0c1.64 0 3.022 1.059 3.284 2.521.069.386.275 1.57.529 3.042h2.735c.052 0 .103.006.152.018L9.005.965c0-.572.37-.941.945-.941h4.8c.134 0 .262.053.356.147l3.613 3.614a.504.504 0 01.146.308l.001.022a.22.22 0 01.001.026v1.422h4.067a.674.674 0 01.653.837l-.235.936c-.186.745-.424 1.702-.673 2.694-.45 1.815-.918 3.691-1.059 4.239-.32 1.23-.78 2.138-1.418 2.773-.67.669-1.513 1.008-2.508 1.008h-7.523c-1.005 0-1.895-.34-2.578-.978-.709-.669-1.17-1.633-1.364-2.867-.072-.464-.44-2.62-.838-4.948l-.12-.702c-.444-2.582-.895-5.189-1.002-5.799-.145-.806-.985-1.411-1.96-1.411H.69A.674.674 0 01.017.672C.017.302.319 0 .689 0h1.617zm6.548 6.908H6.35c.516 2.995 1.113 6.481 1.209 7.089.148.93.467 1.633.958 2.097.43.407.988.612 1.653.612h7.52c.82 0 1.983-.286 2.625-2.773.04-.155.107-.418.192-.758l.091-.363.776-3.104c.259-1.042.507-2.04.699-2.8l-3.207-.001v6.105c0 .561-.363.927-.928.927l-.601.004H9.953c-.585 0-.948-.363-.948-.951l.001-6.102a.668.668 0 01-.152.018zm5.394-5.873h-4.224v11.9h7.838V4.647H16.06c-.794-.003-1.217-.366-1.432-.668-.253-.36-.377-.844-.38-1.483l-.001-1.462zm2.169 9.284a.504.504 0 110 1.009h-5.244a.504.504 0 110-1.009h5.244zm0-2.292a.504.504 0 110 1.008h-5.244a.504.504 0 110-1.008h5.244zm0-2.296a.504.504 0 110 1.008h-5.244a.504.504 0 110-1.008h5.244zm-1.16-3.983v.746c.004 1.056.383 1.146.807 1.146h1.082l-1.889-1.892z" fill="#313235" fill-rule="nonzero"/></svg>