<svg width="24" height="24" viewBox="0 0 24 24" xmlns="http://www.w3.org/2000/svg"><path d="M18.541 8.77c-.054 0-.097-.007-.148-.007l1.086-1.26c.242-.263.393-.612.393-.995a1.45 1.45 0 00-1.445-1.46h-.017l-3.496.018c.017-2.458 1.167-3.607 3.627-3.607 2.444 0 3.634 1.196 3.634 3.657 0 2.49-1.157 3.654-3.634 3.654zm-6.92 5.613L6.738 9.217h9.338l-4.457 5.166zm-1.453 7.775l1.482-.686 1.607.68-3.089.006zm8.252-15.65l-1.099 1.267c-.03-.004-.057-.017-.087-.017H5.36L4.24 6.571c0 .004 14.181-.063 14.181-.063zM18.541 0c-3.26 0-5.059 1.802-5.075 5.069l-6.219.03L5.002 2.84a1.745 1.745 0 00-1.234-.51H.726c-.4 0-.726.325-.726.729 0 .403.326.73.726.73h3.042c.077 0 .155.03.208.083L5.203 5.11l-.968.004c-.578.003-1.099.353-1.327.887a1.472 1.472 0 00.282 1.576l7.381 7.816c.098.104.219.188.343.258v4.558l-4.37 2.024a.73.73 0 00.3 1.392l9.996-.02a.731.731 0 00.279-1.402l-4.76-2.014V15.63a1.4 1.4 0 00.354-.289l4.517-5.233c.407.074.84.117 1.308.117 3.277 0 5.082-1.815 5.082-5.112C23.624 1.818 21.818 0 18.541 0z" fill="#313235" fill-rule="nonzero"/></svg>