<svg width="24" height="24" viewBox="0 0 24 24" xmlns="http://www.w3.org/2000/svg"><path d="M22.094 21.872c0 .125-.1.222-.222.222H8.477a.222.222 0 01-.222-.222v-4.975h6.834c.998 0 1.812-.813 1.812-1.811V8.252h4.971a.22.22 0 01.222.222v13.398zM1.53 15.09V1.812c0-.155.128-.283.283-.283h13.274c.154 0 .282.128.282.283v13.277a.284.284 0 01-.282.282H1.808a.283.283 0 01-.279-.282c-.003 0-.003 0 0 0zm20.343-8.366h-4.975V1.812A1.813 1.813 0 0015.086 0H1.808A1.81 1.81 0 000 1.812v13.277c0 .998.813 1.812 1.812 1.812h4.91v4.971c0 .965.787 1.752 1.752 1.752h13.395c.968 0 1.751-.787 1.751-1.752V8.474a1.75 1.75 0 00-1.748-1.751z" fill="#313235" fill-rule="nonzero"/></svg>