<svg width="24" height="24" viewBox="0 0 24 24" xmlns="http://www.w3.org/2000/svg"><path d="M11.795 0c3.748 0 6.662.978 8.666 2.908 2.08 2.003 3.132 4.995 3.132 8.89 0 3.896-1.055 6.884-3.132 8.888-2.004 1.93-4.918 2.907-8.666 2.907s-6.662-.978-8.662-2.907c-2.078-2-3.13-4.989-3.13-8.884 0-3.896 1.052-6.888 3.13-8.891C5.133.98 8.05 0 11.795 0zm0 1.308c-6.958 0-10.487 3.529-10.487 10.494 0 6.958 3.529 10.487 10.487 10.487 6.961 0 10.494-3.53 10.494-10.487 0-6.962-3.533-10.494-10.494-10.494zm5.576 5.32c.273.206.33.592.125.864l-6.918 9.264a.613.613 0 01-.484.249h-.013a.617.617 0 01-.484-.232l-3.167-3.98a.619.619 0 01.098-.867.619.619 0 01.867.098l2.669 3.354 6.444-8.625a.617.617 0 01.863-.124z" fill="#313235" fill-rule="nonzero"/></svg>