<svg width="24" height="24" viewBox="0 0 24 24" xmlns="http://www.w3.org/2000/svg"><path d="M7.903 3.027c1.673 0 2.598.92 2.598 2.598v2.327h1.475l-.01-.69a.641.641 0 01.179-.47.583.583 0 01.413-.172c.138 0 .276.047.397.141l.613.46c.43-.606 1.152-.91 2.15-.91h5.284c.857 0 1.489.215 1.932.652.448.444.666 1.079.666 1.943v9.852c0 1.7-.897 2.598-2.598 2.598h-5.284c-1.674 0-2.599-.92-2.599-2.598v-2.266a.67.67 0 01.01-.11l-1.428.006-.014.746c-.006.357-.262.629-.598.629a.66.66 0 01-.397-.138l-.629-.469a.69.69 0 01-.013.019c-.437.601-1.14.897-2.144.897H2.618c-.857 0-1.489-.215-1.932-.652-.447-.447-.666-1.082-.666-1.946V5.625c0-1.7.898-2.598 2.598-2.598h5.285zm13.095 4.625h-5.28c-.815 0-1.004.26-1.074.376l1.413 1.056a.68.68 0 01.28.545c0 .211-.105.41-.283.544l-1.698 1.264c.068.104.108.23.108.363v1.287h.5a.811.811 0 01.878.81l.003 1.607a.814.814 0 01-.198.602.779.779 0 01-.625.265l-.569.003a.67.67 0 01.01.118v2.266c0 .938.317 1.254 1.255 1.254h5.284c.477 0 .806-.091.985-.27.178-.177.265-.507.265-.984V8.906c0-.961-.292-1.254-1.254-1.254zM18.36 18.23c.356 0 .585.188.585.588 0 .192-.054.337-.148.434-.101.104-.252.155-.437.155s-.336-.05-.437-.155c-.094-.097-.148-.239-.148-.434 0-.403.232-.588.585-.588zM7.903 4.371H2.618c-.477 0-.806.091-.984.27-.179.177-.266.507-.266.984v9.852c0 .962.293 1.254 1.254 1.254h5.284c.807 0 .991-.255 1.052-.34l.03-.036-1.418-1.056a.679.679 0 01-.283-.544c0-.212.101-.414.28-.545l1.728-1.293a.668.668 0 01-.139-.408v-1.264l-.554-.003h-.037a.787.787 0 01-.589-.269.814.814 0 01-.198-.602l.004-1.606a.806.806 0 01.231-.572.785.785 0 01.646-.238l.497-.001V5.625c0-.938-.316-1.254-1.253-1.254zm2.732 8.8l-2.114 1.584 2.171 1.616.004-.255c.007-.4.336-.73.736-.733l3.402-.017-.004-1.27-3.462-.004a.735.735 0 01-.736-.746l.003-.175zm-5.374 1.792c.356 0 .584.188.584.588 0 .192-.053.336-.148.434-.1.104-.252.154-.436.154-.185 0-.337-.05-.437-.154-.095-.098-.148-.239-.148-.434 0-.4.232-.588.585-.588zm5.24-3.712v.762l.168-.126a.66.66 0 01.397-.137c.158 0 .305.06.413.171a.641.641 0 01.178.47l-.01.693h1.472v-.728l-.191.143a.662.662 0 01-.394.135c-.336 0-.595-.273-.598-.629l-.013-.746-1.423-.008zm2.487-3.209l.004.175a.736.736 0 01-.737.746l-3.462.003-.006 1.271 3.401.017a.748.748 0 01.74.736l.003.252 2.172-1.617-2.115-1.583z" fill="#313235" fill-rule="nonzero"/></svg>