<svg width="24" height="24" viewBox="0 0 24 24" xmlns="http://www.w3.org/2000/svg"><path d="M17.334 17.96h-.571l.793-.837c.273-.3.35-.726.202-1.106a.996.996 0 00-.918-.619h-1.72l-.01-5.055c-.01-.548-.444-1.005-.996-1.005H9.57a1.01 1.01 0 00-.999 1.018v4.935l-1.73.01a.977.977 0 00-.908.618c-.155.377-.078.817.201 1.106l.938.999-1.828.01c-1.133 0-3.762-.37-3.762-3.86 0-1.956.814-3.192 2.417-3.66.32-.09.531-.39.521-.73v-.13c0-5.704 4.834-6.141 6.316-6.141.84 0 5.086.188 6.08 4.047.088.319.367.55.687.558 1.411.04 4.699.598 4.699 4.907.003 4.585-3.728 4.935-4.868 4.935zm-5.425 3.022l-3.963-4.199H9.04c.55 0 .985-.447.985-1.015v-4.934h3.637l.01 5.045c0 .558.443 1.018.995 1.018h1.082l-3.839 4.085zm6.158-14.333c-1.489-4.407-6.343-4.636-7.33-4.636-1.278 0-7.534.35-7.766 7.25-1.277.529-2.94 1.806-2.94 4.908 0 3.947 2.688 5.355 5.213 5.355l3.24-.02 2.716 2.87c.185.189.434.31.706.31a.997.997 0 00.706-.31l2.736-2.91 1.983-.01c2.921 0 6.323-1.685 6.323-6.43.003-4.32-2.79-6.105-5.587-6.377z" fill="#313235" fill-rule="nonzero"/></svg>