<svg width="24" height="24" viewBox="0 0 24 24" xmlns="http://www.w3.org/2000/svg"><path d="M15.435 21.439c.101.168.252.41.367.55a.69.69 0 00.265.23l.04-.014c-.003-.02.091-.097.175-.205.152-.188.31-.46.4-.615l.068-.111a22.541 22.541 0 001.56-3.425c.315-.84.58-1.688.813-2.602.057-.205.114-.447.178-.713l.13-.41c1.187-2.05 2.024-4.074 2.492-6.013.564-2.37.127-4.313-1.234-5.469-.79-.679-1.876-1.086-3.062-1.146-1.29-.07-2.625.255-3.866.944-.46.26-.93.525-1.448.834a.925.925 0 01-.495.151c-.252 0-.423-.104-.504-.151a75.699 75.699 0 00-1.448-.834c-1.24-.689-2.575-1.022-3.863-.944-1.19.06-2.275.467-3.062 1.143C1.576 3.799 1.14 5.738 1.704 8.11c.467 1.936 1.304 3.96 2.491 6.013l.077.192.057.239c.064.258.121.494.172.685.235.925.5 1.775.813 2.605.501 1.352.898 2.226 1.58 3.46l.05.083c.091.155.253.427.394.605a.69.69 0 00.265.229l.04-.014c-.003-.02.091-.097.175-.205.118-.148.27-.386.37-.554v-.01l.091-.165c.057-.1.225-.551.376-.948 1.258-3.31 2.05-4.887 3.157-4.887 1.109 0 1.902 1.576 3.16 4.887.15.397.319.847.376.948l.087.165zm.683 2.218h-.138a1.22 1.22 0 01-.417-.077 2.115 2.115 0 01-.908-.686 6.884 6.884 0 01-.581-.897l-.09-.199a20.725 20.725 0 01-.38-.964c-.317-.834-1.228-3.23-1.796-3.856-.568.625-1.475 3.025-1.791 3.856-.175.463-.29.76-.377.954l-.01.047-.087.162a6.797 6.797 0 01-.588.904 2.062 2.062 0 01-.86.662 1.28 1.28 0 01-.445.09h-.134a1.22 1.22 0 01-.417-.077 2.086 2.086 0 01-.904-.685 6.562 6.562 0 01-.508-.773l-.053-.091a23.951 23.951 0 01-1.688-3.684 25.496 25.496 0 01-.857-2.746c-.05-.192-.11-.44-.178-.71l-.034-.137c-1.23-2.142-2.1-4.266-2.591-6.313-.7-2.928-.094-5.385 1.704-6.91C3.018.641 4.417.113 5.926.036c1.553-.084 3.166.302 4.649 1.126.4.225.803.454 1.237.71.447-.263.847-.488 1.237-.707C14.53.343 16.148-.047 17.704.037c1.506.077 2.904.605 3.936 1.492 1.795 1.526 2.4 3.98 1.701 6.908-.49 2.047-1.365 4.168-2.591 6.313l-.03.117c-.068.28-.128.535-.186.74a25.01 25.01 0 01-.857 2.74 23.71 23.71 0 01-1.667 3.646l-.07.121a6.7 6.7 0 01-.515.78 2.062 2.062 0 01-.86.662c-.125.054-.27.101-.447.101z" fill="#313235" fill-rule="nonzero"/></svg>