<svg width="24" height="24" viewBox="0 0 24 24" xmlns="http://www.w3.org/2000/svg"><path d="M16.212.03c.275 0 .548.111.743.303l6.35 6.148c.134.13.211.292.261.464a.735.735 0 01.058.285v14.767c0 .9-.774 1.66-1.691 1.66H7.314c-.9 0-1.687-.776-1.687-1.66l.04-3.328h-2.76a2.913 2.913 0 01-2.904-2.911v-4.91a2.913 2.913 0 012.905-2.912h2.719V1.691c0-.87.803-1.66 1.687-1.66h8.898zm-1.06 1.462H7.312c-.087 0-.225.132-.232.202v6.242h7.637a2.91 2.91 0 012.904 2.911v4.911a2.913 2.913 0 01-2.904 2.91H7.119l-.04 3.335c0 .06.121.192.232.192h14.622v.003c.117 0 .232-.114.232-.201V8.276h-2.777c-1.217 0-2.269-.397-3.042-1.143-.78-.757-1.193-1.785-1.193-2.978V1.492zm-.433 7.906H2.904c-.8 0-1.449.652-1.449 1.452v4.911c0 .8.65 1.452 1.45 1.452h11.814c.8 0 1.45-.652 1.45-1.452v-4.91c0-.8-.65-1.453-1.45-1.453zm-1.448 1.691c.558 0 1.032.131 1.304.403.188.189.306.447.306.817 0 .46-.202.783-.589.978.468.168.747.518.747 1.096 0 .343-.105.642-.313.857-.292.306-.766.46-1.439.46a5.583 5.583 0 01-1.072-.107v-.699c.259.047.565.077.888.077.363 0 .578-.047.732-.147.155-.105.239-.273.239-.511 0-.232-.084-.39-.222-.488-.161-.117-.41-.154-.864-.154h-.124v-.65h.154c.407 0 .616-.05.774-.187.104-.091.174-.239.174-.454 0-.168-.047-.313-.148-.404-.13-.117-.35-.168-.699-.168-.285 0-.608.027-.867.064v-.685a5.16 5.16 0 011.019-.098zm-9.752.084l1.402 2.477 1.445-2.477h.777v4.434h-.925v-2.555l-.92 1.543H4.52l-.948-1.57v2.582h-.85v-4.434h.796zm6.111 0c.693 0 1.133.098 1.419.363.238.222.356.565.356 1.039s-.11.83-.33 1.075c-.258.293-.662.427-1.243.427h-.713v1.53H8.108v-4.434H9.63zm-.037.733H9.12v1.415h.501v-.003c.323 0 .46-.047.588-.168.118-.118.175-.306.175-.565 0-.239-.05-.414-.168-.524-.124-.111-.312-.155-.622-.155zm7.022-9.869v2.118c0 .79.259 1.455.746 1.929.498.48 1.197.733 2.03.733h2.162l-4.938-4.78z" fill="#313235" fill-rule="nonzero"/></svg>