<svg width="24" height="24" viewBox="0 0 24 24" xmlns="http://www.w3.org/2000/svg"><path d="M18.426 18.454V7.342H5.26V18.47c-.002.044-.044.927.5 1.501.338.358.856.538 1.543.538h9.07c.033 0 .938.025 1.523-.54.353-.343.53-.852.53-1.516zM8.336 4.324v1.813h7.011V4.333c.009-.185-.02-.627-.257-.874-.143-.154-.359-.227-.659-.227l-5.187.003c-.056-.003-.395-.022-.628.19-.185.174-.28.477-.28.9zM21.084 6.14a.601.601 0 110 1.205h-1.457v11.112c0 1.008-.305 1.812-.907 2.389-.854.818-2.02.871-2.311.871-.036 0-.059 0-.064-.003H7.303c-1.037 0-1.855-.31-2.426-.927-.9-.96-.818-2.302-.815-2.358L4.059 7.342H2.602a.601.601 0 110-1.205h4.532V4.325c0-.784.23-1.39.684-1.798.619-.56 1.398-.505 1.485-.493l5.128-.006c.804 0 1.283.333 1.541.613.63.676.583 1.628.577 1.734l.003 1.762h4.532v.003zM9.79 17.613a.601.601 0 01-.602-.602V10.85a.601.601 0 111.204 0v6.162a.605.605 0 01-.602.602zm4.106 0a.601.601 0 01-.602-.602V10.85a.601.601 0 111.205 0v6.162a.601.601 0 01-.603.602z" fill="#313235" fill-rule="nonzero"/></svg>