<svg width="24" height="24" viewBox="0 0 24 24" xmlns="http://www.w3.org/2000/svg"><path d="M12.323 22.141c2.954-.054 9.822-1.166 9.822-10.296 0-9.132-6.908-10.285-9.876-10.356a35.129 35.129 0 00-.87-.013l-.202.003c-2.921.024-9.721 1.082-9.721 10.296 0 9.233 6.863 10.33 9.815 10.37.117.003.242.003.363.003.235 0 .467-.003.669-.007zM12.306.013c2.312.054 11.318.969 11.318 11.832 0 10.884-9.016 11.731-11.271 11.772-.212.007-.454.007-.696.007-.128 0-.259 0-.383-.004C8.9 23.587.004 22.73.004 11.775.003.837 8.82.024 11.19.003c.07 0 .138-.003.212-.003.306 0 .628.007.904.013zm5.825 13.523c.168 0 .306-.124.323-.178l-.004-3.066c-.02-.057-.158-.174-.319-.174h-3.865a.74.74 0 01-.74-.74V5.523c0-.168-.124-.306-.178-.323l-3.069.003c-.044.014-.165.152-.165.32v3.865a.74.74 0 01-.74.74H5.51c-.181 0-.302.124-.312.168v3.079c.003.04.124.164.312.164h3.866c.407 0 .74.33.74.74v3.866c0 .181.124.302.167.309h3.09c.04-.01.164-.128.164-.31l-.01-3.862a.738.738 0 01.74-.74h3.865v-.006zm0-4.894c.958 0 1.798.766 1.798 1.64v3.093c0 .874-.84 1.64-1.798 1.64h-3.126l.007 3.123c0 .971-.753 1.788-1.64 1.788h-3.093c-.89 0-1.64-.817-1.64-1.785v-3.126H5.513c-.972 0-1.789-.75-1.789-1.64v-3.083c0-.887.817-1.64 1.789-1.64h3.126V5.526c0-.975.753-1.795 1.64-1.795h3.082c.874 0 1.64.84 1.64 1.795v3.116h3.13z" fill="#313235" fill-rule="nonzero"/></svg>