<svg width="24" height="24" viewBox="0 0 24 24" xmlns="http://www.w3.org/2000/svg"><path d="M3.106 4.602c.01 2.084.084 7.593.524 10.14.49 2.851 5.923 6.112 8.353 7.322 2.43-1.214 7.872-4.474 8.363-7.321.434-2.551.504-8.06.514-10.145-2.006.101-3.27-.74-4.484-1.553-1.206-.81-2.346-1.573-4.386-1.576h-.007c-2.037 0-3.18.766-4.387 1.576-1.216.817-2.48 1.678-4.49 1.557zm8.877 19.022a.717.717 0 01-.31-.071c-.893-.427-8.742-4.292-9.475-8.555-.568-3.29-.548-10.897-.548-11.22a.74.74 0 01.283-.581.734.734 0 01.625-.131c1.922.309 2.938-.38 4.228-1.248C8.06.965 9.502 0 11.98 0h.01c2.477.003 3.919.968 5.19 1.822 1.29.867 2.312 1.546 4.262 1.24a.75.75 0 01.601.165.75.75 0 01.273.555c0 .322.02 7.929-.538 11.22-.733 4.262-8.592 8.127-9.486 8.554a.765.765 0 01-.31.068z" fill="#313235" fill-rule="nonzero"/></svg>