<svg width="24" height="24" viewBox="0 0 24 24" xmlns="http://www.w3.org/2000/svg"><path d="M23.086 10.134L13.36.605c-.82-.803-2.211-.803-3.032 0L.602 10.138c-.552.541-.716 1.307-.434 2.003.31.756 1.076 1.247 1.95 1.247h.497v8.313c0 1.062.935 1.926 2.084 1.926H6.43c.007 0 .01-.003.017-.003l.01.003h10.706c.01 0 .017-.003.024-.003l.03.003h1.627c1.15 0 2.084-.864 2.084-1.926v-8.313h.635c.874 0 1.64-.487 1.95-1.247.292-.699.124-1.465-.427-2.007zm-10.736-8.5l9.724 9.532c.134.131.168.276.108.424-.064.161-.266.346-.612.346h-1.358c-.4 0-.723.323-.723.723v9.035c0 .262-.292.48-.639.48h-.904V12.76c0-.4-.322-.723-.722-.723H6.434c-.4 0-.723.323-.723.723v9.415H4.703c-.347 0-.64-.219-.64-.48v-9.036c0-.4-.322-.723-.722-.723h-1.22c-.35 0-.548-.188-.612-.346-.064-.151-.027-.293.108-.424l9.724-9.532c.259-.256.75-.256 1.009 0zm4.15 18.611v1.93H7.157v-1.93h9.345zm0-3.371v1.93H7.157v-1.93h9.345zm0-3.388v1.943H7.157v-1.943h9.345z" fill="#313235" fill-rule="nonzero"/></svg>