<svg width="24" height="24" viewBox="0 0 24 24" xmlns="http://www.w3.org/2000/svg"><path d="M5.745 4.007c.847 0 1.536.716 1.536 1.603v3.378h9.136V5.61c0-.884.689-1.603 1.536-1.603h1.318c.847 0 1.536.716 1.536 1.603v.135h1.314c.847 0 1.536.719 1.536 1.603v9.059c0 .884-.689 1.603-1.536 1.603h-1.314v.135c0 .884-.69 1.603-1.536 1.603h-1.318c-.85 0-1.536-.716-1.536-1.603V14.77H7.28v3.375c0 .884-.69 1.603-1.536 1.603H4.427c-.847 0-1.536-.716-1.536-1.603v-.138c-.004 0-.007.003-.014.003H1.56c-.85 0-1.536-.716-1.536-1.603v-9.06c0-.883.689-1.602 1.536-1.602h1.317c.004 0 .007.003.014.003V5.61c0-.884.689-1.603 1.536-1.603zM19.274 5.61h-1.318v4.958c0 .01.004.014.004.024v2.574l-.004.024v4.961h1.318v-1.71l-.003-.03V7.35c0-.013.003-.02.003-.03v-1.71zm-13.523 0H4.434v12.535H5.75v-4.8c-.006-.058-.017-.118-.017-.179v-2.574c0-.06.01-.118.017-.179V5.61zm16.373 1.738H20.81v9.059h1.314v-9.06zm-19.237 0H1.57v9.059h1.317v-9.06zm13.537 3.244H7.287v2.574h9.137v-2.574z" fill="#313235" fill-rule="nonzero"/></svg>