<svg width="24" height="24" viewBox="0 0 24 24" xmlns="http://www.w3.org/2000/svg"><path d="M20.3 3.12a.28.28 0 01.28.28v7.586a.28.28 0 01-.28.28h-.003a.274.274 0 01-.196-.084l-1.292-1.291-.204-.205c-.07.062-.14.124-.204.194l-6.816 6.817a.279.279 0 01-.395 0L6.992 12.5a.279.279 0 010-.395l6.815-6.815a.279.279 0 000-.395l-1.292-1.292a.279.279 0 01.2-.476H20.3M20.3 2h-7.586a1.401 1.401 0 00-.991 2.392l.697.698L6.2 11.31a1.402 1.402 0 000 1.981l4.196 4.2a1.402 1.402 0 001.98 0l6.222-6.225.708.712c.26.263.617.411.99.411.772 0 1.4-.627 1.402-1.4V3.4C21.697 2.627 21.073 2 20.3 2zM2.56 21.689a.56.56 0 01-.395-.958l4.633-4.633a.561.561 0 01.807.779l-.014.014-4.636 4.633a.55.55 0 01-.395.165zm5.037.003a.562.562 0 01-.56-.56.55.55 0 01.165-.395c1.042-1.042 2.271-2.328 2.285-2.342a.562.562 0 11.813.776c-.011.014-1.252 1.308-2.303 2.358a.583.583 0 01-.4.163zM2.61 16.706a.562.562 0 01-.398-.955c1.042-1.042 2.272-2.328 2.286-2.342a.562.562 0 11.812.776c-.011.014-1.252 1.308-2.303 2.358a.571.571 0 01-.397.163z" fill="#313235" fill-rule="nonzero"/></svg>