<svg width="24" height="24" viewBox="0 0 24 24" xmlns="http://www.w3.org/2000/svg"><path d="M11.731 2.011c.032 0 .063.003.093.008l.03-.002.175.005.1.002c5.29.148 9.535 4.488 9.53 9.814a9.809 9.809 0 01-5.987 9.028 9.769 9.769 0 01-3.74.77.532.532 0 01-.733-.493v-18.6c0-.294.238-.532.532-.532zm-4.983.507c1.871.042 2.857 1.037 2.857 2.869a3.93 3.93 0 01-.118.988c-.148.633-.465 1.124-.938 1.46-.473.336-1.087.504-1.835.504-.162 0-.327-.008-.49-.028-.042.034-.224.224-.347 1.028-.12.773-.135 1.779-.135 2.465v.09c0 .689.014 1.691.135 2.465.126.803.305.994.347 1.028.163-.02.325-.028.49-.028.745 0 1.364.168 1.835.504.47.336.79.829.938 1.46.082.321.12.655.118.988 0 1.835-.989 2.826-2.857 2.868l-.056.006c-.317 0-.664-.056-.784-.076l-.014-.003-.026-.005c-1.086-.2-2.064-1.193-2.756-2.801-.711-1.659-1.09-3.871-1.09-6.404v-.09c0-2.532.376-4.744 1.09-6.405.692-1.608 1.67-2.603 2.756-2.802l.026-.002.014-.003c.126-.02.51-.084.84-.076zm5.516 13.562l-.001 4.446c.362-.08.718-.268 1.065-.56.501-.42.955-1.033 1.35-1.82.262-.522.488-1.097.674-1.714-.98-.21-2.015-.328-3.088-.352zM6.725 3.58a3.787 3.787 0 00-.644.061l-.03.006c-.712.137-1.424.927-1.961 2.174-.457 1.064-1.003 2.966-1.003 5.98v.095c0 3.014.546 4.916 1.003 5.98.535 1.247 1.249 2.037 1.958 2.174l.005.003.031.006c.275.045.49.064.644.061.653-.014 1.13-.17 1.412-.465.275-.285.406-.722.406-1.339a2.864 2.864 0 00-.084-.722c-.003-.006-.003-.011-.003-.017-.114-.493-.42-1.148-1.736-1.148-.149 0-.294.008-.443.028-.028.002-.056.005-.084.002-.274-.01-.664-.128-.96-.627-.163-.269-.284-.63-.37-1.098-.127-.678-.183-1.552-.183-2.838v-.09c0-1.285.056-2.162.183-2.837.086-.468.207-.829.37-1.098.296-.498.686-.616.96-.627.028 0 .056 0 .084.002.146.02.294.029.443.029 1.319 0 1.624-.656 1.736-1.149 0-.006.003-.011.003-.017a2.85 2.85 0 00.084-.722c0-.62-.134-1.056-.406-1.34-.286-.294-.762-.45-1.415-.467zm9.66 13.113l-.054.18c-.196.628-.43 1.215-.7 1.752a7.85 7.85 0 01-.95 1.48 8.757 8.757 0 003.788-2.559 10.35 10.35 0 00-2.084-.853zm4.195-4.315h-3.535a17.694 17.694 0 01-.393 3.282 11.14 11.14 0 012.471 1.029 8.692 8.692 0 001.457-4.31zm-4.6 0h-3.718v2.637a17.81 17.81 0 013.358.383c.206-.945.329-1.964.36-3.02zm-.315-3.908l-.288.062c-.983.196-2.032.31-3.114.332v2.45h3.719a16.778 16.778 0 00-.317-2.844zm3.563-1.34l-.264.15c-.67.37-1.433.681-2.266.927.201.98.32 2.028.348 3.107h3.536a8.745 8.745 0 00-1.354-4.185zm-6.965-4.003v4.671l.12-.002c1.053-.03 2.07-.15 3.031-.36-.197-.701-.444-1.35-.736-1.929-.395-.787-.852-1.4-1.35-1.82-.347-.292-.703-.48-1.065-.56zm2.418.421l.114.142c.3.385.58.832.835 1.338.325.646.598 1.365.816 2.138a9.971 9.971 0 002.15-.903 8.692 8.692 0 00-3.915-2.715z" fill="#313235" fill-rule="nonzero"/></svg>