<svg width="24" height="24" viewBox="0 0 24 24" xmlns="http://www.w3.org/2000/svg"><path d="M17.255 10.235c0 6.46-1.361 8.642-5.398 8.642-4.036 0-5.398-2.182-5.398-8.642 0-.823.023-1.552.068-2.218 1.355.507 2.921.79 4.694.843l.04 7.056a.612.612 0 00.616.602h.003a.61.61 0 00.613-.608l-.04-7.047c1.79-.053 3.368-.336 4.732-.852.047.67.07 1.4.07 2.224m4.154-6.445a.624.624 0 00-.854.17c-1.653 2.463-4.583 3.712-8.706 3.712-4.13 0-7.062-1.252-8.715-3.72a.625.625 0 00-.854-.173.596.596 0 00-.176.837c.818 1.219 1.907 2.163 3.23 2.86-.07.815-.107 1.717-.107 2.754 0 5.913 1.129 9.851 6.633 9.851s6.63-3.938 6.63-9.851c0-1.014-.033-1.897-.1-2.703-.003-.02-.012-.037-.017-.056 1.313-.695 2.397-1.636 3.212-2.846a.596.596 0 00-.176-.835" fill="#313235" fill-rule="nonzero"/></svg>