<svg width="24" height="24" viewBox="0 0 24 24" xmlns="http://www.w3.org/2000/svg"><path d="M18.306 9.882c0 7.752-1.634 10.37-6.477 10.37-4.844 0-6.478-2.618-6.478-10.37 0-.988.027-1.862.08-2.662 1.628.609 3.507.948 5.635 1.012l.047 8.467c.003.4.332.723.74.723h.002c.41-.004.74-.33.737-.73l-.047-8.457c2.147-.064 4.04-.403 5.677-1.022.057.804.084 1.681.084 2.67m4.985-7.735a.748.748 0 00-1.025.205c-1.984 2.955-5.5 4.454-10.448 4.454-4.954 0-8.473-1.503-10.457-4.464a.75.75 0 00-1.025-.209.716.716 0 00-.212 1.005C1.106 4.602 2.414 5.734 4 6.571a38.56 38.56 0 00-.128 3.305c0 7.095 1.355 11.821 7.96 11.821s7.956-4.726 7.956-11.821c0-1.217-.04-2.276-.12-3.244-.004-.024-.014-.044-.02-.067 1.576-.834 2.876-1.963 3.855-3.415a.716.716 0 00-.212-1.002" fill="#313235" fill-rule="nonzero"/></svg>