<svg width="24" height="24" viewBox="0 0 24 24" xmlns="http://www.w3.org/2000/svg"><path d="M12.826 15.986a.612.612 0 01.871-.064.626.626 0 01.065.876 35.258 35.258 0 01-1.501 1.62c-1.846 1.854-3.241 2.831-4.524 3.165a3.866 3.866 0 01-.98.128c-1.113 0-2.166-.515-3.205-1.56-2.897-2.913-1.404-5.608 1.728-8.759 3.132-3.148 5.812-4.65 8.706-1.737.944.953 1.448 1.9 1.535 2.9a.622.622 0 01-.56.675.63.63 0 01-.67-.566c-.061-.698-.445-1.395-1.176-2.129-1.028-1.036-1.953-1.375-3-1.106-1.045.271-2.303 1.173-3.96 2.843-1.66 1.67-2.556 2.932-2.824 3.983-.272 1.053.067 1.983 1.098 3.02 1.03 1.036 1.955 1.375 3 1.103 1.044-.272 2.302-1.174 3.96-2.843a35.454 35.454 0 001.437-1.549zm7.311-12.398c1.34 1.348 1.804 2.723 1.42 4.21-.333 1.292-1.302 2.695-3.148 4.552-1.96 1.972-3.745 3.3-5.515 3.3-1.056 0-2.11-.474-3.194-1.563-.907-.91-1.403-1.818-1.524-2.776a.617.617 0 01.538-.692.626.626 0 01.69.54c.08.67.464 1.342 1.167 2.051 1.984 1.992 3.673 1.569 6.961-1.737 3.289-3.308 3.709-5.008 1.729-7.002-1.978-1.992-3.673-1.572-6.958 1.736a22.303 22.303 0 00-1.432 1.569.618.618 0 01-.871.084.622.622 0 01-.084-.874c.412-.504.905-1.045 1.513-1.655C14.56 2.176 17.24.675 20.137 3.588z" fill="#313235" fill-rule="nonzero"/></svg>