<svg width="24" height="24" viewBox="0 0 24 24" xmlns="http://www.w3.org/2000/svg"><path d="M18.728 19.975c-1.09.325-2.526.504-4.047.504-1.519 0-2.956-.18-4.045-.504-.798-.241-1.754-.667-1.754-1.33v-1.06c.115.009.227.017.345.017 1 0 1.93-.3 2.711-.812.034.011.065.03.104.036.832.12 1.723.182 2.653.182 1.641 0 3.201-.196 4.389-.554.532-.16 1-.373 1.398-.62v2.81c0 .664-.955 1.093-1.754 1.33zM9.227 8.88a3.766 3.766 0 013.762 3.759 3.764 3.764 0 01-3.762 3.759 3.766 3.766 0 01-3.762-3.76c0-2.07 1.69-3.758 3.762-3.758zm-.345-2.521c.384.238.855.445 1.418.613 1.193.359 2.753.555 4.392.555 1.639 0 3.199-.196 4.392-.555a6.002 6.002 0 001.398-.597V9.48c-.2.325-.75.773-1.743 1.073-1.08.325-2.518.504-4.044.504-.101.006-.463 0-.77-.014a4.97 4.97 0 00-4.698-3.367c-.118 0-.23.008-.345.017V6.359zm1.754-2.65c1.078-.325 2.515-.505 4.045-.505 1.53 0 2.966.18 4.047.505.687.207 1.482.549 1.695 1.061-.174.398-.768.768-1.686 1.045-1.084.325-2.521.504-4.045.504-1.527 0-2.964-.179-4.045-.504-.941-.286-1.535-.664-1.695-1.073.182-.39.768-.756 1.684-1.033zm3.557 8.932c0-.128-.008-.257-.02-.386.233.006.446.006.522.006 1.638 0 3.199-.2 4.389-.558.532-.16 1-.372 1.398-.619v3.148c-.2.325-.75.774-1.743 1.073-1.08.325-2.515.505-4.044.505-.55 0-1.076-.031-1.589-.076a4.949 4.949 0 001.087-3.093zm4.883-10.084c-1.19-.358-2.751-.554-4.395-.554-1.645 0-3.202.199-4.392.554C8.854 2.99 8 3.647 7.754 4.51v.003c-.048.17-.073.35-.073.526v2.888a4.974 4.974 0 00-3.418 4.714c0 1.216.44 2.328 1.168 3.194L2.18 19.087a.602.602 0 10.852.851l3.283-3.288c.411.302.87.54 1.364.703v1.291c0 1.126.88 1.961 2.61 2.485 1.2.358 2.76.554 4.393.554s3.193-.196 4.395-.554c1.73-.521 2.61-1.359 2.61-2.485V5.036c0-1.123-.88-1.958-2.61-2.479z" fill="#313235" fill-rule="nonzero"/></svg>