<svg width="24" height="24" viewBox="0 0 24 24" xmlns="http://www.w3.org/2000/svg"><path d="M18.938 11.83c-1.288 1.11-3.372 1.936-6.193 2.457a21.62 21.62 0 01-3.064.356c-.157-1.081-1.048-1.678-2.513-1.82a5.168 5.168 0 00-.538-.029c-.826 0-1.462.219-1.876.661-.757-.605-1.239-1.423-1.44-2.512-.3-1.633.165-2.956 1.428-4.042 1.289-1.11 3.37-1.936 6.188-2.457 2.818-.521 5.056-.493 6.658.084 1.566.566 2.476 1.633 2.776 3.263.305 1.63-.162 2.953-1.426 4.04M6.863 15.987c-1.521-.148-1.468-.708-1.429-1.117.04-.398.081-.849 1.196-.849.135 0 .272.008.418.022 1.523.149 1.47.71 1.428 1.12-.039.399-.081.847-1.196.847-.129 0-.272-.009-.417-.023m14.711-8.42c-.38-2.07-1.58-3.482-3.566-4.199-1.806-.65-4.26-.697-7.294-.134-3.033.56-5.31 1.479-6.764 2.734-1.6 1.375-2.216 3.123-1.835 5.196.274 1.496.994 2.653 2.126 3.45-.006.048-.02.09-.023.138-.142 1.496.799 2.291 2.53 2.46.188.02.367.027.538.027.266 0 .507-.028.734-.072.184.33.353.776.232 1.201-.182.639-.963 1.079-1.588 1.336a.613.613 0 00.465 1.135c1.274-.524 2.047-1.244 2.3-2.137.184-.647.061-1.367-.317-2.073a1.89 1.89 0 00.465-.76 22.052 22.052 0 003.395-.377c3.034-.56 5.31-1.48 6.767-2.731 1.597-1.376 2.216-3.124 1.835-5.194" fill="#313235" fill-rule="nonzero"/></svg>