<svg width="24" height="24" viewBox="0 0 24 24" xmlns="http://www.w3.org/2000/svg"><path d="M18.868 18.518c0 .647-.15 1.118-.462 1.44-.305.314-.846.493-1.49.493H9.162c-.075-.076-.168-.277-.198-.347-.143-.308-.597-1.233-1.222-2.505l-.028-.056c-.91-1.848-2.042-4.148-2.708-5.574-.073-.157-.216-.546.064-.77a.586.586 0 01.373-.129c.156 0 .319.059.45.165.219.174.435.454.718.936a1.218 1.218 0 001.372.557c.53-.148.897-.633.897-1.187V4.19c.05-.804.383-.964.91-.964.641 0 .916.277.916.93v2.902c0 .384.18.75.484.983a1.218 1.218 0 001.068.202c.103-.028.221-.045.355-.045.64 0 .732.325.77.462a1.228 1.228 0 001.174.89c.13 0 .258-.019.384-.06.112-.037.244-.057.395-.057.642 0 .731.314.773.468a1.221 1.221 0 001.56.837c.11-.036.241-.056.39-.056.58 0 .818.241.818.83v7.005h-.009zM18.05 9.46c-.282 0-.54.04-.773.118-.238-.857-.94-1.367-1.95-1.367-.282 0-.545.04-.775.118-.241-.852-.941-1.353-1.944-1.353-.247 0-.476.03-.684.09V4.161C11.924 2.83 11.106 2 9.79 2c-1.266 0-2.042.77-2.129 2.118v.044c0 .258-.003 5.16 0 7.384-.339-.577-.644-.98-1.011-1.271a1.944 1.944 0 00-1.207-.432c-.404 0-.802.132-1.132.398-.65.52-.81 1.409-.409 2.263.68 1.448 1.826 3.776 2.748 5.647.574 1.166 1.07 2.171 1.21 2.476.146.317.49 1.06 1.272 1.06h7.787c.983 0 1.82-.309 2.361-.866.538-.558.81-1.33.81-2.303v-6.997c-.003-1.272-.785-2.062-2.04-2.062z" fill="#313235" fill-rule="nonzero"/></svg>