<svg width="24" height="24" viewBox="0 0 24 24" xmlns="http://www.w3.org/2000/svg"><path d="M20.457 19.58l-3.219-.53V3.37l3.219.53v15.68zM3.286 3.902l3.411-.538v15.684l-3.411.54V3.902zm9.213.664l3.481-1.084v15.641L12.5 20.207V4.566zM7.952 3.493l3.292 1.067v15.633l-3.292-1.067V3.493zm13.236-.748l-4.477-.737c-.014-.002-.03.003-.044.003-.02-.003-.037-.011-.056-.011-.042 0-.079.014-.118.022-.022.006-.048-.002-.07.006l-4.55 1.415L7.519 2.03c-.025-.009-.047 0-.073-.006C7.403 2.017 7.367 2 7.322 2c-.02 0-.036.008-.053.011-.014.003-.028-.005-.045-.003l-4.67.737a.63.63 0 00-.529.622v16.952a.628.628 0 00.728.619l4.522-.714 4.403 1.429a.648.648 0 00.38.002l4.597-1.43 4.328.713a.646.646 0 00.51-.14.63.63 0 00.221-.479V3.364a.629.629 0 00-.526-.619z" fill="#313235" fill-rule="nonzero"/></svg>