<svg width="24" height="24" viewBox="0 0 24 24" xmlns="http://www.w3.org/2000/svg"><path d="M12.338 16.443c.38 0 .756.142 1.042.43l3.551 3.55c.031.02.115-.011.157-.034a.2.2 0 00.118-.187V3.479a.209.209 0 00-.205-.21h-9.35a.204.204 0 00-.207.204v16.729c0 .112.073.168.118.187.044.023.131.05.218-.02l3.507-3.498a1.508 1.508 0 011.05-.428m4.659 5.243c-.317 0-.63-.103-.897-.308l-3.616-3.605a.21.21 0 00-.302.006l-3.566 3.546c-.51.398-1.107.457-1.616.204a1.472 1.472 0 01-.824-1.327V3.479C6.175 2.664 6.836 2 7.651 2h9.35c.813 0 1.477.664 1.477 1.482v16.72c0 .568-.317 1.075-.827 1.327-.21.107-.431.157-.655.157" fill="#313235" fill-rule="nonzero"/></svg>