<svg width="24" height="24" viewBox="0 0 24 24" xmlns="http://www.w3.org/2000/svg"><path d="M11.877 21.619h-.017c-.05 0-.095 0-.137-.003h-.017a2.42 2.42 0 01-.4-.056 3.466 3.466 0 01-1.278-.574c-.457-.33-.994-.874-1.148-1.03-1.589-1.64-2.516-2.802-3.678-4.606-1.454-2.258-2.454-4.501-2.97-6.667-.56-2.352-.098-4.305 1.297-5.504.81-.692 1.916-1.109 3.11-1.17 1.257-.065 2.563.254 3.773.927.412.226.834.473 1.297.745.092.05.204.05.3 0 .459-.275.885-.519 1.3-.748 1.206-.67 2.512-.989 3.77-.925 1.196.062 2.3.48 3.109 1.174 1.395 1.196 1.857 3.151 1.297 5.504-.516 2.163-1.513 4.404-2.97 6.664-1.15 1.79-2.072 2.947-3.638 4.563-.011.014-.023.028-.037.042-.154.16-.689.7-1.145 1.028a3.422 3.422 0 01-1.278.574c-.131.031-.266.05-.4.056H12c-.042.006-.081.006-.123.006zm-.017-1.12h.087c.073-.003.143-.014.213-.031l.016-.003c.311-.07.606-.202.863-.392.289-.207.686-.583.958-.86l.034-.04c1.549-1.596 2.409-2.674 3.54-4.43 1.387-2.158 2.337-4.284 2.824-6.32.23-.964.266-1.835.106-2.585-.16-.746-.51-1.353-1.039-1.81-.624-.535-1.49-.854-2.437-.905-1.053-.05-2.151.222-3.176.793a47.74 47.74 0 00-1.278.734l-.01.005c-.44.247-.978.247-1.418-.005l-.006-.003c-.454-.269-.868-.51-1.271-.731-1.023-.571-2.12-.843-3.169-.79-.95.048-1.815.37-2.436.905-.533.456-.883 1.064-1.043 1.81-.16.75-.126 1.621.104 2.585.488 2.039 1.434 4.165 2.82 6.32 1.133 1.755 1.992 2.831 3.541 4.43.27.28.695.681.998.9.257.187.551.322.862.392l.017.003c.07.016.143.025.213.03h.087V20.5z" fill="#313235" fill-rule="nonzero"/></svg>