<svg width="24" height="24" viewBox="0 0 24 24" xmlns="http://www.w3.org/2000/svg"><path d="M12.782 6.566H3.204v.728h8.278c.333 0 .602.275.602.616v3.365a.61.61 0 01-.602.616H3.204v1.25h17.13c.067-.18.117-.362.137-.556a2.14 2.14 0 00-.031-.624h-7.056a.608.608 0 01-.602-.616v-4.78zm7.098 4.162a5.698 5.698 0 00-.591-.708c-2.205-2.25-4.166-3.034-5.3-3.306v4.014h5.89zm-1.28 4.404a5.75 5.75 0 00.915-.765H3.205v.885c10.504 0 13.927.017 14.915.025h.009a.819.819 0 00.47-.145zm-13.653-4.47V8.526H3.204v2.134h1.743zm1.204 0h1.871V8.526h-1.87v2.134zm3.076 0h1.653V8.526H9.227v2.134zm-7.05 5.64A.624.624 0 012 15.869V5.952a.61.61 0 01.602-.616h10.334c.114-.003 3.389-.084 7.201 3.812 1.135 1.16 1.65 2.359 1.53 3.56-.171 1.712-1.583 2.897-2.406 3.452a2.032 2.032 0 01-1.132.347h-.017c-1.008-.008-4.538-.025-15.51-.025a.6.6 0 01-.426-.18zm18.904.93c.334 0 .602.275.602.617a.608.608 0 01-.602.616H2.602A.608.608 0 012 17.849c0-.342.269-.617.602-.617h18.48z" fill="#313235" fill-rule="nonzero"/></svg>