<svg width="24" height="24" viewBox="0 0 24 24" xmlns="http://www.w3.org/2000/svg"><path d="M9.4 2c.338 0 .615.277.615.616v.925h.463v-.925c0-.341.274-.616.616-.616h1.568c.34 0 .617.277.617.616v.995l.493-.009v-.986c0-.341.274-.616.616-.616h1.885c.339 0 .616.277.616.616v3.586a.614.614 0 01-.616.616h-1.022V8.38a.614.614 0 01-.617.616h-.19l.753 6.532h.451c.34 0 .617.278.617.617v1.678h.778a.61.61 0 01.614.619v2.633a.615.615 0 01-.616.616H6.79a.618.618 0 01-.616-.616v-2.633c0-.342.275-.617.616-.617h.779v-1.678c0-.341.275-.616.616-.616h.544L9.483 9h-.19a.618.618 0 01-.617-.616V6.82H7.59a.618.618 0 01-.617-.617V2.616c0-.341.275-.616.617-.616zm7.027 17.053H7.413v1.4h9.014v-1.4zm-1.395-2.291H8.808v1.062h6.224v-1.062zm-1.829-7.765H10.73l-.754 6.532h3.978l-.75-6.532zm.815-2.176H9.912v.947h4.106V6.82zM8.783 3.232h-.577v2.359h7.45V3.232h-.649v.975c0 .336-.272.61-.608.617l-1.725.025a.62.62 0 01-.628-.614V3.232h-.336v.925a.614.614 0 01-.616.616H9.399a.618.618 0 01-.616-.616v-.925z" fill="#313235" fill-rule="nonzero"/></svg>