<svg width="24" height="24" viewBox="0 0 24 24" xmlns="http://www.w3.org/2000/svg"><path d="M11.521 2.11a.616.616 0 01.7 0l9.23 6.43a.627.627 0 01.235.692.61.61 0 01-.585.432V9.66h-1.798v7.852h1.745c.339 0 .613.277.613.616v2.938a.616.616 0 01-.613.616H2.692a.616.616 0 01-.614-.616V18.13c0-.34.275-.616.614-.616H4.47V9.66H2.64a.614.614 0 01-.35-1.12zm8.916 16.638H3.308v1.706h17.129v-1.706zm-2.361-9.084h-1.171v7.851h1.17V9.664zm-11.205 0h-1.17v7.851h1.17V9.664zm5.6 0H11.3v7.851h1.17V9.664zm-2.395 0H8.1v7.851h1.975V9.664zm5.6 0H13.7v7.851h1.975V9.664zM11.87 3.367L4.602 8.43h.474c.005 0 .005-.002.008-.002l.008.002h2.384l.009-.002.008.002h3.185l.008-.002.009.002h2.383l.009-.002.008.002h3.185l.009-.002.008.002h2.384l.008-.002.008.002h.443l-7.269-5.064z" fill="#313235" fill-rule="nonzero"/></svg>