<svg width="24" height="24" viewBox="0 0 24 24" xmlns="http://www.w3.org/2000/svg"><path d="M20.625 12.395a.64.64 0 00.462-.608.647.647 0 00-.373-.583l.785-.784a.646.646 0 00-.914-.913l-1.635 1.636h-.53l.205-.205a.646.646 0 00-.914-.913l-1.117 1.118H13.45l3.165-3.165h2.126a.647.647 0 000-1.294h-.955a.634.634 0 00-.154-.636.637.637 0 00-.566-.168v-.872a.647.647 0 00-1.294 0v1.984l-3.28 3.28V7.199L13.689 6a.646.646 0 00-.913-.913l-.283.283v-.574l1.692-1.692a.646.646 0 00-.913-.914l-.815.818a.64.64 0 00-.608-.462.634.634 0 00-.608.462l-.815-.818a.646.646 0 00-.913.914l1.691 1.692v.459l-.17-.168A.646.646 0 0010.12 6l1.084 1.084v3.143L8.04 7.062V5.006a.647.647 0 00-1.294 0v.885a.641.641 0 00-.636.154.635.635 0 00-.154.636H5.07a.647.647 0 000 1.294h2.056l3.165 3.165h-3.08l-1.119-1.118a.646.646 0 00-.913.914l.205.204h-.645L3.104 9.504a.646.646 0 00-.914.913l.788.785a.634.634 0 00.087 1.19l-.875.874a.646.646 0 00.914.913l1.748-1.748h.574l-.25.25a.646.646 0 00.914.913l1.162-1.163h3.073l-3.283 3.283H5.059a.647.647 0 000 1.294h.871a.639.639 0 00.168.566c.126.126.291.19.457.19.061 0 .12-.016.179-.036v.958a.647.647 0 001.294 0V16.56l3.165-3.165v3.143l-1.084 1.084a.646.646 0 00.913.913l.171-.168v.53l-1.692 1.691a.646.646 0 00.914.913l.843-.843a.644.644 0 00.582.373.643.643 0 00.58-.373l.843.843a.645.645 0 10.913-.913l-1.691-1.692v-.644l.283.283a.645.645 0 10.913-.913l-1.196-1.199v-3.078l3.28 3.282v2.056a.647.647 0 001.294 0v-.944c.036.006.073.023.11.023a.631.631 0 00.625-.756h.94a.646.646 0 00.647-.647.646.646 0 00-.647-.648H16.68l-3.283-3.282h3.143l1.162 1.162a.642.642 0 00.457.188.646.646 0 00.457-1.1l-.25-.25h.46l1.747 1.747a.645.645 0 10.913-.913l-.862-.868z" fill="#313235" fill-rule="nonzero"/></svg>