<svg width="24" height="24" viewBox="0 0 24 24" xmlns="http://www.w3.org/2000/svg"><path d="M18.933 20.308V8.868H16.65c-1 0-1.854-.33-2.496-.958-.633-.621-.975-1.484-.975-2.476V3.21H6.734c-.07 0-.182.112-.19.168v16.93c0 .056.095.171.19.171h12c.104-.003.199-.098.199-.17zm-.49-12.65L14.37 3.653v1.781c0 .653.213 1.219.619 1.614.403.395.983.613 1.664.613h1.79v-.003zm1.417-.28c.165.16.26.387.26.62v12.31c0 .75-.633 1.378-1.386 1.378h-12c-.737 0-1.378-.647-1.378-1.378V3.378C5.356 2.661 6.014 2 6.734 2h7.308c.23 0 .443.087.602.25l5.216 5.128zm-3.266 5.925a.882.882 0 00.277-.636.97.97 0 00-.277-.67.93.93 0 00-.62-.283c-.181-.017-.436.034-.674.275-.255.257-4.112 3.725-4.502 4.07l-.65 1.966 1.99-.692c2.64-2.378 4.307-3.885 4.456-4.03zm.84-2.169c.395.404.628.975.628 1.533 0 .571-.222 1.09-.636 1.498-.213.21-2.56 2.33-4.493 4.07l-.07.065a.997.997 0 01-.364.21l-2.26.765c-.11.033-.222.047-.326.047-.03 0-.064 0-.087-.008-.016.008-.03.008-.047.008H8.314a.604.604 0 01-.594-.605c0-.33.269-.605.594-.605h.58c.008-.056.016-.12.039-.176l.285-.88h-.904a.604.604 0 01-.594-.605c0-.339.269-.605.594-.605h1.3l.07-.21c.064-.177.165-.34.302-.46l.429-.386H8.314a.604.604 0 01-.594-.605c0-.34.269-.605.594-.605h3.448c.428-.378.823-.742 1.188-1.065H8.314a.598.598 0 01-.594-.605c0-.33.269-.605.594-.605h5.966c.095-.098.16-.154.182-.176.936-.939 2.244-.737 2.972.005z" fill="#313235" fill-rule="nonzero"/></svg>