<svg width="24" height="24" viewBox="0 0 24 24" xmlns="http://www.w3.org/2000/svg"><path d="M8.517 7.084c-.118-.11-.174-.266-.174-.473 0-.21.056-.37.174-.48.112-.103.274-.156.482-.156.207 0 .37.053.481.157.115.109.177.269.177.476 0 .207-.062.367-.177.473-.112.104-.277.157-.481.157-.208.003-.367-.05-.482-.154zm11.056 10.513a1.012 1.012 0 00-.305-.886c-.2-.184-.519-.28-.95-.28-.431 0-.75.096-.952.283-.208.194-.314.507-.314.936 0 .014-.009.028-.009.045l-.176 1.675c.003.37.092.641.272.806.173.16.459.244.843.244.38 0 .664-.081.84-.244.042-.042.076-.092.11-.142-.003-.003.565-1.813.64-2.437zm-3.75-.653c.103-.46.307-.846.63-1.143.198-.185.434-.32.694-.423.025-.255.05-.512.05-.79 0-1.344-.308-2.426-.885-3.246-.092.103-.165.224-.269.32-.991.918-2.397 1.383-4.179 1.383-1.779 0-3.188-.465-4.176-1.384-.104-.095-.18-.213-.272-.32-.574.821-.885 1.9-.885 3.247 0 .278.025.535.05.79.26.104.496.241.695.423.32.297.527.684.63 1.143.011.034.031.064.034.1l.003.029c.005.036.008.078.01.115L8.1 18.57c.863.729 2.07 1.093 3.715 1.093.017 0 .033-.003.05-.003.02 0 .031.003.05.003 1.642 0 2.852-.367 3.712-1.093l.146-1.383c.005-.037.008-.079.014-.115l.003-.028c.002-.037.022-.065.033-.101zm-9.23 3.232c.179-.165.266-.437.271-.806l-.176-1.675c0-.014-.012-.031-.012-.045 0-.429-.106-.745-.31-.936-.205-.187-.524-.283-.956-.283-.431 0-.75.096-.95.28-.198.185-.35.488-.305.886.076.624.645 2.434.645 2.434.03.053.064.103.109.143.176.16.457.243.84.243.387.003.67-.08.843-.24zm-1.816-7.798c-1.092 1.235-.386 2.154.132 2.591l.162.135c.028.022.076.053.112.078a.59.59 0 01.07-.006c-.01-.198-.039-.383-.039-.59 0-1.14.208-2.124.575-2.978-.367.213-.765.496-1.012.77zm1.74-7.202A4.532 4.532 0 017.665 3.42c-.395-.157-.781-.036-1.145.376-.44.498-.435.963-.003 1.38zm5.347-1.91c-1.428 0-2.526.347-3.266 1.04-.765.71-1.154 1.798-1.154 3.226 0 1.429.39 2.51 1.154 3.219.62.574 1.504.896 2.616.988V8.608a1.375 1.375 0 01-.411-.255 1.096 1.096 0 01-.314-.485s-.045-.15-.045-.266c0-.098.056-.238.056-.238.073-.148.148-.255.266-.367.272-.25.642-.378 1.095-.386.457.008.827.137 1.096.386.12.11.196.219.268.367 0 0 .057.14.057.238 0 .112-.043.266-.043.266a1.08 1.08 0 01-.313.485c-.118.11-.258.19-.412.255v3.131c1.11-.092 1.997-.414 2.616-.988.765-.709 1.152-1.79 1.152-3.219 0-1.428-.387-2.515-1.152-3.227-.74-.689-1.837-1.039-3.266-1.039zm5.345.527c-.364-.412-.751-.53-1.146-.376.51.48.896 1.068 1.151 1.757.429-.415.437-.88-.005-1.381zm1.742 8.585c-.244-.274-.641-.554-1.011-.767.367.854.571 1.837.571 2.977 0 .205-.025.392-.039.591a.59.59 0 01.07.006 1.8 1.8 0 00.112-.079l.165-.134c.519-.443 1.224-1.359.132-2.594zm1.23 3.423c.453.42.683.96.703 1.698 0 .03-.006.148-.017.218a6.184 6.184 0 01-.042.269l-.65 2.457c-.006.028-.025.05-.036.078-.006.02-.006.04-.017.056-.009.011-.02.02-.023.03a.52.52 0 01-.061.076c-.09.143-.185.286-.308.401-.429.395-1.017.597-1.754.597-.734 0-1.328-.202-1.753-.597a2.02 2.02 0 01-.572-.975c-.994.546-2.23.818-3.74.818-.019 0-.03-.003-.05-.003-.016 0-.03.003-.05.003-1.513 0-2.745-.272-3.742-.818-.107.387-.289.717-.569.975-.431.395-1.02.597-1.754.597-.733 0-1.324-.202-1.753-.597a1.894 1.894 0 01-.31-.4c-.02-.026-.043-.048-.06-.076-.005-.011-.02-.02-.025-.031-.008-.02-.008-.04-.017-.056-.011-.028-.028-.05-.036-.078l-.647-2.457s-.037-.188-.045-.269a1.881 1.881 0 01-.017-.218c.023-.737.25-1.278.703-1.698.065-.059.137-.106.207-.154-.915-.96-1.386-2.501.023-4.09.605-.683 1.913-1.456 2.639-1.563.053-.008.075-.028.134-.039l-.008-.022c-.27-.698-.415-1.496-.415-2.4 0-.354.036-.676.078-.998-.02-.011-.044-.006-.064-.017a2.568 2.568 0 01-.28-.193l-.14-.112c-.81-.684-1.347-1.941-.199-3.235 1.14-1.286 2.496-.986 3.322-.337.84-.409 1.84-.635 3.023-.635 1.182 0 2.182.226 3.022.635.826-.65 2.182-.95 3.32.337 1.145 1.294.61 2.551-.2 3.235l-.137.112c-.053.042-.134.1-.283.193-.02.011-.042.009-.064.017.039.322.078.644.078.997 0 .908-.143 1.703-.412 2.4l-.008.023c.056.011.079.031.132.04.728.106 2.036.879 2.641 1.562 1.406 1.589.936 3.13.02 4.09.073.05.148.095.213.154zM14.73 7.238c-.208 0-.37-.053-.482-.157-.118-.106-.177-.266-.177-.476 0-.207.06-.367.177-.473.112-.107.277-.16.482-.16.207 0 .37.053.481.16.118.106.174.266.174.476 0 .207-.056.367-.174.473-.112.107-.274.157-.481.157z" fill="#313235" fill-rule="nonzero"/></svg>