<svg width="24" height="24" viewBox="0 0 24 24" xmlns="http://www.w3.org/2000/svg"><path d="M2.843 9.04A.844.844 0 012 8.195V2.843C2 2.378 2.378 2 2.843 2H8.2a.845.845 0 010 1.69H3.686v4.509c0 .462-.378.84-.843.84zM8.207 20a.845.845 0 010 1.69H2.85a.844.844 0 01-.843-.844V15.49a.844.844 0 011.686 0V20h4.515zm12.63-5.367c.466 0 .844.378.844.843v5.353a.844.844 0 01-.843.843h-5.359a.845.845 0 010-1.686h4.513v-4.51a.846.846 0 01.846-.843zm.006-12.61c.465 0 .843.375.843.843v5.352a.845.845 0 01-1.689 0V3.711h-4.512a.844.844 0 010-1.686h5.358v-.003z" fill="#313235" fill-rule="nonzero"/></svg>