<svg width="24" height="24" viewBox="0 0 24 24" xmlns="http://www.w3.org/2000/svg"><path d="M16.887 12.527c.806-.91 1.212-2.286 1.212-4.087 0-1.779-.428-3.087-1.277-3.883-.493-.467-1.162-.81-1.991-1.02-.883-.218-2.042-.333-3.446-.333H5.713v17.278h2.972v-5.776a.6.6 0 01.597-.602h2.932c1.14 0 2.107-.135 2.874-.4.734-.253 1.34-.648 1.799-1.177zm.747-8.85C18.732 4.71 19.29 6.312 19.29 8.44c0 2.106-.51 3.75-1.513 4.888-.596.686-1.372 1.199-2.305 1.518-.894.308-1.989.465-3.258.465H9.875v5.773c.003.33-.263.6-.593.602H5.119a.598.598 0 01-.594-.602V2.602A.598.598 0 015.12 2h6.266c1.502 0 2.756.126 3.731.367 1.031.26 1.877.7 2.518 1.31zm-4.294 6.74c.362-.367.547-1.014.547-1.927 0-.832-.171-1.423-.513-1.753-.165-.154-.406-.275-.712-.348-.364-.086-.848-.131-1.434-.131H9.875v4.686h1.46c.748 0 1.145-.067 1.344-.126.25-.073.465-.202.661-.4zm-.403-5.199c.51.124.93.34 1.252.645.588.577.885 1.46.885 2.63 0 1.244-.3 2.176-.893 2.779a2.682 2.682 0 01-1.18.706c-.4.114-.946.17-1.67.17H9.28a.598.598 0 01-.594-.602v-5.89a.598.598 0 01.594-.603h1.946c.684 0 1.258.056 1.712.165z" fill="#313235" fill-rule="nonzero"/></svg>