<svg width="24" height="24" viewBox="0 0 24 24" xmlns="http://www.w3.org/2000/svg"><path d="M13.709 6.175c.81 0 1.442.224 1.876.667.423.428.636 1.039.636 1.815v4.28c0 1.588-.916 2.501-2.512 2.501l-2.204.001.557.575 3.621-.001a.55.55 0 010 1.098l-13.109.005a.55.55 0 010-1.098l3.535-.002.55-.574-2.11.002c-1.597 0-2.513-.91-2.513-2.501v-4.28c0-.776.213-1.387.636-1.816.434-.442 1.067-.666 1.877-.666l9.16-.006zm6.518.006c.434 0 1.448.196 1.448 2.016l.003 6.88c0 1.82-1.014 2.017-1.448 2.017h-1.998a1.28 1.28 0 01-1.12-.61c-.213-.34-.316-.8-.316-1.407l-.006-6.88c0-.607.104-1.067.32-1.406.249-.392.646-.61 1.12-.61h1.997zM18.23 7.242c-.126 0-.177.04-.222.115-.058.093-.154.322-.154.84l.003 6.88c0 .518.095.748.154.84.048.076.095.115.221.115h1.998c.129 0 .179-.042.23-.117.058-.093.156-.323.156-.835l-.003-6.88c0-.515-.098-.745-.156-.837-.048-.076-.101-.118-.23-.118H18.23v-.003zM9.977 15.44l-1.8.001-.549.575 2.906-.002-.557-.574zm3.732-8.19l-9.16.006c-1.008 0-1.437.42-1.437 1.406v4.28c0 1 .431 1.426 1.437 1.426l9.16-.005c1.008 0 1.437-.426 1.437-1.426v-4.28c0-.986-.429-1.406-1.437-1.406z" fill="#313235" fill-rule="nonzero"/></svg>