<svg width="24" height="24" viewBox="0 0 24 24" xmlns="http://www.w3.org/2000/svg"><path d="M6.23 10.916c.67 0 1.103.353 1.103 1.113 0 .366-.101.635-.28.82-.194.198-.477.296-.823.296s-.632-.098-.823-.296c-.178-.185-.28-.454-.28-.82 0-.76.438-1.113 1.103-1.113zm16.945 3.694V9.148a.693.693 0 00-.612-.68h-1.818v6.824h1.778a.673.673 0 00.652-.682zm-4.888 2.713c.565 0 1.022-.474 1.022-1.056v-.238h-.017V7.545c0-.582-.457-1.056-1.021-1.056H7.403c-3.28.104-4.954 1.926-4.954 5.408 0 3.483 1.674 5.308 4.978 5.426h10.86zM22.506 6.99c1.143 0 2.094.958 2.118 2.138v5.479c0 1.186-.942 2.154-2.101 2.154H20.71c-.225 1.157-1.227 2.034-2.424 2.034H7.403C3.266 18.644 1 16.193 1 11.895c0-4.307 2.266-6.75 6.38-6.882h10.89c1.18 0 2.169.85 2.414 1.98h.813V6.99h1.009z" fill="#313235" fill-rule="nonzero"/></svg>