<svg width="24" height="24" viewBox="0 0 24 24" xmlns="http://www.w3.org/2000/svg"><path d="M13.23 7.863l.002.003s.003 0 .003-.003l-.193-1.334a.664.664 0 01.193-.574l.877-.89-1.244-.267a.65.65 0 01-.47-.344l-.558-1.182-.585 1.168a.65.65 0 01-.516.361l-1.196.182.888.986c.138.14.208.364.174.558l-.21 1.283 1.129-.555a.646.646 0 01.622.011l1.084.597zM9.347 6.619l-.683-.695a1.28 1.28 0 01-.3-1.308c.149-.454.532-.778.997-.848l.922-.14.417-.883c.21-.442.642-.72 1.126-.72.482 0 .913.275 1.124.72l.42.885.921.138c.465.07.85.394 1 .848.152.462.037.964-.302 1.308l-.684.695.163.992c.078.49-.12.969-.518 1.252-.381.269-.897.3-1.306.075l-.818-.448-.815.446a1.21 1.21 0 01-.59.154c-.253 0-.5-.079-.715-.23a1.275 1.275 0 01-.518-1.252l.16-.989zm6.185 13.846h4.927V17.3h-4.927v3.165zM3.227 14.922v5.543H8.15v-5.543H3.227zm11.078-3.037H9.378v2.686c0 .009.003.012.003.02v5.894h4.924v-8.6zm.157 9.83H3.072c-.59 0-1.072-.424-1.072-.92v-6.204c0-.555.557-.9 1.073-.9h5.081v-2.008c0-.546.501-1.028 1.07-1.028h5.238c.572 0 1.073.48 1.073 1.028v4.387h5.081c.622 0 1.07.336 1.07.798v4.026c0 .47-.442.817-1.073.817h-6.15v.003z" fill="#313235" fill-rule="nonzero"/></svg>