<svg width="24" height="24" viewBox="0 0 24 24" xmlns="http://www.w3.org/2000/svg"><path d="M17.685 20.507c.232 0 .4-.126.426-.17l-.009-15.6c0 .014-.193-.13-.417-.13h-2.647c.003.029.008.054.011.085l.003.078.003.115-.003.107c-.05 1.51-1.544 1.722-3.146 1.722-1.602 0-3.092-.213-3.148-1.748v-.08l.003-.127.005-.1c0-.02.006-.034.009-.054h-2.65c-.216 0-.398.132-.429.185l.011 15.588c.017.003.185.129.418.129h11.56zM11.906 3.179c-1.672 0-1.924.838-1.958 1.569l-.005.14c.01.269.022.653 1.963.653s1.953-.384 1.96-.614V4.81a2.384 2.384 0 00-.097-.628c-.079-.25-.314-1.003-1.863-1.003zm5.779.252c.854 0 1.602.611 1.602 1.306V20.38c0 .709-.734 1.305-1.602 1.305H6.125c-.869 0-1.603-.6-1.603-1.305V4.734c0-.695.751-1.305 1.603-1.305H9.08C9.55 2.515 10.522 2 11.906 2c1.686 0 2.468.709 2.83 1.431h2.949zm-6.476 1.7a.55.55 0 01-.552-.548.55.55 0 01.552-.55H12.6c.305 0 .554.247.554.55 0 .302-.249.549-.554.549h-1.392z" fill="#313235" fill-rule="nonzero"/></svg>