<svg width="24" height="24" viewBox="0 0 24 24" xmlns="http://www.w3.org/2000/svg"><path d="M10.81 2.853c2.8 0 4.98.734 6.473 2.18 1.548 1.497 2.335 3.74 2.336 6.659v.001c0 .401-.015.79-.044 1.168l.344-.403c.294-.345.596-.7.851-.955a.561.561 0 01.793.793c-.224.224-.513.563-.79.89-.297.348-.602.709-.86.964-.328.322-.678.484-1.025.484-.345 0-.686-.16-1.003-.476-.224-.224-.636-.703-1.32-1.496l-.344-.4a.56.56 0 11.849-.731l.345.4c.44.513.78.905 1.011 1.164.049-.445.073-.914.073-1.402 0-2.605-.673-4.574-1.995-5.857-1.277-1.235-3.193-1.863-5.694-1.863-2.502 0-4.418.628-5.695 1.863-1.322 1.28-1.995 3.252-1.995 5.86 0 2.608.673 4.577 1.995 5.86 1.277 1.235 3.193 1.863 5.695 1.863 1.722 0 3.176-.3 4.322-.888a.56.56 0 01.513.997c-1.309.67-2.934 1.008-4.835 1.008-2.802 0-4.98-.733-6.474-2.179C2.787 16.86 2 14.617 2 11.697c0-2.922.787-5.166 2.336-6.665 1.493-1.445 3.672-2.18 6.474-2.18zm2.036 2.26c.79 0 1.266.331 1.532.608.244.258.535.723.535 1.457v8.501c0 .734-.291 1.196-.535 1.457-.263.28-.742.61-1.53.61H8.158c-.79 0-1.266-.333-1.53-.61-.243-.26-.535-.723-.535-1.457V8.441c0-.294.115-.577.323-.787l2.173-2.207c.21-.213.499-.334.799-.334zm0 1.12h-3.46L7.214 8.442v7.241c0 .574.3.947.944.947h4.689c.644 0 .944-.373.944-.947V7.181c0-.575-.3-.947-.944-.947zm-.18 3.796a.28.28 0 01.28.28v4.945a.28.28 0 01-.28.28h-4.37a.28.28 0 01-.28-.28V10.31a.28.28 0 01.28-.28h4.37zm-3.199 3.868h-.89v1.076h.89v-1.076zm1.457 0h-.896v1.076h.896v-1.076zm1.462 0h-.902v1.076h.903l-.001-1.076zm0-1.644H8.577v1.084h3.809v-1.084zm-2.919-1.664h-.89v1.104h.89v-1.104zm1.457 0h-.896v1.104h.896v-1.104zm1.463 0h-.903v1.104h.902V10.59z" fill="#313235" fill-rule="nonzero"/></svg>