<svg width="24" height="24" viewBox="0 0 24 24" xmlns="http://www.w3.org/2000/svg"><path d="M10.81 2.02c2.8 0 4.98.734 6.473 2.179 1.548 1.498 2.335 3.74 2.336 6.66 0 .402-.015.792-.044 1.168l.344-.402c.294-.345.596-.7.851-.956a.561.561 0 01.793.793c-.224.224-.513.563-.79.89-.297.348-.602.71-.86.965-.328.322-.678.484-1.025.484-.345 0-.686-.16-1.003-.476-.224-.224-.636-.703-1.32-1.496l-.344-.4a.56.56 0 11.849-.732l.345.401c.44.512.78.905 1.011 1.164.049-.445.073-.914.073-1.402 0-2.605-.673-4.574-1.995-5.857-1.277-1.235-3.193-1.863-5.694-1.863-2.502 0-4.418.628-5.695 1.863-1.322 1.28-1.995 3.252-1.995 5.86 0 2.608.673 4.577 1.995 5.86 1.277 1.235 3.193 1.862 5.695 1.862 1.722 0 3.176-.3 4.322-.888a.56.56 0 01.513.997c-1.309.67-2.934 1.01-4.835 1.01-2.802 0-4.98-.735-6.474-2.18C2.787 16.025 2 13.784 2 10.863c0-2.922.787-5.166 2.336-6.664 1.493-1.445 3.672-2.18 6.474-2.18zm2.036 2.26c.79 0 1.266.33 1.532.608.244.258.535.723.535 1.457v8.5c0 .735-.291 1.197-.535 1.458-.263.28-.742.61-1.53.61H8.158c-.79 0-1.266-.333-1.53-.61-.243-.261-.535-.723-.535-1.457V7.608c0-.294.115-.577.323-.787l2.173-2.208c.21-.212.499-.333.799-.333zm0 1.12h-3.46L7.214 7.609v7.24c0 .575.3.948.944.948h4.689c.644 0 .944-.373.944-.947V6.347c0-.574-.3-.946-.944-.946zm-.18 3.796a.28.28 0 01.28.28v4.944a.28.28 0 01-.28.28h-4.37a.28.28 0 01-.28-.28V9.476a.28.28 0 01.28-.28h4.37zm-3.199 3.868h-.89v1.076h.89v-1.076zm1.457 0h-.896v1.076h.896v-1.076zm1.462 0h-.902v1.076h.903l-.001-1.076zm0-1.644H8.577v1.084h3.809V11.42zM9.467 9.756h-.89v1.104h.89V9.756zm1.457 0h-.896v1.104h.896V9.756zm1.463 0h-.903v1.104h.902V9.756z" fill="#313235" fill-rule="nonzero"/></svg>