<svg width="24" height="24" viewBox="0 0 24 24" xmlns="http://www.w3.org/2000/svg"><path d="M20.585 7.118l.009-.364c-.104-.023-.21-.029-.317-.023L5.084 6.723a.794.794 0 00-.28.045v.364c.062.014.165.028.308.022h.518c.045 0 .084-.008.12-.008l13.85.008c.053-.008.097.006.142.006h.563a.791.791 0 00.28-.042zM19.84 16.7l.009-8.383c-.023-.042-.076-.056-.152-.065L5.706 8.244c-.09.014-.16.056-.16.078v8.375c.023.06.09.082.219.082l13.87.008c.13 0 .197-.067.205-.087zm-7.176 4.04c.353-.009.353-.188.353-.311 0-.118 0-.314-.3-.32h-.059c-.263 0-.285.152-.285.311-.003.126-.003.314.29.32zM12.24 4.456l-2.196 1.176 5.19.008L13.19 4.44a1.31 1.31 0 01-.45.081h-.085c-.134 0-.277-.022-.414-.064zm.414-1.513c-.263.008-.285.151-.285.314 0 .16.022.319.294.319.353-.008.353-.188.353-.31 0-.119 0-.315-.3-.32l-.062-.003zm8.78 3.048c.178.16.276.378.285.602l-.009.689c0 .395-.294.714-.759.865.009.05.023.11.023.166l-.009 8.383c0 .645-.593 1.177-1.33 1.177l-6.378-.008v1.403c.414.168.736.546.736 1.157 0 .849-.63 1.243-1.255 1.257h-.098c-.616-.008-1.249-.4-1.249-1.266 0-.619.322-.988.74-1.156v-1.395H5.796c-.521.02-.835-.177-1.017-.342a1.09 1.09 0 01-.362-.82V8.316c0-.05.009-.101.014-.152a1.272 1.272 0 01-.481-.263.833.833 0 01-.278-.61v-.69c0-.56.594-.966 1.406-.966h2.64l3.722-1.992a1.496 1.496 0 01-.053-.386c0-.857.63-1.25 1.254-1.258v.008h.098c.617.006 1.25.407 1.25 1.258 0 .132-.014.247-.045.35l3.482 2.025h2.835c.504-.02.918.11 1.173.35zm-5.312 8.781c.227 0 .415.174.415.4a.41.41 0 01-.415.401h-7.89a.407.407 0 01-.415-.398v-4.854c0-.227.18-.398.414-.398.227 0 .415.174.415.398v3.787l1.196-1.818a.412.412 0 01.496-.154l2.557.953 1.664-2.028h-.445a.407.407 0 01-.415-.398v-.003c0-.218.188-.395.415-.395h1.339c.204 0 .375.14.414.336l.18 1.163a.413.413 0 01-.348.46c-.022 0-.045.007-.067.007a.412.412 0 01-.406-.341l-.045-.289-1.826 2.224a.448.448 0 01-.474.126l-2.526-.946-1.168 1.767h6.935z" fill="#313235" fill-rule="nonzero"/></svg>