<svg width="24" height="24" viewBox="0 0 24 24" xmlns="http://www.w3.org/2000/svg"><path d="M11.818 2.008c.535 0 .871.432.98.572.194.25.364.557.527.854.137.25.386.703.527.807.179-.014.641-.294.896-.448l.27-.162c.586-.343 1.178-.618 1.705-.312.616.356.596 1.174.582 1.967-.005.291-.016.823.056.983.16.073.692.062.986.056.79-.017 1.608-.034 1.967.583.353.607-.068 1.302-.474 1.974-.154.255-.434.72-.448.897.104.14.558.39.807.526.297.163.605.334.854.527.572.445.572.849.572.98 0 .535-.432.871-.572.98-.25.194-.557.365-.854.527-.25.138-.703.387-.807.527.014.18.294.641.448.896.406.673.827 1.367.474 1.975-.356.616-1.174.597-1.967.583-.291-.006-.826-.017-.986.056-.072.16-.061.692-.056.986.017.79.034 1.608-.582 1.966-.527.306-1.12.031-1.705-.31l-.27-.16c-.255-.155-.72-.435-.896-.449-.14.104-.39.558-.527.807-.163.297-.333.605-.527.854-.445.572-.848.572-.98.572-.535 0-.871-.432-.98-.572-.194-.249-.365-.557-.527-.854-.137-.25-.387-.703-.527-.807-.179.014-.641.294-.896.449-.672.406-1.367.826-1.975.473-.616-.356-.6-1.174-.582-1.966.005-.292.016-.827-.056-.986-.16-.073-.692-.062-.986-.056-.79.016-1.608.033-1.967-.583-.347-.608.073-1.303.476-1.975.154-.255.434-.72.448-.896-.103-.14-.557-.39-.806-.527-.297-.162-.605-.333-.855-.526-.571-.446-.571-.85-.571-.98 0-.536.431-.872.571-.981.25-.194.558-.364.855-.527.25-.137.703-.386.806-.526-.014-.18-.294-.642-.448-.897-.406-.672-.826-1.367-.473-1.975.356-.616 1.174-.6 1.966-.582.292.005.824.017.984-.056.072-.16.061-.692.056-.986-.017-.79-.034-1.608.582-1.967.608-.353 1.303.068 1.975.474.255.154.72.434.896.448.14-.104.39-.558.527-.807.162-.297.333-.605.527-.854.445-.572.848-.572.98-.572zm-.003 1.154c-.154.14-.39.575-.524.818-.341.62-.66 1.205-1.213 1.353-.568.152-1.179-.218-1.77-.574-.224-.134-.616-.372-.818-.428-.053.204-.045.672-.039.938.014.717.03 1.392-.381 1.804-.412.412-1.087.395-1.804.38-.266-.005-.734-.016-.938.04.056.202.294.594.428.818.359.591.726 1.202.575 1.77-.149.552-.734.874-1.353 1.213-.244.135-.675.37-.818.524.14.154.574.39.818.524.619.341 1.204.66 1.353 1.213.15.568-.219 1.179-.575 1.77-.134.224-.372.616-.428.818.204.053.672.045.938.04.717-.015 1.392-.032 1.804.38.412.412.395 1.087.381 1.804-.006.266-.017.734.04.938.2-.056.593-.294.817-.428.499-.303 1.009-.61 1.496-.61.092 0 .185.01.274.036.552.148.874.733 1.213 1.352.135.244.373.678.524.818.154-.14.39-.574.524-.818.342-.619.661-1.204 1.213-1.352.568-.152 1.18.218 1.77.574.224.134.616.372.818.428.053-.204.045-.672.04-.938-.015-.717-.032-1.392.38-1.804.412-.412 1.087-.395 1.804-.38.266.005.734.016.939-.04-.057-.202-.295-.594-.43-.818-.358-.591-.725-1.202-.573-1.77.148-.552.734-.874 1.353-1.213.243-.135.678-.373.818-.524-.14-.154-.575-.39-.818-.524-.62-.342-1.205-.66-1.353-1.213-.152-.568.218-1.179.574-1.77.134-.224.372-.616.429-.818-.205-.053-.673-.045-.939-.04-.717.015-1.392.032-1.804-.38-.412-.412-.395-1.087-.38-1.804.005-.266.016-.734-.04-.938-.202.056-.594.294-.818.428-.59.359-1.202.726-1.77.574-.552-.148-.874-.734-1.213-1.353-.135-.243-.373-.677-.524-.818zm3.737 3.88c.244.19.286.543.095.787l-6.781 8.664a.562.562 0 01-1.003-.345c0-.126.042-.246.12-.344l6.782-8.667a.561.561 0 01.787-.095zm-1.406 5.625c1.176 0 1.876.7 1.876 1.876 0 1.177-.703 1.877-1.876 1.877-1.174 0-1.877-.7-1.877-1.877 0-1.176.7-1.876 1.877-1.876zm0 1.123c-.558 0-.757.196-.757.756s.2.757.757.757c.557 0 .756-.197.756-.757s-.199-.756-.756-.756zM9.482 7.204c1.176 0 1.877.7 1.877 1.877s-.7 1.877-1.877 1.877c-1.174 0-1.877-.7-1.877-1.877 0-1.176.7-1.877 1.877-1.877zm0 1.124c-.558 0-.757.199-.757.756 0 .557.2.756.757.756.557 0 .756-.196.756-.756s-.199-.756-.756-.756z" fill="#313235" fill-rule="nonzero"/></svg>