<svg width="24" height="24" viewBox="0 0 24 24" xmlns="http://www.w3.org/2000/svg"><path d="M20.258 15.25c0-.012.249-3.309.221-4.382a.544.544 0 00-.02-.157c-.008 0-.039-.008-.098-.008-.1.003-.176.053-.193.135l-.518 2.526c-.006.028-.023.048-.031.073a1.336 1.336 0 01-.176.675l-.003.003v.003l-1.538 2.602a.6.6 0 01-.826.213.613.613 0 01-.21-.835l1.537-2.605s.003 0 .003-.003v-.003c.034-.056-.003-.198-.059-.235 0 0-.117-.067-.162.009l-.079.134c-.257.46-.792 1.415-1.882 1.978 0 0-.252.15-.703.736a7.916 7.916 0 00-1.02 1.773l-.086.208h2.913c.036 0 .073.008.112.01l1.792-1.531c.155-.132.317-.255.48-.379.12-.09.235-.23.344-.414.118-.19.185-.37.202-.527zm-2.7 4.994v-.709c0-.123-.101-.224-.225-.224h-3.456c-.123 0-.224.1-.224.224v.711c0 .124.1.225.224.225h3.456c.124 0 .224-.101.224-.227zm4.125-9.406c.031 1.134-.215 4.389-.226 4.529-.04.35-.16.692-.365 1.036-.19.32-.411.577-.655.762-.146.11-.289.216-.423.334l-1.479 1.266c.14.221.227.487.227.77v.711c0 .796-.642 1.443-1.431 1.443h-3.457c-.79 0-1.429-.644-1.429-1.443v-.711c0-.448.208-.843.524-1.106l.423-1.014a9.235 9.235 0 011.18-2.045c.621-.813 1.019-1.037 1.128-1.084.743-.387 1.143-1.101 1.359-1.485l.1-.176c.323-.527.95-.731 1.524-.541l.306-1.493a1.396 1.396 0 011.37-1.106c.848.047 1.305.54 1.324 1.353zm-11.647 9.406v-.709c0-.123-.1-.224-.22-.224H6.358c-.124 0-.225.1-.225.224v.711c0 .124.101.225.225.225h3.456c.12 0 .221-.101.221-.227zM4.451 16.57l1.793 1.533c.036-.003.073-.012.109-.012h2.913l-.087-.207a8.025 8.025 0 00-1.02-1.773c-.45-.585-.702-.737-.705-.737-1.087-.563-1.622-1.518-1.877-1.977l-.078-.137c-.045-.076-.163-.009-.163-.006-.056.034-.092.176-.059.232v.003l.003.003 1.538 2.605a.61.61 0 01-.515.922.6.6 0 01-.519-.3l-1.538-2.605v-.003h-.002a1.373 1.373 0 01-.177-.675c-.008-.025-.025-.045-.03-.073l-.519-2.526a.172.172 0 00-.16-.138.628.628 0 00-.14.02c.003.011-.008.059-.01.148-.029 1.073.22 4.37.223 4.404.017.134.084.313.2.51a1.4 1.4 0 00.347.414c.156.118.319.241.473.375zm5.84.844l.426 1.014c.317.263.524.658.524 1.106v.711a1.44 1.44 0 01-1.429 1.443H6.356c-.79 0-1.429-.647-1.429-1.443v-.711c0-.286.084-.549.224-.77l-1.479-1.266c-.134-.115-.28-.224-.42-.33a2.662 2.662 0 01-.658-.766 2.549 2.549 0 01-.362-1.016c-.014-.16-.257-3.415-.23-4.552.02-.813.48-1.303 1.253-1.348.725.009 1.305.443 1.442 1.104l.309 1.493c.574-.19 1.198.014 1.52.538l.101.176c.216.384.617 1.098 1.381 1.496.084.04.482.263 1.104 1.073a9.084 9.084 0 011.18 2.048zm1.485-4.286c1.543-.782 3.801-2.3 4.006-3.48.204-1.187.249-3.68.257-4.856-.98-.025-1.605-.44-2.168-.818-.605-.406-1.132-.757-2.092-.76h-.003c-.964 0-1.487.354-2.095.757-.572.384-1.205.807-2.168.826.01 1.182.056 3.664.263 4.85.199 1.184 2.456 2.7 4 3.48zm5.193-3.27c-.392 2.273-4.476 4.275-4.938 4.5a.597.597 0 01-.516 0c-.465-.222-4.543-2.225-4.932-4.5C6.29 8.18 6.3 4.312 6.3 4.15c0-.188.087-.362.232-.48a.61.61 0 01.516-.112c.87.132 1.325-.173 1.96-.596.64-.429 1.435-.961 2.76-.961h.005c1.325.003 2.12.535 2.76.96.635.424 1.094.735 1.994.592a.622.622 0 01.714.596c.005.163.014 4.028-.272 5.712zM13.725 6.12a.597.597 0 01.852 0 .612.612 0 010 .86l-3.283 3.311a.602.602 0 01-.854 0L8.966 8.804a.612.612 0 010-.86.597.597 0 01.852 0l1.045 1.059 2.862-2.883z" fill="#313235" fill-rule="nonzero"/></svg>