<svg width="24" height="24" viewBox="0 0 24 24" xmlns="http://www.w3.org/2000/svg"><path d="M9.634 20.423V6.56l.028-.008h5.208v1.686c0 .852.294 1.586.851 2.126.552.535 1.297.818 2.16.818h1.756l-.025 9.244-9.978-.003zm-5.543-3.854l.003-13.314 9.568-.017v2.059h-4c-.68 0-1.28.59-1.28 1.263v9.995l-4.291.014zM16.119 7.1l2.908 2.826h-1.149c-.532 0-.977-.16-1.291-.465-.308-.3-.47-.723-.47-1.224V7.101h.002zm4.717 2.994a.834.834 0 00-.204-.358l-4.325-4.202a.845.845 0 00-.589-.238h-.803V3.238C14.915 2.566 14.34 2 13.66 2H4.094c-.68 0-1.255.569-1.255 1.238v13.33c0 .662.585 1.242 1.255 1.242h4.288v2.613c0 .683.586 1.263 1.28 1.263h9.944c.695 0 1.278-.58 1.278-1.263V10.342a.562.562 0 00-.048-.247z" fill="#313235" fill-rule="nonzero"/></svg>