<svg width="24" height="24" viewBox="0 0 24 24" xmlns="http://www.w3.org/2000/svg"><path d="M1.486 18.225v2.629a.26.26 0 00.259.265h15.082c.138 0 .249-.12.249-.265v-3.6c0-.246.114-.478.309-.619a.729.729 0 01.672-.1c.404.14.783.17 1.035.181.064 0 .155 0 .229-.007.89-.017 2.817-.33 2.817-2.964 0-2.515-1.728-2.948-2.763-2.979h-.33a3.35 3.35 0 00-1.001.165.731.731 0 01-.666-.11.76.76 0 01-.302-.616V6.982c0-.148-.111-.27-.25-.27H12.72a.725.725 0 01-.598-.312.763.763 0 01-.108-.679c.115-.37.172-.766.172-1.213 0-2.528-1.738-2.955-2.773-2.982h-.32c-1.008.013-2.712.417-2.712 2.958 0 .457.057.87.171 1.237.07.232.03.484-.107.679a.743.743 0 01-.599.313H1.748a.263.263 0 00-.259.269l.007 2.262a4.78 4.78 0 011.438.262c1.029.326 2.797 1.318 2.797 4.242 0 2.914-1.768 3.913-2.82 4.249a4.47 4.47 0 01-1.405.235c-.01-.007-.014-.007-.02-.007m15.34 4.42H1.746C.783 22.645 0 21.842 0 20.857v-3.415a.78.78 0 01.249-.571.71.71 0 01.581-.185c.145.017.27.027.357.03h.043c.064 0 .135 0 .195-.007.215-.003.595-.02 1.029-.168 1.19-.38 1.788-1.317 1.788-2.796 0-1.483-.595-2.424-1.775-2.794-.464-.164-.874-.181-1.008-.188h-.32c-.067.003-.181.007-.319.024a.724.724 0 01-.575-.189A.765.765 0 010 10.03V6.982c0-.989.783-1.789 1.745-1.789H4.93a6.885 6.885 0 01-.037-.706c0-3.263 2.165-4.453 4.188-4.48h.35c2.057.057 4.239 1.267 4.239 4.5 0 .236-.014.464-.037.683h3.196c.958 0 1.735.803 1.735 1.788v2.29c.201-.024.37-.028.484-.028h.36c2.036.06 4.215 1.274 4.215 4.501 0 3.264-2.273 4.454-4.216 4.48a3.977 3.977 0 01-.843-.026v2.659c0 .988-.78 1.791-1.738 1.791" fill="#313235" fill-rule="nonzero"/></svg>