<svg width="24" height="24" viewBox="0 0 24 24" xmlns="http://www.w3.org/2000/svg"><path d="M3.238 17.188v2.19c0 .123.095.221.216.221h12.568c.115 0 .208-.1.208-.22v-3c0-.205.095-.399.257-.516a.607.607 0 01.56-.084c.337.117.653.143.863.151.054 0 .13 0 .19-.006.743-.014 2.348-.274 2.348-2.47 0-2.095-1.44-2.457-2.302-2.482h-.275c-.126 0-.46.014-.835.137a.61.61 0 01-.554-.092.633.633 0 01-.252-.513V7.818c0-.123-.093-.224-.208-.224H12.6a.604.604 0 01-.498-.26.636.636 0 01-.09-.566 3.38 3.38 0 00.143-1.012c0-2.106-1.448-2.462-2.31-2.484h-.267c-.84.01-2.26.347-2.26 2.465 0 .38.047.725.142 1.03a.653.653 0 01-.09.566.619.619 0 01-.498.26H3.457a.22.22 0 00-.216.225l.005 1.885c.183.006.662.028 1.2.219.857.271 2.33 1.098 2.33 3.535 0 2.428-1.473 3.26-2.35 3.54-.502.171-.95.196-1.171.196-.009-.005-.011-.005-.017-.005m12.784 3.683H3.454c-.801 0-1.454-.67-1.454-1.49v-2.846a.65.65 0 01.207-.476.591.591 0 01.485-.154c.12.014.224.022.297.025h.036c.053 0 .112 0 .163-.006.179-.002.495-.016.857-.14.991-.316 1.49-1.098 1.49-2.33 0-1.236-.496-2.02-1.479-2.328-.387-.137-.728-.151-.84-.157H2.95c-.056.003-.152.006-.267.02a.604.604 0 01-.479-.157.637.637 0 01-.204-.473V7.818c0-.824.653-1.49 1.454-1.49h2.655c-.02-.19-.03-.387-.03-.589 0-2.72 1.803-3.711 3.49-3.733h.29c1.715.047 3.533 1.056 3.533 3.75 0 .196-.011.387-.03.569h2.663c.799 0 1.446.67 1.446 1.49v1.908c.168-.02.308-.023.403-.023h.3c1.697.05 3.512 1.062 3.512 3.751 0 2.72-1.893 3.711-3.512 3.734a3.314 3.314 0 01-.703-.023v2.216c0 .824-.65 1.493-1.449 1.493" fill="#313235" fill-rule="nonzero"/></svg>