<svg width="24" height="24" viewBox="0 0 24 24" xmlns="http://www.w3.org/2000/svg"><path d="M6.73 2.025a.55.55 0 01.549.55c0 .887 1.064 1.204 2.061 1.204h1.92c.867 0 1.543.39 1.898 1.095.255.501.26.989.26 1.045l.002.367c1.503.091 2.693.546 3.542 1.353.997.946 1.502 2.355 1.502 4.185v4.31c0 1.897-.44 3.264-1.348 4.174-.921.933-2.32 1.387-4.274 1.387-1.779 0-3.166-.463-4.12-1.37-.998-.947-1.502-2.356-1.502-4.185v-4.314c0-1.829.504-3.238 1.501-4.185.863-.82 2.073-1.275 3.601-1.358l.002-.361c0-.02-.012-.309-.157-.577-.174-.323-.463-.471-.91-.471h-1.92c-.896 0-1.663-.199-2.218-.574-.605-.412-.938-1.025-.938-1.726a.55.55 0 01.549-.549zm10.638 11.44l.622-.078c-1.68.23-3.398.347-5.095.347h-.107c-1.488 0-2.99-.09-4.473-.268v2.674c0 3 1.482 4.46 4.527 4.46 1.647 0 2.792-.348 3.498-1.06.692-.697 1.028-1.809 1.028-3.403v-2.673zm-4.526-6.098c-3.048 0-4.527 1.46-4.527 4.462v.532l.346.044c1.369.156 2.755.234 4.13.234h.101c1.493 0 2.996-.092 4.476-.275v-.538c.003-3.002-1.479-4.46-4.526-4.46zm0 .801a.55.55 0 01.549.55v2.876a.55.55 0 01-1.098 0V8.717a.55.55 0 01.549-.549z" fill="#313235" fill-rule="nonzero"/></svg>