<svg width="24" height="24" viewBox="0 0 24 24" xmlns="http://www.w3.org/2000/svg"><path d="M14.431 8.658c.096.202.3.328.521.325h.034l5.81-.336a.56.56 0 00.535-.515l.352-5.519a.553.553 0 00-.333-.537.59.59 0 00-.636.109l-2.571 2.448a10.112 10.112 0 00-6.21-2.12C6.453 2.513 2 6.818 2 12.112c0 5.294 4.454 9.6 9.93 9.6 4.123 0 7.863-2.51 9.305-6.247a.818.818 0 00-.479-1.053l-.025-.009a.865.865 0 00-1.1.485c-1.194 3.092-4.29 5.17-7.701 5.17-4.532.004-8.219-3.562-8.219-7.946s3.687-7.95 8.219-7.95c1.818 0 3.56.575 4.989 1.63l-2.37 2.25a.534.534 0 00-.118.616" fill="#313235" fill-rule="nonzero"/></svg>