<svg width="24" height="24" viewBox="0 0 24 24" xmlns="http://www.w3.org/2000/svg"><path d="M22.084 11.227c0 .255-.168.447-.222.464h-9.348V7.25l9.315-.004c.074.027.255.235.255.467v3.513zm-1.771 10.9h-7.795v-8.944h8.016v8.48c-.003.256-.171.448-.221.465zm-17.295-.463v-8.48h7.96v8.944h-7.72c-.071-.02-.24-.209-.24-.464zM1.54 7.71c0-.232.179-.44.222-.464h9.22v4.44H1.776c-.07-.026-.232-.211-.232-.463V7.71h-.004zm4.337-5.24c.433-.65.94-.972 1.516-.972.373 0 .78.138 1.21.41.874.552 1.764 2.46 2.195 3.67-1.305.105-3.48.092-4.343-.456-.548-.347-.878-.747-.972-1.184-.097-.443.037-.937.394-1.468zm9.075-.565c1.096-.693 2.014-.504 2.726.561.357.535.491 1.025.394 1.466-.095.437-.424.837-.972 1.183-.867.548-3.042.561-4.346.457.434-1.207 1.324-3.112 2.198-3.667zm6.915 3.849h-3.167c.447-.447.756-.955.877-1.51.182-.83-.03-1.724-.608-2.591-1.18-1.765-3.039-2.148-4.854-.999-.991.629-1.791 2.034-2.336 3.261-.541-1.227-1.344-2.635-2.336-3.26-1.815-1.15-3.674-.767-4.854.998-.578.867-.79 1.761-.608 2.591.12.555.43 1.063.874 1.51H1.76c-.92 0-1.758.934-1.758 1.96v3.512c0 .955.656 1.771 1.48 1.926v8.51c0 1.063.806 1.96 1.757 1.96h17.073c.95 0 1.758-.897 1.758-1.96V13.16c.86-.121 1.553-.952 1.553-1.936V7.71c0-1.025-.837-1.956-1.758-1.956z" fill="#313235" fill-rule="nonzero"/></svg>