<svg width="24" height="24" viewBox="0 0 24 24" xmlns="http://www.w3.org/2000/svg"><path d="M20.361 17.24a.237.237 0 000-.33l-3.249-3.249-1.32 1.3a.628.628 0 11-.882-.896l1.314-1.292-1.176-1.176-2.068 2.061a.625.625 0 01-.885.003l-.003-.003a.629.629 0 010-.89l2.065-2.065-1.18-1.176-1.156 1.137a.627.627 0 01-.885-.003l-.003-.003a.626.626 0 01.008-.888L12.09 8.64l-1.177-1.177L8.608 9.77a.625.625 0 01-.885.003L7.72 9.77a.629.629 0 010-.89l2.305-2.309L8.85 5.395 7.767 6.454a.625.625 0 01-.885-.006l-.002-.003a.629.629 0 01.008-.89l1.067-1.05-1.182-1.18a.233.233 0 00-.328 0l-3.12 3.12a.233.233 0 000 .328L16.913 20.36c.09.09.241.09.328 0 0 .002 3.12-3.118 3.12-3.118zm.888-1.218c.58.583.58 1.527 0 2.11l-3.117 3.117a1.485 1.485 0 01-1.054.437c-.38 0-.761-.145-1.056-.437L2.437 7.664a1.496 1.496 0 010-2.11l3.118-3.117a1.491 1.491 0 012.109 0l13.585 13.585zm-3.638 1.348a.41.41 0 00-.146-.558s-.003 0-.003-.002a.409.409 0 00-.56.148.409.409 0 00.148.56.403.403 0 00.56-.148zm.271-1.286c.597.342.801 1.098.463 1.695-.003.002-.003.005-.006.01a1.243 1.243 0 01-1.7.46c-.003 0-.003-.003-.006-.003a1.25 1.25 0 011.25-2.162z" fill="#313235" fill-rule="nonzero"/></svg>