<svg width="24" height="24" viewBox="0 0 24 24" xmlns="http://www.w3.org/2000/svg"><path d="M7.596 10.33a.697.697 0 01.02-.397.706.706 0 01.669-.491h.756V7.603H5.53V9.44h.823a.85.85 0 01.128.01c.38.07.675.44.618.823-.494 3.345-1.33 10.35-1.34 10.42.003 1.194.792 1.473 1.455 1.483h.184c.66-.014 1.45-.293 1.45-1.557-.008.007-.586-5.808-1.251-10.289zM9.76.002c.393 0 .712.323.712.723V9.6c0 .736-.43 1.287-.998 1.287h-.36c.625 4.39 1.143 9.614 1.15 9.668.003 2.245-1.533 3.045-2.847 3.069h-.239c-1.308-.017-2.847-.82-2.847-3.012.013-.145.733-6.165 1.234-9.728l-.464.003c-.572 0-1.002-.55-1.002-1.287V.77c0-.397.32-.746.713-.746a.7.7 0 01.712.699v5.442h.985V.723A.72.72 0 017.223 0c.393 0 .712.323.712.723v5.442h1.106L9.048.726c0-.4.32-.723.713-.723zm7.27 22.179c.635-.014 1.398-.283 1.398-1.503-.003 0-.366-3.64-.84-7.31a.812.812 0 01-.017-.159v-.023c0-.236.111-.444.283-.575V1.55a3.246 3.246 0 00-2.498 3.17v7.767h.316c.393 0 .713.323.713.723 0 .03-.004.1-.007.135a639.68 639.68 0 00-.928 7.411c.007 1.15.767 1.419 1.402 1.426h.178zm2.037-8.464c.444 3.519.777 6.857.78 6.89.003 2.202-1.503 2.989-2.793 3.016h-.226c-1.29-.017-2.8-.8-2.8-2.955.004-.08.417-3.546.834-6.736h-.222a.717.717 0 01-.712-.723V4.72c0-2.589 2.08-4.693 4.635-4.693.393 0 .712.323.712.723v12.46c0 .198-.08.377-.208.508z" fill="#313235" fill-rule="nonzero"/></svg>