<svg width="24" height="24" viewBox="0 0 24 24" xmlns="http://www.w3.org/2000/svg"><path d="M11.866 2.022c3.128 0 5.563.818 7.238 2.429 1.736 1.675 2.616 4.17 2.616 7.426 0 3.252-.88 5.75-2.616 7.423-1.675 1.61-4.11 2.425-7.238 2.425-3.13 0-5.563-.817-7.236-2.428-1.734-1.672-2.613-4.168-2.613-7.423 0-3.252.88-5.75 2.613-7.426 1.673-1.608 4.107-2.426 7.236-2.426zm0 1.09c-5.813 0-8.76 2.95-8.76 8.765 0 5.812 2.947 8.759 8.76 8.759 5.815 0 8.764-2.947 8.764-8.76-.003-5.814-2.95-8.764-8.764-8.764zm-.712 4.983a.558.558 0 01.286.488l-.002 2.636a.554.554 0 01.133-.113l4.99-2.997a.562.562 0 01.848.48v5.966c0 .201-.11.386-.283.487a.578.578 0 01-.277.073.55.55 0 01-.286-.079l-4.989-2.969a.57.57 0 01-.136-.113l.002 2.595c0 .202-.11.387-.283.487a.548.548 0 01-.277.073.55.55 0 01-.286-.078l-4.989-2.97a.562.562 0 01-.274-.478c0-.196.103-.381.271-.482l4.989-2.997a.562.562 0 01.563-.009zm5.134 1.482l-3.338 2.006 3.338 1.986V9.577zm-5.969-.003l-3.336 2.003 3.336 1.989V9.574z" fill="#313235" fill-rule="nonzero"/></svg>