<svg width="24" height="24" viewBox="0 0 24 24" xmlns="http://www.w3.org/2000/svg"><path d="M3.624 18.286c.564 0 .93.289.93.91 0 .3-.083.522-.235.673-.161.161-.403.239-.695.239-.293 0-.532-.074-.696-.236-.152-.151-.236-.373-.236-.672.004-.625.367-.914.932-.914zm3.388 0c.564 0 .93.289.93.91 0 .3-.083.522-.234.673-.162.161-.4.239-.696.239-.293 0-.531-.078-.696-.24-.151-.15-.235-.372-.235-.671 0-.622.366-.911.93-.911zm15.133 1.761v-1.946c0-.74-.162-1.28-.481-1.607-.33-.336-.888-.507-1.657-.507H3.617c-.773 0-1.328.171-1.657.507-.32.326-.481.867-.481 1.607v1.946c0 .74.161 1.28.48 1.607.33.336.885.507 1.658.507H20.01c.773 0 1.328-.171 1.657-.507.316-.326.48-.867.478-1.607zm.584-4.565c.592.609.895 1.493.895 2.622v1.946c0 1.13-.303 2.014-.895 2.622-.618.636-1.532.955-2.722.955H3.617c-1.19 0-2.104-.32-2.723-.955C.3 22.061 0 21.176 0 20.047v-1.946c0-1.13.3-2.01.894-2.622.619-.635 1.533-.955 2.723-.955h2.02V5.728c0-.404.33-.733.74-.733.406 0 .739.33.739.733v8.8H20.01c1.187 0 2.1.32 2.72.954zm-9.405-9.774c-.03-2.767-1.821-4.42-1.842-4.437A.724.724 0 0111.43.245l.003-.003a.745.745 0 011.042-.054c.094.084 2.289 2.078 2.326 5.483.007.117.124 3.468-2.296 5.606a.748.748 0 01-1.042-.057.727.727 0 01.05-1.025c.004-.003.007-.003.007-.007 1.906-1.684 1.809-4.45 1.805-4.48zm-3.106.026c-.02-1.63-1.062-2.605-1.075-2.615a.723.723 0 01-.054-1.032.745.745 0 011.042-.053c.064.057 1.536 1.395 1.563 3.667.003.067.084 2.312-1.543 3.748a.745.745 0 01-1.042-.06.724.724 0 01.054-1.026l.007-.007c1.096-.964 1.048-2.605 1.048-2.622z" fill="#313235" fill-rule="nonzero"/></svg>