<svg width="24" height="24" viewBox="0 0 24 24" xmlns="http://www.w3.org/2000/svg"><path d="M20.46 9.703c.022-.056.013-.1-.037-.151L14.305 3.28c-.098-.1-.308-.1-.403 0L8.65 8.664c.748.028 1.322.24 1.742.664.448.454.667 1.078.667 1.91v5.339h7.454c.148 0 .249-.095.249-.182V10.45a.61.61 0 01.608-.61h.854c.168-.003.224-.107.235-.138zM9.842 19.101v-7.869c0-.493-.104-.837-.314-1.05-.21-.213-.551-.316-1.044-.316H4.57c-.484 0-.826.106-1.042.324-.212.216-.316.558-.316 1.04v7.868c0 .499.104.843.314 1.053.21.21.551.311 1.044.311h3.914c.493 0 .834-.1 1.042-.31.212-.208.316-.553.316-1.051zM21.288 8.695c.393.4.505.969.292 1.479-.224.535-.76.882-1.359.882h-.249v5.333c0 .773-.655 1.404-1.462 1.404h-7.454V19.1c0 .84-.221 1.468-.675 1.921-.445.449-1.067.664-1.896.664H4.57c-.829 0-1.45-.215-1.899-.664-.454-.45-.672-1.078-.672-1.918v-7.869c0-.82.218-1.442.667-1.899.453-.462 1.078-.686 1.904-.686h2.39l6.073-6.224c.551-.566 1.588-.566 2.137 0l6.117 6.269zM6.527 18.288c.414 0 .663.253.663.67a.678.678 0 01-.173.487c-.115.12-.286.182-.49.182a.673.673 0 01-.49-.182c-.115-.117-.174-.283-.174-.487.003-.42.249-.67.664-.67zm7.725-4.994c.224-.003.224-.104.224-.202 0-.098 0-.198-.185-.204h-.045c-.16 0-.17.081-.17.199-.003.123.01.207.176.207zm.05-1.216c.496.014.984.334.984 1.017 0 .686-.488 1.003-.972 1.014-.555-.005-1.048-.322-1.048-1.017 0-.694.49-1.01.975-1.014h.062zm-.064-4.837c.076-.006 2.322-.12 3.832 1.58a.407.407 0 01-.605.543c-1.244-1.398-3.188-1.31-3.202-1.31-2.064.022-3.145 1.176-3.187 1.223a.406.406 0 01-.6-.546c.059-.062 1.35-1.465 3.762-1.49zm.006 1.61c.073 0 1.857-.067 3 1.222a.407.407 0 01-.034.574.404.404 0 01-.571-.034c-.894-1.002-2.356-.96-2.376-.95-1.47.018-2.347.962-2.355.97a.396.396 0 01-.3.132.406.406 0 01-.303-.675c.048-.048 1.115-1.219 2.939-1.238zm.01 1.648c.034-.006 1.239-.048 2.01.823a.407.407 0 01-.034.574.404.404 0 01-.572-.033c-.512-.574-1.378-.563-1.384-.552-.865.008-1.364.543-1.386.566a.41.41 0 01-.571.028.406.406 0 01-.028-.572c.028-.036.747-.82 1.966-.834z" fill="#313235" fill-rule="nonzero"/></svg>