<svg width="24" height="24" viewBox="0 0 24 24" xmlns="http://www.w3.org/2000/svg"><path d="M10.885 13.39c.05-.089.087-.179.118-.265-.773.504-2.135 1.173-4.126 1.1.428.323 1.165.578 2.355.247.827-.23 1.381-.594 1.653-1.081zm.947-1.249c.011.034.232.824-.227 1.647-.384.687-1.106 1.183-2.151 1.474-.47.132-.891.188-1.264.188-1.963 0-2.599-1.538-2.605-1.555a.411.411 0 01.06-.403.397.397 0 01.377-.154c3.373.442 5.101-1.342 5.118-1.362a.421.421 0 01.395-.117.405.405 0 01.297.282zm-6.454-.86c.129 0 .27-.008.406-.025.448-.05.874-.204.874-.204s.3-.157.034-.378c0 0-.28-.322-.748-.322-.272 0-.602.106-.983.445-.404.364-.062.484.417.484zm1.563.541c-.053.02-.532.19-1.064.25a4.48 4.48 0 01-.496.03c-.723 0-1.182-.235-1.356-.697-.075-.194-.187-.703.39-1.219.487-.434 1.002-.655 1.532-.655a1.9 1.9 0 011.325.554c.257.239.386.555.35.877-.045.404-.328.686-.58.818a.971.971 0 01-.1.042zm1.95-1.991c-.194.341-.067.465.19.465.21 0 .504-.082.782-.191.426-.17.792-.445.792-.445s.244-.244-.095-.41c0 0-.255-.176-.6-.176-.324-.003-.725.154-1.07.757zm.19 1.282c-.61 0-.882-.355-.972-.507-.14-.24-.24-.638.067-1.182.583-1.022 1.367-1.176 1.782-1.176.487 0 .86.196 1.011.288.429.233.546.58.577.77.081.494-.218.838-.31.933a1.046 1.046 0 01-.088.076 4.716 4.716 0 01-.983.55c-.285.114-.706.248-1.084.248zm10.053 4.112a16.39 16.39 0 001.222-4.257c-1.325.437-2.908.263-3.821-.087-.894-.342-2.174-1.345-2.868-2.468-.171.26-.367.569-.569.905.092.302.176.622.258.95.033-.003.064-.012.1-.015.085-.005.166-.01.244-.01 1.496 0 2.034 1.013 2.124 1.604.092.423-.068.715-.177.855-.19.249-.493.389-.83.389-.114 0-.192-.014-.192-.014l-.098-.022a5.912 5.912 0 01-.816-.33 5.18 5.18 0 01-.156 1.36c.487-.078 1.061-.044 1.733.213.846.322 1.415.81 1.695 1.44.37.838.07 1.614.056 1.644a.406.406 0 01-.333.255c-.017.003-.034.003-.05.003a.407.407 0 01-.334-.174c-.048-.067-1.238-1.627-3.933-1.529a4.26 4.26 0 01-.378.28c.423.538 1.059.978 1.964 1.325 2.454.938 3.781.826 5.16-2.317zm-9.84.81c2.68-.745 3.74-1.675 2.927-5.216-.46-2-1.173-3.523-1.67-4.417-.646.947-1.697 1.689-3.092 2.174-.79.274-2.493.38-4.198-.272.058 1.188.243 3.218.82 4.753 1.056 2.81 2.616 3.7 5.213 2.978zm3.86-.978c-.014.02-.025.042-.036.062 1.537.106 2.585.7 3.199 1.196-.099-.414-.42-.907-1.32-1.25-.849-.327-1.445-.223-1.843-.008zm.479-3.333c.092.065.188.126.289.182.4.227.84.359.84.359a.5.5 0 00.056.002c.092 0 .26-.03.196-.274 0 0-.092-.933-1.314-.933-.056 0-.112.003-.17.006.041.23.075.45.103.658zm7.712-2.356c.21.104.341.32.341.555 0 .106-.033 2.627-1.42 5.795-1.157 2.64-2.49 3.57-4.1 3.57-.805 0-1.676-.23-2.631-.595-1.216-.465-2.064-1.098-2.625-1.907a11.65 11.65 0 01-1.283.434 7.204 7.204 0 01-1.907.283c-2.205 0-3.782-1.328-4.793-4.014C1.983 10.973 2 7.46 2.003 7.312a.62.62 0 01.924-.53c1.692.97 3.513.844 4.129.628 1.05-.364 2.4-1.09 2.857-2.467a.62.62 0 01.49-.415.614.614 0 01.594.247c.045.061.838 1.16 1.583 3.044.409-.627.714-1.036.734-1.059a.615.615 0 011.1.278c.155 1.005 1.662 2.347 2.56 2.692.906.347 2.751.437 3.72-.303a.626.626 0 01.65-.059zm-2.723 3.687s-.216-.502-.883-.502c-.168 0-.36.031-.588.11-.563.196-.011.442.546.57.39.088.785.093.785.093s.294-.03.14-.271zm-1.74-1.166c.297-.103.586-.154.857-.154.9 0 1.418.558 1.608.933a.984.984 0 01.05.919c-.148.31-.459.518-.828.56-.028.003-.06.003-.087.003h-.009c-.05 0-.498-.009-.96-.112-.376-.087-1.373-.314-1.418-1.137-.008-.174.02-.748.787-1.012z" fill="#313235" fill-rule="nonzero"/></svg>