<svg width="24" height="24" viewBox="0 0 24 24" xmlns="http://www.w3.org/2000/svg"><path d="M19.277 20.05v-7.126a4.613 4.613 0 01-.734.068c-.851 0-1.65-.244-2.23-.667-.582.423-1.38.667-2.229.667-.852 0-1.65-.244-2.23-.667-.582.423-1.38.667-2.23.667-.856 0-1.658-.247-2.24-.678-.583.428-1.384.678-2.241.678a4.44 4.44 0 01-.734-.068v7.124c0 .238.216.431.482.431H9.09v-4.692c0-.683.571-1.24 1.277-1.24h2.972c.706 0 1.277.557 1.277 1.24v4.692h4.174c.272.003.487-.193.487-.429zm-5.862.432v-4.695c0-.005-.023-.036-.073-.036H10.37c-.05 0-.073.03-.073.036v4.692c-.003.003 3.118.003 3.118.003zm-10.028-10.2c-.12.191-.18.29-.18.41 0 .515.796 1.092 1.939 1.092.722 0 1.386-.24 1.734-.627 0 0 .187-.14.246-.177.095-.056.266-.053.266-.053a.692.692 0 01.51.233c.342.38 1.006.622 1.728.622.717 0 1.378-.239 1.729-.62 0 0 .145-.145.24-.193.087-.042.258-.028.258-.028.177.034.375.079.504.219.353.386 1.014.624 1.731.624.715 0 1.384-.249 1.729-.613 0 0 .17-.143.238-.185.09-.056.263-.042.263-.042a.69.69 0 01.504.221c.348.381 1.009.62 1.726.62 1.143 0 1.938-.578 1.938-1.096 0-.213-.129-.39-.238-.501l-.003-.003c-.213-.221-.372-.675-.857-2.437-.087-.308-.157-.572-.204-.72l-1.213-3.824-12.264.037c-.168.53-.403 1.294-.658 2.115C4.263 7.899 3.74 9.588 3.63 9.84c-.07.16-.157.303-.243.443zm18.3.413c0 .745-.474 1.392-1.205 1.81v7.545c0 .902-.757 1.636-1.686 1.636H4.89c-.93 0-1.687-.734-1.687-1.636v-7.546C2.474 12.084 2 11.44 2 10.692c0-.476.213-.81.367-1.056a2 2 0 00.157-.275c.1-.24.84-2.624 1.378-4.367.269-.868.518-1.672.689-2.215a1.08 1.08 0 011.028-.745L18.059 2h.003c.473 0 .888.3 1.033.75l1.236 3.922c.05.154.126.434.215.762.154.555.465 1.69.6 1.958.353.381.54.83.54 1.303z" fill="#313235" fill-rule="nonzero"/></svg>