<svg width="24" height="24" viewBox="0 0 24 24" xmlns="http://www.w3.org/2000/svg"><path d="M18.246 17.368L5.443 17.36c-1.12 0-1.99-.311-2.58-.927C2.289 15.842 2 14.996 2 13.92V7.923c0-2.202 1.221-3.412 3.44-3.412l12.806.009c2.219 0 3.44 1.212 3.44 3.411v5.998c0 1.075-.288 1.921-.86 2.512-.594.616-1.462.927-2.58.927zM5.44 5.632c-.807 0-1.406.193-1.779.574-.358.367-.54.944-.54 1.717v5.997c0 1.583.736 2.32 2.319 2.32l12.804.008c1.582 0 2.319-.737 2.319-2.32V7.932c0-.773-.182-1.35-.543-1.717-.373-.38-.97-.574-1.78-.574l-12.8-.008zm8.857 13.95l-4.916-.01a.562.562 0 01-.56-.56c0-.308.252-.56.56-.56l4.916.009c.308 0 .56.252.56.56 0 .308-.252.56-.56.56z" fill="#313235" fill-rule="nonzero"/></svg>