<svg width="24" height="24" viewBox="0 0 24 24" xmlns="http://www.w3.org/2000/svg"><path d="M11.612 11.86c-1.557 0-2.77-.409-3.61-1.219-.872-.84-1.314-2.086-1.314-3.705 0-1.62.442-2.869 1.313-3.712C8.841 2.412 10.055 2 11.612 2c1.557 0 2.773.412 3.616 1.224.877.843 1.32 2.093 1.32 3.712 0 1.619-.446 2.865-1.323 3.705-.84.81-2.056 1.219-3.613 1.219zm0-8.74c-1.255 0-2.207.306-2.832.91-.644.625-.972 1.603-.972 2.908 0 1.306.328 2.278.972 2.9.622.599 1.574.904 2.832.904 1.258 0 2.213-.305 2.84-.904.647-.622.978-1.597.978-2.897-.003-2.571-1.252-3.82-3.818-3.82zm8.193 18.572H3.42a.562.562 0 01-.56-.56v-1.639c0-1.569.487-2.905 1.411-3.868 1.009-1.05 2.505-1.608 4.33-1.608h6.01c1.826 0 3.327.554 4.335 1.605.93.966 1.42 2.302 1.42 3.871v1.639c0 .308-.252.56-.56.56zM3.98 20.572h15.266v-1.079c0-1.272-.384-2.342-1.106-3.095-.807-.838-1.995-1.26-3.53-1.26H8.601c-1.535 0-2.72.422-3.521 1.26-.72.75-1.101 1.82-1.101 3.095v1.078z" fill="#313235" fill-rule="nonzero"/></svg>