<svg width="24" height="24" viewBox="0 0 24 24" xmlns="http://www.w3.org/2000/svg"><path d="M12.044 18.341c4.323 0 8.76-4.484 10.09-5.946-1.337-1.462-5.8-5.953-10.12-5.953-4.323 0-8.783 4.484-10.121 5.95 1.348 1.462 5.832 5.95 10.151 5.95zm11.614-6.403a.71.71 0 010 .907c-.232.286-5.795 6.928-11.614 6.928-5.818 0-11.442-6.642-11.677-6.924a.71.71 0 01-.004-.911c.24-.283 5.829-6.928 11.65-6.928 5.823 0 11.41 6.645 11.645 6.928zm-11.523-2.39c.585.013 2.857.242 2.857 2.944 0 2.71-2.276 2.921-2.844 2.932-.09.003-.181.003-.272.003-.598-.01-2.844-.222-2.844-2.951 0-2.726 2.222-2.928 2.824-2.931.09 0 .195 0 .279.003z" fill="#313235" fill-rule="nonzero"/></svg>