<svg width="24" height="24" fill="none" xmlns="http://www.w3.org/2000/svg"><path d="M22.905 21.837a.799.799 0 0 1-.02.791.82.82 0 0 1-.707.372H1.825a.826.826 0 0 1-.709-.375.8.8 0 0 1-.025-.788l10.103-20.38c.141-.285.401-.457.693-.457.291 0 .551.169.695.453l10.323 20.384ZM12 19.93c-.392 0-.62-.225-.62-.619 0-.393.225-.619.62-.619.394 0 .62.226.62.62 0 .393-.229.618-.62.618Zm.012-2.366a.616.616 0 0 0 .617-.616V8.34a.616.616 0 0 0-.617-.616.616.616 0 0 0-.617.616v8.608c0 .341.276.616.617.616Z" fill="#313235"/></svg>