<svg width="24" height="24" fill="none" xmlns="http://www.w3.org/2000/svg"><path d="M21.7 11.846c0 .151-.028.3-.084.44-.176.434-.602.7-1.106.694l-3.65.003c-.02.011-.04.023-.056.04l-.02 6.882c.009.616-.145 1.07-.467 1.383-.322.314-.776.46-1.393.443H8.882c-.42.008-1.025-.03-1.445-.437-.42-.406-.479-1.008-.487-1.426l.002-6.72a.453.453 0 0 0-.053-.156l-3.563.005h-.005c-.858-.005-1.149-.414-1.247-.658-.168-.417-.014-.9.42-1.322l8.712-8.658c.084-.087.33-.337.689-.334a.82.82 0 0 1 .594.275l8.703 8.481c.325.3.498.69.498 1.065Z" fill="#313235"/></svg>