<svg width="24" height="24" fill="none" xmlns="http://www.w3.org/2000/svg"><path d="M17.317 9.472c.756.115 2.66.574 3.767 2.434 1.38 2.313-.03 3.582-.123 3.667l-.003.003a.623.623 0 0 1-.4.145h-2.384c-.23 1.213-1.166 1.944-2.566 1.944-1.398 0-2.336-.73-2.566-1.944h-3.42c-.233 1.21-1.168 1.939-2.566 1.939S4.72 16.928 4.49 15.72H2.773a.611.611 0 0 1-.596-.454l-.003-.012c-.028-.123-.237-1.051-.154-2.413-.009-1.062.672-2.843 2.21-4.345 1.084-1.059 2.966-2.32 5.781-2.32 4.465 0 6.692 2.477 7.306 3.295ZM7.053 16.466c.941 0 1.398-.442 1.398-1.353 0-.913-.457-1.355-1.398-1.355-.94 0-1.397.445-1.397 1.355 0 .91.459 1.353 1.397 1.353Zm8.552.006c.938 0 1.395-.443 1.395-1.353 0-.91-.457-1.353-1.395-1.353-.941 0-1.398.443-1.398 1.353 0 .91.46 1.353 1.398 1.353Z" fill="#313235"/></svg>