<svg width="24" height="24" fill="none" xmlns="http://www.w3.org/2000/svg"><path d="M12.19 14.516c.465-.222 4.546-2.224 4.938-4.496.289-1.686.278-5.55.275-5.714a.61.61 0 0 0-.711-.594c-.896.142-1.355-.164-1.984-.582l-.014-.01-.014-.009c-.636-.424-1.427-.951-2.742-.951h-.006c-1.327 0-2.123.532-2.761.96l-.022.015c-.624.416-1.075.715-1.936.582a.608.608 0 0 0-.748.591c-.003.163-.014 4.031.28 5.712.39 2.272 4.465 4.274 4.93 4.496a.589.589 0 0 0 .515 0Zm2.55-7.376-3.281 3.311a.603.603 0 0 1-.426.18.604.604 0 0 1-.428-.18L9.13 8.964a.612.612 0 0 1 0-.86.597.597 0 0 1 .852 0l1.047 1.059 2.855-2.883a.6.6 0 0 1 .854 0 .612.612 0 0 1 0 .86Zm6.876 8.384c.011-.14.258-3.395.227-4.53-.02-.809-.476-1.302-1.325-1.355a1.395 1.395 0 0 0-1.37 1.106l-.305 1.493a1.29 1.29 0 0 0-1.524.541l-.1.177-.002.002c-.216.384-.616 1.096-1.357 1.482-.11.05-.507.272-1.13 1.084a9.237 9.237 0 0 0-1.178 2.045l-.423 1.014c-.32.266-.527.658-.527 1.106v.712c0 .795.644 1.44 1.431 1.44h3.457c.79 0 1.431-.645 1.431-1.44v-.712a1.42 1.42 0 0 0-.227-.77l1.48-1.266c.137-.115.277-.221.422-.33.244-.185.465-.443.656-.762.204-.345.325-.687.364-1.037Zm-1.194-.179-.005.064a1.31 1.31 0 0 1-.202.527c-.109.185-.224.325-.344.415-.163.12-.325.246-.48.378L17.6 18.26c-.016-.001-.032-.003-.047-.006-.022-.002-.044-.005-.065-.005h-2.913l.087-.208a8.028 8.028 0 0 1 1.02-1.773c.45-.585.702-.736.702-.736 1.089-.563 1.624-1.517 1.882-1.977v-.001l.08-.134c.044-.076.162-.009.162-.009.056.036.092.18.058.235v.003l-.002.003-1.538 2.605a.613.613 0 0 0 .518.922.596.596 0 0 0 .518-.3l1.538-2.602v-.003l.003-.003c.123-.207.174-.44.176-.675.004-.013.01-.023.015-.034.007-.012.013-.024.016-.039l.518-2.526c.017-.082.082-.132.194-.135.035 0 .06.004.077.007.01.002.017.003.02.002a.544.544 0 0 1 .02.156c.026.987-.183 3.853-.216 4.317ZM6.515 18.252a.474.474 0 0 0-.039.002.23.23 0 0 1-.07-.002L4.613 16.72a10 10 0 0 0-.476-.375 1.4 1.4 0 0 1-.347-.415 1.408 1.408 0 0 1-.2-.507c-.002-.033-.251-3.33-.223-4.403.001-.054.006-.092.009-.116.002-.018.003-.028.002-.033a.726.726 0 0 1 .14-.016.172.172 0 0 1 .16.137l.518 2.526c.003.017.01.03.017.043a.2.2 0 0 1 .014.03c0 .236.056.468.176.675l.003.003v.003l1.538 2.605c.112.19.313.297.518.297a.607.607 0 0 0 .515-.919L5.44 13.65l-.002-.003v-.002c-.034-.056.002-.2.058-.233.003-.003.12-.07.166.006l.078.137c.255.46.793 1.415 1.877 1.978l.003.001c.028.019.276.184.703.738a7.916 7.916 0 0 1 1.02 1.773l.086.207H6.515Zm4.361.334-.425-1.014a9.135 9.135 0 0 0-1.174-2.042c-.622-.813-1.02-1.037-1.104-1.076-.766-.397-1.166-1.11-1.382-1.494l-.001-.002-.101-.176a1.288 1.288 0 0 0-1.524-.538l-.305-1.493c-.138-.661-.712-1.098-1.443-1.104-.776.042-1.235.535-1.255 1.348-.026 1.065.188 3.986.225 4.485l.005.066c.036.328.157.67.361 1.017a2.647 2.647 0 0 0 .76.841c.107.083.215.165.319.255l1.479 1.266c-.14.221-.225.484-.225.767v.712c0 .795.642 1.442 1.43 1.442h3.456c.787 0 1.428-.647 1.428-1.442v-.712a1.44 1.44 0 0 0-.524-1.106Z" fill="#313235"/></svg>