<svg width="24" height="24" fill="none" xmlns="http://www.w3.org/2000/svg"><path d="M20.885 14.607c-.552.59-1.347.89-2.356.89l-4.061.006v.776h6.619a.609.609 0 0 1 .602.619.612.612 0 0 1-.602.619H14.47v.77a.612.612 0 0 1-.603.62c-2.996 0-5.253 1.175-5.35 1.225l-.003.001a.637.637 0 0 1-.257.065c-.004 0-.008.001-.011.003l-.012.002a.613.613 0 0 1-.28-.072c-.022-.015-2.322-1.227-5.353-1.227a.61.61 0 0 1-.602-.62v-8.33a.607.607 0 0 1 .555-.616c.067-.006.89-.065 2.028.059V7.032c0-1 .271-1.79.804-2.352.551-.58 1.341-.874 2.353-.874L18.53 3.8c1.01 0 1.8.291 2.352.874.533.56.804 1.35.804 2.35v5.224c0 1-.271 1.793-.8 2.359Zm-7.622 3.073v-7.124c-.904.003-2.767.12-4.428.93v7.151a13.948 13.948 0 0 1 4.428-.957Zm-5.633.955.003-7.143a7.754 7.754 0 0 0-.61-.264 6.32 6.32 0 0 0-.368-.126c-.08-.027-.162-.056-.24-.08a9.04 9.04 0 0 0-.507-.138l-.042-.011a11.168 11.168 0 0 0-.605-.126 12.447 12.447 0 0 0-2.056-.188v7.118c1.515.075 3.01.4 4.425.958Z" fill="#313235"/></svg>