<svg width="24" height="24" fill="none" xmlns="http://www.w3.org/2000/svg"><path d="M17.695 2.832C17.15 2.272 16.35 2 15.24 2H8.602C6.445 2 5.353 3.106 5.353 5.291v13.104c0 2.216 1.062 3.291 3.25 3.291h6.638c2.188 0 3.25-1.075 3.25-3.291V5.29c0-1.106-.261-1.91-.796-2.46Zm-4.947 16.221c-.196.199-.479.305-.82.305-.343 0-.628-.106-.822-.305-.193-.199-.288-.47-.288-.81 0-.697.415-1.114 1.112-1.114.697 0 1.11.417 1.11 1.115-.003.339-.102.61-.292.81ZM12.3 15.74a.502.502 0 0 1-.756 0l-3.3-3.81a.498.498 0 0 1 .05-.705.506.506 0 0 1 .328-.123h1.437V6.179a.853.853 0 0 1 .232-.616.912.912 0 0 1 .743-.288h1.834c.482 0 .871.386.874.868 0 .03 0 .059-.005.09V11.1h1.49a.5.5 0 0 1 .38.829L12.3 15.74Z" fill="#313235"/></svg>