<svg width="24" height="24" fill="none" xmlns="http://www.w3.org/2000/svg"><path d="M12.255 2.011c1.927.045 9.431.807 9.431 9.86 0 9.07-7.512 9.776-9.392 9.81-.176.005-.378.005-.58.005-.106 0-.215 0-.319-.003-1.978-.028-9.392-.742-9.392-9.87 0-9.116 7.347-9.793 9.322-9.81.03 0 .058 0 .086-.002l.09-.001c.255 0 .524.006.754.011Zm4.854 11.27h-3.22a.617.617 0 0 0-.617.615l.008 3.219c0 .151-.103.252-.137.258h-2.574c-.037-.009-.14-.107-.14-.258v-3.221a.616.616 0 0 0-.617-.617h-3.22c-.158 0-.256-.103-.261-.137v-2.566c.008-.036.106-.14.26-.14h3.221a.616.616 0 0 0 .617-.616V6.597c0-.14.1-.255.137-.266l2.557-.003c.045.014.149.129.149.269v3.218c0 .339.274.616.616.616h3.221c.135 0 .25.098.266.146l.003 2.555c-.014.044-.129.148-.269.148ZM14.501 9.2V6.606c0-.798-.638-1.496-1.366-1.496h-2.57c-.741 0-1.366.687-1.366 1.496V9.21H6.594c-.81 0-1.49.625-1.49 1.367v2.569c0 .74.68 1.367 1.49 1.367h2.605v2.605c0 .806.627 1.487 1.367 1.487h2.577c.742 0 1.367-.68 1.367-1.49l-.006-2.602h2.605c.799 0 1.499-.64 1.499-1.367v-2.577c0-.729-.7-1.367-1.499-1.367h-2.608Z" fill="#313235"/></svg>