<svg width="24" height="24" fill="none" xmlns="http://www.w3.org/2000/svg"><path d="M20.902 14.328c-.499.532-1.235.804-2.182.804l-7.171.002v.79h9.479c.339 0 .602.28.602.617a.605.605 0 0 1-.602.616h-9.479v1.784c0 .591-.496 1.093-1.081 1.093H3.08A1.103 1.103 0 0 1 2 18.94V8.457c0-.591.504-1.101 1.081-1.101h1.275V6.64c0-.935.252-1.666.73-2.168.5-.523 1.236-.787 2.183-.787l11.45-.008c.948 0 1.687.263 2.183.79.49.51.731 1.232.731 2.168v5.512c0 .939-.24 1.67-.731 2.18Zm-10.558 4.476v-6.712H9.183c-.683 0-1.266-.224-1.7-.658-.44-.434-.672-1.028-.672-1.709V8.591H3.202v10.213h7.143ZM8.014 8.64h-.003v1.084c0 .345.104.625.306.83.263.257.607.305.865.305h1.12L8.014 8.64Z" fill="#313235"/></svg>