<svg width="24" height="24" fill="none" xmlns="http://www.w3.org/2000/svg"><path d="M20.23 6.543c.804 0 1.456.645 1.456 1.44v11.485c0 .793-.652 1.437-1.456 1.437H3.457A1.448 1.448 0 0 1 2 19.468V7.983c0-.793.653-1.44 1.457-1.44H7.1v-1.66c0-.673.638-1.202 1.456-1.202h6.566c.818 0 1.46.53 1.46 1.201v1.661h3.647ZM8.333 4.947v1.596h7.023V4.947a.437.437 0 0 0-.227-.053H8.563a.415.415 0 0 0-.23.053Zm5.37 6.938v-1.793c0-.551-.45-1.036-.963-1.036h-1.802c-.512 0-.96.485-.96 1.036v1.796H8.16c-.572 0-1.05.434-1.05.95v1.775c0 .516.481.95 1.052.95h1.821v1.793c0 .563.44 1.036.961 1.036h1.804c.52 0 .96-.476.96-1.04v-1.795h1.819c.56 0 1.05-.442 1.05-.95v-1.775c0-.504-.493-.947-1.053-.947h-1.82Z" fill="#313235"/></svg>