<svg width="24" height="24" fill="none" xmlns="http://www.w3.org/2000/svg"><path d="M19.723 11c-.093-5.804-2.91-9-7.984-9-5.098 0-7.924 3.238-7.974 9.126-1.146.7-1.762 2.003-1.762 3.868 0 2.745 1.327 4.322 3.736 4.432l.275.008h.106c1.941-.067 2.342-1.823 2.342-4.44 0-2.624-.4-4.378-2.305-4.448a1.8 1.8 0 0 0-.303 0c-.05 0-.1 0-.115.009a5.104 5.104 0 0 0-.711.084c.185-4.883 2.431-7.364 6.711-7.364s6.53 2.473 6.72 7.338c-.157-.016-.308-.053-.476-.061-.05-.009-.1-.009-.134-.009a1.524 1.524 0 0 0-.283 0c-1.947.068-2.342 1.824-2.342 4.449 0 1.714.176 3.05.846 3.792-.869.485-1.913.801-3.135.964-.15-.572-.602-.913-1.288-.93-.88-.025-1.42.468-1.448 1.39-.017.442.092.8.328 1.055.232.255.585.41 1.028.418h.067c.409 0 .742-.12.986-.35.075-.076.126-.18.176-.28 1.88-.197 3.446-.751 4.658-1.636.042.008.068.016.107.016h.126l.274-.008c2.406-.112 3.737-1.69 3.737-4.431 0-1.972-.703-3.337-1.963-3.992Z" fill="#313235"/></svg>