<svg width="24" height="24" fill="none" xmlns="http://www.w3.org/2000/svg"><path d="M21.56 12.132c.252-.586.12-1.233-.347-1.692L13.13 2.49c-.663-.652-1.913-.652-2.574 0l-8.084 7.947c-.467.462-.6 1.11-.347 1.692.269.616.908 1.014 1.633 1.014h.39v6.933c0 .887.79 1.61 1.758 1.61h11.76c.969 0 1.756-.72 1.756-1.608v-6.932h.504c.726 0 1.364-.398 1.633-1.014Zm-3.977-.244a.639.639 0 0 1-.42.154.635.635 0 0 1-.468-.202C14.8 9.793 11.86 9.924 11.826 9.927c-3.13.033-4.79 1.73-4.842 1.783v.001a.644.644 0 0 1-.886.043l-.022-.02a.588.588 0 0 1-.02-.832c.081-.087 2.053-2.143 5.731-2.18.106-.008 3.535-.176 5.843 2.314a.588.588 0 0 1-.048.851Zm-1.264 1.829a.641.641 0 0 1-.885-.048c-1.318-1.425-3.504-1.388-3.607-1.386h-.004c-2.207.022-3.536 1.373-3.576 1.414a.64.64 0 0 1-.882.04l-.012-.01a.585.585 0 0 1-.036-.839c.067-.073 1.697-1.784 4.476-1.815.095-.009 2.832-.093 4.577 1.79l.02.022a.59.59 0 0 1-.07.832Zm-1.423.994c.21.247.18.62-.07.83a.64.64 0 0 1-.88-.045c-.757-.822-2.042-.805-2.098-.804h-.002c-1.298.014-2.054.774-2.103.822v.001a.632.632 0 0 1-.463.196.63.63 0 0 1-.423-.156l-.017-.017a.59.59 0 0 1-.028-.835c.045-.048 1.14-1.196 2.997-1.218.06-.003 1.891-.068 3.068 1.204a.075.075 0 0 0 .01.011.075.075 0 0 1 .01.011Zm-3 3.984h-.103c-.704-.012-1.415-.449-1.415-1.418 0-.966.709-1.406 1.412-1.412 0 0 .05 0 .056.003.753.02 1.462.463 1.462 1.415 0 .958-.709 1.4-1.412 1.412Z" fill="#313235"/></svg>