<svg width="24" height="24" fill="none" xmlns="http://www.w3.org/2000/svg"><path d="M21.686 6.232c0-.787-.288-1.254-.776-1.254l-2.274-.003V3.403c0-.72-.628-1.378-1.32-1.378H6.381c-.692 0-1.32.658-1.32 1.378v1.575h-2.28c-.487 0-.778.467-.778 1.254V20.46c0 .788.291 1.255.778 1.255h18.13c.484 0 .775-.47.775-1.255V6.232ZM13.67 20.51h-3.647v-5.944h3.647v5.944ZM6.258 3.406c0-.067.084-.162.12-.174h10.924c.045.012.132.107.132.174V20.51h-2.566v-6.546a.6.6 0 0 0-.6-.603H9.424a.6.6 0 0 0-.6.603v6.546H6.258V3.406ZM8.22 8.664c0 .291.277.535.602.535h1.751v1.756c0 .322.25.605.532.605h1.48c.288 0 .531-.277.531-.605L13.112 9.2h1.75c.32 0 .608-.255.608-.535V7.179c0-.28-.29-.535-.607-.535h-1.751v-1.75c0-.32-.255-.611-.532-.611h-1.474c-.283 0-.532.286-.532.61V6.65h-1.75c-.323 0-.603.25-.603.532v1.482Z" fill="#313235"/></svg>