<svg width="24" height="24" fill="none" xmlns="http://www.w3.org/2000/svg"><path d="M21.686 11.868c0-9.053-7.504-9.815-9.431-9.86A49.983 49.983 0 0 0 11.322 2C9.347 2.02 2 2.695 2 11.812c0 9.13 7.415 9.843 9.392 9.871.254.005.528.002.768 0l.134-.002c1.88-.037 9.392-.743 9.392-9.813Zm-8.179-5.165h2.16c.226 0 .409.182.409.409v9.468a.41.41 0 0 1-.41.409h-2.159a.41.41 0 0 1-.409-.41v-3.576h-2.515v3.577a.41.41 0 0 1-.41.409H8.015a.41.41 0 0 1-.409-.41V7.113a.41.41 0 0 1 .409-.409h2.16a.41.41 0 0 1 .409.409v3.451h2.515V7.112a.41.41 0 0 1 .409-.409Z" fill="#313235"/></svg>