<svg width="24" height="24" fill="none" xmlns="http://www.w3.org/2000/svg"><path d="M20.413 4.522c.742 0 1.42.583 1.42 1.224v12.317c0 .641-.677 1.224-1.42 1.224H3.567c-.756 0-1.417-.574-1.417-1.224l.003-12.317c0-.652.664-1.224 1.417-1.224h16.843ZM4.791 8.884a2.267 2.267 0 0 0 2.255 2.277c1.244 0 2.255-1.022 2.255-2.277 0-1.255-1.011-2.278-2.255-2.278-1.243 0-2.255 1.023-2.255 2.278Zm14.933 3.652-3.246-2.507a.61.61 0 0 0-.757.009l-3.711 2.977-.896-.854a.61.61 0 0 0-.816-.025l-5.277 4.44a.627.627 0 0 0-.078.876.608.608 0 0 0 .865.082l4.86-4.087 3.378 3.213a.61.61 0 0 0 .869-.026.628.628 0 0 0-.026-.88l-1.969-1.873 3.196-2.566 2.866 2.213a.61.61 0 0 0 .857-.12.626.626 0 0 0-.115-.872ZM6.021 8.886c0 .57.46 1.034 1.025 1.034a1.035 1.035 0 0 0 0-2.067 1.03 1.03 0 0 0-1.025 1.034Z" fill="#313235"/></svg>