<svg width="24" height="24" fill="none" xmlns="http://www.w3.org/2000/svg"><path d="M11.982 2.26a9.797 9.797 0 0 1 9.036 5.989 9.884 9.884 0 0 1 .776 3.73c.045 5.418-4.31 9.85-9.731 9.894a.532.532 0 0 1-.734-.493V2.78a.53.53 0 0 1 .63-.521h.023ZM6.845 15.604c.747 0 1.364.171 1.834.505.474.336.79.826.936 1.462.081.325.12.655.118.988 0 1.832-.986 2.827-2.858 2.869H6.82c-.316 0-.663-.056-.784-.076l-.014-.003-.025-.005c-1.087-.2-2.065-1.194-2.756-2.801-.715-1.661-1.09-3.874-1.09-6.406v-.09c0-2.532.378-4.748 1.092-6.403C3.934 4.036 4.912 3.04 6 2.845l.025-.003.014-.002.026-.004c.147-.024.504-.08.814-.072 1.869.042 2.857 1.034 2.857 2.868.003.334-.036.667-.117.99-.149.63-.468 1.125-.939 1.458-.47.334-1.09.505-1.834.505-.166 0-.328-.009-.49-.028-.043.033-.222.224-.348 1.028-.12.773-.134 1.776-.134 2.465v.09c0 .686.014 1.691.134 2.464.123.804.305.995.347 1.028a4.11 4.11 0 0 1 .49-.028Zm12.406 1.328a8.651 8.651 0 0 0 1.456-4.314h-3.535a17.968 17.968 0 0 1-.395 3.283c.92.27 1.754.614 2.474 1.031Zm-3.46-8.221a17.8 17.8 0 0 1-3.4.392v2.45h3.717a17.028 17.028 0 0 0-.317-2.842Zm-3.4-.673a16.568 16.568 0 0 0 3.151-.364 10.968 10.968 0 0 0-.737-1.927c-.395-.787-.848-1.4-1.35-1.82-.347-.292-.703-.477-1.064-.558v4.67Zm0 12.726c.361-.081.717-.266 1.064-.558.502-.42.955-1.03 1.35-1.817a10.74 10.74 0 0 0 .675-1.715 16.598 16.598 0 0 0-3.09-.35v4.44Zm0-5.504c1.129.02 2.252.148 3.355.383.213-.994.334-2.005.362-3.022H12.39v2.639Zm4.434-6.813a17.79 17.79 0 0 1 .35 3.107h3.538a8.674 8.674 0 0 0-1.353-4.188c-.731.44-1.588.801-2.535 1.081Zm1.339-2.563a8.719 8.719 0 0 0-3.356-2.095c.345.418.661.91.95 1.482.339.686.613 1.403.815 2.14.81-.244 1.54-.552 2.154-.908a8.376 8.376 0 0 0-.563-.619Zm-2.41 12.98a7.705 7.705 0 0 1-.949 1.483 8.63 8.63 0 0 0 3.356-2.099 8.45 8.45 0 0 0 .434-.464c-.6-.334-1.308-.622-2.084-.852-.196.664-.448 1.31-.756 1.933Z" fill="#313235"/></svg>