<svg width="24" height="24" fill="none" xmlns="http://www.w3.org/2000/svg"><path d="M19.532 8.587h.807c.742 0 1.347.605 1.35 1.353 0 .039-.003.078-.011.115L20.23 18a1.353 1.353 0 0 1-1.345 1.289H4.115a1.355 1.355 0 0 1-1.345-1.4L2 5.94v-.025a1.402 1.402 0 0 1 1.415-1.39h6.128c.782 0 1.418.616 1.418 1.376v.4h7.1c.782 0 1.418.616 1.418 1.375l.064.813c.002.02-.002.04-.005.06-.002.013-.005.025-.006.038ZM9.543 5.774H3.415c-.107 0-.177.068-.177.124l.451 6.994.558-3.02A1.35 1.35 0 0 1 5.59 8.585h12.717v-.003l-.064-.86c0-.106-.073-.17-.18-.17h-7.722a.622.622 0 0 1-.62-.625V5.898c0-.06-.072-.124-.179-.124Z" fill="#313235"/></svg>