<svg width="24" height="24" fill="none" xmlns="http://www.w3.org/2000/svg"><path d="m21.68 9.763-.008 9.804c.026.221.062.902-.403 1.46-.25.3-.734.66-1.627.677H4.045c-.897-.02-1.381-.378-1.63-.677-.463-.555-.426-1.239-.401-1.457l-.008-9.793c.022-1.017.44-1.524.787-1.773l7.42-4.686c.042-.034.697-.482 1.625-.482.593 0 1.173.174 1.669.502l7.359 4.65c.375.265.792.772.815 1.775Zm-9.963 5.065c.328-.006.647-.107.919-.292l7.798-4.862c-.022-.32-.112-.56-.263-.667l-7.359-4.65a1.841 1.841 0 0 0-.963-.288 1.84 1.84 0 0 0-.95.271L3.49 9.024c-.143.103-.238.38-.25.767v.003l7.514 4.737c.285.188.621.291.963.297Z" fill="#313235"/></svg>