<svg width="24" height="24" fill="none" xmlns="http://www.w3.org/2000/svg"><path d="M11.846 2c3.123 0 5.557.818 7.23 2.429 1.736 1.675 2.616 4.168 2.616 7.417 0 3.25-.88 5.745-2.616 7.417-1.673 1.61-4.107 2.429-7.23 2.429-2.303 0-4.23-.445-5.754-1.325l3.647-3.748a.561.561 0 0 0-.002-.784l-.224-.227c1.344-.678 3.327-1.384 5.966-1.574.073.17.182.327.317.456.285.27.655.41 1.109.41.453 0 .823-.133 1.109-.41.286-.277.437-.647.437-1.07 0-.423-.154-.795-.437-1.067-.283-.272-.655-.412-1.11-.412-.453 0-.826.137-1.108.41a1.39 1.39 0 0 0-.356.56c-2.056.145-3.748.588-5.079 1.097l4.768-4.705c.19.084.398.123.605.117.392-.011.75-.174 1.075-.493.325-.32.493-.678.505-1.07a1.423 1.423 0 0 0-.446-1.064c-.3-.297-.67-.448-1.067-.437-.392.008-.75.173-1.075.493-.325.32-.494.678-.505 1.07-.008.204.034.406.115.594l-4.863 4.8c.535-1.347 1-3.086 1.152-5.215a1.36 1.36 0 0 0 .56-.356c.272-.285.409-.658.409-1.109 0-.45-.135-.823-.41-1.11a1.442 1.442 0 0 0-1.066-.436c-.423 0-.796.154-1.068.437-.271.286-.409.655-.409 1.109 0 .454.138.826.41 1.11.128.134.285.243.456.316-.19 2.63-.89 4.61-1.566 5.952l-.193-.196a.549.549 0 0 0-.398-.168.566.566 0 0 0-.4.168L3.3 17.56C2.437 16.045 2 14.132 2 11.846c0-3.247.88-5.742 2.616-7.417C6.29 2.818 8.723 2 11.846 2Z" fill="#313235"/><path d="M9.863 6.966c.042.045.103.09.246.093h.017c.149 0 .213-.048.258-.093.025-.025.098-.1.098-.333 0-.232-.073-.308-.098-.333-.045-.045-.11-.093-.26-.093-.152 0-.216.048-.261.093-.025.025-.098.1-.098.333s.073.308.098.333ZM16.025 8.132c-.168.168-.28.17-.316.17-.065.003-.143-.008-.247-.112l-.003-.002c-.1-.101-.114-.177-.112-.236v-.005c.004-.037.01-.137.171-.297.168-.168.28-.171.317-.171.064-.003.148.014.249.115.1.1.115.176.112.235v.005c-.003.038-.01.137-.17.298Z" fill="#313235"/><path fill-rule="evenodd" clip-rule="evenodd" d="M16.913 13.781c-.23 0-.308-.072-.333-.098-.042-.041-.09-.103-.093-.249v-.014c0-.148.048-.213.093-.258.025-.025.104-.098.333-.098.23 0 .308.073.334.098.044.045.092.11.092.261 0 .151-.048.216-.092.26-.026.026-.104.098-.334.098Z" fill="#313235"/></svg>