<svg width="24" height="24" fill="none" xmlns="http://www.w3.org/2000/svg"><path d="M20.735 6.142c.18.16.277.378.286.602l-.009.689c0 .395-.294.714-.759.865l.007.037c.007.04.015.086.015.129l-.008 8.383c0 .645-.594 1.177-1.33 1.177l-6.379-.009v1.404c.415.168.737.546.737 1.157 0 .848-.63 1.244-1.255 1.258h-.098c-.616-.009-1.25-.401-1.25-1.267 0-.619.323-.988.74-1.157v-1.395H5.093c-.52.02-.834-.176-1.016-.341a1.09 1.09 0 0 1-.362-.82V8.466c0-.038.005-.076.01-.114l.004-.038a1.272 1.272 0 0 1-.481-.263.833.833 0 0 1-.278-.61v-.69c0-.56.594-.966 1.406-.966h2.639l3.726-1.992a1.497 1.497 0 0 1-.054-.386c0-.857.63-1.25 1.255-1.258v.008h.098c.617.006 1.25.407 1.25 1.258 0 .132-.014.247-.045.35l3.479 2.025h2.834c.505-.02.92.11 1.177.35Zm-9.067-2.734c0 .16.022.32.294.32.353-.01.353-.189.353-.312 0-.118 0-.314-.3-.32l-.062-.002c-.263.008-.285.151-.285.314Zm-.13 1.199L9.34 5.783l5.193.008-2.045-1.201a1.31 1.31 0 0 1-.45.081h-.085c-.134 0-.277-.022-.414-.064Zm8.354 2.297c-.104-.023-.21-.028-.317-.023L4.38 6.873a.794.794 0 0 0-.28.045v.364c.062.014.165.028.308.022h.518c.024 0 .046-.002.067-.004a.52.52 0 0 1 .054-.004l13.849.008a.325.325 0 0 1 .092.002.437.437 0 0 0 .05.004h.566a.792.792 0 0 0 .28-.042l.009-.364Zm-7.577 13.675c0-.118 0-.314-.3-.32h-.059c-.263 0-.285.151-.285.311-.003.126-.003.314.29.32.354-.009.354-.188.354-.311Zm-3.832-5.656 1.165-1.767 2.527.946a.45.45 0 0 0 .473-.123l1.826-2.224.045.289c.031.196.21.341.406.341a.184.184 0 0 0 .034-.004.413.413 0 0 0 .38-.464l-.178-1.162a.413.413 0 0 0-.415-.333h-1.333a.407.407 0 0 0-.415.392c0 .224.188.398.415.398h.442l-1.664 2.03-2.557-.952a.41.41 0 0 0-.496.154l-1.196 1.818v-3.79a.402.402 0 0 0-.412-.398h-.002a.4.4 0 0 0-.415.387v4.86c0 .218.18.4.415.4h7.89a.41.41 0 0 0 .415-.4.404.404 0 0 0-.412-.398H8.483Z" fill="#313235"/></svg>