<svg width="24" height="24" fill="none" xmlns="http://www.w3.org/2000/svg"><path d="M2.16 12.006C2.16 5.563 5.563 2.16 12 2.16c6.443 0 9.846 3.403 9.846 9.846 0 6.437-3.406 9.84-9.846 9.84-6.437 0-9.84-3.403-9.84-9.84Zm10.49-4.174V4.807a.604.604 0 1 0-1.21 0v3.025a.604.604 0 1 0 1.21 0Zm3.527 4.818h3.022a.604.604 0 1 0 0-1.21h-3.022a.604.604 0 1 0 0 1.21Zm.46 4.902a.602.602 0 0 0 .85-.003.604.604 0 0 0 0-.857l-2.137-2.137a.605.605 0 0 0-.854.854l2.14 2.143Zm-4.676 2.252a.604.604 0 0 0 .605-.605v-3.025a.604.604 0 1 0-1.21 0v3.025c0 .336.269.605.605.605Zm-2.513-4.453a.6.6 0 0 0 0-.83.605.605 0 0 0-.854-.022l-2.137 2.137a.605.605 0 0 0 .854.855l2.137-2.14Zm-4.641-3.995a.606.606 0 0 0 0 1.21h3.025a.604.604 0 1 0 0-1.21H4.807Zm9.75-2.7a.608.608 0 0 0-.002.854.605.605 0 0 0 .854 0l2.14-2.137a.605.605 0 0 0-.854-.854l-2.137 2.137Z" fill="#313235"/></svg>