<svg width="24" height="24" fill="none" xmlns="http://www.w3.org/2000/svg"><path d="M17.663 14.424a9.62 9.62 0 0 0 .28-.273c3.401-3.417 3.906-8.966 3.704-10.602a1.715 1.715 0 0 0-1.485-1.482c-1.93-.224-7.257.434-10.554 3.748l-.286.3a3.804 3.804 0 0 0-2.356-.558C5.56 5.692 4.218 6.583 2.994 8.18c-.319.376-.297.74-.252.922.165.703 1.003 1.059 2.165 1.552l.012.005c.285.12.568.247.851.376l-.285.577c-.398.882-.774 1.969-.174 2.52l4.322 4.345c.205.205.476.308.824.308.436 0 .994-.162 1.697-.49l.555-.272c.145.32.291.647.425.972l.009.02c.488 1.163.841 2.004 1.54 2.168a.999.999 0 0 0 .894-.232c1.613-1.253 2.499-2.603 2.63-4.014a3.86 3.86 0 0 0-.608-2.451l.064-.061Zm2.354-11.127a.478.478 0 0 1 .412.406c.09.748-.006 2.527-.563 4.487l-4.303-4.327c1.927-.552 3.678-.653 4.454-.566ZM6.38 9.955a27.13 27.13 0 0 0-.983-.437c-.451-.19-1.095-.465-1.373-.658.995-1.266 2.014-1.964 3.031-2.067.49-.048.98.047 1.42.269-.767.91-1.47 1.876-2.095 2.893Zm10.596 6.888c-.1 1.014-.781 2.028-2.053 3.048-.193-.275-.465-.922-.655-1.376a30.822 30.822 0 0 0-.485-1.098 23.852 23.852 0 0 0 2.877-2.109c.26.468.37 1.003.316 1.535ZM3.91 16.678C3.196 17.395 2 18.922 2 21.095c0 .342.275.62.616.62 2.244 0 3.821-1.343 4.395-1.92.97-.974.97-2.14 0-3.117-.972-.978-2.129-.975-3.1 0ZM14.367 9.95c-.577 0-.784-.208-.784-.788 0-.582.204-.787.784-.787.577 0 .784.208.784.787 0 .58-.207.788-.784.788Zm-2.014-.79c0-1.27.753-2.026 2.014-2.026 1.26 0 2.014.76 2.014 2.026 0 1.266-.754 2.025-2.014 2.025-1.26 0-2.014-.757-2.014-2.025Z" fill="#313235"/></svg>