<svg width="24" height="24" fill="none" xmlns="http://www.w3.org/2000/svg"><path d="M2.017 11.843c0-6.72 3.594-9.823 9.826-9.823 6.23 0 9.826 3.103 9.826 9.823 0 6.72-3.593 9.826-9.826 9.826-6.232 0-9.826-3.106-9.826-9.826Zm8.431.608c.034-.19.053-.392.053-.608 0-.213-.016-.412-.064-.597l2.647-1.324c.053.07.112.14.174.204.42.431 1.033.658 1.776.658.742 0 1.355-.227 1.775-.658.415-.423.625-1.011.625-1.75 0-.77-.227-1.379-.675-1.805-.415-.394-1.014-.605-1.723-.605-.708 0-1.305.21-1.722.605-.448.426-.675 1.034-.675 1.804 0 .177.014.342.036.502L9.983 10.22a1.68 1.68 0 0 0-.165-.179c-.415-.395-1.014-.605-1.723-.605-.708 0-1.305.21-1.722.605-.449.426-.676 1.034-.676 1.804 0 .737.21 1.328.625 1.75.42.432 1.034.659 1.776.659s1.356-.227 1.776-.658c.04-.04.076-.082.11-.124l2.694 1.348a3.128 3.128 0 0 0-.037.495c0 .737.21 1.328.625 1.751.42.432 1.034.659 1.776.659s1.356-.227 1.776-.659c.415-.423.625-1.011.625-1.75 0-.77-.227-1.379-.676-1.804-.414-.395-1.013-.605-1.722-.605-.709 0-1.306.21-1.723.605-.084.078-.16.168-.23.26l-2.644-1.322Z" fill="#313235"/></svg>