<svg width="24" height="24" fill="none" xmlns="http://www.w3.org/2000/svg"><path d="M16.613 21.664a2.07 2.07 0 0 1-1.005-.26l-3.56-1.953c-.138-.064-.253-.081-.39.008l-3.546 1.944a2.08 2.08 0 0 1-2.216-.128 2.218 2.218 0 0 1-.899-2.191l.664-4.028c.064-.316.011-.392-.18-.591L2.67 11.608a2.234 2.234 0 0 1-.52-2.291 2.152 2.152 0 0 1 1.714-1.468l3.896-.591c.238-.045.308-.079.457-.381L9.938 3.24a2.111 2.111 0 0 1 1.922-1.238c.826 0 1.563.476 1.924 1.238l1.731 3.655c.14.264.185.322.49.367l3.858.586c.795.12 1.45.683 1.714 1.468.272.8.07 1.689-.521 2.29l-2.712 2.732c-.31.31-.322.339-.271.714l.65 4.031a2.223 2.223 0 0 1-.9 2.19c-.352.253-.776.39-1.21.39Z" fill="#313235"/></svg>