<svg width="24" height="24" fill="none" xmlns="http://www.w3.org/2000/svg"><path d="M21.848 4.399a.573.573 0 0 1-.09.347l-.005.011a8.989 8.989 0 0 1-.723.925c-.05.055-.104.108-.157.16-.036.035-.072.07-.106.106-.185.19-.376.375-.578.549-.117.098-.24.193-.364.285-.182.14-.37.278-.565.404-.157.1-.32.196-.482.288-.04.021-.077.045-.114.068-.037.023-.074.046-.113.067.008.014.008.022.008.039.065.801.098 1.68.098 2.706 0 5.174-.865 8.837-4.77 9.672-.24.05-.496.084-.76.115a.86.86 0 0 0-.048.009c-.024.004-.047.009-.074.01-.314.029-.642.045-.986.045-2.065 0-3.516-.551-4.521-1.557-1.678-1.675-2.118-4.6-2.118-8.294 0-1.025.03-1.924.098-2.74-.086-.045-.166-.096-.246-.147a5.99 5.99 0 0 0-.146-.09c-.044-.028-.089-.054-.133-.08a5.925 5.925 0 0 1-.293-.181 6.893 6.893 0 0 1-.46-.34l-.05-.038a6.232 6.232 0 0 1-.403-.317 9.14 9.14 0 0 1-.527-.515 3.937 3.937 0 0 0-.1-.099c-.056-.054-.112-.108-.163-.167a8.802 8.802 0 0 1-.703-.9.606.606 0 0 1 .04-.703.617.617 0 0 1 .142-.14.619.619 0 0 1 .72.04c.05.039.098.078.137.131.112.168.239.323.365.478l.058.071a7.64 7.64 0 0 0 2.675 2.09c1.513.717 3.404 1.081 5.622 1.081 2.77 0 4.989-.577 6.658-1.692a7.38 7.38 0 0 0 2.053-2.02c.019-.026.043-.047.067-.067a1.06 1.06 0 0 0 .026-.022.617.617 0 0 1 .765-.081.569.569 0 0 1 .266.493Zm-9.801 12.235a.61.61 0 0 0 .613-.608l-.036-7.05a8.399 8.399 0 0 0-.252.012 6.152 6.152 0 0 1-.356.013c-.126 0-.245-.007-.363-.015a7.443 7.443 0 0 0-.265-.013l.04 7.059a.61.61 0 0 0 .616.602h.003Z" fill="#313235"/></svg>