<svg width="24" height="24" fill="none" xmlns="http://www.w3.org/2000/svg"><path d="M21.678 6.542s.285-3.698-3.639-3.698l-12.428.003s-.073-.005-.197-.005c-.753 0-3.409.243-3.409 3.678 0 4.002.003 10.66.003 10.66s-.246 3.684 3.617 3.684h12.417s.12.017.314.017c.882 0 3.324-.308 3.324-3.72l-.002-10.62ZM3.249 6.259c.073-1.294.639-1.68.838-1.807.333-.215.706-.297.991-.33v2.137H3.25Zm15.359 13.356v-2.101h1.832c-.037.74-.286 1.977-1.832 2.1ZM3.244 17.53h1.834v2.047c-.549-.075-.972-.269-1.266-.58-.431-.462-.54-1.111-.568-1.467ZM20.448 6.245H18.61v-2.11c.56.08.992.275 1.283.592.451.487.538 1.182.555 1.518Zm0 10.02h-1.84v-2.087h1.84v2.087Zm-1.84-6.681V7.497h1.84v2.087h-1.84Zm1.84 3.339h-1.84v-2.087h1.84v2.087ZM3.235 16.279v-2.087h1.84v2.087h-1.84Zm1.843-6.687H3.235v-2.08h1.843v2.08Zm-1.843 1.252h1.84v2.093h-1.84v-2.092Zm6.356 3.6V9.28l4.39 2.583-4.39 2.58Zm-.308-6.787 6.238 3.664c.19.112.305.319.305.543a.63.63 0 0 1-.308.543l-6.235 3.664a.606.606 0 0 1-.616 0 .622.622 0 0 1-.309-.54V8.2a.63.63 0 0 1 .309-.544.607.607 0 0 1 .616 0Z" fill="#313235"/></svg>