<svg width="24" height="24" fill="none" xmlns="http://www.w3.org/2000/svg"><path d="M18.656 8.597c0-4.38-2.37-6.437-6.431-6.437-4.065 0-6.434 2.056-6.432 6.44 0 1.39.241 2.549.706 3.479a.212.212 0 0 1-.017.02c-.01.01-.02.02-.025.036l-2.983 6.479c-.162.35-.112.762.132 1.061.185.23.456.362.778.362.101 0 .202-.011.308-.037l1.958-.72.762 2.028c.18.34.521.538.894.538h.025a.994.994 0 0 0 .894-.588l2.767-5.991 2.762 5.991a.99.99 0 0 0 .888.588h.034c.372 0 .711-.21.927-.605l.728-1.963 2.04.745a.997.997 0 0 0 1.002-.356.984.984 0 0 0 .132-1.053l-2.801-6.081c.63-.995.952-2.303.952-3.936Zm-7.753 2.717a.545.545 0 0 1-.328-.106.608.608 0 0 1-.25-.605l.2-1.202c0-.004-.003-.008-.005-.013-.002-.004-.004-.008-.004-.012l-.838-.846a.618.618 0 0 1-.14-.639.585.585 0 0 1 .474-.406l1.151-.17.008-.002c.002 0 .004-.002.009-.007l.513-1.084a.577.577 0 0 1 1.062 0l.526 1.084c0 .008.008.008.008.008l1.151.171c.225.034.41.19.482.406a.62.62 0 0 1-.151.639l-.838.846c0 .003 0 .005-.002.008-.001.006-.003.011.002.017l.19 1.202a.597.597 0 0 1-.248.605.554.554 0 0 1-.331.106.583.583 0 0 1-.283-.073l-1.028-.563h-.017l-1.028.563a.61.61 0 0 1-.285.073Zm-4.474 6.72-1.6.588 2.48-5.358c.837.902 2.005 1.456 3.465 1.664L8.328 20.23l-.596-1.608a1.022 1.022 0 0 0-1.303-.588Zm9.815.6-.596 1.604-2.42-5.26c1.476-.143 2.694-.605 3.588-1.4l2.322 5.047-1.591-.588a1.021 1.021 0 0 0-1.303.596Z" fill="#313235"/></svg>