<svg width="24" height="24" fill="none" xmlns="http://www.w3.org/2000/svg"><path d="M9.467 4.485c0 1.549.916 2.473 2.448 2.473 1.535 0 2.454-.924 2.454-2.476 0-.793-.227-1.418-.675-1.852-.432-.417-1.029-.63-1.78-.63-.75 0-1.346.213-1.778.636-.445.437-.67 1.059-.67 1.849Zm7.627 10.294c.176-.364.204-.78.073-1.171 0 0-1.518-4.37-1.521-4.364a1.326 1.326 0 0 0-.076-.194 2.833 2.833 0 0 0-2.605-1.74h-2.098a2.826 2.826 0 0 0-2.594 1.712 1.54 1.54 0 0 0-.08.205l-1.527 4.392c-.132.384-.104.801.075 1.165.177.359.48.628.84.751.166.059.334.09.505.09h.002l-.168.63a.604.604 0 0 0 .577.759h.401l.017 3.146c0 .848.6 1.504 1.398 1.523h.036c.347.009.68-.123.927-.367.283-.28.437-.689.437-1.16l-.017-3.145h.47l-.013 3.149c0 .868.56 1.507 1.33 1.523h.037c.501 0 .81-.204.983-.375.272-.272.417-.67.417-1.146l.017-3.15h.4a.604.604 0 0 0 .577-.76l-.167-.63c.168.008.336-.023.493-.087.375-.126.678-.395.854-.756Z" fill="#313235"/></svg>